<?xml version="1.0" ?>
<svg height="140" width="140" xmlns="http://www.w3.org/2000/svg">
  <path d="M 63.835296630859375, 24.278644561767578 Q 63.38169473844052, 23.64105282253294, 58.01117086395345, 23.39448630344087 " fill="none" id="curve_1" stroke="#000000" stroke-linecap="round" stroke-linejoin="round" stroke-width="9.412054590502413"/>
  <path d="M 58.01117086395345, 23.39448630344087 Q 55.93968899107986, 25.382782152969664, 32.316552854176294, 25.87969517211576 " fill="none" id="curve_1" stroke="#000000" stroke-linecap="round" stroke-linejoin="round" stroke-width="10.865950098473572"/>
  <path d="M 32.316552854176294, 25.87969517211576 Q 28.179477346629707, 25.332577731921774, 21.351080738816975, 24.739129317976058 " fill="none" id="curve_1" stroke="#000000" stroke-linecap="round" stroke-linejoin="round" stroke-width="11.003799259298496"/>
  <path d="M 63.97245498735345, 26.546890065208448 Q 59.27849682786248, 42.14659492900465, 47.13817385381995, 67.18913506897607 " fill="none" id="curve_2" stroke="#000000" stroke-linecap="round" stroke-linejoin="round" stroke-width="7.378538590096262"/>
  <path d="M 47.13817385381995, 67.18913506897607 Q 41.020748019277555, 77.9117839473448, 31.31583354715937, 110.02841194968447 " fill="none" id="curve_2" stroke="#000000" stroke-linecap="round" stroke-linejoin="round" stroke-width="5.93060707303642"/>
  <path d="M 42.92606345242173, 67.9506496473068 Q 27.061432602352095, 70.11636363602871, 3.3688957934041497, 73.72004048969579 " fill="none" id="curve_3" stroke="#000000" stroke-linecap="round" stroke-linejoin="round" stroke-width="6.563114510330029"/>
  <path d="M 51.506850762555565, 65.74181314127087 Q 52.420867182332515, 66.36731941307191, 53.74943959850035, 67.19738993726386 " fill="none" id="curve_4" stroke="#000000" stroke-linecap="round" stroke-linejoin="round" stroke-width="5.947972945937795"/>
  <path d="M 53.74943959850035, 67.19738993726386 Q 55.426018633515646, 44.265281161958534, 60.87901603556686, 25.640579308081257 " fill="none" id="curve_4" stroke="#000000" stroke-linecap="round" stroke-linejoin="round" stroke-width="5.1381580986146975"/>
  <path d="M 88.46366474530518, 12.389026363146412 Q 89.30683868096303, 19.53178806594336, 89.96820014511981, 49.930898800378536 " fill="none" id="curve_5" stroke="#000000" stroke-linecap="round" stroke-linejoin="round" stroke-width="1.838312526785446"/>
  <path d="M 89.96820014511981, 49.930898800378536 Q 89.96803556027331, 68.86248986856526, 89.96686854479032, 91.6967023586629 " fill="none" id="curve_5" stroke="#000000" stroke-linecap="round" stroke-linejoin="round" stroke-width="1.768205094998053"/>
  <path d="M 89.96686854479032, 91.6967023586629 Q 89.87936164002218, 112.10370703678208, 89.35229310381047, 119.00924991594292 " fill="none" id="curve_5" stroke="#000000" stroke-linecap="round" stroke-linejoin="round" stroke-width="2.1160941076179784"/>
  <path d="M 89.75115348024434, 137.83138521854482 Q 89.59483604315322, 137.39537648891297, 89.45394396569137, 136.380727498626 " fill="none" id="curve_6" stroke="#000000" stroke-linecap="round" stroke-linejoin="round" stroke-width="2.036176280234253"/>
  <path d="M 50.84099351978803, 66.74831011324815 Q 47.1296631693989, 73.8868310027027, 37.1785701406025, 88.34073611615862 " fill="none" id="curve_10" stroke="#000000" stroke-linecap="round" stroke-linejoin="round" stroke-width="4.256118291258257"/>
  <path d="M 33.43099365818056, 111.1560024984235 Q 33.128841709131784, 112.2979946846355, 32.39375053791331, 112.91816332821456 " fill="none" id="curve_11" stroke="#000000" stroke-linecap="round" stroke-linejoin="round" stroke-width="4.297637403962873"/>
  <path d="M 8.830654511172789, 70.40594863981892 Q 3.726535127261635, 70.52865479949584, 2.756172144472081, 71.95755990821164 " fill="none" id="curve_13" stroke="#000000" stroke-linecap="round" stroke-linejoin="round" stroke-width="5.239044668599726"/>
  <path d="M 2.756172144472081, 71.95755990821164 Q 20.01823318839389, 70.20671796589427, 45.60165159103781, 66.30503163438988 " fill="none" id="curve_13" stroke="#000000" stroke-linecap="round" stroke-linejoin="round" stroke-width="3.7103483912830084"/>
  <path d="M 45.60165159103781, 66.30503163438988 Q 49.79502309894713, 53.84048596930718, 60.36106684529459, 37.91928934082871 " fill="none" id="curve_13" stroke="#000000" stroke-linecap="round" stroke-linejoin="round" stroke-width="4.963811301802885"/>
  <path d="M 89.02975897661118, 8.177245840343398 Q 89.18236525587918, 5.343322080102542, 89.36297591631283, 0.9297374354460963 " fill="none" id="curve_15" stroke="#000000" stroke-linecap="round" stroke-linejoin="round" stroke-width="2.0138244317064298"/>
  <path d="M 42.6001268778233, 28.991062328505194 Q 57.850089703614756, 28.099398827152513, 63.43935547786556, 22.43027883870719 " fill="none" id="curve_19" stroke="#000000" stroke-linecap="round" stroke-linejoin="round" stroke-width="3.1249077852980176"/>
  <path d="M 63.43935547786556, 22.43027883870719 Q 62.74624273269298, 20.302930197018686, 58.43896374234022, 19.649607896030147 " fill="none" id="curve_19" stroke="#000000" stroke-linecap="round" stroke-linejoin="round" stroke-width="3.704936421870696"/>
  <path d="M 63.78175601805391, 34.149512229448014 Q 59.201398841286505, 41.292906985780434, 52.01108982768687, 48.697233003614286 " fill="none" id="curve_20" stroke="#000000" stroke-linecap="round" stroke-linejoin="round" stroke-width="4.424756736363438"/>
  <path d="M 18.900728627518465, 22.63248251987472 Q 18.977328801933293, 22.753003068852202, 19.01346616324478, 23.33614879215304 " fill="none" id="curve_22" stroke="#000000" stroke-linecap="round" stroke-linejoin="round" stroke-width="5.71214465745223"/>
  <path d="M 19.01346616324478, 23.33614879215304 Q 20.3428431242496, 23.05028167814774, 22.613969550204327, 22.486641288556747 " fill="none" id="curve_22" stroke="#000000" stroke-linecap="round" stroke-linejoin="round" stroke-width="3.982765185942817"/>
  <path d="M 47.30152755960323, 65.0719874798029 Q 43.891455358521796, 80.24483023811274, 34.25281081629529, 92.34688751145384 " fill="none" id="curve_24" stroke="#000000" stroke-linecap="round" stroke-linejoin="round" stroke-width="4.2777362565526555"/>
  <path d="M 43.36275354063956, 76.84396354831009 Q 40.46812336234543, 81.59665806568576, 36.14850662619351, 87.94990639971039 " fill="none" id="curve_25" stroke="#000000" stroke-linecap="round" stroke-linejoin="round" stroke-width="6.434372683779338"/>
  <path d="M 36.14850662619351, 87.94990639971039 Q 40.735082367494314, 85.68224117667724, 43.0077392468941, 76.2678065256383 " fill="none" id="curve_25" stroke="#000000" stroke-linecap="round" stroke-linejoin="round" stroke-width="6.014833675534932"/>
  <path d="M 43.0077392468941, 76.2678065256383 Q 39.386640849744566, 79.02167672191169, 36.67856591705656, 83.56221308365646 " fill="none" id="curve_25" stroke="#000000" stroke-linecap="round" stroke-linejoin="round" stroke-width="3.997405774739842"/>
  <path d="M 2.850513890237078, 74.87553453494198 Q 4.281142669585193, 74.73647762447521, 6.882641609327606, 74.53692414622618 " fill="none" id="curve_27" stroke="#000000" stroke-linecap="round" stroke-linejoin="round" stroke-width="3.911301037533505"/>
  <path d="M 44.05543452722294, 22.511679547413138 Q 43.754545836706335, 22.453257670545476, 43.06584369037838, 22.390064435482845 " fill="none" id="curve_30" stroke="#000000" stroke-linecap="round" stroke-linejoin="round" stroke-width="4.226409055107864"/>
  <path d="M 20.385274807802894, 73.80853897492861 Q 8.816338700428872, 73.79965618314321, 4.917821845115556, 73.7159658816678 " fill="none" id="curve_32" stroke="#000000" stroke-linecap="round" stroke-linejoin="round" stroke-width="3.158478248099076"/>
  <path d="M 20.297532880475817, 22.35973853662567 Q 21.17775573262696, 22.405568997265686, 23.375886514147933, 22.478336261841648 " fill="none" id="curve_42" stroke="#000000" stroke-linecap="round" stroke-linejoin="round" stroke-width="3.6093866495345557"/>
  <path d="M 20.457078360476828, 23.78641219552817 Q 21.116307488771234, 22.690941787618293, 24.05786000763697, 21.740948693890466 " fill="none" id="curve_73" stroke="#000000" stroke-linecap="round" stroke-linejoin="round" stroke-width="3.305039264233323"/>
  <path d="M 24.05786000763697, 21.740948693890466 Q 22.13291505295434, 22.221583143412058, 19.21984083428616, 23.06144990261939 " fill="none" id="curve_73" stroke="#000000" stroke-linecap="round" stroke-linejoin="round" stroke-width="4.30920147185818"/>
  <path d="M 33.59334945678711, 67.13142967224121 Q 31.60979648941809, 67.45852155487404, 25.54687106696042, 67.92602213822896 " fill="none" id="curve_100" stroke="#000000" stroke-linecap="round" stroke-linejoin="round" stroke-width="2.9644067313141815"/>
  <path d="M 53.1188537205392, 48.08447986089655 Q 55.37668135240781, 44.303010507155165, 60.918898995039015, 40.52100828649468 " fill="none" id="curve_121" stroke="#000000" stroke-linecap="round" stroke-linejoin="round" stroke-width="3.569316832419825"/>
  <path d="M 56.15364483877137, 28.324095012316093 Q 51.43445964009222, 26.575445917343664, 41.52703641841455, 23.527026811606518 " fill="none" id="curve_128" stroke="#000000" stroke-linecap="round" stroke-linejoin="round" stroke-width="6.348609598334396"/>
  <path d="M 41.52703641841455, 23.527026811606518 Q 43.15595345857061, 23.14038030867913, 54.8490317976736, 22.945882608201458 " fill="none" id="curve_128" stroke="#000000" stroke-linecap="round" stroke-linejoin="round" stroke-width="2.786884042703457"/>
  <path d="M 32.352136800870205, 105.37475218657704 Q 33.22752842254764, 107.15079475263077, 34.254502028269535, 110.33680946535816 " fill="none" id="curve_137" stroke="#000000" stroke-linecap="round" stroke-linejoin="round" stroke-width="3.4230585080894538"/>
  <path d="M 42.31650077290327, 81.70473342780556 Q 44.150633805231706, 79.63934639034971, 45.52100233670481, 75.29273413485457 " fill="none" id="curve_138" stroke="#000000" stroke-linecap="round" stroke-linejoin="round" stroke-width="3.8569147442557945"/>
  <path d="M 10.89054690715205, 74.64451625430509 Q 6.892371345697435, 74.20944247745751, 3.9711362070133225, 73.0795013102268 " fill="none" id="curve_139" stroke="#000000" stroke-linecap="round" stroke-linejoin="round" stroke-width="4.483426655700126"/>
  <path d="M 3.9711362070133225, 73.0795013102268 Q 3.7419333055444404, 72.47420182633026, 3.4142111401897353, 71.47221483452688 " fill="none" id="curve_139" stroke="#000000" stroke-linecap="round" stroke-linejoin="round" stroke-width="3.9052376515290255"/>
  <path d="M 4.600741563940829, 70.05721403112797 Q 3.472587899499059, 71.231237251285, 2.055591570848403, 73.78280699259821 " fill="none" id="curve_147" stroke="#000000" stroke-linecap="round" stroke-linejoin="round" stroke-width="3.9043142779135875"/>
  <path d="M 39.073610468825045, 28.735169468411648 Q 39.719296099947776, 25.639459720619612, 48.594824167375386, 24.522462749333123 " fill="none" id="curve_171" stroke="#000000" stroke-linecap="round" stroke-linejoin="round" stroke-width="4.025431488500201"/>
  <path d="M 63.599991720206575, 31.508753254517654 Q 63.8081190608888, 31.269750090819997, 64.12010789667372, 30.726619661051195 " fill="none" id="curve_190" stroke="#000000" stroke-linecap="round" stroke-linejoin="round" stroke-width="1.9013713865433723"/>
</svg>
