<?xml version="1.0" ?>
<svg height="140" width="140" xmlns="http://www.w3.org/2000/svg">
  <path d="M 63.484571715168556, 70.86083064743977 Q 53.51667017608302, 72.33604687830787, 45.53080590392511, 76.01855504722285 " fill="none" id="curve_2" stroke="#000000" stroke-linecap="round" stroke-linejoin="round" stroke-width="4.941395681443191"/>
  <path d="M 45.53080590392511, 76.01855504722285 Q 42.64502139897409, 85.0589129933888, 38.2740584224031, 93.61906651700914 " fill="none" id="curve_2" stroke="#000000" stroke-linecap="round" stroke-linejoin="round" stroke-width="3.279893431369686"/>
  <path d="M 47.57918725665586, 72.58404471424295 Q 49.81168391695372, 70.86337281845199, 50.47689843627333, 63.13467354311602 " fill="none" id="curve_3" stroke="#000000" stroke-linecap="round" stroke-linejoin="round" stroke-width="7.135008079092938"/>
  <path d="M 50.47689843627333, 63.13467354311602 Q 49.58358749847726, 45.98898548084627, 36.53306741197942, 37.59347670337174 " fill="none" id="curve_3" stroke="#000000" stroke-linecap="round" stroke-linejoin="round" stroke-width="4.702326542748902"/>
  <path d="M 36.53306741197942, 37.59347670337174 Q 34.86505561863347, 34.50188081995203, 28.451559188196406, 33.16345509911351 " fill="none" id="curve_3" stroke="#000000" stroke-linecap="round" stroke-linejoin="round" stroke-width="5.088621312417609"/>
  <path d="M 38.60611301978209, 65.75232901446485 Q 44.69045797298634, 67.93056152636066, 48.689670128261824, 71.4892126512116 " fill="none" id="curve_4" stroke="#000000" stroke-linecap="round" stroke-linejoin="round" stroke-width="5.138573229833458"/>
  <path d="M 42.27818168271355, 41.92068189571551 Q 42.01553071584639, 36.38092651096481, 34.86979642140282, 35.73408742839603 " fill="none" id="curve_5" stroke="#000000" stroke-linecap="round" stroke-linejoin="round" stroke-width="2.8883985979932922"/>
  <path d="M 44.10512974755128, 81.49070201095799 Q 45.703871428106694, 80.02991922149648, 47.6410365756194, 76.55000791755077 " fill="none" id="curve_10" stroke="#000000" stroke-linecap="round" stroke-linejoin="round" stroke-width="3.056935293704339"/>
  <path d="M 48.59379312764713, 51.8246144835457 Q 51.23129676869208, 52.47322259129011, 51.985672639307936, 57.29884364520539 " fill="none" id="curve_25" stroke="#000000" stroke-linecap="round" stroke-linejoin="round" stroke-width="2.9602829452294266"/>
  <path d="M 32.20942837742561, 33.31682890871943 Q 30.804644411345112, 33.107859340600925, 28.053888610404268, 32.89717269855292 " fill="none" id="curve_26" stroke="#000000" stroke-linecap="round" stroke-linejoin="round" stroke-width="3.764870659590963"/>
  <path d="M 45.4748228131145, 80.11443025010355 Q 44.52282430022133, 81.39887455320098, 42.097070400328796, 83.61857456715161 " fill="none" id="curve_47" stroke="#000000" stroke-linecap="round" stroke-linejoin="round" stroke-width="2.7616205331142014"/>
  <path d="M 40.81765510945888, 42.46906436393601 Q 42.583108011736684, 47.174260731680256, 47.38874642786006, 50.244404370558996 " fill="none" id="curve_75" stroke="#000000" stroke-linecap="round" stroke-linejoin="round" stroke-width="2.546941769800199"/>
  <path d="M 41.799319033977156, 44.18444396333442 Q 43.80531778522696, 43.780396644943686, 46.3511508119343, 42.87782708261408 " fill="none" id="curve_83" stroke="#000000" stroke-linecap="round" stroke-linejoin="round" stroke-width="2.3514322123192017"/>
  <path d="M 30.535640239715576, 31.59881591796875 Q 30.19380011340617, 32.50104995531279, 29.665022822062042, 34.05334639676562 " fill="none" id="curve_97" stroke="#000000" stroke-linecap="round" stroke-linejoin="round" stroke-width="4.338587362280861"/>
  <path d="M 55.88142019191293, 73.19067674853449 Q 52.29172026759184, 71.96428611711025, 45.6742389827135, 70.63501802729529 " fill="none" id="curve_126" stroke="#000000" stroke-linecap="round" stroke-linejoin="round" stroke-width="3.6586888757963596"/>
  <path d="M 27.845648288726807, 33.63262939453125 Q 29.379142693525655, 35.033262443219535, 33.14099211132577, 36.30319255196096 " fill="none" id="curve_140" stroke="#000000" stroke-linecap="round" stroke-linejoin="round" stroke-width="3.3673103971980036"/>
  <path d="M 45.196076669270454, 78.60171396904093 Q 45.5950432741304, 78.35551384071671, 46.04680598706474, 77.83209499457972 " fill="none" id="curve_155" stroke="#000000" stroke-linecap="round" stroke-linejoin="round" stroke-width="3.528695937320235"/>
  <path d="M 36.573398128862245, 96.16017821732169 Q 36.816162524967346, 95.3186289087409, 37.49087275681336, 94.32813321222146 " fill="none" id="curve_156" stroke="#000000" stroke-linecap="round" stroke-linejoin="round" stroke-width="2.1178261886314607"/>
</svg>
