<?xml version="1.0" ?>
<svg height="140" width="140" xmlns="http://www.w3.org/2000/svg">
  <path d="M 71.85746765136719, 71.6415958404541 Q 69.43172009831346, 74.02645595234276, 53.214493647539726, 74.92446144659061 " fill="none" id="curve_1" stroke="#000000" stroke-linecap="round" stroke-linejoin="round" stroke-width="7.24657376372909"/>
  <path d="M 53.214493647539726, 74.92446144659061 Q 53.34463854121845, 65.43442779979584, 54.264744293545625, 60.34501787734298 " fill="none" id="curve_1" stroke="#000000" stroke-linecap="round" stroke-linejoin="round" stroke-width="6.085204850188676"/>
  <path d="M 54.264744293545625, 60.34501787734298 Q 56.1482027908731, 53.95781039617766, 57.76947130842973, 37.03537178619452 " fill="none" id="curve_1" stroke="#000000" stroke-linecap="round" stroke-linejoin="round" stroke-width="5.222272161636992"/>
  <path d="M 57.76947130842973, 37.03537178619452 Q 42.561956497566186, 38.19746135429085, 35.84114309405543, 44.68289555853461 " fill="none" id="curve_1" stroke="#000000" stroke-linecap="round" stroke-linejoin="round" stroke-width="3.7390779171529123"/>
  <path d="M 35.84114309405543, 44.68289555853461 Q 29.569765543788108, 44.71700576560208, 28.253528827535952, 45.08061108432299 " fill="none" id="curve_1" stroke="#000000" stroke-linecap="round" stroke-linejoin="round" stroke-width="5.715638436877771"/>
  <path d="M 40.144216495889694, 78.5938913302548 Q 45.16928026178197, 77.91967179129969, 52.016683789886514, 77.12094306341521 " fill="none" id="curve_2" stroke="#000000" stroke-linecap="round" stroke-linejoin="round" stroke-width="5.714332495910187"/>
  <path d="M 52.016683789886514, 77.12094306341521 Q 52.39231403213543, 93.85260683006484, 53.400449087171204, 101.38096608427273 " fill="none" id="curve_2" stroke="#000000" stroke-linecap="round" stroke-linejoin="round" stroke-width="4.655877199723658"/>
  <path d="M 46.54402150828966, 75.70602969399545 Q 40.75551702097592, 76.3601267494535, 38.2023615370582, 78.6978125514992 " fill="none" id="curve_3" stroke="#000000" stroke-linecap="round" stroke-linejoin="round" stroke-width="3.8273867707913456"/>
  <path d="M 29.597838882084268, 43.84288939407466 Q 42.524422528830485, 41.16856114594581, 55.115017834717975, 35.06957241407912 " fill="none" id="curve_4" stroke="#000000" stroke-linecap="round" stroke-linejoin="round" stroke-width="3.059529251644876"/>
  <path d="M 71.08568343230277, 72.80409746630053 Q 68.50443440235364, 72.73516405316686, 64.8770947623159, 72.60889673307484 " fill="none" id="curve_7" stroke="#000000" stroke-linecap="round" stroke-linejoin="round" stroke-width="3.6589057229092066"/>
  <path d="M 54.86751365661621, 35.591325759887695 Q 56.82308485506356, 36.999351269835714, 60.082964974411425, 39.79408889108868 " fill="none" id="curve_21" stroke="#000000" stroke-linecap="round" stroke-linejoin="round" stroke-width="2.9518819322398975"/>
  <path d="M 44.48402549728719, 40.45577638396576 Q 45.99718492663638, 37.14967240491904, 53.89966936645827, 35.799606429281845 " fill="none" id="curve_23" stroke="#000000" stroke-linecap="round" stroke-linejoin="round" stroke-width="2.9920952129610687"/>
  <path d="M 89.44427215137671, 2.696565226611831 Q 89.70362098011908, 2.6078037608728724, 90.13148092111881, 2.420614478247429 " fill="none" id="curve_24" stroke="#000000" stroke-linecap="round" stroke-linejoin="round" stroke-width="1.9706072756767394"/>
  <path d="M 89.40275145616869, 135.93382351229815 Q 89.45478620344055, 136.7760785088861, 89.54897676177232, 138.00047886944563 " fill="none" id="curve_34" stroke="#000000" stroke-linecap="round" stroke-linejoin="round" stroke-width="2.54298664353687"/>
  <path d="M 50.57777464523431, 96.42043265747574 Q 51.92638929558189, 85.8208712890083, 55.951692377606705, 74.28238894771768 " fill="none" id="curve_36" stroke="#000000" stroke-linecap="round" stroke-linejoin="round" stroke-width="2.918751799145212"/>
  <path d="M 53.98575087811486, 49.04620087393971 Q 54.78813790461018, 42.88870435786232, 57.75001152856994, 39.10279634316402 " fill="none" id="curve_51" stroke="#000000" stroke-linecap="round" stroke-linejoin="round" stroke-width="2.9533111657137643"/>
  <path d="M 57.75001152856994, 39.10279634316402 Q 57.490925500818534, 35.64451670068799, 54.963868907094735, 34.54019083148189 " fill="none" id="curve_51" stroke="#000000" stroke-linecap="round" stroke-linejoin="round" stroke-width="2.1606412323134645"/>
  <path d="M 70.11405085983034, 72.39129119929552 Q 70.13126301029298, 72.33234023701202, 70.16218047141287, 72.21084080035415 " fill="none" id="curve_62" stroke="#000000" stroke-linecap="round" stroke-linejoin="round" stroke-width="3.0098824407847813"/>
  <path d="M 56.895075589842975, 71.18012958760289 Q 58.1331431400886, 72.3550218709233, 67.0812278746475, 72.67264164071823 " fill="none" id="curve_77" stroke="#000000" stroke-linecap="round" stroke-linejoin="round" stroke-width="1.6701337213174616"/>
  <path d="M 67.0812278746475, 72.67264164071823 Q 68.42984380293036, 71.75972920617008, 70.58526840939372, 71.11321431679043 " fill="none" id="curve_77" stroke="#000000" stroke-linecap="round" stroke-linejoin="round" stroke-width="2.682420893399863"/>
  <path d="M 52.393349049312974, 57.03036353731753 Q 53.07981895336084, 56.042199913398164, 53.88139856464424, 53.531394201231386 " fill="none" id="curve_78" stroke="#000000" stroke-linecap="round" stroke-linejoin="round" stroke-width="2.6975497080885003"/>
  <path d="M 49.197246373047285, 35.92909740316897 Q 44.83721407857978, 39.03764608568058, 40.231293271896014, 44.701512468242875 " fill="none" id="curve_79" stroke="#000000" stroke-linecap="round" stroke-linejoin="round" stroke-width="2.0092657881204614"/>
  <path d="M 44.98454743380579, 40.016616596981656 Q 45.40667019973423, 36.77164981900687, 49.60511602535938, 35.960358923952334 " fill="none" id="curve_83" stroke="#000000" stroke-linecap="round" stroke-linejoin="round" stroke-width="3.2183424446354816"/>
  <path d="M 30.166582195088978, 45.25012105967156 Q 29.933075138809073, 44.86040096369256, 29.63698102839613, 44.082316255674854 " fill="none" id="curve_84" stroke="#000000" stroke-linecap="round" stroke-linejoin="round" stroke-width="3.6624406376580514"/>
  <path d="M 51.76848962551492, 87.40575368562881 Q 52.01434828192003, 87.64058078030378, 52.39804254203818, 88.3584727599163 " fill="none" id="curve_90" stroke="#000000" stroke-linecap="round" stroke-linejoin="round" stroke-width="2.53636941664359"/>
  <path d="M 30.682193389873017, 44.780101475616654 Q 30.315734995710912, 44.72981692635213, 29.677559059029374, 44.623030482400715 " fill="none" id="curve_97" stroke="#000000" stroke-linecap="round" stroke-linejoin="round" stroke-width="3.38413652705901"/>
  <path d="M 51.28175234794617, 94.28018188476562 Q 50.39540007957465, 92.94798735609477, 50.094956692075186, 80.38654355640892 " fill="none" id="curve_111" stroke="#000000" stroke-linecap="round" stroke-linejoin="round" stroke-width="2.3223962507590916"/>
  <path d="M 32.40350985016683, 41.732655948017744 Q 29.728216284395153, 43.24554191069954, 27.3844896938595, 45.63115983223989 " fill="none" id="curve_114" stroke="#000000" stroke-linecap="round" stroke-linejoin="round" stroke-width="3.597491479731954"/>
  <path d="M 56.28075301941782, 43.755950706030816 Q 57.39250334293445, 41.85539775341949, 59.124227748535844, 40.14257345309182 " fill="none" id="curve_116" stroke="#000000" stroke-linecap="round" stroke-linejoin="round" stroke-width="3.2099116861120116"/>
  <path d="M 40.54779701673965, 79.69107547223717 Q 40.25097112497768, 80.17332219539841, 39.79305109280208, 80.64972339568716 " fill="none" id="curve_131" stroke="#000000" stroke-linecap="round" stroke-linejoin="round" stroke-width="2.291971115783761"/>
</svg>
