<?xml version="1.0" ?>
<svg height="140" width="140" xmlns="http://www.w3.org/2000/svg">
  <path d="M 49.03783416748047, 94.91340827941895 Q 44.32139449758933, 104.14239645970952, 30.106283639403046, 121.4586759826625 " fill="none" id="curve_1" stroke="#000000" stroke-linecap="round" stroke-linejoin="round" stroke-width="5.111428712393581"/>
  <path d="M 30.106283639403046, 121.4586759826625 Q 29.177844678327457, 121.67550793313099, 28.551040875768084, 122.49080498663126 " fill="none" id="curve_1" stroke="#000000" stroke-linecap="round" stroke-linejoin="round" stroke-width="4.091206634886771"/>
  <path d="M 36.055553496214195, 87.28964143633087 Q 37.6391670816343, 86.56743622045134, 53.607363778312845, 86.39065721778174 " fill="none" id="curve_2" stroke="#000000" stroke-linecap="round" stroke-linejoin="round" stroke-width="6.166946150734086"/>
  <path d="M 53.607363778312845, 86.39065721778174 Q 49.34337694019152, 93.14041279827079, 38.404520967746244, 111.39854542573957 " fill="none" id="curve_2" stroke="#000000" stroke-linecap="round" stroke-linejoin="round" stroke-width="4.549866501765321"/>
  <path d="M 56.752265005399096, 85.40173428290645 Q 57.4645215702368, 73.99326287126362, 60.35411231562552, 66.96873810005334 " fill="none" id="curve_3" stroke="#000000" stroke-linecap="round" stroke-linejoin="round" stroke-width="5.7893247252249"/>
  <path d="M 60.35411231562552, 66.96873810005334 Q 60.07840170892301, 51.240397347630605, 41.02248237937868, 50.204291547470405 " fill="none" id="curve_3" stroke="#000000" stroke-linecap="round" stroke-linejoin="round" stroke-width="7.314764807673385"/>
  <path d="M 41.02248237937868, 50.204291547470405 Q 25.858002355679762, 49.22493063406195, 18.205740859297684, 45.56323332696313 " fill="none" id="curve_3" stroke="#000000" stroke-linecap="round" stroke-linejoin="round" stroke-width="7.549013092129035"/>
  <path d="M 32.610599978973475, 82.43359366859109 Q 32.77271062099278, 84.9212783188015, 39.80843463859667, 85.07391967978785 " fill="none" id="curve_4" stroke="#000000" stroke-linecap="round" stroke-linejoin="round" stroke-width="5.799314023709641"/>
  <path d="M 60.01142402404946, 86.31374977906111 Q 56.04903784022971, 85.82391487986514, 53.34807221540706, 84.50830620423481 " fill="none" id="curve_5" stroke="#000000" stroke-linecap="round" stroke-linejoin="round" stroke-width="4.2623728925315065"/>
  <path d="M 53.34807221540706, 84.50830620423481 Q 51.68739736997255, 99.71623543501904, 40.218940737667005, 107.20873301312855 " fill="none" id="curve_5" stroke="#000000" stroke-linecap="round" stroke-linejoin="round" stroke-width="2.8260578029504364"/>
  <path d="M 53.34086627815686, 83.71097300253356 Q 55.77580601072994, 79.60434783527495, 58.954711727401225, 75.07177993942727 " fill="none" id="curve_6" stroke="#000000" stroke-linecap="round" stroke-linejoin="round" stroke-width="3.5736105685260964"/>
  <path d="M 58.954711727401225, 75.07177993942727 Q 58.519980225319, 60.939351114011444, 55.935466642776454, 54.360731970323876 " fill="none" id="curve_6" stroke="#000000" stroke-linecap="round" stroke-linejoin="round" stroke-width="2.540371807914348"/>
  <path d="M 32.615887542169865, 85.56564111860615 Q 32.82819535415347, 85.47317493436925, 33.031920407288546, 85.28266779157228 " fill="none" id="curve_7" stroke="#000000" stroke-linecap="round" stroke-linejoin="round" stroke-width="4.117232929344407"/>
  <path d="M 36.00059906683906, 48.34452820471728 Q 33.21911816693807, 45.82223140913474, 15.232649027975683, 44.55162767191863 " fill="none" id="curve_8" stroke="#000000" stroke-linecap="round" stroke-linejoin="round" stroke-width="2.666528911197468"/>
  <path d="M 52.92702090113398, 52.36099390362349 Q 51.25622837054254, 50.633733896329126, 43.94730215695111, 49.17474685315522 " fill="none" id="curve_12" stroke="#000000" stroke-linecap="round" stroke-linejoin="round" stroke-width="3.089823546967283"/>
  <path d="M 18.453066812218854, 44.8478812311491 Q 18.33415121276227, 44.61760645050931, 18.12571657272, 44.23298165977944 " fill="none" id="curve_13" stroke="#000000" stroke-linecap="round" stroke-linejoin="round" stroke-width="3.9424207446303057"/>
  <path d="M 37.61619989852059, 113.26697651680468 Q 33.365454987825366, 115.78473438643032, 29.82327168647859, 120.36203819059438 " fill="none" id="curve_15" stroke="#000000" stroke-linecap="round" stroke-linejoin="round" stroke-width="4.5393520838301695"/>
  <path d="M 44.197883631236635, 83.00246654146125 Q 44.25553938141314, 86.091888226217, 48.41561511676197, 86.27398879020127 " fill="none" id="curve_21" stroke="#000000" stroke-linecap="round" stroke-linejoin="round" stroke-width="3.5725581633836807"/>
  <path d="M 32.31169268318911, 119.65804650804498 Q 38.671994801716885, 112.67366606218978, 47.282103827028756, 99.2899454514747 " fill="none" id="curve_25" stroke="#000000" stroke-linecap="round" stroke-linejoin="round" stroke-width="2.540962014375208"/>
  <path d="M 38.03630954156507, 45.94145679438084 Q 37.11565218400309, 47.62910958284358, 33.17234974107392, 48.50412120193222 " fill="none" id="curve_27" stroke="#000000" stroke-linecap="round" stroke-linejoin="round" stroke-width="4.185425125370386"/>
  <path d="M 18.459727598867936, 43.61581069564971 Q 18.521962516505262, 44.14953806323119, 18.69354237811455, 45.071184593056294 " fill="none" id="curve_30" stroke="#000000" stroke-linecap="round" stroke-linejoin="round" stroke-width="3.481437318852779"/>
  <path d="M 18.426311492919922, 43.11155319213867 Q 21.881735390278724, 43.61712819227345, 24.90960805862011, 45.98797214785898 " fill="none" id="curve_44" stroke="#000000" stroke-linecap="round" stroke-linejoin="round" stroke-width="2.3166299094216822"/>
  <path d="M 50.03792381286621, 50.6793327331543 Q 53.63748689914554, 51.64282599559759, 58.060489232025816, 54.95155551573603 " fill="none" id="curve_58" stroke="#000000" stroke-linecap="round" stroke-linejoin="round" stroke-width="1.9416997194299375"/>
  <path d="M 1.3405206415446473, 1.524380299963605 Q 1.3907814812294859, 1.7150625323366968, 1.4611530446077219, 2.1233289298528297 " fill="none" id="curve_64" stroke="#000000" stroke-linecap="round" stroke-linejoin="round" stroke-width="1.9233072862932064"/>
  <path d="M 50.883064537094725, 55.80967092204927 Q 53.302588552820254, 56.22144090629158, 58.022444684255895, 56.80793344007212 " fill="none" id="curve_159" stroke="#000000" stroke-linecap="round" stroke-linejoin="round" stroke-width="2.6891601951176427"/>
</svg>
