<?xml version="1.0" ?>
<svg height="140" width="140" xmlns="http://www.w3.org/2000/svg">
  <path d="M 30.06822693347931, 46.390907287597656 Q 35.39171493120274, 45.80748592281493, 41.862133444213214, 44.57086741669482 " fill="none" id="curve_1" stroke="#000000" stroke-linecap="round" stroke-linejoin="round" stroke-width="8.160789736727857"/>
  <path d="M 41.862133444213214, 44.57086741669482 Q 41.37111715781387, 48.019325607493144, 40.86028486378102, 66.29890084349522 " fill="none" id="curve_1" stroke="#000000" stroke-linecap="round" stroke-linejoin="round" stroke-width="6.096366676078591"/>
  <path d="M 40.86028486378102, 66.29890084349522 Q 40.78402511674098, 80.36558500816314, 40.60367412425901, 89.732362528205 " fill="none" id="curve_1" stroke="#000000" stroke-linecap="round" stroke-linejoin="round" stroke-width="9.312394315154421"/>
  <path d="M 40.60367412425901, 89.732362528205 Q 39.36567237365364, 93.90617420150599, 38.45965267701934, 126.97906676321185 " fill="none" id="curve_1" stroke="#000000" stroke-linecap="round" stroke-linejoin="round" stroke-width="5.894046060089412"/>
  <path d="M 38.45965267701934, 126.97906676321185 Q 38.586419525115424, 129.05618758391046, 39.29232255748606, 129.6934715261964 " fill="none" id="curve_1" stroke="#000000" stroke-linecap="round" stroke-linejoin="round" stroke-width="5.998962550007666"/>
  <path d="M 49.99620369149535, 94.46998791864405 Q 49.76656888662663, 91.26786487203887, 31.00027422165211, 91.10305632454484 " fill="none" id="curve_2" stroke="#000000" stroke-linecap="round" stroke-linejoin="round" stroke-width="4.463752256927298"/>
  <path d="M 31.00027422165211, 91.10305632454484 Q 30.609886425335745, 92.9810925102686, 28.172226007516436, 93.42004428050498 " fill="none" id="curve_2" stroke="#000000" stroke-linecap="round" stroke-linejoin="round" stroke-width="4.7443325067753355"/>
  <path d="M 49.16077839124464, 89.60597422871467 Q 47.22833163153086, 89.54055495981308, 43.69846149114667, 89.48065446987826 " fill="none" id="curve_3" stroke="#000000" stroke-linecap="round" stroke-linejoin="round" stroke-width="4.5756412828459965"/>
  <path d="M 34.04183514584382, 48.253102205268 Q 25.098721493401648, 46.2708620149013, 16.598216929075072, 41.25737017282522 " fill="none" id="curve_4" stroke="#000000" stroke-linecap="round" stroke-linejoin="round" stroke-width="5.002921238161037"/>
  <path d="M 16.598216929075072, 41.25737017282522 Q 15.425638500471178, 41.543257335788624, 14.590480196869988, 42.21737099837955 " fill="none" id="curve_4" stroke="#000000" stroke-linecap="round" stroke-linejoin="round" stroke-width="4.344251707230855"/>
  <path d="M 43.91188740506122, 41.914280550696674 Q 41.155835193909574, 42.40357437901918, 38.09610033721519, 43.382563561307826 " fill="none" id="curve_5" stroke="#000000" stroke-linecap="round" stroke-linejoin="round" stroke-width="3.6773070035757875"/>
  <path d="M 89.04788966802441, 3.006510150961944 Q 89.12106867321204, 2.419492324663015, 89.2152787816917, 0.8727619777472224 " fill="none" id="curve_6" stroke="#000000" stroke-linecap="round" stroke-linejoin="round" stroke-width="2.3445031268666794"/>
  <path d="M 36.69024085998535, 123.96463394165039 Q 35.75540830312496, 123.7389588284885, 35.6856223147711, 114.44462265366252 " fill="none" id="curve_20" stroke="#000000" stroke-linecap="round" stroke-linejoin="round" stroke-width="3.049447917998044"/>
  <path d="M 35.6856223147711, 114.44462265366252 Q 35.486744960489624, 106.06194615362676, 35.05634879132552, 96.39889109083667 " fill="none" id="curve_20" stroke="#000000" stroke-linecap="round" stroke-linejoin="round" stroke-width="2.6467271396079224"/>
  <path d="M 40.20190148545965, 77.75590881500385 Q 42.208917553993984, 73.70413074143939, 43.46291208043288, 59.60059897066759 " fill="none" id="curve_21" stroke="#000000" stroke-linecap="round" stroke-linejoin="round" stroke-width="2.7976514895075657"/>
  <path d="M 20.569816619894294, 41.13039890883371 Q 20.187904054449607, 41.09192826826606, 19.624377279981303, 41.04563621369518 " fill="none" id="curve_22" stroke="#000000" stroke-linecap="round" stroke-linejoin="round" stroke-width="4.018740148313368"/>
  <path d="M 34.25386062003697, 46.1220583695059 Q 30.371691473271568, 45.43501886996292, 23.077858669432285, 44.690430141372566 " fill="none" id="curve_23" stroke="#000000" stroke-linecap="round" stroke-linejoin="round" stroke-width="3.1795975391267626"/>
  <path d="M 40.083122881592516, 69.76612446489963 Q 41.429501239721226, 72.88828442231934, 42.71348146609317, 82.22304362647591 " fill="none" id="curve_29" stroke="#000000" stroke-linecap="round" stroke-linejoin="round" stroke-width="3.042318367353465"/>
  <path d="M 39.54032371491115, 69.79208096873677 Q 40.42202480159677, 71.07867603414303, 41.671438791858165, 74.9230748692911 " fill="none" id="curve_30" stroke="#000000" stroke-linecap="round" stroke-linejoin="round" stroke-width="3.0787621385680963"/>
  <path d="M 38.209327381838236, 127.97060038759165 Q 37.6208547289743, 127.04855427946374, 36.892044452517396, 124.94914793566245 " fill="none" id="curve_33" stroke="#000000" stroke-linecap="round" stroke-linejoin="round" stroke-width="4.3934583919484576"/>
  <path d="M 52.289429707521975, 93.91977827582609 Q 51.17695257398248, 93.03917581540215, 44.34753391172034, 92.34644964996536 " fill="none" id="curve_35" stroke="#000000" stroke-linecap="round" stroke-linejoin="round" stroke-width="2.562283775407201"/>
  <path d="M 40.63048510491467, 78.87651404355158 Q 40.69997484466938, 72.07131672698733, 41.34781694103235, 70.62572857940125 " fill="none" id="curve_38" stroke="#000000" stroke-linecap="round" stroke-linejoin="round" stroke-width="5.619869791716802"/>
  <path d="M 41.34781694103235, 70.62572857940125 Q 40.969261311797844, 70.77523249308557, 40.55216981619812, 71.16178815038789 " fill="none" id="curve_38" stroke="#000000" stroke-linecap="round" stroke-linejoin="round" stroke-width="5.327526141174803"/>
  <path d="M 89.81488925553082, 7.142088087331178 Q 89.82192083530857, 6.107868684222317, 89.8350241218461, 4.764130890540143 " fill="none" id="curve_42" stroke="#000000" stroke-linecap="round" stroke-linejoin="round" stroke-width="1.7254907964688702"/>
  <path d="M 32.163025256157844, 95.08007668168044 Q 31.330338711074614, 94.32630637866696, 29.729830308443915, 93.47117985326923 " fill="none" id="curve_48" stroke="#000000" stroke-linecap="round" stroke-linejoin="round" stroke-width="3.642268113590917"/>
  <path d="M 38.14718637267863, 129.46921774315726 Q 38.30933607813213, 128.99304867960575, 38.60149456623438, 128.323016321262 " fill="none" id="curve_53" stroke="#000000" stroke-linecap="round" stroke-linejoin="round" stroke-width="4.132234275469473"/>
  <path d="M 38.42567050860608, 129.20479572478064 Q 39.53437824693091, 128.34724363650403, 40.56956478851093, 126.94677770935617 " fill="none" id="curve_71" stroke="#000000" stroke-linecap="round" stroke-linejoin="round" stroke-width="4.298392036534093"/>
  <path d="M 42.11601592261475, 41.5867624739271 Q 41.82066077085808, 41.68460438222532, 41.08024449843463, 41.85033377732823 " fill="none" id="curve_78" stroke="#000000" stroke-linecap="round" stroke-linejoin="round" stroke-width="2.7457201751390836"/>
  <path d="M 41.173587219415566, 75.00436702477361 Q 41.355533821224995, 74.62673484242329, 41.486662423538576, 72.63240012393425 " fill="none" id="curve_93" stroke="#000000" stroke-linecap="round" stroke-linejoin="round" stroke-width="3.70438141377438"/>
  <path d="M 38.812059518535094, 49.60613192849576 Q 38.20711310692816, 48.576034898682366, 36.870035123926975, 47.6934700661858 " fill="none" id="curve_94" stroke="#000000" stroke-linecap="round" stroke-linejoin="round" stroke-width="3.5257382795460295"/>
  <path d="M 23.52182288609356, 46.76857060510741 Q 21.622819322572873, 43.9130733062064, 16.645082554551657, 41.60474767170941 " fill="none" id="curve_109" stroke="#000000" stroke-linecap="round" stroke-linejoin="round" stroke-width="2.2134500858683217"/>
  <path d="M 39.75578504434556, 69.69566869204392 Q 39.662833125107795, 71.52604972575999, 39.59634622638714, 76.2073457765544 " fill="none" id="curve_111" stroke="#000000" stroke-linecap="round" stroke-linejoin="round" stroke-width="3.80203793810095"/>
  <path d="M 42.79953989004252, 74.1789017011306 Q 41.17641721314521, 72.54425774907818, 37.945292254010305, 69.27905071380438 " fill="none" id="curve_126" stroke="#000000" stroke-linecap="round" stroke-linejoin="round" stroke-width="2.181070353987998"/>
  <path d="M 41.507240271901054, 108.87121194678068 Q 41.31351495400401, 118.33626539139357, 36.45903987509095, 119.47275981909486 " fill="none" id="curve_128" stroke="#000000" stroke-linecap="round" stroke-linejoin="round" stroke-width="2.8362321113902973"/>
  <path d="M 36.02782295898123, 44.67211800433006 Q 38.11979822136279, 43.35742050519964, 40.95358719842875, 41.960378809034374 " fill="none" id="curve_143" stroke="#000000" stroke-linecap="round" stroke-linejoin="round" stroke-width="3.000428353930279"/>
  <path d="M 36.688956185450785, 127.64417376426914 Q 36.79463316897461, 126.53295818334689, 37.1890957022067, 125.6644420535679 " fill="none" id="curve_154" stroke="#000000" stroke-linecap="round" stroke-linejoin="round" stroke-width="3.4501478875364695"/>
  <path d="M 40.310785810549135, 78.57737768558779 Q 39.024419099337955, 76.27869883218749, 37.350409949894036, 72.19744787178418 " fill="none" id="curve_169" stroke="#000000" stroke-linecap="round" stroke-linejoin="round" stroke-width="2.59615178236929"/>
  <path d="M 35.44332451520867, 121.81623004595801 Q 36.16916575695232, 123.35663103870043, 36.96272993038101, 126.40002423170093 " fill="none" id="curve_199" stroke="#000000" stroke-linecap="round" stroke-linejoin="round" stroke-width="3.5930222166214842"/>
</svg>
