<?xml version="1.0" ?>
<svg height="140" width="140" xmlns="http://www.w3.org/2000/svg">
  <path d="M 54.380680084228516, 38.2384033203125 Q 51.54565693034489, 37.78863493700688, 45.44493000418106, 36.92414708498053 " fill="none" id="curve_1" stroke="#000000" stroke-linecap="round" stroke-linejoin="round" stroke-width="5.211498246915342"/>
  <path d="M 45.44493000418106, 36.92414708498053 Q 37.52434544541087, 41.150388802344345, 19.56622124111086, 62.06194453380874 " fill="none" id="curve_1" stroke="#000000" stroke-linecap="round" stroke-linejoin="round" stroke-width="4.261861824330728"/>
  <path d="M 19.56622124111086, 62.06194453380874 Q 17.03654983608166, 64.22191293710932, 16.229990624807304, 72.26657250325451 " fill="none" id="curve_1" stroke="#000000" stroke-linecap="round" stroke-linejoin="round" stroke-width="3.9423299618153362"/>
  <path d="M 28.488363655790433, 90.08275689028909 Q 36.35662761087555, 87.02957981690473, 47.04263627995037, 84.01177083895749 " fill="none" id="curve_2" stroke="#000000" stroke-linecap="round" stroke-linejoin="round" stroke-width="5.332680863220862"/>
  <path d="M 47.04263627995037, 84.01177083895749 Q 43.2473792133123, 96.18490869416914, 36.52608071160167, 113.24080781705081 " fill="none" id="curve_2" stroke="#000000" stroke-linecap="round" stroke-linejoin="round" stroke-width="4.8022507831485255"/>
  <path d="M 48.97804403607758, 84.02321836978288 Q 51.090902233894404, 69.8777663609197, 60.51366764899037, 60.8383030022376 " fill="none" id="curve_3" stroke="#000000" stroke-linecap="round" stroke-linejoin="round" stroke-width="3.5916936409021796"/>
  <path d="M 60.51366764899037, 60.8383030022376 Q 56.729575015982455, 52.81492789319832, 52.06686961523879, 37.74772473155436 " fill="none" id="curve_3" stroke="#000000" stroke-linecap="round" stroke-linejoin="round" stroke-width="5.22547391025465"/>
  <path d="M 63.721897432446625, 83.56259413731519 Q 58.182729736697645, 84.2791405130318, 46.50444459831465, 84.79548154396551 " fill="none" id="curve_5" stroke="#000000" stroke-linecap="round" stroke-linejoin="round" stroke-width="5.468290777782514"/>
  <path d="M 38.18744218973585, 114.19276131551054 Q 38.15293259919399, 111.5091729036241, 38.125552570060094, 103.17142366615941 " fill="none" id="curve_6" stroke="#000000" stroke-linecap="round" stroke-linejoin="round" stroke-width="3.1159344946060936"/>
  <path d="M 58.1005498354143, 62.10659220363982 Q 58.04654049581242, 55.523144005741926, 57.5883013014651, 54.156796001974925 " fill="none" id="curve_7" stroke="#000000" stroke-linecap="round" stroke-linejoin="round" stroke-width="4.780710982806768"/>
  <path d="M 57.5883013014651, 54.156796001974925 Q 59.59612391803529, 55.276473302514304, 60.963412001367324, 57.82740814813923 " fill="none" id="curve_7" stroke="#000000" stroke-linecap="round" stroke-linejoin="round" stroke-width="4.416574597059355"/>
  <path d="M 22.033649828438513, 59.738221451466444 Q 25.96875526227145, 51.894200813679, 36.73548857862602, 43.94644259874303 " fill="none" id="curve_14" stroke="#000000" stroke-linecap="round" stroke-linejoin="round" stroke-width="2.382160827909074"/>
  <path d="M 51.86561999405644, 35.33572261186574 Q 49.15218356350436, 36.36744934582207, 45.165733096797084, 38.225177063265896 " fill="none" id="curve_15" stroke="#000000" stroke-linecap="round" stroke-linejoin="round" stroke-width="3.124371067916945"/>
  <path d="M 48.48087587379802, 79.3177886377432 Q 47.25468856569587, 84.57156554445953, 40.29599060139738, 87.69612644964258 " fill="none" id="curve_16" stroke="#000000" stroke-linecap="round" stroke-linejoin="round" stroke-width="3.551828230855274"/>
  <path d="M 35.39442058030591, 87.419574594943 Q 37.12385967460057, 84.98627981369091, 47.28074443300271, 83.4365557192 " fill="none" id="curve_25" stroke="#000000" stroke-linecap="round" stroke-linejoin="round" stroke-width="2.869243998930723"/>
  <path d="M 55.70457531304935, 54.85298537991047 Q 55.5556892262639, 48.843358329037244, 54.39034920506427, 45.134562230930825 " fill="none" id="curve_27" stroke="#000000" stroke-linecap="round" stroke-linejoin="round" stroke-width="2.0696580797486"/>
  <path d="M 54.39034920506427, 45.134562230930825 Q 54.1379319266826, 38.28713754728812, 47.67494928557425, 37.14166152399317 " fill="none" id="curve_27" stroke="#000000" stroke-linecap="round" stroke-linejoin="round" stroke-width="3.1471879750025433"/>
  <path d="M 28.84084879934982, 92.18763955065207 Q 29.026171820543873, 92.04194733784624, 29.211056344413013, 91.78604393219491 " fill="none" id="curve_33" stroke="#000000" stroke-linecap="round" stroke-linejoin="round" stroke-width="3.7462472058512204"/>
  <path d="M 29.211056344413013, 91.78604393219491 Q 31.112459174608354, 87.46722566323096, 37.7211024190741, 84.21468727100638 " fill="none" id="curve_33" stroke="#000000" stroke-linecap="round" stroke-linejoin="round" stroke-width="2.6827632790581664"/>
  <path d="M 65.6707882725673, 83.38123033125126 Q 66.63558360729986, 83.39782393109043, 67.21739405754106, 83.45163380352703 " fill="none" id="curve_34" stroke="#000000" stroke-linecap="round" stroke-linejoin="round" stroke-width="2.790982454338599"/>
  <path d="M 38.90494086537627, 101.8172399779878 Q 41.45017987730873, 96.42021800293459, 46.6004656748003, 91.10268465358703 " fill="none" id="curve_36" stroke="#000000" stroke-linecap="round" stroke-linejoin="round" stroke-width="2.669909474842327"/>
  <path d="M 20.404966617641165, 65.369372677498 Q 20.191702937576096, 62.64349688869763, 18.770036762252726, 61.76790047376803 " fill="none" id="curve_38" stroke="#000000" stroke-linecap="round" stroke-linejoin="round" stroke-width="5.089725007292949"/>
  <path d="M 42.18402461729444, 40.154247260510886 Q 43.86069458271221, 39.01235074094797, 52.19534895742233, 38.51475019444924 " fill="none" id="curve_39" stroke="#000000" stroke-linecap="round" stroke-linejoin="round" stroke-width="3.0604574399688964"/>
  <path d="M 52.965572420030895, 71.10276747308404 Q 48.370152154005154, 76.00908045597441, 45.08859901852185, 85.75647133383569 " fill="none" id="curve_46" stroke="#000000" stroke-linecap="round" stroke-linejoin="round" stroke-width="3.087332624686895"/>
  <path d="M 53.61200158234341, 38.64186534575722 Q 54.2983981679338, 40.087415031086174, 55.11525371081214, 42.798704971319914 " fill="none" id="curve_57" stroke="#000000" stroke-linecap="round" stroke-linejoin="round" stroke-width="3.2418813999369984"/>
  <path d="M 20.98053618954254, 60.6313615760852 Q 24.90007239109918, 53.828303957420104, 33.991803405042525, 45.95118241293222 " fill="none" id="curve_59" stroke="#000000" stroke-linecap="round" stroke-linejoin="round" stroke-width="2.3032664813538575"/>
  <path d="M 51.36067273591438, 82.89804549277177 Q 53.854528928642594, 82.74117453566231, 56.6392616077133, 82.47272533900632 " fill="none" id="curve_60" stroke="#000000" stroke-linecap="round" stroke-linejoin="round" stroke-width="2.877974448067539"/>
  <path d="M 54.069228726650174, 52.38430848798302 Q 54.39199181806494, 51.567340230929204, 55.31832446422776, 50.95404181522211 " fill="none" id="curve_71" stroke="#000000" stroke-linecap="round" stroke-linejoin="round" stroke-width="3.7817205725554084"/>
  <path d="M 48.56334094181612, 34.286755368072875 Q 47.97108503269324, 35.35008980975919, 46.42898916841615, 36.689637406657994 " fill="none" id="curve_72" stroke="#000000" stroke-linecap="round" stroke-linejoin="round" stroke-width="2.2721489608408985"/>
  <path d="M 34.297688883801264, 88.67181003885257 Q 39.10217902188893, 87.10157384849606, 53.23405128215748, 86.02834254028892 " fill="none" id="curve_77" stroke="#000000" stroke-linecap="round" stroke-linejoin="round" stroke-width="2.9551878776249576"/>
  <path d="M 41.2329531016065, 95.75553554633362 Q 41.238620693589624, 95.7784961429917, 41.24234880950633, 95.8461924112715 " fill="none" id="curve_78" stroke="#000000" stroke-linecap="round" stroke-linejoin="round" stroke-width="4.917151722020403"/>
  <path d="M 58.88875815383124, 54.00272279179947 Q 56.16569726338638, 48.137100191814405, 49.2357285381467, 38.93612377569021 " fill="none" id="curve_107" stroke="#000000" stroke-linecap="round" stroke-linejoin="round" stroke-width="1.9276029123027782"/>
  <path d="M 51.95879450540491, 71.87973817342322 Q 53.43775961402532, 66.70793665505627, 58.52265715924486, 60.130720100397184 " fill="none" id="curve_187" stroke="#000000" stroke-linecap="round" stroke-linejoin="round" stroke-width="1.7113177101958568"/>
  <path d="M 19.808703075961834, 58.7341793643199 Q 18.929603415979052, 60.19325963596443, 17.791983795318675, 62.75938842523053 " fill="none" id="curve_203" stroke="#000000" stroke-linecap="round" stroke-linejoin="round" stroke-width="2.59170310339112"/>
</svg>
