<?xml version="1.0" ?>
<svg height="140" width="140" xmlns="http://www.w3.org/2000/svg">
  <path d="M 29.815095781279098, 114.72278740835058 Q 31.186633570806336, 104.63191551660694, 38.43250437491656, 88.66986674254454 " fill="none" id="curve_2" stroke="#000000" stroke-linecap="round" stroke-linejoin="round" stroke-width="4.0574527182783715"/>
  <path d="M 38.43250437491656, 88.66986674254454 Q 40.90567128450571, 82.16860647111581, 45.37350523486722, 73.84799628944059 " fill="none" id="curve_2" stroke="#000000" stroke-linecap="round" stroke-linejoin="round" stroke-width="3.467889628810504"/>
  <path d="M 45.37350523486722, 73.84799628944059 Q 49.107923643495724, 65.20379860992996, 55.666906547121584, 53.6619244340102 " fill="none" id="curve_2" stroke="#000000" stroke-linecap="round" stroke-linejoin="round" stroke-width="3.9809575936228825"/>
  <path d="M 55.666906547121584, 53.6619244340102 Q 45.940455681941565, 54.47124591717204, 31.514721190528846, 55.46838353770775 " fill="none" id="curve_2" stroke="#000000" stroke-linecap="round" stroke-linejoin="round" stroke-width="3.9409514966067376"/>
  <path d="M 31.514721190528846, 55.46838353770775 Q 22.22828165746225, 54.647983719540974, 18.467456113065623, 51.046155696439634 " fill="none" id="curve_2" stroke="#000000" stroke-linecap="round" stroke-linejoin="round" stroke-width="4.007166142883785"/>
  <path d="M 20.934997862204007, 78.38778591347277 Q 24.375701813090412, 80.22909582768614, 45.46362821079673, 80.77794765559365 " fill="none" id="curve_3" stroke="#000000" stroke-linecap="round" stroke-linejoin="round" stroke-width="4.902066398237168"/>
  <path d="M 45.46362821079673, 80.77794765559365 Q 57.86522677239878, 80.61672712570832, 62.04019411963219, 79.94267533685289 " fill="none" id="curve_3" stroke="#000000" stroke-linecap="round" stroke-linejoin="round" stroke-width="3.3909755590086004"/>
  <path d="M 50.08862459730485, 61.34729285546026 Q 47.043113999547984, 65.60969223468692, 45.03173175683148, 74.21687458638584 " fill="none" id="curve_4" stroke="#000000" stroke-linecap="round" stroke-linejoin="round" stroke-width="2.8304974101919727"/>
  <path d="M 45.03173175683148, 74.21687458638584 Q 42.637066726700446, 83.23651129491655, 35.64504500843787, 90.42716532625816 " fill="none" id="curve_4" stroke="#000000" stroke-linecap="round" stroke-linejoin="round" stroke-width="3.0440841850099174"/>
  <path d="M 20.6554047927453, 77.9539367738317 Q 22.136302490397778, 78.0159787442715, 23.623361045994482, 78.13847632213324 " fill="none" id="curve_5" stroke="#000000" stroke-linecap="round" stroke-linejoin="round" stroke-width="2.2700715033990786"/>
  <path d="M 18.475627865756557, 51.18718913385527 Q 17.912329702690922, 50.927235958052876, 16.928571027128683, 50.63929577532596 " fill="none" id="curve_9" stroke="#000000" stroke-linecap="round" stroke-linejoin="round" stroke-width="2.771893474612853"/>
  <path d="M 52.267713814130104, 63.224122177641306 Q 53.25246019013174, 57.43817653064525, 55.38652220147683, 51.62785255833748 " fill="none" id="curve_25" stroke="#000000" stroke-linecap="round" stroke-linejoin="round" stroke-width="2.631546248243593"/>
</svg>
