<?xml version="1.0" ?>
<svg height="140" width="140" xmlns="http://www.w3.org/2000/svg">
  <path d="M 40.09598970413208, 105.90772700309753 Q 41.75782379636971, 98.72629141217831, 45.96432345438103, 89.02482331102647 " fill="none" id="curve_1" stroke="#000000" stroke-linecap="round" stroke-linejoin="round" stroke-width="8.096099773698542"/>
  <path d="M 45.96432345438103, 89.02482331102647 Q 48.35573422606252, 82.65553790767774, 51.178634988392574, 73.0639726186723 " fill="none" id="curve_1" stroke="#000000" stroke-linecap="round" stroke-linejoin="round" stroke-width="7.454814861598454"/>
  <path d="M 51.178634988392574, 73.0639726186723 Q 54.40440593083005, 66.17143768332821, 57.57605895530781, 50.59114820186721 " fill="none" id="curve_1" stroke="#000000" stroke-linecap="round" stroke-linejoin="round" stroke-width="7.382354241915923"/>
  <path d="M 57.57605895530781, 50.59114820186721 Q 58.614586655244366, 49.89375864412222, 58.70129003648218, 30.873902925011944 " fill="none" id="curve_1" stroke="#000000" stroke-linecap="round" stroke-linejoin="round" stroke-width="7.292391002977863"/>
  <path d="M 58.70129003648218, 30.873902925011944 Q 54.23423834045994, 29.471509038070945, 33.88714938221112, 28.955504613140324 " fill="none" id="curve_1" stroke="#000000" stroke-linecap="round" stroke-linejoin="round" stroke-width="9.253466138542889"/>
  <path d="M 33.88714938221112, 28.955504613140324 Q 28.849966537118096, 27.498644788597176, 26.974420767554236, 21.511700174434168 " fill="none" id="curve_1" stroke="#000000" stroke-linecap="round" stroke-linejoin="round" stroke-width="8.390602495858442"/>
  <path d="M 66.02023815361196, 71.26253765076035 Q 74.19919379649735, 70.4742288726762, 83.94917867452257, 69.1736682236925 " fill="none" id="curve_2" stroke="#000000" stroke-linecap="round" stroke-linejoin="round" stroke-width="5.416745626954152"/>
  <path d="M 83.94917867452257, 69.1736682236925 Q 65.06718889871587, 69.84956163305598, 57.48692824846144, 73.23239062414348 " fill="none" id="curve_2" stroke="#000000" stroke-linecap="round" stroke-linejoin="round" stroke-width="5.889294199974587"/>
  <path d="M 57.48692824846144, 73.23239062414348 Q 45.34255838015088, 75.47181935698914, 22.695644571859702, 80.37834952403676 " fill="none" id="curve_2" stroke="#000000" stroke-linecap="round" stroke-linejoin="round" stroke-width="8.461225489161167"/>
  <path d="M 22.695644571859702, 80.37834952403676 Q 18.19965839230903, 79.89996348649267, 7.83665037660119, 79.60844360474277 " fill="none" id="curve_2" stroke="#000000" stroke-linecap="round" stroke-linejoin="round" stroke-width="10.466729581311586"/>
  <path d="M 7.83665037660119, 79.60844360474277 Q 6.805417725467372, 78.56877762153145, 5.65738718996653, 77.43531278960555 " fill="none" id="curve_2" stroke="#000000" stroke-linecap="round" stroke-linejoin="round" stroke-width="6.833894154672579"/>
  <path d="M 47.17341166029581, 28.70008520476668 Q 50.07462022351581, 27.204877618809533, 57.921658149545586, 26.299305499485644 " fill="none" id="curve_3" stroke="#000000" stroke-linecap="round" stroke-linejoin="round" stroke-width="5.269814745550938"/>
  <path d="M 41.33078082538428, 33.32037468175865 Q 47.27975269331883, 30.355746358481657, 53.27017851014065, 25.817250569624704 " fill="none" id="curve_4" stroke="#000000" stroke-linecap="round" stroke-linejoin="round" stroke-width="6.047530090146168"/>
  <path d="M 44.301034841247095, 96.39128658155278 Q 42.57591702974274, 99.6795987119287, 40.61350980651336, 105.68580703194854 " fill="none" id="curve_7" stroke="#000000" stroke-linecap="round" stroke-linejoin="round" stroke-width="4.509261257006594"/>
  <path d="M 40.61350980651336, 105.68580703194854 Q 41.508325893288735, 99.69767083614829, 45.5079463095828, 96.75699318571341 " fill="none" id="curve_7" stroke="#000000" stroke-linecap="round" stroke-linejoin="round" stroke-width="3.3933760497601515"/>
  <path d="M 51.511815852908455, 69.96175226878344 Q 47.9535510757863, 73.04763318846072, 36.72779674664554, 76.36240003456838 " fill="none" id="curve_8" stroke="#000000" stroke-linecap="round" stroke-linejoin="round" stroke-width="3.386716605370148"/>
  <path d="M 36.72779674664554, 76.36240003456838 Q 28.065989908107596, 78.06395678345628, 11.984298186144947, 80.24786232611908 " fill="none" id="curve_8" stroke="#000000" stroke-linecap="round" stroke-linejoin="round" stroke-width="3.460944633399548"/>
  <path d="M 11.984298186144947, 80.24786232611908 Q 20.63407408765108, 79.0269740418093, 38.64894588050646, 77.59813121328054 " fill="none" id="curve_8" stroke="#000000" stroke-linecap="round" stroke-linejoin="round" stroke-width="3.6633478591762927"/>
  <path d="M 46.58052213213384, 27.90157277275003 Q 46.76063212960191, 26.268610483073953, 49.22305679376765, 25.959429324776618 " fill="none" id="curve_9" stroke="#000000" stroke-linecap="round" stroke-linejoin="round" stroke-width="4.330490001201967"/>
  <path d="M 25.88431073753418, 77.78627084179226 Q 23.432547255023476, 77.82968560470631, 16.861329131830832, 77.87975015052041 " fill="none" id="curve_18" stroke="#000000" stroke-linecap="round" stroke-linejoin="round" stroke-width="3.347890567864204"/>
  <path d="M 50.59782563659155, 68.6323844821236 Q 50.794683122720166, 63.31640176229986, 53.5123543007515, 62.205187082858195 " fill="none" id="curve_33" stroke="#000000" stroke-linecap="round" stroke-linejoin="round" stroke-width="2.861152290275528"/>
  <path d="M 41.15350768827213, 102.35938434788741 Q 40.957817194531984, 101.59309442908696, 40.71716812779382, 100.07991038665688 " fill="none" id="curve_39" stroke="#000000" stroke-linecap="round" stroke-linejoin="round" stroke-width="4.889764926313618"/>
  <path d="M 45.34437146570106, 33.03484227217172 Q 45.63471931279468, 30.230452114953234, 46.734390293515794, 27.890507506519175 " fill="none" id="curve_45" stroke="#000000" stroke-linecap="round" stroke-linejoin="round" stroke-width="4.964330658088503"/>
  <path d="M 45.15535654448854, 28.015409008174288 Q 45.106968374727536, 25.87802135688752, 44.60678480011141, 25.305802950120764 " fill="none" id="curve_60" stroke="#000000" stroke-linecap="round" stroke-linejoin="round" stroke-width="2.7018116056657697"/>
  <path d="M 45.44453564796611, 32.62449945235555 Q 47.30626610063942, 32.44674090634799, 52.60538649492128, 32.23471364259808 " fill="none" id="curve_61" stroke="#000000" stroke-linecap="round" stroke-linejoin="round" stroke-width="2.657119846751942"/>
  <path d="M 68.23976857376329, 69.2906929792789 Q 66.38019137793047, 71.08079034256465, 58.83266044973578, 72.04518207003116 " fill="none" id="curve_76" stroke="#000000" stroke-linecap="round" stroke-linejoin="round" stroke-width="4.143566354652823"/>
  <path d="M 54.01632854264369, 69.22244334007928 Q 59.60986026371624, 70.84013198201882, 65.17781609499501, 73.2494718643737 " fill="none" id="curve_91" stroke="#000000" stroke-linecap="round" stroke-linejoin="round" stroke-width="2.6815850893035464"/>
  <path d="M 27.087681828292144, 81.71441566500509 Q 29.91578289726669, 77.1787839996106, 42.881151815107316, 74.37374138008154 " fill="none" id="curve_97" stroke="#000000" stroke-linecap="round" stroke-linejoin="round" stroke-width="2.847065018720478"/>
  <path d="M 59.18215586598084, 42.58378972442996 Q 60.86342521230749, 42.30184458186904, 61.006426413878046, 34.85044883218384 " fill="none" id="curve_101" stroke="#000000" stroke-linecap="round" stroke-linejoin="round" stroke-width="2.631909903242608"/>
  <path d="M 19.700872756312236, 76.81117477951727 Q 32.95328081442207, 77.15146687155922, 40.40865373435017, 78.61884769335174 " fill="none" id="curve_142" stroke="#000000" stroke-linecap="round" stroke-linejoin="round" stroke-width="2.796379780713686"/>
  <path d="M 15.733019361348232, 82.74438259644873 Q 11.02867477628125, 82.09743210188368, 6.1669919635678845, 81.04415984989208 " fill="none" id="curve_150" stroke="#000000" stroke-linecap="round" stroke-linejoin="round" stroke-width="4.568952038502511"/>
  <path d="M 33.81510023798717, 26.0841107844808 Q 32.22503434809721, 24.199477640742703, 30.073426171871848, 21.43395016550062 " fill="none" id="curve_178" stroke="#000000" stroke-linecap="round" stroke-linejoin="round" stroke-width="2.5501412732004343"/>
  <path d="M 32.267828456858496, 81.07989941471497 Q 34.6287536585462, 79.37669887547027, 38.53349998152978, 76.50988172185079 " fill="none" id="curve_189" stroke="#000000" stroke-linecap="round" stroke-linejoin="round" stroke-width="2.284612658114595"/>
  <path d="M 4.34584679760394, 80.38714437911497 Q 4.210723650352873, 80.09705082006924, 4.079491241360675, 79.2534138525915 " fill="none" id="curve_190" stroke="#000000" stroke-linecap="round" stroke-linejoin="round" stroke-width="3.0624616633704633"/>
</svg>
