<?xml version="1.0" ?>
<svg height="140" width="140" xmlns="http://www.w3.org/2000/svg">
  <path d="M 42.211761474609375, 63.454734802246094 Q 26.73905681381065, 63.68532276851643, 24.883671634475377, 71.49222916414851 " fill="none" id="curve_1" stroke="#000000" stroke-linecap="round" stroke-linejoin="round" stroke-width="3.566847666730762"/>
  <path d="M 40.64366720403224, 64.63713561790335 Q 47.3244952147559, 65.23235994358554, 48.035941693226576, 72.87265714940506 " fill="none" id="curve_2" stroke="#000000" stroke-linecap="round" stroke-linejoin="round" stroke-width="6.718784058689501"/>
  <path d="M 48.035941693226576, 72.87265714940506 Q 47.27501231213227, 82.57246764549069, 40.96762459567766, 84.05516036646017 " fill="none" id="curve_2" stroke="#000000" stroke-linecap="round" stroke-linejoin="round" stroke-width="6.856375480262357"/>
  <path d="M 40.96762459567766, 84.05516036646017 Q 42.62281146453912, 91.74128940038142, 45.27321086701696, 97.1389691041041 " fill="none" id="curve_2" stroke="#000000" stroke-linecap="round" stroke-linejoin="round" stroke-width="4.785245043543366"/>
  <path d="M 45.27321086701696, 97.1389691041041 Q 52.246024988968074, 96.99671326703844, 53.15043269294205, 94.60169551507849 " fill="none" id="curve_2" stroke="#000000" stroke-linecap="round" stroke-linejoin="round" stroke-width="3.3895360944687583"/>
  <path d="M 65.90789295527625, 84.23842591167025 Q 50.98227720332849, 84.2797644407731, 44.77330063458059, 84.46687557850673 " fill="none" id="curve_3" stroke="#000000" stroke-linecap="round" stroke-linejoin="round" stroke-width="6.104188612593276"/>
  <path d="M 36.68152486503388, 63.446220128301086 Q 32.967210638509705, 63.81070267509406, 29.982338456443276, 64.60814639717792 " fill="none" id="curve_5" stroke="#000000" stroke-linecap="round" stroke-linejoin="round" stroke-width="3.276494573963041"/>
  <path d="M 45.013341409747085, 84.81057670958418 Q 44.38771929613696, 91.09659059950593, 43.13200896632313, 96.45650256743691 " fill="none" id="curve_20" stroke="#000000" stroke-linecap="round" stroke-linejoin="round" stroke-width="3.199515965682283"/>
  <path d="M 56.85765294409521, 82.585196623277 Q 41.42399987009738, 82.8250365097928, 37.89286709217049, 85.83413046558726 " fill="none" id="curve_21" stroke="#000000" stroke-linecap="round" stroke-linejoin="round" stroke-width="2.139529051684517"/>
  <path d="M 40.58075196046873, 62.49189417842177 Q 38.10567053450679, 63.43575255244258, 33.6144548165681, 64.69435748252734 " fill="none" id="curve_23" stroke="#000000" stroke-linecap="round" stroke-linejoin="round" stroke-width="3.3224248694034033"/>
  <path d="M 44.78994294361931, 77.38336452742922 Q 44.95542484437593, 73.71464466659276, 45.21153788639208, 68.6208215981858 " fill="none" id="curve_39" stroke="#000000" stroke-linecap="round" stroke-linejoin="round" stroke-width="2.8733977734825467"/>
  <path d="M 40.9160385006392, 93.68383421569474 Q 41.700397258168785, 95.35866546171263, 45.00383610641625, 95.99603038590337 " fill="none" id="curve_40" stroke="#000000" stroke-linecap="round" stroke-linejoin="round" stroke-width="3.7577313282926763"/>
  <path d="M 33.93684304652255, 65.12461597157608 Q 36.95772877957745, 65.06871804043158, 41.5128915729422, 64.98413369031414 " fill="none" id="curve_59" stroke="#000000" stroke-linecap="round" stroke-linejoin="round" stroke-width="2.6621155972727233"/>
  <path d="M 48.52959704838145, 95.73675626285552 Q 43.85547849355198, 94.06814632408216, 38.81690749046023, 88.91797371784313 " fill="none" id="curve_87" stroke="#000000" stroke-linecap="round" stroke-linejoin="round" stroke-width="1.8846598989686665"/>
</svg>
