<?xml version="1.0" ?>
<svg height="140" width="140" xmlns="http://www.w3.org/2000/svg">
  <path d="M 22.39188575744629, 15.51883316040039 Q 20.39585085811946, 17.534586327313534, 16.981830609152894, 19.428286067692795 " fill="none" id="curve_1" stroke="#000000" stroke-linecap="round" stroke-linejoin="round" stroke-width="4.591412060412552"/>
  <path d="M 16.981830609152894, 19.428286067692795 Q 23.676616711548537, 18.377617393337598, 29.341493750034928, 16.677862960392314 " fill="none" id="curve_1" stroke="#000000" stroke-linecap="round" stroke-linejoin="round" stroke-width="5.4230683596736835"/>
  <path d="M 29.341493750034928, 16.677862960392314 Q 48.26739872757104, 16.876304834065994, 49.48270601371698, 23.608341319456564 " fill="none" id="curve_1" stroke="#000000" stroke-linecap="round" stroke-linejoin="round" stroke-width="4.860421161473941"/>
  <path d="M 49.48270601371698, 23.608341319456564 Q 48.46343596191635, 37.914116942230365, 40.36824821497878, 51.775714407339464 " fill="none" id="curve_1" stroke="#000000" stroke-linecap="round" stroke-linejoin="round" stroke-width="5.352259862078207"/>
  <path d="M 40.36824821497878, 51.775714407339464 Q 39.3688247719057, 53.437405269009076, 33.51510487413331, 53.92947734335393 " fill="none" id="curve_1" stroke="#000000" stroke-linecap="round" stroke-linejoin="round" stroke-width="6.014403427647221"/>
  <path d="M 33.51510487413331, 53.92947734335393 Q 35.77685113589516, 54.36344756104467, 35.86843791375461, 85.22468547706055 " fill="none" id="curve_1" stroke="#000000" stroke-linecap="round" stroke-linejoin="round" stroke-width="4.013540351242639"/>
  <path d="M 35.86843791375461, 85.22468547706055 Q 37.92686246910031, 85.31370972718145, 38.95450965746207, 85.8964856548708 " fill="none" id="curve_1" stroke="#000000" stroke-linecap="round" stroke-linejoin="round" stroke-width="3.764179525474801"/>
  <path d="M 48.54352497573824, 56.726325115960286 Q 48.89894049343231, 55.38840872736006, 62.93147669379074, 55.29282771428357 " fill="none" id="curve_2" stroke="#000000" stroke-linecap="round" stroke-linejoin="round" stroke-width="4.638178904884915"/>
  <path d="M 62.93147669379074, 55.29282771428357 Q 54.545784296959134, 54.73743539146685, 44.44907080489917, 53.996213619244685 " fill="none" id="curve_2" stroke="#000000" stroke-linecap="round" stroke-linejoin="round" stroke-width="5.169932751964318"/>
  <path d="M 44.44907080489917, 53.996213619244685 Q 37.993955843593696, 55.362606811111355, 37.00529830722367, 69.15783047809236 " fill="none" id="curve_2" stroke="#000000" stroke-linecap="round" stroke-linejoin="round" stroke-width="2.7825249498798934"/>
  <path d="M 31.6584559079893, 53.42439888800883 Q 31.287641423835524, 54.205168391185516, 30.91746143866813, 55.31124391901533 " fill="none" id="curve_4" stroke="#000000" stroke-linecap="round" stroke-linejoin="round" stroke-width="5.2525715487300175"/>
  <path d="M 34.268319149862265, 80.363555588785 Q 34.105874575829276, 74.59832753127087, 33.60162988651946, 70.85380083214412 " fill="none" id="curve_5" stroke="#000000" stroke-linecap="round" stroke-linejoin="round" stroke-width="2.529056170876497"/>
  <path d="M 40.01000388516567, 86.06616883442766 Q 40.53858335605152, 86.06252406136863, 41.12315967436211, 86.05699057828586 " fill="none" id="curve_6" stroke="#000000" stroke-linecap="round" stroke-linejoin="round" stroke-width="3.52184708861142"/>
  <path d="M 48.68790716289365, 22.90981816597232 Q 47.08245364679937, 31.860822809065816, 43.93753242573603, 44.849598732163386 " fill="none" id="curve_8" stroke="#000000" stroke-linecap="round" stroke-linejoin="round" stroke-width="2.598977585833153"/>
  <path d="M 33.19747541160456, 82.57510396653265 Q 33.74350572568247, 82.78823230801174, 34.40550048996814, 83.13733839749167 " fill="none" id="curve_23" stroke="#000000" stroke-linecap="round" stroke-linejoin="round" stroke-width="3.4321586574861405"/>
  <path d="M 43.80020378374018, 53.84274401867067 Q 43.5503609928501, 47.23232989057228, 42.549378901353954, 43.88261390113062 " fill="none" id="curve_24" stroke="#000000" stroke-linecap="round" stroke-linejoin="round" stroke-width="2.761756681979914"/>
  <path d="M 40.322648959914055, 16.313222417978498 Q 38.35712036671474, 16.090238341931187, 33.77577999879638, 15.860230346633399 " fill="none" id="curve_25" stroke="#000000" stroke-linecap="round" stroke-linejoin="round" stroke-width="2.2834012391006504"/>
  <path d="M 48.343562668616514, 27.26900752935298 Q 47.90548741143791, 18.55732944909589, 42.996459249221346, 16.218805674397583 " fill="none" id="curve_28" stroke="#000000" stroke-linecap="round" stroke-linejoin="round" stroke-width="2.609090316588866"/>
  <path d="M 32.66119721689357, 53.47449191774447 Q 33.41417286308311, 51.80436777591877, 40.84190896615078, 51.307400097800624 " fill="none" id="curve_30" stroke="#000000" stroke-linecap="round" stroke-linejoin="round" stroke-width="2.6239914592335167"/>
  <path d="M 38.21996155831948, 57.234984718197666 Q 38.17022190971726, 56.14134355636902, 37.874381423006376, 55.57333360626254 " fill="none" id="curve_58" stroke="#000000" stroke-linecap="round" stroke-linejoin="round" stroke-width="3.075568554221122"/>
  <path d="M 46.26914418289512, 21.348906203736316 Q 46.83877746956652, 22.544441949783753, 47.59008370031269, 24.227526310653104 " fill="none" id="curve_63" stroke="#000000" stroke-linecap="round" stroke-linejoin="round" stroke-width="2.906850339897176"/>
  <path d="M 34.66218270632638, 76.29703711423451 Q 33.60036562075468, 76.93470880470556, 33.32201581398617, 82.05425372768545 " fill="none" id="curve_67" stroke="#000000" stroke-linecap="round" stroke-linejoin="round" stroke-width="3.1449263256586035"/>
  <path d="M 48.78402022415318, 53.82346459841284 Q 48.36891465427869, 52.300213816179074, 42.16980554655013, 51.93365829052882 " fill="none" id="curve_108" stroke="#000000" stroke-linecap="round" stroke-linejoin="round" stroke-width="2.364861157972407"/>
  <path d="M 23.96357228406208, 17.633216333497348 Q 22.300627948122354, 17.293569203377714, 18.855578441569858, 16.932602764963114 " fill="none" id="curve_139" stroke="#000000" stroke-linecap="round" stroke-linejoin="round" stroke-width="3.1103469361542326"/>
</svg>
