<?xml version="1.0" ?>
<svg height="140" width="140" xmlns="http://www.w3.org/2000/svg">
  <path d="M 60.35613250732422, 54.23655319213867 Q 56.82988297398122, 55.65932738417876, 54.32236683120061, 70.93452710225665 " fill="none" id="curve_1" stroke="#000000" stroke-linecap="round" stroke-linejoin="round" stroke-width="6.967420191268277"/>
  <path d="M 54.32236683120061, 70.93452710225665 Q 51.79576471995623, 83.39393969637672, 46.496014926984714, 98.07379531310313 " fill="none" id="curve_1" stroke="#000000" stroke-linecap="round" stroke-linejoin="round" stroke-width="5.667036131658832"/>
  <path d="M 46.496014926984714, 98.07379531310313 Q 45.96725873581443, 108.86902293406025, 44.24075691391351, 136.72142094208482 " fill="none" id="curve_1" stroke="#000000" stroke-linecap="round" stroke-linejoin="round" stroke-width="6.151592223727263"/>
  <path d="M 42.48949920190018, 100.09026073719642 Q 41.7965562008585, 98.25033765768266, 34.01689639599438, 97.76522928526775 " fill="none" id="curve_2" stroke="#000000" stroke-linecap="round" stroke-linejoin="round" stroke-width="4.600026170562776"/>
  <path d="M 34.01689639599438, 97.76522928526775 Q 49.32026080060516, 96.98272600053261, 59.18285344137616, 94.85995766737362 " fill="none" id="curve_2" stroke="#000000" stroke-linecap="round" stroke-linejoin="round" stroke-width="6.021000649060344"/>
  <path d="M 59.18285344137616, 94.85995766737362 Q 57.47696456238862, 92.74073703608366, 49.76209891383381, 91.76179939996892 " fill="none" id="curve_2" stroke="#000000" stroke-linecap="round" stroke-linejoin="round" stroke-width="2.9293809964235717"/>
  <path d="M 21.492102250313316, 65.97792754841001 Q 18.603167206395693, 66.58678298530414, 18.045192983270358, 72.06446519045504 " fill="none" id="curve_3" stroke="#000000" stroke-linecap="round" stroke-linejoin="round" stroke-width="5.24717481168094"/>
  <path d="M 18.045192983270358, 72.06446519045504 Q 18.174375936476785, 64.1178737958798, 18.366193616429754, 46.237076009706854 " fill="none" id="curve_3" stroke="#000000" stroke-linecap="round" stroke-linejoin="round" stroke-width="7.257040220381376"/>
  <path d="M 18.366193616429754, 46.237076009706854 Q 21.521586511933982, 52.787647727160035, 29.625431707004367, 55.160061849258696 " fill="none" id="curve_3" stroke="#000000" stroke-linecap="round" stroke-linejoin="round" stroke-width="5.627274247647306"/>
  <path d="M 29.625431707004367, 55.160061849258696 Q 45.157024200300704, 53.21067791557272, 58.54583816066854, 49.45381924690638 " fill="none" id="curve_3" stroke="#000000" stroke-linecap="round" stroke-linejoin="round" stroke-width="5.560852580676036"/>
  <path d="M 58.54583816066854, 49.45381924690638 Q 58.524955818953494, 55.92095018446035, 58.47970516918564, 60.65544315964367 " fill="none" id="curve_3" stroke="#000000" stroke-linecap="round" stroke-linejoin="round" stroke-width="3.9888782323699985"/>
  <path d="M 18.429497582340446, 44.09162915509198 Q 17.757300195883847, 44.30127563545729, 17.31800629445038, 44.88563212581106 " fill="none" id="curve_4" stroke="#000000" stroke-linecap="round" stroke-linejoin="round" stroke-width="6.6266257283815735"/>
  <path d="M 84.47965318752514, 1.9883795450768074 Q 86.8313242638323, 2.758299112915998, 89.24376085474063, 4.075737742970487 " fill="none" id="curve_7" stroke="#000000" stroke-linecap="round" stroke-linejoin="round" stroke-width="3.7132474039836243"/>
  <path d="M 74.35634917466756, 0.8928981531938582 Q 71.08227121241738, 0.7395024911617161, 55.011852148316905, 0.6463201708462949 " fill="none" id="curve_8" stroke="#000000" stroke-linecap="round" stroke-linejoin="round" stroke-width="1.8162707977347787"/>
  <path d="M 79.97062972818382, 1.8956551346484984 Q 81.7519493122894, 2.0702501414002477, 88.58414423074743, 2.1580721514065107 " fill="none" id="curve_9" stroke="#000000" stroke-linecap="round" stroke-linejoin="round" stroke-width="2.0189243675402597"/>
  <path d="M 88.58414423074743, 2.1580721514065107 Q 88.83588594788834, 4.852454596658242, 89.36113269854559, 6.712637253931193 " fill="none" id="curve_9" stroke="#000000" stroke-linecap="round" stroke-linejoin="round" stroke-width="2.527197159201636"/>
  <path d="M 80.32208497283871, 1.4280509438014377 Q 79.064624084293, 1.2180351971619983, 77.08903858971227, 0.9620397634662119 " fill="none" id="curve_11" stroke="#000000" stroke-linecap="round" stroke-linejoin="round" stroke-width="1.880676231133213"/>
  <path d="M 38.11134374865374, 0.7982615953515388 Q 43.256895271500994, 0.7324139061283629, 50.37555427878891, 0.6318317405654233 " fill="none" id="curve_13" stroke="#000000" stroke-linecap="round" stroke-linejoin="round" stroke-width="1.1266809040061754"/>
  <path d="M 35.75450797982745, 1.2553591960111938 Q 35.20138747947679, 0.9791978463021229, 25.17536174251618, 0.9330692762800223 " fill="none" id="curve_14" stroke="#000000" stroke-linecap="round" stroke-linejoin="round" stroke-width="1.3242525172127217"/>
  <path d="M 25.17536174251618, 0.9330692762800223 Q 24.325923536482343, 0.810210599852464, 11.113035136622685, 0.7853243922606812 " fill="none" id="curve_14" stroke="#000000" stroke-linecap="round" stroke-linejoin="round" stroke-width="1.4174091215514015"/>
  <path d="M 1.2535572351607964, 1.0408952913439036 Q 2.666126641451463, 0.7229023169104098, 7.926837503593133, 0.5323826174032013 " fill="none" id="curve_15" stroke="#000000" stroke-linecap="round" stroke-linejoin="round" stroke-width="1.227466861943528"/>
  <path d="M 1.1874531600925398, 2.0905055718890138 Q 1.2077557509185324, 1.7724502936736952, 1.2355088617246748, 1.3602476224250024 " fill="none" id="curve_16" stroke="#000000" stroke-linecap="round" stroke-linejoin="round" stroke-width="1.7978299207503592"/>
  <path d="M 46.4230558089803, 49.8352084444045 Q 47.521049936825676, 48.858240750420606, 57.28056995030025, 48.579301369111846 " fill="none" id="curve_19" stroke="#000000" stroke-linecap="round" stroke-linejoin="round" stroke-width="2.5968689476543116"/>
  <path d="M 47.84201653877111, 88.66891369024702 Q 48.63430122262104, 92.16922305508766, 48.841760687848264, 109.98932657546749 " fill="none" id="curve_21" stroke="#000000" stroke-linecap="round" stroke-linejoin="round" stroke-width="2.9420979465247674"/>
  <path d="M 46.0725322318959, 137.7055864798922 Q 45.79482759734168, 136.67272665602445, 45.51251806803078, 135.19053243493371 " fill="none" id="curve_22" stroke="#000000" stroke-linecap="round" stroke-linejoin="round" stroke-width="5.333967358322247"/>
  <path d="M 45.51251806803078, 135.19053243493371 Q 43.884608991002274, 131.5909373612345, 42.990452616099596, 119.93508471527079 " fill="none" id="curve_22" stroke="#000000" stroke-linecap="round" stroke-linejoin="round" stroke-width="3.8766360431119598"/>
  <path d="M 50.738879149001754, 86.57510321312392 Q 48.98858073965926, 86.51721449534512, 47.97056879214679, 86.19596100939654 " fill="none" id="curve_23" stroke="#000000" stroke-linecap="round" stroke-linejoin="round" stroke-width="4.755991364302344"/>
  <path d="M 47.97056879214679, 86.19596100939654 Q 50.074064056854965, 79.00066416500859, 54.81815016714203, 68.90587952511517 " fill="none" id="curve_23" stroke="#000000" stroke-linecap="round" stroke-linejoin="round" stroke-width="2.5592363956836333"/>
  <path d="M 54.81815016714203, 68.90587952511517 Q 56.551192133220425, 66.77232946111091, 57.43567138656872, 58.6004583453655 " fill="none" id="curve_23" stroke="#000000" stroke-linecap="round" stroke-linejoin="round" stroke-width="3.4495097694458656"/>
  <path d="M 17.48733507809883, 47.733433262333754 Q 17.211016516684595, 46.746069998316884, 16.81849009788045, 45.458623971659456 " fill="none" id="curve_25" stroke="#000000" stroke-linecap="round" stroke-linejoin="round" stroke-width="5.755926832763102"/>
  <path d="M 55.734496547907156, 64.21838539894816 Q 56.43167835110054, 57.27532716118468, 59.24220373793978, 52.31081870062917 " fill="none" id="curve_53" stroke="#000000" stroke-linecap="round" stroke-linejoin="round" stroke-width="2.655523934848472"/>
  <path d="M 48.618100135792595, 111.96402296379233 Q 45.01364229853632, 112.97336243888317, 42.89795503231905, 116.75667098606426 " fill="none" id="curve_68" stroke="#000000" stroke-linecap="round" stroke-linejoin="round" stroke-width="3.7235690150415643"/>
  <path d="M 15.787661930516833, 49.88732607669249 Q 15.937351963874756, 44.76351628229275, 18.05801272834605, 43.75804816652008 " fill="none" id="curve_96" stroke="#000000" stroke-linecap="round" stroke-linejoin="round" stroke-width="2.8621078514458156"/>
  <path d="M 18.05801272834605, 43.75804816652008 Q 18.116208772250367, 43.319611396117544, 18.271629498853493, 42.98447950160416 " fill="none" id="curve_96" stroke="#000000" stroke-linecap="round" stroke-linejoin="round" stroke-width="3.4308020800601087"/>
  <path d="M 17.360411816797352, 72.7505356180846 Q 17.905226918203507, 67.9360903024221, 19.78753136343658, 61.31508438630501 " fill="none" id="curve_101" stroke="#000000" stroke-linecap="round" stroke-linejoin="round" stroke-width="2.3640199232740047"/>
  <path d="M 48.3439826965332, 99.63862800598145 Q 49.72228294400169, 97.71025210933561, 54.55614870797584, 96.60919805853068 " fill="none" id="curve_154" stroke="#000000" stroke-linecap="round" stroke-linejoin="round" stroke-width="2.4865676061927755"/>
  <path d="M 32.43590199396624, 96.33070766643463 Q 33.33773272050758, 96.67619469776223, 34.332285778469455, 97.27670306103882 " fill="none" id="curve_155" stroke="#000000" stroke-linecap="round" stroke-linejoin="round" stroke-width="2.5291522676189007"/>
  <path d="M 55.8672279478305, 65.98346051213986 Q 57.03455803307329, 59.6103724150818, 59.38931591041379, 51.22426078371613 " fill="none" id="curve_156" stroke="#000000" stroke-linecap="round" stroke-linejoin="round" stroke-width="2.463009103425665"/>
</svg>
