<?xml version="1.0" ?>
<svg height="140" width="140" xmlns="http://www.w3.org/2000/svg">
  <path d="M 66.37210464477539, 20.31782341003418 Q 66.25258040139721, 19.17430557084384, 64.88354255100865, 18.914496953633886 " fill="none" id="curve_1" stroke="#000000" stroke-linecap="round" stroke-linejoin="round" stroke-width="10.087655709694666"/>
  <path d="M 64.88354255100865, 18.914496953633886 Q 63.90811682758045, 26.872225866953528, 48.584882810270884, 27.904308535744192 " fill="none" id="curve_1" stroke="#000000" stroke-linecap="round" stroke-linejoin="round" stroke-width="13.946634766543207"/>
  <path d="M 48.584882810270884, 27.904308535744192 Q 50.705407149633004, 31.44091682897811, 62.17476146901696, 33.31613930441717 " fill="none" id="curve_1" stroke="#000000" stroke-linecap="round" stroke-linejoin="round" stroke-width="9.323659338281304"/>
  <path d="M 62.17476146901696, 33.31613930441717 Q 53.35615150583684, 40.36983827140476, 46.73833198549594, 55.98065927747588 " fill="none" id="curve_1" stroke="#000000" stroke-linecap="round" stroke-linejoin="round" stroke-width="9.635713438359737"/>
  <path d="M 46.73833198549594, 55.98065927747588 Q 45.35310857987941, 61.28189306057672, 33.78457986495506, 62.31297853575393 " fill="none" id="curve_1" stroke="#000000" stroke-linecap="round" stroke-linejoin="round" stroke-width="8.7740360501897"/>
  <path d="M 33.78457986495506, 62.31297853575393 Q 37.7522475389457, 63.07565391252933, 38.024182031857926, 81.96858793042105 " fill="none" id="curve_1" stroke="#000000" stroke-linecap="round" stroke-linejoin="round" stroke-width="9.264907697575229"/>
  <path d="M 38.024182031857926, 81.96858793042105 Q 35.32661146182977, 88.40093852549009, 32.87081213478982, 95.62326687170064 " fill="none" id="curve_1" stroke="#000000" stroke-linecap="round" stroke-linejoin="round" stroke-width="10.188879285343694"/>
  <path d="M 42.0116289168229, 74.5142436069947 Q 45.29161051539478, 58.2431242187611, 62.39082495114292, 49.252037197721165 " fill="none" id="curve_2" stroke="#000000" stroke-linecap="round" stroke-linejoin="round" stroke-width="7.01789913806789"/>
  <path d="M 40.42449112994973, 28.55257742864654 Q 36.254273875451226, 26.996113378401493, 29.57893555284995, 25.350678251329697 " fill="none" id="curve_3" stroke="#000000" stroke-linecap="round" stroke-linejoin="round" stroke-width="11.468708114903086"/>
  <path d="M 32.87631330662441, 66.23442034986554 Q 31.526384792381876, 66.09949388329946, 30.595035286859677, 65.73944290979851 " fill="none" id="curve_5" stroke="#000000" stroke-linecap="round" stroke-linejoin="round" stroke-width="7.91087196311946"/>
  <path d="M 62.4603607419635, 53.6487904656609 Q 58.54020927291379, 53.16900993406706, 53.32572100940253, 51.80915614195051 " fill="none" id="curve_8" stroke="#000000" stroke-linecap="round" stroke-linejoin="round" stroke-width="5.966833623110746"/>
  <path d="M 29.52265827241446, 24.67135836906614 Q 46.94119385554701, 25.493983855476152, 57.57860011360768, 28.41147737915346 " fill="none" id="curve_9" stroke="#000000" stroke-linecap="round" stroke-linejoin="round" stroke-width="3.3692657049086305"/>
  <path d="M 67.49698091465336, 20.728664025013842 Q 66.58363498967843, 29.39885469330667, 57.744505235680194, 32.67503177061095 " fill="none" id="curve_10" stroke="#000000" stroke-linecap="round" stroke-linejoin="round" stroke-width="3.8143319687244492"/>
  <path d="M 61.59521176104051, 50.085738681176736 Q 61.428569750279195, 47.39245493997041, 54.19895860453281, 47.19324823800357 " fill="none" id="curve_11" stroke="#000000" stroke-linecap="round" stroke-linejoin="round" stroke-width="4.58841968037089"/>
  <path d="M 54.19895860453281, 47.19324823800357 Q 55.66168404723267, 48.99072176073078, 56.32085454269766, 56.51063390856837 " fill="none" id="curve_11" stroke="#000000" stroke-linecap="round" stroke-linejoin="round" stroke-width="5.843187492507497"/>
  <path d="M 42.78182307024178, 22.64483926029608 Q 34.00266560560989, 22.250852955772718, 26.65717882964003, 21.12290535419231 " fill="none" id="curve_12" stroke="#000000" stroke-linecap="round" stroke-linejoin="round" stroke-width="3.9569085273388716"/>
  <path d="M 44.178379815311416, 55.09006269755963 Q 39.02829557343549, 55.6740788150135, 37.20869042421505, 59.35349076381003 " fill="none" id="curve_13" stroke="#000000" stroke-linecap="round" stroke-linejoin="round" stroke-width="3.371657105381283"/>
  <path d="M 37.20869042421505, 59.35349076381003 Q 49.9033419273441, 58.64149313045581, 57.68012250931548, 56.366529913888655 " fill="none" id="curve_13" stroke="#000000" stroke-linecap="round" stroke-linejoin="round" stroke-width="5.195229313587272"/>
  <path d="M 60.12038912611134, 47.22522838488226 Q 61.676442886056854, 47.1936534424584, 62.59906551061848, 47.08969576086104 " fill="none" id="curve_14" stroke="#000000" stroke-linecap="round" stroke-linejoin="round" stroke-width="4.0088410690969525"/>
  <path d="M 33.170859991551836, 86.38757734128555 Q 31.498019372444126, 87.62883468214818, 30.993621458318326, 94.29091209719367 " fill="none" id="curve_15" stroke="#000000" stroke-linecap="round" stroke-linejoin="round" stroke-width="5.712909677073422"/>
  <path d="M 30.993621458318326, 94.29091209719367 Q 32.27280120507717, 95.26420302689051, 36.92654201381437, 95.67933059135237 " fill="none" id="curve_15" stroke="#000000" stroke-linecap="round" stroke-linejoin="round" stroke-width="4.935775906230067"/>
  <path d="M 26.005670303933993, 26.56049387274789 Q 27.432001665283227, 26.75741398275412, 28.680460867352153, 27.37272849261857 " fill="none" id="curve_18" stroke="#000000" stroke-linecap="round" stroke-linejoin="round" stroke-width="4.658134218088733"/>
  <path d="M 64.85265411040722, 17.041041962062256 Q 64.64340760134745, 17.52028971864854, 64.39470247631654, 18.566994802994248 " fill="none" id="curve_20" stroke="#000000" stroke-linecap="round" stroke-linejoin="round" stroke-width="5.732753862493858"/>
  <path d="M 64.39470247631654, 18.566994802994248 Q 64.28392174952288, 18.38292115984933, 64.105280803227, 17.993421793171255 " fill="none" id="curve_20" stroke="#000000" stroke-linecap="round" stroke-linejoin="round" stroke-width="4.846698095561429"/>
  <path d="M 64.57316627143429, 16.86594235434446 Q 64.56958489064064, 17.2782120656416, 64.5625937455886, 18.11740811413115 " fill="none" id="curve_26" stroke="#000000" stroke-linecap="round" stroke-linejoin="round" stroke-width="3.9619795336167423"/>
  <path d="M 64.5625937455886, 18.11740811413115 Q 64.19695132270846, 18.015505578506627, 63.52601582620857, 17.809823240677137 " fill="none" id="curve_26" stroke="#000000" stroke-linecap="round" stroke-linejoin="round" stroke-width="4.485104147263989"/>
  <path d="M 52.7048989666755, 36.89827404139663 Q 50.44730638076956, 41.09654417779966, 48.12268520352213, 51.54714145565126 " fill="none" id="curve_41" stroke="#000000" stroke-linecap="round" stroke-linejoin="round" stroke-width="2.8565532597010512"/>
  <path d="M 60.14367243077007, 19.175220498818298 Q 63.86068738225975, 18.79489799628803, 66.39150526331814, 17.775116342785473 " fill="none" id="curve_43" stroke="#000000" stroke-linecap="round" stroke-linejoin="round" stroke-width="3.775586444023694"/>
  <path d="M 44.12295601623737, 31.87519553107353 Q 42.77597904025567, 31.445630388708576, 39.39372358458516, 30.77159896053178 " fill="none" id="curve_149" stroke="#000000" stroke-linecap="round" stroke-linejoin="round" stroke-width="1.9539799388152164"/>
</svg>
