<?xml version="1.0" ?>
<svg height="140" width="140" xmlns="http://www.w3.org/2000/svg">
  <path d="M 51.49170760815076, 102.77318061521584 Q 51.9443760230504, 93.15189251559961, 55.12439303850262, 87.90246564713715 " fill="none" id="curve_2" stroke="#000000" stroke-linecap="round" stroke-linejoin="round" stroke-width="5.390164278938266"/>
  <path d="M 55.12439303850262, 87.90246564713715 Q 57.49457359470726, 80.54785895136898, 61.29253031841367, 69.27775224761137 " fill="none" id="curve_2" stroke="#000000" stroke-linecap="round" stroke-linejoin="round" stroke-width="5.369757778107388"/>
  <path d="M 61.29253031841367, 69.27775224761137 Q 63.605154438523805, 60.33805966056704, 69.49514187406487, 39.709622877159646 " fill="none" id="curve_2" stroke="#000000" stroke-linecap="round" stroke-linejoin="round" stroke-width="5.614891448924735"/>
  <path d="M 69.49514187406487, 39.709622877159646 Q 69.41769462406327, 37.512688032277005, 68.00467393383951, 37.262854577237064 " fill="none" id="curve_2" stroke="#000000" stroke-linecap="round" stroke-linejoin="round" stroke-width="4.034598191246703"/>
  <path d="M 68.00467393383951, 37.262854577237064 Q 60.89450267297357, 39.17989208493606, 31.95641521782708, 41.99315680305557 " fill="none" id="curve_2" stroke="#000000" stroke-linecap="round" stroke-linejoin="round" stroke-width="5.2910181302413335"/>
  <path d="M 31.95641521782708, 41.99315680305557 Q 16.129793090577557, 42.58505815153568, 12.113595080706055, 46.20944309404365 " fill="none" id="curve_2" stroke="#000000" stroke-linecap="round" stroke-linejoin="round" stroke-width="4.901859733203937"/>
  <path d="M 18.727109247158555, 73.30510435890956 Q 21.081888874199123, 69.78456854596462, 31.487962060145247, 68.50255869821686 " fill="none" id="curve_3" stroke="#000000" stroke-linecap="round" stroke-linejoin="round" stroke-width="5.060465308031241"/>
  <path d="M 31.487962060145247, 68.50255869821686 Q 44.53905595854241, 69.8047845210403, 61.237134793488735, 71.63539188898594 " fill="none" id="curve_3" stroke="#000000" stroke-linecap="round" stroke-linejoin="round" stroke-width="5.1092610786488795"/>
  <path d="M 61.237134793488735, 71.63539188898594 Q 67.97276399923439, 72.24018417944166, 75.05452267451238, 72.90657458216575 " fill="none" id="curve_3" stroke="#000000" stroke-linecap="round" stroke-linejoin="round" stroke-width="4.655273385258213"/>
  <path d="M 20.67498337541182, 77.1583326177328 Q 19.380073763167196, 75.4256182011064, 18.25100669458127, 72.33317110389088 " fill="none" id="curve_6" stroke="#000000" stroke-linecap="round" stroke-linejoin="round" stroke-width="3.8504243786006205"/>
  <path d="M 13.40586822907441, 50.14946457392392 Q 12.502693989517653, 48.43413686611555, 11.504301885902397, 45.843196506069404 " fill="none" id="curve_7" stroke="#000000" stroke-linecap="round" stroke-linejoin="round" stroke-width="4.658897245157585"/>
  <path d="M 80.5382086820101, 0.9318185277604059 Q 87.47416342494857, 1.1369884656185936, 89.06500896606357, 4.585824592358476 " fill="none" id="curve_12" stroke="#000000" stroke-linecap="round" stroke-linejoin="round" stroke-width="2.7097617558348266"/>
  <path d="M 89.06500896606357, 4.585824592358476 Q 89.12489144067818, 8.426196511829284, 89.36213860898745, 10.156557308831308 " fill="none" id="curve_12" stroke="#000000" stroke-linecap="round" stroke-linejoin="round" stroke-width="2.368809329236519"/>
  <path d="M 73.76603042495253, 1.0954162127448068 Q 71.25125554629798, 0.9883276275271201, 62.53071942299352, 0.908204872359591 " fill="none" id="curve_13" stroke="#000000" stroke-linecap="round" stroke-linejoin="round" stroke-width="1.3546860854439542"/>
  <path d="M 46.66608035645329, 1.0005031087606782 Q 46.138022277159266, 0.9269296627796137, 45.108125793205936, 0.8529589422938895 " fill="none" id="curve_14" stroke="#000000" stroke-linecap="round" stroke-linejoin="round" stroke-width="1.9374112898081735"/>
  <path d="M 82.76142878304464, 1.568195864428167 Q 84.54616039159747, 2.363176000474256, 88.55141404041906, 3.484914188247232 " fill="none" id="curve_17" stroke="#000000" stroke-linecap="round" stroke-linejoin="round" stroke-width="2.3744655473653937"/>
  <path d="M 32.79606120936639, 40.69769801491007 Q 38.553833033753584, 39.82569377480454, 57.838763457756066, 38.65556509369862 " fill="none" id="curve_28" stroke="#000000" stroke-linecap="round" stroke-linejoin="round" stroke-width="2.160696214982686"/>
  <path d="M 21.26556877058183, 72.12951971341161 Q 21.966152599640942, 70.50440969335392, 32.507742899332946, 70.12523516752252 " fill="none" id="curve_30" stroke="#000000" stroke-linecap="round" stroke-linejoin="round" stroke-width="3.4539528844578564"/>
  <path d="M 30.763121782976725, 40.57499161379571 Q 29.342102536241395, 40.361931390543766, 24.43884528874285, 40.21528707430511 " fill="none" id="curve_32" stroke="#000000" stroke-linecap="round" stroke-linejoin="round" stroke-width="1.9822305835436806"/>
  <path d="M 16.77403177656274, 69.20124950723068 Q 17.517269730682816, 70.15157373051528, 18.18206471800915, 72.37480522402936 " fill="none" id="curve_34" stroke="#000000" stroke-linecap="round" stroke-linejoin="round" stroke-width="3.044936350257127"/>
  <path d="M 11.30551574360153, 43.76439546426403 Q 12.594936248151908, 43.631779629783345, 15.10804380080422, 43.44518319781838 " fill="none" id="curve_36" stroke="#000000" stroke-linecap="round" stroke-linejoin="round" stroke-width="2.8879426908464816"/>
  <path d="M 57.728724406274395, 70.3546879765285 Q 61.602290445327185, 66.035562850475, 65.46935659630003, 57.70882260077984 " fill="none" id="curve_40" stroke="#000000" stroke-linecap="round" stroke-linejoin="round" stroke-width="2.402867643938767"/>
  <path d="M 69.82558043398467, 43.73466209753703 Q 69.89390181481177, 44.29389902443205, 70.01599783138757, 44.84570424324892 " fill="none" id="curve_41" stroke="#000000" stroke-linecap="round" stroke-linejoin="round" stroke-width="3.6385339858252417"/>
  <path d="M 63.24151453299667, 36.82492907598564 Q 62.57672802260016, 37.154766672607195, 61.43456410827166, 37.90517821250783 " fill="none" id="curve_42" stroke="#000000" stroke-linecap="round" stroke-linejoin="round" stroke-width="2.863575134146889"/>
  <path d="M 89.55097207876845, 5.376500780968684 Q 89.1658741886431, 3.6446887195992157, 87.43194887792572, 2.5709400006911034 " fill="none" id="curve_43" stroke="#000000" stroke-linecap="round" stroke-linejoin="round" stroke-width="3.034513564026575"/>
  <path d="M 87.82458026759323, 3.486463763645858 Q 87.91915472357402, 3.271065311688771, 88.10411382682288, 2.9152234682826745 " fill="none" id="curve_45" stroke="#000000" stroke-linecap="round" stroke-linejoin="round" stroke-width="3.0233232588511787"/>
  <path d="M 89.47601093179952, 5.197333069832901 Q 89.1742127282771, 3.030604139032476, 85.72509368801775, 2.280770093316785 " fill="none" id="curve_47" stroke="#000000" stroke-linecap="round" stroke-linejoin="round" stroke-width="2.4059413922497717"/>
  <path d="M 75.64732368231624, 1.181383036942151 Q 76.63135852263568, 1.10462368645454, 79.17357601033882, 1.0277146538792683 " fill="none" id="curve_62" stroke="#000000" stroke-linecap="round" stroke-linejoin="round" stroke-width="1.4909299587355531"/>
  <path d="M 59.29293256706678, 0.9893077936835348 Q 59.4272692666011, 0.9225299966951078, 59.75138884619114, 0.8319602699097591 " fill="none" id="curve_65" stroke="#000000" stroke-linecap="round" stroke-linejoin="round" stroke-width="1.5193957902853852"/>
  <path d="M 88.00986102711344, 4.778703947764413 Q 87.95871533595714, 3.8787067355129445, 87.87040353331288, 2.555982066469062 " fill="none" id="curve_72" stroke="#000000" stroke-linecap="round" stroke-linejoin="round" stroke-width="3.1350375966011828"/>
  <path d="M 37.08358060113301, 0.8706465213009551 Q 37.245767029343085, 0.8594593202380127, 37.53393730470365, 0.8439341567627566 " fill="none" id="curve_178" stroke="#000000" stroke-linecap="round" stroke-linejoin="round" stroke-width="1.5380969569250413"/>
</svg>
