<?xml version="1.0" ?>
<svg height="140" width="140" xmlns="http://www.w3.org/2000/svg">
  <path d="M 72.71445083618164, 19.763748168945312 Q 73.09496951255892, 19.198269897805474, 73.54865588542845, 17.797248176776435 " fill="none" id="curve_1" stroke="#000000" stroke-linecap="round" stroke-linejoin="round" stroke-width="10.290439842788832"/>
  <path d="M 73.54865588542845, 17.797248176776435 Q 69.55453020300587, 22.991508711366038, 55.072320793326426, 26.345660238189986 " fill="none" id="curve_1" stroke="#000000" stroke-linecap="round" stroke-linejoin="round" stroke-width="10.05453635492614"/>
  <path d="M 55.072320793326426, 26.345660238189986 Q 47.934338976567155, 29.986557344126194, 25.839506144328407, 32.52413836959807 " fill="none" id="curve_1" stroke="#000000" stroke-linecap="round" stroke-linejoin="round" stroke-width="10.745296050485212"/>
  <path d="M 25.839506144328407, 32.52413836959807 Q 24.601977517957852, 31.020880185740214, 22.879344723390293, 29.631723763352692 " fill="none" id="curve_1" stroke="#000000" stroke-linecap="round" stroke-linejoin="round" stroke-width="10.492812636085121"/>
  <path d="M 73.48142911300522, 23.549977242219633 Q 59.2406699515751, 35.46902954557365, 37.50354550726555, 73.09066339552174 " fill="none" id="curve_2" stroke="#000000" stroke-linecap="round" stroke-linejoin="round" stroke-width="7.596779552548271"/>
  <path d="M 37.50354550726555, 73.09066339552174 Q 31.964900229222895, 89.94076159663707, 13.446092701451544, 129.82616389541292 " fill="none" id="curve_2" stroke="#000000" stroke-linecap="round" stroke-linejoin="round" stroke-width="7.6368042383739425"/>
  <path d="M 25.965220110742095, 75.93294602692352 Q 28.887604258428404, 71.1434411506271, 41.910302507255366, 67.27500599953663 " fill="none" id="curve_3" stroke="#000000" stroke-linecap="round" stroke-linejoin="round" stroke-width="9.132234797637347"/>
  <path d="M 41.910302507255366, 67.27500599953663 Q 37.43087544716899, 71.80812907985342, 19.93527144283939, 73.77691648715864 " fill="none" id="curve_3" stroke="#000000" stroke-linecap="round" stroke-linejoin="round" stroke-width="6.081877236357869"/>
  <path d="M 32.06338566460442, 85.27200215914641 Q 21.389433804523712, 93.2570285464229, 15.047123323157368, 124.23663697580972 " fill="none" id="curve_4" stroke="#000000" stroke-linecap="round" stroke-linejoin="round" stroke-width="5.435331039685962"/>
  <path d="M 15.047123323157368, 124.23663697580972 Q 16.173129503304306, 127.13798042765659, 18.42775866371867, 129.67166577661112 " fill="none" id="curve_4" stroke="#000000" stroke-linecap="round" stroke-linejoin="round" stroke-width="5.219347664611696"/>
  <path d="M 30.776444169209572, 86.34739669174249 Q 40.81530035553309, 81.72630956514891, 46.44341808090213, 55.54831957279133 " fill="none" id="curve_5" stroke="#000000" stroke-linecap="round" stroke-linejoin="round" stroke-width="5.802878285628054"/>
  <path d="M 46.44341808090213, 55.54831957279133 Q 50.74504706888665, 40.36008776207431, 67.04376604727125, 27.926306649757787 " fill="none" id="curve_5" stroke="#000000" stroke-linecap="round" stroke-linejoin="round" stroke-width="5.857351006387174"/>
  <path d="M 45.475236450041464, 56.72198073422395 Q 45.61246340426021, 63.4042224253325, 46.46101540308771, 66.1856319446325 " fill="none" id="curve_6" stroke="#000000" stroke-linecap="round" stroke-linejoin="round" stroke-width="5.762264400756469"/>
  <path d="M 43.49807671188102, 56.85761945236087 Q 39.2045691474083, 67.59338765169507, 20.291630859880986, 74.18228674797122 " fill="none" id="curve_7" stroke="#000000" stroke-linecap="round" stroke-linejoin="round" stroke-width="4.008062738053669"/>
  <path d="M 25.114998915207558, 113.26032476601688 Q 20.719612613191384, 117.8029161384375, 17.856311072525845, 127.54264456708492 " fill="none" id="curve_8" stroke="#000000" stroke-linecap="round" stroke-linejoin="round" stroke-width="3.725924326635887"/>
  <path d="M 31.480992601085468, 91.77226567377406 Q 37.294582697207474, 89.48837437111536, 39.1007206743045, 74.57526126382882 " fill="none" id="curve_9" stroke="#000000" stroke-linecap="round" stroke-linejoin="round" stroke-width="3.014416579517831"/>
  <path d="M 25.78300928967216, 71.32159097316719 Q 22.66345885972879, 72.60018903352533, 20.99481067996144, 76.68317068404693 " fill="none" id="curve_11" stroke="#000000" stroke-linecap="round" stroke-linejoin="round" stroke-width="4.804189248817009"/>
  <path d="M 20.99481067996144, 76.68317068404693 Q 21.61197936323263, 68.2738162890946, 37.78033544054925, 67.41533837313716 " fill="none" id="curve_11" stroke="#000000" stroke-linecap="round" stroke-linejoin="round" stroke-width="4.427419764912384"/>
  <path d="M 66.61903966072958, 32.46489451455729 Q 69.3722299863985, 32.20539465786274, 70.27004380495296, 29.843485951834033 " fill="none" id="curve_13" stroke="#000000" stroke-linecap="round" stroke-linejoin="round" stroke-width="4.469365310600108"/>
  <path d="M 48.913262312950394, 54.60313435408915 Q 48.99655098774527, 53.923686560384134, 49.06143133188044, 51.17074184364206 " fill="none" id="curve_14" stroke="#000000" stroke-linecap="round" stroke-linejoin="round" stroke-width="6.428838317858002"/>
  <path d="M 49.06143133188044, 51.17074184364206 Q 48.02807291545369, 56.27898544573091, 46.49146993304049, 66.18872158473856 " fill="none" id="curve_14" stroke="#000000" stroke-linecap="round" stroke-linejoin="round" stroke-width="4.289578152708261"/>
  <path d="M 42.914041616595966, 55.8597990517478 Q 50.42503712394084, 50.99707131714469, 59.26446156643992, 40.89240420211112 " fill="none" id="curve_16" stroke="#000000" stroke-linecap="round" stroke-linejoin="round" stroke-width="4.112550748403749"/>
  <path d="M 20.488894254087455, 35.120348152112584 Q 21.307117338242975, 35.71854668195579, 22.918943371784515, 36.44384459420663 " fill="none" id="curve_27" stroke="#000000" stroke-linecap="round" stroke-linejoin="round" stroke-width="2.8836582412145204"/>
  <path d="M 46.19268186477461, 69.5838926119668 Q 45.441704812111865, 68.8510084802181, 42.69147319370082, 67.91613571280841 " fill="none" id="curve_42" stroke="#000000" stroke-linecap="round" stroke-linejoin="round" stroke-width="3.1387092697741013"/>
  <path d="M 42.69147319370082, 67.91613571280841 Q 47.373061601382645, 64.15438279269308, 51.16389241899998, 53.9159306780411 " fill="none" id="curve_42" stroke="#000000" stroke-linecap="round" stroke-linejoin="round" stroke-width="4.316228721833237"/>
  <path d="M 29.47765742499962, 75.90056063679054 Q 39.85126041412941, 75.99996198154223, 42.189039669317054, 77.44333881145714 " fill="none" id="curve_70" stroke="#000000" stroke-linecap="round" stroke-linejoin="round" stroke-width="3.0488174083598643"/>
  <path d="M 42.189039669317054, 77.44333881145714 Q 32.51953915635019, 78.21903717981921, 28.973956912329726, 83.32252757692599 " fill="none" id="curve_70" stroke="#000000" stroke-linecap="round" stroke-linejoin="round" stroke-width="2.2655365201537023"/>
  <path d="M 61.27026622272828, 38.313672861324676 Q 65.6128778222885, 37.38469025042179, 67.87050850239604, 32.081611532378716 " fill="none" id="curve_85" stroke="#000000" stroke-linecap="round" stroke-linejoin="round" stroke-width="2.1917859194407807"/>
  <path d="M 44.062799109442466, 52.53145595800049 Q 52.22625859153665, 51.271650312466925, 56.549457336652424, 46.375200598114915 " fill="none" id="curve_89" stroke="#000000" stroke-linecap="round" stroke-linejoin="round" stroke-width="4.629495298567222"/>
  <path d="M 42.5530105386464, 33.64341316573682 Q 43.63904429445512, 32.61712740741269, 46.29969960883493, 30.92907484549219 " fill="none" id="curve_91" stroke="#000000" stroke-linecap="round" stroke-linejoin="round" stroke-width="3.610988255955579"/>
  <path d="M 22.769834292009477, 70.40516303576248 Q 22.689011210150397, 69.18134695654274, 22.117276497857333, 68.76295314848018 " fill="none" id="curve_106" stroke="#000000" stroke-linecap="round" stroke-linejoin="round" stroke-width="2.1958208184193766"/>
  <path d="M 76.85230137094821, 23.56269217647472 Q 75.85930496282234, 21.795050404716005, 73.60377971217089, 18.72821876750298 " fill="none" id="curve_109" stroke="#000000" stroke-linecap="round" stroke-linejoin="round" stroke-width="2.988726233610386"/>
  <path d="M 72.1311660658622, 16.885469251343224 Q 69.88126638393031, 17.628692283497553, 65.65475051893463, 19.195916261479375 " fill="none" id="curve_112" stroke="#000000" stroke-linecap="round" stroke-linejoin="round" stroke-width="3.715468252825662"/>
  <path d="M 59.38693516198184, 34.49993744944882 Q 59.406036698463346, 29.997790167486414, 59.683916095638935, 28.9866118912042 " fill="none" id="curve_127" stroke="#000000" stroke-linecap="round" stroke-linejoin="round" stroke-width="4.11818243221371"/>
  <path d="M 35.18092444641951, 35.508343472336634 Q 36.07217512606436, 32.912661462199004, 47.40487424045744, 32.248638326385034 " fill="none" id="curve_155" stroke="#000000" stroke-linecap="round" stroke-linejoin="round" stroke-width="2.3079996688830104"/>
  <path d="M 29.895697788022744, 69.58569664825222 Q 30.269735010112164, 66.94073907352781, 37.15434338388946, 66.4496321210491 " fill="none" id="curve_170" stroke="#000000" stroke-linecap="round" stroke-linejoin="round" stroke-width="4.029532169126206"/>
  <path d="M 44.51304937652325, 52.0609802007844 Q 45.65111585635176, 47.51996535873249, 49.99227564060106, 44.1840568531668 " fill="none" id="curve_171" stroke="#000000" stroke-linecap="round" stroke-linejoin="round" stroke-width="2.2966807334749695"/>
</svg>
