<?xml version="1.0" ?>
<svg height="140" width="140" xmlns="http://www.w3.org/2000/svg">
  <path d="M 48.085180550813675, 53.4162540435791 Q 48.197618339178156, 53.01510273311319, 48.65640590985876, 52.762928455655214 " fill="none" id="curve_1" stroke="#000000" stroke-linecap="round" stroke-linejoin="round" stroke-width="7.1890706810213"/>
  <path d="M 48.65640590985876, 52.762928455655214 Q 46.8814988256738, 57.526527248045234, 44.60692941515393, 65.57258575970174 " fill="none" id="curve_1" stroke="#000000" stroke-linecap="round" stroke-linejoin="round" stroke-width="5.043388457657193"/>
  <path d="M 44.60692941515393, 65.57258575970174 Q 45.181824296565864, 78.62452078594558, 46.50958834663459, 85.00360169336989 " fill="none" id="curve_1" stroke="#000000" stroke-linecap="round" stroke-linejoin="round" stroke-width="5.7016871364649875"/>
  <path d="M 46.50958834663459, 85.00360169336989 Q 50.9674138536423, 88.77659889927064, 52.16408074593874, 110.01484348235155 " fill="none" id="curve_1" stroke="#000000" stroke-linecap="round" stroke-linejoin="round" stroke-width="4.136340711087019"/>
  <path d="M 52.16408074593874, 110.01484348235155 Q 38.3006213642164, 107.99591654387189, 30.17260251209086, 81.195974276221 " fill="none" id="curve_1" stroke="#000000" stroke-linecap="round" stroke-linejoin="round" stroke-width="4.749598401321059"/>
  <path d="M 30.17260251209086, 81.195974276221 Q 40.43450284809627, 82.75269241354721, 50.885049829188034, 85.20391521627653 " fill="none" id="curve_1" stroke="#000000" stroke-linecap="round" stroke-linejoin="round" stroke-width="4.9644707152422205"/>
  <path d="M 50.885049829188034, 85.20391521627653 Q 55.44707632544777, 85.91796216272985, 63.41567587429462, 86.47140924947631 " fill="none" id="curve_1" stroke="#000000" stroke-linecap="round" stroke-linejoin="round" stroke-width="3.2499301413346195"/>
  <path d="M 45.62784269943643, 52.78321109003386 Q 37.2485786594912, 54.18621960066772, 26.066476363640994, 56.12211719212497 " fill="none" id="curve_2" stroke="#000000" stroke-linecap="round" stroke-linejoin="round" stroke-width="4.995176021264116"/>
  <path d="M 26.066476363640994, 56.12211719212497 Q 17.803051191620632, 55.35277555560236, 10.928969097371779, 53.93936917773196 " fill="none" id="curve_2" stroke="#000000" stroke-linecap="round" stroke-linejoin="round" stroke-width="3.7907614306450785"/>
  <path d="M 29.440025187207254, 78.34322536625253 Q 40.902879097166036, 80.291395071376, 45.623304459005794, 87.86210534239274 " fill="none" id="curve_3" stroke="#000000" stroke-linecap="round" stroke-linejoin="round" stroke-width="3.2184895247334073"/>
  <path d="M 45.623304459005794, 87.86210534239274 Q 48.096428739306454, 94.86005178286732, 52.34111118403488, 99.70669489288382 " fill="none" id="curve_3" stroke="#000000" stroke-linecap="round" stroke-linejoin="round" stroke-width="2.976229536482981"/>
  <path d="M 37.27925588415036, 102.23379415877898 Q 41.630332880353826, 104.94948874335431, 45.11441452400503, 109.29175993293586 " fill="none" id="curve_4" stroke="#000000" stroke-linecap="round" stroke-linejoin="round" stroke-width="3.7430390319751825"/>
  <path d="M 35.39556204114564, 92.83241645279973 Q 37.84382549473537, 100.76306106823084, 45.044508677015784, 105.27638877560277 " fill="none" id="curve_8" stroke="#000000" stroke-linecap="round" stroke-linejoin="round" stroke-width="2.503276917368883"/>
  <path d="M 52.6881684720107, 103.0312718013121 Q 52.0208939883553, 101.13814412586201, 51.089299926891435, 97.69113268365619 " fill="none" id="curve_9" stroke="#000000" stroke-linecap="round" stroke-linejoin="round" stroke-width="3.3457974280928533"/>
  <path d="M 25.779111523925913, 56.36400824505753 Q 25.20809568915484, 55.91176697644102, 22.10202570895013, 55.47578084874886 " fill="none" id="curve_15" stroke="#000000" stroke-linecap="round" stroke-linejoin="round" stroke-width="2.84476010427176"/>
  <path d="M 48.72348850780055, 52.40554306161317 Q 47.24202312281963, 52.12704894123108, 43.823325846287396, 51.81602841683203 " fill="none" id="curve_46" stroke="#000000" stroke-linecap="round" stroke-linejoin="round" stroke-width="3.186924421943234"/>
  <path d="M 43.85456154093394, 81.47548504855922 Q 43.66616641084027, 78.02482216645686, 43.37182399717828, 73.81876161391828 " fill="none" id="curve_61" stroke="#000000" stroke-linecap="round" stroke-linejoin="round" stroke-width="2.21263777636718"/>
  <path d="M 49.61266200603789, 95.79180440651757 Q 50.68365857170409, 97.30952902609336, 51.751020599098894, 100.51264662282159 " fill="none" id="curve_64" stroke="#000000" stroke-linecap="round" stroke-linejoin="round" stroke-width="3.279592231568119"/>
  <path d="M 48.55447837669757, 94.91814093495532 Q 50.381610206870924, 96.67479718226689, 51.34554154511088, 102.38877465322221 " fill="none" id="curve_81" stroke="#000000" stroke-linecap="round" stroke-linejoin="round" stroke-width="2.843908680401991"/>
  <path d="M 51.34554154511088, 102.38877465322221 Q 51.60764724800222, 100.24668781143873, 52.03427170683951, 98.23747403566495 " fill="none" id="curve_81" stroke="#000000" stroke-linecap="round" stroke-linejoin="round" stroke-width="4.331216616222054"/>
  <path d="M 49.37769874133916, 55.01601113643791 Q 49.45469465179289, 54.07822558456412, 49.60005111584225, 52.81621647591249 " fill="none" id="curve_83" stroke="#000000" stroke-linecap="round" stroke-linejoin="round" stroke-width="3.707386632263768"/>
  <path d="M 31.084840576196747, 83.98064122246825 Q 33.15002968708454, 86.93100576990713, 35.313074811361716, 94.42463434091098 " fill="none" id="curve_104" stroke="#000000" stroke-linecap="round" stroke-linejoin="round" stroke-width="1.5613798545465052"/>
  <path d="M 47.56973948167824, 110.18022629253741 Q 47.158170237213696, 110.24122819431476, 46.78536879889628, 110.40285596698466 " fill="none" id="curve_108" stroke="#000000" stroke-linecap="round" stroke-linejoin="round" stroke-width="3.1140754148081893"/>
  <path d="M 51.476380970332144, 100.83672138405595 Q 50.58985318124413, 98.4223765412223, 48.92432469207634, 96.2920054707893 " fill="none" id="curve_109" stroke="#000000" stroke-linecap="round" stroke-linejoin="round" stroke-width="3.6470391642608044"/>
  <path d="M 45.800836236360965, 53.27226648679646 Q 48.18861595733999, 53.592571007827274, 51.16177325850087, 54.03571921063274 " fill="none" id="curve_110" stroke="#000000" stroke-linecap="round" stroke-linejoin="round" stroke-width="2.9351581942149916"/>
  <path d="M 46.483002478000685, 50.56005308351649 Q 47.44531829755375, 50.68086946783191, 48.391436355191104, 50.99018488750152 " fill="none" id="curve_138" stroke="#000000" stroke-linecap="round" stroke-linejoin="round" stroke-width="3.1589279787172786"/>
  <path d="M 30.624460889703577, 83.05109617736521 Q 33.62655950318543, 87.64981069320903, 38.16055630254834, 97.10344362952885 " fill="none" id="curve_153" stroke="#000000" stroke-linecap="round" stroke-linejoin="round" stroke-width="1.5805812678665034"/>
  <path d="M 34.316074805708354, 55.63842475767523 Q 32.06784437406742, 55.155788917109106, 21.378315482092688, 54.740634445073006 " fill="none" id="curve_168" stroke="#000000" stroke-linecap="round" stroke-linejoin="round" stroke-width="2.522378080216029"/>
</svg>
