<?xml version="1.0" ?>
<svg height="140" width="140" xmlns="http://www.w3.org/2000/svg">
  <path d="M 34.75325012207031, 95.77080059051514 Q 33.38048299665241, 96.49900927525945, 33.000006690900136, 101.55925976362414 " fill="none" id="curve_1" stroke="#000000" stroke-linecap="round" stroke-linejoin="round" stroke-width="5.789749806336407"/>
  <path d="M 33.000006690900136, 101.55925976362414 Q 34.52525417368724, 91.11372968390097, 41.44957526575868, 81.62295985109368 " fill="none" id="curve_1" stroke="#000000" stroke-linecap="round" stroke-linejoin="round" stroke-width="6.847195791704057"/>
  <path d="M 41.44957526575868, 81.62295985109368 Q 44.94524166008468, 73.08160644802805, 52.508048307139, 53.61754893400291 " fill="none" id="curve_1" stroke="#000000" stroke-linecap="round" stroke-linejoin="round" stroke-width="5.948776689567303"/>
  <path d="M 52.508048307139, 53.61754893400291 Q 52.29435753792458, 50.67008304419505, 40.752424209462916, 50.49489682957501 " fill="none" id="curve_1" stroke="#000000" stroke-linecap="round" stroke-linejoin="round" stroke-width="5.167213935114328"/>
  <path d="M 40.752424209462916, 50.49489682957501 Q 18.478013471174414, 50.92614542963391, 10.87323059915352, 54.72367720790902 " fill="none" id="curve_1" stroke="#000000" stroke-linecap="round" stroke-linejoin="round" stroke-width="5.497423179276827"/>
  <path d="M 15.009088773880947, 85.75404266870102 Q 23.54676460872488, 80.88956842800533, 47.37194343285499, 77.47840509347483 " fill="none" id="curve_2" stroke="#000000" stroke-linecap="round" stroke-linejoin="round" stroke-width="5.190822700820412"/>
  <path d="M 47.37194343285499, 77.47840509347483 Q 51.68698214106736, 76.73871069816383, 64.73251968505961, 76.34188690140674 " fill="none" id="curve_2" stroke="#000000" stroke-linecap="round" stroke-linejoin="round" stroke-width="3.8814695352151865"/>
  <path d="M 53.835035192866066, 50.16865288233484 Q 52.669874458022065, 50.269113390101225, 50.720018497955, 50.39467844410109 " fill="none" id="curve_3" stroke="#000000" stroke-linecap="round" stroke-linejoin="round" stroke-width="3.6588534946811238"/>
  <path d="M 21.454592560178952, 89.50733176572575 Q 19.974264831685797, 88.32879635839733, 18.19787934151492, 86.44603440824442 " fill="none" id="curve_4" stroke="#000000" stroke-linecap="round" stroke-linejoin="round" stroke-width="4.397703032765497"/>
  <path d="M 10.879934689049065, 56.65580039847762 Q 10.519396544643184, 56.27570853020818, 10.28052912489783, 55.180169379669636 " fill="none" id="curve_5" stroke="#000000" stroke-linecap="round" stroke-linejoin="round" stroke-width="6.8881410884810395"/>
  <path d="M 48.080169677734375, 55.61686325073242 Q 47.53715469901878, 64.21499777864314, 43.546495132006925, 68.93288902081702 " fill="none" id="curve_19" stroke="#000000" stroke-linecap="round" stroke-linejoin="round" stroke-width="2.932663137536855"/>
  <path d="M 14.827820301078667, 55.34475076797101 Q 12.706546062733375, 55.623633004854725, 10.63211546426217, 56.17540483500881 " fill="none" id="curve_21" stroke="#000000" stroke-linecap="round" stroke-linejoin="round" stroke-width="5.014377612280217"/>
  <path d="M 10.63211546426217, 56.17540483500881 Q 10.864983532858608, 51.1500080786622, 20.26198671147268, 50.72634657385637 " fill="none" id="curve_21" stroke="#000000" stroke-linecap="round" stroke-linejoin="round" stroke-width="2.7403706345905015"/>
  <path d="M 32.850659028262704, 52.34394191154981 Q 34.470003839636846, 50.73688269360699, 42.33987094900853, 50.00262018969857 " fill="none" id="curve_22" stroke="#000000" stroke-linecap="round" stroke-linejoin="round" stroke-width="3.5660333368494763"/>
  <path d="M 25.336386130653842, 80.27221151498625 Q 27.518284440121718, 79.61141253178145, 32.91459761193735, 79.12267806599753 " fill="none" id="curve_26" stroke="#000000" stroke-linecap="round" stroke-linejoin="round" stroke-width="3.1122575373685892"/>
  <path d="M 37.40900688584537, 49.149110797057716 Q 39.85758259645959, 49.14341093598492, 42.32063097336065, 49.1301147199405 " fill="none" id="curve_27" stroke="#000000" stroke-linecap="round" stroke-linejoin="round" stroke-width="3.199314184370172"/>
  <path d="M 25.400648962703983, 51.416311752437586 Q 26.917516269334886, 51.15136373496245, 35.247398308535814, 50.887584090674636 " fill="none" id="curve_37" stroke="#000000" stroke-linecap="round" stroke-linejoin="round" stroke-width="2.8388317136910612"/>
  <path d="M 9.413235859696451, 53.967712225748535 Q 9.432403894066988, 54.58940851623584, 9.467862432707483, 55.41744439550221 " fill="none" id="curve_56" stroke="#000000" stroke-linecap="round" stroke-linejoin="round" stroke-width="3.1947852871879854"/>
  <path d="M 22.527406435569787, 50.874826749755094 Q 24.086965703559294, 50.37733262736961, 29.267759823184804, 49.98673846044739 " fill="none" id="curve_59" stroke="#000000" stroke-linecap="round" stroke-linejoin="round" stroke-width="2.5656439261714157"/>
  <path d="M 27.634008425882215, 50.59889343601584 Q 26.811851760996838, 50.00236760715949, 23.64405426685822, 49.560595071930315 " fill="none" id="curve_67" stroke="#000000" stroke-linecap="round" stroke-linejoin="round" stroke-width="2.9907118018164933"/>
  <path d="M 19.627234234991324, 88.68450669945776 Q 19.617247058953833, 88.51161422302533, 19.605118782161753, 88.22895953652188 " fill="none" id="curve_70" stroke="#000000" stroke-linecap="round" stroke-linejoin="round" stroke-width="4.283642518148326"/>
  <path d="M 9.100092013286295, 55.12274879199551 Q 9.100194003952605, 55.15996214839312, 9.100304524496524, 55.22745304132022 " fill="none" id="curve_72" stroke="#000000" stroke-linecap="round" stroke-linejoin="round" stroke-width="3.9960710167068805"/>
  <path d="M 66.01184949723125, 75.9375476855268 Q 65.02262628395988, 75.92816069424858, 62.70573017644147, 75.91843880585654 " fill="none" id="curve_87" stroke="#000000" stroke-linecap="round" stroke-linejoin="round" stroke-width="2.1555643099405786"/>
  <path d="M 31.460750304702003, 96.91245574747794 Q 31.63766035427794, 97.87625644749919, 31.88360903508301, 99.22886860507408 " fill="none" id="curve_88" stroke="#000000" stroke-linecap="round" stroke-linejoin="round" stroke-width="2.9313869345378585"/>
  <path d="M 20.319785382619955, 88.28077190998209 Q 21.37470472514627, 88.62054036185882, 23.299966910499208, 88.99569888392723 " fill="none" id="curve_89" stroke="#000000" stroke-linecap="round" stroke-linejoin="round" stroke-width="2.4646839596415373"/>
  <path d="M 49.01646289424252, 55.228800888555185 Q 49.11042248370959, 54.21047214728873, 49.36830566198788, 52.9748340861643 " fill="none" id="curve_131" stroke="#000000" stroke-linecap="round" stroke-linejoin="round" stroke-width="2.48013716657006"/>
</svg>
