<?xml version="1.0" ?>
<svg height="140" width="140" xmlns="http://www.w3.org/2000/svg">
  <path d="M 35.03881645202637, 35.93742752075195 Q 31.188589397006652, 35.924559547817005, 30.792330290057976, 35.51403024723838 " fill="none" id="curve_1" stroke="#000000" stroke-linecap="round" stroke-linejoin="round" stroke-width="7.655367084122048"/>
  <path d="M 30.792330290057976, 35.51403024723838 Q 31.213880946367077, 33.40174895818962, 34.38134180084449, 32.65576425762727 " fill="none" id="curve_1" stroke="#000000" stroke-linecap="round" stroke-linejoin="round" stroke-width="8.050264131843774"/>
  <path d="M 34.38134180084449, 32.65576425762727 Q 41.75502424637247, 35.36271691030707, 63.51640055300749, 37.20372483691874 " fill="none" id="curve_1" stroke="#000000" stroke-linecap="round" stroke-linejoin="round" stroke-width="7.2925208383887945"/>
  <path d="M 63.51640055300749, 37.20372483691874 Q 49.7302321157898, 40.565004841973526, 36.95660619293805, 68.4730772014566 " fill="none" id="curve_1" stroke="#000000" stroke-linecap="round" stroke-linejoin="round" stroke-width="6.751609792073247"/>
  <path d="M 36.95660619293805, 68.4730772014566 Q 33.118226886802, 85.31290009245969, 22.886918639531462, 105.08801983087258 " fill="none" id="curve_1" stroke="#000000" stroke-linecap="round" stroke-linejoin="round" stroke-width="5.502811952373988"/>
  <path d="M 43.93377869390875, 70.67986142108495 Q 46.44468944395996, 70.83728488190255, 48.510429829190954, 71.15969379227532 " fill="none" id="curve_2" stroke="#000000" stroke-linecap="round" stroke-linejoin="round" stroke-width="7.596748954877333"/>
  <path d="M 48.510429829190954, 71.15969379227532 Q 41.32865015845087, 69.12221288301767, 29.199123612657463, 66.35285296377022 " fill="none" id="curve_2" stroke="#000000" stroke-linecap="round" stroke-linejoin="round" stroke-width="4.061570610880045"/>
  <path d="M 52.59072565454553, 39.153169097868364 Q 47.57406708789315, 47.98336856358777, 40.109069018297575, 56.90788045133361 " fill="none" id="curve_3" stroke="#000000" stroke-linecap="round" stroke-linejoin="round" stroke-width="4.222681929054604"/>
  <path d="M 24.159351090844282, 105.26907351876201 Q 24.69343563633171, 104.54810478187093, 25.02430539990027, 102.2358550267881 " fill="none" id="curve_4" stroke="#000000" stroke-linecap="round" stroke-linejoin="round" stroke-width="6.350728574782706"/>
  <path d="M 25.02430539990027, 102.2358550267881 Q 28.580780141876797, 90.95355058535449, 34.590113205295566, 73.33694146830948 " fill="none" id="curve_4" stroke="#000000" stroke-linecap="round" stroke-linejoin="round" stroke-width="3.088547916105524"/>
  <path d="M 44.30079386192723, 49.374092366907405 Q 49.32381655920234, 48.520261020908706, 50.32945052425492, 38.8872900919047 " fill="none" id="curve_7" stroke="#000000" stroke-linecap="round" stroke-linejoin="round" stroke-width="4.513314160768726"/>
  <path d="M 28.147092441236737, 42.589148966481396 Q 28.3977609983216, 41.06163935181788, 28.786641555855397, 38.82628565548752 " fill="none" id="curve_9" stroke="#000000" stroke-linecap="round" stroke-linejoin="round" stroke-width="2.138365839761582"/>
  <path d="M 34.71085794033024, 28.857375045138017 Q 41.73039690113543, 32.94222738249334, 49.04809214359368, 39.56395349573843 " fill="none" id="curve_12" stroke="#000000" stroke-linecap="round" stroke-linejoin="round" stroke-width="3.9218470818948217"/>
  <path d="M 41.0842424492731, 71.95793983802952 Q 39.67395413729996, 72.17595419850838, 36.39220205367642, 72.43650177605831 " fill="none" id="curve_13" stroke="#000000" stroke-linecap="round" stroke-linejoin="round" stroke-width="3.97996873892034"/>
  <path d="M 21.974735825923126, 106.22594188514233 Q 22.748720254209264, 104.26468071132824, 23.89635184778465, 101.11148785177087 " fill="none" id="curve_14" stroke="#000000" stroke-linecap="round" stroke-linejoin="round" stroke-width="3.5493589415107722"/>
  <path d="M 49.72128786740552, 43.72313861236662 Q 44.10920933645199, 45.21907303275689, 41.609595844387464, 53.25775203261212 " fill="none" id="curve_29" stroke="#000000" stroke-linecap="round" stroke-linejoin="round" stroke-width="2.4780699072624426"/>
  <path d="M 46.59556541136444, 74.1360270762137 Q 46.12203535643743, 73.39134208109179, 45.71919422454191, 71.35734097558819 " fill="none" id="curve_30" stroke="#000000" stroke-linecap="round" stroke-linejoin="round" stroke-width="3.8628137350681464"/>
  <path d="M 41.85406698377091, 38.43190993507767 Q 41.59133744451926, 34.840297191267645, 38.998257009178374, 33.40065371116161 " fill="none" id="curve_31" stroke="#000000" stroke-linecap="round" stroke-linejoin="round" stroke-width="3.679657822407339"/>
  <path d="M 38.998257009178374, 33.40065371116161 Q 41.182612383842134, 32.74748840588907, 43.41062775881683, 31.64552104585464 " fill="none" id="curve_31" stroke="#000000" stroke-linecap="round" stroke-linejoin="round" stroke-width="4.015501909260196"/>
  <path d="M 22.92252432601049, 100.8426573179587 Q 28.39627382452274, 98.82470607917637, 30.82392869081309, 92.10785577623922 " fill="none" id="curve_46" stroke="#000000" stroke-linecap="round" stroke-linejoin="round" stroke-width="3.69287735668207"/>
  <path d="M 49.594448202933954, 69.73614349034666 Q 43.02270679025073, 68.07538482233679, 33.31065906917385, 65.58288007584474 " fill="none" id="curve_49" stroke="#000000" stroke-linecap="round" stroke-linejoin="round" stroke-width="3.551553602049697"/>
  <path d="M 29.15911400915886, 84.75685292706586 Q 30.26828236477308, 82.77236279125907, 31.986095097200682, 78.96935198694648 " fill="none" id="curve_83" stroke="#000000" stroke-linecap="round" stroke-linejoin="round" stroke-width="3.3190507082623233"/>
</svg>
