<?xml version="1.0" ?>
<svg height="140" width="140" xmlns="http://www.w3.org/2000/svg">
  <path d="M 51.784223556518555, 63.39314270019531 Q 56.95723316645859, 60.95126376663905, 60.67887235928845, 51.21628570394165 " fill="none" id="curve_1" stroke="#000000" stroke-linecap="round" stroke-linejoin="round" stroke-width="8.481050064239344"/>
  <path d="M 60.67887235928845, 51.21628570394165 Q 60.54242023347104, 47.62757454759535, 59.759451919808015, 45.971931249734354 " fill="none" id="curve_1" stroke="#000000" stroke-linecap="round" stroke-linejoin="round" stroke-width="5.3419839658957144"/>
  <path d="M 59.759451919808015, 45.971931249734354 Q 48.63830593078474, 46.87501567719341, 32.05002516187396, 50.818658087888124 " fill="none" id="curve_1" stroke="#000000" stroke-linecap="round" stroke-linejoin="round" stroke-width="4.928540618662104"/>
  <path d="M 32.05002516187396, 50.818658087888124 Q 28.914597465891077, 53.5381134656851, 20.833947205048908, 54.81484821184533 " fill="none" id="curve_1" stroke="#000000" stroke-linecap="round" stroke-linejoin="round" stroke-width="5.012884917066394"/>
  <path d="M 37.91024005933287, 75.80553564115904 Q 52.00169745261316, 74.82766122891228, 55.19358920486521, 61.55490791152986 " fill="none" id="curve_2" stroke="#000000" stroke-linecap="round" stroke-linejoin="round" stroke-width="4.608528089811841"/>
  <path d="M 64.45813580923087, 73.79831398354968 Q 43.900868230797236, 73.94317126947693, 41.9323166269168, 83.59295968908954 " fill="none" id="curve_3" stroke="#000000" stroke-linecap="round" stroke-linejoin="round" stroke-width="4.857171544423504"/>
  <path d="M 41.9323166269168, 83.59295968908954 Q 36.66418815194949, 88.63211202334, 33.01053694721456, 99.43549538998002 " fill="none" id="curve_3" stroke="#000000" stroke-linecap="round" stroke-linejoin="round" stroke-width="3.447372217405837"/>
  <path d="M 54.11890058116208, 72.1465480623793 Q 54.79701965773712, 62.61826545123402, 59.13752208698667, 57.3472948406856 " fill="none" id="curve_4" stroke="#000000" stroke-linecap="round" stroke-linejoin="round" stroke-width="3.6026051851812326"/>
  <path d="M 67.2409171691699, 74.77855293611543 Q 66.20082854297245, 74.80779555895252, 64.75510158172933, 74.84513814855504 " fill="none" id="curve_5" stroke="#000000" stroke-linecap="round" stroke-linejoin="round" stroke-width="3.5341030486169496"/>
  <path d="M 55.11264286642407, 64.41411414684413 Q 55.32787085391506, 60.706460063985986, 56.11039523501353, 59.00574931595017 " fill="none" id="curve_6" stroke="#000000" stroke-linecap="round" stroke-linejoin="round" stroke-width="6.855909971539389"/>
  <path d="M 41.29814144741577, 78.4060338296248 Q 44.40330576892064, 78.77825594241082, 46.694977844703125, 80.31784613819023 " fill="none" id="curve_7" stroke="#000000" stroke-linecap="round" stroke-linejoin="round" stroke-width="4.094343564071069"/>
  <path d="M 1.2173795150171625, 137.44752864651832 Q 1.1262812850081942, 134.06806166197427, 1.044799145977882, 122.711890085828 " fill="none" id="curve_9" stroke="#000000" stroke-linecap="round" stroke-linejoin="round" stroke-width="1.8200658213260563"/>
  <path d="M 1.044799145977882, 122.711890085828 Q 1.044588563565283, 117.51457799501901, 1.044318118240874, 107.01597356435946 " fill="none" id="curve_9" stroke="#000000" stroke-linecap="round" stroke-linejoin="round" stroke-width="1.9682114927076626"/>
  <path d="M 1.044318118240874, 107.01597356435946 Q 1.0546318706182825, 102.61164399135076, 1.0655121573678559, 91.02571919324592 " fill="none" id="curve_9" stroke="#000000" stroke-linecap="round" stroke-linejoin="round" stroke-width="1.8112740230272095"/>
  <path d="M 1.0655121573678559, 91.02571919324592 Q 1.0590746583255446, 86.9134567973171, 1.052529135462305, 75.45745088889133 " fill="none" id="curve_9" stroke="#000000" stroke-linecap="round" stroke-linejoin="round" stroke-width="1.7373397423896915"/>
  <path d="M 1.052529135462305, 75.45745088889133 Q 1.0576497410687868, 71.4914198898959, 1.0624511616219978, 59.45175505891848 " fill="none" id="curve_9" stroke="#000000" stroke-linecap="round" stroke-linejoin="round" stroke-width="1.7691713873662556"/>
  <path d="M 1.0624511616219978, 59.45175505891848 Q 1.1019547876269171, 54.885923717528726, 1.1630182759284384, 48.014893279142136 " fill="none" id="curve_9" stroke="#000000" stroke-linecap="round" stroke-linejoin="round" stroke-width="1.6684175443388025"/>
  <path d="M 0.9096523146100022, 35.957346344055495 Q 0.9552169926232984, 42.939827095460316, 1.140826386893294, 46.08220839535275 " fill="none" id="curve_10" stroke="#000000" stroke-linecap="round" stroke-linejoin="round" stroke-width="1.8315027504474894"/>
  <path d="M 0.6384868402198691, 34.789130067919174 Q 0.866128585940498, 32.92232423083958, 1.017706384686338, 26.213289812081214 " fill="none" id="curve_12" stroke="#000000" stroke-linecap="round" stroke-linejoin="round" stroke-width="1.219098209531167"/>
  <path d="M 1.017706384686338, 26.213289812081214 Q 0.9935572254701099, 24.432162403514823, 0.9769930127297822, 17.94447056545048 " fill="none" id="curve_12" stroke="#000000" stroke-linecap="round" stroke-linejoin="round" stroke-width="1.2701555764186494"/>
  <path d="M 0.9769930127297822, 17.94447056545048 Q 0.8908354771343359, 14.761366721315106, 0.8118972858494723, 1.0063860905820903 " fill="none" id="curve_12" stroke="#000000" stroke-linecap="round" stroke-linejoin="round" stroke-width="1.2151488138004092"/>
  <path d="M 62.067847182915685, 51.804754420461165 Q 59.128248053366676, 56.59630039042578, 56.85829491257748, 64.47101363769325 " fill="none" id="curve_17" stroke="#000000" stroke-linecap="round" stroke-linejoin="round" stroke-width="3.1280556056295237"/>
  <path d="M 63.19329194519031, 47.501338815094066 Q 61.88578748555302, 46.703666228480806, 59.81908444868978, 45.75925670594174 " fill="none" id="curve_18" stroke="#000000" stroke-linecap="round" stroke-linejoin="round" stroke-width="3.6402906680607066"/>
  <path d="M 38.07332713661693, 76.30075955399687 Q 34.52480550247399, 76.73665970448705, 32.392897747435036, 78.10555925785415 " fill="none" id="curve_19" stroke="#000000" stroke-linecap="round" stroke-linejoin="round" stroke-width="2.669351721943257"/>
  <path d="M 34.50282515497288, 99.66657080785575 Q 34.43489626562865, 99.52683477666228, 34.18431941541914, 99.30470984275405 " fill="none" id="curve_20" stroke="#000000" stroke-linecap="round" stroke-linejoin="round" stroke-width="2.336496284758976"/>
  <path d="M 53.855386569091, 46.4751835328562 Q 55.05036431226579, 45.46858225207951, 56.85328887370278, 44.41870000920618 " fill="none" id="curve_24" stroke="#000000" stroke-linecap="round" stroke-linejoin="round" stroke-width="3.176696918884262"/>
  <path d="M 56.85328887370278, 44.41870000920618 Q 51.426227550104414, 45.90526275643931, 42.66293048782415, 47.866375470980046 " fill="none" id="curve_24" stroke="#000000" stroke-linecap="round" stroke-linejoin="round" stroke-width="2.4918207302282864"/>
  <path d="M 42.66293048782415, 47.866375470980046 Q 43.076442509293734, 47.385331589532065, 44.82436646310784, 46.96443527544947 " fill="none" id="curve_24" stroke="#000000" stroke-linecap="round" stroke-linejoin="round" stroke-width="2.5246740142680344"/>
  <path d="M 51.73045624228234, 72.81349904010312 Q 56.74785484540604, 73.70445564775929, 61.788615871866554, 75.40378934979897 " fill="none" id="curve_65" stroke="#000000" stroke-linecap="round" stroke-linejoin="round" stroke-width="2.0521799772064067"/>
  <path d="M 29.781451622909067, 51.86817281994362 Q 25.004421107687207, 52.41107835464134, 21.913648641128553, 54.02289288277928 " fill="none" id="curve_70" stroke="#000000" stroke-linecap="round" stroke-linejoin="round" stroke-width="2.600457042102365"/>
  <path d="M 41.55404927872332, 49.35391669721924 Q 42.50974355322583, 48.689305322772405, 46.064780526588684, 47.952408658028766 " fill="none" id="curve_74" stroke="#000000" stroke-linecap="round" stroke-linejoin="round" stroke-width="2.887722827813035"/>
  <path d="M 47.5663966479499, 73.97834499200455 Q 43.67670129340836, 73.89800749580745, 38.660918870535866, 73.70930821908205 " fill="none" id="curve_77" stroke="#000000" stroke-linecap="round" stroke-linejoin="round" stroke-width="2.8961531653196624"/>
  <path d="M 39.68960288724815, 49.2899796353238 Q 42.60276728676795, 48.60192098838365, 51.10955698625345, 47.38440698375788 " fill="none" id="curve_79" stroke="#000000" stroke-linecap="round" stroke-linejoin="round" stroke-width="2.3455403672280197"/>
  <path d="M 57.3004017092935, 57.62158490262492 Q 58.49428991139662, 58.03139527041555, 60.11059712214152, 58.52858972728705 " fill="none" id="curve_110" stroke="#000000" stroke-linecap="round" stroke-linejoin="round" stroke-width="3.2635628044635876"/>
  <path d="M 33.83840300402266, 100.6626158768698 Q 33.47577462918605, 97.57420845151896, 32.82363192904176, 94.2411938100389 " fill="none" id="curve_112" stroke="#000000" stroke-linecap="round" stroke-linejoin="round" stroke-width="1.9555026698167985"/>
  <path d="M 45.39320338922357, 79.49397343422777 Q 45.173293712953544, 82.36052027520357, 41.42498792272232, 82.76142434910855 " fill="none" id="curve_140" stroke="#000000" stroke-linecap="round" stroke-linejoin="round" stroke-width="2.9195204268771486"/>
  <path d="M 36.932722886059935, 90.97382029305646 Q 38.51125727360212, 90.29429880720522, 39.501207124089234, 88.90105722960364 " fill="none" id="curve_141" stroke="#000000" stroke-linecap="round" stroke-linejoin="round" stroke-width="2.8279379819473847"/>
  <path d="M 40.78794002532959, 81.46146392822266 Q 44.05569268427031, 80.17276135743359, 48.978107916433714, 77.96248305334422 " fill="none" id="curve_168" stroke="#000000" stroke-linecap="round" stroke-linejoin="round" stroke-width="3.437185625007219"/>
  <path d="M 53.93968004305823, 57.02085846305819 Q 54.7862306479528, 56.05894906249591, 58.41386577661441, 55.510441926618434 " fill="none" id="curve_170" stroke="#000000" stroke-linecap="round" stroke-linejoin="round" stroke-width="2.2916492100138286"/>
  <path d="M 42.09917381579633, 48.93841907760371 Q 43.006994700449354, 48.418315316584355, 48.478623755621584, 47.91162053826969 " fill="none" id="curve_175" stroke="#000000" stroke-linecap="round" stroke-linejoin="round" stroke-width="2.367763862158322"/>
</svg>
