<?xml version="1.0" ?>
<svg height="140" width="140" xmlns="http://www.w3.org/2000/svg">
  <path d="M 28.188716888427734, 108.35892295837402 Q 22.792897383917904, 109.53307541220246, 19.75462956082697, 117.27678322287647 " fill="none" id="curve_1" stroke="#000000" stroke-linecap="round" stroke-linejoin="round" stroke-width="5.290809318276399"/>
  <path d="M 19.75462956082697, 117.27678322287647 Q 23.891630810755085, 115.18930404199305, 26.157497479553303, 106.12646270190412 " fill="none" id="curve_1" stroke="#000000" stroke-linecap="round" stroke-linejoin="round" stroke-width="3.5726337141746205"/>
  <path d="M 26.157497479553303, 106.12646270190412 Q 31.203112851897263, 101.20325230714167, 39.349116684264345, 84.68990056387489 " fill="none" id="curve_1" stroke="#000000" stroke-linecap="round" stroke-linejoin="round" stroke-width="5.174755135791537"/>
  <path d="M 39.349116684264345, 84.68990056387489 Q 42.61730659646477, 78.71953932019375, 49.52279071257742, 70.15364142608935 " fill="none" id="curve_1" stroke="#000000" stroke-linecap="round" stroke-linejoin="round" stroke-width="4.372592940374443"/>
  <path d="M 49.52279071257742, 70.15364142608935 Q 55.136458206212154, 61.11845484140833, 68.64501419668728, 42.348509958143836 " fill="none" id="curve_1" stroke="#000000" stroke-linecap="round" stroke-linejoin="round" stroke-width="5.697938468334076"/>
  <path d="M 68.64501419668728, 42.348509958143836 Q 64.73771257800014, 42.843660257275154, 37.21057854316453, 43.0613886844385 " fill="none" id="curve_1" stroke="#000000" stroke-linecap="round" stroke-linejoin="round" stroke-width="5.194945596505277"/>
  <path d="M 37.21057854316453, 43.0613886844385 Q 31.471239170017686, 41.01588327659171, 22.540606905639955, 38.862621578518045 " fill="none" id="curve_1" stroke="#000000" stroke-linecap="round" stroke-linejoin="round" stroke-width="5.611571529185923"/>
  <path d="M 58.09442691348163, 77.94289265117466 Q 46.83457603627713, 78.65827632093597, 40.134768888086285, 81.27024858540102 " fill="none" id="curve_3" stroke="#000000" stroke-linecap="round" stroke-linejoin="round" stroke-width="5.958692325928549"/>
  <path d="M 40.134768888086285, 81.27024858540102 Q 37.09540081835884, 80.21503288277505, 24.394923045282646, 79.80826994830485 " fill="none" id="curve_3" stroke="#000000" stroke-linecap="round" stroke-linejoin="round" stroke-width="5.097902699937732"/>
  <path d="M 24.394923045282646, 79.80826994830485 Q 24.501244477188386, 81.22181727717658, 24.785661055755888, 81.85056934101635 " fill="none" id="curve_3" stroke="#000000" stroke-linecap="round" stroke-linejoin="round" stroke-width="4.66686871907193"/>
  <path d="M 60.8054296820797, 49.847514575835255 Q 65.02283678832751, 45.67192904504092, 73.06015156667718, 41.68381757741402 " fill="none" id="curve_4" stroke="#000000" stroke-linecap="round" stroke-linejoin="round" stroke-width="3.562232315298791"/>
  <path d="M 59.73538951753503, 56.10697768000773 Q 62.19186845365848, 49.63689006259627, 68.33664426360876, 45.29529972976957 " fill="none" id="curve_5" stroke="#000000" stroke-linecap="round" stroke-linejoin="round" stroke-width="4.046981488041011"/>
  <path d="M 68.33664426360876, 45.29529972976957 Q 62.13829477643755, 51.56465729304408, 49.63305854237092, 65.92954343108475 " fill="none" id="curve_5" stroke="#000000" stroke-linecap="round" stroke-linejoin="round" stroke-width="2.805440562549624"/>
  <path d="M 42.738073888597334, 41.26196597767221 Q 40.18977234122448, 40.86225887634353, 35.37814406085786, 40.35343662183449 " fill="none" id="curve_6" stroke="#000000" stroke-linecap="round" stroke-linejoin="round" stroke-width="2.8664292059625107"/>
  <path d="M 61.90907696871018, 48.66383491994511 Q 61.827416965049856, 51.81057588941953, 61.470621405418484, 52.99083093861623 " fill="none" id="curve_7" stroke="#000000" stroke-linecap="round" stroke-linejoin="round" stroke-width="6.478614593848048"/>
  <path d="M 28.813934929778473, 106.90184741173171 Q 30.712843674626992, 97.78915850434213, 36.71456848811611, 90.18516443973857 " fill="none" id="curve_9" stroke="#000000" stroke-linecap="round" stroke-linejoin="round" stroke-width="2.4435235201385233"/>
  <path d="M 48.04097294318328, 69.39508459070906 Q 48.27115031696759, 69.26735734476605, 48.58130267579159, 69.00837798352086 " fill="none" id="curve_10" stroke="#000000" stroke-linecap="round" stroke-linejoin="round" stroke-width="3.051895630601017"/>
  <path d="M 62.261302693527256, 49.256488707974725 Q 62.1162844164305, 48.642761407538934, 61.95358300384187, 47.39191300097533 " fill="none" id="curve_11" stroke="#000000" stroke-linecap="round" stroke-linejoin="round" stroke-width="6.629828435831726"/>
  <path d="M 49.387358344216125, 76.82970183696716 Q 46.84205380948624, 75.8798305663388, 45.59683486817312, 71.65092459330424 " fill="none" id="curve_26" stroke="#000000" stroke-linecap="round" stroke-linejoin="round" stroke-width="2.7013446857788317"/>
  <path d="M 60.80762246693955, 52.647869682662154 Q 64.09915264012693, 51.54198287584099, 66.81969617840622, 49.5483569475281 " fill="none" id="curve_27" stroke="#000000" stroke-linecap="round" stroke-linejoin="round" stroke-width="3.2026511689063013"/>
  <path d="M 36.29668869202323, 89.72692926623336 Q 39.348660147022535, 86.55459469437183, 42.775416774718096, 81.54617906030208 " fill="none" id="curve_42" stroke="#000000" stroke-linecap="round" stroke-linejoin="round" stroke-width="3.2110077367489547"/>
  <path d="M 31.458543188690367, 97.39225491248843 Q 31.686276828702933, 98.23156368553073, 32.11390804316344, 99.26773408915051 " fill="none" id="curve_43" stroke="#000000" stroke-linecap="round" stroke-linejoin="round" stroke-width="3.731300590626396"/>
  <path d="M 32.11390804316344, 99.26773408915051 Q 32.091929638032106, 98.39569182095342, 32.054496775243514, 96.93535182870629 " fill="none" id="curve_43" stroke="#000000" stroke-linecap="round" stroke-linejoin="round" stroke-width="3.615272066907892"/>
  <path d="M 22.334272009129553, 37.34884843134423 Q 22.05956590640247, 37.54187177746464, 21.610678167464332, 37.7919732316466 " fill="none" id="curve_45" stroke="#000000" stroke-linecap="round" stroke-linejoin="round" stroke-width="2.911481052793918"/>
</svg>
