<?xml version="1.0" ?>
<svg height="140" width="140" xmlns="http://www.w3.org/2000/svg">
  <path d="M 75.82330322265625, 69.5339035987854 Q 72.14215180654739, 69.81135369839285, 61.154218502798926, 70.1899208931977 " fill="none" id="curve_1" stroke="#000000" stroke-linecap="round" stroke-linejoin="round" stroke-width="5.388563661343605"/>
  <path d="M 61.154218502798926, 70.1899208931977 Q 55.52408903508063, 70.61252970779518, 48.95650261170826, 71.1837376577431 " fill="none" id="curve_1" stroke="#000000" stroke-linecap="round" stroke-linejoin="round" stroke-width="8.422788623127209"/>
  <path d="M 48.95650261170826, 71.1837376577431 Q 47.16620274328786, 77.69660280012482, 42.03043149387146, 85.56590572746138 " fill="none" id="curve_1" stroke="#000000" stroke-linecap="round" stroke-linejoin="round" stroke-width="4.809712828295481"/>
  <path d="M 42.03043149387146, 85.56590572746138 Q 38.324806975272026, 96.30472198069235, 32.8886476783211, 109.96105891626094 " fill="none" id="curve_1" stroke="#000000" stroke-linecap="round" stroke-linejoin="round" stroke-width="4.496113473073635"/>
  <path d="M 30.93172011687042, 75.89280168578196 Q 35.744789552689795, 73.7491385360471, 49.24437857773441, 72.39773139464819 " fill="none" id="curve_2" stroke="#000000" stroke-linecap="round" stroke-linejoin="round" stroke-width="4.5941373091747195"/>
  <path d="M 49.24437857773441, 72.39773139464819 Q 53.57960643054631, 64.21498709920178, 64.18542710151101, 41.23889125931414 " fill="none" id="curve_2" stroke="#000000" stroke-linecap="round" stroke-linejoin="round" stroke-width="5.112936641835732"/>
  <path d="M 64.18542710151101, 41.23889125931414 Q 63.993890983214776, 36.11920534200243, 60.78058737934387, 35.49730438469166 " fill="none" id="curve_2" stroke="#000000" stroke-linecap="round" stroke-linejoin="round" stroke-width="4.832856467418903"/>
  <path d="M 60.78058737934387, 35.49730438469166 Q 49.216064840246226, 36.364354809227265, 33.86506640430176, 38.86409157857719 " fill="none" id="curve_2" stroke="#000000" stroke-linecap="round" stroke-linejoin="round" stroke-width="6.075659338400645"/>
  <path d="M 33.86506640430176, 38.86409157857719 Q 28.69194372887784, 37.92447283417706, 23.717766536747142, 36.486199523484515 " fill="none" id="curve_2" stroke="#000000" stroke-linecap="round" stroke-linejoin="round" stroke-width="5.223206927988936"/>
  <path d="M 76.82188068083863, 69.5562261376588 Q 76.16157738502463, 69.51993198110519, 75.47658109932914, 69.44133798548306 " fill="none" id="curve_4" stroke="#000000" stroke-linecap="round" stroke-linejoin="round" stroke-width="3.8559545263190094"/>
  <path d="M 62.066545667549846, 42.708086924866436 Q 58.26211928336275, 51.72890968071255, 49.1335067735936, 68.64058327709587 " fill="none" id="curve_5" stroke="#000000" stroke-linecap="round" stroke-linejoin="round" stroke-width="2.579806908253568"/>
  <path d="M 49.71231376577099, 34.17374230743558 Q 50.46374014639938, 34.840898063866526, 54.571428306998456, 35.37045585979708 " fill="none" id="curve_6" stroke="#000000" stroke-linecap="round" stroke-linejoin="round" stroke-width="2.8836834340342836"/>
  <path d="M 89.2845570010683, 2.0274694621779332 Q 89.54978577834864, 1.954034278052988, 89.85892861497621, 1.7550593467733555 " fill="none" id="curve_7" stroke="#000000" stroke-linecap="round" stroke-linejoin="round" stroke-width="2.0780446085351856"/>
  <path d="M 62.11621133596404, 41.676408017891646 Q 61.865661501364855, 46.14159543665636, 59.70613029186756, 47.0306563324165 " fill="none" id="curve_8" stroke="#000000" stroke-linecap="round" stroke-linejoin="round" stroke-width="4.938501563852561"/>
  <path d="M 45.25647050105243, 86.0824903560009 Q 37.051231331013796, 91.58026706476207, 32.17447595167651, 109.89295158966509 " fill="none" id="curve_10" stroke="#000000" stroke-linecap="round" stroke-linejoin="round" stroke-width="2.8459496668434605"/>
  <path d="M 31.847439613697635, 75.33341862027589 Q 33.70441432721237, 74.54194554612258, 42.5405581050381, 74.20965165935738 " fill="none" id="curve_11" stroke="#000000" stroke-linecap="round" stroke-linejoin="round" stroke-width="3.404191982165671"/>
  <path d="M 40.4051314958352, 38.61276339834562 Q 37.65915438221923, 37.481848620122925, 23.25614367700059, 36.69059614097198 " fill="none" id="curve_14" stroke="#000000" stroke-linecap="round" stroke-linejoin="round" stroke-width="2.580056125654949"/>
  <path d="M 34.067506733385834, 110.37930714186696 Q 33.70088929834546, 109.88708627339926, 33.15693253491729, 109.18746958579689 " fill="none" id="curve_19" stroke="#000000" stroke-linecap="round" stroke-linejoin="round" stroke-width="3.875270867422078"/>
  <path d="M 32.176428876498925, 75.54054301157998 Q 33.42160791383229, 74.94053960124897, 35.648712071196805, 74.266094207123 " fill="none" id="curve_20" stroke="#000000" stroke-linecap="round" stroke-linejoin="round" stroke-width="4.103514879433915"/>
  <path d="M 22.50347994236779, 36.74969676468474 Q 22.49068807068158, 35.81163544049717, 22.448499362077413, 35.009005171665656 " fill="none" id="curve_21" stroke="#000000" stroke-linecap="round" stroke-linejoin="round" stroke-width="2.8361375932962765"/>
  <path d="M 64.46446281151657, 44.79632240762112 Q 64.24982075468925, 45.62003584015421, 62.759416511074136, 46.008307125993 " fill="none" id="curve_62" stroke="#000000" stroke-linecap="round" stroke-linejoin="round" stroke-width="2.8174800497722217"/>
  <path d="M 67.18939059401274, 71.94336959418425 Q 68.1915627504353, 71.37857481324991, 69.68899142690589, 70.62177157109527 " fill="none" id="curve_67" stroke="#000000" stroke-linecap="round" stroke-linejoin="round" stroke-width="3.2020148481372"/>
  <path d="M 41.007674733072676, 38.355339018248934 Q 42.613072576611955, 36.32609780732678, 56.245796753684566, 35.36969054690606 " fill="none" id="curve_89" stroke="#000000" stroke-linecap="round" stroke-linejoin="round" stroke-width="2.8114984210795844"/>
  <path d="M 49.35338230812451, 36.97508826424221 Q 46.9388908919417, 36.943961276988496, 34.853545569297495, 36.90276191598028 " fill="none" id="curve_94" stroke="#000000" stroke-linecap="round" stroke-linejoin="round" stroke-width="2.7342264212850518"/>
  <path d="M 40.27793905165562, 37.83873178093892 Q 42.73201582248013, 35.999196147305135, 67.38979492445009, 35.46727637420061 " fill="none" id="curve_104" stroke="#000000" stroke-linecap="round" stroke-linejoin="round" stroke-width="2.173491938887422"/>
  <path d="M 34.414684050093804, 74.55387577390357 Q 33.43235174892183, 74.81597129022468, 31.545384859667042, 75.33111057491688 " fill="none" id="curve_113" stroke="#000000" stroke-linecap="round" stroke-linejoin="round" stroke-width="2.9631922222586087"/>
</svg>
