<?xml version="1.0" ?>
<svg height="140" width="140" xmlns="http://www.w3.org/2000/svg">
  <path d="M 64.58770370483398, 75.67444229125977 Q 66.33780293888732, 74.37060592333553, 67.26640073981307, 69.6814277283874 " fill="none" id="curve_1" stroke="#000000" stroke-linecap="round" stroke-linejoin="round" stroke-width="6.940165695697712"/>
  <path d="M 67.26640073981307, 69.6814277283874 Q 67.06121977193315, 55.049457185047316, 61.949094221565325, 50.67515026191526 " fill="none" id="curve_1" stroke="#000000" stroke-linecap="round" stroke-linejoin="round" stroke-width="4.994774725697927"/>
  <path d="M 61.949094221565325, 50.67515026191526 Q 58.32401564810736, 47.82526549130011, 50.60315835694408, 44.2896912776254 " fill="none" id="curve_1" stroke="#000000" stroke-linecap="round" stroke-linejoin="round" stroke-width="4.979885783764129"/>
  <path d="M 50.60315835694408, 44.2896912776254 Q 30.171836240205664, 44.305113749360366, 29.035284197718678, 45.240765963906064 " fill="none" id="curve_1" stroke="#000000" stroke-linecap="round" stroke-linejoin="round" stroke-width="3.765804127397531"/>
  <path d="M 29.035284197718678, 45.240765963906064 Q 27.96015552856516, 46.32997921793362, 26.749940932475454, 47.621773017217144 " fill="none" id="curve_1" stroke="#000000" stroke-linecap="round" stroke-linejoin="round" stroke-width="3.9832652324045834"/>
  <path d="M 27.660047750561272, 83.40086203240591 Q 38.75233445795251, 81.98011789398183, 59.03518517002982, 78.04635325105205 " fill="none" id="curve_2" stroke="#000000" stroke-linecap="round" stroke-linejoin="round" stroke-width="5.021492005025515"/>
  <path d="M 59.03518517002982, 78.04635325105205 Q 61.801864499346415, 77.49718424573646, 74.67817727161761, 77.19400969264633 " fill="none" id="curve_2" stroke="#000000" stroke-linecap="round" stroke-linejoin="round" stroke-width="4.030694205939639"/>
  <path d="M 74.67817727161761, 77.19400969264633 Q 62.62309990736836, 77.7216859680855, 59.890388368725496, 87.68347802410835 " fill="none" id="curve_2" stroke="#000000" stroke-linecap="round" stroke-linejoin="round" stroke-width="4.522697246630342"/>
  <path d="M 59.890388368725496, 87.68347802410835 Q 54.90856620764775, 96.03031454408384, 40.19989895888152, 114.70329103853905 " fill="none" id="curve_2" stroke="#000000" stroke-linecap="round" stroke-linejoin="round" stroke-width="3.9923627017634655"/>
  <path d="M 40.19989895888152, 114.70329103853905 Q 40.423635399796304, 115.73618507085095, 41.11074294483636, 116.28959402128531 " fill="none" id="curve_2" stroke="#000000" stroke-linecap="round" stroke-linejoin="round" stroke-width="2.6576820847977336"/>
  <path d="M 27.8358310623545, 81.65122447160685 Q 31.916064441851702, 80.55173005053909, 48.36659359396198, 79.93934478827092 " fill="none" id="curve_3" stroke="#000000" stroke-linecap="round" stroke-linejoin="round" stroke-width="2.6228516902337193"/>
  <path d="M 62.96854188403657, 55.894205445594636 Q 60.781119635360106, 51.57833055588398, 55.018329626409006, 46.3759896980075 " fill="none" id="curve_4" stroke="#000000" stroke-linecap="round" stroke-linejoin="round" stroke-width="1.7403580666677556"/>
  <path d="M 55.018329626409006, 46.3759896980075 Q 49.416437619865306, 44.73248562821997, 41.16332762447221, 42.28336131430606 " fill="none" id="curve_4" stroke="#000000" stroke-linecap="round" stroke-linejoin="round" stroke-width="3.0625941584046252"/>
  <path d="M 41.16332762447221, 42.28336131430606 Q 37.89978473149771, 42.27556918212864, 35.916180777470835, 42.243839987591606 " fill="none" id="curve_4" stroke="#000000" stroke-linecap="round" stroke-linejoin="round" stroke-width="2.412257717115237"/>
  <path d="M 61.11625952003013, 78.53553393681733 Q 59.989597417810245, 86.56021001149684, 51.95251359558344, 95.27448778423833 " fill="none" id="curve_6" stroke="#000000" stroke-linecap="round" stroke-linejoin="round" stroke-width="2.424264740953883"/>
  <path d="M 51.95251359558344, 95.27448778423833 Q 50.336802770624736, 101.17182595810385, 43.265224154627596, 107.63937200923883 " fill="none" id="curve_6" stroke="#000000" stroke-linecap="round" stroke-linejoin="round" stroke-width="2.1940740513864823"/>
  <path d="M 76.9830810663072, 77.53161698469734 Q 75.95673041313187, 77.0751089441987, 71.63996840872113, 76.75101421829002 " fill="none" id="curve_9" stroke="#000000" stroke-linecap="round" stroke-linejoin="round" stroke-width="1.7490320228490646"/>
  <path d="M 37.27968411241345, 44.00625848649733 Q 36.03099861001724, 43.71846931346647, 31.80895894611817, 43.47158078486563 " fill="none" id="curve_12" stroke="#000000" stroke-linecap="round" stroke-linejoin="round" stroke-width="2.844074757801879"/>
  <path d="M 59.798709869384766, 85.77273416519165 Q 61.71068415148201, 85.53988397408499, 62.851068726947574, 84.43438615460194 " fill="none" id="curve_78" stroke="#000000" stroke-linecap="round" stroke-linejoin="round" stroke-width="2.9108262150651374"/>
  <path d="M 39.103216663669045, 81.63848164009802 Q 40.44194859866833, 81.33711958557625, 44.195305899509975, 80.81911531113005 " fill="none" id="curve_98" stroke="#000000" stroke-linecap="round" stroke-linejoin="round" stroke-width="2.8234492935813136"/>
  <path d="M 46.78074695441401, 81.7146426468029 Q 44.094433922731575, 81.27997293162403, 38.2330966268467, 80.56172508880711 " fill="none" id="curve_118" stroke="#000000" stroke-linecap="round" stroke-linejoin="round" stroke-width="2.2866790947614017"/>
</svg>
