<?xml version="1.0" ?>
<svg height="140" width="140" xmlns="http://www.w3.org/2000/svg">
  <path d="M 60.327797482253914, 76.49351331354626 Q 46.906269429496405, 76.43251200313176, 45.91925258182736, 74.16636094179789 " fill="none" id="curve_2" stroke="#000000" stroke-linecap="round" stroke-linejoin="round" stroke-width="5.127678700960977"/>
  <path d="M 45.91925258182736, 74.16636094179789 Q 49.095535499072085, 68.63296947615008, 53.8185638873801, 54.49224695458084 " fill="none" id="curve_2" stroke="#000000" stroke-linecap="round" stroke-linejoin="round" stroke-width="5.084448805024995"/>
  <path d="M 53.8185638873801, 54.49224695458084 Q 55.95779948244947, 51.24531869496957, 59.92432080629132, 48.91292460569095 " fill="none" id="curve_2" stroke="#000000" stroke-linecap="round" stroke-linejoin="round" stroke-width="5.7228019313478775"/>
  <path d="M 59.92432080629132, 48.91292460569095 Q 52.56428080618727, 52.119362894695854, 34.6569455107074, 56.14023106877432 " fill="none" id="curve_2" stroke="#000000" stroke-linecap="round" stroke-linejoin="round" stroke-width="4.273020278162987"/>
  <path d="M 41.85281584852313, 75.03366974883168 Q 45.8574606783375, 75.20731069280778, 45.96068269525484, 90.3497428016313 " fill="none" id="curve_3" stroke="#000000" stroke-linecap="round" stroke-linejoin="round" stroke-width="3.9662707847703764"/>
  <path d="M 45.96068269525484, 90.3497428016313 Q 44.86242499411017, 92.69798949255853, 44.53503389512402, 101.7313947658855 " fill="none" id="curve_3" stroke="#000000" stroke-linecap="round" stroke-linejoin="round" stroke-width="4.679213524889323"/>
  <path d="M 37.87662032277129, 76.13530457345692 Q 38.162905363320995, 74.36030829504895, 41.85043262466327, 74.04410716346443 " fill="none" id="curve_4" stroke="#000000" stroke-linecap="round" stroke-linejoin="round" stroke-width="3.758838773912674"/>
  <path d="M 33.059931580294176, 55.69723865224525 Q 33.35435466910586, 55.384351702293735, 33.64342741657002, 54.90913708533925 " fill="none" id="curve_5" stroke="#000000" stroke-linecap="round" stroke-linejoin="round" stroke-width="5.396126416811028"/>
  <path d="M 47.746765723165936, 78.14471455086834 Q 47.08829395151005, 81.40607632689441, 45.760356746346396, 84.28586445791285 " fill="none" id="curve_6" stroke="#000000" stroke-linecap="round" stroke-linejoin="round" stroke-width="2.5375841888384816"/>
  <path d="M 44.59524268179488, 98.47800737014651 Q 44.924540486503616, 93.18173533266523, 45.52981301882248, 87.43216630146412 " fill="none" id="curve_7" stroke="#000000" stroke-linecap="round" stroke-linejoin="round" stroke-width="2.493427772917131"/>
  <path d="M 58.85563751957981, 48.683192334261484 Q 59.03359906630383, 48.188283624226656, 59.281932504452804, 47.27051489915469 " fill="none" id="curve_8" stroke="#000000" stroke-linecap="round" stroke-linejoin="round" stroke-width="3.0109941879643607"/>
  <path d="M 44.74641816071744, 95.74511897639172 Q 44.10390677686906, 96.0257403522448, 43.62705477168396, 96.61679191351408 " fill="none" id="curve_36" stroke="#000000" stroke-linecap="round" stroke-linejoin="round" stroke-width="4.783941994034644"/>
  <path d="M 44.2208662894445, 72.77219643499092 Q 45.917095419242685, 74.31121142802132, 51.52772264716159, 75.17409513120455 " fill="none" id="curve_37" stroke="#000000" stroke-linecap="round" stroke-linejoin="round" stroke-width="2.4571698777096467"/>
  <path d="M 48.528160814352496, 65.50188889203922 Q 49.20392576608054, 64.28713362174169, 50.450589926730295, 62.66842936953893 " fill="none" id="curve_38" stroke="#000000" stroke-linecap="round" stroke-linejoin="round" stroke-width="2.5651748828496244"/>
</svg>
