<?xml version="1.0" ?>
<svg height="140" width="140" xmlns="http://www.w3.org/2000/svg">
  <path d="M 25.64737892150879, 98.56973612308502 Q 26.613352740068738, 96.63799915886776, 27.61129810037971, 91.30620567344113 " fill="none" id="curve_1" stroke="#000000" stroke-linecap="round" stroke-linejoin="round" stroke-width="6.352978347274941"/>
  <path d="M 27.61129810037971, 91.30620567344113 Q 29.766672060636655, 83.55582402618893, 34.447429110500806, 73.58514465182927 " fill="none" id="curve_1" stroke="#000000" stroke-linecap="round" stroke-linejoin="round" stroke-width="7.430794818038379"/>
  <path d="M 34.447429110500806, 73.58514465182927 Q 37.11087403350456, 65.51433292560557, 42.645844930015954, 48.627921409054565 " fill="none" id="curve_1" stroke="#000000" stroke-linecap="round" stroke-linejoin="round" stroke-width="5.447363742100144"/>
  <path d="M 42.645844930015954, 48.627921409054565 Q 43.71285814700913, 46.74249932265324, 44.30137803292125, 41.58818416188116 " fill="none" id="curve_1" stroke="#000000" stroke-linecap="round" stroke-linejoin="round" stroke-width="5.194409366500966"/>
  <path d="M 44.30137803292125, 41.58818416188116 Q 36.016408685379076, 43.76118860034262, 17.957801509415717, 45.49703965031612 " fill="none" id="curve_1" stroke="#000000" stroke-linecap="round" stroke-linejoin="round" stroke-width="5.059198694334292"/>
  <path d="M 17.49786223396299, 75.43729985855867 Q 42.5931131081038, 75.03919475949711, 49.422984188762285, 71.84955568558806 " fill="none" id="curve_2" stroke="#000000" stroke-linecap="round" stroke-linejoin="round" stroke-width="4.936296058082473"/>
  <path d="M 28.18315564907345, 95.37411170826911 Q 28.117012456677912, 98.39187247839784, 27.354991521882937, 98.95452897012247 " fill="none" id="curve_3" stroke="#000000" stroke-linecap="round" stroke-linejoin="round" stroke-width="3.6345014850820356"/>
  <path d="M 39.03377948046722, 40.974067135803615 Q 36.719277348193735, 41.94066698739603, 31.37781204968793, 43.02664827572527 " fill="none" id="curve_8" stroke="#000000" stroke-linecap="round" stroke-linejoin="round" stroke-width="3.900657429383625"/>
  <path d="M 21.55031460580769, 75.44283218834924 Q 23.79280028997165, 73.66407825712588, 41.28278560078469, 72.95768402274857 " fill="none" id="curve_9" stroke="#000000" stroke-linecap="round" stroke-linejoin="round" stroke-width="3.0250666877973336"/>
  <path d="M 41.28278560078469, 72.95768402274857 Q 44.27774845983579, 72.72941899414027, 46.6954634495076, 72.10441085097015 " fill="none" id="curve_9" stroke="#000000" stroke-linecap="round" stroke-linejoin="round" stroke-width="3.736833868055381"/>
  <path d="M 16.701413622031975, 74.89365931162538 Q 17.000533297799013, 74.09714996193081, 17.692592550136787, 72.81765939212168 " fill="none" id="curve_10" stroke="#000000" stroke-linecap="round" stroke-linejoin="round" stroke-width="2.610649104710615"/>
  <path d="M 23.3294521914585, 77.38584306895689 Q 25.999037567687676, 76.82252722200916, 29.670541007617146, 75.98404839729294 " fill="none" id="curve_25" stroke="#000000" stroke-linecap="round" stroke-linejoin="round" stroke-width="2.6552072579456345"/>
  <path d="M 22.2937954507286, 72.40586797408774 Q 23.183359705772386, 72.66046612562194, 23.601865686023007, 73.99119960255746 " fill="none" id="curve_26" stroke="#000000" stroke-linecap="round" stroke-linejoin="round" stroke-width="3.452209354263034"/>
  <path d="M 41.183707612024904, 53.55116139631432 Q 41.22246141023786, 43.90693290443842, 41.74693373449724, 42.12144669738994 " fill="none" id="curve_27" stroke="#000000" stroke-linecap="round" stroke-linejoin="round" stroke-width="3.485731036273496"/>
  <path d="M 21.086160723111483, 42.43623895190909 Q 19.720942398844326, 43.6872950649176, 18.322594986407992, 45.43098513419175 " fill="none" id="curve_28" stroke="#000000" stroke-linecap="round" stroke-linejoin="round" stroke-width="3.7951861548698043"/>
  <path d="M 26.1560001373291, 99.53711128234863 Q 26.107579960139336, 98.33765372115766, 25.958279182453083, 97.59915697772738 " fill="none" id="curve_42" stroke="#000000" stroke-linecap="round" stroke-linejoin="round" stroke-width="4.323909319558255"/>
  <path d="M 41.935299392125174, 47.542542527017446 Q 41.58907657699505, 55.76516544088368, 39.591753692764335, 59.417813639617854 " fill="none" id="curve_85" stroke="#000000" stroke-linecap="round" stroke-linejoin="round" stroke-width="3.1154997753378244"/>
  <path d="M 43.464204943449886, 52.76821192845113 Q 42.50866067354702, 53.12644904311253, 40.75428000199055, 54.14948940259704 " fill="none" id="curve_113" stroke="#000000" stroke-linecap="round" stroke-linejoin="round" stroke-width="1.8364059326373396"/>
  <path d="M 40.03452829601903, 40.94912385771332 Q 40.86632178109919, 41.12979569882154, 42.24789681756136, 41.42051072215388 " fill="none" id="curve_115" stroke="#000000" stroke-linecap="round" stroke-linejoin="round" stroke-width="3.4712669882277956"/>
</svg>
