<?xml version="1.0" ?>
<svg height="140" width="140" xmlns="http://www.w3.org/2000/svg">
  <path d="M 27.474543809890747, 54.376774311065674 Q 27.247224955232166, 56.60052497551424, 26.208548537573556, 57.53226318340134 " fill="none" id="curve_1" stroke="#000000" stroke-linecap="round" stroke-linejoin="round" stroke-width="4.29959444936233"/>
  <path d="M 26.208548537573556, 57.53226318340134 Q 31.117085444149993, 54.33503884649247, 45.44963126179789, 51.637190356687995 " fill="none" id="curve_1" stroke="#000000" stroke-linecap="round" stroke-linejoin="round" stroke-width="6.62246509800609"/>
  <path d="M 45.44963126179789, 51.637190356687995 Q 59.00994857032626, 51.78490892229221, 62.65096606832244, 52.670386555117645 " fill="none" id="curve_1" stroke="#000000" stroke-linecap="round" stroke-linejoin="round" stroke-width="7.1086639292399285"/>
  <path d="M 62.65096606832244, 52.670386555117645 Q 56.65982175391751, 59.169563501438155, 44.40673477988422, 81.78713689668992 " fill="none" id="curve_1" stroke="#000000" stroke-linecap="round" stroke-linejoin="round" stroke-width="5.700223670339233"/>
  <path d="M 44.40673477988422, 81.78713689668992 Q 38.14989026574932, 92.24117586607832, 23.992180963381426, 112.83283674530166 " fill="none" id="curve_1" stroke="#000000" stroke-linecap="round" stroke-linejoin="round" stroke-width="6.21209560825143"/>
  <path d="M 53.0736083151408, 86.50825982433739 Q 49.23092955888686, 84.40034770517063, 45.21727412839819, 79.6919079079128 " fill="none" id="curve_2" stroke="#000000" stroke-linecap="round" stroke-linejoin="round" stroke-width="3.6630583539289967"/>
  <path d="M 65.11702687234555, 49.70330459859918 Q 66.03196021422151, 49.489976986564244, 66.40408218543676, 48.321741267726956 " fill="none" id="curve_3" stroke="#000000" stroke-linecap="round" stroke-linejoin="round" stroke-width="5.803712213818383"/>
  <path d="M 89.72796167652702, 4.314771573340863 Q 89.68599914023281, 2.6181911251427854, 89.60696301903171, 0.7933302315762853 " fill="none" id="curve_18" stroke="#000000" stroke-linecap="round" stroke-linejoin="round" stroke-width="1.6681256919002168"/>
  <path d="M 64.07817846327606, 49.80585454199737 Q 64.71891281373858, 49.356225519849424, 65.28951966428295, 48.10043504492109 " fill="none" id="curve_22" stroke="#000000" stroke-linecap="round" stroke-linejoin="round" stroke-width="4.015448431588009"/>
  <path d="M 40.987495489668405, 87.31321288437678 Q 32.99537935802969, 93.41267440598547, 25.574443709234856, 107.05804075947327 " fill="none" id="curve_23" stroke="#000000" stroke-linecap="round" stroke-linejoin="round" stroke-width="3.476576980394836"/>
  <path d="M 37.49371254108126, 87.71465301069694 Q 40.92960684440562, 82.85059613869235, 47.57757558151343, 78.69125554562987 " fill="none" id="curve_24" stroke="#000000" stroke-linecap="round" stroke-linejoin="round" stroke-width="3.2708638098056837"/>
  <path d="M 56.096796675413636, 56.509717305967555 Q 53.57459429784387, 64.65407708100055, 46.7538372049536, 71.35694750739877 " fill="none" id="curve_25" stroke="#000000" stroke-linecap="round" stroke-linejoin="round" stroke-width="2.478251814049471"/>
  <path d="M 30.197530707165146, 53.413664569004396 Q 32.81390360387936, 52.9926674242882, 38.25742860296871, 52.60220666709232 " fill="none" id="curve_26" stroke="#000000" stroke-linecap="round" stroke-linejoin="round" stroke-width="3.247476187758463"/>
  <path d="M 66.21470832824707, 50.82831573486328 Q 65.94805620498454, 49.75656726073013, 65.16544113360989, 48.98143594861723 " fill="none" id="curve_40" stroke="#000000" stroke-linecap="round" stroke-linejoin="round" stroke-width="4.819591626229725"/>
  <path d="M 50.76169828784498, 49.34748826353733 Q 47.89892585767445, 49.589546397104755, 44.90896370358199, 50.122433466986955 " fill="none" id="curve_55" stroke="#000000" stroke-linecap="round" stroke-linejoin="round" stroke-width="2.9944694856069694"/>
  <path d="M 64.33164058608963, 50.44162081382149 Q 64.7387592039884, 49.504483752907575, 65.49980861081413, 48.72770884352646 " fill="none" id="curve_70" stroke="#000000" stroke-linecap="round" stroke-linejoin="round" stroke-width="5.150600423437989"/>
  <path d="M 67.07060527801514, 48.04221725463867 Q 65.1862591573743, 49.074058793350574, 62.212272940797675, 50.46990292469782 " fill="none" id="curve_84" stroke="#000000" stroke-linecap="round" stroke-linejoin="round" stroke-width="6.0081113025651645"/>
  <path d="M 39.894370048478194, 53.38013377686838 Q 37.912602938494864, 55.05505269007794, 32.97032262262216, 56.016364199146125 " fill="none" id="curve_85" stroke="#000000" stroke-linecap="round" stroke-linejoin="round" stroke-width="3.3771665004807048"/>
  <path d="M 49.46290861585587, 75.9202852519704 Q 47.61860219315521, 76.53658833177396, 45.53063281352844, 77.9643662599047 " fill="none" id="curve_102" stroke="#000000" stroke-linecap="round" stroke-linejoin="round" stroke-width="4.03136219734343"/>
  <path d="M 66.90476579590495, 51.48151497407184 Q 66.84715272972387, 49.814452470314826, 66.64687948106945, 48.86357718258473 " fill="none" id="curve_143" stroke="#000000" stroke-linecap="round" stroke-linejoin="round" stroke-width="3.881687515084109"/>
</svg>
