<?xml version="1.0" ?>
<svg height="140" width="140" xmlns="http://www.w3.org/2000/svg">
  <path d="M 16.55704379081726, 73.02202701568604 Q 18.285238786732982, 73.4345016197622, 26.670878446857387, 73.6579019612866 " fill="none" id="curve_1" stroke="#000000" stroke-linecap="round" stroke-linejoin="round" stroke-width="5.793866430539343"/>
  <path d="M 26.670878446857387, 73.6579019612866 Q 27.57199994749451, 75.13259027117076, 45.24044733742818, 75.2970805069731 " fill="none" id="curve_1" stroke="#000000" stroke-linecap="round" stroke-linejoin="round" stroke-width="6.194141432002841"/>
  <path d="M 45.24044733742818, 75.2970805069731 Q 41.825353825130364, 83.10513921232858, 33.738063323909536, 102.20741170255718 " fill="none" id="curve_1" stroke="#000000" stroke-linecap="round" stroke-linejoin="round" stroke-width="5.132925331047258"/>
  <path d="M 33.738063323909536, 102.20741170255718 Q 33.3238711528752, 106.57491023715457, 31.697903326037494, 107.9667889680269 " fill="none" id="curve_1" stroke="#000000" stroke-linecap="round" stroke-linejoin="round" stroke-width="6.468825797677399"/>
  <path d="M 45.711936941800204, 75.11002807699535 Q 51.14327422540882, 66.99196854597412, 56.80597716257804, 49.55656251212935 " fill="none" id="curve_2" stroke="#000000" stroke-linecap="round" stroke-linejoin="round" stroke-width="5.181032038196738"/>
  <path d="M 56.80597716257804, 49.55656251212935 Q 56.170947856172184, 40.74692190654483, 31.78299209694689, 39.66875517836405 " fill="none" id="curve_2" stroke="#000000" stroke-linecap="round" stroke-linejoin="round" stroke-width="5.5134169969946765"/>
  <path d="M 31.78299209694689, 39.66875517836405 Q 27.218448849810752, 38.26986249910839, 6.910224786552806, 37.53778099647987 " fill="none" id="curve_2" stroke="#000000" stroke-linecap="round" stroke-linejoin="round" stroke-width="5.039422569442788"/>
  <path d="M 50.65852829407379, 74.40600680061762 Q 62.00070017350627, 74.36812629952868, 66.59864223375374, 74.20016925207423 " fill="none" id="curve_4" stroke="#000000" stroke-linecap="round" stroke-linejoin="round" stroke-width="4.099440346618504"/>
  <path d="M 50.72021835228949, 60.84920873324977 Q 47.226968078622065, 67.13359548516915, 44.10720310565495, 77.25318481407622 " fill="none" id="curve_5" stroke="#000000" stroke-linecap="round" stroke-linejoin="round" stroke-width="3.723373947505032"/>
  <path d="M 54.96879222120353, 46.105573652967166 Q 53.509893138067916, 49.90073878610034, 52.97182231527221, 66.23777364199368 " fill="none" id="curve_7" stroke="#000000" stroke-linecap="round" stroke-linejoin="round" stroke-width="3.6959814685082564"/>
  <path d="M 52.97182231527221, 66.23777364199368 Q 48.601095598549215, 75.070452149267, 36.75481729517528, 87.32737723428001 " fill="none" id="curve_7" stroke="#000000" stroke-linecap="round" stroke-linejoin="round" stroke-width="2.8488240622013103"/>
  <path d="M 17.096245307711985, 73.75575583970902 Q 17.44830755920546, 73.48803695654124, 17.750899694136727, 72.9450693788715 " fill="none" id="curve_8" stroke="#000000" stroke-linecap="round" stroke-linejoin="round" stroke-width="4.721614436894997"/>
  <path d="M 51.287059453008396, 62.57534071447148 Q 53.930045798259826, 58.78092761570527, 57.338770203982364, 54.450309042362136 " fill="none" id="curve_12" stroke="#000000" stroke-linecap="round" stroke-linejoin="round" stroke-width="3.243526777801498"/>
  <path d="M 41.58423322686876, 41.58108425294518 Q 39.01826424090521, 41.65591308751763, 36.086435748866556, 41.860733331698064 " fill="none" id="curve_16" stroke="#000000" stroke-linecap="round" stroke-linejoin="round" stroke-width="2.7926395630531236"/>
  <path d="M 25.27607282731785, 37.491172290521604 Q 22.63233030432994, 37.478657009936455, 14.267784501248205, 37.459568974030205 " fill="none" id="curve_17" stroke="#000000" stroke-linecap="round" stroke-linejoin="round" stroke-width="2.9351026689927933"/>
  <path d="M 28.859835504743884, 75.95092824139647 Q 25.48760992023047, 75.31596334837143, 21.084781981744158, 74.06018644515768 " fill="none" id="curve_19" stroke="#000000" stroke-linecap="round" stroke-linejoin="round" stroke-width="3.1362017631234025"/>
  <path d="M 90.5279276123686, 1.6167332380748802 Q 90.279105553171, 2.2160994711531066, 89.55578462185333, 3.0903607609591837 " fill="none" id="curve_23" stroke="#000000" stroke-linecap="round" stroke-linejoin="round" stroke-width="2.0908378663419804"/>
  <path d="M 46.80253345246673, 41.49973472861992 Q 49.95850821548587, 42.326904985924784, 53.22553395251946, 43.83006692027689 " fill="none" id="curve_28" stroke="#000000" stroke-linecap="round" stroke-linejoin="round" stroke-width="3.9819633972119526"/>
  <path d="M 53.22553395251946, 43.83006692027689 Q 51.25881180808296, 41.511200845149965, 39.91882835747318, 39.914062169480395 " fill="none" id="curve_28" stroke="#000000" stroke-linecap="round" stroke-linejoin="round" stroke-width="2.637115726939189"/>
  <path d="M 55.5137938548298, 73.95180614881795 Q 46.82092436037765, 75.05259864164917, 40.383796039825484, 79.56781998597073 " fill="none" id="curve_30" stroke="#000000" stroke-linecap="round" stroke-linejoin="round" stroke-width="2.385198043764335"/>
  <path d="M 37.7470478630232, 89.4358852758006 Q 37.634080253004576, 90.82161798310167, 37.405052447193626, 92.1627210078814 " fill="none" id="curve_32" stroke="#000000" stroke-linecap="round" stroke-linejoin="round" stroke-width="4.049459260276421"/>
  <path d="M 37.405052447193626, 92.1627210078814 Q 37.929302887086536, 90.96328751630145, 39.1242234630028, 89.66256495701778 " fill="none" id="curve_32" stroke="#000000" stroke-linecap="round" stroke-linejoin="round" stroke-width="3.675797444330357"/>
  <path d="M 54.446460066110504, 45.155950478427314 Q 50.65579832468819, 42.954561697081246, 42.71409077594251, 40.08206675576977 " fill="none" id="curve_34" stroke="#000000" stroke-linecap="round" stroke-linejoin="round" stroke-width="3.629063055738343"/>
  <path d="M 47.367242227572774, 43.1225617798452 Q 48.383292214161024, 44.76361624984968, 54.27146932166798, 45.40885142944387 " fill="none" id="curve_88" stroke="#000000" stroke-linecap="round" stroke-linejoin="round" stroke-width="2.8923015050267447"/>
  <path d="M 43.53438048558502, 39.847309857670595 Q 52.03820195555565, 40.54871689449551, 55.38722207864567, 43.89525517604634 " fill="none" id="curve_90" stroke="#000000" stroke-linecap="round" stroke-linejoin="round" stroke-width="1.9614163264373314"/>
  <path d="M 42.14816374968882, 74.96508554833346 Q 43.1030629206318, 75.55106456945335, 50.685152079544615, 75.69687707106841 " fill="none" id="curve_105" stroke="#000000" stroke-linecap="round" stroke-linejoin="round" stroke-width="2.675969004406393"/>
  <path d="M 51.004505878838984, 60.04562751069389 Q 52.2292175537566, 58.962523528380466, 54.307343059069275, 57.917585052860446 " fill="none" id="curve_106" stroke="#000000" stroke-linecap="round" stroke-linejoin="round" stroke-width="3.608106679022355"/>
  <path d="M 30.64009534100059, 105.08957376164307 Q 31.264660483319027, 105.42066629429978, 32.38585925192945, 105.92785876928731 " fill="none" id="curve_134" stroke="#000000" stroke-linecap="round" stroke-linejoin="round" stroke-width="3.0598184041431584"/>
  <path d="M 34.35858524636656, 99.25367183831428 Q 35.269176479338796, 94.39347215289288, 38.929493581285726, 91.51056737220395 " fill="none" id="curve_152" stroke="#000000" stroke-linecap="round" stroke-linejoin="round" stroke-width="3.0009609963636006"/>
  <path d="M 10.288581595371156, 38.42962350095309 Q 11.246023904704755, 38.74366845706816, 15.243458042451694, 38.92683011691638 " fill="none" id="curve_155" stroke="#000000" stroke-linecap="round" stroke-linejoin="round" stroke-width="2.3638741407680794"/>
</svg>
