<?xml version="1.0" ?>
<svg height="140" width="140" xmlns="http://www.w3.org/2000/svg">
  <path d="M 86.34387588500977, 72.85247421264648 Q 87.68696256669101, 72.88949617010344, 89.03794508021929, 72.9672550623427 " fill="none" id="curve_1" stroke="#000000" stroke-linecap="round" stroke-linejoin="round" stroke-width="4.160866845352001"/>
  <path d="M 89.03794508021929, 72.9672550623427 Q 88.59589588896667, 74.61134238432767, 70.60041636275547, 74.76046645482805 " fill="none" id="curve_1" stroke="#000000" stroke-linecap="round" stroke-linejoin="round" stroke-width="4.897020716309476"/>
  <path d="M 70.60041636275547, 74.76046645482805 Q 66.7793287554194, 75.30838501962474, 56.05941799322807, 75.63625141670995 " fill="none" id="curve_1" stroke="#000000" stroke-linecap="round" stroke-linejoin="round" stroke-width="7.754557669020085"/>
  <path d="M 56.05941799322807, 75.63625141670995 Q 48.62168199959287, 75.7266089468069, 47.17762174315023, 77.38852090233873 " fill="none" id="curve_1" stroke="#000000" stroke-linecap="round" stroke-linejoin="round" stroke-width="4.74699988261458"/>
  <path d="M 59.425357838851724, 100.78747108747899 Q 59.659208910747815, 90.30441136945117, 60.141864200744685, 76.28707180865129 " fill="none" id="curve_2" stroke="#000000" stroke-linecap="round" stroke-linejoin="round" stroke-width="5.922995090536712"/>
  <path d="M 60.141864200744685, 76.28707180865129 Q 60.83662156463054, 73.03272146072239, 61.09475208833487, 48.38704209945868 " fill="none" id="curve_2" stroke="#000000" stroke-linecap="round" stroke-linejoin="round" stroke-width="4.675121710604169"/>
  <path d="M 61.09475208833487, 48.38704209945868 Q 59.92138914572354, 45.38885803790676, 53.5343006700473, 44.22708985356199 " fill="none" id="curve_2" stroke="#000000" stroke-linecap="round" stroke-linejoin="round" stroke-width="4.538888269039452"/>
  <path d="M 53.5343006700473, 44.22708985356199 Q 38.551024021829704, 45.40730037803161, 29.58215084367269, 49.03534552748257 " fill="none" id="curve_2" stroke="#000000" stroke-linecap="round" stroke-linejoin="round" stroke-width="5.066686325122174"/>
  <path d="M 43.376994534937644, 76.64898815064998 Q 43.372743884129264, 76.7048081079924, 43.370697466985675, 76.91416440341753 " fill="none" id="curve_3" stroke="#000000" stroke-linecap="round" stroke-linejoin="round" stroke-width="7.472972846507368"/>
  <path d="M 60.33367548680229, 69.90933328620373 Q 61.00088779760014, 63.855500649233974, 61.77548932055778, 54.956221065301115 " fill="none" id="curve_4" stroke="#000000" stroke-linecap="round" stroke-linejoin="round" stroke-width="3.2555902782449473"/>
  <path d="M 59.949647163775836, 62.77404502803712 Q 59.87782510708578, 66.42390501884019, 59.800797992212956, 74.64418928448728 " fill="none" id="curve_6" stroke="#000000" stroke-linecap="round" stroke-linejoin="round" stroke-width="3.1706088887882355"/>
  <path d="M 58.290564012267794, 96.41339545229033 Q 58.426097840571124, 90.90184667379748, 58.58767050301463, 80.37916788670388 " fill="none" id="curve_9" stroke="#000000" stroke-linecap="round" stroke-linejoin="round" stroke-width="3.059324556630525"/>
  <path d="M 39.31692072787182, 45.17324819319112 Q 33.84977927733724, 46.70228041323281, 29.43376082272465, 49.482887130277085 " fill="none" id="curve_11" stroke="#000000" stroke-linecap="round" stroke-linejoin="round" stroke-width="3.8780232033172024"/>
  <path d="M 29.43376082272465, 49.482887130277085 Q 30.44119810775312, 48.49743348261371, 32.677703294518146, 47.38136002665202 " fill="none" id="curve_11" stroke="#000000" stroke-linecap="round" stroke-linejoin="round" stroke-width="3.5798328833475246"/>
  <path d="M 57.76570810396959, 44.30399934347789 Q 58.719065750791, 46.198171877283, 59.86140176770023, 50.14023384063192 " fill="none" id="curve_12" stroke="#000000" stroke-linecap="round" stroke-linejoin="round" stroke-width="3.8665304183809197"/>
  <path d="M 45.84056677457772, 75.14279889269822 Q 46.49263061910416, 75.0891216020193, 46.99555435301691, 74.96214657642089 " fill="none" id="curve_15" stroke="#000000" stroke-linecap="round" stroke-linejoin="round" stroke-width="5.579638335874198"/>
  <path d="M 78.48215614923826, 74.61675360385378 Q 83.16506705496897, 74.59145025865033, 89.13624790024483, 74.55206342564541 " fill="none" id="curve_16" stroke="#000000" stroke-linecap="round" stroke-linejoin="round" stroke-width="2.9128040785767864"/>
  <path d="M 86.02897075325902, 73.77878068317911 Q 86.15092673288733, 73.50679574090633, 86.36051974260018, 72.96059585959442 " fill="none" id="curve_20" stroke="#000000" stroke-linecap="round" stroke-linejoin="round" stroke-width="3.739770373669775"/>
  <path d="M 46.99233945282281, 43.63527962048159 Q 45.419121643077624, 44.82727665141497, 38.58922401244145, 45.87621773237166 " fill="none" id="curve_21" stroke="#000000" stroke-linecap="round" stroke-linejoin="round" stroke-width="3.1606296805865948"/>
  <path d="M 72.32051933412478, 75.92854641912191 Q 73.4702182965437, 75.10522986253625, 76.95683104873544, 74.30933578148608 " fill="none" id="curve_22" stroke="#000000" stroke-linecap="round" stroke-linejoin="round" stroke-width="3.3269962743744244"/>
  <path d="M 55.70108031238776, 47.934795703621845 Q 56.747958629444994, 46.26757668612784, 58.93555915150364, 43.92949446279414 " fill="none" id="curve_23" stroke="#000000" stroke-linecap="round" stroke-linejoin="round" stroke-width="3.3235582962922807"/>
  <path d="M 31.163244073645565, 47.2222670020882 Q 30.704469545428438, 47.79022043658118, 29.661922124074636, 48.702753938346106 " fill="none" id="curve_24" stroke="#000000" stroke-linecap="round" stroke-linejoin="round" stroke-width="2.6961215935550564"/>
  <path d="M 56.912194885447406, 91.56051696290342 Q 57.34243576221523, 88.39692182201784, 58.01254888646833, 84.4601651627347 " fill="none" id="curve_28" stroke="#000000" stroke-linecap="round" stroke-linejoin="round" stroke-width="3.522436279960192"/>
  <path d="M 59.06843855103591, 62.75333412117469 Q 60.48342000687318, 57.9319549759237, 62.12632646120462, 50.051927739442135 " fill="none" id="curve_29" stroke="#000000" stroke-linecap="round" stroke-linejoin="round" stroke-width="2.63212851820629"/>
  <path d="M 84.72496905782361, 72.89544882603303 Q 84.45922007828644, 72.92328593140697, 83.6928360836627, 72.96255972809722 " fill="none" id="curve_44" stroke="#000000" stroke-linecap="round" stroke-linejoin="round" stroke-width="2.3479663112267115"/>
  <path d="M 47.16090811798346, 44.175954140702835 Q 45.67534755490487, 44.13030517192803, 42.07199548898694, 44.06039835507038 " fill="none" id="curve_46" stroke="#000000" stroke-linecap="round" stroke-linejoin="round" stroke-width="2.1134939845510647"/>
  <path d="M 71.17283709828905, 72.38604775442127 Q 71.85841312760091, 74.11720698162414, 74.17360590860307, 75.00808509296927 " fill="none" id="curve_61" stroke="#000000" stroke-linecap="round" stroke-linejoin="round" stroke-width="4.264432559766198"/>
  <path d="M 59.29147889244169, 66.14548262740894 Q 60.30764359561879, 66.40977459702013, 61.31173101452914, 67.2180375747041 " fill="none" id="curve_78" stroke="#000000" stroke-linecap="round" stroke-linejoin="round" stroke-width="2.7922020826583784"/>
  <path d="M 31.052597649080678, 47.70509275237219 Q 30.501959882436168, 47.81306019884281, 29.543992075563825, 48.011918727896834 " fill="none" id="curve_110" stroke="#000000" stroke-linecap="round" stroke-linejoin="round" stroke-width="2.862583895738549"/>
  <path d="M 31.71734982112641, 48.53160498438808 Q 30.824651759380036, 48.25278721126067, 29.27795611368233, 47.76207103855837 " fill="none" id="curve_113" stroke="#000000" stroke-linecap="round" stroke-linejoin="round" stroke-width="3.2077326172445235"/>
  <path d="M 88.74621883752593, 75.65557220921556 Q 87.50847719330703, 73.29408960309908, 83.94519830340455, 71.72653763679097 " fill="none" id="curve_167" stroke="#000000" stroke-linecap="round" stroke-linejoin="round" stroke-width="2.1323161354616857"/>
</svg>
