<?xml version="1.0" ?>
<svg height="140" width="140" xmlns="http://www.w3.org/2000/svg">
  <path d="M 56.34880009961706, 72.78260756565739 Q 42.10530267797864, 72.37519287164923, 34.701041254735216, 70.20454305036286 " fill="none" id="curve_4" stroke="#000000" stroke-linecap="round" stroke-linejoin="round" stroke-width="5.200868424038041"/>
  <path d="M 34.701041254735216, 70.20454305036286 Q 32.357644600155155, 84.54243223554201, 25.64765555069605, 94.26515239914913 " fill="none" id="curve_4" stroke="#000000" stroke-linecap="round" stroke-linejoin="round" stroke-width="4.968793002376242"/>
  <path d="M 35.250593207516026, 70.39209469614387 Q 43.52475850966142, 62.804498093376644, 58.83328814864459, 38.792635038447344 " fill="none" id="curve_5" stroke="#000000" stroke-linecap="round" stroke-linejoin="round" stroke-width="7.015399439480993"/>
  <path d="M 58.83328814864459, 38.792635038447344 Q 62.8583214874376, 38.541610200449405, 65.08954207516432, 37.73611781701841 " fill="none" id="curve_5" stroke="#000000" stroke-linecap="round" stroke-linejoin="round" stroke-width="5.9239991229516535"/>
  <path d="M 65.08954207516432, 37.73611781701841 Q 49.39283239226967, 38.801981436228544, 25.38022789672194, 41.48099015611131 " fill="none" id="curve_5" stroke="#000000" stroke-linecap="round" stroke-linejoin="round" stroke-width="5.970995677751949"/>
  <path d="M 27.528923732137894, 71.64961816878032 Q 32.4894767841531, 71.58165066832333, 51.33848903407131, 71.53079989015575 " fill="none" id="curve_6" stroke="#000000" stroke-linecap="round" stroke-linejoin="round" stroke-width="4.992173398672234"/>
  <path d="M 30.901670331714026, 92.57476027291328 Q 30.432932123067545, 90.92243873193848, 29.7581082327176, 89.14999536876284 " fill="none" id="curve_7" stroke="#000000" stroke-linecap="round" stroke-linejoin="round" stroke-width="8.626425460366095"/>
  <path d="M 55.23756684904302, 70.96425538435246 Q 48.75041585499323, 70.78748682659672, 39.20733558163217, 70.4697969963923 " fill="none" id="curve_8" stroke="#000000" stroke-linecap="round" stroke-linejoin="round" stroke-width="3.1420651458541844"/>
  <path d="M 62.91935675783919, 39.797460452220406 Q 53.20109659751431, 45.62767171052129, 42.548074094580635, 58.989128833610536 " fill="none" id="curve_9" stroke="#000000" stroke-linecap="round" stroke-linejoin="round" stroke-width="3.2421824823125376"/>
  <path d="M 47.88960572372687, 37.833190844719226 Q 52.12962242032235, 38.53743780313394, 52.672902032274884, 48.13492929030981 " fill="none" id="curve_10" stroke="#000000" stroke-linecap="round" stroke-linejoin="round" stroke-width="4.975696357581267"/>
  <path d="M 52.672902032274884, 48.13492929030981 Q 58.8264478858035, 45.78503091994746, 63.734585648245464, 38.75119795313524 " fill="none" id="curve_10" stroke="#000000" stroke-linecap="round" stroke-linejoin="round" stroke-width="1.962951096742198"/>
  <path d="M 45.84246674536516, 35.753257628272586 Q 42.22105316388036, 36.87869354728603, 38.555432782548586, 39.34944267997831 " fill="none" id="curve_11" stroke="#000000" stroke-linecap="round" stroke-linejoin="round" stroke-width="2.6892537129168956"/>
  <path d="M 35.2532606514822, 71.39504841052741 Q 35.54357481356701, 74.48605375549366, 36.56603839927963, 76.25801569889775 " fill="none" id="curve_12" stroke="#000000" stroke-linecap="round" stroke-linejoin="round" stroke-width="3.865692407877143"/>
  <path d="M 31.844735814165034, 71.8389185393936 Q 31.331911733212287, 70.61229450154461, 29.036872836033794, 69.5476672338187 " fill="none" id="curve_16" stroke="#000000" stroke-linecap="round" stroke-linejoin="round" stroke-width="3.3366587761561375"/>
  <path d="M 54.1022481580942, 70.45876848975342 Q 55.24479189418119, 70.65299327030878, 56.460492119348274, 71.10106077712959 " fill="none" id="curve_33" stroke="#000000" stroke-linecap="round" stroke-linejoin="round" stroke-width="3.85034237882405"/>
  <path d="M 64.70407574837775, 37.17613930419003 Q 64.74241395543459, 36.32990748835107, 64.83926131154752, 35.569763005543045 " fill="none" id="curve_35" stroke="#000000" stroke-linecap="round" stroke-linejoin="round" stroke-width="3.1215487932532096"/>
  <path d="M 34.98185348510742, 75.0914192199707 Q 38.8374852898379, 72.50176221164932, 42.06203799332229, 65.67206148012701 " fill="none" id="curve_62" stroke="#000000" stroke-linecap="round" stroke-linejoin="round" stroke-width="2.967421668654424"/>
  <path d="M 26.048435135784004, 91.72988047575977 Q 26.9631313126634, 90.69695821675609, 28.615286019343014, 88.1975860974048 " fill="none" id="curve_69" stroke="#000000" stroke-linecap="round" stroke-linejoin="round" stroke-width="2.9853818847425"/>
  <path d="M 58.650257651521436, 71.88216996254329 Q 51.25394353053224, 71.03347647652986, 39.330743275108745, 69.21664986021844 " fill="none" id="curve_77" stroke="#000000" stroke-linecap="round" stroke-linejoin="round" stroke-width="2.56832847050679"/>
  <path d="M 29.570498606047522, 84.62485409501497 Q 27.63821885996404, 85.47012622733851, 26.57403755088699, 90.15983993547587 " fill="none" id="curve_105" stroke="#000000" stroke-linecap="round" stroke-linejoin="round" stroke-width="2.8924166429756877"/>
  <path d="M 51.765247386628204, 44.394865451271485 Q 49.727148431196994, 50.08379607631722, 45.244399734939215, 55.252605146669026 " fill="none" id="curve_107" stroke="#000000" stroke-linecap="round" stroke-linejoin="round" stroke-width="2.9997070930136718"/>
  <path d="M 62.07526636825969, 39.271222321143966 Q 62.775389592310866, 38.704242952070594, 63.67724154805872, 37.68211591265549 " fill="none" id="curve_108" stroke="#000000" stroke-linecap="round" stroke-linejoin="round" stroke-width="3.825269685339802"/>
  <path d="M 64.83818043248876, 41.260589507415744 Q 64.6727689401059, 39.96926750652712, 64.46967711200308, 37.80575977335003 " fill="none" id="curve_123" stroke="#000000" stroke-linecap="round" stroke-linejoin="round" stroke-width="4.065337849563701"/>
  <path d="M 60.618167877197266, 36.25625991821289 Q 61.842428081938934, 36.090594774387604, 64.16022876730926, 35.79414057845335 " fill="none" id="curve_137" stroke="#000000" stroke-linecap="round" stroke-linejoin="round" stroke-width="2.5953139122236735"/>
</svg>
