<?xml version="1.0" ?>
<svg height="140" width="140" xmlns="http://www.w3.org/2000/svg">
  <path d="M 36.25092566261992, 74.0402984216471 Q 38.3043402872139, 72.84768159123239, 53.351991728271784, 72.52676378467623 " fill="none" id="curve_2" stroke="#000000" stroke-linecap="round" stroke-linejoin="round" stroke-width="6.565006889892095"/>
  <path d="M 53.351991728271784, 72.52676378467623 Q 51.16409122794635, 81.63458108026374, 46.5989658256184, 88.57712642732 " fill="none" id="curve_2" stroke="#000000" stroke-linecap="round" stroke-linejoin="round" stroke-width="4.254590156818169"/>
  <path d="M 53.195406099668645, 70.97847921936251 Q 53.07644583148054, 48.39984925340342, 39.58357403895362, 47.06893400835159 " fill="none" id="curve_3" stroke="#000000" stroke-linecap="round" stroke-linejoin="round" stroke-width="5.764378537810509"/>
  <path d="M 39.58357403895362, 47.06893400835159 Q 36.14877185185714, 46.71281061295858, 24.68762354781875, 46.554239146655284 " fill="none" id="curve_3" stroke="#000000" stroke-linecap="round" stroke-linejoin="round" stroke-width="5.002163720679898"/>
  <path d="M 56.71912127165288, 74.47911345590036 Q 58.70539828250834, 74.33614202366938, 60.34213665915214, 74.0327828873213 " fill="none" id="curve_4" stroke="#000000" stroke-linecap="round" stroke-linejoin="round" stroke-width="3.5088665018069465"/>
  <path d="M 52.79033672190706, 56.79649069307206 Q 52.86938496333105, 60.01674570990576, 52.91444237779737, 69.39907071720394 " fill="none" id="curve_5" stroke="#000000" stroke-linecap="round" stroke-linejoin="round" stroke-width="3.2652016415250924"/>
  <path d="M 50.23140084343926, 52.06105152735866 Q 51.564046416902755, 53.166821167246624, 52.16253336386891, 59.21468646569766 " fill="none" id="curve_6" stroke="#000000" stroke-linecap="round" stroke-linejoin="round" stroke-width="3.395127687544506"/>
  <path d="M 52.16253336386891, 59.21468646569766 Q 52.696698447294274, 62.333972433048366, 53.164978119333945, 70.19625050484669 " fill="none" id="curve_6" stroke="#000000" stroke-linecap="round" stroke-linejoin="round" stroke-width="3.054364912699696"/>
  <path d="M 53.525431411419405, 60.90890110132051 Q 53.01756146772067, 61.548194051443986, 52.473012269072306, 63.495538012512476 " fill="none" id="curve_21" stroke="#000000" stroke-linecap="round" stroke-linejoin="round" stroke-width="3.701070534274409"/>
  <path d="M 52.473012269072306, 63.495538012512476 Q 52.93799967265467, 64.13853672166628, 53.819709138650616, 66.05631150313778 " fill="none" id="curve_21" stroke="#000000" stroke-linecap="round" stroke-linejoin="round" stroke-width="2.5379282098554348"/>
  <path d="M 32.698457629052015, 45.33223690351615 Q 32.59528504837933, 45.20333590208165, 32.408231745597675, 45.02601221412757 " fill="none" id="curve_58" stroke="#000000" stroke-linecap="round" stroke-linejoin="round" stroke-width="3.648916274250847"/>
  <path d="M 35.469600512260726, 46.329208175152026 Q 36.5627144668899, 46.39582645567118, 38.627374263294755, 46.509836894440035 " fill="none" id="curve_119" stroke="#000000" stroke-linecap="round" stroke-linejoin="round" stroke-width="2.464523300516697"/>
</svg>
