<?xml version="1.0" ?>
<svg height="140" width="140" xmlns="http://www.w3.org/2000/svg">
  <path d="M 48.85265350341797, 59.14797592163086 Q 49.62637877080146, 57.735608949667025, 52.55555014645324, 57.09761098300805 " fill="none" id="curve_1" stroke="#000000" stroke-linecap="round" stroke-linejoin="round" stroke-width="4.688137386711974"/>
  <path d="M 52.55555014645324, 57.09761098300805 Q 51.970790081008865, 72.6280043344587, 46.10214689853015, 83.02115248185939 " fill="none" id="curve_1" stroke="#000000" stroke-linecap="round" stroke-linejoin="round" stroke-width="4.3008365605890875"/>
  <path d="M 46.10214689853015, 83.02115248185939 Q 43.84529889826256, 93.04695717754241, 41.05873470032154, 111.4875490959988 " fill="none" id="curve_1" stroke="#000000" stroke-linecap="round" stroke-linejoin="round" stroke-width="5.771612965660385"/>
  <path d="M 41.05873470032154, 111.4875490959988 Q 40.47698985222213, 132.9875777484747, 36.36960186290301, 137.533504933033 " fill="none" id="curve_1" stroke="#000000" stroke-linecap="round" stroke-linejoin="round" stroke-width="4.9270920843706225"/>
  <path d="M 63.880858737694844, 118.09011220148693 Q 56.03469849164806, 115.4149214038663, 40.0139594968004, 111.1031119379474 " fill="none" id="curve_2" stroke="#000000" stroke-linecap="round" stroke-linejoin="round" stroke-width="5.508475027840376"/>
  <path d="M 40.0139594968004, 111.1031119379474 Q 30.307788410123155, 107.87681955019228, 18.238726733936293, 102.87852349728517 " fill="none" id="curve_2" stroke="#000000" stroke-linecap="round" stroke-linejoin="round" stroke-width="6.4985325008595884"/>
  <path d="M 12.529750562977693, 73.04250437895942 Q 11.677671996977207, 77.16223093632766, 10.792093339039297, 82.34152880287108 " fill="none" id="curve_3" stroke="#000000" stroke-linecap="round" stroke-linejoin="round" stroke-width="3.7321117176128777"/>
  <path d="M 8.622142090406571, 61.1114078846232 Q 8.808778218027198, 60.00053686279151, 9.88535544319493, 59.45942639821213 " fill="none" id="curve_4" stroke="#000000" stroke-linecap="round" stroke-linejoin="round" stroke-width="6.176325397972995"/>
  <path d="M 9.88535544319493, 59.45942639821213 Q 15.441334849037112, 60.87881597887557, 18.929720437255448, 63.63784434710762 " fill="none" id="curve_4" stroke="#000000" stroke-linecap="round" stroke-linejoin="round" stroke-width="6.2950641255748865"/>
  <path d="M 18.929720437255448, 63.63784434710762 Q 30.265980831228212, 61.186785850579675, 48.787492713413855, 57.84342850507515 " fill="none" id="curve_4" stroke="#000000" stroke-linecap="round" stroke-linejoin="round" stroke-width="6.060122522674403"/>
  <path d="M 68.55461193327412, 115.94321995273981 Q 68.44221199305757, 116.67071568976458, 68.2207364266712, 117.20508448267074 " fill="none" id="curve_6" stroke="#000000" stroke-linecap="round" stroke-linejoin="round" stroke-width="7.37634367229761"/>
  <path d="M 47.25988981998866, 84.17641634031398 Q 44.43862857607528, 90.51796632862897, 41.28951253923143, 99.98097723192915 " fill="none" id="curve_7" stroke="#000000" stroke-linecap="round" stroke-linejoin="round" stroke-width="2.811835433318544"/>
  <path d="M 19.023539749341822, 100.81370102422335 Q 18.093660332798947, 101.33038426339411, 17.3215510186336, 102.42949083230313 " fill="none" id="curve_8" stroke="#000000" stroke-linecap="round" stroke-linejoin="round" stroke-width="4.9736074432146244"/>
  <path d="M 17.3215510186336, 102.42949083230313 Q 24.263731337142392, 104.63792535066484, 34.765211670988414, 106.94630820973576 " fill="none" id="curve_8" stroke="#000000" stroke-linecap="round" stroke-linejoin="round" stroke-width="2.896461058596887"/>
  <path d="M 38.854351281071956, 126.73187753482638 Q 39.20908379692983, 120.04041309676339, 40.175940908602975, 114.21420092946222 " fill="none" id="curve_9" stroke="#000000" stroke-linecap="round" stroke-linejoin="round" stroke-width="2.8599621287763983"/>
  <path d="M 46.49739824261658, 87.86987836213875 Q 44.05385851697211, 90.72462717544767, 41.1650150664094, 94.79098268231841 " fill="none" id="curve_10" stroke="#000000" stroke-linecap="round" stroke-linejoin="round" stroke-width="3.7518262076747217"/>
  <path d="M 49.35535358021278, 72.62582922701087 Q 50.92245369098709, 72.93913290243506, 52.51252651669618, 73.91723493061633 " fill="none" id="curve_12" stroke="#000000" stroke-linecap="round" stroke-linejoin="round" stroke-width="3.2229368586218983"/>
  <path d="M 28.339387828627316, 59.17222237481453 Q 21.73133450028256, 61.17965362779618, 15.761489762523121, 65.93425694912659 " fill="none" id="curve_17" stroke="#000000" stroke-linecap="round" stroke-linejoin="round" stroke-width="3.6226663051867614"/>
  <path d="M 7.144044446690687, 58.31861527845052 Q 9.633183550886876, 58.729460500297904, 12.562853533156805, 59.40879052342959 " fill="none" id="curve_18" stroke="#000000" stroke-linecap="round" stroke-linejoin="round" stroke-width="3.016705675071358"/>
  <path d="M 47.31172939073075, 114.81315446918431 Q 39.286464908017585, 115.11659346919366, 37.91189475970361, 120.48483995557312 " fill="none" id="curve_27" stroke="#000000" stroke-linecap="round" stroke-linejoin="round" stroke-width="3.5077944991546595"/>
  <path d="M 67.29812964524095, 115.85331335319202 Q 69.41708926599803, 115.6831634382754, 71.20872096690282, 115.32786935484422 " fill="none" id="curve_29" stroke="#000000" stroke-linecap="round" stroke-linejoin="round" stroke-width="1.9613305574604445"/>
  <path d="M 71.20872096690282, 115.32786935484422 Q 59.59343326879815, 115.21805936957135, 57.481304742103084, 113.72510958415226 " fill="none" id="curve_29" stroke="#000000" stroke-linecap="round" stroke-linejoin="round" stroke-width="2.244749256869391"/>
  <path d="M 59.94955870419316, 118.57655050045042 Q 59.75766760912587, 118.77373824009216, 59.20783431265435, 118.88820096444333 " fill="none" id="curve_30" stroke="#000000" stroke-linecap="round" stroke-linejoin="round" stroke-width="2.5474117257733995"/>
  <path d="M 28.2350354865859, 103.81095724239808 Q 27.426944754723966, 103.52036261868174, 25.05807819308951, 103.23857197694262 " fill="none" id="curve_33" stroke="#000000" stroke-linecap="round" stroke-linejoin="round" stroke-width="2.492801520259624"/>
  <path d="M 50.66721671454321, 67.78544649542388 Q 50.72430648794978, 61.02574866251257, 51.17598849606023, 58.83417589076926 " fill="none" id="curve_38" stroke="#000000" stroke-linecap="round" stroke-linejoin="round" stroke-width="2.6536755235455596"/>
  <path d="M 37.005341935066696, 58.73349160249956 Q 32.086856330095245, 59.052799138307165, 27.67795832094069, 59.96634091753353 " fill="none" id="curve_47" stroke="#000000" stroke-linecap="round" stroke-linejoin="round" stroke-width="2.943684713496084"/>
  <path d="M 37.488250763744446, 128.48383713774487 Q 38.60546878241763, 127.25981493878561, 39.84809433794847, 122.67892956916263 " fill="none" id="curve_56" stroke="#000000" stroke-linecap="round" stroke-linejoin="round" stroke-width="2.9662724464575434"/>
  <path d="M 48.27462550814159, 86.15262712076456 Q 48.1732721921266, 74.39827963519939, 46.71426248428816, 71.43889696264884 " fill="none" id="curve_58" stroke="#000000" stroke-linecap="round" stroke-linejoin="round" stroke-width="2.2683168233183864"/>
  <path d="M 21.48951531302555, 106.85626640554511 Q 20.30407595721923, 105.87447905083721, 18.627696826414926, 104.43703290721965 " fill="none" id="curve_59" stroke="#000000" stroke-linecap="round" stroke-linejoin="round" stroke-width="4.226165081624919"/>
  <path d="M 16.815532188179766, 61.319333029594596 Q 21.46151229958716, 61.16194880540922, 27.39805971797008, 60.82455767407068 " fill="none" id="curve_60" stroke="#000000" stroke-linecap="round" stroke-linejoin="round" stroke-width="2.6176664014630058"/>
  <path d="M 27.07418193977331, 108.34294101854908 Q 38.908949514546805, 108.21257966220789, 41.3572229451568, 106.8054219933635 " fill="none" id="curve_68" stroke="#000000" stroke-linecap="round" stroke-linejoin="round" stroke-width="2.352299474886104"/>
  <path d="M 39.873228740719256, 60.58575526852774 Q 36.13623786599571, 59.973722394921, 31.790569446345323, 58.70305396591822 " fill="none" id="curve_70" stroke="#000000" stroke-linecap="round" stroke-linejoin="round" stroke-width="3.705464300321279"/>
  <path d="M 10.926415296095332, 57.087632564983835 Q 9.724430599978918, 57.63873655738749, 8.28181877720547, 58.38283041996516 " fill="none" id="curve_71" stroke="#000000" stroke-linecap="round" stroke-linejoin="round" stroke-width="3.6777413912784587"/>
  <path d="M 88.93767168014426, 3.262182828727987 Q 89.46672754576194, 2.7936405243372544, 90.12156524351589, 1.7750762997659162 " fill="none" id="curve_99" stroke="#000000" stroke-linecap="round" stroke-linejoin="round" stroke-width="1.99290885266754"/>
  <path d="M 43.223463151264184, 89.32390235539737 Q 43.9908152731423, 90.4416772221179, 45.95054668251024, 91.14824117075126 " fill="none" id="curve_114" stroke="#000000" stroke-linecap="round" stroke-linejoin="round" stroke-width="3.3544050326955257"/>
  <path d="M 41.28389571712144, 58.35920539358793 Q 39.973555872017485, 58.18094889192742, 35.9818676575452, 57.904215820060784 " fill="none" id="curve_157" stroke="#000000" stroke-linecap="round" stroke-linejoin="round" stroke-width="2.3917786561802314"/>
  <path d="M 37.07305762535128, 123.45572609291922 Q 37.42781420892295, 123.15605208197204, 37.66995954557211, 121.6291615532147 " fill="none" id="curve_181" stroke="#000000" stroke-linecap="round" stroke-linejoin="round" stroke-width="3.303288753430888"/>
  <path d="M 27.01008108728044, 105.30364639799203 Q 26.459055993453724, 106.458460012958, 25.607823086852378, 108.50760849694602 " fill="none" id="curve_182" stroke="#000000" stroke-linecap="round" stroke-linejoin="round" stroke-width="4.219692326565578"/>
  <path d="M 23.508037489510244, 102.14945027955683 Q 25.126473007884503, 102.36610142741195, 26.014905475581173, 103.32770665876305 " fill="none" id="curve_189" stroke="#000000" stroke-linecap="round" stroke-linejoin="round" stroke-width="2.7809712331873437"/>
  <path d="M 61.295808976300975, 116.96651649126932 Q 56.15103954197525, 114.71219196632846, 44.95745717071755, 111.22056495660715 " fill="none" id="curve_205" stroke="#000000" stroke-linecap="round" stroke-linejoin="round" stroke-width="2.8084150976703937"/>
  <path d="M 19.166795794256902, 102.19198267203893 Q 18.868484589519053, 100.50955971121135, 17.903490503515986, 99.44445771704711 " fill="none" id="curve_224" stroke="#000000" stroke-linecap="round" stroke-linejoin="round" stroke-width="2.669453572381529"/>
</svg>
