<?xml version="1.0" ?>
<svg height="140" width="140" xmlns="http://www.w3.org/2000/svg">
  <path d="M 48.70917892456055, 59.54940605163574 Q 48.8864818119003, 57.986764775732404, 50.66210174936373, 57.61778799207195 " fill="none" id="curve_1" stroke="#000000" stroke-linecap="round" stroke-linejoin="round" stroke-width="3.967888093888293"/>
  <path d="M 50.66210174936373, 57.61778799207195 Q 49.57052730876371, 59.65135568817778, 31.047775465721248, 60.04129611495939 " fill="none" id="curve_1" stroke="#000000" stroke-linecap="round" stroke-linejoin="round" stroke-width="5.7157073634508215"/>
  <path d="M 31.047775465721248, 60.04129611495939 Q 22.707549513010193, 58.13781291441716, 7.667370685361053, 54.26893141349314 " fill="none" id="curve_1" stroke="#000000" stroke-linecap="round" stroke-linejoin="round" stroke-width="5.391292227514661"/>
  <path d="M 38.707483215116525, 82.55596548631476 Q 39.69349294807328, 88.07717168652476, 44.42881639497632, 91.02385317556602 " fill="none" id="curve_2" stroke="#000000" stroke-linecap="round" stroke-linejoin="round" stroke-width="12.139017025462978"/>
  <path d="M 44.42881639497632, 91.02385317556602 Q 45.810625915504396, 108.01147239461632, 55.783610370887494, 118.44986096651056 " fill="none" id="curve_2" stroke="#000000" stroke-linecap="round" stroke-linejoin="round" stroke-width="4.920473634111697"/>
  <path d="M 55.86348024661225, 87.00790630201044 Q 46.324548353014244, 86.8647255685295, 45.443748605893916, 82.9676231366169 " fill="none" id="curve_3" stroke="#000000" stroke-linecap="round" stroke-linejoin="round" stroke-width="5.1742593322793615"/>
  <path d="M 45.443748605893916, 82.9676231366169 Q 46.52298135102604, 77.4083016284425, 47.253770625164464, 60.554616962561866 " fill="none" id="curve_3" stroke="#000000" stroke-linecap="round" stroke-linejoin="round" stroke-width="5.305848180126861"/>
  <path d="M 57.60940705151501, 119.88729720766088 Q 56.170667274643606, 119.6015565207062, 54.72139051306918, 119.06011914232911 " fill="none" id="curve_5" stroke="#000000" stroke-linecap="round" stroke-linejoin="round" stroke-width="5.393160784976931"/>
  <path d="M 41.371483729715365, 84.08437519482786 Q 42.92936618107062, 84.07854189078284, 44.25135840067767, 84.06358178360486 " fill="none" id="curve_6" stroke="#000000" stroke-linecap="round" stroke-linejoin="round" stroke-width="7.6546491486245785"/>
  <path d="M 6.189714322214215, 54.98029993727589 Q 6.105889076148453, 54.09697602372003, 5.940518399546061, 52.95631593720433 " fill="none" id="curve_7" stroke="#000000" stroke-linecap="round" stroke-linejoin="round" stroke-width="3.324151283348248"/>
  <path d="M 43.524821270454325, 84.5856448436252 Q 42.277348409177364, 84.52979424522228, 39.95394716845141, 84.44503012222471 " fill="none" id="curve_8" stroke="#000000" stroke-linecap="round" stroke-linejoin="round" stroke-width="6.173900066317105"/>
  <path d="M 47.73430412237425, 84.55066085701465 Q 46.57553694361088, 84.4353499030518, 43.36413013111315, 84.29749902366495 " fill="none" id="curve_15" stroke="#000000" stroke-linecap="round" stroke-linejoin="round" stroke-width="7.632176868787756"/>
  <path d="M 89.09709947321113, 2.4989833502651777 Q 89.12892473100548, 1.9747362768150438, 89.16532531498693, 0.9860381366249489 " fill="none" id="curve_30" stroke="#000000" stroke-linecap="round" stroke-linejoin="round" stroke-width="2.3250479122046825"/>
  <path d="M 38.81490516662598, 87.57426261901855 Q 38.483410491536745, 85.19227627131916, 37.12918465572238, 83.4142243837369 " fill="none" id="curve_44" stroke="#000000" stroke-linecap="round" stroke-linejoin="round" stroke-width="2.6947663009698166"/>
  <path d="M 48.87048730051633, 81.62830924012091 Q 47.81369505216202, 75.77069662180205, 43.55067286726279, 70.66798254612462 " fill="none" id="curve_45" stroke="#000000" stroke-linecap="round" stroke-linejoin="round" stroke-width="1.6736832414724712"/>
  <path d="M 47.47409354340828, 81.63879187408054 Q 48.86969301901066, 86.2298311547481, 49.50466430296485, 100.85305555107732 " fill="none" id="curve_46" stroke="#000000" stroke-linecap="round" stroke-linejoin="round" stroke-width="2.1194292490807403"/>
  <path d="M 49.50466430296485, 100.85305555107732 Q 51.86189986346972, 110.39296702230894, 56.1263413294729, 116.30454937588533 " fill="none" id="curve_46" stroke="#000000" stroke-linecap="round" stroke-linejoin="round" stroke-width="2.7146971348296605"/>
  <path d="M 37.57012789956939, 88.82637998839564 Q 37.784305449576536, 85.27570028499073, 39.31729823471074, 84.15046945905924 " fill="none" id="curve_48" stroke="#000000" stroke-linecap="round" stroke-linejoin="round" stroke-width="3.0057103283323148"/>
  <path d="M 31.247028380296157, 58.347694945172044 Q 30.834559569237385, 57.88556292532327, 29.585957860934563, 57.621282199242124 " fill="none" id="curve_49" stroke="#000000" stroke-linecap="round" stroke-linejoin="round" stroke-width="4.380474311650376"/>
  <path d="M 47.0503931287697, 58.44666950665574 Q 47.125513700328895, 58.16752993575633, 47.23097781299964, 57.803780086734946 " fill="none" id="curve_50" stroke="#000000" stroke-linecap="round" stroke-linejoin="round" stroke-width="4.112096250319064"/>
  <path d="M 43.74491428869396, 60.921924344294894 Q 44.59777306501102, 60.691890259782376, 46.4622458821631, 60.27427819097187 " fill="none" id="curve_91" stroke="#000000" stroke-linecap="round" stroke-linejoin="round" stroke-width="2.8465844424700375"/>
  <path d="M 43.147905349731445, 60.611724853515625 Q 45.262579696513264, 60.36088485350136, 48.57883655296564, 59.9841137219134 " fill="none" id="curve_118" stroke="#000000" stroke-linecap="round" stroke-linejoin="round" stroke-width="3.6723872136683244"/>
  <path d="M 44.067816926805264, 71.06644422829947 Q 44.84374360859819, 67.86577714759994, 47.52836701634772, 64.0451940087005 " fill="none" id="curve_119" stroke="#000000" stroke-linecap="round" stroke-linejoin="round" stroke-width="2.6346496295019857"/>
  <path d="M 23.251231026803126, 57.46863883167004 Q 20.635478870919712, 56.71182313579265, 14.774142629939815, 55.77189767821903 " fill="none" id="curve_140" stroke="#000000" stroke-linecap="round" stroke-linejoin="round" stroke-width="2.694050500329501"/>
</svg>
