<?xml version="1.0" ?>
<svg height="140" width="140" xmlns="http://www.w3.org/2000/svg">
  <path d="M 53.385979652404785, 122.34128856658936 Q 54.03571827078491, 118.00752685144411, 55.44855608633445, 109.63331359899621 " fill="none" id="curve_1" stroke="#000000" stroke-linecap="round" stroke-linejoin="round" stroke-width="6.164931863169734"/>
  <path d="M 55.44855608633445, 109.63331359899621 Q 59.18596942753527, 105.93535427344617, 62.529932273034134, 92.79141029053405 " fill="none" id="curve_1" stroke="#000000" stroke-linecap="round" stroke-linejoin="round" stroke-width="5.8934445626571845"/>
  <path d="M 62.529932273034134, 92.79141029053405 Q 65.50106868786109, 87.77259186004898, 68.75132150215721, 69.8250847979659 " fill="none" id="curve_1" stroke="#000000" stroke-linecap="round" stroke-linejoin="round" stroke-width="5.274198331125014"/>
  <path d="M 68.75132150215721, 69.8250847979659 Q 69.18144414628054, 65.41468806068966, 69.7041357289648, 60.51568771855618 " fill="none" id="curve_1" stroke="#000000" stroke-linecap="round" stroke-linejoin="round" stroke-width="4.746427354504649"/>
  <path d="M 69.7041357289648, 60.51568771855618 Q 68.22124999879205, 44.97104914894407, 43.53737969386666, 37.6856483147106 " fill="none" id="curve_1" stroke="#000000" stroke-linecap="round" stroke-linejoin="round" stroke-width="4.97209837424632"/>
  <path d="M 43.53737969386666, 37.6856483147106 Q 30.305003544145606, 36.273289868432876, 17.922049333903853, 32.780744087386104 " fill="none" id="curve_1" stroke="#000000" stroke-linecap="round" stroke-linejoin="round" stroke-width="4.875237452185292"/>
  <path d="M 44.393151159022246, 39.467004342028126 Q 47.19178359646494, 38.94936308664593, 51.371625348053165, 38.413094751458374 " fill="none" id="curve_2" stroke="#000000" stroke-linecap="round" stroke-linejoin="round" stroke-width="3.4666647672700823"/>
  <path d="M 38.08525278799337, 82.10373119281306 Q 40.95496314806036, 87.73432922727622, 66.06534510910863, 88.94373393801422 " fill="none" id="curve_3" stroke="#000000" stroke-linecap="round" stroke-linejoin="round" stroke-width="4.86239688441714"/>
  <path d="M 66.06534510910863, 88.94373393801422 Q 71.05541716282262, 88.915694649386, 86.60710947227211, 88.90367817907891 " fill="none" id="curve_3" stroke="#000000" stroke-linecap="round" stroke-linejoin="round" stroke-width="3.4803477891175625"/>
  <path d="M 73.37057044422713, 87.72252854706052 Q 72.08957915932338, 86.44392870498294, 60.12012586963835, 85.97599771901247 " fill="none" id="curve_4" stroke="#000000" stroke-linecap="round" stroke-linejoin="round" stroke-width="2.4270631007963535"/>
  <path d="M 45.46424165610779, 84.99456391053593 Q 41.41648506590551, 83.66871888303521, 38.43609925156848, 80.74435876429501 " fill="none" id="curve_5" stroke="#000000" stroke-linecap="round" stroke-linejoin="round" stroke-width="2.662406970815544"/>
  <path d="M 66.03277970948864, 82.17397494226397 Q 66.03759277527097, 76.3458433857389, 66.07085975661474, 74.64261131544 " fill="none" id="curve_7" stroke="#000000" stroke-linecap="round" stroke-linejoin="round" stroke-width="2.8751183510598333"/>
  <path d="M 66.49244389662135, 53.679415920276554 Q 63.808587528379, 51.903457852424225, 61.30494473152908, 47.09988078591762 " fill="none" id="curve_8" stroke="#000000" stroke-linecap="round" stroke-linejoin="round" stroke-width="2.4584879264610815"/>
  <path d="M 61.30494473152908, 47.09988078591762 Q 60.87638683272078, 40.6599508069764, 49.36706697228526, 39.857649515091474 " fill="none" id="curve_8" stroke="#000000" stroke-linecap="round" stroke-linejoin="round" stroke-width="2.66271434635238"/>
  <path d="M 49.36706697228526, 39.857649515091474 Q 50.46753983857114, 43.159183920450396, 55.83597592001854, 44.04577592538585 " fill="none" id="curve_8" stroke="#000000" stroke-linecap="round" stroke-linejoin="round" stroke-width="2.341897557029782"/>
  <path d="M 69.66960673063717, 55.3442560085996 Q 69.76743106413466, 54.82681039792934, 69.87606110274379, 53.94754325083992 " fill="none" id="curve_12" stroke="#000000" stroke-linecap="round" stroke-linejoin="round" stroke-width="3.6331047442940525"/>
  <path d="M 55.950726715416394, 125.09302574962321 Q 56.22965275070899, 124.98427463287004, 56.311478402507674, 124.26781611580131 " fill="none" id="curve_15" stroke="#000000" stroke-linecap="round" stroke-linejoin="round" stroke-width="8.745865220043633"/>
  <path d="M 56.311478402507674, 124.26781611580131 Q 58.7675542896076, 124.04121332171854, 60.86099621638992, 123.64297857665531 " fill="none" id="curve_15" stroke="#000000" stroke-linecap="round" stroke-linejoin="round" stroke-width="3.470759801167823"/>
  <path d="M 55.55551218415983, 120.28151387081589 Q 55.99311381004368, 114.89875621080736, 57.618310805475566, 111.21693692441715 " fill="none" id="curve_17" stroke="#000000" stroke-linecap="round" stroke-linejoin="round" stroke-width="2.398959198273981"/>
  <path d="M 50.8842348884586, 86.87233127163401 Q 49.805946868649855, 86.534383761983, 47.86899967866067, 85.87961190801775 " fill="none" id="curve_18" stroke="#000000" stroke-linecap="round" stroke-linejoin="round" stroke-width="3.1453611996451287"/>
  <path d="M 24.36362591186662, 35.94012918550719 Q 23.667379885873512, 35.9736186132784, 23.058319605073763, 36.040367384577614 " fill="none" id="curve_33" stroke="#000000" stroke-linecap="round" stroke-linejoin="round" stroke-width="3.112263465537158"/>
  <path d="M 21.115505766174685, 33.69188528500361 Q 20.20208130982488, 32.746300267376625, 17.61098212567445, 31.885552886273604 " fill="none" id="curve_68" stroke="#000000" stroke-linecap="round" stroke-linejoin="round" stroke-width="3.50194199051158"/>
  <path d="M 65.49423449553342, 77.29496979325175 Q 65.77550108193611, 76.97374041634522, 66.3605662852509, 76.30531840988135 " fill="none" id="curve_83" stroke="#000000" stroke-linecap="round" stroke-linejoin="round" stroke-width="2.2097560070113444"/>
  <path d="M 1.3879924330452216, 1.0144341799140655 Q 1.3692230716929983, 1.10405990292064, 1.3399892663080688, 1.2760202741957407 " fill="none" id="curve_127" stroke="#000000" stroke-linecap="round" stroke-linejoin="round" stroke-width="1.6411396263149336"/>
  <path d="M 43.13635412302014, 40.08346840484673 Q 43.77533568740115, 39.987253304702335, 44.50392722859303, 39.727509492925066 " fill="none" id="curve_129" stroke="#000000" stroke-linecap="round" stroke-linejoin="round" stroke-width="2.273363627998114"/>
  <path d="M 87.91005319851865, 89.23815460920525 Q 87.63574872638331, 89.44861754512462, 86.97133770517414, 89.75821187852452 " fill="none" id="curve_144" stroke="#000000" stroke-linecap="round" stroke-linejoin="round" stroke-width="2.1073365285886823"/>
  <path d="M 61.23536758194861, 47.64678874732985 Q 63.18434403894885, 47.75179905328995, 65.50391755867379, 47.9508661329809 " fill="none" id="curve_161" stroke="#000000" stroke-linecap="round" stroke-linejoin="round" stroke-width="2.788938639993078"/>
</svg>
