<?xml version="1.0" ?>
<svg height="140" width="140" xmlns="http://www.w3.org/2000/svg">
  <path d="M 56.097068786621094, 52.59393310546875 Q 55.323488718508834, 58.26838273584302, 51.57495572037405, 68.31354627848475 " fill="none" id="curve_1" stroke="#000000" stroke-linecap="round" stroke-linejoin="round" stroke-width="7.006705338853753"/>
  <path d="M 51.57495572037405, 68.31354627848475 Q 47.5760701618132, 77.87846794578294, 35.75290400575135, 96.83514809879925 " fill="none" id="curve_1" stroke="#000000" stroke-linecap="round" stroke-linejoin="round" stroke-width="6.899658890754991"/>
  <path d="M 35.75290400575135, 96.83514809879925 Q 35.715902548999885, 100.18586003014019, 35.336947926188344, 100.74670017891872 " fill="none" id="curve_1" stroke="#000000" stroke-linecap="round" stroke-linejoin="round" stroke-width="8.607307982543682"/>
  <path d="M 55.78449140382246, 61.627396980227815 Q 60.26334970663351, 56.57218358191199, 62.80526125689108, 39.03224006586217 " fill="none" id="curve_2" stroke="#000000" stroke-linecap="round" stroke-linejoin="round" stroke-width="5.517074135280696"/>
  <path d="M 62.80526125689108, 39.03224006586217 Q 47.76492896349263, 40.32353285209389, 27.76348237532588, 45.22746163910094 " fill="none" id="curve_2" stroke="#000000" stroke-linecap="round" stroke-linejoin="round" stroke-width="5.737858514681729"/>
  <path d="M 27.76348237532588, 45.22746163910094 Q 23.53301275891627, 45.34849016157808, 21.105267130617108, 45.67645761449031 " fill="none" id="curve_2" stroke="#000000" stroke-linecap="round" stroke-linejoin="round" stroke-width="4.250226723074098"/>
  <path d="M 64.12761310429056, 40.11651808534676 Q 62.5663892334446, 51.67398256191939, 56.41593905224822, 57.307038872381 " fill="none" id="curve_3" stroke="#000000" stroke-linecap="round" stroke-linejoin="round" stroke-width="3.613240015104184"/>
  <path d="M 38.21641296435517, 99.26357153135575 Q 37.629932721288334, 100.70500999475037, 34.99675132307315, 101.18332773924864 " fill="none" id="curve_4" stroke="#000000" stroke-linecap="round" stroke-linejoin="round" stroke-width="6.334916105944402"/>
  <path d="M 34.99675132307315, 101.18332773924864 Q 34.67501206285185, 101.5936158697879, 33.91403710363969, 101.87398822432523 " fill="none" id="curve_4" stroke="#000000" stroke-linecap="round" stroke-linejoin="round" stroke-width="4.637682023980791"/>
  <path d="M 35.4368591364114, 43.993551832146856 Q 38.60793581206132, 40.09557950527066, 59.56032818901558, 38.373538368440855 " fill="none" id="curve_8" stroke="#000000" stroke-linecap="round" stroke-linejoin="round" stroke-width="2.728499583998155"/>
  <path d="M 59.56032818901558, 38.373538368440855 Q 59.81330040545896, 45.46157065955069, 60.22701331559892, 53.810481414664025 " fill="none" id="curve_8" stroke="#000000" stroke-linecap="round" stroke-linejoin="round" stroke-width="3.471872121000073"/>
  <path d="M 43.9924642096486, 78.66427351067614 Q 47.02349750365658, 73.84970205355674, 51.66913189807805, 67.44111782830333 " fill="none" id="curve_9" stroke="#000000" stroke-linecap="round" stroke-linejoin="round" stroke-width="2.886575408832995"/>
  <path d="M 35.36080400387957, 100.46987347588802 Q 36.53223294871954, 99.81331218249296, 37.75961098324608, 98.2958703351517 " fill="none" id="curve_19" stroke="#000000" stroke-linecap="round" stroke-linejoin="round" stroke-width="5.2845528946609965"/>
  <path d="M 59.35601706330281, 53.77455916136168 Q 59.370789899484, 51.42209933385047, 59.49929605564646, 50.79329915124593 " fill="none" id="curve_20" stroke="#000000" stroke-linecap="round" stroke-linejoin="round" stroke-width="5.475677561952648"/>
  <path d="M 34.30552897922248, 42.1538497877882 Q 38.068433581815704, 41.234133180878956, 43.93314614218559, 40.24657215917375 " fill="none" id="curve_36" stroke="#000000" stroke-linecap="round" stroke-linejoin="round" stroke-width="2.3072596985177327"/>
  <path d="M 43.93314614218559, 40.24657215917375 Q 40.919351577281425, 40.47317317758875, 37.017576206282264, 40.92627820451403 " fill="none" id="curve_36" stroke="#000000" stroke-linecap="round" stroke-linejoin="round" stroke-width="2.975163916031759"/>
  <path d="M 38.61248859005718, 97.74686378213482 Q 37.712432974968166, 98.46432880737656, 35.92438138027509, 99.07011905599077 " fill="none" id="curve_51" stroke="#000000" stroke-linecap="round" stroke-linejoin="round" stroke-width="5.453325789322808"/>
  <path d="M 60.56472341711196, 49.37162311615748 Q 60.11247138490264, 51.144636461035994, 58.78893481953362, 52.32294111450625 " fill="none" id="curve_66" stroke="#000000" stroke-linecap="round" stroke-linejoin="round" stroke-width="6.228399707664078"/>
  <path d="M 33.80275207328489, 101.23588317940641 Q 33.40721936510338, 100.74409913867504, 32.79221808950031, 99.95494187961202 " fill="none" id="curve_70" stroke="#000000" stroke-linecap="round" stroke-linejoin="round" stroke-width="3.569982133533555"/>
  <path d="M 59.90425099649898, 49.402185340055254 Q 60.763914767100985, 50.111006407499175, 62.408678880330434, 51.00371480765806 " fill="none" id="curve_72" stroke="#000000" stroke-linecap="round" stroke-linejoin="round" stroke-width="3.402631774812689"/>
  <path d="M 57.20869340890203, 58.416860321030185 Q 59.76591719341807, 56.37091811730622, 61.751617747579715, 50.12256778554047 " fill="none" id="curve_113" stroke="#000000" stroke-linecap="round" stroke-linejoin="round" stroke-width="2.597094001857194"/>
</svg>
