<?xml version="1.0" ?>
<svg height="140" width="140" xmlns="http://www.w3.org/2000/svg">
  <path d="M 65.04892826080322, 118.43378412723541 Q 63.35467338185545, 115.32994498721817, 61.6787802199007, 105.94430756876977 " fill="none" id="curve_1" stroke="#000000" stroke-linecap="round" stroke-linejoin="round" stroke-width="9.02770681574955"/>
  <path d="M 61.6787802199007, 105.94430756876977 Q 62.78692541884517, 105.0491532180836, 62.9494845619512, 82.11043563260124 " fill="none" id="curve_1" stroke="#000000" stroke-linecap="round" stroke-linejoin="round" stroke-width="4.820311108054921"/>
  <path d="M 62.9494845619512, 82.11043563260124 Q 63.97295865724069, 72.89541138514909, 66.33943222570512, 53.536951194000366 " fill="none" id="curve_1" stroke="#000000" stroke-linecap="round" stroke-linejoin="round" stroke-width="5.612938069194866"/>
  <path d="M 66.33943222570512, 53.536951194000366 Q 41.3822630199903, 53.35183634149908, 34.11528388945966, 49.400768301790244 " fill="none" id="curve_1" stroke="#000000" stroke-linecap="round" stroke-linejoin="round" stroke-width="4.154230289334181"/>
  <path d="M 34.11528388945966, 49.400768301790244 Q 21.069557211825263, 49.24114784721942, 18.16341097594036, 47.84915205675604 " fill="none" id="curve_1" stroke="#000000" stroke-linecap="round" stroke-linejoin="round" stroke-width="9.67070986860096"/>
  <path d="M 41.29209022529403, 76.88479310860542 Q 44.714877344149045, 86.091600934064, 54.05843092382396, 98.14142844400553 " fill="none" id="curve_2" stroke="#000000" stroke-linecap="round" stroke-linejoin="round" stroke-width="4.850861885820862"/>
  <path d="M 54.05843092382396, 98.14142844400553 Q 57.16730862334835, 112.32215638080761, 65.35931203161128, 120.67116251245795 " fill="none" id="curve_2" stroke="#000000" stroke-linecap="round" stroke-linejoin="round" stroke-width="4.01623753847822"/>
  <path d="M 60.600124077446566, 87.95825985111551 Q 49.0432352210927, 86.34557005503041, 42.81978571593149, 77.36144693042448 " fill="none" id="curve_3" stroke="#000000" stroke-linecap="round" stroke-linejoin="round" stroke-width="4.663196780794987"/>
  <path d="M 42.81978571593149, 77.36144693042448 Q 45.5321733501736, 90.48851678831794, 52.04556875265999, 100.66726189519764 " fill="none" id="curve_3" stroke="#000000" stroke-linecap="round" stroke-linejoin="round" stroke-width="3.408414899730834"/>
  <path d="M 64.0142229843991, 121.09996753749283 Q 65.38371739221444, 120.72861938518395, 65.73605549558701, 118.2910294497191 " fill="none" id="curve_4" stroke="#000000" stroke-linecap="round" stroke-linejoin="round" stroke-width="4.033081086883694"/>
  <path d="M 65.73605549558701, 118.2910294497191 Q 65.62286928127267, 110.94370565629777, 61.08936306338136, 110.55677380818025 " fill="none" id="curve_4" stroke="#000000" stroke-linecap="round" stroke-linejoin="round" stroke-width="4.814675973786842"/>
  <path d="M 44.36361531418126, 80.78030031042726 Q 51.37788216115743, 82.43947562582434, 57.34718657400369, 85.57326905333878 " fill="none" id="curve_5" stroke="#000000" stroke-linecap="round" stroke-linejoin="round" stroke-width="2.233775963795887"/>
  <path d="M 16.067855595110263, 46.23510355611476 Q 15.9727682135304, 45.934385159547475, 15.880625167450024, 45.48252470571435 " fill="none" id="curve_9" stroke="#000000" stroke-linecap="round" stroke-linejoin="round" stroke-width="6.048247047098259"/>
  <path d="M 20.43784426397029, 51.76215911116929 Q 22.444789817565734, 49.62491073312193, 42.64031623994081, 49.09551859615857 " fill="none" id="curve_10" stroke="#000000" stroke-linecap="round" stroke-linejoin="round" stroke-width="3.283947902721427"/>
  <path d="M 68.43034688223767, 55.55642850877257 Q 67.52787404259514, 56.02526375347656, 66.04006963361, 57.10144988338865 " fill="none" id="curve_25" stroke="#000000" stroke-linecap="round" stroke-linejoin="round" stroke-width="2.9224633299508174"/>
  <path d="M 62.8244285554596, 76.1373948495776 Q 63.449260281055615, 70.45688936385847, 64.32269353814284, 61.71176286707445 " fill="none" id="curve_26" stroke="#000000" stroke-linecap="round" stroke-linejoin="round" stroke-width="2.63454010108994"/>
  <path d="M 41.3111122853274, 77.5982033998504 Q 41.101676760910664, 77.31011783570305, 40.89789672683112, 76.73465564952005 " fill="none" id="curve_27" stroke="#000000" stroke-linecap="round" stroke-linejoin="round" stroke-width="3.7962493795043577"/>
  <path d="M 36.434530494300446, 51.774452670518365 Q 33.0282126587757, 50.25948730755242, 26.417175380488608, 48.615776825715244 " fill="none" id="curve_29" stroke="#000000" stroke-linecap="round" stroke-linejoin="round" stroke-width="3.589421098981662"/>
  <path d="M 57.40128634357719, 111.20609307233346 Q 56.897802691201925, 109.91755589873574, 55.71818247272829, 108.99913154963899 " fill="none" id="curve_32" stroke="#000000" stroke-linecap="round" stroke-linejoin="round" stroke-width="5.086716930947926"/>
  <path d="M 60.673643754010136, 94.18042365251809 Q 60.849162844250486, 91.61764850040655, 61.157776618720895, 87.51008710743493 " fill="none" id="curve_36" stroke="#000000" stroke-linecap="round" stroke-linejoin="round" stroke-width="2.8186369401544002"/>
  <path d="M 16.90946704896608, 46.54991326416323 Q 16.0439851925185, 46.525616842028654, 15.004367536701958, 46.484553354959054 " fill="none" id="curve_38" stroke="#000000" stroke-linecap="round" stroke-linejoin="round" stroke-width="4.90267613802993"/>
  <path d="M 62.317912326417606, 119.56652314172965 Q 62.846760159734714, 120.26992912454931, 64.57774248774079, 120.81851794684378 " fill="none" id="curve_55" stroke="#000000" stroke-linecap="round" stroke-linejoin="round" stroke-width="2.9361483622847566"/>
  <path d="M 64.06192758734393, 108.95602956356049 Q 64.44751887811283, 109.0204512646921, 64.81805443806176, 109.19923008374509 " fill="none" id="curve_70" stroke="#000000" stroke-linecap="round" stroke-linejoin="round" stroke-width="2.8927222549848692"/>
  <path d="M 53.12909128488786, 102.4708805355217 Q 52.01584313307462, 101.4952732400988, 50.530265147112544, 99.90030392694398 " fill="none" id="curve_85" stroke="#000000" stroke-linecap="round" stroke-linejoin="round" stroke-width="2.6497440491344117"/>
  <path d="M 65.62066031204407, 66.44967178499988 Q 65.35820885186861, 69.73126223626639, 64.79351613503275, 74.64952030518191 " fill="none" id="curve_157" stroke="#000000" stroke-linecap="round" stroke-linejoin="round" stroke-width="2.6214800491674444"/>
</svg>
