<?xml version="1.0" ?>
<svg height="140" width="140" xmlns="http://www.w3.org/2000/svg">
  <path d="M 59.285624482179, 35.35856460179588 Q 58.52243956526164, 36.4288567179429, 55.01564544451295, 37.48427752426498 " fill="none" id="curve_2" stroke="#000000" stroke-linecap="round" stroke-linejoin="round" stroke-width="5.833749280871561"/>
  <path d="M 55.01564544451295, 37.48427752426498 Q 51.489128575947056, 45.025852119015106, 40.390552960987804, 64.11247561998874 " fill="none" id="curve_2" stroke="#000000" stroke-linecap="round" stroke-linejoin="round" stroke-width="5.034901078000711"/>
  <path d="M 40.390552960987804, 64.11247561998874 Q 40.4428576460332, 67.98779821199402, 43.045454712052695, 68.41173049718427 " fill="none" id="curve_2" stroke="#000000" stroke-linecap="round" stroke-linejoin="round" stroke-width="4.185748364118435"/>
  <path d="M 43.045454712052695, 68.41173049718427 Q 33.49412310950796, 70.11620109233994, 18.806601790586246, 74.25832535528727 " fill="none" id="curve_2" stroke="#000000" stroke-linecap="round" stroke-linejoin="round" stroke-width="3.9686467156920124"/>
  <path d="M 39.32805056722361, 70.07592201974495 Q 34.66549036631963, 77.29857996588224, 24.28803563126531, 103.17823578203905 " fill="none" id="curve_3" stroke="#000000" stroke-linecap="round" stroke-linejoin="round" stroke-width="4.996771576793957"/>
  <path d="M 24.28803563126531, 103.17823578203905 Q 23.145342019545616, 108.74872933578905, 20.60292805715069, 111.61029311459123 " fill="none" id="curve_3" stroke="#000000" stroke-linecap="round" stroke-linejoin="round" stroke-width="5.050283026594933"/>
  <path d="M 51.26560618896734, 68.33807412250539 Q 45.64350495972294, 67.95328969705555, 39.75777651334316, 67.05046649245081 " fill="none" id="curve_5" stroke="#000000" stroke-linecap="round" stroke-linejoin="round" stroke-width="3.895441787784726"/>
  <path d="M 53.144928321162126, 35.73607024565828 Q 38.87125633827107, 35.278367865967844, 20.325505984695937, 33.23274003230703 " fill="none" id="curve_6" stroke="#000000" stroke-linecap="round" stroke-linejoin="round" stroke-width="5.44891583845721"/>
  <path d="M 20.325505984695937, 33.23274003230703 Q 19.154289308862943, 33.9415305452438, 18.004106782197805, 34.93181120504609 " fill="none" id="curve_6" stroke="#000000" stroke-linecap="round" stroke-linejoin="round" stroke-width="4.360020104714808"/>
  <path d="M 37.71350168440365, 33.126626304020455 Q 32.62694222778061, 32.68764003296974, 25.02370196377997, 32.07261586741744 " fill="none" id="curve_7" stroke="#000000" stroke-linecap="round" stroke-linejoin="round" stroke-width="3.178160159989641"/>
  <path d="M 55.23673294131051, 68.27360062489329 Q 52.662127467360186, 67.77775865138628, 43.11669419137144, 67.33366911026371 " fill="none" id="curve_8" stroke="#000000" stroke-linecap="round" stroke-linejoin="round" stroke-width="2.9296338999881093"/>
  <path d="M 43.11669419137144, 67.33366911026371 Q 32.64587368712406, 70.37341020597233, 26.95208209824331, 96.93710864306044 " fill="none" id="curve_8" stroke="#000000" stroke-linecap="round" stroke-linejoin="round" stroke-width="2.8907631684876054"/>
  <path d="M 58.780989569978516, 35.02412107390059 Q 56.454441421176156, 36.7274432441917, 40.13943851117344, 37.534451266874804 " fill="none" id="curve_11" stroke="#000000" stroke-linecap="round" stroke-linejoin="round" stroke-width="2.5980627469970177"/>
  <path d="M 38.26750171415484, 66.60543173380368 Q 34.86999683459018, 68.22216366234858, 30.891098907077165, 72.26797479729568 " fill="none" id="curve_13" stroke="#000000" stroke-linecap="round" stroke-linejoin="round" stroke-width="2.97558427780252"/>
  <path d="M 30.891098907077165, 72.26797479729568 Q 27.527218577042106, 73.39423108893655, 22.499151521568947, 74.47586326155968 " fill="none" id="curve_13" stroke="#000000" stroke-linecap="round" stroke-linejoin="round" stroke-width="2.763241968840363"/>
  <path d="M 47.30554606911009, 48.75408372646855 Q 51.29731276835398, 42.784116885513555, 59.01927287549311, 36.09423762442555 " fill="none" id="curve_14" stroke="#000000" stroke-linecap="round" stroke-linejoin="round" stroke-width="4.219619762787203"/>
  <path d="M 59.01927287549311, 36.09423762442555 Q 58.80480198126704, 34.27033759586035, 54.0120163995247, 34.0647115178819 " fill="none" id="curve_14" stroke="#000000" stroke-linecap="round" stroke-linejoin="round" stroke-width="3.0322979981045504"/>
  <path d="M 56.423657204621435, 38.15302915092353 Q 49.04028997650655, 44.389984533308045, 39.631681630483904, 62.99059386136983 " fill="none" id="curve_17" stroke="#000000" stroke-linecap="round" stroke-linejoin="round" stroke-width="2.6728499995707473"/>
  <path d="M 20.198371838981213, 109.56636341402809 Q 25.259552382260726, 102.44217519478156, 31.782260928013706, 90.05314961321395 " fill="none" id="curve_19" stroke="#000000" stroke-linecap="round" stroke-linejoin="round" stroke-width="2.617563833518132"/>
  <path d="M 25.560511114567028, 103.2258728988355 Q 25.858660647732574, 101.79926789089606, 26.205896457110175, 99.80215940197198 " fill="none" id="curve_20" stroke="#000000" stroke-linecap="round" stroke-linejoin="round" stroke-width="4.88238687845034"/>
  <path d="M 52.20968671116383, 41.345374210514834 Q 54.925284211876686, 39.88878752642539, 58.512785502818765, 38.157959408775554 " fill="none" id="curve_22" stroke="#000000" stroke-linecap="round" stroke-linejoin="round" stroke-width="3.3291889725674975"/>
  <path d="M 89.63583733765601, 1.4901543045069676 Q 89.78946288415534, 1.683744863535734, 90.0807486373758, 2.0949480082946503 " fill="none" id="curve_25" stroke="#000000" stroke-linecap="round" stroke-linejoin="round" stroke-width="1.787438254730183"/>
  <path d="M 20.73854151008996, 35.667237021883096 Q 21.506912376664417, 32.621678100921066, 25.445202359344297, 30.93487666845027 " fill="none" id="curve_40" stroke="#000000" stroke-linecap="round" stroke-linejoin="round" stroke-width="2.5680223028784033"/>
  <path d="M 46.055533571229034, 69.62872565815019 Q 46.018168092799, 69.12901672960302, 45.96666309401702, 68.33033601752052 " fill="none" id="curve_55" stroke="#000000" stroke-linecap="round" stroke-linejoin="round" stroke-width="3.6533656962500114"/>
  <path d="M 53.007245283505895, 40.17185042944092 Q 48.86360224836062, 46.933614327116004, 43.6184012620927, 60.047239563652994 " fill="none" id="curve_60" stroke="#000000" stroke-linecap="round" stroke-linejoin="round" stroke-width="2.3383274068570254"/>
  <path d="M 53.63030080553784, 38.756105439004244 Q 49.45456562718869, 44.04144170074843, 46.033372289672826, 56.112005402415626 " fill="none" id="curve_61" stroke="#000000" stroke-linecap="round" stroke-linejoin="round" stroke-width="2.6826970434850184"/>
</svg>
