<?xml version="1.0" ?>
<svg height="140" width="140" xmlns="http://www.w3.org/2000/svg">
  <path d="M 27.10060977935791, 42.060340881347656 Q 26.0033884982735, 41.39845879394745, 22.79138205541858, 40.683465896579264 " fill="none" id="curve_1" stroke="#000000" stroke-linecap="round" stroke-linejoin="round" stroke-width="5.182220665046387"/>
  <path d="M 22.79138205541858, 40.683465896579264 Q 23.33111496958359, 39.88492754179022, 29.487000648834886, 39.75617210466777 " fill="none" id="curve_1" stroke="#000000" stroke-linecap="round" stroke-linejoin="round" stroke-width="4.256188510672401"/>
  <path d="M 29.487000648834886, 39.75617210466777 Q 34.02311929058284, 42.149813032920946, 50.60142922605509, 44.08348534092677 " fill="none" id="curve_1" stroke="#000000" stroke-linecap="round" stroke-linejoin="round" stroke-width="5.463526992897109"/>
  <path d="M 50.60142922605509, 44.08348534092677 Q 48.54597579311367, 47.706505116106946, 46.97771312893241, 68.51082231880622 " fill="none" id="curve_1" stroke="#000000" stroke-linecap="round" stroke-linejoin="round" stroke-width="6.02556667533217"/>
  <path d="M 46.97771312893241, 68.51082231880622 Q 46.646447968612854, 83.29199185660735, 44.682532921483634, 97.93913685439927 " fill="none" id="curve_1" stroke="#000000" stroke-linecap="round" stroke-linejoin="round" stroke-width="5.737054391649958"/>
  <path d="M 44.682532921483634, 97.93913685439927 Q 44.46519370813909, 109.89271832178972, 43.947132057731714, 116.54755344807337 " fill="none" id="curve_1" stroke="#000000" stroke-linecap="round" stroke-linejoin="round" stroke-width="5.491660544563613"/>
  <path d="M 41.54224040149732, 70.49553518640587 Q 47.413717512607114, 70.69215655366966, 58.18228738425077, 71.01047807318135 " fill="none" id="curve_3" stroke="#000000" stroke-linecap="round" stroke-linejoin="round" stroke-width="4.779660348808882"/>
  <path d="M 58.18228738425077, 71.01047807318135 Q 60.224187467566544, 71.88543024692208, 65.74728733858498, 72.32357535752001 " fill="none" id="curve_3" stroke="#000000" stroke-linecap="round" stroke-linejoin="round" stroke-width="5.804536337003659"/>
  <path d="M 65.74728733858498, 72.32357535752001 Q 52.49446142870222, 71.11208596758443, 34.9982177430572, 69.10660313992877 " fill="none" id="curve_3" stroke="#000000" stroke-linecap="round" stroke-linejoin="round" stroke-width="5.17347761765435"/>
  <path d="M 34.9982177430572, 69.10660313992877 Q 31.89467328681053, 69.06934983353895, 30.346107609856375, 68.95540829191214 " fill="none" id="curve_3" stroke="#000000" stroke-linecap="round" stroke-linejoin="round" stroke-width="5.404046201687861"/>
  <path d="M 27.917542450704516, 42.453261886168505 Q 33.970745123368495, 43.131651367184475, 42.427544481852834, 43.839380968705896 " fill="none" id="curve_4" stroke="#000000" stroke-linecap="round" stroke-linejoin="round" stroke-width="2.9978048821139893"/>
  <path d="M 48.06610417272066, 68.35755179075144 Q 47.12077487483263, 66.42703940236471, 46.85736719423384, 48.466015123797035 " fill="none" id="curve_5" stroke="#000000" stroke-linecap="round" stroke-linejoin="round" stroke-width="3.2140013239312264"/>
  <path d="M 47.123573838729335, 66.86005491355053 Q 46.58610339428407, 63.031030144174316, 45.63689859221585, 59.98541494982678 " fill="none" id="curve_6" stroke="#000000" stroke-linecap="round" stroke-linejoin="round" stroke-width="5.020445399041898"/>
  <path d="M 88.91034457841994, 4.648698319083472 Q 88.80429827987172, 2.3543271624521136, 88.00598257484846, 1.244113936681408 " fill="none" id="curve_8" stroke="#000000" stroke-linecap="round" stroke-linejoin="round" stroke-width="2.618286316384718"/>
  <path d="M 89.83492610079236, 8.947752915043795 Q 89.62515526182317, 7.561141076902773, 89.34492199823907, 4.83822799808775 " fill="none" id="curve_9" stroke="#000000" stroke-linecap="round" stroke-linejoin="round" stroke-width="2.3264802159414906"/>
  <path d="M 42.58991880199438, 116.5754760054491 Q 42.493897897596945, 111.24633410011998, 42.248530712472565, 107.85924540554271 " fill="none" id="curve_24" stroke="#000000" stroke-linecap="round" stroke-linejoin="round" stroke-width="2.666498820514649"/>
  <path d="M 86.99199209258329, 2.108176148850845 Q 86.76709856531289, 2.103105139294793, 86.39571655802311, 2.094984088754764 " fill="none" id="curve_32" stroke="#000000" stroke-linecap="round" stroke-linejoin="round" stroke-width="3.4427290184821646"/>
  <path d="M 45.6718110138052, 46.98005086192716 Q 49.06727381451945, 47.0545953690956, 49.65266487285593, 48.20619347774499 " fill="none" id="curve_48" stroke="#000000" stroke-linecap="round" stroke-linejoin="round" stroke-width="3.544024094993123"/>
  <path d="M 48.008414798086804, 70.0776705249173 Q 48.440794436358615, 66.40856606619947, 49.21621018461672, 63.40450334455528 " fill="none" id="curve_49" stroke="#000000" stroke-linecap="round" stroke-linejoin="round" stroke-width="3.3564480718319687"/>
  <path d="M 51.46009867130523, 49.21652894685524 Q 51.198178850957916, 48.03687733913019, 50.54259390490233, 46.61083702368565 " fill="none" id="curve_52" stroke="#000000" stroke-linecap="round" stroke-linejoin="round" stroke-width="3.424337828941472"/>
  <path d="M 44.50519681888526, 43.20298763244789 Q 42.1924175556299, 42.47455885544079, 36.06999744376311, 41.69769911847093 " fill="none" id="curve_69" stroke="#000000" stroke-linecap="round" stroke-linejoin="round" stroke-width="2.9367979514388707"/>
  <path d="M 44.47548878832431, 42.699755818898154 Q 42.79926826118052, 42.45950156872695, 39.83477248577891, 42.140963667717486 " fill="none" id="curve_77" stroke="#000000" stroke-linecap="round" stroke-linejoin="round" stroke-width="3.927874979478759"/>
  <path d="M 44.19586851619455, 42.27518213663209 Q 39.03757267158382, 41.92059620857097, 34.46946815320583, 40.96162854002817 " fill="none" id="curve_93" stroke="#000000" stroke-linecap="round" stroke-linejoin="round" stroke-width="3.135901557728534"/>
</svg>
