<?xml version="1.0" ?>
<svg height="140" width="140" xmlns="http://www.w3.org/2000/svg">
  <path d="M 63.74806576768441, 67.06930304093122 Q 53.90537465752421, 67.02238212754224, 50.771814736495415, 66.44453429122665 " fill="none" id="curve_4" stroke="#000000" stroke-linecap="round" stroke-linejoin="round" stroke-width="7.813670158641487"/>
  <path d="M 50.771814736495415, 66.44453429122665 Q 50.09041545200505, 76.1363053671177, 44.56045698508395, 83.58785529424397 " fill="none" id="curve_4" stroke="#000000" stroke-linecap="round" stroke-linejoin="round" stroke-width="5.699831055844351"/>
  <path d="M 44.56045698508395, 83.58785529424397 Q 38.944791416471446, 87.30087340093932, 37.2072507619077, 101.91622805974775 " fill="none" id="curve_4" stroke="#000000" stroke-linecap="round" stroke-linejoin="round" stroke-width="6.2537254969053"/>
  <path d="M 37.2072507619077, 101.91622805974775 Q 42.43297379664688, 99.50208059439618, 45.277203117082344, 94.39533742929437 " fill="none" id="curve_4" stroke="#000000" stroke-linecap="round" stroke-linejoin="round" stroke-width="4.778613309182193"/>
  <path d="M 54.543112799407396, 68.20249800729141 Q 58.96950126150905, 62.4359405633628, 62.375772777271564, 49.8337084429342 " fill="none" id="curve_5" stroke="#000000" stroke-linecap="round" stroke-linejoin="round" stroke-width="5.305763665301889"/>
  <path d="M 62.375772777271564, 49.8337084429342 Q 60.336598515784935, 48.40759206154645, 36.06783802899635, 48.01385807034811 " fill="none" id="curve_5" stroke="#000000" stroke-linecap="round" stroke-linejoin="round" stroke-width="5.017914786135344"/>
  <path d="M 36.06783802899635, 48.01385807034811 Q 25.354164217124307, 48.45786569847651, 21.876618333193985, 50.32112710307512 " fill="none" id="curve_5" stroke="#000000" stroke-linecap="round" stroke-linejoin="round" stroke-width="4.469306497234168"/>
  <path d="M 24.07336683597451, 72.30716468263843 Q 33.292721775165745, 70.46966354571707, 48.94548823394807, 68.83415965099982 " fill="none" id="curve_6" stroke="#000000" stroke-linecap="round" stroke-linejoin="round" stroke-width="6.16797382698728"/>
  <path d="M 48.94548823394807, 68.83415965099982 Q 56.29335311572672, 65.3133951656305, 60.15189600646565, 54.08358457716219 " fill="none" id="curve_6" stroke="#000000" stroke-linecap="round" stroke-linejoin="round" stroke-width="3.8595909999253095"/>
  <path d="M 46.066096581913754, 77.51283587339157 Q 42.31422617486935, 80.75564596757623, 40.13170135954748, 89.19073416844932 " fill="none" id="curve_7" stroke="#000000" stroke-linecap="round" stroke-linejoin="round" stroke-width="3.2173223816238155"/>
  <path d="M 27.160602231908484, 70.03834232621028 Q 26.439529523312306, 69.86484509929419, 25.8277785663169, 69.54135693426751 " fill="none" id="curve_8" stroke="#000000" stroke-linecap="round" stroke-linejoin="round" stroke-width="5.144888835169818"/>
  <path d="M 37.389074903508785, 46.98819402244756 Q 53.734530848705646, 47.26455238339982, 59.493388687988386, 48.9181761453241 " fill="none" id="curve_9" stroke="#000000" stroke-linecap="round" stroke-linejoin="round" stroke-width="2.397562355717344"/>
  <path d="M 89.5513765175037, 1.651282622128556 Q 89.52977062885543, 2.6373951130573863, 89.49550087571383, 4.343526716831498 " fill="none" id="curve_13" stroke="#000000" stroke-linecap="round" stroke-linejoin="round" stroke-width="2.1255551573836877"/>
  <path d="M 89.59287179917595, 43.58421814691098 Q 89.54865825426339, 47.05480544565378, 89.48478088918608, 52.56593392000958 " fill="none" id="curve_16" stroke="#000000" stroke-linecap="round" stroke-linejoin="round" stroke-width="1.4823427397124587"/>
  <path d="M 63.01349999119047, 53.265855746702044 Q 57.8168764549783, 55.91161806638372, 54.81456809318413, 62.93603713059484 " fill="none" id="curve_18" stroke="#000000" stroke-linecap="round" stroke-linejoin="round" stroke-width="4.252348244509179"/>
  <path d="M 35.00155486099413, 98.68960650212743 Q 37.85486844296746, 94.82342215505004, 46.135287544260116, 92.59872588287953 " fill="none" id="curve_23" stroke="#000000" stroke-linecap="round" stroke-linejoin="round" stroke-width="4.189335138760081"/>
  <path d="M 89.31484470415889, 55.486644079347045 Q 89.57276982232656, 55.7973888662936, 90.11413804054943, 56.32030340696235 " fill="none" id="curve_34" stroke="#000000" stroke-linecap="round" stroke-linejoin="round" stroke-width="1.7838302310158287"/>
  <path d="M 89.40603255768536, 25.87533602451981 Q 89.51850010855267, 26.109748065642385, 89.88546173101146, 26.47429286287454 " fill="none" id="curve_62" stroke="#000000" stroke-linecap="round" stroke-linejoin="round" stroke-width="1.223121269167047"/>
  <path d="M 39.639686363819905, 47.41538057450817 Q 34.27566665187925, 47.772856911741485, 29.108179391563226, 48.73399248678642 " fill="none" id="curve_81" stroke="#000000" stroke-linecap="round" stroke-linejoin="round" stroke-width="3.021093921862707"/>
  <path d="M 29.108179391563226, 48.73399248678642 Q 35.51309014965336, 47.76351310985603, 59.37529997132745, 47.10939869850934 " fill="none" id="curve_81" stroke="#000000" stroke-linecap="round" stroke-linejoin="round" stroke-width="2.37726142978709"/>
  <path d="M 89.50281527736954, 32.9395373140322 Q 89.58350660559817, 32.07870120456499, 89.86354286949087, 31.107626588507728 " fill="none" id="curve_110" stroke="#000000" stroke-linecap="round" stroke-linejoin="round" stroke-width="1.2739521316504125"/>
  <path d="M 39.1626221500728, 48.03786746498236 Q 34.29430587190743, 48.22806975286129, 28.545297076804925, 48.72466623153297 " fill="none" id="curve_147" stroke="#000000" stroke-linecap="round" stroke-linejoin="round" stroke-width="3.3233981406688966"/>
  <path d="M 90.3333301973554, 75.4228174255295 Q 89.88531382611085, 76.274009553921, 89.52515829496801, 79.83697675693895 " fill="none" id="curve_162" stroke="#000000" stroke-linecap="round" stroke-linejoin="round" stroke-width="1.127136812795569"/>
  <path d="M 62.603117486003974, 57.29374956746376 Q 60.29111833742869, 56.58744084027604, 59.05823335666867, 53.01662899094118 " fill="none" id="curve_164" stroke="#000000" stroke-linecap="round" stroke-linejoin="round" stroke-width="4.170931666920502"/>
</svg>
