<?xml version="1.0" ?>
<svg height="140" width="140" xmlns="http://www.w3.org/2000/svg">
  <path d="M 49.32311820983887, 28.002979278564453 Q 50.31123304243442, 27.078940739671904, 51.80473449965848, 25.738159705500266 " fill="none" id="curve_1" stroke="#000000" stroke-linecap="round" stroke-linejoin="round" stroke-width="6.106259505634308"/>
  <path d="M 54.415066722386285, 30.987542900195912 Q 51.6468740232997, 44.39669571442686, 41.639751414978704, 63.72213710184262 " fill="none" id="curve_2" stroke="#000000" stroke-linecap="round" stroke-linejoin="round" stroke-width="6.04869287167756"/>
  <path d="M 41.639751414978704, 63.72213710184262 Q 39.55500806907888, 76.28303981739396, 34.60834326456736, 101.02485359134207 " fill="none" id="curve_2" stroke="#000000" stroke-linecap="round" stroke-linejoin="round" stroke-width="4.197862536001986"/>
  <path d="M 25.323421970959267, 65.68274261822091 Q 42.406405493329714, 62.80220048047876, 64.20303072876682, 56.86345910661575 " fill="none" id="curve_3" stroke="#000000" stroke-linecap="round" stroke-linejoin="round" stroke-width="4.441257110926672"/>
  <path d="M 48.17387713511428, 24.580174324418522 Q 32.107721633101505, 26.90655257116525, 21.075489228224885, 35.544244055512934 " fill="none" id="curve_4" stroke="#000000" stroke-linecap="round" stroke-linejoin="round" stroke-width="4.225437763894632"/>
  <path d="M 52.86413304119316, 26.671985511527705 Q 51.329791002219864, 41.410527446362465, 45.4209070232182, 53.42634122697167 " fill="none" id="curve_5" stroke="#000000" stroke-linecap="round" stroke-linejoin="round" stroke-width="3.247226974467283"/>
  <path d="M 30.223869199849055, 62.189905531780155 Q 41.73460752975623, 62.313344346448865, 44.76630651983794, 63.24811679619144 " fill="none" id="curve_6" stroke="#000000" stroke-linecap="round" stroke-linejoin="round" stroke-width="3.0145168974018883"/>
  <path d="M 66.15549926507533, 54.922485754252165 Q 66.61692147689762, 55.00497613989468, 66.99760891484956, 55.20822679579833 " fill="none" id="curve_7" stroke="#000000" stroke-linecap="round" stroke-linejoin="round" stroke-width="2.8120302910382815"/>
  <path d="M 35.95879540576012, 102.93581519351666 Q 35.78074674581245, 100.42854199488573, 35.580020011032595, 96.80376724503571 " fill="none" id="curve_9" stroke="#000000" stroke-linecap="round" stroke-linejoin="round" stroke-width="2.748814669125386"/>
  <path d="M 35.580020011032595, 96.80376724503571 Q 35.825422700756896, 80.22384885444578, 38.457015688286816, 75.83245165870412 " fill="none" id="curve_9" stroke="#000000" stroke-linecap="round" stroke-linejoin="round" stroke-width="3.3139570340469735"/>
  <path d="M 54.17227433574038, 38.01065350580088 Q 53.56434752283099, 37.969386852959516, 52.04374995497153, 37.90131274910489 " fill="none" id="curve_11" stroke="#000000" stroke-linecap="round" stroke-linejoin="round" stroke-width="2.7636339212813192"/>
  <path d="M 42.013242271103934, 26.956299286679144 Q 40.79761588389863, 27.610474348295256, 35.74603816595258, 27.952113446855854 " fill="none" id="curve_12" stroke="#000000" stroke-linecap="round" stroke-linejoin="round" stroke-width="3.0578276628723877"/>
  <path d="M 43.73693567596407, 65.46141825833399 Q 43.23178532800934, 67.04512783622891, 41.73189872536698, 68.25190632572897 " fill="none" id="curve_13" stroke="#000000" stroke-linecap="round" stroke-linejoin="round" stroke-width="3.7761688333638754"/>
  <path d="M 54.11999916079709, 40.718987346452984 Q 49.58438073934931, 44.53974093999889, 45.20958428664837, 54.25127514960681 " fill="none" id="curve_14" stroke="#000000" stroke-linecap="round" stroke-linejoin="round" stroke-width="3.4090451371504846"/>
  <path d="M 89.5883002370054, 1.9111509310036112 Q 89.79932452624742, 2.0254443761980827, 90.2051593175972, 2.2340182806825646 " fill="none" id="curve_17" stroke="#000000" stroke-linecap="round" stroke-linejoin="round" stroke-width="1.7468362073747106"/>
  <path d="M 47.19605820368767, 46.400731616435394 Q 47.20145350702599, 53.08174892982038, 47.21074207068608, 59.3437367363467 " fill="none" id="curve_33" stroke="#000000" stroke-linecap="round" stroke-linejoin="round" stroke-width="3.256797181340869"/>
  <path d="M 19.558360465316923, 36.09562042430021 Q 20.268813670894396, 36.278126543618114, 21.15242838695772, 36.63102112925459 " fill="none" id="curve_74" stroke="#000000" stroke-linecap="round" stroke-linejoin="round" stroke-width="2.1851285710648134"/>
</svg>
