<?xml version="1.0" ?>
<svg height="140" width="140" xmlns="http://www.w3.org/2000/svg">
  <path d="M 45.044822692871094, 55.502685546875 Q 44.426622721855786, 53.04620691931155, 32.935478555608654, 52.40370513631349 " fill="none" id="curve_1" stroke="#000000" stroke-linecap="round" stroke-linejoin="round" stroke-width="8.14336440083536"/>
  <path d="M 32.935478555608654, 52.40370513631349 Q 20.808105680175707, 52.53959160827023, 20.02180329467842, 57.60942832668715 " fill="none" id="curve_1" stroke="#000000" stroke-linecap="round" stroke-linejoin="round" stroke-width="5.62714628110403"/>
  <path d="M 41.220435619041055, 55.36343198058021 Q 49.102865536851404, 57.79950559324758, 51.130502124615546, 66.85245249578193 " fill="none" id="curve_2" stroke="#000000" stroke-linecap="round" stroke-linejoin="round" stroke-width="7.102845602188365"/>
  <path d="M 51.130502124615546, 66.85245249578193 Q 50.24078948911715, 77.84755863412944, 48.04497399987523, 84.10436392829834 " fill="none" id="curve_2" stroke="#000000" stroke-linecap="round" stroke-linejoin="round" stroke-width="7.576552656158911"/>
  <path d="M 48.04497399987523, 84.10436392829834 Q 43.07953524030366, 94.1765795854511, 38.26802907878743, 109.59560596583799 " fill="none" id="curve_2" stroke="#000000" stroke-linecap="round" stroke-linejoin="round" stroke-width="4.766365947476597"/>
  <path d="M 27.269780449398652, 84.40429072195057 Q 39.72986669983366, 84.33232399337514, 46.80971238507246, 84.13700154342592 " fill="none" id="curve_3" stroke="#000000" stroke-linecap="round" stroke-linejoin="round" stroke-width="7.027639495201618"/>
  <path d="M 46.80971238507246, 84.13700154342592 Q 52.43074256959733, 85.96240884843053, 57.266278305600935, 88.28663010819542 " fill="none" id="curve_3" stroke="#000000" stroke-linecap="round" stroke-linejoin="round" stroke-width="4.411166472421986"/>
  <path d="M 20.221749389506652, 59.96951043783464 Q 20.707480624076886, 59.51710013820046, 20.976410782142572, 58.038282650921886 " fill="none" id="curve_5" stroke="#000000" stroke-linecap="round" stroke-linejoin="round" stroke-width="6.012307486350784"/>
  <path d="M 33.001243219093006, 83.96913684332726 Q 35.47122970944251, 82.48904812986669, 49.11487246275934, 81.82463851528728 " fill="none" id="curve_6" stroke="#000000" stroke-linecap="round" stroke-linejoin="round" stroke-width="3.1830601478372413"/>
  <path d="M 42.67236049407258, 57.89380680076526 Q 47.64005748955036, 58.758322645923144, 48.76811955189961, 64.77274994373614 " fill="none" id="curve_7" stroke="#000000" stroke-linecap="round" stroke-linejoin="round" stroke-width="5.125596731044201"/>
  <path d="M 40.32707896015148, 97.6661585018285 Q 39.576686056223984, 102.12984017970743, 38.66137146911293, 107.89437346968846 " fill="none" id="curve_8" stroke="#000000" stroke-linecap="round" stroke-linejoin="round" stroke-width="3.3635857696093843"/>
  <path d="M 38.66137146911293, 107.89437346968846 Q 40.86520558796672, 94.45512981986425, 47.096032467727596, 81.32910747725968 " fill="none" id="curve_8" stroke="#000000" stroke-linecap="round" stroke-linejoin="round" stroke-width="2.684398090933307"/>
  <path d="M 47.40883386349338, 56.4873533532773 Q 48.39513232905661, 58.27964950843496, 49.36712102044197, 61.49221465709232 " fill="none" id="curve_9" stroke="#000000" stroke-linecap="round" stroke-linejoin="round" stroke-width="3.7762806233566564"/>
  <path d="M 88.91640044454, 5.640949399728598 Q 89.1268028469488, 3.8771705281289, 89.68782439128094, 0.9571532372077858 " fill="none" id="curve_14" stroke="#000000" stroke-linecap="round" stroke-linejoin="round" stroke-width="2.088504493048619"/>
  <path d="M 38.90272124930149, 81.91381871066064 Q 34.91878452770639, 82.17393130740358, 30.090120731795892, 82.61012565680497 " fill="none" id="curve_20" stroke="#000000" stroke-linecap="round" stroke-linejoin="round" stroke-width="2.65626909114432"/>
  <path d="M 39.7048119026354, 109.62653943428504 Q 39.453939539620286, 109.2072947146276, 39.14049250579475, 108.57979985269871 " fill="none" id="curve_35" stroke="#000000" stroke-linecap="round" stroke-linejoin="round" stroke-width="4.148000190403503"/>
  <path d="M 40.32102889573031, 54.841395142181945 Q 41.6567351020088, 55.5021644561738, 45.4687012458321, 56.394006943278804 " fill="none" id="curve_77" stroke="#000000" stroke-linecap="round" stroke-linejoin="round" stroke-width="2.8706442490218316"/>
  <path d="M 18.256044714262114, 58.70129115650378 Q 18.888046311965752, 57.163239913877604, 20.657907747355953, 54.99069855430118 " fill="none" id="curve_106" stroke="#000000" stroke-linecap="round" stroke-linejoin="round" stroke-width="2.700809802268342"/>
  <path d="M 46.92702300929372, 58.9978484584066 Q 45.98185420166161, 53.78922365918817, 38.78145698316041, 52.19190032763919 " fill="none" id="curve_123" stroke="#000000" stroke-linecap="round" stroke-linejoin="round" stroke-width="4.099373687901634"/>
  <path d="M 38.78145698316041, 52.19190032763919 Q 39.2823427975393, 52.29310628608874, 40.365411046944324, 52.47912619236504 " fill="none" id="curve_123" stroke="#000000" stroke-linecap="round" stroke-linejoin="round" stroke-width="3.0052024934358097"/>
  <path d="M 37.66540989260236, 106.3838471853573 Q 38.280598899844634, 103.33653774574267, 39.83772841289109, 99.59060157110436 " fill="none" id="curve_146" stroke="#000000" stroke-linecap="round" stroke-linejoin="round" stroke-width="2.639274353241997"/>
</svg>
