<?xml version="1.0" ?>
<svg height="140" width="140" xmlns="http://www.w3.org/2000/svg">
  <path d="M 61.42509841918945, 37.102718353271484 Q 60.133561922486464, 37.94531244657474, 59.155204277558326, 42.85156007242904 " fill="none" id="curve_1" stroke="#000000" stroke-linecap="round" stroke-linejoin="round" stroke-width="6.71008162951499"/>
  <path d="M 59.155204277558326, 42.85156007242904 Q 56.627889437814524, 55.04067347850209, 51.01688495061744, 67.13506549801963 " fill="none" id="curve_1" stroke="#000000" stroke-linecap="round" stroke-linejoin="round" stroke-width="4.52020309248651"/>
  <path d="M 51.01688495061744, 67.13506549801963 Q 50.9875706202996, 85.94090369459946, 50.86929437902045, 98.15284020465207 " fill="none" id="curve_1" stroke="#000000" stroke-linecap="round" stroke-linejoin="round" stroke-width="3.7376825611757387"/>
  <path d="M 60.535663404233574, 66.48513325016708 Q 63.72441986253517, 66.02874500472375, 69.50534891082725, 65.57990025248809 " fill="none" id="curve_2" stroke="#000000" stroke-linecap="round" stroke-linejoin="round" stroke-width="3.9510271869425293"/>
  <path d="M 69.50534891082725, 65.57990025248809 Q 48.35670819347192, 66.38772085786145, 39.42912801802372, 69.8252546394844 " fill="none" id="curve_2" stroke="#000000" stroke-linecap="round" stroke-linejoin="round" stroke-width="4.271155864597005"/>
  <path d="M 28.659341476121334, 37.04119998235844 Q 28.64943409925905, 33.70397006556691, 28.19076361053169, 33.51065473702348 " fill="none" id="curve_3" stroke="#000000" stroke-linecap="round" stroke-linejoin="round" stroke-width="5.347459569488827"/>
  <path d="M 28.19076361053169, 33.51065473702348 Q 55.69270562326701, 33.57347831038734, 60.900283932253004, 34.56676977912363 " fill="none" id="curve_3" stroke="#000000" stroke-linecap="round" stroke-linejoin="round" stroke-width="5.418495830565884"/>
  <path d="M 33.136812806971776, 41.5196829460562 Q 32.092490212725835, 37.86334323584984, 29.993315558865454, 34.10310782762001 " fill="none" id="curve_4" stroke="#000000" stroke-linecap="round" stroke-linejoin="round" stroke-width="3.1169191654660278"/>
  <path d="M 62.56750296329453, 36.83582941336347 Q 62.31000409159054, 36.79776928536121, 62.1962129769499, 36.58980079313316 " fill="none" id="curve_5" stroke="#000000" stroke-linecap="round" stroke-linejoin="round" stroke-width="5.353618939246335"/>
  <path d="M 62.1962129769499, 36.58980079313316 Q 59.24187607659364, 33.3543340481962, 37.796754315497594, 31.66349335887254 " fill="none" id="curve_5" stroke="#000000" stroke-linecap="round" stroke-linejoin="round" stroke-width="3.403671585789075"/>
  <path d="M 25.63220261764398, 34.15427205520291 Q 26.025806145236587, 33.99997811820853, 26.323115808118963, 33.5835823749823 " fill="none" id="curve_7" stroke="#000000" stroke-linecap="round" stroke-linejoin="round" stroke-width="4.36106848652745"/>
  <path d="M 51.11956896168127, 66.61538641022085 Q 50.40898148550009, 72.42718935477204, 49.91134356789669, 99.11995810291825 " fill="none" id="curve_8" stroke="#000000" stroke-linecap="round" stroke-linejoin="round" stroke-width="3.314871647202152"/>
  <path d="M 53.178288568238315, 67.26019762774493 Q 53.43925029905927, 64.88063331619033, 62.73473576697158, 64.71935043347709 " fill="none" id="curve_9" stroke="#000000" stroke-linecap="round" stroke-linejoin="round" stroke-width="3.0432287128278377"/>
  <path d="M 51.96781978951187, 98.86287322625907 Q 51.888966872774944, 88.73562968959675, 51.680237039200904, 79.11893060950148 " fill="none" id="curve_12" stroke="#000000" stroke-linecap="round" stroke-linejoin="round" stroke-width="2.1456757537671427"/>
  <path d="M 51.680237039200904, 79.11893060950148 Q 51.65649876601262, 66.54796101510266, 50.51565571957059, 65.83286854064634 " fill="none" id="curve_12" stroke="#000000" stroke-linecap="round" stroke-linejoin="round" stroke-width="4.247907282513113"/>
  <path d="M 50.51565571957059, 65.83286854064634 Q 47.08448774396775, 66.71428326410172, 43.77737767379401, 67.97197724339946 " fill="none" id="curve_12" stroke="#000000" stroke-linecap="round" stroke-linejoin="round" stroke-width="3.2777495747395617"/>
  <path d="M 49.205888750413095, 68.81536978879129 Q 48.791676680026036, 69.33577323940038, 48.302350512025924, 70.42946874018394 " fill="none" id="curve_28" stroke="#000000" stroke-linecap="round" stroke-linejoin="round" stroke-width="2.661530886631017"/>
  <path d="M 41.349529219777615, 32.85677292585062 Q 47.30468615100059, 32.59963872016764, 52.62908744250662, 31.75770721923294 " fill="none" id="curve_29" stroke="#000000" stroke-linecap="round" stroke-linejoin="round" stroke-width="2.971020291449371"/>
  <path d="M 37.80954285058022, 31.962525196733928 Q 34.826999691240935, 32.27299844180233, 30.712957164569644, 32.87433547526776 " fill="none" id="curve_31" stroke="#000000" stroke-linecap="round" stroke-linejoin="round" stroke-width="3.2412635264874377"/>
  <path d="M 55.89382639393663, 64.75960178255113 Q 55.07552882553093, 64.3343270930286, 52.99632910308537, 63.652794829085465 " fill="none" id="curve_33" stroke="#000000" stroke-linecap="round" stroke-linejoin="round" stroke-width="3.587635904430757"/>
  <path d="M 59.8219971908118, 37.97541803043229 Q 59.24881227990145, 37.384771835357355, 58.39622764007607, 36.09059891664579 " fill="none" id="curve_37" stroke="#000000" stroke-linecap="round" stroke-linejoin="round" stroke-width="3.4480712045885995"/>
  <path d="M 57.155835734155744, 35.66371282734025 Q 59.030186221612425, 37.357839968673474, 62.211275609262536, 38.78574632781884 " fill="none" id="curve_52" stroke="#000000" stroke-linecap="round" stroke-linejoin="round" stroke-width="3.1466543964040516"/>
  <path d="M 41.81927260096348, 69.93131760051999 Q 45.22314922823286, 68.22134053623732, 54.968109184107725, 67.10087400091126 " fill="none" id="curve_154" stroke="#000000" stroke-linecap="round" stroke-linejoin="round" stroke-width="2.9083053371946335"/>
</svg>
