<?xml version="1.0" ?>
<svg height="140" width="140" xmlns="http://www.w3.org/2000/svg">
  <path d="M 59.718217849731445, 98.07177424430847 Q 69.77357829532579, 97.64942462412517, 76.95807369322188, 95.50324905309846 " fill="none" id="curve_1" stroke="#000000" stroke-linecap="round" stroke-linejoin="round" stroke-width="4.016227338326476"/>
  <path d="M 61.50437487933607, 99.13302041350825 Q 47.432569117396255, 99.06098140018644, 45.66685944818822, 97.71902933677829 " fill="none" id="curve_2" stroke="#000000" stroke-linecap="round" stroke-linejoin="round" stroke-width="7.195693095232161"/>
  <path d="M 45.66685944818822, 97.71902933677829 Q 42.64927493334883, 104.72091846258569, 39.45636970249272, 125.1446253564229 " fill="none" id="curve_2" stroke="#000000" stroke-linecap="round" stroke-linejoin="round" stroke-width="5.231941002434789"/>
  <path d="M 39.45636970249272, 125.1446253564229 Q 39.39571527075733, 132.91305006309858, 39.03336841613653, 134.80879150622417 " fill="none" id="curve_2" stroke="#000000" stroke-linecap="round" stroke-linejoin="round" stroke-width="4.253461753803899"/>
  <path d="M 43.29870697449501, 98.18774966305148 Q 49.93487103912954, 93.34842387883586, 58.83561953712372, 69.15374010925001 " fill="none" id="curve_3" stroke="#000000" stroke-linecap="round" stroke-linejoin="round" stroke-width="4.448725067304236"/>
  <path d="M 58.83561953712372, 69.15374010925001 Q 62.10174324012917, 62.86613460422621, 64.52825580800288, 45.30476965917697 " fill="none" id="curve_3" stroke="#000000" stroke-linecap="round" stroke-linejoin="round" stroke-width="5.217374504029125"/>
  <path d="M 64.52825580800288, 45.30476965917697 Q 63.86537369254472, 37.75546806320829, 58.50880318936869, 35.976369231357744 " fill="none" id="curve_3" stroke="#000000" stroke-linecap="round" stroke-linejoin="round" stroke-width="4.331864644494874"/>
  <path d="M 58.50880318936869, 35.976369231357744 Q 47.50792474182546, 37.11195599066087, 28.39541240199476, 40.62126082102237 " fill="none" id="curve_3" stroke="#000000" stroke-linecap="round" stroke-linejoin="round" stroke-width="4.907624679890949"/>
  <path d="M 28.39541240199476, 40.62126082102237 Q 23.807671679000773, 40.243778998681215, 20.93144471518796, 39.42192498726509 " fill="none" id="curve_3" stroke="#000000" stroke-linecap="round" stroke-linejoin="round" stroke-width="5.306228705430355"/>
  <path d="M 90.51400768671823, 1.9923752951338187 Q 90.13289552450586, 2.0823365694761864, 89.14991891436505, 2.19767950245304 " fill="none" id="curve_6" stroke="#000000" stroke-linecap="round" stroke-linejoin="round" stroke-width="2.4754493473029955"/>
  <path d="M 47.61611923163333, 35.41345743415664 Q 46.0920044415371, 36.96100337252946, 42.01636401345567, 38.14422612863596 " fill="none" id="curve_8" stroke="#000000" stroke-linecap="round" stroke-linejoin="round" stroke-width="3.4283478904505396"/>
  <path d="M 43.958390834042284, 96.00125111452547 Q 36.30230710239175, 96.26204129450801, 23.986417312256446, 96.6022317963903 " fill="none" id="curve_10" stroke="#000000" stroke-linecap="round" stroke-linejoin="round" stroke-width="4.065537492550226"/>
  <path d="M 23.986417312256446, 96.6022317963903 Q 37.73481507935331, 97.13871660876165, 42.75086998123868, 99.11041714726076 " fill="none" id="curve_10" stroke="#000000" stroke-linecap="round" stroke-linejoin="round" stroke-width="3.0118010174511607"/>
  <path d="M 42.75086998123868, 99.11041714726076 Q 45.96412545292722, 98.70191753202677, 65.5227565522861, 98.5892727335319 " fill="none" id="curve_10" stroke="#000000" stroke-linecap="round" stroke-linejoin="round" stroke-width="3.774964036136044"/>
  <path d="M 65.5227565522861, 98.5892727335319 Q 50.465979046411086, 98.39348392359597, 48.525351642170236, 95.23725540481885 " fill="none" id="curve_10" stroke="#000000" stroke-linecap="round" stroke-linejoin="round" stroke-width="3.298072962433758"/>
  <path d="M 24.300276316399167, 98.91257059199182 Q 24.15271158942675, 98.79741830268746, 23.989481442698732, 98.6013958143389 " fill="none" id="curve_11" stroke="#000000" stroke-linecap="round" stroke-linejoin="round" stroke-width="3.6441181429161404"/>
  <path d="M 39.68095747082455, 113.60391778931368 Q 39.89286258109644, 117.11992525742902, 40.29347165663023, 120.43220279972752 " fill="none" id="curve_12" stroke="#000000" stroke-linecap="round" stroke-linejoin="round" stroke-width="3.415968710580517"/>
  <path d="M 59.74259982107688, 64.91893680163744 Q 63.083567423419154, 61.69518526557378, 64.3167589780844, 42.05918125032973 " fill="none" id="curve_15" stroke="#000000" stroke-linecap="round" stroke-linejoin="round" stroke-width="3.4788413270492904"/>
  <path d="M 64.3167589780844, 42.05918125032973 Q 62.11947999263539, 53.58296528953856, 58.16492365563712, 69.0088701076669 " fill="none" id="curve_15" stroke="#000000" stroke-linecap="round" stroke-linejoin="round" stroke-width="2.0926277648913914"/>
  <path d="M 68.0784604169899, 96.95570187824268 Q 66.88733555215441, 96.97988343187171, 65.47681512204991, 97.02101265499421 " fill="none" id="curve_16" stroke="#000000" stroke-linecap="round" stroke-linejoin="round" stroke-width="4.547444965672668"/>
  <path d="M 40.18625196173046, 119.64060176290715 Q 39.9867454348166, 117.23257357901247, 39.59873746407834, 113.61274696624442 " fill="none" id="curve_20" stroke="#000000" stroke-linecap="round" stroke-linejoin="round" stroke-width="3.17291577932809"/>
  <path d="M 53.24756542696332, 85.16247436595995 Q 51.06069645700035, 88.46502336221829, 47.89399855544147, 94.1405847663523 " fill="none" id="curve_26" stroke="#000000" stroke-linecap="round" stroke-linejoin="round" stroke-width="3.5431457321940427"/>
  <path d="M 55.61865780792795, 34.59832646552185 Q 55.63916588627786, 34.65519688383773, 55.68040955753661, 34.729310099226794 " fill="none" id="curve_28" stroke="#000000" stroke-linecap="round" stroke-linejoin="round" stroke-width="3.078961213578165"/>
  <path d="M 53.319018572232736, 88.27494425193352 Q 50.84399109616588, 88.43808698485464, 48.38900138274992, 88.78355618358492 " fill="none" id="curve_31" stroke="#000000" stroke-linecap="round" stroke-linejoin="round" stroke-width="3.5388178902876746"/>
  <path d="M 64.99486223579544, 51.602111611585094 Q 63.97594443748568, 42.828244775927196, 59.17733914455607, 37.34830750420775 " fill="none" id="curve_32" stroke="#000000" stroke-linecap="round" stroke-linejoin="round" stroke-width="2.352716268046426"/>
  <path d="M 58.58040801965882, 74.74837852505497 Q 57.569120906956684, 76.93117240292135, 55.245159235993064, 79.63873823275965 " fill="none" id="curve_48" stroke="#000000" stroke-linecap="round" stroke-linejoin="round" stroke-width="2.530393494297173"/>
  <path d="M 35.00675000023928, 39.87834425883987 Q 33.668786732530535, 39.620447293978465, 31.99121540891415, 39.2053128477187 " fill="none" id="curve_50" stroke="#000000" stroke-linecap="round" stroke-linejoin="round" stroke-width="3.5246170604030005"/>
  <path d="M 39.5032413981732, 117.66773399700374 Q 40.01407931228324, 119.20055090298135, 40.777414118550304, 122.3744665037076 " fill="none" id="curve_57" stroke="#000000" stroke-linecap="round" stroke-linejoin="round" stroke-width="2.820863189142963"/>
  <path d="M 38.770416056864214, 115.27119974177754 Q 40.13635960813123, 120.2950785416811, 41.22089294722873, 129.17997984974397 " fill="none" id="curve_62" stroke="#000000" stroke-linecap="round" stroke-linejoin="round" stroke-width="2.3851396184513054"/>
  <path d="M 33.197723341908, 95.57923161954231 Q 36.00297329217528, 95.88235399957829, 38.94407859362403, 96.86433055433886 " fill="none" id="curve_63" stroke="#000000" stroke-linecap="round" stroke-linejoin="round" stroke-width="2.3630315729387403"/>
  <path d="M 63.32261838487398, 41.60948516436495 Q 64.30444557238141, 40.46244347231531, 65.80746672976575, 39.1169151157053 " fill="none" id="curve_79" stroke="#000000" stroke-linecap="round" stroke-linejoin="round" stroke-width="2.463351043534248"/>
  <path d="M 67.52177931958187, 99.41710182693693 Q 68.14831862595639, 98.0658811518122, 70.2499102375388, 97.4981385090252 " fill="none" id="curve_94" stroke="#000000" stroke-linecap="round" stroke-linejoin="round" stroke-width="2.2681119474352163"/>
  <path d="M 51.11026553822883, 96.30938174175046 Q 50.355155345122526, 93.3232839952712, 48.56955939645428, 91.38371236871808 " fill="none" id="curve_95" stroke="#000000" stroke-linecap="round" stroke-linejoin="round" stroke-width="2.6336307428812455"/>
  <path d="M 63.15856172154395, 56.18413273826104 Q 64.04652096490074, 56.18646768750591, 64.5944145274615, 56.19650355108401 " fill="none" id="curve_110" stroke="#000000" stroke-linecap="round" stroke-linejoin="round" stroke-width="2.9725239036644084"/>
  <path d="M 38.84191554078723, 135.83261185830384 Q 38.76529823977214, 135.94642447174655, 38.5795578848101, 136.03000884956072 " fill="none" id="curve_127" stroke="#000000" stroke-linecap="round" stroke-linejoin="round" stroke-width="2.44578544011098"/>
  <path d="M 40.066337859939196, 118.50193619210182 Q 40.87306341040652, 119.25420232195896, 42.03056408161645, 120.0226151589041 " fill="none" id="curve_128" stroke="#000000" stroke-linecap="round" stroke-linejoin="round" stroke-width="4.9524234805049625"/>
  <path d="M 37.734125697529294, 39.68546028849675 Q 38.85746887624046, 37.32947316414739, 46.174256326766525, 36.49053718859605 " fill="none" id="curve_135" stroke="#000000" stroke-linecap="round" stroke-linejoin="round" stroke-width="2.8801127737363417"/>
  <path d="M 55.432369895369064, 34.912426018294575 Q 53.91625138481634, 35.22399978058708, 51.01402774709682, 35.81263779795596 " fill="none" id="curve_141" stroke="#000000" stroke-linecap="round" stroke-linejoin="round" stroke-width="2.705011259463442"/>
  <path d="M 62.630565396398964, 45.765945304003736 Q 63.18635290473914, 45.7895370354176, 63.7309280995728, 45.868564420373595 " fill="none" id="curve_143" stroke="#000000" stroke-linecap="round" stroke-linejoin="round" stroke-width="2.8570376197353347"/>
  <path d="M 62.37449976012554, 48.17103607931386 Q 62.68358202588354, 46.12387965269467, 63.30257571346837, 43.66617708507213 " fill="none" id="curve_148" stroke="#000000" stroke-linecap="round" stroke-linejoin="round" stroke-width="3.007080292225176"/>
</svg>
