<?xml version="1.0" ?>
<svg height="140" width="140" xmlns="http://www.w3.org/2000/svg">
  <path d="M 89.17679595947266, 31.321372985839844 Q 88.44743208262379, 30.87259012331907, 88.33096531958928, 14.547091568533006 " fill="none" id="curve_1" stroke="#000000" stroke-linecap="round" stroke-linejoin="round" stroke-width="4.675876120956813"/>
  <path d="M 88.33096531958928, 14.547091568533006 Q 88.30271576610238, 4.967274085505055, 88.07645747816169, 2.4006386145244427 " fill="none" id="curve_1" stroke="#000000" stroke-linecap="round" stroke-linejoin="round" stroke-width="4.89526961205909"/>
  <path d="M 87.27895102101003, 28.03226407499856 Q 87.81235653103244, 29.53225130206108, 87.96480508238533, 57.22700747292963 " fill="none" id="curve_2" stroke="#000000" stroke-linecap="round" stroke-linejoin="round" stroke-width="5.714207564584399"/>
  <path d="M 87.96480508238533, 57.22700747292963 Q 88.0064776047288, 64.64235236237528, 88.11711807111467, 86.4295285052841 " fill="none" id="curve_2" stroke="#000000" stroke-linecap="round" stroke-linejoin="round" stroke-width="5.414177143662319"/>
  <path d="M 88.11711807111467, 86.4295285052841 Q 88.08470722400432, 96.95311940977552, 87.90821760684364, 116.1083439888788 " fill="none" id="curve_2" stroke="#000000" stroke-linecap="round" stroke-linejoin="round" stroke-width="5.198332646395863"/>
  <path d="M 87.90821760684364, 116.1083439888788 Q 87.89067959199224, 128.5887555650989, 87.85891606626225, 138.49147290891918 " fill="none" id="curve_2" stroke="#000000" stroke-linecap="round" stroke-linejoin="round" stroke-width="5.13242949510887"/>
  <path d="M 87.85891606626225, 138.49147290891918 Q 87.50356072559418, 138.17562854252574, 87.1585318797341, 137.6862846295054 " fill="none" id="curve_2" stroke="#000000" stroke-linecap="round" stroke-linejoin="round" stroke-width="3.160106710691647"/>
  <path d="M 87.93180275661202, 114.97909419925766 Q 86.76754568935087, 113.57309272912677, 86.51201121252201, 95.72431610883044 " fill="none" id="curve_4" stroke="#000000" stroke-linecap="round" stroke-linejoin="round" stroke-width="2.3667560793251208"/>
  <path d="M 89.05121914925681, 50.716189079139205 Q 88.95929127489099, 46.17130237690678, 88.88033849101781, 33.003476100068966 " fill="none" id="curve_6" stroke="#000000" stroke-linecap="round" stroke-linejoin="round" stroke-width="2.9380666136907285"/>
  <path d="M 88.88033849101781, 33.003476100068966 Q 87.85179930938398, 27.061550412794464, 86.38135996086669, 18.64941677634915 " fill="none" id="curve_6" stroke="#000000" stroke-linecap="round" stroke-linejoin="round" stroke-width="2.791415714927445"/>
  <path d="M 86.0952164837257, 2.6674281824557244 Q 86.57873110294189, 2.4841269112823134, 86.9739773060561, 2.1640092584494033 " fill="none" id="curve_7" stroke="#000000" stroke-linecap="round" stroke-linejoin="round" stroke-width="4.454899197216308"/>
  <path d="M 85.66161364849786, 38.30271843630779 Q 86.380559290379, 42.3073592063685, 86.95632999329679, 49.84876420423931 " fill="none" id="curve_9" stroke="#000000" stroke-linecap="round" stroke-linejoin="round" stroke-width="2.462376297625419"/>
  <path d="M 47.001663831669, 70.04962872263069 Q 46.40580980472244, 67.94026525644566, 33.821666599304464, 67.58407740242177 " fill="none" id="curve_13" stroke="#000000" stroke-linecap="round" stroke-linejoin="round" stroke-width="5.511208769394203"/>
  <path d="M 33.821666599304464, 67.58407740242177 Q 34.692218939597986, 62.22505097649817, 37.18275570455476, 57.46103025661219 " fill="none" id="curve_13" stroke="#000000" stroke-linecap="round" stroke-linejoin="round" stroke-width="6.04293069791182"/>
  <path d="M 37.18275570455476, 57.46103025661219 Q 36.958214667074614, 41.25234360303981, 33.2642365165663, 37.84776861227144 " fill="none" id="curve_13" stroke="#000000" stroke-linecap="round" stroke-linejoin="round" stroke-width="8.034613712631296"/>
  <path d="M 33.2642365165663, 37.84776861227144 Q 32.83293940116303, 34.93433076474207, 24.257553209820916, 34.617715300474586 " fill="none" id="curve_13" stroke="#000000" stroke-linecap="round" stroke-linejoin="round" stroke-width="5.406997297185799"/>
  <path d="M 30.231523721737965, 66.08597004878169 Q 30.388515982717404, 67.57381138639066, 35.367051725873864, 67.8049589895123 " fill="none" id="curve_14" stroke="#000000" stroke-linecap="round" stroke-linejoin="round" stroke-width="7.426488657504066"/>
  <path d="M 35.367051725873864, 67.8049589895123 Q 32.56361165408241, 76.24466583007339, 24.04113000559917, 93.87856155880891 " fill="none" id="curve_14" stroke="#000000" stroke-linecap="round" stroke-linejoin="round" stroke-width="4.869712115329907"/>
  <path d="M 24.04113000559917, 93.87856155880891 Q 24.06118319269968, 97.8149959563249, 24.268095842224767, 98.4284106013022 " fill="none" id="curve_14" stroke="#000000" stroke-linecap="round" stroke-linejoin="round" stroke-width="6.005173701838182"/>
  <path d="M 15.683328335308856, 69.21036936813613 Q 16.34184298342676, 68.0707611750951, 29.68962831341683, 67.9398792000632 " fill="none" id="curve_15" stroke="#000000" stroke-linecap="round" stroke-linejoin="round" stroke-width="6.380013438595213"/>
  <path d="M 15.073838554020769, 67.62570854353345 Q 15.46486763116692, 67.76254536220208, 16.288564680975014, 68.00636242245982 " fill="none" id="curve_21" stroke="#000000" stroke-linecap="round" stroke-linejoin="round" stroke-width="3.8845139202420667"/>
  <path d="M 16.288564680975014, 68.00636242245982 Q 16.755282504474618, 67.91923854663912, 17.958178654303477, 67.75570861357731 " fill="none" id="curve_21" stroke="#000000" stroke-linecap="round" stroke-linejoin="round" stroke-width="3.6987315786480663"/>
  <path d="M 26.49711286784184, 96.3090820295975 Q 26.34059017318377, 93.43447487263013, 25.51135270098414, 92.41938633286311 " fill="none" id="curve_22" stroke="#000000" stroke-linecap="round" stroke-linejoin="round" stroke-width="6.139596776289417"/>
  <path d="M 37.69973919871576, 53.39980691043834 Q 38.878007427219295, 51.540389127576006, 39.475259651542245, 42.32556715116377 " fill="none" id="curve_23" stroke="#000000" stroke-linecap="round" stroke-linejoin="round" stroke-width="2.5887772099905852"/>
  <path d="M 23.741544002828718, 35.13767740549922 Q 24.26493986344479, 33.52638098715428, 25.99011623543541, 32.460556324865294 " fill="none" id="curve_25" stroke="#000000" stroke-linecap="round" stroke-linejoin="round" stroke-width="3.01612546815754"/>
  <path d="M 13.3831918972622, 68.78904649245831 Q 16.118936251728627, 68.18502842858335, 18.40199061100596, 66.48408888175727 " fill="none" id="curve_27" stroke="#000000" stroke-linecap="round" stroke-linejoin="round" stroke-width="2.9328403725689562"/>
  <path d="M 18.40199061100596, 66.48408888175727 Q 29.140223365562893, 67.20491930406016, 32.80523822605469, 70.9318805277717 " fill="none" id="curve_27" stroke="#000000" stroke-linecap="round" stroke-linejoin="round" stroke-width="2.5434621795814296"/>
  <path d="M 26.889568328857422, 71.82096862792969 Q 26.737738997056304, 65.53961556058937, 18.680696416731507, 65.11469290184618 " fill="none" id="curve_41" stroke="#000000" stroke-linecap="round" stroke-linejoin="round" stroke-width="3.2100307246836626"/>
  <path d="M 37.39337710496486, 69.52749393255955 Q 31.19874839788563, 72.58746460719853, 27.52123750495766, 81.18247328791513 " fill="none" id="curve_42" stroke="#000000" stroke-linecap="round" stroke-linejoin="round" stroke-width="3.0421330101270585"/>
  <path d="M 22.291006357223896, 99.26118481709905 Q 22.9331833107018, 92.96786369375162, 25.624901776719653, 90.07357413452738 " fill="none" id="curve_43" stroke="#000000" stroke-linecap="round" stroke-linejoin="round" stroke-width="2.98687969336604"/>
  <path d="M 34.412895423882674, 59.14014109417248 Q 35.77519047741047, 56.33060676683538, 38.13270080520939, 53.3768924275183 " fill="none" id="curve_44" stroke="#000000" stroke-linecap="round" stroke-linejoin="round" stroke-width="3.1015010464916757"/>
  <path d="M 27.754117481841675, 33.213675083931065 Q 24.810095238838297, 33.79300030036882, 23.20910321995349, 36.30067141638776 " fill="none" id="curve_47" stroke="#000000" stroke-linecap="round" stroke-linejoin="round" stroke-width="3.6603368389399935"/>
  <path d="M 87.26312777277381, 1.5687167729617713 Q 88.32776688664896, 1.556252515975815, 89.7128493112451, 1.5253673732663762 " fill="none" id="curve_53" stroke="#000000" stroke-linecap="round" stroke-linejoin="round" stroke-width="1.8339452313642137"/>
  <path d="M 88.85445514504384, 54.55525898953598 Q 88.81946353386626, 53.618453343534306, 88.72311698278257, 52.985188869986054 " fill="none" id="curve_82" stroke="#000000" stroke-linecap="round" stroke-linejoin="round" stroke-width="2.7478859945107876"/>
  <path d="M 86.78778415524346, 84.58977997236593 Q 86.27876749797494, 81.38851347127186, 85.88116350322434, 71.68482085547123 " fill="none" id="curve_110" stroke="#000000" stroke-linecap="round" stroke-linejoin="round" stroke-width="1.6236577930169152"/>
  <path d="M 23.54828850229574, 34.26039004892683 Q 24.324427242767882, 33.61946329640138, 26.872195308947248, 33.096120368961984 " fill="none" id="curve_159" stroke="#000000" stroke-linecap="round" stroke-linejoin="round" stroke-width="2.6961670518785494"/>
  <path d="M 26.576195792439616, 35.29891753505311 Q 27.411690304886328, 34.54861093499488, 29.84675084555172, 33.69635692555796 " fill="none" id="curve_164" stroke="#000000" stroke-linecap="round" stroke-linejoin="round" stroke-width="2.592555236064234"/>
  <path d="M 17.886058062508415, 69.77209549400102 Q 19.027390189985105, 69.73713178920052, 22.363873720435077, 69.69719075849821 " fill="none" id="curve_171" stroke="#000000" stroke-linecap="round" stroke-linejoin="round" stroke-width="2.920152712332954"/>
</svg>
