<?xml version="1.0" ?>
<svg height="140" width="140" xmlns="http://www.w3.org/2000/svg">
  <path d="M 27.11400604248047, 44.272361755371094 Q 25.273348972560157, 44.13613085178896, 23.45320755881494, 43.838005570465825 " fill="none" id="curve_1" stroke="#000000" stroke-linecap="round" stroke-linejoin="round" stroke-width="6.085530308149122"/>
  <path d="M 23.45320755881494, 43.838005570465825 Q 29.611794165405858, 43.681684422442885, 32.86163967253306, 43.09513356241835 " fill="none" id="curve_1" stroke="#000000" stroke-linecap="round" stroke-linejoin="round" stroke-width="5.294033841434832"/>
  <path d="M 32.86163967253306, 43.09513356241835 Q 52.14051212374089, 44.8111680631427, 56.609797953131135, 54.28642996837378 " fill="none" id="curve_1" stroke="#000000" stroke-linecap="round" stroke-linejoin="round" stroke-width="6.510739686681971"/>
  <path d="M 56.609797953131135, 54.28642996837378 Q 55.281547782286005, 67.51967921947407, 46.67183567778737, 76.32778720125931 " fill="none" id="curve_1" stroke="#000000" stroke-linecap="round" stroke-linejoin="round" stroke-width="5.478342988199963"/>
  <path d="M 46.67183567778737, 76.32778720125931 Q 41.51043602860912, 85.77577095256825, 36.630601482062346, 97.43583082682407 " fill="none" id="curve_1" stroke="#000000" stroke-linecap="round" stroke-linejoin="round" stroke-width="6.627132395567493"/>
  <path d="M 30.342023717403038, 67.22722578088049 Q 35.05763161318608, 68.4323303851375, 58.854140226523754, 68.86175057828703 " fill="none" id="curve_2" stroke="#000000" stroke-linecap="round" stroke-linejoin="round" stroke-width="6.870437758591395"/>
  <path d="M 58.854140226523754, 68.86175057828703 Q 63.564517962528214, 69.47529641663253, 82.64518560538033, 69.68188325765186 " fill="none" id="curve_2" stroke="#000000" stroke-linecap="round" stroke-linejoin="round" stroke-width="4.3913449358014205"/>
  <path d="M 33.036151236604354, 63.83260723697971 Q 33.59328636924189, 66.43087987681501, 37.27171781969271, 67.24538865803757 " fill="none" id="curve_4" stroke="#000000" stroke-linecap="round" stroke-linejoin="round" stroke-width="4.186834437953492"/>
  <path d="M 1.9321492317373057, 134.42167966459624 Q 2.48924725617539, 137.1666921707365, 4.56071267425137, 138.47686236426782 " fill="none" id="curve_6" stroke="#000000" stroke-linecap="round" stroke-linejoin="round" stroke-width="4.114048071848006"/>
  <path d="M 4.56071267425137, 138.47686236426782 Q 2.6023975342432837, 137.67736487103159, 1.8919025083797067, 133.04321037710093 " fill="none" id="curve_6" stroke="#000000" stroke-linecap="round" stroke-linejoin="round" stroke-width="2.9965774870273534"/>
  <path d="M 1.8919025083797067, 133.04321037710093 Q 1.2429654494972464, 130.03213936853834, 0.9027046266605454, 113.89739088144896 " fill="none" id="curve_6" stroke="#000000" stroke-linecap="round" stroke-linejoin="round" stroke-width="2.059185069864923"/>
  <path d="M 37.65512905579757, 98.70957079744866 Q 37.40187324459953, 93.96596313878848, 36.39684655700997, 90.67508015055593 " fill="none" id="curve_7" stroke="#000000" stroke-linecap="round" stroke-linejoin="round" stroke-width="5.455183062499362"/>
  <path d="M 36.39684655700997, 90.67508015055593 Q 42.92716713561587, 82.82785377007231, 53.04062090210223, 72.84775339539462 " fill="none" id="curve_7" stroke="#000000" stroke-linecap="round" stroke-linejoin="round" stroke-width="3.758520787003541"/>
  <path d="M 53.04062090210223, 72.84775339539462 Q 53.599237831688384, 60.868099596440835, 55.53908236665785, 54.113513041648645 " fill="none" id="curve_7" stroke="#000000" stroke-linecap="round" stroke-linejoin="round" stroke-width="3.8104788265842053"/>
  <path d="M 25.712160650029347, 41.6281852971114 Q 42.64330721526818, 42.13549132395415, 50.677471434466064, 45.86848511112841 " fill="none" id="curve_10" stroke="#000000" stroke-linecap="round" stroke-linejoin="round" stroke-width="2.634241535216715"/>
  <path d="M 1.0302792197493014, 68.82017732232086 Q 0.9025640588861874, 83.56527799900094, 0.41735458574540263, 104.37649642178671 " fill="none" id="curve_16" stroke="#000000" stroke-linecap="round" stroke-linejoin="round" stroke-width="1.5888650960730295"/>
  <path d="M 0.41735458574540263, 104.37649642178671 Q 0.5427973011029974, 108.74924315663095, 0.9505824340296043, 111.56931182256814 " fill="none" id="curve_16" stroke="#000000" stroke-linecap="round" stroke-linejoin="round" stroke-width="2.274028238579558"/>
  <path d="M 36.29128317961261, 97.75881497320036 Q 37.7611154042475, 96.7222696386898, 39.04008735870088, 94.0705459977084 " fill="none" id="curve_17" stroke="#000000" stroke-linecap="round" stroke-linejoin="round" stroke-width="4.966981775236305"/>
  <path d="M 1.2475931460673593, 61.064396046525864 Q 1.1668676713791288, 56.46524281761104, 1.0865443096372929, 43.80296121625466 " fill="none" id="curve_19" stroke="#000000" stroke-linecap="round" stroke-linejoin="round" stroke-width="1.64639544490742"/>
  <path d="M 1.0865443096372929, 43.80296121625466 Q 1.1190118927193196, 38.90268873362539, 1.1707732794207448, 30.36768347046921 " fill="none" id="curve_19" stroke="#000000" stroke-linecap="round" stroke-linejoin="round" stroke-width="1.6602925393021766"/>
  <path d="M 1.1707732794207448, 30.36768347046921 Q 1.1579516503212763, 26.35688643636304, 1.1431341960377992, 16.785986530920553 " fill="none" id="curve_19" stroke="#000000" stroke-linecap="round" stroke-linejoin="round" stroke-width="1.5778429395886853"/>
  <path d="M 1.1431341960377992, 16.785986530920553 Q 1.0379418203283, 11.910200217165603, 0.8829277381231686, 3.176001627012276 " fill="none" id="curve_19" stroke="#000000" stroke-linecap="round" stroke-linejoin="round" stroke-width="1.6038567991922743"/>
  <path d="M 32.26244374959454, 42.8629745339061 Q 41.329209999229384, 44.34450556179832, 46.16135794110053, 47.845556933885945 " fill="none" id="curve_22" stroke="#000000" stroke-linecap="round" stroke-linejoin="round" stroke-width="2.3741605906013015"/>
  <path d="M 46.16135794110053, 47.845556933885945 Q 55.97570101948812, 50.39417947766459, 58.5392499253217, 62.33869039555534 " fill="none" id="curve_22" stroke="#000000" stroke-linecap="round" stroke-linejoin="round" stroke-width="2.439563224530745"/>
  <path d="M 35.4518448522046, 95.37756490843266 Q 36.05452453480877, 95.94039648366993, 36.77664141685372, 96.77175169052568 " fill="none" id="curve_26" stroke="#000000" stroke-linecap="round" stroke-linejoin="round" stroke-width="5.471612381983169"/>
  <path d="M 2.0562854655390055, 138.36854138955573 Q 2.344311568500441, 138.10646519516882, 2.798535242127562, 137.74257185389223 " fill="none" id="curve_27" stroke="#000000" stroke-linecap="round" stroke-linejoin="round" stroke-width="3.983298670731969"/>
  <path d="M 28.431006016751596, 44.34736740834693 Q 38.685382768742315, 44.52409542523589, 47.03424146282799, 45.065444039150016 " fill="none" id="curve_48" stroke="#000000" stroke-linecap="round" stroke-linejoin="round" stroke-width="2.4046150118799727"/>
  <path d="M 33.837079270332566, 65.58379321413757 Q 33.28803852685043, 65.42291119045274, 32.095872747812805, 65.26839259362247 " fill="none" id="curve_50" stroke="#000000" stroke-linecap="round" stroke-linejoin="round" stroke-width="4.26684049453599"/>
  <path d="M 36.64064615647037, 95.85959261413119 Q 40.51719699578535, 85.22385446414002, 50.258428276743146, 69.48850732500125 " fill="none" id="curve_60" stroke="#000000" stroke-linecap="round" stroke-linejoin="round" stroke-width="3.296650950352971"/>
  <path d="M 0.5293673996774899, 65.71008320538812 Q 0.8596395100601555, 66.0222453123585, 1.6836271698264964, 66.81569030861313 " fill="none" id="curve_70" stroke="#000000" stroke-linecap="round" stroke-linejoin="round" stroke-width="1.9522482574245574"/>
  <path d="M 46.80244354090701, 70.93168225672343 Q 43.97206360093659, 76.90836941823606, 37.522576629305995, 86.11093747252082 " fill="none" id="curve_137" stroke="#000000" stroke-linecap="round" stroke-linejoin="round" stroke-width="2.660588743092257"/>
  <path d="M 33.68709420764335, 65.19680745271211 Q 36.77322206501289, 66.22106155670912, 41.40704509475454, 68.3680452892234 " fill="none" id="curve_138" stroke="#000000" stroke-linecap="round" stroke-linejoin="round" stroke-width="2.1231487553031227"/>
  <path d="M 36.42703628540039, 96.78093528747559 Q 36.52690169218962, 96.53537818938435, 36.74690581867293, 96.34213941697145 " fill="none" id="curve_152" stroke="#000000" stroke-linecap="round" stroke-linejoin="round" stroke-width="5.835563764100392"/>
  <path d="M 36.5117577767425, 67.33676651434003 Q 37.21177506184499, 67.4828801905358, 39.452591235137675, 67.7635145899138 " fill="none" id="curve_154" stroke="#000000" stroke-linecap="round" stroke-linejoin="round" stroke-width="2.3595245353389296"/>
  <path d="M 35.38262294798915, 96.47369107774284 Q 35.97651531544303, 97.01475863136979, 38.34090053460331, 97.24291522322274 " fill="none" id="curve_169" stroke="#000000" stroke-linecap="round" stroke-linejoin="round" stroke-width="4.28184867363233"/>
  <path d="M 52.69108468235891, 48.137486064245664 Q 54.01746024356784, 48.949616563486146, 55.55963441430014, 51.67193788782083 " fill="none" id="curve_185" stroke="#000000" stroke-linecap="round" stroke-linejoin="round" stroke-width="3.2951851420539082"/>
  <path d="M 35.84871368365285, 67.8603155063889 Q 37.94563948860839, 68.26359044495922, 41.978515271732064, 69.064685158466 " fill="none" id="curve_193" stroke="#000000" stroke-linecap="round" stroke-linejoin="round" stroke-width="2.501589439899237"/>
</svg>
