<?xml version="1.0" ?>
<svg height="140" width="140" xmlns="http://www.w3.org/2000/svg">
  <path d="M 49.82508151999809, 117.7188226082979 Q 51.06665947005692, 116.9639318055025, 51.24444736859092, 100.04309639136021 " fill="none" id="curve_2" stroke="#000000" stroke-linecap="round" stroke-linejoin="round" stroke-width="4.2278803195911125"/>
  <path d="M 51.24444736859092, 100.04309639136021 Q 52.3547242884843, 92.6781470164317, 53.94520491391437, 82.09451247793979 " fill="none" id="curve_2" stroke="#000000" stroke-linecap="round" stroke-linejoin="round" stroke-width="6.0830868877866"/>
  <path d="M 53.94520491391437, 82.09451247793979 Q 56.47435194086185, 78.36766779213353, 57.790542435154755, 57.67108838964292 " fill="none" id="curve_2" stroke="#000000" stroke-linecap="round" stroke-linejoin="round" stroke-width="4.986217477514678"/>
  <path d="M 57.790542435154755, 57.67108838964292 Q 60.56542027962275, 55.94425347174861, 61.20310978585535, 44.84645324109309 " fill="none" id="curve_2" stroke="#000000" stroke-linecap="round" stroke-linejoin="round" stroke-width="6.333369396932052"/>
  <path d="M 61.20310978585535, 44.84645324109309 Q 40.1123885120938, 44.00601126628053, 33.372365745274614, 37.789304131075674 " fill="none" id="curve_2" stroke="#000000" stroke-linecap="round" stroke-linejoin="round" stroke-width="4.248289563539338"/>
  <path d="M 33.372365745274614, 37.789304131075674 Q 33.17060782995427, 37.309981859187666, 32.87651382263086, 36.89297455353744 " fill="none" id="curve_2" stroke="#000000" stroke-linecap="round" stroke-linejoin="round" stroke-width="5.036923038980047"/>
  <path d="M 30.833093950603846, 78.58072574896485 Q 42.72647804012275, 80.74611765582478, 55.387908456141844, 83.25455989183607 " fill="none" id="curve_3" stroke="#000000" stroke-linecap="round" stroke-linejoin="round" stroke-width="6.008908431987739"/>
  <path d="M 55.387908456141844, 83.25455989183607 Q 64.07540569597899, 80.01987501373087, 81.93728304116475, 77.65385476058968 " fill="none" id="curve_3" stroke="#000000" stroke-linecap="round" stroke-linejoin="round" stroke-width="4.252908282640979"/>
  <path d="M 55.63821262518257, 41.87753274332361 Q 54.60013197880289, 42.0564265770876, 53.30432201269383, 42.35133227925898 " fill="none" id="curve_5" stroke="#000000" stroke-linecap="round" stroke-linejoin="round" stroke-width="4.229860196613606"/>
  <path d="M 55.52326965332031, 81.40268969535828 Q 57.895053561788686, 81.2019953398496, 58.03230628282793, 72.74098098785703 " fill="none" id="curve_19" stroke="#000000" stroke-linecap="round" stroke-linejoin="round" stroke-width="2.806860990511642"/>
  <path d="M 43.76770761460952, 82.55775090554869 Q 42.9097343979793, 78.70140584288986, 33.44556321018547, 77.5888902901336 " fill="none" id="curve_20" stroke="#000000" stroke-linecap="round" stroke-linejoin="round" stroke-width="3.065157720838545"/>
  <path d="M 33.44556321018547, 77.5888902901336 Q 44.122357703819134, 79.73741807333792, 50.71774087760379, 84.3913806337275 " fill="none" id="curve_20" stroke="#000000" stroke-linecap="round" stroke-linejoin="round" stroke-width="3.3874632203797197"/>
  <path d="M 50.71774087760379, 84.3913806337275 Q 54.809309324431446, 80.89152070996094, 67.38153661502567, 78.75805383599226 " fill="none" id="curve_20" stroke="#000000" stroke-linecap="round" stroke-linejoin="round" stroke-width="2.7196434816983586"/>
  <path d="M 57.677670019821186, 55.09879155033569 Q 57.71049243492208, 49.9705501843773, 58.75850588298615, 49.5675171182991 " fill="none" id="curve_21" stroke="#000000" stroke-linecap="round" stroke-linejoin="round" stroke-width="3.1582425491889605"/>
  <path d="M 37.85859754180484, 39.91924903240021 Q 37.410324873151914, 37.30802550768864, 34.50404359112264, 36.602945124492685 " fill="none" id="curve_22" stroke="#000000" stroke-linecap="round" stroke-linejoin="round" stroke-width="3.602661669957293"/>
  <path d="M 60.575681643880586, 42.333815451256704 Q 59.34324984229041, 42.67407844030373, 55.978900461666036, 42.988589475501115 " fill="none" id="curve_23" stroke="#000000" stroke-linecap="round" stroke-linejoin="round" stroke-width="2.5588511041430735"/>
  <path d="M 84.03161885839407, 77.86153260226749 Q 83.76766112495277, 77.34616181716991, 82.32715741203604, 77.07469670276099 " fill="none" id="curve_24" stroke="#000000" stroke-linecap="round" stroke-linejoin="round" stroke-width="2.5701778509790976"/>
  <path d="M 74.3135102289656, 77.65769902674754 Q 63.79697936819609, 78.23179700675425, 56.32848739355255, 81.55054290917619 " fill="none" id="curve_39" stroke="#000000" stroke-linecap="round" stroke-linejoin="round" stroke-width="2.3967197722662537"/>
  <path d="M 56.32848739355255, 81.55054290917619 Q 46.91568645366943, 80.98576188157374, 40.34001272662203, 78.81001184633388 " fill="none" id="curve_39" stroke="#000000" stroke-linecap="round" stroke-linejoin="round" stroke-width="2.4425258209376537"/>
  <path d="M 35.31441846461744, 40.79156540676235 Q 35.90796231399753, 41.54841031917783, 37.60139620543215, 42.20214211535896 " fill="none" id="curve_40" stroke="#000000" stroke-linecap="round" stroke-linejoin="round" stroke-width="3.3811052585278225"/>
  <path d="M 51.15868265365052, 93.70077921232168 Q 51.69923298087807, 95.35401269406816, 52.59103737982877, 97.2438518293123 " fill="none" id="curve_44" stroke="#000000" stroke-linecap="round" stroke-linejoin="round" stroke-width="4.181704370258673"/>
  <path d="M 48.89531396393066, 113.73877583231484 Q 49.55323666454286, 113.34598060192266, 50.14313978777219, 112.49093745343812 " fill="none" id="curve_45" stroke="#000000" stroke-linecap="round" stroke-linejoin="round" stroke-width="4.046537445461419"/>
  <path d="M 55.2314409832952, 65.61410815244585 Q 57.897447813220666, 61.860450427852335, 61.03806540684569, 56.46778999268937 " fill="none" id="curve_63" stroke="#000000" stroke-linecap="round" stroke-linejoin="round" stroke-width="2.466616682207826"/>
  <path d="M 30.688059235131252, 37.61252979899741 Q 30.8895751190146, 37.18765885106703, 31.30380947343899, 36.68974752132809 " fill="none" id="curve_121" stroke="#000000" stroke-linecap="round" stroke-linejoin="round" stroke-width="2.2869395428511403"/>
</svg>
