<?xml version="1.0" ?>
<svg height="140" width="140" xmlns="http://www.w3.org/2000/svg">
  <path d="M 31.691102027893066, 81.75668001174927 Q 29.622764326677192, 85.5000111418879, 26.067365976768997, 88.14879090830334 " fill="none" id="curve_1" stroke="#000000" stroke-linecap="round" stroke-linejoin="round" stroke-width="5.850686204934575"/>
  <path d="M 26.067365976768997, 88.14879090830334 Q 30.88797237210815, 82.53181650770391, 39.52979913419665, 70.06116642783857 " fill="none" id="curve_1" stroke="#000000" stroke-linecap="round" stroke-linejoin="round" stroke-width="4.793826066282717"/>
  <path d="M 39.52979913419665, 70.06116642783857 Q 44.50636057620569, 64.3881033282394, 50.86601898200091, 55.05728572755417 " fill="none" id="curve_1" stroke="#000000" stroke-linecap="round" stroke-linejoin="round" stroke-width="5.191221915823933"/>
  <path d="M 50.86601898200091, 55.05728572755417 Q 58.734042223844696, 46.31936976194004, 71.31700944139357, 30.107090493746675 " fill="none" id="curve_1" stroke="#000000" stroke-linecap="round" stroke-linejoin="round" stroke-width="5.301337777930542"/>
  <path d="M 71.31700944139357, 30.107090493746675 Q 63.429710837108544, 33.97523440596712, 34.6421032674911, 41.16055681968704 " fill="none" id="curve_1" stroke="#000000" stroke-linecap="round" stroke-linejoin="round" stroke-width="4.63394612451654"/>
  <path d="M 34.6421032674911, 41.16055681968704 Q 32.450811223640876, 41.544390388522274, 17.19729394014844, 41.626677610608525 " fill="none" id="curve_1" stroke="#000000" stroke-linecap="round" stroke-linejoin="round" stroke-width="4.9892755567396"/>
  <path d="M 30.182530472468926, 59.22121285597519 Q 41.089624816889746, 60.31483270845555, 64.22462236116952, 61.362896821917126 " fill="none" id="curve_2" stroke="#000000" stroke-linecap="round" stroke-linejoin="round" stroke-width="5.269281173743989"/>
  <path d="M 64.22462236116952, 61.362896821917126 Q 66.7052506030209, 60.968590140665356, 68.24279980762958, 60.085774644114736 " fill="none" id="curve_2" stroke="#000000" stroke-linecap="round" stroke-linejoin="round" stroke-width="3.4178463247819506"/>
  <path d="M 73.63714859565152, 30.00182373791981 Q 72.98187828960414, 29.717941926742423, 72.23018621973063, 29.28141139983585 " fill="none" id="curve_3" stroke="#000000" stroke-linecap="round" stroke-linejoin="round" stroke-width="5.425983392716915"/>
  <path d="M 88.99393695661647, 3.9352969443015837 Q 89.11278858917694, 2.9312914283435783, 89.29962264456996, 1.473458059301219 " fill="none" id="curve_4" stroke="#000000" stroke-linecap="round" stroke-linejoin="round" stroke-width="2.0897467232793083"/>
  <path d="M 21.42285873655762, 41.595979413212135 Q 19.780152588650527, 40.44280232915614, 15.728752331912077, 39.694360335054924 " fill="none" id="curve_6" stroke="#000000" stroke-linecap="round" stroke-linejoin="round" stroke-width="3.4139562836721797"/>
  <path d="M 29.02982098218648, 43.62838364862742 Q 40.504282030121786, 38.766971108623416, 61.23524151146638, 33.1426572643723 " fill="none" id="curve_8" stroke="#000000" stroke-linecap="round" stroke-linejoin="round" stroke-width="2.9892366506372032"/>
  <path d="M 59.87862018426298, 44.43834747154532 Q 62.58265041690322, 37.675218569250895, 68.25841147378317, 31.00207954855747 " fill="none" id="curve_9" stroke="#000000" stroke-linecap="round" stroke-linejoin="round" stroke-width="3.119148864217088"/>
  <path d="M 25.186648913504445, 43.97579967612634 Q 24.33934379490573, 43.251276858340084, 22.691803693288662, 42.51778681637711 " fill="none" id="curve_25" stroke="#000000" stroke-linecap="round" stroke-linejoin="round" stroke-width="3.2001322406253956"/>
  <path d="M 50.937645927746445, 55.29762562377329 Q 46.82374704464352, 59.37030537548834, 42.13813430558556, 67.3086979457954 " fill="none" id="curve_48" stroke="#000000" stroke-linecap="round" stroke-linejoin="round" stroke-width="3.667160532463293"/>
  <path d="M 42.54835510253906, 38.141845703125 Q 47.62138064573032, 37.86112289719619, 55.955122185640676, 37.268730736038435 " fill="none" id="curve_75" stroke="#000000" stroke-linecap="round" stroke-linejoin="round" stroke-width="2.4622817156736447"/>
  <path d="M 64.01619486680181, 38.33072294008444 Q 57.86435257354103, 44.795639616685165, 48.993255335896244, 54.827433015179366 " fill="none" id="curve_107" stroke="#000000" stroke-linecap="round" stroke-linejoin="round" stroke-width="2.851864038196763"/>
  <path d="M 42.54776919500254, 63.237571864617436 Q 43.597441780655664, 60.736985833740064, 46.30662586997627, 57.75495749307318 " fill="none" id="curve_108" stroke="#000000" stroke-linecap="round" stroke-linejoin="round" stroke-width="2.9526961504415423"/>
  <path d="M 48.03900497191506, 36.32725218281479 Q 41.45866277307573, 38.5833680696056, 30.283004745165027, 41.255197831485305 " fill="none" id="curve_109" stroke="#000000" stroke-linecap="round" stroke-linejoin="round" stroke-width="3.2353443823230674"/>
  <path d="M 63.9432315826416, 34.526641845703125 Q 64.57678771161869, 30.31791936371019, 70.83086139863912, 29.02439895499785 " fill="none" id="curve_149" stroke="#000000" stroke-linecap="round" stroke-linejoin="round" stroke-width="2.7583782829284256"/>
</svg>
