<?xml version="1.0" ?>
<svg height="140" width="140" xmlns="http://www.w3.org/2000/svg">
  <path d="M 65.79100227355957, 75.89563369750977 Q 64.69060633410797, 75.829135256653, 64.3415680178571, 75.1439683017717 " fill="none" id="curve_1" stroke="#000000" stroke-linecap="round" stroke-linejoin="round" stroke-width="9.041262322436678"/>
  <path d="M 64.3415680178571, 75.1439683017717 Q 61.238621656998184, 81.391518057759, 57.157697994453244, 93.81912151271939 " fill="none" id="curve_1" stroke="#000000" stroke-linecap="round" stroke-linejoin="round" stroke-width="3.7828947280774363"/>
  <path d="M 57.157697994453244, 93.81912151271939 Q 54.97425326915641, 105.27533057575057, 47.898372926659235, 125.45772432388648 " fill="none" id="curve_1" stroke="#000000" stroke-linecap="round" stroke-linejoin="round" stroke-width="4.175878093929201"/>
  <path d="M 47.898372926659235, 125.45772432388648 Q 45.1083960031761, 128.73507816935796, 43.63920512142589, 135.67793726463816 " fill="none" id="curve_1" stroke="#000000" stroke-linecap="round" stroke-linejoin="round" stroke-width="4.61427282421289"/>
  <path d="M 43.63920512142589, 135.67793726463816 Q 47.060598353609585, 124.99859521337899, 53.3997900338624, 112.26363906229619 " fill="none" id="curve_1" stroke="#000000" stroke-linecap="round" stroke-linejoin="round" stroke-width="2.8238098981431845"/>
  <path d="M 44.501637645660615, 93.09902747578366 Q 50.55713172400738, 93.5138816804112, 58.338397285169016, 94.08341763096712 " fill="none" id="curve_2" stroke="#000000" stroke-linecap="round" stroke-linejoin="round" stroke-width="6.449535865442254"/>
  <path d="M 58.338397285169016, 94.08341763096712 Q 66.13458759139421, 91.03109495136385, 81.41507531088627, 88.69961492665331 " fill="none" id="curve_2" stroke="#000000" stroke-linecap="round" stroke-linejoin="round" stroke-width="4.576579837721508"/>
  <path d="M 62.1688068494942, 73.24120853619009 Q 52.12333335544929, 71.72045025879753, 31.498821968948725, 68.00715231313832 " fill="none" id="curve_3" stroke="#000000" stroke-linecap="round" stroke-linejoin="round" stroke-width="5.015283006394526"/>
  <path d="M 45.36254010453919, 91.21001379923786 Q 48.86232184788749, 92.74941448053376, 62.292862901079516, 93.64242748802323 " fill="none" id="curve_4" stroke="#000000" stroke-linecap="round" stroke-linejoin="round" stroke-width="3.2934699373534397"/>
  <path d="M 62.292862901079516, 93.64242748802323 Q 55.32922033686208, 98.79515527265946, 50.716545319775676, 109.86074845172297 " fill="none" id="curve_4" stroke="#000000" stroke-linecap="round" stroke-linejoin="round" stroke-width="3.4405062921149825"/>
  <path d="M 52.772955256744474, 117.88498875238213 Q 49.71451617809154, 120.39105768394523, 45.792949342767095, 123.90838196991751 " fill="none" id="curve_5" stroke="#000000" stroke-linecap="round" stroke-linejoin="round" stroke-width="2.815245643437701"/>
  <path d="M 61.736843752251005, 90.45563312518476 Q 62.19115896782395, 89.63386835841307, 70.94114700698455, 89.51355244094918 " fill="none" id="curve_6" stroke="#000000" stroke-linecap="round" stroke-linejoin="round" stroke-width="3.217478765898784"/>
  <path d="M 65.66522080545431, 72.98196693331666 Q 62.621076185418175, 71.17521285358286, 50.771386613352625, 69.76005412194365 " fill="none" id="curve_7" stroke="#000000" stroke-linecap="round" stroke-linejoin="round" stroke-width="2.8895539823843244"/>
  <path d="M 30.959527710371983, 68.52529219274027 Q 30.862838847457112, 68.43909498265211, 30.793194501937787, 68.25805130469648 " fill="none" id="curve_8" stroke="#000000" stroke-linecap="round" stroke-linejoin="round" stroke-width="4.3784443819850365"/>
  <path d="M 45.19999483453611, 90.91839540023508 Q 45.34502760722362, 91.04014666535383, 45.45982750282959, 91.34526411672778 " fill="none" id="curve_9" stroke="#000000" stroke-linecap="round" stroke-linejoin="round" stroke-width="5.224490495531862"/>
  <path d="M 67.86526198653516, 73.50148086520328 Q 67.47728419038616, 73.43384015727528, 66.95690086145912, 73.31787512048751 " fill="none" id="curve_10" stroke="#000000" stroke-linecap="round" stroke-linejoin="round" stroke-width="3.805969821317568"/>
  <path d="M 37.43221184576328, 69.9030678954878 Q 42.26905632605708, 71.09786516834593, 54.494789783235085, 72.20249223251875 " fill="none" id="curve_14" stroke="#000000" stroke-linecap="round" stroke-linejoin="round" stroke-width="2.2900033258334593"/>
  <path d="M 56.069703514720835, 102.04084195980843 Q 55.82462195121073, 93.91037220685442, 51.86333407741729, 91.89814343402124 " fill="none" id="curve_23" stroke="#000000" stroke-linecap="round" stroke-linejoin="round" stroke-width="3.131204879496409"/>
  <path d="M 77.13802180946298, 88.95117171224845 Q 77.86057082821634, 88.86682059717485, 79.21805755409483, 88.69198252001533 " fill="none" id="curve_32" stroke="#000000" stroke-linecap="round" stroke-linejoin="round" stroke-width="2.7702312285514314"/>
  <path d="M 81.040044155455, 88.46593060083839 Q 72.40280088955205, 88.77419473810131, 62.81445528697144, 90.23908152342383 " fill="none" id="curve_47" stroke="#000000" stroke-linecap="round" stroke-linejoin="round" stroke-width="2.0623719832431986"/>
  <path d="M 83.18250885776865, 87.72718754681989 Q 81.9024066155637, 88.37360027870112, 79.2183028540121, 89.5158369322219 " fill="none" id="curve_62" stroke="#000000" stroke-linecap="round" stroke-linejoin="round" stroke-width="2.208584377821134"/>
  <path d="M 50.5969417350301, 92.8090154021978 Q 49.232553797686116, 91.93462855141897, 44.686726980526515, 91.26477193740216 " fill="none" id="curve_63" stroke="#000000" stroke-linecap="round" stroke-linejoin="round" stroke-width="3.0821397429687813"/>
  <path d="M 62.212756472708406, 88.62974230770169 Q 57.995576144757926, 90.12589661286302, 51.6751955863436, 92.63823923250132 " fill="none" id="curve_78" stroke="#000000" stroke-linecap="round" stroke-linejoin="round" stroke-width="3.005756809265855"/>
  <path d="M 47.40662143059766, 71.15539084935595 Q 45.46945033105889, 70.58126667808654, 38.44331978011397, 69.98927531967114 " fill="none" id="curve_86" stroke="#000000" stroke-linecap="round" stroke-linejoin="round" stroke-width="3.2456023932872804"/>
  <path d="M 51.12457066501894, 69.36450364833135 Q 49.990665662557866, 69.92621740378033, 47.37907949456041, 70.81293683796967 " fill="none" id="curve_102" stroke="#000000" stroke-linecap="round" stroke-linejoin="round" stroke-width="3.2370097440267718"/>
  <path d="M 46.09161726738621, 129.35852796010863 Q 47.189274848526836, 129.0445946094005, 48.379902557754924, 128.5355827971131 " fill="none" id="curve_146" stroke="#000000" stroke-linecap="round" stroke-linejoin="round" stroke-width="3.0366327034362484"/>
  <path d="M 54.01958942535658, 100.936972274482 Q 56.15391291888896, 100.89557106354495, 57.029151664305374, 100.60583450988476 " fill="none" id="curve_175" stroke="#000000" stroke-linecap="round" stroke-linejoin="round" stroke-width="3.269419387997185"/>
  <path d="M 45.94105647925941, 90.62676222423363 Q 45.83060285428578, 91.37434635265156, 45.558457235564624, 92.25670013858708 " fill="none" id="curve_176" stroke="#000000" stroke-linecap="round" stroke-linejoin="round" stroke-width="3.050708312630511"/>
</svg>
