<?xml version="1.0" ?>
<svg height="140" width="140" xmlns="http://www.w3.org/2000/svg">
  <path d="M 51.8505973815918, 73.008141040802 Q 50.70695283031213, 72.40120772160986, 46.09124843582822, 71.82465965077063 " fill="none" id="curve_1" stroke="#000000" stroke-linecap="round" stroke-linejoin="round" stroke-width="9.019957989158433"/>
  <path d="M 46.09124843582822, 71.82465965077063 Q 47.73108830922174, 70.73995877963407, 48.37678103034427, 63.66554035923533 " fill="none" id="curve_1" stroke="#000000" stroke-linecap="round" stroke-linejoin="round" stroke-width="4.560296409408487"/>
  <path d="M 48.37678103034427, 63.66554035923533 Q 49.35095875635631, 61.59759510703563, 49.68121010058945, 52.228106224642055 " fill="none" id="curve_1" stroke="#000000" stroke-linecap="round" stroke-linejoin="round" stroke-width="8.066431145450112"/>
  <path d="M 49.68121010058945, 52.228106224642055 Q 49.43772235315763, 35.461897202115864, 39.35152372259391, 33.91853014452401 " fill="none" id="curve_1" stroke="#000000" stroke-linecap="round" stroke-linejoin="round" stroke-width="5.696094519913064"/>
  <path d="M 39.35152372259391, 33.91853014452401 Q 26.241056404852507, 35.86566569143695, 19.11441432424189, 41.46686236108049 " fill="none" id="curve_1" stroke="#000000" stroke-linecap="round" stroke-linejoin="round" stroke-width="4.423081127496301"/>
  <path d="M 28.185203350633973, 74.54683691778085 Q 35.35330595437289, 73.52480557512499, 47.124097823791075, 72.45732007329288 " fill="none" id="curve_2" stroke="#000000" stroke-linecap="round" stroke-linejoin="round" stroke-width="4.861756883496795"/>
  <path d="M 47.124097823791075, 72.45732007329288 Q 45.08585445306325, 83.37234203615496, 42.08165764793574, 103.60200031366966 " fill="none" id="curve_2" stroke="#000000" stroke-linecap="round" stroke-linejoin="round" stroke-width="4.785626879533872"/>
  <path d="M 56.62235806661346, 70.79769288895406 Q 55.12301807777075, 71.37984721597749, 50.07853742077798, 71.93729922774186 " fill="none" id="curve_3" stroke="#000000" stroke-linecap="round" stroke-linejoin="round" stroke-width="2.5320908313571335"/>
  <path d="M 32.96561668346021, 73.33041766437493 Q 30.059846218969838, 75.08881418581294, 24.245577616635973, 76.6435745461208 " fill="none" id="curve_5" stroke="#000000" stroke-linecap="round" stroke-linejoin="round" stroke-width="3.120883247854567"/>
  <path d="M 19.347358579433518, 41.62431850519944 Q 19.47501869325687, 40.61607621513303, 19.732587430300825, 39.62107946669992 " fill="none" id="curve_6" stroke="#000000" stroke-linecap="round" stroke-linejoin="round" stroke-width="4.262379797360278"/>
  <path d="M 34.17060507220937, 74.28113009347899 Q 32.95833326675032, 73.73768675776307, 29.264486898217527, 73.21138877565528 " fill="none" id="curve_7" stroke="#000000" stroke-linecap="round" stroke-linejoin="round" stroke-width="3.2852707989118466"/>
  <path d="M 38.765483183886445, 73.24897374242462 Q 40.085458277852574, 72.98919879919752, 43.05104862242792, 72.52220328760843 " fill="none" id="curve_15" stroke="#000000" stroke-linecap="round" stroke-linejoin="round" stroke-width="3.2803354844838255"/>
  <path d="M 43.75882403988037, 88.2355342328649 Q 44.46074140102794, 83.92614754623739, 45.61232425576486, 74.18939472887493 " fill="none" id="curve_36" stroke="#000000" stroke-linecap="round" stroke-linejoin="round" stroke-width="2.468424725085513"/>
  <path d="M 35.000519973329574, 32.69162401174981 Q 39.50601586715659, 35.14095140031303, 44.23166882796113, 41.24495909406202 " fill="none" id="curve_51" stroke="#000000" stroke-linecap="round" stroke-linejoin="round" stroke-width="2.0737729464141585"/>
  <path d="M 46.69884558724224, 64.76672117942566 Q 47.01932351220642, 61.941485525041685, 48.00638908049271, 59.83540401375691 " fill="none" id="curve_53" stroke="#000000" stroke-linecap="round" stroke-linejoin="round" stroke-width="3.2834970566067234"/>
  <path d="M 39.20410576618404, 72.83025605314064 Q 38.19130214965381, 72.35052882273912, 35.62570279460843, 71.87739694858594 " fill="none" id="curve_54" stroke="#000000" stroke-linecap="round" stroke-linejoin="round" stroke-width="3.7291701892591718"/>
  <path d="M 45.936564020740775, 50.21010902807495 Q 46.64281764807521, 48.30849273371041, 47.87268504267891, 45.913744263375584 " fill="none" id="curve_82" stroke="#000000" stroke-linecap="round" stroke-linejoin="round" stroke-width="3.23495438482209"/>
  <path d="M 39.827340135451536, 33.12911008013459 Q 29.346179170213517, 35.663597135937735, 18.342542362293393, 40.63702191472489 " fill="none" id="curve_83" stroke="#000000" stroke-linecap="round" stroke-linejoin="round" stroke-width="2.959381912650896"/>
  <path d="M 18.342542362293393, 40.63702191472489 Q 25.053091361523865, 38.99788941753467, 31.653529597889687, 35.537984534535994 " fill="none" id="curve_83" stroke="#000000" stroke-linecap="round" stroke-linejoin="round" stroke-width="2.6016767401273184"/>
  <path d="M 31.81381607055664, 35.679898262023926 Q 32.036109432893404, 32.499882826521734, 36.229107613054396, 32.04192250064017 " fill="none" id="curve_97" stroke="#000000" stroke-linecap="round" stroke-linejoin="round" stroke-width="2.4257377862009473"/>
  <path d="M 23.773696648657847, 39.94329266912976 Q 22.480998708846613, 39.78798413988238, 20.120003595555826, 39.62017178097111 " fill="none" id="curve_98" stroke="#000000" stroke-linecap="round" stroke-linejoin="round" stroke-width="3.415901265709211"/>
  <path d="M 22.71484010379315, 38.53234976259489 Q 19.649115201040054, 39.1576681308313, 16.89393012982856, 41.00232152751163 " fill="none" id="curve_102" stroke="#000000" stroke-linecap="round" stroke-linejoin="round" stroke-width="2.945174333365253"/>
  <path d="M 46.373170062088775, 34.6909199172153 Q 44.42109236824758, 34.10259141366913, 41.304155502234735, 33.15227099522653 " fill="none" id="curve_117" stroke="#000000" stroke-linecap="round" stroke-linejoin="round" stroke-width="1.8739050029770226"/>
  <path d="M 34.67988126138721, 76.00992125167124 Q 32.01598096708028, 76.07672307009169, 28.775883297859973, 76.23503084887118 " fill="none" id="curve_120" stroke="#000000" stroke-linecap="round" stroke-linejoin="round" stroke-width="2.548776192921561"/>
  <path d="M 43.00264237291877, 86.14788063478655 Q 42.96142421705812, 86.02623262530315, 42.92713623553204, 85.76723411281206 " fill="none" id="curve_121" stroke="#000000" stroke-linecap="round" stroke-linejoin="round" stroke-width="4.589165312540555"/>
</svg>
