<?xml version="1.0" ?>
<svg height="140" width="140" xmlns="http://www.w3.org/2000/svg">
  <path d="M 59.57205209094234, 79.84478114540353 Q 53.18392556674021, 79.41464475061039, 45.556604490762965, 78.68842957966318 " fill="none" id="curve_2" stroke="#000000" stroke-linecap="round" stroke-linejoin="round" stroke-width="5.468931539732306"/>
  <path d="M 45.556604490762965, 78.68842957966318 Q 43.29048551929694, 86.8026085596254, 36.29163293853231, 102.65106431174533 " fill="none" id="curve_2" stroke="#000000" stroke-linecap="round" stroke-linejoin="round" stroke-width="5.933361206489646"/>
  <path d="M 36.29163293853231, 102.65106431174533 Q 34.95102033341141, 109.01433521869767, 30.87139016993699, 111.00766683208502 " fill="none" id="curve_2" stroke="#000000" stroke-linecap="round" stroke-linejoin="round" stroke-width="7.047923936996513"/>
  <path d="M 38.70863784635284, 78.2701005229898 Q 44.061598041789225, 78.5011128853198, 47.68831029046605, 79.15665496727567 " fill="none" id="curve_3" stroke="#000000" stroke-linecap="round" stroke-linejoin="round" stroke-width="4.3014434603096765"/>
  <path d="M 47.68831029046605, 79.15665496727567 Q 50.99519766255083, 67.50649339471073, 62.14757561817096, 43.933123688282585 " fill="none" id="curve_3" stroke="#000000" stroke-linecap="round" stroke-linejoin="round" stroke-width="6.008571186705215"/>
  <path d="M 62.14757561817096, 43.933123688282585 Q 66.27791573612, 35.308615853073526, 75.36025000955505, 27.756828360323407 " fill="none" id="curve_3" stroke="#000000" stroke-linecap="round" stroke-linejoin="round" stroke-width="5.75957983320646"/>
  <path d="M 75.36025000955505, 27.756828360323407 Q 53.87443630125478, 27.537019642042775, 40.171459757992416, 25.515700202140383 " fill="none" id="curve_3" stroke="#000000" stroke-linecap="round" stroke-linejoin="round" stroke-width="4.874265996443711"/>
  <path d="M 40.171459757992416, 25.515700202140383 Q 18.193613683958837, 25.74424345552957, 10.660212348335598, 28.274841634819328 " fill="none" id="curve_3" stroke="#000000" stroke-linecap="round" stroke-linejoin="round" stroke-width="5.323679062467783"/>
  <path d="M 10.660212348335598, 28.274841634819328 Q 8.192669954603275, 28.297792909832232, 6.333349228431946, 28.339598749849998 " fill="none" id="curve_3" stroke="#000000" stroke-linecap="round" stroke-linejoin="round" stroke-width="4.390547390998569"/>
  <path d="M 37.20045646724098, 75.87917433399359 Q 37.11421319736355, 76.85397753249372, 36.775366533314134, 77.47629376604054 " fill="none" id="curve_4" stroke="#000000" stroke-linecap="round" stroke-linejoin="round" stroke-width="3.7372926344975874"/>
  <path d="M 51.50667581171305, 65.61298799949039 Q 48.52258459544914, 71.88968588810867, 43.7905495105743, 88.25449321823294 " fill="none" id="curve_5" stroke="#000000" stroke-linecap="round" stroke-linejoin="round" stroke-width="3.2006288085642893"/>
  <path d="M 43.7905495105743, 88.25449321823294 Q 38.019950653572245, 89.6560385354932, 36.952850516307876, 105.3726327504578 " fill="none" id="curve_5" stroke="#000000" stroke-linecap="round" stroke-linejoin="round" stroke-width="3.614520606407567"/>
  <path d="M 25.075639712628295, 24.297123819957555 Q 19.5503275819398, 25.123743616416732, 14.171152033728625, 26.703760749540557 " fill="none" id="curve_8" stroke="#000000" stroke-linecap="round" stroke-linejoin="round" stroke-width="3.1702182621864705"/>
  <path d="M 52.99233773130086, 60.15379728976767 Q 51.02612983009177, 64.25795601965028, 48.73931556652589, 70.36877755257272 " fill="none" id="curve_10" stroke="#000000" stroke-linecap="round" stroke-linejoin="round" stroke-width="2.985249800611787"/>
  <path d="M 40.49342182442511, 89.13665045773983 Q 40.14137702214565, 95.22270566962054, 39.1064987950303, 100.5343216177827 " fill="none" id="curve_11" stroke="#000000" stroke-linecap="round" stroke-linejoin="round" stroke-width="3.0011340498981633"/>
  <path d="M 39.1064987950303, 100.5343216177827 Q 40.38358831198413, 86.809906979861, 47.78108410294492, 79.81623591814514 " fill="none" id="curve_11" stroke="#000000" stroke-linecap="round" stroke-linejoin="round" stroke-width="3.1585007048451486"/>
  <path d="M 47.78108410294492, 79.81623591814514 Q 41.31381664099541, 84.3440816562246, 37.61419264850257, 97.01430715388629 " fill="none" id="curve_11" stroke="#000000" stroke-linecap="round" stroke-linejoin="round" stroke-width="3.495179631486767"/>
  <path d="M 41.571811117250064, 76.80231729868048 Q 40.553081704881514, 76.32374982183823, 38.762168561572345, 75.8431260305072 " fill="none" id="curve_12" stroke="#000000" stroke-linecap="round" stroke-linejoin="round" stroke-width="3.9880504475751573"/>
  <path d="M 66.11004080637711, 33.5032966935582 Q 66.49921155875839, 31.33314037956169, 67.56167793267424, 29.320043178134938 " fill="none" id="curve_13" stroke="#000000" stroke-linecap="round" stroke-linejoin="round" stroke-width="4.046591964708618"/>
  <path d="M 90.29809260368347, 1.35101318359375 Q 89.96402215515303, 2.0185553901843054, 89.31901299267737, 2.8800839311347204 " fill="none" id="curve_27" stroke="#000000" stroke-linecap="round" stroke-linejoin="round" stroke-width="1.9999452314345467"/>
  <path d="M 56.687420515238045, 50.38400575556662 Q 58.95030213959157, 47.437032624334556, 62.5768488140942, 43.1162585204947 " fill="none" id="curve_29" stroke="#000000" stroke-linecap="round" stroke-linejoin="round" stroke-width="2.5838314637001583"/>
  <path d="M 32.58201907005869, 26.672678532960685 Q 47.22972208848623, 26.380217309395444, 62.0269857806379, 25.59411113924671 " fill="none" id="curve_37" stroke="#000000" stroke-linecap="round" stroke-linejoin="round" stroke-width="2.916924166964221"/>
  <path d="M 64.00737844938078, 29.564917173232516 Q 63.83083705270458, 29.499820244285257, 63.606663579018914, 29.388024190125844 " fill="none" id="curve_52" stroke="#000000" stroke-linecap="round" stroke-linejoin="round" stroke-width="3.356238751620375"/>
  <path d="M 49.853441945082054, 26.070912516251376 Q 48.239925151652656, 25.613255738205833, 39.880923235827396, 25.281705285431418 " fill="none" id="curve_59" stroke="#000000" stroke-linecap="round" stroke-linejoin="round" stroke-width="2.5135883064049804"/>
  <path d="M 47.22712709299694, 75.60115753595761 Q 44.763230340333976, 87.59220059440807, 38.1773647366129, 104.87055842859375 " fill="none" id="curve_69" stroke="#000000" stroke-linecap="round" stroke-linejoin="round" stroke-width="2.526925718148927"/>
  <path d="M 43.6901391344744, 25.032050044669823 Q 47.14461714503301, 25.172702728087252, 49.922025418996, 25.557623796873123 " fill="none" id="curve_114" stroke="#000000" stroke-linecap="round" stroke-linejoin="round" stroke-width="2.3316901557764718"/>
  <path d="M 19.708070463525207, 25.422108073206587 Q 19.003940503277317, 24.968874245358375, 17.32954019599402, 24.61396145687694 " fill="none" id="curve_115" stroke="#000000" stroke-linecap="round" stroke-linejoin="round" stroke-width="3.3994751283291085"/>
</svg>
