<?xml version="1.0" ?>
<svg height="140" width="140" xmlns="http://www.w3.org/2000/svg">
  <path d="M 47.69297790527344, 75.26034736633301 Q 48.018975699821624, 72.59369556196513, 49.122440211112576, 69.30382532139066 " fill="none" id="curve_1" stroke="#000000" stroke-linecap="round" stroke-linejoin="round" stroke-width="9.581579093014009"/>
  <path d="M 49.122440211112576, 69.30382532139066 Q 51.894846851367234, 65.69129230939322, 54.53038779472109, 54.79565615535882 " fill="none" id="curve_1" stroke="#000000" stroke-linecap="round" stroke-linejoin="round" stroke-width="6.579241458367051"/>
  <path d="M 54.53038779472109, 54.79565615535882 Q 58.032549768647975, 52.25655795818196, 59.13090868836148, 38.75560520280901 " fill="none" id="curve_1" stroke="#000000" stroke-linecap="round" stroke-linejoin="round" stroke-width="7.558661020396005"/>
  <path d="M 59.13090868836148, 38.75560520280901 Q 58.970175898098255, 34.21627534110758, 54.64165769471678, 33.84853877923958 " fill="none" id="curve_1" stroke="#000000" stroke-linecap="round" stroke-linejoin="round" stroke-width="5.358956762456604"/>
  <path d="M 54.64165769471678, 33.84853877923958 Q 48.355602102199526, 34.41406348308272, 33.617238578407154, 34.76538005511482 " fill="none" id="curve_1" stroke="#000000" stroke-linecap="round" stroke-linejoin="round" stroke-width="4.856060941030354"/>
  <path d="M 37.13339624831888, 68.42883442477117 Q 44.42243614398648, 69.10103028499508, 47.95026506893085, 71.1789425028187 " fill="none" id="curve_2" stroke="#000000" stroke-linecap="round" stroke-linejoin="round" stroke-width="5.549589512835462"/>
  <path d="M 47.95026506893085, 71.1789425028187 Q 45.49217182618542, 79.58258369590959, 40.27883523199251, 102.53893648014437 " fill="none" id="curve_2" stroke="#000000" stroke-linecap="round" stroke-linejoin="round" stroke-width="4.856508150939883"/>
  <path d="M 40.27883523199251, 102.53893648014437 Q 40.289901553986944, 106.70923598954074, 40.40680839585681, 107.33013597966163 " fill="none" id="curve_2" stroke="#000000" stroke-linecap="round" stroke-linejoin="round" stroke-width="4.79522409640572"/>
  <path d="M 53.87139002246634, 70.77412288914327 Q 56.186168504989396, 69.6207621961918, 71.51978024822559, 69.30640665681997 " fill="none" id="curve_3" stroke="#000000" stroke-linecap="round" stroke-linejoin="round" stroke-width="4.408896559616238"/>
  <path d="M 48.759893446922554, 69.0827855552206 Q 48.4975435561321, 83.06168763736669, 43.18061456004291, 85.67676738779247 " fill="none" id="curve_4" stroke="#000000" stroke-linecap="round" stroke-linejoin="round" stroke-width="2.6049098258527215"/>
  <path d="M 43.18061456004291, 85.67676738779247 Q 40.66051228951939, 86.72457556883288, 40.03065457239654, 95.19322204866171 " fill="none" id="curve_4" stroke="#000000" stroke-linecap="round" stroke-linejoin="round" stroke-width="2.769068766239426"/>
  <path d="M 36.70674831740053, 68.74826133399725 Q 36.823331300443165, 67.4099661490738, 46.16812382483504, 67.35189444740938 " fill="none" id="curve_5" stroke="#000000" stroke-linecap="round" stroke-linejoin="round" stroke-width="2.8270732211895906"/>
  <path d="M 38.50536863955697, 70.44220170941024 Q 39.02275019242849, 70.05016870167175, 39.8410385250248, 69.6326977565863 " fill="none" id="curve_6" stroke="#000000" stroke-linecap="round" stroke-linejoin="round" stroke-width="3.444508274054172"/>
  <path d="M 73.264950880571, 69.29457309002154 Q 72.9840815043036, 69.15765191270545, 72.5836367169739, 68.93738498670116 " fill="none" id="curve_7" stroke="#000000" stroke-linecap="round" stroke-linejoin="round" stroke-width="2.6469882425422755"/>
  <path d="M 50.73441065553648, 31.780423231619885 Q 45.117151302539746, 32.12822251360166, 40.017476720088005, 33.2470792188546 " fill="none" id="curve_8" stroke="#000000" stroke-linecap="round" stroke-linejoin="round" stroke-width="2.1788380846088646"/>
  <path d="M 42.45046390709524, 35.91150688391493 Q 40.28003396839199, 35.3392094237475, 35.780125320446665, 34.817890131254146 " fill="none" id="curve_9" stroke="#000000" stroke-linecap="round" stroke-linejoin="round" stroke-width="2.893883752944944"/>
  <path d="M 58.17339328114366, 68.60335427675409 Q 55.795819396304374, 68.8106303591584, 51.37084518714082, 69.09588429844952 " fill="none" id="curve_10" stroke="#000000" stroke-linecap="round" stroke-linejoin="round" stroke-width="3.541728496787799"/>
  <path d="M 38.521657158765876, 104.50440102211776 Q 38.62726158464013, 105.22904735873281, 38.815083445174295, 105.98641028264281 " fill="none" id="curve_11" stroke="#000000" stroke-linecap="round" stroke-linejoin="round" stroke-width="3.613198381031013"/>
  <path d="M 38.964578713752246, 69.20320348196132 Q 43.24188702086127, 69.34707953852767, 57.63949974612695, 69.47985035398699 " fill="none" id="curve_41" stroke="#000000" stroke-linecap="round" stroke-linejoin="round" stroke-width="2.1758207647278187"/>
  <path d="M 59.779312915026786, 71.16561159991102 Q 57.45922277007848, 70.69180950478327, 54.169365947149906, 69.9795679078369 " fill="none" id="curve_47" stroke="#000000" stroke-linecap="round" stroke-linejoin="round" stroke-width="3.0097258063782046"/>
  <path d="M 32.38925673637418, 35.15719205574515 Q 32.35374190886166, 34.61326453264805, 32.27039981035918, 34.20528666315101 " fill="none" id="curve_92" stroke="#000000" stroke-linecap="round" stroke-linejoin="round" stroke-width="2.3612151890707795"/>
</svg>
