<?xml version="1.0" ?>
<svg height="140" width="140" xmlns="http://www.w3.org/2000/svg">
  <path d="M 20.242288246327206, 55.28520619129657 Q 22.745455848724948, 55.01493189925226, 30.84835732529304, 54.75312512576693 " fill="none" id="curve_2" stroke="#000000" stroke-linecap="round" stroke-linejoin="round" stroke-width="6.27581460781946"/>
  <path d="M 30.84835732529304, 54.75312512576693 Q 33.90349766093379, 55.03773773191398, 43.20556581767761, 55.24771465277453 " fill="none" id="curve_2" stroke="#000000" stroke-linecap="round" stroke-linejoin="round" stroke-width="6.317217454221691"/>
  <path d="M 43.20556581767761, 55.24771465277453 Q 61.94679915880228, 55.310904524886276, 63.64144354355132, 56.63935750596499 " fill="none" id="curve_2" stroke="#000000" stroke-linecap="round" stroke-linejoin="round" stroke-width="5.819687675455617"/>
  <path d="M 63.64144354355132, 56.63935750596499 Q 63.45916428902714, 80.27223474524114, 59.884619708982136, 82.78247114835884 " fill="none" id="curve_2" stroke="#000000" stroke-linecap="round" stroke-linejoin="round" stroke-width="6.278680699224818"/>
  <path d="M 59.884619708982136, 82.78247114835884 Q 56.20215219902869, 84.22609531820859, 55.33255854376547, 98.7706790306825 " fill="none" id="curve_2" stroke="#000000" stroke-linecap="round" stroke-linejoin="round" stroke-width="5.826659694308373"/>
  <path d="M 55.33255854376547, 98.7706790306825 Q 55.355928213827106, 102.47986915875109, 55.7979587832419, 102.83947482400366 " fill="none" id="curve_2" stroke="#000000" stroke-linecap="round" stroke-linejoin="round" stroke-width="6.031121015996123"/>
  <path d="M 54.20358164770494, 85.47504674541437 Q 49.6413429958124, 85.86364719391855, 45.421936366795926, 86.47196745774377 " fill="none" id="curve_3" stroke="#000000" stroke-linecap="round" stroke-linejoin="round" stroke-width="6.936567314064927"/>
  <path d="M 45.421936366795926, 86.47196745774377 Q 56.24088259051989, 85.01859944118608, 69.8214529097424, 83.47259718160663 " fill="none" id="curve_3" stroke="#000000" stroke-linecap="round" stroke-linejoin="round" stroke-width="4.4604568332170835"/>
  <path d="M 56.322873490589714, 98.94810849342385 Q 58.120874049489544, 89.82705791379315, 62.83808108643101, 83.12789873203924 " fill="none" id="curve_4" stroke="#000000" stroke-linecap="round" stroke-linejoin="round" stroke-width="3.417085564323426"/>
  <path d="M 64.2863707614803, 56.76181575646876 Q 65.75552792612947, 58.03212628886117, 66.12856925072266, 65.34657580369901 " fill="none" id="curve_5" stroke="#000000" stroke-linecap="round" stroke-linejoin="round" stroke-width="3.3546963928630533"/>
  <path d="M 58.46624437337885, 52.98564116612809 Q 55.89773446841585, 52.78668770870738, 47.135912971788386, 52.667641344369024 " fill="none" id="curve_6" stroke="#000000" stroke-linecap="round" stroke-linejoin="round" stroke-width="2.7545349642143626"/>
  <path d="M 26.668117535497792, 56.919050156191226 Q 23.861976761532585, 56.885327195243754, 21.676902144998614, 56.819967165797685 " fill="none" id="curve_7" stroke="#000000" stroke-linecap="round" stroke-linejoin="round" stroke-width="3.075021805942257"/>
  <path d="M 49.7147322828774, 83.63259704936775 Q 51.746126112258565, 82.56608286332518, 61.57996679810617, 82.0313753170656 " fill="none" id="curve_8" stroke="#000000" stroke-linecap="round" stroke-linejoin="round" stroke-width="3.510961282305551"/>
  <path d="M 53.17901471677067, 102.47430181764368 Q 53.503678993568435, 102.30865564753746, 53.87115442973337, 102.09203380440174 " fill="none" id="curve_9" stroke="#000000" stroke-linecap="round" stroke-linejoin="round" stroke-width="5.274933990845135"/>
  <path d="M 61.57704137788007, 71.38935868508361 Q 61.15379931302038, 86.6754932874512, 58.37641235033042, 92.90139024960568 " fill="none" id="curve_10" stroke="#000000" stroke-linecap="round" stroke-linejoin="round" stroke-width="2.540135875787311"/>
  <path d="M 70.30329704284668, 85.8417854309082 Q 67.80945149235718, 82.73872116881293, 59.12434418233295, 79.33827708839692 " fill="none" id="curve_37" stroke="#000000" stroke-linecap="round" stroke-linejoin="round" stroke-width="3.598730959444823"/>
  <path d="M 59.12434418233295, 79.33827708839692 Q 59.68232854614175, 75.97066829108581, 62.48613286886728, 72.89307193584804 " fill="none" id="curve_37" stroke="#000000" stroke-linecap="round" stroke-linejoin="round" stroke-width="2.8903013362094083"/>
  <path d="M 41.986860014758015, 86.09581469405654 Q 54.24237567101793, 85.56748264281617, 68.97936284546489, 84.82267912606392 " fill="none" id="curve_42" stroke="#000000" stroke-linecap="round" stroke-linejoin="round" stroke-width="2.712634567802438"/>
  <path d="M 37.009104044394036, 55.039541083772 Q 36.675679070087725, 54.1858659782334, 35.618014330255725, 53.49848284965149 " fill="none" id="curve_43" stroke="#000000" stroke-linecap="round" stroke-linejoin="round" stroke-width="3.614253319534325"/>
  <path d="M 41.628056868581126, 55.99617579021022 Q 41.8431784557859, 54.55019269089314, 43.541225948175494, 53.84408782967946 " fill="none" id="curve_53" stroke="#000000" stroke-linecap="round" stroke-linejoin="round" stroke-width="3.3945051522485583"/>
  <path d="M 37.17254355384026, 55.69791370040656 Q 36.43528422339603, 54.63345423563213, 32.58975980697895, 53.748443637402644 " fill="none" id="curve_57" stroke="#000000" stroke-linecap="round" stroke-linejoin="round" stroke-width="3.3879903961114883"/>
  <path d="M 38.12432147045485, 56.00719146575466 Q 37.81365423911082, 55.10303723535254, 36.18774327583164, 54.11535092526925 " fill="none" id="curve_62" stroke="#000000" stroke-linecap="round" stroke-linejoin="round" stroke-width="2.7604573487429076"/>
  <path d="M 43.35391191237744, 55.930963039431816 Q 42.28550146220967, 54.40523725309838, 29.2815827774987, 53.82497920940918 " fill="none" id="curve_72" stroke="#000000" stroke-linecap="round" stroke-linejoin="round" stroke-width="2.80173631225701"/>
  <path d="M 34.00402789134869, 52.31331993735407 Q 32.769983939328505, 55.83371870014577, 24.143090529111973, 57.509763387457795 " fill="none" id="curve_78" stroke="#000000" stroke-linecap="round" stroke-linejoin="round" stroke-width="2.624540722517252"/>
  <path d="M 44.76128769989527, 55.44074655497621 Q 43.43076597319654, 54.96743572405268, 37.27155545811837, 54.44731271665557 " fill="none" id="curve_113" stroke="#000000" stroke-linecap="round" stroke-linejoin="round" stroke-width="2.9325749098901728"/>
  <path d="M 19.29021934748396, 57.81197245070797 Q 19.91505527266523, 57.92735072446491, 20.68479243338963, 58.1894865549851 " fill="none" id="curve_131" stroke="#000000" stroke-linecap="round" stroke-linejoin="round" stroke-width="2.199116983368066"/>
  <path d="M 49.06248168559893, 54.50749007166178 Q 46.71228711956978, 54.00372934155037, 40.806425753346936, 53.432494322267615 " fill="none" id="curve_134" stroke="#000000" stroke-linecap="round" stroke-linejoin="round" stroke-width="2.9259639383742813"/>
  <path d="M 53.66039839956905, 103.59612573641938 Q 54.31586266869823, 103.09940478042328, 55.39715182075805, 102.28989191742949 " fill="none" id="curve_168" stroke="#000000" stroke-linecap="round" stroke-linejoin="round" stroke-width="3.47745154814524"/>
</svg>
