<?xml version="1.0" ?>
<svg height="140" width="140" xmlns="http://www.w3.org/2000/svg">
  <path d="M 68.4259147644043, 43.5807523727417 Q 69.19211846475112, 40.57633672615407, 69.86336223379276, 30.017648255844165 " fill="none" id="curve_1" stroke="#000000" stroke-linecap="round" stroke-linejoin="round" stroke-width="34.66195553683448"/>
  <path d="M 69.86336223379276, 30.017648255844165 Q 71.92211145559894, 18.10153912583412, 81.8318241225077, 9.037174520982518 " fill="none" id="curve_1" stroke="#000000" stroke-linecap="round" stroke-linejoin="round" stroke-width="19.09141153833424"/>
  <path d="M 81.8318241225077, 9.037174520982518 Q 74.66430437745508, 11.767080814781925, 35.85248178704559, 13.554588627004726 " fill="none" id="curve_1" stroke="#000000" stroke-linecap="round" stroke-linejoin="round" stroke-width="25.815580689418592"/>
  <path d="M 35.85248178704559, 13.554588627004726 Q 28.043656244654244, 12.481066962916936, 10.855877463658445, 11.10604580112706 " fill="none" id="curve_1" stroke="#000000" stroke-linecap="round" stroke-linejoin="round" stroke-width="20.239373646586774"/>
  <path d="M 10.855877463658445, 11.10604580112706 Q 8.816658276666463, 14.33453168774071, 8.47920997901737, 47.37570520111333 " fill="none" id="curve_1" stroke="#000000" stroke-linecap="round" stroke-linejoin="round" stroke-width="14.447475054177893"/>
  <path d="M 8.47920997901737, 47.37570520111333 Q 10.543227578141323, 64.17336591691611, 18.11246096058666, 77.08606894680273 " fill="none" id="curve_1" stroke="#000000" stroke-linecap="round" stroke-linejoin="round" stroke-width="36.98022502014436"/>
  <path d="M 18.11246096058666, 77.08606894680273 Q 21.657546370400244, 76.3403114419298, 28.18049742742359, 74.05296120413553 " fill="none" id="curve_1" stroke="#000000" stroke-linecap="round" stroke-linejoin="round" stroke-width="33.17520776426936"/>
  <path d="M 28.18049742742359, 74.05296120413553 Q 29.121694879661497, 65.89031150318718, 30.02140576853334, 40.24285200604211 " fill="none" id="curve_1" stroke="#000000" stroke-linecap="round" stroke-linejoin="round" stroke-width="33.82634434355311"/>
  <path d="M 30.02140576853334, 40.24285200604211 Q 30.42770498533583, 38.42492356506946, 31.7024757237631, 34.24347769089948 " fill="none" id="curve_1" stroke="#000000" stroke-linecap="round" stroke-linejoin="round" stroke-width="26.269152580973614"/>
  <path d="M 31.7024757237631, 34.24347769089948 Q 57.647063964276455, 35.99566096998963, 65.12834298326551, 59.56706296273481 " fill="none" id="curve_1" stroke="#000000" stroke-linecap="round" stroke-linejoin="round" stroke-width="23.187111300158215"/>
  <path d="M 65.12834298326551, 59.56706296273481 Q 64.6227416363989, 66.66189946148248, 63.751687695224874, 80.2554495222212 " fill="none" id="curve_1" stroke="#000000" stroke-linecap="round" stroke-linejoin="round" stroke-width="46.94505197456084"/>
  <path d="M 63.751687695224874, 80.2554495222212 Q 60.44012994947987, 102.98202055726333, 27.631631185253255, 110.44315021106016 " fill="none" id="curve_1" stroke="#000000" stroke-linecap="round" stroke-linejoin="round" stroke-width="35.643077758421384"/>
  <path d="M 27.631631185253255, 110.44315021106016 Q 16.59276941023354, 110.02420857693073, 14.291800250251882, 103.53374223777067 " fill="none" id="curve_1" stroke="#000000" stroke-linecap="round" stroke-linejoin="round" stroke-width="23.795722837907725"/>
  <path d="M 14.291800250251882, 103.53374223777067 Q 8.833069895360847, 113.1567741718141, 5.711828757961385, 135.2187235242964 " fill="none" id="curve_1" stroke="#000000" stroke-linecap="round" stroke-linejoin="round" stroke-width="11.391447969229825"/>
  <path d="M 5.711828757961385, 135.2187235242964 Q 35.052105386462586, 132.76320474087555, 67.37109213038265, 127.38514814146768 " fill="none" id="curve_1" stroke="#000000" stroke-linecap="round" stroke-linejoin="round" stroke-width="25.613858757248845"/>
  <path d="M 67.37109213038265, 127.38514814146768 Q 73.61025902547499, 127.89552341349751, 78.68272035284816, 129.1162440142871 " fill="none" id="curve_1" stroke="#000000" stroke-linecap="round" stroke-linejoin="round" stroke-width="20.817502076367298"/>
  <path d="M 78.68272035284816, 129.1162440142871 Q 81.07052817920105, 125.8372648977362, 81.78064464177278, 106.3427102941319 " fill="none" id="curve_1" stroke="#000000" stroke-linecap="round" stroke-linejoin="round" stroke-width="16.273546220932886"/>
  <path d="M 81.78064464177278, 106.3427102941319 Q 84.37778312950363, 104.53098648538788, 84.67340736235765, 68.7896645444676 " fill="none" id="curve_1" stroke="#000000" stroke-linecap="round" stroke-linejoin="round" stroke-width="11.137406150978732"/>
  <path d="M 84.67340736235765, 68.7896645444676 Q 86.21039139930022, 58.30768834001218, 87.45964847056683, 13.259316527235598 " fill="none" id="curve_1" stroke="#000000" stroke-linecap="round" stroke-linejoin="round" stroke-width="8.076777950800855"/>
  <path d="M 87.45964847056683, 13.259316527235598 Q 77.6648511829589, 33.42296522378467, 47.86515078990277, 55.943704687941164 " fill="none" id="curve_1" stroke="#000000" stroke-linecap="round" stroke-linejoin="round" stroke-width="12.467525809644217"/>
  <path d="M 16.397585193799102, 88.48415865837345 Q 6.550400892547641, 88.78201904942023, 4.749372373507583, 92.52068790881643 " fill="none" id="curve_2" stroke="#000000" stroke-linecap="round" stroke-linejoin="round" stroke-width="10.910253208803844"/>
  <path d="M 63.92231799213704, 112.46054264991292 Q 82.07784978054136, 113.64405182365806, 85.0880949488556, 132.75118904575038 " fill="none" id="curve_3" stroke="#000000" stroke-linecap="round" stroke-linejoin="round" stroke-width="7.43538425036776"/>
  <path d="M 85.0880949488556, 132.75118904575038 Q 85.7016840929547, 135.97751720814173, 87.97728292468824, 137.6410243475567 " fill="none" id="curve_3" stroke="#000000" stroke-linecap="round" stroke-linejoin="round" stroke-width="6.6943442454586295"/>
  <path d="M 87.97728292468824, 137.6410243475567 Q 85.58531868136762, 136.89631924342396, 76.82401888836274, 136.29243344692213 " fill="none" id="curve_3" stroke="#000000" stroke-linecap="round" stroke-linejoin="round" stroke-width="5.026312011056857"/>
  <path d="M 76.82401888836274, 136.29243344692213 Q 85.61423328260013, 134.73221939971802, 87.7797279519089, 119.24001943728649 " fill="none" id="curve_3" stroke="#000000" stroke-linecap="round" stroke-linejoin="round" stroke-width="6.125204689650138"/>
  <path d="M 87.7797279519089, 119.24001943728649 Q 87.67256584942577, 110.76996808904653, 87.35711986057684, 102.55910833454602 " fill="none" id="curve_3" stroke="#000000" stroke-linecap="round" stroke-linejoin="round" stroke-width="4.202226760438652"/>
  <path d="M 75.89030649280285, 62.62139553691609 Q 77.58402808586409, 55.35339339596459, 80.52178259603508, 46.69830553031688 " fill="none" id="curve_4" stroke="#000000" stroke-linecap="round" stroke-linejoin="round" stroke-width="9.645401632476759"/>
  <path d="M 46.49755882909569, 61.357515393816 Q 44.29416390141389, 77.28012161589557, 35.2705925358793, 88.47778386157398 " fill="none" id="curve_5" stroke="#000000" stroke-linecap="round" stroke-linejoin="round" stroke-width="3.9856868050363317"/>
  <path d="M 35.2705925358793, 88.47778386157398 Q 28.926844631685082, 93.25447208889716, -1.3946032932049164, 96.85589482112087 " fill="none" id="curve_5" stroke="#000000" stroke-linecap="round" stroke-linejoin="round" stroke-width="4.00216595953768"/>
  <path d="M 13.179083347539512, 126.30295543130333 Q 19.04124904199299, 126.1112956575156, 24.10397946010133, 125.65204723186844 " fill="none" id="curve_6" stroke="#000000" stroke-linecap="round" stroke-linejoin="round" stroke-width="5.149050467975359"/>
  <path d="M 24.10397946010133, 125.65204723186844 Q 33.81633739198113, 132.48067846000154, 49.975321431454816, 138.49358948222365 " fill="none" id="curve_6" stroke="#000000" stroke-linecap="round" stroke-linejoin="round" stroke-width="3.2211680061681682"/>
  <path d="M 49.975321431454816, 138.49358948222365 Q 60.81932745490792, 138.47313188761723, 86.60024355905904, 138.45949283206426 " fill="none" id="curve_6" stroke="#000000" stroke-linecap="round" stroke-linejoin="round" stroke-width="3.925119787740417"/>
  <path d="M 86.60024355905904, 138.45949283206426 Q 88.14607862348318, 136.85259679872695, 88.5001815295805, 124.8184273438904 " fill="none" id="curve_6" stroke="#000000" stroke-linecap="round" stroke-linejoin="round" stroke-width="3.9251632230484046"/>
  <path d="M 88.5001815295805, 124.8184273438904 Q 86.06996890888817, 115.32839160572203, 77.32884292827015, 108.55019304258055 " fill="none" id="curve_6" stroke="#000000" stroke-linecap="round" stroke-linejoin="round" stroke-width="5.801541487602356"/>
  <path d="M 77.32884292827015, 108.55019304258055 Q 73.65290263899625, 108.65325090334277, 69.67130467056117, 108.84477298159118 " fill="none" id="curve_6" stroke="#000000" stroke-linecap="round" stroke-linejoin="round" stroke-width="6.173083675861199"/>
  <path d="M 76.7208171324481, 108.06488704703047 Q 85.34892413720686, 106.66995216096646, 88.1896879730105, 92.04968840120772 " fill="none" id="curve_7" stroke="#000000" stroke-linecap="round" stroke-linejoin="round" stroke-width="5.842237387313966"/>
  <path d="M 88.1896879730105, 92.04968840120772 Q 88.28842066654495, 80.82473423416747, 88.53105411078673, 63.00115592107168 " fill="none" id="curve_7" stroke="#000000" stroke-linecap="round" stroke-linejoin="round" stroke-width="5.234746466285962"/>
  <path d="M 54.527908248924184, 25.936029077164463 Q 51.938348155209304, 23.54353107509407, 22.45453804736956, 22.806630531683766 " fill="none" id="curve_8" stroke="#000000" stroke-linecap="round" stroke-linejoin="round" stroke-width="5.749811008776258"/>
  <path d="M 22.45453804736956, 22.806630531683766 Q 16.980849108223108, 23.684841152112753, 15.098953320068729, 32.65222227356963 " fill="none" id="curve_8" stroke="#000000" stroke-linecap="round" stroke-linejoin="round" stroke-width="7.762833787192303"/>
  <path d="M 15.098953320068729, 32.65222227356963 Q 11.690227084311541, 21.021372191833045, 3.660069062635392, 1.5993425450136236 " fill="none" id="curve_8" stroke="#000000" stroke-linecap="round" stroke-linejoin="round" stroke-width="6.205657600254819"/>
  <path d="M 31.73243430703237, 3.077418149211171 Q 32.14650722108442, 1.6355368353661393, 52.92974316151659, 1.5147950416530271 " fill="none" id="curve_9" stroke="#000000" stroke-linecap="round" stroke-linejoin="round" stroke-width="2.31034304451202"/>
  <path d="M 52.92974316151659, 1.5147950416530271 Q 59.84369432255721, 1.6483545234686119, 73.69413928287798, 1.914680911925138 " fill="none" id="curve_9" stroke="#000000" stroke-linecap="round" stroke-linejoin="round" stroke-width="1.6484034463965276"/>
  <path d="M 73.69413928287798, 1.914680911925138 Q 80.76372956996252, 1.7623560082316128, 88.7641191904579, 1.5684633947545015 " fill="none" id="curve_9" stroke="#000000" stroke-linecap="round" stroke-linejoin="round" stroke-width="2.9018598269326117"/>
  <path d="M 88.7641191904579, 1.5684633947545015 Q 89.04279048960723, 3.087968535508084, 89.18660111120396, 6.976111222422368 " fill="none" id="curve_9" stroke="#000000" stroke-linecap="round" stroke-linejoin="round" stroke-width="2.744504357207222"/>
  <path d="M 77.04901999562365, 1.4547954566193715 Q 70.26898812764406, 1.5021815221893482, 60.896333789545174, 1.5980192856805837 " fill="none" id="curve_10" stroke="#000000" stroke-linecap="round" stroke-linejoin="round" stroke-width="2.033332399168073"/>
  <path d="M 72.60898881248639, 52.51794073836463 Q 72.81459391259168, 50.35707687642981, 74.09447032091526, 49.341427134410274 " fill="none" id="curve_14" stroke="#000000" stroke-linecap="round" stroke-linejoin="round" stroke-width="2.282486926365346"/>
</svg>
