<?xml version="1.0" ?>
<svg height="140" width="140" xmlns="http://www.w3.org/2000/svg">
  <path d="M 39.02122116088867, 106.52977347373962 Q 38.916176545254196, 106.75540827812084, 38.44412404196417, 106.95461206585678 " fill="none" id="curve_1" stroke="#000000" stroke-linecap="round" stroke-linejoin="round" stroke-width="7.548274653581223"/>
  <path d="M 38.44412404196417, 106.95461206585678 Q 40.26915273235002, 101.02175285561258, 44.11749941848276, 94.0181648587786 " fill="none" id="curve_1" stroke="#000000" stroke-linecap="round" stroke-linejoin="round" stroke-width="6.6857411323341775"/>
  <path d="M 44.11749941848276, 94.0181648587786 Q 46.55709854370718, 87.1709485532486, 49.57778433835397, 74.83300169468026 " fill="none" id="curve_1" stroke="#000000" stroke-linecap="round" stroke-linejoin="round" stroke-width="7.286539198543733"/>
  <path d="M 49.57778433835397, 74.83300169468026 Q 52.89070706977207, 65.70564190295025, 60.842987055688006, 44.02243254936195 " fill="none" id="curve_1" stroke="#000000" stroke-linecap="round" stroke-linejoin="round" stroke-width="6.347806571358769"/>
  <path d="M 60.842987055688006, 44.02243254936195 Q 54.59211649312085, 46.454233315221764, 33.06791364246344, 47.949325472842695 " fill="none" id="curve_1" stroke="#000000" stroke-linecap="round" stroke-linejoin="round" stroke-width="4.6023389540912"/>
  <path d="M 39.31769721171236, 78.09590934403006 Q 58.24920945944417, 76.11014814098367, 70.19171865635376, 70.73672456713703 " fill="none" id="curve_2" stroke="#000000" stroke-linecap="round" stroke-linejoin="round" stroke-width="5.282379708187354"/>
  <path d="M 70.19171865635376, 70.73672456713703 Q 50.99090035584774, 72.26163679998929, 39.57950765028024, 79.73406011123392 " fill="none" id="curve_2" stroke="#000000" stroke-linecap="round" stroke-linejoin="round" stroke-width="2.948088942334543"/>
  <path d="M 60.472494109344645, 45.78793226531726 Q 61.59022952915913, 44.082870165257276, 63.728523117855346, 42.47388784425044 " fill="none" id="curve_3" stroke="#000000" stroke-linecap="round" stroke-linejoin="round" stroke-width="4.778249735628965"/>
  <path d="M 39.51141675650673, 77.79995130309152 Q 38.333802103247734, 77.78286563517632, 37.65497156713639, 77.72527624876746 " fill="none" id="curve_4" stroke="#000000" stroke-linecap="round" stroke-linejoin="round" stroke-width="4.798237526853122"/>
  <path d="M 52.84962960215492, 42.747831984627304 Q 60.37158758331567, 42.62744186209752, 62.85797458445779, 41.86834558742926 " fill="none" id="curve_5" stroke="#000000" stroke-linecap="round" stroke-linejoin="round" stroke-width="2.66005489453786"/>
  <path d="M 44.64144920803288, 75.24673872708095 Q 43.00481402247885, 76.25909496719966, 39.331350219911556, 77.55888252340988 " fill="none" id="curve_6" stroke="#000000" stroke-linecap="round" stroke-linejoin="round" stroke-width="2.860482677197133"/>
  <path d="M 43.82502886302493, 99.70831798785095 Q 42.71500139581972, 104.62863124664344, 40.44403368652513, 107.37662732720618 " fill="none" id="curve_7" stroke="#000000" stroke-linecap="round" stroke-linejoin="round" stroke-width="3.035092160251143"/>
  <path d="M 45.335520820440095, 81.9043250516543 Q 46.65506472075403, 76.83447017163986, 63.54433607726942, 75.16456122052688 " fill="none" id="curve_8" stroke="#000000" stroke-linecap="round" stroke-linejoin="round" stroke-width="2.910771723109805"/>
  <path d="M 53.48160337310938, 56.60897123941339 Q 55.53501108507454, 50.657644907930994, 63.438988714519944, 46.464122443340784 " fill="none" id="curve_9" stroke="#000000" stroke-linecap="round" stroke-linejoin="round" stroke-width="2.996850717173886"/>
  <path d="M 49.283408993250696, 44.445917566078954 Q 48.470807790830655, 47.15491945735978, 32.13880989764555, 47.463577065008415 " fill="none" id="curve_10" stroke="#000000" stroke-linecap="round" stroke-linejoin="round" stroke-width="3.6775482316509684"/>
  <path d="M 40.50963887509765, 46.59738711447168 Q 42.29323438952998, 46.81790256128719, 46.4942845919272, 47.15101020267475 " fill="none" id="curve_12" stroke="#000000" stroke-linecap="round" stroke-linejoin="round" stroke-width="3.301982547587815"/>
  <path d="M 44.27562470915682, 76.93739952388744 Q 41.95442742307017, 76.94514330842757, 39.28246367680577, 76.96160323092178 " fill="none" id="curve_16" stroke="#000000" stroke-linecap="round" stroke-linejoin="round" stroke-width="3.274925470269523"/>
  <path d="M 43.18092349946894, 46.94146371390164 Q 41.2769817556693, 47.13207116970096, 37.602024134253604, 47.443301504282225 " fill="none" id="curve_36" stroke="#000000" stroke-linecap="round" stroke-linejoin="round" stroke-width="3.3398213088076676"/>
  <path d="M 45.995190410331226, 46.74905332577521 Q 44.342753533259476, 46.71484248762079, 40.35245251472533, 46.664063219659084 " fill="none" id="curve_60" stroke="#000000" stroke-linecap="round" stroke-linejoin="round" stroke-width="3.238780354858745"/>
  <path d="M 44.171802696564406, 48.30900485431342 Q 43.31294128574938, 48.10870402147242, 37.70453582865545, 47.96940146354967 " fill="none" id="curve_65" stroke="#000000" stroke-linecap="round" stroke-linejoin="round" stroke-width="2.9557702850692866"/>
</svg>
