<?xml version="1.0" ?>
<svg height="140" width="140" xmlns="http://www.w3.org/2000/svg">
  <path d="M 49.95865440368652, 16.62346839904785 Q 50.51781772750322, 17.3981384390711, 53.96746447636707, 17.930516627521982 " fill="none" id="curve_1" stroke="#000000" stroke-linecap="round" stroke-linejoin="round" stroke-width="4.075188638854186"/>
  <path d="M 53.96746447636707, 17.930516627521982 Q 54.060538473949904, 24.90523136267027, 54.64382121698573, 28.964070049589097 " fill="none" id="curve_1" stroke="#000000" stroke-linecap="round" stroke-linejoin="round" stroke-width="4.764519275489867"/>
  <path d="M 54.64382121698573, 28.964070049589097 Q 51.96448422981913, 41.014675847135145, 45.528413896811664, 49.88063830027329 " fill="none" id="curve_1" stroke="#000000" stroke-linecap="round" stroke-linejoin="round" stroke-width="4.149697752040918"/>
  <path d="M 45.528413896811664, 49.88063830027329 Q 32.039652170346244, 51.792806592463805, 24.63311803191879, 59.99009288932228 " fill="none" id="curve_1" stroke="#000000" stroke-linecap="round" stroke-linejoin="round" stroke-width="3.3557548143288045"/>
  <path d="M 34.71043682831733, 84.50717633212537 Q 36.60141751918984, 72.48356293380877, 46.08104972191258, 53.58562190543833 " fill="none" id="curve_2" stroke="#000000" stroke-linecap="round" stroke-linejoin="round" stroke-width="4.808451479166535"/>
  <path d="M 46.08104972191258, 53.58562190543833 Q 46.772207372956636, 45.65772516294918, 65.41343697584382, 44.86906542176808 " fill="none" id="curve_2" stroke="#000000" stroke-linecap="round" stroke-linejoin="round" stroke-width="4.533230014537556"/>
  <path d="M 52.257824816367986, 17.760254131158682 Q 34.802997075497274, 18.50238820433755, 27.796181823102714, 22.46177676026297 " fill="none" id="curve_3" stroke="#000000" stroke-linecap="round" stroke-linejoin="round" stroke-width="4.4804123883502465"/>
  <path d="M 56.26917922032749, 17.05249420797188 Q 56.040553478509594, 26.06460747473637, 54.17344626464552, 28.59845179049505 " fill="none" id="curve_4" stroke="#000000" stroke-linecap="round" stroke-linejoin="round" stroke-width="3.283528001318936"/>
  <path d="M 26.91398392339518, 62.13291201227187 Q 26.432033227654042, 61.196181318458386, 25.73880603088556, 60.02455528879397 " fill="none" id="curve_5" stroke="#000000" stroke-linecap="round" stroke-linejoin="round" stroke-width="4.116577052246943"/>
  <path d="M 25.73880603088556, 60.02455528879397 Q 32.09381513378854, 53.4842275331154, 46.2097245380873, 47.87737237494279 " fill="none" id="curve_5" stroke="#000000" stroke-linecap="round" stroke-linejoin="round" stroke-width="3.307498414748606"/>
  <path d="M 54.52267624383272, 25.197010121224032 Q 52.13888229379666, 30.957316954391697, 49.75730952084826, 40.397956947563 " fill="none" id="curve_6" stroke="#000000" stroke-linecap="round" stroke-linejoin="round" stroke-width="2.4573389921491664"/>
  <path d="M 33.87046659127897, 83.61946497430336 Q 34.06595843000874, 79.3087612650207, 34.928772926420436, 77.33656335272732 " fill="none" id="curve_9" stroke="#000000" stroke-linecap="round" stroke-linejoin="round" stroke-width="3.0087033559887324"/>
  <path d="M 53.327404260635376, 15.556840896606445 Q 48.87060468766289, 16.726207268650192, 42.449385483748415, 19.2134283081391 " fill="none" id="curve_23" stroke="#000000" stroke-linecap="round" stroke-linejoin="round" stroke-width="2.6883141928499095"/>
  <path d="M 51.641396136171466, 44.798587292634664 Q 60.16086715919991, 45.336888209236356, 67.40059360150997, 46.44018739828388 " fill="none" id="curve_24" stroke="#000000" stroke-linecap="round" stroke-linejoin="round" stroke-width="2.325275605685146"/>
  <path d="M 47.02822593384016, 47.065414005257495 Q 44.21824740162698, 58.8821809969326, 37.23115728734278, 79.60092769831401 " fill="none" id="curve_27" stroke="#000000" stroke-linecap="round" stroke-linejoin="round" stroke-width="1.9520155728919333"/>
  <path d="M 48.095733642578125, 138.3019898533821 Q 41.777081360222006, 138.3140715077218, 29.188782436652218, 138.35373152844716 " fill="none" id="curve_54" stroke="#000000" stroke-linecap="round" stroke-linejoin="round" stroke-width="3.270681016081664"/>
  <path d="M 29.188782436652218, 138.35373152844716 Q 25.340817246871232, 138.37292973397007, 11.235992416244347, 138.40456915215 " fill="none" id="curve_54" stroke="#000000" stroke-linecap="round" stroke-linejoin="round" stroke-width="2.859309635572447"/>
  <path d="M 11.235992416244347, 138.40456915215 Q 5.274652710318654, 138.21147550911382, 1.7581959745688405, 137.74733928457894 " fill="none" id="curve_54" stroke="#000000" stroke-linecap="round" stroke-linejoin="round" stroke-width="4.2087089274306475"/>
  <path d="M 1.7581959745688405, 137.74733928457894 Q 1.7284048093211857, 135.75627054951045, 1.6526977288698528, 134.8399564487061 " fill="none" id="curve_54" stroke="#000000" stroke-linecap="round" stroke-linejoin="round" stroke-width="2.1789114651969483"/>
  <path d="M 48.50433719451703, 137.43091464311402 Q 48.79406303501642, 138.96396665569455, 68.12390879009254, 139.03572175932104 " fill="none" id="curve_57" stroke="#000000" stroke-linecap="round" stroke-linejoin="round" stroke-width="2.1996405919214155"/>
  <path d="M 68.12390879009254, 139.03572175932104 Q 81.75888396940904, 138.9356862064867, 87.58740172048789, 138.0374692904529 " fill="none" id="curve_57" stroke="#000000" stroke-linecap="round" stroke-linejoin="round" stroke-width="2.381658936678523"/>
  <path d="M 87.58740172048789, 138.0374692904529 Q 88.80891690486423, 137.8945294243212, 88.91724291371759, 135.13477861444858 " fill="none" id="curve_57" stroke="#000000" stroke-linecap="round" stroke-linejoin="round" stroke-width="4.027107976489821"/>
  <path d="M 88.89406957461993, 138.38420618114213 Q 88.18970398427709, 137.78165127317823, 85.47177546166971, 137.58097939578886 " fill="none" id="curve_58" stroke="#000000" stroke-linecap="round" stroke-linejoin="round" stroke-width="3.9717136250044707"/>
  <path d="M 37.618411736173925, 83.69468173928999 Q 36.76749242203095, 83.39372941872513, 35.49396401344322, 83.07308445924411 " fill="none" id="curve_86" stroke="#000000" stroke-linecap="round" stroke-linejoin="round" stroke-width="3.7421147562712407"/>
  <path d="M 43.77242867685812, 59.5416452558557 Q 44.336270911315886, 54.768991215919144, 45.23130008216099, 49.25810666473498 " fill="none" id="curve_87" stroke="#000000" stroke-linecap="round" stroke-linejoin="round" stroke-width="2.4910911127903637"/>
  <path d="M 28.54193872478742, 24.33457622504969 Q 28.818484100185778, 23.75772596958394, 29.32780349179104, 22.87015728375413 " fill="none" id="curve_121" stroke="#000000" stroke-linecap="round" stroke-linejoin="round" stroke-width="2.3981738889728597"/>
  <path d="M 38.11099126569336, 19.88833546067008 Q 40.933034897059464, 18.436248493320342, 50.993816665012005, 17.385904190335083 " fill="none" id="curve_126" stroke="#000000" stroke-linecap="round" stroke-linejoin="round" stroke-width="2.366109156537633"/>
  <path d="M 40.70722586773413, 59.68710411949836 Q 38.57694129811727, 67.68350785203874, 35.18763979279026, 77.87055762020461 " fill="none" id="curve_158" stroke="#000000" stroke-linecap="round" stroke-linejoin="round" stroke-width="2.2449123276766825"/>
  <path d="M 26.43662126201614, 61.08281177441846 Q 27.613660190636047, 61.49782589046835, 28.87772358021042, 62.282726240220995 " fill="none" id="curve_159" stroke="#000000" stroke-linecap="round" stroke-linejoin="round" stroke-width="2.7901231814933674"/>
  <path d="M 55.226612424715654, 23.091300164872344 Q 56.58708600559802, 22.7260135860478, 57.5611753951521, 21.687822270602588 " fill="none" id="curve_162" stroke="#000000" stroke-linecap="round" stroke-linejoin="round" stroke-width="2.869143766558416"/>
  <path d="M 49.59553051824011, 16.638885524218907 Q 48.397170968643124, 17.00040264964866, 44.91162675060596, 17.421042319217907 " fill="none" id="curve_163" stroke="#000000" stroke-linecap="round" stroke-linejoin="round" stroke-width="2.689429785144703"/>
</svg>
