<?xml version="1.0" ?>
<svg height="140" width="140" xmlns="http://www.w3.org/2000/svg">
  <path d="M 48.93392515182495, 51.32533264160156 Q 48.940902063396734, 52.57180232503959, 48.97237484557514, 53.934808808469135 " fill="none" id="curve_1" stroke="#000000" stroke-linecap="round" stroke-linejoin="round" stroke-width="6.48824652487292"/>
  <path d="M 48.97237484557514, 53.934808808469135 Q 48.400449121217676, 68.51625869379117, 42.916810728401806, 82.49633255892627 " fill="none" id="curve_1" stroke="#000000" stroke-linecap="round" stroke-linejoin="round" stroke-width="4.97855429468854"/>
  <path d="M 42.916810728401806, 82.49633255892627 Q 41.71664202282625, 88.01593473142287, 38.46655784042001, 95.72393643370036 " fill="none" id="curve_1" stroke="#000000" stroke-linecap="round" stroke-linejoin="round" stroke-width="4.743952055180059"/>
  <path d="M 38.46655784042001, 95.72393643370036 Q 34.50902270409964, 108.10731413262167, 28.92177482563899, 120.77495156845515 " fill="none" id="curve_1" stroke="#000000" stroke-linecap="round" stroke-linejoin="round" stroke-width="5.296183817422127"/>
  <path d="M 33.283919703396734, 92.07556873512817 Q 39.832897055018734, 91.48697580057078, 42.406842430723984, 87.53685350857356 " fill="none" id="curve_2" stroke="#000000" stroke-linecap="round" stroke-linejoin="round" stroke-width="3.2127046604530545"/>
  <path d="M 49.673186622539454, 48.93258012851385 Q 30.18793587483401, 49.943898651826366, 15.155111750258833, 57.692938001524396 " fill="none" id="curve_3" stroke="#000000" stroke-linecap="round" stroke-linejoin="round" stroke-width="3.741128269980434"/>
  <path d="M 43.234651586174365, 87.28621819908348 Q 39.607218024094216, 90.60739134226378, 27.873291650784786, 92.25669811825479 " fill="none" id="curve_5" stroke="#000000" stroke-linecap="round" stroke-linejoin="round" stroke-width="2.592070123032592"/>
  <path d="M 42.28999391243858, 87.62215566881207 Q 39.78303251786825, 87.77238663001289, 38.65226373532577, 88.70603579576809 " fill="none" id="curve_6" stroke="#000000" stroke-linecap="round" stroke-linejoin="round" stroke-width="4.974831898849111"/>
  <path d="M 38.65226373532577, 88.70603579576809 Q 34.993688552881956, 97.41182383785588, 29.759985595062595, 120.95674589361704 " fill="none" id="curve_6" stroke="#000000" stroke-linecap="round" stroke-linejoin="round" stroke-width="2.818443713488458"/>
  <path d="M 29.759985595062595, 120.95674589361704 Q 32.22895982451507, 110.60473747537637, 41.000868758426876, 91.49933148040017 " fill="none" id="curve_6" stroke="#000000" stroke-linecap="round" stroke-linejoin="round" stroke-width="1.9780631763780254"/>
  <path d="M 41.000868758426876, 91.49933148040017 Q 43.19398315106417, 88.47811616930343, 44.56568634865552, 77.13712047367925 " fill="none" id="curve_6" stroke="#000000" stroke-linecap="round" stroke-linejoin="round" stroke-width="2.87092899385811"/>
  <path d="M 41.29520336920892, 47.80912770440513 Q 35.79861487213927, 48.905677763421345, 31.141188576612453, 51.090948520601046 " fill="none" id="curve_7" stroke="#000000" stroke-linecap="round" stroke-linejoin="round" stroke-width="2.933373920170591"/>
  <path d="M 41.55090882748295, 48.78258778060169 Q 44.12978233345038, 48.32867987108915, 46.51350187356006, 46.969111489258026 " fill="none" id="curve_9" stroke="#000000" stroke-linecap="round" stroke-linejoin="round" stroke-width="2.999243246939408"/>
  <path d="M 89.91619572339032, 2.1635414290478328 Q 90.00961114512585, 2.463220442452373, 90.2312681097307, 3.0256087338668634 " fill="none" id="curve_11" stroke="#000000" stroke-linecap="round" stroke-linejoin="round" stroke-width="1.9446585218720347"/>
  <path d="M 43.33680118701215, 82.3507685530014 Q 44.03172168249688, 75.57945130625039, 45.83450942899543, 68.74390354106981 " fill="none" id="curve_28" stroke="#000000" stroke-linecap="round" stroke-linejoin="round" stroke-width="2.943239321589184"/>
  <path d="M 18.040663300837032, 55.668869364945614 Q 15.500402623213834, 56.49430331492574, 13.458798716918098, 58.403543132514315 " fill="none" id="curve_29" stroke="#000000" stroke-linecap="round" stroke-linejoin="round" stroke-width="2.7983339037355575"/>
  <path d="M 30.105253265853406, 121.10513675913839 Q 31.269967859363867, 113.32207145204173, 35.10589420727176, 106.94738898078919 " fill="none" id="curve_33" stroke="#000000" stroke-linecap="round" stroke-linejoin="round" stroke-width="3.077501758475112"/>
  <path d="M 42.563380201345005, 82.91836616950441 Q 42.65608042518481, 85.23788590366284, 42.959193927854685, 87.50271549443362 " fill="none" id="curve_36" stroke="#000000" stroke-linecap="round" stroke-linejoin="round" stroke-width="3.979789172960495"/>
  <path d="M 30.315817578074366, 120.00574113999059 Q 31.09307398929434, 113.77866323219469, 33.1407242749124, 108.51613168102696 " fill="none" id="curve_37" stroke="#000000" stroke-linecap="round" stroke-linejoin="round" stroke-width="3.547401557915691"/>
  <path d="M 43.70857876408273, 88.0755509745781 Q 42.84091161001628, 86.0315419433498, 40.26126413492188, 84.43821584812406 " fill="none" id="curve_52" stroke="#000000" stroke-linecap="round" stroke-linejoin="round" stroke-width="3.6032517422038666"/>
  <path d="M 51.11322903121542, 53.396162874639245 Q 50.236785628605425, 50.499288620993966, 43.447832398296725, 49.483147586871475 " fill="none" id="curve_54" stroke="#000000" stroke-linecap="round" stroke-linejoin="round" stroke-width="2.4295647004797427"/>
  <path d="M 31.750771274836573, 110.03472887046476 Q 31.055348187617465, 117.71440339190507, 28.33350239053582, 120.61445528287142 " fill="none" id="curve_56" stroke="#000000" stroke-linecap="round" stroke-linejoin="round" stroke-width="3.431086248235312"/>
  <path d="M 33.30180740356445, 109.36092758178711 Q 32.891817044944254, 115.09872003180848, 30.608701234117348, 116.90179173519056 " fill="none" id="curve_70" stroke="#000000" stroke-linecap="round" stroke-linejoin="round" stroke-width="5.121781685676023"/>
  <path d="M 28.101187460848735, 120.42797923563336 Q 30.241438450798352, 111.29223513208862, 36.382867862318136, 103.5940704683848 " fill="none" id="curve_150" stroke="#000000" stroke-linecap="round" stroke-linejoin="round" stroke-width="3.2482479089923024"/>
</svg>
