<?xml version="1.0" ?>
<svg height="140" width="140" xmlns="http://www.w3.org/2000/svg">
  <path d="M 56.4595261614747, 81.70544719426111 Q 46.53975600724976, 81.67732047459225, 31.816975609564494, 81.62203886377688 " fill="none" id="curve_4" stroke="#000000" stroke-linecap="round" stroke-linejoin="round" stroke-width="3.711106765062387"/>
  <path d="M 31.816975609564494, 81.62203886377688 Q 34.066658191523246, 86.64879365800542, 34.962316443112805, 109.79995895611663 " fill="none" id="curve_4" stroke="#000000" stroke-linecap="round" stroke-linejoin="round" stroke-width="4.117680138414934"/>
  <path d="M 31.93997643019449, 82.46449330807934 Q 38.87298865150911, 79.8732033782111, 41.7926274066181, 57.38212776157588 " fill="none" id="curve_5" stroke="#000000" stroke-linecap="round" stroke-linejoin="round" stroke-width="4.461362305305424"/>
  <path d="M 41.7926274066181, 57.38212776157588 Q 41.7548213149862, 43.43642824293766, 37.37080999820208, 43.03050768566881 " fill="none" id="curve_5" stroke="#000000" stroke-linecap="round" stroke-linejoin="round" stroke-width="5.435124764314985"/>
  <path d="M 37.37080999820208, 43.03050768566881 Q 34.742313621361156, 42.02097759505015, 21.88764128362733, 41.65726465575984 " fill="none" id="curve_5" stroke="#000000" stroke-linecap="round" stroke-linejoin="round" stroke-width="4.899517122862558"/>
  <path d="M 21.88764128362733, 41.65726465575984 Q 12.157458198927934, 42.86675507802599, 8.319086699171551, 46.79530589510818 " fill="none" id="curve_5" stroke="#000000" stroke-linecap="round" stroke-linejoin="round" stroke-width="4.650250179491681"/>
  <path d="M 23.201766136646636, 79.18378754452024 Q 23.416933615479717, 81.25719070082066, 33.70903832587826, 81.37951677839786 " fill="none" id="curve_6" stroke="#000000" stroke-linecap="round" stroke-linejoin="round" stroke-width="6.805589136914579"/>
  <path d="M 33.70903832587826, 81.37951677839786 Q 36.13027894494993, 81.54604022180027, 36.26696261470543, 87.12645892795999 " fill="none" id="curve_6" stroke="#000000" stroke-linecap="round" stroke-linejoin="round" stroke-width="3.2451250605114117"/>
  <path d="M 36.26696261470543, 87.12645892795999 Q 33.576380420713264, 89.9904132448251, 32.913291372907, 107.01297150905442 " fill="none" id="curve_6" stroke="#000000" stroke-linecap="round" stroke-linejoin="round" stroke-width="2.9208385357201982"/>
  <path d="M 40.27720941413783, 83.05518608841392 Q 42.0917110808908, 83.00912540806209, 44.333589988049205, 82.87336078762887 " fill="none" id="curve_7" stroke="#000000" stroke-linecap="round" stroke-linejoin="round" stroke-width="2.872886018840936"/>
  <path d="M 42.74743804825908, 50.61109480193141 Q 42.685429629283234, 47.400963342039915, 42.52667544640985, 45.496145697685535 " fill="none" id="curve_8" stroke="#000000" stroke-linecap="round" stroke-linejoin="round" stroke-width="3.6887873994066314"/>
  <path d="M 27.603087143168107, 80.73717991521289 Q 23.44651024646399, 81.13120828686712, 19.862418058040287, 81.91774580210473 " fill="none" id="curve_9" stroke="#000000" stroke-linecap="round" stroke-linejoin="round" stroke-width="2.775893947244624"/>
  <path d="M 37.439300741009774, 110.41790033086704 Q 33.73924787988967, 108.87920546068952, 32.717637049319876, 96.23124734705677 " fill="none" id="curve_10" stroke="#000000" stroke-linecap="round" stroke-linejoin="round" stroke-width="2.991545524158919"/>
  <path d="M 51.22716258590333, 84.05783351693127 Q 51.11888806435071, 83.02495545473543, 50.85029204309149, 82.19434438745715 " fill="none" id="curve_11" stroke="#000000" stroke-linecap="round" stroke-linejoin="round" stroke-width="3.586608415310356"/>
  <path d="M 30.76217483018957, 41.15969184802014 Q 37.179196142079974, 43.362545854824894, 42.64810153673245, 51.40368255930247 " fill="none" id="curve_18" stroke="#000000" stroke-linecap="round" stroke-linejoin="round" stroke-width="2.1280902670525226"/>
  <path d="M 36.37382358129617, 80.71805073846758 Q 38.486941990151514, 80.76039620308488, 41.19260391562937, 80.8327603587897 " fill="none" id="curve_33" stroke="#000000" stroke-linecap="round" stroke-linejoin="round" stroke-width="2.44707619057314"/>
  <path d="M 89.49624899851027, 1.1278779700412134 Q 89.41912849273517, 1.5131754722696196, 89.24299714662804, 2.122567229700147 " fill="none" id="curve_42" stroke="#000000" stroke-linecap="round" stroke-linejoin="round" stroke-width="2.128817455581336"/>
  <path d="M 25.967104901397512, 79.95924902041749 Q 25.338590547336764, 80.19549437460863, 24.287451666629117, 80.68603733306985 " fill="none" id="curve_49" stroke="#000000" stroke-linecap="round" stroke-linejoin="round" stroke-width="3.701228516664748"/>
  <path d="M 34.24832392889127, 98.37049250503209 Q 34.789360361845276, 94.50879521852141, 35.92644993608585, 89.79063377961783 " fill="none" id="curve_57" stroke="#000000" stroke-linecap="round" stroke-linejoin="round" stroke-width="2.4430065758323645"/>
  <path d="M 29.897189976493948, 41.67213161089251 Q 30.04657215076238, 41.33557200633217, 30.384489117504494, 40.76143563171568 " fill="none" id="curve_58" stroke="#000000" stroke-linecap="round" stroke-linejoin="round" stroke-width="3.242226239872849"/>
  <path d="M 42.51367974966472, 60.06799034941862 Q 42.75610231976748, 54.038575774203665, 43.76120507311597, 50.43249429976113 " fill="none" id="curve_61" stroke="#000000" stroke-linecap="round" stroke-linejoin="round" stroke-width="2.6166683468003016"/>
  <path d="M 1.6485745179734383, 1.2808138987668594 Q 1.5781308125873923, 1.6823371095662412, 1.4052630128427999, 2.3484461106809333 " fill="none" id="curve_67" stroke="#000000" stroke-linecap="round" stroke-linejoin="round" stroke-width="1.9923093319433505"/>
  <path d="M 29.847815673416537, 80.5459858531038 Q 27.094395844051313, 80.46069129622815, 24.566455732864522, 80.25685192440585 " fill="none" id="curve_70" stroke="#000000" stroke-linecap="round" stroke-linejoin="round" stroke-width="4.0383107723441745"/>
  <path d="M 33.90623184761645, 41.58389874511772 Q 33.579969412272675, 40.96148449040423, 31.56868061397328, 40.6696284509432 " fill="none" id="curve_73" stroke="#000000" stroke-linecap="round" stroke-linejoin="round" stroke-width="3.4887413576096473"/>
  <path d="M 23.363248036414486, 81.75911845403462 Q 24.36816630603593, 80.4706709971905, 25.742710110173515, 78.42444899084066 " fill="none" id="curve_75" stroke="#000000" stroke-linecap="round" stroke-linejoin="round" stroke-width="3.2721168039022537"/>
  <path d="M 36.6151935218322, 70.52985093092221 Q 36.840891402846346, 75.94501302296433, 37.398133290023104, 81.10350650709617 " fill="none" id="curve_91" stroke="#000000" stroke-linecap="round" stroke-linejoin="round" stroke-width="2.3115931699548917"/>
  <path d="M 17.678516334362346, 82.5576873607831 Q 17.757712857599028, 82.44727342791279, 17.85815879640231, 82.25346382563328 " fill="none" id="curve_95" stroke="#000000" stroke-linecap="round" stroke-linejoin="round" stroke-width="2.0629222385751653"/>
  <path d="M 27.94437710531218, 40.59950720687655 Q 27.571692599557093, 40.94322496499433, 26.809040532582564, 41.32787267104918 " fill="none" id="curve_97" stroke="#000000" stroke-linecap="round" stroke-linejoin="round" stroke-width="3.5420517560618903"/>
  <path d="M 40.38896715380089, 43.848232611617284 Q 37.37466192798863, 43.39452069501187, 29.169869028633386, 42.832348957083816 " fill="none" id="curve_156" stroke="#000000" stroke-linecap="round" stroke-linejoin="round" stroke-width="2.3157606245280733"/>
  <path d="M 38.79814719555426, 44.47111445859984 Q 37.26068299063168, 43.804268434153705, 33.640696840201464, 42.874680125166265 " fill="none" id="curve_161" stroke="#000000" stroke-linecap="round" stroke-linejoin="round" stroke-width="2.265895377783346"/>
</svg>
