<?xml version="1.0" ?>
<svg height="140" width="140" xmlns="http://www.w3.org/2000/svg">
  <path d="M 57.62066841125488, 54.70240306854248 Q 57.67516595539968, 55.223424114489745, 57.70743647368675, 58.59788125730094 " fill="none" id="curve_1" stroke="#000000" stroke-linecap="round" stroke-linejoin="round" stroke-width="7.967316445999326"/>
  <path d="M 57.70743647368675, 58.59788125730094 Q 56.282091407392684, 67.20960024014127, 50.97953204737021, 81.48962337155179 " fill="none" id="curve_1" stroke="#000000" stroke-linecap="round" stroke-linejoin="round" stroke-width="6.401192228570765"/>
  <path d="M 50.97953204737021, 81.48962337155179 Q 41.63679362385895, 81.92312782949574, 32.53562690119665, 83.49292826859482 " fill="none" id="curve_1" stroke="#000000" stroke-linecap="round" stroke-linejoin="round" stroke-width="7.3166585078366"/>
  <path d="M 50.41330379249912, 98.39543291248754 Q 50.725061186363384, 90.82618354408731, 51.51142317543466, 82.14823115081786 " fill="none" id="curve_2" stroke="#000000" stroke-linecap="round" stroke-linejoin="round" stroke-width="5.955641646303999"/>
  <path d="M 51.51142317543466, 82.14823115081786 Q 53.59259775001726, 80.52836213507186, 66.1343460087534, 79.9866805636863 " fill="none" id="curve_2" stroke="#000000" stroke-linecap="round" stroke-linejoin="round" stroke-width="3.64285664599163"/>
  <path d="M 57.026846341891115, 53.753320026761465 Q 37.96539202782913, 53.9571075068287, 25.234559515620898, 55.28314374003211 " fill="none" id="curve_3" stroke="#000000" stroke-linecap="round" stroke-linejoin="round" stroke-width="5.892838445241498"/>
  <path d="M 25.234559515620898, 55.28314374003211 Q 36.34368350633652, 54.03155910560455, 53.67642755512268, 51.33439081151903 " fill="none" id="curve_3" stroke="#000000" stroke-linecap="round" stroke-linejoin="round" stroke-width="4.22237110726013"/>
  <path d="M 24.437102192457118, 54.781945494050824 Q 23.211404901397156, 55.07985782544523, 22.466479360104394, 55.888937573534875 " fill="none" id="curve_4" stroke="#000000" stroke-linecap="round" stroke-linejoin="round" stroke-width="4.61140333016583"/>
  <path d="M 52.69765651818003, 100.33408291134637 Q 52.481126180565774, 100.85845183780339, 51.978749363008845, 101.24632884519099 " fill="none" id="curve_5" stroke="#000000" stroke-linecap="round" stroke-linejoin="round" stroke-width="5.821154555781039"/>
  <path d="M 30.335845637411655, 84.61199155754531 Q 30.945171753898936, 84.70247264524572, 31.525586621885623, 84.91375114218522 " fill="none" id="curve_6" stroke="#000000" stroke-linecap="round" stroke-linejoin="round" stroke-width="4.827947841707423"/>
  <path d="M 53.1899362344817, 101.46535573369329 Q 50.47338554893774, 100.21611216278069, 49.11436589033085, 95.38768766284684 " fill="none" id="curve_7" stroke="#000000" stroke-linecap="round" stroke-linejoin="round" stroke-width="6.122229104951075"/>
  <path d="M 31.383639947012895, 84.96592944229195 Q 31.223412186859438, 84.61689841142754, 30.790945499766696, 84.07253466903838 " fill="none" id="curve_10" stroke="#000000" stroke-linecap="round" stroke-linejoin="round" stroke-width="3.1479457938834123"/>
  <path d="M 30.543587628605643, 83.45203382042301 Q 30.749498056500123, 84.38902761410421, 31.61166313936603, 85.39722152646297 " fill="none" id="curve_14" stroke="#000000" stroke-linecap="round" stroke-linejoin="round" stroke-width="2.818200394882684"/>
  <path d="M 48.91022972827095, 94.88848661664726 Q 49.74654431122904, 96.00915738811605, 51.35619651145466, 97.9439447411638 " fill="none" id="curve_17" stroke="#000000" stroke-linecap="round" stroke-linejoin="round" stroke-width="4.020139340854275"/>
  <path d="M 50.360475925400856, 96.04647149882976 Q 51.548748469408174, 97.80577238692162, 54.16455774554519, 100.15625124600221 " fill="none" id="curve_24" stroke="#000000" stroke-linecap="round" stroke-linejoin="round" stroke-width="3.441668408777023"/>
  <path d="M 37.36401991929179, 84.09840460553701 Q 34.865801250194345, 84.32983268559757, 31.817986946276097, 84.92929705840749 " fill="none" id="curve_26" stroke="#000000" stroke-linecap="round" stroke-linejoin="round" stroke-width="4.334212703772165"/>
  <path d="M 31.817986946276097, 84.92929705840749 Q 31.446293748294426, 84.67730696050508, 30.288460347470547, 84.31495722392224 " fill="none" id="curve_26" stroke="#000000" stroke-linecap="round" stroke-linejoin="round" stroke-width="3.0293379471464084"/>
  <path d="M 37.01396844634871, 84.7622872728401 Q 40.622936429871736, 84.37725806523544, 43.75388320806183, 82.8345417361187 " fill="none" id="curve_33" stroke="#000000" stroke-linecap="round" stroke-linejoin="round" stroke-width="2.757286507050573"/>
  <path d="M 55.22314541683223, 56.05794329867586 Q 55.720022686256314, 53.747230722529686, 56.71634041970633, 51.386011135918366 " fill="none" id="curve_35" stroke="#000000" stroke-linecap="round" stroke-linejoin="round" stroke-width="3.4372052949699676"/>
  <path d="M 38.26737376612731, 55.32481415296553 Q 35.89138299790237, 54.497566406621, 26.263827633446564, 53.92080584824039 " fill="none" id="curve_41" stroke="#000000" stroke-linecap="round" stroke-linejoin="round" stroke-width="3.417999172806688"/>
  <path d="M 36.25732058014978, 56.13092664988352 Q 33.05872294309995, 54.734433019093785, 27.293072882347715, 52.64211887158444 " fill="none" id="curve_82" stroke="#000000" stroke-linecap="round" stroke-linejoin="round" stroke-width="2.6341452163622225"/>
  <path d="M 48.84186099726373, 95.94912000737213 Q 49.123607906881205, 87.21009712256019, 51.337586836030205, 84.36164753697985 " fill="none" id="curve_110" stroke="#000000" stroke-linecap="round" stroke-linejoin="round" stroke-width="3.2897219380901306"/>
  <path d="M 26.516144888811535, 55.95139991062702 Q 24.534059003215184, 55.72669445037472, 21.575057241967663, 55.344978948121124 " fill="none" id="curve_130" stroke="#000000" stroke-linecap="round" stroke-linejoin="round" stroke-width="3.321888764584056"/>
  <path d="M 67.68491902417111, 79.41865019090393 Q 66.5648851326283, 79.2748965473457, 65.09788346065268, 78.88561824432513 " fill="none" id="curve_145" stroke="#000000" stroke-linecap="round" stroke-linejoin="round" stroke-width="2.4332562540497613"/>
  <path d="M 52.52384163674708, 81.84408550198862 Q 54.36741493643579, 77.33695520286021, 56.849085939866356, 69.88112171370925 " fill="none" id="curve_173" stroke="#000000" stroke-linecap="round" stroke-linejoin="round" stroke-width="2.6160487658750493"/>
  <path d="M 42.34099859151303, 84.82220208374756 Q 38.99131786587894, 84.70896681918047, 36.41058958628664, 84.34572539061618 " fill="none" id="curve_174" stroke="#000000" stroke-linecap="round" stroke-linejoin="round" stroke-width="3.2096923232029893"/>
</svg>
