<?xml version="1.0" ?>
<svg height="140" width="140" xmlns="http://www.w3.org/2000/svg">
  <path d="M 49.38507843017578, 92.3683853149414 Q 49.61414127233036, 91.5939124570748, 51.708913004972715, 91.42925741764165 " fill="none" id="curve_1" stroke="#000000" stroke-linecap="round" stroke-linejoin="round" stroke-width="3.878889827273426"/>
  <path d="M 51.708913004972715, 91.42925741764165 Q 36.204953050890694, 91.39082522020627, 33.989566912523586, 90.62287161960036 " fill="none" id="curve_1" stroke="#000000" stroke-linecap="round" stroke-linejoin="round" stroke-width="6.361068792899938"/>
  <path d="M 33.989566912523586, 90.62287161960036 Q 34.899737357899824, 88.98629673707846, 35.145315865254396, 76.45772003698991 " fill="none" id="curve_1" stroke="#000000" stroke-linecap="round" stroke-linejoin="round" stroke-width="9.8799196035483"/>
  <path d="M 35.145315865254396, 76.45772003698991 Q 35.742727423958264, 71.57915544417914, 36.92439904743397, 67.60590986042591 " fill="none" id="curve_1" stroke="#000000" stroke-linecap="round" stroke-linejoin="round" stroke-width="6.1818744019726255"/>
  <path d="M 36.92439904743397, 67.60590986042591 Q 29.747082845668086, 64.06076967751177, 18.51706667781551, 58.91377842254088 " fill="none" id="curve_1" stroke="#000000" stroke-linecap="round" stroke-linejoin="round" stroke-width="6.395231644711147"/>
  <path d="M 23.05641608130263, 91.2713494006021 Q 29.516210551839166, 92.03485722115892, 36.12262867232297, 93.62659805808393 " fill="none" id="curve_2" stroke="#000000" stroke-linecap="round" stroke-linejoin="round" stroke-width="6.211217464266242"/>
  <path d="M 36.12262867232297, 93.62659805808393 Q 35.180483414454905, 108.29430966617338, 30.654559639118894, 112.38763241327207 " fill="none" id="curve_2" stroke="#000000" stroke-linecap="round" stroke-linejoin="round" stroke-width="5.7101643876391215"/>
  <path d="M 20.665695562465885, 92.23656780491507 Q 19.662439402761976, 92.41599286614914, 18.90030250406495, 92.7717181394114 " fill="none" id="curve_3" stroke="#000000" stroke-linecap="round" stroke-linejoin="round" stroke-width="5.020639159797671"/>
  <path d="M 33.979936842340294, 102.5259202967405 Q 33.10753294304196, 102.20494376051087, 32.71255171631706, 100.46902759345372 " fill="none" id="curve_4" stroke="#000000" stroke-linecap="round" stroke-linejoin="round" stroke-width="5.1046428814191565"/>
  <path d="M 16.08465829481214, 60.1331676462666 Q 17.5143083851874, 59.37198945477098, 19.183176035877743, 57.8576917361108 " fill="none" id="curve_5" stroke="#000000" stroke-linecap="round" stroke-linejoin="round" stroke-width="3.524460798727976"/>
  <path d="M 90.41747025194397, 65.94490368897556 Q 90.11043551220692, 78.15304453147334, 89.18363315259542, 99.16311360476536 " fill="none" id="curve_7" stroke="#000000" stroke-linecap="round" stroke-linejoin="round" stroke-width="1.7284768888999875"/>
  <path d="M 89.18363315259542, 99.16311360476536 Q 89.4645580740553, 105.41718854466174, 89.90746995070363, 134.93230910163084 " fill="none" id="curve_7" stroke="#000000" stroke-linecap="round" stroke-linejoin="round" stroke-width="1.5749947635067212"/>
  <path d="M 89.90746995070363, 134.93230910163084 Q 89.84542185659294, 137.6155606107594, 89.45508929428375, 138.459969211121 " fill="none" id="curve_7" stroke="#000000" stroke-linecap="round" stroke-linejoin="round" stroke-width="2.393345649734163"/>
  <path d="M 89.94097950032054, 64.1760761858486 Q 89.72578822829884, 63.52776229253489, 89.68704255341954, 50.6344144505608 " fill="none" id="curve_10" stroke="#000000" stroke-linecap="round" stroke-linejoin="round" stroke-width="1.4957510824488467"/>
  <path d="M 89.68704255341954, 50.6344144505608 Q 89.63680862565704, 48.09195687226139, 89.59785396173469, 37.36187716549568 " fill="none" id="curve_10" stroke="#000000" stroke-linecap="round" stroke-linejoin="round" stroke-width="1.4851721189490499"/>
  <path d="M 89.59785396173469, 37.36187716549568 Q 89.59197175763579, 34.223645258994246, 89.58544164907136, 23.66397940244275 " fill="none" id="curve_10" stroke="#000000" stroke-linecap="round" stroke-linejoin="round" stroke-width="1.3768491694238827"/>
  <path d="M 89.58544164907136, 23.66397940244275 Q 89.5527882216897, 20.175882688380796, 89.50478280711987, 10.800903270168048 " fill="none" id="curve_10" stroke="#000000" stroke-linecap="round" stroke-linejoin="round" stroke-width="1.408698248579749"/>
  <path d="M 89.50478280711987, 10.800903270168048 Q 89.09685279938714, 9.515082003658462, 88.94402874637463, 1.4494294618794736 " fill="none" id="curve_10" stroke="#000000" stroke-linecap="round" stroke-linejoin="round" stroke-width="2.866102413958814"/>
  <path d="M 88.94402874637463, 1.4494294618794736 Q 88.33030476306179, 1.3626435108452901, 87.44019685169769, 1.2885582890168479 " fill="none" id="curve_10" stroke="#000000" stroke-linecap="round" stroke-linejoin="round" stroke-width="2.507309356406999"/>
  <path d="M 16.764457662665677, 60.909595464031526 Q 31.441154402980615, 62.444736248985826, 39.76017662281665, 66.3640967128696 " fill="none" id="curve_20" stroke="#000000" stroke-linecap="round" stroke-linejoin="round" stroke-width="3.3797355569620215"/>
  <path d="M 34.006558784924536, 89.38406578240449 Q 28.672523672822727, 89.79276946676444, 24.44182513218522, 90.75531120486094 " fill="none" id="curve_21" stroke="#000000" stroke-linecap="round" stroke-linejoin="round" stroke-width="3.1570854690187518"/>
  <path d="M 16.92735561922773, 58.21504984655302 Q 17.673906000028204, 57.64638568690191, 18.56156142150517, 56.7881400484996 " fill="none" id="curve_22" stroke="#000000" stroke-linecap="round" stroke-linejoin="round" stroke-width="4.044937781629118"/>
  <path d="M 32.34216965023406, 109.56862403048015 Q 34.99864369728281, 106.55683003120777, 36.58729750304327, 97.50937456343598 " fill="none" id="curve_24" stroke="#000000" stroke-linecap="round" stroke-linejoin="round" stroke-width="4.756491094897597"/>
  <path d="M 31.474949555916034, 109.47623851388047 Q 33.089035443467395, 105.71657777006135, 35.67800101692993, 101.11484808617098 " fill="none" id="curve_28" stroke="#000000" stroke-linecap="round" stroke-linejoin="round" stroke-width="3.94198571150443"/>
  <path d="M 23.788633484360346, 92.67012887520475 Q 25.764064457385338, 92.6440138112429, 30.05381467986138, 92.60579835386272 " fill="none" id="curve_39" stroke="#000000" stroke-linecap="round" stroke-linejoin="round" stroke-width="2.7426596728034913"/>
  <path d="M 32.997375489999826, 110.54789408857857 Q 35.05050706497661, 106.59806752666542, 36.307073589773175, 94.57987456665477 " fill="none" id="curve_42" stroke="#000000" stroke-linecap="round" stroke-linejoin="round" stroke-width="4.227418172620377"/>
  <path d="M 29.912453676467877, 111.50249563392421 Q 31.341700703961813, 111.02424418498876, 33.978779192743744, 110.36769311788339 " fill="none" id="curve_43" stroke="#000000" stroke-linecap="round" stroke-linejoin="round" stroke-width="3.2529296755794905"/>
  <path d="M 33.12703749229113, 110.07577728706883 Q 34.744299340356044, 105.14875971008556, 35.94716993826185, 92.32543349642661 " fill="none" id="curve_49" stroke="#000000" stroke-linecap="round" stroke-linejoin="round" stroke-width="3.725836210497233"/>
  <path d="M 34.841630564777404, 104.47866807648165 Q 34.249093950980736, 105.76267606712317, 32.41294792237744, 107.40537326686977 " fill="none" id="curve_59" stroke="#000000" stroke-linecap="round" stroke-linejoin="round" stroke-width="4.702250973491203"/>
  <path d="M 32.8655218241674, 91.20873598223841 Q 33.9679717637152, 97.40779016666727, 35.15963584147955, 106.89500346370374 " fill="none" id="curve_61" stroke="#000000" stroke-linecap="round" stroke-linejoin="round" stroke-width="3.30879002073309"/>
  <path d="M 28.225442092544217, 61.539257243105496 Q 33.6088805802943, 62.27934414757622, 36.36743640424292, 64.94996003423456 " fill="none" id="curve_71" stroke="#000000" stroke-linecap="round" stroke-linejoin="round" stroke-width="2.645842195857484"/>
  <path d="M 29.505725977923174, 111.79808395269814 Q 30.323764875986914, 111.8287452895947, 32.060962926756005, 111.85654872989923 " fill="none" id="curve_77" stroke="#000000" stroke-linecap="round" stroke-linejoin="round" stroke-width="3.020643854086649"/>
  <path d="M 30.029986159801354, 111.93924801209926 Q 29.860087471221018, 112.2308147463306, 29.39810016146595, 112.47884385762323 " fill="none" id="curve_85" stroke="#000000" stroke-linecap="round" stroke-linejoin="round" stroke-width="2.8112178972131185"/>
  <path d="M 34.34032440185547, 97.21982669830322 Q 37.211696730040046, 97.18282207876014, 38.16093301739383, 96.88261391153213 " fill="none" id="curve_125" stroke="#000000" stroke-linecap="round" stroke-linejoin="round" stroke-width="3.1284810718640284"/>
  <path d="M 31.186581398656852, 110.44311836285446 Q 32.245225720694336, 109.2741014253377, 34.82238728612552, 108.03641684253006 " fill="none" id="curve_128" stroke="#000000" stroke-linecap="round" stroke-linejoin="round" stroke-width="3.902516000268449"/>
  <path d="M 30.3072808148057, 111.9793140028032 Q 29.95054735282735, 112.11838865294168, 29.289752042424542, 112.23879654531177 " fill="none" id="curve_134" stroke="#000000" stroke-linecap="round" stroke-linejoin="round" stroke-width="3.5760328931322647"/>
  <path d="M 33.19171145836255, 106.56403162773344 Q 34.06432822827428, 104.42804273530287, 35.95970452670134, 103.02923863113296 " fill="none" id="curve_189" stroke="#000000" stroke-linecap="round" stroke-linejoin="round" stroke-width="5.967161027382241"/>
  <path d="M 28.567319551564328, 113.35756499104299 Q 29.17388916684666, 113.37370097417566, 30.216303369860622, 113.39878349585447 " fill="none" id="curve_197" stroke="#000000" stroke-linecap="round" stroke-linejoin="round" stroke-width="2.5763252784888624"/>
  <path d="M 34.281839630020244, 89.2810144622623 Q 36.001526004316396, 89.46189356825406, 39.71349253984109, 89.6462411181539 " fill="none" id="curve_215" stroke="#000000" stroke-linecap="round" stroke-linejoin="round" stroke-width="3.2084616519325992"/>
  <path d="M 33.1897372040512, 105.94350882004059 Q 32.582964946833066, 105.42726888800357, 31.875042933382304, 104.5510320820453 " fill="none" id="curve_219" stroke="#000000" stroke-linecap="round" stroke-linejoin="round" stroke-width="4.170493813808466"/>
  <path d="M 27.690109561258865, 92.40054972640169 Q 25.124209026373, 91.81331027235038, 20.65643880143622, 91.17514246119941 " fill="none" id="curve_228" stroke="#000000" stroke-linecap="round" stroke-linejoin="round" stroke-width="3.3630352426925323"/>
  <path d="M 17.276174819254777, 57.65244044026707 Q 26.565558642279733, 61.330131174077685, 33.98154723981507, 68.77101094239043 " fill="none" id="curve_251" stroke="#000000" stroke-linecap="round" stroke-linejoin="round" stroke-width="2.4458705632112023"/>
</svg>
