<?xml version="1.0" ?>
<svg height="140" width="140" xmlns="http://www.w3.org/2000/svg">
  <path d="M 37.99578857421875, 106.24099922180176 Q 36.98224924450967, 108.35213543167963, 35.184930363765595, 110.08412659240389 " fill="none" id="curve_1" stroke="#000000" stroke-linecap="round" stroke-linejoin="round" stroke-width="5.636423521973319"/>
  <path d="M 35.184930363765595, 110.08412659240389 Q 36.884970441810246, 106.79884885343068, 37.90459921205959, 98.98719415485752 " fill="none" id="curve_1" stroke="#000000" stroke-linecap="round" stroke-linejoin="round" stroke-width="7.372731913443434"/>
  <path d="M 37.90459921205959, 98.98719415485752 Q 39.031771578674146, 89.92986577858984, 41.119250431712835, 76.7886475287227 " fill="none" id="curve_1" stroke="#000000" stroke-linecap="round" stroke-linejoin="round" stroke-width="8.45776040294592"/>
  <path d="M 41.119250431712835, 76.7886475287227 Q 43.36114628959358, 73.64979096734402, 44.111130081992606, 51.3876977301902 " fill="none" id="curve_1" stroke="#000000" stroke-linecap="round" stroke-linejoin="round" stroke-width="7.2343036057808625"/>
  <path d="M 44.111130081992606, 51.3876977301902 Q 43.94575157602348, 28.955216510426627, 27.077747052670567, 27.905595301806812 " fill="none" id="curve_1" stroke="#000000" stroke-linecap="round" stroke-linejoin="round" stroke-width="5.781689132867895"/>
  <path d="M 27.077747052670567, 27.905595301806812 Q 22.76123833547278, 27.619019623559165, 20.09860621062971, 26.701188252582085 " fill="none" id="curve_1" stroke="#000000" stroke-linecap="round" stroke-linejoin="round" stroke-width="3.203847254847675"/>
  <path d="M 19.086321710916007, 75.2928282195503 Q 16.707019224556344, 77.12616588749252, 15.438683100533048, 84.57018439385412 " fill="none" id="curve_2" stroke="#000000" stroke-linecap="round" stroke-linejoin="round" stroke-width="3.930180186916561"/>
  <path d="M 21.046419376053805, 74.77521457809209 Q 36.85821942490194, 75.07680567363195, 52.37733123420378, 75.7633246952057 " fill="none" id="curve_3" stroke="#000000" stroke-linecap="round" stroke-linejoin="round" stroke-width="4.876165236423978"/>
  <path d="M 52.37733123420378, 75.7633246952057 Q 54.07196413201609, 75.84093135928842, 54.953213170138476, 76.10684959109946 " fill="none" id="curve_3" stroke="#000000" stroke-linecap="round" stroke-linejoin="round" stroke-width="3.335617549013204"/>
  <path d="M 16.33632479734461, 86.80010858928054 Q 16.705206417907593, 85.10974088413383, 16.934965478442287, 77.85940979771709 " fill="none" id="curve_4" stroke="#000000" stroke-linecap="round" stroke-linejoin="round" stroke-width="2.9032865273352955"/>
  <path d="M 16.934965478442287, 77.85940979771709 Q 18.661440055443, 74.11185109525454, 28.631539520939626, 72.928263323301 " fill="none" id="curve_4" stroke="#000000" stroke-linecap="round" stroke-linejoin="round" stroke-width="3.6884514584699324"/>
  <path d="M 44.38588466928138, 41.36266835710455 Q 44.30297490558142, 34.761165145884455, 41.90973309772712, 34.13536884687978 " fill="none" id="curve_5" stroke="#000000" stroke-linecap="round" stroke-linejoin="round" stroke-width="2.7900682996509425"/>
  <path d="M 29.72888021540338, 72.07136460580472 Q 24.917963574499897, 72.91278355955984, 18.28237933310519, 75.42618403936794 " fill="none" id="curve_8" stroke="#000000" stroke-linecap="round" stroke-linejoin="round" stroke-width="2.190673752670036"/>
  <path d="M 39.35470957477557, 104.70338234677914 Q 39.61706768183207, 104.06893470634395, 39.83844137099742, 102.31775547936573 " fill="none" id="curve_9" stroke="#000000" stroke-linecap="round" stroke-linejoin="round" stroke-width="4.354808857175812"/>
  <path d="M 42.349574698999135, 51.38170880946649 Q 43.01868541874282, 49.08057303755809, 44.12136188864602, 46.37200458339518 " fill="none" id="curve_12" stroke="#000000" stroke-linecap="round" stroke-linejoin="round" stroke-width="4.328825225245822"/>
  <path d="M 90.08185437056565, 1.3904434745803815 Q 89.93401214352461, 2.696415121335709, 89.46669756669273, 4.113947369393189 " fill="none" id="curve_14" stroke="#000000" stroke-linecap="round" stroke-linejoin="round" stroke-width="2.399108631480144"/>
  <path d="M 19.752091964752154, 28.672197435335818 Q 20.219552184820735, 28.29212228774356, 21.246589289487083, 27.693406855398557 " fill="none" id="curve_21" stroke="#000000" stroke-linecap="round" stroke-linejoin="round" stroke-width="2.305391400212369"/>
  <path d="M 44.40949504532169, 47.97224140245148 Q 43.69337718888804, 47.98331035056712, 42.63061780327088, 48.00514410322378 " fill="none" id="curve_55" stroke="#000000" stroke-linecap="round" stroke-linejoin="round" stroke-width="4.489438309710235"/>
  <path d="M 15.995610476037701, 79.87270543699876 Q 15.993176818543471, 79.50289884224823, 15.989581336753764, 78.6307881367995 " fill="none" id="curve_110" stroke="#000000" stroke-linecap="round" stroke-linejoin="round" stroke-width="2.7117772123299595"/>
</svg>
