<?xml version="1.0" ?>
<svg height="140" width="140" xmlns="http://www.w3.org/2000/svg">
  <path d="M 52.49520301818848, 103.00294303894043 Q 53.52917078222016, 96.00858809129129, 57.999385274259225, 88.44649742739703 " fill="none" id="curve_1" stroke="#000000" stroke-linecap="round" stroke-linejoin="round" stroke-width="7.941255682507597"/>
  <path d="M 57.999385274259225, 88.44649742739703 Q 58.171347765477485, 80.23815191848472, 62.0155605072989, 79.10139439948324 " fill="none" id="curve_1" stroke="#000000" stroke-linecap="round" stroke-linejoin="round" stroke-width="7.731264017719747"/>
  <path d="M 62.0155605072989, 79.10139439948324 Q 65.93141867624955, 71.14928625110839, 71.17413379247628, 56.226983365893105 " fill="none" id="curve_1" stroke="#000000" stroke-linecap="round" stroke-linejoin="round" stroke-width="6.2857954419749955"/>
  <path d="M 71.17413379247628, 56.226983365893105 Q 61.9886362485718, 54.221019601793884, 34.699737923916075, 50.12208741900068 " fill="none" id="curve_1" stroke="#000000" stroke-linecap="round" stroke-linejoin="round" stroke-width="6.694279434793134"/>
  <path d="M 34.699737923916075, 50.12208741900068 Q 26.295044328833328, 47.70836081905841, 20.753392169469542, 40.11166617508543 " fill="none" id="curve_1" stroke="#000000" stroke-linecap="round" stroke-linejoin="round" stroke-width="6.059295448435916"/>
  <path d="M 20.753392169469542, 40.11166617508543 Q 17.093182773940946, 51.069733334920905, 5.521228866062126, 74.02238493952814 " fill="none" id="curve_1" stroke="#000000" stroke-linecap="round" stroke-linejoin="round" stroke-width="4.44898459218095"/>
  <path d="M 39.316454279257194, 81.34054386874054 Q 40.235760987352215, 82.00256940440174, 63.354486938252705, 82.06328254899798 " fill="none" id="curve_2" stroke="#000000" stroke-linecap="round" stroke-linejoin="round" stroke-width="6.840630503918296"/>
  <path d="M 63.354486938252705, 82.06328254899798 Q 66.55646149654436, 80.35813792387205, 72.28314370293147, 79.13043158416353 " fill="none" id="curve_2" stroke="#000000" stroke-linecap="round" stroke-linejoin="round" stroke-width="4.457264996526956"/>
  <path d="M 52.27384418587425, 103.09654807596529 Q 52.595201846012806, 102.78578054440572, 52.727726306166744, 101.06751383177044 " fill="none" id="curve_3" stroke="#000000" stroke-linecap="round" stroke-linejoin="round" stroke-width="6.978688311220015"/>
  <path d="M 52.727726306166744, 101.06751383177044 Q 53.97388155472217, 100.87326585257739, 54.47200388983878, 99.3989017955348 " fill="none" id="curve_3" stroke="#000000" stroke-linecap="round" stroke-linejoin="round" stroke-width="4.394192011003498"/>
  <path d="M 7.036554350037484, 70.32797759254431 Q 6.585774994449328, 74.19593051551168, 5.126201794314358, 76.40262023301719 " fill="none" id="curve_4" stroke="#000000" stroke-linecap="round" stroke-linejoin="round" stroke-width="3.9799789005122985"/>
  <path d="M 15.469783077702887, 48.483037686046366 Q 16.964187537269723, 43.37128368931755, 20.244588386088818, 39.67942585120017 " fill="none" id="curve_5" stroke="#000000" stroke-linecap="round" stroke-linejoin="round" stroke-width="3.63242430785188"/>
  <path d="M 42.278335817015574, 53.89744164925812 Q 56.62895085028487, 53.48687778882881, 68.96431598059695, 52.739397666163725 " fill="none" id="curve_6" stroke="#000000" stroke-linecap="round" stroke-linejoin="round" stroke-width="2.8824346726829257"/>
  <path d="M 51.96313278314307, 105.85326918228687 Q 51.923462804754735, 101.88409429513936, 51.67134542274014, 100.56428221511251 " fill="none" id="curve_8" stroke="#000000" stroke-linecap="round" stroke-linejoin="round" stroke-width="4.6836644721337475"/>
  <path d="M 51.67134542274014, 100.56428221511251 Q 53.697020762167945, 96.86932767999856, 57.061610061338094, 93.96372467008794 " fill="none" id="curve_8" stroke="#000000" stroke-linecap="round" stroke-linejoin="round" stroke-width="4.795457630755939"/>
  <path d="M 43.48843546432471, 81.61654446191028 Q 42.307361933304556, 81.4176642171413, 40.329322694789205, 81.09884380673171 " fill="none" id="curve_12" stroke="#000000" stroke-linecap="round" stroke-linejoin="round" stroke-width="4.36325448050057"/>
  <path d="M 7.499653602189149, 68.5196870575002 Q 6.914484601907576, 71.22550854995134, 5.376232534897348, 73.86231464047007 " fill="none" id="curve_15" stroke="#000000" stroke-linecap="round" stroke-linejoin="round" stroke-width="3.6885454239930975"/>
  <path d="M 46.40740489886363, 82.32831078649396 Q 43.33128114063066, 82.03022484534412, 40.20510971539244, 81.17932560454126 " fill="none" id="curve_17" stroke="#000000" stroke-linecap="round" stroke-linejoin="round" stroke-width="4.496281795047666"/>
  <path d="M 28.704545974731445, 44.7044792175293 Q 29.75468599565956, 47.68386970311104, 34.59027281798308, 49.90080970946349 " fill="none" id="curve_31" stroke="#000000" stroke-linecap="round" stroke-linejoin="round" stroke-width="3.3849556190702232"/>
  <path d="M 34.59027281798308, 49.90080970946349 Q 21.993253830924814, 49.66134997111166, 20.643547959903092, 39.84708581604276 " fill="none" id="curve_31" stroke="#000000" stroke-linecap="round" stroke-linejoin="round" stroke-width="2.499709143546362"/>
  <path d="M 20.643547959903092, 39.84708581604276 Q 19.231400110240653, 39.74747406772384, 17.16472248386665, 39.46237495839754 " fill="none" id="curve_31" stroke="#000000" stroke-linecap="round" stroke-linejoin="round" stroke-width="2.6102323461170807"/>
  <path d="M 17.16472248386665, 39.46237495839754 Q 28.39967688852807, 44.94952980038487, 41.1226588862785, 52.13814868480277 " fill="none" id="curve_31" stroke="#000000" stroke-linecap="round" stroke-linejoin="round" stroke-width="2.573667336066473"/>
  <path d="M 45.734796394432905, 83.32220976316657 Q 47.42599965847559, 83.53130206743784, 53.987249256777986, 83.64205080054013 " fill="none" id="curve_32" stroke="#000000" stroke-linecap="round" stroke-linejoin="round" stroke-width="3.3489458808500028"/>
  <path d="M 6.330115087071249, 71.80455361804887 Q 9.427018668758102, 68.91628689026584, 12.072751340106173, 62.00775449839289 " fill="none" id="curve_37" stroke="#000000" stroke-linecap="round" stroke-linejoin="round" stroke-width="2.9134155245951923"/>
  <path d="M 89.21677017211914, 0.49629974365234375 Q 89.14286348131962, 1.5022395269071012, 88.79568129621632, 2.170126855682426 " fill="none" id="curve_51" stroke="#000000" stroke-linecap="round" stroke-linejoin="round" stroke-width="2.485474208838556"/>
  <path d="M 55.499976111833575, 79.50666081416352 Q 52.279696451344904, 79.47850322510203, 46.76117432593962, 79.43054150401042 " fill="none" id="curve_66" stroke="#000000" stroke-linecap="round" stroke-linejoin="round" stroke-width="2.344415265601413"/>
  <path d="M 15.461247121959673, 50.53452494216012 Q 15.20054387008453, 50.57709002149753, 14.68957728955449, 50.634831960589885 " fill="none" id="curve_71" stroke="#000000" stroke-linecap="round" stroke-linejoin="round" stroke-width="3.7576172565476558"/>
  <path d="M 6.276496887207031, 70.8618049621582 Q 6.962602050815189, 65.25346523180862, 12.277710081020132, 63.30693053806709 " fill="none" id="curve_85" stroke="#000000" stroke-linecap="round" stroke-linejoin="round" stroke-width="3.2114583697364196"/>
  <path d="M 70.11759668339295, 62.2434806183435 Q 65.0798028083614, 70.55431998970052, 58.35819373427019, 82.11780536174103 " fill="none" id="curve_107" stroke="#000000" stroke-linecap="round" stroke-linejoin="round" stroke-width="3.0368864865653373"/>
  <path d="M 43.152748903626815, 80.66401903525988 Q 41.6374660079062, 80.99907968940988, 38.92041612582417, 81.43682964580661 " fill="none" id="curve_108" stroke="#000000" stroke-linecap="round" stroke-linejoin="round" stroke-width="4.102087301199548"/>
  <path d="M 88.44139729917484, 1.2206398419143625 Q 88.47007283243751, 1.5428018653414985, 88.54373266965428, 1.8242059136412698 " fill="none" id="curve_123" stroke="#000000" stroke-linecap="round" stroke-linejoin="round" stroke-width="2.360723531266627"/>
  <path d="M 7.8471832275390625, 66.78811252117157 Q 7.4718497640544, 70.63552243376945, 6.0604412208795395, 72.53176454867716 " fill="none" id="curve_137" stroke="#000000" stroke-linecap="round" stroke-linejoin="round" stroke-width="5.4388345467130135"/>
  <path d="M 6.0604412208795395, 72.53176454867716 Q 6.731220546421815, 66.9352517826611, 11.629161610413055, 65.19013177595502 " fill="none" id="curve_137" stroke="#000000" stroke-linecap="round" stroke-linejoin="round" stroke-width="3.3557508261029962"/>
  <path d="M 49.949886632222416, 52.24707238863547 Q 61.08603458582655, 53.14112960649353, 73.23752696482617, 54.981213816688985 " fill="none" id="curve_139" stroke="#000000" stroke-linecap="round" stroke-linejoin="round" stroke-width="2.026174748166636"/>
  <path d="M 54.79673454096883, 94.73133866481498 Q 54.13212531873415, 94.49208420430526, 53.64047576469994, 93.62138244189421 " fill="none" id="curve_154" stroke="#000000" stroke-linecap="round" stroke-linejoin="round" stroke-width="3.461620629017348"/>
</svg>
