<?xml version="1.0" ?>
<svg height="140" width="140" xmlns="http://www.w3.org/2000/svg">
  <path d="M 41.17323446273804, 128.49037981033325 Q 42.34843417633685, 125.18843280101052, 43.50414436077324, 106.27045928788402 " fill="none" id="curve_1" stroke="#000000" stroke-linecap="round" stroke-linejoin="round" stroke-width="5.127295972481644"/>
  <path d="M 43.50414436077324, 106.27045928788402 Q 45.98141588267379, 100.6554723863481, 49.373537190224546, 83.28700612869677 " fill="none" id="curve_1" stroke="#000000" stroke-linecap="round" stroke-linejoin="round" stroke-width="6.032845770251605"/>
  <path d="M 49.373537190224546, 83.28700612869677 Q 52.13288701790339, 80.7566593678592, 53.110500525101884, 70.85425000940049 " fill="none" id="curve_1" stroke="#000000" stroke-linecap="round" stroke-linejoin="round" stroke-width="5.808251717877187"/>
  <path d="M 53.110500525101884, 70.85425000940049 Q 52.07667929553599, 57.13696063612868, 30.96394196471207, 53.535701759163366 " fill="none" id="curve_1" stroke="#000000" stroke-linecap="round" stroke-linejoin="round" stroke-width="5.457427102180549"/>
  <path d="M 30.96394196471207, 53.535701759163366 Q 24.554982187973806, 54.16051403109921, 22.495404586557413, 56.73894430966879 " fill="none" id="curve_1" stroke="#000000" stroke-linecap="round" stroke-linejoin="round" stroke-width="8.264210783356699"/>
  <path d="M 27.52034502039554, 101.19352702263929 Q 38.667905151990006, 101.68367379440089, 58.2809790784778, 102.4792199296253 " fill="none" id="curve_3" stroke="#000000" stroke-linecap="round" stroke-linejoin="round" stroke-width="5.492018296917722"/>
  <path d="M 58.2809790784778, 102.4792199296253 Q 59.8880918089887, 103.09390806236462, 69.96875348694758, 103.2544007744101 " fill="none" id="curve_3" stroke="#000000" stroke-linecap="round" stroke-linejoin="round" stroke-width="3.180687913675051"/>
  <path d="M 42.665194331898505, 127.5993883143056 Q 42.44134285449521, 129.34911011734619, 41.62066364851643, 130.14671757667824 " fill="none" id="curve_4" stroke="#000000" stroke-linecap="round" stroke-linejoin="round" stroke-width="2.821615631007475"/>
  <path d="M 37.30772073309208, 100.66084885706823 Q 37.17527798904647, 99.27154683557436, 28.537077006482363, 99.19212275378771 " fill="none" id="curve_6" stroke="#000000" stroke-linecap="round" stroke-linejoin="round" stroke-width="2.7247769372725403"/>
  <path d="M 43.02512089268586, 125.4089966575822 Q 41.82768843292971, 123.12447251556924, 41.162440381128825, 114.4627951285547 " fill="none" id="curve_11" stroke="#000000" stroke-linecap="round" stroke-linejoin="round" stroke-width="2.6709295788011422"/>
  <path d="M 38.2672623641211, 53.73074609223398 Q 36.80470889794661, 53.68141314104244, 27.44722492302261, 53.65520354748952 " fill="none" id="curve_14" stroke="#000000" stroke-linecap="round" stroke-linejoin="round" stroke-width="2.5284674900162583"/>
  <path d="M 89.17472155366144, 1.4528144949824662 Q 89.03133853180647, 2.266914128567751, 88.6920069484516, 3.2090750937981793 " fill="none" id="curve_20" stroke="#000000" stroke-linecap="round" stroke-linejoin="round" stroke-width="3.2472180143087157"/>
  <path d="M 35.328484649271104, 54.62296512733707 Q 34.64670011809529, 53.60875170713068, 31.885220146181762, 52.75225217706578 " fill="none" id="curve_48" stroke="#000000" stroke-linecap="round" stroke-linejoin="round" stroke-width="2.7071681671894487"/>
  <path d="M 20.298636771798925, 55.292188415763874 Q 20.85860984189654, 54.997330623367596, 22.261844483044573, 54.601350336129265 " fill="none" id="curve_69" stroke="#000000" stroke-linecap="round" stroke-linejoin="round" stroke-width="2.715245225227896"/>
  <path d="M 50.50306976620209, 70.03934303446705 Q 50.14026280437182, 65.24538183050605, 47.600456287128196, 62.26293998865223 " fill="none" id="curve_97" stroke="#000000" stroke-linecap="round" stroke-linejoin="round" stroke-width="1.7315039200004405"/>
  <path d="M 34.75033061972721, 54.40613593798396 Q 34.41055960799924, 55.541686639672484, 33.69590839087497, 56.270889652801635 " fill="none" id="curve_98" stroke="#000000" stroke-linecap="round" stroke-linejoin="round" stroke-width="3.366189364251115"/>
  <path d="M 36.99325992123113, 52.61768036598084 Q 36.24828413452873, 52.68532508518698, 34.33350943587392, 52.73578481157982 " fill="none" id="curve_99" stroke="#000000" stroke-linecap="round" stroke-linejoin="round" stroke-width="2.655439349579518"/>
  <path d="M 48.282229119921695, 91.16386249726213 Q 46.3562062831191, 91.16213369016512, 44.12228563659467, 91.15681646132306 " fill="none" id="curve_101" stroke="#000000" stroke-linecap="round" stroke-linejoin="round" stroke-width="2.504396792223031"/>
  <path d="M 27.14230554028222, 99.89541359013428 Q 27.190580481228114, 100.33530504072048, 27.269059762951457, 101.0714286860031 " fill="none" id="curve_108" stroke="#000000" stroke-linecap="round" stroke-linejoin="round" stroke-width="2.6630437756448635"/>
  <path d="M 21.30243661455546, 55.0032481651079 Q 20.890305508142127, 55.167898661819905, 20.3011398732509, 55.466009496245455 " fill="none" id="curve_109" stroke="#000000" stroke-linecap="round" stroke-linejoin="round" stroke-width="3.1527830679061615"/>
  <path d="M 52.359046940401356, 67.82924042995123 Q 53.04556050158905, 67.1596826989945, 53.74649959703462, 65.54163111800872 " fill="none" id="curve_126" stroke="#000000" stroke-linecap="round" stroke-linejoin="round" stroke-width="2.8171508233776557"/>
  <path d="M 45.26173695210769, 108.65623094210173 Q 45.04593324050697, 100.593200042187, 43.90150526053692, 97.21568700121715 " fill="none" id="curve_143" stroke="#000000" stroke-linecap="round" stroke-linejoin="round" stroke-width="2.5792517673086484"/>
  <path d="M 33.262292894443675, 55.027161962938415 Q 35.317320769562905, 54.56539406442406, 41.96443470559869, 54.19269147584479 " fill="none" id="curve_149" stroke="#000000" stroke-linecap="round" stroke-linejoin="round" stroke-width="2.551111306895442"/>
  <path d="M 37.12946719162905, 99.64843766487908 Q 36.84122749216267, 99.83281786332049, 36.522709159258085, 100.2883944717165 " fill="none" id="curve_157" stroke="#000000" stroke-linecap="round" stroke-linejoin="round" stroke-width="4.052025236581252"/>
  <path d="M 52.41825868915869, 66.62326443032843 Q 52.951206957106535, 65.365635862023, 53.818546096309994, 63.16438059757395 " fill="none" id="curve_179" stroke="#000000" stroke-linecap="round" stroke-linejoin="round" stroke-width="2.8326249032420994"/>
  <path d="M 34.563427958122816, 103.36603678288338 Q 34.99404277456808, 103.1922384661976, 35.783122071900195, 102.92203488931192 " fill="none" id="curve_194" stroke="#000000" stroke-linecap="round" stroke-linejoin="round" stroke-width="2.331662104289632"/>
  <path d="M 51.671842848166435, 103.28050324354004 Q 42.97958742732214, 102.82817767116651, 35.958731480039106, 101.54248439704097 " fill="none" id="curve_195" stroke="#000000" stroke-linecap="round" stroke-linejoin="round" stroke-width="2.330105724663493"/>
  <path d="M 21.685284596099255, 56.94471809187192 Q 20.993709698796206, 56.530974597433904, 19.749218725076453, 55.811584629836766 " fill="none" id="curve_199" stroke="#000000" stroke-linecap="round" stroke-linejoin="round" stroke-width="2.911912786631399"/>
</svg>
