<?xml version="1.0" ?>
<svg height="140" width="140" xmlns="http://www.w3.org/2000/svg">
  <path d="M 75.18403911590576, 69.76136207580566 Q 76.49286243485176, 68.86511452867899, 78.42716798212038, 67.79037661541669 " fill="none" id="curve_1" stroke="#000000" stroke-linecap="round" stroke-linejoin="round" stroke-width="4.582160413996173"/>
  <path d="M 78.42716798212038, 67.79037661541669 Q 73.33541194978345, 69.20013510135442, 62.77769604478829, 70.59407994818936 " fill="none" id="curve_1" stroke="#000000" stroke-linecap="round" stroke-linejoin="round" stroke-width="6.532499718549952"/>
  <path d="M 62.77769604478829, 70.59407994818936 Q 56.0932339776778, 70.65198673359254, 50.88155441892196, 70.78676927778929 " fill="none" id="curve_1" stroke="#000000" stroke-linecap="round" stroke-linejoin="round" stroke-width="11.035628171734439"/>
  <path d="M 50.88155441892196, 70.78676927778929 Q 48.26888683481106, 84.81663189048338, 37.19992118143768, 96.6826190360168 " fill="none" id="curve_1" stroke="#000000" stroke-linecap="round" stroke-linejoin="round" stroke-width="4.862792323204246"/>
  <path d="M 46.64402389238985, 70.25757552210973 Q 54.7387961981225, 70.08793525502179, 55.43580624850203, 61.55632027570686 " fill="none" id="curve_2" stroke="#000000" stroke-linecap="round" stroke-linejoin="round" stroke-width="6.908976680060648"/>
  <path d="M 55.43580624850203, 61.55632027570686 Q 55.39102125617587, 48.39645737168833, 51.42899278540394, 47.93814011963387 " fill="none" id="curve_2" stroke="#000000" stroke-linecap="round" stroke-linejoin="round" stroke-width="6.284257059472391"/>
  <path d="M 51.42899278540394, 47.93814011963387 Q 40.929598809485064, 46.70491784722158, 34.931423618483876, 42.902567429141286 " fill="none" id="curve_2" stroke="#000000" stroke-linecap="round" stroke-linejoin="round" stroke-width="7.136388523157519"/>
  <path d="M 39.39446043860444, 68.7882376438462 Q 39.848779065160144, 70.81561123053707, 47.002814014600276, 71.04616398053071 " fill="none" id="curve_3" stroke="#000000" stroke-linecap="round" stroke-linejoin="round" stroke-width="7.568583109449826"/>
  <path d="M 47.002814014600276, 71.04616398053071 Q 42.366203950648405, 70.05560522890197, 36.88507805690983, 68.76839681754197 " fill="none" id="curve_3" stroke="#000000" stroke-linecap="round" stroke-linejoin="round" stroke-width="4.380299890144196"/>
  <path d="M 39.0983468184821, 96.01418383301396 Q 39.066718679015125, 94.56311425975602, 39.027624062951894, 92.73158554493675 " fill="none" id="curve_4" stroke="#000000" stroke-linecap="round" stroke-linejoin="round" stroke-width="6.708253414999897"/>
  <path d="M 48.618105086663746, 45.60205508611943 Q 52.60658263878432, 46.47932361367048, 55.271907681807235, 48.8778831648419 " fill="none" id="curve_5" stroke="#000000" stroke-linecap="round" stroke-linejoin="round" stroke-width="3.4027843956502903"/>
  <path d="M 51.59238359509105, 46.35781172385583 Q 44.872612068179, 45.083447757470104, 31.804742114615365, 42.960482767054955 " fill="none" id="curve_13" stroke="#000000" stroke-linecap="round" stroke-linejoin="round" stroke-width="3.069016472930437"/>
  <path d="M 56.68273296477426, 50.70250957790452 Q 53.99395757576288, 59.339271099384106, 50.72202834931784, 74.13875563743106 " fill="none" id="curve_18" stroke="#000000" stroke-linecap="round" stroke-linejoin="round" stroke-width="2.8543723560053156"/>
  <path d="M 43.54667896433773, 83.72854957277747 Q 43.50943615724933, 85.06918040979441, 43.445805865700706, 87.38427700570192 " fill="none" id="curve_34" stroke="#000000" stroke-linecap="round" stroke-linejoin="round" stroke-width="3.3362496038686595"/>
  <path d="M 40.76696300506592, 44.54541778564453 Q 40.803668493250754, 47.72478867836974, 42.16433996425822, 47.9896305962871 " fill="none" id="curve_48" stroke="#000000" stroke-linecap="round" stroke-linejoin="round" stroke-width="4.914196400076536"/>
  <path d="M 68.39337439515619, 71.10677412811225 Q 72.80119304521223, 71.00755840724052, 74.95552235681338, 70.52651326657693 " fill="none" id="curve_49" stroke="#000000" stroke-linecap="round" stroke-linejoin="round" stroke-width="3.7272972323157623"/>
  <path d="M 55.365923170282926, 55.59434470659269 Q 53.85310075610754, 59.74184989080499, 52.14059366336796, 67.8533293205197 " fill="none" id="curve_60" stroke="#000000" stroke-linecap="round" stroke-linejoin="round" stroke-width="3.0852118036902287"/>
  <path d="M 40.07317399978638, 96.47232818603516 Q 40.38712762546958, 83.98429815227362, 45.098299223409185, 81.2452799658347 " fill="none" id="curve_74" stroke="#000000" stroke-linecap="round" stroke-linejoin="round" stroke-width="3.8865490780377385"/>
  <path d="M 52.33692050971501, 63.711483206474114 Q 52.692380327967015, 56.106284561244514, 55.00647899894057, 53.870474539896115 " fill="none" id="curve_75" stroke="#000000" stroke-linecap="round" stroke-linejoin="round" stroke-width="4.360581518550696"/>
  <path d="M 68.57526670989819, 71.63157389068073 Q 65.8830620683019, 71.49736068562628, 64.37749046544192, 70.88233370613581 " fill="none" id="curve_90" stroke="#000000" stroke-linecap="round" stroke-linejoin="round" stroke-width="3.4121042267042014"/>
  <path d="M 54.22988435436957, 47.88377113594012 Q 53.40385853486613, 46.71317148786393, 49.27150814177681, 45.857624889820435 " fill="none" id="curve_106" stroke="#000000" stroke-linecap="round" stroke-linejoin="round" stroke-width="3.203360931724747"/>
  <path d="M 39.19055322215105, 96.7005030597464 Q 38.78903568891507, 95.49992820636176, 38.04639065090576, 94.32291100889555 " fill="none" id="curve_112" stroke="#000000" stroke-linecap="round" stroke-linejoin="round" stroke-width="5.8044789754607535"/>
  <path d="M 37.57088754576672, 45.197425386470314 Q 41.63884579109902, 45.85619520425316, 52.15548894625509, 46.70266562334171 " fill="none" id="curve_113" stroke="#000000" stroke-linecap="round" stroke-linejoin="round" stroke-width="3.220989430769368"/>
  <path d="M 46.19966751806045, 44.66199316706092 Q 47.34732582775231, 46.04192109248184, 50.83873535278236, 47.623538098943115 " fill="none" id="curve_129" stroke="#000000" stroke-linecap="round" stroke-linejoin="round" stroke-width="4.406109187637723"/>
  <path d="M 50.83873535278236, 47.623538098943115 Q 52.55260247113458, 47.54485467365257, 54.41321392637973, 47.32115187745387 " fill="none" id="curve_129" stroke="#000000" stroke-linecap="round" stroke-linejoin="round" stroke-width="3.121435698267646"/>
  <path d="M 39.7238346586702, 96.12588740527184 Q 40.559771052661276, 95.83894443492562, 40.973049300938705, 94.62293887915192 " fill="none" id="curve_159" stroke="#000000" stroke-linecap="round" stroke-linejoin="round" stroke-width="4.590908254086468"/>
  <path d="M 52.52623351851857, 47.638933347094316 Q 52.56293948401477, 46.97466700431074, 52.65003411595051, 46.03055855469289 " fill="none" id="curve_162" stroke="#000000" stroke-linecap="round" stroke-linejoin="round" stroke-width="3.2857552824108263"/>
  <path d="M 36.99331823760264, 43.15227990561034 Q 40.30123150270671, 45.49765178625266, 46.62284886647252, 47.88122227324671 " fill="none" id="curve_181" stroke="#000000" stroke-linecap="round" stroke-linejoin="round" stroke-width="3.7578390582889676"/>
</svg>
