<?xml version="1.0" ?>
<svg height="140" width="140" xmlns="http://www.w3.org/2000/svg">
  <path d="M 58.81122970581055, 58.64258575439453 Q 60.32817006106131, 59.20387326986299, 61.866272923706276, 60.87621196051367 " fill="none" id="curve_1" stroke="#000000" stroke-linecap="round" stroke-linejoin="round" stroke-width="4.781762076085084"/>
  <path d="M 61.866272923706276, 60.87621196051367 Q 58.37402049058468, 73.93067523232824, 48.61434165497003, 86.89058429295352 " fill="none" id="curve_1" stroke="#000000" stroke-linecap="round" stroke-linejoin="round" stroke-width="4.492232158331401"/>
  <path d="M 48.61434165497003, 86.89058429295352 Q 44.43596177924176, 96.55869368896228, 39.36869468298016, 109.04250776886718 " fill="none" id="curve_1" stroke="#000000" stroke-linecap="round" stroke-linejoin="round" stroke-width="3.5662020125718774"/>
  <path d="M 31.01329052965299, 85.16977250628773 Q 33.54820812478273, 85.99434679077378, 53.84922688891878, 86.17071070111282 " fill="none" id="curve_2" stroke="#000000" stroke-linecap="round" stroke-linejoin="round" stroke-width="5.213173103110711"/>
  <path d="M 53.84922688891878, 86.17071070111282 Q 68.54211110300348, 85.07265820030295, 76.5965670916385, 82.52761145222136 " fill="none" id="curve_2" stroke="#000000" stroke-linecap="round" stroke-linejoin="round" stroke-width="4.199106335368643"/>
  <path d="M 60.280807734062364, 57.61842087319508 Q 57.60539537579286, 50.91786267064775, 38.38860140002741, 47.06421772008788 " fill="none" id="curve_3" stroke="#000000" stroke-linecap="round" stroke-linejoin="round" stroke-width="5.840206760275914"/>
  <path d="M 38.38860140002741, 47.06421772008788 Q 28.689100951376027, 46.70170861954657, 20.098693560772855, 46.0968827877429 " fill="none" id="curve_3" stroke="#000000" stroke-linecap="round" stroke-linejoin="round" stroke-width="4.714960649323702"/>
  <path d="M 1.2908748264605947, 38.27265040923821 Q 1.3824302993655313, 48.45066459565536, 1.5314768185899288, 76.33534876962455 " fill="none" id="curve_5" stroke="#000000" stroke-linecap="round" stroke-linejoin="round" stroke-width="2.044140216715729"/>
  <path d="M 1.5314768185899288, 76.33534876962455 Q 1.6226186152731914, 83.1646373133597, 1.8189670190912213, 113.83912292056972 " fill="none" id="curve_5" stroke="#000000" stroke-linecap="round" stroke-linejoin="round" stroke-width="2.113077553020628"/>
  <path d="M 1.8189670190912213, 113.83912292056972 Q 1.8104502715471034, 133.01659673056983, 1.7573477666628834, 138.9190972566985 " fill="none" id="curve_5" stroke="#000000" stroke-linecap="round" stroke-linejoin="round" stroke-width="2.0569020926547465"/>
  <path d="M 1.7573477666628834, 138.9190972566985 Q 2.6357671479796907, 138.68128931770974, 3.541902238261083, 138.28032511311108 " fill="none" id="curve_5" stroke="#000000" stroke-linecap="round" stroke-linejoin="round" stroke-width="2.474235383381939"/>
  <path d="M 40.61023610697795, 111.2335717686458 Q 40.62671276453997, 106.23312084775633, 40.67715218094592, 101.87979862930275 " fill="none" id="curve_6" stroke="#000000" stroke-linecap="round" stroke-linejoin="round" stroke-width="2.59380738780368"/>
  <path d="M 59.090036509255356, 66.24986307520942 Q 60.25164549145047, 63.85378716205503, 60.77002871657145, 53.920665858150976 " fill="none" id="curve_7" stroke="#000000" stroke-linecap="round" stroke-linejoin="round" stroke-width="2.7919193844189882"/>
  <path d="M 60.77002871657145, 53.920665858150976 Q 59.24813934126975, 51.58511223706643, 48.82673883479521, 50.45083908162936 " fill="none" id="curve_7" stroke="#000000" stroke-linecap="round" stroke-linejoin="round" stroke-width="2.7121634905620438"/>
  <path d="M 30.207067990062008, 83.98627895032466 Q 33.45310340324582, 84.01704792028427, 37.028301267081474, 84.07436583752633 " fill="none" id="curve_9" stroke="#000000" stroke-linecap="round" stroke-linejoin="round" stroke-width="2.679594297532781"/>
  <path d="M 0.4710460447652238, 35.35073059348241 Q 1.5252244707912461, 34.99262472837745, 1.6271742765592385, 22.024626560054195 " fill="none" id="curve_11" stroke="#000000" stroke-linecap="round" stroke-linejoin="round" stroke-width="1.9798295747019425"/>
  <path d="M 1.6271742765592385, 22.024626560054195 Q 1.5371921365782635, 13.815716151851667, 1.3349573163780888, 1.5301918041378677 " fill="none" id="curve_11" stroke="#000000" stroke-linecap="round" stroke-linejoin="round" stroke-width="1.9312457125233748"/>
  <path d="M 48.85020213186574, 52.254043682535595 Q 50.829093436912906, 52.141455623955615, 52.72543324191706, 51.867667216157606 " fill="none" id="curve_15" stroke="#000000" stroke-linecap="round" stroke-linejoin="round" stroke-width="2.2745534325917123"/>
  <path d="M 52.72543324191706, 51.867667216157606 Q 49.86914967852208, 48.37508842278733, 37.78569545462277, 45.64333792425166 " fill="none" id="curve_15" stroke="#000000" stroke-linecap="round" stroke-linejoin="round" stroke-width="2.6931037111021454"/>
  <path d="M 20.167410902643027, 46.307863725799756 Q 20.84674218045211, 45.725776512140285, 22.105244778575827, 45.022787274721566 " fill="none" id="curve_16" stroke="#000000" stroke-linecap="round" stroke-linejoin="round" stroke-width="3.657800902859847"/>
  <path d="M 51.21679783925492, 88.47230751348252 Q 47.22580104311398, 90.78934115468091, 42.17273484992512, 97.56044010819787 " fill="none" id="curve_57" stroke="#000000" stroke-linecap="round" stroke-linejoin="round" stroke-width="1.852101452954052"/>
  <path d="M 51.95461762174884, 78.795447049098 Q 52.61164187807211, 78.78835887970241, 53.262201638220205, 78.7725008512161 " fill="none" id="curve_59" stroke="#000000" stroke-linecap="round" stroke-linejoin="round" stroke-width="3.1421964330232384"/>
  <path d="M 58.137012234910785, 65.467610899708 Q 58.235267054664064, 66.51467309857496, 58.37941985159098, 68.85267178092042 " fill="none" id="curve_74" stroke="#000000" stroke-linecap="round" stroke-linejoin="round" stroke-width="2.17235985934782"/>
  <path d="M 57.505956131553894, 85.4869794533073 Q 54.892071706130075, 84.79499896652781, 42.25606115764039, 84.37481845703645 " fill="none" id="curve_89" stroke="#000000" stroke-linecap="round" stroke-linejoin="round" stroke-width="2.950103392582166"/>
  <path d="M 37.346882640264, 87.6234493893125 Q 37.73970898481978, 86.68116900776218, 39.31415143451451, 86.01664311636979 " fill="none" id="curve_96" stroke="#000000" stroke-linecap="round" stroke-linejoin="round" stroke-width="2.730841648476477"/>
  <path d="M 66.04208962504231, 84.40026828699826 Q 63.828437560696, 84.38985870454819, 60.49261616311845, 84.37105814317863 " fill="none" id="curve_111" stroke="#000000" stroke-linecap="round" stroke-linejoin="round" stroke-width="2.742996323004223"/>
  <path d="M 61.29343128204346, 86.06316423416138 Q 58.981884786039146, 85.55070719652133, 51.05937277294652, 84.90798249305658 " fill="none" id="curve_138" stroke="#000000" stroke-linecap="round" stroke-linejoin="round" stroke-width="2.66466026948299"/>
</svg>
