<?xml version="1.0" ?>
<svg height="140" width="140" xmlns="http://www.w3.org/2000/svg">
  <path d="M 44.191368103027344, 29.055036544799805 Q 43.41490607883404, 27.13933082119482, 32.87266723748769, 26.655569118787724 " fill="none" id="curve_1" stroke="#000000" stroke-linecap="round" stroke-linejoin="round" stroke-width="8.574515430910811"/>
  <path d="M 32.87266723748769, 26.655569118787724 Q 30.11505262585657, 27.231796371496493, 28.3221409616742, 28.913685900703527 " fill="none" id="curve_1" stroke="#000000" stroke-linecap="round" stroke-linejoin="round" stroke-width="10.12062833465434"/>
  <path d="M 28.3221409616742, 28.913685900703527 Q 43.91137562654134, 30.156442487155626, 48.51927021162821, 38.276948307345165 " fill="none" id="curve_1" stroke="#000000" stroke-linecap="round" stroke-linejoin="round" stroke-width="5.787400802438216"/>
  <path d="M 48.51927021162821, 38.276948307345165 Q 47.826794078997814, 56.29356877735103, 40.40100455709229, 71.02573353167425 " fill="none" id="curve_1" stroke="#000000" stroke-linecap="round" stroke-linejoin="round" stroke-width="6.389330082324323"/>
  <path d="M 40.40100455709229, 71.02573353167425 Q 36.59874708821682, 81.05937192051458, 23.72529661709459, 105.76672135999694 " fill="none" id="curve_1" stroke="#000000" stroke-linecap="round" stroke-linejoin="round" stroke-width="5.347095296387409"/>
  <path d="M 23.72529661709459, 105.76672135999694 Q 20.202650098344698, 113.35227499039087, 17.301720549853673, 122.95134202096223 " fill="none" id="curve_1" stroke="#000000" stroke-linecap="round" stroke-linejoin="round" stroke-width="8.525110020788786"/>
  <path d="M 39.20235019348216, 79.2887650719798 Q 46.51503186684527, 84.45919696725072, 59.23404850811163, 87.9116240649152 " fill="none" id="curve_2" stroke="#000000" stroke-linecap="round" stroke-linejoin="round" stroke-width="6.91871349135888"/>
  <path d="M 59.23404850811163, 87.9116240649152 Q 44.31018456021087, 82.09642399882752, 20.350566535794663, 65.6958103379981 " fill="none" id="curve_2" stroke="#000000" stroke-linecap="round" stroke-linejoin="round" stroke-width="6.633521000778158"/>
  <path d="M 20.350566535794663, 65.6958103379981 Q 18.478000115361567, 65.7104327439614, 16.87434364181065, 65.73520937153431 " fill="none" id="curve_2" stroke="#000000" stroke-linecap="round" stroke-linejoin="round" stroke-width="8.789569021983807"/>
  <path d="M 16.87434364181065, 65.73520937153431 Q 17.4626097430515, 70.56494901163414, 28.899103490464306, 71.29843247946181 " fill="none" id="curve_2" stroke="#000000" stroke-linecap="round" stroke-linejoin="round" stroke-width="4.126613628221013"/>
  <path d="M 47.975015005240365, 27.888541782152316 Q 46.87279799141856, 40.1671873135286, 44.76765983583021, 57.24018759859126 " fill="none" id="curve_3" stroke="#000000" stroke-linecap="round" stroke-linejoin="round" stroke-width="3.8647522361040823"/>
  <path d="M 49.36417060195415, 87.62385222888342 Q 51.11572839481052, 88.20515959576286, 53.62896134843597, 88.9478822748352 " fill="none" id="curve_4" stroke="#000000" stroke-linecap="round" stroke-linejoin="round" stroke-width="4.609073474653602"/>
  <path d="M 33.54523531509089, 79.64989847073683 Q 32.375299470521284, 88.63150070613266, 27.70626679156588, 96.20538287583254 " fill="none" id="curve_5" stroke="#000000" stroke-linecap="round" stroke-linejoin="round" stroke-width="2.999798204027771"/>
  <path d="M 17.11251060203338, 121.65826923258346 Q 17.02106383031869, 119.15910624355068, 16.869931112579735, 116.49228987614724 " fill="none" id="curve_6" stroke="#000000" stroke-linecap="round" stroke-linejoin="round" stroke-width="6.106248504177784"/>
  <path d="M 18.99604602160698, 121.73890188361632 Q 19.14158670637705, 119.72716358217463, 19.29991253175987, 115.3153268115281 " fill="none" id="curve_11" stroke="#000000" stroke-linecap="round" stroke-linejoin="round" stroke-width="6.746512772138739"/>
  <path d="M 43.30591133471148, 84.01586140240609 Q 44.89970274675465, 85.33093733826408, 50.03920433503958, 86.78533409883312 " fill="none" id="curve_39" stroke="#000000" stroke-linecap="round" stroke-linejoin="round" stroke-width="2.6588229594788975"/>
  <path d="M 17.364528941663593, 115.9416076085381 Q 18.41043282575202, 117.75267504607528, 21.157686476234744, 119.57929650944102 " fill="none" id="curve_54" stroke="#000000" stroke-linecap="round" stroke-linejoin="round" stroke-width="5.777061213421032"/>
  <path d="M 17.308505850246508, 113.88110454546559 Q 17.084686961947913, 114.16974365369508, 16.837726111358446, 114.72773914120783 " fill="none" id="curve_55" stroke="#000000" stroke-linecap="round" stroke-linejoin="round" stroke-width="4.049537627304945"/>
  <path d="M 45.68812065157948, 34.74627733872925 Q 47.66887780031446, 40.80556715579505, 49.58381465950472, 48.453895661277386 " fill="none" id="curve_61" stroke="#000000" stroke-linecap="round" stroke-linejoin="round" stroke-width="3.837915048560589"/>
  <path d="M 44.87531598761324, 35.38771492817955 Q 45.12275379202693, 40.54806010001966, 46.65404923572192, 42.61953317346404 " fill="none" id="curve_76" stroke="#000000" stroke-linecap="round" stroke-linejoin="round" stroke-width="5.233480290511797"/>
  <path d="M 40.55530220546085, 61.6087297680757 Q 45.5888146061664, 57.34350992277099, 49.73681421851066, 46.96093764573345 " fill="none" id="curve_85" stroke="#000000" stroke-linecap="round" stroke-linejoin="round" stroke-width="3.9368592719891016"/>
  <path d="M 27.109313963380792, 73.12546397675709 Q 34.055921519653886, 77.34071230125706, 41.14620434143473, 83.06720839170914 " fill="none" id="curve_86" stroke="#000000" stroke-linecap="round" stroke-linejoin="round" stroke-width="3.380180259058972"/>
  <path d="M 62.47034506353847, 86.53795851332586 Q 60.81848974787532, 86.46184892983467, 57.84244740307933, 86.2669917435729 " fill="none" id="curve_87" stroke="#000000" stroke-linecap="round" stroke-linejoin="round" stroke-width="2.1613245230195934"/>
  <path d="M 27.172594938734164, 66.39997196983131 Q 30.726227935209316, 71.23390052356568, 41.08478915820096, 74.44560691530384 " fill="none" id="curve_102" stroke="#000000" stroke-linecap="round" stroke-linejoin="round" stroke-width="2.5787678934681977"/>
  <path d="M 45.64203678566138, 30.09674537168602 Q 44.43276225205178, 25.850466174591805, 34.24426754473977, 24.276014710444663 " fill="none" id="curve_107" stroke="#000000" stroke-linecap="round" stroke-linejoin="round" stroke-width="2.401812472481162"/>
  <path d="M 36.053456977978755, 85.6939399192722 Q 28.613363374538665, 96.01739696370618, 16.38167020597704, 116.32260239843644 " fill="none" id="curve_114" stroke="#000000" stroke-linecap="round" stroke-linejoin="round" stroke-width="3.0842362692202685"/>
  <path d="M 32.19725649296032, 87.65102756812 Q 30.118325565210405, 98.39779409888436, 23.074085739918758, 105.83191857979317 " fill="none" id="curve_121" stroke="#000000" stroke-linecap="round" stroke-linejoin="round" stroke-width="3.0719191643753496"/>
  <path d="M 19.436594486434654, 64.4537322913093 Q 19.11775612616403, 63.413490875578944, 17.82055754619388, 62.54042604719121 " fill="none" id="curve_122" stroke="#000000" stroke-linecap="round" stroke-linejoin="round" stroke-width="2.946455172794407"/>
  <path d="M 24.773083454597142, 104.23932573969435 Q 28.02393358909881, 96.26606618540013, 36.430819090547956, 77.96224598890541 " fill="none" id="curve_138" stroke="#000000" stroke-linecap="round" stroke-linejoin="round" stroke-width="3.1176579948464704"/>
  <path d="M 45.078870321464514, 56.285708666657875 Q 45.979270326969846, 54.333708728509, 47.5812199286724, 49.638912980856084 " fill="none" id="curve_144" stroke="#000000" stroke-linecap="round" stroke-linejoin="round" stroke-width="3.2322366183395705"/>
  <path d="M 49.51909861403766, 38.19291364940468 Q 49.22195250962625, 35.59277902733297, 47.62566102264578, 34.16787634901058 " fill="none" id="curve_161" stroke="#000000" stroke-linecap="round" stroke-linejoin="round" stroke-width="3.0277772011832136"/>
  <path d="M 17.0506119403218, 124.41183062886101 Q 17.33543233674077, 124.62689376315126, 18.587437533746563, 124.71043226696105 " fill="none" id="curve_176" stroke="#000000" stroke-linecap="round" stroke-linejoin="round" stroke-width="3.0527216876316023"/>
  <path d="M 25.429726076396168, 104.14873460389396 Q 28.833265533058672, 95.23064946041636, 35.32990607312965, 79.73975249609477 " fill="none" id="curve_177" stroke="#000000" stroke-linecap="round" stroke-linejoin="round" stroke-width="3.307341448975529"/>
  <path d="M 22.56147134733814, 108.77583110448732 Q 28.334425479503384, 98.67360317007179, 36.501030398579914, 78.49554407278981 " fill="none" id="curve_182" stroke="#000000" stroke-linecap="round" stroke-linejoin="round" stroke-width="2.7955264975548193"/>
  <path d="M 49.38206712055086, 51.150459923734275 Q 45.34765579373325, 53.8254833628576, 42.03018825482795, 59.094391859829585 " fill="none" id="curve_199" stroke="#000000" stroke-linecap="round" stroke-linejoin="round" stroke-width="4.409827858400479"/>
  <path d="M 36.375162485544756, 80.44112838899419 Q 30.3089600888186, 91.3426932963375, 21.28644052455442, 110.14384274931135 " fill="none" id="curve_202" stroke="#000000" stroke-linecap="round" stroke-linejoin="round" stroke-width="2.873356091812588"/>
  <path d="M 22.99399036700942, 106.09931959732991 Q 30.43170533496449, 100.63702874036545, 35.842398461609534, 78.62647074887124 " fill="none" id="curve_212" stroke="#000000" stroke-linecap="round" stroke-linejoin="round" stroke-width="3.0487475064776923"/>
</svg>
