<?xml version="1.0" ?>
<svg height="140" width="140" xmlns="http://www.w3.org/2000/svg">
  <path d="M 21.3348348350749, 84.40353751483309 Q 21.108885169531973, 83.35439057502661, 20.590913485582195, 81.98128191158956 " fill="none" id="curve_2" stroke="#000000" stroke-linecap="round" stroke-linejoin="round" stroke-width="3.9905683709777993"/>
  <path d="M 20.590913485582195, 81.98128191158956 Q 24.66991357141076, 80.68068735730334, 43.45415485680485, 79.88315847397288 " fill="none" id="curve_2" stroke="#000000" stroke-linecap="round" stroke-linejoin="round" stroke-width="6.353058685839444"/>
  <path d="M 43.45415485680485, 79.88315847397288 Q 40.35994670075174, 89.38924358266895, 34.559791113454935, 97.81222483558687 " fill="none" id="curve_2" stroke="#000000" stroke-linecap="round" stroke-linejoin="round" stroke-width="4.196110169299499"/>
  <path d="M 45.4047982345015, 80.57326778247264 Q 49.35038126624523, 73.55004698274706, 54.20514186394412, 62.87746410516515 " fill="none" id="curve_3" stroke="#000000" stroke-linecap="round" stroke-linejoin="round" stroke-width="5.860607476239065"/>
  <path d="M 54.20514186394412, 62.87746410516515 Q 54.12015748467513, 50.10420930986369, 38.88124672933613, 49.815298352914034 " fill="none" id="curve_3" stroke="#000000" stroke-linecap="round" stroke-linejoin="round" stroke-width="5.194268100674852"/>
  <path d="M 38.88124672933613, 49.815298352914034 Q 33.45006236448001, 50.03631758484026, 32.11184360551934, 51.6165921736906 " fill="none" id="curve_3" stroke="#000000" stroke-linecap="round" stroke-linejoin="round" stroke-width="4.726082484375754"/>
  <path d="M 49.43203774294335, 81.36674598283565 Q 52.64569357684789, 81.57729489070697, 55.76183548566619, 81.92622365091157 " fill="none" id="curve_4" stroke="#000000" stroke-linecap="round" stroke-linejoin="round" stroke-width="3.1949597204499267"/>
  <path d="M 89.77059601685613, 72.0257981196086 Q 89.58401250661935, 78.2117365980913, 89.2838934590116, 109.18771743364499 " fill="none" id="curve_5" stroke="#000000" stroke-linecap="round" stroke-linejoin="round" stroke-width="2.3121893336257267"/>
  <path d="M 89.2838934590116, 109.18771743364499 Q 89.29470760713808, 124.94311809278368, 89.37406532704846, 138.95487792185247 " fill="none" id="curve_5" stroke="#000000" stroke-linecap="round" stroke-linejoin="round" stroke-width="2.2654824154958355"/>
  <path d="M 89.37406532704846, 138.95487792185247 Q 89.23955980437616, 138.61248066862586, 88.9944962035887, 138.23108038966927 " fill="none" id="curve_5" stroke="#000000" stroke-linecap="round" stroke-linejoin="round" stroke-width="2.019658372754158"/>
  <path d="M 89.59057309514216, 70.31681111234126 Q 89.32824956495705, 68.60884062242285, 89.22316257375023, 47.689410168167555 " fill="none" id="curve_8" stroke="#000000" stroke-linecap="round" stroke-linejoin="round" stroke-width="2.1872721207352934"/>
  <path d="M 89.22316257375023, 47.689410168167555 Q 89.22319666685854, 41.633734297782205, 89.22329114142815, 26.572671270393496 " fill="none" id="curve_8" stroke="#000000" stroke-linecap="round" stroke-linejoin="round" stroke-width="2.3916336852235354"/>
  <path d="M 89.22329114142815, 26.572671270393496 Q 89.19667204156119, 20.648569573808718, 89.11555016807331, 8.113939485923936 " fill="none" id="curve_8" stroke="#000000" stroke-linecap="round" stroke-linejoin="round" stroke-width="2.4127164741755007"/>
  <path d="M 89.11555016807331, 8.113939485923936 Q 89.04436782072484, 2.5096745833110843, 88.32890746685655, 1.5925497301949143 " fill="none" id="curve_8" stroke="#000000" stroke-linecap="round" stroke-linejoin="round" stroke-width="3.6888511368834798"/>
  <path d="M 88.32890746685655, 1.5925497301949143 Q 88.82701951871061, 1.4691886649286323, 89.59360777440938, 1.3464077285127218 " fill="none" id="curve_8" stroke="#000000" stroke-linecap="round" stroke-linejoin="round" stroke-width="2.1335111095367334"/>
  <path d="M 26.365150553714855, 84.3837535648315 Q 25.117899674599812, 85.40504054283659, 23.7145462140894, 87.10370831488048 " fill="none" id="curve_15" stroke="#000000" stroke-linecap="round" stroke-linejoin="round" stroke-width="4.09852336615325"/>
  <path d="M 51.82236600833619, 52.42746591705977 Q 53.95322045265549, 53.636201576014194, 55.242100834139684, 57.28760813973433 " fill="none" id="curve_16" stroke="#000000" stroke-linecap="round" stroke-linejoin="round" stroke-width="3.6457965482965897"/>
  <path d="M 55.242100834139684, 57.28760813973433 Q 52.32732404999887, 70.96721867964655, 41.91929556302548, 81.93734430011361 " fill="none" id="curve_16" stroke="#000000" stroke-linecap="round" stroke-linejoin="round" stroke-width="2.566925567930602"/>
  <path d="M 48.89918126821352, 72.9127162145237 Q 51.953949700336686, 70.49706211060209, 53.98927349636177, 63.32306526002849 " fill="none" id="curve_18" stroke="#000000" stroke-linecap="round" stroke-linejoin="round" stroke-width="3.499256518087356"/>
  <path d="M 54.17727533865101, 54.65489185690294 Q 53.432933798193, 51.827454754691175, 45.957970782287276, 50.067600591757234 " fill="none" id="curve_21" stroke="#000000" stroke-linecap="round" stroke-linejoin="round" stroke-width="2.4783528719911105"/>
  <path d="M 53.53088793621619, 68.32649423686124 Q 52.36065583095069, 67.71592995908672, 50.979733667482954, 66.04518580326857 " fill="none" id="curve_22" stroke="#000000" stroke-linecap="round" stroke-linejoin="round" stroke-width="4.956146331951262"/>
  <path d="M 48.68296886096934, 82.13302400253389 Q 39.81011577137513, 82.82308807424022, 36.831837800740466, 89.56736422291428 " fill="none" id="curve_29" stroke="#000000" stroke-linecap="round" stroke-linejoin="round" stroke-width="2.010488168521483"/>
  <path d="M 50.033113545959914, 71.89634389959981 Q 50.527489450161085, 69.69932075445998, 51.22571874499139, 66.47827791416476 " fill="none" id="curve_30" stroke="#000000" stroke-linecap="round" stroke-linejoin="round" stroke-width="3.6114193506495704"/>
  <path d="M 45.695446695348664, 49.26141246543747 Q 43.785115492725595, 49.40919149613645, 39.218453791143986, 49.57013346100517 " fill="none" id="curve_33" stroke="#000000" stroke-linecap="round" stroke-linejoin="round" stroke-width="3.218967141307128"/>
  <path d="M 52.75540445722034, 68.64010317062487 Q 50.0395508154891, 71.68972371842953, 46.09681229561308, 75.65441288306108 " fill="none" id="curve_36" stroke="#000000" stroke-linecap="round" stroke-linejoin="round" stroke-width="4.305573476177155"/>
  <path d="M 40.40118731268447, 84.33766288390589 Q 38.507914418991795, 81.04575858437377, 32.82254813885479, 78.41354029227215 " fill="none" id="curve_41" stroke="#000000" stroke-linecap="round" stroke-linejoin="round" stroke-width="2.53177672088709"/>
  <path d="M 21.053431224607962, 81.53722027832434 Q 20.943489058223676, 81.76722339030775, 20.827559074952443, 82.19291426422951 " fill="none" id="curve_42" stroke="#000000" stroke-linecap="round" stroke-linejoin="round" stroke-width="3.257673179408642"/>
  <path d="M 49.85323166200172, 72.7516918578662 Q 50.2779523176648, 72.37456409332064, 50.723764588078275, 71.50974771879345 " fill="none" id="curve_77" stroke="#000000" stroke-linecap="round" stroke-linejoin="round" stroke-width="3.5202256076589613"/>
  <path d="M 49.84352315113108, 69.82987039493936 Q 50.07472539786664, 70.69747890167687, 50.377729983685036, 72.34843758912976 " fill="none" id="curve_136" stroke="#000000" stroke-linecap="round" stroke-linejoin="round" stroke-width="3.467781153264657"/>
</svg>
