<?xml version="1.0" ?>
<svg height="140" width="140" xmlns="http://www.w3.org/2000/svg">
  <path d="M 76.39462622501384, 42.66525552512468 Q 76.11577069974356, 43.251155053120435, 66.92797549942279, 43.30219538589151 " fill="none" id="curve_2" stroke="#000000" stroke-linecap="round" stroke-linejoin="round" stroke-width="6.261386912085462"/>
  <path d="M 66.92797549942279, 43.30219538589151 Q 66.90989436837212, 51.409037557310924, 66.87579246512757, 58.24699632600391 " fill="none" id="curve_2" stroke="#000000" stroke-linecap="round" stroke-linejoin="round" stroke-width="6.3655111144041205"/>
  <path d="M 66.87579246512757, 58.24699632600391 Q 64.5819863293283, 69.28027371645186, 56.180185664942634, 87.86934591259431 " fill="none" id="curve_2" stroke="#000000" stroke-linecap="round" stroke-linejoin="round" stroke-width="5.614029683129647"/>
  <path d="M 56.180185664942634, 87.86934591259431 Q 54.16305440554623, 100.40792591708671, 43.257989122436044, 122.87105306086379 " fill="none" id="curve_2" stroke="#000000" stroke-linecap="round" stroke-linejoin="round" stroke-width="4.70072211070647"/>
  <path d="M 44.2455493551215, 92.45899926482201 Q 47.89715362436027, 91.70770855841448, 70.50875241714834, 91.49745925421291 " fill="none" id="curve_3" stroke="#000000" stroke-linecap="round" stroke-linejoin="round" stroke-width="4.044337273161994"/>
  <path d="M 28.302448808541527, 77.99094111554001 Q 23.515512839255823, 76.49033428717625, 22.15366701352984, 52.23622946386254 " fill="none" id="curve_5" stroke="#000000" stroke-linecap="round" stroke-linejoin="round" stroke-width="6.614856986411318"/>
  <path d="M 22.15366701352984, 52.23622946386254 Q 21.511242084401896, 43.828116170222714, 18.882081774327645, 40.03028939747653 " fill="none" id="curve_5" stroke="#000000" stroke-linecap="round" stroke-linejoin="round" stroke-width="4.8749655759631105"/>
  <path d="M 18.882081774327645, 40.03028939747653 Q 19.815048495578825, 41.50387280117435, 46.412360328580846, 41.628696323497266 " fill="none" id="curve_5" stroke="#000000" stroke-linecap="round" stroke-linejoin="round" stroke-width="5.116800084043488"/>
  <path d="M 46.412360328580846, 41.628696323497266 Q 58.94078382819129, 42.24347585388387, 65.26300069092503, 43.67638077643591 " fill="none" id="curve_5" stroke="#000000" stroke-linecap="round" stroke-linejoin="round" stroke-width="5.357529171706636"/>
  <path d="M 73.73218917781622, 44.79410478739461 Q 66.38074763807107, 46.776791033481004, 64.40384390462913, 64.4538605964701 " fill="none" id="curve_6" stroke="#000000" stroke-linecap="round" stroke-linejoin="round" stroke-width="2.6087749560379767"/>
  <path d="M 53.42193783710572, 90.32982233772631 Q 50.068897804646156, 89.97275990662283, 46.21252872161756, 89.41966293794422 " fill="none" id="curve_7" stroke="#000000" stroke-linecap="round" stroke-linejoin="round" stroke-width="3.2557394453496973"/>
  <path d="M 43.97388377082591, 119.30826584516619 Q 47.996788703449546, 110.84233554514385, 53.50137726353519, 94.2587206549055 " fill="none" id="curve_8" stroke="#000000" stroke-linecap="round" stroke-linejoin="round" stroke-width="3.1632828100587136"/>
  <path d="M 26.72626021144306, 78.99886860165122 Q 25.5656960704116, 78.7673858520506, 25.00367804360513, 77.77178792907482 " fill="none" id="curve_12" stroke="#000000" stroke-linecap="round" stroke-linejoin="round" stroke-width="4.478811559273306"/>
  <path d="M 65.95443122071907, 58.76442132973892 Q 61.927245118813914, 66.85151746369047, 57.83878198605632, 81.20545835112988 " fill="none" id="curve_15" stroke="#000000" stroke-linecap="round" stroke-linejoin="round" stroke-width="2.972787202172951"/>
  <path d="M 42.65089593454052, 94.94152764850635 Q 43.5549555976345, 93.30446527861986, 45.261340021874084, 91.33678286125249 " fill="none" id="curve_16" stroke="#000000" stroke-linecap="round" stroke-linejoin="round" stroke-width="2.6366850752294035"/>
  <path d="M 65.87044482669724, 57.32448366457548 Q 67.74000419118917, 55.571072252922924, 69.70159422006958, 53.02930577137105 " fill="none" id="curve_17" stroke="#000000" stroke-linecap="round" stroke-linejoin="round" stroke-width="2.8628494263920152"/>
  <path d="M 26.10082918396693, 66.62598666847069 Q 25.384328097569856, 63.32246150716234, 23.4306946752283, 60.31794646097521 " fill="none" id="curve_21" stroke="#000000" stroke-linecap="round" stroke-linejoin="round" stroke-width="3.94461181458517"/>
  <path d="M 28.342659645373068, 75.87710374166028 Q 27.941142240329334, 75.85415958224824, 27.597762062210187, 75.7609291291355 " fill="none" id="curve_22" stroke="#000000" stroke-linecap="round" stroke-linejoin="round" stroke-width="4.808515272242376"/>
  <path d="M 46.664330364690464, 118.5436284550372 Q 46.56749270551702, 115.08297237614875, 46.036632249084434, 113.20356074535053 " fill="none" id="curve_23" stroke="#000000" stroke-linecap="round" stroke-linejoin="round" stroke-width="4.8615322325073445"/>
  <path d="M 51.45808431480298, 103.81312077016155 Q 48.36403180376221, 110.68959662311244, 44.50201639470213, 119.48055464302651 " fill="none" id="curve_27" stroke="#000000" stroke-linecap="round" stroke-linejoin="round" stroke-width="3.1592201608321737"/>
  <path d="M 43.98195836287386, 118.40471407297431 Q 44.81932773214857, 119.88285033024283, 46.079514269313734, 121.54408275818474 " fill="none" id="curve_29" stroke="#000000" stroke-linecap="round" stroke-linejoin="round" stroke-width="3.3484434915659347"/>
  <path d="M 44.979089687724446, 114.39238013517355 Q 48.87370265360274, 113.57947852034124, 50.90153600156047, 108.23571298715426 " fill="none" id="curve_30" stroke="#000000" stroke-linecap="round" stroke-linejoin="round" stroke-width="3.4008905771736178"/>
  <path d="M 21.498515705087023, 40.095871149736496 Q 20.43595726796808, 39.19204473316215, 18.647829643609175, 38.26084587135204 " fill="none" id="curve_36" stroke="#000000" stroke-linecap="round" stroke-linejoin="round" stroke-width="3.168930993768016"/>
  <path d="M 46.278180785807095, 41.276098906515465 Q 44.23913599554119, 41.03376477327191, 41.1188811156594, 40.63950941545299 " fill="none" id="curve_37" stroke="#000000" stroke-linecap="round" stroke-linejoin="round" stroke-width="3.4964320551470904"/>
  <path d="M 41.1188811156594, 40.63950941545299 Q 42.28239180388472, 41.07127850312482, 46.4201608019857, 41.51550799719197 " fill="none" id="curve_37" stroke="#000000" stroke-linecap="round" stroke-linejoin="round" stroke-width="2.9045618952052736"/>
  <path d="M 50.8657238705722, 41.81783725727486 Q 47.44547606121611, 41.30400386020753, 40.30038884741079, 40.57127819326235 " fill="none" id="curve_44" stroke="#000000" stroke-linecap="round" stroke-linejoin="round" stroke-width="3.6203447293822175"/>
  <path d="M 73.8561770299698, 43.32148596292277 Q 74.11836843652367, 43.076613285686, 74.64964153727324, 42.568640782024715 " fill="none" id="curve_50" stroke="#000000" stroke-linecap="round" stroke-linejoin="round" stroke-width="3.0926607064772655"/>
  <path d="M 54.91391189647238, 41.70211827673763 Q 55.29912031109238, 41.372983099974704, 56.5099534995629, 40.87680158806045 " fill="none" id="curve_92" stroke="#000000" stroke-linecap="round" stroke-linejoin="round" stroke-width="2.2528488952632255"/>
  <path d="M 74.20029537153516, 43.0665377622021 Q 75.05166812969455, 42.59863734767923, 76.04076450119352, 41.729866640977825 " fill="none" id="curve_96" stroke="#000000" stroke-linecap="round" stroke-linejoin="round" stroke-width="3.123340401769433"/>
  <path d="M 24.35559590575391, 70.77279677753843 Q 24.516072309237693, 72.51360295283013, 24.762191000700664, 75.8824370625434 " fill="none" id="curve_101" stroke="#000000" stroke-linecap="round" stroke-linejoin="round" stroke-width="3.1072322147536684"/>
  <path d="M 63.50313352730518, 61.51387523782461 Q 64.19449045988486, 59.23981225045802, 66.66910844634761, 57.39401341694359 " fill="none" id="curve_129" stroke="#000000" stroke-linecap="round" stroke-linejoin="round" stroke-width="2.5839847079066094"/>
  <path d="M 22.22344631894808, 66.91910495895011 Q 22.193259061294086, 67.75877015882348, 22.161744396380378, 69.95302004482058 " fill="none" id="curve_149" stroke="#000000" stroke-linecap="round" stroke-linejoin="round" stroke-width="3.00342434352628"/>
</svg>
