<?xml version="1.0" ?>
<svg height="140" width="140" xmlns="http://www.w3.org/2000/svg">
  <path d="M 54.154375076293945, 29.096445083618164 Q 49.85992861770226, 32.507701160629374, 38.876920899051925, 39.57279543217396 " fill="none" id="curve_1" stroke="#000000" stroke-linecap="round" stroke-linejoin="round" stroke-width="5.13899000492103"/>
  <path d="M 38.876920899051925, 39.57279543217396 Q 34.42013307092156, 42.24042558015242, 25.698608597609798, 44.13262412974026 " fill="none" id="curve_1" stroke="#000000" stroke-linecap="round" stroke-linejoin="round" stroke-width="3.833343798548221"/>
  <path d="M 42.3731775416057, 67.11723338740825 Q 48.61354247579975, 66.59499766110606, 55.76500019629114, 65.68672287721715 " fill="none" id="curve_2" stroke="#000000" stroke-linecap="round" stroke-linejoin="round" stroke-width="7.422024871777977"/>
  <path d="M 55.76500019629114, 65.68672287721715 Q 54.820751972246086, 69.22740192288003, 54.04465901220523, 93.32643174108671 " fill="none" id="curve_2" stroke="#000000" stroke-linecap="round" stroke-linejoin="round" stroke-width="4.047527815717461"/>
  <path d="M 54.04465901220523, 93.32643174108671 Q 54.56132465779209, 103.29123705181533, 55.2731323602819, 111.1380659825941 " fill="none" id="curve_2" stroke="#000000" stroke-linecap="round" stroke-linejoin="round" stroke-width="4.203252415148669"/>
  <path d="M 55.2731323602819, 111.1380659825941 Q 54.71093679241988, 108.00532126916012, 53.670464722552914, 105.9658052083522 " fill="none" id="curve_2" stroke="#000000" stroke-linecap="round" stroke-linejoin="round" stroke-width="4.848547191241942"/>
  <path d="M 58.94747596296878, 64.13371707978851 Q 65.3177621091371, 63.21934299823292, 69.57443812605626, 60.73174063069795 " fill="none" id="curve_3" stroke="#000000" stroke-linecap="round" stroke-linejoin="round" stroke-width="4.264927445722986"/>
  <path d="M 54.80430057300088, 63.266334540144186 Q 55.442035922552314, 62.41606957885988, 55.521636623570295, 37.127818279455205 " fill="none" id="curve_4" stroke="#000000" stroke-linecap="round" stroke-linejoin="round" stroke-width="4.017454765915454"/>
  <path d="M 55.521636623570295, 37.127818279455205 Q 55.41235298335477, 29.807462316783486, 52.815264542884485, 29.269738553830052 " fill="none" id="curve_4" stroke="#000000" stroke-linecap="round" stroke-linejoin="round" stroke-width="4.496123856082807"/>
  <path d="M 52.815264542884485, 29.269738553830052 Q 47.45151918050308, 31.075934567902227, 45.38577106228416, 38.3904772639074 " fill="none" id="curve_4" stroke="#000000" stroke-linecap="round" stroke-linejoin="round" stroke-width="2.660452241189276"/>
  <path d="M 61.45997054555052, 61.233762563831256 Q 65.66814384152772, 61.12793019630207, 67.3376352112744, 60.65979835364398 " fill="none" id="curve_5" stroke="#000000" stroke-linecap="round" stroke-linejoin="round" stroke-width="2.7536645098865384"/>
  <path d="M 45.56251529013845, 67.43821651799453 Q 44.87327166032078, 66.70558991131264, 43.948792119769394, 65.9457279858169 " fill="none" id="curve_6" stroke="#000000" stroke-linecap="round" stroke-linejoin="round" stroke-width="5.015255719297896"/>
  <path d="M 57.5527816664997, 62.83889341640265 Q 58.830146788723134, 62.689004221743986, 60.428052590947765, 62.48176772744286 " fill="none" id="curve_8" stroke="#000000" stroke-linecap="round" stroke-linejoin="round" stroke-width="3.6827289163823598"/>
  <path d="M 25.45405336081423, 44.23044739004864 Q 25.011643105206264, 44.00385735413321, 24.31784681555203, 43.67328364292644 " fill="none" id="curve_9" stroke="#000000" stroke-linecap="round" stroke-linejoin="round" stroke-width="2.899400837510678"/>
  <path d="M 51.34521681577314, 68.40733196705743 Q 48.31275484760998, 67.9410598426528, 44.491718992045094, 67.15996733157886 " fill="none" id="curve_24" stroke="#000000" stroke-linecap="round" stroke-linejoin="round" stroke-width="2.8143677441763604"/>
</svg>
