<?xml version="1.0" ?>
<svg height="140" width="140" xmlns="http://www.w3.org/2000/svg">
  <path d="M 69.27867041850004, 59.73586850937532 Q 62.98204018283522, 62.14394926180443, 47.90347908604514, 66.31050920324917 " fill="none" id="curve_2" stroke="#000000" stroke-linecap="round" stroke-linejoin="round" stroke-width="5.105946854324329"/>
  <path d="M 47.90347908604514, 66.31050920324917 Q 47.35940379053015, 58.56267626478083, 46.22734129248567, 45.33293835545264 " fill="none" id="curve_2" stroke="#000000" stroke-linecap="round" stroke-linejoin="round" stroke-width="6.492572078169439"/>
  <path d="M 46.22734129248567, 45.33293835545264 Q 46.15284915678428, 31.843403659060087, 38.20029706522404, 31.439840744342998 " fill="none" id="curve_2" stroke="#000000" stroke-linecap="round" stroke-linejoin="round" stroke-width="5.883954076231858"/>
  <path d="M 38.20029706522404, 31.439840744342998 Q 24.951913453335717, 33.19765245974883, 20.070821729788193, 40.74701714751156 " fill="none" id="curve_2" stroke="#000000" stroke-linecap="round" stroke-linejoin="round" stroke-width="4.343425852611249"/>
  <path d="M 25.557661689045084, 72.45618111855916 Q 37.83247135606787, 70.65049158930523, 46.96399361327278, 67.12333822780218 " fill="none" id="curve_3" stroke="#000000" stroke-linecap="round" stroke-linejoin="round" stroke-width="6.184744141636084"/>
  <path d="M 46.96399361327278, 67.12333822780218 Q 45.43139090105933, 71.68601819907896, 44.85838631219137, 99.83110420226748 " fill="none" id="curve_3" stroke="#000000" stroke-linecap="round" stroke-linejoin="round" stroke-width="5.281776899434586"/>
  <path d="M 21.030137493767498, 43.53507390271669 Q 21.38863451695789, 39.50806829962311, 23.88693083192844, 37.66194098011027 " fill="none" id="curve_8" stroke="#000000" stroke-linecap="round" stroke-linejoin="round" stroke-width="2.779675272672035"/>
  <path d="M 46.57538767635481, 33.31837927344161 Q 48.38634374060782, 36.76326566038453, 48.95900249087973, 50.14826986331768 " fill="none" id="curve_9" stroke="#000000" stroke-linecap="round" stroke-linejoin="round" stroke-width="3.4625861448528736"/>
  <path d="M 32.277100884387394, 69.70527744992532 Q 30.130959090622095, 69.5632187451834, 28.41480291134004, 69.26756113552263 " fill="none" id="curve_10" stroke="#000000" stroke-linecap="round" stroke-linejoin="round" stroke-width="4.511108976064554"/>
  <path d="M 46.8527107629755, 60.03381692211683 Q 46.87276908523237, 61.18711990070183, 46.96593158803901, 62.34509842157049 " fill="none" id="curve_18" stroke="#000000" stroke-linecap="round" stroke-linejoin="round" stroke-width="2.9551248304351416"/>
  <path d="M 43.93953724476293, 68.02889755792124 Q 46.318764103293134, 62.40304441639192, 49.69950608166724, 51.70494947816188 " fill="none" id="curve_26" stroke="#000000" stroke-linecap="round" stroke-linejoin="round" stroke-width="2.596591408001112"/>
  <path d="M 45.31879748525225, 101.03817026299939 Q 45.593682177306654, 100.94159287916372, 46.011398289916045, 100.76449554880129 " fill="none" id="curve_28" stroke="#000000" stroke-linecap="round" stroke-linejoin="round" stroke-width="3.0487615418821625"/>
  <path d="M 48.132954381416084, 66.63936089775709 Q 53.344217028288966, 65.15363280212229, 59.28339317285926, 62.52663791406827 " fill="none" id="curve_30" stroke="#000000" stroke-linecap="round" stroke-linejoin="round" stroke-width="3.334280494418136"/>
  <path d="M 17.384270404833796, 41.17099044806706 Q 22.201837622500094, 36.75010941059297, 34.21409644993763, 31.982021600459845 " fill="none" id="curve_32" stroke="#000000" stroke-linecap="round" stroke-linejoin="round" stroke-width="2.508569302216066"/>
  <path d="M 32.84990310668945, 69.19895648956299 Q 35.354288489207335, 67.4503859849751, 50.2029476961859, 66.53728037620968 " fill="none" id="curve_46" stroke="#000000" stroke-linecap="round" stroke-linejoin="round" stroke-width="2.684454816774137"/>
  <path d="M 25.1902269375328, 74.04900984229266 Q 26.147529962922214, 73.89021515577744, 27.32697784306267, 73.48580289470357 " fill="none" id="curve_49" stroke="#000000" stroke-linecap="round" stroke-linejoin="round" stroke-width="2.4375228375683053"/>
  <path d="M 46.74171893080016, 73.35001057222104 Q 48.29370740841497, 66.26807114035907, 55.08820216784861, 62.96218812567907 " fill="none" id="curve_55" stroke="#000000" stroke-linecap="round" stroke-linejoin="round" stroke-width="3.361848247341148"/>
  <path d="M 33.86231291294098, 30.174172401428223 Q 31.83556661791506, 31.54222455823157, 27.411907534324655, 33.48005976656535 " fill="none" id="curve_69" stroke="#000000" stroke-linecap="round" stroke-linejoin="round" stroke-width="2.687403159271082"/>
  <path d="M 71.04155782057794, 59.4650818123033 Q 71.22479152744731, 59.64945774394716, 71.558340186598, 59.97168140277243 " fill="none" id="curve_71" stroke="#000000" stroke-linecap="round" stroke-linejoin="round" stroke-width="2.640832732419678"/>
  <path d="M 44.57772529262242, 88.10347549062043 Q 45.6931141467833, 73.28325420274109, 49.86556378138624, 60.47698889152798 " fill="none" id="curve_88" stroke="#000000" stroke-linecap="round" stroke-linejoin="round" stroke-width="3.025939607397054"/>
  <path d="M 44.28009408764843, 76.58556235029617 Q 45.64472183487102, 73.85174592613426, 48.46647476471805, 70.8665494476167 " fill="none" id="curve_104" stroke="#000000" stroke-linecap="round" stroke-linejoin="round" stroke-width="3.2186628393661674"/>
  <path d="M 43.16544111123674, 70.02286533762893 Q 44.734716723206695, 74.11813078368262, 46.15636384431426, 85.36918829714155 " fill="none" id="curve_120" stroke="#000000" stroke-linecap="round" stroke-linejoin="round" stroke-width="2.2358636159317027"/>
  <path d="M 43.180646798790804, 66.31789121497195 Q 50.042566849015394, 66.27887277697913, 56.83922097107623, 66.16973680880523 " fill="none" id="curve_148" stroke="#000000" stroke-linecap="round" stroke-linejoin="round" stroke-width="2.6070582610154487"/>
  <path d="M 45.716437671456376, 84.12012787066664 Q 46.16917714496624, 81.09185193394664, 47.15963215951851, 75.94480222235974 " fill="none" id="curve_165" stroke="#000000" stroke-linecap="round" stroke-linejoin="round" stroke-width="2.548441546315742"/>
</svg>
