<?xml version="1.0" ?>
<svg height="140" width="140" xmlns="http://www.w3.org/2000/svg">
  <path d="M 58.1647834777832, 49.523048400878906 Q 56.93584121038755, 51.700635855014355, 55.8473149785452, 58.99124732427208 " fill="none" id="curve_1" stroke="#000000" stroke-linecap="round" stroke-linejoin="round" stroke-width="7.1448408312081835"/>
  <path d="M 55.8473149785452, 58.99124732427208 Q 53.13290790527118, 72.02064088450057, 41.654731326064436, 85.49448117722585 " fill="none" id="curve_1" stroke="#000000" stroke-linecap="round" stroke-linejoin="round" stroke-width="6.288936268977444"/>
  <path d="M 41.654731326064436, 85.49448117722585 Q 38.17480133672065, 95.56579120662201, 33.94340218425004, 113.40779070815708 " fill="none" id="curve_1" stroke="#000000" stroke-linecap="round" stroke-linejoin="round" stroke-width="4.379536654586351"/>
  <path d="M 23.778711666051286, 86.87956704273995 Q 28.74746293368726, 85.02438265810936, 56.136639886619385, 84.05487761137692 " fill="none" id="curve_2" stroke="#000000" stroke-linecap="round" stroke-linejoin="round" stroke-width="6.087500892380504"/>
  <path d="M 56.136639886619385, 84.05487761137692 Q 58.98142505977533, 82.98627399794985, 73.56229334481237, 82.61969706013309 " fill="none" id="curve_2" stroke="#000000" stroke-linecap="round" stroke-linejoin="round" stroke-width="3.84397152167604"/>
  <path d="M 56.012794705546185, 54.463839933401836 Q 55.05806435444295, 37.56588400097527, 38.309190850053895, 30.28325645882619 " fill="none" id="curve_3" stroke="#000000" stroke-linecap="round" stroke-linejoin="round" stroke-width="6.636379045674126"/>
  <path d="M 38.309190850053895, 30.28325645882619 Q 37.16611638978323, 29.06644283942019, 25.803155144848454, 28.778561336825234 " fill="none" id="curve_3" stroke="#000000" stroke-linecap="round" stroke-linejoin="round" stroke-width="4.450756522467888"/>
  <path d="M 25.803155144848454, 28.778561336825234 Q 23.944563689350268, 31.177022958484205, 19.991670739963425, 32.52208033176768 " fill="none" id="curve_3" stroke="#000000" stroke-linecap="round" stroke-linejoin="round" stroke-width="4.301581321999407"/>
  <path d="M 50.8816066218314, 41.134313434560305 Q 55.039226255707376, 42.77853087719188, 55.723126503187345, 53.50831435457792 " fill="none" id="curve_4" stroke="#000000" stroke-linecap="round" stroke-linejoin="round" stroke-width="4.951043440080856"/>
  <path d="M 55.723126503187345, 53.50831435457792 Q 54.57252568136955, 42.60721122410162, 48.496640006640405, 38.04481243478725 " fill="none" id="curve_4" stroke="#000000" stroke-linecap="round" stroke-linejoin="round" stroke-width="4.1892540679674815"/>
  <path d="M 48.496640006640405, 38.04481243478725 Q 53.858486520457795, 42.20466089536784, 56.65822703180052, 49.45495546980816 " fill="none" id="curve_4" stroke="#000000" stroke-linecap="round" stroke-linejoin="round" stroke-width="4.139903838340517"/>
  <path d="M 44.07801535850511, 88.14555783633006 Q 40.97337890337259, 95.24809199756857, 33.434932629564415, 100.42681729140025 " fill="none" id="curve_6" stroke="#000000" stroke-linecap="round" stroke-linejoin="round" stroke-width="3.1746145204829244"/>
  <path d="M 33.434932629564415, 100.42681729140025 Q 34.271732363880275, 108.73436518337968, 35.454729810854204, 114.05211185286616 " fill="none" id="curve_6" stroke="#000000" stroke-linecap="round" stroke-linejoin="round" stroke-width="3.0621151936857656"/>
  <path d="M 35.454729810854204, 114.05211185286616 Q 36.026572265511184, 108.1157759941661, 37.11705627877774, 104.04595224671434 " fill="none" id="curve_6" stroke="#000000" stroke-linecap="round" stroke-linejoin="round" stroke-width="2.6062363666916646"/>
  <path d="M 29.77446038365116, 83.37870587129632 Q 26.10748734367805, 84.43839237382117, 24.05591652970322, 87.13461402025547 " fill="none" id="curve_7" stroke="#000000" stroke-linecap="round" stroke-linejoin="round" stroke-width="3.183440107210845"/>
  <path d="M 24.05591652970322, 87.13461402025547 Q 27.67465750693742, 86.19181777353612, 32.98623164412533, 84.77476016410344 " fill="none" id="curve_7" stroke="#000000" stroke-linecap="round" stroke-linejoin="round" stroke-width="3.627379375547049"/>
  <path d="M 52.67182942466078, 47.4064496269128 Q 52.24049573720621, 41.642256951771365, 50.93097232735565, 38.23977508559288 " fill="none" id="curve_8" stroke="#000000" stroke-linecap="round" stroke-linejoin="round" stroke-width="4.0642315451871145"/>
  <path d="M 50.93097232735565, 38.23977508559288 Q 52.30968423862127, 39.03539524628631, 53.71105409628012, 41.20830789889762 " fill="none" id="curve_8" stroke="#000000" stroke-linecap="round" stroke-linejoin="round" stroke-width="3.0306583923358263"/>
  <path d="M 29.71005813714129, 86.55827412257486 Q 32.978207213282566, 86.39592854729676, 37.064751695588754, 85.9366530315843 " fill="none" id="curve_36" stroke="#000000" stroke-linecap="round" stroke-linejoin="round" stroke-width="2.838237925001036"/>
  <path d="M 37.33676922182409, 95.10128242913454 Q 37.32688544872126, 95.27220934858308, 37.31719675380996, 95.72965121870567 " fill="none" id="curve_37" stroke="#000000" stroke-linecap="round" stroke-linejoin="round" stroke-width="3.9169833898538857"/>
  <path d="M 50.91213200420851, 68.91307567762013 Q 50.10706881488487, 69.33410097899993, 49.22883538845888, 70.34217853765666 " fill="none" id="curve_45" stroke="#000000" stroke-linecap="round" stroke-linejoin="round" stroke-width="3.841169191395932"/>
  <path d="M 75.80041810254993, 82.2875261673584 Q 75.19590856657061, 82.5949565326634, 73.94297595141879, 83.00983134876824 " fill="none" id="curve_49" stroke="#000000" stroke-linecap="round" stroke-linejoin="round" stroke-width="2.5182831105387202"/>
  <path d="M 22.64613147894088, 87.1346279543028 Q 23.321049632812535, 87.30943330340048, 24.272525343596644, 87.65881687265254 " fill="none" id="curve_51" stroke="#000000" stroke-linecap="round" stroke-linejoin="round" stroke-width="2.8872366037756283"/>
  <path d="M 48.64479806774716, 42.79787946689066 Q 50.77019434487321, 43.37241292570618, 53.51251777024452, 44.59173183012323 " fill="none" id="curve_66" stroke="#000000" stroke-linecap="round" stroke-linejoin="round" stroke-width="2.663829165760482"/>
  <path d="M 27.539587102705017, 27.951358000140893 Q 37.07150794527854, 28.530610424495155, 44.11193993319827, 30.7299544057155 " fill="none" id="curve_89" stroke="#000000" stroke-linecap="round" stroke-linejoin="round" stroke-width="2.3690138053980996"/>
  <path d="M 48.79646411728832, 79.85029029013026 Q 49.56588971947777, 81.33064420992126, 52.19364838714006, 82.59994375985791 " fill="none" id="curve_108" stroke="#000000" stroke-linecap="round" stroke-linejoin="round" stroke-width="2.5193368104043166"/>
  <path d="M 28.23143867976198, 84.57115458038986 Q 29.817629746958836, 83.98105743450051, 38.23010868019865, 83.74402524490894 " fill="none" id="curve_112" stroke="#000000" stroke-linecap="round" stroke-linejoin="round" stroke-width="2.521250754036683"/>
  <path d="M 37.62107708179499, 95.64162743398259 Q 36.89159290119499, 95.58230274730387, 36.406634646213924, 95.36238156032599 " fill="none" id="curve_113" stroke="#000000" stroke-linecap="round" stroke-linejoin="round" stroke-width="4.0530896249243344"/>
</svg>
