<?xml version="1.0" ?>
<svg height="140" width="140" xmlns="http://www.w3.org/2000/svg">
  <path d="M 35.60871706949786, 12.50314898029879 Q 25.82142488490222, 14.784764729319232, 17.79657849401833, 25.504651505446958 " fill="none" id="curve_2" stroke="#000000" stroke-linecap="round" stroke-linejoin="round" stroke-width="4.732782269838849"/>
  <path d="M 17.79657849401833, 25.504651505446958 Q 18.195156580344786, 29.71057393267577, 18.871120144274318, 33.11274847181804 " fill="none" id="curve_2" stroke="#000000" stroke-linecap="round" stroke-linejoin="round" stroke-width="4.498529561816909"/>
  <path d="M 35.00142379159731, 50.9623342006879 Q 42.87444138223527, 49.63429641957982, 51.59559965523468, 47.67719377359901 " fill="none" id="curve_3" stroke="#000000" stroke-linecap="round" stroke-linejoin="round" stroke-width="8.392897202675039"/>
  <path d="M 51.59559965523468, 47.67719377359901 Q 48.21569260217197, 54.75378263808879, 42.892243898327195, 80.5902871662334 " fill="none" id="curve_3" stroke="#000000" stroke-linecap="round" stroke-linejoin="round" stroke-width="5.99267319865693"/>
  <path d="M 53.69873217627989, 47.78853367897756 Q 53.074346110342866, 24.60885735826447, 43.76178171087925, 14.407704115977715 " fill="none" id="curve_4" stroke="#000000" stroke-linecap="round" stroke-linejoin="round" stroke-width="5.203942652689409"/>
  <path d="M 58.5599980496103, 47.75090218198035 Q 67.00316742175366, 46.574809373377256, 72.80362849388325, 43.82547714395403 " fill="none" id="curve_5" stroke="#000000" stroke-linecap="round" stroke-linejoin="round" stroke-width="3.424388614454925"/>
  <path d="M 44.90042332625514, 83.06189716959153 Q 43.680095048132365, 83.3470076599507, 42.557166880266294, 83.8265833019063 " fill="none" id="curve_6" stroke="#000000" stroke-linecap="round" stroke-linejoin="round" stroke-width="5.730353907055246"/>
  <path d="M 50.091334220101345, 44.93173397313702 Q 49.94085047335631, 23.269761879774823, 48.346282629603856, 16.525754007109857 " fill="none" id="curve_7" stroke="#000000" stroke-linecap="round" stroke-linejoin="round" stroke-width="3.319057040441599"/>
  <path d="M 48.346282629603856, 16.525754007109857 Q 46.23024479197326, 14.451574025802046, 37.63355022681736, 13.43675210667125 " fill="none" id="curve_7" stroke="#000000" stroke-linecap="round" stroke-linejoin="round" stroke-width="5.026069396210238"/>
  <path d="M 53.015807611264265, 27.375838106976243 Q 52.01964859666015, 21.672688577326337, 48.68676401864576, 18.506957711882592 " fill="none" id="curve_8" stroke="#000000" stroke-linecap="round" stroke-linejoin="round" stroke-width="2.71333066248565"/>
  <path d="M 54.606203903467254, 47.259769096867245 Q 60.680662593987165, 45.87702211289745, 70.07969036714584, 44.18996091241157 " fill="none" id="curve_9" stroke="#000000" stroke-linecap="round" stroke-linejoin="round" stroke-width="2.3824569881223128"/>
  <path d="M 70.07969036714584, 44.18996091241157 Q 72.9068229996147, 43.96773916565174, 74.45215365223251, 43.11046470886645 " fill="none" id="curve_9" stroke="#000000" stroke-linecap="round" stroke-linejoin="round" stroke-width="2.9770938750919975"/>
  <path d="M 89.2734394546413, 5.195815127982179 Q 89.44671103994719, 3.7524416677121666, 89.63350683698077, 0.7418838478690155 " fill="none" id="curve_10" stroke="#000000" stroke-linecap="round" stroke-linejoin="round" stroke-width="1.7858375992142488"/>
  <path d="M 58.862680849754184, 48.55469225358269 Q 52.27463254497547, 48.22838947929095, 37.52931249882134, 47.86964704505982 " fill="none" id="curve_14" stroke="#000000" stroke-linecap="round" stroke-linejoin="round" stroke-width="2.42295394804386"/>
  <path d="M 38.43004242244412, 15.740775780975646 Q 36.162785243483235, 15.424296599598636, 28.826418676734303, 15.169198883220655 " fill="none" id="curve_15" stroke="#000000" stroke-linecap="round" stroke-linejoin="round" stroke-width="2.420604302760921"/>
  <path d="M 39.80633179084342, 11.682038234084999 Q 39.26984709526833, 11.6728108031349, 38.37564919945852, 11.662988248626856 " fill="none" id="curve_16" stroke="#000000" stroke-linecap="round" stroke-linejoin="round" stroke-width="3.5877642155307083"/>
  <path d="M 56.58964506555556, 48.6256429050285 Q 53.84391697062536, 51.160427475678524, 45.11234781907315, 52.30241319935449 " fill="none" id="curve_32" stroke="#000000" stroke-linecap="round" stroke-linejoin="round" stroke-width="3.8427945902276277"/>
  <path d="M 18.285352007060123, 28.745451867573518 Q 17.684382975724265, 28.213613100557964, 16.855204380360185, 27.42615201298501 " fill="none" id="curve_34" stroke="#000000" stroke-linecap="round" stroke-linejoin="round" stroke-width="4.1845519951767844"/>
  <path d="M 43.305718237917205, 77.87423363395267 Q 43.59135180671104, 74.23394447325268, 44.04360838787233, 68.10676546070671 " fill="none" id="curve_36" stroke="#000000" stroke-linecap="round" stroke-linejoin="round" stroke-width="3.4638794169277554"/>
  <path d="M 36.4725285533941, 49.479668114000624 Q 37.278325609815894, 49.04249084536601, 38.44689186764313, 48.08992919179266 " fill="none" id="curve_52" stroke="#000000" stroke-linecap="round" stroke-linejoin="round" stroke-width="2.791369606072784"/>
  <path d="M 42.58589493751842, 75.37842512414085 Q 42.998934143615735, 77.49556669254035, 43.84516615264389, 80.2340932209002 " fill="none" id="curve_68" stroke="#000000" stroke-linecap="round" stroke-linejoin="round" stroke-width="3.228839571636205"/>
  <path d="M 44.75873565673828, 13.412635803222656 Q 44.62676498182944, 12.702976817551981, 43.16464954949757, 12.426795964561023 " fill="none" id="curve_95" stroke="#000000" stroke-linecap="round" stroke-linejoin="round" stroke-width="2.2353732963742656"/>
</svg>
