<?xml version="1.0" ?>
<svg height="140" width="140" xmlns="http://www.w3.org/2000/svg">
  <path d="M 31.24138045310974, 54.81479358673096 Q 30.23539711185734, 54.952573703979105, 26.228226162976796, 55.03772683749449 " fill="none" id="curve_1" stroke="#000000" stroke-linecap="round" stroke-linejoin="round" stroke-width="5.870320173862953"/>
  <path d="M 26.228226162976796, 55.03772683749449 Q 41.57058027660248, 54.91152836747256, 49.9239202829078, 53.70390990057821 " fill="none" id="curve_1" stroke="#000000" stroke-linecap="round" stroke-linejoin="round" stroke-width="4.733526879573862"/>
  <path d="M 49.9239202829078, 53.70390990057821 Q 47.74524050453253, 63.69494741672487, 36.15360310074031, 82.14105179525606 " fill="none" id="curve_1" stroke="#000000" stroke-linecap="round" stroke-linejoin="round" stroke-width="4.478669606580142"/>
  <path d="M 36.15360310074031, 82.14105179525606 Q 30.744947657713237, 90.94614071962727, 21.68829598660878, 108.11382801055284 " fill="none" id="curve_1" stroke="#000000" stroke-linecap="round" stroke-linejoin="round" stroke-width="5.0150698391454"/>
  <path d="M 33.19310013633989, 87.30797280461496 Q 39.28216319482203, 84.69515845688214, 58.59244872020379, 83.4025795538125 " fill="none" id="curve_2" stroke="#000000" stroke-linecap="round" stroke-linejoin="round" stroke-width="4.072014083249973"/>
  <path d="M 52.95613125078608, 52.88537025316041 Q 53.52948010668777, 52.383579267198854, 53.99093536913532, 51.475103149420384 " fill="none" id="curve_3" stroke="#000000" stroke-linecap="round" stroke-linejoin="round" stroke-width="5.812113575434246"/>
  <path d="M 89.62235201015031, 44.39887902325899 Q 89.61257427697574, 64.68340044625673, 89.57034168454823, 78.10293401120424 " fill="none" id="curve_4" stroke="#000000" stroke-linecap="round" stroke-linejoin="round" stroke-width="1.6898488829182943"/>
  <path d="M 89.57034168454823, 78.10293401120424 Q 89.55479907083487, 81.27289761637925, 89.4709347492605, 82.38482234817765 " fill="none" id="curve_4" stroke="#000000" stroke-linecap="round" stroke-linejoin="round" stroke-width="2.2377825670958966"/>
  <path d="M 31.1232117230462, 87.14953876675395 Q 27.927618407597198, 89.60926561360012, 26.507069877181806, 99.68962351740535 " fill="none" id="curve_6" stroke="#000000" stroke-linecap="round" stroke-linejoin="round" stroke-width="2.2822626563070214"/>
  <path d="M 58.8056942569028, 84.27918389228824 Q 59.339661536572976, 84.05168545271039, 59.854071400890625, 83.59233413232803 " fill="none" id="curve_7" stroke="#000000" stroke-linecap="round" stroke-linejoin="round" stroke-width="4.050089938620815"/>
  <path d="M 90.6855358791005, 34.93816131021363 Q 90.1625777779122, 33.90715761771507, 90.01201993892117, 20.465235424447116 " fill="none" id="curve_9" stroke="#000000" stroke-linecap="round" stroke-linejoin="round" stroke-width="1.8989146207107912"/>
  <path d="M 90.01201993892117, 20.465235424447116 Q 89.8498151864658, 13.367359975627709, 89.59586775748063, 0.8878257734379034 " fill="none" id="curve_9" stroke="#000000" stroke-linecap="round" stroke-linejoin="round" stroke-width="2.1423226325920215"/>
  <path d="M 89.59586775748063, 0.8878257734379034 Q 89.53711013936687, 2.0117536198645554, 89.34868007132792, 2.8794746892241774 " fill="none" id="curve_9" stroke="#000000" stroke-linecap="round" stroke-linejoin="round" stroke-width="1.7808211195820085"/>
  <path d="M 89.38209253642547, 42.57309346404218 Q 89.67066630468821, 42.224087854250406, 90.0341522896023, 41.48779521619341 " fill="none" id="curve_11" stroke="#000000" stroke-linecap="round" stroke-linejoin="round" stroke-width="1.7332571315058256"/>
  <path d="M 30.686547485517796, 57.47694776960069 Q 30.152576399658145, 57.13790710243041, 28.962787589687107, 56.823867971523946 " fill="none" id="curve_13" stroke="#000000" stroke-linecap="round" stroke-linejoin="round" stroke-width="3.6485035256115013"/>
  <path d="M 54.76777430456963, 51.86712611350981 Q 52.086605231314, 53.006968667716876, 48.13292312381169, 54.64857199526207 " fill="none" id="curve_14" stroke="#000000" stroke-linecap="round" stroke-linejoin="round" stroke-width="4.811608267132779"/>
  <path d="M 53.52554876250872, 54.78909960804853 Q 50.705017829750595, 54.79312622966908, 49.18493723702743, 54.81882338452995 " fill="none" id="curve_29" stroke="#000000" stroke-linecap="round" stroke-linejoin="round" stroke-width="2.9871374087340503"/>
  <path d="M 49.18493723702743, 54.81882338452995 Q 44.85423419339833, 62.90818527202187, 35.915425160114026, 81.82798757804495 " fill="none" id="curve_29" stroke="#000000" stroke-linecap="round" stroke-linejoin="round" stroke-width="2.1104354220515273"/>
  <path d="M 35.915425160114026, 81.82798757804495 Q 34.16902531549582, 86.95072994204305, 29.083033582659624, 90.38913547268531 " fill="none" id="curve_29" stroke="#000000" stroke-linecap="round" stroke-linejoin="round" stroke-width="3.900592353550567"/>
  <path d="M 21.429827082461347, 107.96482659497697 Q 22.837366599742577, 104.63807983686796, 25.663965512380884, 99.13052577045329 " fill="none" id="curve_32" stroke="#000000" stroke-linecap="round" stroke-linejoin="round" stroke-width="2.5452169276521435"/>
  <path d="M 32.67371823399759, 87.12763231527435 Q 33.922497185574706, 82.39393179830824, 37.89631200546152, 77.76143647808922 " fill="none" id="curve_34" stroke="#000000" stroke-linecap="round" stroke-linejoin="round" stroke-width="2.632477018949845"/>
  <path d="M 88.93769558328417, 98.57414823499875 Q 89.29560927420164, 98.87899421588011, 89.67240610045536, 99.84532957399512 " fill="none" id="curve_49" stroke="#000000" stroke-linecap="round" stroke-linejoin="round" stroke-width="1.6389619795452752"/>
  <path d="M 89.99331902298529, 137.95034536394982 Q 89.91898517246148, 138.023110243956, 89.75733662327335, 138.09676378163934 " fill="none" id="curve_51" stroke="#000000" stroke-linecap="round" stroke-linejoin="round" stroke-width="1.9781819231298237"/>
  <path d="M 29.486783981323242, 91.7248592376709 Q 30.56194676850372, 87.66680827719081, 37.24755019334725, 85.90510143299525 " fill="none" id="curve_65" stroke="#000000" stroke-linecap="round" stroke-linejoin="round" stroke-width="4.113536522387435"/>
  <path d="M 51.16492176643675, 53.681700520755996 Q 52.259039516502355, 52.2624974054991, 55.22386493477173, 51.11953982419451 " fill="none" id="curve_74" stroke="#000000" stroke-linecap="round" stroke-linejoin="round" stroke-width="3.389261376853217"/>
  <path d="M 23.634170608203796, 54.87980721966115 Q 29.440087929941797, 55.69763577181856, 35.13648070112479, 56.9009581510705 " fill="none" id="curve_104" stroke="#000000" stroke-linecap="round" stroke-linejoin="round" stroke-width="2.763028102687363"/>
  <path d="M 89.53096805750579, 110.51346869783481 Q 89.55114463621283, 110.7449343017361, 89.57389068043085, 111.35360533017837 " fill="none" id="curve_145" stroke="#000000" stroke-linecap="round" stroke-linejoin="round" stroke-width="1.6783518635502588"/>
  <path d="M 31.021603421211807, 87.2248860546934 Q 31.31199499960425, 86.41264309099702, 32.69149203540891, 86.01668635752281 " fill="none" id="curve_148" stroke="#000000" stroke-linecap="round" stroke-linejoin="round" stroke-width="3.622763788748515"/>
  <path d="M 46.18173750435599, 53.80047611792298 Q 48.631027281592054, 52.87396517025649, 53.143667070635296, 51.608986797069605 " fill="none" id="curve_165" stroke="#000000" stroke-linecap="round" stroke-linejoin="round" stroke-width="2.3763762117414027"/>
</svg>
