<?xml version="1.0" ?>
<svg height="140" width="140" xmlns="http://www.w3.org/2000/svg">
  <path d="M 49.54578399658203, 78.99828147888184 Q 49.73330883098035, 77.02205563377613, 50.318773993029254, 74.12494234436485 " fill="none" id="curve_1" stroke="#000000" stroke-linecap="round" stroke-linejoin="round" stroke-width="11.38823023903646"/>
  <path d="M 50.318773993029254, 74.12494234436485 Q 51.58942038882244, 67.20773779555238, 56.82706953826964, 62.84807742062588 " fill="none" id="curve_1" stroke="#000000" stroke-linecap="round" stroke-linejoin="round" stroke-width="8.216636370624192"/>
  <path d="M 56.82706953826964, 62.84807742062588 Q 59.64662021842972, 54.74468091454129, 64.54423070515267, 45.06939322812672 " fill="none" id="curve_1" stroke="#000000" stroke-linecap="round" stroke-linejoin="round" stroke-width="10.12342972701707"/>
  <path d="M 64.54423070515267, 45.06939322812672 Q 64.39112717627317, 41.77892729654008, 64.1164182556388, 38.498339947064736 " fill="none" id="curve_1" stroke="#000000" stroke-linecap="round" stroke-linejoin="round" stroke-width="9.214461850699895"/>
  <path d="M 64.1164182556388, 38.498339947064736 Q 61.37218180921962, 43.110435432822705, 40.060062375677404, 43.92917746367761 " fill="none" id="curve_1" stroke="#000000" stroke-linecap="round" stroke-linejoin="round" stroke-width="7.073698856366874"/>
  <path d="M 40.060062375677404, 43.92917746367761 Q 27.052771174736876, 41.312902460968616, 18.691251985972585, 33.29332982469333 " fill="none" id="curve_1" stroke="#000000" stroke-linecap="round" stroke-linejoin="round" stroke-width="7.395552432148061"/>
  <path d="M 16.068984628359992, 70.97741845173321 Q 19.373543696560017, 78.05324292573823, 47.48492549079802, 79.75151855573763 " fill="none" id="curve_2" stroke="#000000" stroke-linecap="round" stroke-linejoin="round" stroke-width="8.895127872450889"/>
  <path d="M 47.48492549079802, 79.75151855573763 Q 42.981918209974666, 90.89058345878297, 29.396417150744096, 119.88930519867822 " fill="none" id="curve_2" stroke="#000000" stroke-linecap="round" stroke-linejoin="round" stroke-width="6.196669745101965"/>
  <path d="M 29.396417150744096, 119.88930519867822 Q 29.42191563993988, 125.29792395045337, 29.64361652661785, 126.32047252331141 " fill="none" id="curve_2" stroke="#000000" stroke-linecap="round" stroke-linejoin="round" stroke-width="5.71748237306877"/>
  <path d="M 50.46175743936577, 81.59140675993356 Q 52.834359738352646, 80.93861315518956, 67.96762744958828, 80.7585692853848 " fill="none" id="curve_3" stroke="#000000" stroke-linecap="round" stroke-linejoin="round" stroke-width="6.1544125897301205"/>
  <path d="M 39.80316247909107, 80.74676766567154 Q 22.419566346680156, 79.67369988961754, 14.532045820385523, 74.84447567891247 " fill="none" id="curve_4" stroke="#000000" stroke-linecap="round" stroke-linejoin="round" stroke-width="5.233415533284063"/>
  <path d="M 16.222769316344394, 36.713105911849695 Q 16.334934115898097, 33.74678827097403, 17.1652056019974, 32.788541333654365 " fill="none" id="curve_6" stroke="#000000" stroke-linecap="round" stroke-linejoin="round" stroke-width="5.314192012359971"/>
  <path d="M 18.699580977256247, 70.34454262899435 Q 26.20243442599474, 74.57693150233477, 40.63276765474525, 77.72576230290757 " fill="none" id="curve_7" stroke="#000000" stroke-linecap="round" stroke-linejoin="round" stroke-width="2.913808632277244"/>
  <path d="M 40.63276765474525, 77.72576230290757 Q 45.699946148090895, 78.55214048613394, 60.02700989138468, 79.2322865034032 " fill="none" id="curve_7" stroke="#000000" stroke-linecap="round" stroke-linejoin="round" stroke-width="2.982864442418181"/>
  <path d="M 37.74243302821682, 95.07316524180487 Q 33.919366565241326, 103.38555674523948, 29.498441780660393, 115.53039666015013 " fill="none" id="curve_8" stroke="#000000" stroke-linecap="round" stroke-linejoin="round" stroke-width="3.3902819749092656"/>
  <path d="M 28.00388084580834, 126.34327208657004 Q 28.125833974085914, 126.0608990038032, 28.308973197711254, 125.75242992404083 " fill="none" id="curve_9" stroke="#000000" stroke-linecap="round" stroke-linejoin="round" stroke-width="3.971295778403447"/>
  <path d="M 60.759184318879534, 78.80214540443039 Q 64.68085153963507, 79.0143754284307, 66.9264509877148, 79.72871093525201 " fill="none" id="curve_11" stroke="#000000" stroke-linecap="round" stroke-linejoin="round" stroke-width="3.281725918516941"/>
  <path d="M 56.78749495440246, 40.99772544028159 Q 59.16011813675608, 37.6344472224439, 64.0469312051515, 34.96736106183962 " fill="none" id="curve_12" stroke="#000000" stroke-linecap="round" stroke-linejoin="round" stroke-width="3.8186773664605305"/>
  <path d="M 20.57484671192817, 30.86433146135898 Q 19.308143749078504, 30.801892841982557, 17.56246838472805, 30.72358143668413 " fill="none" id="curve_14" stroke="#000000" stroke-linecap="round" stroke-linejoin="round" stroke-width="4.514945423117002"/>
  <path d="M 17.56246838472805, 30.72358143668413 Q 21.497766960236007, 41.08325358284138, 50.5640428906271, 43.228480670241694 " fill="none" id="curve_14" stroke="#000000" stroke-linecap="round" stroke-linejoin="round" stroke-width="4.20803304528559"/>
  <path d="M 50.5640428906271, 43.228480670241694 Q 39.05779691592559, 41.98689164621968, 26.686450890062368, 38.12783618733384 " fill="none" id="curve_14" stroke="#000000" stroke-linecap="round" stroke-linejoin="round" stroke-width="3.7394172375654278"/>
  <path d="M 30.284518076917266, 42.056000207367106 Q 30.083582999922058, 35.77266802241946, 17.984562106655382, 35.177992210406344 " fill="none" id="curve_29" stroke="#000000" stroke-linecap="round" stroke-linejoin="round" stroke-width="2.8358398740305772"/>
  <path d="M 17.984562106655382, 35.177992210406344 Q 27.539739316907728, 36.51295166809908, 35.347523622754025, 41.370138880883886 " fill="none" id="curve_29" stroke="#000000" stroke-linecap="round" stroke-linejoin="round" stroke-width="2.781815815949403"/>
  <path d="M 17.356709830880373, 33.48785752606157 Q 21.789646684424216, 36.69823443293179, 31.56616926675094, 40.782315452582914 " fill="none" id="curve_32" stroke="#000000" stroke-linecap="round" stroke-linejoin="round" stroke-width="3.477200035963259"/>
  <path d="M 31.56616926675094, 40.782315452582914 Q 28.759557936087884, 37.51932936656441, 15.521310252622222, 34.62569605645551 " fill="none" id="curve_32" stroke="#000000" stroke-linecap="round" stroke-linejoin="round" stroke-width="3.3189631502902133"/>
  <path d="M 15.521310252622222, 34.62569605645551 Q 21.7385264838859, 37.51898553628608, 35.18510817976299, 41.18061031742154 " fill="none" id="curve_32" stroke="#000000" stroke-linecap="round" stroke-linejoin="round" stroke-width="3.7135991031380735"/>
  <path d="M 43.38797078991226, 45.39928423531734 Q 48.706604328643664, 42.204040045051045, 61.292127405802624, 38.72956451974927 " fill="none" id="curve_33" stroke="#000000" stroke-linecap="round" stroke-linejoin="round" stroke-width="3.5611807977550085"/>
  <path d="M 29.155978093220334, 39.34011524079169 Q 27.875412670809418, 37.884982368892004, 23.53819419542638, 36.52872950482763 " fill="none" id="curve_34" stroke="#000000" stroke-linecap="round" stroke-linejoin="round" stroke-width="4.364782277211696"/>
  <path d="M 15.404129304377335, 35.85312764132006 Q 16.473488135582222, 37.92096365524261, 24.604082944091076, 38.47720546766187 " fill="none" id="curve_50" stroke="#000000" stroke-linecap="round" stroke-linejoin="round" stroke-width="3.5040140514026494"/>
  <path d="M 48.648925884295295, 46.268883173249606 Q 47.25499280116537, 46.16544469944862, 44.59889844831681, 45.914102110392534 " fill="none" id="curve_78" stroke="#000000" stroke-linecap="round" stroke-linejoin="round" stroke-width="2.215200565580022"/>
  <path d="M 22.574763858286357, 79.16865156174813 Q 24.268299200504117, 79.30400270817955, 26.424800737617694, 79.6989404220861 " fill="none" id="curve_79" stroke="#000000" stroke-linecap="round" stroke-linejoin="round" stroke-width="2.8234206946503533"/>
  <path d="M 22.121435469421293, 32.366869153576616 Q 25.853726004730664, 36.143249258948345, 32.82865634754857, 40.808499957474226 " fill="none" id="curve_95" stroke="#000000" stroke-linecap="round" stroke-linejoin="round" stroke-width="2.349913433572686"/>
  <path d="M 43.465574019421744, 43.04039916543591 Q 44.3448074718903, 41.53807058818904, 56.141542552679375, 41.0903107326675 " fill="none" id="curve_98" stroke="#000000" stroke-linecap="round" stroke-linejoin="round" stroke-width="2.798409911256647"/>
  <path d="M 42.33439396996108, 41.724242242476684 Q 50.77278167456073, 40.85582178558347, 61.2066033943465, 38.96864082736441 " fill="none" id="curve_103" stroke="#000000" stroke-linecap="round" stroke-linejoin="round" stroke-width="2.5150452055801846"/>
  <path d="M 35.00997744170381, 100.67569588818785 Q 39.433436108480464, 92.97550761983693, 46.713322439419386, 81.8118219945414 " fill="none" id="curve_120" stroke="#000000" stroke-linecap="round" stroke-linejoin="round" stroke-width="2.843627251946153"/>
  <path d="M 54.9376026506302, 69.62978844681777 Q 56.167397469136894, 69.3861637035367, 56.949538146104544, 68.50598333316036 " fill="none" id="curve_148" stroke="#000000" stroke-linecap="round" stroke-linejoin="round" stroke-width="3.367136500983128"/>
  <path d="M 20.370094035907872, 35.0587403854373 Q 23.504594681714487, 35.55362648436427, 28.649553311005548, 36.70627878977009 " fill="none" id="curve_155" stroke="#000000" stroke-linecap="round" stroke-linejoin="round" stroke-width="3.157358612910632"/>
</svg>
