<?xml version="1.0" ?>
<svg height="140" width="140" xmlns="http://www.w3.org/2000/svg">
  <path d="M 43.193450927734375, 34.01456928253174 Q 41.65540052475923, 32.250689257741946, 37.95447609110062, 30.751898006988 " fill="none" id="curve_1" stroke="#000000" stroke-linecap="round" stroke-linejoin="round" stroke-width="4.862834288643166"/>
  <path d="M 37.95447609110062, 30.751898006988 Q 42.67084370084497, 34.673580045076704, 44.56423546292613, 51.83752208604997 " fill="none" id="curve_1" stroke="#000000" stroke-linecap="round" stroke-linejoin="round" stroke-width="8.39554578542563"/>
  <path d="M 44.56423546292613, 51.83752208604997 Q 45.09078682880987, 66.67550506490815, 46.92128387298131, 86.39543662868066 " fill="none" id="curve_1" stroke="#000000" stroke-linecap="round" stroke-linejoin="round" stroke-width="7.226088170774262"/>
  <path d="M 46.92128387298131, 86.39543662868066 Q 47.54303910319478, 90.48397443375383, 49.05075911804328, 93.05362894377554 " fill="none" id="curve_1" stroke="#000000" stroke-linecap="round" stroke-linejoin="round" stroke-width="6.05446717772044"/>
  <path d="M 42.38382291793823, 33.40565013885498 Q 44.8521986949345, 35.20984705995174, 45.59113772863116, 43.986839283107656 " fill="none" id="curve_15" stroke="#000000" stroke-linecap="round" stroke-linejoin="round" stroke-width="2.6453227515636937"/>
  <path d="M 46.05863027750645, 92.50865165857647 Q 45.99499837095343, 88.04549843456998, 45.7980143647902, 84.60184665385765 " fill="none" id="curve_18" stroke="#000000" stroke-linecap="round" stroke-linejoin="round" stroke-width="3.838077644261181"/>
  <path d="M 47.09481093331183, 77.87632610535123 Q 47.35130341890457, 79.3862876066904, 47.76869155854293, 81.48311722522863 " fill="none" id="curve_25" stroke="#000000" stroke-linecap="round" stroke-linejoin="round" stroke-width="5.43038747332476"/>
  <path d="M 46.69880221063766, 83.51635318824599 Q 47.171957274209774, 82.54243315158743, 47.86050907279616, 80.52698007353129 " fill="none" id="curve_29" stroke="#000000" stroke-linecap="round" stroke-linejoin="round" stroke-width="4.2957497805798734"/>
  <path d="M 45.72072288356354, 84.29070677728689 Q 45.76564638550615, 84.21067663055906, 45.828652114216666, 84.0184394222212 " fill="none" id="curve_39" stroke="#000000" stroke-linecap="round" stroke-linejoin="round" stroke-width="4.364456046271328"/>
  <path d="M 48.40299886585518, 81.91927413671694 Q 48.51615718846195, 80.23791185465144, 48.69685367627041, 77.50284852957213 " fill="none" id="curve_42" stroke="#000000" stroke-linecap="round" stroke-linejoin="round" stroke-width="4.692442022073562"/>
  <path d="M 44.764415748046595, 43.14515227362398 Q 44.66341358002949, 43.264939033604776, 44.52242462887323, 43.50354472270015 " fill="none" id="curve_83" stroke="#000000" stroke-linecap="round" stroke-linejoin="round" stroke-width="3.2304312809537037"/>
  <path d="M 43.59279401166571, 84.15876389215438 Q 44.28004742702323, 84.80231572090851, 45.298379655910466, 85.93774674018286 " fill="none" id="curve_89" stroke="#000000" stroke-linecap="round" stroke-linejoin="round" stroke-width="3.328742422853894"/>
  <path d="M 39.61748682000049, 32.10185224883995 Q 39.66376845077053, 31.27897515423619, 39.85204446067054, 30.620942540415008 " fill="none" id="curve_96" stroke="#000000" stroke-linecap="round" stroke-linejoin="round" stroke-width="2.657536868071103"/>
</svg>
