<?xml version="1.0" ?>
<svg height="140" width="140" xmlns="http://www.w3.org/2000/svg">
  <path d="M 82.96734619140625, 32.74394607543945 Q 80.20092399049916, 40.9502035907466, 74.12592096159744, 51.00249444249971 " fill="none" id="curve_1" stroke="#000000" stroke-linecap="round" stroke-linejoin="round" stroke-width="9.446860008405777"/>
  <path d="M 74.12592096159744, 51.00249444249971 Q 68.37910066878666, 59.73254076114479, 47.2242398261597, 85.92581043121325 " fill="none" id="curve_1" stroke="#000000" stroke-linecap="round" stroke-linejoin="round" stroke-width="4.563669584127226"/>
  <path d="M 47.2242398261597, 85.92581043121325 Q 43.38987931984386, 90.47973058478917, 38.48601845494126, 95.41486876288602 " fill="none" id="curve_1" stroke="#000000" stroke-linecap="round" stroke-linejoin="round" stroke-width="4.296697071584002"/>
  <path d="M 61.80183360773023, 104.44066669931428 Q 65.27856064649627, 96.05468489109876, 71.914662424661, 69.32866349378995 " fill="none" id="curve_2" stroke="#000000" stroke-linecap="round" stroke-linejoin="round" stroke-width="6.757803708821461"/>
  <path d="M 71.914662424661, 69.32866349378995 Q 75.08491722256383, 59.73757452080452, 80.77122178401008, 45.41882072553959 " fill="none" id="curve_2" stroke="#000000" stroke-linecap="round" stroke-linejoin="round" stroke-width="3.6685649231168185"/>
  <path d="M 80.77122178401008, 45.41882072553959 Q 80.5631385717888, 39.55422072751524, 79.97104790835287, 36.42912184563278 " fill="none" id="curve_2" stroke="#000000" stroke-linecap="round" stroke-linejoin="round" stroke-width="6.277407819767306"/>
  <path d="M 62.98453668834299, 106.0539820922485 Q 62.87934496916151, 103.47062107431854, 62.64146187306411, 101.78987062933754 " fill="none" id="curve_4" stroke="#000000" stroke-linecap="round" stroke-linejoin="round" stroke-width="6.917169343097912"/>
  <path d="M 60.9578751110086, 67.64370894734385 Q 54.2389919544552, 76.7773484786732, 39.8868468480925, 92.08650848400816 " fill="none" id="curve_6" stroke="#000000" stroke-linecap="round" stroke-linejoin="round" stroke-width="2.542483588427664"/>
  <path d="M 64.19089814168821, 103.60649293062183 Q 64.3165343356016, 96.8680931825687, 64.53500989301634, 86.52471496274873 " fill="none" id="curve_7" stroke="#000000" stroke-linecap="round" stroke-linejoin="round" stroke-width="2.9417086911600245"/>
  <path d="M 75.3118910738598, 48.60867537140079 Q 75.50199465631734, 40.44037403636362, 81.28616740376891, 39.642549845510935 " fill="none" id="curve_8" stroke="#000000" stroke-linecap="round" stroke-linejoin="round" stroke-width="3.6703048849407565"/>
  <path d="M 36.124755239954794, 99.0315609623472 Q 35.72706857963763, 97.99829161582518, 34.852151130500694, 97.04872778764707 " fill="none" id="curve_10" stroke="#000000" stroke-linecap="round" stroke-linejoin="round" stroke-width="2.6448587167521755"/>
  <path d="M 63.86901200244189, 104.48187057068009 Q 63.22558833137691, 101.97751061992513, 61.93916722443549, 100.05587925559946 " fill="none" id="curve_11" stroke="#000000" stroke-linecap="round" stroke-linejoin="round" stroke-width="6.70355335953094"/>
  <path d="M 54.28744479104885, 75.23401406090407 Q 57.69708652538638, 70.31590208578959, 63.94715403868078, 63.34658146257358 " fill="none" id="curve_12" stroke="#000000" stroke-linecap="round" stroke-linejoin="round" stroke-width="2.7160775269490856"/>
  <path d="M 63.94715403868078, 63.34658146257358 Q 58.2546425022216, 70.21107507508329, 51.743581239756026, 80.1764350576648 " fill="none" id="curve_12" stroke="#000000" stroke-linecap="round" stroke-linejoin="round" stroke-width="3.7252690034545637"/>
  <path d="M 62.36266130666965, 63.390355913529135 Q 58.442063386150856, 71.62059203568779, 52.44160338953745, 81.00883130949481 " fill="none" id="curve_13" stroke="#000000" stroke-linecap="round" stroke-linejoin="round" stroke-width="3.8389441397694872"/>
  <path d="M 61.94038939493706, 65.84798196749017 Q 57.30793696933854, 71.53796413450598, 51.79287307926039, 79.00497186754379 " fill="none" id="curve_14" stroke="#000000" stroke-linecap="round" stroke-linejoin="round" stroke-width="3.895694383082795"/>
  <path d="M 81.62175405288164, 37.51187373265578 Q 78.06094974289428, 40.36806584071317, 74.85097747989164, 46.37949055558384 " fill="none" id="curve_18" stroke="#000000" stroke-linecap="round" stroke-linejoin="round" stroke-width="4.510484275698612"/>
  <path d="M 53.206671406493136, 77.93788106038238 Q 56.578398579965636, 74.20762119226353, 60.533636766394046, 66.88009992999261 " fill="none" id="curve_26" stroke="#000000" stroke-linecap="round" stroke-linejoin="round" stroke-width="2.462954566765309"/>
  <path d="M 60.533636766394046, 66.88009992999261 Q 57.95698055007887, 72.94817667696756, 52.65202239744884, 78.32910109603881 " fill="none" id="curve_26" stroke="#000000" stroke-linecap="round" stroke-linejoin="round" stroke-width="3.6339225071728998"/>
  <path d="M 52.248921310318764, 78.26676965194973 Q 56.387363390431375, 75.15313608784263, 60.29964621103645, 67.34831587530046 " fill="none" id="curve_28" stroke="#000000" stroke-linecap="round" stroke-linejoin="round" stroke-width="2.459605984535808"/>
  <path d="M 53.36727655473392, 76.17435979164921 Q 53.4183607062024, 73.69110262478893, 56.99314250314807, 73.49935026349554 " fill="none" id="curve_29" stroke="#000000" stroke-linecap="round" stroke-linejoin="round" stroke-width="3.3380902560084604"/>
  <path d="M 56.99314250314807, 73.49935026349554 Q 53.5830680254849, 74.04737268195936, 51.8202222898279, 76.7918363655572 " fill="none" id="curve_29" stroke="#000000" stroke-linecap="round" stroke-linejoin="round" stroke-width="3.5001817687528423"/>
  <path d="M 64.60131584217584, 84.95350865768526 Q 67.47066402467918, 80.53863142319649, 71.1613408501669, 72.8572447774188 " fill="none" id="curve_57" stroke="#000000" stroke-linecap="round" stroke-linejoin="round" stroke-width="2.933163238966449"/>
  <path d="M 77.81389316551088, 43.45586088569643 Q 78.37424625693852, 39.3901875863054, 81.28805964713617, 38.07688423986575 " fill="none" id="curve_58" stroke="#000000" stroke-linecap="round" stroke-linejoin="round" stroke-width="4.619656184726611"/>
  <path d="M 53.97273219515338, 80.56557235365517 Q 57.90789170769121, 73.86728101720284, 63.19277386154218, 61.432036380450356 " fill="none" id="curve_82" stroke="#000000" stroke-linecap="round" stroke-linejoin="round" stroke-width="2.398159978617058"/>
  <path d="M 79.46460463138499, 40.8600358730212 Q 79.64313323075335, 40.37474294900733, 79.77646784298965, 39.24779239852267 " fill="none" id="curve_83" stroke="#000000" stroke-linecap="round" stroke-linejoin="round" stroke-width="6.916637615853345"/>
  <path d="M 61.945189061679116, 103.20087978681147 Q 62.58267899304444, 97.87134892671475, 64.5654812597078, 94.81939610875561 " fill="none" id="curve_111" stroke="#000000" stroke-linecap="round" stroke-linejoin="round" stroke-width="4.221514449917713"/>
  <path d="M 81.93902205236998, 39.708350253048366 Q 79.94638064713006, 40.67741152810704, 75.94357719029148, 41.98255092833546 " fill="none" id="curve_126" stroke="#000000" stroke-linecap="round" stroke-linejoin="round" stroke-width="3.837800106531939"/>
  <path d="M 63.557919594529125, 103.84543788720975 Q 63.86308186552768, 102.88817758163415, 64.22199624787994, 101.13538878369911 " fill="none" id="curve_141" stroke="#000000" stroke-linecap="round" stroke-linejoin="round" stroke-width="4.701747626704492"/>
</svg>
