<?xml version="1.0" ?>
<svg height="140" width="140" xmlns="http://www.w3.org/2000/svg">
  <path d="M 68.67787265777588, 58.09588050842285 Q 68.44932173390721, 58.358669462887, 63.88827062918534, 58.41173116247043 " fill="none" id="curve_1" stroke="#000000" stroke-linecap="round" stroke-linejoin="round" stroke-width="7.796367779110507"/>
  <path d="M 63.88827062918534, 58.41173116247043 Q 55.321000950833984, 60.3003793096869, 43.78002813124464, 67.88306799190914 " fill="none" id="curve_1" stroke="#000000" stroke-linecap="round" stroke-linejoin="round" stroke-width="5.308700227335239"/>
  <path d="M 43.78002813124464, 67.88306799190914 Q 36.1206791940364, 70.37801199756709, 32.555021484695246, 77.25543612513155 " fill="none" id="curve_1" stroke="#000000" stroke-linecap="round" stroke-linejoin="round" stroke-width="4.5599285270881955"/>
  <path d="M 50.301549077412254, 99.68851024738694 Q 54.97537503896388, 89.66931224702498, 68.69168171598957, 67.70849549177878 " fill="none" id="curve_2" stroke="#000000" stroke-linecap="round" stroke-linejoin="round" stroke-width="5.347361776617777"/>
  <path d="M 68.69168171598957, 67.70849549177878 Q 70.21044232175836, 66.81163811884889, 70.49327343977657, 59.345977913196094 " fill="none" id="curve_2" stroke="#000000" stroke-linecap="round" stroke-linejoin="round" stroke-width="5.9492910298484185"/>
  <path d="M 33.83956736052851, 78.44204999004941 Q 34.478742034850974, 78.93246203393483, 35.061315618702935, 79.88067485301342 " fill="none" id="curve_4" stroke="#000000" stroke-linecap="round" stroke-linejoin="round" stroke-width="4.148936190049002"/>
  <path d="M 70.58951589350015, 58.63843763344028 Q 67.46311270967017, 70.85525279416201, 53.78685227983679, 90.5974485338376 " fill="none" id="curve_6" stroke="#000000" stroke-linecap="round" stroke-linejoin="round" stroke-width="2.6784553112524936"/>
  <path d="M 53.78685227983679, 90.5974485338376 Q 60.68495883937729, 84.44129317281484, 67.97607134457259, 68.10791027683538 " fill="none" id="curve_6" stroke="#000000" stroke-linecap="round" stroke-linejoin="round" stroke-width="4.015406862369041"/>
  <path d="M 70.29009176831148, 56.98917317401652 Q 69.558647549009, 56.89150970000674, 67.5683070824256, 56.827176355107206 " fill="none" id="curve_7" stroke="#000000" stroke-linecap="round" stroke-linejoin="round" stroke-width="3.315778012558362"/>
  <path d="M 65.78050077394896, 73.48279499957039 Q 66.21540361715068, 66.58619735692217, 69.56147113316105, 65.00884212444949 " fill="none" id="curve_8" stroke="#000000" stroke-linecap="round" stroke-linejoin="round" stroke-width="3.301248587728148"/>
  <path d="M 69.56147113316105, 65.00884212444949 Q 64.05530286762261, 74.44166891249992, 54.02581736893488, 89.59948666450168 " fill="none" id="curve_8" stroke="#000000" stroke-linecap="round" stroke-linejoin="round" stroke-width="2.5490427072176054"/>
  <path d="M 67.15604361380421, 69.28519416945598 Q 66.07347001248814, 69.95728312628144, 65.30607564293406, 72.45173623556089 " fill="none" id="curve_9" stroke="#000000" stroke-linecap="round" stroke-linejoin="round" stroke-width="3.5760356571732514"/>
  <path d="M 65.30607564293406, 72.45173623556089 Q 67.28395263688614, 69.66939137094867, 69.6244626499256, 62.692117893481274 " fill="none" id="curve_9" stroke="#000000" stroke-linecap="round" stroke-linejoin="round" stroke-width="2.5468849488108587"/>
  <path d="M 43.36422300203185, 65.66508564414858 Q 42.81998927712649, 66.30316537422239, 42.31841393928603, 67.81670458516798 " fill="none" id="curve_24" stroke="#000000" stroke-linecap="round" stroke-linejoin="round" stroke-width="3.986767429678009"/>
  <path d="M 63.82235990295658, 70.90008903019032 Q 66.00135139234563, 69.65976176521727, 68.02464033947773, 66.15058036096025 " fill="none" id="curve_39" stroke="#000000" stroke-linecap="round" stroke-linejoin="round" stroke-width="3.3389750304522123"/>
  <path d="M 60.382698858303456, 77.71351848582124 Q 66.1534231757825, 75.66012387384181, 70.33974882870986, 68.76403201879292 " fill="none" id="curve_68" stroke="#000000" stroke-linecap="round" stroke-linejoin="round" stroke-width="2.2011906606824008"/>
  <path d="M 33.57016121290266, 74.51239238331331 Q 33.586411567377425, 74.00637801963913, 33.60404915435303, 73.01028311168544 " fill="none" id="curve_70" stroke="#000000" stroke-linecap="round" stroke-linejoin="round" stroke-width="3.784139489280147"/>
  <path d="M 52.20018900835794, 90.97447981154559 Q 52.266126792643675, 92.76827840998713, 52.373297952757696, 95.40225248515128 " fill="none" id="curve_111" stroke="#000000" stroke-linecap="round" stroke-linejoin="round" stroke-width="2.298964489574682"/>
  <path d="M 41.640535071430335, 71.61376352678957 Q 41.706267687812755, 70.48792481717902, 41.865952856599264, 69.56580023007281 " fill="none" id="curve_140" stroke="#000000" stroke-linecap="round" stroke-linejoin="round" stroke-width="3.0605402580549437"/>
  <path d="M 32.5630630402367, 76.27526584068603 Q 32.85449510899158, 75.77907950119842, 33.167874593291344, 74.68360613165397 " fill="none" id="curve_141" stroke="#000000" stroke-linecap="round" stroke-linejoin="round" stroke-width="3.4408793889706204"/>
</svg>
