<?xml version="1.0" ?>
<svg height="140" width="140" xmlns="http://www.w3.org/2000/svg">
  <path d="M 47.852304458618164, 96.1090202331543 Q 47.43066899312937, 95.4081278105926, 47.21709869333543, 91.4154822006322 " fill="none" id="curve_1" stroke="#000000" stroke-linecap="round" stroke-linejoin="round" stroke-width="7.285996186889603"/>
  <path d="M 47.21709869333543, 91.4154822006322 Q 48.556541946259145, 82.68320810834962, 53.281461549688416, 71.2468987991695 " fill="none" id="curve_1" stroke="#000000" stroke-linecap="round" stroke-linejoin="round" stroke-width="5.53147638628298"/>
  <path d="M 53.281461549688416, 71.2468987991695 Q 56.736422709634674, 64.1154931666447, 63.949456330597236, 46.187781238436074 " fill="none" id="curve_1" stroke="#000000" stroke-linecap="round" stroke-linejoin="round" stroke-width="5.646400503905889"/>
  <path d="M 63.949456330597236, 46.187781238436074 Q 66.41498362084461, 40.086332020492556, 68.68214614390081, 27.203151673980543 " fill="none" id="curve_1" stroke="#000000" stroke-linecap="round" stroke-linejoin="round" stroke-width="4.590608198954195"/>
  <path d="M 68.68214614390081, 27.203151673980543 Q 61.898173005099295, 33.17211026008183, 41.01941368108137, 53.86704236224153 " fill="none" id="curve_1" stroke="#000000" stroke-linecap="round" stroke-linejoin="round" stroke-width="5.0850574484839175"/>
  <path d="M 41.01941368108137, 53.86704236224153 Q 34.928495564478865, 63.415895230464415, 21.761449877155744, 74.53030543486925 " fill="none" id="curve_1" stroke="#000000" stroke-linecap="round" stroke-linejoin="round" stroke-width="5.115313005199189"/>
  <path d="M 49.71110964620605, 98.85402919219251 Q 49.534576693003594, 98.21262498257829, 49.32968330470729, 97.16427851252499 " fill="none" id="curve_2" stroke="#000000" stroke-linecap="round" stroke-linejoin="round" stroke-width="5.229599348250996"/>
  <path d="M 18.30135784723056, 74.56914291162309 Q 19.18078658472136, 74.41707148416842, 19.783023506377223, 73.94051149333868 " fill="none" id="curve_3" stroke="#000000" stroke-linecap="round" stroke-linejoin="round" stroke-width="4.726177973911377"/>
  <path d="M 46.115443478210004, 47.832424626743645 Q 40.339930925207824, 53.001516420168514, 33.59586613192141, 62.17696541364285 " fill="none" id="curve_4" stroke="#000000" stroke-linecap="round" stroke-linejoin="round" stroke-width="3.0986413670767234"/>
  <path d="M 65.15999768196171, 28.361329389812283 Q 60.0535078527407, 33.88200470139713, 49.086174319691466, 44.86091644719409 " fill="none" id="curve_5" stroke="#000000" stroke-linecap="round" stroke-linejoin="round" stroke-width="3.380657922482938"/>
  <path d="M 18.518093966003974, 73.68470536058106 Q 18.467716503635003, 73.39813870648128, 18.42218325582174, 72.91542156102575 " fill="none" id="curve_7" stroke="#000000" stroke-linecap="round" stroke-linejoin="round" stroke-width="4.866519171388399"/>
  <path d="M 69.28098769903852, 27.76559097582965 Q 68.98994945717853, 26.93488364370549, 68.3251511011524, 26.309526722018084 " fill="none" id="curve_9" stroke="#000000" stroke-linecap="round" stroke-linejoin="round" stroke-width="4.063933344957831"/>
  <path d="M 49.6267575068531, 45.16961668460721 Q 45.67758972115338, 48.26692525757675, 40.22617468683807, 52.92027498554174 " fill="none" id="curve_10" stroke="#000000" stroke-linecap="round" stroke-linejoin="round" stroke-width="3.6686092420976277"/>
  <path d="M 40.22617468683807, 52.92027498554174 Q 50.61379865203416, 46.096266884106214, 62.900695025209856, 33.18543968572078 " fill="none" id="curve_10" stroke="#000000" stroke-linecap="round" stroke-linejoin="round" stroke-width="2.9406467148474404"/>
  <path d="M 70.53678973477417, 27.572435651207194 Q 69.98093500388734, 29.385611218309442, 68.31625084366311, 31.143760942908724 " fill="none" id="curve_25" stroke="#000000" stroke-linecap="round" stroke-linejoin="round" stroke-width="2.4208656853989643"/>
  <path d="M 56.01545830944215, 63.322442838417075 Q 52.629281229232674, 65.98913146963507, 50.835212701484984, 75.76473489336153 " fill="none" id="curve_26" stroke="#000000" stroke-linecap="round" stroke-linejoin="round" stroke-width="2.6326807870745244"/>
  <path d="M 45.3160982921285, 48.67839785949384 Q 48.7387221952278, 46.19040672100913, 53.208695886302046, 39.595083062091845 " fill="none" id="curve_27" stroke="#000000" stroke-linecap="round" stroke-linejoin="round" stroke-width="2.6642791782074395"/>
  <path d="M 42.13356780438345, 53.36877425009902 Q 45.74794596640632, 48.53439062261276, 52.28770765169102, 43.63151683123487 " fill="none" id="curve_28" stroke="#000000" stroke-linecap="round" stroke-linejoin="round" stroke-width="2.8407462873280713"/>
  <path d="M 44.151835726957806, 51.507498842018435 Q 45.7603212020224, 48.25216628525615, 49.19727696347865, 45.91208686480017 " fill="none" id="curve_29" stroke="#000000" stroke-linecap="round" stroke-linejoin="round" stroke-width="3.6529558739148107"/>
  <path d="M 47.39262153646564, 98.49892214482719 Q 47.33860986205334, 97.4394903647137, 47.14576698728876, 96.9141055299039 " fill="none" id="curve_44" stroke="#000000" stroke-linecap="round" stroke-linejoin="round" stroke-width="3.05457017405257"/>
  <path d="M 55.5875860573017, 63.85303880487144 Q 55.290305525891505, 63.506744979742194, 54.89105964867799, 62.76925854579641 " fill="none" id="curve_61" stroke="#000000" stroke-linecap="round" stroke-linejoin="round" stroke-width="3.373356971440006"/>
  <path d="M 46.080929763189275, 47.767084007972116 Q 45.6931254356564, 47.312247747018056, 45.0559511931273, 46.743371489588526 " fill="none" id="curve_78" stroke="#000000" stroke-linecap="round" stroke-linejoin="round" stroke-width="3.2716730982965427"/>
</svg>
