<?xml version="1.0" ?>
<svg height="140" width="140" xmlns="http://www.w3.org/2000/svg">
  <path d="M 50.74905776977539, 92.70408821105957 Q 50.74792362453466, 96.80301037397862, 50.74408573945736, 99.17717939773848 " fill="none" id="curve_1" stroke="#000000" stroke-linecap="round" stroke-linejoin="round" stroke-width="3.6470597228653774"/>
  <path d="M 51.05489729119157, 90.50707640549862 Q 52.31229700452703, 82.72817356673794, 56.531764027609725, 72.41123834626617 " fill="none" id="curve_2" stroke="#000000" stroke-linecap="round" stroke-linejoin="round" stroke-width="5.5824549753576855"/>
  <path d="M 56.531764027609725, 72.41123834626617 Q 58.96676082602739, 64.165200950504, 64.9121673040288, 51.33870552338441 " fill="none" id="curve_2" stroke="#000000" stroke-linecap="round" stroke-linejoin="round" stroke-width="4.860274496788526"/>
  <path d="M 64.9121673040288, 51.33870552338441 Q 66.52034069092612, 37.231711584533876, 73.37442339174672, 28.332137887030846 " fill="none" id="curve_2" stroke="#000000" stroke-linecap="round" stroke-linejoin="round" stroke-width="5.765959760861098"/>
  <path d="M 73.37442339174672, 28.332137887030846 Q 66.49014403963632, 36.845376486111974, 46.84508832008909, 55.79128066456053 " fill="none" id="curve_2" stroke="#000000" stroke-linecap="round" stroke-linejoin="round" stroke-width="4.496749200754122"/>
  <path d="M 46.84508832008909, 55.79128066456053 Q 39.108424616468334, 64.00817256694735, 12.045775869610772, 82.60128705800855 " fill="none" id="curve_2" stroke="#000000" stroke-linecap="round" stroke-linejoin="round" stroke-width="4.872169642308363"/>
  <path d="M 12.045775869610772, 82.60128705800855 Q 10.964098875860355, 82.81389233095717, 9.706633489388896, 83.09617482134784 " fill="none" id="curve_2" stroke="#000000" stroke-linecap="round" stroke-linejoin="round" stroke-width="3.6204886142504322"/>
  <path d="M 70.40831661224365, 25.733844757080078 Q 69.5281431746177, 33.28376752489876, 62.35590598556553, 37.33660723937703 " fill="none" id="curve_16" stroke="#000000" stroke-linecap="round" stroke-linejoin="round" stroke-width="3.3139685347071257"/>
  <path d="M 62.287160412349344, 53.9850066277169 Q 62.87896764210384, 46.19706030899988, 67.89898615617672, 42.63334178112805 " fill="none" id="curve_17" stroke="#000000" stroke-linecap="round" stroke-linejoin="round" stroke-width="3.1820639701929725"/>
  <path d="M 67.89898615617672, 42.63334178112805 Q 70.03032303358243, 39.369472818363924, 71.6764439679664, 32.445275626260795 " fill="none" id="curve_17" stroke="#000000" stroke-linecap="round" stroke-linejoin="round" stroke-width="2.5316022190419303"/>
  <path d="M 56.8698964963816, 66.82860959292034 Q 56.23288349361942, 68.21523443912831, 55.807948682851645, 72.42358894807609 " fill="none" id="curve_20" stroke="#000000" stroke-linecap="round" stroke-linejoin="round" stroke-width="3.0496092437872946"/>
  <path d="M 37.44143334241053, 61.709308046496005 Q 32.58950639403227, 67.48327205402256, 22.897022080506968, 74.05716634713548 " fill="none" id="curve_21" stroke="#000000" stroke-linecap="round" stroke-linejoin="round" stroke-width="3.106651486961869"/>
  <path d="M 60.40272820475087, 41.166369398480136 Q 55.83243785334367, 45.52151944828159, 48.62442493325684, 52.39621837284505 " fill="none" id="curve_24" stroke="#000000" stroke-linecap="round" stroke-linejoin="round" stroke-width="2.4995207101399886"/>
  <path d="M 46.15705680847168, 55.805508613586426 Q 41.188478232093104, 58.92339865943715, 33.39023663898046, 65.29151925003771 " fill="none" id="curve_38" stroke="#000000" stroke-linecap="round" stroke-linejoin="round" stroke-width="2.275790593813896"/>
  <path d="M 58.34749142313891, 62.64405218847661 Q 57.79002936735557, 64.30434984392386, 57.16274155158042, 67.75514785615161 " fill="none" id="curve_56" stroke="#000000" stroke-linecap="round" stroke-linejoin="round" stroke-width="2.7624874718989245"/>
  <path d="M 24.29407637591092, 71.24331250422551 Q 28.39815982787838, 68.82485437600558, 34.57445762750791, 65.40023106582908 " fill="none" id="curve_71" stroke="#000000" stroke-linecap="round" stroke-linejoin="round" stroke-width="2.555552312174756"/>
  <path d="M 49.50069194492562, 92.53740548095308 Q 49.412528523480546, 92.50408331395289, 49.3192726344499, 92.45878358830896 " fill="none" id="curve_86" stroke="#000000" stroke-linecap="round" stroke-linejoin="round" stroke-width="3.519815566103328"/>
  <path d="M 74.01798625565655, 26.658299421361374 Q 74.14547675876297, 26.42677763863603, 74.35337595108484, 26.119176751759248 " fill="none" id="curve_90" stroke="#000000" stroke-linecap="round" stroke-linejoin="round" stroke-width="2.4237708605351242"/>
  <path d="M 21.148916244506836, 78.89413452148438 Q 21.162481990234166, 77.5525580607717, 21.22101718920128, 76.74485655260986 " fill="none" id="curve_117" stroke="#000000" stroke-linecap="round" stroke-linejoin="round" stroke-width="4.76252350540494"/>
</svg>
