<?xml version="1.0" ?>
<svg height="140" width="140" xmlns="http://www.w3.org/2000/svg">
  <path d="M 37.727571189403534, 99.79460525512695 Q 31.596132481057722, 101.24075479793703, 25.38890576289748, 111.63928264049628 " fill="none" id="curve_1" stroke="#000000" stroke-linecap="round" stroke-linejoin="round" stroke-width="2.3325236396021594"/>
  <path d="M 25.38890576289748, 111.63928264049628 Q 29.167263448584524, 107.01641162340482, 34.910552907537934, 99.9999329504819 " fill="none" id="curve_1" stroke="#000000" stroke-linecap="round" stroke-linejoin="round" stroke-width="2.4029651854145877"/>
  <path d="M 34.910552907537934, 99.9999329504819 Q 39.184039144507196, 93.89126225422524, 48.42107539993289, 85.6235268674127 " fill="none" id="curve_1" stroke="#000000" stroke-linecap="round" stroke-linejoin="round" stroke-width="1.5238399504859692"/>
  <path d="M 48.42107539993289, 85.6235268674127 Q 48.74698446909638, 83.29979004486394, 49.92309000452633, 82.47170439153479 " fill="none" id="curve_1" stroke="#000000" stroke-linecap="round" stroke-linejoin="round" stroke-width="2.8766719542533505"/>
  <path d="M 63.5438595630311, 98.64621584981995 Q 64.08024321814678, 86.84799550121254, 68.77874530224273, 73.41906062644347 " fill="none" id="curve_2" stroke="#000000" stroke-linecap="round" stroke-linejoin="round" stroke-width="3.4605632661653796"/>
  <path d="M 68.77874530224273, 73.41906062644347 Q 70.79373189408595, 68.06760981632345, 75.22107705381801, 52.10389870049647 " fill="none" id="curve_2" stroke="#000000" stroke-linecap="round" stroke-linejoin="round" stroke-width="3.687835243959117"/>
  <path d="M 75.22107705381801, 52.10389870049647 Q 76.00516531732988, 51.11888249226143, 76.75278485186168, 49.892206308903724 " fill="none" id="curve_2" stroke="#000000" stroke-linecap="round" stroke-linejoin="round" stroke-width="3.5496873038362082"/>
  <path d="M 63.33718913809735, 104.64500676662499 Q 63.78863059652206, 104.9554582567203, 64.26687585749173, 105.69454633481273 " fill="none" id="curve_6" stroke="#000000" stroke-linecap="round" stroke-linejoin="round" stroke-width="2.4238519192255357"/>
  <path d="M 72.27414751046763, 56.22632191307491 Q 72.5533446729505, 57.098521234420176, 72.77332572610825, 60.09466859323508 " fill="none" id="curve_21" stroke="#000000" stroke-linecap="round" stroke-linejoin="round" stroke-width="2.3998327512101256"/>
  <path d="M 53.28920706889812, 77.9194152937198 Q 53.46217398878913, 78.4326461810134, 53.84288364592315, 79.0730043568309 " fill="none" id="curve_36" stroke="#000000" stroke-linecap="round" stroke-linejoin="round" stroke-width="1.5646959021955538"/>
  <path d="M 76.31540794672947, 54.13876643875528 Q 76.15532380025711, 53.524155520325394, 75.65433488859011, 52.93478068528933 " fill="none" id="curve_77" stroke="#000000" stroke-linecap="round" stroke-linejoin="round" stroke-width="2.6195772672687787"/>
  <path d="M 74.4770489929142, 60.08168848281002 Q 73.91401329074273, 60.340964359853565, 73.02529294081938, 60.81910104587662 " fill="none" id="curve_131" stroke="#000000" stroke-linecap="round" stroke-linejoin="round" stroke-width="2.6229009840018036"/>
</svg>
