<?xml version="1.0" ?>
<svg height="140" width="140" xmlns="http://www.w3.org/2000/svg">
  <path d="M 56.92219066619873, 103.62110328674316 Q 55.08487225947221, 102.0319721508757, 54.014951489569285, 93.7672345486244 " fill="none" id="curve_1" stroke="#000000" stroke-linecap="round" stroke-linejoin="round" stroke-width="7.260577155448776"/>
  <path d="M 54.014951489569285, 93.7672345486244 Q 53.25548730411005, 87.19224425801968, 51.822373654595836, 73.97316702444628 " fill="none" id="curve_1" stroke="#000000" stroke-linecap="round" stroke-linejoin="round" stroke-width="5.654619165098212"/>
  <path d="M 51.822373654595836, 73.97316702444628 Q 51.007002350712064, 71.49306016190071, 50.65604575558225, 50.68400431116245 " fill="none" id="curve_1" stroke="#000000" stroke-linecap="round" stroke-linejoin="round" stroke-width="5.703446867090439"/>
  <path d="M 50.65604575558225, 50.68400431116245 Q 47.256029889089206, 60.86408306785306, 25.706276637614987, 80.06480154699143 " fill="none" id="curve_1" stroke="#000000" stroke-linecap="round" stroke-linejoin="round" stroke-width="3.8264566942567275"/>
  <path d="M 25.706276637614987, 80.06480154699143 Q 23.72725141750544, 80.75426816431471, 22.630706418791394, 82.59676907464663 " fill="none" id="curve_1" stroke="#000000" stroke-linecap="round" stroke-linejoin="round" stroke-width="5.238927633065928"/>
  <path d="M 55.93123725445331, 105.07135891321867 Q 56.4120522236223, 105.02913806651591, 56.68617326190105, 104.90390439599935 " fill="none" id="curve_2" stroke="#000000" stroke-linecap="round" stroke-linejoin="round" stroke-width="7.172142226727271"/>
  <path d="M 52.96788369902024, 48.625399579992745 Q 52.22777502824943, 48.73002258336237, 51.18259219931703, 48.912500656759285 " fill="none" id="curve_5" stroke="#000000" stroke-linecap="round" stroke-linejoin="round" stroke-width="3.3142375219855196"/>
  <path d="M 28.286375945876653, 78.54766797120253 Q 24.617180463846843, 78.8176513092582, 23.206697556715223, 80.54678738293802 " fill="none" id="curve_6" stroke="#000000" stroke-linecap="round" stroke-linejoin="round" stroke-width="4.237242637636605"/>
  <path d="M 39.50257859494273, 66.28445436055638 Q 35.370716770644066, 74.11769659287047, 23.952773870900614, 80.3250673218796 " fill="none" id="curve_7" stroke="#000000" stroke-linecap="round" stroke-linejoin="round" stroke-width="2.916502694500585"/>
  <path d="M 23.952773870900614, 80.3250673218796 Q 27.312268102064888, 78.17959649753345, 30.797845567863604, 74.59111525609676 " fill="none" id="curve_7" stroke="#000000" stroke-linecap="round" stroke-linejoin="round" stroke-width="2.9982036887162002"/>
  <path d="M 28.41975356901005, 75.48314419319368 Q 26.853305467709408, 78.58576605282995, 23.504055252696702, 80.57419597337609 " fill="none" id="curve_23" stroke="#000000" stroke-linecap="round" stroke-linejoin="round" stroke-width="4.44492400247474"/>
  <path d="M 49.81144230209202, 73.34010989364515 Q 49.85850231813083, 72.3799126586199, 49.92573162239788, 71.289075101528 " fill="none" id="curve_51" stroke="#000000" stroke-linecap="round" stroke-linejoin="round" stroke-width="4.7249263806206905"/>
  <path d="M 58.20401718876906, 101.88790057108713 Q 56.24684527973755, 101.97788130250332, 54.01853751134698, 102.11230985566819 " fill="none" id="curve_66" stroke="#000000" stroke-linecap="round" stroke-linejoin="round" stroke-width="4.88082379599996"/>
  <path d="M 22.188185691833496, 83.44173431396484 Q 24.923464002227682, 81.43330067954643, 29.852748508836385, 78.51144057831635 " fill="none" id="curve_106" stroke="#000000" stroke-linecap="round" stroke-linejoin="round" stroke-width="2.5771300923664455"/>
  <path d="M 51.06884610649362, 49.28929990525039 Q 51.06208034745442, 48.68268980280651, 51.034673901043426, 48.16823947702494 " fill="none" id="curve_137" stroke="#000000" stroke-linecap="round" stroke-linejoin="round" stroke-width="2.5469742225035885"/>
</svg>
