<?xml version="1.0" ?>
<svg height="140" width="140" xmlns="http://www.w3.org/2000/svg">
  <path d="M 64.61933898925781, 25.261280059814453 Q 64.55700570729644, 26.97813273042379, 64.36427797039806, 29.505755232388367 " fill="none" id="curve_1" stroke="#000000" stroke-linecap="round" stroke-linejoin="round" stroke-width="7.731863006070793"/>
  <path d="M 64.36427797039806, 29.505755232388367 Q 59.403155864852536, 37.87156020115739, 50.260926961306275, 47.764402708166585 " fill="none" id="curve_1" stroke="#000000" stroke-linecap="round" stroke-linejoin="round" stroke-width="9.4521393570315"/>
  <path d="M 50.260926961306275, 47.764402708166585 Q 42.48377416967085, 53.70268736891253, 21.838857152582673, 76.85991673262228 " fill="none" id="curve_1" stroke="#000000" stroke-linecap="round" stroke-linejoin="round" stroke-width="3.9961638724383657"/>
  <path d="M 21.838857152582673, 76.85991673262228 Q 18.224449569354626, 78.73282109282118, 15.941204813549327, 84.12346590850062 " fill="none" id="curve_1" stroke="#000000" stroke-linecap="round" stroke-linejoin="round" stroke-width="3.116397890165243"/>
  <path d="M 33.30594176563797, 97.55027896358725 Q 36.02171451910695, 84.80730315867794, 46.79800811917852, 62.88071966578879 " fill="none" id="curve_2" stroke="#000000" stroke-linecap="round" stroke-linejoin="round" stroke-width="6.349423300804082"/>
  <path d="M 46.79800811917852, 62.88071966578879 Q 51.63139059945884, 55.57222707914199, 57.987250020764506, 43.956447637513534 " fill="none" id="curve_2" stroke="#000000" stroke-linecap="round" stroke-linejoin="round" stroke-width="3.97972759713961"/>
  <path d="M 67.35696693957551, 25.48185725900016 Q 66.68798443392075, 25.50880534781569, 66.21885014144709, 25.572065525112407 " fill="none" id="curve_3" stroke="#000000" stroke-linecap="round" stroke-linejoin="round" stroke-width="6.1039126288314165"/>
  <path d="M 46.63011897101309, 61.99968957895119 Q 40.83338110007419, 75.86814139567936, 31.357760979575076, 97.0852281180311 " fill="none" id="curve_4" stroke="#000000" stroke-linecap="round" stroke-linejoin="round" stroke-width="3.8262535662879804"/>
  <path d="M 31.357760979575076, 97.0852281180311 Q 37.04482097191136, 87.4276397950014, 45.322421587917034, 64.04594651207464 " fill="none" id="curve_4" stroke="#000000" stroke-linecap="round" stroke-linejoin="round" stroke-width="3.7795887543229636"/>
  <path d="M 45.322421587917034, 64.04594651207464 Q 40.33950886262251, 74.69634695617049, 33.879068696976255, 91.80597235389703 " fill="none" id="curve_4" stroke="#000000" stroke-linecap="round" stroke-linejoin="round" stroke-width="3.2525700788331906"/>
  <path d="M 33.879068696976255, 91.80597235389703 Q 39.11085438732432, 80.98718006465712, 48.03304114567613, 59.0956241639332 " fill="none" id="curve_4" stroke="#000000" stroke-linecap="round" stroke-linejoin="round" stroke-width="2.963999501858135"/>
  <path d="M 48.03304114567613, 59.0956241639332 Q 42.108486423718325, 69.67846825401229, 34.17018359479811, 92.38322329866139 " fill="none" id="curve_4" stroke="#000000" stroke-linecap="round" stroke-linejoin="round" stroke-width="3.033461049820418"/>
  <path d="M 34.17018359479811, 92.38322329866139 Q 38.42910280969852, 81.57774474786504, 46.38907173077259, 63.12088270167314 " fill="none" id="curve_4" stroke="#000000" stroke-linecap="round" stroke-linejoin="round" stroke-width="2.9077295192341066"/>
  <path d="M 46.38907173077259, 63.12088270167314 Q 40.740849844883336, 73.45562150245561, 34.08711247026913, 93.09555464791498 " fill="none" id="curve_4" stroke="#000000" stroke-linecap="round" stroke-linejoin="round" stroke-width="3.021730084563466"/>
  <path d="M 34.08711247026913, 93.09555464791498 Q 37.861921054019916, 82.41704759370117, 45.26259224956821, 65.21497418884698 " fill="none" id="curve_4" stroke="#000000" stroke-linecap="round" stroke-linejoin="round" stroke-width="2.934958579899756"/>
  <path d="M 45.26259224956821, 65.21497418884698 Q 40.49388530481298, 76.18119544231656, 34.21355794972064, 93.1045581186353 " fill="none" id="curve_4" stroke="#000000" stroke-linecap="round" stroke-linejoin="round" stroke-width="3.1193939737974903"/>
  <path d="M 34.21355794972064, 93.1045581186353 Q 37.7839685941961, 82.26056335670366, 45.112458452169506, 65.5356552095758 " fill="none" id="curve_4" stroke="#000000" stroke-linecap="round" stroke-linejoin="round" stroke-width="2.8701287246149523"/>
  <path d="M 45.112458452169506, 65.5356552095758 Q 40.768973783415106, 76.73792546770035, 34.029755636166904, 91.4033136165526 " fill="none" id="curve_4" stroke="#000000" stroke-linecap="round" stroke-linejoin="round" stroke-width="3.1238709638775877"/>
  <path d="M 34.029755636166904, 91.4033136165526 Q 39.258555259947826, 82.78768535934883, 46.50318695323725, 60.86581516473907 " fill="none" id="curve_4" stroke="#000000" stroke-linecap="round" stroke-linejoin="round" stroke-width="2.7086742250081928"/>
  <path d="M 46.50318695323725, 60.86581516473907 Q 41.67896234696363, 72.89257817395001, 34.78706890276542, 95.11964343118764 " fill="none" id="curve_4" stroke="#000000" stroke-linecap="round" stroke-linejoin="round" stroke-width="2.739371470876301"/>
  <path d="M 34.78706890276542, 95.11964343118764 Q 37.50001574192224, 79.45800192490097, 47.427286527539486, 59.84401197771057 " fill="none" id="curve_4" stroke="#000000" stroke-linecap="round" stroke-linejoin="round" stroke-width="2.697016283795921"/>
  <path d="M 47.427286527539486, 59.84401197771057 Q 43.91160862085181, 73.77383068890255, 33.38345267770847, 86.99895082524907 " fill="none" id="curve_4" stroke="#000000" stroke-linecap="round" stroke-linejoin="round" stroke-width="2.9986373102573265"/>
  <path d="M 33.38345267770847, 86.99895082524907 Q 42.51789339926564, 82.85931738938757, 46.519401823082504, 61.68061277114735 " fill="none" id="curve_4" stroke="#000000" stroke-linecap="round" stroke-linejoin="round" stroke-width="3.8378483936335304"/>
  <path d="M 60.28232671550106, 42.62693120122333 Q 60.21204654755437, 40.66448559358633, 58.44673424451954, 40.41532797652848 " fill="none" id="curve_19" stroke="#000000" stroke-linecap="round" stroke-linejoin="round" stroke-width="3.2467126579133176"/>
  <path d="M 47.72605679655011, 59.318149059531834 Q 42.931656431902596, 64.63114473548235, 37.008783281293645, 78.65005159081925 " fill="none" id="curve_20" stroke="#000000" stroke-linecap="round" stroke-linejoin="round" stroke-width="2.452837309121535"/>
  <path d="M 48.25590017954687, 54.76251602749335 Q 45.82438546818358, 59.33538096884539, 43.23607018591676, 67.20824321732175 " fill="none" id="curve_35" stroke="#000000" stroke-linecap="round" stroke-linejoin="round" stroke-width="2.6590197754055906"/>
  <path d="M 34.195735603303, 61.08226871790879 Q 33.2679698718074, 62.418558297271545, 31.449982179725453, 65.1983497182134 " fill="none" id="curve_51" stroke="#000000" stroke-linecap="round" stroke-linejoin="round" stroke-width="2.8037604727686216"/>
  <path d="M 58.976595878601074, 34.500694274902344 Q 60.62152419579286, 29.450958362535822, 66.46518811287979, 25.67219250132098 " fill="none" id="curve_65" stroke="#000000" stroke-linecap="round" stroke-linejoin="round" stroke-width="3.555800226070587"/>
  <path d="M 66.46518811287979, 25.67219250132098 Q 66.02795976353256, 25.07632596612365, 64.69586047881971, 24.69609673067577 " fill="none" id="curve_65" stroke="#000000" stroke-linecap="round" stroke-linejoin="round" stroke-width="3.3863531443295556"/>
  <path d="M 63.95413053235063, 31.39884577688582 Q 57.60115760856393, 32.70318613130506, 55.0429713268046, 39.041493149134894 " fill="none" id="curve_80" stroke="#000000" stroke-linecap="round" stroke-linejoin="round" stroke-width="3.4714016221309145"/>
</svg>
