<?xml version="1.0" ?>
<svg height="140" width="140" xmlns="http://www.w3.org/2000/svg">
  <path d="M 38.67007350921631, 102.5091381072998 Q 36.38180911922897, 107.37641933398562, 29.535453737987837, 110.34998983301489 " fill="none" id="curve_1" stroke="#000000" stroke-linecap="round" stroke-linejoin="round" stroke-width="4.95254343209811"/>
  <path d="M 29.535453737987837, 110.34998983301489 Q 37.13257139297331, 108.56092141225409, 41.594270343505514, 102.68997568749703 " fill="none" id="curve_1" stroke="#000000" stroke-linecap="round" stroke-linejoin="round" stroke-width="4.660491873736709"/>
  <path d="M 41.594270343505514, 102.68997568749703 Q 47.170377601412035, 96.09966511022836, 55.342807376542005, 85.66473355032491 " fill="none" id="curve_1" stroke="#000000" stroke-linecap="round" stroke-linejoin="round" stroke-width="4.63249775159819"/>
  <path d="M 55.342807376542005, 85.66473355032491 Q 58.82327585974673, 80.02786682873464, 61.57685890816447, 67.06470563161122 " fill="none" id="curve_1" stroke="#000000" stroke-linecap="round" stroke-linejoin="round" stroke-width="4.929027689773011"/>
  <path d="M 54.67437933637251, 90.71036550752576 Q 54.81028144193132, 110.36928823947508, 59.28066930720441, 111.24658236605174 " fill="none" id="curve_2" stroke="#000000" stroke-linecap="round" stroke-linejoin="round" stroke-width="4.162379311469741"/>
  <path d="M 59.28066930720441, 111.24658236605174 Q 53.99105980681736, 109.49532478829585, 52.770508683463376, 96.1235923578375 " fill="none" id="curve_2" stroke="#000000" stroke-linecap="round" stroke-linejoin="round" stroke-width="3.113091449578964"/>
  <path d="M 60.68978127128135, 73.36809524366147 Q 60.16754182719429, 72.54784583325055, 59.521675696758685, 71.73805335137786 " fill="none" id="curve_3" stroke="#000000" stroke-linecap="round" stroke-linejoin="round" stroke-width="6.705805011824764"/>
  <path d="M 32.81486672342342, 109.08582278856794 Q 39.184509769895755, 103.00943755480509, 49.77910339715042, 96.13327996346551 " fill="none" id="curve_5" stroke="#000000" stroke-linecap="round" stroke-linejoin="round" stroke-width="2.8978612212541677"/>
  <path d="M 59.96581210869538, 73.57908315734396 Q 56.545940120597464, 81.35677220294095, 51.589244068098964, 93.04912236046017 " fill="none" id="curve_6" stroke="#000000" stroke-linecap="round" stroke-linejoin="round" stroke-width="2.8413006765097464"/>
  <path d="M 58.93793425922121, 81.50201109222562 Q 60.04521312166742, 75.7924798912809, 62.06781342766933, 70.5689573054815 " fill="none" id="curve_13" stroke="#000000" stroke-linecap="round" stroke-linejoin="round" stroke-width="3.3126883022201854"/>
  <path d="M 55.829037141776325, 91.05257851845981 Q 55.86221404350606, 88.89113400046992, 55.98698669629125, 87.87013020235929 " fill="none" id="curve_14" stroke="#000000" stroke-linecap="round" stroke-linejoin="round" stroke-width="3.61631397709738"/>
  <path d="M 36.53980116214335, 106.1996171497367 Q 41.23778465722223, 101.8413899774403, 48.04489981949256, 95.56286166319674 " fill="none" id="curve_15" stroke="#000000" stroke-linecap="round" stroke-linejoin="round" stroke-width="2.550510759143141"/>
  <path d="M 48.04489981949256, 95.56286166319674 Q 42.01881217713477, 101.2810144639713, 32.66669912757643, 108.64657659664901 " fill="none" id="curve_15" stroke="#000000" stroke-linecap="round" stroke-linejoin="round" stroke-width="3.09229724854916"/>
  <path d="M 59.45288267306563, 75.35016475196568 Q 59.76459876168778, 73.74088363670057, 60.448079532854415, 72.50226444266215 " fill="none" id="curve_17" stroke="#000000" stroke-linecap="round" stroke-linejoin="round" stroke-width="5.615422577049425"/>
  <path d="M 59.61791945505365, 75.0747102256986 Q 60.07709023125596, 73.85272056187114, 60.722155822595006, 72.5270297790762 " fill="none" id="curve_45" stroke="#000000" stroke-linecap="round" stroke-linejoin="round" stroke-width="5.60216899728434"/>
  <path d="M 58.36186788187652, 73.74304909782437 Q 59.160797377057946, 72.31659670141033, 60.38080763742229, 69.58034101488782 " fill="none" id="curve_74" stroke="#000000" stroke-linecap="round" stroke-linejoin="round" stroke-width="2.6874651240699396"/>
  <path d="M 58.25650606834546, 74.07150180003782 Q 57.9168483643583, 74.13786760263213, 57.51598591503896, 74.24625068533112 " fill="none" id="curve_102" stroke="#000000" stroke-linecap="round" stroke-linejoin="round" stroke-width="3.7353290120814724"/>
  <path d="M 56.10818147154566, 79.97209736096193 Q 55.83195081121858, 80.70652994098343, 55.59760282509458, 82.8754000114569 " fill="none" id="curve_143" stroke="#000000" stroke-linecap="round" stroke-linejoin="round" stroke-width="2.692464564447567"/>
</svg>
