<?xml version="1.0" ?>
<svg height="140" width="140" xmlns="http://www.w3.org/2000/svg">
  <path d="M 47.48586654663086, 59.93795871734619 Q 47.923660467228544, 58.735602114673995, 50.46547395019289, 58.04894351359472 " fill="none" id="curve_1" stroke="#000000" stroke-linecap="round" stroke-linejoin="round" stroke-width="6.097526807734649"/>
  <path d="M 50.46547395019289, 58.04894351359472 Q 45.08548980455553, 63.1055171033686, 31.239705682712867, 76.44517570287748 " fill="none" id="curve_1" stroke="#000000" stroke-linecap="round" stroke-linejoin="round" stroke-width="6.228702995918382"/>
  <path d="M 31.239705682712867, 76.44517570287748 Q 26.526446353455682, 80.50529410562797, 19.944415124637004, 83.95997483603125 " fill="none" id="curve_1" stroke="#000000" stroke-linecap="round" stroke-linejoin="round" stroke-width="5.825667681843737"/>
  <path d="M 50.896733726986085, 64.62691109436292 Q 50.46796674244898, 73.32689121274773, 49.23956051384597, 100.9092477277373 " fill="none" id="curve_2" stroke="#000000" stroke-linecap="round" stroke-linejoin="round" stroke-width="7.314250542589451"/>
  <path d="M 49.23956051384597, 100.9092477277373 Q 50.42554126672599, 113.58556437168389, 53.52415865713107, 119.15845632915217 " fill="none" id="curve_2" stroke="#000000" stroke-linecap="round" stroke-linejoin="round" stroke-width="4.189885536333679"/>
  <path d="M 51.25529315053018, 59.45191790158081 Q 52.05534287186243, 59.65408033858906, 52.53062058431069, 60.717407398745046 " fill="none" id="curve_5" stroke="#000000" stroke-linecap="round" stroke-linejoin="round" stroke-width="3.4435529929178026"/>
  <path d="M 18.733322651188928, 84.02078685217192 Q 18.259638338598084, 84.0348707637302, 17.66804898176352, 84.05821857052477 " fill="none" id="curve_6" stroke="#000000" stroke-linecap="round" stroke-linejoin="round" stroke-width="3.43985673104724"/>
  <path d="M 2.968625910381708, 139.25269683014625 Q 2.5225474607979708, 137.9089762212992, 1.984013273200123, 135.5114450566935 " fill="none" id="curve_8" stroke="#000000" stroke-linecap="round" stroke-linejoin="round" stroke-width="2.88708491227497"/>
  <path d="M 50.67891707102712, 93.84684535497567 Q 50.31418613109787, 81.77152080337943, 49.028477386679825, 74.1575115867361 " fill="none" id="curve_11" stroke="#000000" stroke-linecap="round" stroke-linejoin="round" stroke-width="3.380672154620867"/>
  <path d="M 49.028477386679825, 74.1575115867361 Q 49.953310581497234, 82.85608898489869, 50.78877226809593, 96.32833279493124 " fill="none" id="curve_11" stroke="#000000" stroke-linecap="round" stroke-linejoin="round" stroke-width="3.562699910312375"/>
  <path d="M 50.78877226809593, 96.32833279493124 Q 50.51211471289062, 79.72630425840062, 48.30532307943013, 74.93537333052531 " fill="none" id="curve_11" stroke="#000000" stroke-linecap="round" stroke-linejoin="round" stroke-width="2.842067715011825"/>
  <path d="M 50.45819521768354, 94.01776468050228 Q 50.19092242410111, 82.7299505561138, 48.882800034973805, 77.96964528319866 " fill="none" id="curve_13" stroke="#000000" stroke-linecap="round" stroke-linejoin="round" stroke-width="3.3024128770907653"/>
  <path d="M 48.882800034973805, 77.96964528319866 Q 50.2774541607305, 81.6642632081683, 50.72284345610999, 97.65244200504674 " fill="none" id="curve_13" stroke="#000000" stroke-linecap="round" stroke-linejoin="round" stroke-width="3.7617812033414912"/>
  <path d="M 50.336032950900226, 95.62135155139175 Q 50.079831138217614, 84.62006015315453, 49.33468698716174, 76.79392696500031 " fill="none" id="curve_16" stroke="#000000" stroke-linecap="round" stroke-linejoin="round" stroke-width="3.2890159014241904"/>
  <path d="M 49.33468698716174, 76.79392696500031 Q 49.9312332501581, 83.03502818272919, 50.251150248114484, 98.56292264100614 " fill="none" id="curve_16" stroke="#000000" stroke-linecap="round" stroke-linejoin="round" stroke-width="3.6006748336724335"/>
  <path d="M 50.251150248114484, 98.56292264100614 Q 50.328845038958335, 92.88422508780747, 50.400534597505484, 82.0647364977883 " fill="none" id="curve_16" stroke="#000000" stroke-linecap="round" stroke-linejoin="round" stroke-width="3.587838433713318"/>
  <path d="M 48.822615665639645, 91.66612533463437 Q 50.89132476564151, 88.97965143359045, 51.94371830132843, 62.20094027737037 " fill="none" id="curve_22" stroke="#000000" stroke-linecap="round" stroke-linejoin="round" stroke-width="2.7041717381424593"/>
  <path d="M 49.00303065072821, 95.03988277309102 Q 50.12175156301606, 91.79720641796911, 50.85309237909625, 72.13625375214335 " fill="none" id="curve_23" stroke="#000000" stroke-linecap="round" stroke-linejoin="round" stroke-width="3.014584988155107"/>
  <path d="M 50.88571287417806, 89.26952294815862 Q 50.904357508920405, 79.09132047401556, 50.968958768619416, 68.1975752645931 " fill="none" id="curve_24" stroke="#000000" stroke-linecap="round" stroke-linejoin="round" stroke-width="3.5019826724808576"/>
  <path d="M 48.53398757869507, 75.87932331856946 Q 48.79552479812501, 86.24028705495662, 49.314785073806135, 95.50157001084641 " fill="none" id="curve_40" stroke="#000000" stroke-linecap="round" stroke-linejoin="round" stroke-width="2.8422205868403423"/>
  <path d="M 51.58732322569131, 58.174817822128915 Q 52.30182577646309, 58.92137335372467, 52.97897510326138, 61.097643479356094 " fill="none" id="curve_55" stroke="#000000" stroke-linecap="round" stroke-linejoin="round" stroke-width="3.537511449572952"/>
  <path d="M 53.37346223896707, 63.35476505235006 Q 53.334388669672904, 66.37636538565879, 52.680401312334446, 66.74637660827936 " fill="none" id="curve_73" stroke="#000000" stroke-linecap="round" stroke-linejoin="round" stroke-width="3.0311006410327312"/>
  <path d="M 51.886773110677716, 91.47958893795482 Q 49.44961090395034, 95.59593950838568, 46.01040597519538, 99.60556255087029 " fill="none" id="curve_74" stroke="#000000" stroke-linecap="round" stroke-linejoin="round" stroke-width="3.506037475227636"/>
  <path d="M 31.685569951610667, 73.88261675851955 Q 28.017139881685047, 76.67512139039492, 21.588423802793734, 81.37451960746573 " fill="none" id="curve_75" stroke="#000000" stroke-linecap="round" stroke-linejoin="round" stroke-width="2.3830145924363215"/>
  <path d="M 49.64365627443765, 57.00606855457804 Q 46.71158678131715, 59.637800538801166, 42.965688620617456, 64.43806718062616 " fill="none" id="curve_77" stroke="#000000" stroke-linecap="round" stroke-linejoin="round" stroke-width="3.0639704225384077"/>
  <path d="M 54.02830352305866, 120.13529088579838 Q 53.70317445163189, 119.52425785887549, 53.24744001916302, 118.5220961562234 " fill="none" id="curve_119" stroke="#000000" stroke-linecap="round" stroke-linejoin="round" stroke-width="2.323224430158816"/>
  <path d="M 48.59729772067779, 71.6805156263963 Q 48.56861708170172, 61.21664594744744, 46.60879024878503, 60.62105725290007 " fill="none" id="curve_134" stroke="#000000" stroke-linecap="round" stroke-linejoin="round" stroke-width="2.0792059930627507"/>
  <path d="M 50.517783065242384, 59.0216838885003 Q 51.84518429049205, 58.58492301879504, 53.422586545079824, 57.938370896437135 " fill="none" id="curve_135" stroke="#000000" stroke-linecap="round" stroke-linejoin="round" stroke-width="2.6556208444540537"/>
  <path d="M 42.884523280110805, 63.61513638521939 Q 42.71641460192654, 70.57320982538667, 38.78330299413711, 71.34012352422904 " fill="none" id="curve_137" stroke="#000000" stroke-linecap="round" stroke-linejoin="round" stroke-width="2.9585333175075887"/>
  <path d="M 46.43374620132237, 76.1993021717711 Q 48.65881750622698, 82.80057825478369, 51.057912552359944, 91.55354902601145 " fill="none" id="curve_138" stroke="#000000" stroke-linecap="round" stroke-linejoin="round" stroke-width="3.454467609065609"/>
  <path d="M 52.24920982331105, 92.76399420234897 Q 52.00826264488358, 84.11009472120561, 50.678154459286326, 79.67275102340011 " fill="none" id="curve_166" stroke="#000000" stroke-linecap="round" stroke-linejoin="round" stroke-width="2.740279789773313"/>
</svg>
