<?xml version="1.0" ?>
<svg height="140" width="140" xmlns="http://www.w3.org/2000/svg">
  <path d="M 5.980478525161743, 82.75551986694336 Q 5.418891439279291, 85.48437237811952, 3.42054034202593, 86.74963075799707 " fill="none" id="curve_1" stroke="#000000" stroke-linecap="round" stroke-linejoin="round" stroke-width="3.9654314339944694"/>
  <path d="M 3.42054034202593, 86.74963075799707 Q 8.415355146840469, 83.05617939797982, 16.246995647483153, 76.77003156925389 " fill="none" id="curve_1" stroke="#000000" stroke-linecap="round" stroke-linejoin="round" stroke-width="5.453729926998852"/>
  <path d="M 16.246995647483153, 76.77003156925389 Q 24.53856392803367, 72.56261732456441, 36.13155893561297, 61.70330847131449 " fill="none" id="curve_1" stroke="#000000" stroke-linecap="round" stroke-linejoin="round" stroke-width="5.583473862442569"/>
  <path d="M 36.13155893561297, 61.70330847131449 Q 43.60410605618711, 55.85919188151087, 56.484397060891354, 41.66400235506947 " fill="none" id="curve_1" stroke="#000000" stroke-linecap="round" stroke-linejoin="round" stroke-width="6.228819776078837"/>
  <path d="M 56.484397060891354, 41.66400235506947 Q 61.915566327801926, 37.47481669460272, 67.49286144891941, 30.74564447395008 " fill="none" id="curve_1" stroke="#000000" stroke-linecap="round" stroke-linejoin="round" stroke-width="5.064860975461673"/>
  <path d="M 67.49286144891941, 30.74564447395008 Q 65.57094276808313, 41.29252715582767, 58.16976615319507, 62.78524215419381 " fill="none" id="curve_1" stroke="#000000" stroke-linecap="round" stroke-linejoin="round" stroke-width="5.45020391391929"/>
  <path d="M 58.16976615319507, 62.78524215419381 Q 55.25165800394022, 73.62865584919784, 51.62297040979792, 91.88410510045983 " fill="none" id="curve_1" stroke="#000000" stroke-linecap="round" stroke-linejoin="round" stroke-width="5.940551735846088"/>
  <path d="M 51.62297040979792, 91.88410510045983 Q 52.27758389375231, 96.05874841696071, 53.542719505856724, 99.20388227680505 " fill="none" id="curve_1" stroke="#000000" stroke-linecap="round" stroke-linejoin="round" stroke-width="4.460916065317571"/>
  <path d="M 59.39338404765221, 64.0984716563799 Q 61.72510183940697, 55.46705421192678, 63.996198895609744, 37.140199985636045 " fill="none" id="curve_2" stroke="#000000" stroke-linecap="round" stroke-linejoin="round" stroke-width="3.357691021732847"/>
  <path d="M 51.74274438215538, 44.64850965232295 Q 47.71857266118437, 49.62297645374087, 40.608135852716494, 58.72334680946788 " fill="none" id="curve_9" stroke="#000000" stroke-linecap="round" stroke-linejoin="round" stroke-width="3.182715038104934"/>
  <path d="M 53.60103740536617, 91.31401569202347 Q 52.593928896958495, 88.13947749080084, 51.11672791745774, 83.88762290964077 " fill="none" id="curve_10" stroke="#000000" stroke-linecap="round" stroke-linejoin="round" stroke-width="3.7375673495392108"/>
  <path d="M 51.11672791745774, 83.88762290964077 Q 53.68646615025826, 75.78094925346875, 59.0655268590117, 66.9802256464874 " fill="none" id="curve_10" stroke="#000000" stroke-linecap="round" stroke-linejoin="round" stroke-width="3.1906660466283134"/>
  <path d="M 64.54065985463554, 33.10719329722446 Q 62.30497930770817, 35.307311092829146, 58.079397213187725, 38.95567846459606 " fill="none" id="curve_11" stroke="#000000" stroke-linecap="round" stroke-linejoin="round" stroke-width="4.245936982592416"/>
  <path d="M 48.30847787857056, 45.82359313964844 Q 44.929934454310654, 51.54159988716454, 34.494542262140044, 60.487850054951764 " fill="none" id="curve_38" stroke="#000000" stroke-linecap="round" stroke-linejoin="round" stroke-width="2.8651887697821805"/>
  <path d="M 58.64391385957369, 57.31799664714596 Q 59.305952105311164, 49.660945697264026, 64.4290339375124, 45.90260117285713 " fill="none" id="curve_39" stroke="#000000" stroke-linecap="round" stroke-linejoin="round" stroke-width="2.7222937882630487"/>
  <path d="M 67.33324793455478, 30.242053793551566 Q 61.78534065353763, 33.34911695095923, 54.54831973297953, 41.58064759330167 " fill="none" id="curve_40" stroke="#000000" stroke-linecap="round" stroke-linejoin="round" stroke-width="2.5859122059446076"/>
  <path d="M 65.28606828922953, 32.27575084149315 Q 65.37572695224588, 29.85463973984063, 66.77780437478849, 29.565972879060105 " fill="none" id="curve_41" stroke="#000000" stroke-linecap="round" stroke-linejoin="round" stroke-width="3.2453045581133653"/>
  <path d="M 54.559897352404775, 70.45792582913735 Q 54.37631480034129, 74.5489542223882, 53.89593393376513, 77.40648351237557 " fill="none" id="curve_57" stroke="#000000" stroke-linecap="round" stroke-linejoin="round" stroke-width="3.3541705756102016"/>
  <path d="M 52.772574413226145, 87.63554482544762 Q 53.502729373378294, 88.52656900646939, 54.089407778533776, 90.29059044695232 " fill="none" id="curve_86" stroke="#000000" stroke-linecap="round" stroke-linejoin="round" stroke-width="4.031283405521657"/>
  <path d="M 55.24840844118293, 98.72655184226618 Q 54.02036826613574, 99.03737645874102, 51.73594922076959, 99.47437967353731 " fill="none" id="curve_115" stroke="#000000" stroke-linecap="round" stroke-linejoin="round" stroke-width="2.8746884676267754"/>
  <path d="M 56.054512711616056, 72.93240948943463 Q 57.21925198434036, 62.162273186576, 60.44064673317483, 53.175121710392915 " fill="none" id="curve_116" stroke="#000000" stroke-linecap="round" stroke-linejoin="round" stroke-width="2.5400449455792655"/>
  <path d="M 62.38777308528788, 48.96284664765113 Q 65.85628391627263, 46.82480399465598, 67.2893035942281, 37.1599765764702 " fill="none" id="curve_132" stroke="#000000" stroke-linecap="round" stroke-linejoin="round" stroke-width="2.464718770998349"/>
</svg>
