<?xml version="1.0" ?>
<svg height="140" width="140" xmlns="http://www.w3.org/2000/svg">
  <path d="M 42.306694984436035, 63.28222036361694 Q 36.891101225455955, 66.60784346216586, 30.707432101530003, 82.7271497589004 " fill="none" id="curve_1" stroke="#000000" stroke-linecap="round" stroke-linejoin="round" stroke-width="4.044591930638292"/>
  <path d="M 39.31686281138843, 58.01926054338398 Q 48.236074513463336, 55.28021596060329, 53.81849195051082, 29.56387409766679 " fill="none" id="curve_2" stroke="#000000" stroke-linecap="round" stroke-linejoin="round" stroke-width="3.9051399532201603"/>
  <path d="M 53.81849195051082, 29.56387409766679 Q 47.52273272856674, 37.97620382094508, 24.52024160895724, 57.91872997340371 " fill="none" id="curve_2" stroke="#000000" stroke-linecap="round" stroke-linejoin="round" stroke-width="3.792343574622348"/>
  <path d="M 24.52024160895724, 57.91872997340371 Q 15.439631761712468, 63.75217785053402, 1.8959248322852496, 74.62586866562064 " fill="none" id="curve_2" stroke="#000000" stroke-linecap="round" stroke-linejoin="round" stroke-width="4.205829815734772"/>
  <path d="M 37.27047036912296, 68.04884002473693 Q 42.11651190584937, 61.75239245594867, 49.381370064087484, 51.67709475641722 " fill="none" id="curve_3" stroke="#000000" stroke-linecap="round" stroke-linejoin="round" stroke-width="2.7759840490626275"/>
  <path d="M 49.381370064087484, 51.67709475641722 Q 52.032952059078056, 45.67025436887705, 54.374512613333806, 28.483929884938302 " fill="none" id="curve_3" stroke="#000000" stroke-linecap="round" stroke-linejoin="round" stroke-width="2.9365545271713396"/>
  <path d="M 54.374512613333806, 28.483929884938302 Q 48.20408568203072, 33.21362649019379, 39.99342262996862, 43.76052792903015 " fill="none" id="curve_3" stroke="#000000" stroke-linecap="round" stroke-linejoin="round" stroke-width="3.151462725116941"/>
  <path d="M 52.902319571334424, 27.475781325205894 Q 52.800112246296386, 27.954550708212757, 52.70946999924678, 29.14436497401738 " fill="none" id="curve_4" stroke="#000000" stroke-linecap="round" stroke-linejoin="round" stroke-width="3.205554339060322"/>
  <path d="M 40.432081039139014, 64.40100298038553 Q 35.23403550064318, 70.09674396167587, 30.789410926390676, 81.18409740067754 " fill="none" id="curve_5" stroke="#000000" stroke-linecap="round" stroke-linejoin="round" stroke-width="2.806038332281601"/>
  <path d="M 43.4167878114689, 57.82857570746981 Q 38.92914897947008, 63.910294940621895, 34.96455823233288, 77.61818731392572 " fill="none" id="curve_9" stroke="#000000" stroke-linecap="round" stroke-linejoin="round" stroke-width="2.0855623751449173"/>
  <path d="M 31.861251718705642, 83.35305702299732 Q 31.655326866830496, 83.13955128913162, 31.356508790473164, 82.7527923333708 " fill="none" id="curve_10" stroke="#000000" stroke-linecap="round" stroke-linejoin="round" stroke-width="2.828883156402873"/>
  <path d="M 7.857983884921648, 67.44871255434349 Q 4.345643846973429, 70.33513108631429, 1.8965254827929607, 77.01322660473991 " fill="none" id="curve_11" stroke="#000000" stroke-linecap="round" stroke-linejoin="round" stroke-width="2.371371189152742"/>
  <path d="M 34.815272389303374, 48.20971908742509 Q 37.52375011565867, 47.68545709423883, 39.01927038450269, 43.76841340808375 " fill="none" id="curve_12" stroke="#000000" stroke-linecap="round" stroke-linejoin="round" stroke-width="3.2084907323451284"/>
  <path d="M 39.296934765364334, 68.45284705363304 Q 39.35643748448361, 66.29960151729374, 39.48391890016423, 63.839808282170594 " fill="none" id="curve_29" stroke="#000000" stroke-linecap="round" stroke-linejoin="round" stroke-width="3.461494190044828"/>
  <path d="M 36.9647017493844, 48.08715629577637 Q 33.1231977862612, 49.768624965568684, 26.989031685170858, 53.86523269430496 " fill="none" id="curve_43" stroke="#000000" stroke-linecap="round" stroke-linejoin="round" stroke-width="2.6182454787341483"/>
  <path d="M 53.8332214193465, 36.656999622038896 Q 53.22755184273957, 35.40554998471875, 52.52561450232516, 33.45495831614919 " fill="none" id="curve_98" stroke="#000000" stroke-linecap="round" stroke-linejoin="round" stroke-width="4.201960439851548"/>
  <path d="M 36.8153650814011, 48.30288628892745 Q 35.46723565796636, 48.75545605141973, 31.978003914370248, 49.34083437845914 " fill="none" id="curve_114" stroke="#000000" stroke-linecap="round" stroke-linejoin="round" stroke-width="2.76255986288826"/>
  <path d="M 37.950910844910595, 66.94208447185201 Q 39.11811405851982, 65.11496687680201, 41.18141378435707, 63.20002338906774 " fill="none" id="curve_129" stroke="#000000" stroke-linecap="round" stroke-linejoin="round" stroke-width="3.3030949364679763"/>
  <path d="M 41.18141378435707, 63.20002338906774 Q 39.95023062171713, 65.15459917645352, 38.07844005782886, 67.87346087936737 " fill="none" id="curve_129" stroke="#000000" stroke-linecap="round" stroke-linejoin="round" stroke-width="2.930028255821861"/>
</svg>
