<?xml version="1.0" ?>
<svg height="140" width="140" xmlns="http://www.w3.org/2000/svg">
  <path d="M 74.46977783500188, 48.83426552262972 Q 68.42567229451697, 52.46083594112058, 59.25815494216957, 58.456323416868806 " fill="none" id="curve_2" stroke="#000000" stroke-linecap="round" stroke-linejoin="round" stroke-width="8.804704672799133"/>
  <path d="M 59.25815494216957, 58.456323416868806 Q 52.41482613400849, 62.687769872902024, 30.77609246765695, 74.40668274206544 " fill="none" id="curve_2" stroke="#000000" stroke-linecap="round" stroke-linejoin="round" stroke-width="4.342153675262205"/>
  <path d="M 30.77609246765695, 74.40668274206544 Q 26.608570099075315, 76.91399871618165, 22.83517567460021, 80.29937245845858 " fill="none" id="curve_2" stroke="#000000" stroke-linecap="round" stroke-linejoin="round" stroke-width="5.085972863353846"/>
  <path d="M 27.3475150629569, 97.97687571195686 Q 34.44049342696483, 89.71393941941737, 51.35609640429891, 71.70885100393565 " fill="none" id="curve_3" stroke="#000000" stroke-linecap="round" stroke-linejoin="round" stroke-width="5.838205874529884"/>
  <path d="M 51.35609640429891, 71.70885100393565 Q 56.72870571899887, 66.23256977493784, 64.18627157112806, 59.43524504447503 " fill="none" id="curve_3" stroke="#000000" stroke-linecap="round" stroke-linejoin="round" stroke-width="4.7537285762075365"/>
  <path d="M 23.639636577317923, 79.79693262166876 Q 27.537869574583578, 73.85846023202421, 39.93237222344514, 69.90893940781028 " fill="none" id="curve_5" stroke="#000000" stroke-linecap="round" stroke-linejoin="round" stroke-width="3.4142945678263135"/>
  <path d="M 24.008547440100244, 80.69730877119308 Q 25.345014425989604, 79.35760249302272, 27.000179269405365, 77.38663525030607 " fill="none" id="curve_6" stroke="#000000" stroke-linecap="round" stroke-linejoin="round" stroke-width="4.301627824736264"/>
  <path d="M 31.01554651636921, 93.5098085503151 Q 35.66904456675433, 86.41885289854338, 44.80524970319247, 77.64764522239264 " fill="none" id="curve_12" stroke="#000000" stroke-linecap="round" stroke-linejoin="round" stroke-width="2.6049204216885"/>
  <path d="M 43.28054538471673, 68.0554346165196 Q 38.656385748346345, 72.23631556850484, 28.809668892034384, 75.84918843964299 " fill="none" id="curve_13" stroke="#000000" stroke-linecap="round" stroke-linejoin="round" stroke-width="3.552993810960388"/>
  <path d="M 25.126807600212523, 98.86063492476555 Q 25.055962288570505, 98.43104611849289, 24.945255875776166, 97.94885513805653 " fill="none" id="curve_14" stroke="#000000" stroke-linecap="round" stroke-linejoin="round" stroke-width="3.3968282596738377"/>
  <path d="M 22.880430127215394, 79.53175455308504 Q 24.749250836102576, 77.2804243986, 28.246459675877862, 74.7202796530288 " fill="none" id="curve_15" stroke="#000000" stroke-linecap="round" stroke-linejoin="round" stroke-width="3.341879109665298"/>
  <path d="M 69.86389202764946, 48.80601308920893 Q 71.52725203103579, 48.40538205488442, 72.96928307460198, 47.740149651701984 " fill="none" id="curve_30" stroke="#000000" stroke-linecap="round" stroke-linejoin="round" stroke-width="3.2787788472836334"/>
  <path d="M 54.1838554486302, 66.55441385117207 Q 52.1963893869158, 66.51123277223174, 50.39479472108104, 66.301656769076 " fill="none" id="curve_59" stroke="#000000" stroke-linecap="round" stroke-linejoin="round" stroke-width="1.9933205499328375"/>
</svg>
