<?xml version="1.0" ?>
<svg height="140" width="140" xmlns="http://www.w3.org/2000/svg">
  <path d="M 56.61612510681152, 10.607419967651367 Q 56.64376757063431, 8.832843601116137, 56.74022846758649, 7.994478025841829 " fill="none" id="curve_1" stroke="#000000" stroke-linecap="round" stroke-linejoin="round" stroke-width="3.5771304307098926"/>
  <path d="M 56.74022846758649, 7.994478025841829 Q 56.632683499722376, 21.30679629441894, 55.681774137310136, 31.372967345400518 " fill="none" id="curve_1" stroke="#000000" stroke-linecap="round" stroke-linejoin="round" stroke-width="4.294877846245972"/>
  <path d="M 55.681774137310136, 31.372967345400518 Q 54.315414563418244, 41.69057151476335, 50.96802780072391, 56.745930682256265 " fill="none" id="curve_1" stroke="#000000" stroke-linecap="round" stroke-linejoin="round" stroke-width="6.608208813115911"/>
  <path d="M 50.96802780072391, 56.745930682256265 Q 46.668843433568014, 65.9723111475983, 35.37073379728959, 89.14715854464612 " fill="none" id="curve_1" stroke="#000000" stroke-linecap="round" stroke-linejoin="round" stroke-width="3.5466094615486266"/>
  <path d="M 35.37073379728959, 89.14715854464612 Q 30.788675714557037, 97.7412276322397, 25.973616139100805, 108.29447560479849 " fill="none" id="curve_1" stroke="#000000" stroke-linecap="round" stroke-linejoin="round" stroke-width="4.732034356300711"/>
  <path d="M 54.22397788477322, 104.07322914604617 Q 52.99440645548245, 100.24992152972663, 52.32195406422051, 70.18399511766124 " fill="none" id="curve_2" stroke="#000000" stroke-linecap="round" stroke-linejoin="round" stroke-width="4.615790692501197"/>
  <path d="M 52.32195406422051, 70.18399511766124 Q 54.09576744231348, 68.7382969817845, 54.40540759341633, 48.46190093793072 " fill="none" id="curve_2" stroke="#000000" stroke-linecap="round" stroke-linejoin="round" stroke-width="3.3153231741395603"/>
  <path d="M 56.30315691025409, 23.796481069837228 Q 56.18332099638218, 17.422149153875075, 55.67578065252801, 14.954335228890466 " fill="none" id="curve_3" stroke="#000000" stroke-linecap="round" stroke-linejoin="round" stroke-width="3.0211365356281585"/>
  <path d="M 40.52203715332204, 80.96602734249379 Q 34.35865390960559, 86.40763728163812, 28.33937380796505, 98.40181492965644 " fill="none" id="curve_5" stroke="#000000" stroke-linecap="round" stroke-linejoin="round" stroke-width="2.8253189794513114"/>
  <path d="M 55.233251052191946, 107.14220546921905 Q 54.93674063951865, 103.80026001647614, 54.12146988721335, 100.70473560413785 " fill="none" id="curve_6" stroke="#000000" stroke-linecap="round" stroke-linejoin="round" stroke-width="2.5751897624910267"/>
  <path d="M 54.12146988721335, 100.70473560413785 Q 52.701753951161095, 97.3848604294388, 51.63664182955857, 88.59215184660506 " fill="none" id="curve_6" stroke="#000000" stroke-linecap="round" stroke-linejoin="round" stroke-width="3.0530575538680114"/>
  <path d="M 36.13823979555518, 86.61299543011458 Q 39.843067748519765, 83.52862258488635, 42.82237893086217, 76.45962321907295 " fill="none" id="curve_14" stroke="#000000" stroke-linecap="round" stroke-linejoin="round" stroke-width="2.355247587583443"/>
  <path d="M 53.984586123320454, 50.940986949105465 Q 54.744313997075515, 49.72206039127247, 55.196114434970745, 46.457726746902345 " fill="none" id="curve_15" stroke="#000000" stroke-linecap="round" stroke-linejoin="round" stroke-width="3.1214817921793014"/>
  <path d="M 54.729579017939265, 76.90071305714923 Q 53.939582855881255, 77.14476801681168, 52.762932014372275, 77.5363486654128 " fill="none" id="curve_16" stroke="#000000" stroke-linecap="round" stroke-linejoin="round" stroke-width="3.1628124851721995"/>
  <path d="M 53.39757348698466, 99.13696491030635 Q 54.019854841485454, 98.68650726550659, 54.52661488363141, 97.65884733867232 " fill="none" id="curve_20" stroke="#000000" stroke-linecap="round" stroke-linejoin="round" stroke-width="4.6336022853421035"/>
  <path d="M 53.0670510217422, 67.65503041540887 Q 52.52176743564048, 67.54953945589438, 52.04006634160063, 67.29797708747108 " fill="none" id="curve_35" stroke="#000000" stroke-linecap="round" stroke-linejoin="round" stroke-width="3.9918766520677327"/>
  <path d="M 27.3132820805062, 107.56293154276764 Q 27.195970097021103, 106.13463391498628, 26.97543860479989, 104.26310510539015 " fill="none" id="curve_70" stroke="#000000" stroke-linecap="round" stroke-linejoin="round" stroke-width="3.1542749943118626"/>
  <path d="M 49.127695679262246, 57.794147367017786 Q 49.41814833318461, 57.20668376229047, 49.87973110922786, 56.032041603409326 " fill="none" id="curve_85" stroke="#000000" stroke-linecap="round" stroke-linejoin="round" stroke-width="2.302282200671187"/>
  <path d="M 56.813520332157054, 26.779073346058183 Q 56.85168470812782, 26.088620539511574, 56.93638849422777, 25.43180366973916 " fill="none" id="curve_93" stroke="#000000" stroke-linecap="round" stroke-linejoin="round" stroke-width="3.2031769872566684"/>
  <path d="M 51.85790189681063, 95.55679701143492 Q 52.26973391639905, 94.38760493670189, 52.62088422293023, 91.5792302794513 " fill="none" id="curve_108" stroke="#000000" stroke-linecap="round" stroke-linejoin="round" stroke-width="3.727123223000144"/>
  <path d="M 50.94446551269519, 62.582107165133046 Q 52.41589216915206, 65.46647401478269, 53.779165034715355, 70.46028585855274 " fill="none" id="curve_145" stroke="#000000" stroke-linecap="round" stroke-linejoin="round" stroke-width="2.515819920534301"/>
  <path d="M 49.397824304246, 55.44354698615503 Q 48.78497091192276, 57.115515366205265, 48.044853713754186, 59.86536504802726 " fill="none" id="curve_156" stroke="#000000" stroke-linecap="round" stroke-linejoin="round" stroke-width="2.5748632986804294"/>
  <path d="M 58.15707863151647, 12.95030294556318 Q 58.1657165782736, 12.87752197193612, 58.18203028250924, 12.783199560669491 " fill="none" id="curve_184" stroke="#000000" stroke-linecap="round" stroke-linejoin="round" stroke-width="2.1594373028847893"/>
</svg>
