<?xml version="1.0" ?>
<svg height="140" width="140" xmlns="http://www.w3.org/2000/svg">
  <path d="M 58.544803619384766, 61.427663803100586 Q 55.27520485762717, 70.30073773541636, 32.14391109196208, 81.85517644446509 " fill="none" id="curve_1" stroke="#000000" stroke-linecap="round" stroke-linejoin="round" stroke-width="5.300726324498626"/>
  <path d="M 32.14391109196208, 81.85517644446509 Q 30.610667107767878, 82.64803456333888, 29.208851634036836, 84.59857436764625 " fill="none" id="curve_1" stroke="#000000" stroke-linecap="round" stroke-linejoin="round" stroke-width="3.1054557033206613"/>
  <path d="M 68.10235619904934, 76.19776233529106 Q 69.24825924939569, 88.10713772162897, 71.15222959453477, 110.10861692469845 " fill="none" id="curve_2" stroke="#000000" stroke-linecap="round" stroke-linejoin="round" stroke-width="4.532923669215231"/>
  <path d="M 66.50523403256841, 78.20662680415018 Q 66.53260322316241, 52.40306318244641, 67.56344458551268, 49.25025798023011 " fill="none" id="curve_3" stroke="#000000" stroke-linecap="round" stroke-linejoin="round" stroke-width="6.135626607801875"/>
  <path d="M 67.56344458551268, 49.25025798023011 Q 66.89906284452532, 48.909662531400414, 66.86568973934077, 28.197570680136657 " fill="none" id="curve_3" stroke="#000000" stroke-linecap="round" stroke-linejoin="round" stroke-width="6.404113594858138"/>
  <path d="M 66.86568973934077, 28.197570680136657 Q 66.52467524936472, 23.70972399772452, 65.34487240294361, 21.96193038540903 " fill="none" id="curve_3" stroke="#000000" stroke-linecap="round" stroke-linejoin="round" stroke-width="6.84122679605763"/>
  <path d="M 64.87600167629411, 61.0905381270708 Q 57.33071914644051, 64.66835579638584, 50.02848774181328, 71.5115797581017 " fill="none" id="curve_4" stroke="#000000" stroke-linecap="round" stroke-linejoin="round" stroke-width="3.121643948635343"/>
  <path d="M 65.65852989958627, 55.455885834636106 Q 67.69476475498251, 53.919296472149405, 68.09176942353832, 36.61455794164287 " fill="none" id="curve_5" stroke="#000000" stroke-linecap="round" stroke-linejoin="round" stroke-width="4.833412639957308"/>
  <path d="M 68.09176942353832, 36.61455794164287 Q 70.19959010288711, 37.12777533902999, 70.30691480567197, 52.176074264880185 " fill="none" id="curve_5" stroke="#000000" stroke-linecap="round" stroke-linejoin="round" stroke-width="5.330810860581644"/>
  <path d="M 70.30691480567197, 52.176074264880185 Q 64.59659418668573, 51.95150975081987, 64.05208706973981, 35.447479352732856 " fill="none" id="curve_5" stroke="#000000" stroke-linecap="round" stroke-linejoin="round" stroke-width="4.065910789202414"/>
  <path d="M 64.05208706973981, 35.447479352732856 Q 64.13678196200897, 26.350179589534626, 65.9221771944904, 24.93578645787808 " fill="none" id="curve_5" stroke="#000000" stroke-linecap="round" stroke-linejoin="round" stroke-width="3.6541268346954983"/>
  <path d="M 65.9221771944904, 24.93578645787808 Q 67.59688446364764, 32.85820805254211, 71.4894200727016, 36.37065395918642 " fill="none" id="curve_5" stroke="#000000" stroke-linecap="round" stroke-linejoin="round" stroke-width="3.4201292224288276"/>
  <path d="M 63.84339971737018, 59.10631030048303 Q 64.3814738031431, 56.02937058750097, 64.67357517064482, 43.85941568804499 " fill="none" id="curve_6" stroke="#000000" stroke-linecap="round" stroke-linejoin="round" stroke-width="3.5038037135533133"/>
  <path d="M 56.39220155697164, 67.88730956759696 Q 45.93541859340217, 70.39436367702949, 39.04507840857316, 77.06575823351162 " fill="none" id="curve_7" stroke="#000000" stroke-linecap="round" stroke-linejoin="round" stroke-width="3.5782598625189976"/>
  <path d="M 72.34124985795097, 103.30302488650968 Q 71.83531825826186, 107.4550038708717, 70.84314285319213, 110.16695486006859 " fill="none" id="curve_9" stroke="#000000" stroke-linecap="round" stroke-linejoin="round" stroke-width="3.4286435694875617"/>
  <path d="M 66.98239089616992, 86.03858248511654 Q 66.06920591218073, 79.87961286067228, 64.98224536687556, 62.32490905731744 " fill="none" id="curve_10" stroke="#000000" stroke-linecap="round" stroke-linejoin="round" stroke-width="2.411578055188799"/>
  <path d="M 2.318243083147294, 79.85546066720099 Q 1.721566434387308, 85.99200786292829, 1.1320357847992961, 115.40965635718896 " fill="none" id="curve_13" stroke="#000000" stroke-linecap="round" stroke-linejoin="round" stroke-width="1.7348199576220094"/>
  <path d="M 1.1320357847992961, 115.40965635718896 Q 1.3566831594442694, 125.80931076996117, 1.6564947560329246, 137.6369861626168 " fill="none" id="curve_13" stroke="#000000" stroke-linecap="round" stroke-linejoin="round" stroke-width="2.487511817031502"/>
  <path d="M 1.6564947560329246, 137.6369861626168 Q 1.6240541014384524, 137.98055016905104, 1.5446317486414494, 138.24209669524015 " fill="none" id="curve_13" stroke="#000000" stroke-linecap="round" stroke-linejoin="round" stroke-width="2.361908285451738"/>
  <path d="M 48.668640327338906, 73.03182144921718 Q 52.64822950169511, 67.7383540495371, 60.990621526210894, 59.90006928213806 " fill="none" id="curve_16" stroke="#000000" stroke-linecap="round" stroke-linejoin="round" stroke-width="2.8540379027543907"/>
  <path d="M 71.10366259700865, 41.13215232518502 Q 69.62181602369147, 33.17268079625969, 64.87657722823262, 25.35477967056289 " fill="none" id="curve_17" stroke="#000000" stroke-linecap="round" stroke-linejoin="round" stroke-width="1.9645754440475631"/>
  <path d="M 2.7620976763691445, 78.19836772898235 Q 1.7575602312639507, 77.23881011147172, 1.5550182668213435, 56.50428889357477 " fill="none" id="curve_25" stroke="#000000" stroke-linecap="round" stroke-linejoin="round" stroke-width="2.0689468128522766"/>
  <path d="M 1.5550182668213435, 56.50428889357477 Q 1.5141888566461041, 49.535000861642416, 1.4442749865505704, 32.66181371901958 " fill="none" id="curve_25" stroke="#000000" stroke-linecap="round" stroke-linejoin="round" stroke-width="1.885763687608098"/>
  <path d="M 1.5844628549359414, 14.779050426978568 Q 1.3092373864077573, 15.533554863926657, 1.2334036267541024, 28.49529512454937 " fill="none" id="curve_26" stroke="#000000" stroke-linecap="round" stroke-linejoin="round" stroke-width="2.085977002798793"/>
  <path d="M 1.2334036267541024, 28.49529512454937 Q 1.2804593055682054, 31.160300364858553, 1.4585492206619208, 32.39806735730137 " fill="none" id="curve_26" stroke="#000000" stroke-linecap="round" stroke-linejoin="round" stroke-width="1.6114854821275488"/>
  <path d="M 1.4968450618339149, 14.198809700952548 Q 1.392126494638834, 10.136096814541256, 1.2702602992816638, 1.0113823717102282 " fill="none" id="curve_27" stroke="#000000" stroke-linecap="round" stroke-linejoin="round" stroke-width="1.7744669173177607"/>
  <path d="M 1.527363199909205, 14.822982498232292 Q 1.2254312757773371, 15.663228946440533, 1.0977699178931233, 19.352670900866812 " fill="none" id="curve_28" stroke="#000000" stroke-linecap="round" stroke-linejoin="round" stroke-width="1.271502903455932"/>
  <path d="M 69.34879656671819, 92.59914571226341 Q 68.65293457141458, 91.18220416565909, 67.81541103732278, 88.98561996021164 " fill="none" id="curve_43" stroke="#000000" stroke-linecap="round" stroke-linejoin="round" stroke-width="3.9360138262840336"/>
  <path d="M 51.8558030216285, 67.20421587701253 Q 53.51120729239274, 66.86696284096756, 57.20704410773773, 66.3594853206553 " fill="none" id="curve_71" stroke="#000000" stroke-linecap="round" stroke-linejoin="round" stroke-width="1.6322494646672627"/>
  <path d="M 70.33324879151647, 100.36204902756612 Q 70.89907886463405, 99.23838193037784, 71.27363093499417, 95.64775031108293 " fill="none" id="curve_86" stroke="#000000" stroke-linecap="round" stroke-linejoin="round" stroke-width="3.641770179535323"/>
  <path d="M 70.08444488898704, 110.48605543820085 Q 70.44629554750026, 108.56655686410538, 71.61681917249685, 105.90964775830032 " fill="none" id="curve_87" stroke="#000000" stroke-linecap="round" stroke-linejoin="round" stroke-width="2.3131774282146766"/>
  <path d="M 71.95490441123559, 100.84711203376492 Q 72.0330693729408, 100.99901423183286, 72.12841077847348, 101.30392810193212 " fill="none" id="curve_102" stroke="#000000" stroke-linecap="round" stroke-linejoin="round" stroke-width="2.576502752123428"/>
  <path d="M 68.09647450967026, 74.1233607392555 Q 68.15923623849373, 73.68628892842523, 68.26088003489984, 73.24831564028844 " fill="none" id="curve_104" stroke="#000000" stroke-linecap="round" stroke-linejoin="round" stroke-width="3.1966581248682564"/>
  <path d="M 64.13937793956718, 29.730608733292634 Q 64.23439049256568, 25.451379400500137, 66.50663635327128, 25.09502362507167 " fill="none" id="curve_107" stroke="#000000" stroke-linecap="round" stroke-linejoin="round" stroke-width="5.726658600156079"/>
  <path d="M 62.74023853253206, 21.66701521490358 Q 65.25701269793775, 22.09966938740598, 67.98704325885798, 22.940102390629335 " fill="none" id="curve_108" stroke="#000000" stroke-linecap="round" stroke-linejoin="round" stroke-width="2.8670055607440545"/>
  <path d="M 67.89969401517828, 24.706527297816137 Q 68.55093833920616, 25.548253761558765, 69.1912358382518, 27.174720077735167 " fill="none" id="curve_123" stroke="#000000" stroke-linecap="round" stroke-linejoin="round" stroke-width="2.6373481903804388"/>
  <path d="M 69.7178189602713, 32.01597283284946 Q 70.01693472362138, 32.0604179115566, 70.2892867115009, 32.17810368706136 " fill="none" id="curve_151" stroke="#000000" stroke-linecap="round" stroke-linejoin="round" stroke-width="2.8039047355946343"/>
</svg>
