<?xml version="1.0" ?>
<svg height="140" width="140" xmlns="http://www.w3.org/2000/svg">
  <path d="M 77.17026138305664, 39.51355266571045 Q 75.46954413260308, 39.86163017303405, 75.05064547678307, 44.92732274401351 " fill="none" id="curve_1" stroke="#000000" stroke-linecap="round" stroke-linejoin="round" stroke-width="7.699499867887798"/>
  <path d="M 75.05064547678307, 44.92732274401351 Q 69.96113788051136, 53.05624169845484, 57.58498028912376, 74.37013639691791 " fill="none" id="curve_1" stroke="#000000" stroke-linecap="round" stroke-linejoin="round" stroke-width="4.130018409901735"/>
  <path d="M 57.58498028912376, 74.37013639691791 Q 52.888599068985314, 84.48000939571898, 36.6833262957086, 110.18783614038938 " fill="none" id="curve_1" stroke="#000000" stroke-linecap="round" stroke-linejoin="round" stroke-width="4.996027239273046"/>
  <path d="M 36.6833262957086, 110.18783614038938 Q 34.895852776033934, 112.69416262309835, 32.55419363414228, 115.44905160204891 " fill="none" id="curve_1" stroke="#000000" stroke-linecap="round" stroke-linejoin="round" stroke-width="5.396307418686533"/>
  <path d="M 76.91114999617633, 105.48453216538962 Q 75.13777143627114, 104.20587815043349, 74.79387421915327, 68.67535966905575 " fill="none" id="curve_2" stroke="#000000" stroke-linecap="round" stroke-linejoin="round" stroke-width="5.018515747716575"/>
  <path d="M 74.79387421915327, 68.67535966905575 Q 75.59074697433974, 60.66320048173026, 76.57650567948134, 45.625125943827015 " fill="none" id="curve_2" stroke="#000000" stroke-linecap="round" stroke-linejoin="round" stroke-width="3.9824214573949694"/>
  <path d="M 76.57650567948134, 45.625125943827015 Q 76.56845569036292, 40.17306011574898, 76.53209209393027, 38.67109815280861 " fill="none" id="curve_2" stroke="#000000" stroke-linecap="round" stroke-linejoin="round" stroke-width="5.76745284178712"/>
  <path d="M 78.93980018328415, 106.88462211976893 Q 79.6698147822276, 108.97710827746266, 81.04994750107473, 110.84740867006175 " fill="none" id="curve_4" stroke="#000000" stroke-linecap="round" stroke-linejoin="round" stroke-width="4.390332055907393"/>
  <path d="M 81.04994750107473, 110.84740867006175 Q 78.71761145048107, 103.63400674071083, 73.62197083138916, 97.23742989983054 " fill="none" id="curve_4" stroke="#000000" stroke-linecap="round" stroke-linejoin="round" stroke-width="3.3418078791918266"/>
  <path d="M 73.62197083138916, 97.23742989983054 Q 73.81762642930268, 81.51694265025792, 74.773757878754, 69.00405953039268 " fill="none" id="curve_4" stroke="#000000" stroke-linecap="round" stroke-linejoin="round" stroke-width="3.009414514478715"/>
  <path d="M 61.3981432593317, 65.78731401838756 Q 57.28975219527656, 74.44178526779761, 43.2935391953788, 94.5184035213865 " fill="none" id="curve_5" stroke="#000000" stroke-linecap="round" stroke-linejoin="round" stroke-width="3.574527931537453"/>
  <path d="M 43.2935391953788, 94.5184035213865 Q 41.05175477633135, 103.82508740475049, 34.22171432159231, 109.39533845408943 " fill="none" id="curve_5" stroke="#000000" stroke-linecap="round" stroke-linejoin="round" stroke-width="3.070084241883335"/>
  <path d="M 34.22171432159231, 109.39533845408943 Q 42.72999144575888, 107.68849268108288, 47.016679837665464, 95.19302102144265 " fill="none" id="curve_5" stroke="#000000" stroke-linecap="round" stroke-linejoin="round" stroke-width="2.357985109132961"/>
  <path d="M 58.23023291953165, 73.00232366553965 Q 62.01173611319182, 65.43974381592373, 67.86405264055423, 53.91154175541871 " fill="none" id="curve_6" stroke="#000000" stroke-linecap="round" stroke-linejoin="round" stroke-width="2.3872126181692828"/>
  <path d="M 67.86405264055423, 53.91154175541871 Q 70.25843775002137, 45.55119564198952, 77.40508999556664, 40.13009921874224 " fill="none" id="curve_6" stroke="#000000" stroke-linecap="round" stroke-linejoin="round" stroke-width="4.829650324587684"/>
  <path d="M 77.40508999556664, 40.13009921874224 Q 77.135620674856, 41.50422485412839, 76.71077568667644, 42.770431427792154 " fill="none" id="curve_6" stroke="#000000" stroke-linecap="round" stroke-linejoin="round" stroke-width="5.895487939767541"/>
  <path d="M 76.02512433718915, 80.77384897788113 Q 75.7965593891175, 68.17965284392051, 74.31703695437014, 62.74692739290319 " fill="none" id="curve_14" stroke="#000000" stroke-linecap="round" stroke-linejoin="round" stroke-width="2.51685078339174"/>
  <path d="M 61.25417881529545, 67.79741593273296 Q 59.839934816143504, 71.25121924414748, 57.66275149427841, 74.77829903959952 " fill="none" id="curve_16" stroke="#000000" stroke-linecap="round" stroke-linejoin="round" stroke-width="5.492630338737619"/>
  <path d="M 56.37816570646139, 73.1937378566303 Q 59.81462779294751, 67.38557400528765, 66.42597364716059, 60.658187390655776 " fill="none" id="curve_26" stroke="#000000" stroke-linecap="round" stroke-linejoin="round" stroke-width="2.3020065347302654"/>
  <path d="M 73.04503194147058, 47.478800021707 Q 73.26954361984566, 39.59703061361359, 76.10874317310221, 37.8381813717978 " fill="none" id="curve_27" stroke="#000000" stroke-linecap="round" stroke-linejoin="round" stroke-width="2.9793123415511844"/>
  <path d="M 73.24119470643457, 72.8796934223052 Q 73.21506292782988, 69.7127287406398, 73.18488791955484, 63.031566536624155 " fill="none" id="curve_29" stroke="#000000" stroke-linecap="round" stroke-linejoin="round" stroke-width="1.8963183407843298"/>
  <path d="M 63.07105392109642, 62.015293210781934 Q 61.73130171147471, 62.8755366309212, 60.05066510739845, 65.18389840267785 " fill="none" id="curve_30" stroke="#000000" stroke-linecap="round" stroke-linejoin="round" stroke-width="2.242064542453523"/>
</svg>
