<?xml version="1.0" ?>
<svg height="140" width="140" xmlns="http://www.w3.org/2000/svg">
  <path d="M 71.42347592170836, 21.647163687543156 Q 67.12256055928657, 28.800494735477873, 56.95249148047162, 43.63496674370174 " fill="none" id="curve_2" stroke="#000000" stroke-linecap="round" stroke-linejoin="round" stroke-width="6.892952631476317"/>
  <path d="M 56.95249148047162, 43.63496674370174 Q 53.30679956864461, 51.84555169947898, 42.107492699358815, 65.99630586309922 " fill="none" id="curve_2" stroke="#000000" stroke-linecap="round" stroke-linejoin="round" stroke-width="5.926417983605915"/>
  <path d="M 42.107492699358815, 65.99630586309922 Q 35.324945333160024, 78.6482828105957, 20.343229621729, 93.96424271063167 " fill="none" id="curve_2" stroke="#000000" stroke-linecap="round" stroke-linejoin="round" stroke-width="4.191239230416849"/>
  <path d="M 40.46373349701982, 102.62515076379947 Q 41.52103123187061, 82.00343885531004, 52.440997726233164, 60.79522543883391 " fill="none" id="curve_3" stroke="#000000" stroke-linecap="round" stroke-linejoin="round" stroke-width="4.674783514291749"/>
  <path d="M 52.440997726233164, 60.79522543883391 Q 56.96823941136274, 50.589009913724716, 65.1305453152868, 33.61184218745723 " fill="none" id="curve_3" stroke="#000000" stroke-linecap="round" stroke-linejoin="round" stroke-width="3.121755235291083"/>
  <path d="M 65.1305453152868, 33.61184218745723 Q 66.31500634654601, 29.20401986957341, 69.28118176842742, 26.38399654669332 " fill="none" id="curve_3" stroke="#000000" stroke-linecap="round" stroke-linejoin="round" stroke-width="3.536699141765992"/>
  <path d="M 27.270502417776395, 86.58723825153851 Q 24.269299470586187, 90.99705978648619, 18.640316013408714, 95.37566100477984 " fill="none" id="curve_6" stroke="#000000" stroke-linecap="round" stroke-linejoin="round" stroke-width="3.152633692045845"/>
  <path d="M 35.142664611564776, 74.83243385100283 Q 30.71668666539438, 83.74155932899767, 21.39240388288411, 92.85726669361034 " fill="none" id="curve_7" stroke="#000000" stroke-linecap="round" stroke-linejoin="round" stroke-width="3.028223860328923"/>
  <path d="M 33.88886354255531, 77.50471282463796 Q 28.929015253284355, 85.36330321165643, 19.59245131488131, 95.12226387291084 " fill="none" id="curve_10" stroke="#000000" stroke-linecap="round" stroke-linejoin="round" stroke-width="2.4696497347313593"/>
  <path d="M 51.53472041988243, 51.58108229762911 Q 46.874792251079896, 55.790942842362, 41.55007001428833, 64.50585722974294 " fill="none" id="curve_25" stroke="#000000" stroke-linecap="round" stroke-linejoin="round" stroke-width="2.852942940926996"/>
  <path d="M 63.658047912991606, 32.94785690564913 Q 66.84806530656411, 30.807791359306357, 69.03321844741448, 25.965783510733694 " fill="none" id="curve_40" stroke="#000000" stroke-linecap="round" stroke-linejoin="round" stroke-width="3.571010262206997"/>
  <path d="M 69.03321844741448, 25.965783510733694 Q 64.31939711160064, 33.197572642559194, 53.76947624611276, 42.71793108998224 " fill="none" id="curve_40" stroke="#000000" stroke-linecap="round" stroke-linejoin="round" stroke-width="3.449520324719918"/>
  <path d="M 31.726951506245015, 79.04037989631698 Q 32.40126910597027, 78.3586363540863, 33.46357098953484, 76.93518770059933 " fill="none" id="curve_43" stroke="#000000" stroke-linecap="round" stroke-linejoin="round" stroke-width="2.8800078759009464"/>
  <path d="M 51.02545910158403, 66.62848658562137 Q 48.415635134853325, 74.90696542145804, 42.77018135352496, 83.73303983101522 " fill="none" id="curve_58" stroke="#000000" stroke-linecap="round" stroke-linejoin="round" stroke-width="2.541691162921277"/>
  <path d="M 42.77018135352496, 83.73303983101522 Q 39.6317710627374, 85.34308247540127, 39.04314584340088, 96.72891630302115 " fill="none" id="curve_58" stroke="#000000" stroke-linecap="round" stroke-linejoin="round" stroke-width="2.658734508536713"/>
  <path d="M 32.77427180626156, 79.5838550067146 Q 30.65796229518489, 80.53035074720002, 27.92817226881978, 82.96025531446956 " fill="none" id="curve_59" stroke="#000000" stroke-linecap="round" stroke-linejoin="round" stroke-width="3.170788648056885"/>
  <path d="M 41.92453831927969, 104.23198378385042 Q 41.68920617753977, 103.84235682411699, 41.368242249775655, 103.25107918393783 " fill="none" id="curve_74" stroke="#000000" stroke-linecap="round" stroke-linejoin="round" stroke-width="3.225588884212388"/>
  <path d="M 64.75705632582225, 34.74646970779601 Q 65.89609477391795, 28.449367313317914, 69.88783597265203, 25.06723259873419 " fill="none" id="curve_77" stroke="#000000" stroke-linecap="round" stroke-linejoin="round" stroke-width="3.2006673899692855"/>
  <path d="M 65.67182883927956, 30.401530918388744 Q 66.61317243066331, 27.042063861029945, 69.365691974431, 24.70440094082925 " fill="none" id="curve_92" stroke="#000000" stroke-linecap="round" stroke-linejoin="round" stroke-width="3.400893537062365"/>
  <path d="M 19.83282429681877, 93.33861511348722 Q 28.11738153628135, 89.08277420578437, 35.79870518189389, 76.33740738778634 " fill="none" id="curve_99" stroke="#000000" stroke-linecap="round" stroke-linejoin="round" stroke-width="2.5544577287347123"/>
  <path d="M 63.118932357814145, 32.38008213041235 Q 67.1229522527195, 31.099677706336113, 69.00838521659799, 27.075367664480567 " fill="none" id="curve_114" stroke="#000000" stroke-linecap="round" stroke-linejoin="round" stroke-width="3.8691568633729103"/>
  <path d="M 40.84826625707164, 63.97390675063811 Q 39.010399323609064, 68.11952110200973, 36.08594263727038, 75.47302163613804 " fill="none" id="curve_115" stroke="#000000" stroke-linecap="round" stroke-linejoin="round" stroke-width="2.959792092189555"/>
  <path d="M 32.2269754604074, 79.75035256992942 Q 33.00026774452722, 79.50835871377957, 33.762311596457884, 78.97698340076205 " fill="none" id="curve_130" stroke="#000000" stroke-linecap="round" stroke-linejoin="round" stroke-width="3.9043026690478166"/>
  <path d="M 19.2807429835495, 94.68310115722983 Q 19.81437678198506, 94.52002029454937, 20.960519152207986, 94.26714244920282 " fill="none" id="curve_160" stroke="#000000" stroke-linecap="round" stroke-linejoin="round" stroke-width="2.4725219265696756"/>
</svg>
