<?xml version="1.0" ?>
<svg height="140" width="140" xmlns="http://www.w3.org/2000/svg">
  <path d="M 54.77242469787598, 32.17231750488281 Q 49.51536564969447, 33.79365841170612, 45.67077240835704, 42.330767611282795 " fill="none" id="curve_1" stroke="#000000" stroke-linecap="round" stroke-linejoin="round" stroke-width="7.545748119013385"/>
  <path d="M 45.67077240835704, 42.330767611282795 Q 40.55174522199783, 48.437425271018704, 25.25180973372389, 67.41392196400218 " fill="none" id="curve_1" stroke="#000000" stroke-linecap="round" stroke-linejoin="round" stroke-width="4.906883566684822"/>
  <path d="M 25.25180973372389, 67.41392196400218 Q 24.081682291527155, 69.57403130208718, 19.93532227073417, 70.49782935311586 " fill="none" id="curve_1" stroke="#000000" stroke-linecap="round" stroke-linejoin="round" stroke-width="3.9876420680166444"/>
  <path d="M 53.020721735056306, 52.320624186631875 Q 54.19982083649822, 48.57180051702556, 55.066547138545964, 32.709575569165445 " fill="none" id="curve_2" stroke="#000000" stroke-linecap="round" stroke-linejoin="round" stroke-width="5.653627672635585"/>
  <path d="M 52.706329980284146, 55.83882952479758 Q 50.572019176376045, 68.61978220363254, 43.37858000015018, 93.76820347589324 " fill="none" id="curve_3" stroke="#000000" stroke-linecap="round" stroke-linejoin="round" stroke-width="6.806549823226659"/>
  <path d="M 43.37858000015018, 93.76820347589324 Q 42.162390857403224, 104.3037817886706, 40.33481868245326, 112.18067397824815 " fill="none" id="curve_3" stroke="#000000" stroke-linecap="round" stroke-linejoin="round" stroke-width="7.535683514465391"/>
  <path d="M 40.33481868245326, 112.18067397824815 Q 41.50411747767907, 110.49434954407522, 42.87629915138749, 108.81594416639837 " fill="none" id="curve_3" stroke="#000000" stroke-linecap="round" stroke-linejoin="round" stroke-width="8.327767329591836"/>
  <path d="M 90.25412167023157, 137.4975259724534 Q 89.97633133971173, 137.68091907542868, 89.52924039984735, 137.92169676449993 " fill="none" id="curve_5" stroke="#000000" stroke-linecap="round" stroke-linejoin="round" stroke-width="2.432835695505808"/>
  <path d="M 40.80312553638008, 100.5251893590859 Q 38.46262827516609, 103.13359939339452, 37.35857566190947, 110.82776124646898 " fill="none" id="curve_6" stroke="#000000" stroke-linecap="round" stroke-linejoin="round" stroke-width="3.4847346665409096"/>
  <path d="M 43.614181834038604, 94.97846153564493 Q 43.40760449041164, 93.66594767873269, 43.33239680409811, 86.53803884603832 " fill="none" id="curve_7" stroke="#000000" stroke-linecap="round" stroke-linejoin="round" stroke-width="4.183562108590865"/>
  <path d="M 43.33239680409811, 86.53803884603832 Q 45.056649875378504, 80.51800323827113, 47.73257029958366, 72.37485056290237 " fill="none" id="curve_7" stroke="#000000" stroke-linecap="round" stroke-linejoin="round" stroke-width="3.915652527439683"/>
  <path d="M 47.73257029958366, 72.37485056290237 Q 48.1693490726599, 58.164617068746416, 53.06176838988695, 53.14633164923707 " fill="none" id="curve_7" stroke="#000000" stroke-linecap="round" stroke-linejoin="round" stroke-width="3.1683123511659717"/>
  <path d="M 54.46240085447806, 31.304058199452474 Q 54.02539493295309, 31.31296440885547, 53.63112063476572, 31.329861398780118 " fill="none" id="curve_8" stroke="#000000" stroke-linecap="round" stroke-linejoin="round" stroke-width="4.808899590001037"/>
  <path d="M 89.2692809676569, 36.93070317409864 Q 89.6433063044958, 35.24920415401019, 89.75534851665277, 14.72901918097077 " fill="none" id="curve_9" stroke="#000000" stroke-linecap="round" stroke-linejoin="round" stroke-width="1.7739501359391567"/>
  <path d="M 89.75534851665277, 14.72901918097077 Q 89.72216065075233, 7.677350143883507, 89.6294349348465, 1.9814373967303425 " fill="none" id="curve_9" stroke="#000000" stroke-linecap="round" stroke-linejoin="round" stroke-width="2.0769452731685"/>
  <path d="M 89.64823756493486, 56.14487183297854 Q 89.55122520642394, 56.239566896005144, 89.44779893001497, 56.443133999239954 " fill="none" id="curve_12" stroke="#000000" stroke-linecap="round" stroke-linejoin="round" stroke-width="2.004729782216129"/>
  <path d="M 55.76590936514169, 54.32191868783687 Q 52.70339487384396, 52.37124151317927, 50.57472307431241, 44.14612815978018 " fill="none" id="curve_13" stroke="#000000" stroke-linecap="round" stroke-linejoin="round" stroke-width="2.7439627820810366"/>
  <path d="M 28.88787012924341, 60.64452745018322 Q 25.696020472326396, 62.79603871867731, 24.016885242239272, 68.47562626124629 " fill="none" id="curve_14" stroke="#000000" stroke-linecap="round" stroke-linejoin="round" stroke-width="3.3591493394089533"/>
  <path d="M 24.016885242239272, 68.47562626124629 Q 29.74518318657448, 60.70180121659317, 38.37534850537651, 48.84652014963231 " fill="none" id="curve_14" stroke="#000000" stroke-linecap="round" stroke-linejoin="round" stroke-width="3.4162990348548856"/>
  <path d="M 54.97231399550554, 30.897834728217852 Q 52.8938352863653, 32.85833841516414, 50.01072050501487, 36.23067547348658 " fill="none" id="curve_17" stroke="#000000" stroke-linecap="round" stroke-linejoin="round" stroke-width="3.772466410519452"/>
  <path d="M 48.921559906967985, 77.13569053724794 Q 49.04041197642297, 71.51134343582454, 49.412930146037226, 64.742391631961 " fill="none" id="curve_20" stroke="#000000" stroke-linecap="round" stroke-linejoin="round" stroke-width="3.922567126894674"/>
  <path d="M 51.777611875298135, 67.77918328263391 Q 48.923159883774574, 79.08206754652993, 42.93143143513129, 98.05593337667604 " fill="none" id="curve_22" stroke="#000000" stroke-linecap="round" stroke-linejoin="round" stroke-width="3.0241054246875567"/>
  <path d="M 53.2551900431729, 33.386730918966414 Q 53.20269901368056, 32.778643808132614, 53.09366245453314, 31.820654180309262 " fill="none" id="curve_24" stroke="#000000" stroke-linecap="round" stroke-linejoin="round" stroke-width="4.074780179085868"/>
  <path d="M 51.45950259544816, 34.80217329914335 Q 52.04755848827821, 40.70617397744608, 55.616613657295, 42.762914662619416 " fill="none" id="curve_26" stroke="#000000" stroke-linecap="round" stroke-linejoin="round" stroke-width="3.478155503888082"/>
  <path d="M 43.55983930676169, 93.25382466519346 Q 44.09709453465244, 92.29546414273631, 45.06315297324237, 90.68267807518329 " fill="none" id="curve_29" stroke="#000000" stroke-linecap="round" stroke-linejoin="round" stroke-width="4.065492486311023"/>
  <path d="M 46.36404324533737, 69.91619894660664 Q 47.128287299381256, 68.98556317017969, 48.09100866510529, 65.58258275441494 " fill="none" id="curve_44" stroke="#000000" stroke-linecap="round" stroke-linejoin="round" stroke-width="2.1928012476774508"/>
  <path d="M 36.165266089623444, 51.56913563158997 Q 38.23424759309503, 47.53831043491847, 43.50935453578119, 43.59857751560449 " fill="none" id="curve_65" stroke="#000000" stroke-linecap="round" stroke-linejoin="round" stroke-width="2.8029520381410933"/>
  <path d="M 47.40454064363689, 87.99635854352525 Q 46.958488408327575, 93.56671254444154, 44.402953638468695, 95.46193305583954 " fill="none" id="curve_80" stroke="#000000" stroke-linecap="round" stroke-linejoin="round" stroke-width="2.1766283584882125"/>
  <path d="M 44.402953638468695, 95.46193305583954 Q 42.32124422390362, 94.49401708475166, 40.22818541868252, 89.94237751904927 " fill="none" id="curve_80" stroke="#000000" stroke-linecap="round" stroke-linejoin="round" stroke-width="2.527467215917675"/>
  <path d="M 53.743688904358905, 49.72131322596513 Q 53.76855868550426, 50.21634993387967, 53.794723428595525, 51.112083587905076 " fill="none" id="curve_85" stroke="#000000" stroke-linecap="round" stroke-linejoin="round" stroke-width="4.219560623039915"/>
  <path d="M 51.983442280403864, 50.784647442826554 Q 52.76859632742381, 51.05991376892342, 53.6706522997026, 51.689247313616974 " fill="none" id="curve_100" stroke="#000000" stroke-linecap="round" stroke-linejoin="round" stroke-width="3.5556006655847194"/>
</svg>
