<?xml version="1.0" ?>
<svg height="140" width="140" xmlns="http://www.w3.org/2000/svg">
  <path d="M 87.71784679631185, 138.85613354194743 Q 88.6928069912987, 138.3027712001821, 89.27291654508451, 136.4114250433645 " fill="none" id="curve_2" stroke="#000000" stroke-linecap="round" stroke-linejoin="round" stroke-width="2.5297323245551167"/>
  <path d="M 89.27291654508451, 136.4114250433645 Q 89.30140886156035, 131.5901301951311, 89.33028659916539, 111.5791794134307 " fill="none" id="curve_2" stroke="#000000" stroke-linecap="round" stroke-linejoin="round" stroke-width="2.1963861011948134"/>
  <path d="M 89.33028659916539, 111.5791794134307 Q 89.28550121143834, 105.51734998903704, 89.1997963305613, 89.97229533477956 " fill="none" id="curve_2" stroke="#000000" stroke-linecap="round" stroke-linejoin="round" stroke-width="2.3003333562756265"/>
  <path d="M 89.1997963305613, 89.97229533477956 Q 89.19917481042472, 83.23406254055939, 89.19712842787858, 69.74131844246895 " fill="none" id="curve_2" stroke="#000000" stroke-linecap="round" stroke-linejoin="round" stroke-width="2.479500930933454"/>
  <path d="M 89.19712842787858, 69.74131844246895 Q 89.18808709874489, 62.38242547884658, 89.15059103432249, 51.412960149991044 " fill="none" id="curve_2" stroke="#000000" stroke-linecap="round" stroke-linejoin="round" stroke-width="2.4056385178048934"/>
  <path d="M 89.15059103432249, 51.412960149991044 Q 89.15324095870169, 44.22680730973997, 89.16474686042595, 33.35783656651871 " fill="none" id="curve_2" stroke="#000000" stroke-linecap="round" stroke-linejoin="round" stroke-width="2.452881711732642"/>
  <path d="M 89.16474686042595, 33.35783656651871 Q 89.1621138740383, 25.876296276891008, 89.14995630547918, 15.47449139209344 " fill="none" id="curve_2" stroke="#000000" stroke-linecap="round" stroke-linejoin="round" stroke-width="2.4113763144650138"/>
  <path d="M 89.14995630547918, 15.47449139209344 Q 89.13127806660398, 3.7272131023810218, 88.87386952587161, 1.4445550373271008 " fill="none" id="curve_2" stroke="#000000" stroke-linecap="round" stroke-linejoin="round" stroke-width="2.3123151711053547"/>
  <path d="M 88.87386952587161, 1.4445550373271008 Q 88.47640144755216, 1.497791543194942, 88.06391407153902, 1.5758967695855723 " fill="none" id="curve_2" stroke="#000000" stroke-linecap="round" stroke-linejoin="round" stroke-width="2.627249430290037"/>
  <path d="M 44.32262131724503, 63.552163319722276 Q 44.615164439008886, 61.64433948240856, 44.83277045436191, 37.39072318992764 " fill="none" id="curve_8" stroke="#000000" stroke-linecap="round" stroke-linejoin="round" stroke-width="5.126714781415367"/>
  <path d="M 44.83277045436191, 37.39072318992764 Q 43.317116416883486, 49.99797382437559, 40.952176522900956, 65.47538951499016 " fill="none" id="curve_8" stroke="#000000" stroke-linecap="round" stroke-linejoin="round" stroke-width="4.898195728600174"/>
  <path d="M 40.952176522900956, 65.47538951499016 Q 40.26305947318526, 85.71775968212494, 35.23162570895431, 108.79987005316345 " fill="none" id="curve_8" stroke="#000000" stroke-linecap="round" stroke-linejoin="round" stroke-width="5.213213746528874"/>
  <path d="M 35.23162570895431, 108.79987005316345 Q 35.11741504577264, 117.00383817645945, 34.58982058162878, 120.08246837230007 " fill="none" id="curve_8" stroke="#000000" stroke-linecap="round" stroke-linejoin="round" stroke-width="4.151233894999692"/>
  <path d="M 37.65475105840626, 87.56779882017682 Q 39.1495480907339, 75.07624918930432, 44.370643082749524, 66.65319309233426 " fill="none" id="curve_9" stroke="#000000" stroke-linecap="round" stroke-linejoin="round" stroke-width="3.8290754844517374"/>
  <path d="M 45.30952533809807, 42.80721296747171 Q 44.585659876572194, 39.5625138591666, 43.5774655481583, 36.20435585086083 " fill="none" id="curve_10" stroke="#000000" stroke-linecap="round" stroke-linejoin="round" stroke-width="5.060464789192187"/>
  <path d="M 43.5774655481583, 36.20435585086083 Q 44.67549277432457, 44.181962780460715, 45.97831573791956, 51.19875540016118 " fill="none" id="curve_10" stroke="#000000" stroke-linecap="round" stroke-linejoin="round" stroke-width="3.151872621199966"/>
  <path d="M 41.97578782683654, 73.52492179221807 Q 37.06477371039036, 75.44382270767687, 35.848445207179125, 93.46837720666362 " fill="none" id="curve_11" stroke="#000000" stroke-linecap="round" stroke-linejoin="round" stroke-width="2.904801756379508"/>
  <path d="M 36.202633163834825, 102.42187345303509 Q 36.69382536914927, 98.14837882257935, 37.816717858055505, 94.52008339539879 " fill="none" id="curve_12" stroke="#000000" stroke-linecap="round" stroke-linejoin="round" stroke-width="3.6661080912029167"/>
  <path d="M 39.2676673869005, 71.82322450846422 Q 39.638429696215255, 73.46154588836718, 40.21564231975094, 76.58029078677187 " fill="none" id="curve_28" stroke="#000000" stroke-linecap="round" stroke-linejoin="round" stroke-width="2.7341400151097557"/>
  <path d="M 35.354391347969624, 101.39784122976926 Q 36.510034707988915, 97.6470706619834, 38.81207368436385, 89.63882711620532 " fill="none" id="curve_31" stroke="#000000" stroke-linecap="round" stroke-linejoin="round" stroke-width="2.4952691640264115"/>
  <path d="M 89.00830843939833, 136.73906705181437 Q 88.86219556729785, 136.85097036219196, 88.35672919032187, 136.92144287927178 " fill="none" id="curve_40" stroke="#000000" stroke-linecap="round" stroke-linejoin="round" stroke-width="2.6052604253208833"/>
  <path d="M 88.78332043606906, 138.14833283696683 Q 88.77814946572207, 138.41724966753054, 88.76147874515868, 138.58164562863266 " fill="none" id="curve_43" stroke="#000000" stroke-linecap="round" stroke-linejoin="round" stroke-width="2.6181157210970225"/>
</svg>
