<?xml version="1.0" ?>
<svg height="140" width="140" xmlns="http://www.w3.org/2000/svg">
  <path d="M 66.21637630462646, 26.361343383789062 Q 65.95676833541901, 24.708216831172717, 63.1851900854339, 24.162130818536525 " fill="none" id="curve_1" stroke="#000000" stroke-linecap="round" stroke-linejoin="round" stroke-width="7.6576242838650375"/>
  <path d="M 63.1851900854339, 24.162130818536525 Q 59.92199361444062, 31.29985707787927, 55.36899197751762, 40.06070478048139 " fill="none" id="curve_1" stroke="#000000" stroke-linecap="round" stroke-linejoin="round" stroke-width="10.0828524436239"/>
  <path d="M 55.36899197751762, 40.06070478048139 Q 50.51358709273374, 48.36201931037136, 43.51336448974245, 58.99014594930344 " fill="none" id="curve_1" stroke="#000000" stroke-linecap="round" stroke-linejoin="round" stroke-width="13.640758421409185"/>
  <path d="M 43.51336448974245, 58.99014594930344 Q 35.56718301278488, 70.24351930745135, 17.345748997895235, 82.54799270764212 " fill="none" id="curve_1" stroke="#000000" stroke-linecap="round" stroke-linejoin="round" stroke-width="7.033813289679331"/>
  <path d="M 31.25781850368666, 115.25291688146015 Q 37.139080379532146, 106.8568770125938, 45.154443608954026, 69.78409037948202 " fill="none" id="curve_2" stroke="#000000" stroke-linecap="round" stroke-linejoin="round" stroke-width="7.346222490810466"/>
  <path d="M 45.154443608954026, 69.78409037948202 Q 52.88097514451464, 58.682916120377506, 64.5720311956456, 28.021530166390313 " fill="none" id="curve_2" stroke="#000000" stroke-linecap="round" stroke-linejoin="round" stroke-width="3.749825477881506"/>
  <path d="M 23.58216417322589, 77.7001467699545 Q 16.9211090627739, 77.97522669515405, 15.178807072008622, 80.62918566014086 " fill="none" id="curve_3" stroke="#000000" stroke-linecap="round" stroke-linejoin="round" stroke-width="5.330133685397131"/>
  <path d="M 35.05338388018002, 113.96431610065324 Q 34.73418432239861, 113.28604287992367, 34.61194704517, 109.01444910386796 " fill="none" id="curve_4" stroke="#000000" stroke-linecap="round" stroke-linejoin="round" stroke-width="10.194238040663043"/>
  <path d="M 34.61194704517, 109.01444910386796 Q 37.959612363325135, 88.592572728445, 50.351542682209576, 66.59014654884649 " fill="none" id="curve_4" stroke="#000000" stroke-linecap="round" stroke-linejoin="round" stroke-width="3.925604089250868"/>
  <path d="M 63.99086001739806, 33.326935568684746 Q 64.712542045071, 29.31745227599668, 66.24715026065492, 24.391893144902692 " fill="none" id="curve_5" stroke="#000000" stroke-linecap="round" stroke-linejoin="round" stroke-width="4.230204831176771"/>
  <path d="M 29.027670958457605, 75.22072268671793 Q 16.86964495464772, 75.73333881520271, 15.011770499789952, 83.78509662602413 " fill="none" id="curve_6" stroke="#000000" stroke-linecap="round" stroke-linejoin="round" stroke-width="4.403360596734108"/>
  <path d="M 29.006012760360818, 110.95312766072986 Q 29.990904568207423, 110.92576212350446, 31.45292245539536, 110.88327059688669 " fill="none" id="curve_7" stroke="#000000" stroke-linecap="round" stroke-linejoin="round" stroke-width="5.83287960311661"/>
  <path d="M 15.96391930134051, 79.76099330834433 Q 18.53844572359935, 75.31434375163629, 30.07546771620475, 72.50331651039106 " fill="none" id="curve_8" stroke="#000000" stroke-linecap="round" stroke-linejoin="round" stroke-width="3.097559566026007"/>
  <path d="M 59.22450119587398, 41.04172048221099 Q 61.9236207634301, 39.669375800017356, 63.358659710210944, 35.250786284162324 " fill="none" id="curve_9" stroke="#000000" stroke-linecap="round" stroke-linejoin="round" stroke-width="3.444212303915159"/>
  <path d="M 67.29188143866725, 24.726769544742943 Q 66.30655219429043, 24.695702407688003, 64.14474350689903, 24.665832735970028 " fill="none" id="curve_10" stroke="#000000" stroke-linecap="round" stroke-linejoin="round" stroke-width="4.020755433804906"/>
  <path d="M 27.15609599749898, 74.26346916024339 Q 25.130016213639784, 80.79949769205246, 18.080327844905987, 83.56963542215196 " fill="none" id="curve_13" stroke="#000000" stroke-linecap="round" stroke-linejoin="round" stroke-width="4.126218535739765"/>
  <path d="M 41.49945338914287, 92.22945502177902 Q 41.73328873060424, 78.20900336827059, 44.0788176730014, 74.75785287108602 " fill="none" id="curve_14" stroke="#000000" stroke-linecap="round" stroke-linejoin="round" stroke-width="4.657242154830087"/>
  <path d="M 39.60831824486942, 93.66868175990464 Q 40.82253665918055, 81.70634080398955, 45.07218419309725, 74.21447438651643 " fill="none" id="curve_15" stroke="#000000" stroke-linecap="round" stroke-linejoin="round" stroke-width="4.5679920747849465"/>
  <path d="M 39.30997113639787, 98.4755721097119 Q 40.89793030774766, 83.25541918336806, 45.77072149258963, 67.14163968729534 " fill="none" id="curve_18" stroke="#000000" stroke-linecap="round" stroke-linejoin="round" stroke-width="3.4653994938282078"/>
  <path d="M 41.918372118456524, 84.67498224924698 Q 42.41729159602447, 81.1646982282036, 43.20342619076432, 75.04947214022054 " fill="none" id="curve_19" stroke="#000000" stroke-linecap="round" stroke-linejoin="round" stroke-width="4.281282954025894"/>
  <path d="M 40.46900376455624, 92.7993750047315 Q 41.32167510074909, 80.0284805548527, 45.60878715828575, 73.50283705107202 " fill="none" id="curve_20" stroke="#000000" stroke-linecap="round" stroke-linejoin="round" stroke-width="4.825609853341663"/>
  <path d="M 39.258597801640455, 90.93643109736544 Q 41.23141774130317, 82.56283749017828, 45.51276098728631, 73.9924009626034 " fill="none" id="curve_21" stroke="#000000" stroke-linecap="round" stroke-linejoin="round" stroke-width="4.750495142035284"/>
  <path d="M 39.03184778747822, 92.40407319458183 Q 41.59532605444238, 85.07035533703815, 45.15293147477733, 73.63752285411721 " fill="none" id="curve_22" stroke="#000000" stroke-linecap="round" stroke-linejoin="round" stroke-width="4.975717989142421"/>
  <path d="M 45.15293147477733, 73.63752285411721 Q 42.386592425306915, 78.91574418096585, 39.530830720227094, 89.68368219003743 " fill="none" id="curve_22" stroke="#000000" stroke-linecap="round" stroke-linejoin="round" stroke-width="3.769199715469844"/>
  <path d="M 39.530830720227094, 89.68368219003743 Q 41.16734799591986, 84.18945844093217, 43.56970456623132, 76.73363546786433 " fill="none" id="curve_22" stroke="#000000" stroke-linecap="round" stroke-linejoin="round" stroke-width="5.5595868524224334"/>
  <path d="M 43.56970456623132, 76.73363546786433 Q 42.175340481290704, 85.02851349369558, 38.9326722617426, 93.67555204249362 " fill="none" id="curve_22" stroke="#000000" stroke-linecap="round" stroke-linejoin="round" stroke-width="4.125535093818161"/>
  <path d="M 45.15039746220107, 74.4165883177834 Q 42.77376147651573, 77.13359904055187, 41.388902226861646, 85.66603462832018 " fill="none" id="curve_23" stroke="#000000" stroke-linecap="round" stroke-linejoin="round" stroke-width="5.596134290556264"/>
  <path d="M 41.388902226861646, 85.66603462832018 Q 41.98007684311755, 78.02376771606245, 44.72413579817767, 73.46322803560858 " fill="none" id="curve_23" stroke="#000000" stroke-linecap="round" stroke-linejoin="round" stroke-width="3.5705848189907763"/>
  <path d="M 42.290834352474576, 72.36788885578699 Q 41.3356224183459, 75.21787247484407, 40.895804542570076, 87.57312209078567 " fill="none" id="curve_51" stroke="#000000" stroke-linecap="round" stroke-linejoin="round" stroke-width="3.769379132816706"/>
  <path d="M 46.35645964109824, 78.18570245869702 Q 43.69253000232431, 80.15589188809416, 41.840406061332196, 87.81082878820604 " fill="none" id="curve_66" stroke="#000000" stroke-linecap="round" stroke-linejoin="round" stroke-width="3.929963627189993"/>
  <path d="M 16.889632051098634, 76.73169754691591 Q 16.741842765517536, 76.79346869679647, 16.563736963509257, 76.92547899352567 " fill="none" id="curve_71" stroke="#000000" stroke-linecap="round" stroke-linejoin="round" stroke-width="2.6048950087319853"/>
  <path d="M 32.828610574512645, 111.85730639494662 Q 32.34553595117536, 111.28244634320902, 31.379597528563913, 110.76235383797177 " fill="none" id="curve_73" stroke="#000000" stroke-linecap="round" stroke-linejoin="round" stroke-width="8.372716479616239"/>
  <path d="M 61.50144231280001, 24.184158193597852 Q 60.819629564352795, 24.549685728206708, 60.08367857752068, 25.275953087583556 " fill="none" id="curve_127" stroke="#000000" stroke-linecap="round" stroke-linejoin="round" stroke-width="3.9620916880659274"/>
</svg>
