<?xml version="1.0" ?>
<svg height="140" width="140" xmlns="http://www.w3.org/2000/svg">
  <path d="M 50.76537882233697, 43.44294590075924 Q 50.09582959652031, 60.32667606856732, 44.91891004326888, 67.35798873461134 " fill="none" id="curve_2" stroke="#000000" stroke-linecap="round" stroke-linejoin="round" stroke-width="4.506215534967886"/>
  <path d="M 44.91891004326888, 67.35798873461134 Q 38.96339938032506, 77.25424449602389, 27.69672848881144, 97.04290412466082 " fill="none" id="curve_2" stroke="#000000" stroke-linecap="round" stroke-linejoin="round" stroke-width="2.9110712233622276"/>
  <path d="M 49.6025717884948, 89.69553926830923 Q 49.7821151910567, 83.39029470079238, 49.96805307221484, 61.80221841532135 " fill="none" id="curve_3" stroke="#000000" stroke-linecap="round" stroke-linejoin="round" stroke-width="3.0180511461960613"/>
  <path d="M 49.96805307221484, 61.80221841532135 Q 49.71216356434062, 53.00483741905963, 49.03111212516141, 46.944845810444825 " fill="none" id="curve_3" stroke="#000000" stroke-linecap="round" stroke-linejoin="round" stroke-width="2.7256272551604566"/>
  <path d="M 26.24578984606833, 101.64362637785507 Q 26.288683503727896, 101.22871119295301, 26.316722561408394, 100.23147116586777 " fill="none" id="curve_6" stroke="#000000" stroke-linecap="round" stroke-linejoin="round" stroke-width="5.124903407641607"/>
  <path d="M 32.845344121326754, 87.07500828913119 Q 31.387806541832614, 90.28985613716216, 29.76092811830024, 94.1946756124248 " fill="none" id="curve_7" stroke="#000000" stroke-linecap="round" stroke-linejoin="round" stroke-width="3.6410405573179694"/>
  <path d="M 48.828182923702144, 83.9142437914063 Q 48.79414230904768, 80.72561291894405, 48.72134498446011, 78.35073482137074 " fill="none" id="curve_8" stroke="#000000" stroke-linecap="round" stroke-linejoin="round" stroke-width="2.6885096455419064"/>
  <path d="M 51.14356960633167, 45.507763715685726 Q 51.432277115675284, 43.76714717463343, 52.28115524189316, 42.816887946780795 " fill="none" id="curve_9" stroke="#000000" stroke-linecap="round" stroke-linejoin="round" stroke-width="2.8271198813663623"/>
  <path d="M 48.86006688493717, 58.14857700103585 Q 48.735166126241, 56.22510322184729, 48.625714517084596, 51.10965448498609 " fill="none" id="curve_24" stroke="#000000" stroke-linecap="round" stroke-linejoin="round" stroke-width="4.068817741446012"/>
  <path d="M 46.873795647970155, 57.96670579957157 Q 48.10357062390025, 55.50721775217536, 51.541700561954336, 53.928081233562615 " fill="none" id="curve_43" stroke="#000000" stroke-linecap="round" stroke-linejoin="round" stroke-width="2.7477720599111812"/>
  <path d="M 50.07136138987104, 90.03710033141321 Q 49.45578327191381, 89.01952811049276, 48.72904298707533, 87.18712359911964 " fill="none" id="curve_59" stroke="#000000" stroke-linecap="round" stroke-linejoin="round" stroke-width="2.7135750451239526"/>
  <path d="M 31.112536450787186, 89.51959478294158 Q 30.214644239191184, 92.10740242299985, 28.808962566232506, 95.03442512215078 " fill="none" id="curve_60" stroke="#000000" stroke-linecap="round" stroke-linejoin="round" stroke-width="2.3797960774221645"/>
</svg>
