<?xml version="1.0" ?>
<svg height="140" width="140" xmlns="http://www.w3.org/2000/svg">
  <path d="M 59.26676829583111, 89.95147340544999 Q 59.56919996283633, 75.8958937784067, 61.1334413893076, 58.45292413142735 " fill="none" id="curve_4" stroke="#000000" stroke-linecap="round" stroke-linejoin="round" stroke-width="6.079960420276724"/>
  <path d="M 61.1334413893076, 58.45292413142735 Q 54.37875328490165, 66.01089318869373, 34.570373430255174, 80.73929037173366 " fill="none" id="curve_4" stroke="#000000" stroke-linecap="round" stroke-linejoin="round" stroke-width="6.482861907279064"/>
  <path d="M 34.570373430255174, 80.73929037173366 Q 32.6682286875545, 80.69943628811714, 31.924657812842483, 80.53530145916216 " fill="none" id="curve_4" stroke="#000000" stroke-linecap="round" stroke-linejoin="round" stroke-width="7.321512167238311"/>
  <path d="M 61.29671256449004, 56.07107981460264 Q 61.14127869605915, 55.76508342457841, 61.03506938617885, 54.862833304524 " fill="none" id="curve_5" stroke="#000000" stroke-linecap="round" stroke-linejoin="round" stroke-width="5.988026883967254"/>
  <path d="M 33.313456932718154, 79.18734906446892 Q 34.44136617254527, 78.52107343642167, 35.45667640095772, 77.25099071778118 " fill="none" id="curve_6" stroke="#000000" stroke-linecap="round" stroke-linejoin="round" stroke-width="7.33995093376933"/>
  <path d="M 58.046867814763374, 89.30201436757383 Q 58.42618461710438, 74.95628703767525, 60.233137608021245, 67.44606682928604 " fill="none" id="curve_9" stroke="#000000" stroke-linecap="round" stroke-linejoin="round" stroke-width="2.8566421601023455"/>
  <path d="M 59.52731612892921, 56.78897024224162 Q 57.28819136600262, 61.10834049521459, 52.15512845479761, 64.30513140465322 " fill="none" id="curve_10" stroke="#000000" stroke-linecap="round" stroke-linejoin="round" stroke-width="4.472676246796896"/>
  <path d="M 60.75089197653832, 110.28925076211272 Q 61.062461829864816, 110.31924231559043, 61.48550281182957, 110.39003138459867 " fill="none" id="curve_13" stroke="#000000" stroke-linecap="round" stroke-linejoin="round" stroke-width="2.5262973679811327"/>
  <path d="M 34.2013291873095, 76.99230510988747 Q 32.24857434191201, 77.56394581291725, 30.84596185700256, 79.26036784138063 " fill="none" id="curve_14" stroke="#000000" stroke-linecap="round" stroke-linejoin="round" stroke-width="4.514340206735556"/>
  <path d="M 61.11974548300089, 54.93059645867073 Q 61.40764601721618, 54.99825821966558, 61.85757323376764, 55.105496181039435 " fill="none" id="curve_17" stroke="#000000" stroke-linecap="round" stroke-linejoin="round" stroke-width="3.9960292450978754"/>
  <path d="M 57.42540130074724, 75.21953321462354 Q 58.840266485742454, 72.99683578380186, 61.19724054015129, 69.84093369646169 " fill="none" id="curve_32" stroke="#000000" stroke-linecap="round" stroke-linejoin="round" stroke-width="2.949878371269694"/>
  <path d="M 61.57561835328022, 54.83247030319064 Q 62.49211053771075, 54.99431121517555, 63.14601872394809, 55.4999876464772 " fill="none" id="curve_33" stroke="#000000" stroke-linecap="round" stroke-linejoin="round" stroke-width="3.3178240798717678"/>
  <path d="M 38.6156473524313, 74.99112718771244 Q 42.1568488935686, 73.48441491496686, 45.721209177261485, 70.26383613787976 " fill="none" id="curve_38" stroke="#000000" stroke-linecap="round" stroke-linejoin="round" stroke-width="2.19522958231173"/>
  <path d="M 57.95313495762691, 92.34365092353181 Q 57.901013355485574, 92.25255133913193, 57.804625162207046, 92.107986695517 " fill="none" id="curve_39" stroke="#000000" stroke-linecap="round" stroke-linejoin="round" stroke-width="2.326018504294372"/>
  <path d="M 46.07435569073435, 125.58704158952679 Q 46.9567191026383, 125.74463838263517, 47.658687120729304, 126.20544247372683 " fill="none" id="curve_41" stroke="#000000" stroke-linecap="round" stroke-linejoin="round" stroke-width="2.0373589138796486"/>
  <path d="M 57.00511986882079, 94.76151681609075 Q 57.27347243319936, 94.45026762664881, 57.88277355376848, 94.06308870138675 " fill="none" id="curve_43" stroke="#000000" stroke-linecap="round" stroke-linejoin="round" stroke-width="1.1931997797733727"/>
  <path d="M 62.25339435601586, 69.90692594022558 Q 62.08402183387346, 65.4714907355546, 60.069574585396964, 63.58992908981938 " fill="none" id="curve_45" stroke="#000000" stroke-linecap="round" stroke-linejoin="round" stroke-width="1.6999319956428955"/>
  <path d="M 56.77196762978467, 52.14425371240387 Q 56.864848312488625, 52.20108384149959, 56.986100354394516, 52.29698682568672 " fill="none" id="curve_46" stroke="#000000" stroke-linecap="round" stroke-linejoin="round" stroke-width="1.990761338016539"/>
  <path d="M 57.72459525234445, 72.45524029414754 Q 57.57760465754986, 72.58266164784523, 57.501880790616504, 73.17133678806294 " fill="none" id="curve_47" stroke="#000000" stroke-linecap="round" stroke-linejoin="round" stroke-width="3.3183463483684816"/>
  <path d="M 76.23076033355194, 92.41916456077655 Q 75.93019588770142, 92.76001742546289, 75.28235321907017, 93.17304432785896 " fill="none" id="curve_48" stroke="#000000" stroke-linecap="round" stroke-linejoin="round" stroke-width="2.133000420460834"/>
  <path d="M 43.607211489809316, 70.31168816035796 Q 40.935188606031126, 76.00262030710252, 32.27037143516996, 80.18269226012349 " fill="none" id="curve_49" stroke="#000000" stroke-linecap="round" stroke-linejoin="round" stroke-width="3.371238650560994"/>
  <path d="M 65.20130334482361, 92.54172440578253 Q 65.00149696410732, 92.76424368079142, 64.65874193087686, 93.13750891322931 " fill="none" id="curve_116" stroke="#000000" stroke-linecap="round" stroke-linejoin="round" stroke-width="1.856340199592005"/>
  <path d="M 32.77603427299952, 78.31294569333299 Q 38.10918244787614, 74.87063264467709, 46.07312697982002, 70.13638390733007 " fill="none" id="curve_145" stroke="#000000" stroke-linecap="round" stroke-linejoin="round" stroke-width="2.6685385167289497"/>
</svg>
