<?xml version="1.0" ?>
<svg height="140" width="140" xmlns="http://www.w3.org/2000/svg">
  <path d="M 67.16067886352539, 43.49000549316406 Q 63.77919912672236, 45.07595117160226, 61.19565677388641, 53.58309305483908 " fill="none" id="curve_1" stroke="#000000" stroke-linecap="round" stroke-linejoin="round" stroke-width="9.102692879755578"/>
  <path d="M 61.19565677388641, 53.58309305483908 Q 55.222441341054484, 59.29170160510585, 34.07973682504377, 79.05329230764927 " fill="none" id="curve_1" stroke="#000000" stroke-linecap="round" stroke-linejoin="round" stroke-width="4.339848621434013"/>
  <path d="M 34.07973682504377, 79.05329230764927 Q 30.842309586123445, 80.47432470673802, 28.59321528254631, 83.48771852009152 " fill="none" id="curve_1" stroke="#000000" stroke-linecap="round" stroke-linejoin="round" stroke-width="4.3466067333016545"/>
  <path d="M 45.63886784466671, 104.308404206022 Q 48.59910269499849, 91.77590614815543, 59.44077780057225, 65.03840211675454 " fill="none" id="curve_2" stroke="#000000" stroke-linecap="round" stroke-linejoin="round" stroke-width="5.2711459612347085"/>
  <path d="M 59.44077780057225, 65.03840211675454 Q 64.59172158193705, 57.91096876732848, 69.66294481984957, 39.67049571806065 " fill="none" id="curve_2" stroke="#000000" stroke-linecap="round" stroke-linejoin="round" stroke-width="3.6908767549372334"/>
  <path d="M 57.48112128009919, 68.66993541173144 Q 56.281159321022265, 80.36727545698207, 50.7407275392585, 86.7414146092939 " fill="none" id="curve_4" stroke="#000000" stroke-linecap="round" stroke-linejoin="round" stroke-width="3.0476405845822057"/>
  <path d="M 67.67978838252958, 46.1832462082766 Q 67.893057135977, 43.22060530734749, 68.68776805722126, 41.99826752050335 " fill="none" id="curve_5" stroke="#000000" stroke-linecap="round" stroke-linejoin="round" stroke-width="4.971782942566966"/>
  <path d="M 31.446197305729118, 78.62837705641086 Q 36.11727210825585, 76.97845632070538, 39.395606708139866, 72.14657204559215 " fill="none" id="curve_7" stroke="#000000" stroke-linecap="round" stroke-linejoin="round" stroke-width="3.0532295706703816"/>
  <path d="M 61.11137580663522, 66.48964034941258 Q 54.60536790948936, 72.34019314045995, 49.27538274387132, 85.94978713019974 " fill="none" id="curve_8" stroke="#000000" stroke-linecap="round" stroke-linejoin="round" stroke-width="2.9852229795776477"/>
  <path d="M 53.311469316017586, 87.40549728717836 Q 55.03875383176503, 76.26128895817988, 59.12537774691977, 65.49793074594388 " fill="none" id="curve_9" stroke="#000000" stroke-linecap="round" stroke-linejoin="round" stroke-width="3.7414143630551395"/>
  <path d="M 69.1520917689261, 43.04539974109255 Q 68.88853614771371, 42.1396951530205, 68.38144915971878, 41.458295949716806 " fill="none" id="curve_10" stroke="#000000" stroke-linecap="round" stroke-linejoin="round" stroke-width="5.787584460013071"/>
  <path d="M 57.54524839011652, 73.7431308429685 Q 57.86797174414485, 69.89291817253051, 58.377652410324856, 64.13173950871901 " fill="none" id="curve_11" stroke="#000000" stroke-linecap="round" stroke-linejoin="round" stroke-width="4.370017011435906"/>
  <path d="M 43.60604953765869, 107.57730102539062 Q 44.03989583666436, 106.12525114306048, 44.81478892756228, 104.21871635593573 " fill="none" id="curve_25" stroke="#000000" stroke-linecap="round" stroke-linejoin="round" stroke-width="2.376531842272239"/>
  <path d="M 55.00106509539067, 73.68890704781916 Q 55.62740130632956, 71.14768026487792, 57.08200159988908, 68.73938409145545 " fill="none" id="curve_26" stroke="#000000" stroke-linecap="round" stroke-linejoin="round" stroke-width="3.475056499046064"/>
  <path d="M 63.356950647012155, 46.03455675687069 Q 65.35467877114543, 43.63008704143101, 67.78880514665326, 40.70307566760613 " fill="none" id="curve_41" stroke="#000000" stroke-linecap="round" stroke-linejoin="round" stroke-width="2.835584313214855"/>
  <path d="M 56.1362215608065, 67.7497250342021 Q 54.14836784175606, 70.57879837963057, 52.95056257107028, 77.67344249874279 " fill="none" id="curve_42" stroke="#000000" stroke-linecap="round" stroke-linejoin="round" stroke-width="2.6593809467985823"/>
  <path d="M 46.06743914449267, 93.55426548156495 Q 47.44272158551192, 93.62600433410572, 48.1504567076833, 94.01198232448559 " fill="none" id="curve_43" stroke="#000000" stroke-linecap="round" stroke-linejoin="round" stroke-width="3.0151295778645504"/>
  <path d="M 35.20005366884202, 76.90405614109945 Q 39.482995370198076, 75.13584078034843, 44.02158791028677, 72.2787254292413 " fill="none" id="curve_46" stroke="#000000" stroke-linecap="round" stroke-linejoin="round" stroke-width="3.142225510478598"/>
  <path d="M 48.43933201401808, 90.0598750552468 Q 48.50499455707033, 89.96452546466931, 48.56865702443641, 89.75964262686819 " fill="none" id="curve_61" stroke="#000000" stroke-linecap="round" stroke-linejoin="round" stroke-width="3.8020449445301203"/>
</svg>
