<?xml version="1.0" ?>
<svg height="140" width="140" xmlns="http://www.w3.org/2000/svg">
  <path d="M 69.88576316833496, 36.61483383178711 Q 69.7708464769051, 34.28156446610365, 68.71919594268859, 33.7513237018191 " fill="none" id="curve_1" stroke="#000000" stroke-linecap="round" stroke-linejoin="round" stroke-width="5.189991737800111"/>
  <path d="M 68.71919594268859, 33.7513237018191 Q 65.80579051648728, 41.028560980659606, 57.11524710361534, 56.94617043461344 " fill="none" id="curve_1" stroke="#000000" stroke-linecap="round" stroke-linejoin="round" stroke-width="4.5606098690258445"/>
  <path d="M 57.11524710361534, 56.94617043461344 Q 54.06907046482569, 67.99574583304616, 40.660588590447375, 87.4028074735902 " fill="none" id="curve_1" stroke="#000000" stroke-linecap="round" stroke-linejoin="round" stroke-width="4.304511480753206"/>
  <path d="M 40.660588590447375, 87.4028074735902 Q 36.691072333390316, 99.42036538854964, 13.743641926490916, 118.87588804266306 " fill="none" id="curve_1" stroke="#000000" stroke-linecap="round" stroke-linejoin="round" stroke-width="4.205183446592878"/>
  <path d="M 13.743641926490916, 118.87588804266306 Q 11.477680430021175, 120.24186575547752, 9.552412047064715, 122.5621411943741 " fill="none" id="curve_1" stroke="#000000" stroke-linecap="round" stroke-linejoin="round" stroke-width="3.994831658828603"/>
  <path d="M 61.08431273022103, 132.1281963549963 Q 64.63675313708839, 131.39983094966533, 65.25904733421399, 125.29438458338522 " fill="none" id="curve_3" stroke="#000000" stroke-linecap="round" stroke-linejoin="round" stroke-width="5.399315136066588"/>
  <path d="M 65.25904733421399, 125.29438458338522 Q 65.42178630807415, 106.40427717703278, 66.2626575045568, 82.92890063565298 " fill="none" id="curve_3" stroke="#000000" stroke-linecap="round" stroke-linejoin="round" stroke-width="5.033407863585361"/>
  <path d="M 66.2626575045568, 82.92890063565298 Q 66.48884029061175, 61.13528476336441, 69.1201590900898, 46.823415820336194 " fill="none" id="curve_3" stroke="#000000" stroke-linecap="round" stroke-linejoin="round" stroke-width="5.198461576544362"/>
  <path d="M 69.1201590900898, 46.823415820336194 Q 69.25003267387498, 41.77423349746119, 69.70587419951556, 39.83444987335606 " fill="none" id="curve_3" stroke="#000000" stroke-linecap="round" stroke-linejoin="round" stroke-width="5.375358273456251"/>
  <path d="M 63.961952023454124, 70.7675936669205 Q 65.22493324307507, 73.28697373778512, 65.86742512951025, 82.35837823660914 " fill="none" id="curve_4" stroke="#000000" stroke-linecap="round" stroke-linejoin="round" stroke-width="3.1992032074515637"/>
  <path d="M 63.589104994851205, 125.31975386631714 Q 62.78818562276558, 127.24267801615204, 61.60081625285634, 129.31206110669473 " fill="none" id="curve_5" stroke="#000000" stroke-linecap="round" stroke-linejoin="round" stroke-width="4.209995118328272"/>
  <path d="M 65.44839275390626, 61.898170080383025 Q 65.4662337829837, 68.6129445460079, 65.55409860712759, 71.26065874980966 " fill="none" id="curve_8" stroke="#000000" stroke-linecap="round" stroke-linejoin="round" stroke-width="2.981372823873401"/>
  <path d="M 65.54609213884453, 122.11987607921408 Q 67.14058771786632, 121.97445609581422, 68.36421016691318, 121.70139326318338 " fill="none" id="curve_10" stroke="#000000" stroke-linecap="round" stroke-linejoin="round" stroke-width="5.2590138827448145"/>
  <path d="M 66.96589414494721, 94.1513046505027 Q 67.23734824594077, 89.91135599812095, 68.53683261187227, 87.6905895368064 " fill="none" id="curve_12" stroke="#000000" stroke-linecap="round" stroke-linejoin="round" stroke-width="3.2722085450625995"/>
  <path d="M 63.70391071690403, 125.87978222273016 Q 63.945861532632726, 112.24870985248211, 65.56198205481884, 105.81138693590954 " fill="none" id="curve_15" stroke="#000000" stroke-linecap="round" stroke-linejoin="round" stroke-width="2.4094622221382216"/>
  <path d="M 65.73474721861483, 69.25970115594193 Q 65.16876182577138, 67.9085525085694, 64.24575594314057, 66.43274666409394 " fill="none" id="curve_16" stroke="#000000" stroke-linecap="round" stroke-linejoin="round" stroke-width="4.458956919634486"/>
  <path d="M 60.81358672601724, 49.24934223834819 Q 56.05538994895607, 61.93585442822122, 41.4224949504805, 85.52558094388577 " fill="none" id="curve_17" stroke="#000000" stroke-linecap="round" stroke-linejoin="round" stroke-width="2.3089438594301797"/>
  <path d="M 41.4224949504805, 85.52558094388577 Q 35.81221787748909, 96.74236035690453, 18.735405904266823, 112.76077180582551 " fill="none" id="curve_17" stroke="#000000" stroke-linecap="round" stroke-linejoin="round" stroke-width="2.4280968614791747"/>
  <path d="M 18.735405904266823, 112.76077180582551 Q 17.6029880190695, 117.2242486768923, 12.405162239808012, 118.49367920796774 " fill="none" id="curve_17" stroke="#000000" stroke-linecap="round" stroke-linejoin="round" stroke-width="4.3386352911934525"/>
  <path d="M 51.2391680276758, 68.67196611416803 Q 56.44342408767885, 60.29675958910287, 63.56060463811725, 43.63658585819093 " fill="none" id="curve_19" stroke="#000000" stroke-linecap="round" stroke-linejoin="round" stroke-width="2.725910562816717"/>
  <path d="M 63.56060463811725, 43.63658585819093 Q 59.34661152757693, 51.720430659626956, 52.89538526652916, 65.15222469723601 " fill="none" id="curve_19" stroke="#000000" stroke-linecap="round" stroke-linejoin="round" stroke-width="2.5208359857439833"/>
  <path d="M 62.97542381286621, 105.56654930114746 Q 65.1906410658613, 103.96221029117214, 66.22922764059808, 97.63873750517757 " fill="none" id="curve_33" stroke="#000000" stroke-linecap="round" stroke-linejoin="round" stroke-width="4.422845976992973"/>
  <path d="M 66.22922764059808, 97.63873750517757 Q 66.85393683463506, 91.08213897070073, 68.74748493333011, 87.03231983676085 " fill="none" id="curve_33" stroke="#000000" stroke-linecap="round" stroke-linejoin="round" stroke-width="2.6981249698110146"/>
  <path d="M 62.54207675632182, 44.91522370103394 Q 59.786921115172596, 49.11917062914624, 57.13989718896059, 59.90076427397675 " fill="none" id="curve_48" stroke="#000000" stroke-linecap="round" stroke-linejoin="round" stroke-width="2.5697046495958733"/>
  <path d="M 38.07253074645996, 85.47207641601562 Q 39.69021241294582, 86.79946288570872, 42.32536356296811, 88.50701931352918 " fill="none" id="curve_62" stroke="#000000" stroke-linecap="round" stroke-linejoin="round" stroke-width="3.0891403637276684"/>
  <path d="M 62.518904527532726, 95.10452332615117 Q 63.90317506026366, 99.8334769071683, 67.35141475861617, 102.71358734412416 " fill="none" id="curve_64" stroke="#000000" stroke-linecap="round" stroke-linejoin="round" stroke-width="3.419225684264761"/>
  <path d="M 67.35141475861617, 102.71358734412416 Q 65.32081386367867, 102.39118130015068, 63.3755058637115, 101.83332425518309 " fill="none" id="curve_64" stroke="#000000" stroke-linecap="round" stroke-linejoin="round" stroke-width="3.4162682774086126"/>
  <path d="M 63.072211034062555, 122.57117771876091 Q 62.31040704798218, 124.15194287812041, 61.67246815755818, 126.54727519061538 " fill="none" id="curve_65" stroke="#000000" stroke-linecap="round" stroke-linejoin="round" stroke-width="3.4915931351680434"/>
  <path d="M 63.56548672637459, 110.25329036864838 Q 63.69943167934731, 109.74266749908809, 63.81993922023479, 108.85035930684862 " fill="none" id="curve_66" stroke="#000000" stroke-linecap="round" stroke-linejoin="round" stroke-width="4.164114872078513"/>
  <path d="M 69.28810122485143, 59.63579601958253 Q 68.94711031175461, 59.45300341716603, 68.43440183758328, 59.17728794481292 " fill="none" id="curve_68" stroke="#000000" stroke-linecap="round" stroke-linejoin="round" stroke-width="2.876708816109677"/>
  <path d="M 60.25137933045312, 48.98115770825052 Q 59.14445693927334, 54.82759230721402, 56.78969760943905, 62.3961106360153 " fill="none" id="curve_83" stroke="#000000" stroke-linecap="round" stroke-linejoin="round" stroke-width="2.37280102485484"/>
  <path d="M 23.462321266792866, 112.46444059981215 Q 17.790328966421605, 113.19865401085886, 14.7048316144121, 116.09156653164835 " fill="none" id="curve_99" stroke="#000000" stroke-linecap="round" stroke-linejoin="round" stroke-width="2.6952350058110963"/>
  <path d="M 30.647755496062963, 105.58677999391575 Q 30.364279404093487, 104.50748293479133, 29.691697603206777, 103.75142366064148 " fill="none" id="curve_100" stroke="#000000" stroke-linecap="round" stroke-linejoin="round" stroke-width="3.1264226877526142"/>
</svg>
