<?xml version="1.0" ?>
<svg height="140" width="140" xmlns="http://www.w3.org/2000/svg">
  <path d="M 74.98860931396484, 42.22656440734863 Q 75.16816298856992, 39.34739458633739, 77.8807481529268, 38.87972504021661 " fill="none" id="curve_1" stroke="#000000" stroke-linecap="round" stroke-linejoin="round" stroke-width="5.946718145232589"/>
  <path d="M 77.8807481529268, 38.87972504021661 Q 75.10979725378004, 46.60868084394855, 69.72544339579055, 60.98806223577737 " fill="none" id="curve_1" stroke="#000000" stroke-linecap="round" stroke-linejoin="round" stroke-width="6.924691691170023"/>
  <path d="M 69.72544339579055, 60.98806223577737 Q 66.14693373470745, 74.41867591040264, 58.2791770817647, 88.87242665753868 " fill="none" id="curve_1" stroke="#000000" stroke-linecap="round" stroke-linejoin="round" stroke-width="9.012710295069803"/>
  <path d="M 58.2791770817647, 88.87242665753868 Q 52.01281899659634, 98.81376062841869, 31.631997617914127, 130.937920888238 " fill="none" id="curve_1" stroke="#000000" stroke-linecap="round" stroke-linejoin="round" stroke-width="4.080150702481221"/>
  <path d="M 31.631997617914127, 130.937920888238 Q 29.588998613249352, 134.94010174641622, 24.007211250978774, 136.7392760114382 " fill="none" id="curve_1" stroke="#000000" stroke-linecap="round" stroke-linejoin="round" stroke-width="9.244331466678085"/>
  <path d="M 70.19911180813205, 111.92966306466343 Q 65.42394175805575, 108.84730326786463, 63.89353919009974, 82.94835929583134 " fill="none" id="curve_2" stroke="#000000" stroke-linecap="round" stroke-linejoin="round" stroke-width="4.860154941125169"/>
  <path d="M 72.99006003664516, 113.47776549894041 Q 68.22878619380872, 107.94852983357798, 63.19382505671176, 95.98166685393734 " fill="none" id="curve_3" stroke="#000000" stroke-linecap="round" stroke-linejoin="round" stroke-width="3.9718050046846085"/>
  <path d="M 63.19382505671176, 95.98166685393734 Q 65.45409285047158, 94.88904183351985, 65.72672117823359, 73.87094701953528 " fill="none" id="curve_3" stroke="#000000" stroke-linecap="round" stroke-linejoin="round" stroke-width="4.45094185475442"/>
  <path d="M 74.2867949735136, 57.86909812223313 Q 75.94955361822349, 52.088982712271246, 77.49883381051191, 41.79829276968785 " fill="none" id="curve_4" stroke="#000000" stroke-linecap="round" stroke-linejoin="round" stroke-width="4.0690588889184225"/>
  <path d="M 70.93316024048086, 59.475490194142175 Q 65.39059170598198, 65.4395561429726, 60.85309221051245, 77.67028747180268 " fill="none" id="curve_5" stroke="#000000" stroke-linecap="round" stroke-linejoin="round" stroke-width="3.4162292229891587"/>
  <path d="M 37.37181509416645, 122.31076608098174 Q 33.86074933423929, 127.96055398994119, 27.371947737079815, 132.5521662254389 " fill="none" id="curve_7" stroke="#000000" stroke-linecap="round" stroke-linejoin="round" stroke-width="4.798747852498741"/>
  <path d="M 27.371947737079815, 132.5521662254389 Q 34.50826727599411, 129.55857435744903, 37.95615460557499, 118.09165134017869 " fill="none" id="curve_7" stroke="#000000" stroke-linecap="round" stroke-linejoin="round" stroke-width="3.336967188839148"/>
  <path d="M 65.14876616515124, 94.00410339893956 Q 66.64507395865566, 95.24180865234608, 66.87477266191576, 106.4268212544302 " fill="none" id="curve_9" stroke="#000000" stroke-linecap="round" stroke-linejoin="round" stroke-width="3.845527519094572"/>
  <path d="M 66.87477266191576, 106.4268212544302 Q 64.30562134079435, 104.77386166120883, 63.20601030460579, 97.1180017411476 " fill="none" id="curve_9" stroke="#000000" stroke-linecap="round" stroke-linejoin="round" stroke-width="3.3741520531007376"/>
  <path d="M 37.29890477261493, 122.34706685970528 Q 35.173279112882604, 125.2547580158143, 32.43414520117282, 128.74143651051577 " fill="none" id="curve_10" stroke="#000000" stroke-linecap="round" stroke-linejoin="round" stroke-width="6.207220834637687"/>
  <path d="M 31.660968730322693, 130.041374084913 Q 36.68783356038456, 124.29041421483058, 41.60121151255913, 111.44439538546187 " fill="none" id="curve_12" stroke="#000000" stroke-linecap="round" stroke-linejoin="round" stroke-width="2.6982560617294338"/>
  <path d="M 23.35973421049694, 136.33578981336606 Q 23.33235072833466, 134.55553592797267, 23.283110872168105, 132.8811139752294 " fill="none" id="curve_14" stroke="#000000" stroke-linecap="round" stroke-linejoin="round" stroke-width="4.1581815518192435"/>
  <path d="M 36.75762906727211, 121.391014469323 Q 35.93972241208315, 122.04756670407713, 35.26361596278712, 123.48131815648271 " fill="none" id="curve_15" stroke="#000000" stroke-linecap="round" stroke-linejoin="round" stroke-width="5.640119378425575"/>
  <path d="M 34.14044312965362, 129.008367150136 Q 35.39979780225194, 124.57147191272239, 38.9829578041442, 120.65691760209013 " fill="none" id="curve_22" stroke="#000000" stroke-linecap="round" stroke-linejoin="round" stroke-width="3.0056880060420545"/>
  <path d="M 75.89000120206244, 40.82344726252133 Q 74.3045179444317, 43.63900097639712, 72.82760285814621, 49.368080888784014 " fill="none" id="curve_30" stroke="#000000" stroke-linecap="round" stroke-linejoin="round" stroke-width="3.8752245813568384"/>
  <path d="M 72.82760285814621, 49.368080888784014 Q 73.96517352510543, 44.71664132261813, 76.18149486361341, 41.036628547621845 " fill="none" id="curve_30" stroke="#000000" stroke-linecap="round" stroke-linejoin="round" stroke-width="5.547612064440231"/>
  <path d="M 76.18149486361341, 41.036628547621845 Q 77.73195113549377, 41.51981454081134, 78.21334920657829, 45.04779575389604 " fill="none" id="curve_30" stroke="#000000" stroke-linecap="round" stroke-linejoin="round" stroke-width="3.6574306409235295"/>
  <path d="M 65.25219871843544, 78.04939276839971 Q 66.2118958613718, 77.10937558343882, 67.50584909900482, 75.19721273800029 " fill="none" id="curve_39" stroke="#000000" stroke-linecap="round" stroke-linejoin="round" stroke-width="3.708955649965104"/>
  <path d="M 38.68682861328125, 125.13605499267578 Q 37.1294028961886, 124.83240578350727, 35.458024792630795, 124.11023425609451 " fill="none" id="curve_53" stroke="#000000" stroke-linecap="round" stroke-linejoin="round" stroke-width="3.843015561551168"/>
  <path d="M 60.96979904174805, 84.9655647277832 Q 61.48342635420397, 90.36259708763119, 63.027994766224055, 95.17227741008486 " fill="none" id="curve_80" stroke="#000000" stroke-linecap="round" stroke-linejoin="round" stroke-width="3.0148915552956455"/>
  <path d="M 67.14182215069233, 78.3205709859208 Q 60.67346451264739, 79.68288077437839, 56.08463002527715, 85.75784497052689 " fill="none" id="curve_81" stroke="#000000" stroke-linecap="round" stroke-linejoin="round" stroke-width="2.6674850851480207"/>
  <path d="M 21.79614324228576, 138.3170881552603 Q 22.08036082100022, 138.34911216413536, 26.240867052931666, 138.35562489495595 " fill="none" id="curve_87" stroke="#000000" stroke-linecap="round" stroke-linejoin="round" stroke-width="2.183304447750644"/>
  <path d="M 77.40537786483765, 38.760071754455566 Q 77.95026923172736, 39.836779520949094, 78.7788576893281, 41.60022414517488 " fill="none" id="curve_101" stroke="#000000" stroke-linecap="round" stroke-linejoin="round" stroke-width="3.2735622984432324"/>
  <path d="M 68.11979483801309, 102.15894626272313 Q 67.63056476971433, 102.12672015846745, 66.65594477970406, 102.0811766933398 " fill="none" id="curve_168" stroke="#000000" stroke-linecap="round" stroke-linejoin="round" stroke-width="2.0430195183870343"/>
</svg>
