<?xml version="1.0" ?>
<svg height="140" width="140" xmlns="http://www.w3.org/2000/svg">
  <path d="M 46.3801794052124, 68.47473907470703 Q 50.62767981256032, 66.21870024915584, 55.80840021706979, 56.50965504597582 " fill="none" id="curve_1" stroke="#000000" stroke-linecap="round" stroke-linejoin="round" stroke-width="6.641227673645744"/>
  <path d="M 55.80840021706979, 56.50965504597582 Q 58.16589893454624, 54.84336998753487, 59.20821059526052, 48.70299061480445 " fill="none" id="curve_1" stroke="#000000" stroke-linecap="round" stroke-linejoin="round" stroke-width="4.975685628870667"/>
  <path d="M 59.20821059526052, 48.70299061480445 Q 58.94135944499504, 60.94040409867387, 57.88569434015941, 66.6800570016904 " fill="none" id="curve_1" stroke="#000000" stroke-linecap="round" stroke-linejoin="round" stroke-width="4.652602614435693"/>
  <path d="M 57.88569434015941, 66.6800570016904 Q 58.06623959363835, 86.25883338259841, 59.83529088023625, 90.47868229242437 " fill="none" id="curve_1" stroke="#000000" stroke-linecap="round" stroke-linejoin="round" stroke-width="4.300539778022078"/>
  <path d="M 49.551208791960434, 66.5737684572665 Q 44.07320441665406, 76.50679219617027, 32.1617962003114, 86.53275841429006 " fill="none" id="curve_2" stroke="#000000" stroke-linecap="round" stroke-linejoin="round" stroke-width="5.471494882549198"/>
  <path d="M 32.1617962003114, 86.53275841429006 Q 36.262404808509494, 77.71775374390404, 48.957271940570166, 71.69652071825502 " fill="none" id="curve_2" stroke="#000000" stroke-linecap="round" stroke-linejoin="round" stroke-width="2.895973323853966"/>
  <path d="M 56.56898367255208, 76.77302103956367 Q 56.398070885123495, 72.82028865387724, 56.12783245996865, 67.16552251622144 " fill="none" id="curve_3" stroke="#000000" stroke-linecap="round" stroke-linejoin="round" stroke-width="2.9405473206262265"/>
  <path d="M 61.07812250320117, 89.68115428281476 Q 58.24582303635594, 85.20123004889362, 55.67211044841039, 76.87296847574389 " fill="none" id="curve_4" stroke="#000000" stroke-linecap="round" stroke-linejoin="round" stroke-width="3.5350512810188746"/>
  <path d="M 61.30608716673784, 49.1422560703823 Q 60.61019574879041, 48.685107265655404, 59.35715116104712, 48.29297818108032 " fill="none" id="curve_5" stroke="#000000" stroke-linecap="round" stroke-linejoin="round" stroke-width="4.251005765917845"/>
  <path d="M 38.41104867659901, 78.14017665475563 Q 46.07677145664451, 72.46271872690717, 54.960259597647635, 63.02758370445416 " fill="none" id="curve_7" stroke="#000000" stroke-linecap="round" stroke-linejoin="round" stroke-width="2.913836483645798"/>
  <path d="M 46.03337751285107, 70.23868114341816 Q 43.02678915498792, 76.46446831096645, 37.771397209228994, 83.10156419536584 " fill="none" id="curve_26" stroke="#000000" stroke-linecap="round" stroke-linejoin="round" stroke-width="3.1816893310674677"/>
  <path d="M 57.92973984420171, 49.61907009358939 Q 58.54090262384547, 48.55555697116945, 59.822133230657876, 47.320941272221035 " fill="none" id="curve_57" stroke="#000000" stroke-linecap="round" stroke-linejoin="round" stroke-width="2.627309020285776"/>
  <path d="M 57.24349308013916, 81.20429420471191 Q 58.178163936031744, 83.04738210967216, 59.865578521651514, 85.5671357665289 " fill="none" id="curve_71" stroke="#000000" stroke-linecap="round" stroke-linejoin="round" stroke-width="4.039361109319082"/>
  <path d="M 45.97963375529025, 72.07796562943946 Q 43.59981344508742, 74.47159598153274, 39.184473842829526, 76.85735356349862 " fill="none" id="curve_86" stroke="#000000" stroke-linecap="round" stroke-linejoin="round" stroke-width="4.199415927656612"/>
  <path d="M 44.70407514356631, 74.50423178843569 Q 44.676054602232206, 73.3501641955384, 44.62899634078565, 72.1509102405682 " fill="none" id="curve_116" stroke="#000000" stroke-linecap="round" stroke-linejoin="round" stroke-width="4.368436762794648"/>
  <path d="M 59.42284301764833, 47.93598907682617 Q 58.9380562871489, 47.97292491884652, 58.195457547410854, 48.02259511779257 " fill="none" id="curve_133" stroke="#000000" stroke-linecap="round" stroke-linejoin="round" stroke-width="3.1174303899938476"/>
</svg>
