<?xml version="1.0" ?>
<svg height="140" width="140" xmlns="http://www.w3.org/2000/svg">
  <path d="M 43.238006591796875, 96.19215202331543 Q 39.93429243651524, 102.44350521857483, 28.739707056014367, 107.80897763621056 " fill="none" id="curve_1" stroke="#000000" stroke-linecap="round" stroke-linejoin="round" stroke-width="4.975599347720887"/>
  <path d="M 28.739707056014367, 107.80897763621056 Q 26.84974718053396, 107.45953351194987, 26.10209186825365, 106.0001836942832 " fill="none" id="curve_1" stroke="#000000" stroke-linecap="round" stroke-linejoin="round" stroke-width="5.737231288278567"/>
  <path d="M 26.10209186825365, 106.0001836942832 Q 38.31787284998309, 103.06272983323299, 50.169354446976016, 91.74101457133077 " fill="none" id="curve_1" stroke="#000000" stroke-linecap="round" stroke-linejoin="round" stroke-width="3.7080884886992456"/>
  <path d="M 50.169354446976016, 91.74101457133077 Q 63.48154164226132, 86.79154697071453, 83.3315188214634, 59.423053205580615 " fill="none" id="curve_1" stroke="#000000" stroke-linecap="round" stroke-linejoin="round" stroke-width="5.283579805450369"/>
  <path d="M 83.3315188214634, 59.423053205580615 Q 85.39852944698221, 56.41290997375191, 88.1142752733956, 52.72727400725942 " fill="none" id="curve_1" stroke="#000000" stroke-linecap="round" stroke-linejoin="round" stroke-width="4.995480402758282"/>
  <path d="M 88.1142752733956, 52.72727400725942 Q 85.78214083812136, 63.379772937242684, 77.17996893120184, 90.67908581717515 " fill="none" id="curve_1" stroke="#000000" stroke-linecap="round" stroke-linejoin="round" stroke-width="4.770341670306503"/>
  <path d="M 77.17996893120184, 90.67908581717515 Q 74.35521553490966, 101.00696316657145, 70.62172035357615, 112.617315354671 " fill="none" id="curve_1" stroke="#000000" stroke-linecap="round" stroke-linejoin="round" stroke-width="3.483305891410816"/>
  <path d="M 54.09919560111063, 88.82990849266125 Q 51.63308005996627, 96.85288064132983, 39.99559699207766, 100.43803425870182 " fill="none" id="curve_2" stroke="#000000" stroke-linecap="round" stroke-linejoin="round" stroke-width="3.189056562044299"/>
  <path d="M 62.569703912500174, 81.99588028951663 Q 68.48566582193799, 75.35852436451651, 77.59912132126078, 64.78421711674855 " fill="none" id="curve_3" stroke="#000000" stroke-linecap="round" stroke-linejoin="round" stroke-width="2.6912904058270657"/>
  <path d="M 77.59912132126078, 64.78421711674855 Q 80.99170519313047, 57.59130685051118, 88.53756237961007, 51.563565657573164 " fill="none" id="curve_3" stroke="#000000" stroke-linecap="round" stroke-linejoin="round" stroke-width="3.314269618074551"/>
  <path d="M 79.95372721988765, 76.7523280215963 Q 77.39136947323755, 78.07546839560072, 76.74339154711521, 86.00450214881289 " fill="none" id="curve_4" stroke="#000000" stroke-linecap="round" stroke-linejoin="round" stroke-width="2.6617951462664404"/>
  <path d="M 63.45574474027659, 81.24360295888351 Q 57.249066596317334, 84.49738807154608, 51.36680341343977, 90.64692215397692 " fill="none" id="curve_5" stroke="#000000" stroke-linecap="round" stroke-linejoin="round" stroke-width="3.349350427651029"/>
  <path d="M 69.89582181700636, 113.89332283441976 Q 70.37910308182394, 113.62760321142474, 70.79371644196209, 112.99506901336025 " fill="none" id="curve_6" stroke="#000000" stroke-linecap="round" stroke-linejoin="round" stroke-width="2.907783474570188"/>
  <path d="M 86.2408510830689, 53.11897114947217 Q 87.74642113667136, 51.92366888097644, 89.41215580015239, 50.223008784878616 " fill="none" id="curve_9" stroke="#000000" stroke-linecap="round" stroke-linejoin="round" stroke-width="2.79757523186216"/>
  <path d="M 0.6149319344885598, 117.05768113604692 Q 1.9741028155207208, 118.88448287139471, 2.2134839732789366, 138.7612682568989 " fill="none" id="curve_14" stroke="#000000" stroke-linecap="round" stroke-linejoin="round" stroke-width="2.8010138466712244"/>
  <path d="M 2.094541293491564, 116.60564220787097 Q 2.327426008982675, 115.07714819183192, 2.4325874286508427, 89.8393467672839 " fill="none" id="curve_15" stroke="#000000" stroke-linecap="round" stroke-linejoin="round" stroke-width="2.756873917079716"/>
  <path d="M 2.4325874286508427, 89.8393467672839 Q 2.233642731554955, 85.55519382736809, 1.9893138159740453, 68.80340925859454 " fill="none" id="curve_15" stroke="#000000" stroke-linecap="round" stroke-linejoin="round" stroke-width="3.08804618569543"/>
  <path d="M 1.9893138159740453, 68.80340925859454 Q 2.0434140677243966, 61.00460686604683, 2.2378607396194985, 45.8325812682055 " fill="none" id="curve_15" stroke="#000000" stroke-linecap="round" stroke-linejoin="round" stroke-width="2.9598226655519437"/>
  <path d="M 2.2378607396194985, 45.8325812682055 Q 2.0760166110877774, 39.47001340334444, 1.7754380684241724, 24.186379788802867 " fill="none" id="curve_15" stroke="#000000" stroke-linecap="round" stroke-linejoin="round" stroke-width="3.0783047716524985"/>
  <path d="M 1.7754380684241724, 24.186379788802867 Q 1.8837097409968222, 4.487406549871842, 4.389029592234873, 1.8490303442719593 " fill="none" id="curve_15" stroke="#000000" stroke-linecap="round" stroke-linejoin="round" stroke-width="3.214579460556874"/>
  <path d="M 4.389029592234873, 1.8490303442719593 Q 6.755924676522274, 1.825093817361129, 7.799050359697201, 1.7412802959197768 " fill="none" id="curve_15" stroke="#000000" stroke-linecap="round" stroke-linejoin="round" stroke-width="3.731553284225554"/>
  <path d="M 2.1121253967285156, 1.9862174987792969 Q 2.388198582257652, 3.436326792118282, 2.5772168222004908, 10.32044256223088 " fill="none" id="curve_29" stroke="#000000" stroke-linecap="round" stroke-linejoin="round" stroke-width="2.3683282052327725"/>
  <path d="M 54.24811937126246, 91.91201609519929 Q 54.76599109668322, 91.12869645545366, 55.31960992309208, 89.67533139248768 " fill="none" id="curve_39" stroke="#000000" stroke-linecap="round" stroke-linejoin="round" stroke-width="4.791186625668778"/>
  <path d="M 2.600286618433624, 126.59027752204989 Q 2.726948682405654, 123.95042726326412, 2.8574868513095217, 118.79179480666096 " fill="none" id="curve_41" stroke="#000000" stroke-linecap="round" stroke-linejoin="round" stroke-width="1.9159959676512883"/>
  <path d="M 1.9718579218083714, 95.48080359247788 Q 2.245408558474561, 86.23611801812888, 2.8994921875228123, 78.20867317460979 " fill="none" id="curve_42" stroke="#000000" stroke-linecap="round" stroke-linejoin="round" stroke-width="2.26514007856582"/>
  <path d="M 2.8994921875228123, 78.20867317460979 Q 2.23172883315656, 80.84727261626013, 2.0060868488272474, 92.91612747520844 " fill="none" id="curve_42" stroke="#000000" stroke-linecap="round" stroke-linejoin="round" stroke-width="1.684085868651824"/>
  <path d="M 2.0060868488272474, 92.91612747520844 Q 1.6604562166486323, 87.6809757047217, 1.250849223714744, 76.95379678582522 " fill="none" id="curve_42" stroke="#000000" stroke-linecap="round" stroke-linejoin="round" stroke-width="1.8578359390535597"/>
  <path d="M 2.5835580855108833, 108.53333464353523 Q 2.4595435261092105, 111.60729158229152, 2.0394259001483785, 112.74384871802222 " fill="none" id="curve_44" stroke="#000000" stroke-linecap="round" stroke-linejoin="round" stroke-width="3.4600345554653513"/>
  <path d="M 3.2038461627411348, 90.05074839371741 Q 2.494587687379923, 89.32171009515058, 1.5636314928558415, 87.8541673861526 " fill="none" id="curve_45" stroke="#000000" stroke-linecap="round" stroke-linejoin="round" stroke-width="2.123445907941962"/>
  <path d="M 2.1637220205882612, 112.79469770564778 Q 2.113549823382524, 108.36218084182818, 2.0712445634816348, 90.0472719498012 " fill="none" id="curve_46" stroke="#000000" stroke-linecap="round" stroke-linejoin="round" stroke-width="1.4704069750315274"/>
  <path d="M 2.7075966553960518, 111.81588401073897 Q 1.9647389358671383, 108.39580314339531, 1.47094264778765, 89.96754698372912 " fill="none" id="curve_47" stroke="#000000" stroke-linecap="round" stroke-linejoin="round" stroke-width="1.3129397167463857"/>
  <path d="M 2.712460105415263, 18.924265084461787 Q 3.042502334989094, 18.813396383348948, 3.284300416418991, 18.418941238767758 " fill="none" id="curve_50" stroke="#000000" stroke-linecap="round" stroke-linejoin="round" stroke-width="2.8602732302422766"/>
  <path d="M 2.5996872976907435, 5.007897348018902 Q 2.389657695794181, 8.803504468443794, 2.0501297327708787, 14.105925677544196 " fill="none" id="curve_51" stroke="#000000" stroke-linecap="round" stroke-linejoin="round" stroke-width="2.0233246063560224"/>
  <path d="M 80.30906655806518, 85.68864571077509 Q 76.83994422957372, 89.60411718691718, 73.16631587831482, 96.40138508908004 " fill="none" id="curve_54" stroke="#000000" stroke-linecap="round" stroke-linejoin="round" stroke-width="2.4442936669957582"/>
  <path d="M 63.70630062386217, 79.31352679236797 Q 65.16600059506767, 77.61502494403543, 68.98688419736189, 76.27767950173677 " fill="none" id="curve_55" stroke="#000000" stroke-linecap="round" stroke-linejoin="round" stroke-width="2.464000365188933"/>
  <path d="M 3.7259095839978174, 46.987211724980746 Q 3.1522656185174314, 46.56515610427053, 2.40355311688825, 45.97303306696766 " fill="none" id="curve_74" stroke="#000000" stroke-linecap="round" stroke-linejoin="round" stroke-width="3.3827706869913867"/>
  <path d="M 2.2161545638168985, 10.549870864233156 Q 2.301534722820332, 4.273853619880933, 4.701345485194592, 3.638110443335073 " fill="none" id="curve_75" stroke="#000000" stroke-linecap="round" stroke-linejoin="round" stroke-width="2.5179370776613155"/>
  <path d="M 82.39925547060302, 56.86036315741401 Q 82.29627801654307, 57.73634901031896, 82.16330403495235, 59.26717352647077 " fill="none" id="curve_104" stroke="#000000" stroke-linecap="round" stroke-linejoin="round" stroke-width="3.6803338624716075"/>
  <path d="M 2.692463772478269, 138.5890338735958 Q 2.6826908505895717, 138.59009153275025, 2.654622855807878, 138.59125560507636 " fill="none" id="curve_135" stroke="#000000" stroke-linecap="round" stroke-linejoin="round" stroke-width="2.276279388933589"/>
  <path d="M 43.019237135599525, 100.08959587556672 Q 39.4408608455986, 100.99800711075493, 35.751592125708406, 103.13916702873749 " fill="none" id="curve_150" stroke="#000000" stroke-linecap="round" stroke-linejoin="round" stroke-width="2.4884003192967588"/>
  <path d="M 35.751592125708406, 103.13916702873749 Q 35.558753150421374, 106.47174525581306, 31.343867688960955, 106.70113816955704 " fill="none" id="curve_150" stroke="#000000" stroke-linecap="round" stroke-linejoin="round" stroke-width="3.176657034497228"/>
  <path d="M 3.3623774264345165, 86.05272098201705 Q 3.027930221978287, 86.26589994218283, 2.6027167580554496, 86.64266864727462 " fill="none" id="curve_151" stroke="#000000" stroke-linecap="round" stroke-linejoin="round" stroke-width="2.729146050806135"/>
  <path d="M 1.5074615833192893, 70.8912282298709 Q 1.5516982894918978, 70.76301998847745, 1.6232417708898967, 70.52558849999532 " fill="none" id="curve_152" stroke="#000000" stroke-linecap="round" stroke-linejoin="round" stroke-width="1.7202637666118312"/>
  <path d="M 4.194066494450009, 14.20573384210882 Q 2.493025781288085, 12.775933899072825, 0.5557928685827394, 10.611805826540177 " fill="none" id="curve_154" stroke="#000000" stroke-linecap="round" stroke-linejoin="round" stroke-width="2.5365506285100268"/>
  <path d="M 79.96259212219198, 76.16605981752208 Q 82.9870875456569, 72.27785670973026, 86.36395521311687, 66.52298761656604 " fill="none" id="curve_171" stroke="#000000" stroke-linecap="round" stroke-linejoin="round" stroke-width="2.457512277277883"/>
  <path d="M 53.22726316533891, 88.16063496448533 Q 56.453154285415316, 88.25728996147684, 58.882536220660626, 88.53373445638768 " fill="none" id="curve_186" stroke="#000000" stroke-linecap="round" stroke-linejoin="round" stroke-width="2.2463186276677787"/>
</svg>
