<?xml version="1.0" ?>
<svg height="140" width="140" xmlns="http://www.w3.org/2000/svg">
  <path d="M 83.64892196655273, 54.340782165527344 Q 80.65287915205981, 57.72264488704362, 71.75346949108643, 67.62419572964427 " fill="none" id="curve_1" stroke="#000000" stroke-linecap="round" stroke-linejoin="round" stroke-width="5.669714580272488"/>
  <path d="M 71.75346949108643, 67.62419572964427 Q 66.09696603809869, 74.6475986375658, 45.61406916880148, 90.63804412632571 " fill="none" id="curve_1" stroke="#000000" stroke-linecap="round" stroke-linejoin="round" stroke-width="5.0469846843720925"/>
  <path d="M 45.61406916880148, 90.63804412632571 Q 39.12519787524485, 93.69196598234507, 34.801897376874415, 99.94323997914148 " fill="none" id="curve_1" stroke="#000000" stroke-linecap="round" stroke-linejoin="round" stroke-width="4.527996918358253"/>
  <path d="M 28.1622890314362, 103.48009059056662 Q 28.61613170684328, 103.37035558801557, 28.76776521411865, 102.68228277575918 " fill="none" id="curve_2" stroke="#000000" stroke-linecap="round" stroke-linejoin="round" stroke-width="6.789450046619172"/>
  <path d="M 67.25240431324785, 107.54537545813966 Q 70.66174051170563, 95.02971719474141, 79.55203802143049, 65.16424970561289 " fill="none" id="curve_3" stroke="#000000" stroke-linecap="round" stroke-linejoin="round" stroke-width="4.517514326311684"/>
  <path d="M 79.55203802143049, 65.16424970561289 Q 81.31138550249375, 61.08177655098737, 82.63880141550302, 53.109830667101825 " fill="none" id="curve_3" stroke="#000000" stroke-linecap="round" stroke-linejoin="round" stroke-width="4.668282194519947"/>
  <path d="M 82.63880141550302, 53.109830667101825 Q 81.01319038221068, 58.6090766238658, 76.52769747617197, 61.800847650360254 " fill="none" id="curve_3" stroke="#000000" stroke-linecap="round" stroke-linejoin="round" stroke-width="3.813956139446558"/>
  <path d="M 69.05505519138826, 94.01387547043568 Q 72.97892951813414, 84.66455015143067, 79.55748576240481, 71.35261461191965 " fill="none" id="curve_4" stroke="#000000" stroke-linecap="round" stroke-linejoin="round" stroke-width="2.8333699072945917"/>
  <path d="M 67.30221480823657, 110.75799364512085 Q 67.3359101548014, 110.64337626542859, 67.38085076746914, 110.46193495740967 " fill="none" id="curve_10" stroke="#000000" stroke-linecap="round" stroke-linejoin="round" stroke-width="2.978847206540872"/>
  <path d="M 44.397820301901085, 88.60004007482573 Q 44.210042815821936, 89.04621493409266, 44.04398600873924, 90.38533861193272 " fill="none" id="curve_11" stroke="#000000" stroke-linecap="round" stroke-linejoin="round" stroke-width="3.935560707715128"/>
  <path d="M 62.318111289863786, 75.04556277593642 Q 57.51278197479982, 79.32171646729887, 51.206381010353326, 85.29567193279436 " fill="none" id="curve_12" stroke="#000000" stroke-linecap="round" stroke-linejoin="round" stroke-width="3.3009912774589663"/>
  <path d="M 73.61540989537227, 78.55077992170108 Q 72.57233773775029, 85.43854716684442, 70.13070838815399, 91.04038346130689 " fill="none" id="curve_13" stroke="#000000" stroke-linecap="round" stroke-linejoin="round" stroke-width="3.1354714028223865"/>
  <path d="M 77.77048217027641, 62.98234470699967 Q 78.69459024078311, 57.14966304166556, 83.57164686114743, 55.380547225514334 " fill="none" id="curve_14" stroke="#000000" stroke-linecap="round" stroke-linejoin="round" stroke-width="3.6362430372168175"/>
  <path d="M 83.57164686114743, 55.380547225514334 Q 77.59503426939084, 58.56990714719396, 73.3085560748025, 66.0584654108072 " fill="none" id="curve_14" stroke="#000000" stroke-linecap="round" stroke-linejoin="round" stroke-width="4.393864313390109"/>
  <path d="M 30.056512929392436, 105.67882357972891 Q 29.893151551182875, 103.75211310411683, 29.704863818249983, 101.042610331666 " fill="none" id="curve_16" stroke="#000000" stroke-linecap="round" stroke-linejoin="round" stroke-width="3.001923655679935"/>
  <path d="M 79.92305808539913, 68.54823876466799 Q 80.77393592048266, 66.37970170149869, 81.30509814068017, 56.764880326593314 " fill="none" id="curve_31" stroke="#000000" stroke-linecap="round" stroke-linejoin="round" stroke-width="2.5577010606893236"/>
  <path d="M 81.66514299838695, 59.87761213697661 Q 81.46822705216654, 57.25154927612588, 80.77179289603134, 56.104179353378925 " fill="none" id="curve_86" stroke="#000000" stroke-linecap="round" stroke-linejoin="round" stroke-width="4.762337858981103"/>
</svg>
