<?xml version="1.0" ?>
<svg height="140" width="140" xmlns="http://www.w3.org/2000/svg">
  <path d="M 86.04357719421387, 76.6017074584961 Q 83.37674249770275, 82.20596057706739, 75.19343688375955, 90.68479963074691 " fill="none" id="curve_1" stroke="#000000" stroke-linecap="round" stroke-linejoin="round" stroke-width="8.838927049968463"/>
  <path d="M 75.19343688375955, 90.68479963074691 Q 69.87364456395547, 96.20926622808874, 45.82903372725768, 111.87777295325618 " fill="none" id="curve_1" stroke="#000000" stroke-linecap="round" stroke-linejoin="round" stroke-width="5.073932479924509"/>
  <path d="M 45.82903372725768, 111.87777295325618 Q 38.57502640075919, 117.77587638449756, 17.290567234301207, 127.09556992683308 " fill="none" id="curve_1" stroke="#000000" stroke-linecap="round" stroke-linejoin="round" stroke-width="5.469836040285459"/>
  <path d="M 9.115559686916045, 137.4569982417386 Q 8.539161922064123, 135.40642104333344, 8.325111470531201, 108.57550290382362 " fill="none" id="curve_2" stroke="#000000" stroke-linecap="round" stroke-linejoin="round" stroke-width="5.2134429017052675"/>
  <path d="M 8.325111470531201, 108.57550290382362 Q 8.408959749571714, 105.45203730426243, 8.464300076837219, 77.29879951335212 " fill="none" id="curve_2" stroke="#000000" stroke-linecap="round" stroke-linejoin="round" stroke-width="5.81693658138172"/>
  <path d="M 8.464300076837219, 77.29879951335212 Q 8.562253923792484, 74.19783555205929, 8.611832418322251, 45.23796425066759 " fill="none" id="curve_2" stroke="#000000" stroke-linecap="round" stroke-linejoin="round" stroke-width="5.666800206131515"/>
  <path d="M 8.611832418322251, 45.23796425066759 Q 8.627179123803195, 16.242668317899202, 8.982680519928925, 10.507050971798051 " fill="none" id="curve_2" stroke="#000000" stroke-linecap="round" stroke-linejoin="round" stroke-width="5.041747813250743"/>
  <path d="M 8.982680519928925, 10.507050971798051 Q 10.94227709844698, 4.114820992955239, 18.414821829920545, 1.6850502030904835 " fill="none" id="curve_2" stroke="#000000" stroke-linecap="round" stroke-linejoin="round" stroke-width="4.184850764106199"/>
  <path d="M 54.64572967430638, 0.7298748603817242 Q 60.58575194889624, 1.3173082502173028, 89.32652290728086, 1.5050483526004685 " fill="none" id="curve_3" stroke="#000000" stroke-linecap="round" stroke-linejoin="round" stroke-width="2.658450263003841"/>
  <path d="M 52.85640680817673, 1.268932341819707 Q 52.09993869470138, 1.0126558221602175, 36.648182108948504, 0.9667727907676035 " fill="none" id="curve_4" stroke="#000000" stroke-linecap="round" stroke-linejoin="round" stroke-width="1.639170948920387"/>
  <path d="M 36.648182108948504, 0.9667727907676035 Q 33.03059901925479, 0.935600227235183, 20.872198705608913, 0.9137348181496611 " fill="none" id="curve_4" stroke="#000000" stroke-linecap="round" stroke-linejoin="round" stroke-width="1.4755225471905795"/>
  <path d="M 6.447279644423977, 23.5092600590502 Q 6.553475609771059, 36.222582594563065, 7.467162294271417, 38.08394192397773 " fill="none" id="curve_6" stroke="#000000" stroke-linecap="round" stroke-linejoin="round" stroke-width="3.515955519243123"/>
  <path d="M 6.081835927700187, 12.006438880322637 Q 7.186081410388161, 6.38795752033862, 13.556350285815608, 4.554332555928492 " fill="none" id="curve_8" stroke="#000000" stroke-linecap="round" stroke-linejoin="round" stroke-width="3.7664577802726313"/>
  <path d="M 6.1290652264693195, 17.529430677497764 Q 7.241977766775966, 16.67579563749935, 8.115518911672137, 14.422975370968018 " fill="none" id="curve_9" stroke="#000000" stroke-linecap="round" stroke-linejoin="round" stroke-width="2.7003544782092046"/>
  <path d="M 88.12626766689652, 72.91174061961607 Q 83.88657298734165, 82.75787337738532, 73.99102344727248, 97.20369876271045 " fill="none" id="curve_16" stroke="#000000" stroke-linecap="round" stroke-linejoin="round" stroke-width="4.65033507655579"/>
  <path d="M 73.99102344727248, 97.20369876271045 Q 69.24888014967823, 109.28988507673043, 60.34912358948007, 122.54545363010527 " fill="none" id="curve_16" stroke="#000000" stroke-linecap="round" stroke-linejoin="round" stroke-width="3.677808444216067"/>
  <path d="M 85.38396534546771, 81.09615221853308 Q 86.26511731969363, 78.8339215766024, 87.47474828826483, 76.68845236149387 " fill="none" id="curve_18" stroke="#000000" stroke-linecap="round" stroke-linejoin="round" stroke-width="7.3836060062914735"/>
  <path d="M 57.887277588502414, 123.89582338050766 Q 57.970773432476726, 125.6886609160021, 58.677537194437825, 126.24676746343499 " fill="none" id="curve_19" stroke="#000000" stroke-linecap="round" stroke-linejoin="round" stroke-width="3.4147616705844346"/>
  <path d="M 16.311999583037718, 125.96153274020905 Q 14.011082661511468, 126.01729647814352, 11.946590563294821, 126.11727882640126 " fill="none" id="curve_20" stroke="#000000" stroke-linecap="round" stroke-linejoin="round" stroke-width="4.694401961778463"/>
  <path d="M 76.55965883984092, 94.38928605547518 Q 71.12885851176424, 102.80510546410619, 63.622831864380366, 114.78543888280862 " fill="none" id="curve_22" stroke="#000000" stroke-linecap="round" stroke-linejoin="round" stroke-width="3.0386888892283173"/>
  <path d="M 49.181525137803376, 110.04123959209618 Q 40.963304731848396, 113.00791635205005, 32.01804639423887, 118.25295608425728 " fill="none" id="curve_23" stroke="#000000" stroke-linecap="round" stroke-linejoin="round" stroke-width="3.7116443014234433"/>
  <path d="M 7.169986332573291, 103.02499793673125 Q 6.71264794468884, 101.61930978613286, 6.593179291371928, 84.31471799300853 " fill="none" id="curve_24" stroke="#000000" stroke-linecap="round" stroke-linejoin="round" stroke-width="2.244608877293084"/>
  <path d="M 6.593179291371928, 84.31471799300853 Q 6.477034581977865, 81.43866453396308, 6.168429089248592, 79.85411264722015 " fill="none" id="curve_24" stroke="#000000" stroke-linecap="round" stroke-linejoin="round" stroke-width="3.1289099388166126"/>
  <path d="M 6.369436297917168, 42.9652630997416 Q 6.778358957873965, 42.4802818182748, 7.472491257920316, 41.44989527180112 " fill="none" id="curve_28" stroke="#000000" stroke-linecap="round" stroke-linejoin="round" stroke-width="2.5037831950158065"/>
  <path d="M 87.2993872061717, 76.3353038108333 Q 84.12219958149474, 78.77106486658973, 80.29250997991446, 84.14191244687258 " fill="none" id="curve_36" stroke="#000000" stroke-linecap="round" stroke-linejoin="round" stroke-width="3.9988173269949225"/>
  <path d="M 49.69929994307579, 111.83670391017867 Q 49.83587700216363, 111.72961075480292, 49.97238504617547, 111.41772584614881 " fill="none" id="curve_41" stroke="#000000" stroke-linecap="round" stroke-linejoin="round" stroke-width="3.971007703502792"/>
  <path d="M 87.22712808382369, 77.16129747449989 Q 86.81770218766665, 76.48981482610606, 86.07551632890932, 75.65864651178416 " fill="none" id="curve_42" stroke="#000000" stroke-linecap="round" stroke-linejoin="round" stroke-width="4.7636538515756595"/>
  <path d="M 7.6710221430107595, 138.47821352182234 Q 8.024858203592546, 137.8420674962922, 8.51978675166883, 136.66889284731846 " fill="none" id="curve_44" stroke="#000000" stroke-linecap="round" stroke-linejoin="round" stroke-width="3.1787933713663543"/>
  <path d="M 8.638912382435274, 116.93409144337491 Q 8.867792406193065, 111.2261888600671, 9.388627277986293, 101.52103004128588 " fill="none" id="curve_49" stroke="#000000" stroke-linecap="round" stroke-linejoin="round" stroke-width="2.4065098268567926"/>
  <path d="M 6.838196721576679, 119.16941938374119 Q 8.292427828033796, 115.24370023889097, 9.358954362485449, 97.220317183541 " fill="none" id="curve_79" stroke="#000000" stroke-linecap="round" stroke-linejoin="round" stroke-width="2.5529693254663863"/>
  <path d="M 28.196472836432246, 121.02278968086453 Q 24.587449911941075, 122.88890445705145, 20.442772770772876, 125.56814415034295 " fill="none" id="curve_87" stroke="#000000" stroke-linecap="round" stroke-linejoin="round" stroke-width="3.8725653986890136"/>
  <path d="M 86.72477330217771, 74.87710259806045 Q 86.16915748574847, 74.99069338320272, 85.4148414568634, 75.14432107894123 " fill="none" id="curve_115" stroke="#000000" stroke-linecap="round" stroke-linejoin="round" stroke-width="4.433665467405693"/>
  <path d="M 69.77706581747168, 98.13501355144922 Q 71.93961523555832, 98.8311618720467, 72.46028142728159, 103.25130456024708 " fill="none" id="curve_130" stroke="#000000" stroke-linecap="round" stroke-linejoin="round" stroke-width="3.702039627098246"/>
</svg>
