<?xml version="1.0" ?>
<svg height="140" width="140" xmlns="http://www.w3.org/2000/svg">
  <path d="M 27.843039989471436, 76.90778923034668 Q 27.284142482348923, 76.78608008169428, 26.552817055810007, 76.42215395752328 " fill="none" id="curve_1" stroke="#000000" stroke-linecap="round" stroke-linejoin="round" stroke-width="5.7842774664353"/>
  <path d="M 19.98430034176505, 80.21992998675603 Q 19.955659736468505, 79.88713467986565, 19.930673933075393, 79.2441920666379 " fill="none" id="curve_2" stroke="#000000" stroke-linecap="round" stroke-linejoin="round" stroke-width="5.638653238915305"/>
  <path d="M 31.031486402120155, 75.10344463577697 Q 35.84466846943413, 67.13081416495697, 44.26898974984773, 50.012413436415315 " fill="none" id="curve_3" stroke="#000000" stroke-linecap="round" stroke-linejoin="round" stroke-width="5.073943329358546"/>
  <path d="M 44.26898974984773, 50.012413436415315 Q 48.22650328645497, 44.717259632359784, 51.258365733809065, 32.74796683192698 " fill="none" id="curve_3" stroke="#000000" stroke-linecap="round" stroke-linejoin="round" stroke-width="6.520638048131174"/>
  <path d="M 51.258365733809065, 32.74796683192698 Q 52.293925545345665, 33.585865415686186, 52.378296564664396, 50.98600406127411 " fill="none" id="curve_3" stroke="#000000" stroke-linecap="round" stroke-linejoin="round" stroke-width="4.522166991662783"/>
  <path d="M 52.378296564664396, 50.98600406127411 Q 51.73653083406061, 53.77749292198144, 51.574423303649446, 70.95936699395064 " fill="none" id="curve_3" stroke="#000000" stroke-linecap="round" stroke-linejoin="round" stroke-width="5.3062747159841885"/>
  <path d="M 51.574423303649446, 70.95936699395064 Q 55.24395890132753, 71.77554290124012, 55.489211619878326, 89.7705948233242 " fill="none" id="curve_3" stroke="#000000" stroke-linecap="round" stroke-linejoin="round" stroke-width="3.330595924529976"/>
  <path d="M 59.59658409803565, 86.5260676397666 Q 59.3887954809206, 87.66814514475753, 59.19258356823052, 89.5186161290011 " fill="none" id="curve_4" stroke="#000000" stroke-linecap="round" stroke-linejoin="round" stroke-width="4.851871438821263"/>
  <path d="M 56.42887945114301, 72.12833620155314 Q 54.575514133104186, 62.21162795824873, 47.72814449831051, 50.25337462404775 " fill="none" id="curve_5" stroke="#000000" stroke-linecap="round" stroke-linejoin="round" stroke-width="2.326088193488772"/>
  <path d="M 57.387559519078785, 94.03906672306883 Q 57.50746023692354, 94.15857177029424, 57.67974604925182, 94.32134407721558 " fill="none" id="curve_7" stroke="#000000" stroke-linecap="round" stroke-linejoin="round" stroke-width="3.763860317426357"/>
  <path d="M 53.78651628761257, 56.32663094329828 Q 53.89237966139001, 56.81827684812408, 53.9637270802595, 58.631881247831004 " fill="none" id="curve_9" stroke="#000000" stroke-linecap="round" stroke-linejoin="round" stroke-width="3.451186486614533"/>
  <path d="M 31.999437289486462, 71.48943391104997 Q 34.57397056636302, 65.42294279129513, 39.73667568922168, 58.764771195282364 " fill="none" id="curve_10" stroke="#000000" stroke-linecap="round" stroke-linejoin="round" stroke-width="2.694192459567248"/>
  <path d="M 58.376547756748835, 74.66039437242091 Q 56.83556208316772, 75.43909754404095, 54.58764439187837, 76.65133022788432 " fill="none" id="curve_11" stroke="#000000" stroke-linecap="round" stroke-linejoin="round" stroke-width="2.9934017564003614"/>
  <path d="M 30.708465114745195, 74.1638899329547 Q 29.10029247671379, 74.34304206547829, 27.9098554531039, 74.7788523522838 " fill="none" id="curve_12" stroke="#000000" stroke-linecap="round" stroke-linejoin="round" stroke-width="4.210864109316624"/>
  <path d="M 50.517664568742944, 39.916122137164585 Q 52.11606227098029, 38.754270327084804, 52.61241086663368, 31.356361102781534 " fill="none" id="curve_13" stroke="#000000" stroke-linecap="round" stroke-linejoin="round" stroke-width="3.5298852445936917"/>
  <path d="M 56.20071334038542, 81.63751937773215 Q 56.27451053367467, 84.3530391672038, 56.53881684522622, 86.33658857162884 " fill="none" id="curve_21" stroke="#000000" stroke-linecap="round" stroke-linejoin="round" stroke-width="4.3473256811394725"/>
  <path d="M 48.24876741001765, 42.16273377802219 Q 51.23118230685241, 39.83681138552387, 53.64426838883397, 33.720647249981695 " fill="none" id="curve_22" stroke="#000000" stroke-linecap="round" stroke-linejoin="round" stroke-width="3.763532109116155"/>
  <path d="M 52.88772471822403, 30.53455600850352 Q 53.237527490138966, 35.54505184837562, 54.4833976397327, 38.52803539317514 " fill="none" id="curve_32" stroke="#000000" stroke-linecap="round" stroke-linejoin="round" stroke-width="3.282783227257217"/>
  <path d="M 44.37111383576256, 43.086160297636646 Q 45.29509066513206, 42.17388060910078, 47.682026400281124, 41.43682818340184 " fill="none" id="curve_33" stroke="#000000" stroke-linecap="round" stroke-linejoin="round" stroke-width="3.17570978296444"/>
  <path d="M 49.73120309894272, 59.48432510389138 Q 50.04734141772334, 59.181895903913876, 50.77902539480804, 58.74248982320051 " fill="none" id="curve_49" stroke="#000000" stroke-linecap="round" stroke-linejoin="round" stroke-width="3.1590332775808094"/>
</svg>
