<?xml version="1.0" ?>
<svg height="140" width="140" xmlns="http://www.w3.org/2000/svg">
  <path d="M 64.06040954589844, 40.042372703552246 Q 60.926690217943865, 42.1952399390604, 57.36798613348236, 48.70970718466589 " fill="none" id="curve_1" stroke="#000000" stroke-linecap="round" stroke-linejoin="round" stroke-width="7.581475183758357"/>
  <path d="M 57.36798613348236, 48.70970718466589 Q 51.33537199328388, 53.1386797088986, 33.66274056135753, 75.00074532309415 " fill="none" id="curve_1" stroke="#000000" stroke-linecap="round" stroke-linejoin="round" stroke-width="4.270736831714576"/>
  <path d="M 33.66274056135753, 75.00074532309415 Q 28.516172050928226, 83.02861589191279, 16.230344086703287, 91.02307464713074 " fill="none" id="curve_1" stroke="#000000" stroke-linecap="round" stroke-linejoin="round" stroke-width="5.269113310758048"/>
  <path d="M 48.04485067812209, 101.47772396539987 Q 48.18595809001522, 113.88047615974669, 50.23443298577853, 115.4807793450064 " fill="none" id="curve_2" stroke="#000000" stroke-linecap="round" stroke-linejoin="round" stroke-width="3.6549482907439432"/>
  <path d="M 45.61203584492674, 101.79705336601572 Q 46.243386182154886, 86.95731906669164, 50.37604475305967, 74.43949521226793 " fill="none" id="curve_3" stroke="#000000" stroke-linecap="round" stroke-linejoin="round" stroke-width="6.078283958993632"/>
  <path d="M 50.37604475305967, 74.43949521226793 Q 53.80630152557864, 65.50773022024535, 60.20619102250189, 49.36499330584614 " fill="none" id="curve_3" stroke="#000000" stroke-linecap="round" stroke-linejoin="round" stroke-width="4.444521524518279"/>
  <path d="M 60.20619102250189, 49.36499330584614 Q 61.603692829026144, 45.079864389883866, 62.920747271916206, 39.04494996420425 " fill="none" id="curve_3" stroke="#000000" stroke-linecap="round" stroke-linejoin="round" stroke-width="4.254054638142735"/>
  <path d="M 37.97562524383694, 70.01876699292617 Q 31.670129531896514, 76.74065976718977, 21.525300898822323, 85.89413074473784 " fill="none" id="curve_4" stroke="#000000" stroke-linecap="round" stroke-linejoin="round" stroke-width="3.4435672926380807"/>
  <path d="M 46.10075226169962, 106.48747366762072 Q 46.36484554313702, 106.1833794969914, 46.54992751347641, 105.38606112594795 " fill="none" id="curve_5" stroke="#000000" stroke-linecap="round" stroke-linejoin="round" stroke-width="4.774037349478952"/>
  <path d="M 41.34381974713122, 63.37052397160272 Q 37.72911641372625, 68.36310994934325, 33.85474825885741, 76.32364691586169 " fill="none" id="curve_7" stroke="#000000" stroke-linecap="round" stroke-linejoin="round" stroke-width="3.39014527524867"/>
  <path d="M 33.85474825885741, 76.32364691586169 Q 35.41606182180929, 72.74549386099989, 38.355551123305254, 69.96857151772349 " fill="none" id="curve_7" stroke="#000000" stroke-linecap="round" stroke-linejoin="round" stroke-width="3.5550290255651906"/>
  <path d="M 61.078233374299444, 43.594954559169295 Q 61.55312013870324, 42.80611352778675, 62.20417214045147, 41.986855791357165 " fill="none" id="curve_8" stroke="#000000" stroke-linecap="round" stroke-linejoin="round" stroke-width="7.013582303879096"/>
  <path d="M 46.69626579755855, 86.38108588627958 Q 46.64205471013305, 85.62945054325282, 46.59289952797119, 83.85120061106001 " fill="none" id="curve_9" stroke="#000000" stroke-linecap="round" stroke-linejoin="round" stroke-width="4.507004388987843"/>
  <path d="M 48.68253139944031, 91.07479283670965 Q 47.769325783724796, 94.28376119236803, 45.0207935917458, 96.21519847361951 " fill="none" id="curve_25" stroke="#000000" stroke-linecap="round" stroke-linejoin="round" stroke-width="2.9373617880189697"/>
  <path d="M 15.732420154948166, 88.98463115889874 Q 16.525282702577258, 89.60471182099647, 18.030729914017215, 90.87620112958334 " fill="none" id="curve_49" stroke="#000000" stroke-linecap="round" stroke-linejoin="round" stroke-width="2.45242285858435"/>
  <path d="M 58.48020514718669, 47.32575492308389 Q 58.923766275110644, 42.56445594419153, 63.640573565257256, 41.405393021510356 " fill="none" id="curve_50" stroke="#000000" stroke-linecap="round" stroke-linejoin="round" stroke-width="3.7153519430959197"/>
  <path d="M 60.47119688679413, 41.8004992079334 Q 59.82889326062523, 42.381846434211305, 59.179982414135765, 43.32774787567847 " fill="none" id="curve_78" stroke="#000000" stroke-linecap="round" stroke-linejoin="round" stroke-width="6.024799119332174"/>
  <path d="M 36.33311011564531, 70.7991196698301 Q 35.37623675391122, 71.56529660942995, 33.886898491992184, 73.60384202406446 " fill="none" id="curve_109" stroke="#000000" stroke-linecap="round" stroke-linejoin="round" stroke-width="2.5762917497845472"/>
</svg>
