<?xml version="1.0" ?>
<svg height="140" width="140" xmlns="http://www.w3.org/2000/svg">
  <path d="M 59.44616463801993, 104.3433370527876 Q 48.50848955996766, 103.77873731049445, 47.08783219889309, 89.86877270914553 " fill="none" id="curve_4" stroke="#000000" stroke-linecap="round" stroke-linejoin="round" stroke-width="4.487821868106349"/>
  <path d="M 47.08783219889309, 89.86877270914553 Q 48.41108565862538, 77.97399203555133, 53.868421593202875, 59.332551597882016 " fill="none" id="curve_4" stroke="#000000" stroke-linecap="round" stroke-linejoin="round" stroke-width="5.965466404529622"/>
  <path d="M 53.868421593202875, 59.332551597882016 Q 58.131525908764566, 52.24983370184403, 64.28428063156213, 32.68224928340239 " fill="none" id="curve_4" stroke="#000000" stroke-linecap="round" stroke-linejoin="round" stroke-width="5.544976830867861"/>
  <path d="M 64.28428063156213, 32.68224928340239 Q 57.52256457622178, 40.33152776953376, 37.75608908531949, 66.89269826755844 " fill="none" id="curve_4" stroke="#000000" stroke-linecap="round" stroke-linejoin="round" stroke-width="5.103521845213247"/>
  <path d="M 37.75608908531949, 66.89269826755844 Q 32.10138532771711, 75.50511724586379, 20.463290544330327, 82.70115897124452 " fill="none" id="curve_4" stroke="#000000" stroke-linecap="round" stroke-linejoin="round" stroke-width="4.786399621505756"/>
  <path d="M 20.463290544330327, 82.70115897124452 Q 16.67419439654247, 82.43068717703709, 16.229191157034222, 77.51408031825399 " fill="none" id="curve_4" stroke="#000000" stroke-linecap="round" stroke-linejoin="round" stroke-width="6.615643666682062"/>
  <path d="M 16.229191157034222, 77.51408031825399 Q 16.923484708573795, 76.16402179657163, 17.984985912670812, 74.53695546157608 " fill="none" id="curve_4" stroke="#000000" stroke-linecap="round" stroke-linejoin="round" stroke-width="3.390664345613194"/>
  <path d="M 63.9217182048461, 31.88950072295914 Q 64.68962456754271, 31.34427465640794, 65.36739305325617, 29.91116153674188 " fill="none" id="curve_5" stroke="#000000" stroke-linecap="round" stroke-linejoin="round" stroke-width="4.144534921316771"/>
  <path d="M 42.83376649685968, 85.50242053942742 Q 49.44405141258783, 89.9530028949064, 53.06843460090877, 101.98581807455963 " fill="none" id="curve_6" stroke="#000000" stroke-linecap="round" stroke-linejoin="round" stroke-width="2.8919145850849013"/>
  <path d="M 33.55079855858396, 68.2070889763474 Q 30.77113020652122, 74.4752641416838, 25.888387515579634, 80.55920613713006 " fill="none" id="curve_7" stroke="#000000" stroke-linecap="round" stroke-linejoin="round" stroke-width="3.5005849429379894"/>
  <path d="M 19.924442877440814, 72.90142982809468 Q 18.68393015580601, 73.54270084570811, 16.98959487452816, 74.53869741689834 " fill="none" id="curve_8" stroke="#000000" stroke-linecap="round" stroke-linejoin="round" stroke-width="2.81439830764309"/>
  <path d="M 58.39271192090073, 39.50950656485806 Q 60.20692095237155, 34.04858359630519, 65.99878788267009, 30.443031857352004 " fill="none" id="curve_9" stroke="#000000" stroke-linecap="round" stroke-linejoin="round" stroke-width="3.5650315241647195"/>
  <path d="M 59.25452213056985, 103.59191346079965 Q 56.650630247359054, 102.68297344076294, 51.76952340911852, 101.52220901006487 " fill="none" id="curve_25" stroke="#000000" stroke-linecap="round" stroke-linejoin="round" stroke-width="2.6995317540045054"/>
  <path d="M 65.05342658126256, 30.119336024267113 Q 60.089335122372674, 35.07637970326202, 51.10505146346301, 46.309304797705806 " fill="none" id="curve_40" stroke="#000000" stroke-linecap="round" stroke-linejoin="round" stroke-width="3.0507193421130436"/>
  <path d="M 26.144565254831267, 78.6585191844135 Q 33.628513156700485, 71.18995752728657, 45.12573628304535, 55.474961023658 " fill="none" id="curve_58" stroke="#000000" stroke-linecap="round" stroke-linejoin="round" stroke-width="2.3247293484728857"/>
  <path d="M 29.544326782226562, 72.29174050688744 Q 27.97950642502053, 76.2702294780537, 23.271245649962452, 80.75719202061634 " fill="none" id="curve_72" stroke="#000000" stroke-linecap="round" stroke-linejoin="round" stroke-width="3.149622806186664"/>
  <path d="M 61.660884857177734, 34.90253448486328 Q 62.03454048089073, 31.07394419161206, 64.83391409251647, 30.07660473784472 " fill="none" id="curve_86" stroke="#000000" stroke-linecap="round" stroke-linejoin="round" stroke-width="3.551216313415254"/>
  <path d="M 48.52476788323115, 86.6137029370436 Q 48.94413085573683, 69.81692175091496, 51.46997920635361, 58.32962868944692 " fill="none" id="curve_88" stroke="#000000" stroke-linecap="round" stroke-linejoin="round" stroke-width="2.639801615651629"/>
  <path d="M 56.53277635128683, 45.94751258111694 Q 52.35450670715176, 47.34752921070655, 47.26953859869204, 50.75297686631663 " fill="none" id="curve_129" stroke="#000000" stroke-linecap="round" stroke-linejoin="round" stroke-width="2.3691145238536384"/>
</svg>
