<?xml version="1.0" ?>
<svg height="140" width="140" xmlns="http://www.w3.org/2000/svg">
  <path d="M 52.528276443481445, 68.26689720153809 Q 51.303499321205955, 70.23348049983797, 50.2495233871816, 77.87762385165553 " fill="none" id="curve_1" stroke="#000000" stroke-linecap="round" stroke-linejoin="round" stroke-width="8.057431009878547"/>
  <path d="M 50.2495233871816, 77.87762385165553 Q 44.748629205963326, 83.42051124015411, 35.14423078495484, 94.56324584203784 " fill="none" id="curve_1" stroke="#000000" stroke-linecap="round" stroke-linejoin="round" stroke-width="7.023179623544536"/>
  <path d="M 35.14423078495484, 94.56324584203784 Q 31.297777118482937, 99.15402424384075, 27.31176049770309, 103.68444918618763 " fill="none" id="curve_1" stroke="#000000" stroke-linecap="round" stroke-linejoin="round" stroke-width="4.78096826532776"/>
  <path d="M 56.165152110306714, 108.64271941436778 Q 53.96142089901674, 102.66742721024907, 51.809460403632656, 81.28305052593706 " fill="none" id="curve_2" stroke="#000000" stroke-linecap="round" stroke-linejoin="round" stroke-width="5.8629296454820885"/>
  <path d="M 51.809460403632656, 81.28305052593706 Q 53.272159438972345, 75.46289587065722, 54.84271095617587, 66.6133778217922 " fill="none" id="curve_2" stroke="#000000" stroke-linecap="round" stroke-linejoin="round" stroke-width="4.459577564894205"/>
  <path d="M 50.17486130016524, 89.53625201169501 Q 51.915343545950265, 89.88079179796102, 52.64144626513228, 92.07405242036047 " fill="none" id="curve_3" stroke="#000000" stroke-linecap="round" stroke-linejoin="round" stroke-width="3.171111976812614"/>
  <path d="M 27.618900231397827, 104.07155222917315 Q 28.24617637201773, 103.52161923076183, 29.09414173826651, 102.42496818788223 " fill="none" id="curve_9" stroke="#000000" stroke-linecap="round" stroke-linejoin="round" stroke-width="3.4376526863400074"/>
  <path d="M 54.43151937360611, 67.05788735815922 Q 53.862096778200694, 67.4860642726397, 53.129528890037705, 68.32607265310702 " fill="none" id="curve_11" stroke="#000000" stroke-linecap="round" stroke-linejoin="round" stroke-width="3.9665773509076336"/>
  <path d="M 53.129528890037705, 68.32607265310702 Q 54.036836164252236, 67.96667581532144, 55.79214250004923, 67.26447236513113 " fill="none" id="curve_11" stroke="#000000" stroke-linecap="round" stroke-linejoin="round" stroke-width="2.871619879382281"/>
  <path d="M 52.20328564052466, 92.70210151725743 Q 53.36647006907191, 96.44586332067699, 54.37921911008648, 103.71420414203239 " fill="none" id="curve_41" stroke="#000000" stroke-linecap="round" stroke-linejoin="round" stroke-width="2.773417953843553"/>
  <path d="M 54.70264222414113, 93.71783663739822 Q 54.552092760134656, 94.15407917168297, 54.41097816029598, 95.09853114025232 " fill="none" id="curve_56" stroke="#000000" stroke-linecap="round" stroke-linejoin="round" stroke-width="3.7274325703324305"/>
  <path d="M 29.549451665348894, 103.40877717333566 Q 28.494766871056946, 103.08622836471488, 27.37523896497909, 102.50905323821931 " fill="none" id="curve_57" stroke="#000000" stroke-linecap="round" stroke-linejoin="round" stroke-width="3.7045750154468906"/>
  <path d="M 32.091741069312334, 96.22964102853501 Q 30.936900505384248, 96.93814469676823, 29.708261241343113, 98.35843304863411 " fill="none" id="curve_99" stroke="#000000" stroke-linecap="round" stroke-linejoin="round" stroke-width="3.8202080004700867"/>
  <path d="M 27.059334007609458, 103.45957624510417 Q 27.752281793459332, 102.71846992877616, 28.829884910346802, 101.3275209728903 " fill="none" id="curve_106" stroke="#000000" stroke-linecap="round" stroke-linejoin="round" stroke-width="2.8097449163249903"/>
  <path d="M 52.08573748545063, 97.21410896905023 Q 50.63450486808009, 94.75321934655528, 49.95295940949458, 82.70852649766006 " fill="none" id="curve_122" stroke="#000000" stroke-linecap="round" stroke-linejoin="round" stroke-width="2.3881580087250813"/>
  <path d="M 56.58202026690654, 66.51214038565068 Q 55.14877161341992, 67.28236075272042, 51.0414756136026, 67.8799722112249 " fill="none" id="curve_123" stroke="#000000" stroke-linecap="round" stroke-linejoin="round" stroke-width="2.7878803883393"/>
  <path d="M 54.76639349869943, 105.13500221058703 Q 55.38639427394509, 106.26572469090098, 57.21482181082823, 106.9335206748327 " fill="none" id="curve_124" stroke="#000000" stroke-linecap="round" stroke-linejoin="round" stroke-width="3.9011407295271914"/>
</svg>
