<?xml version="1.0" ?>
<svg height="140" width="140" xmlns="http://www.w3.org/2000/svg">
  <path d="M 47.37799263000488, 101.97665739059448 Q 46.0307255597372, 101.16459718196207, 45.5886812083135, 95.06503684625113 " fill="none" id="curve_1" stroke="#000000" stroke-linecap="round" stroke-linejoin="round" stroke-width="8.877778348939463"/>
  <path d="M 45.5886812083135, 95.06503684625113 Q 45.797442989929, 84.44690477762306, 46.65110451203895, 76.3714784151368 " fill="none" id="curve_1" stroke="#000000" stroke-linecap="round" stroke-linejoin="round" stroke-width="6.076038570921868"/>
  <path d="M 46.65110451203895, 76.3714784151368 Q 48.56998034687588, 65.38689578556071, 56.18888408597847, 45.81192766047085 " fill="none" id="curve_1" stroke="#000000" stroke-linecap="round" stroke-linejoin="round" stroke-width="5.649598582499723"/>
  <path d="M 56.18888408597847, 45.81192766047085 Q 59.14544465236381, 37.06893510354805, 63.465529100150476, 23.74171588403191 " fill="none" id="curve_1" stroke="#000000" stroke-linecap="round" stroke-linejoin="round" stroke-width="4.581077874063969"/>
  <path d="M 63.465529100150476, 23.74171588403191 Q 56.7729792284196, 33.1072206696593, 35.47383499279178, 53.23970699439083 " fill="none" id="curve_1" stroke="#000000" stroke-linecap="round" stroke-linejoin="round" stroke-width="4.898163092819143"/>
  <path d="M 35.47383499279178, 53.23970699439083 Q 26.627058733630868, 60.11427571507444, 12.877262441246899, 70.82148820784624 " fill="none" id="curve_1" stroke="#000000" stroke-linecap="round" stroke-linejoin="round" stroke-width="4.718795909465879"/>
  <path d="M 44.34614600100123, 101.46704998832146 Q 45.4088658142074, 102.01361848098789, 46.90013549820295, 102.64289316323337 " fill="none" id="curve_2" stroke="#000000" stroke-linecap="round" stroke-linejoin="round" stroke-width="5.926398970629745"/>
  <path d="M 11.298332492371657, 72.66540800112966 Q 11.43757141969467, 72.13690686158185, 11.634748464372796, 71.28304713487422 " fill="none" id="curve_3" stroke="#000000" stroke-linecap="round" stroke-linejoin="round" stroke-width="2.9652501491176166"/>
  <path d="M 41.5749312467988, 46.31719011948965 Q 49.62046328177996, 38.321282429493195, 62.78208392958964, 23.63841893514637 " fill="none" id="curve_4" stroke="#000000" stroke-linecap="round" stroke-linejoin="round" stroke-width="2.7226478264216682"/>
  <path d="M 62.78208392958964, 23.63841893514637 Q 63.05089031336031, 23.081183039115643, 63.474762879738826, 22.29784721588191 " fill="none" id="curve_4" stroke="#000000" stroke-linecap="round" stroke-linejoin="round" stroke-width="3.2925654263673274"/>
  <path d="M 41.0176988530871, 48.56707539346441 Q 33.31344297547332, 52.77109466806773, 24.65763496027204, 60.98282525214403 " fill="none" id="curve_5" stroke="#000000" stroke-linecap="round" stroke-linejoin="round" stroke-width="3.107932836665273"/>
  <path d="M 35.943992233304115, 55.015643920545266 Q 41.944472461594714, 48.2032722101825, 51.57322057691938, 34.4310892290002 " fill="none" id="curve_6" stroke="#000000" stroke-linecap="round" stroke-linejoin="round" stroke-width="2.6540545577156234"/>
  <path d="M 62.90182649723133, 23.31258781393636 Q 62.61207706514964, 23.579145172857366, 61.865514939222294, 23.981934415242357 " fill="none" id="curve_7" stroke="#000000" stroke-linecap="round" stroke-linejoin="round" stroke-width="3.0463016210873968"/>
  <path d="M 33.44212015043703, 52.35759643654248 Q 42.27985500073659, 49.11335835581635, 49.02464017570192, 40.147276676793126 " fill="none" id="curve_11" stroke="#000000" stroke-linecap="round" stroke-linejoin="round" stroke-width="2.436535074232222"/>
  <path d="M 54.98108683519149, 45.68400774530619 Q 56.51692015575977, 40.45597279114858, 58.746341373627736, 30.22982431057362 " fill="none" id="curve_26" stroke="#000000" stroke-linecap="round" stroke-linejoin="round" stroke-width="2.6679222206781983"/>
  <path d="M 53.67467865820646, 32.917504359394115 Q 56.14133784721698, 28.407626153359935, 62.40428998291482, 23.633957394948993 " fill="none" id="curve_41" stroke="#000000" stroke-linecap="round" stroke-linejoin="round" stroke-width="2.283874467271389"/>
  <path d="M 48.59706435753614, 41.00810536318875 Q 42.33075266942013, 44.69467739593405, 32.60988911510488, 53.639871886603174 " fill="none" id="curve_56" stroke="#000000" stroke-linecap="round" stroke-linejoin="round" stroke-width="2.8366556149928255"/>
  <path d="M 46.762579036512136, 68.88587823052258 Q 49.2804872681821, 63.73282468967703, 53.03214238665569, 54.800221855969724 " fill="none" id="curve_58" stroke="#000000" stroke-linecap="round" stroke-linejoin="round" stroke-width="2.6643182795703293"/>
  <path d="M 45.78071938076312, 100.45838209889278 Q 46.35404110411643, 100.06192748726318, 47.13182318378054, 99.47753413899348 " fill="none" id="curve_87" stroke="#000000" stroke-linecap="round" stroke-linejoin="round" stroke-width="5.129133851387197"/>
  <path d="M 15.637682122962843, 66.72746509378786 Q 17.787429301909114, 63.727356731254694, 24.129109420546726, 61.27045298850902 " fill="none" id="curve_102" stroke="#000000" stroke-linecap="round" stroke-linejoin="round" stroke-width="2.453673353510549"/>
  <path d="M 46.348320698200894, 73.32778240648318 Q 46.283100438051285, 69.78697921242079, 46.044942270306464, 67.29390503557003 " fill="none" id="curve_131" stroke="#000000" stroke-linecap="round" stroke-linejoin="round" stroke-width="2.6267882914445884"/>
</svg>
