<?xml version="1.0" ?>
<svg height="140" width="140" xmlns="http://www.w3.org/2000/svg">
  <path d="M 64.89890670776367, 37.432273864746094 Q 65.16401703302, 37.063279378388664, 65.41330707547542, 36.15317886561178 " fill="none" id="curve_1" stroke="#000000" stroke-linecap="round" stroke-linejoin="round" stroke-width="4.757866044191263"/>
  <path d="M 65.41330707547542, 36.15317886561178 Q 63.54618753302421, 44.283429834246306, 59.836960088142625, 52.73237133130999 " fill="none" id="curve_1" stroke="#000000" stroke-linecap="round" stroke-linejoin="round" stroke-width="7.467050601570542"/>
  <path d="M 59.836960088142625, 52.73237133130999 Q 54.425871824077134, 61.39674720922797, 41.57755300222774, 77.93854739987306 " fill="none" id="curve_1" stroke="#000000" stroke-linecap="round" stroke-linejoin="round" stroke-width="3.4989774140700014"/>
  <path d="M 41.57755300222774, 77.93854739987306 Q 34.47469626963009, 85.28633266805512, 26.05956582697457, 97.42438996785631 " fill="none" id="curve_1" stroke="#000000" stroke-linecap="round" stroke-linejoin="round" stroke-width="4.4448294610476085"/>
  <path d="M 57.8039658352775, 109.49191552885024 Q 56.78425723902265, 107.08249542386557, 56.258533190701094, 97.91061864575764 " fill="none" id="curve_2" stroke="#000000" stroke-linecap="round" stroke-linejoin="round" stroke-width="4.371789514699582"/>
  <path d="M 56.258533190701094, 97.91061864575764 Q 57.25980038901794, 85.84419604499746, 61.6022538121452, 64.38214876314561 " fill="none" id="curve_2" stroke="#000000" stroke-linecap="round" stroke-linejoin="round" stroke-width="4.752284576267263"/>
  <path d="M 61.6022538121452, 64.38214876314561 Q 63.152914195285945, 56.45837607328389, 65.5881046779212, 43.19433704803424 " fill="none" id="curve_2" stroke="#000000" stroke-linecap="round" stroke-linejoin="round" stroke-width="3.155072268641808"/>
  <path d="M 49.75711221330665, 69.63946423061711 Q 41.50637690263141, 75.78466144005444, 28.27945199632495, 90.73963391219522 " fill="none" id="curve_3" stroke="#000000" stroke-linecap="round" stroke-linejoin="round" stroke-width="3.364400620489059"/>
  <path d="M 59.188473815444965, 109.81488713704258 Q 60.08689927394701, 113.27725161448932, 64.69992056718932, 114.24710389477798 " fill="none" id="curve_4" stroke="#000000" stroke-linecap="round" stroke-linejoin="round" stroke-width="3.452862492157774"/>
  <path d="M 64.69992056718932, 114.24710389477798 Q 60.69646915493751, 110.7487784350148, 55.903678854319594, 105.50650343559747 " fill="none" id="curve_4" stroke="#000000" stroke-linecap="round" stroke-linejoin="round" stroke-width="2.644183042625766"/>
  <path d="M 61.163239364978075, 46.03321011402096 Q 62.32950409650481, 42.32595690273729, 67.00175528073491, 40.9908375787239 " fill="none" id="curve_7" stroke="#000000" stroke-linecap="round" stroke-linejoin="round" stroke-width="2.740786494584637"/>
  <path d="M 51.01114347756938, 69.48843146777097 Q 45.27125534708282, 71.64098886483484, 42.012981807905724, 77.11354312741213 " fill="none" id="curve_8" stroke="#000000" stroke-linecap="round" stroke-linejoin="round" stroke-width="3.944156099241015"/>
  <path d="M 42.012981807905724, 77.11354312741213 Q 43.61923707450584, 73.71207942154311, 47.736009269651454, 71.91208634362894 " fill="none" id="curve_8" stroke="#000000" stroke-linecap="round" stroke-linejoin="round" stroke-width="3.293046136613255"/>
  <path d="M 42.852957842930444, 76.09350971302105 Q 44.72290802203085, 74.66158084087387, 46.628774244175915, 71.98017733029961 " fill="none" id="curve_11" stroke="#000000" stroke-linecap="round" stroke-linejoin="round" stroke-width="3.682824082011491"/>
  <path d="M 44.518504577357156, 74.88421772229458 Q 44.73987167446141, 74.02960587985494, 45.124384738095074, 72.71445277472948 " fill="none" id="curve_29" stroke="#000000" stroke-linecap="round" stroke-linejoin="round" stroke-width="3.6953710408221014"/>
  <path d="M 60.95321692158377, 60.294172682854196 Q 60.83190821498938, 61.82142187700526, 60.73180656517003, 65.40594873819424 " fill="none" id="curve_70" stroke="#000000" stroke-linecap="round" stroke-linejoin="round" stroke-width="2.4515230936121113"/>
  <path d="M 55.42517015386363, 90.5611698478962 Q 55.78273082707709, 88.55085733243287, 56.61136066686833, 85.57147770776925 " fill="none" id="curve_124" stroke="#000000" stroke-linecap="round" stroke-linejoin="round" stroke-width="2.071271729568298"/>
</svg>
