<?xml version="1.0" ?>
<svg height="140" width="140" xmlns="http://www.w3.org/2000/svg">
  <path d="M 55.272084078675, 100.33484845812717 Q 46.40488547764256, 99.94433012161751, 44.46325122189933, 92.76028982250823 " fill="none" id="curve_2" stroke="#000000" stroke-linecap="round" stroke-linejoin="round" stroke-width="5.5630916580337475"/>
  <path d="M 44.46325122189933, 92.76028982250823 Q 44.631630659377336, 90.86057356635165, 44.70282869065304, 81.50616259447429 " fill="none" id="curve_2" stroke="#000000" stroke-linecap="round" stroke-linejoin="round" stroke-width="8.741080785617841"/>
  <path d="M 44.70282869065304, 81.50616259447429 Q 46.79102528357592, 73.7406967115087, 50.765892408048764, 56.514274810091806 " fill="none" id="curve_2" stroke="#000000" stroke-linecap="round" stroke-linejoin="round" stroke-width="7.57486478824028"/>
  <path d="M 50.765892408048764, 56.514274810091806 Q 53.34507769476816, 45.60681047026505, 63.17666945257923, 28.341592225244085 " fill="none" id="curve_2" stroke="#000000" stroke-linecap="round" stroke-linejoin="round" stroke-width="6.134027342357149"/>
  <path d="M 63.17666945257923, 28.341592225244085 Q 57.366736303070766, 38.33413621046947, 47.201669836511556, 50.18483006201915 " fill="none" id="curve_2" stroke="#000000" stroke-linecap="round" stroke-linejoin="round" stroke-width="5.710407462779006"/>
  <path d="M 47.201669836511556, 50.18483006201915 Q 39.558755491343845, 62.289052003207026, 13.055563372376852, 87.64220620292781 " fill="none" id="curve_2" stroke="#000000" stroke-linecap="round" stroke-linejoin="round" stroke-width="4.670349026258209"/>
  <path d="M 13.055563372376852, 87.64220620292781 Q 22.38201512124896, 77.22013219378597, 40.55866470706263, 59.27952570345283 " fill="none" id="curve_2" stroke="#000000" stroke-linecap="round" stroke-linejoin="round" stroke-width="4.003224410044967"/>
  <path d="M 40.55866470706263, 59.27952570345283 Q 32.76090923146573, 64.0305179886799, 26.113329298916632, 74.02142206067285 " fill="none" id="curve_2" stroke="#000000" stroke-linecap="round" stroke-linejoin="round" stroke-width="3.4801824649033257"/>
  <path d="M 44.54105030726767, 54.34332942921539 Q 42.046464169936016, 55.175882430079504, 39.1766900347599, 56.83431747442891 " fill="none" id="curve_3" stroke="#000000" stroke-linecap="round" stroke-linejoin="round" stroke-width="4.475831518041355"/>
  <path d="M 50.265135765075684, 98.40793895721436 Q 49.51398141106691, 94.04061412768306, 44.46124604457884, 92.39019985552545 " fill="none" id="curve_17" stroke="#000000" stroke-linecap="round" stroke-linejoin="round" stroke-width="3.7870801535000256"/>
  <path d="M 57.96299815712672, 100.10674273632418 Q 56.721682529754645, 100.01124737288683, 54.56924612957676, 99.9064912274804 " fill="none" id="curve_18" stroke="#000000" stroke-linecap="round" stroke-linejoin="round" stroke-width="3.16490215995062"/>
  <path d="M 12.27575229861759, 84.54837104217451 Q 14.440700444071695, 81.2251726020332, 21.88412986559343, 79.18308045577523 " fill="none" id="curve_33" stroke="#000000" stroke-linecap="round" stroke-linejoin="round" stroke-width="2.7508946319354926"/>
  <path d="M 60.01086720030007, 31.09250542828769 Q 61.01493467742067, 28.59570529581257, 63.070523603981286, 26.605477826016518 " fill="none" id="curve_35" stroke="#000000" stroke-linecap="round" stroke-linejoin="round" stroke-width="4.012720704279449"/>
</svg>
