<?xml version="1.0" ?>
<svg height="140" width="140" xmlns="http://www.w3.org/2000/svg">
  <path d="M 46.63617134094238, 98.91000843048096 Q 46.09869714042038, 92.17252149034454, 43.46670373365593, 88.49246212996098 " fill="none" id="curve_1" stroke="#000000" stroke-linecap="round" stroke-linejoin="round" stroke-width="5.7375194735545465"/>
  <path d="M 43.46670373365593, 88.49246212996098 Q 44.14083671467463, 74.91321439515777, 49.59326701652667, 65.19363435660131 " fill="none" id="curve_1" stroke="#000000" stroke-linecap="round" stroke-linejoin="round" stroke-width="4.752939852818015"/>
  <path d="M 49.59326701652667, 65.19363435660131 Q 53.40844389284148, 57.744907211449345, 60.190670454593985, 39.62237782243464 " fill="none" id="curve_1" stroke="#000000" stroke-linecap="round" stroke-linejoin="round" stroke-width="4.320045382131852"/>
  <path d="M 60.190670454593985, 39.62237782243464 Q 59.957204055447704, 36.01648948853053, 57.74718966000632, 35.269794915704374 " fill="none" id="curve_1" stroke="#000000" stroke-linecap="round" stroke-linejoin="round" stroke-width="4.322030992540313"/>
  <path d="M 57.74718966000632, 35.269794915704374 Q 48.22557219721669, 39.610555481376025, 23.875616130328382, 57.08361752812278 " fill="none" id="curve_1" stroke="#000000" stroke-linecap="round" stroke-linejoin="round" stroke-width="4.638037982334312"/>
  <path d="M 23.875616130328382, 57.08361752812278 Q 16.043471077874543, 63.72743851620473, 3.1244947442350863, 76.7047571653946 " fill="none" id="curve_1" stroke="#000000" stroke-linecap="round" stroke-linejoin="round" stroke-width="4.9083684745923915"/>
  <path d="M 3.1244947442350863, 76.7047571653946 Q 4.137131610821714, 71.70464261886025, 8.570138264594085, 69.78887524026294 " fill="none" id="curve_1" stroke="#000000" stroke-linecap="round" stroke-linejoin="round" stroke-width="3.0942612513247494"/>
  <path d="M 46.62829882573716, 95.19093780123916 Q 47.79862609545398, 97.7206372121223, 50.92582484251054, 99.15075542681409 " fill="none" id="curve_2" stroke="#000000" stroke-linecap="round" stroke-linejoin="round" stroke-width="3.563529540554332"/>
  <path d="M 44.23212149279427, 94.09213561849448 Q 44.87167583063875, 94.92161162273761, 45.89661891339146, 95.65567677798036 " fill="none" id="curve_3" stroke="#000000" stroke-linecap="round" stroke-linejoin="round" stroke-width="4.35543186480723"/>
  <path d="M 58.250757953310675, 38.98876125727183 Q 57.782260285072894, 43.68713305926594, 57.086114253601174, 50.36831482274644 " fill="none" id="curve_5" stroke="#000000" stroke-linecap="round" stroke-linejoin="round" stroke-width="2.8719873401115685"/>
  <path d="M 50.44358631987109, 37.77202251489675 Q 43.465369654106695, 41.56258604066819, 32.40522571130042, 49.24616622636783 " fill="none" id="curve_6" stroke="#000000" stroke-linecap="round" stroke-linejoin="round" stroke-width="2.838896682795046"/>
  <path d="M 18.780301995100086, 59.0028367778895 Q 16.123240635276915, 61.764389046674786, 12.654287401422911, 65.49017141169588 " fill="none" id="curve_7" stroke="#000000" stroke-linecap="round" stroke-linejoin="round" stroke-width="2.8260889581858026"/>
  <path d="M 47.70922244806382, 66.61999449747759 Q 50.067228610351, 60.49830284604721, 55.355315559646094, 54.85698616166911 " fill="none" id="curve_14" stroke="#000000" stroke-linecap="round" stroke-linejoin="round" stroke-width="2.3259797928963453"/>
  <path d="M 55.355315559646094, 54.85698616166911 Q 56.53314416496359, 47.48521746559464, 59.43910535104014, 42.183779984590444 " fill="none" id="curve_14" stroke="#000000" stroke-linecap="round" stroke-linejoin="round" stroke-width="3.3604873850916133"/>
  <path d="M 52.774092693137106, 35.897649724011345 Q 55.21777318591146, 35.11944276158886, 60.799061935033436, 34.484283899512704 " fill="none" id="curve_29" stroke="#000000" stroke-linecap="round" stroke-linejoin="round" stroke-width="2.1702691292532497"/>
  <path d="M 57.211266623919144, 50.3262493780316 Q 57.54931064197378, 45.409636422604635, 58.46005874764783, 42.8999433753312 " fill="none" id="curve_30" stroke="#000000" stroke-linecap="round" stroke-linejoin="round" stroke-width="3.7749427449992923"/>
  <path d="M 57.28388272510739, 47.986220272880416 Q 57.57388524933413, 45.50474608325719, 58.79571912500794, 44.25305172241703 " fill="none" id="curve_51" stroke="#000000" stroke-linecap="round" stroke-linejoin="round" stroke-width="4.178661113561406"/>
  <path d="M 56.143384230533485, 47.50541557880369 Q 56.98458925142279, 45.98530763926364, 58.49327457249189, 43.72467010948401 " fill="none" id="curve_56" stroke="#000000" stroke-linecap="round" stroke-linejoin="round" stroke-width="3.2125522663363477"/>
  <path d="M 57.15564689874934, 39.52346643422959 Q 57.00400294947619, 37.96066917278104, 55.902249568391326, 37.461262295510096 " fill="none" id="curve_136" stroke="#000000" stroke-linecap="round" stroke-linejoin="round" stroke-width="2.8829680345083237"/>
</svg>
