<?xml version="1.0" ?>
<svg height="140" width="140" xmlns="http://www.w3.org/2000/svg">
  <path d="M 49.636753361415515, 21.297425988565767 Q 46.62440438595073, 24.059491697665088, 42.2085417405586, 33.009413561705074 " fill="none" id="curve_2" stroke="#000000" stroke-linecap="round" stroke-linejoin="round" stroke-width="5.501557791904215"/>
  <path d="M 42.2085417405586, 33.009413561705074 Q 37.0042923658155, 42.03596514535442, 20.837313403794074, 65.45112818528227 " fill="none" id="curve_2" stroke="#000000" stroke-linecap="round" stroke-linejoin="round" stroke-width="4.5914638721309045"/>
  <path d="M 20.837313403794074, 65.45112818528227 Q 17.93062250064336, 66.98285513716394, 15.288638070026028, 69.45356781619603 " fill="none" id="curve_2" stroke="#000000" stroke-linecap="round" stroke-linejoin="round" stroke-width="5.079808677278448"/>
  <path d="M 46.34905623625298, 43.704474186413364 Q 46.82753048991254, 54.03406383847317, 48.06119366342371, 83.68816174185838 " fill="none" id="curve_3" stroke="#000000" stroke-linecap="round" stroke-linejoin="round" stroke-width="4.418449282380805"/>
  <path d="M 48.06119366342371, 83.68816174185838 Q 48.62822536723734, 87.82760305709903, 48.80798856380182, 116.32894876132504 " fill="none" id="curve_3" stroke="#000000" stroke-linecap="round" stroke-linejoin="round" stroke-width="5.104895305792525"/>
  <path d="M 48.80798856380182, 116.32894876132504 Q 47.3042917997842, 122.56443072814714, 46.555752123554875, 137.93242811159755 " fill="none" id="curve_3" stroke="#000000" stroke-linecap="round" stroke-linejoin="round" stroke-width="5.244740478267805"/>
  <path d="M 46.555752123554875, 137.93242811159755 Q 45.55876818889464, 137.7177984314731, 44.12879434965693, 137.52560661861716 " fill="none" id="curve_3" stroke="#000000" stroke-linecap="round" stroke-linejoin="round" stroke-width="4.986744290457048"/>
  <path d="M 49.656925711371926, 112.98556556594575 Q 49.92463149041984, 108.14357153512493, 50.1645641148418, 97.0452624966291 " fill="none" id="curve_4" stroke="#000000" stroke-linecap="round" stroke-linejoin="round" stroke-width="2.7471162497038697"/>
  <path d="M 50.1645641148418, 97.0452624966291 Q 47.732613305952896, 94.54900970098085, 46.7283113762817, 82.83359939676707 " fill="none" id="curve_4" stroke="#000000" stroke-linecap="round" stroke-linejoin="round" stroke-width="2.8845199599133484"/>
  <path d="M 46.26134033918487, 42.3463416141808 Q 46.460852480567446, 26.881726173011977, 49.23466776889902, 22.5443050775701 " fill="none" id="curve_6" stroke="#000000" stroke-linecap="round" stroke-linejoin="round" stroke-width="3.416573806258049"/>
  <path d="M 49.23466776889902, 22.5443050775701 Q 49.55795366478642, 19.277968059268, 50.60866762743063, 18.022332749474003 " fill="none" id="curve_6" stroke="#000000" stroke-linecap="round" stroke-linejoin="round" stroke-width="4.078888206643994"/>
  <path d="M 42.79735601176117, 34.99712957140531 Q 34.58646237656589, 40.33687200162824, 22.603881386286865, 61.596122151314404 " fill="none" id="curve_7" stroke="#000000" stroke-linecap="round" stroke-linejoin="round" stroke-width="2.6602028323291544"/>
  <path d="M 43.00859287392568, 33.90187347698228 Q 37.32049532283303, 35.68873455383698, 34.24909623527382, 43.21318861330742 " fill="none" id="curve_9" stroke="#000000" stroke-linecap="round" stroke-linejoin="round" stroke-width="2.7561400454975287"/>
  <path d="M 45.524323257174466, 42.289629451193726 Q 45.20476958506567, 38.47155093128048, 44.63045197024087, 34.47323120677069 " fill="none" id="curve_10" stroke="#000000" stroke-linecap="round" stroke-linejoin="round" stroke-width="2.8022928884590583"/>
  <path d="M 22.733349804969446, 61.909537307424394 Q 19.30024994353698, 62.92267976583388, 17.597086362924074, 66.22355806687985 " fill="none" id="curve_11" stroke="#000000" stroke-linecap="round" stroke-linejoin="round" stroke-width="3.859195950451048"/>
  <path d="M 49.592040904161294, 19.670926183714464 Q 49.91365797891801, 18.958430540071376, 50.584009347829564, 18.108442681944194 " fill="none" id="curve_15" stroke="#000000" stroke-linecap="round" stroke-linejoin="round" stroke-width="2.867087851943058"/>
  <path d="M 45.96501243947381, 64.05627680653346 Q 46.13495119190655, 62.92511264758425, 46.238094379149665, 58.60277892593035 " fill="none" id="curve_17" stroke="#000000" stroke-linecap="round" stroke-linejoin="round" stroke-width="3.798720167874802"/>
  <path d="M 49.560306609017395, 20.905128825614554 Q 49.81834790685294, 19.348350916547655, 50.747213633884485, 18.313656320179398 " fill="none" id="curve_36" stroke="#000000" stroke-linecap="round" stroke-linejoin="round" stroke-width="2.5520036591916293"/>
  <path d="M 50.77323640762876, 94.18926293753816 Q 49.178006395596526, 92.5359054463145, 45.67481738000579, 90.49907931253944 " fill="none" id="curve_64" stroke="#000000" stroke-linecap="round" stroke-linejoin="round" stroke-width="1.8950616748172249"/>
  <path d="M 48.55204799094611, 79.95211370751102 Q 48.40673591230439, 78.20362216115322, 48.06841785277221, 77.30660555288227 " fill="none" id="curve_65" stroke="#000000" stroke-linecap="round" stroke-linejoin="round" stroke-width="4.6497990282119686"/>
  <path d="M 21.226907777119074, 62.977398282670606 Q 25.922460696515103, 61.026465189254814, 29.19820094924673, 56.430028262544155 " fill="none" id="curve_71" stroke="#000000" stroke-linecap="round" stroke-linejoin="round" stroke-width="2.585659084291895"/>
  <path d="M 49.46962934864469, 25.64798579803652 Q 48.301272423667356, 28.396736144248433, 43.85191673109721, 29.757096264222135 " fill="none" id="curve_89" stroke="#000000" stroke-linecap="round" stroke-linejoin="round" stroke-width="3.035898393231066"/>
  <path d="M 44.852188671521674, 44.78593219092764 Q 44.97009662963895, 44.66105544488114, 45.069084226772574, 44.29421243275504 " fill="none" id="curve_107" stroke="#000000" stroke-linecap="round" stroke-linejoin="round" stroke-width="3.147810732419047"/>
  <path d="M 47.90757582428603, 114.93417548592424 Q 47.57404178477593, 116.52762786575627, 46.62590506232552, 117.71798248304545 " fill="none" id="curve_122" stroke="#000000" stroke-linecap="round" stroke-linejoin="round" stroke-width="3.541095370861648"/>
  <path d="M 39.59592175958319, 33.65131813676802 Q 39.52755078625763, 34.1639716992129, 39.44176856363036, 35.42987508807514 " fill="none" id="curve_126" stroke="#000000" stroke-linecap="round" stroke-linejoin="round" stroke-width="2.5239828193666143"/>
  <path d="M 44.93023391377208, 44.074612922642785 Q 44.64462494388748, 44.093339528332926, 44.23627989127239, 44.156392781674384 " fill="none" id="curve_143" stroke="#000000" stroke-linecap="round" stroke-linejoin="round" stroke-width="2.5845766244451"/>
  <path d="M 37.03556494399662, 39.920701020431 Q 38.987868477775336, 39.564812805047374, 40.46886391561427, 38.28082042116087 " fill="none" id="curve_160" stroke="#000000" stroke-linecap="round" stroke-linejoin="round" stroke-width="2.660964463738364"/>
  <path d="M 50.06518699848991, 19.252191896327123 Q 49.62034450513819, 19.1171908115304, 48.81816955246319, 18.928446849842594 " fill="none" id="curve_161" stroke="#000000" stroke-linecap="round" stroke-linejoin="round" stroke-width="2.6586099109958603"/>
  <path d="M 46.086407686113034, 79.41865558986865 Q 46.26319056592624, 77.82316953571632, 46.53883475513907, 75.58013359235186 " fill="none" id="curve_176" stroke="#000000" stroke-linecap="round" stroke-linejoin="round" stroke-width="2.3491823699847583"/>
  <path d="M 35.781227256479816, 40.56740002476207 Q 38.919749733755964, 40.409089847466724, 39.78224495731912, 38.97195817627949 " fill="none" id="curve_181" stroke="#000000" stroke-linecap="round" stroke-linejoin="round" stroke-width="2.6964716872837355"/>
</svg>
