<?xml version="1.0" ?>
<svg height="140" width="140" xmlns="http://www.w3.org/2000/svg">
  <path d="M 51.98768465184344, 56.55588926159021 Q 44.55388686351593, 57.494707942981414, 38.20254506946006, 63.55160456157045 " fill="none" id="curve_2" stroke="#000000" stroke-linecap="round" stroke-linejoin="round" stroke-width="5.634867857871174"/>
  <path d="M 38.20254506946006, 63.55160456157045 Q 32.020322393324506, 68.6819126004184, 15.025003136031657, 81.67557709823559 " fill="none" id="curve_2" stroke="#000000" stroke-linecap="round" stroke-linejoin="round" stroke-width="5.804406411072839"/>
  <path d="M 41.732077410299, 102.9617205846902 Q 43.192199971540205, 92.72698856032056, 49.566433465068, 68.1411685113255 " fill="none" id="curve_3" stroke="#000000" stroke-linecap="round" stroke-linejoin="round" stroke-width="4.774851534989997"/>
  <path d="M 49.566433465068, 68.1411685113255 Q 51.20907622911454, 64.98081886165008, 52.71886606623938, 60.11155346522819 " fill="none" id="curve_3" stroke="#000000" stroke-linecap="round" stroke-linejoin="round" stroke-width="5.119552825550589"/>
  <path d="M 43.74121534667692, 104.41173595026713 Q 44.08089074399249, 94.13097582181007, 45.382830267714674, 85.7710534615184 " fill="none" id="curve_5" stroke="#000000" stroke-linecap="round" stroke-linejoin="round" stroke-width="2.436973551723463"/>
  <path d="M 11.322445008216278, 83.75845658014738 Q 11.05890897251427, 83.55121890110735, 10.82598838379311, 83.1037532742359 " fill="none" id="curve_6" stroke="#000000" stroke-linecap="round" stroke-linejoin="round" stroke-width="3.8145165885136425"/>
  <path d="M 48.76991258229513, 73.67476368078417 Q 47.17932466249635, 86.816293866511, 41.162612343290284, 95.33843730515127 " fill="none" id="curve_7" stroke="#000000" stroke-linecap="round" stroke-linejoin="round" stroke-width="2.897542852335005"/>
  <path d="M 51.01399027448588, 67.57395228347787 Q 48.68143095316099, 73.35463138716358, 44.37264046572944, 79.42936648520627 " fill="none" id="curve_22" stroke="#000000" stroke-linecap="round" stroke-linejoin="round" stroke-width="2.8978288190545642"/>
  <path d="M 48.80098763440553, 55.606504735623915 Q 47.78028999487367, 55.6933836289992, 46.26423114018131, 55.80082131552293 " fill="none" id="curve_38" stroke="#000000" stroke-linecap="round" stroke-linejoin="round" stroke-width="3.681659463082494"/>
  <path d="M 49.73482561079163, 63.68812626417821 Q 49.74066505424388, 69.26059413410285, 49.75476801110098, 73.81867156578605 " fill="none" id="curve_66" stroke="#000000" stroke-linecap="round" stroke-linejoin="round" stroke-width="2.7614596406332885"/>
  <path d="M 19.004230924672484, 76.25070733413914 Q 17.884255263535206, 78.08041758303995, 16.019992520431273, 79.9452109610083 " fill="none" id="curve_67" stroke="#000000" stroke-linecap="round" stroke-linejoin="round" stroke-width="3.469530413691239"/>
  <path d="M 43.777058696240374, 87.23376835237264 Q 44.558931133383545, 86.47520371094664, 45.652526255172006, 84.46389106279611 " fill="none" id="curve_82" stroke="#000000" stroke-linecap="round" stroke-linejoin="round" stroke-width="2.6528394506688"/>
</svg>
