<?xml version="1.0" ?>
<svg height="140" width="140" xmlns="http://www.w3.org/2000/svg">
  <path d="M 46.24928283691406, 104.74381446838379 Q 45.263874709205616, 102.93355996130126, 44.09080267592242, 99.43539596766186 " fill="none" id="curve_1" stroke="#000000" stroke-linecap="round" stroke-linejoin="round" stroke-width="8.101385550029514"/>
  <path d="M 44.09080267592242, 99.43539596766186 Q 42.990878407022464, 98.22411096941278, 42.70989211884684, 85.83905173271532 " fill="none" id="curve_1" stroke="#000000" stroke-linecap="round" stroke-linejoin="round" stroke-width="5.8172872746654525"/>
  <path d="M 42.70989211884684, 85.83905173271532 Q 44.13881081383192, 83.87360119698415, 44.67603750909202, 62.13704755256239 " fill="none" id="curve_1" stroke="#000000" stroke-linecap="round" stroke-linejoin="round" stroke-width="5.859398737512134"/>
  <path d="M 44.67603750909202, 62.13704755256239 Q 47.939532380133286, 53.56338081861114, 53.564939120552296, 37.3034003003993 " fill="none" id="curve_1" stroke="#000000" stroke-linecap="round" stroke-linejoin="round" stroke-width="6.468255894573057"/>
  <path d="M 41.98652191893987, 66.37509497397875 Q 35.86481558786107, 78.53898694859926, 16.55352456814013, 93.47596111528975 " fill="none" id="curve_2" stroke="#000000" stroke-linecap="round" stroke-linejoin="round" stroke-width="4.467391983802964"/>
  <path d="M 16.55352456814013, 93.47596111528975 Q 15.960152684844761, 93.82130539453708, 15.248886320548381, 94.301845861821 " fill="none" id="curve_2" stroke="#000000" stroke-linecap="round" stroke-linejoin="round" stroke-width="3.1434770836010397"/>
  <path d="M 49.10831417320536, 51.727519410651304 Q 49.17163747758364, 42.16659158842667, 51.589726642719704, 41.4377251071779 " fill="none" id="curve_3" stroke="#000000" stroke-linecap="round" stroke-linejoin="round" stroke-width="4.422001407064448"/>
  <path d="M 51.589726642719704, 41.4377251071779 Q 49.35134258019258, 49.772817985004416, 44.59180308761469, 57.818930859141076 " fill="none" id="curve_3" stroke="#000000" stroke-linecap="round" stroke-linejoin="round" stroke-width="2.9326820632724435"/>
  <path d="M 53.560484219271075, 39.239075455573904 Q 49.600448354053285, 44.66142582265769, 46.84483065533852, 57.17251111387167 " fill="none" id="curve_4" stroke="#000000" stroke-linecap="round" stroke-linejoin="round" stroke-width="3.2559150308712246"/>
  <path d="M 46.84483065533852, 57.17251111387167 Q 48.39635015855541, 48.17980380167144, 52.951124442697946, 42.24735837515641 " fill="none" id="curve_4" stroke="#000000" stroke-linecap="round" stroke-linejoin="round" stroke-width="3.791440039344721"/>
  <path d="M 52.951124442697946, 42.24735837515641 Q 50.04702070722982, 45.21657925533744, 47.92817962902027, 51.208542799291976 " fill="none" id="curve_4" stroke="#000000" stroke-linecap="round" stroke-linejoin="round" stroke-width="5.1592392401785885"/>
  <path d="M 42.6928970378367, 63.64247354033978 Q 39.76817259341823, 70.17038024480756, 29.36956833955334, 79.61149623234158 " fill="none" id="curve_19" stroke="#000000" stroke-linecap="round" stroke-linejoin="round" stroke-width="2.3644276473394363"/>
  <path d="M 43.72838754663112, 104.16756894866205 Q 45.35749513136616, 103.30539545362882, 47.25351580558877, 102.17165409700546 " fill="none" id="curve_20" stroke="#000000" stroke-linecap="round" stroke-linejoin="round" stroke-width="4.079392675779444"/>
  <path d="M 49.9058170271538, 50.38534258616034 Q 50.32930830328779, 47.803973842796914, 50.78434870847137, 43.15223259350118 " fill="none" id="curve_22" stroke="#000000" stroke-linecap="round" stroke-linejoin="round" stroke-width="6.6822442279425625"/>
  <path d="M 19.78314781188965, 89.71313858032227 Q 20.17770739604173, 87.39245294400834, 25.606377235694424, 86.96403110837008 " fill="none" id="curve_36" stroke="#000000" stroke-linecap="round" stroke-linejoin="round" stroke-width="3.7817418684122495"/>
  <path d="M 46.50194214026813, 58.0222334090974 Q 49.52681986406344, 51.692500137215795, 53.01297694516874, 40.64261877822771 " fill="none" id="curve_38" stroke="#000000" stroke-linecap="round" stroke-linejoin="round" stroke-width="2.9685897360555797"/>
  <path d="M 48.916049778303055, 50.803611124026006 Q 50.063796039651734, 46.60161588369266, 52.017769358861756, 42.88017418880844 " fill="none" id="curve_39" stroke="#000000" stroke-linecap="round" stroke-linejoin="round" stroke-width="4.8004986520667545"/>
  <path d="M 49.851336978207, 48.87606599040476 Q 50.623204676889934, 45.303748664165724, 52.22318763935985, 41.99098690077894 " fill="none" id="curve_54" stroke="#000000" stroke-linecap="round" stroke-linejoin="round" stroke-width="4.121445023303875"/>
  <path d="M 48.145032944697846, 50.75530788018682 Q 48.92731320481132, 46.5843538277383, 51.52045024854014, 44.365863473979665 " fill="none" id="curve_69" stroke="#000000" stroke-linecap="round" stroke-linejoin="round" stroke-width="4.948007900723364"/>
  <path d="M 49.81251631338289, 46.703307057082256 Q 49.70049817093847, 47.466767450301425, 49.447961153730525, 48.27807774766537 " fill="none" id="curve_85" stroke="#000000" stroke-linecap="round" stroke-linejoin="round" stroke-width="4.626967169918437"/>
  <path d="M 40.13641737356852, 66.61120010558852 Q 41.63765934740516, 63.11019651087786, 47.23925111112199, 61.3467979257603 " fill="none" id="curve_100" stroke="#000000" stroke-linecap="round" stroke-linejoin="round" stroke-width="3.24217132601121"/>
  <path d="M 42.273882606661914, 83.24632881399651 Q 42.018668525292206, 82.8053222523155, 41.65603474316431, 82.30121130502215 " fill="none" id="curve_115" stroke="#000000" stroke-linecap="round" stroke-linejoin="round" stroke-width="4.222142924052217"/>
  <path d="M 47.6368210089401, 47.6710777227332 Q 48.17807090863043, 48.7295485272951, 49.654574711087065, 49.73476418779446 " fill="none" id="curve_131" stroke="#000000" stroke-linecap="round" stroke-linejoin="round" stroke-width="4.80102491840676"/>
</svg>
