<?xml version="1.0" ?>
<svg height="140" width="140" xmlns="http://www.w3.org/2000/svg">
  <path d="M 55.93064880371094, 42.10632133483887 Q 55.17117619399931, 42.43647671486324, 54.85215654384905, 45.87263198693586 " fill="none" id="curve_1" stroke="#000000" stroke-linecap="round" stroke-linejoin="round" stroke-width="7.815554837262392"/>
  <path d="M 54.85215654384905, 45.87263198693586 Q 50.7162081271058, 51.560759782583105, 41.75907479238762, 61.093067114033154 " fill="none" id="curve_1" stroke="#000000" stroke-linecap="round" stroke-linejoin="round" stroke-width="6.416133525032031"/>
  <path d="M 41.75907479238762, 61.093067114033154 Q 36.13392622600268, 67.88036575619601, 16.381027951689585, 85.48580313939777 " fill="none" id="curve_1" stroke="#000000" stroke-linecap="round" stroke-linejoin="round" stroke-width="5.573522175816726"/>
  <path d="M 50.08130700190492, 85.69012615449734 Q 51.435730911947545, 94.86826109055394, 53.221316762413366, 105.06470120352786 " fill="none" id="curve_2" stroke="#000000" stroke-linecap="round" stroke-linejoin="round" stroke-width="5.380045289530326"/>
  <path d="M 53.221316762413366, 105.06470120352786 Q 52.242090170961454, 93.4784083701061, 49.86017573371364, 84.77319848604483 " fill="none" id="curve_2" stroke="#000000" stroke-linecap="round" stroke-linejoin="round" stroke-width="5.015308298505396"/>
  <path d="M 49.86017573371364, 84.77319848604483 Q 51.16108749225162, 72.14189836158437, 54.484812079584906, 50.95173259818447 " fill="none" id="curve_2" stroke="#000000" stroke-linecap="round" stroke-linejoin="round" stroke-width="5.8986959159726675"/>
  <path d="M 54.484812079584906, 50.95173259818447 Q 56.09164607663203, 49.01569636035767, 56.60619449518886, 40.26051238855456 " fill="none" id="curve_2" stroke="#000000" stroke-linecap="round" stroke-linejoin="round" stroke-width="4.316675994852098"/>
  <path d="M 16.6717731041687, 88.60393822701232 Q 16.52076095258485, 88.13578745057242, 16.362570799793968, 87.3107379594406 " fill="none" id="curve_4" stroke="#000000" stroke-linecap="round" stroke-linejoin="round" stroke-width="4.228642896882039"/>
  <path d="M 49.05572411526251, 92.9144340210054 Q 50.10805199540803, 74.08310789101259, 54.91514686207284, 52.95776703002677 " fill="none" id="curve_5" stroke="#000000" stroke-linecap="round" stroke-linejoin="round" stroke-width="3.100272659197696"/>
  <path d="M 57.76702648875427, 41.02926097108687 Q 57.568255551930044, 43.02611616805207, 57.0195388716231, 44.73981733851682 " fill="none" id="curve_6" stroke="#000000" stroke-linecap="round" stroke-linejoin="round" stroke-width="3.5604382398860897"/>
  <path d="M 49.976155876255945, 87.04348865729685 Q 51.41362868465742, 75.95036851149456, 53.69762658057826, 52.91546989006687 " fill="none" id="curve_7" stroke="#000000" stroke-linecap="round" stroke-linejoin="round" stroke-width="2.8440742599494153"/>
  <path d="M 48.17546454326409, 90.47018988740564 Q 50.99399781676833, 84.94863847833093, 52.75782897428857, 68.2568267308009 " fill="none" id="curve_8" stroke="#000000" stroke-linecap="round" stroke-linejoin="round" stroke-width="3.811314767313635"/>
  <path d="M 50.03953448029482, 90.27037204490645 Q 50.64539303196351, 64.28213886640262, 55.840407175791405, 49.7193635580277 " fill="none" id="curve_15" stroke="#000000" stroke-linecap="round" stroke-linejoin="round" stroke-width="2.633560058111685"/>
  <path d="M 48.26288833984856, 85.10970900142263 Q 49.13921594397329, 86.50425891231849, 50.07058564383396, 90.00861335979312 " fill="none" id="curve_19" stroke="#000000" stroke-linecap="round" stroke-linejoin="round" stroke-width="3.6062198332317417"/>
  <path d="M 49.58476316454608, 91.90112451004308 Q 50.15297620910647, 68.21541796574849, 54.077667403808924, 54.096772930120764 " fill="none" id="curve_21" stroke="#000000" stroke-linecap="round" stroke-linejoin="round" stroke-width="2.670721497670987"/>
  <path d="M 35.59249788812216, 67.29768426126346 Q 29.02739395619428, 70.86863982734373, 22.85309468028235, 78.623482624596 " fill="none" id="curve_25" stroke="#000000" stroke-linecap="round" stroke-linejoin="round" stroke-width="3.1782249534662452"/>
  <path d="M 48.45028059344109, 88.37123601101698 Q 49.877929865381844, 85.79595589376247, 50.81065111117417, 79.42474887286497 " fill="none" id="curve_27" stroke="#000000" stroke-linecap="round" stroke-linejoin="round" stroke-width="5.8751431586104825"/>
  <path d="M 49.31157037164233, 94.40765965828768 Q 50.11139414493077, 73.41666726278531, 55.22789253119131, 51.164335112440504 " fill="none" id="curve_30" stroke="#000000" stroke-linecap="round" stroke-linejoin="round" stroke-width="2.295379947067231"/>
  <path d="M 49.32082019672192, 88.82229761534956 Q 50.46230693268298, 86.97144936870014, 51.928765561242294, 84.55875929042358 " fill="none" id="curve_31" stroke="#000000" stroke-linecap="round" stroke-linejoin="round" stroke-width="4.397023825494605"/>
  <path d="M 48.62658305517284, 87.4451445431529 Q 49.16549232731249, 84.77554065502429, 50.35946282936016, 79.3653598406128 " fill="none" id="curve_78" stroke="#000000" stroke-linecap="round" stroke-linejoin="round" stroke-width="2.864862399936601"/>
  <path d="M 50.300303440597744, 80.0517061100708 Q 52.196610748497406, 66.36596613867958, 57.38195784410291, 48.01592007264779 " fill="none" id="curve_84" stroke="#000000" stroke-linecap="round" stroke-linejoin="round" stroke-width="2.59242607347658"/>
  <path d="M 50.98134453575818, 69.70690529445915 Q 51.481463041647146, 63.73067285836541, 52.652914231156956, 57.253132991972535 " fill="none" id="curve_99" stroke="#000000" stroke-linecap="round" stroke-linejoin="round" stroke-width="3.347849422478949"/>
  <path d="M 50.45224980610475, 70.9040334348332 Q 51.25936216166717, 67.31536383830506, 52.65171904048507, 63.09420648628876 " fill="none" id="curve_116" stroke="#000000" stroke-linecap="round" stroke-linejoin="round" stroke-width="2.6478566134297092"/>
  <path d="M 55.552222644479244, 44.14358090423517 Q 56.82460377790032, 44.41983762669677, 57.992613960789896, 45.1224301135729 " fill="none" id="curve_132" stroke="#000000" stroke-linecap="round" stroke-linejoin="round" stroke-width="3.8322957765454437"/>
  <path d="M 48.4096779015614, 89.69311104999946 Q 49.303567610515145, 78.26499068982895, 53.633457231622806, 71.43190247464919 " fill="none" id="curve_180" stroke="#000000" stroke-linecap="round" stroke-linejoin="round" stroke-width="3.1432703515448437"/>
</svg>
