<?xml version="1.0" ?>
<svg height="140" width="140" xmlns="http://www.w3.org/2000/svg">
  <path d="M 28.585622787475586, 77.38422870635986 Q 27.005921680099398, 77.67224376498672, 24.971952751604135, 78.24105000694748 " fill="none" id="curve_1" stroke="#000000" stroke-linecap="round" stroke-linejoin="round" stroke-width="4.810225508703686"/>
  <path d="M 24.971952751604135, 78.24105000694748 Q 30.592276591461786, 71.41221530763926, 45.637972813129025, 59.902930054129115 " fill="none" id="curve_1" stroke="#000000" stroke-linecap="round" stroke-linejoin="round" stroke-width="6.691459176930518"/>
  <path d="M 45.637972813129025, 59.902930054129115 Q 49.54594566054681, 60.16204730017194, 52.544400934057826, 60.6916038182776 " fill="none" id="curve_1" stroke="#000000" stroke-linecap="round" stroke-linejoin="round" stroke-width="6.138832212937197"/>
  <path d="M 52.544400934057826, 60.6916038182776 Q 52.63314963133491, 90.7496141818783, 55.3461720178757, 98.56601895347899 " fill="none" id="curve_1" stroke="#000000" stroke-linecap="round" stroke-linejoin="round" stroke-width="5.986186847221988"/>
  <path d="M 55.3461720178757, 98.56601895347899 Q 56.83789905537127, 103.23565590204478, 58.98320406528672, 107.5511966806484 " fill="none" id="curve_1" stroke="#000000" stroke-linecap="round" stroke-linejoin="round" stroke-width="4.426438225901819"/>
  <path d="M 51.74385079556962, 86.35513382853827 Q 51.02629804849773, 83.87004220125532, 50.7830915320333, 60.40559138081936 " fill="none" id="curve_2" stroke="#000000" stroke-linecap="round" stroke-linejoin="round" stroke-width="2.6192448083133884"/>
  <path d="M 50.7830915320333, 60.40559138081936 Q 50.87075642970337, 58.75797557516378, 51.17924787844688, 57.99302205874228 " fill="none" id="curve_2" stroke="#000000" stroke-linecap="round" stroke-linejoin="round" stroke-width="4.92116808378448"/>
  <path d="M 39.555398946785445, 64.17531740213991 Q 32.424321272957094, 68.1719503620144, 28.335773878236097, 77.81745904701746 " fill="none" id="curve_4" stroke="#000000" stroke-linecap="round" stroke-linejoin="round" stroke-width="4.060689438923172"/>
  <path d="M 28.335773878236097, 77.81745904701746 Q 32.07644050486867, 68.18120414661546, 44.334377901139646, 62.09614096765302 " fill="none" id="curve_4" stroke="#000000" stroke-linecap="round" stroke-linejoin="round" stroke-width="3.733306094689457"/>
  <path d="M 44.334377901139646, 62.09614096765302 Q 42.256519922605655, 61.821137088961635, 40.06748718135157, 61.27370985551025 " fill="none" id="curve_4" stroke="#000000" stroke-linecap="round" stroke-linejoin="round" stroke-width="4.691442575453418"/>
  <path d="M 47.413834591277435, 61.77087118184127 Q 39.42387146853354, 67.21962835040146, 26.66847318458659, 74.85451520536775 " fill="none" id="curve_6" stroke="#000000" stroke-linecap="round" stroke-linejoin="round" stroke-width="3.0857024900304277"/>
  <path d="M 55.00479747113051, 65.65505495796175 Q 54.6939831152415, 65.01410005021202, 54.17069401890059, 64.19847727279127 " fill="none" id="curve_22" stroke="#000000" stroke-linecap="round" stroke-linejoin="round" stroke-width="3.962768475457376"/>
  <path d="M 49.54860983566846, 83.13572735365125 Q 50.88129400851074, 86.85903222644191, 52.82970151914844, 92.54720111375329 " fill="none" id="curve_37" stroke="#000000" stroke-linecap="round" stroke-linejoin="round" stroke-width="2.458696685994485"/>
  <path d="M 30.0465744314729, 71.04949242789793 Q 30.195918613361297, 71.89931183614915, 30.42086328438831, 73.40047006111973 " fill="none" id="curve_38" stroke="#000000" stroke-linecap="round" stroke-linejoin="round" stroke-width="3.9964015487124738"/>
  <path d="M 31.738777288756182, 70.69571950180648 Q 30.541051338868606, 71.23053567508707, 29.456823419302246, 72.57673803729504 " fill="none" id="curve_53" stroke="#000000" stroke-linecap="round" stroke-linejoin="round" stroke-width="4.188951155522044"/>
</svg>
