<?xml version="1.0" ?>
<svg height="140" width="140" xmlns="http://www.w3.org/2000/svg">
  <path d="M 64.02853965759277, 28.711066246032715 Q 62.68315783588993, 35.45663508567466, 59.80094669429408, 45.432048807421666 " fill="none" id="curve_1" stroke="#000000" stroke-linecap="round" stroke-linejoin="round" stroke-width="6.956882102223194"/>
  <path d="M 59.80094669429408, 45.432048807421666 Q 54.0850389102523, 53.36941425252491, 32.636795330895886, 72.07140558776983 " fill="none" id="curve_1" stroke="#000000" stroke-linecap="round" stroke-linejoin="round" stroke-width="5.217797626428127"/>
  <path d="M 32.636795330895886, 72.07140558776983 Q 28.469714349122025, 76.96022192081257, 20.16853706996135, 80.28809913264217 " fill="none" id="curve_1" stroke="#000000" stroke-linecap="round" stroke-linejoin="round" stroke-width="5.219918334518873"/>
  <path d="M 62.20600883446457, 46.77772769694687 Q 64.20692018866737, 51.383499199428606, 64.84682102398763, 76.63962952171582 " fill="none" id="curve_3" stroke="#000000" stroke-linecap="round" stroke-linejoin="round" stroke-width="5.95272395406752"/>
  <path d="M 64.84682102398763, 76.63962952171582 Q 64.83591099916941, 91.67680466566084, 64.80043365965382, 114.00846140581774 " fill="none" id="curve_3" stroke="#000000" stroke-linecap="round" stroke-linejoin="round" stroke-width="5.025927869346295"/>
  <path d="M 88.67655223217221, 138.86013264610432 Q 88.9497472833333, 138.1847255688027, 89.20973351586186, 136.87001252553253 " fill="none" id="curve_4" stroke="#000000" stroke-linecap="round" stroke-linejoin="round" stroke-width="3.1895042050347886"/>
  <path d="M 63.587082708562164, 114.99788219246379 Q 63.863050897426284, 113.88675863607007, 64.06988167894436, 110.96041575308654 " fill="none" id="curve_5" stroke="#000000" stroke-linecap="round" stroke-linejoin="round" stroke-width="4.688516048142569"/>
  <path d="M 62.730875580108, 39.44693813610261 Q 63.70975189718104, 34.98966165166995, 64.67960634697147, 26.977577188945606 " fill="none" id="curve_7" stroke="#000000" stroke-linecap="round" stroke-linejoin="round" stroke-width="3.8143811523317943"/>
  <path d="M 64.67960634697147, 26.977577188945606 Q 62.77846846618362, 31.297446911884528, 61.074957424772286, 40.159837341729215 " fill="none" id="curve_7" stroke="#000000" stroke-linecap="round" stroke-linejoin="round" stroke-width="3.4752703749456977"/>
  <path d="M 41.6218070699517, 61.26906696137812 Q 47.24175702695425, 58.9743927772513, 51.406835418533376, 53.05635343458865 " fill="none" id="curve_8" stroke="#000000" stroke-linecap="round" stroke-linejoin="round" stroke-width="2.7032018567960305"/>
  <path d="M 63.19156127414988, 75.66404416155302 Q 63.262643899717936, 87.25573450415678, 63.60869625083142, 90.44988207890108 " fill="none" id="curve_9" stroke="#000000" stroke-linecap="round" stroke-linejoin="round" stroke-width="3.088256966840306"/>
  <path d="M 63.60869625083142, 90.44988207890108 Q 63.85664185084975, 74.3599752523923, 65.37226618182673, 68.98708518184175 " fill="none" id="curve_9" stroke="#000000" stroke-linecap="round" stroke-linejoin="round" stroke-width="2.6926085873217085"/>
  <path d="M 63.8425209418308, 32.722126216950926 Q 64.05043916201379, 31.135029135048256, 64.68163511952596, 29.693597757360717 " fill="none" id="curve_11" stroke="#000000" stroke-linecap="round" stroke-linejoin="round" stroke-width="3.2860172973328203"/>
  <path d="M 31.88078178054962, 72.64474109561503 Q 28.14787229150268, 73.51008545641045, 25.6448781389872, 76.24462796564242 " fill="none" id="curve_12" stroke="#000000" stroke-linecap="round" stroke-linejoin="round" stroke-width="4.061001804230005"/>
  <path d="M 61.94094438969259, 44.23741384888808 Q 61.26877298054882, 43.45622536531997, 58.926908784066725, 42.99828301007791 " fill="none" id="curve_27" stroke="#000000" stroke-linecap="round" stroke-linejoin="round" stroke-width="5.9929148692251415"/>
  <path d="M 63.751814997132705, 30.2486806705899 Q 63.9598486753132, 30.049743297394077, 64.52031021996892, 29.764966909016835 " fill="none" id="curve_28" stroke="#000000" stroke-linecap="round" stroke-linejoin="round" stroke-width="2.73665243055116"/>
  <path d="M 62.57725805959977, 57.12270197906901 Q 62.02950740499141, 55.03371404572851, 61.53965964897768, 48.44884671176213 " fill="none" id="curve_43" stroke="#000000" stroke-linecap="round" stroke-linejoin="round" stroke-width="3.6524800929304004"/>
  <path d="M 64.30147437231324, 31.184308217739755 Q 63.94429964495714, 30.75425752313391, 62.68648552364969, 30.31337720005355 " fill="none" id="curve_67" stroke="#000000" stroke-linecap="round" stroke-linejoin="round" stroke-width="3.171009791256135"/>
  <path d="M 62.879098472784214, 112.9894088337523 Q 62.94983674250892, 112.23082796714318, 63.08841267633191, 111.55380158323077 " fill="none" id="curve_96" stroke="#000000" stroke-linecap="round" stroke-linejoin="round" stroke-width="3.9155326332655034"/>
  <path d="M 63.5282329689806, 43.575030892115954 Q 62.78277537986618, 43.336602919000796, 60.01962556981144, 43.09425441998139 " fill="none" id="curve_102" stroke="#000000" stroke-linecap="round" stroke-linejoin="round" stroke-width="3.4492341314182084"/>
  <path d="M 63.24464529401445, 73.34941408367149 Q 65.66951235026814, 71.86733832929316, 66.5238322715515, 63.72520931692609 " fill="none" id="curve_130" stroke="#000000" stroke-linecap="round" stroke-linejoin="round" stroke-width="2.5435517067994295"/>
  <path d="M 62.509549730549104, 34.316070318647476 Q 63.03993213350116, 32.340219552400356, 64.25077209059121, 30.540074887634265 " fill="none" id="curve_134" stroke="#000000" stroke-linecap="round" stroke-linejoin="round" stroke-width="3.497979982081785"/>
  <path d="M 63.29804602858289, 37.811328783855146 Q 63.47255786583077, 32.9476871109626, 64.24138842502691, 30.641193093990843 " fill="none" id="curve_151" stroke="#000000" stroke-linecap="round" stroke-linejoin="round" stroke-width="3.3380200292508806"/>
</svg>
