<?xml version="1.0" ?>
<svg height="140" width="140" xmlns="http://www.w3.org/2000/svg">
  <path d="M 67.20138454437256, 98.24793815612793 Q 65.07005145679825, 97.74289863519648, 63.9803464715616, 95.09575391722058 " fill="none" id="curve_1" stroke="#000000" stroke-linecap="round" stroke-linejoin="round" stroke-width="7.419365711378014"/>
  <path d="M 63.9803464715616, 95.09575391722058 Q 64.97420917929514, 85.88728488833624, 68.01002541361163, 75.31622967611722 " fill="none" id="curve_1" stroke="#000000" stroke-linecap="round" stroke-linejoin="round" stroke-width="5.656883637340572"/>
  <path d="M 68.01002541361163, 75.31622967611722 Q 71.29686831412401, 68.36079395489264, 76.81508593753834, 44.87656410800625 " fill="none" id="curve_1" stroke="#000000" stroke-linecap="round" stroke-linejoin="round" stroke-width="6.442811141910598"/>
  <path d="M 76.81508593753834, 44.87656410800625 Q 82.91806476948291, 37.95331677936685, 89.65116638233282, 15.812356761494375 " fill="none" id="curve_1" stroke="#000000" stroke-linecap="round" stroke-linejoin="round" stroke-width="5.382276340611054"/>
  <path d="M 89.65116638233282, 15.812356761494375 Q 80.36971257124561, 20.8557464274989, 54.93924775171195, 43.43936450482583 " fill="none" id="curve_1" stroke="#000000" stroke-linecap="round" stroke-linejoin="round" stroke-width="6.366838161945366"/>
  <path d="M 54.93924775171195, 43.43936450482583 Q 48.80473266004736, 48.54201975069645, 39.67708680261204, 52.470383158548785 " fill="none" id="curve_1" stroke="#000000" stroke-linecap="round" stroke-linejoin="round" stroke-width="7.9943255823895285"/>
  <path d="M 74.59119290439187, 95.11450909860864 Q 73.94801646132949, 98.81742143051802, 67.77791672260025, 99.48907516122114 " fill="none" id="curve_2" stroke="#000000" stroke-linecap="round" stroke-linejoin="round" stroke-width="7.039723550579188"/>
  <path d="M 67.77791672260025, 99.48907516122114 Q 73.74330459433084, 97.67216922711364, 76.91224201421288, 93.01592652930397 " fill="none" id="curve_2" stroke="#000000" stroke-linecap="round" stroke-linejoin="round" stroke-width="3.088443444351934"/>
  <path d="M 37.829969972880434, 51.55363464934361 Q 37.334179697975536, 51.24376050329316, 37.02727065292035, 50.238210106780464 " fill="none" id="curve_4" stroke="#000000" stroke-linecap="round" stroke-linejoin="round" stroke-width="5.000149115516172"/>
  <path d="M 79.01956437801135, 20.197116925947363 Q 84.33395216462677, 16.933590022254656, 89.88299003240245, 11.97747389103378 " fill="none" id="curve_6" stroke="#000000" stroke-linecap="round" stroke-linejoin="round" stroke-width="3.5715455999884553"/>
  <path d="M 74.74327606222235, 23.10661843841551 Q 72.58827586533009, 24.341827427850387, 70.50747011721054, 29.749121697710432 " fill="none" id="curve_7" stroke="#000000" stroke-linecap="round" stroke-linejoin="round" stroke-width="3.228716257687982"/>
  <path d="M 70.50747011721054, 29.749121697710432 Q 62.149604821666365, 34.36296908820223, 48.79962587207242, 45.54663967943203 " fill="none" id="curve_7" stroke="#000000" stroke-linecap="round" stroke-linejoin="round" stroke-width="3.7827907042233626"/>
  <path d="M 68.17021127623681, 81.20272043079812 Q 67.94717610260832, 87.48498002232293, 66.23387553192286, 89.49189228730573 " fill="none" id="curve_9" stroke="#000000" stroke-linecap="round" stroke-linejoin="round" stroke-width="2.755632196103093"/>
  <path d="M 72.56949643623808, 56.56095130906996 Q 76.58187841029978, 47.001115153892634, 83.185913579265, 30.61692086482379 " fill="none" id="curve_13" stroke="#000000" stroke-linecap="round" stroke-linejoin="round" stroke-width="3.659399144067367"/>
  <path d="M 1.815415087260149, 54.87908621732424 Q 1.8621118554694558, 57.24778050673883, 1.9669746058762665, 61.73595355123261 " fill="none" id="curve_21" stroke="#000000" stroke-linecap="round" stroke-linejoin="round" stroke-width="1.7124879665005088"/>
  <path d="M 1.9669746058762665, 61.73595355123261 Q 1.2041249762390471, 67.5991806904658, 0.4309199979927347, 98.54903750564888 " fill="none" id="curve_21" stroke="#000000" stroke-linecap="round" stroke-linejoin="round" stroke-width="1.6375963252988497"/>
  <path d="M 2.128344096638461, 137.18894962752228 Q 2.3665404507133703, 137.29115589412774, 2.5345893246720332, 137.63767074896703 " fill="none" id="curve_22" stroke="#000000" stroke-linecap="round" stroke-linejoin="round" stroke-width="3.299362871902078"/>
  <path d="M 2.5345893246720332, 137.63767074896703 Q 2.277659768030283, 136.5348605977207, 2.0179623805250744, 133.20122361087488 " fill="none" id="curve_22" stroke="#000000" stroke-linecap="round" stroke-linejoin="round" stroke-width="2.4712137571554473"/>
  <path d="M 0.47252750345226735, 102.79998097788906 Q 0.5443895681295055, 108.31162761575364, 0.6956628969525265, 114.04110892369097 " fill="none" id="curve_26" stroke="#000000" stroke-linecap="round" stroke-linejoin="round" stroke-width="1.5052263112643123"/>
  <path d="M 0.6999254796664859, 126.8434457939169 Q 0.7048749633227653, 125.74383211961987, 0.7128865700262217, 123.65608267644687 " fill="none" id="curve_27" stroke="#000000" stroke-linecap="round" stroke-linejoin="round" stroke-width="1.3222286358361774"/>
  <path d="M 1.1920342580004522, 100.05032906314769 Q 1.02357614682432, 98.86665689533605, 0.7564845807602932, 96.95177270210336 " fill="none" id="curve_29" stroke="#000000" stroke-linecap="round" stroke-linejoin="round" stroke-width="0.9759085288363115"/>
  <path d="M 2.7365628420958568, 139.14838974934514 Q 2.316132152559663, 138.65620999574102, 1.6830649787473881, 138.12263547292375 " fill="none" id="curve_31" stroke="#000000" stroke-linecap="round" stroke-linejoin="round" stroke-width="2.782899998342024"/>
  <path d="M 39.958982680680194, 54.67109841188438 Q 42.22086658507915, 54.302217374359195, 44.17546284051936, 52.26401568369224 " fill="none" id="curve_35" stroke="#000000" stroke-linecap="round" stroke-linejoin="round" stroke-width="4.218083596450776"/>
  <path d="M 88.32509678431344, 23.85408171454061 Q 82.59829901559895, 32.96090821883162, 74.68580746118487, 47.020714076203745 " fill="none" id="curve_38" stroke="#000000" stroke-linecap="round" stroke-linejoin="round" stroke-width="2.8880644412731424"/>
  <path d="M 72.28039654091344, 51.99442756335225 Q 73.54647556849797, 50.798609308437015, 75.11754923441379, 49.14779218551087 " fill="none" id="curve_53" stroke="#000000" stroke-linecap="round" stroke-linejoin="round" stroke-width="3.0738889247792636"/>
  <path d="M 88.67932417774847, 21.950426466237385 Q 83.92260847838062, 28.173530078748456, 77.8697729490689, 39.48875495652253 " fill="none" id="curve_69" stroke="#000000" stroke-linecap="round" stroke-linejoin="round" stroke-width="2.571163033776081"/>
  <path d="M 86.23075717950333, 15.550138823626636 Q 83.4013498457899, 16.411413647738986, 79.51175657855376, 18.179222776659955 " fill="none" id="curve_70" stroke="#000000" stroke-linecap="round" stroke-linejoin="round" stroke-width="3.014533110343286"/>
  <path d="M 1.2083320117680778, 35.52751406086841 Q 1.2583860878185575, 35.58558636323355, 1.5042027424066258, 35.63437245503895 " fill="none" id="curve_73" stroke="#000000" stroke-linecap="round" stroke-linejoin="round" stroke-width="1.3975022280305747"/>
  <path d="M 1.3271513597058417, 3.4247905407227037 Q 1.1683815134370168, 4.354455148587957, 0.9760002376737003, 7.018698258940954 " fill="none" id="curve_74" stroke="#000000" stroke-linecap="round" stroke-linejoin="round" stroke-width="1.6403718426216052"/>
  <path d="M 0.9760002376737003, 7.018698258940954 Q 0.9061342481284088, 26.200749210001494, 0.3482624943112077, 34.95122652085982 " fill="none" id="curve_74" stroke="#000000" stroke-linecap="round" stroke-linejoin="round" stroke-width="1.439463695639812"/>
  <path d="M 0.3482624943112077, 34.95122652085982 Q 0.4088309443535491, 45.94634437386461, 0.5683629631476322, 53.70193535305769 " fill="none" id="curve_74" stroke="#000000" stroke-linecap="round" stroke-linejoin="round" stroke-width="1.532064331046258"/>
  <path d="M 37.20724919647685, 50.34161179499752 Q 40.31724658013877, 48.07390714671908, 48.3648691521349, 46.00279390837113 " fill="none" id="curve_76" stroke="#000000" stroke-linecap="round" stroke-linejoin="round" stroke-width="2.4669922889188074"/>
  <path d="M 67.25952339080315, 81.49239591807834 Q 69.24940964725619, 70.6350574027572, 73.71262589778863, 55.86204541043557 " fill="none" id="curve_85" stroke="#000000" stroke-linecap="round" stroke-linejoin="round" stroke-width="2.625802575270833"/>
  <path d="M 63.69781227408771, 99.48758739467473 Q 64.42479890407212, 99.40125317255655, 67.12624701300227, 99.32730566351346 " fill="none" id="curve_100" stroke="#000000" stroke-linecap="round" stroke-linejoin="round" stroke-width="3.104958980174478"/>
  <path d="M 83.03335096492658, 28.302071845222024 Q 85.07202010379795, 27.49874773579287, 86.60310586624136, 24.6993687365285 " fill="none" id="curve_107" stroke="#000000" stroke-linecap="round" stroke-linejoin="round" stroke-width="2.3567967548735416"/>
  <path d="M 65.49675797595313, 30.767432197132862 Q 71.3961604861959, 28.933301085984567, 76.16437291370895, 22.72818647917372 " fill="none" id="curve_142" stroke="#000000" stroke-linecap="round" stroke-linejoin="round" stroke-width="2.5437025701064946"/>
  <path d="M 76.16437291370895, 22.72818647917372 Q 76.54379871811757, 22.03827953961077, 77.47299452149537, 21.31363107073254 " fill="none" id="curve_142" stroke="#000000" stroke-linecap="round" stroke-linejoin="round" stroke-width="2.756851367583973"/>
  <path d="M 68.13647052547705, 82.42456616014942 Q 68.39925833331269, 69.4450585196938, 70.39199084902927, 63.59530394645785 " fill="none" id="curve_158" stroke="#000000" stroke-linecap="round" stroke-linejoin="round" stroke-width="2.556315315895791"/>
  <path d="M 37.1123165213102, 53.19924716239079 Q 38.3216719946085, 53.52930298475768, 39.49995146921346, 54.40252068511444 " fill="none" id="curve_166" stroke="#000000" stroke-linecap="round" stroke-linejoin="round" stroke-width="3.1534072827287356"/>
</svg>
