<?xml version="1.0" ?>
<svg height="140" width="140" xmlns="http://www.w3.org/2000/svg">
  <path d="M 50.572519302368164, 82.31574535369873 Q 48.09145714291155, 83.63289267570137, 46.102047790291635, 86.4327552680956 " fill="none" id="curve_1" stroke="#000000" stroke-linecap="round" stroke-linejoin="round" stroke-width="5.266928382517212"/>
  <path d="M 46.102047790291635, 86.4327552680956 Q 49.24946543239095, 80.68356383730895, 55.852303895145695, 72.70894985179338 " fill="none" id="curve_1" stroke="#000000" stroke-linecap="round" stroke-linejoin="round" stroke-width="5.597639849716753"/>
  <path d="M 55.852303895145695, 72.70894985179338 Q 60.06401513496326, 66.69910972443975, 65.78836832670287, 56.74838636474634 " fill="none" id="curve_1" stroke="#000000" stroke-linecap="round" stroke-linejoin="round" stroke-width="5.197657657219889"/>
  <path d="M 65.78836832670287, 56.74838636474634 Q 68.68482224399531, 49.129777579892504, 72.59324055786671, 38.16505870837119 " fill="none" id="curve_1" stroke="#000000" stroke-linecap="round" stroke-linejoin="round" stroke-width="5.375410417120905"/>
  <path d="M 72.59324055786671, 38.16505870837119 Q 73.71397097035282, 34.3877259488161, 74.22701843203916, 18.612420065945408 " fill="none" id="curve_1" stroke="#000000" stroke-linecap="round" stroke-linejoin="round" stroke-width="5.351024823170581"/>
  <path d="M 74.03653369222037, 41.153912970642594 Q 76.029108828851, 48.326879012848295, 77.56146649505229, 80.43057961552381 " fill="none" id="curve_2" stroke="#000000" stroke-linecap="round" stroke-linejoin="round" stroke-width="4.792671745407223"/>
  <path d="M 77.56146649505229, 80.43057961552381 Q 77.68378760475385, 81.8525823218887, 78.07967540309441, 82.63791922442694 " fill="none" id="curve_2" stroke="#000000" stroke-linecap="round" stroke-linejoin="round" stroke-width="2.9554384157031124"/>
  <path d="M 73.1182538526821, 38.82589364874415 Q 73.76219972672338, 38.08593088512532, 73.95620730189654, 33.1692766441526 " fill="none" id="curve_3" stroke="#000000" stroke-linecap="round" stroke-linejoin="round" stroke-width="6.482834314044876"/>
  <path d="M 52.62644949275658, 82.54587250758078 Q 53.59175095145803, 69.52505364573612, 61.33901950685258, 63.109814450771 " fill="none" id="curve_6" stroke="#000000" stroke-linecap="round" stroke-linejoin="round" stroke-width="2.431299266013958"/>
  <path d="M 73.46785540275418, 46.79106591664596 Q 74.20620502187995, 58.581170082958174, 76.44248380382373, 68.74003070919034 " fill="none" id="curve_7" stroke="#000000" stroke-linecap="round" stroke-linejoin="round" stroke-width="2.698595091198601"/>
  <path d="M 76.44248380382373, 68.74003070919034 Q 77.68159741673774, 67.37769063257451, 78.27786081340298, 63.087855013393174 " fill="none" id="curve_7" stroke="#000000" stroke-linecap="round" stroke-linejoin="round" stroke-width="2.9546631386298703"/>
  <path d="M 73.86110479243034, 39.268374523689204 Q 72.49629275921882, 37.74773006900197, 71.89803469436329, 29.673722220007377 " fill="none" id="curve_8" stroke="#000000" stroke-linecap="round" stroke-linejoin="round" stroke-width="4.145005147347298"/>
  <path d="M 72.8039601225368, 40.09826375153348 Q 72.76557447954686, 39.62190645377858, 72.69320388359777, 38.656591329184586 " fill="none" id="curve_10" stroke="#000000" stroke-linecap="round" stroke-linejoin="round" stroke-width="3.218797212981429"/>
  <path d="M 54.0224250300805, 72.28845048958964 Q 53.525712561336164, 72.7929349358669, 52.968507033802474, 73.99766804954464 " fill="none" id="curve_20" stroke="#000000" stroke-linecap="round" stroke-linejoin="round" stroke-width="3.643233384400967"/>
  <path d="M 74.78294200822378, 39.477361625306806 Q 74.22871330962471, 38.21106584743453, 73.3520293496671, 36.731471472937926 " fill="none" id="curve_36" stroke="#000000" stroke-linecap="round" stroke-linejoin="round" stroke-width="3.9525678098676185"/>
  <path d="M 50.917053177718344, 86.30573583681144 Q 49.79511027081256, 85.93021802605176, 47.982989604087095, 85.45794290471875 " fill="none" id="curve_51" stroke="#000000" stroke-linecap="round" stroke-linejoin="round" stroke-width="3.474006855263967"/>
  <path d="M 65.06491413848167, 53.9956534843146 Q 65.24465311528567, 53.84143571650777, 65.48321819429972, 53.513364783887425 " fill="none" id="curve_68" stroke="#000000" stroke-linecap="round" stroke-linejoin="round" stroke-width="2.6909324535180126"/>
  <path d="M 75.02276474602769, 19.13470120232632 Q 75.00330151477527, 18.16799709866951, 74.92458010846339, 17.603775390550815 " fill="none" id="curve_69" stroke="#000000" stroke-linecap="round" stroke-linejoin="round" stroke-width="2.4559090426885506"/>
  <path d="M 77.64922338943394, 68.15589926346455 Q 77.06745540931439, 71.841416495992, 75.82693639063218, 74.67083133928426 " fill="none" id="curve_85" stroke="#000000" stroke-linecap="round" stroke-linejoin="round" stroke-width="3.7494008223919892"/>
  <path d="M 70.92414301349902, 42.062035201498745 Q 70.97328880094304, 37.82755934368521, 72.01441552750016, 37.321190400218036 " fill="none" id="curve_103" stroke="#000000" stroke-linecap="round" stroke-linejoin="round" stroke-width="3.734710496085819"/>
  <path d="M 1.0765527787480096, 74.78024294759871 Q 1.0813311258379796, 86.0065508811043, 1.1245862404557374, 96.8878413522203 " fill="none" id="curve_118" stroke="#000000" stroke-linecap="round" stroke-linejoin="round" stroke-width="1.0570160635236097"/>
  <path d="M 1.1245862404557374, 96.8878413522203 Q 1.0723260362123703, 108.55952203726687, 0.7171007445857738, 131.30087637037013 " fill="none" id="curve_118" stroke="#000000" stroke-linecap="round" stroke-linejoin="round" stroke-width="1.2777677468285926"/>
  <path d="M 0.4959267828358902, 71.27128435653563 Q 0.7807822949301306, 69.90610032496068, 1.0723048039752578, 64.89131870277437 " fill="none" id="curve_123" stroke="#000000" stroke-linecap="round" stroke-linejoin="round" stroke-width="1.491849437913933"/>
  <path d="M 1.2789977760975422, 1.3714964482235033 Q 1.3343895221736484, 2.2827486714468996, 1.4730475254565754, 3.8534487814892695 " fill="none" id="curve_126" stroke="#000000" stroke-linecap="round" stroke-linejoin="round" stroke-width="1.7444840372104495"/>
  <path d="M 76.49747520410341, 74.84147217308146 Q 76.57818950051188, 72.0106947438076, 76.98391691770577, 71.19169503809233 " fill="none" id="curve_141" stroke="#000000" stroke-linecap="round" stroke-linejoin="round" stroke-width="4.6710729417225005"/>
  <path d="M 1.0842538425566781, 7.967909656934211 Q 0.9950743116847826, 20.849260303039113, 0.5879736193289107, 31.2458939778851 " fill="none" id="curve_156" stroke="#000000" stroke-linecap="round" stroke-linejoin="round" stroke-width="1.069510819244162"/>
  <path d="M 1.0432521275547115, 56.66825582382441 Q 0.9337722372347325, 54.59810155238241, 0.8284708307928469, 48.71430272702157 " fill="none" id="curve_157" stroke="#000000" stroke-linecap="round" stroke-linejoin="round" stroke-width="1.559782673350128"/>
</svg>
