<?xml version="1.0" ?>
<svg height="140" width="140" xmlns="http://www.w3.org/2000/svg">
  <path d="M 41.511993408203125, 92.3937578201294 Q 41.551346646031966, 92.07774939253687, 41.56074159373318, 87.9543175186983 " fill="none" id="curve_1" stroke="#000000" stroke-linecap="round" stroke-linejoin="round" stroke-width="7.21959789539806"/>
  <path d="M 41.56074159373318, 87.9543175186983 Q 42.69926791259097, 81.13055986804376, 45.186715077175755, 71.95491789115547 " fill="none" id="curve_1" stroke="#000000" stroke-linecap="round" stroke-linejoin="round" stroke-width="5.855765351105076"/>
  <path d="M 45.186715077175755, 71.95491789115547 Q 47.9873316714147, 64.65534808173753, 53.83154206991766, 47.31911280596191 " fill="none" id="curve_1" stroke="#000000" stroke-linecap="round" stroke-linejoin="round" stroke-width="5.848553599621166"/>
  <path d="M 53.83154206991766, 47.31911280596191 Q 55.362590342321944, 43.717408079130465, 56.266897157742264, 30.405758372813278 " fill="none" id="curve_1" stroke="#000000" stroke-linecap="round" stroke-linejoin="round" stroke-width="5.612594093642964"/>
  <path d="M 56.266897157742264, 30.405758372813278 Q 52.371166973072725, 41.61445660269876, 39.08590117926631, 58.94162989613886 " fill="none" id="curve_1" stroke="#000000" stroke-linecap="round" stroke-linejoin="round" stroke-width="5.369579159697918"/>
  <path d="M 39.08590117926631, 58.94162989613886 Q 31.446519939534625, 69.64589202251115, 17.30364090401019, 87.74492630517865 " fill="none" id="curve_1" stroke="#000000" stroke-linecap="round" stroke-linejoin="round" stroke-width="5.438354237890329"/>
  <path d="M 42.63645430436804, 94.18664236195062 Q 42.70183394773799, 94.091782877395, 42.74821057946119, 93.86698359670444 " fill="none" id="curve_2" stroke="#000000" stroke-linecap="round" stroke-linejoin="round" stroke-width="5.753071239989766"/>
  <path d="M 26.182824316457648, 73.75988569320914 Q 21.26788919238141, 79.08775978931232, 16.63617029053711, 87.12469040966259 " fill="none" id="curve_3" stroke="#000000" stroke-linecap="round" stroke-linejoin="round" stroke-width="3.9752515535522943"/>
  <path d="M 39.80419351022948, 56.41666130951896 Q 42.52753918377419, 48.12340070938342, 51.127662013078975, 42.26655079549259 " fill="none" id="curve_4" stroke="#000000" stroke-linecap="round" stroke-linejoin="round" stroke-width="3.0462374242028276"/>
  <path d="M 38.87214203666243, 60.862026740469304 Q 38.65227848269456, 60.86728373326972, 38.2576333588793, 60.878101668300765 " fill="none" id="curve_8" stroke="#000000" stroke-linecap="round" stroke-linejoin="round" stroke-width="2.782400983006323"/>
  <path d="M 37.81243736742226, 61.591023339070944 Q 39.7578717472601, 61.16287770569065, 41.10222030490236, 59.72930905836453 " fill="none" id="curve_36" stroke="#000000" stroke-linecap="round" stroke-linejoin="round" stroke-width="2.7692943750191135"/>
  <path d="M 18.41944122314453, 89.69210290908813 Q 17.465591699466632, 89.34107821123855, 16.49558113346329, 88.60338104764072 " fill="none" id="curve_63" stroke="#000000" stroke-linecap="round" stroke-linejoin="round" stroke-width="3.3038331876110862"/>
  <path d="M 51.91665044735964, 47.44824384017238 Q 50.21556125868252, 45.874247872101805, 47.37693537335412, 42.8530062514112 " fill="none" id="curve_78" stroke="#000000" stroke-linecap="round" stroke-linejoin="round" stroke-width="2.4646023640760326"/>
  <path d="M 30.47998517508839, 69.22429086278271 Q 30.797146664281428, 67.6303347335663, 31.664750251222554, 65.93171602974066 " fill="none" id="curve_79" stroke="#000000" stroke-linecap="round" stroke-linejoin="round" stroke-width="2.8379955446095235"/>
  <path d="M 47.29140276757494, 59.074336053685556 Q 46.41298467046577, 64.15895681802999, 44.34665640624272, 71.63070149591847 " fill="none" id="curve_94" stroke="#000000" stroke-linecap="round" stroke-linejoin="round" stroke-width="2.1837200368067475"/>
  <path d="M 28.357718905705248, 68.81696754441592 Q 29.314101311008027, 68.81662705701446, 30.345547725428275, 68.81561131069132 " fill="none" id="curve_123" stroke="#000000" stroke-linecap="round" stroke-linejoin="round" stroke-width="2.6713919291766373"/>
</svg>
