<?xml version="1.0" ?>
<svg height="140" width="140" xmlns="http://www.w3.org/2000/svg">
  <path d="M 11.239577770233154, 78.93784070014954 Q 12.290048187882315, 75.6405886719736, 15.616593380828135, 71.88512404899501 " fill="none" id="curve_1" stroke="#000000" stroke-linecap="round" stroke-linejoin="round" stroke-width="6.580969535871574"/>
  <path d="M 15.616593380828135, 71.88512404899501 Q 20.024027516461555, 63.10052027449722, 31.7617104005804, 38.768760905522036 " fill="none" id="curve_1" stroke="#000000" stroke-linecap="round" stroke-linejoin="round" stroke-width="6.208803120621281"/>
  <path d="M 31.7617104005804, 38.768760905522036 Q 37.27027309816153, 32.11016034077271, 42.369918263979, 11.932541743669638 " fill="none" id="curve_1" stroke="#000000" stroke-linecap="round" stroke-linejoin="round" stroke-width="5.524685490212004"/>
  <path d="M 42.369918263979, 11.932541743669638 Q 37.29724343053189, 23.556623901025738, 13.329307433210957, 40.43208066863251 " fill="none" id="curve_1" stroke="#000000" stroke-linecap="round" stroke-linejoin="round" stroke-width="5.740844784322564"/>
  <path d="M 13.329307433210957, 40.43208066863251 Q 8.650878543252777, 45.93933221193548, 2.0566443403921912, 51.27777273486278 " fill="none" id="curve_1" stroke="#000000" stroke-linecap="round" stroke-linejoin="round" stroke-width="4.1700713178796"/>
  <path d="M 13.184921130394754, 80.86194369350532 Q 12.8737287918649, 80.33044270972479, 12.725822554719052, 78.08778924815701 " fill="none" id="curve_2" stroke="#000000" stroke-linecap="round" stroke-linejoin="round" stroke-width="7.680023998548213"/>
  <path d="M 12.725822554719052, 78.08778924815701 Q 15.430765730575597, 65.8738503792153, 23.292821930002837, 55.32745963494033 " fill="none" id="curve_2" stroke="#000000" stroke-linecap="round" stroke-linejoin="round" stroke-width="3.0877306152653614"/>
  <path d="M 20.83301139159962, 32.95329064312618 Q 28.780779435902414, 28.362478506154424, 37.669563871759436, 18.444639381680574 " fill="none" id="curve_3" stroke="#000000" stroke-linecap="round" stroke-linejoin="round" stroke-width="3.2076787789037384"/>
  <path d="M 37.669563871759436, 18.444639381680574 Q 32.07922199688418, 25.904379171314197, 18.699815302625314, 33.54525288474206 " fill="none" id="curve_3" stroke="#000000" stroke-linecap="round" stroke-linejoin="round" stroke-width="3.3991272798239143"/>
  <path d="M 19.49825817016638, 60.545654509354094 Q 23.728250548006105, 54.01121566038001, 28.868176068116185, 42.469292505233504 " fill="none" id="curve_10" stroke="#000000" stroke-linecap="round" stroke-linejoin="round" stroke-width="3.208646547832172"/>
  <path d="M 32.76871871948242, 20.42321014404297 Q 35.729647837523615, 17.49394333610078, 43.026281858372215, 14.123818266675642 " fill="none" id="curve_63" stroke="#000000" stroke-linecap="round" stroke-linejoin="round" stroke-width="3.5151047593305647"/>
  <path d="M 36.93241675787768, 26.54782690350226 Q 29.943195178993747, 27.43335768674647, 26.26299175912681, 30.852003754492365 " fill="none" id="curve_64" stroke="#000000" stroke-linecap="round" stroke-linejoin="round" stroke-width="2.2401729651976323"/>
  <path d="M 28.800356283764234, 41.7856040763225 Q 25.092593805027086, 49.863886496345614, 18.98193214485522, 60.24327646034067 " fill="none" id="curve_80" stroke="#000000" stroke-linecap="round" stroke-linejoin="round" stroke-width="2.951740130402221"/>
</svg>
