<?xml version="1.0" ?>
<svg height="140" width="140" xmlns="http://www.w3.org/2000/svg">
  <path d="M 60.16320819139514, 49.248077710638995 Q 60.37562934307929, 47.071972637529356, 61.263753307457954, 45.53921602249251 " fill="none" id="curve_2" stroke="#000000" stroke-linecap="round" stroke-linejoin="round" stroke-width="7.166854040727438"/>
  <path d="M 61.263753307457954, 45.53921602249251 Q 58.21621621658623, 55.36343724484839, 38.009977133466904, 69.46232350656783 " fill="none" id="curve_2" stroke="#000000" stroke-linecap="round" stroke-linejoin="round" stroke-width="5.594378452751303"/>
  <path d="M 38.009977133466904, 69.46232350656783 Q 32.946240178737455, 75.11162665397359, 24.501037924485672, 79.30967630482183 " fill="none" id="curve_2" stroke="#000000" stroke-linecap="round" stroke-linejoin="round" stroke-width="7.849186196740789"/>
  <path d="M 56.62062815099827, 89.2348400096815 Q 56.806808180459974, 58.33232679473703, 62.39065798250218, 52.731361468315086 " fill="none" id="curve_3" stroke="#000000" stroke-linecap="round" stroke-linejoin="round" stroke-width="6.431287101882139"/>
  <path d="M 59.15607104171247, 93.16077410190277 Q 61.33565843518573, 93.23533753872682, 63.381327792050364, 93.3742248195111 " fill="none" id="curve_4" stroke="#000000" stroke-linecap="round" stroke-linejoin="round" stroke-width="5.605407761225122"/>
  <path d="M 53.92290656346615, 85.37566353659133 Q 54.76565563021947, 68.58442887358935, 59.163115766891096, 60.95283927220187 " fill="none" id="curve_5" stroke="#000000" stroke-linecap="round" stroke-linejoin="round" stroke-width="4.413025481763854"/>
  <path d="M 65.11599846554643, 45.71293171735613 Q 64.06836702091375, 46.18203992548615, 62.45559211432804, 46.7896946132468 " fill="none" id="curve_6" stroke="#000000" stroke-linecap="round" stroke-linejoin="round" stroke-width="5.289659873273482"/>
  <path d="M 55.41980655919286, 61.11015411934724 Q 54.27420116997012, 70.98912429234556, 53.085580458539496, 86.9248641941896 " fill="none" id="curve_8" stroke="#000000" stroke-linecap="round" stroke-linejoin="round" stroke-width="3.148162022914409"/>
  <path d="M 58.48156256499744, 91.86020493314004 Q 58.27491031185896, 92.01969809679004, 58.049354634463995, 92.33303600168445 " fill="none" id="curve_9" stroke="#000000" stroke-linecap="round" stroke-linejoin="round" stroke-width="5.308774226651639"/>
  <path d="M 26.856792756680534, 75.26326953339962 Q 24.988190276557795, 76.60906232129173, 23.4678558191026, 79.68382707243728 " fill="none" id="curve_10" stroke="#000000" stroke-linecap="round" stroke-linejoin="round" stroke-width="4.814055644642099"/>
  <path d="M 39.3992798029551, 66.2677168129952 Q 33.453886314672026, 72.73188395676235, 24.447327418238906, 79.75946527787089 " fill="none" id="curve_17" stroke="#000000" stroke-linecap="round" stroke-linejoin="round" stroke-width="4.639863489484221"/>
  <path d="M 55.97449429267509, 89.2252884831212 Q 56.60627631066407, 90.90846985896793, 58.591961820966155, 92.43105140185703 " fill="none" id="curve_18" stroke="#000000" stroke-linecap="round" stroke-linejoin="round" stroke-width="4.743383123895404"/>
  <path d="M 58.591961820966155, 92.43105140185703 Q 58.10817223055598, 91.73427831384963, 57.58403703023736, 90.13958271714985 " fill="none" id="curve_18" stroke="#000000" stroke-linecap="round" stroke-linejoin="round" stroke-width="7.196441068589704"/>
  <path d="M 24.12749802977276, 80.91274990551355 Q 24.56929651742797, 79.62840749951182, 25.19509117200203, 76.78237517740459 " fill="none" id="curve_20" stroke="#000000" stroke-linecap="round" stroke-linejoin="round" stroke-width="4.062211634127292"/>
  <path d="M 60.57751796000321, 89.6474930811143 Q 58.049369261876556, 87.12619820243484, 53.56062852729366, 83.04093749238402 " fill="none" id="curve_36" stroke="#000000" stroke-linecap="round" stroke-linejoin="round" stroke-width="2.3228750590461567"/>
  <path d="M 59.641160499988835, 44.44656910351962 Q 60.06387553963178, 44.54531530758606, 60.779390303525446, 44.71237552945561 " fill="none" id="curve_39" stroke="#000000" stroke-linecap="round" stroke-linejoin="round" stroke-width="3.5021546994860446"/>
  <path d="M 62.41231599526526, 60.701679892724954 Q 61.741553715072605, 57.014398297996564, 49.48670361170272, 56.31620782509405 " fill="none" id="curve_55" stroke="#000000" stroke-linecap="round" stroke-linejoin="round" stroke-width="3.9226057656199322"/>
  <path d="M 58.41019517035352, 44.00725206239149 Q 61.43692043192612, 44.96094647342453, 63.275211949390076, 47.69213725401221 " fill="none" id="curve_56" stroke="#000000" stroke-linecap="round" stroke-linejoin="round" stroke-width="5.773448118731949"/>
  <path d="M 24.836748426618257, 76.4454002843606 Q 25.21611429559673, 76.67343690281234, 25.65440475970106, 77.26935573346427 " fill="none" id="curve_75" stroke="#000000" stroke-linecap="round" stroke-linejoin="round" stroke-width="4.142765661641633"/>
  <path d="M 52.01199175901661, 72.69153021504712 Q 52.52478977460211, 75.82365918992609, 54.0877401142835, 79.50587812101132 " fill="none" id="curve_103" stroke="#000000" stroke-linecap="round" stroke-linejoin="round" stroke-width="1.9745968367943607"/>
  <path d="M 24.895963749497284, 80.10738371550606 Q 24.678944385552658, 79.2630164867726, 24.48711230528378, 77.1463760416882 " fill="none" id="curve_119" stroke="#000000" stroke-linecap="round" stroke-linejoin="round" stroke-width="5.004789915786175"/>
  <path d="M 23.77175218862969, 76.72689918616406 Q 25.94112335078771, 74.38056835014476, 33.61843778564941, 72.49595637370075 " fill="none" id="curve_149" stroke="#000000" stroke-linecap="round" stroke-linejoin="round" stroke-width="2.7274268001884936"/>
  <path d="M 44.924556143486654, 61.75448125053216 Q 43.41035532971244, 65.61748859642279, 40.29380199936373, 68.87380904138547 " fill="none" id="curve_150" stroke="#000000" stroke-linecap="round" stroke-linejoin="round" stroke-width="4.07786121157779"/>
</svg>
