<?xml version="1.0" ?>
<svg height="140" width="140" xmlns="http://www.w3.org/2000/svg">
  <path d="M 57.04026222229004, 64.56438159942627 Q 57.98730171595859, 63.776434060057056, 59.15098680479403, 62.32888434566655 " fill="none" id="curve_1" stroke="#000000" stroke-linecap="round" stroke-linejoin="round" stroke-width="4.498545203522025"/>
  <path d="M 59.15098680479403, 62.32888434566655 Q 59.23260404784793, 66.48642472862163, 59.5331861853581, 68.96907284306492 " fill="none" id="curve_1" stroke="#000000" stroke-linecap="round" stroke-linejoin="round" stroke-width="9.287068549994741"/>
  <path d="M 59.5331861853581, 68.96907284306492 Q 52.566885453222426, 71.47786254141634, 40.193894712656665, 88.17207423642529 " fill="none" id="curve_1" stroke="#000000" stroke-linecap="round" stroke-linejoin="round" stroke-width="4.688742122375662"/>
  <path d="M 40.193894712656665, 88.17207423642529 Q 33.15548123580271, 94.37172035108239, 17.714578513718596, 107.71632128535596 " fill="none" id="curve_1" stroke="#000000" stroke-linecap="round" stroke-linejoin="round" stroke-width="4.868576922479013"/>
  <path d="M 17.714578513718596, 107.71632128535596 Q 17.580219685119783, 107.5366409176393, 17.409265762829882, 107.3244524888906 " fill="none" id="curve_1" stroke="#000000" stroke-linecap="round" stroke-linejoin="round" stroke-width="3.824376051066465"/>
  <path d="M 65.68511701658915, 119.85787149560404 Q 62.070703613400646, 117.13192320369475, 60.879240578073585, 92.98805002459366 " fill="none" id="curve_2" stroke="#000000" stroke-linecap="round" stroke-linejoin="round" stroke-width="5.157313659266639"/>
  <path d="M 60.879240578073585, 92.98805002459366 Q 60.64074112120221, 78.05245979905229, 59.359915467394615, 71.41093895132703 " fill="none" id="curve_2" stroke="#000000" stroke-linecap="round" stroke-linejoin="round" stroke-width="4.8872969556336665"/>
  <path d="M 59.359915467394615, 71.41093895132703 Q 58.990773681397485, 67.35927437253059, 56.9357034232932, 66.32094887976258 " fill="none" id="curve_2" stroke="#000000" stroke-linecap="round" stroke-linejoin="round" stroke-width="5.469236703831594"/>
  <path d="M 61.9579835391224, 107.832978863297 Q 63.91373323382294, 117.17650886963257, 68.57713855480333, 121.31007226951994 " fill="none" id="curve_3" stroke="#000000" stroke-linecap="round" stroke-linejoin="round" stroke-width="5.700434562746936"/>
  <path d="M 68.57713855480333, 121.31007226951994 Q 67.52174655983401, 121.83700328819359, 65.1190201946563, 122.16524510095229 " fill="none" id="curve_3" stroke="#000000" stroke-linecap="round" stroke-linejoin="round" stroke-width="3.5279447064272467"/>
  <path d="M 65.1190201946563, 122.16524510095229 Q 62.36855040304921, 115.48830915820358, 59.430500206036115, 103.42017530214333 " fill="none" id="curve_3" stroke="#000000" stroke-linecap="round" stroke-linejoin="round" stroke-width="3.02353433026573"/>
  <path d="M 42.33393268565827, 86.59273403749876 Q 33.239035300741385, 90.1997744286005, 21.66824360191589, 102.06937592972942 " fill="none" id="curve_4" stroke="#000000" stroke-linecap="round" stroke-linejoin="round" stroke-width="3.2977528049172125"/>
  <path d="M 53.68071668036805, 69.0227595644785 Q 55.009094408515104, 66.89672518113768, 58.38728527586315, 65.10085063939769 " fill="none" id="curve_6" stroke="#000000" stroke-linecap="round" stroke-linejoin="round" stroke-width="3.0357964975070053"/>
  <path d="M 59.57712635221536, 84.58716694037122 Q 59.30016263286548, 83.18835654861098, 59.12042077129627, 79.90598912001657 " fill="none" id="curve_7" stroke="#000000" stroke-linecap="round" stroke-linejoin="round" stroke-width="4.5562464121704105"/>
  <path d="M 37.488131469399605, 90.04063349367911 Q 39.91732440247131, 85.24212583349342, 46.22708815850113, 80.81444280277488 " fill="none" id="curve_22" stroke="#000000" stroke-linecap="round" stroke-linejoin="round" stroke-width="2.392400542277357"/>
  <path d="M 2.017597198486328, 2.571178436279297 Q 2.0578349696261022, 2.394126543892064, 2.0987619525831196, 1.9307244317162784 " fill="none" id="curve_36" stroke="#000000" stroke-linecap="round" stroke-linejoin="round" stroke-width="3.453622146903933"/>
  <path d="M 2.0987619525831196, 1.9307244317162784 Q 2.8493968592068795, 1.6602274924328377, 3.613563135329287, 0.8113342998301907 " fill="none" id="curve_36" stroke="#000000" stroke-linecap="round" stroke-linejoin="round" stroke-width="1.8543889739378407"/>
  <path d="M 62.23518871710588, 82.42816037873656 Q 61.902648454523984, 87.62708362222467, 61.04045836788251, 91.93201687416887 " fill="none" id="curve_131" stroke="#000000" stroke-linecap="round" stroke-linejoin="round" stroke-width="2.2398247369956126"/>
</svg>
