<?xml version="1.0" ?>
<svg height="140" width="140" xmlns="http://www.w3.org/2000/svg">
  <path d="M 69.16617007091554, 30.83216860317424 Q 65.58706233103345, 36.34519284516774, 57.964893157354226, 43.46296220529031 " fill="none" id="curve_2" stroke="#000000" stroke-linecap="round" stroke-linejoin="round" stroke-width="7.2536298231226235"/>
  <path d="M 57.964893157354226, 43.46296220529031 Q 52.31642458871849, 48.09283085721676, 33.80670374093924, 63.60367422939106 " fill="none" id="curve_2" stroke="#000000" stroke-linecap="round" stroke-linejoin="round" stroke-width="3.851748185072961"/>
  <path d="M 33.80670374093924, 63.60367422939106 Q 27.47871793173539, 68.12090794514819, 8.468726622843299, 84.42249023063818 " fill="none" id="curve_2" stroke="#000000" stroke-linecap="round" stroke-linejoin="round" stroke-width="3.9026748581248207"/>
  <path d="M 0.5882357034254175, 85.24956691506988 Q 0.7471869854462674, 95.9508331024503, 1.2813040111530163, 117.70923118748648 " fill="none" id="curve_7" stroke="#000000" stroke-linecap="round" stroke-linejoin="round" stroke-width="1.258508248137238"/>
  <path d="M 1.9595443621582493, 138.57066740129926 Q 1.7006259916082505, 137.07403352890984, 1.4462930193313404, 133.693606651381 " fill="none" id="curve_8" stroke="#000000" stroke-linecap="round" stroke-linejoin="round" stroke-width="1.7061413303992192"/>
  <path d="M 1.390669836616662, 123.83490136052617 Q 1.2105918337443446, 125.58097304848093, 1.0042238407762687, 129.7820707129408 " fill="none" id="curve_11" stroke="#000000" stroke-linecap="round" stroke-linejoin="round" stroke-width="1.4660282887251348"/>
  <path d="M 6.48333140007022, 85.09057670010176 Q 7.529780359035827, 85.0534748135474, 8.169075631442405, 84.91237314207046 " fill="none" id="curve_13" stroke="#000000" stroke-linecap="round" stroke-linejoin="round" stroke-width="3.267168335934361"/>
  <path d="M 1.2501326925915373, 77.98048349844166 Q 1.0818361615672836, 71.80530399848195, 0.5612983606860183, 65.97286087918394 " fill="none" id="curve_16" stroke="#000000" stroke-linecap="round" stroke-linejoin="round" stroke-width="1.7845571041748938"/>
  <path d="M 1.0351527716844091, 28.606729865618732 Q 0.9840593982403301, 25.704828003602586, 0.9084316813034263, 20.884797407642612 " fill="none" id="curve_17" stroke="#000000" stroke-linecap="round" stroke-linejoin="round" stroke-width="1.6389465708919742"/>
  <path d="M 64.13822908935728, 41.16354346345799 Q 60.41886489713636, 48.4465380459135, 51.462604975920456, 71.46925180568363 " fill="none" id="curve_19" stroke="#000000" stroke-linecap="round" stroke-linejoin="round" stroke-width="4.029251850811696"/>
  <path d="M 51.462604975920456, 71.46925180568363 Q 51.61874291125322, 73.38110301740198, 52.18642155232885, 74.35273988185108 " fill="none" id="curve_19" stroke="#000000" stroke-linecap="round" stroke-linejoin="round" stroke-width="3.234470137299715"/>
  <path d="M 52.18642155232885, 74.35273988185108 Q 52.997959587914615, 57.764744145267585, 61.149620410834366, 51.010332617907 " fill="none" id="curve_19" stroke="#000000" stroke-linecap="round" stroke-linejoin="round" stroke-width="2.424567975845054"/>
  <path d="M 21.851520513306372, 72.26849222701124 Q 28.75834704445005, 67.56051710668653, 38.01725303965435, 59.23059309537183 " fill="none" id="curve_27" stroke="#000000" stroke-linecap="round" stroke-linejoin="round" stroke-width="2.232934219233719"/>
  <path d="M 51.68529290421015, 69.2006727539256 Q 51.689556882289374, 66.38997745019607, 51.707299044305095, 64.82431356781655 " fill="none" id="curve_36" stroke="#000000" stroke-linecap="round" stroke-linejoin="round" stroke-width="2.7570328522053407"/>
  <path d="M 51.534671783447266, 70.64506530761719 Q 52.35902605550728, 71.03377267187774, 53.23424583621335, 72.00334286607489 " fill="none" id="curve_50" stroke="#000000" stroke-linecap="round" stroke-linejoin="round" stroke-width="2.9521612868308353"/>
  <path d="M 62.97364042196314, 43.72202505854764 Q 64.77769769395069, 39.32523362492863, 68.18871708147853, 34.531462895224074 " fill="none" id="curve_51" stroke="#000000" stroke-linecap="round" stroke-linejoin="round" stroke-width="2.169881845183593"/>
  <path d="M 31.460853576660156, 63.32799959182739 Q 36.93003731281928, 62.812454314192046, 39.8165680507002, 60.61961286292262 " fill="none" id="curve_117" stroke="#000000" stroke-linecap="round" stroke-linejoin="round" stroke-width="2.4568833174673292"/>
  <path d="M 58.88300641496938, 50.31949865140564 Q 58.234803751434406, 58.714652000225676, 54.63245695836795, 62.85273782892439 " fill="none" id="curve_118" stroke="#000000" stroke-linecap="round" stroke-linejoin="round" stroke-width="2.232213841622507"/>
  <path d="M 0.492420205546221, 83.33484509251224 Q 0.856303670447635, 82.4777118036475, 1.2499637161857828, 80.51302407058094 " fill="none" id="curve_140" stroke="#000000" stroke-linecap="round" stroke-linejoin="round" stroke-width="1.2403171507806248"/>
  <path d="M 26.494232636291674, 69.09126509940258 Q 28.138658122802404, 67.35865706092571, 29.940884489678677, 64.795540815113 " fill="none" id="curve_141" stroke="#000000" stroke-linecap="round" stroke-linejoin="round" stroke-width="2.4643402647400627"/>
  <path d="M 1.604516526591218, 117.78918267511736 Q 1.4848928589992472, 119.03605084037633, 1.097945239140567, 120.1398344321777 " fill="none" id="curve_152" stroke="#000000" stroke-linecap="round" stroke-linejoin="round" stroke-width="1.885770273051701"/>
</svg>
