<?xml version="1.0" ?>
<svg height="140" width="140" xmlns="http://www.w3.org/2000/svg">
  <path d="M 65.30242156982422, 35.83469009399414 Q 61.865735208117954, 37.40520321413861, 59.69953760735956, 46.09163611321759 " fill="none" id="curve_1" stroke="#000000" stroke-linecap="round" stroke-linejoin="round" stroke-width="8.731231597413235"/>
  <path d="M 59.69953760735956, 46.09163611321759 Q 54.15586717801862, 50.104457510946446, 45.32694680957685, 62.02685832310725 " fill="none" id="curve_1" stroke="#000000" stroke-linecap="round" stroke-linejoin="round" stroke-width="6.585274088236134"/>
  <path d="M 45.32694680957685, 62.02685832310725 Q 40.204375613723485, 71.36805572276417, 24.09051162838599, 87.86647857404263 " fill="none" id="curve_1" stroke="#000000" stroke-linecap="round" stroke-linejoin="round" stroke-width="6.466126307199043"/>
  <path d="M 24.09051162838599, 87.86647857404263 Q 15.724462889964848, 96.41053451688364, 2.1565294204126744, 113.66966238773097 " fill="none" id="curve_1" stroke="#000000" stroke-linecap="round" stroke-linejoin="round" stroke-width="8.946932653929984"/>
  <path d="M 46.24203778268302, 111.95522503979375 Q 46.78236876659829, 84.72957428295673, 55.73188202229055, 68.22360743189684 " fill="none" id="curve_2" stroke="#000000" stroke-linecap="round" stroke-linejoin="round" stroke-width="7.581922328038497"/>
  <path d="M 55.73188202229055, 68.22360743189684 Q 61.189892802803215, 58.00308439901363, 68.04031935597125, 36.078562758779874 " fill="none" id="curve_2" stroke="#000000" stroke-linecap="round" stroke-linejoin="round" stroke-width="6.06419449226219"/>
  <path d="M 68.04031935597125, 36.078562758779874 Q 61.01611227519456, 46.58833012800819, 52.68976150353711, 71.77070011104942 " fill="none" id="curve_2" stroke="#000000" stroke-linecap="round" stroke-linejoin="round" stroke-width="4.056894614441207"/>
  <path d="M 48.03960515807356, 117.75335751594383 Q 47.031044484754396, 105.85140352342809, 44.82444886869251, 87.04016961102272 " fill="none" id="curve_3" stroke="#000000" stroke-linecap="round" stroke-linejoin="round" stroke-width="4.062087637702691"/>
  <path d="M 12.364799945094532, 95.96543122221696 Q 6.968324592058049, 101.79192927102888, 1.7621075138498092, 109.92963222267132 " fill="none" id="curve_4" stroke="#000000" stroke-linecap="round" stroke-linejoin="round" stroke-width="4.015745377069631"/>
  <path d="M 43.25232472734872, 105.22908874740544 Q 44.31516965233484, 101.19243846642648, 46.23723891757551, 95.52732638494167 " fill="none" id="curve_5" stroke="#000000" stroke-linecap="round" stroke-linejoin="round" stroke-width="5.217510005944468"/>
  <path d="M 46.23723891757551, 95.52732638494167 Q 47.72150382212023, 97.19089268640684, 48.106460878158416, 111.53423107034446 " fill="none" id="curve_5" stroke="#000000" stroke-linecap="round" stroke-linejoin="round" stroke-width="2.6439151830528353"/>
  <path d="M 47.7456106115319, 83.41156958163349 Q 50.59989037299877, 77.50894075851484, 55.717714262076576, 70.65448706446637 " fill="none" id="curve_6" stroke="#000000" stroke-linecap="round" stroke-linejoin="round" stroke-width="2.8995192119435695"/>
  <path d="M 46.78829621386434, 64.46463349971037 Q 36.64346505386835, 68.744195839556, 23.537960675379463, 86.38652445976263 " fill="none" id="curve_7" stroke="#000000" stroke-linecap="round" stroke-linejoin="round" stroke-width="4.047810037893736"/>
  <path d="M 49.73518255064342, 107.12696367759288 Q 49.21143828827058, 98.99323408497908, 45.84002646911177, 95.81653513865336 " fill="none" id="curve_8" stroke="#000000" stroke-linecap="round" stroke-linejoin="round" stroke-width="4.507338787266416"/>
  <path d="M 45.84002646911177, 95.81653513865336 Q 49.994595494595316, 88.91572806408419, 54.853559541760596, 70.49654114312987 " fill="none" id="curve_8" stroke="#000000" stroke-linecap="round" stroke-linejoin="round" stroke-width="5.149551176754861"/>
  <path d="M 3.4426725464330588, 117.32141211976996 Q 2.38153284890388, 117.23692684161198, 1.4415734843174253, 117.07931773512983 " fill="none" id="curve_10" stroke="#000000" stroke-linecap="round" stroke-linejoin="round" stroke-width="3.801120649800516"/>
  <path d="M 19.157087289289564, 93.53175508919304 Q 20.701826581312606, 93.57398659802818, 21.42122595668265, 93.77186565637555 " fill="none" id="curve_11" stroke="#000000" stroke-linecap="round" stroke-linejoin="round" stroke-width="8.069517319905986"/>
  <path d="M 65.80164633964819, 34.74050937578336 Q 64.92057049936528, 35.688188978480355, 62.65636368714036, 36.96033249740889 " fill="none" id="curve_14" stroke="#000000" stroke-linecap="round" stroke-linejoin="round" stroke-width="3.662886323711139"/>
  <path d="M 47.515995853857646, 59.75460030725817 Q 42.19803806747019, 63.7703635497651, 36.588201793290054, 72.2335723375339 " fill="none" id="curve_16" stroke="#000000" stroke-linecap="round" stroke-linejoin="round" stroke-width="3.4849103470158234"/>
  <path d="M 47.03571251414634, 83.11516124369263 Q 49.883471368245665, 74.65890721901658, 58.95418895647869, 67.55632756040652 " fill="none" id="curve_19" stroke="#000000" stroke-linecap="round" stroke-linejoin="round" stroke-width="3.2302258434568905"/>
  <path d="M 55.45452447325056, 47.58751304662419 Q 57.02076443877607, 44.27157847448459, 66.5375251333065, 42.98450026586379 " fill="none" id="curve_20" stroke="#000000" stroke-linecap="round" stroke-linejoin="round" stroke-width="6.1817616413105165"/>
  <path d="M 18.707009567668855, 91.50414237519013 Q 18.46830541663051, 91.25225659112569, 18.057160756338902, 90.52453017651519 " fill="none" id="curve_22" stroke="#000000" stroke-linecap="round" stroke-linejoin="round" stroke-width="3.1542627166029256"/>
  <path d="M 57.79524970971079, 71.60343951460607 Q 51.67014659390951, 72.5813324032849, 49.31038532709948, 77.32470824316252 " fill="none" id="curve_50" stroke="#000000" stroke-linecap="round" stroke-linejoin="round" stroke-width="4.687563458226027"/>
  <path d="M 14.928508767794483, 93.42289465506991 Q 15.173074390325574, 93.1417908906704, 15.564490747179214, 92.64459501591514 " fill="none" id="curve_130" stroke="#000000" stroke-linecap="round" stroke-linejoin="round" stroke-width="3.466446155685368"/>
  <path d="M 43.66727156299951, 99.92740455090305 Q 45.32046408692504, 96.85060679270228, 48.39947634941174, 92.9779695915505 " fill="none" id="curve_132" stroke="#000000" stroke-linecap="round" stroke-linejoin="round" stroke-width="3.7563042854548234"/>
</svg>
