<?xml version="1.0" ?>
<svg height="140" width="140" xmlns="http://www.w3.org/2000/svg">
  <path d="M 19.330254554748535, 80.52104377746582 Q 14.35017326314874, 85.61764691563833, 5.650603971951568, 99.07671622658108 " fill="none" id="curve_1" stroke="#000000" stroke-linecap="round" stroke-linejoin="round" stroke-width="5.509455415809575"/>
  <path d="M 5.650603971951568, 99.07671622658108 Q 10.284561534607917, 92.1048383096838, 17.68358733485895, 80.39944158409858 " fill="none" id="curve_1" stroke="#000000" stroke-linecap="round" stroke-linejoin="round" stroke-width="3.158201789639615"/>
  <path d="M 17.68358733485895, 80.39944158409858 Q 25.406320682174275, 72.27226812105314, 34.87723742652442, 53.334672735691385 " fill="none" id="curve_1" stroke="#000000" stroke-linecap="round" stroke-linejoin="round" stroke-width="4.511423502680985"/>
  <path d="M 34.87723742652442, 53.334672735691385 Q 37.07654220913697, 58.35887956135727, 39.01869717527757, 91.44658977644592 " fill="none" id="curve_1" stroke="#000000" stroke-linecap="round" stroke-linejoin="round" stroke-width="4.809783978340051"/>
  <path d="M 39.01869717527757, 91.44658977644592 Q 39.27586456043446, 107.61214387352881, 40.4085936483218, 128.22563139829745 " fill="none" id="curve_1" stroke="#000000" stroke-linecap="round" stroke-linejoin="round" stroke-width="4.974319986753662"/>
  <path d="M 40.4085936483218, 128.22563139829745 Q 40.59844022755274, 134.7833817695893, 41.05732678172215, 138.73954158263487 " fill="none" id="curve_1" stroke="#000000" stroke-linecap="round" stroke-linejoin="round" stroke-width="3.5056919579788617"/>
  <path d="M 38.144698497371195, 111.03476810749882 Q 38.469913157292794, 94.76447597720764, 40.13668305488889, 88.58678748649727 " fill="none" id="curve_2" stroke="#000000" stroke-linecap="round" stroke-linejoin="round" stroke-width="2.841219175429676"/>
  <path d="M 31.313797958448866, 56.853751266327976 Q 28.02730701431813, 64.56019117120049, 17.56507384970658, 80.293199679926 " fill="none" id="curve_3" stroke="#000000" stroke-linecap="round" stroke-linejoin="round" stroke-width="2.4503308689594525"/>
  <path d="M 17.56507384970658, 80.293199679926 Q 12.650407032672245, 86.60731440142754, 4.448918794468977, 97.37344858167329 " fill="none" id="curve_3" stroke="#000000" stroke-linecap="round" stroke-linejoin="round" stroke-width="2.5316650122852247"/>
  <path d="M 32.530569499205704, 54.48590829988579 Q 31.149238310533946, 56.934945270769724, 29.580626764654838, 62.84658737933772 " fill="none" id="curve_5" stroke="#000000" stroke-linecap="round" stroke-linejoin="round" stroke-width="2.568686336839378"/>
  <path d="M 90.92391967773438, 22.837746620178223 Q 89.98045468989457, 23.223445171547688, 89.84479921729871, 33.92880180492102 " fill="none" id="curve_19" stroke="#000000" stroke-linecap="round" stroke-linejoin="round" stroke-width="1.6142407576217832"/>
  <path d="M 89.84479921729871, 33.92880180492102 Q 89.7987939697274, 42.00405067713546, 89.65374333408545, 61.73616702757882 " fill="none" id="curve_19" stroke="#000000" stroke-linecap="round" stroke-linejoin="round" stroke-width="1.388468750025421"/>
  <path d="M 89.65374333408545, 61.73616702757882 Q 89.6678320670311, 77.68237618863238, 89.84432764643508, 91.18274804914617 " fill="none" id="curve_19" stroke="#000000" stroke-linecap="round" stroke-linejoin="round" stroke-width="1.7532444370102993"/>
  <path d="M 89.84432764643508, 91.18274804914617 Q 89.74401789697639, 101.63179107141936, 89.45127010039762, 117.19807265301488 " fill="none" id="curve_19" stroke="#000000" stroke-linecap="round" stroke-linejoin="round" stroke-width="1.4752328484016406"/>
  <path d="M 89.45127010039762, 117.19807265301488 Q 89.47515769497093, 133.78977295973831, 89.58017125915582, 139.163799444602 " fill="none" id="curve_19" stroke="#000000" stroke-linecap="round" stroke-linejoin="round" stroke-width="1.8796733581068168"/>
  <path d="M 91.05467987060547, 16.801804542541504 Q 89.63147057287475, 15.98031983680136, 89.34545723697079, 0.7381016789845489 " fill="none" id="curve_33" stroke="#000000" stroke-linecap="round" stroke-linejoin="round" stroke-width="1.857310443499336"/>
  <path d="M 89.79004640253741, 19.35796496218638 Q 89.67022827965901, 20.547591983788198, 89.54070707773013, 23.074520785736617 " fill="none" id="curve_34" stroke="#000000" stroke-linecap="round" stroke-linejoin="round" stroke-width="1.5505124416310703"/>
  <path d="M 36.871673653624406, 78.7365652089803 Q 38.33228638121692, 77.0015819112837, 39.29610670203158, 72.54562667326591 " fill="none" id="curve_39" stroke="#000000" stroke-linecap="round" stroke-linejoin="round" stroke-width="3.0050326751887324"/>
  <path d="M 40.23008632659912, 85.14812850952148 Q 40.11503658787712, 86.22489241454421, 39.836934531702475, 87.55348214787254 " fill="none" id="curve_53" stroke="#000000" stroke-linecap="round" stroke-linejoin="round" stroke-width="2.9071523221553006"/>
  <path d="M 11.97957826504796, 86.88915506620151 Q 16.70515707636175, 81.20334466782802, 23.10020893242625, 72.16830326163102 " fill="none" id="curve_59" stroke="#000000" stroke-linecap="round" stroke-linejoin="round" stroke-width="2.4810681085925683"/>
  <path d="M 34.77171410461233, 60.63726023960771 Q 29.360235027571484, 61.66957379426181, 25.600754788154198, 65.6836563407293 " fill="none" id="curve_74" stroke="#000000" stroke-linecap="round" stroke-linejoin="round" stroke-width="1.9698435620144281"/>
  <path d="M 37.706018546196, 88.92694125876005 Q 37.63016899911713, 102.95336739414905, 37.07157465814277, 110.11078010375881 " fill="none" id="curve_102" stroke="#000000" stroke-linecap="round" stroke-linejoin="round" stroke-width="1.683034262462162"/>
  <path d="M 40.33062738922925, 117.83068604140387 Q 40.65230553417552, 114.23547360911391, 41.60888167191386, 112.53526517450891 " fill="none" id="curve_120" stroke="#000000" stroke-linecap="round" stroke-linejoin="round" stroke-width="2.9919704403993195"/>
</svg>
