<?xml version="1.0" ?>
<svg height="140" width="140" xmlns="http://www.w3.org/2000/svg">
  <path d="M 37.63806962966919, 83.93566513061523 Q 36.95865827677849, 85.32202596783127, 35.99133967037078, 87.4780857545293 " fill="none" id="curve_1" stroke="#000000" stroke-linecap="round" stroke-linejoin="round" stroke-width="4.168864987678842"/>
  <path d="M 35.99133967037078, 87.4780857545293 Q 36.32320816515395, 78.07575097968825, 37.53568704727747, 66.99606172860443 " fill="none" id="curve_1" stroke="#000000" stroke-linecap="round" stroke-linejoin="round" stroke-width="5.3484902559818135"/>
  <path d="M 37.53568704727747, 66.99606172860443 Q 39.6841785534333, 59.45914386677201, 43.37331400211407, 44.86537960331604 " fill="none" id="curve_1" stroke="#000000" stroke-linecap="round" stroke-linejoin="round" stroke-width="5.559728251302018"/>
  <path d="M 43.37331400211407, 44.86537960331604 Q 45.68315432366104, 43.297359915050166, 46.47823676181366, 37.11309805875982 " fill="none" id="curve_1" stroke="#000000" stroke-linecap="round" stroke-linejoin="round" stroke-width="4.924182218601787"/>
  <path d="M 46.47823676181366, 37.11309805875982 Q 42.864174275030194, 45.54172086065158, 37.87585411661406, 55.051793454031014 " fill="none" id="curve_1" stroke="#000000" stroke-linecap="round" stroke-linejoin="round" stroke-width="4.701708317631056"/>
  <path d="M 37.87585411661406, 55.051793454031014 Q 29.904646512794724, 61.31307090461314, 20.13586753022851, 71.48593909758594 " fill="none" id="curve_1" stroke="#000000" stroke-linecap="round" stroke-linejoin="round" stroke-width="4.435095194908569"/>
  <path d="M 20.13586753022851, 71.48593909758594 Q 21.469423615517474, 67.45501277775134, 25.96316855441954, 64.52025445958043 " fill="none" id="curve_1" stroke="#000000" stroke-linecap="round" stroke-linejoin="round" stroke-width="2.8792344724277195"/>
  <path d="M 30.762020446250972, 58.89159700608434 Q 28.24974715981366, 65.50350500328801, 20.068497380594422, 71.06523425667059 " fill="none" id="curve_16" stroke="#000000" stroke-linecap="round" stroke-linejoin="round" stroke-width="2.278354549443801"/>
  <path d="M 20.068497380594422, 71.06523425667059 Q 19.303470874494664, 71.18463385989281, 18.66713821789316, 71.44003606792721 " fill="none" id="curve_16" stroke="#000000" stroke-linecap="round" stroke-linejoin="round" stroke-width="3.2482991209573076"/>
  <path d="M 37.33406245554231, 75.59091834885108 Q 36.63947564722513, 74.6862222344749, 35.82239194332899, 73.36820149700051 " fill="none" id="curve_45" stroke="#000000" stroke-linecap="round" stroke-linejoin="round" stroke-width="3.6339968012818895"/>
  <path d="M 26.953326163305974, 67.03001726984462 Q 25.517048662688655, 67.28344537826727, 21.12896074975917, 67.6413942887607 " fill="none" id="curve_112" stroke="#000000" stroke-linecap="round" stroke-linejoin="round" stroke-width="2.860602109584344"/>
</svg>
