<?xml version="1.0" ?>
<svg height="140" width="140" xmlns="http://www.w3.org/2000/svg">
  <path d="M 55.419620513916016, 109.85310554504395 Q 55.553178161778554, 111.46916177547631, 55.92874613671512, 112.84565053500984 " fill="none" id="curve_1" stroke="#000000" stroke-linecap="round" stroke-linejoin="round" stroke-width="4.070526726247617"/>
  <path d="M 55.92874613671512, 112.84565053500984 Q 55.25948369411897, 107.76429809439769, 54.396053616981796, 97.35793039504287 " fill="none" id="curve_1" stroke="#000000" stroke-linecap="round" stroke-linejoin="round" stroke-width="6.034546411889576"/>
  <path d="M 54.396053616981796, 97.35793039504287 Q 54.33919689560931, 91.66440818292853, 54.27004215630011, 76.78515310404572 " fill="none" id="curve_1" stroke="#000000" stroke-linecap="round" stroke-linejoin="round" stroke-width="7.30432805422528"/>
  <path d="M 54.27004215630011, 76.78515310404572 Q 54.45222372086255, 67.90271225886691, 54.90935501144422, 48.031018773207194 " fill="none" id="curve_1" stroke="#000000" stroke-linecap="round" stroke-linejoin="round" stroke-width="6.364479151226083"/>
  <path d="M 54.90935501144422, 48.031018773207194 Q 56.208709424800745, 45.15581021396509, 56.7702014266788, 33.674998162219566 " fill="none" id="curve_1" stroke="#000000" stroke-linecap="round" stroke-linejoin="round" stroke-width="6.010134822595851"/>
  <path d="M 56.7702014266788, 33.674998162219566 Q 50.623479754297726, 43.69472440530565, 27.589101269052964, 61.524986000420206 " fill="none" id="curve_1" stroke="#000000" stroke-linecap="round" stroke-linejoin="round" stroke-width="5.558802860631405"/>
  <path d="M 27.589101269052964, 61.524986000420206 Q 21.111533493277108, 66.31763291965595, 15.848163354791339, 72.92206053051095 " fill="none" id="curve_1" stroke="#000000" stroke-linecap="round" stroke-linejoin="round" stroke-width="5.560154625902825"/>
  <path d="M 9.264876187885715, 75.77973205456743 Q 9.253051028968153, 76.00161077280218, 9.23353112028151, 76.30288049304826 " fill="none" id="curve_2" stroke="#000000" stroke-linecap="round" stroke-linejoin="round" stroke-width="3.093320001927443"/>
  <path d="M 35.993512335281665, 52.420814779642654 Q 27.225732164611713, 60.63644928034251, 13.836111297544655, 73.77197601877772 " fill="none" id="curve_3" stroke="#000000" stroke-linecap="round" stroke-linejoin="round" stroke-width="3.1297202012873107"/>
  <path d="M 52.217662424791214, 37.1498171340923 Q 48.06421757912766, 43.43951551953781, 40.32335175281796, 51.02550596530565 " fill="none" id="curve_4" stroke="#000000" stroke-linecap="round" stroke-linejoin="round" stroke-width="3.624277759784454"/>
  <path d="M 40.32335175281796, 51.02550596530565 Q 44.689789757902716, 42.72666423975575, 56.60220195557751, 36.6015695286505 " fill="none" id="curve_4" stroke="#000000" stroke-linecap="round" stroke-linejoin="round" stroke-width="3.198001848634298"/>
  <path d="M 56.60220195557751, 36.6015695286505 Q 56.17736136445924, 33.82083690762803, 53.753819356895825, 33.03432255099258 " fill="none" id="curve_4" stroke="#000000" stroke-linecap="round" stroke-linejoin="round" stroke-width="4.354293789614388"/>
  <path d="M 56.96663039173907, 39.01598108975115 Q 57.54250983934852, 39.4044365715728, 58.44566761492315, 40.29448456794127 " fill="none" id="curve_21" stroke="#000000" stroke-linecap="round" stroke-linejoin="round" stroke-width="3.298415230503796"/>
  <path d="M 37.74949445592881, 55.87254271299054 Q 31.61038179734753, 56.90341899824996, 25.370070104925347, 62.09653600184784 " fill="none" id="curve_36" stroke="#000000" stroke-linecap="round" stroke-linejoin="round" stroke-width="1.7677921443844993"/>
  <path d="M 9.949391519092899, 75.10867436296488 Q 9.496046776388742, 75.07982084226259, 8.920608937292714, 75.03238788640971 " fill="none" id="curve_37" stroke="#000000" stroke-linecap="round" stroke-linejoin="round" stroke-width="2.704540145333378"/>
  <path d="M 53.380429014519756, 57.707867855052406 Q 53.44413226361139, 57.091791567384085, 53.54411097629485, 55.58086804958283 " fill="none" id="curve_45" stroke="#000000" stroke-linecap="round" stroke-linejoin="round" stroke-width="3.126602401036574"/>
  <path d="M 58.26243697916225, 40.672468932799916 Q 58.574826551056056, 39.77032992103043, 59.18251875625906, 38.691815113321574 " fill="none" id="curve_74" stroke="#000000" stroke-linecap="round" stroke-linejoin="round" stroke-width="3.5127537055811344"/>
  <path d="M 17.35677438638247, 70.44733866765093 Q 21.436983403055304, 67.60016873812228, 26.98367323427854, 63.95803909554156 " fill="none" id="curve_103" stroke="#000000" stroke-linecap="round" stroke-linejoin="round" stroke-width="3.0152165877177235"/>
  <path d="M 52.06156101563275, 55.13827296892789 Q 52.88109704244138, 55.25907186213824, 53.867517939213975, 55.63374684475131 " fill="none" id="curve_124" stroke="#000000" stroke-linecap="round" stroke-linejoin="round" stroke-width="2.5090080016580307"/>
</svg>
