<?xml version="1.0" ?>
<svg height="140" width="140" xmlns="http://www.w3.org/2000/svg">
  <path d="M 33.38285255432129, 74.85474395751953 Q 28.99321952644348, 75.97852153066353, 26.603703484807454, 79.13872807448371 " fill="none" id="curve_1" stroke="#000000" stroke-linecap="round" stroke-linejoin="round" stroke-width="4.456130955788162"/>
  <path d="M 26.603703484807454, 79.13872807448371 Q 32.32738383786564, 73.9120072783742, 44.37070557714661, 63.300622812006424 " fill="none" id="curve_1" stroke="#000000" stroke-linecap="round" stroke-linejoin="round" stroke-width="4.113265053334532"/>
  <path d="M 44.37070557714661, 63.300622812006424 Q 49.99091468080355, 60.19065477555754, 53.040350970078826, 49.62429695022157 " fill="none" id="curve_1" stroke="#000000" stroke-linecap="round" stroke-linejoin="round" stroke-width="4.571193035406233"/>
  <path d="M 53.040350970078826, 49.62429695022157 Q 53.086232279199116, 70.96941676261363, 54.04316143342462, 76.66390975789518 " fill="none" id="curve_1" stroke="#000000" stroke-linecap="round" stroke-linejoin="round" stroke-width="5.426285283484143"/>
  <path d="M 54.04316143342462, 76.66390975789518 Q 55.929976348824276, 85.42633251202989, 60.0566302861595, 107.25338234869774 " fill="none" id="curve_1" stroke="#000000" stroke-linecap="round" stroke-linejoin="round" stroke-width="5.4733092993652726"/>
  <path d="M 60.0566302861595, 107.25338234869774 Q 60.16345565484906, 111.62515349578831, 60.577455368653034, 113.34529109976314 " fill="none" id="curve_1" stroke="#000000" stroke-linecap="round" stroke-linejoin="round" stroke-width="4.744607503880425"/>
  <path d="M 23.077345853473197, 80.50860204469396 Q 23.09615129346452, 81.06868428105133, 23.137859725350594, 81.64974284624513 " fill="none" id="curve_2" stroke="#000000" stroke-linecap="round" stroke-linejoin="round" stroke-width="2.333843448583023"/>
  <path d="M 49.70668698823583, 58.8750036341069 Q 52.30736283366321, 64.60192013327753, 54.43256619770977, 74.21478214375293 " fill="none" id="curve_3" stroke="#000000" stroke-linecap="round" stroke-linejoin="round" stroke-width="3.372974945763321"/>
  <path d="M 29.968075213331517, 75.7460419331146 Q 34.45625088143075, 73.40290179406529, 39.077427240818274, 69.58804407414658 " fill="none" id="curve_5" stroke="#000000" stroke-linecap="round" stroke-linejoin="round" stroke-width="2.581307668814486"/>
  <path d="M 58.066622979365704, 111.43202379089954 Q 59.42634516208284, 107.07494844079984, 62.00260928255168, 102.87580387295095 " fill="none" id="curve_21" stroke="#000000" stroke-linecap="round" stroke-linejoin="round" stroke-width="2.425250247514518"/>
  <path d="M 56.22064938787274, 76.42812385619303 Q 53.77964886818456, 73.2424452460601, 50.939442811378385, 67.90877678964424 " fill="none" id="curve_22" stroke="#000000" stroke-linecap="round" stroke-linejoin="round" stroke-width="3.3693033989794374"/>
  <path d="M 49.13669195099277, 54.8773778088227 Q 50.21566882668624, 51.01249555173992, 53.526202143772686, 48.54982376162888 " fill="none" id="curve_23" stroke="#000000" stroke-linecap="round" stroke-linejoin="round" stroke-width="2.120385587071646"/>
  <path d="M 34.51947594187058, 72.1409726406139 Q 33.34071101670232, 73.8724363823485, 28.47136843022329, 74.62586789650919 " fill="none" id="curve_24" stroke="#000000" stroke-linecap="round" stroke-linejoin="round" stroke-width="3.4378669376738893"/>
  <path d="M 28.47136843022329, 74.62586789650919 Q 33.78329078678695, 74.34084479409515, 35.83411704079857, 72.93531812540645 " fill="none" id="curve_24" stroke="#000000" stroke-linecap="round" stroke-linejoin="round" stroke-width="3.1653979026748362"/>
</svg>
