<?xml version="1.0" ?>
<svg height="140" width="140" xmlns="http://www.w3.org/2000/svg">
  <path d="M 82.93459339403364, 72.18000878188303 Q 79.79166779350375, 83.63109962556071, 67.8506928167627, 98.2501283997689 " fill="none" id="curve_2" stroke="#000000" stroke-linecap="round" stroke-linejoin="round" stroke-width="5.721155260285322"/>
  <path d="M 67.8506928167627, 98.2501283997689 Q 59.82116954793311, 104.48083467742852, 42.65005497534089, 116.20920067436313 " fill="none" id="curve_2" stroke="#000000" stroke-linecap="round" stroke-linejoin="round" stroke-width="3.9133839622384947"/>
  <path d="M 67.14276844774095, 118.47626541492376 Q 67.42407574104145, 96.98390398062831, 74.49879307846024, 93.36388677340383 " fill="none" id="curve_3" stroke="#000000" stroke-linecap="round" stroke-linejoin="round" stroke-width="4.380821512640346"/>
  <path d="M 52.01258353550719, 111.08641154923575 Q 46.03366423260504, 113.42389704844051, 40.94752906532203, 117.16819843243658 " fill="none" id="curve_4" stroke="#000000" stroke-linecap="round" stroke-linejoin="round" stroke-width="3.959985692363243"/>
  <path d="M 64.32955152807239, 101.30989474072608 Q 65.18841237047633, 95.64582501456673, 72.5396637037016, 94.09716965380461 " fill="none" id="curve_7" stroke="#000000" stroke-linecap="round" stroke-linejoin="round" stroke-width="3.3372043283846673"/>
  <path d="M 65.84279416120029, 116.30330851288772 Q 66.13128648312167, 107.53538897473962, 68.2852553372135, 105.05252006876714 " fill="none" id="curve_8" stroke="#000000" stroke-linecap="round" stroke-linejoin="round" stroke-width="3.046009037249393"/>
  <path d="M 78.371035266419, 78.86865664980908 Q 75.95430714132425, 85.46668075330753, 72.12093683986008, 95.33059108945827 " fill="none" id="curve_9" stroke="#000000" stroke-linecap="round" stroke-linejoin="round" stroke-width="3.1298006162242316"/>
  <path d="M 70.26777513700463, 100.3616946108569 Q 70.71677101297011, 99.09880381999254, 71.1612952450519, 96.68957321843496 " fill="none" id="curve_10" stroke="#000000" stroke-linecap="round" stroke-linejoin="round" stroke-width="5.125122907992115"/>
  <path d="M 45.944655964259375, 114.51160359048767 Q 44.6445164630923, 114.46127248340507, 43.55098871874219, 114.3477533738144 " fill="none" id="curve_11" stroke="#000000" stroke-linecap="round" stroke-linejoin="round" stroke-width="4.252383323539301"/>
  <path d="M 80.55606797202739, 76.05104154415437 Q 80.30969117686055, 75.78714392067937, 80.08500952102659, 75.21142551729277 " fill="none" id="curve_26" stroke="#000000" stroke-linecap="round" stroke-linejoin="round" stroke-width="4.1813505218656575"/>
  <path d="M 75.75550441334613, 89.46882918187607 Q 69.3772087931494, 91.4213775816373, 63.82700367603396, 98.94454627250539 " fill="none" id="curve_106" stroke="#000000" stroke-linecap="round" stroke-linejoin="round" stroke-width="2.5902459703257286"/>
  <path d="M 55.245987693659146, 107.89284436338352 Q 52.333519505277415, 111.42542260898986, 44.279835312749626, 113.48060018409537 " fill="none" id="curve_107" stroke="#000000" stroke-linecap="round" stroke-linejoin="round" stroke-width="3.542828523836072"/>
  <path d="M 66.79805947446495, 108.48458937170653 Q 66.23678768890419, 108.73093595611003, 65.67985735366182, 109.37956652362007 " fill="none" id="curve_135" stroke="#000000" stroke-linecap="round" stroke-linejoin="round" stroke-width="3.0546659013550683"/>
</svg>
