<?xml version="1.0" ?>
<svg height="140" width="140" xmlns="http://www.w3.org/2000/svg">
  <path d="M 27.44080638885498, 68.69968843460083 Q 29.162564351879368, 66.55979234851499, 34.218254015671846, 62.904793353927744 " fill="none" id="curve_1" stroke="#000000" stroke-linecap="round" stroke-linejoin="round" stroke-width="5.741744705640935"/>
  <path d="M 34.218254015671846, 62.904793353927744 Q 41.20526067548357, 57.692543707416675, 54.20569093606652, 40.40065602554631 " fill="none" id="curve_1" stroke="#000000" stroke-linecap="round" stroke-linejoin="round" stroke-width="5.390867115821165"/>
  <path d="M 54.20569093606652, 40.40065602554631 Q 55.559254671585684, 40.4455939217354, 55.88385903734647, 41.02698546677568 " fill="none" id="curve_1" stroke="#000000" stroke-linecap="round" stroke-linejoin="round" stroke-width="5.634173526798376"/>
  <path d="M 55.88385903734647, 41.02698546677568 Q 56.21042903250819, 58.004184527996145, 58.65469044472801, 79.37559231627185 " fill="none" id="curve_1" stroke="#000000" stroke-linecap="round" stroke-linejoin="round" stroke-width="5.434132881190633"/>
  <path d="M 58.65469044472801, 79.37559231627185 Q 60.07701747512301, 88.45624991165096, 61.74062957627177, 97.02763419037899 " fill="none" id="curve_1" stroke="#000000" stroke-linecap="round" stroke-linejoin="round" stroke-width="5.486172559007632"/>
  <path d="M 54.57265666952301, 38.699929023789124 Q 55.611866230469744, 37.76367535251455, 57.165930368359305, 36.81958040229323 " fill="none" id="curve_3" stroke="#000000" stroke-linecap="round" stroke-linejoin="round" stroke-width="6.112815026994179"/>
  <path d="M 28.32882445497625, 68.49627498034282 Q 27.16443055640564, 69.53699088499997, 26.067423568695983, 71.32289081531682 " fill="none" id="curve_4" stroke="#000000" stroke-linecap="round" stroke-linejoin="round" stroke-width="3.7055052845066387"/>
  <path d="M 42.02791020530842, 54.272723846891395 Q 35.74526931524052, 60.59637890647949, 28.631729368484958, 68.291034133127 " fill="none" id="curve_5" stroke="#000000" stroke-linecap="round" stroke-linejoin="round" stroke-width="4.037370283096875"/>
  <path d="M 28.631729368484958, 68.291034133127 Q 30.93890326206281, 65.67695153799997, 34.19765426739562, 62.88616948199525 " fill="none" id="curve_5" stroke="#000000" stroke-linecap="round" stroke-linejoin="round" stroke-width="3.7386733676651516"/>
  <path d="M 54.21498307579394, 54.686895937072 Q 55.84913126722202, 54.60420143337137, 56.348361446471145, 53.46617309798379 " fill="none" id="curve_8" stroke="#000000" stroke-linecap="round" stroke-linejoin="round" stroke-width="3.4288740194048812"/>
  <path d="M 56.188570945817176, 36.20194610531345 Q 55.413671810359865, 37.230796011725694, 53.58537721235616, 38.70847966776054 " fill="none" id="curve_11" stroke="#000000" stroke-linecap="round" stroke-linejoin="round" stroke-width="3.088703301615252"/>
  <path d="M 56.17411962060833, 55.466791813548305 Q 54.96584411127132, 52.869124299927634, 53.57147082752383, 47.619923368151106 " fill="none" id="curve_17" stroke="#000000" stroke-linecap="round" stroke-linejoin="round" stroke-width="3.8654686926450177"/>
  <path d="M 28.32643567832179, 67.43175532638907 Q 29.437272080752887, 67.17362202433978, 31.310483724169114, 66.58060839240409 " fill="none" id="curve_18" stroke="#000000" stroke-linecap="round" stroke-linejoin="round" stroke-width="3.1579964456349146"/>
  <path d="M 60.33025080850382, 96.63870547518923 Q 60.39406428379804, 96.83760983847328, 60.53581634691986, 97.10613801947338 " fill="none" id="curve_36" stroke="#000000" stroke-linecap="round" stroke-linejoin="round" stroke-width="3.1897652497294775"/>
  <path d="M 59.64427202314943, 98.22953301043064 Q 59.79834499948208, 94.37269421856482, 60.34317038512442, 90.0256216793494 " fill="none" id="curve_42" stroke="#000000" stroke-linecap="round" stroke-linejoin="round" stroke-width="2.5943478911368976"/>
  <path d="M 53.13583218682773, 50.16767974867116 Q 53.568963202974274, 54.08831981033873, 54.29616330839683, 58.52439049236243 " fill="none" id="curve_57" stroke="#000000" stroke-linecap="round" stroke-linejoin="round" stroke-width="1.8010250987650709"/>
  <path d="M 49.005670033387375, 46.89962659737957 Q 41.95761995743057, 49.7236297871639, 35.626427137412406, 61.716937667342904 " fill="none" id="curve_58" stroke="#000000" stroke-linecap="round" stroke-linejoin="round" stroke-width="2.451037072692914"/>
  <path d="M 35.626427137412406, 61.716937667342904 Q 33.468323601927736, 65.14932203305666, 28.58422892306542, 66.93767109209803 " fill="none" id="curve_58" stroke="#000000" stroke-linecap="round" stroke-linejoin="round" stroke-width="4.4636671998168485"/>
  <path d="M 56.046876210795745, 64.35589225310832 Q 55.4942640649866, 64.01309564674973, 54.487531694278424, 63.62554941195871 " fill="none" id="curve_73" stroke="#000000" stroke-linecap="round" stroke-linejoin="round" stroke-width="3.5427673122830248"/>
  <path d="M 55.064701080322266, 71.20064926147461 Q 55.83778483471076, 71.61846682279867, 57.18353971486084, 72.55177815840631 " fill="none" id="curve_100" stroke="#000000" stroke-linecap="round" stroke-linejoin="round" stroke-width="2.84429901173392"/>
  <path d="M 56.68034856787369, 35.62001617535185 Q 56.08583064801553, 35.94007126442863, 54.80694008287333, 36.300984235812294 " fill="none" id="curve_128" stroke="#000000" stroke-linecap="round" stroke-linejoin="round" stroke-width="3.417364686667112"/>
  <path d="M 32.549679072556586, 63.94125461060351 Q 30.79094495622145, 65.16421456478082, 28.661953355382252, 67.1562546349822 " fill="none" id="curve_158" stroke="#000000" stroke-linecap="round" stroke-linejoin="round" stroke-width="3.8730265840085"/>
</svg>
