<?xml version="1.0" ?>
<svg height="140" width="140" xmlns="http://www.w3.org/2000/svg">
  <path d="M 50.55610418319702, 96.21273994445801 Q 50.05100243144989, 95.11706067251617, 49.851261478907695, 87.85848023720632 " fill="none" id="curve_1" stroke="#000000" stroke-linecap="round" stroke-linejoin="round" stroke-width="9.403471416262537"/>
  <path d="M 49.851261478907695, 87.85848023720632 Q 49.28395300562634, 82.02263549617291, 48.638023191030705, 66.18525515734356 " fill="none" id="curve_1" stroke="#000000" stroke-linecap="round" stroke-linejoin="round" stroke-width="7.597118754389319"/>
  <path d="M 48.638023191030705, 66.18525515734356 Q 47.9304058218927, 49.83524566900801, 43.1397939413815, 32.05561805889468 " fill="none" id="curve_1" stroke="#000000" stroke-linecap="round" stroke-linejoin="round" stroke-width="6.127801302475661"/>
  <path d="M 43.1397939413815, 32.05561805889468 Q 42.27549762338913, 29.11302209708604, 40.574274810953156, 27.23736731403111 " fill="none" id="curve_1" stroke="#000000" stroke-linecap="round" stroke-linejoin="round" stroke-width="6.513891811660072"/>
  <path d="M 52.34220804399813, 97.36447725806458 Q 52.06412058467604, 97.17353588392658, 51.89714281224554, 96.62777593245897 " fill="none" id="curve_3" stroke="#000000" stroke-linecap="round" stroke-linejoin="round" stroke-width="7.153634589336955"/>
  <path d="M 45.7130608515801, 60.33389390923877 Q 45.25577816705495, 56.056329450112536, 44.7192094726586, 42.74978841956519 " fill="none" id="curve_6" stroke="#000000" stroke-linecap="round" stroke-linejoin="round" stroke-width="2.9017355637476165"/>
  <path d="M 44.7192094726586, 42.74978841956519 Q 45.13080364822988, 40.17659693275053, 45.68541164151221, 36.75674427505982 " fill="none" id="curve_6" stroke="#000000" stroke-linecap="round" stroke-linejoin="round" stroke-width="4.297674088445021"/>
  <path d="M 53.23851697890206, 95.5907018136516 Q 52.56756978012177, 96.58975581576968, 50.67194659616737, 97.2769057968983 " fill="none" id="curve_7" stroke="#000000" stroke-linecap="round" stroke-linejoin="round" stroke-width="5.144240159115498"/>
  <path d="M 47.34417723629006, 48.697018580599966 Q 46.28742989941258, 43.18977029312071, 44.107868955938, 37.35650172137781 " fill="none" id="curve_8" stroke="#000000" stroke-linecap="round" stroke-linejoin="round" stroke-width="4.672135979745815"/>
  <path d="M 46.81891205704132, 49.23962976831625 Q 45.96216579413219, 42.99248449483409, 43.66566557253814, 37.89791859713878 " fill="none" id="curve_12" stroke="#000000" stroke-linecap="round" stroke-linejoin="round" stroke-width="4.262240632659436"/>
  <path d="M 50.96235267221495, 93.83633662966982 Q 51.75579771672519, 95.39548616666895, 54.01886991104845, 96.35768388173963 " fill="none" id="curve_28" stroke="#000000" stroke-linecap="round" stroke-linejoin="round" stroke-width="3.8961701855230944"/>
  <path d="M 45.448138148036364, 39.66314208771814 Q 45.78758742486736, 38.18123822350591, 46.44534568278116, 36.55361804863927 " fill="none" id="curve_30" stroke="#000000" stroke-linecap="round" stroke-linejoin="round" stroke-width="3.3729130852265157"/>
  <path d="M 48.60107979009163, 50.275875713581115 Q 47.42876276402897, 47.76702657159089, 44.80674264939636, 44.89930758422662 " fill="none" id="curve_32" stroke="#000000" stroke-linecap="round" stroke-linejoin="round" stroke-width="4.555802832425464"/>
  <path d="M 48.75149337008888, 49.094313308915055 Q 47.20074402409321, 43.87267127999963, 42.13998178928867, 40.21184566699345 " fill="none" id="curve_75" stroke="#000000" stroke-linecap="round" stroke-linejoin="round" stroke-width="3.343794089327563"/>
</svg>
