<?xml version="1.0" ?>
<svg height="140" width="140" xmlns="http://www.w3.org/2000/svg">
  <path d="M 56.062557220458984, 93.49982261657715 Q 55.88078755954492, 93.23944472365827, 55.83206707313234, 90.2800051191848 " fill="none" id="curve_1" stroke="#000000" stroke-linecap="round" stroke-linejoin="round" stroke-width="7.7669585702239266"/>
  <path d="M 55.83206707313234, 90.2800051191848 Q 54.25958942803012, 88.44015600814603, 53.32680789646023, 78.74408857032917 " fill="none" id="curve_1" stroke="#000000" stroke-linecap="round" stroke-linejoin="round" stroke-width="7.78817882844342"/>
  <path d="M 53.32680789646023, 78.74408857032917 Q 52.23189521458796, 74.36851613685599, 51.40756556342497, 54.60635180032394 " fill="none" id="curve_1" stroke="#000000" stroke-linecap="round" stroke-linejoin="round" stroke-width="7.783938103993463"/>
  <path d="M 51.40756556342497, 54.60635180032394 Q 50.92517198036967, 38.368739469061865, 48.38786121997811, 21.730317850725527 " fill="none" id="curve_1" stroke="#000000" stroke-linecap="round" stroke-linejoin="round" stroke-width="6.563494054288705"/>
  <path d="M 48.38786121997811, 21.730317850725527 Q 40.92804552990798, 31.080152361135802, 17.90208556085686, 56.131374887475275 " fill="none" id="curve_1" stroke="#000000" stroke-linecap="round" stroke-linejoin="round" stroke-width="5.5148602857864395"/>
  <path d="M 17.90208556085686, 56.131374887475275 Q 14.78052017351242, 58.72835097951239, 10.34994650748456, 61.30079689770669 " fill="none" id="curve_1" stroke="#000000" stroke-linecap="round" stroke-linejoin="round" stroke-width="3.851232805670911"/>
  <path d="M 55.86807227309661, 96.6112787482902 Q 57.316006489657696, 96.43575533454282, 57.951053590127245, 95.59092111289696 " fill="none" id="curve_2" stroke="#000000" stroke-linecap="round" stroke-linejoin="round" stroke-width="5.546647038257398"/>
  <path d="M 45.30561585451244, 21.85291160213315 Q 46.866761403240496, 19.479408792774862, 50.25659383285054, 17.837876047349965 " fill="none" id="curve_4" stroke="#000000" stroke-linecap="round" stroke-linejoin="round" stroke-width="4.590048532580211"/>
  <path d="M 50.25659383285054, 17.837876047349965 Q 43.92750505445028, 23.491992771303963, 33.353064440069225, 35.98714465355836 " fill="none" id="curve_4" stroke="#000000" stroke-linecap="round" stroke-linejoin="round" stroke-width="3.8438785262862476"/>
  <path d="M 33.353064440069225, 35.98714465355836 Q 31.512071725755337, 46.52030999963016, 16.381788000106273, 52.572533941017355 " fill="none" id="curve_4" stroke="#000000" stroke-linecap="round" stroke-linejoin="round" stroke-width="3.5503543244906823"/>
  <path d="M 16.381788000106273, 52.572533941017355 Q 24.894838851203644, 48.92073425110124, 32.23814121929679, 41.013403552265785 " fill="none" id="curve_4" stroke="#000000" stroke-linecap="round" stroke-linejoin="round" stroke-width="5.0556746849643295"/>
  <path d="M 32.23814121929679, 41.013403552265785 Q 27.479429295383927, 41.785312785954886, 25.742148649747094, 48.16573308163554 " fill="none" id="curve_4" stroke="#000000" stroke-linecap="round" stroke-linejoin="round" stroke-width="3.704221754850552"/>
  <path d="M 49.37549503513114, 18.379671494762086 Q 50.24768124237613, 19.922950353622536, 50.99154900313532, 22.94268446751351 " fill="none" id="curve_6" stroke="#000000" stroke-linecap="round" stroke-linejoin="round" stroke-width="4.031505411310083"/>
  <path d="M 30.856127738952637, 41.34804344177246 Q 30.379602121494845, 48.229367304242935, 23.064702921637036, 51.24504189018853 " fill="none" id="curve_20" stroke="#000000" stroke-linecap="round" stroke-linejoin="round" stroke-width="2.6422819711513745"/>
  <path d="M 48.071140466913434, 31.78581847658624 Q 48.09129217047007, 45.38251031846255, 48.440493314144824, 47.66811543410634 " fill="none" id="curve_21" stroke="#000000" stroke-linecap="round" stroke-linejoin="round" stroke-width="2.264872002463229"/>
  <path d="M 47.02631078996184, 41.86080900005077 Q 48.12894584127645, 35.21516870799323, 51.72977099928725, 32.01932159012047 " fill="none" id="curve_23" stroke="#000000" stroke-linecap="round" stroke-linejoin="round" stroke-width="4.043390753498912"/>
  <path d="M 48.18574113370719, 17.5788891865146 Q 47.47214664988502, 17.84140075152923, 46.6042178624023, 18.21140126509345 " fill="none" id="curve_24" stroke="#000000" stroke-linecap="round" stroke-linejoin="round" stroke-width="3.8113005875799844"/>
  <path d="M 49.524462736494115, 51.76726461000908 Q 49.253808850006415, 50.890292030932294, 48.70120957189779, 50.16446345998213 " fill="none" id="curve_39" stroke="#000000" stroke-linecap="round" stroke-linejoin="round" stroke-width="4.647945581969527"/>
  <path d="M 28.63265705462294, 44.82647157188855 Q 31.9698081154045, 42.184869666328176, 35.952018397655706, 38.68611299406559 " fill="none" id="curve_42" stroke="#000000" stroke-linecap="round" stroke-linejoin="round" stroke-width="2.8980353604243736"/>
  <path d="M 57.82948679496724, 83.7114771730053 Q 57.333869882985965, 85.92337276838299, 55.28066549259587, 86.75275650706263 " fill="none" id="curve_58" stroke="#000000" stroke-linecap="round" stroke-linejoin="round" stroke-width="3.3624237812037125"/>
  <path d="M 49.12229635519947, 71.77435274048082 Q 49.57419122906883, 68.76580355081133, 50.9410125116642, 66.93794665148533 " fill="none" id="curve_112" stroke="#000000" stroke-linecap="round" stroke-linejoin="round" stroke-width="2.8793929340907964"/>
</svg>
