<?xml version="1.0" ?>
<svg height="140" width="140" xmlns="http://www.w3.org/2000/svg">
  <path d="M 58.70013618469238, 102.19509696960449 Q 58.75036504941017, 101.9571437540537, 58.766691826328426, 100.12561494943475 " fill="none" id="curve_1" stroke="#000000" stroke-linecap="round" stroke-linejoin="round" stroke-width="6.732451835419162"/>
  <path d="M 58.766691826328426, 100.12561494943475 Q 57.962512418525826, 97.21373622538096, 57.41570395833535, 82.25245305632704 " fill="none" id="curve_1" stroke="#000000" stroke-linecap="round" stroke-linejoin="round" stroke-width="5.670253573787798"/>
  <path d="M 57.41570395833535, 82.25245305632704 Q 57.03127230606214, 72.43046642046386, 55.50165838142693, 56.45846061754068 " fill="none" id="curve_1" stroke="#000000" stroke-linecap="round" stroke-linejoin="round" stroke-width="5.359007182085675"/>
  <path d="M 55.50165838142693, 56.45846061754068 Q 56.03240131564248, 39.66993588408556, 61.27692577807766, 29.535401891964906 " fill="none" id="curve_1" stroke="#000000" stroke-linecap="round" stroke-linejoin="round" stroke-width="5.338983376242664"/>
  <path d="M 61.27692577807766, 29.535401891964906 Q 57.75375574314563, 39.95051238049712, 51.708554832822244, 49.844627781864574 " fill="none" id="curve_1" stroke="#000000" stroke-linecap="round" stroke-linejoin="round" stroke-width="4.870867271174158"/>
  <path d="M 51.708554832822244, 49.844627781864574 Q 45.4821627915546, 64.76739657708106, 31.39059997707438, 81.77427656504763 " fill="none" id="curve_1" stroke="#000000" stroke-linecap="round" stroke-linejoin="round" stroke-width="4.241196371146511"/>
  <path d="M 1.4595299616681068, 89.3986909239735 Q 1.5783624462052996, 98.1334093937744, 1.8457107976341138, 130.3489726563344 " fill="none" id="curve_2" stroke="#000000" stroke-linecap="round" stroke-linejoin="round" stroke-width="1.8741474125860564"/>
  <path d="M 1.8457107976341138, 130.3489726563344 Q 2.18510286903577, 136.3230656583202, 3.558705680988367, 138.54257955380487 " fill="none" id="curve_2" stroke="#000000" stroke-linecap="round" stroke-linejoin="round" stroke-width="4.1440367023208315"/>
  <path d="M 3.558705680988367, 138.54257955380487 Q 3.3311422082051805, 138.35702650997465, 3.072034885106683, 138.10554206343593 " fill="none" id="curve_2" stroke="#000000" stroke-linecap="round" stroke-linejoin="round" stroke-width="4.427446831939501"/>
  <path d="M 59.28937931418618, 103.66316976884941 Q 59.36187620136756, 103.72764378233288, 59.43734049350624, 103.84228114709164 " fill="none" id="curve_5" stroke="#000000" stroke-linecap="round" stroke-linejoin="round" stroke-width="4.017950620389002"/>
  <path d="M 1.2417175384534573, 77.13648013490155 Q 1.1985912741906792, 74.68561443008073, 1.1533755004071529, 68.75726139192771 " fill="none" id="curve_7" stroke="#000000" stroke-linecap="round" stroke-linejoin="round" stroke-width="1.5341491016745021"/>
  <path d="M 29.753771688598462, 85.49217063371569 Q 32.50476504187755, 77.26506771463426, 41.26498534336004, 66.7769861019642 " fill="none" id="curve_9" stroke="#000000" stroke-linecap="round" stroke-linejoin="round" stroke-width="2.6354788261365734"/>
  <path d="M 41.26498534336004, 66.7769861019642 Q 45.17810323123091, 59.81555725616919, 50.765857886107675, 48.46161195917829 " fill="none" id="curve_9" stroke="#000000" stroke-linecap="round" stroke-linejoin="round" stroke-width="3.305759290880892"/>
  <path d="M 62.00085573521178, 26.8282775174803 Q 62.17863181999717, 26.55897681985998, 62.31235637360781, 26.03305423093273 " fill="none" id="curve_10" stroke="#000000" stroke-linecap="round" stroke-linejoin="round" stroke-width="5.095695426929772"/>
  <path d="M 62.31235637360781, 26.03305423093273 Q 58.69875065604865, 32.004446755177625, 54.69076575075341, 42.90339007043411 " fill="none" id="curve_10" stroke="#000000" stroke-linecap="round" stroke-linejoin="round" stroke-width="2.628164713239198"/>
  <path d="M 1.0375804510918376, 66.63527609026713 Q 0.9708885621393286, 61.224996006870214, 0.896747949454094, 44.65337184070111 " fill="none" id="curve_15" stroke="#000000" stroke-linecap="round" stroke-linejoin="round" stroke-width="1.7855604774475486"/>
  <path d="M 0.896747949454094, 44.65337184070111 Q 0.999463486351359, 39.12540167921532, 1.1722424897527361, 29.98401857902818 " fill="none" id="curve_15" stroke="#000000" stroke-linecap="round" stroke-linejoin="round" stroke-width="1.729786608893674"/>
  <path d="M 1.1722424897527361, 29.98401857902818 Q 0.9970930577174664, 24.938804448266204, 0.767926561122231, 12.784158657927819 " fill="none" id="curve_15" stroke="#000000" stroke-linecap="round" stroke-linejoin="round" stroke-width="1.5116641326992946"/>
  <path d="M 1.6941656265346388, 1.3978583683344858 Q 1.3001891451619467, 2.3315071589890377, 0.9793019238739974, 5.972965445032003 " fill="none" id="curve_16" stroke="#000000" stroke-linecap="round" stroke-linejoin="round" stroke-width="1.5618266798108338"/>
  <path d="M -0.8524735957618077, 82.1439843932481 Q 0.007844146363093385, 83.08617517867327, 1.160286424001051, 85.2017098536574 " fill="none" id="curve_23" stroke="#000000" stroke-linecap="round" stroke-linejoin="round" stroke-width="1.9459869973568895"/>
  <path d="M 56.91677501729435, 84.2554805882088 Q 56.55639228037598, 83.7190319343202, 56.11460280674508, 82.6415877051796 " fill="none" id="curve_31" stroke="#000000" stroke-linecap="round" stroke-linejoin="round" stroke-width="3.8619722095094637"/>
  <path d="M 2.0306379637714898, 137.72660332835775 Q 2.2434519230824903, 137.76854199548626, 2.7236687711746734, 137.82705046724075 " fill="none" id="curve_32" stroke="#000000" stroke-linecap="round" stroke-linejoin="round" stroke-width="2.3663321032418794"/>
  <path d="M 33.37886934692141, 80.46110654110235 Q 34.264495037372086, 75.4178821917618, 39.161416706116114, 72.65495740193441 " fill="none" id="curve_34" stroke="#000000" stroke-linecap="round" stroke-linejoin="round" stroke-width="2.6345974606159945"/>
  <path d="M 51.46337075103897, 46.55524789010042 Q 51.44585853224664, 46.56571350400893, 51.40584637887319, 46.58542843310545 " fill="none" id="curve_63" stroke="#000000" stroke-linecap="round" stroke-linejoin="round" stroke-width="2.638976276001331"/>
  <path d="M 55.532719599074106, 66.61279564825278 Q 54.817056073100645, 66.72819003060977, 54.24877922865468, 67.00735051180548 " fill="none" id="curve_79" stroke="#000000" stroke-linecap="round" stroke-linejoin="round" stroke-width="3.8058296559608964"/>
  <path d="M 33.6954667312104, 75.28198245619637 Q 37.72472154321036, 74.25495317111431, 41.64014124715443, 71.28361465428391 " fill="none" id="curve_160" stroke="#000000" stroke-linecap="round" stroke-linejoin="round" stroke-width="2.419831877483428"/>
</svg>
