<?xml version="1.0" ?>
<svg height="140" width="140" xmlns="http://www.w3.org/2000/svg">
  <path d="M 56.0921630859375, 110.42070960998535 Q 55.254167727531666, 111.05908758145215, 55.101770202802655, 119.16918413779297 " fill="none" id="curve_1" stroke="#000000" stroke-linecap="round" stroke-linejoin="round" stroke-width="7.042366271454455"/>
  <path d="M 55.101770202802655, 119.16918413779297 Q 55.417795922074276, 113.54934633124189, 55.845484021668234, 105.75079371369493 " fill="none" id="curve_1" stroke="#000000" stroke-linecap="round" stroke-linejoin="round" stroke-width="6.9320399689668495"/>
  <path d="M 55.845484021668234, 105.75079371369493 Q 57.18644534908616, 97.70071959575975, 59.443046762503776, 80.80561132842217 " fill="none" id="curve_1" stroke="#000000" stroke-linecap="round" stroke-linejoin="round" stroke-width="5.767473647269858"/>
  <path d="M 59.443046762503776, 80.80561132842217 Q 60.35962789463266, 72.0702729517957, 62.217806503010294, 48.36390575299774 " fill="none" id="curve_1" stroke="#000000" stroke-linecap="round" stroke-linejoin="round" stroke-width="5.861293813475987"/>
  <path d="M 62.217806503010294, 48.36390575299774 Q 63.79150190809199, 46.5843831073791, 64.12705124993978, 21.544988247308996 " fill="none" id="curve_1" stroke="#000000" stroke-linecap="round" stroke-linejoin="round" stroke-width="4.170368730173033"/>
  <path d="M 64.12705124993978, 21.544988247308996 Q 58.29492310905991, 28.522540677576586, 47.435756493029764, 59.431353097703706 " fill="none" id="curve_1" stroke="#000000" stroke-linecap="round" stroke-linejoin="round" stroke-width="4.5235431348222965"/>
  <path d="M 47.435756493029764, 59.431353097703706 Q 43.467860154857455, 72.04276414833146, 23.685859778597685, 99.00453476150463 " fill="none" id="curve_1" stroke="#000000" stroke-linecap="round" stroke-linejoin="round" stroke-width="4.780594385641116"/>
  <path d="M 23.685859778597685, 99.00453476150463 Q 19.63754224648409, 104.43250047987186, 15.890301228451833, 111.03309085081612 " fill="none" id="curve_1" stroke="#000000" stroke-linecap="round" stroke-linejoin="round" stroke-width="5.688401144011018"/>
  <path d="M 15.890301228451833, 111.03309085081612 Q 16.86132681499284, 107.87337502488319, 18.19462615651024, 103.93175110392586 " fill="none" id="curve_1" stroke="#000000" stroke-linecap="round" stroke-linejoin="round" stroke-width="3.3325337662188033"/>
  <path d="M 60.57115729576733, 24.63428395836209 Q 58.831881658058236, 26.6175457804007, 56.9727233241501, 32.87837522813588 " fill="none" id="curve_3" stroke="#000000" stroke-linecap="round" stroke-linejoin="round" stroke-width="2.812112267559262"/>
  <path d="M 49.71851968765259, 49.663658142089844 Q 46.78124967862366, 52.68193986430155, 43.85454984857279, 64.45720982731291 " fill="none" id="curve_17" stroke="#000000" stroke-linecap="round" stroke-linejoin="round" stroke-width="2.5061838701731176"/>
  <path d="M 58.043606146280155, 58.787656305907404 Q 58.848582375283556, 64.8229037894192, 59.719943381954046, 76.00552170227996 " fill="none" id="curve_18" stroke="#000000" stroke-linecap="round" stroke-linejoin="round" stroke-width="2.7189966773718295"/>
  <path d="M 38.56662110856196, 71.71696323497045 Q 35.76812874572763, 80.25689099914285, 28.38748239970224, 88.80692164376326 " fill="none" id="curve_19" stroke="#000000" stroke-linecap="round" stroke-linejoin="round" stroke-width="2.943161593151404"/>
  <path d="M 59.93418717169514, 26.028900401328304 Q 60.37584702721064, 21.875132010952196, 63.1933265247921, 20.60901923040379 " fill="none" id="curve_24" stroke="#000000" stroke-linecap="round" stroke-linejoin="round" stroke-width="2.8750304365273207"/>
  <path d="M 63.53534412384033, 45.60035705566406 Q 64.91645403944179, 45.002167830739474, 65.14216865260858, 34.333807817279194 " fill="none" id="curve_38" stroke="#000000" stroke-linecap="round" stroke-linejoin="round" stroke-width="3.1075148549702414"/>
  <path d="M 64.47419932180472, 50.9490520614457 Q 63.86813124903837, 48.55700965529367, 62.72262033470199, 45.84570801778294 " fill="none" id="curve_39" stroke="#000000" stroke-linecap="round" stroke-linejoin="round" stroke-width="2.0700318674123848"/>
  <path d="M 55.80916210475471, 33.57787785896544 Q 54.149282280684396, 45.088102472662456, 49.903465373180886, 54.62276026545181 " fill="none" id="curve_40" stroke="#000000" stroke-linecap="round" stroke-linejoin="round" stroke-width="2.529791132301437"/>
  <path d="M 49.903465373180886, 54.62276026545181 Q 52.430165137825085, 47.362044579432315, 56.581424661985324, 34.92709851894094 " fill="none" id="curve_40" stroke="#000000" stroke-linecap="round" stroke-linejoin="round" stroke-width="2.238431757772926"/>
  <path d="M 56.581424661985324, 34.92709851894094 Q 55.97846989695621, 42.436885847819845, 52.53686275067443, 45.03845323544482 " fill="none" id="curve_40" stroke="#000000" stroke-linecap="round" stroke-linejoin="round" stroke-width="2.7608021186706337"/>
  <path d="M 62.16487032099529, 85.31741639362329 Q 57.748209424130216, 85.97383838027572, 56.313025335798464, 93.69363226690085 " fill="none" id="curve_56" stroke="#000000" stroke-linecap="round" stroke-linejoin="round" stroke-width="2.3922384227596925"/>
  <path d="M 56.313025335798464, 93.69363226690085 Q 55.914679391722935, 93.72869542329802, 55.63866971711383, 93.82258157120103 " fill="none" id="curve_56" stroke="#000000" stroke-linecap="round" stroke-linejoin="round" stroke-width="3.8747456904819577"/>
  <path d="M 57.9622240917256, 80.4677250939344 Q 58.29004793520572, 76.67075375120214, 59.76705947823924, 74.73173873126174 " fill="none" id="curve_71" stroke="#000000" stroke-linecap="round" stroke-linejoin="round" stroke-width="3.3864270953033637"/>
  <path d="M 59.64753307116094, 47.29233998570349 Q 61.915168702330945, 45.802366245123004, 65.19656829836674, 44.21142549522214 " fill="none" id="curve_88" stroke="#000000" stroke-linecap="round" stroke-linejoin="round" stroke-width="3.3324826485349184"/>
</svg>
