<?xml version="1.0" ?>
<svg height="140" width="140" xmlns="http://www.w3.org/2000/svg">
  <path d="M 76.19272232055664, 32.986021995544434 Q 74.90396590307581, 36.4964747332411, 72.52783781231548, 41.812902884815855 " fill="none" id="curve_1" stroke="#000000" stroke-linecap="round" stroke-linejoin="round" stroke-width="8.499154096511413"/>
  <path d="M 72.52783781231548, 41.812902884815855 Q 67.7032316618342, 47.98860129673915, 50.766721321304715, 64.34212523375137 " fill="none" id="curve_1" stroke="#000000" stroke-linecap="round" stroke-linejoin="round" stroke-width="5.318830500554797"/>
  <path d="M 50.766721321304715, 64.34212523375137 Q 43.41025885586681, 70.05989203101225, 22.925627767533765, 87.36900927972079 " fill="none" id="curve_1" stroke="#000000" stroke-linecap="round" stroke-linejoin="round" stroke-width="5.613711896423281"/>
  <path d="M 54.97978461373238, 102.61515879452706 Q 59.77409973968605, 96.30041452126221, 65.97117149108134, 67.51226357885415 " fill="none" id="curve_2" stroke="#000000" stroke-linecap="round" stroke-linejoin="round" stroke-width="6.4027454031427675"/>
  <path d="M 65.97117149108134, 67.51226357885415 Q 69.8673071843805, 58.83103937928345, 74.85067203910796, 43.20551588445829 " fill="none" id="curve_2" stroke="#000000" stroke-linecap="round" stroke-linejoin="round" stroke-width="4.873817818006988"/>
  <path d="M 74.85067203910796, 43.20551588445829 Q 76.29095036967523, 39.32688876530384, 78.0407071815856, 35.49244675256195 " fill="none" id="curve_2" stroke="#000000" stroke-linecap="round" stroke-linejoin="round" stroke-width="4.384591183571913"/>
  <path d="M 49.737305803082606, 62.830596811246444 Q 43.32493925828129, 70.67335618145717, 29.01744152336118, 79.77043608964833 " fill="none" id="curve_3" stroke="#000000" stroke-linecap="round" stroke-linejoin="round" stroke-width="2.994852503449608"/>
  <path d="M 55.681984206354684, 99.03547723460959 Q 58.8162271735159, 89.1545859914233, 65.48413007263844, 74.78725641995516 " fill="none" id="curve_4" stroke="#000000" stroke-linecap="round" stroke-linejoin="round" stroke-width="2.9951321583338766"/>
  <path d="M 65.48413007263844, 74.78725641995516 Q 67.10732470801454, 62.82244212229448, 70.90868284670495, 48.45652242738265 " fill="none" id="curve_4" stroke="#000000" stroke-linecap="round" stroke-linejoin="round" stroke-width="2.9942821116821805"/>
  <path d="M 55.541932823650086, 58.37090677628687 Q 48.50216575394249, 63.2186310785659, 40.71906767536785, 71.5228962638866 " fill="none" id="curve_5" stroke="#000000" stroke-linecap="round" stroke-linejoin="round" stroke-width="3.488778599260638"/>
  <path d="M 65.10762015371625, 72.12981195876853 Q 60.71709714962411, 79.44206454935618, 57.66467412789933, 101.33723574683592 " fill="none" id="curve_11" stroke="#000000" stroke-linecap="round" stroke-linejoin="round" stroke-width="2.7033421988814887"/>
  <path d="M 67.37047897410199, 65.65396746463573 Q 67.64600662582339, 61.73389847542761, 68.28141197993966, 58.53962550368419 " fill="none" id="curve_12" stroke="#000000" stroke-linecap="round" stroke-linejoin="round" stroke-width="3.9437920680453873"/>
  <path d="M 65.94925163245142, 73.27805232687884 Q 61.94658912615895, 81.73048134867484, 58.20572524390549, 99.19377690866301 " fill="none" id="curve_28" stroke="#000000" stroke-linecap="round" stroke-linejoin="round" stroke-width="2.808210688884863"/>
  <path d="M 60.40276442286201, 94.47166592692355 Q 62.84641953025139, 78.69612049201635, 70.00204812823496, 57.245047795058035 " fill="none" id="curve_30" stroke="#000000" stroke-linecap="round" stroke-linejoin="round" stroke-width="2.4430370953752076"/>
  <path d="M 66.98725020108972, 65.38020190264827 Q 67.28601465341329, 63.00148124221063, 68.06616741490001, 59.52484784174211 " fill="none" id="curve_40" stroke="#000000" stroke-linecap="round" stroke-linejoin="round" stroke-width="3.1351248748855163"/>
  <path d="M 67.42531442642212, 61.667057514190674 Q 67.52957490570826, 65.1350004983706, 67.83813405796849, 69.52274154164058 " fill="none" id="curve_67" stroke="#000000" stroke-linecap="round" stroke-linejoin="round" stroke-width="2.9069207340980996"/>
  <path d="M 56.65511576315093, 101.6260566786371 Q 56.76590067552437, 101.54148915057793, 57.02196399005911, 101.43438478476953 " fill="none" id="curve_97" stroke="#000000" stroke-linecap="round" stroke-linejoin="round" stroke-width="3.1394246275429443"/>
  <path d="M 67.03829796515173, 62.547409216724276 Q 67.9736208664879, 62.22503241341058, 69.31058697779979, 61.60081614765342 " fill="none" id="curve_127" stroke="#000000" stroke-linecap="round" stroke-linejoin="round" stroke-width="3.494455129181687"/>
</svg>
