<?xml version="1.0" ?>
<svg height="140" width="140" xmlns="http://www.w3.org/2000/svg">
  <path d="M 56.16115474700928, 100.93550491333008 Q 54.24254168061738, 98.99633980975055, 52.321450701578954, 94.4569051389064 " fill="none" id="curve_1" stroke="#000000" stroke-linecap="round" stroke-linejoin="round" stroke-width="6.611844579201757"/>
  <path d="M 52.321450701578954, 94.4569051389064 Q 53.306281558236265, 92.36204633358723, 53.81650083774046, 84.61876047783423 " fill="none" id="curve_1" stroke="#000000" stroke-linecap="round" stroke-linejoin="round" stroke-width="7.067224719871334"/>
  <path d="M 53.81650083774046, 84.61876047783423 Q 55.15589693109041, 72.87286751141053, 62.00690176997212, 66.54224588385662 " fill="none" id="curve_1" stroke="#000000" stroke-linecap="round" stroke-linejoin="round" stroke-width="8.405224158536802"/>
  <path d="M 62.00690176997212, 66.54224588385662 Q 63.229339350957325, 64.45678074631529, 64.09410482585974, 59.51888760130063 " fill="none" id="curve_1" stroke="#000000" stroke-linecap="round" stroke-linejoin="round" stroke-width="12.11367969856367"/>
  <path d="M 64.09410482585974, 59.51888760130063 Q 58.73088807921494, 66.72196054798559, 52.16436844017074, 75.8013723246591 " fill="none" id="curve_1" stroke="#000000" stroke-linecap="round" stroke-linejoin="round" stroke-width="4.428252520106719"/>
  <path d="M 52.16436844017074, 75.8013723246591 Q 47.601097979717146, 80.51004166173375, 30.76492378739244, 82.24820052068968 " fill="none" id="curve_1" stroke="#000000" stroke-linecap="round" stroke-linejoin="round" stroke-width="5.37088442640614"/>
  <path d="M 30.76492378739244, 82.24820052068968 Q 30.09733756981697, 79.56288105128564, 29.52366360585239, 75.34809680709813 " fill="none" id="curve_1" stroke="#000000" stroke-linecap="round" stroke-linejoin="round" stroke-width="6.4172396306535555"/>
  <path d="M 58.340176660472856, 103.4398128374603 Q 59.79863332143975, 103.6271828645647, 61.16082794331669, 103.9444325490611 " fill="none" id="curve_2" stroke="#000000" stroke-linecap="round" stroke-linejoin="round" stroke-width="4.944279291401959"/>
  <path d="M 57.95978089234325, 102.62807372143023 Q 56.873504906065584, 101.9991627471029, 54.86559604665729, 100.91706107487433 " fill="none" id="curve_4" stroke="#000000" stroke-linecap="round" stroke-linejoin="round" stroke-width="3.9584689650190885"/>
  <path d="M 52.45662407389375, 76.98711584439032 Q 43.80684209121849, 77.46083506136374, 39.37677297186191, 80.81799188495401 " fill="none" id="curve_5" stroke="#000000" stroke-linecap="round" stroke-linejoin="round" stroke-width="2.935897026343321"/>
  <path d="M 29.241449105463737, 75.96129571286603 Q 30.11122874681717, 74.7945224913369, 31.139232778050797, 72.56565797968663 " fill="none" id="curve_6" stroke="#000000" stroke-linecap="round" stroke-linejoin="round" stroke-width="3.1371333690089083"/>
  <path d="M 45.195329666137695, 79.17110633850098 Q 45.89531357793439, 75.29463849914127, 52.91705014453828, 74.28235585907044 " fill="none" id="curve_20" stroke="#000000" stroke-linecap="round" stroke-linejoin="round" stroke-width="3.198170744711381"/>
  <path d="M 27.861811424124497, 80.30582217434815 Q 27.949477402853567, 77.76695617955559, 28.19203526416951, 75.79973993654293 " fill="none" id="curve_23" stroke="#000000" stroke-linecap="round" stroke-linejoin="round" stroke-width="2.938253708371809"/>
  <path d="M 61.12801369426175, 56.65463570510846 Q 60.50916919632262, 56.94545867549062, 60.052315669566156, 57.75702574018694 " fill="none" id="curve_26" stroke="#000000" stroke-linecap="round" stroke-linejoin="round" stroke-width="4.414391050650401"/>
  <path d="M 32.66294991762509, 82.0262556709393 Q 37.90392455709437, 81.7903175184184, 41.74814892559793, 81.17897894718712 " fill="none" id="curve_28" stroke="#000000" stroke-linecap="round" stroke-linejoin="round" stroke-width="3.7329349651001484"/>
  <path d="M 36.070089825749164, 79.56551948448032 Q 32.42624594265645, 79.79650493121989, 29.162462036201013, 80.4067354615589 " fill="none" id="curve_69" stroke="#000000" stroke-linecap="round" stroke-linejoin="round" stroke-width="2.781624938667544"/>
  <path d="M 50.87284956983194, 86.90651773338129 Q 51.29704052928488, 88.23991520369188, 51.77977225083248, 91.54149605424217 " fill="none" id="curve_110" stroke="#000000" stroke-linecap="round" stroke-linejoin="round" stroke-width="2.397860458653302"/>
  <path d="M 56.697624286899526, 101.65407591982675 Q 55.37778099567315, 100.16471644218032, 52.993813151970684, 98.65646549031412 " fill="none" id="curve_111" stroke="#000000" stroke-linecap="round" stroke-linejoin="round" stroke-width="4.166538537608871"/>
  <path d="M 33.63809905672386, 73.78932017104093 Q 31.718801562553786, 74.12984042293216, 28.58100519937799, 74.6319521171226 " fill="none" id="curve_128" stroke="#000000" stroke-linecap="round" stroke-linejoin="round" stroke-width="2.7085345775978005"/>
  <path d="M 65.14824136148853, 57.83260561271031 Q 66.77913237839107, 57.61163160187748, 68.31729597704354, 57.20955908446601 " fill="none" id="curve_130" stroke="#000000" stroke-linecap="round" stroke-linejoin="round" stroke-width="3.3621732587038617"/>
</svg>
