<?xml version="1.0" ?>
<svg height="140" width="140" xmlns="http://www.w3.org/2000/svg">
  <path d="M 23.664921760559082, 88.83607482910156 Q 22.94108391700364, 89.23314238234192, 21.01214986794146, 89.67687157461712 " fill="none" id="curve_1" stroke="#000000" stroke-linecap="round" stroke-linejoin="round" stroke-width="3.994781950123433"/>
  <path d="M 21.01214986794146, 89.67687157461712 Q 30.791790797690304, 86.84672638940036, 45.66426882226543, 76.94566096059769 " fill="none" id="curve_1" stroke="#000000" stroke-linecap="round" stroke-linejoin="round" stroke-width="5.69403158032436"/>
  <path d="M 45.66426882226543, 76.94566096059769 Q 53.90131180406689, 72.13228486376198, 73.22897794786728, 57.54729332042015 " fill="none" id="curve_1" stroke="#000000" stroke-linecap="round" stroke-linejoin="round" stroke-width="5.1988473011426155"/>
  <path d="M 73.22897794786728, 57.54729332042015 Q 71.85023984195725, 69.33253764473197, 63.4156659636985, 86.18766926586036 " fill="none" id="curve_1" stroke="#000000" stroke-linecap="round" stroke-linejoin="round" stroke-width="4.715518235083502"/>
  <path d="M 63.4156659636985, 86.18766926586036 Q 64.2430329868419, 94.27876223243928, 66.74224159937373, 97.98652108665051 " fill="none" id="curve_1" stroke="#000000" stroke-linecap="round" stroke-linejoin="round" stroke-width="4.439700615879844"/>
  <path d="M 72.23624529396722, 70.3246764005018 Q 74.08132066264899, 64.79520924561707, 75.76883854714083, 55.162902495538084 " fill="none" id="curve_2" stroke="#000000" stroke-linecap="round" stroke-linejoin="round" stroke-width="4.028243836797452"/>
  <path d="M 64.92496452146828, 80.90587621081426 Q 65.33180103654652, 84.88965945002218, 65.87847945511979, 89.29912189825343 " fill="none" id="curve_3" stroke="#000000" stroke-linecap="round" stroke-linejoin="round" stroke-width="3.4662163339210625"/>
  <path d="M 76.3240708136665, 57.3361720349004 Q 75.90286316789184, 56.197081805366224, 74.24177755271829, 55.62457671042457 " fill="none" id="curve_4" stroke="#000000" stroke-linecap="round" stroke-linejoin="round" stroke-width="4.370771973072854"/>
  <path d="M 32.87815504113326, 83.71815337110567 Q 29.52194021953846, 86.7310648286236, 24.78734600258924, 89.74769452120145 " fill="none" id="curve_5" stroke="#000000" stroke-linecap="round" stroke-linejoin="round" stroke-width="4.253035977562649"/>
  <path d="M 65.69941894704934, 79.11946516075372 Q 65.79305727127472, 79.03497008660555, 65.84001921914137, 78.57343597082453 " fill="none" id="curve_7" stroke="#000000" stroke-linecap="round" stroke-linejoin="round" stroke-width="5.1898646197511376"/>
  <path d="M 34.497292014954176, 83.93194360576507 Q 29.087030220998855, 85.55514221989228, 25.167143790532627, 89.1150949019572 " fill="none" id="curve_11" stroke="#000000" stroke-linecap="round" stroke-linejoin="round" stroke-width="4.442265706682819"/>
  <path d="M 25.167143790532627, 89.1150949019572 Q 31.78658080925601, 86.86072131852637, 36.762135039821295, 80.90182398905532 " fill="none" id="curve_11" stroke="#000000" stroke-linecap="round" stroke-linejoin="round" stroke-width="2.7260686202366884"/>
  <path d="M 72.52320331688519, 59.032970412365756 Q 73.27603613708979, 56.882392916794345, 75.58135542100156, 55.42613327318958 " fill="none" id="curve_12" stroke="#000000" stroke-linecap="round" stroke-linejoin="round" stroke-width="3.843228410909576"/>
  <path d="M 74.97543144226074, 55.36709976196289 Q 70.63612556235563, 56.528900161704996, 66.04783790771421, 61.13894783771548 " fill="none" id="curve_26" stroke="#000000" stroke-linecap="round" stroke-linejoin="round" stroke-width="2.4641235653537668"/>
  <path d="M 75.64372062054763, 55.149101365500144 Q 75.17474182344431, 55.415320256263264, 74.00484220516563, 55.77515433633372 " fill="none" id="curve_42" stroke="#000000" stroke-linecap="round" stroke-linejoin="round" stroke-width="2.8787902317935212"/>
  <path d="M 64.30144296513267, 82.85491533418435 Q 67.97537633023904, 79.99304167939297, 70.68522590954242, 73.3050368807005 " fill="none" id="curve_58" stroke="#000000" stroke-linecap="round" stroke-linejoin="round" stroke-width="2.650581864582272"/>
  <path d="M 66.40060451815263, 62.618126509013464 Q 58.171507489116266, 66.5434708626913, 48.85488252795615, 74.46477959835028 " fill="none" id="curve_59" stroke="#000000" stroke-linecap="round" stroke-linejoin="round" stroke-width="2.9813663868475917"/>
  <path d="M 75.85864324843752, 60.31200279579594 Q 75.64833093126512, 59.52923701866539, 75.44196465387775, 57.74830122422255 " fill="none" id="curve_75" stroke="#000000" stroke-linecap="round" stroke-linejoin="round" stroke-width="3.548263040650617"/>
  <path d="M 65.63925048990743, 76.0871964677002 Q 64.80343950529912, 78.97338111604323, 63.69159494119833, 82.86599202076286 " fill="none" id="curve_104" stroke="#000000" stroke-linecap="round" stroke-linejoin="round" stroke-width="2.796573414592019"/>
</svg>
