<?xml version="1.0" ?>
<svg height="140" width="140" xmlns="http://www.w3.org/2000/svg">
  <path d="M 46.756208419799805, 41.81912326812744 Q 48.633388068617236, 39.04580641957394, 51.39934821393794, 34.98271561372212 " fill="none" id="curve_1" stroke="#000000" stroke-linecap="round" stroke-linejoin="round" stroke-width="4.900994284840849"/>
  <path d="M 51.39934821393794, 34.98271561372212 Q 51.34426589280869, 40.81533217686789, 50.79615965559278, 42.050532366250856 " fill="none" id="curve_1" stroke="#000000" stroke-linecap="round" stroke-linejoin="round" stroke-width="6.171119566033787"/>
  <path d="M 50.79615965559278, 42.050532366250856 Q 44.62136014574405, 45.1590722816834, 31.243774834985135, 66.4894592850702 " fill="none" id="curve_1" stroke="#000000" stroke-linecap="round" stroke-linejoin="round" stroke-width="4.049323724192776"/>
  <path d="M 31.243774834985135, 66.4894592850702 Q 25.845308558316855, 73.73242897099831, 9.5013837777438, 93.51413058664417 " fill="none" id="curve_1" stroke="#000000" stroke-linecap="round" stroke-linejoin="round" stroke-width="4.793568958117404"/>
  <path d="M 9.5013837777438, 93.51413058664417 Q 9.039103219764472, 94.20863878299369, 7.651649863664481, 94.48606628058913 " fill="none" id="curve_1" stroke="#000000" stroke-linecap="round" stroke-linejoin="round" stroke-width="9.357108766447993"/>
  <path d="M 41.37423040628385, 92.11539279323682 Q 41.45534834169997, 73.45658790324336, 42.83407972676985, 69.50485375430785 " fill="none" id="curve_2" stroke="#000000" stroke-linecap="round" stroke-linejoin="round" stroke-width="4.141576888835333"/>
  <path d="M 42.83407972676985, 69.50485375430785 Q 46.01435998371182, 61.84871056756856, 48.79260130327712, 45.28117760017565 " fill="none" id="curve_2" stroke="#000000" stroke-linecap="round" stroke-linejoin="round" stroke-width="4.409178072369304"/>
  <path d="M 40.1684394475495, 76.98189194638348 Q 40.37841335157255, 90.7937628985468, 42.34967148938741, 93.0537668469295 " fill="none" id="curve_3" stroke="#000000" stroke-linecap="round" stroke-linejoin="round" stroke-width="3.163338876570746"/>
  <path d="M 42.34967148938741, 93.0537668469295 Q 43.827703057133505, 92.51607941698948, 45.045858459653864, 91.55942595004838 " fill="none" id="curve_3" stroke="#000000" stroke-linecap="round" stroke-linejoin="round" stroke-width="3.845983864200866"/>
  <path d="M 34.79084534714383, 61.43322605403688 Q 27.675974364626118, 66.65440774030995, 19.37127211642637, 80.09527638218371 " fill="none" id="curve_4" stroke="#000000" stroke-linecap="round" stroke-linejoin="round" stroke-width="3.3099172305734736"/>
  <path d="M 38.29483725524998, 82.84757541928408 Q 38.98987743145258, 86.58108540300948, 39.82949996333714, 90.5169744949115 " fill="none" id="curve_5" stroke="#000000" stroke-linecap="round" stroke-linejoin="round" stroke-width="3.0204498227622425"/>
  <path d="M 11.441959739936006, 96.07012059801527 Q 10.577484165515276, 95.85421198526974, 9.470483736870667, 95.57306236393482 " fill="none" id="curve_6" stroke="#000000" stroke-linecap="round" stroke-linejoin="round" stroke-width="4.638296191747787"/>
  <path d="M 43.31918589116361, 46.577626480752166 Q 45.38486004043711, 43.618678802758986, 48.6594834280559, 40.37002986909758 " fill="none" id="curve_8" stroke="#000000" stroke-linecap="round" stroke-linejoin="round" stroke-width="2.7123994492893964"/>
  <path d="M 89.98165051249643, 59.41756232519857 Q 89.86883312172777, 77.69373470405336, 89.15128945695308, 97.41324899652624 " fill="none" id="curve_10" stroke="#000000" stroke-linecap="round" stroke-linejoin="round" stroke-width="1.802935132067701"/>
  <path d="M 89.15128945695308, 97.41324899652624 Q 89.33687167699658, 105.32623825960451, 89.56424767446678, 128.57379805423002 " fill="none" id="curve_10" stroke="#000000" stroke-linecap="round" stroke-linejoin="round" stroke-width="1.4394470573901645"/>
  <path d="M 89.56424767446678, 128.57379805423002 Q 89.44644992786233, 137.1131844460845, 88.547631629195, 138.8648635469722 " fill="none" id="curve_10" stroke="#000000" stroke-linecap="round" stroke-linejoin="round" stroke-width="3.415753625440509"/>
  <path d="M 88.547631629195, 138.8648635469722 Q 88.34791256704672, 138.58495466867714, 88.04825417328057, 138.23408834779042 " fill="none" id="curve_10" stroke="#000000" stroke-linecap="round" stroke-linejoin="round" stroke-width="2.602230368463069"/>
  <path d="M 89.54565655170505, 57.476887107298296 Q 89.62169048340697, 54.506761250911495, 89.68024743225983, 41.1740359446471 " fill="none" id="curve_14" stroke="#000000" stroke-linecap="round" stroke-linejoin="round" stroke-width="1.4523426209457355"/>
  <path d="M 89.68024743225983, 41.1740359446471 Q 89.66982848420965, 37.8769602561772, 89.65934722376933, 27.01926510282115 " fill="none" id="curve_14" stroke="#000000" stroke-linecap="round" stroke-linejoin="round" stroke-width="1.4684803213320414"/>
  <path d="M 89.65934722376933, 27.01926510282115 Q 89.63278761754661, 24.410496955546083, 89.6109642030871, 13.45712205869559 " fill="none" id="curve_14" stroke="#000000" stroke-linecap="round" stroke-linejoin="round" stroke-width="1.3886590899598934"/>
  <path d="M 89.6109642030871, 13.45712205869559 Q 89.55710226714933, 7.554918766736201, 89.41809313181494, 0.8833207082194239 " fill="none" id="curve_14" stroke="#000000" stroke-linecap="round" stroke-linejoin="round" stroke-width="1.3900451738316106"/>
  <path d="M 89.41809313181494, 0.8833207082194239 Q 89.1841294149732, 0.9592043723273133, 88.5743992106697, 1.030726047301638 " fill="none" id="curve_14" stroke="#000000" stroke-linecap="round" stroke-linejoin="round" stroke-width="1.215509484666774"/>
  <path d="M 46.60573663940093, 55.89421704783631 Q 47.96325150918819, 51.21401148543648, 49.399373516316146, 41.33709332807703 " fill="none" id="curve_23" stroke="#000000" stroke-linecap="round" stroke-linejoin="round" stroke-width="3.8192252318750275"/>
  <path d="M 44.69102715752196, 58.709022265515166 Q 43.08665317998353, 64.32822289109035, 40.723486761090946, 71.39020996254582 " fill="none" id="curve_27" stroke="#000000" stroke-linecap="round" stroke-linejoin="round" stroke-width="2.3732433955935073"/>
  <path d="M 37.63174454899399, 57.821374483203726 Q 34.686979947037656, 61.361453070661064, 28.592100112438025, 68.39892545606622 " fill="none" id="curve_42" stroke="#000000" stroke-linecap="round" stroke-linejoin="round" stroke-width="2.90397445093129"/>
  <path d="M 26.786130401595127, 73.50514609242305 Q 26.838402902016576, 74.09781277250114, 26.9974424575372, 74.58700933842432 " fill="none" id="curve_57" stroke="#000000" stroke-linecap="round" stroke-linejoin="round" stroke-width="3.3683498411374053"/>
  <path d="M 10.850203612078003, 92.7349589796303 Q 15.548746291550282, 88.60917889957244, 20.711203146192084, 79.69158778197384 " fill="none" id="curve_68" stroke="#000000" stroke-linecap="round" stroke-linejoin="round" stroke-width="2.2823591125454326"/>
  <path d="M 38.90560089766879, 81.96781608226948 Q 39.50695678137011, 81.56571075918633, 40.386740015953386, 80.54824065184306 " fill="none" id="curve_76" stroke="#000000" stroke-linecap="round" stroke-linejoin="round" stroke-width="2.9140974014479406"/>
  <path d="M 39.07308604094362, 77.46646175069114 Q 40.49904751282651, 75.72341459584446, 42.17540005836476, 70.80893740289598 " fill="none" id="curve_91" stroke="#000000" stroke-linecap="round" stroke-linejoin="round" stroke-width="2.4261730701781508"/>
  <path d="M 50.0853370653799, 39.072587154240736 Q 44.61429644084903, 45.51011545948015, 35.209178281060815, 58.89571835224814 " fill="none" id="curve_93" stroke="#000000" stroke-linecap="round" stroke-linejoin="round" stroke-width="2.838825643290383"/>
  <path d="M 42.54802841946373, 48.27462156799106 Q 45.02156582926068, 43.67077036970932, 50.28625989719487, 39.44871708643008 " fill="none" id="curve_149" stroke="#000000" stroke-linecap="round" stroke-linejoin="round" stroke-width="2.962499110782915"/>
</svg>
