<?xml version="1.0" ?>
<svg height="140" width="140" xmlns="http://www.w3.org/2000/svg">
  <path d="M 65.60579299926758, 35.72760486602783 Q 59.21873005766539, 36.60653167360478, 54.590915467828154, 43.818497378541 " fill="none" id="curve_1" stroke="#000000" stroke-linecap="round" stroke-linejoin="round" stroke-width="6.350010456833799"/>
  <path d="M 54.590915467828154, 43.818497378541 Q 48.33445163758883, 47.78595740162599, 35.80359187166389, 59.479593992533864 " fill="none" id="curve_1" stroke="#000000" stroke-linecap="round" stroke-linejoin="round" stroke-width="5.604775701709938"/>
  <path d="M 35.80359187166389, 59.479593992533864 Q 29.858868082427712, 65.73952111219796, 14.968165459652084, 74.15864116277953 " fill="none" id="curve_1" stroke="#000000" stroke-linecap="round" stroke-linejoin="round" stroke-width="6.345675051782006"/>
  <path d="M 14.968165459652084, 74.15864116277953 Q 13.753508776580272, 73.70697699172909, 12.73147999920917, 73.02024587076087 " fill="none" id="curve_1" stroke="#000000" stroke-linecap="round" stroke-linejoin="round" stroke-width="5.373046728472147"/>
  <path d="M 53.851572811062766, 97.99541018333287 Q 54.5100284466716, 75.88450304213377, 62.523683241607905, 55.18575290067913 " fill="none" id="curve_2" stroke="#000000" stroke-linecap="round" stroke-linejoin="round" stroke-width="5.408525095846777"/>
  <path d="M 62.523683241607905, 55.18575290067913 Q 65.14822653946932, 49.80160648579768, 67.15479186085149, 36.785856748433275 " fill="none" id="curve_2" stroke="#000000" stroke-linecap="round" stroke-linejoin="round" stroke-width="6.08585030809491"/>
  <path d="M 67.15479186085149, 36.785856748433275 Q 66.64347840409488, 35.39308844662297, 63.13640961089973, 35.083061254240725 " fill="none" id="curve_2" stroke="#000000" stroke-linecap="round" stroke-linejoin="round" stroke-width="4.482736134323753"/>
  <path d="M 54.19113061674892, 81.71894950337327 Q 54.31304298554541, 96.04989858168877, 55.51434239757385, 98.35542199957246 " fill="none" id="curve_3" stroke="#000000" stroke-linecap="round" stroke-linejoin="round" stroke-width="4.737636004014374"/>
  <path d="M 55.51434239757385, 98.35542199957246 Q 52.58036736477209, 98.0685887727901, 52.21989479395096, 92.7779452187903 " fill="none" id="curve_3" stroke="#000000" stroke-linecap="round" stroke-linejoin="round" stroke-width="4.841367563152669"/>
  <path d="M 52.21989479395096, 92.7779452187903 Q 52.87890987667355, 76.57107628492969, 58.86908171040518, 69.95961906868375 " fill="none" id="curve_3" stroke="#000000" stroke-linecap="round" stroke-linejoin="round" stroke-width="2.9275502164195353"/>
  <path d="M 58.86908171040518, 69.95961906868375 Q 61.679886082978676, 62.96951681867917, 63.94201299694521, 44.571696672976515 " fill="none" id="curve_3" stroke="#000000" stroke-linecap="round" stroke-linejoin="round" stroke-width="3.4401846659809916"/>
  <path d="M 55.21906010504259, 95.85882181153872 Q 56.54574939462179, 96.34716815473341, 57.70478029739442, 97.62201759166392 " fill="none" id="curve_6" stroke="#000000" stroke-linecap="round" stroke-linejoin="round" stroke-width="3.6612269745964534"/>
  <path d="M 44.171462962227245, 50.847361256872546 Q 37.73562411259174, 57.71292804404425, 22.96682706199803, 67.96066650819554 " fill="none" id="curve_7" stroke="#000000" stroke-linecap="round" stroke-linejoin="round" stroke-width="3.694083568969678"/>
  <path d="M 54.86042648117197, 71.90815434040621 Q 56.935811372117335, 69.31991718913176, 59.26860989257054, 63.94789864120831 " fill="none" id="curve_8" stroke="#000000" stroke-linecap="round" stroke-linejoin="round" stroke-width="3.3234678919786687"/>
  <path d="M 59.26860989257054, 63.94789864120831 Q 59.81437381664018, 50.8268344233941, 65.57470580470225, 47.00656357628965 " fill="none" id="curve_8" stroke="#000000" stroke-linecap="round" stroke-linejoin="round" stroke-width="3.2097980060246645"/>
  <path d="M 60.117873414777165, 37.487121465770706 Q 62.169317311615096, 39.07043683071968, 65.52187267353925, 40.35459437760932 " fill="none" id="curve_9" stroke="#000000" stroke-linecap="round" stroke-linejoin="round" stroke-width="4.515350828063159"/>
  <path d="M 45.98565690719185, 50.51388059522934 Q 37.742825458922894, 53.77646024370337, 29.533361037653933, 63.34562561343196 " fill="none" id="curve_11" stroke="#000000" stroke-linecap="round" stroke-linejoin="round" stroke-width="2.972847715300503"/>
  <path d="M 62.219891983572076, 59.27713519645264 Q 62.59882740145453, 59.08892455475162, 62.86602509356892, 58.434182233636555 " fill="none" id="curve_13" stroke="#000000" stroke-linecap="round" stroke-linejoin="round" stroke-width="3.290795770053053"/>
  <path d="M 56.99640581135381, 76.22775641957188 Q 57.20838684034161, 74.38835791405224, 57.57482764417349, 71.3570709614818 " fill="none" id="curve_15" stroke="#000000" stroke-linecap="round" stroke-linejoin="round" stroke-width="3.955403971190795"/>
  <path d="M 53.70479002252978, 98.77881127542605 Q 52.29620153218175, 98.22557448780526, 50.85274069815922, 97.39211418418317 " fill="none" id="curve_30" stroke="#000000" stroke-linecap="round" stroke-linejoin="round" stroke-width="3.8647406852261743"/>
  <path d="M 22.66447278509157, 67.91637353649614 Q 21.507871790606433, 71.2538029226994, 15.026811951716075, 71.97818912361267 " fill="none" id="curve_50" stroke="#000000" stroke-linecap="round" stroke-linejoin="round" stroke-width="4.7523491157146935"/>
  <path d="M 60.865739373902954, 35.830663834397 Q 61.02044934392608, 36.441344434397685, 61.713018654640585, 36.94717033854488 " fill="none" id="curve_78" stroke="#000000" stroke-linecap="round" stroke-linejoin="round" stroke-width="3.2484144243328408"/>
</svg>
