<?xml version="1.0" ?>
<svg height="140" width="140" xmlns="http://www.w3.org/2000/svg">
  <path d="M 77.98172378540039, 22.08631134033203 Q 78.83858608481684, 19.829180773819022, 79.80713288921487, 15.757388351605982 " fill="none" id="curve_1" stroke="#000000" stroke-linecap="round" stroke-linejoin="round" stroke-width="4.546430504460084"/>
  <path d="M 79.80713288921487, 15.757388351605982 Q 76.94388328474405, 21.850868988923644, 73.32634137480751, 36.84224831094791 " fill="none" id="curve_1" stroke="#000000" stroke-linecap="round" stroke-linejoin="round" stroke-width="6.202031325512554"/>
  <path d="M 73.32634137480751, 36.84224831094791 Q 70.15867693550388, 49.577629234245876, 62.26240938115135, 62.44208188926359 " fill="none" id="curve_1" stroke="#000000" stroke-linecap="round" stroke-linejoin="round" stroke-width="7.536851966848897"/>
  <path d="M 62.26240938115135, 62.44208188926359 Q 55.31593831876983, 69.66996369567515, 36.074396369814565, 98.38498472982053 " fill="none" id="curve_1" stroke="#000000" stroke-linecap="round" stroke-linejoin="round" stroke-width="3.21091358511905"/>
  <path d="M 36.074396369814565, 98.38498472982053 Q 30.37250158679595, 108.53980512857025, 21.482108041995843, 120.66984470172667 " fill="none" id="curve_1" stroke="#000000" stroke-linecap="round" stroke-linejoin="round" stroke-width="3.9464366388822314"/>
  <path d="M 3.6314923185996406, 138.22962538719435 Q 2.5927887214412166, 136.28929316776487, 2.3202666769480347, 112.39781036974989 " fill="none" id="curve_2" stroke="#000000" stroke-linecap="round" stroke-linejoin="round" stroke-width="2.61855322693769"/>
  <path d="M 2.3202666769480347, 112.39781036974989 Q 2.259642298037252, 104.29159991067316, 2.1457444792814173, 83.86216515070738 " fill="none" id="curve_2" stroke="#000000" stroke-linecap="round" stroke-linejoin="round" stroke-width="2.5822745277664834"/>
  <path d="M 2.1457444792814173, 83.86216515070738 Q 2.0755287648130856, 75.98109385619459, 1.8895405886226562, 57.27066162125596 " fill="none" id="curve_2" stroke="#000000" stroke-linecap="round" stroke-linejoin="round" stroke-width="3.2338900269675945"/>
  <path d="M 1.8895405886226562, 57.27066162125596 Q 2.0806566147917267, 55.74596629371821, 2.1629857379909567, 33.09964379554489 " fill="none" id="curve_2" stroke="#000000" stroke-linecap="round" stroke-linejoin="round" stroke-width="2.7028345576156623"/>
  <path d="M 2.1629857379909567, 33.09964379554489 Q 1.5556486856499174, 30.495692736312247, 1.235676935292552, 16.170096000133867 " fill="none" id="curve_2" stroke="#000000" stroke-linecap="round" stroke-linejoin="round" stroke-width="2.023733816653934"/>
  <path d="M 1.235676935292552, 16.170096000133867 Q 1.3523710915102543, 5.6064333117311485, 2.0048394763348245, 1.4847596745449234 " fill="none" id="curve_2" stroke="#000000" stroke-linecap="round" stroke-linejoin="round" stroke-width="1.985619649755416"/>
  <path d="M 2.0048394763348245, 1.4847596745449234 Q 2.0747362448839786, 1.4979285161992875, 2.1327975231673366, 1.5292463209207345 " fill="none" id="curve_2" stroke="#000000" stroke-linecap="round" stroke-linejoin="round" stroke-width="2.4074601510525833"/>
  <path d="M 2.8637847968795285, 26.394028851680485 Q 1.851981911423989, 28.27154205612635, 1.3934800743946463, 35.46903911673248 " fill="none" id="curve_4" stroke="#000000" stroke-linecap="round" stroke-linejoin="round" stroke-width="1.6391576037133484"/>
  <path d="M 64.96196993573592, 70.98275419461774 Q 66.51869412121869, 64.64322058096508, 69.49704156352651, 52.41575706931319 " fill="none" id="curve_7" stroke="#000000" stroke-linecap="round" stroke-linejoin="round" stroke-width="4.233937709793149"/>
  <path d="M 64.115501097921, 74.09818880699886 Q 62.669165597936306, 83.4778415419182, 61.28944644187625, 98.59994805986156 " fill="none" id="curve_8" stroke="#000000" stroke-linecap="round" stroke-linejoin="round" stroke-width="4.301980932092932"/>
  <path d="M 61.28944644187625, 98.59994805986156 Q 62.09750721016985, 87.00293415818348, 63.83422118260537, 71.99812958982868 " fill="none" id="curve_8" stroke="#000000" stroke-linecap="round" stroke-linejoin="round" stroke-width="3.015926277273289"/>
  <path d="M 69.38676294104609, 44.88388817594033 Q 72.72194972712501, 36.65513911679105, 78.99062986419138, 26.913826709826008 " fill="none" id="curve_9" stroke="#000000" stroke-linecap="round" stroke-linejoin="round" stroke-width="2.613745251490636"/>
  <path d="M 72.73030076285612, 37.426213314827855 Q 69.64441832326685, 41.78428841407632, 66.62890487096941, 50.897558758476755 " fill="none" id="curve_15" stroke="#000000" stroke-linecap="round" stroke-linejoin="round" stroke-width="3.1199050313516636"/>
  <path d="M 24.379290791618654, 115.77206726927534 Q 24.290415881240996, 115.17729657351065, 24.21263939200188, 114.03502168859974 " fill="none" id="curve_17" stroke="#000000" stroke-linecap="round" stroke-linejoin="round" stroke-width="5.364532537650356"/>
  <path d="M 3.701722549996809, 137.8306332896131 Q 3.397171217370107, 137.76833220991054, 2.883462226293259, 137.68770923883386 " fill="none" id="curve_18" stroke="#000000" stroke-linecap="round" stroke-linejoin="round" stroke-width="4.176185720083211"/>
  <path d="M 1.3642169157191173, 82.52646710468422 Q 1.2736443242310855, 90.79042026985623, 0.9313406288677397, 104.70439169779023 " fill="none" id="curve_20" stroke="#000000" stroke-linecap="round" stroke-linejoin="round" stroke-width="1.3889466068480953"/>
  <path d="M 23.422197978377753, 119.85525350040082 Q 24.566004018250883, 118.25877273809702, 26.039908694048627, 116.73361992871305 " fill="none" id="curve_21" stroke="#000000" stroke-linecap="round" stroke-linejoin="round" stroke-width="3.5704151125708634"/>
  <path d="M 2.0670744617892503, 137.4770024150659 Q 2.394482285310549, 137.90794818250646, 3.053017222333803, 138.3177991785108 " fill="none" id="curve_22" stroke="#000000" stroke-linecap="round" stroke-linejoin="round" stroke-width="3.23759660673771"/>
  <path d="M 3.053017222333803, 138.3177991785108 Q 3.5095819319654096, 137.89574559277747, 4.066780959746085, 137.03084432300798 " fill="none" id="curve_22" stroke="#000000" stroke-linecap="round" stroke-linejoin="round" stroke-width="2.7437895821177953"/>
  <path d="M 41.87310761864202, 94.1102588725836 Q 38.678401905835074, 94.75487082661351, 36.51622498131988, 98.67366189380884 " fill="none" id="curve_25" stroke="#000000" stroke-linecap="round" stroke-linejoin="round" stroke-width="2.1780625046739077"/>
  <path d="M 36.51622498131988, 98.67366189380884 Q 39.14806411170252, 93.8961135890016, 43.92039608520231, 88.7439727774264 " fill="none" id="curve_25" stroke="#000000" stroke-linecap="round" stroke-linejoin="round" stroke-width="2.5760571602264215"/>
  <path d="M 64.5292052632384, 72.73686716669029 Q 65.11766417196755, 73.50940668925553, 65.64634663243282, 75.04243836268536 " fill="none" id="curve_26" stroke="#000000" stroke-linecap="round" stroke-linejoin="round" stroke-width="4.533927102669408"/>
  <path d="M 77.540168647795, 26.022423391480253 Q 78.13014207662381, 22.86455888815828, 79.67538827539809, 21.106339874106908 " fill="none" id="curve_28" stroke="#000000" stroke-linecap="round" stroke-linejoin="round" stroke-width="3.3109939692279933"/>
  <path d="M 66.32721630531691, 54.20253547747533 Q 63.02796684140951, 56.016370352289826, 60.64659123237654, 60.009043126332216 " fill="none" id="curve_29" stroke="#000000" stroke-linecap="round" stroke-linejoin="round" stroke-width="3.5163547134616078"/>
  <path d="M 64.0878016689874, 85.44486650761397 Q 62.78975159569707, 80.77316956088458, 61.640416099792105, 69.08351241004182 " fill="none" id="curve_30" stroke="#000000" stroke-linecap="round" stroke-linejoin="round" stroke-width="2.298853910758473"/>
  <path d="M 3.1410484313964844, 138.90764617919922 Q 2.016178970030473, 138.6946745126713, 1.8153662703117988, 134.36528054473013 " fill="none" id="curve_44" stroke="#000000" stroke-linecap="round" stroke-linejoin="round" stroke-width="3.166530079772091"/>
  <path d="M 19.685098999767995, 122.95700325356971 Q 20.199024297070295, 122.15078823257873, 21.15119471536492, 120.87083076476745 " fill="none" id="curve_45" stroke="#000000" stroke-linecap="round" stroke-linejoin="round" stroke-width="1.9737540956540092"/>
  <path d="M 4.419399933879397, 138.34104301044266 Q 3.815745517113969, 137.86852678759857, 3.0399396873660045, 137.147220053121 " fill="none" id="curve_47" stroke="#000000" stroke-linecap="round" stroke-linejoin="round" stroke-width="3.139753515895217"/>
</svg>
