<?xml version="1.0" ?>
<svg height="140" width="140" xmlns="http://www.w3.org/2000/svg">
  <path d="M 63.102027878165245, 55.620201110839844 Q 62.98749478366571, 53.08177378322208, 62.18662455160515, 52.25474873097812 " fill="none" id="curve_1" stroke="#000000" stroke-linecap="round" stroke-linejoin="round" stroke-width="5.511967520872981"/>
  <path d="M 62.18662455160515, 52.25474873097812 Q 58.54848668487474, 59.457010366950186, 44.64370899479273, 77.62436285470106 " fill="none" id="curve_1" stroke="#000000" stroke-linecap="round" stroke-linejoin="round" stroke-width="3.8793867128659016"/>
  <path d="M 44.64370899479273, 77.62436285470106 Q 39.44285753478131, 86.45674721569218, 23.670639368890257, 101.45804497742655 " fill="none" id="curve_1" stroke="#000000" stroke-linecap="round" stroke-linejoin="round" stroke-width="4.44614159814217"/>
  <path d="M 23.670639368890257, 101.45804497742655 Q 17.868609411758463, 106.44109793627257, 7.771702321292896, 110.72768331722027 " fill="none" id="curve_1" stroke="#000000" stroke-linecap="round" stroke-linejoin="round" stroke-width="4.655305300206301"/>
  <path d="M 2.4811535566384437, 137.61122311478792 Q 2.736210324808665, 137.79052054994438, 2.948498696717042, 138.15766441147431 " fill="none" id="curve_2" stroke="#000000" stroke-linecap="round" stroke-linejoin="round" stroke-width="3.683631724632336"/>
  <path d="M 2.948498696717042, 138.15766441147431 Q 3.188422216913054, 137.65768599703915, 3.4636820646573194, 136.61552049635878 " fill="none" id="curve_2" stroke="#000000" stroke-linecap="round" stroke-linejoin="round" stroke-width="2.5975854644085943"/>
  <path d="M 70.20187927210819, 132.01822005628577 Q 69.07391067801643, 122.92619476812149, 66.92078860475395, 93.82944342191271 " fill="none" id="curve_3" stroke="#000000" stroke-linecap="round" stroke-linejoin="round" stroke-width="4.403532074224871"/>
  <path d="M 66.92078860475395, 93.82944342191271 Q 65.8823819862515, 83.99492833428494, 63.40455805642382, 60.03767019213431 " fill="none" id="curve_3" stroke="#000000" stroke-linecap="round" stroke-linejoin="round" stroke-width="4.831204893000735"/>
  <path d="M 63.40455805642382, 60.03767019213431 Q 63.441233293368, 58.397593448693094, 63.48176081895575, 56.30298635767837 " fill="none" id="curve_3" stroke="#000000" stroke-linecap="round" stroke-linejoin="round" stroke-width="5.018387553146671"/>
  <path d="M 45.00942500032171, 76.5042279304562 Q 40.86489806399299, 81.15118725898951, 35.90437854564698, 89.20081238734187 " fill="none" id="curve_4" stroke="#000000" stroke-linecap="round" stroke-linejoin="round" stroke-width="2.8391081985428825"/>
  <path d="M 69.81671455549221, 133.09635273362366 Q 69.65129561779679, 133.51696912862803, 69.29829464169164, 133.96770315518773 " fill="none" id="curve_5" stroke="#000000" stroke-linecap="round" stroke-linejoin="round" stroke-width="4.484827902879379"/>
  <path d="M 69.29829464169164, 133.96770315518773 Q 68.3935039334795, 131.27134961361696, 68.04311581466817, 106.21520601523456 " fill="none" id="curve_5" stroke="#000000" stroke-linecap="round" stroke-linejoin="round" stroke-width="2.509698940192676"/>
  <path d="M 68.04311581466817, 106.21520601523456 Q 69.12519910703655, 108.98484399266995, 69.53339276137874, 121.24522633860487 " fill="none" id="curve_5" stroke="#000000" stroke-linecap="round" stroke-linejoin="round" stroke-width="3.043342403392938"/>
  <path d="M 66.97477622176883, 94.06304986863117 Q 67.78478447420282, 100.945000687138, 68.78206121455948, 108.27758991852684 " fill="none" id="curve_6" stroke="#000000" stroke-linecap="round" stroke-linejoin="round" stroke-width="2.808665208750057"/>
  <path d="M 1.3143070977875193, 133.06328396470548 Q 1.0016591926097302, 129.74085625786742, 0.7154914681080278, 121.59652451756634 " fill="none" id="curve_11" stroke="#000000" stroke-linecap="round" stroke-linejoin="round" stroke-width="1.5683043003171586"/>
  <path d="M 6.124722187963905, 110.20859343740689 Q 6.38817227567076, 109.85451589210884, 6.699130155866009, 109.28778385117735 " fill="none" id="curve_12" stroke="#000000" stroke-linecap="round" stroke-linejoin="round" stroke-width="3.1875410973404597"/>
  <path d="M 1.3441063663917685, 134.15403822472481 Q 1.5649657064021723, 137.51043076524059, 2.827286362329774, 138.45770954800997 " fill="none" id="curve_13" stroke="#000000" stroke-linecap="round" stroke-linejoin="round" stroke-width="3.2402697722178817"/>
  <path d="M 2.827286362329774, 138.45770954800997 Q 3.312575800863526, 138.392680241815, 4.193930278940597, 138.31749538018693 " fill="none" id="curve_13" stroke="#000000" stroke-linecap="round" stroke-linejoin="round" stroke-width="2.4914950619652787"/>
  <path d="M 21.626549496215986, 100.95330042600801 Q 29.389758076897277, 97.11615527620478, 36.67836812130709, 89.11139596040182 " fill="none" id="curve_14" stroke="#000000" stroke-linecap="round" stroke-linejoin="round" stroke-width="3.2954326796779636"/>
  <path d="M 68.4708633616736, 86.0986841378515 Q 68.01339946381948, 91.75302874965332, 66.8667872944233, 96.45350522655494 " fill="none" id="curve_29" stroke="#000000" stroke-linecap="round" stroke-linejoin="round" stroke-width="2.4584814701685405"/>
  <path d="M 66.8667872944233, 96.45350522655494 Q 67.82428834732993, 101.63968400054004, 68.90052959524917, 109.02160435414577 " fill="none" id="curve_29" stroke="#000000" stroke-linecap="round" stroke-linejoin="round" stroke-width="2.8369139017560965"/>
  <path d="M 70.58238372479182, 134.8616068559898 Q 68.6480237746046, 127.75654761661845, 66.2649791416014, 115.75876114289952 " fill="none" id="curve_30" stroke="#000000" stroke-linecap="round" stroke-linejoin="round" stroke-width="2.766341660224117"/>
  <path d="M 42.873809772150835, 77.24230156922266 Q 43.782682169301474, 75.45555188498058, 47.018885330365144, 73.46463497603062 " fill="none" id="curve_31" stroke="#000000" stroke-linecap="round" stroke-linejoin="round" stroke-width="2.1783837164522124"/>
  <path d="M 32.41559514716597, 89.30537118196813 Q 32.87001947964026, 89.48585259402137, 34.0605427491523, 89.79006877081868 " fill="none" id="curve_42" stroke="#000000" stroke-linecap="round" stroke-linejoin="round" stroke-width="2.646243169961148"/>
  <path d="M 64.6086634239087, 61.819617164024294 Q 64.34991451174541, 58.335904727262715, 63.741985279799124, 54.18780314679714 " fill="none" id="curve_57" stroke="#000000" stroke-linecap="round" stroke-linejoin="round" stroke-width="2.694688291941937"/>
  <path d="M 27.33507720805065, 95.86173782692956 Q 26.52477404268365, 97.24060109807522, 24.715885335752407, 98.89384056085366 " fill="none" id="curve_65" stroke="#000000" stroke-linecap="round" stroke-linejoin="round" stroke-width="3.383627093229601"/>
  <path d="M 66.78030538418909, 108.7209176743474 Q 67.21517227023286, 106.73050301356922, 67.92111517946138, 104.57015520276678 " fill="none" id="curve_68" stroke="#000000" stroke-linecap="round" stroke-linejoin="round" stroke-width="4.2789402351201185"/>
  <path d="M 70.4537451123202, 114.95678317162118 Q 69.08903301035227, 123.33981006772768, 66.73838025075506, 133.60922159480234 " fill="none" id="curve_73" stroke="#000000" stroke-linecap="round" stroke-linejoin="round" stroke-width="2.275750434592925"/>
  <path d="M 19.83814231645781, 103.77244190713583 Q 17.778954388365115, 104.21159087642977, 15.888317761774516, 105.51170960567866 " fill="none" id="curve_84" stroke="#000000" stroke-linecap="round" stroke-linejoin="round" stroke-width="3.1366967301135698"/>
</svg>
