<?xml version="1.0" ?>
<svg height="140" width="140" xmlns="http://www.w3.org/2000/svg">
  <path d="M 66.88684320449829, 57.8908052444458 Q 64.58545367373561, 64.79963221797568, 58.35580834479657, 75.53430177822565 " fill="none" id="curve_1" stroke="#000000" stroke-linecap="round" stroke-linejoin="round" stroke-width="6.086564814886487"/>
  <path d="M 58.35580834479657, 75.53430177822565 Q 53.267462791644334, 83.4468639861766, 35.25188094194097, 104.21764666612248 " fill="none" id="curve_1" stroke="#000000" stroke-linecap="round" stroke-linejoin="round" stroke-width="4.610081571199832"/>
  <path d="M 35.25188094194097, 104.21764666612248 Q 29.062096742447434, 113.95029970182074, 13.951512743148978, 131.04583142010318 " fill="none" id="curve_1" stroke="#000000" stroke-linecap="round" stroke-linejoin="round" stroke-width="4.426608844312478"/>
  <path d="M 5.723411590038033, 137.9730633630035 Q 2.7734031274514734, 137.75121345124492, 2.609321245195267, 125.78900111026067 " fill="none" id="curve_2" stroke="#000000" stroke-linecap="round" stroke-linejoin="round" stroke-width="3.8850038433804674"/>
  <path d="M 2.609321245195267, 125.78900111026067 Q 2.6112521906623294, 120.91853167561797, 2.614059919031276, 95.91950588290426 " fill="none" id="curve_2" stroke="#000000" stroke-linecap="round" stroke-linejoin="round" stroke-width="3.842883022320058"/>
  <path d="M 2.614059919031276, 95.91950588290426 Q 2.5765848955194546, 82.55901064992561, 2.335520497283876, 68.75186388735429 " fill="none" id="curve_2" stroke="#000000" stroke-linecap="round" stroke-linejoin="round" stroke-width="3.9526741183965335"/>
  <path d="M 2.335520497283876, 68.75186388735429 Q 2.2464394497562603, 62.252816722891005, 2.144935041891354, 47.79355265681605 " fill="none" id="curve_2" stroke="#000000" stroke-linecap="round" stroke-linejoin="round" stroke-width="3.0937267136912676"/>
  <path d="M 2.144935041891354, 47.79355265681605 Q 2.23334924430709, 43.15165127750613, 2.3049087457926016, 22.401787308751015 " fill="none" id="curve_2" stroke="#000000" stroke-linecap="round" stroke-linejoin="round" stroke-width="2.665509630750003"/>
  <path d="M 2.3049087457926016, 22.401787308751015 Q 2.136907823453278, 14.26001401975523, 1.8753291427148344, 1.8716043630913184 " fill="none" id="curve_2" stroke="#000000" stroke-linecap="round" stroke-linejoin="round" stroke-width="2.7532567335895526"/>
  <path d="M 1.8753291427148344, 1.8716043630913184 Q 2.103482151641255, 1.759484431970009, 2.381325558467235, 1.572904238267358 " fill="none" id="curve_2" stroke="#000000" stroke-linecap="round" stroke-linejoin="round" stroke-width="2.0263058443693516"/>
  <path d="M 66.42885834460856, 55.175416252635195 Q 64.44031902432562, 58.743365291280455, 63.33977432936597, 73.08019282324297 " fill="none" id="curve_4" stroke="#000000" stroke-linecap="round" stroke-linejoin="round" stroke-width="3.494448490105333"/>
  <path d="M 63.33977432936597, 73.08019282324297 Q 62.87779901406874, 74.53908194767051, 62.74840513921417, 103.35452092481145 " fill="none" id="curve_4" stroke="#000000" stroke-linecap="round" stroke-linejoin="round" stroke-width="5.154983334988867"/>
  <path d="M 62.74840513921417, 103.35452092481145 Q 64.38283043182533, 105.68772297527195, 65.04970170806239, 131.24564745216455 " fill="none" id="curve_4" stroke="#000000" stroke-linecap="round" stroke-linejoin="round" stroke-width="6.012280599016742"/>
  <path d="M 65.04970170806239, 131.24564745216455 Q 66.3963660401149, 133.18502212489526, 67.41248075484717, 137.06618229326145 " fill="none" id="curve_4" stroke="#000000" stroke-linecap="round" stroke-linejoin="round" stroke-width="8.353126350158353"/>
  <path d="M 67.41248075484717, 137.06618229326145 Q 67.87687644359326, 132.54493843839046, 69.78721771649093, 131.19175624084295 " fill="none" id="curve_4" stroke="#000000" stroke-linecap="round" stroke-linejoin="round" stroke-width="3.131709291375437"/>
  <path d="M 65.37340074849976, 104.25734902376851 Q 63.407220863700644, 98.21903256709038, 60.46065715412764, 82.53774763468938 " fill="none" id="curve_5" stroke="#000000" stroke-linecap="round" stroke-linejoin="round" stroke-width="1.9967771021687086"/>
  <path d="M 68.07748908332226, 59.71945191749072 Q 65.40189465386584, 65.79609113323359, 58.291060733809665, 70.77392691377844 " fill="none" id="curve_6" stroke="#000000" stroke-linecap="round" stroke-linejoin="round" stroke-width="3.514174210590845"/>
  <path d="M 6.3886157489280855, 137.5269089925832 Q 5.038792689683267, 136.91060765684023, 3.454696663185234, 135.9858723098566 " fill="none" id="curve_10" stroke="#000000" stroke-linecap="round" stroke-linejoin="round" stroke-width="4.698356442431913"/>
  <path d="M 51.07007786061371, 87.75523667764556 Q 40.74699280496427, 92.97654336891104, 24.597265882745642, 118.23689246361812 " fill="none" id="curve_17" stroke="#000000" stroke-linecap="round" stroke-linejoin="round" stroke-width="2.6372718671386415"/>
  <path d="M 24.597265882745642, 118.23689246361812 Q 18.78932907288198, 124.86793003435827, 9.088093876219, 134.9297636739709 " fill="none" id="curve_17" stroke="#000000" stroke-linecap="round" stroke-linejoin="round" stroke-width="2.515378278351579"/>
  <path d="M 4.07786785139397, 137.35053746319892 Q 3.317161568051521, 136.52278075514317, 2.6194385892042797, 134.80754600584788 " fill="none" id="curve_18" stroke="#000000" stroke-linecap="round" stroke-linejoin="round" stroke-width="4.5943229176561236"/>
  <path d="M 41.41835842753135, 94.14171604538943 Q 47.38923771389815, 88.63326051935691, 55.494456186563035, 78.78963905843574 " fill="none" id="curve_23" stroke="#000000" stroke-linecap="round" stroke-linejoin="round" stroke-width="2.3452363797470723"/>
  <path d="M 55.494456186563035, 78.78963905843574 Q 59.03576864711361, 79.21477997805728, 62.68302903245885, 80.01346207794603 " fill="none" id="curve_23" stroke="#000000" stroke-linecap="round" stroke-linejoin="round" stroke-width="3.796837213256543"/>
  <path d="M 67.2226449290764, 57.2192623166479 Q 66.64534194558355, 58.03692820655614, 64.31701256674485, 58.99762880383653 " fill="none" id="curve_24" stroke="#000000" stroke-linecap="round" stroke-linejoin="round" stroke-width="2.5808947950121217"/>
  <path d="M 61.09055516199707, 71.10031506926046 Q 61.25989627784467, 65.29612626700836, 63.52564725944731, 64.11147251070034 " fill="none" id="curve_25" stroke="#000000" stroke-linecap="round" stroke-linejoin="round" stroke-width="3.2189064603163025"/>
  <path d="M 3.4104683600901438, 66.01754681718438 Q 3.2311869129702355, 58.31656248043716, 2.5433889695180096, 53.19113343860971 " fill="none" id="curve_29" stroke="#000000" stroke-linecap="round" stroke-linejoin="round" stroke-width="1.3701867230501226"/>
  <path d="M 1.7032311709134866, 36.570930536592115 Q 1.8898783930005763, 33.87993002455694, 2.2192567130947314, 31.497910750883772 " fill="none" id="curve_30" stroke="#000000" stroke-linecap="round" stroke-linejoin="round" stroke-width="2.170920605309986"/>
  <path d="M 2.2192567130947314, 31.497910750883772 Q 2.055623007355941, 24.02914673727727, 1.8120783560314648, 9.773060866594133 " fill="none" id="curve_30" stroke="#000000" stroke-linecap="round" stroke-linejoin="round" stroke-width="1.72292546786405"/>
  <path d="M 4.216783127167163, 34.101411136766984 Q 3.2525187360453516, 34.171379048752605, 2.1412801434961892, 34.29500564275128 " fill="none" id="curve_31" stroke="#000000" stroke-linecap="round" stroke-linejoin="round" stroke-width="2.483767729572588"/>
  <path d="M 56.7197061380202, 75.58151221841635 Q 56.8043159767867, 75.41728126570015, 56.98032633311128, 75.15331766640202 " fill="none" id="curve_37" stroke="#000000" stroke-linecap="round" stroke-linejoin="round" stroke-width="3.103081455479932"/>
  <path d="M 4.841315041479598, 138.2131595348411 Q 5.466102207547861, 137.8831947912093, 6.330296005560337, 137.27992792572869 " fill="none" id="curve_46" stroke="#000000" stroke-linecap="round" stroke-linejoin="round" stroke-width="3.0850605970367444"/>
  <path d="M 8.71517110731125, 139.1102576594012 Q 7.222914054964725, 138.68963989434926, 5.112947221128289, 137.93917504652273 " fill="none" id="curve_50" stroke="#000000" stroke-linecap="round" stroke-linejoin="round" stroke-width="2.6900356057641828"/>
  <path d="M 4.248582667077526, 131.97816459228756 Q 4.618694083012656, 133.63444600764933, 5.1584332636197106, 135.37366027995367 " fill="none" id="curve_54" stroke="#000000" stroke-linecap="round" stroke-linejoin="round" stroke-width="2.9195360764157603"/>
  <path d="M 20.8507957165473, 123.57768422399563 Q 23.9403364119761, 119.65580350707533, 27.45944100492285, 110.74329057871054 " fill="none" id="curve_56" stroke="#000000" stroke-linecap="round" stroke-linejoin="round" stroke-width="2.3661289099442637"/>
  <path d="M 61.04245869499229, 117.83220671941065 Q 63.74991282210705, 117.7846536942198, 64.29483522213289, 117.10877958980164 " fill="none" id="curve_57" stroke="#000000" stroke-linecap="round" stroke-linejoin="round" stroke-width="3.826151602908348"/>
  <path d="M 62.59139835674196, 95.6100088519335 Q 63.64280210546481, 92.09327512553347, 64.59877046066059, 86.51117430922649 " fill="none" id="curve_58" stroke="#000000" stroke-linecap="round" stroke-linejoin="round" stroke-width="2.660627033509109"/>
  <path d="M 39.01018793872437, 96.145586419096 Q 39.04855834917286, 96.25799572184144, 39.10700434024683, 96.4891878396529 " fill="none" id="curve_62" stroke="#000000" stroke-linecap="round" stroke-linejoin="round" stroke-width="1.906726497535467"/>
  <path d="M 1.2433478974795875, 93.12634457014613 Q 1.5315708497666058, 84.81950127535485, 2.3865082847688344, 77.01396296894836 " fill="none" id="curve_71" stroke="#000000" stroke-linecap="round" stroke-linejoin="round" stroke-width="2.251199311401897"/>
  <path d="M 24.05464624209, 120.03961832132194 Q 23.15824075884757, 123.89738391054507, 16.20228465477127, 124.71942585869212 " fill="none" id="curve_73" stroke="#000000" stroke-linecap="round" stroke-linejoin="round" stroke-width="3.5493285931701712"/>
  <path d="M 28.75810173660257, 108.5536202860028 Q 30.908872118881494, 107.62332861113067, 33.51223672966498, 105.66005583162905 " fill="none" id="curve_75" stroke="#000000" stroke-linecap="round" stroke-linejoin="round" stroke-width="2.390708538906245"/>
  <path d="M 22.29906209870387, 117.68086791509177 Q 23.216491460240608, 117.32262923113461, 24.24711608224162, 116.61808143560015 " fill="none" id="curve_168" stroke="#000000" stroke-linecap="round" stroke-linejoin="round" stroke-width="1.894744565485436"/>
</svg>
