<?xml version="1.0" ?>
<svg height="140" width="140" xmlns="http://www.w3.org/2000/svg">
  <path d="M 63.73544979095459, 44.915435791015625 Q 60.3982202404877, 46.659795814608515, 57.89687811183785, 54.18916978222387 " fill="none" id="curve_1" stroke="#000000" stroke-linecap="round" stroke-linejoin="round" stroke-width="8.395046675993772"/>
  <path d="M 57.89687811183785, 54.18916978222387 Q 52.09141836666231, 59.000888576177445, 37.61103098048625, 74.1884403246117 " fill="none" id="curve_1" stroke="#000000" stroke-linecap="round" stroke-linejoin="round" stroke-width="4.074107090679363"/>
  <path d="M 37.61103098048625, 74.1884403246117 Q 31.262661031255337, 79.80053639257615, 15.161248830108622, 99.25294426662035 " fill="none" id="curve_1" stroke="#000000" stroke-linecap="round" stroke-linejoin="round" stroke-width="4.8746341916533025"/>
  <path d="M 15.161248830108622, 99.25294426662035 Q 8.799598873611341, 105.02481841267672, 2.401550362732321, 114.4773483572567 " fill="none" id="curve_1" stroke="#000000" stroke-linecap="round" stroke-linejoin="round" stroke-width="4.7442129380145275"/>
  <path d="M 55.29492123598491, 71.93402835788542 Q 52.063807706325676, 80.6662003296761, 45.009693553133204, 106.5038719999745 " fill="none" id="curve_3" stroke="#000000" stroke-linecap="round" stroke-linejoin="round" stroke-width="4.995770100113481"/>
  <path d="M 45.009693553133204, 106.5038719999745 Q 45.24700518525625, 110.81156762619057, 45.6206911723928, 115.67492795716248 " fill="none" id="curve_3" stroke="#000000" stroke-linecap="round" stroke-linejoin="round" stroke-width="4.415228237291686"/>
  <path d="M 56.67332042461635, 70.87294926975773 Q 60.4356775874045, 61.73176232268226, 66.04497625415527, 43.48680740335255 " fill="none" id="curve_5" stroke="#000000" stroke-linecap="round" stroke-linejoin="round" stroke-width="4.279998053361018"/>
  <path d="M 35.79773206322809, 73.86423686868326 Q 30.587934540145493, 79.49640003728366, 23.630269468374163, 87.53677097467697 " fill="none" id="curve_6" stroke="#000000" stroke-linecap="round" stroke-linejoin="round" stroke-width="3.3148494481338613"/>
  <path d="M 56.06961352104126, 68.83558051288098 Q 57.59414764008694, 64.25365294980054, 60.36914183917889, 59.18879429263875 " fill="none" id="curve_7" stroke="#000000" stroke-linecap="round" stroke-linejoin="round" stroke-width="2.8969752630690784"/>
  <path d="M 57.39736741403956, 72.45796583489033 Q 52.82870805021945, 81.28712682725157, 44.93866452946787, 92.29172013319905 " fill="none" id="curve_9" stroke="#000000" stroke-linecap="round" stroke-linejoin="round" stroke-width="3.0279354776594283"/>
  <path d="M 47.83857862089053, 108.83512223875472 Q 45.96046655562545, 107.16734924747476, 45.118419422006454, 99.09305266217768 " fill="none" id="curve_10" stroke="#000000" stroke-linecap="round" stroke-linejoin="round" stroke-width="3.354331486537792"/>
  <path d="M 12.346288502505175, 99.28958292975716 Q 9.555181945704966, 104.71598901089075, 4.021501511969358, 109.41881712626274 " fill="none" id="curve_11" stroke="#000000" stroke-linecap="round" stroke-linejoin="round" stroke-width="3.006641341573023"/>
  <path d="M 62.95989106666339, 44.93618874559577 Q 63.45923259752863, 44.50609296624467, 64.01125646335682, 43.86427452374279 " fill="none" id="curve_14" stroke="#000000" stroke-linecap="round" stroke-linejoin="round" stroke-width="4.849865846664372"/>
  <path d="M 34.40595179555209, 76.47416689354576 Q 37.899979349305525, 71.75663105539549, 45.882395248527786, 67.1028242190308 " fill="none" id="curve_21" stroke="#000000" stroke-linecap="round" stroke-linejoin="round" stroke-width="2.5952142700806267"/>
  <path d="M 52.42034174319711, 79.15079798976119 Q 52.14305179730948, 80.64069509287987, 51.621518557657204, 82.41968090343312 " fill="none" id="curve_22" stroke="#000000" stroke-linecap="round" stroke-linejoin="round" stroke-width="4.58037428486932"/>
  <path d="M 51.621518557657204, 82.41968090343312 Q 53.09933973076529, 80.66837880560084, 54.73402126601372, 76.6900042980472 " fill="none" id="curve_22" stroke="#000000" stroke-linecap="round" stroke-linejoin="round" stroke-width="3.5593881363268514"/>
  <path d="M 30.734854172926386, 82.11416972604637 Q 32.66092219235215, 81.38301101942861, 33.511111570417796, 78.26687447515417 " fill="none" id="curve_33" stroke="#000000" stroke-linecap="round" stroke-linejoin="round" stroke-width="3.7099106276672282"/>
</svg>
