<?xml version="1.0" ?>
<svg height="140" width="140" xmlns="http://www.w3.org/2000/svg">
  <path d="M 61.336402893066406, 99.61151695251465 Q 60.8126973974717, 95.39509379172651, 60.05342676853678, 84.11048346778728 " fill="none" id="curve_1" stroke="#000000" stroke-linecap="round" stroke-linejoin="round" stroke-width="5.537648573912444"/>
  <path d="M 60.05342676853678, 84.11048346778728 Q 60.098133563148465, 67.77225786884082, 60.46820003631562, 59.07439756212176 " fill="none" id="curve_1" stroke="#000000" stroke-linecap="round" stroke-linejoin="round" stroke-width="4.840063766343753"/>
  <path d="M 60.46820003631562, 59.07439756212176 Q 61.587223800285855, 53.13133382950664, 62.502900449871206, 36.00734972758259 " fill="none" id="curve_1" stroke="#000000" stroke-linecap="round" stroke-linejoin="round" stroke-width="5.325246993750778"/>
  <path d="M 62.502900449871206, 36.00734972758259 Q 56.47042806890572, 44.50606352969875, 34.01327267439762, 67.55822374377416 " fill="none" id="curve_1" stroke="#000000" stroke-linecap="round" stroke-linejoin="round" stroke-width="4.629031320541223"/>
  <path d="M 34.01327267439762, 67.55822374377416 Q 30.003874628893463, 71.64065004654348, 27.22580529901429, 78.26109368294598 " fill="none" id="curve_1" stroke="#000000" stroke-linecap="round" stroke-linejoin="round" stroke-width="4.534663906901396"/>
  <path d="M 63.011604723469866, 100.64949208443709 Q 62.295510276095136, 99.06367378945214, 61.5575953084085, 94.5922290930212 " fill="none" id="curve_2" stroke="#000000" stroke-linecap="round" stroke-linejoin="round" stroke-width="2.9325519811654575"/>
  <path d="M 62.58504612701797, 36.37570280100101 Q 56.8648318998855, 38.444195070024975, 54.07670748787539, 46.100243802359834 " fill="none" id="curve_6" stroke="#000000" stroke-linecap="round" stroke-linejoin="round" stroke-width="2.7694843271380543"/>
  <path d="M 58.87830929355066, 57.50462203026141 Q 59.97978100023346, 54.110819455403345, 60.61411711142789, 41.69425711862256 " fill="none" id="curve_7" stroke="#000000" stroke-linecap="round" stroke-linejoin="round" stroke-width="3.2036013053325747"/>
  <path d="M 62.475983239286535, 90.92825203268792 Q 61.38821787392885, 89.7510464943976, 60.56967494979735, 84.44539280942939 " fill="none" id="curve_9" stroke="#000000" stroke-linecap="round" stroke-linejoin="round" stroke-width="3.235228834396185"/>
  <path d="M 60.56967494979735, 84.44539280942939 Q 59.036395103011394, 83.47485977383052, 58.80007532509705, 65.92822367237446 " fill="none" id="curve_9" stroke="#000000" stroke-linecap="round" stroke-linejoin="round" stroke-width="3.13355055532561"/>
  <path d="M 61.98847198486328, 35.39958572387695 Q 62.6505952536679, 35.131405672963865, 63.38964746974136, 34.568684290988955 " fill="none" id="curve_23" stroke="#000000" stroke-linecap="round" stroke-linejoin="round" stroke-width="3.554668936573765"/>
  <path d="M 48.21892911865899, 50.50990844425562 Q 51.73489109483433, 46.277718846234045, 58.51541243189362, 42.23341318739157 " fill="none" id="curve_24" stroke="#000000" stroke-linecap="round" stroke-linejoin="round" stroke-width="2.6603597740108462"/>
  <path d="M 26.81746483043103, 79.48771013768378 Q 27.310807483766656, 77.83523484562298, 28.988355340465603, 75.05511705431879 " fill="none" id="curve_32" stroke="#000000" stroke-linecap="round" stroke-linejoin="round" stroke-width="2.034599707813442"/>
  <path d="M 59.010333372959394, 86.57355013189553 Q 58.90722716005168, 84.72500385011807, 58.69672276181375, 83.16716055740648 " fill="none" id="curve_47" stroke="#000000" stroke-linecap="round" stroke-linejoin="round" stroke-width="3.52109040134465"/>
  <path d="M 62.66482900333659, 102.64982707072551 Q 62.564032208890204, 101.54550522484556, 62.270614765768634, 100.71540718675799 " fill="none" id="curve_62" stroke="#000000" stroke-linecap="round" stroke-linejoin="round" stroke-width="1.9074665010104888"/>
  <path d="M 59.24694021068206, 93.57134513700538 Q 59.7045127328765, 93.33571346086119, 60.21064532685779, 92.87952271159473 " fill="none" id="curve_63" stroke="#000000" stroke-linecap="round" stroke-linejoin="round" stroke-width="2.9921453932732023"/>
  <path d="M 57.226273696562856, 86.31220570074595 Q 58.625627997894455, 87.10969332800785, 60.64928131217816, 88.25313918989514 " fill="none" id="curve_91" stroke="#000000" stroke-linecap="round" stroke-linejoin="round" stroke-width="2.132089292775445"/>
  <path d="M 61.87689157604024, 94.11811303480545 Q 62.117879215999714, 93.03932537387887, 62.589531753170036, 92.2244337651489 " fill="none" id="curve_119" stroke="#000000" stroke-linecap="round" stroke-linejoin="round" stroke-width="2.841424268816643"/>
  <path d="M 61.73622529147087, 49.68701345761334 Q 59.61655508586536, 46.745263919317686, 56.930050613035455, 42.196719447188045 " fill="none" id="curve_148" stroke="#000000" stroke-linecap="round" stroke-linejoin="round" stroke-width="2.7547371716074105"/>
</svg>
