<?xml version="1.0" ?>
<svg height="140" width="140" xmlns="http://www.w3.org/2000/svg">
  <path d="M 45.11540222167969, 90.93360900878906 Q 41.242744535951324, 91.43901855114433, 40.76088617678414, 99.85336412114464 " fill="none" id="curve_1" stroke="#000000" stroke-linecap="round" stroke-linejoin="round" stroke-width="4.267797617226225"/>
  <path d="M 40.76088617678414, 99.85336412114464 Q 43.889317212166006, 99.58036024317235, 45.728247642881485, 98.83011766797759 " fill="none" id="curve_1" stroke="#000000" stroke-linecap="round" stroke-linejoin="round" stroke-width="3.7210169778682722"/>
  <path d="M 41.44401199446793, 92.60280204447946 Q 43.03213159197663, 86.76663810907228, 45.41509468529581, 76.01199305872817 " fill="none" id="curve_2" stroke="#000000" stroke-linecap="round" stroke-linejoin="round" stroke-width="5.038825277489052"/>
  <path d="M 45.41509468529581, 76.01199305872817 Q 44.156133560870266, 73.66863868153064, 43.693393510877165, 60.182052820870794 " fill="none" id="curve_2" stroke="#000000" stroke-linecap="round" stroke-linejoin="round" stroke-width="4.389656483409918"/>
  <path d="M 43.693393510877165, 60.182052820870794 Q 46.777023135712575, 53.1114578662624, 50.687763817416055, 41.44857313039232 " fill="none" id="curve_2" stroke="#000000" stroke-linecap="round" stroke-linejoin="round" stroke-width="5.80880361700903"/>
  <path d="M 50.687763817416055, 41.44857313039232 Q 44.15024829393591, 48.41402503363451, 29.63664655714949, 65.88878877784717 " fill="none" id="curve_2" stroke="#000000" stroke-linecap="round" stroke-linejoin="round" stroke-width="4.9180130424686235"/>
  <path d="M 29.63664655714949, 65.88878877784717 Q 26.441224533232216, 77.94958868191493, 17.61361307148246, 85.58877018481854 " fill="none" id="curve_2" stroke="#000000" stroke-linecap="round" stroke-linejoin="round" stroke-width="3.909430398789062"/>
  <path d="M 17.61361307148246, 85.58877018481854 Q 17.455439096553754, 90.1333343603012, 16.93366310127953, 92.01853281976548 " fill="none" id="curve_2" stroke="#000000" stroke-linecap="round" stroke-linejoin="round" stroke-width="4.073079667724322"/>
  <path d="M 32.8502982501138, 60.6266220792165 Q 33.831201767777024, 53.71855170243566, 46.53748796294617, 52.349160306156946 " fill="none" id="curve_3" stroke="#000000" stroke-linecap="round" stroke-linejoin="round" stroke-width="2.736312524399194"/>
  <path d="M 49.48368033065525, 43.357594005508574 Q 49.18386066564287, 41.46380131734639, 47.22214670219458, 40.57202782393857 " fill="none" id="curve_4" stroke="#000000" stroke-linecap="round" stroke-linejoin="round" stroke-width="2.4931575363658935"/>
  <path d="M 19.819917645719798, 83.04657795554371 Q 22.03397022808526, 78.76747865163335, 26.06729094491079, 74.00816723163442 " fill="none" id="curve_13" stroke="#000000" stroke-linecap="round" stroke-linejoin="round" stroke-width="2.7921901461003076"/>
  <path d="M 26.06729094491079, 74.00816723163442 Q 28.245759301563456, 65.25520198260661, 34.963014544748376, 56.9017351459199 " fill="none" id="curve_13" stroke="#000000" stroke-linecap="round" stroke-linejoin="round" stroke-width="2.2715994980936114"/>
  <path d="M 46.814353300186895, 73.3840010269827 Q 46.5746236321004, 73.08310819406206, 46.322815058722675, 72.60929773605149 " fill="none" id="curve_14" stroke="#000000" stroke-linecap="round" stroke-linejoin="round" stroke-width="4.956667726954682"/>
  <path d="M 48.25089942318573, 52.36522663865867 Q 49.21482137541037, 50.797806945242854, 50.134590720009676, 47.69552216341725 " fill="none" id="curve_29" stroke="#000000" stroke-linecap="round" stroke-linejoin="round" stroke-width="2.993630584062597"/>
  <path d="M 15.53451788529108, 89.71992552856787 Q 15.98083523952001, 89.36776632230976, 17.250923267158175, 88.83602994831712 " fill="none" id="curve_33" stroke="#000000" stroke-linecap="round" stroke-linejoin="round" stroke-width="2.1909131321087902"/>
  <path d="M 43.896948042507574, 55.54657412058259 Q 43.466346062695884, 54.81592819160103, 42.441453276029584, 54.04099112436592 " fill="none" id="curve_61" stroke="#000000" stroke-linecap="round" stroke-linejoin="round" stroke-width="3.5617782306598005"/>
  <path d="M 30.822799270984444, 65.55179113651779 Q 31.346295812282097, 64.69777777150628, 31.966502882146127, 63.19168799349731 " fill="none" id="curve_80" stroke="#000000" stroke-linecap="round" stroke-linejoin="round" stroke-width="3.958273934464779"/>
  <path d="M 23.13335475944956, 79.03703782410736 Q 21.013406761804674, 79.60793315312519, 18.926332644145134, 81.0340044906086 " fill="none" id="curve_99" stroke="#000000" stroke-linecap="round" stroke-linejoin="round" stroke-width="3.3238091231502187"/>
  <path d="M 44.712075129391366, 84.31569185422875 Q 44.953540487452265, 84.80175513493113, 45.35110948942854, 85.63390934037416 " fill="none" id="curve_118" stroke="#000000" stroke-linecap="round" stroke-linejoin="round" stroke-width="3.5809547691735624"/>
  <path d="M 32.45790080259684, 64.32006833371145 Q 31.734629363053884, 64.13276872301354, 30.96378340503299, 63.688599820888804 " fill="none" id="curve_133" stroke="#000000" stroke-linecap="round" stroke-linejoin="round" stroke-width="3.339397431670495"/>
</svg>
