<?xml version="1.0" ?>
<svg height="140" width="140" xmlns="http://www.w3.org/2000/svg">
  <path d="M 63.979103088378906, 44.41884994506836 Q 64.10261841076967, 44.3253684549598, 64.19629113134391, 43.955084137065526 " fill="none" id="curve_1" stroke="#000000" stroke-linecap="round" stroke-linejoin="round" stroke-width="7.859983070850185"/>
  <path d="M 64.19629113134391, 43.955084137065526 Q 61.12810024243862, 51.65167052008007, 57.320069480190746, 71.67529672622882 " fill="none" id="curve_1" stroke="#000000" stroke-linecap="round" stroke-linejoin="round" stroke-width="6.396201400310315"/>
  <path d="M 57.320069480190746, 71.67529672622882 Q 51.249749833401694, 80.21396442150741, 28.073272767248113, 109.45382200395672 " fill="none" id="curve_1" stroke="#000000" stroke-linecap="round" stroke-linejoin="round" stroke-width="3.8312131399415663"/>
  <path d="M 28.073272767248113, 109.45382200395672 Q 23.243540452999138, 114.82210287913017, 19.285569358887678, 122.96482334005142 " fill="none" id="curve_1" stroke="#000000" stroke-linecap="round" stroke-linejoin="round" stroke-width="4.984954365559749"/>
  <path d="M 4.272547157643027, 138.01614424510709 Q 1.7711185782857486, 137.45185093064433, 1.427953272237688, 123.05658992326225 " fill="none" id="curve_2" stroke="#000000" stroke-linecap="round" stroke-linejoin="round" stroke-width="2.5319511601845464"/>
  <path d="M 1.427953272237688, 123.05658992326225 Q 1.7374500004361646, 120.68107878203874, 1.8813249481834577, 106.83655962482536 " fill="none" id="curve_2" stroke="#000000" stroke-linecap="round" stroke-linejoin="round" stroke-width="2.0012962084646455"/>
  <path d="M 1.8813249481834577, 106.83655962482536 Q 1.7063852463358415, 103.08811182208194, 1.577146621106275, 82.88623669292612 " fill="none" id="curve_2" stroke="#000000" stroke-linecap="round" stroke-linejoin="round" stroke-width="1.8634130614235507"/>
  <path d="M 1.577146621106275, 82.88623669292612 Q 1.5274807045435828, 77.97888406991153, 1.4042314873430555, 74.32984671128229 " fill="none" id="curve_2" stroke="#000000" stroke-linecap="round" stroke-linejoin="round" stroke-width="1.917043312055901"/>
  <path d="M 1.4042314873430555, 74.32984671128229 Q 1.105870337304987, 72.60648621099104, 0.955853738434238, 64.52572478593127 " fill="none" id="curve_2" stroke="#000000" stroke-linecap="round" stroke-linejoin="round" stroke-width="1.6239385577952588"/>
  <path d="M 0.955853738434238, 64.52572478593127 Q 1.0507133209046542, 60.530010159828045, 1.2174484931214686, 55.52712445689927 " fill="none" id="curve_2" stroke="#000000" stroke-linecap="round" stroke-linejoin="round" stroke-width="1.6098857206093073"/>
  <path d="M 1.0625240686774806, 51.151665175159735 Q 1.0467229213170608, 47.32440461932242, 1.0310072629195552, 34.73322869497508 " fill="none" id="curve_3" stroke="#000000" stroke-linecap="round" stroke-linejoin="round" stroke-width="1.5473383110762915"/>
  <path d="M 1.2216607569552247, 27.369718698576392 Q 1.016175555842826, 23.205021768060256, 0.7640868156239343, 11.602487487671073 " fill="none" id="curve_4" stroke="#000000" stroke-linecap="round" stroke-linejoin="round" stroke-width="1.3056174399460916"/>
  <path d="M 0.9815538111062722, 10.298003777236426 Q 0.8866868083542746, 5.9131855609636235, 0.6394190587265367, 1.4120597423879975 " fill="none" id="curve_6" stroke="#000000" stroke-linecap="round" stroke-linejoin="round" stroke-width="1.7632358723809411"/>
  <path d="M 59.1605649159125, 73.33160092212087 Q 59.08842155585749, 81.28757042960063, 58.79640682035814, 103.81721114615831 " fill="none" id="curve_9" stroke="#000000" stroke-linecap="round" stroke-linejoin="round" stroke-width="5.292146577131494"/>
  <path d="M 58.79640682035814, 103.81721114615831 Q 60.13285193123935, 114.88726743202537, 63.75517593779531, 130.13099122669288 " fill="none" id="curve_9" stroke="#000000" stroke-linecap="round" stroke-linejoin="round" stroke-width="6.895290117170714"/>
  <path d="M 63.75517593779531, 130.13099122669288 Q 66.00764600553256, 130.01754324822528, 66.11184197626775, 123.97211308860481 " fill="none" id="curve_9" stroke="#000000" stroke-linecap="round" stroke-linejoin="round" stroke-width="4.46414161200148"/>
  <path d="M 66.11184197626775, 123.97211308860481 Q 66.13964179566157, 120.7926432349357, 66.30113987769344, 120.01004069201744 " fill="none" id="curve_9" stroke="#000000" stroke-linecap="round" stroke-linejoin="round" stroke-width="3.892651977723198"/>
  <path d="M 64.73281396538648, 132.8655441765995 Q 64.61766927091453, 132.6817875135578, 64.46399047410385, 132.46144981004622 " fill="none" id="curve_10" stroke="#000000" stroke-linecap="round" stroke-linejoin="round" stroke-width="4.723860800273787"/>
  <path d="M 20.382977064857293, 124.85736524938508 Q 20.22278690331985, 123.29410525150593, 19.760940454723396, 122.33426423120581 " fill="none" id="curve_12" stroke="#000000" stroke-linecap="round" stroke-linejoin="round" stroke-width="4.013906056717235"/>
  <path d="M 2.257366210885401, 138.37937219778348 Q 3.3842170609961757, 138.16996264139124, 4.736239073507182, 137.90408192184154 " fill="none" id="curve_13" stroke="#000000" stroke-linecap="round" stroke-linejoin="round" stroke-width="4.792545899765002"/>
  <path d="M 34.04282096055968, 99.62269699667618 Q 38.76844743292723, 94.24617187897971, 47.293361907982415, 82.9546832804071 " fill="none" id="curve_14" stroke="#000000" stroke-linecap="round" stroke-linejoin="round" stroke-width="2.430595848943815"/>
  <path d="M 60.16191907670579, 59.22387221322879 Q 60.91416899721463, 51.266983081623565, 65.3686308881393, 48.59309720076253 " fill="none" id="curve_15" stroke="#000000" stroke-linecap="round" stroke-linejoin="round" stroke-width="4.712914951371456"/>
  <path d="M 65.3686308881393, 48.59309720076253 Q 62.50388785894608, 52.474144718628935, 58.80814530754719, 55.97046088010413 " fill="none" id="curve_15" stroke="#000000" stroke-linecap="round" stroke-linejoin="round" stroke-width="7.689722541634122"/>
  <path d="M 60.35642722189543, 98.90595340786501 Q 59.71574848825601, 84.4520831200405, 58.09699818087004, 68.69947146097182 " fill="none" id="curve_35" stroke="#000000" stroke-linecap="round" stroke-linejoin="round" stroke-width="2.8364255910808738"/>
  <path d="M 58.94616150311618, 86.90215196761625 Q 58.88871792769251, 72.42791508904745, 57.94153475660422, 69.9684947956388 " fill="none" id="curve_40" stroke="#000000" stroke-linecap="round" stroke-linejoin="round" stroke-width="3.1788039929003795"/>
  <path d="M 22.583988351103955, 114.95740876475115 Q 30.30730913958616, 107.16724808314079, 42.143363089919276, 91.55518899260731 " fill="none" id="curve_63" stroke="#000000" stroke-linecap="round" stroke-linejoin="round" stroke-width="2.221081850338552"/>
  <path d="M 57.028950543360736, 68.20369243472874 Q 54.071249829662804, 71.65321431519861, 49.62314524242733, 79.54498158710925 " fill="none" id="curve_78" stroke="#000000" stroke-linecap="round" stroke-linejoin="round" stroke-width="2.3739638346959837"/>
  <path d="M 61.50000675845058, 60.917691620245805 Q 62.951085596496114, 58.67665890667798, 63.7750566420415, 51.82911490385896 " fill="none" id="curve_79" stroke="#000000" stroke-linecap="round" stroke-linejoin="round" stroke-width="2.2223490923884395"/>
  <path d="M 65.52353637127172, 41.6119552945284 Q 64.77959264793107, 41.9953637728387, 63.385459011396165, 42.508067189125086 " fill="none" id="curve_81" stroke="#000000" stroke-linecap="round" stroke-linejoin="round" stroke-width="2.8934267344622624"/>
  <path d="M 60.03346247915374, 70.68060838797089 Q 59.249698120338955, 69.15775825556032, 57.88089458828911, 65.38072486319315 " fill="none" id="curve_109" stroke="#000000" stroke-linecap="round" stroke-linejoin="round" stroke-width="1.550277772266255"/>
  <path d="M 59.1477001899704, 51.78819840451496 Q 58.918406165531415, 51.22330145090551, 58.54058642204555, 50.670282228728446 " fill="none" id="curve_110" stroke="#000000" stroke-linecap="round" stroke-linejoin="round" stroke-width="3.418828143387234"/>
  <path d="M 47.46502227966921, 81.92343739326896 Q 47.8007684265837, 81.86804244877557, 48.264136586539045, 81.74268712770798 " fill="none" id="curve_129" stroke="#000000" stroke-linecap="round" stroke-linejoin="round" stroke-width="2.8526524699905575"/>
  <path d="M 2.8200366039572202, 137.14902439205432 Q 2.8990170150712924, 137.97729679467648, 3.75885093617266, 138.17788125495238 " fill="none" id="curve_131" stroke="#000000" stroke-linecap="round" stroke-linejoin="round" stroke-width="3.424710234408053"/>
  <path d="M 4.847371763324446, 138.35103616441376 Q 5.455326369540714, 138.6881566223032, 7.5493683281895585, 138.84728724087364 " fill="none" id="curve_146" stroke="#000000" stroke-linecap="round" stroke-linejoin="round" stroke-width="1.885286440332252"/>
  <path d="M 1.3449032783988457, 138.63862872667477 Q 1.7870792748301985, 138.25575726764868, 2.136449183171973, 137.49543516507603 " fill="none" id="curve_147" stroke="#000000" stroke-linecap="round" stroke-linejoin="round" stroke-width="3.3023484486735835"/>
</svg>
