<?xml version="1.0" ?>
<svg height="140" width="140" xmlns="http://www.w3.org/2000/svg">
  <path d="M 84.32957410812378, 91.1167984008789 Q 81.84698725908204, 92.3590022784328, 80.90080484145773, 97.40197627587764 " fill="none" id="curve_1" stroke="#000000" stroke-linecap="round" stroke-linejoin="round" stroke-width="7.641749709256648"/>
  <path d="M 72.96714176951079, 103.005545681943 Q 72.44906463933161, 107.65269538286503, 70.77707959808924, 109.571274251257 " fill="none" id="curve_2" stroke="#000000" stroke-linecap="round" stroke-linejoin="round" stroke-width="3.26597054488541"/>
  <path d="M 77.29802965646853, 111.88967977281227 Q 77.56686914612266, 124.66470359760065, 81.20837510977866, 126.091337721218 " fill="none" id="curve_3" stroke="#000000" stroke-linecap="round" stroke-linejoin="round" stroke-width="3.3960260124624053"/>
  <path d="M 81.20837510977866, 126.091337721218 Q 83.67358784786045, 122.55456348911295, 88.11003647042494, 119.6146038902865 " fill="none" id="curve_3" stroke="#000000" stroke-linecap="round" stroke-linejoin="round" stroke-width="3.2837478975397625"/>
  <path d="M 88.46045121527727, 105.78032928830334 Q 87.92839872932984, 106.4308724101139, 84.06881615102486, 106.54540265044963 " fill="none" id="curve_4" stroke="#000000" stroke-linecap="round" stroke-linejoin="round" stroke-width="6.542598433238324"/>
  <path d="M 84.06881615102486, 106.54540265044963 Q 78.95307203149133, 105.73367175012076, 73.19892831768884, 102.93820346125538 " fill="none" id="curve_4" stroke="#000000" stroke-linecap="round" stroke-linejoin="round" stroke-width="1.736955370896833"/>
  <path d="M 63.29583171692789, 109.6862426415716 Q 62.61884905898616, 110.31177057773907, 58.06035053888071, 110.56972996848476 " fill="none" id="curve_5" stroke="#000000" stroke-linecap="round" stroke-linejoin="round" stroke-width="2.533786502917994"/>
  <path d="M 51.355020814603634, 115.01638410878536 Q 49.70358068467423, 114.3052661614414, 47.88810616953013, 113.20196639276682 " fill="none" id="curve_6" stroke="#000000" stroke-linecap="round" stroke-linejoin="round" stroke-width="3.2388005937444015"/>
  <path d="M 49.98068655126574, 102.42909512394527 Q 48.83176594437083, 98.88587197614841, 48.112412539329085, 84.29883907213238 " fill="none" id="curve_7" stroke="#000000" stroke-linecap="round" stroke-linejoin="round" stroke-width="7.052640320592431"/>
  <path d="M 48.112412539329085, 84.29883907213238 Q 50.770209516642495, 79.31690656512038, 53.30618095990937, 60.539912925209066 " fill="none" id="curve_7" stroke="#000000" stroke-linecap="round" stroke-linejoin="round" stroke-width="8.001842162944257"/>
  <path d="M 53.30618095990937, 60.539912925209066 Q 48.602935388906175, 62.01317191338577, 40.830837132123875, 70.69933966956886 " fill="none" id="curve_7" stroke="#000000" stroke-linecap="round" stroke-linejoin="round" stroke-width="7.291307670837781"/>
  <path d="M 40.830837132123875, 70.69933966956886 Q 34.60092494503535, 77.17075230327963, 26.068328663175237, 82.76571048809261 " fill="none" id="curve_7" stroke="#000000" stroke-linecap="round" stroke-linejoin="round" stroke-width="8.13288532243941"/>
  <path d="M 13.869591316714937, 87.59519615805715 Q 15.267785675393066, 87.7658276111654, 16.657048390265693, 88.3247010548723 " fill="none" id="curve_8" stroke="#000000" stroke-linecap="round" stroke-linejoin="round" stroke-width="2.533538585669182"/>
  <path d="M 53.04383463854724, 42.235778110753465 Q 51.83271363352222, 50.07768796450088, 49.542350164871024, 63.143340560125324 " fill="none" id="curve_10" stroke="#000000" stroke-linecap="round" stroke-linejoin="round" stroke-width="2.3793259043576986"/>
  <path d="M 72.69812517808754, 63.34081069417532 Q 75.18405004161903, 63.63553212686446, 77.38762466246716, 64.9529710828903 " fill="none" id="curve_11" stroke="#000000" stroke-linecap="round" stroke-linejoin="round" stroke-width="2.005717039661182"/>
  <path d="M 77.38762466246716, 64.9529710828903 Q 77.46513996108322, 66.34799021044407, 84.20553652834096, 66.4080182646591 " fill="none" id="curve_11" stroke="#000000" stroke-linecap="round" stroke-linejoin="round" stroke-width="2.370218185175887"/>
  <path d="M 84.20553652834096, 66.4080182646591 Q 85.168210751261, 63.891375382571965, 88.38902099870893, 62.46513000363572 " fill="none" id="curve_11" stroke="#000000" stroke-linecap="round" stroke-linejoin="round" stroke-width="1.6724686771922272"/>
  <path d="M 88.80411200406972, 54.799051569633015 Q 88.8955403323124, 53.080449163219214, 89.01759305661147, 46.087723393443575 " fill="none" id="curve_12" stroke="#000000" stroke-linecap="round" stroke-linejoin="round" stroke-width="3.676807497154923"/>
  <path d="M 89.01759305661147, 46.087723393443575 Q 87.38689861416827, 48.505724469154224, 83.83854354698317, 50.220106742480716 " fill="none" id="curve_12" stroke="#000000" stroke-linecap="round" stroke-linejoin="round" stroke-width="1.993376738467808"/>
  <path d="M 81.02826655524922, 56.23990209201761 Q 78.74813706091679, 56.32072344117779, 78.65662999154242, 60.21104917970993 " fill="none" id="curve_13" stroke="#000000" stroke-linecap="round" stroke-linejoin="round" stroke-width="2.202341106171379"/>
  <path d="M 82.80404271210409, 57.62303052712005 Q 82.87918125928049, 59.13959775460526, 84.7238333376763, 59.2885025577597 " fill="none" id="curve_14" stroke="#000000" stroke-linecap="round" stroke-linejoin="round" stroke-width="2.4602763624076385"/>
  <path d="M 88.93885938836729, 56.81708803964395 Q 88.32979374694123, 56.75828187554655, 88.01424307734365, 56.604524194042476 " fill="none" id="curve_15" stroke="#000000" stroke-linecap="round" stroke-linejoin="round" stroke-width="4.305592616221101"/>
  <path d="M 68.12243849282982, 41.4422010056347 Q 67.72691643574618, 40.96017066454802, 67.40538844354903, 40.11196107423221 " fill="none" id="curve_16" stroke="#000000" stroke-linecap="round" stroke-linejoin="round" stroke-width="6.108039920913479"/>
  <path d="M 66.06078991144827, 24.136625062528942 Q 67.46825086279587, 25.41067149986987, 68.93949760983476, 27.158998562595745 " fill="none" id="curve_17" stroke="#000000" stroke-linecap="round" stroke-linejoin="round" stroke-width="3.9506806041712688"/>
  <path d="M 80.98785769449916, 31.386448596127916 Q 86.46016759985227, 30.41110891607006, 89.13487809521459, 27.729685531022668 " fill="none" id="curve_18" stroke="#000000" stroke-linecap="round" stroke-linejoin="round" stroke-width="2.795844033824953"/>
  <path d="M 89.13487809521459, 27.729685531022668 Q 88.12819128583413, 26.38851676243098, 87.75278563582069, 20.37161649565634 " fill="none" id="curve_18" stroke="#000000" stroke-linecap="round" stroke-linejoin="round" stroke-width="3.9664742744803974"/>
  <path d="M 87.75278563582069, 20.37161649565634 Q 88.4548312531956, 15.310923975169969, 89.05402024126859, 3.3672161003523833 " fill="none" id="curve_18" stroke="#000000" stroke-linecap="round" stroke-linejoin="round" stroke-width="4.253303942713688"/>
  <path d="M 89.05402024126859, 3.3672161003523833 Q 83.78090075207948, 3.8036816041214365, 82.15718067541742, 13.7556004468376 " fill="none" id="curve_18" stroke="#000000" stroke-linecap="round" stroke-linejoin="round" stroke-width="2.810748685224229"/>
  <path d="M 74.5354795824346, 17.00871101520624 Q 71.50419468710807, 12.679004610479394, 67.7723555918453, 4.030298833885125 " fill="none" id="curve_19" stroke="#000000" stroke-linecap="round" stroke-linejoin="round" stroke-width="2.747150789048496"/>
  <path d="M 64.28847562198827, 12.026903620182633 Q 61.59256201791926, 12.937881923232066, 60.89822946911046, 19.384051313816666 " fill="none" id="curve_20" stroke="#000000" stroke-linecap="round" stroke-linejoin="round" stroke-width="1.9514139876308212"/>
  <path d="M 60.89822946911046, 19.384051313816666 Q 62.26314129336408, 18.209646896211826, 63.34633060288333, 16.394215905972896 " fill="none" id="curve_20" stroke="#000000" stroke-linecap="round" stroke-linejoin="round" stroke-width="1.9748676871057502"/>
  <path d="M 63.34633060288333, 16.394215905972896 Q 64.88382343334646, 18.15200228388434, 65.50118598239123, 22.66997369778845 " fill="none" id="curve_20" stroke="#000000" stroke-linecap="round" stroke-linejoin="round" stroke-width="1.9943687358983904"/>
  <path d="M 64.67306118181513, 32.30134170677174 Q 64.43360537955203, 32.17060812374183, 64.18926650616496, 32.00959236829903 " fill="none" id="curve_21" stroke="#000000" stroke-linecap="round" stroke-linejoin="round" stroke-width="3.6252700424023083"/>
  <path d="M 67.79774474514483, 44.00631719563284 Q 67.24239609488683, 42.22055196562581, 66.16662094164306, 38.98386102740202 " fill="none" id="curve_22" stroke="#000000" stroke-linecap="round" stroke-linejoin="round" stroke-width="1.5749209636444068"/>
  <path d="M 55.219636149417624, 10.25746913636512 Q 55.076028826467024, 8.593376177571031, 54.95503743896151, 4.501449700798394 " fill="none" id="curve_23" stroke="#000000" stroke-linecap="round" stroke-linejoin="round" stroke-width="8.5686954447637"/>
  <path d="M 46.95486386161295, 12.862792003673057 Q 35.16068412325821, 13.478844838061338, 31.83054996315165, 20.16160461428312 " fill="none" id="curve_24" stroke="#000000" stroke-linecap="round" stroke-linejoin="round" stroke-width="1.5872236498060837"/>
  <path d="M 22.200570056035602, 19.865293305810667 Q 23.45391859700082, 19.892071393375144, 24.109847845587133, 19.981263233442977 " fill="none" id="curve_25" stroke="#000000" stroke-linecap="round" stroke-linejoin="round" stroke-width="4.358230936338267"/>
  <path d="M 38.41776242337866, 2.5235423475838914 Q 35.472698455328846, 3.065843455254927, 33.72201094253984, 4.837938246685192 " fill="none" id="curve_26" stroke="#000000" stroke-linecap="round" stroke-linejoin="round" stroke-width="2.9230256956055705"/>
  <path d="M 15.893882699540818, 1.862387645789798 Q 15.547548337787482, 2.16274768182581, 12.202958250964627, 2.2572080080651524 " fill="none" id="curve_27" stroke="#000000" stroke-linecap="round" stroke-linejoin="round" stroke-width="3.697384548568661"/>
  <path d="M 6.797464142976882, 2.133045913877631 Q 6.8898910571178105, 6.9042927076827425, 7.1336339937926185, 14.084910128301605 " fill="none" id="curve_28" stroke="#000000" stroke-linecap="round" stroke-linejoin="round" stroke-width="1.513443775891324"/>
  <path d="M 6.734750190523515, 32.18822117401821 Q 6.420922974434827, 31.79182013608204, 5.644502573316141, 31.003314342734004 " fill="none" id="curve_29" stroke="#000000" stroke-linecap="round" stroke-linejoin="round" stroke-width="2.4759992908723882"/>
  <path d="M 7.901943771298377, 50.760696906198255 Q 8.169024314121291, 63.51409802826195, 10.625437334469451, 67.56594069135134 " fill="none" id="curve_30" stroke="#000000" stroke-linecap="round" stroke-linejoin="round" stroke-width="1.9615473897320919"/>
  <path d="M 25.15675431367117, 48.50555126781471 Q 24.558879323856168, 49.88745126002131, 22.26279500361771, 51.986034439962296 " fill="none" id="curve_31" stroke="#000000" stroke-linecap="round" stroke-linejoin="round" stroke-width="1.9426440471389146"/>
  <path d="M 33.62618168779183, 57.79450453792277 Q 32.856301832515285, 58.59991055825115, 31.34512693091945, 59.64371367968665 " fill="none" id="curve_32" stroke="#000000" stroke-linecap="round" stroke-linejoin="round" stroke-width="2.8614671315322546"/>
  <path d="M 61.69818503001589, 77.92470228618703 Q 61.26365612568361, 88.62137976282324, 60.27184146932363, 98.48084712769294 " fill="none" id="curve_34" stroke="#000000" stroke-linecap="round" stroke-linejoin="round" stroke-width="2.011072374190179"/>
  <path d="M 89.43253577617523, 84.6275670092702 Q 88.76700311041235, 88.27005488373479, 87.9638706260939, 93.06317458342015 " fill="none" id="curve_36" stroke="#000000" stroke-linecap="round" stroke-linejoin="round" stroke-width="2.6610154365818737"/>
  <path d="M 81.37362836042777, 83.08148761969197 Q 80.90415379798456, 85.12318530195613, 79.3784687514526, 86.83528185362225 " fill="none" id="curve_37" stroke="#000000" stroke-linecap="round" stroke-linejoin="round" stroke-width="2.4025861143101657"/>
  <path d="M 41.58929089441106, 87.764015765532 Q 41.50168807659505, 86.46939112189538, 38.40790411673018, 86.350277932942 " fill="none" id="curve_38" stroke="#000000" stroke-linecap="round" stroke-linejoin="round" stroke-width="2.791533384103999"/>
  <path d="M 76.92058763719791, 1.7143572518156471 Q 76.40213507749381, 2.2722006151965495, 75.48569680233201, 3.116865356626493 " fill="none" id="curve_44" stroke="#000000" stroke-linecap="round" stroke-linejoin="round" stroke-width="3.1498053988902677"/>
  <path d="M 84.77413795295796, 1.7838805876625354 Q 83.96896862081945, 3.094573962135044, 81.4773163645876, 5.6851018828778095 " fill="none" id="curve_45" stroke="#000000" stroke-linecap="round" stroke-linejoin="round" stroke-width="2.6346303897434007"/>
  <path d="M 49.97488714108843, 14.540466284654464 Q 48.83152179257497, 15.307331006630257, 48.472247489789915, 19.196425890825118 " fill="none" id="curve_47" stroke="#000000" stroke-linecap="round" stroke-linejoin="round" stroke-width="2.9669342270816665"/>
  <path d="M 48.654171416025946, 11.802866276215788 Q 51.772609809467625, 13.27360367298732, 57.81355971937546, 14.198500248046265 " fill="none" id="curve_48" stroke="#000000" stroke-linecap="round" stroke-linejoin="round" stroke-width="1.6203998965143394"/>
  <path d="M 65.246602942642, 9.650280084042585 Q 64.87473292985729, 9.190061028766198, 64.6513928929925, 7.688680708789543 " fill="none" id="curve_49" stroke="#000000" stroke-linecap="round" stroke-linejoin="round" stroke-width="2.087646897915653"/>
  <path d="M 50.32862105104215, 5.754276179657573 Q 49.750292990518325, 5.853140929612001, 49.55905470712397, 6.342470160950629 " fill="none" id="curve_50" stroke="#000000" stroke-linecap="round" stroke-linejoin="round" stroke-width="4.814287599535375"/>
  <path d="M 27.49573341695009, 10.19955079860323 Q 27.08607997002575, 9.940153282878127, 26.65264140305793, 9.498650943996973 " fill="none" id="curve_51" stroke="#000000" stroke-linecap="round" stroke-linejoin="round" stroke-width="2.8933080052981723"/>
  <path d="M 14.78810549870382, 17.974528761455133 Q 14.382365320029567, 16.654407205892532, 13.711520895394205, 15.211827276652915 " fill="none" id="curve_52" stroke="#000000" stroke-linecap="round" stroke-linejoin="round" stroke-width="2.4183317174542145"/>
  <path d="M 83.88962451577697, 11.849957956002328 Q 83.35323421474315, 14.06989735260296, 81.24006135932626, 15.23026474735391 " fill="none" id="curve_67" stroke="#000000" stroke-linecap="round" stroke-linejoin="round" stroke-width="2.6033488479497713"/>
  <path d="M 89.83963938544946, 31.245819983901804 Q 87.62484120708768, 31.707388122953525, 86.53894797917093, 34.31158024420771 " fill="none" id="curve_68" stroke="#000000" stroke-linecap="round" stroke-linejoin="round" stroke-width="2.0616842227077683"/>
  <path d="M 53.566459975056794, 54.069953583931756 Q 53.16237516691908, 55.97451009442247, 51.99474572321988, 58.369274924806604 " fill="none" id="curve_69" stroke="#000000" stroke-linecap="round" stroke-linejoin="round" stroke-width="3.8677054735103145"/>
  <path d="M 47.06238517938054, 40.8237430414765 Q 46.67746568970108, 38.35752121239005, 44.54268283571164, 35.80418056328681 " fill="none" id="curve_71" stroke="#000000" stroke-linecap="round" stroke-linejoin="round" stroke-width="1.8463171685247102"/>
  <path d="M 42.56681503202125, 48.51397444204189 Q 42.862744870281276, 51.94544077972928, 44.66856810930564, 53.38731777176887 " fill="none" id="curve_72" stroke="#000000" stroke-linecap="round" stroke-linejoin="round" stroke-width="2.6972603169032605"/>
  <path d="M 28.486794183458542, 65.01233258662138 Q 28.475396644349104, 65.5670313492071, 28.45372706265275, 67.41460198272438 " fill="none" id="curve_76" stroke="#000000" stroke-linecap="round" stroke-linejoin="round" stroke-width="2.192126098846708"/>
  <path d="M 67.34230195534555, 128.60839961302847 Q 67.2994327798877, 135.65483397008043, 66.46689482444583, 136.7146820906915 " fill="none" id="curve_84" stroke="#000000" stroke-linecap="round" stroke-linejoin="round" stroke-width="5.182835278211958"/>
  <path d="M 81.74882111183088, 136.03695886043286 Q 85.55506373547315, 135.26464464827117, 88.35794567716987, 132.98522707929345 " fill="none" id="curve_86" stroke="#000000" stroke-linecap="round" stroke-linejoin="round" stroke-width="2.642141176811353"/>
  <path d="M 41.83363278525997, 132.92839360167912 Q 43.89314500342898, 132.9330424958766, 45.32591995557189, 132.9522195728935 " fill="none" id="curve_88" stroke="#000000" stroke-linecap="round" stroke-linejoin="round" stroke-width="2.5415537611278944"/>
  <path d="M 36.25245714948023, 137.05487786370483 Q 34.81912361451914, 136.35457334514098, 26.97055112801941, 136.05861406287738 " fill="none" id="curve_89" stroke="#000000" stroke-linecap="round" stroke-linejoin="round" stroke-width="2.4506104801942348"/>
  <path d="M 21.35510503898591, 132.9728332503225 Q 20.44814463050139, 132.179680214707, 20.05619660488769, 128.44392022670579 " fill="none" id="curve_90" stroke="#000000" stroke-linecap="round" stroke-linejoin="round" stroke-width="1.82761782226254"/>
  <path d="M 20.05619660488769, 128.44392022670579 Q 22.189569041367186, 129.4681229535606, 30.24086319290334, 129.83670544662283 " fill="none" id="curve_90" stroke="#000000" stroke-linecap="round" stroke-linejoin="round" stroke-width="1.950183236284814"/>
  <path d="M 23.254234300832955, 137.83075919283945 Q 23.018810662349043, 137.11753575634404, 22.824774749713583, 135.7929720114439 " fill="none" id="curve_91" stroke="#000000" stroke-linecap="round" stroke-linejoin="round" stroke-width="2.6507580247604"/>
  <path d="M 24.61158838790942, 116.21843652235515 Q 25.01736971230408, 116.32576707503846, 25.250637739202464, 116.95173341529127 " fill="none" id="curve_92" stroke="#000000" stroke-linecap="round" stroke-linejoin="round" stroke-width="3.7893063035872223"/>
  <path d="M 20.387127831715436, 112.4310846438381 Q 20.594138200325844, 113.52193834754928, 20.84469774348436, 114.90243193328259 " fill="none" id="curve_93" stroke="#000000" stroke-linecap="round" stroke-linejoin="round" stroke-width="3.64229549712919"/>
  <path d="M 9.877699756888509, 121.61895877884837 Q 8.894885469216762, 121.2201606805559, 8.62673766176459, 117.56252198445378 " fill="none" id="curve_94" stroke="#000000" stroke-linecap="round" stroke-linejoin="round" stroke-width="3.374089024358698"/>
  <path d="M 10.533648241790939, 97.34812576526905 Q 11.077027738404098, 98.06414649526914, 13.281626495135576, 98.63206264678561 " fill="none" id="curve_95" stroke="#000000" stroke-linecap="round" stroke-linejoin="round" stroke-width="2.409115588049894"/>
  <path d="M 24.688466116213583, 92.78071050025686 Q 24.323977290864114, 91.92786633278602, 23.939025566792736, 90.56609393860337 " fill="none" id="curve_98" stroke="#000000" stroke-linecap="round" stroke-linejoin="round" stroke-width="1.9425049081801653"/>
  <path d="M 34.82143011644436, 87.12248020403612 Q 34.17082228487287, 88.31269108686813, 33.55753068457485, 91.82207212085909 " fill="none" id="curve_99" stroke="#000000" stroke-linecap="round" stroke-linejoin="round" stroke-width="1.6922736503120577"/>
  <path d="M 33.55753068457485, 91.82207212085909 Q 38.75385063000397, 95.42534968272065, 45.39434089787115, 99.83739209487253 " fill="none" id="curve_99" stroke="#000000" stroke-linecap="round" stroke-linejoin="round" stroke-width="1.3063598981603461"/>
  <path d="M 36.198301010729224, 112.02318368212968 Q 36.47591467574962, 111.56714403735057, 36.84273222938625, 110.88373488708041 " fill="none" id="curve_100" stroke="#000000" stroke-linecap="round" stroke-linejoin="round" stroke-width="2.4198461850766995"/>
  <path d="M 42.44273581491303, 117.2065560366645 Q 41.08480585922458, 119.33213056658713, 37.189615403131924, 120.9561867656546 " fill="none" id="curve_101" stroke="#000000" stroke-linecap="round" stroke-linejoin="round" stroke-width="1.8247677181237711"/>
  <path d="M 53.38240413617759, 137.4465288719837 Q 55.98027534286907, 136.89813995310752, 56.927631779638254, 132.45537014152893 " fill="none" id="curve_102" stroke="#000000" stroke-linecap="round" stroke-linejoin="round" stroke-width="1.8788274782096859"/>
  <path d="M 68.6721944691399, 119.3619218043128 Q 68.63825437431538, 120.74175452794026, 68.34167737580388, 121.19185258777553 " fill="none" id="curve_103" stroke="#000000" stroke-linecap="round" stroke-linejoin="round" stroke-width="1.9377551457966729"/>
  <path d="M 72.23879313590975, 122.28278741885134 Q 72.20383580502099, 121.76066648893233, 72.10224038504766, 120.90441363597017 " fill="none" id="curve_104" stroke="#000000" stroke-linecap="round" stroke-linejoin="round" stroke-width="1.447375083427479"/>
  <path d="M 83.41477919065619, 99.55113645186088 Q 83.8027039830724, 99.11693553432364, 83.8780812034733, 92.04237458347852 " fill="none" id="curve_106" stroke="#000000" stroke-linecap="round" stroke-linejoin="round" stroke-width="2.287262740526923"/>
  <path d="M 68.7352133318461, 91.24958122306282 Q 69.07151129228932, 90.40415362331376, 69.71503655878199, 89.33714026958607 " fill="none" id="curve_107" stroke="#000000" stroke-linecap="round" stroke-linejoin="round" stroke-width="1.64695791849663"/>
  <path d="M 77.67104235255484, 47.95991366331716 Q 77.96366429572936, 47.63790725498586, 78.29081668549911, 47.011698077219336 " fill="none" id="curve_109" stroke="#000000" stroke-linecap="round" stroke-linejoin="round" stroke-width="2.3785802344306366"/>
  <path d="M 64.69919928399656, 50.56406286851565 Q 64.55123698295483, 51.639567251314574, 64.22306826516962, 53.07210143338033 " fill="none" id="curve_110" stroke="#000000" stroke-linecap="round" stroke-linejoin="round" stroke-width="2.1240860611250163"/>
  <path d="M 62.0839498258934, 67.71565018111903 Q 62.058710741054945, 66.23260501174829, 62.000668801378346, 64.61286618500559 " fill="none" id="curve_111" stroke="#000000" stroke-linecap="round" stroke-linejoin="round" stroke-width="1.9960974222096273"/>
  <path d="M 24.669453566566396, 77.53829116332801 Q 26.939842806048944, 77.8912817851685, 28.963068185023836, 80.08843180865162 " fill="none" id="curve_127" stroke="#000000" stroke-linecap="round" stroke-linejoin="round" stroke-width="2.940771925331923"/>
  <path d="M 36.26528465332568, 47.89553812334989 Q 36.25374249370258, 48.43511434888404, 36.23443512610384, 49.13892857713549 " fill="none" id="curve_129" stroke="#000000" stroke-linecap="round" stroke-linejoin="round" stroke-width="3.777967231020285"/>
  <path d="M 84.91270655203391, 89.00050797573618 Q 85.25492200432295, 89.98862386118167, 86.40169412902915, 91.29334032609552 " fill="none" id="curve_144" stroke="#000000" stroke-linecap="round" stroke-linejoin="round" stroke-width="1.6937466193282305"/>
  <path d="M 89.41090935301456, 99.93752292912328 Q 89.01142326512377, 100.0752403981567, 88.32163356111022, 100.51468936967662 " fill="none" id="curve_145" stroke="#000000" stroke-linecap="round" stroke-linejoin="round" stroke-width="1.3463293604099649"/>
  <path d="M 90.01725020406852, 122.29050668707622 Q 89.293002814668, 121.19583380459943, 87.88565964250697, 119.77011192581564 " fill="none" id="curve_146" stroke="#000000" stroke-linecap="round" stroke-linejoin="round" stroke-width="1.6292091671473974"/>
  <path d="M 62.77077258830612, 137.99398993347003 Q 64.20602782249992, 135.81525706828134, 67.98878989608156, 134.49334877280194 " fill="none" id="curve_148" stroke="#000000" stroke-linecap="round" stroke-linejoin="round" stroke-width="2.674722587418402"/>
  <path d="M 67.98878989608156, 134.49334877280194 Q 68.10826475137827, 131.92606335775733, 68.66692682827747, 131.13590177112982 " fill="none" id="curve_148" stroke="#000000" stroke-linecap="round" stroke-linejoin="round" stroke-width="3.513729336897024"/>
  <path d="M 70.4887657325404, 124.67235601247062 Q 73.5571592003436, 125.12721189587323, 77.6580191224252, 125.88636564850412 " fill="none" id="curve_149" stroke="#000000" stroke-linecap="round" stroke-linejoin="round" stroke-width="1.26718564101339"/>
  <path d="M 77.6580191224252, 125.88636564850412 Q 77.56846775665561, 121.94881437429054, 75.94952002410396, 121.54064374273251 " fill="none" id="curve_149" stroke="#000000" stroke-linecap="round" stroke-linejoin="round" stroke-width="3.718108428019365"/>
  <path d="M 63.19856973489407, 121.70219711771078 Q 63.110147884401115, 121.46196126614262, 63.00367516287886, 121.12403083836095 " fill="none" id="curve_150" stroke="#000000" stroke-linecap="round" stroke-linejoin="round" stroke-width="2.7018881306478213"/>
  <path d="M 39.01050468170026, 115.91339457943002 Q 43.41331400085925, 116.31833248224902, 44.554280137412526, 118.64467105039624 " fill="none" id="curve_153" stroke="#000000" stroke-linecap="round" stroke-linejoin="round" stroke-width="2.217725440267981"/>
  <path d="M 49.75704321800945, 115.77548369535474 Q 52.50681275310198, 115.81189041696817, 53.423972618324264, 116.0212565536454 " fill="none" id="curve_154" stroke="#000000" stroke-linecap="round" stroke-linejoin="round" stroke-width="2.177043197796734"/>
  <path d="M 55.11153514099281, 109.94054770461719 Q 56.86670484563252, 110.26612420053466, 58.436992070368454, 110.76403645867809 " fill="none" id="curve_155" stroke="#000000" stroke-linecap="round" stroke-linejoin="round" stroke-width="1.8339170955555038"/>
  <path d="M 64.72744101039736, 106.60575003649973 Q 64.26702790165994, 106.86340055555256, 63.81490501883144, 107.22054267986137 " fill="none" id="curve_156" stroke="#000000" stroke-linecap="round" stroke-linejoin="round" stroke-width="3.20055671288375"/>
  <path d="M 50.44876466228604, 105.81655622999153 Q 50.80126199698074, 106.1517243735414, 51.178215512016216, 106.68103033098205 " fill="none" id="curve_157" stroke="#000000" stroke-linecap="round" stroke-linejoin="round" stroke-width="2.6535017835461514"/>
  <path d="M 27.571566483494045, 117.88597812322469 Q 26.90977953302524, 117.96811111752902, 26.334949854896564, 118.16263265889395 " fill="none" id="curve_162" stroke="#000000" stroke-linecap="round" stroke-linejoin="round" stroke-width="3.6697669646817643"/>
  <path d="M 32.947410655431085, 124.48731902135319 Q 34.5990677830534, 124.44568516754417, 39.18895816647429, 124.36105786140722 " fill="none" id="curve_163" stroke="#000000" stroke-linecap="round" stroke-linejoin="round" stroke-width="1.1453613047212028"/>
  <path d="M 42.26970224719021, 103.08735257583274 Q 42.25865254314971, 105.5737753759739, 41.879267299848955, 105.78712654339262 " fill="none" id="curve_166" stroke="#000000" stroke-linecap="round" stroke-linejoin="round" stroke-width="1.8574915347275582"/>
  <path d="M 45.856449111456946, 103.13969995435707 Q 45.428797348064386, 101.90915300621619, 45.055026908008166, 97.78986506153686 " fill="none" id="curve_167" stroke="#000000" stroke-linecap="round" stroke-linejoin="round" stroke-width="1.3760368598883899"/>
  <path d="M 65.00724259248815, 72.24307679408663 Q 63.954750098700465, 72.53576233164722, 62.613032890612345, 73.23540152658863 " fill="none" id="curve_169" stroke="#000000" stroke-linecap="round" stroke-linejoin="round" stroke-width="2.153104352596855"/>
  <path d="M 79.52760791030927, 74.3219374824749 Q 78.15141445455616, 74.3074000045147, 76.38853726710448, 74.27685185983898 " fill="none" id="curve_170" stroke="#000000" stroke-linecap="round" stroke-linejoin="round" stroke-width="1.8389771516918567"/>
  <path d="M 66.1302836255501, 78.59558411963734 Q 66.28700411102784, 78.63277001681591, 66.41882862753803, 78.72948253428194 " fill="none" id="curve_173" stroke="#000000" stroke-linecap="round" stroke-linejoin="round" stroke-width="2.64916012286538"/>
  <path d="M 20.3395620444264, 70.93164860948312 Q 18.18287777355515, 72.53098184824205, 15.991610929948454, 76.43948965535093 " fill="none" id="curve_179" stroke="#000000" stroke-linecap="round" stroke-linejoin="round" stroke-width="1.9833522520494815"/>
  <path d="M 14.672514828635148, 64.93492345630533 Q 13.63346352298516, 65.42402442954796, 12.366505197373929, 66.06525975718026 " fill="none" id="curve_180" stroke="#000000" stroke-linecap="round" stroke-linejoin="round" stroke-width="3.2928518030445146"/>
  <path d="M 21.05687247503908, 63.34305867348829 Q 21.58493747597616, 63.485320191947224, 22.089590120742628, 63.88507029119838 " fill="none" id="curve_181" stroke="#000000" stroke-linecap="round" stroke-linejoin="round" stroke-width="2.988083703610744"/>
  <path d="M 29.61738013709518, 83.03476563963883 Q 30.72623789539793, 79.9217995858942, 35.76949801312123, 75.77175654742815 " fill="none" id="curve_183" stroke="#000000" stroke-linecap="round" stroke-linejoin="round" stroke-width="2.7637192486930684"/>
  <path d="M 10.548899190932204, 50.69688629307525 Q 10.999070608086951, 50.02266522043455, 11.566213470139076, 48.57559438656004 " fill="none" id="curve_191" stroke="#000000" stroke-linecap="round" stroke-linejoin="round" stroke-width="3.1844374977439145"/>
  <path d="M 53.78108535740751, 43.66798869859753 Q 53.63202231186769, 42.79036633562411, 53.34405993320191, 41.2056409923961 " fill="none" id="curve_193" stroke="#000000" stroke-linecap="round" stroke-linejoin="round" stroke-width="2.005819929617128"/>
  <path d="M 88.40309665125076, 10.04978962980532 Q 86.6284033606494, 11.015512491138173, 84.91819640795606, 12.836709357896265 " fill="none" id="curve_198" stroke="#000000" stroke-linecap="round" stroke-linejoin="round" stroke-width="4.7234028759725355"/>
  <path d="M 40.48755205776684, 27.228534100610872 Q 40.63773936295576, 27.617033895580878, 41.0504122222522, 28.632374119255843 " fill="none" id="curve_200" stroke="#000000" stroke-linecap="round" stroke-linejoin="round" stroke-width="1.6666370770670325"/>
  <path d="M 17.647305025688745, 3.518604206450772 Q 15.74499222579119, 3.673986454867422, 13.948111157263874, 3.985098572698559 " fill="none" id="curve_203" stroke="#000000" stroke-linecap="round" stroke-linejoin="round" stroke-width="3.3810660281623894"/>
  <path d="M 40.657258808068605, 1.0860366282520664 Q 41.17799532674673, 1.6732025976878904, 42.15127753265369, 3.1694578381333685 " fill="none" id="curve_204" stroke="#000000" stroke-linecap="round" stroke-linejoin="round" stroke-width="2.1406930335967687"/>
  <path d="M 33.96755554566035, 17.587071093081104 Q 35.85979752168553, 17.499967168952747, 37.30119224901093, 17.321232775305305 " fill="none" id="curve_211" stroke="#000000" stroke-linecap="round" stroke-linejoin="round" stroke-width="2.6220440080955956"/>
  <path d="M 18.021337787990763, 57.82674221238759 Q 17.902396841409416, 58.73848895292969, 17.15684984457104, 59.12583036264907 " fill="none" id="curve_213" stroke="#000000" stroke-linecap="round" stroke-linejoin="round" stroke-width="2.175645406129279"/>
  <path d="M 82.38220027514811, 49.644578333867315 Q 82.51650947300138, 50.08041000483559, 82.79354461531518, 50.86929209861537 " fill="none" id="curve_218" stroke="#000000" stroke-linecap="round" stroke-linejoin="round" stroke-width="1.797060498357828"/>
  <path d="M 63.33890404137583, 56.50618386153179 Q 63.05226998302883, 56.7313565723301, 62.7070930252124, 57.168930973700164 " fill="none" id="curve_233" stroke="#000000" stroke-linecap="round" stroke-linejoin="round" stroke-width="2.853391848692023"/>
  <path d="M 90.52793994249015, 67.07005694192546 Q 90.1778433088722, 68.0793996578399, 89.03017799498646, 69.21072006777027 " fill="none" id="curve_234" stroke="#000000" stroke-linecap="round" stroke-linejoin="round" stroke-width="2.3161308069876343"/>
  <path d="M 30.4074325280065, 81.34129893021635 Q 32.509153778645974, 77.95415892704551, 38.97589977617917, 75.4771586832132 " fill="none" id="curve_242" stroke="#000000" stroke-linecap="round" stroke-linejoin="round" stroke-width="3.637893165321156"/>
  <path d="M 58.644642135814024, 76.01312750416412 Q 58.620382916490726, 78.67826981357452, 58.51623678765612, 79.70475320416905 " fill="none" id="curve_257" stroke="#000000" stroke-linecap="round" stroke-linejoin="round" stroke-width="1.5051803120098501"/>
  <path d="M 53.493773215485064, 138.88927175554372 Q 53.208337005992746, 138.77749094936084, 52.81837352251137, 138.58996759511516 " fill="none" id="curve_264" stroke="#000000" stroke-linecap="round" stroke-linejoin="round" stroke-width="3.0980325376483804"/>
  <path d="M 41.28269512622104, 133.94533045090313 Q 41.15986879478393, 134.14370127796792, 40.98114052922139, 134.48338628799155 " fill="none" id="curve_265" stroke="#000000" stroke-linecap="round" stroke-linejoin="round" stroke-width="2.4203687822989295"/>
  <path d="M 34.607742709114945, 77.13605641841964 Q 32.911675304422126, 82.36722055872787, 25.45473718147282, 85.74627747732846 " fill="none" id="curve_298" stroke="#000000" stroke-linecap="round" stroke-linejoin="round" stroke-width="2.6790774331352116"/>
  <path d="M 29.25112933812531, 90.32296238517779 Q 29.183446826715983, 90.2881934693185, 29.100667791617948, 90.22684096681931 " fill="none" id="curve_300" stroke="#000000" stroke-linecap="round" stroke-linejoin="round" stroke-width="2.660410982643261"/>
  <path d="M 4.3792510126463515, 111.17622196606517 Q 3.987031147243123, 110.75147949226272, 3.281060525102811, 110.17937321460167 " fill="none" id="curve_330" stroke="#000000" stroke-linecap="round" stroke-linejoin="round" stroke-width="2.4010811472301192"/>
  <path d="M 13.514767431455523, 87.03864761740842 Q 14.280800732778756, 87.58802361223805, 16.403350983421742, 88.4021157719825 " fill="none" id="curve_333" stroke="#000000" stroke-linecap="round" stroke-linejoin="round" stroke-width="2.24694494115277"/>
</svg>
