<?xml version="1.0" ?>
<svg height="140" width="140" xmlns="http://www.w3.org/2000/svg">
  <path d="M 46.89243221282959, 97.14997863769531 Q 44.53898970575069, 92.96826331828454, 40.16270065413249, 83.90418067467374 " fill="none" id="curve_1" stroke="#000000" stroke-linecap="round" stroke-linejoin="round" stroke-width="7.72763913026968"/>
  <path d="M 40.16270065413249, 83.90418067467374 Q 37.96461211287277, 72.30742990251434, 28.325895470844323, 54.080063464483146 " fill="none" id="curve_1" stroke="#000000" stroke-linecap="round" stroke-linejoin="round" stroke-width="6.682841833427169"/>
  <path d="M 28.325895470844323, 54.080063464483146 Q 27.2571042419129, 52.8699017540557, 25.713875995247335, 51.69515148631818 " fill="none" id="curve_1" stroke="#000000" stroke-linecap="round" stroke-linejoin="round" stroke-width="4.409706881119607"/>
  <path d="M 47.82534721495093, 97.16971644957677 Q 48.518824645306104, 101.72678458062389, 51.010508625960135, 103.8588025544337 " fill="none" id="curve_2" stroke="#000000" stroke-linecap="round" stroke-linejoin="round" stroke-width="4.596582590751371"/>
  <path d="M 51.010508625960135, 103.8588025544337 Q 47.136852033872636, 99.85208395176443, 43.32650146572274, 92.04573883890137 " fill="none" id="curve_2" stroke="#000000" stroke-linecap="round" stroke-linejoin="round" stroke-width="4.417152621722563"/>
  <path d="M 31.906179736636204, 64.84663384704277 Q 34.30047701483786, 77.58108582096634, 41.79348392134541, 85.39584134938717 " fill="none" id="curve_17" stroke="#000000" stroke-linecap="round" stroke-linejoin="round" stroke-width="2.521057381742178"/>
  <path d="M 41.79348392134541, 85.39584134938717 Q 43.35742331506722, 91.9241512458289, 47.28130855293439, 94.96756797273096 " fill="none" id="curve_17" stroke="#000000" stroke-linecap="round" stroke-linejoin="round" stroke-width="3.9489267529547534"/>
  <path d="M 45.102901863342595, 92.61439768825221 Q 44.1750840474174, 91.10852604682897, 42.565727561099315, 89.80230802219654 " fill="none" id="curve_32" stroke="#000000" stroke-linecap="round" stroke-linejoin="round" stroke-width="5.7618393449986565"/>
  <path d="M 46.73873362709559, 94.72139258302816 Q 45.955681579170275, 89.37507642183934, 39.827450569604515, 87.93367806287574 " fill="none" id="curve_75" stroke="#000000" stroke-linecap="round" stroke-linejoin="round" stroke-width="4.421279126728544"/>
  <path d="M 33.06603050672564, 63.814945496371664 Q 32.74005687193052, 57.45286989305923, 31.378472600320016, 55.07143145215757 " fill="none" id="curve_76" stroke="#000000" stroke-linecap="round" stroke-linejoin="round" stroke-width="3.410196151555357"/>
  <path d="M 31.870814650222144, 68.69713457894908 Q 32.02270787818666, 64.57495418135669, 33.46216252240946, 63.82387337620259 " fill="none" id="curve_92" stroke="#000000" stroke-linecap="round" stroke-linejoin="round" stroke-width="5.531912895008037"/>
  <path d="M 33.46216252240946, 63.82387337620259 Q 34.4769000183069, 63.74236551589299, 35.53457317949309, 63.569642520301414 " fill="none" id="curve_92" stroke="#000000" stroke-linecap="round" stroke-linejoin="round" stroke-width="3.644928489190386"/>
</svg>
