<?xml version="1.0" ?>
<svg height="140" width="140" xmlns="http://www.w3.org/2000/svg">
  <path d="M 50.851348876953125, 71.2448844909668 Q 45.99627034439697, 76.0986454063103, 34.543660633595664, 92.20000272138384 " fill="none" id="curve_1" stroke="#000000" stroke-linecap="round" stroke-linejoin="round" stroke-width="5.582293465335045"/>
  <path d="M 34.543660633595664, 92.20000272138384 Q 28.2741045659595, 99.49535007979776, 19.302862195375223, 109.88155074824454 " fill="none" id="curve_1" stroke="#000000" stroke-linecap="round" stroke-linejoin="round" stroke-width="4.518641546290211"/>
  <path d="M 39.73252778248116, 83.19004081884282 Q 47.06991590931415, 76.77041689114257, 56.168450703496404, 62.953343366792296 " fill="none" id="curve_2" stroke="#000000" stroke-linecap="round" stroke-linejoin="round" stroke-width="3.982258469610598"/>
  <path d="M 56.168450703496404, 62.953343366792296 Q 64.17965523782838, 52.15339423378101, 81.18081843903667, 30.890448252201004 " fill="none" id="curve_2" stroke="#000000" stroke-linecap="round" stroke-linejoin="round" stroke-width="5.530465067145472"/>
  <path d="M 81.18081843903667, 30.890448252201004 Q 78.25342963122968, 39.22666470237027, 71.15377746700223, 67.66352111616948 " fill="none" id="curve_2" stroke="#000000" stroke-linecap="round" stroke-linejoin="round" stroke-width="4.064533663258028"/>
  <path d="M 71.15377746700223, 67.66352111616948 Q 68.62477111813796, 74.18537182960846, 67.49676472637994, 98.66715078633626 " fill="none" id="curve_2" stroke="#000000" stroke-linecap="round" stroke-linejoin="round" stroke-width="4.772801484486516"/>
  <path d="M 67.49676472637994, 98.66715078633626 Q 69.88567551598054, 101.9011014474413, 73.07537664174298, 104.74858428704835 " fill="none" id="curve_2" stroke="#000000" stroke-linecap="round" stroke-linejoin="round" stroke-width="4.599879048642372"/>
  <path d="M 46.80412477678945, 73.11192932723606 Q 52.49275117885452, 68.58865875713211, 57.33164791657614, 58.79595990244842 " fill="none" id="curve_3" stroke="#000000" stroke-linecap="round" stroke-linejoin="round" stroke-width="2.9134255780287255"/>
  <path d="M 84.11986932777015, 28.711002626229202 Q 83.17316995366899, 28.603980508712898, 81.63293153975562, 28.453602667221993 " fill="none" id="curve_4" stroke="#000000" stroke-linecap="round" stroke-linejoin="round" stroke-width="4.037941800444283"/>
  <path d="M 62.39684384964849, 50.99946088202154 Q 70.53900012806626, 44.678254995529755, 78.89998123653628, 33.17181327361699 " fill="none" id="curve_5" stroke="#000000" stroke-linecap="round" stroke-linejoin="round" stroke-width="3.380374206277419"/>
  <path d="M 70.17000527232955, 42.881289491743495 Q 73.60817755060692, 37.274236553154665, 81.84312233918266, 32.91277708326939 " fill="none" id="curve_6" stroke="#000000" stroke-linecap="round" stroke-linejoin="round" stroke-width="3.4078224512370303"/>
  <path d="M 74.07739622481792, 58.90326806505034 Q 72.06449785561564, 66.62615026875028, 68.84224971932721, 78.75921197705634 " fill="none" id="curve_7" stroke="#000000" stroke-linecap="round" stroke-linejoin="round" stroke-width="2.9110168609611744"/>
  <path d="M 68.84224971932721, 78.75921197705634 Q 67.54686868323466, 82.36417808969723, 66.9239234211443, 94.3287299809099 " fill="none" id="curve_7" stroke="#000000" stroke-linecap="round" stroke-linejoin="round" stroke-width="3.1317516163319117"/>
  <path d="M 72.59688464966533, 63.98562025220491 Q 71.71485626875382, 73.70902205538067, 69.24757147937997, 80.91296478834903 " fill="none" id="curve_8" stroke="#000000" stroke-linecap="round" stroke-linejoin="round" stroke-width="2.6186740189462934"/>
  <path d="M 80.7435922242864, 35.28101226088276 Q 80.99101566260757, 33.06077058453006, 81.4892211371588, 31.291845152220347 " fill="none" id="curve_23" stroke="#000000" stroke-linecap="round" stroke-linejoin="round" stroke-width="4.72310325555378"/>
  <path d="M 33.39868999694697, 92.61380917962086 Q 41.6517048457115, 83.79326373770034, 55.719521434474224, 63.34730682165252 " fill="none" id="curve_47" stroke="#000000" stroke-linecap="round" stroke-linejoin="round" stroke-width="2.3789836157174835"/>
  <path d="M 76.35928998225472, 56.73894081388835 Q 74.43711263321916, 57.741209449538076, 71.6739589300623, 60.58799786547706 " fill="none" id="curve_62" stroke="#000000" stroke-linecap="round" stroke-linejoin="round" stroke-width="2.8478010064291257"/>
  <path d="M 60.358873196552395, 54.11344510734057 Q 60.0543426481819, 55.246209706711824, 59.49790266223806, 56.886170821205994 " fill="none" id="curve_77" stroke="#000000" stroke-linecap="round" stroke-linejoin="round" stroke-width="2.910567975952243"/>
  <path d="M 68.6913712826371, 92.19082733793778 Q 68.97199074767086, 95.53981125915158, 69.52954686348565, 98.40403837827142 " fill="none" id="curve_78" stroke="#000000" stroke-linecap="round" stroke-linejoin="round" stroke-width="2.9421478046618703"/>
  <path d="M 30.57401914068089, 94.82181568225221 Q 31.624499605794586, 92.83412948968471, 33.64975186483978, 90.5315756463788 " fill="none" id="curve_79" stroke="#000000" stroke-linecap="round" stroke-linejoin="round" stroke-width="3.026368632783801"/>
  <path d="M 47.435677511374244, 73.87103299032313 Q 42.72664360201044, 80.41853432933115, 32.56234377415157, 91.24716709354414 " fill="none" id="curve_80" stroke="#000000" stroke-linecap="round" stroke-linejoin="round" stroke-width="2.604001864176792"/>
  <path d="M 81.65962274705896, 30.101973132053388 Q 75.58194010992744, 33.244925383223354, 69.00638456549004, 42.339791804945975 " fill="none" id="curve_108" stroke="#000000" stroke-linecap="round" stroke-linejoin="round" stroke-width="2.7437741568027705"/>
  <path d="M 70.61496587024858, 81.89731772879936 Q 68.23832339616332, 82.70131213318727, 66.4079704381949, 85.51356382324636 " fill="none" id="curve_124" stroke="#000000" stroke-linecap="round" stroke-linejoin="round" stroke-width="2.85856655558417"/>
</svg>
