<?xml version="1.0" ?>
<svg height="140" width="140" xmlns="http://www.w3.org/2000/svg">
  <path d="M 38.51793098449707, 79.40684127807617 Q 35.2917496841559, 87.45909498576991, 19.736329478055723, 106.64883313957762 " fill="none" id="curve_1" stroke="#000000" stroke-linecap="round" stroke-linejoin="round" stroke-width="3.9044717667863953"/>
  <path d="M 19.736329478055723, 106.64883313957762 Q 15.510434404011143, 112.28728285423257, 10.088534680787564, 118.15046499429046 " fill="none" id="curve_1" stroke="#000000" stroke-linecap="round" stroke-linejoin="round" stroke-width="5.265715107561574"/>
  <path d="M 10.088534680787564, 118.15046499429046 Q 11.40813372911518, 113.73655545187057, 14.363830909717471, 110.08289748557371 " fill="none" id="curve_1" stroke="#000000" stroke-linecap="round" stroke-linejoin="round" stroke-width="3.211817054078715"/>
  <path d="M 39.82849288851902, 80.46671275427897 Q 44.21108584391897, 73.57574594916457, 53.9845121089652, 51.32612135778594 " fill="none" id="curve_2" stroke="#000000" stroke-linecap="round" stroke-linejoin="round" stroke-width="4.32382277375303"/>
  <path d="M 53.9845121089652, 51.32612135778594 Q 58.923820799673344, 44.51535443509255, 69.46288339437257, 25.86331455499634 " fill="none" id="curve_2" stroke="#000000" stroke-linecap="round" stroke-linejoin="round" stroke-width="4.9545747157714795"/>
  <path d="M 69.46288339437257, 25.86331455499634 Q 71.14488649096228, 23.312643012799253, 72.63085194117048, 19.564175833543885 " fill="none" id="curve_2" stroke="#000000" stroke-linecap="round" stroke-linejoin="round" stroke-width="4.829649113680167"/>
  <path d="M 72.63085194117048, 19.564175833543885 Q 72.17940657377613, 37.107307988010405, 66.17971327848403, 49.79918639559219 " fill="none" id="curve_2" stroke="#000000" stroke-linecap="round" stroke-linejoin="round" stroke-width="5.054296837965817"/>
  <path d="M 66.17971327848403, 49.79918639559219 Q 64.3810822822028, 56.22789529289731, 62.269368049908536, 80.69793766263666 " fill="none" id="curve_2" stroke="#000000" stroke-linecap="round" stroke-linejoin="round" stroke-width="6.167141609467051"/>
  <path d="M 62.269368049908536, 80.69793766263666 Q 61.961104950238926, 93.23040847458321, 61.30569662895128, 116.60357883751644 " fill="none" id="curve_2" stroke="#000000" stroke-linecap="round" stroke-linejoin="round" stroke-width="5.415397144833049"/>
  <path d="M 61.30569662895128, 116.60357883751644 Q 63.007361172745085, 116.25662024171253, 63.89184180146654, 115.2201244160923 " fill="none" id="curve_2" stroke="#000000" stroke-linecap="round" stroke-linejoin="round" stroke-width="4.139592627893506"/>
  <path d="M 59.402954870935126, 37.04082839464263 Q 65.81610398568567, 33.050679574952326, 70.7783631064719, 22.776856221301976 " fill="none" id="curve_4" stroke="#000000" stroke-linecap="round" stroke-linejoin="round" stroke-width="2.654918510264908"/>
  <path d="M 52.12679632238387, 56.66699448487102 Q 51.086641878227006, 56.33981757822943, 49.83850282335691, 55.80537809436549 " fill="none" id="curve_5" stroke="#000000" stroke-linecap="round" stroke-linejoin="round" stroke-width="3.792958774101536"/>
  <path d="M 33.21586742661039, 92.59319268935946 Q 35.43356339234295, 84.48483776160948, 41.385408207202865, 74.23561802277416 " fill="none" id="curve_6" stroke="#000000" stroke-linecap="round" stroke-linejoin="round" stroke-width="2.2387282486964057"/>
  <path d="M 50.06136740193046, 65.25686467184767 Q 45.35063374497704, 65.87912526318819, 43.57816524958751, 70.21749207454377 " fill="none" id="curve_7" stroke="#000000" stroke-linecap="round" stroke-linejoin="round" stroke-width="2.977308856934004"/>
  <path d="M 61.409839714009266, 93.17441886432464 Q 61.10078524014139, 91.18960232376504, 60.386276748094076, 89.3362628395125 " fill="none" id="curve_8" stroke="#000000" stroke-linecap="round" stroke-linejoin="round" stroke-width="3.879270237965091"/>
  <path d="M 68.28210374537089, 52.21598567521647 Q 68.29483118854289, 35.60777177243196, 68.43123434406279, 30.169418799961203 " fill="none" id="curve_9" stroke="#000000" stroke-linecap="round" stroke-linejoin="round" stroke-width="2.114018967032378"/>
  <path d="M 32.52213145823117, 89.31856204655817 Q 26.10748123788581, 95.35197463401968, 20.08943177325593, 108.68087095042414 " fill="none" id="curve_27" stroke="#000000" stroke-linecap="round" stroke-linejoin="round" stroke-width="2.715971800841683"/>
  <path d="M 64.44299170400146, 72.24573322761393 Q 63.247900399334135, 69.15955443758448, 62.094143089956226, 60.88233388878984 " fill="none" id="curve_29" stroke="#000000" stroke-linecap="round" stroke-linejoin="round" stroke-width="2.5366690677986536"/>
  <path d="M 60.16210780590185, 90.74605887490124 Q 60.40955739012399, 95.05219330327353, 60.626229649387895, 102.39698331822441 " fill="none" id="curve_30" stroke="#000000" stroke-linecap="round" stroke-linejoin="round" stroke-width="2.855561177573531"/>
  <path d="M 60.626229649387895, 102.39698331822441 Q 60.70011504029121, 85.94050809269706, 63.18750054641684, 84.3932899383764 " fill="none" id="curve_30" stroke="#000000" stroke-linecap="round" stroke-linejoin="round" stroke-width="2.809235511762691"/>
  <path d="M 73.90113439469009, 18.74172830622284 Q 72.29541644474335, 20.09189871068714, 68.90352669218937, 21.98342628791344 " fill="none" id="curve_35" stroke="#000000" stroke-linecap="round" stroke-linejoin="round" stroke-width="2.855102926360231"/>
  <path d="M 62.531228247530734, 93.94619101564479 Q 61.41319422252089, 93.79128107689314, 59.8888170140751, 93.52927640537477 " fill="none" id="curve_38" stroke="#000000" stroke-linecap="round" stroke-linejoin="round" stroke-width="4.321527166953437"/>
  <path d="M 37.6869796006884, 83.31057333760754 Q 37.46517675589576, 84.61636405954687, 36.743365014329186, 86.49002059032284 " fill="none" id="curve_53" stroke="#000000" stroke-linecap="round" stroke-linejoin="round" stroke-width="2.3061283519777906"/>
  <path d="M 60.44223976135254, 62.98533058166504 Q 61.195601123961566, 71.00197498853015, 65.19143140815785, 75.04304672616865 " fill="none" id="curve_67" stroke="#000000" stroke-linecap="round" stroke-linejoin="round" stroke-width="3.303850504626451"/>
  <path d="M 67.07592850597688, 44.402214583452185 Q 66.6353179137679, 44.77567201112722, 66.3246100709071, 46.08589726945137 " fill="none" id="curve_69" stroke="#000000" stroke-linecap="round" stroke-linejoin="round" stroke-width="3.3701504857814264"/>
  <path d="M 60.80439472198486, 34.43669509887695 Q 64.30078561626686, 31.289965064249174, 68.61611887295862, 25.18833286288907 " fill="none" id="curve_83" stroke="#000000" stroke-linecap="round" stroke-linejoin="round" stroke-width="2.8043165031837325"/>
  <path d="M 66.95827455255088, 44.67465796593726 Q 66.48426038592949, 45.2733504535809, 66.15435169338812, 47.259220513627135 " fill="none" id="curve_84" stroke="#000000" stroke-linecap="round" stroke-linejoin="round" stroke-width="2.6886309650312508"/>
  <path d="M 59.123148846984805, 89.30327298029664 Q 60.13919064788886, 97.24393667300866, 61.809863284166155, 111.11959106677904 " fill="none" id="curve_99" stroke="#000000" stroke-linecap="round" stroke-linejoin="round" stroke-width="2.2697285042344975"/>
  <path d="M 55.95165195877017, 47.501219012573756 Q 57.134557069623924, 42.2560281474275, 61.56544461954307, 39.08190633452041 " fill="none" id="curve_103" stroke="#000000" stroke-linecap="round" stroke-linejoin="round" stroke-width="2.1352466610352496"/>
  <path d="M 9.409480107208196, 117.87903592461953 Q 9.190765095637678, 117.91529954832001, 8.774150566321481, 117.95109065847481 " fill="none" id="curve_119" stroke="#000000" stroke-linecap="round" stroke-linejoin="round" stroke-width="2.924673116466108"/>
  <path d="M 22.582122802734375, 103.61371040344238 Q 23.825344118547985, 103.33553382276047, 24.50022483864909, 101.85713232596638 " fill="none" id="curve_133" stroke="#000000" stroke-linecap="round" stroke-linejoin="round" stroke-width="3.4066930691882664"/>
  <path d="M 58.484980111099674, 103.36274753382213 Q 60.70551417047868, 108.0592092422754, 64.2898688031048, 112.74510817155686 " fill="none" id="curve_135" stroke="#000000" stroke-linecap="round" stroke-linejoin="round" stroke-width="2.9233803885522813"/>
  <path d="M 65.37332511500166, 45.05595400894292 Q 65.82230743688733, 44.960620271736786, 66.67437721909644, 44.78488322951616 " fill="none" id="curve_139" stroke="#000000" stroke-linecap="round" stroke-linejoin="round" stroke-width="2.130553959748848"/>
  <path d="M 63.280877053084815, 58.9004964868618 Q 62.96202475756003, 59.049896869422255, 62.60457825499489, 59.385465154510015 " fill="none" id="curve_142" stroke="#000000" stroke-linecap="round" stroke-linejoin="round" stroke-width="3.1823387224214676"/>
</svg>
