<?xml version="1.0" ?>
<svg height="140" width="140" xmlns="http://www.w3.org/2000/svg">
  <path d="M 52.21904754638672, 34.64532279968262 Q 52.021730425748366, 34.66194779369001, 51.85296441085835, 34.723331749045606 " fill="none" id="curve_1" stroke="#000000" stroke-linecap="round" stroke-linejoin="round" stroke-width="8.61749621281944"/>
  <path d="M 51.85296441085835, 34.723331749045606 Q 49.112857480172934, 45.919587159450174, 40.33149570177368, 54.43763020565264 " fill="none" id="curve_1" stroke="#000000" stroke-linecap="round" stroke-linejoin="round" stroke-width="10.520236303571817"/>
  <path d="M 40.33149570177368, 54.43763020565264 Q 32.13235187288759, 61.7519584897037, 22.696006698949105, 71.88956261375095 " fill="none" id="curve_1" stroke="#000000" stroke-linecap="round" stroke-linejoin="round" stroke-width="5.64889285559665"/>
  <path d="M 40.58310389365127, 91.0745983932876 Q 43.06786303707585, 78.58232499346865, 49.03298249003654, 49.569032995030604 " fill="none" id="curve_2" stroke="#000000" stroke-linecap="round" stroke-linejoin="round" stroke-width="6.064050660036367"/>
  <path d="M 44.49111277173658, 87.65761945999873 Q 43.9603548767096, 87.9190546054825, 43.476940799643785, 88.46533002723392 " fill="none" id="curve_3" stroke="#000000" stroke-linecap="round" stroke-linejoin="round" stroke-width="7.080017847443482"/>
  <path d="M 21.31391893713692, 70.84875943530733 Q 23.56549725050597, 70.89279660739157, 24.436958529306924, 71.19868717032973 " fill="none" id="curve_4" stroke="#000000" stroke-linecap="round" stroke-linejoin="round" stroke-width="8.232310494884086"/>
  <path d="M 54.4647849456752, 34.2976916333872 Q 54.12136063863487, 35.116581112232424, 53.22782220838498, 36.75145382442313 " fill="none" id="curve_8" stroke="#000000" stroke-linecap="round" stroke-linejoin="round" stroke-width="3.5061104636896556"/>
  <path d="M 53.364125481514215, 34.92987625285373 Q 53.596251803610556, 35.317410442845734, 54.06107009268127, 36.29061194392841 " fill="none" id="curve_9" stroke="#000000" stroke-linecap="round" stroke-linejoin="round" stroke-width="3.529694318443072"/>
  <path d="M 51.0454454479311, 34.605758911250234 Q 52.949654954093006, 35.05275037402981, 53.927016107516025, 38.9961048747859 " fill="none" id="curve_10" stroke="#000000" stroke-linecap="round" stroke-linejoin="round" stroke-width="3.8497546616199085"/>
  <path d="M 23.57003236281404, 67.39332742830804 Q 24.317071587942838, 67.76148682915986, 24.83184987910731, 69.53564312030018 " fill="none" id="curve_12" stroke="#000000" stroke-linecap="round" stroke-linejoin="round" stroke-width="7.662149831489951"/>
  <path d="M 54.224620184745454, 34.07363883291499 Q 53.57361316725212, 47.726254601705286, 46.95777998220667, 52.90672288842086 " fill="none" id="curve_14" stroke="#000000" stroke-linecap="round" stroke-linejoin="round" stroke-width="3.580242976890563"/>
  <path d="M 44.1860670225487, 87.70512529321994 Q 43.68049633587607, 78.21318852425526, 42.632276935001705, 66.79770129416963 " fill="none" id="curve_15" stroke="#000000" stroke-linecap="round" stroke-linejoin="round" stroke-width="3.6495753451582753"/>
  <path d="M 27.175656046565962, 67.82351648507743 Q 25.571176410953957, 68.72870253173171, 23.85951200708175, 70.5146777981572 " fill="none" id="curve_16" stroke="#000000" stroke-linecap="round" stroke-linejoin="round" stroke-width="7.243249571747224"/>
  <path d="M 39.63098693847084, 90.80459870189951 Q 41.03446631123336, 89.17187615039752, 43.31525626527779, 85.59803544509785 " fill="none" id="curve_18" stroke="#000000" stroke-linecap="round" stroke-linejoin="round" stroke-width="4.962731747654328"/>
  <path d="M 42.26857958136007, 91.75181080347556 Q 42.277764728627304, 86.63550225345936, 42.30421362825772, 81.70771871118174 " fill="none" id="curve_28" stroke="#000000" stroke-linecap="round" stroke-linejoin="round" stroke-width="6.845768894737659"/>
  <path d="M 23.11326609088398, 71.37517997458473 Q 24.967496568818117, 70.9646408929409, 25.98748911518379, 68.49910404625344 " fill="none" id="curve_31" stroke="#000000" stroke-linecap="round" stroke-linejoin="round" stroke-width="8.399961215696171"/>
  <path d="M 25.98748911518379, 68.49910404625344 Q 25.120844442473537, 68.24380740058932, 24.204069824492393, 67.60230311837758 " fill="none" id="curve_31" stroke="#000000" stroke-linecap="round" stroke-linejoin="round" stroke-width="7.214785842637335"/>
  <path d="M 43.25147829447994, 83.25354098197563 Q 44.0420112459237, 84.42303578674533, 44.78597199397952, 86.5884397590973 " fill="none" id="curve_33" stroke="#000000" stroke-linecap="round" stroke-linejoin="round" stroke-width="6.6696011328172675"/>
  <path d="M 39.547744189300474, 87.82114031017014 Q 40.026481502536264, 87.58981151827345, 40.4983078980762, 87.12598158138692 " fill="none" id="curve_34" stroke="#000000" stroke-linecap="round" stroke-linejoin="round" stroke-width="5.348624759066743"/>
  <path d="M 50.60656761131739, 39.29794708508892 Q 50.79589714084617, 35.0221975521229, 52.261155829495706, 33.918741694088325 " fill="none" id="curve_35" stroke="#000000" stroke-linecap="round" stroke-linejoin="round" stroke-width="5.617627805173816"/>
  <path d="M 52.15578439095562, 35.17712915466291 Q 51.86895445745584, 34.84432874927383, 51.33059112974447, 34.15077119340316 " fill="none" id="curve_41" stroke="#000000" stroke-linecap="round" stroke-linejoin="round" stroke-width="4.531720834294671"/>
  <path d="M 22.103090952459354, 74.19720934976766 Q 25.18579386189215, 73.34864564547566, 27.47038802116284, 71.07246059620326 " fill="none" id="curve_56" stroke="#000000" stroke-linecap="round" stroke-linejoin="round" stroke-width="2.6582065570564697"/>
  <path d="M 50.06386200220886, 33.703210248144835 Q 50.92586817285996, 34.619330984710906, 53.52522898204456, 35.33795312100668 " fill="none" id="curve_58" stroke="#000000" stroke-linecap="round" stroke-linejoin="round" stroke-width="6.1241339588293915"/>
  <path d="M 53.52522898204456, 35.33795312100668 Q 52.60083423350616, 35.0063145452151, 51.0154857024523, 34.66912915121741 " fill="none" id="curve_58" stroke="#000000" stroke-linecap="round" stroke-linejoin="round" stroke-width="7.922977961158112"/>
  <path d="M 53.3175048828125, 33.40608596801758 Q 50.02676493964944, 33.892184776142564, 48.52777906099254, 37.69039079322425 " fill="none" id="curve_72" stroke="#000000" stroke-linecap="round" stroke-linejoin="round" stroke-width="6.256753399745174"/>
  <path d="M 54.42575824410361, 33.30271050353575 Q 53.98156748252738, 32.830257457612, 52.70992851087388, 32.52242407784245 " fill="none" id="curve_73" stroke="#000000" stroke-linecap="round" stroke-linejoin="round" stroke-width="4.554996521377277"/>
  <path d="M 41.56067600446092, 85.38243408646787 Q 41.87347172959066, 76.69341088471553, 43.337305024744076, 72.6124353413426 " fill="none" id="curve_101" stroke="#000000" stroke-linecap="round" stroke-linejoin="round" stroke-width="4.591414684716215"/>
  <path d="M 50.85412076418288, 57.76911599326212 Q 47.130783170582774, 60.1000787159544, 43.21854989309538, 63.79519357625176 " fill="none" id="curve_129" stroke="#000000" stroke-linecap="round" stroke-linejoin="round" stroke-width="3.875475176364906"/>
  <path d="M 38.77276881657522, 89.91132101040915 Q 40.510731424668755, 84.45622487808008, 43.57155510117827, 79.11549469366955 " fill="none" id="curve_131" stroke="#000000" stroke-linecap="round" stroke-linejoin="round" stroke-width="3.647555879172715"/>
  <path d="M 53.509746194978035, 37.45687954292349 Q 54.6274861954452, 36.83513946348754, 55.51419936513783, 35.512498325782666 " fill="none" id="curve_173" stroke="#000000" stroke-linecap="round" stroke-linejoin="round" stroke-width="4.3350805691878"/>
</svg>
