<?xml version="1.0" ?>
<svg height="140" width="140" xmlns="http://www.w3.org/2000/svg">
  <path d="M 50.39012145996094, 15.963220596313477 Q 47.3404148638314, 17.56742022617548, 44.31748730929036, 23.69687747196275 " fill="none" id="curve_1" stroke="#000000" stroke-linecap="round" stroke-linejoin="round" stroke-width="7.685868728767933"/>
  <path d="M 44.31748730929036, 23.69687747196275 Q 38.30571375197045, 26.88478115140084, 29.15061837460767, 38.36966911058181 " fill="none" id="curve_1" stroke="#000000" stroke-linecap="round" stroke-linejoin="round" stroke-width="4.815522400448837"/>
  <path d="M 29.15061837460767, 38.36966911058181 Q 24.594328646045547, 45.96657058236372, 11.877209268649132, 60.429786988436604 " fill="none" id="curve_1" stroke="#000000" stroke-linecap="round" stroke-linejoin="round" stroke-width="5.781709351212378"/>
  <path d="M 11.877209268649132, 60.429786988436604 Q 8.968777214282813, 62.344337941279385, 7.5132694754704445, 66.9491430825364 " fill="none" id="curve_1" stroke="#000000" stroke-linecap="round" stroke-linejoin="round" stroke-width="3.1391694733094893"/>
  <path d="M 50.0228232309065, 19.563330779749453 Q 51.57426695273246, 24.393748343382967, 52.88806579856649, 58.81508078832752 " fill="none" id="curve_3" stroke="#000000" stroke-linecap="round" stroke-linejoin="round" stroke-width="6.629424447036841"/>
  <path d="M 52.88806579856649, 58.81508078832752 Q 55.998961965973685, 65.17208660211433, 57.32279837122885, 92.15020652852198 " fill="none" id="curve_3" stroke="#000000" stroke-linecap="round" stroke-linejoin="round" stroke-width="5.487406596952218"/>
  <path d="M 57.32279837122885, 92.15020652852198 Q 56.36968003082242, 79.66272114152979, 53.29455492879992, 71.38997088498944 " fill="none" id="curve_3" stroke="#000000" stroke-linecap="round" stroke-linejoin="round" stroke-width="3.4614964705064457"/>
  <path d="M 49.92133825361742, 36.49350114112333 Q 51.39196734165137, 31.10012314945424, 52.37766612839675, 14.996238957368696 " fill="none" id="curve_4" stroke="#000000" stroke-linecap="round" stroke-linejoin="round" stroke-width="3.920571861075543"/>
  <path d="M 52.37766612839675, 14.996238957368696 Q 51.372370626326116, 23.46839489123946, 49.62816995522712, 33.76916119229842 " fill="none" id="curve_4" stroke="#000000" stroke-linecap="round" stroke-linejoin="round" stroke-width="3.67756328320365"/>
  <path d="M 49.62816995522712, 33.76916119229842 Q 52.43855684254593, 31.46305770318671, 53.417050625081345, 20.567465050508716 " fill="none" id="curve_4" stroke="#000000" stroke-linecap="round" stroke-linejoin="round" stroke-width="3.8445131952832883"/>
  <path d="M 21.0622666574262, 47.19438087559421 Q 16.877293412013294, 53.74143272351269, 10.326733662405225, 60.012973568094296 " fill="none" id="curve_5" stroke="#000000" stroke-linecap="round" stroke-linejoin="round" stroke-width="3.3538140289764775"/>
  <path d="M 10.326733662405225, 60.012973568094296 Q 17.220775903144204, 52.83629963227493, 27.00672468750397, 40.26800374561485 " fill="none" id="curve_5" stroke="#000000" stroke-linecap="round" stroke-linejoin="round" stroke-width="3.2254947530609526"/>
  <path d="M 53.60768339853577, 51.82890958639888 Q 51.256769125213594, 45.50378586374062, 47.90112755886978, 32.45012601336231 " fill="none" id="curve_6" stroke="#000000" stroke-linecap="round" stroke-linejoin="round" stroke-width="3.029989119352284"/>
  <path d="M 54.06776355048407, 69.66674453073014 Q 53.141531518843635, 62.4162230966992, 51.621308525387114, 50.8739130950685 " fill="none" id="curve_10" stroke="#000000" stroke-linecap="round" stroke-linejoin="round" stroke-width="2.868176927549897"/>
  <path d="M 52.06127019546376, 56.0487266868557 Q 53.16263205736711, 56.57939219772811, 54.166693900807985, 58.63873229842651 " fill="none" id="curve_19" stroke="#000000" stroke-linecap="round" stroke-linejoin="round" stroke-width="4.459023427167988"/>
  <path d="M 47.97014448031438, 17.000303826633996 Q 48.87203603686703, 16.33527428104542, 50.616478434315624, 14.7600963587992 " fill="none" id="curve_29" stroke="#000000" stroke-linecap="round" stroke-linejoin="round" stroke-width="2.766550813712905"/>
  <path d="M 50.90685784179338, 61.796435670491185 Q 51.54117614126632, 57.226987556829336, 54.74441547311625, 55.602976583072 " fill="none" id="curve_33" stroke="#000000" stroke-linecap="round" stroke-linejoin="round" stroke-width="4.35228366313357"/>
  <path d="M 55.27653575485448, 64.79969975365492 Q 56.546097541740664, 64.95327658646362, 57.47844216883972, 65.42641889274334 " fill="none" id="curve_74" stroke="#000000" stroke-linecap="round" stroke-linejoin="round" stroke-width="3.2283523392564812"/>
  <path d="M 55.36035502428739, 85.03958042061757 Q 56.65597318635262, 82.2889966875135, 58.31811329698119, 78.14824104696444 " fill="none" id="curve_90" stroke="#000000" stroke-linecap="round" stroke-linejoin="round" stroke-width="3.2818891695973726"/>
  <path d="M 31.31537230949352, 35.40096759804297 Q 30.552052253298875, 35.635292180459466, 29.77805052770529, 36.17707475215088 " fill="none" id="curve_92" stroke="#000000" stroke-linecap="round" stroke-linejoin="round" stroke-width="4.0991112776739165"/>
  <path d="M 47.91884802824973, 28.875410723583332 Q 48.50621585916916, 29.27439792567541, 49.35856931895986, 30.114463695827375 " fill="none" id="curve_109" stroke="#000000" stroke-linecap="round" stroke-linejoin="round" stroke-width="2.5887546637805015"/>
  <path d="M 53.48277732864142, 45.03660099848908 Q 52.41369189586685, 44.714807478646726, 50.95685683939096, 44.20311479092194 " fill="none" id="curve_110" stroke="#000000" stroke-linecap="round" stroke-linejoin="round" stroke-width="3.8975721944601815"/>
  <path d="M 51.86338527432015, 58.748774492704456 Q 51.628881370547376, 58.57568091281302, 51.13337402140906, 58.17509477964979 " fill="none" id="curve_111" stroke="#000000" stroke-linecap="round" stroke-linejoin="round" stroke-width="3.031309614523893"/>
  <path d="M 50.31493773921386, 44.17321528322407 Q 49.899009436410545, 44.12675363589619, 49.457085534788305, 44.052093397802906 " fill="none" id="curve_126" stroke="#000000" stroke-linecap="round" stroke-linejoin="round" stroke-width="3.8103716592809933"/>
  <path d="M 48.92206935305967, 27.344738728582346 Q 48.73538253534649, 27.938019089868185, 48.50793803929857, 29.543781390043304 " fill="none" id="curve_141" stroke="#000000" stroke-linecap="round" stroke-linejoin="round" stroke-width="2.1764460012015023"/>
</svg>
