<?xml version="1.0" ?>
<svg height="140" width="140" xmlns="http://www.w3.org/2000/svg">
  <path d="M 29.793506622314453, 55.73803949356079 Q 30.363138296591515, 54.756471011963, 32.44638052138882, 52.5893391013002 " fill="none" id="curve_1" stroke="#000000" stroke-linecap="round" stroke-linejoin="round" stroke-width="9.606181538428922"/>
  <path d="M 32.44638052138882, 52.5893391013002 Q 25.854180028073714, 55.04890744143428, 20.37448101837741, 67.52303471185785 " fill="none" id="curve_1" stroke="#000000" stroke-linecap="round" stroke-linejoin="round" stroke-width="4.175365094088067"/>
  <path d="M 20.37448101837741, 67.52303471185785 Q 19.054686004673187, 70.70967278058014, 18.37626296699714, 77.57412122521902 " fill="none" id="curve_1" stroke="#000000" stroke-linecap="round" stroke-linejoin="round" stroke-width="7.811892787689766"/>
  <path d="M 18.37626296699714, 77.57412122521902 Q 19.32218100185417, 97.54670048351375, 32.82317967713071, 100.15091954845636 " fill="none" id="curve_1" stroke="#000000" stroke-linecap="round" stroke-linejoin="round" stroke-width="5.304922728176595"/>
  <path d="M 32.82317967713071, 100.15091954845636 Q 52.486145113316354, 98.22262121810843, 65.17069412422958, 75.43114420107554 " fill="none" id="curve_1" stroke="#000000" stroke-linecap="round" stroke-linejoin="round" stroke-width="4.541811655809792"/>
  <path d="M 65.17069412422958, 75.43114420107554 Q 67.26069927825345, 72.07131582777734, 68.46591061803895, 63.878794022595194 " fill="none" id="curve_1" stroke="#000000" stroke-linecap="round" stroke-linejoin="round" stroke-width="5.009013179423375"/>
  <path d="M 68.46591061803895, 63.878794022595194 Q 66.9770358176466, 53.95780687322347, 49.77505518709073, 51.046006263946225 " fill="none" id="curve_1" stroke="#000000" stroke-linecap="round" stroke-linejoin="round" stroke-width="6.9455633312246"/>
  <path d="M 49.77505518709073, 51.046006263946225 Q 35.526350156043584, 52.434225542438455, 31.39625808517196, 63.5362333832867 " fill="none" id="curve_1" stroke="#000000" stroke-linecap="round" stroke-linejoin="round" stroke-width="4.77038401684118"/>
  <path d="M 36.85045200396937, 50.050873632654785 Q 40.924338348553185, 51.27455527800747, 44.01835351349221, 54.40866453297127 " fill="none" id="curve_2" stroke="#000000" stroke-linecap="round" stroke-linejoin="round" stroke-width="4.196583584402211"/>
  <path d="M 23.102070930013213, 67.33038732708619 Q 24.29487400085399, 62.86998189759958, 28.180778870187407, 60.40694346625143 " fill="none" id="curve_3" stroke="#000000" stroke-linecap="round" stroke-linejoin="round" stroke-width="2.5750177389486537"/>
  <path d="M 89.85723421711769, 50.65015586080945 Q 89.40178739666564, 52.11112582518506, 89.27022543716126, 82.0051730639022 " fill="none" id="curve_6" stroke="#000000" stroke-linecap="round" stroke-linejoin="round" stroke-width="2.642644838356554"/>
  <path d="M 89.27022543716126, 82.0051730639022 Q 89.25426504759122, 88.57038241268086, 89.19849851198822, 107.6395508195811 " fill="none" id="curve_6" stroke="#000000" stroke-linecap="round" stroke-linejoin="round" stroke-width="2.596319401854629"/>
  <path d="M 89.19849851198822, 107.6395508195811 Q 89.20525442682423, 114.96598018805614, 89.24011509293616, 129.14276050571013 " fill="none" id="curve_6" stroke="#000000" stroke-linecap="round" stroke-linejoin="round" stroke-width="2.4942041671647157"/>
  <path d="M 89.24011509293616, 129.14276050571013 Q 89.20802606419744, 134.85313253204907, 89.14546040767713, 138.63428309269858 " fill="none" id="curve_6" stroke="#000000" stroke-linecap="round" stroke-linejoin="round" stroke-width="2.610378832381312"/>
  <path d="M 89.14546040767713, 138.63428309269858 Q 89.034345127132, 138.6745706924087, 88.85653473607536, 138.71587459094562 " fill="none" id="curve_6" stroke="#000000" stroke-linecap="round" stroke-linejoin="round" stroke-width="1.789344740353064"/>
  <path d="M 56.04093793541523, 55.80621188373005 Q 59.86629563889334, 56.759323416368176, 64.66000894041396, 57.76596890625842 " fill="none" id="curve_11" stroke="#000000" stroke-linecap="round" stroke-linejoin="round" stroke-width="1.9560422676432268"/>
  <path d="M 31.69761063682037, 66.27420288287969 Q 32.160722866276174, 66.20755318274605, 32.325682100852674, 65.69305573439745 " fill="none" id="curve_13" stroke="#000000" stroke-linecap="round" stroke-linejoin="round" stroke-width="2.7579694856664605"/>
  <path d="M 47.040744071214505, 54.17643296043914 Q 46.316736211990644, 54.467313925010096, 44.72462861550759, 54.743239919199496 " fill="none" id="curve_15" stroke="#000000" stroke-linecap="round" stroke-linejoin="round" stroke-width="3.720491298302566"/>
  <path d="M 89.26909658718833, 47.7027179463942 Q 89.285965801521, 43.07810314464538, 89.30733340554794, 19.727548094982833 " fill="none" id="curve_16" stroke="#000000" stroke-linecap="round" stroke-linejoin="round" stroke-width="2.146653910641636"/>
  <path d="M 89.30733340554794, 19.727548094982833 Q 89.27771540474356, 5.328093311182723, 88.90751701977706, 1.3127357370876958 " fill="none" id="curve_16" stroke="#000000" stroke-linecap="round" stroke-linejoin="round" stroke-width="2.2091410084478897"/>
  <path d="M 88.90751701977706, 1.3127357370876958 Q 88.42638603135809, 1.5867737862258064, 87.77403848004509, 1.944524262329984 " fill="none" id="curve_16" stroke="#000000" stroke-linecap="round" stroke-linejoin="round" stroke-width="2.4114368292181556"/>
  <path d="M 41.057730811394144, 97.90508824670377 Q 32.09688753457869, 97.88736018016228, 27.425903908581944, 97.80492482216366 " fill="none" id="curve_21" stroke="#000000" stroke-linecap="round" stroke-linejoin="round" stroke-width="2.87601451288407"/>
  <path d="M 21.42023980494839, 69.55320327757464 Q 21.178429002406787, 69.08785419484596, 20.346508626568024, 68.63409492092208 " fill="none" id="curve_22" stroke="#000000" stroke-linecap="round" stroke-linejoin="round" stroke-width="4.336190274838487"/>
  <path d="M 47.83349184203009, 92.9706496704867 Q 59.610944188802556, 88.32260745408966, 67.61180081475091, 67.69055179295863 " fill="none" id="curve_24" stroke="#000000" stroke-linecap="round" stroke-linejoin="round" stroke-width="2.9007959849962925"/>
  <path d="M 38.54075726463525, 53.42814802501816 Q 35.166639644810495, 55.9872513712654, 30.270178323203872, 61.02543265691787 " fill="none" id="curve_25" stroke="#000000" stroke-linecap="round" stroke-linejoin="round" stroke-width="3.5311804429779396"/>
  <path d="M 20.24128814262999, 64.66684169008641 Q 24.385152809012006, 64.53046470476454, 26.535985837629678, 63.884602574945355 " fill="none" id="curve_26" stroke="#000000" stroke-linecap="round" stroke-linejoin="round" stroke-width="2.6283540373999443"/>
  <path d="M 19.621359819669188, 67.61174096766653 Q 20.554014652086632, 68.99052842008177, 21.19273103514037, 72.29633854342401 " fill="none" id="curve_27" stroke="#000000" stroke-linecap="round" stroke-linejoin="round" stroke-width="4.941023817897568"/>
  <path d="M 35.478548327899716, 100.63083773705443 Q 39.71238200758019, 100.0942079698937, 42.53650597515855, 97.81100941206422 " fill="none" id="curve_42" stroke="#000000" stroke-linecap="round" stroke-linejoin="round" stroke-width="2.8254965977026703"/>
  <path d="M 25.984577178955078, 99.83916091918945 Q 23.80922471603342, 96.24037217911238, 18.852087410884057, 90.60808651745856 " fill="none" id="curve_56" stroke="#000000" stroke-linecap="round" stroke-linejoin="round" stroke-width="3.0359717541993785"/>
  <path d="M 35.94315363358445, 49.15628492062431 Q 35.33122376878294, 49.284508106352476, 34.597736109569695, 49.49945029805856 " fill="none" id="curve_59" stroke="#000000" stroke-linecap="round" stroke-linejoin="round" stroke-width="3.8976997089970107"/>
  <path d="M 67.51147642064383, 60.650324411278376 Q 66.62924093929377, 57.51514750557894, 62.212951249539664, 54.10522834931654 " fill="none" id="curve_62" stroke="#000000" stroke-linecap="round" stroke-linejoin="round" stroke-width="2.478967745834963"/>
  <path d="M 18.9512716434135, 67.08718655328084 Q 19.282815064411704, 65.91886585289758, 20.673230205729617, 64.91731467351987 " fill="none" id="curve_95" stroke="#000000" stroke-linecap="round" stroke-linejoin="round" stroke-width="2.4319488981879727"/>
  <path d="M 62.61767535140241, 57.238561932522074 Q 63.41779092388629, 55.9394487765714, 64.9296979348444, 54.17421730568674 " fill="none" id="curve_98" stroke="#000000" stroke-linecap="round" stroke-linejoin="round" stroke-width="2.937280340299407"/>
  <path d="M 90.32956987625452, 49.60253318017632 Q 89.8075663020659, 49.994526591253184, 88.74828644460571, 50.549199771254266 " fill="none" id="curve_101" stroke="#000000" stroke-linecap="round" stroke-linejoin="round" stroke-width="2.550535161420213"/>
  <path d="M 64.8331641240816, 59.23140102525634 Q 65.81146197389172, 61.76309839814269, 66.9369165188537, 66.74673762192117 " fill="none" id="curve_146" stroke="#000000" stroke-linecap="round" stroke-linejoin="round" stroke-width="2.6345861098967527"/>
  <path d="M 52.30717086791992, 88.48549270629883 Q 55.595890317544594, 85.72481323476497, 60.56834324331044, 80.5657920974877 " fill="none" id="curve_160" stroke="#000000" stroke-linecap="round" stroke-linejoin="round" stroke-width="2.5917522461706692"/>
  <path d="M 19.301284206850607, 83.35219420828207 Q 21.06617759407298, 94.23253205919855, 27.913051769205076, 98.63752257778128 " fill="none" id="curve_165" stroke="#000000" stroke-linecap="round" stroke-linejoin="round" stroke-width="2.9769500873279067"/>
  <path d="M 20.021803723376035, 80.87767616576662 Q 20.87897011470558, 94.32053533162608, 25.474771182069382, 98.25633096507929 " fill="none" id="curve_167" stroke="#000000" stroke-linecap="round" stroke-linejoin="round" stroke-width="2.9668816552453903"/>
</svg>
