<?xml version="1.0" ?>
<svg height="140" width="140" xmlns="http://www.w3.org/2000/svg">
  <path d="M 86.55063390731812, 93.27904510498047 Q 87.44635295045444, 92.5032977196689, 87.63274469893109, 74.5807839390634 " fill="none" id="curve_1" stroke="#000000" stroke-linecap="round" stroke-linejoin="round" stroke-width="5.242670661408408"/>
  <path d="M 87.63274469893109, 74.5807839390634 Q 87.9470146942778, 72.98388800601349, 88.05676811757567, 44.70574930331787 " fill="none" id="curve_1" stroke="#000000" stroke-linecap="round" stroke-linejoin="round" stroke-width="4.907539179622307"/>
  <path d="M 88.05676811757567, 44.70574930331787 Q 88.00387415229157, 36.351023279080735, 87.8534595160805, 12.07620663694955 " fill="none" id="curve_1" stroke="#000000" stroke-linecap="round" stroke-linejoin="round" stroke-width="4.94175963810064"/>
  <path d="M 87.8534595160805, 12.07620663694955 Q 87.66536471916703, 4.474368538466057, 86.35810932771408, 2.7749342432557995 " fill="none" id="curve_1" stroke="#000000" stroke-linecap="round" stroke-linejoin="round" stroke-width="5.4388388763569715"/>
  <path d="M 52.56851381459414, 46.48693358558757 Q 36.98426830722775, 47.788402025809894, 26.695858978184102, 60.61546193246965 " fill="none" id="curve_2" stroke="#000000" stroke-linecap="round" stroke-linejoin="round" stroke-width="6.9325327461582305"/>
  <path d="M 26.695858978184102, 60.61546193246965 Q 23.010463270691517, 60.70397951802814, 21.399520415920264, 62.13506336541194 " fill="none" id="curve_2" stroke="#000000" stroke-linecap="round" stroke-linejoin="round" stroke-width="6.442112591735252"/>
  <path d="M 21.399520415920264, 62.13506336541194 Q 18.05854121445399, 74.69676246290611, 14.17484502919776, 91.39543647527154 " fill="none" id="curve_2" stroke="#000000" stroke-linecap="round" stroke-linejoin="round" stroke-width="5.830389908400867"/>
  <path d="M 14.17484502919776, 91.39543647527154 Q 15.902052107804215, 108.35489042633998, 21.19092468187444, 114.56503671525752 " fill="none" id="curve_2" stroke="#000000" stroke-linecap="round" stroke-linejoin="round" stroke-width="5.34023972735108"/>
  <path d="M 21.19092468187444, 114.56503671525752 Q 41.83388518659483, 112.57147888551398, 54.515855268496196, 82.29469237026184 " fill="none" id="curve_2" stroke="#000000" stroke-linecap="round" stroke-linejoin="round" stroke-width="4.774451063529488"/>
  <path d="M 54.515855268496196, 82.29469237026184 Q 58.470075542734435, 78.34707640710222, 60.11213127242874, 64.51980203781613 " fill="none" id="curve_2" stroke="#000000" stroke-linecap="round" stroke-linejoin="round" stroke-width="5.898906193291514"/>
  <path d="M 60.11213127242874, 64.51980203781613 Q 59.94972975523455, 48.95332345624732, 50.41821961389042, 48.135530611597524 " fill="none" id="curve_2" stroke="#000000" stroke-linecap="round" stroke-linejoin="round" stroke-width="5.55804084983197"/>
  <path d="M 26.704650898890765, 52.99191586719631 Q 23.494813902580425, 60.59345762306124, 17.46901434225792, 77.53803649057431 " fill="none" id="curve_3" stroke="#000000" stroke-linecap="round" stroke-linejoin="round" stroke-width="3.7475800556949346"/>
  <path d="M 17.46901434225792, 77.53803649057431 Q 21.334599708391103, 70.50681857407727, 26.24126655863546, 59.2860325942711 " fill="none" id="curve_3" stroke="#000000" stroke-linecap="round" stroke-linejoin="round" stroke-width="3.2950534224576717"/>
  <path d="M 26.24126655863546, 59.2860325942711 Q 27.909800497691883, 48.879317544073686, 48.849080643461704, 46.00638204115452 " fill="none" id="curve_3" stroke="#000000" stroke-linecap="round" stroke-linejoin="round" stroke-width="3.64299188103986"/>
  <path d="M 26.767986123866077, 51.63636547243454 Q 22.812444957900613, 55.97161543193975, 19.14777788902461, 65.47269339387007 " fill="none" id="curve_4" stroke="#000000" stroke-linecap="round" stroke-linejoin="round" stroke-width="3.2045455260624927"/>
  <path d="M 19.14777788902461, 65.47269339387007 Q 16.35892018147522, 72.18658978282603, 13.86168040133049, 82.81665117715042 " fill="none" id="curve_4" stroke="#000000" stroke-linecap="round" stroke-linejoin="round" stroke-width="3.2530880327448437"/>
  <path d="M 24.881917415439965, 114.30603760298574 Q 33.37318988235747, 114.12736074724285, 34.812766173269445, 110.10367831913074 " fill="none" id="curve_5" stroke="#000000" stroke-linecap="round" stroke-linejoin="round" stroke-width="3.6319834517796825"/>
  <path d="M 18.634002828232607, 112.29987070601717 Q 16.654733483347634, 110.10112716203179, 14.31831264003412, 107.30309381146056 " fill="none" id="curve_6" stroke="#000000" stroke-linecap="round" stroke-linejoin="round" stroke-width="4.495034407402832"/>
  <path d="M 89.78965382304162, 84.35469669495234 Q 88.28234232783404, 89.38052249973009, 87.53162990081188, 107.09046956878433 " fill="none" id="curve_11" stroke="#000000" stroke-linecap="round" stroke-linejoin="round" stroke-width="5.870141733243693"/>
  <path d="M 87.53162990081188, 107.09046956878433 Q 87.87438179853223, 110.39172141608293, 88.02379167700224, 138.34455129192776 " fill="none" id="curve_11" stroke="#000000" stroke-linecap="round" stroke-linejoin="round" stroke-width="5.043850336568946"/>
  <path d="M 88.02379167700224, 138.34455129192776 Q 87.04664520902995, 138.23771090130182, 85.61554481222275, 138.13317594261818 " fill="none" id="curve_11" stroke="#000000" stroke-linecap="round" stroke-linejoin="round" stroke-width="3.7373635905446867"/>
  <path d="M 89.50614425229138, 79.48168954669615 Q 89.05147807927462, 79.05002753026929, 88.43660094622972, 78.30327412727975 " fill="none" id="curve_13" stroke="#000000" stroke-linecap="round" stroke-linejoin="round" stroke-width="3.0888270241511773"/>
  <path d="M 48.87902749297707, 48.48967789973311 Q 50.24960383547689, 48.30292603424706, 53.25451908717403, 48.014241698956695 " fill="none" id="curve_15" stroke="#000000" stroke-linecap="round" stroke-linejoin="round" stroke-width="3.1604023675161907"/>
  <path d="M 85.13826116112023, 2.164223408389411 Q 85.59337193829543, 2.575977549041347, 86.29417719851624, 3.400943345403415 " fill="none" id="curve_18" stroke="#000000" stroke-linecap="round" stroke-linejoin="round" stroke-width="3.686338355183728"/>
  <path d="M 86.317959697293, 1.9657267593281702 Q 85.25047634379133, 2.0587368303990323, 83.78700372438942, 2.2041899303787784 " fill="none" id="curve_26" stroke="#000000" stroke-linecap="round" stroke-linejoin="round" stroke-width="2.449822520931246"/>
  <path d="M 52.40470676082675, 47.82082545745557 Q 54.12741919394573, 48.11090205113994, 56.192058217824226, 49.47095084199022 " fill="none" id="curve_44" stroke="#000000" stroke-linecap="round" stroke-linejoin="round" stroke-width="3.0398583727007664"/>
  <path d="M 17.142068615960987, 85.91328548308942 Q 16.79740978779828, 93.15871355487648, 15.22265906702297, 97.7704143973108 " fill="none" id="curve_117" stroke="#000000" stroke-linecap="round" stroke-linejoin="round" stroke-width="2.7200307199280664"/>
  <path d="M 15.22265906702297, 97.7704143973108 Q 15.503308493979494, 98.13470171659915, 15.83125021676979, 99.03548006107593 " fill="none" id="curve_117" stroke="#000000" stroke-linecap="round" stroke-linejoin="round" stroke-width="4.0303220594145195"/>
  <path d="M 86.76818895339966, 43.801090240478516 Q 86.70723236517587, 36.65256069077245, 86.53430731437105, 28.989510848003874 " fill="none" id="curve_157" stroke="#000000" stroke-linecap="round" stroke-linejoin="round" stroke-width="2.397069536417315"/>
  <path d="M 86.53430731437105, 28.989510848003874 Q 86.66393747252192, 17.33303895029819, 87.31601536729562, 11.98470592659043 " fill="none" id="curve_157" stroke="#000000" stroke-linecap="round" stroke-linejoin="round" stroke-width="2.0641733156586217"/>
  <path d="M 88.7151735272995, 2.0759923718895887 Q 87.89927406407762, 2.0097887163646977, 85.47259255469314, 1.96561630578172 " fill="none" id="curve_158" stroke="#000000" stroke-linecap="round" stroke-linejoin="round" stroke-width="2.3068159464753935"/>
  <path d="M 51.62463190422916, 48.10258257473423 Q 41.775828423249685, 48.75186543687733, 37.32858075146017, 52.20375302647217 " fill="none" id="curve_162" stroke="#000000" stroke-linecap="round" stroke-linejoin="round" stroke-width="2.5595991436151064"/>
  <path d="M 25.918769368703394, 51.18249322871992 Q 26.266118998613493, 50.880647042699486, 26.776178097692664, 50.20623025457283 " fill="none" id="curve_164" stroke="#000000" stroke-linecap="round" stroke-linejoin="round" stroke-width="2.7200614360861586"/>
</svg>
