<?xml version="1.0" ?>
<svg height="140" width="140" xmlns="http://www.w3.org/2000/svg">
  <path d="M 75.37839126586914, 115.55232238769531 Q 76.52040680606021, 113.94285180189641, 77.88277840983145, 108.77917115452681 "   
  <path d="M 77.88277840983145, 108.77917115452681 Q 79.92889569773389, 107.6082817708244, 80.37019567596367, 96.85090549339655 " fill="none" id="curve_1" stroke="#000000" stroke-linecap="round" stroke-linejoin="round" stroke-width="6.693872364231944"/>
  <path d="M 80.37019567596367, 96.85090549339655 Q 80.87357610401841, 93.96137980130737, 81.11555204214949, 83.28856770652072 " fill="none" id="curve_1" stroke="#000000" stroke-linecap="round" stroke-linejoin="round" stroke-width="5.2362282149811294"/>
  <path d="M 81.11555204214949, 83.28856770652072 Q 79.88419309949235, 70.75756825078675, 73.0128022370367, 55.78533369966121 " fill="none" id="curve_1" stroke="#000000" stroke-linecap="round" stroke-linejoin="round" stroke-width="5.664752022855231"/>
  <path d="M 73.0128022370367, 55.78533369966121 Q 69.1552544720329, 45.610259545292266, 55.34175006579498, 32.307685861886924 " fill="none" id="curve_1" stroke="#000000" stroke-linecap="round" stroke-linejoin="round" stroke-width="4.4130287693995385"/>
  <path d="M 32.84782412485488, 29.03452550213059 Q 23.03410788701145, 32.3528392147558, 17.08993681481509, 59.85407371659585 " fill="none" id="curve_2" stroke="#000000" stroke-linecap="round" stroke-linejoin="round" stroke-width="5.468209742117114"/>
  <path d="M 17.08993681481509, 59.85407371659585 Q 17.458236889334547, 82.37767271981409, 20.821722066488284, 96.5058241623603 " fill="none" id="curve_2" stroke="#000000" stroke-linecap="round" stroke-linejoin="round" stroke-width="5.4312955446056685"/>
  <path d="M 20.821722066488284, 96.5058241623603 Q 23.624208084792034, 118.30583496800605, 44.69459377168431, 129.50400817782338 " fill="none" id="curve_2" stroke="#000000" stroke-linecap="round" stroke-linejoin="round" stroke-width="4.89965488021977"/>
  <path d="M 44.69459377168431, 129.50400817782338 Q 50.31255445277976, 129.7261245960433, 58.95310889910317, 129.97049796565463 " fill="none" id="curve_2" stroke="#000000" stroke-linecap="round" stroke-linejoin="round" stroke-width="4.683903497218631"/>
  <path d="M 58.95310889910317, 129.97049796565463 Q 70.11975712787081, 126.1399825513595, 76.39116842084542, 115.3467881286867 " fill="none" id="curve_2" stroke="#000000" stroke-linecap="round" stroke-linejoin="round" stroke-width="5.5854664152709566"/>
  <path d="M 76.39116842084542, 115.3467881286867 Q 69.66751024417027, 120.95966077360208, 61.76858619506986, 128.5558560912264 " fill="none" id="curve_2" stroke="#000000" stroke-linecap="round" stroke-linejoin="round" stroke-width="3.2722903616820953"/>
  <path d="M 43.10224583296135, 127.0184005404722 Q 46.909071457178214, 127.4549397309552, 49.31467092634976, 128.284641374306 " fill="none" id="curve_3" stroke="#000000" stroke-linecap="round" stroke-linejoin="round" stroke-width="3.4539073918402283"/>
  <path d="M 49.31467092634976, 128.284641374306 Q 34.53811684522933, 128.06074468467432, 32.65166588867869, 123.34988007587643 " fill="none" id="curve_3" stroke="#000000" stroke-linecap="round" stroke-linejoin="round" stroke-width="3.699619338388634"/>
  <path d="M 32.65166588867869, 123.34988007587643 Q 28.490477890778788, 119.04168558838022, 25.20471384299009, 110.32529068312624 " fill="none" id="curve_3" stroke="#000000" stroke-linecap="round" stroke-linejoin="round" stroke-width="4.819467027704058"/>
  <path d="M 79.44627567732742, 71.25248121439964 Q 76.11720350808878, 70.08572211321874, 74.3472800135202, 61.79915502175004 " fill="none" id="curve_5" stroke="#000000" stroke-linecap="round" stroke-linejoin="round" stroke-width="3.580662650981328"/>
  <path d="M 38.13278045322393, 36.17708661124408 Q 37.726571902971955, 30.723059970678097, 30.5305270803764, 29.76049802057358 " fill="none" id="curve_7" stroke="#000000" stroke-linecap="round" stroke-linejoin="round" stroke-width="2.84162064082916"/>
  <path d="M 52.078088988412404, 29.05414445246308 Q 53.48836313235488, 30.16875333094906, 55.34391055654237, 31.255417151855003 " fill="none" id="curve_8" stroke="#000000" stroke-linecap="round" stroke-linejoin="round" stroke-width="4.360299358380478"/>
  <path d="M 26.614284972152987, 30.36361567777089 Q 25.090481081028763, 36.13698135588352, 21.11654189626263, 43.395360351952334 " fill="none" id="curve_10" stroke="#000000" stroke-linecap="round" stroke-linejoin="round" stroke-width="2.8944956409660842"/>
  <path d="M 21.11654189626263, 43.395360351952334 Q 20.89740285513315, 53.182138110301246, 19.04857394443416, 55.54104478598246 " fill="none" id="curve_10" stroke="#000000" stroke-linecap="round" stroke-linejoin="round" stroke-width="3.358957146109202"/>
  <path d="M 88.67490533833417, 3.3862879499890894 Q 89.12823283500757, 2.8244516195917626, 89.68462249684568, 1.6944614390626196 " fill="none" id="curve_16" stroke="#000000" stroke-linecap="round" stroke-linejoin="round" stroke-width="2.268123522711083"/>
  <path d="M 20.5500056267238, 46.505967021868976 Q 21.058230656285314, 47.75651241475027, 22.547600083792293, 48.940173064931734 " fill="none" id="curve_45" stroke="#000000" stroke-linecap="round" stroke-linejoin="round" stroke-width="3.054391763375581"/>
  <path d="M 70.01059505575427, 54.05400441740262 Q 69.19440620972304, 52.02561214042149, 68.13756572214803, 48.3013059276427 " fill="none" id="curve_61" stroke="#000000" stroke-linecap="round" stroke-linejoin="round" stroke-width="2.6533394843520477"/>
  <path d="M 77.91499732236711, 72.35812593431518 Q 77.12930667865521, 66.67782266799273, 74.7794574044649, 62.21457505730511 " fill="none" id="curve_62" stroke="#000000" stroke-linecap="round" stroke-linejoin="round" stroke-width="2.7489871519658022"/>
  <path d="M 79.67248824295224, 79.03796799597444 Q 78.3501912501481, 68.58902497233112, 73.0950540101646, 58.328101464595164 " fill="none" id="curve_65" stroke="#000000" stroke-linecap="round" stroke-linejoin="round" stroke-width="1.9483437508413943"/>
  <path d="M 31.86208194673906, 28.768994093405745 Q 30.773458093553412, 28.69823735463136, 28.73941636569766, 28.60581726157038 " fill="none" id="curve_70" stroke="#000000" stroke-linecap="round" stroke-linejoin="round" stroke-width="3.1037334153050526"/>
  <path d="M 32.0912580413667, 31.570531532188625 Q 28.818290044506025, 33.949010053776696, 22.289529785364127, 36.06311633736728 " fill="none" id="curve_85" stroke="#000000" stroke-linecap="round" stroke-linejoin="round" stroke-width="2.5528920871414753"/>
  <path d="M 17.22292080705497, 55.80559512507463 Q 19.033719891946333, 56.45008461544464, 19.228836666665718, 65.16911452643531 " fill="none" id="curve_86" stroke="#000000" stroke-linecap="round" stroke-linejoin="round" stroke-width="2.9594865244173043"/>
  <path d="M 25.222790718078613, 109.88883590698242 Q 27.244298946720637, 116.48682266894727, 35.47548441165986, 119.95221658882383 " fill="none" id="curve_100" stroke="#000000" stroke-linecap="round" stroke-linejoin="round" stroke-width="2.387374095562308"/>
  <path d="M 35.47548441165986, 119.95221658882383 Q 37.02729096065193, 124.89629409970976, 44.898268159138084, 126.23767122541366 " fill="none" id="curve_100" stroke="#000000" stroke-linecap="round" stroke-linejoin="round" stroke-width="2.2580487883089897"/>
  <path d="M 58.99253781643474, 128.27417723329557 Q 60.39315381176406, 127.50412609225317, 62.30569695765682, 126.83272384042122 " fill="none" id="curve_101" stroke="#000000" stroke-linecap="round" stroke-linejoin="round" stroke-width="3.6478625086467917"/>
  <path d="M 76.75447279887929, 112.27924051930252 Q 75.4843168263452, 113.60377364909131, 73.10654267843253, 114.89773522835469 " fill="none" id="curve_102" stroke="#000000" stroke-linecap="round" stroke-linejoin="round" stroke-width="4.203685073393036"/>
  <path d="M 76.64172859465725, 71.54693321347233 Q 76.76688632839465, 68.52954431881416, 77.04587198830058, 65.20391923513095 " fill="none" id="curve_104" stroke="#000000" stroke-linecap="round" stroke-linejoin="round" stroke-width="3.150034988378708"/>
  <path d="M 37.04545978256769, 34.08830253865546 Q 37.24638791216581, 33.785484753835796, 37.42202905707719, 33.02742017708477 " fill="none" id="curve_106" stroke="#000000" stroke-linecap="round" stroke-linejoin="round" stroke-width="3.8218283914706723"/>
  <path d="M 29.531166076660156, 119.7977237701416 Q 27.647397993096142, 116.30351085945328, 25.129028350808085, 108.81907671279077 " fill="none" id="curve_120" stroke="#000000" stroke-linecap="round" stroke-linejoin="round" stroke-width="4.432849922427138"/>
  <path d="M 18.37032056514317, 87.37499808049732 Q 17.085386854534796, 87.23039300459993, 16.513942449569086, 86.42320229280598 " fill="none" id="curve_122" stroke="#000000" stroke-linecap="round" stroke-linejoin="round" stroke-width="3.7446567980008596"/>
  <path d="M 15.614661410855065, 75.53706715425379 Q 16.424350019129697, 72.11499675253796, 17.888560079752313, 68.6829862843865 " fill="none" id="curve_124" stroke="#000000" stroke-linecap="round" stroke-linejoin="round" stroke-width="3.1541436943095755"/>
  <path d="M 23.68067051784101, 109.29207392302806 Q 23.832397527029155, 113.45124605562678, 27.0463939660453, 114.04451740598758 " fill="none" id="curve_139" stroke="#000000" stroke-linecap="round" stroke-linejoin="round" stroke-width="2.9244752250367037"/>
  <path d="M 27.0463939660453, 114.04451740598758 Q 26.38879658344308, 111.7395743472799, 24.921889974468858, 108.69080625094266 " fill="none" id="curve_139" stroke="#000000" stroke-linecap="round" stroke-linejoin="round" stroke-width="2.73889728611778"/>
  <path d="M 17.127053823009874, 54.78538326973752 Q 16.86691700435189, 54.75013538321807, 16.613429026202997, 54.679942629492345 " fill="none" id="curve_141" stroke="#000000" stroke-linecap="round" stroke-linejoin="round" stroke-width="3.6228960422223357"/>
  <path d="M 65.60947859140482, 44.78862581946756 Q 65.831391994984, 44.436209588682665, 66.10666581899908, 43.75137387778181 " fill="none" id="curve_158" stroke="#000000" stroke-linecap="round" stroke-linejoin="round" stroke-width="3.361492347646883"/>
  <path d="M 78.42257068295237, 93.97822460340592 Q 78.53221714964822, 93.90432069782428, 78.63628584596616, 93.76962774923055 " fill="none" id="curve_173" stroke="#000000" stroke-linecap="round" stroke-linejoin="round" stroke-width="3.8040416831569597"/>
</svg>
