<?xml version="1.0" ?>
<svg height="140" width="140" xmlns="http://www.w3.org/2000/svg">
  <path d="M 44.28779220581055, 60.33034801483154 Q 41.97036620481704, 61.11782337536807, 35.792315575240025, 62.94372508333339 " fill="none" id="curve_1" stroke="#000000" stroke-linecap="round" stroke-linejoin="round" stroke-width="5.264310410763176"/>
  <path d="M 35.792315575240025, 62.94372508333339 Q 32.6792112541613, 70.82113994522392, 24.55853336603196, 87.36884331936274 " fill="none" id="curve_1" stroke="#000000" stroke-linecap="round" stroke-linejoin="round" stroke-width="5.346924288019062"/>
  <path d="M 24.55853336603196, 87.36884331936274 Q 23.037978839002594, 90.70080297348122, 22.644264126031654, 106.61260029417161 " fill="none" id="curve_1" stroke="#000000" stroke-linecap="round" stroke-linejoin="round" stroke-width="4.84906970638195"/>
  <path d="M 22.644264126031654, 106.61260029417161 Q 23.690174900517466, 108.67413724088581, 29.780359409796162, 109.24937700784218 " fill="none" id="curve_1" stroke="#000000" stroke-linecap="round" stroke-linejoin="round" stroke-width="4.224336264314134"/>
  <path d="M 29.780359409796162, 109.24937700784218 Q 38.81694312593993, 106.24961831760464, 43.744116784472126, 96.32209904912095 " fill="none" id="curve_1" stroke="#000000" stroke-linecap="round" stroke-linejoin="round" stroke-width="3.8275449280828"/>
  <path d="M 55.88670378970941, 75.96399440825137 Q 57.36249435174945, 72.64452035787458, 58.42981918312558, 66.4279550450361 " fill="none" id="curve_2" stroke="#000000" stroke-linecap="round" stroke-linejoin="round" stroke-width="3.691700412404262"/>
  <path d="M 58.42981918312558, 66.4279550450361 Q 56.64393069011133, 61.303898704077234, 50.04194390924117, 58.45151857700205 " fill="none" id="curve_2" stroke="#000000" stroke-linecap="round" stroke-linejoin="round" stroke-width="3.6043079849731896"/>
  <path d="M 39.07771245778089, 66.11349583510254 Q 41.28573479873052, 64.01645409179322, 43.4281117380948, 60.79175117090855 " fill="none" id="curve_3" stroke="#000000" stroke-linecap="round" stroke-linejoin="round" stroke-width="2.599418361125493"/>
  <path d="M 43.4281117380948, 60.79175117090855 Q 39.853174269595044, 60.152904496193045, 38.31938248269516, 57.464442070643344 " fill="none" id="curve_3" stroke="#000000" stroke-linecap="round" stroke-linejoin="round" stroke-width="3.654456810736548"/>
  <path d="M 33.50609472626127, 72.98324154262656 Q 32.95512951684672, 74.18595060339594, 32.86349016073572, 82.9648703590361 " fill="none" id="curve_4" stroke="#000000" stroke-linecap="round" stroke-linejoin="round" stroke-width="3.1897715759991345"/>
  <path d="M 49.89894713974542, 60.209976421012485 Q 49.83636612546752, 59.72851803413102, 49.78005541556867, 58.863232664427805 " fill="none" id="curve_6" stroke="#000000" stroke-linecap="round" stroke-linejoin="round" stroke-width="3.613300713314331"/>
  <path d="M 39.951389547842254, 59.306684174036235 Q 38.76303711759425, 59.492734057749296, 37.20192032713547, 59.74161802033763 " fill="none" id="curve_7" stroke="#000000" stroke-linecap="round" stroke-linejoin="round" stroke-width="3.9594494271939933"/>
  <path d="M 90.0316130125062, 53.16404501484032 Q 89.72302667303214, 63.543679286050995, 89.0115620550731, 93.71300152753263 " fill="none" id="curve_8" stroke="#000000" stroke-linecap="round" stroke-linejoin="round" stroke-width="2.1907268408288076"/>
  <path d="M 89.0115620550731, 93.71300152753263 Q 89.17925206830581, 96.84244922918684, 89.3290499384724, 130.2182640624364 " fill="none" id="curve_8" stroke="#000000" stroke-linecap="round" stroke-linejoin="round" stroke-width="2.360338590623762"/>
  <path d="M 89.3290499384724, 130.2182640624364 Q 89.1935800574544, 136.66571205519801, 88.46048743552669, 138.54955784589083 " fill="none" id="curve_8" stroke="#000000" stroke-linecap="round" stroke-linejoin="round" stroke-width="3.1583441957371585"/>
  <path d="M 88.46048743552669, 138.54955784589083 Q 88.65119313853246, 138.49871570454718, 88.88332871341359, 138.42688060355576 " fill="none" id="curve_8" stroke="#000000" stroke-linecap="round" stroke-linejoin="round" stroke-width="3.1886065691530483"/>
  <path d="M 89.14525064447888, 92.00584749355957 Q 89.34818627121155, 91.23464980800232, 89.39169104172787, 81.3386118307474 " fill="none" id="curve_10" stroke="#000000" stroke-linecap="round" stroke-linejoin="round" stroke-width="1.2482160458667086"/>
  <path d="M 89.39169104172787, 81.3386118307474 Q 89.23576082131653, 78.69341613117294, 89.002337271762, 74.98297492521584 " fill="none" id="curve_10" stroke="#000000" stroke-linecap="round" stroke-linejoin="round" stroke-width="1.1853341801093442"/>
  <path d="M 89.06693252000585, 63.41213139107488 Q 89.05824107788648, 60.10986126971175, 89.0513382763025, 52.46673703888821 " fill="none" id="curve_11" stroke="#000000" stroke-linecap="round" stroke-linejoin="round" stroke-width="2.3156631070366926"/>
  <path d="M 89.0513382763025, 52.46673703888821 Q 89.11065359210305, 49.196046179360295, 89.21130235079143, 34.76712721977792 " fill="none" id="curve_11" stroke="#000000" stroke-linecap="round" stroke-linejoin="round" stroke-width="2.464711742641357"/>
  <path d="M 89.21130235079143, 34.76712721977792 Q 89.16978343968738, 30.355285678531587, 89.07264578958232, 20.17567473792864 " fill="none" id="curve_11" stroke="#000000" stroke-linecap="round" stroke-linejoin="round" stroke-width="2.3993662256152675"/>
  <path d="M 89.07264578958232, 20.17567473792864 Q 89.07366811803534, 13.803445951410641, 89.07806377558035, 4.68241240924362 " fill="none" id="curve_11" stroke="#000000" stroke-linecap="round" stroke-linejoin="round" stroke-width="2.4120354634691696"/>
  <path d="M 89.07806377558035, 4.68241240924362 Q 88.9600636467786, 3.051194233647218, 88.61818342008908, 2.4322978430947204 " fill="none" id="curve_11" stroke="#000000" stroke-linecap="round" stroke-linejoin="round" stroke-width="4.882108931510047"/>
  <path d="M 88.53502111831125, 3.4321343025407423 Q 88.56249179264357, 1.851001980737266, 88.69913760509377, 1.2127850355377556 " fill="none" id="curve_14" stroke="#000000" stroke-linecap="round" stroke-linejoin="round" stroke-width="2.450680159711268"/>
  <path d="M 89.24858068974324, 2.4858866073809374 Q 88.98873025786226, 1.7804750233900895, 88.07415301958991, 1.2520668273742341 " fill="none" id="curve_18" stroke="#000000" stroke-linecap="round" stroke-linejoin="round" stroke-width="2.1437358917151346"/>
  <path d="M 22.112007726756673, 104.36383609553559 Q 21.756981121729464, 102.25310491412245, 21.036460873438077, 100.515359844684 " fill="none" id="curve_26" stroke="#000000" stroke-linecap="round" stroke-linejoin="round" stroke-width="3.2977601214857666"/>
  <path d="M 28.259651546832295, 108.78361424776135 Q 39.314110501161494, 106.77676910671484, 44.205142835885795, 97.43792121892919 " fill="none" id="curve_32" stroke="#000000" stroke-linecap="round" stroke-linejoin="round" stroke-width="2.3340619788089825"/>
  <path d="M 27.461768838051228, 109.10168261239221 Q 25.753191035820855, 105.46356497902818, 21.377377736972374, 101.86690115667415 " fill="none" id="curve_73" stroke="#000000" stroke-linecap="round" stroke-linejoin="round" stroke-width="2.651036208164586"/>
  <path d="M 54.77374793319695, 77.97822438655724 Q 54.79318815498072, 78.25025776007877, 54.83079837293622, 78.57749032793366 " fill="none" id="curve_75" stroke="#000000" stroke-linecap="round" stroke-linejoin="round" stroke-width="2.248764112657336"/>
  <path d="M 43.589181946576105, 60.42893594213855 Q 43.684662411710335, 59.30565235362557, 43.87595174617647, 58.28575322935551 " fill="none" id="curve_76" stroke="#000000" stroke-linecap="round" stroke-linejoin="round" stroke-width="2.3287049453001973"/>
  <path d="M 31.198067058916156, 107.47751032190683 Q 38.70670251005239, 106.0758636358165, 41.91469088673235, 99.40511427692468 " fill="none" id="curve_81" stroke="#000000" stroke-linecap="round" stroke-linejoin="round" stroke-width="2.18379357744594"/>
  <path d="M 59.22245809391275, 69.24388844543026 Q 58.16478839730704, 64.1253373157528, 52.75357847458185, 59.87843992711251 " fill="none" id="curve_97" stroke="#000000" stroke-linecap="round" stroke-linejoin="round" stroke-width="1.8819694936741387"/>
  <path d="M 44.97165333392883, 96.91826986594793 Q 41.52304677171707, 98.16790238475589, 36.86563752914394, 101.7764370016035 " fill="none" id="curve_112" stroke="#000000" stroke-linecap="round" stroke-linejoin="round" stroke-width="2.1194684861001805"/>
  <path d="M 28.277541978947013, 108.41276416248029 Q 33.15258213505898, 106.37335148474068, 39.196626841671346, 103.6031726889929 " fill="none" id="curve_113" stroke="#000000" stroke-linecap="round" stroke-linejoin="round" stroke-width="2.1190886595608256"/>
  <path d="M 21.947827888551924, 102.04222594085829 Q 20.976560327160882, 102.00377664968164, 20.142504607546684, 101.9346722353522 " fill="none" id="curve_114" stroke="#000000" stroke-linecap="round" stroke-linejoin="round" stroke-width="3.337962985626621"/>
  <path d="M 56.28621870138544, 61.69546139269646 Q 56.66821499528605, 64.32240792926748, 57.29526807782515, 66.73842501550762 " fill="none" id="curve_116" stroke="#000000" stroke-linecap="round" stroke-linejoin="round" stroke-width="3.0458464823966604"/>
  <path d="M 43.67672153617866, 61.7440331874019 Q 43.397986107643646, 62.04695695568023, 42.82017028883589, 62.65586381662772 " fill="none" id="curve_157" stroke="#000000" stroke-linecap="round" stroke-linejoin="round" stroke-width="2.542236928635079"/>
  <path d="M 50.91881121329903, 60.08119553617304 Q 50.124568554383494, 58.63839586900984, 48.91339800369108, 57.08149813594195 " fill="none" id="curve_161" stroke="#000000" stroke-linecap="round" stroke-linejoin="round" stroke-width="2.7184786115216037"/>
</svg>
