<?xml version="1.0" ?>
<svg height="140" width="140" xmlns="http://www.w3.org/2000/svg">
  <path d="M 54.72711753845215, 85.25960063934326 Q 55.959661872456614, 87.90055795876405, 56.667309461099265, 95.75338634729951 " fill="none" id="curve_1" stroke="#000000" stroke-linecap="round" stroke-linejoin="round" stroke-width="4.270078322190347"/>
  <path d="M 56.667309461099265, 95.75338634729951 Q 55.91433762708788, 114.2805681757907, 43.446072679402995, 116.84553075651546 " fill="none" id="curve_1" stroke="#000000" stroke-linecap="round" stroke-linejoin="round" stroke-width="4.540026573687138"/>
  <path d="M 43.446072679402995, 116.84553075651546 Q 27.07451576634047, 116.73936986205092, 24.392511411108828, 114.91038862475752 " fill="none" id="curve_1" stroke="#000000" stroke-linecap="round" stroke-linejoin="round" stroke-width="4.928490552109047"/>
  <path d="M 24.392511411108828, 114.91038862475752 Q 12.098396765002528, 112.96881127698653, 7.860575143750204, 96.75741028092285 " fill="none" id="curve_1" stroke="#000000" stroke-linecap="round" stroke-linejoin="round" stroke-width="5.090308960018404"/>
  <path d="M 7.860575143750204, 96.75741028092285 Q 8.812530364938782, 80.35081519668309, 17.940571576692875, 65.85699683178461 " fill="none" id="curve_1" stroke="#000000" stroke-linecap="round" stroke-linejoin="round" stroke-width="4.492025535798439"/>
  <path d="M 17.940571576692875, 65.85699683178461 Q 18.1215975056441, 60.7505292924047, 25.226349990627085, 60.45871602445461 " fill="none" id="curve_1" stroke="#000000" stroke-linecap="round" stroke-linejoin="round" stroke-width="3.683784876971209"/>
  <path d="M 25.226349990627085, 60.45871602445461 Q 28.72768161496726, 65.31893127523857, 31.808147670717226, 71.10489601017846 " fill="none" id="curve_1" stroke="#000000" stroke-linecap="round" stroke-linejoin="round" stroke-width="3.3853161468426745"/>
  <path d="M 31.808147670717226, 71.10489601017846 Q 36.42080567208141, 68.84726417622436, 38.63955899644168, 63.495944822655375 " fill="none" id="curve_1" stroke="#000000" stroke-linecap="round" stroke-linejoin="round" stroke-width="3.4977619563860722"/>
  <path d="M 38.63955899644168, 63.495944822655375 Q 50.25240602896564, 66.26677863160438, 55.94821424960355, 87.74528079356944 " fill="none" id="curve_1" stroke="#000000" stroke-linecap="round" stroke-linejoin="round" stroke-width="3.8828401484892803"/>
  <path d="M 55.94821424960355, 87.74528079356944 Q 55.02663806065169, 102.52454244990938, 51.538815207172085, 111.09262933528404 " fill="none" id="curve_1" stroke="#000000" stroke-linecap="round" stroke-linejoin="round" stroke-width="3.620334118804025"/>
  <path d="M 33.30185356361831, 118.29712323956771 Q 34.37279481319143, 118.10602038486095, 35.810700220559276, 117.85072332416024 " fill="none" id="curve_2" stroke="#000000" stroke-linecap="round" stroke-linejoin="round" stroke-width="3.4157547267914947"/>
  <path d="M 28.713106855685457, 114.35562613339977 Q 18.192157003089335, 113.5087813033402, 13.542661044653356, 109.30814158231713 " fill="none" id="curve_4" stroke="#000000" stroke-linecap="round" stroke-linejoin="round" stroke-width="3.0230651329177745"/>
  <path d="M 13.542661044653356, 109.30814158231713 Q 12.99748000189612, 105.92021538902314, 11.160120058676634, 104.57192029092863 " fill="none" id="curve_4" stroke="#000000" stroke-linecap="round" stroke-linejoin="round" stroke-width="4.187784433918878"/>
  <path d="M 20.494807407683922, 61.064593922734176 Q 17.160010497947304, 62.74650550713169, 15.034663635859028, 68.53389831170765 " fill="none" id="curve_6" stroke="#000000" stroke-linecap="round" stroke-linejoin="round" stroke-width="2.9626794033003057"/>
  <path d="M 90.23615155002784, 137.74355337115767 Q 89.97905032256868, 137.98944570754136, 89.37676329336045, 138.2154231835386 " fill="none" id="curve_11" stroke="#000000" stroke-linecap="round" stroke-linejoin="round" stroke-width="2.1565079242710503"/>
  <path d="M 52.08986769826355, 112.77333630280495 Q 48.672644678708565, 114.97549888382596, 40.90726476305841, 116.62383243678687 " fill="none" id="curve_12" stroke="#000000" stroke-linecap="round" stroke-linejoin="round" stroke-width="4.2027858044399515"/>
  <path d="M 56.60940052457759, 90.10557103672089 Q 55.45437769584294, 82.17366460890472, 51.81355370588323, 76.81509463291621 " fill="none" id="curve_13" stroke="#000000" stroke-linecap="round" stroke-linejoin="round" stroke-width="2.620511155227772"/>
  <path d="M 36.26259180031634, 65.0133938862775 Q 35.4504810040671, 66.85713262634405, 34.88949498186897, 70.55449988067427 " fill="none" id="curve_14" stroke="#000000" stroke-linecap="round" stroke-linejoin="round" stroke-width="3.036037291841835"/>
  <path d="M 90.15245794809161, 80.25212186534495 Q 89.90665204473883, 81.1278797946069, 89.34073072976413, 81.9583294794137 " fill="none" id="curve_16" stroke="#000000" stroke-linecap="round" stroke-linejoin="round" stroke-width="1.996122494826878"/>
  <path d="M 54.90541081901187, 85.19018138856295 Q 54.66037522392811, 78.93183837461099, 52.70442674749344, 77.18052040437385 " fill="none" id="curve_17" stroke="#000000" stroke-linecap="round" stroke-linejoin="round" stroke-width="2.6601986684470704"/>
  <path d="M 16.985103380964382, 108.38015869455847 Q 17.019557069013107, 109.55330649039723, 17.05503341806426, 111.8012951750933 " fill="none" id="curve_18" stroke="#000000" stroke-linecap="round" stroke-linejoin="round" stroke-width="3.4433084417897595"/>
  <path d="M 18.357476736144434, 114.21503173810622 Q 20.31454025661104, 114.41201666098357, 23.38601391732758, 114.67727956009593 " fill="none" id="curve_24" stroke="#000000" stroke-linecap="round" stroke-linejoin="round" stroke-width="2.996262234968213"/>
  <path d="M 12.647793189197813, 101.67929077822464 Q 12.6169291959134, 102.73317216236323, 12.477015637535278, 103.68357380693499 " fill="none" id="curve_27" stroke="#000000" stroke-linecap="round" stroke-linejoin="round" stroke-width="2.156225537808922"/>
  <path d="M 37.10741321581679, 117.79975450828016 Q 45.44243779499243, 116.76590403377165, 50.599897398367375, 113.38423735607937 " fill="none" id="curve_28" stroke="#000000" stroke-linecap="round" stroke-linejoin="round" stroke-width="2.7716263215209587"/>
  <path d="M 55.21834401914147, 89.89156217874765 Q 54.48721972791807, 88.03350542952357, 53.76184444266522, 84.12772222787325 " fill="none" id="curve_29" stroke="#000000" stroke-linecap="round" stroke-linejoin="round" stroke-width="2.4297983076671414"/>
  <path d="M 49.505282105134924, 114.50327019092217 Q 49.96695705713693, 114.21498170385782, 50.54588387160166, 113.77852887496064 " fill="none" id="curve_30" stroke="#000000" stroke-linecap="round" stroke-linejoin="round" stroke-width="3.9590293512441317"/>
  <path d="M 23.58198015530136, 60.867205722617776 Q 21.039093580187608, 60.74311503295191, 17.779397938730355, 60.54921688315949 " fill="none" id="curve_32" stroke="#000000" stroke-linecap="round" stroke-linejoin="round" stroke-width="2.3826890717350167"/>
  <path d="M 25.08429924209753, 62.33061019665502 Q 25.466762733663263, 62.28536196062039, 26.201758843160025, 62.18759483171878 " fill="none" id="curve_37" stroke="#000000" stroke-linecap="round" stroke-linejoin="round" stroke-width="3.1592684906136355"/>
  <path d="M 89.86971664428711, 1.6632156372070312 Q 89.7976771270486, 1.7339490842525163, 89.61816646006716, 1.8435285632623817 " fill="none" id="curve_51" stroke="#000000" stroke-linecap="round" stroke-linejoin="round" stroke-width="1.6667807385707387"/>
  <path d="M 52.445565113944156, 113.51027833383876 Q 44.64894809558069, 114.22934671934604, 40.8714156641567, 116.94485147144502 " fill="none" id="curve_66" stroke="#000000" stroke-linecap="round" stroke-linejoin="round" stroke-width="3.217540443601784"/>
  <path d="M 24.978355940846143, 62.3131319804395 Q 25.8448187767249, 62.302560024538046, 27.166720002778963, 62.27780007796097 " fill="none" id="curve_75" stroke="#000000" stroke-linecap="round" stroke-linejoin="round" stroke-width="2.8346563763960373"/>
  <path d="M 25.37086366276006, 61.792998370396276 Q 25.98501346135964, 61.579679585714295, 27.050431101826497, 61.197803668354965 " fill="none" id="curve_94" stroke="#000000" stroke-linecap="round" stroke-linejoin="round" stroke-width="2.44764745877225"/>
  <path d="M 27.573336509448254, 66.03771505233206 Q 28.0847771470193, 64.63184390422526, 28.759823270488567, 61.981466977142276 " fill="none" id="curve_177" stroke="#000000" stroke-linecap="round" stroke-linejoin="round" stroke-width="2.488228753077746"/>
</svg>
