<?xml version="1.0" ?>
<svg height="140" width="140" xmlns="http://www.w3.org/2000/svg">
  <path d="M 89.00360926866028, 41.44500994751803 Q 88.89938381934282, 49.14395921267772, 88.58513659152969, 62.90267122532582 " fill="none" id="curve_2" stroke="#000000" stroke-linecap="round" stroke-linejoin="round" stroke-width="3.448638912739203"/>
  <path d="M 88.58513659152969, 62.90267122532582 Q 88.67447920977763, 65.99194164602596, 88.78667571207481, 88.9818901022738 " fill="none" id="curve_2" stroke="#000000" stroke-linecap="round" stroke-linejoin="round" stroke-width="3.470366154764275"/>
  <path d="M 88.78667571207481, 88.9818901022738 Q 88.78789017343938, 96.21332497768707, 88.79312033279223, 113.68962309071749 " fill="none" id="curve_2" stroke="#000000" stroke-linecap="round" stroke-linejoin="round" stroke-width="3.531066008657267"/>
  <path d="M 88.79312033279223, 113.68962309071749 Q 88.78869399081763, 122.06826733823694, 88.76410978989315, 137.47540976277028 " fill="none" id="curve_2" stroke="#000000" stroke-linecap="round" stroke-linejoin="round" stroke-width="3.4650534523634833"/>
  <path d="M 88.76410978989315, 137.47540976277028 Q 88.73814729902229, 138.46034768792506, 88.59748571831064, 138.74768662116028 " fill="none" id="curve_2" stroke="#000000" stroke-linecap="round" stroke-linejoin="round" stroke-width="2.887686082022849"/>
  <path d="M 51.17453550664479, 81.35158307923012 Q 50.514867215742726, 77.79570272991849, 49.756877218705796, 70.33460211423015 " fill="none" id="curve_6" stroke="#000000" stroke-linecap="round" stroke-linejoin="round" stroke-width="7.540986735575644"/>
  <path d="M 49.756877218705796, 70.33460211423015 Q 48.39526753484438, 58.198608190102426, 28.203958122198447, 53.9321782751058 " fill="none" id="curve_6" stroke="#000000" stroke-linecap="round" stroke-linejoin="round" stroke-width="6.83226014468171"/>
  <path d="M 28.203958122198447, 53.9321782751058 Q 16.627980649855893, 53.910991101714245, 8.858599926759027, 53.8540770090768 " fill="none" id="curve_6" stroke="#000000" stroke-linecap="round" stroke-linejoin="round" stroke-width="6.951810963055469"/>
  <path d="M 8.858599926759027, 53.8540770090768 Q 8.972844214609871, 81.83700300613779, 10.617287554042429, 89.82783998863371 " fill="none" id="curve_6" stroke="#000000" stroke-linecap="round" stroke-linejoin="round" stroke-width="6.707557927013442"/>
  <path d="M 10.617287554042429, 89.82783998863371 Q 16.540289951048553, 98.51878414348766, 28.718029703045623, 102.60241991731486 " fill="none" id="curve_6" stroke="#000000" stroke-linecap="round" stroke-linejoin="round" stroke-width="6.35281210084496"/>
  <path d="M 28.718029703045623, 102.60241991731486 Q 47.781170689885315, 101.27422711651242, 50.99913154515747, 84.10128685630956 " fill="none" id="curve_6" stroke="#000000" stroke-linecap="round" stroke-linejoin="round" stroke-width="5.193384852060497"/>
  <path d="M 15.27738186113124, 64.13337687775093 Q 11.365762033478132, 64.70871842846209, 10.360674131422055, 70.38846824569067 " fill="none" id="curve_7" stroke="#000000" stroke-linecap="round" stroke-linejoin="round" stroke-width="4.677651922824547"/>
  <path d="M 17.43467814083192, 51.64054028830664 Q 23.427683267375695, 52.10698279487632, 29.367411774867115, 53.53996999005038 " fill="none" id="curve_8" stroke="#000000" stroke-linecap="round" stroke-linejoin="round" stroke-width="3.3922699731040113"/>
  <path d="M 46.68722221494566, 92.98197652150392 Q 41.90175718506108, 97.95229546621276, 29.837681599645155, 101.6816822150702 " fill="none" id="curve_10" stroke="#000000" stroke-linecap="round" stroke-linejoin="round" stroke-width="3.9131016667684704"/>
  <path d="M 19.320833375601953, 95.218418166823 Q 12.867623044213985, 90.72757345363755, 6.759012630713812, 78.54786910898024 " fill="none" id="curve_11" stroke="#000000" stroke-linecap="round" stroke-linejoin="round" stroke-width="3.6123461038995344"/>
  <path d="M 6.759012630713812, 78.54786910898024 Q 10.855519590212916, 90.52623596587327, 18.419618155933172, 100.41139017571874 " fill="none" id="curve_11" stroke="#000000" stroke-linecap="round" stroke-linejoin="round" stroke-width="3.321810967236555"/>
  <path d="M 44.77023408481959, 91.91259975762048 Q 48.32374410651284, 89.16884183052944, 50.750285721626355, 82.75848865723316 " fill="none" id="curve_12" stroke="#000000" stroke-linecap="round" stroke-linejoin="round" stroke-width="3.328089242172543"/>
  <path d="M 26.716050120903958, 53.25432260843021 Q 26.196749905254578, 50.704622004027186, 15.50178828432878, 50.31278139270385 " fill="none" id="curve_14" stroke="#000000" stroke-linecap="round" stroke-linejoin="round" stroke-width="3.5832670288171524"/>
  <path d="M 28.541162449785652, 56.10009129500473 Q 40.932154614826146, 58.7937504825461, 49.85377461435442, 66.90761981973357 " fill="none" id="curve_15" stroke="#000000" stroke-linecap="round" stroke-linejoin="round" stroke-width="1.743971832438826"/>
  <path d="M 88.65027024527996, 37.87650241281922 Q 88.7530081996185, 36.189566677825674, 88.81426178446104, 9.911053053220517 " fill="none" id="curve_16" stroke="#000000" stroke-linecap="round" stroke-linejoin="round" stroke-width="3.327402057945023"/>
  <path d="M 88.81426178446104, 9.911053053220517 Q 88.7590304948638, 2.9631574894453108, 87.73440365234998, 2.275521583462125 " fill="none" id="curve_16" stroke="#000000" stroke-linecap="round" stroke-linejoin="round" stroke-width="4.864781628197307"/>
  <path d="M 87.73440365234998, 2.275521583462125 Q 86.80382183788248, 2.188000324889397, 85.70354434534126, 2.0831074234906346 " fill="none" id="curve_16" stroke="#000000" stroke-linecap="round" stroke-linejoin="round" stroke-width="3.1940674992449507"/>
  <path d="M 88.39261017566757, 38.93840628717405 Q 88.59877059077498, 39.751649289615884, 88.8691789301241, 41.161991529495424 " fill="none" id="curve_17" stroke="#000000" stroke-linecap="round" stroke-linejoin="round" stroke-width="2.3072589690547387"/>
  <path d="M 49.551229126721715, 78.46698956483056 Q 50.9842061329439, 76.2669458605211, 53.31631972203473, 73.33236959707479 " fill="none" id="curve_27" stroke="#000000" stroke-linecap="round" stroke-linejoin="round" stroke-width="2.6514306013981352"/>
  <path d="M 48.052730560302734, 86.57867956161499 Q 48.308996634619206, 84.61936773011287, 52.24821555521939, 84.28701078198306 " fill="none" id="curve_54" stroke="#000000" stroke-linecap="round" stroke-linejoin="round" stroke-width="5.107511964620902"/>
  <path d="M 42.30832105682734, 94.58416945567164 Q 38.874009614404244, 99.96314934825575, 23.8539845256012, 102.27598540277421 " fill="none" id="curve_55" stroke="#000000" stroke-linecap="round" stroke-linejoin="round" stroke-width="3.6127539291373143"/>
  <path d="M 23.8539845256012, 102.27598540277421 Q 28.158616495960025, 101.6733541130236, 32.28520855498143, 100.19289859941433 " fill="none" id="curve_55" stroke="#000000" stroke-linecap="round" stroke-linejoin="round" stroke-width="3.8140119280435605"/>
  <path d="M 29.251569719325857, 99.5746100195064 Q 27.34722616286995, 98.58841411582189, 20.16615757395653, 97.76471328153754 " fill="none" id="curve_70" stroke="#000000" stroke-linecap="round" stroke-linejoin="round" stroke-width="2.0972248871552845"/>
  <path d="M 14.329133292823485, 62.77784399349139 Q 9.736703623221244, 61.99704836441603, 6.645135400340413, 59.131123535723226 " fill="none" id="curve_85" stroke="#000000" stroke-linecap="round" stroke-linejoin="round" stroke-width="2.6765147439996806"/>
  <path d="M 9.19316734645247, 83.4397562397158 Q 9.329855909147625, 84.01964326288419, 9.488935204937349, 85.22002428998235 " fill="none" id="curve_86" stroke="#000000" stroke-linecap="round" stroke-linejoin="round" stroke-width="3.5529801683733977"/>
  <path d="M 47.27840042114258, 86.52476501464844 Q 47.400563170825535, 81.69316639709321, 51.29938936190206, 80.79716149838669 " fill="none" id="curve_100" stroke="#000000" stroke-linecap="round" stroke-linejoin="round" stroke-width="2.43985094907486"/>
  <path d="M 33.321442945997966, 55.32951217495858 Q 36.84725386523504, 56.57198207741395, 40.342415122323516, 61.23985480009065 " fill="none" id="curve_102" stroke="#000000" stroke-linecap="round" stroke-linejoin="round" stroke-width="2.0019958402589606"/>
  <path d="M 40.342415122323516, 61.23985480009065 Q 39.26677876554599, 56.04964738515325, 31.099632246261542, 53.851995024125515 " fill="none" id="curve_102" stroke="#000000" stroke-linecap="round" stroke-linejoin="round" stroke-width="3.19352590579314"/>
  <path d="M 13.26540320361829, 88.04257057631366 Q 11.741320611173137, 83.89626893982121, 6.011025362331483, 81.67992594946396 " fill="none" id="curve_104" stroke="#000000" stroke-linecap="round" stroke-linejoin="round" stroke-width="3.2339856450309417"/>
  <path d="M 34.54721032510744, 54.3796094061305 Q 32.51127593581587, 52.82722429988372, 24.230306476276816, 51.7430004368307 " fill="none" id="curve_109" stroke="#000000" stroke-linecap="round" stroke-linejoin="round" stroke-width="2.857289852189"/>
  <path d="M 6.439359411595068, 76.72683896722818 Q 6.772690363436929, 75.74217005806139, 7.459410789958242, 74.06774112756361 " fill="none" id="curve_112" stroke="#000000" stroke-linecap="round" stroke-linejoin="round" stroke-width="3.247262223076371"/>
  <path d="M 23.54419480636625, 102.87587637699926 Q 17.763340585368372, 101.69327157725066, 14.080477069873117, 96.60080879217183 " fill="none" id="curve_127" stroke="#000000" stroke-linecap="round" stroke-linejoin="round" stroke-width="1.9657487588028013"/>
  <path d="M 27.487099965011367, 57.21941200261759 Q 28.46696486588127, 57.02188247845644, 30.213213042554997, 56.65859396306534 " fill="none" id="curve_130" stroke="#000000" stroke-linecap="round" stroke-linejoin="round" stroke-width="2.1498839647088803"/>
  <path d="M 8.198315208628749, 56.79898792972344 Q 7.481781501824815, 56.76921871989704, 6.96106604237708, 56.66690505035964 " fill="none" id="curve_137" stroke="#000000" stroke-linecap="round" stroke-linejoin="round" stroke-width="3.639742945493021"/>
  <path d="M 44.70451692978711, 66.28049363225624 Q 47.13352190147441, 69.06789903867704, 51.3075401399806, 71.5013547231332 " fill="none" id="curve_153" stroke="#000000" stroke-linecap="round" stroke-linejoin="round" stroke-width="1.9732511621729691"/>
  <path d="M 53.79411597711896, 77.09320158782475 Q 53.38133292896412, 76.7406485719943, 52.47598770830822, 76.3240185814631 " fill="none" id="curve_181" stroke="#000000" stroke-linecap="round" stroke-linejoin="round" stroke-width="2.9407452327714236"/>
</svg>
