<?xml version="1.0" ?>
<svg height="140" width="140" xmlns="http://www.w3.org/2000/svg">
  <path d="M 9.153910160064697, 64.3453893661499 Q 9.949838669370237, 50.72487699196671, 18.9416228565118, 43.63744689091027 " fill="none" id="curve_1" stroke="#000000" stroke-linecap="round" stroke-linejoin="round" stroke-width="5.717145490458082"/>
  <path d="M 18.9416228565118, 43.63744689091027 Q 23.9426480199265, 41.109551382692025, 35.79612674289875, 39.434650483483246 " fill="none" id="curve_1" stroke="#000000" stroke-linecap="round" stroke-linejoin="round" stroke-width="5.159589060642996"/>
  <path d="M 35.79612674289875, 39.434650483483246 Q 52.35269581696028, 42.46116381064329, 70.67256996271388, 59.47876118047914 " fill="none" id="curve_1" stroke="#000000" stroke-linecap="round" stroke-linejoin="round" stroke-width="4.336591627946987"/>
  <path d="M 70.67256996271388, 59.47876118047914 Q 73.75267187909643, 67.35142016588719, 77.36041990602, 74.4391524724722 " fill="none" id="curve_1" stroke="#000000" stroke-linecap="round" stroke-linejoin="round" stroke-width="6.117477229995334"/>
  <path d="M 77.36041990602, 74.4391524724722 Q 75.58504834628734, 94.20164218643214, 56.91252289045712, 100.04786879553916 " fill="none" id="curve_1" stroke="#000000" stroke-linecap="round" stroke-linejoin="round" stroke-width="5.413773702498699"/>
  <path d="M 56.91252289045712, 100.04786879553916 Q 48.71007588367698, 100.18961482163421, 40.175690802540444, 100.38538343742815 " fill="none" id="curve_1" stroke="#000000" stroke-linecap="round" stroke-linejoin="round" stroke-width="4.198493674712721"/>
  <path d="M 40.175690802540444, 100.38538343742815 Q 23.73502713774645, 97.17541601300857, 10.406357068193714, 82.24200417208151 " fill="none" id="curve_1" stroke="#000000" stroke-linecap="round" stroke-linejoin="round" stroke-width="3.914301614134772"/>
  <path d="M 10.406357068193714, 82.24200417208151 Q 7.60201240375613, 80.88026809303533, 7.1343010624739485, 62.309882694154425 " fill="none" id="curve_1" stroke="#000000" stroke-linecap="round" stroke-linejoin="round" stroke-width="6.522752030295817"/>
  <path d="M 37.298027127531554, 42.64578122633462 Q 35.60684744881478, 42.88308337491204, 34.9005904429349, 44.01358542951332 " fill="none" id="curve_3" stroke="#000000" stroke-linecap="round" stroke-linejoin="round" stroke-width="6.984667158033967"/>
  <path d="M 21.431446873729044, 47.42154219898973 Q 23.799577639550396, 47.17672069162022, 24.5846593663783, 45.40457588807094 " fill="none" id="curve_4" stroke="#000000" stroke-linecap="round" stroke-linejoin="round" stroke-width="4.876204313307551"/>
  <path d="M 9.268570013946109, 61.25965236486903 Q 11.276636181739427, 52.79421662505541, 17.018154259097116, 46.545074566030124 " fill="none" id="curve_5" stroke="#000000" stroke-linecap="round" stroke-linejoin="round" stroke-width="3.310294182619037"/>
  <path d="M 43.11606547519693, 43.18738062693512 Q 66.92583223479578, 48.294233807655225, 78.25897669605762, 72.43948049048934 " fill="none" id="curve_6" stroke="#000000" stroke-linecap="round" stroke-linejoin="round" stroke-width="3.1315635810251807"/>
  <path d="M 78.25897669605762, 72.43948049048934 Q 74.71057933930612, 84.9145785323511, 65.52196980028486, 93.76140027237062 " fill="none" id="curve_6" stroke="#000000" stroke-linecap="round" stroke-linejoin="round" stroke-width="3.402353273402278"/>
  <path d="M 72.1943559077598, 65.25913762840781 Q 67.80224300664246, 60.88049844597454, 61.76356404677483, 49.43921533327714 " fill="none" id="curve_7" stroke="#000000" stroke-linecap="round" stroke-linejoin="round" stroke-width="3.135478410355419"/>
  <path d="M 45.02443363537809, 43.72346986349057 Q 54.274775937942316, 50.01409990409193, 67.79286176783174, 55.89961787121092 " fill="none" id="curve_8" stroke="#000000" stroke-linecap="round" stroke-linejoin="round" stroke-width="2.8132871207910033"/>
  <path d="M 75.68208487287907, 78.77850162200833 Q 75.24562463669787, 58.11361735850196, 65.35325700403489, 53.92916748431209 " fill="none" id="curve_9" stroke="#000000" stroke-linecap="round" stroke-linejoin="round" stroke-width="2.8099215975039344"/>
  <path d="M 15.488510764524904, 88.03367244998947 Q 14.32159972749501, 88.28766459494814, 13.331627941070234, 88.8153919283018 " fill="none" id="curve_13" stroke="#000000" stroke-linecap="round" stroke-linejoin="round" stroke-width="5.5239589421811415"/>
  <path d="M 8.277539805938304, 57.663913256537796 Q 10.203708411299276, 51.74616865539333, 15.663336969542282, 44.91174277070623 " fill="none" id="curve_14" stroke="#000000" stroke-linecap="round" stroke-linejoin="round" stroke-width="2.279127915735398"/>
  <path d="M 12.525921540061388, 82.94000765279338 Q 13.808842977198713, 83.4868670088689, 14.562883328675003, 85.2456931873569 " fill="none" id="curve_15" stroke="#000000" stroke-linecap="round" stroke-linejoin="round" stroke-width="6.190468477870841"/>
  <path d="M 75.7490211565914, 81.68367489584048 Q 75.31654255258023, 68.34793890772715, 72.1465673076225, 63.72024276304112 " fill="none" id="curve_19" stroke="#000000" stroke-linecap="round" stroke-linejoin="round" stroke-width="2.8369624560899784"/>
  <path d="M 72.1465673076225, 63.72024276304112 Q 73.02527812427276, 65.73888176494481, 73.80586822528053, 70.29103462500262 " fill="none" id="curve_19" stroke="#000000" stroke-linecap="round" stroke-linejoin="round" stroke-width="3.7780587413641467"/>
  <path d="M 10.067617748207084, 85.15375786543387 Q 9.842235982279687, 83.69050790470952, 9.543615934578572, 80.4132275235205 " fill="none" id="curve_21" stroke="#000000" stroke-linecap="round" stroke-linejoin="round" stroke-width="2.9109779902837816"/>
  <path d="M 62.65941025569089, 50.889716377119264 Q 64.14386828405135, 52.54652674863764, 66.55537066026227, 54.584390121752 " fill="none" id="curve_39" stroke="#000000" stroke-linecap="round" stroke-linejoin="round" stroke-width="2.304815092208885"/>
  <path d="M 51.8281029295168, 44.222832707010895 Q 57.37036144004837, 47.3428427074874, 65.34717560817167, 51.63884456639951 " fill="none" id="curve_56" stroke="#000000" stroke-linecap="round" stroke-linejoin="round" stroke-width="1.9298857631767958"/>
  <path d="M 37.00909777307446, 42.75390198216698 Q 41.37210664991683, 43.07514655841648, 44.879194745922504, 43.988547971917335 " fill="none" id="curve_76" stroke="#000000" stroke-linecap="round" stroke-linejoin="round" stroke-width="2.385328298485437"/>
  <path d="M 9.080385612127902, 62.24518189723044 Q 12.008931857793781, 56.12246182128749, 15.681447595836133, 45.232432674293115 " fill="none" id="curve_99" stroke="#000000" stroke-linecap="round" stroke-linejoin="round" stroke-width="2.4878349632987966"/>
  <path d="M 72.7751197267836, 63.634783917012626 Q 75.53829032140328, 64.21686989067159, 76.2259125679573, 68.80136209262474 " fill="none" id="curve_114" stroke="#000000" stroke-linecap="round" stroke-linejoin="round" stroke-width="3.95506916738121"/>
  <path d="M 28.09132641068209, 94.47108619701015 Q 30.33285946218655, 97.09615778258002, 34.808459821968455, 98.95300334324763 " fill="none" id="curve_120" stroke="#000000" stroke-linecap="round" stroke-linejoin="round" stroke-width="3.097620257457229"/>
  <path d="M 73.10347319769271, 84.44546766057346 Q 73.34967846863691, 78.50969234468505, 76.71280985069666, 77.1504032854704 " fill="none" id="curve_129" stroke="#000000" stroke-linecap="round" stroke-linejoin="round" stroke-width="3.1464744158471367"/>
  <path d="M 28.174280166625977, 39.144357681274414 Q 27.262295887447316, 39.180292620857514, 25.085878651833386, 39.235871459851325 " fill="none" id="curve_169" stroke="#000000" stroke-linecap="round" stroke-linejoin="round" stroke-width="2.3340018317914617"/>
  <path d="M 72.27612976655382, 68.45678997012874 Q 71.4079188431806, 65.05742885355895, 69.14464640245626, 61.0405813935699 " fill="none" id="curve_184" stroke="#000000" stroke-linecap="round" stroke-linejoin="round" stroke-width="2.635055296150537"/>
</svg>
