<?xml version="1.0" ?>
<svg height="140" width="140" xmlns="http://www.w3.org/2000/svg">
  <path d="M 58.40727996826172, 103.94739532470703 Q 57.54693925311983, 115.60414335960327, 48.31663903095301, 122.82751909282263 " fill="none" id="curve_1" stroke="#000000" stroke-linecap="round" stroke-linejoin="round" stroke-width="5.047957762084239"/>
  <path d="M 48.31663903095301, 122.82751909282263 Q 45.354382340020656, 126.36376156109392, 33.0757220471505, 127.90549853832023 " fill="none" id="curve_1" stroke="#000000" stroke-linecap="round" stroke-linejoin="round" stroke-width="4.330929635796346"/>
  <path d="M 33.0757220471505, 127.90549853832023 Q 21.207288894834548, 127.44484795400912, 19.423395364668117, 120.8713888431271 " fill="none" id="curve_1" stroke="#000000" stroke-linecap="round" stroke-linejoin="round" stroke-width="4.453582743509251"/>
  <path d="M 19.423395364668117, 120.8713888431271 Q 20.463034679494832, 111.81770675614891, 23.078453067291683, 96.10786092917041 " fill="none" id="curve_1" stroke="#000000" stroke-linecap="round" stroke-linejoin="round" stroke-width="6.615712440583411"/>
  <path d="M 23.078453067291683, 96.10786092917041 Q 28.637728104929703, 87.23310334691612, 46.54124120972524, 72.90062169467095 " fill="none" id="curve_1" stroke="#000000" stroke-linecap="round" stroke-linejoin="round" stroke-width="4.463293718495905"/>
  <path d="M 46.54124120972524, 72.90062169467095 Q 49.12031681661566, 72.36755886293224, 56.43009281701879, 72.05597913148438 " fill="none" id="curve_1" stroke="#000000" stroke-linecap="round" stroke-linejoin="round" stroke-width="3.7971993065897136"/>
  <path d="M 48.76572302032155, 83.59538538083255 Q 47.922369127158426, 88.20697323485376, 46.91032249209148, 93.12398110840992 " fill="none" id="curve_2" stroke="#000000" stroke-linecap="round" stroke-linejoin="round" stroke-width="3.1364167064014086"/>
  <path d="M 52.735797700902225, 81.69617807821136 Q 57.844917385186434, 84.30982080174117, 59.67390664550286, 100.90927749452403 " fill="none" id="curve_3" stroke="#000000" stroke-linecap="round" stroke-linejoin="round" stroke-width="4.77180505543668"/>
  <path d="M 59.67390664550286, 100.90927749452403 Q 57.784847436140225, 109.027197529755, 54.00685990805919, 117.77247845971583 " fill="none" id="curve_3" stroke="#000000" stroke-linecap="round" stroke-linejoin="round" stroke-width="2.64174158812456"/>
  <path d="M 54.00685990805919, 117.77247845971583 Q 54.717708192590976, 117.53869333531772, 55.22315298017927, 116.93845977303818 " fill="none" id="curve_3" stroke="#000000" stroke-linecap="round" stroke-linejoin="round" stroke-width="2.8074590678647735"/>
  <path d="M 58.910918521077946, 73.91188580202106 Q 56.8781379937723, 72.42257851469616, 52.672003083939444, 70.29892882565744 " fill="none" id="curve_5" stroke="#000000" stroke-linecap="round" stroke-linejoin="round" stroke-width="2.2153541301832806"/>
  <path d="M 50.66964195827855, 82.9076708634738 Q 50.07902832806468, 82.71521339628923, 49.3794345237603, 82.46010355508454 " fill="none" id="curve_6" stroke="#000000" stroke-linecap="round" stroke-linejoin="round" stroke-width="4.050408654040504"/>
  <path d="M 23.054081794655094, 114.60658607478894 Q 20.79782023429383, 113.78021346792673, 18.740788752220418, 112.37896457262201 " fill="none" id="curve_7" stroke="#000000" stroke-linecap="round" stroke-linejoin="round" stroke-width="5.906363262388904"/>
  <path d="M 31.790915751386606, 84.2729460303803 Q 36.51638476191617, 80.99598121710348, 43.4250243608034, 74.36873022642179 " fill="none" id="curve_8" stroke="#000000" stroke-linecap="round" stroke-linejoin="round" stroke-width="2.349572323085295"/>
  <path d="M 26.08035826271653, 126.0572214939138 Q 26.381382792208942, 125.78868631444577, 26.6289843170876, 125.03460854128257 " fill="none" id="curve_18" stroke="#000000" stroke-linecap="round" stroke-linejoin="round" stroke-width="3.7415564666201417"/>
  <path d="M 29.002471147299573, 87.75014952306908 Q 30.00987408126252, 84.01896237996039, 34.166618961583076, 81.64217919461592 " fill="none" id="curve_19" stroke="#000000" stroke-linecap="round" stroke-linejoin="round" stroke-width="2.172674497190605"/>
  <path d="M 53.18497297650124, 71.05246097572402 Q 47.18293090682281, 72.16103236820054, 42.297977408915294, 76.48517621157038 " fill="none" id="curve_20" stroke="#000000" stroke-linecap="round" stroke-linejoin="round" stroke-width="2.612494670821754"/>
  <path d="M 56.32214313413335, 116.65131596171207 Q 56.76208995292496, 106.06447321757597, 59.071539392105734, 101.12124773710465 " fill="none" id="curve_23" stroke="#000000" stroke-linecap="round" stroke-linejoin="round" stroke-width="2.608330821433001"/>
  <path d="M 47.98573744423156, 121.83489121667311 Q 45.675442209888594, 124.05208800751771, 40.44232016052182, 125.8568365790457 " fill="none" id="curve_27" stroke="#000000" stroke-linecap="round" stroke-linejoin="round" stroke-width="3.075648310882206"/>
  <path d="M 52.77709194702347, 82.4940164706395 Q 55.247845717623825, 82.66357344707754, 57.90269793548819, 83.12962963306977 " fill="none" id="curve_31" stroke="#000000" stroke-linecap="round" stroke-linejoin="round" stroke-width="1.9613878258582742"/>
  <path d="M 29.466571442218054, 91.59973885259863 Q 27.23351256490354, 93.58367272607535, 23.120262555393936, 96.9139615353355 " fill="none" id="curve_32" stroke="#000000" stroke-linecap="round" stroke-linejoin="round" stroke-width="2.5148732701570107"/>
  <path d="M 46.820041084752155, 91.78751660376858 Q 46.79461424016865, 90.39223584043094, 46.71337935611433, 89.25740032795918 " fill="none" id="curve_37" stroke="#000000" stroke-linecap="round" stroke-linejoin="round" stroke-width="2.377044538075164"/>
  <path d="M 60.99684329699704, 94.16956705198288 Q 58.04755266167391, 92.54662041167653, 54.6640502249085, 87.72390421037734 " fill="none" id="curve_104" stroke="#000000" stroke-linecap="round" stroke-linejoin="round" stroke-width="1.3881963107748"/>
</svg>
