<?xml version="1.0" ?>
<svg height="140" width="140" xmlns="http://www.w3.org/2000/svg">
  <path d="M 46.65629959106445, 87.06965637207031 Q 44.24976529209718, 89.48116245630219, 40.48082144281369, 93.2212777094336 " fill="none" id="curve_1" stroke="#000000" stroke-linecap="round" stroke-linejoin="round" stroke-width="5.923886512183592"/>
  <path d="M 40.48082144281369, 93.2212777094336 Q 33.51173958475897, 93.16305871645524, 32.31532905487708, 92.30084954021359 " fill="none" id="curve_1" stroke="#000000" stroke-linecap="round" stroke-linejoin="round" stroke-width="4.879074821019497"/>
  <path d="M 32.31532905487708, 92.30084954021359 Q 25.099423861889775, 90.51502015056593, 22.406902531758167, 77.93397780044408 " fill="none" id="curve_1" stroke="#000000" stroke-linecap="round" stroke-linejoin="round" stroke-width="4.591087637303711"/>
  <path d="M 22.406902531758167, 77.93397780044408 Q 22.578572905400986, 58.79445390153943, 27.5528336268517, 54.43908958029813 " fill="none" id="curve_1" stroke="#000000" stroke-linecap="round" stroke-linejoin="round" stroke-width="5.09076000702904"/>
  <path d="M 27.5528336268517, 54.43908958029813 Q 30.137288473489225, 44.49891887145149, 41.55140332554708, 38.230709925670745 " fill="none" id="curve_1" stroke="#000000" stroke-linecap="round" stroke-linejoin="round" stroke-width="4.075477117560222"/>
  <path d="M 41.55140332554708, 38.230709925670745 Q 41.45570849342835, 50.20121594792117, 38.635550713352956, 50.95533581492129 " fill="none" id="curve_1" stroke="#000000" stroke-linecap="round" stroke-linejoin="round" stroke-width="4.196716588439155"/>
  <path d="M 38.635550713352956, 50.95533581492129 Q 49.89059494444161, 51.16758883159545, 50.500792341523265, 68.73681832564151 " fill="none" id="curve_1" stroke="#000000" stroke-linecap="round" stroke-linejoin="round" stroke-width="4.058726219457791"/>
  <path d="M 50.500792341523265, 68.73681832564151 Q 50.36489843588348, 87.00170697874002, 44.6491355857411, 88.02557532571024 " fill="none" id="curve_1" stroke="#000000" stroke-linecap="round" stroke-linejoin="round" stroke-width="4.144683579728576"/>
  <path d="M 44.6491355857411, 88.02557532571024 Q 48.31783199489229, 81.77677334945406, 52.21390038370565, 72.30753577706491 " fill="none" id="curve_1" stroke="#000000" stroke-linecap="round" stroke-linejoin="round" stroke-width="2.8875452322380513"/>
  <path d="M 46.468924731656664, 51.74548906530752 Q 44.805564599809145, 49.71302461829458, 39.9961726283799, 48.237036604519986 " fill="none" id="curve_2" stroke="#000000" stroke-linecap="round" stroke-linejoin="round" stroke-width="2.522192789605709"/>
  <path d="M 28.42609400644363, 87.6110262298794 Q 29.449028372914857, 92.04757144556926, 37.819477349058026, 92.8834674789212 " fill="none" id="curve_7" stroke="#000000" stroke-linecap="round" stroke-linejoin="round" stroke-width="2.997796715509756"/>
  <path d="M 21.922593400291483, 65.9400853906769 Q 23.42646564111687, 60.128128380764636, 26.907078745707494, 51.21800981877581 " fill="none" id="curve_8" stroke="#000000" stroke-linecap="round" stroke-linejoin="round" stroke-width="2.3136282682390497"/>
  <path d="M 90.08882054738261, 24.502183046937112 Q 89.83821690049706, 30.695170451766618, 89.53954063389621, 48.28021603056936 " fill="none" id="curve_13" stroke="#000000" stroke-linecap="round" stroke-linejoin="round" stroke-width="1.4676535966942577"/>
  <path d="M 89.53954063389621, 48.28021603056936 Q 89.57941194893903, 62.918431267097745, 89.9270418073053, 78.96302468571645 " fill="none" id="curve_13" stroke="#000000" stroke-linecap="round" stroke-linejoin="round" stroke-width="1.5220239604202126"/>
  <path d="M 89.9270418073053, 78.96302468571645 Q 89.85117960745086, 87.02699667997473, 89.63575714997108, 105.80877812442826 " fill="none" id="curve_13" stroke="#000000" stroke-linecap="round" stroke-linejoin="round" stroke-width="1.4243226282901391"/>
  <path d="M 89.63575714997108, 105.80877812442826 Q 89.65147704178538, 120.07909367995524, 89.79539160882135, 135.13888362399516 " fill="none" id="curve_13" stroke="#000000" stroke-linecap="round" stroke-linejoin="round" stroke-width="1.6072410396535517"/>
  <path d="M 89.79539160882135, 135.13888362399516 Q 89.6929603881076, 138.20783458113522, 88.90594941715918, 138.9349845669919 " fill="none" id="curve_13" stroke="#000000" stroke-linecap="round" stroke-linejoin="round" stroke-width="2.572257903760539"/>
  <path d="M 34.544831245073155, 41.389063207150556 Q 36.163051349674106, 40.00839379165595, 38.83626744156594, 38.58880044035878 " fill="none" id="curve_19" stroke="#000000" stroke-linecap="round" stroke-linejoin="round" stroke-width="2.545548556542045"/>
  <path d="M 89.20708982679679, 22.977451772091023 Q 89.30468826008575, 19.819867993886874, 89.40298805066276, 4.3139625088222004 " fill="none" id="curve_43" stroke="#000000" stroke-linecap="round" stroke-linejoin="round" stroke-width="1.7960480126876675"/>
  <path d="M 89.40298805066276, 4.3139625088222004 Q 89.45530319794662, 2.715956349306687, 89.58437616401028, 1.4205106115595378 " fill="none" id="curve_43" stroke="#000000" stroke-linecap="round" stroke-linejoin="round" stroke-width="2.106951696617484"/>
  <path d="M 21.21883586101937, 69.84311050615096 Q 22.09975219017354, 66.32181826216618, 24.302599028048586, 62.50034117390382 " fill="none" id="curve_102" stroke="#000000" stroke-linecap="round" stroke-linejoin="round" stroke-width="2.2638179187076655"/>
</svg>
