<?xml version="1.0" ?>
<svg height="140" width="140" xmlns="http://www.w3.org/2000/svg">
  <path d="M 12.076786518096924, 101.18374061584473 Q 11.04471830962635, 98.88559577287289, 10.238427136617887, 88.60611907710313 " fill="none" id="curve_1" stroke="#000000" stroke-linecap="round" stroke-linejoin="round" stroke-width="6.81812256800195"/>
  <path d="M 10.238427136617887, 88.60611907710313 Q 10.759219869331673, 78.90520685588096, 12.986039564060505, 69.22656749051833 " fill="none" id="curve_1" stroke="#000000" stroke-linecap="round" stroke-linejoin="round" stroke-width="5.564654287619762"/>
  <path d="M 12.986039564060505, 69.22656749051833 Q 17.822879781982184, 61.07084386382052, 31.22129974446527, 47.025050330317484 " fill="none" id="curve_1" stroke="#000000" stroke-linecap="round" stroke-linejoin="round" stroke-width="5.833971151741229"/>
  <path d="M 31.22129974446527, 47.025050330317484 Q 38.95655971210962, 43.7386610265976, 48.35817298959468, 40.048750557353024 " fill="none" id="curve_1" stroke="#000000" stroke-linecap="round" stroke-linejoin="round" stroke-width="5.12657901632264"/>
  <path d="M 48.35817298959468, 40.048750557353024 Q 48.80872479062729, 42.04979991807698, 49.02746868937153, 50.49540582784536 " fill="none" id="curve_1" stroke="#000000" stroke-linecap="round" stroke-linejoin="round" stroke-width="5.32623442215171"/>
  <path d="M 49.02746868937153, 50.49540582784536 Q 50.8298962015264, 46.96488953222926, 53.26598884545046, 42.82977339586332 " fill="none" id="curve_1" stroke="#000000" stroke-linecap="round" stroke-linejoin="round" stroke-width="6.75352416318674"/>
  <path d="M 53.26598884545046, 42.82977339586332 Q 67.66374185698135, 43.58739503170764, 69.69292115856389, 64.33446454700274 " fill="none" id="curve_1" stroke="#000000" stroke-linecap="round" stroke-linejoin="round" stroke-width="4.885108269057846"/>
  <path d="M 69.69292115856389, 64.33446454700274 Q 68.86118401096381, 82.65121871492437, 58.33925463071535, 95.40476600515606 " fill="none" id="curve_1" stroke="#000000" stroke-linecap="round" stroke-linejoin="round" stroke-width="5.095257958551221"/>
  <path d="M 58.33925463071535, 95.40476600515606 Q 54.43743875615802, 105.52703538488491, 40.27228145412222, 111.91371044643108 " fill="none" id="curve_1" stroke="#000000" stroke-linecap="round" stroke-linejoin="round" stroke-width="4.8055636613180495"/>
  <path d="M 40.27228145412222, 111.91371044643108 Q 16.014157681863818, 111.59669730109322, 13.013965040243711, 96.6591235242582 " fill="none" id="curve_1" stroke="#000000" stroke-linecap="round" stroke-linejoin="round" stroke-width="4.903562283494286"/>
  <path d="M 40.11527888568892, 109.44196268037236 Q 42.265089628592854, 109.34154812377088, 44.01370735770521, 109.09280073541638 " fill="none" id="curve_2" stroke="#000000" stroke-linecap="round" stroke-linejoin="round" stroke-width="3.609628785101578"/>
  <path d="M 89.31509355802214, 136.63796842384906 Q 89.39172529936977, 132.58914885333456, 89.45299003007416, 117.22914824664457 " fill="none" id="curve_3" stroke="#000000" stroke-linecap="round" stroke-linejoin="round" stroke-width="2.170015316572787"/>
  <path d="M 89.45299003007416, 117.22914824664457 Q 89.45535448145816, 110.50047335962061, 89.45928558248488, 99.8551805994907 " fill="none" id="curve_3" stroke="#000000" stroke-linecap="round" stroke-linejoin="round" stroke-width="1.7290083532490839"/>
  <path d="M 89.45928558248488, 99.8551805994907 Q 89.46552634147838, 93.76217557976636, 89.47624973482505, 83.24031723242453 " fill="none" id="curve_3" stroke="#000000" stroke-linecap="round" stroke-linejoin="round" stroke-width="1.675184767978332"/>
  <path d="M 89.47624973482505, 83.24031723242453 Q 89.45628111456799, 76.39894401525291, 89.40249055292388, 69.48248138690973 " fill="none" id="curve_3" stroke="#000000" stroke-linecap="round" stroke-linejoin="round" stroke-width="1.6029938068397105"/>
  <path d="M 89.40249055292388, 69.48248138690973 Q 89.45990654392716, 64.67374375591606, 89.57521116712749, 53.53227787594358 " fill="none" id="curve_3" stroke="#000000" stroke-linecap="round" stroke-linejoin="round" stroke-width="1.5669781081364773"/>
  <path d="M 89.57521116712749, 53.53227787594358 Q 89.55335213417611, 49.64826495828865, 89.51597243560556, 41.27809363094933 " fill="none" id="curve_3" stroke="#000000" stroke-linecap="round" stroke-linejoin="round" stroke-width="1.3625626651671239"/>
  <path d="M 89.51597243560556, 41.27809363094933 Q 89.40269542921459, 40.731867799596195, 89.38204908384088, 30.020961100736926 " fill="none" id="curve_3" stroke="#000000" stroke-linecap="round" stroke-linejoin="round" stroke-width="1.7538151109074973"/>
  <path d="M 89.38204908384088, 30.020961100736926 Q 89.48731072657154, 28.062255643696602, 89.57604162408117, 16.464628512541125 " fill="none" id="curve_3" stroke="#000000" stroke-linecap="round" stroke-linejoin="round" stroke-width="1.4246766825756396"/>
  <path d="M 89.57604162408117, 16.464628512541125 Q 89.5409801504452, 8.257288698910813, 89.22752811027769, 3.6848652908004027 " fill="none" id="curve_3" stroke="#000000" stroke-linecap="round" stroke-linejoin="round" stroke-width="1.532306154090238"/>
  <path d="M 89.22752811027769, 3.6848652908004027 Q 89.13829959645275, 1.9219517351184408, 88.44434531046156, 1.649559313932727 " fill="none" id="curve_3" stroke="#000000" stroke-linecap="round" stroke-linejoin="round" stroke-width="3.501260136983481"/>
  <path d="M 89.33919515110934, 39.6895552563052 Q 89.11624682350735, 39.47209190996711, 88.79242598360986, 39.219050936009836 " fill="none" id="curve_6" stroke="#000000" stroke-linecap="round" stroke-linejoin="round" stroke-width="2.5988905697810467"/>
  <path d="M 62.45038708480103, 43.51187443387392 Q 60.1524274463545, 41.42180192906553, 50.26401662271182, 39.871908815072004 " fill="none" id="curve_7" stroke="#000000" stroke-linecap="round" stroke-linejoin="round" stroke-width="2.5953197271189357"/>
  <path d="M 66.69451858055416, 58.48913642610647 Q 67.07988963318924, 64.40059314415873, 67.44780831394164, 71.52679817002978 " fill="none" id="curve_8" stroke="#000000" stroke-linecap="round" stroke-linejoin="round" stroke-width="3.018684906689456"/>
  <path d="M 67.44780831394164, 71.52679817002978 Q 65.29403566807375, 79.48270761478086, 61.4480177096229, 88.54940794932926 " fill="none" id="curve_8" stroke="#000000" stroke-linecap="round" stroke-linejoin="round" stroke-width="2.4783866419771337"/>
  <path d="M 61.4480177096229, 88.54940794932926 Q 59.26302857343053, 97.13720484483997, 51.54630217905209, 102.37889436887038 " fill="none" id="curve_8" stroke="#000000" stroke-linecap="round" stroke-linejoin="round" stroke-width="2.873998544893012"/>
  <path d="M 32.73561880875452, 113.56690472319136 Q 30.642133061814707, 112.9771729063301, 28.623355854094306, 111.93095307400024 " fill="none" id="curve_9" stroke="#000000" stroke-linecap="round" stroke-linejoin="round" stroke-width="2.943983032639231"/>
  <path d="M 28.045901793571595, 49.16043961052226 Q 25.246623643293255, 51.04679408950136, 22.419489459708338, 54.54026799237715 " fill="none" id="curve_12" stroke="#000000" stroke-linecap="round" stroke-linejoin="round" stroke-width="3.3928551942465783"/>
  <path d="M 63.203542049329144, 88.15643607124252 Q 59.49842462266496, 95.22264785233253, 51.10009494640556, 103.65656258155977 " fill="none" id="curve_27" stroke="#000000" stroke-linecap="round" stroke-linejoin="round" stroke-width="2.895224419138499"/>
  <path d="M 88.45832990050025, 139.24702172655387 Q 88.95499778210285, 138.96252426828377, 89.38922247974057, 138.04928278790536 " fill="none" id="curve_28" stroke="#000000" stroke-linecap="round" stroke-linejoin="round" stroke-width="2.23617626727604"/>
  <path d="M 60.33205920840457, 92.59614111420849 Q 60.164466046360324, 90.86550860046825, 59.54972440620936, 90.02748062252027 " fill="none" id="curve_30" stroke="#000000" stroke-linecap="round" stroke-linejoin="round" stroke-width="3.9409757298219374"/>
  <path d="M 56.38078269579524, 96.70345359909041 Q 59.7065037647936, 95.82057818385583, 61.84573742628688, 93.91743464728167 " fill="none" id="curve_46" stroke="#000000" stroke-linecap="round" stroke-linejoin="round" stroke-width="2.980414628024711"/>
  <path d="M 25.60908806090083, 111.78304764688983 Q 21.527521513043805, 107.8681077352982, 11.945863088192105, 101.93975929245093 " fill="none" id="curve_126" stroke="#000000" stroke-linecap="round" stroke-linejoin="round" stroke-width="2.425215044560381"/>
</svg>
