<?xml version="1.0" ?>
<svg height="140" width="140" xmlns="http://www.w3.org/2000/svg">
  <path d="M 57.795475006103516, 75.53962516784668 Q 54.87075150711585, 72.16313918128401, 49.80433602443412, 59.11188155465152 " fill="none" id="curve_1" stroke="#000000" stroke-linecap="round" stroke-linejoin="round" stroke-width="4.695683568570838"/>
  <path d="M 49.80433602443412, 59.11188155465152 Q 48.35746125614261, 51.06009933626365, 33.662252007782584, 47.72197120306669 " fill="none" id="curve_1" stroke="#000000" stroke-linecap="round" stroke-linejoin="round" stroke-width="4.8173579466760055"/>
  <path d="M 33.662252007782584, 47.72197120306669 Q 28.39091918838522, 53.33782475249083, 21.76455250033877, 59.35180989314273 " fill="none" id="curve_1" stroke="#000000" stroke-linecap="round" stroke-linejoin="round" stroke-width="9.381530298200628"/>
  <path d="M 21.76455250033877, 59.35180989314273 Q 19.140537449281332, 73.01327116110991, 8.488534509895173, 89.46568378652736 " fill="none" id="curve_1" stroke="#000000" stroke-linecap="round" stroke-linejoin="round" stroke-width="4.466468472141496"/>
  <path d="M 8.488534509895173, 89.46568378652736 Q 9.274593513339735, 118.30387666509364, 26.42785791027851, 122.11831109768968 " fill="none" id="curve_1" stroke="#000000" stroke-linecap="round" stroke-linejoin="round" stroke-width="6.17297524179874"/>
  <path d="M 26.42785791027851, 122.11831109768968 Q 46.65007206035989, 117.58002863949812, 57.31310428715059, 93.5273875746893 " fill="none" id="curve_1" stroke="#000000" stroke-linecap="round" stroke-linejoin="round" stroke-width="4.603526768206111"/>
  <path d="M 57.31310428715059, 93.5273875746893 Q 57.15104644240061, 73.33698695699472, 52.69831806475701, 70.29538397310498 " fill="none" id="curve_1" stroke="#000000" stroke-linecap="round" stroke-linejoin="round" stroke-width="3.418070439263098"/>
  <path d="M 35.28721245561977, 53.40328855631081 Q 28.38956531622015, 56.64508095847671, 22.148748348304167, 63.69248526341535 " fill="none" id="curve_2" stroke="#000000" stroke-linecap="round" stroke-linejoin="round" stroke-width="3.0480186266544136"/>
  <path d="M 36.609160886035205, 57.37180295164379 Q 36.91971658508753, 57.94127676429544, 37.12312968751897, 60.126311927178975 " fill="none" id="curve_3" stroke="#000000" stroke-linecap="round" stroke-linejoin="round" stroke-width="2.5637770580653156"/>
  <path d="M 11.465886321487737, 81.28416453820617 Q 10.41637862659699, 95.42021532865303, 7.299862272707233, 105.0144068528142 " fill="none" id="curve_4" stroke="#000000" stroke-linecap="round" stroke-linejoin="round" stroke-width="4.6924144155777805"/>
  <path d="M 7.299862272707233, 105.0144068528142 Q 10.843052976512753, 115.70477347320129, 27.462156707921753, 119.36129000397497 " fill="none" id="curve_4" stroke="#000000" stroke-linecap="round" stroke-linejoin="round" stroke-width="3.2964598828609146"/>
  <path d="M 27.462156707921753, 119.36129000397497 Q 34.52483780778179, 118.11036722007232, 38.96357898497511, 115.46923282746663 " fill="none" id="curve_4" stroke="#000000" stroke-linecap="round" stroke-linejoin="round" stroke-width="4.636452830048641"/>
  <path d="M 89.84628676068974, 57.773406050593024 Q 89.79110558987517, 74.17165655976157, 89.52844481422815, 93.575878248545 " fill="none" id="curve_7" stroke="#000000" stroke-linecap="round" stroke-linejoin="round" stroke-width="1.9165256058110787"/>
  <path d="M 89.52844481422815, 93.575878248545 Q 89.68552486417526, 100.09025543774533, 90.01091692668172, 127.40929873768599 " fill="none" id="curve_7" stroke="#000000" stroke-linecap="round" stroke-linejoin="round" stroke-width="1.8863609020922822"/>
  <path d="M 90.01091692668172, 127.40929873768599 Q 89.79395966122965, 133.23113693619032, 89.44744851213063, 138.5978778524529 " fill="none" id="curve_7" stroke="#000000" stroke-linecap="round" stroke-linejoin="round" stroke-width="2.340506024970181"/>
  <path d="M 89.94756132969225, 55.622661370974356 Q 89.65189081158125, 55.205402903119506, 89.61449494835922, 42.72504753577262 " fill="none" id="curve_11" stroke="#000000" stroke-linecap="round" stroke-linejoin="round" stroke-width="1.5328032698218124"/>
  <path d="M 89.61449494835922, 42.72504753577262 Q 89.59823087077305, 39.29988143979372, 89.5789916684884, 29.292392279269013 " fill="none" id="curve_11" stroke="#000000" stroke-linecap="round" stroke-linejoin="round" stroke-width="1.4531949858480935"/>
  <path d="M 89.5789916684884, 29.292392279269013 Q 89.5739776300624, 25.821932516816716, 89.56757818217513, 15.476918036361312 " fill="none" id="curve_11" stroke="#000000" stroke-linecap="round" stroke-linejoin="round" stroke-width="1.4035928171256784"/>
  <path d="M 89.56757818217513, 15.476918036361312 Q 89.50073586302086, 5.653526581723842, 88.60232020858783, 0.534054512973082 " fill="none" id="curve_11" stroke="#000000" stroke-linecap="round" stroke-linejoin="round" stroke-width="2.310949379190206"/>
  <path d="M 88.60232020858783, 0.534054512973082 Q 87.83462425360668, 0.8715840202479761, 87.33115471843738, 1.8041846704437852 " fill="none" id="curve_11" stroke="#000000" stroke-linecap="round" stroke-linejoin="round" stroke-width="2.523702598479857"/>
  <path d="M 87.33115471843738, 1.8041846704437852 Q 87.99866949394954, 3.0372312242434845, 88.54191261646778, 5.3167154002706205 " fill="none" id="curve_11" stroke="#000000" stroke-linecap="round" stroke-linejoin="round" stroke-width="2.5811820029881556"/>
  <path d="M 54.905655063931036, 68.71433897303852 Q 51.72978691881966, 62.21615618026355, 43.40235040747797, 53.08563495281108 " fill="none" id="curve_18" stroke="#000000" stroke-linecap="round" stroke-linejoin="round" stroke-width="2.554962149815265"/>
  <path d="M 11.488950906275825, 79.1933901029872 Q 9.91869263288648, 90.34762370170122, 7.345184562201743, 100.09166947932115 " fill="none" id="curve_19" stroke="#000000" stroke-linecap="round" stroke-linejoin="round" stroke-width="3.9278021965428405"/>
  <path d="M 7.345184562201743, 100.09166947932115 Q 12.442768416350308, 105.28986592440421, 16.65190350198613, 115.3818601637994 " fill="none" id="curve_19" stroke="#000000" stroke-linecap="round" stroke-linejoin="round" stroke-width="3.258525586944343"/>
  <path d="M 55.115158146705255, 97.93797892033109 Q 56.631902447549365, 95.75543504123414, 57.02511643764302, 79.70618074813466 " fill="none" id="curve_20" stroke="#000000" stroke-linecap="round" stroke-linejoin="round" stroke-width="4.466121120634487"/>
  <path d="M 57.02511643764302, 79.70618074813466 Q 54.740913323340074, 70.63056227948749, 50.02421972956419, 61.40416163807745 " fill="none" id="curve_20" stroke="#000000" stroke-linecap="round" stroke-linejoin="round" stroke-width="3.1281605764636673"/>
  <path d="M 11.164038436519775, 93.28153315759641 Q 11.106801515923207, 100.19198598215624, 10.777415145090067, 102.38560562567554 " fill="none" id="curve_21" stroke="#000000" stroke-linecap="round" stroke-linejoin="round" stroke-width="4.095962314548774"/>
  <path d="M 10.067373834509958, 83.94143080496913 Q 9.176869483177079, 83.96890077945059, 9.016022287268747, 84.62638032221919 " fill="none" id="curve_22" stroke="#000000" stroke-linecap="round" stroke-linejoin="round" stroke-width="4.610155002180353"/>
  <path d="M 32.5550146171327, 115.9386669982931 Q 31.476515223422332, 116.1918159415664, 30.85289726048076, 117.26819401500828 " fill="none" id="curve_24" stroke="#000000" stroke-linecap="round" stroke-linejoin="round" stroke-width="3.658564800231448"/>
  <path d="M 9.032680659816307, 97.64632808250369 Q 7.443472720917807, 97.49426134828803, 6.439216450147075, 96.83056818586216 " fill="none" id="curve_25" stroke="#000000" stroke-linecap="round" stroke-linejoin="round" stroke-width="4.215632247822501"/>
  <path d="M 38.463617113772315, 55.127717215121706 Q 34.179608962106, 54.75162814544467, 31.358478269614075, 52.83365352221567 " fill="none" id="curve_27" stroke="#000000" stroke-linecap="round" stroke-linejoin="round" stroke-width="2.730379763802048"/>
  <path d="M 28.42646382832242, 57.1623249999776 Q 27.341837623743817, 62.38853072922941, 19.069430195645268, 63.56504997554747 " fill="none" id="curve_29" stroke="#000000" stroke-linecap="round" stroke-linejoin="round" stroke-width="4.1970459501923365"/>
  <path d="M 53.939303355049944, 67.01531337465445 Q 53.56249086949281, 64.40309695067639, 51.74264908144984, 62.826294647651004 " fill="none" id="curve_31" stroke="#000000" stroke-linecap="round" stroke-linejoin="round" stroke-width="2.910737533269595"/>
  <path d="M 51.68701010985443, 102.58350399792842 Q 53.660162101926375, 97.01897785837639, 57.791530703175624, 89.40043090860199 " fill="none" id="curve_33" stroke="#000000" stroke-linecap="round" stroke-linejoin="round" stroke-width="3.2208644450546"/>
  <path d="M 23.782055166075413, 54.0962663219837 Q 25.155093686092794, 52.344090787046824, 29.803813900921135, 51.11851908620714 " fill="none" id="curve_36" stroke="#000000" stroke-linecap="round" stroke-linejoin="round" stroke-width="3.1690616238312788"/>
  <path d="M 53.95249935915597, 79.44478401056382 Q 54.581330966711946, 78.94470446795269, 55.21012629343109, 77.65768203278472 " fill="none" id="curve_38" stroke="#000000" stroke-linecap="round" stroke-linejoin="round" stroke-width="3.217397849772592"/>
  <path d="M 39.08553401890331, 116.35418855608006 Q 45.83711067267943, 111.08781547583051, 53.3064695719025, 100.60336795538132 " fill="none" id="curve_40" stroke="#000000" stroke-linecap="round" stroke-linejoin="round" stroke-width="2.8350157909694764"/>
  <path d="M 16.41603983557737, 64.24239028874584 Q 16.97145961526871, 63.47870856590581, 18.14785416626918, 62.782198457947594 " fill="none" id="curve_85" stroke="#000000" stroke-linecap="round" stroke-linejoin="round" stroke-width="3.132987710318236"/>
  <path d="M 56.766061186790466, 96.9648847579956 Q 52.31089778328524, 103.2435266606969, 39.487702331852915, 115.36154741570046 " fill="none" id="curve_99" stroke="#000000" stroke-linecap="round" stroke-linejoin="round" stroke-width="3.3730360937850943"/>
  <path d="M 52.33144463927618, 62.981463392204056 Q 52.30908032452245, 62.775703451467095, 52.28257329230087, 62.366313412751744 " fill="none" id="curve_103" stroke="#000000" stroke-linecap="round" stroke-linejoin="round" stroke-width="3.6425424279086775"/>
  <path d="M 10.893867243412977, 81.89099059557641 Q 10.964672519337293, 85.3169887063402, 11.249831723575486, 86.93884133531442 " fill="none" id="curve_111" stroke="#000000" stroke-linecap="round" stroke-linejoin="round" stroke-width="4.5010793621638046"/>
  <path d="M 13.956097257866205, 115.4808365192693 Q 12.47598635787103, 113.54968137150217, 11.026051207934236, 109.55745015171698 " fill="none" id="curve_120" stroke="#000000" stroke-linecap="round" stroke-linejoin="round" stroke-width="3.3236391062680184"/>
  <path d="M 45.962792808239584, 107.60009951771359 Q 52.182888636138216, 104.03019557423931, 56.69722973012395, 94.01793436710363 " fill="none" id="curve_149" stroke="#000000" stroke-linecap="round" stroke-linejoin="round" stroke-width="2.888818643539417"/>
  <path d="M 52.46061522244554, 98.94366304076843 Q 51.77647223047809, 102.1514347463541, 49.56913283488369, 104.15891605279074 " fill="none" id="curve_177" stroke="#000000" stroke-linecap="round" stroke-linejoin="round" stroke-width="3.6733202179899327"/>
</svg>
