<?xml version="1.0" ?>
<svg height="140" width="140" xmlns="http://www.w3.org/2000/svg">
  <path d="M 53.49886703491211, 87.50535202026367 Q 51.944735979255086, 82.86137314184546, 40.91456361572085, 80.13761442304542 " fill="none" id="curve_1" stroke="#000000" stroke-linecap="round" stroke-linejoin="round" stroke-width="7.166586660473109"/>
  <path d="M 40.91456361572085, 80.13761442304542 Q 23.584228324104163, 80.4848038038052, 20.590167216615114, 89.68250361002515 " fill="none" id="curve_1" stroke="#000000" stroke-linecap="round" stroke-linejoin="round" stroke-width="6.460683597651341"/>
  <path d="M 20.590167216615114, 89.68250361002515 Q 17.818252589825576, 94.24709678340946, 16.654784616595236, 105.03194371314302 " fill="none" id="curve_1" stroke="#000000" stroke-linecap="round" stroke-linejoin="round" stroke-width="6.88536823464513"/>
  <path d="M 16.654784616595236, 105.03194371314302 Q 18.149666015785566, 124.62582389885478, 37.36924982773188, 127.79551823864836 " fill="none" id="curve_1" stroke="#000000" stroke-linecap="round" stroke-linejoin="round" stroke-width="4.954058377341478"/>
  <path d="M 37.36924982773188, 127.79551823864836 Q 60.48064852142207, 127.35243656176317, 62.60568482704478, 109.37197900391288 " fill="none" id="curve_1" stroke="#000000" stroke-linecap="round" stroke-linejoin="round" stroke-width="5.408074669676466"/>
  <path d="M 62.60568482704478, 109.37197900391288 Q 61.47102189933568, 90.39112857125102, 48.63969669143637, 83.26116837397515 " fill="none" id="curve_1" stroke="#000000" stroke-linecap="round" stroke-linejoin="round" stroke-width="5.268554273235089"/>
  <path d="M 36.12913794040372, 122.99453424104507 Q 36.50796279569776, 125.70115328666576, 46.290879653448556, 125.9151291531306 " fill="none" id="curve_2" stroke="#000000" stroke-linecap="round" stroke-linejoin="round" stroke-width="3.516750305789504"/>
  <path d="M 46.290879653448556, 125.9151291531306 Q 52.80097461469836, 122.14721635527461, 59.306386939569215, 116.71934469352759 " fill="none" id="curve_2" stroke="#000000" stroke-linecap="round" stroke-linejoin="round" stroke-width="3.456535945273358"/>
  <path d="M 50.95289580660511, 88.39162076883426 Q 50.429831904458595, 83.73375658878449, 46.35948452992445, 82.19677135480606 " fill="none" id="curve_3" stroke="#000000" stroke-linecap="round" stroke-linejoin="round" stroke-width="3.8855090071388685"/>
  <path d="M 46.35948452992445, 82.19677135480606 Q 55.33138389521981, 82.68875008078497, 56.726714648427375, 87.48308864698072 " fill="none" id="curve_3" stroke="#000000" stroke-linecap="round" stroke-linejoin="round" stroke-width="2.2141622329287336"/>
  <path d="M 56.726714648427375, 87.48308864698072 Q 49.028656558848155, 86.84753114198354, 46.316662137961224, 83.05332255021497 " fill="none" id="curve_3" stroke="#000000" stroke-linecap="round" stroke-linejoin="round" stroke-width="3.106107401247598"/>
  <path d="M 51.23947523319879, 81.86643007470698 Q 50.026323299539754, 80.93000113439454, 46.095999521599666, 80.10262972880211 " fill="none" id="curve_4" stroke="#000000" stroke-linecap="round" stroke-linejoin="round" stroke-width="2.2584483070683077"/>
  <path d="M 18.618599485523188, 89.67793006163352 Q 17.102825799109247, 96.6125079952221, 13.675108883994533, 101.76885686198186 " fill="none" id="curve_5" stroke="#000000" stroke-linecap="round" stroke-linejoin="round" stroke-width="2.937194587573674"/>
  <path d="M 19.249348809315723, 86.97001859388632 Q 18.919285847223524, 90.39987269980413, 18.58222101637384, 98.1653257892221 " fill="none" id="curve_6" stroke="#000000" stroke-linecap="round" stroke-linejoin="round" stroke-width="2.3471092266956304"/>
  <path d="M 54.81741864478224, 93.01334392719 Q 58.86303353526034, 95.2973116478642, 62.18992749275758, 99.01239437524124 " fill="none" id="curve_25" stroke="#000000" stroke-linecap="round" stroke-linejoin="round" stroke-width="2.4781973374259376"/>
  <path d="M 50.06962884371234, 125.73345835548636 Q 51.44057631723431, 126.22772538783184, 53.475958176963495, 126.84475623498066 " fill="none" id="curve_30" stroke="#000000" stroke-linecap="round" stroke-linejoin="round" stroke-width="3.441529950219661"/>
  <path d="M 20.89949693571476, 94.7633577461189 Q 20.69452426291176, 94.75788635998312, 20.315925817085635, 94.74676906970633 " fill="none" id="curve_60" stroke="#000000" stroke-linecap="round" stroke-linejoin="round" stroke-width="2.445427302261831"/>
  <path d="M 19.142907694184036, 117.03999839040462 Q 26.212180893628233, 121.89646125868691, 36.60066647119255, 127.3696965068224 " fill="none" id="curve_63" stroke="#000000" stroke-linecap="round" stroke-linejoin="round" stroke-width="2.531158453689016"/>
  <path d="M 62.612951880403585, 115.32742193756472 Q 61.88458376153302, 114.76091800592816, 61.158186751629955, 113.62937310569018 " fill="none" id="curve_64" stroke="#000000" stroke-linecap="round" stroke-linejoin="round" stroke-width="5.93785906128701"/>
  <path d="M 47.22565504448515, 85.58879519870972 Q 47.938924728089994, 85.8110526187718, 49.53536891816357, 86.13890516860215 " fill="none" id="curve_66" stroke="#000000" stroke-linecap="round" stroke-linejoin="round" stroke-width="1.6487281235898845"/>
  <path d="M 28.633401693168576, 79.88122607968025 Q 24.235204037387803, 81.60496612886577, 20.050635071787553, 86.64818720639086 " fill="none" id="curve_67" stroke="#000000" stroke-linecap="round" stroke-linejoin="round" stroke-width="2.510281022955684"/>
  <path d="M 19.621587105681883, 109.44591186069061 Q 19.54168306112783, 100.58552333221797, 17.006698995563312, 99.72984394850873 " fill="none" id="curve_72" stroke="#000000" stroke-linecap="round" stroke-linejoin="round" stroke-width="2.4793311720172095"/>
  <path d="M 16.133502335419678, 114.67422829515496 Q 16.12916081896657, 113.97865962807444, 16.12157099223881, 113.06186278817835 " fill="none" id="curve_106" stroke="#000000" stroke-linecap="round" stroke-linejoin="round" stroke-width="3.583508685033648"/>
  <path d="M 63.894758241786164, 100.02903313126404 Q 63.13894502116854, 98.73542197261669, 60.85015091781395, 97.71373239463342 " fill="none" id="curve_115" stroke="#000000" stroke-linecap="round" stroke-linejoin="round" stroke-width="2.704194929804849"/>
</svg>
