<?xml version="1.0" ?>
<svg height="140" width="140" xmlns="http://www.w3.org/2000/svg">
  <path d="M 41.10036277770996, 87.08865070343018 Q 39.50439999155195, 92.68988077068822, 27.58847658126126, 95.88042705283874 " fill="none" id="curve_1" stroke="#000000" stroke-linecap="round" stroke-linejoin="round" stroke-width="4.836339891397414"/>
  <path d="M 27.58847658126126, 95.88042705283874 Q 17.33820900774048, 95.7205758992776, 14.733038190684603, 94.07836637812235 " fill="none" id="curve_1" stroke="#000000" stroke-linecap="round" stroke-linejoin="round" stroke-width="5.571108542066396"/>
  <path d="M 14.733038190684603, 94.07836637812235 Q 5.513233708612663, 92.96253682100676, 3.5981490176822106, 77.47982310070267 " fill="none" id="curve_1" stroke="#000000" stroke-linecap="round" stroke-linejoin="round" stroke-width="6.260466674383551"/>
  <path d="M 3.5981490176822106, 77.47982310070267 Q 4.658770476361481, 61.86196040650317, 14.758233802970986, 49.52934975429993 " fill="none" id="curve_1" stroke="#000000" stroke-linecap="round" stroke-linejoin="round" stroke-width="5.290263530055566"/>
  <path d="M 14.758233802970986, 49.52934975429993 Q 21.403655809110678, 42.10055006186205, 35.22051027871109, 34.5527190659441 " fill="none" id="curve_1" stroke="#000000" stroke-linecap="round" stroke-linejoin="round" stroke-width="4.755128885414477"/>
  <path d="M 35.22051027871109, 34.5527190659441 Q 35.60909777522464, 40.08641640613146, 37.729510772534695, 43.75160897268785 " fill="none" id="curve_1" stroke="#000000" stroke-linecap="round" stroke-linejoin="round" stroke-width="3.1293049419449863"/>
  <path d="M 37.729510772534695, 43.75160897268785 Q 33.900993414736924, 45.3813897810234, 32.80747049761017, 52.241270863032206 " fill="none" id="curve_1" stroke="#000000" stroke-linecap="round" stroke-linejoin="round" stroke-width="3.3387604516872837"/>
  <path d="M 36.6777866124721, 37.39162740374197 Q 46.3828238522408, 39.71907053491319, 50.643070400418715, 63.77886981751071 " fill="none" id="curve_2" stroke="#000000" stroke-linecap="round" stroke-linejoin="round" stroke-width="3.809967924600009"/>
  <path d="M 50.643070400418715, 63.77886981751071 Q 50.37760028832417, 86.92414731952658, 40.40892531023996, 90.47125690057493 " fill="none" id="curve_2" stroke="#000000" stroke-linecap="round" stroke-linejoin="round" stroke-width="4.270546482079682"/>
  <path d="M 50.26536991263092, 73.23758374852667 Q 49.22696853384146, 71.39326212260524, 48.7346579658227, 64.23689732411594 " fill="none" id="curve_3" stroke="#000000" stroke-linecap="round" stroke-linejoin="round" stroke-width="2.756835449142685"/>
  <path d="M 89.64207756108061, 62.483661235934434 Q 88.22555198070928, 63.21539711994402, 88.06954699718051, 96.58627727742208 " fill="none" id="curve_4" stroke="#000000" stroke-linecap="round" stroke-linejoin="round" stroke-width="4.385019640424249"/>
  <path d="M 88.06954699718051, 96.58627727742208 Q 88.32764601911599, 98.59697850012286, 88.44368435027843, 129.61673442417555 " fill="none" id="curve_4" stroke="#000000" stroke-linecap="round" stroke-linejoin="round" stroke-width="4.3258209499889615"/>
  <path d="M 88.44368435027843, 129.61673442417555 Q 88.44901224581118, 135.80131365264538, 88.47128243832218, 137.9882709465412 " fill="none" id="curve_4" stroke="#000000" stroke-linecap="round" stroke-linejoin="round" stroke-width="4.505758792913656"/>
  <path d="M 88.47128243832218, 137.9882709465412 Q 88.1836133867115, 138.1612461912115, 87.5275317490764, 138.26862284405547 " fill="none" id="curve_4" stroke="#000000" stroke-linecap="round" stroke-linejoin="round" stroke-width="3.387017306804726"/>
  <path d="M 88.16067985502376, 94.61256282696232 Q 89.17348650374545, 94.24708378346782, 89.25285336713458, 79.8837630585677 " fill="none" id="curve_5" stroke="#000000" stroke-linecap="round" stroke-linejoin="round" stroke-width="2.1216523893637813"/>
  <path d="M 87.59883268245002, 63.009541814138956 Q 88.19579784570314, 61.716180796098925, 88.41034962887169, 42.953363743429165 " fill="none" id="curve_6" stroke="#000000" stroke-linecap="round" stroke-linejoin="round" stroke-width="4.648041726234777"/>
  <path d="M 88.41034962887169, 42.953363743429165 Q 88.38450567960204, 34.10736289112431, 88.28231157112258, 21.64415330886805 " fill="none" id="curve_6" stroke="#000000" stroke-linecap="round" stroke-linejoin="round" stroke-width="4.420992062523958"/>
  <path d="M 88.28231157112258, 21.64415330886805 Q 88.25477864383349, 7.376761646440746, 88.06504460347502, 2.5700599028417095 " fill="none" id="curve_6" stroke="#000000" stroke-linecap="round" stroke-linejoin="round" stroke-width="4.312292354307518"/>
  <path d="M 88.06504460347502, 2.5700599028417095 Q 86.89311846857343, 2.466305632793965, 85.78144605536711, 2.3288689985380584 " fill="none" id="curve_6" stroke="#000000" stroke-linecap="round" stroke-linejoin="round" stroke-width="4.537640616740752"/>
  <path d="M 10.60474313433426, 51.60694126794414 Q 7.9005788853735055, 63.17283880355534, 1.674848469536892, 71.23043093357293 " fill="none" id="curve_8" stroke="#000000" stroke-linecap="round" stroke-linejoin="round" stroke-width="3.492473221788694"/>
  <path d="M 31.66856302236539, 33.98968040850811 Q 31.099100643189736, 34.95318110056722, 29.333681306041896, 35.654828108016765 " fill="none" id="curve_12" stroke="#000000" stroke-linecap="round" stroke-linejoin="round" stroke-width="3.22893331211212"/>
  <path d="M 50.527239618932114, 76.27461369462752 Q 50.08699493756521, 76.08559765627133, 49.50503640293745, 75.60378506435264 " fill="none" id="curve_17" stroke="#000000" stroke-linecap="round" stroke-linejoin="round" stroke-width="4.094352169397114"/>
  <path d="M 37.019962959747325, 93.0245020945703 Q 37.003336550064795, 92.44518003712516, 36.97400333089635, 91.31838335023363 " fill="none" id="curve_18" stroke="#000000" stroke-linecap="round" stroke-linejoin="round" stroke-width="3.9575365292011235"/>
  <path d="M 39.739022148371454, 38.40259645058339 Q 39.660927351708985, 36.24253966805955, 38.8638216864729, 35.43396949199083 " fill="none" id="curve_19" stroke="#000000" stroke-linecap="round" stroke-linejoin="round" stroke-width="3.018865109299711"/>
  <path d="M 2.7800893245428995, 67.13419709803924 Q 4.275836517863879, 80.24671513358876, 10.315722926738331, 89.01427607088424 " fill="none" id="curve_20" stroke="#000000" stroke-linecap="round" stroke-linejoin="round" stroke-width="2.9287954516127503"/>
  <path d="M 49.05966856703756, 57.240661287983016 Q 48.13583365762873, 56.68451021958958, 47.312835834508185, 54.931188670711414 " fill="none" id="curve_24" stroke="#000000" stroke-linecap="round" stroke-linejoin="round" stroke-width="2.6625046480533885"/>
  <path d="M 48.7431640912323, 73.0918983714206 Q 48.485687177196155, 73.46993434699222, 48.26486897244395, 74.24872333955803 " fill="none" id="curve_39" stroke="#000000" stroke-linecap="round" stroke-linejoin="round" stroke-width="3.6176559690773455"/>
  <path d="M 88.57034568568018, 2.2739273986206285 Q 88.0882250803203, 1.9222743271457532, 85.19716268471814, 1.7801140822932375 " fill="none" id="curve_54" stroke="#000000" stroke-linecap="round" stroke-linejoin="round" stroke-width="2.135902169426235"/>
  <path d="M 48.790726237858365, 63.092758727806924 Q 48.0312717694985, 54.541762211193415, 45.596316320272855, 46.777232587037815 " fill="none" id="curve_64" stroke="#000000" stroke-linecap="round" stroke-linejoin="round" stroke-width="1.7633438833339656"/>
  <path d="M 1.845245420389496, 70.6663552944021 Q 1.9586195427101258, 72.17399206429769, 2.223022729244816, 74.30746757892489 " fill="none" id="curve_94" stroke="#000000" stroke-linecap="round" stroke-linejoin="round" stroke-width="2.0030646746271055"/>
  <path d="M 9.574774718519297, 50.89554513502231 Q 15.783736456354493, 49.951807359126306, 20.189731433064907, 46.95642619623692 " fill="none" id="curve_100" stroke="#000000" stroke-linecap="round" stroke-linejoin="round" stroke-width="2.569341093892659"/>
  <path d="M 35.51610099638896, 91.57621801752452 Q 34.37234463002394, 92.23831859929702, 32.18922422620962, 93.09815098946564 " fill="none" id="curve_115" stroke="#000000" stroke-linecap="round" stroke-linejoin="round" stroke-width="3.2692998360561467"/>
  <path d="M 46.853119611199304, 45.77199470135306 Q 45.88753454300352, 44.900950847041315, 44.11000992570261, 43.28173707518067 " fill="none" id="curve_120" stroke="#000000" stroke-linecap="round" stroke-linejoin="round" stroke-width="2.44530260554939"/>
  <path d="M 35.58449619822725, 41.9634911981926 Q 39.563596087711595, 41.43524467719702, 42.087258078621254, 39.476521546851096 " fill="none" id="curve_128" stroke="#000000" stroke-linecap="round" stroke-linejoin="round" stroke-width="2.9466383688777174"/>
  <path d="M 3.493719743342089, 66.44110677007401 Q 3.0720441260420244, 67.61945264846088, 2.5500827335513034, 70.15503305657782 " fill="none" id="curve_130" stroke="#000000" stroke-linecap="round" stroke-linejoin="round" stroke-width="2.8505782773178576"/>
  <path d="M 87.68760200813483, 67.2463021807889 Q 88.00589552269254, 63.486226933456805, 88.83142601116907, 60.950717720700915 " fill="none" id="curve_145" stroke="#000000" stroke-linecap="round" stroke-linejoin="round" stroke-width="2.768701732419089"/>
  <path d="M 89.53591838548789, 93.63127736695446 Q 89.1412924168888, 94.8563773854985, 88.17664567802984, 96.19286989848523 " fill="none" id="curve_160" stroke="#000000" stroke-linecap="round" stroke-linejoin="round" stroke-width="2.2858703420812456"/>
  <path d="M 88.04353712205888, 59.745315546201816 Q 88.95118485154332, 59.45279441814508, 89.43480571178591, 58.231089422309594 " fill="none" id="curve_161" stroke="#000000" stroke-linecap="round" stroke-linejoin="round" stroke-width="2.6862381579453345"/>
  <path d="M 20.230953590934785, 97.1799311574954 Q 14.992620234736524, 94.29612603324547, 6.591933314139528, 89.19088785162849 " fill="none" id="curve_181" stroke="#000000" stroke-linecap="round" stroke-linejoin="round" stroke-width="2.3291602112820224"/>
</svg>
