<?xml version="1.0" ?>
<svg height="140" width="140" xmlns="http://www.w3.org/2000/svg">
  <path d="M 56.66292095184326, 98.24409878253937 Q 55.14057741181151, 107.52275960733175, 42.64578697679747, 117.90060286255631 " fill="none" id="curve_1" stroke="#000000" stroke-linecap="round" stroke-linejoin="round" stroke-width="4.608415663177224"/>
  <path d="M 42.64578697679747, 117.90060286255631 Q 34.489060381818064, 117.87656261968817, 31.655751460465588, 117.66421135863574 " fill="none" id="curve_1" stroke="#000000" stroke-linecap="round" stroke-linejoin="round" stroke-width="4.449757001267882"/>
  <path d="M 31.655751460465588, 117.66421135863574 Q 16.45350286767375, 115.29112210015815, 6.689453248811603, 103.92758315838583 " fill="none" id="curve_1" stroke="#000000" stroke-linecap="round" stroke-linejoin="round" stroke-width="5.164503611603115"/>
  <path d="M 6.689453248811603, 103.92758315838583 Q 5.5539978764703255, 101.26809634192317, 4.97647662755897, 93.27021059258898 " fill="none" id="curve_1" stroke="#000000" stroke-linecap="round" stroke-linejoin="round" stroke-width="4.424859512742847"/>
  <path d="M 4.97647662755897, 93.27021059258898 Q 5.641850113399098, 68.89661093754874, 17.717426580839078, 60.53745534712318 " fill="none" id="curve_1" stroke="#000000" stroke-linecap="round" stroke-linejoin="round" stroke-width="5.001945066903935"/>
  <path d="M 17.717426580839078, 60.53745534712318 Q 17.75232042958608, 66.43728663745878, 17.866763654221174, 69.71251314815501 " fill="none" id="curve_1" stroke="#000000" stroke-linecap="round" stroke-linejoin="round" stroke-width="4.7029796510724315"/>
  <path d="M 19.01452916690326, 60.81323346759162 Q 22.917699362323553, 62.658367633001205, 42.62669344244473, 63.34977585732939 " fill="none" id="curve_2" stroke="#000000" stroke-linecap="round" stroke-linejoin="round" stroke-width="6.224971743689776"/>
  <path d="M 42.62669344244473, 63.34977585732939 Q 52.42723237161985, 67.04112666823033, 57.50781548166986, 88.84740141048285 " fill="none" id="curve_2" stroke="#000000" stroke-linecap="round" stroke-linejoin="round" stroke-width="5.219057331681518"/>
  <path d="M 57.50781548166986, 88.84740141048285 Q 57.40186790593527, 99.99774505585498, 56.19856526065814, 102.50686513033635 " fill="none" id="curve_2" stroke="#000000" stroke-linecap="round" stroke-linejoin="round" stroke-width="3.483950446519286"/>
  <path d="M 56.19856526065814, 102.50686513033635 Q 52.84131078472557, 108.74284103101868, 48.19223308610586, 114.61469892414087 " fill="none" id="curve_2" stroke="#000000" stroke-linecap="round" stroke-linejoin="round" stroke-width="3.6511429888248452"/>
  <path d="M 28.636996369254064, 116.21793215428448 Q 16.984187491620872, 114.0657692789008, 8.260630794907176, 108.69441154452893 " fill="none" id="curve_3" stroke="#000000" stroke-linecap="round" stroke-linejoin="round" stroke-width="3.2323392206432384"/>
  <path d="M 8.260630794907176, 108.69441154452893 Q 16.467138489656463, 108.96771917617815, 17.460447028942472, 112.78991238489475 " fill="none" id="curve_3" stroke="#000000" stroke-linecap="round" stroke-linejoin="round" stroke-width="3.7133116410049958"/>
  <path d="M 17.460447028942472, 112.78991238489475 Q 26.003795885119985, 114.90345976423225, 36.070388253032775, 117.37521090622637 " fill="none" id="curve_3" stroke="#000000" stroke-linecap="round" stroke-linejoin="round" stroke-width="2.68993489192132"/>
  <path d="M 19.758896280012806, 60.1575226537715 Q 27.134467626442774, 61.48197666994407, 30.07921269477843, 65.82845394969436 " fill="none" id="curve_6" stroke="#000000" stroke-linecap="round" stroke-linejoin="round" stroke-width="3.2303578257995063"/>
  <path d="M 30.07921269477843, 65.82845394969436 Q 28.145544278280955, 60.86760298666976, 18.821193433721522, 58.441241674470504 " fill="none" id="curve_6" stroke="#000000" stroke-linecap="round" stroke-linejoin="round" stroke-width="3.6601287996234158"/>
  <path d="M 18.821193433721522, 58.441241674470504 Q 11.856229774583634, 59.840065776542296, 9.929263631126423, 72.44073797173763 " fill="none" id="curve_6" stroke="#000000" stroke-linecap="round" stroke-linejoin="round" stroke-width="2.50369666001707"/>
  <path d="M 9.929263631126423, 72.44073797173763 Q 12.743545694403469, 69.17478090958353, 15.379226424566852, 63.80893154275851 " fill="none" id="curve_6" stroke="#000000" stroke-linecap="round" stroke-linejoin="round" stroke-width="2.833293106943986"/>
  <path d="M 5.131931891580329, 96.6771092316992 Q 4.8919336916912775, 93.67167190677127, 2.102092508820179, 92.86821198405029 " fill="none" id="curve_10" stroke="#000000" stroke-linecap="round" stroke-linejoin="round" stroke-width="2.9974847582118644"/>
  <path d="M 55.50193890029075, 76.59160633050689 Q 55.6420934873776, 76.7402602791417, 55.74722489584808, 77.21499105051615 " fill="none" id="curve_12" stroke="#000000" stroke-linecap="round" stroke-linejoin="round" stroke-width="4.4883595196864565"/>
  <path d="M 17.00833584006146, 71.32411830058545 Q 16.50945085897517, 70.46748883507809, 16.064933961797067, 67.61894122986175 " fill="none" id="curve_15" stroke="#000000" stroke-linecap="round" stroke-linejoin="round" stroke-width="2.9164569341387083"/>
  <path d="M 14.12859340676906, 112.83441381178119 Q 15.842420005528348, 113.91587223178546, 18.418974424132838, 115.39255367396153 " fill="none" id="curve_20" stroke="#000000" stroke-linecap="round" stroke-linejoin="round" stroke-width="3.1941622125652582"/>
  <path d="M 4.95891691020454, 79.74383798647314 Q 7.165386688031187, 73.84780952707973, 11.937498529315825, 65.26601616885767 " fill="none" id="curve_21" stroke="#000000" stroke-linecap="round" stroke-linejoin="round" stroke-width="2.677982857868277"/>
  <path d="M 50.23468730493852, 109.28338458854059 Q 52.91495269223135, 106.89801884453985, 55.2703191084539, 101.96972975439918 " fill="none" id="curve_36" stroke="#000000" stroke-linecap="round" stroke-linejoin="round" stroke-width="2.45172928604045"/>
  <path d="M 89.20660849208335, 137.99297649349484 Q 89.45637322273288, 138.09764406404486, 89.71396607435244, 138.3905823048045 " fill="none" id="curve_37" stroke="#000000" stroke-linecap="round" stroke-linejoin="round" stroke-width="2.040592152433002"/>
  <path d="M 51.82883707233191, 75.38216360425709 Q 47.423894628768124, 71.30954943769636, 41.73354576905814, 61.73615636115415 " fill="none" id="curve_40" stroke="#000000" stroke-linecap="round" stroke-linejoin="round" stroke-width="2.3302444323320155"/>
  <path d="M 39.65428219815732, 61.35089510967687 Q 33.28440444956256, 63.129909230264616, 26.861508707183802, 66.72206510750131 " fill="none" id="curve_56" stroke="#000000" stroke-linecap="round" stroke-linejoin="round" stroke-width="2.708641669607751"/>
  <path d="M 35.73940889087481, 119.08498555141522 Q 34.7555114343408, 118.63930642889868, 33.92097849340796, 117.77662387862232 " fill="none" id="curve_85" stroke="#000000" stroke-linecap="round" stroke-linejoin="round" stroke-width="4.09096282419573"/>
  <path d="M 54.41435428338226, 75.27749160644346 Q 55.561163425909086, 75.34980469777022, 56.51966782853021, 75.53618383434082 " fill="none" id="curve_101" stroke="#000000" stroke-linecap="round" stroke-linejoin="round" stroke-width="2.6751289858814906"/>
</svg>
