<?xml version="1.0" ?>
<svg height="140" width="140" xmlns="http://www.w3.org/2000/svg">
  <path d="M 32.45361328125, 120.0453519821167 Q 38.14714655919644, 119.77916868885441, 41.28127577416018, 117.68559319020228 " fill="none" id="curve_1" stroke="#000000" stroke-linecap="round" stroke-linejoin="round" stroke-width="5.2598899769500616"/>
  <path d="M 41.28127577416018, 117.68559319020228 Q 48.49314282958186, 113.76565355026935, 57.20402377808885, 93.16833788450973 " fill="none" id="curve_1" stroke="#000000" stroke-linecap="round" stroke-linejoin="round" stroke-width="5.448303325706276"/>
  <path d="M 57.20402377808885, 93.16833788450973 Q 59.98269566179217, 85.38208977756905, 65.85366251713054, 65.76622614117173 " fill="none" id="curve_1" stroke="#000000" stroke-linecap="round" stroke-linejoin="round" stroke-width="3.8654560617740485"/>
  <path d="M 65.85366251713054, 65.76622614117173 Q 65.74920971859017, 39.3491868677243, 58.803636529346946, 36.56952320355189 " fill="none" id="curve_1" stroke="#000000" stroke-linecap="round" stroke-linejoin="round" stroke-width="5.410112880528416"/>
  <path d="M 58.803636529346946, 36.56952320355189 Q 57.6212778493219, 48.855521047324146, 52.31292236470949, 68.9091268190167 " fill="none" id="curve_1" stroke="#000000" stroke-linecap="round" stroke-linejoin="round" stroke-width="3.34278201565637"/>
  <path d="M 17.205902926919265, 70.74274471924392 Q 19.021443867562084, 52.91959354597064, 27.516857550437877, 32.441597747181305 " fill="none" id="curve_2" stroke="#000000" stroke-linecap="round" stroke-linejoin="round" stroke-width="3.801801767836224"/>
  <path d="M 27.516857550437877, 32.441597747181305 Q 34.54654306018892, 25.77959098457974, 45.142068428522094, 18.187134112108673 " fill="none" id="curve_2" stroke="#000000" stroke-linecap="round" stroke-linejoin="round" stroke-width="3.2371636664473895"/>
  <path d="M 45.142068428522094, 18.187134112108673 Q 53.535677311813345, 22.51275720807621, 56.02215450215674, 37.52059177153684 " fill="none" id="curve_2" stroke="#000000" stroke-linecap="round" stroke-linejoin="round" stroke-width="4.425158638153748"/>
  <path d="M 56.02215450215674, 37.52059177153684 Q 50.56093394974783, 38.06675086895021, 49.54948935771587, 42.15003526318058 " fill="none" id="curve_2" stroke="#000000" stroke-linecap="round" stroke-linejoin="round" stroke-width="4.222249844681149"/>
  <path d="M 20.950465984862564, 65.17710276697393 Q 21.038318133080576, 90.56150661005096, 23.56600738449374, 98.79012335717967 " fill="none" id="curve_3" stroke="#000000" stroke-linecap="round" stroke-linejoin="round" stroke-width="4.681190041994201"/>
  <path d="M 23.56600738449374, 98.79012335717967 Q 25.611280582189803, 113.64133556162285, 32.11698521982845, 120.61681376376899 " fill="none" id="curve_3" stroke="#000000" stroke-linecap="round" stroke-linejoin="round" stroke-width="5.523388388822052"/>
  <path d="M 32.11698521982845, 120.61681376376899 Q 38.000795241199924, 119.81884380778763, 40.541884202028896, 116.64609640847213 " fill="none" id="curve_3" stroke="#000000" stroke-linecap="round" stroke-linejoin="round" stroke-width="3.695599053054237"/>
  <path d="M 22.453628853986327, 87.37971388714848 Q 20.14355047374334, 84.86791333104279, 19.08207985810258, 74.52382645772818 " fill="none" id="curve_4" stroke="#000000" stroke-linecap="round" stroke-linejoin="round" stroke-width="4.235027732981595"/>
  <path d="M 20.83050548162244, 62.172949279951865 Q 21.566605746736393, 56.11429215344618, 22.567571950639742, 45.68856431141567 " fill="none" id="curve_5" stroke="#000000" stroke-linecap="round" stroke-linejoin="round" stroke-width="2.4389930025043105"/>
  <path d="M 22.567571950639742, 45.68856431141567 Q 24.885719012105493, 37.14643327505097, 35.24056108173086, 25.882239709745388 " fill="none" id="curve_5" stroke="#000000" stroke-linecap="round" stroke-linejoin="round" stroke-width="2.3102772386212056"/>
  <path d="M 35.24056108173086, 25.882239709745388 Q 36.29997784707434, 20.763396052954334, 42.37142020341301, 19.108862121214976 " fill="none" id="curve_5" stroke="#000000" stroke-linecap="round" stroke-linejoin="round" stroke-width="2.696920992133071"/>
  <path d="M 22.088640175055335, 40.99181109534729 Q 21.725905742341805, 43.231545741637056, 21.53991153110514, 49.9743362017168 " fill="none" id="curve_6" stroke="#000000" stroke-linecap="round" stroke-linejoin="round" stroke-width="3.624847311015154"/>
  <path d="M 57.41709404781025, 57.49428118320753 Q 57.29874861289938, 44.72477751138209, 55.35980989395134, 37.96891583664899 " fill="none" id="curve_8" stroke="#000000" stroke-linecap="round" stroke-linejoin="round" stroke-width="2.541543952375922"/>
  <path d="M 90.66188960254762, 57.285069262629804 Q 89.75332562819342, 59.76425314372736, 89.49783694887245, 75.37409574292653 " fill="none" id="curve_10" stroke="#000000" stroke-linecap="round" stroke-linejoin="round" stroke-width="1.9909764708008972"/>
  <path d="M 89.85131622301415, 55.225650598501666 Q 89.79157702113025, 53.9287155288541, 89.77309524670709, 39.15996582902289 " fill="none" id="curve_11" stroke="#000000" stroke-linecap="round" stroke-linejoin="round" stroke-width="1.5162528928158718"/>
  <path d="M 89.77309524670709, 39.15996582902289 Q 89.6799254782542, 35.774442460994514, 89.60086807527578, 23.284311852323068 " fill="none" id="curve_11" stroke="#000000" stroke-linecap="round" stroke-linejoin="round" stroke-width="1.6164216572003496"/>
  <path d="M 89.46647662704004, 13.416930665424225 Q 89.43508734267608, 2.8766535702473703, 88.94732094837681, 0.8825369159578091 " fill="none" id="curve_12" stroke="#000000" stroke-linecap="round" stroke-linejoin="round" stroke-width="1.820192748837826"/>
  <path d="M 89.62201819461036, 16.09711622137474 Q 89.52283377012257, 17.027181871915513, 89.35188237926675, 17.90998179697419 " fill="none" id="curve_13" stroke="#000000" stroke-linecap="round" stroke-linejoin="round" stroke-width="1.5496586631455334"/>
  <path d="M 87.80760626465197, 2.131803959017459 Q 88.16914486845585, 1.728649658155847, 88.72040441383075, 1.368232593210239 " fill="none" id="curve_14" stroke="#000000" stroke-linecap="round" stroke-linejoin="round" stroke-width="2.9319553673912027"/>
  <path d="M 67.47473761944016, 55.26973271216155 Q 66.64452841901735, 49.22101383579568, 63.453868543522326, 44.52978691402491 " fill="none" id="curve_18" stroke="#000000" stroke-linecap="round" stroke-linejoin="round" stroke-width="2.1662077234432027"/>
  <path d="M 50.398119176395184, 70.14017296773272 Q 50.5067722652744, 68.9394679276168, 50.7678526775332, 68.01975926862634 " fill="none" id="curve_19" stroke="#000000" stroke-linecap="round" stroke-linejoin="round" stroke-width="3.277928386383359"/>
  <path d="M 24.203217481458335, 88.3114397862242 Q 22.72629440982563, 89.67232957083434, 22.477071190772552, 104.13691404643772 " fill="none" id="curve_20" stroke="#000000" stroke-linecap="round" stroke-linejoin="round" stroke-width="3.3448128721819996"/>
  <path d="M 27.454217086641147, 116.05108913523851 Q 27.640345924762816, 118.93835641163207, 29.669202434292234, 119.64369887421871 " fill="none" id="curve_23" stroke="#000000" stroke-linecap="round" stroke-linejoin="round" stroke-width="3.0558721652002854"/>
  <path d="M 20.731530074400414, 47.96621649374115 Q 21.993291129654942, 48.0809409149778, 22.816918028037158, 48.48226042537888 " fill="none" id="curve_26" stroke="#000000" stroke-linecap="round" stroke-linejoin="round" stroke-width="4.093163615177646"/>
  <path d="M 57.14493103607383, 48.66748090103511 Q 57.10535374983258, 47.63295847416184, 56.99113010620747, 46.86851040170944 " fill="none" id="curve_28" stroke="#000000" stroke-linecap="round" stroke-linejoin="round" stroke-width="4.639800450036442"/>
  <path d="M 66.11320780222528, 59.855588760676696 Q 64.75328965393817, 64.45570681497485, 63.231109411028584, 72.12260436012345 " fill="none" id="curve_30" stroke="#000000" stroke-linecap="round" stroke-linejoin="round" stroke-width="2.4253943249296426"/>
  <path d="M 54.30232117748674, 47.242151113888944 Q 55.51982580708227, 46.536946519677784, 57.6844995404349, 44.96862191240908 " fill="none" id="curve_61" stroke="#000000" stroke-linecap="round" stroke-linejoin="round" stroke-width="2.34334516775262"/>
  <path d="M 21.03042927580498, 48.964199874513334 Q 22.061860555994123, 47.599804839680516, 23.057383660447954, 44.395951966934255 " fill="none" id="curve_79" stroke="#000000" stroke-linecap="round" stroke-linejoin="round" stroke-width="3.685940176122414"/>
  <path d="M 18.90206527709961, 85.16994285583496 Q 21.58495726307874, 89.4861804090949, 24.80915561668735, 94.70992108799283 " fill="none" id="curve_93" stroke="#000000" stroke-linecap="round" stroke-linejoin="round" stroke-width="2.4508879246364397"/>
  <path d="M 66.52049586826774, 59.40188245783335 Q 66.41434876800712, 56.88815045357025, 66.30389831698972, 50.56688648026136 " fill="none" id="curve_109" stroke="#000000" stroke-linecap="round" stroke-linejoin="round" stroke-width="2.775218364210387"/>
  <path d="M 53.18989918132899, 30.56735373651882 Q 55.3318894497857, 32.659988637197046, 58.219004447647606, 36.010276441243526 " fill="none" id="curve_113" stroke="#000000" stroke-linecap="round" stroke-linejoin="round" stroke-width="2.3776792440013352"/>
  <path d="M 59.553745996641, 44.32611907429656 Q 57.95510730876801, 46.42159898535104, 57.27340272879438, 53.79080084595008 " fill="none" id="curve_116" stroke="#000000" stroke-linecap="round" stroke-linejoin="round" stroke-width="2.293313231685607"/>
  <path d="M 66.78319645338367, 46.70252586257096 Q 66.03238894209825, 47.327703641283904, 64.9388284607477, 48.324046943846625 " fill="none" id="curve_117" stroke="#000000" stroke-linecap="round" stroke-linejoin="round" stroke-width="2.938048824570347"/>
  <path d="M 26.4348198443832, 48.23377691132691 Q 22.880694851671468, 48.1205045769802, 20.41946267931696, 47.677583295687135 " fill="none" id="curve_122" stroke="#000000" stroke-linecap="round" stroke-linejoin="round" stroke-width="3.1572191781719057"/>
</svg>
