<?xml version="1.0" ?>
<svg height="140" width="140" xmlns="http://www.w3.org/2000/svg">
  <path d="M 69.92178726196289, 78.2221851348877 Q 69.79463261966758, 70.73236020070964, 68.45698408270272, 66.16737055671501 " fill="none" id="curve_1" stroke="#000000" stroke-linecap="round" stroke-linejoin="round" stroke-width="5.226818445123935"/>
  <path d="M 68.45698408270272, 66.16737055671501 Q 69.1620373407419, 73.31757537165926, 72.00463590088218, 77.63401550203264 " fill="none" id="curve_1" stroke="#000000" stroke-linecap="round" stroke-linejoin="round" stroke-width="3.680108840639482"/>
  <path d="M 72.00463590088218, 77.63401550203264 Q 70.68361231843402, 98.72450084269121, 49.89101576001946, 111.03628827355028 " fill="none" id="curve_1" stroke="#000000" stroke-linecap="round" stroke-linejoin="round" stroke-width="4.941816109968669"/>
  <path d="M 49.89101576001946, 111.03628827355028 Q 45.421028078874016, 111.64460015643134, 39.04282196094, 112.2784674156227 " fill="none" id="curve_1" stroke="#000000" stroke-linecap="round" stroke-linejoin="round" stroke-width="4.3144545746862715"/>
  <path d="M 39.04282196094, 112.2784674156227 Q 23.149827271821824, 109.00135738430933, 11.156712244264654, 84.82337294589476 " fill="none" id="curve_1" stroke="#000000" stroke-linecap="round" stroke-linejoin="round" stroke-width="4.356042559945335"/>
  <path d="M 11.156712244264654, 84.82337294589476 Q 11.2653469931433, 56.46350720458689, 21.196764925358565, 54.59554250085773 " fill="none" id="curve_1" stroke="#000000" stroke-linecap="round" stroke-linejoin="round" stroke-width="5.816627044996466"/>
  <path d="M 21.196764925358565, 54.59554250085773 Q 25.512114588877125, 49.09122676719082, 41.23786699357103, 46.74936287827566 " fill="none" id="curve_1" stroke="#000000" stroke-linecap="round" stroke-linejoin="round" stroke-width="5.688823271329393"/>
  <path d="M 41.23786699357103, 46.74936287827566 Q 56.57522281349481, 54.05030183854437, 68.02109039224837, 66.59535440585681 " fill="none" id="curve_1" stroke="#000000" stroke-linecap="round" stroke-linejoin="round" stroke-width="4.251780669438579"/>
  <path d="M 47.45294587827451, 52.92136281021293 Q 42.32529424835842, 50.962701659359645, 33.37397653134958, 48.28653326839935 " fill="none" id="curve_2" stroke="#000000" stroke-linecap="round" stroke-linejoin="round" stroke-width="3.0419412749329955"/>
  <path d="M 10.288496402690274, 65.11006679884272 Q 9.912838993251283, 67.82363870696518, 9.785200475570853, 80.93676230246672 " fill="none" id="curve_3" stroke="#000000" stroke-linecap="round" stroke-linejoin="round" stroke-width="2.631185886057491"/>
  <path d="M 18.017424061556213, 53.23053874206164 Q 14.665053836689415, 57.65548356048548, 10.57404131257115, 64.71450856820822 " fill="none" id="curve_4" stroke="#000000" stroke-linecap="round" stroke-linejoin="round" stroke-width="3.2566055204354507"/>
  <path d="M 54.172764276884315, 110.1946418523786 Q 62.16018813756176, 104.26199294360092, 69.68186967726987, 83.86951622480174 " fill="none" id="curve_6" stroke="#000000" stroke-linecap="round" stroke-linejoin="round" stroke-width="3.715925493321914"/>
  <path d="M 69.68186967726987, 83.86951622480174 Q 71.21570670111537, 80.44605754475424, 72.31839172399019, 72.67893936401191 " fill="none" id="curve_6" stroke="#000000" stroke-linecap="round" stroke-linejoin="round" stroke-width="2.930861380939162"/>
  <path d="M 58.19300608338109, 104.40241114381314 Q 54.032831073540315, 108.06815452533834, 45.77565831739465, 110.93155620579964 " fill="none" id="curve_7" stroke="#000000" stroke-linecap="round" stroke-linejoin="round" stroke-width="4.1712902954033195"/>
  <path d="M 61.392187576003174, 102.41741919876299 Q 58.83022626676553, 103.26099998827614, 56.70071285728673, 104.75198397841717 " fill="none" id="curve_8" stroke="#000000" stroke-linecap="round" stroke-linejoin="round" stroke-width="5.129284394704525"/>
  <path d="M 65.56324934479849, 61.59114892059284 Q 64.22447902533229, 58.87424905397425, 57.48498706155593, 57.157652279500695 " fill="none" id="curve_9" stroke="#000000" stroke-linecap="round" stroke-linejoin="round" stroke-width="2.3816839551809634"/>
  <path d="M 14.706289458929245, 69.49966154116427 Q 14.162223811847866, 68.26881047478886, 12.782568699021434, 67.0160557887699 " fill="none" id="curve_11" stroke="#000000" stroke-linecap="round" stroke-linejoin="round" stroke-width="2.540203254824824"/>
  <path d="M 17.02007976309002, 93.91337630464929 Q 21.199018190773394, 97.31646949682876, 24.920930966755478, 103.40947346923463 " fill="none" id="curve_15" stroke="#000000" stroke-linecap="round" stroke-linejoin="round" stroke-width="2.4458535760715825"/>
  <path d="M 36.49891042847622, 47.91397741985713 Q 27.33319504407484, 49.75909486766753, 17.902229020699775, 54.17204796810533 " fill="none" id="curve_26" stroke="#000000" stroke-linecap="round" stroke-linejoin="round" stroke-width="3.4356459497600795"/>
  <path d="M 89.15884995704579, 1.5291440555517113 Q 89.41217415546947, 1.6671582862932623, 89.83680560341266, 2.0411131291032656 " fill="none" id="curve_34" stroke="#000000" stroke-linecap="round" stroke-linejoin="round" stroke-width="2.24642626211619"/>
  <path d="M 68.0812301778921, 69.3977161693225 Q 68.53083577835068, 70.49311096098194, 68.99300872864534, 73.17411035494226 " fill="none" id="curve_36" stroke="#000000" stroke-linecap="round" stroke-linejoin="round" stroke-width="2.83251379561037"/>
  <path d="M 45.56366573476126, 54.9753429316084 Q 45.5100480469527, 53.06750487543963, 45.40312247173039, 50.13377274709757 " fill="none" id="curve_46" stroke="#000000" stroke-linecap="round" stroke-linejoin="round" stroke-width="2.3995005903115803"/>
  <path d="M 37.95879927335705, 49.12307075879025 Q 35.413775178909596, 49.059424977894246, 32.43343741407131, 48.894682139821676 " fill="none" id="curve_57" stroke="#000000" stroke-linecap="round" stroke-linejoin="round" stroke-width="4.292587809107335"/>
  <path d="M 67.66344037071484, 70.40754064821704 Q 68.01856038405461, 70.66858605297395, 68.5243677389504, 71.16342605099683 " fill="none" id="curve_72" stroke="#000000" stroke-linecap="round" stroke-linejoin="round" stroke-width="2.769753180203845"/>
  <path d="M 37.8721358931104, 46.67228067982345 Q 38.498137559154095, 46.07588552661819, 39.68276971145008, 45.167723777531144 " fill="none" id="curve_81" stroke="#000000" stroke-linecap="round" stroke-linejoin="round" stroke-width="3.67646363384375"/>
  <path d="M 70.72753784231828, 88.73217088993079 Q 69.10979583229849, 92.80026001044104, 64.72480817389105, 97.8355280928062 " fill="none" id="curve_96" stroke="#000000" stroke-linecap="round" stroke-linejoin="round" stroke-width="2.4050758321179524"/>
  <path d="M 64.72480817389105, 97.8355280928062 Q 61.1107930528888, 99.65405729155384, 59.78815599408622, 105.98413338068983 " fill="none" id="curve_96" stroke="#000000" stroke-linecap="round" stroke-linejoin="round" stroke-width="3.4899652789859257"/>
  <path d="M 38.60641694559186, 111.46126560420501 Q 36.22807701238676, 109.87665196135585, 32.426526242176465, 107.92529946987449 " fill="none" id="curve_97" stroke="#000000" stroke-linecap="round" stroke-linejoin="round" stroke-width="2.517046296888989"/>
  <path d="M 35.890295328178716, 49.88649271313824 Q 35.502613600112866, 49.031192674226205, 34.62629625107397, 47.64898965438643 " fill="none" id="curve_100" stroke="#000000" stroke-linecap="round" stroke-linejoin="round" stroke-width="4.024917660029108"/>
  <path d="M 15.458614963257268, 95.44007668327964 Q 13.347134669052046, 92.78512671711974, 11.80846341004166, 83.33757867482625 " fill="none" id="curve_106" stroke="#000000" stroke-linecap="round" stroke-linejoin="round" stroke-width="2.3107223530809198"/>
  <path d="M 65.40367894727027, 67.77189199911282 Q 67.00805253625936, 68.60605214411393, 68.4703027287592, 70.66981569193554 " fill="none" id="curve_115" stroke="#000000" stroke-linecap="round" stroke-linejoin="round" stroke-width="2.6285210838036135"/>
  <path d="M 59.78829824216673, 102.14443357016506 Q 60.670713717091125, 100.05824153038002, 63.31588276888871, 98.55058503591043 " fill="none" id="curve_130" stroke="#000000" stroke-linecap="round" stroke-linejoin="round" stroke-width="2.799803560344234"/>
  <path d="M 40.1987025510828, 48.50629316022317 Q 40.16573255946067, 46.51050859132442, 39.97342356544354, 45.5694500622915 " fill="none" id="curve_148" stroke="#000000" stroke-linecap="round" stroke-linejoin="round" stroke-width="3.1428596680180463"/>
  <path d="M 40.17427121683246, 46.764401676299585 Q 39.83470826253075, 45.812150848792676, 37.16219789088112, 45.4498829404513 " fill="none" id="curve_165" stroke="#000000" stroke-linecap="round" stroke-linejoin="round" stroke-width="3.0592006287221354"/>
</svg>
