<?xml version="1.0" ?>
<svg height="140" width="140" xmlns="http://www.w3.org/2000/svg">
  <path d="M 63.11140441894531, 51.10041046142578 Q 63.0126177406115, 48.29380073755435, 60.40123895611828, 47.92960954241653 " fill="none" id="curve_1" stroke="#000000" stroke-linecap="round" stroke-linejoin="round" stroke-width="4.120818307482767"/>
  <path d="M 60.40123895611828, 47.92960954241653 Q 48.42694409839727, 49.189246170388515, 40.552118377005044, 66.29571706523119 " fill="none" id="curve_1" stroke="#000000" stroke-linecap="round" stroke-linejoin="round" stroke-width="4.400391424414821"/>
  <path d="M 40.552118377005044, 66.29571706523119 Q 38.76631511910846, 69.6029114119342, 38.1725893529149, 91.32424865423636 " fill="none" id="curve_1" stroke="#000000" stroke-linecap="round" stroke-linejoin="round" stroke-width="5.422265945827757"/>
  <path d="M 38.1725893529149, 91.32424865423636 Q 39.67719540263223, 101.29597722794841, 41.74557322572131, 108.62526773922704 " fill="none" id="curve_1" stroke="#000000" stroke-linecap="round" stroke-linejoin="round" stroke-width="5.354354944606039"/>
  <path d="M 41.74557322572131, 108.62526773922704 Q 54.37926748098047, 107.37380107230507, 57.81601151341839, 99.80330928434621 " fill="none" id="curve_1" stroke="#000000" stroke-linecap="round" stroke-linejoin="round" stroke-width="3.415482892570401"/>
  <path d="M 57.81601151341839, 99.80330928434621 Q 65.79471583138792, 93.72597122182418, 71.31178210087339, 73.1445544090134 " fill="none" id="curve_1" stroke="#000000" stroke-linecap="round" stroke-linejoin="round" stroke-width="4.2731551975748"/>
  <path d="M 71.31178210087339, 73.1445544090134 Q 71.2451912707569, 50.22024300150117, 64.7226422353588, 49.3255194550373 " fill="none" id="curve_1" stroke="#000000" stroke-linecap="round" stroke-linejoin="round" stroke-width="5.245038765366605"/>
  <path d="M 88.03859553863893, 49.02228516379727 Q 89.2950309945165, 50.60888352219714, 89.46128212420935, 74.88200886961695 " fill="none" id="curve_2" stroke="#000000" stroke-linecap="round" stroke-linejoin="round" stroke-width="2.335691092520302"/>
  <path d="M 89.46128212420935, 74.88200886961695 Q 89.45065252534071, 85.93340035527412, 89.40596216523598, 111.65480133198892 " fill="none" id="curve_2" stroke="#000000" stroke-linecap="round" stroke-linejoin="round" stroke-width="2.319121014380787"/>
  <path d="M 89.40596216523598, 111.65480133198892 Q 89.35047507936397, 129.07923063730607, 89.06175364583692, 138.50763131164683 " fill="none" id="curve_2" stroke="#000000" stroke-linecap="round" stroke-linejoin="round" stroke-width="2.4607397014320984"/>
  <path d="M 89.06175364583692, 138.50763131164683 Q 88.74119921234919, 138.42831779407976, 88.35188523846313, 138.32636528756385 " fill="none" id="curve_2" stroke="#000000" stroke-linecap="round" stroke-linejoin="round" stroke-width="3.2644766401841823"/>
  <path d="M 53.291384116201186, 101.70966265642829 Q 53.01656585072613, 106.38805715432223, 42.52631600400689, 106.69876538404431 " fill="none" id="curve_3" stroke="#000000" stroke-linecap="round" stroke-linejoin="round" stroke-width="3.450590687747383"/>
  <path d="M 42.52631600400689, 106.69876538404431 Q 38.17695044257797, 106.32193346387565, 37.57094371214885, 101.48145133031636 " fill="none" id="curve_3" stroke="#000000" stroke-linecap="round" stroke-linejoin="round" stroke-width="3.842561013913361"/>
  <path d="M 44.303469694228184, 56.279532423418246 Q 42.98995857389683, 58.12978885276455, 42.25546777232517, 64.76156070372947 " fill="none" id="curve_6" stroke="#000000" stroke-linecap="round" stroke-linejoin="round" stroke-width="2.397501290554612"/>
  <path d="M 89.2070612376535, 48.264208337805925 Q 89.71829079824242, 47.74702026083916, 89.77811286864343, 34.18888751503562 " fill="none" id="curve_8" stroke="#000000" stroke-linecap="round" stroke-linejoin="round" stroke-width="1.68545229667367"/>
  <path d="M 89.77811286864343, 34.18888751503562 Q 89.59171310982875, 31.60374900845125, 89.46024454222594, 18.3005923963189 " fill="none" id="curve_8" stroke="#000000" stroke-linecap="round" stroke-linejoin="round" stroke-width="1.6195514007565235"/>
  <path d="M 89.46024454222594, 18.3005923963189 Q 89.43590467073403, 10.831559029870192, 89.31158275173208, 5.017038076025797 " fill="none" id="curve_8" stroke="#000000" stroke-linecap="round" stroke-linejoin="round" stroke-width="1.6340540067809173"/>
  <path d="M 89.31158275173208, 5.017038076025797 Q 89.12670952612783, 2.5147394304299677, 88.48532141016027, 1.513191430670572 " fill="none" id="curve_8" stroke="#000000" stroke-linecap="round" stroke-linejoin="round" stroke-width="3.9667276014764625"/>
  <path d="M 88.83396043805595, 18.12311540232035 Q 88.83010139827812, 19.959494893281935, 88.81346546947778, 20.626420338075803 " fill="none" id="curve_9" stroke="#000000" stroke-linecap="round" stroke-linejoin="round" stroke-width="2.3078731232017278"/>
  <path d="M 70.34923510485396, 52.384708172708976 Q 71.58280961054773, 55.99888416581301, 72.57929547634461, 61.90396599268145 " fill="none" id="curve_11" stroke="#000000" stroke-linecap="round" stroke-linejoin="round" stroke-width="2.384949586559874"/>
  <path d="M 72.57929547634461, 61.90396599268145 Q 69.02469035312322, 62.69388177574144, 67.94087449984232, 77.36133595997042 " fill="none" id="curve_11" stroke="#000000" stroke-linecap="round" stroke-linejoin="round" stroke-width="2.2785203066358037"/>
  <path d="M 67.94087449984232, 77.36133595997042 Q 70.21011532247006, 77.7798742066931, 71.52451908121328, 78.68495768554932 " fill="none" id="curve_11" stroke="#000000" stroke-linecap="round" stroke-linejoin="round" stroke-width="3.0754038904738707"/>
  <path d="M 71.52451908121328, 78.68495768554932 Q 66.43388319174721, 82.97063300787283, 63.327283934328776, 93.2587296490098 " fill="none" id="curve_11" stroke="#000000" stroke-linecap="round" stroke-linejoin="round" stroke-width="2.847981578367182"/>
  <path d="M 63.327283934328776, 93.2587296490098 Q 60.178310556135706, 93.98006256646589, 58.61690043865289, 96.10298501572038 " fill="none" id="curve_11" stroke="#000000" stroke-linecap="round" stroke-linejoin="round" stroke-width="2.9542528543221787"/>
  <path d="M 68.66171830433466, 83.651445088683 Q 67.78870270179655, 85.39567456043753, 67.13256439628663, 88.68945999152827 " fill="none" id="curve_12" stroke="#000000" stroke-linecap="round" stroke-linejoin="round" stroke-width="3.4226355230248737"/>
  <path d="M 69.15497746930642, 52.788755360960955 Q 61.64778970212013, 51.368241750119395, 57.278975965294634, 46.222370972860645 " fill="none" id="curve_13" stroke="#000000" stroke-linecap="round" stroke-linejoin="round" stroke-width="2.833339683474967"/>
  <path d="M 55.12776831707411, 46.56639910854041 Q 54.452547145159315, 50.78858679028835, 48.834940871423846, 52.20585437700033 " fill="none" id="curve_23" stroke="#000000" stroke-linecap="round" stroke-linejoin="round" stroke-width="2.9765485994510876"/>
  <path d="M 44.450888410913564, 59.58015380566645 Q 41.60708879545178, 64.34417584084787, 38.83348952314614, 72.03405884737928 " fill="none" id="curve_53" stroke="#000000" stroke-linecap="round" stroke-linejoin="round" stroke-width="2.9363475693140932"/>
  <path d="M 71.74725294113159, 72.67234325408936 Q 70.71589123376755, 68.67368493546053, 69.28596049730703, 58.226598957048395 " fill="none" id="curve_93" stroke="#000000" stroke-linecap="round" stroke-linejoin="round" stroke-width="3.678187585849543"/>
</svg>
