<?xml version="1.0" ?>
<svg height="140" width="140" xmlns="http://www.w3.org/2000/svg">
  <path d="M 44.91059494018555, 78.39026260375977 Q 44.49813179427289, 79.66282281516217, 44.228267510673376, 84.77496180870207 " fill="none" id="curve_1" stroke="#000000" stroke-linecap="round" stroke-linejoin="round" stroke-width="10.173892439197571"/>
  <path d="M 44.228267510673376, 84.77496180870207 Q 41.3258218122728, 92.00801845611791, 31.87389070405674, 95.93880625247988 " fill="none" id="curve_1" stroke="#000000" stroke-linecap="round" stroke-linejoin="round" stroke-width="7.788337710129977"/>
  <path d="M 31.87389070405674, 95.93880625247988 Q 29.894009901273506, 96.6992034365003, 25.422676102019537, 97.18067333048556 " fill="none" id="curve_1" stroke="#000000" stroke-linecap="round" stroke-linejoin="round" stroke-width="6.889585875230592"/>
  <path d="M 25.422676102019537, 97.18067333048556 Q 12.88529934401013, 95.86106434548992, 10.153141836463655, 80.38894809861135 " fill="none" id="curve_1" stroke="#000000" stroke-linecap="round" stroke-linejoin="round" stroke-width="7.28857762405513"/>
  <path d="M 10.153141836463655, 80.38894809861135 Q 10.579398821027318, 60.35079727348476, 24.57305242721558, 58.18593546596814 " fill="none" id="curve_1" stroke="#000000" stroke-linecap="round" stroke-linejoin="round" stroke-width="8.719872921900153"/>
  <path d="M 24.57305242721558, 58.18593546596814 Q 19.954169473950255, 61.199702434686635, 18.637877739616066, 75.56992928763152 " fill="none" id="curve_1" stroke="#000000" stroke-linecap="round" stroke-linejoin="round" stroke-width="4.478459549594274"/>
  <path d="M 45.45382129372497, 72.61150405327447 Q 45.026120824004984, 62.793723716995416, 42.25631243197216, 56.85864122033729 " fill="none" id="curve_2" stroke="#000000" stroke-linecap="round" stroke-linejoin="round" stroke-width="5.823164288720539"/>
  <path d="M 42.25631243197216, 56.85864122033729 Q 35.64319709169574, 56.54734651321803, 28.97581503044716, 55.94560634678611 " fill="none" id="curve_2" stroke="#000000" stroke-linecap="round" stroke-linejoin="round" stroke-width="7.549849848237712"/>
  <path d="M 48.242344220947786, 76.72986036281007 Q 48.14718604590537, 61.18967735364133, 41.54334154230188, 60.23404750526484 " fill="none" id="curve_5" stroke="#000000" stroke-linecap="round" stroke-linejoin="round" stroke-width="2.984253059791088"/>
  <path d="M 41.54334154230188, 60.23404750526484 Q 40.976958135100624, 54.327931463837636, 32.024307800748076, 53.121445425417676 " fill="none" id="curve_5" stroke="#000000" stroke-linecap="round" stroke-linejoin="round" stroke-width="2.8182339143961483"/>
  <path d="M 8.319508024641923, 71.27263177927671 Q 10.244079271134837, 90.33180175784321, 25.54803401513316, 94.76283036847741 " fill="none" id="curve_6" stroke="#000000" stroke-linecap="round" stroke-linejoin="round" stroke-width="4.532466209672468"/>
  <path d="M 6.2092130626392255, 73.44126966533724 Q 8.87499580650385, 81.61203957339146, 12.333997883064885, 91.53130292677321 " fill="none" id="curve_7" stroke="#000000" stroke-linecap="round" stroke-linejoin="round" stroke-width="3.1039575670955446"/>
  <path d="M 87.43210822340271, 57.94223936578963 Q 88.8714936637325, 58.66382012177162, 89.0265023799821, 92.8235038630319 " fill="none" id="curve_11" stroke="#000000" stroke-linecap="round" stroke-linejoin="round" stroke-width="3.7217918362208864"/>
  <path d="M 89.0265023799821, 92.8235038630319 Q 88.9948277287177, 101.98461461698234, 88.82528816893223, 126.81564197933554 " fill="none" id="curve_11" stroke="#000000" stroke-linecap="round" stroke-linejoin="round" stroke-width="3.3172349908971035"/>
  <path d="M 88.82528816893223, 126.81564197933554 Q 88.77061331646743, 135.63286957355984, 88.52491507832809, 138.4923828748692 " fill="none" id="curve_11" stroke="#000000" stroke-linecap="round" stroke-linejoin="round" stroke-width="3.4713577483217812"/>
  <path d="M 88.52491507832809, 138.4923828748692 Q 87.86058625947369, 138.55280925444802, 86.75286485540731, 138.60607618527646 " fill="none" id="curve_11" stroke="#000000" stroke-linecap="round" stroke-linejoin="round" stroke-width="2.289532638676674"/>
  <path d="M 88.9747540526828, 90.02850786729654 Q 89.22934092866679, 88.94733014534776, 89.29240208335457, 73.90464147362013 " fill="none" id="curve_13" stroke="#000000" stroke-linecap="round" stroke-linejoin="round" stroke-width="1.4262856764127476"/>
  <path d="M 89.29240208335457, 73.90464147362013 Q 89.15097604135451, 69.75252836766307, 89.01967135394662, 59.29540857532028 " fill="none" id="curve_13" stroke="#000000" stroke-linecap="round" stroke-linejoin="round" stroke-width="3.0202874742863814"/>
  <path d="M 89.01967135394662, 59.29540857532028 Q 88.93650827109893, 52.97961907734941, 88.72390505008758, 38.735024115443245 " fill="none" id="curve_13" stroke="#000000" stroke-linecap="round" stroke-linejoin="round" stroke-width="3.2035609999359513"/>
  <path d="M 88.72390505008758, 38.735024115443245 Q 88.7263301400349, 31.953466027749077, 88.73406833147968, 18.120514220845784 " fill="none" id="curve_13" stroke="#000000" stroke-linecap="round" stroke-linejoin="round" stroke-width="3.4221137539970963"/>
  <path d="M 88.73406833147968, 18.120514220845784 Q 88.72079327097708, 4.790826225281533, 88.59170100390308, 1.5176399599466421 " fill="none" id="curve_13" stroke="#000000" stroke-linecap="round" stroke-linejoin="round" stroke-width="3.2125787792652156"/>
  <path d="M 88.59170100390308, 1.5176399599466421 Q 87.71511778640135, 1.7837846793847165, 86.55290989457238, 2.077029343281118 " fill="none" id="curve_13" stroke="#000000" stroke-linecap="round" stroke-linejoin="round" stroke-width="2.585155305670028"/>
  <path d="M 44.66815753840482, 77.94585952846391 Q 45.39938625237514, 76.80025424789098, 46.25059076001645, 74.9786151605484 " fill="none" id="curve_20" stroke="#000000" stroke-linecap="round" stroke-linejoin="round" stroke-width="4.055863540813443"/>
  <path d="M 9.335867504578848, 68.20891764254475 Q 9.430294933919573, 67.82009311693498, 9.866475583616637, 67.34911354003131 " fill="none" id="curve_27" stroke="#000000" stroke-linecap="round" stroke-linejoin="round" stroke-width="2.3655690755156193"/>
  <path d="M 8.656176843025094, 78.86263240753885 Q 10.07947506414947, 82.53355084526281, 11.604580928198269, 89.9184588921702 " fill="none" id="curve_42" stroke="#000000" stroke-linecap="round" stroke-linejoin="round" stroke-width="3.174994394885998"/>
  <path d="M 47.28205481911391, 79.86972567804241 Q 47.46716539344896, 79.85534806549585, 47.60237501238273, 79.81261116046215 " fill="none" id="curve_70" stroke="#000000" stroke-linecap="round" stroke-linejoin="round" stroke-width="3.221957357024249"/>
  <path d="M 47.554682796446734, 64.48211015707894 Q 46.73456478956648, 60.59156106783709, 38.64942343528479, 59.07454101726068 " fill="none" id="curve_71" stroke="#000000" stroke-linecap="round" stroke-linejoin="round" stroke-width="2.260512800963364"/>
  <path d="M 9.627138252707308, 83.13986329620104 Q 9.370010606827575, 82.18125191691317, 9.015062627376471, 80.82835943379145 " fill="none" id="curve_76" stroke="#000000" stroke-linecap="round" stroke-linejoin="round" stroke-width="4.380948234093986"/>
  <path d="M 88.0806040795735, 54.83959368896561 Q 88.45060500708689, 51.88687726261868, 88.79211368571981, 40.049533132032906 " fill="none" id="curve_107" stroke="#000000" stroke-linecap="round" stroke-linejoin="round" stroke-width="1.6909949219142564"/>
  <path d="M 13.857666544961148, 84.03679237179279 Q 12.901437249838615, 80.93285408851382, 7.697340071492141, 79.63385010440204 " fill="none" id="curve_122" stroke="#000000" stroke-linecap="round" stroke-linejoin="round" stroke-width="3.4231777899866227"/>
  <path d="M 43.60337402751384, 76.31409174467217 Q 44.93027131543089, 75.05357270556082, 47.10250247860256, 73.28827635284911 " fill="none" id="curve_137" stroke="#000000" stroke-linecap="round" stroke-linejoin="round" stroke-width="2.609732339280917"/>
  <path d="M 6.846225021946054, 82.28917825953761 Q 9.572961550224306, 86.79830953661359, 12.68716907007271, 92.60643124164187 " fill="none" id="curve_152" stroke="#000000" stroke-linecap="round" stroke-linejoin="round" stroke-width="2.3728750691796314"/>
  <path d="M 8.874584757523193, 69.08391093577288 Q 10.128018604496747, 63.51617864141267, 16.65704018021811, 60.83648280196132 " fill="none" id="curve_153" stroke="#000000" stroke-linecap="round" stroke-linejoin="round" stroke-width="2.8836079441353175"/>
</svg>
