<?xml version="1.0" ?>
<svg height="140" width="140" xmlns="http://www.w3.org/2000/svg">
  <path d="M 75.5282211303711, 72.77216720581055 Q 74.58832685166547, 83.11777120384828, 65.74860587689022, 92.95851485433923 " fill="none" id="curve_1" stroke="#000000" stroke-linecap="round" stroke-linejoin="round" stroke-width="6.120297443063404"/>
  <path d="M 65.74860587689022, 92.95851485433923 Q 62.810019755209844, 103.13076113708397, 42.618928806309384, 114.0934870257883 " fill="none" id="curve_1" stroke="#000000" stroke-linecap="round" stroke-linejoin="round" stroke-width="5.695136031956535"/>
  <path d="M 42.618928806309384, 114.0934870257883 Q 39.183027875117915, 117.02055693802386, 27.78800719390648, 118.04152652900225 " fill="none" id="curve_1" stroke="#000000" stroke-linecap="round" stroke-linejoin="round" stroke-width="5.957628505269273"/>
  <path d="M 27.78800719390648, 118.04152652900225 Q 8.051512409973, 117.4756902004709, 5.362198379600887, 94.54497487127746 " fill="none" id="curve_1" stroke="#000000" stroke-linecap="round" stroke-linejoin="round" stroke-width="5.1372854054451365"/>
  <path d="M 5.362198379600887, 94.54497487127746 Q 7.208111457535354, 80.42318627515401, 16.810487630539892, 62.05469797341731 " fill="none" id="curve_1" stroke="#000000" stroke-linecap="round" stroke-linejoin="round" stroke-width="6.4160836807915755"/>
  <path d="M 16.810487630539892, 62.05469797341731 Q 22.5990867596124, 50.348132387198945, 38.607480479016246, 34.55639653548086 " fill="none" id="curve_1" stroke="#000000" stroke-linecap="round" stroke-linejoin="round" stroke-width="7.590454237313244"/>
  <path d="M 38.607480479016246, 34.55639653548086 Q 41.773973836996156, 33.994449478319936, 51.83732655302109, 33.70853563293239 " fill="none" id="curve_1" stroke="#000000" stroke-linecap="round" stroke-linejoin="round" stroke-width="5.570709008129125"/>
  <path d="M 51.83732655302109, 33.70853563293239 Q 78.78597047802495, 34.60529059870829, 81.56876894954277, 59.78583216564718 " fill="none" id="curve_1" stroke="#000000" stroke-linecap="round" stroke-linejoin="round" stroke-width="3.9200558785290576"/>
  <path d="M 81.56876894954277, 59.78583216564718 Q 79.29271155170389, 78.25115027926016, 70.01136462555668, 87.80121045159358 " fill="none" id="curve_1" stroke="#000000" stroke-linecap="round" stroke-linejoin="round" stroke-width="4.464501295156316"/>
  <path d="M 54.82481822066018, 42.0294961773639 Q 54.61705680038088, 34.94592705172957, 47.570926416441644, 34.13734396600208 " fill="none" id="curve_4" stroke="#000000" stroke-linecap="round" stroke-linejoin="round" stroke-width="3.0152880886741107"/>
  <path d="M 47.570926416441644, 34.13734396600208 Q 47.57098575992546, 37.097608588413415, 47.57614403144208, 37.20183784922239 " fill="none" id="curve_4" stroke="#000000" stroke-linecap="round" stroke-linejoin="round" stroke-width="4.098472731830303"/>
  <path d="M 28.445713642821037, 48.83405417996568 Q 27.146882495291727, 54.39651034512918, 25.45860829575202, 65.18963301690376 " fill="none" id="curve_5" stroke="#000000" stroke-linecap="round" stroke-linejoin="round" stroke-width="3.8116213205036815"/>
  <path d="M 78.62325107247007, 53.358735446570456 Q 78.57212630797322, 73.75888081471581, 77.01974559174703, 76.14750483741739 " fill="none" id="curve_9" stroke="#000000" stroke-linecap="round" stroke-linejoin="round" stroke-width="3.2527228324663384"/>
  <path d="M 89.0192666157643, 71.26516235686469 Q 89.57710911963157, 75.80418527543063, 89.96291613166724, 96.50299245036578 " fill="none" id="curve_10" stroke="#000000" stroke-linecap="round" stroke-linejoin="round" stroke-width="1.486550330919147"/>
  <path d="M 89.96291613166724, 96.50299245036578 Q 89.89274029096794, 100.33497809178668, 89.82812805632113, 121.63408164905528 " fill="none" id="curve_10" stroke="#000000" stroke-linecap="round" stroke-linejoin="round" stroke-width="1.4706062902948234"/>
  <path d="M 89.82812805632113, 121.63408164905528 Q 89.73654227238258, 133.85876359536644, 89.4308061978086, 139.11901602173137 " fill="none" id="curve_10" stroke="#000000" stroke-linecap="round" stroke-linejoin="round" stroke-width="1.8399893975931174"/>
  <path d="M 89.4308061978086, 139.11901602173137 Q 89.14570707067068, 138.87890473159158, 88.67646476634481, 138.65464132152323 " fill="none" id="curve_10" stroke="#000000" stroke-linecap="round" stroke-linejoin="round" stroke-width="1.9633971004252355"/>
  <path d="M 68.97897352542921, 92.4465384189408 Q 70.73672862088446, 87.60436679581815, 74.72039828514957, 80.47626479603798 " fill="none" id="curve_12" stroke="#000000" stroke-linecap="round" stroke-linejoin="round" stroke-width="3.5976014032641177"/>
  <path d="M 74.72039828514957, 80.47626479603798 Q 68.44958306978253, 81.51731690153778, 65.29447324575506, 91.04572880557147 " fill="none" id="curve_12" stroke="#000000" stroke-linecap="round" stroke-linejoin="round" stroke-width="2.9447838902656374"/>
  <path d="M 90.2452720320614, 68.09885357767902 Q 89.61650061323586, 67.87427919049522, 89.56648535639944, 53.09950409078468 " fill="none" id="curve_13" stroke="#000000" stroke-linecap="round" stroke-linejoin="round" stroke-width="1.6626166091962773"/>
  <path d="M 89.56648535639944, 53.09950409078468 Q 89.55859219822842, 49.570139447402795, 89.54945476516693, 37.26761889911738 " fill="none" id="curve_13" stroke="#000000" stroke-linecap="round" stroke-linejoin="round" stroke-width="1.4875336211577386"/>
  <path d="M 89.54945476516693, 37.26761889911738 Q 89.56923499771418, 32.61883388312042, 89.60219511514885, 21.703445076900728 " fill="none" id="curve_13" stroke="#000000" stroke-linecap="round" stroke-linejoin="round" stroke-width="1.3944446761537557"/>
  <path d="M 89.60219511514885, 21.703445076900728 Q 89.60564755209751, 17.67094208611126, 89.61039208783875, 7.658672794293556 " fill="none" id="curve_13" stroke="#000000" stroke-linecap="round" stroke-linejoin="round" stroke-width="1.329691936410385"/>
  <path d="M 89.61039208783875, 7.658672794293556 Q 89.49186117875509, 2.7505186749704915, 88.95733068538141, 1.022200012307458 " fill="none" id="curve_13" stroke="#000000" stroke-linecap="round" stroke-linejoin="round" stroke-width="1.9114958129038067"/>
  <path d="M 88.95733068538141, 1.022200012307458 Q 89.24939621542701, 1.0169060639380676, 89.54761807837532, 1.0074395048290694 " fill="none" id="curve_13" stroke="#000000" stroke-linecap="round" stroke-linejoin="round" stroke-width="1.6323739263501373"/>
  <path d="M 81.84503144386863, 51.05042857716806 Q 75.66546778455627, 50.01244217360988, 72.57127355582618, 41.692449328749476 " fill="none" id="curve_16" stroke="#000000" stroke-linecap="round" stroke-linejoin="round" stroke-width="2.542901377870254"/>
  <path d="M 52.69501984787102, 32.22080771121084 Q 46.916255207710314, 32.21113273185323, 38.79515237386317, 32.195904333700376 " fill="none" id="curve_17" stroke="#000000" stroke-linecap="round" stroke-linejoin="round" stroke-width="2.396378601387448"/>
  <path d="M 38.79515237386317, 32.195904333700376 Q 35.60490429336937, 38.0624876158076, 27.357439430026485, 41.85165843666544 " fill="none" id="curve_17" stroke="#000000" stroke-linecap="round" stroke-linejoin="round" stroke-width="3.924809256470559"/>
  <path d="M 27.357439430026485, 41.85165843666544 Q 27.507211238970342, 47.10897275148324, 27.655738518250914, 55.27103675933253 " fill="none" id="curve_17" stroke="#000000" stroke-linecap="round" stroke-linejoin="round" stroke-width="4.073559425909903"/>
  <path d="M 11.181149078823154, 69.21254607221968 Q 8.455841692205958, 81.69390356030323, 3.1088887175939544, 94.5476154810102 " fill="none" id="curve_18" stroke="#000000" stroke-linecap="round" stroke-linejoin="round" stroke-width="3.965826067327574"/>
  <path d="M 13.429017148636143, 64.4300365224679 Q 11.842718052803157, 64.98775524661471, 10.89095118184266, 67.30696478203107 " fill="none" id="curve_19" stroke="#000000" stroke-linecap="round" stroke-linejoin="round" stroke-width="2.8081907225006133"/>
  <path d="M 45.36142074672704, 112.02491514556198 Q 39.83493332155353, 113.95999729461336, 33.85496700948487, 116.41824921808647 " fill="none" id="curve_22" stroke="#000000" stroke-linecap="round" stroke-linejoin="round" stroke-width="3.9166406449047657"/>
  <path d="M 33.85496700948487, 116.41824921808647 Q 25.982789353728013, 116.27907388073491, 19.018339495676884, 116.00344351462921 " fill="none" id="curve_22" stroke="#000000" stroke-linecap="round" stroke-linejoin="round" stroke-width="3.2323448701022692"/>
  <path d="M 19.018339495676884, 116.00344351462921 Q 9.93643905044544, 114.13231165203047, 6.213912577133209, 104.87212684852935 " fill="none" id="curve_22" stroke="#000000" stroke-linecap="round" stroke-linejoin="round" stroke-width="4.021536780548368"/>
  <path d="M 6.213912577133209, 104.87212684852935 Q 6.706519499254047, 86.97646475264989, 8.952987832274845, 78.7073192099671 " fill="none" id="curve_22" stroke="#000000" stroke-linecap="round" stroke-linejoin="round" stroke-width="3.4134288604907086"/>
  <path d="M 46.461763407487965, 32.69783800079119 Q 46.65079605926327, 35.671464820102074, 48.91260469840311, 36.355106195044634 " fill="none" id="curve_24" stroke="#000000" stroke-linecap="round" stroke-linejoin="round" stroke-width="5.0912415477943505"/>
  <path d="M 51.25032965568932, 31.61008685202371 Q 47.39943990367648, 31.80803867149823, 42.146377197014914, 32.22277133350698 " fill="none" id="curve_25" stroke="#000000" stroke-linecap="round" stroke-linejoin="round" stroke-width="2.668225736930769"/>
  <path d="M 73.3578122839612, 79.16561671035848 Q 77.05407302889998, 74.35727256824178, 82.0026619940232, 68.09948653150934 " fill="none" id="curve_27" stroke="#000000" stroke-linecap="round" stroke-linejoin="round" stroke-width="3.1129827466643047"/>
  <path d="M 62.57414389079663, 98.98392734472999 Q 66.87419213251636, 92.6641104456469, 76.01532003533408, 83.47632419208031 " fill="none" id="curve_30" stroke="#000000" stroke-linecap="round" stroke-linejoin="round" stroke-width="3.457494261384641"/>
  <path d="M 79.69112758214794, 56.64220767211544 Q 79.3260129500641, 52.749965794302625, 76.88192225980185, 51.71399601636002 " fill="none" id="curve_31" stroke="#000000" stroke-linecap="round" stroke-linejoin="round" stroke-width="4.25770167261872"/>
  <path d="M 5.993855987030207, 100.84034545237968 Q 9.238003814761376, 102.97260314035034, 11.327344883577604, 107.64280087641077 " fill="none" id="curve_35" stroke="#000000" stroke-linecap="round" stroke-linejoin="round" stroke-width="3.336539539866747"/>
  <path d="M 25.018595506199976, 57.278425149288566 Q 27.106288257372043, 54.41372879309757, 29.493690909575996, 46.30475887665831 " fill="none" id="curve_39" stroke="#000000" stroke-linecap="round" stroke-linejoin="round" stroke-width="3.0893263855249486"/>
  <path d="M 40.10544266372034, 115.56784965764217 Q 51.56514293845585, 110.96768521642196, 62.083610208582705, 97.17799964067174 " fill="none" id="curve_44" stroke="#000000" stroke-linecap="round" stroke-linejoin="round" stroke-width="2.423826475545378"/>
  <path d="M 79.30681387119564, 69.5225157669383 Q 77.54763130737166, 70.13531292600531, 75.71918881969131, 71.480951804237 " fill="none" id="curve_55" stroke="#000000" stroke-linecap="round" stroke-linejoin="round" stroke-width="2.898185464358708"/>
  <path d="M 49.61848851975367, 36.38419382345789 Q 47.5872551081138, 36.685320929007645, 46.529566582546764, 37.933008904887664 " fill="none" id="curve_70" stroke="#000000" stroke-linecap="round" stroke-linejoin="round" stroke-width="2.4438810125949173"/>
  <path d="M 7.1452779045487205, 79.82235273708977 Q 8.50099309511278, 80.99465052105903, 9.204701295156042, 85.12965594844623 " fill="none" id="curve_85" stroke="#000000" stroke-linecap="round" stroke-linejoin="round" stroke-width="4.05123213096665"/>
  <path d="M 72.88955203709173, 43.70058700011248 Q 73.42444546709442, 43.25845818385869, 74.86857227285036, 42.604138095075136 " fill="none" id="curve_107" stroke="#000000" stroke-linecap="round" stroke-linejoin="round" stroke-width="2.7594323011419766"/>
  <path d="M 35.205152433258384, 115.03185563396885 Q 43.69202194064218, 113.57536356658841, 49.298400372259465, 109.15203497063347 " fill="none" id="curve_127" stroke="#000000" stroke-linecap="round" stroke-linejoin="round" stroke-width="2.871800817934973"/>
  <path d="M 49.298400372259465, 109.15203497063347 Q 46.84522740626512, 114.00163751825954, 34.81722344024432, 115.91954220541545 " fill="none" id="curve_127" stroke="#000000" stroke-linecap="round" stroke-linejoin="round" stroke-width="3.628675755034964"/>
  <path d="M 4.410982325020257, 101.39608439329248 Q 4.6123610129671375, 100.6304041985862, 4.929823200600818, 99.61628555219875 " fill="none" id="curve_131" stroke="#000000" stroke-linecap="round" stroke-linejoin="round" stroke-width="3.2999586712325537"/>
</svg>
