<?xml version="1.0" ?>
<svg height="140" width="140" xmlns="http://www.w3.org/2000/svg">
  <path d="M 29.959611892700195, 100.17517852783203 Q 27.728743852947837, 97.37725350079354, 21.62135488221884, 93.42620929584518 " fill="none" id="curve_1" stroke="#000000" stroke-linecap="round" stroke-linejoin="round" stroke-width="6.816244106739377"/>
  <path d="M 21.62135488221884, 93.42620929584518 Q 20.574957165246325, 89.88376921518902, 19.641930390640105, 78.86228714177953 " fill="none" id="curve_1" stroke="#000000" stroke-linecap="round" stroke-linejoin="round" stroke-width="6.208078394474584"/>
  <path d="M 19.641930390640105, 78.86228714177953 Q 20.2772953437287, 64.97497158294352, 26.077176308630154, 55.485184053201834 " fill="none" id="curve_1" stroke="#000000" stroke-linecap="round" stroke-linejoin="round" stroke-width="4.79055961858523"/>
  <path d="M 26.077176308630154, 55.485184053201834 Q 31.589605420557564, 55.198827667147114, 32.17971116095627, 48.450010378277895 " fill="none" id="curve_1" stroke="#000000" stroke-linecap="round" stroke-linejoin="round" stroke-width="4.207274609235582"/>
  <path d="M 32.17971116095627, 48.450010378277895 Q 31.952275725244498, 52.629430094413244, 31.842118749549012, 64.95677103628846 " fill="none" id="curve_1" stroke="#000000" stroke-linecap="round" stroke-linejoin="round" stroke-width="3.7038470265486896"/>
  <path d="M 37.88954266320642, 42.680872176294955 Q 39.158494449420715, 35.73577676740753, 47.227963876857245, 33.66211296094423 " fill="none" id="curve_2" stroke="#000000" stroke-linecap="round" stroke-linejoin="round" stroke-width="4.499278978463389"/>
  <path d="M 47.227963876857245, 33.66211296094423 Q 58.18326276652523, 37.43488414527841, 61.90553860487765, 54.615549580682014 " fill="none" id="curve_2" stroke="#000000" stroke-linecap="round" stroke-linejoin="round" stroke-width="4.917343794764344"/>
  <path d="M 61.90553860487765, 54.615549580682014 Q 60.62978487751167, 69.63994169104411, 52.13559653486097, 87.8938921956914 " fill="none" id="curve_2" stroke="#000000" stroke-linecap="round" stroke-linejoin="round" stroke-width="5.5172847022977285"/>
  <path d="M 52.13559653486097, 87.8938921956914 Q 48.89125001486278, 96.47105360525856, 41.17430767916111, 101.05536913248797 " fill="none" id="curve_2" stroke="#000000" stroke-linecap="round" stroke-linejoin="round" stroke-width="5.177218054215516"/>
  <path d="M 41.17430767916111, 101.05536913248797 Q 30.533168592268083, 100.98256607849939, 28.0555247664593, 100.3965398678359 " fill="none" id="curve_2" stroke="#000000" stroke-linecap="round" stroke-linejoin="round" stroke-width="5.6130693319446205"/>
  <path d="M 89.51741975622902, 38.89801986521135 Q 89.5460777620224, 49.57145464676595, 89.61134356260888, 67.76509031698112 " fill="none" id="curve_5" stroke="#000000" stroke-linecap="round" stroke-linejoin="round" stroke-width="1.8248010751195631"/>
  <path d="M 89.61134356260888, 67.76509031698112 Q 89.65002401939606, 79.39519852616397, 89.87638110198094, 97.42833556406526 " fill="none" id="curve_5" stroke="#000000" stroke-linecap="round" stroke-linejoin="round" stroke-width="1.8061697106268004"/>
  <path d="M 89.87638110198094, 97.42833556406526 Q 89.8268364990548, 103.89305629427024, 89.70656904592352, 122.46464665145527 " fill="none" id="curve_5" stroke="#000000" stroke-linecap="round" stroke-linejoin="round" stroke-width="1.4835397970822994"/>
  <path d="M 89.70656904592352, 122.46464665145527 Q 89.6770688094326, 134.88031216970572, 89.54800532499395, 138.55084555330464 " fill="none" id="curve_5" stroke="#000000" stroke-linecap="round" stroke-linejoin="round" stroke-width="2.018413140695256"/>
  <path d="M 89.54800532499395, 138.55084555330464 Q 89.57380439184918, 138.52158807819808, 89.62036329575288, 138.49133579520705 " fill="none" id="curve_5" stroke="#000000" stroke-linecap="round" stroke-linejoin="round" stroke-width="1.7041114793816807"/>
  <path d="M 57.1354474261323, 68.50324674211903 Q 58.242744699953505, 63.53789380014244, 60.07277095347102, 56.25735744905103 " fill="none" id="curve_10" stroke="#000000" stroke-linecap="round" stroke-linejoin="round" stroke-width="3.1715492622366415"/>
  <path d="M 39.215266630979784, 37.72288108378366 Q 37.67420544188702, 40.58559394359641, 35.42773318922319, 43.8673606264048 " fill="none" id="curve_11" stroke="#000000" stroke-linecap="round" stroke-linejoin="round" stroke-width="4.015944935411213"/>
  <path d="M 43.115142257318126, 35.40131418708693 Q 41.88249440888139, 38.558494782605, 37.08781354008966, 40.19608194174226 " fill="none" id="curve_12" stroke="#000000" stroke-linecap="round" stroke-linejoin="round" stroke-width="4.377398651923795"/>
  <path d="M 90.51921626655987, 35.43849185721484 Q 89.83537298845988, 34.61927939624361, 89.72458477730999, 7.268944437977368 " fill="none" id="curve_13" stroke="#000000" stroke-linecap="round" stroke-linejoin="round" stroke-width="2.043822543123602"/>
  <path d="M 89.72458477730999, 7.268944437977368 Q 89.61898447950445, 2.83628558156144, 89.05843629687547, 1.3277577861805359 " fill="none" id="curve_13" stroke="#000000" stroke-linecap="round" stroke-linejoin="round" stroke-width="2.4716236676075094"/>
  <path d="M 60.94752874307296, 51.618356591891605 Q 60.71448421422672, 47.46784481141829, 59.58410953760556, 46.159644567033254 " fill="none" id="curve_17" stroke="#000000" stroke-linecap="round" stroke-linejoin="round" stroke-width="5.250141323316705"/>
  <path d="M 59.58410953760556, 46.159644567033254 Q 59.99681991674094, 51.383953802800015, 60.451345446628686, 58.77765160844385 " fill="none" id="curve_17" stroke="#000000" stroke-linecap="round" stroke-linejoin="round" stroke-width="3.5057214675632746"/>
  <path d="M 29.66907806848435, 50.87892586284937 Q 28.273680001502186, 53.86301203284913, 24.919884188331853, 56.24707215328095 " fill="none" id="curve_18" stroke="#000000" stroke-linecap="round" stroke-linejoin="round" stroke-width="3.430865693894842"/>
  <path d="M 48.39904049963178, 91.93233756777188 Q 46.68204691603931, 94.50648546141802, 43.97260435278422, 97.43647098260186 " fill="none" id="curve_21" stroke="#000000" stroke-linecap="round" stroke-linejoin="round" stroke-width="3.865773383133346"/>
  <path d="M 25.042045623091553, 99.24158507556328 Q 24.890007564517706, 98.73710641200702, 24.748249624285027, 97.62566575139157 " fill="none" id="curve_23" stroke="#000000" stroke-linecap="round" stroke-linejoin="round" stroke-width="4.812643524665391"/>
  <path d="M 33.26346337775416, 47.53778216058353 Q 33.142161344730624, 46.65283903966222, 32.57474268765118, 46.28113050517824 " fill="none" id="curve_25" stroke="#000000" stroke-linecap="round" stroke-linejoin="round" stroke-width="2.938352317557703"/>
  <path d="M 41.56294687426181, 34.922688307066906 Q 40.00268469678276, 36.40863896766213, 38.16797504914326, 39.40482464880813 " fill="none" id="curve_27" stroke="#000000" stroke-linecap="round" stroke-linejoin="round" stroke-width="2.768003063454338"/>
  <path d="M 56.778593573001984, 75.57104839182001 Q 57.225152525956744, 70.68588041625787, 59.018893318742826, 66.03712811611538 " fill="none" id="curve_33" stroke="#000000" stroke-linecap="round" stroke-linejoin="round" stroke-width="2.59545204404953"/>
  <path d="M 62.31942805287463, 50.804361784156754 Q 62.14112004569318, 48.720303306859485, 60.54946379384361, 48.047053653702875 " fill="none" id="curve_48" stroke="#000000" stroke-linecap="round" stroke-linejoin="round" stroke-width="3.1283987815230727"/>
  <path d="M 35.17491708609951, 51.60757412574358 Q 34.25336632004801, 51.22243471522549, 32.06759680054071, 50.70576914159395 " fill="none" id="curve_64" stroke="#000000" stroke-linecap="round" stroke-linejoin="round" stroke-width="2.420716711215973"/>
  <path d="M 37.81532622565607, 42.213254939788 Q 38.057669422994316, 36.408906786165396, 41.842456084028214, 35.19231647108491 " fill="none" id="curve_81" stroke="#000000" stroke-linecap="round" stroke-linejoin="round" stroke-width="2.46838752998853"/>
</svg>
