<?xml version="1.0" ?>
<svg height="140" width="140" xmlns="http://www.w3.org/2000/svg">
  <path d="M 55.3255500793457, 107.73482894897461 Q 53.16679405898818, 111.87217801862234, 44.16244320522134, 113.99619854884895 " fill="none" id="curve_1" stroke="#000000" stroke-linecap="round" stroke-linejoin="round" stroke-width="5.7782272901224605"/>
  <path d="M 44.16244320522134, 113.99619854884895 Q 35.48279790141689, 111.74645812834272, 30.215745874271043, 98.23814757815408 " fill="none" id="curve_1" stroke="#000000" stroke-linecap="round" stroke-linejoin="round" stroke-width="4.835225828170375"/>
  <path d="M 30.215745874271043, 98.23814757815408 Q 28.549855633452477, 93.56238159305032, 26.555575284249414, 73.39732518739314 " fill="none" id="curve_1" stroke="#000000" stroke-linecap="round" stroke-linejoin="round" stroke-width="4.86464902322865"/>
  <path d="M 26.555575284249414, 73.39732518739314 Q 26.736349052883618, 54.0770887895939, 29.304882039157896, 44.91634305089278 " fill="none" id="curve_1" stroke="#000000" stroke-linecap="round" stroke-linejoin="round" stroke-width="4.68646235586936"/>
  <path d="M 29.304882039157896, 44.91634305089278 Q 31.691968928053683, 36.11536010436363, 35.813686784838865, 25.82413681504346 " fill="none" id="curve_1" stroke="#000000" stroke-linecap="round" stroke-linejoin="round" stroke-width="3.7516942895539964"/>
  <path d="M 43.54449941599913, 31.02890468056163 Q 50.4486856302381, 31.11569014202527, 52.21887309737295, 32.58855192477976 " fill="none" id="curve_2" stroke="#000000" stroke-linecap="round" stroke-linejoin="round" stroke-width="3.615643936591764"/>
  <path d="M 52.21887309737295, 32.58855192477976 Q 57.18562476445772, 43.906684768700515, 62.712250349887086, 70.1727988982408 " fill="none" id="curve_2" stroke="#000000" stroke-linecap="round" stroke-linejoin="round" stroke-width="4.409085045064332"/>
  <path d="M 62.712250349887086, 70.1727988982408 Q 62.5511978529685, 105.0703832626303, 53.64372766032526, 109.12111371546722 " fill="none" id="curve_2" stroke="#000000" stroke-linecap="round" stroke-linejoin="round" stroke-width="4.764881567971716"/>
  <path d="M 53.64372766032526, 109.12111371546722 Q 53.29841350894119, 111.82300129351087, 50.20147607401011, 112.28574488145469 " fill="none" id="curve_2" stroke="#000000" stroke-linecap="round" stroke-linejoin="round" stroke-width="4.974501497490807"/>
  <path d="M 63.43649800280288, 78.45931768918769 Q 62.300412941158086, 79.09075694655097, 61.821585318470156, 82.7392281832791 " fill="none" id="curve_3" stroke="#000000" stroke-linecap="round" stroke-linejoin="round" stroke-width="3.5202867267740663"/>
  <path d="M 39.18441081713402, 32.924193636055264 Q 42.10770205027268, 32.523686304183386, 43.35707526720862, 30.354119413197722 " fill="none" id="curve_4" stroke="#000000" stroke-linecap="round" stroke-linejoin="round" stroke-width="4.497369832678597"/>
  <path d="M 60.935662786431, 58.455986334535694 Q 56.83886864067693, 49.76129145829438, 51.19444640129666, 30.688639045561217 " fill="none" id="curve_5" stroke="#000000" stroke-linecap="round" stroke-linejoin="round" stroke-width="2.820437435356591"/>
  <path d="M 24.715469662976147, 67.49834945767776 Q 24.88076461392108, 68.12201442660667, 25.06203289376403, 69.50711412939896 " fill="none" id="curve_6" stroke="#000000" stroke-linecap="round" stroke-linejoin="round" stroke-width="3.569248638547201"/>
  <path d="M 60.527275844922755, 75.46729753921083 Q 61.952839102444734, 79.01722755589381, 63.41837804964936, 84.26436000387571 " fill="none" id="curve_7" stroke="#000000" stroke-linecap="round" stroke-linejoin="round" stroke-width="3.479435617103885"/>
  <path d="M 60.83595748400894, 78.08500436936812 Q 62.747314263106205, 78.92120783021774, 63.03909239697379, 90.76664184653197 " fill="none" id="curve_8" stroke="#000000" stroke-linecap="round" stroke-linejoin="round" stroke-width="3.325891723219285"/>
  <path d="M 48.94539204009663, 29.31897210779055 Q 45.35383464322545, 29.62340848582716, 41.447113137462274, 30.247656198709873 " fill="none" id="curve_11" stroke="#000000" stroke-linecap="round" stroke-linejoin="round" stroke-width="2.562746549084154"/>
  <path d="M 58.56958445047597, 54.190131245789956 Q 57.993889903041186, 46.05332868529375, 53.54643345890268, 42.63198315639592 " fill="none" id="curve_27" stroke="#000000" stroke-linecap="round" stroke-linejoin="round" stroke-width="2.6044211336491965"/>
  <path d="M 62.103192846543095, 80.72183082495519 Q 62.39990201274316, 81.47530679691823, 62.64697691207115, 83.58150810022688 " fill="none" id="curve_55" stroke="#000000" stroke-linecap="round" stroke-linejoin="round" stroke-width="4.2364106984806655"/>
  <path d="M 62.64697691207115, 83.58150810022688 Q 62.546105765014644, 83.10219037340049, 62.326195775565424, 82.29780876363424 " fill="none" id="curve_55" stroke="#000000" stroke-linecap="round" stroke-linejoin="round" stroke-width="3.4584652058864505"/>
  <path d="M 55.951999767588184, 43.09307755730416 Q 57.66093445582712, 47.05778379131922, 59.54337707922122, 53.14144986455399 " fill="none" id="curve_71" stroke="#000000" stroke-linecap="round" stroke-linejoin="round" stroke-width="3.1798902502805895"/>
  <path d="M 59.62527957459869, 97.89587126512812 Q 57.944222998245486, 102.9463469359365, 54.11871584275737, 107.95794823657909 " fill="none" id="curve_99" stroke="#000000" stroke-linecap="round" stroke-linejoin="round" stroke-width="2.7902044149439402"/>
  <path d="M 62.31381883530685, 82.04894503899686 Q 63.02956929145767, 81.83002607148961, 63.56835529054227, 81.17366170321301 " fill="none" id="curve_114" stroke="#000000" stroke-linecap="round" stroke-linejoin="round" stroke-width="3.1530103899288866"/>
  <path d="M 50.556597716703436, 34.98882980085318 Q 51.41609248675581, 36.17785728710316, 52.737508379622454, 38.41934910720458 " fill="none" id="curve_142" stroke="#000000" stroke-linecap="round" stroke-linejoin="round" stroke-width="2.4769948126436456"/>
  <path d="M 36.301879794714296, 29.438518981968144 Q 34.311732677366486, 30.403411338390224, 31.81947837041431, 32.99162202073269 " fill="none" id="curve_143" stroke="#000000" stroke-linecap="round" stroke-linejoin="round" stroke-width="2.4229150301366"/>
</svg>
