<?xml version="1.0" ?>
<svg height="140" width="140" xmlns="http://www.w3.org/2000/svg">
  <path d="M 39.077964782714844, 105.67839115858078 Q 38.821798985787815, 109.7982368427094, 31.538044498860245, 110.13982476699854 " fill="none" id="curve_1" stroke="#000000" stroke-linecap="round" stroke-linejoin="round" stroke-width="5.195159569369201"/>
  <path d="M 31.538044498860245, 110.13982476699854 Q 24.747482495394397, 108.73775450259116, 21.52121635112996, 100.46743612894177 " fill="none" id="curve_1" stroke="#000000" stroke-linecap="round" stroke-linejoin="round" stroke-width="6.177482100268478"/>
  <path d="M 21.52121635112996, 100.46743612894177 Q 18.617937911729676, 96.613083526824, 15.446950239432027, 84.03498710759617 " fill="none" id="curve_1" stroke="#000000" stroke-linecap="round" stroke-linejoin="round" stroke-width="5.574513585020186"/>
  <path d="M 15.446950239432027, 84.03498710759617 Q 14.930508483882436, 74.95197695162861, 13.70205174357787, 64.86196949418134 " fill="none" id="curve_1" stroke="#000000" stroke-linecap="round" stroke-linejoin="round" stroke-width="5.024471628929864"/>
  <path d="M 13.70205174357787, 64.86196949418134 Q 17.532842920631925, 64.10472154067482, 26.549791960662084, 63.51609660607657 " fill="none" id="curve_1" stroke="#000000" stroke-linecap="round" stroke-linejoin="round" stroke-width="2.8710183389541952"/>
  <path d="M 26.549791960662084, 63.51609660607657 Q 33.01874548753802, 57.0610537573473, 41.09384668941621, 48.67774014766687 " fill="none" id="curve_1" stroke="#000000" stroke-linecap="round" stroke-linejoin="round" stroke-width="4.816209395246294"/>
  <path d="M 41.09384668941621, 48.67774014766687 Q 47.641736175370426, 48.88700245001896, 48.08233296421381, 55.06742890284015 " fill="none" id="curve_1" stroke="#000000" stroke-linecap="round" stroke-linejoin="round" stroke-width="4.316551533201123"/>
  <path d="M 48.08233296421381, 55.06742890284015 Q 48.766614754528, 60.075046684488974, 49.14577230028513, 87.52957528066847 " fill="none" id="curve_1" stroke="#000000" stroke-linecap="round" stroke-linejoin="round" stroke-width="5.225591608544884"/>
  <path d="M 49.14577230028513, 87.52957528066847 Q 47.248036585414525, 102.56270286267109, 39.76978022093157, 108.70891582349077 " fill="none" id="curve_1" stroke="#000000" stroke-linecap="round" stroke-linejoin="round" stroke-width="4.193759597722621"/>
  <path d="M 39.76978022093157, 108.70891582349077 Q 45.37237621139022, 101.65901117351753, 50.53253421338732, 82.06616236606652 " fill="none" id="curve_1" stroke="#000000" stroke-linecap="round" stroke-linejoin="round" stroke-width="2.760002037850018"/>
  <path d="M 33.00146676067408, 54.16440373443366 Q 34.82344521676022, 52.171344368862094, 37.58805026927741, 50.18598090078884 " fill="none" id="curve_2" stroke="#000000" stroke-linecap="round" stroke-linejoin="round" stroke-width="3.3960290672813"/>
  <path d="M 32.13011096059804, 60.97636521037776 Q 32.49539942839094, 52.949053089116106, 35.9184819558695, 51.176780362191856 " fill="none" id="curve_3" stroke="#000000" stroke-linecap="round" stroke-linejoin="round" stroke-width="2.775859711770873"/>
  <path d="M 17.809442485312893, 80.3560878647173 Q 16.295756313904388, 79.48451271283828, 15.13552280554874, 77.57237043760826 " fill="none" id="curve_4" stroke="#000000" stroke-linecap="round" stroke-linejoin="round" stroke-width="5.676404040201635"/>
  <path d="M 48.792828269520925, 60.73834218883596 Q 47.430887398999985, 59.15456109280115, 46.352154181932555, 55.27092658404789 " fill="none" id="curve_6" stroke="#000000" stroke-linecap="round" stroke-linejoin="round" stroke-width="3.1255719790877214"/>
  <path d="M 48.78906026436234, 86.78951982031582 Q 49.83734633197853, 83.01923957431781, 50.39014018709345, 65.10173080036336 " fill="none" id="curve_7" stroke="#000000" stroke-linecap="round" stroke-linejoin="round" stroke-width="2.541703750721719"/>
  <path d="M 31.254550635839372, 107.24536030155775 Q 31.645034139571415, 108.88922800211704, 35.35789490042943, 109.22943630490256 " fill="none" id="curve_8" stroke="#000000" stroke-linecap="round" stroke-linejoin="round" stroke-width="3.24332564408465"/>
  <path d="M 49.20680247810289, 86.47173343443859 Q 48.79892552222406, 83.39719338277726, 48.09056189349154, 81.01042956807265 " fill="none" id="curve_9" stroke="#000000" stroke-linecap="round" stroke-linejoin="round" stroke-width="4.718320528155324"/>
  <path d="M 51.29846262319802, 81.98570147330281 Q 50.582916313891545, 82.58395336235843, 49.345736335285984, 83.43068089240361 " fill="none" id="curve_50" stroke="#000000" stroke-linecap="round" stroke-linejoin="round" stroke-width="2.9583557562668155"/>
  <path d="M 47.61163251011385, 91.8882013360068 Q 47.69634106732706, 88.87030894708897, 47.86059334595492, 85.6590767019678 " fill="none" id="curve_91" stroke="#000000" stroke-linecap="round" stroke-linejoin="round" stroke-width="3.4136834593554344"/>
  <path d="M 16.31296906558192, 82.69075302697013 Q 15.841209916935808, 75.34460519543296, 14.066607640030576, 71.25896431100665 " fill="none" id="curve_92" stroke="#000000" stroke-linecap="round" stroke-linejoin="round" stroke-width="2.8874707589006356"/>
  <path d="M 13.359138197140283, 80.73796409495961 Q 15.097733225073416, 79.23829617633488, 15.675177634826635, 70.72973101404892 " fill="none" id="curve_107" stroke="#000000" stroke-linecap="round" stroke-linejoin="round" stroke-width="3.4922190857248223"/>
  <path d="M 89.34644580887351, 138.4811369031827 Q 89.5125332232123, 138.50551912502428, 89.74166149873949, 138.5458889589112 " fill="none" id="curve_135" stroke="#000000" stroke-linecap="round" stroke-linejoin="round" stroke-width="1.611914209694731"/>
</svg>
