<?xml version="1.0" ?>
<svg height="140" width="140" xmlns="http://www.w3.org/2000/svg">
  <path d="M 46.80192565917969, 51.669989585876465 Q 46.5870921567098, 52.10638661189763, 45.58902601426951, 52.58073122428044 " fill="none" id="curve_1" stroke="#000000" stroke-linecap="round" stroke-linejoin="round" stroke-width="8.924138218746675"/>
  <path d="M 45.58902601426951, 52.58073122428044 Q 38.006888685848025, 54.09585773876215, 26.803883000758614, 64.08755685424843 " fill="none" id="curve_1" stroke="#000000" stroke-linecap="round" stroke-linejoin="round" stroke-width="3.8330023726163756"/>
  <path d="M 26.803883000758614, 64.08755685424843 Q 23.360100593637128, 70.25427832880878, 20.256096956534336, 81.38011686994264 " fill="none" id="curve_1" stroke="#000000" stroke-linecap="round" stroke-linejoin="round" stroke-width="5.704495520842561"/>
  <path d="M 20.256096956534336, 81.38011686994264 Q 21.46908298043679, 95.72868008363669, 37.86626535577172, 97.86235987292143 " fill="none" id="curve_1" stroke="#000000" stroke-linecap="round" stroke-linejoin="round" stroke-width="4.430020991030592"/>
  <path d="M 37.86626535577172, 97.86235987292143 Q 52.30586549791587, 95.91086274482711, 56.68158207347334, 84.8412707094022 " fill="none" id="curve_1" stroke="#000000" stroke-linecap="round" stroke-linejoin="round" stroke-width="3.7405403148189595"/>
  <path d="M 56.68158207347334, 84.8412707094022 Q 56.34495787132188, 60.01531886730423, 47.52859459504342, 53.692435518953275 " fill="none" id="curve_1" stroke="#000000" stroke-linecap="round" stroke-linejoin="round" stroke-width="4.5836130845546785"/>
  <path d="M 47.52859459504342, 53.692435518953275 Q 49.97383537387282, 54.27204770763059, 50.800011437697954, 57.32246222287682 " fill="none" id="curve_1" stroke="#000000" stroke-linecap="round" stroke-linejoin="round" stroke-width="8.171733712100577"/>
  <path d="M 89.37963304971629, 43.98809876599929 Q 89.11343030769521, 49.63494179536329, 88.63939602178195, 86.83078743552849 " fill="none" id="curve_2" stroke="#000000" stroke-linecap="round" stroke-linejoin="round" stroke-width="3.4337280178963674"/>
  <path d="M 88.63939602178195, 86.83078743552849 Q 89.01704669633325, 89.00486464814387, 89.13759388185694, 119.43465639173189 " fill="none" id="curve_2" stroke="#000000" stroke-linecap="round" stroke-linejoin="round" stroke-width="2.6331607922284777"/>
  <path d="M 89.13759388185694, 119.43465639173189 Q 89.07863553472514, 131.11792840289047, 88.94608122711821, 137.96577156767495 " fill="none" id="curve_2" stroke="#000000" stroke-linecap="round" stroke-linejoin="round" stroke-width="3.5361257309362917"/>
  <path d="M 88.94608122711821, 137.96577156767495 Q 88.8327005941665, 138.32755213993022, 88.48179311704101, 138.51231366448894 " fill="none" id="curve_2" stroke="#000000" stroke-linecap="round" stroke-linejoin="round" stroke-width="2.507723765329531"/>
  <path d="M 44.33595073933952, 57.32776327198704 Q 48.667032849652834, 58.11666449114097, 52.259866932472924, 59.906696723816125 " fill="none" id="curve_6" stroke="#000000" stroke-linecap="round" stroke-linejoin="round" stroke-width="2.6481873990883478"/>
  <path d="M 52.259866932472924, 59.906696723816125 Q 51.760519537505246, 51.97648420162737, 48.06616613468496, 50.14989296976303 " fill="none" id="curve_6" stroke="#000000" stroke-linecap="round" stroke-linejoin="round" stroke-width="3.622950041173379"/>
  <path d="M 20.537551913695786, 74.95698052987538 Q 23.906199747451623, 67.38371909963577, 31.665993834236502, 59.867340123425805 " fill="none" id="curve_8" stroke="#000000" stroke-linecap="round" stroke-linejoin="round" stroke-width="2.483487207978695"/>
  <path d="M 25.827036037722177, 90.99957841594231 Q 28.642826397997517, 94.18829625107361, 35.69342588223566, 96.37761865448478 " fill="none" id="curve_9" stroke="#000000" stroke-linecap="round" stroke-linejoin="round" stroke-width="2.6743756329506496"/>
  <path d="M 49.5794284566462, 92.83179995217868 Q 45.05583149188795, 95.9207532788258, 35.678902218996285, 98.10548106983897 " fill="none" id="curve_10" stroke="#000000" stroke-linecap="round" stroke-linejoin="round" stroke-width="3.0357864401870414"/>
  <path d="M 21.666070209962186, 68.87439367429444 Q 21.84218767525657, 70.50175066585301, 22.147555677312454, 73.18597263906118 " fill="none" id="curve_11" stroke="#000000" stroke-linecap="round" stroke-linejoin="round" stroke-width="2.7762942595361713"/>
  <path d="M 87.24421641352671, 43.217285640590404 Q 89.17458088482913, 42.97038060287871, 89.41269650176045, 36.717728905362115 " fill="none" id="curve_15" stroke="#000000" stroke-linecap="round" stroke-linejoin="round" stroke-width="2.250829320536886"/>
  <path d="M 89.41269650176045, 36.717728905362115 Q 89.38822102745777, 28.448172176214662, 89.32699066811445, 14.117509033305499 " fill="none" id="curve_15" stroke="#000000" stroke-linecap="round" stroke-linejoin="round" stroke-width="2.036033297908405"/>
  <path d="M 89.32699066811445, 14.117509033305499 Q 89.07035116557591, 6.6406357422175155, 88.25314233551583, 1.7381833680446555 " fill="none" id="curve_15" stroke="#000000" stroke-linecap="round" stroke-linejoin="round" stroke-width="3.5947921728464416"/>
  <path d="M 88.25314233551583, 1.7381833680446555 Q 87.04747684077716, 1.7499884833703043, 85.9430456215033, 1.7684094328499762 " fill="none" id="curve_15" stroke="#000000" stroke-linecap="round" stroke-linejoin="round" stroke-width="3.3734916271909636"/>
  <path d="M 58.13982214844397, 69.47985181881546 Q 52.361897335889246, 67.10293073888046, 48.22728333045429, 56.289551885581204 " fill="none" id="curve_31" stroke="#000000" stroke-linecap="round" stroke-linejoin="round" stroke-width="2.7151030475461817"/>
  <path d="M 30.377066254246024, 60.63134839513367 Q 29.43333600083968, 61.50124300135291, 28.03312028906717, 63.6275912288862 " fill="none" id="curve_34" stroke="#000000" stroke-linecap="round" stroke-linejoin="round" stroke-width="2.7610860416927587"/>
  <path d="M 48.726805306492075, 51.514270483434636 Q 48.37799897810358, 50.663044674477334, 47.222715582966714, 50.1449970021122 " fill="none" id="curve_51" stroke="#000000" stroke-linecap="round" stroke-linejoin="round" stroke-width="3.7940152315361932"/>
  <path d="M 53.992938756971355, 88.55314289456848 Q 55.78757995726531, 85.77214669723169, 56.764772009951685, 74.79669876170135 " fill="none" id="curve_60" stroke="#000000" stroke-linecap="round" stroke-linejoin="round" stroke-width="2.4811786229741104"/>
  <path d="M 32.964666818166805, 98.30464403688602 Q 32.600202248713074, 98.2147200670302, 32.175514418855485, 98.07473180022906 " fill="none" id="curve_77" stroke="#000000" stroke-linecap="round" stroke-linejoin="round" stroke-width="3.203627644539065"/>
  <path d="M 88.07339727398409, 8.670612189411223 Q 88.18545754066807, 8.178679705771698, 88.30228207517041, 6.986536151570426 " fill="none" id="curve_95" stroke="#000000" stroke-linecap="round" stroke-linejoin="round" stroke-width="2.470736620323558"/>
  <path d="M 88.17237699818355, 43.56534998035537 Q 88.90913373335925, 42.33940711972565, 89.692789006284, 40.36806162868585 " fill="none" id="curve_103" stroke="#000000" stroke-linecap="round" stroke-linejoin="round" stroke-width="1.8989288492383027"/>
  <path d="M 89.00029618683318, 70.15034690396014 Q 89.03739019504535, 76.41594931580657, 89.07685405799438, 86.38305872343136 " fill="none" id="curve_104" stroke="#000000" stroke-linecap="round" stroke-linejoin="round" stroke-width="1.5767798210905362"/>
  <path d="M 89.31228535479526, 109.27089414264037 Q 88.68063820257714, 113.08146466205838, 88.40516022341684, 128.518479906163 " fill="none" id="curve_105" stroke="#000000" stroke-linecap="round" stroke-linejoin="round" stroke-width="1.744865994710517"/>
  <path d="M 88.28151356036565, 137.77127482039182 Q 88.35747767854629, 138.5379978493842, 88.66765404481309, 138.85596640221272 " fill="none" id="curve_106" stroke="#000000" stroke-linecap="round" stroke-linejoin="round" stroke-width="2.407281668474083"/>
  <path d="M 88.07469923862126, 105.3461460275226 Q 88.93782505025982, 105.15164808876496, 89.1957078284685, 103.69705145467242 " fill="none" id="curve_107" stroke="#000000" stroke-linecap="round" stroke-linejoin="round" stroke-width="1.8523076463826296"/>
  <path d="M 89.1957078284685, 103.69705145467242 Q 89.24069937421221, 95.59871019477345, 89.33089265739338, 85.1762635189494 " fill="none" id="curve_107" stroke="#000000" stroke-linecap="round" stroke-linejoin="round" stroke-width="1.7180682863276215"/>
  <path d="M 55.241753615820095, 89.46881521548647 Q 55.16937572329542, 87.56483457652996, 54.96388517477836, 86.63381155722384 " fill="none" id="curve_112" stroke="#000000" stroke-linecap="round" stroke-linejoin="round" stroke-width="4.168316038251422"/>
  <path d="M 53.80937342245677, 60.360584758421155 Q 53.10912463477766, 55.476811223368784, 49.15202649159449, 52.983434128798535 " fill="none" id="curve_118" stroke="#000000" stroke-linecap="round" stroke-linejoin="round" stroke-width="2.414698691442543"/>
  <path d="M 31.061641419082044, 60.227988223351815 Q 27.028649342947375, 62.30817062776916, 24.59796002365614, 70.1767585603159 " fill="none" id="curve_127" stroke="#000000" stroke-linecap="round" stroke-linejoin="round" stroke-width="2.6139000744563528"/>
  <path d="M 40.35987641397099, 96.03756566261119 Q 41.678604723163, 96.1870204554026, 43.50081105258917, 96.52142612945777 " fill="none" id="curve_143" stroke="#000000" stroke-linecap="round" stroke-linejoin="round" stroke-width="2.8926729995960376"/>
</svg>
