<?xml version="1.0" ?>
<svg height="140" width="140" xmlns="http://www.w3.org/2000/svg">
  <path d="M 61.620707511901855, 105.65686798095703 Q 62.013928983364565, 105.21996108988262, 62.89381549872063, 104.3053446700301 " fill="none" id="curve_1" stroke="#000000" stroke-linecap="round" stroke-linejoin="round" stroke-width="9.1830899580998"/>
  <path d="M 62.89381549872063, 104.3053446700301 Q 60.60202743023443, 112.92130881263358, 52.26889796276892, 118.37399894749356 " fill="none" id="curve_1" stroke="#000000" stroke-linecap="round" stroke-linejoin="round" stroke-width="7.469834189528013"/>
  <path d="M 52.26889796276892, 118.37399894749356 Q 50.47414504663965, 119.87818697039661, 42.75211838772319, 120.29827820803924 " fill="none" id="curve_1" stroke="#000000" stroke-linecap="round" stroke-linejoin="round" stroke-width="6.35221813496637"/>
  <path d="M 42.75211838772319, 120.29827820803924 Q 23.624034555421424, 119.0198775075164, 14.670208517442678, 98.8083749250091 " fill="none" id="curve_1" stroke="#000000" stroke-linecap="round" stroke-linejoin="round" stroke-width="6.193862502074355"/>
  <path d="M 14.670208517442678, 98.8083749250091 Q 8.761443798544157, 97.85197484727213, 7.952259498357934, 77.04396537211632 " fill="none" id="curve_1" stroke="#000000" stroke-linecap="round" stroke-linejoin="round" stroke-width="6.327789320672017"/>
  <path d="M 7.952259498357934, 77.04396537211632 Q 8.480538446561821, 57.37598548814105, 14.611037568968108, 43.73455814395864 " fill="none" id="curve_1" stroke="#000000" stroke-linecap="round" stroke-linejoin="round" stroke-width="6.054940690501024"/>
  <path d="M 14.611037568968108, 43.73455814395864 Q 20.359593923512016, 36.53889728741407, 28.517524911050728, 26.505126406626232 " fill="none" id="curve_1" stroke="#000000" stroke-linecap="round" stroke-linejoin="round" stroke-width="4.8622243627473205"/>
  <path d="M 28.517524911050728, 26.505126406626232 Q 34.912712740823764, 28.708234866634868, 36.745868691287114, 36.18942890553376 " fill="none" id="curve_1" stroke="#000000" stroke-linecap="round" stroke-linejoin="round" stroke-width="5.4894526856233385"/>
  <path d="M 36.745868691287114, 36.18942890553376 Q 43.571842045000174, 35.688911932396294, 50.40916319000024, 34.97898004615029 " fill="none" id="curve_1" stroke="#000000" stroke-linecap="round" stroke-linejoin="round" stroke-width="4.9210009792635345"/>
  <path d="M 50.40916319000024, 34.97898004615029 Q 59.584248557091975, 41.12546255120089, 66.66004223374775, 72.30577978222068 " fill="none" id="curve_1" stroke="#000000" stroke-linecap="round" stroke-linejoin="round" stroke-width="5.836774281316348"/>
  <path d="M 66.66004223374775, 72.30577978222068 Q 67.18205832234061, 77.4570453517968, 67.33983535454576, 98.30386720523998 " fill="none" id="curve_1" stroke="#000000" stroke-linecap="round" stroke-linejoin="round" stroke-width="5.448793550628996"/>
  <path d="M 67.33983535454576, 98.30386720523998 Q 65.6068921744868, 98.90903434866655, 64.75642605952258, 100.81107216584887 " fill="none" id="curve_1" stroke="#000000" stroke-linecap="round" stroke-linejoin="round" stroke-width="6.421033313044603"/>
  <path d="M 66.63721127064186, 71.9137653285832 Q 65.38948147609544, 49.47885752963307, 51.5756182339281, 39.77347770159837 " fill="none" id="curve_2" stroke="#000000" stroke-linecap="round" stroke-linejoin="round" stroke-width="2.5032861244095947"/>
  <path d="M 11.294142181998986, 99.14485286586739 Q 16.00067732430795, 106.24169437108183, 25.287286311697954, 112.81966742107623 " fill="none" id="curve_17" stroke="#000000" stroke-linecap="round" stroke-linejoin="round" stroke-width="1.7775250015700161"/>
  <path d="M 25.287286311697954, 112.81966742107623 Q 26.228258875710214, 118.03867895825923, 31.038606690728475, 119.60256799564509 " fill="none" id="curve_17" stroke="#000000" stroke-linecap="round" stroke-linejoin="round" stroke-width="3.582963989827785"/>
  <path d="M 23.08039093017578, 32.6318473815918 Q 23.089575604858073, 29.355429684232522, 23.344354189604047, 28.897438627221163 " fill="none" id="curve_31" stroke="#000000" stroke-linecap="round" stroke-linejoin="round" stroke-width="3.003177685312598"/>
  <path d="M 33.981375571204865, 27.231967247934094 Q 34.716091830474575, 30.105984226841617, 36.61631986582113, 35.318909271584594 " fill="none" id="curve_34" stroke="#000000" stroke-linecap="round" stroke-linejoin="round" stroke-width="2.2419696677881413"/>
  <path d="M 65.86685946697274, 80.07730812085389 Q 65.46491500822613, 67.99995323135362, 64.30430126256373, 57.04274182227884 " fill="none" id="curve_77" stroke="#000000" stroke-linecap="round" stroke-linejoin="round" stroke-width="2.369077628398847"/>
  <path d="M 41.250442361174755, 38.924288188569506 Q 41.69273343972217, 35.111903847955084, 47.44251007931864, 34.0169048355278 " fill="none" id="curve_92" stroke="#000000" stroke-linecap="round" stroke-linejoin="round" stroke-width="2.2279086724450723"/>
  <path d="M 51.86200838382595, 41.754855427705934 Q 56.4736654190249, 47.1860020257736, 64.25459600120396, 54.64217460416433 " fill="none" id="curve_107" stroke="#000000" stroke-linecap="round" stroke-linejoin="round" stroke-width="2.133127769324113"/>
  <path d="M 65.39962365452944, 79.59170643222178 Q 65.24157607362483, 61.1358883958746, 63.25984806995238, 54.440543818039416 " fill="none" id="curve_108" stroke="#000000" stroke-linecap="round" stroke-linejoin="round" stroke-width="2.2015969615361364"/>
  <path d="M 68.09577009635814, 93.29019261090984 Q 65.4862100509808, 94.72405019074392, 62.93596805096352, 97.87996031346988 " fill="none" id="curve_109" stroke="#000000" stroke-linecap="round" stroke-linejoin="round" stroke-width="4.244898923784186"/>
  <path d="M 66.50022916176333, 73.92605843187008 Q 65.51057099227125, 57.329204750415286, 57.87969401322636, 45.549391123766924 " fill="none" id="curve_110" stroke="#000000" stroke-linecap="round" stroke-linejoin="round" stroke-width="2.316498267640498"/>
  <path d="M 23.7991023874659, 28.69512096796341 Q 20.31582749523035, 35.91703156050769, 14.1118905680674, 45.82011861027874 " fill="none" id="curve_112" stroke="#000000" stroke-linecap="round" stroke-linejoin="round" stroke-width="2.9680686610615683"/>
  <path d="M 67.30005720504619, 65.74524783784003 Q 64.46723862407981, 67.67641323526124, 63.25596889916101, 75.24043618511772 " fill="none" id="curve_127" stroke="#000000" stroke-linecap="round" stroke-linejoin="round" stroke-width="2.731303982913432"/>
  <path d="M 48.18959647749499, 36.94913454049509 Q 48.21485115182501, 35.284767294501556, 48.41930865018198, 34.65222198543225 " fill="none" id="curve_130" stroke="#000000" stroke-linecap="round" stroke-linejoin="round" stroke-width="4.19250525244523"/>
  <path d="M 34.37388002706916, 37.462636328217286 Q 34.44874601917922, 36.867101078768044, 34.55276343690976, 35.95929265268745 " fill="none" id="curve_145" stroke="#000000" stroke-linecap="round" stroke-linejoin="round" stroke-width="3.0988828279298173"/>
</svg>
