<?xml version="1.0" ?>
<svg height="140" width="140" xmlns="http://www.w3.org/2000/svg">
  <path d="M 49.11414813995361, 58.00010108947754 Q 49.195657606240374, 57.196087009209286, 49.75679334469939, 56.877856922620964 " fill="none" id="curve_1" stroke="#000000" stroke-linecap="round" stroke-linejoin="round" stroke-width="5.57874782203419"/>
  <path d="M 49.75679334469939, 56.877856922620964 Q 35.32871477209584, 57.1111284565523, 32.828367985779636, 65.59889893808959 " fill="none" id="curve_1" stroke="#000000" stroke-linecap="round" stroke-linejoin="round" stroke-width="2.923932970518079"/>
  <path d="M 32.828367985779636, 65.59889893808959 Q 25.881521899134448, 69.05296517150697, 21.994712429634244, 83.2010267825853 " fill="none" id="curve_1" stroke="#000000" stroke-linecap="round" stroke-linejoin="round" stroke-width="6.588312015191184"/>
  <path d="M 21.994712429634244, 83.2010267825853 Q 23.24285395325917, 100.14324946911657, 29.37831696484432, 104.72685164103484 " fill="none" id="curve_1" stroke="#000000" stroke-linecap="round" stroke-linejoin="round" stroke-width="6.235964677004194"/>
  <path d="M 29.37831696484432, 104.72685164103484 Q 46.62756510608672, 103.97053574424007, 49.11052252928621, 87.41158655120954 " fill="none" id="curve_1" stroke="#000000" stroke-linecap="round" stroke-linejoin="round" stroke-width="5.399493053376162"/>
  <path d="M 49.11052252928621, 87.41158655120954 Q 51.57424905929731, 84.94233860053997, 52.136217006510876, 60.8457764047302 " fill="none" id="curve_1" stroke="#000000" stroke-linecap="round" stroke-linejoin="round" stroke-width="6.282679961669061"/>
  <path d="M 90.50847641135339, 50.298484291914995 Q 88.89167306010633, 50.869221488204374, 88.76270917019717, 87.98935581116197 " fill="none" id="curve_2" stroke="#000000" stroke-linecap="round" stroke-linejoin="round" stroke-width="3.495514202443235"/>
  <path d="M 88.76270917019717, 87.98935581116197 Q 88.82321862868177, 93.3935922305447, 88.93421996011824, 123.12189341997659 " fill="none" id="curve_2" stroke="#000000" stroke-linecap="round" stroke-linejoin="round" stroke-width="3.442164388001772"/>
  <path d="M 88.93421996011824, 123.12189341997659 Q 88.92840078369397, 133.7973300212901, 88.90960438819656, 138.35348965590617 " fill="none" id="curve_2" stroke="#000000" stroke-linecap="round" stroke-linejoin="round" stroke-width="3.521945551518336"/>
  <path d="M 88.90960438819656, 138.35348965590617 Q 88.6462744319286, 138.35531297048487, 88.12699138117614, 138.3568473092481 " fill="none" id="curve_2" stroke="#000000" stroke-linecap="round" stroke-linejoin="round" stroke-width="2.2873001919223284"/>
  <path d="M 35.54026309345548, 65.65348846681466 Q 29.856443469547173, 67.79791803490511, 22.612198751665495, 72.82043620871735 " fill="none" id="curve_6" stroke="#000000" stroke-linecap="round" stroke-linejoin="round" stroke-width="2.820973750775294"/>
  <path d="M 32.51555814316918, 64.3673957563725 Q 29.533033376545312, 67.77127933832767, 25.168086772243917, 72.46466820698126 " fill="none" id="curve_7" stroke="#000000" stroke-linecap="round" stroke-linejoin="round" stroke-width="3.030123893985197"/>
  <path d="M 39.254733437566685, 99.68888396721891 Q 40.058357838690476, 99.19927678565185, 41.08856714673558, 98.23809176627415 " fill="none" id="curve_8" stroke="#000000" stroke-linecap="round" stroke-linejoin="round" stroke-width="4.954233219919624"/>
  <path d="M 89.67723544100626, 48.28445831990288 Q 88.9092164019223, 47.69160081386486, 88.8237720679104, 20.66858853216789 " fill="none" id="curve_10" stroke="#000000" stroke-linecap="round" stroke-linejoin="round" stroke-width="3.278978147282549"/>
  <path d="M 88.8237720679104, 20.66858853216789 Q 88.83106420009764, 8.758021123346245, 88.86354060377317, 1.7840211575019467 " fill="none" id="curve_10" stroke="#000000" stroke-linecap="round" stroke-linejoin="round" stroke-width="2.8544840977612993"/>
  <path d="M 88.86354060377317, 1.7840211575019467 Q 88.13815119005027, 1.7787576533161198, 87.30299168384383, 1.7716292140953422 " fill="none" id="curve_10" stroke="#000000" stroke-linecap="round" stroke-linejoin="round" stroke-width="3.3936127273096774"/>
  <path d="M 87.63168579908361, 48.42681519143568 Q 88.59016801983456, 49.593224488312586, 88.91677512226971, 56.151701360327706 " fill="none" id="curve_12" stroke="#000000" stroke-linecap="round" stroke-linejoin="round" stroke-width="2.2578415963350076"/>
  <path d="M 54.85698091040653, 68.05078756527324 Q 51.048585784449095, 74.36926832829488, 46.511944521472955, 86.68427352906687 " fill="none" id="curve_13" stroke="#000000" stroke-linecap="round" stroke-linejoin="round" stroke-width="3.3343914825145387"/>
  <path d="M 46.511944521472955, 86.68427352906687 Q 46.491043910911095, 91.45082454855, 46.23767757836952, 92.36971969238046 " fill="none" id="curve_13" stroke="#000000" stroke-linecap="round" stroke-linejoin="round" stroke-width="2.907414884220706"/>
  <path d="M 35.926809213218164, 101.49775523756156 Q 38.20607708599631, 99.90679023379704, 41.840207776822645, 98.4219840764704 " fill="none" id="curve_14" stroke="#000000" stroke-linecap="round" stroke-linejoin="round" stroke-width="2.7414579656125793"/>
  <path d="M 32.19621601408141, 67.65968468348146 Q 27.464470474018498, 67.92071205237157, 25.264331326267232, 69.93535577882778 " fill="none" id="curve_15" stroke="#000000" stroke-linecap="round" stroke-linejoin="round" stroke-width="3.1568731009063793"/>
  <path d="M 53.38539141677657, 60.56604214736321 Q 52.63357324546894, 59.77622831274008, 50.53264167816939, 58.90137872714977 " fill="none" id="curve_18" stroke="#000000" stroke-linecap="round" stroke-linejoin="round" stroke-width="3.2174292514788885"/>
  <path d="M 25.45630174642357, 73.45641961284178 Q 29.656059844813996, 69.73062380938096, 35.96600155869281, 64.85273115919303 " fill="none" id="curve_28" stroke="#000000" stroke-linecap="round" stroke-linejoin="round" stroke-width="2.2146766977814507"/>
  <path d="M 35.96600155869281, 64.85273115919303 Q 35.6869813229778, 65.66356406988145, 35.22334674628211, 66.61420738163145 " fill="none" id="curve_28" stroke="#000000" stroke-linecap="round" stroke-linejoin="round" stroke-width="3.143815035157337"/>
  <path d="M 54.44538116455078, 66.62642478942871 Q 52.35948257157291, 64.47471579021297, 49.02824675966258, 60.57842475575626 " fill="none" id="curve_42" stroke="#000000" stroke-linecap="round" stroke-linejoin="round" stroke-width="2.745644105651394"/>
</svg>
