<?xml version="1.0" ?>
<svg height="140" width="140" xmlns="http://www.w3.org/2000/svg">
  <path d="M 79.58542537689209, 58.09678649902344 Q 81.93434380449129, 57.57916031170957, 82.25860960782197, 47.10550745905209 " fill="none" id="curve_1" stroke="#000000" stroke-linecap="round" stroke-linejoin="round" stroke-width="5.301089427392487"/>
  <path d="M 88.81756078800505, 24.4683130482852 Q 88.7976234381399, 35.56691339021525, 88.70281589982002, 47.134939369574646 " fill="none" id="curve_3" stroke="#000000" stroke-linecap="round" stroke-linejoin="round" stroke-width="3.4913846415803342"/>
  <path d="M 88.70281589982002, 47.134939369574646 Q 88.76879422236935, 51.50034583048163, 88.88919177917843, 71.99440727509528 " fill="none" id="curve_3" stroke="#000000" stroke-linecap="round" stroke-linejoin="round" stroke-width="3.4879029081154234"/>
  <path d="M 88.88919177917843, 71.99440727509528 Q 88.86108337693483, 80.705404372843, 88.73395218835292, 95.62101872445409 " fill="none" id="curve_3" stroke="#000000" stroke-linecap="round" stroke-linejoin="round" stroke-width="3.4797529569181216"/>
  <path d="M 88.73395218835292, 95.62101872445409 Q 88.75629046708036, 100.8309292174556, 88.81533741521493, 119.54037708652173 " fill="none" id="curve_3" stroke="#000000" stroke-linecap="round" stroke-linejoin="round" stroke-width="3.654851712501654"/>
  <path d="M 88.81533741521493, 119.54037708652173 Q 88.76999963825783, 133.83255475147524, 88.55510009528352, 138.8450061307427 " fill="none" id="curve_3" stroke="#000000" stroke-linecap="round" stroke-linejoin="round" stroke-width="3.185010156576576"/>
  <path d="M 88.55510009528352, 138.8450061307427 Q 87.88582513120808, 138.66886321335247, 86.9702148195654, 138.48729385114228 " fill="none" id="curve_3" stroke="#000000" stroke-linecap="round" stroke-linejoin="round" stroke-width="2.4708512709334145"/>
  <path d="M 58.01426194152023, 98.68634184370491 Q 56.35494217654523, 98.71115679685592, 50.54627244409947, 98.73763830871854 " fill="none" id="curve_4" stroke="#000000" stroke-linecap="round" stroke-linejoin="round" stroke-width="5.283535479174188"/>
  <path d="M 50.54627244409947, 98.73763830871854 Q 38.59292481219697, 98.12014172015938, 36.114486520918724, 89.35587558167104 " fill="none" id="curve_4" stroke="#000000" stroke-linecap="round" stroke-linejoin="round" stroke-width="5.092354744935382"/>
  <path d="M 36.114486520918724, 89.35587558167104 Q 35.71262658362554, 82.88004492431156, 34.62348290575609, 79.72081908875931 " fill="none" id="curve_4" stroke="#000000" stroke-linecap="round" stroke-linejoin="round" stroke-width="4.728169894736581"/>
  <path d="M 34.62348290575609, 79.72081908875931 Q 35.939118398582835, 65.41654911907686, 45.18794647025707, 50.6247683224058 " fill="none" id="curve_4" stroke="#000000" stroke-linecap="round" stroke-linejoin="round" stroke-width="4.674793856927018"/>
  <path d="M 45.18794647025707, 50.6247683224058 Q 48.86016497250927, 39.48438965938057, 62.20658616128476, 26.44669275716445 " fill="none" id="curve_4" stroke="#000000" stroke-linecap="round" stroke-linejoin="round" stroke-width="4.354340591097235"/>
  <path d="M 62.20658616128476, 26.44669275716445 Q 74.20163795273086, 26.880297838283948, 75.06120121036305, 46.85422771849492 " fill="none" id="curve_4" stroke="#000000" stroke-linecap="round" stroke-linejoin="round" stroke-width="4.809447808207187"/>
  <path d="M 75.06120121036305, 46.85422771849492 Q 74.86445437498236, 62.075617615749806, 73.29669337041604, 78.56942913309815 " fill="none" id="curve_4" stroke="#000000" stroke-linecap="round" stroke-linejoin="round" stroke-width="5.504975420819274"/>
  <path d="M 73.29669337041604, 78.56942913309815 Q 70.17596262451026, 90.85981093285721, 58.613287726828716, 97.36876491301061 " fill="none" id="curve_4" stroke="#000000" stroke-linecap="round" stroke-linejoin="round" stroke-width="4.752977408525814"/>
  <path d="M 76.48529532155472, 74.09185433156429 Q 78.20754487536546, 65.6052059385721, 81.66303183352807, 58.629770815171526 " fill="none" id="curve_5" stroke="#000000" stroke-linecap="round" stroke-linejoin="round" stroke-width="5.091659856910429"/>
  <path d="M 90.41934481748343, 23.013621459877896 Q 88.76435010922134, 22.333120421623956, 88.57690451043463, 1.046582069636493 " fill="none" id="curve_6" stroke="#000000" stroke-linecap="round" stroke-linejoin="round" stroke-width="3.5574137853845214"/>
  <path d="M 67.88205067556191, 25.288654701903585 Q 62.29338726542538, 27.088636769416873, 54.952025519677875, 32.00052726297584 " fill="none" id="curve_7" stroke="#000000" stroke-linecap="round" stroke-linejoin="round" stroke-width="2.4944866178484255"/>
  <path d="M 69.60209697656339, 85.64779036071336 Q 66.97495342202406, 93.41085431676154, 54.692045487909745, 97.66609325155716 " fill="none" id="curve_15" stroke="#000000" stroke-linecap="round" stroke-linejoin="round" stroke-width="3.220470415482167"/>
  <path d="M 68.34185125203493, 85.38366667217122 Q 70.86161341296832, 81.86192030484168, 74.30318478202805, 75.52766653640384 " fill="none" id="curve_16" stroke="#000000" stroke-linecap="round" stroke-linejoin="round" stroke-width="3.2255583594612194"/>
  <path d="M 74.30318478202805, 75.52766653640384 Q 73.18868102742563, 75.60047393956452, 72.1912843392474, 75.76047161125055 " fill="none" id="curve_16" stroke="#000000" stroke-linecap="round" stroke-linejoin="round" stroke-width="5.365765673070727"/>
  <path d="M 46.88281781356779, 46.32091981452838 Q 48.09133889758532, 43.69803982378294, 50.94578807516022, 39.87745463610462 " fill="none" id="curve_18" stroke="#000000" stroke-linecap="round" stroke-linejoin="round" stroke-width="2.833362686753807"/>
  <path d="M 50.94578807516022, 39.87745463610462 Q 47.62833498684354, 45.64598842149711, 41.85538236828553, 53.898693149337674 " fill="none" id="curve_18" stroke="#000000" stroke-linecap="round" stroke-linejoin="round" stroke-width="2.935748050905536"/>
  <path d="M 88.08152572331463, 2.673722850379864 Q 87.80410710863983, 2.6163893264138918, 87.45043761665409, 2.524136594690538 " fill="none" id="curve_22" stroke="#000000" stroke-linecap="round" stroke-linejoin="round" stroke-width="3.9095873290390997"/>
  <path d="M 69.04937770657749, 26.51456261753954 Q 63.32164891600817, 27.73584620390608, 55.69595864753192, 31.242317204425902 " fill="none" id="curve_23" stroke="#000000" stroke-linecap="round" stroke-linejoin="round" stroke-width="2.6487453234204783"/>
  <path d="M 71.94370343676124, 35.17106968485407 Q 72.67794246596273, 38.210148411842034, 73.963787504973, 42.134668190841744 " fill="none" id="curve_25" stroke="#000000" stroke-linecap="round" stroke-linejoin="round" stroke-width="2.1543094944694587"/>
  <path d="M 88.51265441939107, 23.78664088445433 Q 88.55211351225243, 21.841079722685745, 88.6211025012102, 19.455318369879574 " fill="none" id="curve_42" stroke="#000000" stroke-linecap="round" stroke-linejoin="round" stroke-width="2.2216842292806325"/>
  <path d="M 45.22434519701502, 99.4338082783264 Q 46.09771245478225, 99.7894720811938, 47.97761794199795, 100.20759081997689 " fill="none" id="curve_64" stroke="#000000" stroke-linecap="round" stroke-linejoin="round" stroke-width="3.5717573153321087"/>
  <path d="M 47.97761794199795, 100.20759081997689 Q 44.34716852732704, 97.55232092279621, 36.51621196749967, 94.95906399460513 " fill="none" id="curve_64" stroke="#000000" stroke-linecap="round" stroke-linejoin="round" stroke-width="2.7814249027698077"/>
  <path d="M 75.62983563597885, 77.11246112174871 Q 75.52607065364477, 74.09544962724895, 75.11859037030132, 70.77315796998418 " fill="none" id="curve_105" stroke="#000000" stroke-linecap="round" stroke-linejoin="round" stroke-width="1.9286815910663313"/>
  <path d="M 75.11859037030132, 70.77315796998418 Q 77.62145702723038, 64.11463997765937, 83.27569727330143, 54.12460568412749 " fill="none" id="curve_105" stroke="#000000" stroke-linecap="round" stroke-linejoin="round" stroke-width="2.622081751813905"/>
  <path d="M 73.60441845507415, 69.78952030729904 Q 77.87412290877387, 67.32798283181597, 80.52538892813456, 59.77608000496052 " fill="none" id="curve_106" stroke="#000000" stroke-linecap="round" stroke-linejoin="round" stroke-width="3.2102459674960935"/>
  <path d="M 72.11632246427375, 71.43494758998622 Q 72.33703448600217, 63.762613320559716, 78.96039105236342, 62.45336401579547 " fill="none" id="curve_134" stroke="#000000" stroke-linecap="round" stroke-linejoin="round" stroke-width="2.7525869251464767"/>
  <path d="M 66.52324443975, 26.73908431323696 Q 69.61163644740267, 27.086750091405342, 71.48425688675611, 28.379248394250247 " fill="none" id="curve_137" stroke="#000000" stroke-linecap="round" stroke-linejoin="round" stroke-width="2.160026842524119"/>
  <path d="M 53.88996521088812, 33.44116693118362 Q 54.06509587285867, 32.99548317105559, 54.48535345102822, 32.3059838781401 " fill="none" id="curve_168" stroke="#000000" stroke-linecap="round" stroke-linejoin="round" stroke-width="2.385158322765677"/>
  <path d="M 44.695186363230526, 49.149488283217714 Q 47.83712124579516, 46.55554084107983, 50.281947118418, 41.047031971660225 " fill="none" id="curve_171" stroke="#000000" stroke-linecap="round" stroke-linejoin="round" stroke-width="2.7606991685921596"/>
  <path d="M 45.400131019805116, 46.72259135127403 Q 48.06984615633653, 45.327327091523934, 50.05283666097305, 42.08709994195137 " fill="none" id="curve_175" stroke="#000000" stroke-linecap="round" stroke-linejoin="round" stroke-width="3.204724751838898"/>
</svg>
