<?xml version="1.0" ?>
<svg height="140" width="140" xmlns="http://www.w3.org/2000/svg">
  <path d="M 36.51390572962055, 65.05583619782834 Q 37.44830291779899, 64.5258749220065, 41.37790466720783, 63.80293808208479 " fill="none" id="curve_2" stroke="#000000" stroke-linecap="round" stroke-linejoin="round" stroke-width="3.5351931343194622"/>
  <path d="M 41.37790466720783, 63.80293808208479 Q 53.56643624666486, 65.53481339210983, 59.703824247682654, 78.76073031903941 " fill="none" id="curve_2" stroke="#000000" stroke-linecap="round" stroke-linejoin="round" stroke-width="4.250996183494481"/>
  <path d="M 62.94391073632519, 89.25079415959632 Q 63.04508554372721, 98.83762739432362, 63.59723837102974, 101.83159432096235 " fill="none" id="curve_3" stroke="#000000" stroke-linecap="round" stroke-linejoin="round" stroke-width="5.715497412638745"/>
  <path d="M 63.59723837102974, 101.83159432096235 Q 59.391628451378345, 113.95815528781935, 39.05991817890195, 125.63576713453212 " fill="none" id="curve_3" stroke="#000000" stroke-linecap="round" stroke-linejoin="round" stroke-width="5.266819138063275"/>
  <path d="M 39.05991817890195, 125.63576713453212 Q 38.35274872176673, 127.14418044043686, 23.414701784511795, 127.24426599697192 " fill="none" id="curve_3" stroke="#000000" stroke-linecap="round" stroke-linejoin="round" stroke-width="5.031287096282249"/>
  <path d="M 23.414701784511795, 127.24426599697192 Q 14.949371034947234, 126.07529444110183, 13.335029971489961, 113.24599897013977 " fill="none" id="curve_3" stroke="#000000" stroke-linecap="round" stroke-linejoin="round" stroke-width="4.913880031023283"/>
  <path d="M 13.335029971489961, 113.24599897013977 Q 14.412961187233146, 99.43683112256531, 21.173071939297955, 83.08173862707227 " fill="none" id="curve_3" stroke="#000000" stroke-linecap="round" stroke-linejoin="round" stroke-width="5.239723862740764"/>
  <path d="M 21.173071939297955, 83.08173862707227 Q 22.697330522037635, 74.82522794220766, 28.444152440938026, 70.91425301379104 " fill="none" id="curve_3" stroke="#000000" stroke-linecap="round" stroke-linejoin="round" stroke-width="4.932568715406123"/>
  <path d="M 35.24271511435376, 68.74853508502576 Q 34.832460289108894, 69.10778277320665, 34.517260004343925, 69.7581370052924 " fill="none" id="curve_4" stroke="#000000" stroke-linecap="round" stroke-linejoin="round" stroke-width="6.91223959354933"/>
  <path d="M 62.66679738094213, 86.23171638612135 Q 62.51155310361287, 85.73090978330217, 62.41828030869904, 83.21941208906202 " fill="none" id="curve_5" stroke="#000000" stroke-linecap="round" stroke-linejoin="round" stroke-width="3.076193347051561"/>
  <path d="M 87.80604432973972, 71.2895112443757 Q 89.8048879167018, 73.08558006557172, 90.18050215471834, 110.99820236373989 " fill="none" id="curve_6" stroke="#000000" stroke-linecap="round" stroke-linejoin="round" stroke-width="2.026423516609967"/>
  <path d="M 90.18050215471834, 110.99820236373989 Q 89.9936697086113, 128.02770780435287, 89.4094853117016, 137.65727845710248 " fill="none" id="curve_6" stroke="#000000" stroke-linecap="round" stroke-linejoin="round" stroke-width="2.0779926358992236"/>
  <path d="M 58.58523941817612, 106.6870349712494 Q 61.6532734160895, 103.62322480004816, 65.0639775452888, 97.80100875008428 " fill="none" id="curve_7" stroke="#000000" stroke-linecap="round" stroke-linejoin="round" stroke-width="3.9142665558262264"/>
  <path d="M 65.0639775452888, 97.80100875008428 Q 62.17252986554505, 96.41563887143928, 61.28541191375536, 83.53330373476071 " fill="none" id="curve_7" stroke="#000000" stroke-linecap="round" stroke-linejoin="round" stroke-width="2.486952082856452"/>
  <path d="M 61.19170654217345, 79.08788233440237 Q 61.02209186863558, 79.19038910684388, 60.81434075355477, 79.41026875566898 " fill="none" id="curve_8" stroke="#000000" stroke-linecap="round" stroke-linejoin="round" stroke-width="2.46645482571337"/>
  <path d="M 89.36285559811512, 68.99881469825448 Q 89.69489691298544, 68.14388409426293, 89.7540002627892, 52.427830118515885 " fill="none" id="curve_9" stroke="#000000" stroke-linecap="round" stroke-linejoin="round" stroke-width="1.6886295384985444"/>
  <path d="M 89.7540002627892, 52.427830118515885 Q 89.74214393997693, 48.17240588175669, 89.72818230080938, 36.82192588544166 " fill="none" id="curve_9" stroke="#000000" stroke-linecap="round" stroke-linejoin="round" stroke-width="1.5639042723721408"/>
  <path d="M 89.72818230080938, 36.82192588544166 Q 89.70871064637622, 33.408185703739605, 89.68906786469974, 23.203920072289037 " fill="none" id="curve_9" stroke="#000000" stroke-linecap="round" stroke-linejoin="round" stroke-width="1.4866800308205577"/>
  <path d="M 89.68906786469974, 23.203920072289037 Q 89.66148774377548, 20.628205063702595, 89.63968281205203, 9.616495237845598 " fill="none" id="curve_9" stroke="#000000" stroke-linecap="round" stroke-linejoin="round" stroke-width="1.4293953558718857"/>
  <path d="M 89.63968281205203, 9.616495237845598 Q 89.39837435212475, 5.7051510560216006, 89.00742857522893, 0.9536320065345638 " fill="none" id="curve_9" stroke="#000000" stroke-linecap="round" stroke-linejoin="round" stroke-width="2.1876241186971264"/>
  <path d="M 64.38199341881483, 90.49712134954365 Q 61.484097101277136, 92.97735987439638, 60.39403109890593, 107.86020472480219 " fill="none" id="curve_16" stroke="#000000" stroke-linecap="round" stroke-linejoin="round" stroke-width="2.6810646258784945"/>
  <path d="M 60.39403109890593, 107.86020472480219 Q 53.5604924283828, 113.01920647674022, 45.23591365633479, 122.68768339275394 " fill="none" id="curve_16" stroke="#000000" stroke-linecap="round" stroke-linejoin="round" stroke-width="4.180951943643788"/>
  <path d="M 12.278947265877003, 105.39524468585194 Q 13.604422120404235, 99.19393425299614, 18.02702349364866, 94.48746514527393 " fill="none" id="curve_18" stroke="#000000" stroke-linecap="round" stroke-linejoin="round" stroke-width="2.667975412132736"/>
  <path d="M 49.48940109648359, 63.99945313015429 Q 49.06349500651549, 64.56264616053264, 47.62102499178727, 65.22472813466075 " fill="none" id="curve_19" stroke="#000000" stroke-linecap="round" stroke-linejoin="round" stroke-width="2.446470670687237"/>
  <path d="M 47.62102499178727, 65.22472813466075 Q 54.558316359940164, 68.03580602707659, 57.60917153438122, 76.58963815738421 " fill="none" id="curve_19" stroke="#000000" stroke-linecap="round" stroke-linejoin="round" stroke-width="2.7772893775308107"/>
  <path d="M 57.60917153438122, 76.58963815738421 Q 55.52486229439628, 70.95873501488734, 49.55236841348238, 66.13933016579385 " fill="none" id="curve_19" stroke="#000000" stroke-linecap="round" stroke-linejoin="round" stroke-width="2.525135271764686"/>
  <path d="M 33.09393122602497, 70.1454829156298 Q 32.67573755234774, 70.08958183934764, 32.11344698600454, 69.98724941587396 " fill="none" id="curve_25" stroke="#000000" stroke-linecap="round" stroke-linejoin="round" stroke-width="2.44209766256163"/>
  <path d="M 61.11694928134439, 94.2331876696699 Q 61.92272316425904, 93.48895064741397, 62.23495991581941, 88.87622109376044 " fill="none" id="curve_30" stroke="#000000" stroke-linecap="round" stroke-linejoin="round" stroke-width="2.816192306200686"/>
  <path d="M 57.744440100918766, 75.107529968287 Q 54.722505788818935, 72.40517641541702, 49.6028053854018, 67.64285613310494 " fill="none" id="curve_37" stroke="#000000" stroke-linecap="round" stroke-linejoin="round" stroke-width="2.0758481971360707"/>
  <path d="M 34.543769011696945, 67.41695046821627 Q 34.555386824495706, 66.63580019347908, 34.5837607215303, 65.94174741642752 " fill="none" id="curve_39" stroke="#000000" stroke-linecap="round" stroke-linejoin="round" stroke-width="2.681501034411538"/>
  <path d="M 43.09927110510452, 124.99128125812592 Q 43.01052477521944, 124.87125239888306, 42.90331195380281, 124.68334452698313 " fill="none" id="curve_54" stroke="#000000" stroke-linecap="round" stroke-linejoin="round" stroke-width="3.372724155422077"/>
  <path d="M 14.668952737438067, 115.09648659299202 Q 14.625030375724473, 114.01826170481391, 14.564225006221792, 112.2999444476967 " fill="none" id="curve_56" stroke="#000000" stroke-linecap="round" stroke-linejoin="round" stroke-width="3.5244267748432123"/>
  <path d="M 61.154313933274025, 79.6060169836334 Q 60.91772403679697, 76.6079851655732, 58.13650367536047, 75.80576264021562 " fill="none" id="curve_75" stroke="#000000" stroke-linecap="round" stroke-linejoin="round" stroke-width="2.049255217819075"/>
  <path d="M 48.8553517243522, 119.46685056712676 Q 49.6144089688368, 119.35955441519059, 50.37081019810635, 119.19215393348763 " fill="none" id="curve_117" stroke="#000000" stroke-linecap="round" stroke-linejoin="round" stroke-width="4.847594181873744"/>
  <path d="M 89.8505120080501, 72.30529596760627 Q 89.72500632606528, 70.9309714897767, 89.13830692317771, 70.30419318422193 " fill="none" id="curve_122" stroke="#000000" stroke-linecap="round" stroke-linejoin="round" stroke-width="1.7836011119665531"/>
  <path d="M 88.48844000353573, 139.05377147627507 Q 89.0309701878637, 138.9124247954403, 89.556628596116, 138.50683722988362 " fill="none" id="curve_156" stroke="#000000" stroke-linecap="round" stroke-linejoin="round" stroke-width="1.6027379547486453"/>
  <path d="M 55.76170052409098, 73.17838131089968 Q 55.808212967344495, 70.97767534748246, 56.12040042696447, 70.38917207905166 " fill="none" id="curve_184" stroke="#000000" stroke-linecap="round" stroke-linejoin="round" stroke-width="2.5100939503121795"/>
  <path d="M 18.024755866910812, 94.50447423414644 Q 19.368141151051816, 89.35937820671316, 20.901672448448952, 81.36601388629842 " fill="none" id="curve_193" stroke="#000000" stroke-linecap="round" stroke-linejoin="round" stroke-width="2.806078637412168"/>
  <path d="M 21.76902667478821, 124.7661920433338 Q 16.80981989496667, 123.00198481298104, 13.052867542970239, 118.67688766727818 " fill="none" id="curve_195" stroke="#000000" stroke-linecap="round" stroke-linejoin="round" stroke-width="2.9582535502400584"/>
</svg>
