<?xml version="1.0" ?>
<svg height="140" width="140" xmlns="http://www.w3.org/2000/svg">
  <path d="M 42.804656689362474, 36.15418844988113 Q 34.567889809600885, 38.6313686204448, 22.56318172576626, 58.196928575291636 " fill="none" id="curve_2" stroke="#000000" stroke-linecap="round" stroke-linejoin="round" stroke-width="4.536350053390534"/>
  <path d="M 22.56318172576626, 58.196928575291636 Q 18.308582320586165, 64.9196864712196, 12.00450517023396, 88.03009642902444 " fill="none" id="curve_2" stroke="#000000" stroke-linecap="round" stroke-linejoin="round" stroke-width="5.606979906745776"/>
  <path d="M 12.00450517023396, 88.03009642902444 Q 12.293904994854572, 104.14503431507549, 20.19617730925303, 105.10169604317369 " fill="none" id="curve_2" stroke="#000000" stroke-linecap="round" stroke-linejoin="round" stroke-width="5.147874240992082"/>
  <path d="M 20.19617730925303, 105.10169604317369 Q 41.18734981069461, 103.84413743976921, 51.869099158827304, 84.48998055913223 " fill="none" id="curve_2" stroke="#000000" stroke-linecap="round" stroke-linejoin="round" stroke-width="5.070631383868484"/>
  <path d="M 51.869099158827304, 84.48998055913223 Q 58.407339741536255, 79.82060388923712, 62.064459697895046, 62.13760204019443 " fill="none" id="curve_2" stroke="#000000" stroke-linecap="round" stroke-linejoin="round" stroke-width="4.8391684875960905"/>
  <path d="M 62.064459697895046, 62.13760204019443 Q 61.869403553166435, 49.695966973517926, 60.95642264416414, 44.66508959752434 " fill="none" id="curve_2" stroke="#000000" stroke-linecap="round" stroke-linejoin="round" stroke-width="4.072712986943523"/>
  <path d="M 48.91959605434473, 36.94784865747784 Q 46.89593604068387, 36.16237386313453, 41.36604647882223, 35.556505058595675 " fill="none" id="curve_3" stroke="#000000" stroke-linecap="round" stroke-linejoin="round" stroke-width="3.4141294354094462"/>
  <path d="M 41.36604647882223, 35.556505058595675 Q 32.272121633657235, 40.82830555499373, 23.39184459158147, 54.454397950183456 " fill="none" id="curve_3" stroke="#000000" stroke-linecap="round" stroke-linejoin="round" stroke-width="3.31320568349984"/>
  <path d="M 23.39184459158147, 54.454397950183456 Q 20.033093055487527, 61.88187929214463, 15.381344459856486, 69.95681113478139 " fill="none" id="curve_3" stroke="#000000" stroke-linecap="round" stroke-linejoin="round" stroke-width="2.841751645427242"/>
  <path d="M 27.802515073243182, 103.31456401271164 Q 41.13187993549012, 100.21169141474165, 48.53244309604225, 88.14284133638787 " fill="none" id="curve_5" stroke="#000000" stroke-linecap="round" stroke-linejoin="round" stroke-width="2.8850393760221547"/>
  <path d="M 29.394617576353788, 103.53895219248727 Q 20.88649335615522, 103.16426234546827, 15.941487137959587, 101.94525237875085 " fill="none" id="curve_6" stroke="#000000" stroke-linecap="round" stroke-linejoin="round" stroke-width="3.4015919860512844"/>
  <path d="M 14.799824403460757, 89.31810433827104 Q 14.053994397998787, 90.27290234227759, 12.721257299614447, 92.14170294988229 " fill="none" id="curve_8" stroke="#000000" stroke-linecap="round" stroke-linejoin="round" stroke-width="3.0878517526036404"/>
  <path d="M 39.81805411049223, 97.26525141607388 Q 48.90590902935023, 90.82366732229616, 58.66341664040214, 76.2622600474283 " fill="none" id="curve_9" stroke="#000000" stroke-linecap="round" stroke-linejoin="round" stroke-width="3.1697324582890936"/>
  <path d="M 53.03854811552266, 82.44204053265851 Q 55.25294602265577, 78.28102095998156, 58.9825770402957, 73.54476665299752 " fill="none" id="curve_11" stroke="#000000" stroke-linecap="round" stroke-linejoin="round" stroke-width="2.9819783789521077"/>
  <path d="M 63.8871159302646, 53.304959708524095 Q 61.07936994322466, 56.45670853422731, 59.507557250440314, 66.03945238264998 " fill="none" id="curve_12" stroke="#000000" stroke-linecap="round" stroke-linejoin="round" stroke-width="2.904874211810584"/>
  <path d="M 40.77316977543998, 97.5792115477483 Q 33.799022070153214, 98.87065125913973, 30.57293931001559, 103.97816954280961 " fill="none" id="curve_13" stroke="#000000" stroke-linecap="round" stroke-linejoin="round" stroke-width="3.337919045341169"/>
  <path d="M 40.96960482741875, 37.49775256459537 Q 40.60315175060407, 40.45271420131581, 35.978477587472156, 40.86840718080543 " fill="none" id="curve_16" stroke="#000000" stroke-linecap="round" stroke-linejoin="round" stroke-width="3.1382754570431723"/>
  <path d="M 43.807032168431206, 34.27251975179678 Q 43.12248361366481, 34.803507757589216, 42.0051427252609, 35.48553343557202 " fill="none" id="curve_17" stroke="#000000" stroke-linecap="round" stroke-linejoin="round" stroke-width="3.2998130190533796"/>
  <path d="M 56.69195042705971, 76.24911602057227 Q 52.68103281392077, 80.60755281902625, 47.50432911304473, 88.04725414696722 " fill="none" id="curve_71" stroke="#000000" stroke-linecap="round" stroke-linejoin="round" stroke-width="2.6373953526528973"/>
  <path d="M 12.845000626017026, 80.92285043395478 Q 13.511916956047902, 75.69220668343456, 16.291207902924924, 72.5595367445021 " fill="none" id="curve_113" stroke="#000000" stroke-linecap="round" stroke-linejoin="round" stroke-width="3.3648212462914655"/>
  <path d="M 11.572608956647471, 90.37671515696401 Q 11.295018207836472, 92.58743912884073, 10.853922395639724, 96.47624570799589 " fill="none" id="curve_119" stroke="#000000" stroke-linecap="round" stroke-linejoin="round" stroke-width="2.9917412128726006"/>
</svg>
