<?xml version="1.0" ?>
<svg height="140" width="140" xmlns="http://www.w3.org/2000/svg">
  <path d="M 88.38977896539018, 138.23471126601453 Q 88.27989787914045, 134.5908311150522, 88.18175813256308, 115.0690691203744 " fill="none" id="curve_2" stroke="#000000" stroke-linecap="round" stroke-linejoin="round" stroke-width="4.1021698141058485"/>
  <path d="M 88.18175813256308, 115.0690691203744 Q 88.5655834115748, 112.24225353629586, 88.7897196820026, 90.05961728404391 " fill="none" id="curve_2" stroke="#000000" stroke-linecap="round" stroke-linejoin="round" stroke-width="3.7096703923225753"/>
  <path d="M 88.7897196820026, 90.05961728404391 Q 88.77224093168378, 84.08608528507048, 88.74632170569278, 63.83031230842331 " fill="none" id="curve_2" stroke="#000000" stroke-linecap="round" stroke-linejoin="round" stroke-width="3.292822553036777"/>
  <path d="M 88.74632170569278, 63.83031230842331 Q 88.68535669417349, 55.56988555976771, 88.53213920726036, 36.26572384171398 " fill="none" id="curve_2" stroke="#000000" stroke-linecap="round" stroke-linejoin="round" stroke-width="3.6750828767168926"/>
  <path d="M 88.53213920726036, 36.26572384171398 Q 88.60991006265014, 31.536126476415298, 88.67358245296592, 10.640339530059826 " fill="none" id="curve_2" stroke="#000000" stroke-linecap="round" stroke-linejoin="round" stroke-width="3.624016097926731"/>
  <path d="M 88.67358245296592, 10.640339530059826 Q 88.54903991063703, 3.759869098307572, 87.65161279516339, 2.4583455361741233 " fill="none" id="curve_2" stroke="#000000" stroke-linecap="round" stroke-linejoin="round" stroke-width="5.424180600524698"/>
  <path d="M 87.65161279516339, 2.4583455361741233 Q 86.93032170122059, 2.570469958615886, 86.21597858691713, 2.727208293589605 " fill="none" id="curve_2" stroke="#000000" stroke-linecap="round" stroke-linejoin="round" stroke-width="4.579012779565579"/>
  <path d="M 37.86093158996961, 77.64257972809258 Q 31.856701022216853, 79.42693349191146, 29.345698299635494, 89.8281128048181 " fill="none" id="curve_6" stroke="#000000" stroke-linecap="round" stroke-linejoin="round" stroke-width="5.940557602150464"/>
  <path d="M 29.345698299635494, 89.8281128048181 Q 31.102093380808874, 102.4510779726559, 38.72493535051056, 106.51500040622449 " fill="none" id="curve_6" stroke="#000000" stroke-linecap="round" stroke-linejoin="round" stroke-width="5.395861821025934"/>
  <path d="M 38.72493535051056, 106.51500040622449 Q 50.511297833677936, 106.44677765698745, 51.04210545446374, 98.80050953756401 " fill="none" id="curve_6" stroke="#000000" stroke-linecap="round" stroke-linejoin="round" stroke-width="4.93073692205788"/>
  <path d="M 51.04210545446374, 98.80050953756401 Q 51.98099561610138, 93.7450088352228, 53.39912080376462, 89.0599600833282 " fill="none" id="curve_6" stroke="#000000" stroke-linecap="round" stroke-linejoin="round" stroke-width="5.270677322674966"/>
  <path d="M 53.39912080376462, 89.0599600833282 Q 53.11589251061468, 78.29001687762648, 40.0644493544698, 77.48899530745017 " fill="none" id="curve_6" stroke="#000000" stroke-linecap="round" stroke-linejoin="round" stroke-width="5.28078273673646"/>
  <path d="M 31.65696064190548, 95.5350653892001 Q 32.868878705433666, 83.89248190138717, 37.730825280859136, 76.00764034094183 " fill="none" id="curve_8" stroke="#000000" stroke-linecap="round" stroke-linejoin="round" stroke-width="2.240518196861985"/>
  <path d="M 37.730825280859136, 76.00764034094183 Q 39.84447186634448, 76.10408394669143, 41.599942484326355, 76.29894030287069 " fill="none" id="curve_8" stroke="#000000" stroke-linecap="round" stroke-linejoin="round" stroke-width="3.4736013032438846"/>
  <path d="M 36.86022625138713, 106.26432919198054 Q 35.307618423379765, 105.48570893596555, 33.646993786247656, 104.23735188999306 " fill="none" id="curve_10" stroke="#000000" stroke-linecap="round" stroke-linejoin="round" stroke-width="5.2197617624850166"/>
  <path d="M 88.62256371418941, 137.36386268655792 Q 88.64747985966366, 130.5388916260764, 88.76647343297326, 124.74167691638327 " fill="none" id="curve_13" stroke="#000000" stroke-linecap="round" stroke-linejoin="round" stroke-width="2.0421705644937718"/>
  <path d="M 87.92378514859145, 43.03005316913432 Q 87.6256939112842, 40.205837760139524, 87.40873170998212, 30.227699272703134 " fill="none" id="curve_16" stroke="#000000" stroke-linecap="round" stroke-linejoin="round" stroke-width="2.320796391646828"/>
  <path d="M 87.67111180538183, 11.990430557680838 Q 87.50633414348016, 10.778416415365806, 87.38512303739971, 7.581197537525082 " fill="none" id="curve_17" stroke="#000000" stroke-linecap="round" stroke-linejoin="round" stroke-width="3.061523066945438"/>
  <path d="M 86.91143900754378, 53.351104174101145 Q 87.28492621321047, 57.23856895742961, 87.58656408601632, 63.93087299602522 " fill="none" id="curve_19" stroke="#000000" stroke-linecap="round" stroke-linejoin="round" stroke-width="2.527851149595285"/>
  <path d="M 87.65736963572965, 85.64325169195982 Q 87.56230644969791, 85.72355419950863, 87.49727300474434, 85.93060343243963 " fill="none" id="curve_20" stroke="#000000" stroke-linecap="round" stroke-linejoin="round" stroke-width="4.18882451653004"/>
  <path d="M 43.86695187176351, 75.15259690717119 Q 41.78347842443917, 75.50697614822856, 37.17501112477827, 75.89349697541498 " fill="none" id="curve_22" stroke="#000000" stroke-linecap="round" stroke-linejoin="round" stroke-width="2.9737280769915007"/>
  <path d="M 46.30467718410282, 105.34359596505723 Q 42.25237472358927, 105.1099549181101, 38.07154688732944, 104.30399218868158 " fill="none" id="curve_23" stroke="#000000" stroke-linecap="round" stroke-linejoin="round" stroke-width="2.4422734946558187"/>
  <path d="M 50.01921496505018, 98.62815594968862 Q 48.54497990097806, 102.13702674252808, 45.87571918644153, 105.84910455909574 " fill="none" id="curve_25" stroke="#000000" stroke-linecap="round" stroke-linejoin="round" stroke-width="3.727966048948957"/>
  <path d="M 49.705879004101426, 82.53643404329789 Q 50.69907829688923, 86.45886392663328, 52.39303243928046, 90.37049427415658 " fill="none" id="curve_27" stroke="#000000" stroke-linecap="round" stroke-linejoin="round" stroke-width="2.03863705387692"/>
  <path d="M 28.64192453538162, 95.35894950462496 Q 30.219282416311152, 95.60920832468645, 32.49941400494361, 95.96825718123176 " fill="none" id="curve_29" stroke="#000000" stroke-linecap="round" stroke-linejoin="round" stroke-width="3.1738655626074608"/>
  <path d="M 87.91227464719235, 138.42189830495929 Q 88.05368998869336, 138.08184400494193, 88.48308209402191, 137.8045002987002 " fill="none" id="curve_34" stroke="#000000" stroke-linecap="round" stroke-linejoin="round" stroke-width="2.6337212247189656"/>
  <path d="M 87.68453011993049, 101.9637340641289 Q 87.48621959801908, 102.03994280014355, 87.32371360545797, 102.19521633085816 " fill="none" id="curve_36" stroke="#000000" stroke-linecap="round" stroke-linejoin="round" stroke-width="3.4924230884456575"/>
  <path d="M 88.39960396629303, 122.79221855279421 Q 88.26382829685481, 119.88105387558042, 88.07270038127537, 116.20206509055367 " fill="none" id="curve_37" stroke="#000000" stroke-linecap="round" stroke-linejoin="round" stroke-width="2.7334505847737085"/>
  <path d="M 87.40085547093025, 138.69624730953956 Q 87.67306836863939, 138.51190538859518, 88.18143821463185, 138.30393983256064 " fill="none" id="curve_45" stroke="#000000" stroke-linecap="round" stroke-linejoin="round" stroke-width="2.3840871618848034"/>
  <path d="M 86.33032270271623, 106.5762850045405 Q 87.98400831075854, 109.22524770440049, 88.90599310018123, 118.13156652799717 " fill="none" id="curve_46" stroke="#000000" stroke-linecap="round" stroke-linejoin="round" stroke-width="2.2809228146904115"/>
  <path d="M 89.03917443738669, 118.07826510362739 Q 88.31142686268929, 123.22231023720695, 87.13000162341824, 127.59678628809212 " fill="none" id="curve_48" stroke="#000000" stroke-linecap="round" stroke-linejoin="round" stroke-width="2.612768041401523"/>
  <path d="M 87.58122115519757, 29.19944455012983 Q 87.5881478106763, 28.557202167979256, 87.59982673790115, 27.93923891927146 " fill="none" id="curve_64" stroke="#000000" stroke-linecap="round" stroke-linejoin="round" stroke-width="3.646428603125618"/>
  <path d="M 86.32813101625815, 18.14380271553696 Q 86.98016733692045, 17.630620970440983, 88.44886986627999, 17.03563829866326 " fill="none" id="curve_72" stroke="#000000" stroke-linecap="round" stroke-linejoin="round" stroke-width="2.1164052526428723"/>
  <path d="M 88.57611009906499, 49.502025438693735 Q 88.10719791722126, 51.31702404476143, 86.22431745398434, 52.11700970906509 " fill="none" id="curve_89" stroke="#000000" stroke-linecap="round" stroke-linejoin="round" stroke-width="2.8567819848038107"/>
  <path d="M 88.08534943695054, 41.43555365436465 Q 87.75580713525225, 40.77745761141565, 87.36753490954402, 39.95000530435836 " fill="none" id="curve_90" stroke="#000000" stroke-linecap="round" stroke-linejoin="round" stroke-width="3.663824968602175"/>
</svg>
