<?xml version="1.0" ?>
<svg height="140" width="140" xmlns="http://www.w3.org/2000/svg">
  <path d="M 37.26095777750015, 37.79248762130737 Q 33.2327025394724, 41.06238098671189, 29.916826322603924, 49.73109709413279 " fill="none" id="curve_1" stroke="#000000" stroke-linecap="round" stroke-linejoin="round" stroke-width="5.3431583065495"/>
  <path d="M 29.916826322603924, 49.73109709413279 Q 19.350867938348884, 50.05061568436236, 18.322744509456847, 65.50853753194035 " fill="none" id="curve_1" stroke="#000000" stroke-linecap="round" stroke-linejoin="round" stroke-width="2.542621990543666"/>
  <path d="M 18.322744509456847, 65.50853753194035 Q 19.7638800868681, 79.24090570573446, 29.82977010791186, 92.62328688341086 " fill="none" id="curve_1" stroke="#000000" stroke-linecap="round" stroke-linejoin="round" stroke-width="2.574777201963694"/>
  <path d="M 29.82977010791186, 92.62328688341086 Q 32.949247544073955, 98.75381517680671, 44.43696063291844, 100.68137897552376 " fill="none" id="curve_1" stroke="#000000" stroke-linecap="round" stroke-linejoin="round" stroke-width="3.3268537516559515"/>
  <path d="M 44.43696063291844, 100.68137897552376 Q 56.3499626993446, 100.56867311412942, 57.93174192748739, 96.88538799563166 " fill="none" id="curve_1" stroke="#000000" stroke-linecap="round" stroke-linejoin="round" stroke-width="3.434299811540455"/>
  <path d="M 57.93174192748739, 96.88538799563166 Q 65.31169922371465, 92.53091792933954, 70.80821977293787, 77.38220396882292 " fill="none" id="curve_1" stroke="#000000" stroke-linecap="round" stroke-linejoin="round" stroke-width="2.911694800235153"/>
  <path d="M 74.60058742167732, 61.634046970817366 Q 73.68802298282947, 54.288990118338646, 70.82365724176113, 49.49668490816682 " fill="none" id="curve_2" stroke="#000000" stroke-linecap="round" stroke-linejoin="round" stroke-width="3.4016454845947415"/>
  <path d="M 64.90964473006572, 41.411841393049954 Q 60.96910216425789, 38.49074380502927, 48.463057425412664, 33.825105642780265 " fill="none" id="curve_3" stroke="#000000" stroke-linecap="round" stroke-linejoin="round" stroke-width="4.735907556065655"/>
  <path d="M 48.463057425412664, 33.825105642780265 Q 41.50620498657092, 34.688734844686614, 35.71351230237252, 36.225650665016694 " fill="none" id="curve_3" stroke="#000000" stroke-linecap="round" stroke-linejoin="round" stroke-width="4.000624931021516"/>
  <path d="M 35.71351230237252, 36.225650665016694 Q 35.48564533942625, 43.17503489268901, 32.53011632528836, 43.92831826267785 " fill="none" id="curve_3" stroke="#000000" stroke-linecap="round" stroke-linejoin="round" stroke-width="4.034212741681858"/>
  <path d="M 71.32784111671468, 74.01187771736316 Q 71.33094932211883, 72.30786620147038, 71.33552360794546, 70.34129088407673 " fill="none" id="curve_7" stroke="#000000" stroke-linecap="round" stroke-linejoin="round" stroke-width="1.9089784019081772"/>
  <path d="M 72.47643999604513, 53.64183372101266 Q 72.34480903538251, 54.22696861344747, 72.20628179450173, 55.14865914383305 " fill="none" id="curve_8" stroke="#000000" stroke-linecap="round" stroke-linejoin="round" stroke-width="4.08970060380461"/>
  <path d="M 56.513911075535106, 100.63302363234695 Q 59.37357286436271, 94.79014993207659, 65.29488476118365, 88.89144267831728 " fill="none" id="curve_10" stroke="#000000" stroke-linecap="round" stroke-linejoin="round" stroke-width="2.2681376390627257"/>
  <path d="M 39.07328033402911, 99.89059278178539 Q 37.73233856982795, 99.5141997674463, 36.63257210192887, 98.73713137526768 " fill="none" id="curve_11" stroke="#000000" stroke-linecap="round" stroke-linejoin="round" stroke-width="4.919131570640111"/>
  <path d="M 28.71227725385843, 90.08068795206859 Q 29.166943093655203, 91.09674551789124, 30.12050971737718, 92.48335444747181 " fill="none" id="curve_12" stroke="#000000" stroke-linecap="round" stroke-linejoin="round" stroke-width="2.5515456459758905"/>
  <path d="M 45.02183544475607, 33.81190357650127 Q 54.794041107072104, 34.68492561692613, 60.63562590592975, 37.8643151457567 " fill="none" id="curve_14" stroke="#000000" stroke-linecap="round" stroke-linejoin="round" stroke-width="2.2063637622043863"/>
  <path d="M 74.18557333070196, 61.50425431245101 Q 74.01666451949697, 63.06266869725766, 73.46045173495182, 64.38077868591105 " fill="none" id="curve_30" stroke="#000000" stroke-linecap="round" stroke-linejoin="round" stroke-width="2.006254438929547"/>
  <path d="M 42.54418720225269, 34.80246782865919 Q 42.2667415736612, 34.35534168225801, 40.91539441845376, 34.03770506595614 " fill="none" id="curve_32" stroke="#000000" stroke-linecap="round" stroke-linejoin="round" stroke-width="2.7182037054335435"/>
  <path d="M 71.56949147419505, 76.06709220798871 Q 71.09885820918116, 76.22905421743447, 70.37949219475463, 76.51928223833092 " fill="none" id="curve_47" stroke="#000000" stroke-linecap="round" stroke-linejoin="round" stroke-width="1.9666849163106295"/>
  <path d="M 58.061546276991066, 98.04675225236315 Q 59.52811802005037, 97.20842287547906, 60.97724860634273, 95.68736746188961 " fill="none" id="curve_62" stroke="#000000" stroke-linecap="round" stroke-linejoin="round" stroke-width="2.6087222368851433"/>
  <path d="M 18.95111424728276, 66.63112653938394 Q 18.90139635671723, 62.584355146072994, 18.750447664996464, 59.55428689012427 " fill="none" id="curve_64" stroke="#000000" stroke-linecap="round" stroke-linejoin="round" stroke-width="2.1156608325487576"/>
  <path d="M 41.456900375236145, 34.886320610714996 Q 41.32108458075562, 34.412226369685364, 40.8111343521517, 33.766481498756214 " fill="none" id="curve_73" stroke="#000000" stroke-linecap="round" stroke-linejoin="round" stroke-width="2.5096514960808345"/>
  <path d="M 30.633066400255256, 52.42106104846911 Q 30.522540334058743, 51.14718881232825, 30.30352284225707, 48.821101430530845 " fill="none" id="curve_82" stroke="#000000" stroke-linecap="round" stroke-linejoin="round" stroke-width="2.472269046637239"/>
  <path d="M 70.6234653679775, 45.887960751307595 Q 70.74638931755695, 46.85233143414208, 71.03489684114078, 48.320405553395176 " fill="none" id="curve_84" stroke="#000000" stroke-linecap="round" stroke-linejoin="round" stroke-width="1.9181974863877096"/>
  <path d="M 34.71736818871985, 39.600124530502654 Q 33.47258259719686, 40.54322959833885, 32.06867876480638, 42.1106697627348 " fill="none" id="curve_93" stroke="#000000" stroke-linecap="round" stroke-linejoin="round" stroke-width="3.250772519787133"/>
  <path d="M 74.08820082870528, 56.96025857620046 Q 74.17159258333241, 56.17757008704716, 74.29342025365327, 54.93973443758434 " fill="none" id="curve_109" stroke="#000000" stroke-linecap="round" stroke-linejoin="round" stroke-width="2.4549124262762625"/>
  <path d="M 29.555467222077596, 47.18031535990531 Q 29.960042165446346, 45.93935703517375, 31.0898121462843, 44.80468299528132 " fill="none" id="curve_137" stroke="#000000" stroke-linecap="round" stroke-linejoin="round" stroke-width="2.816964478572891"/>
  <path d="M 57.65766848954107, 37.09328187497867 Q 56.21016910139525, 35.34925024401587, 49.29049282025464, 34.12588116188 " fill="none" id="curve_142" stroke="#000000" stroke-linecap="round" stroke-linejoin="round" stroke-width="2.214770857257925"/>
  <path d="M 49.40309515426186, 34.40898226716196 Q 46.11812019159463, 34.237123903123305, 41.80786428389377, 33.82511857046376 " fill="none" id="curve_146" stroke="#000000" stroke-linecap="round" stroke-linejoin="round" stroke-width="2.720756570632827"/>
  <path d="M 48.82600107817594, 101.43216205362236 Q 50.890339398151674, 101.42104942102758, 52.85723400263545, 101.39356709271458 " fill="none" id="curve_149" stroke="#000000" stroke-linecap="round" stroke-linejoin="round" stroke-width="2.2728823578657806"/>
  <path d="M 28.924271692879184, 91.51358771703173 Q 30.7853710099623, 94.29477697888348, 35.59380246108921, 96.53803694975987 " fill="none" id="curve_178" stroke="#000000" stroke-linecap="round" stroke-linejoin="round" stroke-width="2.217534738987226"/>
</svg>
