<?xml version="1.0" ?>
<svg height="140" width="140" xmlns="http://www.w3.org/2000/svg">
  <path d="M 58.12127113342285, 46.09331512451172 Q 58.09801988436057, 45.20916635176561, 57.99877298234722, 44.6728814342977 " fill="none" id="curve_1" stroke="#000000" stroke-linecap="round" stroke-linejoin="round" stroke-width="9.800660310100035"/>
  <path d="M 57.99877298234722, 44.6728814342977 Q 40.64649446587335, 45.604817004275965, 28.590423713114767, 58.81909471012901 " fill="none" id="curve_1" stroke="#000000" stroke-linecap="round" stroke-linejoin="round" stroke-width="3.735959986669787"/>
  <path d="M 28.590423713114767, 58.81909471012901 Q 24.490975265666837, 64.14413035087108, 22.238348838503516, 76.72023292690108 " fill="none" id="curve_1" stroke="#000000" stroke-linecap="round" stroke-linejoin="round" stroke-width="3.9247947271465535"/>
  <path d="M 22.238348838503516, 76.72023292690108 Q 23.488688053328467, 92.23099106452436, 38.51367196301956, 95.13779804078027 " fill="none" id="curve_1" stroke="#000000" stroke-linecap="round" stroke-linejoin="round" stroke-width="2.9826206499681183"/>
  <path d="M 53.1747945222713, 79.73320938651446 Q 57.53018081325033, 75.19241660178447, 60.52835719189311, 59.677000097618716 " fill="none" id="curve_2" stroke="#000000" stroke-linecap="round" stroke-linejoin="round" stroke-width="5.0922443161844475"/>
  <path d="M 60.52835719189311, 59.677000097618716 Q 60.81394331069587, 51.82682278280735, 61.74035836504409, 48.03798042688659 " fill="none" id="curve_2" stroke="#000000" stroke-linecap="round" stroke-linejoin="round" stroke-width="5.150041328078003"/>
  <path d="M 61.74035836504409, 48.03798042688659 Q 55.59218566392338, 49.39819076351812, 51.69404843107211, 51.898639105760665 " fill="none" id="curve_2" stroke="#000000" stroke-linecap="round" stroke-linejoin="round" stroke-width="4.533728033100096"/>
  <path d="M 89.01086553636452, 66.2856776239607 Q 89.56585447832968, 65.152596000899, 89.74406779366359, 53.3744580816959 " fill="none" id="curve_3" stroke="#000000" stroke-linecap="round" stroke-linejoin="round" stroke-width="1.7836736900533818"/>
  <path d="M 89.74406779366359, 53.3744580816959 Q 89.7838936236428, 48.697344483744004, 89.8412249329101, 41.17464919086248 " fill="none" id="curve_3" stroke="#000000" stroke-linecap="round" stroke-linejoin="round" stroke-width="1.720268089430726"/>
  <path d="M 89.8412249329101, 41.17464919086248 Q 89.75475809693562, 36.82296481710144, 89.6580568415013, 20.157387558840938 " fill="none" id="curve_3" stroke="#000000" stroke-linecap="round" stroke-linejoin="round" stroke-width="1.5504174432774653"/>
  <path d="M 89.40455357762643, 6.484082698287045 Q 89.5130241328776, 3.969458980261777, 89.66534454642631, 0.7695416178082848 " fill="none" id="curve_4" stroke="#000000" stroke-linecap="round" stroke-linejoin="round" stroke-width="1.6168883910010552"/>
  <path d="M 89.60123665249075, 19.399531687262773 Q 89.48950778458327, 19.63688472600117, 89.32801130960058, 19.993096389764133 " fill="none" id="curve_5" stroke="#000000" stroke-linecap="round" stroke-linejoin="round" stroke-width="1.454802223880037"/>
  <path d="M 89.78444834191556, 116.12263919579868 Q 89.61765651889706, 120.60886130995095, 89.23388188997906, 125.7791476132116 " fill="none" id="curve_11" stroke="#000000" stroke-linecap="round" stroke-linejoin="round" stroke-width="1.651633813172172"/>
  <path d="M 89.10410624541647, 110.1741899327368 Q 89.33220404845352, 108.53644807265817, 89.53978384818002, 104.2727730946165 " fill="none" id="curve_12" stroke="#000000" stroke-linecap="round" stroke-linejoin="round" stroke-width="1.7268767103886637"/>
  <path d="M 89.41059901742202, 90.56632254450837 Q 89.39829068488778, 91.05686405119576, 89.38691427436056, 92.51893315773951 " fill="none" id="curve_13" stroke="#000000" stroke-linecap="round" stroke-linejoin="round" stroke-width="2.2392314093778003"/>
  <path d="M 39.77358400857725, 95.45259817009037 Q 39.94728725452557, 94.59560161893405, 40.246050756987636, 93.52052602371093 " fill="none" id="curve_15" stroke="#000000" stroke-linecap="round" stroke-linejoin="round" stroke-width="3.090000217594994"/>
  <path d="M 89.17061539787018, 138.68521628645942 Q 89.31940319431135, 138.01051287754154, 89.44545270256411, 136.01878780920472 " fill="none" id="curve_17" stroke="#000000" stroke-linecap="round" stroke-linejoin="round" stroke-width="1.6088129650256873"/>
  <path d="M 88.9921056777357, 112.10569347831256 Q 89.20117980784516, 112.82781862286606, 89.41444429264986, 114.67780659911115 " fill="none" id="curve_18" stroke="#000000" stroke-linecap="round" stroke-linejoin="round" stroke-width="1.7315927424766282"/>
  <path d="M 89.31084423026508, 126.8530071134462 Q 89.40916547132215, 127.07396107028642, 89.61753973255723, 127.38693039842839 " fill="none" id="curve_19" stroke="#000000" stroke-linecap="round" stroke-linejoin="round" stroke-width="1.7010077301931474"/>
  <path d="M 52.019874890883926, 77.85295090027047 Q 53.4118626569139, 77.26144335043203, 54.44756396403767, 75.96568822765953 " fill="none" id="curve_23" stroke="#000000" stroke-linecap="round" stroke-linejoin="round" stroke-width="3.802188498639224"/>
  <path d="M 59.90603433762651, 64.88204473241885 Q 58.60849305084153, 66.8193341570822, 56.85583398774187, 69.69123461971026 " fill="none" id="curve_24" stroke="#000000" stroke-linecap="round" stroke-linejoin="round" stroke-width="3.615940794636586"/>
  <path d="M 40.14639125203832, 52.33697640687547 Q 31.187629243298286, 52.792034104654384, 27.48516310330897, 57.326595146339166 " fill="none" id="curve_29" stroke="#000000" stroke-linecap="round" stroke-linejoin="round" stroke-width="1.5456647895845776"/>
  <path d="M 21.16633844191374, 73.20307892980958 Q 22.016859068961388, 71.84522332535663, 22.92816600746756, 69.71504098929081 " fill="none" id="curve_30" stroke="#000000" stroke-linecap="round" stroke-linejoin="round" stroke-width="2.942225909832711"/>
  <path d="M 58.43453033966456, 53.45321299103034 Q 58.57288818019041, 53.632797620641504, 58.724179192562495, 53.952346299784665 " fill="none" id="curve_58" stroke="#000000" stroke-linecap="round" stroke-linejoin="round" stroke-width="3.5458663890341073"/>
  <path d="M 90.14481935329286, 89.52651233174583 Q 89.94279732313984, 89.1892710685103, 89.48467854241348, 88.8391988348774 " fill="none" id="curve_73" stroke="#000000" stroke-linecap="round" stroke-linejoin="round" stroke-width="1.646426321371223"/>
  <path d="M 56.12448978444402, 68.22049393153647 Q 58.208726142437, 67.95850523322385, 60.15277368669176, 67.29827958003735 " fill="none" id="curve_129" stroke="#000000" stroke-linecap="round" stroke-linejoin="round" stroke-width="2.671637690750553"/>
</svg>
