<?xml version="1.0" ?>
<svg height="140" width="140" xmlns="http://www.w3.org/2000/svg">
  <path d="M 80.10862350463867, 50.880680084228516 Q 79.00325163772834, 59.89142543020144, 68.98510294086617, 67.32037804339075 " fill="none" id="curve_1" stroke="#000000" stroke-linecap="round" stroke-linejoin="round" stroke-width="6.186989572001188"/>
  <path d="M 68.98510294086617, 67.32037804339075 Q 66.52755501619322, 75.98715763359615, 50.32377143489067, 79.90435628963297 " fill="none" id="curve_1" stroke="#000000" stroke-linecap="round" stroke-linejoin="round" stroke-width="6.6088714186727024"/>
  <path d="M 50.32377143489067, 79.90435628963297 Q 48.05223315496559, 81.79198679903018, 35.818238858485486, 82.19065659336766 " fill="none" id="curve_1" stroke="#000000" stroke-linecap="round" stroke-linejoin="round" stroke-width="5.182236734569305"/>
  <path d="M 35.818238858485486, 82.19065659336766 Q 19.14533156200625, 79.21201226997943, 7.981745690703811, 59.19360963049455 " fill="none" id="curve_1" stroke="#000000" stroke-linecap="round" stroke-linejoin="round" stroke-width="4.832779618991366"/>
  <path d="M 7.981745690703811, 59.19360963049455 Q 5.701195425770285, 57.05478157238113, 5.08315563442434, 41.37595396499789 " fill="none" id="curve_1" stroke="#000000" stroke-linecap="round" stroke-linejoin="round" stroke-width="5.417425742057702"/>
  <path d="M 5.08315563442434, 41.37595396499789 Q 7.398854014652185, 31.41617811771014, 22.651983261486887, 27.98389841876798 " fill="none" id="curve_1" stroke="#000000" stroke-linecap="round" stroke-linejoin="round" stroke-width="6.200142191105376"/>
  <path d="M 22.651983261486887, 27.98389841876798 Q 27.606020829124727, 24.4805140201717, 44.2885927783132, 22.713219372918395 " fill="none" id="curve_1" stroke="#000000" stroke-linecap="round" stroke-linejoin="round" stroke-width="4.938124231705289"/>
  <path d="M 44.2885927783132, 22.713219372918395 Q 73.9433170768456, 23.70902212449549, 82.7801004847137, 43.08669381942496 " fill="none" id="curve_1" stroke="#000000" stroke-linecap="round" stroke-linejoin="round" stroke-width="4.966300615714948"/>
  <path d="M 82.7801004847137, 43.08669381942496 Q 81.22964229552423, 58.86616020389233, 71.58187140042851, 66.14251302133977 " fill="none" id="curve_1" stroke="#000000" stroke-linecap="round" stroke-linejoin="round" stroke-width="3.5276134528607854"/>
  <path d="M 88.95196111896357, 67.06538069687365 Q 89.35636956361645, 72.37873452431401, 89.61990764268079, 95.6945349980878 " fill="none" id="curve_2" stroke="#000000" stroke-linecap="round" stroke-linejoin="round" stroke-width="1.7329198934352348"/>
  <path d="M 89.61990764268079, 95.6945349980878 Q 89.68469335268405, 106.16262209203744, 89.96102503904712, 127.89900869820426 " fill="none" id="curve_2" stroke="#000000" stroke-linecap="round" stroke-linejoin="round" stroke-width="1.7530625142917378"/>
  <path d="M 89.96102503904712, 127.89900869820426 Q 89.76312695871285, 133.251469097815, 89.48682318136807, 138.60974093810694 " fill="none" id="curve_2" stroke="#000000" stroke-linecap="round" stroke-linejoin="round" stroke-width="2.2123941606065647"/>
  <path d="M 89.70375376551769, 65.21014957524346 Q 89.56509497754476, 64.78161867717165, 89.54594131532394, 52.38943787096236 " fill="none" id="curve_6" stroke="#000000" stroke-linecap="round" stroke-linejoin="round" stroke-width="1.4689510856921109"/>
  <path d="M 89.54594131532394, 52.38943787096236 Q 89.4428739774859, 50.89387228145141, 89.38635271782047, 39.258185442411474 " fill="none" id="curve_6" stroke="#000000" stroke-linecap="round" stroke-linejoin="round" stroke-width="1.5887983238394892"/>
  <path d="M 89.38635271782047, 39.258185442411474 Q 89.44670492431754, 37.78444297534281, 89.4854024573601, 25.767931993925146 " fill="none" id="curve_6" stroke="#000000" stroke-linecap="round" stroke-linejoin="round" stroke-width="1.4978349926960037"/>
  <path d="M 89.4854024573601, 25.767931993925146 Q 89.47339320934333, 20.88767653783171, 89.4454059376753, 13.75886827322202 " fill="none" id="curve_6" stroke="#000000" stroke-linecap="round" stroke-linejoin="round" stroke-width="1.4480552041386985"/>
  <path d="M 89.4454059376753, 13.75886827322202 Q 89.22178893803931, 4.718514995297795, 87.51210079440933, 1.2523161961038625 " fill="none" id="curve_6" stroke="#000000" stroke-linecap="round" stroke-linejoin="round" stroke-width="3.8552794800623307"/>
  <path d="M 87.51210079440933, 1.2523161961038625 Q 86.36752219950552, 1.1716374165056345, 80.77032868500237, 1.1415782949602726 " fill="none" id="curve_6" stroke="#000000" stroke-linecap="round" stroke-linejoin="round" stroke-width="1.4778812256245135"/>
  <path d="M 87.9111560922581, 5.034938821497375 Q 87.65570388534285, 4.028479902239528, 87.29621055162112, 3.1687380479966003 " fill="none" id="curve_7" stroke="#000000" stroke-linecap="round" stroke-linejoin="round" stroke-width="4.846178345915218"/>
  <path d="M 73.19021527834825, 0.7907166506063388 Q 71.39985494124689, 0.7661612976181831, 69.05811181730918, 0.7310748281750141 " fill="none" id="curve_8" stroke="#000000" stroke-linecap="round" stroke-linejoin="round" stroke-width="1.5873284620136827"/>
  <path d="M 21.05735827400034, 26.99728847346882 Q 15.196342156103917, 28.439263218001855, 12.814009027406252, 36.39898714785569 " fill="none" id="curve_10" stroke="#000000" stroke-linecap="round" stroke-linejoin="round" stroke-width="6.451261847794078"/>
  <path d="M 12.814009027406252, 36.39898714785569 Q 14.185749099295194, 47.62584769141055, 22.138329254496355, 51.39494343984005 " fill="none" id="curve_10" stroke="#000000" stroke-linecap="round" stroke-linejoin="round" stroke-width="3.4254864400267837"/>
  <path d="M 21.590647283964508, 37.41014104926075 Q 17.171442971546636, 35.754751564500424, 13.792202314774485, 30.298939736407803 " fill="none" id="curve_11" stroke="#000000" stroke-linecap="round" stroke-linejoin="round" stroke-width="3.010199625901699"/>
  <path d="M 13.792202314774485, 30.298939736407803 Q 14.069706381020714, 26.281960056315256, 22.081760987021767, 25.95906758517898 " fill="none" id="curve_11" stroke="#000000" stroke-linecap="round" stroke-linejoin="round" stroke-width="2.884379786940305"/>
  <path d="M 21.159304502458294, 38.802169414476744 Q 22.09186183444077, 38.99216564539739, 22.562170647090785, 40.11501973765006 " fill="none" id="curve_12" stroke="#000000" stroke-linecap="round" stroke-linejoin="round" stroke-width="2.2030380309906143"/>
  <path d="M 11.957595001499875, 29.457055978443428 Q 6.224247906996322, 31.59337189903476, 3.8674191004278082, 42.052654475712146 " fill="none" id="curve_13" stroke="#000000" stroke-linecap="round" stroke-linejoin="round" stroke-width="2.5017932575263053"/>
  <path d="M 3.8674191004278082, 42.052654475712146 Q 4.335164698478397, 58.17977362017521, 11.501312682745809, 60.05713239183868 " fill="none" id="curve_13" stroke="#000000" stroke-linecap="round" stroke-linejoin="round" stroke-width="2.5821235532002205"/>
  <path d="M 28.647465601505424, 77.59561576247303 Q 31.474931869668826, 79.16125344708959, 34.33543417442201, 80.8551372850969 " fill="none" id="curve_14" stroke="#000000" stroke-linecap="round" stroke-linejoin="round" stroke-width="2.7788089425682085"/>
  <path d="M 11.34957366371441, 68.39993000799647 Q 15.668479159990433, 69.86978794128733, 20.108764479568915, 73.39485541133504 " fill="none" id="curve_15" stroke="#000000" stroke-linecap="round" stroke-linejoin="round" stroke-width="2.6742189357563397"/>
  <path d="M 79.14165844274774, 40.806838999272486 Q 81.37577885605866, 43.511450010394846, 83.36622949095882, 50.05148792501396 " fill="none" id="curve_17" stroke="#000000" stroke-linecap="round" stroke-linejoin="round" stroke-width="3.557162269580696"/>
  <path d="M 83.36622949095882, 50.05148792501396 Q 76.53382699934295, 56.20649021994717, 70.93300690772831, 70.08707043435597 " fill="none" id="curve_17" stroke="#000000" stroke-linecap="round" stroke-linejoin="round" stroke-width="2.9766296684274614"/>
  <path d="M 84.10053391657296, 42.25244151992935 Q 81.91735969462397, 47.78744580237015, 76.48963157511139, 55.82750346341939 " fill="none" id="curve_18" stroke="#000000" stroke-linecap="round" stroke-linejoin="round" stroke-width="2.4375971578132885"/>
  <path d="M 83.24901118466849, 45.999712398202234 Q 82.1538506338593, 46.93627419550776, 80.52346477124975, 48.096866183532676 " fill="none" id="curve_19" stroke="#000000" stroke-linecap="round" stroke-linejoin="round" stroke-width="3.7219993506325073"/>
  <path d="M 42.01653143350642, 0.9753697451509915 Q 40.28795581485404, 0.774379109941022, 31.294499528465614, 0.6224572934366757 " fill="none" id="curve_23" stroke="#000000" stroke-linecap="round" stroke-linejoin="round" stroke-width="1.5445141805616858"/>
  <path d="M 57.82446437624148, 24.008249594755924 Q 55.96769463687652, 22.839617034609457, 48.7895126846723, 21.265033635597153 " fill="none" id="curve_31" stroke="#000000" stroke-linecap="round" stroke-linejoin="round" stroke-width="2.188200160845487"/>
  <path d="M 87.49381303787231, 6.204629898071289 Q 88.22092334593901, 3.651890671746213, 90.06542970559016, 1.745400013038477 " fill="none" id="curve_45" stroke="#000000" stroke-linecap="round" stroke-linejoin="round" stroke-width="2.2248877917629657"/>
  <path d="M 77.64515960097515, 1.026139050720436 Q 77.94377401234239, 1.0543669925463768, 78.48470038316522, 1.0892560572949028 " fill="none" id="curve_46" stroke="#000000" stroke-linecap="round" stroke-linejoin="round" stroke-width="1.9257340829177974"/>
  <path d="M 61.28927521702217, 25.03613395201416 Q 60.55394671837015, 23.480175115665705, 58.40240580820853, 22.334387539621684 " fill="none" id="curve_48" stroke="#000000" stroke-linecap="round" stroke-linejoin="round" stroke-width="3.2092664543746885"/>
  <path d="M 4.147857884087152, 49.96993973206173 Q 4.00405413908319, 49.56058705715458, 3.6596645636906078, 48.88223420687718 " fill="none" id="curve_52" stroke="#000000" stroke-linecap="round" stroke-linejoin="round" stroke-width="2.6761309641566355"/>
  <path d="M 17.943164569312728, 0.6988464365449545 Q 20.522833687673742, 0.6716380242956801, 24.980726056134642, 0.6250352975420661 " fill="none" id="curve_67" stroke="#000000" stroke-linecap="round" stroke-linejoin="round" stroke-width="1.2229671555920305"/>
  <path d="M 25.13371038917837, 76.87739054385605 Q 22.520175461395507, 74.84181822723556, 18.284401054295866, 71.62557084043975 " fill="none" id="curve_87" stroke="#000000" stroke-linecap="round" stroke-linejoin="round" stroke-width="2.8844024718035994"/>
  <path d="M 75.77218887066212, 30.167110218873972 Q 76.12825801119885, 34.522569526611306, 77.89375848184253, 37.529389204116946 " fill="none" id="curve_102" stroke="#000000" stroke-linecap="round" stroke-linejoin="round" stroke-width="2.0558006894412886"/>
  <path d="M 63.22705551428526, 26.051890080576047 Q 66.25517776747692, 27.939276877667666, 70.23919481449704, 30.92635636282646 " fill="none" id="curve_105" stroke="#000000" stroke-linecap="round" stroke-linejoin="round" stroke-width="2.418667451283494"/>
  <path d="M 71.56664508544749, 67.78029462481808 Q 73.1809942303929, 65.25517212020785, 75.08572897739654, 61.53401741434884 " fill="none" id="curve_107" stroke="#000000" stroke-linecap="round" stroke-linejoin="round" stroke-width="3.65589147025112"/>
  <path d="M 61.28489343696786, 76.5441860883808 Q 55.55364364173009, 77.08400287225196, 47.0256506926042, 78.5464643154853 " fill="none" id="curve_115" stroke="#000000" stroke-linecap="round" stroke-linejoin="round" stroke-width="3.377267190730377"/>
  <path d="M 74.29085873577903, 62.55307795106239 Q 73.8276753201731, 63.20376306014191, 72.75590665705855, 64.31774069797673 " fill="none" id="curve_130" stroke="#000000" stroke-linecap="round" stroke-linejoin="round" stroke-width="3.1457917038803256"/>
  <path d="M 68.46931746384575, 68.75213274756295 Q 64.98415983450546, 74.26767753812945, 53.005339253788975, 78.5829123129721 " fill="none" id="curve_136" stroke="#000000" stroke-linecap="round" stroke-linejoin="round" stroke-width="3.5743538725988127"/>
  <path d="M 10.953126794508597, 1.1119407793601805 Q 9.541185175273618, 1.1611081756962076, 6.236838932140243, 1.2117053559640225 " fill="none" id="curve_140" stroke="#000000" stroke-linecap="round" stroke-linejoin="round" stroke-width="1.9047223429912248"/>
  <path d="M 67.4252270977118, 71.56923946190442 Q 61.75556041406955, 74.35701471484397, 53.699214018272336, 79.0645720296467 " fill="none" id="curve_148" stroke="#000000" stroke-linecap="round" stroke-linejoin="round" stroke-width="3.6857796239454412"/>
  <path d="M 74.59855623900012, 63.75293141473412 Q 74.19307677528552, 63.070047287737275, 73.04589876855938, 62.33828657552535 " fill="none" id="curve_163" stroke="#000000" stroke-linecap="round" stroke-linejoin="round" stroke-width="3.7042863086292828"/>
  <path d="M 70.40852922774195, 67.6674354559915 Q 73.01227595322554, 65.67121390795232, 75.09046894448352, 60.93035312446058 " fill="none" id="curve_204" stroke="#000000" stroke-linecap="round" stroke-linejoin="round" stroke-width="3.0283038465362853"/>
</svg>
