<?xml version="1.0" ?>
<svg height="140" width="140" xmlns="http://www.w3.org/2000/svg">
  <path d="M 45.964731216430664, 102.28226280212402 Q 44.750964826686165, 108.83807620278837, 39.45429546428977, 111.2198208549885 " fill="none" id="curve_1" stroke="#000000" stroke-linecap="round" stroke-linejoin="round" stroke-width="5.47766399234847"/>
  <path d="M 39.45429546428977, 111.2198208549885 Q 31.39632670215594, 109.8128010092538, 28.67007018321392, 96.15550938905727 " fill="none" id="curve_1" stroke="#000000" stroke-linecap="round" stroke-linejoin="round" stroke-width="6.69075159882824"/>
  <path d="M 28.67007018321392, 96.15550938905727 Q 26.79697057073073, 92.04399256544652, 25.22918512449824, 73.34902964677602 " fill="none" id="curve_1" stroke="#000000" stroke-linecap="round" stroke-linejoin="round" stroke-width="5.498922206453989"/>
  <path d="M 25.22918512449824, 73.34902964677602 Q 25.750315080079243, 53.60517293552513, 32.001251247826, 43.04709068740809 " fill="none" id="curve_1" stroke="#000000" stroke-linecap="round" stroke-linejoin="round" stroke-width="5.004600222374472"/>
  <path d="M 32.001251247826, 43.04709068740809 Q 34.901389754245486, 33.17162146319109, 44.57173074410442, 27.627775979152588 " fill="none" id="curve_1" stroke="#000000" stroke-linecap="round" stroke-linejoin="round" stroke-width="4.82682292015258"/>
  <path d="M 44.57173074410442, 27.627775979152588 Q 52.2896960798914, 33.98870248785197, 55.6393542857559, 51.46800198089557 " fill="none" id="curve_1" stroke="#000000" stroke-linecap="round" stroke-linejoin="round" stroke-width="3.76319866611354"/>
  <path d="M 55.6393542857559, 51.46800198089557 Q 58.5238811830768, 52.02189897640747, 58.71941722404245, 62.93804753205505 " fill="none" id="curve_1" stroke="#000000" stroke-linecap="round" stroke-linejoin="round" stroke-width="4.711642851450791"/>
  <path d="M 58.71941722404245, 62.93804753205505 Q 57.6395657031378, 89.4470198270384, 46.43585142867548, 105.87675389220017 " fill="none" id="curve_1" stroke="#000000" stroke-linecap="round" stroke-linejoin="round" stroke-width="4.948828324285121"/>
  <path d="M 46.43585142867548, 105.87675389220017 Q 51.43033087772582, 98.12945537777001, 55.04814716225302, 77.6694804427822 " fill="none" id="curve_1" stroke="#000000" stroke-linecap="round" stroke-linejoin="round" stroke-width="4.197442513031886"/>
  <path d="M 59.0817716983447, 51.289965353902105 Q 57.51670037051144, 50.64783835261868, 56.10861945489732, 48.93043090466527 " fill="none" id="curve_2" stroke="#000000" stroke-linecap="round" stroke-linejoin="round" stroke-width="3.860848709634039"/>
  <path d="M 46.01500262641881, 28.234697394610244 Q 38.29803401613405, 29.562166301168258, 33.80213688307222, 35.59630106397241 " fill="none" id="curve_3" stroke="#000000" stroke-linecap="round" stroke-linejoin="round" stroke-width="2.912138146962515"/>
  <path d="M 39.35796766457097, 30.160534104075587 Q 41.56406193388787, 29.361353413048366, 47.09930349091892, 28.619053780513344 " fill="none" id="curve_5" stroke="#000000" stroke-linecap="round" stroke-linejoin="round" stroke-width="2.8817679024922014"/>
  <path d="M 51.130610080252154, 43.276053389352455 Q 52.551747170188534, 45.21819252286392, 53.68826843431393, 48.91705675538906 " fill="none" id="curve_20" stroke="#000000" stroke-linecap="round" stroke-linejoin="round" stroke-width="3.2870668812947055"/>
  <path d="M 43.82754592796841, 29.85798624454443 Q 43.72380289292862, 29.718077512180322, 43.53686566229941, 29.510384132915096 " fill="none" id="curve_22" stroke="#000000" stroke-linecap="round" stroke-linejoin="round" stroke-width="4.3443624431023125"/>
  <path d="M 46.840702056884766, 29.489192962646484 Q 49.10400969521353, 29.824106718869743, 50.4944540394427, 31.122340493494292 " fill="none" id="curve_36" stroke="#000000" stroke-linecap="round" stroke-linejoin="round" stroke-width="2.450383850407057"/>
  <path d="M 31.198020207060896, 40.66663405592795 Q 28.821449770228096, 44.58251282818778, 26.677840321701936, 53.61870565497872 " fill="none" id="curve_37" stroke="#000000" stroke-linecap="round" stroke-linejoin="round" stroke-width="2.382324363487472"/>
  <path d="M 36.86107926412899, 31.41711118424729 Q 37.76325666180556, 29.257532194862293, 41.47115525171806, 28.103539155759627 " fill="none" id="curve_38" stroke="#000000" stroke-linecap="round" stroke-linejoin="round" stroke-width="2.561839977159482"/>
  <path d="M 57.71044391780334, 63.38389935100336 Q 56.733955959044074, 69.92517754242628, 55.49411805927802, 77.53660571886299 " fill="none" id="curve_42" stroke="#000000" stroke-linecap="round" stroke-linejoin="round" stroke-width="3.06513802506219"/>
  <path d="M 41.45820636854414, 108.7818121540635 Q 42.43769628331959, 108.55674404557881, 43.351763223310655, 107.98249540801393 " fill="none" id="curve_44" stroke="#000000" stroke-linecap="round" stroke-linejoin="round" stroke-width="4.321033980923006"/>
  <path d="M 89.65068166546047, 139.0692748075149 Q 89.66437323308043, 138.7698281928076, 89.68921982104723, 138.31100100282066 " fill="none" id="curve_45" stroke="#000000" stroke-linecap="round" stroke-linejoin="round" stroke-width="2.0748532155223436"/>
  <path d="M 33.36551111391399, 104.87850634294173 Q 34.77995264814394, 109.03336790750231, 41.05162832645083, 111.06785855951307 " fill="none" id="curve_49" stroke="#000000" stroke-linecap="round" stroke-linejoin="round" stroke-width="2.4365587269347992"/>
  <path d="M 26.66140252106211, 72.02473543827196 Q 26.33684126233633, 62.574640897627546, 24.926697621528312, 57.889692249480035 " fill="none" id="curve_54" stroke="#000000" stroke-linecap="round" stroke-linejoin="round" stroke-width="2.708530832043968"/>
  <path d="M 90.45654756645965, 1.5641416772020014 Q 90.18195304110381, 2.3147059916437884, 89.46574959356897, 3.266878004393609 " fill="none" id="curve_58" stroke="#000000" stroke-linecap="round" stroke-linejoin="round" stroke-width="2.0659596018220996"/>
  <path d="M 58.680224259396724, 47.05365079446281 Q 58.70271041555496, 50.405763212735074, 58.76467096442517, 55.016031929047244 " fill="none" id="curve_60" stroke="#000000" stroke-linecap="round" stroke-linejoin="round" stroke-width="2.225945495703687"/>
  <path d="M 56.68424523977524, 61.88170100261186 Q 56.72490501306133, 62.76967740683068, 56.752448402083395, 65.79134196883452 " fill="none" id="curve_75" stroke="#000000" stroke-linecap="round" stroke-linejoin="round" stroke-width="2.9898647172292194"/>
  <path d="M 49.697015656173164, 37.405322867892835 Q 49.27145221589377, 30.471346774132435, 46.353575696084775, 27.87798744231555 " fill="none" id="curve_103" stroke="#000000" stroke-linecap="round" stroke-linejoin="round" stroke-width="2.6336763346037575"/>
</svg>
