<?xml version="1.0" ?>
<svg height="140" width="140" xmlns="http://www.w3.org/2000/svg">
  <path d="M 58.72556400299072, 80.57316017150879 Q 58.972372451958115, 81.14215640363122, 59.739727274167954, 81.99443740399354 " fill="none" id="curve_1" stroke="#000000" stroke-linecap="round" stroke-linejoin="round" stroke-width="7.313197752451888"/>
  <path d="M 59.739727274167954, 81.99443740399354 Q 56.97780584893596, 86.76343997417473, 47.134844295963596, 89.59120660503926 " fill="none" id="curve_1" stroke="#000000" stroke-linecap="round" stroke-linejoin="round" stroke-width="6.24736708187117"/>
  <path d="M 47.134844295963596, 89.59120660503926 Q 41.89362198550191, 89.57557647909547, 39.33553489959394, 89.51732944246098 " fill="none" id="curve_1" stroke="#000000" stroke-linecap="round" stroke-linejoin="round" stroke-width="5.297041218925975"/>
  <path d="M 39.33553489959394, 89.51732944246098 Q 34.63249522122972, 87.18948780491176, 32.782680231424166, 76.82397034402078 " fill="none" id="curve_1" stroke="#000000" stroke-linecap="round" stroke-linejoin="round" stroke-width="6.135232915740186"/>
  <path d="M 32.782680231424166, 76.82397034402078 Q 33.46596436222261, 57.204090074472575, 41.9880118643499, 50.148598261306475 " fill="none" id="curve_1" stroke="#000000" stroke-linecap="round" stroke-linejoin="round" stroke-width="5.307932484927281"/>
  <path d="M 41.9880118643499, 50.148598261306475 Q 43.0363164442199, 44.05590793454727, 54.23923288151797, 43.024334438771774 " fill="none" id="curve_1" stroke="#000000" stroke-linecap="round" stroke-linejoin="round" stroke-width="4.195137942689686"/>
  <path d="M 43.40236970303104, 54.515224072565374 Q 44.896635059955706, 56.853929763324125, 46.485606597665694, 65.63576314130384 " fill="none" id="curve_2" stroke="#000000" stroke-linecap="round" stroke-linejoin="round" stroke-width="2.7399981762297236"/>
  <path d="M 47.19007059219521, 54.260845335931336 Q 65.25353243154035, 55.010378151783904, 68.47811513157689, 66.1237295499302 " fill="none" id="curve_3" stroke="#000000" stroke-linecap="round" stroke-linejoin="round" stroke-width="5.540820321123079"/>
  <path d="M 68.47811513157689, 66.1237295499302 Q 67.16453062514634, 76.56597068883897, 62.09522220606249, 80.43827908947824 " fill="none" id="curve_3" stroke="#000000" stroke-linecap="round" stroke-linejoin="round" stroke-width="5.002591698244449"/>
  <path d="M 88.64634664854839, 67.69907759787289 Q 89.20601747735526, 74.28671301719278, 89.7775020770125, 93.5761870186757 " fill="none" id="curve_4" stroke="#000000" stroke-linecap="round" stroke-linejoin="round" stroke-width="1.7687183263986122"/>
  <path d="M 89.7775020770125, 93.5761870186757 Q 89.79688293015462, 109.77274759455885, 89.94769699858308, 128.26127515758546 " fill="none" id="curve_4" stroke="#000000" stroke-linecap="round" stroke-linejoin="round" stroke-width="1.7858642725583829"/>
  <path d="M 89.94769699858308, 128.26127515758546 Q 89.74052622779664, 134.2934558738733, 89.35441961583369, 139.00414886913907 " fill="none" id="curve_4" stroke="#000000" stroke-linecap="round" stroke-linejoin="round" stroke-width="2.280233283239926"/>
  <path d="M 58.15236868584481, 48.09709962412194 Q 56.29289321096075, 46.683103745546646, 54.95985114477252, 43.517567237327654 " fill="none" id="curve_10" stroke="#000000" stroke-linecap="round" stroke-linejoin="round" stroke-width="4.271399344431693"/>
  <path d="M 40.54044312106064, 56.64227828590043 Q 43.898025385302454, 57.66201415311636, 44.64925234765117, 63.33942388494157 " fill="none" id="curve_11" stroke="#000000" stroke-linecap="round" stroke-linejoin="round" stroke-width="2.9869212872839235"/>
  <path d="M 58.53816393692241, 54.268789040066814 Q 66.62346061972748, 55.56278967133058, 68.77317512095262, 63.77996940387664 " fill="none" id="curve_12" stroke="#000000" stroke-linecap="round" stroke-linejoin="round" stroke-width="1.9601400374614883"/>
  <path d="M 89.36080503613508, 65.81302071747936 Q 89.64323299702376, 64.66114422287448, 89.70916484267893, 49.3371580339701 " fill="none" id="curve_13" stroke="#000000" stroke-linecap="round" stroke-linejoin="round" stroke-width="1.549068492654522"/>
  <path d="M 89.70916484267893, 49.3371580339701 Q 89.68721242473909, 45.863008879855215, 89.6660303955383, 34.761625940288155 " fill="none" id="curve_13" stroke="#000000" stroke-linecap="round" stroke-linejoin="round" stroke-width="1.5717184195800913"/>
  <path d="M 89.6660303955383, 34.761625940288155 Q 89.66296516085595, 31.44285778930224, 89.65986904674449, 21.30505519217641 " fill="none" id="curve_13" stroke="#000000" stroke-linecap="round" stroke-linejoin="round" stroke-width="1.4311367657473515"/>
  <path d="M 89.65986904674449, 21.30505519217641 Q 89.59970638064253, 19.38763317010947, 89.56392462888937, 8.118910858090633 " fill="none" id="curve_13" stroke="#000000" stroke-linecap="round" stroke-linejoin="round" stroke-width="1.448739141113284"/>
  <path d="M 89.56392462888937, 8.118910858090633 Q 89.47187167237625, 2.759549680257381, 88.95858128920953, 0.8948768532879923 " fill="none" id="curve_13" stroke="#000000" stroke-linecap="round" stroke-linejoin="round" stroke-width="1.8709115308405913"/>
  <path d="M 88.95858128920953, 0.8948768532879923 Q 89.2123416450143, 0.8460905832452058, 89.51256479180415, 0.773518344481595 " fill="none" id="curve_13" stroke="#000000" stroke-linecap="round" stroke-linejoin="round" stroke-width="1.3733018488930657"/>
  <path d="M 68.60537812088025, 63.25052154478342 Q 66.61012617015554, 70.5962298460354, 61.984679302274124, 79.76620958364543 " fill="none" id="curve_18" stroke="#000000" stroke-linecap="round" stroke-linejoin="round" stroke-width="2.818825389251791"/>
  <path d="M 32.506535859722845, 66.99936253045182 Q 33.85633078864931, 52.170764604007836, 48.38548781816411, 45.973762883762156 " fill="none" id="curve_19" stroke="#000000" stroke-linecap="round" stroke-linejoin="round" stroke-width="3.0726763592748587"/>
  <path d="M 37.6539254111283, 52.294643392231904 Q 39.41795641115217, 49.31619516222365, 44.87641243857563, 47.032357250668476 " fill="none" id="curve_20" stroke="#000000" stroke-linecap="round" stroke-linejoin="round" stroke-width="2.782441476566881"/>
  <path d="M 57.81186231194723, 43.808514323811934 Q 56.11986376019226, 43.835384261234125, 50.59669337136263, 43.870617933581364 " fill="none" id="curve_21" stroke="#000000" stroke-linecap="round" stroke-linejoin="round" stroke-width="2.7061432958111586"/>
  <path d="M 30.65566377025959, 71.43282542116965 Q 31.025839816240467, 66.60441352815307, 32.60440917705519, 62.045390740102945 " fill="none" id="curve_24" stroke="#000000" stroke-linecap="round" stroke-linejoin="round" stroke-width="2.0243254718291754"/>
  <path d="M 57.4291944626899, 57.32059960508679 Q 61.01576424923407, 59.83000816186353, 68.3216899890669, 62.72509811824459 " fill="none" id="curve_25" stroke="#000000" stroke-linecap="round" stroke-linejoin="round" stroke-width="1.7461832899247571"/>
  <path d="M 32.922833920467745, 79.62927194522624 Q 36.606527172029075, 81.45318936867146, 37.793233893420364, 89.4781632435234 " fill="none" id="curve_72" stroke="#000000" stroke-linecap="round" stroke-linejoin="round" stroke-width="3.3683588824067687"/>
  <path d="M 66.60408620135058, 64.3631086048299 Q 66.48789979917775, 69.74885780183585, 66.13389434618995, 74.25306196684676 " fill="none" id="curve_87" stroke="#000000" stroke-linecap="round" stroke-linejoin="round" stroke-width="2.4330652174577647"/>
  <path d="M 38.587984232669555, 89.3206813522599 Q 37.47603402323374, 89.55718159509992, 36.17639105812283, 89.95824374194437 " fill="none" id="curve_115" stroke="#000000" stroke-linecap="round" stroke-linejoin="round" stroke-width="3.1094474106740204"/>
  <path d="M 63.66175249841751, 59.18466178501558 Q 65.75619862294978, 60.31761315330776, 69.07941872693124, 62.769399350558054 " fill="none" id="curve_143" stroke="#000000" stroke-linecap="round" stroke-linejoin="round" stroke-width="2.0120501232945363"/>
</svg>
