<?xml version="1.0" ?>
<svg height="140" width="140" xmlns="http://www.w3.org/2000/svg">
  <path d="M 60.130104064941406, 44.27092361450195 Q 59.63601454682625, 44.39227176854126, 52.8617551304273, 44.423367481980165 " fill="none" id="curve_1" stroke="#000000" stroke-linecap="round" stroke-linejoin="round" stroke-width="10.172203976703466"/>
  <path d="M 52.8617551304273, 44.423367481980165 Q 43.243126159580854, 45.32153219871525, 38.29940263943247, 54.07342572271889 " fill="none" id="curve_1" stroke="#000000" stroke-linecap="round" stroke-linejoin="round" stroke-width="6.890995221861384"/>
  <path d="M 38.29940263943247, 54.07342572271889 Q 31.804566931596845, 58.88667720853955, 25.529022402039658, 79.74202771724212 " fill="none" id="curve_1" stroke="#000000" stroke-linecap="round" stroke-linejoin="round" stroke-width="5.502967880649777"/>
  <path d="M 25.529022402039658, 79.74202771724212 Q 24.819641875865806, 89.76712476564614, 23.816083225184705, 97.99982481131696 " fill="none" id="curve_1" stroke="#000000" stroke-linecap="round" stroke-linejoin="round" stroke-width="5.450799711766666"/>
  <path d="M 23.816083225184705, 97.99982481131696 Q 25.98315534100785, 108.89574942121891, 38.3021163162073, 111.21716677346564 " fill="none" id="curve_1" stroke="#000000" stroke-linecap="round" stroke-linejoin="round" stroke-width="5.639792040592432"/>
  <path d="M 38.3021163162073, 111.21716677346564 Q 60.195364548256705, 109.36257212872393, 67.30824842349432, 84.50678110115166 " fill="none" id="curve_1" stroke="#000000" stroke-linecap="round" stroke-linejoin="round" stroke-width="6.796086122912397"/>
  <path d="M 67.30824842349432, 84.50678110115166 Q 68.30582706995357, 81.66520374150232, 68.76745494252627, 74.11500424767048 " fill="none" id="curve_1" stroke="#000000" stroke-linecap="round" stroke-linejoin="round" stroke-width="5.973454696527873"/>
  <path d="M 68.76745494252627, 74.11500424767048 Q 67.77583799081364, 54.13116272862892, 58.64951819956806, 47.41251273933245 " fill="none" id="curve_1" stroke="#000000" stroke-linecap="round" stroke-linejoin="round" stroke-width="7.137970288753133"/>
  <path d="M 58.64951819956806, 47.41251273933245 Q 57.794322728944145, 49.69527986281261, 46.92293207976097, 49.98526435610414 " fill="none" id="curve_1" stroke="#000000" stroke-linecap="round" stroke-linejoin="round" stroke-width="3.831066279587639"/>
  <path d="M 61.952576654942675, 45.97916549615801 Q 62.339901921888185, 58.76898340104404, 64.21583166046042, 62.119612130183384 " fill="none" id="curve_2" stroke="#000000" stroke-linecap="round" stroke-linejoin="round" stroke-width="4.205658280161883"/>
  <path d="M 56.67582259701177, 100.45281264917799 Q 51.89574134035584, 106.25130985162632, 37.67407321190829, 110.16276950061743 " fill="none" id="curve_3" stroke="#000000" stroke-linecap="round" stroke-linejoin="round" stroke-width="3.6269419959979454"/>
  <path d="M 57.63842607712205, 98.35872815702457 Q 62.266266896707904, 92.96771871557883, 66.56407111749479, 80.84106499568517 " fill="none" id="curve_4" stroke="#000000" stroke-linecap="round" stroke-linejoin="round" stroke-width="3.026742549469861"/>
  <path d="M 61.45968606549142, 57.65241933374749 Q 61.09975125503822, 49.55379426872474, 49.71678833038242, 48.501479149964055 " fill="none" id="curve_5" stroke="#000000" stroke-linecap="round" stroke-linejoin="round" stroke-width="2.7145621749692093"/>
  <path d="M 58.250314209041065, 42.190845235104014 Q 61.71310275233956, 42.73398107774374, 62.740709029843984, 45.34887704198562 " fill="none" id="curve_6" stroke="#000000" stroke-linecap="round" stroke-linejoin="round" stroke-width="2.4432280421184647"/>
  <path d="M 37.77280027997282, 50.09007168500018 Q 33.6235186159693, 54.02517792132712, 29.02494601709077, 62.92010301664663 " fill="none" id="curve_8" stroke="#000000" stroke-linecap="round" stroke-linejoin="round" stroke-width="2.7590747051652853"/>
  <path d="M 23.455879589258824, 94.00802167321125 Q 23.326152562701633, 89.4969807554883, 23.003858014013403, 86.69136698351494 " fill="none" id="curve_14" stroke="#000000" stroke-linecap="round" stroke-linejoin="round" stroke-width="3.808854173561413"/>
  <path d="M 50.33650792800024, 104.430153728407 Q 55.60804550770491, 100.24423751089927, 65.75606273396808, 95.72474773471784 " fill="none" id="curve_21" stroke="#000000" stroke-linecap="round" stroke-linejoin="round" stroke-width="2.8672596680645532"/>
  <path d="M 31.649803919573507, 110.28401936040763 Q 30.45858979901579, 110.40034115680277, 29.243115156510523, 110.56703256544569 " fill="none" id="curve_22" stroke="#000000" stroke-linecap="round" stroke-linejoin="round" stroke-width="4.656784663755478"/>
  <path d="M 90.09066348177723, 3.3094454007332175 Q 89.92143730003316, 2.9782167906227883, 89.5261347068418, 2.4644635777682167 " fill="none" id="curve_28" stroke="#000000" stroke-linecap="round" stroke-linejoin="round" stroke-width="2.2244701963566644"/>
  <path d="M 51.179319484165674, 52.20038451591533 Q 51.24780965962694, 51.008876071155555, 57.57243977301455, 50.95887913147014 " fill="none" id="curve_30" stroke="#000000" stroke-linecap="round" stroke-linejoin="round" stroke-width="2.3147311555333885"/>
  <path d="M 57.57243977301455, 50.95887913147014 Q 58.520147399981326, 49.654480168347995, 64.98543208896349, 49.340953401174986 " fill="none" id="curve_30" stroke="#000000" stroke-linecap="round" stroke-linejoin="round" stroke-width="2.1397105895887885"/>
  <path d="M 56.97861781953879, 40.598183432003246 Q 56.21815992584839, 40.966786552662256, 55.326875634182876, 41.59484317510305 " fill="none" id="curve_31" stroke="#000000" stroke-linecap="round" stroke-linejoin="round" stroke-width="2.687181487685719"/>
  <path d="M 28.436563685266705, 67.11837783052954 Q 26.267586716974037, 68.95895440572585, 25.063383546103676, 77.03661857692452 " fill="none" id="curve_32" stroke="#000000" stroke-linecap="round" stroke-linejoin="round" stroke-width="2.4047598703765143"/>
  <path d="M 30.277481323291838, 106.33066206390909 Q 28.710854200034696, 103.63588562070225, 25.015511547529464, 99.92598719786425 " fill="none" id="curve_33" stroke="#000000" stroke-linecap="round" stroke-linejoin="round" stroke-width="2.1537611062032433"/>
  <path d="M 64.40635315266934, 83.1075581100572 Q 62.80379028294594, 92.78499612251504, 54.90261915466211, 99.58445093400499 " fill="none" id="curve_48" stroke="#000000" stroke-linecap="round" stroke-linejoin="round" stroke-width="2.134330294515086"/>
  <path d="M 38.352250273411016, 110.10742740620833 Q 37.07504137890884, 109.17740425984013, 34.89213164310192, 108.12250145463861 " fill="none" id="curve_57" stroke="#000000" stroke-linecap="round" stroke-linejoin="round" stroke-width="3.70716057205122"/>
  <path d="M 22.229516183358413, 93.53355505677622 Q 22.562810730762518, 92.19813894461315, 22.98430609208461, 90.14764892676305 " fill="none" id="curve_63" stroke="#000000" stroke-linecap="round" stroke-linejoin="round" stroke-width="3.2816208528003763"/>
  <path d="M 27.169036991386296, 68.01920062063002 Q 27.609809089245488, 67.36648281807224, 28.70425787070718, 66.68954381005216 " fill="none" id="curve_84" stroke="#000000" stroke-linecap="round" stroke-linejoin="round" stroke-width="2.5902927545356706"/>
</svg>
