<?xml version="1.0" ?>
<svg height="140" width="140" xmlns="http://www.w3.org/2000/svg">
  <path d="M 45.84414768218994, 88.06046295166016 Q 44.57130897388427, 92.30644311428415, 37.59894402698644, 94.78645861689603 " fill="none" id="curve_1" stroke="#000000" stroke-linecap="round" stroke-linejoin="round" stroke-width="7.449453568017088"/>
  <path d="M 37.59894402698644, 94.78645861689603 Q 34.53081999702641, 96.46063563590691, 24.10809440566902, 97.03942826730443 " fill="none" id="curve_1" stroke="#000000" stroke-linecap="round" stroke-linejoin="round" stroke-width="5.6424846904167625"/>
  <path d="M 24.10809440566902, 97.03942826730443 Q 14.224218735586302, 94.52861222722017, 9.692583237465353, 76.71826787519267 " fill="none" id="curve_1" stroke="#000000" stroke-linecap="round" stroke-linejoin="round" stroke-width="4.541409906412332"/>
  <path d="M 9.692583237465353, 76.71826787519267 Q 10.857263956983855, 61.83793376328184, 19.67101787848985, 46.714485767200685 " fill="none" id="curve_1" stroke="#000000" stroke-linecap="round" stroke-linejoin="round" stroke-width="5.257621565029808"/>
  <path d="M 19.67101787848985, 46.714485767200685 Q 24.25450234414668, 36.53062563692181, 38.48032725116664, 27.593860520357307 " fill="none" id="curve_1" stroke="#000000" stroke-linecap="round" stroke-linejoin="round" stroke-width="4.549107093535708"/>
  <path d="M 38.48032725116664, 27.593860520357307 Q 51.15002542069218, 30.356068179578976, 53.998250520535066, 44.39703620032947 " fill="none" id="curve_1" stroke="#000000" stroke-linecap="round" stroke-linejoin="round" stroke-width="4.301681927118416"/>
  <path d="M 53.998250520535066, 44.39703620032947 Q 53.36552288048888, 63.42523123028597, 49.106418730761405, 81.67245877804768 " fill="none" id="curve_1" stroke="#000000" stroke-linecap="round" stroke-linejoin="round" stroke-width="4.610354085988355"/>
  <path d="M 49.106418730761405, 81.67245877804768 Q 48.04291248199744, 88.61619911201312, 43.47941427591948, 90.77582699124943 " fill="none" id="curve_1" stroke="#000000" stroke-linecap="round" stroke-linejoin="round" stroke-width="3.960134807521901"/>
  <path d="M 54.435513872075894, 41.14266925438514 Q 55.73171573617099, 34.31315197217444, 58.74390468821171, 29.940400705904175 " fill="none" id="curve_3" stroke="#000000" stroke-linecap="round" stroke-linejoin="round" stroke-width="3.7610213223258815"/>
  <path d="M 89.90397510707682, 15.871571479093621 Q 89.62719335839682, 12.271278520270377, 89.2392123880188, 2.5008315362847373 " fill="none" id="curve_4" stroke="#000000" stroke-linecap="round" stroke-linejoin="round" stroke-width="2.401210533372302"/>
  <path d="M 89.43825170173248, 17.67885504409866 Q 89.29898005202034, 20.394876431319215, 89.17407285739276, 43.27375972709257 " fill="none" id="curve_5" stroke="#000000" stroke-linecap="round" stroke-linejoin="round" stroke-width="2.298663233434159"/>
  <path d="M 89.17407285739276, 43.27375972709257 Q 89.17631122046623, 49.72260874866429, 89.18626846771363, 63.90457347702929 " fill="none" id="curve_5" stroke="#000000" stroke-linecap="round" stroke-linejoin="round" stroke-width="2.632451568146627"/>
  <path d="M 89.18626846771363, 63.90457347702929 Q 89.16599445272153, 68.40902573054308, 89.10519088760904, 82.22343491352973 " fill="none" id="curve_5" stroke="#000000" stroke-linecap="round" stroke-linejoin="round" stroke-width="2.6004336883868975"/>
  <path d="M 89.10519088760904, 82.22343491352973 Q 89.11361477816983, 88.31929212163043, 89.15432242398172, 99.87717015620629 " fill="none" id="curve_5" stroke="#000000" stroke-linecap="round" stroke-linejoin="round" stroke-width="2.56951507973511"/>
  <path d="M 89.15432242398172, 99.87717015620629 Q 89.15045593884433, 105.0441967643833, 89.13577501684075, 117.5267663562337 " fill="none" id="curve_5" stroke="#000000" stroke-linecap="round" stroke-linejoin="round" stroke-width="2.5485679280812272"/>
  <path d="M 89.13577501684075, 117.5267663562337 Q 89.14478767599351, 123.73487402301315, 89.18962728086439, 135.43004738455096 " fill="none" id="curve_5" stroke="#000000" stroke-linecap="round" stroke-linejoin="round" stroke-width="2.507468408922878"/>
  <path d="M 89.18962728086439, 135.43004738455096 Q 89.09708062893955, 138.0191032792856, 88.479650271044, 138.4904716899188 " fill="none" id="curve_5" stroke="#000000" stroke-linecap="round" stroke-linejoin="round" stroke-width="3.6797953474688603"/>
  <path d="M 88.66905942856563, 138.9969309412454 Q 88.56640068641684, 138.75624341091623, 88.38209079885928, 138.54987674120966 " fill="none" id="curve_7" stroke="#000000" stroke-linecap="round" stroke-linejoin="round" stroke-width="2.00347834056504"/>
  <path d="M 53.50156848318841, 45.99171415483817 Q 51.34061449230896, 46.66172497474178, 51.03807990573831, 54.457921844231976 " fill="none" id="curve_22" stroke="#000000" stroke-linecap="round" stroke-linejoin="round" stroke-width="2.5080158473641845"/>
  <path d="M 51.03807990573831, 54.457921844231976 Q 52.105337653602454, 61.35396319134445, 52.885387047612134, 72.34100750510873 " fill="none" id="curve_22" stroke="#000000" stroke-linecap="round" stroke-linejoin="round" stroke-width="2.9707039177352668"/>
  <path d="M 52.885387047612134, 72.34100750510873 Q 48.804804616431184, 81.69234808217368, 40.1445010689567, 92.66996361059438 " fill="none" id="curve_22" stroke="#000000" stroke-linecap="round" stroke-linejoin="round" stroke-width="2.5672417783099206"/>
  <path d="M 24.372634873225593, 95.85885553286604 Q 18.820519159945725, 92.83179676423511, 11.244587237064337, 87.595040406727 " fill="none" id="curve_23" stroke="#000000" stroke-linecap="round" stroke-linejoin="round" stroke-width="2.586133239899104"/>
  <path d="M 22.2421288785186, 40.70688526282535 Q 17.30469238317969, 46.97599297720826, 12.911306410839805, 60.43063808632046 " fill="none" id="curve_26" stroke="#000000" stroke-linecap="round" stroke-linejoin="round" stroke-width="2.7785895692934095"/>
  <path d="M 42.945938648314424, 26.213845091046792 Q 36.28912607085697, 28.95876026283974, 26.867168677617656, 34.52198699701403 " fill="none" id="curve_36" stroke="#000000" stroke-linecap="round" stroke-linejoin="round" stroke-width="2.756071606266452"/>
  <path d="M 86.7437914665669, 1.0160111886430414 Q 88.26911764286461, 1.2742238264109464, 89.41858311574714, 2.4406513314467597 " fill="none" id="curve_38" stroke="#000000" stroke-linecap="round" stroke-linejoin="round" stroke-width="2.8129128940645916"/>
  <path d="M 49.65163651127275, 36.19285684800905 Q 46.430141545312054, 33.459073176446545, 42.72510564492638, 28.864707353858034 " fill="none" id="curve_40" stroke="#000000" stroke-linecap="round" stroke-linejoin="round" stroke-width="2.3332378269573426"/>
  <path d="M 10.464586200596464, 60.97921806841666 Q 10.083141172801152, 77.03365281690597, 8.460212429134629, 84.1904931687324 " fill="none" id="curve_41" stroke="#000000" stroke-linecap="round" stroke-linejoin="round" stroke-width="2.7914695675441217"/>
  <path d="M 29.90039501262028, 31.983298635139548 Q 29.990419720387514, 31.86353278507826, 30.107009793747267, 31.667550735963616 " fill="none" id="curve_45" stroke="#000000" stroke-linecap="round" stroke-linejoin="round" stroke-width="3.806618319076752"/>
  <path d="M 55.11020730482326, 42.61937592051401 Q 55.875478699693545, 36.699320442795965, 57.31463913173951, 30.269145243599453 " fill="none" id="curve_47" stroke="#000000" stroke-linecap="round" stroke-linejoin="round" stroke-width="2.243246128986439"/>
  <path d="M 27.910839686002387, 96.77018081753207 Q 29.21439362965912, 96.32613141641848, 31.210713248278406, 95.78374588451531 " fill="none" id="curve_51" stroke="#000000" stroke-linecap="round" stroke-linejoin="round" stroke-width="4.374698488954079"/>
  <path d="M 50.99674810894311, 64.5578949053804 Q 50.56850218651455, 64.983996697681, 50.27501551643405, 66.18538821786032 " fill="none" id="curve_58" stroke="#000000" stroke-linecap="round" stroke-linejoin="round" stroke-width="2.8916054310469392"/>
  <path d="M 18.76177543406436, 44.8260577216484 Q 18.694395970657666, 44.46488994726414, 18.553967408619034, 43.903858990167066 " fill="none" id="curve_99" stroke="#000000" stroke-linecap="round" stroke-linejoin="round" stroke-width="2.3432944555474795"/>
  <path d="M 29.195159766370654, 32.07765211004012 Q 30.47491272216018, 31.195130469383646, 36.003382409297885, 30.49012188841289 " fill="none" id="curve_101" stroke="#000000" stroke-linecap="round" stroke-linejoin="round" stroke-width="1.9384485429951477"/>
  <path d="M 31.598317661988823, 32.96972783505705 Q 30.790903375665707, 32.57918284509464, 29.09271009962014, 32.105384537742474 " fill="none" id="curve_107" stroke="#000000" stroke-linecap="round" stroke-linejoin="round" stroke-width="3.353494709623053"/>
  <path d="M 7.9530286448485965, 72.78104515065213 Q 8.473206105936715, 72.17812880270836, 9.373629959183498, 71.1129449604319 " fill="none" id="curve_112" stroke="#000000" stroke-linecap="round" stroke-linejoin="round" stroke-width="2.5347816281738833"/>
  <path d="M 29.647319020333168, 95.38266434985532 Q 28.112412927463375, 95.19382435066505, 26.07157411004389, 94.90329084478483 " fill="none" id="curve_129" stroke="#000000" stroke-linecap="round" stroke-linejoin="round" stroke-width="3.6740048050655263"/>
</svg>
