<?xml version="1.0" ?>
<svg height="140" width="140" xmlns="http://www.w3.org/2000/svg">
  <path d="M 57.794485092163086, 85.32143592834473 Q 57.20248970103789, 83.12957793391683, 56.75784334176932, 75.21739791838723 " fill="none" id="curve_1" stroke="#000000" stroke-linecap="round" stroke-linejoin="round" stroke-width="8.464060415846747"/>
  <path d="M 56.75784334176932, 75.21739791838723 Q 54.18379708051599, 67.70192749073058, 48.676022645272795, 57.857733067617275 " fill="none" id="curve_1" stroke="#000000" stroke-linecap="round" stroke-linejoin="round" stroke-width="8.302191478410833"/>
  <path d="M 48.676022645272795, 57.857733067617275 Q 48.49113045157367, 42.37235618803095, 41.52124640039211, 41.2372748388638 " fill="none" id="curve_1" stroke="#000000" stroke-linecap="round" stroke-linejoin="round" stroke-width="6.6905913143500735"/>
  <path d="M 41.52124640039211, 41.2372748388638 Q 30.825592355010066, 45.58980784585229, 18.35981296574679, 74.61865804052596 " fill="none" id="curve_1" stroke="#000000" stroke-linecap="round" stroke-linejoin="round" stroke-width="5.721474882517194"/>
  <path d="M 18.35981296574679, 74.61865804052596 Q 18.567458370971917, 107.43271651480941, 29.555978716595973, 109.3292777073745 " fill="none" id="curve_1" stroke="#000000" stroke-linecap="round" stroke-linejoin="round" stroke-width="4.78874268794438"/>
  <path d="M 29.555978716595973, 109.3292777073745 Q 51.4773519209141, 106.7135194793219, 58.22046338940115, 83.29391588712042 " fill="none" id="curve_1" stroke="#000000" stroke-linecap="round" stroke-linejoin="round" stroke-width="6.120998478667249"/>
  <path d="M 44.072173998060975, 58.27687428626564 Q 44.097720234097814, 58.80638949891961, 44.16251825163447, 59.24825846560347 " fill="none" id="curve_2" stroke="#000000" stroke-linecap="round" stroke-linejoin="round" stroke-width="7.798236752480367"/>
  <path d="M 87.07963322548494, 45.272012471898556 Q 89.48104925616704, 46.891233613609494, 89.86715462984515, 82.60501943773414 " fill="none" id="curve_3" stroke="#000000" stroke-linecap="round" stroke-linejoin="round" stroke-width="2.37873405770508"/>
  <path d="M 89.86715462984515, 82.60501943773414 Q 89.66722270472755, 89.10763741623167, 89.33619756306837, 122.26514222731299 " fill="none" id="curve_3" stroke="#000000" stroke-linecap="round" stroke-linejoin="round" stroke-width="2.297237271830558"/>
  <path d="M 89.33619756306837, 122.26514222731299 Q 89.33506431905954, 132.71336321807834, 89.33180231575861, 138.0917116795132 " fill="none" id="curve_3" stroke="#000000" stroke-linecap="round" stroke-linejoin="round" stroke-width="2.9308231994840317"/>
  <path d="M 89.33180231575861, 138.0917116795132 Q 89.24106772472025, 138.425403808142, 89.05186702535369, 138.71695248387786 " fill="none" id="curve_3" stroke="#000000" stroke-linecap="round" stroke-linejoin="round" stroke-width="2.1235566541761006"/>
  <path d="M 89.25958568312623, 46.49750572194888 Q 89.19645454625466, 42.90166124144281, 89.10035493523092, 29.4869018994693 " fill="none" id="curve_8" stroke="#000000" stroke-linecap="round" stroke-linejoin="round" stroke-width="2.2864970350661022"/>
  <path d="M 89.10035493523092, 29.4869018994693 Q 89.09782549929805, 23.54015948421126, 89.08811548710085, 13.312782266304087 " fill="none" id="curve_8" stroke="#000000" stroke-linecap="round" stroke-linejoin="round" stroke-width="2.436615910475065"/>
  <path d="M 89.08811548710085, 13.312782266304087 Q 89.02575479695763, 2.4922312414811927, 86.76965853024656, 1.63468711621017 " fill="none" id="curve_8" stroke="#000000" stroke-linecap="round" stroke-linejoin="round" stroke-width="4.3807961285942225"/>
  <path d="M 86.76965853024656, 1.63468711621017 Q 88.59096966833167, 1.7539167390955523, 89.70924126093642, 2.014748819486675 " fill="none" id="curve_8" stroke="#000000" stroke-linecap="round" stroke-linejoin="round" stroke-width="2.584661127038921"/>
  <path d="M 46.775209177924424, 47.81135311882049 Q 53.025256741817024, 48.96336581832227, 53.914673033833054, 59.61038288461993 " fill="none" id="curve_11" stroke="#000000" stroke-linecap="round" stroke-linejoin="round" stroke-width="4.080510509219022"/>
  <path d="M 53.914673033833054, 59.61038288461993 Q 44.55765149204967, 59.21170140906422, 39.10851002393735, 56.915156358938084 " fill="none" id="curve_11" stroke="#000000" stroke-linecap="round" stroke-linejoin="round" stroke-width="3.442095365447309"/>
  <path d="M 44.312860398090045, 45.74131949254864 Q 27.39892310774921, 46.09088578283599, 22.86316566804632, 57.49789982707455 " fill="none" id="curve_12" stroke="#000000" stroke-linecap="round" stroke-linejoin="round" stroke-width="2.862736932893682"/>
  <path d="M 60.188191770665, 79.98676340410576 Q 59.47073361046847, 90.33718217072723, 48.87231707159664, 96.07593592868474 " fill="none" id="curve_14" stroke="#000000" stroke-linecap="round" stroke-linejoin="round" stroke-width="4.596991632534688"/>
  <path d="M 48.87231707159664, 96.07593592868474 Q 46.777871495993985, 102.02686903629197, 34.081057884558916, 106.08839735510797 " fill="none" id="curve_14" stroke="#000000" stroke-linecap="round" stroke-linejoin="round" stroke-width="3.6366061260540317"/>
  <path d="M 19.878020866517648, 98.00941791408849 Q 17.129564550802463, 97.22023381039307, 16.760766333639054, 82.40556819516473 " fill="none" id="curve_15" stroke="#000000" stroke-linecap="round" stroke-linejoin="round" stroke-width="3.849805647086968"/>
  <path d="M 55.93366418655801, 84.74486475943797 Q 55.77680018904056, 92.65101804142044, 54.096625335613304, 94.27010116041484 " fill="none" id="curve_18" stroke="#000000" stroke-linecap="round" stroke-linejoin="round" stroke-width="7.2511405255300305"/>
  <path d="M 54.096625335613304, 94.27010116041484 Q 55.100682311118945, 88.96466962480334, 57.38481953013233, 85.76201513378955 " fill="none" id="curve_18" stroke="#000000" stroke-linecap="round" stroke-linejoin="round" stroke-width="6.557728819068544"/>
  <path d="M 31.627980554587182, 107.39600470167362 Q 23.212090959056468, 106.81973317736254, 20.881201057889122, 101.76037715245346 " fill="none" id="curve_19" stroke="#000000" stroke-linecap="round" stroke-linejoin="round" stroke-width="4.17873823521176"/>
  <path d="M 20.60835249097576, 69.09679450439758 Q 21.757192314512643, 58.88755158359585, 28.205747162221442, 54.132438812705196 " fill="none" id="curve_20" stroke="#000000" stroke-linecap="round" stroke-linejoin="round" stroke-width="3.110385313160746"/>
  <path d="M 28.205747162221442, 54.132438812705196 Q 30.098311385529385, 46.404088028974385, 39.514519216037414, 42.95063068445793 " fill="none" id="curve_20" stroke="#000000" stroke-linecap="round" stroke-linejoin="round" stroke-width="3.46280115396241"/>
  <path d="M 42.65270763011927, 60.67841473125132 Q 47.23742843838521, 62.16142865102656, 52.12381395853963, 64.69023450267177 " fill="none" id="curve_21" stroke="#000000" stroke-linecap="round" stroke-linejoin="round" stroke-width="3.1028029068135865"/>
  <path d="M 55.79003499856545, 90.13454652369998 Q 56.297308468171096, 89.93094006548411, 56.675839648248974, 88.859139338626 " fill="none" id="curve_22" stroke="#000000" stroke-linecap="round" stroke-linejoin="round" stroke-width="6.393888678882638"/>
  <path d="M 56.675839648248974, 88.859139338626 Q 54.07843854426351, 93.00292423108765, 45.52975772772329, 96.89238177163656 " fill="none" id="curve_22" stroke="#000000" stroke-linecap="round" stroke-linejoin="round" stroke-width="3.9150355977559945"/>
  <path d="M 34.54508156391895, 46.86994651420753 Q 33.826104586308546, 47.81624046962679, 32.51675545358649, 48.877462740792495 " fill="none" id="curve_24" stroke="#000000" stroke-linecap="round" stroke-linejoin="round" stroke-width="7.102916169523289"/>
  <path d="M 89.23239378552509, 7.939396339284862 Q 88.60689353699992, 3.874913284200649, 85.0130600668549, 1.9216082515141668 " fill="none" id="curve_27" stroke="#000000" stroke-linecap="round" stroke-linejoin="round" stroke-width="3.0325972590980617"/>
  <path d="M 31.054209112311582, 47.57164428942406 Q 31.603645390126875, 47.276054631930606, 33.91578596595859, 46.74092096346737 " fill="none" id="curve_42" stroke="#000000" stroke-linecap="round" stroke-linejoin="round" stroke-width="2.567458132065234"/>
  <path d="M 44.86261293419568, 39.74562762133489 Q 42.212251878051646, 40.41531238772045, 38.15080560685014, 42.446152659132025 " fill="none" id="curve_83" stroke="#000000" stroke-linecap="round" stroke-linejoin="round" stroke-width="2.1832528103419775"/>
  <path d="M 60.472897389211994, 85.63955196634515 Q 59.7527343905428, 84.57115507311015, 56.08428908563379, 84.17156153135777 " fill="none" id="curve_98" stroke="#000000" stroke-linecap="round" stroke-linejoin="round" stroke-width="7.09767952526272"/>
  <path d="M 24.65856664740077, 61.4022040475674 Q 21.58745254830927, 64.60304128802639, 19.62097496926937, 77.4508036057694 " fill="none" id="curve_127" stroke="#000000" stroke-linecap="round" stroke-linejoin="round" stroke-width="2.83966493345596"/>
  <path d="M 42.90572655138424, 58.38712868910237 Q 41.39584755493498, 58.237777209818525, 39.65963946778979, 57.8845719278091 " fill="none" id="curve_135" stroke="#000000" stroke-linecap="round" stroke-linejoin="round" stroke-width="3.864194540844735"/>
</svg>
