<?xml version="1.0" ?>
<svg height="140" width="140" xmlns="http://www.w3.org/2000/svg">
  <path d="M 58.94520378112793, 84.03067207336426 Q 56.77294901506241, 91.14541902349737, 41.42130249107845, 99.72798785120494 " fill="none" id="curve_1" stroke="#000000" stroke-linecap="round" stroke-linejoin="round" stroke-width="5.307016025565725"/>
  <path d="M 41.42130249107845, 99.72798785120494 Q 38.172414507547366, 102.12373933972125, 28.226103482182346, 103.09308280826932 " fill="none" id="curve_1" stroke="#000000" stroke-linecap="round" stroke-linejoin="round" stroke-width="5.57116522465677"/>
  <path d="M 28.226103482182346, 103.09308280826932 Q 18.316500487047765, 101.52408066612271, 15.418997410713622, 89.40930089622395 " fill="none" id="curve_1" stroke="#000000" stroke-linecap="round" stroke-linejoin="round" stroke-width="5.611788253897839"/>
  <path d="M 15.418997410713622, 89.40930089622395 Q 16.119822547347294, 71.57482904059617, 25.512076551088235, 63.69437029840674 " fill="none" id="curve_1" stroke="#000000" stroke-linecap="round" stroke-linejoin="round" stroke-width="5.66760982704053"/>
  <path d="M 25.512076551088235, 63.69437029840674 Q 29.97586208925078, 58.28086233517445, 40.15595242454597, 54.88328584379991 " fill="none" id="curve_1" stroke="#000000" stroke-linecap="round" stroke-linejoin="round" stroke-width="5.728494177640837"/>
  <path d="M 40.15595242454597, 54.88328584379991 Q 57.283798202874294, 58.132221123787566, 61.86242923229076, 78.39093152504509 " fill="none" id="curve_1" stroke="#000000" stroke-linecap="round" stroke-linejoin="round" stroke-width="4.2457105690808765"/>
  <path d="M 61.86242923229076, 78.39093152504509 Q 59.62433510544767, 83.68720375876543, 56.19910937952326, 88.13856564060906 " fill="none" id="curve_1" stroke="#000000" stroke-linecap="round" stroke-linejoin="round" stroke-width="4.172965669674096"/>
  <path d="M 89.41402105269789, 78.14975041311725 Q 89.42036205269741, 86.52420711861481, 89.441155548905, 116.76771687879818 " fill="none" id="curve_2" stroke="#000000" stroke-linecap="round" stroke-linejoin="round" stroke-width="2.4958166837811855"/>
  <path d="M 89.441155548905, 116.76771687879818 Q 89.38934666401244, 132.80218334470698, 89.15491200839904, 138.35240541223254 " fill="none" id="curve_2" stroke="#000000" stroke-linecap="round" stroke-linejoin="round" stroke-width="2.428863812111693"/>
  <path d="M 89.3486570063167, 76.73515262389628 Q 89.46391304814613, 74.23433070233928, 89.53861569162889, 64.15819456512172 " fill="none" id="curve_5" stroke="#000000" stroke-linecap="round" stroke-linejoin="round" stroke-width="1.387674764122402"/>
  <path d="M 89.53861569162889, 64.15819456512172 Q 89.19462359198957, 63.84917259301384, 89.1629186106847, 50.03906171519507 " fill="none" id="curve_5" stroke="#000000" stroke-linecap="round" stroke-linejoin="round" stroke-width="2.2399235008703733"/>
  <path d="M 89.1629186106847, 50.03906171519507 Q 89.16154912204786, 46.927002852858244, 89.15969563887502, 35.69060913239842 " fill="none" id="curve_5" stroke="#000000" stroke-linecap="round" stroke-linejoin="round" stroke-width="2.3548004891579484"/>
  <path d="M 89.15969563887502, 35.69060913239842 Q 89.20675904182943, 28.18908915700465, 89.42737978468793, 22.248180087019794 " fill="none" id="curve_5" stroke="#000000" stroke-linecap="round" stroke-linejoin="round" stroke-width="1.8155580246108722"/>
  <path d="M 89.42737978468793, 22.248180087019794 Q 89.23637881640053, 21.680946214905912, 89.20729553697664, 9.614673178507154 " fill="none" id="curve_5" stroke="#000000" stroke-linecap="round" stroke-linejoin="round" stroke-width="2.157957414040295"/>
  <path d="M 89.20729553697664, 9.614673178507154 Q 89.11046696036553, 2.925344813339308, 88.29086963513463, 1.5278344475246026 " fill="none" id="curve_5" stroke="#000000" stroke-linecap="round" stroke-linejoin="round" stroke-width="3.1750322964297184"/>
  <path d="M 88.29086963513463, 1.5278344475246026 Q 87.81780547692809, 1.3211929086741319, 86.64501446901001, 1.2063764912648578 " fill="none" id="curve_5" stroke="#000000" stroke-linecap="round" stroke-linejoin="round" stroke-width="1.7523095338107344"/>
  <path d="M 89.27441341481119, 61.56712663676491 Q 89.16279591397429, 63.21606595025603, 88.67529177581187, 64.11127333261838 " fill="none" id="curve_8" stroke="#000000" stroke-linecap="round" stroke-linejoin="round" stroke-width="1.6659178796470602"/>
  <path d="M 58.170989165917376, 84.4040074059624 Q 59.732420211199354, 82.64072522854045, 60.2265370861678, 71.86668885403921 " fill="none" id="curve_10" stroke="#000000" stroke-linecap="round" stroke-linejoin="round" stroke-width="4.426583491336627"/>
  <path d="M 14.564827296707211, 79.26433246706316 Q 14.413747557594244, 83.90050862765848, 14.147108462734769, 88.09404089377303 " fill="none" id="curve_13" stroke="#000000" stroke-linecap="round" stroke-linejoin="round" stroke-width="2.8502859675854166"/>
  <path d="M 41.191412888419414, 57.07531622012018 Q 40.823910797661014, 57.25865920586304, 40.37606133380015, 57.634349116422406 " fill="none" id="curve_14" stroke="#000000" stroke-linecap="round" stroke-linejoin="round" stroke-width="3.9386320425668"/>
  <path d="M 62.75888311219248, 80.20936254640213 Q 61.932889039108304, 70.34183015793907, 55.05689129744762, 66.00983128454496 " fill="none" id="curve_29" stroke="#000000" stroke-linecap="round" stroke-linejoin="round" stroke-width="2.9575303157010495"/>
  <path d="M 42.05793811399281, 54.4140947713519 Q 25.42385720643078, 55.84835291590854, 19.18667924479199, 72.01262100843334 " fill="none" id="curve_31" stroke="#000000" stroke-linecap="round" stroke-linejoin="round" stroke-width="2.5548288423961023"/>
  <path d="M 19.408310296823966, 73.17545226905999 Q 17.561042557780834, 74.86937499524423, 14.692635717559817, 78.41034333010946 " fill="none" id="curve_38" stroke="#000000" stroke-linecap="round" stroke-linejoin="round" stroke-width="3.0375661308927544"/>
  <path d="M 51.325446575650425, 93.80072904594091 Q 46.78552445504415, 95.97927375438383, 40.863080543702516, 100.68016789684867 " fill="none" id="curve_39" stroke="#000000" stroke-linecap="round" stroke-linejoin="round" stroke-width="3.4981793618858164"/>
  <path d="M 40.863080543702516, 100.68016789684867 Q 49.88824711729072, 96.81996257207201, 58.562481198327134, 86.55206513940443 " fill="none" id="curve_39" stroke="#000000" stroke-linecap="round" stroke-linejoin="round" stroke-width="2.608966647876677"/>
  <path d="M 58.84144224203043, 68.69347221395819 Q 58.13881737244966, 66.80874954910827, 56.666827776797724, 64.21831736015957 " fill="none" id="curve_46" stroke="#000000" stroke-linecap="round" stroke-linejoin="round" stroke-width="3.5718961716581874"/>
  <path d="M 43.65690223326539, 53.98978427482379 Q 42.95836834796137, 54.50946574867831, 41.156035291014355, 55.42404826696643 " fill="none" id="curve_47" stroke="#000000" stroke-linecap="round" stroke-linejoin="round" stroke-width="3.374128145115004"/>
  <path d="M 63.62472031831222, 75.83714749967083 Q 58.8516554048034, 73.11040441171886, 53.863357451196066, 66.19099504323307 " fill="none" id="curve_63" stroke="#000000" stroke-linecap="round" stroke-linejoin="round" stroke-width="2.133546198010232"/>
  <path d="M 13.274732589195615, 87.29216034472807 Q 13.556434261363965, 83.90276855478986, 14.74294041531635, 82.49924770972159 " fill="none" id="curve_65" stroke="#000000" stroke-linecap="round" stroke-linejoin="round" stroke-width="3.4724932924063245"/>
  <path d="M 27.152357468680478, 100.99236328990459 Q 25.37130038070458, 100.39325517574655, 22.69625465349017, 99.6102207515822 " fill="none" id="curve_66" stroke="#000000" stroke-linecap="round" stroke-linejoin="round" stroke-width="2.8408755514726285"/>
  <path d="M 34.053437572063785, 100.79201198395083 Q 41.58248756592877, 99.31387058589847, 47.16967053597244, 94.87672307390721 " fill="none" id="curve_81" stroke="#000000" stroke-linecap="round" stroke-linejoin="round" stroke-width="2.483442818665372"/>
  <path d="M 52.069511478742854, 91.3730649893654 Q 48.38235559209738, 94.55492295949641, 41.58253039823273, 98.42301173397058 " fill="none" id="curve_97" stroke="#000000" stroke-linecap="round" stroke-linejoin="round" stroke-width="2.564669562274178"/>
  <path d="M 16.423063389569514, 74.17719727510463 Q 17.581095384532144, 74.83927084423055, 19.614553666897322, 75.57950175900248 " fill="none" id="curve_99" stroke="#000000" stroke-linecap="round" stroke-linejoin="round" stroke-width="3.213563803161085"/>
  <path d="M 45.97939197980668, 55.073427555439594 Q 45.67624291337372, 53.923922918445754, 41.2608761627795, 53.68402014214624 " fill="none" id="curve_140" stroke="#000000" stroke-linecap="round" stroke-linejoin="round" stroke-width="2.637335021563924"/>
</svg>
