<?xml version="1.0" ?>
<svg height="140" width="140" xmlns="http://www.w3.org/2000/svg">
  <path d="M 62.15473662810439, 114.15428626455402 Q 60.72101073539926, 120.15477034124217, 53.24157756765108, 124.04434453905321 " fill="none" id="curve_2" stroke="#000000" stroke-linecap="round" stroke-linejoin="round" stroke-width="5.579403627434111"/>
  <path d="M 53.24157756765108, 124.04434453905321 Q 46.80637087850991, 126.64984671723896, 36.54130443264192, 129.1511115556402 " fill="none" id="curve_2" stroke="#000000" stroke-linecap="round" stroke-linejoin="round" stroke-width="5.412178337367829"/>
  <path d="M 36.54130443264192, 129.1511115556402 Q 20.108331581275642, 127.51365893466559, 11.850171586913046, 108.47946189156814 " fill="none" id="curve_2" stroke="#000000" stroke-linecap="round" stroke-linejoin="round" stroke-width="5.565124568034874"/>
  <path d="M 11.850171586913046, 108.47946189156814 Q 8.211979178268916, 107.32551607173417, 7.150694138219723, 99.57005106246758 " fill="none" id="curve_2" stroke="#000000" stroke-linecap="round" stroke-linejoin="round" stroke-width="11.582014716897397"/>
  <path d="M 7.150694138219723, 99.57005106246758 Q 7.237880859182093, 89.11315194286821, 16.24386391784565, 88.77897042932528 " fill="none" id="curve_2" stroke="#000000" stroke-linecap="round" stroke-linejoin="round" stroke-width="5.529659533979133"/>
  <path d="M 16.24386391784565, 88.77897042932528 Q 16.492161277554363, 91.3890780970388, 30.13777651261143, 91.54260990815993 " fill="none" id="curve_2" stroke="#000000" stroke-linecap="round" stroke-linejoin="round" stroke-width="4.323870826006327"/>
  <path d="M 30.13777651261143, 91.54260990815993 Q 56.96887825179704, 91.98212863358687, 62.604465114312575, 105.42335552363363 " fill="none" id="curve_2" stroke="#000000" stroke-linecap="round" stroke-linejoin="round" stroke-width="4.408024523873622"/>
  <path d="M 62.604465114312575, 105.42335552363363 Q 62.62144195766878, 110.95243802518942, 62.77216859108105, 112.17852126015039 " fill="none" id="curve_2" stroke="#000000" stroke-linecap="round" stroke-linejoin="round" stroke-width="3.8479945482529905"/>
  <path d="M 89.7415168088767, 115.31632193411296 Q 89.2280033444923, 123.12915866674844, 88.78116867653699, 138.53028007016582 " fill="none" id="curve_3" stroke="#000000" stroke-linecap="round" stroke-linejoin="round" stroke-width="2.9745854016919835"/>
  <path d="M 88.98191444302718, 113.82196958595925 Q 89.05075691394903, 109.13931025448731, 89.1344628674958, 98.18380809068938 " fill="none" id="curve_4" stroke="#000000" stroke-linecap="round" stroke-linejoin="round" stroke-width="2.545007678318956"/>
  <path d="M 89.1344628674958, 98.18380809068938 Q 88.84211730546197, 97.11436405052459, 88.7701214386353, 80.85743033943623 " fill="none" id="curve_4" stroke="#000000" stroke-linecap="round" stroke-linejoin="round" stroke-width="3.4385814396367316"/>
  <path d="M 88.7701214386353, 80.85743033943623 Q 88.77989124262098, 77.47780305378747, 88.79237420890989, 60.372982341774716 " fill="none" id="curve_4" stroke="#000000" stroke-linecap="round" stroke-linejoin="round" stroke-width="3.376372695108619"/>
  <path d="M 88.79237420890989, 60.372982341774716 Q 88.78242676262329, 50.8786218159488, 88.73050856771265, 39.788745183049656 " fill="none" id="curve_4" stroke="#000000" stroke-linecap="round" stroke-linejoin="round" stroke-width="3.3783389308439613"/>
  <path d="M 88.73050856771265, 39.788745183049656 Q 88.7431287860993, 33.89290668170883, 88.77409877036915, 17.843066830574486 " fill="none" id="curve_4" stroke="#000000" stroke-linecap="round" stroke-linejoin="round" stroke-width="3.4003075921279446"/>
  <path d="M 88.77409877036915, 17.843066830574486 Q 88.76304571349768, 5.560728969577491, 88.68693684562315, 1.7534239435659522 " fill="none" id="curve_4" stroke="#000000" stroke-linecap="round" stroke-linejoin="round" stroke-width="3.1563727937218924"/>
  <path d="M 88.68693684562315, 1.7534239435659522 Q 88.88477300259042, 1.7147586090948916, 89.08534990308755, 1.6505021248639402 " fill="none" id="curve_4" stroke="#000000" stroke-linecap="round" stroke-linejoin="round" stroke-width="2.5671674635370794"/>
  <path d="M 27.164859630283477, 94.70474602784023 Q 25.05647198450726, 92.59946419508486, 19.762425659008095, 90.23880810972713 " fill="none" id="curve_9" stroke="#000000" stroke-linecap="round" stroke-linejoin="round" stroke-width="4.101140577698337"/>
  <path d="M 19.762425659008095, 90.23880810972713 Q 16.126496559012704, 93.89236505889063, 9.359522386575897, 97.34498296222412 " fill="none" id="curve_9" stroke="#000000" stroke-linecap="round" stroke-linejoin="round" stroke-width="2.734942071810047"/>
  <path d="M 7.653368537290913, 109.98814612574647 Q 15.846189729674274, 116.68137788395117, 23.97546288151475, 127.10230025163392 " fill="none" id="curve_10" stroke="#000000" stroke-linecap="round" stroke-linejoin="round" stroke-width="2.9377194913838047"/>
  <path d="M 23.97546288151475, 127.10230025163392 Q 22.481223488649697, 118.88721347284445, 14.303636915356687, 115.27689562009145 " fill="none" id="curve_10" stroke="#000000" stroke-linecap="round" stroke-linejoin="round" stroke-width="4.596261270805262"/>
  <path d="M 14.303636915356687, 115.27689562009145 Q 15.319928027684226, 122.62778757495272, 20.986307065943038, 124.46022010743255 " fill="none" id="curve_10" stroke="#000000" stroke-linecap="round" stroke-linejoin="round" stroke-width="2.259940524936811"/>
  <path d="M 20.986307065943038, 124.46022010743255 Q 20.845875417357533, 115.65893719777652, 16.863818673321248, 115.08856269108857 " fill="none" id="curve_10" stroke="#000000" stroke-linecap="round" stroke-linejoin="round" stroke-width="3.3659263312307877"/>
  <path d="M 20.611362912092144, 88.41575003085887 Q 20.285681661769722, 87.87112318421907, 18.502726491598462, 87.67587330052785 " fill="none" id="curve_11" stroke="#000000" stroke-linecap="round" stroke-linejoin="round" stroke-width="3.0701760353990903"/>
  <path d="M 36.421318241033006, 90.90824880437683 Q 49.149524688913175, 91.65537053450133, 52.37889198564877, 97.70505743156382 " fill="none" id="curve_12" stroke="#000000" stroke-linecap="round" stroke-linejoin="round" stroke-width="1.9643775593950743"/>
  <path d="M 88.59332258158378, 138.99897076581092 Q 88.45670641407753, 138.61632959766558, 88.28928413870578, 138.07889418773652 " fill="none" id="curve_14" stroke="#000000" stroke-linecap="round" stroke-linejoin="round" stroke-width="2.831218568912436"/>
  <path d="M 88.31438874895976, 112.42239371312243 Q 88.46563308159163, 110.61213594494906, 88.67642096718832, 108.57764248541932 " fill="none" id="curve_15" stroke="#000000" stroke-linecap="round" stroke-linejoin="round" stroke-width="2.5641025314221024"/>
  <path d="M 61.963490207731994, 108.44165823314036 Q 60.172457994684585, 104.4291872113796, 57.2299574942742, 98.96235817426327 " fill="none" id="curve_16" stroke="#000000" stroke-linecap="round" stroke-linejoin="round" stroke-width="2.4551497242002918"/>
  <path d="M 20.583096558334603, 93.23165702926205 Q 19.017452738369624, 92.92762100958798, 17.640966324551787, 92.15005670300319 " fill="none" id="curve_17" stroke="#000000" stroke-linecap="round" stroke-linejoin="round" stroke-width="4.1232842229042665"/>
  <path d="M 47.97208007114458, 91.82489745898808 Q 44.85345437639609, 91.7999027712083, 38.06605768002214, 91.75174837544924 " fill="none" id="curve_18" stroke="#000000" stroke-linecap="round" stroke-linejoin="round" stroke-width="2.440685066447732"/>
  <path d="M 88.71085913776294, 96.00252739204585 Q 88.57495628174553, 95.11539221349997, 88.37649798355793, 93.8567964966234 " fill="none" id="curve_21" stroke="#000000" stroke-linecap="round" stroke-linejoin="round" stroke-width="2.4075054794989517"/>
  <path d="M 41.699594383620386, 92.30975744517079 Q 40.60149239813867, 90.88818010965264, 33.00204423040933, 90.36904531543478 " fill="none" id="curve_38" stroke="#000000" stroke-linecap="round" stroke-linejoin="round" stroke-width="2.58079046124276"/>
  <path d="M 34.56917992102977, 128.30234692312573 Q 32.780128523771296, 126.7588418706843, 28.37834026538111, 125.07762226247344 " fill="none" id="curve_68" stroke="#000000" stroke-linecap="round" stroke-linejoin="round" stroke-width="1.945512525374212"/>
  <path d="M 11.992705367678523, 104.14640867609688 Q 12.306118068226372, 103.64063551704885, 12.631464099403132, 99.85093908542233 " fill="none" id="curve_70" stroke="#000000" stroke-linecap="round" stroke-linejoin="round" stroke-width="1.62894515944941"/>
  <path d="M 21.918891848567355, 88.34642188723001 Q 21.540518354990724, 88.18557297220512, 20.846742024768858, 87.9872335596873 " fill="none" id="curve_71" stroke="#000000" stroke-linecap="round" stroke-linejoin="round" stroke-width="2.657325874797828"/>
</svg>
