<?xml version="1.0" ?>
<svg height="140" width="140" xmlns="http://www.w3.org/2000/svg">
  <path d="M 43.99941635131836, 76.92219161987305 Q 32.47186934870659, 78.13736352483535, 24.75114670247558, 100.05455231800852 " fill="none" id="curve_1" stroke="#000000" stroke-linecap="round" stroke-linejoin="round" stroke-width="5.312514179759393"/>
  <path d="M 24.75114670247558, 100.05455231800852 Q 23.047061762798965, 100.80213789525834, 22.90263356230697, 115.96622484334765 " fill="none" id="curve_1" stroke="#000000" stroke-linecap="round" stroke-linejoin="round" stroke-width="5.669081317866739"/>
  <path d="M 22.90263356230697, 115.96622484334765 Q 25.54536080240533, 118.8262805780653, 31.51909263336678, 120.28248027913928 " fill="none" id="curve_1" stroke="#000000" stroke-linecap="round" stroke-linejoin="round" stroke-width="5.278821274461443"/>
  <path d="M 31.51909263336678, 120.28248027913928 Q 44.12652624361168, 117.20073361388766, 54.505497866390215, 97.0094456072496 " fill="none" id="curve_1" stroke="#000000" stroke-linecap="round" stroke-linejoin="round" stroke-width="4.95849448702217"/>
  <path d="M 54.505497866390215, 97.0094456072496 Q 54.45103509905142, 84.65948219583117, 42.859553444619536, 84.4039118009164 " fill="none" id="curve_1" stroke="#000000" stroke-linecap="round" stroke-linejoin="round" stroke-width="5.369927237970576"/>
  <path d="M 42.859553444619536, 84.4039118009164 Q 35.579458026193905, 84.43603281599718, 33.22800297960584, 84.69471387478508 " fill="none" id="curve_1" stroke="#000000" stroke-linecap="round" stroke-linejoin="round" stroke-width="4.030396005454208"/>
  <path d="M 33.22800297960584, 84.69471387478508 Q 36.44929785340637, 78.5261608449827, 45.04665206379332, 74.72335132342707 " fill="none" id="curve_1" stroke="#000000" stroke-linecap="round" stroke-linejoin="round" stroke-width="3.7404067980323634"/>
  <path d="M 53.99713982917104, 86.63968929151315 Q 51.507379641011, 85.59841121039095, 47.51724467330114, 83.88623660448938 " fill="none" id="curve_2" stroke="#000000" stroke-linecap="round" stroke-linejoin="round" stroke-width="2.411942565621818"/>
  <path d="M 90.1257157849538, 95.67691825337354 Q 89.98627706940503, 102.98425188662503, 89.4611693203595, 106.66193457176809 " fill="none" id="curve_3" stroke="#000000" stroke-linecap="round" stroke-linejoin="round" stroke-width="2.2087696669527994"/>
  <path d="M 89.25002068952458, 90.94932616379003 Q 89.49144754739814, 89.28616572138486, 89.73243297366672, 86.48435341821859 " fill="none" id="curve_4" stroke="#000000" stroke-linecap="round" stroke-linejoin="round" stroke-width="1.783054470443604"/>
  <path d="M 89.48736903335579, 50.51663469579955 Q 89.42781913318521, 53.18921388767202, 89.35713649300651, 58.25300613516325 " fill="none" id="curve_7" stroke="#000000" stroke-linecap="round" stroke-linejoin="round" stroke-width="1.0428739041410735"/>
  <path d="M 89.79696207520338, 73.07887299629776 Q 89.5434755414615, 73.11346278424452, 89.272969283843, 73.17318756829468 " fill="none" id="curve_8" stroke="#000000" stroke-linecap="round" stroke-linejoin="round" stroke-width="1.9518927686023906"/>
  <path d="M 89.58691281809514, 36.328139983146144 Q 89.55946852492742, 35.307251221523416, 89.5082682877047, 34.40891770152971 " fill="none" id="curve_10" stroke="#000000" stroke-linecap="round" stroke-linejoin="round" stroke-width="1.691292150201733"/>
  <path d="M 89.22266872349569, 3.841825091541409 Q 89.45227881569964, 2.8090770588278664, 89.72161184677088, 0.8255984865821273 " fill="none" id="curve_25" stroke="#000000" stroke-linecap="round" stroke-linejoin="round" stroke-width="1.6120259708259723"/>
  <path d="M 90.0081434249878, 135.40905380249023 Q 89.976328716461, 137.949588618289, 89.83787514593281, 139.2839692651304 " fill="none" id="curve_39" stroke="#000000" stroke-linecap="round" stroke-linejoin="round" stroke-width="1.5803595135054482"/>
  <path d="M 89.4910627433344, 124.95428264092038 Q 89.44431515382003, 125.07313933024352, 89.38660654782294, 125.28916939509212 " fill="none" id="curve_40" stroke="#000000" stroke-linecap="round" stroke-linejoin="round" stroke-width="1.6782154550851731"/>
  <path d="M 49.65442766938264, 102.3869385291422 Q 47.695497842245516, 111.86673512885442, 33.45546105229162, 117.80268945384607 " fill="none" id="curve_44" stroke="#000000" stroke-linecap="round" stroke-linejoin="round" stroke-width="2.5454566702581096"/>
  <path d="M 29.078447824154946, 90.70986079975124 Q 32.09173321635946, 89.67831449809809, 33.10224074252217, 84.19542614205979 " fill="none" id="curve_45" stroke="#000000" stroke-linecap="round" stroke-linejoin="round" stroke-width="3.9100220758257755"/>
  <path d="M 45.66378069800819, 107.01453817317399 Q 51.91353470642594, 106.5324620025509, 53.24067498862918, 101.61493193757919 " fill="none" id="curve_47" stroke="#000000" stroke-linecap="round" stroke-linejoin="round" stroke-width="3.321094450365459"/>
  <path d="M 37.15368935600676, 78.39792233220152 Q 30.859208505997394, 84.74099978837579, 23.065575856329836, 99.50894781717984 " fill="none" id="curve_48" stroke="#000000" stroke-linecap="round" stroke-linejoin="round" stroke-width="2.648424954746483"/>
  <path d="M 53.501695762305985, 88.87491697184906 Q 54.669033097062155, 89.45030198484122, 55.53109541466181, 90.77887127196372 " fill="none" id="curve_64" stroke="#000000" stroke-linecap="round" stroke-linejoin="round" stroke-width="3.3416687334196733"/>
  <path d="M 89.52433418616367, 48.93984180757798 Q 89.57192850059587, 47.782147207097715, 89.6341476200515, 45.54598514079754 " fill="none" id="curve_79" stroke="#000000" stroke-linecap="round" stroke-linejoin="round" stroke-width="1.3805059375358641"/>
  <path d="M 38.91753286859216, 78.81682017968474 Q 33.474341867551544, 80.16657940505169, 29.55116106993502, 86.36456170091658 " fill="none" id="curve_94" stroke="#000000" stroke-linecap="round" stroke-linejoin="round" stroke-width="2.480483611405055"/>
  <path d="M 53.7497541095396, 97.59905483940838 Q 52.5366676769532, 98.11016923713626, 51.517762420400466, 99.62674675108046 " fill="none" id="curve_124" stroke="#000000" stroke-linecap="round" stroke-linejoin="round" stroke-width="3.284266292355232"/>
  <path d="M 47.69508789026054, 86.84798111642931 Q 49.18651897246802, 86.21107548124454, 50.81090711109081, 85.09261412515217 " fill="none" id="curve_152" stroke="#000000" stroke-linecap="round" stroke-linejoin="round" stroke-width="3.674422625366268"/>
</svg>
