<?xml version="1.0" ?>
<svg height="140" width="140" xmlns="http://www.w3.org/2000/svg">
  <path d="M 43.881343841552734, 52.397193908691406 Q 43.85332819821053, 49.83158525654641, 42.21674925197793, 49.678385614595086 " fill="none" id="curve_1" stroke="#000000" stroke-linecap="round" stroke-linejoin="round" stroke-width="6.7766815923980035"/>
  <path d="M 42.21674925197793, 49.678385614595086 Q 30.11685291322061, 50.88658046585527, 27.39406612823268, 69.47590299711251 " fill="none" id="curve_1" stroke="#000000" stroke-linecap="round" stroke-linejoin="round" stroke-width="5.333692320854458"/>
  <path d="M 27.39406612823268, 69.47590299711251 Q 27.545166981756047, 94.47569308690653, 36.982695257032596, 95.46916614679918 " fill="none" id="curve_1" stroke="#000000" stroke-linecap="round" stroke-linejoin="round" stroke-width="4.903191111866968"/>
  <path d="M 36.982695257032596, 95.46916614679918 Q 54.303016106862856, 94.01829393914404, 58.52276825844239, 70.65448876266488 " fill="none" id="curve_1" stroke="#000000" stroke-linecap="round" stroke-linejoin="round" stroke-width="5.006810447194639"/>
  <path d="M 58.52276825844239, 70.65448876266488 Q 58.350178529693956, 53.79839260730871, 44.02774757381943, 52.90686110231402 " fill="none" id="curve_1" stroke="#000000" stroke-linecap="round" stroke-linejoin="round" stroke-width="5.7405445301692914"/>
  <path d="M 44.02774757381943, 52.90686110231402 Q 44.37313587847125, 57.11947501042327, 51.8890196425739, 57.425119096069864 " fill="none" id="curve_1" stroke="#000000" stroke-linecap="round" stroke-linejoin="round" stroke-width="4.630926410705026"/>
  <path d="M 28.64586905511291, 90.8911987833459 Q 26.52137797203668, 89.61694441584257, 26.07597052276125, 72.70125506520786 " fill="none" id="curve_5" stroke="#000000" stroke-linecap="round" stroke-linejoin="round" stroke-width="2.970024191926329"/>
  <path d="M 42.67778884934128, 53.198954508133845 Q 42.40412225022552, 54.49532075338005, 41.74000573003053, 55.946478166413144 " fill="none" id="curve_6" stroke="#000000" stroke-linecap="round" stroke-linejoin="round" stroke-width="3.0067458402404577"/>
  <path d="M 60.3454867284021, 64.33816315237489 Q 58.291464313195206, 57.189395214068156, 48.039356057182175, 51.39998456708546 " fill="none" id="curve_7" stroke="#000000" stroke-linecap="round" stroke-linejoin="round" stroke-width="2.251186413139121"/>
  <path d="M 48.039356057182175, 51.39998456708546 Q 47.22137523744245, 50.009504768143834, 43.04400130151721, 49.24457453902251 " fill="none" id="curve_7" stroke="#000000" stroke-linecap="round" stroke-linejoin="round" stroke-width="2.5149888987573785"/>
  <path d="M 50.36844438105257, 90.46125173295243 Q 45.67148204604914, 90.64603426931713, 43.93494243605088, 92.02053467576735 " fill="none" id="curve_8" stroke="#000000" stroke-linecap="round" stroke-linejoin="round" stroke-width="3.6599891077572235"/>
  <path d="M 29.366710662841797, 57.30260133743286 Q 28.195572490357275, 60.35233614182463, 27.011516926690604, 67.99824138522695 " fill="none" id="curve_22" stroke="#000000" stroke-linecap="round" stroke-linejoin="round" stroke-width="3.6960587635769437"/>
  <path d="M 48.42474523746974, 87.92215499103158 Q 46.9265353012269, 88.73901144781392, 46.095110528285616, 91.12767422489988 " fill="none" id="curve_24" stroke="#000000" stroke-linecap="round" stroke-linejoin="round" stroke-width="3.5798562212770437"/>
  <path d="M 26.139555130936905, 75.41705574360616 Q 26.869009064882935, 60.10489113837035, 33.35718832433179, 55.24657228109421 " fill="none" id="curve_26" stroke="#000000" stroke-linecap="round" stroke-linejoin="round" stroke-width="3.4755246149814547"/>
  <path d="M 33.35718832433179, 55.24657228109421 Q 29.326092881963692, 59.36578942649805, 26.685796024924674, 67.8512050752001 " fill="none" id="curve_26" stroke="#000000" stroke-linecap="round" stroke-linejoin="round" stroke-width="3.644647115157427"/>
  <path d="M 26.715332773566168, 72.79292613851331 Q 27.96612165416409, 62.71116026714106, 32.591198851311084, 56.798278018158115 " fill="none" id="curve_28" stroke="#000000" stroke-linecap="round" stroke-linejoin="round" stroke-width="3.2322886708713505"/>
  <path d="M 32.49279602967662, 92.4303945545747 Q 35.55643647977125, 93.60613413097406, 41.73115940215902, 94.65059320028041 " fill="none" id="curve_39" stroke="#000000" stroke-linecap="round" stroke-linejoin="round" stroke-width="2.7347501295118812"/>
  <path d="M 27.599630496180538, 65.17876434652266 Q 28.348866406419802, 59.00383908163912, 32.8945606489176, 56.496825201286654 " fill="none" id="curve_40" stroke="#000000" stroke-linecap="round" stroke-linejoin="round" stroke-width="2.9820998865526276"/>
  <path d="M 25.595166279985015, 73.73496209611645 Q 28.600434928972085, 66.29749062125339, 32.971216338495864, 54.88637405860176 " fill="none" id="curve_45" stroke="#000000" stroke-linecap="round" stroke-linejoin="round" stroke-width="2.892193141547496"/>
  <path d="M 56.78797627003371, 69.23537886024246 Q 56.798402850075156, 68.34626997734834, 56.810437582916386, 66.89125362609023 " fill="none" id="curve_60" stroke="#000000" stroke-linecap="round" stroke-linejoin="round" stroke-width="3.9028281625893344"/>
  <path d="M 29.35638391997143, 59.63110533447779 Q 28.619892830391816, 62.25263950719572, 27.677439081404295, 69.41874590110865 " fill="none" id="curve_64" stroke="#000000" stroke-linecap="round" stroke-linejoin="round" stroke-width="2.7228017923130237"/>
  <path d="M 26.305003281401696, 69.48711806491474 Q 27.71539721697832, 68.3067614600951, 31.17038278018638, 67.03500174083409 " fill="none" id="curve_105" stroke="#000000" stroke-linecap="round" stroke-linejoin="round" stroke-width="3.1303924237611596"/>
  <path d="M 42.00370099255497, 96.45116899197569 Q 39.7539286826349, 94.34806622004322, 34.4290617330495, 92.11202017841424 " fill="none" id="curve_120" stroke="#000000" stroke-linecap="round" stroke-linejoin="round" stroke-width="2.3686739776793067"/>
  <path d="M 31.56021529302614, 56.11504548515688 Q 29.568408082285497, 57.84318910942551, 27.393787776440334, 61.523205178996534 " fill="none" id="curve_122" stroke="#000000" stroke-linecap="round" stroke-linejoin="round" stroke-width="2.903749027644513"/>
  <path d="M 89.80316978139479, 2.0970381854625657 Q 89.78261999899433, 1.5601014029232947, 89.72809756548617, 1.122562002367363 " fill="none" id="curve_150" stroke="#000000" stroke-linecap="round" stroke-linejoin="round" stroke-width="1.633183934068387"/>
  <path d="M 39.638177360192444, 53.18894207144769 Q 41.705466292326555, 51.013368226014755, 46.6291242635252, 48.77990979065751 " fill="none" id="curve_170" stroke="#000000" stroke-linecap="round" stroke-linejoin="round" stroke-width="2.668035389974889"/>
</svg>
