<?xml version="1.0" ?>
<svg height="140" width="140" xmlns="http://www.w3.org/2000/svg">
  <path d="M 20.897218227386475, 113.63381004333496 Q 20.98192654932497, 117.34752595624485, 25.37368773287804, 117.5826051003819 " fill="none" id="curve_1" stroke="#000000" stroke-linecap="round" stroke-linejoin="round" stroke-width="5.364871203190914"/>
  <path d="M 25.37368773287804, 117.5826051003819 Q 40.312419850769494, 117.13094757025885, 47.72015709334461, 113.03167522380745 " fill="none" id="curve_1" stroke="#000000" stroke-linecap="round" stroke-linejoin="round" stroke-width="4.570001621145812"/>
  <path d="M 47.72015709334461, 113.03167522380745 Q 60.10938307015346, 111.00561757081422, 64.85197122298165, 95.86721162254322 " fill="none" id="curve_1" stroke="#000000" stroke-linecap="round" stroke-linejoin="round" stroke-width="4.3958064754192945"/>
  <path d="M 64.85197122298165, 95.86721162254322 Q 63.88660577643246, 79.5689817069802, 46.40271985559481, 71.76078573153136 " fill="none" id="curve_1" stroke="#000000" stroke-linecap="round" stroke-linejoin="round" stroke-width="4.506465885612027"/>
  <path d="M 46.40271985559481, 71.76078573153136 Q 34.990350657437766, 71.28685982576727, 30.487118894078595, 68.88814157504821 " fill="none" id="curve_1" stroke="#000000" stroke-linecap="round" stroke-linejoin="round" stroke-width="2.800805224976102"/>
  <path d="M 30.487118894078595, 68.88814157504821 Q 18.239991878925636, 72.18395052854831, 7.4853952357099445, 88.53026021054363 " fill="none" id="curve_1" stroke="#000000" stroke-linecap="round" stroke-linejoin="round" stroke-width="4.836372495462307"/>
  <path d="M 7.4853952357099445, 88.53026021054363 Q 6.333036075534784, 97.20775485468712, 3.9544773355984155, 100.99026592630472 " fill="none" id="curve_1" stroke="#000000" stroke-linecap="round" stroke-linejoin="round" stroke-width="6.431741203318126"/>
  <path d="M 3.9544773355984155, 100.99026592630472 Q 9.418803656181773, 111.0504602424667, 20.644035082117973, 116.78629625044152 " fill="none" id="curve_1" stroke="#000000" stroke-linecap="round" stroke-linejoin="round" stroke-width="4.958719848574607"/>
  <path d="M 7.054435190910601, 89.87772319528354 Q 10.121068114001098, 77.74709963583261, 27.20720503772403, 70.10544734228556 " fill="none" id="curve_2" stroke="#000000" stroke-linecap="round" stroke-linejoin="round" stroke-width="3.464652198230196"/>
  <path d="M 27.20720503772403, 70.10544734228556 Q 24.604311555332714, 72.80175851015233, 20.096855581523585, 74.82836630780001 " fill="none" id="curve_2" stroke="#000000" stroke-linecap="round" stroke-linejoin="round" stroke-width="4.001549010549571"/>
  <path d="M 4.353406507685731, 96.55784510305227 Q 7.459685068210469, 91.3858010932132, 10.719351055200917, 83.9270419966984 " fill="none" id="curve_3" stroke="#000000" stroke-linecap="round" stroke-linejoin="round" stroke-width="3.4747348862755736"/>
  <path d="M 32.814812247512265, 69.24220468024157 Q 29.63429588433659, 69.45370260363468, 26.076236996381645, 69.84514316524782 " fill="none" id="curve_5" stroke="#000000" stroke-linecap="round" stroke-linejoin="round" stroke-width="3.7319068789653693"/>
  <path d="M 14.877266284782877, 110.61745669202116 Q 15.098545813453319, 110.59815045772753, 15.265532789672344, 110.53710341507794 " fill="none" id="curve_20" stroke="#000000" stroke-linecap="round" stroke-linejoin="round" stroke-width="3.4425213713549736"/>
  <path d="M 6.548354335697571, 91.53320387042709 Q 7.772324433210604, 86.74161027191361, 11.263152498922292, 82.8771614526499 " fill="none" id="curve_22" stroke="#000000" stroke-linecap="round" stroke-linejoin="round" stroke-width="2.738468696590264"/>
  <path d="M 33.269838130155904, 71.64519162996106 Q 32.6945573272456, 71.13779269337637, 32.03620481305785, 70.46301008157262 " fill="none" id="curve_37" stroke="#000000" stroke-linecap="round" stroke-linejoin="round" stroke-width="3.4834230247432574"/>
  <path d="M 53.18203550912247, 112.19515470564839 Q 54.99100509675899, 106.43528227361003, 62.99452908617912, 103.57755444268702 " fill="none" id="curve_41" stroke="#000000" stroke-linecap="round" stroke-linejoin="round" stroke-width="2.6270182716296784"/>
  <path d="M 51.97320595778399, 72.12056158744168 Q 51.46479651612707, 72.92872847113723, 50.16451024808358, 73.9643641646314 " fill="none" id="curve_48" stroke="#000000" stroke-linecap="round" stroke-linejoin="round" stroke-width="2.9377734314478854"/>
  <path d="M 4.392972862899411, 96.7129197852168 Q 6.960797188053632, 90.58287960143561, 10.837582610631912, 82.4925762747333 " fill="none" id="curve_54" stroke="#000000" stroke-linecap="round" stroke-linejoin="round" stroke-width="2.7978044503099"/>
  <path d="M 29.01495737080313, 119.48621237561872 Q 32.59557199256119, 116.56840422611756, 40.0808281469736, 114.14066702018398 " fill="none" id="curve_69" stroke="#000000" stroke-linecap="round" stroke-linejoin="round" stroke-width="2.5574031157816983"/>
  <path d="M 64.15861544406485, 83.77773867212389 Q 64.1743065813741, 86.59284226931652, 64.235240071312, 88.28264122762397 " fill="none" id="curve_71" stroke="#000000" stroke-linecap="round" stroke-linejoin="round" stroke-width="2.846552351546664"/>
  <path d="M 9.191198676684131, 86.06450739867222 Q 7.838264207868279, 88.41094201752105, 6.609308135141243, 94.31528202123667 " fill="none" id="curve_75" stroke="#000000" stroke-linecap="round" stroke-linejoin="round" stroke-width="3.3515063101293867"/>
  <path d="M 7.712822391222517, 86.4117116922965 Q 7.891152221808284, 89.49011544535026, 8.388645284748025, 92.21973488120777 " fill="none" id="curve_103" stroke="#000000" stroke-linecap="round" stroke-linejoin="round" stroke-width="3.2147976108532754"/>
  <path d="M 62.97465381730467, 98.29470957293653 Q 62.75118400054449, 98.8304707497652, 62.49386825598966, 99.7203517069266 " fill="none" id="curve_131" stroke="#000000" stroke-linecap="round" stroke-linejoin="round" stroke-width="3.8708277575287333"/>
</svg>
