<?xml version="1.0" ?>
<svg height="140" width="140" xmlns="http://www.w3.org/2000/svg">
  <path d="M 55.78281808057454, 70.18277457263753 Q 56.84567724963811, 76.3061874111882, 59.2735011984919, 80.79491518788305 " fill="none" id="curve_2" stroke="#000000" stroke-linecap="round" stroke-linejoin="round" stroke-width="3.601513654501243"/>
  <path d="M 59.2735011984919, 80.79491518788305 Q 58.767483518896725, 97.75948128297816, 48.93357192478768, 103.3490523336062 " fill="none" id="curve_2" stroke="#000000" stroke-linecap="round" stroke-linejoin="round" stroke-width="5.10521767178754"/>
  <path d="M 48.93357192478768, 103.3490523336062 Q 48.28176541211187, 106.93033185923103, 38.55307435913944, 107.24631704764937 " fill="none" id="curve_2" stroke="#000000" stroke-linecap="round" stroke-linejoin="round" stroke-width="5.6294827067813795"/>
  <path d="M 38.55307435913944, 107.24631704764937 Q 29.94583987483655, 104.50625134270213, 25.728793250655414, 88.15207401618588 " fill="none" id="curve_2" stroke="#000000" stroke-linecap="round" stroke-linejoin="round" stroke-width="5.0294418486147"/>
  <path d="M 25.728793250655414, 88.15207401618588 Q 27.164137067483768, 71.73689698822506, 42.32063911403627, 64.8317578435751 " fill="none" id="curve_2" stroke="#000000" stroke-linecap="round" stroke-linejoin="round" stroke-width="5.227463884976182"/>
  <path d="M 42.32063911403627, 64.8317578435751 Q 53.7031801322444, 65.50585918428419, 54.912067809793385, 73.60678865312148 " fill="none" id="curve_2" stroke="#000000" stroke-linecap="round" stroke-linejoin="round" stroke-width="5.307637611834685"/>
  <path d="M 27.07266045046408, 73.13953203090178 Q 27.049910304545744, 75.61376368797445, 27.023078023183924, 78.95405530494503 " fill="none" id="curve_3" stroke="#000000" stroke-linecap="round" stroke-linejoin="round" stroke-width="3.3230069173430388"/>
  <path d="M 51.974424383947174, 99.79489615939336 Q 54.45422973199418, 96.71119194489671, 57.8136506138551, 90.77228202804574 " fill="none" id="curve_4" stroke="#000000" stroke-linecap="round" stroke-linejoin="round" stroke-width="2.8132502827740344"/>
  <path d="M 45.05115129088446, 106.03439285751921 Q 50.56621162317468, 103.101564961568, 54.232925791443364, 95.70410451326808 " fill="none" id="curve_5" stroke="#000000" stroke-linecap="round" stroke-linejoin="round" stroke-width="2.9740497521702527"/>
  <path d="M 25.96616810663471, 83.33238377727399 Q 26.929501760937235, 85.65921465949971, 27.666366297406203, 92.81912755449116 " fill="none" id="curve_8" stroke="#000000" stroke-linecap="round" stroke-linejoin="round" stroke-width="3.2634446531419106"/>
  <path d="M 89.67168617248535, 1.8158035278320312 Q 89.68264827028175, 1.9880703877335397, 89.699673596955, 2.3733943039354912 " fill="none" id="curve_22" stroke="#000000" stroke-linecap="round" stroke-linejoin="round" stroke-width="1.9077423557938717"/>
  <path d="M 28.20424248817183, 88.72675809503684 Q 27.503275016988894, 87.364035984507, 26.378768412150748, 85.65196573061004 " fill="none" id="curve_26" stroke="#000000" stroke-linecap="round" stroke-linejoin="round" stroke-width="3.7856278312189016"/>
  <path d="M 39.99132396662853, 106.94057656296971 Q 38.54563981226936, 106.53387208187326, 36.28643478647633, 105.64039887193545 " fill="none" id="curve_32" stroke="#000000" stroke-linecap="round" stroke-linejoin="round" stroke-width="4.153074459213636"/>
  <path d="M 27.89398002684902, 85.59300725099024 Q 27.26851660584122, 84.30423293877871, 24.271273024503742, 83.37007787668523 " fill="none" id="curve_60" stroke="#000000" stroke-linecap="round" stroke-linejoin="round" stroke-width="2.9867956964082842"/>
  <path d="M 49.13679261292509, 101.32000178415639 Q 46.55243295146657, 103.50491852660431, 42.872347125526154, 107.47000700272997 " fill="none" id="curve_88" stroke="#000000" stroke-linecap="round" stroke-linejoin="round" stroke-width="2.822105286581059"/>
  <path d="M 42.872347125526154, 107.47000700272997 Q 37.73270672312603, 107.03553593879187, 35.20570551439569, 104.93879802390865 " fill="none" id="curve_88" stroke="#000000" stroke-linecap="round" stroke-linejoin="round" stroke-width="3.9594183749861744"/>
  <path d="M 31.880056475522817, 100.96054240646511 Q 33.16586927185427, 104.2711753232043, 37.55788806519097, 106.09565952835113 " fill="none" id="curve_90" stroke="#000000" stroke-linecap="round" stroke-linejoin="round" stroke-width="4.092854971616587"/>
  <path d="M 55.27364445259195, 72.8209257446118 Q 54.95567733689839, 65.50976345756847, 43.99231943608297, 64.44843904787695 " fill="none" id="curve_131" stroke="#000000" stroke-linecap="round" stroke-linejoin="round" stroke-width="2.6776306984835254"/>
</svg>
