<?xml version="1.0" ?>
<svg height="140" width="140" xmlns="http://www.w3.org/2000/svg">
  <path d="M 60.12819290161133, 100.40125370025635 Q 59.97075675978788, 105.39383808541798, 57.4278171288895, 106.97101517293947 " fill="none" id="curve_1" stroke="#000000" stroke-linecap="round" stroke-linejoin="round" stroke-width="5.889630487685492"/>
  <path d="M 57.4278171288895, 106.97101517293947 Q 55.28503967668048, 111.38795146613445, 42.5711898377057, 113.18608454441188 " fill="none" id="curve_1" stroke="#000000" stroke-linecap="round" stroke-linejoin="round" stroke-width="5.893657660575239"/>
  <path d="M 42.5711898377057, 113.18608454441188 Q 28.555690133124774, 113.1020504474453, 26.936159690061896, 111.13767555923957 " fill="none" id="curve_1" stroke="#000000" stroke-linecap="round" stroke-linejoin="round" stroke-width="5.057352447599943"/>
  <path d="M 26.936159690061896, 111.13767555923957 Q 18.58365115547837, 107.68247493507776, 11.659514670397412, 89.2374174894853 " fill="none" id="curve_1" stroke="#000000" stroke-linecap="round" stroke-linejoin="round" stroke-width="5.681013906302327"/>
  <path d="M 11.659514670397412, 89.2374174894853 Q 12.669249945578672, 69.94806802206064, 31.074603084673193, 62.98239105290189 " fill="none" id="curve_1" stroke="#000000" stroke-linecap="round" stroke-linejoin="round" stroke-width="5.208224343522129"/>
  <path d="M 31.074603084673193, 62.98239105290189 Q 32.92336485121701, 61.82464023328629, 43.01362078071906, 61.532918474286106 " fill="none" id="curve_1" stroke="#000000" stroke-linecap="round" stroke-linejoin="round" stroke-width="4.721027692249938"/>
  <path d="M 43.01362078071906, 61.532918474286106 Q 64.40846061208856, 63.656833125153575, 68.22232621296045, 86.09017541568835 " fill="none" id="curve_1" stroke="#000000" stroke-linecap="round" stroke-linejoin="round" stroke-width="4.115167563006418"/>
  <path d="M 68.22232621296045, 86.09017541568835 Q 66.06009887550813, 97.97624986114621, 61.190024096359686, 104.81500477956669 " fill="none" id="curve_1" stroke="#000000" stroke-linecap="round" stroke-linejoin="round" stroke-width="4.01469914454895"/>
  <path d="M 29.064164830114343, 110.65037794373295 Q 22.123552931295023, 106.39080306409964, 12.862702701783281, 96.77687906450635 " fill="none" id="curve_2" stroke="#000000" stroke-linecap="round" stroke-linejoin="round" stroke-width="2.7972743597982697"/>
  <path d="M 10.95912355010203, 82.05506649583863 Q 11.889245590916495, 74.61908914180242, 18.13692519103234, 70.73162596704525 " fill="none" id="curve_3" stroke="#000000" stroke-linecap="round" stroke-linejoin="round" stroke-width="2.389448039597114"/>
  <path d="M 46.09565183903999, 62.651914027791655 Q 47.45011162015391, 63.699631332324074, 48.7786675277493, 65.6799761548482 " fill="none" id="curve_4" stroke="#000000" stroke-linecap="round" stroke-linejoin="round" stroke-width="4.767764794224408"/>
  <path d="M 49.148535703943644, 61.113691779293866 Q 51.03241503285058, 62.27098544101313, 54.489896125970766, 63.49500789632164 " fill="none" id="curve_5" stroke="#000000" stroke-linecap="round" stroke-linejoin="round" stroke-width="2.725743575649535"/>
  <path d="M 66.0573358070603, 77.95610481445829 Q 65.91428563659105, 90.52309817876358, 65.49918957016621, 99.67734390496447 " fill="none" id="curve_13" stroke="#000000" stroke-linecap="round" stroke-linejoin="round" stroke-width="1.9488247642529706"/>
  <path d="M 49.27374023631933, 63.211234939776375 Q 49.09436364421463, 61.36309630607185, 45.502490816006194, 61.127517138061634 " fill="none" id="curve_14" stroke="#000000" stroke-linecap="round" stroke-linejoin="round" stroke-width="3.9917888859396635"/>
  <path d="M 89.57822704315186, 4.8334197998046875 Q 89.51372370066223, 7.9330936337492, 89.30133319536732, 10.264798475098303 " fill="none" id="curve_28" stroke="#000000" stroke-linecap="round" stroke-linejoin="round" stroke-width="2.1731035259379325"/>
  <path d="M 86.86875154166428, 1.6265016437266677 Q 87.55677927847243, 1.970652198917168, 88.02964280691552, 2.802421739274763 " fill="none" id="curve_29" stroke="#000000" stroke-linecap="round" stroke-linejoin="round" stroke-width="5.257110229955558"/>
  <path d="M 88.02964280691552, 2.802421739274763 Q 87.21088711141259, 1.753682390925804, 83.61227930723764, 1.3062113829600928 " fill="none" id="curve_29" stroke="#000000" stroke-linecap="round" stroke-linejoin="round" stroke-width="2.315229254616404"/>
  <path d="M 39.12724177257744, 114.79207585849801 Q 39.20387322784678, 115.11480460914989, 39.31282013299927, 115.63015066176159 " fill="none" id="curve_103" stroke="#000000" stroke-linecap="round" stroke-linejoin="round" stroke-width="3.247038865319756"/>
  <path d="M 11.783921931576678, 90.79706026611572 Q 11.808162560645025, 92.1221815026538, 11.939048140029229, 93.3119800036883 " fill="none" id="curve_104" stroke="#000000" stroke-linecap="round" stroke-linejoin="round" stroke-width="1.8721420691756394"/>
  <path d="M 23.785571246022563, 107.13246868377408 Q 17.89878589483913, 102.50209883912511, 10.650850963650393, 92.52020849570114 " fill="none" id="curve_150" stroke="#000000" stroke-linecap="round" stroke-linejoin="round" stroke-width="2.872530969277801"/>
</svg>
