<?xml version="1.0" ?>
<svg height="140" width="140" xmlns="http://www.w3.org/2000/svg">
  <path d="M 88.83144283586071, 138.5051954301554 Q 88.78469986720542, 135.15947665300885, 88.74087098875324, 117.99366776829629 " fill="none" id="curve_2" stroke="#000000" stroke-linecap="round" stroke-linejoin="round" stroke-width="3.412750261774151"/>
  <path d="M 88.74087098875324, 117.99366776829629 Q 88.74791135230878, 112.28366043212901, 88.76445759686023, 95.6369592662329 " fill="none" id="curve_2" stroke="#000000" stroke-linecap="round" stroke-linejoin="round" stroke-width="3.382966475154379"/>
  <path d="M 88.76445759686023, 95.6369592662329 Q 88.84051464654775, 85.22834178562745, 89.18512131605974, 74.98364136325462 " fill="none" id="curve_2" stroke="#000000" stroke-linecap="round" stroke-linejoin="round" stroke-width="2.705467426555564"/>
  <path d="M 89.18512131605974, 74.98364136325462 Q 89.28162152972205, 70.64808011363189, 89.38552541920164, 52.367397080219675 " fill="none" id="curve_2" stroke="#000000" stroke-linecap="round" stroke-linejoin="round" stroke-width="2.168462339175676"/>
  <path d="M 89.38552541920164, 52.367397080219675 Q 89.29511399593265, 48.8512206938119, 89.21476298373057, 31.06751192492415 " fill="none" id="curve_2" stroke="#000000" stroke-linecap="round" stroke-linejoin="round" stroke-width="2.2830935974756263"/>
  <path d="M 89.21476298373057, 31.06751192492415 Q 89.23340627490643, 25.163105292363138, 89.2780612682691, 9.333340765100239 " fill="none" id="curve_2" stroke="#000000" stroke-linecap="round" stroke-linejoin="round" stroke-width="2.3636389784809806"/>
  <path d="M 89.2780612682691, 9.333340765100239 Q 89.0637219782512, 4.440673919507709, 88.47707581882513, 1.6231665897319774 " fill="none" id="curve_2" stroke="#000000" stroke-linecap="round" stroke-linejoin="round" stroke-width="3.54875640502069"/>
  <path d="M 88.47707581882513, 1.6231665897319774 Q 88.35335633572593, 1.6616322926997042, 88.16033035630845, 1.7031518812635038 " fill="none" id="curve_2" stroke="#000000" stroke-linecap="round" stroke-linejoin="round" stroke-width="2.1247430585015232"/>
  <path d="M 57.33074962265978, 78.55574481902416 Q 54.07046897311074, 86.72863696510608, 43.507561184305445, 98.51061398472915 " fill="none" id="curve_7" stroke="#000000" stroke-linecap="round" stroke-linejoin="round" stroke-width="6.71278716902282"/>
  <path d="M 43.507561184305445, 98.51061398472915 Q 40.14029016711802, 103.5181019150919, 28.830673231756734, 105.60084849912158 " fill="none" id="curve_7" stroke="#000000" stroke-linecap="round" stroke-linejoin="round" stroke-width="5.738511819164831"/>
  <path d="M 28.830673231756734, 105.60084849912158 Q 17.545128955572764, 105.07882795348188, 16.2673814240056, 85.51211164584127 " fill="none" id="curve_7" stroke="#000000" stroke-linecap="round" stroke-linejoin="round" stroke-width="6.284538011891243"/>
  <path d="M 16.2673814240056, 85.51211164584127 Q 15.947100376830623, 75.73733905633482, 15.11875720936626, 69.50129111377964 " fill="none" id="curve_7" stroke="#000000" stroke-linecap="round" stroke-linejoin="round" stroke-width="7.087080270330012"/>
  <path d="M 15.11875720936626, 69.50129111377964 Q 17.503060314831785, 52.64819334389094, 27.73745966991295, 39.42314040939919 " fill="none" id="curve_7" stroke="#000000" stroke-linecap="round" stroke-linejoin="round" stroke-width="5.054090643182277"/>
  <path d="M 42.28496866452275, 66.23209338093702 Q 52.3959889550197, 68.63527001402063, 55.35879136526364, 77.40789755908986 " fill="none" id="curve_9" stroke="#000000" stroke-linecap="round" stroke-linejoin="round" stroke-width="6.373392449493136"/>
  <path d="M 36.0777543913715, 63.72467163023497 Q 28.41075628298196, 63.78814323724216, 27.02666528565119, 64.6098961567216 " fill="none" id="curve_10" stroke="#000000" stroke-linecap="round" stroke-linejoin="round" stroke-width="3.2934252853257417"/>
  <path d="M 33.80984981070014, 39.856415911330075 Q 33.44649189967763, 38.15019289686555, 28.436878620347088, 37.87049649122557 " fill="none" id="curve_11" stroke="#000000" stroke-linecap="round" stroke-linejoin="round" stroke-width="3.8849896486299977"/>
  <path d="M 54.21311518111208, 80.07310453194529 Q 51.938001014551304, 85.82652317933778, 48.77001322184198, 91.1214667114579 " fill="none" id="curve_13" stroke="#000000" stroke-linecap="round" stroke-linejoin="round" stroke-width="3.314304064826201"/>
  <path d="M 39.71861149594448, 65.04611166300822 Q 39.22559563062699, 64.83823785708516, 38.76380947637935, 64.52115797422364 " fill="none" id="curve_14" stroke="#000000" stroke-linecap="round" stroke-linejoin="round" stroke-width="7.1356294964121085"/>
  <path d="M 31.670561770200088, 40.39547364287663 Q 24.6326669880918, 41.02584091272961, 21.106013375501597, 44.98865538267302 " fill="none" id="curve_15" stroke="#000000" stroke-linecap="round" stroke-linejoin="round" stroke-width="3.4894070393283494"/>
  <path d="M 44.625039949560886, 69.81930039667866 Q 51.048312582448546, 70.68214417208478, 54.03982247873008, 74.05053584530893 " fill="none" id="curve_16" stroke="#000000" stroke-linecap="round" stroke-linejoin="round" stroke-width="4.4253669013569095"/>
  <path d="M 54.03982247873008, 74.05053584530893 Q 54.503201323262516, 74.15170631716299, 54.98995248744052, 74.51256174190219 " fill="none" id="curve_16" stroke="#000000" stroke-linecap="round" stroke-linejoin="round" stroke-width="3.149723359086313"/>
  <path d="M 54.98995248744052, 74.51256174190219 Q 55.197255589385286, 74.97561149465406, 55.48026574215818, 76.52266225763448 " fill="none" id="curve_16" stroke="#000000" stroke-linecap="round" stroke-linejoin="round" stroke-width="3.9268149501159937"/>
  <path d="M 35.41270552696417, 40.98427920714482 Q 35.50746734734348, 41.89240413580381, 35.79665038234319, 42.87857585929095 " fill="none" id="curve_19" stroke="#000000" stroke-linecap="round" stroke-linejoin="round" stroke-width="2.652159469304757"/>
  <path d="M 13.984934410181562, 77.16572535920295 Q 16.420778869169578, 96.54273544364554, 27.457231877969036, 105.25057104575909 " fill="none" id="curve_20" stroke="#000000" stroke-linecap="round" stroke-linejoin="round" stroke-width="2.6466833732977015"/>
  <path d="M 13.151310119673438, 73.60793946129101 Q 15.008283164279238, 85.30652754980781, 19.846000126414175, 100.13865356601625 " fill="none" id="curve_21" stroke="#000000" stroke-linecap="round" stroke-linejoin="round" stroke-width="2.61793411165078"/>
  <path d="M 33.64391177965194, 64.401320115527 Q 33.593616390955965, 62.485534536399236, 31.7566991175244, 62.30071002221502 " fill="none" id="curve_24" stroke="#000000" stroke-linecap="round" stroke-linejoin="round" stroke-width="2.5573754804421727"/>
  <path d="M 54.8944449428443, 77.50533264845407 Q 52.52791029035478, 78.74289146707501, 51.70025430970536, 87.09766665643683 " fill="none" id="curve_26" stroke="#000000" stroke-linecap="round" stroke-linejoin="round" stroke-width="3.3384453680917243"/>
  <path d="M 15.914132132366692, 87.02836043736855 Q 14.2134059270689, 85.34006175390111, 13.00151023498358, 80.57407119652211 " fill="none" id="curve_43" stroke="#000000" stroke-linecap="round" stroke-linejoin="round" stroke-width="2.8784138512791575"/>
  <path d="M 22.177462290214773, 44.64469848680481 Q 20.00961949986137, 48.82413049268135, 17.62042579653874, 54.74981380626713 " fill="none" id="curve_45" stroke="#000000" stroke-linecap="round" stroke-linejoin="round" stroke-width="2.8865797465087057"/>
  <path d="M 30.124295731365365, 63.87137253266459 Q 30.219001012825316, 64.25558252597882, 30.680516462667068, 64.75209316441291 " fill="none" id="curve_56" stroke="#000000" stroke-linecap="round" stroke-linejoin="round" stroke-width="2.8286095969168"/>
  <path d="M 46.61819162055532, 67.06871442259326 Q 50.52061692932034, 68.84009133037509, 54.919474007775705, 72.96517059922598 " fill="none" id="curve_59" stroke="#000000" stroke-linecap="round" stroke-linejoin="round" stroke-width="3.158612940452552"/>
  <path d="M 47.16552027104444, 66.94354387173605 Q 49.63982943591994, 69.25158797889793, 54.964450174999946, 73.07584662651063 " fill="none" id="curve_63" stroke="#000000" stroke-linecap="round" stroke-linejoin="round" stroke-width="2.77215738059265"/>
  <path d="M 29.178210663919593, 64.15825321292473 Q 29.874919199663765, 64.09638061024621, 32.17354656738982, 63.97026488545583 " fill="none" id="curve_68" stroke="#000000" stroke-linecap="round" stroke-linejoin="round" stroke-width="2.6036038034992535"/>
  <path d="M 47.978049002856096, 69.6447327590612 Q 52.7629927832316, 70.77517288286798, 57.741313280956916, 74.22470900681475 " fill="none" id="curve_74" stroke="#000000" stroke-linecap="round" stroke-linejoin="round" stroke-width="2.7265645844615722"/>
  <path d="M 40.05378133988764, 99.48543540251927 Q 38.71516634049509, 103.7325772218643, 27.341981126895156, 105.19851375309946 " fill="none" id="curve_79" stroke="#000000" stroke-linecap="round" stroke-linejoin="round" stroke-width="3.2261477385042405"/>
  <path d="M 53.7167763710022, 82.58193159103394 Q 53.40628324701218, 71.83862101567183, 48.06552453856739, 68.61916056091512 " fill="none" id="curve_93" stroke="#000000" stroke-linecap="round" stroke-linejoin="round" stroke-width="2.215506263928272"/>
  <path d="M 53.163681983947754, 85.06881332397461 Q 52.53196102179446, 90.73122475439112, 49.67511512658223, 93.70778992258852 " fill="none" id="curve_107" stroke="#000000" stroke-linecap="round" stroke-linejoin="round" stroke-width="2.9404619246878454"/>
  <path d="M 19.518611394795123, 94.78582942988015 Q 19.396135671327034, 87.94116043763188, 14.607555691044332, 87.45540703446407 " fill="none" id="curve_109" stroke="#000000" stroke-linecap="round" stroke-linejoin="round" stroke-width="2.740779494820401"/>
  <path d="M 26.90769739396258, 65.92737461375451 Q 26.476992300519726, 65.9060237334549, 26.1354230942842, 65.84833771824437 " fill="none" id="curve_110" stroke="#000000" stroke-linecap="round" stroke-linejoin="round" stroke-width="3.147445623370285"/>
  <path d="M 55.77252889101004, 77.44321822074699 Q 54.59689128396559, 76.88074547788358, 53.460161374771246, 75.69694228910635 " fill="none" id="curve_139" stroke="#000000" stroke-linecap="round" stroke-linejoin="round" stroke-width="4.120168221629766"/>
  <path d="M 27.23644048034296, 39.217316127512724 Q 24.956047468332738, 39.954008825848895, 22.631742278996658, 42.37604472794227 " fill="none" id="curve_140" stroke="#000000" stroke-linecap="round" stroke-linejoin="round" stroke-width="2.5642180015701506"/>
  <path d="M 11.7261701084104, 73.55990291228798 Q 12.39827296027335, 71.78776090798544, 14.65495736516893, 70.43994288204327 " fill="none" id="curve_144" stroke="#000000" stroke-linecap="round" stroke-linejoin="round" stroke-width="2.733262034325298"/>
  <path d="M 39.101884358410906, 64.66712685251123 Q 37.44847185773612, 63.46902885118163, 32.08379036591991, 62.622480670183705 " fill="none" id="curve_146" stroke="#000000" stroke-linecap="round" stroke-linejoin="round" stroke-width="2.5574042821707423"/>
  <path d="M 56.13879787821497, 77.04573308356339 Q 55.97771670722941, 76.6084438404719, 55.50568166365269, 76.20057452212248 " fill="none" id="curve_174" stroke="#000000" stroke-linecap="round" stroke-linejoin="round" stroke-width="2.528519877494805"/>
  <path d="M 39.73607228829969, 98.89070877022036 Q 37.70306679614706, 101.35523453812493, 32.64705130503847, 103.34799923322137 " fill="none" id="curve_209" stroke="#000000" stroke-linecap="round" stroke-linejoin="round" stroke-width="3.1045100165973305"/>
</svg>
