<?xml version="1.0" ?>
<svg height="140" width="140" xmlns="http://www.w3.org/2000/svg">
  <path d="M 42.01264953613281, 37.02582931518555 Q 36.32866565128001, 37.63380812721682, 32.17131237096578, 39.874155610201115 " fill="none" id="curve_1" stroke="#000000" stroke-linecap="round" stroke-linejoin="round" stroke-width="9.657018434288823"/>
  <path d="M 32.17131237096578, 39.874155610201115 Q 28.85123089819209, 44.89956448015006, 23.847238248900922, 51.53972473961582 " fill="none" id="curve_1" stroke="#000000" stroke-linecap="round" stroke-linejoin="round" stroke-width="7.003802502026659"/>
  <path d="M 23.847238248900922, 51.53972473961582 Q 19.895375017906613, 58.29702295201392, 11.28987286866112, 81.78356757162159 " fill="none" id="curve_1" stroke="#000000" stroke-linecap="round" stroke-linejoin="round" stroke-width="3.0677869358171352"/>
  <path d="M 11.28987286866112, 81.78356757162159 Q 9.585971443548221, 90.14750728339922, 8.155164149626835, 103.09173778134131 " fill="none" id="curve_1" stroke="#000000" stroke-linecap="round" stroke-linejoin="round" stroke-width="3.776015550335184"/>
  <path d="M 8.155164149626835, 103.09173778134131 Q 11.053895850005294, 115.70794025395081, 20.70450798687375, 120.34346925134341 " fill="none" id="curve_1" stroke="#000000" stroke-linecap="round" stroke-linejoin="round" stroke-width="4.314583485302997"/>
  <path d="M 20.70450798687375, 120.34346925134341 Q 40.10146109637079, 118.35689980495506, 47.01530632429663, 105.89351977070463 " fill="none" id="curve_1" stroke="#000000" stroke-linecap="round" stroke-linejoin="round" stroke-width="4.468538659535747"/>
  <path d="M 59.54957148485346, 84.5147582194721 Q 64.27066111868353, 80.49251471851575, 66.78648527890277, 54.27863731354472 " fill="none" id="curve_2" stroke="#000000" stroke-linecap="round" stroke-linejoin="round" stroke-width="3.4209639541622736"/>
  <path d="M 66.78648527890277, 54.27863731354472 Q 66.3723885697854, 51.14699359280693, 64.65594823974563, 50.035370345640864 " fill="none" id="curve_2" stroke="#000000" stroke-linecap="round" stroke-linejoin="round" stroke-width="3.102061375294675"/>
  <path d="M 52.07853055419194, 37.14454149106953 Q 41.618131588875045, 37.02621584636746, 38.18398757357922, 36.169921406235495 " fill="none" id="curve_3" stroke="#000000" stroke-linecap="round" stroke-linejoin="round" stroke-width="2.3965646660207147"/>
  <path d="M 38.18398757357922, 36.169921406235495 Q 36.86904833896466, 35.30499537441925, 32.32513087662175, 34.91775273900788 " fill="none" id="curve_3" stroke="#000000" stroke-linecap="round" stroke-linejoin="round" stroke-width="4.2787969758916855"/>
  <path d="M 55.00552322284919, 37.43408933037773 Q 55.07181009277826, 37.29419300473502, 55.14241176420106, 37.02741736120935 " fill="none" id="curve_4" stroke="#000000" stroke-linecap="round" stroke-linejoin="round" stroke-width="2.3626657678128185"/>
  <path d="M 67.32605291416397, 58.64255407660755 Q 66.32732984426606, 56.61785847303444, 65.0420809609314, 53.99656864157427 " fill="none" id="curve_5" stroke="#000000" stroke-linecap="round" stroke-linejoin="round" stroke-width="3.0715960166627525"/>
  <path d="M 32.229826025887945, 116.42111344727205 Q 29.152220109636954, 116.55090950914163, 27.917431403361036, 117.22093515109877 " fill="none" id="curve_7" stroke="#000000" stroke-linecap="round" stroke-linejoin="round" stroke-width="3.843875513147169"/>
  <path d="M 11.828161381887345, 113.7082907657465 Q 13.834172509742178, 117.77687774643972, 23.155627848188885, 119.25155416655616 " fill="none" id="curve_8" stroke="#000000" stroke-linecap="round" stroke-linejoin="round" stroke-width="3.0993712222919996"/>
  <path d="M 9.077057168753713, 94.35154508775211 Q 8.823279758319735, 95.9886647127887, 8.578112270730907, 100.22297587686191 " fill="none" id="curve_9" stroke="#000000" stroke-linecap="round" stroke-linejoin="round" stroke-width="2.9411192440042995"/>
  <path d="M 8.578112270730907, 100.22297587686191 Q 8.935726751954617, 96.90530511829549, 9.6179357776909, 92.53006137987931 " fill="none" id="curve_9" stroke="#000000" stroke-linecap="round" stroke-linejoin="round" stroke-width="2.259183455181009"/>
  <path d="M 12.89401563813354, 76.06076231898895 Q 12.999690901542893, 76.74270721045457, 13.208971405089862, 78.48441797127367 " fill="none" id="curve_11" stroke="#000000" stroke-linecap="round" stroke-linejoin="round" stroke-width="2.4428668481454365"/>
  <path d="M 48.061728569221785, 104.81876826935961 Q 48.0053388911946, 104.95303243900742, 47.90252743603406, 105.18858028424843 " fill="none" id="curve_16" stroke="#000000" stroke-linecap="round" stroke-linejoin="round" stroke-width="2.6599072789608984"/>
  <path d="M 30.588036737205396, 117.83782576110049 Q 36.89672347038593, 116.09732939376853, 41.6716685616579, 111.77899747123764 " fill="none" id="curve_17" stroke="#000000" stroke-linecap="round" stroke-linejoin="round" stroke-width="2.8082191570664494"/>
  <path d="M 18.506060375522402, 118.43128477650359 Q 17.36503366881689, 114.06212520499628, 9.73395701142988, 112.21936156278178 " fill="none" id="curve_25" stroke="#000000" stroke-linecap="round" stroke-linejoin="round" stroke-width="3.3809084416793462"/>
  <path d="M 7.971310542752917, 95.71239401694675 Q 8.790710778421927, 96.56646879587484, 9.747167926010235, 98.63654664640495 " fill="none" id="curve_26" stroke="#000000" stroke-linecap="round" stroke-linejoin="round" stroke-width="1.9979772801627964"/>
  <path d="M 26.25205781746402, 50.362882560847055 Q 26.184027632295372, 50.7247763424761, 25.711822469203163, 50.91028866606965 " fill="none" id="curve_29" stroke="#000000" stroke-linecap="round" stroke-linejoin="round" stroke-width="3.095672676425525"/>
  <path d="M 59.16933614991856, 86.77768579220634 Q 59.26648698862242, 86.61696174205856, 59.40750947979882, 86.3226206962248 " fill="none" id="curve_31" stroke="#000000" stroke-linecap="round" stroke-linejoin="round" stroke-width="1.8758842568621639"/>
  <path d="M 39.97716981036142, 112.89730906543771 Q 35.72067029623371, 116.15548553895763, 27.243098808404994, 118.93832043841732 " fill="none" id="curve_32" stroke="#000000" stroke-linecap="round" stroke-linejoin="round" stroke-width="3.0727345319269004"/>
  <path d="M 34.8143767465383, 115.11128539533456 Q 36.730100164431235, 114.69509606404249, 39.1693098031306, 113.69567685878573 " fill="none" id="curve_47" stroke="#000000" stroke-linecap="round" stroke-linejoin="round" stroke-width="2.5817700610750665"/>
  <path d="M 30.305425558638717, 117.02127629434062 Q 32.40242021125511, 115.27251964421376, 38.694547239096465, 113.76965647840255 " fill="none" id="curve_75" stroke="#000000" stroke-linecap="round" stroke-linejoin="round" stroke-width="2.4741660510648855"/>
  <path d="M 23.80976000001141, 51.84267629472846 Q 26.039504228483985, 51.38668566830039, 28.515091500526452, 50.67528533805286 " fill="none" id="curve_78" stroke="#000000" stroke-linecap="round" stroke-linejoin="round" stroke-width="2.607394375580253"/>
  <path d="M 11.901069365944636, 77.07245914241794 Q 11.56024976490682, 77.40452591365465, 11.222276469256146, 78.07202404467037 " fill="none" id="curve_79" stroke="#000000" stroke-linecap="round" stroke-linejoin="round" stroke-width="2.8217968418400807"/>
  <path d="M 9.471627051464523, 105.92318779129965 Q 8.967610121870877, 102.19112643780811, 8.28419986293058, 97.06777065487027 " fill="none" id="curve_84" stroke="#000000" stroke-linecap="round" stroke-linejoin="round" stroke-width="2.861114433691739"/>
  <path d="M 8.35670060262959, 96.19573092014 Q 9.212150558512365, 95.99079089974853, 10.05714318560228, 95.33135167954525 " fill="none" id="curve_100" stroke="#000000" stroke-linecap="round" stroke-linejoin="round" stroke-width="2.173855615740749"/>
</svg>
