<?xml version="1.0" ?>
<svg height="140" width="140" xmlns="http://www.w3.org/2000/svg">
  <path d="M 54.15475845336914, 48.29481887817383 Q 53.8725431313988, 46.68948585107386, 51.15651763841514, 45.99921204353923 " fill="none" id="curve_1" stroke="#000000" stroke-linecap="round" stroke-linejoin="round" stroke-width="6.846039523642844"/>
  <path d="M 51.15651763841514, 45.99921204353923 Q 33.46075443449383, 46.56073191831624, 26.672511353494787, 58.50283447765116 " fill="none" id="curve_1" stroke="#000000" stroke-linecap="round" stroke-linejoin="round" stroke-width="4.772941303864093"/>
  <path d="M 26.672511353494787, 58.50283447765116 Q 20.421402755381017, 65.69014314017971, 14.834538619969452, 81.28720418244014 " fill="none" id="curve_1" stroke="#000000" stroke-linecap="round" stroke-linejoin="round" stroke-width="9.710884879567567"/>
  <path d="M 14.834538619969452, 81.28720418244014 Q 18.31123884081593, 93.46846208560825, 26.38570221460347, 100.18570333461544 " fill="none" id="curve_1" stroke="#000000" stroke-linecap="round" stroke-linejoin="round" stroke-width="4.852147808919011"/>
  <path d="M 26.38570221460347, 100.18570333461544 Q 47.92498786441043, 98.11058730181252, 60.118425005807666, 68.73700349536283 " fill="none" id="curve_1" stroke="#000000" stroke-linecap="round" stroke-linejoin="round" stroke-width="4.9548561412535514"/>
  <path d="M 60.118425005807666, 68.73700349536283 Q 60.44650607061653, 67.32178693800718, 60.507433824257674, 51.31403846708875 " fill="none" id="curve_1" stroke="#000000" stroke-linecap="round" stroke-linejoin="round" stroke-width="5.387107341003915"/>
  <path d="M 60.507433824257674, 51.31403846708875 Q 58.05370991494301, 48.42208643922336, 53.42990059721863, 45.59387942219112 " fill="none" id="curve_1" stroke="#000000" stroke-linecap="round" stroke-linejoin="round" stroke-width="3.4530984666838975"/>
  <path d="M 90.03865063800126, 37.27301644478566 Q 89.73636598865396, 44.118499929360965, 89.43489046900015, 70.85678364344585 " fill="none" id="curve_2" stroke="#000000" stroke-linecap="round" stroke-linejoin="round" stroke-width="2.16231150161155"/>
  <path d="M 89.43489046900015, 70.85678364344585 Q 89.40158247064778, 81.79524002464396, 89.24378028901931, 105.01677087677606 " fill="none" id="curve_2" stroke="#000000" stroke-linecap="round" stroke-linejoin="round" stroke-width="2.5477043215326547"/>
  <path d="M 89.24378028901931, 105.01677087677606 Q 89.24738576061834, 115.82344511751229, 89.2737657762171, 132.6836025743735 " fill="none" id="curve_2" stroke="#000000" stroke-linecap="round" stroke-linejoin="round" stroke-width="2.5993805470709566"/>
  <path d="M 89.2737657762171, 132.6836025743735 Q 89.21267258678617, 137.97482314833582, 88.7827617650487, 139.16213375956616 " fill="none" id="curve_2" stroke="#000000" stroke-linecap="round" stroke-linejoin="round" stroke-width="2.7308639861290165"/>
  <path d="M 88.05985945939808, 109.9010022726687 Q 88.37122978917219, 109.146486747885, 88.72567107116784, 108.09777255194307 " fill="none" id="curve_4" stroke="#000000" stroke-linecap="round" stroke-linejoin="round" stroke-width="2.595757695589046"/>
  <path d="M 51.01558138553463, 78.35267042715587 Q 49.098400421660706, 85.39975991492298, 41.9551360704898, 91.45450718116861 " fill="none" id="curve_5" stroke="#000000" stroke-linecap="round" stroke-linejoin="round" stroke-width="3.238242127009534"/>
  <path d="M 12.383780445067254, 91.94512196722548 Q 11.226310065219735, 91.77457173601061, 11.14729646151158, 84.44353476685092 " fill="none" id="curve_7" stroke="#000000" stroke-linecap="round" stroke-linejoin="round" stroke-width="2.4277726888526967"/>
  <path d="M 19.427408632535094, 84.06127338596323 Q 20.14700730273602, 75.93271867377172, 23.11214289807758, 67.29913730468428 " fill="none" id="curve_8" stroke="#000000" stroke-linecap="round" stroke-linejoin="round" stroke-width="2.1293632937819993"/>
  <path d="M 23.11214289807758, 67.29913730468428 Q 25.439055289291346, 62.67103885043952, 28.365445486036553, 54.87307362378571 " fill="none" id="curve_8" stroke="#000000" stroke-linecap="round" stroke-linejoin="round" stroke-width="4.446063772264874"/>
  <path d="M 28.365445486036553, 54.87307362378571 Q 22.23271331506472, 58.12231104523595, 15.197488105847343, 70.53289514489764 " fill="none" id="curve_8" stroke="#000000" stroke-linecap="round" stroke-linejoin="round" stroke-width="3.2313525949068436"/>
  <path d="M 27.794000595666876, 60.88764645664021 Q 27.49721076514684, 60.56613349915927, 26.960318868279384, 59.97159316334888 " fill="none" id="curve_9" stroke="#000000" stroke-linecap="round" stroke-linejoin="round" stroke-width="3.445382677180333"/>
  <path d="M 89.25742249330247, 34.831472815270594 Q 89.31492445356176, 30.895321328860753, 89.36215044726424, 7.632984808072486 " fill="none" id="curve_11" stroke="#000000" stroke-linecap="round" stroke-linejoin="round" stroke-width="2.1420517305555533"/>
  <path d="M 89.36215044726424, 7.632984808072486 Q 89.22460290830965, 2.900784050937532, 88.48201809880413, 1.502529022831089 " fill="none" id="curve_11" stroke="#000000" stroke-linecap="round" stroke-linejoin="round" stroke-width="3.1589799332257122"/>
  <path d="M 88.48201809880413, 1.502529022831089 Q 88.88944464966467, 1.8362721361583663, 89.26891910317136, 2.659087542362443 " fill="none" id="curve_11" stroke="#000000" stroke-linecap="round" stroke-linejoin="round" stroke-width="2.294708171441328"/>
  <path d="M 62.3683952867669, 62.07505562852388 Q 61.615802638227805, 50.550859666025666, 54.05110864961323, 46.3383252069697 " fill="none" id="curve_13" stroke="#000000" stroke-linecap="round" stroke-linejoin="round" stroke-width="2.0661173649875093"/>
  <path d="M 42.87749332434724, 45.027831427527516 Q 35.03874563608812, 48.01201164834352, 27.850277408533795, 54.69080550954018 " fill="none" id="curve_14" stroke="#000000" stroke-linecap="round" stroke-linejoin="round" stroke-width="3.147103052790457"/>
  <path d="M 20.474351860468712, 96.7562280889106 Q 20.84459695645989, 98.74769348980628, 29.45041253201302, 98.94376118548193 " fill="none" id="curve_16" stroke="#000000" stroke-linecap="round" stroke-linejoin="round" stroke-width="4.224123110878095"/>
  <path d="M 29.45041253201302, 98.94376118548193 Q 36.15775771576529, 97.10010139417581, 40.686539828839315, 93.17278691243129 " fill="none" id="curve_16" stroke="#000000" stroke-linecap="round" stroke-linejoin="round" stroke-width="2.9451482126868225"/>
  <path d="M 55.9372028211871, 44.95563539916991 Q 58.7012919675185, 50.60548929259196, 61.63051769698102, 58.53168098373957 " fill="none" id="curve_18" stroke="#000000" stroke-linecap="round" stroke-linejoin="round" stroke-width="2.437288937548122"/>
  <path d="M 59.61631768654143, 69.62179061118644 Q 60.069114022446556, 67.53735203563897, 61.03312930105096, 65.0633086027615 " fill="none" id="curve_19" stroke="#000000" stroke-linecap="round" stroke-linejoin="round" stroke-width="3.1076958129390624"/>
  <path d="M 53.69756868687484, 76.34908085673793 Q 56.91208554561139, 71.70606763895503, 61.81256700869646, 64.85576379191416 " fill="none" id="curve_22" stroke="#000000" stroke-linecap="round" stroke-linejoin="round" stroke-width="3.754077056821601"/>
  <path d="M 61.81256700869646, 64.85576379191416 Q 59.58247289585299, 65.94265808898447, 57.291783495079045, 68.62742083786054 " fill="none" id="curve_22" stroke="#000000" stroke-linecap="round" stroke-linejoin="round" stroke-width="3.018128542205155"/>
  <path d="M 57.54217536235784, 54.28694464222921 Q 58.278069082228775, 53.6092403765763, 59.70915015906862, 52.12480601176348 " fill="none" id="curve_24" stroke="#000000" stroke-linecap="round" stroke-linejoin="round" stroke-width="2.207979103216139"/>
  <path d="M 30.985143629060005, 100.20676295493388 Q 33.35107940073011, 99.87366654340018, 35.30532803971474, 99.0475507550354 " fill="none" id="curve_26" stroke="#000000" stroke-linecap="round" stroke-linejoin="round" stroke-width="3.907436124932562"/>
  <path d="M 44.04673966453005, 46.38834731110926 Q 44.322951803668175, 45.346276194645405, 46.52359008254826, 44.92131243305075 " fill="none" id="curve_44" stroke="#000000" stroke-linecap="round" stroke-linejoin="round" stroke-width="3.0903269100438595"/>
  <path d="M 22.486850234351497, 95.28294218310333 Q 20.617217375772533, 95.53590332212525, 18.26415236842533, 95.97932347547595 " fill="none" id="curve_52" stroke="#000000" stroke-linecap="round" stroke-linejoin="round" stroke-width="3.332468860739414"/>
  <path d="M 49.602792346151205, 89.03109253052726 Q 51.43177281987026, 84.90982232478837, 55.562267493810026, 80.310651929797 " fill="none" id="curve_106" stroke="#000000" stroke-linecap="round" stroke-linejoin="round" stroke-width="1.821424180095052"/>
  <path d="M 60.011301280139755, 53.89579643810493 Q 59.43240709136132, 52.475125147412925, 58.12090010188271, 51.522106965780196 " fill="none" id="curve_108" stroke="#000000" stroke-linecap="round" stroke-linejoin="round" stroke-width="4.382261760224136"/>
  <path d="M 33.45410315404571, 98.37334392753158 Q 29.603860461821693, 97.77443445494251, 23.78824813586115, 97.02748307725484 " fill="none" id="curve_138" stroke="#000000" stroke-linecap="round" stroke-linejoin="round" stroke-width="2.4934414185726474"/>
  <path d="M 18.261519955008964, 70.80857913133104 Q 20.671262849368006, 70.4310350916933, 23.19883619065819, 69.5925493700605 " fill="none" id="curve_166" stroke="#000000" stroke-linecap="round" stroke-linejoin="round" stroke-width="3.336410385967489"/>
</svg>
