<?xml version="1.0" ?>
<svg height="140" width="140" xmlns="http://www.w3.org/2000/svg">
  <path d="M 61.38323974609375, 42.876882553100586 Q 64.9437013856587, 47.000350280272684, 67.87692810396436, 59.6040261643559 " fill="none" id="curve_1" stroke="#000000" stroke-linecap="round" stroke-linejoin="round" stroke-width="4.823655256613808"/>
  <path d="M 67.87692810396436, 59.6040261643559 Q 67.13371375722848, 75.76720799102407, 55.9028558970592, 86.13209339904081 " fill="none" id="curve_1" stroke="#000000" stroke-linecap="round" stroke-linejoin="round" stroke-width="4.5196849499032234"/>
  <path d="M 55.9028558970592, 86.13209339904081 Q 51.760649258866735, 92.55406808177943, 39.08448164633683, 96.44953707727355 " fill="none" id="curve_1" stroke="#000000" stroke-linecap="round" stroke-linejoin="round" stroke-width="5.524802263164227"/>
  <path d="M 39.08448164633683, 96.44953707727355 Q 28.21369928336048, 95.15974455245097, 25.575911328478778, 78.98191359388919 " fill="none" id="curve_1" stroke="#000000" stroke-linecap="round" stroke-linejoin="round" stroke-width="3.9261826242733724"/>
  <path d="M 25.575911328478778, 78.98191359388919 Q 26.841859397258784, 63.627958891131755, 37.244041282223826, 57.44958269993988 " fill="none" id="curve_1" stroke="#000000" stroke-linecap="round" stroke-linejoin="round" stroke-width="4.251504631599292"/>
  <path d="M 26.06792683432052, 51.63681619276466 Q 27.373775841444775, 40.53705970151705, 41.5999844265881, 36.82690109024665 " fill="none" id="curve_2" stroke="#000000" stroke-linecap="round" stroke-linejoin="round" stroke-width="4.626278312123059"/>
  <path d="M 41.5999844265881, 36.82690109024665 Q 63.10328422158997, 37.041402238102435, 64.71702791574371, 49.264370728065835 " fill="none" id="curve_2" stroke="#000000" stroke-linecap="round" stroke-linejoin="round" stroke-width="3.722346308530447"/>
  <path d="M 64.71702791574371, 49.264370728065835 Q 62.11366987316828, 47.21849216674469, 60.43320542080605, 41.52677811516425 " fill="none" id="curve_2" stroke="#000000" stroke-linecap="round" stroke-linejoin="round" stroke-width="3.409369617922603"/>
  <path d="M 31.49390446327563, 65.1942562073927 Q 31.009133161352597, 66.54177635032937, 29.307050466971308, 67.08728135949316 " fill="none" id="curve_3" stroke="#000000" stroke-linecap="round" stroke-linejoin="round" stroke-width="4.634092294164484"/>
  <path d="M 37.319460903815894, 58.08759075044641 Q 35.96877242172897, 58.548576571922354, 33.86805891023878, 59.217533006779526 " fill="none" id="curve_4" stroke="#000000" stroke-linecap="round" stroke-linejoin="round" stroke-width="3.836952677911922"/>
  <path d="M 60.06253950815545, 84.77025765867278 Q 52.18295589483254, 87.29130752514426, 46.05639297343666, 93.34536152083989 " fill="none" id="curve_5" stroke="#000000" stroke-linecap="round" stroke-linejoin="round" stroke-width="3.0285537745905873"/>
  <path d="M 50.2542853943459, 37.53238008465605 Q 53.597236631969295, 37.52716675785378, 56.645823554010775, 37.51030405316249 " fill="none" id="curve_9" stroke="#000000" stroke-linecap="round" stroke-linejoin="round" stroke-width="2.2496913145014044"/>
  <path d="M 35.796597668294254, 58.010198478022666 Q 35.307595530081656, 58.625343006745894, 33.87449589688265, 59.78175852826426 " fill="none" id="curve_18" stroke="#000000" stroke-linecap="round" stroke-linejoin="round" stroke-width="2.747683787464965"/>
  <path d="M 64.97012929593362, 47.8879949271452 Q 64.56697440368043, 45.32686336298874, 62.376672618440075, 43.46476820995203 " fill="none" id="curve_33" stroke="#000000" stroke-linecap="round" stroke-linejoin="round" stroke-width="2.3155537712640553"/>
  <path d="M 25.099302574011542, 55.17259606561191 Q 25.69067695721344, 54.85556908546633, 26.41224865007287, 54.0908053521777 " fill="none" id="curve_37" stroke="#000000" stroke-linecap="round" stroke-linejoin="round" stroke-width="1.7197584211858021"/>
  <path d="M 28.29186223060575, 86.1714986058046 Q 29.084616779172826, 86.93109914853922, 29.778065491248785, 89.49126804488704 " fill="none" id="curve_56" stroke="#000000" stroke-linecap="round" stroke-linejoin="round" stroke-width="1.9654647263164458"/>
  <path d="M 32.43521865476058, 59.27304242742747 Q 33.32195242417105, 58.98269003873179, 34.461791176737016, 58.43001752604304 " fill="none" id="curve_57" stroke="#000000" stroke-linecap="round" stroke-linejoin="round" stroke-width="2.241181662561307"/>
  <path d="M 50.98832943914449, 36.509787574438796 Q 50.2140574154279, 36.33825985864607, 48.238135406381645, 36.092872471859515 " fill="none" id="curve_73" stroke="#000000" stroke-linecap="round" stroke-linejoin="round" stroke-width="2.5493060411836708"/>
  <path d="M 62.39119141154151, 81.85879337841561 Q 55.04767170697548, 82.91910539181482, 50.993039919465105, 88.94250833765811 " fill="none" id="curve_101" stroke="#000000" stroke-linecap="round" stroke-linejoin="round" stroke-width="2.3957570250766307"/>
  <path d="M 37.36587459978914, 94.5255599912072 Q 35.51598653841467, 94.3441422264567, 33.11378159270465, 93.9897328746944 " fill="none" id="curve_111" stroke="#000000" stroke-linecap="round" stroke-linejoin="round" stroke-width="3.9889329625833456"/>
  <path d="M 27.687794047268557, 84.36568372186319 Q 30.001132733917302, 90.22591721722091, 35.39867680799252, 94.5138578478361 " fill="none" id="curve_118" stroke="#000000" stroke-linecap="round" stroke-linejoin="round" stroke-width="2.6467117526320934"/>
  <path d="M 64.26364129471335, 72.88638846210233 Q 60.67965351189816, 76.57613597854466, 56.60328664381827, 85.73924419922966 " fill="none" id="curve_133" stroke="#000000" stroke-linecap="round" stroke-linejoin="round" stroke-width="2.724769328431364"/>
  <path d="M 58.612467282721596, 40.54954668169124 Q 60.24473261366177, 41.12111536100714, 63.123243828793335, 42.12126505301152 " fill="none" id="curve_163" stroke="#000000" stroke-linecap="round" stroke-linejoin="round" stroke-width="2.0252486991887184"/>
</svg>
