<?xml version="1.0" ?>
<svg height="140" width="140" xmlns="http://www.w3.org/2000/svg">
  <path d="M 50.701168060302734, 77.12955474853516 Q 49.54358858459432, 83.0877667495195, 39.50708547077796, 85.76116105740448 " fill="none" id="curve_1" stroke="#000000" stroke-linecap="round" stroke-linejoin="round" stroke-width="5.588695152512783"/>
  <path d="M 39.50708547077796, 85.76116105740448 Q 35.56420657079494, 87.01962344801126, 26.20001785183227, 87.67408110125994 " fill="none" id="curve_1" stroke="#000000" stroke-linecap="round" stroke-linejoin="round" stroke-width="5.932585684830405"/>
  <path d="M 26.20001785183227, 87.67408110125994 Q 13.68472756944223, 87.29560325356191, 12.325001769821293, 79.47122189437157 " fill="none" id="curve_1" stroke="#000000" stroke-linecap="round" stroke-linejoin="round" stroke-width="5.071634389472429"/>
  <path d="M 12.325001769821293, 79.47122189437157 Q 13.215239631439552, 62.67541588203666, 22.37076913430375, 52.566616403395344 " fill="none" id="curve_1" stroke="#000000" stroke-linecap="round" stroke-linejoin="round" stroke-width="5.298045085558031"/>
  <path d="M 22.37076913430375, 52.566616403395344 Q 27.6114196349137, 44.92779764219744, 42.195793126365324, 39.3343568501363 " fill="none" id="curve_1" stroke="#000000" stroke-linecap="round" stroke-linejoin="round" stroke-width="5.140283308886227"/>
  <path d="M 42.195793126365324, 39.3343568501363 Q 51.71759915596855, 45.12385588231998, 56.82104036893558, 58.556344975521455 " fill="none" id="curve_1" stroke="#000000" stroke-linecap="round" stroke-linejoin="round" stroke-width="4.103823510600011"/>
  <path d="M 56.82104036893558, 58.556344975521455 Q 56.5676916822684, 78.44459134868617, 50.24065429414075, 79.8981578210298 " fill="none" id="curve_1" stroke="#000000" stroke-linecap="round" stroke-linejoin="round" stroke-width="4.767471501161212"/>
  <path d="M 41.99759682376944, 43.96453347472261 Q 39.06502754206268, 43.764420975664066, 37.287526115371286, 43.09168961610185 " fill="none" id="curve_2" stroke="#000000" stroke-linecap="round" stroke-linejoin="round" stroke-width="3.4505379570313353"/>
  <path d="M 48.033103145113714, 40.45956655587737 Q 46.57149234917788, 40.53938428955471, 44.305775015679004, 40.640550153728896 " fill="none" id="curve_3" stroke="#000000" stroke-linecap="round" stroke-linejoin="round" stroke-width="3.9403396514399063"/>
  <path d="M 57.242046416616475, 62.032883849259804 Q 55.70756148901535, 77.57405124671799, 45.41839182387188, 83.12958640180494 " fill="none" id="curve_4" stroke="#000000" stroke-linecap="round" stroke-linejoin="round" stroke-width="2.7327724806084928"/>
  <path d="M 55.85536790108452, 61.88723065240506 Q 55.228631472948656, 65.84479837583675, 54.57859602747229, 71.81604995955294 " fill="none" id="curve_5" stroke="#000000" stroke-linecap="round" stroke-linejoin="round" stroke-width="3.06888883931983"/>
  <path d="M 11.24942896015264, 72.81892513907576 Q 12.951243741730458, 68.52076757510741, 15.575633401651414, 61.99144378485065 " fill="none" id="curve_7" stroke="#000000" stroke-linecap="round" stroke-linejoin="round" stroke-width="2.7703244308774955"/>
  <path d="M 44.56775108144485, 44.82105026628425 Q 47.12179804332409, 45.080438789345536, 49.36929430064679, 45.6767361423167 " fill="none" id="curve_23" stroke="#000000" stroke-linecap="round" stroke-linejoin="round" stroke-width="2.3620416547071517"/>
  <path d="M 13.267264729447405, 76.10422015793597 Q 14.552270379797445, 81.41868780461719, 18.389428833519787, 84.75693858410986 " fill="none" id="curve_24" stroke="#000000" stroke-linecap="round" stroke-linejoin="round" stroke-width="2.6045277959313586"/>
  <path d="M 15.534374316019111, 58.19563778580047 Q 16.327917668673248, 56.048722845135366, 19.18008351110731, 55.025989764520475 " fill="none" id="curve_25" stroke="#000000" stroke-linecap="round" stroke-linejoin="round" stroke-width="2.5011890861429595"/>
  <path d="M 49.99808178411333, 82.18544282487392 Q 49.0824497635115, 81.51390500981677, 46.92786557523429, 80.71016889369693 " fill="none" id="curve_27" stroke="#000000" stroke-linecap="round" stroke-linejoin="round" stroke-width="2.7906292977308444"/>
  <path d="M 56.58447215607114, 54.66793223905604 Q 56.88022915923385, 55.03031840566506, 57.159744603045276, 55.883271687025 " fill="none" id="curve_29" stroke="#000000" stroke-linecap="round" stroke-linejoin="round" stroke-width="3.121707973898204"/>
  <path d="M 56.270537111160365, 66.80331863005108 Q 57.413148503136206, 64.25170630102383, 58.60987776752234, 59.93321512223194 " fill="none" id="curve_44" stroke="#000000" stroke-linecap="round" stroke-linejoin="round" stroke-width="2.7080152181394457"/>
  <path d="M 44.790512938286156, 38.486736066284266 Q 44.76382755420286, 38.58832386619028, 44.698639825434505, 38.7125968906991 " fill="none" id="curve_72" stroke="#000000" stroke-linecap="round" stroke-linejoin="round" stroke-width="2.480197904567023"/>
</svg>
