<?xml version="1.0" ?>
<svg height="140" width="140" xmlns="http://www.w3.org/2000/svg">
  <path d="M 41.30945990190048, 47.48513169892203 Q 27.16512003097115, 48.125002101846064, 19.7111121350616, 60.95046320852542 " fill="none" id="curve_2" stroke="#000000" stroke-linecap="round" stroke-linejoin="round" stroke-width="4.086035181181939"/>
  <path d="M 19.7111121350616, 60.95046320852542 Q 17.191579283670322, 65.66488542825363, 15.534204201113548, 82.67063353083256 " fill="none" id="curve_2" stroke="#000000" stroke-linecap="round" stroke-linejoin="round" stroke-width="5.486011211568687"/>
  <path d="M 15.534204201113548, 82.67063353083256 Q 16.79641971166921, 104.87723318679984, 35.38785959066784, 111.31748144678103 " fill="none" id="curve_2" stroke="#000000" stroke-linecap="round" stroke-linejoin="round" stroke-width="4.695360160473233"/>
  <path d="M 35.38785959066784, 111.31748144678103 Q 54.98583567874343, 111.18844886122675, 56.04532973089944, 99.50220671735212 " fill="none" id="curve_2" stroke="#000000" stroke-linecap="round" stroke-linejoin="round" stroke-width="5.209086165416529"/>
  <path d="M 56.04532973089944, 99.50220671735212 Q 57.816518086934224, 97.80050025604746, 58.20125954268555, 85.52796047988974 " fill="none" id="curve_2" stroke="#000000" stroke-linecap="round" stroke-linejoin="round" stroke-width="5.675033470009533"/>
  <path d="M 58.20125954268555, 85.52796047988974 Q 57.18161914756334, 66.06130758166292, 47.24200455501625, 56.50278734259878 " fill="none" id="curve_2" stroke="#000000" stroke-linecap="round" stroke-linejoin="round" stroke-width="5.352669444429765"/>
  <path d="M 47.24200455501625, 56.50278734259878 Q 34.666449974601775, 56.72808878238749, 32.40082129440809, 59.1750724526677 " fill="none" id="curve_2" stroke="#000000" stroke-linecap="round" stroke-linejoin="round" stroke-width="3.5059264882435244"/>
  <path d="M 27.869867461347145, 52.09574975024695 Q 19.75319595036473, 55.67572857176362, 16.626516356028223, 69.63768892292038 " fill="none" id="curve_4" stroke="#000000" stroke-linecap="round" stroke-linejoin="round" stroke-width="3.7637977668923415"/>
  <path d="M 37.13838215507283, 107.3634913351399 Q 37.263140682787096, 108.98803824114744, 44.75346261672334, 109.07812100784862 " fill="none" id="curve_5" stroke="#000000" stroke-linecap="round" stroke-linejoin="round" stroke-width="3.434903214435732"/>
  <path d="M 44.75346261672334, 109.07812100784862 Q 51.69269772315859, 107.00204170013345, 54.72191749745035, 98.16873480477084 " fill="none" id="curve_5" stroke="#000000" stroke-linecap="round" stroke-linejoin="round" stroke-width="2.9574490083814857"/>
  <path d="M 51.31439270398519, 68.69292979491796 Q 53.503650012255605, 70.29240556887301, 55.473403520171686, 74.49692918378068 " fill="none" id="curve_10" stroke="#000000" stroke-linecap="round" stroke-linejoin="round" stroke-width="2.4813753599489967"/>
  <path d="M 51.09372013485579, 57.47474537299848 Q 52.93101158805516, 59.96763461269738, 54.130423606765554, 65.22046930625643 " fill="none" id="curve_11" stroke="#000000" stroke-linecap="round" stroke-linejoin="round" stroke-width="2.9730084025076446"/>
  <path d="M 89.78620924973052, 64.0303168410715 Q 89.7021474704583, 76.61691117066216, 89.06617564145445, 93.37277213751204 " fill="none" id="curve_12" stroke="#000000" stroke-linecap="round" stroke-linejoin="round" stroke-width="1.843807225033285"/>
  <path d="M 89.06617564145445, 93.37277213751204 Q 89.53119046204635, 95.31634652159528, 89.78531316986327, 120.48751877903126 " fill="none" id="curve_12" stroke="#000000" stroke-linecap="round" stroke-linejoin="round" stroke-width="1.6699171948784721"/>
  <path d="M 89.78531316986327, 120.48751877903126 Q 89.72877634804905, 135.9703033793167, 89.31223149574382, 139.26959031937477 " fill="none" id="curve_12" stroke="#000000" stroke-linecap="round" stroke-linejoin="round" stroke-width="1.977465553919356"/>
  <path d="M 89.31223149574382, 139.26959031937477 Q 89.16007813481589, 138.78178886095904, 88.86113765854628, 138.36771419486533 " fill="none" id="curve_12" stroke="#000000" stroke-linecap="round" stroke-linejoin="round" stroke-width="1.9473714822431705"/>
  <path d="M 20.458186582753456, 92.73646955061653 Q 20.533314827128258, 95.59720659281518, 20.681408089563806, 99.12050192570634 " fill="none" id="curve_18" stroke="#000000" stroke-linecap="round" stroke-linejoin="round" stroke-width="3.0183127636303055"/>
  <path d="M 18.362703916876498, 67.10663579996006 Q 21.004090606139783, 60.81127453207272, 26.3287801909906, 53.24269479986637 " fill="none" id="curve_19" stroke="#000000" stroke-linecap="round" stroke-linejoin="round" stroke-width="1.9967304201539207"/>
  <path d="M 26.3287801909906, 53.24269479986637 Q 29.020235437670774, 49.68286482054447, 35.59409367244814, 47.23984831556999 " fill="none" id="curve_19" stroke="#000000" stroke-linecap="round" stroke-linejoin="round" stroke-width="2.592623984645105"/>
  <path d="M 90.3632843587284, 60.662206473628416 Q 89.77139675827354, 59.79266142686069, 89.65248178565642, 41.268085500568915 " fill="none" id="curve_22" stroke="#000000" stroke-linecap="round" stroke-linejoin="round" stroke-width="1.802614465594944"/>
  <path d="M 89.65248178565642, 41.268085500568915 Q 89.69913745909804, 36.84577696698808, 89.75372874102368, 25.766500850603066 " fill="none" id="curve_22" stroke="#000000" stroke-linecap="round" stroke-linejoin="round" stroke-width="1.5721524969799263"/>
  <path d="M 89.75372874102368, 25.766500850603066 Q 89.72490922050899, 19.50073588972816, 89.6625330376098, 10.5853893828779 " fill="none" id="curve_22" stroke="#000000" stroke-linecap="round" stroke-linejoin="round" stroke-width="1.5228009905632818"/>
  <path d="M 89.6625330376098, 10.5853893828779 Q 89.45626217154263, 4.8544875548506825, 88.9109832306271, 0.8041169417121345 " fill="none" id="curve_22" stroke="#000000" stroke-linecap="round" stroke-linejoin="round" stroke-width="2.3671971823641575"/>
  <path d="M 88.9109832306271, 0.8041169417121345 Q 88.83466619779972, 1.3257729626091745, 88.66622925549116, 1.8461488975485807 " fill="none" id="curve_22" stroke="#000000" stroke-linecap="round" stroke-linejoin="round" stroke-width="1.6372344592393073"/>
  <path d="M 89.26707497870882, 62.68138705872271 Q 89.40606110864967, 62.15994073100244, 89.54639959050888, 61.12480361537333 " fill="none" id="curve_26" stroke="#000000" stroke-linecap="round" stroke-linejoin="round" stroke-width="1.3015085178592636"/>
  <path d="M 56.48652379005449, 67.15750775652391 Q 51.96042526124034, 66.71297045075946, 50.10538731196276, 63.38152999750481 " fill="none" id="curve_28" stroke="#000000" stroke-linecap="round" stroke-linejoin="round" stroke-width="2.481532514680464"/>
  <path d="M 44.78303737278481, 54.28919938287484 Q 42.74401576776954, 55.37469095385634, 39.619908825105796, 57.48056784078467 " fill="none" id="curve_29" stroke="#000000" stroke-linecap="round" stroke-linejoin="round" stroke-width="2.510908040584609"/>
  <path d="M 36.26777379938872, 110.2235135756128 Q 28.544615019222835, 108.63176546700733, 23.613359553074538, 102.54977872285448 " fill="none" id="curve_34" stroke="#000000" stroke-linecap="round" stroke-linejoin="round" stroke-width="3.2743039720640437"/>
  <path d="M 55.7818567528501, 80.17409346683854 Q 55.66839732234989, 77.34889036169979, 55.17644687425465, 75.39531333874008 " fill="none" id="curve_114" stroke="#000000" stroke-linecap="round" stroke-linejoin="round" stroke-width="2.395738524812811"/>
  <path d="M 31.15958333804697, 60.493841784272036 Q 31.15944414259735, 60.46383600757607, 31.159199076746617, 60.41319153097291 " fill="none" id="curve_118" stroke="#000000" stroke-linecap="round" stroke-linejoin="round" stroke-width="2.0150466355853265"/>
  <path d="M 55.54485125697602, 93.67095102774533 Q 54.50675011187403, 103.51210393256768, 51.92960047537696, 110.31856078486229 " fill="none" id="curve_146" stroke="#000000" stroke-linecap="round" stroke-linejoin="round" stroke-width="2.0498309324294253"/>
  <path d="M 33.585410255966494, 110.80622498113863 Q 30.258382828690575, 110.28393779160673, 27.74717868814505, 108.96268137479058 " fill="none" id="curve_156" stroke="#000000" stroke-linecap="round" stroke-linejoin="round" stroke-width="3.6274032889669163"/>
</svg>
