<?xml version="1.0" ?>
<svg height="140" width="140" xmlns="http://www.w3.org/2000/svg">
  <path d="M 58.868534088134766, 80.59599423408508 Q 58.2449462813729, 75.2839396919383, 56.27334939257861, 67.61972278855842 " fill="none" id="curve_1" stroke="#000000" stroke-linecap="round" stroke-linejoin="round" stroke-width="6.147749025100471"/>
  <path d="M 56.27334939257861, 67.61972278855842 Q 52.08606912263535, 64.40417426165783, 48.4344519411776, 54.35969258814356 " fill="none" id="curve_1" stroke="#000000" stroke-linecap="round" stroke-linejoin="round" stroke-width="5.102247498216773"/>
  <path d="M 48.4344519411776, 54.35969258814356 Q 32.19766506694643, 55.06950500183075, 27.87524756369575, 61.84054194042149 " fill="none" id="curve_1" stroke="#000000" stroke-linecap="round" stroke-linejoin="round" stroke-width="3.9423357961390537"/>
  <path d="M 27.87524756369575, 61.84054194042149 Q 24.906322222178403, 68.84962140299504, 22.676434970881665, 78.10874345937196 " fill="none" id="curve_1" stroke="#000000" stroke-linecap="round" stroke-linejoin="round" stroke-width="5.5431058851227775"/>
  <path d="M 22.676434970881665, 78.10874345937196 Q 22.971224873074757, 101.25256984829373, 36.93796269870132, 102.27493480013891 " fill="none" id="curve_1" stroke="#000000" stroke-linecap="round" stroke-linejoin="round" stroke-width="4.1217507730211915"/>
  <path d="M 36.93796269870132, 102.27493480013891 Q 55.14621971969264, 100.94776254557378, 58.93537421364681, 82.62860562065786 " fill="none" id="curve_1" stroke="#000000" stroke-linecap="round" stroke-linejoin="round" stroke-width="4.410511118126544"/>
  <path d="M 89.04487351474475, 70.8865345275375 Q 89.26149390807147, 76.95970824803197, 89.5054301434131, 87.58345124156425 " fill="none" id="curve_4" stroke="#000000" stroke-linecap="round" stroke-linejoin="round" stroke-width="1.8601820154535444"/>
  <path d="M 89.5054301434131, 87.58345124156425 Q 89.29833181787258, 90.33533359765994, 89.12869499453647, 111.85703233065627 " fill="none" id="curve_4" stroke="#000000" stroke-linecap="round" stroke-linejoin="round" stroke-width="2.255149579266009"/>
  <path d="M 89.12869499453647, 111.85703233065627 Q 89.14137403170587, 122.57395091110777, 89.18115557175066, 129.6652652462868 " fill="none" id="curve_4" stroke="#000000" stroke-linecap="round" stroke-linejoin="round" stroke-width="2.28271509597252"/>
  <path d="M 89.18115557175066, 129.6652652462868 Q 89.15493475024917, 136.38778848604514, 89.07539720753621, 138.81591633456148 " fill="none" id="curve_4" stroke="#000000" stroke-linecap="round" stroke-linejoin="round" stroke-width="2.552676297867568"/>
  <path d="M 89.07539720753621, 138.81591633456148 Q 89.01618490298077, 138.8516989937277, 88.92610532101942, 138.89091614584007 " fill="none" id="curve_4" stroke="#000000" stroke-linecap="round" stroke-linejoin="round" stroke-width="1.8647281609163373"/>
  <path d="M 59.78262550968043, 82.72101181887155 Q 59.491513171518285, 72.59623083010125, 55.37437242281062, 69.5857623203357 " fill="none" id="curve_9" stroke="#000000" stroke-linecap="round" stroke-linejoin="round" stroke-width="4.088379244769819"/>
  <path d="M 47.03200751220953, 57.49681022582382 Q 42.41016732236177, 57.45058682557104, 41.1454605521784, 57.04852468596209 " fill="none" id="curve_10" stroke="#000000" stroke-linecap="round" stroke-linejoin="round" stroke-width="3.4486440741988345"/>
  <path d="M 32.778525465710004, 55.51250243341046 Q 27.926994779601102, 61.47421999140538, 21.479664087564647, 72.01109040188189 " fill="none" id="curve_11" stroke="#000000" stroke-linecap="round" stroke-linejoin="round" stroke-width="2.752949438163539"/>
  <path d="M 35.25410062478213, 101.34079129801952 Q 52.65368777296164, 100.47544775919224, 56.03078047530045, 89.55390836468187 " fill="none" id="curve_12" stroke="#000000" stroke-linecap="round" stroke-linejoin="round" stroke-width="2.5639115474693073"/>
  <path d="M 89.55230481693498, 69.14044771088274 Q 89.46964604100599, 62.721083036920895, 89.32302697878845, 43.79766890223486 " fill="none" id="curve_13" stroke="#000000" stroke-linecap="round" stroke-linejoin="round" stroke-width="1.960450304396078"/>
  <path d="M 89.32302697878845, 43.79766890223486 Q 89.33980020549133, 36.85803757637525, 89.37225978036986, 23.731406749016084 " fill="none" id="curve_13" stroke="#000000" stroke-linecap="round" stroke-linejoin="round" stroke-width="1.9035363113331474"/>
  <path d="M 89.37225978036986, 23.731406749016084 Q 89.3636615424812, 18.813909674002993, 89.35209673324376, 8.862489778214202 " fill="none" id="curve_13" stroke="#000000" stroke-linecap="round" stroke-linejoin="round" stroke-width="1.8260657134606093"/>
  <path d="M 89.35209673324376, 8.862489778214202 Q 89.25839902986444, 2.6277486610103082, 88.58622568566376, 1.2303103728313474 " fill="none" id="curve_13" stroke="#000000" stroke-linecap="round" stroke-linejoin="round" stroke-width="3.1077651803979016"/>
  <path d="M 88.58622568566376, 1.2303103728313474 Q 88.65790814422863, 1.507113834043236, 88.77349390297255, 1.903484028369534 " fill="none" id="curve_13" stroke="#000000" stroke-linecap="round" stroke-linejoin="round" stroke-width="1.771169509365568"/>
  <path d="M 59.75838401605966, 77.74606372046952 Q 58.95588002029602, 79.7764388963198, 58.117755371495015, 83.05946002233821 " fill="none" id="curve_18" stroke="#000000" stroke-linecap="round" stroke-linejoin="round" stroke-width="3.834028744050542"/>
  <path d="M 58.117755371495015, 83.05946002233821 Q 58.02529405487462, 72.93798262680488, 55.937716836002636, 71.81122233871713 " fill="none" id="curve_18" stroke="#000000" stroke-linecap="round" stroke-linejoin="round" stroke-width="3.028818772573322"/>
  <path d="M 57.50300904071318, 88.96535120779713 Q 53.71110934815633, 95.42429898623932, 43.28463173272437, 100.87393014693644 " fill="none" id="curve_23" stroke="#000000" stroke-linecap="round" stroke-linejoin="round" stroke-width="2.966111106427847"/>
  <path d="M 43.28463173272437, 100.87393014693644 Q 33.24319285185259, 100.53061689196892, 27.525675282805025, 98.75121418782479 " fill="none" id="curve_23" stroke="#000000" stroke-linecap="round" stroke-linejoin="round" stroke-width="2.689368035849854"/>
  <path d="M 27.525675282805025, 98.75121418782479 Q 23.78347852932295, 96.95650180558108, 21.915100127875938, 88.85736920685459 " fill="none" id="curve_23" stroke="#000000" stroke-linecap="round" stroke-linejoin="round" stroke-width="2.5719114628347617"/>
  <path d="M 45.59511176602811, 51.584055757550665 Q 46.45135415688417, 52.11201820760112, 47.44565903104883, 52.98607740996915 " fill="none" id="curve_25" stroke="#000000" stroke-linecap="round" stroke-linejoin="round" stroke-width="3.2842413713699465"/>
  <path d="M 31.552382536820122, 56.208862702502444 Q 28.527912609279376, 61.00975796853379, 24.165643918810744, 65.73792612329834 " fill="none" id="curve_26" stroke="#000000" stroke-linecap="round" stroke-linejoin="round" stroke-width="3.219739339086498"/>
  <path d="M 60.006906527935286, 74.3519401769996 Q 58.401351297634946, 72.84425452366501, 55.63894820421791, 71.10101769873735 " fill="none" id="curve_29" stroke="#000000" stroke-linecap="round" stroke-linejoin="round" stroke-width="3.523821323278486"/>
  <path d="M 31.798367087984296, 60.91011029550776 Q 29.83475067702746, 60.656376745312194, 27.629025820820125, 60.05809324691545 " fill="none" id="curve_45" stroke="#000000" stroke-linecap="round" stroke-linejoin="round" stroke-width="3.6639331483820006"/>
  <path d="M 21.035634063178815, 75.3642150947586 Q 23.549009807748114, 74.91139645406544, 25.467957289369636, 73.32721268258713 " fill="none" id="curve_62" stroke="#000000" stroke-linecap="round" stroke-linejoin="round" stroke-width="2.9038209393646537"/>
  <path d="M 44.400620114795146, 56.9870340347342 Q 47.571185017008375, 56.78819794572512, 52.38838830024633, 56.46428387753687 " fill="none" id="curve_67" stroke="#000000" stroke-linecap="round" stroke-linejoin="round" stroke-width="2.3129464706665726"/>
  <path d="M 30.56058414262234, 96.9186694513398 Q 31.789971952681057, 98.60485962893915, 34.25274338088066, 99.95613127062119 " fill="none" id="curve_69" stroke="#000000" stroke-linecap="round" stroke-linejoin="round" stroke-width="2.589133062469027"/>
  <path d="M 57.04338760378778, 86.4146008744608 Q 54.22684787120278, 89.32014439788611, 50.565556030391285, 93.95456326351989 " fill="none" id="curve_84" stroke="#000000" stroke-linecap="round" stroke-linejoin="round" stroke-width="2.387204302679665"/>
  <path d="M 21.605988252378474, 86.29036684346839 Q 21.828156636563275, 86.89350562155443, 22.122153664937365, 88.19141466737798 " fill="none" id="curve_87" stroke="#000000" stroke-linecap="round" stroke-linejoin="round" stroke-width="2.443080591263629"/>
</svg>
