<?xml version="1.0" ?>
<svg height="140" width="140" xmlns="http://www.w3.org/2000/svg">
  <path d="M 68.66956329345703, 86.72971534729004 Q 69.5842692787233, 86.10508336348629, 69.93458384882368, 82.59873372623974 " fill="none" id="curve_1" stroke="#000000" stroke-linecap="round" stroke-linejoin="round" stroke-width="8.487958412307576"/>
  <path d="M 69.93458384882368, 82.59873372623974 Q 69.63965258559246, 75.96023245597132, 65.85586777235093, 72.10818452277162 " fill="none" id="curve_1" stroke="#000000" stroke-linecap="round" stroke-linejoin="round" stroke-width="4.330338852688491"/>
  <path d="M 65.85586777235093, 72.10818452277162 Q 64.40390337603702, 70.46698625450968, 61.82249927089825, 69.08601708449022 " fill="none" id="curve_1" stroke="#000000" stroke-linecap="round" stroke-linejoin="round" stroke-width="5.726474262588476"/>
  <path d="M 61.82249927089825, 69.08601708449022 Q 54.84025082587108, 65.46310723112161, 45.91521049045508, 56.42561549392063 " fill="none" id="curve_1" stroke="#000000" stroke-linecap="round" stroke-linejoin="round" stroke-width="5.17911887722494"/>
  <path d="M 45.91521049045508, 56.42561549392063 Q 33.13231478823644, 58.18053925666191, 18.80950629097608, 80.7204309684977 " fill="none" id="curve_1" stroke="#000000" stroke-linecap="round" stroke-linejoin="round" stroke-width="4.99739636235839"/>
  <path d="M 18.80950629097608, 80.7204309684977 Q 18.93414525054193, 98.1810943709135, 26.692818933929125, 99.21620263252908 " fill="none" id="curve_1" stroke="#000000" stroke-linecap="round" stroke-linejoin="round" stroke-width="4.882114219539174"/>
  <path d="M 26.692818933929125, 99.21620263252908 Q 28.47971404293489, 101.17662783026381, 40.60220149365418, 101.55069257050086 " fill="none" id="curve_1" stroke="#000000" stroke-linecap="round" stroke-linejoin="round" stroke-width="5.070967969209687"/>
  <path d="M 40.60220149365418, 101.55069257050086 Q 59.74925343095471, 99.96610134096906, 69.73187176362802, 86.6084486469644 " fill="none" id="curve_1" stroke="#000000" stroke-linecap="round" stroke-linejoin="round" stroke-width="5.881644949359395"/>
  <path d="M 88.67761266072417, 86.48817905331035 Q 89.2570628814123, 89.59567855600103, 89.54925346124718, 119.09450654121449 " fill="none" id="curve_2" stroke="#000000" stroke-linecap="round" stroke-linejoin="round" stroke-width="2.17905045172883"/>
  <path d="M 89.54925346124718, 119.09450654121449 Q 89.4778142307838, 132.02061341275126, 89.28939018653628, 138.56967536274982 " fill="none" id="curve_2" stroke="#000000" stroke-linecap="round" stroke-linejoin="round" stroke-width="2.306183240592818"/>
  <path d="M 89.28939018653628, 138.56967536274982 Q 89.01819077881302, 138.67899571952728, 88.51103638750917, 138.77330657264903 " fill="none" id="curve_2" stroke="#000000" stroke-linecap="round" stroke-linejoin="round" stroke-width="2.1771545662572254"/>
  <path d="M 89.95866509517745, 85.91704115062936 Q 89.04674950659624, 85.77431581543631, 89.00235708254881, 75.70650091659965 " fill="none" id="curve_4" stroke="#000000" stroke-linecap="round" stroke-linejoin="round" stroke-width="2.4693476203258196"/>
  <path d="M 89.00235708254881, 75.70650091659965 Q 89.0678768256218, 73.62283969179467, 89.13551101190136, 59.451618567982166 " fill="none" id="curve_4" stroke="#000000" stroke-linecap="round" stroke-linejoin="round" stroke-width="2.5247122297936344"/>
  <path d="M 89.13551101190136, 59.451618567982166 Q 89.12848389317993, 51.9599584418185, 89.08893497038545, 44.010361458698114 " fill="none" id="curve_4" stroke="#000000" stroke-linecap="round" stroke-linejoin="round" stroke-width="2.405064315482158"/>
  <path d="M 89.08893497038545, 44.010361458698114 Q 89.09665102504363, 37.93736168503634, 89.12590520379868, 27.60474029198219 " fill="none" id="curve_4" stroke="#000000" stroke-linecap="round" stroke-linejoin="round" stroke-width="2.430605082354704"/>
  <path d="M 89.12590520379868, 27.60474029198219 Q 89.12722322498323, 20.41141144994937, 89.13328866315092, 10.573921969757471 " fill="none" id="curve_4" stroke="#000000" stroke-linecap="round" stroke-linejoin="round" stroke-width="2.4083808020947783"/>
  <path d="M 89.13328866315092, 10.573921969757471 Q 89.09512791485226, 2.312748588513072, 88.41292628073079, 1.3684531419681427 " fill="none" id="curve_4" stroke="#000000" stroke-linecap="round" stroke-linejoin="round" stroke-width="2.8897018867807542"/>
  <path d="M 88.41292628073079, 1.3684531419681427 Q 88.49787978540026, 1.4926369029663364, 88.56614113187712, 1.7143396540232123 " fill="none" id="curve_4" stroke="#000000" stroke-linecap="round" stroke-linejoin="round" stroke-width="3.3352876630311266"/>
  <path d="M 88.45019224825026, 2.8591664495701075 Q 88.51437518936628, 2.2333145246395296, 88.6757227996747, 1.6911369111890628 " fill="none" id="curve_9" stroke="#000000" stroke-linecap="round" stroke-linejoin="round" stroke-width="2.586362623225065"/>
  <path d="M 50.6235871959127, 56.57376693205981 Q 47.13516172612207, 56.880738441319586, 43.09349308765465, 57.91428107464125 " fill="none" id="curve_15" stroke="#000000" stroke-linecap="round" stroke-linejoin="round" stroke-width="5.127732918201179"/>
  <path d="M 43.09349308765465, 57.91428107464125 Q 26.304547197727643, 60.07430071375367, 17.613815496439425, 85.43013528916732 " fill="none" id="curve_15" stroke="#000000" stroke-linecap="round" stroke-linejoin="round" stroke-width="2.852023144956186"/>
  <path d="M 17.613815496439425, 85.43013528916732 Q 18.10610305643472, 89.55271684047581, 19.23489155326492, 94.21172703236756 " fill="none" id="curve_15" stroke="#000000" stroke-linecap="round" stroke-linejoin="round" stroke-width="3.8176906333928704"/>
  <path d="M 43.34443635344291, 61.47516494092187 Q 45.548072679753815, 61.021059244818964, 48.32790854179136, 60.30674388056861 " fill="none" id="curve_16" stroke="#000000" stroke-linecap="round" stroke-linejoin="round" stroke-width="7.529105405717509"/>
  <path d="M 42.669100633060665, 55.76500360100238 Q 43.153388951883144, 56.87582490194379, 44.39210883661874, 58.234856037061036 " fill="none" id="curve_17" stroke="#000000" stroke-linecap="round" stroke-linejoin="round" stroke-width="5.598149158419082"/>
  <path d="M 44.39210883661874, 58.234856037061036 Q 44.04587881443682, 57.53278020747282, 43.32568815298148, 56.19487432913047 " fill="none" id="curve_17" stroke="#000000" stroke-linecap="round" stroke-linejoin="round" stroke-width="4.665069820651089"/>
  <path d="M 17.16435334252456, 92.18126009460792 Q 17.185859095859485, 89.13269924702708, 17.21441128254004, 81.82354545261708 " fill="none" id="curve_21" stroke="#000000" stroke-linecap="round" stroke-linejoin="round" stroke-width="2.1010567033702015"/>
  <path d="M 46.48937538764706, 55.27467265577999 Q 46.49933166047165, 54.64230190355813, 46.782550538989554, 54.5748863230889 " fill="none" id="curve_23" stroke="#000000" stroke-linecap="round" stroke-linejoin="round" stroke-width="3.057542842320154"/>
  <path d="M 46.782550538989554, 54.5748863230889 Q 37.73517453823008, 55.3310625247172, 34.8433582020163, 59.54610988849832 " fill="none" id="curve_23" stroke="#000000" stroke-linecap="round" stroke-linejoin="round" stroke-width="3.3831300511690716"/>
  <path d="M 57.13410134661707, 96.06185905149283 Q 52.01744900646523, 98.97211353730025, 41.16965671767382, 101.19509860479366 " fill="none" id="curve_26" stroke="#000000" stroke-linecap="round" stroke-linejoin="round" stroke-width="3.58979507797308"/>
  <path d="M 65.70196067842141, 89.25856864705607 Q 62.88171892410913, 93.91212298722218, 55.82025198445843, 96.6146712794596 " fill="none" id="curve_27" stroke="#000000" stroke-linecap="round" stroke-linejoin="round" stroke-width="3.7995981275091397"/>
  <path d="M 55.82025198445843, 96.6146712794596 Q 60.107857439387004, 94.0074741232267, 66.14487466698489, 90.23696055877181 " fill="none" id="curve_27" stroke="#000000" stroke-linecap="round" stroke-linejoin="round" stroke-width="2.945550004596285"/>
  <path d="M 30.1632516215436, 99.1126251819611 Q 19.176300055832087, 98.65910708594079, 17.140152220671073, 92.99871999285673 " fill="none" id="curve_28" stroke="#000000" stroke-linecap="round" stroke-linejoin="round" stroke-width="3.1649626573796104"/>
  <path d="M 65.0875844958423, 74.59546685550168 Q 65.19604286360676, 74.02273879698421, 65.37299100499918, 73.33483468354119 " fill="none" id="curve_43" stroke="#000000" stroke-linecap="round" stroke-linejoin="round" stroke-width="3.9723607143369084"/>
  <path d="M 49.372098404811254, 55.41306270692894 Q 47.8337590653862, 55.35027192354927, 44.43112777588709, 55.2837753484254 " fill="none" id="curve_58" stroke="#000000" stroke-linecap="round" stroke-linejoin="round" stroke-width="2.7643081836993266"/>
  <path d="M 23.921434936803724, 73.54879149400404 Q 19.627510978150926, 76.20829328102123, 16.41772399577423, 84.95657511807936 " fill="none" id="curve_60" stroke="#000000" stroke-linecap="round" stroke-linejoin="round" stroke-width="2.522618130498557"/>
  <path d="M 63.363891383633984, 90.6636215199361 Q 63.610758707996816, 89.80228887079059, 64.84581897143084, 89.2861811699526 " fill="none" id="curve_75" stroke="#000000" stroke-linecap="round" stroke-linejoin="round" stroke-width="2.533910722110081"/>
  <path d="M 24.217203618757175, 99.88824376564212 Q 24.29599421242343, 99.92409685188764, 24.346685037386465, 100.03332691043522 " fill="none" id="curve_106" stroke="#000000" stroke-linecap="round" stroke-linejoin="round" stroke-width="2.8219167186849545"/>
  <path d="M 21.59649824342145, 73.57569870065225 Q 19.215307106053253, 78.43591250103239, 15.776540555438492, 87.21259331019839 " fill="none" id="curve_112" stroke="#000000" stroke-linecap="round" stroke-linejoin="round" stroke-width="2.3836967858845854"/>
  <path d="M 39.03905621580407, 102.65623121380168 Q 38.380813314056255, 102.75394637326113, 37.94650719243764, 103.10572737071122 " fill="none" id="curve_166" stroke="#000000" stroke-linecap="round" stroke-linejoin="round" stroke-width="2.7373075921253665"/>
  <path d="M 40.63256780928439, 100.75830067371786 Q 49.41829949252551, 99.63287763834546, 58.519054017683615, 97.52454595059417 " fill="none" id="curve_173" stroke="#000000" stroke-linecap="round" stroke-linejoin="round" stroke-width="2.5872893119061797"/>
</svg>
