<?xml version="1.0" ?>
<svg height="140" width="140" xmlns="http://www.w3.org/2000/svg">
  <path d="M 35.018550872802734, 50.49048614501953 Q 35.01391632359658, 47.62701086801478, 34.882869629578764, 47.22676343249785 " fill="none" id="curve_1" stroke="#000000" stroke-linecap="round" stroke-linejoin="round" stroke-width="4.701214375335972"/>
  <path d="M 34.882869629578764, 47.22676343249785 Q 22.215493042876837, 48.060935007716694, 18.419357473949642, 63.762997294571974 " fill="none" id="curve_1" stroke="#000000" stroke-linecap="round" stroke-linejoin="round" stroke-width="4.523804515056818"/>
  <path d="M 18.419357473949642, 63.762997294571974 Q 17.180072388223234, 64.29314001776183, 17.099765343386, 76.69453040145433 " fill="none" id="curve_1" stroke="#000000" stroke-linecap="round" stroke-linejoin="round" stroke-width="5.108873185122932"/>
  <path d="M 17.099765343386, 76.69453040145433 Q 21.355362378388023, 72.88066922314769, 27.226721401612778, 61.25530448584268 " fill="none" id="curve_1" stroke="#000000" stroke-linecap="round" stroke-linejoin="round" stroke-width="3.8478332574498957"/>
  <path d="M 27.226721401612778, 61.25530448584268 Q 29.06852485776568, 59.16546009103433, 36.83464446736642, 58.263159381636726 " fill="none" id="curve_1" stroke="#000000" stroke-linecap="round" stroke-linejoin="round" stroke-width="3.346211550371136"/>
  <path d="M 36.17562229616882, 48.498438855254946 Q 54.666786973927884, 50.35070451025821, 60.1879142672428, 73.71535439938611 " fill="none" id="curve_2" stroke="#000000" stroke-linecap="round" stroke-linejoin="round" stroke-width="4.393788909924377"/>
  <path d="M 60.1879142672428, 73.71535439938611 Q 59.876237887193014, 96.36377360038156, 51.82454889993642, 103.79929365611729 " fill="none" id="curve_2" stroke="#000000" stroke-linecap="round" stroke-linejoin="round" stroke-width="4.797787841245216"/>
  <path d="M 51.82454889993642, 103.79929365611729 Q 49.150811285140485, 110.87422214588787, 37.99984724896621, 113.56831166870953 " fill="none" id="curve_2" stroke="#000000" stroke-linecap="round" stroke-linejoin="round" stroke-width="5.6407743531435335"/>
  <path d="M 37.99984724896621, 113.56831166870953 Q 27.100672026622746, 111.39232688306458, 21.372807325035023, 93.19670158895866 " fill="none" id="curve_2" stroke="#000000" stroke-linecap="round" stroke-linejoin="round" stroke-width="4.742342220427717"/>
  <path d="M 21.372807325035023, 93.19670158895866 Q 20.900783950105144, 84.16216555761623, 18.716686299496715, 81.2106603775521 " fill="none" id="curve_2" stroke="#000000" stroke-linecap="round" stroke-linejoin="round" stroke-width="6.200645069518521"/>
  <path d="M 18.716686299496715, 81.2106603775521 Q 21.844292154422448, 78.70231708711482, 23.165577923353542, 70.85913094337602 " fill="none" id="curve_2" stroke="#000000" stroke-linecap="round" stroke-linejoin="round" stroke-width="3.0677207195771468"/>
  <path d="M 23.41506925856049, 54.456460637335056 Q 23.366273906926953, 55.823281262110974, 23.24834976379758, 56.915037340322385 " fill="none" id="curve_3" stroke="#000000" stroke-linecap="round" stroke-linejoin="round" stroke-width="2.950419496928737"/>
  <path d="M 89.34351436882932, 94.64073472855735 Q 89.02289141299657, 98.94766489001486, 88.57957614918334, 128.9399354309279 " fill="none" id="curve_5" stroke="#000000" stroke-linecap="round" stroke-linejoin="round" stroke-width="3.6036558264729432"/>
  <path d="M 88.57957614918334, 128.9399354309279 Q 88.65686814842613, 135.14954359380957, 88.86291901829631, 138.65250885086976 " fill="none" id="curve_5" stroke="#000000" stroke-linecap="round" stroke-linejoin="round" stroke-width="3.5841366091928992"/>
  <path d="M 88.86291901829631, 138.65250885086976 Q 88.22808571636405, 138.7273095430907, 87.00432108257428, 138.7896045131712 " fill="none" id="curve_5" stroke="#000000" stroke-linecap="round" stroke-linejoin="round" stroke-width="2.1636955969276146"/>
  <path d="M 55.161311162937004, 102.4727226517991 Q 48.4261426159871, 103.66425673866853, 43.90181148607373, 109.18091789470681 " fill="none" id="curve_6" stroke="#000000" stroke-linecap="round" stroke-linejoin="round" stroke-width="3.340037053277209"/>
  <path d="M 53.57648491137864, 97.954125060748 Q 54.13047192791384, 93.16672747682713, 58.16328703379378, 91.48746913893939 " fill="none" id="curve_7" stroke="#000000" stroke-linecap="round" stroke-linejoin="round" stroke-width="2.269037747391795"/>
  <path d="M 59.007668669846986, 78.65731950000063 Q 57.76626106403434, 75.0376200480615, 56.6734969740161, 67.34732686103573 " fill="none" id="curve_8" stroke="#000000" stroke-linecap="round" stroke-linejoin="round" stroke-width="2.1377996170430436"/>
  <path d="M 16.78465023797403, 81.35317498925362 Q 17.69732247955669, 82.24620620223854, 18.294696123292, 85.32730002281338 " fill="none" id="curve_12" stroke="#000000" stroke-linecap="round" stroke-linejoin="round" stroke-width="3.284808519855695"/>
  <path d="M 20.51763863351859, 93.32973771019739 Q 25.12533365038028, 100.45079553646055, 30.984675366783854, 108.25845798578945 " fill="none" id="curve_14" stroke="#000000" stroke-linecap="round" stroke-linejoin="round" stroke-width="2.248918595412053"/>
  <path d="M 16.791987258944772, 80.90929670050997 Q 16.418345844413274, 80.53410727313707, 16.22371569536052, 78.40286937581718 " fill="none" id="curve_15" stroke="#000000" stroke-linecap="round" stroke-linejoin="round" stroke-width="3.1294805093398472"/>
  <path d="M 30.438539981091225, 59.148669771484286 Q 28.542833793907796, 58.96249007740025, 25.484704784541204, 58.684759505654455 " fill="none" id="curve_17" stroke="#000000" stroke-linecap="round" stroke-linejoin="round" stroke-width="3.5064607447706684"/>
  <path d="M 89.15717110330195, 91.42650374485582 Q 89.01604551496916, 85.01239253380396, 88.80602077390607, 57.44005975758693 " fill="none" id="curve_19" stroke="#000000" stroke-linecap="round" stroke-linejoin="round" stroke-width="2.868569133072879"/>
  <path d="M 88.80602077390607, 57.44005975758693 Q 88.81556968327308, 52.339886760060054, 88.83360213014825, 29.270287621739715 " fill="none" id="curve_19" stroke="#000000" stroke-linecap="round" stroke-linejoin="round" stroke-width="3.5631252297590024"/>
  <path d="M 88.83360213014825, 29.270287621739715 Q 88.81190787562208, 20.464904254466497, 88.72025146188886, 5.127039569614201 " fill="none" id="curve_19" stroke="#000000" stroke-linecap="round" stroke-linejoin="round" stroke-width="3.4017648586084532"/>
  <path d="M 88.72025146188886, 5.127039569614201 Q 88.63151556714512, 3.1200305889766877, 88.2759758105996, 2.551189419387332 " fill="none" id="curve_19" stroke="#000000" stroke-linecap="round" stroke-linejoin="round" stroke-width="5.679083064764262"/>
  <path d="M 88.2759758105996, 2.551189419387332 Q 88.53319620883543, 2.0816175865367357, 88.94014421549191, 1.5586691166853464 " fill="none" id="curve_19" stroke="#000000" stroke-linecap="round" stroke-linejoin="round" stroke-width="2.6461433086556783"/>
  <path d="M 88.50024767360219, 68.8099014311776 Q 89.12142546093054, 67.83569041970854, 89.27482572016619, 59.11958448977706 " fill="none" id="curve_22" stroke="#000000" stroke-linecap="round" stroke-linejoin="round" stroke-width="1.81665453880941"/>
  <path d="M 87.78866502972177, 91.85675801596277 Q 88.65432223062648, 89.00443781947426, 89.09795256783038, 73.1365511846548 " fill="none" id="curve_24" stroke="#000000" stroke-linecap="round" stroke-linejoin="round" stroke-width="1.8381785439280063"/>
  <path d="M 89.09795256783038, 73.1365511846548 Q 88.87644238497451, 71.28703571337485, 88.5097021792767, 68.63205585859993 " fill="none" id="curve_24" stroke="#000000" stroke-linecap="round" stroke-linejoin="round" stroke-width="1.8417825542528479"/>
  <path d="M 35.48330230512119, 112.65017274163584 Q 39.43100554194302, 111.87568259727058, 43.5619378874045, 110.68771743932389 " fill="none" id="curve_48" stroke="#000000" stroke-linecap="round" stroke-linejoin="round" stroke-width="3.2736209749448903"/>
  <path d="M 44.18535410413458, 52.28710219912727 Q 44.50792988342913, 52.39749763660718, 44.910041365840954, 52.585449834815705 " fill="none" id="curve_54" stroke="#000000" stroke-linecap="round" stroke-linejoin="round" stroke-width="3.321392635133306"/>
  <path d="M 24.30991820122901, 71.26994056700465 Q 24.298219174555822, 63.156212566096286, 24.177947371338117, 60.351466698646426 " fill="none" id="curve_104" stroke="#000000" stroke-linecap="round" stroke-linejoin="round" stroke-width="1.4578236475447042"/>
  <path d="M 37.54737545129136, 59.31678929751697 Q 37.01306882342379, 59.22297074032548, 36.138406576175896, 59.12318409128009 " fill="none" id="curve_105" stroke="#000000" stroke-linecap="round" stroke-linejoin="round" stroke-width="2.8584449667968297"/>
  <path d="M 17.14114718879461, 74.64951964603989 Q 16.471823768866987, 74.01611951812454, 15.745903344125901, 72.84835066395314 " fill="none" id="curve_106" stroke="#000000" stroke-linecap="round" stroke-linejoin="round" stroke-width="3.4331926896640006"/>
</svg>
