<?xml version="1.0" ?>
<svg height="140" width="140" xmlns="http://www.w3.org/2000/svg">
  <path d="M 12.986623764038086, 106.2609748840332 Q 11.497205960222237, 104.38671378405468, 10.498561437644213, 94.33094958324193 " fill="none" id="curve_1" stroke="#000000" stroke-linecap="round" stroke-linejoin="round" stroke-width="6.5611594904688255"/>
  <path d="M 10.498561437644213, 94.33094958324193 Q 10.256780792953972, 89.35594292705323, 9.878643683051985, 76.5555993152191 " fill="none" id="curve_1" stroke="#000000" stroke-linecap="round" stroke-linejoin="round" stroke-width="5.435309304044623"/>
  <path d="M 9.878643683051985, 76.5555993152191 Q 10.865978860057039, 69.40534575882118, 12.369192044554277, 60.48928131465553 " fill="none" id="curve_1" stroke="#000000" stroke-linecap="round" stroke-linejoin="round" stroke-width="5.73140906861818"/>
  <path d="M 12.369192044554277, 60.48928131465553 Q 16.359515255504675, 64.0689674623657, 18.79636696161141, 71.99621520392328 " fill="none" id="curve_1" stroke="#000000" stroke-linecap="round" stroke-linejoin="round" stroke-width="4.732309265076976"/>
  <path d="M 18.79636696161141, 71.99621520392328 Q 21.686640426562604, 63.767622358335444, 27.428238447945585, 52.62873377604823 " fill="none" id="curve_1" stroke="#000000" stroke-linecap="round" stroke-linejoin="round" stroke-width="9.295616574697018"/>
  <path d="M 27.428238447945585, 52.62873377604823 Q 47.95896444273554, 54.14444075607469, 53.70699832676031, 66.35101268916848 " fill="none" id="curve_1" stroke="#000000" stroke-linecap="round" stroke-linejoin="round" stroke-width="6.419629505078374"/>
  <path d="M 53.70699832676031, 66.35101268916848 Q 52.056093157071956, 89.59568879302435, 32.32495140655166, 102.9046663579172 " fill="none" id="curve_1" stroke="#000000" stroke-linecap="round" stroke-linejoin="round" stroke-width="4.867167760711178"/>
  <path d="M 32.32495140655166, 102.9046663579172 Q 29.463393071951277, 107.21492702809293, 13.753542263298034, 108.27704715993318 " fill="none" id="curve_1" stroke="#000000" stroke-linecap="round" stroke-linejoin="round" stroke-width="5.512550294758224"/>
  <path d="M 38.22221920032914, 110.12923622857683 Q 56.002495694133444, 108.25908656038754, 61.65894152963337, 83.4202493303596 " fill="none" id="curve_2" stroke="#000000" stroke-linecap="round" stroke-linejoin="round" stroke-width="4.264399059187186"/>
  <path d="M 61.65894152963337, 83.4202493303596 Q 61.57196085943043, 60.788537920790176, 50.92076895636159, 59.88635715210617 " fill="none" id="curve_2" stroke="#000000" stroke-linecap="round" stroke-linejoin="round" stroke-width="5.235698294812684"/>
  <path d="M 27.636848192667543, 59.296818577560124 Q 24.791076683845535, 63.23068427675426, 23.800824655774214, 92.2345631859271 " fill="none" id="curve_3" stroke="#000000" stroke-linecap="round" stroke-linejoin="round" stroke-width="3.461860346509202"/>
  <path d="M 30.508531189372682, 109.85810203443086 Q 25.510152409130413, 108.54350337588019, 23.999960348427784, 100.90131083693407 " fill="none" id="curve_4" stroke="#000000" stroke-linecap="round" stroke-linejoin="round" stroke-width="3.1017983822522925"/>
  <path d="M 24.67089415806251, 97.53148509805673 Q 24.269432982187293, 97.66572858036571, 23.817507372243128, 97.88258838331552 " fill="none" id="curve_5" stroke="#000000" stroke-linecap="round" stroke-linejoin="round" stroke-width="3.3431281592783675"/>
  <path d="M 16.963896355604305, 63.1040864530968 Q 20.196452762607006, 59.61827225401479, 23.233201743361285, 53.7170586939977 " fill="none" id="curve_6" stroke="#000000" stroke-linecap="round" stroke-linejoin="round" stroke-width="3.8818833817485334"/>
  <path d="M 23.233201743361285, 53.7170586939977 Q 28.02644135091706, 55.213765039956584, 30.853196292604192, 58.10756999252955 " fill="none" id="curve_6" stroke="#000000" stroke-linecap="round" stroke-linejoin="round" stroke-width="3.956814231057074"/>
  <path d="M 48.38509729202558, 63.971875850032745 Q 49.78141296590797, 64.43724138491375, 49.8515352798811, 78.84208469646228 " fill="none" id="curve_7" stroke="#000000" stroke-linecap="round" stroke-linejoin="round" stroke-width="3.718726016864903"/>
  <path d="M 61.910442295779355, 71.67878360779277 Q 63.24333285636426, 72.28701404957977, 63.428990833351634, 78.30972485082356 " fill="none" id="curve_8" stroke="#000000" stroke-linecap="round" stroke-linejoin="round" stroke-width="2.541111810063861"/>
  <path d="M 63.428990833351634, 78.30972485082356 Q 60.70492680089843, 80.05602529396855, 60.155174042728994, 91.27284001649994 " fill="none" id="curve_8" stroke="#000000" stroke-linecap="round" stroke-linejoin="round" stroke-width="3.040706749462003"/>
  <path d="M 60.155174042728994, 91.27284001649994 Q 60.15772280306222, 83.23026378020391, 60.16575554975626, 77.59165668626193 " fill="none" id="curve_8" stroke="#000000" stroke-linecap="round" stroke-linejoin="round" stroke-width="2.6650076450527935"/>
  <path d="M 61.929661921224316, 68.77807130242059 Q 60.90155644296137, 67.92452097112054, 58.43070941537645, 66.63527758474557 " fill="none" id="curve_9" stroke="#000000" stroke-linecap="round" stroke-linejoin="round" stroke-width="2.350933957915216"/>
  <path d="M 33.88080263705573, 110.81742828342902 Q 37.61983847809783, 110.50772477834106, 40.433533738899825, 109.54569073053234 " fill="none" id="curve_11" stroke="#000000" stroke-linecap="round" stroke-linejoin="round" stroke-width="2.87808174086333"/>
  <path d="M 56.554292006601955, 95.93380273826602 Q 54.20131492212745, 101.50019519058584, 49.59934064252792, 106.10013609344469 " fill="none" id="curve_12" stroke="#000000" stroke-linecap="round" stroke-linejoin="round" stroke-width="3.2504289095503296"/>
  <path d="M 12.240434787888686, 56.84308567720388 Q 12.201292744743897, 58.11261270645018, 12.147160060910375, 60.56376044086211 " fill="none" id="curve_15" stroke="#000000" stroke-linecap="round" stroke-linejoin="round" stroke-width="2.730481704782486"/>
  <path d="M 33.94328332064314, 102.01282270894748 Q 26.016875827184766, 102.71855492988037, 23.110775511546215, 107.71787013397608 " fill="none" id="curve_18" stroke="#000000" stroke-linecap="round" stroke-linejoin="round" stroke-width="3.1683010385411823"/>
  <path d="M 12.001295996748699, 103.39199699686414 Q 12.390407035200306, 104.54228897886604, 12.922018470974502, 106.92011904176901 " fill="none" id="curve_19" stroke="#000000" stroke-linecap="round" stroke-linejoin="round" stroke-width="3.5455516823258937"/>
  <path d="M 16.35446462850614, 62.637899608337186 Q 20.197325791387808, 59.6494247568639, 33.81785778032385, 57.733122149549125 " fill="none" id="curve_20" stroke="#000000" stroke-linecap="round" stroke-linejoin="round" stroke-width="3.2020638217561417"/>
  <path d="M 27.086638021699308, 64.8965370665663 Q 27.21425820215713, 59.752477533565695, 30.70694923391395, 59.126316394916536 " fill="none" id="curve_24" stroke="#000000" stroke-linecap="round" stroke-linejoin="round" stroke-width="1.7862663031770447"/>
  <path d="M 23.406347406286766, 71.94931480156936 Q 23.354095975705313, 72.95644333468643, 23.332634072480804, 77.4578745467678 " fill="none" id="curve_25" stroke="#000000" stroke-linecap="round" stroke-linejoin="round" stroke-width="2.369390057157216"/>
  <path d="M 52.50720319555896, 103.81596281729341 Q 49.85082638673233, 105.98429317463358, 42.1699246816344, 107.36411281078819 " fill="none" id="curve_27" stroke="#000000" stroke-linecap="round" stroke-linejoin="round" stroke-width="2.714096224470454"/>
  <path d="M 37.4086726150131, 52.70543395602505 Q 35.33232070464379, 52.28992322482751, 28.860780962967624, 51.74153814805068 " fill="none" id="curve_60" stroke="#000000" stroke-linecap="round" stroke-linejoin="round" stroke-width="3.087035402471979"/>
  <path d="M 49.511747095267765, 74.83954169550907 Q 48.435131289833066, 83.42321029336576, 44.20048848522753, 91.07828118587817 " fill="none" id="curve_75" stroke="#000000" stroke-linecap="round" stroke-linejoin="round" stroke-width="2.456415589037467"/>
  <path d="M 12.621705426218924, 107.4916932917194 Q 12.503486216596574, 103.19988730874778, 11.801206741093036, 101.77608068616132 " fill="none" id="curve_79" stroke="#000000" stroke-linecap="round" stroke-linejoin="round" stroke-width="3.4999247911247373"/>
  <path d="M 16.207899732497687, 62.845962439666316 Q 18.978229865161573, 58.4905451784423, 23.855597316210872, 53.409101388329226 " fill="none" id="curve_82" stroke="#000000" stroke-linecap="round" stroke-linejoin="round" stroke-width="2.7808062992933777"/>
  <path d="M 23.855597316210872, 53.409101388329226 Q 27.049940202380142, 52.054471939294125, 38.76661081190282, 51.24283052416011 " fill="none" id="curve_82" stroke="#000000" stroke-linecap="round" stroke-linejoin="round" stroke-width="2.436907001798267"/>
  <path d="M 59.8366030069443, 85.02663860004265 Q 59.78863326238103, 83.02540975802472, 59.69432996426184, 80.98950489373865 " fill="none" id="curve_97" stroke="#000000" stroke-linecap="round" stroke-linejoin="round" stroke-width="3.485781754799614"/>
  <path d="M 50.69085834462946, 62.07326454175414 Q 50.80163841663509, 59.650648509338964, 51.74012031002076, 58.749536309085336 " fill="none" id="curve_129" stroke="#000000" stroke-linecap="round" stroke-linejoin="round" stroke-width="2.6604604560124034"/>
  <path d="M 58.316469947381734, 91.13801751062817 Q 57.020687055984304, 92.72763941268458, 54.62393503193624, 96.7255021175608 " fill="none" id="curve_144" stroke="#000000" stroke-linecap="round" stroke-linejoin="round" stroke-width="2.611733826949562"/>
</svg>
