<?xml version="1.0" ?>
<svg height="140" width="140" xmlns="http://www.w3.org/2000/svg">
  <path d="M 48.363338470458984, 38.727060943841934 Q 47.09319470379201, 39.944046688452275, 40.61950597522548, 41.14275963629677 " fill="none" id="curve_1" stroke="#000000" stroke-linecap="round" stroke-linejoin="round" stroke-width="11.939185271559046"/>
  <path d="M 40.61950597522548, 41.14275963629677 Q 30.629759623605608, 43.329543355456934, 23.429851069958403, 61.12733347787169 " fill="none" id="curve_1" stroke="#000000" stroke-linecap="round" stroke-linejoin="round" stroke-width="6.415780966393068"/>
  <path d="M 23.429851069958403, 61.12733347787169 Q 18.561620380052837, 69.46542832185395, 11.031328894101337, 93.93428788197474 " fill="none" id="curve_1" stroke="#000000" stroke-linecap="round" stroke-linejoin="round" stroke-width="6.416244787749216"/>
  <path d="M 11.031328894101337, 93.93428788197474 Q 11.849125402141103, 103.76138776210612, 15.818650859204809, 106.65070620448888 " fill="none" id="curve_1" stroke="#000000" stroke-linecap="round" stroke-linejoin="round" stroke-width="7.773413952266275"/>
  <path d="M 15.818650859204809, 106.65070620448888 Q 37.18375434629601, 104.56876162602228, 52.76096924103017, 82.45718014551355 " fill="none" id="curve_1" stroke="#000000" stroke-linecap="round" stroke-linejoin="round" stroke-width="5.747393300348087"/>
  <path d="M 52.76096924103017, 82.45718014551355 Q 60.4581303634278, 77.08968733940485, 64.67432888056061, 58.58293378352956 " fill="none" id="curve_1" stroke="#000000" stroke-linecap="round" stroke-linejoin="round" stroke-width="6.683616400857091"/>
  <path d="M 64.67432888056061, 58.58293378352956 Q 64.34657164149225, 40.34052848096616, 46.797848406788624, 39.187230191949894 " fill="none" id="curve_1" stroke="#000000" stroke-linecap="round" stroke-linejoin="round" stroke-width="8.392087598912953"/>
  <path d="M 90.95610640660644, 21.545853756503817 Q 90.18641509141301, 26.214031407667413, 89.38607119150551, 43.29637293926463 " fill="none" id="curve_3" stroke="#000000" stroke-linecap="round" stroke-linejoin="round" stroke-width="1.9619386397348457"/>
  <path d="M 89.38607119150551, 43.29637293926463 Q 89.75656053377168, 47.42251894229901, 90.02284076637376, 83.69468385544782 " fill="none" id="curve_3" stroke="#000000" stroke-linecap="round" stroke-linejoin="round" stroke-width="1.840957318843532"/>
  <path d="M 90.02284076637376, 83.69468385544782 Q 89.9529643510945, 94.55807148956103, 89.72661302906026, 115.75726198301587 " fill="none" id="curve_3" stroke="#000000" stroke-linecap="round" stroke-linejoin="round" stroke-width="1.6270819186385135"/>
  <path d="M 89.72661302906026, 115.75726198301587 Q 89.70032123319444, 135.12729491107794, 89.45367026741782, 138.89503323434425 " fill="none" id="curve_3" stroke="#000000" stroke-linecap="round" stroke-linejoin="round" stroke-width="2.0296687853051125"/>
  <path d="M 89.45367026741782, 138.89503323434425 Q 89.29802661598954, 138.54320919346685, 88.99011552148883, 138.1848850331106 " fill="none" id="curve_3" stroke="#000000" stroke-linecap="round" stroke-linejoin="round" stroke-width="1.7892227835334658"/>
  <path d="M 55.559704575711855, 76.03105557695764 Q 51.66322677902125, 80.80366276750269, 43.981214699571, 88.9707426350791 " fill="none" id="curve_6" stroke="#000000" stroke-linecap="round" stroke-linejoin="round" stroke-width="3.305388597463695"/>
  <path d="M 43.981214699571, 88.9707426350791 Q 39.34161395133427, 93.8394683861518, 29.068174262881485, 100.38001249837356 " fill="none" id="curve_6" stroke="#000000" stroke-linecap="round" stroke-linejoin="round" stroke-width="3.3752868645186904"/>
  <path d="M 11.336661638928906, 105.9720848667315 Q 12.078088705625772, 98.96819745978675, 14.545130673878324, 95.38811590029779 " fill="none" id="curve_7" stroke="#000000" stroke-linecap="round" stroke-linejoin="round" stroke-width="3.7871536748919357"/>
  <path d="M 44.1663276115003, 36.784323783279255 Q 46.56435328861346, 36.78405009082292, 50.87214940046091, 36.78370183209936 " fill="none" id="curve_11" stroke="#000000" stroke-linecap="round" stroke-linejoin="round" stroke-width="3.633667057179783"/>
  <path d="M 88.9841456348848, 10.788442202934643 Q 89.00372449408833, 5.662705083624898, 89.05295258035136, 0.6982134809571576 " fill="none" id="curve_13" stroke="#000000" stroke-linecap="round" stroke-linejoin="round" stroke-width="2.4228837379796753"/>
  <path d="M 54.193328312904576, 40.632444378204205 Q 56.26835478923397, 45.17491636658153, 63.62730398410559, 49.77180983273194 " fill="none" id="curve_14" stroke="#000000" stroke-linecap="round" stroke-linejoin="round" stroke-width="5.329043163278172"/>
  <path d="M 63.62730398410559, 49.77180983273194 Q 63.333873032131756, 42.395812590442965, 56.77781879613167, 41.205310151735375 " fill="none" id="curve_14" stroke="#000000" stroke-linecap="round" stroke-linejoin="round" stroke-width="4.994642109129436"/>
  <path d="M 56.77781879613167, 41.205310151735375 Q 59.78095997874286, 46.917879084001335, 63.49806248319746, 58.119676489801094 " fill="none" id="curve_14" stroke="#000000" stroke-linecap="round" stroke-linejoin="round" stroke-width="3.902030444513357"/>
  <path d="M 90.22901685530599, 22.087396814632932 Q 90.00999961142342, 17.60948311622527, 89.25603369488255, 14.22860957696124 " fill="none" id="curve_15" stroke="#000000" stroke-linecap="round" stroke-linejoin="round" stroke-width="2.423522307932549"/>
  <path d="M 55.25456783742952, 43.69318836569786 Q 46.9502316920018, 42.973476611370536, 42.00057488164485, 40.29943364234016 " fill="none" id="curve_16" stroke="#000000" stroke-linecap="round" stroke-linejoin="round" stroke-width="7.219910351095145"/>
  <path d="M 42.00057488164485, 40.29943364234016 Q 43.14868000397414, 37.67175373123316, 49.203518592178376, 36.58650909277206 " fill="none" id="curve_16" stroke="#000000" stroke-linecap="round" stroke-linejoin="round" stroke-width="3.93126681685369"/>
  <path d="M 68.17445210988919, 53.368858984100086 Q 63.16558089009724, 67.57799579582297, 52.27391888365701, 81.60843964903884 " fill="none" id="curve_17" stroke="#000000" stroke-linecap="round" stroke-linejoin="round" stroke-width="3.2411829837326773"/>
  <path d="M 23.32657650919341, 58.918783301508945 Q 21.33435022489116, 61.68538636468036, 17.25033653912807, 69.09701729573422 " fill="none" id="curve_19" stroke="#000000" stroke-linecap="round" stroke-linejoin="round" stroke-width="2.7804981891272513"/>
  <path d="M 14.977583395489773, 75.52357698854063 Q 15.705311026146838, 75.45104207090584, 16.67655352741467, 75.21136643568737 " fill="none" id="curve_22" stroke="#000000" stroke-linecap="round" stroke-linejoin="round" stroke-width="3.389110132345586"/>
  <path d="M 24.81001145300007, 54.88832791277275 Q 22.21235695486999, 55.7333348471634, 21.177719925575076, 59.4094736037688 " fill="none" id="curve_23" stroke="#000000" stroke-linecap="round" stroke-linejoin="round" stroke-width="3.8076620068784095"/>
  <path d="M 41.33836317040756, 34.64788539660489 Q 54.50340746043589, 36.457651182309114, 61.21725634067356, 41.74801015075897 " fill="none" id="curve_24" stroke="#000000" stroke-linecap="round" stroke-linejoin="round" stroke-width="2.5362483001264478"/>
  <path d="M 62.65021603181765, 61.429852241392254 Q 62.47618080167781, 66.30158058549472, 61.81112757804681, 68.67244465496589 " fill="none" id="curve_25" stroke="#000000" stroke-linecap="round" stroke-linejoin="round" stroke-width="4.800571101981099"/>
  <path d="M 62.248066693742416, 69.83356904785617 Q 64.38486014720647, 66.00520393178019, 65.68719163981902, 48.94872615758398 " fill="none" id="curve_35" stroke="#000000" stroke-linecap="round" stroke-linejoin="round" stroke-width="2.90905573316779"/>
  <path d="M 12.457017721897694, 104.47431024261061 Q 11.165034022584214, 103.37333090420908, 9.378405537135523, 102.18398764265099 " fill="none" id="curve_37" stroke="#000000" stroke-linecap="round" stroke-linejoin="round" stroke-width="3.9243986604166192"/>
  <path d="M 61.723835355523896, 65.96499620156133 Q 63.25995671633552, 64.60700412145721, 63.849901839364975, 56.88860652586295 " fill="none" id="curve_46" stroke="#000000" stroke-linecap="round" stroke-linejoin="round" stroke-width="3.8543482689854907"/>
  <path d="M 16.524003689983147, 70.49329688871649 Q 13.840520997397673, 76.57658168191976, 9.775958942338695, 90.41563086974388 " fill="none" id="curve_61" stroke="#000000" stroke-linecap="round" stroke-linejoin="round" stroke-width="2.4482533629031122"/>
  <path d="M 16.54182334754519, 103.76271551606263 Q 21.227027690699895, 102.93292193667007, 27.966948690377663, 101.9212461691256 " fill="none" id="curve_62" stroke="#000000" stroke-linecap="round" stroke-linejoin="round" stroke-width="3.0833564395615585"/>
  <path d="M 62.02441851307365, 56.8995118183526 Q 63.05283535344555, 60.835343578912685, 64.64620736632814, 65.62858026123538 " fill="none" id="curve_64" stroke="#000000" stroke-linecap="round" stroke-linejoin="round" stroke-width="4.425093631763764"/>
  <path d="M 52.16035086192528, 86.94731214688909 Q 47.776328795975374, 89.78346434764583, 42.56376986087962, 94.18102564856832 " fill="none" id="curve_79" stroke="#000000" stroke-linecap="round" stroke-linejoin="round" stroke-width="2.915887081678722"/>
  <path d="M 57.676419999997094, 67.56236494166527 Q 60.79964706848635, 65.65184616969702, 66.93002148983456, 62.621342459879 " fill="none" id="curve_82" stroke="#000000" stroke-linecap="round" stroke-linejoin="round" stroke-width="3.8221320678846067"/>
</svg>
