<?xml version="1.0" ?>
<svg height="140" width="140" xmlns="http://www.w3.org/2000/svg">
  <path d="M 15.796823978424072, 86.89668083190918 Q 15.361594222954242, 83.2731550548571, 14.729533027410426, 74.96676953046483 " fill="none" id="curve_1" stroke="#000000" stroke-linecap="round" stroke-linejoin="round" stroke-width="6.81241471853897"/>
  <path d="M 14.729533027410426, 74.96676953046483 Q 19.94759581138917, 70.37170795911123, 26.770485870210706, 61.69239328092469 " fill="none" id="curve_1" stroke="#000000" stroke-linecap="round" stroke-linejoin="round" stroke-width="6.382447875245913"/>
  <path d="M 26.770485870210706, 61.69239328092469 Q 31.724648767309816, 61.278443359745665, 33.72997680327913, 59.60066806366957 " fill="none" id="curve_1" stroke="#000000" stroke-linecap="round" stroke-linejoin="round" stroke-width="6.0140666954971405"/>
  <path d="M 33.72997680327913, 59.60066806366957 Q 44.57184993465822, 60.12244308992543, 45.22472427534858, 80.51265212371311 " fill="none" id="curve_1" stroke="#000000" stroke-linecap="round" stroke-linejoin="round" stroke-width="5.236328994473953"/>
  <path d="M 45.22472427534858, 80.51265212371311 Q 43.42411765895664, 97.01920366758577, 30.609316176896396, 107.5446924025321 " fill="none" id="curve_1" stroke="#000000" stroke-linecap="round" stroke-linejoin="round" stroke-width="3.873264937755113"/>
  <path d="M 30.609316176896396, 107.5446924025321 Q 16.016157271459484, 107.27546281126233, 14.98065862385006, 89.72141323240314 " fill="none" id="curve_1" stroke="#000000" stroke-linecap="round" stroke-linejoin="round" stroke-width="6.31128666941283"/>
  <path d="M 14.98065862385006, 89.72141323240314 Q 13.937085455562306, 88.83306653222141, 13.643895082964452, 82.25856441717112 " fill="none" id="curve_1" stroke="#000000" stroke-linecap="round" stroke-linejoin="round" stroke-width="3.302345757584648"/>
  <path d="M 13.643895082964452, 82.25856441717112 Q 16.53639963460647, 95.25477858706981, 21.466494742674413, 104.60804157814056 " fill="none" id="curve_1" stroke="#000000" stroke-linecap="round" stroke-linejoin="round" stroke-width="3.9871678366532484"/>
  <path d="M 21.466494742674413, 104.60804157814056 Q 24.29009342856658, 105.31923946682957, 34.13911280979602, 105.57815696322896 " fill="none" id="curve_1" stroke="#000000" stroke-linecap="round" stroke-linejoin="round" stroke-width="4.01685095256511"/>
  <path d="M 40.443178112926816, 93.47508702765536 Q 39.26974914089219, 94.2479127564876, 38.48437704944591, 96.28119581755443 " fill="none" id="curve_2" stroke="#000000" stroke-linecap="round" stroke-linejoin="round" stroke-width="3.872741774065249"/>
  <path d="M 22.46488477611391, 106.89143956722478 Q 20.67529476864607, 105.63317058144503, 18.36729291580583, 104.14757705916173 " fill="none" id="curve_3" stroke="#000000" stroke-linecap="round" stroke-linejoin="round" stroke-width="4.526644764878567"/>
  <path d="M 32.34170395905209, 59.49867677458913 Q 32.2977871542246, 58.61388674652224, 32.193940397721796, 57.89353213560666 " fill="none" id="curve_4" stroke="#000000" stroke-linecap="round" stroke-linejoin="round" stroke-width="4.238299734137839"/>
  <path d="M 89.84594006368825, 2.5272852229460216 Q 89.5455884329128, 3.1637987066315563, 89.06065618258827, 4.311845268738416 " fill="none" id="curve_15" stroke="#000000" stroke-linecap="round" stroke-linejoin="round" stroke-width="2.582789388365955"/>
  <path d="M 89.42144055957979, 2.6734156012971937 Q 89.50897279904542, 2.245456252565991, 89.697619815204, 1.5259114093500559 " fill="none" id="curve_25" stroke="#000000" stroke-linecap="round" stroke-linejoin="round" stroke-width="1.7964610229957387"/>
  <path d="M 18.220051710864137, 75.49205087153962 Q 16.073125187710176, 77.66623344621387, 13.081094803062097, 80.5821910127752 " fill="none" id="curve_36" stroke="#000000" stroke-linecap="round" stroke-linejoin="round" stroke-width="2.8889285251841073"/>
  <path d="M 21.479970494194138, 102.89155141329672 Q 23.437655053949563, 104.36962683657778, 24.699500279675938, 108.03524170251433 " fill="none" id="curve_37" stroke="#000000" stroke-linecap="round" stroke-linejoin="round" stroke-width="3.0940071433012295"/>
  <path d="M 15.559508688744646, 86.50110491024714 Q 16.446617207390275, 87.07977029953642, 17.432583551495092, 88.75345593882783 " fill="none" id="curve_38" stroke="#000000" stroke-linecap="round" stroke-linejoin="round" stroke-width="2.339546065333033"/>
  <path d="M 35.6025730480054, 57.92615529229653 Q 37.88194315550136, 59.55322435663771, 40.775328057686764, 62.35628188201202 " fill="none" id="curve_39" stroke="#000000" stroke-linecap="round" stroke-linejoin="round" stroke-width="2.788991961941442"/>
  <path d="M 44.63970098666471, 66.73386976194574 Q 42.029681424301415, 62.515052330325545, 34.93571096481644, 58.46438564718555 " fill="none" id="curve_54" stroke="#000000" stroke-linecap="round" stroke-linejoin="round" stroke-width="3.076518006151504"/>
  <path d="M 34.93571096481644, 58.46438564718555 Q 37.33408265755807, 59.24398378445442, 39.374589123514006, 60.98506646628819 " fill="none" id="curve_54" stroke="#000000" stroke-linecap="round" stroke-linejoin="round" stroke-width="3.1135326040529634"/>
  <path d="M 30.262181632762235, 104.6022700929535 Q 32.07978642372359, 104.1543821199575, 34.28713943620539, 103.5397831121881 " fill="none" id="curve_69" stroke="#000000" stroke-linecap="round" stroke-linejoin="round" stroke-width="3.06293485766092"/>
  <path d="M 40.91706377816217, 64.27065176619362 Q 40.37137498289553, 60.034815153275744, 35.7729059052163, 58.89720635627229 " fill="none" id="curve_97" stroke="#000000" stroke-linecap="round" stroke-linejoin="round" stroke-width="3.518428937230187"/>
  <path d="M 39.3097925158647, 61.94217885232954 Q 38.31615491258062, 60.42311227246685, 35.89632915052906, 58.45009404125176 " fill="none" id="curve_117" stroke="#000000" stroke-linecap="round" stroke-linejoin="round" stroke-width="3.3199679636796398"/>
  <path d="M 22.96101088849452, 65.3911845929859 Q 29.236535714214774, 64.25586092092033, 32.47665936862123, 59.837450655246485 " fill="none" id="curve_136" stroke="#000000" stroke-linecap="round" stroke-linejoin="round" stroke-width="2.3725019103732756"/>
  <path d="M 37.0033387789196, 60.89087417977951 Q 38.888344179779075, 61.039233270987445, 40.41405349448141, 61.44303975203064 " fill="none" id="curve_160" stroke="#000000" stroke-linecap="round" stroke-linejoin="round" stroke-width="3.6513464787677514"/>
  <path d="M 41.318322980109315, 64.7454823431101 Q 38.54857606197756, 62.74762026340525, 34.93783919282925, 59.31245655143515 " fill="none" id="curve_188" stroke="#000000" stroke-linecap="round" stroke-linejoin="round" stroke-width="3.6022827317111594"/>
</svg>
