<?xml version="1.0" ?>
<svg height="140" width="140" xmlns="http://www.w3.org/2000/svg">
  <path d="M 88.91226017475128, 67.26469707489014 Q 88.88035814122983, 79.7803367850176, 88.67735655636739, 91.84171836086034 " fill="none" id="curve_1" stroke="#000000" stroke-linecap="round" stroke-linejoin="round" stroke-width="3.083998694090337"/>
  <path d="M 88.67735655636739, 91.84171836086034 Q 88.96535793677411, 93.27613709784494, 89.0846804507368, 122.05754639806266 " fill="none" id="curve_1" stroke="#000000" stroke-linecap="round" stroke-linejoin="round" stroke-width="2.5583216013535934"/>
  <path d="M 89.0846804507368, 122.05754639806266 Q 89.01327475113631, 135.2836957448075, 88.62012941912592, 138.67945792183454 " fill="none" id="curve_1" stroke="#000000" stroke-linecap="round" stroke-linejoin="round" stroke-width="3.1088189565898054"/>
  <path d="M 88.62012941912592, 138.67945792183454 Q 87.65922806448569, 138.7841909855983, 86.5401553804679, 138.9063371618264 " fill="none" id="curve_1" stroke="#000000" stroke-linecap="round" stroke-linejoin="round" stroke-width="3.0406206957591966"/>
  <path d="M 50.278184158184736, 78.38156104334556 Q 50.76740916329983, 72.52380764870026, 52.21054351919767, 61.81117554140568 " fill="none" id="curve_5" stroke="#000000" stroke-linecap="round" stroke-linejoin="round" stroke-width="5.857835886726674"/>
  <path d="M 52.21054351919767, 61.81117554140568 Q 51.857328699660066, 39.549278904176276, 43.712993638602434, 29.636039386430696 " fill="none" id="curve_5" stroke="#000000" stroke-linecap="round" stroke-linejoin="round" stroke-width="4.711797982954832"/>
  <path d="M 43.712993638602434, 29.636039386430696 Q 42.32231714595407, 25.108008035589734, 37.69572136386162, 22.37839635015387 " fill="none" id="curve_5" stroke="#000000" stroke-linecap="round" stroke-linejoin="round" stroke-width="4.484227711299931"/>
  <path d="M 37.69572136386162, 22.37839635015387 Q 27.645932562092945, 26.594150423156634, 22.61797178347536, 52.10520807385394 " fill="none" id="curve_5" stroke="#000000" stroke-linecap="round" stroke-linejoin="round" stroke-width="5.647106925795048"/>
  <path d="M 22.61797178347536, 52.10520807385394 Q 22.32499738465035, 58.12677215530059, 21.852650428264017, 91.64587186224654 " fill="none" id="curve_5" stroke="#000000" stroke-linecap="round" stroke-linejoin="round" stroke-width="5.35528201090707"/>
  <path d="M 21.852650428264017, 91.64587186224654 Q 25.368771693620833, 102.33846049368569, 30.523727685168836, 110.45525415036576 " fill="none" id="curve_5" stroke="#000000" stroke-linecap="round" stroke-linejoin="round" stroke-width="5.792423635235626"/>
  <path d="M 30.523727685168836, 110.45525415036576 Q 42.003489143566924, 105.45547445490979, 49.59190574815291, 84.29047126445502 " fill="none" id="curve_5" stroke="#000000" stroke-linecap="round" stroke-linejoin="round" stroke-width="4.811770480097076"/>
  <path d="M 89.15441372654205, 64.6101430616212 Q 89.16592619812435, 57.950721154717996, 89.18414027948131, 33.37726610800455 " fill="none" id="curve_6" stroke="#000000" stroke-linecap="round" stroke-linejoin="round" stroke-width="2.552929036547449"/>
  <path d="M 89.18414027948131, 33.37726610800455 Q 89.15340499908437, 24.243959211618105, 89.07853428167881, 6.460983573354756 " fill="none" id="curve_6" stroke="#000000" stroke-linecap="round" stroke-linejoin="round" stroke-width="2.555317035348301"/>
  <path d="M 89.07853428167881, 6.460983573354756 Q 88.92895245815559, 2.718960107037851, 88.03367422585531, 1.9010550284809558 " fill="none" id="curve_6" stroke="#000000" stroke-linecap="round" stroke-linejoin="round" stroke-width="4.086177080373631"/>
  <path d="M 48.44274709825434, 81.22973657233099 Q 48.19617087643266, 82.24055704110098, 48.089119233301915, 88.89483715277021 " fill="none" id="curve_10" stroke="#000000" stroke-linecap="round" stroke-linejoin="round" stroke-width="3.4374921178965883"/>
  <path d="M 48.089119233301915, 88.89483715277021 Q 43.97332948149398, 98.52332613969557, 32.39229447503048, 106.83855947933216 " fill="none" id="curve_10" stroke="#000000" stroke-linecap="round" stroke-linejoin="round" stroke-width="3.1946225853350287"/>
  <path d="M 22.962459045018573, 83.57654838546827 Q 20.478302172307288, 81.39450245134726, 19.505828294859082, 66.75427914820541 " fill="none" id="curve_11" stroke="#000000" stroke-linecap="round" stroke-linejoin="round" stroke-width="3.538948454196042"/>
  <path d="M 54.25956921760364, 49.81139449360149 Q 54.104933453950636, 58.716096909649394, 52.9223541957847, 61.413662434813084 " fill="none" id="curve_13" stroke="#000000" stroke-linecap="round" stroke-linejoin="round" stroke-width="2.824182986367201"/>
  <path d="M 26.103183646963718, 47.848869416157086 Q 25.00667461072797, 45.77345953734212, 23.591403915240747, 41.83807665211396 " fill="none" id="curve_14" stroke="#000000" stroke-linecap="round" stroke-linejoin="round" stroke-width="2.7941935586862"/>
  <path d="M 23.591403915240747, 41.83807665211396 Q 28.51927276050648, 35.78202786996991, 33.25822247077676, 22.94948393580987 " fill="none" id="curve_14" stroke="#000000" stroke-linecap="round" stroke-linejoin="round" stroke-width="2.7128246463144445"/>
  <path d="M 33.25822247077676, 22.94948393580987 Q 44.710385580353616, 26.777612706097127, 49.7774228375027, 36.38509189406624 " fill="none" id="curve_14" stroke="#000000" stroke-linecap="round" stroke-linejoin="round" stroke-width="2.492598202597969"/>
  <path d="M 32.171226493747994, 24.270686301568528 Q 29.180168749928033, 30.44014547709216, 25.688262606805765, 37.27244233424149 " fill="none" id="curve_15" stroke="#000000" stroke-linecap="round" stroke-linejoin="round" stroke-width="4.380455109342049"/>
  <path d="M 25.688262606805765, 37.27244233424149 Q 30.381784661623, 34.98864935190727, 32.19456586392475, 25.998566313783385 " fill="none" id="curve_15" stroke="#000000" stroke-linecap="round" stroke-linejoin="round" stroke-width="2.901407269836431"/>
  <path d="M 49.704950066299, 58.27927651014182 Q 50.383941453989024, 58.2802278082879, 50.78052215972114, 58.28365675785484 " fill="none" id="curve_16" stroke="#000000" stroke-linecap="round" stroke-linejoin="round" stroke-width="4.832198638719387"/>
  <path d="M 24.79522088804295, 91.97880552920394 Q 24.998331522297576, 100.89790629697181, 25.415469555476363, 107.42959318223973 " fill="none" id="curve_17" stroke="#000000" stroke-linecap="round" stroke-linejoin="round" stroke-width="3.1788312047165004"/>
  <path d="M 21.66360966086059, 96.40386195081885 Q 23.387556054596004, 97.93826951630612, 24.825492641006658, 100.86770721688201 " fill="none" id="curve_18" stroke="#000000" stroke-linecap="round" stroke-linejoin="round" stroke-width="4.751964030285027"/>
  <path d="M 50.82443768120104, 82.79817514693144 Q 49.6013030831301, 82.45915807236975, 48.014770506557966, 81.76390644067324 " fill="none" id="curve_19" stroke="#000000" stroke-linecap="round" stroke-linejoin="round" stroke-width="4.247220938663656"/>
  <path d="M 86.97939409305957, 2.4404279554654096 Q 87.97355325518691, 2.284567368496999, 89.21532591801007, 1.9950108336924042 " fill="none" id="curve_34" stroke="#000000" stroke-linecap="round" stroke-linejoin="round" stroke-width="2.2107230813883896"/>
  <path d="M 50.29982654067794, 66.1184636153979 Q 50.98045631835279, 65.72703646784196, 51.70945635270582, 64.96211689530591 " fill="none" id="curve_49" stroke="#000000" stroke-linecap="round" stroke-linejoin="round" stroke-width="4.752381032235584"/>
  <path d="M 22.634403603050405, 44.123515854321646 Q 23.970519155819282, 44.325419026786506, 25.26755712289193, 45.002505321240484 " fill="none" id="curve_53" stroke="#000000" stroke-linecap="round" stroke-linejoin="round" stroke-width="2.774532863517488"/>
  <path d="M 49.790669850122335, 68.90073594475399 Q 49.968321249724326, 63.02918210983285, 53.90160902198344, 62.37715732435634 " fill="none" id="curve_69" stroke="#000000" stroke-linecap="round" stroke-linejoin="round" stroke-width="3.494553141658445"/>
  <path d="M 25.766981804657263, 96.57173332671786 Q 25.935581860593256, 96.91963894853593, 26.06237522673168, 98.07127600232931 " fill="none" id="curve_72" stroke="#000000" stroke-linecap="round" stroke-linejoin="round" stroke-width="3.2885399399989437"/>
  <path d="M 46.00999147097809, 86.88893409040713 Q 45.7591428557299, 88.39259382491143, 45.4538325754511, 91.92838952887476 " fill="none" id="curve_100" stroke="#000000" stroke-linecap="round" stroke-linejoin="round" stroke-width="2.0144179840141"/>
  <path d="M 49.38198025017426, 66.41934840213315 Q 49.6855969807642, 65.61402204392454, 50.42662436100619, 65.07998348317683 " fill="none" id="curve_129" stroke="#000000" stroke-linecap="round" stroke-linejoin="round" stroke-width="3.8592254403183355"/>
  <path d="M 53.7582487715116, 60.52999713408044 Q 53.79724135464966, 59.826601705190825, 53.845763224620356, 58.94280266620122 " fill="none" id="curve_158" stroke="#000000" stroke-linecap="round" stroke-linejoin="round" stroke-width="3.202747666270294"/>
</svg>
