<?xml version="1.0" ?>
<svg height="140" width="140" xmlns="http://www.w3.org/2000/svg">
  <path d="M 62.354671478271484, 81.70886993408203 Q 63.18538165683134, 79.79208686643794, 64.22567762392777, 75.47277346741726 " fill="none" id="curve_1" stroke="#000000" stroke-linecap="round" stroke-linejoin="round" stroke-width="6.223666991507409"/>
  <path d="M 64.22567762392777, 75.47277346741726 Q 63.597646094793134, 65.14634566164568, 58.87766861004739, 56.22623791895849 " fill="none" id="curve_1" stroke="#000000" stroke-linecap="round" stroke-linejoin="round" stroke-width="5.091812605803748"/>
  <path d="M 58.87766861004739, 56.22623791895849 Q 56.29903297461864, 46.706501596239676, 41.35209609338018, 39.421518746703825 " fill="none" id="curve_1" stroke="#000000" stroke-linecap="round" stroke-linejoin="round" stroke-width="5.665042774829878"/>
  <path d="M 41.35209609338018, 39.421518746703825 Q 29.14096748926623, 41.65746031157603, 14.679991489058441, 62.449047362623716 " fill="none" id="curve_1" stroke="#000000" stroke-linecap="round" stroke-linejoin="round" stroke-width="5.453895136079021"/>
  <path d="M 14.679991489058441, 62.449047362623716 Q 12.248976503843439, 70.00848794640076, 10.18246230481008, 79.70920235370025 " fill="none" id="curve_1" stroke="#000000" stroke-linecap="round" stroke-linejoin="round" stroke-width="6.006047027553384"/>
  <path d="M 10.18246230481008, 79.70920235370025 Q 10.714049961383934, 106.49674372919735, 26.443899681835173, 108.45161002470067 " fill="none" id="curve_1" stroke="#000000" stroke-linecap="round" stroke-linejoin="round" stroke-width="5.155311737470047"/>
  <path d="M 26.443899681835173, 108.45161002470067 Q 50.46781706629655, 106.64450848098834, 64.0157870967355, 82.17415481078524 " fill="none" id="curve_1" stroke="#000000" stroke-linecap="round" stroke-linejoin="round" stroke-width="5.23794044479059"/>
  <path d="M 40.425635673195195, 49.52466674527734 Q 40.473821787837466, 42.71496052016151, 42.173482836462526, 42.20204864993935 " fill="none" id="curve_2" stroke="#000000" stroke-linecap="round" stroke-linejoin="round" stroke-width="4.315982673118167"/>
  <path d="M 42.173482836462526, 42.20204864993935 Q 24.470560646158738, 43.27457322364414, 18.677579238848924, 54.724347238919435 " fill="none" id="curve_2" stroke="#000000" stroke-linecap="round" stroke-linejoin="round" stroke-width="2.480877468790791"/>
  <path d="M 89.81925731339814, 33.32118579318679 Q 89.77180321029324, 51.89540519997155, 89.54481812659152, 67.05971056156547 " fill="none" id="curve_5" stroke="#000000" stroke-linecap="round" stroke-linejoin="round" stroke-width="1.913229849463016"/>
  <path d="M 89.54481812659152, 67.05971056156547 Q 89.70900471414298, 76.02905856120364, 90.11125173852662, 101.97787989281818 " fill="none" id="curve_5" stroke="#000000" stroke-linecap="round" stroke-linejoin="round" stroke-width="1.6418409887752814"/>
  <path d="M 90.11125173852662, 101.97787989281818 Q 89.96459942423097, 107.68850620272444, 89.77012871032322, 130.67159163141096 " fill="none" id="curve_5" stroke="#000000" stroke-linecap="round" stroke-linejoin="round" stroke-width="1.4392955421666027"/>
  <path d="M 89.77012871032322, 130.67159163141096 Q 89.69849273186858, 136.52934902498149, 89.42371273786213, 138.9498341238994 " fill="none" id="curve_5" stroke="#000000" stroke-linecap="round" stroke-linejoin="round" stroke-width="2.364837675135067"/>
  <path d="M 64.87963653303491, 80.88793739846894 Q 64.82858443926497, 80.36603972591189, 64.75164827634495, 79.6654735834411 " fill="none" id="curve_8" stroke="#000000" stroke-linecap="round" stroke-linejoin="round" stroke-width="3.3854530556981124"/>
  <path d="M 64.75164827634495, 79.6654735834411 Q 60.12491424906324, 86.04526895000319, 48.78314841952275, 97.60431870524627 " fill="none" id="curve_8" stroke="#000000" stroke-linecap="round" stroke-linejoin="round" stroke-width="2.8568882255778285"/>
  <path d="M 30.92750839995475, 106.30193752407192 Q 20.629581210114424, 105.67709558535724, 15.59033454323067, 103.0137820631178 " fill="none" id="curve_9" stroke="#000000" stroke-linecap="round" stroke-linejoin="round" stroke-width="2.1655172774453977"/>
  <path d="M 15.59033454323067, 103.0137820631178 Q 11.474002198446787, 100.41226601344921, 9.487771287676008, 91.6497423996173 " fill="none" id="curve_9" stroke="#000000" stroke-linecap="round" stroke-linejoin="round" stroke-width="4.0857724096931705"/>
  <path d="M 89.60326995716137, 29.170079993488365 Q 89.66349771692006, 24.744053438749187, 89.71982288983982, 3.7894534893775678 " fill="none" id="curve_14" stroke="#000000" stroke-linecap="round" stroke-linejoin="round" stroke-width="1.8403193287552917"/>
  <path d="M 89.71982288983982, 3.7894534893775678 Q 89.6847700421907, 2.630213243620469, 89.61692742611119, 1.4149907746995853 " fill="none" id="curve_14" stroke="#000000" stroke-linecap="round" stroke-linejoin="round" stroke-width="2.0360997393466382"/>
  <path d="M 56.757473989688755, 54.1516348535409 Q 51.96522674133453, 48.99722812477368, 44.42854836271104, 39.41844672703953 " fill="none" id="curve_16" stroke="#000000" stroke-linecap="round" stroke-linejoin="round" stroke-width="3.653996930416771"/>
  <path d="M 44.42854836271104, 39.41844672703953 Q 45.955994420602465, 40.1461875156235, 47.36621277094944, 42.16610012632026 " fill="none" id="curve_16" stroke="#000000" stroke-linecap="round" stroke-linejoin="round" stroke-width="3.150241685334139"/>
  <path d="M 9.013315556716348, 72.74069008172194 Q 11.001247473412533, 69.5144635005643, 14.133360205130977, 63.92810572462479 " fill="none" id="curve_20" stroke="#000000" stroke-linecap="round" stroke-linejoin="round" stroke-width="2.7091267362252043"/>
  <path d="M 38.34214222761305, 48.56690603541954 Q 39.42754251225671, 44.45540213241494, 46.785659796105634, 43.23690457305629 " fill="none" id="curve_30" stroke="#000000" stroke-linecap="round" stroke-linejoin="round" stroke-width="2.9238008622062233"/>
  <path d="M 42.9188032829244, 103.41213105789328 Q 39.54889981115482, 104.74948906341695, 33.03298834347922, 107.34075376782006 " fill="none" id="curve_37" stroke="#000000" stroke-linecap="round" stroke-linejoin="round" stroke-width="2.921781365265865"/>
  <path d="M 52.55060270953018, 46.31538719711313 Q 51.52529339166128, 42.184320414347646, 42.45593516630605, 40.606368133039645 " fill="none" id="curve_39" stroke="#000000" stroke-linecap="round" stroke-linejoin="round" stroke-width="2.8841238956423885"/>
  <path d="M 45.25785827636719, 99.06934356689453 Q 44.5555800355095, 104.16943407007473, 33.822521921768384, 105.12663607249488 " fill="none" id="curve_53" stroke="#000000" stroke-linecap="round" stroke-linejoin="round" stroke-width="3.461902219041064"/>
  <path d="M 16.232843135599097, 102.38328950415224 Q 13.653079845169081, 94.14869312830331, 8.25606470618946, 85.5448348073502 " fill="none" id="curve_54" stroke="#000000" stroke-linecap="round" stroke-linejoin="round" stroke-width="2.758719493951517"/>
  <path d="M 14.970486775823286, 66.578431235272 Q 15.159280353917655, 55.113480545825915, 22.934743362765, 54.097442012257666 " fill="none" id="curve_55" stroke="#000000" stroke-linecap="round" stroke-linejoin="round" stroke-width="3.2521122109233396"/>
  <path d="M 28.955529071310256, 43.476977504441614 Q 33.53300314347716, 41.64796370153067, 46.40532390808781, 39.92628988589042 " fill="none" id="curve_59" stroke="#000000" stroke-linecap="round" stroke-linejoin="round" stroke-width="2.094056670424017"/>
  <path d="M 14.613770477692892, 65.509053549686 Q 14.720789499032877, 60.04389406961697, 16.699255327793292, 59.0435132484719 " fill="none" id="curve_102" stroke="#000000" stroke-linecap="round" stroke-linejoin="round" stroke-width="3.2877454466464284"/>
</svg>
