<?xml version="1.0" ?>
<svg height="140" width="140" xmlns="http://www.w3.org/2000/svg">
  <path d="M 49.45768165588379, 44.22006607055664 Q 49.475759299053585, 42.0481328374074, 49.64701086850367, 41.489644778277636 " fill="none" id="curve_1" stroke="#000000" stroke-linecap="round" stroke-linejoin="round" stroke-width="5.250688863123655"/>
  <path d="M 49.64701086850367, 41.489644778277636 Q 43.86555970717961, 46.963569336077114, 32.03797953351612, 66.10206635433144 " fill="none" id="curve_1" stroke="#000000" stroke-linecap="round" stroke-linejoin="round" stroke-width="5.727070936918257"/>
  <path d="M 32.03797953351612, 66.10206635433144 Q 29.11758707966677, 76.16124519472392, 24.885153300530455, 88.18203349282986 " fill="none" id="curve_1" stroke="#000000" stroke-linecap="round" stroke-linejoin="round" stroke-width="4.865918941740719"/>
  <path d="M 24.885153300530455, 88.18203349282986 Q 25.030164153332194, 114.62538959395047, 37.08126376211566, 115.33285213588827 " fill="none" id="curve_1" stroke="#000000" stroke-linecap="round" stroke-linejoin="round" stroke-width="4.233519540049948"/>
  <path d="M 37.08126376211566, 115.33285213588827 Q 54.16802212983797, 113.49582010353629, 59.459953132339436, 89.24752252909903 " fill="none" id="curve_1" stroke="#000000" stroke-linecap="round" stroke-linejoin="round" stroke-width="3.8212206915171785"/>
  <path d="M 59.459953132339436, 89.24752252909903 Q 59.560354378283044, 80.65118473950162, 59.74632824308909, 72.61360724553485 " fill="none" id="curve_1" stroke="#000000" stroke-linecap="round" stroke-linejoin="round" stroke-width="3.6099779145048725"/>
  <path d="M 59.74632824308909, 72.61360724553485 Q 59.26673945072007, 51.220574521912326, 50.91263655577653, 45.62945120677863 " fill="none" id="curve_1" stroke="#000000" stroke-linecap="round" stroke-linejoin="round" stroke-width="4.210389190198263"/>
  <path d="M 50.91263655577653, 45.62945120677863 Q 39.65878250365234, 48.5518891985293, 33.40692192813919, 60.18869547230693 " fill="none" id="curve_1" stroke="#000000" stroke-linecap="round" stroke-linejoin="round" stroke-width="3.2020375428314036"/>
  <path d="M 33.40692192813919, 60.18869547230693 Q 31.749415926129505, 73.77838257825614, 25.344476942683357, 80.18077184133207 " fill="none" id="curve_1" stroke="#000000" stroke-linecap="round" stroke-linejoin="round" stroke-width="3.772138608165616"/>
  <path d="M 25.344476942683357, 80.18077184133207 Q 24.264309901749346, 87.13110267902503, 23.648297100346188, 103.59166991212733 " fill="none" id="curve_1" stroke="#000000" stroke-linecap="round" stroke-linejoin="round" stroke-width="3.9410704968445183"/>
  <path d="M 23.648297100346188, 103.59166991212733 Q 25.79109908832618, 110.29000124922997, 32.21282483726712, 113.05762711495031 " fill="none" id="curve_1" stroke="#000000" stroke-linecap="round" stroke-linejoin="round" stroke-width="3.5705019968069958"/>
  <path d="M 58.155499698122455, 93.1853815364858 Q 58.111549500901965, 88.58902349571643, 57.83144434437477, 87.2553356271449 " fill="none" id="curve_2" stroke="#000000" stroke-linecap="round" stroke-linejoin="round" stroke-width="3.423935874831673"/>
  <path d="M 58.517329624844756, 62.85321187540808 Q 56.99940500062288, 55.34932499049612, 54.50271563336877, 46.83260848893586 " fill="none" id="curve_3" stroke="#000000" stroke-linecap="round" stroke-linejoin="round" stroke-width="2.7949917163979956"/>
  <path d="M 58.45536743226785, 71.59713487618887 Q 58.968339245842756, 70.70915610878133, 59.31753684899006, 66.49582420003917 " fill="none" id="curve_4" stroke="#000000" stroke-linecap="round" stroke-linejoin="round" stroke-width="2.5988060868983083"/>
  <path d="M 55.541472453434686, 99.18114147939107 Q 56.85527310556457, 96.69674577515379, 58.63782988215656, 92.8948035014561 " fill="none" id="curve_6" stroke="#000000" stroke-linecap="round" stroke-linejoin="round" stroke-width="2.8610914065502704"/>
  <path d="M 26.400122730999648, 74.94425740501079 Q 32.30428516685723, 73.25462691262477, 34.7917494956733, 65.4110433078771 " fill="none" id="curve_15" stroke="#000000" stroke-linecap="round" stroke-linejoin="round" stroke-width="3.000935955974381"/>
  <path d="M 55.37076244187163, 47.715331867281705 Q 56.212321897719164, 52.71176981181493, 57.314964634633796, 61.558476621283845 " fill="none" id="curve_20" stroke="#000000" stroke-linecap="round" stroke-linejoin="round" stroke-width="2.4465349312808575"/>
  <path d="M 30.047613355288693, 111.76837983764729 Q 31.278630129796003, 114.30060303987703, 39.20187978598835, 115.12014172208585 " fill="none" id="curve_37" stroke="#000000" stroke-linecap="round" stroke-linejoin="round" stroke-width="2.6330027682118584"/>
  <path d="M 29.148472674420077, 109.63706120342844 Q 30.722192560379202, 110.04206443326048, 31.713554983011353, 111.56279367497984 " fill="none" id="curve_52" stroke="#000000" stroke-linecap="round" stroke-linejoin="round" stroke-width="3.4109574327465575"/>
  <path d="M 43.25531509254673, 46.578233638943445 Q 42.01921051892349, 48.73026629704423, 40.0173283753686, 50.95843361514219 " fill="none" id="curve_72" stroke="#000000" stroke-linecap="round" stroke-linejoin="round" stroke-width="3.2066592474759865"/>
  <path d="M 58.27617245918253, 65.53283876413616 Q 57.947242537555404, 64.55253056118481, 57.02425049740552, 63.785014907245206 " fill="none" id="curve_113" stroke="#000000" stroke-linecap="round" stroke-linejoin="round" stroke-width="3.5586199445293336"/>
  <path d="M 57.04740503594711, 97.95919225718549 Q 57.01919532685522, 96.06733479000762, 56.93811713450571, 94.58695779477456 " fill="none" id="curve_114" stroke="#000000" stroke-linecap="round" stroke-linejoin="round" stroke-width="3.792503612522347"/>
  <path d="M 47.402166992223556, 109.47095644940984 Q 46.52600554944291, 112.22556286126881, 43.11278886783127, 113.51039182825696 " fill="none" id="curve_155" stroke="#000000" stroke-linecap="round" stroke-linejoin="round" stroke-width="3.0960400011692064"/>
  <path d="M 43.11278886783127, 113.51039182825696 Q 40.429214448473566, 113.74756546929248, 32.032149893022265, 113.887577066256 " fill="none" id="curve_155" stroke="#000000" stroke-linecap="round" stroke-linejoin="round" stroke-width="2.90528213630544"/>
</svg>
