<?xml version="1.0" ?>
<svg height="140" width="140" xmlns="http://www.w3.org/2000/svg">
  <path d="M 19.10908079147339, 116.55553245544434 Q 19.26137653664088, 110.64546520709233, 19.604881947092963, 103.41612857182554 " fill="none" id="curve_1" stroke="#000000" stroke-linecap="round" stroke-linejoin="round" stroke-width="7.197232952298746"/>
  <path d="M 19.604881947092963, 103.41612857182554 Q 21.25621387091432, 94.2439855762971, 27.359640823480206, 77.51224607583191 " fill="none" id="curve_1" stroke="#000000" stroke-linecap="round" stroke-linejoin="round" stroke-width="4.518390606766481"/>
  <path d="M 27.359640823480206, 77.51224607583191 Q 30.726394543825947, 72.10475902253198, 34.48763655827951, 63.469100028335546 " fill="none" id="curve_1" stroke="#000000" stroke-linecap="round" stroke-linejoin="round" stroke-width="4.145361673089068"/>
  <path d="M 34.48763655827951, 63.469100028335546 Q 22.09158754133724, 64.59087212948654, 19.610078871405765, 75.95817782872592 " fill="none" id="curve_1" stroke="#000000" stroke-linecap="round" stroke-linejoin="round" stroke-width="3.7166755362489106"/>
  <path d="M 36.333148454389665, 64.31846121122346 Q 47.716649392889735, 65.42202600901204, 49.013066456773586, 78.12804978292868 " fill="none" id="curve_2" stroke="#000000" stroke-linecap="round" stroke-linejoin="round" stroke-width="5.361587887977501"/>
  <path d="M 49.013066456773586, 78.12804978292868 Q 49.257409712406, 89.99240776862246, 49.59453819259587, 98.36664930329579 " fill="none" id="curve_2" stroke="#000000" stroke-linecap="round" stroke-linejoin="round" stroke-width="4.230193852959331"/>
  <path d="M 49.59453819259587, 98.36664930329579 Q 45.056165013345264, 112.02064741445116, 29.151650668854046, 121.95434436095121 " fill="none" id="curve_2" stroke="#000000" stroke-linecap="round" stroke-linejoin="round" stroke-width="4.4400688241125135"/>
  <path d="M 29.151650668854046, 121.95434436095121 Q 19.979376875051933, 121.86712448588422, 19.48487557923101, 118.30609921063771 " fill="none" id="curve_2" stroke="#000000" stroke-linecap="round" stroke-linejoin="round" stroke-width="5.654406389040435"/>
  <path d="M 19.48487557923101, 118.30609921063771 Q 18.32919980919755, 116.12275974844621, 17.696079320871366, 109.7710001507452 " fill="none" id="curve_2" stroke="#000000" stroke-linecap="round" stroke-linejoin="round" stroke-width="3.2316765040401148"/>
  <path d="M 26.291843517029797, 76.66373623944031 Q 30.032663626208464, 70.39431916771846, 35.55874401814593, 63.169125647938415 " fill="none" id="curve_3" stroke="#000000" stroke-linecap="round" stroke-linejoin="round" stroke-width="3.343436870403454"/>
  <path d="M 35.55874401814593, 63.169125647938415 Q 38.39783949145415, 63.25019814673173, 40.86250624827646, 63.40626584250584 " fill="none" id="curve_3" stroke="#000000" stroke-linecap="round" stroke-linejoin="round" stroke-width="3.2040353562443715"/>
  <path d="M 88.50596912352262, 55.791801997995 Q 88.72280888823542, 58.97737522013805, 88.91654204262007, 89.58527018526189 " fill="none" id="curve_4" stroke="#000000" stroke-linecap="round" stroke-linejoin="round" stroke-width="3.264134187446776"/>
  <path d="M 88.91654204262007, 89.58527018526189 Q 88.89380221258283, 97.06475292942281, 88.79395094333172, 120.12302199116016 " fill="none" id="curve_4" stroke="#000000" stroke-linecap="round" stroke-linejoin="round" stroke-width="3.7148110919471873"/>
  <path d="M 88.79395094333172, 120.12302199116016 Q 88.80836393553794, 133.2298955521375, 88.86179505091694, 138.4503191050909 " fill="none" id="curve_4" stroke="#000000" stroke-linecap="round" stroke-linejoin="round" stroke-width="3.2080529560317146"/>
  <path d="M 88.86179505091694, 138.4503191050909 Q 88.51284331882836, 138.47561662713025, 87.93469152440674, 138.49903234468619 " fill="none" id="curve_4" stroke="#000000" stroke-linecap="round" stroke-linejoin="round" stroke-width="2.428800683044375"/>
  <path d="M 89.21125660882056, 87.13006758673356 Q 89.14824458889261, 80.04090144434853, 89.006543354216, 70.54190600110147 " fill="none" id="curve_6" stroke="#000000" stroke-linecap="round" stroke-linejoin="round" stroke-width="1.7553225448395666"/>
  <path d="M 88.85614470539318, 55.180571354072725 Q 88.84195037458649, 46.01563826076924, 88.76715155513645, 33.59351704868811 " fill="none" id="curve_7" stroke="#000000" stroke-linecap="round" stroke-linejoin="round" stroke-width="3.341270223727806"/>
  <path d="M 88.76715155513645, 33.59351704868811 Q 88.75878568750903, 24.591944580376918, 88.7135404074664, 13.312436028950277 " fill="none" id="curve_7" stroke="#000000" stroke-linecap="round" stroke-linejoin="round" stroke-width="3.3337038219225863"/>
  <path d="M 88.7135404074664, 13.312436028950277 Q 88.70190630813697, 4.235168940609936, 88.62301332444095, 1.5905337706824199 " fill="none" id="curve_7" stroke="#000000" stroke-linecap="round" stroke-linejoin="round" stroke-width="3.54954731042723"/>
  <path d="M 88.62301332444095, 1.5905337706824199 Q 87.73806127672611, 1.6603693044263954, 86.67943908317173, 1.742786978562679 " fill="none" id="curve_7" stroke="#000000" stroke-linecap="round" stroke-linejoin="round" stroke-width="2.6170647406050995"/>
  <path d="M 89.51169009703617, 58.64270113607183 Q 89.14458067475785, 63.19430568360373, 88.80524690874597, 71.65876123043509 " fill="none" id="curve_9" stroke="#000000" stroke-linecap="round" stroke-linejoin="round" stroke-width="1.7960649306972496"/>
  <path d="M 47.82090257559356, 84.4162075088677 Q 47.42428865726254, 76.50373265960692, 46.12893555548537, 70.79786516782634 " fill="none" id="curve_14" stroke="#000000" stroke-linecap="round" stroke-linejoin="round" stroke-width="1.7969910432915666"/>
  <path d="M 30.659436884664473, 62.6922708061075 Q 24.417357820057077, 64.70148569169574, 19.570252085652605, 72.14700890982526 " fill="none" id="curve_15" stroke="#000000" stroke-linecap="round" stroke-linejoin="round" stroke-width="2.3341702116376606"/>
  <path d="M 38.79206339266614, 117.1300994322131 Q 34.16405522666959, 119.35755888831252, 22.554377021141566, 120.8986739944719 " fill="none" id="curve_17" stroke="#000000" stroke-linecap="round" stroke-linejoin="round" stroke-width="3.8806780708352635"/>
  <path d="M 45.072478384218165, 105.6649586319141 Q 46.13329678414205, 101.12224215374754, 49.31460960434055, 98.39822351478263 " fill="none" id="curve_18" stroke="#000000" stroke-linecap="round" stroke-linejoin="round" stroke-width="2.736772027503258"/>
  <path d="M 22.58050017582918, 116.25062874894365 Q 22.82180753743959, 120.81200876111845, 25.12997445644938, 121.92576229862692 " fill="none" id="curve_39" stroke="#000000" stroke-linecap="round" stroke-linejoin="round" stroke-width="3.186322733815886"/>
  <path d="M 20.263987588304897, 76.00476866766058 Q 20.531795350521506, 71.5286624970799, 21.691166197528915, 68.81911894856285 " fill="none" id="curve_43" stroke="#000000" stroke-linecap="round" stroke-linejoin="round" stroke-width="2.2142718920225666"/>
  <path d="M 47.9262255066902, 73.3941354599785 Q 48.35722571123229, 72.95598775914134, 49.10313688570385, 72.1890099554597 " fill="none" id="curve_48" stroke="#000000" stroke-linecap="round" stroke-linejoin="round" stroke-width="2.1590045443323254"/>
  <path d="M 42.65909514709217, 106.60293084105736 Q 43.766276781552335, 106.21812060080858, 44.88395451944602, 105.22618117625056 " fill="none" id="curve_50" stroke="#000000" stroke-linecap="round" stroke-linejoin="round" stroke-width="2.3606908730709355"/>
</svg>
