<?xml version="1.0" ?>
<svg height="140" width="140" xmlns="http://www.w3.org/2000/svg">
  <path d="M 69.63476753234863, 52.9282112121582 Q 71.6745378050081, 53.29434004697403, 73.5683267743359, 54.39203273495343 " fill="none" id="curve_1" stroke="#000000" stroke-linecap="round" stroke-linejoin="round" stroke-width="5.492291689527284"/>
  <path d="M 73.5683267743359, 54.39203273495343 Q 72.02842746698956, 51.80931118722646, 60.148785708492845, 50.85966208092704 " fill="none" id="curve_1" stroke="#000000" stroke-linecap="round" stroke-linejoin="round" stroke-width="5.588795844205457"/>
  <path d="M 60.148785708492845, 50.85966208092704 Q 49.16738561675204, 52.82895035695454, 35.856887713328064, 61.455451103101474 " fill="none" id="curve_1" stroke="#000000" stroke-linecap="round" stroke-linejoin="round" stroke-width="6.1679694656442114"/>
  <path d="M 35.856887713328064, 61.455451103101474 Q 27.221028853804256, 66.53283310226028, 13.109249222126952, 81.89540962404632 " fill="none" id="curve_1" stroke="#000000" stroke-linecap="round" stroke-linejoin="round" stroke-width="5.726531958339233"/>
  <path d="M 13.109249222126952, 81.89540962404632 Q 10.814004736861978, 88.17593636568466, 9.669744665565165, 100.08326744224439 " fill="none" id="curve_1" stroke="#000000" stroke-linecap="round" stroke-linejoin="round" stroke-width="5.493923236966194"/>
  <path d="M 9.669744665565165, 100.08326744224439 Q 12.295605152215984, 113.24176572793378, 32.775998240757474, 115.41615015592538 " fill="none" id="curve_1" stroke="#000000" stroke-linecap="round" stroke-linejoin="round" stroke-width="5.158846658535027"/>
  <path d="M 32.775998240757474, 115.41615015592538 Q 55.25368891765768, 113.30084130829636, 61.504110795866616, 90.69479378404708 " fill="none" id="curve_1" stroke="#000000" stroke-linecap="round" stroke-linejoin="round" stroke-width="5.313785370112393"/>
  <path d="M 61.504110795866616, 90.69479378404708 Q 60.57623609298476, 69.30677780885169, 33.188916053079225, 64.74137740892311 " fill="none" id="curve_1" stroke="#000000" stroke-linecap="round" stroke-linejoin="round" stroke-width="5.335414784963895"/>
  <path d="M 33.188916053079225, 64.74137740892311 Q 46.00994239553211, 65.37225638584614, 52.01233417789875, 71.16929290306733 " fill="none" id="curve_1" stroke="#000000" stroke-linecap="round" stroke-linejoin="round" stroke-width="2.3630171756578986"/>
  <path d="M 57.12833023071289, 100.21523666381836 Q 52.503128382169656, 104.29721027771892, 43.73220894633562, 110.99429564933564 " fill="none" id="curve_15" stroke="#000000" stroke-linecap="round" stroke-linejoin="round" stroke-width="3.8586269354759994"/>
  <path d="M 54.85164900962491, 99.86099571422693 Q 59.4215305859055, 98.52911821264932, 61.46308237333334, 93.76148654924354 " fill="none" id="curve_16" stroke="#000000" stroke-linecap="round" stroke-linejoin="round" stroke-width="3.842171721906613"/>
  <path d="M 61.46308237333334, 93.76148654924354 Q 59.781706673990506, 79.80650552843572, 50.355424168615016, 71.87396995666528 " fill="none" id="curve_16" stroke="#000000" stroke-linecap="round" stroke-linejoin="round" stroke-width="2.702214078829616"/>
  <path d="M 28.729270708421602, 61.25599628972389 Q 31.172527139097376, 61.86706829136922, 31.681724011709903, 68.00971792021217 " fill="none" id="curve_17" stroke="#000000" stroke-linecap="round" stroke-linejoin="round" stroke-width="4.711887030427806"/>
  <path d="M 31.681724011709903, 68.00971792021217 Q 18.91530528982863, 68.46794088052192, 16.508110352271206, 75.27301969940305 " fill="none" id="curve_17" stroke="#000000" stroke-linecap="round" stroke-linejoin="round" stroke-width="3.1524515665326165"/>
  <path d="M 39.1853605954928, 57.38068230565329 Q 41.10784120291262, 53.55713939166053, 60.90162481063268, 52.55804001587603 " fill="none" id="curve_18" stroke="#000000" stroke-linecap="round" stroke-linejoin="round" stroke-width="3.6015522008261134"/>
  <path d="M 60.90162481063268, 52.55804001587603 Q 62.54818747504052, 52.83020492852485, 64.94588939286032, 53.137758693535574 " fill="none" id="curve_18" stroke="#000000" stroke-linecap="round" stroke-linejoin="round" stroke-width="3.0682145132618412"/>
  <path d="M 10.464795005306021, 103.69664278093327 Q 17.61346141721414, 108.88100016660366, 26.69008572522271, 114.44979394058868 " fill="none" id="curve_24" stroke="#000000" stroke-linecap="round" stroke-linejoin="round" stroke-width="2.4327574225122994"/>
  <path d="M 39.911423315514064, 64.588945874621 Q 48.732462568607936, 64.84692491923305, 49.61414061390132, 70.48940614652328 " fill="none" id="curve_26" stroke="#000000" stroke-linecap="round" stroke-linejoin="round" stroke-width="2.4123124702537733"/>
  <path d="M 58.252161380561475, 49.660756220100325 Q 52.16035658800693, 51.92845896055411, 44.2890184572812, 55.18187045500877 " fill="none" id="curve_27" stroke="#000000" stroke-linecap="round" stroke-linejoin="round" stroke-width="3.3133670246217832"/>
  <path d="M 49.37373006738055, 71.25092132598638 Q 48.2532628577261, 71.32744581665213, 47.42510331920874, 71.63771316739059 " fill="none" id="curve_43" stroke="#000000" stroke-linecap="round" stroke-linejoin="round" stroke-width="3.5746759577971843"/>
  <path d="M 57.12926163282407, 101.20550592387144 Q 57.924518190835556, 99.37760602331245, 59.01470553448891, 97.47474201587687 " fill="none" id="curve_58" stroke="#000000" stroke-linecap="round" stroke-linejoin="round" stroke-width="6.427680055763701"/>
  <path d="M 9.016017860763228, 88.72484095215927 Q 9.009377238608732, 93.51429860018553, 8.993696632893945, 97.9093691345707 " fill="none" id="curve_62" stroke="#000000" stroke-linecap="round" stroke-linejoin="round" stroke-width="2.600328215088629"/>
  <path d="M 75.34454035266509, 56.10781804523278 Q 74.7290523313779, 55.5931758189122, 73.59040084598205, 54.75418642971305 " fill="none" id="curve_78" stroke="#000000" stroke-linecap="round" stroke-linejoin="round" stroke-width="2.635110088442058"/>
  <path d="M 28.073899441880712, 116.12170526046964 Q 27.001799110958647, 115.73316491022476, 26.220431535140033, 114.85692897017447 " fill="none" id="curve_119" stroke="#000000" stroke-linecap="round" stroke-linejoin="round" stroke-width="4.509381637008095"/>
</svg>
