<?xml version="1.0" ?>
<svg height="140" width="140" xmlns="http://www.w3.org/2000/svg">
  <path d="M 62.65699005126953, 75.79281616210938 Q 61.97369188168718, 66.03759885716184, 53.08368429238345, 60.73486595291024 " fill="none" id="curve_1" stroke="#000000" stroke-linecap="round" stroke-linejoin="round" stroke-width="4.227074044235763"/>
  <path d="M 53.08368429238345, 60.73486595291024 Q 51.238830647475496, 56.89879153818706, 38.647524996307524, 54.92717171115923 " fill="none" id="curve_1" stroke="#000000" stroke-linecap="round" stroke-linejoin="round" stroke-width="5.165636411696558"/>
  <path d="M 38.647524996307524, 54.92717171115923 Q 27.53355206874139, 56.16208865549193, 24.027569427881275, 72.09843661366676 " fill="none" id="curve_1" stroke="#000000" stroke-linecap="round" stroke-linejoin="round" stroke-width="5.266104974034798"/>
  <path d="M 24.027569427881275, 72.09843661366676 Q 20.86890495551653, 77.5673470137056, 18.30734424781928, 84.45825637060722 " fill="none" id="curve_1" stroke="#000000" stroke-linecap="round" stroke-linejoin="round" stroke-width="4.6734926003746"/>
  <path d="M 18.30734424781928, 84.45825637060722 Q 20.77080329871727, 102.30027466480274, 37.89505180938364, 107.74145676145136 " fill="none" id="curve_1" stroke="#000000" stroke-linecap="round" stroke-linejoin="round" stroke-width="4.6560049054488175"/>
  <path d="M 37.89505180938364, 107.74145676145136 Q 60.61059605693529, 106.90677119516707, 65.14666509173705, 90.17765404881624 " fill="none" id="curve_1" stroke="#000000" stroke-linecap="round" stroke-linejoin="round" stroke-width="4.344632651799329"/>
  <path d="M 65.14666509173705, 90.17765404881624 Q 65.11605607195457, 74.38541399535018, 63.556150136156674, 73.33129665077736 " fill="none" id="curve_1" stroke="#000000" stroke-linecap="round" stroke-linejoin="round" stroke-width="2.6503351223531086"/>
  <path d="M 63.556150136156674, 73.33129665077736 Q 62.561663010510905, 66.75574612888234, 55.527913800582056, 64.12113230503797 " fill="none" id="curve_1" stroke="#000000" stroke-linecap="round" stroke-linejoin="round" stroke-width="2.2233884247901297"/>
  <path d="M 25.839407014090852, 82.66377540865551 Q 24.820586317812136, 81.5232266652945, 24.545038114949058, 71.68787885219933 " fill="none" id="curve_2" stroke="#000000" stroke-linecap="round" stroke-linejoin="round" stroke-width="2.762325108543397"/>
  <path d="M 27.49324308710323, 84.3748936473324 Q 27.217227548230593, 84.2042342018082, 26.82097068376545, 84.0407563550953 " fill="none" id="curve_3" stroke="#000000" stroke-linecap="round" stroke-linejoin="round" stroke-width="3.2078156422730846"/>
  <path d="M 28.112643021314895, 104.88074919355819 Q 29.31997659231188, 105.58452229374942, 32.09740526816902, 106.0322201218984 " fill="none" id="curve_4" stroke="#000000" stroke-linecap="round" stroke-linejoin="round" stroke-width="3.2268818428045534"/>
  <path d="M 32.09740526816902, 106.0322201218984 Q 26.36806897585393, 103.42001314117759, 21.928443709472567, 97.42876685826978 " fill="none" id="curve_4" stroke="#000000" stroke-linecap="round" stroke-linejoin="round" stroke-width="3.208454307878396"/>
  <path d="M 54.56751334207836, 59.87664953382622 Q 53.117683631142356, 59.54869244510848, 51.377007400588305, 58.92775987299777 " fill="none" id="curve_7" stroke="#000000" stroke-linecap="round" stroke-linejoin="round" stroke-width="3.433998077527745"/>
  <path d="M 55.10702019985226, 103.08563766699443 Q 58.294318417806146, 98.83994773059092, 65.16631248241458, 95.49506125665471 " fill="none" id="curve_9" stroke="#000000" stroke-linecap="round" stroke-linejoin="round" stroke-width="3.3377584494967643"/>
  <path d="M 19.35168504014427, 74.53194778911282 Q 22.01529274690015, 73.3427065328892, 27.102498893587597, 72.16057407645121 " fill="none" id="curve_11" stroke="#000000" stroke-linecap="round" stroke-linejoin="round" stroke-width="2.818608925033849"/>
  <path d="M 17.845375419703828, 87.43866686706262 Q 18.39601431036154, 87.26252291330593, 19.121309673349213, 86.81311355874612 " fill="none" id="curve_14" stroke="#000000" stroke-linecap="round" stroke-linejoin="round" stroke-width="2.898245952698479"/>
  <path d="M 58.82151075497313, 66.49207600081172 Q 57.61880445595595, 65.99555207872528, 56.1274036567186, 65.1256375515177 " fill="none" id="curve_29" stroke="#000000" stroke-linecap="round" stroke-linejoin="round" stroke-width="3.356241969687694"/>
  <path d="M 20.00319984364422, 83.41999365937912 Q 20.756508822703214, 92.37179866958064, 24.660888517616836, 96.99160229908257 " fill="none" id="curve_46" stroke="#000000" stroke-linecap="round" stroke-linejoin="round" stroke-width="2.316897321295788"/>
  <path d="M 29.634004286630724, 59.65526863591096 Q 30.881683932869546, 57.70234061145681, 33.98453305543639, 56.10665523456718 " fill="none" id="curve_47" stroke="#000000" stroke-linecap="round" stroke-linejoin="round" stroke-width="3.152877052241597"/>
  <path d="M 60.018852127805076, 97.2359028813421 Q 59.009801172274386, 98.37249457210831, 57.7099269664159, 100.1132079279295 " fill="none" id="curve_62" stroke="#000000" stroke-linecap="round" stroke-linejoin="round" stroke-width="3.4719533476564113"/>
  <path d="M 49.860132351497064, 59.871666992055765 Q 47.4486813365375, 57.51344079927966, 42.07708451380643, 54.89236410215094 " fill="none" id="curve_63" stroke="#000000" stroke-linecap="round" stroke-linejoin="round" stroke-width="2.772691454351942"/>
  <path d="M 24.32224480694208, 96.33462967349783 Q 25.93966797386462, 98.9909935113956, 30.15268143877373, 101.84368021586866 " fill="none" id="curve_78" stroke="#000000" stroke-linecap="round" stroke-linejoin="round" stroke-width="1.9857958464070131"/>
  <path d="M 28.98236481054109, 59.47930424765043 Q 29.851982597471054, 57.22425521724489, 33.34409838348942, 55.631654784329406 " fill="none" id="curve_81" stroke="#000000" stroke-linecap="round" stroke-linejoin="round" stroke-width="2.853424614696877"/>
</svg>
