<?xml version="1.0" ?>
<svg height="140" width="140" xmlns="http://www.w3.org/2000/svg">
  <path d="M 65.49892616271973, 93.69637298583984 Q 66.58632313843488, 91.06232728954768, 68.53681691473344, 86.51096579043133 " fill="none" id="curve_1" stroke="#000000" stroke-linecap="round" stroke-linejoin="round" stroke-width="6.393428469562927"/>
  <path d="M 68.53681691473344, 86.51096579043133 Q 68.75323886340567, 84.87049494696136, 68.85194713202957, 68.87864390038598 " fill="none" id="curve_1" stroke="#000000" stroke-linecap="round" stroke-linejoin="round" stroke-width="5.750075974961019"/>
  <path d="M 68.85194713202957, 68.87864390038598 Q 67.38501070767018, 57.69120103918452, 56.780391317428425, 47.721604583921135 " fill="none" id="curve_1" stroke="#000000" stroke-linecap="round" stroke-linejoin="round" stroke-width="3.9800998876250553"/>
  <path d="M 38.95138188735162, 34.28989228990779 Q 31.132176685064024, 37.461051085462685, 20.95703354498504, 65.41581460592506 " fill="none" id="curve_2" stroke="#000000" stroke-linecap="round" stroke-linejoin="round" stroke-width="4.5918127994833435"/>
  <path d="M 20.95703354498504, 65.41581460592506 Q 18.584010875536507, 71.95458189468941, 15.619784006669267, 97.81509025292864 " fill="none" id="curve_2" stroke="#000000" stroke-linecap="round" stroke-linejoin="round" stroke-width="5.361140275085351"/>
  <path d="M 15.619784006669267, 97.81509025292864 Q 16.18096628868833, 123.37312367762806, 28.819751355145442, 125.81777663048537 " fill="none" id="curve_2" stroke="#000000" stroke-linecap="round" stroke-linejoin="round" stroke-width="4.903672684931504"/>
  <path d="M 28.819751355145442, 125.81777663048537 Q 48.56184961188142, 123.35335207227922, 63.80891677297488, 97.58021457405195 " fill="none" id="curve_2" stroke="#000000" stroke-linecap="round" stroke-linejoin="round" stroke-width="5.291202937653482"/>
  <path d="M 63.80891677297488, 97.58021457405195 Q 64.77937589522492, 94.04745820623387, 66.92471474697912, 91.19864979937998 " fill="none" id="curve_2" stroke="#000000" stroke-linecap="round" stroke-linejoin="round" stroke-width="3.712518444885699"/>
  <path d="M 40.1661165249032, 67.68626783682794 Q 41.38626325243603, 66.95277911383245, 41.50352601746533, 37.97504609384744 " fill="none" id="curve_3" stroke="#000000" stroke-linecap="round" stroke-linejoin="round" stroke-width="3.516335046917878"/>
  <path d="M 51.0884090343632, 47.99794330768418 Q 50.27702024409762, 48.151098042587435, 49.78432592364704, 48.63534917862807 " fill="none" id="curve_4" stroke="#000000" stroke-linecap="round" stroke-linejoin="round" stroke-width="4.233018103900807"/>
  <path d="M 38.17107096751992, 36.759207602589186 Q 37.68287702060316, 36.134978053565874, 35.819440219670554, 35.70894913768097 " fill="none" id="curve_6" stroke="#000000" stroke-linecap="round" stroke-linejoin="round" stroke-width="3.5199036881093786"/>
  <path d="M 28.89024370162747, 123.58250616688792 Q 33.187740906536895, 122.31897291169447, 42.71302838659645, 121.05311035673718 " fill="none" id="curve_21" stroke="#000000" stroke-linecap="round" stroke-linejoin="round" stroke-width="2.8524664645098543"/>
  <path d="M 42.71302838659645, 121.05311035673718 Q 49.27668654307223, 114.7662967753835, 60.48571608193049, 98.67823977832774 " fill="none" id="curve_21" stroke="#000000" stroke-linecap="round" stroke-linejoin="round" stroke-width="3.467138488488544"/>
  <path d="M 60.48571608193049, 98.67823977832774 Q 64.75694612561291, 96.29732583366223, 66.93604910419546, 89.4057412855393 " fill="none" id="curve_21" stroke="#000000" stroke-linecap="round" stroke-linejoin="round" stroke-width="3.6828992317699942"/>
  <path d="M 38.877110869922475, 69.91442960279464 Q 38.53249976774448, 69.1138654024099, 37.80242880057777, 67.62929714254264 " fill="none" id="curve_23" stroke="#000000" stroke-linecap="round" stroke-linejoin="round" stroke-width="2.45420007792709"/>
  <path d="M 30.395972087346532, 40.0828612328531 Q 27.20305992547796, 48.05519790882053, 20.02924470407033, 63.02394034646595 " fill="none" id="curve_27" stroke="#000000" stroke-linecap="round" stroke-linejoin="round" stroke-width="2.495446790147435"/>
  <path d="M 37.43660376553348, 35.33999663762032 Q 40.834605193371324, 39.201351821831686, 42.54997567957566, 49.058082625273926 " fill="none" id="curve_29" stroke="#000000" stroke-linecap="round" stroke-linejoin="round" stroke-width="2.9480849761125882"/>
  <path d="M 36.94311087684333, 34.55831470063394 Q 34.07035875158311, 35.23808499725988, 32.37010335441277, 37.935768436736296 " fill="none" id="curve_30" stroke="#000000" stroke-linecap="round" stroke-linejoin="round" stroke-width="2.7550323983224665"/>
  <path d="M 32.63767697450966, 80.1683329309381 Q 32.33454900566325, 80.22750191775708, 31.988776191521712, 80.3551324727628 " fill="none" id="curve_32" stroke="#000000" stroke-linecap="round" stroke-linejoin="round" stroke-width="2.924225011009803"/>
  <path d="M 19.082310489278036, 115.15271435572399 Q 19.864939073034563, 121.55869552456235, 27.18287577794935, 122.9344915701993 " fill="none" id="curve_33" stroke="#000000" stroke-linecap="round" stroke-linejoin="round" stroke-width="3.713075565083287"/>
  <path d="M 26.144907703113248, 56.80262848276584 Q 22.583358348636175, 64.18624499794633, 17.31933169187696, 72.51716308854748 " fill="none" id="curve_36" stroke="#000000" stroke-linecap="round" stroke-linejoin="round" stroke-width="2.7293247873130055"/>
  <path d="M 63.82226956375575, 90.38769091036185 Q 65.89970342058834, 90.5103101180067, 66.32671272130517, 92.57806558786487 " fill="none" id="curve_41" stroke="#000000" stroke-linecap="round" stroke-linejoin="round" stroke-width="5.063262741691273"/>
  <path d="M 16.524029529109406, 118.07359350492106 Q 19.47893673444588, 119.04248716883959, 22.43091113354293, 120.77537382235703 " fill="none" id="curve_51" stroke="#000000" stroke-linecap="round" stroke-linejoin="round" stroke-width="4.340384080898309"/>
  <path d="M 40.92079433262386, 42.72702557393868 Q 40.16045394727948, 41.09819521554854, 39.392304397214104, 37.865720844366734 " fill="none" id="curve_53" stroke="#000000" stroke-linecap="round" stroke-linejoin="round" stroke-width="3.167008482088861"/>
  <path d="M 18.40713152390627, 66.7583745550888 Q 19.760942676574427, 66.68755120087162, 20.817181875497532, 66.43854495102215 " fill="none" id="curve_55" stroke="#000000" stroke-linecap="round" stroke-linejoin="round" stroke-width="2.804236610254679"/>
  <path d="M 59.98470900006178, 101.17391973268676 Q 64.32171757423696, 98.16832844568104, 67.88228534089045, 91.97549704415152 " fill="none" id="curve_65" stroke="#000000" stroke-linecap="round" stroke-linejoin="round" stroke-width="3.377379374123731"/>
  <path d="M 45.64349168071706, 120.1312091968242 Q 44.670795731826395, 119.74567441306073, 43.3250558677166, 119.03780038274586 " fill="none" id="curve_66" stroke="#000000" stroke-linecap="round" stroke-linejoin="round" stroke-width="3.8504873146816108"/>
  <path d="M 21.296024341459464, 67.8526662528701 Q 20.381841278414782, 75.22903028929287, 15.539612619603401, 77.31147779989469 " fill="none" id="curve_69" stroke="#000000" stroke-linecap="round" stroke-linejoin="round" stroke-width="2.9600027503874844"/>
  <path d="M 17.67685618521081, 91.97524537213678 Q 17.48032155571659, 92.0080701174968, 17.229659285693014, 92.07110853486938 " fill="none" id="curve_70" stroke="#000000" stroke-linecap="round" stroke-linejoin="round" stroke-width="4.783618569797032"/>
  <path d="M 42.698746488181655, 59.853781020842526 Q 41.71631865648145, 54.16879970094412, 39.87731106513446, 40.783225690691275 " fill="none" id="curve_71" stroke="#000000" stroke-linecap="round" stroke-linejoin="round" stroke-width="1.7347322871719357"/>
  <path d="M 57.86846427237272, 50.02072904209569 Q 57.83712870116339, 49.88942005191828, 57.78034113506154, 49.70915252225121 " fill="none" id="curve_73" stroke="#000000" stroke-linecap="round" stroke-linejoin="round" stroke-width="3.1472695485629347"/>
  <path d="M 61.70588530118414, 99.90958815198371 Q 61.84450202015791, 97.80167025257619, 62.272232832036565, 95.93671201961818 " fill="none" id="curve_88" stroke="#000000" stroke-linecap="round" stroke-linejoin="round" stroke-width="4.039992330664994"/>
  <path d="M 13.385542602953905, 103.58535518748235 Q 15.874889983851007, 115.79475131915723, 23.93156242768485, 121.26548570947202 " fill="none" id="curve_90" stroke="#000000" stroke-linecap="round" stroke-linejoin="round" stroke-width="3.5386696837626657"/>
  <path d="M 40.554155297052354, 44.18734074046118 Q 40.0858666117245, 41.000984679412994, 39.09801860525735, 36.615908573101265 " fill="none" id="curve_94" stroke="#000000" stroke-linecap="round" stroke-linejoin="round" stroke-width="2.1316003377145765"/>
  <path d="M 39.10621518510675, 44.98385856567643 Q 39.63770973119106, 41.34415213180503, 41.61888191469909, 36.00616740661761 " fill="none" id="curve_148" stroke="#000000" stroke-linecap="round" stroke-linejoin="round" stroke-width="1.6238208336932147"/>
  <path d="M 65.30885752226075, 97.44965532264573 Q 64.71670891247798, 101.16476171387093, 61.139324701444885, 102.70100201618249 " fill="none" id="curve_183" stroke="#000000" stroke-linecap="round" stroke-linejoin="round" stroke-width="2.569413315874073"/>
  <path d="M 41.76952093594142, 121.91971723846224 Q 46.33740225568896, 116.73052666707761, 53.10540282941564, 108.73742162306846 " fill="none" id="curve_190" stroke="#000000" stroke-linecap="round" stroke-linejoin="round" stroke-width="2.842022900549967"/>
</svg>
