<?xml version="1.0" ?>
<svg height="140" width="140" xmlns="http://www.w3.org/2000/svg">
  <path d="M 68.12368774414062, 75.95178413391113 Q 67.59867930803235, 85.43664376727871, 60.441229883706114, 90.44009119028146 " fill="none" id="curve_1" stroke="#000000" stroke-linecap="round" stroke-linejoin="round" stroke-width="4.8309539152529695"/>
  <path d="M 60.441229883706114, 90.44009119028146 Q 57.68475540667118, 97.81726186640458, 42.554184453823254, 103.80629483787426 " fill="none" id="curve_1" stroke="#000000" stroke-linecap="round" stroke-linejoin="round" stroke-width="6.497687350869303"/>
  <path d="M 42.554184453823254, 103.80629483787426 Q 41.81438496460294, 104.74622821789866, 33.25235366439917, 104.84904655141605 " fill="none" id="curve_1" stroke="#000000" stroke-linecap="round" stroke-linejoin="round" stroke-width="5.245509168972532"/>
  <path d="M 33.25235366439917, 104.84904655141605 Q 22.256519573272428, 103.35124391889438, 19.26557929691831, 89.67891647110199 " fill="none" id="curve_1" stroke="#000000" stroke-linecap="round" stroke-linejoin="round" stroke-width="5.30734455540009"/>
  <path d="M 19.26557929691831, 89.67891647110199 Q 20.08716234122812, 72.95973483525091, 29.13506993227299, 59.59346435990081 " fill="none" id="curve_1" stroke="#000000" stroke-linecap="round" stroke-linejoin="round" stroke-width="4.772627768870292"/>
  <path d="M 29.13506993227299, 59.59346435990081 Q 32.71988117386615, 47.25899227766911, 48.95002120613776, 33.09813304684486 " fill="none" id="curve_1" stroke="#000000" stroke-linecap="round" stroke-linejoin="round" stroke-width="4.565890833094173"/>
  <path d="M 48.95002120613776, 33.09813304684486 Q 49.47889319313716, 29.69170867344703, 59.243195053740955, 29.32588889349973 " fill="none" id="curve_1" stroke="#000000" stroke-linecap="round" stroke-linejoin="round" stroke-width="4.11435276090311"/>
  <path d="M 59.243195053740955, 29.32588889349973 Q 65.19835461366144, 30.976007180943196, 66.09369206129816, 42.94602757818977 " fill="none" id="curve_1" stroke="#000000" stroke-linecap="round" stroke-linejoin="round" stroke-width="3.4850546626585217"/>
  <path d="M 71.84348367182716, 45.41112778559144 Q 71.97938578460204, 59.93708872475299, 72.18111696979342, 72.70434899517352 " fill="none" id="curve_2" stroke="#000000" stroke-linecap="round" stroke-linejoin="round" stroke-width="3.9773952215300943"/>
  <path d="M 72.18111696979342, 72.70434899517352 Q 69.3665238552566, 84.33509878748455, 62.63463146105909, 91.30522898674273 " fill="none" id="curve_2" stroke="#000000" stroke-linecap="round" stroke-linejoin="round" stroke-width="3.573851083971356"/>
  <path d="M 62.63463146105909, 91.30522898674273 Q 67.25521329397095, 84.15818838734764, 71.35479775693791, 71.11958751133952 " fill="none" id="curve_2" stroke="#000000" stroke-linecap="round" stroke-linejoin="round" stroke-width="3.530246981520514"/>
  <path d="M 70.38128237046989, 44.856681850328236 Q 70.87299341513322, 44.604790731241216, 71.20266262131267, 43.92294667507917 " fill="none" id="curve_3" stroke="#000000" stroke-linecap="round" stroke-linejoin="round" stroke-width="3.6655168141120003"/>
  <path d="M 64.55337764390796, 35.21938099682298 Q 64.46856237706517, 38.0976072869339, 64.28396619557863, 41.173674195494655 " fill="none" id="curve_4" stroke="#000000" stroke-linecap="round" stroke-linejoin="round" stroke-width="2.532180792376247"/>
  <path d="M 28.29698015599974, 58.95838770025378 Q 30.07940559783879, 53.81364043482921, 34.592294309587984, 46.94486743980369 " fill="none" id="curve_6" stroke="#000000" stroke-linecap="round" stroke-linejoin="round" stroke-width="2.899669492545963"/>
  <path d="M 46.39354848861694, 32.00112533569336 Q 53.80050979465291, 31.760700927956186, 58.072641558163355, 30.587557747072566 " fill="none" id="curve_20" stroke="#000000" stroke-linecap="round" stroke-linejoin="round" stroke-width="2.5480688361188313"/>
  <path d="M 38.27485258006001, 42.48875009302806 Q 35.91658990521535, 43.1178660835475, 34.517569050934306, 45.90033519304407 " fill="none" id="curve_21" stroke="#000000" stroke-linecap="round" stroke-linejoin="round" stroke-width="2.7261678893398433"/>
  <path d="M 31.786652180741743, 53.68801333421833 Q 26.296388626737325, 59.35681577342691, 22.19442000122686, 75.53132357765736 " fill="none" id="curve_23" stroke="#000000" stroke-linecap="round" stroke-linejoin="round" stroke-width="2.1728164416043754"/>
  <path d="M 73.8357265642806, 62.37645982933522 Q 72.83620993397999, 67.9186333138968, 70.6902181512581, 71.98599944550676 " fill="none" id="curve_39" stroke="#000000" stroke-linecap="round" stroke-linejoin="round" stroke-width="2.6927970725572847"/>
  <path d="M 34.263619245548185, 103.72543837365045 Q 29.00085011142254, 102.16189079593322, 23.60784620426373, 97.98301882820681 " fill="none" id="curve_40" stroke="#000000" stroke-linecap="round" stroke-linejoin="round" stroke-width="2.7947591304724044"/>
  <path d="M 23.350258390961727, 68.95546124862108 Q 26.723335379142565, 65.59917348530465, 29.203683847092293, 54.828781419273525 " fill="none" id="curve_41" stroke="#000000" stroke-linecap="round" stroke-linejoin="round" stroke-width="2.629896019714372"/>
  <path d="M 70.14374205210856, 68.67882440459493 Q 70.9282970976382, 68.9188884668404, 71.69986645821554, 69.48579957629018 " fill="none" id="curve_69" stroke="#000000" stroke-linecap="round" stroke-linejoin="round" stroke-width="3.8491557188285315"/>
  <path d="M 18.19168606617273, 79.78216937493053 Q 18.822363214441207, 80.44612861218319, 19.816812171218885, 81.7317135762898 " fill="none" id="curve_72" stroke="#000000" stroke-linecap="round" stroke-linejoin="round" stroke-width="2.534463621038891"/>
  <path d="M 60.85805061883241, 94.25115854124849 Q 59.41416693480841, 94.80501113773343, 55.787356555430726, 95.3267429169974 " fill="none" id="curve_87" stroke="#000000" stroke-linecap="round" stroke-linejoin="round" stroke-width="3.0356777844378926"/>
  <path d="M 23.892100864349683, 70.5614978872674 Q 25.83474053865767, 68.31405512312595, 27.16986779554087, 62.81501070415131 " fill="none" id="curve_89" stroke="#000000" stroke-linecap="round" stroke-linejoin="round" stroke-width="3.0248959706972487"/>
  <path d="M 19.456322861013444, 95.26619766593258 Q 20.17178572330907, 94.39014076454504, 21.39557934087343, 93.5096222798455 " fill="none" id="curve_93" stroke="#000000" stroke-linecap="round" stroke-linejoin="round" stroke-width="4.364817028754041"/>
  <path d="M 63.64517796870635, 37.28082976405737 Q 62.643838045053464, 34.62306420323627, 61.126157341370714, 30.48284795761429 " fill="none" id="curve_95" stroke="#000000" stroke-linecap="round" stroke-linejoin="round" stroke-width="2.2336186979578097"/>
  <path d="M 50.80251481604115, 31.982577136666194 Q 48.482013919002405, 32.94520853408361, 45.125916059125714, 34.75683226104542 " fill="none" id="curve_152" stroke="#000000" stroke-linecap="round" stroke-linejoin="round" stroke-width="3.236879217154146"/>
</svg>
