<?xml version="1.0" ?>
<svg height="140" width="140" xmlns="http://www.w3.org/2000/svg">
  <path d="M 50.46622276306152, 117.40142726898193 Q 48.768743251041364, 123.8699486734727, 41.253928655950745, 129.1911393331966 " fill="none" id="curve_1" stroke="#000000" stroke-linecap="round" stroke-linejoin="round" stroke-width="6.383447628021746"/>
  <path d="M 41.253928655950745, 129.1911393331966 Q 39.152225420783296, 132.87361200336315, 28.374954217391085, 133.81549865610305 " fill="none" id="curve_1" stroke="#000000" stroke-linecap="round" stroke-linejoin="round" stroke-width="8.194887111821084"/>
  <path d="M 28.374954217391085, 133.81549865610305 Q 14.949078349929794, 132.352002299897, 8.913392198957286, 118.8023122767866 " fill="none" id="curve_1" stroke="#000000" stroke-linecap="round" stroke-linejoin="round" stroke-width="5.750290436055265"/>
  <path d="M 8.913392198957286, 118.8023122767866 Q 4.840332192672601, 115.86820922087712, 3.199872688649771, 97.38649542367952 " fill="none" id="curve_1" stroke="#000000" stroke-linecap="round" stroke-linejoin="round" stroke-width="5.513456147959449"/>
  <path d="M 3.199872688649771, 97.38649542367952 Q 3.266794313156067, 71.2167832039767, 5.410460836794014, 66.12756196414469 " fill="none" id="curve_1" stroke="#000000" stroke-linecap="round" stroke-linejoin="round" stroke-width="4.960129244181575"/>
  <path d="M 5.410460836794014, 66.12756196414469 Q 8.21061207314477, 51.24489074030822, 18.56655703595085, 34.65811768352927 " fill="none" id="curve_1" stroke="#000000" stroke-linecap="round" stroke-linejoin="round" stroke-width="5.5191705305820244"/>
  <path d="M 18.56655703595085, 34.65811768352927 Q 26.77624930317714, 34.609795299560766, 27.7600205235057, 33.69565367727223 " fill="none" id="curve_1" stroke="#000000" stroke-linecap="round" stroke-linejoin="round" stroke-width="4.493936769943928"/>
  <path d="M 32.625174094074936, 23.566028353314394 Q 51.7470027176042, 26.617201846601937, 60.521352851982364, 57.090368648527296 " fill="none" id="curve_2" stroke="#000000" stroke-linecap="round" stroke-linejoin="round" stroke-width="5.02350554810328"/>
  <path d="M 60.521352851982364, 57.090368648527296 Q 61.92083885052602, 64.94671738458705, 62.56523575565777, 85.17110132903247 " fill="none" id="curve_2" stroke="#000000" stroke-linecap="round" stroke-linejoin="round" stroke-width="5.675701060144293"/>
  <path d="M 62.56523575565777, 85.17110132903247 Q 60.36618804278929, 106.57282606741197, 50.81922913172451, 121.28375099826457 " fill="none" id="curve_2" stroke="#000000" stroke-linecap="round" stroke-linejoin="round" stroke-width="4.6072338018836225"/>
  <path d="M 89.55270183544843, 138.6249007913628 Q 89.7684764739186, 135.97465175337166, 89.86101519711085, 118.95001288497755 " fill="none" id="curve_3" stroke="#000000" stroke-linecap="round" stroke-linejoin="round" stroke-width="1.9756504288283447"/>
  <path d="M 89.86101519711085, 118.95001288497755 Q 89.76509874344185, 113.00299146572843, 89.65878157387085, 96.78403029075626 " fill="none" id="curve_3" stroke="#000000" stroke-linecap="round" stroke-linejoin="round" stroke-width="1.935780129529313"/>
  <path d="M 89.65878157387085, 96.78403029075626 Q 89.67118434927991, 91.66014976978488, 89.68375414268701, 75.49263236933919 " fill="none" id="curve_3" stroke="#000000" stroke-linecap="round" stroke-linejoin="round" stroke-width="1.8217981937589591"/>
  <path d="M 89.68375414268701, 75.49263236933919 Q 89.70732140907984, 71.01046740613174, 89.73274221824445, 58.06756370778862 " fill="none" id="curve_3" stroke="#000000" stroke-linecap="round" stroke-linejoin="round" stroke-width="1.6116738278314036"/>
  <path d="M 89.73274221824445, 58.06756370778862 Q 89.70996833077994, 54.50544596812767, 89.68735293177858, 44.49579104946085 " fill="none" id="curve_3" stroke="#000000" stroke-linecap="round" stroke-linejoin="round" stroke-width="1.5368716108342368"/>
  <path d="M 89.68735293177858, 44.49579104946085 Q 89.66136172940381, 41.41204524437321, 89.63776363427564, 30.67371789327307 " fill="none" id="curve_3" stroke="#000000" stroke-linecap="round" stroke-linejoin="round" stroke-width="1.4659996116050196"/>
  <path d="M 89.63776363427564, 30.67371789327307 Q 89.60215521028981, 28.32339881184924, 89.57530211315243, 17.567115085381623 " fill="none" id="curve_3" stroke="#000000" stroke-linecap="round" stroke-linejoin="round" stroke-width="1.4270337111329572"/>
  <path d="M 89.57530211315243, 17.567115085381623 Q 89.5473431734559, 9.907688098367998, 89.33895266861565, 5.549688095616723 " fill="none" id="curve_3" stroke="#000000" stroke-linecap="round" stroke-linejoin="round" stroke-width="1.456946114342671"/>
  <path d="M 89.33895266861565, 5.549688095616723 Q 89.09371241363996, 2.5821501901783748, 88.02681291908868, 1.603309387730981 " fill="none" id="curve_3" stroke="#000000" stroke-linecap="round" stroke-linejoin="round" stroke-width="4.354118151837085"/>
  <path d="M 61.075147371324384, 54.035496716364676 Q 58.679468097933686, 54.7771826096071, 58.06584775232336, 62.42287441316246 " fill="none" id="curve_13" stroke="#000000" stroke-linecap="round" stroke-linejoin="round" stroke-width="2.8116809805705123"/>
  <path d="M 58.42244638806165, 48.37156154332667 Q 56.67976194430754, 38.71670271319251, 44.93259405480927, 31.400781198945495 " fill="none" id="curve_14" stroke="#000000" stroke-linecap="round" stroke-linejoin="round" stroke-width="2.7505384928131558"/>
  <path d="M 26.963965425724492, 32.518894443399375 Q 13.475029446464571, 33.41291131670689, 10.429251566746593, 44.250577884821915 " fill="none" id="curve_15" stroke="#000000" stroke-linecap="round" stroke-linejoin="round" stroke-width="3.2720475768335247"/>
  <path d="M 19.37959540541339, 32.246003128022465 Q 25.698902126135923, 32.9466503249902, 27.975642828624178, 35.60299988596744 " fill="none" id="curve_16" stroke="#000000" stroke-linecap="round" stroke-linejoin="round" stroke-width="2.3335428300493803"/>
  <path d="M 49.539318861294554, 36.994744982824066 Q 50.88545767123186, 39.9994149255868, 53.78866191531597, 41.9339525185638 " fill="none" id="curve_17" stroke="#000000" stroke-linecap="round" stroke-linejoin="round" stroke-width="2.814118403064166"/>
  <path d="M 57.74828732989326, 54.73801256193021 Q 57.328454255780805, 53.030315910730614, 56.82198239066534, 50.99152607637274 " fill="none" id="curve_18" stroke="#000000" stroke-linecap="round" stroke-linejoin="round" stroke-width="4.394536468739629"/>
  <path d="M 58.75793042346224, 99.25282961764671 Q 55.579223142267736, 114.02867544303126, 47.638754421144384, 127.41838483735552 " fill="none" id="curve_20" stroke="#000000" stroke-linecap="round" stroke-linejoin="round" stroke-width="3.198963023749212"/>
  <path d="M 59.856336055447315, 96.96377272513737 Q 60.93791831824145, 86.73458133026529, 63.10081790475202, 75.96891869225631 " fill="none" id="curve_21" stroke="#000000" stroke-linecap="round" stroke-linejoin="round" stroke-width="4.784052286079598"/>
  <path d="M 53.67898190612781, 36.31415165670469 Q 45.182236075806344, 35.14844978932109, 41.13738177299733, 28.361653001593837 " fill="none" id="curve_24" stroke="#000000" stroke-linecap="round" stroke-linejoin="round" stroke-width="1.9642699158171888"/>
  <path d="M 31.40733966233276, 23.202975673916427 Q 32.43141153812053, 22.93327518835037, 34.53047247744569, 22.69028018040291 " fill="none" id="curve_26" stroke="#000000" stroke-linecap="round" stroke-linejoin="round" stroke-width="3.0085213764092016"/>
  <path d="M 5.96619590239258, 72.52979788083536 Q 5.722347050679147, 72.15043168829281, 5.49666446845919, 71.42684168330517 " fill="none" id="curve_29" stroke="#000000" stroke-linecap="round" stroke-linejoin="round" stroke-width="4.019626636269778"/>
  <path d="M 7.073937035168978, 120.93189224049218 Q 8.43538246876784, 123.07310708644802, 11.066924539977778, 124.68202262298442 " fill="none" id="curve_31" stroke="#000000" stroke-linecap="round" stroke-linejoin="round" stroke-width="3.3166972375869523"/>
  <path d="M 53.224386308584215, 112.55914441750369 Q 57.28101038429192, 106.92097223228943, 61.57240445803311, 95.20093192100511 " fill="none" id="curve_33" stroke="#000000" stroke-linecap="round" stroke-linejoin="round" stroke-width="2.542719611954688"/>
  <path d="M 61.57240445803311, 95.20093192100511 Q 61.421059006720654, 82.83682184199027, 60.81916287998423, 68.29054608178362 " fill="none" id="curve_33" stroke="#000000" stroke-linecap="round" stroke-linejoin="round" stroke-width="2.6805386318761646"/>
  <path d="M 2.5008466841776267, 97.55008114320202 Q 2.610830941503008, 82.7615242626406, 3.191968259898834, 75.72196857650513 " fill="none" id="curve_41" stroke="#000000" stroke-linecap="round" stroke-linejoin="round" stroke-width="2.373321321143514"/>
  <path d="M 10.358914047508282, 48.01115077229131 Q 7.429254409504365, 54.608829538498476, 3.5660788274623823, 69.04670637374004 " fill="none" id="curve_42" stroke="#000000" stroke-linecap="round" stroke-linejoin="round" stroke-width="2.363289219499218"/>
  <path d="M 58.7310682701784, 65.62139223484704 Q 59.63617924813816, 61.6324016117214, 61.39914331264592, 56.57657576298435 " fill="none" id="curve_59" stroke="#000000" stroke-linecap="round" stroke-linejoin="round" stroke-width="2.603472463935875"/>
  <path d="M 59.426970340447696, 54.253557272247456 Q 60.17949882448317, 53.54422022176795, 60.942589257611935, 52.03700527663977 " fill="none" id="curve_66" stroke="#000000" stroke-linecap="round" stroke-linejoin="round" stroke-width="3.749173155608247"/>
  <path d="M 56.106985752695664, 103.45334094362465 Q 56.114275200011186, 109.07711873304285, 56.13135327691156, 115.18470176708759 " fill="none" id="curve_94" stroke="#000000" stroke-linecap="round" stroke-linejoin="round" stroke-width="2.732612663792746"/>
  <path d="M 63.43037529237586, 87.17459340296583 Q 63.31431128844687, 72.7530236197564, 60.11035119011706, 70.8057151415389 " fill="none" id="curve_101" stroke="#000000" stroke-linecap="round" stroke-linejoin="round" stroke-width="3.382240949200448"/>
  <path d="M 60.11035119011706, 70.8057151415389 Q 59.71407450884995, 70.11006665319677, 58.94709453991137, 69.36765387514184 " fill="none" id="curve_101" stroke="#000000" stroke-linecap="round" stroke-linejoin="round" stroke-width="3.13387372968433"/>
  <path d="M 63.05321945009734, 82.93795845889623 Q 63.359414640021434, 79.43086950000907, 64.2942693155958, 76.58951712366542 " fill="none" id="curve_105" stroke="#000000" stroke-linecap="round" stroke-linejoin="round" stroke-width="2.90457362740441"/>
  <path d="M 7.03229873375252, 54.97995995202331 Q 7.954439139848391, 50.52020346480916, 10.6090894846506, 46.27660306342169 " fill="none" id="curve_115" stroke="#000000" stroke-linecap="round" stroke-linejoin="round" stroke-width="2.0510145054812488"/>
  <path d="M 42.08992739473547, 129.94930759475687 Q 44.08749871679844, 129.76965999876515, 45.495016680933716, 129.22671983631275 " fill="none" id="curve_118" stroke="#000000" stroke-linecap="round" stroke-linejoin="round" stroke-width="3.330440987076348"/>
  <path d="M 37.65842177227309, 24.235734185312086 Q 36.54513625151648, 24.059760998607718, 32.96542201275291, 23.92899263707874 " fill="none" id="curve_153" stroke="#000000" stroke-linecap="round" stroke-linejoin="round" stroke-width="3.370332378675046"/>
  <path d="M 1.9723718778039752, 76.74316950428829 Q 2.0090240636539836, 89.75906495235643, 2.110632885542123, 101.10395161847592 " fill="none" id="curve_184" stroke="#000000" stroke-linecap="round" stroke-linejoin="round" stroke-width="2.041076877502198"/>
  <path d="M 2.110632885542123, 101.10395161847592 Q 2.269214644573364, 86.28114613320926, 2.8323896689121932, 76.27504754570734 " fill="none" id="curve_184" stroke="#000000" stroke-linecap="round" stroke-linejoin="round" stroke-width="2.51319825897334"/>
</svg>
