<?xml version="1.0" ?>
<svg height="140" width="140" xmlns="http://www.w3.org/2000/svg">
  <path d="M 35.7282620370388, 51.41692543029785 Q 29.525869614690315, 51.67345604362264, 28.071272004882644, 55.824951358820584 " fill="none" id="curve_1" stroke="#000000" stroke-linecap="round" stroke-linejoin="round" stroke-width="6.5185202524076775"/>
  <path d="M 28.071272004882644, 55.824951358820584 Q 23.39902790769439, 59.65120302187646, 16.174118918973605, 75.87934571751252 " fill="none" id="curve_1" stroke="#000000" stroke-linecap="round" stroke-linejoin="round" stroke-width="4.481013167661028"/>
  <path d="M 16.174118918973605, 75.87934571751252 Q 14.750138042593353, 83.00531777889687, 13.454521113543137, 91.67013657590738 " fill="none" id="curve_1" stroke="#000000" stroke-linecap="round" stroke-linejoin="round" stroke-width="4.722543704238357"/>
  <path d="M 13.454521113543137, 91.67013657590738 Q 15.139765753115814, 105.99347575939181, 23.893935538554615, 109.46143661811402 " fill="none" id="curve_1" stroke="#000000" stroke-linecap="round" stroke-linejoin="round" stroke-width="4.115359189624241"/>
  <path d="M 23.893935538554615, 109.46143661811402 Q 44.36857933066655, 108.61767758339066, 51.902281714404126, 94.32812101487701 " fill="none" id="curve_1" stroke="#000000" stroke-linecap="round" stroke-linejoin="round" stroke-width="5.80255042643905"/>
  <path d="M 51.902281714404126, 94.32812101487701 Q 56.644079911745216, 90.28889791365869, 59.472058942949275, 80.578692474714 " fill="none" id="curve_1" stroke="#000000" stroke-linecap="round" stroke-linejoin="round" stroke-width="5.466323165368077"/>
  <path d="M 59.472058942949275, 80.578692474714 Q 59.35689624954992, 58.63664471067658, 49.91542844234159, 57.367962283384394 " fill="none" id="curve_1" stroke="#000000" stroke-linecap="round" stroke-linejoin="round" stroke-width="5.369259181084685"/>
  <path d="M 49.91542844234159, 57.367962283384394 Q 49.75584418188073, 65.78171020097568, 45.92133763840018, 66.37904082131584 " fill="none" id="curve_1" stroke="#000000" stroke-linecap="round" stroke-linejoin="round" stroke-width="4.012487307861239"/>
  <path d="M 42.98225725523156, 53.385121283101185 Q 37.95400897668492, 53.524088503098184, 32.75487409745999, 53.878629547346925 " fill="none" id="curve_2" stroke="#000000" stroke-linecap="round" stroke-linejoin="round" stroke-width="4.97221836218544"/>
  <path d="M 47.56278047058141, 56.733545359908554 Q 45.48155165063296, 54.603992370422354, 40.72662914631931, 53.149799609460786 " fill="none" id="curve_3" stroke="#000000" stroke-linecap="round" stroke-linejoin="round" stroke-width="5.24221931515079"/>
  <path d="M 40.72662914631931, 53.149799609460786 Q 39.0224452218072, 52.03929819565474, 34.49840396244906, 51.39507135013591 " fill="none" id="curve_3" stroke="#000000" stroke-linecap="round" stroke-linejoin="round" stroke-width="4.629688190780173"/>
  <path d="M 40.67929401680332, 105.14713467248335 Q 47.709767312958995, 102.53623573662738, 53.4059226956918, 92.49005214174512 " fill="none" id="curve_4" stroke="#000000" stroke-linecap="round" stroke-linejoin="round" stroke-width="3.008052444635752"/>
  <path d="M 53.4059226956918, 92.49005214174512 Q 47.8212494599488, 102.33269281414492, 32.605492110482174, 109.55119349626824 " fill="none" id="curve_4" stroke="#000000" stroke-linecap="round" stroke-linejoin="round" stroke-width="3.5898080782716484"/>
  <path d="M 32.605492110482174, 109.55119349626824 Q 39.6115711539026, 105.1617263951946, 47.51363143057792, 98.56268109436101 " fill="none" id="curve_4" stroke="#000000" stroke-linecap="round" stroke-linejoin="round" stroke-width="3.050575945307725"/>
  <path d="M 47.51363143057792, 98.56268109436101 Q 53.51663029740248, 92.9037482913059, 59.50268306479947, 82.02587897007781 " fill="none" id="curve_4" stroke="#000000" stroke-linecap="round" stroke-linejoin="round" stroke-width="2.960134524322808"/>
  <path d="M 32.124320868929345, 107.30056418638148 Q 28.032432063843107, 107.93106024245574, 22.123464672116597, 108.61754520817854 " fill="none" id="curve_7" stroke="#000000" stroke-linecap="round" stroke-linejoin="round" stroke-width="3.63588008280487"/>
  <path d="M 57.93846918779999, 81.49585183113751 Q 54.986740390836566, 87.68356167060958, 51.14198248197505, 95.53488991109805 " fill="none" id="curve_9" stroke="#000000" stroke-linecap="round" stroke-linejoin="round" stroke-width="3.268652678591524"/>
  <path d="M 49.28684189452624, 63.260449814732134 Q 53.91874038997549, 63.647810207310684, 56.81556752081207, 64.73175892289026 " fill="none" id="curve_10" stroke="#000000" stroke-linecap="round" stroke-linejoin="round" stroke-width="2.8394839787092576"/>
  <path d="M 89.87329696387287, 3.752397494685596 Q 89.86748012015224, 2.7465210085368095, 89.85305649484962, 1.383034140260083 " fill="none" id="curve_16" stroke="#000000" stroke-linecap="round" stroke-linejoin="round" stroke-width="1.9107574972001482"/>
  <path d="M 45.70393468486041, 53.20116639489897 Q 46.53749929990159, 53.96652087148611, 47.86507150811544, 55.391395173374434 " fill="none" id="curve_21" stroke="#000000" stroke-linecap="round" stroke-linejoin="round" stroke-width="3.256732681522892"/>
  <path d="M 43.06387820491937, 104.87075812649783 Q 33.650313386603095, 106.17768309551387, 26.914392569512454, 109.83496068299326 " fill="none" id="curve_22" stroke="#000000" stroke-linecap="round" stroke-linejoin="round" stroke-width="2.9690353879640714"/>
  <path d="M 20.984165061275007, 109.08270123218085 Q 19.132479682664115, 107.6935270746311, 16.98772826906872, 105.72910250342728 " fill="none" id="curve_37" stroke="#000000" stroke-linecap="round" stroke-linejoin="round" stroke-width="3.3366394550692715"/>
  <path d="M 36.39511420655539, 106.43927513590013 Q 39.59853969783799, 103.18656936562851, 46.124613350436526, 100.10020305785406 " fill="none" id="curve_53" stroke="#000000" stroke-linecap="round" stroke-linejoin="round" stroke-width="2.719388099116029"/>
  <path d="M 89.54920446087202, 138.26129343532784 Q 89.64442421602593, 138.48455333048554, 89.79551828922742, 138.7697615914746 " fill="none" id="curve_55" stroke="#000000" stroke-linecap="round" stroke-linejoin="round" stroke-width="1.8732242701728432"/>
  <path d="M 50.63225696384325, 98.25839774868564 Q 48.62912682008933, 98.34441537102965, 46.23650540380541, 98.49344276864825 " fill="none" id="curve_70" stroke="#000000" stroke-linecap="round" stroke-linejoin="round" stroke-width="3.699393276027329"/>
  <path d="M 12.630302473035002, 87.60766497409105 Q 14.072700980057018, 89.12982501241716, 15.684789852105967, 92.60156872167178 " fill="none" id="curve_131" stroke="#000000" stroke-linecap="round" stroke-linejoin="round" stroke-width="2.4929149272900175"/>
</svg>
