<?xml version="1.0" ?>
<svg height="140" width="140" xmlns="http://www.w3.org/2000/svg">
  <path d="M 34.802751541137695, 64.11693572998047 Q 34.77112522229089, 61.41041988026484, 32.63191187846803, 61.259990369733885 " fill="none" id="curve_1" stroke="#000000" stroke-linecap="round" stroke-linejoin="round" stroke-width="5.777203914450534"/>
  <path d="M 32.63191187846803, 61.259990369733885 Q 14.936021792571008, 61.48875749426476, 11.497135482554086, 68.16123426068921 " fill="none" id="curve_1" stroke="#000000" stroke-linecap="round" stroke-linejoin="round" stroke-width="4.456114895075075"/>
  <path d="M 11.497135482554086, 68.16123426068921 Q 4.746928382545215, 70.3994497599802, 3.164447853147273, 82.84887945682222 " fill="none" id="curve_1" stroke="#000000" stroke-linecap="round" stroke-linejoin="round" stroke-width="5.9786430121494"/>
  <path d="M 3.164447853147273, 82.84887945682222 Q 3.966987462883165, 101.92387647123422, 20.989775769588466, 103.98322620595641 " fill="none" id="curve_1" stroke="#000000" stroke-linecap="round" stroke-linejoin="round" stroke-width="4.537064686025198"/>
  <path d="M 20.989775769588466, 103.98322620595641 Q 44.300456325771705, 102.05823349988175, 54.843714971611135, 83.75107377313856 " fill="none" id="curve_1" stroke="#000000" stroke-linecap="round" stroke-linejoin="round" stroke-width="4.506410531104154"/>
  <path d="M 54.843714971611135, 83.75107377313856 Q 53.96666995214311, 65.33197491271858, 33.43726871173129, 61.02868277492491 " fill="none" id="curve_1" stroke="#000000" stroke-linecap="round" stroke-linejoin="round" stroke-width="3.999548308588577"/>
  <path d="M 8.204170366955772, 68.07620582516836 Q 7.219982831671284, 69.61192238121086, 6.681259049358138, 74.20045241839203 " fill="none" id="curve_2" stroke="#000000" stroke-linecap="round" stroke-linejoin="round" stroke-width="5.5265661901519385"/>
  <path d="M 32.094281642212145, 100.53349755002556 Q 43.86146709540054, 97.44805698498301, 52.30956235442429, 90.09113316157827 " fill="none" id="curve_3" stroke="#000000" stroke-linecap="round" stroke-linejoin="round" stroke-width="2.8372745243493265"/>
  <path d="M 90.08158735661036, 82.11344993606832 Q 88.99945572500425, 82.94856962818083, 88.88656177163946, 118.9360173803283 " fill="none" id="curve_4" stroke="#000000" stroke-linecap="round" stroke-linejoin="round" stroke-width="3.7656546424336055"/>
  <path d="M 88.88656177163946, 118.9360173803283 Q 88.90051954608664, 133.82001417309618, 88.95575582273071, 138.7072059258774 " fill="none" id="curve_4" stroke="#000000" stroke-linecap="round" stroke-linejoin="round" stroke-width="3.240518764479876"/>
  <path d="M 88.95575582273071, 138.7072059258774 Q 88.60415638619503, 138.69985348729364, 87.93998067956913, 138.6935648487671 " fill="none" id="curve_4" stroke="#000000" stroke-linecap="round" stroke-linejoin="round" stroke-width="2.358839488029168"/>
  <path d="M 88.51561828771158, 86.57834771388684 Q 88.72440271153911, 83.55087494855707, 88.8482497366314, 70.56828116607187 " fill="none" id="curve_6" stroke="#000000" stroke-linecap="round" stroke-linejoin="round" stroke-width="3.1252406539176323"/>
  <path d="M 88.8482497366314, 70.56828116607187 Q 88.8324274728854, 61.917615292239404, 88.76367028590602, 47.81140209492463 " fill="none" id="curve_6" stroke="#000000" stroke-linecap="round" stroke-linejoin="round" stroke-width="3.43978427371789"/>
  <path d="M 88.76367028590602, 47.81140209492463 Q 88.75856928359447, 39.50175206539567, 88.736180111381, 26.760332351789984 " fill="none" id="curve_6" stroke="#000000" stroke-linecap="round" stroke-linejoin="round" stroke-width="3.3597505048950937"/>
  <path d="M 88.736180111381, 26.760332351789984 Q 88.74098655466473, 20.28462223420218, 88.75490013896999, 5.277652824742599 " fill="none" id="curve_6" stroke="#000000" stroke-linecap="round" stroke-linejoin="round" stroke-width="3.3412643278352356"/>
  <path d="M 88.75490013896999, 5.277652824742599 Q 88.74448027083261, 2.7500491796339652, 88.70608496098517, 1.972301339422864 " fill="none" id="curve_6" stroke="#000000" stroke-linecap="round" stroke-linejoin="round" stroke-width="4.040866245332241"/>
  <path d="M 88.70608496098517, 1.972301339422864 Q 88.38737148663886, 1.8611248109565282, 87.89178529698926, 1.7364771707245654 " fill="none" id="curve_6" stroke="#000000" stroke-linecap="round" stroke-linejoin="round" stroke-width="2.494337102487517"/>
  <path d="M 52.725184829733514, 82.29004456828588 Q 53.10559678377233, 82.53046793739071, 53.413188039772834, 83.51549213181069 " fill="none" id="curve_10" stroke="#000000" stroke-linecap="round" stroke-linejoin="round" stroke-width="3.18366376892786"/>
  <path d="M 48.513071913576496, 93.2919945993986 Q 40.918176396285524, 95.73666337369787, 32.56762547488272, 101.56464718506017 " fill="none" id="curve_21" stroke="#000000" stroke-linecap="round" stroke-linejoin="round" stroke-width="2.572819449890001"/>
  <path d="M 53.50035816105148, 84.74105605552255 Q 53.42296423776872, 81.37248508478092, 53.13580081352083, 79.69568335728043 " fill="none" id="curve_23" stroke="#000000" stroke-linecap="round" stroke-linejoin="round" stroke-width="3.8705395259080633"/>
  <path d="M 2.2502027799662656, 93.2125609219186 Q 3.016280547592221, 93.75115924358576, 4.7542063484108095, 94.4198065463214 " fill="none" id="curve_26" stroke="#000000" stroke-linecap="round" stroke-linejoin="round" stroke-width="3.4004420893727048"/>
  <path d="M 22.797326078309027, 60.62850358390773 Q 21.71729541386894, 60.8174623866642, 20.111274318934708, 61.0901955942843 " fill="none" id="curve_31" stroke="#000000" stroke-linecap="round" stroke-linejoin="round" stroke-width="3.4975961039687737"/>
  <path d="M 7.487201640861587, 69.11210297896854 Q 7.20916602374939, 69.90593728765009, 6.827368415447698, 71.79655218616783 " fill="none" id="curve_51" stroke="#000000" stroke-linecap="round" stroke-linejoin="round" stroke-width="3.4650230066402026"/>
  <path d="M 40.72489707345189, 62.13198050485705 Q 40.157749333795316, 61.80742422957918, 38.581810167587086, 61.50165069180085 " fill="none" id="curve_70" stroke="#000000" stroke-linecap="round" stroke-linejoin="round" stroke-width="2.7831414873370286"/>
  <path d="M 31.191165675215075, 99.99742763783263 Q 28.66035070524908, 101.09193061425246, 25.478238402484337, 102.70571706784456 " fill="none" id="curve_85" stroke="#000000" stroke-linecap="round" stroke-linejoin="round" stroke-width="2.483285030138479"/>
  <path d="M 5.446598188323269, 71.56658432443271 Q 6.4178826567056735, 70.94486216561674, 8.082949669646098, 69.88600998882431 " fill="none" id="curve_88" stroke="#000000" stroke-linecap="round" stroke-linejoin="round" stroke-width="3.370713143954654"/>
  <path d="M 8.082949669646098, 69.88600998882431 Q 7.7037440943688305, 70.02844402532722, 7.1676162650231445, 70.30763998257675 " fill="none" id="curve_88" stroke="#000000" stroke-linecap="round" stroke-linejoin="round" stroke-width="3.8596953611231246"/>
  <path d="M 54.7492878663377, 75.37010182369828 Q 55.157521254994236, 75.43657217027429, 55.91480895221131, 75.56407003653636 " fill="none" id="curve_104" stroke="#000000" stroke-linecap="round" stroke-linejoin="round" stroke-width="2.2413340139918767"/>
  <path d="M 6.958650680637158, 70.10012272141168 Q 7.41704130867066, 70.03794196795498, 7.989738852962032, 69.84942405960659 " fill="none" id="curve_110" stroke="#000000" stroke-linecap="round" stroke-linejoin="round" stroke-width="3.2082805035807835"/>
  <path d="M 15.401882618025489, 101.066207992821 Q 12.387669821672795, 98.28342965267677, 4.042351546641376, 96.4848454153561 " fill="none" id="curve_127" stroke="#000000" stroke-linecap="round" stroke-linejoin="round" stroke-width="2.605030767265965"/>
  <path d="M 6.8617372711561675, 72.28875062315342 Q 7.1898148030867555, 70.66432599162991, 7.884625895465283, 69.57226348504477 " fill="none" id="curve_128" stroke="#000000" stroke-linecap="round" stroke-linejoin="round" stroke-width="4.758472982464654"/>
  <path d="M 5.840635839309051, 70.27496875675655 Q 7.414513742982077, 70.45422168204529, 8.662737397251227, 71.0752667620426 " fill="none" id="curve_148" stroke="#000000" stroke-linecap="round" stroke-linejoin="round" stroke-width="3.777725832743874"/>
  <path d="M 44.150027523194694, 96.65246396974669 Q 43.751009058875084, 96.50294203765787, 43.604985744385544, 95.2947665152361 " fill="none" id="curve_163" stroke="#000000" stroke-linecap="round" stroke-linejoin="round" stroke-width="4.6674595674668815"/>
  <path d="M 44.46566382692333, 67.5709200097524 Q 45.45273712494378, 67.57205338552623, 46.68711155968781, 67.57423942094266 " fill="none" id="curve_178" stroke="#000000" stroke-linecap="round" stroke-linejoin="round" stroke-width="2.87862553441352"/>
  <path d="M 53.388039940121665, 87.80505300482025 Q 52.01715679277192, 87.48371528518132, 51.78772892655994, 81.45929057727885 " fill="none" id="curve_193" stroke="#000000" stroke-linecap="round" stroke-linejoin="round" stroke-width="2.8900007739055322"/>
  <path d="M 47.6162201687806, 65.89596961832714 Q 47.3997023715434, 65.64582044399486, 47.09748164487265, 65.28063282944895 " fill="none" id="curve_194" stroke="#000000" stroke-linecap="round" stroke-linejoin="round" stroke-width="3.0225294439849666"/>
  <path d="M 42.25841860920187, 94.46044129250596 Q 42.69397894843516, 94.264525981037, 43.723177580569875, 94.0236485995846 " fill="none" id="curve_196" stroke="#000000" stroke-linecap="round" stroke-linejoin="round" stroke-width="2.9374322681786853"/>
  <path d="M 40.87826110945721, 62.80927232890376 Q 41.90671071647917, 62.77960745054363, 42.971475637038765, 62.71794961792797 " fill="none" id="curve_197" stroke="#000000" stroke-linecap="round" stroke-linejoin="round" stroke-width="2.275415146928114"/>
</svg>
