<?xml version="1.0" ?>
<svg height="140" width="140" xmlns="http://www.w3.org/2000/svg">
  <path d="M 43.88928782939911, 102.23797988891602 Q 43.18630243251927, 101.77874908937939, 42.52829783692073, 100.29971920642578 " fill="none" id="curve_1" stroke="#000000" stroke-linecap="round" stroke-linejoin="round" stroke-width="7.738556737472319"/>
  <path d="M 43.64655750951372, 102.64466177699241 Q 56.30536114794479, 103.00106721134607, 62.037953569819415, 104.6560606030412 " fill="none" id="curve_2" stroke="#000000" stroke-linecap="round" stroke-linejoin="round" stroke-width="7.359135701853782"/>
  <path d="M 62.037953569819415, 104.6560606030412 Q 62.41413016290516, 106.30108093524005, 65.07980237247801, 106.67460738378279 " fill="none" id="curve_2" stroke="#000000" stroke-linecap="round" stroke-linejoin="round" stroke-width="3.631402174383153"/>
  <path d="M 59.40232464123097, 72.07575992095808 Q 63.5497287913433, 66.81740900797868, 71.00824567903875, 47.71278983651386 " fill="none" id="curve_3" stroke="#000000" stroke-linecap="round" stroke-linejoin="round" stroke-width="3.6664456407405606"/>
  <path d="M 71.00824567903875, 47.71278983651386 Q 72.49009133779568, 46.37768367626889, 72.8812030501189, 38.215148971856074 " fill="none" id="curve_3" stroke="#000000" stroke-linecap="round" stroke-linejoin="round" stroke-width="4.647545910976218"/>
  <path d="M 72.8812030501189, 38.215148971856074 Q 59.32612339880062, 38.650456595409004, 54.908088277869595, 43.433623136171256 " fill="none" id="curve_3" stroke="#000000" stroke-linecap="round" stroke-linejoin="round" stroke-width="6.3565954817265515"/>
  <path d="M 54.908088277869595, 43.433623136171256 Q 48.64043828015666, 47.46194778040628, 43.90358042737225, 54.678930553908764 " fill="none" id="curve_3" stroke="#000000" stroke-linecap="round" stroke-linejoin="round" stroke-width="4.058558944351948"/>
  <path d="M 60.67582237970794, 38.25877827938506 Q 62.92499583201973, 37.10494977656312, 71.34069064711393, 36.540774517248394 " fill="none" id="curve_4" stroke="#000000" stroke-linecap="round" stroke-linejoin="round" stroke-width="2.7649957399644056"/>
  <path d="M 71.34069064711393, 36.540774517248394 Q 70.95895073777105, 55.84539803338595, 63.87868360110136, 59.5235641708735 " fill="none" id="curve_4" stroke="#000000" stroke-linecap="round" stroke-linejoin="round" stroke-width="2.6418834226913592"/>
  <path d="M 63.87868360110136, 59.5235641708735 Q 67.8987436738077, 54.10619724058523, 72.43884157216797, 46.62699190096947 " fill="none" id="curve_4" stroke="#000000" stroke-linecap="round" stroke-linejoin="round" stroke-width="3.7124001168177934"/>
  <path d="M 72.43884157216797, 46.62699190096947 Q 70.16869840098687, 46.84230478837128, 69.24327424673, 48.0701084181246 " fill="none" id="curve_4" stroke="#000000" stroke-linecap="round" stroke-linejoin="round" stroke-width="3.0488193883693304"/>
  <path d="M 43.58216270057898, 103.91048973134717 Q 46.363282953305315, 104.06987852445864, 51.25366330241315, 104.28285562129345 " fill="none" id="curve_6" stroke="#000000" stroke-linecap="round" stroke-linejoin="round" stroke-width="2.9378488982057256"/>
  <path d="M 51.25366330241315, 104.28285562129345 Q 45.216883118757565, 103.99550324940122, 40.72403739121502, 103.30990891694482 " fill="none" id="curve_6" stroke="#000000" stroke-linecap="round" stroke-linejoin="round" stroke-width="3.0397908132740445"/>
  <path d="M 60.22084710502632, 106.84831237271132 Q 59.881757621001164, 106.42062131635797, 59.36245012030383, 105.91063294501694 " fill="none" id="curve_7" stroke="#000000" stroke-linecap="round" stroke-linejoin="round" stroke-width="4.9133609742392155"/>
  <path d="M 45.39663019601784, 47.99401852356129 Q 44.94583409773497, 52.36617274777859, 43.64393310885511, 55.25169086100737 " fill="none" id="curve_8" stroke="#000000" stroke-linecap="round" stroke-linejoin="round" stroke-width="2.776055607951952"/>
  <path d="M 47.51336829974076, 86.9047829150478 Q 47.769771856968454, 87.24009745978603, 48.181053296622515, 87.85331585782954 " fill="none" id="curve_36" stroke="#000000" stroke-linecap="round" stroke-linejoin="round" stroke-width="2.111549574326642"/>
  <path d="M 58.24054944450333, 39.29902393465042 Q 58.26492863777095, 39.5148237585817, 58.33389610104828, 39.780369714194485 " fill="none" id="curve_47" stroke="#000000" stroke-linecap="round" stroke-linejoin="round" stroke-width="2.847450382379709"/>
  <path d="M 58.22818880512636, 101.45077691309272 Q 54.59873114001281, 103.45666700394673, 49.22301131636143, 105.62758870341189 " fill="none" id="curve_49" stroke="#000000" stroke-linecap="round" stroke-linejoin="round" stroke-width="3.7534583969705584"/>
  <path d="M 74.59074943824035, 40.643673190873876 Q 69.63002287326017, 40.31511092625936, 63.46078791264841, 39.31351861565654 " fill="none" id="curve_64" stroke="#000000" stroke-linecap="round" stroke-linejoin="round" stroke-width="1.7248201216205767"/>
  <path d="M 63.46078791264841, 39.31351861565654 Q 60.82823926801273, 39.40065562766944, 57.3595170746589, 39.54879688586894 " fill="none" id="curve_64" stroke="#000000" stroke-linecap="round" stroke-linejoin="round" stroke-width="2.8745873333347087"/>
  <path d="M 68.97426912862583, 52.8951034469577 Q 69.42143883053689, 49.68086000029411, 70.78115843629377, 47.561775594579785 " fill="none" id="curve_82" stroke="#000000" stroke-linecap="round" stroke-linejoin="round" stroke-width="3.4042201786652617"/>
  <path d="M 70.49745703845552, 47.52602395146265 Q 69.94296954715371, 49.098915997181045, 69.27590596401016, 52.18457961526977 " fill="none" id="curve_153" stroke="#000000" stroke-linecap="round" stroke-linejoin="round" stroke-width="2.6872169085911946"/>
</svg>
