<?xml version="1.0" ?>
<svg height="140" width="140" xmlns="http://www.w3.org/2000/svg">
  <path d="M 59.60776901245117, 42.50348377227783 Q 59.14985787970612, 49.54089300937517, 57.747138860872354, 57.7779778105678 " fill="none" id="curve_1" stroke="#000000" stroke-linecap="round" stroke-linejoin="round" stroke-width="6.7882265226984035"/>
  <path d="M 57.747138860872354, 57.7779778105678 Q 55.33645420647133, 68.58001472537438, 38.222189935889006, 80.72217982998805 " fill="none" id="curve_1" stroke="#000000" stroke-linecap="round" stroke-linejoin="round" stroke-width="4.280534504675743"/>
  <path d="M 38.222189935889006, 80.72217982998805 Q 37.53440095737071, 85.61853423293402, 35.721160300381136, 87.82190892746678 " fill="none" id="curve_1" stroke="#000000" stroke-linecap="round" stroke-linejoin="round" stroke-width="5.105790195143309"/>
  <path d="M 35.721160300381136, 87.82190892746678 Q 43.488052490847195, 87.03569463175342, 51.9829724811958, 86.12483932503332 " fill="none" id="curve_1" stroke="#000000" stroke-linecap="round" stroke-linejoin="round" stroke-width="6.230082639953641"/>
  <path d="M 51.9829724811958, 86.12483932503332 Q 63.81444612297847, 89.23130094384584, 66.79377831666926, 101.52311612603998 " fill="none" id="curve_1" stroke="#000000" stroke-linecap="round" stroke-linejoin="round" stroke-width="5.497723046248502"/>
  <path d="M 66.79377831666926, 101.52311612603998 Q 68.67209333064012, 101.28426638902809, 70.13284932706682, 100.88993830550285 " fill="none" id="curve_1" stroke="#000000" stroke-linecap="round" stroke-linejoin="round" stroke-width="4.889867279212835"/>
  <path d="M 50.26229748415835, 42.97183051858964 Q 42.218880411088996, 43.01693235148903, 39.06752936782066, 43.29095834549217 " fill="none" id="curve_3" stroke="#000000" stroke-linecap="round" stroke-linejoin="round" stroke-width="3.8074699009662627"/>
  <path d="M 56.11729979641597, 42.991163299086715 Q 54.44953748383275, 42.70815091648057, 49.570769972794594, 42.49027756146943 " fill="none" id="curve_4" stroke="#000000" stroke-linecap="round" stroke-linejoin="round" stroke-width="4.543272650399267"/>
  <path d="M 49.570769972794594, 42.49027756146943 Q 46.313187213413315, 42.3535619633365, 41.3823937674178, 42.144965437818456 " fill="none" id="curve_4" stroke="#000000" stroke-linecap="round" stroke-linejoin="round" stroke-width="4.252010192966239"/>
  <path d="M 64.28712203234575, 101.25158366189974 Q 63.1620929526304, 94.80840391577419, 60.074834069289736, 87.80912439315604 " fill="none" id="curve_6" stroke="#000000" stroke-linecap="round" stroke-linejoin="round" stroke-width="2.87393381664288"/>
  <path d="M 55.31184484267885, 43.36457838962163 Q 56.48811476420393, 46.2282528035037, 60.336695216554425, 48.84138412712005 " fill="none" id="curve_13" stroke="#000000" stroke-linecap="round" stroke-linejoin="round" stroke-width="2.991480188906009"/>
  <path d="M 39.1085157144855, 44.74010304655442 Q 38.901969179392644, 45.85596441720901, 38.37818605573425, 46.7152154108182 " fill="none" id="curve_14" stroke="#000000" stroke-linecap="round" stroke-linejoin="round" stroke-width="2.8195730882353507"/>
  <path d="M 43.4643478331751, 75.08752154253128 Q 41.899021617353995, 77.78637716656803, 39.39221970284915, 83.34303890752088 " fill="none" id="curve_17" stroke="#000000" stroke-linecap="round" stroke-linejoin="round" stroke-width="3.2470038056074886"/>
  <path d="M 45.534774988035004, 86.28847980802306 Q 63.36688539047004, 86.44056886174549, 64.71838209750054, 91.03411803404586 " fill="none" id="curve_19" stroke="#000000" stroke-linecap="round" stroke-linejoin="round" stroke-width="3.3454743960929023"/>
  <path d="M 41.88201081221053, 84.85516382381307 Q 43.48093850846991, 85.75908445374753, 47.610651689285426, 86.94436162552681 " fill="none" id="curve_20" stroke="#000000" stroke-linecap="round" stroke-linejoin="round" stroke-width="3.159330915884811"/>
  <path d="M 52.889530181884766, 68.28657722473145 Q 53.019743234883194, 58.92111086213508, 59.12648222998507, 57.952465262461146 " fill="none" id="curve_34" stroke="#000000" stroke-linecap="round" stroke-linejoin="round" stroke-width="3.1342861281013694"/>
  <path d="M 49.03836464190135, 85.47020391546198 Q 47.22919439306627, 85.9425986129168, 39.09877188458969, 86.33999168402167 " fill="none" id="curve_49" stroke="#000000" stroke-linecap="round" stroke-linejoin="round" stroke-width="2.7997146879132853"/>
  <path d="M 39.09877188458969, 86.33999168402167 Q 46.81053362083154, 86.11192361332229, 56.9821434589267, 85.64671442540592 " fill="none" id="curve_49" stroke="#000000" stroke-linecap="round" stroke-linejoin="round" stroke-width="2.6202601213751677"/>
  <path d="M 56.9821434589267, 85.64671442540592 Q 47.349678364316745, 85.89556165741531, 37.92632144687437, 86.47015707719116 " fill="none" id="curve_49" stroke="#000000" stroke-linecap="round" stroke-linejoin="round" stroke-width="2.614259992620093"/>
  <path d="M 43.640769224808594, 76.34852630571875 Q 43.30375255858736, 76.68092443875827, 42.5447090167655, 77.34831776334921 " fill="none" id="curve_50" stroke="#000000" stroke-linecap="round" stroke-linejoin="round" stroke-width="3.229580379026043"/>
  <path d="M 40.94595813751221, 75.8849732875824 Q 41.59580658478896, 77.53752414755607, 45.54346567795562, 78.74580898897875 " fill="none" id="curve_64" stroke="#000000" stroke-linecap="round" stroke-linejoin="round" stroke-width="3.2053119373268584"/>
  <path d="M 36.82837464923925, 87.62375837453408 Q 39.58334314211881, 86.72571511099065, 46.65656707353063, 85.87272410479873 " fill="none" id="curve_65" stroke="#000000" stroke-linecap="round" stroke-linejoin="round" stroke-width="3.5632335498889884"/>
  <path d="M 55.205470899219314, 87.17708670120865 Q 53.92022078505184, 85.72239039637878, 41.132192538826416, 85.305072942963 " fill="none" id="curve_81" stroke="#000000" stroke-linecap="round" stroke-linejoin="round" stroke-width="3.2194113162432"/>
  <path d="M 44.059652422304055, 42.40048947706036 Q 44.443203733446076, 41.44072523439461, 46.131784471698644, 40.58761462192671 " fill="none" id="curve_84" stroke="#000000" stroke-linecap="round" stroke-linejoin="round" stroke-width="2.650840621961298"/>
  <path d="M 53.34454696771104, 44.049019436946196 Q 59.39127419956723, 46.08255435380977, 61.09144204418198, 56.255224636341325 " fill="none" id="curve_99" stroke="#000000" stroke-linecap="round" stroke-linejoin="round" stroke-width="1.920296743528032"/>
  <path d="M 61.09144204418198, 56.255224636341325 Q 54.89799095956191, 58.36132470517223, 51.62913250407335, 64.9782967253194 " fill="none" id="curve_99" stroke="#000000" stroke-linecap="round" stroke-linejoin="round" stroke-width="3.249706265122653"/>
  <path d="M 56.433026173462636, 50.878504108732514 Q 57.528100457730865, 50.165776221659286, 58.32925874730515, 48.325444103112694 " fill="none" id="curve_100" stroke="#000000" stroke-linecap="round" stroke-linejoin="round" stroke-width="3.2629930181034594"/>
  <path d="M 54.962034239351176, 86.82009405439328 Q 58.86866550774489, 93.40276509293679, 65.58763824000182, 98.47692896303586 " fill="none" id="curve_115" stroke="#000000" stroke-linecap="round" stroke-linejoin="round" stroke-width="2.749248613120997"/>
  <path d="M 37.46103058735955, 88.12532643485699 Q 37.28443919378533, 87.70875862885565, 36.77777257721145, 87.44210756427874 " fill="none" id="curve_116" stroke="#000000" stroke-linecap="round" stroke-linejoin="round" stroke-width="4.381276798935367"/>
  <path d="M 38.76565940505134, 87.92348634508892 Q 38.439376160030626, 87.96307196996568, 37.23443117019906, 87.98664736820619 " fill="none" id="curve_131" stroke="#000000" stroke-linecap="round" stroke-linejoin="round" stroke-width="4.417026842210709"/>
  <path d="M 37.23443117019906, 87.98664736820619 Q 36.754809213581076, 87.73158910035535, 35.66840250710151, 87.46077308086981 " fill="none" id="curve_131" stroke="#000000" stroke-linecap="round" stroke-linejoin="round" stroke-width="3.269082824789338"/>
</svg>
