<?xml version="1.0" ?>
<svg height="140" width="140" xmlns="http://www.w3.org/2000/svg">
  <path d="M 12.22928237915039, 65.15673446655273 Q 8.296644944535668, 65.27827839619708, 7.609249200093075, 66.94349611944381 " fill="none" id="curve_1" stroke="#000000" stroke-linecap="round" stroke-linejoin="round" stroke-width="4.440510292455661"/>
  <path d="M 7.609249200093075, 66.94349611944381 Q 8.197541570910923, 62.725944205200584, 18.130160460045218, 62.2008472710961 " fill="none" id="curve_1" stroke="#000000" stroke-linecap="round" stroke-linejoin="round" stroke-width="4.356955140640149"/>
  <path d="M 18.130160460045218, 62.2008472710961 Q 37.956994052136906, 63.10229848804641, 43.13110143804127, 73.4513064358134 " fill="none" id="curve_1" stroke="#000000" stroke-linecap="round" stroke-linejoin="round" stroke-width="4.675275240896749"/>
  <path d="M 43.13110143804127, 73.4513064358134 Q 40.233475558657446, 83.3138314505365, 23.537719434800902, 100.41108567458565 " fill="none" id="curve_1" stroke="#000000" stroke-linecap="round" stroke-linejoin="round" stroke-width="4.72511285321561"/>
  <path d="M 23.537719434800902, 100.41108567458565 Q 23.64222965782785, 113.22590454995857, 30.47525763336934, 113.6790269458431 " fill="none" id="curve_1" stroke="#000000" stroke-linecap="round" stroke-linejoin="round" stroke-width="6.042745561251037"/>
  <path d="M 30.47525763336934, 113.6790269458431 Q 52.889691510881676, 113.62619233615648, 56.92254045658953, 112.9330481030293 " fill="none" id="curve_1" stroke="#000000" stroke-linecap="round" stroke-linejoin="round" stroke-width="4.08080523252399"/>
  <path d="M 33.946727510970206, 112.99366782425136 Q 28.38791887747331, 111.53038443994761, 22.327343831991243, 109.46241309304762 " fill="none" id="curve_2" stroke="#000000" stroke-linecap="round" stroke-linejoin="round" stroke-width="3.523823505498031"/>
  <path d="M 41.013704451054906, 80.11424029195564 Q 41.000557030101945, 69.13328304601234, 40.70010309249014, 68.09720002346755 " fill="none" id="curve_3" stroke="#000000" stroke-linecap="round" stroke-linejoin="round" stroke-width="3.807228848228121"/>
  <path d="M 40.70010309249014, 68.09720002346755 Q 34.63901563140914, 65.36188436087939, 24.058101170590383, 62.01108167315563 " fill="none" id="curve_3" stroke="#000000" stroke-linecap="round" stroke-linejoin="round" stroke-width="2.9796196458451725"/>
  <path d="M 24.058101170590383, 62.01108167315563 Q 24.0211578028651, 62.929705926998835, 23.926554962610975, 63.56730604044966 " fill="none" id="curve_3" stroke="#000000" stroke-linecap="round" stroke-linejoin="round" stroke-width="3.939991692113007"/>
  <path d="M 23.926554962610975, 63.56730604044966 Q 27.676763252487383, 63.951734915611155, 33.38481380961434, 64.78804757186616 " fill="none" id="curve_3" stroke="#000000" stroke-linecap="round" stroke-linejoin="round" stroke-width="2.548272011696802"/>
  <path d="M 34.981788635253906, 68.53262519836426 Q 39.3585856744362, 69.18987989915313, 43.49017278889488, 71.00402585107122 " fill="none" id="curve_17" stroke="#000000" stroke-linecap="round" stroke-linejoin="round" stroke-width="2.614903649961347"/>
  <path d="M 30.812521436272764, 90.31773839062363 Q 29.493226774645585, 91.12333926604464, 27.89487616086842, 93.51329476451168 " fill="none" id="curve_18" stroke="#000000" stroke-linecap="round" stroke-linejoin="round" stroke-width="2.680459847686011"/>
  <path d="M 35.927785873413086, 66.78379821777344 Q 32.53847035895052, 66.74231158748526, 31.291812067006447, 66.36456125023 " fill="none" id="curve_32" stroke="#000000" stroke-linecap="round" stroke-linejoin="round" stroke-width="2.716205203683218"/>
  <path d="M 25.336203931166523, 61.91904306928656 Q 37.36588821325534, 63.288298397562556, 41.629807244549404, 69.62739007122917 " fill="none" id="curve_33" stroke="#000000" stroke-linecap="round" stroke-linejoin="round" stroke-width="1.895660144374557"/>
  <path d="M 27.357728882474802, 99.42166228913652 Q 24.151950678592293, 102.05337992245411, 21.853357454444293, 107.63695072643027 " fill="none" id="curve_34" stroke="#000000" stroke-linecap="round" stroke-linejoin="round" stroke-width="3.0107929940124407"/>
  <path d="M 21.853357454444293, 107.63695072643027 Q 29.4591889830887, 111.95481903101137, 41.479962436308796, 115.20784685563048 " fill="none" id="curve_34" stroke="#000000" stroke-linecap="round" stroke-linejoin="round" stroke-width="2.670179882201973"/>
  <path d="M 41.479962436308796, 115.20784685563048 Q 43.06024239225816, 115.04520613723206, 45.01167963881444, 114.823606719708 " fill="none" id="curve_34" stroke="#000000" stroke-linecap="round" stroke-linejoin="round" stroke-width="2.999324613802962"/>
  <path d="M 29.474715059201717, 91.6705333949804 Q 35.64861928090541, 86.71484530517496, 42.7830805077704, 78.3773826331199 " fill="none" id="curve_36" stroke="#000000" stroke-linecap="round" stroke-linejoin="round" stroke-width="2.5191685373662223"/>
  <path d="M 41.327656723551634, 71.54852336306494 Q 42.03641623960248, 70.44437278102848, 43.284770365208196, 69.37780667122776 " fill="none" id="curve_38" stroke="#000000" stroke-linecap="round" stroke-linejoin="round" stroke-width="3.2253862018792594"/>
  <path d="M 20.95385079511265, 61.76980689733569 Q 24.74277411479293, 61.753968762678504, 27.377364369402045, 61.6936543938459 " fill="none" id="curve_47" stroke="#000000" stroke-linecap="round" stroke-linejoin="round" stroke-width="2.268894675293092"/>
  <path d="M 30.924612330158368, 109.35567885494558 Q 31.733370703118133, 113.4439244846061, 36.2928162830678, 114.93258849948211 " fill="none" id="curve_50" stroke="#000000" stroke-linecap="round" stroke-linejoin="round" stroke-width="2.9351241330741096"/>
  <path d="M 38.0708546664971, 71.08500261535332 Q 39.2901251681032, 71.41336273961052, 41.17196552857875, 71.83624491731925 " fill="none" id="curve_99" stroke="#000000" stroke-linecap="round" stroke-linejoin="round" stroke-width="2.4868758861825717"/>
  <path d="M 14.4169859985818, 63.492376023037764 Q 14.167728029108781, 63.75824581116185, 13.7729294792629, 64.19211118633768 " fill="none" id="curve_100" stroke="#000000" stroke-linecap="round" stroke-linejoin="round" stroke-width="2.4801962762801253"/>
</svg>
