<?xml version="1.0" ?>
<svg height="140" width="140" xmlns="http://www.w3.org/2000/svg">
  <path d="M 36.94318771362305, 126.56778717041016 Q 34.64821237147976, 126.6365380000101, 32.33349310729864, 126.7861741286938 " fill="none" id="curve_1" stroke="#000000" stroke-linecap="round" stroke-linejoin="round" stroke-width="5.481518808675945"/>
  <path d="M 32.33349310729864, 126.7861741286938 Q 35.24390973652006, 119.48098839539273, 43.63474552208673, 107.0306873865313 " fill="none" id="curve_1" stroke="#000000" stroke-linecap="round" stroke-linejoin="round" stroke-width="4.552011115749444"/>
  <path d="M 43.63474552208673, 107.0306873865313 Q 48.1638992754979, 100.93347780258738, 56.62328356196189, 81.74100717768124 " fill="none" id="curve_1" stroke="#000000" stroke-linecap="round" stroke-linejoin="round" stroke-width="5.336090661253447"/>
  <path d="M 56.62328356196189, 81.74100717768124 Q 60.84469655623904, 74.17532786672103, 70.54410371107042, 54.781823259965726 " fill="none" id="curve_1" stroke="#000000" stroke-linecap="round" stroke-linejoin="round" stroke-width="5.246951421298398"/>
  <path d="M 70.54410371107042, 54.781823259965726 Q 71.36619980342294, 53.92917697563414, 71.51990161041608, 25.460681659352957 " fill="none" id="curve_1" stroke="#000000" stroke-linecap="round" stroke-linejoin="round" stroke-width="4.6337279507748415"/>
  <path d="M 71.51990161041608, 25.460681659352957 Q 70.62797546515168, 12.076507398086878, 60.022014261116, 8.437395298515632 " fill="none" id="curve_1" stroke="#000000" stroke-linecap="round" stroke-linejoin="round" stroke-width="4.921377766097415"/>
  <path d="M 60.022014261116, 8.437395298515632 Q 45.83348429326193, 9.909046924790971, 38.0863235235763, 38.57010079428878 " fill="none" id="curve_1" stroke="#000000" stroke-linecap="round" stroke-linejoin="round" stroke-width="4.9617008168159185"/>
  <path d="M 38.0863235235763, 38.57010079428878 Q 34.56561297469603, 47.08058975261485, 27.961022355891735, 75.613668640627 " fill="none" id="curve_1" stroke="#000000" stroke-linecap="round" stroke-linejoin="round" stroke-width="4.473871611849179"/>
  <path d="M 38.44540562700994, 126.80781475447245 Q 49.555630196124476, 124.28417943785193, 66.3341609085813, 121.27791721309158 " fill="none" id="curve_3" stroke="#000000" stroke-linecap="round" stroke-linejoin="round" stroke-width="5.548877199737427"/>
  <path d="M 66.3341609085813, 121.27791721309158 Q 75.57513686713651, 121.51046065043806, 81.15792072166468, 122.00738601300401 " fill="none" id="curve_3" stroke="#000000" stroke-linecap="round" stroke-linejoin="round" stroke-width="5.352677153201231"/>
  <path d="M 55.59918981938127, 121.45375950556031 Q 47.304998510974926, 123.56738520587409, 36.97656374384502, 127.00177078961134 " fill="none" id="curve_4" stroke="#000000" stroke-linecap="round" stroke-linejoin="round" stroke-width="3.133221894304747"/>
  <path d="M 29.439547788998393, 77.18200504503784 Q 29.736715808761456, 75.83880479821165, 29.957271570196873, 71.90196749289684 " fill="none" id="curve_7" stroke="#000000" stroke-linecap="round" stroke-linejoin="round" stroke-width="3.0625919595920004"/>
  <path d="M 29.957271570196873, 71.90196749289684 Q 30.696943978900503, 60.74416784430371, 33.739337774426716, 51.35793482500566 " fill="none" id="curve_7" stroke="#000000" stroke-linecap="round" stroke-linejoin="round" stroke-width="2.2800564654905804"/>
  <path d="M 69.97045624241409, 23.396179173381547 Q 68.61121242979742, 15.77586222046947, 62.02737813447477, 8.551858832248906 " fill="none" id="curve_8" stroke="#000000" stroke-linecap="round" stroke-linejoin="round" stroke-width="2.3517333457153824"/>
  <path d="M 62.02737813447477, 8.551858832248906 Q 46.40614876816257, 8.653612863601332, 45.3540491150968, 16.856161487724698 " fill="none" id="curve_8" stroke="#000000" stroke-linecap="round" stroke-linejoin="round" stroke-width="3.1595909605504215"/>
  <path d="M 69.56588188730748, 42.39159835932959 Q 69.53937077345478, 41.3992064011652, 69.5147311247419, 39.59566979909801 " fill="none" id="curve_10" stroke="#000000" stroke-linecap="round" stroke-linejoin="round" stroke-width="3.9081018135967542"/>
  <path d="M 63.20760627129123, 66.12168423665925 Q 66.01161299491359, 61.05981693942615, 69.92528969433918, 54.597238122447685 " fill="none" id="curve_11" stroke="#000000" stroke-linecap="round" stroke-linejoin="round" stroke-width="2.6823126521953014"/>
  <path d="M 38.418413848394195, 38.46285572537241 Q 35.77544015561691, 48.5742387660172, 28.708463570838894, 66.18968593684636 " fill="none" id="curve_22" stroke="#000000" stroke-linecap="round" stroke-linejoin="round" stroke-width="2.1121980380382888"/>
  <path d="M 56.564238586498064, 117.41575194318719 Q 57.42578228956221, 122.76978272205945, 66.01947409426481, 123.92204913638567 " fill="none" id="curve_23" stroke="#000000" stroke-linecap="round" stroke-linejoin="round" stroke-width="3.1199181958439204"/>
  <path d="M 42.33222229177989, 125.14926877745921 Q 38.99237555344183, 124.71467345812945, 32.68725491480929, 124.30852970177709 " fill="none" id="curve_24" stroke="#000000" stroke-linecap="round" stroke-linejoin="round" stroke-width="4.497634628427809"/>
  <path d="M 51.080381623891085, 92.47835410104683 Q 52.965095834098236, 84.75293664590976, 58.84718855894347, 79.29357994794867 " fill="none" id="curve_25" stroke="#000000" stroke-linecap="round" stroke-linejoin="round" stroke-width="2.9327666439542126"/>
  <path d="M 43.90557658099533, 103.7569293434461 Q 44.57858198165172, 99.21172657184874, 48.715516919130096, 95.3393439705213 " fill="none" id="curve_28" stroke="#000000" stroke-linecap="round" stroke-linejoin="round" stroke-width="2.166759824178305"/>
  <path d="M 59.634262815758454, 80.98423972324164 Q 59.568112908368576, 75.78588925961536, 57.665767799352025, 75.21346211387923 " fill="none" id="curve_29" stroke="#000000" stroke-linecap="round" stroke-linejoin="round" stroke-width="2.2152403688373092"/>
  <path d="M 69.70869244295855, 53.81334617922863 Q 65.60460775597438, 59.97574789846728, 59.19388377102749, 72.72980868146551 " fill="none" id="curve_32" stroke="#000000" stroke-linecap="round" stroke-linejoin="round" stroke-width="2.1878542058245913"/>
  <path d="M 68.79294515614387, 23.20453007336905 Q 68.86421906784192, 22.229234947817883, 68.94433065882328, 19.58045580797259 " fill="none" id="curve_40" stroke="#000000" stroke-linecap="round" stroke-linejoin="round" stroke-width="3.6087711992244564"/>
  <path d="M 31.880774068337864, 69.51113600499087 Q 32.736357077365824, 50.54132247696783, 38.79887495759182, 37.756419772956164 " fill="none" id="curve_50" stroke="#000000" stroke-linecap="round" stroke-linejoin="round" stroke-width="2.2962927447803283"/>
  <path d="M 54.01497434473649, 10.736611856869516 Q 53.83361625467017, 9.822870118338589, 53.22939973411232, 8.645060056547234 " fill="none" id="curve_55" stroke="#000000" stroke-linecap="round" stroke-linejoin="round" stroke-width="3.152038195224605"/>
  <path d="M 66.72917466640911, 14.726558494977407 Q 66.78500442535942, 13.673681613780618, 66.88138134066347, 11.740552950884663 " fill="none" id="curve_57" stroke="#000000" stroke-linecap="round" stroke-linejoin="round" stroke-width="4.112900773301696"/>
  <path d="M 43.96492061571212, 126.12277450467263 Q 44.056245179784504, 126.28613625638285, 44.32619249842612, 126.4399574597207 " fill="none" id="curve_72" stroke="#000000" stroke-linecap="round" stroke-linejoin="round" stroke-width="3.698658104905603"/>
  <path d="M 74.5129195239125, 120.55072357589592 Q 77.63568490357649, 120.92791817329355, 81.07492109754419, 121.4495229589176 " fill="none" id="curve_75" stroke="#000000" stroke-linecap="round" stroke-linejoin="round" stroke-width="3.518105762001745"/>
  <path d="M 31.381296328874768, 53.434686290878666 Q 32.48228419965533, 53.10685667217186, 33.34488764035562, 52.06087464367542 " fill="none" id="curve_80" stroke="#000000" stroke-linecap="round" stroke-linejoin="round" stroke-width="3.5524538559717893"/>
  <path d="M 68.10704418000148, 15.199261703722659 Q 67.35952797841641, 13.877688164195426, 66.05691049271576, 12.1411156806945 " fill="none" id="curve_83" stroke="#000000" stroke-linecap="round" stroke-linejoin="round" stroke-width="3.692764276594581"/>
  <path d="M 78.43402688826723, 120.33836431956809 Q 75.51246219145509, 120.10863152359958, 70.68964079797013, 119.75789605955754 " fill="none" id="curve_98" stroke="#000000" stroke-linecap="round" stroke-linejoin="round" stroke-width="2.6340094656510904"/>
  <path d="M 76.22864876747923, 119.4489421824095 Q 80.16232330352432, 120.57657754882486, 82.1863220004242, 123.16404912425747 " fill="none" id="curve_113" stroke="#000000" stroke-linecap="round" stroke-linejoin="round" stroke-width="2.661930166615133"/>
  <path d="M 41.67376844687589, 110.06319568273958 Q 41.72198719964236, 104.65115351105098, 44.84810649334639, 104.3798813003265 " fill="none" id="curve_115" stroke="#000000" stroke-linecap="round" stroke-linejoin="round" stroke-width="2.5605313425406115"/>
  <path d="M 31.472907354852346, 125.33894488390543 Q 31.84273810295624, 125.13442114966634, 32.59896144888215, 124.88379025054718 " fill="none" id="curve_132" stroke="#000000" stroke-linecap="round" stroke-linejoin="round" stroke-width="2.907776400323538"/>
  <path d="M 61.970362420966836, 10.210553956300473 Q 62.77948484561273, 12.906334444142315, 68.77427317415167, 13.484759740473905 " fill="none" id="curve_137" stroke="#000000" stroke-linecap="round" stroke-linejoin="round" stroke-width="3.2380520311510397"/>
  <path d="M 59.17824892867562, 6.124685791481963 Q 59.36193295936043, 6.352526899702153, 59.60581702278142, 6.787122005909008 " fill="none" id="curve_138" stroke="#000000" stroke-linecap="round" stroke-linejoin="round" stroke-width="2.77610435448785"/>
  <path d="M 35.70518749531203, 39.91656153672612 Q 35.92740752102806, 39.68552990716955, 36.2646540921543, 39.25694828324002 " fill="none" id="curve_139" stroke="#000000" stroke-linecap="round" stroke-linejoin="round" stroke-width="2.5203135734734685"/>
  <path d="M 52.59055324251358, 85.0646362346721 Q 52.48460895506772, 85.03113027017046, 52.37614398227758, 84.9719654891662 " fill="none" id="curve_154" stroke="#000000" stroke-linecap="round" stroke-linejoin="round" stroke-width="2.9988382777356897"/>
  <path d="M 69.32204411676321, 26.34763188145029 Q 69.34887153578198, 24.800422651536323, 69.43047480840647, 23.741106914492896 " fill="none" id="curve_169" stroke="#000000" stroke-linecap="round" stroke-linejoin="round" stroke-width="3.185425862215177"/>
  <path d="M 68.7278690454405, 15.601448480753415 Q 69.16335508269118, 14.677458312097233, 69.77166565730592, 13.272248451661493 " fill="none" id="curve_180" stroke="#000000" stroke-linecap="round" stroke-linejoin="round" stroke-width="3.0072028541804676"/>
  <path d="M 67.29003690634003, 56.08141270072483 Q 68.7279703893667, 54.46812164876502, 70.80183509240683, 52.13024377791294 " fill="none" id="curve_196" stroke="#000000" stroke-linecap="round" stroke-linejoin="round" stroke-width="2.5427103438953726"/>
</svg>
