<?xml version="1.0" ?>
<svg height="140" width="140" xmlns="http://www.w3.org/2000/svg">
  <path d="M 31.497243881225586, 37.76980400085449 Q 21.154258568743238, 38.3552904488445, 18.178850045131185, 52.237134278564895 " fill="none" id="curve_1" stroke="#000000" stroke-linecap="round" stroke-linejoin="round" stroke-width="5.40165312714773"/>
  <path d="M 18.178850045131185, 52.237134278564895 Q 16.49202350763085, 53.64491598039729, 16.122317923573114, 61.322052780825864 " fill="none" id="curve_1" stroke="#000000" stroke-linecap="round" stroke-linejoin="round" stroke-width="3.730033477565561"/>
  <path d="M 16.122317923573114, 61.322052780825864 Q 19.208674054880483, 71.33757653787428, 29.34612638025269, 91.05649003132986 " fill="none" id="curve_1" stroke="#000000" stroke-linecap="round" stroke-linejoin="round" stroke-width="4.071292001268912"/>
  <path d="M 29.34612638025269, 91.05649003132986 Q 30.209689481690244, 95.55768787985632, 31.831201357780483, 99.04076800008863 " fill="none" id="curve_1" stroke="#000000" stroke-linecap="round" stroke-linejoin="round" stroke-width="4.088357519913195"/>
  <path d="M 56.482014110394886, 84.9195918332137 Q 53.277404176070476, 96.52922521958192, 35.177559459501374, 115.825810688981 " fill="none" id="curve_2" stroke="#000000" stroke-linecap="round" stroke-linejoin="round" stroke-width="5.798665335500163"/>
  <path d="M 35.177559459501374, 115.825810688981 Q 32.35943178888783, 123.63953008965775, 27.21133536126204, 128.56459606468889 " fill="none" id="curve_2" stroke="#000000" stroke-linecap="round" stroke-linejoin="round" stroke-width="6.370588449822627"/>
  <path d="M 27.21133536126204, 128.56459606468889 Q 30.907280134035425, 119.90145212308086, 50.4390746860458, 116.22062884724076 " fill="none" id="curve_2" stroke="#000000" stroke-linecap="round" stroke-linejoin="round" stroke-width="4.467531586038588"/>
  <path d="M 50.4390746860458, 116.22062884724076 Q 62.67681713933976, 123.64017862706815, 77.07712133085904, 130.54717149635403 " fill="none" id="curve_2" stroke="#000000" stroke-linecap="round" stroke-linejoin="round" stroke-width="5.29497408938722"/>
  <path d="M 77.07712133085904, 130.54717149635403 Q 74.22497130108464, 129.35032426855463, 69.77592362508472, 128.13699982124567 " fill="none" id="curve_2" stroke="#000000" stroke-linecap="round" stroke-linejoin="round" stroke-width="5.679443576227029"/>
  <path d="M 57.16827555233231, 83.21833083525686 Q 62.13494552401865, 79.75228629614352, 64.37185634136132, 67.98308641954398 " fill="none" id="curve_3" stroke="#000000" stroke-linecap="round" stroke-linejoin="round" stroke-width="5.530663318376283"/>
  <path d="M 64.37185634136132, 67.98308641954398 Q 62.7339029004357, 50.053466103024796, 44.600216176371056, 35.631421477971415 " fill="none" id="curve_3" stroke="#000000" stroke-linecap="round" stroke-linejoin="round" stroke-width="5.475590087593085"/>
  <path d="M 44.600216176371056, 35.631421477971415 Q 25.96523448478799, 35.667611320833984, 25.11305470613132, 39.65379564577964 " fill="none" id="curve_3" stroke="#000000" stroke-linecap="round" stroke-linejoin="round" stroke-width="4.304029603794379"/>
  <path d="M 25.11305470613132, 39.65379564577964 Q 30.039033798861276, 36.822827999177434, 36.41142392908056, 33.35868473376626 " fill="none" id="curve_3" stroke="#000000" stroke-linecap="round" stroke-linejoin="round" stroke-width="3.4783069323774347"/>
  <path d="M 36.41142392908056, 33.35868473376626 Q 49.25855353552073, 34.277421882509216, 52.36471201908918, 39.57991031638507 " fill="none" id="curve_3" stroke="#000000" stroke-linecap="round" stroke-linejoin="round" stroke-width="2.5963954119185284"/>
  <path d="M 61.932437743558744, 74.57716122007866 Q 56.98879714935356, 83.23670522103659, 47.59003075823372, 97.54756541366689 " fill="none" id="curve_4" stroke="#000000" stroke-linecap="round" stroke-linejoin="round" stroke-width="3.1291672848408494"/>
  <path d="M 57.620947435362574, 118.76141190465056 Q 64.29011076140587, 121.75190354448617, 67.14277804891407, 128.34388056602688 " fill="none" id="curve_5" stroke="#000000" stroke-linecap="round" stroke-linejoin="round" stroke-width="3.1850511314849186"/>
  <path d="M 67.14277804891407, 128.34388056602688 Q 72.71724963529715, 128.23083855918566, 78.48723735347079, 128.0900905822485 " fill="none" id="curve_5" stroke="#000000" stroke-linecap="round" stroke-linejoin="round" stroke-width="3.155646259596207"/>
  <path d="M 29.903691439351256, 90.51015392681853 Q 29.241790241026525, 86.41629472299289, 25.653724233036716, 85.18331235397008 " fill="none" id="curve_7" stroke="#000000" stroke-linecap="round" stroke-linejoin="round" stroke-width="5.142980680037315"/>
  <path d="M 25.653724233036716, 85.18331235397008 Q 26.41509732089829, 92.22799462398181, 29.9224067277611, 94.23698920327303 " fill="none" id="curve_7" stroke="#000000" stroke-linecap="round" stroke-linejoin="round" stroke-width="2.716786231319671"/>
  <path d="M 57.65899296947616, 80.15089008642643 Q 60.053620469138444, 75.65615461453045, 63.40113116069215, 70.04951446674761 " fill="none" id="curve_8" stroke="#000000" stroke-linecap="round" stroke-linejoin="round" stroke-width="2.6792254845370156"/>
  <path d="M 23.782800269054057, 44.832208973299174 Q 19.98371492513019, 46.16440047066481, 17.525898555987016, 51.386954442107836 " fill="none" id="curve_10" stroke="#000000" stroke-linecap="round" stroke-linejoin="round" stroke-width="3.266173928650276"/>
  <path d="M 43.12216091156006, 104.60689926147461 Q 44.468704332333594, 100.67305810299918, 48.85348048470223, 97.29070692562027 " fill="none" id="curve_24" stroke="#000000" stroke-linecap="round" stroke-linejoin="round" stroke-width="2.4793726588646647"/>
  <path d="M 16.0506643026753, 66.48564111149179 Q 20.604473045811144, 73.11474938935474, 26.614678320730523, 80.70619727998029 " fill="none" id="curve_28" stroke="#000000" stroke-linecap="round" stroke-linejoin="round" stroke-width="2.753513014242545"/>
  <path d="M 64.4292533886685, 61.4202327523825 Q 64.18212182182654, 61.26632938839341, 63.93518638324902, 60.84892549857637 " fill="none" id="curve_30" stroke="#000000" stroke-linecap="round" stroke-linejoin="round" stroke-width="3.0509123674751613"/>
  <path d="M 31.98511895802331, 37.6421821722405 Q 25.331382978435492, 40.36447813613666, 18.764578204528284, 45.74290064340502 " fill="none" id="curve_38" stroke="#000000" stroke-linecap="round" stroke-linejoin="round" stroke-width="3.0648694406533834"/>
  <path d="M 46.054098359356004, 40.25183493171739 Q 46.905770171598306, 40.73593123598212, 48.18537805060078, 41.3900117191235 " fill="none" id="curve_39" stroke="#000000" stroke-linecap="round" stroke-linejoin="round" stroke-width="2.8303146254551903"/>
  <path d="M 54.60012560524294, 116.52587433938191 Q 60.16692282969225, 119.14243504162606, 65.81788728668238, 123.67668660197522 " fill="none" id="curve_73" stroke="#000000" stroke-linecap="round" stroke-linejoin="round" stroke-width="2.0859476389029785"/>
  <path d="M 37.732611738471235, 111.73468051364486 Q 39.91607622526944, 105.57086462962597, 49.520256673335076, 101.83255679852152 " fill="none" id="curve_75" stroke="#000000" stroke-linecap="round" stroke-linejoin="round" stroke-width="2.334503170555826"/>
  <path d="M 58.14273889147751, 85.65214805766371 Q 58.25690450590486, 84.89011373220363, 58.38530932919335, 83.53528185694762 " fill="none" id="curve_76" stroke="#000000" stroke-linecap="round" stroke-linejoin="round" stroke-width="3.9802225161260902"/>
  <path d="M 64.82999775837482, 60.182656726839355 Q 64.33061316486263, 59.957730451933855, 63.767457603130204, 59.581563999731785 " fill="none" id="curve_91" stroke="#000000" stroke-linecap="round" stroke-linejoin="round" stroke-width="4.547316018050748"/>
  <path d="M 62.55965308357397, 121.40017694847393 Q 64.10752459459991, 121.38277358760217, 65.2802543885638, 121.34161387326981 " fill="none" id="curve_107" stroke="#000000" stroke-linecap="round" stroke-linejoin="round" stroke-width="2.0589045642210806"/>
  <path d="M 70.28557610920873, 126.7999246829692 Q 71.7661662164872, 126.84093328470424, 74.38757850223651, 126.89918401718214 " fill="none" id="curve_167" stroke="#000000" stroke-linecap="round" stroke-linejoin="round" stroke-width="2.983745867727659"/>
  <path d="M 58.260061805888924, 51.645118531423435 Q 60.86349128790177, 52.047357388310694, 62.79300175304384, 53.18884395723292 " fill="none" id="curve_173" stroke="#000000" stroke-linecap="round" stroke-linejoin="round" stroke-width="2.6494338323609488"/>
</svg>
