<?xml version="1.0" ?>
<svg height="140" width="140" xmlns="http://www.w3.org/2000/svg">
  <path d="M 62.463523864746094, 45.43074607849121 Q 63.4184323290027, 49.253775916429, 64.33448546805235, 55.43073007683347 " fill="none" id="curve_1" stroke="#000000" stroke-linecap="round" stroke-linejoin="round" stroke-width="6.151382990919778"/>
  <path d="M 64.33448546805235, 55.43073007683347 Q 61.69887843134518, 64.00367350328601, 48.55219435558851, 80.72995184392082 " fill="none" id="curve_1" stroke="#000000" stroke-linecap="round" stroke-linejoin="round" stroke-width="4.331717105796408"/>
  <path d="M 48.55219435558851, 80.72995184392082 Q 43.73238269530425, 85.91609233080476, 40.728694537003754, 96.16811052020849 " fill="none" id="curve_1" stroke="#000000" stroke-linecap="round" stroke-linejoin="round" stroke-width="4.511527486938179"/>
  <path d="M 40.728694537003754, 96.16811052020849 Q 42.064362909735095, 103.21623008731973, 58.656531553480505, 104.10032625061174 " fill="none" id="curve_1" stroke="#000000" stroke-linecap="round" stroke-linejoin="round" stroke-width="3.1234813621804007"/>
  <path d="M 58.656531553480505, 104.10032625061174 Q 68.21643267730273, 103.26879781739244, 76.71842251570742, 102.13560430765557 " fill="none" id="curve_1" stroke="#000000" stroke-linecap="round" stroke-linejoin="round" stroke-width="2.7293909587798155"/>
  <path d="M 76.71842251570742, 102.13560430765557 Q 77.10941724856566, 101.75106835886604, 77.53496871388305, 101.1756357648749 " fill="none" id="curve_1" stroke="#000000" stroke-linecap="round" stroke-linejoin="round" stroke-width="2.396994448326249"/>
  <path d="M 32.30690145234127, 54.33708783308581 Q 36.62780401337548, 49.49677904905784, 46.14807994213875, 44.78899901374245 " fill="none" id="curve_3" stroke="#000000" stroke-linecap="round" stroke-linejoin="round" stroke-width="5.710190218998927"/>
  <path d="M 46.14807994213875, 44.78899901374245 Q 50.27047696303628, 44.363445827943366, 57.98855181539835, 44.056286189966805 " fill="none" id="curve_3" stroke="#000000" stroke-linecap="round" stroke-linejoin="round" stroke-width="4.6017422110008415"/>
  <path d="M 57.98855181539835, 44.056286189966805 Q 61.144454264457714, 45.85764297636711, 62.68617736985316, 49.699466809641336 " fill="none" id="curve_3" stroke="#000000" stroke-linecap="round" stroke-linejoin="round" stroke-width="3.5835812728547287"/>
  <path d="M 40.34237270559419, 45.912709122538445 Q 36.62014859520455, 47.3473729860826, 34.90161090987526, 51.34662974873591 " fill="none" id="curve_4" stroke="#000000" stroke-linecap="round" stroke-linejoin="round" stroke-width="3.2768348577879576"/>
  <path d="M 1.3045212702827058, 65.16253108224622 Q 1.1102562943748115, 68.43954249620106, 0.8282694935705169, 73.37464911134037 " fill="none" id="curve_5" stroke="#000000" stroke-linecap="round" stroke-linejoin="round" stroke-width="1.529015855749811"/>
  <path d="M 0.8282694935705169, 73.37464911134037 Q 0.8414708361096125, 86.88884311716761, 0.8936841734097206, 103.17593887217404 " fill="none" id="curve_5" stroke="#000000" stroke-linecap="round" stroke-linejoin="round" stroke-width="1.4520055358397692"/>
  <path d="M 0.8936841734097206, 103.17593887217404 Q 0.9134830127257688, 116.74107875367463, 0.9729992605442788, 127.66144709306414 " fill="none" id="curve_5" stroke="#000000" stroke-linecap="round" stroke-linejoin="round" stroke-width="1.2996952286982062"/>
  <path d="M 0.9729992605442788, 127.66144709306414 Q 1.1581905290306609, 136.37004433249658, 1.847715645858313, 139.39709259951402 " fill="none" id="curve_5" stroke="#000000" stroke-linecap="round" stroke-linejoin="round" stroke-width="2.708800779442511"/>
  <path d="M 1.847715645858313, 139.39709259951402 Q 2.0815986330273346, 139.04744212805772, 2.419746621187338, 138.55466495760106 " fill="none" id="curve_5" stroke="#000000" stroke-linecap="round" stroke-linejoin="round" stroke-width="1.8180987874225798"/>
  <path d="M 39.846130568054434, 91.19905186859707 Q 40.97641351749103, 89.80929104197813, 42.9597188496495, 88.34199158177931 " fill="none" id="curve_7" stroke="#000000" stroke-linecap="round" stroke-linejoin="round" stroke-width="2.696600610976009"/>
  <path d="M 30.135534310386213, 53.9330393263966 Q 30.39211825667913, 54.713059206407166, 30.973851677152158, 55.47275459263452 " fill="none" id="curve_8" stroke="#000000" stroke-linecap="round" stroke-linejoin="round" stroke-width="2.0746913896071457"/>
  <path d="M 0.8964508371814617, 61.93232236863552 Q 0.9976825291791787, 58.92784769679785, 1.0749532066025642, 48.01899552061973 " fill="none" id="curve_9" stroke="#000000" stroke-linecap="round" stroke-linejoin="round" stroke-width="1.4149156209859295"/>
  <path d="M 1.0749532066025642, 48.01899552061973 Q 1.1037605946557336, 44.98157035679652, 1.1322708041697473, 37.55685715239193 " fill="none" id="curve_9" stroke="#000000" stroke-linecap="round" stroke-linejoin="round" stroke-width="1.3715371612529246"/>
  <path d="M 1.1602954758505828, 26.68497304759667 Q 1.2938820666178539, 26.260116376322323, 1.4533569717142232, 25.274114340462184 " fill="none" id="curve_10" stroke="#000000" stroke-linecap="round" stroke-linejoin="round" stroke-width="1.3371394742840643"/>
  <path d="M 0.9364832121292288, 5.314132927485044 Q 1.0666999376443917, 6.252058807048222, 1.3594415082766464, 8.429903538496365 " fill="none" id="curve_11" stroke="#000000" stroke-linecap="round" stroke-linejoin="round" stroke-width="1.1289603792104306"/>
  <path d="M 1.4467826635728995, 20.100953227275653 Q 1.2290358677276512, 17.67215598242577, 0.8829346168294961, 13.53146344897469 " fill="none" id="curve_12" stroke="#000000" stroke-linecap="round" stroke-linejoin="round" stroke-width="1.4572312003444414"/>
  <path d="M 65.69494620084467, 48.93381226925345 Q 64.91410574431752, 50.26845357426747, 63.26935485500865, 51.58619836816147 " fill="none" id="curve_14" stroke="#000000" stroke-linecap="round" stroke-linejoin="round" stroke-width="3.02258807577596"/>
  <path d="M 52.77647089706942, 103.84426576269794 Q 50.93902906244145, 102.64569893308268, 46.87517188918592, 101.59697140866912 " fill="none" id="curve_30" stroke="#000000" stroke-linecap="round" stroke-linejoin="round" stroke-width="3.0909259906559603"/>
  <path d="M 40.815345287323, 96.24264526367188 Q 42.488126987568876, 96.72763305595598, 43.92097336203574, 98.00957767308002 " fill="none" id="curve_57" stroke="#000000" stroke-linecap="round" stroke-linejoin="round" stroke-width="2.253882716814198"/>
  <path d="M 56.0999886090411, 42.57261955376141 Q 56.23574021196237, 42.40328022819424, 56.427118225493835, 42.109511758542176 " fill="none" id="curve_61" stroke="#000000" stroke-linecap="round" stroke-linejoin="round" stroke-width="2.6786087486975863"/>
  <path d="M 47.10152397749051, 83.59851885560234 Q 48.266423783040814, 82.89982022161006, 49.29074497105198, 81.4876172017855 " fill="none" id="curve_64" stroke="#000000" stroke-linecap="round" stroke-linejoin="round" stroke-width="3.241825273244318"/>
  <path d="M 0.5340180239256824, 35.403408064962946 Q 0.7689571588668961, 33.45407254764127, 0.980961821429962, 28.008767881868042 " fill="none" id="curve_79" stroke="#000000" stroke-linecap="round" stroke-linejoin="round" stroke-width="1.1065942988417954"/>
  <path d="M 0.8341910342870801, 12.10381693969179 Q 0.9947814326754052, 11.417776849173698, 1.2678996274870404, 10.42903314278697 " fill="none" id="curve_80" stroke="#000000" stroke-linecap="round" stroke-linejoin="round" stroke-width="1.3749981284990604"/>
  <path d="M 47.62965266006995, 103.5256949177076 Q 49.98241315571224, 102.71140769570673, 53.047323944380025, 101.77042435964074 " fill="none" id="curve_95" stroke="#000000" stroke-linecap="round" stroke-linejoin="round" stroke-width="2.2404870441437037"/>
  <path d="M 53.53004263929569, 71.84598794017222 Q 53.699430120057286, 71.37221109684843, 54.07366506014456, 70.67384577787661 " fill="none" id="curve_97" stroke="#000000" stroke-linecap="round" stroke-linejoin="round" stroke-width="2.097656905467309"/>
  <path d="M 0.9366015259451652, 3.9190014500190067 Q 0.8993385139491581, 1.93119716178964, 0.7787399420691407, 0.5256830253869098 " fill="none" id="curve_102" stroke="#000000" stroke-linecap="round" stroke-linejoin="round" stroke-width="1.2913914040932708"/>
</svg>
