<?xml version="1.0" ?>
<svg height="140" width="140" xmlns="http://www.w3.org/2000/svg">
  <path d="M 73.8489817443741, 116.31289984357602 Q 62.43063228012974, 117.38730291094333, 49.05784683639779, 118.86513478384141 " fill="none" id="curve_4" stroke="#000000" stroke-linecap="round" stroke-linejoin="round" stroke-width="4.613533404877957"/>
  <path d="M 49.05784683639779, 118.86513478384141 Q 43.55840375136064, 116.62235033657169, 37.98247510882095, 112.4429468958168 " fill="none" id="curve_4" stroke="#000000" stroke-linecap="round" stroke-linejoin="round" stroke-width="3.8730190038672663"/>
  <path d="M 37.98247510882095, 112.4429468958168 Q 42.118763053964614, 102.69842913970729, 51.2835903191418, 72.60223111196595 " fill="none" id="curve_4" stroke="#000000" stroke-linecap="round" stroke-linejoin="round" stroke-width="4.54285783202502"/>
  <path d="M 51.2835903191418, 72.60223111196595 Q 53.66023410060478, 65.8319040257848, 57.27427395217652, 38.195860336824076 " fill="none" id="curve_4" stroke="#000000" stroke-linecap="round" stroke-linejoin="round" stroke-width="4.995520972457188"/>
  <path d="M 57.27427395217652, 38.195860336824076 Q 57.084940574616326, 21.93430155442981, 55.46114955395937, 18.046994399496405 " fill="none" id="curve_4" stroke="#000000" stroke-linecap="round" stroke-linejoin="round" stroke-width="3.60705039532561"/>
  <path d="M 55.46114955395937, 18.046994399496405 Q 54.406506897266844, 14.565318096409298, 49.704000823637834, 13.09259745808167 " fill="none" id="curve_4" stroke="#000000" stroke-linecap="round" stroke-linejoin="round" stroke-width="4.334647705109731"/>
  <path d="M 49.704000823637834, 13.09259745808167 Q 40.1034090783717, 17.51912423482504, 28.39776637411365, 49.909862610769025 " fill="none" id="curve_4" stroke="#000000" stroke-linecap="round" stroke-linejoin="round" stroke-width="4.597492041987854"/>
  <path d="M 28.39776637411365, 49.909862610769025 Q 26.69041666089667, 55.11339439044885, 24.464242887742166, 59.51958547571266 " fill="none" id="curve_4" stroke="#000000" stroke-linecap="round" stroke-linejoin="round" stroke-width="4.314821518170369"/>
  <path d="M 59.69946300548428, 34.4927141490835 Q 59.44762778337332, 16.569770760676146, 49.34773603444973, 13.904887144160515 " fill="none" id="curve_5" stroke="#000000" stroke-linecap="round" stroke-linejoin="round" stroke-width="2.4266199437713576"/>
  <path d="M 49.34773603444973, 13.904887144160515 Q 47.21982056187484, 14.137636309628471, 45.50830240505778, 15.322666768632143 " fill="none" id="curve_5" stroke="#000000" stroke-linecap="round" stroke-linejoin="round" stroke-width="3.131225438268951"/>
  <path d="M 51.34089660644531, 12.996500015258789 Q 52.504172574003604, 16.295845211527983, 55.21569537203402, 19.627224333938557 " fill="none" id="curve_19" stroke="#000000" stroke-linecap="round" stroke-linejoin="round" stroke-width="3.5163744737030402"/>
  <path d="M 55.21569537203402, 19.627224333938557 Q 54.59876375738343, 13.89821416252514, 48.42465296877795, 12.393717049658179 " fill="none" id="curve_19" stroke="#000000" stroke-linecap="round" stroke-linejoin="round" stroke-width="2.770753877462444"/>
  <path d="M 48.42465296877795, 12.393717049658179 Q 42.450187298384414, 15.462899036424238, 37.37422931420271, 25.242759577973686 " fill="none" id="curve_19" stroke="#000000" stroke-linecap="round" stroke-linejoin="round" stroke-width="2.862967139776004"/>
  <path d="M 58.43229991461203, 42.44166817276705 Q 57.604678808839836, 43.47084953465358, 56.651627920869885, 45.9512266865124 " fill="none" id="curve_20" stroke="#000000" stroke-linecap="round" stroke-linejoin="round" stroke-width="2.275330522718995"/>
  <path d="M 70.82755830031049, 114.64971994928973 Q 73.97487256520336, 115.05398112660876, 76.29407991014882, 116.23618950864916 " fill="none" id="curve_22" stroke="#000000" stroke-linecap="round" stroke-linejoin="round" stroke-width="3.1200374747598665"/>
  <path d="M 65.52532092594255, 115.00749488190544 Q 69.97675869356634, 114.9440865994593, 72.8223290606151, 114.77183953595154 " fill="none" id="curve_23" stroke="#000000" stroke-linecap="round" stroke-linejoin="round" stroke-width="2.795329472578908"/>
  <path d="M 44.79563211504387, 95.40655766741351 Q 39.473754583138934, 98.96421550434918, 37.360998749687354, 111.86410473764387 " fill="none" id="curve_29" stroke="#000000" stroke-linecap="round" stroke-linejoin="round" stroke-width="2.768774302283894"/>
  <path d="M 50.318610588952545, 119.57029200616782 Q 58.48291648987208, 118.31910885739119, 64.60959765942414, 115.39799515507526 " fill="none" id="curve_34" stroke="#000000" stroke-linecap="round" stroke-linejoin="round" stroke-width="3.1605584402744187"/>
  <path d="M 46.19638492693727, 89.3616444643306 Q 47.84256363866508, 85.03859325862265, 49.74421519546552, 75.06455767458245 " fill="none" id="curve_35" stroke="#000000" stroke-linecap="round" stroke-linejoin="round" stroke-width="2.6839446075699946"/>
  <path d="M 43.142789965927825, 114.48833163202838 Q 42.22228999966756, 115.73197353903424, 39.59218431000561, 116.60598219721014 " fill="none" id="curve_36" stroke="#000000" stroke-linecap="round" stroke-linejoin="round" stroke-width="4.674000999646263"/>
  <path d="M 36.66540454971069, 30.74098318793727 Q 32.28062276432879, 42.027329880937685, 23.08474597798689, 58.82311294729314 " fill="none" id="curve_54" stroke="#000000" stroke-linecap="round" stroke-linejoin="round" stroke-width="2.304078040838379"/>
  <path d="M 48.663776926182635, 13.447721709100076 Q 50.644089126512334, 14.382968893150109, 53.79123136430867, 16.099503820420118 " fill="none" id="curve_69" stroke="#000000" stroke-linecap="round" stroke-linejoin="round" stroke-width="3.2328159687533513"/>
  <path d="M 50.27239924255462, 76.22713839333194 Q 48.20972794152199, 84.09278683066083, 44.426755284225386, 93.80479929808456 " fill="none" id="curve_72" stroke="#000000" stroke-linecap="round" stroke-linejoin="round" stroke-width="2.627500244767544"/>
  <path d="M 28.332974738220248, 47.42997578508052 Q 31.125950073896824, 43.141685444253284, 35.51620372853917, 36.64896069211351 " fill="none" id="curve_73" stroke="#000000" stroke-linecap="round" stroke-linejoin="round" stroke-width="2.4023773821307897"/>
  <path d="M 46.802890519526954, 81.54271091816031 Q 47.270490485012665, 84.36371139019494, 48.09816876651785, 87.35043532720353 " fill="none" id="curve_114" stroke="#000000" stroke-linecap="round" stroke-linejoin="round" stroke-width="3.0114879240923402"/>
  <path d="M 52.137422851765166, 14.07740877149389 Q 53.25099159904026, 13.990579044485608, 54.39868396400095, 13.767697653658615 " fill="none" id="curve_117" stroke="#000000" stroke-linecap="round" stroke-linejoin="round" stroke-width="2.808328838484434"/>
  <path d="M 30.651902092438448, 41.701437955397516 Q 30.00047403788224, 43.99296313930886, 29.327157781055263, 48.50086934898218 " fill="none" id="curve_119" stroke="#000000" stroke-linecap="round" stroke-linejoin="round" stroke-width="3.0347625656381836"/>
  <path d="M 30.792129112211143, 42.99890106829315 Q 30.580372381807756, 44.50913852326649, 30.020513838311725, 46.751024055111046 " fill="none" id="curve_120" stroke="#000000" stroke-linecap="round" stroke-linejoin="round" stroke-width="2.4683851912836943"/>
  <path d="M 31.735545349790605, 43.068865063569035 Q 30.59999186762953, 43.20596237800663, 29.337646827834167, 43.602704434509114 " fill="none" id="curve_122" stroke="#000000" stroke-linecap="round" stroke-linejoin="round" stroke-width="3.206795317244998"/>
  <path d="M 53.200666176201466, 70.02463878009263 Q 52.39720593237982, 69.41888066576013, 50.271416708708415, 68.52994151442829 " fill="none" id="curve_131" stroke="#000000" stroke-linecap="round" stroke-linejoin="round" stroke-width="3.1837661518493525"/>
  <path d="M 46.747642144308884, 80.08038613759072 Q 48.88223065209725, 79.19295675527798, 51.373860928194404, 77.39161594046348 " fill="none" id="curve_172" stroke="#000000" stroke-linecap="round" stroke-linejoin="round" stroke-width="2.8574772484822253"/>
</svg>
