<?xml version="1.0" ?>
<svg height="140" width="140" xmlns="http://www.w3.org/2000/svg">
  <path d="M 41.64615452289581, 84.25163650512695 Q 41.051826908251414, 82.42051143829167, 37.88302593291516, 81.62635790948508 " fill="none" id="curve_1" stroke="#000000" stroke-linecap="round" stroke-linejoin="round" stroke-width="7.41969069083477"/>
  <path d="M 37.88302593291516, 81.62635790948508 Q 39.4834088114874, 73.15226087970848, 45.88998595331526, 65.16971643116742 " fill="none" id="curve_1" stroke="#000000" stroke-linecap="round" stroke-linejoin="round" stroke-width="5.614392078462235"/>
  <path d="M 45.88998595331526, 65.16971643116742 Q 51.158359209394256, 58.78018701860566, 59.453581628528596, 42.68355702329542 " fill="none" id="curve_1" stroke="#000000" stroke-linecap="round" stroke-linejoin="round" stroke-width="4.793598110621972"/>
  <path d="M 59.453581628528596, 42.68355702329542 Q 59.36178216087395, 32.069258939214706, 57.890729493964706, 30.681339096866814 " fill="none" id="curve_1" stroke="#000000" stroke-linecap="round" stroke-linejoin="round" stroke-width="4.931136861792902"/>
  <path d="M 57.890729493964706, 30.681339096866814 Q 40.17257112828466, 31.599194730522818, 28.577400380219814, 43.79379405665257 " fill="none" id="curve_1" stroke="#000000" stroke-linecap="round" stroke-linejoin="round" stroke-width="4.471443011314654"/>
  <path d="M 28.577400380219814, 43.79379405665257 Q 26.167052344899055, 46.083563025645, 24.645050871081043, 50.987129161898174 " fill="none" id="curve_1" stroke="#000000" stroke-linecap="round" stroke-linejoin="round" stroke-width="3.202668799770315"/>
  <path d="M 40.91883952379274, 85.15715782739076 Q 41.39029852868663, 87.0555236251891, 54.817346166573735, 87.18051629052633 " fill="none" id="curve_2" stroke="#000000" stroke-linecap="round" stroke-linejoin="round" stroke-width="4.913665906807869"/>
  <path d="M 54.817346166573735, 87.18051629052633 Q 62.00157031576763, 86.0641882236399, 67.62267183606983, 84.18761385684297 " fill="none" id="curve_2" stroke="#000000" stroke-linecap="round" stroke-linejoin="round" stroke-width="3.7347322015503486"/>
  <path d="M 42.849597114111155, 85.52213493816592 Q 42.507257090726746, 83.48592863663539, 39.91704033889268, 82.91477316721874 " fill="none" id="curve_4" stroke="#000000" stroke-linecap="round" stroke-linejoin="round" stroke-width="3.3966950494869153"/>
  <path d="M 56.184836289772406, 45.6948174270934 Q 59.32613521828625, 42.637706224386825, 61.21949135413207, 34.25879550396008 " fill="none" id="curve_5" stroke="#000000" stroke-linecap="round" stroke-linejoin="round" stroke-width="2.8480804994351288"/>
  <path d="M 52.43151341077728, 29.10403068231345 Q 43.544420542646186, 30.437567856306792, 36.88669322050424, 36.75940277738759 " fill="none" id="curve_6" stroke="#000000" stroke-linecap="round" stroke-linejoin="round" stroke-width="2.9498506800966044"/>
  <path d="M 61.10210849118166, 40.57465793426368 Q 60.95522161467369, 38.776194190481974, 60.2351796824446, 38.153138101096054 " fill="none" id="curve_8" stroke="#000000" stroke-linecap="round" stroke-linejoin="round" stroke-width="3.196825324938864"/>
  <path d="M 51.157648639090596, 54.78686338355959 Q 51.933760376615204, 53.48257868787204, 52.93959078179255, 51.66399085170323 " fill="none" id="curve_9" stroke="#000000" stroke-linecap="round" stroke-linejoin="round" stroke-width="2.8270590471181656"/>
  <path d="M 46.01031842744806, 85.75702993554165 Q 46.41853649736131, 86.56760612190601, 52.404392182677526, 86.73342548044224 " fill="none" id="curve_10" stroke="#000000" stroke-linecap="round" stroke-linejoin="round" stroke-width="3.5753143043998517"/>
  <path d="M 52.404392182677526, 86.73342548044224 Q 54.613451056311376, 86.54149973747104, 57.27893142037934, 86.2736160889491 " fill="none" id="curve_10" stroke="#000000" stroke-linecap="round" stroke-linejoin="round" stroke-width="4.073464277934001"/>
  <path d="M 44.60409046855564, 87.5956755316312 Q 44.87760880110733, 87.80927129266132, 45.41018132568216, 88.02509971330069 " fill="none" id="curve_25" stroke="#000000" stroke-linecap="round" stroke-linejoin="round" stroke-width="3.534221250676362"/>
  <path d="M 57.380386137561764, 44.0696941875321 Q 57.83308014422349, 40.22481401470267, 60.067818710353556, 37.87716047721064 " fill="none" id="curve_27" stroke="#000000" stroke-linecap="round" stroke-linejoin="round" stroke-width="2.8568545990133627"/>
  <path d="M 89.86675275672641, 1.5043250599355815 Q 89.90709515875264, 1.7038863139022338, 89.98427900483507, 2.0370519984267634 " fill="none" id="curve_42" stroke="#000000" stroke-linecap="round" stroke-linejoin="round" stroke-width="1.7931935647379746"/>
  <path d="M 40.59384567223952, 82.5074538054721 Q 41.93105216182803, 85.8092880793793, 48.97617801488636, 87.26015605288525 " fill="none" id="curve_48" stroke="#000000" stroke-linecap="round" stroke-linejoin="round" stroke-width="2.561107180571732"/>
  <path d="M 51.56213706085557, 87.40770912891888 Q 48.831090171118156, 86.21206377967786, 42.59215411516921, 85.2100906144343 " fill="none" id="curve_64" stroke="#000000" stroke-linecap="round" stroke-linejoin="round" stroke-width="3.729709169862543"/>
  <path d="M 52.6664031364387, 86.75120617804629 Q 47.82184911477677, 85.96324709779229, 42.70286756837343, 84.51063805852341 " fill="none" id="curve_131" stroke="#000000" stroke-linecap="round" stroke-linejoin="round" stroke-width="3.08546500922612"/>
  <path d="M 24.00427973361684, 50.867242974081364 Q 24.107955837955984, 51.23274177595393, 24.277592595396726, 51.864759671079526 " fill="none" id="curve_146" stroke="#000000" stroke-linecap="round" stroke-linejoin="round" stroke-width="2.2769496745620454"/>
</svg>
