<?xml version="1.0" ?>
<svg height="140" width="140" xmlns="http://www.w3.org/2000/svg">
  <path d="M 66.79318618774414, 43.514119148254395 Q 65.63325228219456, 47.769778587193855, 63.10218932660476, 54.817780321660166 " fill="none" id="curve_1" stroke="#000000" stroke-linecap="round" stroke-linejoin="round" stroke-width="6.706479484935162"/>
  <path d="M 63.10218932660476, 54.817780321660166 Q 58.33362718468794, 61.05770287327999, 44.71360674020432, 77.38711094733935 " fill="none" id="curve_1" stroke="#000000" stroke-linecap="round" stroke-linejoin="round" stroke-width="5.106207760736589"/>
  <path d="M 44.71360674020432, 77.38711094733935 Q 41.195941781882304, 82.52306815514116, 37.72319040981429, 87.67208601578508 " fill="none" id="curve_1" stroke="#000000" stroke-linecap="round" stroke-linejoin="round" stroke-width="5.346383347318586"/>
  <path d="M 37.72319040981429, 87.67208601578508 Q 39.40088722798108, 98.227771330308, 52.904638321779686, 99.96095150087717 " fill="none" id="curve_1" stroke="#000000" stroke-linecap="round" stroke-linejoin="round" stroke-width="5.9033248467743995"/>
  <path d="M 52.904638321779686, 99.96095150087717 Q 70.05662367453985, 99.60003460819452, 84.39018154564185, 98.85084360241818 " fill="none" id="curve_1" stroke="#000000" stroke-linecap="round" stroke-linejoin="round" stroke-width="4.4656341388712"/>
  <path d="M 84.39018154564185, 98.85084360241818 Q 86.00209274802552, 98.95229238089038, 86.93938255169718, 99.23597925626437 " fill="none" id="curve_1" stroke="#000000" stroke-linecap="round" stroke-linejoin="round" stroke-width="3.281552070103299"/>
  <path d="M 64.51814133182872, 42.62630977753914 Q 46.27221469971179, 42.6777641163793, 43.19735518320189, 43.65675444267605 " fill="none" id="curve_3" stroke="#000000" stroke-linecap="round" stroke-linejoin="round" stroke-width="3.851700822948589"/>
  <path d="M 43.19735518320189, 43.65675444267605 Q 31.018212849931817, 44.923532034763205, 26.327120111157488, 53.60808352957204 " fill="none" id="curve_3" stroke="#000000" stroke-linecap="round" stroke-linejoin="round" stroke-width="3.193203438048374"/>
  <path d="M 64.89049281577518, 48.89605675116489 Q 64.52272927572837, 46.328818059450676, 63.743531862371846, 44.5767784024676 " fill="none" id="curve_5" stroke="#000000" stroke-linecap="round" stroke-linejoin="round" stroke-width="6.5625045871199"/>
  <path d="M 63.743531862371846, 44.5767784024676 Q 66.5373700674486, 45.1196541465981, 67.49792637246173, 47.929608169079714 " fill="none" id="curve_5" stroke="#000000" stroke-linecap="round" stroke-linejoin="round" stroke-width="2.786748807851096"/>
  <path d="M 49.01497498851942, 69.39439640107929 Q 54.326985164282895, 65.8123635665034, 59.16720847985527, 58.6414223508292 " fill="none" id="curve_6" stroke="#000000" stroke-linecap="round" stroke-linejoin="round" stroke-width="2.7787377932195625"/>
  <path d="M 62.59534923073336, 44.149030792589585 Q 62.402130952975725, 41.659729866945675, 53.48207274927216, 41.47366904120842 " fill="none" id="curve_7" stroke="#000000" stroke-linecap="round" stroke-linejoin="round" stroke-width="2.823799466718383"/>
  <path d="M 53.48207274927216, 41.47366904120842 Q 50.56105702887807, 41.65938814722595, 47.425531614051785, 42.02627993575644 " fill="none" id="curve_7" stroke="#000000" stroke-linecap="round" stroke-linejoin="round" stroke-width="2.890358182431363"/>
  <path d="M 68.06862169032595, 48.08475290314435 Q 62.517874371269876, 55.05343901490818, 52.020689426849515, 64.27209525737634 " fill="none" id="curve_8" stroke="#000000" stroke-linecap="round" stroke-linejoin="round" stroke-width="3.090623391252777"/>
  <path d="M 66.14709645861026, 97.74020476452728 Q 71.7312148730281, 97.80757632106344, 76.1689714685203, 97.94449583602893 " fill="none" id="curve_9" stroke="#000000" stroke-linecap="round" stroke-linejoin="round" stroke-width="2.640381801072059"/>
  <path d="M 49.05793743541146, 98.25228489317753 Q 44.5566183085609, 95.90121211320466, 38.44909107258431, 92.50388594728255 " fill="none" id="curve_10" stroke="#000000" stroke-linecap="round" stroke-linejoin="round" stroke-width="3.217174743339242"/>
  <path d="M 36.93451276900959, 84.46397410240296 Q 38.756399568515285, 86.5081187661551, 40.327514472810314, 92.10178980407746 " fill="none" id="curve_11" stroke="#000000" stroke-linecap="round" stroke-linejoin="round" stroke-width="2.9892070932304744"/>
  <path d="M 63.03887844657729, 42.23974969157719 Q 63.15745588367549, 41.95000525405253, 63.377670841290296, 41.61010590823296 " fill="none" id="curve_13" stroke="#000000" stroke-linecap="round" stroke-linejoin="round" stroke-width="4.052522891406858"/>
  <path d="M 62.170986108271876, 53.39013507466894 Q 61.64392049445473, 54.044099395142645, 60.92103541975279, 55.473717784046144 " fill="none" id="curve_23" stroke="#000000" stroke-linecap="round" stroke-linejoin="round" stroke-width="3.8464842281248064"/>
  <path d="M 32.135330445168435, 45.63111550755896 Q 28.76267359453244, 49.34816801228769, 25.238550996413103, 55.137592142920134 " fill="none" id="curve_32" stroke="#000000" stroke-linecap="round" stroke-linejoin="round" stroke-width="1.8516385258431252"/>
  <path d="M 63.79305386293746, 52.959655282183746 Q 63.92371028100145, 51.8584379314844, 64.31066509248959, 51.340350163418854 " fill="none" id="curve_34" stroke="#000000" stroke-linecap="round" stroke-linejoin="round" stroke-width="6.201969670237881"/>
  <path d="M 38.82852109823827, 96.59636088419225 Q 40.28479576152387, 95.35956403513711, 42.27225690981081, 93.54250915302066 " fill="none" id="curve_42" stroke="#000000" stroke-linecap="round" stroke-linejoin="round" stroke-width="4.15716594609586"/>
  <path d="M 64.54741238028004, 97.98774084131274 Q 64.47232000342635, 97.73754622704651, 64.3715197203933, 97.4038207570486 " fill="none" id="curve_57" stroke="#000000" stroke-linecap="round" stroke-linejoin="round" stroke-width="3.6361981456553227"/>
  <path d="M 64.6086137310719, 53.371631777245305 Q 65.1656181361032, 52.80119350673097, 65.95797002648538, 51.74172609713306 " fill="none" id="curve_67" stroke="#000000" stroke-linecap="round" stroke-linejoin="round" stroke-width="2.958806833456869"/>
</svg>
