<?xml version="1.0" ?>
<svg height="140" width="140" xmlns="http://www.w3.org/2000/svg">
  <path d="M 48.278276443481445, 49.69089126586914 Q 48.174522125109995, 49.20663233319224, 45.5399499767077, 49.12057460487557 " fill="none" id="curve_1" stroke="#000000" stroke-linecap="round" stroke-linejoin="round" stroke-width="11.590167493384973"/>
  <path d="M 45.5399499767077, 49.12057460487557 Q 33.971508807410615, 49.89876591698812, 31.701181544700027, 59.83726585660741 " fill="none" id="curve_1" stroke="#000000" stroke-linecap="round" stroke-linejoin="round" stroke-width="8.275330345209865"/>
  <path d="M 31.701181544700027, 59.83726585660741 Q 31.98291105065187, 62.59655184192004, 35.85627576118755, 63.10225099106066 " fill="none" id="curve_1" stroke="#000000" stroke-linecap="round" stroke-linejoin="round" stroke-width="9.309954192814946"/>
  <path d="M 53.2656561048675, 49.820070226155494 Q 52.39832816251861, 71.08408034837052, 43.21642410470804, 85.57653745457947 " fill="none" id="curve_2" stroke="#000000" stroke-linecap="round" stroke-linejoin="round" stroke-width="7.344302225813057"/>
  <path d="M 43.21642410470804, 85.57653745457947 Q 41.73870676478685, 90.28841287043505, 41.06708153949443, 104.80121821273572 " fill="none" id="curve_2" stroke="#000000" stroke-linecap="round" stroke-linejoin="round" stroke-width="7.695053726447287"/>
  <path d="M 41.06708153949443, 104.80121821273572 Q 67.23773709420982, 104.62194479950391, 76.14566536824105, 103.64593611613846 " fill="none" id="curve_2" stroke="#000000" stroke-linecap="round" stroke-linejoin="round" stroke-width="5.861937320669231"/>
  <path d="M 53.42458973921461, 64.17955481845212 Q 53.334303565386165, 57.37062030112188, 52.797730507432554, 55.525966388417004 " fill="none" id="curve_3" stroke="#000000" stroke-linecap="round" stroke-linejoin="round" stroke-width="6.016380833011935"/>
  <path d="M 52.797730507432554, 55.525966388417004 Q 54.069037351118375, 56.666371479076034, 54.62780344687016, 62.19234300194124 " fill="none" id="curve_3" stroke="#000000" stroke-linecap="round" stroke-linejoin="round" stroke-width="4.665759900913894"/>
  <path d="M 38.52590970656716, 91.0317477991986 Q 39.16498688404192, 104.5198411128144, 48.19622096281489, 106.49918262817285 " fill="none" id="curve_7" stroke="#000000" stroke-linecap="round" stroke-linejoin="round" stroke-width="4.370954481638341"/>
  <path d="M 48.19622096281489, 106.49918262817285 Q 48.25477816663083, 107.22609314307661, 49.96286018479017, 107.29714513684726 " fill="none" id="curve_7" stroke="#000000" stroke-linecap="round" stroke-linejoin="round" stroke-width="4.88272328389958"/>
  <path d="M 49.96286018479017, 107.29714513684726 Q 41.97573193858541, 106.7375681134525, 39.72690344058499, 102.0076573515172 " fill="none" id="curve_7" stroke="#000000" stroke-linecap="round" stroke-linejoin="round" stroke-width="4.978424244742128"/>
  <path d="M 37.51891051668946, 60.19148549747385 Q 38.484804060451424, 60.0470271276775, 38.65013792821709, 57.04509585499523 " fill="none" id="curve_8" stroke="#000000" stroke-linecap="round" stroke-linejoin="round" stroke-width="4.5135894759601465"/>
  <path d="M 50.50496361627279, 51.53586471235111 Q 50.76629911256748, 62.948557289028614, 51.78868783118988, 67.99173712243511 " fill="none" id="curve_9" stroke="#000000" stroke-linecap="round" stroke-linejoin="round" stroke-width="4.647631754359654"/>
  <path d="M 51.78868783118988, 67.99173712243511 Q 46.55816495846604, 74.012033276554, 41.274325800405755, 84.41924493278978 " fill="none" id="curve_9" stroke="#000000" stroke-linecap="round" stroke-linejoin="round" stroke-width="3.299973038066649"/>
  <path d="M 64.66015998361898, 102.68089304573942 Q 64.58250576388296, 102.86799896057765, 64.46873790739501, 103.1990794684243 " fill="none" id="curve_10" stroke="#000000" stroke-linecap="round" stroke-linejoin="round" stroke-width="4.2740759202371645"/>
  <path d="M 64.46873790739501, 103.1990794684243 Q 58.57919758209778, 103.37317722397059, 45.63651026459904, 103.67221253801348 " fill="none" id="curve_10" stroke="#000000" stroke-linecap="round" stroke-linejoin="round" stroke-width="3.5475037436776526"/>
  <path d="M 38.67620215695426, 97.87113125138512 Q 38.776092620517225, 98.37113995732051, 38.85001216131911, 99.9724406972117 " fill="none" id="curve_17" stroke="#000000" stroke-linecap="round" stroke-linejoin="round" stroke-width="6.5598796436212865"/>
  <path d="M 53.569773523970206, 57.099314360662746 Q 52.94888563254517, 54.42155755893201, 51.50946932992701, 49.85214150387869 " fill="none" id="curve_25" stroke="#000000" stroke-linecap="round" stroke-linejoin="round" stroke-width="4.573303305336589"/>
  <path d="M 47.42337350441304, 77.70411892902665 Q 52.036481874226226, 72.16083820888211, 55.828769800067036, 52.71863174505825 " fill="none" id="curve_27" stroke="#000000" stroke-linecap="round" stroke-linejoin="round" stroke-width="3.3901347411978295"/>
  <path d="M 55.439802583480514, 58.50050827329866 Q 54.894543305323225, 56.88914705534616, 51.54378847389052, 55.98833962948724 " fill="none" id="curve_30" stroke="#000000" stroke-linecap="round" stroke-linejoin="round" stroke-width="3.826483788630876"/>
  <path d="M 51.54378847389052, 55.98833962948724 Q 54.155400063632705, 56.6975542398711, 56.44713530146797, 58.305020050253184 " fill="none" id="curve_30" stroke="#000000" stroke-linecap="round" stroke-linejoin="round" stroke-width="3.122417886133976"/>
  <path d="M 54.28082193009368, 107.83542095435564 Q 55.83620161101665, 104.25775250876003, 64.77719168183887, 102.15989679039807 " fill="none" id="curve_45" stroke="#000000" stroke-linecap="round" stroke-linejoin="round" stroke-width="3.2718828742021273"/>
  <path d="M 48.669462941283626, 48.43547858721395 Q 49.472937618826045, 47.668421377034164, 50.79725418765464, 46.61296644022778 " fill="none" id="curve_48" stroke="#000000" stroke-linecap="round" stroke-linejoin="round" stroke-width="4.322939304159035"/>
  <path d="M 47.01203985390513, 108.0014453194863 Q 45.0383620985489, 108.09246377387903, 43.565707666787546, 108.34000599176119 " fill="none" id="curve_54" stroke="#000000" stroke-linecap="round" stroke-linejoin="round" stroke-width="3.276505248643321"/>
  <path d="M 46.096691866937846, 80.09893749035426 Q 50.36653179439701, 74.66332842980819, 54.187099249946456, 63.03897987155488 " fill="none" id="curve_61" stroke="#000000" stroke-linecap="round" stroke-linejoin="round" stroke-width="4.131448280511376"/>
  <path d="M 45.441653724900796, 52.471391214330765 Q 46.97569609079427, 55.56584720998419, 53.27676635257289, 56.669735553314624 " fill="none" id="curve_68" stroke="#000000" stroke-linecap="round" stroke-linejoin="round" stroke-width="3.4567288181792537"/>
  <path d="M 53.27676635257289, 56.669735553314624 Q 50.48740897853154, 64.89580920455755, 47.50975635715474, 75.77135770700238 " fill="none" id="curve_68" stroke="#000000" stroke-linecap="round" stroke-linejoin="round" stroke-width="4.097530912941957"/>
  <path d="M 70.99577830419857, 102.62725696116587 Q 68.19500603220006, 102.49828462375235, 62.64995462976472, 102.3183715366153 " fill="none" id="curve_71" stroke="#000000" stroke-linecap="round" stroke-linejoin="round" stroke-width="3.2729433206946372"/>
  <path d="M 46.42089392459319, 79.54265171862714 Q 49.76223171369721, 72.64010074624734, 54.60104612671993, 61.24780425567446 " fill="none" id="curve_73" stroke="#000000" stroke-linecap="round" stroke-linejoin="round" stroke-width="3.3512917182919684"/>
  <path d="M 45.15386125600678, 82.77237727300766 Q 49.17692475657571, 74.4944011820099, 55.0898928381754, 58.88813404767226 " fill="none" id="curve_82" stroke="#000000" stroke-linecap="round" stroke-linejoin="round" stroke-width="3.157803205874603"/>
  <path d="M 49.04620592074017, 103.69370890770377 Q 45.388798878487606, 100.60168323674827, 38.78142280088586, 97.20925136112179 " fill="none" id="curve_98" stroke="#000000" stroke-linecap="round" stroke-linejoin="round" stroke-width="3.3740328522642966"/>
</svg>
