<?xml version="1.0" ?>
<svg height="140" width="140" xmlns="http://www.w3.org/2000/svg">
  <path d="M 46.856197357177734, 51.69671058654785 Q 37.28917025530248, 51.765683942128696, 35.1335586878256, 55.43094382996401 " fill="none" id="curve_1" stroke="#000000" stroke-linecap="round" stroke-linejoin="round" stroke-width="4.1322852838430135"/>
  <path d="M 35.1335586878256, 55.43094382996401 Q 31.64613780694561, 61.540397021801056, 28.668206479804226, 72.27000327401169 " fill="none" id="curve_1" stroke="#000000" stroke-linecap="round" stroke-linejoin="round" stroke-width="3.375587370302834"/>
  <path d="M 51.2500112044449, 53.58655332138513 Q 55.5582386126768, 54.91016268376951, 56.01324430908613, 72.0154008004465 " fill="none" id="curve_2" stroke="#000000" stroke-linecap="round" stroke-linejoin="round" stroke-width="4.422981551611153"/>
  <path d="M 56.01324430908613, 72.0154008004465 Q 54.95542454942952, 90.68015044664676, 35.74276095508782, 100.44182276138399 " fill="none" id="curve_2" stroke="#000000" stroke-linecap="round" stroke-linejoin="round" stroke-width="4.553358625690835"/>
  <path d="M 35.74276095508782, 100.44182276138399 Q 38.18897910165991, 102.3250265620406, 62.35383124746539, 102.72447840073494 " fill="none" id="curve_2" stroke="#000000" stroke-linecap="round" stroke-linejoin="round" stroke-width="4.679970795117972"/>
  <path d="M 62.35383124746539, 102.72447840073494 Q 63.11986268386454, 102.22589834064998, 63.89907536087009, 101.52721082276585 " fill="none" id="curve_2" stroke="#000000" stroke-linecap="round" stroke-linejoin="round" stroke-width="3.5713994647255523"/>
  <path d="M 54.83643262800797, 61.25313495537588 Q 53.28877984960106, 53.55460181872245, 43.897938572668295, 49.687448547238986 " fill="none" id="curve_3" stroke="#000000" stroke-linecap="round" stroke-linejoin="round" stroke-width="4.113888985766703"/>
  <path d="M 43.897938572668295, 49.687448547238986 Q 38.44075808207115, 50.13545888382514, 37.09601979516324, 53.16099652767955 " fill="none" id="curve_3" stroke="#000000" stroke-linecap="round" stroke-linejoin="round" stroke-width="3.066727441699776"/>
  <path d="M 47.613142340209286, 49.96904847053275 Q 51.538018080242395, 53.5643232379938, 54.09165988595229, 63.05337256247506 " fill="none" id="curve_4" stroke="#000000" stroke-linecap="round" stroke-linejoin="round" stroke-width="2.385445606543195"/>
  <path d="M 48.40024472286717, 89.36859032185058 Q 41.968241808115266, 90.18951715108457, 41.2093970562356, 99.4957950188469 " fill="none" id="curve_5" stroke="#000000" stroke-linecap="round" stroke-linejoin="round" stroke-width="3.311349983598044"/>
  <path d="M 41.2093970562356, 99.4957950188469 Q 46.07839396916034, 101.7624334226715, 50.65970681099551, 104.08258736011271 " fill="none" id="curve_5" stroke="#000000" stroke-linecap="round" stroke-linejoin="round" stroke-width="3.4874318328834897"/>
  <path d="M 53.307894989914956, 81.34746665137098 Q 54.58235766886033, 77.43778399337072, 55.35131396532822, 64.8773840349822 " fill="none" id="curve_6" stroke="#000000" stroke-linecap="round" stroke-linejoin="round" stroke-width="2.6929281403137657"/>
  <path d="M 29.823472169277967, 71.01284892115241 Q 27.977018228662686, 71.58236746106644, 26.413741263297677, 72.55813959546526 " fill="none" id="curve_7" stroke="#000000" stroke-linecap="round" stroke-linejoin="round" stroke-width="2.649890198580044"/>
  <path d="M 45.108904777444, 101.94728164149683 Q 47.10148584001809, 102.83748255190388, 50.49419169721755, 103.55543108672863 " fill="none" id="curve_8" stroke="#000000" stroke-linecap="round" stroke-linejoin="round" stroke-width="3.4042752491484265"/>
  <path d="M 50.49419169721755, 103.55543108672863 Q 47.44026569057584, 101.93948194480775, 41.89908647917255, 100.45002167952545 " fill="none" id="curve_8" stroke="#000000" stroke-linecap="round" stroke-linejoin="round" stroke-width="2.8975456803465782"/>
  <path d="M 50.156616800936106, 52.379033722656835 Q 51.81157050514553, 53.186051632756225, 53.7267280690114, 54.55505768896712 " fill="none" id="curve_10" stroke="#000000" stroke-linecap="round" stroke-linejoin="round" stroke-width="2.9393308581199142"/>
  <path d="M 50.71541660980711, 87.56017842924044 Q 50.833712463703364, 86.3314630049245, 51.03387807402968, 84.58744054894323 " fill="none" id="curve_64" stroke="#000000" stroke-linecap="round" stroke-linejoin="round" stroke-width="3.408435767659512"/>
  <path d="M 28.745832395726282, 66.89444771431643 Q 29.76763573829822, 64.3328739350518, 32.06604770845558, 61.221283912741214 " fill="none" id="curve_88" stroke="#000000" stroke-linecap="round" stroke-linejoin="round" stroke-width="2.24242567102006"/>
</svg>
