<?xml version="1.0" ?>
<svg height="140" width="140" xmlns="http://www.w3.org/2000/svg">
  <path d="M 55.140506744384766, 62.49535942077637 Q 56.419672838526125, 60.458884254900276, 57.82393259907234, 56.66999631807835 " fill="none" id="curve_1" stroke="#000000" stroke-linecap="round" stroke-linejoin="round" stroke-width="7.166087564069514"/>
  <path d="M 57.82393259907234, 56.66999631807835 Q 57.597544840889555, 44.910108830442994, 46.26827778597554, 43.467013974587125 " fill="none" id="curve_1" stroke="#000000" stroke-linecap="round" stroke-linejoin="round" stroke-width="4.9731326475844995"/>
  <path d="M 46.26827778597554, 43.467013974587125 Q 44.04642218413275, 42.16129331725629, 32.23047583052749, 41.68909824738297 " fill="none" id="curve_1" stroke="#000000" stroke-linecap="round" stroke-linejoin="round" stroke-width="5.676738242844348"/>
  <path d="M 32.23047583052749, 41.68909824738297 Q 25.832471986297094, 43.225088683194656, 23.896628722523523, 48.42892851888439 " fill="none" id="curve_1" stroke="#000000" stroke-linecap="round" stroke-linejoin="round" stroke-width="5.604653108007448"/>
  <path d="M 55.80471582022507, 63.026156713874386 Q 50.99442797728092, 72.18093296114195, 26.74366407445404, 89.96887586113263 " fill="none" id="curve_2" stroke="#000000" stroke-linecap="round" stroke-linejoin="round" stroke-width="5.816870414012402"/>
  <path d="M 26.74366407445404, 89.96887586113263 Q 25.696981348163483, 91.89524806102894, 25.30562753164289, 100.10800386068385 " fill="none" id="curve_2" stroke="#000000" stroke-linecap="round" stroke-linejoin="round" stroke-width="5.41346696681061"/>
  <path d="M 25.30562753164289, 100.10800386068385 Q 26.95964108354493, 103.52517822589722, 46.017298434834245, 103.96099902926386 " fill="none" id="curve_2" stroke="#000000" stroke-linecap="round" stroke-linejoin="round" stroke-width="4.404251509731384"/>
  <path d="M 41.12555835970103, 76.47728864569764 Q 49.28244821504416, 71.35045958067785, 58.42172325834498, 60.51494354814868 " fill="none" id="curve_3" stroke="#000000" stroke-linecap="round" stroke-linejoin="round" stroke-width="3.642661932679256"/>
  <path d="M 89.83277610953823, 62.72437727411972 Q 89.745795700493, 79.87806680616238, 89.19867525541191, 97.88456807789791 " fill="none" id="curve_4" stroke="#000000" stroke-linecap="round" stroke-linejoin="round" stroke-width="1.9868478387016608"/>
  <path d="M 89.19867525541191, 97.88456807789791 Q 89.46505276890181, 102.76206950081925, 89.8472959910326, 129.10350086318294 " fill="none" id="curve_4" stroke="#000000" stroke-linecap="round" stroke-linejoin="round" stroke-width="1.6078691457046712"/>
  <path d="M 89.8472959910326, 129.10350086318294 Q 89.66274607176507, 135.93084702430497, 89.15501549633227, 139.5444079729526 " fill="none" id="curve_4" stroke="#000000" stroke-linecap="round" stroke-linejoin="round" stroke-width="2.336074565308539"/>
  <path d="M 88.84612657102777, 95.78750651859545 Q 89.63824224884074, 94.74235108309867, 89.92106480815718, 88.33386474154628 " fill="none" id="curve_6" stroke="#000000" stroke-linecap="round" stroke-linejoin="round" stroke-width="1.1010056957592316"/>
  <path d="M 90.00070609826403, 61.48072748543171 Q 89.57126950048443, 61.27514405949483, 89.5378499036844, 50.78660386201626 " fill="none" id="curve_8" stroke="#000000" stroke-linecap="round" stroke-linejoin="round" stroke-width="1.504192421429042"/>
  <path d="M 89.5378499036844, 50.78660386201626 Q 89.52826969972735, 46.99414268617378, 89.51110338291183, 38.278977328507956 " fill="none" id="curve_8" stroke="#000000" stroke-linecap="round" stroke-linejoin="round" stroke-width="1.410179253084114"/>
  <path d="M 89.51110338291183, 38.278977328507956 Q 89.51665190560335, 34.13637272955933, 89.52849924994662, 24.95188897248989 " fill="none" id="curve_8" stroke="#000000" stroke-linecap="round" stroke-linejoin="round" stroke-width="1.4591380774256695"/>
  <path d="M 89.52849924994662, 24.95188897248989 Q 89.52761013240966, 21.354508214977507, 89.52607765502326, 11.543769770829734 " fill="none" id="curve_8" stroke="#000000" stroke-linecap="round" stroke-linejoin="round" stroke-width="1.4606145491082985"/>
  <path d="M 89.52607765502326, 11.543769770829734 Q 89.19773248525856, 6.052747837812156, 88.28879955119481, 1.4171952545333468 " fill="none" id="curve_8" stroke="#000000" stroke-linecap="round" stroke-linejoin="round" stroke-width="3.1016547995877555"/>
  <path d="M 88.28879955119481, 1.4171952545333468 Q 87.06174903839091, 1.361618213426507, 85.62942235762958, 1.294339796435815 " fill="none" id="curve_8" stroke="#000000" stroke-linecap="round" stroke-linejoin="round" stroke-width="1.834496847012831"/>
  <path d="M 32.49837036600757, 83.86946567259875 Q 32.664746512304184, 83.16933344014178, 33.027082043642004, 82.00886559731273 " fill="none" id="curve_15" stroke="#000000" stroke-linecap="round" stroke-linejoin="round" stroke-width="3.311181565232203"/>
  <path d="M 56.394959809931066, 63.34189459700584 Q 50.659117850741694, 72.12940946298556, 35.239488139722056, 80.81507564791295 " fill="none" id="curve_16" stroke="#000000" stroke-linecap="round" stroke-linejoin="round" stroke-width="3.7525911466229727"/>
  <path d="M 52.9464498864241, 49.223360083119886 Q 51.11887886697598, 47.45599380124461, 48.04358615008738, 44.73010616317756 " fill="none" id="curve_17" stroke="#000000" stroke-linecap="round" stroke-linejoin="round" stroke-width="3.666703993336596"/>
  <path d="M 51.77752878446392, 71.05249410996913 Q 44.608585042197, 72.78233183686184, 37.58558541777743, 78.4001099910244 " fill="none" id="curve_18" stroke="#000000" stroke-linecap="round" stroke-linejoin="round" stroke-width="3.5189167667802694"/>
  <path d="M 57.86925596913487, 61.90995247827438 Q 51.28426536774272, 65.78923734582382, 44.831427854081774, 76.2606581383661 " fill="none" id="curve_19" stroke="#000000" stroke-linecap="round" stroke-linejoin="round" stroke-width="3.0001472885091465"/>
  <path d="M 33.41188863801656, 84.7730130911439 Q 27.964609446007643, 88.24561608226746, 23.74325686821406, 98.10548379664783 " fill="none" id="curve_23" stroke="#000000" stroke-linecap="round" stroke-linejoin="round" stroke-width="2.9361810585486077"/>
  <path d="M 30.667390654709216, 82.76515397337792 Q 29.944959814347328, 89.16392762605265, 27.540468403110918, 92.68536596455981 " fill="none" id="curve_25" stroke="#000000" stroke-linecap="round" stroke-linejoin="round" stroke-width="3.030139988580021"/>
  <path d="M 27.19766330331177, 99.84489521671281 Q 30.50585582413633, 100.57772099651679, 32.362823075806276, 102.6515273893241 " fill="none" id="curve_26" stroke="#000000" stroke-linecap="round" stroke-linejoin="round" stroke-width="2.2637042435445496"/>
  <path d="M 55.09561729040536, 61.74522176205072 Q 54.834344510159355, 61.733943613772844, 54.504447916273016, 61.71102007117292 " fill="none" id="curve_29" stroke="#000000" stroke-linecap="round" stroke-linejoin="round" stroke-width="3.0004609975776177"/>
  <path d="M 39.46453006702796, 41.52576708262169 Q 38.31223634927964, 41.266116430949225, 34.79860192069761, 40.94846457067801 " fill="none" id="curve_32" stroke="#000000" stroke-linecap="round" stroke-linejoin="round" stroke-width="2.879658169483692"/>
  <path d="M 29.755135503740014, 103.76323261406657 Q 29.569839859971204, 103.7035774387592, 29.284545543921556, 103.58822490072671 " fill="none" id="curve_88" stroke="#000000" stroke-linecap="round" stroke-linejoin="round" stroke-width="3.4560198775545046"/>
  <path d="M 30.980471858197006, 86.17295092304994 Q 30.832010593363325, 85.30722914877023, 30.332549897640355, 84.2563124690137 " fill="none" id="curve_116" stroke="#000000" stroke-linecap="round" stroke-linejoin="round" stroke-width="2.7814569202717525"/>
</svg>
