<?xml version="1.0" ?>
<svg height="140" width="140" xmlns="http://www.w3.org/2000/svg">
  <path d="M 68.0832055235675, 88.9216020386362 Q 62.68881720631422, 90.68871581669136, 38.538645067180326, 92.5234731383691 " fill="none" id="curve_3" stroke="#000000" stroke-linecap="round" stroke-linejoin="round" stroke-width="5.204219746993168"/>
  <path d="M 38.538645067180326, 92.5234731383691 Q 35.7499960715133, 93.56642597571062, 12.171074675704965, 93.77990164085732 " fill="none" id="curve_3" stroke="#000000" stroke-linecap="round" stroke-linejoin="round" stroke-width="3.955289839538836"/>
  <path d="M 12.171074675704965, 93.77990164085732 Q 18.532389959508926, 83.23277744510531, 42.077122766710104, 65.39361293571154 " fill="none" id="curve_3" stroke="#000000" stroke-linecap="round" stroke-linejoin="round" stroke-width="4.150635223483999"/>
  <path d="M 42.077122766710104, 65.39361293571154 Q 49.23530705913382, 57.58402424604915, 58.106943097794016, 42.739013967070434 " fill="none" id="curve_3" stroke="#000000" stroke-linecap="round" stroke-linejoin="round" stroke-width="4.328609370732987"/>
  <path d="M 58.106943097794016, 42.739013967070434 Q 58.02755215968525, 24.18208635372301, 48.95471118536042, 23.56839328923924 " fill="none" id="curve_3" stroke="#000000" stroke-linecap="round" stroke-linejoin="round" stroke-width="5.07109205322252"/>
  <path d="M 48.95471118536042, 23.56839328923924 Q 32.286619718449145, 24.926318363330086, 15.223184650510518, 35.5911021808436 " fill="none" id="curve_3" stroke="#000000" stroke-linecap="round" stroke-linejoin="round" stroke-width="4.288085638551204"/>
  <path d="M 15.223184650510518, 35.5911021808436 Q 13.467454443647705, 38.51866509623245, 12.34477647347925, 43.86204193087303 " fill="none" id="curve_3" stroke="#000000" stroke-linecap="round" stroke-linejoin="round" stroke-width="3.823170348707818"/>
  <path d="M 17.358136345278343, 84.21113239833849 Q 14.13705604041483, 86.81320460941858, 11.468762382370524, 90.62088319674154 " fill="none" id="curve_6" stroke="#000000" stroke-linecap="round" stroke-linejoin="round" stroke-width="3.9919694999235933"/>
  <path d="M 31.564359198260142, 74.62444341658355 Q 39.087575153346, 69.40438715717596, 46.126551711711656, 57.82543476930313 " fill="none" id="curve_7" stroke="#000000" stroke-linecap="round" stroke-linejoin="round" stroke-width="3.5940414982549256"/>
  <path d="M 59.11349213995635, 34.64675544161416 Q 58.954489444952365, 26.231657125938487, 54.29176570922742, 25.484802964924032 " fill="none" id="curve_8" stroke="#000000" stroke-linecap="round" stroke-linejoin="round" stroke-width="2.9079087228671137"/>
  <path d="M 41.97613785695273, 22.596353144207693 Q 42.917663207667154, 22.964139833425566, 45.93623005879879, 23.399284812002954 " fill="none" id="curve_9" stroke="#000000" stroke-linecap="round" stroke-linejoin="round" stroke-width="2.423943001972958"/>
  <path d="M 58.47138119553482, 87.47173607248834 Q 64.19354705017716, 88.23132472377402, 69.7030023818545, 89.64807474445486 " fill="none" id="curve_11" stroke="#000000" stroke-linecap="round" stroke-linejoin="round" stroke-width="2.835068651862231"/>
  <path d="M 53.46787697995681, 89.6942629036625 Q 54.94024518990707, 89.8545840577345, 57.7194365954663, 89.97884381143288 " fill="none" id="curve_12" stroke="#000000" stroke-linecap="round" stroke-linejoin="round" stroke-width="3.674223778210596"/>
  <path d="M 37.54615283735279, 92.84594644030193 Q 34.41957756296847, 92.9758800317783, 27.253502054530976, 93.31175658396127 " fill="none" id="curve_15" stroke="#000000" stroke-linecap="round" stroke-linejoin="round" stroke-width="2.5109234206092697"/>
  <path d="M 53.83646823319536, 46.70720763265394 Q 57.51274238833365, 46.278935710906495, 57.85917060074994, 33.77979595767748 " fill="none" id="curve_16" stroke="#000000" stroke-linecap="round" stroke-linejoin="round" stroke-width="3.317076663591579"/>
  <path d="M 57.85917060074994, 33.77979595767748 Q 56.82790347322452, 33.99542290822309, 55.8147242897139, 34.42899187864151 " fill="none" id="curve_16" stroke="#000000" stroke-linecap="round" stroke-linejoin="round" stroke-width="4.12382109458208"/>
  <path d="M 27.447365676853238, 93.56849193535287 Q 21.986784349991364, 93.29830465284127, 16.085497987809482, 92.63028626956589 " fill="none" id="curve_25" stroke="#000000" stroke-linecap="round" stroke-linejoin="round" stroke-width="2.4833780651974164"/>
  <path d="M 36.626608765743704, 92.73582130526462 Q 35.057218709633695, 92.16007477113415, 31.90718957888923, 91.36797028921593 " fill="none" id="curve_34" stroke="#000000" stroke-linecap="round" stroke-linejoin="round" stroke-width="2.410493298195214"/>
  <path d="M 67.75963942295414, 89.36193547772942 Q 62.50039196546604, 90.35289876288307, 54.24102282993778, 91.86594514866746 " fill="none" id="curve_49" stroke="#000000" stroke-linecap="round" stroke-linejoin="round" stroke-width="2.728375682392862"/>
  <path d="M 19.323647554020162, 83.6157860688377 Q 20.73189605892042, 80.06873405634848, 28.87347266111594, 77.89734030187003 " fill="none" id="curve_66" stroke="#000000" stroke-linecap="round" stroke-linejoin="round" stroke-width="2.3996423538299605"/>
  <path d="M 51.2543830871582, 23.75562286376953 Q 51.28733399117465, 23.41688530014745, 51.43495351131392, 23.09157799671859 " fill="none" id="curve_80" stroke="#000000" stroke-linecap="round" stroke-linejoin="round" stroke-width="2.123670299653042"/>
  <path d="M 38.00805632038282, 65.90821430915821 Q 40.40710719824753, 64.72046504649107, 44.07632282319516, 61.7939594603562 " fill="none" id="curve_95" stroke="#000000" stroke-linecap="round" stroke-linejoin="round" stroke-width="1.6894116956966454"/>
  <path d="M 46.055940848978935, 93.25881573086735 Q 46.0130558897581, 92.5741344597227, 45.914574630737945, 91.75272257082669 " fill="none" id="curve_149" stroke="#000000" stroke-linecap="round" stroke-linejoin="round" stroke-width="2.789856379612555"/>
</svg>
