<?xml version="1.0" ?>
<svg height="140" width="140" xmlns="http://www.w3.org/2000/svg">
  <path d="M 26.058370242689108, 117.2440850848358 Q 34.882638813475644, 116.82554010923397, 40.69297769907339, 115.03307530955585 " fill="none" id="curve_2" stroke="#000000" stroke-linecap="round" stroke-linejoin="round" stroke-width="3.18731114790806"/>
  <path d="M 25.288037765306417, 118.24261864175622 Q 11.123585353344323, 118.14445153244641, 10.256258273848415, 114.19883774518787 " fill="none" id="curve_3" stroke="#000000" stroke-linecap="round" stroke-linejoin="round" stroke-width="5.2583070400523715"/>
  <path d="M 10.256258273848415, 114.19883774518787 Q 11.431855270330654, 100.93863324229449, 24.02124444015578, 91.30250439639455 " fill="none" id="curve_3" stroke="#000000" stroke-linecap="round" stroke-linejoin="round" stroke-width="4.6046372164447655"/>
  <path d="M 24.02124444015578, 91.30250439639455 Q 29.674225301519833, 84.31483450875574, 45.04954200804801, 68.74811244053535 " fill="none" id="curve_3" stroke="#000000" stroke-linecap="round" stroke-linejoin="round" stroke-width="4.672038454899802"/>
  <path d="M 45.04954200804801, 68.74811244053535 Q 48.97630492359182, 64.73992263225263, 51.73887086872713, 56.54015015923197 " fill="none" id="curve_3" stroke="#000000" stroke-linecap="round" stroke-linejoin="round" stroke-width="5.168747886879008"/>
  <path d="M 51.73887086872713, 56.54015015923197 Q 50.526718362580766, 44.09176647245788, 33.74801872747496, 40.72443149788019 " fill="none" id="curve_3" stroke="#000000" stroke-linecap="round" stroke-linejoin="round" stroke-width="5.4352090153828"/>
  <path d="M 33.74801872747496, 40.72443149788019 Q 20.21668590221064, 41.6235491733501, 17.35893760753083, 48.855025167072434 " fill="none" id="curve_3" stroke="#000000" stroke-linecap="round" stroke-linejoin="round" stroke-width="3.97080731027487"/>
  <path d="M 17.35893760753083, 48.855025167072434 Q 18.36876077464983, 41.58591208373785, 31.040859685448545, 40.49403241749754 " fill="none" id="curve_3" stroke="#000000" stroke-linecap="round" stroke-linejoin="round" stroke-width="2.8247804606631"/>
  <path d="M 90.68896847118575, 56.256749230350415 Q 89.34019692127919, 56.777439678384944, 89.25944130704657, 86.08748810703128 " fill="none" id="curve_5" stroke="#000000" stroke-linecap="round" stroke-linejoin="round" stroke-width="2.8341837616200225"/>
  <path d="M 89.25944130704657, 86.08748810703128 Q 89.27269444222475, 96.22404636911504, 89.35325347322897, 116.59553129063998 " fill="none" id="curve_5" stroke="#000000" stroke-linecap="round" stroke-linejoin="round" stroke-width="2.3622639034474364"/>
  <path d="M 89.35325347322897, 116.59553129063998 Q 89.2515509887627, 129.58038943357977, 88.83639693042647, 138.7504038060154 " fill="none" id="curve_5" stroke="#000000" stroke-linecap="round" stroke-linejoin="round" stroke-width="2.4576350676533294"/>
  <path d="M 88.83639693042647, 138.7504038060154 Q 88.65568132427977, 138.61019373878327, 88.48027757420358, 138.40097487715863 " fill="none" id="curve_5" stroke="#000000" stroke-linecap="round" stroke-linejoin="round" stroke-width="4.048567318246967"/>
  <path d="M 89.07979318453631, 64.99981819185027 Q 89.04459069248102, 61.9692478624236, 89.01604431447622, 55.404602799511 " fill="none" id="curve_8" stroke="#000000" stroke-linecap="round" stroke-linejoin="round" stroke-width="2.442178262308062"/>
  <path d="M 89.01604431447622, 55.404602799511 Q 89.12213087146522, 53.5498452130051, 89.20549790280556, 37.698358480156415 " fill="none" id="curve_8" stroke="#000000" stroke-linecap="round" stroke-linejoin="round" stroke-width="2.4445044986316575"/>
  <path d="M 89.20549790280556, 37.698358480156415 Q 89.17027581155573, 32.56772761139938, 89.0688982887125, 22.446118393530213 " fill="none" id="curve_8" stroke="#000000" stroke-linecap="round" stroke-linejoin="round" stroke-width="2.4070977057260428"/>
  <path d="M 89.0688982887125, 22.446118393530213 Q 89.04730562535796, 13.624158550496956, 88.92182091278077, 7.616112181303244 " fill="none" id="curve_8" stroke="#000000" stroke-linecap="round" stroke-linejoin="round" stroke-width="2.7255141568986407"/>
  <path d="M 88.92182091278077, 7.616112181303244 Q 88.866184988558, 2.8540683526444957, 88.49797144622983, 1.849729055281613 " fill="none" id="curve_8" stroke="#000000" stroke-linecap="round" stroke-linejoin="round" stroke-width="4.043783347556819"/>
  <path d="M 88.49797144622983, 1.849729055281613 Q 87.94565730435725, 1.733666527099573, 86.92573156863688, 1.6478897333882752 " fill="none" id="curve_8" stroke="#000000" stroke-linecap="round" stroke-linejoin="round" stroke-width="2.4069424066969884"/>
  <path d="M 51.587233195770224, 61.69372813983871 Q 51.02726465420025, 50.760353163335026, 44.5444318405991, 47.2500169351897 " fill="none" id="curve_12" stroke="#000000" stroke-linecap="round" stroke-linejoin="round" stroke-width="2.2000302828367566"/>
  <path d="M 26.40878167436439, 88.72062783732844 Q 21.577648982958095, 89.97161430603734, 18.757029823341938, 95.00269202446873 " fill="none" id="curve_13" stroke="#000000" stroke-linecap="round" stroke-linejoin="round" stroke-width="2.4813331456399603"/>
  <path d="M 16.232098857549843, 117.79635059148163 Q 19.52486661696416, 117.36636619062234, 26.58057961717683, 117.04109986851246 " fill="none" id="curve_14" stroke="#000000" stroke-linecap="round" stroke-linejoin="round" stroke-width="3.4346627951738733"/>
  <path d="M 37.99979690796452, 75.65554130938109 Q 43.701138535095694, 70.0257737579699, 50.66100980255706, 60.540640883792975 " fill="none" id="curve_16" stroke="#000000" stroke-linecap="round" stroke-linejoin="round" stroke-width="2.641436943133019"/>
  <path d="M 35.82643690748569, 41.89896989620283 Q 35.33976447493105, 40.605309419103946, 30.792218735108637, 39.99867293963863 " fill="none" id="curve_19" stroke="#000000" stroke-linecap="round" stroke-linejoin="round" stroke-width="2.9981102267203967"/>
  <path d="M 49.40565266682538, 55.93025780237459 Q 49.603866802634826, 58.061767686063156, 50.03406742869839, 60.119114022496625 " fill="none" id="curve_27" stroke="#000000" stroke-linecap="round" stroke-linejoin="round" stroke-width="2.7900158594929594"/>
  <path d="M 88.8690414428711, 13.114830017089844 Q 88.81724146067889, 15.185359049569428, 88.24384914822723, 15.750754510271236 " fill="none" id="curve_41" stroke="#000000" stroke-linecap="round" stroke-linejoin="round" stroke-width="2.144516567683701"/>
  <path d="M 88.67934853406328, 8.518730859592196 Q 88.32609548246207, 8.510807652298437, 87.85394323918356, 8.498834617478002 " fill="none" id="curve_42" stroke="#000000" stroke-linecap="round" stroke-linejoin="round" stroke-width="2.6417613233567856"/>
  <path d="M 46.390628814697266, 66.77858185768127 Q 43.08848427494066, 67.81180263511423, 40.92266223092565, 70.69309811014386 " fill="none" id="curve_56" stroke="#000000" stroke-linecap="round" stroke-linejoin="round" stroke-width="2.7967198039513317"/>
  <path d="M 23.816021591550694, 88.50511231123721 Q 26.343909754852717, 85.23249676644362, 31.094988426387633, 81.4675434006122 " fill="none" id="curve_71" stroke="#000000" stroke-linecap="round" stroke-linejoin="round" stroke-width="2.024242134629438"/>
  <path d="M 34.47658217018963, 40.652469649648054 Q 35.707958027444995, 40.29537237017839, 38.54419118316147, 40.039988635054776 " fill="none" id="curve_74" stroke="#000000" stroke-linecap="round" stroke-linejoin="round" stroke-width="2.498814865593599"/>
  <path d="M 29.05017810136836, 119.05405740944755 Q 23.24744903405351, 118.6934626355509, 15.94191795732833, 117.95778999183072 " fill="none" id="curve_80" stroke="#000000" stroke-linecap="round" stroke-linejoin="round" stroke-width="2.855258981536811"/>
  <path d="M 29.608497783011806, 38.728887713434375 Q 27.90070699987898, 40.541499941891765, 23.801439186547285, 41.83134749329058 " fill="none" id="curve_96" stroke="#000000" stroke-linecap="round" stroke-linejoin="round" stroke-width="2.8128573420135563"/>
  <path d="M 47.506674653961454, 47.756535737326885 Q 49.33050351807437, 48.309205186340556, 51.394784685320715, 49.41358993487877 " fill="none" id="curve_150" stroke="#000000" stroke-linecap="round" stroke-linejoin="round" stroke-width="2.400245261227465"/>
  <path d="M 11.553645051576527, 108.2268433979091 Q 10.44973170821131, 108.39780318908832, 9.544196321972901, 108.92696014034641 " fill="none" id="curve_159" stroke="#000000" stroke-linecap="round" stroke-linejoin="round" stroke-width="3.520563441538963"/>
  <path d="M 18.609330657780575, 118.28500360241449 Q 16.743103305912463, 118.57219296910598, 14.578711516558563, 119.07541934792013 " fill="none" id="curve_164" stroke="#000000" stroke-linecap="round" stroke-linejoin="round" stroke-width="3.2174921142377735"/>
</svg>
