<?xml version="1.0" ?>
<svg height="140" width="140" xmlns="http://www.w3.org/2000/svg">
  <path d="M 71.98981475830078, 112.69736862182617 Q 72.90878732312876, 112.36142377342391, 73.74928739108381, 111.49112561853235 " fill="none" id="curve_1" stroke="#000000" stroke-linecap="round" stroke-linejoin="round" stroke-width="5.27581040726207"/>
  <path d="M 73.74928739108381, 111.49112561853235 Q 72.5637691892715, 112.9573275718596, 51.624648547092384, 113.21106179251016 " fill="none" id="curve_1" stroke="#000000" stroke-linecap="round" stroke-linejoin="round" stroke-width="5.316809172864763"/>
  <path d="M 51.624648547092384, 113.21106179251016 Q 46.45417307195378, 114.41044232600598, 32.09201492131516, 115.04015436722653 " fill="none" id="curve_1" stroke="#000000" stroke-linecap="round" stroke-linejoin="round" stroke-width="5.204573527731206"/>
  <path d="M 32.09201492131516, 115.04015436722653 Q 23.548633925533082, 114.7499175794303, 22.323406384227006, 110.64936285883165 " fill="none" id="curve_1" stroke="#000000" stroke-linecap="round" stroke-linejoin="round" stroke-width="4.9110060568766665"/>
  <path d="M 22.323406384227006, 110.64936285883165 Q 27.936818015488697, 99.21547181618865, 51.42919984428065, 78.41932072197423 " fill="none" id="curve_1" stroke="#000000" stroke-linecap="round" stroke-linejoin="round" stroke-width="5.067700830796564"/>
  <path d="M 51.42919984428065, 78.41932072197423 Q 54.2624882416014, 71.35250870475517, 58.07808215859964, 62.60256242532621 " fill="none" id="curve_1" stroke="#000000" stroke-linecap="round" stroke-linejoin="round" stroke-width="5.565234213076176"/>
  <path d="M 58.07808215859964, 62.60256242532621 Q 57.846455015802974, 36.80997716573097, 39.904252461996535, 34.57264844652929 " fill="none" id="curve_1" stroke="#000000" stroke-linecap="round" stroke-linejoin="round" stroke-width="5.356260255043193"/>
  <path d="M 39.904252461996535, 34.57264844652929 Q 24.448330721770933, 37.094781730867076, 13.887635255449922, 64.82686728298083 " fill="none" id="curve_1" stroke="#000000" stroke-linecap="round" stroke-linejoin="round" stroke-width="5.481975600259179"/>
  <path d="M 13.887635255449922, 64.82686728298083 Q 13.562658566833308, 73.63021523796843, 11.355791747015648, 75.29398293361194 " fill="none" id="curve_1" stroke="#000000" stroke-linecap="round" stroke-linejoin="round" stroke-width="4.843045068181332"/>
  <path d="M 25.066067825665293, 103.61971037503069 Q 28.03652758309171, 100.10628049234427, 35.153523324119185, 94.4157917183815 " fill="none" id="curve_2" stroke="#000000" stroke-linecap="round" stroke-linejoin="round" stroke-width="2.735427362973766"/>
  <path d="M 35.153523324119185, 94.4157917183815 Q 26.784608847843906, 98.46097366114387, 21.312467812162783, 108.41546851938283 " fill="none" id="curve_2" stroke="#000000" stroke-linecap="round" stroke-linejoin="round" stroke-width="3.4285351628601033"/>
  <path d="M 47.079362529736905, 112.9793434394463 Q 48.73545191638993, 112.63732349390415, 53.526469757148995, 112.31554247129397 " fill="none" id="curve_3" stroke="#000000" stroke-linecap="round" stroke-linejoin="round" stroke-width="3.4062303097017987"/>
  <path d="M 55.665107196045646, 67.28537570584302 Q 56.209275282046264, 57.9729615708743, 58.78801170500999, 53.65041065158872 " fill="none" id="curve_4" stroke="#000000" stroke-linecap="round" stroke-linejoin="round" stroke-width="3.200634609227074"/>
  <path d="M 41.81058738928034, 90.46046480988437 Q 37.648611129882504, 92.59723087102047, 33.03871683419115, 96.12490296651653 " fill="none" id="curve_5" stroke="#000000" stroke-linecap="round" stroke-linejoin="round" stroke-width="3.188751005710985"/>
  <path d="M 46.47798422871431, 112.03381064680732 Q 43.318891266092926, 112.7668046062579, 41.48393224517419, 114.9673020819388 " fill="none" id="curve_6" stroke="#000000" stroke-linecap="round" stroke-linejoin="round" stroke-width="3.9799992146699754"/>
  <path d="M 49.4202856727377, 78.80603510205589 Q 51.25413425123536, 73.81859176955037, 56.30505261586317, 70.48892780129647 " fill="none" id="curve_7" stroke="#000000" stroke-linecap="round" stroke-linejoin="round" stroke-width="3.2319295985257974"/>
  <path d="M 39.138788950381496, 36.61625782239672 Q 44.29816950745575, 37.888880801612444, 51.9595501060172, 39.162365776834015 " fill="none" id="curve_9" stroke="#000000" stroke-linecap="round" stroke-linejoin="round" stroke-width="1.6699184628410126"/>
  <path d="M 24.875219810524413, 112.68534033290089 Q 34.67132572032932, 113.51367080793227, 39.480291669598294, 116.44139222217217 " fill="none" id="curve_13" stroke="#000000" stroke-linecap="round" stroke-linejoin="round" stroke-width="2.6382454659676737"/>
  <path d="M 56.393317596043424, 69.62814999192734 Q 55.875552418941055, 67.39402152995349, 55.64375068591183, 54.49357159202026 " fill="none" id="curve_18" stroke="#000000" stroke-linecap="round" stroke-linejoin="round" stroke-width="2.682326292613356"/>
  <path d="M 24.565238794336064, 41.380594543184955 Q 21.370409309673114, 46.03078950224463, 17.575654857423565, 52.77009483183816 " fill="none" id="curve_19" stroke="#000000" stroke-linecap="round" stroke-linejoin="round" stroke-width="2.869220974764373"/>
  <path d="M 43.025479782957184, 35.49592800260153 Q 39.69788110414174, 35.307765883045136, 32.767049064577186, 34.89107781417903 " fill="none" id="curve_20" stroke="#000000" stroke-linecap="round" stroke-linejoin="round" stroke-width="2.3823095090718835"/>
  <path d="M 54.03085976840031, 65.13684570948631 Q 54.826614476150574, 64.75102681825335, 55.551409017757415, 63.947871417656415 " fill="none" id="curve_29" stroke="#000000" stroke-linecap="round" stroke-linejoin="round" stroke-width="3.8157718107117007"/>
  <path d="M 49.358580538722634, 37.147698937510405 Q 51.04325771481171, 38.395192471395575, 54.04191036176698, 40.089321148656616 " fill="none" id="curve_30" stroke="#000000" stroke-linecap="round" stroke-linejoin="round" stroke-width="2.1586469241389508"/>
  <path d="M 71.38311889868162, 111.1374267942366 Q 70.94399897538014, 110.90933561295223, 70.32380233997593, 110.5450498349611 " fill="none" id="curve_47" stroke="#000000" stroke-linecap="round" stroke-linejoin="round" stroke-width="3.3610194512268574"/>
  <path d="M 48.030087928602455, 78.21015118814849 Q 53.08488673340803, 75.0003844657726, 57.11720737740604, 63.19129822733219 " fill="none" id="curve_50" stroke="#000000" stroke-linecap="round" stroke-linejoin="round" stroke-width="2.054222963243043"/>
  <path d="M 55.5364120962619, 49.39527131467436 Q 56.456359993212786, 50.58044706912716, 57.6095800927258, 52.2667140168956 " fill="none" id="curve_51" stroke="#000000" stroke-linecap="round" stroke-linejoin="round" stroke-width="4.02774326462107"/>
  <path d="M 41.8950766954251, 116.30162216533704 Q 41.73055411642052, 115.86414986886395, 41.42950800236247, 115.32324814395936 " fill="none" id="curve_61" stroke="#000000" stroke-linecap="round" stroke-linejoin="round" stroke-width="3.6315235022571537"/>
  <path d="M 58.49042299097144, 52.78287690943417 Q 57.51868545010302, 51.86057416725294, 55.72456345889982, 50.557999288495154 " fill="none" id="curve_65" stroke="#000000" stroke-linecap="round" stroke-linejoin="round" stroke-width="4.298618422667094"/>
  <path d="M 44.303613302943866, 34.31153220264748 Q 42.52825773808973, 34.198481199284146, 38.27792841788961, 34.03701310940705 " fill="none" id="curve_70" stroke="#000000" stroke-linecap="round" stroke-linejoin="round" stroke-width="2.4501144673686577"/>
  <path d="M 57.8340281809529, 111.84733490633245 Q 53.020529532713084, 112.17106580890487, 45.96664890662338, 112.9721315447498 " fill="none" id="curve_76" stroke="#000000" stroke-linecap="round" stroke-linejoin="round" stroke-width="2.501459712714032"/>
  <path d="M 33.30189681939321, 36.120019254823916 Q 32.762972415892115, 35.77601243121709, 30.78976601984548, 35.43887767214904 " fill="none" id="curve_80" stroke="#000000" stroke-linecap="round" stroke-linejoin="round" stroke-width="2.9448119707631895"/>
  <path d="M 54.71436448370938, 50.73254432141803 Q 54.60352449963409, 50.33500967647052, 54.18560441986937, 49.89003477704131 " fill="none" id="curve_85" stroke="#000000" stroke-linecap="round" stroke-linejoin="round" stroke-width="1.8291232081003215"/>
  <path d="M 46.87286895887188, 37.68179973107184 Q 47.39124756841018, 36.84595742712675, 48.70625112618236, 35.879498813859655 " fill="none" id="curve_91" stroke="#000000" stroke-linecap="round" stroke-linejoin="round" stroke-width="2.4761122597045513"/>
</svg>
