<?xml version="1.0" ?>
<svg height="140" width="140" xmlns="http://www.w3.org/2000/svg">
  <path d="M 46.81120684662813, 30.67787500742486 Q 40.82602024280696, 31.383376355517974, 33.18488623408019, 32.62290512282988 " fill="none" id="curve_2" stroke="#000000" stroke-linecap="round" stroke-linejoin="round" stroke-width="5.7586788617401075"/>
  <path d="M 49.140419672755954, 32.42513479351632 Q 56.50257688727402, 34.49371808707503, 57.751774420696435, 48.71220945205437 " fill="none" id="curve_3" stroke="#000000" stroke-linecap="round" stroke-linejoin="round" stroke-width="6.051888480696764"/>
  <path d="M 57.751774420696435, 48.71220945205437 Q 55.83774580675246, 64.20230470862846, 44.82652752503352, 80.04829917327797 " fill="none" id="curve_3" stroke="#000000" stroke-linecap="round" stroke-linejoin="round" stroke-width="4.76562696828949"/>
  <path d="M 44.82652752503352, 80.04829917327797 Q 38.08248738835562, 85.9798969921967, 30.963998533496113, 94.86674089482119 " fill="none" id="curve_3" stroke="#000000" stroke-linecap="round" stroke-linejoin="round" stroke-width="3.6202969954336783"/>
  <path d="M 30.963998533496113, 94.86674089482119 Q 35.684914277283056, 103.12201766498453, 64.00063099151112, 105.6532730577008 " fill="none" id="curve_3" stroke="#000000" stroke-linecap="round" stroke-linejoin="round" stroke-width="5.422139208927179"/>
  <path d="M 64.00063099151112, 105.6532730577008 Q 68.59419147079954, 106.01040425046446, 72.14995172105031, 106.57239392947425 " fill="none" id="curve_3" stroke="#000000" stroke-linecap="round" stroke-linejoin="round" stroke-width="3.8129631071700447"/>
  <path d="M 47.719699520998866, 102.05818952977702 Q 37.547183400685455, 101.11779853239284, 32.24033735109915, 98.30236676873315 " fill="none" id="curve_4" stroke="#000000" stroke-linecap="round" stroke-linejoin="round" stroke-width="4.3449467919963665"/>
  <path d="M 32.24033735109915, 98.30236676873315 Q 32.45618081974908, 94.92022111386797, 32.89110469817774, 92.78151183093343 " fill="none" id="curve_4" stroke="#000000" stroke-linecap="round" stroke-linejoin="round" stroke-width="3.9798426413850567"/>
  <path d="M 46.244392090507844, 31.055307815997807 Q 51.30031044925017, 35.31137455390124, 55.968992184055786, 42.196464831092676 " fill="none" id="curve_8" stroke="#000000" stroke-linecap="round" stroke-linejoin="round" stroke-width="2.587530475715935"/>
  <path d="M 47.8105076565395, 29.369435549446205 Q 36.64444844981708, 29.519962269588195, 34.835444633749766, 31.8975545621306 " fill="none" id="curve_9" stroke="#000000" stroke-linecap="round" stroke-linejoin="round" stroke-width="3.9296903378739034"/>
  <path d="M 55.07357677342262, 41.35457718278999 Q 54.88847349558402, 62.43955346236298, 51.39115530059142, 64.68653365469538 " fill="none" id="curve_10" stroke="#000000" stroke-linecap="round" stroke-linejoin="round" stroke-width="3.300576401056923"/>
  <path d="M 32.375356742909595, 93.32831937636558 Q 35.35691714996414, 97.99045814992975, 41.812784371916386, 101.32240848558327 " fill="none" id="curve_11" stroke="#000000" stroke-linecap="round" stroke-linejoin="round" stroke-width="2.3686331516083405"/>
  <path d="M 41.812784371916386, 101.32240848558327 Q 37.97529464406704, 101.30775791661263, 35.86072522722361, 101.26822610092795 " fill="none" id="curve_11" stroke="#000000" stroke-linecap="round" stroke-linejoin="round" stroke-width="4.356395370753074"/>
  <path d="M 33.35654200517597, 35.408274360964754 Q 33.24079511063023, 35.09473944812022, 33.041533051887924, 34.49949729185246 " fill="none" id="curve_19" stroke="#000000" stroke-linecap="round" stroke-linejoin="round" stroke-width="3.134516145045834"/>
  <path d="M 38.57255241839818, 100.0752321987234 Q 48.41798940847452, 102.1633379534737, 61.37980883570752, 105.70212906193944 " fill="none" id="curve_30" stroke="#000000" stroke-linecap="round" stroke-linejoin="round" stroke-width="2.011362555792288"/>
  <path d="M 52.69446548401618, 63.65200043546895 Q 52.57732401832469, 62.20683004554618, 52.239369971189305, 61.13561568346224 " fill="none" id="curve_31" stroke="#000000" stroke-linecap="round" stroke-linejoin="round" stroke-width="4.683724559823252"/>
  <path d="M 48.577061405795845, 32.630204446794295 Q 50.40793170854355, 32.82253130831155, 52.93116668839945, 33.155158362486944 " fill="none" id="curve_35" stroke="#000000" stroke-linecap="round" stroke-linejoin="round" stroke-width="2.279864754131966"/>
  <path d="M 31.927129455285503, 90.91449040855963 Q 32.290920618230395, 91.22677403345816, 32.778422021322065, 91.93450280780402 " fill="none" id="curve_39" stroke="#000000" stroke-linecap="round" stroke-linejoin="round" stroke-width="2.56847828726808"/>
  <path d="M 52.655473223173175, 35.53988577432893 Q 51.51876858205058, 32.039617129961776, 43.43406821147523, 30.532600295526063 " fill="none" id="curve_43" stroke="#000000" stroke-linecap="round" stroke-linejoin="round" stroke-width="2.673092393703299"/>
  <path d="M 46.18506889983868, 101.60068333872275 Q 43.385234831711195, 100.25684163542718, 37.083694701114254, 98.7954309906879 " fill="none" id="curve_92" stroke="#000000" stroke-linecap="round" stroke-linejoin="round" stroke-width="2.9766404451224253"/>
  <path d="M 62.132535089578596, 104.25903843955575 Q 59.96455915965152, 104.00367014379616, 55.58566374040891, 103.7283764539497 " fill="none" id="curve_133" stroke="#000000" stroke-linecap="round" stroke-linejoin="round" stroke-width="2.9497085812276165"/>
</svg>
