<?xml version="1.0" ?>
<svg height="140" width="140" xmlns="http://www.w3.org/2000/svg">
  <path d="M 43.685068130493164, 55.6801815032959 Q 37.99032063462417, 58.57045498324592, 24.691509025534742, 73.95422214392636 " fill="none" id="curve_1" stroke="#000000" stroke-linecap="round" stroke-linejoin="round" stroke-width="5.629367533908102"/>
  <path d="M 24.691509025534742, 73.95422214392636 Q 24.458260557049893, 78.48847587695577, 22.965645365467378, 80.53131090944434 " fill="none" id="curve_1" stroke="#000000" stroke-linecap="round" stroke-linejoin="round" stroke-width="5.963743337693057"/>
  <path d="M 22.965645365467378, 80.53131090944434 Q 26.38781055879385, 87.93626891744759, 51.90998686440683, 89.71406416970422 " fill="none" id="curve_1" stroke="#000000" stroke-linecap="round" stroke-linejoin="round" stroke-width="5.887859515650449"/>
  <path d="M 51.90998686440683, 89.71406416970422 Q 54.551575803646024, 89.27389499283463, 56.65260281299852, 88.52505731790791 " fill="none" id="curve_1" stroke="#000000" stroke-linecap="round" stroke-linejoin="round" stroke-width="3.3505332420590808"/>
  <path d="M 45.194262638128684, 53.39936877221013 Q 44.702112983470776, 46.12397191805533, 31.489376326981823, 44.92935898327491 " fill="none" id="curve_2" stroke="#000000" stroke-linecap="round" stroke-linejoin="round" stroke-width="5.319895248491835"/>
  <path d="M 31.489376326981823, 44.92935898327491 Q 16.76847836882275, 45.031685775430155, 15.930515060611913, 50.38804683670474 " fill="none" id="curve_2" stroke="#000000" stroke-linecap="round" stroke-linejoin="round" stroke-width="5.944038756543381"/>
  <path d="M 15.930515060611913, 50.38804683670474 Q 15.693462023199977, 53.42607522504085, 15.297912004539272, 56.14522321986199 " fill="none" id="curve_2" stroke="#000000" stroke-linecap="round" stroke-linejoin="round" stroke-width="3.9455532459831275"/>
  <path d="M 41.555129275517075, 49.43966749706822 Q 41.35153255937921, 63.6294410858213, 31.733965344287732, 65.61191726505328 " fill="none" id="curve_3" stroke="#000000" stroke-linecap="round" stroke-linejoin="round" stroke-width="3.96380278502668"/>
  <path d="M 31.733965344287732, 65.61191726505328 Q 24.071372104173665, 66.98693558842399, 20.830504549914853, 78.85477540070028 " fill="none" id="curve_3" stroke="#000000" stroke-linecap="round" stroke-linejoin="round" stroke-width="2.4325102827698677"/>
  <path d="M 37.02099902195371, 59.19065791670194 Q 40.20132936816098, 57.70060533459444, 44.464387495493725, 55.87987322179116 " fill="none" id="curve_4" stroke="#000000" stroke-linecap="round" stroke-linejoin="round" stroke-width="3.051844366366385"/>
  <path d="M 44.464387495493725, 55.87987322179116 Q 43.738786130797905, 47.27800087086922, 29.150686838142477, 45.60996290871522 " fill="none" id="curve_4" stroke="#000000" stroke-linecap="round" stroke-linejoin="round" stroke-width="2.666944946075851"/>
  <path d="M 29.150686838142477, 45.60996290871522 Q 28.642680004356155, 43.86838845879859, 21.242042498658353, 43.60162950541037 " fill="none" id="curve_4" stroke="#000000" stroke-linecap="round" stroke-linejoin="round" stroke-width="3.157855527910997"/>
  <path d="M 26.197062368938266, 80.02087189376478 Q 30.536319396340858, 84.51689596480544, 40.751083076695394, 87.67408366652795 " fill="none" id="curve_7" stroke="#000000" stroke-linecap="round" stroke-linejoin="round" stroke-width="2.653812743993831"/>
  <path d="M 32.671709026948676, 66.4287131619522 Q 35.444120275995694, 60.11333213594152, 44.07436398422315, 55.63559247283516 " fill="none" id="curve_12" stroke="#000000" stroke-linecap="round" stroke-linejoin="round" stroke-width="2.7387958691938223"/>
  <path d="M 15.855578164843797, 47.610326392006534 Q 15.718793015741362, 47.68635676691021, 15.608032427898102, 47.8928798595307 " fill="none" id="curve_14" stroke="#000000" stroke-linecap="round" stroke-linejoin="round" stroke-width="3.9291328550341222"/>
  <path d="M 43.001160305677985, 58.12632334590433 Q 39.28934385182364, 58.922278528670454, 35.57142984526988, 60.85002204206047 " fill="none" id="curve_16" stroke="#000000" stroke-linecap="round" stroke-linejoin="round" stroke-width="3.949616959354007"/>
  <path d="M 30.760147530699403, 47.81253364006826 Q 32.30952217420124, 47.3449381155978, 35.67106077240297, 46.691824416756134 " fill="none" id="curve_33" stroke="#000000" stroke-linecap="round" stroke-linejoin="round" stroke-width="2.6589727318053806"/>
  <path d="M 49.94304370880127, 89.7655216306448 Q 40.72065360594732, 88.6646631356646, 29.34323879596286, 84.92098049006017 " fill="none" id="curve_47" stroke="#000000" stroke-linecap="round" stroke-linejoin="round" stroke-width="2.9879924839048657"/>
  <path d="M 41.88079706422718, 88.60887812911557 Q 38.681133775958514, 86.84342977603926, 31.87959778822269, 85.0368360821833 " fill="none" id="curve_127" stroke="#000000" stroke-linecap="round" stroke-linejoin="round" stroke-width="3.4213364365029775"/>
</svg>
