<?xml version="1.0" ?>
<svg height="140" width="140" xmlns="http://www.w3.org/2000/svg">
  <path d="M 57.11821530609573, 95.52612508045343 Q 55.06404161550145, 95.21501646500944, 32.196334949176304, 95.12588429808001 " fill="none" id="curve_2" stroke="#000000" stroke-linecap="round" stroke-linejoin="round" stroke-width="8.216584002977518"/>
  <path d="M 32.196334949176304, 95.12588429808001 Q 25.188476449689567, 93.85527675307505, 20.972880150973467, 90.06287239127991 " fill="none" id="curve_2" stroke="#000000" stroke-linecap="round" stroke-linejoin="round" stroke-width="7.3098753470945965"/>
  <path d="M 20.972880150973467, 90.06287239127991 Q 23.111519462276828, 74.49569974156874, 37.05035659512195, 60.620392322354085 " fill="none" id="curve_2" stroke="#000000" stroke-linecap="round" stroke-linejoin="round" stroke-width="7.409309423011739"/>
  <path d="M 37.05035659512195, 60.620392322354085 Q 41.459591307266024, 57.57443007627261, 42.875209097991586, 43.03037735776057 " fill="none" id="curve_2" stroke="#000000" stroke-linecap="round" stroke-linejoin="round" stroke-width="10.996314095843825"/>
  <path d="M 42.875209097991586, 43.03037735776057 Q 42.396998764986684, 37.94489164892321, 32.117532737348355, 37.42138226166495 " fill="none" id="curve_2" stroke="#000000" stroke-linecap="round" stroke-linejoin="round" stroke-width="10.240698012248421"/>
  <path d="M 32.117532737348355, 37.42138226166495 Q 22.527560444954382, 38.4387943540705, 20.52823763371628, 44.7687097449458 " fill="none" id="curve_2" stroke="#000000" stroke-linecap="round" stroke-linejoin="round" stroke-width="9.849357980240798"/>
  <path d="M 20.873124767828738, 79.70397447652607 Q 19.692150919215642, 81.04600654852749, 19.377513230201703, 89.96708434952372 " fill="none" id="curve_3" stroke="#000000" stroke-linecap="round" stroke-linejoin="round" stroke-width="3.8587159215729883"/>
  <path d="M 16.869346279662658, 44.04966096254258 Q 17.937365899450015, 43.72438293263764, 19.11427444002932, 42.78123947762346 " fill="none" id="curve_4" stroke="#000000" stroke-linecap="round" stroke-linejoin="round" stroke-width="4.330296254455775"/>
  <path d="M 39.28317289240303, 54.4516182110832 Q 33.59246633228154, 62.29404125583013, 22.36418037566992, 77.28964836238325 " fill="none" id="curve_5" stroke="#000000" stroke-linecap="round" stroke-linejoin="round" stroke-width="3.1851838474343652"/>
  <path d="M 20.766698837280273, 92.55494499206543 Q 22.890200393084278, 96.3929917883469, 33.825215491367544, 97.73264240940762 " fill="none" id="curve_19" stroke="#000000" stroke-linecap="round" stroke-linejoin="round" stroke-width="3.841803697724731"/>
  <path d="M 33.825215491367544, 97.73264240940762 Q 30.579610655714674, 92.99911529253828, 22.944203388878233, 87.35095721076972 " fill="none" id="curve_19" stroke="#000000" stroke-linecap="round" stroke-linejoin="round" stroke-width="3.6225651488946515"/>
  <path d="M 45.332381618779074, 92.2045546278686 Q 50.97770138949828, 92.96307779839434, 55.96031707094545, 94.1664417058303 " fill="none" id="curve_20" stroke="#000000" stroke-linecap="round" stroke-linejoin="round" stroke-width="2.88536836339774"/>
  <path d="M 34.96221277858812, 62.24769990307784 Q 35.08376772554837, 54.564577946095284, 41.03657952271608, 54.03599301371267 " fill="none" id="curve_21" stroke="#000000" stroke-linecap="round" stroke-linejoin="round" stroke-width="2.975403709761207"/>
  <path d="M 20.795565898755793, 39.92172123561137 Q 19.73427382192867, 41.85967197164127, 18.634728971221275, 45.46978313252699 " fill="none" id="curve_22" stroke="#000000" stroke-linecap="round" stroke-linejoin="round" stroke-width="5.597452074007399"/>
  <path d="M 18.634728971221275, 45.46978313252699 Q 19.31374307290624, 43.67541529908231, 21.595987949582504, 42.299607655810306 " fill="none" id="curve_22" stroke="#000000" stroke-linecap="round" stroke-linejoin="round" stroke-width="4.972667968712861"/>
  <path d="M 21.751862530565802, 46.51378479848458 Q 24.980163512310785, 45.00987137155063, 27.24993897020193, 41.07688732238413 " fill="none" id="curve_37" stroke="#000000" stroke-linecap="round" stroke-linejoin="round" stroke-width="2.8270300287823225"/>
  <path d="M 36.318303920128336, 53.90863664538285 Q 34.53003953018203, 70.19125508950214, 21.310025652471598, 78.97215688579391 " fill="none" id="curve_40" stroke="#000000" stroke-linecap="round" stroke-linejoin="round" stroke-width="3.40660619414666"/>
  <path d="M 23.33088355682014, 39.80558445779158 Q 20.833962958231098, 40.66638443123687, 17.67343605447581, 42.324074372425905 " fill="none" id="curve_47" stroke="#000000" stroke-linecap="round" stroke-linejoin="round" stroke-width="4.370564805645714"/>
  <path d="M 37.13173205021174, 44.03920614225393 Q 38.13121818182154, 44.06716037341145, 39.69658152383774, 44.11796214041944 " fill="none" id="curve_89" stroke="#000000" stroke-linecap="round" stroke-linejoin="round" stroke-width="2.7204553261110367"/>
  <path d="M 35.72175003952333, 60.1375341017176 Q 34.49104594188698, 67.47397688540892, 26.41663766064975, 74.68475349736995 " fill="none" id="curve_92" stroke="#000000" stroke-linecap="round" stroke-linejoin="round" stroke-width="2.8608098025778106"/>
  <path d="M 33.00903255060319, 59.51470586685747 Q 33.652627855330906, 62.50810526281806, 34.84740419588327, 66.3727007917736 " fill="none" id="curve_146" stroke="#000000" stroke-linecap="round" stroke-linejoin="round" stroke-width="3.02481339654438"/>
  <path d="M 21.12597451081329, 93.29772564125382 Q 19.384434507841885, 90.85814020462514, 18.336438913918677, 81.83764656319255 " fill="none" id="curve_148" stroke="#000000" stroke-linecap="round" stroke-linejoin="round" stroke-width="3.081460600000225"/>
</svg>
