<?xml version="1.0" ?>
<svg height="140" width="140" xmlns="http://www.w3.org/2000/svg">
  <path d="M 48.43026351928711, 37.64264678955078 Q 47.004322198704195, 43.41079415341147, 42.75875345760977, 53.49890483038257 " fill="none" id="curve_1" stroke="#000000" stroke-linecap="round" stroke-linejoin="round" stroke-width="5.794567933933311"/>
  <path d="M 42.75875345760977, 53.49890483038257 Q 37.96926410182828, 57.51183473331256, 33.40819039394883, 63.76126557457681 " fill="none" id="curve_1" stroke="#000000" stroke-linecap="round" stroke-linejoin="round" stroke-width="3.8681569200707027"/>
  <path d="M 33.40819039394883, 63.76126557457681 Q 28.209782313379726, 69.36759603188816, 8.093088996513021, 77.37844789255053 " fill="none" id="curve_1" stroke="#000000" stroke-linecap="round" stroke-linejoin="round" stroke-width="3.139604593846377"/>
  <path d="M 8.093088996513021, 77.37844789255053 Q 3.7313091837323524, 77.50006706221141, 1.7073079465342573, 77.97860768932208 " fill="none" id="curve_1" stroke="#000000" stroke-linecap="round" stroke-linejoin="round" stroke-width="2.6834204631365277"/>
  <path d="M 1.7073079465342573, 77.97860768932208 Q 2.4849102199050717, 64.05462675758189, 23.367639255984166, 60.624202460684316 " fill="none" id="curve_1" stroke="#000000" stroke-linecap="round" stroke-linejoin="round" stroke-width="4.153409758015291"/>
  <path d="M 23.367639255984166, 60.624202460684316 Q 37.98481506172381, 63.88659091191637, 50.06619102607674, 76.3047841811602 " fill="none" id="curve_1" stroke="#000000" stroke-linecap="round" stroke-linejoin="round" stroke-width="4.888853030773087"/>
  <path d="M 50.06619102607674, 76.3047841811602 Q 54.098923666331046, 76.42892528114763, 61.128064865992535, 76.54126721778391 " fill="none" id="curve_1" stroke="#000000" stroke-linecap="round" stroke-linejoin="round" stroke-width="4.758057988871928"/>
  <path d="M 61.128064865992535, 76.54126721778391 Q 42.94432296716077, 76.20910052260957, 40.708957936221395, 70.85524096802412 " fill="none" id="curve_1" stroke="#000000" stroke-linecap="round" stroke-linejoin="round" stroke-width="3.6036756640311562"/>
  <path d="M 45.62609091974255, 43.79162917225446 Q 45.46017770708341, 33.509043672780905, 44.42014872395131, 29.71427983670072 " fill="none" id="curve_2" stroke="#000000" stroke-linecap="round" stroke-linejoin="round" stroke-width="4.24862650192702"/>
  <path d="M 44.42014872395131, 29.71427983670072 Q 42.335370654848404, 27.981343223252207, 30.419505076257963, 27.28264437092907 " fill="none" id="curve_2" stroke="#000000" stroke-linecap="round" stroke-linejoin="round" stroke-width="4.754725541545433"/>
  <path d="M 30.419505076257963, 27.28264437092907 Q 23.912143467220893, 28.450715846078342, 22.648775898482896, 35.79181938467957 " fill="none" id="curve_2" stroke="#000000" stroke-linecap="round" stroke-linejoin="round" stroke-width="4.128563244757587"/>
  <path d="M 46.35477801348887, 32.51932333423841 Q 47.308628146440526, 33.74080030775302, 47.7235536240905, 37.777919100602375 " fill="none" id="curve_3" stroke="#000000" stroke-linecap="round" stroke-linejoin="round" stroke-width="2.8590978995994494"/>
  <path d="M 33.3081660232195, 61.04880616336206 Q 28.781648229090273, 60.468922372222806, 21.248740863848848, 59.75861763420023 " fill="none" id="curve_4" stroke="#000000" stroke-linecap="round" stroke-linejoin="round" stroke-width="2.5773307899087268"/>
  <path d="M 21.248740863848848, 59.75861763420023 Q 11.031869576577689, 63.53953890188872, -0.13906506782214478, 72.35858132147607 " fill="none" id="curve_4" stroke="#000000" stroke-linecap="round" stroke-linejoin="round" stroke-width="2.725995573696805"/>
  <path d="M 34.50677245477446, 62.308305966277494 Q 36.46419188141125, 63.917650511059676, 37.77769525137761, 67.6863031773674 " fill="none" id="curve_6" stroke="#000000" stroke-linecap="round" stroke-linejoin="round" stroke-width="3.788213109979525"/>
  <path d="M 13.202638797654645, 64.3308995978042 Q 15.4295500115833, 62.697244634921056, 23.521568035045323, 61.38435765143713 " fill="none" id="curve_9" stroke="#000000" stroke-linecap="round" stroke-linejoin="round" stroke-width="2.3809031344213616"/>
  <path d="M 46.41810582951983, 31.182135333451086 Q 45.225601481278986, 29.589344383326214, 34.490134248018, 28.79313117481641 " fill="none" id="curve_19" stroke="#000000" stroke-linecap="round" stroke-linejoin="round" stroke-width="2.471895958648668"/>
  <path d="M 27.629032786676564, 28.95137962304427 Q 30.11101315438279, 28.901927779124943, 32.397017302304185, 28.79650270490234 " fill="none" id="curve_41" stroke="#000000" stroke-linecap="round" stroke-linejoin="round" stroke-width="2.395125313045299"/>
  <path d="M 42.84796434210182, 32.30351048081724 Q 42.48539311582541, 30.583893081208323, 41.376987921651995, 29.549984053565364 " fill="none" id="curve_56" stroke="#000000" stroke-linecap="round" stroke-linejoin="round" stroke-width="2.989871653486563"/>
  <path d="M 45.34664006296339, 47.49958135222164 Q 45.40467241446202, 45.95331262643087, 45.65420848500161, 45.01294457008936 " fill="none" id="curve_97" stroke="#000000" stroke-linecap="round" stroke-linejoin="round" stroke-width="3.3740899973239737"/>
  <path d="M 45.40283303948168, 46.379036770159104 Q 45.41130843525978, 45.693117197237214, 45.43376201351423, 44.72681269253233 " fill="none" id="curve_114" stroke="#000000" stroke-linecap="round" stroke-linejoin="round" stroke-width="2.245745087182213"/>
  <path d="M 8.782491910051448, 76.27981534096575 Q 6.7725283535902, 76.64321573267212, 4.779372575734648, 77.53437627757084 " fill="none" id="curve_115" stroke="#000000" stroke-linecap="round" stroke-linejoin="round" stroke-width="2.5874704541476428"/>
  <path d="M 39.27786568473903, 66.43742813153074 Q 38.75394802134447, 64.30714176929784, 35.62091870932898, 63.440462268585144 " fill="none" id="curve_130" stroke="#000000" stroke-linecap="round" stroke-linejoin="round" stroke-width="2.944815313655791"/>
  <path d="M 22.29769684221096, 30.81661072993947 Q 22.816172576220687, 31.22617250594005, 23.377288779201606, 32.34526518941488 " fill="none" id="curve_131" stroke="#000000" stroke-linecap="round" stroke-linejoin="round" stroke-width="2.79095070520184"/>
  <path d="M 44.90009197895915, 45.11998989446451 Q 44.856883001255945, 45.71107730861272, 44.805881703776, 46.78330404549703 " fill="none" id="curve_133" stroke="#000000" stroke-linecap="round" stroke-linejoin="round" stroke-width="4.138032965348721"/>
</svg>
