<?xml version="1.0" ?>
<svg height="140" width="140" xmlns="http://www.w3.org/2000/svg">
  <path d="M 64.08549897632575, 117.66154562459488 Q 56.40275469592123, 121.70007212323942, 26.012599054110517, 126.48117137454469 " fill="none" id="curve_4" stroke="#000000" stroke-linecap="round" stroke-linejoin="round" stroke-width="5.005004736117615"/>
  <path d="M 26.012599054110517, 126.48117137454469 Q 23.810821424066447, 125.38074582295249, 21.847474903509333, 123.4005310587426 " fill="none" id="curve_4" stroke="#000000" stroke-linecap="round" stroke-linejoin="round" stroke-width="5.363183988322513"/>
  <path d="M 21.847474903509333, 123.4005310587426 Q 25.215900350087967, 107.46241836184808, 38.0575097392001, 78.54474514219288 " fill="none" id="curve_4" stroke="#000000" stroke-linecap="round" stroke-linejoin="round" stroke-width="5.571306714681584"/>
  <path d="M 38.0575097392001, 78.54474514219288 Q 42.42649317027914, 72.34152796232092, 45.47860989003642, 54.4528965208874 " fill="none" id="curve_4" stroke="#000000" stroke-linecap="round" stroke-linejoin="round" stroke-width="4.519388016220643"/>
  <path d="M 45.47860989003642, 54.4528965208874 Q 43.93169642775612, 51.78055424458126, 32.600654675756275, 50.9363670585107 " fill="none" id="curve_4" stroke="#000000" stroke-linecap="round" stroke-linejoin="round" stroke-width="4.971666138210419"/>
  <path d="M 32.600654675756275, 50.9363670585107 Q 20.12341917263805, 51.83150172092203, 18.638719604462803, 67.81238789904296 " fill="none" id="curve_4" stroke="#000000" stroke-linecap="round" stroke-linejoin="round" stroke-width="5.657715510842357"/>
  <path d="M 18.638719604462803, 67.81238789904296 Q 18.65323007963998, 57.08878454047386, 19.63110890528828, 56.54263758662213 " fill="none" id="curve_4" stroke="#000000" stroke-linecap="round" stroke-linejoin="round" stroke-width="3.720326987283814"/>
  <path d="M 19.63110890528828, 56.54263758662213 Q 23.37696265019473, 53.54211498710765, 33.563878524223725, 51.924494860500516 " fill="none" id="curve_4" stroke="#000000" stroke-linecap="round" stroke-linejoin="round" stroke-width="3.805146467738262"/>
  <path d="M 44.6605641644547, 58.75614950247663 Q 45.261847466029465, 59.41871385856867, 45.59329887630732, 62.22190904562217 " fill="none" id="curve_6" stroke="#000000" stroke-linecap="round" stroke-linejoin="round" stroke-width="4.855155066279586"/>
  <path d="M 66.32965573488354, 114.63965011369503 Q 59.693025023880914, 119.5787120728189, 38.186605254212, 125.26973805117049 " fill="none" id="curve_8" stroke="#000000" stroke-linecap="round" stroke-linejoin="round" stroke-width="3.2145076815354634"/>
  <path d="M 38.186605254212, 125.26973805117049 Q 33.32554924570239, 125.36511003208086, 28.30258820591731, 125.52365804354073 " fill="none" id="curve_8" stroke="#000000" stroke-linecap="round" stroke-linejoin="round" stroke-width="5.37801812193636"/>
  <path d="M 53.963326658396355, 119.97875397840559 Q 46.90330493906533, 122.38372422828166, 35.485934858333266, 124.94486980975788 " fill="none" id="curve_10" stroke="#000000" stroke-linecap="round" stroke-linejoin="round" stroke-width="3.401290195156694"/>
  <path d="M 21.358733212731394, 121.13119615635667 Q 22.59803913704652, 108.91741260700186, 28.258092782762766, 101.32688325334743 " fill="none" id="curve_11" stroke="#000000" stroke-linecap="round" stroke-linejoin="round" stroke-width="3.205484840154148"/>
  <path d="M 28.258092782762766, 101.32688325334743 Q 31.138404670249162, 90.78501060689223, 38.51985641560704, 81.9637893284171 " fill="none" id="curve_11" stroke="#000000" stroke-linecap="round" stroke-linejoin="round" stroke-width="3.8153550779453917"/>
  <path d="M 26.059453361581134, 55.93468001240625 Q 22.07658311443293, 56.35348993654154, 20.501641294959157, 59.47815898607132 " fill="none" id="curve_12" stroke="#000000" stroke-linecap="round" stroke-linejoin="round" stroke-width="3.549555086716298"/>
  <path d="M 30.258168885452715, 50.94796193767139 Q 25.79379742362645, 52.03873200492118, 22.41933216061919, 54.256480297753896 " fill="none" id="curve_13" stroke="#000000" stroke-linecap="round" stroke-linejoin="round" stroke-width="3.915204257441376"/>
  <path d="M 35.31943485806968, 88.09805033581884 Q 33.384671638121844, 88.21631130802008, 31.666292632302557, 88.57429081676398 " fill="none" id="curve_14" stroke="#000000" stroke-linecap="round" stroke-linejoin="round" stroke-width="4.502586367042195"/>
  <path d="M 52.08586885301715, 121.81581491398154 Q 41.359148110608814, 123.26858050946645, 29.42828485979549, 125.58457401406955 " fill="none" id="curve_31" stroke="#000000" stroke-linecap="round" stroke-linejoin="round" stroke-width="4.233853374170577"/>
  <path d="M 51.15547090933464, 121.37375331500343 Q 46.93257404965546, 122.41448897339717, 41.20267323965234, 123.68824517425547 " fill="none" id="curve_32" stroke="#000000" stroke-linecap="round" stroke-linejoin="round" stroke-width="4.703060021583773"/>
  <path d="M 40.51075710436441, 65.99616454946579 Q 42.556419260848536, 62.23771377536644, 45.80991383967898, 57.674962766435705 " fill="none" id="curve_34" stroke="#000000" stroke-linecap="round" stroke-linejoin="round" stroke-width="3.064800329147842"/>
  <path d="M 36.991228672051875, 49.43064733384213 Q 33.182721914398115, 51.985136258916334, 24.93940183564913, 53.98636985354141 " fill="none" id="curve_35" stroke="#000000" stroke-linecap="round" stroke-linejoin="round" stroke-width="4.066763420922589"/>
  <path d="M 50.438959574721935, 122.51214738476006 Q 50.4376942084344, 122.12699820580465, 50.43554990411494, 121.49295342731493 " fill="none" id="curve_59" stroke="#000000" stroke-linecap="round" stroke-linejoin="round" stroke-width="4.601428053802038"/>
  <path d="M 29.829727024273208, 124.46250628714813 Q 34.29088106278957, 124.39964425180094, 41.1066662653804, 124.31468568693893 " fill="none" id="curve_61" stroke="#000000" stroke-linecap="round" stroke-linejoin="round" stroke-width="3.4809391331140054"/>
  <path d="M 29.87394299579308, 127.32098121480777 Q 32.454067393397466, 126.82625288532479, 35.54506111351425, 126.04765140964483 " fill="none" id="curve_64" stroke="#000000" stroke-linecap="round" stroke-linejoin="round" stroke-width="3.5686631834951363"/>
  <path d="M 28.244237901411637, 99.08432030731178 Q 32.251473968692345, 95.40733471627598, 35.64845782358107, 85.32493575015766 " fill="none" id="curve_73" stroke="#000000" stroke-linecap="round" stroke-linejoin="round" stroke-width="2.814037543643547"/>
  <path d="M 48.24335603549147, 122.14515923712406 Q 48.1930293718788, 123.09027569062494, 48.02539752354399, 123.5738680107296 " fill="none" id="curve_88" stroke="#000000" stroke-linecap="round" stroke-linejoin="round" stroke-width="4.987696595978223"/>
  <path d="M 58.54944359359432, 117.57641906302521 Q 57.717040472495114, 121.44715077149009, 42.815195400097394, 122.04985728692866 " fill="none" id="curve_117" stroke="#000000" stroke-linecap="round" stroke-linejoin="round" stroke-width="4.975791754006597"/>
  <path d="M 44.4890775844921, 57.7510423984306 Q 44.64005675893947, 57.71655453529295, 44.75933743954306, 57.62415436311864 " fill="none" id="curve_121" stroke="#000000" stroke-linecap="round" stroke-linejoin="round" stroke-width="3.4389000090061668"/>
  <path d="M 43.01201364659289, 59.18243807691749 Q 43.64007856743231, 58.33430492535489, 46.0478401752757, 57.90586108681449 " fill="none" id="curve_162" stroke="#000000" stroke-linecap="round" stroke-linejoin="round" stroke-width="3.6195740830805696"/>
</svg>
