<?xml version="1.0" ?>
<svg height="140" width="140" xmlns="http://www.w3.org/2000/svg">
  <path d="M 70.46865844726562, 45.671831130981445 Q 72.33620018116444, 46.167809818605626, 74.30664775070858, 47.422264619094165 " fill="none" id="curve_1" stroke="#000000" stroke-linecap="round" stroke-linejoin="round" stroke-width="7.407376479234409"/>
  <path d="M 74.30664775070858, 47.422264619094165 Q 71.47954460782033, 55.11283192804974, 58.009557845804, 66.82786721351327 " fill="none" id="curve_1" stroke="#000000" stroke-linecap="round" stroke-linejoin="round" stroke-width="4.13520244759063"/>
  <path d="M 58.009557845804, 66.82786721351327 Q 51.236321425663654, 70.68607158040653, 33.821258365397696, 84.17491857945745 " fill="none" id="curve_1" stroke="#000000" stroke-linecap="round" stroke-linejoin="round" stroke-width="4.667404841489498"/>
  <path d="M 33.821258365397696, 84.17491857945745 Q 26.750957638771908, 88.70310129106254, 6.837102184010099, 104.98459860074753 " fill="none" id="curve_1" stroke="#000000" stroke-linecap="round" stroke-linejoin="round" stroke-width="4.613213928580677"/>
  <path d="M 6.837102184010099, 104.98459860074753 Q 4.50950111871995, 106.5408315703361, 3.7082101483185075, 112.27905324011748 " fill="none" id="curve_1" stroke="#000000" stroke-linecap="round" stroke-linejoin="round" stroke-width="4.590820258970259"/>
  <path d="M 3.7082101483185075, 112.27905324011748 Q 3.914441325874236, 113.55049701439127, 14.550512464899038, 113.5997103609953 " fill="none" id="curve_1" stroke="#000000" stroke-linecap="round" stroke-linejoin="round" stroke-width="4.826904297585267"/>
  <path d="M 14.550512464899038, 113.5997103609953 Q 40.31782300954144, 113.30608621186809, 50.209148906798625, 110.98992837311376 " fill="none" id="curve_1" stroke="#000000" stroke-linecap="round" stroke-linejoin="round" stroke-width="5.371850984503197"/>
  <path d="M 50.209148906798625, 110.98992837311376 Q 55.55824391200275, 110.34168927810329, 60.06236798576353, 109.36068052074505 " fill="none" id="curve_1" stroke="#000000" stroke-linecap="round" stroke-linejoin="round" stroke-width="6.317262523682306"/>
  <path d="M 60.06236798576353, 109.36068052074505 Q 49.10980280111099, 110.77691790922616, 37.41575239609827, 112.67551696607427 " fill="none" id="curve_1" stroke="#000000" stroke-linecap="round" stroke-linejoin="round" stroke-width="3.409345162862321"/>
  <path d="M 37.41575239609827, 112.67551696607427 Q 22.620878028931063, 112.66461788892417, 14.165688097365514, 112.63120605853817 " fill="none" id="curve_1" stroke="#000000" stroke-linecap="round" stroke-linejoin="round" stroke-width="3.2555395719957905"/>
  <path d="M 48.07438273706168, 114.01661179681724 Q 43.07868925245943, 113.42905880684016, 40.02800285113585, 111.81530306551505 " fill="none" id="curve_2" stroke="#000000" stroke-linecap="round" stroke-linejoin="round" stroke-width="4.409949336469599"/>
  <path d="M 70.08252774287163, 42.57105308506374 Q 42.709868667196275, 42.75059770986741, 37.01453927404554, 48.501884243926106 " fill="none" id="curve_4" stroke="#000000" stroke-linecap="round" stroke-linejoin="round" stroke-width="4.635656089074456"/>
  <path d="M 37.01453927404554, 48.501884243926106 Q 29.567367399777442, 49.633863562072484, 27.178063181701205, 54.369756670647504 " fill="none" id="curve_4" stroke="#000000" stroke-linecap="round" stroke-linejoin="round" stroke-width="4.328004126893182"/>
  <path d="M 54.54000195707752, 41.58493817312144 Q 73.28705614041267, 41.691378559487944, 74.70495099467941, 44.398402534315174 " fill="none" id="curve_5" stroke="#000000" stroke-linecap="round" stroke-linejoin="round" stroke-width="3.3849967487945647"/>
  <path d="M 54.14641262616794, 41.57891571802239 Q 41.00669597921438, 42.871590341710274, 32.64896412695347, 49.07451927424404 " fill="none" id="curve_6" stroke="#000000" stroke-linecap="round" stroke-linejoin="round" stroke-width="3.2701823833819743"/>
  <path d="M 59.19242241763542, 39.938527666691805 Q 66.9083334887677, 40.90987879902477, 70.14065026542305, 44.3497447657327 " fill="none" id="curve_7" stroke="#000000" stroke-linecap="round" stroke-linejoin="round" stroke-width="3.0055297686160554"/>
  <path d="M 53.79484124003919, 69.28448038360509 Q 48.55960823414016, 70.33102450745143, 46.15195319822034, 75.03952956717498 " fill="none" id="curve_8" stroke="#000000" stroke-linecap="round" stroke-linejoin="round" stroke-width="2.9449453936602925"/>
  <path d="M 18.701945660861842, 95.20162230291676 Q 12.99099438319939, 97.13059218401763, 9.561673452682774, 102.51719345120547 " fill="none" id="curve_9" stroke="#000000" stroke-linecap="round" stroke-linejoin="round" stroke-width="2.948790280982879"/>
  <path d="M 37.29544278919829, 111.55742454441781 Q 37.256457180992946, 111.32936513744346, 37.21113312227254, 110.98182589638036 " fill="none" id="curve_10" stroke="#000000" stroke-linecap="round" stroke-linejoin="round" stroke-width="5.432662819080174"/>
  <path d="M 70.44056567702334, 54.627006468190515 Q 69.10102152783861, 55.17369653989092, 66.80167382790327, 55.9309022556093 " fill="none" id="curve_12" stroke="#000000" stroke-linecap="round" stroke-linejoin="round" stroke-width="3.626011165574197"/>
  <path d="M 47.741277836033476, 111.68773148971871 Q 50.345238856629, 108.94997212185645, 57.60331263236499, 107.27874616049137 " fill="none" id="curve_40" stroke="#000000" stroke-linecap="round" stroke-linejoin="round" stroke-width="3.1567267452521954"/>
  <path d="M 42.215926282010635, 114.15680772272289 Q 40.596956545323025, 113.70775023778221, 38.89676667136384, 113.0747139634856 " fill="none" id="curve_41" stroke="#000000" stroke-linecap="round" stroke-linejoin="round" stroke-width="4.222993480701952"/>
  <path d="M 42.42177832154312, 47.15602472540145 Q 42.5031225492182, 46.58960563555016, 42.78078069913782, 46.107360849346726 " fill="none" id="curve_43" stroke="#000000" stroke-linecap="round" stroke-linejoin="round" stroke-width="2.9537938426152626"/>
  <path d="M 10.582688315444543, 101.79571177950955 Q 14.76988523012032, 95.69526136438571, 25.08863343489778, 90.08089990623384 " fill="none" id="curve_52" stroke="#000000" stroke-linecap="round" stroke-linejoin="round" stroke-width="2.52119987442164"/>
  <path d="M 49.87765121459961, 69.87283182144165 Q 49.85418051392079, 73.62726513076656, 48.925504269228405, 73.85993631117412 " fill="none" id="curve_66" stroke="#000000" stroke-linecap="round" stroke-linejoin="round" stroke-width="4.148514879305337"/>
  <path d="M 69.0436704916258, 58.338391274079456 Q 69.4756100546953, 56.8595281826433, 70.41583919966769, 55.62516269994881 " fill="none" id="curve_67" stroke="#000000" stroke-linecap="round" stroke-linejoin="round" stroke-width="4.785669624399824"/>
  <path d="M 66.6457362718101, 41.58705174179407 Q 66.52984329356954, 40.8949748184402, 66.11455685784419, 40.36407725317138 " fill="none" id="curve_83" stroke="#000000" stroke-linecap="round" stroke-linejoin="round" stroke-width="3.3143542196836937"/>
  <path d="M 53.441728678185946, 68.90063509846706 Q 51.694269534803965, 69.60293911519051, 48.6122214469479, 71.10590042682581 " fill="none" id="curve_92" stroke="#000000" stroke-linecap="round" stroke-linejoin="round" stroke-width="2.578788811377223"/>
  <path d="M 9.763416070538401, 115.50191611938484 Q 8.531505862852915, 110.77653059547309, 2.624228885501439, 108.8101877092098 " fill="none" id="curve_109" stroke="#000000" stroke-linecap="round" stroke-linejoin="round" stroke-width="2.822491978870589"/>
  <path d="M 20.013728568891725, 111.69990985328742 Q 22.44253987263375, 111.71935576248795, 28.413486579270764, 111.73050071050217 " fill="none" id="curve_110" stroke="#000000" stroke-linecap="round" stroke-linejoin="round" stroke-width="2.430417952949849"/>
  <path d="M 36.69881949952658, 82.32933154508656 Q 37.83215912007194, 82.13837570169918, 38.70312188802483, 81.67238536454042 " fill="none" id="curve_111" stroke="#000000" stroke-linecap="round" stroke-linejoin="round" stroke-width="3.728254609057391"/>
  <path d="M 62.327040672302246, 42.07705307006836 Q 64.26783341820084, 43.02714479783034, 68.83767320192626, 44.08832752896234 " fill="none" id="curve_164" stroke="#000000" stroke-linecap="round" stroke-linejoin="round" stroke-width="2.1951084258495737"/>
</svg>
