<?xml version="1.0" ?>
<svg height="140" width="140" xmlns="http://www.w3.org/2000/svg">
  <path d="M 69.57373237609863, 111.41511344909668 Q 70.4980503281225, 111.22722954285233, 71.51218833506945, 110.74198451903666 " fill="none" id="curve_1" stroke="#000000" stroke-linecap="round" stroke-linejoin="round" stroke-width="4.02535879502322"/>
  <path d="M 71.51218833506945, 110.74198451903666 Q 69.91544799034895, 113.05693000431279, 57.34132928106872, 113.82155317662453 " fill="none" id="curve_1" stroke="#000000" stroke-linecap="round" stroke-linejoin="round" stroke-width="7.381138070610794"/>
  <path d="M 57.34132928106872, 113.82155317662453 Q 56.56884152088497, 115.41977481845764, 42.70486078448439, 115.57975647332148 " fill="none" id="curve_1" stroke="#000000" stroke-linecap="round" stroke-linejoin="round" stroke-width="8.315205568041874"/>
  <path d="M 42.70486078448439, 115.57975647332148 Q 31.609448346593354, 116.86409313878391, 23.215408577520428, 121.27653846397638 " fill="none" id="curve_1" stroke="#000000" stroke-linecap="round" stroke-linejoin="round" stroke-width="4.663373477798833"/>
  <path d="M 23.215408577520428, 121.27653846397638 Q 8.604341251451466, 120.92330136620164, 6.664787751583475, 115.28770049361651 " fill="none" id="curve_1" stroke="#000000" stroke-linecap="round" stroke-linejoin="round" stroke-width="4.737395121482095"/>
  <path d="M 6.664787751583475, 115.28770049361651 Q 15.869979569304375, 110.11145419246098, 39.16202704003223, 101.2429037235352 " fill="none" id="curve_1" stroke="#000000" stroke-linecap="round" stroke-linejoin="round" stroke-width="4.535213567621567"/>
  <path d="M 39.16202704003223, 101.2429037235352 Q 52.600854375397425, 96.74408241572175, 62.0544648401156, 76.91614920545075 " fill="none" id="curve_1" stroke="#000000" stroke-linecap="round" stroke-linejoin="round" stroke-width="4.696825608748833"/>
  <path d="M 62.0544648401156, 76.91614920545075 Q 64.61376700194957, 68.87497209230263, 67.49999785241556, 53.42883014725117 " fill="none" id="curve_1" stroke="#000000" stroke-linecap="round" stroke-linejoin="round" stroke-width="5.7924970799411115"/>
  <path d="M 67.49999785241556, 53.42883014725117 Q 64.80820643310707, 50.943083448006824, 55.95859176225863, 49.51456302417155 " fill="none" id="curve_1" stroke="#000000" stroke-linecap="round" stroke-linejoin="round" stroke-width="5.492083368341259"/>
  <path d="M 55.95859176225863, 49.51456302417155 Q 51.86725882693283, 52.31580749614005, 33.14125913590204, 53.58976642846275 " fill="none" id="curve_1" stroke="#000000" stroke-linecap="round" stroke-linejoin="round" stroke-width="5.2432421576821024"/>
  <path d="M 33.14125913590204, 53.58976642846275 Q 24.683839282987247, 53.63864296460673, 23.635753657530653, 54.39784587500978 " fill="none" id="curve_1" stroke="#000000" stroke-linecap="round" stroke-linejoin="round" stroke-width="5.270050621881694"/>
  <path d="M 62.03978763606485, 79.15948366444302 Q 62.10810803124058, 65.9571262630944, 66.44273552008411, 65.23534618100123 " fill="none" id="curve_4" stroke="#000000" stroke-linecap="round" stroke-linejoin="round" stroke-width="3.021989339472199"/>
  <path d="M 53.26732301219194, 47.75785089399851 Q 50.710943851971244, 49.454903572148226, 46.778333336597925, 51.170160014911815 " fill="none" id="curve_5" stroke="#000000" stroke-linecap="round" stroke-linejoin="round" stroke-width="3.3015018819124893"/>
  <path d="M 23.939187098786263, 54.27302097209252 Q 23.983421609394064, 54.62765995295977, 24.035620983880815, 55.08691273142606 " fill="none" id="curve_6" stroke="#000000" stroke-linecap="round" stroke-linejoin="round" stroke-width="4.54174638947836"/>
  <path d="M 34.40942807443066, 113.08202105765113 Q 38.22710132050371, 113.03166540991992, 42.05557757034396, 112.93413664270211 " fill="none" id="curve_8" stroke="#000000" stroke-linecap="round" stroke-linejoin="round" stroke-width="3.3752649554411263"/>
  <path d="M 24.69596236164166, 107.64326314526906 Q 11.228376089948956, 108.89634946230251, 5.246645779400225, 114.55991041305542 " fill="none" id="curve_9" stroke="#000000" stroke-linecap="round" stroke-linejoin="round" stroke-width="3.970623673019663"/>
  <path d="M 5.246645779400225, 114.55991041305542 Q 7.720981962488257, 119.07765530639848, 18.18496850113064, 120.44515771541529 " fill="none" id="curve_9" stroke="#000000" stroke-linecap="round" stroke-linejoin="round" stroke-width="4.252539779928662"/>
  <path d="M 37.47454518635155, 100.30875228526489 Q 43.93897086135218, 97.92330697110336, 49.56839463498714, 93.64904389771812 " fill="none" id="curve_10" stroke="#000000" stroke-linecap="round" stroke-linejoin="round" stroke-width="3.0366516368500736"/>
  <path d="M 63.33281059282049, 115.25361627938099 Q 67.3874022880459, 115.15212117289416, 69.07507319174798, 114.78576181675766 " fill="none" id="curve_11" stroke="#000000" stroke-linecap="round" stroke-linejoin="round" stroke-width="3.5037144109254177"/>
  <path d="M 58.527004343417865, 83.72196685117936 Q 60.26354311966321, 76.77570411990082, 63.36655138683547, 67.63095082699678 " fill="none" id="curve_12" stroke="#000000" stroke-linecap="round" stroke-linejoin="round" stroke-width="3.184411255373796"/>
  <path d="M 24.86077021889228, 52.87083784352359 Q 23.92786590629445, 52.43609654773051, 22.811475691616415, 51.791680679869415 " fill="none" id="curve_15" stroke="#000000" stroke-linecap="round" stroke-linejoin="round" stroke-width="2.8036564563998065"/>
  <path d="M 57.92778509732243, 51.343457494450355 Q 62.21304770356574, 50.610033021552994, 69.00965475252978, 49.787425023862205 " fill="none" id="curve_16" stroke="#000000" stroke-linecap="round" stroke-linejoin="round" stroke-width="2.296937491821862"/>
  <path d="M 58.04615703801053, 84.96407567899178 Q 53.40964511329316, 86.6199473537845, 50.685488170849105, 92.35942512301901 " fill="none" id="curve_17" stroke="#000000" stroke-linecap="round" stroke-linejoin="round" stroke-width="3.6446724705128655"/>
  <path d="M 67.31156709052811, 59.37975736753265 Q 65.75139409842807, 57.065883951085816, 62.9052031787123, 53.52918079946788 " fill="none" id="curve_22" stroke="#000000" stroke-linecap="round" stroke-linejoin="round" stroke-width="3.0345582308007852"/>
  <path d="M 57.773497477549675, 88.12597896098703 Q 60.04560269279975, 74.32601687003269, 68.60416850701958, 58.63796941175375 " fill="none" id="curve_23" stroke="#000000" stroke-linecap="round" stroke-linejoin="round" stroke-width="2.6029896134903"/>
  <path d="M 55.02501477329992, 84.27809733177698 Q 58.3588424125886, 82.96564479897798, 62.252120154252566, 80.98914000137862 " fill="none" id="curve_25" stroke="#000000" stroke-linecap="round" stroke-linejoin="round" stroke-width="2.723039048386268"/>
  <path d="M 67.81237176277222, 62.61469247336282 Q 63.18394068328457, 67.40061971826375, 58.98751238982787, 76.02761262522276 " fill="none" id="curve_36" stroke="#000000" stroke-linecap="round" stroke-linejoin="round" stroke-width="2.7327634697043766"/>
  <path d="M 58.35492806806938, 116.27403997714752 Q 60.92643951701914, 116.19486817683553, 62.13353095390616, 115.86648262443583 " fill="none" id="curve_38" stroke="#000000" stroke-linecap="round" stroke-linejoin="round" stroke-width="3.664160781928699"/>
  <path d="M 50.21650410526853, 118.37883605667892 Q 49.59495514852621, 117.54320076412884, 48.53731658941776, 116.59986798024018 " fill="none" id="curve_39" stroke="#000000" stroke-linecap="round" stroke-linejoin="round" stroke-width="4.415075776396183"/>
  <path d="M 17.28246296534828, 121.52898676708824 Q 11.217492418530751, 120.59669467525984, 8.224002782315866, 116.9789886398262 " fill="none" id="curve_57" stroke="#000000" stroke-linecap="round" stroke-linejoin="round" stroke-width="3.216354060406922"/>
  <path d="M 41.620282074313195, 99.20327112137528 Q 33.313646724973495, 101.16986026433501, 27.441739304486156, 109.04244710024227 " fill="none" id="curve_98" stroke="#000000" stroke-linecap="round" stroke-linejoin="round" stroke-width="2.2212676333712253"/>
  <path d="M 23.2733315420014, 57.134622180060546 Q 23.95801723666491, 56.60966068175873, 24.791816165337636, 55.50165676232533 " fill="none" id="curve_104" stroke="#000000" stroke-linecap="round" stroke-linejoin="round" stroke-width="2.3149667915728633"/>
  <path d="M 40.405692440044255, 52.17382209536708 Q 46.38803425503736, 51.644564777642785, 63.21969675020917, 51.27580684507209 " fill="none" id="curve_122" stroke="#000000" stroke-linecap="round" stroke-linejoin="round" stroke-width="2.1414161072340874"/>
  <path d="M 44.7929255451927, 114.65329109275262 Q 44.31411884264277, 112.61189702322024, 38.34116049368165, 112.09980852400126 " fill="none" id="curve_137" stroke="#000000" stroke-linecap="round" stroke-linejoin="round" stroke-width="2.1731902306459365"/>
  <path d="M 56.075889192422764, 52.12885915987764 Q 57.97625019266981, 51.76950487265931, 62.953189111289475, 51.18271009521749 " fill="none" id="curve_168" stroke="#000000" stroke-linecap="round" stroke-linejoin="round" stroke-width="1.9200293856882436"/>
  <path d="M 31.379590711710208, 103.89080030440701 Q 37.85023004680164, 101.45841428384371, 46.253756376918574, 97.31977558032003 " fill="none" id="curve_184" stroke="#000000" stroke-linecap="round" stroke-linejoin="round" stroke-width="2.3914755318047667"/>
</svg>
