<?xml version="1.0" ?>
<svg height="140" width="140" xmlns="http://www.w3.org/2000/svg">
  <path d="M 48.69359111785889, 53.6330451965332 Q 50.217279766694396, 53.852768066046686, 50.55363939570407, 56.90666999455789 " fill="none" id="curve_1" stroke="#000000" stroke-linecap="round" stroke-linejoin="round" stroke-width="7.401502411159461"/>
  <path d="M 50.55363939570407, 56.90666999455789 Q 48.768769602901365, 66.93299248953431, 37.31936806121864, 76.8068905333907 " fill="none" id="curve_1" stroke="#000000" stroke-linecap="round" stroke-linejoin="round" stroke-width="5.345191178004667"/>
  <path d="M 37.31936806121864, 76.8068905333907 Q 31.72465698018113, 83.43186743993778, 24.149332064040024, 92.5655800066659 " fill="none" id="curve_1" stroke="#000000" stroke-linecap="round" stroke-linejoin="round" stroke-width="5.562568342524634"/>
  <path d="M 24.149332064040024, 92.5655800066659 Q 24.33066063450423, 103.12729603254897, 34.856521606169, 103.49679932691956 " fill="none" id="curve_1" stroke="#000000" stroke-linecap="round" stroke-linejoin="round" stroke-width="5.176651670094846"/>
  <path d="M 34.856521606169, 103.49679932691956 Q 54.65551015173312, 102.58344380923762, 68.16338775362993, 97.208515813866 " fill="none" id="curve_1" stroke="#000000" stroke-linecap="round" stroke-linejoin="round" stroke-width="4.522750121223242"/>
  <path d="M 68.16338775362993, 97.208515813866 Q 74.96820560571862, 96.58046194881871, 78.46245844450418, 94.77222166155644 " fill="none" id="curve_1" stroke="#000000" stroke-linecap="round" stroke-linejoin="round" stroke-width="3.233974658613481"/>
  <path d="M 46.78609804347921, 55.502975235177544 Q 46.82679616014744, 52.698822429009965, 48.16462939110261, 52.50085753087002 " fill="none" id="curve_2" stroke="#000000" stroke-linecap="round" stroke-linejoin="round" stroke-width="5.656051735564555"/>
  <path d="M 48.16462939110261, 52.50085753087002 Q 30.996709082931673, 53.17327313426507, 22.443068765207496, 60.193592260631306 " fill="none" id="curve_2" stroke="#000000" stroke-linecap="round" stroke-linejoin="round" stroke-width="5.333842899528594"/>
  <path d="M 22.443068765207496, 60.193592260631306 Q 12.5525131648402, 64.27144103325811, 7.156997715097761, 78.38287517821806 " fill="none" id="curve_2" stroke="#000000" stroke-linecap="round" stroke-linejoin="round" stroke-width="4.604973209470894"/>
  <path d="M 7.156997715097761, 78.38287517821806 Q 7.8813890845319285, 80.41850253998179, 9.196763189001675, 81.90300439989717 " fill="none" id="curve_2" stroke="#000000" stroke-linecap="round" stroke-linejoin="round" stroke-width="4.349854959021691"/>
  <path d="M 35.950723361513525, 102.20703486493585 Q 47.539059434111685, 101.58212922374328, 56.957621360895814, 99.98933389035983 " fill="none" id="curve_3" stroke="#000000" stroke-linecap="round" stroke-linejoin="round" stroke-width="2.435643728877101"/>
  <path d="M 41.171556880493156, 51.407220002279175 Q 28.07358362450258, 52.644282645796494, 21.433784648597346, 61.232537271396254 " fill="none" id="curve_5" stroke="#000000" stroke-linecap="round" stroke-linejoin="round" stroke-width="2.7491145199519003"/>
  <path d="M 21.433784648597346, 61.232537271396254 Q 14.974956098939764, 66.05961318837414, 6.640945763209698, 73.54584024108053 " fill="none" id="curve_5" stroke="#000000" stroke-linecap="round" stroke-linejoin="round" stroke-width="2.810841412953414"/>
  <path d="M 27.53285195465842, 99.93261166534869 Q 33.95864074062425, 100.58820791851268, 37.11120433679143, 103.01284356127601 " fill="none" id="curve_6" stroke="#000000" stroke-linecap="round" stroke-linejoin="round" stroke-width="2.024513190323943"/>
  <path d="M 29.37121774379024, 81.15545536524054 Q 32.70113050422741, 77.80924113581014, 39.61786650138295, 75.09523057736914 " fill="none" id="curve_7" stroke="#000000" stroke-linecap="round" stroke-linejoin="round" stroke-width="2.7811449683107945"/>
  <path d="M 37.52823026966712, 77.36806619538595 Q 42.98819303341609, 70.87144067984725, 50.130159284367004, 59.176314417494446 " fill="none" id="curve_13" stroke="#000000" stroke-linecap="round" stroke-linejoin="round" stroke-width="2.441153012022948"/>
  <path d="M 79.48435521731179, 94.05360451338647 Q 79.61234162538734, 94.00253752711019, 79.76629549620087, 93.8899859180489 " fill="none" id="curve_15" stroke="#000000" stroke-linecap="round" stroke-linejoin="round" stroke-width="2.176416524790762"/>
  <path d="M 38.654792377963474, 76.74265350401836 Q 40.30526177768221, 74.66412785562792, 42.21594017740121, 70.41105560504695 " fill="none" id="curve_22" stroke="#000000" stroke-linecap="round" stroke-linejoin="round" stroke-width="3.539251405578883"/>
  <path d="M 55.6030166237565, 100.51876807924225 Q 58.61872460541463, 99.35209977608399, 63.217597315210035, 98.05644463478026 " fill="none" id="curve_37" stroke="#000000" stroke-linecap="round" stroke-linejoin="round" stroke-width="2.5824856232140916"/>
  <path d="M 49.81437396110927, 55.071457076228675 Q 50.34152913442288, 53.635478931340124, 51.45656740831971, 52.43602325355257 " fill="none" id="curve_39" stroke="#000000" stroke-linecap="round" stroke-linejoin="round" stroke-width="3.660471646641861"/>
  <path d="M 62.7892326692363, 98.4343906761228 Q 61.074419947704726, 98.22419669297327, 58.27754167508577, 97.96515856049258 " fill="none" id="curve_93" stroke="#000000" stroke-linecap="round" stroke-linejoin="round" stroke-width="2.5310000774428514"/>
</svg>
