<?xml version="1.0" ?>
<svg height="140" width="140" xmlns="http://www.w3.org/2000/svg">
  <path d="M 85.35541534423828, 76.5198564529419 Q 85.17071823914198, 75.96639342110522, 77.7777117015122, 75.92093286051713 " fill="none" id="curve_1" stroke="#000000" stroke-linecap="round" stroke-linejoin="round" stroke-width="7.802541772769334"/>
  <path d="M 77.7777117015122, 75.92093286051713 Q 76.08085243559023, 76.27654795790697, 64.68388832130171, 76.38780805839109 " fill="none" id="curve_1" stroke="#000000" stroke-linecap="round" stroke-linejoin="round" stroke-width="6.968699367755068"/>
  <path d="M 64.68388832130171, 76.38780805839109 Q 55.61370865563505, 75.95557943967266, 39.468292541108084, 74.98470651180261 " fill="none" id="curve_1" stroke="#000000" stroke-linecap="round" stroke-linejoin="round" stroke-width="6.860657139560939"/>
  <path d="M 39.468292541108084, 74.98470651180261 Q 27.67431016576797, 74.7219775142864, 21.954832422912553, 73.7361203816314 " fill="none" id="curve_1" stroke="#000000" stroke-linecap="round" stroke-linejoin="round" stroke-width="5.44352497841196"/>
  <path d="M 21.954832422912553, 73.7361203816314 Q 29.610808814003892, 66.60505829141451, 47.73222886115325, 59.796308551793054 " fill="none" id="curve_1" stroke="#000000" stroke-linecap="round" stroke-linejoin="round" stroke-width="5.806482966072325"/>
  <path d="M 47.73222886115325, 59.796308551793054 Q 53.17203937548924, 53.93142893777312, 58.71518602961825, 45.76873292272825 " fill="none" id="curve_1" stroke="#000000" stroke-linecap="round" stroke-linejoin="round" stroke-width="6.428939468634186"/>
  <path d="M 58.71518602961825, 45.76873292272825 Q 54.898295702316425, 36.48549291127259, 33.833783295769955, 30.52232477316052 " fill="none" id="curve_1" stroke="#000000" stroke-linecap="round" stroke-linejoin="round" stroke-width="6.494032018694638"/>
  <path d="M 33.833783295769955, 30.52232477316052 Q 24.928274716025925, 31.110983648485487, 17.454757068850796, 32.038686848980646 " fill="none" id="curve_1" stroke="#000000" stroke-linecap="round" stroke-linejoin="round" stroke-width="4.587992305777912"/>
  <path d="M 28.34441080516166, 66.90863798028829 Q 23.040423579031245, 68.07730936771937, 20.604700799512457, 71.4937471139783 " fill="none" id="curve_2" stroke="#000000" stroke-linecap="round" stroke-linejoin="round" stroke-width="4.364395156942289"/>
  <path d="M 48.51655095326959, 54.98301563938976 Q 54.468959694543074, 52.683215678708244, 57.633769926776196, 42.06194657455809 " fill="none" id="curve_3" stroke="#000000" stroke-linecap="round" stroke-linejoin="round" stroke-width="3.336280658025685"/>
  <path d="M 90.12922732483125, 32.113598983587664 Q 89.86203890582796, 39.905988516131, 89.49705426897128, 65.25279756276093 " fill="none" id="curve_4" stroke="#000000" stroke-linecap="round" stroke-linejoin="round" stroke-width="1.608551749491156"/>
  <path d="M 89.49705426897128, 65.25279756276093 Q 89.86128171547318, 69.72482170767563, 90.04986027293697, 94.06173152726592 " fill="none" id="curve_4" stroke="#000000" stroke-linecap="round" stroke-linejoin="round" stroke-width="1.6885145796292138"/>
  <path d="M 90.04986027293697, 94.06173152726592 Q 89.9661540439629, 106.24937410920856, 89.66602130540775, 126.03634259919123 " fill="none" id="curve_4" stroke="#000000" stroke-linecap="round" stroke-linejoin="round" stroke-width="1.5174096761868208"/>
  <path d="M 89.66602130540775, 126.03634259919123 Q 89.63204538014956, 134.36386140385068, 89.5284522257057, 138.23208379079495 " fill="none" id="curve_4" stroke="#000000" stroke-linecap="round" stroke-linejoin="round" stroke-width="2.6546419374888113"/>
  <path d="M 83.93776634204416, 77.32221687716942 Q 83.94818901585252, 76.4191798719206, 83.95737649172594, 74.59958701055773 " fill="none" id="curve_7" stroke="#000000" stroke-linecap="round" stroke-linejoin="round" stroke-width="4.370091578345626"/>
  <path d="M 83.95737649172594, 74.59958701055773 Q 83.67224513429169, 76.52984234000301, 82.0828662231558, 76.99361868099643 " fill="none" id="curve_7" stroke="#000000" stroke-linecap="round" stroke-linejoin="round" stroke-width="6.386269839721762"/>
  <path d="M 26.0019746462966, 66.95932230410605 Q 32.9686924701879, 65.11720151389525, 44.157401050664106, 62.596299676099505 " fill="none" id="curve_10" stroke="#000000" stroke-linecap="round" stroke-linejoin="round" stroke-width="3.263814694695981"/>
  <path d="M 26.870825269473613, 76.40375654534974 Q 28.41883565764392, 76.653278945075, 36.85889063189616, 76.74571094074511 " fill="none" id="curve_11" stroke="#000000" stroke-linecap="round" stroke-linejoin="round" stroke-width="3.267536708363922"/>
  <path d="M 89.01708031240015, 19.85479952040924 Q 89.42435877644276, 18.293045797663147, 89.5452350103066, 1.2151859478560176 " fill="none" id="curve_15" stroke="#000000" stroke-linecap="round" stroke-linejoin="round" stroke-width="1.9868396477143737"/>
  <path d="M 89.6880671366225, 29.206932504942994 Q 89.53879812577468, 29.607751470504276, 89.37583850197777, 30.528749638063704 " fill="none" id="curve_16" stroke="#000000" stroke-linecap="round" stroke-linejoin="round" stroke-width="1.980951302456534"/>
  <path d="M 57.402514930406696, 38.55123341171003 Q 43.66370804573319, 38.098549274414175, 39.50418392556608, 34.07807820856098 " fill="none" id="curve_17" stroke="#000000" stroke-linecap="round" stroke-linejoin="round" stroke-width="2.620459731107292"/>
  <path d="M 39.50418392556608, 34.07807820856098 Q 45.74865407463109, 36.872145200267305, 52.6981978388941, 40.17383421615589 " fill="none" id="curve_17" stroke="#000000" stroke-linecap="round" stroke-linejoin="round" stroke-width="2.5377597941157335"/>
  <path d="M 43.27423297063925, 60.267233739862675 Q 48.434775116740795, 55.11784044581434, 55.30851853631236, 48.60618885669918 " fill="none" id="curve_18" stroke="#000000" stroke-linecap="round" stroke-linejoin="round" stroke-width="3.980421457851133"/>
  <path d="M 28.28417746288945, 28.353615592118096 Q 42.90494732739347, 29.750309981982756, 48.437034033479776, 37.846852612071245 " fill="none" id="curve_35" stroke="#000000" stroke-linecap="round" stroke-linejoin="round" stroke-width="2.7094296007119416"/>
  <path d="M 30.818219661712646, 66.07385301589966 Q 35.834207113866725, 65.43276533470737, 42.38141895738681, 64.03134615364388 " fill="none" id="curve_49" stroke="#000000" stroke-linecap="round" stroke-linejoin="round" stroke-width="3.93349776655704"/>
  <path d="M 56.107527254242044, 51.02329379211373 Q 56.041201970701074, 41.97688586282612, 55.272254415362774, 39.13983402399035 " fill="none" id="curve_51" stroke="#000000" stroke-linecap="round" stroke-linejoin="round" stroke-width="3.627038661853505"/>
  <path d="M 81.27784479708498, 73.35896873670617 Q 81.94571704135925, 73.90407405109887, 82.67776342623547, 74.77704180217285 " fill="none" id="curve_79" stroke="#000000" stroke-linecap="round" stroke-linejoin="round" stroke-width="4.113187959515178"/>
  <path d="M 55.79273319684822, 37.69217710781989 Q 54.873692272622016, 37.17993464449197, 49.7700200827622, 36.67029700692269 " fill="none" id="curve_81" stroke="#000000" stroke-linecap="round" stroke-linejoin="round" stroke-width="2.652312476861381"/>
  <path d="M 37.97766045477459, 30.75408121189549 Q 44.539435276944616, 34.160358518491336, 50.901439108449125, 40.7664556983643 " fill="none" id="curve_123" stroke="#000000" stroke-linecap="round" stroke-linejoin="round" stroke-width="2.464038719126702"/>
</svg>
