<?xml version="1.0" ?>
<svg height="140" width="140" xmlns="http://www.w3.org/2000/svg">
  <path d="M 87.5964241027832, 37.30329132080078 Q 89.31583959918203, 37.43787106682556, 89.54791634612081, 40.52016685619242 " fill="none" id="curve_1" stroke="#000000" stroke-linecap="round" stroke-linejoin="round" stroke-width="2.32931144852571"/>
  <path d="M 89.54791634612081, 40.52016685619242 Q 89.33871141005672, 47.16479429810651, 89.15563273580274, 64.10221390728658 " fill="none" id="curve_1" stroke="#000000" stroke-linecap="round" stroke-linejoin="round" stroke-width="2.2082574365047454"/>
  <path d="M 89.15563273580274, 64.10221390728658 Q 89.14013788818721, 73.7294209979782, 89.11922656573499, 87.41700925036291 " fill="none" id="curve_1" stroke="#000000" stroke-linecap="round" stroke-linejoin="round" stroke-width="1.8015430232037357"/>
  <path d="M 89.11922656573499, 87.41700925036291 Q 89.21389956141006, 93.82152622852296, 89.46692521009776, 120.4374543422181 " fill="none" id="curve_1" stroke="#000000" stroke-linecap="round" stroke-linejoin="round" stroke-width="2.3520995414192702"/>
  <path d="M 89.46692521009776, 120.4374543422181 Q 89.37398871394953, 132.36558420255352, 89.1392324626413, 138.4208065220704 " fill="none" id="curve_1" stroke="#000000" stroke-linecap="round" stroke-linejoin="round" stroke-width="2.4909100407064817"/>
  <path d="M 89.15355477333001, 138.77410728105252 Q 89.08096666791842, 138.85807094638122, 88.96414759370867, 138.95425982937954 " fill="none" id="curve_3" stroke="#000000" stroke-linecap="round" stroke-linejoin="round" stroke-width="1.8909870591242983"/>
  <path d="M 56.399018834709395, 111.18261716427524 Q 53.3970492861494, 113.23238191986464, 46.50386769640373, 114.69221184315403 " fill="none" id="curve_5" stroke="#000000" stroke-linecap="round" stroke-linejoin="round" stroke-width="5.634269944156509"/>
  <path d="M 46.50386769640373, 114.69221184315403 Q 37.2006961943909, 114.34841537190303, 34.84782544537619, 110.95260891814878 " fill="none" id="curve_5" stroke="#000000" stroke-linecap="round" stroke-linejoin="round" stroke-width="6.472877567754761"/>
  <path d="M 34.84782544537619, 110.95260891814878 Q 33.6052874711524, 108.60652108843215, 31.22772666235088, 107.17065238705219 " fill="none" id="curve_5" stroke="#000000" stroke-linecap="round" stroke-linejoin="round" stroke-width="5.908863073310294"/>
  <path d="M 31.22772666235088, 107.17065238705219 Q 32.84377975758817, 96.74301176399437, 39.9043822175351, 83.45818652937359 " fill="none" id="curve_5" stroke="#000000" stroke-linecap="round" stroke-linejoin="round" stroke-width="5.564987052347892"/>
  <path d="M 39.9043822175351, 83.45818652937359 Q 44.09637388117653, 76.360147666439, 50.08786304629868, 60.0484128989358 " fill="none" id="curve_5" stroke="#000000" stroke-linecap="round" stroke-linejoin="round" stroke-width="5.125136364722886"/>
  <path d="M 50.08786304629868, 60.0484128989358 Q 49.93517597225147, 50.476700697132046, 44.55711821570151, 49.912864057665395 " fill="none" id="curve_5" stroke="#000000" stroke-linecap="round" stroke-linejoin="round" stroke-width="4.844377497261351"/>
  <path d="M 44.55711821570151, 49.912864057665395 Q 32.22305892014218, 50.61272301126478, 26.48294149676417, 52.527966878724996 " fill="none" id="curve_5" stroke="#000000" stroke-linecap="round" stroke-linejoin="round" stroke-width="5.005842546317346"/>
  <path d="M 89.6652547825977, 35.73458590686498 Q 89.61543598702536, 28.732385063558638, 89.54104122138115, 12.098917918888564 " fill="none" id="curve_7" stroke="#000000" stroke-linecap="round" stroke-linejoin="round" stroke-width="1.7570733452578138"/>
  <path d="M 89.54104122138115, 12.098917918888564 Q 89.50495913035941, 3.761966226796231, 89.27967483104032, 1.2811408516340919 " fill="none" id="curve_7" stroke="#000000" stroke-linecap="round" stroke-linejoin="round" stroke-width="2.5522001551984435"/>
  <path d="M 49.947995990767765, 54.821032044647325 Q 50.42827321250244, 54.404740954517194, 50.80233120515301, 53.459834573432104 " fill="none" id="curve_22" stroke="#000000" stroke-linecap="round" stroke-linejoin="round" stroke-width="3.926758142056479"/>
  <path d="M 42.02983901229345, 76.68024795101923 Q 38.31314191195531, 80.35131133052299, 34.279329380473285, 91.04980393652761 " fill="none" id="curve_37" stroke="#000000" stroke-linecap="round" stroke-linejoin="round" stroke-width="2.23726155243387"/>
  <path d="M 30.48642518124058, 103.04160116459353 Q 30.961157144469478, 102.92366156968099, 31.670901258466653, 102.68739873058831 " fill="none" id="curve_38" stroke="#000000" stroke-linecap="round" stroke-linejoin="round" stroke-width="2.352640010199814"/>
  <path d="M 41.91037426765388, 48.78452833313463 Q 41.657587967845174, 48.30025012473796, 39.83212853235599, 48.13611697172537 " fill="none" id="curve_53" stroke="#000000" stroke-linecap="round" stroke-linejoin="round" stroke-width="2.583511932657159"/>
  <path d="M 25.550693026286467, 52.34228139172981 Q 25.762040003691578, 51.99324958849009, 26.261542579365504, 51.64922473190414 " fill="none" id="curve_54" stroke="#000000" stroke-linecap="round" stroke-linejoin="round" stroke-width="2.5192205087988917"/>
  <path d="M 47.96098063147638, 61.81571385656699 Q 48.159395562115144, 59.26944590378487, 48.641580802881585, 57.43308652022157 " fill="none" id="curve_83" stroke="#000000" stroke-linecap="round" stroke-linejoin="round" stroke-width="3.1456182027041777"/>
  <path d="M 47.527706470164205, 54.44968197907215 Q 46.82346904982945, 53.20884219785066, 45.58830846476711, 51.714374692991655 " fill="none" id="curve_90" stroke="#000000" stroke-linecap="round" stroke-linejoin="round" stroke-width="3.1388291993717052"/>
</svg>
