<?xml version="1.0" ?>
<svg height="140" width="140" xmlns="http://www.w3.org/2000/svg">
  <path d="M 62.322349548339844, 95.0731204226613 Q 66.86019102983015, 93.82932523256187, 70.25367229746251, 90.63923558340542 " fill="none" id="curve_1" stroke="#000000" stroke-linecap="round" stroke-linejoin="round" stroke-width="4.691392063645869"/>
  <path d="M 70.25367229746251, 90.63923558340542 Q 67.84272159105755, 95.12772523958729, 55.966039978810514, 97.0463429662229 " fill="none" id="curve_1" stroke="#000000" stroke-linecap="round" stroke-linejoin="round" stroke-width="5.010541578929835"/>
  <path d="M 55.966039978810514, 97.0463429662229 Q 41.309920244486165, 96.78167238744841, 34.88549928568785, 95.13393865772954 " fill="none" id="curve_1" stroke="#000000" stroke-linecap="round" stroke-linejoin="round" stroke-width="6.877479961858265"/>
  <path d="M 34.88549928568785, 95.13393865772954 Q 26.79589012437757, 94.11156174160345, 22.821360029862618, 90.8434726752945 " fill="none" id="curve_1" stroke="#000000" stroke-linecap="round" stroke-linejoin="round" stroke-width="5.189422080814181"/>
  <path d="M 22.821360029862618, 90.8434726752945 Q 25.869955719629875, 77.50481531629731, 44.61838285786128, 63.66123127666619 " fill="none" id="curve_1" stroke="#000000" stroke-linecap="round" stroke-linejoin="round" stroke-width="6.1271599999574065"/>
  <path d="M 44.61838285786128, 63.66123127666619 Q 50.69205549984033, 57.340658015762926, 56.111754987067634, 44.60748011926853 " fill="none" id="curve_1" stroke="#000000" stroke-linecap="round" stroke-linejoin="round" stroke-width="5.650060738777551"/>
  <path d="M 56.111754987067634, 44.60748011926853 Q 54.9872779461176, 37.45954700369581, 49.701546613248034, 34.828403705260165 " fill="none" id="curve_1" stroke="#000000" stroke-linecap="round" stroke-linejoin="round" stroke-width="5.843398431032923"/>
  <path d="M 49.701546613248034, 34.828403705260165 Q 29.270068672282417, 35.684320357836214, 18.4374803033129, 43.24725171511506 " fill="none" id="curve_1" stroke="#000000" stroke-linecap="round" stroke-linejoin="round" stroke-width="6.228885093403237"/>
  <path d="M 18.4374803033129, 43.24725171511506 Q 18.26533122633815, 44.03139146792135, 18.0109768778255, 44.89739009214765 " fill="none" id="curve_1" stroke="#000000" stroke-linecap="round" stroke-linejoin="round" stroke-width="4.031595543568275"/>
  <path d="M 53.549271635564324, 50.54996575692087 Q 46.674125699707176, 60.74429404991268, 31.947598049481755, 74.38027428295594 " fill="none" id="curve_4" stroke="#000000" stroke-linecap="round" stroke-linejoin="round" stroke-width="2.782840934666973"/>
  <path d="M 31.947598049481755, 74.38027428295594 Q 25.105958662301504, 78.46540775538224, 20.729933753731217, 88.48601566523499 " fill="none" id="curve_4" stroke="#000000" stroke-linecap="round" stroke-linejoin="round" stroke-width="3.089490834297155"/>
  <path d="M 37.1459320107301, 33.66580025384398 Q 29.254366489809662, 36.650319539324535, 18.524104981666753, 40.5080414422073 " fill="none" id="curve_7" stroke="#000000" stroke-linecap="round" stroke-linejoin="round" stroke-width="3.794929967021773"/>
  <path d="M 46.221502556414165, 35.65164215079171 Q 52.387150387391316, 37.6531292165437, 54.767311740816865, 43.527839745042144 " fill="none" id="curve_8" stroke="#000000" stroke-linecap="round" stroke-linejoin="round" stroke-width="2.8691645366552234"/>
  <path d="M 54.767311740816865, 43.527839745042144 Q 52.04391289715158, 52.26793803547338, 44.23533692469916, 60.324701107081594 " fill="none" id="curve_8" stroke="#000000" stroke-linecap="round" stroke-linejoin="round" stroke-width="2.8062265755319986"/>
  <path d="M 36.57342434296359, 72.00990801832567 Q 37.18764985874846, 72.21928154178183, 38.29170962684377, 72.7196044986293 " fill="none" id="curve_9" stroke="#000000" stroke-linecap="round" stroke-linejoin="round" stroke-width="2.8860081703350673"/>
  <path d="M 51.72929165857075, 97.57358222690237 Q 62.81606036837256, 96.41722101785409, 68.61069691037552, 91.64935267949548 " fill="none" id="curve_19" stroke="#000000" stroke-linecap="round" stroke-linejoin="round" stroke-width="2.456766956315435"/>
  <path d="M 68.61069691037552, 91.64935267949548 Q 66.18917743737502, 96.19857165392533, 45.76532867719321, 97.50328853814517 " fill="none" id="curve_19" stroke="#000000" stroke-linecap="round" stroke-linejoin="round" stroke-width="3.216407834351711"/>
  <path d="M 43.53710160844855, 33.604313750982165 Q 42.45193346876092, 33.42036688276873, 39.97336537557309, 33.25969650730918 " fill="none" id="curve_34" stroke="#000000" stroke-linecap="round" stroke-linejoin="round" stroke-width="3.0548650598323115"/>
  <path d="M 25.87336628026208, 87.47029533552451 Q 25.188618625173927, 87.51722341531803, 24.00608549865021, 87.60831479130395 " fill="none" id="curve_38" stroke="#000000" stroke-linecap="round" stroke-linejoin="round" stroke-width="3.05955831018857"/>
  <path d="M 59.724374167928474, 95.01458895467358 Q 66.34710003173981, 94.10258451552946, 69.5353276386343, 90.61732502263466 " fill="none" id="curve_53" stroke="#000000" stroke-linecap="round" stroke-linejoin="round" stroke-width="2.3334401785437606"/>
  <path d="M 52.99572878220146, 36.856148909450084 Q 54.72634368598214, 37.94276599498182, 57.00726425619949, 39.49917590813366 " fill="none" id="curve_155" stroke="#000000" stroke-linecap="round" stroke-linejoin="round" stroke-width="2.6281636371418027"/>
</svg>
