<?xml version="1.0" ?>
<svg height="140" width="140" xmlns="http://www.w3.org/2000/svg">
  <path d="M 52.93591754527533, 96.09015969053698 Q 41.42740343184122, 98.26503217390302, 21.702500986793478, 102.12715041381887 " fill="none" id="curve_4" stroke="#000000" stroke-linecap="round" stroke-linejoin="round" stroke-width="5.352083919364397"/>
  <path d="M 21.702500986793478, 102.12715041381887 Q 18.08066244736731, 100.37276374399208, 15.387327962546317, 96.89492367158076 " fill="none" id="curve_4" stroke="#000000" stroke-linecap="round" stroke-linejoin="round" stroke-width="5.123123371561171"/>
  <path d="M 15.387327962546317, 96.89492367158076 Q 20.931205873306162, 86.49446015682673, 28.514297925179974, 66.38348344149536 " fill="none" id="curve_4" stroke="#000000" stroke-linecap="round" stroke-linejoin="round" stroke-width="5.829277077165951"/>
  <path d="M 28.514297925179974, 66.38348344149536 Q 28.46439104142679, 44.97066509038115, 20.425862145935255, 44.411301694319604 " fill="none" id="curve_4" stroke="#000000" stroke-linecap="round" stroke-linejoin="round" stroke-width="5.1624793950028405"/>
  <path d="M 20.425862145935255, 44.411301694319604 Q 16.67519873032419, 44.16866943635214, 13.972773176427175, 43.64542417028482 " fill="none" id="curve_4" stroke="#000000" stroke-linecap="round" stroke-linejoin="round" stroke-width="5.252734580069546"/>
  <path d="M 28.2448595722241, 47.84218442585548 Q 29.996937514059365, 49.45553919247259, 30.565582213603342, 58.92557040515957 " fill="none" id="curve_9" stroke="#000000" stroke-linecap="round" stroke-linejoin="round" stroke-width="3.0944224773949736"/>
  <path d="M 56.70438314306903, 95.19779587660317 Q 53.596956830090434, 95.26743577072352, 49.22874898926959, 95.4140784303042 " fill="none" id="curve_10" stroke="#000000" stroke-linecap="round" stroke-linejoin="round" stroke-width="2.628667019574289"/>
  <path d="M 28.185931705938845, 66.80877562220634 Q 24.304342581136826, 80.14317085302017, 12.821280650952323, 94.72881612016695 " fill="none" id="curve_11" stroke="#000000" stroke-linecap="round" stroke-linejoin="round" stroke-width="3.1097022040224838"/>
  <path d="M 24.049698522237364, 75.998306934758 Q 26.793972001702866, 72.42235985621942, 29.006979643480598, 62.458857774866 " fill="none" id="curve_13" stroke="#000000" stroke-linecap="round" stroke-linejoin="round" stroke-width="4.107077329017149"/>
  <path d="M 29.006979643480598, 62.458857774866 Q 27.064574045542187, 76.75342890941093, 19.758538607193138, 83.46815910608834 " fill="none" id="curve_13" stroke="#000000" stroke-linecap="round" stroke-linejoin="round" stroke-width="3.7048469948492952"/>
  <path d="M 19.758538607193138, 83.46815910608834 Q 26.15131160534252, 80.98328698750647, 27.836349593763988, 59.71900790694478 " fill="none" id="curve_13" stroke="#000000" stroke-linecap="round" stroke-linejoin="round" stroke-width="3.153573072431218"/>
  <path d="M 22.76531581583509, 102.56378354619108 Q 39.94693389266289, 101.84157349016357, 45.0754310323334, 96.49778134048115 " fill="none" id="curve_15" stroke="#000000" stroke-linecap="round" stroke-linejoin="round" stroke-width="3.3556483730454842"/>
  <path d="M 25.883966665856732, 100.70571464649731 Q 20.62898402001905, 99.63898094382516, 17.62524397803826, 96.26831109414385 " fill="none" id="curve_16" stroke="#000000" stroke-linecap="round" stroke-linejoin="round" stroke-width="2.4657351685559443"/>
  <path d="M 25.38453129345685, 75.85819768286112 Q 25.727952497394732, 71.87591688824084, 26.592445500251586, 69.45292392511813 " fill="none" id="curve_17" stroke="#000000" stroke-linecap="round" stroke-linejoin="round" stroke-width="5.344613741322793"/>
  <path d="M 26.592445500251586, 69.45292392511813 Q 23.709177716087922, 76.71304742393728, 20.246655758162547, 84.88767627542097 " fill="none" id="curve_17" stroke="#000000" stroke-linecap="round" stroke-linejoin="round" stroke-width="3.401937418550483"/>
  <path d="M 47.779509989473034, 95.4742332581612 Q 40.03500641815868, 96.52177916912844, 33.18453347357341, 100.09361824006143 " fill="none" id="curve_32" stroke="#000000" stroke-linecap="round" stroke-linejoin="round" stroke-width="2.193996133845394"/>
  <path d="M 23.90158926497244, 51.156309856908194 Q 24.387510318601972, 49.951073307778316, 25.163209577122977, 47.88384880769733 " fill="none" id="curve_49" stroke="#000000" stroke-linecap="round" stroke-linejoin="round" stroke-width="3.308256621044073"/>
  <path d="M 89.24797860923422, 3.6761401185640636 Q 89.64631266828867, 3.0201216100249018, 90.18482847581818, 1.835380936687968 " fill="none" id="curve_64" stroke="#000000" stroke-linecap="round" stroke-linejoin="round" stroke-width="1.8202201604864567"/>
  <path d="M 22.437183381621608, 81.16692569547196 Q 23.84311558016087, 79.04452690986831, 25.631619895393104, 75.10557934105896 " fill="none" id="curve_123" stroke="#000000" stroke-linecap="round" stroke-linejoin="round" stroke-width="3.515748413699269"/>
  <path d="M 21.967558180550277, 83.40825969294379 Q 22.56862530600491, 80.29264094065688, 24.958802229087016, 78.64638102704576 " fill="none" id="curve_140" stroke="#000000" stroke-linecap="round" stroke-linejoin="round" stroke-width="3.3906540340963125"/>
  <path d="M 17.224138588215997, 102.23878502729872 Q 17.01414086460412, 101.61038788528444, 16.592652993394317, 101.03011807875724 " fill="none" id="curve_145" stroke="#000000" stroke-linecap="round" stroke-linejoin="round" stroke-width="3.666282341480395"/>
</svg>
