<?xml version="1.0" ?>
<svg height="140" width="140" xmlns="http://www.w3.org/2000/svg">
  <path d="M 48.07585525512695, 34.989230155944824 Q 36.87974066677148, 36.55451364240685, 26.48428628162037, 44.14331505325424 " fill="none" id="curve_1" stroke="#000000" stroke-linecap="round" stroke-linejoin="round" stroke-width="5.641067079563804"/>
  <path d="M 47.81932725867752, 35.49805034437804 Q 52.62305616761887, 36.10257070147159, 52.91022208869982, 52.37548357167677 " fill="none" id="curve_2" stroke="#000000" stroke-linecap="round" stroke-linejoin="round" stroke-width="6.088488994481917"/>
  <path d="M 52.91022208869982, 52.37548357167677 Q 52.15790311611257, 71.13700722741255, 42.67648612707701, 84.91757054421844 " fill="none" id="curve_2" stroke="#000000" stroke-linecap="round" stroke-linejoin="round" stroke-width="5.501523234979615"/>
  <path d="M 42.67648612707701, 84.91757054421844 Q 37.518067686642645, 96.55545728597417, 22.026853630890056, 110.2480403735295 " fill="none" id="curve_2" stroke="#000000" stroke-linecap="round" stroke-linejoin="round" stroke-width="4.886790076934296"/>
  <path d="M 22.026853630890056, 110.2480403735295 Q 15.742911822806278, 109.51847152773206, 15.081425090259309, 94.97580660259312 " fill="none" id="curve_2" stroke="#000000" stroke-linecap="round" stroke-linejoin="round" stroke-width="5.3289202584624595"/>
  <path d="M 15.081425090259309, 94.97580660259312 Q 15.974790205359009, 84.65273490308508, 19.342472074191026, 79.93623971890257 " fill="none" id="curve_2" stroke="#000000" stroke-linecap="round" stroke-linejoin="round" stroke-width="5.528841340626638"/>
  <path d="M 19.342472074191026, 79.93623971890257 Q 28.21489107100098, 92.68429560338583, 48.63078362631235, 108.2651015781333 " fill="none" id="curve_2" stroke="#000000" stroke-linecap="round" stroke-linejoin="round" stroke-width="4.726739280031319"/>
  <path d="M 48.63078362631235, 108.2651015781333 Q 60.316244230715625, 114.84818504784356, 76.99455123546691, 119.70484837129467 " fill="none" id="curve_2" stroke="#000000" stroke-linecap="round" stroke-linejoin="round" stroke-width="4.747677317549499"/>
  <path d="M 76.99455123546691, 119.70484837129467 Q 77.76149341447753, 119.699132763068, 78.46384948261547, 119.6892407611779 " fill="none" id="curve_2" stroke="#000000" stroke-linecap="round" stroke-linejoin="round" stroke-width="3.7594753857475065"/>
  <path d="M 27.309050435031118, 92.02008047526772 Q 27.02450661928768, 82.58715263885236, 22.041216451458077, 81.24915910807715 " fill="none" id="curve_3" stroke="#000000" stroke-linecap="round" stroke-linejoin="round" stroke-width="4.430300909263707"/>
  <path d="M 17.801510400303105, 104.85937824735348 Q 20.465550887547924, 105.96491480210852, 23.601127310182207, 107.1226117628309 " fill="none" id="curve_4" stroke="#000000" stroke-linecap="round" stroke-linejoin="round" stroke-width="5.428542743372431"/>
  <path d="M 35.48894237049281, 96.05442439963578 Q 41.60840916711936, 99.6779290427462, 48.35458746240301, 106.75778853710484 " fill="none" id="curve_5" stroke="#000000" stroke-linecap="round" stroke-linejoin="round" stroke-width="2.071209228693837"/>
  <path d="M 47.345616802072456, 72.6221448580537 Q 48.29701039634771, 65.61638610725404, 51.20877093790789, 60.757198202552786 " fill="none" id="curve_7" stroke="#000000" stroke-linecap="round" stroke-linejoin="round" stroke-width="3.059262469089384"/>
  <path d="M 49.38762226483609, 35.306678660699234 Q 49.092993604617206, 33.98402453994132, 44.33494889639916, 33.767325554731435 " fill="none" id="curve_8" stroke="#000000" stroke-linecap="round" stroke-linejoin="round" stroke-width="2.9130936139407324"/>
  <path d="M 44.33494889639916, 33.767325554731435 Q 36.20060127730258, 35.678876179432976, 29.31454861223252, 41.39961660004225 " fill="none" id="curve_8" stroke="#000000" stroke-linecap="round" stroke-linejoin="round" stroke-width="2.648473037744495"/>
  <path d="M 29.31454861223252, 41.39961660004225 Q 34.66527295817809, 38.82912602561073, 46.591525861690144, 36.85390350733912 " fill="none" id="curve_8" stroke="#000000" stroke-linecap="round" stroke-linejoin="round" stroke-width="2.784078085205304"/>
  <path d="M 50.39536132314972, 48.9467263970382 Q 50.059357391389305, 46.12287503404109, 49.57598646377784, 42.91812495617117 " fill="none" id="curve_9" stroke="#000000" stroke-linecap="round" stroke-linejoin="round" stroke-width="2.2938470776141076"/>
  <path d="M 18.7794387376503, 82.39565960854021 Q 18.434766956675595, 81.43414382775886, 17.525034231807652, 80.52429085694195 " fill="none" id="curve_13" stroke="#000000" stroke-linecap="round" stroke-linejoin="round" stroke-width="3.4976581529747217"/>
  <path d="M 65.24847352224057, 114.11653920096947 Q 57.20975126470147, 111.77904194903579, 47.29978728343693, 106.45290750699459 " fill="none" id="curve_14" stroke="#000000" stroke-linecap="round" stroke-linejoin="round" stroke-width="2.938200604059637"/>
  <path d="M 32.65458296271213, 94.29496170642415 Q 37.89835332847909, 92.40761868782181, 42.42940354898351, 88.12971506643285 " fill="none" id="curve_16" stroke="#000000" stroke-linecap="round" stroke-linejoin="round" stroke-width="3.0328209414935965"/>
  <path d="M 2.4165433537935854, 5.307247067388538 Q 2.6423362566646267, 2.427159276676368, 4.812895919882427, 1.5938662865786535 " fill="none" id="curve_19" stroke="#000000" stroke-linecap="round" stroke-linejoin="round" stroke-width="3.119732531377604"/>
  <path d="M 1.3307649452977257, 6.445005089252438 Q 1.9915004218648298, 2.894666362502214, 5.408939344856421, 1.6134467110024415 " fill="none" id="curve_20" stroke="#000000" stroke-linecap="round" stroke-linejoin="round" stroke-width="3.0175652599204317"/>
  <path d="M 51.21660703975081, 57.14387953441525 Q 51.248306344705064, 55.762319304687104, 51.306041514893025, 53.92398858032895 " fill="none" id="curve_39" stroke="#000000" stroke-linecap="round" stroke-linejoin="round" stroke-width="3.6556957035558333"/>
  <path d="M 24.80619221145198, 43.54035349643328 Q 25.84669326978893, 43.282496852000236, 27.361565365704852, 42.685929746722444 " fill="none" id="curve_47" stroke="#000000" stroke-linecap="round" stroke-linejoin="round" stroke-width="2.2408706601231483"/>
  <path d="M 3.8317942167309553, 1.899527237375949 Q 4.885861610850759, 1.5206926211854386, 7.373289762846287, 1.1141153018338428 " fill="none" id="curve_48" stroke="#000000" stroke-linecap="round" stroke-linejoin="round" stroke-width="2.1658403414454765"/>
  <path d="M 50.136066431572466, 40.075077172786614 Q 49.122138654950646, 38.186919733042856, 46.70121430692431, 36.51154914013555 " fill="none" id="curve_52" stroke="#000000" stroke-linecap="round" stroke-linejoin="round" stroke-width="2.7025605158392194"/>
  <path d="M 2.049006749614303, 2.4374730526440844 Q 2.968325744108783, 2.3419928382639776, 3.9986241501755657, 2.0572144593059516 " fill="none" id="curve_85" stroke="#000000" stroke-linecap="round" stroke-linejoin="round" stroke-width="2.302133279406727"/>
  <path d="M 16.492182039610153, 80.61426023973493 Q 17.05055715927259, 80.31445121479227, 17.950473422449047, 79.776276529197 " fill="none" id="curve_158" stroke="#000000" stroke-linecap="round" stroke-linejoin="round" stroke-width="2.596890708854735"/>
  <path d="M 14.083364351528356, 102.00949985121767 Q 14.088175855670707, 99.13644053142308, 14.098748962157973, 96.63502113363195 " fill="none" id="curve_161" stroke="#000000" stroke-linecap="round" stroke-linejoin="round" stroke-width="2.8267949677782704"/>
</svg>
