<?xml version="1.0" ?>
<svg height="140" width="140" xmlns="http://www.w3.org/2000/svg">
  <path d="M 54.94893990454467, 100.84434276846784 Q 32.67261522721097, 100.670411137093, 31.14122879554549, 87.46110277546184 " fill="none" id="curve_4" stroke="#000000" stroke-linecap="round" stroke-linejoin="round" stroke-width="4.371605486300473"/>
  <path d="M 31.14122879554549, 87.46110277546184 Q 32.715998314729596, 74.00566907563216, 42.48258522901342, 57.920819543832096 " fill="none" id="curve_4" stroke="#000000" stroke-linecap="round" stroke-linejoin="round" stroke-width="4.45491337610393"/>
  <path d="M 42.48258522901342, 57.920819543832096 Q 47.03348123191204, 51.042515020558014, 53.726135799886485, 41.91999859879682 " fill="none" id="curve_4" stroke="#000000" stroke-linecap="round" stroke-linejoin="round" stroke-width="5.726496427190094"/>
  <path d="M 53.726135799886485, 41.91999859879682 Q 44.178285726161114, 44.69045669987444, 22.384997749086732, 53.255997488314094 " fill="none" id="curve_4" stroke="#000000" stroke-linecap="round" stroke-linejoin="round" stroke-width="5.190600000785372"/>
  <path d="M 22.384997749086732, 53.255997488314094 Q 15.972481281751298, 54.384567405177094, 14.289137857260357, 59.25662966818943 " fill="none" id="curve_4" stroke="#000000" stroke-linecap="round" stroke-linejoin="round" stroke-width="5.463026317400345"/>
  <path d="M 34.04629217105339, 90.31127304446925 Q 34.25504156005472, 100.32505978931856, 48.82215182353819, 100.73246300546464 " fill="none" id="curve_5" stroke="#000000" stroke-linecap="round" stroke-linejoin="round" stroke-width="3.421273546414575"/>
  <path d="M 48.82215182353819, 100.73246300546464 Q 54.33315448403218, 101.07968082580182, 57.244430829381116, 101.96692408223517 " fill="none" id="curve_5" stroke="#000000" stroke-linecap="round" stroke-linejoin="round" stroke-width="3.9882670607066584"/>
  <path d="M 57.244430829381116, 101.96692408223517 Q 46.96599519336399, 100.12049079295682, 36.359942329898345, 96.00588248709546 " fill="none" id="curve_5" stroke="#000000" stroke-linecap="round" stroke-linejoin="round" stroke-width="2.894852359683256"/>
  <path d="M 48.148202896118164, 44.919620513916016 Q 45.33112904043573, 46.24139857422873, 44.50697562922434, 53.74340656973652 " fill="none" id="curve_19" stroke="#000000" stroke-linecap="round" stroke-linejoin="round" stroke-width="2.238733552879394"/>
  <path d="M 37.58056364568501, 45.50822208303333 Q 32.352939389394884, 47.230836725115736, 25.182447357589105, 50.08096656010704 " fill="none" id="curve_20" stroke="#000000" stroke-linecap="round" stroke-linejoin="round" stroke-width="2.60518653601134"/>
  <path d="M 40.0326659998911, 46.07925639934656 Q 41.4409797039225, 42.146729479512835, 52.08114772038166, 40.883891884003155 " fill="none" id="curve_21" stroke="#000000" stroke-linecap="round" stroke-linejoin="round" stroke-width="2.464976072122954"/>
  <path d="M 45.23515485339712, 47.38712342234507 Q 41.85336512155332, 47.37072492860105, 35.75207794664303, 47.34960055586427 " fill="none" id="curve_22" stroke="#000000" stroke-linecap="round" stroke-linejoin="round" stroke-width="2.7499911674919417"/>
  <path d="M 33.74790515274776, 94.91711574804242 Q 35.1395252500854, 94.87352874546494, 36.412463869388525, 94.79062236492112 " fill="none" id="curve_37" stroke="#000000" stroke-linecap="round" stroke-linejoin="round" stroke-width="5.139819114375319"/>
  <path d="M 53.681896929219775, 100.10460789746281 Q 51.87931461511296, 100.0736858956235, 48.364494274458124, 100.03507755583686 " fill="none" id="curve_40" stroke="#000000" stroke-linecap="round" stroke-linejoin="round" stroke-width="3.5347534596032744"/>
  <path d="M 14.977976571881914, 56.336132241649146 Q 14.89866325020217, 56.278530621566674, 14.797087832473746, 56.16332707755202 " fill="none" id="curve_57" stroke="#000000" stroke-linecap="round" stroke-linejoin="round" stroke-width="3.087045518202984"/>
  <path d="M 13.130092936956316, 57.13167323347352 Q 15.029127569187246, 52.7356208113385, 24.55211094710829, 50.498412528240706 " fill="none" id="curve_72" stroke="#000000" stroke-linecap="round" stroke-linejoin="round" stroke-width="2.434688158354864"/>
  <path d="M 41.24254065247527, 59.11198867341288 Q 39.346828720530674, 60.676208951147316, 37.20132663321545, 65.54666468516982 " fill="none" id="curve_73" stroke="#000000" stroke-linecap="round" stroke-linejoin="round" stroke-width="2.1911423131333407"/>
</svg>
