<?xml version="1.0" ?>
<svg height="140" width="140" xmlns="http://www.w3.org/2000/svg">
  <path d="M 52.93440246582031, 119.89798164367676 Q 53.00210542511877, 119.97460770722222, 53.185791836027235, 120.06682390955251 " fill="none" id="curve_1" stroke="#000000" stroke-linecap="round" stroke-linejoin="round" stroke-width="5.351229923270837"/>
  <path d="M 53.185791836027235, 120.06682390955251 Q 52.33349707501521, 119.20304981369806, 40.78844957881151, 118.99101206102848 " fill="none" id="curve_1" stroke="#000000" stroke-linecap="round" stroke-linejoin="round" stroke-width="4.814320105550486"/>
  <path d="M 40.78844957881151, 118.99101206102848 Q 29.438609995078565, 119.25328545522959, 20.6256648274059, 120.03119896996913 " fill="none" id="curve_1" stroke="#000000" stroke-linecap="round" stroke-linejoin="round" stroke-width="4.58566545810283"/>
  <path d="M 20.6256648274059, 120.03119896996913 Q 24.563330373256626, 111.13681332145714, 36.17378058806395, 92.72552144355024 " fill="none" id="curve_1" stroke="#000000" stroke-linecap="round" stroke-linejoin="round" stroke-width="4.759175452905985"/>
  <path d="M 36.17378058806395, 92.72552144355024 Q 41.80308201040298, 87.00829800788611, 51.19275521626336, 63.57449462891077 " fill="none" id="curve_1" stroke="#000000" stroke-linecap="round" stroke-linejoin="round" stroke-width="4.365466464906374"/>
  <path d="M 51.19275521626336, 63.57449462891077 Q 52.875471453982996, 61.12764340253911, 53.354577528810225, 42.225222654276145 " fill="none" id="curve_1" stroke="#000000" stroke-linecap="round" stroke-linejoin="round" stroke-width="5.899193896435805"/>
  <path d="M 53.354577528810225, 42.225222654276145 Q 52.392005874829415, 32.729703083270095, 36.761733664742486, 30.718898526625516 " fill="none" id="curve_1" stroke="#000000" stroke-linecap="round" stroke-linejoin="round" stroke-width="4.942320322892744"/>
  <path d="M 36.761733664742486, 30.718898526625516 Q 19.673036582970738, 31.769968958806057, 13.636461721748567, 42.46749621510743 " fill="none" id="curve_1" stroke="#000000" stroke-linecap="round" stroke-linejoin="round" stroke-width="4.024349517732221"/>
  <path d="M 13.636461721748567, 42.46749621510743 Q 14.0959861574507, 36.55764902449686, 21.717081676438106, 35.82314945117249 " fill="none" id="curve_1" stroke="#000000" stroke-linecap="round" stroke-linejoin="round" stroke-width="2.9507101901131727"/>
  <path d="M 42.82659037755126, 79.64582104983582 Q 46.601214421861116, 73.13476098202915, 51.8606989745883, 64.14809892367498 " fill="none" id="curve_6" stroke="#000000" stroke-linecap="round" stroke-linejoin="round" stroke-width="2.9239858893519273"/>
  <path d="M 84.9258728784234, 11.724816628251094 Q 84.796810030257, 12.22511114371439, 84.54964394330503, 13.114602486336477 " fill="none" id="curve_10" stroke="#000000" stroke-linecap="round" stroke-linejoin="round" stroke-width="2.0786902484027237"/>
  <path d="M 27.99298871727798, 32.24644704911469 Q 27.983079048540954, 31.089674526164085, 27.95057507777858, 29.927592631647144 " fill="none" id="curve_16" stroke="#000000" stroke-linecap="round" stroke-linejoin="round" stroke-width="2.888974368767986"/>
  <path d="M 47.35517154232067, 118.3175087210812 Q 47.17500220868476, 118.20183225622576, 47.017475810021956, 117.96678413931068 " fill="none" id="curve_22" stroke="#000000" stroke-linecap="round" stroke-linejoin="round" stroke-width="5.997637463499988"/>
  <path d="M 46.78600605423754, 71.6573748535879 Q 49.3464995543388, 68.66203462247165, 51.70392830681222, 62.37424098592279 " fill="none" id="curve_23" stroke="#000000" stroke-linecap="round" stroke-linejoin="round" stroke-width="3.201506894757447"/>
  <path d="M 55.640649523963305, 47.02495443635564 Q 53.651908221203215, 42.95067138269635, 48.88009735711089, 38.25937177318774 " fill="none" id="curve_38" stroke="#000000" stroke-linecap="round" stroke-linejoin="round" stroke-width="2.499845892495822"/>
  <path d="M 42.56731830068947, 31.594464707677634 Q 44.60447280456377, 32.4255487874994, 47.11755924238582, 33.79561192750083 " fill="none" id="curve_39" stroke="#000000" stroke-linecap="round" stroke-linejoin="round" stroke-width="2.96135899891828"/>
  <path d="M 46.43634023242731, 34.75047642584016 Q 47.54611724121257, 35.00452546489232, 49.26299757175537, 35.30795252011204 " fill="none" id="curve_67" stroke="#000000" stroke-linecap="round" stroke-linejoin="round" stroke-width="2.773616231568777"/>
  <path d="M 25.116673107156522, 111.81869225122442 Q 25.42144586457138, 106.87820097618985, 27.987137178487927, 105.59593713818879 " fill="none" id="curve_99" stroke="#000000" stroke-linecap="round" stroke-linejoin="round" stroke-width="2.9274520753346733"/>
  <path d="M 45.97052159739562, 33.63929660322256 Q 47.56605171023179, 33.856276316579006, 49.59516745259921, 34.316475722986304 " fill="none" id="curve_105" stroke="#000000" stroke-linecap="round" stroke-linejoin="round" stroke-width="2.19720566778443"/>
  <path d="M 50.86040520906633, 121.18027760731312 Q 49.74186312806787, 120.76552096546696, 48.39596937582271, 120.01999019132955 " fill="none" id="curve_122" stroke="#000000" stroke-linecap="round" stroke-linejoin="round" stroke-width="4.428449916756346"/>
  <path d="M 48.3422614437149, 33.62058360949713 Q 47.99241791585229, 33.20433208721144, 47.43551333855584, 32.43096654437046 " fill="none" id="curve_131" stroke="#000000" stroke-linecap="round" stroke-linejoin="round" stroke-width="3.1856276564813886"/>
  <path d="M 49.598103413287845, 65.25775303055752 Q 49.4920144919871, 66.77655907433244, 49.050519499165546, 67.49261927701747 " fill="none" id="curve_172" stroke="#000000" stroke-linecap="round" stroke-linejoin="round" stroke-width="4.524941376451623"/>
</svg>
