<?xml version="1.0" ?>
<svg height="140" width="140" xmlns="http://www.w3.org/2000/svg">
  <path d="M 48.85607147216797, 58.529988288879395 Q 43.33746555377962, 58.606454739784226, 42.669393715674545, 60.58752885967759 " fill="none" id="curve_1" stroke="#000000" stroke-linecap="round" stroke-linejoin="round" stroke-width="3.829985330636422"/>
  <path d="M 42.669393715674545, 60.58752885967759 Q 45.06491615760078, 57.31938093391897, 53.8853843190268, 55.827051708627565 " fill="none" id="curve_1" stroke="#000000" stroke-linecap="round" stroke-linejoin="round" stroke-width="4.9625009181988755"/>
  <path d="M 53.8853843190268, 55.827051708627565 Q 69.81350087089008, 56.446438949971935, 71.59301986632728, 64.61594821847673 " fill="none" id="curve_1" stroke="#000000" stroke-linecap="round" stroke-linejoin="round" stroke-width="4.608760319109418"/>
  <path d="M 71.59301986632728, 64.61594821847673 Q 68.33778791735075, 71.79799560756801, 44.911887679613024, 77.74913403617958 " fill="none" id="curve_1" stroke="#000000" stroke-linecap="round" stroke-linejoin="round" stroke-width="4.998249831983782"/>
  <path d="M 44.911887679613024, 77.74913403617958 Q 37.70032503901085, 80.47339491138646, 27.676192448711294, 83.04645316772974 " fill="none" id="curve_1" stroke="#000000" stroke-linecap="round" stroke-linejoin="round" stroke-width="5.352211381023704"/>
  <path d="M 27.676192448711294, 83.04645316772974 Q 28.227019717100813, 96.39629767701385, 43.96407950139673, 97.85822560278615 " fill="none" id="curve_1" stroke="#000000" stroke-linecap="round" stroke-linejoin="round" stroke-width="5.155524566801074"/>
  <path d="M 43.96407950139673, 97.85822560278615 Q 48.350388670646005, 100.61285017805159, 69.86996186427105, 101.38796801317085 " fill="none" id="curve_1" stroke="#000000" stroke-linecap="round" stroke-linejoin="round" stroke-width="4.414195176538799"/>
  <path d="M 52.826577224874214, 77.89460097168642 Q 55.32389926760553, 71.73536621504294, 66.38217128106534, 69.30130658036778 " fill="none" id="curve_4" stroke="#000000" stroke-linecap="round" stroke-linejoin="round" stroke-width="2.9131422254847155"/>
  <path d="M 63.33353186938933, 55.82348673756669 Q 61.77764195680151, 54.746136848709, 52.18961202154659, 54.1968899856122 " fill="none" id="curve_5" stroke="#000000" stroke-linecap="round" stroke-linejoin="round" stroke-width="2.1513381518495818"/>
  <path d="M 46.8724588994558, 96.12830452215967 Q 49.35381072597253, 97.97904589163528, 54.19230953952079, 100.04284721808821 " fill="none" id="curve_7" stroke="#000000" stroke-linecap="round" stroke-linejoin="round" stroke-width="2.041220332991928"/>
  <path d="M 39.67742694937879, 95.50506291739316 Q 34.38526385432311, 93.8180063422214, 27.566471577992115, 90.84678171068244 " fill="none" id="curve_8" stroke="#000000" stroke-linecap="round" stroke-linejoin="round" stroke-width="2.318850330943508"/>
  <path d="M 1.1069981357911471, 120.02506663776767 Q 1.2985162596736675, 132.7946389987576, 1.8706745290512685, 138.74460841406378 " fill="none" id="curve_14" stroke="#000000" stroke-linecap="round" stroke-linejoin="round" stroke-width="1.708222623477444"/>
  <path d="M 1.356902807682211, 119.07211035801903 Q 1.1714869092311349, 117.03463719562069, 1.0310864892971674, 110.21347243693918 " fill="none" id="curve_15" stroke="#000000" stroke-linecap="round" stroke-linejoin="round" stroke-width="1.2059251629448484"/>
  <path d="M 1.0310864892971674, 110.21347243693918 Q 1.058489978622443, 106.97016843582702, 1.0901391052445841, 100.81832753101119 " fill="none" id="curve_15" stroke="#000000" stroke-linecap="round" stroke-linejoin="round" stroke-width="1.394031752229596"/>
  <path d="M 1.0132470864640974, 91.73719598879045 Q 0.9705103310428559, 87.88024599399441, 0.920708666851768, 79.1203153867082 " fill="none" id="curve_16" stroke="#000000" stroke-linecap="round" stroke-linejoin="round" stroke-width="1.4541823151331175"/>
  <path d="M 0.920708666851768, 79.1203153867082 Q 0.9574862044984757, 75.09151643216335, 1.0054151398554672, 67.2608348193418 " fill="none" id="curve_16" stroke="#000000" stroke-linecap="round" stroke-linejoin="round" stroke-width="1.3926584091325869"/>
  <path d="M 1.0054151398554672, 67.2608348193418 Q 1.0749010716680472, 63.66062206366655, 1.1905593014841858, 58.69014614341915 " fill="none" id="curve_16" stroke="#000000" stroke-linecap="round" stroke-linejoin="round" stroke-width="1.3702378143331964"/>
  <path d="M 1.1905593014841858, 58.69014614341915 Q 0.9659270776305285, 57.18050944268556, 0.8531958774983847, 48.882444843631205 " fill="none" id="curve_16" stroke="#000000" stroke-linecap="round" stroke-linejoin="round" stroke-width="1.4726280788159234"/>
  <path d="M 0.8531958774983847, 48.882444843631205 Q 0.9486510621949448, 45.69866202387366, 1.0911716695207427, 40.572053377193 " fill="none" id="curve_16" stroke="#000000" stroke-linecap="round" stroke-linejoin="round" stroke-width="1.3837003723604004"/>
  <path d="M 1.0911716695207427, 40.572053377193 Q 0.9663403164138684, 38.49811157532364, 0.8867348063636693, 28.236918665442538 " fill="none" id="curve_16" stroke="#000000" stroke-linecap="round" stroke-linejoin="round" stroke-width="1.2867032714568352"/>
  <path d="M 0.8867348063636693, 28.236918665442538 Q 0.9210183034914354, 25.647959311549137, 0.9700613868048409, 21.36409888476564 " fill="none" id="curve_16" stroke="#000000" stroke-linecap="round" stroke-linejoin="round" stroke-width="1.2023478216007482"/>
  <path d="M 1.233769801459911, 16.631390240598616 Q 0.9140639234117784, 14.437405393429183, 0.7235859970253505, 2.6769084327620973 " fill="none" id="curve_17" stroke="#000000" stroke-linecap="round" stroke-linejoin="round" stroke-width="1.2585719955353538"/>
  <path d="M 0.9110202621425131, 18.614469278267983 Q 0.9907755190286289, 19.13945783822188, 1.1782476848309422, 20.126535541825916 " fill="none" id="curve_19" stroke="#000000" stroke-linecap="round" stroke-linejoin="round" stroke-width="1.3065753138369915"/>
  <path d="M 67.58047735943906, 56.80182763715934 Q 66.78317146816958, 56.8972622387161, 65.56874614897568, 57.01547864398052 " fill="none" id="curve_22" stroke="#000000" stroke-linecap="round" stroke-linejoin="round" stroke-width="3.8554534797933377"/>
  <path d="M 27.149385493447582, 82.0840267167196 Q 28.748012840314214, 82.10567144286557, 31.427697287185946, 82.13944207768826 " fill="none" id="curve_29" stroke="#000000" stroke-linecap="round" stroke-linejoin="round" stroke-width="3.1205822943993957"/>
  <path d="M 1.4445248255391334, 96.58117618026853 Q 1.5999648695002655, 96.47756847961891, 1.88352434654875, 96.29056405397067 " fill="none" id="curve_34" stroke="#000000" stroke-linecap="round" stroke-linejoin="round" stroke-width="2.039891059224073"/>
  <path d="M 28.83162098913995, 92.14385339302729 Q 37.34857549773158, 94.2440156813257, 45.77987358785958, 97.94184406517151 " fill="none" id="curve_76" stroke="#000000" stroke-linecap="round" stroke-linejoin="round" stroke-width="1.8342283239484038"/>
  <path d="M 26.024793526022542, 82.19695248984284 Q 29.590883753260908, 81.28950874708164, 35.45506658072326, 80.34339083952584 " fill="none" id="curve_78" stroke="#000000" stroke-linecap="round" stroke-linejoin="round" stroke-width="2.5835461066470713"/>
  <path d="M 61.629109479420094, 102.15807503768247 Q 60.11599552336474, 102.14500559827981, 58.98454264499834, 102.11261628672017 " fill="none" id="curve_106" stroke="#000000" stroke-linecap="round" stroke-linejoin="round" stroke-width="2.7119340623389077"/>
  <path d="M 28.682862281799316, 89.44051361083984 Q 29.1865075466757, 92.49772881101775, 35.62700905818923, 93.05132997349106 " fill="none" id="curve_159" stroke="#000000" stroke-linecap="round" stroke-linejoin="round" stroke-width="2.5934614471351547"/>
  <path d="M 68.89209824360188, 70.51069168518399 Q 60.420550626008705, 72.85857101220711, 49.22157198515133, 76.5488900813954 " fill="none" id="curve_167" stroke="#000000" stroke-linecap="round" stroke-linejoin="round" stroke-width="3.2728608499804883"/>
</svg>
