<?xml version="1.0" ?>
<svg height="140" width="140" xmlns="http://www.w3.org/2000/svg">
  <path d="M 65.06724166870117, 44.00053882598877 Q 64.83772640946792, 36.261507506720804, 60.46523796654125, 34.35613549715947 " fill="none" id="curve_1" stroke="#000000" stroke-linecap="round" stroke-linejoin="round" stroke-width="4.840824618109074"/>
  <path d="M 60.46523796654125, 34.35613549715947 Q 54.050091188571805, 34.30686534195243, 41.64386100701232, 34.239204821691814 " fill="none" id="curve_1" stroke="#000000" stroke-linecap="round" stroke-linejoin="round" stroke-width="6.066859906923258"/>
  <path d="M 41.64386100701232, 34.239204821691814 Q 32.422310247741486, 37.76191585915427, 21.47174119006105, 47.70833042348012 " fill="none" id="curve_1" stroke="#000000" stroke-linecap="round" stroke-linejoin="round" stroke-width="3.901607206723066"/>
  <path d="M 53.881260436038204, 63.99721753752095 Q 46.50570110101042, 69.45776352736911, 28.763365118792244, 91.39080134957459 " fill="none" id="curve_2" stroke="#000000" stroke-linecap="round" stroke-linejoin="round" stroke-width="5.399380307843311"/>
  <path d="M 28.763365118792244, 91.39080134957459 Q 29.61066577056388, 96.92000948885284, 37.65835380898686, 97.77518510320644 " fill="none" id="curve_2" stroke="#000000" stroke-linecap="round" stroke-linejoin="round" stroke-width="6.451480731911033"/>
  <path d="M 37.65835380898686, 97.77518510320644 Q 59.49261793176261, 97.54038679491511, 70.4228228030521, 95.81280268594112 " fill="none" id="curve_2" stroke="#000000" stroke-linecap="round" stroke-linejoin="round" stroke-width="5.570805940599023"/>
  <path d="M 55.97446732552899, 61.835102365609714 Q 61.16427118472141, 57.33415925698299, 65.13278776799804, 46.308340794602344 " fill="none" id="curve_3" stroke="#000000" stroke-linecap="round" stroke-linejoin="round" stroke-width="6.316008143560434"/>
  <path d="M 65.13278776799804, 46.308340794602344 Q 64.8708760330091, 35.74400127630976, 57.75080490697161, 34.606284030731565 " fill="none" id="curve_3" stroke="#000000" stroke-linecap="round" stroke-linejoin="round" stroke-width="3.4552527772700112"/>
  <path d="M 60.10328324957995, 54.713243644236684 Q 54.19315639841891, 62.621767031514366, 41.30153333861479, 73.35202204655805 " fill="none" id="curve_4" stroke="#000000" stroke-linecap="round" stroke-linejoin="round" stroke-width="3.024842850577469"/>
  <path d="M 41.30153333861479, 73.35202204655805 Q 35.6568164913497, 79.22923426443701, 29.813779064742533, 88.67728794429705 " fill="none" id="curve_4" stroke="#000000" stroke-linecap="round" stroke-linejoin="round" stroke-width="3.491355784609955"/>
  <path d="M 29.813779064742533, 88.67728794429705 Q 30.922380253531472, 92.76613954479384, 32.998754955490114, 95.26507476877846 " fill="none" id="curve_4" stroke="#000000" stroke-linecap="round" stroke-linejoin="round" stroke-width="3.080011908330118"/>
  <path d="M 32.998754955490114, 95.26507476877846 Q 38.169492925106226, 96.30073171942324, 55.078104749297985, 96.72899844167947 " fill="none" id="curve_4" stroke="#000000" stroke-linecap="round" stroke-linejoin="round" stroke-width="3.509582143018881"/>
  <path d="M 73.76597938185934, 95.62014063768935 Q 72.37803710365165, 95.56253428256025, 71.3975033208425, 95.43757212346947 " fill="none" id="curve_5" stroke="#000000" stroke-linecap="round" stroke-linejoin="round" stroke-width="5.296857089234384"/>
  <path d="M 55.83644027118827, 32.41190653310235 Q 50.65624367038336, 32.70324279248668, 46.22032173733272, 33.474290957076796 " fill="none" id="curve_8" stroke="#000000" stroke-linecap="round" stroke-linejoin="round" stroke-width="2.357773724033988"/>
  <path d="M 64.67886734008789, 43.2736701965332 Q 65.29855942670086, 41.18240399504488, 66.58723958621198, 38.83383496344959 " fill="none" id="curve_22" stroke="#000000" stroke-linecap="round" stroke-linejoin="round" stroke-width="2.590707191543913"/>
  <path d="M 46.37055445360418, 72.16940332272253 Q 46.27078225174456, 72.83860698159408, 45.97639380082319, 73.65749433048035 " fill="none" id="curve_38" stroke="#000000" stroke-linecap="round" stroke-linejoin="round" stroke-width="2.9400709150242696"/>
  <path d="M 58.75547255190219, 54.43523764416744 Q 60.66217757687772, 52.435429761921604, 63.44263676473784, 49.14917068701007 " fill="none" id="curve_40" stroke="#000000" stroke-linecap="round" stroke-linejoin="round" stroke-width="2.6446954454565255"/>
  <path d="M 34.84054344034891, 86.1873929951654 Q 32.4864993160843, 87.40126836945142, 30.98535590906925, 90.52744511331606 " fill="none" id="curve_41" stroke="#000000" stroke-linecap="round" stroke-linejoin="round" stroke-width="4.305943648759546"/>
  <path d="M 62.249889042380794, 94.90556598343885 Q 63.39627667783532, 95.09889738887583, 65.13641119624978, 95.31735992852813 " fill="none" id="curve_42" stroke="#000000" stroke-linecap="round" stroke-linejoin="round" stroke-width="3.9152518564003835"/>
  <path d="M 22.68844518580074, 45.16815298825921 Q 28.242724164628047, 43.80931729993195, 31.299807073682864, 38.121651881187105 " fill="none" id="curve_44" stroke="#000000" stroke-linecap="round" stroke-linejoin="round" stroke-width="2.8409792795061626"/>
  <path d="M 31.299807073682864, 38.121651881187105 Q 29.01095146347003, 43.068656888200636, 21.357597178962415, 46.294529674751345 " fill="none" id="curve_44" stroke="#000000" stroke-linecap="round" stroke-linejoin="round" stroke-width="2.787186324943215"/>
  <path d="M 29.97490171267173, 40.043452357595164 Q 29.564252648966598, 42.778673402710375, 27.231227916672978, 43.416319658368536 " fill="none" id="curve_45" stroke="#000000" stroke-linecap="round" stroke-linejoin="round" stroke-width="4.688216451602182"/>
  <path d="M 58.45024957528272, 36.11828740245943 Q 60.054076045178626, 37.63456323765378, 63.208040822274455, 38.86062896037119 " fill="none" id="curve_47" stroke="#000000" stroke-linecap="round" stroke-linejoin="round" stroke-width="3.273036650673289"/>
  <path d="M 63.208040822274455, 38.86062896037119 Q 63.87082230428676, 37.6446892718046, 64.56567351083123, 35.98284109027481 " fill="none" id="curve_47" stroke="#000000" stroke-linecap="round" stroke-linejoin="round" stroke-width="3.1760903983622746"/>
  <path d="M 31.244603646630537, 38.390998352096865 Q 27.765670054109336, 40.28878415826013, 25.051720605297323, 44.70365738843067 " fill="none" id="curve_48" stroke="#000000" stroke-linecap="round" stroke-linejoin="round" stroke-width="2.7090450605730494"/>
  <path d="M 63.343259561707306, 95.52328749106277 Q 62.06566802982668, 95.3800991902722, 59.131347049963665, 95.16311499109948 " fill="none" id="curve_54" stroke="#000000" stroke-linecap="round" stroke-linejoin="round" stroke-width="3.1768229828201626"/>
  <path d="M 46.226087469624076, 33.07358142036833 Q 47.47936759149881, 32.88603954016619, 50.575893054010436, 32.60089562503648 " fill="none" id="curve_76" stroke="#000000" stroke-linecap="round" stroke-linejoin="round" stroke-width="2.0143985762995125"/>
  <path d="M 41.996064647832355, 77.41678486784399 Q 39.30927336849004, 78.07321738264544, 35.78679306726735, 80.25856923157976 " fill="none" id="curve_79" stroke="#000000" stroke-linecap="round" stroke-linejoin="round" stroke-width="1.6855079989552437"/>
  <path d="M 54.550705146250976, 95.87698112225127 Q 50.400536324377995, 95.73532923617965, 41.230478981655835, 95.57288663198906 " fill="none" id="curve_80" stroke="#000000" stroke-linecap="round" stroke-linejoin="round" stroke-width="2.264291067266035"/>
  <path d="M 54.815660431634356, 64.82898917036871 Q 54.51366062804192, 64.6262686151838, 54.04340385480394, 64.11831833758082 " fill="none" id="curve_102" stroke="#000000" stroke-linecap="round" stroke-linejoin="round" stroke-width="2.3253442149323185"/>
  <path d="M 62.48341951025567, 48.64782702375794 Q 62.50234122799283, 47.848419071182, 62.553248949944496, 46.97677399080355 " fill="none" id="curve_110" stroke="#000000" stroke-linecap="round" stroke-linejoin="round" stroke-width="2.453342858546797"/>
  <path d="M 72.7513014068594, 96.7426832532002 Q 71.02351844956387, 96.74951664811489, 69.00335594823731, 96.76069007997268 " fill="none" id="curve_125" stroke="#000000" stroke-linecap="round" stroke-linejoin="round" stroke-width="2.9070059922980036"/>
</svg>
