<?xml version="1.0" ?>
<svg height="140" width="140" xmlns="http://www.w3.org/2000/svg">
  <path d="M 75.28042411804199, 97.39143562316895 Q 75.6695034802378, 95.4351411672041, 77.55598726640972, 94.72954375510153 " fill="none" id="curve_1" stroke="#000000" stroke-linecap="round" stroke-linejoin="round" stroke-width="3.8114930903590456"/>
  <path d="M 77.55598726640972, 94.72954375510153 Q 74.39615849052801, 96.5236141377188, 64.91073589790433, 97.30576312526568 " fill="none" id="curve_1" stroke="#000000" stroke-linecap="round" stroke-linejoin="round" stroke-width="5.869435974266053"/>
  <path d="M 64.91073589790433, 97.30576312526568 Q 59.663221855768086, 93.46003242379592, 53.27925684961871, 84.70511871461818 " fill="none" id="curve_1" stroke="#000000" stroke-linecap="round" stroke-linejoin="round" stroke-width="6.189571666939587"/>
  <path d="M 53.27925684961871, 84.70511871461818 Q 38.1933150209601, 85.80792191947025, 30.397818215890403, 101.25014289588174 " fill="none" id="curve_1" stroke="#000000" stroke-linecap="round" stroke-linejoin="round" stroke-width="6.004776268769478"/>
  <path d="M 30.397818215890403, 101.25014289588174 Q 33.99398722260928, 99.62587295877596, 36.514266518067174, 92.09144818605296 " fill="none" id="curve_1" stroke="#000000" stroke-linecap="round" stroke-linejoin="round" stroke-width="4.44832739285625"/>
  <path d="M 36.514266518067174, 92.09144818605296 Q 44.564002713387396, 86.60747198206525, 54.666269384694374, 58.24810171387805 " fill="none" id="curve_1" stroke="#000000" stroke-linecap="round" stroke-linejoin="round" stroke-width="4.302354864353331"/>
  <path d="M 54.666269384694374, 58.24810171387805 Q 55.178655059752586, 55.76534705360386, 55.357817398257396, 42.14944245602129 " fill="none" id="curve_1" stroke="#000000" stroke-linecap="round" stroke-linejoin="round" stroke-width="4.575690821715789"/>
  <path d="M 55.357817398257396, 42.14944245602129 Q 44.05429935314193, 44.67118630133747, 38.263056848427944, 54.67098130160589 " fill="none" id="curve_1" stroke="#000000" stroke-linecap="round" stroke-linejoin="round" stroke-width="4.8489545479557945"/>
  <path d="M 38.263056848427944, 54.67098130160589 Q 42.171934661782565, 46.31406869518173, 54.18984505904018, 40.89646273760453 " fill="none" id="curve_1" stroke="#000000" stroke-linecap="round" stroke-linejoin="round" stroke-width="3.546212567276454"/>
  <path d="M 57.57760297580406, 47.83770599984658 Q 55.53847367620314, 48.64406870414367, 54.443324799194954, 52.2398524400387 " fill="none" id="curve_2" stroke="#000000" stroke-linecap="round" stroke-linejoin="round" stroke-width="3.864445490109615"/>
  <path d="M 30.678444822817927, 97.88577782467726 Q 29.340087279755256, 99.95435003029664, 28.30646743547522, 104.40194643700517 " fill="none" id="curve_3" stroke="#000000" stroke-linecap="round" stroke-linejoin="round" stroke-width="4.213875131204056"/>
  <path d="M 30.66074760857958, 97.91969890408868 Q 30.18974366332162, 98.39449981265253, 29.638812270887257, 99.21387906053106 " fill="none" id="curve_4" stroke="#000000" stroke-linecap="round" stroke-linejoin="round" stroke-width="4.057327914469642"/>
  <path d="M 59.22188271910653, 95.8648989016274 Q 57.65562994448121, 89.72703078019313, 52.062303119503376, 84.301560450867 " fill="none" id="curve_19" stroke="#000000" stroke-linecap="round" stroke-linejoin="round" stroke-width="2.513447644835101"/>
  <path d="M 29.928112781013514, 98.51724339735976 Q 32.12688074197345, 96.70069715579145, 35.54484186108712, 94.28342448842507 " fill="none" id="curve_21" stroke="#000000" stroke-linecap="round" stroke-linejoin="round" stroke-width="3.248535241094008"/>
  <path d="M 33.2197197507046, 96.62472918953478 Q 35.05740855424042, 95.66070880193759, 38.41898449773842, 94.72784231947716 " fill="none" id="curve_75" stroke="#000000" stroke-linecap="round" stroke-linejoin="round" stroke-width="3.0475171980371294"/>
  <path d="M 53.367944384742295, 62.129290069601296 Q 55.369469221889574, 57.26843970974258, 56.98170816136969, 45.16395810226993 " fill="none" id="curve_77" stroke="#000000" stroke-linecap="round" stroke-linejoin="round" stroke-width="2.815035121902056"/>
  <path d="M 46.02388295744283, 78.78779282524931 Q 42.9646482041987, 80.71193797357685, 39.32811187610391, 86.95931919140547 " fill="none" id="curve_78" stroke="#000000" stroke-linecap="round" stroke-linejoin="round" stroke-width="2.984207268013176"/>
  <path d="M 29.08379050536602, 97.92512867013757 Q 29.866024748467122, 97.11325052397456, 30.800401322854235, 95.90802638574532 " fill="none" id="curve_82" stroke="#000000" stroke-linecap="round" stroke-linejoin="round" stroke-width="2.7908386554942815"/>
  <path d="M 56.96305664470171, 52.043983914161345 Q 55.37570072203908, 49.80820623550701, 53.454614641171425, 45.62284083591355 " fill="none" id="curve_97" stroke="#000000" stroke-linecap="round" stroke-linejoin="round" stroke-width="2.6087268252828064"/>
  <path d="M 56.4445639110419, 92.9551787231505 Q 55.855076185180494, 88.84057793212408, 54.48951712740233, 85.52087907548069 " fill="none" id="curve_113" stroke="#000000" stroke-linecap="round" stroke-linejoin="round" stroke-width="3.357576420040238"/>
</svg>
