<?xml version="1.0" ?>
<svg height="140" width="140" xmlns="http://www.w3.org/2000/svg">
  <path d="M 55.50340938568115, 38.24496650695801 Q 50.91561736822328, 39.93504169993753, 39.651662213327654, 42.61689467394399 " fill="none" id="curve_1" stroke="#000000" stroke-linecap="round" stroke-linejoin="round" stroke-width="6.904619058068091"/>
  <path d="M 39.651662213327654, 42.61689467394399 Q 34.21067127879608, 45.74176901475577, 29.902528257645482, 50.81615085902661 " fill="none" id="curve_1" stroke="#000000" stroke-linecap="round" stroke-linejoin="round" stroke-width="5.662107482917453"/>
  <path d="M 29.902528257645482, 50.81615085902661 Q 30.618656035904042, 54.21898131309886, 33.495012161258394, 55.35140083901545 " fill="none" id="curve_1" stroke="#000000" stroke-linecap="round" stroke-linejoin="round" stroke-width="3.944364216007002"/>
  <path d="M 62.15025185799273, 44.30994891191866 Q 61.28502541236211, 63.011739800118875, 48.019845045772584, 78.86895547625853 " fill="none" id="curve_2" stroke="#000000" stroke-linecap="round" stroke-linejoin="round" stroke-width="5.694697034566273"/>
  <path d="M 48.019845045772584, 78.86895547625853 Q 42.88845068028289, 90.99484349219126, 28.855568245049458, 104.59752827964704 " fill="none" id="curve_2" stroke="#000000" stroke-linecap="round" stroke-linejoin="round" stroke-width="6.349244917281734"/>
  <path d="M 28.855568245049458, 104.59752827964704 Q 41.64463574867304, 103.90311848276899, 65.95020474758334, 103.12993131339255 " fill="none" id="curve_2" stroke="#000000" stroke-linecap="round" stroke-linejoin="round" stroke-width="6.141838561518"/>
  <path d="M 65.95020474758334, 103.12993131339255 Q 70.43541331655508, 102.9092799667887, 71.71433536257304, 101.72747458917435 " fill="none" id="curve_2" stroke="#000000" stroke-linecap="round" stroke-linejoin="round" stroke-width="6.443639264913524"/>
  <path d="M 60.34350771032823, 50.66975380375208 Q 60.18897552023233, 40.8025161776979, 56.671115376466915, 39.770683695558645 " fill="none" id="curve_3" stroke="#000000" stroke-linecap="round" stroke-linejoin="round" stroke-width="5.6477974636267785"/>
  <path d="M 62.77488134751473, 52.443303278477345 Q 58.30924095254426, 63.468622383068706, 45.12124388386775, 79.7035642526013 " fill="none" id="curve_5" stroke="#000000" stroke-linecap="round" stroke-linejoin="round" stroke-width="3.240497594952406"/>
  <path d="M 58.64498156099422, 105.7117806035937 Q 59.620252720225615, 105.50294980227385, 60.492843676959204, 105.01123787860959 " fill="none" id="curve_6" stroke="#000000" stroke-linecap="round" stroke-linejoin="round" stroke-width="4.353098649390203"/>
  <path d="M 37.997204628643416, 89.78449253064895 Q 42.828143537256516, 84.95846947359, 50.06213870483099, 78.85997791548974 " fill="none" id="curve_7" stroke="#000000" stroke-linecap="round" stroke-linejoin="round" stroke-width="3.2321213371380555"/>
  <path d="M 50.06213870483099, 78.85997791548974 Q 53.52401918555384, 68.90337674502848, 61.391300753400486, 56.246303301014656 " fill="none" id="curve_7" stroke="#000000" stroke-linecap="round" stroke-linejoin="round" stroke-width="4.0216938819726264"/>
  <path d="M 59.47552317907814, 41.3078205015306 Q 43.279584637230386, 41.58425799634961, 39.67976310637508, 46.45714335980984 " fill="none" id="curve_8" stroke="#000000" stroke-linecap="round" stroke-linejoin="round" stroke-width="2.8926960130144597"/>
  <path d="M 59.73887620034945, 55.96768900068182 Q 59.80910308226207, 57.105944745999025, 59.925418729293895, 58.4854584354783 " fill="none" id="curve_9" stroke="#000000" stroke-linecap="round" stroke-linejoin="round" stroke-width="5.874647996301903"/>
  <path d="M 59.925418729293895, 58.4854584354783 Q 58.43581657711135, 60.02190705842669, 55.51358226696609, 63.019411582317126 " fill="none" id="curve_9" stroke="#000000" stroke-linecap="round" stroke-linejoin="round" stroke-width="3.140691581369893"/>
  <path d="M 53.33365645376179, 104.6013158532231 Q 45.94576995051569, 103.21446996346774, 34.18612759923819, 100.97742459775748 " fill="none" id="curve_13" stroke="#000000" stroke-linecap="round" stroke-linejoin="round" stroke-width="3.820349871338575"/>
  <path d="M 34.2616768418557, 95.27257851905314 Q 32.988389676220145, 97.81206944625536, 31.05210546635801, 101.15265704723784 " fill="none" id="curve_30" stroke="#000000" stroke-linecap="round" stroke-linejoin="round" stroke-width="4.138482555125124"/>
  <path d="M 53.318083209367956, 68.15362917194219 Q 54.38554868767704, 64.4406382845035, 57.408314670137045, 61.44990314267109 " fill="none" id="curve_32" stroke="#000000" stroke-linecap="round" stroke-linejoin="round" stroke-width="3.145651717692288"/>
  <path d="M 54.566763401031494, 40.503112614154816 Q 57.555866921168835, 40.73212904239507, 61.96686839254471, 41.10026869534818 " fill="none" id="curve_46" stroke="#000000" stroke-linecap="round" stroke-linejoin="round" stroke-width="2.706725275997285"/>
  <path d="M 45.92139205665478, 101.02958559196406 Q 44.78910996366718, 101.0010776900247, 43.34586259787813, 100.9526822184127 " fill="none" id="curve_61" stroke="#000000" stroke-linecap="round" stroke-linejoin="round" stroke-width="3.785700615459307"/>
  <path d="M 60.49775186149094, 57.202668668580365 Q 60.885512380030626, 56.12256982030574, 61.578394737414705, 55.14760527504489 " fill="none" id="curve_63" stroke="#000000" stroke-linecap="round" stroke-linejoin="round" stroke-width="5.73479133809368"/>
  <path d="M 58.11876564776495, 56.986925957153886 Q 59.32702234809338, 55.78855987187174, 60.95024658713838, 53.99256978984211 " fill="none" id="curve_79" stroke="#000000" stroke-linecap="round" stroke-linejoin="round" stroke-width="3.7697814872399933"/>
  <path d="M 34.376439839813465, 49.17922583799874 Q 35.67972899931363, 46.77150595429374, 40.21089170049406, 45.18120010994697 " fill="none" id="curve_87" stroke="#000000" stroke-linecap="round" stroke-linejoin="round" stroke-width="3.1461501964001095"/>
  <path d="M 52.36283712193404, 39.9983666848279 Q 52.019585536538635, 39.402451580607156, 50.957964351971185, 38.853603861411344 " fill="none" id="curve_110" stroke="#000000" stroke-linecap="round" stroke-linejoin="round" stroke-width="4.159641739566636"/>
  <path d="M 69.02023326003302, 101.68901809274911 Q 68.81512775128913, 100.47715857886604, 67.32210813981492, 100.19517257926294 " fill="none" id="curve_164" stroke="#000000" stroke-linecap="round" stroke-linejoin="round" stroke-width="3.830955344024474"/>
</svg>
