<?xml version="1.0" ?>
<svg height="140" width="140" xmlns="http://www.w3.org/2000/svg">
  <path d="M 67.01799478288268, 91.48947739953826 Q 66.59252522281501, 91.80781572113733, 54.39855653290183, 91.84931108673466 " fill="none" id="curve_2" stroke="#000000" stroke-linecap="round" stroke-linejoin="round" stroke-width="7.60712754813869"/>
  <path d="M 54.39855653290183, 91.84931108673466 Q 49.536593794389425, 93.58881274209006, 32.15546496396624, 94.81363839226846 " fill="none" id="curve_2" stroke="#000000" stroke-linecap="round" stroke-linejoin="round" stroke-width="6.4042794267030265"/>
  <path d="M 32.15546496396624, 94.81363839226846 Q 32.33069944827597, 88.76925268069382, 34.27746583328999, 86.60116713302043 " fill="none" id="curve_2" stroke="#000000" stroke-linecap="round" stroke-linejoin="round" stroke-width="4.889809473711953"/>
  <path d="M 34.27746583328999, 86.60116713302043 Q 51.984024651733186, 82.73057942686533, 64.29836476964971, 56.629337229396825 " fill="none" id="curve_2" stroke="#000000" stroke-linecap="round" stroke-linejoin="round" stroke-width="4.55693874276011"/>
  <path d="M 64.29836476964971, 56.629337229396825 Q 64.19808404229106, 38.05066412517631, 51.95779150945195, 37.425275900116716 " fill="none" id="curve_2" stroke="#000000" stroke-linecap="round" stroke-linejoin="round" stroke-width="4.761017796769168"/>
  <path d="M 51.95779150945195, 37.425275900116716 Q 38.808112993485956, 40.45050937376451, 32.596597551478425, 59.7926235085034 " fill="none" id="curve_2" stroke="#000000" stroke-linecap="round" stroke-linejoin="round" stroke-width="4.7815079653754"/>
  <path d="M 28.975399482629594, 90.67458779542036 Q 29.08521863685236, 93.54260279119754, 29.54167953255635, 94.579147539006 " fill="none" id="curve_3" stroke="#000000" stroke-linecap="round" stroke-linejoin="round" stroke-width="4.2688541163089875"/>
  <path d="M 64.66666525093704, 89.24771132485539 Q 66.04460355201019, 90.03083863800941, 68.14539087089939, 90.81976524403251 " fill="none" id="curve_4" stroke="#000000" stroke-linecap="round" stroke-linejoin="round" stroke-width="4.819838456280056"/>
  <path d="M 61.61998273387831, 60.450712786123546 Q 62.72605092946138, 52.9538963250005, 64.5472038473288, 43.18941581565903 " fill="none" id="curve_5" stroke="#000000" stroke-linecap="round" stroke-linejoin="round" stroke-width="3.031906093177666"/>
  <path d="M 64.5472038473288, 43.18941581565903 Q 62.43576536796294, 38.65246435272453, 47.870114673832816, 36.6687354526569 " fill="none" id="curve_5" stroke="#000000" stroke-linecap="round" stroke-linejoin="round" stroke-width="3.466782095440241"/>
  <path d="M 47.870114673832816, 36.6687354526569 Q 40.90521476152146, 37.4525986045905, 39.2956147379863, 44.60225146728319 " fill="none" id="curve_5" stroke="#000000" stroke-linecap="round" stroke-linejoin="round" stroke-width="2.747151159071379"/>
  <path d="M 45.66485365601131, 78.48747298073333 Q 48.2367713275457, 75.61177462197541, 53.36625274569423, 72.50422138370266 " fill="none" id="curve_7" stroke="#000000" stroke-linecap="round" stroke-linejoin="round" stroke-width="2.2540113585312356"/>
  <path d="M 60.248732412657475, 90.58764452546797 Q 63.02981433314065, 90.8166019346155, 68.99437334540607, 90.95283335400458 " fill="none" id="curve_8" stroke="#000000" stroke-linecap="round" stroke-linejoin="round" stroke-width="3.6313733284197935"/>
  <path d="M 68.99437334540607, 90.95283335400458 Q 67.79625450731821, 89.61700305122609, 58.70839079210465, 89.25494652888624 " fill="none" id="curve_8" stroke="#000000" stroke-linecap="round" stroke-linejoin="round" stroke-width="2.9854532900219937"/>
  <path d="M 63.53975666819716, 46.18737533136748 Q 62.86015921433286, 51.37273690781091, 61.817147174628964, 57.537803671045324 " fill="none" id="curve_10" stroke="#000000" stroke-linecap="round" stroke-linejoin="round" stroke-width="3.0638133123090037"/>
  <path d="M 33.690839717484245, 57.29705737769052 Q 33.045308570654925, 59.19848095766004, 31.690773699059392, 61.02081548180788 " fill="none" id="curve_12" stroke="#000000" stroke-linecap="round" stroke-linejoin="round" stroke-width="3.061629100083257"/>
  <path d="M 59.02746979248615, 40.957836635641 Q 58.80950099672957, 36.73997180773452, 54.27013250999934, 36.20852957642288 " fill="none" id="curve_27" stroke="#000000" stroke-linecap="round" stroke-linejoin="round" stroke-width="3.0732625854758586"/>
  <path d="M 57.01645162601698, 68.25656077854788 Q 58.757675165596886, 64.58083696286995, 63.466365772425874, 62.501718480686414 " fill="none" id="curve_29" stroke="#000000" stroke-linecap="round" stroke-linejoin="round" stroke-width="3.5417183544685993"/>
  <path d="M 46.97279696379453, 78.7846767789041 Q 39.449993366112714, 81.3692531488605, 31.48824050166988, 89.28352235304402 " fill="none" id="curve_32" stroke="#000000" stroke-linecap="round" stroke-linejoin="round" stroke-width="2.5322711926364803"/>
  <path d="M 31.48824050166988, 89.28352235304402 Q 31.49313964328556, 88.72032121056668, 31.500421641286064, 88.19105153898984 " fill="none" id="curve_32" stroke="#000000" stroke-linecap="round" stroke-linejoin="round" stroke-width="4.744513007131848"/>
  <path d="M 63.69595302918471, 50.755662299716285 Q 63.988729504606084, 48.69842186863602, 64.68953298980603, 46.914182420551285 " fill="none" id="curve_36" stroke="#000000" stroke-linecap="round" stroke-linejoin="round" stroke-width="3.7055383371070723"/>
  <path d="M 62.9079155569607, 60.47245812090314 Q 58.726494393153686, 65.75403051714731, 52.84860568140664, 73.82555976983504 " fill="none" id="curve_45" stroke="#000000" stroke-linecap="round" stroke-linejoin="round" stroke-width="2.9505305553999173"/>
  <path d="M 35.63473290760715, 52.45630048663254 Q 38.94706040861031, 50.13586500941733, 41.38686481325615, 44.37774721889681 " fill="none" id="curve_51" stroke="#000000" stroke-linecap="round" stroke-linejoin="round" stroke-width="2.5720651145253903"/>
  <path d="M 62.42684927881068, 53.01863528786484 Q 62.56744319892966, 51.27215031084239, 62.734376684627485, 48.31067468145512 " fill="none" id="curve_59" stroke="#000000" stroke-linecap="round" stroke-linejoin="round" stroke-width="4.602104966597559"/>
  <path d="M 34.26757917916922, 86.6592017903807 Q 34.96680856988468, 90.24238290653611, 36.33895655509144, 94.29853594427463 " fill="none" id="curve_67" stroke="#000000" stroke-linecap="round" stroke-linejoin="round" stroke-width="3.822278625550364"/>
  <path d="M 53.19507499442277, 89.65056119201398 Q 46.99426773722021, 90.15093136992692, 43.10782479058732, 92.26902357702119 " fill="none" id="curve_83" stroke="#000000" stroke-linecap="round" stroke-linejoin="round" stroke-width="2.503695285367421"/>
  <path d="M 53.04767701117008, 68.16199387112363 Q 58.923731980385526, 67.09857756403149, 62.02034179931185, 63.51626423727327 " fill="none" id="curve_84" stroke="#000000" stroke-linecap="round" stroke-linejoin="round" stroke-width="3.6362660187209386"/>
  <path d="M 32.821477576681836, 56.080061717562856 Q 32.64027921783623, 57.08228626193465, 32.34287580908532, 58.32720790862247 " fill="none" id="curve_86" stroke="#000000" stroke-linecap="round" stroke-linejoin="round" stroke-width="3.3129198919985523"/>
  <path d="M 57.38053493081774, 38.39762620643056 Q 59.130539820270094, 38.73842148993653, 61.16765564344637, 39.35916489863729 " fill="none" id="curve_93" stroke="#000000" stroke-linecap="round" stroke-linejoin="round" stroke-width="2.948863594047207"/>
  <path d="M 32.85613416052648, 59.62002497661539 Q 33.05833538151308, 54.292503363936405, 34.68491485605288, 52.22170455069734 " fill="none" id="curve_150" stroke="#000000" stroke-linecap="round" stroke-linejoin="round" stroke-width="2.6522141980769405"/>
  <path d="M 61.61351679903276, 39.64479440171884 Q 59.892555342088635, 37.40071310508459, 52.90204126608401, 35.73460763270177 " fill="none" id="curve_182" stroke="#000000" stroke-linecap="round" stroke-linejoin="round" stroke-width="2.232410815555767"/>
</svg>
