<?xml version="1.0" ?>
<svg height="140" width="140" xmlns="http://www.w3.org/2000/svg">
  <path d="M 55.44718551635742, 42.08009433746338 Q 48.34246261892198, 43.01691334979522, 42.2609215285629, 47.54489123588427 " fill="none" id="curve_1" stroke="#000000" stroke-linecap="round" stroke-linejoin="round" stroke-width="6.456334353424609"/>
  <path d="M 42.2609215285629, 47.54489123588427 Q 35.48057363814624, 50.612014037646915, 28.095836001607672, 61.7343647884641 " fill="none" id="curve_1" stroke="#000000" stroke-linecap="round" stroke-linejoin="round" stroke-width="3.5563306250715523"/>
  <path d="M 28.095836001607672, 61.7343647884641 Q 28.12863909941761, 65.6859112136645, 28.535111015140526, 66.22618628798911 " fill="none" id="curve_1" stroke="#000000" stroke-linecap="round" stroke-linejoin="round" stroke-width="4.442054765513385"/>
  <path d="M 56.898493531791644, 54.592087632499855 Q 53.49051873211492, 64.35795090779447, 41.743120954735645, 86.58344283499248 " fill="none" id="curve_2" stroke="#000000" stroke-linecap="round" stroke-linejoin="round" stroke-width="4.588887554363955"/>
  <path d="M 41.743120954735645, 86.58344283499248 Q 37.884251402177405, 94.91415726720763, 25.87038024342914, 120.58239414996171 " fill="none" id="curve_2" stroke="#000000" stroke-linecap="round" stroke-linejoin="round" stroke-width="4.502633963169856"/>
  <path d="M 25.87038024342914, 120.58239414996171 Q 25.71840997333594, 123.89132216278972, 24.81165883229286, 124.86303074374764 " fill="none" id="curve_2" stroke="#000000" stroke-linecap="round" stroke-linejoin="round" stroke-width="4.893178793627458"/>
  <path d="M 24.81165883229286, 124.86303074374764 Q 36.13788403097149, 118.73184765482608, 64.77981989390528, 107.1856030093447 " fill="none" id="curve_2" stroke="#000000" stroke-linecap="round" stroke-linejoin="round" stroke-width="3.9329837333715782"/>
  <path d="M 64.77981989390528, 107.1856030093447 Q 68.08363163400605, 107.50274951008087, 72.52163219120371, 107.85259116896638 " fill="none" id="curve_2" stroke="#000000" stroke-linecap="round" stroke-linejoin="round" stroke-width="4.491506416330965"/>
  <path d="M 53.66270426737538, 63.97652190266875 Q 56.71209967468875, 58.088370032597, 59.38963990606792, 44.385747026595425 " fill="none" id="curve_3" stroke="#000000" stroke-linecap="round" stroke-linejoin="round" stroke-width="5.000900046834795"/>
  <path d="M 59.38963990606792, 44.385747026595425 Q 58.9439623900021, 43.62793090257705, 49.04529065155768, 43.52754588511639 " fill="none" id="curve_3" stroke="#000000" stroke-linecap="round" stroke-linejoin="round" stroke-width="2.9118612530556827"/>
  <path d="M 61.13884477524819, 49.74246710256423 Q 54.38886935235885, 56.61168768997805, 45.65978343789024, 75.7463199779105 " fill="none" id="curve_4" stroke="#000000" stroke-linecap="round" stroke-linejoin="round" stroke-width="2.7935517125598097"/>
  <path d="M 45.65978343789024, 75.7463199779105 Q 43.75815433947603, 81.7911781293028, 42.17140394066708, 91.09908507423127 " fill="none" id="curve_4" stroke="#000000" stroke-linecap="round" stroke-linejoin="round" stroke-width="3.4453570207401554"/>
  <path d="M 63.26173693400635, 108.56206134515791 Q 48.46942994388229, 110.01472939248856, 37.29907027212185, 118.70068403002605 " fill="none" id="curve_5" stroke="#000000" stroke-linecap="round" stroke-linejoin="round" stroke-width="2.99712625610748"/>
  <path d="M 32.71086924077856, 103.72027695822061 Q 32.50830639458193, 102.72280313446247, 32.26333607926063, 100.71279532712748 " fill="none" id="curve_6" stroke="#000000" stroke-linecap="round" stroke-linejoin="round" stroke-width="3.322141799368839"/>
  <path d="M 43.19931094764408, 82.01655186588663 Q 43.71386424431835, 81.27049273584629, 44.32616063641314, 80.37715573811029 " fill="none" id="curve_7" stroke="#000000" stroke-linecap="round" stroke-linejoin="round" stroke-width="6.409232236669147"/>
  <path d="M 29.740444046420382, 120.95603615741778 Q 28.70435781214448, 120.77236227266275, 27.261257023822427, 120.47933256545355 " fill="none" id="curve_8" stroke="#000000" stroke-linecap="round" stroke-linejoin="round" stroke-width="4.480284704992386"/>
  <path d="M 61.86396857570554, 108.87825212105116 Q 60.49320842904659, 108.73072124968051, 58.053369159835356, 108.52678786909762 " fill="none" id="curve_19" stroke="#000000" stroke-linecap="round" stroke-linejoin="round" stroke-width="4.545072747529598"/>
  <path d="M 66.81205313042983, 108.73568831982652 Q 65.13229992576689, 108.89083181077851, 58.05060397193952, 108.97446348139232 " fill="none" id="curve_34" stroke="#000000" stroke-linecap="round" stroke-linejoin="round" stroke-width="3.364204476488566"/>
  <path d="M 32.9088134765625, 120.95055389404297 Q 29.960378236059086, 121.16187000095027, 23.858570149949287, 121.45083021823234 " fill="none" id="curve_48" stroke="#000000" stroke-linecap="round" stroke-linejoin="round" stroke-width="3.124083288043856"/>
  <path d="M 33.21836471557617, 121.92060470581055 Q 32.42129450856323, 120.08646527985005, 26.075219357082574, 119.45315040796936 " fill="none" id="curve_62" stroke="#000000" stroke-linecap="round" stroke-linejoin="round" stroke-width="4.0740607987905575"/>
  <path d="M 26.075219357082574, 119.45315040796936 Q 29.19278463855633, 118.43342475354846, 30.472107453159133, 112.99009594965861 " fill="none" id="curve_62" stroke="#000000" stroke-linecap="round" stroke-linejoin="round" stroke-width="2.45371276394885"/>
  <path d="M 30.472107453159133, 112.99009594965861 Q 30.6329614015444, 105.89714126551989, 32.26235148579826, 104.49333876013613 " fill="none" id="curve_62" stroke="#000000" stroke-linecap="round" stroke-linejoin="round" stroke-width="3.0528785243915384"/>
  <path d="M 52.13377377909758, 66.489448338211 Q 53.22438458999221, 66.3993009119244, 53.81447766796166, 66.05700912721063 " fill="none" id="curve_64" stroke="#000000" stroke-linecap="round" stroke-linejoin="round" stroke-width="3.4893073276977735"/>
  <path d="M 48.592027938597, 42.98865543609517 Q 48.0574800006708, 43.010715212291615, 47.2820422494875, 43.04226323990847 " fill="none" id="curve_65" stroke="#000000" stroke-linecap="round" stroke-linejoin="round" stroke-width="3.985263676420931"/>
  <path d="M 46.48801917629513, 78.17349381639588 Q 45.602321414178306, 83.49657227676482, 42.70939785081375, 85.95914874935622 " fill="none" id="curve_66" stroke="#000000" stroke-linecap="round" stroke-linejoin="round" stroke-width="3.0889149651805887"/>
  <path d="M 57.649111308416664, 41.926127278430634 Q 57.57501421136101, 42.43939182937147, 57.436633129188664, 43.29247010791803 " fill="none" id="curve_69" stroke="#000000" stroke-linecap="round" stroke-linejoin="round" stroke-width="2.5406413615219465"/>
  <path d="M 53.09668762243648, 57.12512859913358 Q 55.80612403454972, 56.755117326852904, 57.84579565754943, 55.190731289107255 " fill="none" id="curve_72" stroke="#000000" stroke-linecap="round" stroke-linejoin="round" stroke-width="3.2291221120442746"/>
  <path d="M 62.50641412379798, 109.19226362326805 Q 60.64666262318374, 109.21670951143301, 56.585633210647465, 109.23613579904253 " fill="none" id="curve_87" stroke="#000000" stroke-linecap="round" stroke-linejoin="round" stroke-width="3.4203959480495336"/>
  <path d="M 36.44933025990764, 118.60301549150269 Q 31.97970580899245, 121.20924614005415, 24.581097705868082, 123.6067311515187 " fill="none" id="curve_104" stroke="#000000" stroke-linecap="round" stroke-linejoin="round" stroke-width="3.202728367171274"/>
  <path d="M 24.581097705868082, 123.6067311515187 Q 24.53143290683841, 123.53031712372272, 24.465508329141734, 123.42504037664713 " fill="none" id="curve_104" stroke="#000000" stroke-linecap="round" stroke-linejoin="round" stroke-width="3.4331328534272654"/>
  <path d="M 36.91085011105396, 117.21489177562918 Q 35.55488149206392, 122.29260106825167, 23.412714330179128, 123.24173321239141 " fill="none" id="curve_124" stroke="#000000" stroke-linecap="round" stroke-linejoin="round" stroke-width="3.1978097488183876"/>
</svg>
