<?xml version="1.0" ?>
<svg height="140" width="140" xmlns="http://www.w3.org/2000/svg">
  <path d="M 74.00419998168945, 71.93580722808838 Q 74.3310118092845, 70.06337375355689, 76.44568399136901, 69.40867938049648 " fill="none" id="curve_1" stroke="#000000" stroke-linecap="round" stroke-linejoin="round" stroke-width="3.6506343376450414"/>
  <path d="M 76.44568399136901, 69.40867938049648 Q 71.36595290609014, 73.0013786328318, 66.76945271444103, 87.0623535456696 " fill="none" id="curve_1" stroke="#000000" stroke-linecap="round" stroke-linejoin="round" stroke-width="5.294594357964308"/>
  <path d="M 66.76945271444103, 87.0623535456696 Q 62.756103412167136, 93.14980204856748, 51.59561657176015, 112.32591568818619 " fill="none" id="curve_1" stroke="#000000" stroke-linecap="round" stroke-linejoin="round" stroke-width="3.9613104440821902"/>
  <path d="M 51.59561657176015, 112.32591568818619 Q 46.8774765037179, 117.74156261448255, 42.88534535340454, 124.78179730292108 " fill="none" id="curve_1" stroke="#000000" stroke-linecap="round" stroke-linejoin="round" stroke-width="6.053612692990745"/>
  <path d="M 42.88534535340454, 124.78179730292108 Q 38.48658461248712, 117.23389767995572, 32.67608732339975, 99.25605616521722 " fill="none" id="curve_1" stroke="#000000" stroke-linecap="round" stroke-linejoin="round" stroke-width="6.0436996457873216"/>
  <path d="M 32.67608732339975, 99.25605616521722 Q 26.635725178297587, 107.31886750650555, 20.403687246113005, 116.76803749530809 " fill="none" id="curve_1" stroke="#000000" stroke-linecap="round" stroke-linejoin="round" stroke-width="6.167865798036921"/>
  <path d="M 20.403687246113005, 116.76803749530809 Q 25.72984305697707, 108.28059075468295, 32.729613597043496, 97.44068913424391 " fill="none" id="curve_1" stroke="#000000" stroke-linecap="round" stroke-linejoin="round" stroke-width="4.626367685254093"/>
  <path d="M 32.729613597043496, 97.44068913424391 Q 37.637316829650544, 88.34981801020218, 47.547757984646395, 58.3977214505286 " fill="none" id="curve_1" stroke="#000000" stroke-linecap="round" stroke-linejoin="round" stroke-width="4.713278275797834"/>
  <path d="M 47.547757984646395, 58.3977214505286 Q 50.125940940067075, 49.38486860558926, 55.21043246513602, 24.4786417427323 " fill="none" id="curve_1" stroke="#000000" stroke-linecap="round" stroke-linejoin="round" stroke-width="5.6760741903936855"/>
  <path d="M 55.21043246513602, 24.4786417427323 Q 55.24819719608746, 16.822620980838888, 55.290633321800726, 3.2028228847072846 " fill="none" id="curve_1" stroke="#000000" stroke-linecap="round" stroke-linejoin="round" stroke-width="4.811017349601765"/>
  <path d="M 55.290633321800726, 3.2028228847072846 Q 47.1645647813832, 8.728345353725384, 26.69695343031949, 38.577930545257615 " fill="none" id="curve_1" stroke="#000000" stroke-linecap="round" stroke-linejoin="round" stroke-width="4.742025724287618"/>
  <path d="M 26.69695343031949, 38.577930545257615 Q 25.53010474156386, 47.05587688783, 23.90928581483917, 53.76162629323795 " fill="none" id="curve_1" stroke="#000000" stroke-linecap="round" stroke-linejoin="round" stroke-width="4.8166493987620225"/>
  <path d="M 54.13141671198039, 28.71835174159015 Q 54.69264021402055, 23.75002559717658, 55.04670602849479, 4.562517867805003 " fill="none" id="curve_2" stroke="#000000" stroke-linecap="round" stroke-linejoin="round" stroke-width="3.6506595379277473"/>
  <path d="M 55.04670602849479, 4.562517867805003 Q 48.62212601226675, 5.55468070343493, 45.220643841319855, 11.350315700427487 " fill="none" id="curve_2" stroke="#000000" stroke-linecap="round" stroke-linejoin="round" stroke-width="3.2311194624225155"/>
  <path d="M 56.5886957720888, 8.251347394925538 Q 56.77781025932545, 14.81599643346006, 57.08222697033272, 22.98390012858774 " fill="none" id="curve_5" stroke="#000000" stroke-linecap="round" stroke-linejoin="round" stroke-width="2.6946827515638603"/>
  <path d="M 57.08222697033272, 22.98390012858774 Q 54.47448453573771, 39.10038599275937, 46.28465153928052, 57.196914637549646 " fill="none" id="curve_5" stroke="#000000" stroke-linecap="round" stroke-linejoin="round" stroke-width="2.9392279566802255"/>
  <path d="M 52.69007552715915, 112.21569149654198 Q 48.31500169559721, 115.874510165533, 43.0150399318823, 120.34200020961939 " fill="none" id="curve_8" stroke="#000000" stroke-linecap="round" stroke-linejoin="round" stroke-width="4.880633111213952"/>
  <path d="M 25.28403524019152, 109.25055801970856 Q 23.008517455652633, 110.04097309795733, 21.692807346049253, 112.27914041335394 " fill="none" id="curve_9" stroke="#000000" stroke-linecap="round" stroke-linejoin="round" stroke-width="7.6140524114415795"/>
  <path d="M 33.334732343648255, 92.44309303858938 Q 37.894589548386136, 85.37890458112814, 43.573300953211934, 69.77379897898746 " fill="none" id="curve_10" stroke="#000000" stroke-linecap="round" stroke-linejoin="round" stroke-width="2.4939363239417887"/>
  <path d="M 52.61755582510958, 3.973010835338968 Q 52.14298734406628, 3.9863791379523854, 51.738694588109325, 4.019224169612985 " fill="none" id="curve_12" stroke="#000000" stroke-linecap="round" stroke-linejoin="round" stroke-width="5.446974717055725"/>
  <path d="M 40.3294787667985, 16.761582941853625 Q 40.86678612539042, 17.062761692695904, 42.04058790215491, 17.85532127786078 " fill="none" id="curve_15" stroke="#000000" stroke-linecap="round" stroke-linejoin="round" stroke-width="2.424846739176037"/>
  <path d="M 23.967452584186496, 115.59652366342918 Q 24.992237170749593, 111.20890615174007, 28.132575135592344, 107.13856512996648 " fill="none" id="curve_18" stroke="#000000" stroke-linecap="round" stroke-linejoin="round" stroke-width="3.1526458945012847"/>
  <path d="M 53.28997495819868, 37.244274934677534 Q 48.838914247907525, 47.6555813191378, 43.785662816165235, 73.01602416450623 " fill="none" id="curve_20" stroke="#000000" stroke-linecap="round" stroke-linejoin="round" stroke-width="2.529448408441003"/>
  <path d="M 72.29579111143175, 77.12450844276154 Q 72.8738797979901, 76.5530974869147, 73.38262561739916, 75.28833102909694 " fill="none" id="curve_28" stroke="#000000" stroke-linecap="round" stroke-linejoin="round" stroke-width="3.510681716860727"/>
  <path d="M 37.85849737086949, 122.6812965399341 Q 37.421600592717105, 110.54403151077508, 35.61179304562286, 102.11316538645474 " fill="none" id="curve_33" stroke="#000000" stroke-linecap="round" stroke-linejoin="round" stroke-width="2.514694324809787"/>
  <path d="M 49.5162842995927, 117.17134128759318 Q 50.54977095160155, 109.64080031302731, 56.9119490600996, 105.24705361206223 " fill="none" id="curve_48" stroke="#000000" stroke-linecap="round" stroke-linejoin="round" stroke-width="2.280722669978002"/>
  <path d="M 32.37446455777376, 94.29714500615228 Q 30.902193945423186, 95.12174508706872, 29.73175140767999, 98.14553799532605 " fill="none" id="curve_76" stroke="#000000" stroke-linecap="round" stroke-linejoin="round" stroke-width="2.7018360904127174"/>
  <path d="M 33.807120924696406, 89.08419762089292 Q 38.13488449402347, 83.32035693725493, 42.77696495203013, 70.99430052737534 " fill="none" id="curve_78" stroke="#000000" stroke-linecap="round" stroke-linejoin="round" stroke-width="2.4616114378506615"/>
  <path d="M 42.77696495203013, 70.99430052737534 Q 45.042213945360224, 67.25338051184303, 47.21797730799727, 60.9000858644703 " fill="none" id="curve_78" stroke="#000000" stroke-linecap="round" stroke-linejoin="round" stroke-width="3.2463709963948384"/>
  <path d="M 46.955966364015126, 51.01233536466361 Q 48.93015451635461, 45.98517084432575, 53.2712243705285, 40.39105891417802 " fill="none" id="curve_93" stroke="#000000" stroke-linecap="round" stroke-linejoin="round" stroke-width="3.034196296161109"/>
  <path d="M 35.147539278790646, 104.76807117548117 Q 35.84724328282069, 105.29073356742006, 36.86053713193019, 106.44483881288261 " fill="none" id="curve_121" stroke="#000000" stroke-linecap="round" stroke-linejoin="round" stroke-width="3.1053484272987277"/>
</svg>
