<?xml version="1.0" ?>
<svg height="140" width="140" xmlns="http://www.w3.org/2000/svg">
  <path d="M 59.790313720703125, 60.4644889831543 Q 60.35584868784331, 62.225544324435575, 61.109297830197065, 66.41073913344366 " fill="none" id="curve_1" stroke="#000000" stroke-linecap="round" stroke-linejoin="round" stroke-width="5.826737824553694"/>
  <path d="M 61.109297830197065, 66.41073913344366 Q 58.39943048421371, 76.17383426675883, 45.85368757182278, 95.68250217948543 " fill="none" id="curve_1" stroke="#000000" stroke-linecap="round" stroke-linejoin="round" stroke-width="4.504018676793362"/>
  <path d="M 45.85368757182278, 95.68250217948543 Q 42.21790774674373, 102.15977555256006, 39.28970071073818, 111.61282350210386 " fill="none" id="curve_1" stroke="#000000" stroke-linecap="round" stroke-linejoin="round" stroke-width="5.009259220826368"/>
  <path d="M 39.28970071073818, 111.61282350210386 Q 40.684530911470006, 119.57577664590575, 50.380121604818505, 120.96770052512356 " fill="none" id="curve_1" stroke="#000000" stroke-linecap="round" stroke-linejoin="round" stroke-width="4.865887151113592"/>
  <path d="M 50.380121604818505, 120.96770052512356 Q 64.15375378125296, 120.1695289794817, 68.37988980521098, 116.60676285169767 " fill="none" id="curve_1" stroke="#000000" stroke-linecap="round" stroke-linejoin="round" stroke-width="3.3932026144034944"/>
  <path d="M 40.222473000379466, 104.03161896867923 Q 39.21121056313664, 105.07759235023744, 38.704022085764024, 108.3466741313868 " fill="none" id="curve_2" stroke="#000000" stroke-linecap="round" stroke-linejoin="round" stroke-width="3.2517986327172985"/>
  <path d="M 58.947359017527454, 59.37405234506992 Q 57.91011149640939, 56.97462092819837, 47.51149600915899, 56.2786452038305 " fill="none" id="curve_4" stroke="#000000" stroke-linecap="round" stroke-linejoin="round" stroke-width="4.506773774826919"/>
  <path d="M 47.51149600915899, 56.2786452038305 Q 33.987524346441425, 56.917911321198496, 21.5617108104169, 60.11281985137876 " fill="none" id="curve_4" stroke="#000000" stroke-linecap="round" stroke-linejoin="round" stroke-width="5.058731013493021"/>
  <path d="M 21.5617108104169, 60.11281985137876 Q 18.265912156244227, 60.05452619206928, 16.846413043892582, 59.854522881818156 " fill="none" id="curve_4" stroke="#000000" stroke-linecap="round" stroke-linejoin="round" stroke-width="5.504723981662042"/>
  <path d="M 54.09862866125798, 57.83607292313384 Q 58.786423229970495, 59.577293572379126, 62.28234255507849, 62.35467643057379 " fill="none" id="curve_5" stroke="#000000" stroke-linecap="round" stroke-linejoin="round" stroke-width="4.056543903889462"/>
  <path d="M 45.835040583807576, 98.24436463896721 Q 42.16865252821876, 99.78257406377486, 39.55927438319644, 103.42059529321472 " fill="none" id="curve_6" stroke="#000000" stroke-linecap="round" stroke-linejoin="round" stroke-width="3.6140145020384224"/>
  <path d="M 37.78930309486026, 57.96373069486714 Q 37.417867581916006, 56.89796735739483, 33.91256596486016, 56.529640063433725 " fill="none" id="curve_8" stroke="#000000" stroke-linecap="round" stroke-linejoin="round" stroke-width="3.2715416243912006"/>
  <path d="M 42.50805125789684, 57.15583147826501 Q 40.17008889202063, 57.02557312731028, 35.64217875327492, 56.79445782276403 " fill="none" id="curve_9" stroke="#000000" stroke-linecap="round" stroke-linejoin="round" stroke-width="3.1191821162779245"/>
  <path d="M 58.31322707201423, 69.38091188920225 Q 57.758640041639524, 70.68506709495873, 56.97128955976569, 72.77162472068655 " fill="none" id="curve_37" stroke="#000000" stroke-linecap="round" stroke-linejoin="round" stroke-width="2.9213476028527197"/>
  <path d="M 51.47291896795458, 57.70664611208683 Q 52.48233512342844, 56.296857983690735, 54.69460974076911, 55.047041349698134 " fill="none" id="curve_92" stroke="#000000" stroke-linecap="round" stroke-linejoin="round" stroke-width="3.311225818431186"/>
  <path d="M 49.72952048118094, 87.02347066061486 Q 53.3424632493725, 83.38638181181433, 56.83156775279902, 75.40765626406002 " fill="none" id="curve_120" stroke="#000000" stroke-linecap="round" stroke-linejoin="round" stroke-width="2.7355183934295204"/>
  <path d="M 40.5268687408132, 56.562408123845024 Q 35.72269200413011, 56.74144296634052, 30.5247000746499, 57.2057132675069 " fill="none" id="curve_127" stroke="#000000" stroke-linecap="round" stroke-linejoin="round" stroke-width="2.6227644741673526"/>
  <path d="M 41.4756616111097, 57.485389050381784 Q 40.43632666148703, 56.9193257839228, 36.777174340113405, 56.363707652390154 " fill="none" id="curve_131" stroke="#000000" stroke-linecap="round" stroke-linejoin="round" stroke-width="2.99386720259706"/>
</svg>
