<?xml version="1.0" ?>
<svg height="140" width="140" xmlns="http://www.w3.org/2000/svg">
  <path d="M 67.57531929016113, 110.30500602722168 Q 67.37467478146836, 109.74341314615344, 60.40438670521087, 109.69562459243392 " fill="none" id="curve_1" stroke="#000000" stroke-linecap="round" stroke-linejoin="round" stroke-width="7.529575966761475"/>
  <path d="M 60.40438670521087, 109.69562459243392 Q 52.91140793261575, 109.06207229032185, 49.00990340879435, 105.58983769799845 " fill="none" id="curve_1" stroke="#000000" stroke-linecap="round" stroke-linejoin="round" stroke-width="7.766033347621233"/>
  <path d="M 49.00990340879435, 105.58983769799845 Q 45.23777911963126, 103.17891565956052, 38.62624942313497, 100.25525411557823 " fill="none" id="curve_1" stroke="#000000" stroke-linecap="round" stroke-linejoin="round" stroke-width="8.351344986635034"/>
  <path d="M 38.62624942313497, 100.25525411557823 Q 35.80528471757006, 107.40483468492454, 21.26015027917134, 110.89678202367716 " fill="none" id="curve_1" stroke="#000000" stroke-linecap="round" stroke-linejoin="round" stroke-width="4.508393899006676"/>
  <path d="M 21.26015027917134, 110.89678202367716 Q 21.354379961206742, 97.99023617648244, 31.320994686305824, 97.50611268457992 " fill="none" id="curve_1" stroke="#000000" stroke-linecap="round" stroke-linejoin="round" stroke-width="4.172813189500987"/>
  <path d="M 31.320994686305824, 97.50611268457992 Q 34.87946083737229, 97.78342272609285, 41.12581684844255, 98.07523263927915 " fill="none" id="curve_1" stroke="#000000" stroke-linecap="round" stroke-linejoin="round" stroke-width="5.215733360448686"/>
  <path d="M 41.12581684844255, 98.07523263927915 Q 50.078784661926846, 93.52278365069496, 56.902531795137165, 80.10831518227938 " fill="none" id="curve_1" stroke="#000000" stroke-linecap="round" stroke-linejoin="round" stroke-width="5.582382364055176"/>
  <path d="M 56.902531795137165, 80.10831518227938 Q 56.7414407518485, 61.72998200256211, 40.6749036858771, 60.76357009167256 " fill="none" id="curve_1" stroke="#000000" stroke-linecap="round" stroke-linejoin="round" stroke-width="6.060274167032556"/>
  <path d="M 40.6749036858771, 60.76357009167256 Q 38.96933484795322, 60.58114800261304, 37.338737996163985, 60.30859348894477 " fill="none" id="curve_1" stroke="#000000" stroke-linecap="round" stroke-linejoin="round" stroke-width="4.95331887474337"/>
  <path d="M 64.63404611095329, 112.52740832321973 Q 66.1455169166441, 111.79997798892245, 67.25371234157511, 109.97994744526221 " fill="none" id="curve_3" stroke="#000000" stroke-linecap="round" stroke-linejoin="round" stroke-width="5.876243921799145"/>
  <path d="M 57.70207472812045, 74.15821418799777 Q 57.72381946332207, 69.3389540386892, 57.97248064842938, 67.83558705006472 " fill="none" id="curve_4" stroke="#000000" stroke-linecap="round" stroke-linejoin="round" stroke-width="3.3777907022720695"/>
  <path d="M 19.917312701502986, 102.88556470020353 Q 20.00186762510696, 104.08246857453074, 20.147175951004016, 105.36202816874383 " fill="none" id="curve_5" stroke="#000000" stroke-linecap="round" stroke-linejoin="round" stroke-width="3.784359978401031"/>
  <path d="M 46.42105143732363, 92.20486616376527 Q 52.323604769940694, 89.52193050197198, 56.42695749334673, 80.46364022607236 " fill="none" id="curve_6" stroke="#000000" stroke-linecap="round" stroke-linejoin="round" stroke-width="2.6031258938905117"/>
  <path d="M 44.541804722471085, 95.66157281695925 Q 52.03602527879527, 90.73720172730623, 57.63815682915198, 75.11877362393781 " fill="none" id="curve_13" stroke="#000000" stroke-linecap="round" stroke-linejoin="round" stroke-width="2.7691158475370115"/>
  <path d="M 33.34452369792946, 99.04108176986684 Q 34.150096268989216, 100.4060140863819, 35.654672981813434, 101.7363988494729 " fill="none" id="curve_29" stroke="#000000" stroke-linecap="round" stroke-linejoin="round" stroke-width="4.912168203795226"/>
  <path d="M 55.806699124337804, 77.42430654077822 Q 56.44435108372505, 76.50092192742919, 57.20028912733433, 75.04608390496864 " fill="none" id="curve_31" stroke="#000000" stroke-linecap="round" stroke-linejoin="round" stroke-width="4.377604069869425"/>
  <path d="M 57.84239048516003, 76.52374780751687 Q 57.29493751030415, 76.77932985071064, 56.265840741015616, 77.21356789891146 " fill="none" id="curve_37" stroke="#000000" stroke-linecap="round" stroke-linejoin="round" stroke-width="4.516336067218292"/>
  <path d="M 56.409787528272545, 80.91705022912288 Q 56.44688032181659, 75.85699005850115, 57.756178944448315, 75.46399519373946 " fill="none" id="curve_52" stroke="#000000" stroke-linecap="round" stroke-linejoin="round" stroke-width="4.389495561206787"/>
  <path d="M 57.56694570015228, 76.32474944936702 Q 56.464998358050295, 77.24665396978055, 54.41382077700647, 78.74433972074614 " fill="none" id="curve_62" stroke="#000000" stroke-linecap="round" stroke-linejoin="round" stroke-width="4.638552833968826"/>
  <path d="M 67.38599388115634, 110.34667241662731 Q 65.99603104501074, 109.34473568090212, 62.69231573647323, 108.19894573924142 " fill="none" id="curve_63" stroke="#000000" stroke-linecap="round" stroke-linejoin="round" stroke-width="4.186748431658571"/>
  <path d="M 48.07292648455938, 91.07881025733926 Q 49.649824251295534, 89.61460755664305, 53.855782752365826, 87.63977435132564 " fill="none" id="curve_64" stroke="#000000" stroke-linecap="round" stroke-linejoin="round" stroke-width="3.2412230669071467"/>
  <path d="M 45.36544475987063, 63.96039582202085 Q 52.213416581429534, 66.2600514687195, 59.10041594763369, 69.71025627529843 " fill="none" id="curve_80" stroke="#000000" stroke-linecap="round" stroke-linejoin="round" stroke-width="1.8061978332277397"/>
  <path d="M 55.83239364384466, 85.46269374023319 Q 49.24078280929689, 87.81235301457754, 44.02112815637822, 95.18759633658863 " fill="none" id="curve_122" stroke="#000000" stroke-linecap="round" stroke-linejoin="round" stroke-width="3.006916603244928"/>
  <path d="M 65.28173777577652, 112.25777153076262 Q 66.8567800090263, 112.01039054543172, 67.95662696896522, 111.407888159301 " fill="none" id="curve_137" stroke="#000000" stroke-linecap="round" stroke-linejoin="round" stroke-width="3.448357334054432"/>
  <path d="M 57.64747005423663, 75.46610082330474 Q 58.724949130975084, 75.49305988580964, 59.56404324885639, 75.56171352038044 " fill="none" id="curve_138" stroke="#000000" stroke-linecap="round" stroke-linejoin="round" stroke-width="3.9366683950892436"/>
  <path d="M 46.14497585066505, 60.21551793956442 Q 48.38434737354296, 61.89067724808475, 52.81594768935249, 63.91633641391125 " fill="none" id="curve_139" stroke="#000000" stroke-linecap="round" stroke-linejoin="round" stroke-width="2.4076669170180205"/>
</svg>
