<?xml version="1.0" ?>
<svg height="140" width="140" xmlns="http://www.w3.org/2000/svg">
  <path d="M 63.571062088012695, 67.80874252319336 Q 63.9751347839032, 66.44380051669194, 64.56386299368339, 63.94324523161623 " fill="none" id="curve_1" stroke="#000000" stroke-linecap="round" stroke-linejoin="round" stroke-width="6.701034206009563"/>
  <path d="M 64.56386299368339, 63.94324523161623 Q 63.66303152594912, 75.9630145235889, 51.807515956394816, 83.45294687666146 " fill="none" id="curve_1" stroke="#000000" stroke-linecap="round" stroke-linejoin="round" stroke-width="4.518340258448624"/>
  <path d="M 51.807515956394816, 83.45294687666146 Q 46.51736155191706, 88.09645503606792, 29.13221822298417, 99.77473588402793 " fill="none" id="curve_1" stroke="#000000" stroke-linecap="round" stroke-linejoin="round" stroke-width="5.102979613098838"/>
  <path d="M 29.13221822298417, 99.77473588402793 Q 25.97163850128225, 102.13975123711128, 24.553136985524613, 107.66034327001196 " fill="none" id="curve_1" stroke="#000000" stroke-linecap="round" stroke-linejoin="round" stroke-width="4.644283049135454"/>
  <path d="M 24.553136985524613, 107.66034327001196 Q 25.211292560514767, 110.70986805888468, 51.84481232792686, 110.86667208894646 " fill="none" id="curve_1" stroke="#000000" stroke-linecap="round" stroke-linejoin="round" stroke-width="4.407520017298503"/>
  <path d="M 51.84481232792686, 110.86667208894646 Q 52.904466948129354, 110.48333517365323, 54.408930511307794, 110.12358418571975 " fill="none" id="curve_1" stroke="#000000" stroke-linecap="round" stroke-linejoin="round" stroke-width="2.861661761326489"/>
  <path d="M 59.60192635673225, 59.33772200109911 Q 57.61063629688331, 56.809427114597696, 44.97158364720335, 55.250976128812965 " fill="none" id="curve_4" stroke="#000000" stroke-linecap="round" stroke-linejoin="round" stroke-width="4.581706789589098"/>
  <path d="M 44.97158364720335, 55.250976128812965 Q 33.24867498829582, 55.667661455737324, 21.673452112815173, 57.553784355409924 " fill="none" id="curve_4" stroke="#000000" stroke-linecap="round" stroke-linejoin="round" stroke-width="4.193107329705295"/>
  <path d="M 47.60067756217481, 57.276914424748945 Q 63.18884444130745, 57.45622720521156, 64.10088076735319, 61.86607953433844 " fill="none" id="curve_5" stroke="#000000" stroke-linecap="round" stroke-linejoin="round" stroke-width="4.593084453020033"/>
  <path d="M 64.10088076735319, 61.86607953433844 Q 62.290422214940826, 57.3407368486921, 51.47341730019908, 54.78558407820253 " fill="none" id="curve_5" stroke="#000000" stroke-linecap="round" stroke-linejoin="round" stroke-width="2.7754440069372297"/>
  <path d="M 51.47341730019908, 54.78558407820253 Q 48.85265394167057, 54.28399645570671, 34.16681405001154, 54.10563711773682 " fill="none" id="curve_5" stroke="#000000" stroke-linecap="round" stroke-linejoin="round" stroke-width="2.3257079748787257"/>
  <path d="M 36.521045997693825, 112.77159373140177 Q 37.545763583568615, 111.9721305834206, 39.21131917755514, 111.14335742413087 " fill="none" id="curve_11" stroke="#000000" stroke-linecap="round" stroke-linejoin="round" stroke-width="3.136643475676098"/>
  <path d="M 53.2452339665992, 82.82562928510872 Q 48.79370638293187, 86.61908217222762, 41.23573597047074, 91.1535752053143 " fill="none" id="curve_17" stroke="#000000" stroke-linecap="round" stroke-linejoin="round" stroke-width="3.1613661548778045"/>
  <path d="M 53.26066159878204, 82.07068896135459 Q 49.78148491025528, 86.42955836790398, 41.636367495809296, 90.8225406205538 " fill="none" id="curve_20" stroke="#000000" stroke-linecap="round" stroke-linejoin="round" stroke-width="3.0600769839094264"/>
  <path d="M 54.36126921220857, 80.41799263485689 Q 50.867347097551956, 85.52421255849917, 43.762671207112014, 91.00345202520312 " fill="none" id="curve_25" stroke="#000000" stroke-linecap="round" stroke-linejoin="round" stroke-width="3.256686715497077"/>
  <path d="M 27.505270664319312, 102.63183034990436 Q 31.000452394638614, 99.49062936604803, 36.473561896377404, 95.44044994478867 " fill="none" id="curve_26" stroke="#000000" stroke-linecap="round" stroke-linejoin="round" stroke-width="2.4452062364059532"/>
  <path d="M 28.98616736360617, 109.85261058301637 Q 28.090117110657683, 106.74271791219425, 23.65675230947967, 105.2300257891345 " fill="none" id="curve_48" stroke="#000000" stroke-linecap="round" stroke-linejoin="round" stroke-width="2.7635674100563805"/>
  <path d="M 46.85821564553845, 87.43444623810603 Q 47.98806968109522, 85.0129390599355, 52.88411437087342, 83.75202745512735 " fill="none" id="curve_115" stroke="#000000" stroke-linecap="round" stroke-linejoin="round" stroke-width="2.5218515929532965"/>
</svg>
