<?xml version="1.0" ?>
<svg height="140" width="140" xmlns="http://www.w3.org/2000/svg">
  <path d="M 49.16548156738281, 75.11623954772949 Q 43.51998972621256, 79.20467574886615, 32.86564505588217, 97.44297170412437 " fill="none" id="curve_1" stroke="#000000" stroke-linecap="round" stroke-linejoin="round" stroke-width="5.245395226677169"/>
  <path d="M 32.86564505588217, 97.44297170412437 Q 31.207100636715623, 98.48512802209552, 31.001401692226757, 111.06971540219529 " fill="none" id="curve_1" stroke="#000000" stroke-linecap="round" stroke-linejoin="round" stroke-width="4.978345317949046"/>
  <path d="M 31.001401692226757, 111.06971540219529 Q 34.477680838956125, 112.09123945992062, 39.11547199471436, 113.24755495343712 " fill="none" id="curve_1" stroke="#000000" stroke-linecap="round" stroke-linejoin="round" stroke-width="5.382731050031782"/>
  <path d="M 39.11547199471436, 113.24755495343712 Q 55.142712403478825, 110.66844230976582, 69.17951211794457, 101.53628312667215 " fill="none" id="curve_1" stroke="#000000" stroke-linecap="round" stroke-linejoin="round" stroke-width="4.2325941431911325"/>
  <path d="M 51.163679636038694, 73.1426176656265 Q 57.369168988025905, 65.99672558471022, 64.69606898228103, 52.89160620532512 " fill="none" id="curve_2" stroke="#000000" stroke-linecap="round" stroke-linejoin="round" stroke-width="4.744109944623537"/>
  <path d="M 64.69606898228103, 52.89160620532512 Q 62.929789695097156, 43.48887992817338, 49.489561938254205, 39.887310853830094 " fill="none" id="curve_2" stroke="#000000" stroke-linecap="round" stroke-linejoin="round" stroke-width="5.103515134497437"/>
  <path d="M 49.489561938254205, 39.887310853830094 Q 35.72000533276171, 41.37122315792427, 25.980648775667287, 46.42791810190516 " fill="none" id="curve_2" stroke="#000000" stroke-linecap="round" stroke-linejoin="round" stroke-width="4.701543652680201"/>
  <path d="M 25.980648775667287, 46.42791810190516 Q 26.464621056331772, 50.220070770259866, 28.154353005038477, 51.49369811619463 " fill="none" id="curve_2" stroke="#000000" stroke-linecap="round" stroke-linejoin="round" stroke-width="5.875464993509014"/>
  <path d="M 28.154353005038477, 51.49369811619463 Q 26.79835288928333, 48.38432513556667, 23.766041847610566, 46.679384464663585 " fill="none" id="curve_2" stroke="#000000" stroke-linecap="round" stroke-linejoin="round" stroke-width="6.621081616790953"/>
  <path d="M 56.2431708026258, 69.80666470214206 Q 46.922206736969216, 74.64945191846269, 40.26726897660633, 86.5240803185668 " fill="none" id="curve_3" stroke="#000000" stroke-linecap="round" stroke-linejoin="round" stroke-width="3.537299803410928"/>
  <path d="M 40.26726897660633, 86.5240803185668 Q 47.84546991272668, 79.2712481814634, 57.14062120437538, 63.07218890022281 " fill="none" id="curve_3" stroke="#000000" stroke-linecap="round" stroke-linejoin="round" stroke-width="2.3423652013539726"/>
  <path d="M 71.20155697094734, 100.16721678064623 Q 70.38230447672623, 100.76148646148852, 69.01743962352342, 101.57635544207665 " fill="none" id="curve_4" stroke="#000000" stroke-linecap="round" stroke-linejoin="round" stroke-width="3.1317496199554737"/>
  <path d="M 45.65555410818314, 111.05201635550515 Q 45.18650767217783, 110.60247037124385, 43.95838836616854, 110.23862743257934 " fill="none" id="curve_5" stroke="#000000" stroke-linecap="round" stroke-linejoin="round" stroke-width="4.081517603500497"/>
  <path d="M 4.369763384103592, 138.72295609264182 Q 2.9975111810371287, 138.16223514933847, 1.6782529914603073, 137.1733687427781 " fill="none" id="curve_6" stroke="#000000" stroke-linecap="round" stroke-linejoin="round" stroke-width="4.050130957695347"/>
  <path d="M 49.590593951675004, 73.40064022805099 Q 50.949799353680426, 69.6216711843228, 54.67994282059629, 66.79945863735558 " fill="none" id="curve_9" stroke="#000000" stroke-linecap="round" stroke-linejoin="round" stroke-width="2.7237183215791814"/>
  <path d="M 64.69380193340459, 47.96894248404199 Q 62.54069533208507, 55.80844263249458, 58.40464006014851, 62.74504364466355 " fill="none" id="curve_10" stroke="#000000" stroke-linecap="round" stroke-linejoin="round" stroke-width="2.844095338311957"/>
  <path d="M 46.789299023489484, 39.35742451593364 Q 43.25135050695647, 39.56412870338596, 40.26662866278626, 40.14728302963607 " fill="none" id="curve_11" stroke="#000000" stroke-linecap="round" stroke-linejoin="round" stroke-width="3.0149115363641035"/>
  <path d="M 41.57749951661212, 80.9339967846288 Q 36.40669929121048, 85.34129956839467, 33.52314723781069, 101.06937562172419 " fill="none" id="curve_21" stroke="#000000" stroke-linecap="round" stroke-linejoin="round" stroke-width="2.5092037200831347"/>
  <path d="M 1.021884806001946, 91.5447653087963 Q 1.1319759358207662, 97.54292057540275, 1.5270370604704029, 106.82160840743408 " fill="none" id="curve_23" stroke="#000000" stroke-linecap="round" stroke-linejoin="round" stroke-width="1.2698124939596798"/>
  <path d="M 1.5270370604704029, 106.82160840743408 Q 1.1715569470150684, 109.52124905265309, 1.024614090484981, 136.05088639156773 " fill="none" id="curve_23" stroke="#000000" stroke-linecap="round" stroke-linejoin="round" stroke-width="1.3697791718009928"/>
  <path d="M 35.40499350297197, 113.40239899623468 Q 45.46289534703391, 111.0465988069449, 58.24489053810885, 107.76067784603632 " fill="none" id="curve_25" stroke="#000000" stroke-linecap="round" stroke-linejoin="round" stroke-width="2.930511962138382"/>
  <path d="M 58.79567508517803, 62.57480038892695 Q 60.410880615439964, 56.25490603338331, 64.33588285649283, 49.43056128254772 " fill="none" id="curve_33" stroke="#000000" stroke-linecap="round" stroke-linejoin="round" stroke-width="2.4899728921702704"/>
  <path d="M 64.33588285649283, 49.43056128254772 Q 60.05146522796378, 45.66458647865321, 51.653302109057904, 39.58453472250058 " fill="none" id="curve_33" stroke="#000000" stroke-linecap="round" stroke-linejoin="round" stroke-width="2.171278392452901"/>
  <path d="M 62.18003244942524, 48.02715366995551 Q 61.07401654365587, 47.305733487699904, 59.82164052544639, 45.50432230596663 " fill="none" id="curve_34" stroke="#000000" stroke-linecap="round" stroke-linejoin="round" stroke-width="3.970986494874186"/>
  <path d="M 36.007635907252904, 95.18090327562724 Q 35.492558987499606, 98.13816279785183, 33.130185794692714, 99.63282438999056 " fill="none" id="curve_35" stroke="#000000" stroke-linecap="round" stroke-linejoin="round" stroke-width="3.5347810250284137"/>
  <path d="M 45.91450950485907, 77.49029085060593 Q 48.17020114462601, 77.01925421209616, 50.14989994822205, 75.59121083992846 " fill="none" id="curve_39" stroke="#000000" stroke-linecap="round" stroke-linejoin="round" stroke-width="2.661921559272749"/>
  <path d="M 45.958715705198415, 39.00153587466301 Q 54.467931067470374, 41.3013974391368, 60.44152029082362, 48.08727564719138 " fill="none" id="curve_40" stroke="#000000" stroke-linecap="round" stroke-linejoin="round" stroke-width="2.0773088832652"/>
  <path d="M 62.89902783491768, 104.72910588681741 Q 62.96822325706546, 103.9414105314215, 63.07349681230732, 102.95276294617351 " fill="none" id="curve_49" stroke="#000000" stroke-linecap="round" stroke-linejoin="round" stroke-width="3.965640286524053"/>
  <path d="M 1.0293680106328975, 69.11847542060207 Q 1.0119827573090887, 83.95001664597864, 0.924217503609459, 90.65651549361144 " fill="none" id="curve_53" stroke="#000000" stroke-linecap="round" stroke-linejoin="round" stroke-width="1.4369755224748593"/>
  <path d="M 0.9343958444153786, 51.99289752347076 Q 0.979666394264731, 51.0446440247214, 1.0314491380065278, 48.39378516775376 " fill="none" id="curve_55" stroke="#000000" stroke-linecap="round" stroke-linejoin="round" stroke-width="1.374574059823731"/>
  <path d="M 26.461111232260105, 45.07396141742313 Q 25.791582984892553, 45.01661523305807, 24.967004585256227, 44.93161477988513 " fill="none" id="curve_57" stroke="#000000" stroke-linecap="round" stroke-linejoin="round" stroke-width="3.9329556014120595"/>
  <path d="M 45.471248373498334, 39.50814642958314 Q 48.284318623740404, 39.94932002676115, 55.0847403279442, 40.91113380465576 " fill="none" id="curve_60" stroke="#000000" stroke-linecap="round" stroke-linejoin="round" stroke-width="1.9526663149423613"/>
  <path d="M 46.91248347993078, 38.84562104846038 Q 48.15880180518078, 39.107508219726334, 50.82321556466609, 39.574923432554776 " fill="none" id="curve_68" stroke="#000000" stroke-linecap="round" stroke-linejoin="round" stroke-width="2.4255586895955306"/>
  <path d="M 62.619001534774696, 48.355954467017824 Q 63.184450638192395, 46.91115291876959, 64.08790248223876, 45.042550157825715 " fill="none" id="curve_97" stroke="#000000" stroke-linecap="round" stroke-linejoin="round" stroke-width="3.212016293107196"/>
  <path d="M 54.837545174914084, 108.6162834411508 Q 45.800323501893345, 110.71849270355061, 36.163727526863404, 115.2546322969292 " fill="none" id="curve_99" stroke="#000000" stroke-linecap="round" stroke-linejoin="round" stroke-width="2.640342964048723"/>
  <path d="M 53.05419479632121, 43.72960988329419 Q 53.22084636475355, 43.16231995688259, 53.437176454349256, 42.208766052708185 " fill="none" id="curve_153" stroke="#000000" stroke-linecap="round" stroke-linejoin="round" stroke-width="2.806070140528806"/>
  <path d="M 0.6504960739207393, 42.31597075980383 Q 0.6347622891994134, 38.82062477977772, 0.6076948702283167, 34.16811906443134 " fill="none" id="curve_164" stroke="#000000" stroke-linecap="round" stroke-linejoin="round" stroke-width="1.2045264413075891"/>
  <path d="M 43.76423166941886, 79.47319782084415 Q 43.99118028845337, 79.27848629213804, 44.32459409251844, 78.80262078427668 " fill="none" id="curve_171" stroke="#000000" stroke-linecap="round" stroke-linejoin="round" stroke-width="2.4728509304656114"/>
  <path d="M 0.975978983473982, 59.891177562495216 Q 0.9798998235313264, 63.60650504428322, 0.9920968726346755, 66.94256147018065 " fill="none" id="curve_193" stroke="#000000" stroke-linecap="round" stroke-linejoin="round" stroke-width="1.8581852594175015"/>
  <path d="M 0.49506375380006773, 24.19177956389274 Q 0.558225654347335, 22.50091579800956, 0.6413142789012518, 18.46954438395117 " fill="none" id="curve_195" stroke="#000000" stroke-linecap="round" stroke-linejoin="round" stroke-width="1.5658930317435382"/>
  <path d="M 48.70954862396388, 109.7187460921847 Q 44.69029155997754, 110.3796634218472, 40.72098511155848, 112.12307713251178 " fill="none" id="curve_215" stroke="#000000" stroke-linecap="round" stroke-linejoin="round" stroke-width="2.7146606371985156"/>
</svg>
