<?xml version="1.0" ?>
<svg height="140" width="140" xmlns="http://www.w3.org/2000/svg">
  <path d="M 35.65297794342041, 74.46148562431335 Q 30.95190169226334, 77.46084525885104, 26.149709290863875, 90.03113863577641 " fill="none" id="curve_1" stroke="#000000" stroke-linecap="round" stroke-linejoin="round" stroke-width="7.119920210621136"/>
  <path d="M 26.149709290863875, 90.03113863577641 Q 26.110130351714776, 94.07462959648325, 25.897618524001665, 96.32771449560643 " fill="none" id="curve_1" stroke="#000000" stroke-linecap="round" stroke-linejoin="round" stroke-width="4.4737569915325075"/>
  <path d="M 25.897618524001665, 96.32771449560643 Q 33.261138904187234, 92.21398447035308, 57.41726924417803, 85.83467925665147 " fill="none" id="curve_1" stroke="#000000" stroke-linecap="round" stroke-linejoin="round" stroke-width="5.260206420771751"/>
  <path d="M 57.41726924417803, 85.83467925665147 Q 61.86586200304454, 85.57734099226938, 64.68242979575778, 84.97654348688872 " fill="none" id="curve_1" stroke="#000000" stroke-linecap="round" stroke-linejoin="round" stroke-width="5.342131983885538"/>
  <path d="M 46.852433005797806, 56.434160167321295 Q 41.83372781005651, 65.73693719937602, 32.625370836035806, 76.95125635625708 " fill="none" id="curve_2" stroke="#000000" stroke-linecap="round" stroke-linejoin="round" stroke-width="5.164457428263512"/>
  <path d="M 48.652665132274194, 56.32786815468275 Q 51.69602299736365, 50.494133714535685, 54.254928403044275, 38.49928657926816 " fill="none" id="curve_3" stroke="#000000" stroke-linecap="round" stroke-linejoin="round" stroke-width="5.794676877689815"/>
  <path d="M 54.254928403044275, 38.49928657926816 Q 36.34710982798631, 39.45535783045528, 27.598992929976355, 46.29264905394187 " fill="none" id="curve_3" stroke="#000000" stroke-linecap="round" stroke-linejoin="round" stroke-width="4.984846294934032"/>
  <path d="M 27.598992929976355, 46.29264905394187 Q 33.13916763104418, 40.09808152694079, 52.88593574574594, 36.74380208323426 " fill="none" id="curve_3" stroke="#000000" stroke-linecap="round" stroke-linejoin="round" stroke-width="3.834078688488183"/>
  <path d="M 48.693174353061124, 53.36154981175774 Q 40.97032239334276, 62.91185633800554, 29.540464825074395, 81.93455500859474 " fill="none" id="curve_4" stroke="#000000" stroke-linecap="round" stroke-linejoin="round" stroke-width="3.576424377581119"/>
  <path d="M 29.540464825074395, 81.93455500859474 Q 29.386312310676978, 88.22917462546593, 28.86119090526245, 91.55777543914164 " fill="none" id="curve_4" stroke="#000000" stroke-linecap="round" stroke-linejoin="round" stroke-width="3.895684014873584"/>
  <path d="M 42.79308877722544, 62.00355607876665 Q 48.16589838430748, 54.15116564010113, 56.14277125184612, 42.830943736048724 " fill="none" id="curve_5" stroke="#000000" stroke-linecap="round" stroke-linejoin="round" stroke-width="3.3955128687685754"/>
  <path d="M 56.14277125184612, 42.830943736048724 Q 49.29527604036545, 45.947778431744396, 46.197835724744124, 57.45880978730157 " fill="none" id="curve_5" stroke="#000000" stroke-linecap="round" stroke-linejoin="round" stroke-width="3.2002424276959616"/>
  <path d="M 39.374837727582126, 70.02327063548853 Q 33.18796737335422, 76.19490796592189, 28.609637355826855, 88.1034297459332 " fill="none" id="curve_9" stroke="#000000" stroke-linecap="round" stroke-linejoin="round" stroke-width="3.1110800699975254"/>
  <path d="M 31.363884925842285, 91.26820373535156 Q 32.442262226233154, 90.10389220721223, 39.8664133602673, 89.61549001959906 " fill="none" id="curve_23" stroke="#000000" stroke-linecap="round" stroke-linejoin="round" stroke-width="2.52952554741427"/>
  <path d="M 62.68157264416135, 83.10191414335964 Q 61.62887759974871, 84.40198843167147, 57.79368191782221, 85.23452102519728 " fill="none" id="curve_25" stroke="#000000" stroke-linecap="round" stroke-linejoin="round" stroke-width="3.4320043186952063"/>
  <path d="M 33.759717442147235, 77.1283823735615 Q 32.275466864358506, 81.96241894864488, 27.825372234602305, 84.28317480965308 " fill="none" id="curve_26" stroke="#000000" stroke-linecap="round" stroke-linejoin="round" stroke-width="5.191641476938143"/>
  <path d="M 43.940391540527344, 60.19971466064453 Q 46.69214253380692, 60.117660430518306, 47.40513980403128, 59.33499095626929 " fill="none" id="curve_40" stroke="#000000" stroke-linecap="round" stroke-linejoin="round" stroke-width="3.3878461686978527"/>
  <path d="M 26.034371087870607, 47.09068639322995 Q 25.829806531392343, 46.561757004606804, 25.49513442927331, 45.94222662201713 " fill="none" id="curve_41" stroke="#000000" stroke-linecap="round" stroke-linejoin="round" stroke-width="3.2453261677586833"/>
  <path d="M 53.18862817133004, 46.70706080224238 Q 53.159610769518416, 48.71003886860853, 53.011055831171184, 49.50899151878305 " fill="none" id="curve_56" stroke="#000000" stroke-linecap="round" stroke-linejoin="round" stroke-width="3.187543188428684"/>
  <path d="M 28.998534932211435, 81.90449229469368 Q 29.66348562066269, 80.83842515854208, 30.936903298554615, 79.39859715552 " fill="none" id="curve_63" stroke="#000000" stroke-linecap="round" stroke-linejoin="round" stroke-width="4.290362669857158"/>
  <path d="M 40.09843378239532, 38.66854936233347 Q 42.36200000778326, 37.41154970979398, 50.02687297795165, 36.66809094318944 " fill="none" id="curve_79" stroke="#000000" stroke-linecap="round" stroke-linejoin="round" stroke-width="2.2772535069534996"/>
  <path d="M 45.42182313154067, 57.3716027949331 Q 40.93182730114437, 66.43978695440462, 30.69938776616221, 81.42350247201213 " fill="none" id="curve_96" stroke="#000000" stroke-linecap="round" stroke-linejoin="round" stroke-width="2.5137680291616067"/>
  <path d="M 29.45373848740769, 82.74784661793706 Q 29.741209078849394, 81.7567893069413, 30.231998486257993, 80.3296125486328 " fill="none" id="curve_137" stroke="#000000" stroke-linecap="round" stroke-linejoin="round" stroke-width="4.370524071386136"/>
</svg>
