<?xml version="1.0" ?>
<svg height="140" width="140" xmlns="http://www.w3.org/2000/svg">
  <path d="M 85.93715763092041, 96.65158367156982 Q 79.7784888799843, 98.54150139234714, 66.24459210544921, 104.83806174222354 " fill="none" id="curve_1" stroke="#000000" stroke-linecap="round" stroke-linejoin="round" stroke-width="4.358108836847963"/>
  <path d="M 66.24459210544921, 104.83806174222354 Q 60.244043976258496, 107.71228837114377, 44.610423971094065, 112.4135048510337 " fill="none" id="curve_1" stroke="#000000" stroke-linecap="round" stroke-linejoin="round" stroke-width="5.33328871036711"/>
  <path d="M 44.610423971094065, 112.4135048510337 Q 39.146381926000146, 112.56049083569869, 29.582096720318745, 112.68504232298929 " fill="none" id="curve_1" stroke="#000000" stroke-linecap="round" stroke-linejoin="round" stroke-width="6.10309522879441"/>
  <path d="M 29.582096720318745, 112.68504232298929 Q 26.127024469765942, 111.57314338593577, 24.14828728419794, 108.69380407187515 " fill="none" id="curve_1" stroke="#000000" stroke-linecap="round" stroke-linejoin="round" stroke-width="5.271711674479078"/>
  <path d="M 24.14828728419794, 108.69380407187515 Q 28.159359897273596, 93.91757052028962, 47.39980162402199, 74.84102846472894 " fill="none" id="curve_1" stroke="#000000" stroke-linecap="round" stroke-linejoin="round" stroke-width="5.228928027054326"/>
  <path d="M 47.39980162402199, 74.84102846472894 Q 51.140400233722616, 70.64627469082676, 53.30133737447853, 58.902262522360395 " fill="none" id="curve_1" stroke="#000000" stroke-linecap="round" stroke-linejoin="round" stroke-width="4.482771879598512"/>
  <path d="M 53.30133737447853, 58.902262522360395 Q 38.20574299674765, 61.11933910555446, 23.12348447887386, 80.28066465270103 " fill="none" id="curve_1" stroke="#000000" stroke-linecap="round" stroke-linejoin="round" stroke-width="5.356053524990101"/>
  <path d="M 23.12348447887386, 80.28066465270103 Q 22.85216334592337, 84.13529071654652, 22.30503849096009, 86.74530997954207 " fill="none" id="curve_1" stroke="#000000" stroke-linecap="round" stroke-linejoin="round" stroke-width="4.648462040652688"/>
  <path d="M 47.42790904280058, 69.9110549907617 Q 51.42684552606303, 67.8394589471205, 53.28828972939497, 60.239969248268565 " fill="none" id="curve_2" stroke="#000000" stroke-linecap="round" stroke-linejoin="round" stroke-width="3.2096128264601993"/>
  <path d="M 87.28438157158955, 95.15102602897299 Q 88.09094748936276, 95.33642371548116, 88.95844547542457, 95.72824233125772 " fill="none" id="curve_3" stroke="#000000" stroke-linecap="round" stroke-linejoin="round" stroke-width="3.8755636055528258"/>
  <path d="M 76.97429087351516, 101.74211962181394 Q 80.15419374557814, 98.32091538761661, 86.42986892325106, 95.64016087513389 " fill="none" id="curve_4" stroke="#000000" stroke-linecap="round" stroke-linejoin="round" stroke-width="3.01165382488977"/>
  <path d="M 50.955893128610356, 57.1171929699694 Q 42.44110664461641, 59.14284078768043, 33.35580215110464, 67.17115403645994 " fill="none" id="curve_6" stroke="#000000" stroke-linecap="round" stroke-linejoin="round" stroke-width="2.660090201853108"/>
  <path d="M 33.35580215110464, 67.17115403645994 Q 29.291056374551616, 69.76055757373334, 26.27803612887722, 74.42881426930056 " fill="none" id="curve_6" stroke="#000000" stroke-linecap="round" stroke-linejoin="round" stroke-width="2.947489500957841"/>
  <path d="M 30.31445388069415, 93.33840854827109 Q 24.74802225016456, 96.07436613956294, 22.534310296772652, 107.62060066472195 " fill="none" id="curve_7" stroke="#000000" stroke-linecap="round" stroke-linejoin="round" stroke-width="2.8599009503582193"/>
  <path d="M 37.9860479148727, 115.16247485531063 Q 37.602222811466305, 114.91260734049993, 37.180313020915, 114.55842917245148 " fill="none" id="curve_8" stroke="#000000" stroke-linecap="round" stroke-linejoin="round" stroke-width="3.5568479611541552"/>
  <path d="M 31.415299672641858, 92.01362702980633 Q 34.527404738539126, 90.9761610723367, 37.35275530504465, 88.89062398362793 " fill="none" id="curve_9" stroke="#000000" stroke-linecap="round" stroke-linejoin="round" stroke-width="3.4059709735922037"/>
  <path d="M 50.951760438498894, 65.36639289802993 Q 52.324869569538976, 64.45528921243901, 53.833224396451435, 62.11763142745995 " fill="none" id="curve_19" stroke="#000000" stroke-linecap="round" stroke-linejoin="round" stroke-width="3.5043810897637173"/>
  <path d="M 53.60100213547901, 62.63549546287283 Q 49.195151014197464, 70.05279750209797, 41.17882928871085, 84.02220085034062 " fill="none" id="curve_23" stroke="#000000" stroke-linecap="round" stroke-linejoin="round" stroke-width="2.49450097164971"/>
  <path d="M 51.443932767861114, 63.70987880536559 Q 49.903160676871785, 68.80263454835229, 46.31646267028107, 73.71794139993727 " fill="none" id="curve_24" stroke="#000000" stroke-linecap="round" stroke-linejoin="round" stroke-width="2.945026039250081"/>
  <path d="M 46.31646267028107, 73.71794139993727 Q 48.54390584563641, 69.00150005959044, 52.41974471908332, 63.36393965291528 " fill="none" id="curve_24" stroke="#000000" stroke-linecap="round" stroke-linejoin="round" stroke-width="3.00021973638757"/>
  <path d="M 67.68171914789637, 105.06936664972598 Q 70.72767339309954, 103.46581516925477, 75.9108104498552, 101.32172238586466 " fill="none" id="curve_26" stroke="#000000" stroke-linecap="round" stroke-linejoin="round" stroke-width="2.605898357402147"/>
  <path d="M 29.558299043419748, 94.24212261354413 Q 29.67930663098892, 90.48164628344578, 34.55511660068103, 90.21875829005178 " fill="none" id="curve_28" stroke="#000000" stroke-linecap="round" stroke-linejoin="round" stroke-width="3.465787202571727"/>
  <path d="M 67.23582740179302, 103.47708052327988 Q 60.821760465663786, 105.78403773921026, 53.27860568359749, 110.48702964875913 " fill="none" id="curve_82" stroke="#000000" stroke-linecap="round" stroke-linejoin="round" stroke-width="2.6712059967670267"/>
</svg>
