<?xml version="1.0" ?>
<svg height="140" width="140" xmlns="http://www.w3.org/2000/svg">
  <path d="M 77.64949093866906, 104.74293282720048 Q 66.67297301881302, 104.95692682410935, 54.337339573350675, 105.69283753740754 " fill="none" id="curve_2" stroke="#000000" stroke-linecap="round" stroke-linejoin="round" stroke-width="4.952811047077034"/>
  <path d="M 54.337339573350675, 105.69283753740754 Q 48.524490132345754, 107.16813790128882, 30.089585411563196, 108.16130854723944 " fill="none" id="curve_2" stroke="#000000" stroke-linecap="round" stroke-linejoin="round" stroke-width="5.048191800592506"/>
  <path d="M 30.089585411563196, 108.16130854723944 Q 30.664257336579375, 91.36082072206544, 41.55328355879228, 85.95135124946196 " fill="none" id="curve_2" stroke="#000000" stroke-linecap="round" stroke-linejoin="round" stroke-width="4.448447419769896"/>
  <path d="M 41.55328355879228, 85.95135124946196 Q 48.63620119578282, 81.85031920342213, 53.20236271840362, 71.4017976640235 " fill="none" id="curve_2" stroke="#000000" stroke-linecap="round" stroke-linejoin="round" stroke-width="4.60692284348096"/>
  <path d="M 53.20236271840362, 71.4017976640235 Q 52.203820033087254, 63.18208211835871, 30.771084732610372, 61.64330163466421 " fill="none" id="curve_2" stroke="#000000" stroke-linecap="round" stroke-linejoin="round" stroke-width="5.0499279330583695"/>
  <path d="M 30.771084732610372, 61.64330163466421 Q 22.190763382106464, 62.187473733386994, 20.287254362661308, 65.81023698175485 " fill="none" id="curve_2" stroke="#000000" stroke-linecap="round" stroke-linejoin="round" stroke-width="4.7354852230030176"/>
  <path d="M 30.065745296865124, 95.61893912206179 Q 28.058744418767375, 96.53229765250693, 27.80141405056047, 106.15260675681648 " fill="none" id="curve_3" stroke="#000000" stroke-linecap="round" stroke-linejoin="round" stroke-width="4.406250122053614"/>
  <path d="M 41.517470771705675, 83.53917839359161 Q 45.5395454905277, 79.91403594836383, 50.69160318730012, 75.69068478359844 " fill="none" id="curve_4" stroke="#000000" stroke-linecap="round" stroke-linejoin="round" stroke-width="3.248102718875763"/>
  <path d="M 61.370268365377484, 103.12967093176813 Q 69.71341865688257, 103.56262787926879, 72.29773221266619, 105.61690839329901 " fill="none" id="curve_5" stroke="#000000" stroke-linecap="round" stroke-linejoin="round" stroke-width="2.7758426987989946"/>
  <path d="M 51.36677348426007, 104.66493437118717 Q 47.75307742544718, 105.24571815023704, 44.17803219044601, 106.48394104772102 " fill="none" id="curve_6" stroke="#000000" stroke-linecap="round" stroke-linejoin="round" stroke-width="2.551713135306308"/>
  <path d="M 35.38573372867356, 91.80133175939817 Q 37.90739838932905, 91.10673530360641, 39.33919442651959, 89.08121600920508 " fill="none" id="curve_7" stroke="#000000" stroke-linecap="round" stroke-linejoin="round" stroke-width="3.472458446380539"/>
  <path d="M 35.766992811874395, 60.60005240513014 Q 41.104429484169195, 62.1147037978352, 46.34217942873417, 66.70380376233511 " fill="none" id="curve_8" stroke="#000000" stroke-linecap="round" stroke-linejoin="round" stroke-width="2.385852733495325"/>
  <path d="M 49.474209992646074, 70.78100176935902 Q 50.100892247034686, 67.68437434472946, 51.571099972311295, 64.9547041391798 " fill="none" id="curve_25" stroke="#000000" stroke-linecap="round" stroke-linejoin="round" stroke-width="3.110366473310851"/>
  <path d="M 33.30880882077157, 91.70262189189798 Q 32.13776247869065, 93.11670065023664, 30.99271317141598, 95.95797013705295 " fill="none" id="curve_27" stroke="#000000" stroke-linecap="round" stroke-linejoin="round" stroke-width="3.2569933819306405"/>
  <path d="M 73.81978657923356, 106.49280108149708 Q 72.2958557765635, 105.73279872792621, 64.02822521161099, 105.35905614537116 " fill="none" id="curve_42" stroke="#000000" stroke-linecap="round" stroke-linejoin="round" stroke-width="2.572504395188863"/>
  <path d="M 41.69497559461456, 106.97258963936223 Q 39.79048498413462, 107.43064805299609, 35.97127530093434, 108.19110482019651 " fill="none" id="curve_43" stroke="#000000" stroke-linecap="round" stroke-linejoin="round" stroke-width="3.5939412911596196"/>
  <path d="M 42.9067919283981, 105.8422226058376 Q 41.71176615772231, 106.6783362758596, 40.506432149870385, 108.01826336935542 " fill="none" id="curve_59" stroke="#000000" stroke-linecap="round" stroke-linejoin="round" stroke-width="4.361377819969741"/>
  <path d="M 60.43217485088466, 104.71179127029406 Q 60.03548701119743, 104.37700641094243, 59.26261215578091, 103.96498317170104 " fill="none" id="curve_61" stroke="#000000" stroke-linecap="round" stroke-linejoin="round" stroke-width="3.5867553874010745"/>
  <path d="M 40.389264380774534, 109.02617939067011 Q 37.07825648501492, 108.73922563628507, 33.88117533889526, 107.85252521593246 " fill="none" id="curve_128" stroke="#000000" stroke-linecap="round" stroke-linejoin="round" stroke-width="2.6873585014005634"/>
</svg>
