<?xml version="1.0" ?>
<svg height="140" width="140" xmlns="http://www.w3.org/2000/svg">
  <path d="M 42.60799789428711, 102.04905128479004 Q 43.87848082187167, 101.88268335188701, 47.58289696470092, 101.77817255778962 " fill="none" id="curve_1" stroke="#000000" stroke-linecap="round" stroke-linejoin="round" stroke-width="3.680264446509419"/>
  <path d="M 47.58289696470092, 101.77817255778962 Q 41.88558047364833, 102.05649469343972, 31.45945083556315, 102.43295641358608 " fill="none" id="curve_1" stroke="#000000" stroke-linecap="round" stroke-linejoin="round" stroke-width="4.96843761012303"/>
  <path d="M 31.45945083556315, 102.43295641358608 Q 19.59908837887407, 102.41492153540023, 16.97714867791354, 102.25496710023289 " fill="none" id="curve_1" stroke="#000000" stroke-linecap="round" stroke-linejoin="round" stroke-width="5.49423898392127"/>
  <path d="M 16.97714867791354, 102.25496710023289 Q 11.646702509381614, 101.50316583827563, 10.016854187810491, 97.17438590647221 " fill="none" id="curve_1" stroke="#000000" stroke-linecap="round" stroke-linejoin="round" stroke-width="5.312823986462078"/>
  <path d="M 10.016854187810491, 97.17438590647221 Q 12.825650599285174, 85.2709771990095, 35.66503324003378, 72.74732540712915 " fill="none" id="curve_1" stroke="#000000" stroke-linecap="round" stroke-linejoin="round" stroke-width="4.3161586964039005"/>
  <path d="M 35.66503324003378, 72.74732540712915 Q 37.48428578030816, 68.33191195932903, 40.289449735597664, 64.73256255679084 " fill="none" id="curve_1" stroke="#000000" stroke-linecap="round" stroke-linejoin="round" stroke-width="5.438955524061721"/>
  <path d="M 40.289449735597664, 64.73256255679084 Q 38.800563771234884, 55.23036382155239, 16.108133705723176, 52.034168366650775 " fill="none" id="curve_1" stroke="#000000" stroke-linecap="round" stroke-linejoin="round" stroke-width="5.256308451053077"/>
  <path d="M 16.108133705723176, 52.034168366650775 Q 7.987788448853527, 52.18485222789139, 2.2968802928390133, 52.496199861910725 " fill="none" id="curve_1" stroke="#000000" stroke-linecap="round" stroke-linejoin="round" stroke-width="4.887477348943876"/>
  <path d="M 11.887668574244113, 89.35942626466765 Q 10.561355747808218, 91.21428613959861, 9.672593833569577, 95.35976769922296 " fill="none" id="curve_3" stroke="#000000" stroke-linecap="round" stroke-linejoin="round" stroke-width="3.256581294287671"/>
  <path d="M 9.672593833569577, 95.35976769922296 Q 13.022808174079852, 98.62103897602388, 18.417720011136538, 101.86331581075142 " fill="none" id="curve_3" stroke="#000000" stroke-linecap="round" stroke-linejoin="round" stroke-width="3.188177158581364"/>
  <path d="M 35.17162907299787, 70.37686048317246 Q 33.79850198015757, 71.8291081704655, 31.616837770710514, 75.47827950597656 " fill="none" id="curve_4" stroke="#000000" stroke-linecap="round" stroke-linejoin="round" stroke-width="3.2122554421347513"/>
  <path d="M 17.369895785209813, 52.14654621113182 Q 17.08002621858288, 50.74838376179119, 10.338846152011794, 50.5446745612542 " fill="none" id="curve_10" stroke="#000000" stroke-linecap="round" stroke-linejoin="round" stroke-width="2.8390026962823858"/>
  <path d="M 35.57032869559341, 67.67117545928892 Q 35.966397615968475, 68.42849229230335, 36.748999774268086, 69.43061492870686 " fill="none" id="curve_12" stroke="#000000" stroke-linecap="round" stroke-linejoin="round" stroke-width="3.3631950493525453"/>
  <path d="M 33.64803653768027, 74.55430236214134 Q 27.22421476606468, 80.3465196199271, 13.632347819676362, 87.32791128604103 " fill="none" id="curve_14" stroke="#000000" stroke-linecap="round" stroke-linejoin="round" stroke-width="2.5204604468498943"/>
  <path d="M 21.582100110962354, 104.06181166886518 Q 21.827026636637765, 103.84513069284878, 22.071384413453583, 103.50218986192138 " fill="none" id="curve_15" stroke="#000000" stroke-linecap="round" stroke-linejoin="round" stroke-width="4.631957282341053"/>
  <path d="M 38.02526656527006, 67.61944531863492 Q 37.4808918658635, 62.82950451070342, 35.81130685299735, 59.604612082637466 " fill="none" id="curve_16" stroke="#000000" stroke-linecap="round" stroke-linejoin="round" stroke-width="2.6555959208184423"/>
  <path d="M 2.420880546037772, 52.946232946503414 Q 2.3890657103822983, 53.807705887498244, 2.328850635562338, 54.78402190705809 " fill="none" id="curve_17" stroke="#000000" stroke-linecap="round" stroke-linejoin="round" stroke-width="2.3395156173554748"/>
</svg>
