<?xml version="1.0" ?>
<svg height="140" width="140" xmlns="http://www.w3.org/2000/svg">
  <path d="M 53.5206184387207, 42.018680572509766 Q 53.45050262822143, 37.71690337933401, 50.527550492332665, 37.415879335175305 " fill="none" id="curve_1" stroke="#000000" stroke-linecap="round" stroke-linejoin="round" stroke-width="6.506463942295648"/>
  <path d="M 50.527550492332665, 37.415879335175305 Q 38.835787882234634, 38.72621682757958, 28.879032845940227, 50.52118640201393 " fill="none" id="curve_1" stroke="#000000" stroke-linecap="round" stroke-linejoin="round" stroke-width="5.99043886671209"/>
  <path d="M 28.879032845940227, 50.52118640201393 Q 29.27552050808769, 56.92599432890425, 33.701488539398525, 57.9281481652691 " fill="none" id="curve_1" stroke="#000000" stroke-linecap="round" stroke-linejoin="round" stroke-width="3.721383416009833"/>
  <path d="M 56.324200339960754, 42.10274763503511 Q 55.18388301189554, 57.33308038119878, 45.60921446420944, 74.68397990699349 " fill="none" id="curve_2" stroke="#000000" stroke-linecap="round" stroke-linejoin="round" stroke-width="5.392495609411509"/>
  <path d="M 45.60921446420944, 74.68397990699349 Q 41.32493600666466, 85.99844588909585, 21.972531970960798, 105.87012381460269 " fill="none" id="curve_2" stroke="#000000" stroke-linecap="round" stroke-linejoin="round" stroke-width="5.7793323870353195"/>
  <path d="M 21.972531970960798, 105.87012381460269 Q 46.76134140080698, 105.62948157705283, 55.02541003112765, 100.91896604518917 " fill="none" id="curve_2" stroke="#000000" stroke-linecap="round" stroke-linejoin="round" stroke-width="4.970108948275048"/>
  <path d="M 55.02541003112765, 100.91896604518917 Q 57.57341774982886, 100.99673632168519, 58.48995607685509, 101.43704601305596 " fill="none" id="curve_2" stroke="#000000" stroke-linecap="round" stroke-linejoin="round" stroke-width="6.94241890706611"/>
  <path d="M 21.22589558993713, 107.28699792972975 Q 20.292447878021456, 107.02540071385144, 19.31390012780477, 106.63281676224281 " fill="none" id="curve_3" stroke="#000000" stroke-linecap="round" stroke-linejoin="round" stroke-width="5.520996172993103"/>
  <path d="M 53.14787711182882, 53.85483560017158 Q 53.98473768960882, 48.77376978872738, 54.83423670490759, 38.49283623525645 " fill="none" id="curve_4" stroke="#000000" stroke-linecap="round" stroke-linejoin="round" stroke-width="3.6655975249733075"/>
  <path d="M 28.179676844285055, 108.59399169556175 Q 30.80452181358797, 107.40635242583971, 36.220517018642134, 105.8240659843808 " fill="none" id="curve_6" stroke="#000000" stroke-linecap="round" stroke-linejoin="round" stroke-width="2.6264422104170926"/>
  <path d="M 40.70739376649633, 80.7877592450353 Q 42.240458712051925, 77.5380670831279, 45.48796517051492, 74.19119111281988 " fill="none" id="curve_7" stroke="#000000" stroke-linecap="round" stroke-linejoin="round" stroke-width="2.9984441767536696"/>
  <path d="M 50.411332121493245, 61.62260071080457 Q 49.43977500233624, 62.22782987286315, 48.836977524381126, 64.15683105618706 " fill="none" id="curve_8" stroke="#000000" stroke-linecap="round" stroke-linejoin="round" stroke-width="4.508815937763853"/>
  <path d="M 40.62503181179417, 37.53765165338834 Q 39.79907405984803, 40.28097414505777, 37.084986815177515, 42.32354946353619 " fill="none" id="curve_9" stroke="#000000" stroke-linecap="round" stroke-linejoin="round" stroke-width="3.8477055795058925"/>
  <path d="M 55.9923576547864, 102.87607981744802 Q 34.512248168056544, 103.4929150006401, 24.105070784446337, 108.42435297395586 " fill="none" id="curve_12" stroke="#000000" stroke-linecap="round" stroke-linejoin="round" stroke-width="3.0905639970499887"/>
  <path d="M 32.80806078342934, 91.50102868123858 Q 28.757711914064277, 98.7652104364019, 20.449737030091505, 106.15000963356124 " fill="none" id="curve_13" stroke="#000000" stroke-linecap="round" stroke-linejoin="round" stroke-width="3.207659810253017"/>
  <path d="M 20.449737030091505, 106.15000963356124 Q 19.470042489886634, 106.5517112137317, 18.312071459182008, 107.13803138242905 " fill="none" id="curve_13" stroke="#000000" stroke-linecap="round" stroke-linejoin="round" stroke-width="4.003041033989077"/>
  <path d="M 49.033139047770476, 103.40384816568672 Q 40.798471774364685, 103.60009088431364, 33.19500324759577, 104.31782400379059 " fill="none" id="curve_14" stroke="#000000" stroke-linecap="round" stroke-linejoin="round" stroke-width="2.6924791016408363"/>
  <path d="M 41.24747143582434, 80.34799685636541 Q 38.80726729821677, 86.65180579546447, 32.83403073428439, 92.9521108404954 " fill="none" id="curve_15" stroke="#000000" stroke-linecap="round" stroke-linejoin="round" stroke-width="3.1309646449684285"/>
  <path d="M 54.896902459633466, 45.634728246718716 Q 53.48630961010736, 43.38580645236042, 51.636537652476015, 40.23130522888111 " fill="none" id="curve_17" stroke="#000000" stroke-linecap="round" stroke-linejoin="round" stroke-width="3.784392012288164"/>
  <path d="M 40.25763973823719, 102.90895316822161 Q 43.97493897234918, 102.22921971426406, 51.48595822474971, 101.64277725097446 " fill="none" id="curve_33" stroke="#000000" stroke-linecap="round" stroke-linejoin="round" stroke-width="3.1657920735859806"/>
  <path d="M 40.58721462483299, 80.14120962727378 Q 38.16504185997216, 88.3724389621262, 28.973335131968582, 97.07191115978016 " fill="none" id="curve_36" stroke="#000000" stroke-linecap="round" stroke-linejoin="round" stroke-width="2.6248691909563897"/>
  <path d="M 36.95310264106717, 39.33366118232884 Q 39.23331994651585, 38.243549137019244, 48.52806386253854, 37.42458819177106 " fill="none" id="curve_104" stroke="#000000" stroke-linecap="round" stroke-linejoin="round" stroke-width="2.0213555608286224"/>
</svg>
