<?xml version="1.0" ?>
<svg height="140" width="140" xmlns="http://www.w3.org/2000/svg">
  <path d="M 26.622519493103027, 113.7712459564209 Q 26.617967092324946, 113.44725799705913, 26.56895011262911, 113.27948787618504 " fill="none" id="curve_1" stroke="#000000" stroke-linecap="round" stroke-linejoin="round" stroke-width="8.673980202385987"/>
  <path d="M 26.56895011262911, 113.27948787618504 Q 28.872217535762086, 111.45070692353997, 33.00622142718475, 108.81483377296577 " fill="none" id="curve_1" stroke="#000000" stroke-linecap="round" stroke-linejoin="round" stroke-width="6.60331963254023"/>
  <path d="M 33.00622142718475, 108.81483377296577 Q 38.348104916358324, 102.58329280981326, 48.416732924025844, 87.52699696553775 " fill="none" id="curve_1" stroke="#000000" stroke-linecap="round" stroke-linejoin="round" stroke-width="5.7146024810733955"/>
  <path d="M 48.416732924025844, 87.52699696553775 Q 52.232946891587304, 83.26414640765947, 54.867922074294086, 72.9171636577405 " fill="none" id="curve_1" stroke="#000000" stroke-linecap="round" stroke-linejoin="round" stroke-width="5.660661388626118"/>
  <path d="M 54.867922074294086, 72.9171636577405 Q 54.56549279370685, 60.37388110617382, 46.736239558775694, 58.98001468587573 " fill="none" id="curve_1" stroke="#000000" stroke-linecap="round" stroke-linejoin="round" stroke-width="4.911757566773832"/>
  <path d="M 46.736239558775694, 58.98001468587573 Q 29.693862991246917, 59.759107705833074, 24.269180638203196, 64.73043892497043 " fill="none" id="curve_1" stroke="#000000" stroke-linecap="round" stroke-linejoin="round" stroke-width="4.672145679457321"/>
  <path d="M 24.269180638203196, 64.73043892497043 Q 24.97698490889247, 68.31119549577527, 33.38499636613424, 68.71202975998148 " fill="none" id="curve_1" stroke="#000000" stroke-linecap="round" stroke-linejoin="round" stroke-width="4.158135711536933"/>
  <path d="M 63.56406730093978, 102.20852403459831 Q 53.748414299929195, 104.40109072908201, 37.298353052752205, 111.91857595952045 " fill="none" id="curve_2" stroke="#000000" stroke-linecap="round" stroke-linejoin="round" stroke-width="5.552463494581616"/>
  <path d="M 37.298353052752205, 111.91857595952045 Q 35.061317084347266, 114.3654438411401, 28.037316927523378, 115.3518400119806 " fill="none" id="curve_2" stroke="#000000" stroke-linecap="round" stroke-linejoin="round" stroke-width="3.4771967228253398"/>
  <path d="M 42.21271461543351, 100.05805284535718 Q 43.58168153149243, 99.76851013810962, 44.29061245508256, 98.37083669483235 " fill="none" id="curve_3" stroke="#000000" stroke-linecap="round" stroke-linejoin="round" stroke-width="2.9931784823709076"/>
  <path d="M 24.952895038980483, 64.92582472684356 Q 23.978393753654974, 64.75098520688222, 23.156512658065783, 64.3782011188485 " fill="none" id="curve_4" stroke="#000000" stroke-linecap="round" stroke-linejoin="round" stroke-width="4.982641871010902"/>
  <path d="M 24.852708587930152, 113.62625005743841 Q 25.02460819059503, 114.07998488022609, 25.310778071339136, 114.63652903368859 " fill="none" id="curve_6" stroke="#000000" stroke-linecap="round" stroke-linejoin="round" stroke-width="3.5474663030263986"/>
  <path d="M 48.104216370940904, 59.48881442361534 Q 47.2785401977322, 58.19999993776969, 41.657848142305916, 57.607124341210685 " fill="none" id="curve_8" stroke="#000000" stroke-linecap="round" stroke-linejoin="round" stroke-width="2.8143865262102783"/>
  <path d="M 48.848640381592375, 62.253439167876486 Q 49.98248062718526, 60.64109794400857, 51.647420260615164, 58.419118291411706 " fill="none" id="curve_18" stroke="#000000" stroke-linecap="round" stroke-linejoin="round" stroke-width="3.6032850590492242"/>
  <path d="M 25.55717141085262, 114.47228993076824 Q 25.581365561496785, 114.49315339732544, 25.618313673847737, 114.52039635876456 " fill="none" id="curve_34" stroke="#000000" stroke-linecap="round" stroke-linejoin="round" stroke-width="3.9437044271031367"/>
  <path d="M 31.902123853091435, 107.69803115766362 Q 30.925985613964638, 108.16878348259436, 29.76252711665124, 109.15461133031862 " fill="none" id="curve_37" stroke="#000000" stroke-linecap="round" stroke-linejoin="round" stroke-width="3.5933697287020974"/>
  <path d="M 48.596791737305814, 106.24837867889873 Q 51.34479445847423, 105.70198265636543, 56.61850933502567, 104.42925507031194 " fill="none" id="curve_79" stroke="#000000" stroke-linecap="round" stroke-linejoin="round" stroke-width="2.50224866212334"/>
  <path d="M 44.80987187872597, 106.27149096767437 Q 42.98606828377745, 107.35570798708785, 41.193016082752735, 109.76204306842257 " fill="none" id="curve_107" stroke="#000000" stroke-linecap="round" stroke-linejoin="round" stroke-width="2.858032730845598"/>
  <path d="M 23.615329948618374, 114.98555348041836 Q 24.06584679973545, 115.00889799753023, 24.787869943790874, 115.04099639027945 " fill="none" id="curve_108" stroke="#000000" stroke-linecap="round" stroke-linejoin="round" stroke-width="3.1196015167713056"/>
</svg>
