<?xml version="1.0" ?>
<svg height="140" width="140" xmlns="http://www.w3.org/2000/svg">
  <path d="M 26.315248012542725, 90.60500466823578 Q 19.36425281452278, 93.02940293579424, 7.293997090333619, 105.77381092423445 " fill="none" id="curve_1" stroke="#000000" stroke-linecap="round" stroke-linejoin="round" stroke-width="4.737296775991856"/>
  <path d="M 7.293997090333619, 105.77381092423445 Q 2.331258436667838, 107.2747375960448, 1.5815214033056986, 121.18204516016344 " fill="none" id="curve_1" stroke="#000000" stroke-linecap="round" stroke-linejoin="round" stroke-width="3.2071995109365776"/>
  <path d="M 1.5815214033056986, 121.18204516016344 Q 25.66645821318358, 121.07572686263607, 29.493345064945586, 118.79140121287004 " fill="none" id="curve_1" stroke="#000000" stroke-linecap="round" stroke-linejoin="round" stroke-width="5.74054259905775"/>
  <path d="M 29.493345064945586, 118.79140121287004 Q 33.193657633896834, 117.81131652808446, 52.63951680458531, 117.50992033845816 " fill="none" id="curve_1" stroke="#000000" stroke-linecap="round" stroke-linejoin="round" stroke-width="6.5306948779478615"/>
  <path d="M 29.918904294244765, 86.19521083263257 Q 39.1101682290886, 79.80342581597569, 58.038216640529896, 63.916805477569625 " fill="none" id="curve_2" stroke="#000000" stroke-linecap="round" stroke-linejoin="round" stroke-width="4.704394525124775"/>
  <path d="M 58.038216640529896, 63.916805477569625 Q 66.11386783641706, 57.87887553735751, 72.73653410726969, 44.08697559581185 " fill="none" id="curve_2" stroke="#000000" stroke-linecap="round" stroke-linejoin="round" stroke-width="5.199827648250062"/>
  <path d="M 72.73653410726969, 44.08697559581185 Q 72.3768580343804, 38.17741892322156, 64.6986981252061, 37.56807917116225 " fill="none" id="curve_2" stroke="#000000" stroke-linecap="round" stroke-linejoin="round" stroke-width="4.942218363156903"/>
  <path d="M 64.6986981252061, 37.56807917116225 Q 47.63376143770848, 38.167721993233826, 35.51766999110522, 41.57128248151117 " fill="none" id="curve_2" stroke="#000000" stroke-linecap="round" stroke-linejoin="round" stroke-width="5.67592313778379"/>
  <path d="M 35.51766999110522, 41.57128248151117 Q 25.794230343289993, 43.66179569883264, 20.57674803229518, 48.39374859707592 " fill="none" id="curve_2" stroke="#000000" stroke-linecap="round" stroke-linejoin="round" stroke-width="4.331061644828244"/>
  <path d="M 30.422506809357518, 86.45001171835167 Q 24.652558142601027, 89.33983319628086, 19.595326530554154, 94.45327407935622 " fill="none" id="curve_3" stroke="#000000" stroke-linecap="round" stroke-linejoin="round" stroke-width="3.5913211397740836"/>
  <path d="M 5.401925757558816, 120.11259588126094 Q 10.581987778094772, 120.3097357167571, 20.302063364719388, 120.51306305685821 " fill="none" id="curve_4" stroke="#000000" stroke-linecap="round" stroke-linejoin="round" stroke-width="4.096872008113133"/>
  <path d="M 90.42714045793477, 137.947997451267 Q 90.02350822712458, 137.04461883202083, 89.61688659067464, 134.84103965220484 " fill="none" id="curve_6" stroke="#000000" stroke-linecap="round" stroke-linejoin="round" stroke-width="2.067839534248124"/>
  <path d="M 89.61688659067464, 134.84103965220484 Q 89.73319021010668, 130.57359962313902, 89.88963503255572, 124.3257206157025 " fill="none" id="curve_6" stroke="#000000" stroke-linecap="round" stroke-linejoin="round" stroke-width="2.1257158991011615"/>
  <path d="M 89.88963503255572, 124.3257206157025 Q 89.87139160527488, 118.46563543493701, 89.83883124094025, 110.97132504727202 " fill="none" id="curve_6" stroke="#000000" stroke-linecap="round" stroke-linejoin="round" stroke-width="2.052088487741373"/>
  <path d="M 89.83883124094025, 110.97132504727202 Q 89.81319614808984, 104.90449442936861, 89.76839207453651, 96.51989926953738 " fill="none" id="curve_6" stroke="#000000" stroke-linecap="round" stroke-linejoin="round" stroke-width="1.9370253829091575"/>
  <path d="M 89.76839207453651, 96.51989926953738 Q 89.76697606086096, 90.57416759901608, 89.76436978107472, 82.80479812447548 " fill="none" id="curve_6" stroke="#000000" stroke-linecap="round" stroke-linejoin="round" stroke-width="1.8056444021102136"/>
  <path d="M 89.76436978107472, 82.80479812447548 Q 89.72019558475708, 76.86877929735972, 89.64937087800404, 65.85268021040275 " fill="none" id="curve_6" stroke="#000000" stroke-linecap="round" stroke-linejoin="round" stroke-width="1.728200485185573"/>
  <path d="M 89.64937087800404, 65.85268021040275 Q 89.6499869416866, 59.14022739541838, 89.65144709993281, 50.718068043744374 " fill="none" id="curve_6" stroke="#000000" stroke-linecap="round" stroke-linejoin="round" stroke-width="1.5931187274386718"/>
  <path d="M 89.65144709993281, 50.718068043744374 Q 89.65706531372095, 47.70979777677985, 89.66200832889103, 36.28612160787605 " fill="none" id="curve_6" stroke="#000000" stroke-linecap="round" stroke-linejoin="round" stroke-width="1.5172052445490014"/>
  <path d="M 89.66200832889103, 36.28612160787605 Q 89.58415535208226, 35.14363147582742, 89.55702904750933, 23.618845643987 " fill="none" id="curve_6" stroke="#000000" stroke-linecap="round" stroke-linejoin="round" stroke-width="1.448355230011763"/>
  <path d="M 89.55702904750933, 23.618845643987 Q 89.53725475760356, 20.5553610175521, 89.51261210580697, 11.259637536992372 " fill="none" id="curve_6" stroke="#000000" stroke-linecap="round" stroke-linejoin="round" stroke-width="1.4316021677959396"/>
  <path d="M 89.51261210580697, 11.259637536992372 Q 89.49293915995574, 4.711995542018471, 89.40558137883772, 1.0850426578419814 " fill="none" id="curve_6" stroke="#000000" stroke-linecap="round" stroke-linejoin="round" stroke-width="1.4713798660829844"/>
  <path d="M 89.40558137883772, 1.0850426578419814 Q 89.13627893552696, 1.0453371557364188, 88.72534787854252, 1.0052209556355596 " fill="none" id="curve_6" stroke="#000000" stroke-linecap="round" stroke-linejoin="round" stroke-width="1.6082532530356481"/>
  <path d="M 65.71674517611184, 54.49867966289696 Q 69.28604637762962, 52.28670434573145, 72.89969660623512, 48.5576623100428 " fill="none" id="curve_13" stroke="#000000" stroke-linecap="round" stroke-linejoin="round" stroke-width="3.352615275467859"/>
  <path d="M 58.338992170004374, 35.98843555002321 Q 50.289258478176556, 37.40271143894614, 38.56944237724504, 40.47940360757623 " fill="none" id="curve_14" stroke="#000000" stroke-linecap="round" stroke-linejoin="round" stroke-width="2.622820496380477"/>
  <path d="M 67.61827580968594, 38.545163659705345 Q 70.2853849057498, 40.01953611357249, 72.10591566777448, 44.48299638286778 " fill="none" id="curve_15" stroke="#000000" stroke-linecap="round" stroke-linejoin="round" stroke-width="3.0257231957923545"/>
  <path d="M 49.1596488364022, 71.93522063482871 Q 40.19822597649399, 75.59258068839947, 30.56442432699174, 85.63731301975147 " fill="none" id="curve_16" stroke="#000000" stroke-linecap="round" stroke-linejoin="round" stroke-width="2.601706995483003"/>
  <path d="M 51.84832623121319, 118.45640584603979 Q 51.773718045256466, 118.98864926998664, 51.50199046050925, 119.22721774044253 " fill="none" id="curve_17" stroke="#000000" stroke-linecap="round" stroke-linejoin="round" stroke-width="5.22294397814965"/>
  <path d="M 51.50199046050925, 119.22721774044253 Q 52.27452119455685, 119.13723483058905, 52.88311062245495, 118.90778362592809 " fill="none" id="curve_17" stroke="#000000" stroke-linecap="round" stroke-linejoin="round" stroke-width="4.689646219024519"/>
  <path d="M 7.530593786748902, 122.0038986944169 Q 10.256479622540416, 121.3044909067829, 16.701631881730215, 120.4150077243556 " fill="none" id="curve_18" stroke="#000000" stroke-linecap="round" stroke-linejoin="round" stroke-width="3.18081608513499"/>
  <path d="M 21.589564610978865, 94.59962172257242 Q 18.04846854329587, 96.99050221585014, 10.974644478870092, 99.06244436048183 " fill="none" id="curve_20" stroke="#000000" stroke-linecap="round" stroke-linejoin="round" stroke-width="2.398748842634913"/>
  <path d="M 20.995346590819324, 118.33860030485425 Q 20.872210658561443, 120.86191931289152, 19.321162630138357, 121.318692440798 " fill="none" id="curve_21" stroke="#000000" stroke-linecap="round" stroke-linejoin="round" stroke-width="2.943225295361255"/>
  <path d="M 19.321162630138357, 121.318692440798 Q 18.985481177570204, 121.90370574024743, 11.781049230643097, 121.95955272729637 " fill="none" id="curve_21" stroke="#000000" stroke-linecap="round" stroke-linejoin="round" stroke-width="2.8375373602220297"/>
  <path d="M 4.002426044276455, 108.59243747614515 Q 3.069333141714915, 109.5654154063791, 2.1464693856523915, 111.24882126451006 " fill="none" id="curve_22" stroke="#000000" stroke-linecap="round" stroke-linejoin="round" stroke-width="3.7413091581374727"/>
  <path d="M 49.849239910269596, 69.47513305523992 Q 45.4799901320719, 70.9686245967214, 42.633059889831564, 74.95731971917773 " fill="none" id="curve_24" stroke="#000000" stroke-linecap="round" stroke-linejoin="round" stroke-width="2.595950500293251"/>
  <path d="M 62.156838341770275, 57.4999911661627 Q 66.25851793623282, 52.34267018382276, 72.71676164515861, 45.71585782458753 " fill="none" id="curve_25" stroke="#000000" stroke-linecap="round" stroke-linejoin="round" stroke-width="2.8465386213062303"/>
  <path d="M 72.71676164515861, 45.71585782458753 Q 71.02926792094611, 38.7797490510214, 57.66342274500239, 36.00852002520642 " fill="none" id="curve_25" stroke="#000000" stroke-linecap="round" stroke-linejoin="round" stroke-width="2.9164054266361177"/>
  <path d="M 57.66342274500239, 36.00852002520642 Q 50.16156247561832, 37.23686827634759, 37.135086115534904, 39.36919007836651 " fill="none" id="curve_25" stroke="#000000" stroke-linecap="round" stroke-linejoin="round" stroke-width="3.146910732529034"/>
  <path d="M 17.411873294281893, 94.99298610797979 Q 25.408107684511446, 91.27483927071496, 33.198845894782835, 84.44531552886475 " fill="none" id="curve_35" stroke="#000000" stroke-linecap="round" stroke-linejoin="round" stroke-width="2.7863138850313613"/>
  <path d="M 47.30269279109001, 116.06008159223487 Q 40.79699278270584, 116.07220370286448, 36.806221639981175, 116.11209259142053 " fill="none" id="curve_37" stroke="#000000" stroke-linecap="round" stroke-linejoin="round" stroke-width="2.6224708710968483"/>
  <path d="M 5.267071462082722, 121.35649872800175 Q 4.915551661935028, 121.25051109189131, 4.35174206233158, 121.13201604999698 " fill="none" id="curve_38" stroke="#000000" stroke-linecap="round" stroke-linejoin="round" stroke-width="3.6376606109190144"/>
  <path d="M 6.825351439910264, 107.21440225034394 Q 5.185198479697512, 109.96228854700063, 1.6111281446977355, 112.64844130127288 " fill="none" id="curve_53" stroke="#000000" stroke-linecap="round" stroke-linejoin="round" stroke-width="3.097187113505135"/>
  <path d="M 60.0886591822873, 60.455094681759874 Q 61.16656537391085, 59.00709696163725, 63.58849347375603, 57.081758514142805 " fill="none" id="curve_68" stroke="#000000" stroke-linecap="round" stroke-linejoin="round" stroke-width="2.8454575394508033"/>
  <path d="M 88.49913369612756, 139.10190696745244 Q 88.86205586404441, 138.86533032383667, 89.29484361236378, 138.2914332142942 " fill="none" id="curve_86" stroke="#000000" stroke-linecap="round" stroke-linejoin="round" stroke-width="1.8824202750266692"/>
  <path d="M 54.1604267018357, 118.70350595521099 Q 54.08168005787436, 117.99261176013663, 53.940346156634995, 117.38785010944065 " fill="none" id="curve_88" stroke="#000000" stroke-linecap="round" stroke-linejoin="round" stroke-width="2.7899654634396494"/>
  <path d="M 33.014832141554706, 85.15483219674236 Q 29.2419217424043, 86.76374029698705, 23.284963112689237, 88.58003168508213 " fill="none" id="curve_90" stroke="#000000" stroke-linecap="round" stroke-linejoin="round" stroke-width="2.7599792772510616"/>
  <path d="M 71.37386555450371, 42.20310810585693 Q 72.29434181106993, 40.48585148930863, 73.60869644641097, 38.63702009887942 " fill="none" id="curve_96" stroke="#000000" stroke-linecap="round" stroke-linejoin="round" stroke-width="3.0922866738263095"/>
  <path d="M 60.826700422989475, 39.31436805338653 Q 60.78710159142486, 37.780555348449646, 60.41246624263102, 37.25890808298778 " fill="none" id="curve_113" stroke="#000000" stroke-linecap="round" stroke-linejoin="round" stroke-width="4.175702949587833"/>
  <path d="M 59.853250953883844, 60.622515945197335 Q 60.57725804684119, 59.283597809189466, 61.57267285962291, 56.705363720641756 " fill="none" id="curve_167" stroke="#000000" stroke-linecap="round" stroke-linejoin="round" stroke-width="2.522909436838793"/>
  <path d="M 25.48102649595597, 118.60152627198916 Q 19.695983771292187, 119.11892199789254, 15.249888676171317, 120.75913908215097 " fill="none" id="curve_183" stroke="#000000" stroke-linecap="round" stroke-linejoin="round" stroke-width="2.595667517088547"/>
</svg>
