<?xml version="1.0" ?>
<svg height="140" width="140" xmlns="http://www.w3.org/2000/svg">
  <path d="M 39.38326644897461, 57.836708068847656 Q 39.30286450654337, 57.22108188079038, 39.12536473270163, 55.50988803367363 " fill="none" id="curve_1" stroke="#000000" stroke-linecap="round" stroke-linejoin="round" stroke-width="6.865476690524088"/>
  <path d="M 39.12536473270163, 55.50988803367363 Q 36.25740807560689, 56.55897529150385, 34.33439392104941, 59.110582513570805 " fill="none" id="curve_1" stroke="#000000" stroke-linecap="round" stroke-linejoin="round" stroke-width="3.691496930387819"/>
  <path d="M 34.33439392104941, 59.110582513570805 Q 41.48690174945371, 56.990294969031126, 46.52311531215272, 53.04187481920968 " fill="none" id="curve_1" stroke="#000000" stroke-linecap="round" stroke-linejoin="round" stroke-width="5.399390020767682"/>
  <path d="M 46.52311531215272, 53.04187481920968 Q 66.26558816273747, 56.50306196068671, 76.76910400052476, 69.11574000019891 " fill="none" id="curve_1" stroke="#000000" stroke-linecap="round" stroke-linejoin="round" stroke-width="5.323156794377322"/>
  <path d="M 76.76910400052476, 69.11574000019891 Q 72.78597644099739, 83.2838007277581, 54.0017058057481, 94.80684072400925 " fill="none" id="curve_1" stroke="#000000" stroke-linecap="round" stroke-linejoin="round" stroke-width="4.878231901871057"/>
  <path d="M 54.0017058057481, 94.80684072400925 Q 44.49787288781617, 96.59391266662097, 40.528303167574435, 102.4330812977475 " fill="none" id="curve_1" stroke="#000000" stroke-linecap="round" stroke-linejoin="round" stroke-width="4.727040625187365"/>
  <path d="M 40.528303167574435, 102.4330812977475 Q 42.13698564028751, 105.22108301759144, 50.65959936661214, 105.80604638708876 " fill="none" id="curve_1" stroke="#000000" stroke-linecap="round" stroke-linejoin="round" stroke-width="5.8402345871402765"/>
  <path d="M 50.65959936661214, 105.80604638708876 Q 63.58152685747789, 104.57431941352596, 70.26918487199296, 101.80974865444657 " fill="none" id="curve_1" stroke="#000000" stroke-linecap="round" stroke-linejoin="round" stroke-width="6.311920349239868"/>
  <path d="M 70.26918487199296, 101.80974865444657 Q 80.40787043074131, 105.0929134022628, 88.78075359597096, 108.61404876008268 " fill="none" id="curve_1" stroke="#000000" stroke-linecap="round" stroke-linejoin="round" stroke-width="5.814436059955959"/>
  <path d="M 68.1460931818916, 80.95435013388212 Q 73.0393352992467, 77.71505027871727, 75.93399542466607, 69.81997857080891 " fill="none" id="curve_2" stroke="#000000" stroke-linecap="round" stroke-linejoin="round" stroke-width="3.791960068828846"/>
  <path d="M 75.93399542466607, 69.81997857080891 Q 75.47757170157281, 62.80788167265067, 70.96783187852648, 61.601627788664814 " fill="none" id="curve_2" stroke="#000000" stroke-linecap="round" stroke-linejoin="round" stroke-width="3.7930556439567913"/>
  <path d="M 44.64754680200525, 100.60494426940546 Q 43.174844518950685, 100.12270086618467, 39.609567644970916, 99.67541980913083 " fill="none" id="curve_3" stroke="#000000" stroke-linecap="round" stroke-linejoin="round" stroke-width="3.7161077135593246"/>
  <path d="M 0.6756268693006973, 89.84027834987253 Q 0.656304508999729, 94.13115720468451, 0.6291661241340427, 101.52473700524247 " fill="none" id="curve_5" stroke="#000000" stroke-linecap="round" stroke-linejoin="round" stroke-width="1.3686819197230435"/>
  <path d="M 72.01362702619967, 77.29757694878062 Q 73.60174348177719, 74.51389386928201, 76.81979469845206, 72.61428829151194 " fill="none" id="curve_14" stroke="#000000" stroke-linecap="round" stroke-linejoin="round" stroke-width="4.85811610142927"/>
  <path d="M 52.92742627192054, 53.79058247044256 Q 55.261608433110624, 54.78251552361661, 60.66983387525226, 56.33178980198312 " fill="none" id="curve_15" stroke="#000000" stroke-linecap="round" stroke-linejoin="round" stroke-width="3.448177835121821"/>
  <path d="M 1.342454354226831, 5.447824469404047 Q 1.59374428182069, 2.408869753522692, 2.5281728408374127, 0.6343829800743315 " fill="none" id="curve_17" stroke="#000000" stroke-linecap="round" stroke-linejoin="round" stroke-width="2.1343185313506483"/>
  <path d="M 1.4750883267582915, 19.519687487383568 Q 0.9928077689674579, 22.145409308393912, 0.7967588958499369, 34.02329205286779 " fill="none" id="curve_18" stroke="#000000" stroke-linecap="round" stroke-linejoin="round" stroke-width="1.5352190731282656"/>
  <path d="M 1.1295824165942596, 9.553967707206944 Q 1.1971339402949221, 8.17047501872582, 1.2826884254363382, 5.227600732487247 " fill="none" id="curve_19" stroke="#000000" stroke-linecap="round" stroke-linejoin="round" stroke-width="1.3788364816600271"/>
  <path d="M 49.109270306326316, 49.51534642909434 Q 51.88065078855638, 56.85760039638258, 64.97276475574095, 61.24098598908192 " fill="none" id="curve_22" stroke="#000000" stroke-linecap="round" stroke-linejoin="round" stroke-width="2.8062355839618487"/>
  <path d="M 64.97276475574095, 61.24098598908192 Q 72.07423897034803, 63.742719705143244, 74.4938172986628, 71.12468635808143 " fill="none" id="curve_22" stroke="#000000" stroke-linecap="round" stroke-linejoin="round" stroke-width="3.1674497765270297"/>
  <path d="M 71.12095763340515, 105.2795433194747 Q 74.82358861469527, 104.93165689212145, 88.17832835906917, 104.75056879931225 " fill="none" id="curve_24" stroke="#000000" stroke-linecap="round" stroke-linejoin="round" stroke-width="2.4925995313180644"/>
  <path d="M 59.02308588065744, 102.60079605916007 Q 57.67448212871991, 104.12802321722545, 43.748453550800456, 104.35113426697576 " fill="none" id="curve_25" stroke="#000000" stroke-linecap="round" stroke-linejoin="round" stroke-width="3.3876393244813694"/>
  <path d="M 67.29229604133432, 101.90490783395245 Q 67.69038962649547, 100.27432655217092, 71.24690006604997, 99.79985189878715 " fill="none" id="curve_27" stroke="#000000" stroke-linecap="round" stroke-linejoin="round" stroke-width="2.1928807848223237"/>
  <path d="M 71.24690006604997, 99.79985189878715 Q 78.15181192618356, 101.11494807610353, 83.04935572435964, 105.2369773695942 " fill="none" id="curve_27" stroke="#000000" stroke-linecap="round" stroke-linejoin="round" stroke-width="1.669576878681293"/>
  <path d="M 60.79638048444847, 57.29432059087145 Q 63.19895308390504, 57.21385227044708, 65.1622958434499, 57.00081500975132 " fill="none" id="curve_31" stroke="#000000" stroke-linecap="round" stroke-linejoin="round" stroke-width="2.786650945100874"/>
  <path d="M 61.13326947171237, 55.84374765527014 Q 59.02492989067157, 54.13480436455167, 42.8068315677514, 53.506910961542026 " fill="none" id="curve_33" stroke="#000000" stroke-linecap="round" stroke-linejoin="round" stroke-width="3.1311666642142404"/>
  <path d="M 56.957641718290745, 55.98164415458797 Q 55.190153816456586, 55.318620153630235, 51.65137096989161, 54.678732038867366 " fill="none" id="curve_48" stroke="#000000" stroke-linecap="round" stroke-linejoin="round" stroke-width="4.569234743866428"/>
  <path d="M 57.469441858070915, 93.5963938693237 Q 55.856727537523376, 93.8323307410367, 52.077651921160935, 94.08938310078992 " fill="none" id="curve_71" stroke="#000000" stroke-linecap="round" stroke-linejoin="round" stroke-width="2.996358831547318"/>
  <path d="M 47.9561613431552, 55.77921948584718 Q 47.85179826167884, 55.001670241627096, 47.26806719527968, 54.393562593342104 " fill="none" id="curve_72" stroke="#000000" stroke-linecap="round" stroke-linejoin="round" stroke-width="3.0021383798757286"/>
  <path d="M 54.58579240722844, 56.65759933441755 Q 54.27767278859816, 56.10467277565476, 53.819056679879566, 55.20533448037721 " fill="none" id="curve_91" stroke="#000000" stroke-linecap="round" stroke-linejoin="round" stroke-width="3.512028197051761"/>
  <path d="M 51.04840636419921, 52.88525358930252 Q 52.204455686631775, 53.05855557530277, 54.154237928650225, 53.34384345248779 " fill="none" id="curve_98" stroke="#000000" stroke-linecap="round" stroke-linejoin="round" stroke-width="3.200207536504791"/>
</svg>
