<?xml version="1.0" ?>
<svg height="140" width="140" xmlns="http://www.w3.org/2000/svg">
  <path d="M 30.391799926757812, 126.39308500289917 Q 29.204715662187354, 130.0350991253177, 24.584570411401046, 131.93457504685506 " fill="none" id="curve_1" stroke="#000000" stroke-linecap="round" stroke-linejoin="round" stroke-width="5.229179672648299"/>
  <path d="M 24.584570411401046, 131.93457504685506 Q 28.30740391820671, 131.96354210310255, 30.054410640585, 132.1364133250889 " fill="none" id="curve_1" stroke="#000000" stroke-linecap="round" stroke-linejoin="round" stroke-width="4.1940057254772745"/>
  <path d="M 30.054410640585, 132.1364133250889 Q 34.45777600746358, 122.67261506795323, 47.3152945181655, 101.40694691636097 " fill="none" id="curve_1" stroke="#000000" stroke-linecap="round" stroke-linejoin="round" stroke-width="4.432073825092811"/>
  <path d="M 47.3152945181655, 101.40694691636097 Q 51.58847325000087, 93.52219514028995, 57.96553292958086, 74.65375437054857 " fill="none" id="curve_1" stroke="#000000" stroke-linecap="round" stroke-linejoin="round" stroke-width="4.141723613763513"/>
  <path d="M 57.96553292958086, 74.65375437054857 Q 57.72636511025427, 53.04003111007902, 44.51104933455168, 51.07609514167107 " fill="none" id="curve_1" stroke="#000000" stroke-linecap="round" stroke-linejoin="round" stroke-width="4.497219443989859"/>
  <path d="M 44.51104933455168, 51.07609514167107 Q 40.70140772429024, 51.46658680965309, 37.95145953914237, 52.266371041079815 " fill="none" id="curve_1" stroke="#000000" stroke-linecap="round" stroke-linejoin="round" stroke-width="6.370425293776756"/>
  <path d="M 69.38600873947144, 129.05772018432617 Q 71.37116618092882, 128.66161845307238, 73.11694835538805, 127.91322432544271 " fill="none" id="curve_15" stroke="#000000" stroke-linecap="round" stroke-linejoin="round" stroke-width="3.3129495207648927"/>
  <path d="M 73.11694835538805, 127.91322432544271 Q 71.84438438453715, 128.58689902633648, 52.469071077025994, 128.72136843893242 " fill="none" id="curve_15" stroke="#000000" stroke-linecap="round" stroke-linejoin="round" stroke-width="3.9704180111593295"/>
  <path d="M 52.469071077025994, 128.72136843893242 Q 47.84577190479318, 128.47527159476823, 33.33601374971956, 128.35384818625357 " fill="none" id="curve_15" stroke="#000000" stroke-linecap="round" stroke-linejoin="round" stroke-width="6.151409892673132"/>
  <path d="M 33.33601374971956, 128.35384818625357 Q 38.86782561099206, 127.5209807390076, 54.573624732032776, 127.15280097330786 " fill="none" id="curve_15" stroke="#000000" stroke-linecap="round" stroke-linejoin="round" stroke-width="3.1504432465998558"/>
  <path d="M 34.488810616595856, 121.74847982571488 Q 30.389043551738624, 125.26599163193166, 26.93318809820259, 130.63846167420223 " fill="none" id="curve_16" stroke="#000000" stroke-linecap="round" stroke-linejoin="round" stroke-width="3.6265608752107434"/>
  <path d="M 52.886088000559354, 87.97431079422533 Q 56.51472250821106, 86.37297579283467, 57.678848356571876, 79.16913274907782 " fill="none" id="curve_18" stroke="#000000" stroke-linecap="round" stroke-linejoin="round" stroke-width="3.0705383536149986"/>
  <path d="M 44.92918472623181, 54.10884553541191 Q 50.622084208402626, 54.8572114634812, 54.65097054776731, 57.2016980948916 " fill="none" id="curve_19" stroke="#000000" stroke-linecap="round" stroke-linejoin="round" stroke-width="2.7151314731494782"/>
  <path d="M 54.65097054776731, 57.2016980948916 Q 56.47280185867947, 63.143421308722004, 57.55271602517769, 74.18637930245518 " fill="none" id="curve_19" stroke="#000000" stroke-linecap="round" stroke-linejoin="round" stroke-width="3.0655862420278437"/>
  <path d="M 58.72185734169392, 62.39763812734657 Q 58.100728106070704, 62.004794635107416, 57.116960334257975, 60.89138065233344 " fill="none" id="curve_34" stroke="#000000" stroke-linecap="round" stroke-linejoin="round" stroke-width="2.0664512236642647"/>
  <path d="M 46.63418102290599, 50.10595694083962 Q 45.060005508191125, 49.98600894953479, 41.360524376755485, 49.84963517177959 " fill="none" id="curve_35" stroke="#000000" stroke-linecap="round" stroke-linejoin="round" stroke-width="2.5499264901901086"/>
  <path d="M 52.55299651081695, 52.393164751650225 Q 51.74227063953277, 52.27606124435465, 47.21030874308014, 52.2074752536114 " fill="none" id="curve_36" stroke="#000000" stroke-linecap="round" stroke-linejoin="round" stroke-width="2.6064460003909433"/>
  <path d="M 59.937183731744284, 70.99266094727216 Q 58.958223145673486, 70.8524040476157, 57.58176572225988, 70.56431119527605 " fill="none" id="curve_37" stroke="#000000" stroke-linecap="round" stroke-linejoin="round" stroke-width="3.27744096468396"/>
  <path d="M 35.7890126714063, 117.5939313331818 Q 42.44671059441687, 115.74216313948746, 45.41187515685214, 105.96732858331342 " fill="none" id="curve_43" stroke="#000000" stroke-linecap="round" stroke-linejoin="round" stroke-width="2.4831457911291506"/>
  <path d="M 50.14415361311911, 93.53403758569767 Q 49.31967938804835, 94.16480253416697, 48.34769625066635, 95.45093818485107 " fill="none" id="curve_44" stroke="#000000" stroke-linecap="round" stroke-linejoin="round" stroke-width="2.858627216094148"/>
  <path d="M 55.85926518519235, 62.721023813959036 Q 54.387150768662956, 59.14097061954935, 50.9847240156218, 55.436821431297965 " fill="none" id="curve_51" stroke="#000000" stroke-linecap="round" stroke-linejoin="round" stroke-width="2.3395212622656816"/>
  <path d="M 64.90014545709903, 126.61746245233235 Q 65.04038192306624, 127.13079384365369, 65.4640913859426, 127.49592236358936 " fill="none" id="curve_66" stroke="#000000" stroke-linecap="round" stroke-linejoin="round" stroke-width="3.7256745550929007"/>
  <path d="M 55.464440598231704, 65.67807802153163 Q 55.58422965734738, 65.96104773904769, 55.68638043478012, 66.838935399011 " fill="none" id="curve_94" stroke="#000000" stroke-linecap="round" stroke-linejoin="round" stroke-width="2.645059613928406"/>
  <path d="M 37.25095674355555, 118.75250032948725 Q 33.43061722638944, 120.02438200034133, 30.839340801447, 124.23981653173838 " fill="none" id="curve_96" stroke="#000000" stroke-linecap="round" stroke-linejoin="round" stroke-width="2.6316450878309023"/>
  <path d="M 22.686097455657258, 132.8134800446859 Q 22.806477549690253, 133.2848318313272, 23.05672448116263, 133.6881047345726 " fill="none" id="curve_97" stroke="#000000" stroke-linecap="round" stroke-linejoin="round" stroke-width="2.1135118200424663"/>
</svg>
