<?xml version="1.0" ?>
<svg height="140" width="140" xmlns="http://www.w3.org/2000/svg">
  <path d="M 66.74806432977198, 41.376444371187915 Q 66.31899224931084, 29.592140702868317, 58.66969606171027, 26.035255444730744 " fill="none" id="curve_2" stroke="#000000" stroke-linecap="round" stroke-linejoin="round" stroke-width="3.4128739705435187"/>
  <path d="M 58.66969606171027, 26.035255444730744 Q 54.58681045019594, 25.049235699592852, 47.182404661237626, 23.965951018059485 " fill="none" id="curve_2" stroke="#000000" stroke-linecap="round" stroke-linejoin="round" stroke-width="4.052260912828419"/>
  <path d="M 47.182404661237626, 23.965951018059485 Q 34.54301514966361, 25.4874648163321, 26.485177899421846, 29.673853124101747 " fill="none" id="curve_2" stroke="#000000" stroke-linecap="round" stroke-linejoin="round" stroke-width="4.740062083950823"/>
  <path d="M 26.485177899421846, 29.673853124101747 Q 26.622732411952274, 32.50636033996169, 27.088083594081375, 33.606254274062394 " fill="none" id="curve_2" stroke="#000000" stroke-linecap="round" stroke-linejoin="round" stroke-width="4.6224281085663215"/>
  <path d="M 65.98493972916353, 44.98851720241148 Q 63.10215901342583, 58.881164674728154, 45.55033996128253, 79.81073901617648 " fill="none" id="curve_3" stroke="#000000" stroke-linecap="round" stroke-linejoin="round" stroke-width="5.3508110234812465"/>
  <path d="M 45.55033996128253, 79.81073901617648 Q 39.82218081553808, 88.38527506407873, 18.950615550180487, 108.31669161719215 " fill="none" id="curve_3" stroke="#000000" stroke-linecap="round" stroke-linejoin="round" stroke-width="5.974324517364899"/>
  <path d="M 18.950615550180487, 108.31669161719215 Q 16.578487107091245, 109.23599253817281, 16.15742245704573, 116.77492072803565 " fill="none" id="curve_3" stroke="#000000" stroke-linecap="round" stroke-linejoin="round" stroke-width="5.533991566148726"/>
  <path d="M 16.15742245704573, 116.77492072803565 Q 17.16749406389885, 118.88351461121835, 31.144620356103836, 119.10611456424479 " fill="none" id="curve_3" stroke="#000000" stroke-linecap="round" stroke-linejoin="round" stroke-width="4.875846502422585"/>
  <path d="M 31.144620356103836, 119.10611456424479 Q 46.47096441339892, 117.14542214159628, 61.060308246681316, 114.19962652443539 " fill="none" id="curve_3" stroke="#000000" stroke-linecap="round" stroke-linejoin="round" stroke-width="4.0301922557415715"/>
  <path d="M 61.060308246681316, 114.19962652443539 Q 62.31624222648411, 114.74269767968958, 64.40136811898404, 115.19589839506263 " fill="none" id="curve_3" stroke="#000000" stroke-linecap="round" stroke-linejoin="round" stroke-width="3.6869823594657465"/>
  <path d="M 50.81268704437664, 71.73937885654132 Q 57.60065270503087, 64.51030464469726, 65.63322930775965, 42.69251390296235 " fill="none" id="curve_4" stroke="#000000" stroke-linecap="round" stroke-linejoin="round" stroke-width="3.865745059788246"/>
  <path d="M 25.696046089453876, 28.24525100640321 Q 25.46596097985887, 28.290567498979467, 25.311298268724187, 28.415768257257334 " fill="none" id="curve_7" stroke="#000000" stroke-linecap="round" stroke-linejoin="round" stroke-width="4.862581853189611"/>
  <path d="M 89.30709651518391, 1.4658380719607251 Q 89.20139368249144, 1.5559718326123717, 89.0326031485349, 1.7328024525511165 " fill="none" id="curve_9" stroke="#000000" stroke-linecap="round" stroke-linejoin="round" stroke-width="2.350341933943976"/>
  <path d="M 60.51632953447937, 30.34823124734182 Q 59.23072634388819, 25.407910331393072, 51.0667738259482, 23.328058225053987 " fill="none" id="curve_10" stroke="#000000" stroke-linecap="round" stroke-linejoin="round" stroke-width="3.0304125089510485"/>
  <path d="M 57.4487568131544, 62.067752906298146 Q 52.35415894595704, 70.92172674886092, 40.164757821580935, 84.18692564614165 " fill="none" id="curve_12" stroke="#000000" stroke-linecap="round" stroke-linejoin="round" stroke-width="3.0984456651746135"/>
  <path d="M 40.164757821580935, 84.18692564614165 Q 33.82346301357604, 91.36174078364708, 21.40092644049835, 104.09636455929588 " fill="none" id="curve_12" stroke="#000000" stroke-linecap="round" stroke-linejoin="round" stroke-width="3.1715290744953086"/>
  <path d="M 17.977426103741877, 114.47348134635979 Q 18.000556998967276, 112.77296883273783, 18.043051236727734, 111.42536535888539 " fill="none" id="curve_13" stroke="#000000" stroke-linecap="round" stroke-linejoin="round" stroke-width="4.977244699342505"/>
  <path d="M 55.76154349032828, 65.52450071648977 Q 54.74989458454035, 66.1428914944872, 53.84994593749273, 68.04467006293729 " fill="none" id="curve_15" stroke="#000000" stroke-linecap="round" stroke-linejoin="round" stroke-width="4.163271688009411"/>
  <path d="M 50.62821176513023, 75.1319679336275 Q 53.78300753955967, 69.72196396995572, 57.980910714665676, 60.81917956665015 " fill="none" id="curve_21" stroke="#000000" stroke-linecap="round" stroke-linejoin="round" stroke-width="2.9843954581681755"/>
  <path d="M 63.62618726524289, 43.00923124718484 Q 64.0737597039654, 43.55689266821642, 64.42407150996482, 45.696846216512995 " fill="none" id="curve_22" stroke="#000000" stroke-linecap="round" stroke-linejoin="round" stroke-width="3.591430419905127"/>
  <path d="M 20.677471565280793, 107.28148806928803 Q 28.65465123035571, 102.03305993699536, 39.13406093168614, 89.11431406138857 " fill="none" id="curve_26" stroke="#000000" stroke-linecap="round" stroke-linejoin="round" stroke-width="2.2585508658071936"/>
  <path d="M 57.39009237289429, 57.70926475524902 Q 55.39851039548707, 62.936882113428915, 52.78384203543118, 70.43619226933743 " fill="none" id="curve_40" stroke="#000000" stroke-linecap="round" stroke-linejoin="round" stroke-width="4.3213880291950115"/>
  <path d="M 52.78384203543118, 70.43619226933743 Q 53.51227859879358, 68.40117060526103, 55.023120073974816, 67.0594533334554 " fill="none" id="curve_40" stroke="#000000" stroke-linecap="round" stroke-linejoin="round" stroke-width="4.999897856481799"/>
  <path d="M 52.916730218546945, 70.55597148154266 Q 53.33809682253253, 67.97831135129117, 54.74089074124152, 66.92043591084584 " fill="none" id="curve_55" stroke="#000000" stroke-linecap="round" stroke-linejoin="round" stroke-width="4.933558493987825"/>
  <path d="M 20.82606425288339, 103.60801026862521 Q 18.319989255363236, 107.99656160177196, 14.94260258212916, 113.75625242511708 " fill="none" id="curve_57" stroke="#000000" stroke-linecap="round" stroke-linejoin="round" stroke-width="3.1354082927679863"/>
  <path d="M 52.54113574706295, 70.97878280596524 Q 53.12960565435795, 68.531567542932, 55.214052939944686, 67.00433323823947 " fill="none" id="curve_58" stroke="#000000" stroke-linecap="round" stroke-linejoin="round" stroke-width="4.739434715175624"/>
  <path d="M 50.55382373396322, 24.179582446929253 Q 44.25596618109267, 24.76628212464607, 32.38736252615895, 25.811073152421688 " fill="none" id="curve_60" stroke="#000000" stroke-linecap="round" stroke-linejoin="round" stroke-width="2.454200013177876"/>
  <path d="M 49.998791362680386, 24.629099832418344 Q 42.958946954191866, 24.646442005476523, 36.094889296194644, 24.69561222732168 " fill="none" id="curve_65" stroke="#000000" stroke-linecap="round" stroke-linejoin="round" stroke-width="2.675712020264731"/>
  <path d="M 56.0070808829788, 67.79233681554956 Q 54.47994057462543, 68.27544565823007, 51.94052979261466, 68.99491056541868 " fill="none" id="curve_80" stroke="#000000" stroke-linecap="round" stroke-linejoin="round" stroke-width="3.5458792499044973"/>
  <path d="M 52.128652132728234, 25.465306301247768 Q 53.833728910566904, 25.903390335756516, 56.609259722685096, 26.436014277766226 " fill="none" id="curve_96" stroke="#000000" stroke-linecap="round" stroke-linejoin="round" stroke-width="2.3816550741395934"/>
  <path d="M 47.326801218347555, 24.45209427356975 Q 44.52746845104026, 24.271115667119304, 40.45603580398779, 23.93527358169332 " fill="none" id="curve_119" stroke="#000000" stroke-linecap="round" stroke-linejoin="round" stroke-width="2.4948737855611016"/>
  <path d="M 32.95768771429567, 27.85226794024527 Q 32.268979514420586, 27.544926988704525, 28.692109709600068, 27.38106131349845 " fill="none" id="curve_134" stroke="#000000" stroke-linecap="round" stroke-linejoin="round" stroke-width="2.5900530767987204"/>
  <path d="M 22.8818675367526, 117.48236392834595 Q 20.64790680962959, 116.06821947641757, 15.92798593227198, 114.4998470949886 " fill="none" id="curve_169" stroke="#000000" stroke-linecap="round" stroke-linejoin="round" stroke-width="2.4132413382566686"/>
</svg>
