<?xml version="1.0" ?>
<svg height="140" width="140" xmlns="http://www.w3.org/2000/svg">
  <path d="M 57.77803039550781, 119.03960132598877 Q 58.279289148301395, 119.1826589056171, 59.05015182723231, 119.41634068106694 " fill="none" id="curve_1" stroke="#000000" stroke-linecap="round" stroke-linejoin="round" stroke-width="4.220632260155828"/>
  <path d="M 59.05015182723231, 119.41634068106694 Q 42.424938341664486, 119.32183834264322, 40.91473845176378, 114.54261601609501 " fill="none" id="curve_1" stroke="#000000" stroke-linecap="round" stroke-linejoin="round" stroke-width="4.79255039355386"/>
  <path d="M 40.91473845176378, 114.54261601609501 Q 37.282990715157936, 113.15317742899, 35.92452620940168, 107.04320533876545 " fill="none" id="curve_1" stroke="#000000" stroke-linecap="round" stroke-linejoin="round" stroke-width="5.054134704899627"/>
  <path d="M 35.92452620940168, 107.04320533876545 Q 36.125674834600396, 93.34111074722878, 37.39296309794958, 80.63318622717705 " fill="none" id="curve_1" stroke="#000000" stroke-linecap="round" stroke-linejoin="round" stroke-width="4.025853765111288"/>
  <path d="M 37.39296309794958, 80.63318622717705 Q 38.026174147545674, 74.7721339768287, 38.90485370188082, 53.93129628300995 " fill="none" id="curve_1" stroke="#000000" stroke-linecap="round" stroke-linejoin="round" stroke-width="4.096089923849342"/>
  <path d="M 38.90485370188082, 53.93129628300995 Q 38.6849012661421, 33.337424271324835, 32.8635197175991, 29.67526291473873 " fill="none" id="curve_1" stroke="#000000" stroke-linecap="round" stroke-linejoin="round" stroke-width="3.9341494979172915"/>
  <path d="M 32.8635197175991, 29.67526291473873 Q 21.80404161651306, 29.88245068561223, 20.734049915706883, 34.40689287045936 " fill="none" id="curve_1" stroke="#000000" stroke-linecap="round" stroke-linejoin="round" stroke-width="3.902142279327077"/>
  <path d="M 29.519903688637992, 28.903120146326277 Q 27.757790281548992, 29.66525313483429, 24.427198513957357, 30.377693883078344 " fill="none" id="curve_2" stroke="#000000" stroke-linecap="round" stroke-linejoin="round" stroke-width="3.8444933919857904"/>
  <path d="M 37.23090137522875, 51.15523939018201 Q 37.587735151545886, 49.25924138226931, 37.832300302453675, 42.96705107928941 " fill="none" id="curve_4" stroke="#000000" stroke-linecap="round" stroke-linejoin="round" stroke-width="2.6192042475141224"/>
  <path d="M 35.85241928176441, 41.48773404475725 Q 36.670930490371404, 40.7529734977755, 37.60109770985195, 39.2759377721033 " fill="none" id="curve_19" stroke="#000000" stroke-linecap="round" stroke-linejoin="round" stroke-width="2.6538556492949184"/>
  <path d="M 25.177742481250768, 30.269633736469068 Q 34.976802083236024, 31.035072277290713, 37.55358127372666, 35.16930764957989 " fill="none" id="curve_20" stroke="#000000" stroke-linecap="round" stroke-linejoin="round" stroke-width="1.8208628166549938"/>
  <path d="M 34.883080422157846, 102.4191498346745 Q 34.8080343633059, 103.09872071747053, 34.71326778122553, 104.49148672601663 " fill="none" id="curve_23" stroke="#000000" stroke-linecap="round" stroke-linejoin="round" stroke-width="2.5499124238637503"/>
  <path d="M 51.75687046235339, 120.50507512802638 Q 50.38747228114918, 119.82203431091087, 47.513798707193814, 119.08485772464951 " fill="none" id="curve_29" stroke="#000000" stroke-linecap="round" stroke-linejoin="round" stroke-width="3.5605032639210092"/>
  <path d="M 36.334316828817556, 75.86549950299134 Q 37.0550798120919, 74.54656451540689, 37.83155167268381, 71.58707816897117 " fill="none" id="curve_31" stroke="#000000" stroke-linecap="round" stroke-linejoin="round" stroke-width="2.629473232719971"/>
  <path d="M 43.39100777743329, 114.7551855771776 Q 44.03068215273623, 116.35202824361869, 46.79520919049764, 117.36230756139119 " fill="none" id="curve_59" stroke="#000000" stroke-linecap="round" stroke-linejoin="round" stroke-width="2.2309982326804727"/>
  <path d="M 37.45527933690767, 37.03733814456794 Q 37.65711567236899, 36.662304123532735, 37.906420347916374, 35.99116084000831 " fill="none" id="curve_116" stroke="#000000" stroke-linecap="round" stroke-linejoin="round" stroke-width="3.2573280339594497"/>
  <path d="M 33.9956831697593, 103.20382395078387 Q 34.39577206021799, 102.22742765594433, 35.168038370675085, 100.90716968319974 " fill="none" id="curve_124" stroke="#000000" stroke-linecap="round" stroke-linejoin="round" stroke-width="2.642342878375989"/>
</svg>
