<?xml version="1.0" ?>
<svg height="140" width="140" xmlns="http://www.w3.org/2000/svg">
  <path d="M 42.57426738739014, 75.61892795562744 Q 43.453680942145844, 74.12525647726832, 44.58165785406672, 68.99589462718473 " fill="none" id="curve_1" stroke="#000000" stroke-linecap="round" stroke-linejoin="round" stroke-width="8.380071479930859"/>
  <path d="M 44.58165785406672, 68.99589462718473 Q 46.6898249120446, 66.57998034095529, 47.80791184634409, 59.29136235896081 " fill="none" id="curve_1" stroke="#000000" stroke-linecap="round" stroke-linejoin="round" stroke-width="6.5338291759825"/>
  <path d="M 47.80791184634409, 59.29136235896081 Q 47.69790727940476, 37.31401911423595, 43.17373017658292, 33.540014865903444 " fill="none" id="curve_1" stroke="#000000" stroke-linecap="round" stroke-linejoin="round" stroke-width="5.619778231154579"/>
  <path d="M 43.17373017658292, 33.540014865903444 Q 41.01920735346797, 29.499574774681506, 35.30986980106725, 26.735718189169607 " fill="none" id="curve_1" stroke="#000000" stroke-linecap="round" stroke-linejoin="round" stroke-width="4.84954584745935"/>
  <path d="M 35.30986980106725, 26.735718189169607 Q 25.30354180066314, 30.216025019232145, 17.349845671229588, 52.78883134478947 " fill="none" id="curve_1" stroke="#000000" stroke-linecap="round" stroke-linejoin="round" stroke-width="4.944564831716072"/>
  <path d="M 17.349845671229588, 52.78883134478947 Q 17.69135967250167, 61.516298317788205, 19.91645547399342, 63.34054825556981 " fill="none" id="curve_1" stroke="#000000" stroke-linecap="round" stroke-linejoin="round" stroke-width="5.146027177916887"/>
  <path d="M 43.08518591879537, 76.14716658709733 Q 38.96866368689865, 85.41911806225698, 11.458860458257874, 96.05387673547314 " fill="none" id="curve_2" stroke="#000000" stroke-linecap="round" stroke-linejoin="round" stroke-width="5.321248260065156"/>
  <path d="M 11.458860458257874, 96.05387673547314 Q 17.85357622072729, 103.06027138159696, 38.434078657132304, 108.85423856718893 " fill="none" id="curve_2" stroke="#000000" stroke-linecap="round" stroke-linejoin="round" stroke-width="5.017360391675381"/>
  <path d="M 38.434078657132304, 108.85423856718893 Q 41.35773688481878, 118.72788632965111, 54.64560739894954, 121.3253101683365 " fill="none" id="curve_2" stroke="#000000" stroke-linecap="round" stroke-linejoin="round" stroke-width="5.890973063041799"/>
  <path d="M 54.64560739894954, 121.3253101683365 Q 69.45079719153166, 118.37889136522875, 84.14317084963851, 98.22411269816003 " fill="none" id="curve_2" stroke="#000000" stroke-linecap="round" stroke-linejoin="round" stroke-width="5.000842145064274"/>
  <path d="M 84.14317084963851, 98.22411269816003 Q 87.46004949761007, 96.32180603823565, 89.31728631336497, 91.86145361492744 " fill="none" id="curve_2" stroke="#000000" stroke-linecap="round" stroke-linejoin="round" stroke-width="3.2967732582462927"/>
  <path d="M 37.57343722694518, 80.20996795013608 Q 40.348618339545034, 77.94318790389943, 42.637930695637664, 73.63132184114576 " fill="none" id="curve_4" stroke="#000000" stroke-linecap="round" stroke-linejoin="round" stroke-width="2.8512038401097244"/>
  <path d="M 24.49516813879863, 63.55379719308896 Q 22.069702864504514, 63.3018414849463, 18.658997366249196, 63.00125765393876 " fill="none" id="curve_5" stroke="#000000" stroke-linecap="round" stroke-linejoin="round" stroke-width="3.022622691962134"/>
  <path d="M 16.249035855123864, 100.77163557189698 Q 29.44357002851777, 101.9068004725657, 36.32023921641088, 107.83033470940751 " fill="none" id="curve_6" stroke="#000000" stroke-linecap="round" stroke-linejoin="round" stroke-width="2.550709412218676"/>
  <path d="M 11.111855086838698, 100.67634680546425 Q 12.445851237298589, 100.49133378782246, 14.163504458139865, 100.18155701919788 " fill="none" id="curve_7" stroke="#000000" stroke-linecap="round" stroke-linejoin="round" stroke-width="3.689261555234115"/>
  <path d="M 38.19875476236378, 83.43654067690736 Q 26.529128847834585, 87.10864704602848, 13.600932263089799, 94.88249046664612 " fill="none" id="curve_8" stroke="#000000" stroke-linecap="round" stroke-linejoin="round" stroke-width="3.43799627483838"/>
  <path d="M 38.32106097760929, 111.71620259914683 Q 44.376064687739905, 117.71365701282843, 52.29927222988333, 122.44133065863264 " fill="none" id="curve_9" stroke="#000000" stroke-linecap="round" stroke-linejoin="round" stroke-width="2.633825683675026"/>
  <path d="M 55.889809045778485, 122.03376247688443 Q 64.74845784721192, 119.23611604011603, 71.7920643924464, 111.38053518213114 " fill="none" id="curve_13" stroke="#000000" stroke-linecap="round" stroke-linejoin="round" stroke-width="3.165416005133957"/>
  <path d="M 37.98283866580673, 81.63581289971368 Q 33.93004250544294, 83.28505700582562, 30.694953320746478, 87.78344863144501 " fill="none" id="curve_14" stroke="#000000" stroke-linecap="round" stroke-linejoin="round" stroke-width="2.672950392366198"/>
  <path d="M 30.694953320746478, 87.78344863144501 Q 35.87882255766136, 83.01137414383682, 43.386974373126485, 74.8000757868463 " fill="none" id="curve_14" stroke="#000000" stroke-linecap="round" stroke-linejoin="round" stroke-width="2.768991809102907"/>
  <path d="M 4.624466020346215, 0.8142064885317346 Q 2.799556189763693, 1.9535651420609004, 1.333213476736058, 4.510090644087713 " fill="none" id="curve_17" stroke="#000000" stroke-linecap="round" stroke-linejoin="round" stroke-width="3.078377915642481"/>
  <path d="M 30.297928543686822, 28.37177745768784 Q 30.595203053727076, 25.55392932350015, 34.59501687297619, 24.998487979077172 " fill="none" id="curve_18" stroke="#000000" stroke-linecap="round" stroke-linejoin="round" stroke-width="2.5379859274379166"/>
  <path d="M 22.561980110672486, 36.7322152118416 Q 24.848992635437707, 33.5144144309002, 29.144271982712812, 29.22473547427473 " fill="none" id="curve_19" stroke="#000000" stroke-linecap="round" stroke-linejoin="round" stroke-width="2.265601955707199"/>
  <path d="M 15.773273223431108, 60.66315752312896 Q 16.504298297389273, 62.84799663217143, 18.105685742685058, 64.27591213176815 " fill="none" id="curve_27" stroke="#000000" stroke-linecap="round" stroke-linejoin="round" stroke-width="2.3142859447788626"/>
  <path d="M 41.83627271421769, 35.04414942389506 Q 41.263332887236054, 29.47185541281835, 36.681392255317604, 27.876679108881582 " fill="none" id="curve_30" stroke="#000000" stroke-linecap="round" stroke-linejoin="round" stroke-width="2.746386133367154"/>
  <path d="M 87.51045220410121, 1.5852859957765826 Q 88.11852835554623, 1.6267067933128396, 89.12509434703841, 1.718996156403339 " fill="none" id="curve_38" stroke="#000000" stroke-linecap="round" stroke-linejoin="round" stroke-width="2.4963706175198412"/>
  <path d="M 34.91448064455601, 108.5120028389827 Q 42.746244362940025, 113.10421846996917, 49.10046894903212, 121.61745599324885 " fill="none" id="curve_43" stroke="#000000" stroke-linecap="round" stroke-linejoin="round" stroke-width="2.7928772770788015"/>
  <path d="M 70.36226848570924, 112.93611501919186 Q 65.80081652670918, 117.59585229277509, 56.69782910548568, 121.51115089690471 " fill="none" id="curve_44" stroke="#000000" stroke-linecap="round" stroke-linejoin="round" stroke-width="4.036950067496277"/>
  <path d="M 56.69782910548568, 121.51115089690471 Q 66.76781813707431, 120.02539199887327, 70.85255171478546, 112.44647743760396 " fill="none" id="curve_44" stroke="#000000" stroke-linecap="round" stroke-linejoin="round" stroke-width="3.421555335435422"/>
  <path d="M 35.74218221256972, 110.2612998455392 Q 44.22587510681011, 113.54941872417324, 49.470729725403494, 121.2722518520631 " fill="none" id="curve_60" stroke="#000000" stroke-linecap="round" stroke-linejoin="round" stroke-width="2.0342712962017346"/>
  <path d="M 49.470729725403494, 121.2722518520631 Q 46.637512947562456, 114.84392145223582, 35.01908612922627, 110.06027126242046 " fill="none" id="curve_60" stroke="#000000" stroke-linecap="round" stroke-linejoin="round" stroke-width="2.7533987606322947"/>
  <path d="M 9.928478374741733, 98.83182968349236 Q 15.417955704110694, 100.1916182428994, 17.3650866254674, 103.92755919642843 " fill="none" id="curve_63" stroke="#000000" stroke-linecap="round" stroke-linejoin="round" stroke-width="2.437462226493356"/>
  <path d="M 33.60983476876096, 86.26876916674769 Q 35.006734524344616, 86.20427013214199, 35.68127468536754, 85.87839085528705 " fill="none" id="curve_64" stroke="#000000" stroke-linecap="round" stroke-linejoin="round" stroke-width="3.0335385116552316"/>
  <path d="M 20.16548222633356, 47.28198904432853 Q 20.147567544749517, 44.613023122253345, 20.079853138819082, 42.54533190242852 " fill="none" id="curve_92" stroke="#000000" stroke-linecap="round" stroke-linejoin="round" stroke-width="3.337876110005443"/>
  <path d="M 45.3848344843594, 60.37316526553593 Q 45.53193268216743, 57.96652349859308, 46.23335706855279, 57.012864238995164 " fill="none" id="curve_107" stroke="#000000" stroke-linecap="round" stroke-linejoin="round" stroke-width="2.9253456727231018"/>
  <path d="M 40.27336962942174, 29.66456100933239 Q 39.28328775115209, 27.907596329047816, 31.606972943768938, 27.14612417364528 " fill="none" id="curve_108" stroke="#000000" stroke-linecap="round" stroke-linejoin="round" stroke-width="2.4848470411387464"/>
  <path d="M 7.987361637426176, 0.9768891709154346 Q 8.562361191110334, 1.1125235561371105, 9.65326042763933, 1.355439420104294 " fill="none" id="curve_125" stroke="#000000" stroke-linecap="round" stroke-linejoin="round" stroke-width="1.9493564065442843"/>
  <path d="M 65.42929028535491, 114.35249768870938 Q 63.357507795105604, 118.4701965396188, 55.32634541628578, 120.41226767871663 " fill="none" id="curve_140" stroke="#000000" stroke-linecap="round" stroke-linejoin="round" stroke-width="3.499274100243311"/>
  <path d="M 44.10268545810763, 35.29637399939876 Q 43.189096412757394, 28.792537922894496, 33.108223762171875, 26.943974030958277 " fill="none" id="curve_148" stroke="#000000" stroke-linecap="round" stroke-linejoin="round" stroke-width="3.120875938552068"/>
</svg>
