<?xml version="1.0" ?>
<svg height="140" width="140" xmlns="http://www.w3.org/2000/svg">
  <path d="M 40.73100757598877, 106.25481414794922 Q 42.36437663979442, 97.89499160760366, 48.59708424244309, 82.87553553807084 " fill="none" id="curve_1" stroke="#000000" stroke-linecap="round" stroke-linejoin="round" stroke-width="5.891718366674249"/>
  <path d="M 48.59708424244309, 82.87553553807084 Q 51.51346514200936, 77.2507532010806, 54.41749556322333, 65.991511309081 " fill="none" id="curve_1" stroke="#000000" stroke-linecap="round" stroke-linejoin="round" stroke-width="5.2332980908439515"/>
  <path d="M 54.41749556322333, 65.991511309081 Q 54.172782387865844, 57.81164695265309, 40.937282251795125, 57.38023025176183 " fill="none" id="curve_1" stroke="#000000" stroke-linecap="round" stroke-linejoin="round" stroke-width="5.5072175111307144"/>
  <path d="M 40.937282251795125, 57.38023025176183 Q 34.87780140079622, 57.820372989610874, 31.892919134216488, 59.26212971642592 " fill="none" id="curve_1" stroke="#000000" stroke-linecap="round" stroke-linejoin="round" stroke-width="5.400510574227358"/>
  <path d="M 31.892919134216488, 59.26212971642592 Q 36.17409392691197, 62.58693981622155, 39.54818378303271, 66.66539500196157 " fill="none" id="curve_1" stroke="#000000" stroke-linecap="round" stroke-linejoin="round" stroke-width="4.22533319750541"/>
  <path d="M 45.49090630710974, 95.25381671490837 Q 41.13187704013505, 98.94530965391672, 39.711209103271976, 111.31612458373023 " fill="none" id="curve_2" stroke="#000000" stroke-linecap="round" stroke-linejoin="round" stroke-width="5.21281348732494"/>
  <path d="M 39.711209103271976, 111.31612458373023 Q 44.74297735194939, 114.58100128011003, 47.817297174275524, 119.12952314934998 " fill="none" id="curve_2" stroke="#000000" stroke-linecap="round" stroke-linejoin="round" stroke-width="5.288331132092671"/>
  <path d="M 47.817297174275524, 119.12952314934998 Q 60.452751369545766, 118.40377280295131, 63.69784817226892, 114.61310623053843 " fill="none" id="curve_2" stroke="#000000" stroke-linecap="round" stroke-linejoin="round" stroke-width="4.18253184438982"/>
  <path d="M 45.49627443527565, 119.4617047964936 Q 42.0817174009771, 116.24484969677985, 40.66759593288059, 102.6491866686035 " fill="none" id="curve_3" stroke="#000000" stroke-linecap="round" stroke-linejoin="round" stroke-width="3.4818145093436246"/>
  <path d="M 40.66759593288059, 102.6491866686035 Q 42.53259968034152, 100.1191371268924, 43.85207082082568, 94.43516050698909 " fill="none" id="curve_3" stroke="#000000" stroke-linecap="round" stroke-linejoin="round" stroke-width="3.684546221013171"/>
  <path d="M 43.85207082082568, 94.43516050698909 Q 42.61032567300004, 101.59355220985849, 40.89471877507719, 109.04220123825984 " fill="none" id="curve_3" stroke="#000000" stroke-linecap="round" stroke-linejoin="round" stroke-width="3.147656951961019"/>
  <path d="M 48.921340402908115, 56.43312171683506 Q 47.5301467679731, 56.64576962530132, 43.986328462828936, 56.87805971415215 " fill="none" id="curve_10" stroke="#000000" stroke-linecap="round" stroke-linejoin="round" stroke-width="2.9547279626206167"/>
  <path d="M 46.00723848720838, 87.39384278839302 Q 45.478624714036286, 90.54471929390438, 44.723485054250276, 96.05333790238771 " fill="none" id="curve_11" stroke="#000000" stroke-linecap="round" stroke-linejoin="round" stroke-width="2.746475408906122"/>
  <path d="M 51.6168830608296, 117.50132689921932 Q 56.338991516046505, 116.92696101510063, 60.088832451519345, 115.75568888343759 " fill="none" id="curve_28" stroke="#000000" stroke-linecap="round" stroke-linejoin="round" stroke-width="2.2875835509238187"/>
  <path d="M 51.48232638559489, 61.25804260619107 Q 52.40092685140535, 63.67862274868364, 52.91487072794252, 70.46112970731865 " fill="none" id="curve_31" stroke="#000000" stroke-linecap="round" stroke-linejoin="round" stroke-width="2.813793452521362"/>
  <path d="M 42.86095355801375, 101.20692421913384 Q 44.9025803525869, 91.41077238292544, 48.90147138519337, 78.5769501720257 " fill="none" id="curve_34" stroke="#000000" stroke-linecap="round" stroke-linejoin="round" stroke-width="2.4337970009706247"/>
  <path d="M 46.44128789722729, 88.34987980335511 Q 45.74187120196923, 89.57961352724989, 44.339361084266685, 91.52022577579912 " fill="none" id="curve_42" stroke="#000000" stroke-linecap="round" stroke-linejoin="round" stroke-width="2.946649398093795"/>
  <path d="M 46.93096607636028, 87.61721683292096 Q 46.16268080203878, 88.62007260127615, 44.52233950942369, 90.39660157721966 " fill="none" id="curve_45" stroke="#000000" stroke-linecap="round" stroke-linejoin="round" stroke-width="2.7016612041624772"/>
</svg>
