<?xml version="1.0" ?>
<svg height="140" width="140" xmlns="http://www.w3.org/2000/svg">
  <path d="M 55.858049392700195, 100.3322811126709 Q 55.48278982128133, 100.57529991395633, 52.39053323298958, 100.6801134132649 " fill="none" id="curve_1" stroke="#000000" stroke-linecap="round" stroke-linejoin="round" stroke-width="5.8332293028871005"/>
  <path d="M 52.39053323298958, 100.6801134132649 Q 51.78031816516918, 101.37410859981829, 35.84408077938275, 101.44696455367257 " fill="none" id="curve_1" stroke="#000000" stroke-linecap="round" stroke-linejoin="round" stroke-width="7.114271614537226"/>
  <path d="M 35.84408077938275, 101.44696455367257 Q 21.12001784139251, 101.16367302457404, 18.82940224541312, 96.42342845004309 " fill="none" id="curve_1" stroke="#000000" stroke-linecap="round" stroke-linejoin="round" stroke-width="6.835047057314991"/>
  <path d="M 18.82940224541312, 96.42342845004309 Q 20.371430834457875, 82.13916274384725, 33.14110801457952, 71.2258289591214 " fill="none" id="curve_1" stroke="#000000" stroke-linecap="round" stroke-linejoin="round" stroke-width="6.286611616557014"/>
  <path d="M 33.14110801457952, 71.2258289591214 Q 40.73896034850512, 64.66450592204218, 48.88624588246076, 52.47222109621025 " fill="none" id="curve_1" stroke="#000000" stroke-linecap="round" stroke-linejoin="round" stroke-width="6.312220984449418"/>
  <path d="M 48.88624588246076, 52.47222109621025 Q 48.370023851186666, 43.938708308402084, 45.465770834993826, 41.03311444357982 " fill="none" id="curve_1" stroke="#000000" stroke-linecap="round" stroke-linejoin="round" stroke-width="4.8412737873494684"/>
  <path d="M 45.465770834993826, 41.03311444357982 Q 28.689464221923508, 42.41848683070045, 21.217867546739406, 48.49244846033618 " fill="none" id="curve_1" stroke="#000000" stroke-linecap="round" stroke-linejoin="round" stroke-width="4.981821344927501"/>
  <path d="M 58.918938087665595, 99.66991577712746 Q 57.36428869014488, 99.69505455641777, 55.65131232974353, 99.74153884366396 " fill="none" id="curve_4" stroke="#000000" stroke-linecap="round" stroke-linejoin="round" stroke-width="3.441069462734765"/>
  <path d="M 17.46998933922142, 93.27183156128751 Q 18.870638691855355, 85.08881239383791, 26.75699882883586, 79.33563715899551 " fill="none" id="curve_5" stroke="#000000" stroke-linecap="round" stroke-linejoin="round" stroke-width="2.60843877144206"/>
  <path d="M 35.90470693356387, 67.92721324033948 Q 26.63671273254934, 71.44182857474442, 19.57164510544577, 88.56875195052687 " fill="none" id="curve_6" stroke="#000000" stroke-linecap="round" stroke-linejoin="round" stroke-width="2.5202755091497444"/>
  <path d="M 19.57164510544577, 88.56875195052687 Q 17.444104606658623, 89.07377606830171, 16.91947586238407, 94.26046964596021 " fill="none" id="curve_6" stroke="#000000" stroke-linecap="round" stroke-linejoin="round" stroke-width="3.497857145335068"/>
  <path d="M 16.91947586238407, 94.26046964596021 Q 18.60184336745977, 99.1484403835754, 37.40417768558366, 99.96757955081631 " fill="none" id="curve_6" stroke="#000000" stroke-linecap="round" stroke-linejoin="round" stroke-width="3.020734619037103"/>
  <path d="M 49.41834880397292, 49.24336597895997 Q 48.78459317676415, 42.625780220822485, 41.55304271328776, 41.18402395115616 " fill="none" id="curve_10" stroke="#000000" stroke-linecap="round" stroke-linejoin="round" stroke-width="3.598378730879364"/>
  <path d="M 44.968162536621094, 39.63511657714844 Q 45.470322652768495, 44.68571244442834, 48.46826561398984, 47.326765755090605 " fill="none" id="curve_24" stroke="#000000" stroke-linecap="round" stroke-linejoin="round" stroke-width="3.1634422219422946"/>
  <path d="M 48.46826561398984, 47.326765755090605 Q 47.485179577296975, 43.57958397491766, 38.932740285525504, 42.25446207777941 " fill="none" id="curve_24" stroke="#000000" stroke-linecap="round" stroke-linejoin="round" stroke-width="3.5174547749805796"/>
  <path d="M 21.978936033415806, 47.855411991826394 Q 21.659769666197015, 48.22498459794358, 21.203204730102442, 49.03223404634959 " fill="none" id="curve_40" stroke="#000000" stroke-linecap="round" stroke-linejoin="round" stroke-width="2.7365123868864205"/>
  <path d="M 33.84011363983154, 39.90886878967285 Q 43.07063202994646, 40.08376453672624, 48.98395450884436, 41.70600109366535 " fill="none" id="curve_54" stroke="#000000" stroke-linecap="round" stroke-linejoin="round" stroke-width="2.039486671273494"/>
  <path d="M 26.054519632145723, 44.62451163318425 Q 28.99041462317525, 44.32107813907576, 38.18727269018994, 43.91628572318465 " fill="none" id="curve_76" stroke="#000000" stroke-linecap="round" stroke-linejoin="round" stroke-width="2.641601725389209"/>
  <path d="M 28.075288708434414, 75.79275649754265 Q 28.909532094968405, 69.5262877630473, 34.73645202677605, 66.8707591274633 " fill="none" id="curve_117" stroke="#000000" stroke-linecap="round" stroke-linejoin="round" stroke-width="2.6304684563034444"/>
  <path d="M 21.485068724917177, 86.30843010469013 Q 17.69378301403509, 86.76081530217255, 16.559239400463504, 90.29002954602399 " fill="none" id="curve_127" stroke="#000000" stroke-linecap="round" stroke-linejoin="round" stroke-width="3.6289335760861166"/>
  <path d="M 49.637681469141924, 44.35279997986231 Q 48.53047233256459, 51.80863636198223, 46.546307506548935, 61.04492676227348 " fill="none" id="curve_142" stroke="#000000" stroke-linecap="round" stroke-linejoin="round" stroke-width="2.4743299367591463"/>
  <path d="M 29.822761115041292, 77.90408851593243 Q 23.304416061209093, 80.48556360574347, 17.846934162883365, 86.69081796324228 " fill="none" id="curve_144" stroke="#000000" stroke-linecap="round" stroke-linejoin="round" stroke-width="2.5777453238825028"/>
  <path d="M 33.20334826582201, 99.40104278961508 Q 31.589639573996163, 98.93266372904702, 26.03874854209021, 98.5995746799604 " fill="none" id="curve_146" stroke="#000000" stroke-linecap="round" stroke-linejoin="round" stroke-width="3.15171164794903"/>
  <path d="M 23.163883796827232, 46.84920072299289 Q 22.922740488891186, 46.76836551482675, 22.656320191415322, 46.611083707346026 " fill="none" id="curve_149" stroke="#000000" stroke-linecap="round" stroke-linejoin="round" stroke-width="4.054429399437866"/>
</svg>
