<?xml version="1.0" ?>
<svg height="140" width="140" xmlns="http://www.w3.org/2000/svg">
  <path d="M 34.27898025512695, 94.56515884399414 Q 36.3684782184048, 92.94491655717141, 39.95321778648636, 88.54781109984279 " fill="none" id="curve_1" stroke="#000000" stroke-linecap="round" stroke-linejoin="round" stroke-width="7.685365930114698"/>
  <path d="M 39.95321778648636, 88.54781109984279 Q 45.47151139251602, 86.491195883329, 47.033872819077494, 70.51231866317943 " fill="none" id="curve_1" stroke="#000000" stroke-linecap="round" stroke-linejoin="round" stroke-width="5.767530664025735"/>
  <path d="M 47.033872819077494, 70.51231866317943 Q 46.40474460304012, 67.50563262445291, 39.84182482278991, 66.81256312515887 " fill="none" id="curve_1" stroke="#000000" stroke-linecap="round" stroke-linejoin="round" stroke-width="4.947694914611258"/>
  <path d="M 39.84182482278991, 66.81256312515887 Q 31.870365012799475, 68.92755333220815, 29.69051694367173, 79.20404860574632 " fill="none" id="curve_1" stroke="#000000" stroke-linecap="round" stroke-linejoin="round" stroke-width="4.7467466704443275"/>
  <path d="M 40.677378314072, 93.83363720297264 Q 33.36835285062687, 100.56683331483792, 24.34513460193493, 108.0176828462337 " fill="none" id="curve_2" stroke="#000000" stroke-linecap="round" stroke-linejoin="round" stroke-width="7.997154969870782"/>
  <path d="M 24.34513460193493, 108.0176828462337 Q 34.591252727556444, 110.65412581896418, 38.259265490317944, 117.77629497748806 " fill="none" id="curve_2" stroke="#000000" stroke-linecap="round" stroke-linejoin="round" stroke-width="5.132325819951138"/>
  <path d="M 38.259265490317944, 117.77629497748806 Q 51.00955362091506, 117.08491816080824, 53.423467981820394, 111.70149926642964 " fill="none" id="curve_2" stroke="#000000" stroke-linecap="round" stroke-linejoin="round" stroke-width="4.662741771555652"/>
  <path d="M 28.457106734983764, 99.21805653057879 Q 25.10286605512862, 100.21464912790056, 24.5079214275357, 109.8271407029875 " fill="none" id="curve_3" stroke="#000000" stroke-linecap="round" stroke-linejoin="round" stroke-width="4.188307553581986"/>
  <path d="M 24.5079214275357, 109.8271407029875 Q 30.62375551415255, 109.5868894451196, 31.45619869123911, 106.14692901817918 " fill="none" id="curve_3" stroke="#000000" stroke-linecap="round" stroke-linejoin="round" stroke-width="5.759665002634728"/>
  <path d="M 29.22024925198548, 71.40151560775575 Q 32.135384582202185, 69.12860896445805, 44.15622690911525, 68.21044973609108 " fill="none" id="curve_18" stroke="#000000" stroke-linecap="round" stroke-linejoin="round" stroke-width="2.8662646435852563"/>
  <path d="M 44.15622690911525, 68.21044973609108 Q 44.735534489798916, 75.77659050752936, 45.81517223341088, 80.5286208542361 " fill="none" id="curve_18" stroke="#000000" stroke-linecap="round" stroke-linejoin="round" stroke-width="3.878713939251955"/>
  <path d="M 33.47841001667189, 102.92742825561655 Q 33.166714881882015, 111.43504074173947, 27.078503759528093, 112.37618118697574 " fill="none" id="curve_19" stroke="#000000" stroke-linecap="round" stroke-linejoin="round" stroke-width="2.8336413011634143"/>
  <path d="M 27.078503759528093, 112.37618118697574 Q 24.54310821939496, 112.06999205896891, 23.183523696691957, 111.1269975940703 " fill="none" id="curve_19" stroke="#000000" stroke-linecap="round" stroke-linejoin="round" stroke-width="3.167578393407725"/>
  <path d="M 48.94977197060553, 113.82176838700852 Q 47.351703049216894, 117.03730873919075, 37.212832979928514, 117.63009049341554 " fill="none" id="curve_21" stroke="#000000" stroke-linecap="round" stroke-linejoin="round" stroke-width="5.759930546529984"/>
  <path d="M 37.212832979928514, 117.63009049341554 Q 35.365326959566936, 116.43446196805287, 32.59953070483005, 115.2454680004575 " fill="none" id="curve_21" stroke="#000000" stroke-linecap="round" stroke-linejoin="round" stroke-width="4.262354839670735"/>
  <path d="M 90.04352331161499, 1.5557003021240234 Q 89.70359873008307, 1.6663325403108464, 89.02323930995894, 1.7777840168636487 " fill="none" id="curve_48" stroke="#000000" stroke-linecap="round" stroke-linejoin="round" stroke-width="2.7897772657174262"/>
  <path d="M 30.59243229122258, 77.43791133973541 Q 32.637127489466664, 69.82047795524998, 41.91662438031789, 66.2870475352445 " fill="none" id="curve_57" stroke="#000000" stroke-linecap="round" stroke-linejoin="round" stroke-width="3.2086145379451056"/>
  <path d="M 41.91662438031789, 66.2870475352445 Q 41.491830270044474, 66.54162481539318, 40.95385132651633, 67.3647821259767 " fill="none" id="curve_57" stroke="#000000" stroke-linecap="round" stroke-linejoin="round" stroke-width="3.152098793289683"/>
  <path d="M 40.95385132651633, 67.3647821259767 Q 42.80051590588228, 67.1869299366855, 45.35282036190339, 66.8227265711518 " fill="none" id="curve_57" stroke="#000000" stroke-linecap="round" stroke-linejoin="round" stroke-width="3.7324610920643644"/>
  <path d="M 30.55894933824885, 77.1109487556314 Q 32.39351453897012, 70.94049605778001, 39.2299648070679, 67.09909506160632 " fill="none" id="curve_72" stroke="#000000" stroke-linecap="round" stroke-linejoin="round" stroke-width="2.6850107937941337"/>
  <path d="M 31.511320190295542, 76.73987229654243 Q 32.57836567411722, 69.12370080409144, 40.79979441885084, 66.59201108791036 " fill="none" id="curve_73" stroke="#000000" stroke-linecap="round" stroke-linejoin="round" stroke-width="2.727087796329659"/>
  <path d="M 48.38229430690785, 76.46677661036793 Q 45.171475618418114, 79.57848789251766, 40.8937059538453, 83.58948699041987 " fill="none" id="curve_88" stroke="#000000" stroke-linecap="round" stroke-linejoin="round" stroke-width="4.03093248328319"/>
  <path d="M 38.638402402174734, 68.6793557601874 Q 32.362425509319536, 70.2759782612516, 29.62076381433779, 77.05190690099488 " fill="none" id="curve_116" stroke="#000000" stroke-linecap="round" stroke-linejoin="round" stroke-width="2.8019530249291886"/>
  <path d="M 45.577320278899705, 116.85782543324763 Q 43.49846236368641, 117.68232951608042, 41.162855739358605, 119.02762358769856 " fill="none" id="curve_133" stroke="#000000" stroke-linecap="round" stroke-linejoin="round" stroke-width="4.3527260865181665"/>
</svg>
