<?xml version="1.0" ?>
<svg height="140" width="140" xmlns="http://www.w3.org/2000/svg">
  <path d="M 61.505767822265625, 100.23234939575195 Q 60.952164400168186, 95.05498310439629, 52.90931440574877, 93.95455358792681 " fill="none" id="curve_1" stroke="#000000" stroke-linecap="round" stroke-linejoin="round" stroke-width="5.837871818194602"/>
  <path d="M 52.90931440574877, 93.95455358792681 Q 51.40643605617309, 103.712541905468, 39.381187795123694, 112.81364386571305 " fill="none" id="curve_1" stroke="#000000" stroke-linecap="round" stroke-linejoin="round" stroke-width="3.836402853472755"/>
  <path d="M 39.381187795123694, 112.81364386571305 Q 34.67692639974983, 118.35501578466778, 22.759629846863987, 124.73195750444796 " fill="none" id="curve_1" stroke="#000000" stroke-linecap="round" stroke-linejoin="round" stroke-width="4.876470648780767"/>
  <path d="M 22.759629846863987, 124.73195750444796 Q 22.170494519244574, 120.05897413954429, 20.903707101843317, 116.0901854309441 " fill="none" id="curve_1" stroke="#000000" stroke-linecap="round" stroke-linejoin="round" stroke-width="10.693340054183272"/>
  <path d="M 20.903707101843317, 116.0901854309441 Q 25.303951819922634, 105.45381740057155, 42.26348948419132, 90.41206546334456 " fill="none" id="curve_1" stroke="#000000" stroke-linecap="round" stroke-linejoin="round" stroke-width="3.62879632053574"/>
  <path d="M 42.26348948419132, 90.41206546334456 Q 44.26010287528166, 92.08762280889047, 54.11110001552735, 92.64657646962377 " fill="none" id="curve_1" stroke="#000000" stroke-linecap="round" stroke-linejoin="round" stroke-width="4.283998152128275"/>
  <path d="M 54.11110001552735, 92.64657646962377 Q 58.70368915388121, 88.90897948119716, 61.34802159526222, 63.53625102086208 " fill="none" id="curve_1" stroke="#000000" stroke-linecap="round" stroke-linejoin="round" stroke-width="4.977905305159051"/>
  <path d="M 61.34802159526222, 63.53625102086208 Q 61.25827469367676, 38.894987459048586, 56.14490588082629, 36.452025658403116 " fill="none" id="curve_1" stroke="#000000" stroke-linecap="round" stroke-linejoin="round" stroke-width="5.061919378707672"/>
  <path d="M 56.14490588082629, 36.452025658403116 Q 53.138486437605614, 28.09949801428762, 38.55857291640288, 22.74741684875353 " fill="none" id="curve_1" stroke="#000000" stroke-linecap="round" stroke-linejoin="round" stroke-width="4.202081853157717"/>
  <path d="M 38.55857291640288, 22.74741684875353 Q 18.967471014363344, 23.364139573766764, 15.704779494724068, 38.07833081661594 " fill="none" id="curve_1" stroke="#000000" stroke-linecap="round" stroke-linejoin="round" stroke-width="3.6254898710261405"/>
  <path d="M 15.704779494724068, 38.07833081661594 Q 17.09633536816803, 25.178740592044477, 36.21593537155228, 21.51168457504118 " fill="none" id="curve_1" stroke="#000000" stroke-linecap="round" stroke-linejoin="round" stroke-width="3.2438581275870355"/>
  <path d="M 46.326858855879784, 24.05774102259619 Q 45.0536127839964, 24.26831404357871, 42.644672888223646, 24.49170067244349 " fill="none" id="curve_2" stroke="#000000" stroke-linecap="round" stroke-linejoin="round" stroke-width="3.456526597245767"/>
  <path d="M 61.96008235180834, 97.85760684395957 Q 69.82535433739395, 107.6789602136262, 86.98437836367951, 115.13651302529745 " fill="none" id="curve_4" stroke="#000000" stroke-linecap="round" stroke-linejoin="round" stroke-width="3.762848318045731"/>
  <path d="M 86.98437836367951, 115.13651302529745 Q 80.69608805519927, 113.12889866429254, 72.66351477681107, 108.57111744209561 " fill="none" id="curve_4" stroke="#000000" stroke-linecap="round" stroke-linejoin="round" stroke-width="2.9431147169823"/>
  <path d="M 33.747962753653496, 108.80488742613502 Q 32.3668793524941, 108.29618556295429, 27.428189490420287, 108.00615614975466 " fill="none" id="curve_5" stroke="#000000" stroke-linecap="round" stroke-linejoin="round" stroke-width="4.708624674176191"/>
  <path d="M 38.19355938577336, 92.15881277686437 Q 35.75625113001053, 95.04557112078551, 32.61235263361776, 98.08441272510655 " fill="none" id="curve_6" stroke="#000000" stroke-linecap="round" stroke-linejoin="round" stroke-width="3.3700139761455064"/>
  <path d="M 61.61567735576371, 72.77686286013123 Q 60.50304417613261, 68.90806867639446, 59.54296128144776, 55.60551172418474 " fill="none" id="curve_7" stroke="#000000" stroke-linecap="round" stroke-linejoin="round" stroke-width="3.19112806185215"/>
  <path d="M 68.01447361405954, 101.9503761796662 Q 71.21938537174826, 108.86154085026482, 83.33291014449475, 112.10635350266348 " fill="none" id="curve_14" stroke="#000000" stroke-linecap="round" stroke-linejoin="round" stroke-width="2.5948415247199157"/>
  <path d="M 83.71096632134912, 114.09336455587697 Q 81.19555691456323, 113.61870305014303, 78.68112306355256, 112.45371173601055 " fill="none" id="curve_17" stroke="#000000" stroke-linecap="round" stroke-linejoin="round" stroke-width="3.587684178577824"/>
  <path d="M 62.76469730469137, 59.098591560026776 Q 61.05970857439018, 60.99459635016697, 59.12274244069206, 66.28661920544779 " fill="none" id="curve_19" stroke="#000000" stroke-linecap="round" stroke-linejoin="round" stroke-width="2.3383915847372325"/>
  <path d="M 59.15922249178907, 80.11844993015062 Q 59.662576770491654, 72.20269586165615, 61.8292952608342, 65.81330351828711 " fill="none" id="curve_22" stroke="#000000" stroke-linecap="round" stroke-linejoin="round" stroke-width="2.203123081430272"/>
  <path d="M 34.93945800272534, 23.7234798954792 Q 35.26034725996225, 24.35034617966329, 38.179930335820806, 24.61322568496136 " fill="none" id="curve_28" stroke="#000000" stroke-linecap="round" stroke-linejoin="round" stroke-width="2.2067478736898583"/>
  <path d="M 29.722041767630834, 119.77665125699329 Q 34.44701945832737, 117.74678473202138, 38.373708725916686, 113.76851253561246 " fill="none" id="curve_90" stroke="#000000" stroke-linecap="round" stroke-linejoin="round" stroke-width="2.6226161040200244"/>
</svg>
