<?xml version="1.0" ?>
<svg height="140" width="140" xmlns="http://www.w3.org/2000/svg">
  <path d="M 43.4287223815918, 43.042776107788086 Q 43.47670484415115, 42.8653867847805, 43.64648256350406, 42.59600247799587 " fill="none" id="curve_1" stroke="#000000" stroke-linecap="round" stroke-linejoin="round" stroke-width="7.199199633803634"/>
  <path d="M 43.64648256350406, 42.59600247799587 Q 42.571295324569064, 53.207561497379736, 34.53968407494401, 62.2474490484275 " fill="none" id="curve_1" stroke="#000000" stroke-linecap="round" stroke-linejoin="round" stroke-width="5.461782484689079"/>
  <path d="M 34.53968407494401, 62.2474490484275 Q 30.04399556946805, 69.7648922756372, 15.362214331822496, 87.31520952043779 " fill="none" id="curve_1" stroke="#000000" stroke-linecap="round" stroke-linejoin="round" stroke-width="5.154308451661548"/>
  <path d="M 15.362214331822496, 87.31520952043779 Q 15.418086192132556, 102.48604020385285, 22.080803982327833, 102.82895645212275 " fill="none" id="curve_1" stroke="#000000" stroke-linecap="round" stroke-linejoin="round" stroke-width="5.358504447542511"/>
  <path d="M 22.080803982327833, 102.82895645212275 Q 36.01203792841926, 102.54246356739776, 41.056386882341954, 101.30285089402942 " fill="none" id="curve_1" stroke="#000000" stroke-linecap="round" stroke-linejoin="round" stroke-width="6.531618240387395"/>
  <path d="M 41.056386882341954, 101.30285089402942 Q 23.668677744598998, 100.92878255884654, 13.979739751183189, 99.908429433267 " fill="none" id="curve_1" stroke="#000000" stroke-linecap="round" stroke-linejoin="round" stroke-width="3.567580885699992"/>
  <path d="M 18.18609355142622, 55.03894176045776 Q 18.567954818546227, 40.993233074306424, 41.77668424377828, 40.133384414084595 " fill="none" id="curve_3" stroke="#000000" stroke-linecap="round" stroke-linejoin="round" stroke-width="4.383845765041701"/>
  <path d="M 21.6300101376358, 54.11823452758528 Q 21.420570018240504, 54.66565269059959, 20.89589564755036, 55.07759772776193 " fill="none" id="curve_4" stroke="#000000" stroke-linecap="round" stroke-linejoin="round" stroke-width="3.455765259542225"/>
  <path d="M 27.0263777733054, 41.43251310133862 Q 43.80324547276394, 41.63581619157403, 45.376330328569686, 45.89125070072508 " fill="none" id="curve_5" stroke="#000000" stroke-linecap="round" stroke-linejoin="round" stroke-width="2.767182436635177"/>
  <path d="M 45.376330328569686, 45.89125070072508 Q 43.69220784528439, 56.60680877523169, 36.302207187669616, 61.89604245286381 " fill="none" id="curve_5" stroke="#000000" stroke-linecap="round" stroke-linejoin="round" stroke-width="2.6276046385040166"/>
  <path d="M 31.079140477620676, 42.736616343878694 Q 25.4977705356766, 42.696339265172575, 23.796116523565153, 42.337813895541586 " fill="none" id="curve_6" stroke="#000000" stroke-linecap="round" stroke-linejoin="round" stroke-width="3.6118888410505003"/>
  <path d="M 23.796116523565153, 42.337813895541586 Q 25.131981036007048, 40.51859778393979, 36.357908103126974, 40.07205713883124 " fill="none" id="curve_6" stroke="#000000" stroke-linecap="round" stroke-linejoin="round" stroke-width="2.4708748618225256"/>
  <path d="M 13.4433166359209, 95.1361261095284 Q 13.868935655288988, 91.92451200392877, 14.588350355635166, 87.77634150272594 " fill="none" id="curve_8" stroke="#000000" stroke-linecap="round" stroke-linejoin="round" stroke-width="2.9825689942911917"/>
  <path d="M 14.588350355635166, 87.77634150272594 Q 19.162533633483864, 80.33150863233313, 27.1497065914765, 71.75814602586061 " fill="none" id="curve_8" stroke="#000000" stroke-linecap="round" stroke-linejoin="round" stroke-width="3.393320638753136"/>
  <path d="M 32.03586785556893, 103.25660169689004 Q 32.5214561665952, 103.61811446699183, 34.15639103566471, 103.80700173757725 " fill="none" id="curve_9" stroke="#000000" stroke-linecap="round" stroke-linejoin="round" stroke-width="3.7853429347373906"/>
  <path d="M 19.3796104916834, 78.45597696941876 Q 23.438118396474394, 76.67028049467488, 26.604038351067423, 71.78509919863028 " fill="none" id="curve_10" stroke="#000000" stroke-linecap="round" stroke-linejoin="round" stroke-width="2.582681324213878"/>
  <path d="M 89.97566084169077, 137.72440778598246 Q 89.89071397661185, 137.9381781819628, 89.64372293804576, 138.1804572413501 " fill="none" id="curve_34" stroke="#000000" stroke-linecap="round" stroke-linejoin="round" stroke-width="2.0141682912738785"/>
  <path d="M 16.043037394548264, 98.59147993254146 Q 14.669450298730425, 97.7682546176847, 13.056090687501452, 96.58222070454093 " fill="none" id="curve_75" stroke="#000000" stroke-linecap="round" stroke-linejoin="round" stroke-width="3.520795509488469"/>
  <path d="M 19.71776938951746, 51.640563783272434 Q 18.846004256812876, 51.313623846857695, 17.69240980793153, 50.68098867733811 " fill="none" id="curve_131" stroke="#000000" stroke-linecap="round" stroke-linejoin="round" stroke-width="2.960367424513087"/>
  <path d="M 89.33297538757324, 1.8647270202636719 Q 89.6031490390971, 1.7922469439818003, 90.04186000371419, 1.6409388496379194 " fill="none" id="curve_145" stroke="#000000" stroke-linecap="round" stroke-linejoin="round" stroke-width="1.544202457521433"/>
</svg>
