<?xml version="1.0" ?>
<svg height="140" width="140" xmlns="http://www.w3.org/2000/svg">
  <path d="M 48.851539611816406, 110.9228048324585 Q 48.887901374552484, 111.77417479295579, 49.084932116566215, 112.24488412186857 " fill="none" id="curve_1" stroke="#000000" stroke-linecap="round" stroke-linejoin="round" stroke-width="5.7364138908590725"/>
  <path d="M 49.084932116566215, 112.24488412186857 Q 46.51696291877643, 110.72889673554769, 29.71870000781094, 109.85855178939863 " fill="none" id="curve_1" stroke="#000000" stroke-linecap="round" stroke-linejoin="round" stroke-width="7.710860883335653"/>
  <path d="M 29.71870000781094, 109.85855178939863 Q 27.701319908385308, 110.41772548596522, 24.327408010477548, 110.92003354611424 " fill="none" id="curve_1" stroke="#000000" stroke-linecap="round" stroke-linejoin="round" stroke-width="4.330103467827647"/>
  <path d="M 24.327408010477548, 110.92003354611424 Q 28.70168937364135, 103.40472058221305, 37.95086022272098, 81.57671394555564 " fill="none" id="curve_1" stroke="#000000" stroke-linecap="round" stroke-linejoin="round" stroke-width="4.68070662665022"/>
  <path d="M 37.95086022272098, 81.57671394555564 Q 40.06513545361773, 75.3932810400517, 42.552655440204006, 66.79007178382784 " fill="none" id="curve_1" stroke="#000000" stroke-linecap="round" stroke-linejoin="round" stroke-width="5.512640703406268"/>
  <path d="M 42.552655440204006, 66.79007178382784 Q 42.22274312851606, 51.59378584760405, 27.37269510618235, 50.350742830479774 " fill="none" id="curve_1" stroke="#000000" stroke-linecap="round" stroke-linejoin="round" stroke-width="5.983517737414081"/>
  <path d="M 27.37269510618235, 50.350742830479774 Q 20.263060825580858, 50.681118775535275, 19.793094598418726, 57.52574075830161 " fill="none" id="curve_1" stroke="#000000" stroke-linecap="round" stroke-linejoin="round" stroke-width="8.342521227907522"/>
  <path d="M 19.793094598418726, 57.52574075830161 Q 20.062290730400864, 61.3513857743513, 21.477747700459872, 62.32601628146013 " fill="none" id="curve_1" stroke="#000000" stroke-linecap="round" stroke-linejoin="round" stroke-width="3.5258048550918186"/>
  <path d="M 36.008453755251885, 92.0124461435461 Q 28.857681629430743, 98.05718236219062, 23.267813399299918, 109.64654987881786 " fill="none" id="curve_4" stroke="#000000" stroke-linecap="round" stroke-linejoin="round" stroke-width="3.630707243802637"/>
  <path d="M 50.21534433106936, 110.05279561196025 Q 49.147760997598056, 110.24185306256045, 47.68609521187255, 110.52137004989002 " fill="none" id="curve_5" stroke="#000000" stroke-linecap="round" stroke-linejoin="round" stroke-width="3.8632453434878014"/>
  <path d="M 16.12008963041233, 55.89907372820351 Q 17.36366412390935, 55.4247699091839, 18.179073434494576, 53.83827807015381 " fill="none" id="curve_7" stroke="#000000" stroke-linecap="round" stroke-linejoin="round" stroke-width="4.249414586900225"/>
  <path d="M 42.160350328031555, 72.48327367416037 Q 41.50502626880153, 59.072066828607525, 37.07519528270014, 52.83743291317187 " fill="none" id="curve_9" stroke="#000000" stroke-linecap="round" stroke-linejoin="round" stroke-width="2.3174978475600985"/>
  <path d="M 37.07519528270014, 52.83743291317187 Q 38.88030755175023, 58.970799494000815, 41.15206291518268, 67.58734729321363 " fill="none" id="curve_9" stroke="#000000" stroke-linecap="round" stroke-linejoin="round" stroke-width="2.3849761351754117"/>
  <path d="M 40.62093864734325, 71.45377689886662 Q 40.612941116285704, 71.06940950717576, 40.60290691206427, 70.21679086834926 " fill="none" id="curve_29" stroke="#000000" stroke-linecap="round" stroke-linejoin="round" stroke-width="3.914052363977779"/>
  <path d="M 37.12388339728292, 58.164589224661825 Q 36.62724908934588, 51.8398930138779, 32.533096506358135, 50.011913324355035 " fill="none" id="curve_45" stroke="#000000" stroke-linecap="round" stroke-linejoin="round" stroke-width="2.7063927586733456"/>
  <path d="M 40.72004337605429, 70.7697707953559 Q 40.04599724635375, 70.60420380685571, 39.211921559065445, 70.24287907486602 " fill="none" id="curve_55" stroke="#000000" stroke-linecap="round" stroke-linejoin="round" stroke-width="3.9651125322337375"/>
  <path d="M 35.015827353331645, 54.45868890858168 Q 36.717012081986375, 54.768234151191535, 40.25688834626758, 55.28949107907192 " fill="none" id="curve_74" stroke="#000000" stroke-linecap="round" stroke-linejoin="round" stroke-width="2.3660094792540733"/>
  <path d="M 30.610503638103985, 52.34836392680139 Q 32.35659509780627, 51.92057283318978, 37.53006964991091, 51.46756675805931 " fill="none" id="curve_81" stroke="#000000" stroke-linecap="round" stroke-linejoin="round" stroke-width="2.7407894770093146"/>
  <path d="M 41.58757876682074, 112.65420069989068 Q 42.25455959854787, 112.48804692033309, 42.87142272157122, 112.11795723315478 " fill="none" id="curve_96" stroke="#000000" stroke-linecap="round" stroke-linejoin="round" stroke-width="3.9098440486900676"/>
  <path d="M 43.236234313730165, 59.179718014308264 Q 41.96990848618506, 58.195222892763304, 39.56749147944769, 56.16806251052078 " fill="none" id="curve_111" stroke="#000000" stroke-linecap="round" stroke-linejoin="round" stroke-width="2.4422272416473363"/>
</svg>
