<?xml version="1.0" ?>
<svg height="140" width="140" xmlns="http://www.w3.org/2000/svg">
  <path d="M 70.69884490966797, 73.82878971099854 Q 70.88965254028564, 73.36546265276992, 70.96984401497724, 70.15678337984025 " fill="none" id="curve_1" stroke="#000000" stroke-linecap="round" stroke-linejoin="round" stroke-width="6.855954466179029"/>
  <path d="M 70.96984401497724, 70.15678337984025 Q 70.61935374363746, 79.23249868282491, 63.195250677468415, 80.75453017232797 " fill="none" id="curve_1" stroke="#000000" stroke-linecap="round" stroke-linejoin="round" stroke-width="7.358131414032288"/>
  <path d="M 63.195250677468415, 80.75453017232797 Q 55.429757938938224, 84.92774446387223, 46.51709590364503, 96.99220784042747 " fill="none" id="curve_1" stroke="#000000" stroke-linecap="round" stroke-linejoin="round" stroke-width="6.007167414123839"/>
  <path d="M 46.51709590364503, 96.99220784042747 Q 44.60575345053973, 101.36624672119785, 43.3447932967009, 107.62970434989339 " fill="none" id="curve_1" stroke="#000000" stroke-linecap="round" stroke-linejoin="round" stroke-width="5.087750201202734"/>
  <path d="M 43.3447932967009, 107.62970434989339 Q 54.007043732890864, 107.80416558425107, 61.70992632771664, 108.14682780197778 " fill="none" id="curve_1" stroke="#000000" stroke-linecap="round" stroke-linejoin="round" stroke-width="4.52220688144539"/>
  <path d="M 61.70992632771664, 108.14682780197778 Q 68.65922495145499, 107.26934079693073, 81.13304368517066, 106.55152796584812 " fill="none" id="curve_1" stroke="#000000" stroke-linecap="round" stroke-linejoin="round" stroke-width="3.79857302037005"/>
  <path d="M 71.76524635034892, 72.963471501203 Q 70.37759668644641, 63.576887339296846, 47.22250784944356, 59.987339626948724 " fill="none" id="curve_2" stroke="#000000" stroke-linecap="round" stroke-linejoin="round" stroke-width="6.297093592029383"/>
  <path d="M 47.22250784944356, 59.987339626948724 Q 37.03166848562097, 60.684406230980066, 34.842647869779015, 65.92504576426295 " fill="none" id="curve_2" stroke="#000000" stroke-linecap="round" stroke-linejoin="round" stroke-width="3.522607318241849"/>
  <path d="M 58.23658942632467, 61.48156673262805 Q 67.21297980338748, 63.88688843898994, 71.66613231686112, 68.29906081249496 " fill="none" id="curve_3" stroke="#000000" stroke-linecap="round" stroke-linejoin="round" stroke-width="3.6285966617732783"/>
  <path d="M 64.1051717717379, 66.22698579542359 Q 66.89924532147104, 67.89489218909411, 70.75257158308789, 69.72230622815394 " fill="none" id="curve_4" stroke="#000000" stroke-linecap="round" stroke-linejoin="round" stroke-width="3.0473655497434713"/>
  <path d="M 34.43059227801229, 66.49635381903556 Q 34.85608569152114, 64.67027229996744, 36.472776957458194, 62.850655906239616 " fill="none" id="curve_8" stroke="#000000" stroke-linecap="round" stroke-linejoin="round" stroke-width="2.616953130629008"/>
  <path d="M 55.28397904456534, 85.58516795509877 Q 51.83116298769541, 86.019749607386, 50.16681724699795, 88.8769537847812 " fill="none" id="curve_23" stroke="#000000" stroke-linecap="round" stroke-linejoin="round" stroke-width="2.1096735895501695"/>
  <path d="M 63.69885251536694, 106.62127944455258 Q 62.19483372920787, 106.81301484579069, 59.97979545081999, 107.09000624309878 " fill="none" id="curve_24" stroke="#000000" stroke-linecap="round" stroke-linejoin="round" stroke-width="3.746764570032548"/>
  <path d="M 62.907282463463744, 65.08731979745484 Q 59.17119992617723, 62.43601514322038, 51.62702081876475, 59.17187443116094 " fill="none" id="curve_26" stroke="#000000" stroke-linecap="round" stroke-linejoin="round" stroke-width="2.788642465489762"/>
  <path d="M 81.52602326558792, 106.5418294436854 Q 81.94125861448249, 106.7079385585979, 82.5523451196781, 106.95424784906157 " fill="none" id="curve_93" stroke="#000000" stroke-linecap="round" stroke-linejoin="round" stroke-width="2.681016794764737"/>
</svg>
