<?xml version="1.0" ?>
<svg height="140" width="140" xmlns="http://www.w3.org/2000/svg">
  <path d="M 56.99396312236786, 59.644553542137146 Q 52.52483748193732, 63.89281013998153, 41.857970158565195, 75.27849990410164 " fill="none" id="curve_1" stroke="#000000" stroke-linecap="round" stroke-linejoin="round" stroke-width="4.198251332461605"/>
  <path d="M 41.857970158565195, 75.27849990410164 Q 35.912771928792445, 79.80316727259266, 23.103063171465124, 100.01779727900691 " fill="none" id="curve_1" stroke="#000000" stroke-linecap="round" stroke-linejoin="round" stroke-width="4.668695985910835"/>
  <path d="M 23.103063171465124, 100.01779727900691 Q 23.290032920121856, 106.23501001932625, 31.01905467823792, 106.53936470207435 " fill="none" id="curve_1" stroke="#000000" stroke-linecap="round" stroke-linejoin="round" stroke-width="5.3237464761685045"/>
  <path d="M 31.01905467823792, 106.53936470207435 Q 45.578827299297856, 104.98785738751035, 59.66601399055932, 100.33588380406769 " fill="none" id="curve_1" stroke="#000000" stroke-linecap="round" stroke-linejoin="round" stroke-width="4.774235884029315"/>
  <path d="M 59.66601399055932, 100.33588380406769 Q 66.96666053784551, 101.45327874997018, 69.42795699046341, 105.0785634499612 " fill="none" id="curve_1" stroke="#000000" stroke-linecap="round" stroke-linejoin="round" stroke-width="3.9683611925120093"/>
  <path d="M 54.110900158786364, 60.36229146117324 Q 57.02130165866554, 57.50379697073262, 58.415360209877086, 50.40108945542839 " fill="none" id="curve_3" stroke="#000000" stroke-linecap="round" stroke-linejoin="round" stroke-width="5.401472474252548"/>
  <path d="M 58.415360209877086, 50.40108945542839 Q 58.12926479727057, 33.131814720178966, 39.24918080948892, 31.77613725703857 " fill="none" id="curve_3" stroke="#000000" stroke-linecap="round" stroke-linejoin="round" stroke-width="5.823961640293365"/>
  <path d="M 39.24918080948892, 31.77613725703857 Q 19.813262375828167, 32.049441942078644, 18.276383796826533, 44.55090176440957 " fill="none" id="curve_3" stroke="#000000" stroke-linecap="round" stroke-linejoin="round" stroke-width="3.9069218994208232"/>
  <path d="M 18.276383796826533, 44.55090176440957 Q 18.4108856080316, 47.40621171453875, 19.16607995129622, 48.11914295275484 " fill="none" id="curve_3" stroke="#000000" stroke-linecap="round" stroke-linejoin="round" stroke-width="3.9241724960104696"/>
  <path d="M 40.19344131582453, 79.32425575551466 Q 33.585919846765066, 82.76147203461348, 27.587325229757646, 90.51766023326257 " fill="none" id="curve_4" stroke="#000000" stroke-linecap="round" stroke-linejoin="round" stroke-width="3.0015713207104753"/>
  <path d="M 51.5403822847132, 64.02455228148906 Q 52.81270971534928, 62.7540670450466, 54.027553499033445, 59.905711042187484 " fill="none" id="curve_5" stroke="#000000" stroke-linecap="round" stroke-linejoin="round" stroke-width="2.8287883287376694"/>
  <path d="M 88.77379089671138, 4.302434405749889 Q 88.88658607323657, 2.7265749074182626, 89.07897590132632, 0.7495168285759699 " fill="none" id="curve_7" stroke="#000000" stroke-linecap="round" stroke-linejoin="round" stroke-width="2.516927091152236"/>
  <path d="M 49.33625402188402, 33.64096399155048 Q 54.54255503238147, 34.825246925481125, 57.597835272744405, 38.49379863532325 " fill="none" id="curve_10" stroke="#000000" stroke-linecap="round" stroke-linejoin="round" stroke-width="2.532304529144094"/>
  <path d="M 35.66923308148128, 104.70539633381641 Q 31.33955559366669, 104.69494393376056, 27.467593788254263, 104.67382457282667 " fill="none" id="curve_26" stroke="#000000" stroke-linecap="round" stroke-linejoin="round" stroke-width="2.4065948489335263"/>
  <path d="M 56.19462424211167, 99.85946405612486 Q 49.28749130604817, 101.88764909551469, 38.72313693508544, 104.98661537331243 " fill="none" id="curve_67" stroke="#000000" stroke-linecap="round" stroke-linejoin="round" stroke-width="3.537999501619872"/>
  <path d="M 36.60908854105117, 81.60072849273986 Q 35.83441548801376, 82.1877670489095, 34.75549598901993, 83.42659718332838 " fill="none" id="curve_78" stroke="#000000" stroke-linecap="round" stroke-linejoin="round" stroke-width="3.790337969511921"/>
  <path d="M 21.07738494873047, 100.96900081634521 Q 23.112010019979923, 101.07385570128501, 24.508504897741886, 101.55912738446197 " fill="none" id="curve_92" stroke="#000000" stroke-linecap="round" stroke-linejoin="round" stroke-width="3.316709666165844"/>
  <path d="M 48.43186402359448, 31.41431872910428 Q 48.12009215151562, 31.576725081819788, 47.33547091058623, 31.851827067169243 " fill="none" id="curve_120" stroke="#000000" stroke-linecap="round" stroke-linejoin="round" stroke-width="2.0646883483970644"/>
</svg>
