<?xml version="1.0" ?>
<svg height="140" width="140" xmlns="http://www.w3.org/2000/svg">
  <path d="M 27.51271192638876, 60.814473297323616 Q 39.656447074540964, 63.76576523426056, 47.571497468069374, 70.09211053018923 " fill="none" id="curve_2" stroke="#000000" stroke-linecap="round" stroke-linejoin="round" stroke-width="6.449126821763635"/>
  <path d="M 47.571497468069374, 70.09211053018923 Q 44.61169976222101, 80.98519982441671, 35.2109936162813, 86.21250294310165 " fill="none" id="curve_2" stroke="#000000" stroke-linecap="round" stroke-linejoin="round" stroke-width="7.153251764996388"/>
  <path d="M 35.2109936162813, 86.21250294310165 Q 35.72340361482611, 95.8269283173375, 54.777847031448715, 96.27786727218054 " fill="none" id="curve_2" stroke="#000000" stroke-linecap="round" stroke-linejoin="round" stroke-width="7.190443973992575"/>
  <path d="M 54.777847031448715, 96.27786727218054 Q 57.465336829965516, 95.84556353312676, 58.37966057164656, 94.03461180196179 " fill="none" id="curve_2" stroke="#000000" stroke-linecap="round" stroke-linejoin="round" stroke-width="6.379819525034743"/>
  <path d="M 40.20977078103649, 79.22335115392832 Q 38.17367951622124, 82.23663461335622, 31.570922606070525, 86.85815919044421 " fill="none" id="curve_3" stroke="#000000" stroke-linecap="round" stroke-linejoin="round" stroke-width="2.4422045726878023"/>
  <path d="M 0.8895284331385938, 117.74347517389819 Q 2.135623848617781, 130.62033961691128, 4.495703800884968, 138.48985214938193 " fill="none" id="curve_4" stroke="#000000" stroke-linecap="round" stroke-linejoin="round" stroke-width="3.8083066818906874"/>
  <path d="M 4.495703800884968, 138.48985214938193 Q 6.224431822013923, 138.23039429914186, 9.041874075380724, 137.99522114186945 " fill="none" id="curve_4" stroke="#000000" stroke-linecap="round" stroke-linejoin="round" stroke-width="3.7292085162194755"/>
  <path d="M 2.523471955142755, 116.13322358464421 Q 1.4771353148072797, 115.68754242733887, 1.3794174621803215, 98.07951141670138 " fill="none" id="curve_5" stroke="#000000" stroke-linecap="round" stroke-linejoin="round" stroke-width="2.279276359687828"/>
  <path d="M 1.3794174621803215, 98.07951141670138 Q 1.4557284839914868, 94.02416990726077, 1.5297383014153585, 77.73463814387192 " fill="none" id="curve_5" stroke="#000000" stroke-linecap="round" stroke-linejoin="round" stroke-width="1.7941731841913249"/>
  <path d="M 1.5297383014153585, 77.73463814387192 Q 1.507259549238731, 73.84804627185608, 1.4818961312817085, 59.838145978702414 " fill="none" id="curve_5" stroke="#000000" stroke-linecap="round" stroke-linejoin="round" stroke-width="1.7425028752456657"/>
  <path d="M 1.4818961312817085, 59.838145978702414 Q 1.3073236466998097, 58.37939524093391, 1.2300764624407239, 42.69822640189467 " fill="none" id="curve_5" stroke="#000000" stroke-linecap="round" stroke-linejoin="round" stroke-width="2.142704680733615"/>
  <path d="M 1.2300764624407239, 42.69822640189467 Q 1.3592327907034782, 40.92130403922618, 1.4513572411694171, 26.584789345864255 " fill="none" id="curve_5" stroke="#000000" stroke-linecap="round" stroke-linejoin="round" stroke-width="1.8479535291869156"/>
  <path d="M 1.4513572411694171, 26.584789345864255 Q 1.2207827386970345, 25.87448202846273, 1.1613378638962963, 12.552945452693761 " fill="none" id="curve_5" stroke="#000000" stroke-linecap="round" stroke-linejoin="round" stroke-width="2.0961059003808478"/>
  <path d="M 1.1613378638962963, 12.552945452693761 Q 1.1732439207597207, 4.21224694559435, 1.2502432104019585, 1.0882315583175526 " fill="none" id="curve_5" stroke="#000000" stroke-linecap="round" stroke-linejoin="round" stroke-width="1.8957609663671207"/>
  <path d="M 1.2502432104019585, 1.0882315583175526 Q 1.4292150519696887, 1.0501853616233359, 1.6718654878999604, 0.9918049762198315 " fill="none" id="curve_5" stroke="#000000" stroke-linecap="round" stroke-linejoin="round" stroke-width="1.3134988345685266"/>
  <path d="M 48.78030358085326, 71.0915728515402 Q 42.54380470284125, 73.52813855073822, 36.27050839715617, 84.40238297366794 " fill="none" id="curve_10" stroke="#000000" stroke-linecap="round" stroke-linejoin="round" stroke-width="2.3506471722118882"/>
  <path d="M 27.010760806902866, 63.70398620565768 Q 35.21568883126549, 65.37021283909854, 44.0958092358601, 67.98812633831525 " fill="none" id="curve_11" stroke="#000000" stroke-linecap="round" stroke-linejoin="round" stroke-width="2.615274185201497"/>
  <path d="M 37.158099844668115, 89.02989227793522 Q 42.455302188233006, 93.677551067525, 51.180185422876264, 96.28468519147276 " fill="none" id="curve_12" stroke="#000000" stroke-linecap="round" stroke-linejoin="round" stroke-width="4.4530653072926"/>
  <path d="M 2.2321990735819526, 137.73490656818603 Q 2.3767943745906193, 137.4646016944736, 2.511843581422954, 136.91825347161387 " fill="none" id="curve_16" stroke="#000000" stroke-linecap="round" stroke-linejoin="round" stroke-width="5.0189121422589755"/>
  <path d="M 42.98582419758001, 96.33973861572777 Q 41.763112659140866, 91.60793238135018, 36.73996304062598, 87.24099219045112 " fill="none" id="curve_17" stroke="#000000" stroke-linecap="round" stroke-linejoin="round" stroke-width="4.309505888280614"/>
  <path d="M 28.050338216907946, 59.23490114372386 Q 33.44729405955262, 60.442856544917476, 38.30736966165869, 63.615048366870994 " fill="none" id="curve_18" stroke="#000000" stroke-linecap="round" stroke-linejoin="round" stroke-width="3.406324167966762"/>
  <path d="M 34.864341318641664, 87.13375619052246 Q 38.27833366472104, 92.6304783050212, 53.37096026448518, 95.89242446648868 " fill="none" id="curve_28" stroke="#000000" stroke-linecap="round" stroke-linejoin="round" stroke-width="4.036885610346963"/>
  <path d="M 44.24630012206345, 73.7817768019347 Q 40.52981814920178, 79.4326441289345, 34.606597150573315, 85.76665652056245 " fill="none" id="curve_29" stroke="#000000" stroke-linecap="round" stroke-linejoin="round" stroke-width="2.9563115081000824"/>
  <path d="M 35.96925625332667, 85.04172647584005 Q 38.23860405640789, 78.90495469516183, 45.705114227980125, 74.33859312642711 " fill="none" id="curve_35" stroke="#000000" stroke-linecap="round" stroke-linejoin="round" stroke-width="3.8675832434199147"/>
  <path d="M 45.90008046609412, 95.23190924102128 Q 48.04698138066984, 95.52858579731647, 51.03669434928082, 95.90731200431514 " fill="none" id="curve_37" stroke="#000000" stroke-linecap="round" stroke-linejoin="round" stroke-width="5.627634329704079"/>
  <path d="M 51.4105213712078, 97.45008853055008 Q 46.63534819293953, 96.83955231119418, 40.572898087163445, 95.49353999050138 " fill="none" id="curve_39" stroke="#000000" stroke-linecap="round" stroke-linejoin="round" stroke-width="4.917279530861381"/>
  <path d="M 38.30399863818458, 88.35093967604924 Q 40.646982742730266, 93.91753028157503, 51.65436333753311, 95.72172354902185 " fill="none" id="curve_48" stroke="#000000" stroke-linecap="round" stroke-linejoin="round" stroke-width="4.440584861975905"/>
  <path d="M 41.669030879325604, 73.2550928023064 Q 43.87934281827599, 73.23142256921504, 46.29109993427247, 73.1816770402846 " fill="none" id="curve_49" stroke="#000000" stroke-linecap="round" stroke-linejoin="round" stroke-width="4.469063436238481"/>
  <path d="M 51.87531179510928, 95.14658330721313 Q 49.11903766882981, 94.59203165268025, 45.73303547522498, 93.73079480716243 " fill="none" id="curve_50" stroke="#000000" stroke-linecap="round" stroke-linejoin="round" stroke-width="5.157506456567125"/>
  <path d="M 35.486105882559514, 64.3415340857696 Q 42.41158235628737, 65.52419237154345, 48.627236970347795, 68.29917532677743 " fill="none" id="curve_57" stroke="#000000" stroke-linecap="round" stroke-linejoin="round" stroke-width="2.7718267405764476"/>
  <path d="M 52.77988530008741, 95.17101898782376 Q 50.37226040584723, 96.78717793220733, 45.74695350331591, 98.31272645823903 " fill="none" id="curve_67" stroke="#000000" stroke-linecap="round" stroke-linejoin="round" stroke-width="2.8667817976771377"/>
  <path d="M 48.7845355065191, 73.83985544154817 Q 46.94646993520476, 72.63122142786335, 43.578458291420546, 70.1416455886344 " fill="none" id="curve_69" stroke="#000000" stroke-linecap="round" stroke-linejoin="round" stroke-width="1.9237725079507446"/>
  <path d="M 45.770080488299534, 66.49237786563843 Q 42.74436358831084, 64.76465760921842, 33.26133593335214, 63.08127963565215 " fill="none" id="curve_112" stroke="#000000" stroke-linecap="round" stroke-linejoin="round" stroke-width="2.2284064171190967"/>
  <path d="M 1.4170865049131238, 138.39707349680603 Q 2.0798400162525574, 138.12225243723768, 3.0219648402310755, 137.67653089754853 " fill="none" id="curve_135" stroke="#000000" stroke-linecap="round" stroke-linejoin="round" stroke-width="2.483470687962438"/>
  <path d="M 48.181648993530054, 73.05398955958354 Q 46.891537397546266, 65.96620060156454, 31.31868970114096, 63.90364714815838 " fill="none" id="curve_151" stroke="#000000" stroke-linecap="round" stroke-linejoin="round" stroke-width="2.9794509744964714"/>
  <path d="M 32.71337297327198, 62.018940982939526 Q 34.75670953158892, 65.74344718185672, 44.044313119100195, 67.61628344952713 " fill="none" id="curve_168" stroke="#000000" stroke-linecap="round" stroke-linejoin="round" stroke-width="4.104571102633665"/>
</svg>
