<?xml version="1.0" ?>
<svg height="140" width="140" xmlns="http://www.w3.org/2000/svg">
  <path d="M 63.39354133605957, 27.104047775268555 Q 63.10150706726615, 34.02368339742359, 61.787962681672525, 40.05032664990722 " fill="none" id="curve_1" stroke="#000000" stroke-linecap="round" stroke-linejoin="round" stroke-width="7.098447526187742"/>
  <path d="M 61.787962681672525, 40.05032664990722 Q 58.723800827388274, 50.92301612461925, 44.144851333084794, 64.42312380766225 " fill="none" id="curve_1" stroke="#000000" stroke-linecap="round" stroke-linejoin="round" stroke-width="4.209198857324319"/>
  <path d="M 44.144851333084794, 64.42312380766225 Q 37.23330395359364, 72.3465341687488, 27.188672688339228, 86.94189724944309 " fill="none" id="curve_1" stroke="#000000" stroke-linecap="round" stroke-linejoin="round" stroke-width="5.034424747906755"/>
  <path d="M 27.188672688339228, 86.94189724944309 Q 29.929919476023255, 88.86183427690904, 38.58199276997465, 89.70782691897566 " fill="none" id="curve_1" stroke="#000000" stroke-linecap="round" stroke-linejoin="round" stroke-width="6.059348808993402"/>
  <path d="M 38.58199276997465, 89.70782691897566 Q 49.27838732986078, 85.49052026833512, 74.1687599818219, 80.767153616804 " fill="none" id="curve_1" stroke="#000000" stroke-linecap="round" stroke-linejoin="round" stroke-width="5.265715961632788"/>
  <path d="M 74.1687599818219, 80.767153616804 Q 76.67276127196492, 81.0864930867265, 78.4371128603939, 81.72600724780034 " fill="none" id="curve_1" stroke="#000000" stroke-linecap="round" stroke-linejoin="round" stroke-width="5.44030268448057"/>
  <path d="M 63.45513964678453, 28.779018428542393 Q 62.760171872680786, 27.255811329988003, 54.074975885509126, 26.865971989690493 " fill="none" id="curve_2" stroke="#000000" stroke-linecap="round" stroke-linejoin="round" stroke-width="3.161351554021657"/>
  <path d="M 54.074975885509126, 26.865971989690493 Q 42.797066746979766, 29.31867536900531, 34.804186957786534, 38.18253550199405 " fill="none" id="curve_2" stroke="#000000" stroke-linecap="round" stroke-linejoin="round" stroke-width="2.8772044654352142"/>
  <path d="M 25.36435043914291, 48.85696073562596 Q 26.72341259044943, 46.88972955894692, 28.020096151069858, 44.393123713926535 " fill="none" id="curve_3" stroke="#000000" stroke-linecap="round" stroke-linejoin="round" stroke-width="4.0631703123126455"/>
  <path d="M 31.58134133824087, 42.94269437942761 Q 31.05612906502911, 43.65419349838902, 29.998609533743235, 44.759684330193615 " fill="none" id="curve_4" stroke="#000000" stroke-linecap="round" stroke-linejoin="round" stroke-width="2.5388837664423543"/>
  <path d="M 50.357025759579045, 58.26699242171135 Q 42.04732728217422, 64.6165892036257, 30.822708932913105, 79.1948779984902 " fill="none" id="curve_5" stroke="#000000" stroke-linecap="round" stroke-linejoin="round" stroke-width="3.009372660037975"/>
  <path d="M 44.30868125969832, 86.66655204394088 Q 49.60169754409255, 85.14200972845137, 55.831808757305275, 82.86046344695636 " fill="none" id="curve_6" stroke="#000000" stroke-linecap="round" stroke-linejoin="round" stroke-width="3.5647438846952446"/>
  <path d="M 40.94803061619371, 88.61771508568462 Q 45.90547448515106, 88.14335054131047, 51.461862534323814, 87.43997976108862 " fill="none" id="curve_7" stroke="#000000" stroke-linecap="round" stroke-linejoin="round" stroke-width="3.6461101795135398"/>
  <path d="M 51.81370323225793, 55.63117201532733 Q 45.47138921444341, 59.68821930581351, 41.63235186159406, 69.5838677266637 " fill="none" id="curve_8" stroke="#000000" stroke-linecap="round" stroke-linejoin="round" stroke-width="3.788382883285467"/>
  <path d="M 63.02114656356933, 30.521826497026602 Q 62.88934508173263, 35.21473763884673, 62.409228602363974, 38.002197942390865 " fill="none" id="curve_10" stroke="#000000" stroke-linecap="round" stroke-linejoin="round" stroke-width="3.5797882532278154"/>
  <path d="M 62.409228602363974, 38.002197942390865 Q 61.88688943855405, 41.835386161284745, 58.09006086503194, 43.85395995868729 " fill="none" id="curve_10" stroke="#000000" stroke-linecap="round" stroke-linejoin="round" stroke-width="3.159322744111418"/>
  <path d="M 61.18663997559929, 28.591973679648824 Q 62.35949765756646, 30.336545986301367, 62.87863707297893, 36.65227181453437 " fill="none" id="curve_11" stroke="#000000" stroke-linecap="round" stroke-linejoin="round" stroke-width="3.208863840454704"/>
  <path d="M 39.02695111709567, 35.33049809006245 Q 38.59047423632296, 35.6183647336879, 37.78617576535539, 36.20803358854365 " fill="none" id="curve_22" stroke="#000000" stroke-linecap="round" stroke-linejoin="round" stroke-width="3.507341855456948"/>
  <path d="M 27.036110750299496, 85.6284750766835 Q 27.227715969912655, 81.60576682663178, 31.735544537218914, 80.97312810864297 " fill="none" id="curve_31" stroke="#000000" stroke-linecap="round" stroke-linejoin="round" stroke-width="2.4187071967997578"/>
  <path d="M 43.64975012882916, 85.85309966075636 Q 42.82316519214914, 87.61358855468015, 31.26786165517919, 87.85644260825944 " fill="none" id="curve_32" stroke="#000000" stroke-linecap="round" stroke-linejoin="round" stroke-width="3.0719545661786225"/>
  <path d="M 56.279394892798194, 48.17806939251362 Q 56.58533716696661, 47.5948327987987, 56.94565021059103, 46.79233597470211 " fill="none" id="curve_35" stroke="#000000" stroke-linecap="round" stroke-linejoin="round" stroke-width="4.696919389263444"/>
  <path d="M 58.50250642944388, 26.065431325900413 Q 56.42930162601918, 26.440864593149463, 52.240712134992236, 26.92943517687609 " fill="none" id="curve_36" stroke="#000000" stroke-linecap="round" stroke-linejoin="round" stroke-width="2.6462467806455487"/>
  <path d="M 47.38454708584721, 61.675164372419474 Q 46.191433797390125, 64.6104195197988, 41.11046326590524, 65.89246127096528 " fill="none" id="curve_37" stroke="#000000" stroke-linecap="round" stroke-linejoin="round" stroke-width="4.006432512068188"/>
  <path d="M 27.820960325950487, 83.09403892290025 Q 28.914626576252736, 82.53143183808318, 30.34113760997711, 81.20537912175192 " fill="none" id="curve_55" stroke="#000000" stroke-linecap="round" stroke-linejoin="round" stroke-width="2.6691612133723583"/>
  <path d="M 38.17118670124155, 34.24049576021405 Q 38.38440553595423, 34.50500613225694, 38.82721784793357, 35.223398883823 " fill="none" id="curve_72" stroke="#000000" stroke-linecap="round" stroke-linejoin="round" stroke-width="2.1173677536554045"/>
</svg>
