<?xml version="1.0" ?>
<svg height="140" width="140" xmlns="http://www.w3.org/2000/svg">
  <path d="M 37.430341720581055, 87.24495506286621 Q 40.58673848468892, 82.30072300249836, 45.94164297229247, 69.57062457578786 " fill="none" id="curve_1" stroke="#000000" stroke-linecap="round" stroke-linejoin="round" stroke-width="5.48278969006891"/>
  <path d="M 45.94164297229247, 69.57062457578786 Q 45.88271733916944, 48.43667463679722, 40.663016827688416, 47.35820032081939 " fill="none" id="curve_1" stroke="#000000" stroke-linecap="round" stroke-linejoin="round" stroke-width="6.335889392625346"/>
  <path d="M 40.663016827688416, 47.35820032081939 Q 37.2896792766267, 46.50783355485173, 33.510775154600495, 44.13078155310891 " fill="none" id="curve_1" stroke="#000000" stroke-linecap="round" stroke-linejoin="round" stroke-width="3.7518812826987418"/>
  <path d="M 33.510775154600495, 44.13078155310891 Q 22.656379050848745, 47.31307667707766, 17.445125561767448, 57.78497909149927 " fill="none" id="curve_1" stroke="#000000" stroke-linecap="round" stroke-linejoin="round" stroke-width="4.817817695699473"/>
  <path d="M 24.5447222608835, 86.82934697441317 Q 19.349850094530385, 88.66962852085265, 18.646484546815554, 108.30224683028601 " fill="none" id="curve_2" stroke="#000000" stroke-linecap="round" stroke-linejoin="round" stroke-width="4.939163190787562"/>
  <path d="M 18.646484546815554, 108.30224683028601 Q 32.09900849856828, 107.72474573823835, 34.0027938003152, 92.5981911553424 " fill="none" id="curve_2" stroke="#000000" stroke-linecap="round" stroke-linejoin="round" stroke-width="6.684507650750306"/>
  <path d="M 34.0027938003152, 92.5981911553424 Q 39.849518099268366, 90.79475419414248, 41.71225037753228, 80.35903832286546 " fill="none" id="curve_2" stroke="#000000" stroke-linecap="round" stroke-linejoin="round" stroke-width="3.6071481212864707"/>
  <path d="M 30.45715515398644, 90.67205116912021 Q 37.03857848886819, 100.33782400895046, 50.82280497523065, 105.67258663818174 " fill="none" id="curve_3" stroke="#000000" stroke-linecap="round" stroke-linejoin="round" stroke-width="4.253164752125194"/>
  <path d="M 50.82280497523065, 105.67258663818174 Q 56.65245924972838, 105.64200813999946, 62.57349343929774, 105.60313992545076 " fill="none" id="curve_3" stroke="#000000" stroke-linecap="round" stroke-linejoin="round" stroke-width="4.449763194233715"/>
  <path d="M 31.897854915566928, 90.4279425259153 Q 28.761576047758357, 88.38756029815771, 25.15100716860297, 85.28970219388479 " fill="none" id="curve_4" stroke="#000000" stroke-linecap="round" stroke-linejoin="round" stroke-width="4.1976891574470425"/>
  <path d="M 19.15462824224639, 60.080085393903914 Q 18.8166650159651, 58.882844907399345, 18.41186824006948, 57.156345472221325 " fill="none" id="curve_5" stroke="#000000" stroke-linecap="round" stroke-linejoin="round" stroke-width="4.271742235679705"/>
  <path d="M 48.71031429279227, 62.99070866483591 Q 47.61476568237032, 53.624023232291634, 43.02085165458399, 47.452687053771 " fill="none" id="curve_8" stroke="#000000" stroke-linecap="round" stroke-linejoin="round" stroke-width="2.2992223587147844"/>
  <path d="M 35.942408036730605, 45.22628583395539 Q 25.757575442360412, 47.630352240622486, 17.25777501954536, 54.976898610390855 " fill="none" id="curve_13" stroke="#000000" stroke-linecap="round" stroke-linejoin="round" stroke-width="2.4989356444325432"/>
  <path d="M 40.75969481095941, 80.90417263418163 Q 36.75984094665915, 90.01324421431413, 27.51560503807088, 101.71121590597409 " fill="none" id="curve_15" stroke="#000000" stroke-linecap="round" stroke-linejoin="round" stroke-width="3.2118911610131398"/>
  <path d="M 37.97746118645277, 86.29594087577216 Q 41.94109040467781, 81.61890095972286, 45.13621083866216, 70.99594258926196 " fill="none" id="curve_16" stroke="#000000" stroke-linecap="round" stroke-linejoin="round" stroke-width="3.2117136089564666"/>
  <path d="M 45.13621083866216, 70.99594258926196 Q 40.823402356385, 80.93036574286633, 33.979814980705044, 95.26467145233872 " fill="none" id="curve_16" stroke="#000000" stroke-linecap="round" stroke-linejoin="round" stroke-width="2.7944995605063396"/>
  <path d="M 47.64207393626592, 106.06210246896896 Q 45.17228090707417, 102.64481762789373, 35.437104946350324, 99.98711481207897 " fill="none" id="curve_22" stroke="#000000" stroke-linecap="round" stroke-linejoin="round" stroke-width="2.813312022554997"/>
  <path d="M 39.869304105313866, 44.21789111382637 Q 38.051193470225876, 44.36941889828157, 34.60390431360263, 44.59951101069957 " fill="none" id="curve_24" stroke="#000000" stroke-linecap="round" stroke-linejoin="round" stroke-width="3.0386687793037575"/>
  <path d="M 87.89651326484919, 1.103273863145418 Q 88.61655518116729, 1.4146385039147427, 89.48801469392055, 2.372030990148504 " fill="none" id="curve_25" stroke="#000000" stroke-linecap="round" stroke-linejoin="round" stroke-width="2.572405013305413"/>
  <path d="M 15.670047518246363, 53.97731685194548 Q 16.202273281302908, 55.887889994868644, 17.315575477116298, 57.853230710359185 " fill="none" id="curve_30" stroke="#000000" stroke-linecap="round" stroke-linejoin="round" stroke-width="2.7637596589973175"/>
  <path d="M 43.02490076907368, 69.05645568038264 Q 42.512830851415615, 82.45258738904992, 36.74554617963613, 86.13663625706175 " fill="none" id="curve_33" stroke="#000000" stroke-linecap="round" stroke-linejoin="round" stroke-width="2.5431465094529813"/>
  <path d="M 36.74554617963613, 86.13663625706175 Q 39.187070071368765, 81.3150119900775, 45.04039474180355, 76.49020352707056 " fill="none" id="curve_33" stroke="#000000" stroke-linecap="round" stroke-linejoin="round" stroke-width="2.9185322078689873"/>
  <path d="M 25.24708450273068, 102.85172304699479 Q 25.204990838672437, 107.82659368166502, 24.92468643710834, 109.13033281577363 " fill="none" id="curve_34" stroke="#000000" stroke-linecap="round" stroke-linejoin="round" stroke-width="4.216516040558358"/>
  <path d="M 16.405488213172774, 99.2874238194913 Q 19.49930145527726, 94.81375228149155, 23.674197988572367, 87.5065600154455 " fill="none" id="curve_35" stroke="#000000" stroke-linecap="round" stroke-linejoin="round" stroke-width="2.642078862913179"/>
  <path d="M 23.674197988572367, 87.5065600154455 Q 24.830788500276782, 86.37791033097882, 28.582292811449136, 85.72394821508631 " fill="none" id="curve_35" stroke="#000000" stroke-linecap="round" stroke-linejoin="round" stroke-width="3.045930759923307"/>
  <path d="M 43.934215390959444, 103.96599803953661 Q 43.758224506002584, 103.8843723577987, 43.55779213685247, 103.74884678337031 " fill="none" id="curve_36" stroke="#000000" stroke-linecap="round" stroke-linejoin="round" stroke-width="5.725489002369824"/>
  <path d="M 41.397645130169536, 80.28636967066845 Q 41.521118991245416, 79.56468041456513, 41.651292165279465, 78.19828732609827 " fill="none" id="curve_37" stroke="#000000" stroke-linecap="round" stroke-linejoin="round" stroke-width="4.582225292159245"/>
  <path d="M 23.477672081995767, 86.80734425936092 Q 23.298944858989444, 86.98908669935896, 22.885766950914544, 87.246349307731 " fill="none" id="curve_44" stroke="#000000" stroke-linecap="round" stroke-linejoin="round" stroke-width="3.2811373069727634"/>
  <path d="M 44.43897107907261, 49.832386459517494 Q 45.57953119867872, 49.91747653523272, 46.21566450504552, 50.27390154871923 " fill="none" id="curve_64" stroke="#000000" stroke-linecap="round" stroke-linejoin="round" stroke-width="3.235202316282834"/>
</svg>
