<?xml version="1.0" ?>
<svg height="140" width="140" xmlns="http://www.w3.org/2000/svg">
  <path d="M 42.42342758178711, 53.50876235961914 Q 42.277986982273354, 50.375055271656876, 37.62930831257049, 50.07673476236809 " fill="none" id="curve_1" stroke="#000000" stroke-linecap="round" stroke-linejoin="round" stroke-width="4.651025192651158"/>
  <path d="M 37.62930831257049, 50.07673476236809 Q 28.410704074311383, 51.25832311801465, 22.315669521654158, 58.5338308541 " fill="none" id="curve_1" stroke="#000000" stroke-linecap="round" stroke-linejoin="round" stroke-width="3.224948216200085"/>
  <path d="M 22.315669521654158, 58.5338308541 Q 23.597555164624236, 61.58347706309814, 24.56430979849117, 66.03105546169294 " fill="none" id="curve_1" stroke="#000000" stroke-linecap="round" stroke-linejoin="round" stroke-width="3.52568042027465"/>
  <path d="M 24.56430979849117, 66.03105546169294 Q 24.680395786931907, 56.06399845197528, 26.5823077376159, 54.82268150644231 " fill="none" id="curve_1" stroke="#000000" stroke-linecap="round" stroke-linejoin="round" stroke-width="3.227751386045743"/>
  <path d="M 41.923054918620934, 51.49264138432477 Q 50.31708359620177, 53.44229063666411, 51.65389482002542, 66.69930729122532 " fill="none" id="curve_2" stroke="#000000" stroke-linecap="round" stroke-linejoin="round" stroke-width="5.626485159471902"/>
  <path d="M 51.65389482002542, 66.69930729122532 Q 51.507703936127996, 75.4517115588157, 47.84303872059281, 77.77278388325402 " fill="none" id="curve_2" stroke="#000000" stroke-linecap="round" stroke-linejoin="round" stroke-width="3.8226913662807944"/>
  <path d="M 47.84303872059281, 77.77278388325402 Q 41.2382506139592, 82.82645529311324, 28.47642617258842, 98.80004612337581 " fill="none" id="curve_2" stroke="#000000" stroke-linecap="round" stroke-linejoin="round" stroke-width="4.536536793724833"/>
  <path d="M 28.47642617258842, 98.80004612337581 Q 31.419965424128883, 102.71555034239347, 33.30386723745304, 109.06677513285716 " fill="none" id="curve_2" stroke="#000000" stroke-linecap="round" stroke-linejoin="round" stroke-width="6.618690350326018"/>
  <path d="M 33.30386723745304, 109.06677513285716 Q 36.33076485259032, 111.01206439211778, 59.93639212402478, 111.43870723470171 " fill="none" id="curve_2" stroke="#000000" stroke-linecap="round" stroke-linejoin="round" stroke-width="4.640096351274838"/>
  <path d="M 59.93639212402478, 111.43870723470171 Q 61.47679148719568, 110.50422354130303, 63.09473636159545, 109.47908810184346 " fill="none" id="curve_2" stroke="#000000" stroke-linecap="round" stroke-linejoin="round" stroke-width="3.1294296326167794"/>
  <path d="M 38.78149309575458, 52.440179537079246 Q 47.01800994884789, 55.22841051570781, 50.605126817444294, 63.574634974706846 " fill="none" id="curve_5" stroke="#000000" stroke-linecap="round" stroke-linejoin="round" stroke-width="2.408238103188484"/>
  <path d="M 22.74804487768993, 56.212286072144735 Q 22.18060580498445, 56.80299981173178, 21.882575829042032, 58.7588473238292 " fill="none" id="curve_6" stroke="#000000" stroke-linecap="round" stroke-linejoin="round" stroke-width="4.398094918513756"/>
  <path d="M 47.10120905878509, 77.99599350681648 Q 43.5063842384611, 79.1644387441941, 40.64081344153649, 82.97559466683403 " fill="none" id="curve_7" stroke="#000000" stroke-linecap="round" stroke-linejoin="round" stroke-width="3.1291469603475566"/>
  <path d="M 48.69514805533322, 79.73862511985757 Q 47.59199296434182, 78.44276379991646, 45.70162566957853, 77.13675505371775 " fill="none" id="curve_22" stroke="#000000" stroke-linecap="round" stroke-linejoin="round" stroke-width="3.8728159172230003"/>
  <path d="M 29.671419210842277, 97.59443817279251 Q 33.128695542654576, 91.23714647738518, 40.22556067927629, 84.83886442917955 " fill="none" id="curve_23" stroke="#000000" stroke-linecap="round" stroke-linejoin="round" stroke-width="2.7328767411784516"/>
  <path d="M 43.37369404333265, 109.48964729150117 Q 38.57952388290457, 108.59200006517344, 29.596290157214206, 107.77396452558966 " fill="none" id="curve_51" stroke="#000000" stroke-linecap="round" stroke-linejoin="round" stroke-width="2.6506375020591935"/>
  <path d="M 29.24532502985371, 100.41490252542495 Q 29.59917064323989, 100.32219515098556, 30.006580656461857, 100.2057540215972 " fill="none" id="curve_52" stroke="#000000" stroke-linecap="round" stroke-linejoin="round" stroke-width="6.173284437188776"/>
  <path d="M 40.83571934768092, 110.32742807042527 Q 35.43616229241706, 107.71560205093056, 27.80942764086764, 103.77687140703848 " fill="none" id="curve_107" stroke="#000000" stroke-linecap="round" stroke-linejoin="round" stroke-width="2.337945383715387"/>
  <path d="M 29.121262379537306, 95.46253922772095 Q 33.535993293080594, 93.0696646421209, 39.445255773185856, 88.14927413985549 " fill="none" id="curve_136" stroke="#000000" stroke-linecap="round" stroke-linejoin="round" stroke-width="2.2558310107985338"/>
  <path d="M 46.98796584451763, 57.54821439504016 Q 48.23576712949974, 60.001009718065035, 50.171601786981306, 62.47156402742609 " fill="none" id="curve_138" stroke="#000000" stroke-linecap="round" stroke-linejoin="round" stroke-width="3.6561914846581662"/>
  <path d="M 29.239215583024198, 99.4586044306659 Q 29.531135585776404, 99.94028882264594, 30.08321477667876, 100.47912458823694 " fill="none" id="curve_139" stroke="#000000" stroke-linecap="round" stroke-linejoin="round" stroke-width="4.93334511023062"/>
  <path d="M 30.08321477667876, 100.47912458823694 Q 29.301047896194124, 100.37036143934182, 28.21290470168412, 100.20608487378641 " fill="none" id="curve_139" stroke="#000000" stroke-linecap="round" stroke-linejoin="round" stroke-width="3.688511676307316"/>
  <path d="M 25.051070586830186, 55.78429839147907 Q 24.776117106992952, 55.674570698152536, 24.3738120386047, 55.51965956273948 " fill="none" id="curve_140" stroke="#000000" stroke-linecap="round" stroke-linejoin="round" stroke-width="3.804362646870389"/>
</svg>
