<?xml version="1.0" ?>
<svg height="140" width="140" xmlns="http://www.w3.org/2000/svg">
  <path d="M 61.062166929244995, 79.00837707519531 Q 55.063063033341585, 79.8273959616491, 44.530659883808426, 81.4576062873867 " fill="none" id="curve_1" stroke="#000000" stroke-linecap="round" stroke-linejoin="round" stroke-width="5.677557610458536"/>
  <path d="M 44.530659883808426, 81.4576062873867 Q 41.20344938279501, 82.54379559935948, 27.571071020095758, 82.97440048842256 " fill="none" id="curve_1" stroke="#000000" stroke-linecap="round" stroke-linejoin="round" stroke-width="5.308341799299172"/>
  <path d="M 27.571071020095758, 82.97440048842256 Q 21.789063004455144, 82.28320715740571, 19.71208862959832, 78.84842529354222 " fill="none" id="curve_1" stroke="#000000" stroke-linecap="round" stroke-linejoin="round" stroke-width="5.046099775663461"/>
  <path d="M 19.71208862959832, 78.84842529354222 Q 23.077083743873963, 66.73791386926835, 40.857707481701055, 54.70121191353525 " fill="none" id="curve_1" stroke="#000000" stroke-linecap="round" stroke-linejoin="round" stroke-width="5.747652328227925"/>
  <path d="M 40.857707481701055, 54.70121191353525 Q 49.819166211891805, 48.70421740696996, 58.080626050412604, 32.80048218850024 " fill="none" id="curve_1" stroke="#000000" stroke-linecap="round" stroke-linejoin="round" stroke-width="5.133028715154331"/>
  <path d="M 58.080626050412604, 32.80048218850024 Q 57.165996826414045, 30.012154356978407, 49.30225352129908, 29.253357462560164 " fill="none" id="curve_1" stroke="#000000" stroke-linecap="round" stroke-linejoin="round" stroke-width="4.547031449443452"/>
  <path d="M 49.30225352129908, 29.253357462560164 Q 31.622717775130525, 30.093207505627642, 21.001728297071814, 37.830567361356515 " fill="none" id="curve_1" stroke="#000000" stroke-linecap="round" stroke-linejoin="round" stroke-width="4.9011383158036335"/>
  <path d="M 21.001728297071814, 37.830567361356515 Q 20.485465412091138, 42.49072877676278, 18.615035120117618, 44.12947793870194 " fill="none" id="curve_1" stroke="#000000" stroke-linecap="round" stroke-linejoin="round" stroke-width="3.9243839199539723"/>
  <path d="M 45.44399430595472, 48.85900057018913 Q 49.293458723788284, 46.72924996058364, 54.50032918510242, 42.583874560081135 " fill="none" id="curve_2" stroke="#000000" stroke-linecap="round" stroke-linejoin="round" stroke-width="2.902888964822299"/>
  <path d="M 53.31322354073851, 35.312824432469185 Q 54.688148148492935, 33.142188765125134, 56.160038150378554, 28.246420797255894 " fill="none" id="curve_5" stroke="#000000" stroke-linecap="round" stroke-linejoin="round" stroke-width="3.163671261274095"/>
  <path d="M 33.40569053045523, 30.399986414265936 Q 35.27966060360268, 29.76970767008657, 43.69652464926018, 29.135834461560332 " fill="none" id="curve_6" stroke="#000000" stroke-linecap="round" stroke-linejoin="round" stroke-width="2.7896809750661675"/>
  <path d="M 59.87164859671146, 78.05324349798485 Q 58.66818323433594, 78.67862741323047, 56.58055580426324, 79.47237382919117 " fill="none" id="curve_8" stroke="#000000" stroke-linecap="round" stroke-linejoin="round" stroke-width="3.7312625027699777"/>
  <path d="M 46.417124387169494, 48.57292747574846 Q 45.48054677076602, 48.64144309753795, 44.64238615112012, 48.83882083266403 " fill="none" id="curve_9" stroke="#000000" stroke-linecap="round" stroke-linejoin="round" stroke-width="4.448921343532687"/>
  <path d="M 22.009057285675038, 70.9835041575036 Q 20.293290541140287, 72.66537441726496, 18.76676881217307, 76.73872755572528 " fill="none" id="curve_10" stroke="#000000" stroke-linecap="round" stroke-linejoin="round" stroke-width="2.763861640524319"/>
  <path d="M 30.731930032597596, 62.059088408815576 Q 28.785388821035067, 65.69113143894909, 22.146477919572565, 68.73874306703438 " fill="none" id="curve_11" stroke="#000000" stroke-linecap="round" stroke-linejoin="round" stroke-width="3.3190520048714944"/>
  <path d="M 29.679898961529936, 63.91493188052745 Q 29.916105606578963, 63.329056969441076, 30.840775119178794, 62.53671149772886 " fill="none" id="curve_14" stroke="#000000" stroke-linecap="round" stroke-linejoin="round" stroke-width="3.2937197064330404"/>
  <path d="M 26.510780664168124, 80.76296400477622 Q 25.63037030511603, 79.26585938065743, 20.086853360277864, 78.66563408865275 " fill="none" id="curve_29" stroke="#000000" stroke-linecap="round" stroke-linejoin="round" stroke-width="2.5820947812662025"/>
  <path d="M 23.15424366351279, 36.42144711289595 Q 24.8904058092419, 31.58458927382578, 43.37960225942276, 30.221099971170677 " fill="none" id="curve_31" stroke="#000000" stroke-linecap="round" stroke-linejoin="round" stroke-width="2.592489575468277"/>
  <path d="M 28.827962025713507, 63.504783744788426 Q 24.697140969225458, 64.41712636104663, 21.69160919822551, 70.1657174196864 " fill="none" id="curve_46" stroke="#000000" stroke-linecap="round" stroke-linejoin="round" stroke-width="2.7124155068093563"/>
  <path d="M 21.69160919822551, 70.1657174196864 Q 28.618880051954278, 68.44219636646196, 33.44203213479311, 61.908341625495055 " fill="none" id="curve_46" stroke="#000000" stroke-linecap="round" stroke-linejoin="round" stroke-width="3.117067864900702"/>
  <path d="M 38.24472877250845, 32.08005886098863 Q 38.14440071727327, 31.735839156539495, 37.88828456030018, 31.09891279122314 " fill="none" id="curve_47" stroke="#000000" stroke-linecap="round" stroke-linejoin="round" stroke-width="2.7563126632668835"/>
  <path d="M 57.229552030563354, 35.57646560668945 Q 55.46865337365496, 39.14893071108407, 49.576729009890755, 42.85096805136391 " fill="none" id="curve_61" stroke="#000000" stroke-linecap="round" stroke-linejoin="round" stroke-width="3.4404996868980087"/>
  <path d="M 48.44827165716151, 47.256869258166184 Q 53.58088668480567, 43.567141992496644, 58.291159999403405, 34.24091362919056 " fill="none" id="curve_90" stroke="#000000" stroke-linecap="round" stroke-linejoin="round" stroke-width="2.831855770478443"/>
</svg>
