<?xml version="1.0" ?>
<svg height="140" width="140" xmlns="http://www.w3.org/2000/svg">
  <path d="M 39.13066530227661, 67.06416702270508 Q 37.91526350641586, 66.51002098049041, 34.613312232758574, 66.03967043770764 " fill="none" id="curve_1" stroke="#000000" stroke-linecap="round" stroke-linejoin="round" stroke-width="6.12903502483839"/>
  <path d="M 34.613312232758574, 66.03967043770764 Q 54.4538877512872, 66.23635104275084, 55.52217650574376, 77.83875891249372 " fill="none" id="curve_1" stroke="#000000" stroke-linecap="round" stroke-linejoin="round" stroke-width="4.328489569602688"/>
  <path d="M 55.52217650574376, 77.83875891249372 Q 47.96040750305249, 84.47572492382515, 35.1476582899914, 99.49947686812428 " fill="none" id="curve_1" stroke="#000000" stroke-linecap="round" stroke-linejoin="round" stroke-width="5.353406308883097"/>
  <path d="M 35.1476582899914, 99.49947686812428 Q 35.955536018653426, 101.14654679018244, 40.76530207919171, 101.69519806301822 " fill="none" id="curve_1" stroke="#000000" stroke-linecap="round" stroke-linejoin="round" stroke-width="4.9655487015309046"/>
  <path d="M 40.76530207919171, 101.69519806301822 Q 48.37221325946868, 98.87479378224155, 68.40883992936159, 96.95447641243499 " fill="none" id="curve_1" stroke="#000000" stroke-linecap="round" stroke-linejoin="round" stroke-width="4.922055933778226"/>
  <path d="M 68.40883992936159, 96.95447641243499 Q 69.59656111397122, 97.53823115644772, 70.97464030464832, 98.2528357261989 " fill="none" id="curve_1" stroke="#000000" stroke-linecap="round" stroke-linejoin="round" stroke-width="3.655421155447276"/>
  <path d="M 53.639416090892546, 73.08013982326024 Q 52.67860449308133, 84.9843524354038, 41.05665382289256, 88.47788718474453 " fill="none" id="curve_2" stroke="#000000" stroke-linecap="round" stroke-linejoin="round" stroke-width="2.7607783921651197"/>
  <path d="M 45.06056029513042, 67.05061156233056 Q 45.31866113864431, 66.26214126559333, 49.271377746760685, 66.12309046642898 " fill="none" id="curve_3" stroke="#000000" stroke-linecap="round" stroke-linejoin="round" stroke-width="3.5253140275690744"/>
  <path d="M 37.2456644041867, 68.76961093135239 Q 36.82899966467438, 69.4322294397882, 36.1634100069159, 70.22985781508072 " fill="none" id="curve_4" stroke="#000000" stroke-linecap="round" stroke-linejoin="round" stroke-width="3.427718549352997"/>
  <path d="M 36.92644674752403, 96.11851045941219 Q 37.60758281724937, 95.54738617474938, 38.57625704999995, 94.40915749294808 " fill="none" id="curve_6" stroke="#000000" stroke-linecap="round" stroke-linejoin="round" stroke-width="3.517984767317421"/>
  <path d="M 48.62640611275332, 66.01447602929868 Q 46.68587302564593, 65.47114058786772, 40.46972434096597, 64.95981410408363 " fill="none" id="curve_8" stroke="#000000" stroke-linecap="round" stroke-linejoin="round" stroke-width="3.093410473981817"/>
  <path d="M 39.65491836747391, 92.2859180223644 Q 38.216690468205, 92.81674892125247, 37.69181958264861, 96.33640048560065 " fill="none" id="curve_23" stroke="#000000" stroke-linecap="round" stroke-linejoin="round" stroke-width="4.327723781482434"/>
  <path d="M 37.69181958264861, 96.33640048560065 Q 37.95123376503974, 99.5323514242415, 40.58318338492058, 100.21155350111107 " fill="none" id="curve_23" stroke="#000000" stroke-linecap="round" stroke-linejoin="round" stroke-width="4.309667750397314"/>
  <path d="M 52.72402835465159, 80.54356404810585 Q 49.220636035420235, 81.95010177194712, 46.04095796555999, 85.00225001533056 " fill="none" id="curve_24" stroke="#000000" stroke-linecap="round" stroke-linejoin="round" stroke-width="3.439771937074075"/>
  <path d="M 55.8592525959193, 97.1761354930803 Q 53.97628999914604, 97.92096197115092, 49.10891159855967, 98.73303890653854 " fill="none" id="curve_25" stroke="#000000" stroke-linecap="round" stroke-linejoin="round" stroke-width="3.317493580401371"/>
  <path d="M 50.38306050702272, 67.5544754903808 Q 50.26256435834866, 66.74168095736306, 49.89245333248243, 65.65095024164394 " fill="none" id="curve_53" stroke="#000000" stroke-linecap="round" stroke-linejoin="round" stroke-width="2.3895139351647776"/>
  <path d="M 34.60044516225224, 97.51173759346997 Q 35.62322375909321, 97.24970965457712, 36.937068761546755, 96.74400742586808 " fill="none" id="curve_69" stroke="#000000" stroke-linecap="round" stroke-linejoin="round" stroke-width="3.007863004972057"/>
</svg>
