<?xml version="1.0" ?>
<svg height="140" width="140" xmlns="http://www.w3.org/2000/svg">
  <path d="M 61.45137691497803, 46.600521087646484 Q 62.506142746584445, 46.805625025591304, 62.97044864396095, 48.662762984563614 " fill="none" id="curve_1" stroke="#000000" stroke-linecap="round" stroke-linejoin="round" stroke-width="6.515046336378809"/>
  <path d="M 62.97044864396095, 48.662762984563614 Q 59.27542882317569, 56.60065066551826, 44.44982435184782, 69.08109896731511 " fill="none" id="curve_1" stroke="#000000" stroke-linecap="round" stroke-linejoin="round" stroke-width="3.831172453343961"/>
  <path d="M 44.44982435184782, 69.08109896731511 Q 38.05553695953059, 74.06740113675686, 18.712444512583478, 91.77933082560486 " fill="none" id="curve_1" stroke="#000000" stroke-linecap="round" stroke-linejoin="round" stroke-width="4.516729801135909"/>
  <path d="M 18.712444512583478, 91.77933082560486 Q 11.282203044404318, 97.99540294793007, 2.027188751716519, 111.84689555991257 " fill="none" id="curve_1" stroke="#000000" stroke-linecap="round" stroke-linejoin="round" stroke-width="4.9038691220563795"/>
  <path d="M 2.027188751716519, 111.84689555991257 Q 2.25471355723933, 118.10280027198166, 12.354764738493843, 118.38208497029042 " fill="none" id="curve_1" stroke="#000000" stroke-linecap="round" stroke-linejoin="round" stroke-width="5.244679838489913"/>
  <path d="M 12.354764738493843, 118.38208497029042 Q 17.174211156087196, 118.8638809729487, 29.326047525515968, 119.08224809270284 " fill="none" id="curve_1" stroke="#000000" stroke-linecap="round" stroke-linejoin="round" stroke-width="5.551356094432756"/>
  <path d="M 29.326047525515968, 119.08224809270284 Q 42.420847550729995, 117.59550360529245, 58.26935846285716, 115.99292489178545 " fill="none" id="curve_1" stroke="#000000" stroke-linecap="round" stroke-linejoin="round" stroke-width="6.308865183316979"/>
  <path d="M 58.26935846285716, 115.99292489178545 Q 58.66763722681228, 118.81952909170725, 60.213315679298006, 119.75598134575446 " fill="none" id="curve_1" stroke="#000000" stroke-linecap="round" stroke-linejoin="round" stroke-width="4.782875786886885"/>
  <path d="M 16.625409243209493, 60.24026667488286 Q 21.740241818644336, 53.50541144120011, 48.991633362074325, 46.47457173089079 " fill="none" id="curve_3" stroke="#000000" stroke-linecap="round" stroke-linejoin="round" stroke-width="5.029660483401607"/>
  <path d="M 48.991633362074325, 46.47457173089079 Q 54.46684179425793, 46.13469651311395, 61.939610151498584, 45.769651378760805 " fill="none" id="curve_3" stroke="#000000" stroke-linecap="round" stroke-linejoin="round" stroke-width="5.8008538620803725"/>
  <path d="M 61.939610151498584, 45.769651378760805 Q 50.872251323622294, 47.28805940982388, 38.62448150483752, 50.230468727567484 " fill="none" id="curve_3" stroke="#000000" stroke-linecap="round" stroke-linejoin="round" stroke-width="2.9975460163976813"/>
  <path d="M 40.63665730093342, 71.82035980098522 Q 32.845396128179274, 76.18374224103732, 25.006252141998353, 85.83470481370897 " fill="none" id="curve_4" stroke="#000000" stroke-linecap="round" stroke-linejoin="round" stroke-width="2.9803569548410764"/>
  <path d="M 46.4825443861083, 115.73325668497955 Q 47.15845048767565, 114.79278687503651, 52.559007155215994, 114.55057295331288 " fill="none" id="curve_5" stroke="#000000" stroke-linecap="round" stroke-linejoin="round" stroke-width="3.063483952080283"/>
  <path d="M 20.267162815340452, 117.64527273901027 Q 18.40056849768724, 117.1478476756701, 5.6187447533746795, 116.97508751902667 " fill="none" id="curve_8" stroke="#000000" stroke-linecap="round" stroke-linejoin="round" stroke-width="2.8236209506050995"/>
  <path d="M 3.270753627948803, 109.87001147296698 Q 8.307468144199717, 98.76618734471083, 24.88297540629414, 87.04611925852588 " fill="none" id="curve_9" stroke="#000000" stroke-linecap="round" stroke-linejoin="round" stroke-width="2.2748732009578685"/>
  <path d="M 15.912745316413355, 59.89887577176692 Q 16.99169745311664, 58.273092137360656, 19.337560241422157, 56.48100838511185 " fill="none" id="curve_10" stroke="#000000" stroke-linecap="round" stroke-linejoin="round" stroke-width="3.0107993982013794"/>
  <path d="M 56.305335317135835, 57.37699568830608 Q 57.24828635513409, 53.23498126091887, 61.34332365640189, 50.77902745459659 " fill="none" id="curve_14" stroke="#000000" stroke-linecap="round" stroke-linejoin="round" stroke-width="3.0914693418821306"/>
  <path d="M 41.10663680263248, 48.226205086380965 Q 32.15572668815988, 50.40162751553279, 23.703006075784327, 55.046601166111905 " fill="none" id="curve_15" stroke="#000000" stroke-linecap="round" stroke-linejoin="round" stroke-width="3.1211881107267394"/>
  <path d="M 3.071489592713083, 115.98484935347244 Q 3.4585145282338106, 116.17064548052791, 4.292149853154654, 116.53942532329096 " fill="none" id="curve_24" stroke="#000000" stroke-linecap="round" stroke-linejoin="round" stroke-width="2.76327847673374"/>
  <path d="M 4.191040618846092, 116.77191234930993 Q 3.647192778724893, 115.46379611117834, 3.275879751496729, 110.0646452026928 " fill="none" id="curve_31" stroke="#000000" stroke-linecap="round" stroke-linejoin="round" stroke-width="2.7010644954946543"/>
  <path d="M 43.57413342170517, 115.53244117843752 Q 57.021448014083795, 116.7152052684896, 62.30811300893776, 120.53361844513883 " fill="none" id="curve_32" stroke="#000000" stroke-linecap="round" stroke-linejoin="round" stroke-width="2.745388047894647"/>
  <path d="M 37.319560899324564, 74.08757314879483 Q 35.64331774210567, 79.91002872307408, 26.919818014188824, 84.60762285391635 " fill="none" id="curve_36" stroke="#000000" stroke-linecap="round" stroke-linejoin="round" stroke-width="2.5078700088021644"/>
  <path d="M 26.919818014188824, 84.60762285391635 Q 22.23875302948013, 87.90051731538146, 15.11749555403317, 92.62078690459576 " fill="none" id="curve_36" stroke="#000000" stroke-linecap="round" stroke-linejoin="round" stroke-width="2.557382849467744"/>
  <path d="M 50.321510690623896, 115.6268251704364 Q 38.12795634546164, 116.37311463476803, 29.168360220984116, 118.92193089785248 " fill="none" id="curve_38" stroke="#000000" stroke-linecap="round" stroke-linejoin="round" stroke-width="2.8976614732950003"/>
  <path d="M 41.16623288138723, 71.81666734081053 Q 40.91879749175024, 70.73913160724716, 39.98987308156363, 69.87873900497257 " fill="none" id="curve_40" stroke="#000000" stroke-linecap="round" stroke-linejoin="round" stroke-width="2.9989253473292847"/>
  <path d="M 30.153436325126076, 52.79887440719642 Q 40.47661821329923, 48.94872226637111, 58.302015428089334, 43.98790492328038 " fill="none" id="curve_45" stroke="#000000" stroke-linecap="round" stroke-linejoin="round" stroke-width="2.6028523447427268"/>
  <path d="M 6.521676600310215, 117.36329969756925 Q 4.4780706864512485, 117.02972760474451, 2.7301679082219783, 116.32638443602535 " fill="none" id="curve_68" stroke="#000000" stroke-linecap="round" stroke-linejoin="round" stroke-width="3.9664677648204196"/>
  <path d="M 44.82352542877197, 113.2727165222168 Q 50.2147200597634, 116.1992083630571, 58.06653372716187, 119.7654767224854 " fill="none" id="curve_82" stroke="#000000" stroke-linecap="round" stroke-linejoin="round" stroke-width="2.3657030805389785"/>
  <path d="M 4.5104013169897925, 107.63556863519688 Q 4.726192822659, 105.81736564270308, 5.380522566950366, 104.54837093853119 " fill="none" id="curve_84" stroke="#000000" stroke-linecap="round" stroke-linejoin="round" stroke-width="3.574338531369127"/>
  <path d="M 53.18215351352267, 45.96733185878133 Q 40.77034046656592, 47.03300038500413, 32.93885081955281, 52.06945561077744 " fill="none" id="curve_132" stroke="#000000" stroke-linecap="round" stroke-linejoin="round" stroke-width="3.406516361158472"/>
</svg>
