<?xml version="1.0" ?>
<svg height="140" width="140" xmlns="http://www.w3.org/2000/svg">
  <path d="M 64.45199584960938, 104.28695297241211 Q 65.13091213923742, 102.9786024856426, 67.87340345340556, 102.22895867145654 " fill="none" id="curve_1" stroke="#000000" stroke-linecap="round" stroke-linejoin="round" stroke-width="5.098630546918659"/>
  <path d="M 67.87340345340556, 102.22895867145654 Q 62.41164774514204, 104.99220768113788, 41.909082234834585, 108.10164419233351 " fill="none" id="curve_1" stroke="#000000" stroke-linecap="round" stroke-linejoin="round" stroke-width="5.708654837164359"/>
  <path d="M 41.909082234834585, 108.10164419233351 Q 32.32874892161952, 107.59873672416295, 29.96242031212202, 104.01660638059191 " fill="none" id="curve_1" stroke="#000000" stroke-linecap="round" stroke-linejoin="round" stroke-width="5.592809306741381"/>
  <path d="M 29.96242031212202, 104.01660638059191 Q 32.095827215010786, 89.30647687161961, 44.357906930774746, 75.9268763023941 " fill="none" id="curve_1" stroke="#000000" stroke-linecap="round" stroke-linejoin="round" stroke-width="5.9941456955268695"/>
  <path d="M 44.357906930774746, 75.9268763023941 Q 46.856798467510565, 73.4743359887346, 47.55497215538548, 58.808071146102854 " fill="none" id="curve_1" stroke="#000000" stroke-linecap="round" stroke-linejoin="round" stroke-width="6.202961290117414"/>
  <path d="M 47.55497215538548, 58.808071146102854 Q 46.220070606219416, 55.025833767722446, 42.02932528798331, 52.9828400262179 " fill="none" id="curve_1" stroke="#000000" stroke-linecap="round" stroke-linejoin="round" stroke-width="5.6753594157596305"/>
  <path d="M 42.02932528798331, 52.9828400262179 Q 26.483549907424944, 54.2389013529431, 22.63474882403744, 63.99058158677027 " fill="none" id="curve_1" stroke="#000000" stroke-linecap="round" stroke-linejoin="round" stroke-width="5.664819255941265"/>
  <path d="M 22.63474882403744, 63.99058158677027 Q 22.830757911190833, 68.11881708905821, 24.33356257776078, 68.88720735677855 " fill="none" id="curve_1" stroke="#000000" stroke-linecap="round" stroke-linejoin="round" stroke-width="3.817816609804533"/>
  <path d="M 45.095000652440305, 73.67218996760397 Q 40.70436651277452, 85.52426495815368, 27.344201394678073, 97.18033523655083 " fill="none" id="curve_2" stroke="#000000" stroke-linecap="round" stroke-linejoin="round" stroke-width="3.29917446946109"/>
  <path d="M 42.41471693154263, 76.70462863043028 Q 43.068242436437245, 72.09911149640165, 46.26934341525942, 70.24943353457455 " fill="none" id="curve_3" stroke="#000000" stroke-linecap="round" stroke-linejoin="round" stroke-width="3.573384177624339"/>
  <path d="M 38.42013570157166, 108.25222611097355 Q 38.32237883967487, 108.80215707697383, 37.72072329906454, 108.96840055184887 " fill="none" id="curve_10" stroke="#000000" stroke-linecap="round" stroke-linejoin="round" stroke-width="5.577224005661849"/>
  <path d="M 47.23516216235403, 62.20343463632362 Q 44.2091741360818, 61.63833732553593, 43.649607401179615, 53.60881371351684 " fill="none" id="curve_13" stroke="#000000" stroke-linecap="round" stroke-linejoin="round" stroke-width="3.7421897503342105"/>
  <path d="M 43.649607401179615, 53.60881371351684 Q 39.875639248181905, 53.39359327954547, 32.011696133518406, 53.066817408579894 " fill="none" id="curve_13" stroke="#000000" stroke-linecap="round" stroke-linejoin="round" stroke-width="3.127517363194507"/>
  <path d="M 41.021128396572976, 109.92811745541196 Q 36.48970272504772, 108.29442554943316, 31.613779749779443, 105.44396927114057 " fill="none" id="curve_29" stroke="#000000" stroke-linecap="round" stroke-linejoin="round" stroke-width="3.6739543666260674"/>
  <path d="M 37.19238495196275, 107.26957678753942 Q 35.078602421119804, 106.32204564790985, 30.706057414373852, 105.67642523314629 " fill="none" id="curve_124" stroke="#000000" stroke-linecap="round" stroke-linejoin="round" stroke-width="5.03938342094524"/>
</svg>
