<?xml version="1.0" ?>
<svg height="140" width="140" xmlns="http://www.w3.org/2000/svg">
  <path d="M 42.846126556396484, 84.96347618103027 Q 44.10022737860679, 84.11955848446652, 51.96717493211372, 83.74739441565055 " fill="none" id="curve_1" stroke="#000000" stroke-linecap="round" stroke-linejoin="round" stroke-width="6.764742648734485"/>
  <path d="M 42.259817752856904, 84.60310021202649 Q 33.196827425322184, 83.4762653321957, 27.27395817747464, 80.40139972601659 " fill="none" id="curve_2" stroke="#000000" stroke-linecap="round" stroke-linejoin="round" stroke-width="7.800223073049812"/>
  <path d="M 27.27395817747464, 80.40139972601659 Q 29.610860218916862, 69.99127512294308, 44.95532051881564, 62.5319903405556 " fill="none" id="curve_2" stroke="#000000" stroke-linecap="round" stroke-linejoin="round" stroke-width="6.529030938614331"/>
  <path d="M 44.95532051881564, 62.5319903405556 Q 57.09189650615551, 57.3326804122423, 69.12655036979038, 44.196525809967994 " fill="none" id="curve_2" stroke="#000000" stroke-linecap="round" stroke-linejoin="round" stroke-width="5.596908731512065"/>
  <path d="M 69.12655036979038, 44.196525809967994 Q 68.3036002631051, 40.16513951070448, 62.398786258892514, 38.90793666189451 " fill="none" id="curve_2" stroke="#000000" stroke-linecap="round" stroke-linejoin="round" stroke-width="4.89504236473417"/>
  <path d="M 62.398786258892514, 38.90793666189451 Q 42.31171790449781, 39.27794300290962, 29.183758608691697, 41.845019373297355 " fill="none" id="curve_2" stroke="#000000" stroke-linecap="round" stroke-linejoin="round" stroke-width="4.874597576036364"/>
  <path d="M 29.183758608691697, 41.845019373297355 Q 24.011618960226002, 42.398627492606984, 21.736823210699583, 44.226416024808444 " fill="none" id="curve_2" stroke="#000000" stroke-linecap="round" stroke-linejoin="round" stroke-width="3.83512599916978"/>
  <path d="M 43.396549135790245, 84.01218948597037 Q 44.80309036916758, 85.65040651658178, 49.60311829351362, 86.50514419631452 " fill="none" id="curve_3" stroke="#000000" stroke-linecap="round" stroke-linejoin="round" stroke-width="3.722969178347527"/>
  <path d="M 89.56482538492105, 90.08108761320116 Q 89.65209537703605, 98.56258162936012, 89.92760852794106, 125.1141027256742 " fill="none" id="curve_4" stroke="#000000" stroke-linecap="round" stroke-linejoin="round" stroke-width="1.7813316128090269"/>
  <path d="M 89.92760852794106, 125.1141027256742 Q 89.7523021369909, 131.45094801079267, 89.52036193959229, 138.61895784816457 " fill="none" id="curve_4" stroke="#000000" stroke-linecap="round" stroke-linejoin="round" stroke-width="2.358353028523519"/>
  <path d="M 89.9468714326333, 74.1298926222005 Q 89.64147316143386, 73.37058464918823, 89.49183077640102, 69.28881009654914 " fill="none" id="curve_9" stroke="#000000" stroke-linecap="round" stroke-linejoin="round" stroke-width="1.7380006806961252"/>
  <path d="M 63.28057095933845, 51.92758713122032 Q 64.98208343004325, 50.07061331739996, 68.29312880547751, 48.46012287745793 " fill="none" id="curve_12" stroke="#000000" stroke-linecap="round" stroke-linejoin="round" stroke-width="2.688206727348224"/>
  <path d="M 65.09625222985147, 45.83693427708114 Q 65.1170060758453, 40.761787615410476, 66.00551642901168, 40.27216086004669 " fill="none" id="curve_13" stroke="#000000" stroke-linecap="round" stroke-linejoin="round" stroke-width="3.075554856978899"/>
  <path d="M 57.64761215501395, 52.14514478167914 Q 54.3906664477281, 53.14805669786661, 52.82557410946669, 55.89377586015489 " fill="none" id="curve_14" stroke="#000000" stroke-linecap="round" stroke-linejoin="round" stroke-width="3.030696401616869"/>
  <path d="M 34.373534110665815, 79.80589593487618 Q 38.02763167384958, 81.13317125743002, 42.589670943201696, 82.75867461952768 " fill="none" id="curve_15" stroke="#000000" stroke-linecap="round" stroke-linejoin="round" stroke-width="1.725347812456231"/>
  <path d="M 23.668117564214317, 78.85108560986245 Q 25.116731157643464, 76.001813100896, 28.500062701860426, 72.53852405028397 " fill="none" id="curve_16" stroke="#000000" stroke-linecap="round" stroke-linejoin="round" stroke-width="2.37773654921699"/>
  <path d="M 47.73187295587529, 82.78884912953156 Q 47.580480279716326, 82.71509877291506, 47.406135264542996, 82.61357559161345 " fill="none" id="curve_17" stroke="#000000" stroke-linecap="round" stroke-linejoin="round" stroke-width="4.332352512867633"/>
  <path d="M 67.29362525625135, 39.31292152936596 Q 67.45538969660254, 39.21383501026674, 67.64257869843671, 38.99401206779639 " fill="none" id="curve_19" stroke="#000000" stroke-linecap="round" stroke-linejoin="round" stroke-width="3.1488182041931077"/>
  <path d="M 89.34676625208444, 7.625983386592374 Q 89.41823608477878, 4.509442093289277, 89.54479139588801, 0.703663752364502 " fill="none" id="curve_20" stroke="#000000" stroke-linecap="round" stroke-linejoin="round" stroke-width="1.9480217228188403"/>
  <path d="M 59.253094597196025, 38.73676827927089 Q 58.32994789485712, 37.91898376593062, 48.92287454832568, 37.67621239303913 " fill="none" id="curve_21" stroke="#000000" stroke-linecap="round" stroke-linejoin="round" stroke-width="2.959459411650023"/>
  <path d="M 45.88165468603383, 61.529365403831626 Q 44.59940846065269, 61.48272463485653, 42.80784863954677, 61.389352444752376 " fill="none" id="curve_22" stroke="#000000" stroke-linecap="round" stroke-linejoin="round" stroke-width="3.7746843320024404"/>
  <path d="M 40.62720528090841, 38.61597482133364 Q 40.59483824836589, 38.45984982742601, 40.5097936201369, 38.23344837773727 " fill="none" id="curve_78" stroke="#000000" stroke-linecap="round" stroke-linejoin="round" stroke-width="2.3562702982650294"/>
  <path d="M 30.61903106413919, 71.394925314963 Q 35.649231868150665, 69.80350183208579, 40.95040592960241, 66.72892596127284 " fill="none" id="curve_121" stroke="#000000" stroke-linecap="round" stroke-linejoin="round" stroke-width="2.878371502420416"/>
</svg>
