<?xml version="1.0" ?>
<svg height="140" width="140" xmlns="http://www.w3.org/2000/svg">
  <path d="M 32.60208511352539, 99.70652937889099 Q 32.62557243900974, 94.90056992309594, 32.78749206657582, 92.83037427582912 " fill="none" id="curve_1" stroke="#000000" stroke-linecap="round" stroke-linejoin="round" stroke-width="7.331387109078501"/>
  <path d="M 32.78749206657582, 92.83037427582912 Q 36.11491859537751, 84.17386149804598, 46.97983066283761, 68.26629684583473 " fill="none" id="curve_1" stroke="#000000" stroke-linecap="round" stroke-linejoin="round" stroke-width="5.189456544074731"/>
  <path d="M 46.97983066283761, 68.26629684583473 Q 52.92267282072616, 62.266071819875634, 64.87295531618284, 40.9986616874607 " fill="none" id="curve_1" stroke="#000000" stroke-linecap="round" stroke-linejoin="round" stroke-width="4.242786557267826"/>
  <path d="M 64.87295531618284, 40.9986616874607 Q 65.43604259481954, 39.09062765711501, 65.7356054507382, 32.72060143436711 " fill="none" id="curve_1" stroke="#000000" stroke-linecap="round" stroke-linejoin="round" stroke-width="3.6574073026713387"/>
  <path d="M 65.7356054507382, 32.72060143436711 Q 53.689150041276896, 34.16429508028086, 37.95909345353682, 45.42696627216905 " fill="none" id="curve_1" stroke="#000000" stroke-linecap="round" stroke-linejoin="round" stroke-width="4.103183198898872"/>
  <path d="M 37.95909345353682, 45.42696627216905 Q 34.819173363564886, 47.99581084509733, 32.32450101454224, 51.7728547384461 " fill="none" id="curve_1" stroke="#000000" stroke-linecap="round" stroke-linejoin="round" stroke-width="3.8578254175267994"/>
  <path d="M 32.32450101454224, 51.7728547384461 Q 34.70944885223917, 45.29961543997695, 42.52494127063533, 41.4402888805737 " fill="none" id="curve_1" stroke="#000000" stroke-linecap="round" stroke-linejoin="round" stroke-width="2.3668540877806596"/>
  <path d="M 66.76761388264326, 36.75340457479132 Q 66.74700931020864, 36.851853656557694, 66.73207964200513, 37.12721604850863 " fill="none" id="curve_2" stroke="#000000" stroke-linecap="round" stroke-linejoin="round" stroke-width="4.159577281250253"/>
  <path d="M 85.0212562026246, 88.23203429934742 Q 77.69846579463949, 91.52367882841892, 53.484049126625195, 98.78026846530142 " fill="none" id="curve_4" stroke="#000000" stroke-linecap="round" stroke-linejoin="round" stroke-width="4.3558678286098695"/>
  <path d="M 53.484049126625195, 98.78026846530142 Q 50.92575648350336, 100.75631205241345, 35.28887504994472, 101.18019408311373 " fill="none" id="curve_4" stroke="#000000" stroke-linecap="round" stroke-linejoin="round" stroke-width="5.318474462323078"/>
  <path d="M 35.28887504994472, 101.18019408311373 Q 33.753724374538464, 98.74119672918499, 31.177237846768968, 96.88205149086308 " fill="none" id="curve_4" stroke="#000000" stroke-linecap="round" stroke-linejoin="round" stroke-width="4.315061424713434"/>
  <path d="M 49.001137229130954, 99.41547039508993 Q 59.65723608788499, 97.81615553137112, 66.4225247325094, 93.96616316973066 " fill="none" id="curve_5" stroke="#000000" stroke-linecap="round" stroke-linejoin="round" stroke-width="3.247720332938379"/>
  <path d="M 66.4225247325094, 93.96616316973066 Q 59.38255552087405, 97.04525891167874, 44.284461390047525, 100.87448673260121 " fill="none" id="curve_5" stroke="#000000" stroke-linecap="round" stroke-linejoin="round" stroke-width="2.5714639619279374"/>
  <path d="M 44.284461390047525, 100.87448673260121 Q 52.27359485698882, 98.52078292461788, 64.05108337398475, 95.97316673174242 " fill="none" id="curve_5" stroke="#000000" stroke-linecap="round" stroke-linejoin="round" stroke-width="3.158612299291389"/>
  <path d="M 87.16103882477218, 88.51176170482695 Q 86.94674231860093, 88.46709008516001, 86.66769657056513, 88.39057657889418 " fill="none" id="curve_6" stroke="#000000" stroke-linecap="round" stroke-linejoin="round" stroke-width="2.7846520951223246"/>
  <path d="M 61.309812288428425, 46.34942681508289 Q 63.94621050425044, 41.92600567130546, 67.52904366632569, 35.353949674375 " fill="none" id="curve_8" stroke="#000000" stroke-linecap="round" stroke-linejoin="round" stroke-width="2.4490220072431135"/>
  <path d="M 59.964043122659504, 32.94234048230482 Q 53.38597946980169, 34.66738826633605, 48.14366921333248, 38.617048015797295 " fill="none" id="curve_9" stroke="#000000" stroke-linecap="round" stroke-linejoin="round" stroke-width="2.4312497518366976"/>
  <path d="M 56.83992278763714, 52.14677608048953 Q 60.67593321028846, 46.50962124817895, 66.88069122228345, 38.93313126386838 " fill="none" id="curve_10" stroke="#000000" stroke-linecap="round" stroke-linejoin="round" stroke-width="2.484341208877882"/>
  <path d="M 49.53212757283673, 64.95367714051467 Q 47.627142674113166, 65.4777701528884, 45.62433470654565, 66.89048194090216 " fill="none" id="curve_11" stroke="#000000" stroke-linecap="round" stroke-linejoin="round" stroke-width="2.773743573917267"/>
  <path d="M 45.278970123400555, 100.23663414966839 Q 57.425141531670135, 98.535221194063, 66.82302224991284, 94.30972187015333 " fill="none" id="curve_13" stroke="#000000" stroke-linecap="round" stroke-linejoin="round" stroke-width="2.892888864042193"/>
  <path d="M 66.82302224991284, 94.30972187015333 Q 60.78468315815304, 98.26014497171947, 42.07089700594008, 100.7410607510694 " fill="none" id="curve_13" stroke="#000000" stroke-linecap="round" stroke-linejoin="round" stroke-width="3.6272298641019756"/>
  <path d="M 45.05056830958628, 100.12588866524447 Q 43.903734038648324, 100.09320648141055, 41.15336763547387, 100.04423924674931 " fill="none" id="curve_28" stroke="#000000" stroke-linecap="round" stroke-linejoin="round" stroke-width="2.91795825230988"/>
  <path d="M 79.34200601917405, 90.58865235766888 Q 69.01614751990854, 91.69711818939871, 60.958174019221886, 96.08602809712386 " fill="none" id="curve_56" stroke="#000000" stroke-linecap="round" stroke-linejoin="round" stroke-width="3.135786326402534"/>
  <path d="M 60.958174019221886, 96.08602809712386 Q 52.70032906937769, 97.77462636744356, 40.91574252602695, 100.19161404148508 " fill="none" id="curve_56" stroke="#000000" stroke-linecap="round" stroke-linejoin="round" stroke-width="2.984986627557071"/>
  <path d="M 40.91574252602695, 100.19161404148508 Q 36.71262449058787, 99.46577956307021, 32.18086542600929, 98.49107393509087 " fill="none" id="curve_56" stroke="#000000" stroke-linecap="round" stroke-linejoin="round" stroke-width="4.75684958406387"/>
  <path d="M 61.68020239616281, 43.801483378830454 Q 60.442752631878044, 47.1601650229078, 57.54980322440184, 50.39227076543577 " fill="none" id="curve_74" stroke="#000000" stroke-linecap="round" stroke-linejoin="round" stroke-width="2.6144110612291294"/>
  <path d="M 64.98567843725004, 94.13082380745054 Q 61.37893994910567, 95.28817386603367, 58.379689472686884, 98.14291599401206 " fill="none" id="curve_128" stroke="#000000" stroke-linecap="round" stroke-linejoin="round" stroke-width="3.125368469107138"/>
</svg>
