<?xml version="1.0" ?>
<svg height="140" width="140" xmlns="http://www.w3.org/2000/svg">
  <path d="M 18.781911368424858, 94.05808898895157 Q 18.776426555891323, 103.00562664413508, 18.756678000724538, 108.46280082462573 " fill="none" id="curve_2" stroke="#000000" stroke-linecap="round" stroke-linejoin="round" stroke-width="3.320156864876097"/>
  <path d="M 18.756678000724538, 108.46280082462573 Q 25.78851640581974, 106.93545321575789, 29.029757798013854, 100.57246745265589 " fill="none" id="curve_2" stroke="#000000" stroke-linecap="round" stroke-linejoin="round" stroke-width="2.452800264368817"/>
  <path d="M 33.12995779060361, 96.8235927258932 Q 30.955506139377487, 96.63391235272712, 30.73385341372598, 89.58674085411768 " fill="none" id="curve_3" stroke="#000000" stroke-linecap="round" stroke-linejoin="round" stroke-width="4.314298599269824"/>
  <path d="M 20.998345620800904, 92.19812755724445 Q 23.45167076083816, 91.15315954077667, 24.62853821102443, 88.6025439190783 " fill="none" id="curve_4" stroke="#000000" stroke-linecap="round" stroke-linejoin="round" stroke-width="4.650931839444367"/>
  <path d="M 35.845179753623306, 95.89255804075273 Q 38.316710814744496, 88.30625086129987, 43.152572723693496, 71.47934971375113 " fill="none" id="curve_5" stroke="#000000" stroke-linecap="round" stroke-linejoin="round" stroke-width="5.421297006712593"/>
  <path d="M 43.152572723693496, 71.47934971375113 Q 42.7845249595471, 56.719635903278544, 32.4064850303609, 55.03766552348935 " fill="none" id="curve_5" stroke="#000000" stroke-linecap="round" stroke-linejoin="round" stroke-width="6.480579807414383"/>
  <path d="M 32.4064850303609, 55.03766552348935 Q 29.219672083053258, 54.86852158362368, 27.151260613424327, 54.497365431324674 " fill="none" id="curve_5" stroke="#000000" stroke-linecap="round" stroke-linejoin="round" stroke-width="5.517024627045111"/>
  <path d="M 37.76503237254535, 99.04752686900443 Q 41.796497669242044, 104.09392795269488, 57.91033600974769, 105.72609543555356 " fill="none" id="curve_6" stroke="#000000" stroke-linecap="round" stroke-linejoin="round" stroke-width="4.701572873580124"/>
  <path d="M 89.90867389430937, 97.19825847212081 Q 89.82540033141552, 111.51830228672485, 89.53944916746957, 133.56927912984776 " fill="none" id="curve_7" stroke="#000000" stroke-linecap="round" stroke-linejoin="round" stroke-width="1.832334757237587"/>
  <path d="M 89.53944916746957, 133.56927912984776 Q 89.51255122753248, 137.1538774757873, 89.36513460778224, 138.2568632450991 " fill="none" id="curve_7" stroke="#000000" stroke-linecap="round" stroke-linejoin="round" stroke-width="2.4554907432789337"/>
  <path d="M 61.248365184543154, 104.8900861025796 Q 61.64604392152825, 104.8643994601771, 61.871231723866444, 104.75016242240258 " fill="none" id="curve_8" stroke="#000000" stroke-linecap="round" stroke-linejoin="round" stroke-width="3.2036020680088337"/>
  <path d="M 90.85034710598505, 95.36200961138032 Q 90.12460072042434, 94.68730030902213, 89.90425742704849, 88.688321045712 " fill="none" id="curve_9" stroke="#000000" stroke-linecap="round" stroke-linejoin="round" stroke-width="1.8429911404939705"/>
  <path d="M 89.90425742704849, 88.688321045712 Q 89.86507281282674, 83.13860136769675, 89.80714883080297, 72.90315425507109 " fill="none" id="curve_9" stroke="#000000" stroke-linecap="round" stroke-linejoin="round" stroke-width="1.778372361673272"/>
  <path d="M 89.80714883080297, 72.90315425507109 Q 89.81191662601971, 67.80148512613584, 89.8188711030789, 58.910437387176636 " fill="none" id="curve_9" stroke="#000000" stroke-linecap="round" stroke-linejoin="round" stroke-width="1.6955761431431209"/>
  <path d="M 89.8188711030789, 58.910437387176636 Q 89.74103423937228, 53.985172965244665, 89.6437511719625, 40.930759758518064 " fill="none" id="curve_9" stroke="#000000" stroke-linecap="round" stroke-linejoin="round" stroke-width="1.5323505888241142"/>
  <path d="M 89.6437511719625, 40.930759758518064 Q 89.64778216413514, 36.48370442072892, 89.65510630766477, 31.458790158767115 " fill="none" id="curve_9" stroke="#000000" stroke-linecap="round" stroke-linejoin="round" stroke-width="1.496752202484397"/>
  <path d="M 54.512389565683804, 105.1472604786482 Q 43.30210748210351, 104.32820822410376, 38.20642575861045, 97.99270084330617 " fill="none" id="curve_14" stroke="#000000" stroke-linecap="round" stroke-linejoin="round" stroke-width="4.50613488823945"/>
  <path d="M 38.20642575861045, 97.99270084330617 Q 44.35899896180385, 101.61722249021012, 50.39311215406673, 105.58767616429216 " fill="none" id="curve_14" stroke="#000000" stroke-linecap="round" stroke-linejoin="round" stroke-width="3.465589497337672"/>
  <path d="M 50.39311215406673, 105.58767616429216 Q 40.588641431851116, 105.0985411422143, 38.19885693271412, 100.06941328699577 " fill="none" id="curve_14" stroke="#000000" stroke-linecap="round" stroke-linejoin="round" stroke-width="2.558553035457922"/>
  <path d="M 41.702530894876965, 74.22128758150616 Q 40.944968819333695, 64.0496310939544, 37.066217314286575, 59.265817971504205 " fill="none" id="curve_15" stroke="#000000" stroke-linecap="round" stroke-linejoin="round" stroke-width="3.3751193744260095"/>
  <path d="M 42.92974466428867, 78.12634847786063 Q 41.8284519017509, 82.166262594569, 39.286387471350736, 86.79938635764987 " fill="none" id="curve_20" stroke="#000000" stroke-linecap="round" stroke-linejoin="round" stroke-width="3.0318251998665775"/>
  <path d="M 30.629332852620077, 99.68548445047907 Q 31.35020315017975, 98.12907528715684, 33.40110276190599, 96.65197746901624 " fill="none" id="curve_29" stroke="#000000" stroke-linecap="round" stroke-linejoin="round" stroke-width="2.047974401182118"/>
  <path d="M 38.22577478721932, 87.97141690175056 Q 37.47374227506231, 87.78393644095449, 36.00275897575793, 87.54820565012898 " fill="none" id="curve_32" stroke="#000000" stroke-linecap="round" stroke-linejoin="round" stroke-width="2.6491389197234416"/>
  <path d="M 21.34324654435995, 106.68630259541717 Q 18.991870673739992, 105.67134664509285, 17.002308149256116, 103.57909687339466 " fill="none" id="curve_33" stroke="#000000" stroke-linecap="round" stroke-linejoin="round" stroke-width="2.775390327317895"/>
  <path d="M 18.193467758723983, 100.0882302174742 Q 17.844347401989648, 100.05431704272668, 17.475781448797527, 99.98946683130652 " fill="none" id="curve_35" stroke="#000000" stroke-linecap="round" stroke-linejoin="round" stroke-width="3.1255474287478955"/>
  <path d="M 88.94738289308171, 4.538217422977709 Q 89.29449489942974, 3.441116352729998, 89.74727722713656, 1.3872514382712633 " fill="none" id="curve_50" stroke="#000000" stroke-linecap="round" stroke-linejoin="round" stroke-width="2.1273429777749056"/>
  <path d="M 60.13067656904356, 107.00324422631314 Q 53.0051512942661, 105.00413518209135, 39.57858404934021, 100.33664032240145 " fill="none" id="curve_53" stroke="#000000" stroke-linecap="round" stroke-linejoin="round" stroke-width="2.6681777537428246"/>
  <path d="M 39.57858404934021, 100.33664032240145 Q 47.48686744291493, 102.42744952267498, 55.21348931275305, 105.21004123218502 " fill="none" id="curve_53" stroke="#000000" stroke-linecap="round" stroke-linejoin="round" stroke-width="2.741785680671037"/>
  <path d="M 34.71949743500285, 92.69895556872267 Q 33.35252764560984, 92.87520139076673, 32.320169484586316, 93.38971710121372 " fill="none" id="curve_147" stroke="#000000" stroke-linecap="round" stroke-linejoin="round" stroke-width="3.0709012888752643"/>
  <path d="M 24.685032640006597, 88.53933730306659 Q 23.30465274325256, 88.93319722454426, 21.862530889889452, 90.10253876154026 " fill="none" id="curve_156" stroke="#000000" stroke-linecap="round" stroke-linejoin="round" stroke-width="2.6168963650173995"/>
</svg>
