<?xml version="1.0" ?>
<svg height="140" width="140" xmlns="http://www.w3.org/2000/svg">
  <path d="M 42.914671421051025, 18.385828495025635 Q 28.33945213486559, 19.165820270941634, 19.459536569853526, 27.360240523895868 " fill="none" id="curve_1" stroke="#000000" stroke-linecap="round" stroke-linejoin="round" stroke-width="5.112345479238843"/>
  <path d="M 19.459536569853526, 27.360240523895868 Q 18.413904672457164, 28.272486129544262, 17.984015082597338, 33.200492730269495 " fill="none" id="curve_1" stroke="#000000" stroke-linecap="round" stroke-linejoin="round" stroke-width="3.6417511278074715"/>
  <path d="M 15.488436123432308, 44.02141037606076 Q 15.544297039040726, 43.24293030017567, 15.588741435548503, 41.836933499437514 " fill="none" id="curve_2" stroke="#000000" stroke-linecap="round" stroke-linejoin="round" stroke-width="6.438473878945039"/>
  <path d="M 44.48794302188604, 21.649832876143364 Q 43.0071137580377, 37.69886422736067, 33.89421106557454, 59.910382836799705 " fill="none" id="curve_3" stroke="#000000" stroke-linecap="round" stroke-linejoin="round" stroke-width="4.811694948082027"/>
  <path d="M 33.89421106557454, 59.910382836799705 Q 31.874678977877657, 71.88991592929884, 26.082330453910956, 98.23258339209968 " fill="none" id="curve_3" stroke="#000000" stroke-linecap="round" stroke-linejoin="round" stroke-width="4.73226744966667"/>
  <path d="M 26.082330453910956, 98.23258339209968 Q 21.59437555401785, 106.97448883777562, 18.490630741287497, 124.69342470647086 " fill="none" id="curve_3" stroke="#000000" stroke-linecap="round" stroke-linejoin="round" stroke-width="4.376792217690846"/>
  <path d="M 18.490630741287497, 124.69342470647086 Q 35.94811977105646, 118.73444377545638, 57.41874991351148, 107.10506845472781 " fill="none" id="curve_3" stroke="#000000" stroke-linecap="round" stroke-linejoin="round" stroke-width="4.187906479222705"/>
  <path d="M 57.41874991351148, 107.10506845472781 Q 57.17247042073064, 106.69526140976426, 56.873509025718505, 106.00406651441281 " fill="none" id="curve_3" stroke="#000000" stroke-linecap="round" stroke-linejoin="round" stroke-width="3.862249722099655"/>
  <path d="M 22.464581465865905, 122.72866596523946 Q 31.053113223911453, 119.84462411455672, 41.149838913327415, 115.17422638249093 " fill="none" id="curve_4" stroke="#000000" stroke-linecap="round" stroke-linejoin="round" stroke-width="2.7300837501427764"/>
  <path d="M 39.67434795303248, 44.560422562752585 Q 40.905186516760864, 33.9262255111872, 43.08129838832941, 19.234485828730644 " fill="none" id="curve_7" stroke="#000000" stroke-linecap="round" stroke-linejoin="round" stroke-width="3.8715722697446178"/>
  <path d="M 43.08129838832941, 19.234485828730644 Q 22.368612730144733, 19.540328928652357, 19.370759924376266, 26.447252120063503 " fill="none" id="curve_7" stroke="#000000" stroke-linecap="round" stroke-linejoin="round" stroke-width="2.8017312429310555"/>
  <path d="M 35.6358330250168, 18.70869293333776 Q 33.92820481460265, 20.38050688088265, 30.009851553380123, 21.56427703266908 " fill="none" id="curve_8" stroke="#000000" stroke-linecap="round" stroke-linejoin="round" stroke-width="3.835781463987678"/>
  <path d="M 90.03327877363446, 1.4260027436060052 Q 89.8032255045659, 2.124469656125661, 89.2537383001525, 3.1291313308696083 " fill="none" id="curve_11" stroke="#000000" stroke-linecap="round" stroke-linejoin="round" stroke-width="2.051106748565765"/>
  <path d="M 41.18309682533471, 38.10819948500094 Q 39.823584403203085, 48.625803771049526, 34.94060720060787, 56.600104504308874 " fill="none" id="curve_17" stroke="#000000" stroke-linecap="round" stroke-linejoin="round" stroke-width="2.1436207428348264"/>
  <path d="M 31.32272551091242, 65.0223429967028 Q 30.139664854030855, 68.71188603575838, 29.446935994598885, 77.49686339372379 " fill="none" id="curve_33" stroke="#000000" stroke-linecap="round" stroke-linejoin="round" stroke-width="3.0295697933248054"/>
  <path d="M 37.449077009774065, 50.910086601233864 Q 38.752568878635465, 46.21252681111194, 40.70193989342128, 40.247192789035694 " fill="none" id="curve_34" stroke="#000000" stroke-linecap="round" stroke-linejoin="round" stroke-width="2.8941167883067282"/>
  <path d="M 21.563071841368235, 121.88052891856803 Q 31.909798054420765, 119.96260704979159, 41.5974070652986, 115.08073650792826 " fill="none" id="curve_45" stroke="#000000" stroke-linecap="round" stroke-linejoin="round" stroke-width="2.3096677724408368"/>
  <path d="M 41.27540397644043, 114.68476486206055 Q 33.37773491012001, 116.19956113458647, 26.1204429996651, 120.85417381083971 " fill="none" id="curve_59" stroke="#000000" stroke-linecap="round" stroke-linejoin="round" stroke-width="3.2496298739551346"/>
  <path d="M 26.701943822878523, 94.03306016626077 Q 29.802529967345265, 93.67063760047465, 30.112592281678854, 85.40997220363678 " fill="none" id="curve_60" stroke="#000000" stroke-linecap="round" stroke-linejoin="round" stroke-width="2.5776428937995326"/>
  <path d="M 30.112592281678854, 85.40997220363678 Q 29.841819160920178, 76.65639680907695, 28.104384900720092, 74.16132091648393 " fill="none" id="curve_60" stroke="#000000" stroke-linecap="round" stroke-linejoin="round" stroke-width="2.293590916301367"/>
  <path d="M 41.932264348259196, 114.08736426910036 Q 33.92209870593005, 115.72982849101889, 28.656919645491353, 120.89017121272873 " fill="none" id="curve_75" stroke="#000000" stroke-linecap="round" stroke-linejoin="round" stroke-width="2.583467945295473"/>
  <path d="M 39.111936358948554, 35.31182208631692 Q 39.72292509422009, 38.71506138435816, 40.75811205802305, 43.824109827934485 " fill="none" id="curve_143" stroke="#000000" stroke-linecap="round" stroke-linejoin="round" stroke-width="2.268322651344211"/>
</svg>
