<?xml version="1.0" ?>
<svg height="140" width="140" xmlns="http://www.w3.org/2000/svg">
  <path d="M 46.42517852783203, 61.04780578613281 Q 33.40479758702898, 62.188506190653136, 25.983817747100375, 72.89230734201817 " fill="none" id="curve_1" stroke="#000000" stroke-linecap="round" stroke-linejoin="round" stroke-width="5.530864393694357"/>
  <path d="M 32.15657360315624, 93.65548371810831 Q 32.80331840234204, 74.58113929495588, 45.74890498324936, 64.97409288688335 " fill="none" id="curve_2" stroke="#000000" stroke-linecap="round" stroke-linejoin="round" stroke-width="6.106732052300209"/>
  <path d="M 45.74890498324936, 64.97409288688335 Q 46.01715225774901, 61.53544164516307, 52.98561847265168, 61.21087580916448 " fill="none" id="curve_2" stroke="#000000" stroke-linecap="round" stroke-linejoin="round" stroke-width="6.246120416405999"/>
  <path d="M 52.98561847265168, 61.21087580916448 Q 50.87252330661507, 63.04003993140297, 49.41633684949857, 71.81100085835192 " fill="none" id="curve_2" stroke="#000000" stroke-linecap="round" stroke-linejoin="round" stroke-width="3.4432486144968983"/>
  <path d="M 56.02034847636823, 60.57154432143141 Q 65.57952969690633, 62.05532024346015, 68.00697858991275, 69.04614508200034 " fill="none" id="curve_3" stroke="#000000" stroke-linecap="round" stroke-linejoin="round" stroke-width="6.728135311636677"/>
  <path d="M 68.00697858991275, 69.04614508200034 Q 67.0748854416258, 82.77275211626021, 57.1944655750681, 95.22103558183471 " fill="none" id="curve_3" stroke="#000000" stroke-linecap="round" stroke-linejoin="round" stroke-width="4.081847384944161"/>
  <path d="M 57.1944655750681, 95.22103558183471 Q 54.65566372650209, 103.26361628137413, 44.260223632233114, 106.40936401500106 " fill="none" id="curve_3" stroke="#000000" stroke-linecap="round" stroke-linejoin="round" stroke-width="5.445089167501851"/>
  <path d="M 44.260223632233114, 106.40936401500106 Q 30.302977319170854, 106.18149257297492, 29.31969822749565, 95.08109992991723 " fill="none" id="curve_3" stroke="#000000" stroke-linecap="round" stroke-linejoin="round" stroke-width="5.701064203435591"/>
  <path d="M 29.31969822749565, 95.08109992991723 Q 30.057585733198415, 85.58718980329287, 33.09507176700963, 80.13398157675819 " fill="none" id="curve_3" stroke="#000000" stroke-linecap="round" stroke-linejoin="round" stroke-width="2.9911227201235993"/>
  <path d="M 25.962205863418536, 75.53906029229336 Q 26.65079063062822, 75.75643648215974, 26.89665451159127, 77.3826177433667 " fill="none" id="curve_4" stroke="#000000" stroke-linecap="round" stroke-linejoin="round" stroke-width="3.702115673784549"/>
  <path d="M 46.04724908980361, 60.059892195161396 Q 39.790809693772836, 63.33001062484789, 34.80057154727668, 76.53487341662625 " fill="none" id="curve_5" stroke="#000000" stroke-linecap="round" stroke-linejoin="round" stroke-width="3.38702876361367"/>
  <path d="M 89.02226435125684, 67.79943465485839 Q 89.24711193308977, 70.61209652904176, 89.40800852119916, 100.84451558491926 " fill="none" id="curve_7" stroke="#000000" stroke-linecap="round" stroke-linejoin="round" stroke-width="2.482041998596273"/>
  <path d="M 89.40800852119916, 100.84451558491926 Q 89.36989785432851, 108.28901862542266, 89.29668679011064, 126.03644277107331 " fill="none" id="curve_7" stroke="#000000" stroke-linecap="round" stroke-linejoin="round" stroke-width="2.0984637396645462"/>
  <path d="M 89.29668679011064, 126.03644277107331 Q 89.34399234867456, 134.40205694145467, 89.44676763521454, 139.12222514763016 " fill="none" id="curve_7" stroke="#000000" stroke-linecap="round" stroke-linejoin="round" stroke-width="2.243553863389557"/>
  <path d="M 66.73483325661793, 83.87474077157805 Q 67.93636236028621, 81.20115652495032, 69.42248222329698, 75.58029741970036 " fill="none" id="curve_10" stroke="#000000" stroke-linecap="round" stroke-linejoin="round" stroke-width="2.55725534406779"/>
  <path d="M 57.825222699086616, 63.08383257958372 Q 55.925476794243785, 63.22150663301508, 54.411254268140034, 63.537605123721534 " fill="none" id="curve_11" stroke="#000000" stroke-linecap="round" stroke-linejoin="round" stroke-width="1.9769271700944857"/>
  <path d="M 42.66612034208063, 59.84494124350472 Q 34.61221552091364, 61.64243299772279, 26.45334697887876, 68.25539783470765 " fill="none" id="curve_12" stroke="#000000" stroke-linecap="round" stroke-linejoin="round" stroke-width="2.9483987413389126"/>
  <path d="M 26.45334697887876, 68.25539783470765 Q 35.00472637774994, 67.43666804384162, 39.76471735822816, 64.5518556374415 " fill="none" id="curve_12" stroke="#000000" stroke-linecap="round" stroke-linejoin="round" stroke-width="2.6362353786462953"/>
  <path d="M 22.392616979175518, 135.993546132532 Q 22.654357515219107, 135.97565607194707, 22.808564908661417, 135.9175572304773 " fill="none" id="curve_16" stroke="#000000" stroke-linecap="round" stroke-linejoin="round" stroke-width="4.196637725667099"/>
  <path d="M 40.67446136076476, 104.75890630270658 Q 51.620169357743244, 103.33276495268346, 57.30940572947104, 98.11811959037708 " fill="none" id="curve_17" stroke="#000000" stroke-linecap="round" stroke-linejoin="round" stroke-width="2.3320604319037583"/>
  <path d="M 90.20773106388573, 65.9428285703454 Q 89.16576944959954, 65.57868972080901, 89.05446355459702, 50.223024387654284 " fill="none" id="curve_18" stroke="#000000" stroke-linecap="round" stroke-linejoin="round" stroke-width="2.2956648472695482"/>
  <path d="M 89.05446355459702, 50.223024387654284 Q 89.14914532218927, 43.760980469876046, 89.33589911588096, 30.905835240361412 " fill="none" id="curve_18" stroke="#000000" stroke-linecap="round" stroke-linejoin="round" stroke-width="2.072595997802185"/>
  <path d="M 89.33589911588096, 30.905835240361412 Q 89.3219647272809, 25.344862194510377, 89.29537678652531, 12.743344404976572 " fill="none" id="curve_18" stroke="#000000" stroke-linecap="round" stroke-linejoin="round" stroke-width="1.9746523132139904"/>
  <path d="M 89.29537678652531, 12.743344404976572 Q 89.18961332731521, 4.395795814165531, 88.58686160600718, 1.3551107264936366 " fill="none" id="curve_18" stroke="#000000" stroke-linecap="round" stroke-linejoin="round" stroke-width="2.774952178832151"/>
  <path d="M 88.58686160600718, 1.3551107264936366 Q 88.95403215778337, 1.4576758354346486, 89.16386693460156, 1.7730667656313326 " fill="none" id="curve_18" stroke="#000000" stroke-linecap="round" stroke-linejoin="round" stroke-width="3.189256746929309"/>
  <path d="M 34.41076633334049, 76.86275566687257 Q 32.47301774077106, 80.49234722174987, 29.678725158468744, 87.17610282337688 " fill="none" id="curve_27" stroke="#000000" stroke-linecap="round" stroke-linejoin="round" stroke-width="2.2803759613745753"/>
  <path d="M 59.21491287430115, 95.8609914253346 Q 57.50514584612541, 96.17902943640779, 54.75861269248735, 96.89739433953194 " fill="none" id="curve_68" stroke="#000000" stroke-linecap="round" stroke-linejoin="round" stroke-width="2.030248297688647"/>
  <path d="M 32.26695368445827, 95.19047365577572 Q 31.743803173667494, 92.52828729950026, 30.877840019397617, 86.23156842566735 " fill="none" id="curve_69" stroke="#000000" stroke-linecap="round" stroke-linejoin="round" stroke-width="1.8324093181433818"/>
  <path d="M 30.877840019397617, 86.23156842566735 Q 32.07328385317548, 77.17432430032993, 39.96541110992791, 73.30399592869458 " fill="none" id="curve_69" stroke="#000000" stroke-linecap="round" stroke-linejoin="round" stroke-width="3.4856917016913522"/>
  <path d="M 27.728132387487662, 73.41321115091455 Q 27.53555538751789, 74.17986409535314, 27.09085052503096, 75.21850961620578 " fill="none" id="curve_84" stroke="#000000" stroke-linecap="round" stroke-linejoin="round" stroke-width="2.586315907871263"/>
  <path d="M 87.57049451141638, 57.89309850439896 Q 88.02417969016382, 58.223735500563684, 88.56660827782488, 59.02001995733934 " fill="none" id="curve_152" stroke="#000000" stroke-linecap="round" stroke-linejoin="round" stroke-width="2.3057992212638796"/>
</svg>
