<?xml version="1.0" ?>
<svg height="140" width="140" xmlns="http://www.w3.org/2000/svg">
  <path d="M 65.39523315429688, 57.391571044921875 Q 69.10249100664602, 57.91794955385445, 69.84690802253465, 65.95297672562407 " fill="none" id="curve_1" stroke="#000000" stroke-linecap="round" stroke-linejoin="round" stroke-width="4.787563791559107"/>
  <path d="M 69.84690802253465, 65.95297672562407 Q 69.86582672599837, 73.46317268390945, 69.89348441658797, 80.42159838290135 " fill="none" id="curve_1" stroke="#000000" stroke-linecap="round" stroke-linejoin="round" stroke-width="5.30174996082795"/>
  <path d="M 69.89348441658797, 80.42159838290135 Q 67.95029715525911, 93.71792618922488, 50.17620471028969, 105.28277263233875 " fill="none" id="curve_1" stroke="#000000" stroke-linecap="round" stroke-linejoin="round" stroke-width="4.327148028510172"/>
  <path d="M 50.17620471028969, 105.28277263233875 Q 47.03255750767086, 107.8912877521583, 37.91798880226949, 108.9606561623709 " fill="none" id="curve_1" stroke="#000000" stroke-linecap="round" stroke-linejoin="round" stroke-width="4.730034962439246"/>
  <path d="M 37.91798880226949, 108.9606561623709 Q 23.94195405269833, 108.70445204726211, 22.70032495273103, 101.55379582700054 " fill="none" id="curve_1" stroke="#000000" stroke-linecap="round" stroke-linejoin="round" stroke-width="4.2420739629494"/>
  <path d="M 22.70032495273103, 101.55379582700054 Q 25.815695640256326, 89.13818727851356, 40.88868265784989, 72.37764762158963 " fill="none" id="curve_1" stroke="#000000" stroke-linecap="round" stroke-linejoin="round" stroke-width="4.646797905130602"/>
  <path d="M 40.88868265784989, 72.37764762158963 Q 48.02840776803078, 65.95140104976699, 59.17541404065417, 58.15323017288622 " fill="none" id="curve_1" stroke="#000000" stroke-linecap="round" stroke-linejoin="round" stroke-width="4.517623643227716"/>
  <path d="M 59.17541404065417, 58.15323017288622 Q 59.93748004030936, 62.73766064544757, 69.49397610094617, 63.37839061526775 " fill="none" id="curve_1" stroke="#000000" stroke-linecap="round" stroke-linejoin="round" stroke-width="3.708060577316852"/>
  <path d="M 69.49397610094617, 63.37839061526775 Q 68.91845657016955, 56.453728942175566, 61.528535511418994, 55.39920438210245 " fill="none" id="curve_1" stroke="#000000" stroke-linecap="round" stroke-linejoin="round" stroke-width="3.2331089119869207"/>
  <path d="M 57.1447864425796, 62.451088854687384 Q 57.84318271910531, 61.417943594079134, 58.5930690660322, 59.1843950310775 " fill="none" id="curve_2" stroke="#000000" stroke-linecap="round" stroke-linejoin="round" stroke-width="4.139166327051023"/>
  <path d="M 13.06454759139188, 134.06964903309722 Q 13.190737222364637, 134.23898076654638, 13.447931631713411, 134.48019066840538 " fill="none" id="curve_6" stroke="#000000" stroke-linecap="round" stroke-linejoin="round" stroke-width="2.3422605805516232"/>
  <path d="M 27.667595403350575, 90.53934901665956 Q 24.35234403014118, 92.28343736362767, 22.435986872695707, 97.80753108175054 " fill="none" id="curve_8" stroke="#000000" stroke-linecap="round" stroke-linejoin="round" stroke-width="3.082831575010469"/>
  <path d="M 59.338191236892044, 56.694387319502155 Q 59.25838114204388, 56.57075410676478, 59.14125552663916, 56.367979584043496 " fill="none" id="curve_9" stroke="#000000" stroke-linecap="round" stroke-linejoin="round" stroke-width="4.738395905915984"/>
  <path d="M 46.41079792481443, 66.9496064726396 Q 45.75578851962386, 67.18929106520815, 44.039706057392586, 67.63897313943963 " fill="none" id="curve_10" stroke="#000000" stroke-linecap="round" stroke-linejoin="round" stroke-width="2.530637069396164"/>
  <path d="M 35.02270477347329, 79.64969105681604 Q 36.79713102879246, 75.43409998893716, 42.14081645433077, 69.89483765005966 " fill="none" id="curve_21" stroke="#000000" stroke-linecap="round" stroke-linejoin="round" stroke-width="1.8746434605351985"/>
  <path d="M 25.911163330078125, 108.05982208251953 Q 25.810346609275655, 102.83714510691236, 23.855565784947856, 102.10162212557725 " fill="none" id="curve_35" stroke="#000000" stroke-linecap="round" stroke-linejoin="round" stroke-width="3.031160444403331"/>
  <path d="M 64.27047221533314, 91.47757182403032 Q 59.78179604335329, 98.08110639248027, 50.23776403479671, 104.99690228893938 " fill="none" id="curve_39" stroke="#000000" stroke-linecap="round" stroke-linejoin="round" stroke-width="2.597405933595714"/>
  <path d="M 35.2870764804861, 77.98872807017584 Q 36.692099645837054, 75.09307866172907, 39.67833671029828, 72.6878205515776 " fill="none" id="curve_49" stroke="#000000" stroke-linecap="round" stroke-linejoin="round" stroke-width="2.4290551521673933"/>
  <path d="M 68.1768661651821, 77.20056996911626 Q 68.35742936565755, 77.83406495770588, 68.45305423158325, 80.49725642922667 " fill="none" id="curve_77" stroke="#000000" stroke-linecap="round" stroke-linejoin="round" stroke-width="2.357111329678323"/>
  <path d="M 50.301948085695024, 63.6250203479091 Q 46.3057418808014, 64.70638280047162, 43.40323402574606, 68.44814963092747 " fill="none" id="curve_78" stroke="#000000" stroke-linecap="round" stroke-linejoin="round" stroke-width="2.106035448910484"/>
  <path d="M 69.38246818840571, 64.2455704534533 Q 70.44205771338584, 64.23142104196431, 70.9373215884251, 64.16193041845109 " fill="none" id="curve_93" stroke="#000000" stroke-linecap="round" stroke-linejoin="round" stroke-width="3.6627059982986423"/>
  <path d="M 36.62594418531097, 108.86220852524544 Q 31.945125365451428, 107.85049561891502, 27.01323453405062, 106.02935052033249 " fill="none" id="curve_110" stroke="#000000" stroke-linecap="round" stroke-linejoin="round" stroke-width="2.984305767144855"/>
  <path d="M 55.10539256157949, 99.90690109474735 Q 54.80573313454814, 100.61940312429152, 54.46559405474046, 102.28137042558254 " fill="none" id="curve_164" stroke="#000000" stroke-linecap="round" stroke-linejoin="round" stroke-width="3.6829803996668558"/>
</svg>
