<?xml version="1.0" ?>
<svg height="140" width="140" xmlns="http://www.w3.org/2000/svg">
  <path d="M 46.451059341430664, 85.41500949859619 Q 45.795617960331306, 87.93064677874256, 42.80966482191252, 89.61276392976151 " fill="none" id="curve_1" stroke="#000000" stroke-linecap="round" stroke-linejoin="round" stroke-width="4.436563384061047"/>
  <path d="M 42.80966482191252, 89.61276392976151 Q 42.32579151767204, 90.20291066588786, 33.98764675279901, 90.25300758941113 " fill="none" id="curve_1" stroke="#000000" stroke-linecap="round" stroke-linejoin="round" stroke-width="4.227745704835074"/>
  <path d="M 28.305186497239873, 87.17937930282329 Q 23.383768016503264, 84.09445065345845, 16.74993932811146, 70.88646796154883 " fill="none" id="curve_2" stroke="#000000" stroke-linecap="round" stroke-linejoin="round" stroke-width="3.3941545228888255"/>
  <path d="M 16.74993932811146, 70.88646796154883 Q 15.749914256083434, 66.22616571128546, 14.666181627404969, 56.86452056809456 " fill="none" id="curve_2" stroke="#000000" stroke-linecap="round" stroke-linejoin="round" stroke-width="3.3807914999703215"/>
  <path d="M 14.666181627404969, 56.86452056809456 Q 16.241159108556552, 45.995244809156034, 26.766656497646554, 38.25984841126075 " fill="none" id="curve_2" stroke="#000000" stroke-linecap="round" stroke-linejoin="round" stroke-width="2.4903793742512192"/>
  <path d="M 26.766656497646554, 38.25984841126075 Q 35.18850954461566, 37.40240955316998, 37.857307422954975, 33.008155607163864 " fill="none" id="curve_2" stroke="#000000" stroke-linecap="round" stroke-linejoin="round" stroke-width="5.868369191312927"/>
  <path d="M 37.857307422954975, 33.008155607163864 Q 31.468654887241478, 34.977088953499475, 27.92681529358548, 53.217461850905174 " fill="none" id="curve_2" stroke="#000000" stroke-linecap="round" stroke-linejoin="round" stroke-width="3.832265520424714"/>
  <path d="M 39.94205385086825, 32.78321933523201 Q 54.95053631818329, 32.91701283404669, 55.601171416526164, 46.17796595116389 " fill="none" id="curve_3" stroke="#000000" stroke-linecap="round" stroke-linejoin="round" stroke-width="4.147353794750279"/>
  <path d="M 55.601171416526164, 46.17796595116389 Q 56.769585238079486, 47.823992967124305, 57.219595354105444, 53.76553300715479 " fill="none" id="curve_3" stroke="#000000" stroke-linecap="round" stroke-linejoin="round" stroke-width="3.1273774275857904"/>
  <path d="M 50.95684895809237, 76.34895962588612 Q 48.87558216231221, 82.38292075617979, 45.84229653790828, 87.44189564828358 " fill="none" id="curve_4" stroke="#000000" stroke-linecap="round" stroke-linejoin="round" stroke-width="2.935667448331442"/>
  <path d="M 30.457150130671604, 55.041437982423425 Q 29.331839200740927, 53.654392885667434, 28.444327857342678, 50.17984724300069 " fill="none" id="curve_6" stroke="#000000" stroke-linecap="round" stroke-linejoin="round" stroke-width="2.6539937449826314"/>
  <path d="M 42.93637335129307, 31.866913959835852 Q 48.209661047128876, 31.931255616968464, 49.58358974458192, 32.43427719863685 " fill="none" id="curve_7" stroke="#000000" stroke-linecap="round" stroke-linejoin="round" stroke-width="2.9938677202671244"/>
  <path d="M 86.60128522127746, 2.8685360016202957 Q 87.88857023958792, 2.608186413823361, 88.96465547917582, 1.5950075288217003 " fill="none" id="curve_8" stroke="#000000" stroke-linecap="round" stroke-linejoin="round" stroke-width="2.4246701573462284"/>
  <path d="M 88.96465547917582, 1.5950075288217003 Q 89.15803053815559, 13.394990391314419, 89.59250581735806, 27.530196992022294 " fill="none" id="curve_8" stroke="#000000" stroke-linecap="round" stroke-linejoin="round" stroke-width="1.5996892151899018"/>
  <path d="M 89.59250581735806, 27.530196992022294 Q 89.59185831187445, 43.17664935259174, 89.58688325028079, 58.15089327493318 " fill="none" id="curve_8" stroke="#000000" stroke-linecap="round" stroke-linejoin="round" stroke-width="1.5701211388831815"/>
  <path d="M 89.58688325028079, 58.15089327493318 Q 89.61658182229027, 73.56446160859917, 89.91852257523986, 85.68143411466717 " fill="none" id="curve_8" stroke="#000000" stroke-linecap="round" stroke-linejoin="round" stroke-width="1.6395475790977596"/>
  <path d="M 89.91852257523986, 85.68143411466717 Q 89.75122456735023, 94.38344123742117, 89.43506797071998, 110.86271099901535 " fill="none" id="curve_8" stroke="#000000" stroke-linecap="round" stroke-linejoin="round" stroke-width="1.4925287299032362"/>
  <path d="M 89.43506797071998, 110.86271099901535 Q 89.4523087306622, 130.70747198420628, 89.57723011756018, 137.79417893999883 " fill="none" id="curve_8" stroke="#000000" stroke-linecap="round" stroke-linejoin="round" stroke-width="1.7327752142494726"/>
  <path d="M 89.57723011756018, 137.79417893999883 Q 89.55820362136133, 138.07281567802283, 89.506365299383, 138.26477831140173 " fill="none" id="curve_8" stroke="#000000" stroke-linecap="round" stroke-linejoin="round" stroke-width="2.0478971989453183"/>
  <path d="M 51.98136846576946, 71.402869179301 Q 52.389994592114505, 70.89538130853218, 52.89942230085277, 70.06468458180608 " fill="none" id="curve_11" stroke="#000000" stroke-linecap="round" stroke-linejoin="round" stroke-width="1.8559205577917761"/>
  <path d="M 49.857900700735065, 33.49574652444356 Q 47.363032414456754, 32.20055607488853, 40.47868935360606, 31.067593183945025 " fill="none" id="curve_13" stroke="#000000" stroke-linecap="round" stroke-linejoin="round" stroke-width="2.545973693192198"/>
  <path d="M 53.934517385722316, 40.49289512515366 Q 53.033556919878095, 35.889153629649805, 47.02352586846681, 32.34714892411683 " fill="none" id="curve_35" stroke="#000000" stroke-linecap="round" stroke-linejoin="round" stroke-width="2.325832676549915"/>
  <path d="M 36.56399154663086, 33.4589729309082 Q 33.17856712538428, 37.64659933788051, 27.88621151610954, 47.247470861668944 " fill="none" id="curve_49" stroke="#000000" stroke-linecap="round" stroke-linejoin="round" stroke-width="4.020630422873359"/>
  <path d="M 52.01486110687256, 39.167816162109375 Q 51.59884086072241, 35.814477508904695, 48.939423629446566, 33.68380975185272 " fill="none" id="curve_63" stroke="#000000" stroke-linecap="round" stroke-linejoin="round" stroke-width="2.9380272102410725"/>
  <path d="M 52.40748568915412, 40.71251359084173 Q 52.158619357163914, 34.11713865394408, 47.199155570329005, 32.99279446783888 " fill="none" id="curve_95" stroke="#000000" stroke-linecap="round" stroke-linejoin="round" stroke-width="2.4158200839601314"/>
  <path d="M 34.286184508218355, 34.31328568932539 Q 33.877010134136086, 40.33518898274941, 30.10356819705276, 42.13531761245484 " fill="none" id="curve_110" stroke="#000000" stroke-linecap="round" stroke-linejoin="round" stroke-width="3.6013125685116347"/>
  <path d="M 22.187671980008638, 42.330372847237804 Q 22.346886279832766, 42.0919353715619, 22.67618600370455, 41.63462790661418 " fill="none" id="curve_112" stroke="#000000" stroke-linecap="round" stroke-linejoin="round" stroke-width="2.019090584726248"/>
  <path d="M 15.560687445737972, 53.46055461781333 Q 15.806939444087389, 53.55483392714404, 16.340277995361877, 53.75672065806286 " fill="none" id="curve_113" stroke="#000000" stroke-linecap="round" stroke-linejoin="round" stroke-width="2.1346093078256034"/>
  <path d="M 88.05481187967183, 2.69432450995356 Q 87.98872881430628, 2.3127280495860747, 87.85100069111655, 1.7511872245442568 " fill="none" id="curve_116" stroke="#000000" stroke-linecap="round" stroke-linejoin="round" stroke-width="3.144044023581245"/>
  <path d="M 89.02760072311506, 5.980782134335129 Q 88.96276693864789, 3.6160407068299345, 88.44833353335271, 2.0281402073627754 " fill="none" id="curve_127" stroke="#000000" stroke-linecap="round" stroke-linejoin="round" stroke-width="2.003014177980904"/>
  <path d="M 52.827782987674574, 38.620981639260414 Q 51.81938978036674, 34.43227972182473, 45.075648914242606, 32.264862176141804 " fill="none" id="curve_129" stroke="#000000" stroke-linecap="round" stroke-linejoin="round" stroke-width="2.252264051470198"/>
  <path d="M 29.02314573725107, 85.49004003667983 Q 28.87228444997967, 85.5915932053114, 28.721655409881517, 85.81452164793507 " fill="none" id="curve_144" stroke="#000000" stroke-linecap="round" stroke-linejoin="round" stroke-width="3.113085455319845"/>
  <path d="M 89.6524423238858, 61.917584657437146 Q 89.51205314276966, 60.64999165760649, 89.06659414720936, 59.704243846113684 " fill="none" id="curve_172" stroke="#000000" stroke-linecap="round" stroke-linejoin="round" stroke-width="1.7158996524176988"/>
</svg>
