<?xml version="1.0" ?>
<svg height="140" width="140" xmlns="http://www.w3.org/2000/svg">
  <path d="M 47.37882995605469, 97.05129623413086 Q 45.73895829326916, 102.3628725996717, 35.10584417183679, 104.6801780171852 " fill="none" id="curve_1" stroke="#000000" stroke-linecap="round" stroke-linejoin="round" stroke-width="8.82499103820478"/>
  <path d="M 35.10584417183679, 104.6801780171852 Q 22.801643842877024, 103.94741048671274, 20.10881904523771, 96.32733911285042 " fill="none" id="curve_1" stroke="#000000" stroke-linecap="round" stroke-linejoin="round" stroke-width="9.800025491423238"/>
  <path d="M 20.10881904523771, 96.32733911285042 Q 19.437074100773724, 89.13524584198132, 17.76497589038598, 85.06048985923145 " fill="none" id="curve_1" stroke="#000000" stroke-linecap="round" stroke-linejoin="round" stroke-width="8.401023185525302"/>
  <path d="M 17.76497589038598, 85.06048985923145 Q 21.207198211423496, 66.40076693949256, 36.241359611833595, 54.509078717240726 " fill="none" id="curve_1" stroke="#000000" stroke-linecap="round" stroke-linejoin="round" stroke-width="7.509312219697185"/>
  <path d="M 36.241359611833595, 54.509078717240726 Q 56.70405359066032, 58.407820864375836, 62.11502731669228, 78.72876462642196 " fill="none" id="curve_1" stroke="#000000" stroke-linecap="round" stroke-linejoin="round" stroke-width="7.316922884666033"/>
  <path d="M 62.11502731669228, 78.72876462642196 Q 59.775576362563484, 96.12463205655105, 45.00555399962231, 100.58586606569261 " fill="none" id="curve_1" stroke="#000000" stroke-linecap="round" stroke-linejoin="round" stroke-width="6.555170549995468"/>
  <path d="M 40.43442669336628, 61.121733855282166 Q 46.63709895887483, 63.090693138167545, 56.0117156144854, 65.20623587865795 " fill="none" id="curve_2" stroke="#000000" stroke-linecap="round" stroke-linejoin="round" stroke-width="4.94910930838187"/>
  <path d="M 56.0117156144854, 65.20623587865795 Q 53.850765374675525, 56.82467823795049, 43.12649526871356, 53.22286382159936 " fill="none" id="curve_2" stroke="#000000" stroke-linecap="round" stroke-linejoin="round" stroke-width="5.294450579751208"/>
  <path d="M 43.12649526871356, 53.22286382159936 Q 46.94824486622706, 64.69533016357694, 58.73377601645556, 72.49371869521315 " fill="none" id="curve_2" stroke="#000000" stroke-linecap="round" stroke-linejoin="round" stroke-width="3.3341628724231396"/>
  <path d="M 31.03476583620073, 56.84344000008541 Q 23.12466147726905, 63.286084353961535, 15.481760921670679, 77.6029051757992 " fill="none" id="curve_3" stroke="#000000" stroke-linecap="round" stroke-linejoin="round" stroke-width="3.9751703174243853"/>
  <path d="M 32.21768260092775, 60.145654291917666 Q 39.05102774970715, 60.29683763776849, 39.863252323769686, 62.71415120355919 " fill="none" id="curve_4" stroke="#000000" stroke-linecap="round" stroke-linejoin="round" stroke-width="3.7339302918282313"/>
  <path d="M 58.181377970180556, 72.57733051243433 Q 58.650214234036625, 81.09101620029513, 60.21472254221878, 85.95864180026652 " fill="none" id="curve_5" stroke="#000000" stroke-linecap="round" stroke-linejoin="round" stroke-width="3.676425360127035"/>
  <path d="M 60.21472254221878, 85.95864180026652 Q 52.511285923484955, 91.83075059266748, 45.60521989377679, 102.85434070003213 " fill="none" id="curve_5" stroke="#000000" stroke-linecap="round" stroke-linejoin="round" stroke-width="4.284581943420799"/>
  <path d="M 16.26050840968293, 92.1573881105246 Q 16.492043687465998, 91.67831748118208, 16.675162689365273, 90.1335552879601 " fill="none" id="curve_6" stroke="#000000" stroke-linecap="round" stroke-linejoin="round" stroke-width="3.6479121751068067"/>
  <path d="M 43.89753420863917, 55.44433209694262 Q 43.43346668185596, 52.86716975116877, 38.874774810580654, 52.11026035321192 " fill="none" id="curve_7" stroke="#000000" stroke-linecap="round" stroke-linejoin="round" stroke-width="3.766676536739429"/>
  <path d="M 61.5640960426821, 86.2373303536303 Q 61.14711420484283, 86.04345980786266, 60.30428431560675, 85.62898155617921 " fill="none" id="curve_39" stroke="#000000" stroke-linecap="round" stroke-linejoin="round" stroke-width="4.484613152310758"/>
  <path d="M 41.719597138542625, 63.65622701302837 Q 41.044190645770875, 63.61522745189666, 39.94745021120266, 63.516542417293984 " fill="none" id="curve_42" stroke="#000000" stroke-linecap="round" stroke-linejoin="round" stroke-width="3.8485295133634785"/>
  <path d="M 49.98667907714844, 99.54175567626953 Q 47.500522775057895, 102.9152939498493, 40.749611716928314, 105.3110397166754 " fill="none" id="curve_56" stroke="#000000" stroke-linecap="round" stroke-linejoin="round" stroke-width="3.191513305232178"/>
  <path d="M 56.055187118178445, 87.31312011450186 Q 60.09264246142334, 85.71925394765083, 63.89608708524322, 82.64208332775769 " fill="none" id="curve_57" stroke="#000000" stroke-linecap="round" stroke-linejoin="round" stroke-width="4.18106853374401"/>
  <path d="M 63.89608708524322, 82.64208332775769 Q 63.26943940952174, 70.86889706950548, 56.367679429356826, 68.4637169630185 " fill="none" id="curve_57" stroke="#000000" stroke-linecap="round" stroke-linejoin="round" stroke-width="3.9384235440656234"/>
  <path d="M 29.73500309994018, 56.04392891474532 Q 28.50077575287435, 61.354797211342245, 23.983090762426425, 66.79258800230156 " fill="none" id="curve_86" stroke="#000000" stroke-linecap="round" stroke-linejoin="round" stroke-width="2.865539080457307"/>
</svg>
