<?xml version="1.0" ?>
<svg height="140" width="140" xmlns="http://www.w3.org/2000/svg">
  <path d="M 64.5557165145874, 63.68877410888672 Q 63.40652984829945, 71.19648347776433, 55.70307377161555, 80.59327042254267 " fill="none" id="curve_1" stroke="#000000" stroke-linecap="round" stroke-linejoin="round" stroke-width="3.9705430995716227"/>
  <path d="M 55.70307377161555, 80.59327042254267 Q 53.470010636119696, 87.84489619988139, 39.0140452804109, 94.27418999680413 " fill="none" id="curve_1" stroke="#000000" stroke-linecap="round" stroke-linejoin="round" stroke-width="3.4951990417839567"/>
  <path d="M 39.0140452804109, 94.27418999680413 Q 24.272839432142273, 93.90935688177602, 21.366514631588824, 83.9648314157373 " fill="none" id="curve_1" stroke="#000000" stroke-linecap="round" stroke-linejoin="round" stroke-width="3.2762756952369423"/>
  <path d="M 21.366514631588824, 83.9648314157373 Q 22.51347887802174, 73.5894928321725, 29.374384356917886, 60.91952543605389 " fill="none" id="curve_1" stroke="#000000" stroke-linecap="round" stroke-linejoin="round" stroke-width="4.156371866982746"/>
  <path d="M 29.374384356917886, 60.91952543605389 Q 32.23252464917534, 56.41642351828157, 38.91898264038326, 53.352742660057295 " fill="none" id="curve_1" stroke="#000000" stroke-linecap="round" stroke-linejoin="round" stroke-width="3.2631203309598806"/>
  <path d="M 39.897655299083596, 38.698502333063246 Q 32.95621660518671, 42.23255668210245, 22.93563016857407, 57.027053313503906 " fill="none" id="curve_2" stroke="#000000" stroke-linecap="round" stroke-linejoin="round" stroke-width="3.2307062433623623"/>
  <path d="M 22.93563016857407, 57.027053313503906 Q 22.950299964404106, 59.87466960201324, 23.041074401605343, 60.55321168943199 " fill="none" id="curve_2" stroke="#000000" stroke-linecap="round" stroke-linejoin="round" stroke-width="2.1518235619922645"/>
  <path d="M 61.40931281037105, 37.7182636914944 Q 65.64835800637154, 42.098934878661304, 68.40249438748916, 49.549162630805085 " fill="none" id="curve_4" stroke="#000000" stroke-linecap="round" stroke-linejoin="round" stroke-width="4.797368871502658"/>
  <path d="M 68.40249438748916, 49.549162630805085 Q 67.70929342033966, 64.74101591164224, 62.76942869834774, 69.89603944133667 " fill="none" id="curve_4" stroke="#000000" stroke-linecap="round" stroke-linejoin="round" stroke-width="4.186160489555714"/>
  <path d="M 62.76942869834774, 69.89603944133667 Q 61.79384812549973, 73.2011768569787, 60.42028466220036, 75.60040284867878 " fill="none" id="curve_4" stroke="#000000" stroke-linecap="round" stroke-linejoin="round" stroke-width="4.8324360209548125"/>
  <path d="M 59.28539485293581, 38.34183461156874 Q 59.162182623722224, 37.36732362942566, 58.529494796573886, 36.956186459800655 " fill="none" id="curve_6" stroke="#000000" stroke-linecap="round" stroke-linejoin="round" stroke-width="3.308938886385481"/>
  <path d="M 39.649152193423106, 55.98823464754277 Q 38.70935479946804, 55.02976616720879, 36.667325225948275, 54.28586620397223 " fill="none" id="curve_7" stroke="#000000" stroke-linecap="round" stroke-linejoin="round" stroke-width="3.913593672225092"/>
  <path d="M 89.86269984738036, 1.191597080960264 Q 89.84169755000617, 2.141430661660027, 89.78493190779044, 3.232829955811025 " fill="none" id="curve_22" stroke="#000000" stroke-linecap="round" stroke-linejoin="round" stroke-width="1.8109582459731834"/>
  <path d="M 67.15496138629673, 54.92426913704594 Q 66.80949768362117, 44.33908101827265, 64.55601337407681, 39.7944952607469 " fill="none" id="curve_24" stroke="#000000" stroke-linecap="round" stroke-linejoin="round" stroke-width="2.0087222972495153"/>
  <path d="M 64.55601337407681, 39.7944952607469 Q 63.566040319670606, 38.16895634601546, 59.027624315641695, 37.17253985079889 " fill="none" id="curve_24" stroke="#000000" stroke-linecap="round" stroke-linejoin="round" stroke-width="2.2417489858460877"/>
  <path d="M 36.95914900108892, 53.18020733563162 Q 31.721702198716233, 57.241713230926585, 23.495140295365317, 70.55658843122188 " fill="none" id="curve_39" stroke="#000000" stroke-linecap="round" stroke-linejoin="round" stroke-width="2.0206862051472183"/>
  <path d="M 60.246287359959865, 72.212378754253 Q 62.87311362514618, 67.0580181389514, 67.64971997903375, 60.7662979676215 " fill="none" id="curve_54" stroke="#000000" stroke-linecap="round" stroke-linejoin="round" stroke-width="2.1371565990405057"/>
  <path d="M 33.453027441832916, 56.656122304556035 Q 30.65343512632798, 61.87143948700756, 24.875133470351933, 67.05513544847996 " fill="none" id="curve_57" stroke="#000000" stroke-linecap="round" stroke-linejoin="round" stroke-width="2.248307800957765"/>
  <path d="M 22.562672898072048, 77.45843746835345 Q 23.32808754986987, 74.55047995636389, 24.62884978181062, 71.10926216313432 " fill="none" id="curve_58" stroke="#000000" stroke-linecap="round" stroke-linejoin="round" stroke-width="2.061124495567151"/>
  <path d="M 48.928079242265085, 87.28573669595062 Q 45.86602912477825, 90.34795014406272, 41.86333253759049, 94.11833856982808 " fill="none" id="curve_73" stroke="#000000" stroke-linecap="round" stroke-linejoin="round" stroke-width="2.2316506108089467"/>
  <path d="M 30.456896311890212, 94.1083697888324 Q 28.78462777834801, 91.2806750839075, 25.325082140116848, 88.17583110058021 " fill="none" id="curve_74" stroke="#000000" stroke-linecap="round" stroke-linejoin="round" stroke-width="2.105545870574001"/>
  <path d="M 22.87559773445125, 81.53634751888686 Q 23.031786792677632, 73.1905930843762, 24.799024740109914, 71.53653857347409 " fill="none" id="curve_75" stroke="#000000" stroke-linecap="round" stroke-linejoin="round" stroke-width="2.448642833413093"/>
  <path d="M 58.46499352901208, 35.88129004492036 Q 57.407087359782906, 35.81496807904561, 55.56981206856415, 35.70939916809526 " fill="none" id="curve_104" stroke="#000000" stroke-linecap="round" stroke-linejoin="round" stroke-width="2.220828552446169"/>
  <path d="M 62.59665791086161, 68.23982958947386 Q 63.74806343718855, 63.474306963509214, 67.41526264792348, 60.547076843448835 " fill="none" id="curve_132" stroke="#000000" stroke-linecap="round" stroke-linejoin="round" stroke-width="2.6676907845267293"/>
</svg>
