<?xml version="1.0" ?>
<svg height="140" width="140" xmlns="http://www.w3.org/2000/svg">
  <path d="M 44.480205059051514, 111.21925973892212 Q 41.83826150964536, 116.2231947821313, 36.39513326871952, 121.09646532671468 " fill="none" id="curve_1" stroke="#000000" stroke-linecap="round" stroke-linejoin="round" stroke-width="6.12141701225529"/>
  <path d="M 36.39513326871952, 121.09646532671468 Q 31.49335018293772, 120.5520578744067, 30.875736408686834, 111.6262194052036 " fill="none" id="curve_1" stroke="#000000" stroke-linecap="round" stroke-linejoin="round" stroke-width="6.077454551793623"/>
  <path d="M 30.875736408686834, 111.6262194052036 Q 31.231082940673566, 96.98344598896637, 33.060133562974514, 85.1367195692344 " fill="none" id="curve_1" stroke="#000000" stroke-linecap="round" stroke-linejoin="round" stroke-width="6.625002127204646"/>
  <path d="M 33.060133562974514, 85.1367195692344 Q 36.17724402204795, 69.45772059879553, 49.64933178940625, 53.62846541839632 " fill="none" id="curve_1" stroke="#000000" stroke-linecap="round" stroke-linejoin="round" stroke-width="4.141439089181311"/>
  <path d="M 49.64933178940625, 53.62846541839632 Q 58.932908902209725, 53.88395459415209, 59.36306416483447, 67.79421122552995 " fill="none" id="curve_1" stroke="#000000" stroke-linecap="round" stroke-linejoin="round" stroke-width="3.573075700377203"/>
  <path d="M 59.36306416483447, 67.79421122552995 Q 59.05952537245344, 94.43967567903587, 50.0857582278457, 103.5235340831288 " fill="none" id="curve_1" stroke="#000000" stroke-linecap="round" stroke-linejoin="round" stroke-width="3.6264376170276877"/>
  <path d="M 50.0857582278457, 103.5235340831288 Q 46.92171559086762, 111.94415339039693, 40.64132473935393, 117.51037922608744 " fill="none" id="curve_1" stroke="#000000" stroke-linecap="round" stroke-linejoin="round" stroke-width="4.790006005639488"/>
  <path d="M 40.64132473935393, 117.51037922608744 Q 47.15097951643847, 110.49188522428035, 53.189414958370605, 93.32056764691382 " fill="none" id="curve_1" stroke="#000000" stroke-linecap="round" stroke-linejoin="round" stroke-width="3.7778232731658257"/>
  <path d="M 45.92124794229225, 57.81376135732118 Q 48.01814591686968, 55.81687788032266, 55.75491683183205, 54.767791669921735 " fill="none" id="curve_2" stroke="#000000" stroke-linecap="round" stroke-linejoin="round" stroke-width="3.9980524334491165"/>
  <path d="M 55.75491683183205, 54.767791669921735 Q 44.88827453134206, 55.0760002698628, 43.01140775985788, 59.06550217210922 " fill="none" id="curve_2" stroke="#000000" stroke-linecap="round" stroke-linejoin="round" stroke-width="3.245741115353147"/>
  <path d="M 59.375421496875774, 68.47355315700568 Q 58.15277612744171, 60.64648005175058, 55.064075299079484, 54.342695020783935 " fill="none" id="curve_4" stroke="#000000" stroke-linecap="round" stroke-linejoin="round" stroke-width="3.1500402060890718"/>
  <path d="M 44.88686858725367, 116.10399436180356 Q 40.539769440345225, 116.38277885468207, 37.671383204463815, 117.28363760442451 " fill="none" id="curve_6" stroke="#000000" stroke-linecap="round" stroke-linejoin="round" stroke-width="5.409848364170258"/>
  <path d="M 30.288085637768333, 92.87663862891988 Q 30.39897363001011, 100.39812058495073, 30.559775849633542, 109.21686882598712 " fill="none" id="curve_8" stroke="#000000" stroke-linecap="round" stroke-linejoin="round" stroke-width="2.651802491597782"/>
  <path d="M 45.34561442333376, 110.55248879855364 Q 42.84226163078253, 112.09156313984425, 41.04896785663384, 116.11919475141733 " fill="none" id="curve_16" stroke="#000000" stroke-linecap="round" stroke-linejoin="round" stroke-width="3.461071114804574"/>
  <path d="M 29.272557472658143, 101.77815567626523 Q 29.245264559044035, 103.7243387076983, 29.17498905808656, 105.23014551952764 " fill="none" id="curve_18" stroke="#000000" stroke-linecap="round" stroke-linejoin="round" stroke-width="3.8014241009501193"/>
  <path d="M 37.3289029535956, 63.60683914781506 Q 46.67190350223786, 61.083516319075656, 52.83324084695093, 52.93466977099805 " fill="none" id="curve_19" stroke="#000000" stroke-linecap="round" stroke-linejoin="round" stroke-width="2.8874761727832556"/>
  <path d="M 52.83324084695093, 52.93466977099805 Q 52.23892617774503, 53.11804721645268, 50.84405255088007, 53.32569745649019 " fill="none" id="curve_19" stroke="#000000" stroke-linecap="round" stroke-linejoin="round" stroke-width="3.194514107909748"/>
  <path d="M 60.26810391298943, 80.51613878038917 Q 57.945641497314995, 88.38200942407565, 52.56477517430649, 96.38873918626123 " fill="none" id="curve_34" stroke="#000000" stroke-linecap="round" stroke-linejoin="round" stroke-width="2.214400194864036"/>
  <path d="M 50.005222880838886, 105.75814718847128 Q 51.18043710631931, 105.18441854599779, 52.1634608910998, 104.03364809041344 " fill="none" id="curve_35" stroke="#000000" stroke-linecap="round" stroke-linejoin="round" stroke-width="3.1989702446467834"/>
  <path d="M 30.227600474567453, 85.81237808782214 Q 30.043998467795603, 95.35395559513852, 29.108176870203152, 103.17709513383912 " fill="none" id="curve_50" stroke="#000000" stroke-linecap="round" stroke-linejoin="round" stroke-width="2.06213706238646"/>
  <path d="M 58.22943719559706, 67.97789870624939 Q 56.821283752656754, 64.23869769266756, 55.4588447443133, 53.79573496969347 " fill="none" id="curve_52" stroke="#000000" stroke-linecap="round" stroke-linejoin="round" stroke-width="2.0929018885797075"/>
  <path d="M 45.272371752282275, 109.73056422405658 Q 44.21826623804634, 110.44732888293379, 42.837003046162764, 111.99133647478745 " fill="none" id="curve_57" stroke="#000000" stroke-linecap="round" stroke-linejoin="round" stroke-width="3.962359723245332"/>
  <path d="M 89.58979837606769, 2.202883871047483 Q 89.67612026977682, 1.9291341208029844, 89.79982576953543, 1.4820433940972264 " fill="none" id="curve_72" stroke="#000000" stroke-linecap="round" stroke-linejoin="round" stroke-width="1.9009232052485145"/>
  <path d="M 89.86463731172452, 138.4042954223068 Q 89.76554659866966, 138.44049097697837, 89.58032021905264, 138.48188279795545 " fill="none" id="curve_139" stroke="#000000" stroke-linecap="round" stroke-linejoin="round" stroke-width="1.6374835744150862"/>
</svg>
