<?xml version="1.0" ?>
<svg height="140" width="140" xmlns="http://www.w3.org/2000/svg">
  <path d="M 52.78304672241211, 25.74816131591797 Q 50.745163957775354, 24.396813951314744, 44.548397181844734, 23.090393796305307 " fill="none" id="curve_1" stroke="#000000" stroke-linecap="round" stroke-linejoin="round" stroke-width="5.8841488475744805"/>
  <path d="M 44.548397181844734, 23.090393796305307 Q 39.7452932538358, 28.64551733947621, 29.931270819669933, 38.33542628834617 " fill="none" id="curve_1" stroke="#000000" stroke-linecap="round" stroke-linejoin="round" stroke-width="4.790455445012566"/>
  <path d="M 29.931270819669933, 38.33542628834617 Q 27.40309359490843, 45.846700257394005, 24.11291948846889, 57.079507354844736 " fill="none" id="curve_1" stroke="#000000" stroke-linecap="round" stroke-linejoin="round" stroke-width="7.5811303499860125"/>
  <path d="M 24.11291948846889, 57.079507354844736 Q 22.240259777333037, 62.28748129182771, 21.614620660006157, 80.11314139540164 " fill="none" id="curve_1" stroke="#000000" stroke-linecap="round" stroke-linejoin="round" stroke-width="4.316211494491355"/>
  <path d="M 21.614620660006157, 80.11314139540164 Q 23.3077151203047, 100.55941726053791, 34.23441179508431, 104.75243074772511 " fill="none" id="curve_1" stroke="#000000" stroke-linecap="round" stroke-linejoin="round" stroke-width="4.725270631551191"/>
  <path d="M 34.23441179508431, 104.75243074772511 Q 49.95756930595568, 102.6101056118956, 57.22531427626313, 76.35775682822398 " fill="none" id="curve_1" stroke="#000000" stroke-linecap="round" stroke-linejoin="round" stroke-width="5.050409858079351"/>
  <path d="M 57.22531427626313, 76.35775682822398 Q 57.74105637614009, 67.74747695916459, 58.47319287948882, 57.3354694052053 " fill="none" id="curve_1" stroke="#000000" stroke-linecap="round" stroke-linejoin="round" stroke-width="5.238685860085021"/>
  <path d="M 58.47319287948882, 57.3354694052053 Q 57.52996706550181, 39.51123036052604, 52.632446099512876, 27.117185098099423 " fill="none" id="curve_1" stroke="#000000" stroke-linecap="round" stroke-linejoin="round" stroke-width="4.297799066516384"/>
  <path d="M 35.95350013507091, 39.53929850270835 Q 27.72301938477759, 40.75878986480433, 24.466207381276032, 48.57542703422257 " fill="none" id="curve_2" stroke="#000000" stroke-linecap="round" stroke-linejoin="round" stroke-width="3.361513682495172"/>
  <path d="M 56.562214891257256, 32.108127115763125 Q 55.2643090171772, 26.582007788441985, 44.94045333127968, 24.32140543425995 " fill="none" id="curve_3" stroke="#000000" stroke-linecap="round" stroke-linejoin="round" stroke-width="3.205500890931308"/>
  <path d="M 22.78174761441587, 51.76711708350447 Q 24.210099920620195, 46.21432720371263, 28.74701985664347, 41.04856552110759 " fill="none" id="curve_4" stroke="#000000" stroke-linecap="round" stroke-linejoin="round" stroke-width="2.8528303042853076"/>
  <path d="M 40.833264849003854, 105.57512942479187 Q 43.18545197265773, 101.77949863445374, 46.36476027449022, 96.60851533891862 " fill="none" id="curve_6" stroke="#000000" stroke-linecap="round" stroke-linejoin="round" stroke-width="4.306535987801264"/>
  <path d="M 46.36476027449022, 96.60851533891862 Q 44.36560028284127, 101.5683725684804, 36.31294133443463, 103.08536655800671 " fill="none" id="curve_6" stroke="#000000" stroke-linecap="round" stroke-linejoin="round" stroke-width="4.727237227291044"/>
  <path d="M 22.619947592668712, 74.82433825478252 Q 23.03667215022844, 86.64171483974371, 23.80488761495308, 97.65444299240121 " fill="none" id="curve_7" stroke="#000000" stroke-linecap="round" stroke-linejoin="round" stroke-width="2.8992754822057547"/>
  <path d="M 21.171554822987193, 80.08147467657126 Q 22.58286049696633, 87.85587992097088, 25.4911797784161, 96.38968773778595 " fill="none" id="curve_11" stroke="#000000" stroke-linecap="round" stroke-linejoin="round" stroke-width="2.5245358608820982"/>
  <path d="M 40.87572594014496, 25.88812219032431 Q 40.33196925268728, 25.92729613159621, 39.59535628806829, 25.990901593068763 " fill="none" id="curve_15" stroke="#000000" stroke-linecap="round" stroke-linejoin="round" stroke-width="4.153750305109492"/>
  <path d="M 56.705962953229474, 46.77956026265575 Q 57.84838902855086, 50.30068470695691, 58.49255831443819, 63.43357681483205 " fill="none" id="curve_17" stroke="#000000" stroke-linecap="round" stroke-linejoin="round" stroke-width="2.810485952683411"/>
  <path d="M 57.84504504414208, 59.023267425052694 Q 58.80010365783027, 58.37074899146404, 59.94248883159196, 56.09684323225319 " fill="none" id="curve_22" stroke="#000000" stroke-linecap="round" stroke-linejoin="round" stroke-width="3.3909837526134257"/>
  <path d="M 31.132380062754557, 102.17384838234386 Q 30.53247484879374, 101.86651478808578, 28.54025787054357, 101.35944350600555 " fill="none" id="curve_23" stroke="#000000" stroke-linecap="round" stroke-linejoin="round" stroke-width="3.263646995642533"/>
  <path d="M 57.42569640182226, 44.645243851588695 Q 55.36411157570755, 39.13509758258109, 50.47578737966001, 24.902729837426538 " fill="none" id="curve_30" stroke="#000000" stroke-linecap="round" stroke-linejoin="round" stroke-width="2.8646721629782856"/>
  <path d="M 44.74483793704029, 103.76905153963571 Q 44.36929974224606, 102.90240487950221, 43.7042757513422, 101.7543870534462 " fill="none" id="curve_34" stroke="#000000" stroke-linecap="round" stroke-linejoin="round" stroke-width="4.393340801778523"/>
  <path d="M 53.13994238658245, 87.82222088635183 Q 49.48267778296981, 93.28651057978182, 43.50046371418388, 98.72340504111054 " fill="none" id="curve_35" stroke="#000000" stroke-linecap="round" stroke-linejoin="round" stroke-width="3.1817961861189463"/>
  <path d="M 30.7794189453125, 103.34846115112305 Q 30.235048190945175, 98.39759162079628, 26.105523029475876, 95.94180408828012 " fill="none" id="curve_62" stroke="#000000" stroke-linecap="round" stroke-linejoin="round" stroke-width="2.850547492399605"/>
  <path d="M 21.75099792925536, 85.42462866624356 Q 21.995285262068496, 85.49439738837127, 22.3256729597887, 85.6786734475316 " fill="none" id="curve_63" stroke="#000000" stroke-linecap="round" stroke-linejoin="round" stroke-width="3.2503685793967843"/>
  <path d="M 22.3256729597887, 85.6786734475316 Q 23.29137820743716, 85.40721092225373, 23.782527116806534, 83.91526226648304 " fill="none" id="curve_63" stroke="#000000" stroke-linecap="round" stroke-linejoin="round" stroke-width="4.715511335054159"/>
  <path d="M 55.99308072403178, 83.50606989194216 Q 56.96767109235629, 73.66726846921573, 59.14190301392582, 60.690056488513335 " fill="none" id="curve_84" stroke="#000000" stroke-linecap="round" stroke-linejoin="round" stroke-width="2.861306632980161"/>
  <path d="M 57.17346115430981, 79.45912252371679 Q 56.96983831322581, 77.52206279682169, 56.58556149141783, 71.61361829252277 " fill="none" id="curve_86" stroke="#000000" stroke-linecap="round" stroke-linejoin="round" stroke-width="2.654345340759282"/>
  <path d="M 89.81877310257605, 2.0653720921435266 Q 89.88929003045193, 2.154152963026256, 90.06524929863991, 2.296564128664312 " fill="none" id="curve_95" stroke="#000000" stroke-linecap="round" stroke-linejoin="round" stroke-width="1.9766590676320168"/>
  <path d="M 59.215907862115955, 60.96861016211507 Q 59.322216913558755, 59.80132255975533, 59.51383615463298, 58.15089578743427 " fill="none" id="curve_123" stroke="#000000" stroke-linecap="round" stroke-linejoin="round" stroke-width="3.4002829958587224"/>
  <path d="M 56.02463657765671, 66.4723420277694 Q 55.83608359608714, 67.27211279648917, 55.635353499118, 68.58480939810202 " fill="none" id="curve_138" stroke="#000000" stroke-linecap="round" stroke-linejoin="round" stroke-width="3.556110645312111"/>
  <path d="M 55.04033348794013, 27.42589413199783 Q 54.35694169105996, 25.449441055218394, 48.75846680836862, 24.426930115898156 " fill="none" id="curve_148" stroke="#000000" stroke-linecap="round" stroke-linejoin="round" stroke-width="2.6675911319699774"/>
  <path d="M 37.365236069057914, 38.5550161301247 Q 25.0218668668684, 38.949816218918656, 22.45662643223312, 47.809077342029724 " fill="none" id="curve_163" stroke="#000000" stroke-linecap="round" stroke-linejoin="round" stroke-width="2.2411941065148806"/>
  <path d="M 37.6346672687988, 27.53278285482721 Q 39.44588973402947, 27.554938124564476, 41.519257416128944, 27.608748664614247 " fill="none" id="curve_165" stroke="#000000" stroke-linecap="round" stroke-linejoin="round" stroke-width="2.5999631436001165"/>
  <path d="M 25.5767066444486, 76.22000748487959 Q 23.58551056875885, 77.14839059875665, 21.39163458923791, 80.0169067993757 " fill="none" id="curve_167" stroke="#000000" stroke-linecap="round" stroke-linejoin="round" stroke-width="2.682622793985159"/>
  <path d="M 20.468146418003215, 85.03356117020925 Q 24.084219964181187, 94.3981285470297, 29.687885929533174, 105.09719950166237 " fill="none" id="curve_169" stroke="#000000" stroke-linecap="round" stroke-linejoin="round" stroke-width="2.1783418565355572"/>
  <path d="M 52.74828889121966, 80.96704851586748 Q 53.97591479067489, 80.6022231616561, 55.833133639419955, 79.73234113727507 " fill="none" id="curve_172" stroke="#000000" stroke-linecap="round" stroke-linejoin="round" stroke-width="2.6127404743095144"/>
</svg>
