<?xml version="1.0" ?>
<svg height="140" width="140" xmlns="http://www.w3.org/2000/svg">
  <path d="M 76.96794128417969, 104.32514953613281 Q 76.25832300987003, 104.3868668070054, 75.61112306923826, 104.63072583333191 " fill="none" id="curve_1" stroke="#000000" stroke-linecap="round" stroke-linejoin="round" stroke-width="7.944720625632918"/>
  <path d="M 75.61112306923826, 104.63072583333191 Q 73.8283376276095, 114.3249171858841, 57.628510255883924, 120.83092652776054 " fill="none" id="curve_1" stroke="#000000" stroke-linecap="round" stroke-linejoin="round" stroke-width="4.712522184405971"/>
  <path d="M 57.628510255883924, 120.83092652776054 Q 56.771043228795044, 122.66191395281719, 46.86761734423621, 122.86885647237081 " fill="none" id="curve_1" stroke="#000000" stroke-linecap="round" stroke-linejoin="round" stroke-width="4.990164861338978"/>
  <path d="M 46.86761734423621, 122.86885647237081 Q 26.213305689531822, 122.21143017209359, 17.918230216979474, 109.68569751967638 " fill="none" id="curve_1" stroke="#000000" stroke-linecap="round" stroke-linejoin="round" stroke-width="5.115451878972333"/>
  <path d="M 17.918230216979474, 109.68569751967638 Q 12.368175740699524, 107.40491260425759, 10.492697676442596, 91.25832105653586 " fill="none" id="curve_1" stroke="#000000" stroke-linecap="round" stroke-linejoin="round" stroke-width="5.910187062018808"/>
  <path d="M 10.492697676442596, 91.25832105653586 Q 12.03525473654521, 74.63894936576719, 24.461230328112304, 63.05862687040306 " fill="none" id="curve_1" stroke="#000000" stroke-linecap="round" stroke-linejoin="round" stroke-width="5.37810257979006"/>
  <path d="M 24.461230328112304, 63.05862687040306 Q 31.48139539236112, 56.902169456300655, 53.4881218470471, 52.03156512107907 " fill="none" id="curve_1" stroke="#000000" stroke-linecap="round" stroke-linejoin="round" stroke-width="5.451480184951635"/>
  <path d="M 53.4881218470471, 52.03156512107907 Q 67.21786469620577, 56.94874472007718, 78.58582951908456, 87.21706188758344 " fill="none" id="curve_1" stroke="#000000" stroke-linecap="round" stroke-linejoin="round" stroke-width="5.04773326346374"/>
  <path d="M 78.58582951908456, 87.21706188758344 Q 77.48244624023748, 90.89558594629877, 77.00046020091442, 102.52399227398796 " fill="none" id="curve_1" stroke="#000000" stroke-linecap="round" stroke-linejoin="round" stroke-width="4.756759861127855"/>
  <path d="M 90.94191723318255, 92.55697358553797 Q 89.89084466220031, 95.1371617743993, 89.456704902328, 116.92783704554812 " fill="none" id="curve_2" stroke="#000000" stroke-linecap="round" stroke-linejoin="round" stroke-width="1.7349486652034234"/>
  <path d="M 89.456704902328, 116.92783704554812 Q 89.6464846940179, 127.71390186821796, 89.95427708033989, 138.13094112790805 " fill="none" id="curve_2" stroke="#000000" stroke-linecap="round" stroke-linejoin="round" stroke-width="2.119642393100295"/>
  <path d="M 88.34193153563747, 93.85705478805465 Q 89.38716500021918, 93.58696944647859, 89.59613888022345, 90.13923121802593 " fill="none" id="curve_4" stroke="#000000" stroke-linecap="round" stroke-linejoin="round" stroke-width="1.897424539343409"/>
  <path d="M 89.59613888022345, 90.13923121802593 Q 89.56208447015646, 87.03825285767587, 89.52648861159213, 75.01295047879914 " fill="none" id="curve_4" stroke="#000000" stroke-linecap="round" stroke-linejoin="round" stroke-width="1.65085636550346"/>
  <path d="M 89.52648861159213, 75.01295047879914 Q 89.5378904340512, 70.71647480711329, 89.55783502384793, 60.494438835731785 " fill="none" id="curve_4" stroke="#000000" stroke-linecap="round" stroke-linejoin="round" stroke-width="1.52369348250452"/>
  <path d="M 89.55783502384793, 60.494438835731785 Q 89.55731871169074, 56.799617028342745, 89.55657123922526, 47.155631973856735 " fill="none" id="curve_4" stroke="#000000" stroke-linecap="round" stroke-linejoin="round" stroke-width="1.424371722058987"/>
  <path d="M 89.55657123922526, 47.155631973856735 Q 89.53571590432684, 44.38038371546327, 89.51219013761111, 33.841258614393425 " fill="none" id="curve_4" stroke="#000000" stroke-linecap="round" stroke-linejoin="round" stroke-width="1.4921084176035535"/>
  <path d="M 89.51219013761111, 33.841258614393425 Q 89.51801211478595, 29.567816233838627, 89.53087251129874, 20.207095711561394 " fill="none" id="curve_4" stroke="#000000" stroke-linecap="round" stroke-linejoin="round" stroke-width="1.4578513352267715"/>
  <path d="M 89.53087251129874, 20.207095711561394 Q 89.5121553536867, 13.394710909790817, 89.42045889291295, 7.372856705518913 " fill="none" id="curve_4" stroke="#000000" stroke-linecap="round" stroke-linejoin="round" stroke-width="1.4384220881634449"/>
  <path d="M 89.42045889291295, 7.372856705518913 Q 89.03155415997689, 5.1830668864106855, 88.67064104470738, 1.5428024223768233 " fill="none" id="curve_4" stroke="#000000" stroke-linecap="round" stroke-linejoin="round" stroke-width="3.3496135688689823"/>
  <path d="M 88.67064104470738, 1.5428024223768233 Q 88.00235950340218, 1.1729005921459503, 85.98251108711189, 1.0033164057152533 " fill="none" id="curve_4" stroke="#000000" stroke-linecap="round" stroke-linejoin="round" stroke-width="1.527189686637471"/>
  <path d="M 88.83047096353037, 8.033821796938703 Q 88.92327966318234, 7.610845021007042, 89.05931877743468, 7.062325457273852 " fill="none" id="curve_5" stroke="#000000" stroke-linecap="round" stroke-linejoin="round" stroke-width="1.723831426498703"/>
  <path d="M 58.420388823539106, 54.063149204899766 Q 50.75822830440603, 54.62192555212935, 46.20013419906652, 56.15596631789789 " fill="none" id="curve_9" stroke="#000000" stroke-linecap="round" stroke-linejoin="round" stroke-width="2.8265962299855514"/>
  <path d="M 46.20013419906652, 56.15596631789789 Q 48.62303733453875, 52.70276027414498, 51.37395303023499, 48.45141280775274 " fill="none" id="curve_9" stroke="#000000" stroke-linecap="round" stroke-linejoin="round" stroke-width="3.3749583808215227"/>
  <path d="M 51.37395303023499, 48.45141280775274 Q 57.72341852512801, 50.622213069327685, 59.9160943875355, 58.28539207735385 " fill="none" id="curve_9" stroke="#000000" stroke-linecap="round" stroke-linejoin="round" stroke-width="1.9979066456760506"/>
  <path d="M 59.9160943875355, 58.28539207735385 Q 64.1459026371193, 62.6478838779911, 70.13926971114235, 68.29424699761276 " fill="none" id="curve_9" stroke="#000000" stroke-linecap="round" stroke-linejoin="round" stroke-width="2.061502676441237"/>
  <path d="M 70.13926971114235, 68.29424699761276 Q 65.60878464922965, 66.53044612383391, 62.857147590837165, 61.29669736389302 " fill="none" id="curve_9" stroke="#000000" stroke-linecap="round" stroke-linejoin="round" stroke-width="2.6672441481054134"/>
  <path d="M 55.37137685228793, 54.76548842967395 Q 55.4646775333502, 55.78116057301821, 56.07655625399392, 56.04470778052315 " fill="none" id="curve_10" stroke="#000000" stroke-linecap="round" stroke-linejoin="round" stroke-width="3.9082333858912492"/>
  <path d="M 31.65554231217311, 121.56418482678701 Q 32.35500507066004, 122.02239568347409, 35.62911829745758, 122.21784800216511 " fill="none" id="curve_14" stroke="#000000" stroke-linecap="round" stroke-linejoin="round" stroke-width="4.284369766878326"/>
  <path d="M 21.10058683403252, 67.12987706384796 Q 14.158267132133725, 69.89770617385756, 10.987745694050727, 83.52690126823694 " fill="none" id="curve_18" stroke="#000000" stroke-linecap="round" stroke-linejoin="round" stroke-width="2.344738600843523"/>
  <path d="M 27.133397770422867, 117.19467709115754 Q 30.346614628647924, 120.71391282553759, 34.84119918726541, 123.18398838052232 " fill="none" id="curve_20" stroke="#000000" stroke-linecap="round" stroke-linejoin="round" stroke-width="2.671085527815585"/>
  <path d="M 18.214359804789243, 113.80895655217675 Q 17.622934662757206, 112.04874903945029, 15.236391558422994, 111.28484859021228 " fill="none" id="curve_21" stroke="#000000" stroke-linecap="round" stroke-linejoin="round" stroke-width="2.7792127173072165"/>
  <path d="M 15.236391558422994, 111.28484859021228 Q 25.765300484080633, 113.13660648485343, 30.063013243921237, 119.60904250428257 " fill="none" id="curve_21" stroke="#000000" stroke-linecap="round" stroke-linejoin="round" stroke-width="2.1805910227724454"/>
  <path d="M 77.6845037705437, 84.08748327793195 Q 76.66769706739525, 72.11973673843244, 67.51822522238889, 65.01662890769884 " fill="none" id="curve_23" stroke="#000000" stroke-linecap="round" stroke-linejoin="round" stroke-width="3.073244946213839"/>
  <path d="M 48.24704657776287, 57.365594237630454 Q 48.515075829418386, 52.14724013301633, 55.942280772614744, 51.60523383239084 " fill="none" id="curve_27" stroke="#000000" stroke-linecap="round" stroke-linejoin="round" stroke-width="2.4182412800461623"/>
  <path d="M 55.942280772614744, 51.60523383239084 Q 57.69706510140963, 52.07108198294621, 58.79881277180581, 53.31035125505357 " fill="none" id="curve_27" stroke="#000000" stroke-linecap="round" stroke-linejoin="round" stroke-width="2.8965954902444504"/>
  <path d="M 55.43630532416637, 120.49352241642272 Q 54.04628920319636, 120.87185491673583, 51.92348499675857, 121.46489907673298 " fill="none" id="curve_42" stroke="#000000" stroke-linecap="round" stroke-linejoin="round" stroke-width="2.732773939805018"/>
  <path d="M 76.44481467503131, 98.68968190881338 Q 76.43455563345579, 90.3353135897104, 76.40735198816142, 82.29050519219663 " fill="none" id="curve_46" stroke="#000000" stroke-linecap="round" stroke-linejoin="round" stroke-width="2.38695915738226"/>
  <path d="M 29.842784566956603, 120.87010638123687 Q 34.856348757518624, 120.90356188978335, 40.54100548522684, 120.96244592341766 " fill="none" id="curve_106" stroke="#000000" stroke-linecap="round" stroke-linejoin="round" stroke-width="2.6655394270490356"/>
</svg>
