<?xml version="1.0" ?>
<svg height="140" width="140" xmlns="http://www.w3.org/2000/svg">
  <path d="M 87.85482788085938, 62.31845760345459 Q 89.22629328513403, 62.84339522661712, 89.38914233923379, 79.51420533308885 " fill="none" id="curve_1" stroke="#000000" stroke-linecap="round" stroke-linejoin="round" stroke-width="2.9083975508716966"/>
  <path d="M 89.38914233923379, 79.51420533308885 Q 89.38632098077602, 85.3076825964636, 89.37105120802188, 99.42497810460839 " fill="none" id="curve_1" stroke="#000000" stroke-linecap="round" stroke-linejoin="round" stroke-width="1.739452392984082"/>
  <path d="M 89.37105120802188, 99.42497810460839 Q 89.37935785081248, 107.3788090416858, 89.44943310699634, 118.00094590852939 " fill="none" id="curve_1" stroke="#000000" stroke-linecap="round" stroke-linejoin="round" stroke-width="1.7599997568421546"/>
  <path d="M 89.44943310699634, 118.00094590852939 Q 89.18898021134108, 118.73331184457864, 89.10838595428226, 136.2608983327125 " fill="none" id="curve_1" stroke="#000000" stroke-linecap="round" stroke-linejoin="round" stroke-width="2.184080981709447"/>
  <path d="M 89.10838595428226, 136.2608983327125 Q 89.13105454007231, 138.42228850547207, 89.25423761771108, 139.01899275009168 " fill="none" id="curve_1" stroke="#000000" stroke-linecap="round" stroke-linejoin="round" stroke-width="2.5164930219974457"/>
  <path d="M 88.64003644637512, 115.88739599649098 Q 88.86474734159049, 114.92156875022887, 89.30641015079115, 114.20486168578903 " fill="none" id="curve_2" stroke="#000000" stroke-linecap="round" stroke-linejoin="round" stroke-width="1.978931525767897"/>
  <path d="M 89.83061375310803, 64.57979662970058 Q 89.18926189456567, 64.20458785714678, 89.11387886206961, 54.24612965014062 " fill="none" id="curve_7" stroke="#000000" stroke-linecap="round" stroke-linejoin="round" stroke-width="2.040935961372548"/>
  <path d="M 89.11387886206961, 54.24612965014062 Q 89.12025157239806, 44.070413033518705, 89.22982099007226, 42.211764949823234 " fill="none" id="curve_7" stroke="#000000" stroke-linecap="round" stroke-linejoin="round" stroke-width="2.1840208984283076"/>
  <path d="M 89.22982099007226, 42.211764949823234 Q 89.2217559976576, 33.15583954293671, 89.16890651528726, 27.700914693773413 " fill="none" id="curve_7" stroke="#000000" stroke-linecap="round" stroke-linejoin="round" stroke-width="2.220375394028153"/>
  <path d="M 89.16890651528726, 27.700914693773413 Q 89.1779031106603, 20.24686841085248, 89.22385617380392, 11.461448939016407 " fill="none" id="curve_7" stroke="#000000" stroke-linecap="round" stroke-linejoin="round" stroke-width="2.255497435687079"/>
  <path d="M 89.22385617380392, 11.461448939016407 Q 89.15212563446396, 6.193953284362648, 88.99278058994295, 1.1961517880024708 " fill="none" id="curve_7" stroke="#000000" stroke-linecap="round" stroke-linejoin="round" stroke-width="2.4139155111622794"/>
  <path d="M 88.99278058994295, 1.1961517880024708 Q 88.57897818780486, 1.2454723146298718, 88.00762678150946, 1.29980500310191 " fill="none" id="curve_7" stroke="#000000" stroke-linecap="round" stroke-linejoin="round" stroke-width="1.997607455036897"/>
  <path d="M 50.724364021928295, 65.12197603512674 Q 47.75786466673272, 75.46158033860253, 33.86755702520429, 86.44749578974132 " fill="none" id="curve_13" stroke="#000000" stroke-linecap="round" stroke-linejoin="round" stroke-width="3.2652372056323586"/>
  <path d="M 33.86755702520429, 86.44749578974132 Q 31.690207594618983, 88.29521386493779, 26.27369925821921, 89.0808429487383 " fill="none" id="curve_13" stroke="#000000" stroke-linecap="round" stroke-linejoin="round" stroke-width="5.069374138877692"/>
  <path d="M 26.27369925821921, 89.0808429487383 Q 14.33629875367761, 87.7889465973356, 11.114631218572438, 75.61204807074799 " fill="none" id="curve_13" stroke="#000000" stroke-linecap="round" stroke-linejoin="round" stroke-width="5.386210161046913"/>
  <path d="M 11.114631218572438, 75.61204807074799 Q 11.229544475353986, 57.522732953167406, 16.67387043815431, 56.15518859642168 " fill="none" id="curve_13" stroke="#000000" stroke-linecap="round" stroke-linejoin="round" stroke-width="6.110939163696532"/>
  <path d="M 16.67387043815431, 56.15518859642168 Q 20.00437309579624, 48.1806459723719, 41.49556182457201, 44.46999951062123 " fill="none" id="curve_13" stroke="#000000" stroke-linecap="round" stroke-linejoin="round" stroke-width="4.986797575431525"/>
  <path d="M 41.49556182457201, 44.46999951062123 Q 48.927294978821664, 46.67281736793073, 51.32519709873999, 53.87369680240684 " fill="none" id="curve_13" stroke="#000000" stroke-linecap="round" stroke-linejoin="round" stroke-width="4.425525737598185"/>
  <path d="M 51.32519709873999, 53.87369680240684 Q 51.21726964010685, 66.8079606702305, 48.25254149299234, 68.53363029060829 " fill="none" id="curve_13" stroke="#000000" stroke-linecap="round" stroke-linejoin="round" stroke-width="2.8685209065665638"/>
  <path d="M 41.82820632535018, 48.753435271581544 Q 42.91613498547498, 48.60873875616514, 43.62853656813126, 48.20920994408225 " fill="none" id="curve_14" stroke="#000000" stroke-linecap="round" stroke-linejoin="round" stroke-width="4.984668564045819"/>
  <path d="M 43.62853656813126, 48.20920994408225 Q 39.62617951716137, 47.37276520469067, 34.884847733475155, 46.13313407669637 " fill="none" id="curve_14" stroke="#000000" stroke-linecap="round" stroke-linejoin="round" stroke-width="4.997348492420723"/>
  <path d="M 12.750731762654956, 62.142477123617894 Q 11.362673414776049, 63.39788185597005, 9.892624895115937, 68.95376387939747 " fill="none" id="curve_16" stroke="#000000" stroke-linecap="round" stroke-linejoin="round" stroke-width="2.8522582115100135"/>
  <path d="M 11.632712218505205, 78.83845291244447 Q 11.914654409711872, 84.24892215859363, 14.615986686314587, 85.4690835875902 " fill="none" id="curve_27" stroke="#000000" stroke-linecap="round" stroke-linejoin="round" stroke-width="2.993838811418036"/>
  <path d="M 9.529785800846732, 65.07798365271722 Q 10.357261644363627, 60.405245546578655, 14.291084415503562, 58.10550077846434 " fill="none" id="curve_28" stroke="#000000" stroke-linecap="round" stroke-linejoin="round" stroke-width="2.93055964704959"/>
  <path d="M 47.58726625535907, 69.48593979434791 Q 45.55441830189316, 75.83497052341424, 41.058382790922586, 82.0001329239557 " fill="none" id="curve_29" stroke="#000000" stroke-linecap="round" stroke-linejoin="round" stroke-width="2.1995706188145916"/>
  <path d="M 32.523294561315005, 86.96234698743719 Q 33.95881256363825, 85.56330751703325, 35.71350304047921, 83.69008936232593 " fill="none" id="curve_30" stroke="#000000" stroke-linecap="round" stroke-linejoin="round" stroke-width="2.7090964771795116"/>
  <path d="M 36.41099300034843, 43.917537954822144 Q 34.937891712260125, 44.05325820307618, 33.36540819184206, 44.325532089283 " fill="none" id="curve_31" stroke="#000000" stroke-linecap="round" stroke-linejoin="round" stroke-width="3.964024437343252"/>
  <path d="M 9.582201952847186, 71.15425334035103 Q 11.522196332043668, 78.44446548892122, 17.612251193365672, 84.05278517309758 " fill="none" id="curve_46" stroke="#000000" stroke-linecap="round" stroke-linejoin="round" stroke-width="2.4014589934069215"/>
  <path d="M 13.405540055462989, 60.47814274568073 Q 14.480195102435145, 53.99042374655785, 19.750280291776388, 50.912997456666304 " fill="none" id="curve_62" stroke="#000000" stroke-linecap="round" stroke-linejoin="round" stroke-width="2.390480287190733"/>
  <path d="M 9.46163943959245, 74.87158200879136 Q 11.207522986688431, 75.0712381821499, 12.75356229209837, 75.45338422080444 " fill="none" id="curve_63" stroke="#000000" stroke-linecap="round" stroke-linejoin="round" stroke-width="4.021946337376877"/>
  <path d="M 46.91802315385462, 70.90336975036439 Q 45.25050902032807, 73.79975608515896, 43.16767078371355, 77.17787878732904 " fill="none" id="curve_78" stroke="#000000" stroke-linecap="round" stroke-linejoin="round" stroke-width="3.117163387830049"/>
</svg>
