<?xml version="1.0" ?>
<svg height="140" width="140" xmlns="http://www.w3.org/2000/svg">
  <path d="M 40.984195709228516, 82.65108448266983 Q 41.72180659613169, 78.9843283458649, 43.89945159649312, 74.09591397449685 " fill="none" id="curve_1" stroke="#000000" stroke-linecap="round" stroke-linejoin="round" stroke-width="9.867094594344112"/>
  <path d="M 43.89945159649312, 74.09591397449685 Q 46.0912093329012, 67.98722336725466, 49.77049086647041, 57.979235321789574 " fill="none" id="curve_1" stroke="#000000" stroke-linecap="round" stroke-linejoin="round" stroke-width="5.502169580785153"/>
  <path d="M 49.77049086647041, 57.979235321789574 Q 51.00987185562785, 51.63312720006724, 52.43239630862833, 44.412159776059305 " fill="none" id="curve_1" stroke="#000000" stroke-linecap="round" stroke-linejoin="round" stroke-width="7.482322019707388"/>
  <path d="M 52.43239630862833, 44.412159776059305 Q 51.80926799949085, 33.41918368174535, 44.850509725809246, 31.328755172556548 " fill="none" id="curve_1" stroke="#000000" stroke-linecap="round" stroke-linejoin="round" stroke-width="9.500509422230031"/>
  <path d="M 44.850509725809246, 31.328755172556548 Q 35.130198868104735, 34.45275004686728, 21.37726368221457, 64.1172315151494 " fill="none" id="curve_1" stroke="#000000" stroke-linecap="round" stroke-linejoin="round" stroke-width="5.496434832451523"/>
  <path d="M 21.37726368221457, 64.1172315151494 Q 15.258362821360187, 73.10887288504426, 9.772905013349078, 97.73395477408971 " fill="none" id="curve_1" stroke="#000000" stroke-linecap="round" stroke-linejoin="round" stroke-width="6.115117195058322"/>
  <path d="M 9.772905013349078, 97.73395477408971 Q 11.779629376947037, 103.08409399349244, 21.553625078372455, 104.55094340042169 " fill="none" id="curve_1" stroke="#000000" stroke-linecap="round" stroke-linejoin="round" stroke-width="6.853482973190194"/>
  <path d="M 21.553625078372455, 104.55094340042169 Q 35.1313730819026, 100.853006778876, 40.62811350974211, 81.13057110680452 " fill="none" id="curve_1" stroke="#000000" stroke-linecap="round" stroke-linejoin="round" stroke-width="6.603876199065011"/>
  <path d="M 46.32569036131805, 42.995143912552294 Q 46.849244517388016, 41.56973313968683, 47.10204822278099, 35.34778397406177 " fill="none" id="curve_2" stroke="#000000" stroke-linecap="round" stroke-linejoin="round" stroke-width="5.610022082334074"/>
  <path d="M 40.50165352752536, 29.502091841485147 Q 31.56091703228725, 40.50017938617294, 17.974547362523182, 68.19571827183806 " fill="none" id="curve_3" stroke="#000000" stroke-linecap="round" stroke-linejoin="round" stroke-width="2.6100451252154238"/>
  <path d="M 29.562733347469173, 98.88009353262527 Q 23.458323948676068, 99.78917078408013, 20.566656166456646, 104.04118505127784 " fill="none" id="curve_4" stroke="#000000" stroke-linecap="round" stroke-linejoin="round" stroke-width="3.3963238071183555"/>
  <path d="M 20.566656166456646, 104.04118505127784 Q 30.72760351282073, 97.98873527093885, 40.689930687575284, 84.99972915347736 " fill="none" id="curve_4" stroke="#000000" stroke-linecap="round" stroke-linejoin="round" stroke-width="3.6370940379048435"/>
  <path d="M 40.689930687575284, 84.99972915347736 Q 33.851308161628616, 91.62631789901583, 21.59525883655257, 103.99498369801158 " fill="none" id="curve_4" stroke="#000000" stroke-linecap="round" stroke-linejoin="round" stroke-width="2.884046309476488"/>
  <path d="M 21.59525883655257, 103.99498369801158 Q 11.377714529205225, 103.17669207690167, 9.72923389839047, 89.95185538108655 " fill="none" id="curve_4" stroke="#000000" stroke-linecap="round" stroke-linejoin="round" stroke-width="4.53073328728635"/>
  <path d="M 15.3625949424451, 105.87393378338112 Q 14.477508381401028, 104.68245737933191, 13.646295160046098, 101.09117140607847 " fill="none" id="curve_5" stroke="#000000" stroke-linecap="round" stroke-linejoin="round" stroke-width="3.3189041260670162"/>
  <path d="M 13.646295160046098, 101.09117140607847 Q 12.377389897285584, 96.01276821297262, 10.211793622473005, 91.30519379217037 " fill="none" id="curve_5" stroke="#000000" stroke-linecap="round" stroke-linejoin="round" stroke-width="4.855310578476439"/>
  <path d="M 10.211793622473005, 91.30519379217037 Q 11.515929359167044, 77.92517881912326, 17.628137088194684, 68.19430867976234 " fill="none" id="curve_5" stroke="#000000" stroke-linecap="round" stroke-linejoin="round" stroke-width="3.1111336566693635"/>
  <path d="M 45.646653560863186, 43.61153519555408 Q 45.544633171856226, 42.313919805714036, 45.30774324169689, 40.70754946948998 " fill="none" id="curve_6" stroke="#000000" stroke-linecap="round" stroke-linejoin="round" stroke-width="3.5501539005057037"/>
  <path d="M 44.49018745427837, 79.571006484654 Q 38.93548615407282, 86.36823914775208, 28.14462262279092, 94.98290403175608 " fill="none" id="curve_7" stroke="#000000" stroke-linecap="round" stroke-linejoin="round" stroke-width="3.506143429586349"/>
  <path d="M 27.681471476567893, 48.144660989816344 Q 30.58100893555666, 40.10747365314404, 39.54574260312426, 32.554761053496 " fill="none" id="curve_9" stroke="#000000" stroke-linecap="round" stroke-linejoin="round" stroke-width="2.8914586866809233"/>
  <path d="M 44.01410796672644, 44.038102388720745 Q 44.4764270019333, 37.67241274138874, 47.87696578134467, 34.791708427230176 " fill="none" id="curve_24" stroke="#000000" stroke-linecap="round" stroke-linejoin="round" stroke-width="2.2201404947015266"/>
  <path d="M 47.87696578134467, 34.791708427230176 Q 45.48847235759752, 31.683123359948187, 39.70474374916759, 28.80939345932329 " fill="none" id="curve_24" stroke="#000000" stroke-linecap="round" stroke-linejoin="round" stroke-width="2.833478723722349"/>
  <path d="M 39.447412045993474, 32.91434634593401 Q 36.40955631893549, 32.96463981806735, 34.68167263248982, 33.23323622188042 " fill="none" id="curve_52" stroke="#000000" stroke-linecap="round" stroke-linejoin="round" stroke-width="2.8272877266695704"/>
  <path d="M 9.832136802077905, 91.32870090938016 Q 9.702394034042213, 92.5047802638666, 9.484900143157759, 94.46416098246492 " fill="none" id="curve_60" stroke="#000000" stroke-linecap="round" stroke-linejoin="round" stroke-width="4.1955216790567365"/>
  <path d="M 24.76071114088768, 100.081336928783 Q 19.044138519774652, 100.67157777497277, 16.22003027384652, 103.49979185202945 " fill="none" id="curve_88" stroke="#000000" stroke-linecap="round" stroke-linejoin="round" stroke-width="2.56953728855657"/>
  <path d="M 16.22003027384652, 103.49979185202945 Q 14.13560116834904, 97.52160461080112, 9.031097909273406, 92.48338326856612 " fill="none" id="curve_88" stroke="#000000" stroke-linecap="round" stroke-linejoin="round" stroke-width="4.275401155575028"/>
  <path d="M 37.80571373178016, 35.86109732796066 Q 30.890709501675502, 40.37983156279901, 25.374411428732486, 50.45422930501948 " fill="none" id="curve_124" stroke="#000000" stroke-linecap="round" stroke-linejoin="round" stroke-width="3.5389214907226907"/>
</svg>
