<?xml version="1.0" ?>
<svg height="140" width="140" xmlns="http://www.w3.org/2000/svg">
  <path d="M 35.642685890197754, 108.33140754699707 Q 32.05675857142049, 107.7056636186214, 31.20429277537761, 97.3301202624142 " fill="none" id="curve_1" stroke="#000000" stroke-linecap="round" stroke-linejoin="round" stroke-width="5.469099876718617"/>
  <path d="M 31.20429277537761, 97.3301202624142 Q 31.85899943658028, 89.30738653494342, 33.97904888160805, 77.64871301576974 " fill="none" id="curve_1" stroke="#000000" stroke-linecap="round" stroke-linejoin="round" stroke-width="4.578499504682557"/>
  <path d="M 33.97904888160805, 77.64871301576974 Q 37.76629775562889, 70.05770107067876, 43.73960345346813, 59.01133862839819 " fill="none" id="curve_1" stroke="#000000" stroke-linecap="round" stroke-linejoin="round" stroke-width="4.950832227109753"/>
  <path d="M 43.73960345346813, 59.01133862839819 Q 49.41746076788063, 58.944436728248306, 50.307088503785906, 57.92917186346047 " fill="none" id="curve_1" stroke="#000000" stroke-linecap="round" stroke-linejoin="round" stroke-width="4.6804521905612"/>
  <path d="M 50.307088503785906, 57.92917186346047 Q 65.96129233884461, 58.68098502576401, 67.18621826571095, 74.08859908635642 " fill="none" id="curve_1" stroke="#000000" stroke-linecap="round" stroke-linejoin="round" stroke-width="3.737155539172491"/>
  <path d="M 67.18621826571095, 74.08859908635642 Q 64.82895817804241, 79.06811873894695, 62.51296326150496, 86.01829291725056 " fill="none" id="curve_1" stroke="#000000" stroke-linecap="round" stroke-linejoin="round" stroke-width="2.4141623693439085"/>
  <path d="M 43.514999054257004, 109.28950998607462 Q 41.242628739028675, 109.51176167708607, 36.54652310476839, 109.65577633013 " fill="none" id="curve_2" stroke="#000000" stroke-linecap="round" stroke-linejoin="round" stroke-width="7.011654717129396"/>
  <path d="M 59.748034721849876, 90.0021625131168 Q 60.46889387879817, 89.800775976774, 61.020359675705194, 89.10820898113289 " fill="none" id="curve_3" stroke="#000000" stroke-linecap="round" stroke-linejoin="round" stroke-width="2.5098687842293215"/>
  <path d="M 47.0128614372591, 57.784931580819645 Q 44.98626058421678, 61.95119364879942, 38.68972030694167, 64.2844929776724 " fill="none" id="curve_4" stroke="#000000" stroke-linecap="round" stroke-linejoin="round" stroke-width="3.7054188432905564"/>
  <path d="M 90.3905739486285, 2.023496652068271 Q 90.21867436533505, 2.8138556137028536, 89.71962011137404, 3.9054340957642855 " fill="none" id="curve_12" stroke="#000000" stroke-linecap="round" stroke-linejoin="round" stroke-width="2.047261031865912"/>
  <path d="M 62.82024069958217, 64.99552204859623 Q 59.91342873357779, 62.31698383820404, 55.113350891280085, 57.91970736905295 " fill="none" id="curve_14" stroke="#000000" stroke-linecap="round" stroke-linejoin="round" stroke-width="2.436298189672659"/>
  <path d="M 39.98807322070489, 63.05157015055509 Q 45.66821565235303, 61.686021049786284, 49.82072469389805, 57.6280840799914 " fill="none" id="curve_25" stroke="#000000" stroke-linecap="round" stroke-linejoin="round" stroke-width="3.163432498388439"/>
  <path d="M 49.82072469389805, 57.6280840799914 Q 48.56530688053763, 57.661368482301185, 45.732424069204086, 57.699705573557765 " fill="none" id="curve_25" stroke="#000000" stroke-linecap="round" stroke-linejoin="round" stroke-width="4.435295593790809"/>
  <path d="M 89.27447538022602, 137.49851706811737 Q 89.41816703821361, 138.09958415075516, 89.62339153599447, 139.11561471985252 " fill="none" id="curve_36" stroke="#000000" stroke-linecap="round" stroke-linejoin="round" stroke-width="1.8058200468224215"/>
  <path d="M 48.91975675487968, 58.831543521658816 Q 49.19264972142723, 59.907361441358844, 50.18759282083291, 60.44988657925609 " fill="none" id="curve_41" stroke="#000000" stroke-linecap="round" stroke-linejoin="round" stroke-width="3.6421681341172625"/>
  <path d="M 64.66572498206096, 74.9378352598942 Q 65.83724974237761, 74.62119829288996, 66.18498948925198, 71.14158282844254 " fill="none" id="curve_56" stroke="#000000" stroke-linecap="round" stroke-linejoin="round" stroke-width="2.822093498975109"/>
  <path d="M 44.56837978967597, 106.91956972777842 Q 44.376438540958084, 109.82236439725506, 39.304809521566945, 110.0938079346348 " fill="none" id="curve_57" stroke="#000000" stroke-linecap="round" stroke-linejoin="round" stroke-width="2.905031428942867"/>
  <path d="M 39.304809521566945, 110.0938079346348 Q 35.37530363983741, 109.43739284637519, 32.35508374744955, 108.02872423972009 " fill="none" id="curve_57" stroke="#000000" stroke-linecap="round" stroke-linejoin="round" stroke-width="2.891132563226527"/>
  <path d="M 32.23371831676346, 79.42995351839878 Q 32.39297267775476, 79.3593402352853, 32.53052466528823, 79.17543091262132 " fill="none" id="curve_58" stroke="#000000" stroke-linecap="round" stroke-linejoin="round" stroke-width="2.1153200696612915"/>
  <path d="M 41.91100248341447, 60.249504342094745 Q 40.775949004472686, 61.51014226207911, 39.5398008422969, 63.85925313788366 " fill="none" id="curve_59" stroke="#000000" stroke-linecap="round" stroke-linejoin="round" stroke-width="2.7314223763229575"/>
</svg>
