<?xml version="1.0" ?>
<svg height="140" width="140" xmlns="http://www.w3.org/2000/svg">
  <path d="M 59.3629035949707, 51.18537521362305 Q 60.0473437569066, 51.841522886533525, 61.03046245848552, 53.41205689355132 " fill="none" id="curve_1" stroke="#000000" stroke-linecap="round" stroke-linejoin="round" stroke-width="11.399888233268372"/>
  <path d="M 61.03046245848552, 53.41205689355132 Q 61.54866863226177, 55.25257214762384, 64.5838069945399, 56.88054073706786 " fill="none" id="curve_1" stroke="#000000" stroke-linecap="round" stroke-linejoin="round" stroke-width="6.237178248642434"/>
  <path d="M 64.5838069945399, 56.88054073706786 Q 61.82295084457708, 59.63974651686291, 56.24610991629389, 61.88194487432661 " fill="none" id="curve_1" stroke="#000000" stroke-linecap="round" stroke-linejoin="round" stroke-width="7.0936691751388175"/>
  <path d="M 56.24610991629389, 61.88194487432661 Q 55.76910493581465, 90.56231457431448, 46.14154876364162, 101.12234047580986 " fill="none" id="curve_1" stroke="#000000" stroke-linecap="round" stroke-linejoin="round" stroke-width="7.040787725540323"/>
  <path d="M 46.14154876364162, 101.12234047580986 Q 40.93314696247007, 114.35287793757024, 26.73153337955464, 122.59379596660865 " fill="none" id="curve_1" stroke="#000000" stroke-linecap="round" stroke-linejoin="round" stroke-width="7.318326028565302"/>
  <path d="M 26.73153337955464, 122.59379596660865 Q 10.282157699448582, 121.61343864313228, 7.563112767956138, 106.74856125585792 " fill="none" id="curve_1" stroke="#000000" stroke-linecap="round" stroke-linejoin="round" stroke-width="7.602635050856767"/>
  <path d="M 7.563112767956138, 106.74856125585792 Q 10.033224725428683, 90.57513644426132, 20.281329037927804, 68.01587874284303 " fill="none" id="curve_1" stroke="#000000" stroke-linecap="round" stroke-linejoin="round" stroke-width="8.934132563819638"/>
  <path d="M 20.281329037927804, 68.01587874284303 Q 28.819433959705, 59.79689147703691, 38.96048899950418, 47.948878785893086 " fill="none" id="curve_1" stroke="#000000" stroke-linecap="round" stroke-linejoin="round" stroke-width="10.177156177712716"/>
  <path d="M 38.96048899950418, 47.948878785893086 Q 51.98196154427961, 48.38205573495422, 58.55580977491833, 49.58768886725281 " fill="none" id="curve_1" stroke="#000000" stroke-linecap="round" stroke-linejoin="round" stroke-width="9.341470554727563"/>
  <path d="M 15.539520438669932, 115.15818925164669 Q 17.058566095098506, 119.55753652819871, 27.976590631863445, 120.5035468672268 " fill="none" id="curve_4" stroke="#000000" stroke-linecap="round" stroke-linejoin="round" stroke-width="4.07842811852629"/>
  <path d="M 27.976590631863445, 120.5035468672268 Q 34.91443741434299, 112.810561306201, 45.07616408102625, 102.49602970271806 " fill="none" id="curve_4" stroke="#000000" stroke-linecap="round" stroke-linejoin="round" stroke-width="4.800524110612005"/>
  <path d="M 66.19564537100621, 61.261859904671 Q 65.243135135112, 61.20840789571752, 63.67986613409012, 61.14466999764249 " fill="none" id="curve_6" stroke="#000000" stroke-linecap="round" stroke-linejoin="round" stroke-width="4.7263966792450205"/>
  <path d="M 26.53720901979079, 54.69699453309593 Q 33.04762619157646, 49.64428770595898, 52.65748819487787, 44.51124214791301 " fill="none" id="curve_8" stroke="#000000" stroke-linecap="round" stroke-linejoin="round" stroke-width="3.1984647064273375"/>
  <path d="M 20.791047273509797, 61.563418657388475 Q 15.274561774147145, 69.44956726602574, 9.03481113509715, 88.49281917083047 " fill="none" id="curve_9" stroke="#000000" stroke-linecap="round" stroke-linejoin="round" stroke-width="3.842976431756399"/>
  <path d="M 46.800266276686216, 102.329692609827 Q 50.260081058564474, 90.86093753808738, 55.6960212446918, 72.51971434295615 " fill="none" id="curve_15" stroke="#000000" stroke-linecap="round" stroke-linejoin="round" stroke-width="3.7607511405769825"/>
  <path d="M 52.382541309402605, 47.30753123660723 Q 51.85233955540232, 45.05918225844781, 47.15120498884685, 44.218924521057 " fill="none" id="curve_16" stroke="#000000" stroke-linecap="round" stroke-linejoin="round" stroke-width="3.2129391190117156"/>
  <path d="M 8.499553413098972, 107.2975039214846 Q 11.617400865767522, 109.86541746048088, 14.041739108917227, 114.66528305404186 " fill="none" id="curve_21" stroke="#000000" stroke-linecap="round" stroke-linejoin="round" stroke-width="3.969805756248067"/>
  <path d="M 55.23384414553923, 67.39218686954558 Q 55.99051260452615, 66.77067161669684, 56.375683557972934, 62.617468192262294 " fill="none" id="curve_22" stroke="#000000" stroke-linecap="round" stroke-linejoin="round" stroke-width="6.635370175133577"/>
  <path d="M 56.375683557972934, 62.617468192262294 Q 55.586215886215975, 62.60273558638053, 54.932213750082155, 62.55397280554249 " fill="none" id="curve_22" stroke="#000000" stroke-linecap="round" stroke-linejoin="round" stroke-width="5.68639646977462"/>
  <path d="M 46.78524127749539, 103.6951837526313 Q 48.36715109196338, 97.0042462976037, 51.133653503338095, 89.14776020311899 " fill="none" id="curve_23" stroke="#000000" stroke-linecap="round" stroke-linejoin="round" stroke-width="5.20790253700572"/>
  <path d="M 44.3675346210133, 104.18830567581648 Q 48.93722816396133, 99.29963262867786, 52.64994761241772, 85.03667048217588 " fill="none" id="curve_24" stroke="#000000" stroke-linecap="round" stroke-linejoin="round" stroke-width="3.847827409146859"/>
  <path d="M 44.86664435570762, 103.26711156305021 Q 48.06730552491136, 100.15955240205622, 51.135380722325955, 92.86988593918107 " fill="none" id="curve_25" stroke="#000000" stroke-linecap="round" stroke-linejoin="round" stroke-width="4.9928612172260625"/>
  <path d="M 51.47618030756656, 96.86409963101434 Q 48.18506088286437, 101.98559271758515, 39.17500837297526, 105.82801179416685 " fill="none" id="curve_28" stroke="#000000" stroke-linecap="round" stroke-linejoin="round" stroke-width="4.195114330349485"/>
  <path d="M 18.63365059680304, 122.95294424975799 Q 18.435877045377254, 123.02355620357066, 18.268862134168163, 123.17891719937217 " fill="none" id="curve_29" stroke="#000000" stroke-linecap="round" stroke-linejoin="round" stroke-width="5.649426354469275"/>
  <path d="M 18.268862134168163, 123.17891719937217 Q 20.235863029146692, 119.91593806924116, 30.432352399049616, 118.73516876493255 " fill="none" id="curve_29" stroke="#000000" stroke-linecap="round" stroke-linejoin="round" stroke-width="4.6773336188362515"/>
  <path d="M 57.11593618280054, 68.01464821240498 Q 57.07920495074953, 65.81511971648064, 57.04361733068863, 58.24945172295762 " fill="none" id="curve_33" stroke="#000000" stroke-linecap="round" stroke-linejoin="round" stroke-width="4.4805143179656355"/>
  <path d="M 44.1894066680144, 47.241055556693645 Q 38.67218521218571, 49.42480275609658, 30.24597731878869, 53.179993524618844 " fill="none" id="curve_44" stroke="#000000" stroke-linecap="round" stroke-linejoin="round" stroke-width="5.1474923508988"/>
  <path d="M 41.41621208190918, 44.29422378540039 Q 40.79915739431291, 49.30580992560368, 38.03205248572323, 53.48601457938253 " fill="none" id="curve_58" stroke="#000000" stroke-linecap="round" stroke-linejoin="round" stroke-width="4.063847139685051"/>
  <path d="M 43.63492261614627, 45.751798502546905 Q 35.88086196017922, 46.80131285569975, 31.276076456129488, 51.17330693310518 " fill="none" id="curve_60" stroke="#000000" stroke-linecap="round" stroke-linejoin="round" stroke-width="4.418214132877914"/>
  <path d="M 55.9490852355957, 59.13966369628906 Q 57.67072304343122, 63.11313141333239, 59.683764962712736, 68.18386733604012 " fill="none" id="curve_74" stroke="#000000" stroke-linecap="round" stroke-linejoin="round" stroke-width="3.126295650300143"/>
  <path d="M 58.02012688040621, 53.4656209058566 Q 60.225346506264856, 51.58423908485458, 63.13123780600383, 49.024780001692555 " fill="none" id="curve_75" stroke="#000000" stroke-linecap="round" stroke-linejoin="round" stroke-width="3.5207330295574795"/>
  <path d="M 46.456398010253906, 43.558491706848145 Q 50.17403526065125, 47.16956306770591, 56.286056032138845, 54.16267030022584 " fill="none" id="curve_89" stroke="#000000" stroke-linecap="round" stroke-linejoin="round" stroke-width="2.455079966465765"/>
  <path d="M 47.92292022705078, 91.35158157348633 Q 45.89251325157324, 99.20853363905731, 40.8165228157406, 105.1478338012837 " fill="none" id="curve_103" stroke="#000000" stroke-linecap="round" stroke-linejoin="round" stroke-width="3.719479272293492"/>
</svg>
