<?xml version="1.0" ?>
<svg height="140" width="140" xmlns="http://www.w3.org/2000/svg">
  <path d="M 57.64990949630737, 24.09175682067871 Q 57.37649419953389, 22.128219862825496, 52.885546459338684, 21.70330083343015 " fill="none" id="curve_1" stroke="#000000" stroke-linecap="round" stroke-linejoin="round" stroke-width="5.640573224773189"/>
  <path d="M 52.885546459338684, 21.70330083343015 Q 45.79716170781626, 23.844789822105632, 39.640376397321575, 34.17933140681775 " fill="none" id="curve_1" stroke="#000000" stroke-linecap="round" stroke-linejoin="round" stroke-width="5.512940219085398"/>
  <path d="M 39.640376397321575, 34.17933140681775 Q 34.33388317689363, 39.54335733331496, 21.895452288337005, 59.357109050490564 " fill="none" id="curve_1" stroke="#000000" stroke-linecap="round" stroke-linejoin="round" stroke-width="4.812983955277603"/>
  <path d="M 21.895452288337005, 59.357109050490564 Q 16.859281513487787, 67.73486789641447, 7.789683906162432, 87.58103095147719 " fill="none" id="curve_1" stroke="#000000" stroke-linecap="round" stroke-linejoin="round" stroke-width="5.141356866159268"/>
  <path d="M 7.789683906162432, 87.58103095147719 Q 7.80018441869992, 100.98331867182108, 7.86688474747896, 104.39534846129902 " fill="none" id="curve_1" stroke="#000000" stroke-linecap="round" stroke-linejoin="round" stroke-width="4.938018606232651"/>
  <path d="M 7.86688474747896, 104.39534846129902 Q 23.43814367826865, 101.95992553515946, 37.64226915734925, 81.5764086286978 " fill="none" id="curve_1" stroke="#000000" stroke-linecap="round" stroke-linejoin="round" stroke-width="4.728292106520708"/>
  <path d="M 37.64226915734925, 81.5764086286978 Q 44.93266681890013, 75.10801247840777, 55.2899492229079, 48.69776645228642 " fill="none" id="curve_1" stroke="#000000" stroke-linecap="round" stroke-linejoin="round" stroke-width="6.522452518639226"/>
  <path d="M 55.2899492229079, 48.69776645228642 Q 57.31813705820695, 45.986858702247915, 57.88352891507976, 25.762589617990095 " fill="none" id="curve_1" stroke="#000000" stroke-linecap="round" stroke-linejoin="round" stroke-width="5.811763866427182"/>
  <path d="M 46.02955886345478, 74.89157386207657 Q 46.62096945040801, 73.10913214813233, 47.12211870728909, 69.6894761354664 " fill="none" id="curve_3" stroke="#000000" stroke-linecap="round" stroke-linejoin="round" stroke-width="5.258113194743709"/>
  <path d="M 47.12211870728909, 69.6894761354664 Q 51.953850862640905, 62.423427878868644, 55.21954209473539, 41.437819721786 " fill="none" id="curve_3" stroke="#000000" stroke-linecap="round" stroke-linejoin="round" stroke-width="3.670316202000795"/>
  <path d="M 37.34651543968146, 80.79702240960894 Q 42.0193436933177, 73.99489621770608, 49.21985049837195, 63.94595195114943 " fill="none" id="curve_9" stroke="#000000" stroke-linecap="round" stroke-linejoin="round" stroke-width="2.835170605052244"/>
  <path d="M 47.394927411327735, 30.22301943583617 Q 46.39488366601432, 27.79888057219767, 44.83312497614661, 24.463362688830273 " fill="none" id="curve_10" stroke="#000000" stroke-linecap="round" stroke-linejoin="round" stroke-width="5.066224994589853"/>
  <path d="M 35.65962536934792, 37.60943072440982 Q 28.788668820710818, 46.36526065021805, 12.323646768692736, 74.56700062773636 " fill="none" id="curve_11" stroke="#000000" stroke-linecap="round" stroke-linejoin="round" stroke-width="2.735145164382948"/>
  <path d="M 27.89354544697107, 91.18107133378987 Q 23.995560892040523, 98.00003000763367, 12.62317557773101, 103.60038789566067 " fill="none" id="curve_15" stroke="#000000" stroke-linecap="round" stroke-linejoin="round" stroke-width="3.2852051703380596"/>
  <path d="M 12.62317557773101, 103.60038789566067 Q 10.087821903342759, 103.1309790822135, 7.274856858987856, 102.32172706739284 " fill="none" id="curve_15" stroke="#000000" stroke-linecap="round" stroke-linejoin="round" stroke-width="4.817423525988873"/>
  <path d="M 12.68648984748856, 76.09235827818836 Q 9.870482431252887, 78.19525653304046, 8.149987875232195, 87.21497214439816 " fill="none" id="curve_20" stroke="#000000" stroke-linecap="round" stroke-linejoin="round" stroke-width="2.4644512006189845"/>
  <path d="M 6.550179449221021, 101.30879083511878 Q 6.349872571971732, 100.17356509018576, 6.037780746078579, 98.27916332729717 " fill="none" id="curve_21" stroke="#000000" stroke-linecap="round" stroke-linejoin="round" stroke-width="2.927412906008391"/>
  <path d="M 13.88511095300856, 103.98575524498516 Q 21.297506516773595, 101.79835593971997, 25.309097778678026, 92.07946856171316 " fill="none" id="curve_22" stroke="#000000" stroke-linecap="round" stroke-linejoin="round" stroke-width="3.2233350184649647"/>
  <path d="M 47.83673450506757, 61.34484383280149 Q 51.83816361509675, 56.68954040566461, 55.667604263797315, 47.31753507990015 " fill="none" id="curve_24" stroke="#000000" stroke-linecap="round" stroke-linejoin="round" stroke-width="3.49636757071408"/>
  <path d="M 55.667604263797315, 47.31753507990015 Q 52.506906302912135, 52.59079855890002, 48.98446966655008, 62.06344598993058 " fill="none" id="curve_24" stroke="#000000" stroke-linecap="round" stroke-linejoin="round" stroke-width="2.8690637809355777"/>
  <path d="M 48.98446966655008, 62.06344598993058 Q 50.75102785942453, 54.17253256889626, 55.74519662744319, 48.53730145950797 " fill="none" id="curve_24" stroke="#000000" stroke-linecap="round" stroke-linejoin="round" stroke-width="3.694761908936061"/>
  <path d="M 55.74519662744319, 48.53730145950797 Q 53.308131651384414, 51.69244165335501, 50.78557106821114, 58.32254948711022 " fill="none" id="curve_24" stroke="#000000" stroke-linecap="round" stroke-linejoin="round" stroke-width="3.939385224218101"/>
  <path d="M 89.79504651790654, 1.489694340489507 Q 89.79825331510985, 2.4440128954244087, 89.80776386758804, 3.613130792860051 " fill="none" id="curve_28" stroke="#000000" stroke-linecap="round" stroke-linejoin="round" stroke-width="1.7186986872552175"/>
  <path d="M 32.79529673459065, 86.29551230249076 Q 30.371334010472047, 89.2369723335966, 24.939250415377668, 92.8412051802061 " fill="none" id="curve_31" stroke="#000000" stroke-linecap="round" stroke-linejoin="round" stroke-width="3.141574480541119"/>
  <path d="M 45.415910720825195, 23.15827178955078 Q 55.898781972818284, 23.40562115580052, 57.75426853617745, 26.36129104174897 " fill="none" id="curve_45" stroke="#000000" stroke-linecap="round" stroke-linejoin="round" stroke-width="2.565386125641344"/>
  <path d="M 59.270529856425874, 41.507876104801724 Q 59.13462379573259, 38.94621624901642, 58.214127886084846, 38.293499704813385 " fill="none" id="curve_46" stroke="#000000" stroke-linecap="round" stroke-linejoin="round" stroke-width="2.8459415934926757"/>
  <path d="M 51.6722349464023, 54.2788629709666 Q 51.8592575940106, 53.55528494463388, 52.03628246289193, 51.855647280212466 " fill="none" id="curve_47" stroke="#000000" stroke-linecap="round" stroke-linejoin="round" stroke-width="4.630932060814889"/>
  <path d="M 12.118320244789743, 104.19671381668195 Q 15.453418635451673, 101.28074512751425, 20.99387833430908, 98.16039962457737 " fill="none" id="curve_62" stroke="#000000" stroke-linecap="round" stroke-linejoin="round" stroke-width="3.067084958870769"/>
  <path d="M 38.7653250727383, 35.729245377510225 Q 35.64261853146476, 36.80823515765515, 32.44636181687251, 39.5367253508791 " fill="none" id="curve_66" stroke="#000000" stroke-linecap="round" stroke-linejoin="round" stroke-width="3.236836230532349"/>
  <path d="M 55.37492683831135, 52.04533747218943 Q 54.84671321098486, 57.25535073101359, 49.742135253600544, 58.69917731359841 " fill="none" id="curve_81" stroke="#000000" stroke-linecap="round" stroke-linejoin="round" stroke-width="3.304411234757961"/>
  <path d="M 57.052052981740786, 23.931398029572943 Q 57.12239646040083, 23.02568844676244, 57.31440412655647, 22.07439391257842 " fill="none" id="curve_86" stroke="#000000" stroke-linecap="round" stroke-linejoin="round" stroke-width="2.814045646646907"/>
  <path d="M 17.633294280380678, 64.08267227510159 Q 22.023601559302048, 63.601864939064555, 23.19024052413838, 59.716610523301206 " fill="none" id="curve_102" stroke="#000000" stroke-linecap="round" stroke-linejoin="round" stroke-width="2.8914001348739147"/>
  <path d="M 42.165711912814544, 71.01825905684302 Q 43.733890943096185, 67.88985473617115, 47.67233895424317, 65.46287655573929 " fill="none" id="curve_117" stroke="#000000" stroke-linecap="round" stroke-linejoin="round" stroke-width="2.322514115200053"/>
  <path d="M 9.002976454895146, 89.19338711691822 Q 9.73873449276001, 87.49027025314945, 11.10546652919017, 85.70565986731486 " fill="none" id="curve_120" stroke="#000000" stroke-linecap="round" stroke-linejoin="round" stroke-width="2.6457804237196405"/>
  <path d="M 13.613911098376661, 102.25567291047564 Q 17.65597927843158, 100.73798398052395, 21.102280511872298, 97.56486313306681 " fill="none" id="curve_125" stroke="#000000" stroke-linecap="round" stroke-linejoin="round" stroke-width="3.3610766946817643"/>
</svg>
