<?xml version="1.0" ?>
<svg height="140" width="140" xmlns="http://www.w3.org/2000/svg">
  <path d="M 17.55959415435791, 83.12751770019531 Q 19.083970831644972, 74.97646719629151, 30.147665935095006, 67.82591878899325 " fill="none" id="curve_1" stroke="#000000" stroke-linecap="round" stroke-linejoin="round" stroke-width="5.505671226182903"/>
  <path d="M 30.147665935095006, 67.82591878899325 Q 34.095962814984254, 66.35174598267017, 37.95058494433745, 63.45576045480511 " fill="none" id="curve_1" stroke="#000000" stroke-linecap="round" stroke-linejoin="round" stroke-width="8.500199140593612"/>
  <path d="M 37.95058494433745, 63.45576045480511 Q 48.15330470776367, 63.83290344527127, 48.699470750994195, 75.75232800940117 " fill="none" id="curve_1" stroke="#000000" stroke-linecap="round" stroke-linejoin="round" stroke-width="5.981545864150125"/>
  <path d="M 48.699470750994195, 75.75232800940117 Q 46.63635832398416, 92.43070183108287, 24.140766881835052, 101.29327969315507 " fill="none" id="curve_1" stroke="#000000" stroke-linecap="round" stroke-linejoin="round" stroke-width="5.5689206191912275"/>
  <path d="M 24.140766881835052, 101.29327969315507 Q 22.94139704763591, 103.23697075181067, 14.133170316122213, 103.60520350922233 " fill="none" id="curve_1" stroke="#000000" stroke-linecap="round" stroke-linejoin="round" stroke-width="4.848003056915894"/>
  <path d="M 14.133170316122213, 103.60520350922233 Q 14.176687134894221, 85.3561460145888, 17.020697449771326, 84.19712733195306 " fill="none" id="curve_1" stroke="#000000" stroke-linecap="round" stroke-linejoin="round" stroke-width="4.791899694249292"/>
  <path d="M 17.020697449771326, 84.19712733195306 Q 21.12981865895872, 79.32282548128084, 25.143692358050494, 71.89368519998078 " fill="none" id="curve_1" stroke="#000000" stroke-linecap="round" stroke-linejoin="round" stroke-width="3.7175122928210516"/>
  <path d="M 33.89390311027233, 61.22272345101767 Q 32.78063655885565, 60.86684822310232, 30.957439952235568, 60.5281422646372 " fill="none" id="curve_2" stroke="#000000" stroke-linecap="round" stroke-linejoin="round" stroke-width="3.870071608817359"/>
  <path d="M 11.050801775157652, 92.92439999375364 Q 15.360549861138647, 84.34987600247754, 25.593024476872138, 70.4713350579423 " fill="none" id="curve_3" stroke="#000000" stroke-linecap="round" stroke-linejoin="round" stroke-width="2.581763502565017"/>
  <path d="M 10.666135319920928, 100.89172191406954 Q 11.484310339184397, 98.30044332795919, 12.231621095777427, 90.33085093517646 " fill="none" id="curve_4" stroke="#000000" stroke-linecap="round" stroke-linejoin="round" stroke-width="3.021833048498975"/>
  <path d="M 12.231621095777427, 90.33085093517646 Q 16.99480309605826, 81.29223097947381, 26.54375552891137, 70.41206673309242 " fill="none" id="curve_4" stroke="#000000" stroke-linecap="round" stroke-linejoin="round" stroke-width="2.8211068711592855"/>
  <path d="M 26.54375552891137, 70.41206673309242 Q 18.070188316073125, 75.57217785626405, 12.474517647371133, 89.90180768366156 " fill="none" id="curve_4" stroke="#000000" stroke-linecap="round" stroke-linejoin="round" stroke-width="3.3903243595023005"/>
  <path d="M 49.98160728343134, 75.84196379735072 Q 44.83646512916293, 82.5831090571491, 38.4923012287315, 91.36194191125871 " fill="none" id="curve_6" stroke="#000000" stroke-linecap="round" stroke-linejoin="round" stroke-width="3.4489669916901775"/>
  <path d="M 49.62444021918955, 71.56300958342085 Q 49.20120542244139, 70.81964336643253, 48.823064697668656, 69.22429122079994 " fill="none" id="curve_7" stroke="#000000" stroke-linecap="round" stroke-linejoin="round" stroke-width="4.9577559645967515"/>
  <path d="M 48.823064697668656, 69.22429122079994 Q 46.94520412968222, 63.22734668138237, 36.32353439624387, 60.51147914477745 " fill="none" id="curve_7" stroke="#000000" stroke-linecap="round" stroke-linejoin="round" stroke-width="3.295445238181775"/>
  <path d="M 20.65108579468619, 102.15667114033809 Q 18.605956859611933, 103.51311900547807, 15.817577819961452, 105.22205209028192 " fill="none" id="curve_31" stroke="#000000" stroke-linecap="round" stroke-linejoin="round" stroke-width="3.850662779316277"/>
  <path d="M 42.08984438550281, 67.38142586826537 Q 42.81994727258619, 69.0816472057492, 45.07273946495603, 70.53750427214113 " fill="none" id="curve_32" stroke="#000000" stroke-linecap="round" stroke-linejoin="round" stroke-width="3.3869368977545036"/>
</svg>
