<?xml version="1.0" ?>
<svg height="140" width="140" xmlns="http://www.w3.org/2000/svg">
  <path d="M 50.24730682373047, 24.87765407562256 Q 49.7289683261222, 23.672004735279298, 45.68438207713103, 23.1613229544393 " fill="none" id="curve_1" stroke="#000000" stroke-linecap="round" stroke-linejoin="round" stroke-width="4.805432099508326"/>
  <path d="M 45.68438207713103, 23.1613229544393 Q 37.270557925207086, 27.033673451120173, 25.315377074818706, 47.088781325654395 " fill="none" id="curve_1" stroke="#000000" stroke-linecap="round" stroke-linejoin="round" stroke-width="4.564732078908158"/>
  <path d="M 25.315377074818706, 47.088781325654395 Q 23.017173682767798, 57.514310564617716, 19.55732619612847, 73.88893996438715 " fill="none" id="curve_1" stroke="#000000" stroke-linecap="round" stroke-linejoin="round" stroke-width="5.117136196553526"/>
  <path d="M 19.55732619612847, 73.88893996438715 Q 21.025372246200384, 89.08797791400943, 32.76779703491799, 91.84077891731107 " fill="none" id="curve_1" stroke="#000000" stroke-linecap="round" stroke-linejoin="round" stroke-width="4.456529244805366"/>
  <path d="M 32.76779703491799, 91.84077891731107 Q 54.624598344288714, 90.86668776672097, 59.55064586325655, 69.48986992480775 " fill="none" id="curve_1" stroke="#000000" stroke-linecap="round" stroke-linejoin="round" stroke-width="5.252211200328563"/>
  <path d="M 59.55064586325655, 69.48986992480775 Q 60.95236579909701, 63.31712099395389, 62.58153088211072, 55.16330730493068 " fill="none" id="curve_1" stroke="#000000" stroke-linecap="round" stroke-linejoin="round" stroke-width="5.016493357113732"/>
  <path d="M 62.58153088211072, 55.16330730493068 Q 62.270256679558386, 30.356670888085223, 49.38860407937577, 23.976567261420502 " fill="none" id="curve_1" stroke="#000000" stroke-linecap="round" stroke-linejoin="round" stroke-width="3.914392112019475"/>
  <path d="M 28.682596278115042, 38.02339084423327 Q 27.438035792401173, 51.19523321350046, 22.242325316994766, 58.174276578275474 " fill="none" id="curve_2" stroke="#000000" stroke-linecap="round" stroke-linejoin="round" stroke-width="2.6164161536871524"/>
  <path d="M 28.837143096336263, 89.93679798105791 Q 50.34078037625068, 89.64237688850784, 52.61000133893069, 79.46648750992787 " fill="none" id="curve_3" stroke="#000000" stroke-linecap="round" stroke-linejoin="round" stroke-width="2.929160237832476"/>
  <path d="M 52.61000133893069, 79.46648750992787 Q 57.58531422184376, 76.14305830266687, 60.050528739203, 61.38416811468157 " fill="none" id="curve_3" stroke="#000000" stroke-linecap="round" stroke-linejoin="round" stroke-width="3.462009557207912"/>
  <path d="M 90.77497855057257, 61.045379344442985 Q 89.90831780000741, 62.01193080662229, 89.79258233527429, 85.4108288059207 " fill="none" id="curve_4" stroke="#000000" stroke-linecap="round" stroke-linejoin="round" stroke-width="1.9481323937378021"/>
  <path d="M 89.79258233527429, 85.4108288059207 Q 89.77810182246957, 100.5748299361102, 89.664460531194, 115.92027235729451 " fill="none" id="curve_4" stroke="#000000" stroke-linecap="round" stroke-linejoin="round" stroke-width="1.6660159255962035"/>
  <path d="M 89.664460531194, 115.92027235729451 Q 89.64788990157122, 133.4765879093281, 89.52913935587662, 138.95580159732913 " fill="none" id="curve_4" stroke="#000000" stroke-linecap="round" stroke-linejoin="round" stroke-width="1.7990425086688504"/>
  <path d="M 89.52913935587662, 138.95580159732913 Q 89.284839549013, 138.74814651083534, 88.75684568574371, 138.56974650807118 " fill="none" id="curve_4" stroke="#000000" stroke-linecap="round" stroke-linejoin="round" stroke-width="1.8546415322433023"/>
  <path d="M 89.82273946515033, 59.060383290219455 Q 89.74958395430791, 56.110523914091914, 89.6992342365254, 39.68035747733023 " fill="none" id="curve_10" stroke="#000000" stroke-linecap="round" stroke-linejoin="round" stroke-width="1.6070990038856097"/>
  <path d="M 89.6992342365254, 39.68035747733023 Q 89.70509781729189, 35.73737234748995, 89.71168586700048, 25.4967249438268 " fill="none" id="curve_10" stroke="#000000" stroke-linecap="round" stroke-linejoin="round" stroke-width="1.5016341561883904"/>
  <path d="M 89.71168586700048, 25.4967249438268 Q 89.67512477677612, 22.683025334698094, 89.64609195082349, 11.905520176957264 " fill="none" id="curve_10" stroke="#000000" stroke-linecap="round" stroke-linejoin="round" stroke-width="1.4381654366954666"/>
  <path d="M 89.64609195082349, 11.905520176957264 Q 89.5378654532187, 5.603539634504922, 89.20351062997611, 0.9738052079679296 " fill="none" id="curve_10" stroke="#000000" stroke-linecap="round" stroke-linejoin="round" stroke-width="1.7140003138154578"/>
  <path d="M 89.20351062997611, 0.9738052079679296 Q 88.95587069149204, 1.1472340234323573, 88.75697196231799, 1.5183371316257053 " fill="none" id="curve_10" stroke="#000000" stroke-linecap="round" stroke-linejoin="round" stroke-width="2.4476533099169955"/>
  <path d="M 58.88731267115191, 32.74836083687066 Q 55.52933166309896, 29.21227983474234, 50.501850465741036, 23.261984062197904 " fill="none" id="curve_17" stroke="#000000" stroke-linecap="round" stroke-linejoin="round" stroke-width="2.843185437181804"/>
  <path d="M 34.312980982517566, 33.020696663652195 Q 38.595064817687366, 30.307149435664506, 43.37931449582176, 26.39721664190591 " fill="none" id="curve_18" stroke="#000000" stroke-linecap="round" stroke-linejoin="round" stroke-width="2.779570374735852"/>
  <path d="M 19.294304452021755, 64.11719999173181 Q 20.666317487808364, 59.82984719557551, 23.79509400801271, 55.60833694659579 " fill="none" id="curve_21" stroke="#000000" stroke-linecap="round" stroke-linejoin="round" stroke-width="2.784115614025292"/>
  <path d="M 30.169862008875544, 90.12145973474978 Q 32.589340561349466, 90.42139167696169, 37.156613481042406, 90.79662432781353 " fill="none" id="curve_22" stroke="#000000" stroke-linecap="round" stroke-linejoin="round" stroke-width="3.53334258804339"/>
  <path d="M 61.63970489489702, 40.71888213525376 Q 61.94644899125481, 39.61504474478716, 62.46761026865521, 38.64539881719396 " fill="none" id="curve_27" stroke="#000000" stroke-linecap="round" stroke-linejoin="round" stroke-width="2.3855480569650753"/>
  <path d="M 55.0817749187922, 27.780254723705667 Q 54.5255847310542, 24.3851042951807, 48.938282547683755, 23.395353615828395 " fill="none" id="curve_29" stroke="#000000" stroke-linecap="round" stroke-linejoin="round" stroke-width="2.0886855392256214"/>
  <path d="M 33.971882535915164, 32.71784781124647 Q 35.145571790507056, 29.67687799782947, 41.28800047077334, 28.60948547972105 " fill="none" id="curve_30" stroke="#000000" stroke-linecap="round" stroke-linejoin="round" stroke-width="2.5409452357947098"/>
  <path d="M 60.77114039393331, 55.20706489579308 Q 60.449759591273896, 56.220848939880725, 60.164116844491396, 59.1999010639021 " fill="none" id="curve_31" stroke="#000000" stroke-linecap="round" stroke-linejoin="round" stroke-width="2.651768587686125"/>
  <path d="M 30.468105713153992, 89.2241810426839 Q 29.864041373397477, 88.52541489256609, 28.464860854386522, 87.83768290085105 " fill="none" id="curve_32" stroke="#000000" stroke-linecap="round" stroke-linejoin="round" stroke-width="3.830841990177112"/>
  <path d="M 38.759998114808226, 91.50253941264093 Q 43.24345873194666, 91.37468520649826, 44.73446336363854, 90.31492173856232 " fill="none" id="curve_65" stroke="#000000" stroke-linecap="round" stroke-linejoin="round" stroke-width="3.5284089202526534"/>
  <path d="M 56.64422866501832, 73.25323315440136 Q 57.67010300828535, 64.40406536831082, 63.268097650150274, 59.69190904283471 " fill="none" id="curve_119" stroke="#000000" stroke-linecap="round" stroke-linejoin="round" stroke-width="2.928304984624871"/>
  <path d="M 22.04875416818825, 85.85005865968058 Q 20.592029192082965, 82.78936157890357, 19.129054011466472, 77.6578422046664 " fill="none" id="curve_135" stroke="#000000" stroke-linecap="round" stroke-linejoin="round" stroke-width="3.0888970500308957"/>
</svg>
