<?xml version="1.0" ?>
<svg height="140" width="140" xmlns="http://www.w3.org/2000/svg">
  <path d="M 48.62765312194824, 27.95603370666504 Q 48.434914161228214, 26.529167326082455, 47.72716047345463, 25.380774143678593 " fill="none" id="curve_1" stroke="#000000" stroke-linecap="round" stroke-linejoin="round" stroke-width="7.463665399057183"/>
  <path d="M 47.72716047345463, 25.380774143678593 Q 57.28812137663372, 26.356614401513735, 62.30036817930678, 36.049951148117806 " fill="none" id="curve_1" stroke="#000000" stroke-linecap="round" stroke-linejoin="round" stroke-width="2.5137652130993033"/>
  <path d="M 62.30036817930678, 36.049951148117806 Q 68.5194671817835, 40.11099666892374, 73.3479481470422, 67.44166820879613 " fill="none" id="curve_1" stroke="#000000" stroke-linecap="round" stroke-linejoin="round" stroke-width="3.1607844654105324"/>
  <path d="M 73.3479481470422, 67.44166820879613 Q 74.19055971227048, 71.98417325667212, 74.48414337503617, 88.69579519147896 " fill="none" id="curve_1" stroke="#000000" stroke-linecap="round" stroke-linejoin="round" stroke-width="3.7051267143244226"/>
  <path d="M 74.48414337503617, 88.69579519147896 Q 73.08022509046324, 107.53966017675359, 67.84268654560763, 119.20814042040236 " fill="none" id="curve_1" stroke="#000000" stroke-linecap="round" stroke-linejoin="round" stroke-width="4.013922877969227"/>
  <path d="M 67.84268654560763, 119.20814042040236 Q 63.56579929519866, 128.1072674895789, 55.16489013419907, 134.90607748117492 " fill="none" id="curve_1" stroke="#000000" stroke-linecap="round" stroke-linejoin="round" stroke-width="3.177393723899792"/>
  <path d="M 45.65158776175168, 138.98684947799774 Q 34.16379732775437, 137.8418534419148, 30.905375519074997, 126.93644544104387 " fill="none" id="curve_2" stroke="#000000" stroke-linecap="round" stroke-linejoin="round" stroke-width="3.0009136137123162"/>
  <path d="M 30.905375519074997, 126.93644544104387 Q 29.39717088546161, 125.7217694018027, 28.7557588832309, 121.23436890105289 " fill="none" id="curve_2" stroke="#000000" stroke-linecap="round" stroke-linejoin="round" stroke-width="3.4844566586685612"/>
  <path d="M 2.367707917261786, 135.93467918089186 Q 2.377562077425561, 134.26066040672129, 2.381353516576577, 117.1510071725941 " fill="none" id="curve_3" stroke="#000000" stroke-linecap="round" stroke-linejoin="round" stroke-width="4.101586697010599"/>
  <path d="M 2.381353516576577, 117.1510071725941 Q 1.9303233053663111, 115.75852002143537, 1.7991633476020799, 94.96962031978103 " fill="none" id="curve_3" stroke="#000000" stroke-linecap="round" stroke-linejoin="round" stroke-width="3.072271923165672"/>
  <path d="M 1.7991633476020799, 94.96962031978103 Q 2.0688437086515963, 93.71310848204413, 2.1495618806930823, 70.70642025012611 " fill="none" id="curve_3" stroke="#000000" stroke-linecap="round" stroke-linejoin="round" stroke-width="2.9400508175451665"/>
  <path d="M 2.1495618806930823, 70.70642025012611 Q 2.121295056578267, 62.80626804346623, 2.0309769390022003, 47.33415946947181 " fill="none" id="curve_3" stroke="#000000" stroke-linecap="round" stroke-linejoin="round" stroke-width="2.8223061704354433"/>
  <path d="M 2.0309769390022003, 47.33415946947181 Q 2.013298430423104, 39.20461081449326, 1.950332164805233, 23.860417978678598 " fill="none" id="curve_3" stroke="#000000" stroke-linecap="round" stroke-linejoin="round" stroke-width="2.929090412591733"/>
  <path d="M 1.950332164805233, 23.860417978678598 Q 1.9665962910219055, 5.451063631699402, 2.331905158044217, 0.669424982220427 " fill="none" id="curve_3" stroke="#000000" stroke-linecap="round" stroke-linejoin="round" stroke-width="2.881652187573768"/>
  <path d="M 2.331905158044217, 0.669424982220427 Q 3.313659343359779, 0.9759660040308588, 3.7909992661471943, 2.3601999169554313 " fill="none" id="curve_3" stroke="#000000" stroke-linecap="round" stroke-linejoin="round" stroke-width="2.5206614699519574"/>
  <path d="M 72.39885377589157, 60.046673776097705 Q 73.14730033375785, 62.935387450174694, 73.87136152236708, 67.12997853950583 " fill="none" id="curve_6" stroke="#000000" stroke-linecap="round" stroke-linejoin="round" stroke-width="2.565491667685165"/>
  <path d="M 73.87136152236708, 67.12997853950583 Q 71.50670147963706, 58.935022953732506, 67.1954370310387, 45.12776549681493 " fill="none" id="curve_6" stroke="#000000" stroke-linecap="round" stroke-linejoin="round" stroke-width="1.903467673332278"/>
  <path d="M 67.1954370310387, 45.12776549681493 Q 65.96632961275212, 35.02484692014101, 58.52078793867399, 30.116371178434203 " fill="none" id="curve_6" stroke="#000000" stroke-linecap="round" stroke-linejoin="round" stroke-width="2.0644103448800415"/>
  <path d="M 72.67093578567174, 99.06539704057258 Q 70.9364562849812, 103.76626622779432, 69.35336006495243, 111.59971338162543 " fill="none" id="curve_9" stroke="#000000" stroke-linecap="round" stroke-linejoin="round" stroke-width="3.4999129425012194"/>
  <path d="M 55.316641927900335, 132.49113214230547 Q 54.71440859044774, 132.03320253092556, 54.143879349052355, 131.36482463075833 " fill="none" id="curve_10" stroke="#000000" stroke-linecap="round" stroke-linejoin="round" stroke-width="5.15850982013768"/>
  <path d="M 71.87975452829869, 106.27529308393255 Q 72.14183447779668, 98.47227773282775, 73.27973011437606, 95.31724322102016 " fill="none" id="curve_11" stroke="#000000" stroke-linecap="round" stroke-linejoin="round" stroke-width="3.8682353542101993"/>
  <path d="M 75.07702644168751, 79.27112702925113 Q 74.49276917755749, 83.31181382264292, 73.81315588959689, 89.27572044133967 " fill="none" id="curve_12" stroke="#000000" stroke-linecap="round" stroke-linejoin="round" stroke-width="2.2871484092919685"/>
  <path d="M 70.66943940964063, 53.56428144465352 Q 71.20391510703315, 54.066084911037166, 71.66255904319868, 56.04096366844243 " fill="none" id="curve_14" stroke="#000000" stroke-linecap="round" stroke-linejoin="round" stroke-width="2.6274956756279226"/>
  <path d="M 3.0926361083984375, 139.4932403564453 Q 2.6861092085098934, 138.59583788738487, 2.158025243778546, 137.28093123734703 " fill="none" id="curve_28" stroke="#000000" stroke-linecap="round" stroke-linejoin="round" stroke-width="4.079454243958138"/>
  <path d="M 2.8902198667982946, 132.33428127631765 Q 2.7571454255094197, 123.6497748152804, 2.201752274720179, 115.7709993972379 " fill="none" id="curve_30" stroke="#000000" stroke-linecap="round" stroke-linejoin="round" stroke-width="1.694015198346421"/>
  <path d="M 2.594739608658469, 138.39641896436638 Q 2.620259076471483, 138.24024295111815, 2.6745525861415245, 138.05379041703597 " fill="none" id="curve_31" stroke="#000000" stroke-linecap="round" stroke-linejoin="round" stroke-width="2.2784728262109186"/>
  <path d="M 56.8248911494336, 135.08108171057287 Q 56.66000261865127, 134.685517490372, 56.37139481476898, 134.14115265717373 " fill="none" id="curve_34" stroke="#000000" stroke-linecap="round" stroke-linejoin="round" stroke-width="2.773086793941291"/>
  <path d="M 50.80073518315976, 28.07216572698667 Q 50.987605420459985, 28.999630671778274, 55.16122367188491, 29.122377764170853 " fill="none" id="curve_49" stroke="#000000" stroke-linecap="round" stroke-linejoin="round" stroke-width="2.282978245244532"/>
  <path d="M 55.16122367188491, 29.122377764170853 Q 58.69069962735988, 29.117585034798594, 59.9374997381813, 29.089117329431414 " fill="none" id="curve_49" stroke="#000000" stroke-linecap="round" stroke-linejoin="round" stroke-width="2.027370374354269"/>
  <path d="M 51.31273590697939, 23.27336808421747 Q 48.363981717668544, 24.63816787417946, 45.50189136458116, 26.55581857380624 " fill="none" id="curve_50" stroke="#000000" stroke-linecap="round" stroke-linejoin="round" stroke-width="3.5049805819439754"/>
  <path d="M 73.72554614796118, 59.15176791054907 Q 72.56530604531773, 59.99740871857049, 71.39413553775088, 62.140839546324074 " fill="none" id="curve_51" stroke="#000000" stroke-linecap="round" stroke-linejoin="round" stroke-width="2.655018275310291"/>
  <path d="M 74.75479435040934, 82.64384891560415 Q 74.36447137305261, 83.89296833871073, 73.92184536382631, 86.45059432618422 " fill="none" id="curve_54" stroke="#000000" stroke-linecap="round" stroke-linejoin="round" stroke-width="2.584678465170898"/>
  <path d="M 73.92184536382631, 86.45059432618422 Q 74.26316279153762, 83.52884814647992, 74.71958700234327, 77.87861847554916 " fill="none" id="curve_54" stroke="#000000" stroke-linecap="round" stroke-linejoin="round" stroke-width="2.049898619929806"/>
  <path d="M 65.27046448810577, 42.46124104548221 Q 66.65688141974319, 42.556686750963486, 68.3822242994244, 42.77350044916619 " fill="none" id="curve_86" stroke="#000000" stroke-linecap="round" stroke-linejoin="round" stroke-width="2.6102643510895884"/>
  <path d="M 72.6883534336121, 102.47783389173988 Q 72.8558099944816, 101.96855745877986, 73.05581720130232, 101.06407381044438 " fill="none" id="curve_88" stroke="#000000" stroke-linecap="round" stroke-linejoin="round" stroke-width="4.006395434275655"/>
  <path d="M 71.4887229366891, 102.888390377409 Q 72.31694027897959, 101.4552861176291, 74.42345958453564, 100.66088186131523 " fill="none" id="curve_129" stroke="#000000" stroke-linecap="round" stroke-linejoin="round" stroke-width="3.38481461076085"/>
</svg>
