<?xml version="1.0" ?>
<svg height="140" width="140" xmlns="http://www.w3.org/2000/svg">
  <path d="M 58.0752654765275, 104.45186162752528 Q 60.57125556030695, 98.85072388230485, 63.42921001430942, 88.9737096868878 " fill="none" id="curve_4" stroke="#000000" stroke-linecap="round" stroke-linejoin="round" stroke-width="4.638919451271302"/>
  <path d="M 63.42921001430942, 88.9737096868878 Q 63.32756273119064, 69.2839967501952, 62.292687027250466, 60.36458338304153 " fill="none" id="curve_4" stroke="#000000" stroke-linecap="round" stroke-linejoin="round" stroke-width="4.974767659538801"/>
  <path d="M 62.292687027250466, 60.36458338304153 Q 61.273219606583815, 48.952284998139646, 54.71669400114771, 44.44089576665878 " fill="none" id="curve_4" stroke="#000000" stroke-linecap="round" stroke-linejoin="round" stroke-width="5.222908187720513"/>
  <path d="M 42.4104630147161, 49.081922127012064 Q 36.2006560407303, 55.93810663958481, 24.98913300352734, 80.7602471004156 " fill="none" id="curve_5" stroke="#000000" stroke-linecap="round" stroke-linejoin="round" stroke-width="5.023993973568226"/>
  <path d="M 24.98913300352734, 80.7602471004156 Q 23.32157908175067, 86.3659896816268, 22.64410037042352, 101.21747583579146 " fill="none" id="curve_5" stroke="#000000" stroke-linecap="round" stroke-linejoin="round" stroke-width="6.887565478613106"/>
  <path d="M 22.64410037042352, 101.21747583579146 Q 23.43538547827925, 118.55006546441814, 35.19003840209055, 120.35337080145749 " fill="none" id="curve_5" stroke="#000000" stroke-linecap="round" stroke-linejoin="round" stroke-width="4.780238196947099"/>
  <path d="M 35.19003840209055, 120.35337080145749 Q 48.14375702886066, 118.73118605766982, 52.6195200669096, 111.74573485625947 " fill="none" id="curve_5" stroke="#000000" stroke-linecap="round" stroke-linejoin="round" stroke-width="3.5646451948618547"/>
  <path d="M 57.483038331290594, 105.62023743345672 Q 57.00344829388911, 106.85317167216522, 56.05230989751127, 107.99000534016268 " fill="none" id="curve_6" stroke="#000000" stroke-linecap="round" stroke-linejoin="round" stroke-width="3.0552855547591986"/>
  <path d="M 33.17330824693826, 67.92263519084236 Q 28.606102166986375, 74.8023604643761, 22.570987425652973, 86.6215961577316 " fill="none" id="curve_7" stroke="#000000" stroke-linecap="round" stroke-linejoin="round" stroke-width="4.686041632256774"/>
  <path d="M 22.570987425652973, 86.6215961577316 Q 25.107309148337176, 82.77717487553141, 27.21638241812142, 76.37156804960043 " fill="none" id="curve_7" stroke="#000000" stroke-linecap="round" stroke-linejoin="round" stroke-width="5.225695908530864"/>
  <path d="M 27.21638241812142, 76.37156804960043 Q 25.491989601096023, 79.05133709472447, 23.902509211328894, 83.06632779454797 " fill="none" id="curve_7" stroke="#000000" stroke-linecap="round" stroke-linejoin="round" stroke-width="4.709000913525786"/>
  <path d="M 53.30864045576869, 45.34356935686625 Q 53.30060321083818, 45.21400203782337, 53.294734610038105, 44.828046998701296 " fill="none" id="curve_8" stroke="#000000" stroke-linecap="round" stroke-linejoin="round" stroke-width="5.604041553364693"/>
  <path d="M 89.52966944281104, 85.4178128565308 Q 89.84154299756914, 84.89477299560707, 90.10182249570907, 83.28384123401044 " fill="none" id="curve_10" stroke="#000000" stroke-linecap="round" stroke-linejoin="round" stroke-width="2.1036276486234664"/>
  <path d="M 89.575708556104, 69.64113284614534 Q 89.65254710079168, 70.58716142485596, 89.79923506959425, 72.07893900191206 " fill="none" id="curve_11" stroke="#000000" stroke-linecap="round" stroke-linejoin="round" stroke-width="2.4444253809368406"/>
  <path d="M 89.2298734059225, 126.46141959328791 Q 89.40223393482387, 125.71083559769498, 89.56643390451298, 123.40029311381687 " fill="none" id="curve_14" stroke="#000000" stroke-linecap="round" stroke-linejoin="round" stroke-width="1.6013029499461056"/>
  <path d="M 89.129651490566, 102.79347999076467 Q 89.39252161935782, 102.10390842586993, 89.78854067014113, 100.9686489678252 " fill="none" id="curve_15" stroke="#000000" stroke-linecap="round" stroke-linejoin="round" stroke-width="2.0099511552125153"/>
  <path d="M 59.41392186080722, 100.0700047605107 Q 60.7793484569512, 98.21065717319225, 61.713834749428806, 91.5038835541921 " fill="none" id="curve_16" stroke="#000000" stroke-linecap="round" stroke-linejoin="round" stroke-width="3.761160743064954"/>
  <path d="M 60.35413138405524, 55.378824694410206 Q 59.373569040092136, 54.447594098922636, 58.66630854591751, 51.68775185489547 " fill="none" id="curve_17" stroke="#000000" stroke-linecap="round" stroke-linejoin="round" stroke-width="4.329053715709395"/>
  <path d="M 56.79377921622347, 102.20678638852814 Q 59.05153390914676, 100.53276174580594, 61.50352486017352, 97.88990296750626 " fill="none" id="curve_32" stroke="#000000" stroke-linecap="round" stroke-linejoin="round" stroke-width="3.4954158007414944"/>
  <path d="M 39.459013694746545, 119.05122300514978 Q 44.83256222035128, 118.28982960422023, 47.97766574675282, 115.4543130416123 " fill="none" id="curve_33" stroke="#000000" stroke-linecap="round" stroke-linejoin="round" stroke-width="3.681917003722643"/>
  <path d="M 38.00536375758817, 120.21229946975845 Q 41.29082919585656, 119.76582084521822, 44.338947425312874, 118.91005309120254 " fill="none" id="curve_34" stroke="#000000" stroke-linecap="round" stroke-linejoin="round" stroke-width="3.8413551058566795"/>
  <path d="M 26.070189513074943, 74.51996451442005 Q 25.916957078885964, 82.06286697643297, 24.798719196451426, 83.94649037506615 " fill="none" id="curve_35" stroke="#000000" stroke-linecap="round" stroke-linejoin="round" stroke-width="4.8384472768324285"/>
  <path d="M 89.4178899508164, 20.78307109393194 Q 89.70992170434488, 20.78196446385364, 90.03661793174517, 20.778923052759392 " fill="none" id="curve_50" stroke="#000000" stroke-linecap="round" stroke-linejoin="round" stroke-width="1.7021812279566237"/>
  <path d="M 27.54924036427162, 77.8588021131742 Q 26.96070757339658, 81.8189931474956, 24.1751501722334, 83.63448017238669 " fill="none" id="curve_118" stroke="#000000" stroke-linecap="round" stroke-linejoin="round" stroke-width="4.2055444700740505"/>
  <path d="M 25.140086372849623, 97.43371722043639 Q 24.02675121517083, 93.481403715879, 20.71708811606386, 90.10259206827205 " fill="none" id="curve_133" stroke="#000000" stroke-linecap="round" stroke-linejoin="round" stroke-width="3.4005324480032413"/>
  <path d="M 29.90760747906357, 63.75141079843354 Q 31.027952925339633, 63.55180225109209, 32.011008024891076, 62.828476924402636 " fill="none" id="curve_148" stroke="#000000" stroke-linecap="round" stroke-linejoin="round" stroke-width="2.660012070529364"/>
  <path d="M 63.80197080990812, 72.2875194485898 Q 64.64543309232263, 72.03735619046196, 65.0869684289555, 71.15512616466954 " fill="none" id="curve_153" stroke="#000000" stroke-linecap="round" stroke-linejoin="round" stroke-width="3.708427844917805"/>
  <path d="M 62.29346885339436, 61.427255220924486 Q 63.51888864411241, 62.333731571505965, 64.40522300931922, 64.69082203016632 " fill="none" id="curve_154" stroke="#000000" stroke-linecap="round" stroke-linejoin="round" stroke-width="3.4360186985643955"/>
</svg>
