<?xml version="1.0" ?>
<svg height="140" width="140" xmlns="http://www.w3.org/2000/svg">
  <path d="M 20.982725143432617, 95.81205558776855 Q 18.15540786428647, 95.39557027236833, 17.335969317768388, 91.69086932449892 " fill="none" id="curve_1" stroke="#000000" stroke-linecap="round" stroke-linejoin="round" stroke-width="9.59183443799275"/>
  <path d="M 17.335969317768388, 91.69086932449892 Q 19.8559025038073, 79.79072204183116, 28.91947070626721, 67.01858538232447 " fill="none" id="curve_1" stroke="#000000" stroke-linecap="round" stroke-linejoin="round" stroke-width="7.320323301818329"/>
  <path d="M 28.91947070626721, 67.01858538232447 Q 35.682228793951154, 57.844531904581196, 49.30817844816724, 47.811009729123384 " fill="none" id="curve_1" stroke="#000000" stroke-linecap="round" stroke-linejoin="round" stroke-width="10.364743163718064"/>
  <path d="M 49.30817844816724, 47.811009729123384 Q 71.745695074541, 47.986241398137835, 72.68179373741235, 57.683261693705845 " fill="none" id="curve_1" stroke="#000000" stroke-linecap="round" stroke-linejoin="round" stroke-width="4.776799811531071"/>
  <path d="M 72.68179373741235, 57.683261693705845 Q 70.86263427004673, 76.92192201922306, 49.779743680265454, 98.67438816737138 " fill="none" id="curve_1" stroke="#000000" stroke-linecap="round" stroke-linejoin="round" stroke-width="5.775816338913807"/>
  <path d="M 49.779743680265454, 98.67438816737138 Q 46.18973716789694, 106.38008426737905, 27.508768861749793, 108.89509916702805 " fill="none" id="curve_1" stroke="#000000" stroke-linecap="round" stroke-linejoin="round" stroke-width="6.828581197647458"/>
  <path d="M 27.508768861749793, 108.89509916702805 Q 18.96631620362689, 108.08889045703194, 17.582064339845534, 97.98435943289991 " fill="none" id="curve_1" stroke="#000000" stroke-linecap="round" stroke-linejoin="round" stroke-width="6.520250397328542"/>
  <path d="M 29.103927932833145, 86.19721913960853 Q 30.51524118081488, 90.1605828631906, 39.788095322711975, 90.92379082616566 " fill="none" id="curve_2" stroke="#000000" stroke-linecap="round" stroke-linejoin="round" stroke-width="4.544916525789251"/>
  <path d="M 26.04805582094117, 84.79819570165624 Q 26.030646820139665, 76.77611272407911, 25.83474682677337, 75.40999193910298 " fill="none" id="curve_3" stroke="#000000" stroke-linecap="round" stroke-linejoin="round" stroke-width="3.6165736416444227"/>
  <path d="M 42.804049674792594, 101.4452258240947 Q 47.895604959894115, 97.75549000498336, 56.5368310194592, 93.82730409115497 " fill="none" id="curve_4" stroke="#000000" stroke-linecap="round" stroke-linejoin="round" stroke-width="3.5218202816936666"/>
  <path d="M 56.5368310194592, 93.82730409115497 Q 59.45119058651704, 80.7171208009584, 70.91221528241064, 70.54836317582159 " fill="none" id="curve_4" stroke="#000000" stroke-linecap="round" stroke-linejoin="round" stroke-width="4.043500908506716"/>
  <path d="M 70.91221528241064, 70.54836317582159 Q 72.29132891908742, 69.40776657581367, 73.08030162576263, 66.55246941528063 " fill="none" id="curve_4" stroke="#000000" stroke-linecap="round" stroke-linejoin="round" stroke-width="3.8554501093186007"/>
  <path d="M 48.43897964380225, 46.39592643333452 Q 37.482951721910865, 50.25051594488382, 27.140034054687003, 65.66279438890169 " fill="none" id="curve_5" stroke="#000000" stroke-linecap="round" stroke-linejoin="round" stroke-width="3.6218321239412568"/>
  <path d="M 59.32137088831351, 43.07887134316194 Q 56.433020529524605, 45.66471788312458, 40.217501828011535, 47.224252676168916 " fill="none" id="curve_6" stroke="#000000" stroke-linecap="round" stroke-linejoin="round" stroke-width="2.878029183076513"/>
  <path d="M 32.79552926997063, 106.26423609321253 Q 20.585813192850146, 106.12732226755692, 19.40136852487222, 101.79672633601284 " fill="none" id="curve_9" stroke="#000000" stroke-linecap="round" stroke-linejoin="round" stroke-width="3.5720915519881213"/>
  <path d="M 19.40136852487222, 101.79672633601284 Q 18.51116874636143, 99.76507884214823, 17.072610854066227, 98.09542366385969 " fill="none" id="curve_9" stroke="#000000" stroke-linecap="round" stroke-linejoin="round" stroke-width="5.287929479995433"/>
  <path d="M 46.81368712433043, 98.67043569968038 Q 57.73448301643915, 94.11553614024126, 64.49680866109742, 79.3615589941596 " fill="none" id="curve_11" stroke="#000000" stroke-linecap="round" stroke-linejoin="round" stroke-width="3.62615363515451"/>
  <path d="M 64.49680866109742, 79.3615589941596 Q 58.49482184983464, 88.78407287292684, 46.33818549476828, 99.63097286981528 " fill="none" id="curve_11" stroke="#000000" stroke-linecap="round" stroke-linejoin="round" stroke-width="3.237456081836825"/>
  <path d="M 20.51257996552737, 98.91838848639267 Q 21.076050789346482, 100.86069013659781, 21.58628723059662, 104.57308868101421 " fill="none" id="curve_14" stroke="#000000" stroke-linecap="round" stroke-linejoin="round" stroke-width="3.9430421736592742"/>
  <path d="M 68.8135889705133, 69.05039270690315 Q 64.1631668651285, 78.52649105728173, 57.8008928445538, 91.41806200464518 " fill="none" id="curve_19" stroke="#000000" stroke-linecap="round" stroke-linejoin="round" stroke-width="3.547548586626756"/>
  <path d="M 57.07571284930401, 89.9769038269254 Q 58.45833899438665, 88.08001510693627, 61.251882810233795, 86.0815892390978 " fill="none" id="curve_29" stroke="#000000" stroke-linecap="round" stroke-linejoin="round" stroke-width="4.2702439852695475"/>
  <path d="M 71.83738644642948, 58.301081686383235 Q 71.07313132152909, 57.897029371232165, 70.52606583082607, 56.58660712575508 " fill="none" id="curve_37" stroke="#000000" stroke-linecap="round" stroke-linejoin="round" stroke-width="3.7395516770839157"/>
  <path d="M 89.75824543834536, 1.548873374303752 Q 89.71423296731025, 1.5670931174532505, 89.63503168224068, 1.5919789702795295 " fill="none" id="curve_78" stroke="#000000" stroke-linecap="round" stroke-linejoin="round" stroke-width="1.648898107995191"/>
  <path d="M 17.06534074233253, 98.58075453538254 Q 16.193208982437763, 98.14697768693668, 15.156315701713773, 97.10810446641995 " fill="none" id="curve_89" stroke="#000000" stroke-linecap="round" stroke-linejoin="round" stroke-width="2.8939942077835075"/>
</svg>
