<?xml version="1.0" ?>
<svg height="140" width="140" xmlns="http://www.w3.org/2000/svg">
  <path d="M 55.92906951904297, 109.60822105407715 Q 55.2105432162927, 111.11023106346704, 51.858284381663, 113.37340337722844 " fill="none" id="curve_1" stroke="#000000" stroke-linecap="round" stroke-linejoin="round" stroke-width="5.929111412676748"/>
  <path d="M 51.858284381663, 113.37340337722844 Q 46.59968623825982, 117.2396715486281, 34.928970929970646, 121.11441656709967 " fill="none" id="curve_1" stroke="#000000" stroke-linecap="round" stroke-linejoin="round" stroke-width="4.581963256350051"/>
  <path d="M 34.928970929970646, 121.11441656709967 Q 11.68676454824389, 120.86956836622149, 7.889685089832128, 112.58530732384231 " fill="none" id="curve_1" stroke="#000000" stroke-linecap="round" stroke-linejoin="round" stroke-width="5.108910969036876"/>
  <path d="M 7.889685089832128, 112.58530732384231 Q 3.2765776191967007, 111.52961920628846, 2.4065860085598594, 100.41349452541535 " fill="none" id="curve_1" stroke="#000000" stroke-linecap="round" stroke-linejoin="round" stroke-width="4.077170446743777"/>
  <path d="M 2.4065860085598594, 100.41349452541535 Q 2.486004642428667, 74.00201698708752, 8.17695900525719, 71.57007921054475 " fill="none" id="curve_1" stroke="#000000" stroke-linecap="round" stroke-linejoin="round" stroke-width="3.7922739513927595"/>
  <path d="M 8.17695900525719, 71.57007921054475 Q 12.431359847685817, 60.898329214764786, 31.89383180655733, 53.10227545930909 " fill="none" id="curve_1" stroke="#000000" stroke-linecap="round" stroke-linejoin="round" stroke-width="4.762870305823303"/>
  <path d="M 31.89383180655733, 53.10227545930909 Q 41.32281506264639, 53.00754594616199, 42.33627067680251, 51.25298788730213 " fill="none" id="curve_1" stroke="#000000" stroke-linecap="round" stroke-linejoin="round" stroke-width="9.870664065197438"/>
  <path d="M 42.33627067680251, 51.25298788730213 Q 50.454380062877505, 52.32197887587593, 51.43410745631998, 64.19096099652927 " fill="none" id="curve_1" stroke="#000000" stroke-linecap="round" stroke-linejoin="round" stroke-width="8.31695754592813"/>
  <path d="M 51.43410745631998, 64.19096099652927 Q 51.40927256839423, 72.81259944334354, 49.73147644498128, 73.18843894595798 " fill="none" id="curve_1" stroke="#000000" stroke-linecap="round" stroke-linejoin="round" stroke-width="2.8517912865121686"/>
  <path d="M 51.34416287632439, 58.611128328621724 Q 58.999974167080275, 64.48365240928761, 66.4736103896454, 82.7278842396453 " fill="none" id="curve_2" stroke="#000000" stroke-linecap="round" stroke-linejoin="round" stroke-width="3.849595508772933"/>
  <path d="M 66.4736103896454, 82.7278842396453 Q 65.98205643977406, 105.36439377498968, 56.66068159662902, 109.69113934656767 " fill="none" id="curve_2" stroke="#000000" stroke-linecap="round" stroke-linejoin="round" stroke-width="4.689591727703258"/>
  <path d="M 89.82561823207203, 112.08384214061984 Q 88.69288252387148, 114.74857731245967, 88.40346411177228, 138.66932204968938 " fill="none" id="curve_3" stroke="#000000" stroke-linecap="round" stroke-linejoin="round" stroke-width="3.543440380822463"/>
  <path d="M 88.73553505318455, 111.43756583117798 Q 88.8352819124828, 107.78598266150502, 88.95267916240992, 83.92591429654641 " fill="none" id="curve_4" stroke="#000000" stroke-linecap="round" stroke-linejoin="round" stroke-width="3.3819090950812143"/>
  <path d="M 88.95267916240992, 83.92591429654641 Q 88.92533009625035, 73.80062274608736, 88.80104245492872, 59.20918988862092 " fill="none" id="curve_4" stroke="#000000" stroke-linecap="round" stroke-linejoin="round" stroke-width="3.2923519227855156"/>
  <path d="M 88.80104245492872, 59.20918988862092 Q 88.80264860602618, 54.07648315117774, 88.80527969279807, 34.624766537148304 " fill="none" id="curve_4" stroke="#000000" stroke-linecap="round" stroke-linejoin="round" stroke-width="3.385438891408554"/>
  <path d="M 88.80527969279807, 34.624766537148304 Q 88.89537248401807, 31.560779894446224, 88.96169145900622, 10.654281904880428 " fill="none" id="curve_4" stroke="#000000" stroke-linecap="round" stroke-linejoin="round" stroke-width="3.06263116772876"/>
  <path d="M 88.96169145900622, 10.654281904880428 Q 88.82904419469223, 3.4988508866474275, 87.94152044420069, 1.9678692726443785 " fill="none" id="curve_4" stroke="#000000" stroke-linecap="round" stroke-linejoin="round" stroke-width="4.380911204212712"/>
  <path d="M 87.94152044420069, 1.9678692726443785 Q 87.45060360680883, 2.019968125833588, 86.96318649727164, 2.0894566234665897 " fill="none" id="curve_4" stroke="#000000" stroke-linecap="round" stroke-linejoin="round" stroke-width="4.2044197168893165"/>
  <path d="M 48.587652082414195, 61.54377192429666 Q 45.00608527095631, 57.55739476400493, 38.66687060499193, 51.80665244790887 " fill="none" id="curve_7" stroke="#000000" stroke-linecap="round" stroke-linejoin="round" stroke-width="2.864549580526014"/>
  <path d="M 12.679606123315299, 66.53114487218485 Q 7.296990418984972, 71.28712683084247, 1.461513145877058, 84.92288174589268 " fill="none" id="curve_8" stroke="#000000" stroke-linecap="round" stroke-linejoin="round" stroke-width="3.1143404378099877"/>
  <path d="M 1.461513145877058, 84.92288174589268 Q 3.236899974589073, 79.72663865009365, 6.850223071320902, 75.97435924181413 " fill="none" id="curve_8" stroke="#000000" stroke-linecap="round" stroke-linejoin="round" stroke-width="3.1558898269523565"/>
  <path d="M 32.46283108994156, 52.743701533415035 Q 37.54522982537842, 51.74835893068145, 40.08102019862109, 48.36422235172694 " fill="none" id="curve_9" stroke="#000000" stroke-linecap="round" stroke-linejoin="round" stroke-width="3.043504819759067"/>
  <path d="M 18.076688177482495, 59.158161918784316 Q 10.831954487627232, 62.9309883415436, 3.481946366679354, 77.70726734369848 " fill="none" id="curve_10" stroke="#000000" stroke-linecap="round" stroke-linejoin="round" stroke-width="2.736246627592715"/>
  <path d="M 23.391105084435022, 121.58174120984476 Q 30.267037277195136, 120.77618785570637, 37.49155117250088, 119.63900263084521 " fill="none" id="curve_12" stroke="#000000" stroke-linecap="round" stroke-linejoin="round" stroke-width="2.7131646001897782"/>
  <path d="M 64.3637927314279, 96.19936010083785 Q 64.68516151341016, 89.4230173762675, 65.07952642824817, 75.46585080062736 " fill="none" id="curve_13" stroke="#000000" stroke-linecap="round" stroke-linejoin="round" stroke-width="2.826518837698297"/>
  <path d="M 63.12566373830657, 98.01125814585012 Q 62.12823219643456, 105.73358187542394, 56.638064657163156, 109.52525675760067 " fill="none" id="curve_14" stroke="#000000" stroke-linecap="round" stroke-linejoin="round" stroke-width="2.745543894518044"/>
  <path d="M 88.72004067873752, 136.97920251195825 Q 88.75806406162665, 138.543436071484, 88.98693191735038, 139.06044920216158 " fill="none" id="curve_15" stroke="#000000" stroke-linecap="round" stroke-linejoin="round" stroke-width="2.5513579171525134"/>
  <path d="M 88.92580913920348, 133.61012078370356 Q 89.2643276127818, 131.89055231497582, 89.4683079254929, 125.55738234398324 " fill="none" id="curve_17" stroke="#000000" stroke-linecap="round" stroke-linejoin="round" stroke-width="1.733485074732232"/>
  <path d="M 64.30839178864925, 97.59253054137467 Q 64.17753717327773, 95.66754453631859, 63.14205812711529, 95.29684517829493 " fill="none" id="curve_19" stroke="#000000" stroke-linecap="round" stroke-linejoin="round" stroke-width="3.7481364907429335"/>
  <path d="M 58.77869394358041, 70.41285259279326 Q 60.84067871629098, 71.12118368229473, 63.65772178705575, 71.99347598108366 " fill="none" id="curve_20" stroke="#000000" stroke-linecap="round" stroke-linejoin="round" stroke-width="1.9186601581343685"/>
  <path d="M 49.38497396383539, 74.06724812985989 Q 49.50201411832912, 73.87905140027658, 49.59291748346691, 73.44033302369596 " fill="none" id="curve_21" stroke="#000000" stroke-linecap="round" stroke-linejoin="round" stroke-width="3.0619578794562723"/>
  <path d="M 53.509593193241784, 58.555552200710494 Q 53.52086879358528, 58.246707727539736, 53.53730608224209, 57.85571643235435 " fill="none" id="curve_22" stroke="#000000" stroke-linecap="round" stroke-linejoin="round" stroke-width="2.9439951750854476"/>
  <path d="M 27.142064540408594, 54.94286431662916 Q 19.13435075756953, 55.813668364260835, 16.049884392236034, 61.62223896974166 " fill="none" id="curve_23" stroke="#000000" stroke-linecap="round" stroke-linejoin="round" stroke-width="2.0871754652238974"/>
  <path d="M 2.5500484686023004, 107.98143308571802 Q 3.2884870960974726, 107.78559708612858, 4.282573140825178, 107.35334666686002 " fill="none" id="curve_30" stroke="#000000" stroke-linecap="round" stroke-linejoin="round" stroke-width="3.303208190728409"/>
  <path d="M 29.64703857161987, 121.64015578289093 Q 26.844545348161116, 120.8674754010238, 20.365989846543496, 119.64208463497448 " fill="none" id="curve_66" stroke="#000000" stroke-linecap="round" stroke-linejoin="round" stroke-width="2.814321777865942"/>
  <path d="M 87.13801139686748, 4.326090810226255 Q 87.47144058338237, 4.898021877285599, 88.01262769512698, 5.769841278415466 " fill="none" id="curve_95" stroke="#000000" stroke-linecap="round" stroke-linejoin="round" stroke-width="2.1478084385643585"/>
  <path d="M 26.564682593349257, 120.05125960492292 Q 28.685202074889915, 119.6557490270711, 33.18431006947361, 119.3818212803124 " fill="none" id="curve_119" stroke="#000000" stroke-linecap="round" stroke-linejoin="round" stroke-width="2.48929623520054"/>
</svg>
