<?xml version="1.0" ?>
<svg height="140" width="140" xmlns="http://www.w3.org/2000/svg">
  <path d="M 42.94319796562195, 53.37968826293945 Q 42.81372549925811, 50.65986137106896, 38.94385197486747, 50.36865015688926 " fill="none" id="curve_1" stroke="#000000" stroke-linecap="round" stroke-linejoin="round" stroke-width="5.759172660829957"/>
  <path d="M 38.94385197486747, 50.36865015688926 Q 30.403918181962016, 52.516854117737516, 19.859586759722866, 64.0072404679398 " fill="none" id="curve_1" stroke="#000000" stroke-linecap="round" stroke-linejoin="round" stroke-width="4.4393154289039725"/>
  <path d="M 19.859586759722866, 64.0072404679398 Q 15.552518532828405, 70.30485518570647, 10.674910628741118, 87.38802717066002 " fill="none" id="curve_1" stroke="#000000" stroke-linecap="round" stroke-linejoin="round" stroke-width="4.038170370949487"/>
  <path d="M 10.674910628741118, 87.38802717066002 Q 11.603244346296343, 107.40894457445054, 27.0483142180395, 110.3215866931377 " fill="none" id="curve_1" stroke="#000000" stroke-linecap="round" stroke-linejoin="round" stroke-width="4.046248042041045"/>
  <path d="M 27.0483142180395, 110.3215866931377 Q 49.48511004076384, 108.91599803964708, 57.020952996044784, 89.51844931395688 " fill="none" id="curve_1" stroke="#000000" stroke-linecap="round" stroke-linejoin="round" stroke-width="5.002506478793241"/>
  <path d="M 57.020952996044784, 89.51844931395688 Q 58.16694119523041, 84.66886915014996, 59.650738439460014, 79.66476366496373 " fill="none" id="curve_1" stroke="#000000" stroke-linecap="round" stroke-linejoin="round" stroke-width="4.321960058410583"/>
  <path d="M 59.650738439460014, 79.66476366496373 Q 58.90741238717014, 59.29796062534992, 46.76129167142541, 53.45454622834857 " fill="none" id="curve_1" stroke="#000000" stroke-linecap="round" stroke-linejoin="round" stroke-width="4.841753840147008"/>
  <path d="M 46.76129167142541, 53.45454622834857 Q 47.46104800067853, 57.91181124650861, 48.66324765190045, 61.77717562516617 " fill="none" id="curve_1" stroke="#000000" stroke-linecap="round" stroke-linejoin="round" stroke-width="5.314250491322244"/>
  <path d="M 32.88019438715485, 57.32454982318982 Q 32.67372940436606, 59.29103258646267, 32.26783754636686, 60.683836913700944 " fill="none" id="curve_2" stroke="#000000" stroke-linecap="round" stroke-linejoin="round" stroke-width="4.0368385900888795"/>
  <path d="M 45.87612020141927, 64.06471532677723 Q 47.47307331083351, 62.825797258670384, 50.11664545004512, 61.41398784697785 " fill="none" id="curve_3" stroke="#000000" stroke-linecap="round" stroke-linejoin="round" stroke-width="2.997299080067835"/>
  <path d="M 52.76370501766622, 96.3505733364378 Q 47.4265407249304, 102.94235491093539, 35.12135700918813, 108.8183481358496 " fill="none" id="curve_4" stroke="#000000" stroke-linecap="round" stroke-linejoin="round" stroke-width="3.1640396935245048"/>
  <path d="M 35.12135700918813, 108.8183481358496 Q 28.878466821015554, 108.77221083919385, 25.866411763376142, 108.58449606218491 " fill="none" id="curve_4" stroke="#000000" stroke-linecap="round" stroke-linejoin="round" stroke-width="3.2886369302016676"/>
  <path d="M 44.21767848972105, 50.63682444740372 Q 44.16610539368438, 50.983109647991725, 44.10455523410495, 51.64510896413396 " fill="none" id="curve_7" stroke="#000000" stroke-linecap="round" stroke-linejoin="round" stroke-width="4.126579819824642"/>
  <path d="M 57.44739653780164, 69.22372535833483 Q 55.272331203696396, 63.81987877204349, 49.672132674324345, 57.79415781027149 " fill="none" id="curve_22" stroke="#000000" stroke-linecap="round" stroke-linejoin="round" stroke-width="2.5126696774826263"/>
  <path d="M 36.054581829969564, 53.13672502169064 Q 34.320450362898775, 55.01508659424547, 31.534946506591577, 57.2128700398319 " fill="none" id="curve_23" stroke="#000000" stroke-linecap="round" stroke-linejoin="round" stroke-width="2.7424137917549687"/>
  <path d="M 47.836878732802234, 101.53458064446181 Q 51.116206329654744, 97.01209880974096, 55.88107098157768, 91.07336118580355 " fill="none" id="curve_51" stroke="#000000" stroke-linecap="round" stroke-linejoin="round" stroke-width="2.6157668012043596"/>
  <path d="M 23.423074206133826, 108.12479311448021 Q 16.666346619461883, 105.45602385664957, 11.040724073029699, 97.41317561705091 " fill="none" id="curve_52" stroke="#000000" stroke-linecap="round" stroke-linejoin="round" stroke-width="2.1537509385166254"/>
  <path d="M 20.77415159354785, 65.18285564908682 Q 15.85231496295141, 71.57687138489874, 9.806611139756594, 82.87288847551707 " fill="none" id="curve_61" stroke="#000000" stroke-linecap="round" stroke-linejoin="round" stroke-width="2.2097842375921104"/>
  <path d="M 10.920106301917157, 90.21764865215663 Q 11.078332894177509, 90.02830102630503, 11.230093499486383, 89.6252235235188 " fill="none" id="curve_62" stroke="#000000" stroke-linecap="round" stroke-linejoin="round" stroke-width="4.183289888163105"/>
  <path d="M 11.230093499486383, 89.6252235235188 Q 10.968081989319256, 89.93648632008586, 10.50546702215217, 90.64918018555956 " fill="none" id="curve_62" stroke="#000000" stroke-linecap="round" stroke-linejoin="round" stroke-width="2.265938800329386"/>
  <path d="M 34.201075124393356, 108.5924729585654 Q 34.642693764174126, 107.86322601887703, 35.50089091122246, 106.79503181179636 " fill="none" id="curve_77" stroke="#000000" stroke-linecap="round" stroke-linejoin="round" stroke-width="3.1804114998371995"/>
  <path d="M 44.592530186363426, 55.528577959282096 Q 46.14962976121484, 55.43493614992842, 48.16747441306055, 55.24785052041191 " fill="none" id="curve_79" stroke="#000000" stroke-linecap="round" stroke-linejoin="round" stroke-width="2.1905128005056413"/>
  <path d="M 12.78649304241872, 99.54741212333545 Q 14.296613322409568, 103.18704284804775, 20.090259103687558, 105.47542949655454 " fill="none" id="curve_116" stroke="#000000" stroke-linecap="round" stroke-linejoin="round" stroke-width="2.9116273784337365"/>
  <path d="M 8.8940985715512, 89.91406134545579 Q 9.013039779152859, 90.7226649072816, 9.206121320372848, 92.08437800324819 " fill="none" id="curve_148" stroke="#000000" stroke-linecap="round" stroke-linejoin="round" stroke-width="2.5397895396332943"/>
  <path d="M 58.34793539925589, 69.77045650729006 Q 58.95640483990487, 70.37117950919938, 59.36422818648131, 72.22128461723553 " fill="none" id="curve_155" stroke="#000000" stroke-linecap="round" stroke-linejoin="round" stroke-width="3.915261954577323"/>
  <path d="M 11.743135686823363, 101.4049746822011 Q 12.16326473134812, 101.31513357200602, 12.768405808829424, 101.1803403281652 " fill="none" id="curve_157" stroke="#000000" stroke-linecap="round" stroke-linejoin="round" stroke-width="2.313844555055648"/>
  <path d="M 12.25993093979283, 76.45665168331799 Q 14.57814774750161, 71.77535585356266, 20.484089102420093, 67.69061419076073 " fill="none" id="curve_158" stroke="#000000" stroke-linecap="round" stroke-linejoin="round" stroke-width="2.1401309924206737"/>
</svg>
