<?xml version="1.0" ?>
<svg height="140" width="140" xmlns="http://www.w3.org/2000/svg">
  <path d="M 57.85947608947754, 91.67217254638672 Q 59.213496069812976, 88.97192176790143, 61.98582016078496, 82.64849615149672 " fill="none" id="curve_1" stroke="#000000" stroke-linecap="round" stroke-linejoin="round" stroke-width="9.715158078472541"/>
  <path d="M 61.98582016078496, 82.64849615149672 Q 65.06856436521123, 81.0998643580708, 65.82795420216688, 72.45479034459088 " fill="none" id="curve_1" stroke="#000000" stroke-linecap="round" stroke-linejoin="round" stroke-width="6.689588039492287"/>
  <path d="M 65.82795420216688, 72.45479034459088 Q 65.68519214646413, 53.95957852117543, 62.597769515599886, 51.748970358091796 " fill="none" id="curve_1" stroke="#000000" stroke-linecap="round" stroke-linejoin="round" stroke-width="5.752892898142598"/>
  <path d="M 62.597769515599886, 51.748970358091796 Q 46.564151103973224, 56.18925303442735, 32.933784887811115, 69.54060743730786 " fill="none" id="curve_1" stroke="#000000" stroke-linecap="round" stroke-linejoin="round" stroke-width="5.221608971081705"/>
  <path d="M 32.933784887811115, 69.54060743730786 Q 33.077849760017, 106.48126497255868, 42.96291423273814, 108.53439620747488 " fill="none" id="curve_1" stroke="#000000" stroke-linecap="round" stroke-linejoin="round" stroke-width="6.1947603030261"/>
  <path d="M 42.96291423273814, 108.53439620747488 Q 53.236868220566286, 105.15481952927216, 57.068647050707476, 90.72770504935632 " fill="none" id="curve_1" stroke="#000000" stroke-linecap="round" stroke-linejoin="round" stroke-width="6.2451086141305465"/>
  <path d="M 31.5728275315423, 73.18980082612671 Q 31.63501162409569, 104.63587479646377, 36.82863612389729, 105.97182319579491 " fill="none" id="curve_2" stroke="#000000" stroke-linecap="round" stroke-linejoin="round" stroke-width="3.90219395508585"/>
  <path d="M 29.385887320823304, 77.57074504585599 Q 30.784515507760084, 96.00252933220986, 37.96738609364492, 102.99468294966958 " fill="none" id="curve_3" stroke="#000000" stroke-linecap="round" stroke-linejoin="round" stroke-width="3.3489717888295067"/>
  <path d="M 39.9681323187546, 104.13247646988088 Q 52.01630409063136, 103.70451989813611, 54.26571621096379, 96.08826153957956 " fill="none" id="curve_5" stroke="#000000" stroke-linecap="round" stroke-linejoin="round" stroke-width="2.811625969136374"/>
  <path d="M 54.26571621096379, 96.08826153957956 Q 58.65176732842207, 95.23663554526706, 59.99546511321508, 91.38972204584447 " fill="none" id="curve_5" stroke="#000000" stroke-linecap="round" stroke-linejoin="round" stroke-width="3.2318012880207716"/>
  <path d="M 35.30146941925522, 71.89804762044939 Q 35.827931325409615, 59.676400439011005, 44.983131419606906, 57.318507090493796 " fill="none" id="curve_6" stroke="#000000" stroke-linecap="round" stroke-linejoin="round" stroke-width="3.5440770026790887"/>
  <path d="M 57.8881248493448, 50.4056397041033 Q 57.42258216344627, 50.56644263658469, 57.07469611203078, 50.976290076429926 " fill="none" id="curve_7" stroke="#000000" stroke-linecap="round" stroke-linejoin="round" stroke-width="4.39625081262107"/>
  <path d="M 37.55172816728674, 61.01779448916392 Q 36.412222979817486, 66.8813385302317, 33.8503225861357, 74.0509940182953 " fill="none" id="curve_8" stroke="#000000" stroke-linecap="round" stroke-linejoin="round" stroke-width="3.1564552191935014"/>
  <path d="M 67.42265545510043, 66.3082293922643 Q 66.55635201699765, 61.56183606025756, 64.32354869283755, 56.556054013631154 " fill="none" id="curve_11" stroke="#000000" stroke-linecap="round" stroke-linejoin="round" stroke-width="3.8611553045395963"/>
  <path d="M 65.2825450069859, 56.36750872870948 Q 66.01820476158011, 61.98849514801654, 66.82450575776872, 73.72840694748558 " fill="none" id="curve_13" stroke="#000000" stroke-linecap="round" stroke-linejoin="round" stroke-width="2.9965952026509632"/>
  <path d="M 65.29675871095475, 58.28823467643961 Q 65.95872773135085, 62.20310475547264, 66.54842850497396, 73.38984560575338 " fill="none" id="curve_14" stroke="#000000" stroke-linecap="round" stroke-linejoin="round" stroke-width="3.1295896998408397"/>
  <path d="M 65.43005241812165, 57.19434851893623 Q 65.9564862877345, 62.98342342811433, 66.73825400612253, 73.17427191720574 " fill="none" id="curve_15" stroke="#000000" stroke-linecap="round" stroke-linejoin="round" stroke-width="2.9634247057767933"/>
  <path d="M 65.17670330650458, 57.982802506806216 Q 65.89688309308002, 62.65011669564813, 66.66790503096453, 73.79990244419102 " fill="none" id="curve_16" stroke="#000000" stroke-linecap="round" stroke-linejoin="round" stroke-width="3.052979232419775"/>
  <path d="M 65.01307222395067, 59.114041169758956 Q 66.03271697680555, 61.940031157394515, 66.72448935750138, 73.05965875846493 " fill="none" id="curve_17" stroke="#000000" stroke-linecap="round" stroke-linejoin="round" stroke-width="3.264886465267544"/>
  <path d="M 65.23712091818005, 60.359195124483264 Q 66.24591389790018, 62.21428129567213, 66.99607744223773, 70.50804345397034 " fill="none" id="curve_18" stroke="#000000" stroke-linecap="round" stroke-linejoin="round" stroke-width="3.255796620208093"/>
  <path d="M 65.79968252847837, 58.782977609473875 Q 66.01887860609648, 62.49674573864151, 66.38877406530356, 71.9351880891532 " fill="none" id="curve_20" stroke="#000000" stroke-linecap="round" stroke-linejoin="round" stroke-width="2.6795843138747473"/>
  <path d="M 63.64104357947587, 75.76023983311529 Q 65.03712333017165, 72.12856318164934, 66.24253831604403, 58.236329233572576 " fill="none" id="curve_22" stroke="#000000" stroke-linecap="round" stroke-linejoin="round" stroke-width="3.7533947139412662"/>
  <path d="M 66.24253831604403, 58.236329233572576 Q 65.4017343390387, 66.35653911041547, 63.452468562890125, 75.51143928144644 " fill="none" id="curve_22" stroke="#000000" stroke-linecap="round" stroke-linejoin="round" stroke-width="2.974028114685983"/>
  <path d="M 50.41929224006418, 97.93226470702254 Q 52.825031053706596, 97.88185301708116, 54.08258471932715, 97.50607771914723 " fill="none" id="curve_23" stroke="#000000" stroke-linecap="round" stroke-linejoin="round" stroke-width="4.072802779263238"/>
  <path d="M 66.53926479659175, 60.54088452309971 Q 66.88012111136747, 65.35806179728797, 68.03558282676218, 68.96142151772314 " fill="none" id="curve_25" stroke="#000000" stroke-linecap="round" stroke-linejoin="round" stroke-width="2.6822139602477453"/>
  <path d="M 68.03558282676218, 68.96142151772314 Q 65.09466388042131, 65.18899011584112, 61.63617586251318, 58.11997487665133 " fill="none" id="curve_25" stroke="#000000" stroke-linecap="round" stroke-linejoin="round" stroke-width="3.0738528002846683"/>
  <path d="M 37.63748209248584, 67.20493808584169 Q 37.44958717026056, 71.06784144110595, 32.306051934700506, 71.52624746678204 " fill="none" id="curve_27" stroke="#000000" stroke-linecap="round" stroke-linejoin="round" stroke-width="3.6950704361042526"/>
  <path d="M 29.955588191105406, 92.05121889197913 Q 32.84944460604549, 98.23843657299344, 40.371955383673594, 102.96037173176718 " fill="none" id="curve_28" stroke="#000000" stroke-linecap="round" stroke-linejoin="round" stroke-width="2.725655197894087"/>
  <path d="M 57.51347139220472, 55.66244958930118 Q 50.47112473080567, 57.508068990066036, 39.57390361529507, 60.49622533309566 " fill="none" id="curve_31" stroke="#000000" stroke-linecap="round" stroke-linejoin="round" stroke-width="2.483223851628495"/>
  <path d="M 30.70370882950101, 75.68149501890275 Q 31.049217401176925, 72.4426962899291, 32.84630979816459, 69.93842707590723 " fill="none" id="curve_85" stroke="#000000" stroke-linecap="round" stroke-linejoin="round" stroke-width="2.6616519434409573"/>
  <path d="M 33.75002744729302, 67.10880057407104 Q 34.00719047960099, 63.96060778812326, 37.79886450640445, 63.1882291798098 " fill="none" id="curve_102" stroke="#000000" stroke-linecap="round" stroke-linejoin="round" stroke-width="2.22493703737967"/>
</svg>
