<?xml version="1.0" ?>
<svg height="140" width="140" xmlns="http://www.w3.org/2000/svg">
  <path d="M 68.7395132341853, 75.97269936820622 Q 68.71648117447296, 60.239321262069204, 66.91741774278454, 59.197635930256 " fill="none" id="curve_3" stroke="#000000" stroke-linecap="round" stroke-linejoin="round" stroke-width="5.212660178101849"/>
  <path d="M 66.91741774278454, 59.197635930256 Q 64.2831449717916, 52.75551187084671, 52.92825586194596, 49.010190885395374 " fill="none" id="curve_3" stroke="#000000" stroke-linecap="round" stroke-linejoin="round" stroke-width="6.634610631048958"/>
  <path d="M 52.92825586194596, 49.010190885395374 Q 44.101485890482806, 52.88833431002406, 38.038447758799705, 70.57505631811367 " fill="none" id="curve_3" stroke="#000000" stroke-linecap="round" stroke-linejoin="round" stroke-width="3.165905320797175"/>
  <path d="M 38.038447758799705, 70.57505631811367 Q 34.521393245414956, 77.74594119738668, 31.99649294375662, 96.09092454240928 " fill="none" id="curve_3" stroke="#000000" stroke-linecap="round" stroke-linejoin="round" stroke-width="2.878278181746898"/>
  <path d="M 31.99649294375662, 96.09092454240928 Q 32.80278516453627, 106.14988111086788, 46.88352581173996, 107.05504636353166 " fill="none" id="curve_3" stroke="#000000" stroke-linecap="round" stroke-linejoin="round" stroke-width="4.8972633025781915"/>
  <path d="M 46.88352581173996, 107.05504636353166 Q 54.891261893755015, 104.9051553027552, 59.14631656039195, 99.74278451598823 " fill="none" id="curve_3" stroke="#000000" stroke-linecap="round" stroke-linejoin="round" stroke-width="3.674308994811718"/>
  <path d="M 67.97079845789676, 83.90500405579641 Q 67.48603353854229, 77.11113273798944, 65.96679815747372, 73.18967382321193 " fill="none" id="curve_4" stroke="#000000" stroke-linecap="round" stroke-linejoin="round" stroke-width="4.521692084418287"/>
  <path d="M 65.96679815747372, 73.18967382321193 Q 69.67317657415092, 71.75716392008773, 70.39815231073084, 59.50157495197759 " fill="none" id="curve_4" stroke="#000000" stroke-linecap="round" stroke-linejoin="round" stroke-width="3.219019918869063"/>
  <path d="M 70.39815231073084, 59.50157495197759 Q 63.05390734824967, 57.10161159125339, 52.98690999428774, 51.00486552396749 " fill="none" id="curve_4" stroke="#000000" stroke-linecap="round" stroke-linejoin="round" stroke-width="2.3778843602891913"/>
  <path d="M 63.442231581475276, 58.64617350579546 Q 67.46914919007152, 62.49825556582061, 70.68292383377614, 69.25383467017015 " fill="none" id="curve_5" stroke="#000000" stroke-linecap="round" stroke-linejoin="round" stroke-width="2.4421762007210295"/>
  <path d="M 55.18832409953282, 47.837546701141115 Q 57.03854176602117, 48.403014843989254, 59.5879088857974, 49.312627805680386 " fill="none" id="curve_7" stroke="#000000" stroke-linecap="round" stroke-linejoin="round" stroke-width="3.0162259729390817"/>
  <path d="M 2.233252705386029, 99.36246487034077 Q 1.7295593386760506, 100.41671364278106, 1.6332310058775223, 126.91440311762712 " fill="none" id="curve_9" stroke="#000000" stroke-linecap="round" stroke-linejoin="round" stroke-width="1.657205873370023"/>
  <path d="M 1.6332310058775223, 126.91440311762712 Q 1.6029472523779427, 133.98150775217084, 1.5436785015236125, 138.97514108101564 " fill="none" id="curve_9" stroke="#000000" stroke-linecap="round" stroke-linejoin="round" stroke-width="2.610135373940255"/>
  <path d="M 1.5436785015236125, 138.97514108101564 Q 1.831321628293747, 138.69023170081485, 2.339569175607925, 138.37420560381307 " fill="none" id="curve_9" stroke="#000000" stroke-linecap="round" stroke-linejoin="round" stroke-width="1.735493355353527"/>
  <path d="M 34.95235899454338, 102.4370093640691 Q 32.847769552898185, 102.31048921739138, 32.04821406462281, 101.43148884387831 " fill="none" id="curve_10" stroke="#000000" stroke-linecap="round" stroke-linejoin="round" stroke-width="4.040376468104377"/>
  <path d="M 1.328848976684192, 93.80064419979578 Q 1.4144608220770098, 90.02730027574164, 1.5048873391631976, 72.28528153412901 " fill="none" id="curve_11" stroke="#000000" stroke-linecap="round" stroke-linejoin="round" stroke-width="1.7978505041019366"/>
  <path d="M 1.5048873391631976, 72.28528153412901 Q 1.4690999278763128, 63.62011274662643, 1.3608085839339712, 53.52372041944311 " fill="none" id="curve_11" stroke="#000000" stroke-linecap="round" stroke-linejoin="round" stroke-width="1.6460161058839904"/>
  <path d="M 1.3608085839339712, 53.52372041944311 Q 1.0053751506202588, 52.78754887128334, 0.9011982853786935, 47.02942819870743 " fill="none" id="curve_11" stroke="#000000" stroke-linecap="round" stroke-linejoin="round" stroke-width="1.3866872560139614"/>
  <path d="M 0.9011982853786935, 47.02942819870743 Q 1.0011974324575612, 43.30954447345363, 1.2321635855346145, 40.11650086109105 " fill="none" id="curve_11" stroke="#000000" stroke-linecap="round" stroke-linejoin="round" stroke-width="1.329254316290413"/>
  <path d="M 1.0197808174065217, 34.52948273388847 Q 1.033877484840578, 29.78545302913409, 1.055355512868039, 21.168521907858967 " fill="none" id="curve_12" stroke="#000000" stroke-linecap="round" stroke-linejoin="round" stroke-width="1.3362824173530279"/>
  <path d="M 1.2603619123778396, 3.4790080975414845 Q 1.6090194466683008, 2.545190132226663, 1.9333924332612753, 0.47509547907966443 " fill="none" id="curve_13" stroke="#000000" stroke-linecap="round" stroke-linejoin="round" stroke-width="1.6313550000968051"/>
  <path d="M 1.9333924332612753, 0.47509547907966443 Q 1.0069576262546778, 1.9122355780778024, 0.7716865027697659, 20.58328299386713 " fill="none" id="curve_13" stroke="#000000" stroke-linecap="round" stroke-linejoin="round" stroke-width="1.1237872027180875"/>
  <path d="M 1.2171596203356392, 38.14684006474003 Q 1.0419610009592475, 37.50381148247368, 0.8082812718906749, 36.401917560124865 " fill="none" id="curve_14" stroke="#000000" stroke-linecap="round" stroke-linejoin="round" stroke-width="1.3322335854939988"/>
  <path d="M 39.64833598267526, 103.33761467109748 Q 35.31525971886974, 102.94205021910815, 32.530565590575605, 101.6900981980754 " fill="none" id="curve_19" stroke="#000000" stroke-linecap="round" stroke-linejoin="round" stroke-width="2.93822346130729"/>
  <path d="M 32.19238544930994, 101.61841544665208 Q 32.35593767086501, 96.0864914778526, 33.51222471527055, 94.5748727095215 " fill="none" id="curve_25" stroke="#000000" stroke-linecap="round" stroke-linejoin="round" stroke-width="2.75906756126579"/>
  <path d="M 32.504746911562236, 85.97092978089357 Q 32.614412678454386, 85.85661822196371, 32.718247883568694, 85.67485456687217 " fill="none" id="curve_26" stroke="#000000" stroke-linecap="round" stroke-linejoin="round" stroke-width="4.346024548962134"/>
  <path d="M 55.12597570066414, 51.79479854739105 Q 63.323130632797174, 54.40691519028722, 70.74706243434721, 58.02890374141555 " fill="none" id="curve_27" stroke="#000000" stroke-linecap="round" stroke-linejoin="round" stroke-width="2.264598205777972"/>
  <path d="M 67.06642231413348, 75.51007447478159 Q 67.39433389294291, 72.12133363642958, 67.77027674028815, 67.64797924731396 " fill="none" id="curve_28" stroke="#000000" stroke-linecap="round" stroke-linejoin="round" stroke-width="3.7300240735699637"/>
  <path d="M 66.90210423646054, 77.58108345654011 Q 67.48538008385653, 76.21983812857879, 68.48666729457298, 74.57861955449278 " fill="none" id="curve_58" stroke="#000000" stroke-linecap="round" stroke-linejoin="round" stroke-width="3.7791735481480297"/>
  <path d="M 31.731381761798332, 97.89473390675977 Q 31.691193604157835, 98.5038448549967, 31.60281045827442, 99.2284719978805 " fill="none" id="curve_63" stroke="#000000" stroke-linecap="round" stroke-linejoin="round" stroke-width="2.617879061953411"/>
  <path d="M 66.03876367827519, 76.94503845934673 Q 65.94001104449742, 76.1472170755834, 65.28081476911335, 75.93849867714552 " fill="none" id="curve_78" stroke="#000000" stroke-linecap="round" stroke-linejoin="round" stroke-width="3.470420706291245"/>
  <path d="M 69.02445139794867, 77.73534338003026 Q 69.2194071332905, 76.68822791508948, 69.47714086390933, 74.29375099330963 " fill="none" id="curve_80" stroke="#000000" stroke-linecap="round" stroke-linejoin="round" stroke-width="2.370282307150463"/>
  <path d="M 51.68764511040395, 103.48551547769698 Q 47.57391627438194, 105.18971117508163, 43.45444974503752, 108.60808759446101 " fill="none" id="curve_81" stroke="#000000" stroke-linecap="round" stroke-linejoin="round" stroke-width="2.3940090414961657"/>
  <path d="M 0.7289329665780429, 97.40843641472979 Q 1.1168789123474308, 97.28430552409931, 1.3725284621480136, 96.80048076745382 " fill="none" id="curve_85" stroke="#000000" stroke-linecap="round" stroke-linejoin="round" stroke-width="1.6648298313348762"/>
  <path d="M 52.818302184789815, 51.45342167616204 Q 51.68393652450608, 49.58288440434368, 48.06528356105057, 48.060902046315334 " fill="none" id="curve_140" stroke="#000000" stroke-linecap="round" stroke-linejoin="round" stroke-width="2.5598961742223527"/>
  <path d="M 57.029292271289336, 52.810003125005814 Q 55.46208857798029, 52.51611633556229, 53.1732466207251, 52.010963387674565 " fill="none" id="curve_143" stroke="#000000" stroke-linecap="round" stroke-linejoin="round" stroke-width="2.622851590496573"/>
</svg>
