<?xml version="1.0" ?>
<svg height="140" width="140" xmlns="http://www.w3.org/2000/svg">
  <path d="M 53.20681381225586, 123.83416414260864 Q 52.83549656036681, 126.20828158704262, 46.42130117108354, 126.52129888298077 " fill="none" id="curve_1" stroke="#000000" stroke-linecap="round" stroke-linejoin="round" stroke-width="4.723354328631235"/>
  <path d="M 46.42130117108354, 126.52129888298077 Q 37.46911134906263, 125.00998902011243, 32.32897019405492, 114.81866552113297 " fill="none" id="curve_1" stroke="#000000" stroke-linecap="round" stroke-linejoin="round" stroke-width="4.7078091101100545"/>
  <path d="M 32.32897019405492, 114.81866552113297 Q 32.32395780189003, 103.73318959426106, 32.21653147516309, 102.8781962427547 " fill="none" id="curve_1" stroke="#000000" stroke-linecap="round" stroke-linejoin="round" stroke-width="4.872529032233977"/>
  <path d="M 32.21653147516309, 102.8781962427547 Q 34.87859800360208, 92.20750817310159, 46.82793793924719, 86.22802662364154 " fill="none" id="curve_1" stroke="#000000" stroke-linecap="round" stroke-linejoin="round" stroke-width="4.415891567196823"/>
  <path d="M 46.82793793924719, 86.22802662364154 Q 55.163568116857796, 92.90850779015513, 60.66425252986562, 104.77860477230577 " fill="none" id="curve_1" stroke="#000000" stroke-linecap="round" stroke-linejoin="round" stroke-width="4.433109035047508"/>
  <path d="M 60.66425252986562, 104.77860477230577 Q 59.35602319868572, 119.5278228151127, 53.63773569384661, 124.47971236462095 " fill="none" id="curve_1" stroke="#000000" stroke-linecap="round" stroke-linejoin="round" stroke-width="3.4633905219366263"/>
  <path d="M 52.95211335911081, 95.88908036012019 Q 50.86704397303719, 94.81324921160778, 50.11084843199786, 88.6339002621378 " fill="none" id="curve_2" stroke="#000000" stroke-linecap="round" stroke-linejoin="round" stroke-width="3.5594081157901507"/>
  <path d="M 30.472434773182655, 106.58335654428005 Q 31.135145406255493, 105.86678824335331, 31.574152607876393, 102.98189002819824 " fill="none" id="curve_3" stroke="#000000" stroke-linecap="round" stroke-linejoin="round" stroke-width="2.614794497754972"/>
  <path d="M 52.58332083791093, 126.02845265071855 Q 51.009821839998224, 125.9232377961229, 49.21663802831264, 125.73476183601095 " fill="none" id="curve_4" stroke="#000000" stroke-linecap="round" stroke-linejoin="round" stroke-width="4.271558417273193"/>
  <path d="M 30.75783376863962, 110.4019485765748 Q 30.812779502155152, 110.02450690550303, 30.88538103324684, 109.34324731498296 " fill="none" id="curve_6" stroke="#000000" stroke-linecap="round" stroke-linejoin="round" stroke-width="2.7302433295512243"/>
  <path d="M 33.6740137599593, 113.18488099184788 Q 34.54032886240345, 114.7181018919517, 35.68160518128207, 117.47683105366325 " fill="none" id="curve_90" stroke="#000000" stroke-linecap="round" stroke-linejoin="round" stroke-width="2.210687488446682"/>
</svg>
