<?xml version="1.0" ?>
<svg height="140" width="140" xmlns="http://www.w3.org/2000/svg">
  <path d="M 34.88975524902344, 77.82991027832031 Q 35.10590745328503, 80.28265004905185, 42.41380038277413, 80.51019126492035 " fill="none" id="curve_1" stroke="#000000" stroke-linecap="round" stroke-linejoin="round" stroke-width="5.063054474165034"/>
  <path d="M 42.41380038277413, 80.51019126492035 Q 51.48192918818078, 78.01690293524805, 57.94552253784019, 68.11732067375983 " fill="none" id="curve_1" stroke="#000000" stroke-linecap="round" stroke-linejoin="round" stroke-width="4.876167725294643"/>
  <path d="M 57.94552253784019, 68.11732067375983 Q 58.41410357992183, 63.5128755203579, 59.885110330320735, 61.533084268988816 " fill="none" id="curve_1" stroke="#000000" stroke-linecap="round" stroke-linejoin="round" stroke-width="3.644714695229955"/>
  <path d="M 59.885110330320735, 61.533084268988816 Q 58.25259415100207, 50.82933773759769, 48.99102800168325, 43.69878525538225 " fill="none" id="curve_1" stroke="#000000" stroke-linecap="round" stroke-linejoin="round" stroke-width="4.164569382460362"/>
  <path d="M 48.99102800168325, 43.69878525538225 Q 53.626399708147204, 43.47949035405432, 53.93826601513183, 36.57552583171567 " fill="none" id="curve_1" stroke="#000000" stroke-linecap="round" stroke-linejoin="round" stroke-width="3.5882851344633444"/>
  <path d="M 53.93826601513183, 36.57552583171567 Q 50.310072617613855, 35.949252775360115, 48.27475304518667, 34.049842408166576 " fill="none" id="curve_1" stroke="#000000" stroke-linecap="round" stroke-linejoin="round" stroke-width="4.563003132335534"/>
  <path d="M 48.27475304518667, 34.049842408166576 Q 41.119618263145504, 36.731522681725345, 35.08318366912891, 41.645830596681904 " fill="none" id="curve_1" stroke="#000000" stroke-linecap="round" stroke-linejoin="round" stroke-width="5.103323459118396"/>
  <path d="M 35.08318366912891, 41.645830596681904 Q 31.88593448782673, 49.81207113380829, 26.933960065731213, 59.32010207854402 " fill="none" id="curve_1" stroke="#000000" stroke-linecap="round" stroke-linejoin="round" stroke-width="4.073964153316257"/>
  <path d="M 26.933960065731213, 59.32010207854402 Q 27.103589949994042, 79.07900973459115, 36.25834252874733, 79.75708063309408 " fill="none" id="curve_1" stroke="#000000" stroke-linecap="round" stroke-linejoin="round" stroke-width="4.017021832862422"/>
  <path d="M 36.25834252874733, 79.75708063309408 Q 30.37952263834373, 77.38164212970972, 26.340827630499156, 72.2450317286431 " fill="none" id="curve_1" stroke="#000000" stroke-linecap="round" stroke-linejoin="round" stroke-width="2.842278303703907"/>
  <path d="M 45.745704806685886, 42.60404686659108 Q 43.10250347021301, 41.30769879458409, 37.16972830866588, 39.921899865706024 " fill="none" id="curve_2" stroke="#000000" stroke-linecap="round" stroke-linejoin="round" stroke-width="3.3753133993159734"/>
  <path d="M 37.16972830866588, 39.921899865706024 Q 35.08861837077464, 40.149567600321156, 34.31004203029031, 41.18526325418524 " fill="none" id="curve_2" stroke="#000000" stroke-linecap="round" stroke-linejoin="round" stroke-width="5.858621677075303"/>
  <path d="M 89.46556663513184, 90.33938407897949 Q 89.58380333672964, 88.80050196422637, 89.7594312060145, 86.27634941321037 " fill="none" id="curve_16" stroke="#000000" stroke-linecap="round" stroke-linejoin="round" stroke-width="1.5797263344227996"/>
  <path d="M 89.89017437610849, 77.47995134300398 Q 89.87849561339323, 77.4334533656012, 89.8623906428075, 77.35162634176827 " fill="none" id="curve_17" stroke="#000000" stroke-linecap="round" stroke-linejoin="round" stroke-width="1.8781960598892429"/>
  <path d="M 36.07195983428619, 43.3369696098238 Q 35.71937656603386, 44.81802375237964, 34.3758415332744, 45.831151242205536 " fill="none" id="curve_19" stroke="#000000" stroke-linecap="round" stroke-linejoin="round" stroke-width="3.0255366118888296"/>
  <path d="M 28.017306742374245, 57.69021214591693 Q 28.639313610608866, 54.52428522429407, 29.727831607144637, 51.08177285944308 " fill="none" id="curve_20" stroke="#000000" stroke-linecap="round" stroke-linejoin="round" stroke-width="2.805183591267201"/>
  <path d="M 89.74867000252995, 4.27245941363843 Q 89.8125285084588, 3.4941315198227674, 89.90953725633396, 2.287756951872783 " fill="none" id="curve_24" stroke="#000000" stroke-linecap="round" stroke-linejoin="round" stroke-width="2.1891590327564123"/>
  <path d="M 90.1462049484253, 25.025800704956055 Q 89.83405607391117, 25.287324632265108, 89.30951729392666, 25.681071789789982 " fill="none" id="curve_38" stroke="#000000" stroke-linecap="round" stroke-linejoin="round" stroke-width="1.9894872680309614"/>
  <path d="M 89.64397833466664, 138.08351526763653 Q 89.7875823752131, 137.83874414675674, 89.98461399583034, 137.3624222955454 " fill="none" id="curve_45" stroke="#000000" stroke-linecap="round" stroke-linejoin="round" stroke-width="2.0062384550443424"/>
  <path d="M 35.79590490836745, 78.5794045248324 Q 36.781327645407934, 78.41894029946248, 37.89834245616092, 78.13520609759347 " fill="none" id="curve_60" stroke="#000000" stroke-linecap="round" stroke-linejoin="round" stroke-width="3.1976803799953255"/>
</svg>
