<?xml version="1.0" ?>
<svg height="140" width="140" xmlns="http://www.w3.org/2000/svg">
  <path d="M 62.8465576171875, 92.41133880615234 Q 62.22461686567638, 97.46908440753025, 56.202438143391184, 98.90937939243304 " fill="none" id="curve_1" stroke="#000000" stroke-linecap="round" stroke-linejoin="round" stroke-width="7.380613809230903"/>
  <path d="M 56.202438143391184, 98.90937939243304 Q 52.102995486482065, 99.40829927680733, 48.74606909503058, 100.25657434665925 " fill="none" id="curve_1" stroke="#000000" stroke-linecap="round" stroke-linejoin="round" stroke-width="4.842952704832192"/>
  <path d="M 48.74606909503058, 100.25657434665925 Q 39.0755879937501, 97.56906478170768, 31.993919263802677, 82.26938669342431 " fill="none" id="curve_1" stroke="#000000" stroke-linecap="round" stroke-linejoin="round" stroke-width="5.70758335845893"/>
  <path d="M 31.993919263802677, 82.26938669342431 Q 32.09034266533014, 69.35369490681656, 32.88646017633674, 66.24280278726141 " fill="none" id="curve_1" stroke="#000000" stroke-linecap="round" stroke-linejoin="round" stroke-width="6.893316072381059"/>
  <path d="M 32.88646017633674, 66.24280278726141 Q 36.73313014186597, 56.3830960674884, 43.75175417049475, 45.543296312343344 " fill="none" id="curve_1" stroke="#000000" stroke-linecap="round" stroke-linejoin="round" stroke-width="5.373421190101027"/>
  <path d="M 43.75175417049475, 45.543296312343344 Q 64.27874181800297, 47.18713941456807, 68.4140076758688, 74.42608597513853 " fill="none" id="curve_1" stroke="#000000" stroke-linecap="round" stroke-linejoin="round" stroke-width="4.991328089471028"/>
  <path d="M 68.4140076758688, 74.42608597513853 Q 67.61434013854884, 91.74252867118676, 61.35923048729538, 95.50304919392164 " fill="none" id="curve_1" stroke="#000000" stroke-linecap="round" stroke-linejoin="round" stroke-width="5.031733539831633"/>
  <path d="M 45.54698706676255, 47.3871634721632 Q 46.12789500112215, 46.412587670717066, 55.645340288413195, 46.26704006706738 " fill="none" id="curve_3" stroke="#000000" stroke-linecap="round" stroke-linejoin="round" stroke-width="3.578462338989291"/>
  <path d="M 39.82114987462145, 47.69872206515341 Q 38.66016299503977, 52.8780279216543, 34.5161609280189, 59.03284337145375 " fill="none" id="curve_4" stroke="#000000" stroke-linecap="round" stroke-linejoin="round" stroke-width="3.2232165159174606"/>
  <path d="M 29.214741000225892, 73.72568966693645 Q 30.153484511728305, 71.15891211747085, 31.057367822123595, 65.32926417096083 " fill="none" id="curve_5" stroke="#000000" stroke-linecap="round" stroke-linejoin="round" stroke-width="2.874581796254138"/>
  <path d="M 59.987597343770766, 51.18444143807755 Q 58.76211289471811, 46.422987097022, 46.74697914584274, 44.68090379151184 " fill="none" id="curve_9" stroke="#000000" stroke-linecap="round" stroke-linejoin="round" stroke-width="2.330534374771444"/>
  <path d="M 61.69896263461806, 98.35912543557264 Q 64.26282676322695, 89.61375301014165, 69.28905082999714, 77.2280221404943 " fill="none" id="curve_13" stroke="#000000" stroke-linecap="round" stroke-linejoin="round" stroke-width="2.885163830262963"/>
  <path d="M 50.65738580170634, 98.49531708192586 Q 42.73616449783745, 97.72097293017609, 38.56574748704797, 94.51284670049105 " fill="none" id="curve_14" stroke="#000000" stroke-linecap="round" stroke-linejoin="round" stroke-width="3.2857371531587214"/>
  <path d="M 56.09129435604689, 55.75834800381388 Q 66.72717479314517, 57.30187109830063, 69.02869829501158, 67.39041776796553 " fill="none" id="curve_15" stroke="#000000" stroke-linecap="round" stroke-linejoin="round" stroke-width="2.4498957339530008"/>
  <path d="M 49.398320315616516, 43.55603129693084 Q 41.76054441983811, 44.48453457717179, 38.34412049357777, 50.05401605666117 " fill="none" id="curve_16" stroke="#000000" stroke-linecap="round" stroke-linejoin="round" stroke-width="3.0197655198057154"/>
  <path d="M 34.703582763671875, 91.13125228881836 Q 41.03300468053168, 93.07974837342293, 44.61725653321503, 98.90014699062868 " fill="none" id="curve_69" stroke="#000000" stroke-linecap="round" stroke-linejoin="round" stroke-width="2.8919075103938137"/>
</svg>
