<?xml version="1.0" ?>
<svg height="140" width="140" xmlns="http://www.w3.org/2000/svg">
  <path d="M 66.04640579223633, 82.81661033630371 Q 63.50793390017968, 88.36405478801915, 58.50976690134837, 93.58428973995785 " fill="none" id="curve_1" stroke="#000000" stroke-linecap="round" stroke-linejoin="round" stroke-width="3.6447336095920675"/>
  <path d="M 53.701704365163785, 94.20598172414786 Q 51.66509333647445, 97.19813912154349, 42.953975682702804, 98.87769268022559 " fill="none" id="curve_2" stroke="#000000" stroke-linecap="round" stroke-linejoin="round" stroke-width="4.395881918735516"/>
  <path d="M 42.953975682702804, 98.87769268022559 Q 36.17386297993886, 97.95997939931313, 31.538531926660653, 95.07475672532847 " fill="none" id="curve_2" stroke="#000000" stroke-linecap="round" stroke-linejoin="round" stroke-width="2.8586520934607735"/>
  <path d="M 31.538531926660653, 95.07475672532847 Q 29.18018193132713, 92.28411241536502, 27.19055300940633, 87.22854194547719 " fill="none" id="curve_2" stroke="#000000" stroke-linecap="round" stroke-linejoin="round" stroke-width="5.02635510449774"/>
  <path d="M 27.19055300940633, 87.22854194547719 Q 26.432279976837634, 81.12143099244417, 23.350906289578866, 78.41600334064059 " fill="none" id="curve_2" stroke="#000000" stroke-linecap="round" stroke-linejoin="round" stroke-width="3.7733840790268296"/>
  <path d="M 23.350906289578866, 78.41600334064059 Q 23.817942038737062, 66.55258408251267, 26.16712169520717, 57.92232391760652 " fill="none" id="curve_2" stroke="#000000" stroke-linecap="round" stroke-linejoin="round" stroke-width="2.9757567033636807"/>
  <path d="M 26.16712169520717, 57.92232391760652 Q 31.549280672506498, 56.88493916040874, 32.552346769197094, 46.35964079096582 " fill="none" id="curve_2" stroke="#000000" stroke-linecap="round" stroke-linejoin="round" stroke-width="4.300152281928436"/>
  <path d="M 32.552346769197094, 46.35964079096582 Q 34.31851153991445, 45.72506911415701, 35.48247053788487, 43.89002090908349 " fill="none" id="curve_2" stroke="#000000" stroke-linecap="round" stroke-linejoin="round" stroke-width="2.6290000336508306"/>
  <path d="M 35.48247053788487, 43.89002090908349 Q 30.696684444710186, 48.16004670981281, 22.863575629510393, 55.71301406397872 " fill="none" id="curve_2" stroke="#000000" stroke-linecap="round" stroke-linejoin="round" stroke-width="2.033712873597678"/>
  <path d="M 37.356924403383694, 48.01403844784445 Q 36.73656687251233, 46.116139811242036, 35.2143407318388, 44.201553216522335 " fill="none" id="curve_3" stroke="#000000" stroke-linecap="round" stroke-linejoin="round" stroke-width="1.757107418742513"/>
  <path d="M 50.43819722368832, 38.809499130934924 Q 58.28351142476919, 39.45222725680258, 60.45952475524504, 43.6811896608657 " fill="none" id="curve_4" stroke="#000000" stroke-linecap="round" stroke-linejoin="round" stroke-width="1.810653457196424"/>
  <path d="M 60.45952475524504, 43.6811896608657 Q 63.27162010383735, 43.43792803746173, 63.653217824717366, 40.03081030085979 " fill="none" id="curve_4" stroke="#000000" stroke-linecap="round" stroke-linejoin="round" stroke-width="3.452948850162546"/>
  <path d="M 66.8910310126772, 41.60145194501637 Q 68.04552792512145, 48.30423695321454, 69.52378346929424, 58.5707438274097 " fill="none" id="curve_5" stroke="#000000" stroke-linecap="round" stroke-linejoin="round" stroke-width="3.041689867150235"/>
  <path d="M 69.52378346929424, 58.5707438274097 Q 69.99720057546882, 63.56325426097348, 70.56064079296718, 67.89131751227389 " fill="none" id="curve_5" stroke="#000000" stroke-linecap="round" stroke-linejoin="round" stroke-width="4.160039823516906"/>
  <path d="M 70.56064079296718, 67.89131751227389 Q 69.44602329282898, 75.09478625736516, 67.59061347339225, 79.48400514075863 " fill="none" id="curve_5" stroke="#000000" stroke-linecap="round" stroke-linejoin="round" stroke-width="5.511551417093897"/>
  <path d="M 67.59061347339225, 79.48400514075863 Q 67.25609818728441, 75.31983971669422, 64.10958734231629, 74.7140801159757 " fill="none" id="curve_5" stroke="#000000" stroke-linecap="round" stroke-linejoin="round" stroke-width="3.674959877298147"/>
  <path d="M 62.919860719710364, 55.46978332096844 Q 62.563439643713565, 51.577463554055335, 61.45894678655452, 48.95523359219856 " fill="none" id="curve_6" stroke="#000000" stroke-linecap="round" stroke-linejoin="round" stroke-width="1.6692051337912241"/>
  <path d="M 62.31987764336975, 44.518102663708135 Q 63.72968178267662, 44.840726033852754, 65.70635304873703, 45.294221629738416 " fill="none" id="curve_7" stroke="#000000" stroke-linecap="round" stroke-linejoin="round" stroke-width="3.8696813416087434"/>
  <path d="M 44.24137110153396, 41.94273080044514 Q 42.59073188102979, 42.72256822076029, 41.412273826786716, 44.950043267628416 " fill="none" id="curve_8" stroke="#000000" stroke-linecap="round" stroke-linejoin="round" stroke-width="2.5377387613969047"/>
  <path d="M 23.861765245355713, 60.61608637605611 Q 23.927417214744523, 59.62699797894818, 24.03464894610847, 58.6090974537787 " fill="none" id="curve_9" stroke="#000000" stroke-linecap="round" stroke-linejoin="round" stroke-width="3.819720962094914"/>
  <path d="M 53.96804885407677, 92.84916757918984 Q 57.45355115084043, 91.50246085142601, 62.00117053126307, 88.9134230434526 " fill="none" id="curve_10" stroke="#000000" stroke-linecap="round" stroke-linejoin="round" stroke-width="3.1911779640285016"/>
  <path d="M 67.67864748958542, 56.46855670870824 Q 67.71679872818022, 53.65711851592977, 67.74508690735603, 45.50875333066822 " fill="none" id="curve_11" stroke="#000000" stroke-linecap="round" stroke-linejoin="round" stroke-width="3.053665807925852"/>
  <path d="M 47.973252518250035, 96.32251509480324 Q 48.940423365323916, 96.097905560318, 49.69831460014008, 95.39753465488891 " fill="none" id="curve_13" stroke="#000000" stroke-linecap="round" stroke-linejoin="round" stroke-width="3.4886458359842574"/>
  <path d="M 18.813015888134153, 75.47550841881514 Q 19.099682772725757, 75.2823422372382, 19.497306451413387, 74.95915812904657 " fill="none" id="curve_28" stroke="#000000" stroke-linecap="round" stroke-linejoin="round" stroke-width="2.0790368032357605"/>
  <path d="M 18.28446585134319, 65.43895748453001 Q 18.5496740429484, 66.38386726528779, 19.117235146566586, 67.87416582842332 " fill="none" id="curve_29" stroke="#000000" stroke-linecap="round" stroke-linejoin="round" stroke-width="1.5733070636177684"/>
  <path d="M 61.76156792383726, 38.72361072410196 Q 61.66181151641459, 39.347094983058646, 61.44464718812263, 40.3678193133772 " fill="none" id="curve_32" stroke="#000000" stroke-linecap="round" stroke-linejoin="round" stroke-width="2.442243265606712"/>
  <path d="M 70.9600626484391, 64.6639559707875 Q 71.39284654465392, 65.23259062666072, 72.11886702822203, 66.18712365908874 " fill="none" id="curve_87" stroke="#000000" stroke-linecap="round" stroke-linejoin="round" stroke-width="2.2455507724677144"/>
  <path d="M 29.911807992098925, 96.21054855803199 Q 30.26186661165945, 96.39803745586332, 30.73880454718113, 96.73494281801543 " fill="none" id="curve_116" stroke="#000000" stroke-linecap="round" stroke-linejoin="round" stroke-width="2.503758520812541"/>
  <path d="M 60.452684172350274, 44.97449721983981 Q 60.21505056973342, 44.92609962157684, 59.85563154247965, 44.84817349242192 " fill="none" id="curve_153" stroke="#000000" stroke-linecap="round" stroke-linejoin="round" stroke-width="2.2747373785563068"/>
</svg>
