<?xml version="1.0" ?>
<svg height="140" width="140" xmlns="http://www.w3.org/2000/svg">
  <path d="M 22.87657642364502, 114.68657231330872 Q 20.742261708031275, 110.11116835456222, 17.01257646232085, 99.80711634079466 " fill="none" id="curve_1" stroke="#000000" stroke-linecap="round" stroke-linejoin="round" stroke-width="6.003438712462512"/>
  <path d="M 17.01257646232085, 99.80711634079466 Q 17.191182564630573, 81.44797554749982, 21.410163644387623, 76.46837565927063 " fill="none" id="curve_1" stroke="#000000" stroke-linecap="round" stroke-linejoin="round" stroke-width="4.816289407304011"/>
  <path d="M 21.410163644387623, 76.46837565927063 Q 24.604007227868784, 63.940186828518726, 38.890316139663724, 52.746093037985055 " fill="none" id="curve_1" stroke="#000000" stroke-linecap="round" stroke-linejoin="round" stroke-width="4.973678810861841"/>
  <path d="M 38.890316139663724, 52.746093037985055 Q 48.185875235707144, 50.582663745689686, 61.35259659036019, 48.336819123122126 " fill="none" id="curve_1" stroke="#000000" stroke-linecap="round" stroke-linejoin="round" stroke-width="4.135420976534978"/>
  <path d="M 61.35259659036019, 48.336819123122126 Q 64.37304273767633, 50.9689283804949, 65.59317098493459, 57.24915317713537 " fill="none" id="curve_1" stroke="#000000" stroke-linecap="round" stroke-linejoin="round" stroke-width="4.533023911858402"/>
  <path d="M 65.59317098493459, 57.24915317713537 Q 63.23980962935947, 74.48685003312335, 47.97090614359533, 96.57599421676684 " fill="none" id="curve_1" stroke="#000000" stroke-linecap="round" stroke-linejoin="round" stroke-width="4.239799367477784"/>
  <path d="M 47.97090614359533, 96.57599421676684 Q 42.275420918777996, 106.644683157179, 29.13355113744189, 115.92908650797901 " fill="none" id="curve_1" stroke="#000000" stroke-linecap="round" stroke-linejoin="round" stroke-width="4.458502354015845"/>
  <path d="M 29.13355113744189, 115.92908650797901 Q 24.54266787172299, 115.02631412988413, 22.75897426811134, 111.25130617449614 " fill="none" id="curve_1" stroke="#000000" stroke-linecap="round" stroke-linejoin="round" stroke-width="4.706332823831783"/>
  <path d="M 42.1233869540028, 53.80695788372628 Q 43.964838697763554, 53.555352695530246, 45.05198997751508, 52.49783593705275 " fill="none" id="curve_3" stroke="#000000" stroke-linecap="round" stroke-linejoin="round" stroke-width="3.9814222106212824"/>
  <path d="M 90.69418352271242, 72.27861131634188 Q 89.45326932071839, 72.65410261531821, 89.38039472231856, 102.77457583547746 " fill="none" id="curve_4" stroke="#000000" stroke-linecap="round" stroke-linejoin="round" stroke-width="2.533574912832428"/>
  <path d="M 89.38039472231856, 102.77457583547746 Q 89.34788692227973, 108.90087420526379, 89.24403266368367, 131.82414203898625 " fill="none" id="curve_4" stroke="#000000" stroke-linecap="round" stroke-linejoin="round" stroke-width="2.418532076485109"/>
  <path d="M 89.24403266368367, 131.82414203898625 Q 89.23977748988338, 137.30519795300498, 89.21647158382667, 138.8497889693414 " fill="none" id="curve_4" stroke="#000000" stroke-linecap="round" stroke-linejoin="round" stroke-width="2.6590837094624398"/>
  <path d="M 89.21647158382667, 138.8497889693414 Q 89.10678296353147, 137.9956422227934, 88.86241816029325, 137.12257710300676 " fill="none" id="curve_4" stroke="#000000" stroke-linecap="round" stroke-linejoin="round" stroke-width="1.481747714642102"/>
  <path d="M 89.33723793829452, 76.44176001082842 Q 89.45879444405418, 74.38956593867276, 89.54233539105773, 67.51602158901633 " fill="none" id="curve_7" stroke="#000000" stroke-linecap="round" stroke-linejoin="round" stroke-width="1.6020461921511153"/>
  <path d="M 89.54233539105773, 67.51602158901633 Q 89.54749189425473, 62.613064865668235, 89.55734398433678, 53.685338994264384 " fill="none" id="curve_7" stroke="#000000" stroke-linecap="round" stroke-linejoin="round" stroke-width="1.3312433208636008"/>
  <path d="M 89.55734398433678, 53.685338994264384 Q 89.56160384218715, 49.73160486544236, 89.56863070437205, 40.03184547996641 " fill="none" id="curve_7" stroke="#000000" stroke-linecap="round" stroke-linejoin="round" stroke-width="1.4049479391775936"/>
  <path d="M 89.56863070437205, 40.03184547996641 Q 89.53244725760108, 37.8260148729036, 89.5008253694464, 27.003984838486915 " fill="none" id="curve_7" stroke="#000000" stroke-linecap="round" stroke-linejoin="round" stroke-width="1.469294421644096"/>
  <path d="M 89.5008253694464, 27.003984838486915 Q 89.5132580111053, 22.596047195443745, 89.54334283032907, 13.373546987534766 " fill="none" id="curve_7" stroke="#000000" stroke-linecap="round" stroke-linejoin="round" stroke-width="1.4499874000089714"/>
  <path d="M 89.54334283032907, 13.373546987534766 Q 89.37668570893915, 5.404679675891131, 88.38014793553842, 1.1285499629986333 " fill="none" id="curve_7" stroke="#000000" stroke-linecap="round" stroke-linejoin="round" stroke-width="2.4966903479702505"/>
  <path d="M 88.38014793553842, 1.1285499629986333 Q 87.92459787741527, 1.4072859919606269, 87.53387088845932, 1.841937689847775 " fill="none" id="curve_7" stroke="#000000" stroke-linecap="round" stroke-linejoin="round" stroke-width="3.6752342951227477"/>
  <path d="M 87.53387088845932, 1.841937689847775 Q 88.94801290357223, 1.9536450712223308, 89.51886299356052, 2.5611205936407035 " fill="none" id="curve_7" stroke="#000000" stroke-linecap="round" stroke-linejoin="round" stroke-width="2.473023334797653"/>
  <path d="M 56.16053765341282, 47.526986256309456 Q 50.82783971414487, 48.44098405948963, 46.4918336122293, 50.91073530027456 " fill="none" id="curve_10" stroke="#000000" stroke-linecap="round" stroke-linejoin="round" stroke-width="2.5585761152312547"/>
  <path d="M 46.4918336122293, 50.91073530027456 Q 31.39384115479325, 52.95615450789528, 22.318878522772952, 68.50438260502662 " fill="none" id="curve_10" stroke="#000000" stroke-linecap="round" stroke-linejoin="round" stroke-width="2.962945774162202"/>
  <path d="M 22.318878522772952, 68.50438260502662 Q 21.348970183407022, 75.72800526840967, 18.625740405667873, 80.04929266388206 " fill="none" id="curve_10" stroke="#000000" stroke-linecap="round" stroke-linejoin="round" stroke-width="2.588457309357327"/>
  <path d="M 57.25784228101905, 76.20087226165641 Q 62.257965346960525, 72.99069399130518, 64.62821237806446, 55.51698674296396 " fill="none" id="curve_11" stroke="#000000" stroke-linecap="round" stroke-linejoin="round" stroke-width="3.16079562011293"/>
  <path d="M 64.62821237806446, 55.51698674296396 Q 63.88321708813014, 49.71042224645129, 54.316140184828214, 48.3354122061656 " fill="none" id="curve_11" stroke="#000000" stroke-linecap="round" stroke-linejoin="round" stroke-width="2.2901548474541022"/>
  <path d="M 38.22639624205582, 54.63943783665096 Q 36.67158373409322, 54.74891745390729, 35.30335853256055, 55.05297254096518 " fill="none" id="curve_12" stroke="#000000" stroke-linecap="round" stroke-linejoin="round" stroke-width="3.5101098811126197"/>
  <path d="M 44.490812903155835, 101.44835264887428 Q 40.05949617964143, 102.84952356154308, 37.74488195034482, 108.87569517309893 " fill="none" id="curve_14" stroke="#000000" stroke-linecap="round" stroke-linejoin="round" stroke-width="3.062589925259015"/>
  <path d="M 26.747611888920844, 114.28354782892212 Q 23.980254019033868, 113.47563262076817, 20.333165614558794, 112.0219503348814 " fill="none" id="curve_15" stroke="#000000" stroke-linecap="round" stroke-linejoin="round" stroke-width="3.279386872935334"/>
  <path d="M 15.74736186358049, 90.30923012013423 Q 15.943969787625457, 90.50025218426786, 16.088520505439966, 91.13185051879422 " fill="none" id="curve_17" stroke="#000000" stroke-linecap="round" stroke-linejoin="round" stroke-width="3.4599385260011153"/>
  <path d="M 17.88737299536915, 104.75712224451217 Q 18.445262086965304, 106.95946141280156, 20.176771651668293, 109.15128061371034 " fill="none" id="curve_19" stroke="#000000" stroke-linecap="round" stroke-linejoin="round" stroke-width="2.9697707311243726"/>
  <path d="M 44.09421800898696, 99.12761132098987 Q 42.58089828913622, 101.56239854943942, 39.782217504746455, 105.44003668673392 " fill="none" id="curve_47" stroke="#000000" stroke-linecap="round" stroke-linejoin="round" stroke-width="2.346732443935444"/>
  <path d="M 30.28975043880611, 114.4125965494304 Q 30.992434839901733, 114.23981672959655, 31.89476369235525, 113.9470599607976 " fill="none" id="curve_48" stroke="#000000" stroke-linecap="round" stroke-linejoin="round" stroke-width="3.9018059574824226"/>
  <path d="M 62.71321975137906, 55.79039182755035 Q 63.216906657259635, 57.847377452782354, 63.753155780529404, 62.23216801577601 " fill="none" id="curve_70" stroke="#000000" stroke-linecap="round" stroke-linejoin="round" stroke-width="2.45028960022362"/>
  <path d="M 36.36036168072962, 54.307938444059644 Q 38.22305614798499, 52.79875871453708, 45.570712166297014, 51.43941236233425 " fill="none" id="curve_120" stroke="#000000" stroke-linecap="round" stroke-linejoin="round" stroke-width="2.6136568292472195"/>
  <path d="M 19.083547228360935, 106.24775829194499 Q 19.694101334452004, 107.03266962718949, 20.49807965747315, 108.96794622803674 " fill="none" id="curve_139" stroke="#000000" stroke-linecap="round" stroke-linejoin="round" stroke-width="2.918982084879988"/>
  <path d="M 19.758610908524588, 102.04510255650223 Q 19.724028853646114, 106.44974890682204, 19.628893619565922, 109.50854376057625 " fill="none" id="curve_167" stroke="#000000" stroke-linecap="round" stroke-linejoin="round" stroke-width="3.3136078280477066"/>
  <path d="M 30.81241988810429, 113.96791098879682 Q 32.289463536840834, 113.83095588022358, 34.260969659836334, 113.50372989232852 " fill="none" id="curve_168" stroke="#000000" stroke-linecap="round" stroke-linejoin="round" stroke-width="3.1855793289000682"/>
</svg>
