<?xml version="1.0" ?>
<svg height="140" width="140" xmlns="http://www.w3.org/2000/svg">
  <path d="M 24.671345710754395, 64.94771766662598 Q 25.059460699623287, 55.1242188947492, 28.854950805837603, 48.91962361174785 " fill="none" id="curve_1" stroke="#000000" stroke-linecap="round" stroke-linejoin="round" stroke-width="4.3521421441743335"/>
  <path d="M 28.854950805837603, 48.91962361174785 Q 32.20405290642979, 43.43552333663299, 36.933212153576086, 33.732089441709434 " fill="none" id="curve_1" stroke="#000000" stroke-linecap="round" stroke-linejoin="round" stroke-width="4.819121926130841"/>
  <path d="M 36.933212153576086, 33.732089441709434 Q 40.11844173703504, 29.335368090579657, 48.09883376646396, 26.77950902305678 " fill="none" id="curve_1" stroke="#000000" stroke-linecap="round" stroke-linejoin="round" stroke-width="4.385365839270342"/>
  <path d="M 38.020863471330145, 37.72437276028857 Q 54.58474785065256, 37.98726738040467, 56.94469280369637, 46.81543889268498 " fill="none" id="curve_2" stroke="#000000" stroke-linecap="round" stroke-linejoin="round" stroke-width="4.798887166586152"/>
  <path d="M 56.94469280369637, 46.81543889268498 Q 61.961963194867984, 54.44779720889683, 68.6472511215323, 75.28581047918902 " fill="none" id="curve_2" stroke="#000000" stroke-linecap="round" stroke-linejoin="round" stroke-width="4.796331868697445"/>
  <path d="M 68.6472511215323, 75.28581047918902 Q 69.76498282564083, 80.36573367678052, 70.99164814748083, 84.96659765859066 " fill="none" id="curve_2" stroke="#000000" stroke-linecap="round" stroke-linejoin="round" stroke-width="4.977688114390184"/>
  <path d="M 70.99164814748083, 84.96659765859066 Q 67.93023303223893, 102.22548115472338, 52.15792605546959, 112.80961193169287 " fill="none" id="curve_2" stroke="#000000" stroke-linecap="round" stroke-linejoin="round" stroke-width="4.640784203544236"/>
  <path d="M 52.15792605546959, 112.80961193169287 Q 33.0119747978431, 112.76003463770876, 32.18958664326022, 107.8974475271042 " fill="none" id="curve_2" stroke="#000000" stroke-linecap="round" stroke-linejoin="round" stroke-width="4.492254591509943"/>
  <path d="M 32.18958664326022, 107.8974475271042 Q 24.85230448470307, 105.62587012913166, 22.09494420988063, 80.84731816740761 " fill="none" id="curve_2" stroke="#000000" stroke-linecap="round" stroke-linejoin="round" stroke-width="4.911101990905616"/>
  <path d="M 22.09494420988063, 80.84731816740761 Q 23.705643847091128, 77.85379454422493, 24.276620101705493, 62.48977032677155 " fill="none" id="curve_2" stroke="#000000" stroke-linecap="round" stroke-linejoin="round" stroke-width="4.916909659156428"/>
  <path d="M 24.276620101705493, 62.48977032677155 Q 26.99010744957471, 56.282344386221524, 30.576967906027228, 45.327259474498014 " fill="none" id="curve_2" stroke="#000000" stroke-linecap="round" stroke-linejoin="round" stroke-width="2.1118071522872794"/>
  <path d="M 40.75801047034771, 36.525523483850435 Q 48.75831768070271, 36.984778071632796, 51.26706975000978, 39.575882595496985 " fill="none" id="curve_3" stroke="#000000" stroke-linecap="round" stroke-linejoin="round" stroke-width="2.4675168895343895"/>
  <path d="M 61.42874553769001, 60.27337213029686 Q 59.607933806697254, 56.1223482128115, 57.26724336844225, 46.087995373472786 " fill="none" id="curve_4" stroke="#000000" stroke-linecap="round" stroke-linejoin="round" stroke-width="2.526195408479644"/>
  <path d="M 48.43801033440469, 26.7960146796503 Q 48.31528579553112, 27.083489042248264, 47.92798967518673, 27.454770005315723 " fill="none" id="curve_6" stroke="#000000" stroke-linecap="round" stroke-linejoin="round" stroke-width="2.547662299291095"/>
  <path d="M 57.766791712643936, 109.12968138094959 Q 58.660420748528736, 107.16032383755123, 60.81073953982508, 103.82301928526446 " fill="none" id="curve_22" stroke="#000000" stroke-linecap="round" stroke-linejoin="round" stroke-width="3.575173030756533"/>
  <path d="M 60.81073953982508, 103.82301928526446 Q 66.08757275248254, 99.7221079018201, 69.46277774035818, 86.84542888945619 " fill="none" id="curve_22" stroke="#000000" stroke-linecap="round" stroke-linejoin="round" stroke-width="2.8357187290665715"/>
  <path d="M 58.55287865049752, 110.81789537768799 Q 53.315730774027365, 111.27365114306201, 48.14213126219862, 112.10153149482333 " fill="none" id="curve_23" stroke="#000000" stroke-linecap="round" stroke-linejoin="round" stroke-width="3.1352716885189054"/>
  <path d="M 64.09072588534966, 64.78031101855876 Q 63.425069796665895, 62.826542576856966, 62.49055142546027, 59.84533374235767 " fill="none" id="curve_25" stroke="#000000" stroke-linecap="round" stroke-linejoin="round" stroke-width="3.9162882870938613"/>
  <path d="M 48.577958462927484, 26.964580104199086 Q 47.357726330921686, 26.76459383193364, 43.98612325303701, 26.59970176227157 " fill="none" id="curve_28" stroke="#000000" stroke-linecap="round" stroke-linejoin="round" stroke-width="3.1161689977600835"/>
  <path d="M 22.60715721172657, 85.86110286399419 Q 24.074273519485335, 85.4458780950659, 24.471994638381748, 81.54520996505565 " fill="none" id="curve_37" stroke="#000000" stroke-linecap="round" stroke-linejoin="round" stroke-width="3.728998563790654"/>
  <path d="M 47.28680051654328, 37.826199546773296 Q 45.97689213470318, 36.26932438972214, 37.41365011365316, 35.468047949503834 " fill="none" id="curve_52" stroke="#000000" stroke-linecap="round" stroke-linejoin="round" stroke-width="2.618275646004128"/>
  <path d="M 37.41365011365316, 35.468047949503834 Q 45.22931490689325, 36.175785451940506, 51.796737219296, 38.31089737695143 " fill="none" id="curve_52" stroke="#000000" stroke-linecap="round" stroke-linejoin="round" stroke-width="1.7439549482493646"/>
  <path d="M 34.29589639938543, 41.29327030656294 Q 30.655195175067465, 47.03589097013437, 24.580925315370223, 54.4210426519619 " fill="none" id="curve_63" stroke="#000000" stroke-linecap="round" stroke-linejoin="round" stroke-width="2.13463839195714"/>
  <path d="M 64.78074196406523, 65.89855663288613 Q 65.82986773291566, 65.5862003161706, 66.83353434694587, 64.48626777655825 " fill="none" id="curve_67" stroke="#000000" stroke-linecap="round" stroke-linejoin="round" stroke-width="3.6334240670128692"/>
  <path d="M 63.026880300528234, 100.90108622561029 Q 61.27637209479694, 102.89774007976604, 58.5951458658864, 106.12216505808384 " fill="none" id="curve_69" stroke="#000000" stroke-linecap="round" stroke-linejoin="round" stroke-width="3.2066119185258577"/>
  <path d="M 46.58561558512153, 113.13398508284406 Q 44.90133868348282, 113.42651066058504, 41.48707931094818, 113.87277411125382 " fill="none" id="curve_73" stroke="#000000" stroke-linecap="round" stroke-linejoin="round" stroke-width="3.6287022797615958"/>
  <path d="M 63.82189366015437, 66.2499175787558 Q 63.77551054707639, 58.69007603164707, 62.95013249969482, 57.599644139008845 " fill="none" id="curve_88" stroke="#000000" stroke-linecap="round" stroke-linejoin="round" stroke-width="3.3593463851348244"/>
  <path d="M 47.93540378197681, 27.04279876989479 Q 48.708495240798015, 27.26818657994275, 50.08869261938555, 27.64159026577878 " fill="none" id="curve_92" stroke="#000000" stroke-linecap="round" stroke-linejoin="round" stroke-width="2.3406471164972937"/>
  <path d="M 21.456636592608287, 77.04561339368122 Q 21.7062620886892, 76.1668858922954, 22.03709598024562, 74.99910077429277 " fill="none" id="curve_110" stroke="#000000" stroke-linecap="round" stroke-linejoin="round" stroke-width="3.6772179705132326"/>
  <path d="M 28.05264266015367, 103.63187769281029 Q 30.78964855358354, 106.05354460577328, 34.890122066804075, 109.41116128406267 " fill="none" id="curve_145" stroke="#000000" stroke-linecap="round" stroke-linejoin="round" stroke-width="2.6482657546174178"/>
</svg>
