<?xml version="1.0" ?>
<svg height="140" width="140" xmlns="http://www.w3.org/2000/svg">
  <path d="M 62.71533966064453, 40.21416473388672 Q 62.539719799671346, 38.745529031638696, 54.926989794832025, 38.63241374939025 " fill="none" id="curve_1" stroke="#000000" stroke-linecap="round" stroke-linejoin="round" stroke-width="6.601232241693257"/>
  <path d="M 54.926989794832025, 38.63241374939025 Q 48.54150340042188, 41.05345813918354, 39.26472808920754, 45.03835638429774 " fill="none" id="curve_1" stroke="#000000" stroke-linecap="round" stroke-linejoin="round" stroke-width="6.216690332746793"/>
  <path d="M 39.26472808920754, 45.03835638429774 Q 30.253019453376627, 48.42597833746887, 19.03778919250673, 63.135803490197944 " fill="none" id="curve_1" stroke="#000000" stroke-linecap="round" stroke-linejoin="round" stroke-width="4.52158503411819"/>
  <path d="M 19.03778919250673, 63.135803490197944 Q 16.403773089432164, 70.2549691083753, 13.320341089347622, 76.27954330660728 " fill="none" id="curve_1" stroke="#000000" stroke-linecap="round" stroke-linejoin="round" stroke-width="5.339343879398624"/>
  <path d="M 13.320341089347622, 76.27954330660728 Q 14.401635240955057, 102.80650910255909, 35.66731637889595, 111.89467994081454 " fill="none" id="curve_1" stroke="#000000" stroke-linecap="round" stroke-linejoin="round" stroke-width="4.682674442339402"/>
  <path d="M 35.66731637889595, 111.89467994081454 Q 61.16273000860505, 111.69122065965152, 65.26663700219439, 104.06194472181704 " fill="none" id="curve_1" stroke="#000000" stroke-linecap="round" stroke-linejoin="round" stroke-width="4.640375322109996"/>
  <path d="M 65.26663700219439, 104.06194472181704 Q 75.75522743053257, 100.94951747185566, 79.34665384608911, 76.89788231272438 " fill="none" id="curve_1" stroke="#000000" stroke-linecap="round" stroke-linejoin="round" stroke-width="4.599544512275007"/>
  <path d="M 79.34665384608911, 76.89788231272438 Q 77.03220265210028, 61.66400322851306, 66.18284931359693, 41.411477965294026 " fill="none" id="curve_1" stroke="#000000" stroke-linecap="round" stroke-linejoin="round" stroke-width="4.635140785315826"/>
  <path d="M 66.18284931359693, 41.411477965294026 Q 66.19823220201633, 49.79683079594128, 66.2265642624254, 56.70082641261466 " fill="none" id="curve_1" stroke="#000000" stroke-linecap="round" stroke-linejoin="round" stroke-width="3.608602289070671"/>
  <path d="M 89.83005092523754, 53.09164233265742 Q 89.76222649546206, 69.3809501030937, 89.5195489340129, 82.83161192934206 " fill="none" id="curve_3" stroke="#000000" stroke-linecap="round" stroke-linejoin="round" stroke-width="1.8350721616135712"/>
  <path d="M 89.5195489340129, 82.83161192934206 Q 89.73708651280091, 91.39972781350625, 90.13526262955592, 124.00427987253246 " fill="none" id="curve_3" stroke="#000000" stroke-linecap="round" stroke-linejoin="round" stroke-width="1.7213542418897896"/>
  <path d="M 90.13526262955592, 124.00427987253246 Q 89.69995481654644, 129.89166634412416, 89.29111126350124, 139.26250530697308 " fill="none" id="curve_3" stroke="#000000" stroke-linecap="round" stroke-linejoin="round" stroke-width="2.520038356683948"/>
  <path d="M 70.15704491822902, 98.37975231011238 Q 70.58075761822681, 94.23786667290805, 74.84079960064064, 93.05247450766547 " fill="none" id="curve_5" stroke="#000000" stroke-linecap="round" stroke-linejoin="round" stroke-width="2.4286133507120256"/>
  <path d="M 64.32344532846201, 105.2954683380695 Q 56.54010975453811, 106.21710419448328, 53.22476763789747, 109.95804309260909 " fill="none" id="curve_6" stroke="#000000" stroke-linecap="round" stroke-linejoin="round" stroke-width="2.8854681137734977"/>
  <path d="M 27.754216378782633, 105.34630175539971 Q 22.096931960562674, 100.00069108181356, 12.968503570642364, 90.75641252312099 " fill="none" id="curve_8" stroke="#000000" stroke-linecap="round" stroke-linejoin="round" stroke-width="3.3977845721998534"/>
  <path d="M 12.968503570642364, 90.75641252312099 Q 12.787486240949907, 86.66988976987999, 12.425493689615294, 83.5641180732932 " fill="none" id="curve_8" stroke="#000000" stroke-linecap="round" stroke-linejoin="round" stroke-width="2.304502239582052"/>
  <path d="M 12.425493689615294, 83.5641180732932 Q 13.2769614998817, 67.25906990567424, 19.69729325928963, 60.3632657545721 " fill="none" id="curve_8" stroke="#000000" stroke-linecap="round" stroke-linejoin="round" stroke-width="2.8240154523689216"/>
  <path d="M 44.86438913791348, 47.34780317407984 Q 46.78655196975391, 44.72752750194951, 49.39826246714368, 40.238574693251344 " fill="none" id="curve_13" stroke="#000000" stroke-linecap="round" stroke-linejoin="round" stroke-width="2.2420716573755213"/>
  <path d="M 89.02352987358108, 51.47117743218521 Q 89.68863016930462, 50.701346086391766, 89.79959024810715, 37.37420017765963 " fill="none" id="curve_15" stroke="#000000" stroke-linecap="round" stroke-linejoin="round" stroke-width="1.8607270841056973"/>
  <path d="M 89.79959024810715, 37.37420017765963 Q 89.75877484862534, 34.29260946783759, 89.72891794997693, 20.422748240441813 " fill="none" id="curve_15" stroke="#000000" stroke-linecap="round" stroke-linejoin="round" stroke-width="1.6784128884457745"/>
  <path d="M 89.72891794997693, 20.422748240441813 Q 89.68929676213703, 7.599495556565124, 89.35975130586951, 0.8564725291717501 " fill="none" id="curve_15" stroke="#000000" stroke-linecap="round" stroke-linejoin="round" stroke-width="1.5969693961066564"/>
  <path d="M 89.35975130586951, 0.8564725291717501 Q 89.12200876715544, 1.4960102382932614, 88.77014279804632, 2.3962484733943397 " fill="none" id="curve_15" stroke="#000000" stroke-linecap="round" stroke-linejoin="round" stroke-width="1.7975652766580534"/>
  <path d="M 64.22787234957728, 44.28598063976885 Q 63.95234167183491, 39.52369470566986, 61.90728711510776, 38.403968095650534 " fill="none" id="curve_19" stroke="#000000" stroke-linecap="round" stroke-linejoin="round" stroke-width="4.916033831477935"/>
  <path d="M 26.308860461935367, 52.09406088879507 Q 22.207807700751914, 57.32445383111635, 17.408793249650927, 64.93526095555355 " fill="none" id="curve_21" stroke="#000000" stroke-linecap="round" stroke-linejoin="round" stroke-width="3.031623285235791"/>
  <path d="M 14.124250239542775, 93.79523665919548 Q 23.323796816004858, 101.83648631946222, 43.739432499029746, 114.28762164114698 " fill="none" id="curve_22" stroke="#000000" stroke-linecap="round" stroke-linejoin="round" stroke-width="2.1690002134632196"/>
  <path d="M 78.59464927477626, 84.68248345713386 Q 78.29133173765922, 82.2224813368067, 77.63221340563564, 79.47718231012627 " fill="none" id="curve_24" stroke="#000000" stroke-linecap="round" stroke-linejoin="round" stroke-width="5.064717885440594"/>
  <path d="M 76.58799813863943, 71.17213812640409 Q 76.39890216768435, 52.50344518137828, 67.63171550809089, 49.490105312515425 " fill="none" id="curve_25" stroke="#000000" stroke-linecap="round" stroke-linejoin="round" stroke-width="1.9528504651923828"/>
  <path d="M 76.6053248190591, 89.71967578280221 Q 78.3018778792609, 85.63491086309634, 79.85982630489997, 74.10179061713531 " fill="none" id="curve_47" stroke="#000000" stroke-linecap="round" stroke-linejoin="round" stroke-width="2.5561346838520427"/>
  <path d="M 66.34758884250948, 106.26225971400845 Q 68.00654289829482, 101.02873863183585, 72.22354081625889, 95.91605878204777 " fill="none" id="curve_75" stroke="#000000" stroke-linecap="round" stroke-linejoin="round" stroke-width="3.0069358993834783"/>
  <path d="M 50.16714873740118, 112.66391698969421 Q 48.56588000147967, 112.4780211591517, 46.629525225916524, 112.11105940170923 " fill="none" id="curve_76" stroke="#000000" stroke-linecap="round" stroke-linejoin="round" stroke-width="3.5613839833853635"/>
  <path d="M 17.467828112916344, 95.7086419002932 Q 20.36470873556786, 97.23319647046648, 22.970202426550347, 99.97029144628057 " fill="none" id="curve_86" stroke="#000000" stroke-linecap="round" stroke-linejoin="round" stroke-width="3.1556562169953613"/>
  <path d="M 14.692712689546003, 77.65265685561306 Q 14.576221110878716, 73.47919124385754, 13.894024581076827, 72.14910130906209 " fill="none" id="curve_87" stroke="#000000" stroke-linecap="round" stroke-linejoin="round" stroke-width="3.8371805069758875"/>
  <path d="M 76.02291799171655, 86.68953948456944 Q 77.59800412546319, 83.47212775842247, 79.43067889260914, 77.22047835876434 " fill="none" id="curve_102" stroke="#000000" stroke-linecap="round" stroke-linejoin="round" stroke-width="2.721080684746237"/>
  <path d="M 42.51660933760968, 111.64151022246097 Q 44.277020527836605, 111.975550837409, 47.106886616064806, 112.5272909847623 " fill="none" id="curve_156" stroke="#000000" stroke-linecap="round" stroke-linejoin="round" stroke-width="2.6685150598594385"/>
</svg>
