<?xml version="1.0" ?>
<svg height="140" width="140" xmlns="http://www.w3.org/2000/svg">
  <path d="M 89.39872102835199, 88.42063277507481 Q 89.50266509795412, 93.81664669931804, 89.68504335868613, 112.29238601581736 " fill="none" id="curve_2" stroke="#000000" stroke-linecap="round" stroke-linejoin="round" stroke-width="1.69873209135888"/>
  <path d="M 89.68504335868613, 112.29238601581736 Q 89.69144103003924, 123.89214377690163, 89.75493416101693, 138.5046162132327 " fill="none" id="curve_2" stroke="#000000" stroke-linecap="round" stroke-linejoin="round" stroke-width="1.6241141257289502"/>
  <path d="M 89.75493416101693, 138.5046162132327 Q 89.67705693035387, 138.3600631680082, 89.49082493720462, 138.21073870797187 " fill="none" id="curve_2" stroke="#000000" stroke-linecap="round" stroke-linejoin="round" stroke-width="1.5404603998190427"/>
  <path d="M 89.75754671683754, 86.98877228499904 Q 89.68627250236268, 84.38212696461267, 89.63355486326708, 72.56832288656796 " fill="none" id="curve_4" stroke="#000000" stroke-linecap="round" stroke-linejoin="round" stroke-width="1.4301075406212305"/>
  <path d="M 89.63355486326708, 72.56832288656796 Q 89.62332882104015, 68.84710402106462, 89.61079456238075, 59.22305059528247 " fill="none" id="curve_4" stroke="#000000" stroke-linecap="round" stroke-linejoin="round" stroke-width="1.43934807482791"/>
  <path d="M 89.61079456238075, 59.22305059528247 Q 89.57575480340779, 57.010965491883454, 89.54928963133467, 46.007464647854185 " fill="none" id="curve_4" stroke="#000000" stroke-linecap="round" stroke-linejoin="round" stroke-width="1.4010031270380803"/>
  <path d="M 89.54928963133467, 46.007464647854185 Q 89.53490000201312, 43.37820248014432, 89.51898770467712, 32.934994936550474 " fill="none" id="curve_4" stroke="#000000" stroke-linecap="round" stroke-linejoin="round" stroke-width="1.457920850041401"/>
  <path d="M 89.51898770467712, 32.934994936550474 Q 89.52847938964983, 29.366162120559572, 89.54475193159055, 19.563678026760435 " fill="none" id="curve_4" stroke="#000000" stroke-linecap="round" stroke-linejoin="round" stroke-width="1.448556170406112"/>
  <path d="M 89.54475193159055, 19.563678026760435 Q 89.53624996824928, 16.245106219158963, 89.52439471581351, 6.959969759548521 " fill="none" id="curve_4" stroke="#000000" stroke-linecap="round" stroke-linejoin="round" stroke-width="1.4389470399144184"/>
  <path d="M 89.52439471581351, 6.959969759548521 Q 89.42176884790773, 2.334276423134831, 88.90622999766242, 0.7929251199611187 " fill="none" id="curve_4" stroke="#000000" stroke-linecap="round" stroke-linejoin="round" stroke-width="2.016791234533471"/>
  <path d="M 41.107356548309326, 93.39620399475098 Q 38.013870623296576, 98.85227333557279, 30.49297468539646, 103.1773162237568 " fill="none" id="curve_18" stroke="#000000" stroke-linecap="round" stroke-linejoin="round" stroke-width="5.504781069845627"/>
  <path d="M 30.49297468539646, 103.1773162237568 Q 22.590129678744063, 103.12421681562827, 22.222934156508476, 100.21548593559709 " fill="none" id="curve_18" stroke="#000000" stroke-linecap="round" stroke-linejoin="round" stroke-width="4.586427422730539"/>
  <path d="M 22.222934156508476, 100.21548593559709 Q 21.322024621270668, 95.83680970804095, 20.714499020610447, 82.82937873709604 " fill="none" id="curve_18" stroke="#000000" stroke-linecap="round" stroke-linejoin="round" stroke-width="5.522763920386849"/>
  <path d="M 20.714499020610447, 82.82937873709604 Q 23.252490595456806, 68.05484766724982, 33.96561986790102, 54.695459501624185 " fill="none" id="curve_18" stroke="#000000" stroke-linecap="round" stroke-linejoin="round" stroke-width="9.569175413100849"/>
  <path d="M 33.96561986790102, 54.695459501624185 Q 35.257978973557215, 48.80252925226482, 48.34574894947261, 47.895293762427464 " fill="none" id="curve_18" stroke="#000000" stroke-linecap="round" stroke-linejoin="round" stroke-width="8.55539071435926"/>
  <path d="M 48.34574894947261, 47.895293762427464 Q 54.810100485110524, 50.77009371341432, 56.5281486969799, 60.90612009884039 " fill="none" id="curve_18" stroke="#000000" stroke-linecap="round" stroke-linejoin="round" stroke-width="4.4998797444866385"/>
  <path d="M 56.5281486969799, 60.90612009884039 Q 53.364387740864665, 81.38158420424179, 40.00360158227548, 94.41946314343954 " fill="none" id="curve_18" stroke="#000000" stroke-linecap="round" stroke-linejoin="round" stroke-width="4.63527741336312"/>
  <path d="M 32.01612580352968, 57.772365659003434 Q 37.45370990435648, 54.00351498670222, 48.9964944488617, 51.154034428030485 " fill="none" id="curve_19" stroke="#000000" stroke-linecap="round" stroke-linejoin="round" stroke-width="3.6952236359896142"/>
  <path d="M 29.02423639224552, 56.075973764325205 Q 25.883991364877616, 61.01737822250297, 23.697882008385236, 69.71693048197461 " fill="none" id="curve_20" stroke="#000000" stroke-linecap="round" stroke-linejoin="round" stroke-width="4.237256753157196"/>
  <path d="M 23.697882008385236, 69.71693048197461 Q 29.3959271937006, 69.25059371598766, 30.62386450934435, 65.03502366420315 " fill="none" id="curve_20" stroke="#000000" stroke-linecap="round" stroke-linejoin="round" stroke-width="4.226624548796044"/>
  <path d="M 37.31011563887541, 98.39843119874773 Q 35.88050027767087, 98.39452879138824, 34.146485877096794, 98.38592893233478 " fill="none" id="curve_22" stroke="#000000" stroke-linecap="round" stroke-linejoin="round" stroke-width="3.305014100198966"/>
  <path d="M 54.60460792652931, 72.23899262357577 Q 49.90847587336369, 76.34903404238665, 45.40128999741275, 86.55560463586674 " fill="none" id="curve_27" stroke="#000000" stroke-linecap="round" stroke-linejoin="round" stroke-width="2.6437598287694426"/>
  <path d="M 33.12978494691265, 56.82491452933796 Q 35.4729731057536, 56.45691959035664, 37.35097849071383, 55.6472789505726 " fill="none" id="curve_28" stroke="#000000" stroke-linecap="round" stroke-linejoin="round" stroke-width="4.782336264034461"/>
  <path d="M 37.35097849071383, 55.6472789505726 Q 34.283430946264374, 55.08596335664763, 29.859846034620425, 54.322470472945646 " fill="none" id="curve_28" stroke="#000000" stroke-linecap="round" stroke-linejoin="round" stroke-width="4.249726726881186"/>
  <path d="M 43.134592890879546, 93.64515809519617 Q 40.34001674105126, 96.02693478665866, 34.53743165707135, 98.4072048548411 " fill="none" id="curve_30" stroke="#000000" stroke-linecap="round" stroke-linejoin="round" stroke-width="3.2576922811976003"/>
  <path d="M 52.42333371461122, 48.002674088249755 Q 52.45367706468934, 47.49012988991212, 52.515586618335256, 46.95124766400105 " fill="none" id="curve_32" stroke="#000000" stroke-linecap="round" stroke-linejoin="round" stroke-width="3.239583092223067"/>
  <path d="M 53.09860042958522, 55.628309642544764 Q 51.23113125214978, 52.42802652808321, 44.37338182852589, 49.70824649084889 " fill="none" id="curve_34" stroke="#000000" stroke-linecap="round" stroke-linejoin="round" stroke-width="2.4786634777595586"/>
  <path d="M 20.673707899491703, 91.78794450998545 Q 20.254717013175412, 91.55250111102605, 19.76345514827293, 90.92304801997405 " fill="none" id="curve_44" stroke="#000000" stroke-linecap="round" stroke-linejoin="round" stroke-width="2.7780649939456263"/>
  <path d="M 28.00689276423947, 68.84255772361536 Q 27.958202393680843, 71.63422529879573, 26.862519846865286, 72.02483931237214 " fill="none" id="curve_48" stroke="#000000" stroke-linecap="round" stroke-linejoin="round" stroke-width="2.1850243094725244"/>
  <path d="M 26.862519846865286, 72.02483931237214 Q 25.393969029144827, 70.769276180543, 20.334228060682836, 70.06413247899998 " fill="none" id="curve_48" stroke="#000000" stroke-linecap="round" stroke-linejoin="round" stroke-width="2.6255222710456523"/>
  <path d="M 54.32172136027023, 61.88415632446254 Q 54.629726866410294, 60.71431339283693, 55.08178374609686, 58.846692048325416 " fill="none" id="curve_51" stroke="#000000" stroke-linecap="round" stroke-linejoin="round" stroke-width="2.6791367096487195"/>
  <path d="M 20.617788984063935, 92.6253885176225 Q 20.124379911171477, 92.73192183818841, 19.43339361548247, 92.92490328844946 " fill="none" id="curve_52" stroke="#000000" stroke-linecap="round" stroke-linejoin="round" stroke-width="2.8568890672530274"/>
  <path d="M 54.11666778158519, 71.81745933115735 Q 55.078828211455026, 70.9735142434641, 56.837366712768805, 70.15237448040546 " fill="none" id="curve_106" stroke="#000000" stroke-linecap="round" stroke-linejoin="round" stroke-width="2.6472948650785684"/>
</svg>
