<?xml version="1.0" ?>
<svg height="140" width="140" xmlns="http://www.w3.org/2000/svg">
  <path d="M 42.358881124071104, 80.23190278101056 Q 37.254228543410605, 89.79990162057658, 20.085373655768407, 102.15635960405999 " fill="none" id="curve_3" stroke="#000000" stroke-linecap="round" stroke-linejoin="round" stroke-width="5.116229154322242"/>
  <path d="M 20.085373655768407, 102.15635960405999 Q 10.193123083346894, 101.97863991032642, 9.29803567571578, 97.45511064260398 " fill="none" id="curve_3" stroke="#000000" stroke-linecap="round" stroke-linejoin="round" stroke-width="5.589248628080846"/>
  <path d="M 9.29803567571578, 97.45511064260398 Q 9.969888125780496, 77.56807433739718, 18.195718466632332, 67.60317327732645 " fill="none" id="curve_3" stroke="#000000" stroke-linecap="round" stroke-linejoin="round" stroke-width="6.449892872273458"/>
  <path d="M 18.195718466632332, 67.60317327732645 Q 23.059589872933152, 56.23492579100126, 36.92809692147874, 45.586496394311304 " fill="none" id="curve_3" stroke="#000000" stroke-linecap="round" stroke-linejoin="round" stroke-width="5.468091525327511"/>
  <path d="M 57.99453787564897, 44.373253896626835 Q 54.62111869028295, 59.4144531871757, 41.73690772303925, 80.92084906346804 " fill="none" id="curve_4" stroke="#000000" stroke-linecap="round" stroke-linejoin="round" stroke-width="4.451855993029226"/>
  <path d="M 56.64257683385694, 43.56920839384209 Q 54.0834695630348, 46.25874781627634, 49.73590746309724, 48.52729367877355 " fill="none" id="curve_6" stroke="#000000" stroke-linecap="round" stroke-linejoin="round" stroke-width="3.8490473775820737"/>
  <path d="M 40.06349486179875, 44.897903216232216 Q 41.224594949968946, 45.68955709651093, 42.12257657571452, 47.26264432303361 " fill="none" id="curve_7" stroke="#000000" stroke-linecap="round" stroke-linejoin="round" stroke-width="5.657174932771507"/>
  <path d="M 44.12944230326292, 78.9907684041171 Q 35.615605546930794, 85.48017646658572, 26.754494905220838, 98.06469146213703 " fill="none" id="curve_8" stroke="#000000" stroke-linecap="round" stroke-linejoin="round" stroke-width="3.4681007141458613"/>
  <path d="M 26.754494905220838, 98.06469146213703 Q 19.190863527956193, 99.31895119636324, 13.091348481150844, 101.51519515454002 " fill="none" id="curve_8" stroke="#000000" stroke-linecap="round" stroke-linejoin="round" stroke-width="3.6281841152397054"/>
  <path d="M 7.791877332428616, 87.59640810294604 Q 8.9574946073602, 81.17865437025769, 12.370354280060809, 75.76706117685694 " fill="none" id="curve_9" stroke="#000000" stroke-linecap="round" stroke-linejoin="round" stroke-width="2.704761030204298"/>
  <path d="M 57.65910925424039, 47.50665675122707 Q 52.02566089967628, 55.428842342649425, 44.15428888764411, 79.04665526321244 " fill="none" id="curve_11" stroke="#000000" stroke-linecap="round" stroke-linejoin="round" stroke-width="2.31839396057454"/>
  <path d="M 46.926555462583075, 50.608896316350766 Q 47.0840581034907, 50.54144196959699, 47.45580498964593, 50.44545171423263 " fill="none" id="curve_12" stroke="#000000" stroke-linecap="round" stroke-linejoin="round" stroke-width="2.3247042629705716"/>
  <path d="M 25.561992932649762, 94.58925411479133 Q 25.466936993918818, 97.29555433674248, 23.42462386746415, 97.6680985224008 " fill="none" id="curve_13" stroke="#000000" stroke-linecap="round" stroke-linejoin="round" stroke-width="4.642206337243719"/>
  <path d="M 56.88224165172731, 43.52731196976978 Q 54.539403323348616, 51.26622606241589, 50.47545306289961, 61.311021725474916 " fill="none" id="curve_16" stroke="#000000" stroke-linecap="round" stroke-linejoin="round" stroke-width="2.7556075851133044"/>
  <path d="M 37.91117796353874, 85.77015270975636 Q 43.834374211471044, 78.76035664621301, 51.50034560992023, 67.34561250733819 " fill="none" id="curve_17" stroke="#000000" stroke-linecap="round" stroke-linejoin="round" stroke-width="2.9570135851967208"/>
  <path d="M 57.68310168878786, 42.7726982251486 Q 56.231164876863645, 43.02581046775901, 54.75745681809993, 43.50026424897103 " fill="none" id="curve_18" stroke="#000000" stroke-linecap="round" stroke-linejoin="round" stroke-width="4.44634407164621"/>
  <path d="M 21.158352057229457, 62.78255144867319 Q 15.89086270869021, 66.5714167372411, 11.24773146534045, 77.52551887690088 " fill="none" id="curve_19" stroke="#000000" stroke-linecap="round" stroke-linejoin="round" stroke-width="3.091493485699104"/>
  <path d="M 7.808325015060774, 93.1341317860894 Q 8.275725092027315, 91.21092421354808, 8.754949271744568, 84.92322840164083 " fill="none" id="curve_21" stroke="#000000" stroke-linecap="round" stroke-linejoin="round" stroke-width="2.276935951936097"/>
  <path d="M 30.35265346021898, 96.94605436340849 Q 31.23279074460339, 93.17053224556767, 33.89474580869449, 89.96335853989206 " fill="none" id="curve_29" stroke="#000000" stroke-linecap="round" stroke-linejoin="round" stroke-width="3.4808613328095808"/>
  <path d="M 46.11778382170105, 74.27937241603641 Q 41.918051028170524, 78.42729566181492, 35.480439188033614, 84.60534234557845 " fill="none" id="curve_30" stroke="#000000" stroke-linecap="round" stroke-linejoin="round" stroke-width="3.1500114782684805"/>
  <path d="M 15.64432496840891, 99.80896905713956 Q 12.158204758390783, 98.43401888287214, 8.926284062980208, 95.29293198752532 " fill="none" id="curve_31" stroke="#000000" stroke-linecap="round" stroke-linejoin="round" stroke-width="2.20823398350765"/>
  <path d="M 8.926284062980208, 95.29293198752532 Q 7.447680914666186, 94.93723366923297, 6.822579664725158, 93.34756807555213 " fill="none" id="curve_31" stroke="#000000" stroke-linecap="round" stroke-linejoin="round" stroke-width="3.446765394395591"/>
  <path d="M 15.401580432885602, 67.3617768452587 Q 20.27266907835424, 58.989264992713274, 31.053187000927032, 49.41240047667337 " fill="none" id="curve_32" stroke="#000000" stroke-linecap="round" stroke-linejoin="round" stroke-width="2.5446253980134204"/>
  <path d="M 31.053187000927032, 49.41240047667337 Q 25.600223171334733, 53.01031569298717, 20.808826347269754, 60.11031345655834 " fill="none" id="curve_32" stroke="#000000" stroke-linecap="round" stroke-linejoin="round" stroke-width="3.136009525767455"/>
  <path d="M 42.22697996385145, 45.264645756754845 Q 40.44444300241732, 45.723820740889906, 37.60746001320025, 46.75694199587751 " fill="none" id="curve_102" stroke="#000000" stroke-linecap="round" stroke-linejoin="round" stroke-width="2.887348475167858"/>
</svg>
