<?xml version="1.0" ?>
<svg height="140" width="140" xmlns="http://www.w3.org/2000/svg">
  <path d="M 66.23959541320801, 16.35215950012207 Q 58.45422035777761, 18.665210957624723, 43.30139418923454, 29.77819195228585 " fill="none" id="curve_1" stroke="#000000" stroke-linecap="round" stroke-linejoin="round" stroke-width="5.209999681152518"/>
  <path d="M 43.30139418923454, 29.77819195228585 Q 38.111425890207805, 35.341920183395914, 24.44554500231578, 53.994611009882675 " fill="none" id="curve_1" stroke="#000000" stroke-linecap="round" stroke-linejoin="round" stroke-width="5.164084330284702"/>
  <path d="M 24.44554500231578, 53.994611009882675 Q 19.654942531588656, 61.34730008214664, 9.783539449945993, 83.48091608545822 " fill="none" id="curve_1" stroke="#000000" stroke-linecap="round" stroke-linejoin="round" stroke-width="4.768985766764644"/>
  <path d="M 9.783539449945993, 83.48091608545822 Q 8.61479340843145, 91.28601868495147, 7.241358936849879, 98.37282345890308 " fill="none" id="curve_1" stroke="#000000" stroke-linecap="round" stroke-linejoin="round" stroke-width="4.906779289099172"/>
  <path d="M 7.241358936849879, 98.37282345890308 Q 10.738500565260683, 114.288973089193, 23.123143885947275, 120.12915285115389 " fill="none" id="curve_1" stroke="#000000" stroke-linecap="round" stroke-linejoin="round" stroke-width="4.041555241249896"/>
  <path d="M 23.123143885947275, 120.12915285115389 Q 45.673041024897394, 118.7591710513421, 62.13212373033886, 101.99421527676242 " fill="none" id="curve_1" stroke="#000000" stroke-linecap="round" stroke-linejoin="round" stroke-width="4.541828706479289"/>
  <path d="M 62.13212373033886, 101.99421527676242 Q 71.72227641689827, 96.09103915298047, 78.94180114853776, 79.32060017639779 " fill="none" id="curve_1" stroke="#000000" stroke-linecap="round" stroke-linejoin="round" stroke-width="4.023698481035625"/>
  <path d="M 78.94180114853776, 79.32060017639779 Q 80.2371399695847, 66.88170958246442, 87.08674074790721, 61.86659588329321 " fill="none" id="curve_1" stroke="#000000" stroke-linecap="round" stroke-linejoin="round" stroke-width="4.722609733561449"/>
  <path d="M 87.08674074790721, 61.86659588329321 Q 86.89849918957891, 34.67917772099921, 76.58873798975162, 31.092695164087562 " fill="none" id="curve_1" stroke="#000000" stroke-linecap="round" stroke-linejoin="round" stroke-width="4.311996128169074"/>
  <path d="M 76.58873798975162, 31.092695164087562 Q 74.29971867267273, 26.241320999972118, 64.30896815421087, 23.58363828846172 " fill="none" id="curve_1" stroke="#000000" stroke-linecap="round" stroke-linejoin="round" stroke-width="3.734419578585817"/>
  <path d="M 72.082796312368, 16.74852686166795 Q 70.15337376258553, 16.346762258986544, 65.278514710343, 16.06488990642778 " fill="none" id="curve_2" stroke="#000000" stroke-linecap="round" stroke-linejoin="round" stroke-width="3.9122758620164877"/>
  <path d="M 65.278514710343, 16.06488990642778 Q 57.15515709721549, 18.77074888485907, 46.40928601289572, 25.973104856754112 " fill="none" id="curve_2" stroke="#000000" stroke-linecap="round" stroke-linejoin="round" stroke-width="2.7155844779832"/>
  <path d="M 46.40928601289572, 25.973104856754112 Q 56.18690477260198, 22.210711740856226, 70.6385581346249, 15.91771685624852 " fill="none" id="curve_2" stroke="#000000" stroke-linecap="round" stroke-linejoin="round" stroke-width="2.3123463345281223"/>
  <path d="M 84.96986070551573, 48.41355182266835 Q 85.20971315242593, 57.73350788669597, 85.98342494975186, 61.76060036663299 " fill="none" id="curve_4" stroke="#000000" stroke-linecap="round" stroke-linejoin="round" stroke-width="2.990205789090339"/>
  <path d="M 83.76183661500514, 39.611292434542904 Q 84.8229083706598, 42.78937478287563, 85.44414684687148, 51.651481219279205 " fill="none" id="curve_5" stroke="#000000" stroke-linecap="round" stroke-linejoin="round" stroke-width="2.895882431258516"/>
  <path d="M 14.690848221614388, 70.13355373839411 Q 18.50335149214667, 63.53199973916347, 25.969189723448576, 56.275698815132166 " fill="none" id="curve_10" stroke="#000000" stroke-linecap="round" stroke-linejoin="round" stroke-width="2.660590500566845"/>
  <path d="M 6.602992972667046, 90.71084880586184 Q 7.0216438997861035, 90.63056252901542, 7.789348381993733, 90.49115580182685 " fill="none" id="curve_11" stroke="#000000" stroke-linecap="round" stroke-linejoin="round" stroke-width="2.8989148290963724"/>
  <path d="M 8.712701607727682, 84.95104455435086 Q 13.004261569071552, 73.15072217815687, 22.88173429823047, 57.619810079254876 " fill="none" id="curve_60" stroke="#000000" stroke-linecap="round" stroke-linejoin="round" stroke-width="2.7076198990172737"/>
  <path d="M 74.64732862822584, 17.306552329040073 Q 74.36633606077503, 17.092971716232373, 73.69272457086367, 16.938227820583514 " fill="none" id="curve_75" stroke="#000000" stroke-linecap="round" stroke-linejoin="round" stroke-width="2.9852664053205875"/>
  <path d="M 77.58681475593323, 31.969227308673617 Q 77.25358572826181, 27.482138321911563, 69.79822255696803, 26.898017222380627 " fill="none" id="curve_76" stroke="#000000" stroke-linecap="round" stroke-linejoin="round" stroke-width="2.669448026716007"/>
  <path d="M 83.59386802647697, 40.10487549378341 Q 84.6303235404907, 40.83482965533505, 85.07819305588373, 44.542399413589656 " fill="none" id="curve_77" stroke="#000000" stroke-linecap="round" stroke-linejoin="round" stroke-width="3.9928372584100464"/>
  <path d="M 85.07819305588373, 44.542399413589656 Q 85.04418639337914, 42.745521722359854, 84.98336895606135, 40.197621696501606 " fill="none" id="curve_77" stroke="#000000" stroke-linecap="round" stroke-linejoin="round" stroke-width="3.5885024719196865"/>
  <path d="M 76.28221564429487, 87.07608493436567 Q 77.37870292034759, 84.36555074308558, 79.23857882202273, 80.46132020976745 " fill="none" id="curve_92" stroke="#000000" stroke-linecap="round" stroke-linejoin="round" stroke-width="2.8269571665451894"/>
  <path d="M 87.33011595840142, 60.56134113381709 Q 81.3326392398589, 63.87704768532195, 77.98461237673948, 74.49149158540236 " fill="none" id="curve_93" stroke="#000000" stroke-linecap="round" stroke-linejoin="round" stroke-width="2.3107311534616377"/>
  <path d="M 61.594592676551, 104.54834590108307 Q 52.66886609514856, 108.15793070126173, 40.20934902096556, 117.03528010395165 " fill="none" id="curve_94" stroke="#000000" stroke-linecap="round" stroke-linejoin="round" stroke-width="2.9441481114827615"/>
  <path d="M 40.20934902096556, 117.03528010395165 Q 37.351061327449415, 118.8981915779978, 32.23176850537818, 120.18313302515456 " fill="none" id="curve_94" stroke="#000000" stroke-linecap="round" stroke-linejoin="round" stroke-width="3.1337377250185536"/>
  <path d="M 11.79205665970075, 85.08434312533052 Q 11.772241454402279, 81.94197821793598, 11.603232272896669, 81.00062409360802 " fill="none" id="curve_96" stroke="#000000" stroke-linecap="round" stroke-linejoin="round" stroke-width="3.187276576380937"/>
  <path d="M 11.603232272896669, 81.00062409360802 Q 13.070273327800894, 69.05124080432078, 21.09141102888372, 61.995347850744345 " fill="none" id="curve_96" stroke="#000000" stroke-linecap="round" stroke-linejoin="round" stroke-width="2.791500437211687"/>
  <path d="M 8.17143582087428, 102.76627997678004 Q 7.35809452550468, 100.08198810398933, 6.634101645193126, 92.73951491399232 " fill="none" id="curve_99" stroke="#000000" stroke-linecap="round" stroke-linejoin="round" stroke-width="3.1017287990652416"/>
  <path d="M 73.88163837543765, 27.4609568309681 Q 76.66188008483924, 29.269450045526927, 80.03506303085989, 31.858632741582497 " fill="none" id="curve_106" stroke="#000000" stroke-linecap="round" stroke-linejoin="round" stroke-width="2.705891854852245"/>
  <path d="M 63.88809771804404, 101.47146951153564 Q 66.43650831918134, 95.19238834329053, 74.25050868480294, 89.19550940350483 " fill="none" id="curve_113" stroke="#000000" stroke-linecap="round" stroke-linejoin="round" stroke-width="2.6035513538921364"/>
  <path d="M 27.118575648687486, 47.401523057599036 Q 28.71090568658884, 44.71858649227946, 32.460487742777445, 41.34776503013377 " fill="none" id="curve_128" stroke="#000000" stroke-linecap="round" stroke-linejoin="round" stroke-width="2.2645836317757855"/>
  <path d="M 21.674926353763716, 61.246025265842476 Q 18.222890124250583, 63.78135252454048, 14.821595747335003, 67.54624423298345 " fill="none" id="curve_145" stroke="#000000" stroke-linecap="round" stroke-linejoin="round" stroke-width="3.5867954717436583"/>
  <path d="M 80.6155014777803, 35.44858937237119 Q 81.32033338953619, 36.43235310249, 82.15277165195636, 39.38606913144126 " fill="none" id="curve_173" stroke="#000000" stroke-linecap="round" stroke-linejoin="round" stroke-width="2.467634903733809"/>
</svg>
