<?xml version="1.0" ?>
<svg height="140" width="140" xmlns="http://www.w3.org/2000/svg">
  <path d="M 87.07627263872666, 55.330117750612544 Q 87.3148408320474, 50.4741935826505, 87.67410348686565, 37.20760848502361 " fill="none" id="curve_2" stroke="#000000" stroke-linecap="round" stroke-linejoin="round" stroke-width="4.701677529264552"/>
  <path d="M 87.67410348686565, 37.20760848502361 Q 87.94646146067815, 35.823784346048285, 88.02222327903749, 12.179973685112063 " fill="none" id="curve_2" stroke="#000000" stroke-linecap="round" stroke-linejoin="round" stroke-width="4.910518878408803"/>
  <path d="M 88.02222327903749, 12.179973685112063 Q 87.96756502570199, 4.004191695422154, 87.4029912743292, 2.7006484160859188 " fill="none" id="curve_2" stroke="#000000" stroke-linecap="round" stroke-linejoin="round" stroke-width="5.423896156973212"/>
  <path d="M 87.4029912743292, 2.7006484160859188 Q 86.15844337273087, 2.346246672261372, 84.36609621772072, 1.9981630698870716 " fill="none" id="curve_2" stroke="#000000" stroke-linecap="round" stroke-linejoin="round" stroke-width="3.396590084875941"/>
  <path d="M 89.53389651707639, 42.833591843323404 Q 88.42790813915073, 50.57198056046341, 87.4642836572766, 64.05984901736467 " fill="none" id="curve_3" stroke="#000000" stroke-linecap="round" stroke-linejoin="round" stroke-width="3.8309265696812784"/>
  <path d="M 87.4642836572766, 64.05984901736467 Q 87.60903543826949, 67.23287171075302, 87.70377217687954, 101.54251675136868 " fill="none" id="curve_3" stroke="#000000" stroke-linecap="round" stroke-linejoin="round" stroke-width="4.861814288538905"/>
  <path d="M 87.70377217687954, 101.54251675136868 Q 87.59462469931842, 109.80863992326421, 87.23976225228328, 133.3227463030727 " fill="none" id="curve_3" stroke="#000000" stroke-linecap="round" stroke-linejoin="round" stroke-width="4.686954824756995"/>
  <path d="M 87.23976225228328, 133.3227463030727 Q 87.25943153322977, 137.00341539730616, 87.38441246550984, 137.87943271777849 " fill="none" id="curve_3" stroke="#000000" stroke-linecap="round" stroke-linejoin="round" stroke-width="5.338816565124722"/>
  <path d="M 87.38441246550984, 137.87943271777849 Q 86.85135879703877, 137.86436528364834, 85.62036509890923, 137.85557047832776 " fill="none" id="curve_3" stroke="#000000" stroke-linecap="round" stroke-linejoin="round" stroke-width="3.359077092433079"/>
  <path d="M 44.52268795912718, 115.68826189063873 Q 41.513503683445364, 121.43631605348918, 29.489807394148784, 124.03953094971548 " fill="none" id="curve_4" stroke="#000000" stroke-linecap="round" stroke-linejoin="round" stroke-width="4.398306953234438"/>
  <path d="M 29.489807394148784, 124.03953094971548 Q 16.893349343232575, 123.62637585006152, 15.556202231214064, 111.79323402112772 " fill="none" id="curve_4" stroke="#000000" stroke-linecap="round" stroke-linejoin="round" stroke-width="4.917418355046447"/>
  <path d="M 15.556202231214064, 111.79323402112772 Q 16.574960497144776, 99.24037278582732, 22.85462082402926, 87.91340481095591 " fill="none" id="curve_4" stroke="#000000" stroke-linecap="round" stroke-linejoin="round" stroke-width="5.079500565380825"/>
  <path d="M 22.85462082402926, 87.91340481095591 Q 24.18748040674078, 73.16826196926249, 39.367077984624146, 67.56233912130205 " fill="none" id="curve_4" stroke="#000000" stroke-linecap="round" stroke-linejoin="round" stroke-width="4.971596126389493"/>
  <path d="M 39.367077984624146, 67.56233912130205 Q 45.70640083004631, 68.04774668730877, 46.06804847386748, 79.40558196681792 " fill="none" id="curve_4" stroke="#000000" stroke-linecap="round" stroke-linejoin="round" stroke-width="4.39007669724159"/>
  <path d="M 49.15408656354994, 99.39852630337778 Q 47.53316716376719, 108.02979439929706, 44.82976391152721, 113.7994473900639 " fill="none" id="curve_5" stroke="#000000" stroke-linecap="round" stroke-linejoin="round" stroke-width="4.229839240812598"/>
  <path d="M 36.5691817585117, 123.17465191005392 Q 38.767620749365946, 119.42846298421026, 42.317655644826374, 116.25855170850555 " fill="none" id="curve_6" stroke="#000000" stroke-linecap="round" stroke-linejoin="round" stroke-width="2.8880866674619416"/>
  <path d="M 45.310529286533956, 80.77345429990717 Q 44.59369020711096, 81.09511311289903, 43.77890629916603, 81.5812468604514 " fill="none" id="curve_7" stroke="#000000" stroke-linecap="round" stroke-linejoin="round" stroke-width="3.0333747395600685"/>
  <path d="M 16.767690227786318, 108.01449479570078 Q 17.155370354769836, 119.26209955026239, 22.356221473739705, 120.76292889879291 " fill="none" id="curve_11" stroke="#000000" stroke-linecap="round" stroke-linejoin="round" stroke-width="2.8358058001256063"/>
  <path d="M 20.55282105033694, 88.52934405621612 Q 20.7904479385002, 85.7484865061829, 22.056911897566724, 84.81084652198369 " fill="none" id="curve_12" stroke="#000000" stroke-linecap="round" stroke-linejoin="round" stroke-width="3.090140705862982"/>
  <path d="M 35.19609803575908, 69.98731494185085 Q 45.48538843934422, 70.34766533691335, 46.99631757115346, 74.33824995619312 " fill="none" id="curve_13" stroke="#000000" stroke-linecap="round" stroke-linejoin="round" stroke-width="2.255109754100181"/>
  <path d="M 87.8039145109026, 59.22321333485262 Q 88.23228830365125, 58.14563824457999, 88.58969929527167, 56.25468257331459 " fill="none" id="curve_17" stroke="#000000" stroke-linecap="round" stroke-linejoin="round" stroke-width="4.598814039102205"/>
  <path d="M 88.30182088448788, 82.56006691085281 Q 87.50637800567709, 85.02439800099054, 86.85158801125843, 92.8084407752994 " fill="none" id="curve_18" stroke="#000000" stroke-linecap="round" stroke-linejoin="round" stroke-width="2.963576117510248"/>
  <path d="M 87.8091539985877, 78.42948731131914 Q 88.30784631737751, 81.63491424172211, 88.98440671529993, 87.73468042776219 " fill="none" id="curve_19" stroke="#000000" stroke-linecap="round" stroke-linejoin="round" stroke-width="2.623039670313012"/>
  <path d="M 86.10391162714932, 59.07914585597081 Q 87.14313754464754, 58.809160897402606, 88.29711404254209, 57.58846902284253 " fill="none" id="curve_21" stroke="#000000" stroke-linecap="round" stroke-linejoin="round" stroke-width="1.9402560187866142"/>
  <path d="M 45.45918124356642, 107.3290581367188 Q 46.156572127750366, 107.21379154377185, 46.854540127666546, 106.91976591757732 " fill="none" id="curve_26" stroke="#000000" stroke-linecap="round" stroke-linejoin="round" stroke-width="2.5149003144163387"/>
  <path d="M 85.84064327648099, 57.11078993811327 Q 86.91045858326738, 55.6493197703982, 89.66640287900866, 54.55546100584981 " fill="none" id="curve_28" stroke="#000000" stroke-linecap="round" stroke-linejoin="round" stroke-width="3.0597640054909925"/>
  <path d="M 86.36775559412648, 24.572785346445983 Q 86.58706519118537, 19.03803352664209, 87.07658029695324, 13.622927772694421 " fill="none" id="curve_29" stroke="#000000" stroke-linecap="round" stroke-linejoin="round" stroke-width="2.7511945972607723"/>
  <path d="M 89.15942400738456, 38.486784363637696 Q 88.14248876561933, 40.41713261367444, 86.94752317868611, 42.799723913068924 " fill="none" id="curve_30" stroke="#000000" stroke-linecap="round" stroke-linejoin="round" stroke-width="4.156303249228494"/>
  <path d="M 86.94298627668559, 94.70646579044391 Q 87.781225015148, 95.4125361678538, 88.71961342625674, 97.21151203207096 " fill="none" id="curve_59" stroke="#000000" stroke-linecap="round" stroke-linejoin="round" stroke-width="2.8050821384476485"/>
  <path d="M 86.8024067864065, 128.8358846700855 Q 86.61222612556294, 123.70717614577066, 85.57023394402978, 122.00370368104693 " fill="none" id="curve_62" stroke="#000000" stroke-linecap="round" stroke-linejoin="round" stroke-width="3.2719081048827308"/>
  <path d="M 47.485800808065854, 75.52522504701636 Q 47.18817324187804, 75.70752521397749, 46.81890095499393, 76.12437496577147 " fill="none" id="curve_66" stroke="#000000" stroke-linecap="round" stroke-linejoin="round" stroke-width="2.740500058004396"/>
  <path d="M 31.9665279955425, 122.72576795484179 Q 26.678189414291964, 122.26701168526387, 19.29555301145216, 121.3435803335727 " fill="none" id="curve_81" stroke="#000000" stroke-linecap="round" stroke-linejoin="round" stroke-width="2.2713905772842744"/>
  <path d="M 27.142019860654592, 78.36526340971659 Q 29.856292431703242, 73.34399652779521, 36.68056147376931, 68.80487539746584 " fill="none" id="curve_83" stroke="#000000" stroke-linecap="round" stroke-linejoin="round" stroke-width="2.58215535977997"/>
  <path d="M 36.68056147376931, 68.80487539746584 Q 35.04655181653703, 69.48102972687059, 32.2486013722955, 70.08420589024306 " fill="none" id="curve_83" stroke="#000000" stroke-linecap="round" stroke-linejoin="round" stroke-width="4.516620522284519"/>
  <path d="M 32.25982001168426, 123.2026861186198 Q 34.18724749029182, 122.86020622350944, 35.662097036570245, 122.06605158961682 " fill="none" id="curve_87" stroke="#000000" stroke-linecap="round" stroke-linejoin="round" stroke-width="4.012148564308524"/>
</svg>
