<?xml version="1.0" ?>
<svg height="140" width="140" xmlns="http://www.w3.org/2000/svg">
  <path d="M 36.700418694315886, 61.275753269348684 Q 31.34293668889738, 63.588417484327614, 26.171176649497497, 80.73054352754076 " fill="none" id="curve_2" stroke="#000000" stroke-linecap="round" stroke-linejoin="round" stroke-width="3.518678238836402"/>
  <path d="M 26.171176649497497, 80.73054352754076 Q 26.317299424815964, 101.89039705062488, 33.16042347406962, 105.29971230697241 " fill="none" id="curve_2" stroke="#000000" stroke-linecap="round" stroke-linejoin="round" stroke-width="3.663828520170486"/>
  <path d="M 33.16042347406962, 105.29971230697241 Q 36.84062224825934, 112.63715658830436, 52.50578716100365, 114.9913373672781 " fill="none" id="curve_2" stroke="#000000" stroke-linecap="round" stroke-linejoin="round" stroke-width="3.6498861782879763"/>
  <path d="M 52.50578716100365, 114.9913373672781 Q 69.62637751740812, 114.22118443900472, 72.50282992127283, 102.74959145467453 " fill="none" id="curve_2" stroke="#000000" stroke-linecap="round" stroke-linejoin="round" stroke-width="2.6558118579138292"/>
  <path d="M 72.50282992127283, 102.74959145467453 Q 71.03717447144415, 96.31894561043646, 69.3381926011184, 82.79613217933814 " fill="none" id="curve_2" stroke="#000000" stroke-linecap="round" stroke-linejoin="round" stroke-width="3.500441263642909"/>
  <path d="M 89.0215718398972, 77.19237040971178 Q 89.20752416494932, 81.00135720743091, 89.39529171564284, 104.57524767765511 " fill="none" id="curve_3" stroke="#000000" stroke-linecap="round" stroke-linejoin="round" stroke-width="2.6643739307106356"/>
  <path d="M 89.39529171564284, 104.57524767765511 Q 89.25460580883944, 107.39304908822096, 89.10058763434786, 128.80110088120003 " fill="none" id="curve_3" stroke="#000000" stroke-linecap="round" stroke-linejoin="round" stroke-width="2.4046661680692667"/>
  <path d="M 89.10058763434786, 128.80110088120003 Q 89.12734293263252, 135.8878471005612, 89.20647286531485, 138.8723843307882 " fill="none" id="curve_3" stroke="#000000" stroke-linecap="round" stroke-linejoin="round" stroke-width="2.6597189584119425"/>
  <path d="M 89.20647286531485, 138.8723843307882 Q 88.75521991869387, 138.81669281806572, 88.037497631241, 138.76490852616064 " fill="none" id="curve_3" stroke="#000000" stroke-linecap="round" stroke-linejoin="round" stroke-width="1.7278954514333316"/>
  <path d="M 68.16922096264896, 82.57345812069487 Q 67.89187436290263, 81.94378556201019, 67.43758907537249, 81.44137524083018 " fill="none" id="curve_6" stroke="#000000" stroke-linecap="round" stroke-linejoin="round" stroke-width="3.4752729212686893"/>
  <path d="M 89.28679102810023, 76.26119496146056 Q 89.2412768910863, 71.98950282881604, 89.1600923093997, 55.656090961098954 " fill="none" id="curve_7" stroke="#000000" stroke-linecap="round" stroke-linejoin="round" stroke-width="2.4265216622213326"/>
  <path d="M 89.1600923093997, 55.656090961098954 Q 89.15436601964319, 48.37246370232701, 89.12587334993104, 37.89241682954669 " fill="none" id="curve_7" stroke="#000000" stroke-linecap="round" stroke-linejoin="round" stroke-width="2.4495253297487896"/>
  <path d="M 89.12587334993104, 37.89241682954669 Q 89.12310698304783, 30.779388894087887, 89.10988517581745, 21.19375691576714 " fill="none" id="curve_7" stroke="#000000" stroke-linecap="round" stroke-linejoin="round" stroke-width="2.409174146751422"/>
  <path d="M 89.10988517581745, 21.19375691576714 Q 89.11163274392042, 14.935157338359677, 89.11841918585381, 4.367294817669219 " fill="none" id="curve_7" stroke="#000000" stroke-linecap="round" stroke-linejoin="round" stroke-width="2.418398873754184"/>
  <path d="M 89.11841918585381, 4.367294817669219 Q 89.12265200517251, 2.2475746970701302, 89.13619038149602, 1.4577183639702893 " fill="none" id="curve_7" stroke="#000000" stroke-linecap="round" stroke-linejoin="round" stroke-width="2.840583962021394"/>
  <path d="M 89.13619038149602, 1.4577183639702893 Q 89.27958258126873, 1.4218577971768827, 89.48790133411448, 1.3717563944426703 " fill="none" id="curve_7" stroke="#000000" stroke-linecap="round" stroke-linejoin="round" stroke-width="1.5800977959050366"/>
  <path d="M 48.04504092621215, 55.57481111190937 Q 45.68851357040139, 49.66150649307746, 33.34796630721856, 44.48473921571525 " fill="none" id="curve_13" stroke="#000000" stroke-linecap="round" stroke-linejoin="round" stroke-width="2.634509403919969"/>
  <path d="M 38.668878053491774, 59.671370318199045 Q 38.36539706692097, 59.68828901330618, 38.06025336682913, 59.7241400507091 " fill="none" id="curve_14" stroke="#000000" stroke-linecap="round" stroke-linejoin="round" stroke-width="3.054871636449833"/>
  <path d="M 25.307469969089933, 87.1927699015817 Q 26.023230539983953, 90.20157826958912, 26.82093168984578, 97.09642163844214 " fill="none" id="curve_15" stroke="#000000" stroke-linecap="round" stroke-linejoin="round" stroke-width="1.9833823282201493"/>
  <path d="M 40.053228269102114, 110.21095735415938 Q 33.792001380467056, 108.49365258837935, 29.24909232823203, 101.49046970175345 " fill="none" id="curve_26" stroke="#000000" stroke-linecap="round" stroke-linejoin="round" stroke-width="2.4202999502419713"/>
  <path d="M 24.714433143427556, 84.12611759706084 Q 25.187376325450266, 84.17247097426893, 25.907434590127508, 84.26374996608224 " fill="none" id="curve_30" stroke="#000000" stroke-linecap="round" stroke-linejoin="round" stroke-width="1.9400613713067834"/>
  <path d="M 32.45289687703899, 104.91693055580481 Q 30.747156209670013, 101.3464555258108, 26.788619664128085, 98.13992565442219 " fill="none" id="curve_31" stroke="#000000" stroke-linecap="round" stroke-linejoin="round" stroke-width="2.135143919074502"/>
  <path d="M 34.584646262055614, 45.53505617803556 Q 33.95176674074487, 45.493988489915424, 32.888176384464316, 45.44769847484442 " fill="none" id="curve_34" stroke="#000000" stroke-linecap="round" stroke-linejoin="round" stroke-width="2.400907155527322"/>
  <path d="M 36.345907908204595, 45.32329115562196 Q 38.03093863638745, 46.0222702491672, 40.600751363670256, 47.321039433413965 " fill="none" id="curve_49" stroke="#000000" stroke-linecap="round" stroke-linejoin="round" stroke-width="1.7328303886648895"/>
  <path d="M 37.387325951095136, 109.17064863453314 Q 36.747800030563766, 106.2733194592152, 32.23139287520115, 105.28510072936503 " fill="none" id="curve_77" stroke="#000000" stroke-linecap="round" stroke-linejoin="round" stroke-width="2.546641586951603"/>
</svg>
