<?xml version="1.0" ?>
<svg height="140" width="140" xmlns="http://www.w3.org/2000/svg">
  <path d="M 66.86953735351562, 56.78642272949219 Q 65.62436589943508, 50.99532418537228, 55.826666825950724, 47.50134890055756 " fill="none" id="curve_1" stroke="#000000" stroke-linecap="round" stroke-linejoin="round" stroke-width="7.035880275854155"/>
  <path d="M 55.826666825950724, 47.50134890055756 Q 54.359884863684954, 46.6493990969472, 48.94959756567168, 46.05944189315506 " fill="none" id="curve_1" stroke="#000000" stroke-linecap="round" stroke-linejoin="round" stroke-width="11.775485755651603"/>
  <path d="M 48.94959756567168, 46.05944189315506 Q 38.183484685741135, 50.1256259824863, 23.063113574127772, 74.16158361855922 " fill="none" id="curve_1" stroke="#000000" stroke-linecap="round" stroke-linejoin="round" stroke-width="6.316373795809636"/>
  <path d="M 23.063113574127772, 74.16158361855922 Q 21.34660075700886, 80.62277592353635, 20.24920329472205, 91.81702384209419 " fill="none" id="curve_1" stroke="#000000" stroke-linecap="round" stroke-linejoin="round" stroke-width="6.1612357191653295"/>
  <path d="M 20.24920329472205, 91.81702384209419 Q 22.41208506426004, 106.17913474489134, 36.25046384295558, 109.07203723235288 " fill="none" id="curve_1" stroke="#000000" stroke-linecap="round" stroke-linejoin="round" stroke-width="6.484947203202021"/>
  <path d="M 36.25046384295558, 109.07203723235288 Q 53.89177939156828, 105.05579907025822, 67.06453056764356, 75.47840386984699 " fill="none" id="curve_1" stroke="#000000" stroke-linecap="round" stroke-linejoin="round" stroke-width="6.002457442053469"/>
  <path d="M 67.06453056764356, 75.47840386984699 Q 68.67190174380023, 71.732765458492, 69.43305766272692, 60.32781787701948 " fill="none" id="curve_1" stroke="#000000" stroke-linecap="round" stroke-linejoin="round" stroke-width="6.834935468164841"/>
  <path d="M 69.43305766272692, 60.32781787701948 Q 66.41072037115036, 52.73254110754294, 49.69913019437699, 48.84865548148493 " fill="none" id="curve_1" stroke="#000000" stroke-linecap="round" stroke-linejoin="round" stroke-width="4.412556031990448"/>
  <path d="M 49.69913019437699, 48.84865548148493 Q 59.87175331022055, 49.80415512118163, 67.46492470776563, 51.671854022128365 " fill="none" id="curve_1" stroke="#000000" stroke-linecap="round" stroke-linejoin="round" stroke-width="3.1866291261836546"/>
  <path d="M 67.46492470776563, 51.671854022128365 Q 66.99980514125593, 74.97829411416753, 62.77974193791244, 80.71634269855866 " fill="none" id="curve_1" stroke="#000000" stroke-linecap="round" stroke-linejoin="round" stroke-width="3.3265992659906516"/>
  <path d="M 41.412439632585006, 105.6927256572493 Q 38.66390105830405, 105.33746718250252, 30.530005122007644, 104.93207175610502 " fill="none" id="curve_2" stroke="#000000" stroke-linecap="round" stroke-linejoin="round" stroke-width="3.163189804696722"/>
  <path d="M 56.79124251777372, 90.964339119779 Q 49.86428780870143, 98.53031894073278, 40.42859519535055, 108.65283249374431 " fill="none" id="curve_3" stroke="#000000" stroke-linecap="round" stroke-linejoin="round" stroke-width="4.43364836273586"/>
  <path d="M 40.42859519535055, 108.65283249374431 Q 40.00953696886935, 109.7973332300862, 31.305902072323708, 109.88532937733427 " fill="none" id="curve_3" stroke="#000000" stroke-linecap="round" stroke-linejoin="round" stroke-width="4.038371919583693"/>
  <path d="M 31.305902072323708, 109.88532937733427 Q 41.7340472366822, 109.7764208387216, 43.62881135404521, 108.13902874269166 " fill="none" id="curve_3" stroke="#000000" stroke-linecap="round" stroke-linejoin="round" stroke-width="4.555148151533434"/>
  <path d="M 22.516518692305734, 70.59517948137992 Q 26.494423859086453, 62.79857021156446, 35.425675935828565, 53.95583501049671 " fill="none" id="curve_4" stroke="#000000" stroke-linecap="round" stroke-linejoin="round" stroke-width="3.2199585697247493"/>
  <path d="M 62.71943567404082, 56.702612204675944 Q 66.05569929359746, 58.28858459679799, 68.23327981707726, 61.26505787389501 " fill="none" id="curve_5" stroke="#000000" stroke-linecap="round" stroke-linejoin="round" stroke-width="3.4720191924450727"/>
  <path d="M 65.45074940609298, 83.11506700423226 Q 57.30199273105815, 87.46177120199795, 50.38890542632112, 97.35781182564702 " fill="none" id="curve_6" stroke="#000000" stroke-linecap="round" stroke-linejoin="round" stroke-width="3.1879663399175837"/>
  <path d="M 22.57038775312853, 96.15603714796214 Q 25.055191014211317, 102.58586840639701, 28.7847265769948, 108.32873367076509 " fill="none" id="curve_34" stroke="#000000" stroke-linecap="round" stroke-linejoin="round" stroke-width="3.5287170742072864"/>
  <path d="M 59.697863000704025, 53.93959762990069 Q 56.576163883839094, 50.643012873558625, 45.850080729929154, 47.650009938866695 " fill="none" id="curve_38" stroke="#000000" stroke-linecap="round" stroke-linejoin="round" stroke-width="3.472208353584291"/>
  <path d="M 18.391118020861782, 84.85265171420868 Q 20.03116543877742, 93.02509651276016, 25.91149461067995, 100.5613045861637 " fill="none" id="curve_54" stroke="#000000" stroke-linecap="round" stroke-linejoin="round" stroke-width="2.376562216921551"/>
  <path d="M 38.400152306314254, 104.63619204872573 Q 43.985458857441245, 104.02778021546648, 46.62276978906803, 101.69722175842321 " fill="none" id="curve_58" stroke="#000000" stroke-linecap="round" stroke-linejoin="round" stroke-width="3.2180834585578224"/>
  <path d="M 26.588693466085346, 104.41594256644242 Q 28.468537227609193, 104.55379418300811, 30.280065630607126, 104.89935468190946 " fill="none" id="curve_68" stroke="#000000" stroke-linecap="round" stroke-linejoin="round" stroke-width="3.9049899715655427"/>
  <path d="M 30.12749481201172, 109.97185516357422 Q 29.68024191126399, 103.72705320940636, 25.380164284424495, 101.41963791649334 " fill="none" id="curve_147" stroke="#000000" stroke-linecap="round" stroke-linejoin="round" stroke-width="3.5930463707106823"/>
</svg>
