<?xml version="1.0" ?>
<svg height="140" width="140" xmlns="http://www.w3.org/2000/svg">
  <path d="M 59.47693920135498, 100.91018843650818 Q 61.114201503466916, 100.6289310165147, 62.86558456820478, 99.57440479640127 " fill="none" id="curve_1" stroke="#000000" stroke-linecap="round" stroke-linejoin="round" stroke-width="5.763658476147295"/>
  <path d="M 62.86558456820478, 99.57440479640127 Q 69.45335262790209, 98.79292089241757, 70.97044071717761, 91.98859485489106 " fill="none" id="curve_1" stroke="#000000" stroke-linecap="round" stroke-linejoin="round" stroke-width="3.5652939125829803"/>
  <path d="M 62.77815788505354, 101.82221718018634 Q 58.3499618111962, 103.44906357917316, 47.74470429507791, 104.34450192222504 " fill="none" id="curve_2" stroke="#000000" stroke-linecap="round" stroke-linejoin="round" stroke-width="4.957999141474607"/>
  <path d="M 47.74470429507791, 104.34450192222504 Q 30.92339873855342, 103.5782009108576, 27.832740181894117, 91.8905054146515 " fill="none" id="curve_2" stroke="#000000" stroke-linecap="round" stroke-linejoin="round" stroke-width="4.851031638253082"/>
  <path d="M 27.832740181894117, 91.8905054146515 Q 30.080625224039878, 77.28931714339075, 46.776443730844065, 67.5079235234145 " fill="none" id="curve_2" stroke="#000000" stroke-linecap="round" stroke-linejoin="round" stroke-width="5.666544293129581"/>
  <path d="M 46.776443730844065, 67.5079235234145 Q 51.173906996634116, 67.22471820511139, 52.16143812318767, 65.44224814124583 " fill="none" id="curve_2" stroke="#000000" stroke-linecap="round" stroke-linejoin="round" stroke-width="8.068351547605324"/>
  <path d="M 52.16143812318767, 65.44224814124583 Q 51.462762649349735, 64.54175001267332, 50.053039771388235, 63.94617254504952 " fill="none" id="curve_2" stroke="#000000" stroke-linecap="round" stroke-linejoin="round" stroke-width="4.957263649587694"/>
  <path d="M 39.60354324196965, 72.55851323813043 Q 34.29553616619434, 78.38908027989933, 26.847276863190405, 87.6054287938265 " fill="none" id="curve_8" stroke="#000000" stroke-linecap="round" stroke-linejoin="round" stroke-width="3.028232578858004"/>
  <path d="M 39.38512097300929, 73.82832559717215 Q 29.912417699503656, 75.88286594405557, 26.612252244057835, 91.12304158608964 " fill="none" id="curve_11" stroke="#000000" stroke-linecap="round" stroke-linejoin="round" stroke-width="2.4476905207298447"/>
  <path d="M 31.43409252166748, 99.17586517333984 Q 29.35344128174496, 97.38531252641182, 26.61599572659088, 94.38125271754416 " fill="none" id="curve_25" stroke="#000000" stroke-linecap="round" stroke-linejoin="round" stroke-width="3.3780813042162063"/>
  <path d="M 42.6911123801016, 102.77427459927266 Q 43.33264040117176, 102.74777275024792, 44.27143405749627, 102.71256100615469 " fill="none" id="curve_26" stroke="#000000" stroke-linecap="round" stroke-linejoin="round" stroke-width="3.7093673638064297"/>
  <path d="M 42.93279544943122, 102.84867536084123 Q 41.61640495663533, 102.8452904331772, 38.66160527643144, 102.84048773513432 " fill="none" id="curve_75" stroke="#000000" stroke-linecap="round" stroke-linejoin="round" stroke-width="3.1920926620512793"/>
  <path d="M 70.67266654938476, 90.34944951266976 Q 71.34303939629704, 90.39810114131919, 71.90544955846774, 90.51242967576259 " fill="none" id="curve_90" stroke="#000000" stroke-linecap="round" stroke-linejoin="round" stroke-width="2.2617685590457515"/>
  <path d="M 42.684575471795, 103.15707845342948 Q 42.17669867524383, 102.30843689038564, 40.63487805076741, 101.77976940048123 " fill="none" id="curve_119" stroke="#000000" stroke-linecap="round" stroke-linejoin="round" stroke-width="3.2155795627476227"/>
</svg>
