<?xml version="1.0" ?>
<svg height="140" width="140" xmlns="http://www.w3.org/2000/svg">
  <path d="M 60.15006446838379, 80.69469833374023 Q 58.78365909821132, 84.90555635095949, 53.491234233224134, 90.79221021984364 " fill="none" id="curve_1" stroke="#000000" stroke-linecap="round" stroke-linejoin="round" stroke-width="3.6478353624429354"/>
  <path d="M 53.491234233224134, 90.79221021984364 Q 49.81129569726378, 96.86303430508455, 38.22143868121977, 102.70322208355859 " fill="none" id="curve_1" stroke="#000000" stroke-linecap="round" stroke-linejoin="round" stroke-width="7.516250705876803"/>
  <path d="M 38.22143868121977, 102.70322208355859 Q 33.05342792891407, 105.11518248876514, 20.699562275353426, 106.56975568394823 " fill="none" id="curve_1" stroke="#000000" stroke-linecap="round" stroke-linejoin="round" stroke-width="4.5770162044099925"/>
  <path d="M 8.313644160322877, 99.3767940633191 Q 5.915048029827025, 97.585051890719, 4.956651738576568, 90.12006713586682 " fill="none" id="curve_2" stroke="#000000" stroke-linecap="round" stroke-linejoin="round" stroke-width="6.108385874230298"/>
  <path d="M 4.956651738576568, 90.12006713586682 Q 6.267518602168084, 83.07656491841168, 7.785004812360578, 73.61291652464189 " fill="none" id="curve_2" stroke="#000000" stroke-linecap="round" stroke-linejoin="round" stroke-width="9.48245240883883"/>
  <path d="M 7.785004812360578, 73.61291652464189 Q 9.043258611773428, 57.8919624938267, 18.1066395697123, 51.92785325812249 " fill="none" id="curve_2" stroke="#000000" stroke-linecap="round" stroke-linejoin="round" stroke-width="11.360169062120406"/>
  <path d="M 18.1066395697123, 51.92785325812249 Q 22.783930743649304, 39.217118666538596, 49.13893818035585, 30.96918706776138 " fill="none" id="curve_2" stroke="#000000" stroke-linecap="round" stroke-linejoin="round" stroke-width="5.848664560575863"/>
  <path d="M 49.13893818035585, 30.96918706776138 Q 69.2001558263595, 31.552183211563534, 71.46773233289974, 39.44164947648693 " fill="none" id="curve_2" stroke="#000000" stroke-linecap="round" stroke-linejoin="round" stroke-width="5.622281471247212"/>
  <path d="M 71.46773233289974, 39.44164947648693 Q 71.07421670369459, 70.9650927252063, 60.16744639928679, 82.94731093924833 " fill="none" id="curve_2" stroke="#000000" stroke-linecap="round" stroke-linejoin="round" stroke-width="4.486011966689418"/>
  <path d="M 60.16744639928679, 82.94731093924833 Q 60.860015419389946, 83.8701580385528, 61.726760050649276, 85.17124463666396 " fill="none" id="curve_2" stroke="#000000" stroke-linecap="round" stroke-linejoin="round" stroke-width="4.792397629378735"/>
  <path d="M 12.129958991850422, 100.89434844716976 Q 11.995642898355015, 101.75902550379121, 11.612322527740954, 102.33227309053837 " fill="none" id="curve_3" stroke="#000000" stroke-linecap="round" stroke-linejoin="round" stroke-width="3.2252517925887103"/>
  <path d="M 51.034592895517235, 95.51416822602611 Q 53.02943248089426, 93.75279228662603, 55.41568698246374, 91.52065647413856 " fill="none" id="curve_4" stroke="#000000" stroke-linecap="round" stroke-linejoin="round" stroke-width="3.3004901552513104"/>
  <path d="M 72.56754821401881, 53.52521832031548 Q 71.94032389074557, 45.5029624012627, 69.41064061295413, 39.691567094067736 " fill="none" id="curve_5" stroke="#000000" stroke-linecap="round" stroke-linejoin="round" stroke-width="2.7423628459335085"/>
  <path d="M 56.031234656534444, 29.19009340766619 Q 61.43952977875968, 31.080103998032484, 67.50779053598944, 33.323800855673085 " fill="none" id="curve_6" stroke="#000000" stroke-linecap="round" stroke-linejoin="round" stroke-width="4.177537436346349"/>
  <path d="M 67.50779053598944, 33.323800855673085 Q 63.511615417864824, 33.6503968589416, 61.1116174073471, 34.749416444322435 " fill="none" id="curve_6" stroke="#000000" stroke-linecap="round" stroke-linejoin="round" stroke-width="3.9603439510304668"/>
  <path d="M 67.08340106502739, 31.912365628464254 Q 64.30289890942659, 31.23525739366768, 55.592693201871676, 30.485674488177853 " fill="none" id="curve_7" stroke="#000000" stroke-linecap="round" stroke-linejoin="round" stroke-width="3.397085855398554"/>
  <path d="M 12.694455179169026, 78.72009621850678 Q 11.034014274634107, 79.20548843346606, 8.544322968134802, 79.87008411428313 " fill="none" id="curve_8" stroke="#000000" stroke-linecap="round" stroke-linejoin="round" stroke-width="4.129949136642494"/>
  <path d="M 47.65685857623147, 31.17187817253194 Q 51.70879742226615, 30.593292103905775, 57.493158618831345, 29.703430352284993 " fill="none" id="curve_13" stroke="#000000" stroke-linecap="round" stroke-linejoin="round" stroke-width="3.5427870345005172"/>
  <path d="M 65.70219906292812, 70.09658581442895 Q 66.48154092350407, 68.40345701544229, 67.36830453714049, 65.48572195859198 " fill="none" id="curve_17" stroke="#000000" stroke-linecap="round" stroke-linejoin="round" stroke-width="4.443732409820412"/>
  <path d="M 49.8130365488459, 96.88864190778463 Q 50.933443079570075, 93.79058451031042, 54.253415871607444, 90.8482313880072 " fill="none" id="curve_18" stroke="#000000" stroke-linecap="round" stroke-linejoin="round" stroke-width="3.2824385673350096"/>
  <path d="M 19.023763659825065, 106.00406512216864 Q 19.681539694740845, 105.94188719227196, 20.38231820083897, 105.80853749195398 " fill="none" id="curve_22" stroke="#000000" stroke-linecap="round" stroke-linejoin="round" stroke-width="2.936855558972807"/>
  <path d="M 47.86778347915937, 96.44981141964618 Q 48.823903775222206, 92.20656522028929, 55.66533192068265, 90.71639741826613 " fill="none" id="curve_23" stroke="#000000" stroke-linecap="round" stroke-linejoin="round" stroke-width="3.0618021328854894"/>
  <path d="M 72.4996017595128, 50.11688997794253 Q 71.83773414022532, 47.06627399148984, 69.86700119640359, 44.32192604043812 " fill="none" id="curve_25" stroke="#000000" stroke-linecap="round" stroke-linejoin="round" stroke-width="3.8465653876353634"/>
  <path d="M 52.67021024013134, 28.59956781696901 Q 54.28524399821009, 32.85112321298372, 58.920219946822634, 34.785004601932926 " fill="none" id="curve_26" stroke="#000000" stroke-linecap="round" stroke-linejoin="round" stroke-width="2.4913090588875537"/>
  <path d="M 73.03982029837319, 46.46143577117785 Q 72.2571344849665, 46.071876770162774, 70.94736017544014, 45.498974285888444 " fill="none" id="curve_27" stroke="#000000" stroke-linecap="round" stroke-linejoin="round" stroke-width="2.341705001391758"/>
  <path d="M 60.02178413575439, 28.924006188367926 Q 49.43044653652934, 29.691169733837206, 40.172971711112396, 32.95231181399722 " fill="none" id="curve_28" stroke="#000000" stroke-linecap="round" stroke-linejoin="round" stroke-width="3.4869676070809335"/>
  <path d="M 17.214078745747333, 46.04904318148857 Q 14.205913469837697, 50.957326369578155, 6.396772776063276, 60.58121210984663 " fill="none" id="curve_29" stroke="#000000" stroke-linecap="round" stroke-linejoin="round" stroke-width="2.507618129153787"/>
  <path d="M 57.349016732712215, 30.149327373639856 Q 56.88264741580411, 28.90932558394621, 50.82701624463632, 28.61585273568409 " fill="none" id="curve_36" stroke="#000000" stroke-linecap="round" stroke-linejoin="round" stroke-width="3.122360520666647"/>
  <path d="M 18.67935206572146, 46.28194807211142 Q 16.656012776229954, 48.105445540235145, 13.608160232409956, 51.419933752787784 " fill="none" id="curve_37" stroke="#000000" stroke-linecap="round" stroke-linejoin="round" stroke-width="4.156750886714315"/>
  <path d="M 9.068000250478734, 66.40199596704744 Q 10.780634929288063, 65.11701086125109, 13.09790739010953, 63.27449610352574 " fill="none" id="curve_46" stroke="#000000" stroke-linecap="round" stroke-linejoin="round" stroke-width="3.943369180313755"/>
  <path d="M 59.618443488150945, 86.10410673975866 Q 59.283527043264996, 86.47700468126467, 58.20031488101564, 86.67106427547127 " fill="none" id="curve_87" stroke="#000000" stroke-linecap="round" stroke-linejoin="round" stroke-width="2.6517919330365474"/>
  <path d="M 68.08652782263658, 70.75814587667458 Q 68.30646469099631, 69.61521735710039, 68.6129496237752, 68.32371995806012 " fill="none" id="curve_88" stroke="#000000" stroke-linecap="round" stroke-linejoin="round" stroke-width="3.672912839823136"/>
  <path d="M 46.41455270026089, 99.23811923289144 Q 49.64112964598694, 96.3416261732408, 54.67451721001231, 93.5228552069679 " fill="none" id="curve_90" stroke="#000000" stroke-linecap="round" stroke-linejoin="round" stroke-width="2.7673104909649977"/>
  <path d="M 59.80687845571215, 83.38704326576665 Q 58.61451854930252, 83.46669303069545, 57.66968813339515, 83.65136033092634 " fill="none" id="curve_91" stroke="#000000" stroke-linecap="round" stroke-linejoin="round" stroke-width="4.180717738818724"/>
  <path d="M 17.448902373413038, 45.714385379972455 Q 17.857437000293263, 47.7501741402301, 24.07624152500765, 48.23156834404369 " fill="none" id="curve_99" stroke="#000000" stroke-linecap="round" stroke-linejoin="round" stroke-width="4.25493933853029"/>
  <path d="M 20.020480600004042, 46.907818424582715 Q 18.78031097787401, 46.48900868160585, 16.762637891240715, 45.81835654389013 " fill="none" id="curve_108" stroke="#000000" stroke-linecap="round" stroke-linejoin="round" stroke-width="3.7531644821482746"/>
  <path d="M 5.4981761557888476, 66.10963584935891 Q 8.06800226255327, 64.46614995845827, 13.903649740765191, 63.071290159471545 " fill="none" id="curve_116" stroke="#000000" stroke-linecap="round" stroke-linejoin="round" stroke-width="4.54510265436829"/>
  <path d="M 11.486961042273919, 102.51281162799049 Q 11.649610226446244, 102.56904129591777, 11.832310499727196, 102.67827332212019 " fill="none" id="curve_118" stroke="#000000" stroke-linecap="round" stroke-linejoin="round" stroke-width="2.9742405086481116"/>
  <path d="M 0.5432028633004151, 135.89391227190512 Q 0.7485474987082783, 136.85120614256041, 1.1608310706039813, 138.05104431901282 " fill="none" id="curve_119" stroke="#000000" stroke-linecap="round" stroke-linejoin="round" stroke-width="1.8203530039314584"/>
  <path d="M 68.07344874152778, 41.7845642269785 Q 68.39540433207415, 41.30188952560019, 69.04390320425628, 40.76380678929103 " fill="none" id="curve_126" stroke="#000000" stroke-linecap="round" stroke-linejoin="round" stroke-width="2.7561161374947236"/>
  <path d="M 49.78725383566337, 33.29498926999345 Q 51.61956496265349, 32.61382872921943, 56.96459411900114, 31.96070910455516 " fill="none" id="curve_134" stroke="#000000" stroke-linecap="round" stroke-linejoin="round" stroke-width="2.822945830264572"/>
  <path d="M 62.17435383312113, 81.91822660665139 Q 62.53116481921078, 81.80610910473563, 62.785377082787974, 81.42424660120447 " fill="none" id="curve_162" stroke="#000000" stroke-linecap="round" stroke-linejoin="round" stroke-width="3.0181458499610945"/>
  <path d="M 18.177357123730765, 46.72942864706143 Q 19.833689835423122, 46.879322311503145, 24.71800180554578, 47.013377657402316 " fill="none" id="curve_167" stroke="#000000" stroke-linecap="round" stroke-linejoin="round" stroke-width="2.8855444753911197"/>
  <path d="M 63.313865802376185, 72.83752683630615 Q 65.72034335715813, 68.74688363891315, 68.62712302021015, 61.588898175200114 " fill="none" id="curve_196" stroke="#000000" stroke-linecap="round" stroke-linejoin="round" stroke-width="2.462399664006057"/>
  <path d="M 20.850703890060796, 47.095260292476425 Q 19.677168435640993, 46.661003410333386, 15.066697976265349, 46.365284543318154 " fill="none" id="curve_206" stroke="#000000" stroke-linecap="round" stroke-linejoin="round" stroke-width="3.81620474650865"/>
  <path d="M 49.910509357132014, 98.34609308257109 Q 48.917716188941945, 96.8545940761333, 45.70087582027972, 96.08463479894365 " fill="none" id="curve_234" stroke="#000000" stroke-linecap="round" stroke-linejoin="round" stroke-width="3.754603443650609"/>
  <path d="M 53.975177278185726, 31.61815538826388 Q 51.39383376130851, 30.76479555136259, 46.407897514884056, 29.719931148523948 " fill="none" id="curve_240" stroke="#000000" stroke-linecap="round" stroke-linejoin="round" stroke-width="2.9685106868624853"/>
</svg>
