<?xml version="1.0" ?>
<svg height="140" width="140" xmlns="http://www.w3.org/2000/svg">
  <path d="M 62.982421875, 43.13552665710449 Q 62.90899446953108, 40.256955948963295, 60.63163124180767, 40.02973755139453 " fill="none" id="curve_1" stroke="#000000" stroke-linecap="round" stroke-linejoin="round" stroke-width="6.020365840464113"/>
  <path d="M 60.63163124180767, 40.02973755139453 Q 63.59988667607652, 45.63059206265353, 67.4939681146029, 60.59716291829001 " fill="none" id="curve_1" stroke="#000000" stroke-linecap="round" stroke-linejoin="round" stroke-width="4.71253158994635"/>
  <path d="M 67.4939681146029, 60.59716291829001 Q 67.25643124261778, 78.33458595343026, 63.22107796055309, 86.33786514684655 " fill="none" id="curve_1" stroke="#000000" stroke-linecap="round" stroke-linejoin="round" stroke-width="4.52197880837337"/>
  <path d="M 63.22107796055309, 86.33786514684655 Q 59.31963114036666, 96.33429819646004, 44.91217284464285, 112.57235461657716 " fill="none" id="curve_1" stroke="#000000" stroke-linecap="round" stroke-linejoin="round" stroke-width="4.166930364952848"/>
  <path d="M 44.91217284464285, 112.57235461657716 Q 39.653297670613036, 117.41717204605601, 28.579405098050707, 120.73334810755873 " fill="none" id="curve_1" stroke="#000000" stroke-linecap="round" stroke-linejoin="round" stroke-width="4.436817571606214"/>
  <path d="M 28.579405098050707, 120.73334810755873 Q 17.76154628531019, 119.92862552601969, 16.28190992870878, 101.57240263059109 " fill="none" id="curve_1" stroke="#000000" stroke-linecap="round" stroke-linejoin="round" stroke-width="4.532936487837323"/>
  <path d="M 16.28190992870878, 101.57240263059109 Q 16.834075276356387, 88.6899410576934, 19.794865822191518, 70.66026706112724 " fill="none" id="curve_1" stroke="#000000" stroke-linecap="round" stroke-linejoin="round" stroke-width="3.9792695461447023"/>
  <path d="M 19.794865822191518, 70.66026706112724 Q 22.589998020945544, 58.00601124440649, 33.637026190805216, 42.664330280572074 " fill="none" id="curve_1" stroke="#000000" stroke-linecap="round" stroke-linejoin="round" stroke-width="3.5690053660863104"/>
  <path d="M 33.637026190805216, 42.664330280572074 Q 38.00312605861816, 38.939324491737615, 44.31577270821384, 35.96073416259113 " fill="none" id="curve_1" stroke="#000000" stroke-linecap="round" stroke-linejoin="round" stroke-width="4.567156964942787"/>
  <path d="M 44.31577270821384, 35.96073416259113 Q 57.570927381325234, 37.54500689821, 61.61884543518801, 43.462481278441814 " fill="none" id="curve_1" stroke="#000000" stroke-linecap="round" stroke-linejoin="round" stroke-width="3.08212203488168"/>
  <path d="M 67.22705672700125, 52.675969984499794 Q 65.90338767611419, 56.70742320960497, 65.46207544863418, 71.87257548413177 " fill="none" id="curve_2" stroke="#000000" stroke-linecap="round" stroke-linejoin="round" stroke-width="3.1333806934368598"/>
  <path d="M 41.37670087727308, 38.5263878939961 Q 34.18971562639431, 39.1257116721826, 31.811506695704242, 43.527360290225104 " fill="none" id="curve_3" stroke="#000000" stroke-linecap="round" stroke-linejoin="round" stroke-width="2.68810714435695"/>
  <path d="M 22.361307789894454, 65.11686873192295 Q 24.704325440880567, 59.36766495433763, 27.39312434163524, 49.39597953008188 " fill="none" id="curve_4" stroke="#000000" stroke-linecap="round" stroke-linejoin="round" stroke-width="2.3111041554676146"/>
  <path d="M 43.71179939243502, 36.355172190960616 Q 37.819246176761276, 36.73340027588642, 36.440750769920406, 40.38105543424363 " fill="none" id="curve_5" stroke="#000000" stroke-linecap="round" stroke-linejoin="round" stroke-width="3.1254328517508876"/>
  <path d="M 64.11309189244213, 39.13699085483755 Q 62.97177709108433, 39.32592646331196, 61.26599538177375, 39.55834410222216 " fill="none" id="curve_6" stroke="#000000" stroke-linecap="round" stroke-linejoin="round" stroke-width="3.598473425178911"/>
  <path d="M 17.053624665045234, 100.85051435732518 Q 17.379428369776186, 118.63152264625369, 30.077801015157, 119.67941722705912 " fill="none" id="curve_8" stroke="#000000" stroke-linecap="round" stroke-linejoin="round" stroke-width="2.575746773364155"/>
  <path d="M 30.077801015157, 119.67941722705912 Q 23.486437752097615, 118.88164278526007, 19.750275628553286, 116.00288924423859 " fill="none" id="curve_8" stroke="#000000" stroke-linecap="round" stroke-linejoin="round" stroke-width="3.222619830418136"/>
  <path d="M 19.750275628553286, 116.00288924423859 Q 18.935312276711073, 107.87991259381955, 17.061178039934937, 101.65102563918673 " fill="none" id="curve_8" stroke="#000000" stroke-linecap="round" stroke-linejoin="round" stroke-width="2.572379561766121"/>
  <path d="M 50.895872457784805, 35.93055779528964 Q 49.13466843656028, 35.588324349554895, 45.593875560746525, 35.049313274417806 " fill="none" id="curve_11" stroke="#000000" stroke-linecap="round" stroke-linejoin="round" stroke-width="2.570218347867757"/>
  <path d="M 67.27497434120119, 56.913952837845954 Q 67.17074776239349, 55.89073860730937, 66.8400253006883, 55.3915956143221 " fill="none" id="curve_26" stroke="#000000" stroke-linecap="round" stroke-linejoin="round" stroke-width="5.727431319862647"/>
  <path d="M 66.8400253006883, 55.3915956143221 Q 65.91654156836627, 55.49608204472089, 64.62549518433045, 55.6455086774049 " fill="none" id="curve_26" stroke="#000000" stroke-linecap="round" stroke-linejoin="round" stroke-width="4.17373752479567"/>
  <path d="M 55.29767485100508, 98.5412421035224 Q 59.89561011458739, 92.0184002311942, 66.238171904139, 79.64549964926735 " fill="none" id="curve_41" stroke="#000000" stroke-linecap="round" stroke-linejoin="round" stroke-width="2.1703244494274982"/>
  <path d="M 64.82120890686542, 50.25551781333009 Q 65.69768963545746, 49.76069746758604, 66.61262067481931, 48.887540384970585 " fill="none" id="curve_42" stroke="#000000" stroke-linecap="round" stroke-linejoin="round" stroke-width="3.1734638838758955"/>
  <path d="M 36.48262900754315, 42.3759485745901 Q 36.654405093338596, 41.422525958163334, 37.013187646859265, 40.5809942020236 " fill="none" id="curve_83" stroke="#000000" stroke-linecap="round" stroke-linejoin="round" stroke-width="2.8155805980481543"/>
  <path d="M 25.26630639197083, 55.86694905185322 Q 24.852335564247582, 60.304490754027164, 23.507869605170427, 63.765873216398724 " fill="none" id="curve_98" stroke="#000000" stroke-linecap="round" stroke-linejoin="round" stroke-width="2.721287009851917"/>
  <path d="M 29.647266866041036, 119.2015006510697 Q 25.36817819681642, 118.76288905168997, 21.720743609746773, 117.56244805001647 " fill="none" id="curve_126" stroke="#000000" stroke-linecap="round" stroke-linejoin="round" stroke-width="2.542588936945851"/>
  <path d="M 19.613741287202185, 71.92375530879228 Q 20.908997596349934, 71.41861625466446, 21.63537832666021, 69.37180123733351 " fill="none" id="curve_133" stroke="#000000" stroke-linecap="round" stroke-linejoin="round" stroke-width="2.7492890399648333"/>
  <path d="M 22.15746066892069, 117.10114570826258 Q 20.800786886527224, 112.29762963828388, 15.872913624087904, 109.36958895603189 " fill="none" id="curve_135" stroke="#000000" stroke-linecap="round" stroke-linejoin="round" stroke-width="3.268377962917202"/>
  <path d="M 18.851526098716196, 101.47981435686309 Q 17.46288659909149, 102.99504976101102, 15.699306095205683, 105.69577054825425 " fill="none" id="curve_136" stroke="#000000" stroke-linecap="round" stroke-linejoin="round" stroke-width="2.5011687421954316"/>
</svg>
