<?xml version="1.0" ?>
<svg height="140" width="140" xmlns="http://www.w3.org/2000/svg">
  <path d="M 86.92405796051025, 76.32050442695618 Q 89.11355594461982, 76.84058865658956, 89.29887353870734, 101.10544286097729 " fill="none" id="curve_1" stroke="#000000" stroke-linecap="round" stroke-linejoin="round" stroke-width="3.857939265747995"/>
  <path d="M 89.29887353870734, 101.10544286097729 Q 88.7464891549266, 102.36021178319142, 88.51441933707028, 129.9521539247011 " fill="none" id="curve_1" stroke="#000000" stroke-linecap="round" stroke-linejoin="round" stroke-width="3.1993523609006838"/>
  <path d="M 88.51441933707028, 129.9521539247011 Q 88.67224988624687, 135.03854843281445, 89.02662523148595, 138.431167450481 " fill="none" id="curve_1" stroke="#000000" stroke-linecap="round" stroke-linejoin="round" stroke-width="3.4447015963704324"/>
  <path d="M 89.14174121462493, 78.31998382074289 Q 88.86678367806319, 76.18944350092505, 88.68999697588141, 56.034304984156506 " fill="none" id="curve_4" stroke="#000000" stroke-linecap="round" stroke-linejoin="round" stroke-width="3.309410916956073"/>
  <path d="M 88.68999697588141, 56.034304984156506 Q 88.71420426495652, 51.712366387698324, 88.75792095458016, 34.86367606928971 " fill="none" id="curve_4" stroke="#000000" stroke-linecap="round" stroke-linejoin="round" stroke-width="3.4307882225792805"/>
  <path d="M 88.75792095458016, 34.86367606928971 Q 88.75190088585775, 26.19927843346948, 88.72427686813558, 14.141827729560301 " fill="none" id="curve_4" stroke="#000000" stroke-linecap="round" stroke-linejoin="round" stroke-width="3.3358013497771437"/>
  <path d="M 88.72427686813558, 14.141827729560301 Q 88.62595264611903, 3.7231052498933117, 86.23687377413745, 2.8337440400071348 " fill="none" id="curve_4" stroke="#000000" stroke-linecap="round" stroke-linejoin="round" stroke-width="5.994768914777698"/>
  <path d="M 86.23687377413745, 2.8337440400071348 Q 84.88997458020887, 1.9490925803940728, 81.52754077867458, 1.487938164207683 " fill="none" id="curve_4" stroke="#000000" stroke-linecap="round" stroke-linejoin="round" stroke-width="3.0710802122039937"/>
  <path d="M 89.5152922491585, 1.914481207065068 Q 88.72135899822737, 2.8339983898904926, 87.35394519010528, 4.278130291945818 " fill="none" id="curve_5" stroke="#000000" stroke-linecap="round" stroke-linejoin="round" stroke-width="2.9768028979344905"/>
  <path d="M 25.665221544237813, 67.5240207351704 Q 17.791400285534266, 68.29902154447826, 16.548392607787022, 79.36750239566992 " fill="none" id="curve_7" stroke="#000000" stroke-linecap="round" stroke-linejoin="round" stroke-width="6.687951567415975"/>
  <path d="M 16.548392607787022, 79.36750239566992 Q 15.51971122556103, 85.48042740729396, 14.467615229008263, 110.38082025986712 " fill="none" id="curve_7" stroke="#000000" stroke-linecap="round" stroke-linejoin="round" stroke-width="5.926683022966083"/>
  <path d="M 14.467615229008263, 110.38082025986712 Q 15.355175738873134, 131.88947056671296, 28.526600939645412, 134.58982088964876 " fill="none" id="curve_7" stroke="#000000" stroke-linecap="round" stroke-linejoin="round" stroke-width="5.558810235227258"/>
  <path d="M 28.526600939645412, 134.58982088964876 Q 45.19174985592833, 130.99514505952052, 53.36314863804208, 111.41759803480223 " fill="none" id="curve_7" stroke="#000000" stroke-linecap="round" stroke-linejoin="round" stroke-width="6.781885046576853"/>
  <path d="M 53.36314863804208, 111.41759803480223 Q 55.408627810203676, 105.265199049122, 56.87912800644202, 92.85970448061707 " fill="none" id="curve_7" stroke="#000000" stroke-linecap="round" stroke-linejoin="round" stroke-width="7.1959901845759795"/>
  <path d="M 56.87912800644202, 92.85970448061707 Q 56.63652798576723, 68.48197192778439, 33.7261718311699, 67.08375408824281 " fill="none" id="curve_7" stroke="#000000" stroke-linecap="round" stroke-linejoin="round" stroke-width="6.572635229412734"/>
  <path d="M 33.7261718311699, 67.08375408824281 Q 19.69067210292406, 68.4083020896356, 16.73703220850899, 94.3986412794934 " fill="none" id="curve_7" stroke="#000000" stroke-linecap="round" stroke-linejoin="round" stroke-width="2.875178982406276"/>
  <path d="M 29.31900060159367, 67.11933594504086 Q 30.589380677791194, 68.38403065313685, 31.604763033979623, 71.6967925578082 " fill="none" id="curve_8" stroke="#000000" stroke-linecap="round" stroke-linejoin="round" stroke-width="8.011422168366304"/>
  <path d="M 18.07949891625273, 90.34413994830207 Q 20.01839586014224, 89.03271880231733, 20.78768745001559, 82.16862464655499 " fill="none" id="curve_9" stroke="#000000" stroke-linecap="round" stroke-linejoin="round" stroke-width="3.9197626932379426"/>
  <path d="M 28.745928747452506, 130.87456549988102 Q 43.35311732417549, 129.94264236627473, 46.129274538073204, 119.37794643776662 " fill="none" id="curve_10" stroke="#000000" stroke-linecap="round" stroke-linejoin="round" stroke-width="3.162126726955579"/>
  <path d="M 46.129274538073204, 119.37794643776662 Q 43.48678112668579, 127.19896814071902, 34.08890074677559, 130.4897202843568 " fill="none" id="curve_10" stroke="#000000" stroke-linecap="round" stroke-linejoin="round" stroke-width="4.445252349171746"/>
  <path d="M 28.956452266687883, 132.455955104516 Q 20.88678046661511, 130.91768147044505, 16.843003458989113, 124.01829059898188 " fill="none" id="curve_11" stroke="#000000" stroke-linecap="round" stroke-linejoin="round" stroke-width="2.844919694473511"/>
  <path d="M 26.55989029331615, 65.02866922534446 Q 39.56717603633007, 65.27819424431341, 44.330904186543755, 66.99449640824106 " fill="none" id="curve_13" stroke="#000000" stroke-linecap="round" stroke-linejoin="round" stroke-width="2.9494841556626707"/>
  <path d="M 12.191814412198454, 102.67383317584154 Q 14.426251020502974, 95.8432489620507, 20.098918013381905, 90.87553792665996 " fill="none" id="curve_16" stroke="#000000" stroke-linecap="round" stroke-linejoin="round" stroke-width="3.2834629335064833"/>
  <path d="M 54.42476240424204, 90.96018744992669 Q 54.015422935186955, 111.73523719174901, 49.69063950339799, 118.27551374477862 " fill="none" id="curve_19" stroke="#000000" stroke-linecap="round" stroke-linejoin="round" stroke-width="2.8037122235851153"/>
  <path d="M 54.44840560552509, 76.27918361087288 Q 52.485582194996915, 71.27274091593821, 42.80246553067589, 67.50388177339136 " fill="none" id="curve_20" stroke="#000000" stroke-linecap="round" stroke-linejoin="round" stroke-width="2.2972575496347996"/>
  <path d="M 50.68272300506982, 113.98964943983127 Q 50.97143729603627, 113.4099953064724, 51.43219672132357, 111.86678790453476 " fill="none" id="curve_27" stroke="#000000" stroke-linecap="round" stroke-linejoin="round" stroke-width="3.6770264014297305"/>
  <path d="M 35.61139380448386, 128.20802448837324 Q 40.32517105132872, 126.8857992373355, 43.61514033780898, 123.95947434454332 " fill="none" id="curve_34" stroke="#000000" stroke-linecap="round" stroke-linejoin="round" stroke-width="3.9835755014389815"/>
  <path d="M 13.783065803276116, 109.0859884683675 Q 15.546685080047546, 119.22399230255286, 19.3126193262803, 128.06538846037301 " fill="none" id="curve_45" stroke="#000000" stroke-linecap="round" stroke-linejoin="round" stroke-width="2.814758267355947"/>
  <path d="M 14.43271146793587, 79.21688248505693 Q 16.092752849228578, 76.90779361973976, 26.606169646865947, 75.82720550320514 " fill="none" id="curve_46" stroke="#000000" stroke-linecap="round" stroke-linejoin="round" stroke-width="2.114456515658193"/>
  <path d="M 47.62629699948624, 114.26517943409382 Q 49.4014382182543, 113.63623797973266, 50.595100035022945, 110.51406671929672 " fill="none" id="curve_54" stroke="#000000" stroke-linecap="round" stroke-linejoin="round" stroke-width="2.9083427027720004"/>
  <path d="M 86.66660593756842, 6.648668707629213 Q 87.31224427622156, 8.949731535451184, 88.16302536845934, 12.178493706392342 " fill="none" id="curve_69" stroke="#000000" stroke-linecap="round" stroke-linejoin="round" stroke-width="2.491810107890412"/>
  <path d="M 34.68245456509222, 64.40222386003438 Q 34.759051244464835, 64.51885418621501, 34.891372509807, 64.80568481530435 " fill="none" id="curve_87" stroke="#000000" stroke-linecap="round" stroke-linejoin="round" stroke-width="2.6547064762387897"/>
  <path d="M 89.4798741165186, 82.27458396669218 Q 89.36104669193736, 81.43886201058274, 89.14084962143724, 80.59636826069867 " fill="none" id="curve_128" stroke="#000000" stroke-linecap="round" stroke-linejoin="round" stroke-width="2.465768156879989"/>
</svg>
