<?xml version="1.0" ?>
<svg height="140" width="140" xmlns="http://www.w3.org/2000/svg">
  <path d="M 52.05176544189453, 92.74443435668945 Q 49.702026620843, 97.11961506242324, 42.211801643574745, 102.11823277765046 " fill="none" id="curve_1" stroke="#000000" stroke-linecap="round" stroke-linejoin="round" stroke-width="7.031092693018106"/>
  <path d="M 42.211801643574745, 102.11823277765046 Q 39.7561332587325, 107.20177998652858, 30.12327158779575, 109.34572872247305 " fill="none" id="curve_1" stroke="#000000" stroke-linecap="round" stroke-linejoin="round" stroke-width="7.682205918360024"/>
  <path d="M 30.12327158779575, 109.34572872247305 Q 14.52597006249141, 109.05124945979036, 11.771034723576413, 104.18290940616626 " fill="none" id="curve_1" stroke="#000000" stroke-linecap="round" stroke-linejoin="round" stroke-width="7.739521828842367"/>
  <path d="M 11.771034723576413, 104.18290940616626 Q 5.287800524985549, 102.02234814366807, 2.828432016940054, 90.26362796770337 " fill="none" id="curve_1" stroke="#000000" stroke-linecap="round" stroke-linejoin="round" stroke-width="5.75380919221156"/>
  <path d="M 2.828432016940054, 90.26362796770337 Q 2.0586697386193435, 87.60940323540893, 1.5037152182812294, 80.91420610184056 " fill="none" id="curve_1" stroke="#000000" stroke-linecap="round" stroke-linejoin="round" stroke-width="2.087244787859158"/>
  <path d="M 2.1770170009365684, 51.230760837396645 Q 2.3252588710916866, 37.70619375449337, 10.469268344537664, 36.756617822588716 " fill="none" id="curve_2" stroke="#000000" stroke-linecap="round" stroke-linejoin="round" stroke-width="5.654083137938749"/>
  <path d="M 10.469268344537664, 36.756617822588716 Q 21.762154134985252, 34.92739201233346, 29.992242712297493, 28.801518726020014 " fill="none" id="curve_2" stroke="#000000" stroke-linecap="round" stroke-linejoin="round" stroke-width="4.516877736425857"/>
  <path d="M 29.992242712297493, 28.801518726020014 Q 48.449229701009585, 28.839352326409294, 49.71377796200566, 30.15188013381619 " fill="none" id="curve_2" stroke="#000000" stroke-linecap="round" stroke-linejoin="round" stroke-width="6.239112313436716"/>
  <path d="M 49.71377796200566, 30.15188013381619 Q 60.08903948901241, 32.29138033710665, 62.6369929531873, 57.26669556907646 " fill="none" id="curve_2" stroke="#000000" stroke-linecap="round" stroke-linejoin="round" stroke-width="6.290338585601966"/>
  <path d="M 62.6369929531873, 57.26669556907646 Q 61.945268353573326, 76.8256708398047, 54.817972485491616, 90.7898706622068 " fill="none" id="curve_2" stroke="#000000" stroke-linecap="round" stroke-linejoin="round" stroke-width="5.981819530081209"/>
  <path d="M 54.817972485491616, 90.7898706622068 Q 52.1729161612285, 102.56070243465302, 40.97333470152053, 107.83562267154625 " fill="none" id="curve_2" stroke="#000000" stroke-linecap="round" stroke-linejoin="round" stroke-width="3.84120721699688"/>
  <path d="M 57.46351665592613, 80.32471685752023 Q 59.23735735437795, 70.80599315064866, 62.795257975958535, 60.70550539362819 " fill="none" id="curve_3" stroke="#000000" stroke-linecap="round" stroke-linejoin="round" stroke-width="3.5110717318846634"/>
  <path d="M 29.28219734824816, 37.34183848150795 Q 23.55806976190005, 36.81993887471367, 17.671917993148284, 35.55976455381717 " fill="none" id="curve_4" stroke="#000000" stroke-linecap="round" stroke-linejoin="round" stroke-width="2.7861589969871465"/>
  <path d="M 40.84286285134239, 26.87562378083676 Q 36.326464024708734, 27.494554066223756, 31.253612939650516, 28.72355427845823 " fill="none" id="curve_5" stroke="#000000" stroke-linecap="round" stroke-linejoin="round" stroke-width="3.4246471457231555"/>
  <path d="M 1.1600040492064556, 73.21322646030845 Q 0.9357388182244107, 68.38795241638802, 0.7550822165655982, 52.681188208232 " fill="none" id="curve_7" stroke="#000000" stroke-linecap="round" stroke-linejoin="round" stroke-width="2.110854823302764"/>
  <path d="M 11.067538185604214, 37.97137699856025 Q 7.16651345938538, 40.31803173166722, 2.957451024655624, 42.76766773620061 " fill="none" id="curve_8" stroke="#000000" stroke-linecap="round" stroke-linejoin="round" stroke-width="4.81202590862549"/>
  <path d="M 30.25618573198645, 30.56925750678537 Q 39.66001148969798, 29.562374417565074, 45.10357450066214, 26.78845975937037 " fill="none" id="curve_9" stroke="#000000" stroke-linecap="round" stroke-linejoin="round" stroke-width="2.9437957018508207"/>
  <path d="M 53.00590102758174, 91.3014933000688 Q 52.39359184168354, 91.29331445699157, 51.989274585490215, 91.27243736615318 " fill="none" id="curve_14" stroke="#000000" stroke-linecap="round" stroke-linejoin="round" stroke-width="4.733616834638846"/>
  <path d="M 10.29693165356096, 100.526892361912 Q 7.042436579631142, 98.43549410985902, 2.7414357004231595, 95.75679551622696 " fill="none" id="curve_15" stroke="#000000" stroke-linecap="round" stroke-linejoin="round" stroke-width="5.99346424631928"/>
  <path d="M 0.3921699275516972, 78.42802582403235 Q 0.621192114664573, 77.71311605840656, 0.8524530260760863, 76.13227927720679 " fill="none" id="curve_16" stroke="#000000" stroke-linecap="round" stroke-linejoin="round" stroke-width="1.7916161432832525"/>
  <path d="M 2.725195042066537, 43.82531229291175 Q 2.920433984888662, 41.5554127877372, 3.329466180908562, 39.3362597666059 " fill="none" id="curve_17" stroke="#000000" stroke-linecap="round" stroke-linejoin="round" stroke-width="3.219935672323445"/>
  <path d="M 31.899125388329466, 31.036329047165808 Q 33.1846368297203, 28.320539780062546, 45.9663698588289, 27.479970757351065 " fill="none" id="curve_19" stroke="#000000" stroke-linecap="round" stroke-linejoin="round" stroke-width="2.5580946860574367"/>
  <path d="M 88.1429683265415, 4.0990282067004955 Q 88.72764969409108, 3.5933754583483095, 89.26424144819471, 2.299138112387161 " fill="none" id="curve_20" stroke="#000000" stroke-linecap="round" stroke-linejoin="round" stroke-width="3.1488495527025746"/>
  <path d="M 15.913349637712969, 36.45432065690234 Q 15.884286646144558, 38.01994278038081, 15.399395712613924, 38.237979964329696 " fill="none" id="curve_26" stroke="#000000" stroke-linecap="round" stroke-linejoin="round" stroke-width="2.4450267965921233"/>
  <path d="M 15.399395712613924, 38.237979964329696 Q 14.328070064395407, 35.802071145315885, 10.92223356711859, 34.33439709597668 " fill="none" id="curve_26" stroke="#000000" stroke-linecap="round" stroke-linejoin="round" stroke-width="2.937215565827183"/>
  <path d="M 3.0846188161398294, 44.19555420031131 Q 3.509469653888973, 44.09394419973226, 3.822259700133395, 43.78805844368803 " fill="none" id="curve_27" stroke="#000000" stroke-linecap="round" stroke-linejoin="round" stroke-width="3.702564836744074"/>
  <path d="M 30.235095562698863, 38.7064568746889 Q 28.37055528979224, 38.05957756402149, 25.040560786594313, 36.99915944360311 " fill="none" id="curve_28" stroke="#000000" stroke-linecap="round" stroke-linejoin="round" stroke-width="2.455878073019472"/>
  <path d="M 57.57812235975463, 43.34059419251153 Q 58.38357777104894, 43.083861719284194, 58.89941444328072, 41.88187373547888 " fill="none" id="curve_33" stroke="#000000" stroke-linecap="round" stroke-linejoin="round" stroke-width="3.2215537004190478"/>
  <path d="M 58.31640518024619, 48.32307574983429 Q 58.59062065522884, 47.445817250052066, 59.25463028411395, 46.53217294570465 " fill="none" id="curve_48" stroke="#000000" stroke-linecap="round" stroke-linejoin="round" stroke-width="3.0361905406993634"/>
  <path d="M 48.424786187994115, 29.004640453170225 Q 48.226134332907016, 28.281300821226836, 47.49876376401725, 27.70714280570845 " fill="none" id="curve_83" stroke="#000000" stroke-linecap="round" stroke-linejoin="round" stroke-width="3.3168418254181082"/>
  <path d="M 38.91312348932934, 109.97048212662003 Q 34.34236934741738, 109.62749131932294, 29.0492683541825, 108.74935851174563 " fill="none" id="curve_98" stroke="#000000" stroke-linecap="round" stroke-linejoin="round" stroke-width="2.540392261241362"/>
  <path d="M 59.96411223255609, 65.3994937500961 Q 60.62056305696531, 57.17824621155462, 64.92885189145517, 53.30859731265692 " fill="none" id="curve_113" stroke="#000000" stroke-linecap="round" stroke-linejoin="round" stroke-width="2.5703833137917784"/>
  <path d="M 89.91525072128327, 4.924527441202926 Q 89.73272474563731, 4.099767179832792, 89.32388979064378, 2.4248485811110876 " fill="none" id="curve_116" stroke="#000000" stroke-linecap="round" stroke-linejoin="round" stroke-width="2.162046966132877"/>
  <path d="M 88.60984644400726, 2.6142502255731586 Q 88.86640585811975, 2.0392612053690504, 89.2962513282132, 1.351432268890169 " fill="none" id="curve_120" stroke="#000000" stroke-linecap="round" stroke-linejoin="round" stroke-width="2.278233685790892"/>
  <path d="M 4.5601013943195206, 98.6223716506679 Q 4.360120970041906, 98.1422659991006, 4.110577933330065, 97.42001139125654 " fill="none" id="curve_131" stroke="#000000" stroke-linecap="round" stroke-linejoin="round" stroke-width="5.094716827218919"/>
</svg>
