<?xml version="1.0" ?>
<svg height="140" width="140" xmlns="http://www.w3.org/2000/svg">
  <path d="M 68.30223655700684, 81.57308387756348 Q 69.08637334819986, 79.74628604757298, 69.84796256499584, 74.39490725109681 " fill="none" id="curve_1" stroke="#000000" stroke-linecap="round" stroke-linejoin="round" stroke-width="4.888359629491681"/>
  <path d="M 69.84796256499584, 74.39490725109681 Q 69.66669664163568, 59.37593235032931, 61.36949428072014, 56.45883195295802 " fill="none" id="curve_1" stroke="#000000" stroke-linecap="round" stroke-linejoin="round" stroke-width="2.9746830894177414"/>
  <path d="M 61.36949428072014, 56.45883195295802 Q 55.760699515860566, 55.16076549734679, 49.4037307134056, 52.66730795778612 " fill="none" id="curve_1" stroke="#000000" stroke-linecap="round" stroke-linejoin="round" stroke-width="4.970263023208275"/>
  <path d="M 49.4037307134056, 52.66730795778612 Q 39.38347266092599, 54.77394303204066, 31.993940450406114, 62.13844023484032 " fill="none" id="curve_1" stroke="#000000" stroke-linecap="round" stroke-linejoin="round" stroke-width="6.015425945096273"/>
  <path d="M 31.993940450406114, 62.13844023484032 Q 20.593131685404025, 62.575160857916174, 19.43315093223094, 78.7175113094439 " fill="none" id="curve_1" stroke="#000000" stroke-linecap="round" stroke-linejoin="round" stroke-width="3.9030858950118272"/>
  <path d="M 19.43315093223094, 78.7175113094439 Q 23.429891592136443, 92.76795753485001, 40.526012748303415, 102.79464266390391 " fill="none" id="curve_1" stroke="#000000" stroke-linecap="round" stroke-linejoin="round" stroke-width="4.809466562661584"/>
  <path d="M 40.526012748303415, 102.79464266390391 Q 61.48381207474664, 102.44570767556154, 65.06004635280269, 88.73375124804748 " fill="none" id="curve_1" stroke="#000000" stroke-linecap="round" stroke-linejoin="round" stroke-width="4.285542773661757"/>
  <path d="M 65.06004635280269, 88.73375124804748 Q 67.5239638011649, 86.69309754447596, 68.66519522376613, 81.18491959235112 " fill="none" id="curve_1" stroke="#000000" stroke-linecap="round" stroke-linejoin="round" stroke-width="4.8136529725116795"/>
  <path d="M 37.48563190467868, 85.05861810057982 Q 32.21002221211477, 82.96822920757549, 30.125891325317607, 65.38786971962884 " fill="none" id="curve_2" stroke="#000000" stroke-linecap="round" stroke-linejoin="round" stroke-width="4.422429476422108"/>
  <path d="M 30.125891325317607, 65.38786971962884 Q 32.683654189122194, 64.07800066629422, 36.049823742683756, 62.80379377385286 " fill="none" id="curve_2" stroke="#000000" stroke-linecap="round" stroke-linejoin="round" stroke-width="2.4280839024216605"/>
  <path d="M 44.15291444106953, 56.533086292710216 Q 43.67897886092281, 56.729916122348925, 42.906725817415236, 56.949202599534196 " fill="none" id="curve_3" stroke="#000000" stroke-linecap="round" stroke-linejoin="round" stroke-width="3.600033398159348"/>
  <path d="M 36.511873795670766, 98.38283429937405 Q 40.15396528714849, 100.67681852101948, 46.66959378105261, 102.19898566041601 " fill="none" id="curve_5" stroke="#000000" stroke-linecap="round" stroke-linejoin="round" stroke-width="3.1881564917637375"/>
  <path d="M 30.237160814341255, 72.50143844442675 Q 31.823948704251567, 70.59742727360955, 32.586766932347174, 62.81155053250537 " fill="none" id="curve_6" stroke="#000000" stroke-linecap="round" stroke-linejoin="round" stroke-width="2.8303571789676862"/>
  <path d="M 18.958053434840206, 73.50951841181266 Q 21.151786285347328, 82.06879947020013, 27.67267670113806, 89.04816748643842 " fill="none" id="curve_7" stroke="#000000" stroke-linecap="round" stroke-linejoin="round" stroke-width="2.6766756508752403"/>
  <path d="M 27.67267670113806, 89.04816748643842 Q 28.155498795678827, 93.62615047182582, 30.124228456918644, 96.10763462247843 " fill="none" id="curve_7" stroke="#000000" stroke-linecap="round" stroke-linejoin="round" stroke-width="2.980496644857459"/>
  <path d="M 19.258640320053793, 75.4137870525029 Q 20.662809894651627, 69.04398055595003, 25.42624351662185, 65.20488931600448 " fill="none" id="curve_8" stroke="#000000" stroke-linecap="round" stroke-linejoin="round" stroke-width="2.446858523243748"/>
  <path d="M 25.42624351662185, 65.20488931600448 Q 20.303995160912073, 67.24056894938889, 19.160552446922537, 79.28617415551624 " fill="none" id="curve_8" stroke="#000000" stroke-linecap="round" stroke-linejoin="round" stroke-width="3.1139141789687756"/>
  <path d="M 19.160552446922537, 79.28617415551624 Q 20.337867244989198, 69.95837926625657, 24.570573694350088, 64.66216113297133 " fill="none" id="curve_8" stroke="#000000" stroke-linecap="round" stroke-linejoin="round" stroke-width="2.825555454485106"/>
  <path d="M 35.972049713134766, 100.8369140625 Q 34.219913058601456, 95.68281683012692, 25.103132706969063, 92.19143287508734 " fill="none" id="curve_22" stroke="#000000" stroke-linecap="round" stroke-linejoin="round" stroke-width="3.520483878885779"/>
  <path d="M 30.473792074750563, 74.08582138692847 Q 30.34153278020015, 69.99182193690848, 29.82920689259503, 67.98440887546673 " fill="none" id="curve_23" stroke="#000000" stroke-linecap="round" stroke-linejoin="round" stroke-width="2.9307493213999876"/>
  <path d="M 65.66359795429295, 82.59328590326695 Q 65.53534861645923, 88.09805053832167, 64.50224880617782, 90.27356681628181 " fill="none" id="curve_38" stroke="#000000" stroke-linecap="round" stroke-linejoin="round" stroke-width="2.198046423730087"/>
  <path d="M 64.50224880617782, 90.27356681628181 Q 60.473856286991584, 96.70382193608627, 49.93091358961806, 102.71994307229929 " fill="none" id="curve_38" stroke="#000000" stroke-linecap="round" stroke-linejoin="round" stroke-width="2.790592848161399"/>
  <path d="M 21.556463034435275, 71.24994881016232 Q 21.753043869762763, 67.57707030042145, 23.320250066940655, 65.92647705831868 " fill="none" id="curve_67" stroke="#000000" stroke-linecap="round" stroke-linejoin="round" stroke-width="2.8851091783923657"/>
  <path d="M 22.953742337562236, 68.22145057079678 Q 21.370286395648087, 69.57417942474046, 20.472127711665735, 75.31344893241899 " fill="none" id="curve_97" stroke="#000000" stroke-linecap="round" stroke-linejoin="round" stroke-width="2.44933141952492"/>
</svg>
