<?xml version="1.0" ?>
<svg height="140" width="140" xmlns="http://www.w3.org/2000/svg">
  <path d="M 19.56876564025879, 98.33812713623047 Q 18.377776265153003, 97.66452877954042, 17.964684705875285, 93.181678383155 " fill="none" id="curve_1" stroke="#000000" stroke-linecap="round" stroke-linejoin="round" stroke-width="7.44202717864389"/>
  <path d="M 17.964684705875285, 93.181678383155 Q 18.711413624099627, 83.58023661650938, 23.543378565262838, 78.43247073883845 " fill="none" id="curve_1" stroke="#000000" stroke-linecap="round" stroke-linejoin="round" stroke-width="3.868847379854441"/>
  <path d="M 23.543378565262838, 78.43247073883845 Q 27.661159593958644, 68.92036265521806, 39.919753825779196, 55.51566447153923 " fill="none" id="curve_1" stroke="#000000" stroke-linecap="round" stroke-linejoin="round" stroke-width="3.8763505854857367"/>
  <path d="M 48.978810758083554, 47.633518945511476 Q 58.69565433762271, 47.86604904021412, 59.51636110278335, 53.54118925240026 " fill="none" id="curve_2" stroke="#000000" stroke-linecap="round" stroke-linejoin="round" stroke-width="6.2606197128157275"/>
  <path d="M 59.51636110278335, 53.54118925240026 Q 59.40746606484627, 60.356906824500086, 59.31028064837126, 77.85986881617657 " fill="none" id="curve_2" stroke="#000000" stroke-linecap="round" stroke-linejoin="round" stroke-width="4.061392436758418"/>
  <path d="M 59.31028064837126, 77.85986881617657 Q 58.47478916794413, 90.62441632314835, 53.5661482541757, 93.58979620753755 " fill="none" id="curve_2" stroke="#000000" stroke-linecap="round" stroke-linejoin="round" stroke-width="4.970233262174373"/>
  <path d="M 31.82039595993687, 105.02495359515103 Q 19.24727510275948, 104.5247064757115, 17.245640617875146, 97.55030592108668 " fill="none" id="curve_3" stroke="#000000" stroke-linecap="round" stroke-linejoin="round" stroke-width="3.9643990352479173"/>
  <path d="M 55.83211776013503, 69.9274076350477 Q 53.43802996772194, 67.59341581227511, 51.06273065205892, 63.87021309781708 " fill="none" id="curve_6" stroke="#000000" stroke-linecap="round" stroke-linejoin="round" stroke-width="6.820271050738184"/>
  <path d="M 51.06273065205892, 63.87021309781708 Q 54.912421031741715, 72.34081429256884, 61.991161604121544, 78.19914992969075 " fill="none" id="curve_6" stroke="#000000" stroke-linecap="round" stroke-linejoin="round" stroke-width="2.496310793117405"/>
  <path d="M 90.63273993634684, 75.91294543780927 Q 89.92115154269511, 77.18409205712506, 89.80537173821406, 100.29748926734493 " fill="none" id="curve_7" stroke="#000000" stroke-linecap="round" stroke-linejoin="round" stroke-width="1.8904012582116538"/>
  <path d="M 89.80537173821406, 100.29748926734493 Q 89.79980676098299, 113.78238834246464, 89.76429069059115, 131.90808829605044 " fill="none" id="curve_7" stroke="#000000" stroke-linecap="round" stroke-linejoin="round" stroke-width="1.7438342167273038"/>
  <path d="M 89.76429069059115, 131.90808829605044 Q 89.69908596967751, 136.90569962907384, 89.46552533824601, 139.0403863365512 " fill="none" id="curve_7" stroke="#000000" stroke-linecap="round" stroke-linejoin="round" stroke-width="2.248916990589829"/>
  <path d="M 88.78492239706489, 75.57701643391584 Q 89.49328286110847, 75.13232596157603, 89.60093278321342, 67.6827310169453 " fill="none" id="curve_10" stroke="#000000" stroke-linecap="round" stroke-linejoin="round" stroke-width="1.5712107745350439"/>
  <path d="M 89.60093278321342, 67.6827310169453 Q 89.58284259002663, 63.98855009715298, 89.55952697003583, 54.21336592354253 " fill="none" id="curve_10" stroke="#000000" stroke-linecap="round" stroke-linejoin="round" stroke-width="1.3958715870344107"/>
  <path d="M 89.55952697003583, 54.21336592354253 Q 89.56318179097516, 50.44276571117378, 89.56856714951638, 40.43968516188654 " fill="none" id="curve_10" stroke="#000000" stroke-linecap="round" stroke-linejoin="round" stroke-width="1.3905018559972224"/>
  <path d="M 89.56856714951638, 40.43968516188654 Q 89.53928002107224, 38.03887852535284, 89.51270239014417, 27.612905752843012 " fill="none" id="curve_10" stroke="#000000" stroke-linecap="round" stroke-linejoin="round" stroke-width="1.4404885661529407"/>
  <path d="M 89.51270239014417, 27.612905752843012 Q 89.51350157669245, 23.260013732132116, 89.51517999853246, 14.799919378941645 " fill="none" id="curve_10" stroke="#000000" stroke-linecap="round" stroke-linejoin="round" stroke-width="1.4152394719870693"/>
  <path d="M 89.51517999853246, 14.799919378941645 Q 89.22490590909774, 5.82447954705146, 86.80861104215734, 1.796575796788325 " fill="none" id="curve_10" stroke="#000000" stroke-linecap="round" stroke-linejoin="round" stroke-width="4.117496329617787"/>
  <path d="M 86.80861104215734, 1.796575796788325 Q 83.56025072233399, 1.5588533709299277, 78.36172503203312, 1.3406230347894237 " fill="none" id="curve_10" stroke="#000000" stroke-linecap="round" stroke-linejoin="round" stroke-width="1.9406090395323026"/>
  <path d="M 78.36172503203312, 1.3406230347894237 Q 86.33816123863022, 2.251104338690451, 88.80487542868158, 4.834351674663624 " fill="none" id="curve_10" stroke="#000000" stroke-linecap="round" stroke-linejoin="round" stroke-width="3.1711471671626974"/>
  <path d="M 88.80487542868158, 4.834351674663624 Q 88.84431661109265, 2.962570291548774, 88.96302638217053, 2.322428037380093 " fill="none" id="curve_10" stroke="#000000" stroke-linecap="round" stroke-linejoin="round" stroke-width="2.5446314721397436"/>
  <path d="M 39.825233211196334, 54.156738927615116 Q 40.60336260472909, 54.149781584418655, 41.32917517703808, 54.13079971476525 " fill="none" id="curve_16" stroke="#000000" stroke-linecap="round" stroke-linejoin="round" stroke-width="2.596967911147767"/>
  <path d="M 60.401202112156014, 84.37999056096595 Q 56.90573415034962, 85.62820062947297, 55.29535340066702, 91.08415388399578 " fill="none" id="curve_17" stroke="#000000" stroke-linecap="round" stroke-linejoin="round" stroke-width="4.786419104109281"/>
  <path d="M 57.45547270000111, 49.62150839409218 Q 57.31086908802297, 48.79511350295003, 56.81542834821281, 47.78812557101907 " fill="none" id="curve_22" stroke="#000000" stroke-linecap="round" stroke-linejoin="round" stroke-width="3.861123021801427"/>
  <path d="M 27.610407690922546, 69.50908102105056 Q 28.685554843616863, 64.71967971114643, 35.73922790184158, 62.0013128058031 " fill="none" id="curve_25" stroke="#000000" stroke-linecap="round" stroke-linejoin="round" stroke-width="2.6955913411259074"/>
  <path d="M 53.285348545336, 64.12493029065634 Q 52.523212099832, 63.22389407103947, 51.024874636601595, 62.20836496741092 " fill="none" id="curve_29" stroke="#000000" stroke-linecap="round" stroke-linejoin="round" stroke-width="2.8964206617831967"/>
  <path d="M 60.91226226096455, 81.76260821225522 Q 60.65008784276508, 81.02516644804165, 59.99075558846949, 80.53394217451242 " fill="none" id="curve_44" stroke="#000000" stroke-linecap="round" stroke-linejoin="round" stroke-width="5.437079102366081"/>
  <path d="M 50.54343736466062, 61.168625513507266 Q 51.61751979916443, 61.57608314775485, 52.60032901057981, 62.65024625302335 " fill="none" id="curve_45" stroke="#000000" stroke-linecap="round" stroke-linejoin="round" stroke-width="2.83543998178817"/>
  <path d="M 33.72705059913212, 104.93921067684099 Q 33.16916058667373, 104.81272222161465, 32.30473817420832, 104.61804211924407 " fill="none" id="curve_47" stroke="#000000" stroke-linecap="round" stroke-linejoin="round" stroke-width="2.861981278859408"/>
  <path d="M 27.179347512817003, 71.16804060913137 Q 27.625967305004924, 69.5619998029265, 29.002179748767617, 67.63328531197713 " fill="none" id="curve_62" stroke="#000000" stroke-linecap="round" stroke-linejoin="round" stroke-width="2.6085438248233253"/>
  <path d="M 89.74552917480469, 7.962398529052734 Q 87.67161899993653, 6.678861049824468, 85.42460870041339, 3.5918936556371364 " fill="none" id="curve_76" stroke="#000000" stroke-linecap="round" stroke-linejoin="round" stroke-width="2.477813796542431"/>
  <path d="M 52.847495852257836, 94.28336038785474 Q 53.42643720628937, 94.03564158713749, 54.09724371569604, 93.44686460871566 " fill="none" id="curve_92" stroke="#000000" stroke-linecap="round" stroke-linejoin="round" stroke-width="2.463577537232733"/>
  <path d="M 58.89755825009183, 69.06045111084308 Q 57.0990720294433, 64.57001980894759, 52.032707076012315, 57.44652609198947 " fill="none" id="curve_107" stroke="#000000" stroke-linecap="round" stroke-linejoin="round" stroke-width="2.1612006231784746"/>
  <path d="M 37.28353266042658, 59.77014557062468 Q 35.860462026812954, 60.65860483097382, 33.73029470749246, 62.621682989782975 " fill="none" id="curve_109" stroke="#000000" stroke-linecap="round" stroke-linejoin="round" stroke-width="2.985214920170574"/>
  <path d="M 55.091604222756565, 49.578717354030196 Q 54.74814559494575, 48.516235822968206, 53.681456759532516, 47.654446598631296 " fill="none" id="curve_116" stroke="#000000" stroke-linecap="round" stroke-linejoin="round" stroke-width="4.877343911745621"/>
  <path d="M 19.135524828704845, 82.41047388138202 Q 19.07856633177624, 82.42825979712649, 19.020282701390872, 82.45380520523734 " fill="none" id="curve_134" stroke="#000000" stroke-linecap="round" stroke-linejoin="round" stroke-width="5.37833558054594"/>
  <path d="M 56.54995305497543, 51.89448196084207 Q 57.87214186341195, 50.55995303131694, 59.147515084499794, 48.25333117993628 " fill="none" id="curve_136" stroke="#000000" stroke-linecap="round" stroke-linejoin="round" stroke-width="3.3363738950202624"/>
  <path d="M 29.191344542100836, 68.75272493851763 Q 25.33954402624757, 69.17539574010362, 24.53549528988401, 75.03537816475426 " fill="none" id="curve_138" stroke="#000000" stroke-linecap="round" stroke-linejoin="round" stroke-width="2.247591380384475"/>
  <path d="M 58.808766980369946, 81.1363472187979 Q 58.186314423738736, 83.22762758364038, 57.592326087029804, 87.22706383861939 " fill="none" id="curve_140" stroke="#000000" stroke-linecap="round" stroke-linejoin="round" stroke-width="3.5381277689852997"/>
  <path d="M 23.459293365478516, 106.90590858459473 Q 22.23179008496517, 101.96828165796208, 19.214540813282753, 96.36977169770347 " fill="none" id="curve_167" stroke="#000000" stroke-linecap="round" stroke-linejoin="round" stroke-width="2.9633701466505546"/>
  <path d="M 22.04455900440993, 84.82310828061544 Q 21.97889897962997, 83.80672481961102, 21.789442974960977, 83.31717125463739 " fill="none" id="curve_168" stroke="#000000" stroke-linecap="round" stroke-linejoin="round" stroke-width="2.8979000066020895"/>
</svg>
