<?xml version="1.0" ?>
<svg height="140" width="140" xmlns="http://www.w3.org/2000/svg">
  <path d="M 31.374134063720703, 40.02854251861572 Q 24.489041087072785, 40.12163477870749, 23.942144126796563, 46.809180523232385 " fill="none" id="curve_1" stroke="#000000" stroke-linecap="round" stroke-linejoin="round" stroke-width="3.8434773638585518"/>
  <path d="M 23.942144126796563, 46.809180523232385 Q 23.302877999150184, 57.047039394750996, 17.27271742986941, 62.0015269506415 " fill="none" id="curve_1" stroke="#000000" stroke-linecap="round" stroke-linejoin="round" stroke-width="3.474921328090854"/>
  <path d="M 17.27271742986941, 62.0015269506415 Q 13.169391436564492, 70.42483357735594, 8.780563270777407, 83.01938692936474 " fill="none" id="curve_1" stroke="#000000" stroke-linecap="round" stroke-linejoin="round" stroke-width="5.755029515829703"/>
  <path d="M 8.780563270777407, 83.01938692936474 Q 9.61764216171992, 95.30440957778622, 16.117162660793692, 97.25296438308035 " fill="none" id="curve_1" stroke="#000000" stroke-linecap="round" stroke-linejoin="round" stroke-width="5.1384217989286425"/>
  <path d="M 16.117162660793692, 97.25296438308035 Q 35.34376607339355, 95.89182239711549, 43.82093068518404, 75.17905043362079 " fill="none" id="curve_1" stroke="#000000" stroke-linecap="round" stroke-linejoin="round" stroke-width="4.481605119134551"/>
  <path d="M 43.82093068518404, 75.17905043362079 Q 46.27278532525621, 71.27995589230804, 48.27943131058283, 64.76845724229878 " fill="none" id="curve_1" stroke="#000000" stroke-linecap="round" stroke-linejoin="round" stroke-width="4.405738097156862"/>
  <path d="M 48.27943131058283, 64.76845724229878 Q 47.852923464020165, 44.02583599082263, 32.624420694021126, 40.48015252882949 " fill="none" id="curve_1" stroke="#000000" stroke-linecap="round" stroke-linejoin="round" stroke-width="3.989369728638982"/>
  <path d="M 32.624420694021126, 40.48015252882949 Q 31.421507436363893, 39.79801353038431, 25.886832040425908, 39.53488541960472 " fill="none" id="curve_1" stroke="#000000" stroke-linecap="round" stroke-linejoin="round" stroke-width="2.9087752992751645"/>
  <path d="M 14.538695529287613, 65.08537759818307 Q 12.710026171095782, 70.25856133581608, 9.940576920089612, 76.44191565694958 " fill="none" id="curve_2" stroke="#000000" stroke-linecap="round" stroke-linejoin="round" stroke-width="2.660641917308021"/>
  <path d="M 30.39401487625541, 92.2428291868642 Q 24.874641971509387, 93.67338097391864, 20.54671219937891, 96.99942448228767 " fill="none" id="curve_3" stroke="#000000" stroke-linecap="round" stroke-linejoin="round" stroke-width="3.2393175975466635"/>
  <path d="M 20.54671219937891, 96.99942448228767 Q 31.269605063606445, 94.63428474057717, 36.38676313822435, 85.17182867350587 " fill="none" id="curve_3" stroke="#000000" stroke-linecap="round" stroke-linejoin="round" stroke-width="2.795460324916796"/>
  <path d="M 86.33014201919747, 62.66576841966632 Q 88.63313279315737, 63.22462507788805, 88.82817471548924, 97.00248866236424 " fill="none" id="curve_4" stroke="#000000" stroke-linecap="round" stroke-linejoin="round" stroke-width="4.527803259987947"/>
  <path d="M 88.82817471548924, 97.00248866236424 Q 88.48447749229774, 100.79632731138372, 87.90537276578014, 128.5849605203687 " fill="none" id="curve_4" stroke="#000000" stroke-linecap="round" stroke-linejoin="round" stroke-width="4.43777182338322"/>
  <path d="M 87.90537276578014, 128.5849605203687 Q 87.84293977666186, 132.5937339211516, 87.76857506168923, 137.9893646907085 " fill="none" id="curve_4" stroke="#000000" stroke-linecap="round" stroke-linejoin="round" stroke-width="4.406889641998743"/>
  <path d="M 87.76857506168923, 137.9893646907085 Q 86.92957871609812, 138.1308995877225, 85.52606316677411, 138.25124289923903 " fill="none" id="curve_4" stroke="#000000" stroke-linecap="round" stroke-linejoin="round" stroke-width="2.272621949614761"/>
  <path d="M 87.71402212861429, 95.25048391481616 Q 87.64738882412644, 89.15085357074148, 87.54781391585126, 78.63672495028285 " fill="none" id="curve_6" stroke="#000000" stroke-linecap="round" stroke-linejoin="round" stroke-width="2.4182315683433395"/>
  <path d="M 87.54781391585126, 78.63672495028285 Q 88.39955860611423, 75.90811232194548, 88.79440438489212, 66.73083614469066 " fill="none" id="curve_6" stroke="#000000" stroke-linecap="round" stroke-linejoin="round" stroke-width="3.2456899792312752"/>
  <path d="M 88.79440438489212, 66.73083614469066 Q 88.682201549388, 57.534937379863806, 88.27304785424349, 43.90847171519833 " fill="none" id="curve_6" stroke="#000000" stroke-linecap="round" stroke-linejoin="round" stroke-width="4.422389593018423"/>
  <path d="M 88.27304785424349, 43.90847171519833 Q 88.4542684880637, 37.61893015289817, 88.8082659275902, 21.115999654626208 " fill="none" id="curve_6" stroke="#000000" stroke-linecap="round" stroke-linejoin="round" stroke-width="3.8000156838859014"/>
  <path d="M 88.8082659275902, 21.115999654626208 Q 88.75597305604683, 4.796165693622097, 87.93584265346419, 2.178872092004042 " fill="none" id="curve_6" stroke="#000000" stroke-linecap="round" stroke-linejoin="round" stroke-width="3.7986253140886914"/>
  <path d="M 87.93584265346419, 2.178872092004042 Q 87.494876739857, 2.2656057981216495, 86.96854814133751, 2.3765583716570666 " fill="none" id="curve_6" stroke="#000000" stroke-linecap="round" stroke-linejoin="round" stroke-width="3.406904751830897"/>
  <path d="M 89.24159396906657, 78.53396351720278 Q 88.89855935976743, 72.21519315930387, 88.00311944261614, 67.6197125123637 " fill="none" id="curve_9" stroke="#000000" stroke-linecap="round" stroke-linejoin="round" stroke-width="2.052381542406272"/>
  <path d="M 87.79948926998392, 54.00440605597974 Q 87.78386497415337, 57.71246585531554, 87.75234992937405, 61.298268409592986 " fill="none" id="curve_10" stroke="#000000" stroke-linecap="round" stroke-linejoin="round" stroke-width="2.4629379520406633"/>
  <path d="M 26.770007875084055, 48.58065584853149 Q 26.51971045850085, 44.431192039515224, 25.48597997817141, 41.856842812897845 " fill="none" id="curve_13" stroke="#000000" stroke-linecap="round" stroke-linejoin="round" stroke-width="2.242498357395248"/>
  <path d="M 19.587056893078078, 55.71184287469305 Q 18.12212887667033, 61.383538542478114, 14.350065834247708, 67.47484700384088 " fill="none" id="curve_14" stroke="#000000" stroke-linecap="round" stroke-linejoin="round" stroke-width="2.3405581073329462"/>
  <path d="M 8.907488220997488, 87.36347088348201 Q 9.030730418774798, 88.9632305197939, 9.23854431217143, 92.05979285937565 " fill="none" id="curve_16" stroke="#000000" stroke-linecap="round" stroke-linejoin="round" stroke-width="2.7424713514948973"/>
  <path d="M 9.940655366549112, 87.32414605262282 Q 9.444823862237023, 87.57648876642197, 8.793991382183606, 88.22170232080383 " fill="none" id="curve_24" stroke="#000000" stroke-linecap="round" stroke-linejoin="round" stroke-width="3.5257953096942627"/>
  <path d="M 32.34644864293523, 89.59425029643967 Q 28.02068802425672, 92.28272906970193, 21.189362131369293, 95.72145644348521 " fill="none" id="curve_39" stroke="#000000" stroke-linecap="round" stroke-linejoin="round" stroke-width="2.9062307411320987"/>
  <path d="M 7.468260152230743, 89.05635767581781 Q 9.228630852379975, 87.51291975086139, 11.488163517388966, 85.9144248294783 " fill="none" id="curve_40" stroke="#000000" stroke-linecap="round" stroke-linejoin="round" stroke-width="3.5970329457854517"/>
  <path d="M 43.84021603559439, 50.46067206640878 Q 45.46312918631211, 53.348159778108574, 47.5979070921844, 58.603126520425896 " fill="none" id="curve_56" stroke="#000000" stroke-linecap="round" stroke-linejoin="round" stroke-width="2.2440831127075542"/>
  <path d="M 44.39160338349916, 73.48009242879259 Q 41.559485124786505, 78.13202973471792, 37.659827341753555, 83.57457696265739 " fill="none" id="curve_86" stroke="#000000" stroke-linecap="round" stroke-linejoin="round" stroke-width="2.5869710289796317"/>
  <path d="M 13.419719587017632, 92.22894637513258 Q 14.197932810510938, 95.88035583049128, 22.423158456977802, 96.65412966822556 " fill="none" id="curve_88" stroke="#000000" stroke-linecap="round" stroke-linejoin="round" stroke-width="2.6498932033778653"/>
  <path d="M 87.43559316771919, 0.7661420307991555 Q 86.85642356165094, 1.2744603571533335, 85.25271240875581, 1.7523484041031963 " fill="none" id="curve_105" stroke="#000000" stroke-linecap="round" stroke-linejoin="round" stroke-width="1.8945700985272846"/>
  <path d="M 46.129147060568386, 65.31992615130797 Q 46.66386342020886, 64.69840380692433, 47.59043700586065, 63.58296442407165 " fill="none" id="curve_133" stroke="#000000" stroke-linecap="round" stroke-linejoin="round" stroke-width="1.9578700203354886"/>
</svg>
