<?xml version="1.0" ?>
<svg height="140" width="140" xmlns="http://www.w3.org/2000/svg">
  <path d="M 27.11012363433838, 97.76285171508789 Q 30.428347009331173, 97.8615508735749, 37.594233556611925, 98.0079350324545 " fill="none" id="curve_1" stroke="#000000" stroke-linecap="round" stroke-linejoin="round" stroke-width="6.312872991554331"/>
  <path d="M 37.594233556611925, 98.0079350324545 Q 44.23341067083096, 94.95969801889196, 49.54742952444627, 84.91562045865325 " fill="none" id="curve_1" stroke="#000000" stroke-linecap="round" stroke-linejoin="round" stroke-width="5.237402987381447"/>
  <path d="M 49.54742952444627, 84.91562045865325 Q 50.65471721304587, 81.6615524388083, 51.42912772450799, 75.21220899224522 " fill="none" id="curve_1" stroke="#000000" stroke-linecap="round" stroke-linejoin="round" stroke-width="5.0074319653967825"/>
  <path d="M 51.42912772450799, 75.21220899224522 Q 50.78081596310343, 62.503539663253, 44.60389349627864, 50.02309634113199 " fill="none" id="curve_1" stroke="#000000" stroke-linecap="round" stroke-linejoin="round" stroke-width="4.144080484554452"/>
  <path d="M 44.60389349627864, 50.02309634113199 Q 42.487562500869196, 41.733195983494646, 32.7103523430847, 36.36473957531636 " fill="none" id="curve_1" stroke="#000000" stroke-linecap="round" stroke-linejoin="round" stroke-width="4.632222238836096"/>
  <path d="M 32.7103523430847, 36.36473957531636 Q 26.04431717282566, 40.955273327604864, 17.09231896242197, 62.96841487480221 " fill="none" id="curve_1" stroke="#000000" stroke-linecap="round" stroke-linejoin="round" stroke-width="5.272492338238966"/>
  <path d="M 17.09231896242197, 62.96841487480221 Q 17.145086907722177, 91.55169928468034, 20.16401979375495, 94.49699904257602 " fill="none" id="curve_1" stroke="#000000" stroke-linecap="round" stroke-linejoin="round" stroke-width="5.964505700614191"/>
  <path d="M 20.16401979375495, 94.49699904257602 Q 21.049226746542004, 99.18316582167459, 31.218035863918494, 99.73628446178712 " fill="none" id="curve_1" stroke="#000000" stroke-linecap="round" stroke-linejoin="round" stroke-width="4.811616945351985"/>
  <path d="M 15.571164989876353, 81.08268050507284 Q 15.570125529243091, 72.36558973330979, 15.566835730543897, 67.74800793734178 " fill="none" id="curve_2" stroke="#000000" stroke-linecap="round" stroke-linejoin="round" stroke-width="2.999284048750202"/>
  <path d="M 35.13091217182018, 36.53259758991685 Q 34.529560970536835, 36.41789258736344, 33.79663020136627, 36.167426438753395 " fill="none" id="curve_3" stroke="#000000" stroke-linecap="round" stroke-linejoin="round" stroke-width="3.68689953636084"/>
  <path d="M 89.64710101380483, 7.818810330298694 Q 89.49126716866965, 16.917678696452434, 89.0488187076857, 28.74904747102827 " fill="none" id="curve_7" stroke="#000000" stroke-linecap="round" stroke-linejoin="round" stroke-width="2.2638698697144397"/>
  <path d="M 89.0488187076857, 28.74904747102827 Q 89.2017981573551, 34.50043631946091, 89.52691983972274, 63.52509902519887 " fill="none" id="curve_7" stroke="#000000" stroke-linecap="round" stroke-linejoin="round" stroke-width="2.2159388341490907"/>
  <path d="M 89.52691983972274, 63.52509902519887 Q 89.40485613666115, 67.9090556297385, 89.19321792417752, 90.72943203945121 " fill="none" id="curve_7" stroke="#000000" stroke-linecap="round" stroke-linejoin="round" stroke-width="2.3434322016128792"/>
  <path d="M 89.19321792417752, 90.72943203945121 Q 89.21226077305467, 98.82170427062623, 89.318887992883, 115.4611670512546 " fill="none" id="curve_7" stroke="#000000" stroke-linecap="round" stroke-linejoin="round" stroke-width="2.4958280582176338"/>
  <path d="M 89.318887992883, 115.4611670512546 Q 89.25259265088604, 119.33944642213278, 89.11531585783118, 138.03387792427728 " fill="none" id="curve_7" stroke="#000000" stroke-linecap="round" stroke-linejoin="round" stroke-width="2.4149680385434866"/>
  <path d="M 89.11531585783118, 138.03387792427728 Q 89.0821654035966, 138.61065195981254, 88.99705231514908, 138.99460218068205 " fill="none" id="curve_7" stroke="#000000" stroke-linecap="round" stroke-linejoin="round" stroke-width="2.2475747770281145"/>
  <path d="M 17.357641834243296, 64.23699838122931 Q 17.573677268826614, 58.16622799627062, 19.681526125272274, 56.64046342147018 " fill="none" id="curve_18" stroke="#000000" stroke-linecap="round" stroke-linejoin="round" stroke-width="3.6225553511273256"/>
  <path d="M 21.999698632387307, 48.69255275203058 Q 24.69451616480677, 40.24504829795091, 36.967309495665944, 36.047558008341525 " fill="none" id="curve_20" stroke="#000000" stroke-linecap="round" stroke-linejoin="round" stroke-width="3.340124482866896"/>
  <path d="M 30.97939266157052, 38.76501259382114 Q 34.10366999599521, 39.93297236370838, 38.5382029377553, 41.331662868519054 " fill="none" id="curve_21" stroke="#000000" stroke-linecap="round" stroke-linejoin="round" stroke-width="2.87679500275781"/>
  <path d="M 18.027656929788893, 60.03587260987668 Q 17.71456517745774, 61.31306418715897, 17.249792051223732, 63.25141723870334 " fill="none" id="curve_22" stroke="#000000" stroke-linecap="round" stroke-linejoin="round" stroke-width="5.367125945640151"/>
  <path d="M 17.249792051223732, 63.25141723870334 Q 18.44741474115492, 61.09057360970974, 20.021782364183135, 56.55476425811256 " fill="none" id="curve_22" stroke="#000000" stroke-linecap="round" stroke-linejoin="round" stroke-width="3.3628603238019874"/>
  <path d="M 16.7343203376161, 90.53026263721588 Q 16.524208091109646, 87.19883751378954, 15.980087300268902, 84.04030673647149 " fill="none" id="curve_24" stroke="#000000" stroke-linecap="round" stroke-linejoin="round" stroke-width="3.14708797807624"/>
  <path d="M 15.858583136566882, 63.03782187279535 Q 15.93253799248273, 60.06098158052826, 18.213378595482677, 59.75461390385911 " fill="none" id="curve_27" stroke="#000000" stroke-linecap="round" stroke-linejoin="round" stroke-width="4.476685546411846"/>
  <path d="M 18.213378595482677, 59.75461390385911 Q 17.13995366845263, 60.41450057831801, 16.189200987876042, 62.07430117899987 " fill="none" id="curve_27" stroke="#000000" stroke-linecap="round" stroke-linejoin="round" stroke-width="4.07678830504988"/>
  <path d="M 28.329350512778642, 38.81644359952405 Q 29.245616133642837, 37.61754251241201, 31.189487386316163, 36.5392423612953 " fill="none" id="curve_28" stroke="#000000" stroke-linecap="round" stroke-linejoin="round" stroke-width="2.886655301633589"/>
  <path d="M 35.39716604069254, 99.61128733695406 Q 33.8035246559797, 99.72000451888675, 31.549459020816613, 99.87519474571214 " fill="none" id="curve_30" stroke="#000000" stroke-linecap="round" stroke-linejoin="round" stroke-width="3.4197029614273764"/>
  <path d="M 88.32715974817528, 2.168289927379199 Q 88.87919047089564, 2.9908045511072454, 89.1657148764792, 6.241933565531379 " fill="none" id="curve_45" stroke="#000000" stroke-linecap="round" stroke-linejoin="round" stroke-width="3.2574080393661493"/>
  <path d="M 88.8485394987029, 3.0643228663963065 Q 88.76017853430729, 2.523498450992837, 88.5392444881388, 1.9699062452465352 " fill="none" id="curve_47" stroke="#000000" stroke-linecap="round" stroke-linejoin="round" stroke-width="2.326814714628462"/>
  <path d="M 47.328585070038955, 52.992062591225974 Q 46.28746593674999, 49.2836907722122, 42.29839403239677, 45.706028982534875 " fill="none" id="curve_57" stroke="#000000" stroke-linecap="round" stroke-linejoin="round" stroke-width="2.106164684947507"/>
  <path d="M 17.938710606457065, 62.04708623135818 Q 19.78082943103539, 57.21794004267774, 22.524755588499687, 50.48129080725313 " fill="none" id="curve_64" stroke="#000000" stroke-linecap="round" stroke-linejoin="round" stroke-width="2.4862475096953576"/>
  <path d="M 22.524755588499687, 50.48129080725313 Q 20.640293181158516, 57.750954688414154, 17.357198280487157, 68.39617785046845 " fill="none" id="curve_64" stroke="#000000" stroke-linecap="round" stroke-linejoin="round" stroke-width="2.5470406926305778"/>
  <path d="M 51.20364508777746, 75.98603582960918 Q 50.23729295269916, 78.27166114438705, 49.03392471199119, 82.92554241842846 " fill="none" id="curve_70" stroke="#000000" stroke-linecap="round" stroke-linejoin="round" stroke-width="2.8497203071087767"/>
  <path d="M 49.962629344176776, 75.99270234572248 Q 49.75117348440529, 76.00389501748515, 49.51424750130353, 76.02052355567666 " fill="none" id="curve_85" stroke="#000000" stroke-linecap="round" stroke-linejoin="round" stroke-width="3.832886406778928"/>
  <path d="M 22.823587016309865, 94.81742655048048 Q 24.36185869044173, 97.77514967209349, 31.53239848006659, 99.07530472462368 " fill="none" id="curve_107" stroke="#000000" stroke-linecap="round" stroke-linejoin="round" stroke-width="2.210670553485684"/>
  <path d="M 47.7201676853976, 65.96264928009703 Q 48.377028862755324, 65.37012792261035, 49.63469304587397, 64.53665710886835 " fill="none" id="curve_174" stroke="#000000" stroke-linecap="round" stroke-linejoin="round" stroke-width="2.228701012336597"/>
</svg>
