<?xml version="1.0" ?>
<svg height="140" width="140" xmlns="http://www.w3.org/2000/svg">
  <path d="M 51.386559402581724, 47.597604060983485 Q 49.13324284590531, 50.23954502145847, 45.0454946535122, 52.84143496914493 " fill="none" id="curve_2" stroke="#000000" stroke-linecap="round" stroke-linejoin="round" stroke-width="3.0223318889724395"/>
  <path d="M 45.6510559582857, 45.584013192636014 Q 30.788518536404695, 45.762600193207874, 28.082365597998983, 51.04207417473225 " fill="none" id="curve_3" stroke="#000000" stroke-linecap="round" stroke-linejoin="round" stroke-width="5.136002612244855"/>
  <path d="M 28.082365597998983, 51.04207417473225 Q 19.56761712650094, 54.08216340963298, 9.565108963446086, 70.7766788346933 " fill="none" id="curve_3" stroke="#000000" stroke-linecap="round" stroke-linejoin="round" stroke-width="5.421029787376489"/>
  <path d="M 9.565108963446086, 70.7766788346933 Q 7.0723683945011615, 77.19051198342646, 5.461538506628707, 87.91631824695199 " fill="none" id="curve_3" stroke="#000000" stroke-linecap="round" stroke-linejoin="round" stroke-width="5.223141782772542"/>
  <path d="M 5.461538506628707, 87.91631824695199 Q 6.805415843039159, 110.05422856591758, 30.453649369524797, 114.3202922176557 " fill="none" id="curve_3" stroke="#000000" stroke-linecap="round" stroke-linejoin="round" stroke-width="5.008153484188545"/>
  <path d="M 30.453649369524797, 114.3202922176557 Q 57.3711348341476, 113.84279289518649, 65.96097890635882, 102.51284846297425 " fill="none" id="curve_3" stroke="#000000" stroke-linecap="round" stroke-linejoin="round" stroke-width="4.08454717090619"/>
  <path d="M 65.96097890635882, 102.51284846297425 Q 71.23454992085564, 99.79772228555932, 73.05895906393627, 87.3474928257177 " fill="none" id="curve_3" stroke="#000000" stroke-linecap="round" stroke-linejoin="round" stroke-width="4.523358361551036"/>
  <path d="M 73.05895906393627, 87.3474928257177 Q 72.43863250923702, 66.93057604832875, 62.530076176426974, 55.910314559752905 " fill="none" id="curve_3" stroke="#000000" stroke-linecap="round" stroke-linejoin="round" stroke-width="3.9806188130659548"/>
  <path d="M 62.530076176426974, 55.910314559752905 Q 59.85430370516317, 51.795807259172115, 53.64187025781909, 48.52689937397638 " fill="none" id="curve_3" stroke="#000000" stroke-linecap="round" stroke-linejoin="round" stroke-width="3.6668979172121134"/>
  <path d="M 53.64187025781909, 48.52689937397638 Q 54.48898599367493, 52.300289906186926, 54.88106951422966, 61.67862759894693 " fill="none" id="curve_3" stroke="#000000" stroke-linecap="round" stroke-linejoin="round" stroke-width="3.6528363283340295"/>
  <path d="M 48.43629679067212, 47.418509026384754 Q 48.49885060632843, 47.35367978355415, 48.53725531246822, 47.19799377505927 " fill="none" id="curve_4" stroke="#000000" stroke-linecap="round" stroke-linejoin="round" stroke-width="6.025585913387132"/>
  <path d="M 18.89136059582737, 56.89078360450145 Q 12.674110561229526, 60.88562424854898, 7.97976463474248, 71.29225085572277 " fill="none" id="curve_6" stroke="#000000" stroke-linecap="round" stroke-linejoin="round" stroke-width="2.7971299446938485"/>
  <path d="M 4.836066051909988, 93.8148719508994 Q 7.371043944876633, 104.39430233106133, 13.426479857517464, 108.63886357874361 " fill="none" id="curve_7" stroke="#000000" stroke-linecap="round" stroke-linejoin="round" stroke-width="2.3465187738341844"/>
  <path d="M 35.1708400887303, 112.8867590736451 Q 35.13807488675403, 112.80414508525119, 35.09513330203841, 112.71366732108429 " fill="none" id="curve_8" stroke="#000000" stroke-linecap="round" stroke-linejoin="round" stroke-width="4.265716297006994"/>
  <path d="M 72.27017410829728, 86.12879264838577 Q 72.57273327474964, 85.16218102461703, 72.78899494145953, 82.81764612391898 " fill="none" id="curve_9" stroke="#000000" stroke-linecap="round" stroke-linejoin="round" stroke-width="6.37145861756983"/>
  <path d="M 51.68438866069812, 51.061556811180026 Q 52.03600702685803, 50.47744504272452, 52.6781348979187, 49.49748975046239 " fill="none" id="curve_24" stroke="#000000" stroke-linecap="round" stroke-linejoin="round" stroke-width="3.3329376916232683"/>
  <path d="M 70.02255804695301, 68.82115607154307 Q 67.78338378571762, 64.20450282655293, 63.24555558274736, 57.8554094081392 " fill="none" id="curve_52" stroke="#000000" stroke-linecap="round" stroke-linejoin="round" stroke-width="2.1770583641486625"/>
  <path d="M 66.79576356385707, 104.53710952851293 Q 67.26561779063154, 96.62531157262228, 70.96837663640365, 93.96851837647837 " fill="none" id="curve_132" stroke="#000000" stroke-linecap="round" stroke-linejoin="round" stroke-width="2.694132503698697"/>
</svg>
