<?xml version="1.0" ?>
<svg height="140" width="140" xmlns="http://www.w3.org/2000/svg">
  <path d="M 88.54423054511285, 138.12552917646832 Q 88.33902438228314, 135.28136058824862, 88.1955925732631, 115.91531689187104 " fill="none" id="curve_2" stroke="#000000" stroke-linecap="round" stroke-linejoin="round" stroke-width="4.027718939702546"/>
  <path d="M 88.1955925732631, 115.91531689187104 Q 88.30652853585879, 113.62164489766337, 88.37751385459607, 90.66184045646708 " fill="none" id="curve_2" stroke="#000000" stroke-linecap="round" stroke-linejoin="round" stroke-width="4.463614459889582"/>
  <path d="M 88.37751385459607, 90.66184045646708 Q 88.35900410524216, 83.59919057224667, 88.31349803957148, 64.20886292044507 " fill="none" id="curve_2" stroke="#000000" stroke-linecap="round" stroke-linejoin="round" stroke-width="4.20608370470158"/>
  <path d="M 88.31349803957148, 64.20886292044507 Q 88.33706483801726, 60.368455890130335, 88.3635061966122, 36.30994761254466 " fill="none" id="curve_2" stroke="#000000" stroke-linecap="round" stroke-linejoin="round" stroke-width="4.289834459293317"/>
  <path d="M 88.3635061966122, 36.30994761254466 Q 88.36462294301019, 31.150318101799705, 88.36636209736061, 7.62990057513926 " fill="none" id="curve_2" stroke="#000000" stroke-linecap="round" stroke-linejoin="round" stroke-width="4.215836270080384"/>
  <path d="M 88.36636209736061, 7.62990057513926 Q 88.41120214371577, 4.0025921981660115, 88.55204014692355, 2.6750441583361315 " fill="none" id="curve_2" stroke="#000000" stroke-linecap="round" stroke-linejoin="round" stroke-width="5.142501138505341"/>
  <path d="M 88.55204014692355, 2.6750441583361315 Q 88.68655561222417, 2.3117148724937513, 88.93162615483722, 1.8502820982861814 " fill="none" id="curve_2" stroke="#000000" stroke-linecap="round" stroke-linejoin="round" stroke-width="2.5486903473522107"/>
  <path d="M 42.3818305945111, 42.664706891306096 Q 48.99949061578826, 50.69354282825422, 54.42070682834688, 85.69271878400662 " fill="none" id="curve_3" stroke="#000000" stroke-linecap="round" stroke-linejoin="round" stroke-width="4.605127405707"/>
  <path d="M 54.42070682834688, 85.69271878400662 Q 54.21792206980799, 119.78701976968658, 36.4229965630136, 122.54031242307173 " fill="none" id="curve_3" stroke="#000000" stroke-linecap="round" stroke-linejoin="round" stroke-width="4.513310227420402"/>
  <path d="M 36.4229965630136, 122.54031242307173 Q 16.974771925307827, 121.44887345586032, 11.693134175539768, 99.17427938457399 " fill="none" id="curve_3" stroke="#000000" stroke-linecap="round" stroke-linejoin="round" stroke-width="5.124526371640268"/>
  <path d="M 11.693134175539768, 99.17427938457399 Q 10.742397850668343, 95.26933815462043, 10.21619632876632, 83.15869394183635 " fill="none" id="curve_3" stroke="#000000" stroke-linecap="round" stroke-linejoin="round" stroke-width="6.086597271432374"/>
  <path d="M 10.21619632876632, 83.15869394183635 Q 11.336432697523817, 65.97546456788801, 16.797212447109807, 49.037278996268476 " fill="none" id="curve_3" stroke="#000000" stroke-linecap="round" stroke-linejoin="round" stroke-width="4.70124621046545"/>
  <path d="M 16.797212447109807, 49.037278996268476 Q 18.432171681994983, 42.606784636185324, 23.488870328269087, 39.87017441744901 " fill="none" id="curve_3" stroke="#000000" stroke-linecap="round" stroke-linejoin="round" stroke-width="5.160117257193451"/>
  <path d="M 23.488870328269087, 39.87017441744901 Q 40.44798740079705, 39.937975284193286, 41.3175183825188, 44.49850083643881 " fill="none" id="curve_3" stroke="#000000" stroke-linecap="round" stroke-linejoin="round" stroke-width="3.6572273837579337"/>
  <path d="M 41.3175183825188, 44.49850083643881 Q 48.5388354175477, 52.286973353226735, 55.634720460154305, 76.42252889894556 " fill="none" id="curve_3" stroke="#000000" stroke-linecap="round" stroke-linejoin="round" stroke-width="3.483330410820687"/>
  <path d="M 55.634720460154305, 76.42252889894556 Q 54.682958051289525, 82.62068012560607, 53.863020385049225, 98.5504810003913 " fill="none" id="curve_3" stroke="#000000" stroke-linecap="round" stroke-linejoin="round" stroke-width="2.8186877955871097"/>
  <path d="M 53.863020385049225, 98.5504810003913 Q 53.93792799933031, 102.45600488295071, 54.06152624973425, 107.49843984857775 " fill="none" id="curve_3" stroke="#000000" stroke-linecap="round" stroke-linejoin="round" stroke-width="3.605306474841373"/>
  <path d="M 45.210541070304046, 53.57748714307796 Q 42.68569801640247, 46.58255455902103, 37.666306273187686, 38.25980202076002 " fill="none" id="curve_5" stroke="#000000" stroke-linecap="round" stroke-linejoin="round" stroke-width="2.9307306162621303"/>
  <path d="M 19.60970520035807, 40.26860766334807 Q 18.13176967426228, 42.59595176594624, 16.65960941778707, 45.670798503367635 " fill="none" id="curve_6" stroke="#000000" stroke-linecap="round" stroke-linejoin="round" stroke-width="4.544797486229033"/>
  <path d="M 16.65960941778707, 45.670798503367635 Q 20.587623102906967, 45.18340159240755, 21.613443638000266, 42.4362177586239 " fill="none" id="curve_6" stroke="#000000" stroke-linecap="round" stroke-linejoin="round" stroke-width="3.8408951346087044"/>
  <path d="M 13.460631156936875, 54.75273266198889 Q 12.5054874246479, 60.91603032596467, 11.323501161649556, 74.85983513220701 " fill="none" id="curve_13" stroke="#000000" stroke-linecap="round" stroke-linejoin="round" stroke-width="2.2562243310917203"/>
  <path d="M 57.019529246900376, 90.14585750229267 Q 56.7812079190748, 94.46683948491919, 55.704039243041464, 96.49804782135858 " fill="none" id="curve_20" stroke="#000000" stroke-linecap="round" stroke-linejoin="round" stroke-width="4.345119778082176"/>
  <path d="M 49.872940562446296, 64.61281907322622 Q 49.602894031966834, 54.56523766909696, 47.56588377712195, 51.55915543090512 " fill="none" id="curve_21" stroke="#000000" stroke-linecap="round" stroke-linejoin="round" stroke-width="3.273723805889165"/>
  <path d="M 7.440290696173278, 90.615506054241 Q 8.710058297576042, 93.94169225713165, 10.794694900953328, 97.60266252119308 " fill="none" id="curve_22" stroke="#000000" stroke-linecap="round" stroke-linejoin="round" stroke-width="3.3438471905834644"/>
  <path d="M 31.246073650524984, 44.4841104689324 Q 30.58910891980131, 42.91621861979052, 28.893299648322085, 40.94164149193531 " fill="none" id="curve_26" stroke="#000000" stroke-linecap="round" stroke-linejoin="round" stroke-width="1.7688016958373034"/>
  <path d="M 53.93548163627452, 85.09084962229781 Q 53.52778352554167, 86.45250435719696, 53.193167848085935, 90.71948203962778 " fill="none" id="curve_41" stroke="#000000" stroke-linecap="round" stroke-linejoin="round" stroke-width="2.440780563490591"/>
  <path d="M 53.193167848085935, 90.71948203962778 Q 53.23083921730154, 87.92505017332118, 53.274130334775734, 81.53668711847921 " fill="none" id="curve_41" stroke="#000000" stroke-linecap="round" stroke-linejoin="round" stroke-width="2.262125376806233"/>
  <path d="M 12.44522099943179, 57.31241026612365 Q 12.531957192380954, 59.062738621000605, 12.726692163393881, 62.426877962110765 " fill="none" id="curve_47" stroke="#000000" stroke-linecap="round" stroke-linejoin="round" stroke-width="2.350140343035776"/>
  <path d="M 35.17589638186042, 38.11822455974574 Q 36.14580682493321, 38.56910735890824, 37.171745578488526, 39.67197495765107 " fill="none" id="curve_55" stroke="#000000" stroke-linecap="round" stroke-linejoin="round" stroke-width="3.2695460096296114"/>
  <path d="M 24.960247039794922, 118.01456260681152 Q 22.6946665670913, 115.3714430745412, 17.28459947499095, 111.24295396383604 " fill="none" id="curve_95" stroke="#000000" stroke-linecap="round" stroke-linejoin="round" stroke-width="3.007467736937493"/>
  <path d="M 11.53077486254098, 99.97108147282232 Q 13.561465759729803, 107.27641129541284, 18.893338625506498, 113.58818503661615 " fill="none" id="curve_96" stroke="#000000" stroke-linecap="round" stroke-linejoin="round" stroke-width="1.9695656157604287"/>
  <path d="M 88.06203583270177, 139.43822793545388 Q 87.76644265918927, 138.90144496084577, 87.20921958565748, 138.18334438045417 " fill="none" id="curve_113" stroke="#000000" stroke-linecap="round" stroke-linejoin="round" stroke-width="2.771499264545217"/>
  <path d="M 47.930878200900636, 114.930874118183 Q 50.72147824343385, 112.23690568456334, 53.43349392915307, 107.94358659462173 " fill="none" id="curve_115" stroke="#000000" stroke-linecap="round" stroke-linejoin="round" stroke-width="2.4338537766532853"/>
  <path d="M 10.698359540967697, 59.938457573787176 Q 11.51445028374255, 60.54130702358552, 12.212366611906177, 62.869845688694355 " fill="none" id="curve_139" stroke="#000000" stroke-linecap="round" stroke-linejoin="round" stroke-width="2.1733760910670297"/>
  <path d="M 49.25829341069757, 60.49294799024824 Q 48.18359430788111, 58.64595040986758, 46.65486495988246, 56.22910991019057 " fill="none" id="curve_180" stroke="#000000" stroke-linecap="round" stroke-linejoin="round" stroke-width="3.829684092408588"/>
</svg>
