<?xml version="1.0" ?>
<svg height="140" width="140" xmlns="http://www.w3.org/2000/svg">
  <path d="M 45.37776184082031, 91.18358045816422 Q 44.59328320923065, 95.26318794728725, 34.91918691432579, 95.94615380322796 " fill="none" id="curve_1" stroke="#000000" stroke-linecap="round" stroke-linejoin="round" stroke-width="6.888519425430639"/>
  <path d="M 34.91918691432579, 95.94615380322796 Q 28.585997879683237, 95.34868828572746, 26.992968486796485, 90.95140207301273 " fill="none" id="curve_1" stroke="#000000" stroke-linecap="round" stroke-linejoin="round" stroke-width="6.259408359830457"/>
  <path d="M 26.992968486796485, 90.95140207301273 Q 27.293616033141976, 74.54654517057395, 30.562178056213217, 67.27701009144572 " fill="none" id="curve_1" stroke="#000000" stroke-linecap="round" stroke-linejoin="round" stroke-width="5.920634720252844"/>
  <path d="M 30.562178056213217, 67.27701009144572 Q 32.96100835983009, 54.420429176512904, 50.97239977797973, 47.83366071547812 " fill="none" id="curve_1" stroke="#000000" stroke-linecap="round" stroke-linejoin="round" stroke-width="3.5364519495353335"/>
  <path d="M 50.97239977797973, 47.83366071547812 Q 58.6485255876524, 48.83933879283165, 59.7335798833918, 57.28579057702705 " fill="none" id="curve_1" stroke="#000000" stroke-linecap="round" stroke-linejoin="round" stroke-width="5.64024208705493"/>
  <path d="M 59.7335798833918, 57.28579057702705 Q 58.63392385207375, 80.32175102122451, 45.206193627332745, 93.46279689984834 " fill="none" id="curve_1" stroke="#000000" stroke-linecap="round" stroke-linejoin="round" stroke-width="4.541253506450432"/>
  <path d="M 45.206193627332745, 93.46279689984834 Q 50.86662772325979, 85.76521260329733, 57.566719149106866, 72.3524432648307 " fill="none" id="curve_1" stroke="#000000" stroke-linecap="round" stroke-linejoin="round" stroke-width="3.4763315363539617"/>
  <path d="M 52.477949167838624, 48.01576918134843 Q 48.99939859208436, 49.46332802904575, 41.87212087635521, 50.80724311505526 " fill="none" id="curve_2" stroke="#000000" stroke-linecap="round" stroke-linejoin="round" stroke-width="2.8219498634944293"/>
  <path d="M 56.39271744140016, 48.8183310106162 Q 57.39776676066662, 50.985050918242315, 58.010600460157434, 59.296883209915194 " fill="none" id="curve_3" stroke="#000000" stroke-linecap="round" stroke-linejoin="round" stroke-width="3.4162347965219224"/>
  <path d="M 53.110294342041016, 49.293819189071655 Q 53.29189616694208, 51.70827274611643, 56.14803314918788, 52.04704608630518 " fill="none" id="curve_17" stroke="#000000" stroke-linecap="round" stroke-linejoin="round" stroke-width="4.537389696235937"/>
  <path d="M 53.01360767066072, 47.54964159196719 Q 45.84693906285227, 47.941057913376646, 43.120485145613, 50.12620018337951 " fill="none" id="curve_18" stroke="#000000" stroke-linecap="round" stroke-linejoin="round" stroke-width="2.3912656317034946"/>
  <path d="M 25.356514225467638, 76.99165665403225 Q 25.956429943471218, 84.46917409401708, 28.288021974656957, 89.3207994437951 " fill="none" id="curve_19" stroke="#000000" stroke-linecap="round" stroke-linejoin="round" stroke-width="2.6303923127654216"/>
  <path d="M 41.477909846723804, 93.69924552169982 Q 43.505423671219766, 92.68813135270206, 46.45403968947834, 91.78445001508207 " fill="none" id="curve_20" stroke="#000000" stroke-linecap="round" stroke-linejoin="round" stroke-width="3.7877749845620112"/>
</svg>
