<?xml version="1.0" ?>
<svg height="140" width="140" xmlns="http://www.w3.org/2000/svg">
  <path d="M 88.4044757483755, 1.8917057004236302 Q 89.10721929794164, 2.947772680615997, 89.20707554976764, 27.6384739238242 " fill="none" id="curve_2" stroke="#000000" stroke-linecap="round" stroke-linejoin="round" stroke-width="2.187231640398327"/>
  <path d="M 89.20707554976764, 27.6384739238242 Q 89.27337507996391, 36.26238495419449, 89.54994504766574, 60.18346502506618 " fill="none" id="curve_2" stroke="#000000" stroke-linecap="round" stroke-linejoin="round" stroke-width="2.1278642487792525"/>
  <path d="M 89.54994504766574, 60.18346502506618 Q 89.42515331925122, 65.31879468575531, 89.17177861068625, 89.96935475738456 " fill="none" id="curve_2" stroke="#000000" stroke-linecap="round" stroke-linejoin="round" stroke-width="2.3863865112440545"/>
  <path d="M 89.17177861068625, 89.96935475738456 Q 89.21617339027465, 98.25918370902116, 89.41391228793007, 118.87606074039695 " fill="none" id="curve_2" stroke="#000000" stroke-linecap="round" stroke-linejoin="round" stroke-width="2.4459668089368463"/>
  <path d="M 89.41391228793007, 118.87606074039695 Q 89.35665391003545, 133.5002523045515, 89.12793846928287, 138.7196659625085 " fill="none" id="curve_2" stroke="#000000" stroke-linecap="round" stroke-linejoin="round" stroke-width="2.409121631274043"/>
  <path d="M 89.12793846928287, 138.7196659625085 Q 89.1219774505037, 138.7966176858838, 89.10913719481823, 138.86055488973497 " fill="none" id="curve_2" stroke="#000000" stroke-linecap="round" stroke-linejoin="round" stroke-width="2.018531282571916"/>
  <path d="M 47.82599720843891, 88.61113341020038 Q 46.40228118621143, 97.61766225624574, 33.581160648961664, 100.4135291911708 " fill="none" id="curve_7" stroke="#000000" stroke-linecap="round" stroke-linejoin="round" stroke-width="4.244293697099"/>
  <path d="M 33.581160648961664, 100.4135291911708 Q 20.70607913477346, 100.25941151646053, 19.83246952149359, 92.09654042696917 " fill="none" id="curve_7" stroke="#000000" stroke-linecap="round" stroke-linejoin="round" stroke-width="6.5590514518516265"/>
  <path d="M 19.83246952149359, 92.09654042696917 Q 20.562567486099724, 77.58278718803155, 29.5403833608515, 72.65775346765652 " fill="none" id="curve_7" stroke="#000000" stroke-linecap="round" stroke-linejoin="round" stroke-width="6.748957003007169"/>
  <path d="M 29.5403833608515, 72.65775346765652 Q 47.646580556401204, 73.01688119755569, 49.014146471345484, 86.8411153698894 " fill="none" id="curve_7" stroke="#000000" stroke-linecap="round" stroke-linejoin="round" stroke-width="4.4125099341562715"/>
  <path d="M 49.014146471345484, 86.8411153698894 Q 45.67708283172108, 90.442211352676, 43.25735221967088, 97.55038104442283 " fill="none" id="curve_7" stroke="#000000" stroke-linecap="round" stroke-linejoin="round" stroke-width="2.8060805290987685"/>
  <path d="M 31.552632467084745, 69.51872245384526 Q 28.648676525623134, 73.41959441670338, 24.999180820673217, 79.93419231327023 " fill="none" id="curve_9" stroke="#000000" stroke-linecap="round" stroke-linejoin="round" stroke-width="4.377678181995327"/>
  <path d="M 36.47905115130968, 98.978679576444 Q 30.71490157891335, 99.11629538251556, 26.519598747820815, 99.48754716443955 " fill="none" id="curve_10" stroke="#000000" stroke-linecap="round" stroke-linejoin="round" stroke-width="3.7693924407895376"/>
  <path d="M 25.561456798596197, 100.94156568111356 Q 26.298781042774515, 100.25657148884717, 28.184384588131856, 99.4876533066349 " fill="none" id="curve_12" stroke="#000000" stroke-linecap="round" stroke-linejoin="round" stroke-width="3.6956188819869555"/>
  <path d="M 47.21339831493623, 84.19397103514206 Q 47.33676294061181, 85.09375097314344, 47.50174836768486, 87.08465229052834 " fill="none" id="curve_18" stroke="#000000" stroke-linecap="round" stroke-linejoin="round" stroke-width="3.590110143901977"/>
  <path d="M 38.33616498809065, 98.60849839657068 Q 36.311179798602026, 98.68591462447834, 33.23639854052625, 98.8438588926202 " fill="none" id="curve_19" stroke="#000000" stroke-linecap="round" stroke-linejoin="round" stroke-width="3.2460707920326684"/>
  <path d="M 27.052768844946364, 74.10857537770457 Q 27.398169529579917, 76.52871045281384, 28.745241657079596, 77.7241269734633 " fill="none" id="curve_22" stroke="#000000" stroke-linecap="round" stroke-linejoin="round" stroke-width="5.5399001108477774"/>
  <path d="M 38.34221487028446, 99.83233480044852 Q 36.009352730351466, 99.45423018123523, 31.810129083686874, 98.87072526977187 " fill="none" id="curve_25" stroke="#000000" stroke-linecap="round" stroke-linejoin="round" stroke-width="3.783891573267537"/>
  <path d="M 46.245867230448084, 84.81723216068275 Q 46.127270707684524, 83.71796321259063, 45.22939980752017, 83.08339082927858 " fill="none" id="curve_32" stroke="#000000" stroke-linecap="round" stroke-linejoin="round" stroke-width="1.9272570244310345"/>
  <path d="M 21.38737943479585, 94.6645674270787 Q 23.417025522044394, 97.1737010740515, 27.670260437236383, 98.77416105952811 " fill="none" id="curve_34" stroke="#000000" stroke-linecap="round" stroke-linejoin="round" stroke-width="3.0517730693856073"/>
  <path d="M 39.190178821863185, 97.78679536008987 Q 36.970999856740804, 98.47705334585127, 33.499720450623464, 99.45886284726508 " fill="none" id="curve_35" stroke="#000000" stroke-linecap="round" stroke-linejoin="round" stroke-width="2.883337653683044"/>
  <path d="M 28.449451297114365, 69.5774235233996 Q 25.29502107104559, 73.77015868340719, 21.186025707542356, 81.40458435190148 " fill="none" id="curve_50" stroke="#000000" stroke-linecap="round" stroke-linejoin="round" stroke-width="2.731216729017643"/>
  <path d="M 25.222093719971166, 96.81829708839585 Q 22.885360219823227, 95.08609708051547, 18.769314511397262, 93.24496476732216 " fill="none" id="curve_51" stroke="#000000" stroke-linecap="round" stroke-linejoin="round" stroke-width="2.4239549095949497"/>
  <path d="M 89.87545776367188, 1.5649185180664062 Q 89.16113631042913, 1.9675831560187036, 87.36302138089766, 2.382482193981261 " fill="none" id="curve_91" stroke="#000000" stroke-linecap="round" stroke-linejoin="round" stroke-width="2.766578376136922"/>
  <path d="M 88.04242659321358, 2.475619351273828 Q 88.20921400822337, 2.1871094951991075, 88.55702525056667, 1.7455938954340753 " fill="none" id="curve_101" stroke="#000000" stroke-linecap="round" stroke-linejoin="round" stroke-width="2.3188396039340162"/>
</svg>
