<?xml version="1.0" ?>
<svg height="140" width="140" xmlns="http://www.w3.org/2000/svg">
  <path d="M 57.555694580078125, 35.69259834289551 Q 56.31378213308711, 36.32881747718756, 40.402545767433935, 36.599201054039625 " fill="none" id="curve_1" stroke="#000000" stroke-linecap="round" stroke-linejoin="round" stroke-width="7.810405863721596"/>
  <path d="M 40.402545767433935, 36.599201054039625 Q 28.49675722315329, 38.835798317021386, 21.91363641491958, 51.796443228208986 " fill="none" id="curve_1" stroke="#000000" stroke-linecap="round" stroke-linejoin="round" stroke-width="9.185012237792895"/>
  <path d="M 21.91363641491958, 51.796443228208986 Q 17.479671097798622, 60.10883721229758, 9.080744240292825, 86.23013118051571 " fill="none" id="curve_1" stroke="#000000" stroke-linecap="round" stroke-linejoin="round" stroke-width="7.136717037637128"/>
  <path d="M 9.080744240292825, 86.23013118051571 Q 12.712873810133711, 98.20804185402106, 21.360363737510657, 103.91536268804055 " fill="none" id="curve_1" stroke="#000000" stroke-linecap="round" stroke-linejoin="round" stroke-width="9.018898665510866"/>
  <path d="M 21.360363737510657, 103.91536268804055 Q 35.300056029462354, 98.32082899753357, 45.920556472240875, 88.29905900512388 " fill="none" id="curve_1" stroke="#000000" stroke-linecap="round" stroke-linejoin="round" stroke-width="6.73740214815305"/>
  <path d="M 45.920556472240875, 88.29905900512388 Q 52.81796444506513, 77.68118771115526, 60.08315804474884, 56.34730095415449 " fill="none" id="curve_1" stroke="#000000" stroke-linecap="round" stroke-linejoin="round" stroke-width="6.442889822564963"/>
  <path d="M 60.08315804474884, 56.34730095415449 Q 56.663400108476175, 54.819154839005066, 56.011594842534215, 37.5748489977296 " fill="none" id="curve_1" stroke="#000000" stroke-linecap="round" stroke-linejoin="round" stroke-width="9.948796560033179"/>
  <path d="M 56.011594842534215, 37.5748489977296 Q 55.60851854767159, 54.404717320207084, 46.86812144943778, 56.26535885447406 " fill="none" id="curve_1" stroke="#000000" stroke-linecap="round" stroke-linejoin="round" stroke-width="5.345114798902611"/>
  <path d="M 55.20484786325207, 36.72795043690766 Q 42.86739553878745, 39.53130137805572, 27.461231501881688, 48.33343781565161 " fill="none" id="curve_2" stroke="#000000" stroke-linecap="round" stroke-linejoin="round" stroke-width="4.017998480848875"/>
  <path d="M 42.295374132365566, 36.19976177631018 Q 45.55077591944698, 33.76459910177748, 59.025192451806674, 32.79186926187705 " fill="none" id="curve_3" stroke="#000000" stroke-linecap="round" stroke-linejoin="round" stroke-width="3.4855225760937736"/>
  <path d="M 59.5566879155779, 49.323558009750045 Q 57.97105636362849, 45.728737068833325, 50.667847016334875, 42.243177189677695 " fill="none" id="curve_4" stroke="#000000" stroke-linecap="round" stroke-linejoin="round" stroke-width="3.1725471821956592"/>
  <path d="M 44.10912062159328, 54.65322743982617 Q 44.24586873772645, 54.375345723034165, 44.420978207537594, 53.947639348789906 " fill="none" id="curve_5" stroke="#000000" stroke-linecap="round" stroke-linejoin="round" stroke-width="5.166034057050993"/>
  <path d="M 39.44661921542587, 91.02682795073193 Q 31.367976751806765, 95.56222851533931, 20.580889280866476, 101.5726366429495 " fill="none" id="curve_6" stroke="#000000" stroke-linecap="round" stroke-linejoin="round" stroke-width="4.422607218216297"/>
  <path d="M 20.580889280866476, 101.5726366429495 Q 17.602195925550895, 94.83628520246477, 10.405365116753046, 89.35087607909922 " fill="none" id="curve_6" stroke="#000000" stroke-linecap="round" stroke-linejoin="round" stroke-width="4.086268237834705"/>
  <path d="M 10.405365116753046, 89.35087607909922 Q 13.62524501546382, 84.00854134543408, 15.871720807959184, 68.98438311725724 " fill="none" id="curve_6" stroke="#000000" stroke-linecap="round" stroke-linejoin="round" stroke-width="3.1080394501562902"/>
  <path d="M 15.871720807959184, 68.98438311725724 Q 15.785568318263728, 60.25013481315764, 15.428667369753306, 55.83241067232609 " fill="none" id="curve_6" stroke="#000000" stroke-linecap="round" stroke-linejoin="round" stroke-width="3.2185899747568163"/>
  <path d="M 41.11485409062152, 39.881203052906926 Q 54.02791003722473, 41.27512438770337, 61.16894895637515, 45.22021324776822 " fill="none" id="curve_7" stroke="#000000" stroke-linecap="round" stroke-linejoin="round" stroke-width="2.4616933854692498"/>
  <path d="M 89.52517525892974, 69.32426668430341 Q 89.64565055777724, 80.93316870240695, 89.89086436376171, 93.59726636900425 " fill="none" id="curve_9" stroke="#000000" stroke-linecap="round" stroke-linejoin="round" stroke-width="1.738711584610378"/>
  <path d="M 89.51963444299606, 134.46877816965613 Q 89.46162087665091, 138.18335826645068, 89.08887809662025, 139.34846097254245 " fill="none" id="curve_10" stroke="#000000" stroke-linecap="round" stroke-linejoin="round" stroke-width="2.813244182401829"/>
  <path d="M 88.54024893042688, 120.3706412041141 Q 89.0527088105872, 119.55893630306464, 89.41366189143396, 117.0848495217922 " fill="none" id="curve_11" stroke="#000000" stroke-linecap="round" stroke-linejoin="round" stroke-width="1.9939538783084332"/>
  <path d="M 50.40951890441073, 77.69380704128986 Q 46.349823987018254, 78.62156552686977, 44.19850420175986, 86.66314458872952 " fill="none" id="curve_12" stroke="#000000" stroke-linecap="round" stroke-linejoin="round" stroke-width="3.136761492750779"/>
  <path d="M 44.19850420175986, 86.66314458872952 Q 47.407286505983485, 83.12592133331798, 49.893287659129825, 72.56570651158023 " fill="none" id="curve_12" stroke="#000000" stroke-linecap="round" stroke-linejoin="round" stroke-width="3.1178593056528414"/>
  <path d="M 49.893287659129825, 72.56570651158023 Q 53.79166293053261, 68.06413034506974, 56.98312190424587, 57.50003987124551 " fill="none" id="curve_12" stroke="#000000" stroke-linecap="round" stroke-linejoin="round" stroke-width="3.3709809078756914"/>
  <path d="M 11.622701228381404, 68.29822986790764 Q 16.710105501588004, 59.057217000410354, 26.497054131520663, 47.402225454583004 " fill="none" id="curve_16" stroke="#000000" stroke-linecap="round" stroke-linejoin="round" stroke-width="4.441679852295379"/>
  <path d="M 26.497054131520663, 47.402225454583004 Q 24.02747098471499, 50.91746409336695, 17.405663726701015, 53.82143586692166 " fill="none" id="curve_16" stroke="#000000" stroke-linecap="round" stroke-linejoin="round" stroke-width="4.8485901243115315"/>
  <path d="M 89.54393116199374, 52.109684308448465 Q 89.61387264100271, 48.859292359526066, 89.68410083879557, 39.750446776244196 " fill="none" id="curve_25" stroke="#000000" stroke-linecap="round" stroke-linejoin="round" stroke-width="1.4041736101693576"/>
  <path d="M 89.41601239085063, 11.682035577534158 Q 89.37589926248229, 9.306512287546727, 89.31839499611905, 4.160014093278158 " fill="none" id="curve_29" stroke="#000000" stroke-linecap="round" stroke-linejoin="round" stroke-width="1.467385606042247"/>
  <path d="M 89.4671401977539, 34.2164306640625 Q 89.33124479906046, 33.70249152786853, 89.12765929303004, 32.277057876363244 " fill="none" id="curve_43" stroke="#000000" stroke-linecap="round" stroke-linejoin="round" stroke-width="1.1876225036748185"/>
  <path d="M 89.22626742579705, 19.81811290698745 Q 89.45696310935574, 19.221769720948497, 89.66522357435228, 17.26418377112963 " fill="none" id="curve_44" stroke="#000000" stroke-linecap="round" stroke-linejoin="round" stroke-width="1.4113219656502063"/>
  <path d="M 89.19617513495005, 61.893885367305465 Q 89.37578096989883, 60.13144223637987, 89.55647925727824, 55.72174676403234 " fill="none" id="curve_46" stroke="#000000" stroke-linecap="round" stroke-linejoin="round" stroke-width="1.4455952849074107"/>
  <path d="M 46.78225338483591, 52.320356394340706 Q 52.46561613815958, 51.42644399187258, 53.89569343124369, 44.7192006829746 " fill="none" id="curve_61" stroke="#000000" stroke-linecap="round" stroke-linejoin="round" stroke-width="3.130430489344116"/>
  <path d="M 37.8457089477873, 33.99178229476904 Q 44.13884041525509, 34.0702853341509, 50.646838405326534, 34.234938644710375 " fill="none" id="curve_63" stroke="#000000" stroke-linecap="round" stroke-linejoin="round" stroke-width="2.20270372211702"/>
  <path d="M 20.952935081780257, 56.100389420626584 Q 24.424620292241425, 52.49472103025409, 28.640379306591544, 46.890084207240626 " fill="none" id="curve_65" stroke="#000000" stroke-linecap="round" stroke-linejoin="round" stroke-width="3.158531112699876"/>
  <path d="M 8.276725463906892, 92.66581535670369 Q 8.354068309733394, 92.50474939760761, 8.44259380215594, 92.0485286302695 " fill="none" id="curve_68" stroke="#000000" stroke-linecap="round" stroke-linejoin="round" stroke-width="3.5447147068257476"/>
  <path d="M 24.542764859334852, 97.53628588738991 Q 33.44390775539591, 95.34752194143512, 42.2485707127639, 90.57045324112053 " fill="none" id="curve_83" stroke="#000000" stroke-linecap="round" stroke-linejoin="round" stroke-width="3.3223431002592205"/>
  <path d="M 29.277149338602346, 96.73042796658052 Q 36.836834571516576, 93.98605123899988, 44.58418620390139, 88.44947499533596 " fill="none" id="curve_93" stroke="#000000" stroke-linecap="round" stroke-linejoin="round" stroke-width="3.6010663093491897"/>
  <path d="M 89.72416558623462, 37.37448931351155 Q 89.70973690458588, 38.26401617170793, 89.67444012681283, 39.43184382640018 " fill="none" id="curve_123" stroke="#000000" stroke-linecap="round" stroke-linejoin="round" stroke-width="1.9479807080856255"/>
  <path d="M 90.08877540308005, 1.56865300162641 Q 89.89824690815067, 2.0568442335651635, 89.19755936378252, 2.806123100348797 " fill="none" id="curve_125" stroke="#000000" stroke-linecap="round" stroke-linejoin="round" stroke-width="1.8043915729181752"/>
  <path d="M 24.65004245227101, 101.73598571429466 Q 28.765965541175856, 94.89287279808164, 43.313398284776596, 89.53747481126959 " fill="none" id="curve_166" stroke="#000000" stroke-linecap="round" stroke-linejoin="round" stroke-width="3.8022698668393913"/>
</svg>
