<?xml version="1.0" ?>
<svg height="140" width="140" xmlns="http://www.w3.org/2000/svg">
  <path d="M 65.57976722717285, 88.11043739318848 Q 64.08225863723833, 97.6599271548619, 48.724552381806916, 103.1608808986789 " fill="none" id="curve_1" stroke="#000000" stroke-linecap="round" stroke-linejoin="round" stroke-width="5.5432431854732584"/>
  <path d="M 48.724552381806916, 103.1608808986789 Q 47.16155194196792, 105.6617379714293, 36.36074294415112, 106.09674616067069 " fill="none" id="curve_1" stroke="#000000" stroke-linecap="round" stroke-linejoin="round" stroke-width="5.521467228829999"/>
  <path d="M 36.36074294415112, 106.09674616067069 Q 21.353967896059913, 104.3745652509517, 12.784157270385169, 88.96146544020655 " fill="none" id="curve_1" stroke="#000000" stroke-linecap="round" stroke-linejoin="round" stroke-width="5.411146616065647"/>
  <path d="M 12.784157270385169, 88.96146544020655 Q 13.345762569772466, 71.89717570140375, 21.352953552244784, 67.39822402889887 " fill="none" id="curve_1" stroke="#000000" stroke-linecap="round" stroke-linejoin="round" stroke-width="7.11090850534483"/>
  <path d="M 21.352953552244784, 67.39822402889887 Q 29.163650674826513, 64.3654499834619, 35.96131205869969, 59.68737690351557 " fill="none" id="curve_1" stroke="#000000" stroke-linecap="round" stroke-linejoin="round" stroke-width="5.466226723497406"/>
  <path d="M 35.96131205869969, 59.68737690351557 Q 63.41038668218726, 61.41220210866681, 68.05385615473958, 86.7230094512384 " fill="none" id="curve_1" stroke="#000000" stroke-linecap="round" stroke-linejoin="round" stroke-width="4.280204145817536"/>
  <path d="M 89.86586032975266, 75.45145125211374 Q 89.53745075640808, 77.44440670990414, 89.38809286461253, 109.96824585828804 " fill="none" id="curve_2" stroke="#000000" stroke-linecap="round" stroke-linejoin="round" stroke-width="2.481838096364183"/>
  <path d="M 89.38809286461253, 109.96824585828804 Q 89.32257292070877, 114.85001425149838, 89.17679461901423, 137.51925266984523 " fill="none" id="curve_2" stroke="#000000" stroke-linecap="round" stroke-linejoin="round" stroke-width="2.5234591570290004"/>
  <path d="M 89.17679461901423, 137.51925266984523 Q 89.17209060236685, 138.36821173905017, 89.15692649947952, 138.84442378069718 " fill="none" id="curve_2" stroke="#000000" stroke-linecap="round" stroke-linejoin="round" stroke-width="2.4081945710272468"/>
  <path d="M 65.94747239283433, 90.35201863295094 Q 65.46224357211653, 85.9842886803641, 64.04255467494154, 79.57598498881892 " fill="none" id="curve_4" stroke="#000000" stroke-linecap="round" stroke-linejoin="round" stroke-width="2.4213894407406107"/>
  <path d="M 67.48876099943692, 78.48558876436726 Q 65.7150660261361, 74.71900650629085, 62.42565199875087, 69.43682780967157 " fill="none" id="curve_5" stroke="#000000" stroke-linecap="round" stroke-linejoin="round" stroke-width="1.9547592186243639"/>
  <path d="M 49.14654962107998, 60.51599455949103 Q 47.166017092858525, 58.873818928242876, 41.01152531239948, 57.54297794113309 " fill="none" id="curve_6" stroke="#000000" stroke-linecap="round" stroke-linejoin="round" stroke-width="2.276836643035597"/>
  <path d="M 30.225323835348696, 67.81555904159696 Q 27.938583098033554, 68.98488430048435, 25.120548831350597, 70.01004284212463 " fill="none" id="curve_7" stroke="#000000" stroke-linecap="round" stroke-linejoin="round" stroke-width="3.4169755554942816"/>
  <path d="M 18.10731250455119, 85.1398853549186 Q 13.6742627392121, 84.26750722843074, 12.438447925472767, 74.1088141738378 " fill="none" id="curve_8" stroke="#000000" stroke-linecap="round" stroke-linejoin="round" stroke-width="6.003404633125006"/>
  <path d="M 12.438447925472767, 74.1088141738378 Q 10.62019886972005, 78.13217601329089, 9.30990863041561, 84.34692561330532 " fill="none" id="curve_8" stroke="#000000" stroke-linecap="round" stroke-linejoin="round" stroke-width="3.0271426956759835"/>
  <path d="M 16.42262148691743, 80.4679038334107 Q 16.770023349241608, 78.822605271856, 17.211067169031207, 77.03135256034153 " fill="none" id="curve_9" stroke="#000000" stroke-linecap="round" stroke-linejoin="round" stroke-width="2.6216617445912846"/>
  <path d="M 9.844893834396094, 87.91695519899206 Q 13.170550758278516, 97.20485936908273, 25.361344769013712, 103.92707245661148 " fill="none" id="curve_10" stroke="#000000" stroke-linecap="round" stroke-linejoin="round" stroke-width="2.1607434302151796"/>
  <path d="M 47.631074282059814, 103.18552516883888 Q 60.64391174190301, 99.85278241465035, 67.56119124930404, 87.67242853734481 " fill="none" id="curve_11" stroke="#000000" stroke-linecap="round" stroke-linejoin="round" stroke-width="3.8844125468202746"/>
  <path d="M 89.11032121128635, 73.47154278850195 Q 89.29997011731827, 71.67417804635546, 89.3677364594957, 47.4817898687856 " fill="none" id="curve_12" stroke="#000000" stroke-linecap="round" stroke-linejoin="round" stroke-width="2.1852988545139596"/>
  <path d="M 89.3677364594957, 47.4817898687856 Q 89.28177867620255, 43.54911638312342, 89.18458669868419, 25.85484252751679 " fill="none" id="curve_12" stroke="#000000" stroke-linecap="round" stroke-linejoin="round" stroke-width="2.351399289663021"/>
  <path d="M 89.18458669868419, 25.85484252751679 Q 89.16192000118392, 18.970327621452686, 89.09722452758969, 6.00163665575122 " fill="none" id="curve_12" stroke="#000000" stroke-linecap="round" stroke-linejoin="round" stroke-width="2.431420714405024"/>
  <path d="M 89.09722452758969, 6.00163665575122 Q 88.81390115734264, 3.467842716012537, 87.94385733997161, 2.4456894521893116 " fill="none" id="curve_12" stroke="#000000" stroke-linecap="round" stroke-linejoin="round" stroke-width="5.357443747437893"/>
  <path d="M 87.94385733997161, 2.4456894521893116 Q 87.8968815079889, 1.8624360025264293, 87.78979887262965, 1.5157762166410242 " fill="none" id="curve_12" stroke="#000000" stroke-linecap="round" stroke-linejoin="round" stroke-width="2.67480357956036"/>
  <path d="M 27.303844656130007, 62.097257593458835 Q 28.19748257019147, 61.7390377222375, 29.82888389482978, 61.338002468416555 " fill="none" id="curve_18" stroke="#000000" stroke-linecap="round" stroke-linejoin="round" stroke-width="4.092802587166752"/>
  <path d="M 28.92369861152082, 70.51993209625792 Q 29.759615450231237, 69.69923791892826, 30.05647179975038, 64.47166022991064 " fill="none" id="curve_25" stroke="#000000" stroke-linecap="round" stroke-linejoin="round" stroke-width="2.4227918816890286"/>
  <path d="M 43.18767681668391, 61.89383400009844 Q 45.00276597114796, 62.13244392146586, 47.259261987008685, 62.54527845155327 " fill="none" id="curve_29" stroke="#000000" stroke-linecap="round" stroke-linejoin="round" stroke-width="2.43757137398508"/>
  <path d="M 55.209136943046005, 100.64300392585348 Q 61.40399750875702, 97.85458253243459, 65.51528794912988, 88.90922005126892 " fill="none" id="curve_128" stroke="#000000" stroke-linecap="round" stroke-linejoin="round" stroke-width="2.6036043629655587"/>
  <path d="M 58.84080021788708, 96.05216301673181 Q 58.96742202702396, 96.07818836125689, 59.12155341268887, 96.13930212838918 " fill="none" id="curve_143" stroke="#000000" stroke-linecap="round" stroke-linejoin="round" stroke-width="3.1200019417156795"/>
</svg>
