<?xml version="1.0" ?>
<svg height="140" width="140" xmlns="http://www.w3.org/2000/svg">
  <path d="M 49.15903091430664, 53.69614028930664 Q 49.11098667960727, 48.69309134545179, 47.81800293412553, 48.224969351058235 " fill="none" id="curve_1" stroke="#000000" stroke-linecap="round" stroke-linejoin="round" stroke-width="5.345582519701878"/>
  <path d="M 47.81800293412553, 48.224969351058235 Q 36.91380275608256, 49.17963559528786, 30.13628545806958, 54.329547720425985 " fill="none" id="curve_1" stroke="#000000" stroke-linecap="round" stroke-linejoin="round" stroke-width="6.20178455409172"/>
  <path d="M 30.13628545806958, 54.329547720425985 Q 24.09596646809539, 59.81159940569792, 16.591086103105738, 76.40921213957412 " fill="none" id="curve_1" stroke="#000000" stroke-linecap="round" stroke-linejoin="round" stroke-width="4.49656099717579"/>
  <path d="M 16.591086103105738, 76.40921213957412 Q 16.628069182206612, 91.12673708186892, 18.82260189864862, 91.63908118160417 " fill="none" id="curve_1" stroke="#000000" stroke-linecap="round" stroke-linejoin="round" stroke-width="4.853497333612009"/>
  <path d="M 18.82260189864862, 91.63908118160417 Q 37.20381270326209, 90.83109039337388, 44.89464680034285, 76.38047861383181 " fill="none" id="curve_1" stroke="#000000" stroke-linecap="round" stroke-linejoin="round" stroke-width="3.844085407382595"/>
  <path d="M 44.89464680034285, 76.38047861383181 Q 49.300479370521096, 72.95129162037824, 51.58017362098382, 63.36518223684271 " fill="none" id="curve_1" stroke="#000000" stroke-linecap="round" stroke-linejoin="round" stroke-width="4.247325630851307"/>
  <path d="M 51.58017362098382, 63.36518223684271 Q 51.168829745170264, 53.6206521734115, 48.76643541325809, 49.95335481272102 " fill="none" id="curve_1" stroke="#000000" stroke-linecap="round" stroke-linejoin="round" stroke-width="3.3641296760034267"/>
  <path d="M 37.55009328768101, 53.89963098347885 Q 41.55687880325742, 53.858207355918765, 41.89627222825278, 52.80547843606484 " fill="none" id="curve_2" stroke="#000000" stroke-linecap="round" stroke-linejoin="round" stroke-width="4.465011074696811"/>
  <path d="M 15.072346270949602, 83.44820704338804 Q 15.305382908594131, 86.82006899767065, 15.804619022356896, 89.13506146110754 " fill="none" id="curve_4" stroke="#000000" stroke-linecap="round" stroke-linejoin="round" stroke-width="3.2986170981519525"/>
  <path d="M 33.66130800978863, 55.87014450086267 Q 34.685180159569136, 54.68981117350777, 36.73990189765686, 53.36599523944375 " fill="none" id="curve_5" stroke="#000000" stroke-linecap="round" stroke-linejoin="round" stroke-width="3.259555623034234"/>
  <path d="M 22.377628265719807, 64.92285575080982 Q 18.136941106875906, 69.47288119147797, 14.421332365905428, 83.97208912289113 " fill="none" id="curve_14" stroke="#000000" stroke-linecap="round" stroke-linejoin="round" stroke-width="2.0729871033583938"/>
  <path d="M 16.9110616669159, 72.23389522997304 Q 19.3668409861938, 67.99287164272637, 23.605512257080917, 61.94472149608757 " fill="none" id="curve_17" stroke="#000000" stroke-linecap="round" stroke-linejoin="round" stroke-width="2.1591440225731984"/>
  <path d="M 41.75781850180341, 53.70427715351212 Q 41.92123709758005, 55.280993460387066, 42.66524687570467, 56.58704322029484 " fill="none" id="curve_18" stroke="#000000" stroke-linecap="round" stroke-linejoin="round" stroke-width="2.2476797610202843"/>
  <path d="M 21.67017150817436, 88.17861207594845 Q 21.168255994035043, 89.46640904151825, 17.988743382752215, 89.92587083858741 " fill="none" id="curve_20" stroke="#000000" stroke-linecap="round" stroke-linejoin="round" stroke-width="4.290030344755785"/>
  <path d="M 17.988743382752215, 89.92587083858741 Q 21.527933477043558, 90.61960155903054, 29.344119691437772, 91.1078384108107 " fill="none" id="curve_20" stroke="#000000" stroke-linecap="round" stroke-linejoin="round" stroke-width="3.4673920487924317"/>
  <path d="M 49.063417871833266, 48.90989948883417 Q 49.84556177893305, 50.59564271608734, 50.17537368920147, 58.741094063846916 " fill="none" id="curve_22" stroke="#000000" stroke-linecap="round" stroke-linejoin="round" stroke-width="2.893896993852246"/>
  <path d="M 49.11266958985698, 55.870138916213364 Q 49.21305583972357, 49.680916057530474, 50.57239578743059, 48.61597409638276 " fill="none" id="curve_63" stroke="#000000" stroke-linecap="round" stroke-linejoin="round" stroke-width="2.6929690093735394"/>
</svg>
