<?xml version="1.0" ?>
<svg height="140" width="140" xmlns="http://www.w3.org/2000/svg">
  <path d="M 54.964927673339844, 90.24831199645996 Q 57.7502105680871, 89.79602307640094, 58.64057831356638, 84.44298985589897 " fill="none" id="curve_1" stroke="#000000" stroke-linecap="round" stroke-linejoin="round" stroke-width="6.66284636049513"/>
  <path d="M 58.64057831356638, 84.44298985589897 Q 58.496920162412756, 73.95232391489766, 56.424698093383554, 71.75167692048207 " fill="none" id="curve_1" stroke="#000000" stroke-linecap="round" stroke-linejoin="round" stroke-width="4.761715819911249"/>
  <path d="M 56.424698093383554, 71.75167692048207 Q 55.009411212310894, 63.30280174290668, 39.7877550397842, 60.16558319707451 " fill="none" id="curve_1" stroke="#000000" stroke-linecap="round" stroke-linejoin="round" stroke-width="5.164282675694229"/>
  <path d="M 39.7877550397842, 60.16558319707451 Q 28.47941825018543, 63.15088087717694, 18.1617158364352, 74.05565882108705 " fill="none" id="curve_1" stroke="#000000" stroke-linecap="round" stroke-linejoin="round" stroke-width="6.039487540054725"/>
  <path d="M 18.1617158364352, 74.05565882108705 Q 18.24423805878449, 96.19615342649158, 27.5529190803273, 96.94599359160136 " fill="none" id="curve_1" stroke="#000000" stroke-linecap="round" stroke-linejoin="round" stroke-width="5.402954880628511"/>
  <path d="M 27.5529190803273, 96.94599359160136 Q 34.24345065772942, 97.28900072964954, 37.86046771666816, 98.3670980240759 " fill="none" id="curve_1" stroke="#000000" stroke-linecap="round" stroke-linejoin="round" stroke-width="4.132531581052349"/>
  <path d="M 37.86046771666816, 98.3670980240759 Q 48.9683163496057, 95.95799853515668, 56.82951962225282, 91.52683031101704 " fill="none" id="curve_1" stroke="#000000" stroke-linecap="round" stroke-linejoin="round" stroke-width="4.49390385111203"/>
  <path d="M 15.923524410264175, 84.05778960404149 Q 15.94782616585809, 79.52612643264986, 16.061898302691322, 77.85710836836283 " fill="none" id="curve_3" stroke="#000000" stroke-linecap="round" stroke-linejoin="round" stroke-width="3.609205802465622"/>
  <path d="M 17.08615626130087, 89.96082773989832 Q 16.697742141578484, 87.98460770487473, 16.378947999803486, 83.50347330294888 " fill="none" id="curve_4" stroke="#000000" stroke-linecap="round" stroke-linejoin="round" stroke-width="3.1648475604526958"/>
  <path d="M 32.105934635835396, 62.61802354926655 Q 23.786536204282232, 64.81572962041386, 19.434479495057303, 72.02615807928288 " fill="none" id="curve_5" stroke="#000000" stroke-linecap="round" stroke-linejoin="round" stroke-width="3.163691021000715"/>
  <path d="M 60.859725963134096, 79.19873220754536 Q 60.51914271999294, 75.96530737664096, 59.2227722446051, 74.508032522371 " fill="none" id="curve_7" stroke="#000000" stroke-linecap="round" stroke-linejoin="round" stroke-width="3.8280112694304176"/>
  <path d="M 45.0802601399588, 59.77160035685583 Q 44.193333857431895, 61.4612803373287, 38.30213725380153, 62.46340951873429 " fill="none" id="curve_8" stroke="#000000" stroke-linecap="round" stroke-linejoin="round" stroke-width="2.5041583248698513"/>
  <path d="M 43.046113892983726, 95.73787478057113 Q 39.25558804533991, 96.91946571107991, 34.69965385772692, 98.43486138350029 " fill="none" id="curve_9" stroke="#000000" stroke-linecap="round" stroke-linejoin="round" stroke-width="3.456452678912117"/>
  <path d="M 34.69965385772692, 98.43486138350029 Q 31.8345811465407, 97.00742484659307, 26.938494072349553, 95.12846496569256 " fill="none" id="curve_9" stroke="#000000" stroke-linecap="round" stroke-linejoin="round" stroke-width="3.086047824870562"/>
  <path d="M 51.67239474417902, 95.91315501015468 Q 47.7597321964318, 95.7481209420166, 43.39151926745667, 95.29741425959355 " fill="none" id="curve_10" stroke="#000000" stroke-linecap="round" stroke-linejoin="round" stroke-width="3.3660889513244707"/>
  <path d="M 42.82483514344854, 60.862519788200416 Q 45.18141252768095, 61.84361774662067, 48.66932368812171, 63.38354787262891 " fill="none" id="curve_11" stroke="#000000" stroke-linecap="round" stroke-linejoin="round" stroke-width="4.083038454438984"/>
  <path d="M 40.54512327113179, 60.68122003298105 Q 43.67472662901649, 61.4763510210457, 48.84906505999975, 62.83164888849974 " fill="none" id="curve_18" stroke="#000000" stroke-linecap="round" stroke-linejoin="round" stroke-width="3.0140456651068073"/>
  <path d="M 41.82586760487619, 60.624497031798604 Q 43.94697644577539, 61.64090165038396, 48.775634294452495, 63.13691808299311 " fill="none" id="curve_23" stroke="#000000" stroke-linecap="round" stroke-linejoin="round" stroke-width="3.148585497055661"/>
  <path d="M 39.11652114292025, 60.71366451973215 Q 44.247182938910356, 61.54992397495295, 49.45926885904272, 64.13497869863339 " fill="none" id="curve_26" stroke="#000000" stroke-linecap="round" stroke-linejoin="round" stroke-width="2.7348091276125204"/>
  <path d="M 49.45926885904272, 64.13497869863339 Q 49.066047327482366, 61.20955572183533, 41.49760018010221, 60.593767317315105 " fill="none" id="curve_26" stroke="#000000" stroke-linecap="round" stroke-linejoin="round" stroke-width="2.7678974292145933"/>
  <path d="M 41.49760018010221, 60.593767317315105 Q 42.27610358492734, 61.93545196840043, 46.11867769733393, 63.240760456822954 " fill="none" id="curve_26" stroke="#000000" stroke-linecap="round" stroke-linejoin="round" stroke-width="2.827453400863814"/>
  <path d="M 40.67584638279689, 98.07890721983787 Q 35.48510068445358, 97.54773198544132, 31.09838235842686, 96.20627199413147 " fill="none" id="curve_43" stroke="#000000" stroke-linecap="round" stroke-linejoin="round" stroke-width="3.136976367079919"/>
  <path d="M 50.56056866770314, 66.44751239952257 Q 48.569589983244796, 64.63657471491257, 44.69003118245113, 61.344533188217206 " fill="none" id="curve_110" stroke="#000000" stroke-linecap="round" stroke-linejoin="round" stroke-width="2.650685131536908"/>
</svg>
