<?xml version="1.0" ?>
<svg height="140" width="140" xmlns="http://www.w3.org/2000/svg">
  <path d="M 80.81759643554688, 79.1535530090332 Q 82.16186099166634, 77.94233583222329, 83.21982975772033, 73.54120248956383 " fill="none" id="curve_1" stroke="#000000" stroke-linecap="round" stroke-linejoin="round" stroke-width="9.37542677755184"/>
  <path d="M 83.21982975772033, 73.54120248956383 Q 82.76839051167345, 60.08727362758178, 77.32330380202045, 53.589253584235834 " fill="none" id="curve_1" stroke="#000000" stroke-linecap="round" stroke-linejoin="round" stroke-width="7.135684151901747"/>
  <path d="M 77.32330380202045, 53.589253584235834 Q 72.6139827772009, 46.14099855153004, 51.26098440258431, 35.11982404703918 " fill="none" id="curve_1" stroke="#000000" stroke-linecap="round" stroke-linejoin="round" stroke-width="6.280558645350928"/>
  <path d="M 51.26098440258431, 35.11982404703918 Q 44.812144053381004, 33.258875436954625, 35.55740606950919, 30.7033225070633 " fill="none" id="curve_1" stroke="#000000" stroke-linecap="round" stroke-linejoin="round" stroke-width="6.8971697978251925"/>
  <path d="M 35.55740606950919, 30.7033225070633 Q 24.305306423627034, 33.249011850860796, 20.843185266179752, 43.37467053466339 " fill="none" id="curve_1" stroke="#000000" stroke-linecap="round" stroke-linejoin="round" stroke-width="7.844535799221799"/>
  <path d="M 20.843185266179752, 43.37467053466339 Q 22.953255675156786, 65.18579814710738, 39.48090629513195, 82.30765576863604 " fill="none" id="curve_1" stroke="#000000" stroke-linecap="round" stroke-linejoin="round" stroke-width="4.291520662935126"/>
  <path d="M 31.822531083265204, 106.64923747993687 Q 32.22833382578211, 108.35890740413069, 38.71535403996829, 108.68296729539227 " fill="none" id="curve_2" stroke="#000000" stroke-linecap="round" stroke-linejoin="round" stroke-width="4.918700928858042"/>
  <path d="M 38.71535403996829, 108.68296729539227 Q 60.14057372728699, 107.85120917559597, 68.4970696111618, 96.24031341779089 " fill="none" id="curve_2" stroke="#000000" stroke-linecap="round" stroke-linejoin="round" stroke-width="5.6641039638897706"/>
  <path d="M 68.4970696111618, 96.24031341779089 Q 77.17145011362987, 92.15028577276674, 82.64246197223696, 79.67018556625871 " fill="none" id="curve_2" stroke="#000000" stroke-linecap="round" stroke-linejoin="round" stroke-width="5.965929935144524"/>
  <path d="M 90.05921146703085, 79.53049145893921 Q 89.82773052064668, 88.38541600337403, 89.34740903069812, 114.4373564058349 " fill="none" id="curve_3" stroke="#000000" stroke-linecap="round" stroke-linejoin="round" stroke-width="1.674653812594208"/>
  <path d="M 89.34740903069812, 114.4373564058349 Q 89.456970933214, 129.65258587238844, 89.75139332838354, 139.5462797512206 " fill="none" id="curve_3" stroke="#000000" stroke-linecap="round" stroke-linejoin="round" stroke-width="2.087109085965936"/>
  <path d="M 89.75139332838354, 139.5462797512206 Q 89.38000738571611, 138.94342691388042, 88.61731465127373, 138.44190605282384 " fill="none" id="curve_3" stroke="#000000" stroke-linecap="round" stroke-linejoin="round" stroke-width="2.2717544661403104"/>
  <path d="M 31.35940254095265, 105.51506754494436 Q 24.105667104172177, 102.35625117932285, 18.331915020385185, 82.34691354054388 " fill="none" id="curve_6" stroke="#000000" stroke-linecap="round" stroke-linejoin="round" stroke-width="4.000405895598248"/>
  <path d="M 39.739414481777764, 85.09535390689383 Q 42.24691402033785, 86.06790363618776, 43.81278766672697, 87.93299859587512 " fill="none" id="curve_7" stroke="#000000" stroke-linecap="round" stroke-linejoin="round" stroke-width="4.569028708534329"/>
  <path d="M 20.45074710136025, 79.46661652278067 Q 19.612818742753618, 79.94864971438227, 18.84762350087636, 80.88663426158601 " fill="none" id="curve_8" stroke="#000000" stroke-linecap="round" stroke-linejoin="round" stroke-width="3.684914377701631"/>
  <path d="M 23.775851130974186, 44.0070960921671 Q 25.058831571489787, 38.995110520876075, 27.433162341469156, 34.78058506771849 " fill="none" id="curve_9" stroke="#000000" stroke-linecap="round" stroke-linejoin="round" stroke-width="5.785995727495358"/>
  <path d="M 27.433162341469156, 34.78058506771849 Q 22.21150737142086, 35.833886663017786, 20.00552727174152, 39.70226688904088 " fill="none" id="curve_9" stroke="#000000" stroke-linecap="round" stroke-linejoin="round" stroke-width="4.477809491222871"/>
  <path d="M 89.88300470045836, 43.561078188208285 Q 89.76831823148109, 57.93326280846387, 89.25972023372084, 67.70694821130077 " fill="none" id="curve_11" stroke="#000000" stroke-linecap="round" stroke-linejoin="round" stroke-width="1.6441757139534787"/>
  <path d="M 89.25972023372084, 67.70694821130077 Q 89.62421705325798, 71.52985555011114, 89.93250963285925, 78.6724633536915 " fill="none" id="curve_11" stroke="#000000" stroke-linecap="round" stroke-linejoin="round" stroke-width="1.96340250481302"/>
  <path d="M 89.93250963285925, 78.6724633536915 Q 78.79580026380494, 80.66982420408496, 71.98619819575973, 91.44250409092254 " fill="none" id="curve_11" stroke="#000000" stroke-linecap="round" stroke-linejoin="round" stroke-width="3.5153582576868407"/>
  <path d="M 71.98619819575973, 91.44250409092254 Q 70.24706404197298, 99.9286133707778, 59.007045630637236, 102.38656647177004 " fill="none" id="curve_11" stroke="#000000" stroke-linecap="round" stroke-linejoin="round" stroke-width="5.45685056748043"/>
  <path d="M 29.488725117130855, 100.4431721009746 Q 29.2680418949402, 98.60508731711293, 26.673591441609837, 98.32662338655746 " fill="none" id="curve_13" stroke="#000000" stroke-linecap="round" stroke-linejoin="round" stroke-width="3.770929017718174"/>
  <path d="M 43.541525164843506, 107.22739665303943 Q 38.84305906777948, 106.94940076376918, 32.64871599859327, 106.57972065990681 " fill="none" id="curve_14" stroke="#000000" stroke-linecap="round" stroke-linejoin="round" stroke-width="2.950221998180959"/>
  <path d="M 89.53476632024163, 41.26290463641138 Q 89.74267885713522, 39.458739532467504, 89.81757680269958, 22.96184124497634 " fill="none" id="curve_18" stroke="#000000" stroke-linecap="round" stroke-linejoin="round" stroke-width="1.6663530596747944"/>
  <path d="M 89.81757680269958, 22.96184124497634 Q 89.73472695166001, 15.457910204534471, 89.57472169217239, 1.00123113570573 " fill="none" id="curve_18" stroke="#000000" stroke-linecap="round" stroke-linejoin="round" stroke-width="1.6945038720224095"/>
  <path d="M 89.57472169217239, 1.00123113570573 Q 89.33872464535179, 1.2962058218792325, 88.87982016663598, 1.6848973142043766 " fill="none" id="curve_18" stroke="#000000" stroke-linecap="round" stroke-linejoin="round" stroke-width="1.7822662882722167"/>
  <path d="M 67.39105220951798, 46.047517000746694 Q 70.63850321974556, 52.35504159569463, 79.16480347677673, 55.73109682086786 " fill="none" id="curve_20" stroke="#000000" stroke-linecap="round" stroke-linejoin="round" stroke-width="3.0072091467409994"/>
  <path d="M 28.74824740849283, 38.07031562711914 Q 26.326631147613398, 38.16456476075236, 25.182834887130525, 39.19980457212647 " fill="none" id="curve_23" stroke="#000000" stroke-linecap="round" stroke-linejoin="round" stroke-width="2.0020786538181534"/>
  <path d="M 42.850854778080134, 28.99376420846646 Q 43.86859834331187, 30.021974241420974, 45.23849402598741, 32.44998553969306 " fill="none" id="curve_24" stroke="#000000" stroke-linecap="round" stroke-linejoin="round" stroke-width="2.1118378474735566"/>
  <path d="M 45.23849402598741, 32.44998553969306 Q 52.357979194040425, 36.59849948509158, 65.74732085932436, 40.09868034693399 " fill="none" id="curve_24" stroke="#000000" stroke-linecap="round" stroke-linejoin="round" stroke-width="2.31105528640528"/>
  <path d="M 72.12927954260962, 93.0626604173377 Q 67.30642275998586, 99.97851910593114, 55.48717883676129, 106.12115547187587 " fill="none" id="curve_46" stroke="#000000" stroke-linecap="round" stroke-linejoin="round" stroke-width="3.516972844517371"/>
  <path d="M 71.24198228290133, 93.88296055147909 Q 66.91734501797066, 100.83093401399705, 55.2935398521538, 106.05018836472647 " fill="none" id="curve_51" stroke="#000000" stroke-linecap="round" stroke-linejoin="round" stroke-width="3.852692655719036"/>
  <path d="M 72.45422713560882, 91.79940246047 Q 68.08561231121327, 99.31706987985395, 56.79816392672864, 105.96874384317249 " fill="none" id="curve_53" stroke="#000000" stroke-linecap="round" stroke-linejoin="round" stroke-width="3.4307192053140625"/>
  <path d="M 52.5808806202005, 109.46386162159601 Q 52.76591428335605, 108.12101498367679, 53.045749253680654, 105.73718660545032 " fill="none" id="curve_62" stroke="#000000" stroke-linecap="round" stroke-linejoin="round" stroke-width="2.8228283398999388"/>
  <path d="M 73.27143993890186, 91.20369648780864 Q 69.1929266332285, 96.7713201755133, 62.242373445835455, 102.56093552816291 " fill="none" id="curve_63" stroke="#000000" stroke-linecap="round" stroke-linejoin="round" stroke-width="3.971151458251223"/>
  <path d="M 62.242373445835455, 102.56093552816291 Q 67.55991861311637, 98.50364019918233, 73.60906784893966, 90.93529184743316 " fill="none" id="curve_63" stroke="#000000" stroke-linecap="round" stroke-linejoin="round" stroke-width="3.388021231654067"/>
  <path d="M 39.77333631621223, 84.14633401298502 Q 38.191449233974915, 82.37990734538234, 35.96429907108762, 79.69048344768308 " fill="none" id="curve_66" stroke="#000000" stroke-linecap="round" stroke-linejoin="round" stroke-width="3.0970517096956556"/>
  <path d="M 46.35619814541178, 36.376966347033864 Q 46.0641274495516, 36.396410435352735, 45.595265249683216, 36.448193371236044 " fill="none" id="curve_81" stroke="#000000" stroke-linecap="round" stroke-linejoin="round" stroke-width="1.8321594168241682"/>
  <path d="M 69.1737216688684, 95.17022283566976 Q 68.01456279245734, 99.30660065468432, 62.270778253294466, 101.06674931456725 " fill="none" id="curve_86" stroke="#000000" stroke-linecap="round" stroke-linejoin="round" stroke-width="4.520264186795647"/>
  <path d="M 62.270778253294466, 101.06674931456725 Q 67.09244431351028, 99.02693186196501, 71.04613770540652, 93.28062484292772 " fill="none" id="curve_86" stroke="#000000" stroke-linecap="round" stroke-linejoin="round" stroke-width="2.9961797919694497"/>
  <path d="M 71.04613770540652, 93.28062484292772 Q 68.88014154250033, 98.40785348080074, 63.49827411919921, 101.55141226570876 " fill="none" id="curve_86" stroke="#000000" stroke-linecap="round" stroke-linejoin="round" stroke-width="4.566294692346782"/>
  <path d="M 22.57899042163186, 99.33479935076063 Q 23.13776640602669, 99.17639199903624, 23.659888330216578, 98.77258520086464 " fill="none" id="curve_90" stroke="#000000" stroke-linecap="round" stroke-linejoin="round" stroke-width="3.7680568488116792"/>
  <path d="M 23.604611641352133, 33.34900795366994 Q 25.73044395143373, 32.356068085882285, 30.799417389325164, 31.40238732730189 " fill="none" id="curve_98" stroke="#000000" stroke-linecap="round" stroke-linejoin="round" stroke-width="2.509723183609119"/>
  <path d="M 70.00416958275657, 48.615396479770155 Q 69.41104356010341, 44.27221951141966, 66.27608568749541, 42.35016636210654 " fill="none" id="curve_114" stroke="#000000" stroke-linecap="round" stroke-linejoin="round" stroke-width="4.02381995190487"/>
  <path d="M 27.401889748536817, 69.17352349313607 Q 27.749219912594217, 69.99328260554805, 28.265318120737405, 71.10235096147055 " fill="none" id="curve_164" stroke="#000000" stroke-linecap="round" stroke-linejoin="round" stroke-width="3.9584583922084993"/>
  <path d="M 51.04329977277048, 35.88814023932048 Q 56.54747916277385, 37.62471440162185, 64.93220029713186, 41.46742337095317 " fill="none" id="curve_194" stroke="#000000" stroke-linecap="round" stroke-linejoin="round" stroke-width="2.1520419443098207"/>
</svg>
