<?xml version="1.0" ?>
<svg height="140" width="140" xmlns="http://www.w3.org/2000/svg">
  <path d="M 82.44115447998047, 83.32986497879028 Q 83.01631444687948, 79.62197052024052, 84.84711908639188, 75.7939042570473 " fill="none" id="curve_1" stroke="#000000" stroke-linecap="round" stroke-linejoin="round" stroke-width="5.9750793298911935"/>
  <path d="M 84.84711908639188, 75.7939042570473 Q 85.28347421139604, 71.71811304022631, 85.72214122810355, 63.7554787852672 " fill="none" id="curve_1" stroke="#000000" stroke-linecap="round" stroke-linejoin="round" stroke-width="4.1035616423791295"/>
  <path d="M 85.72214122810355, 63.7554787852672 Q 83.60657707078462, 54.17638827028307, 75.03109974248487, 41.631448614923954 " fill="none" id="curve_1" stroke="#000000" stroke-linecap="round" stroke-linejoin="round" stroke-width="4.944059502289384"/>
  <path d="M 75.03109974248487, 41.631448614923954 Q 67.72747466244286, 40.04385372939962, 63.04622992159581, 34.13270887733289 " fill="none" id="curve_1" stroke="#000000" stroke-linecap="round" stroke-linejoin="round" stroke-width="9.93665171839831"/>
  <path d="M 63.04622992159581, 34.13270887733289 Q 53.08705519800259, 33.314422643234835, 39.904589551142834, 32.185740604775695 " fill="none" id="curve_1" stroke="#000000" stroke-linecap="round" stroke-linejoin="round" stroke-width="7.575951826157524"/>
  <path d="M 39.904589551142834, 32.185740604775695 Q 19.882836715468407, 33.5768986364558, 7.725383428973828, 52.940462464069356 " fill="none" id="curve_1" stroke="#000000" stroke-linecap="round" stroke-linejoin="round" stroke-width="3.3850362387732655"/>
  <path d="M 7.725383428973828, 52.940462464069356 Q 3.5836216340265663, 56.49541483638825, 2.516779704117048, 73.79305836864935 " fill="none" id="curve_1" stroke="#000000" stroke-linecap="round" stroke-linejoin="round" stroke-width="4.8865048423254605"/>
  <path d="M 2.516779704117048, 73.79305836864935 Q 3.0815856434983595, 104.9856322119601, 18.694256760762435, 111.13154551988029 " fill="none" id="curve_1" stroke="#000000" stroke-linecap="round" stroke-linejoin="round" stroke-width="4.39776826961294"/>
  <path d="M 18.694256760762435, 111.13154551988029 Q 28.02038020503734, 113.41585108718893, 45.94282254566255, 114.89081885210908 " fill="none" id="curve_1" stroke="#000000" stroke-linecap="round" stroke-linejoin="round" stroke-width="4.681591330727629"/>
  <path d="M 45.94282254566255, 114.89081885210908 Q 69.10525135662412, 113.05757905046906, 79.1308359877211, 89.95610567903464 " fill="none" id="curve_1" stroke="#000000" stroke-linecap="round" stroke-linejoin="round" stroke-width="4.565041414332712"/>
  <path d="M 79.1308359877211, 89.95610567903464 Q 80.58714632526465, 85.22542051644415, 82.6386442050762, 80.85005091415807 " fill="none" id="curve_1" stroke="#000000" stroke-linecap="round" stroke-linejoin="round" stroke-width="5.590514247163597"/>
  <path d="M 83.61660873756668, 60.82873634099029 Q 82.02704887915537, 56.98582691124103, 80.52183253061565, 48.38200259155034 " fill="none" id="curve_2" stroke="#000000" stroke-linecap="round" stroke-linejoin="round" stroke-width="2.237563704187708"/>
  <path d="M 51.25141821181816, 34.90567139533654 Q 33.13924033327279, 35.50284712100244, 26.948364437780388, 45.48157781664365 " fill="none" id="curve_3" stroke="#000000" stroke-linecap="round" stroke-linejoin="round" stroke-width="3.8483154296162243"/>
  <path d="M 26.948364437780388, 45.48157781664365 Q 23.95001386303815, 46.51925175942884, 23.304482290582467, 52.41625220484943 " fill="none" id="curve_3" stroke="#000000" stroke-linecap="round" stroke-linejoin="round" stroke-width="4.582337613055019"/>
  <path d="M 23.304482290582467, 52.41625220484943 Q 24.71968059816299, 41.802707856861986, 35.27468303338601, 37.5840988653596 " fill="none" id="curve_3" stroke="#000000" stroke-linecap="round" stroke-linejoin="round" stroke-width="3.056442812853417"/>
  <path d="M 14.53663466897519, 41.42393500754308 Q 9.31368241974128, 47.71191161000173, 2.3499419688437015, 58.553583956029776 " fill="none" id="curve_4" stroke="#000000" stroke-linecap="round" stroke-linejoin="round" stroke-width="3.678308023889352"/>
  <path d="M 8.83677038953336, 52.0462390174119 Q 6.605552301351668, 58.43910885082129, 3.140853598077701, 63.22198694065996 " fill="none" id="curve_5" stroke="#000000" stroke-linecap="round" stroke-linejoin="round" stroke-width="3.497894711474936"/>
  <path d="M 20.053488578422137, 109.47363877709225 Q 21.240095391160843, 109.94095740258274, 22.927355098881744, 110.50690612192098 " fill="none" id="curve_7" stroke="#000000" stroke-linecap="round" stroke-linejoin="round" stroke-width="3.1008086521464535"/>
  <path d="M 4.77025673105252, 91.38772534563294 Q 3.0262181007913087, 89.49440628550555, 1.6093714432816557, 85.53506456829967 " fill="none" id="curve_8" stroke="#000000" stroke-linecap="round" stroke-linejoin="round" stroke-width="3.256382552835951"/>
  <path d="M 1.6093714432816557, 85.53506456829967 Q 6.176646194037319, 99.45190385684599, 17.33647072535146, 108.93794815721381 " fill="none" id="curve_8" stroke="#000000" stroke-linecap="round" stroke-linejoin="round" stroke-width="2.4405498460100525"/>
  <path d="M 52.2238381290297, 113.4871590763705 Q 66.59515098247346, 110.31718608812106, 74.1126196871411, 97.5453488832638 " fill="none" id="curve_9" stroke="#000000" stroke-linecap="round" stroke-linejoin="round" stroke-width="2.6769387779755043"/>
  <path d="M 74.1126196871411, 97.5453488832638 Q 78.30238230792244, 89.37878812438278, 83.77571548373359, 78.5189999596089 " fill="none" id="curve_9" stroke="#000000" stroke-linecap="round" stroke-linejoin="round" stroke-width="4.480695209749668"/>
  <path d="M 83.77571548373359, 78.5189999596089 Q 81.49638694091345, 80.08934706568024, 79.77227249965348, 83.32887861083256 " fill="none" id="curve_9" stroke="#000000" stroke-linecap="round" stroke-linejoin="round" stroke-width="4.133023271214221"/>
  <path d="M 65.37883217383755, 42.95042552521352 Q 67.91904630950741, 41.01739415796209, 70.20964890554234, 36.88614482209543 " fill="none" id="curve_10" stroke="#000000" stroke-linecap="round" stroke-linejoin="round" stroke-width="4.864764440798438"/>
  <path d="M 70.20964890554234, 36.88614482209543 Q 69.39074002364718, 34.83740356506256, 64.79513169547914, 34.16005079744301 " fill="none" id="curve_10" stroke="#000000" stroke-linecap="round" stroke-linejoin="round" stroke-width="2.992172425604999"/>
  <path d="M 79.35907019814167, 49.74498785573222 Q 79.2185536338274, 48.83345325376001, 78.83763709538874, 47.50523672100892 " fill="none" id="curve_11" stroke="#000000" stroke-linecap="round" stroke-linejoin="round" stroke-width="2.9049204620439983"/>
  <path d="M 68.32758317747148, 105.02694512566305 Q 63.67500169296243, 110.2202089596245, 49.2891818515167, 114.43733354788549 " fill="none" id="curve_12" stroke="#000000" stroke-linecap="round" stroke-linejoin="round" stroke-width="2.926538832429433"/>
  <path d="M 49.2891818515167, 114.43733354788549 Q 59.643759453774074, 111.83184845355623, 68.51507563932986, 105.236734607846 " fill="none" id="curve_12" stroke="#000000" stroke-linecap="round" stroke-linejoin="round" stroke-width="2.415313464220161"/>
  <path d="M 84.3529154020688, 57.62327361835106 Q 83.00632992514814, 52.2168983054439, 76.87641650371081, 47.99438523105094 " fill="none" id="curve_15" stroke="#000000" stroke-linecap="round" stroke-linejoin="round" stroke-width="2.6870825948594494"/>
  <path d="M 51.11175044640226, 113.29638067955328 Q 51.14999442302468, 113.2199937851763, 51.226549796155695, 113.08345064786998 " fill="none" id="curve_37" stroke="#000000" stroke-linecap="round" stroke-linejoin="round" stroke-width="2.741368526587807"/>
  <path d="M 74.72902238205258, 39.45436089547788 Q 74.35432835026224, 38.57177157720775, 72.48624782587025, 38.06043121237544 " fill="none" id="curve_41" stroke="#000000" stroke-linecap="round" stroke-linejoin="round" stroke-width="3.030246048938458"/>
  <path d="M 2.972212520997502, 68.58826503192712 Q 2.920213485714856, 63.29320841699452, 2.6646573347249087, 60.97322975598307 " fill="none" id="curve_62" stroke="#000000" stroke-linecap="round" stroke-linejoin="round" stroke-width="3.727570583200273"/>
  <path d="M 3.0611809225256277, 68.56693419757212 Q 3.1914184438638182, 64.87067011637228, 3.4578198247851084, 60.30525476784787 " fill="none" id="curve_63" stroke="#000000" stroke-linecap="round" stroke-linejoin="round" stroke-width="2.720296243717051"/>
  <path d="M 2.5625519525853875, 63.22252449442496 Q 2.5995180001491898, 64.29642657200611, 2.6348407683317774, 67.22303898746098 " fill="none" id="curve_72" stroke="#000000" stroke-linecap="round" stroke-linejoin="round" stroke-width="3.3478666833048574"/>
  <path d="M 3.0969767662164607, 91.23199950894971 Q 4.5866712323845285, 91.97338401867157, 6.312348358409228, 93.75654281337067 " fill="none" id="curve_78" stroke="#000000" stroke-linecap="round" stroke-linejoin="round" stroke-width="3.5255610708797267"/>
  <path d="M 83.81349823906807, 56.48482135275637 Q 83.30574350481201, 54.274975223932785, 81.20094110035646, 52.20627419476405 " fill="none" id="curve_80" stroke="#000000" stroke-linecap="round" stroke-linejoin="round" stroke-width="3.2237124117316793"/>
  <path d="M 85.09076905805952, 61.70494726100347 Q 84.60099095175626, 53.921389866172355, 79.97250666366139, 50.39966977403152 " fill="none" id="curve_83" stroke="#000000" stroke-linecap="round" stroke-linejoin="round" stroke-width="2.4241197154537257"/>
  <path d="M 83.1783738067744, 54.91835199598381 Q 83.55438072231448, 54.67791797491767, 83.99221558065898, 54.100424337025686 " fill="none" id="curve_98" stroke="#000000" stroke-linecap="round" stroke-linejoin="round" stroke-width="2.3147806430083646"/>
  <path d="M 83.46599995077213, 82.09600240352404 Q 83.86791149534882, 81.12690120085212, 84.39037302649716, 79.71269610986553 " fill="none" id="curve_126" stroke="#000000" stroke-linecap="round" stroke-linejoin="round" stroke-width="3.538119540038222"/>
  <path d="M 78.71287510692622, 46.85155731823393 Q 79.87912169838155, 46.569722090862165, 81.04635427188543, 45.96775730697708 " fill="none" id="curve_127" stroke="#000000" stroke-linecap="round" stroke-linejoin="round" stroke-width="2.66631025420283"/>
  <path d="M 2.9382767050900207, 62.903504212367594 Q 2.490851305634278, 64.32552721342233, 2.094656434547308, 68.47035088160258 " fill="none" id="curve_133" stroke="#000000" stroke-linecap="round" stroke-linejoin="round" stroke-width="2.993912601889088"/>
</svg>
