<?xml version="1.0" ?>
<svg height="140" width="140" xmlns="http://www.w3.org/2000/svg">
  <path d="M 63.990943908691406, 88.1981315612793 Q 63.149682704981124, 98.5117713071181, 52.387637680746934, 108.85948701080882 " fill="none" id="curve_1" stroke="#000000" stroke-linecap="round" stroke-linejoin="round" stroke-width="4.705028442453022"/>
  <path d="M 52.387637680746934, 108.85948701080882 Q 49.092532216241835, 116.34556472124453, 34.64981635819105, 121.3192708120751 " fill="none" id="curve_1" stroke="#000000" stroke-linecap="round" stroke-linejoin="round" stroke-width="4.939012699344037"/>
  <path d="M 34.64981635819105, 121.3192708120751 Q 18.727052066750147, 120.48388390405427, 14.573931924717701, 106.31665657509211 " fill="none" id="curve_1" stroke="#000000" stroke-linecap="round" stroke-linejoin="round" stroke-width="6.003075281190826"/>
  <path d="M 14.573931924717701, 106.31665657509211 Q 14.799287450034928, 85.61806224627014, 18.56676840538568, 76.1755712340136 " fill="none" id="curve_1" stroke="#000000" stroke-linecap="round" stroke-linejoin="round" stroke-width="4.148644747700864"/>
  <path d="M 18.56676840538568, 76.1755712340136 Q 21.795734554487805, 66.68755437246669, 27.61821664548638, 48.44690026129841 " fill="none" id="curve_1" stroke="#000000" stroke-linecap="round" stroke-linejoin="round" stroke-width="3.6472106915617992"/>
  <path d="M 27.61821664548638, 48.44690026129841 Q 31.66216315039624, 37.84388671033599, 40.457051957310824, 28.495624232429574 " fill="none" id="curve_1" stroke="#000000" stroke-linecap="round" stroke-linejoin="round" stroke-width="5.190593194178954"/>
  <path d="M 40.457051957310824, 28.495624232429574 Q 62.47776827739989, 30.362133679450757, 67.04795634331423, 55.5831881031996 " fill="none" id="curve_1" stroke="#000000" stroke-linecap="round" stroke-linejoin="round" stroke-width="4.3547975091549604"/>
  <path d="M 67.04795634331423, 55.5831881031996 Q 68.18752301616105, 62.874493866803675, 68.73961010940457, 77.60618830376147 " fill="none" id="curve_1" stroke="#000000" stroke-linecap="round" stroke-linejoin="round" stroke-width="4.248190940742469"/>
  <path d="M 68.73961010940457, 77.60618830376147 Q 66.47756042959564, 94.2989110197086, 58.06183542021576, 102.59765632677778 " fill="none" id="curve_1" stroke="#000000" stroke-linecap="round" stroke-linejoin="round" stroke-width="3.555485131744157"/>
  <path d="M 58.06183542021576, 102.59765632677778 Q 62.1692281107005, 94.8555079406982, 67.47194832214029, 83.25538391309229 " fill="none" id="curve_1" stroke="#000000" stroke-linecap="round" stroke-linejoin="round" stroke-width="3.06134810835847"/>
  <path d="M 65.69298274594392, 46.74237850054786 Q 63.589993677121946, 45.67958464543514, 63.236787648416076, 30.003706239186652 " fill="none" id="curve_2" stroke="#000000" stroke-linecap="round" stroke-linejoin="round" stroke-width="4.434512156518633"/>
  <path d="M 37.015266370237214, 29.693865605101827 Q 34.55163669581922, 34.673632273928725, 30.96826331238487, 39.02821010120329 " fill="none" id="curve_4" stroke="#000000" stroke-linecap="round" stroke-linejoin="round" stroke-width="3.877233292247782"/>
  <path d="M 56.81095322974909, 37.359909862809566 Q 59.067839665487874, 41.08057042109693, 63.410925954309086, 43.8832446873066 " fill="none" id="curve_5" stroke="#000000" stroke-linecap="round" stroke-linejoin="round" stroke-width="3.181772285377679"/>
  <path d="M 63.25092693112145, 29.26732323905602 Q 63.38949035091602, 28.982633831850045, 63.54387429625452, 28.472361864096555 " fill="none" id="curve_6" stroke="#000000" stroke-linecap="round" stroke-linejoin="round" stroke-width="2.4114504060131945"/>
  <path d="M 39.35525182599933, 30.30097248404718 Q 41.29234967756138, 29.885849655198296, 47.9527825921258, 29.263767189736903 " fill="none" id="curve_7" stroke="#000000" stroke-linecap="round" stroke-linejoin="round" stroke-width="2.539966659650496"/>
  <path d="M 89.81876575114276, 137.93577144263244 Q 89.7398834591195, 137.98126507539732, 89.64654005078654, 138.08233148801065 " fill="none" id="curve_10" stroke="#000000" stroke-linecap="round" stroke-linejoin="round" stroke-width="2.483339006541555"/>
  <path d="M 30.93364782652239, 121.79871075204609 Q 26.8801295778794, 121.7999588198692, 25.484206830182597, 121.80804302306437 " fill="none" id="curve_12" stroke="#000000" stroke-linecap="round" stroke-linejoin="round" stroke-width="3.697742864571625"/>
  <path d="M 52.93788715484845, 107.83590752097244 Q 56.48274627925698, 102.6478062152783, 61.639539089716465, 96.1225853423914 " fill="none" id="curve_13" stroke="#000000" stroke-linecap="round" stroke-linejoin="round" stroke-width="2.830346315493734"/>
  <path d="M 41.68107291205571, 115.96693426587558 Q 41.07393228912031, 119.54350192265963, 29.624563775595533, 119.96524792119774 " fill="none" id="curve_15" stroke="#000000" stroke-linecap="round" stroke-linejoin="round" stroke-width="3.5896131973804373"/>
  <path d="M 47.21599666020411, 113.857666194058 Q 44.1390167607562, 115.5466261132597, 40.487912974751346, 117.6621378481365 " fill="none" id="curve_16" stroke="#000000" stroke-linecap="round" stroke-linejoin="round" stroke-width="2.8632187549294486"/>
  <path d="M 14.415871258009755, 111.25276462973872 Q 15.711015331201803, 111.09826801645355, 18.229734505659003, 110.97379858447411 " fill="none" id="curve_18" stroke="#000000" stroke-linecap="round" stroke-linejoin="round" stroke-width="2.993737367940331"/>
  <path d="M 18.216198700875275, 73.87312337272166 Q 19.16894043475657, 71.47458089570291, 21.227996600509492, 68.21778147367107 " fill="none" id="curve_20" stroke="#000000" stroke-linecap="round" stroke-linejoin="round" stroke-width="2.5240281519843113"/>
  <path d="M 64.24797163532031, 55.264423828563054 Q 64.73982763396768, 53.38253476446808, 65.07895462118304, 44.22792135370762 " fill="none" id="curve_21" stroke="#000000" stroke-linecap="round" stroke-linejoin="round" stroke-width="2.7251845624875775"/>
  <path d="M 38.04639323568055, 29.606087089865994 Q 35.711047673480515, 31.733877226556167, 32.54702479277797, 34.48680053814469 " fill="none" id="curve_26" stroke="#000000" stroke-linecap="round" stroke-linejoin="round" stroke-width="3.109455903819651"/>
  <path d="M 67.89045906066895, 81.66210079193115 Q 66.5268666850042, 82.99657596471839, 65.20627698599094, 86.0748700248132 " fill="none" id="curve_40" stroke="#000000" stroke-linecap="round" stroke-linejoin="round" stroke-width="3.3143505037175154"/>
  <path d="M 89.43386041448366, 2.2253560559731067 Q 89.64875631721812, 2.0127006376543886, 90.00621461489047, 1.7049180590114075 " fill="none" id="curve_75" stroke="#000000" stroke-linecap="round" stroke-linejoin="round" stroke-width="1.5671894238092445"/>
  <path d="M 47.439418609617846, 30.66657354318133 Q 47.830331966432524, 30.11310469348094, 48.662772557066, 28.915379607762464 " fill="none" id="curve_142" stroke="#000000" stroke-linecap="round" stroke-linejoin="round" stroke-width="2.7920935012588988"/>
</svg>
