<?xml version="1.0" ?>
<svg height="140" width="140" xmlns="http://www.w3.org/2000/svg">
  <path d="M 48.725318908691406, 109.04447221755981 Q 46.12532036685861, 113.90353021228277, 34.857797081180706, 118.19505845113576 " fill="none" id="curve_1" stroke="#000000" stroke-linecap="round" stroke-linejoin="round" stroke-width="7.319123781733005"/>
  <path d="M 34.857797081180706, 118.19505845113576 Q 30.68350730603899, 118.3800979222523, 27.518485247064984, 118.78432506990886 " fill="none" id="curve_1" stroke="#000000" stroke-linecap="round" stroke-linejoin="round" stroke-width="4.570229233777009"/>
  <path d="M 27.518485247064984, 118.78432506990886 Q 15.812375208052533, 117.5961715220572, 13.13405586118587, 95.04185037727844 " fill="none" id="curve_1" stroke="#000000" stroke-linecap="round" stroke-linejoin="round" stroke-width="4.218616669559852"/>
  <path d="M 13.13405586118587, 95.04185037727844 Q 15.313410501439668, 81.24529506166661, 28.487397592056897, 67.12033792493719 " fill="none" id="curve_1" stroke="#000000" stroke-linecap="round" stroke-linejoin="round" stroke-width="4.435592687737625"/>
  <path d="M 28.487397592056897, 67.12033792493719 Q 32.10453852905838, 63.089184651483116, 40.38016685102691, 60.81758415091007 " fill="none" id="curve_1" stroke="#000000" stroke-linecap="round" stroke-linejoin="round" stroke-width="5.842618967749089"/>
  <path d="M 40.38016685102691, 60.81758415091007 Q 55.48360813968731, 64.18334114190219, 61.62040078132351, 82.77925394213264 " fill="none" id="curve_1" stroke="#000000" stroke-linecap="round" stroke-linejoin="round" stroke-width="5.918372982871593"/>
  <path d="M 61.62040078132351, 82.77925394213264 Q 60.37291535335731, 104.642840755605, 47.33712481340909, 109.95540443875994 " fill="none" id="curve_1" stroke="#000000" stroke-linecap="round" stroke-linejoin="round" stroke-width="5.0317268643318895"/>
  <path d="M 61.480733278173524, 78.10001576891204 Q 56.522469658658025, 70.6243700120894, 41.6479837881005, 62.21550593175964 " fill="none" id="curve_2" stroke="#000000" stroke-linecap="round" stroke-linejoin="round" stroke-width="4.3103118230493465"/>
  <path d="M 41.6479837881005, 62.21550593175964 Q 52.05690194146132, 62.620432055477586, 54.40782415664737, 64.94939025469195 " fill="none" id="curve_2" stroke="#000000" stroke-linecap="round" stroke-linejoin="round" stroke-width="4.48383762860912"/>
  <path d="M 35.26302001338762, 60.79657363105083 Q 33.65005966824967, 61.39743428853861, 31.58404798495508, 62.20643994753992 " fill="none" id="curve_3" stroke="#000000" stroke-linecap="round" stroke-linejoin="round" stroke-width="3.7832460829815555"/>
  <path d="M 20.78827476501465, 114.94854736328125 Q 18.887334929840918, 114.78325518601206, 17.006401772507957, 114.30369257461311 " fill="none" id="curve_17" stroke="#000000" stroke-linecap="round" stroke-linejoin="round" stroke-width="3.4957954817112964"/>
  <path d="M 49.522502634440585, 112.33329161057928 Q 51.96691037447758, 103.26487267629282, 60.05016852005482, 95.31861678300554 " fill="none" id="curve_18" stroke="#000000" stroke-linecap="round" stroke-linejoin="round" stroke-width="3.028907674400839"/>
  <path d="M 42.60822262531356, 64.88592753611579 Q 42.48448874418059, 63.97081747997608, 42.3334333988038, 62.415422925803114 " fill="none" id="curve_19" stroke="#000000" stroke-linecap="round" stroke-linejoin="round" stroke-width="4.896094135997068"/>
  <path d="M 45.65340088926451, 109.37945372065863 Q 45.06330423365288, 112.41520690203922, 42.0729498158949, 113.73399399335528 " fill="none" id="curve_20" stroke="#000000" stroke-linecap="round" stroke-linejoin="round" stroke-width="4.288922355383656"/>
  <path d="M 55.147036963155045, 73.15670831214722 Q 49.718376602794606, 70.01426684345107, 43.80541345354975, 59.04342771319684 " fill="none" id="curve_22" stroke="#000000" stroke-linecap="round" stroke-linejoin="round" stroke-width="2.502589914441585"/>
  <path d="M 63.132951043715295, 80.36723186404018 Q 62.79492813386375, 79.50477636987343, 62.13317222737397, 78.56840837717145 " fill="none" id="curve_23" stroke="#000000" stroke-linecap="round" stroke-linejoin="round" stroke-width="2.7917868003592625"/>
  <path d="M 13.51794604540174, 91.36443109913604 Q 14.510087858664646, 92.12060321023847, 15.274614745066165, 94.36138437264148 " fill="none" id="curve_25" stroke="#000000" stroke-linecap="round" stroke-linejoin="round" stroke-width="3.103948979555669"/>
  <path d="M 23.635350597172284, 115.66283233826779 Q 24.657070066217788, 116.7166383354112, 26.528323059060313, 117.64259798328372 " fill="none" id="curve_26" stroke="#000000" stroke-linecap="round" stroke-linejoin="round" stroke-width="3.018754075032039"/>
  <path d="M 16.091338905908582, 108.2675953891885 Q 15.295956807594226, 106.78351718608174, 14.305870604764005, 103.89152614905719 " fill="none" id="curve_27" stroke="#000000" stroke-linecap="round" stroke-linejoin="round" stroke-width="2.4050174591362055"/>
  <path d="M 46.01883321897152, 60.04379169960568 Q 45.614028270446425, 60.41504266332313, 44.796916797536845, 60.97991829330507 " fill="none" id="curve_29" stroke="#000000" stroke-linecap="round" stroke-linejoin="round" stroke-width="3.112496228706939"/>
  <path d="M 59.14032303925769, 78.99527381824389 Q 55.29761368610553, 72.79940741020263, 42.24404654005853, 63.76697931450357 " fill="none" id="curve_66" stroke="#000000" stroke-linecap="round" stroke-linejoin="round" stroke-width="2.3279990624343205"/>
</svg>
