<?xml version="1.0" ?>
<svg height="140" width="140" xmlns="http://www.w3.org/2000/svg">
  <path d="M 89.14597408420849, 102.76251156783212 Q 89.43845085328823, 109.37336249303786, 89.95882874790922, 120.31031661688749 " fill="none" id="curve_2" stroke="#000000" stroke-linecap="round" stroke-linejoin="round" stroke-width="1.8209491378244436"/>
  <path d="M 89.95882874790922, 120.31031661688749 Q 89.82685014232143, 133.5398402706057, 89.33116446487976, 138.65759419291282 " fill="none" id="curve_2" stroke="#000000" stroke-linecap="round" stroke-linejoin="round" stroke-width="1.8306693814293267"/>
  <path d="M 89.33116446487976, 138.65759419291282 Q 89.11014440670591, 138.7273749599515, 88.75751954891803, 138.79782566488151 " fill="none" id="curve_2" stroke="#000000" stroke-linecap="round" stroke-linejoin="round" stroke-width="1.9956898561817669"/>
  <path d="M 89.15721120657608, 101.2395638395289 Q 89.15892792701548, 95.30825689760745, 89.16549222312943, 85.30898197193676 " fill="none" id="curve_4" stroke="#000000" stroke-linecap="round" stroke-linejoin="round" stroke-width="2.4121445601205833"/>
  <path d="M 89.16549222312943, 85.30898197193676 Q 89.14362165040728, 79.1044739322595, 89.05800217705244, 70.25738893560501 " fill="none" id="curve_4" stroke="#000000" stroke-linecap="round" stroke-linejoin="round" stroke-width="2.436282334059691"/>
  <path d="M 89.05800217705244, 70.25738893560501 Q 89.07413258376408, 65.50137502306394, 89.11720414327415, 54.03869354463626 " fill="none" id="curve_4" stroke="#000000" stroke-linecap="round" stroke-linejoin="round" stroke-width="2.4521000242347544"/>
  <path d="M 89.11720414327415, 54.03869354463626 Q 89.5366392432175, 53.38848821994846, 89.61085166143414, 44.72841349683939 " fill="none" id="curve_4" stroke="#000000" stroke-linecap="round" stroke-linejoin="round" stroke-width="1.351962189053075"/>
  <path d="M 89.61085166143414, 44.72841349683939 Q 89.40839752150988, 41.27820617860227, 89.20986703862077, 33.39064531296738 " fill="none" id="curve_4" stroke="#000000" stroke-linecap="round" stroke-linejoin="round" stroke-width="1.8114352148858348"/>
  <path d="M 89.20986703862077, 33.39064531296738 Q 89.5253476338413, 32.89490089232601, 89.5657836963713, 22.343082891464626 " fill="none" id="curve_4" stroke="#000000" stroke-linecap="round" stroke-linejoin="round" stroke-width="1.3720617897337049"/>
  <path d="M 89.5657836963713, 22.343082891464626 Q 89.52862776068734, 20.07241525424562, 89.49858125289003, 9.96344019576108 " fill="none" id="curve_4" stroke="#000000" stroke-linecap="round" stroke-linejoin="round" stroke-width="1.4219893638178924"/>
  <path d="M 89.49858125289003, 9.96344019576108 Q 89.30588309397152, 4.673311072434643, 88.74943616231005, 0.9996512095550258 " fill="none" id="curve_4" stroke="#000000" stroke-linecap="round" stroke-linejoin="round" stroke-width="2.4014885167041458"/>
  <path d="M 88.74943616231005, 0.9996512095550258 Q 88.13852723578434, 1.2509607287876772, 87.56522241718355, 1.5780298404879645 " fill="none" id="curve_4" stroke="#000000" stroke-linecap="round" stroke-linejoin="round" stroke-width="2.6850245519688225"/>
  <path d="M 61.918354614578654, 72.3571147683068 Q 58.38117262050636, 75.04014484147939, 54.70804251586107, 92.76733442597683 " fill="none" id="curve_10" stroke="#000000" stroke-linecap="round" stroke-linejoin="round" stroke-width="5.22651315863349"/>
  <path d="M 54.70804251586107, 92.76733442597683 Q 51.964299344930595, 105.11660594329335, 36.05190733161726, 111.60256404438084 " fill="none" id="curve_10" stroke="#000000" stroke-linecap="round" stroke-linejoin="round" stroke-width="4.9193610878698015"/>
  <path d="M 36.05190733161726, 111.60256404438084 Q 21.794232578025266, 111.14600170780015, 20.183982923554048, 92.72163615301274 " fill="none" id="curve_10" stroke="#000000" stroke-linecap="round" stroke-linejoin="round" stroke-width="5.067246004097199"/>
  <path d="M 20.183982923554048, 92.72163615301274 Q 20.22551522811651, 68.3398084475885, 21.94890170897506, 65.52930658494947 " fill="none" id="curve_10" stroke="#000000" stroke-linecap="round" stroke-linejoin="round" stroke-width="5.786845693425583"/>
  <path d="M 21.94890170897506, 65.52930658494947 Q 24.189979398344153, 49.15156732906159, 36.37633189285702, 39.926202723203644 " fill="none" id="curve_10" stroke="#000000" stroke-linecap="round" stroke-linejoin="round" stroke-width="5.324352568906628"/>
  <path d="M 36.37633189285702, 39.926202723203644 Q 49.965565475014756, 39.910470449416955, 50.47112317539085, 38.75304539138112 " fill="none" id="curve_10" stroke="#000000" stroke-linecap="round" stroke-linejoin="round" stroke-width="4.408197816254603"/>
  <path d="M 50.47112317539085, 38.75304539138112 Q 55.47544669583884, 45.7141326326742, 59.4856016193559, 75.1336309476721 " fill="none" id="curve_10" stroke="#000000" stroke-linecap="round" stroke-linejoin="round" stroke-width="5.612744161123822"/>
  <path d="M 59.4856016193559, 75.1336309476721 Q 59.059469990978656, 93.3574976444997, 50.35745151338908, 97.81692736115255 " fill="none" id="curve_10" stroke="#000000" stroke-linecap="round" stroke-linejoin="round" stroke-width="2.7501195110740415"/>
  <path d="M 53.141480611446646, 51.86592355286844 Q 51.27325251424926, 37.99776490868011, 43.841886360721624, 26.846767635636535 " fill="none" id="curve_12" stroke="#000000" stroke-linecap="round" stroke-linejoin="round" stroke-width="4.0337992860924645"/>
  <path d="M 43.841886360721624, 26.846767635636535 Q 46.91238710489663, 30.028643520988354, 48.30826984389995, 39.85009836656026 " fill="none" id="curve_12" stroke="#000000" stroke-linecap="round" stroke-linejoin="round" stroke-width="2.6948952665586243"/>
  <path d="M 59.224137661854286, 76.16007497502187 Q 57.78647872060955, 77.33434743783849, 56.926553706477655, 81.1144362970802 " fill="none" id="curve_13" stroke="#000000" stroke-linecap="round" stroke-linejoin="round" stroke-width="4.438484231134962"/>
  <path d="M 18.279665608967086, 77.24773163419118 Q 19.33869492450021, 93.27195337211285, 23.349780496069894, 104.78928743763072 " fill="none" id="curve_14" stroke="#000000" stroke-linecap="round" stroke-linejoin="round" stroke-width="2.4658542662587477"/>
  <path d="M 23.349780496069894, 104.78928743763072 Q 26.822799876336788, 109.20803172675862, 38.951824486952965, 110.97846384969476 " fill="none" id="curve_14" stroke="#000000" stroke-linecap="round" stroke-linejoin="round" stroke-width="2.9054211629193656"/>
  <path d="M 38.951824486952965, 110.97846384969476 Q 48.31797682233855, 105.73399104953359, 55.40473982031503, 92.3661114937164 " fill="none" id="curve_14" stroke="#000000" stroke-linecap="round" stroke-linejoin="round" stroke-width="2.942794551425744"/>
  <path d="M 44.28091764242072, 42.289767348383684 Q 43.505426475183164, 41.92210046660271, 40.77141518143865, 41.4789223511391 " fill="none" id="curve_17" stroke="#000000" stroke-linecap="round" stroke-linejoin="round" stroke-width="3.562509655724822"/>
  <path d="M 58.25130520450239, 61.27726806238728 Q 56.151923825543086, 59.58058782446716, 54.4411665859252, 55.95081270112374 " fill="none" id="curve_24" stroke="#000000" stroke-linecap="round" stroke-linejoin="round" stroke-width="3.373481065450766"/>
  <path d="M 28.74690432507814, 45.16344908415819 Q 25.23800441109567, 54.70207763234125, 19.54304521452177, 66.61649887986614 " fill="none" id="curve_27" stroke="#000000" stroke-linecap="round" stroke-linejoin="round" stroke-width="2.7789058807608993"/>
  <path d="M 22.71912426375102, 101.62418026336476 Q 21.015068866015934, 97.06602579180107, 18.569835725279088, 89.92739519756024 " fill="none" id="curve_28" stroke="#000000" stroke-linecap="round" stroke-linejoin="round" stroke-width="2.5308835156776195"/>
  <path d="M 18.569835725279088, 89.92739519756024 Q 22.801816911854843, 98.46827867234599, 27.9334836731574, 108.24643539760412 " fill="none" id="curve_28" stroke="#000000" stroke-linecap="round" stroke-linejoin="round" stroke-width="2.806186500828861"/>
  <path d="M 23.026807455700922, 58.377896422506424 Q 24.90829746176778, 55.972889957830006, 26.897481347313054, 51.190509790227104 " fill="none" id="curve_63" stroke="#000000" stroke-linecap="round" stroke-linejoin="round" stroke-width="2.915715317221086"/>
  <path d="M 49.75397968067682, 98.31547801013744 Q 52.11253611139446, 95.62946901216098, 54.642181783423275, 91.49760518222755 " fill="none" id="curve_78" stroke="#000000" stroke-linecap="round" stroke-linejoin="round" stroke-width="2.657025231487235"/>
  <path d="M 61.32732576980061, 67.36325855326595 Q 58.11046841538064, 70.97321389604309, 56.38115311424474, 80.55794162567966 " fill="none" id="curve_93" stroke="#000000" stroke-linecap="round" stroke-linejoin="round" stroke-width="2.5331262055333124"/>
  <path d="M 18.746463303594624, 75.54342985139476 Q 19.12633473609019, 74.59802237101145, 19.70070706083229, 73.45640855455508 " fill="none" id="curve_147" stroke="#000000" stroke-linecap="round" stroke-linejoin="round" stroke-width="4.337007221797232"/>
  <path d="M 25.22652857378171, 53.133292408052384 Q 24.727538486283432, 53.94204443232943, 23.853258274777108, 55.6787003176234 " fill="none" id="curve_168" stroke="#000000" stroke-linecap="round" stroke-linejoin="round" stroke-width="3.252707976717782"/>
</svg>
