<?xml version="1.0" ?>
<svg height="140" width="140" xmlns="http://www.w3.org/2000/svg">
  <path d="M 54.623451232910156, 33.507240295410156 Q 54.7955419061849, 33.85126932046047, 55.31714234123186, 34.415434700276464 " fill="none" id="curve_1" stroke="#000000" stroke-linecap="round" stroke-linejoin="round" stroke-width="7.123106985504107"/>
  <path d="M 55.31714234123186, 34.415434700276464 Q 57.517905989774306, 35.30835994803292, 57.869039613177456, 53.560368928255826 " fill="none" id="curve_1" stroke="#000000" stroke-linecap="round" stroke-linejoin="round" stroke-width="5.899928116001103"/>
  <path d="M 57.869039613177456, 53.560368928255826 Q 57.210574911984, 65.08290166527908, 53.467653315591136, 79.0079262074819 " fill="none" id="curve_1" stroke="#000000" stroke-linecap="round" stroke-linejoin="round" stroke-width="4.44097497194274"/>
  <path d="M 53.467653315591136, 79.0079262074819 Q 50.77802595409049, 91.51672029748828, 35.13697769326222, 98.52978916642228 " fill="none" id="curve_1" stroke="#000000" stroke-linecap="round" stroke-linejoin="round" stroke-width="5.505573765183751"/>
  <path d="M 35.13697769326222, 98.52978916642228 Q 18.7609515969192, 97.81123852029094, 16.05141306975787, 77.84731437465665 " fill="none" id="curve_1" stroke="#000000" stroke-linecap="round" stroke-linejoin="round" stroke-width="5.083313628667411"/>
  <path d="M 16.05141306975787, 77.84731437465665 Q 17.1520125127146, 60.62941274959618, 26.86722805335019, 44.87585205669686 " fill="none" id="curve_1" stroke="#000000" stroke-linecap="round" stroke-linejoin="round" stroke-width="5.5114536160703524"/>
  <path d="M 26.86722805335019, 44.87585205669686 Q 32.0907134300095, 36.70398644287312, 44.0514528301007, 29.971166281888202 " fill="none" id="curve_1" stroke="#000000" stroke-linecap="round" stroke-linejoin="round" stroke-width="4.322291060700681"/>
  <path d="M 44.0514528301007, 29.971166281888202 Q 49.98268500918636, 31.1157965799409, 54.181174446770115, 32.985162215282415 " fill="none" id="curve_1" stroke="#000000" stroke-linecap="round" stroke-linejoin="round" stroke-width="4.527929524548466"/>
  <path d="M 90.42115385642265, 27.87738260675802 Q 90.36770844911307, 25.1173223954655, 90.30583179252106, 16.525865755605142 " fill="none" id="curve_2" stroke="#000000" stroke-linecap="round" stroke-linejoin="round" stroke-width="1.7258623911709083"/>
  <path d="M 90.30583179252106, 16.525865755605142 Q 90.1594521266666, 6.834718504889318, 89.53625601939487, 1.2710336063045435 " fill="none" id="curve_2" stroke="#000000" stroke-linecap="round" stroke-linejoin="round" stroke-width="2.085133622983394"/>
  <path d="M 89.54993251070516, 31.490081539086383 Q 89.57577263633843, 43.04023915808696, 89.72203830301297, 58.33211196549298 " fill="none" id="curve_3" stroke="#000000" stroke-linecap="round" stroke-linejoin="round" stroke-width="1.5377443150276602"/>
  <path d="M 89.72203830301297, 58.33211196549298 Q 89.71821391680666, 67.15193936604258, 89.70030925526667, 82.31796759691454 " fill="none" id="curve_3" stroke="#000000" stroke-linecap="round" stroke-linejoin="round" stroke-width="1.6231380586646316"/>
  <path d="M 89.70030925526667, 82.31796759691454 Q 89.69751597574627, 90.48506205031012, 89.68420171671842, 104.87441406130733 " fill="none" id="curve_3" stroke="#000000" stroke-linecap="round" stroke-linejoin="round" stroke-width="1.5511992400787664"/>
  <path d="M 89.68420171671842, 104.87441406130733 Q 89.68509710381605, 112.17663586251255, 89.68919186786128, 127.19694755327059 " fill="none" id="curve_3" stroke="#000000" stroke-linecap="round" stroke-linejoin="round" stroke-width="1.5589702496742703"/>
  <path d="M 89.68919186786128, 127.19694755327059 Q 89.62738063370536, 136.09984170597335, 89.3656413730882, 138.87394063318672 " fill="none" id="curve_3" stroke="#000000" stroke-linecap="round" stroke-linejoin="round" stroke-width="1.9438786586813"/>
  <path d="M 89.3656413730882, 138.87394063318672 Q 89.14313910263091, 138.74742371465405, 88.71827207182159, 138.64324374786642 " fill="none" id="curve_3" stroke="#000000" stroke-linecap="round" stroke-linejoin="round" stroke-width="1.6652520199459981"/>
  <path d="M 55.57093537026988, 76.0887819494352 Q 56.636466914875115, 75.0678509542558, 57.05134663054573, 69.76571003117415 " fill="none" id="curve_7" stroke="#000000" stroke-linecap="round" stroke-linejoin="round" stroke-width="2.4724623748161276"/>
  <path d="M 57.05134663054573, 69.76571003117415 Q 54.62402894924237, 76.00283209492893, 49.52989489825975, 82.8116753207388 " fill="none" id="curve_7" stroke="#000000" stroke-linecap="round" stroke-linejoin="round" stroke-width="3.093752206460464"/>
  <path d="M 49.52989489825975, 82.8116753207388 Q 47.97055758499649, 88.97275489313851, 40.372025236157754, 92.74631590972342 " fill="none" id="curve_7" stroke="#000000" stroke-linecap="round" stroke-linejoin="round" stroke-width="2.5337497871877273"/>
  <path d="M 42.641649396397035, 96.29433201530439 Q 41.39702173719789, 97.36578994591093, 36.602598717230876, 97.77910560831711 " fill="none" id="curve_8" stroke="#000000" stroke-linecap="round" stroke-linejoin="round" stroke-width="2.916930495673192"/>
  <path d="M 36.602598717230876, 97.77910560831711 Q 27.764262473491513, 96.91740769090369, 23.513031408263878, 93.41920463577775 " fill="none" id="curve_8" stroke="#000000" stroke-linecap="round" stroke-linejoin="round" stroke-width="3.042232079205"/>
  <path d="M 14.607172780881047, 76.0005372868216 Q 14.809107222611281, 62.30454326114217, 18.4946365973214, 60.16564679806368 " fill="none" id="curve_9" stroke="#000000" stroke-linecap="round" stroke-linejoin="round" stroke-width="2.840580929609884"/>
  <path d="M 29.67395840503531, 39.37827014530699 Q 25.272205703491824, 44.888483445677224, 19.899931480773624, 58.175315222102014 " fill="none" id="curve_12" stroke="#000000" stroke-linecap="round" stroke-linejoin="round" stroke-width="3.104884082209317"/>
  <path d="M 37.706319872885175, 32.53608301376053 Q 39.92035572514141, 31.271264716583637, 50.80691467544203, 30.580593824915066 " fill="none" id="curve_13" stroke="#000000" stroke-linecap="round" stroke-linejoin="round" stroke-width="2.6051175790013263"/>
  <path d="M 19.643659961486698, 60.92940658401501 Q 21.09533991421465, 49.57190955364125, 28.62005266394558, 42.01795784755873 " fill="none" id="curve_18" stroke="#000000" stroke-linecap="round" stroke-linejoin="round" stroke-width="2.4503149295098847"/>
  <path d="M 55.07504595437307, 73.63660589572348 Q 54.71812994845957, 72.61685115573152, 53.841044737267886, 71.60290300699855 " fill="none" id="curve_25" stroke="#000000" stroke-linecap="round" stroke-linejoin="round" stroke-width="3.8728646471228734"/>
  <path d="M 29.05667788508057, 96.9789547827018 Q 24.49881578648344, 96.1615692242348, 21.638651352012857, 93.56234568181684 " fill="none" id="curve_29" stroke="#000000" stroke-linecap="round" stroke-linejoin="round" stroke-width="4.075454527552761"/>
  <path d="M 45.72692400217056, 30.732460021972656 Q 43.846806896867854, 30.80822529476247, 40.54263953894167, 30.966697376436958 " fill="none" id="curve_43" stroke="#000000" stroke-linecap="round" stroke-linejoin="round" stroke-width="2.4037871237091655"/>
  <path d="M 19.23404888660255, 89.14262366245842 Q 23.286959459220274, 92.28369387624141, 30.308915208718844, 96.27812059881485 " fill="none" id="curve_76" stroke="#000000" stroke-linecap="round" stroke-linejoin="round" stroke-width="2.3804917475011087"/>
  <path d="M 37.03685947012816, 32.25569895524549 Q 40.73408789610597, 31.413449843724468, 50.294790666278026, 30.627571622639856 " fill="none" id="curve_137" stroke="#000000" stroke-linecap="round" stroke-linejoin="round" stroke-width="2.4893366285807406"/>
</svg>
