<?xml version="1.0" ?>
<svg height="140" width="140" xmlns="http://www.w3.org/2000/svg">
  <path d="M 45.74246311187744, 69.36320495605469 Q 43.73330219022824, 71.84866653192304, 39.82353294705956, 79.460484897156 " fill="none" id="curve_1" stroke="#000000" stroke-linecap="round" stroke-linejoin="round" stroke-width="5.426261147836528"/>
  <path d="M 39.82353294705956, 79.460484897156 Q 36.41244733218288, 84.71789121800589, 28.100916088304594, 88.44919247917659 " fill="none" id="curve_1" stroke="#000000" stroke-linecap="round" stroke-linejoin="round" stroke-width="5.503034618470505"/>
  <path d="M 28.100916088304594, 88.44919247917659 Q 16.3416685206347, 87.44317598898178, 13.272888833040312, 73.19185754290068 " fill="none" id="curve_1" stroke="#000000" stroke-linecap="round" stroke-linejoin="round" stroke-width="5.841579729030869"/>
  <path d="M 13.272888833040312, 73.19185754290068 Q 13.191526608382446, 63.52085341152044, 12.487619332301634, 61.86861464389004 " fill="none" id="curve_1" stroke="#000000" stroke-linecap="round" stroke-linejoin="round" stroke-width="6.320275886763764"/>
  <path d="M 12.487619332301634, 61.86861464389004 Q 14.432093548871173, 48.25912334135054, 40.37398419772707, 42.63479422601078 " fill="none" id="curve_1" stroke="#000000" stroke-linecap="round" stroke-linejoin="round" stroke-width="5.9315308641989235"/>
  <path d="M 40.37398419772707, 42.63479422601078 Q 39.877709903969475, 49.90803319114613, 35.68367920746246, 51.087620284933216 " fill="none" id="curve_1" stroke="#000000" stroke-linecap="round" stroke-linejoin="round" stroke-width="5.222073204800284"/>
  <path d="M 50.98697490034537, 51.94057358685627 Q 50.696001727030385, 69.70315866152899, 44.57836547393565, 71.66891558465272 " fill="none" id="curve_2" stroke="#000000" stroke-linecap="round" stroke-linejoin="round" stroke-width="4.663439956804687"/>
  <path d="M 47.782141186478725, 49.94721385418681 Q 43.2889676956937, 49.0247420358409, 40.6047287035647, 45.91473991851391 " fill="none" id="curve_3" stroke="#000000" stroke-linecap="round" stroke-linejoin="round" stroke-width="4.537696325630572"/>
  <path d="M 36.32893546463669, 52.448747972861135 Q 36.12035323051649, 47.73238619918875, 34.29713613371736, 46.460975881038216 " fill="none" id="curve_4" stroke="#000000" stroke-linecap="round" stroke-linejoin="round" stroke-width="3.329269396640356"/>
  <path d="M 87.92988062794433, 5.905432085282534 Q 88.9026973244924, 7.312454857697162, 89.05113423304104, 47.72468423288128 " fill="none" id="curve_12" stroke="#000000" stroke-linecap="round" stroke-linejoin="round" stroke-width="2.9055410517249216"/>
  <path d="M 89.05113423304104, 47.72468423288128 Q 89.03035672922849, 58.785529707715355, 88.94288742123096, 90.91467336241058 " fill="none" id="curve_12" stroke="#000000" stroke-linecap="round" stroke-linejoin="round" stroke-width="3.0725760183800075"/>
  <path d="M 88.94288742123096, 90.91467336241058 Q 88.94253287376904, 102.23349687002887, 88.94057251884443, 126.63455311632119 " fill="none" id="curve_12" stroke="#000000" stroke-linecap="round" stroke-linejoin="round" stroke-width="3.2974393192521947"/>
  <path d="M 88.94057251884443, 126.63455311632119 Q 88.85580451519394, 136.0453283320487, 88.41964307673753, 138.9457088834841 " fill="none" id="curve_12" stroke="#000000" stroke-linecap="round" stroke-linejoin="round" stroke-width="3.5052162639858095"/>
  <path d="M 88.41964307673753, 138.9457088834841 Q 87.82896923106898, 138.72562875031844, 86.82496094154735, 138.51373558627293 " fill="none" id="curve_12" stroke="#000000" stroke-linecap="round" stroke-linejoin="round" stroke-width="2.449935952867255"/>
  <path d="M 52.30225998831916, 61.24973137398087 Q 51.78388723143866, 53.03885049413709, 44.869672780245025, 49.4155739875648 " fill="none" id="curve_16" stroke="#000000" stroke-linecap="round" stroke-linejoin="round" stroke-width="2.2055063365996435"/>
  <path d="M 44.869672780245025, 49.4155739875648 Q 44.496110551514455, 45.396093702052134, 40.6973069382263, 44.41170999497642 " fill="none" id="curve_16" stroke="#000000" stroke-linecap="round" stroke-linejoin="round" stroke-width="2.931264714610373"/>
  <path d="M 50.739906277738434, 63.47176506222038 Q 44.84927694491654, 66.55053605593933, 42.66829531471232, 78.66444413845915 " fill="none" id="curve_17" stroke="#000000" stroke-linecap="round" stroke-linejoin="round" stroke-width="2.7482626567553865"/>
  <path d="M 90.09527113811109, 44.64236506265067 Q 89.56654860910874, 43.11886020215835, 89.3798770852674, 22.861742766864396 " fill="none" id="curve_20" stroke="#000000" stroke-linecap="round" stroke-linejoin="round" stroke-width="1.718940798630683"/>
  <path d="M 89.3798770852674, 22.861742766864396 Q 89.04062564136545, 15.449471402754778, 88.57737442395779, 1.8582593270140748 " fill="none" id="curve_20" stroke="#000000" stroke-linecap="round" stroke-linejoin="round" stroke-width="2.922448387395431"/>
  <path d="M 88.57737442395779, 1.8582593270140748 Q 88.06301562804016, 1.9392556283797995, 87.66250742111296, 2.1157200392578988 " fill="none" id="curve_20" stroke="#000000" stroke-linecap="round" stroke-linejoin="round" stroke-width="4.525362906856327"/>
  <path d="M 49.86166993251389, 57.77320227300885 Q 47.62834598105196, 66.40354442063159, 42.833179117939366, 76.5832851081571 " fill="none" id="curve_25" stroke="#000000" stroke-linecap="round" stroke-linejoin="round" stroke-width="2.5150069450920265"/>
  <path d="M 9.435088331374217, 66.95004124239304 Q 10.67893661490089, 65.56771535637058, 12.145034446735352, 61.80050046793843 " fill="none" id="curve_26" stroke="#000000" stroke-linecap="round" stroke-linejoin="round" stroke-width="2.675099461180342"/>
  <path d="M 18.760933324438362, 82.36641104017193 Q 16.76785973716804, 77.74765765701126, 11.57295369184893, 72.05973270436748 " fill="none" id="curve_27" stroke="#000000" stroke-linecap="round" stroke-linejoin="round" stroke-width="2.8125624058068928"/>
  <path d="M 11.57295369184893, 72.05973270436748 Q 12.872375306445111, 82.08272241773327, 24.353459630656467, 85.40986374126142 " fill="none" id="curve_27" stroke="#000000" stroke-linecap="round" stroke-linejoin="round" stroke-width="2.3289015615863047"/>
  <path d="M 25.964485235766954, 45.737285699271055 Q 22.27181020870579, 47.30030284501389, 18.053304230167832, 50.598990189744846 " fill="none" id="curve_30" stroke="#000000" stroke-linecap="round" stroke-linejoin="round" stroke-width="2.727857391975951"/>
  <path d="M 51.62407891010209, 58.23482329058574 Q 50.31352786020498, 54.43585230424154, 46.942270252617746, 49.77410827648684 " fill="none" id="curve_38" stroke="#000000" stroke-linecap="round" stroke-linejoin="round" stroke-width="2.327163187336877"/>
  <path d="M 19.941860536375, 81.99470129069402 Q 15.943318603101801, 79.73424431181584, 12.160790528554767, 73.8305424814134 " fill="none" id="curve_132" stroke="#000000" stroke-linecap="round" stroke-linejoin="round" stroke-width="3.256640373856342"/>
</svg>
