<?xml version="1.0" ?>
<svg height="140" width="140" xmlns="http://www.w3.org/2000/svg">
  <path d="M 46.613128662109375, 91.1802282333374 Q 45.98182357126921, 92.42368734519546, 41.06889932621681, 93.0235057803452 " fill="none" id="curve_1" stroke="#000000" stroke-linecap="round" stroke-linejoin="round" stroke-width="5.507295574033158"/>
  <path d="M 41.06889932621681, 93.0235057803452 Q 34.18606380409838, 92.01175773237658, 32.009965505211454, 82.73032754421652 " fill="none" id="curve_1" stroke="#000000" stroke-linecap="round" stroke-linejoin="round" stroke-width="4.945737387172259"/>
  <path d="M 32.009965505211454, 82.73032754421652 Q 32.106740913210984, 65.6458445094498, 33.75858215322995, 62.08308774435872 " fill="none" id="curve_1" stroke="#000000" stroke-linecap="round" stroke-linejoin="round" stroke-width="5.704092220634958"/>
  <path d="M 33.75858215322995, 62.08308774435872 Q 35.26291481106843, 45.27269615151374, 47.332047819373756, 35.909926300780505 " fill="none" id="curve_1" stroke="#000000" stroke-linecap="round" stroke-linejoin="round" stroke-width="3.9781197626557976"/>
  <path d="M 53.97215301177495, 32.591547679255044 Q 62.860008725769234, 34.47478011516082, 64.3130023113318, 47.200781530820414 " fill="none" id="curve_2" stroke="#000000" stroke-linecap="round" stroke-linejoin="round" stroke-width="5.311689224294547"/>
  <path d="M 64.3130023113318, 47.200781530820414 Q 63.39298066796141, 65.36790766451288, 53.1322205603409, 81.35256410909082 " fill="none" id="curve_2" stroke="#000000" stroke-linecap="round" stroke-linejoin="round" stroke-width="5.040697536820952"/>
  <path d="M 53.1322205603409, 81.35256410909082 Q 50.50037799732587, 87.25333013300538, 46.3381833800482, 91.25261660507131 " fill="none" id="curve_2" stroke="#000000" stroke-linecap="round" stroke-linejoin="round" stroke-width="5.386362406657517"/>
  <path d="M 30.694719584181833, 76.73885806041409 Q 31.105286161662875, 71.61949418090198, 31.68101058804624, 65.31910007298536 " fill="none" id="curve_3" stroke="#000000" stroke-linecap="round" stroke-linejoin="round" stroke-width="2.5860894842070308"/>
  <path d="M 51.6601952259856, 32.79909618445895 Q 54.35001015461247, 32.933727870566685, 56.84608243581505, 33.17048177495699 " fill="none" id="curve_4" stroke="#000000" stroke-linecap="round" stroke-linejoin="round" stroke-width="4.543197902157365"/>
  <path d="M 56.84608243581505, 33.17048177495699 Q 55.92143708758138, 32.50407855000692, 53.66062808827543, 31.914780258465836 " fill="none" id="curve_4" stroke="#000000" stroke-linecap="round" stroke-linejoin="round" stroke-width="3.3779042487416793"/>
  <path d="M 60.066306734714146, 69.70091991643093 Q 58.67497517452609, 69.50260871161704, 57.2917470698564, 69.02720442771675 " fill="none" id="curve_5" stroke="#000000" stroke-linecap="round" stroke-linejoin="round" stroke-width="4.932917157374862"/>
  <path d="M 1.6410289535907623, 1.5149671008748555 Q 1.1527291437637257, 1.9508922632955987, 0.8647745210235864, 3.985629792369352 " fill="none" id="curve_20" stroke="#000000" stroke-linecap="round" stroke-linejoin="round" stroke-width="1.4202301097605008"/>
  <path d="M 49.83682060241699, 89.90814018249512 Q 48.295052767348416, 90.78026776624971, 40.14507016722882, 91.16683889695521 " fill="none" id="curve_34" stroke="#000000" stroke-linecap="round" stroke-linejoin="round" stroke-width="3.333923075034803"/>
  <path d="M 40.14507016722882, 91.16683889695521 Q 35.90487560097902, 89.47140236050787, 33.55499517754402, 83.22713798875262 " fill="none" id="curve_34" stroke="#000000" stroke-linecap="round" stroke-linejoin="round" stroke-width="2.600779994095808"/>
  <path d="M 59.6963883094891, 65.78481705918713 Q 58.89484365184954, 66.54156649800721, 58.214857161428405, 68.61994358671775 " fill="none" id="curve_77" stroke="#000000" stroke-linecap="round" stroke-linejoin="round" stroke-width="3.2713839795654507"/>
  <path d="M 29.943532598979175, 80.10051924049111 Q 30.517550272729824, 79.76768107130084, 31.04575795596589, 79.08425550983308 " fill="none" id="curve_105" stroke="#000000" stroke-linecap="round" stroke-linejoin="round" stroke-width="3.2893680497898314"/>
  <path d="M 61.19203853607178, 47.75449228286743 Q 61.10386374077395, 36.17771437394589, 59.8475868472013, 33.7090938819905 " fill="none" id="curve_119" stroke="#000000" stroke-linecap="round" stroke-linejoin="round" stroke-width="2.4868247478546475"/>
  <path d="M 31.884683239830046, 64.75342145548795 Q 32.08914713322326, 59.56877221728461, 36.386599768153076, 59.04997764225959 " fill="none" id="curve_137" stroke="#000000" stroke-linecap="round" stroke-linejoin="round" stroke-width="2.5421175365644326"/>
</svg>
