<?xml version="1.0" ?>
<svg height="140" width="140" xmlns="http://www.w3.org/2000/svg">
  <path d="M 88.39154756069183, 125.82872831821442 Q 88.97765834953202, 129.53116213733455, 89.32475364591093, 138.60967629880315 " fill="none" id="curve_1" stroke="#000000" stroke-linecap="round" stroke-linejoin="round" stroke-width="2.6192814171382857"/>
  <path d="M 89.13879209058575, 125.65083455185706 Q 89.21906595405702, 122.07069557776448, 89.31634029713577, 103.97929242938176 " fill="none" id="curve_2" stroke="#000000" stroke-linecap="round" stroke-linejoin="round" stroke-width="2.5408498113972033"/>
  <path d="M 89.31634029713577, 103.97929242938176 Q 89.20519971953574, 100.59703230880176, 89.08202354138251, 85.06723692488185 " fill="none" id="curve_2" stroke="#000000" stroke-linecap="round" stroke-linejoin="round" stroke-width="2.4633886545061197"/>
  <path d="M 89.08202354138251, 85.06723692488185 Q 89.14592383338173, 81.78047290358361, 89.23072868677424, 65.37450362343985 " fill="none" id="curve_2" stroke="#000000" stroke-linecap="round" stroke-linejoin="round" stroke-width="2.5018179167606283"/>
  <path d="M 89.23072868677424, 65.37450362343985 Q 89.20199633556241, 59.191990824262476, 89.11941398734108, 46.66674369362758 " fill="none" id="curve_2" stroke="#000000" stroke-linecap="round" stroke-linejoin="round" stroke-width="2.4258558205296454"/>
  <path d="M 89.11941398734108, 46.66674369362758 Q 89.14254376800389, 41.655550870112194, 89.19596537278751, 27.488364009099918 " fill="none" id="curve_2" stroke="#000000" stroke-linecap="round" stroke-linejoin="round" stroke-width="2.432145201631876"/>
  <path d="M 89.19596537278751, 27.488364009099918 Q 89.18247578137981, 20.30407785817463, 89.13152369904483, 8.631637164425687 " fill="none" id="curve_2" stroke="#000000" stroke-linecap="round" stroke-linejoin="round" stroke-width="2.357512163641096"/>
  <path d="M 89.13152369904483, 8.631637164425687 Q 89.08350797045307, 2.520894186551229, 88.56622254894046, 1.6165831152123182 " fill="none" id="curve_2" stroke="#000000" stroke-linecap="round" stroke-linejoin="round" stroke-width="3.059087762968801"/>
  <path d="M 88.56622254894046, 1.6165831152123182 Q 88.94494517926657, 1.629265743254502, 89.25644053040918, 1.6550679121153224 " fill="none" id="curve_2" stroke="#000000" stroke-linecap="round" stroke-linejoin="round" stroke-width="2.4346282585277055"/>
  <path d="M 88.07801997058088, 3.6228476845966355 Q 88.47244028997127, 2.2440858050762764, 89.29125041551498, 1.1550415479386276 " fill="none" id="curve_9" stroke="#000000" stroke-linecap="round" stroke-linejoin="round" stroke-width="2.2615321512898325"/>
  <path d="M 59.53303567299809, 75.50024023304222 Q 56.67228332317415, 88.56584445610217, 36.91848503929315, 105.3203599043486 " fill="none" id="curve_17" stroke="#000000" stroke-linecap="round" stroke-linejoin="round" stroke-width="3.6261162733341985"/>
  <path d="M 36.91848503929315, 105.3203599043486 Q 34.85091344401695, 107.04250160068356, 22.47581163258638, 107.40467099182487 " fill="none" id="curve_17" stroke="#000000" stroke-linecap="round" stroke-linejoin="round" stroke-width="5.653579980271271"/>
  <path d="M 22.47581163258638, 107.40467099182487 Q 12.52311349525401, 104.39409422033852, 6.450175920274173, 89.58336802176595 " fill="none" id="curve_17" stroke="#000000" stroke-linecap="round" stroke-linejoin="round" stroke-width="5.020433682738018"/>
  <path d="M 6.450175920274173, 89.58336802176595 Q 7.531159038009727, 76.085218003539, 14.486682189019703, 60.24789249373967 " fill="none" id="curve_17" stroke="#000000" stroke-linecap="round" stroke-linejoin="round" stroke-width="5.28313880069808"/>
  <path d="M 14.486682189019703, 60.24789249373967 Q 19.438848170131372, 50.16134968046551, 35.10352018167443, 37.65153382530505 " fill="none" id="curve_17" stroke="#000000" stroke-linecap="round" stroke-linejoin="round" stroke-width="6.720401565275532"/>
  <path d="M 35.10352018167443, 37.65153382530505 Q 56.76497304949122, 38.477464765357745, 60.89782670980634, 50.91085020492987 " fill="none" id="curve_17" stroke="#000000" stroke-linecap="round" stroke-linejoin="round" stroke-width="3.1198820786061794"/>
  <path d="M 60.89782670980634, 50.91085020492987 Q 62.05949637527649, 53.81508886013365, 62.36455882755776, 68.39361072212611 " fill="none" id="curve_17" stroke="#000000" stroke-linecap="round" stroke-linejoin="round" stroke-width="2.621722040798326"/>
  <path d="M 30.01246820514625, 38.37733344016429 Q 12.545664327631105, 39.460222149301636, 2.991844216979203, 60.01986600398739 " fill="none" id="curve_19" stroke="#000000" stroke-linecap="round" stroke-linejoin="round" stroke-width="2.5143352496811744"/>
  <path d="M 2.991844216979203, 60.01986600398739 Q 2.2121806160127973, 60.894040967895975, 2.1232969745531247, 72.88820156122941 " fill="none" id="curve_19" stroke="#000000" stroke-linecap="round" stroke-linejoin="round" stroke-width="2.9223436997187213"/>
  <path d="M 13.709076232631277, 54.99295571041809 Q 12.434359503241756, 61.23483076437889, 10.268648734950997, 67.25432025582901 " fill="none" id="curve_20" stroke="#000000" stroke-linecap="round" stroke-linejoin="round" stroke-width="2.8147834588926752"/>
  <path d="M 29.149174650512823, 37.58915139716267 Q 27.82165830880189, 37.75327440555379, 25.45343854610872, 38.08726792784695 " fill="none" id="curve_21" stroke="#000000" stroke-linecap="round" stroke-linejoin="round" stroke-width="2.9930980404830603"/>
  <path d="M 61.210675028943946, 70.2285135619124 Q 59.722715844311445, 77.48884082311649, 55.116586358906666, 84.66126680638982 " fill="none" id="curve_22" stroke="#000000" stroke-linecap="round" stroke-linejoin="round" stroke-width="2.04704922081612"/>
  <path d="M 46.12163786636899, 100.0756574188075 Q 38.667381096840764, 101.56007009713744, 33.292603240663595, 106.04881408064531 " fill="none" id="curve_23" stroke="#000000" stroke-linecap="round" stroke-linejoin="round" stroke-width="2.170087657504111"/>
  <path d="M 33.292603240663595, 106.04881408064531 Q 17.641444421101603, 105.54034099764678, 13.652158116505479, 101.57710497645162 " fill="none" id="curve_23" stroke="#000000" stroke-linecap="round" stroke-linejoin="round" stroke-width="2.5100685852086038"/>
  <path d="M 13.652158116505479, 101.57710497645162 Q 11.363161667332086, 99.31848327968623, 8.097916839364395, 97.33067917284676 " fill="none" id="curve_23" stroke="#000000" stroke-linecap="round" stroke-linejoin="round" stroke-width="4.832762686883132"/>
  <path d="M 9.651995830464791, 68.64858739379005 Q 8.620575697139056, 68.71723791112666, 8.353242974880983, 69.8793596044887 " fill="none" id="curve_24" stroke="#000000" stroke-linecap="round" stroke-linejoin="round" stroke-width="3.9379342652976876"/>
  <path d="M 19.03073204574695, 49.07216844562579 Q 22.389727885346844, 46.89607215342675, 26.64970867748348, 44.106073220333236 " fill="none" id="curve_26" stroke="#000000" stroke-linecap="round" stroke-linejoin="round" stroke-width="2.6182230523129646"/>
  <path d="M 34.30691370210621, 37.99804196537603 Q 35.16967973590227, 39.04854519745515, 36.29576952171607, 40.26573576771118 " fill="none" id="curve_27" stroke="#000000" stroke-linecap="round" stroke-linejoin="round" stroke-width="3.004144091590057"/>
  <path d="M 31.586244700642848, 36.8594881335164 Q 31.71568407377261, 36.83514956189424, 31.86665499304301, 36.79646145344644 " fill="none" id="curve_28" stroke="#000000" stroke-linecap="round" stroke-linejoin="round" stroke-width="3.554666926055377"/>
  <path d="M 58.93253895703803, 79.05762642815762 Q 56.22926586780365, 82.9202624048909, 51.89569588673531, 91.38369330407309 " fill="none" id="curve_30" stroke="#000000" stroke-linecap="round" stroke-linejoin="round" stroke-width="2.4531526612526173"/>
  <path d="M 57.06719035282742, 78.90898613396557 Q 58.16877350477957, 78.53813560801565, 59.21462468852485, 77.46696270231654 " fill="none" id="curve_31" stroke="#000000" stroke-linecap="round" stroke-linejoin="round" stroke-width="2.6997579379064227"/>
  <path d="M 50.45576112802166, 93.75566765971507 Q 46.61993901927206, 94.9991001406526, 44.21283997356041, 100.27898999592026 " fill="none" id="curve_59" stroke="#000000" stroke-linecap="round" stroke-linejoin="round" stroke-width="2.4504740473681785"/>
  <path d="M 12.719666036776157, 98.45362110500079 Q 11.683142345531882, 93.19356983525084, 6.2499212005336, 90.42190303503831 " fill="none" id="curve_75" stroke="#000000" stroke-linecap="round" stroke-linejoin="round" stroke-width="2.5544377261026865"/>
  <path d="M 5.418208190365483, 83.25363867919776 Q 5.497196144253241, 83.19189747290521, 5.575872288673811, 83.03884483809142 " fill="none" id="curve_83" stroke="#000000" stroke-linecap="round" stroke-linejoin="round" stroke-width="3.5743423493391755"/>
  <path d="M 5.656342160445078, 54.66086249929018 Q 5.169453025760578, 54.65327662180408, 4.391822569846687, 54.63778549787127 " fill="none" id="curve_88" stroke="#000000" stroke-linecap="round" stroke-linejoin="round" stroke-width="1.8389988424191357"/>
  <path d="M 40.43686226579723, 103.53914833669944 Q 37.740255258606126, 104.3871507337655, 33.522841174058534, 105.43545259162485 " fill="none" id="curve_103" stroke="#000000" stroke-linecap="round" stroke-linejoin="round" stroke-width="2.657590183189399"/>
  <path d="M 89.21744413085311, 139.38733044936825 Q 89.27026065458672, 138.83993583782998, 89.38349594040609, 138.26511777039926 " fill="none" id="curve_149" stroke="#000000" stroke-linecap="round" stroke-linejoin="round" stroke-width="1.887511627687434"/>
  <path d="M 89.54605593374505, 128.5789674281669 Q 89.34123361710773, 129.67664954452212, 89.11827573946155, 131.82720639134175 " fill="none" id="curve_151" stroke="#000000" stroke-linecap="round" stroke-linejoin="round" stroke-width="1.5956390979538275"/>
</svg>
