<?xml version="1.0" ?>
<svg height="140" width="140" xmlns="http://www.w3.org/2000/svg">
  <path d="M 26.88424587249756, 91.0984992980957 Q 26.895873072681994, 81.49624154910632, 26.939447816181385, 70.97704647628518 " fill="none" id="curve_1" stroke="#000000" stroke-linecap="round" stroke-linejoin="round" stroke-width="7.671753945204734"/>
  <path d="M 26.939447816181385, 70.97704647628518 Q 29.89756857223942, 60.982037436720795, 40.84454427601255, 54.49025824283185 " fill="none" id="curve_1" stroke="#000000" stroke-linecap="round" stroke-linejoin="round" stroke-width="3.540151254014422"/>
  <path d="M 40.84454427601255, 54.49025824283185 Q 50.82351222159122, 55.06534834640758, 51.51291526465451, 66.41254136186251 " fill="none" id="curve_1" stroke="#000000" stroke-linecap="round" stroke-linejoin="round" stroke-width="4.994982366574331"/>
  <path d="M 51.51291526465451, 66.41254136186251 Q 51.19220927880811, 92.26166685344407, 35.96958478022771, 95.58623187700836 " fill="none" id="curve_1" stroke="#000000" stroke-linecap="round" stroke-linejoin="round" stroke-width="4.690872998485822"/>
  <path d="M 35.96958478022771, 95.58623187700836 Q 27.8483232725411, 95.50111118042614, 27.363180067508175, 90.90157614816557 " fill="none" id="curve_1" stroke="#000000" stroke-linecap="round" stroke-linejoin="round" stroke-width="5.253333635942606"/>
  <path d="M 27.363180067508175, 90.90157614816557 Q 25.928591784579012, 83.6049056738334, 23.642013492430507, 75.3105317939999 " fill="none" id="curve_1" stroke="#000000" stroke-linecap="round" stroke-linejoin="round" stroke-width="3.5419463366133446"/>
  <path d="M 36.54323405543801, 56.48990944853744 Q 39.02436524815891, 55.70360087007597, 47.042741023519476, 55.35262330812255 " fill="none" id="curve_2" stroke="#000000" stroke-linecap="round" stroke-linejoin="round" stroke-width="5.271966944719284"/>
  <path d="M 47.042741023519476, 55.35262330812255 Q 48.88180417875747, 57.03835738713781, 49.931112649570174, 62.92889243762347 " fill="none" id="curve_2" stroke="#000000" stroke-linecap="round" stroke-linejoin="round" stroke-width="3.4721092138690692"/>
  <path d="M 89.83469320109022, 55.75654801047909 Q 89.75006212138986, 72.54734076254772, 89.38324068914714, 93.53015515254278 " fill="none" id="curve_3" stroke="#000000" stroke-linecap="round" stroke-linejoin="round" stroke-width="1.8920483803930086"/>
  <path d="M 89.38324068914714, 93.53015515254278 Q 89.53270425338559, 101.75050812042096, 89.90884709769941, 127.53528246272947 " fill="none" id="curve_3" stroke="#000000" stroke-linecap="round" stroke-linejoin="round" stroke-width="1.55604847790661"/>
  <path d="M 89.90884709769941, 127.53528246272947 Q 89.7192854141344, 134.2953239164934, 89.31757239843274, 139.1496778656166 " fill="none" id="curve_3" stroke="#000000" stroke-linecap="round" stroke-linejoin="round" stroke-width="2.3942984116317745"/>
  <path d="M 89.88837751624247, 54.41185562242846 Q 89.60597771356561, 54.0869433438408, 89.57519559574406, 43.09008395345356 " fill="none" id="curve_7" stroke="#000000" stroke-linecap="round" stroke-linejoin="round" stroke-width="1.4831947490074093"/>
  <path d="M 89.57519559574406, 43.09008395345356 Q 89.5453957652726, 40.75814412009652, 89.52015085851238, 30.05948923174846 " fill="none" id="curve_7" stroke="#000000" stroke-linecap="round" stroke-linejoin="round" stroke-width="1.4498735708169"/>
  <path d="M 89.52015085851238, 30.05948923174846 Q 89.52307408886342, 26.444590650244, 89.52812192735658, 16.645653706235766 " fill="none" id="curve_7" stroke="#000000" stroke-linecap="round" stroke-linejoin="round" stroke-width="1.4418998396540263"/>
  <path d="M 89.52812192735658, 16.645653706235766 Q 89.51582344489584, 11.952856133747606, 89.48654959869967, 3.5635204130839107 " fill="none" id="curve_7" stroke="#000000" stroke-linecap="round" stroke-linejoin="round" stroke-width="1.3943425144057677"/>
  <path d="M 89.48654959869967, 3.5635204130839107 Q 89.36730889103737, 1.9348427910070036, 88.91940645647631, 1.4095165545176265 " fill="none" id="curve_7" stroke="#000000" stroke-linecap="round" stroke-linejoin="round" stroke-width="3.110218909849604"/>
  <path d="M 42.71201989849238, 52.39682413201682 Q 42.05298539356757, 54.61358092651348, 38.8863865391105, 55.684486006589076 " fill="none" id="curve_15" stroke="#000000" stroke-linecap="round" stroke-linejoin="round" stroke-width="3.603996427804419"/>
  <path d="M 36.62824565709701, 92.00929014938222 Q 48.69229744290095, 91.89419078503336, 49.29919145404396, 82.77820319503513 " fill="none" id="curve_16" stroke="#000000" stroke-linecap="round" stroke-linejoin="round" stroke-width="3.3285352169347746"/>
  <path d="M 49.29919145404396, 82.77820319503513 Q 49.62783691327525, 78.15479717843276, 50.20711286035738, 69.54263045784536 " fill="none" id="curve_16" stroke="#000000" stroke-linecap="round" stroke-linejoin="round" stroke-width="3.0518906009896885"/>
  <path d="M 40.865278675554194, 94.9459040076726 Q 46.73165658644356, 92.24747882499321, 49.65835393862056, 79.863501890685 " fill="none" id="curve_19" stroke="#000000" stroke-linecap="round" stroke-linejoin="round" stroke-width="3.1693170533951376"/>
  <path d="M 49.0505130708781, 62.120948790107754 Q 50.37289338873077, 62.42384400535613, 50.83772624187977, 64.99899905229721 " fill="none" id="curve_26" stroke="#000000" stroke-linecap="round" stroke-linejoin="round" stroke-width="5.335295411324199"/>
  <path d="M 27.997386551639686, 88.46260729311285 Q 30.477737703784463, 92.70592949727225, 33.937644926191496, 96.96890765940468 " fill="none" id="curve_30" stroke="#000000" stroke-linecap="round" stroke-linejoin="round" stroke-width="3.790109172005768"/>
  <path d="M 48.85330195303931, 80.86261109994031 Q 47.45692882579, 88.55074959346355, 42.48985821406366, 91.94980463204378 " fill="none" id="curve_31" stroke="#000000" stroke-linecap="round" stroke-linejoin="round" stroke-width="3.5843696896594373"/>
  <path d="M 51.31612631190791, 62.87874424662302 Q 50.617708688006864, 60.245886515312854, 49.30067102350102, 57.61275822183352 " fill="none" id="curve_32" stroke="#000000" stroke-linecap="round" stroke-linejoin="round" stroke-width="3.618561633072384"/>
  <path d="M 35.88939601874793, 58.359363562260725 Q 37.66699257422651, 55.870426745145195, 43.72477552351158, 54.48113349336406 " fill="none" id="curve_50" stroke="#000000" stroke-linecap="round" stroke-linejoin="round" stroke-width="3.4711582416036832"/>
  <path d="M 42.01612866754846, 54.400096947641714 Q 39.87306551929252, 57.17057242462647, 33.210038739338245, 58.389006261294874 " fill="none" id="curve_65" stroke="#000000" stroke-linecap="round" stroke-linejoin="round" stroke-width="4.085607214148488"/>
  <path d="M 37.36439126980857, 58.527213278724524 Q 37.63977955496938, 54.324846638376975, 42.42826441895703, 53.72555097408197 " fill="none" id="curve_133" stroke="#000000" stroke-linecap="round" stroke-linejoin="round" stroke-width="3.2721763999321047"/>
</svg>
