<?xml version="1.0" ?>
<svg height="140" width="140" xmlns="http://www.w3.org/2000/svg">
  <path d="M 41.090335845947266, 100.80919599533081 Q 40.472721776704624, 105.85402767629478, 34.85961446583394, 107.01121522530264 " fill="none" id="curve_1" stroke="#000000" stroke-linecap="round" stroke-linejoin="round" stroke-width="5.756439227663744"/>
  <path d="M 34.85961446583394, 107.01121522530264 Q 31.17810000650475, 107.09818704861013, 27.860954211086945, 107.24366332563753 " fill="none" id="curve_1" stroke="#000000" stroke-linecap="round" stroke-linejoin="round" stroke-width="4.473606089467948"/>
  <path d="M 27.860954211086945, 107.24366332563753 Q 20.63416235463881, 105.14623840369647, 17.106462792768504, 93.01023709171322 " fill="none" id="curve_1" stroke="#000000" stroke-linecap="round" stroke-linejoin="round" stroke-width="5.477443207922991"/>
  <path d="M 17.106462792768504, 93.01023709171322 Q 16.270917421229576, 89.3859917989998, 15.770105585702591, 76.86274173648803 " fill="none" id="curve_1" stroke="#000000" stroke-linecap="round" stroke-linejoin="round" stroke-width="5.355676406381129"/>
  <path d="M 15.770105585702591, 76.86274173648803 Q 16.83281532948207, 58.50012596100423, 31.123616764311357, 52.04041297104038 " fill="none" id="curve_1" stroke="#000000" stroke-linecap="round" stroke-linejoin="round" stroke-width="4.606726415942943"/>
  <path d="M 31.123616764311357, 52.04041297104038 Q 34.31513874828583, 51.51435389220783, 38.77218938190209, 50.959352377365796 " fill="none" id="curve_1" stroke="#000000" stroke-linecap="round" stroke-linejoin="round" stroke-width="3.544510674562077"/>
  <path d="M 38.77218938190209, 50.959352377365796 Q 42.69761894290144, 56.13559266643641, 52.222383567238026, 58.85019178576162 " fill="none" id="curve_1" stroke="#000000" stroke-linecap="round" stroke-linejoin="round" stroke-width="3.818613948850805"/>
  <path d="M 52.222383567238026, 58.85019178576162 Q 52.157899857480196, 89.7946594452778, 46.55321853476883, 92.14516455869872 " fill="none" id="curve_1" stroke="#000000" stroke-linecap="round" stroke-linejoin="round" stroke-width="4.015885115683898"/>
  <path d="M 46.55321853476883, 92.14516455869872 Q 45.1042861983259, 99.8713942229554, 40.67853476377837, 103.03026350928748 " fill="none" id="curve_1" stroke="#000000" stroke-linecap="round" stroke-linejoin="round" stroke-width="4.18779652895966"/>
  <path d="M 42.08794818631816, 57.847738577907805 Q 42.07277748599851, 58.24747987810007, 42.05878692801619, 58.994604783063096 " fill="none" id="curve_3" stroke="#000000" stroke-linecap="round" stroke-linejoin="round" stroke-width="3.663490095305695"/>
  <path d="M 54.039229418394555, 79.63270806898217 Q 53.6677861113939, 68.5038463742336, 50.745747644258344, 64.35408597748909 " fill="none" id="curve_5" stroke="#000000" stroke-linecap="round" stroke-linejoin="round" stroke-width="2.0839030525948137"/>
  <path d="M 45.947510065270606, 53.264041246492326 Q 48.38554254546684, 54.284708701087055, 49.66770629116471, 59.56423508348158 " fill="none" id="curve_10" stroke="#000000" stroke-linecap="round" stroke-linejoin="round" stroke-width="3.025876637831075"/>
  <path d="M 48.88905029780406, 62.94210100735448 Q 50.54905468095974, 63.23693282555639, 51.72350586154058, 64.33765343998826 " fill="none" id="curve_27" stroke="#000000" stroke-linecap="round" stroke-linejoin="round" stroke-width="2.9855244973080293"/>
  <path d="M 48.4402458961913, 86.43962801715952 Q 47.76340673690909, 86.68290992145862, 47.14544967834993, 87.68036278573338 " fill="none" id="curve_55" stroke="#000000" stroke-linecap="round" stroke-linejoin="round" stroke-width="1.94041237358885"/>
  <path d="M 21.11602491597236, 58.021481761697025 Q 22.96145071700122, 56.35785547409831, 26.399683274116196, 53.84846695583578 " fill="none" id="curve_56" stroke="#000000" stroke-linecap="round" stroke-linejoin="round" stroke-width="2.358632775121809"/>
  <path d="M 40.56071772717783, 50.41033125470955 Q 32.66336796820023, 50.6695761451306, 28.346471091401938, 52.69839363499225 " fill="none" id="curve_71" stroke="#000000" stroke-linecap="round" stroke-linejoin="round" stroke-width="1.933327798258323"/>
  <path d="M 22.162310071853483, 99.77237519336708 Q 23.053108274115115, 101.2062712057901, 24.368779703305005, 103.47814389073991 " fill="none" id="curve_86" stroke="#000000" stroke-linecap="round" stroke-linejoin="round" stroke-width="2.610046389398059"/>
  <path d="M 22.057121373772397, 57.24792625683378 Q 21.91370770625488, 57.5619602213187, 21.73424767617898, 58.346042836696185 " fill="none" id="curve_89" stroke="#000000" stroke-linecap="round" stroke-linejoin="round" stroke-width="2.7463728255351816"/>
  <path d="M 49.97829161139907, 62.42061461703997 Q 49.913235662998424, 61.765584537911096, 49.82855640900315, 60.88832767191232 " fill="none" id="curve_104" stroke="#000000" stroke-linecap="round" stroke-linejoin="round" stroke-width="4.298276750898856"/>
  <path d="M 20.293931403312563, 60.15504528697407 Q 21.35621264640894, 55.761262696210665, 29.041110117303482, 53.78257802117221 " fill="none" id="curve_106" stroke="#000000" stroke-linecap="round" stroke-linejoin="round" stroke-width="1.952504340432975"/>
</svg>
