<?xml version="1.0" ?>
<svg height="140" width="140" xmlns="http://www.w3.org/2000/svg">
  <path d="M 77.09315395355225, 92.30481910705566 Q 76.1458535526003, 101.79164547077133, 68.75509348991909, 112.51616180704059 " fill="none" id="curve_1" stroke="#000000" stroke-linecap="round" stroke-linejoin="round" stroke-width="4.6942944942605"/>
  <path d="M 68.75509348991909, 112.51616180704059 Q 65.51542228471851, 118.79290193368367, 50.89192829919008, 122.52597472971117 " fill="none" id="curve_1" stroke="#000000" stroke-linecap="round" stroke-linejoin="round" stroke-width="4.3380731101820915"/>
  <path d="M 50.89192829919008, 122.52597472971117 Q 32.63973420757098, 121.94050113245945, 25.00795856994494, 109.18840446947145 " fill="none" id="curve_1" stroke="#000000" stroke-linecap="round" stroke-linejoin="round" stroke-width="3.941705024335383"/>
  <path d="M 25.00795856994494, 109.18840446947145 Q 19.823900274149786, 105.03226453891995, 15.137936072617201, 89.17786022010475 " fill="none" id="curve_1" stroke="#000000" stroke-linecap="round" stroke-linejoin="round" stroke-width="4.46656495922229"/>
  <path d="M 15.137936072617201, 89.17786022010475 Q 15.41116885096641, 67.47352598967684, 22.47203330522466, 62.272609236989155 " fill="none" id="curve_1" stroke="#000000" stroke-linecap="round" stroke-linejoin="round" stroke-width="5.310146902617748"/>
  <path d="M 22.47203330522466, 62.272609236989155 Q 27.991773586237123, 52.554857662984624, 47.03611319268979, 39.79052004538951 " fill="none" id="curve_1" stroke="#000000" stroke-linecap="round" stroke-linejoin="round" stroke-width="6.034932145559713"/>
  <path d="M 47.03611319268979, 39.79052004538951 Q 55.3743899527312, 40.43415351976053, 58.8417992134824, 44.374215164497194 " fill="none" id="curve_1" stroke="#000000" stroke-linecap="round" stroke-linejoin="round" stroke-width="6.040516179155009"/>
  <path d="M 58.8417992134824, 44.374215164497194 Q 61.56643110947008, 50.51457708519102, 82.66191226455553, 51.673367022462855 " fill="none" id="curve_1" stroke="#000000" stroke-linecap="round" stroke-linejoin="round" stroke-width="5.333816514867985"/>
  <path d="M 82.66191226455553, 51.673367022462855 Q 82.41705030590721, 80.25628893705947, 77.74266924047772, 93.0310514695982 " fill="none" id="curve_1" stroke="#000000" stroke-linecap="round" stroke-linejoin="round" stroke-width="4.730415440219681"/>
  <path d="M 77.74266924047772, 93.0310514695982 Q 76.02034322268638, 107.63289302356144, 63.283534755448294, 113.94102057631217 " fill="none" id="curve_1" stroke="#000000" stroke-linecap="round" stroke-linejoin="round" stroke-width="2.8166007480697917"/>
  <path d="M 40.109888038617285, 123.09087627939704 Q 36.51790128397876, 120.70097178973428, 32.50725822663956, 115.87703628012356 " fill="none" id="curve_2" stroke="#000000" stroke-linecap="round" stroke-linejoin="round" stroke-width="2.892362065373242"/>
  <path d="M 15.706902343509476, 91.86360295806553 Q 15.836658703750592, 92.8122556130273, 16.02940220286834, 93.89903279413734 " fill="none" id="curve_3" stroke="#000000" stroke-linecap="round" stroke-linejoin="round" stroke-width="4.645280108600725"/>
  <path d="M 56.74970618520878, 45.19073860531188 Q 55.22428624812956, 42.68531539960221, 52.83144611985451, 37.92333630173256 " fill="none" id="curve_4" stroke="#000000" stroke-linecap="round" stroke-linejoin="round" stroke-width="5.073730615151126"/>
  <path d="M 52.83144611985451, 37.92333630173256 Q 55.36086233039906, 38.00159218219719, 57.488212966498, 38.134098295300504 " fill="none" id="curve_4" stroke="#000000" stroke-linecap="round" stroke-linejoin="round" stroke-width="2.9489443441045586"/>
  <path d="M 52.15400438678595, 43.6075470934787 Q 59.132632645640776, 47.96532582769313, 77.24186909167875, 50.20501298796711 " fill="none" id="curve_5" stroke="#000000" stroke-linecap="round" stroke-linejoin="round" stroke-width="3.6656022194967637"/>
  <path d="M 77.24186909167875, 50.20501298796711 Q 82.24500952388058, 55.6083200669414, 84.63757808215084, 67.77549653210451 " fill="none" id="curve_5" stroke="#000000" stroke-linecap="round" stroke-linejoin="round" stroke-width="2.527680878285138"/>
  <path d="M 67.45730892196451, 51.81459311309479 Q 69.93508932589957, 51.718820756743725, 73.154827780558, 51.5988498017679 " fill="none" id="curve_6" stroke="#000000" stroke-linecap="round" stroke-linejoin="round" stroke-width="3.455292830938364"/>
  <path d="M 89.52160019023168, 4.341049205796594 Q 89.34226006305636, 3.0002383897585196, 89.03002527553103, 1.2183948518654408 " fill="none" id="curve_10" stroke="#000000" stroke-linecap="round" stroke-linejoin="round" stroke-width="2.8737338300466857"/>
  <path d="M 51.44791798597431, 42.45791216813885 Q 31.017571574983005, 43.42101070932803, 23.111034207475573, 61.3165425807847 " fill="none" id="curve_11" stroke="#000000" stroke-linecap="round" stroke-linejoin="round" stroke-width="2.693699700660265"/>
  <path d="M 23.111034207475573, 61.3165425807847 Q 23.292311438332266, 58.79446900790714, 24.000738540738165, 55.71962735822241 " fill="none" id="curve_11" stroke="#000000" stroke-linecap="round" stroke-linejoin="round" stroke-width="2.8048190023510062"/>
  <path d="M 80.93953442573547, 72.90016746520996 Q 79.9868193705671, 74.57899695665382, 79.34202083399617, 80.00486098702686 " fill="none" id="curve_25" stroke="#000000" stroke-linecap="round" stroke-linejoin="round" stroke-width="3.530312415324488"/>
  <path d="M 39.84629713287005, 42.42794469568882 Q 39.437220882499766, 43.06950091879026, 38.81474014685296, 44.62649589041041 " fill="none" id="curve_27" stroke="#000000" stroke-linecap="round" stroke-linejoin="round" stroke-width="3.0297889564884932"/>
  <path d="M 61.853930919314514, 47.85327062372685 Q 66.94716067273356, 48.03691960895764, 71.55377851582298, 48.53069505311555 " fill="none" id="curve_33" stroke="#000000" stroke-linecap="round" stroke-linejoin="round" stroke-width="2.731568674896672"/>
  <path d="M 16.787654414103926, 73.03402148103696 Q 16.036394511156725, 74.49458404140455, 15.143656477847438, 78.92389776465811 " fill="none" id="curve_35" stroke="#000000" stroke-linecap="round" stroke-linejoin="round" stroke-width="2.485885618930813"/>
  <path d="M 17.02643984265654, 98.03315257978532 Q 16.896849656508675, 95.1051652586344, 16.50259097994993, 92.92593450440177 " fill="none" id="curve_36" stroke="#000000" stroke-linecap="round" stroke-linejoin="round" stroke-width="3.758737813869118"/>
  <path d="M 70.96176370819433, 107.15823679480451 Q 73.01325655804968, 101.03933400364862, 78.8530446403456, 96.35171493102332 " fill="none" id="curve_51" stroke="#000000" stroke-linecap="round" stroke-linejoin="round" stroke-width="2.531404659077177"/>
  <path d="M 81.66444832335345, 58.66451106594815 Q 81.95550458836867, 60.061183000485784, 82.32375902371311, 61.873411682417306 " fill="none" id="curve_53" stroke="#000000" stroke-linecap="round" stroke-linejoin="round" stroke-width="4.324015414534763"/>
  <path d="M 82.32375902371311, 61.873411682417306 Q 82.14606794249214, 60.38886923642425, 81.86108575360093, 58.658191714417335 " fill="none" id="curve_53" stroke="#000000" stroke-linecap="round" stroke-linejoin="round" stroke-width="4.103884874059598"/>
  <path d="M 29.04569431839923, 113.30144328692123 Q 24.456653108497523, 111.7037533736137, 21.386898867019873, 106.22560850201444 " fill="none" id="curve_55" stroke="#000000" stroke-linecap="round" stroke-linejoin="round" stroke-width="2.3710289024932782"/>
  <path d="M 15.481781231390748, 92.2585479282328 Q 15.297580721393803, 92.09555029775524, 15.092987297012916, 91.80897171410126 " fill="none" id="curve_56" stroke="#000000" stroke-linecap="round" stroke-linejoin="round" stroke-width="4.059924021553341"/>
  <path d="M 17.061616916038467, 65.95366797941138 Q 16.139465217775893, 74.18506976836177, 13.809095561449732, 82.05996601938895 " fill="none" id="curve_57" stroke="#000000" stroke-linecap="round" stroke-linejoin="round" stroke-width="2.233996751653914"/>
  <path d="M 62.925768921804774, 45.06197195134894 Q 64.71371266809447, 46.20931671219006, 67.48384834839513, 48.651095956419 " fill="none" id="curve_72" stroke="#000000" stroke-linecap="round" stroke-linejoin="round" stroke-width="2.0822496261896832"/>
  <path d="M 81.35629593828268, 75.16937931117417 Q 81.97845143085084, 68.13436745968531, 83.3789510453044, 60.81967642627866 " fill="none" id="curve_74" stroke="#000000" stroke-linecap="round" stroke-linejoin="round" stroke-width="3.0880175419080986"/>
  <path d="M 81.55568739599568, 73.30433111401271 Q 82.18840206001474, 71.43844669031536, 83.10206752708167, 65.5523103257798 " fill="none" id="curve_79" stroke="#000000" stroke-linecap="round" stroke-linejoin="round" stroke-width="2.8140317599953892"/>
  <path d="M 81.01220672692385, 76.65090387060134 Q 82.02845735865392, 69.60272541731806, 83.89708268529395, 58.69675424653699 " fill="none" id="curve_85" stroke="#000000" stroke-linecap="round" stroke-linejoin="round" stroke-width="2.5673518189436644"/>
  <path d="M 81.46847342853256, 76.33046014446168 Q 82.28175277138087, 68.64487660269295, 84.30452323928934, 57.734757492632156 " fill="none" id="curve_96" stroke="#000000" stroke-linecap="round" stroke-linejoin="round" stroke-width="2.2026794038728514"/>
  <path d="M 81.81373515632112, 72.27791078120543 Q 82.19396806601489, 69.08516842623702, 83.03511824170641, 61.73307950403687 " fill="none" id="curve_100" stroke="#000000" stroke-linecap="round" stroke-linejoin="round" stroke-width="2.470490619534213"/>
  <path d="M 52.16488670720628, 37.422631131033754 Q 48.98498441867325, 37.694759967279246, 46.60238518978108, 38.81018079188414 " fill="none" id="curve_115" stroke="#000000" stroke-linecap="round" stroke-linejoin="round" stroke-width="2.3971871203033963"/>
  <path d="M 15.137730764208335, 91.32400665256681 Q 16.891459353900345, 93.03333773728333, 19.36574013031168, 96.42610973549169 " fill="none" id="curve_117" stroke="#000000" stroke-linecap="round" stroke-linejoin="round" stroke-width="2.5238309891665067"/>
  <path d="M 35.47562863565888, 46.696900123355185 Q 36.80156894099803, 47.00261692392378, 37.80419897471374, 48.04796726615062 " fill="none" id="curve_119" stroke="#000000" stroke-linecap="round" stroke-linejoin="round" stroke-width="4.2862118173842765"/>
  <path d="M 79.69033612894665, 74.44996337599287 Q 79.97937039812336, 74.27056866484871, 80.28887775976227, 73.97678075737183 " fill="none" id="curve_147" stroke="#000000" stroke-linecap="round" stroke-linejoin="round" stroke-width="4.9453139343359505"/>
</svg>
