<?xml version="1.0" ?>
<svg height="140" width="140" xmlns="http://www.w3.org/2000/svg">
  <path d="M 5.066751480102539, 87.71598935127258 Q 5.3799779930669835, 74.67438682714757, 8.85820949480518, 67.40738814087956 " fill="none" id="curve_1" stroke="#000000" stroke-linecap="round" stroke-linejoin="round" stroke-width="4.9104918748528705"/>
  <path d="M 8.85820949480518, 67.40738814087956 Q 13.149973507997519, 61.284131351950236, 18.854169936568944, 49.62350270575399 " fill="none" id="curve_1" stroke="#000000" stroke-linecap="round" stroke-linejoin="round" stroke-width="3.6486981806211407"/>
  <path d="M 31.18407530977089, 53.44548604836428 Q 24.737359877275537, 58.00207217123033, 17.13537043301887, 67.23856621887985 " fill="none" id="curve_2" stroke="#000000" stroke-linecap="round" stroke-linejoin="round" stroke-width="4.683833864859487"/>
  <path d="M 4.155923533728876, 87.29809224154879 Q 5.6425698341758554, 104.6656108645173, 20.945824463880925, 117.29036113297678 " fill="none" id="curve_3" stroke="#000000" stroke-linecap="round" stroke-linejoin="round" stroke-width="5.673706433494222"/>
  <path d="M 20.945824463880925, 117.29036113297678 Q 40.43575978761611, 116.54569040505703, 46.80126717843636, 102.78055506601598 " fill="none" id="curve_3" stroke="#000000" stroke-linecap="round" stroke-linejoin="round" stroke-width="4.507368579109259"/>
  <path d="M 46.80126717843636, 102.78055506601598 Q 50.4917844704762, 96.57159124340039, 53.86495644033134, 80.84963075345371 " fill="none" id="curve_3" stroke="#000000" stroke-linecap="round" stroke-linejoin="round" stroke-width="4.727384535293789"/>
  <path d="M 53.86495644033134, 80.84963075345371 Q 53.794805970237164, 54.50137495276248, 46.55390811516737, 53.13222510344366 " fill="none" id="curve_3" stroke="#000000" stroke-linecap="round" stroke-linejoin="round" stroke-width="5.058895920655181"/>
  <path d="M 46.55390811516737, 53.13222510344366 Q 45.38213322338089, 51.29000329321591, 32.888122792378056, 50.8840497125541 " fill="none" id="curve_3" stroke="#000000" stroke-linecap="round" stroke-linejoin="round" stroke-width="5.064862231100174"/>
  <path d="M 21.373970058571537, 48.10126027842256 Q 21.010337023686525, 48.31851087920895, 20.703392245329407, 48.78695433756778 " fill="none" id="curve_4" stroke="#000000" stroke-linecap="round" stroke-linejoin="round" stroke-width="4.566339748946794"/>
  <path d="M 3.54247847047019, 88.1297780306937 Q 5.9304642254402395, 82.69657186354705, 9.00606380764835, 68.31281565618389 " fill="none" id="curve_5" stroke="#000000" stroke-linecap="round" stroke-linejoin="round" stroke-width="2.7441999138823956"/>
  <path d="M 3.2771021352043626, 97.10136061964883 Q 3.608476344978454, 94.31185653111956, 3.967267201339944, 90.26441208178612 " fill="none" id="curve_6" stroke="#000000" stroke-linecap="round" stroke-linejoin="round" stroke-width="4.448275794996001"/>
  <path d="M 10.334053911797692, 63.72863614642255 Q 8.132226770491783, 68.84536734803726, 5.0118655751108925, 79.93353669810958 " fill="none" id="curve_16" stroke="#000000" stroke-linecap="round" stroke-linejoin="round" stroke-width="2.724344373989015"/>
  <path d="M 30.29457194090634, 51.52597039023381 Q 28.23753224783621, 56.27626048268922, 21.68185628439619, 60.30690912686511 " fill="none" id="curve_32" stroke="#000000" stroke-linecap="round" stroke-linejoin="round" stroke-width="2.851282938163263"/>
  <path d="M 50.28448034461919, 57.4687786087039 Q 52.07079577667866, 58.94207655768838, 53.91992667407559, 63.591364622515755 " fill="none" id="curve_39" stroke="#000000" stroke-linecap="round" stroke-linejoin="round" stroke-width="3.2632371641566444"/>
  <path d="M 6.008491042674791, 84.73007066699097 Q 6.147957715710519, 97.97389386680138, 7.919181821108015, 102.65699995455455 " fill="none" id="curve_54" stroke="#000000" stroke-linecap="round" stroke-linejoin="round" stroke-width="2.2594984477016506"/>
  <path d="M 24.159835720452396, 119.19663776837876 Q 25.046320176512328, 118.87550940908699, 25.956572290882512, 118.21078494317838 " fill="none" id="curve_55" stroke="#000000" stroke-linecap="round" stroke-linejoin="round" stroke-width="3.4689377863235458"/>
  <path d="M 4.512836633134385, 79.12830166087613 Q 9.18266941014504, 76.83828551425275, 10.727396875611909, 58.453099210538085 " fill="none" id="curve_57" stroke="#000000" stroke-linecap="round" stroke-linejoin="round" stroke-width="2.48856899995741"/>
  <path d="M 48.86940478768156, 92.75033147838712 Q 47.62480543329008, 100.9991674281937, 41.51138438853644, 108.56340425953744 " fill="none" id="curve_72" stroke="#000000" stroke-linecap="round" stroke-linejoin="round" stroke-width="1.9287022788804644"/>
  <path d="M 16.2797763120922, 108.76036560789655 Q 9.225858046238763, 107.24443070161492, 7.002139344087414, 97.57511661498705 " fill="none" id="curve_73" stroke="#000000" stroke-linecap="round" stroke-linejoin="round" stroke-width="3.014385222776666"/>
  <path d="M 7.002139344087414, 97.57511661498705 Q 7.5536353588548355, 96.95618278919584, 8.176082620539702, 96.02093950262379 " fill="none" id="curve_73" stroke="#000000" stroke-linecap="round" stroke-linejoin="round" stroke-width="4.014179535193969"/>
</svg>
