<?xml version="1.0" ?>
<svg height="140" width="140" xmlns="http://www.w3.org/2000/svg">
  <path d="M 51.429649353027344, 95.38173007965088 Q 49.24586267446472, 101.16022811563117, 39.70745070961584, 108.37184131626691 " fill="none" id="curve_1" stroke="#000000" stroke-linecap="round" stroke-linejoin="round" stroke-width="5.610830333175837"/>
  <path d="M 39.70745070961584, 108.37184131626691 Q 35.8069234772387, 112.79138862883337, 27.44242759668277, 115.73178999108238 " fill="none" id="curve_1" stroke="#000000" stroke-linecap="round" stroke-linejoin="round" stroke-width="6.932757929315991"/>
  <path d="M 27.44242759668277, 115.73178999108238 Q 13.453730560908967, 114.39061774808165, 4.404939533990941, 103.59976004965138 " fill="none" id="curve_1" stroke="#000000" stroke-linecap="round" stroke-linejoin="round" stroke-width="5.369168343718536"/>
  <path d="M 10.099746443335746, 82.95307147632192 Q 12.29137440388594, 69.76651944290353, 39.32907356354849, 63.37967032480767 " fill="none" id="curve_2" stroke="#000000" stroke-linecap="round" stroke-linejoin="round" stroke-width="6.352784609670687"/>
  <path d="M 39.32907356354849, 63.37967032480767 Q 50.518222670266596, 66.94077127694312, 56.74525053531012, 73.33081015972121 " fill="none" id="curve_2" stroke="#000000" stroke-linecap="round" stroke-linejoin="round" stroke-width="4.742260386558405"/>
  <path d="M 56.74525053531012, 73.33081015972121 Q 56.58345241065679, 95.78272532238273, 50.07598519634931, 96.97316907029204 " fill="none" id="curve_2" stroke="#000000" stroke-linecap="round" stroke-linejoin="round" stroke-width="4.535073766893342"/>
  <path d="M 3.708004029743204, 71.52339066431107 Q 2.439084290820124, 73.443470018717, 1.3442964252012701, 76.29245522279665 " fill="none" id="curve_5" stroke="#000000" stroke-linecap="round" stroke-linejoin="round" stroke-width="3.70842549943571"/>
  <path d="M 1.62059908842656, 99.05505267560346 Q 2.4197892327850345, 103.15578254908264, 4.204626898905412, 106.01161586921903 " fill="none" id="curve_6" stroke="#000000" stroke-linecap="round" stroke-linejoin="round" stroke-width="3.5913454428597764"/>
  <path d="M 9.122563552101223, 78.91252912621471 Q 13.364880660982354, 73.54519081433942, 22.973253525177824, 68.30444851716543 " fill="none" id="curve_7" stroke="#000000" stroke-linecap="round" stroke-linejoin="round" stroke-width="2.470494884004229"/>
  <path d="M 6.238209502421018, 69.43580926818547 Q 5.864918719867926, 69.0270696915398, 5.273326798069, 68.55211909731777 " fill="none" id="curve_8" stroke="#000000" stroke-linecap="round" stroke-linejoin="round" stroke-width="2.7970514010072156"/>
  <path d="M 37.920313493736685, 65.98059544682437 Q 16.891019682672955, 66.53836725555493, 13.10902112933585, 75.17860480522158 " fill="none" id="curve_9" stroke="#000000" stroke-linecap="round" stroke-linejoin="round" stroke-width="2.930909531863603"/>
  <path d="M 54.03731413249671, 79.76363150596124 Q 55.02474055921574, 81.26125536760301, 55.55258245581913, 88.26225630794855 " fill="none" id="curve_10" stroke="#000000" stroke-linecap="round" stroke-linejoin="round" stroke-width="2.7641426050219926"/>
  <path d="M 55.55258245581913, 88.26225630794855 Q 52.50023486983646, 96.49467780048933, 47.24911519461102, 103.52602189787017 " fill="none" id="curve_10" stroke="#000000" stroke-linecap="round" stroke-linejoin="round" stroke-width="3.1406054791877445"/>
  <path d="M 89.39472432820452, 30.187064720416586 Q 89.75224727713548, 30.28313338602781, 90.23321527525067, 30.505011312938397 " fill="none" id="curve_25" stroke="#000000" stroke-linecap="round" stroke-linejoin="round" stroke-width="1.5354813524434254"/>
  <path d="M 89.81406040226523, 4.062767690074779 Q 89.8430454832, 2.860391235333182, 89.90243696066804, 1.5493913400969328 " fill="none" id="curve_26" stroke="#000000" stroke-linecap="round" stroke-linejoin="round" stroke-width="1.8793965491000013"/>
  <path d="M 11.100540618333547, 112.12686544849834 Q 9.241977310907572, 110.32356380803328, 6.247517107239258, 107.8174271889293 " fill="none" id="curve_32" stroke="#000000" stroke-linecap="round" stroke-linejoin="round" stroke-width="3.4269446743730416"/>
  <path d="M 30.842365458769528, 64.52157551675924 Q 36.77059544452781, 64.2888354211065, 45.92945404937263, 63.61463214711121 " fill="none" id="curve_50" stroke="#000000" stroke-linecap="round" stroke-linejoin="round" stroke-width="2.2927822822788557"/>
  <path d="M 89.99070739746094, 138.20360070466995 Q 89.75895945724052, 138.40722272364394, 89.39828700477574, 138.7283736279769 " fill="none" id="curve_64" stroke="#000000" stroke-linecap="round" stroke-linejoin="round" stroke-width="2.1164483948257797"/>
  <path d="M 54.70124834789422, 90.67329173971747 Q 51.74559617714089, 91.23238297516946, 50.69834851637303, 94.49848106310398 " fill="none" id="curve_67" stroke="#000000" stroke-linecap="round" stroke-linejoin="round" stroke-width="2.3397724724866182"/>
  <path d="M 53.74703872861745, 73.6394250306636 Q 54.89192952960383, 72.82889811134578, 55.47957107857756, 69.75702512590514 " fill="none" id="curve_68" stroke="#000000" stroke-linecap="round" stroke-linejoin="round" stroke-width="3.7959423752811876"/>
  <path d="M 18.32401920284208, 73.74732146145664 Q 20.65234653752008, 71.36674801163208, 25.15425999630167, 67.24570963121351 " fill="none" id="curve_70" stroke="#000000" stroke-linecap="round" stroke-linejoin="round" stroke-width="2.4426482510009278"/>
  <path d="M 25.15425999630167, 67.24570963121351 Q 26.660835074057776, 65.04103854448262, 36.15656547959175, 64.27422868522072 " fill="none" id="curve_70" stroke="#000000" stroke-linecap="round" stroke-linejoin="round" stroke-width="3.0785485625096833"/>
  <path d="M 47.22977396325837, 66.69676312108095 Q 38.58378026390198, 66.3545800841296, 35.68615162320138, 63.32695036508182 " fill="none" id="curve_85" stroke="#000000" stroke-linecap="round" stroke-linejoin="round" stroke-width="3.0209803654015843"/>
  <path d="M 35.68615162320138, 63.32695036508182 Q 34.94524578714957, 63.019749182245036, 33.115575719783365, 62.70602165150745 " fill="none" id="curve_85" stroke="#000000" stroke-linecap="round" stroke-linejoin="round" stroke-width="2.7310390738020502"/>
  <path d="M 48.26370021581318, 65.03517477969554 Q 47.80429448013155, 63.99600243597277, 44.630383868094356, 63.415226416110414 " fill="none" id="curve_91" stroke="#000000" stroke-linecap="round" stroke-linejoin="round" stroke-width="2.3096377174944878"/>
  <path d="M 56.51918758998545, 91.19716400274407 Q 55.89180675237636, 91.1722081876188, 54.75536516112247, 91.13735221822829 " fill="none" id="curve_119" stroke="#000000" stroke-linecap="round" stroke-linejoin="round" stroke-width="3.104105409985778"/>
  <path d="M 49.86229569772341, 100.49450981310717 Q 49.132486540698935, 100.71587065897401, 48.104588824366154, 101.24000018916777 " fill="none" id="curve_135" stroke="#000000" stroke-linecap="round" stroke-linejoin="round" stroke-width="3.243882255360715"/>
  <path d="M 4.739044855033952, 68.74983371265272 Q 4.8846057269121, 68.5835477111055, 5.188376363394293, 68.36762208693598 " fill="none" id="curve_157" stroke="#000000" stroke-linecap="round" stroke-linejoin="round" stroke-width="1.9379268397385356"/>
  <path d="M 25.483283250650278, 114.21015823623313 Q 29.34563945782256, 113.47379489302378, 33.96351954147454, 112.29501865625029 " fill="none" id="curve_159" stroke="#000000" stroke-linecap="round" stroke-linejoin="round" stroke-width="2.6933063070323704"/>
  <path d="M 23.32134226016547, 66.94569629011325 Q 22.772228835409692, 67.89176721595197, 21.49559195670214, 68.84175792214313 " fill="none" id="curve_169" stroke="#000000" stroke-linecap="round" stroke-linejoin="round" stroke-width="4.9160542258352935"/>
</svg>
