<?xml version="1.0" ?>
<svg height="140" width="140" xmlns="http://www.w3.org/2000/svg">
  <path d="M 44.51375770568848, 29.6566002368927 Q 35.892915590670796, 31.13562422779638, 28.20517081674734, 50.27377384958709 " fill="none" id="curve_1" stroke="#000000" stroke-linecap="round" stroke-linejoin="round" stroke-width="4.670979076186689"/>
  <path d="M 28.20517081674734, 50.27377384958709 Q 24.080373669248463, 58.08917156714692, 15.673362557805676, 78.83179559152421 " fill="none" id="curve_1" stroke="#000000" stroke-linecap="round" stroke-linejoin="round" stroke-width="5.105444612494269"/>
  <path d="M 15.673362557805676, 78.83179559152421 Q 12.88903887444785, 88.17355463759897, 10.383956424280154, 105.90166716807184 " fill="none" id="curve_1" stroke="#000000" stroke-linecap="round" stroke-linejoin="round" stroke-width="4.480963190921982"/>
  <path d="M 10.383956424280154, 105.90166716807184 Q 12.568367010414857, 128.55720253391365, 21.2326487416328, 137.8359257676985 " fill="none" id="curve_1" stroke="#000000" stroke-linecap="round" stroke-linejoin="round" stroke-width="4.383129697306132"/>
  <path d="M 47.923260508245434, 138.0529565540509 Q 56.74579105755434, 134.28562239841563, 62.16744888733915, 104.61724845903534 " fill="none" id="curve_2" stroke="#000000" stroke-linecap="round" stroke-linejoin="round" stroke-width="5.346025661286658"/>
  <path d="M 62.16744888733915, 104.61724845903534 Q 63.06006977262401, 103.73082826775435, 63.149712899976045, 78.9229989179242 " fill="none" id="curve_2" stroke="#000000" stroke-linecap="round" stroke-linejoin="round" stroke-width="4.880499847174857"/>
  <path d="M 63.149712899976045, 78.9229989179242 Q 62.08495287110814, 68.14403288208756, 58.3960221720638, 49.153884946465084 " fill="none" id="curve_2" stroke="#000000" stroke-linecap="round" stroke-linejoin="round" stroke-width="4.872959955719767"/>
  <path d="M 58.3960221720638, 49.153884946465084 Q 57.486237488921105, 36.72941463762579, 47.643643915214575, 33.565664498969085 " fill="none" id="curve_2" stroke="#000000" stroke-linecap="round" stroke-linejoin="round" stroke-width="5.516478857127347"/>
  <path d="M 47.643643915214575, 33.565664498969085 Q 46.881113189149126, 37.64727760840274, 45.38509280066887, 40.363100536522 " fill="none" id="curve_2" stroke="#000000" stroke-linecap="round" stroke-linejoin="round" stroke-width="7.619189748730872"/>
  <path d="M 47.972757368786965, 39.60337368879772 Q 47.92617681801058, 44.987608680910235, 47.464425693251414, 45.92932245410759 " fill="none" id="curve_3" stroke="#000000" stroke-linecap="round" stroke-linejoin="round" stroke-width="3.389397059196083"/>
  <path d="M 42.20075501052784, 28.98951232842593 Q 36.36965885076658, 29.98166969414561, 34.7981222561568, 37.57882628266579 " fill="none" id="curve_4" stroke="#000000" stroke-linecap="round" stroke-linejoin="round" stroke-width="2.8914596154268937"/>
  <path d="M 41.9446372082688, 38.45246723368746 Q 46.70372116901431, 38.21756629659055, 47.28711389547787, 31.38870658740316 " fill="none" id="curve_6" stroke="#000000" stroke-linecap="round" stroke-linejoin="round" stroke-width="4.055301873687047"/>
  <path d="M 47.28711389547787, 31.38870658740316 Q 46.962601695965866, 28.97894930106321, 44.591742537490454, 28.437827436866847 " fill="none" id="curve_6" stroke="#000000" stroke-linecap="round" stroke-linejoin="round" stroke-width="3.5196361113857813"/>
  <path d="M 34.392778271696464, 38.94057061077662 Q 35.830964511541616, 35.26031471602995, 39.12600074439957, 32.04366300632341 " fill="none" id="curve_7" stroke="#000000" stroke-linecap="round" stroke-linejoin="round" stroke-width="2.869569527860725"/>
  <path d="M 17.078751503369137, 73.03076656969 Q 20.816784897241174, 63.121614847925294, 29.212203990059713, 46.783216591131406 " fill="none" id="curve_8" stroke="#000000" stroke-linecap="round" stroke-linejoin="round" stroke-width="2.2390265818691857"/>
  <path d="M 89.51814684429942, 6.681168778520501 Q 89.50623015469648, 5.553273411467363, 89.49287517830626, 0.9383255184375603 " fill="none" id="curve_13" stroke="#000000" stroke-linecap="round" stroke-linejoin="round" stroke-width="1.8499736024920708"/>
  <path d="M 89.33644021448009, 12.055008900223845 Q 89.48065200434759, 11.314536997333652, 89.71052758406749, 10.053104004253811 " fill="none" id="curve_14" stroke="#000000" stroke-linecap="round" stroke-linejoin="round" stroke-width="1.881834708764961"/>
  <path d="M 89.47669082361236, 68.53134392311753 Q 89.64026079801451, 71.5091599757885, 89.8625067914108, 76.73393148047093 " fill="none" id="curve_16" stroke="#000000" stroke-linecap="round" stroke-linejoin="round" stroke-width="1.7986256351241925"/>
  <path d="M 89.9078671104501, 103.77688389930444 Q 89.85206866800866, 111.3762671679167, 89.65656951872018, 115.46040718271344 " fill="none" id="curve_17" stroke="#000000" stroke-linecap="round" stroke-linejoin="round" stroke-width="2.02167614980464"/>
  <path d="M 89.61173672331735, 137.4890123495594 Q 89.51688005747023, 136.6721778910226, 89.43944139617672, 134.34323709160705 " fill="none" id="curve_18" stroke="#000000" stroke-linecap="round" stroke-linejoin="round" stroke-width="2.057451545909612"/>
  <path d="M 26.640834889353723, 138.25636010600962 Q 22.47758694969059, 138.18801847758633, 18.80412233421631, 138.04891068921467 " fill="none" id="curve_20" stroke="#000000" stroke-linecap="round" stroke-linejoin="round" stroke-width="2.7361837666464583"/>
  <path d="M 44.17807410653108, 138.61227947935777 Q 44.85548521882825, 138.56056118735117, 47.315268713850784, 138.52500706555173 " fill="none" id="curve_21" stroke="#000000" stroke-linecap="round" stroke-linejoin="round" stroke-width="2.716457089739355"/>
  <path d="M 47.315268713850784, 138.52500706555173 Q 54.20097904986065, 133.54659556034008, 58.849988994849404, 116.03927397649683 " fill="none" id="curve_21" stroke="#000000" stroke-linecap="round" stroke-linejoin="round" stroke-width="3.1262304124186824"/>
  <path d="M 58.849988994849404, 116.03927397649683 Q 54.87524022591146, 124.27941901490094, 50.99402108325936, 138.9918023107856 " fill="none" id="curve_21" stroke="#000000" stroke-linecap="round" stroke-linejoin="round" stroke-width="3.044708061792501"/>
  <path d="M 16.920073452818947, 130.0507310805228 Q 13.469965888469304, 125.37681144379893, 9.219178947800852, 114.42188506227612 " fill="none" id="curve_22" stroke="#000000" stroke-linecap="round" stroke-linejoin="round" stroke-width="3.519743765853152"/>
  <path d="M 9.219178947800852, 114.42188506227612 Q 11.516781267884197, 112.71198057386074, 12.188675737146742, 103.6028193878992 " fill="none" id="curve_22" stroke="#000000" stroke-linecap="round" stroke-linejoin="round" stroke-width="2.9482632605047345"/>
  <path d="M 13.930271845103444, 118.92135853152871 Q 13.394401798162217, 123.65149355485295, 11.937681656123342, 126.63611263614297 " fill="none" id="curve_23" stroke="#000000" stroke-linecap="round" stroke-linejoin="round" stroke-width="2.0751400166247267"/>
  <path d="M 16.544456948125227, 134.6884747673563 Q 15.188723645499337, 131.80028176263818, 13.972938202899979, 124.76844110065954 " fill="none" id="curve_24" stroke="#000000" stroke-linecap="round" stroke-linejoin="round" stroke-width="3.34153323545645"/>
  <path d="M 18.788569064201056, 136.72365932692992 Q 16.90615370302178, 127.51114666931976, 12.064682346856129, 121.29092818845682 " fill="none" id="curve_25" stroke="#000000" stroke-linecap="round" stroke-linejoin="round" stroke-width="3.296013168119793"/>
  <path d="M 12.064682346856129, 121.29092818845682 Q 11.96456077891993, 120.7057133130909, 11.838474232664542, 120.11971817630939 " fill="none" id="curve_25" stroke="#000000" stroke-linecap="round" stroke-linejoin="round" stroke-width="5.655913368136692"/>
  <path d="M 58.30506833088056, 59.58632441700503 Q 59.796566145959865, 57.72819472568088, 60.34488477457876, 48.03097747903462 " fill="none" id="curve_27" stroke="#000000" stroke-linecap="round" stroke-linejoin="round" stroke-width="2.5352319928064517"/>
  <path d="M 60.34488477457876, 48.03097747903462 Q 55.977173803468524, 43.584870888297104, 49.70341699269373, 35.60462554078633 " fill="none" id="curve_27" stroke="#000000" stroke-linecap="round" stroke-linejoin="round" stroke-width="2.5040598666645364"/>
  <path d="M 37.7303081828665, 35.02997487621779 Q 32.77837175996469, 40.62606724996176, 26.292414493935077, 49.772742019558954 " fill="none" id="curve_32" stroke="#000000" stroke-linecap="round" stroke-linejoin="round" stroke-width="2.4905587688067046"/>
  <path d="M 60.55330060788492, 55.637777036085936 Q 61.04657985435738, 55.57162627971486, 61.56743980163059, 55.43055857039137 " fill="none" id="curve_73" stroke="#000000" stroke-linecap="round" stroke-linejoin="round" stroke-width="3.441476450318084"/>
  <path d="M 47.379897761741574, 46.5471194459667 Q 46.862195438613035, 45.17052038151891, 45.6072606419064, 43.69273849865055 " fill="none" id="curve_101" stroke="#000000" stroke-linecap="round" stroke-linejoin="round" stroke-width="2.5262733002658475"/>
  <path d="M 30.80823447811877, 44.77158551111094 Q 33.984854939075284, 38.675850742252884, 39.93661471370804, 30.777809757683794 " fill="none" id="curve_103" stroke="#000000" stroke-linecap="round" stroke-linejoin="round" stroke-width="2.3003996739259485"/>
  <path d="M 30.7468264268296, 45.83614524452652 Q 33.36734685607323, 37.527851254458724, 41.24141867266165, 29.98528825768615 " fill="none" id="curve_112" stroke="#000000" stroke-linecap="round" stroke-linejoin="round" stroke-width="2.3361688239869483"/>
  <path d="M 30.261290909155555, 45.758216429438775 Q 33.660398906610396, 39.681336123662, 39.59530814658234, 30.742563000369096 " fill="none" id="curve_121" stroke="#000000" stroke-linecap="round" stroke-linejoin="round" stroke-width="2.291647340759637"/>
  <path d="M 29.846980212411367, 46.19708114399423 Q 33.228680443060775, 39.661224408741745, 40.125426047405895, 30.725463614455066 " fill="none" id="curve_128" stroke="#000000" stroke-linecap="round" stroke-linejoin="round" stroke-width="2.1488902616187944"/>
  <path d="M 30.01650023035553, 45.54112891628492 Q 33.45690338521507, 39.68350094472086, 39.88540249778731, 30.334381922990993 " fill="none" id="curve_132" stroke="#000000" stroke-linecap="round" stroke-linejoin="round" stroke-width="2.011313469136858"/>
  <path d="M 30.76233905565917, 44.4721370280498 Q 33.82015933358924, 38.149996431096945, 41.10482235063879, 29.8986185421197 " fill="none" id="curve_133" stroke="#000000" stroke-linecap="round" stroke-linejoin="round" stroke-width="1.9974837941750512"/>
  <path d="M 30.55717143097467, 45.08258217159301 Q 33.68556172307065, 39.2391029093461, 39.785391160647215, 30.434221013220593 " fill="none" id="curve_134" stroke="#000000" stroke-linecap="round" stroke-linejoin="round" stroke-width="2.107578397680077"/>
  <path d="M 29.797794785053746, 46.42492407200067 Q 32.99980990749428, 39.61714217400544, 40.441019411076326, 30.16924623202545 " fill="none" id="curve_137" stroke="#000000" stroke-linecap="round" stroke-linejoin="round" stroke-width="2.001060002638026"/>
  <path d="M 43.292575270934435, 31.73792482124164 Q 36.59854077040497, 32.06191359936028, 34.40277587161528, 34.89249390766511 " fill="none" id="curve_140" stroke="#000000" stroke-linecap="round" stroke-linejoin="round" stroke-width="1.9752721686138586"/>
  <path d="M 29.590481994765778, 44.11889507547775 Q 33.94508961990157, 42.046724484993675, 36.350353744830336, 35.62231480240654 " fill="none" id="curve_156" stroke="#000000" stroke-linecap="round" stroke-linejoin="round" stroke-width="2.4477722284127372"/>
  <path d="M 89.68504309909916, 101.46805362568459 Q 89.67742372904209, 101.4224835921373, 89.66997630519832, 101.31218349886423 " fill="none" id="curve_173" stroke="#000000" stroke-linecap="round" stroke-linejoin="round" stroke-width="2.0520851203562156"/>
  <path d="M 61.273166796834616, 82.05368663087762 Q 61.9834890146044, 86.36472742967338, 62.75510096875256, 93.9011282436074 " fill="none" id="curve_174" stroke="#000000" stroke-linecap="round" stroke-linejoin="round" stroke-width="2.6199196258395703"/>
</svg>
