<?xml version="1.0" ?>
<svg height="140" width="140" xmlns="http://www.w3.org/2000/svg">
  <path d="M 88.18577109199322, 2.230805622157405 Q 89.1057408834263, 3.269038466032769, 89.22407807249672, 27.400274349341316 " fill="none" id="curve_2" stroke="#000000" stroke-linecap="round" stroke-linejoin="round" stroke-width="2.4623027386993233"/>
  <path d="M 89.22407807249672, 27.400274349341316 Q 89.23266103525282, 44.343702224138255, 89.28510753359522, 58.69573446545533 " fill="none" id="curve_2" stroke="#000000" stroke-linecap="round" stroke-linejoin="round" stroke-width="2.085110712131742"/>
  <path d="M 89.28510753359522, 58.69573446545533 Q 89.22375843598198, 81.9952326795804, 88.17943163272723, 85.6825414156252 " fill="none" id="curve_2" stroke="#000000" stroke-linecap="round" stroke-linejoin="round" stroke-width="2.7392126735231446"/>
  <path d="M 88.17943163272723, 85.6825414156252 Q 82.75640811401261, 96.71510327402767, 66.32842914220139, 110.17330401861082 " fill="none" id="curve_2" stroke="#000000" stroke-linecap="round" stroke-linejoin="round" stroke-width="4.341921028974977"/>
  <path d="M 66.32842914220139, 110.17330401861082 Q 59.879205576170335, 113.94136717827259, 51.28311706332152, 118.14442401167685 " fill="none" id="curve_2" stroke="#000000" stroke-linecap="round" stroke-linejoin="round" stroke-width="3.120264812393268"/>
  <path d="M 33.19829476837116, 110.6380689552132 Q 31.27278968910081, 108.71673336939936, 30.198909821478615, 102.5771065518171 " fill="none" id="curve_3" stroke="#000000" stroke-linecap="round" stroke-linejoin="round" stroke-width="2.4707021172883783"/>
  <path d="M 30.198909821478615, 102.5771065518171 Q 30.598309511368956, 87.17503889821388, 34.90623530662204, 73.43713618403254 " fill="none" id="curve_3" stroke="#000000" stroke-linecap="round" stroke-linejoin="round" stroke-width="3.027826576764276"/>
  <path d="M 34.90623530662204, 73.43713618403254 Q 35.52716655532045, 72.2754041256033, 35.87247427248715, 69.19910257714388 " fill="none" id="curve_3" stroke="#000000" stroke-linecap="round" stroke-linejoin="round" stroke-width="3.501479455232127"/>
  <path d="M 52.26233987345395, 70.26870283978002 Q 55.99730495479967, 62.999324154852786, 64.14631249774428, 55.838810326583854 " fill="none" id="curve_4" stroke="#000000" stroke-linecap="round" stroke-linejoin="round" stroke-width="3.060678487827183"/>
  <path d="M 77.5723583064773, 51.455989619548 Q 78.50666989506362, 51.671887271700534, 79.89589320853636, 52.02553780009111 " fill="none" id="curve_5" stroke="#000000" stroke-linecap="round" stroke-linejoin="round" stroke-width="1.9257746800100632"/>
  <path d="M 79.89589320853636, 52.02553780009111 Q 75.24423269146152, 52.1340549088624, 71.20675194680061, 52.40961940326978 " fill="none" id="curve_5" stroke="#000000" stroke-linecap="round" stroke-linejoin="round" stroke-width="1.855757446856106"/>
  <path d="M 71.20675194680061, 52.40961940326978 Q 88.02143215451305, 52.59493519056857, 88.92165593653002, 58.759962215806446 " fill="none" id="curve_5" stroke="#000000" stroke-linecap="round" stroke-linejoin="round" stroke-width="3.365177239237463"/>
  <path d="M 88.14121820696103, 83.03909217882685 Q 89.06312058633544, 85.08296636176739, 89.34664096106877, 106.94196992189458 " fill="none" id="curve_6" stroke="#000000" stroke-linecap="round" stroke-linejoin="round" stroke-width="2.551120466813615"/>
  <path d="M 89.34664096106877, 106.94196992189458 Q 89.2839313459074, 110.8689267371743, 89.1753226872968, 131.1880373939567 " fill="none" id="curve_6" stroke="#000000" stroke-linecap="round" stroke-linejoin="round" stroke-width="2.4675785600113973"/>
  <path d="M 89.1753226872968, 131.1880373939567 Q 89.16996724765806, 136.9716862579738, 89.15038428465672, 138.99243430842196 " fill="none" id="curve_6" stroke="#000000" stroke-linecap="round" stroke-linejoin="round" stroke-width="2.6292371511740775"/>
  <path d="M 89.15038428465672, 138.99243430842196 Q 89.08967017115484, 138.80199605713256, 88.98464864723933, 138.59982775674027 " fill="none" id="curve_6" stroke="#000000" stroke-linecap="round" stroke-linejoin="round" stroke-width="1.602517329997599"/>
  <path d="M 68.69742567869282, 108.9880805120674 Q 71.03411974957187, 106.58060100410366, 75.02125769522974, 104.23295307969784 " fill="none" id="curve_7" stroke="#000000" stroke-linecap="round" stroke-linejoin="round" stroke-width="3.05763355063277"/>
  <path d="M 75.02125769522974, 104.23295307969784 Q 78.18280362614331, 99.63886290622489, 81.8891172778656, 92.04418748821891 " fill="none" id="curve_7" stroke="#000000" stroke-linecap="round" stroke-linejoin="round" stroke-width="2.7900965179425063"/>
  <path d="M 81.8891172778656, 92.04418748821891 Q 85.36084749587256, 87.96607743564188, 89.15599985278703, 82.22606232013013 " fill="none" id="curve_7" stroke="#000000" stroke-linecap="round" stroke-linejoin="round" stroke-width="3.078453537828031"/>
  <path d="M 88.29461324748995, 62.600792370745424 Q 88.08025666567143, 57.04772207270016, 86.05795981031014, 55.77539525373375 " fill="none" id="curve_8" stroke="#000000" stroke-linecap="round" stroke-linejoin="round" stroke-width="2.015317339835085"/>
  <path d="M 70.55584438309006, 53.58834519582055 Q 70.1914092455221, 53.956862087302135, 69.78343532777, 54.49563495264053 " fill="none" id="curve_9" stroke="#000000" stroke-linecap="round" stroke-linejoin="round" stroke-width="2.4212222965632026"/>
  <path d="M 47.70683017929156, 61.736058466204085 Q 42.86362271040685, 61.84413573737933, 40.37306688311084, 62.36761372422304 " fill="none" id="curve_10" stroke="#000000" stroke-linecap="round" stroke-linejoin="round" stroke-width="2.140460471427657"/>
  <path d="M 49.80627515357324, 71.7291718403841 Q 48.90056824896949, 72.24527196135945, 48.51138392601972, 75.61304189690573 " fill="none" id="curve_11" stroke="#000000" stroke-linecap="round" stroke-linejoin="round" stroke-width="1.8601360818975519"/>
  <path d="M 44.17291995040932, 81.21975358246999 Q 44.15835544443548, 80.86647223449006, 44.14322518948569, 80.1986185017217 " fill="none" id="curve_12" stroke="#000000" stroke-linecap="round" stroke-linejoin="round" stroke-width="2.6687634269746607"/>
  <path d="M 35.63081404105761, 71.18984474145499 Q 33.10867663761383, 77.30212602460469, 30.70952156238286, 86.86474268587664 " fill="none" id="curve_13" stroke="#000000" stroke-linecap="round" stroke-linejoin="round" stroke-width="2.857063558461502"/>
  <path d="M 36.55205661167343, 67.73841498148303 Q 35.911130339681094, 70.12887152567035, 34.84121651239083, 74.27605246379629 " fill="none" id="curve_14" stroke="#000000" stroke-linecap="round" stroke-linejoin="round" stroke-width="1.8246699735938636"/>
  <path d="M 31.880619681469312, 85.3018959199737 Q 33.465683036993404, 79.46607216481469, 36.105960315030465, 72.04731630545155 " fill="none" id="curve_17" stroke="#000000" stroke-linecap="round" stroke-linejoin="round" stroke-width="2.627860331356613"/>
  <path d="M 80.34055450950991, 50.44432148696521 Q 80.26628876413221, 51.501584968837214, 80.04059307644677, 52.72051075502225 " fill="none" id="curve_19" stroke="#000000" stroke-linecap="round" stroke-linejoin="round" stroke-width="2.2980812435275015"/>
  <path d="M 51.46543597968384, 68.91379853154936 Q 50.45821658746173, 70.14462814850359, 49.361181018670045, 71.9841949548892 " fill="none" id="curve_21" stroke="#000000" stroke-linecap="round" stroke-linejoin="round" stroke-width="1.8255085830228874"/>
  <path d="M 49.361181018670045, 71.9841949548892 Q 51.452974627325375, 69.23892916699658, 53.82597476771611, 64.78498845072554 " fill="none" id="curve_21" stroke="#000000" stroke-linecap="round" stroke-linejoin="round" stroke-width="2.3250146903362623"/>
  <path d="M 44.57520210732477, 60.457899585503284 Q 43.28373184158003, 60.92869752615636, 41.58932128320666, 61.54380020206007 " fill="none" id="curve_23" stroke="#000000" stroke-linecap="round" stroke-linejoin="round" stroke-width="2.232814043955716"/>
  <path d="M 80.93343748183763, 99.68484460970619 Q 73.22026682239847, 100.65226897489374, 69.5419281072397, 106.59714117870956 " fill="none" id="curve_26" stroke="#000000" stroke-linecap="round" stroke-linejoin="round" stroke-width="2.312712511803119"/>
  <path d="M 90.12544631958008, 2.9466934204101562 Q 89.89746186488628, 2.1503180781412614, 87.6115213118475, 1.9458262542958238 " fill="none" id="curve_40" stroke="#000000" stroke-linecap="round" stroke-linejoin="round" stroke-width="3.733147983854395"/>
  <path d="M 50.36839752140458, 117.38132360305843 Q 51.78390424767584, 117.43791030637529, 53.67440091063399, 117.54373289698648 " fill="none" id="curve_47" stroke="#000000" stroke-linecap="round" stroke-linejoin="round" stroke-width="2.484259587737438"/>
  <path d="M 66.68220205509863, 109.8054325690423 Q 63.81711847494489, 109.93539563760238, 62.55733265540057, 110.69626139696324 " fill="none" id="curve_75" stroke="#000000" stroke-linecap="round" stroke-linejoin="round" stroke-width="3.0336322542272525"/>
  <path d="M 87.9697787941484, 55.772899297255535 Q 86.5513626275596, 56.425911057714046, 85.4074564325906, 57.84011912778156 " fill="none" id="curve_82" stroke="#000000" stroke-linecap="round" stroke-linejoin="round" stroke-width="2.6523580593627734"/>
  <path d="M 88.98310006628716, 6.254205899367928 Q 88.87137894434285, 4.234280598430523, 88.46151373098643, 2.524185558192834 " fill="none" id="curve_100" stroke="#000000" stroke-linecap="round" stroke-linejoin="round" stroke-width="1.7115581409783078"/>
  <path d="M 89.23698336384754, 23.3834316672416 Q 89.43869562209483, 18.099096632267305, 89.79667957629096, 11.229493179102276 " fill="none" id="curve_103" stroke="#000000" stroke-linecap="round" stroke-linejoin="round" stroke-width="1.2698322870036198"/>
  <path d="M 64.328758163197, 55.01297808933138 Q 64.46215501180498, 54.93843808864809, 64.6006366040403, 54.78941214245156 " fill="none" id="curve_106" stroke="#000000" stroke-linecap="round" stroke-linejoin="round" stroke-width="2.0569416918625243"/>
  <path d="M 86.23076440847035, 85.12653516823607 Q 86.83002257473338, 84.60911338425382, 87.57804369029527, 83.96376098826707 " fill="none" id="curve_108" stroke="#000000" stroke-linecap="round" stroke-linejoin="round" stroke-width="3.399680809096791"/>
  <path d="M 82.90299244974135, 52.229902926591265 Q 81.32012256711688, 52.216638720419866, 78.67749613721467, 52.19412215204492 " fill="none" id="curve_111" stroke="#000000" stroke-linecap="round" stroke-linejoin="round" stroke-width="1.652086534009166"/>
</svg>
