<?xml version="1.0" ?>
<svg height="140" width="140" xmlns="http://www.w3.org/2000/svg">
  <path d="M 42.3088436126709, 49.59142231941223 Q 41.810099528915444, 48.17544513913107, 36.79348828784737, 47.75546258192216 " fill="none" id="curve_1" stroke="#000000" stroke-linecap="round" stroke-linejoin="round" stroke-width="5.219917720692631"/>
  <path d="M 36.79348828784737, 47.75546258192216 Q 30.626201886145818, 49.84096659125372, 27.622616246217962, 63.96619039936023 " fill="none" id="curve_1" stroke="#000000" stroke-linecap="round" stroke-linejoin="round" stroke-width="5.844275610870588"/>
  <path d="M 27.622616246217962, 63.96619039936023 Q 26.393916805751083, 68.62282703767093, 25.69839565870766, 77.03026805041216 " fill="none" id="curve_1" stroke="#000000" stroke-linecap="round" stroke-linejoin="round" stroke-width="6.166301260547579"/>
  <path d="M 25.69839565870766, 77.03026805041216 Q 26.796566342255698, 96.67518374545125, 37.35709488717114, 99.91619400578874 " fill="none" id="curve_1" stroke="#000000" stroke-linecap="round" stroke-linejoin="round" stroke-width="4.635219695116458"/>
  <path d="M 37.35709488717114, 99.91619400578874 Q 52.48032305555205, 99.08192153935616, 54.94217293832135, 74.5087344742297 " fill="none" id="curve_1" stroke="#000000" stroke-linecap="round" stroke-linejoin="round" stroke-width="5.135390490252315"/>
  <path d="M 54.94217293832135, 74.5087344742297 Q 53.4082553074251, 58.10657785271276, 41.123405161665886, 50.58157950623691 " fill="none" id="curve_1" stroke="#000000" stroke-linecap="round" stroke-linejoin="round" stroke-width="4.891592047324654"/>
  <path d="M 54.67509170152181, 77.41481661806098 Q 52.21630566952629, 91.36702089747148, 42.425977339624076, 97.92634351717561 " fill="none" id="curve_2" stroke="#000000" stroke-linecap="round" stroke-linejoin="round" stroke-width="3.159356683580119"/>
  <path d="M 52.86286685112967, 78.01827945548604 Q 52.391822376462294, 83.86718240125133, 51.35988694307336, 87.86559260033943 " fill="none" id="curve_3" stroke="#000000" stroke-linecap="round" stroke-linejoin="round" stroke-width="2.7475989279826405"/>
  <path d="M 50.93026790080398, 58.85613410053007 Q 48.149140166424, 53.39978025114289, 40.10508487369192, 49.14366324262354 " fill="none" id="curve_4" stroke="#000000" stroke-linecap="round" stroke-linejoin="round" stroke-width="3.2485438306032304"/>
  <path d="M 30.17530727566159, 61.36278368607242 Q 31.693561599677324, 58.99344413101803, 32.905756624276535, 54.14983946542724 " fill="none" id="curve_5" stroke="#000000" stroke-linecap="round" stroke-linejoin="round" stroke-width="2.4950661070573448"/>
  <path d="M 44.714101988853486, 97.49005014885583 Q 35.94557730974047, 97.42547227196177, 33.12631195976891, 96.95854081889058 " fill="none" id="curve_8" stroke="#000000" stroke-linecap="round" stroke-linejoin="round" stroke-width="3.3649397296833303"/>
  <path d="M 52.898390483579206, 73.93071936200765 Q 53.09499485763497, 74.06903559679446, 53.19002687234859, 74.89062610287328 " fill="none" id="curve_9" stroke="#000000" stroke-linecap="round" stroke-linejoin="round" stroke-width="3.6671146627685025"/>
  <path d="M 41.53510454246295, 48.86896964971397 Q 44.11974155994001, 51.35190640259069, 47.2317122320741, 57.15364290174569 " fill="none" id="curve_27" stroke="#000000" stroke-linecap="round" stroke-linejoin="round" stroke-width="2.00631109862509"/>
  <path d="M 50.40613411667536, 60.53550816015499 Q 48.14500601497045, 53.969262501467625, 40.42989507994974, 48.10916224452637 " fill="none" id="curve_70" stroke="#000000" stroke-linecap="round" stroke-linejoin="round" stroke-width="2.423930475830068"/>
  <path d="M 26.99662450409035, 81.46889953815499 Q 27.778067213747377, 81.23687855513221, 28.919804316201635, 80.68241336018222 " fill="none" id="curve_71" stroke="#000000" stroke-linecap="round" stroke-linejoin="round" stroke-width="2.5316991784424787"/>
  <path d="M 40.239022500717134, 49.59057751406911 Q 43.217838000008506, 50.15066755223192, 45.6330261198462, 52.03871147894557 " fill="none" id="curve_73" stroke="#000000" stroke-linecap="round" stroke-linejoin="round" stroke-width="2.4078854871751743"/>
  <path d="M 52.849942099263245, 69.5235396342364 Q 53.486867025366294, 72.83430180932206, 54.1886567358961, 81.73823583867707 " fill="none" id="curve_76" stroke="#000000" stroke-linecap="round" stroke-linejoin="round" stroke-width="2.766382151603377"/>
  <path d="M 27.40092685640628, 90.2280413434426 Q 26.681929366717576, 86.98186161184431, 24.89964515374372, 83.0380305321468 " fill="none" id="curve_111" stroke="#000000" stroke-linecap="round" stroke-linejoin="round" stroke-width="2.747001416177685"/>
  <path d="M 27.806963175514557, 92.44918131213473 Q 29.37240625652776, 96.15550346052532, 33.84583395544904, 98.86286044576734 " fill="none" id="curve_120" stroke="#000000" stroke-linecap="round" stroke-linejoin="round" stroke-width="3.220732258715383"/>
  <path d="M 55.368497501277474, 78.80214127594608 Q 50.50452144137026, 84.05982822598364, 47.313664034651794, 96.95510610977841 " fill="none" id="curve_169" stroke="#000000" stroke-linecap="round" stroke-linejoin="round" stroke-width="2.9308010213944558"/>
</svg>
