<?xml version="1.0" ?>
<svg height="140" width="140" xmlns="http://www.w3.org/2000/svg">
  <path d="M 60.59237289428711, 84.58202934265137 Q 60.23591486725544, 87.37564590240257, 58.05703020213355, 90.63340614022468 " fill="none" id="curve_1" stroke="#000000" stroke-linecap="round" stroke-linejoin="round" stroke-width="6.044615949008951"/>
  <path d="M 58.05703020213355, 90.63340614022468 Q 53.82033508539533, 97.39375692806381, 43.21063885121493, 106.20225495390117 " fill="none" id="curve_1" stroke="#000000" stroke-linecap="round" stroke-linejoin="round" stroke-width="6.448700879197853"/>
  <path d="M 43.21063885121493, 106.20225495390117 Q 40.53776098747523, 109.87021693167694, 28.25724980103574, 110.77778818618897 " fill="none" id="curve_1" stroke="#000000" stroke-linecap="round" stroke-linejoin="round" stroke-width="6.474694302017131"/>
  <path d="M 28.25724980103574, 110.77778818618897 Q 17.910650509607017, 109.52543607826743, 15.706811614556191, 94.14777207525427 " fill="none" id="curve_1" stroke="#000000" stroke-linecap="round" stroke-linejoin="round" stroke-width="6.07982187969042"/>
  <path d="M 15.706811614556191, 94.14777207525427 Q 16.881055820977778, 80.01660376756324, 21.361948898270928, 71.32974609298432 " fill="none" id="curve_1" stroke="#000000" stroke-linecap="round" stroke-linejoin="round" stroke-width="12.025490076164544"/>
  <path d="M 21.361948898270928, 71.32974609298432 Q 25.045061059262455, 65.55792839019853, 33.88922382516466, 59.176575873385694 " fill="none" id="curve_1" stroke="#000000" stroke-linecap="round" stroke-linejoin="round" stroke-width="4.574614028750736"/>
  <path d="M 33.88922382516466, 59.176575873385694 Q 44.63825667319031, 56.62750249319325, 58.808937364414874, 53.75833388368391 " fill="none" id="curve_1" stroke="#000000" stroke-linecap="round" stroke-linejoin="round" stroke-width="4.150916947942477"/>
  <path d="M 58.808937364414874, 53.75833388368391 Q 65.0430087489386, 56.27185928712167, 66.09462521188043, 70.40634548754592 " fill="none" id="curve_1" stroke="#000000" stroke-linecap="round" stroke-linejoin="round" stroke-width="6.109597351015309"/>
  <path d="M 66.09462521188043, 70.40634548754592 Q 65.0018706195823, 82.5684071045562, 61.04284440718129, 86.65669658435439 " fill="none" id="curve_1" stroke="#000000" stroke-linecap="round" stroke-linejoin="round" stroke-width="5.504744374114684"/>
  <path d="M 41.45704494376709, 58.51425022994562 Q 34.34548042295017, 63.930255153080445, 22.217531709303852, 70.8266439947025 " fill="none" id="curve_2" stroke="#000000" stroke-linecap="round" stroke-linejoin="round" stroke-width="3.31191443129729"/>
  <path d="M 22.217531709303852, 70.8266439947025 Q 22.41148498343133, 60.66870308696738, 24.325162520419767, 58.83864418545116 " fill="none" id="curve_2" stroke="#000000" stroke-linecap="round" stroke-linejoin="round" stroke-width="4.54085107932789"/>
  <path d="M 24.325162520419767, 58.83864418545116 Q 20.30214280563675, 64.29674732266967, 17.041050423326894, 74.59580166851777 " fill="none" id="curve_2" stroke="#000000" stroke-linecap="round" stroke-linejoin="round" stroke-width="3.0820553984569483"/>
  <path d="M 17.041050423326894, 74.59580166851777 Q 26.293522039634638, 71.50587211314007, 35.870254251845, 62.19240040863862 " fill="none" id="curve_2" stroke="#000000" stroke-linecap="round" stroke-linejoin="round" stroke-width="2.5633288422545464"/>
  <path d="M 35.870254251845, 62.19240040863862 Q 37.75527322295855, 55.68738678995311, 50.644412201262526, 54.079002386031604 " fill="none" id="curve_2" stroke="#000000" stroke-linecap="round" stroke-linejoin="round" stroke-width="3.8307883671329535"/>
  <path d="M 50.644412201262526, 54.079002386031604 Q 62.22369095790086, 55.94166246590173, 65.12556987238204, 64.16254686533794 " fill="none" id="curve_2" stroke="#000000" stroke-linecap="round" stroke-linejoin="round" stroke-width="2.4087842795862815"/>
  <path d="M 90.28202621879139, 61.73978756290149 Q 89.8159855345057, 63.34533518816616, 89.71190097391558, 84.26999413022908 " fill="none" id="curve_3" stroke="#000000" stroke-linecap="round" stroke-linejoin="round" stroke-width="1.6257873691910913"/>
  <path d="M 89.71190097391558, 84.26999413022908 Q 89.70184999823661, 95.9554971096777, 89.6441089699111, 109.9712398566694 " fill="none" id="curve_3" stroke="#000000" stroke-linecap="round" stroke-linejoin="round" stroke-width="1.6594019541034208"/>
  <path d="M 89.6441089699111, 109.9712398566694 Q 89.65338646431887, 119.8092307121217, 89.71952798531979, 132.8762593921258 " fill="none" id="curve_3" stroke="#000000" stroke-linecap="round" stroke-linejoin="round" stroke-width="1.6369654672289071"/>
  <path d="M 89.71952798531979, 132.8762593921258 Q 89.63826268454076, 138.0308633147169, 89.22930811645699, 139.43492461760542 " fill="none" id="curve_3" stroke="#000000" stroke-linecap="round" stroke-linejoin="round" stroke-width="2.0550209469914877"/>
  <path d="M 89.22930811645699, 139.43492461760542 Q 89.10588180776037, 138.8267460616618, 88.85500175079251, 138.30345389598395 " fill="none" id="curve_3" stroke="#000000" stroke-linecap="round" stroke-linejoin="round" stroke-width="1.5021865615390486"/>
  <path d="M 60.77317718884747, 82.04141635849405 Q 61.52747715227126, 76.52894743508112, 65.56185054467659, 73.56619079835023 " fill="none" id="curve_6" stroke="#000000" stroke-linecap="round" stroke-linejoin="round" stroke-width="3.0906208380603575"/>
  <path d="M 65.56185054467659, 73.56619079835023 Q 66.88880703283019, 72.00980864982797, 68.70719022507308, 70.72657453675362 " fill="none" id="curve_6" stroke="#000000" stroke-linecap="round" stroke-linejoin="round" stroke-width="2.5325437233561003"/>
  <path d="M 89.75184486777619, 59.820037476224236 Q 89.72088416055412, 55.876880961819126, 89.6887591673282, 40.85356369747318 " fill="none" id="curve_7" stroke="#000000" stroke-linecap="round" stroke-linejoin="round" stroke-width="1.543972948456536"/>
  <path d="M 89.6887591673282, 40.85356369747318 Q 89.70125699230815, 36.303725437629865, 89.71765250545859, 25.529671000898986 " fill="none" id="curve_7" stroke="#000000" stroke-linecap="round" stroke-linejoin="round" stroke-width="1.4796154525752305"/>
  <path d="M 89.71765250545859, 25.529671000898986 Q 89.67321421504803, 22.737694097525864, 89.6382296886954, 11.951072340405771 " fill="none" id="curve_7" stroke="#000000" stroke-linecap="round" stroke-linejoin="round" stroke-width="1.445388385413207"/>
  <path d="M 89.6382296886954, 11.951072340405771 Q 89.53726712050405, 5.2879712589980175, 89.2023825647375, 0.7898617041339797 " fill="none" id="curve_7" stroke="#000000" stroke-linecap="round" stroke-linejoin="round" stroke-width="1.7244186046368497"/>
  <path d="M 89.2023825647375, 0.7898617041339797 Q 88.90006082413623, 1.424802325966802, 88.55314105784291, 2.2648738108462037 " fill="none" id="curve_7" stroke="#000000" stroke-linecap="round" stroke-linejoin="round" stroke-width="2.079682624413037"/>
  <path d="M 13.564954806747362, 90.09110465324315 Q 14.583688196630035, 91.79065565678285, 15.938403158391315, 95.20676869723931 " fill="none" id="curve_15" stroke="#000000" stroke-linecap="round" stroke-linejoin="round" stroke-width="3.456698910920706"/>
  <path d="M 15.938403158391315, 95.20676869723931 Q 15.837598930022418, 91.20322778194915, 15.687130956835881, 80.45094720868619 " fill="none" id="curve_15" stroke="#000000" stroke-linecap="round" stroke-linejoin="round" stroke-width="2.6638428946320807"/>
  <path d="M 24.826381925060076, 108.5157165347054 Q 17.923270786718795, 106.07616631576887, 14.635329106427614, 90.96073464307005 " fill="none" id="curve_16" stroke="#000000" stroke-linecap="round" stroke-linejoin="round" stroke-width="2.8821543653972967"/>
  <path d="M 14.635329106427614, 90.96073464307005 Q 17.481528489762823, 96.19594920397822, 21.11526188975042, 104.07334544355656 " fill="none" id="curve_16" stroke="#000000" stroke-linecap="round" stroke-linejoin="round" stroke-width="3.6713739640211176"/>
  <path d="M 34.95316192432037, 108.78953395228098 Q 37.89697853878383, 107.51524125051469, 42.23049874269577, 105.85564669183167 " fill="none" id="curve_19" stroke="#000000" stroke-linecap="round" stroke-linejoin="round" stroke-width="2.9980144904039907"/>
  <path d="M 42.23049874269577, 105.85564669183167 Q 37.98551419534903, 107.38794513594648, 33.335044352603454, 109.65011848519471 " fill="none" id="curve_19" stroke="#000000" stroke-linecap="round" stroke-linejoin="round" stroke-width="3.621090438420901"/>
  <path d="M 31.016943595025793, 66.35009909263312 Q 25.83955479532657, 69.85913939808582, 16.111753710716663, 74.61089413442207 " fill="none" id="curve_125" stroke="#000000" stroke-linecap="round" stroke-linejoin="round" stroke-width="3.1931802919508456"/>
  <path d="M 48.171357089870256, 54.60624639899059 Q 39.57882581962485, 54.87506684017483, 37.88924980827214, 58.79364209040513 " fill="none" id="curve_141" stroke="#000000" stroke-linecap="round" stroke-linejoin="round" stroke-width="2.9725256405305513"/>
</svg>
