<?xml version="1.0" ?>
<svg height="140" width="140" xmlns="http://www.w3.org/2000/svg">
  <path d="M 60.71514558792114, 93.6039047241211 Q 61.5880636315946, 91.70202021304135, 62.11836703368175, 83.43645410960039 " fill="none" id="curve_1" stroke="#000000" stroke-linecap="round" stroke-linejoin="round" stroke-width="6.299211381883926"/>
  <path d="M 62.11836703368175, 83.43645410960039 Q 61.40909502192692, 68.48346505134455, 52.747080126584294, 59.54328760657483 " fill="none" id="curve_1" stroke="#000000" stroke-linecap="round" stroke-linejoin="round" stroke-width="4.20652101214892"/>
  <path d="M 52.747080126584294, 59.54328760657483 Q 51.55908217621676, 58.039031899382735, 41.10910234262458, 57.545567749793655 " fill="none" id="curve_1" stroke="#000000" stroke-linecap="round" stroke-linejoin="round" stroke-width="3.43698342330267"/>
  <path d="M 41.10910234262458, 57.545567749793655 Q 34.51954474362017, 64.0626452370574, 22.66628114900426, 76.76400659068406 " fill="none" id="curve_1" stroke="#000000" stroke-linecap="round" stroke-linejoin="round" stroke-width="4.776374521109237"/>
  <path d="M 22.66628114900426, 76.76400659068406 Q 18.285324410217296, 82.83581099903375, 13.057820308798359, 103.44019155814016 " fill="none" id="curve_1" stroke="#000000" stroke-linecap="round" stroke-linejoin="round" stroke-width="5.27662507123134"/>
  <path d="M 13.057820308798359, 103.44019155814016 Q 14.826994608306025, 120.56182925275085, 35.808918574690175, 124.56189501237637 " fill="none" id="curve_1" stroke="#000000" stroke-linecap="round" stroke-linejoin="round" stroke-width="4.998695685868405"/>
  <path d="M 35.808918574690175, 124.56189501237637 Q 52.16920495723815, 122.15075363627246, 60.51868452621591, 99.78951369410699 " fill="none" id="curve_1" stroke="#000000" stroke-linecap="round" stroke-linejoin="round" stroke-width="5.348983856409283"/>
  <path d="M 60.51868452621591, 99.78951369410699 Q 60.879382328210525, 94.74107779291873, 62.05391515717867, 92.73436301131784 " fill="none" id="curve_1" stroke="#000000" stroke-linecap="round" stroke-linejoin="round" stroke-width="4.412604950093569"/>
  <path d="M 90.1781467437341, 84.74546840526641 Q 89.5043916542082, 85.64332364098733, 89.40149161370313, 119.89738224346144 " fill="none" id="curve_2" stroke="#000000" stroke-linecap="round" stroke-linejoin="round" stroke-width="2.4471186915629035"/>
  <path d="M 89.40149161370313, 119.89738224346144 Q 89.35560860508329, 133.55402339567948, 89.18786933963312, 138.5192902902576 " fill="none" id="curve_2" stroke="#000000" stroke-linecap="round" stroke-linejoin="round" stroke-width="2.5366064233522128"/>
  <path d="M 89.18786933963312, 138.5192902902576 Q 89.11703298307413, 138.49628601968945, 88.93793459118034, 138.47957965174896 " fill="none" id="curve_2" stroke="#000000" stroke-linecap="round" stroke-linejoin="round" stroke-width="1.897211532933753"/>
  <path d="M 56.74493280858416, 104.87629810829948 Q 57.3688851532639, 98.83788077562308, 60.81071011578343, 92.51091904371435 " fill="none" id="curve_4" stroke="#000000" stroke-linecap="round" stroke-linejoin="round" stroke-width="2.2024867620427426"/>
  <path d="M 60.81071011578343, 92.51091904371435 Q 62.114197004093086, 91.15536132926515, 63.67763419108775, 89.8528471279587 " fill="none" id="curve_4" stroke="#000000" stroke-linecap="round" stroke-linejoin="round" stroke-width="3.0995353963778363"/>
  <path d="M 89.348094905291, 83.76375818808577 Q 89.29438056870332, 78.94688027155313, 89.20615868856274, 59.83061465304803 " fill="none" id="curve_5" stroke="#000000" stroke-linecap="round" stroke-linejoin="round" stroke-width="2.1427138352170485"/>
  <path d="M 89.20615868856274, 59.83061465304803 Q 89.19671506794086, 53.0362770316772, 89.16050008746146, 40.10076750939303 " fill="none" id="curve_5" stroke="#000000" stroke-linecap="round" stroke-linejoin="round" stroke-width="2.4485878644216594"/>
  <path d="M 89.16050008746146, 40.10076750939303 Q 89.15481785360842, 32.624525907640354, 89.12497108284278, 22.580865962815142 " fill="none" id="curve_5" stroke="#000000" stroke-linecap="round" stroke-linejoin="round" stroke-width="2.429390053513259"/>
  <path d="M 89.12497108284278, 22.580865962815142 Q 89.12388177775858, 15.637801802294442, 89.11887093532093, 5.671214591263475 " fill="none" id="curve_5" stroke="#000000" stroke-linecap="round" stroke-linejoin="round" stroke-width="2.4134607918108673"/>
  <path d="M 89.11887093532093, 5.671214591263475 Q 89.00871240612692, 2.635115485398033, 88.49947484378457, 1.7787324030286902 " fill="none" id="curve_5" stroke="#000000" stroke-linecap="round" stroke-linejoin="round" stroke-width="4.112878437161687"/>
  <path d="M 88.49947484378457, 1.7787324030286902 Q 88.94643174840944, 1.4331481678937685, 89.56376431508079, 1.030850018455066 " fill="none" id="curve_5" stroke="#000000" stroke-linecap="round" stroke-linejoin="round" stroke-width="1.6619173788662258"/>
  <path d="M 29.354328254057165, 66.34363231995557 Q 24.063171077206487, 72.61306635127853, 17.436620586722878, 82.6927458980165 " fill="none" id="curve_11" stroke="#000000" stroke-linecap="round" stroke-linejoin="round" stroke-width="3.0303583205479443"/>
  <path d="M 45.86882872591417, 118.07489604439274 Q 45.00591224796554, 121.76733848770992, 31.82958882153198, 122.39595767854601 " fill="none" id="curve_12" stroke="#000000" stroke-linecap="round" stroke-linejoin="round" stroke-width="3.8076690494991676"/>
  <path d="M 28.231158438350338, 65.43603846594324 Q 26.34118463450247, 67.80804437514988, 24.14398753044728, 73.98344388776692 " fill="none" id="curve_16" stroke="#000000" stroke-linecap="round" stroke-linejoin="round" stroke-width="3.2044081274904492"/>
  <path d="M 38.1552767724741, 59.4188558716547 Q 37.69308568881587, 59.84587407900481, 36.957748921371724, 60.72473864288423 " fill="none" id="curve_17" stroke="#000000" stroke-linecap="round" stroke-linejoin="round" stroke-width="2.946650548767504"/>
  <path d="M 22.882569949708902, 73.73278737952599 Q 22.086683504259696, 74.11579132628036, 20.86262903676723, 74.97233740495567 " fill="none" id="curve_28" stroke="#000000" stroke-linecap="round" stroke-linejoin="round" stroke-width="2.570801228997679"/>
  <path d="M 14.855644584597465, 86.23417167910462 Q 15.09096810415951, 101.86739823771208, 15.894769150973408, 109.91296544133193 " fill="none" id="curve_51" stroke="#000000" stroke-linecap="round" stroke-linejoin="round" stroke-width="2.9921034105275828"/>
  <path d="M 54.20988289706395, 110.65518245257287 Q 51.09835659262397, 117.56579871152026, 41.33471479204184, 121.84625631042883 " fill="none" id="curve_54" stroke="#000000" stroke-linecap="round" stroke-linejoin="round" stroke-width="3.2854287000112805"/>
  <path d="M 26.409618568200372, 120.04668689847854 Q 28.156557879242214, 121.45926554644112, 31.914851464237984, 122.50389539698199 " fill="none" id="curve_55" stroke="#000000" stroke-linecap="round" stroke-linejoin="round" stroke-width="3.0907858892436164"/>
  <path d="M 25.19521029884215, 72.74168590328132 Q 26.82656269132521, 72.9600118899662, 28.403563296697442, 73.51773076063932 " fill="none" id="curve_56" stroke="#000000" stroke-linecap="round" stroke-linejoin="round" stroke-width="3.4039949495763637"/>
  <path d="M 55.105225127040434, 62.46086409194961 Q 51.7500942214283, 60.44492692232778, 47.63720271521689, 56.73772475499373 " fill="none" id="curve_86" stroke="#000000" stroke-linecap="round" stroke-linejoin="round" stroke-width="2.394869589782925"/>
  <path d="M 34.73989349700886, 62.33158749534385 Q 37.15813795177065, 59.71364819317771, 41.22647018054091, 57.29025893876428 " fill="none" id="curve_87" stroke="#000000" stroke-linecap="round" stroke-linejoin="round" stroke-width="2.4088803201042888"/>
  <path d="M 59.90670512397912, 93.84081603764878 Q 59.95075558158362, 93.4676233090358, 60.01763373960939, 93.04365583035475 " fill="none" id="curve_115" stroke="#000000" stroke-linecap="round" stroke-linejoin="round" stroke-width="4.113267531315341"/>
  <path d="M 19.477995810208398, 83.09200967184549 Q 20.37783950557371, 83.14228742225636, 21.271052492798816, 83.26629350447455 " fill="none" id="curve_126" stroke="#000000" stroke-linecap="round" stroke-linejoin="round" stroke-width="2.972101785631836"/>
  <path d="M 18.87726685683493, 119.63935893029628 Q 18.20555795734328, 117.51528304892086, 17.310793913572507, 114.29036432810274 " fill="none" id="curve_128" stroke="#000000" stroke-linecap="round" stroke-linejoin="round" stroke-width="2.6270269176051406"/>
  <path d="M 53.80523780243996, 108.5796850445741 Q 55.16930107568754, 106.76024889572307, 58.11827005134386, 104.6946194214891 " fill="none" id="curve_129" stroke="#000000" stroke-linecap="round" stroke-linejoin="round" stroke-width="2.7323780401656688"/>
  <path d="M 50.59761068359717, 58.229102546138364 Q 50.48714657831609, 57.97535967685839, 50.20376330421545, 57.74660194697995 " fill="none" id="curve_131" stroke="#000000" stroke-linecap="round" stroke-linejoin="round" stroke-width="2.4864206888212914"/>
</svg>
