<?xml version="1.0" ?>
<svg height="140" width="140" xmlns="http://www.w3.org/2000/svg">
  <path d="M 45.75091075897217, 43.075828552246094 Q 45.63129286599209, 41.80993746754046, 39.95471403872614, 41.69400911076761 " fill="none" id="curve_1" stroke="#000000" stroke-linecap="round" stroke-linejoin="round" stroke-width="8.95150494216534"/>
  <path d="M 39.95471403872614, 41.69400911076761 Q 26.287060449740032, 42.53555696527154, 17.983753906869328, 51.35868410142534 " fill="none" id="curve_1" stroke="#000000" stroke-linecap="round" stroke-linejoin="round" stroke-width="4.73805985511964"/>
  <path d="M 17.983753906869328, 51.35868410142534 Q 10.615729849431501, 55.976068373900524, 6.933759247517051, 71.32338385541789 " fill="none" id="curve_1" stroke="#000000" stroke-linecap="round" stroke-linejoin="round" stroke-width="6.03040501333104"/>
  <path d="M 6.933759247517051, 71.32338385541789 Q 7.736062593103147, 92.64534512270626, 28.22986488055914, 94.78404098576844 " fill="none" id="curve_1" stroke="#000000" stroke-linecap="round" stroke-linejoin="round" stroke-width="5.247736613759417"/>
  <path d="M 28.22986488055914, 94.78404098576844 Q 55.801665508721754, 93.85136324148495, 63.53629932536926, 74.40785589214475 " fill="none" id="curve_1" stroke="#000000" stroke-linecap="round" stroke-linejoin="round" stroke-width="4.9436461244239265"/>
  <path d="M 63.53629932536926, 74.40785589214475 Q 63.38781429724778, 43.688078679533675, 50.84348665716766, 41.626421262130535 " fill="none" id="curve_1" stroke="#000000" stroke-linecap="round" stroke-linejoin="round" stroke-width="5.833616270578566"/>
  <path d="M 89.69317271934977, 32.13947253283493 Q 89.3141607645856, 38.501340397510106, 88.9244700883881, 72.6988600249137 " fill="none" id="curve_2" stroke="#000000" stroke-linecap="round" stroke-linejoin="round" stroke-width="3.3365235556308566"/>
  <path d="M 88.9244700883881, 72.6988600249137 Q 88.91814262765932, 82.5888659768231, 88.8941132949588, 111.4377463895591 " fill="none" id="curve_2" stroke="#000000" stroke-linecap="round" stroke-linejoin="round" stroke-width="3.3113507613517204"/>
  <path d="M 88.8941132949588, 111.4377463895591 Q 88.8522775784495, 131.78899056413223, 88.61395601741242, 138.9774723391107 " fill="none" id="curve_2" stroke="#000000" stroke-linecap="round" stroke-linejoin="round" stroke-width="3.244688853936988"/>
  <path d="M 88.61395601741242, 138.9774723391107 Q 88.11633764182314, 138.46324780829283, 87.26406648809865, 138.0070156613948 " fill="none" id="curve_2" stroke="#000000" stroke-linecap="round" stroke-linejoin="round" stroke-width="3.0681354464048707"/>
  <path d="M 50.58343693379666, 86.88689492037226 Q 45.17553596137336, 88.58521765166066, 41.0199716587019, 92.3674644139802 " fill="none" id="curve_4" stroke="#000000" stroke-linecap="round" stroke-linejoin="round" stroke-width="2.7790886330570186"/>
  <path d="M 41.0199716587019, 92.3674644139802 Q 27.83249506037386, 92.34207219720054, 23.664863963264803, 92.182623782678 " fill="none" id="curve_4" stroke="#000000" stroke-linecap="round" stroke-linejoin="round" stroke-width="3.009897778874258"/>
  <path d="M 10.275171131035783, 88.37659833834459 Q 11.729860892484238, 90.9649281695826, 16.840128523706696, 92.42395733407352 " fill="none" id="curve_5" stroke="#000000" stroke-linecap="round" stroke-linejoin="round" stroke-width="2.9176696464680067"/>
  <path d="M 16.840128523706696, 92.42395733407352 Q 10.924892937182511, 89.39154119570347, 7.869615062311899, 76.39747458231487 " fill="none" id="curve_5" stroke="#000000" stroke-linecap="round" stroke-linejoin="round" stroke-width="3.659129371506721"/>
  <path d="M 7.869615062311899, 76.39747458231487 Q 9.259140941510589, 75.17960963801414, 9.592705462409992, 66.9786511274959 " fill="none" id="curve_5" stroke="#000000" stroke-linecap="round" stroke-linejoin="round" stroke-width="2.7068717414216814"/>
  <path d="M 45.29101518808388, 40.53277935917143 Q 59.5376821603013, 40.645212085852705, 60.155644799240434, 45.77608800663101 " fill="none" id="curve_7" stroke="#000000" stroke-linecap="round" stroke-linejoin="round" stroke-width="2.890342128968492"/>
  <path d="M 60.155644799240434, 45.77608800663101 Q 58.09875937732927, 49.28623065695562, 55.55374320416122, 52.427870791988745 " fill="none" id="curve_7" stroke="#000000" stroke-linecap="round" stroke-linejoin="round" stroke-width="2.7558617849233857"/>
  <path d="M 44.21670404009155, 42.39611520443619 Q 54.170129728859806, 44.802667306783455, 59.677622993495575, 50.57075159958694 " fill="none" id="curve_8" stroke="#000000" stroke-linecap="round" stroke-linejoin="round" stroke-width="2.495638901026268"/>
  <path d="M 38.265777197885264, 44.87027766205102 Q 38.44467306538097, 45.440718300069825, 38.67062934217146, 46.685960952623866 " fill="none" id="curve_10" stroke="#000000" stroke-linecap="round" stroke-linejoin="round" stroke-width="3.144334655267697"/>
  <path d="M 20.477117889261905, 47.39913564623975 Q 14.700650053270415, 51.609370197969675, 9.455228498024798, 59.14085063095066 " fill="none" id="curve_11" stroke="#000000" stroke-linecap="round" stroke-linejoin="round" stroke-width="3.1718934920114257"/>
  <path d="M 11.54040347429191, 87.91735674472618 Q 19.830495675805658, 90.05090796751716, 27.670152855148775, 93.2813739589834 " fill="none" id="curve_12" stroke="#000000" stroke-linecap="round" stroke-linejoin="round" stroke-width="3.1045177416665806"/>
  <path d="M 7.8549606895529855, 82.87117967928548 Q 7.371483356196392, 78.9594768678666, 6.502883747380514, 75.79002194651876 " fill="none" id="curve_13" stroke="#000000" stroke-linecap="round" stroke-linejoin="round" stroke-width="3.304804517472552"/>
  <path d="M 44.89900651321754, 39.46243761905728 Q 47.58806377853405, 39.98451188710903, 51.5276664102434, 41.07811956966686 " fill="none" id="curve_15" stroke="#000000" stroke-linecap="round" stroke-linejoin="round" stroke-width="2.8762567827892007"/>
  <path d="M 89.51700182365656, 30.01953100129091 Q 89.15445588299526, 23.941515230372215, 88.81764592474332, 2.116418308359709 " fill="none" id="curve_16" stroke="#000000" stroke-linecap="round" stroke-linejoin="round" stroke-width="3.1081891286239878"/>
  <path d="M 88.81764592474332, 2.116418308359709 Q 88.59334393799371, 2.0450774352702332, 88.36878647626699, 1.903821061969769 " fill="none" id="curve_16" stroke="#000000" stroke-linecap="round" stroke-linejoin="round" stroke-width="3.4546337840836037"/>
  <path d="M 63.249442649169694, 68.72773900414717 Q 62.3288524374588, 79.70920176019875, 55.21720236160483, 83.54019207901116 " fill="none" id="curve_19" stroke="#000000" stroke-linecap="round" stroke-linejoin="round" stroke-width="3.13493921302748"/>
  <path d="M 63.53516393193173, 65.71413973347941 Q 62.43308490339824, 76.05228795490916, 57.586410769968076, 80.96347912359697 " fill="none" id="curve_20" stroke="#000000" stroke-linecap="round" stroke-linejoin="round" stroke-width="2.949794402605693"/>
  <path d="M 45.078033879771745, 44.5280124229002 Q 44.930456486607625, 43.970003960192805, 44.709977350780456, 43.05103178055648 " fill="none" id="curve_23" stroke="#000000" stroke-linecap="round" stroke-linejoin="round" stroke-width="2.6602169042187698"/>
  <path d="M 54.90684271181997, 40.36134388339745 Q 54.05187424586929, 40.27538230570048, 52.312465368858554, 40.164193837777106 " fill="none" id="curve_24" stroke="#000000" stroke-linecap="round" stroke-linejoin="round" stroke-width="2.795111440642751"/>
  <path d="M 88.12876665230178, 27.776666196421452 Q 88.60314990589211, 31.22842166592367, 88.98468278517194, 39.06190957606371 " fill="none" id="curve_31" stroke="#000000" stroke-linecap="round" stroke-linejoin="round" stroke-width="2.1520729811878603"/>
  <path d="M 87.58248718475377, 3.146477943337537 Q 88.001324904362, 2.527906615391418, 88.65242855449844, 1.7534846136920137 " fill="none" id="curve_32" stroke="#000000" stroke-linecap="round" stroke-linejoin="round" stroke-width="2.7932665656011406"/>
  <path d="M 12.342148446435939, 87.39200147137758 Q 10.756176533883519, 83.23795704575029, 8.625799388313649, 76.98331901878083 " fill="none" id="curve_40" stroke="#000000" stroke-linecap="round" stroke-linejoin="round" stroke-width="3.340560348213206"/>
  <path d="M 19.861793751349044, 93.62084903512914 Q 17.658708802504925, 92.59700683416592, 15.332064573551516, 90.78827244107914 " fill="none" id="curve_43" stroke="#000000" stroke-linecap="round" stroke-linejoin="round" stroke-width="3.8973555772440935"/>
  <path d="M 60.554145239107875, 47.49957316370717 Q 61.04193684565596, 47.72514417666101, 62.012964145184995, 48.27466450254983 " fill="none" id="curve_58" stroke="#000000" stroke-linecap="round" stroke-linejoin="round" stroke-width="1.8285319530744102"/>
  <path d="M 64.02898814374475, 70.10114104117588 Q 63.97491236526244, 69.7817156709449, 63.92223871047649, 69.20479940602894 " fill="none" id="curve_73" stroke="#000000" stroke-linecap="round" stroke-linejoin="round" stroke-width="5.357040090745734"/>
  <path d="M 12.33709016318619, 86.65394955524783 Q 14.418381410189067, 86.68487312451396, 15.448435392022748, 86.79352213198294 " fill="none" id="curve_88" stroke="#000000" stroke-linecap="round" stroke-linejoin="round" stroke-width="2.295461585036389"/>
  <path d="M 60.81643299819831, 69.94972731281962 Q 61.5929441151013, 64.1050931412099, 64.51932356444082, 59.47232816139608 " fill="none" id="curve_168" stroke="#000000" stroke-linecap="round" stroke-linejoin="round" stroke-width="2.0191000575092213"/>
  <path d="M 52.629594992935, 40.88562333082355 Q 52.57706322510601, 39.652876746423, 52.326585032675226, 39.23107078602185 " fill="none" id="curve_169" stroke="#000000" stroke-linecap="round" stroke-linejoin="round" stroke-width="2.7395718357092265"/>
</svg>
