<?xml version="1.0" ?>
<svg height="140" width="140" xmlns="http://www.w3.org/2000/svg">
  <path d="M 52.20103454589844, 44.2589111328125 Q 51.62489954284515, 43.325231495404736, 45.96013481306511, 42.87950664500852 " fill="none" id="curve_1" stroke="#000000" stroke-linecap="round" stroke-linejoin="round" stroke-width="10.848851981684248"/>
  <path d="M 45.96013481306511, 42.87950664500852 Q 39.54398899983396, 47.78837243293637, 29.291294176567305, 63.48036102249101 " fill="none" id="curve_1" stroke="#000000" stroke-linecap="round" stroke-linejoin="round" stroke-width="6.616317479901444"/>
  <path d="M 29.291294176567305, 63.48036102249101 Q 24.541105052890252, 72.63575774013837, 13.049497192377036, 96.59417492313383 " fill="none" id="curve_1" stroke="#000000" stroke-linecap="round" stroke-linejoin="round" stroke-width="5.139205667149589"/>
  <path d="M 13.049497192377036, 96.59417492313383 Q 13.097422692920615, 123.76231811612008, 18.304578286236215, 124.50978869426473 " fill="none" id="curve_1" stroke="#000000" stroke-linecap="round" stroke-linejoin="round" stroke-width="5.527605168660243"/>
  <path d="M 18.304578286236215, 124.50978869426473 Q 32.83378725089708, 123.23603676909482, 38.16135750107875, 110.1129653048681 " fill="none" id="curve_1" stroke="#000000" stroke-linecap="round" stroke-linejoin="round" stroke-width="6.839015645588061"/>
  <path d="M 38.16135750107875, 110.1129653048681 Q 47.53662672465216, 101.02238369173142, 59.36117139856053, 67.1557080948408 " fill="none" id="curve_1" stroke="#000000" stroke-linecap="round" stroke-linejoin="round" stroke-width="5.8070745738599"/>
  <path d="M 59.36117139856053, 67.1557080948408 Q 61.31331849911304, 65.99958773667223, 61.54585011964734, 46.07783461763589 " fill="none" id="curve_1" stroke="#000000" stroke-linecap="round" stroke-linejoin="round" stroke-width="5.8652124916851385"/>
  <path d="M 61.54585011964734, 46.07783461763589 Q 58.15490113779457, 45.61881462840576, 53.362978364085144, 45.07486546189838 " fill="none" id="curve_1" stroke="#000000" stroke-linecap="round" stroke-linejoin="round" stroke-width="11.324994095268796"/>
  <path d="M 12.641951551065723, 111.79591792168245 Q 10.80247766726669, 110.40744807639634, 9.956793368085847, 103.05602946190852 " fill="none" id="curve_3" stroke="#000000" stroke-linecap="round" stroke-linejoin="round" stroke-width="2.9907748837168913"/>
  <path d="M 15.74851867898705, 120.87742517996506 Q 25.072736156353884, 120.79250982673659, 29.151711265666748, 119.6651908658826 " fill="none" id="curve_4" stroke="#000000" stroke-linecap="round" stroke-linejoin="round" stroke-width="4.786221334177267"/>
  <path d="M 29.151711265666748, 119.6651908658826 Q 28.55995029430864, 123.35178029616353, 21.605024974742015, 124.05049130658713 " fill="none" id="curve_4" stroke="#000000" stroke-linecap="round" stroke-linejoin="round" stroke-width="4.479631542778955"/>
  <path d="M 21.605024974742015, 124.05049130658713 Q 12.62283745753394, 122.9925396305577, 10.479202088937214, 113.0325138447124 " fill="none" id="curve_4" stroke="#000000" stroke-linecap="round" stroke-linejoin="round" stroke-width="4.800063292137428"/>
  <path d="M 24.592419378607627, 125.38465832084889 Q 31.577453196369515, 121.14609299182183, 37.36579328900106, 110.61778031202941 " fill="none" id="curve_5" stroke="#000000" stroke-linecap="round" stroke-linejoin="round" stroke-width="4.988015964538563"/>
  <path d="M 37.36579328900106, 110.61778031202941 Q 34.4811771214924, 117.00100678433702, 28.83920565756798, 120.27870839413198 " fill="none" id="curve_5" stroke="#000000" stroke-linecap="round" stroke-linejoin="round" stroke-width="8.740517714953334"/>
  <path d="M 28.83920565756798, 120.27870839413198 Q 39.84777381094888, 116.04048315581167, 48.27419627328471, 87.04085258993877 " fill="none" id="curve_5" stroke="#000000" stroke-linecap="round" stroke-linejoin="round" stroke-width="4.132279666844173"/>
  <path d="M 19.501443674125433, 78.60081711915335 Q 16.30659435544111, 88.70107321014343, 10.669302880536346, 102.44057821446049 " fill="none" id="curve_9" stroke="#000000" stroke-linecap="round" stroke-linejoin="round" stroke-width="3.580265238032114"/>
  <path d="M 57.396091532149185, 47.501901782283454 Q 59.222560013798116, 50.58671824523013, 61.2569572680985, 54.488357319730014 " fill="none" id="curve_13" stroke="#000000" stroke-linecap="round" stroke-linejoin="round" stroke-width="4.124710355755361"/>
  <path d="M 51.63584734152201, 82.9227735131255 Q 56.4136839680189, 81.83553770451194, 58.27084804968402, 74.04334564964122 " fill="none" id="curve_15" stroke="#000000" stroke-linecap="round" stroke-linejoin="round" stroke-width="3.5973736906621157"/>
  <path d="M 58.66458603148499, 65.85362638191994 Q 60.19598783858524, 59.69596350295205, 63.59824136030602, 54.46574309459083 " fill="none" id="curve_31" stroke="#000000" stroke-linecap="round" stroke-linejoin="round" stroke-width="2.7823394200406644"/>
  <path d="M 50.07982573988443, 48.10069188781455 Q 47.030854773903656, 47.82126014666701, 42.281877731750676, 47.14831209388306 " fill="none" id="curve_46" stroke="#000000" stroke-linecap="round" stroke-linejoin="round" stroke-width="2.3385130198682473"/>
  <path d="M 13.003560868628018, 98.55400495949021 Q 14.965403479180264, 94.49520581479291, 16.471334680938877, 84.87861012052662 " fill="none" id="curve_48" stroke="#000000" stroke-linecap="round" stroke-linejoin="round" stroke-width="3.1916520719523374"/>
  <path d="M 11.667340894591373, 63.787395941671 Q 12.005987858288089, 64.28520129974177, 12.733891660201879, 65.16603332381627 " fill="none" id="curve_51" stroke="#000000" stroke-linecap="round" stroke-linejoin="round" stroke-width="2.1194273378647717"/>
  <path d="M 39.637149810791016, 105.05058670043945 Q 35.71880732121576, 109.84618392038855, 27.97894113920188, 117.93039941027779 " fill="none" id="curve_91" stroke="#000000" stroke-linecap="round" stroke-linejoin="round" stroke-width="3.7842004903451936"/>
  <path d="M 9.865366398254764, 111.64356967036797 Q 10.26942245114541, 110.10341272328318, 10.86708668341657, 108.20958372535313 " fill="none" id="curve_92" stroke="#000000" stroke-linecap="round" stroke-linejoin="round" stroke-width="4.230919101009798"/>
  <path d="M 89.95295923491534, 1.5069365619411679 Q 89.95059986451896, 1.7275668864741833, 89.94630209948815, 2.111035423065652 " fill="none" id="curve_125" stroke="#000000" stroke-linecap="round" stroke-linejoin="round" stroke-width="1.9744420811846373"/>
  <path d="M 58.58227862963482, 70.63994646471438 Q 59.36908932877678, 61.831220492454484, 61.952410268727284, 54.43230453189321 " fill="none" id="curve_156" stroke="#000000" stroke-linecap="round" stroke-linejoin="round" stroke-width="2.564466479800857"/>
</svg>
