<?xml version="1.0" ?>
<svg height="140" width="140" xmlns="http://www.w3.org/2000/svg">
  <path d="M 42.45864987373352, 80.19092178344727 Q 38.064171971537604, 85.55637424804377, 28.088636847560906, 98.27186055285836 " fill="none" id="curve_1" stroke="#000000" stroke-linecap="round" stroke-linejoin="round" stroke-width="6.133365029450033"/>
  <path d="M 28.088636847560906, 98.27186055285836 Q 28.21911018934666, 109.93627068335945, 39.4745449465821, 110.3304069274044 " fill="none" id="curve_1" stroke="#000000" stroke-linecap="round" stroke-linejoin="round" stroke-width="5.461573635693264"/>
  <path d="M 39.4745449465821, 110.3304069274044 Q 55.37904918142135, 109.07037807028416, 63.56417598163914, 105.32501641469939 " fill="none" id="curve_1" stroke="#000000" stroke-linecap="round" stroke-linejoin="round" stroke-width="4.22747224965247"/>
  <path d="M 63.56417598163914, 105.32501641469939 Q 68.24167149157489, 102.6114522524842, 79.19289164539, 100.79114471125652 " fill="none" id="curve_1" stroke="#000000" stroke-linecap="round" stroke-linejoin="round" stroke-width="3.1095546309964264"/>
  <path d="M 47.640682253221534, 73.16919641509662 Q 42.7996197571255, 78.09382582368094, 36.39469780750612, 86.95209951902201 " fill="none" id="curve_2" stroke="#000000" stroke-linecap="round" stroke-linejoin="round" stroke-width="4.055399145108871"/>
  <path d="M 36.39469780750612, 86.95209951902201 Q 41.71818118674691, 81.18763945286247, 47.25350732891057, 71.53184073952346 " fill="none" id="curve_2" stroke="#000000" stroke-linecap="round" stroke-linejoin="round" stroke-width="4.364330935399504"/>
  <path d="M 47.25350732891057, 71.53184073952346 Q 54.954097547504745, 65.77559211949566, 62.84532330535839, 43.5341868459263 " fill="none" id="curve_2" stroke="#000000" stroke-linecap="round" stroke-linejoin="round" stroke-width="4.56609572153725"/>
  <path d="M 62.84532330535839, 43.5341868459263 Q 62.79245571618408, 28.548682098771174, 51.562956142695896, 28.198072152072278 " fill="none" id="curve_2" stroke="#000000" stroke-linecap="round" stroke-linejoin="round" stroke-width="3.871904637663274"/>
  <path d="M 51.562956142695896, 28.198072152072278 Q 37.707039368399066, 29.186900188825447, 33.89270511599656, 39.11414366970838 " fill="none" id="curve_2" stroke="#000000" stroke-linecap="round" stroke-linejoin="round" stroke-width="3.550829708038509"/>
  <path d="M 61.48294280377852, 31.252846693125385 Q 63.53506786390229, 33.38345636721216, 64.47187476939351, 39.264960834290605 " fill="none" id="curve_3" stroke="#000000" stroke-linecap="round" stroke-linejoin="round" stroke-width="2.9203005479633104"/>
  <path d="M 43.572539059857945, 28.74844040193878 Q 37.87215927958131, 31.546908106873264, 34.062995225837014, 38.618901620836404 " fill="none" id="curve_4" stroke="#000000" stroke-linecap="round" stroke-linejoin="round" stroke-width="2.3084269549041143"/>
  <path d="M 34.062995225837014, 38.618901620836404 Q 33.77260132395005, 38.352505349845075, 33.41558417612771, 37.993870378276654 " fill="none" id="curve_4" stroke="#000000" stroke-linecap="round" stroke-linejoin="round" stroke-width="3.3279436940263496"/>
  <path d="M 45.465854940742155, 77.80555188399543 Q 38.48368146917534, 85.80227869101, 27.316712853406184, 105.24896645849823 " fill="none" id="curve_5" stroke="#000000" stroke-linecap="round" stroke-linejoin="round" stroke-width="3.467332700066685"/>
  <path d="M 35.37007469060115, 89.54953285016317 Q 38.7940245500192, 86.5456517802556, 42.87328363904554, 78.64836551792368 " fill="none" id="curve_6" stroke="#000000" stroke-linecap="round" stroke-linejoin="round" stroke-width="3.2816683270242155"/>
  <path d="M 52.50533733624273, 28.337951203233533 Q 50.795071223463935, 27.87501009021282, 46.14392910008522, 27.235830779742095 " fill="none" id="curve_22" stroke="#000000" stroke-linecap="round" stroke-linejoin="round" stroke-width="2.438050188786151"/>
  <path d="M 43.46864543813969, 109.70025780627174 Q 48.19703977100093, 108.69168511908397, 53.91466578305354, 107.1777165046759 " fill="none" id="curve_33" stroke="#000000" stroke-linecap="round" stroke-linejoin="round" stroke-width="2.8156294128313353"/>
  <path d="M 41.57051440366361, 84.62079046806471 Q 36.21565232957321, 88.08407301817432, 30.36260555542539, 93.96375531675466 " fill="none" id="curve_55" stroke="#000000" stroke-linecap="round" stroke-linejoin="round" stroke-width="3.493160544323502"/>
  <path d="M 41.073331469548, 31.429841230572244 Q 38.92642914235001, 32.577936253503445, 36.825190013026216, 35.34444400606594 " fill="none" id="curve_74" stroke="#000000" stroke-linecap="round" stroke-linejoin="round" stroke-width="2.9373711729492955"/>
  <path d="M 49.372113035114644, 66.53051460208181 Q 53.634077049329576, 63.145041835068916, 58.426718751693045, 54.102859541011526 " fill="none" id="curve_84" stroke="#000000" stroke-linecap="round" stroke-linejoin="round" stroke-width="2.386936474099322"/>
  <path d="M 60.31116606560818, 105.74001497994288 Q 52.31932523564933, 106.75574179429596, 45.8438971564096, 109.94297544244016 " fill="none" id="curve_164" stroke="#000000" stroke-linecap="round" stroke-linejoin="round" stroke-width="2.219475681254725"/>
</svg>
