<?xml version="1.0" ?>
<svg height="140" width="140" xmlns="http://www.w3.org/2000/svg">
  <path d="M 39.017318191373704, 42.89363323401608 Q 30.3391766576497, 44.39302126480411, 24.83851083416733, 50.14354752533872 " fill="none" id="curve_2" stroke="#000000" stroke-linecap="round" stroke-linejoin="round" stroke-width="3.728130358963843"/>
  <path d="M 24.83851083416733, 50.14354752533872 Q 24.82785154668237, 55.174156216900855, 24.770219225979144, 56.49271153665197 " fill="none" id="curve_2" stroke="#000000" stroke-linecap="round" stroke-linejoin="round" stroke-width="3.6693444638948303"/>
  <path d="M 40.31230912204024, 45.39346317881408 Q 51.71856968686983, 46.69338277783057, 53.38982097890859, 61.011264714781746 " fill="none" id="curve_3" stroke="#000000" stroke-linecap="round" stroke-linejoin="round" stroke-width="5.882901407037888"/>
  <path d="M 53.38982097890859, 61.011264714781746 Q 52.73311980536557, 76.87889937692516, 42.283340593359114, 82.6340813341129 " fill="none" id="curve_3" stroke="#000000" stroke-linecap="round" stroke-linejoin="round" stroke-width="3.1340269512319736"/>
  <path d="M 42.283340593359114, 82.6340813341129 Q 38.053941880753555, 88.6446359144992, 33.48921871227556, 95.47280714683731 " fill="none" id="curve_3" stroke="#000000" stroke-linecap="round" stroke-linejoin="round" stroke-width="3.9927169061503838"/>
  <path d="M 33.48921871227556, 95.47280714683731 Q 36.05239735795946, 100.53088802848268, 38.066270803179926, 107.13221084283413 " fill="none" id="curve_3" stroke="#000000" stroke-linecap="round" stroke-linejoin="round" stroke-width="5.7977903191766815"/>
  <path d="M 38.066270803179926, 107.13221084283413 Q 41.0770724696679, 108.18208892690278, 52.880408773837125, 108.4759233634819 " fill="none" id="curve_3" stroke="#000000" stroke-linecap="round" stroke-linejoin="round" stroke-width="4.075507418067112"/>
  <path d="M 52.880408773837125, 108.4759233634819 Q 59.15643435361406, 107.49194182766084, 69.52867571746984, 106.70027177381118 " fill="none" id="curve_3" stroke="#000000" stroke-linecap="round" stroke-linejoin="round" stroke-width="3.3139321691734054"/>
  <path d="M 39.55556403541647, 104.73390818504019 Q 36.64291554027797, 104.71300952491634, 35.34006166943157, 104.64198848980692 " fill="none" id="curve_4" stroke="#000000" stroke-linecap="round" stroke-linejoin="round" stroke-width="5.227943361463669"/>
  <path d="M 45.357103327473254, 46.58509123349343 Q 45.08465156583912, 44.36830213914811, 42.33218500702985, 43.88334894294323 " fill="none" id="curve_6" stroke="#000000" stroke-linecap="round" stroke-linejoin="round" stroke-width="3.981089521035592"/>
  <path d="M 50.087807434583084, 52.17657226526531 Q 48.53806976846521, 48.40609405772383, 42.36311325514489, 46.26922645928597 " fill="none" id="curve_7" stroke="#000000" stroke-linecap="round" stroke-linejoin="round" stroke-width="3.0801487317530984"/>
  <path d="M 46.97177303637978, 77.71148349724356 Q 45.053601747857776, 78.46714655284347, 41.83802673704165, 80.24362247713758 " fill="none" id="curve_11" stroke="#000000" stroke-linecap="round" stroke-linejoin="round" stroke-width="3.0546606863904633"/>
  <path d="M 36.260941057804246, 96.56619814118598 Q 35.961527170651905, 96.46557604348676, 35.566015374094725, 96.2100281890887 " fill="none" id="curve_12" stroke="#000000" stroke-linecap="round" stroke-linejoin="round" stroke-width="3.5866516895644347"/>
  <path d="M 41.83888061356385, 46.356100338119816 Q 46.01790702661447, 49.40939772179067, 51.69111123903594, 53.66618947025623 " fill="none" id="curve_14" stroke="#000000" stroke-linecap="round" stroke-linejoin="round" stroke-width="2.9765333896792456"/>
  <path d="M 26.43321375324127, 46.63655531860968 Q 25.96677603428692, 48.56792222093002, 25.053626296815334, 50.55306509590322 " fill="none" id="curve_15" stroke="#000000" stroke-linecap="round" stroke-linejoin="round" stroke-width="2.886551790674946"/>
  <path d="M 38.51645558355192, 44.51143000116269 Q 37.52092293637817, 44.85010809816936, 34.069799166762984, 45.24576266428959 " fill="none" id="curve_16" stroke="#000000" stroke-linecap="round" stroke-linejoin="round" stroke-width="2.8767177326309823"/>
  <path d="M 59.752057133623794, 108.03405500924661 Q 57.70041359730524, 108.43337708452117, 49.98061587485988, 108.80710163340065 " fill="none" id="curve_20" stroke="#000000" stroke-linecap="round" stroke-linejoin="round" stroke-width="2.868010681524983"/>
  <path d="M 46.892903514936464, 51.3153995690533 Q 47.45393619849038, 49.02623208803868, 48.85520620380767, 46.5832037992427 " fill="none" id="curve_27" stroke="#000000" stroke-linecap="round" stroke-linejoin="round" stroke-width="3.5064793616107908"/>
  <path d="M 51.046898955389295, 108.08086753745626 Q 43.33063547719668, 107.18388659622295, 37.71460724708984, 103.69657084867647 " fill="none" id="curve_31" stroke="#000000" stroke-linecap="round" stroke-linejoin="round" stroke-width="3.03316523500096"/>
  <path d="M 34.75772806070425, 98.51595205355139 Q 35.421252663875514, 97.13847565677466, 36.3794481412445, 95.68320204215186 " fill="none" id="curve_32" stroke="#000000" stroke-linecap="round" stroke-linejoin="round" stroke-width="4.566821997313022"/>
  <path d="M 51.64642072410187, 56.30372480864077 Q 51.27675767046248, 50.96526191528739, 49.76041078314913, 48.510128627676785 " fill="none" id="curve_33" stroke="#000000" stroke-linecap="round" stroke-linejoin="round" stroke-width="3.4714399486247403"/>
  <path d="M 32.37616167671797, 98.5701107736162 Q 32.443198544134056, 98.24473802774364, 32.543060384435115, 97.7586393752792 " fill="none" id="curve_48" stroke="#000000" stroke-linecap="round" stroke-linejoin="round" stroke-width="2.891080344450788"/>
</svg>
