<?xml version="1.0" ?>
<svg height="140" width="140" xmlns="http://www.w3.org/2000/svg">
  <path d="M 59.84580373764038, 57.557973861694336 Q 60.08598105082877, 59.486365790792476, 60.60761558992745, 62.98908049896184 " fill="none" id="curve_1" stroke="#000000" stroke-linecap="round" stroke-linejoin="round" stroke-width="6.742562236114961"/>
  <path d="M 60.60761558992745, 62.98908049896184 Q 57.44752302563056, 71.76109447420875, 42.74347589642588, 86.6133442319198 " fill="none" id="curve_1" stroke="#000000" stroke-linecap="round" stroke-linejoin="round" stroke-width="5.417926536095261"/>
  <path d="M 42.74347589642588, 86.6133442319198 Q 39.143681375788695, 90.32666654574287, 37.84028372435481, 100.46141838310146 " fill="none" id="curve_1" stroke="#000000" stroke-linecap="round" stroke-linejoin="round" stroke-width="5.396829954728738"/>
  <path d="M 37.84028372435481, 100.46141838310146 Q 38.446546802412314, 102.02322807636665, 52.228256665261796, 102.1354500120474 " fill="none" id="curve_1" stroke="#000000" stroke-linecap="round" stroke-linejoin="round" stroke-width="4.870572637140662"/>
  <path d="M 52.228256665261796, 102.1354500120474 Q 68.46522492207698, 100.62275095950929, 77.85721526787937, 97.30464349488592 " fill="none" id="curve_1" stroke="#000000" stroke-linecap="round" stroke-linejoin="round" stroke-width="4.217460839872925"/>
  <path d="M 58.68286940018109, 55.06389321935579 Q 42.23946292242036, 55.75975494044491, 32.120004620297564, 62.79170870349887 " fill="none" id="curve_3" stroke="#000000" stroke-linecap="round" stroke-linejoin="round" stroke-width="4.70880397334235"/>
  <path d="M 32.120004620297564, 62.79170870349887 Q 31.72207263397649, 65.25601275063462, 30.501130855300907, 66.34926066644957 " fill="none" id="curve_3" stroke="#000000" stroke-linecap="round" stroke-linejoin="round" stroke-width="3.5094655590813244"/>
  <path d="M 61.162627883886245, 57.389153384276625 Q 60.62507743220386, 57.95253197636547, 59.2587317136817, 58.44243634816311 " fill="none" id="curve_4" stroke="#000000" stroke-linecap="round" stroke-linejoin="round" stroke-width="4.14431093218497"/>
  <path d="M 53.06726646500262, 54.90024849263344 Q 53.13248981689541, 56.42158215479611, 54.34128013106214, 56.74734196574931 " fill="none" id="curve_9" stroke="#000000" stroke-linecap="round" stroke-linejoin="round" stroke-width="2.6888548881673464"/>
  <path d="M 54.34128013106214, 56.74734196574931 Q 52.00442698559253, 55.94127746924356, 46.95440736734954, 55.10580989858657 " fill="none" id="curve_9" stroke="#000000" stroke-linecap="round" stroke-linejoin="round" stroke-width="3.415045255136899"/>
  <path d="M 67.81909902528923, 99.26746212737817 Q 60.562072934511626, 100.35054951277229, 52.393063298543396, 102.19942157115116 " fill="none" id="curve_10" stroke="#000000" stroke-linecap="round" stroke-linejoin="round" stroke-width="2.968096161043369"/>
  <path d="M 36.19026152584645, 96.76874642497535 Q 36.62066602869066, 95.48190257371084, 37.447459160373604, 93.38696959635128 " fill="none" id="curve_19" stroke="#000000" stroke-linecap="round" stroke-linejoin="round" stroke-width="2.8211688193364513"/>
  <path d="M 58.96133503727968, 67.0036753202383 Q 51.9147212978927, 73.80395888277431, 42.02635035080924, 87.16079049148368 " fill="none" id="curve_20" stroke="#000000" stroke-linecap="round" stroke-linejoin="round" stroke-width="2.658776290105085"/>
  <path d="M 34.254137188843735, 59.50117149914729 Q 40.923887950062024, 57.794834472066334, 51.55980356300306, 55.228879067602634 " fill="none" id="curve_21" stroke="#000000" stroke-linecap="round" stroke-linejoin="round" stroke-width="2.2838840078656566"/>
  <path d="M 55.17259113158462, 69.32383996733915 Q 57.82512850063698, 65.60102617835558, 62.17644099574625, 60.603271507111856 " fill="none" id="curve_23" stroke="#000000" stroke-linecap="round" stroke-linejoin="round" stroke-width="2.281515916917274"/>
  <path d="M 76.37821030357918, 97.52234458547736 Q 73.122023955209, 97.52130787520724, 69.51084606928319, 97.51872960001553 " fill="none" id="curve_38" stroke="#000000" stroke-linecap="round" stroke-linejoin="round" stroke-width="2.497651981341134"/>
  <path d="M 60.718593907976114, 60.65553166239415 Q 60.286034399445846, 56.03805245764971, 49.42706007363089, 55.372887049841275 " fill="none" id="curve_39" stroke="#000000" stroke-linecap="round" stroke-linejoin="round" stroke-width="2.789022848265744"/>
  <path d="M 49.42706007363089, 55.372887049841275 Q 50.407614788980666, 55.98841331621454, 53.60675100939006, 56.610838729744934 " fill="none" id="curve_39" stroke="#000000" stroke-linecap="round" stroke-linejoin="round" stroke-width="2.6868861367805708"/>
</svg>
