<?xml version="1.0" ?>
<svg height="140" width="140" xmlns="http://www.w3.org/2000/svg">
  <path d="M 22.079187393188477, 46.282958984375 Q 19.441234452757286, 47.71760843482103, 18.012523586077805, 51.559834112567955 " fill="none" id="curve_1" stroke="#000000" stroke-linecap="round" stroke-linejoin="round" stroke-width="4.936941429076227"/>
  <path d="M 18.012523586077805, 51.559834112567955 Q 20.60847394418018, 53.093860338900654, 24.03924338820398, 54.63659480272473 " fill="none" id="curve_1" stroke="#000000" stroke-linecap="round" stroke-linejoin="round" stroke-width="3.044624589696203"/>
  <path d="M 21.12702566162091, 50.34395290158677 Q 23.316780860664302, 43.07866319967164, 37.99929516029863, 39.923336616245244 " fill="none" id="curve_2" stroke="#000000" stroke-linecap="round" stroke-linejoin="round" stroke-width="6.0313829845299285"/>
  <path d="M 37.99929516029863, 39.923336616245244 Q 60.107637621809104, 40.04495574335124, 61.83929726323768, 45.797299370333135 " fill="none" id="curve_2" stroke="#000000" stroke-linecap="round" stroke-linejoin="round" stroke-width="5.323815353996531"/>
  <path d="M 61.83929726323768, 45.797299370333135 Q 63.21844932904171, 49.06000661550962, 63.81990678581479, 57.07429932770708 " fill="none" id="curve_2" stroke="#000000" stroke-linecap="round" stroke-linejoin="round" stroke-width="5.980295978830639"/>
  <path d="M 63.81990678581479, 57.07429932770708 Q 61.804845278238574, 73.17221005084562, 45.36711126950433, 92.33675469698932 " fill="none" id="curve_2" stroke="#000000" stroke-linecap="round" stroke-linejoin="round" stroke-width="5.031537184487713"/>
  <path d="M 45.36711126950433, 92.33675469698932 Q 40.836473531692825, 102.74608723373045, 19.295326103183346, 126.15851444610931 " fill="none" id="curve_2" stroke="#000000" stroke-linecap="round" stroke-linejoin="round" stroke-width="4.867795693862829"/>
  <path d="M 19.295326103183346, 126.15851444610931 Q 28.993223829471194, 131.3228956440303, 57.71265910166312, 136.36772648181062 " fill="none" id="curve_2" stroke="#000000" stroke-linecap="round" stroke-linejoin="round" stroke-width="6.080997093639408"/>
  <path d="M 57.71265910166312, 136.36772648181062 Q 61.773386021096755, 137.66685915929696, 87.4294545753591, 137.96395999326887 " fill="none" id="curve_2" stroke="#000000" stroke-linecap="round" stroke-linejoin="round" stroke-width="3.9437620051625237"/>
  <path d="M 49.338388520890504, 134.80001445835444 Q 38.05983168397694, 131.44777594697877, 21.736210513067483, 126.16998488475078 " fill="none" id="curve_4" stroke="#000000" stroke-linecap="round" stroke-linejoin="round" stroke-width="3.95794265448474"/>
  <path d="M 60.11807076935008, 61.74609181367305 Q 62.63828484283254, 59.79073695017838, 63.59531747093067, 49.84133524112201 " fill="none" id="curve_19" stroke="#000000" stroke-linecap="round" stroke-linejoin="round" stroke-width="3.8028100850191637"/>
  <path d="M 63.59531747093067, 49.84133524112201 Q 63.78808172926711, 50.5961921277247, 63.95689902360992, 52.03694885603444 " fill="none" id="curve_19" stroke="#000000" stroke-linecap="round" stroke-linejoin="round" stroke-width="5.290491067085413"/>
  <path d="M 47.47504710425213, 90.09359147981979 Q 51.51089949193034, 80.95157353536376, 60.82674141584067, 71.01156357903982 " fill="none" id="curve_22" stroke="#000000" stroke-linecap="round" stroke-linejoin="round" stroke-width="2.596413288100977"/>
  <path d="M 25.240250313549602, 55.206373718242006 Q 25.089851056534524, 55.288278465556175, 24.818248906335473, 55.400662046617185 " fill="none" id="curve_23" stroke="#000000" stroke-linecap="round" stroke-linejoin="round" stroke-width="2.8267280018482683"/>
  <path d="M 46.59905126221432, 39.06031254623818 Q 57.347806399744904, 39.4050329885015, 59.92626248355435, 42.7190235388077 " fill="none" id="curve_24" stroke="#000000" stroke-linecap="round" stroke-linejoin="round" stroke-width="2.239041658484776"/>
  <path d="M 62.51852983724564, 56.15167062314741 Q 62.04741778161641, 51.67473394645285, 61.118273839327685, 48.048771805721344 " fill="none" id="curve_25" stroke="#000000" stroke-linecap="round" stroke-linejoin="round" stroke-width="3.978754278772175"/>
  <path d="M 56.8502671323697, 134.2924604460772 Q 48.15664563256296, 133.23349520040998, 36.4822562617091, 130.70833204092568 " fill="none" id="curve_29" stroke="#000000" stroke-linecap="round" stroke-linejoin="round" stroke-width="2.6339996360825606"/>
  <path d="M 36.4822562617091, 130.70833204092568 Q 34.29772741184474, 128.3090824700608, 20.013170192749406, 127.48101341870671 " fill="none" id="curve_29" stroke="#000000" stroke-linecap="round" stroke-linejoin="round" stroke-width="3.784443758941193"/>
  <path d="M 20.013170192749406, 127.48101341870671 Q 20.117273093144078, 128.14449703418532, 20.500171656187298, 128.45682288566178 " fill="none" id="curve_29" stroke="#000000" stroke-linecap="round" stroke-linejoin="round" stroke-width="3.31639382899172"/>
  <path d="M 32.17087924517659, 111.88526083176049 Q 25.565323854679214, 114.27262629584243, 22.434668336722325, 123.66106503453138 " fill="none" id="curve_47" stroke="#000000" stroke-linecap="round" stroke-linejoin="round" stroke-width="3.0082331924040226"/>
  <path d="M 43.36981300219331, 134.23357436011784 Q 40.620770095886236, 133.44545905059306, 35.84406505886532, 132.55455946969553 " fill="none" id="curve_55" stroke="#000000" stroke-linecap="round" stroke-linejoin="round" stroke-width="2.9988435337852533"/>
  <path d="M 36.56048405820148, 99.87623116148666 Q 41.92592865924493, 97.24788070950058, 47.657523898412464, 92.95430077483893 " fill="none" id="curve_56" stroke="#000000" stroke-linecap="round" stroke-linejoin="round" stroke-width="2.602723910729943"/>
  <path d="M 47.657523898412464, 92.95430077483893 Q 48.29287051019686, 83.02925752487675, 53.451144948902105, 79.41004524715565 " fill="none" id="curve_56" stroke="#000000" stroke-linecap="round" stroke-linejoin="round" stroke-width="2.7606623814930646"/>
  <path d="M 53.451144948902105, 79.41004524715565 Q 56.07986741288663, 72.77340446668879, 61.38806168705742, 65.77398677993719 " fill="none" id="curve_56" stroke="#000000" stroke-linecap="round" stroke-linejoin="round" stroke-width="2.8734397386396155"/>
  <path d="M 65.3720992347128, 52.94552575686238 Q 64.88195727890084, 45.30589760592639, 59.00496936960829, 43.229773396505905 " fill="none" id="curve_57" stroke="#000000" stroke-linecap="round" stroke-linejoin="round" stroke-width="1.979510468764714"/>
  <path d="M 20.742376513364427, 46.50892771420841 Q 24.77876112277068, 43.21693353706163, 35.01522887434453, 41.28223114872811 " fill="none" id="curve_59" stroke="#000000" stroke-linecap="round" stroke-linejoin="round" stroke-width="3.8475295857641707"/>
  <path d="M 55.98366918665435, 39.51576315853387 Q 44.91401974974464, 39.64240407713355, 33.29142352366139, 39.903455938337615 " fill="none" id="curve_75" stroke="#000000" stroke-linecap="round" stroke-linejoin="round" stroke-width="2.9458387512264244"/>
  <path d="M 33.29142352366139, 39.903455938337615 Q 30.341620840932976, 42.86684315374381, 24.308248908882994, 44.91166748016293 " fill="none" id="curve_75" stroke="#000000" stroke-linecap="round" stroke-linejoin="round" stroke-width="3.5727857472595095"/>
  <path d="M 22.11287720510092, 124.82449654291065 Q 28.369006234672806, 127.47179965445395, 39.96781156739061, 130.6513134910239 " fill="none" id="curve_103" stroke="#000000" stroke-linecap="round" stroke-linejoin="round" stroke-width="2.414613481912964"/>
  <path d="M 88.76537501110698, 137.95536914140305 Q 88.744540454868, 138.25535575025827, 88.68421814925162, 138.45679694080638 " fill="none" id="curve_105" stroke="#000000" stroke-linecap="round" stroke-linejoin="round" stroke-width="2.742144105150505"/>
  <path d="M 60.83379873219013, 136.6644278471663 Q 41.05333234323492, 136.37832138820838, 37.36476608645654, 132.88014248550923 " fill="none" id="curve_106" stroke="#000000" stroke-linecap="round" stroke-linejoin="round" stroke-width="2.5096640361380858"/>
  <path d="M 31.19200439072461, 108.8871789290899 Q 32.815639916612966, 107.3762844426131, 36.02966040497941, 105.51140192951529 " fill="none" id="curve_107" stroke="#000000" stroke-linecap="round" stroke-linejoin="round" stroke-width="2.438740273654917"/>
  <path d="M 19.12256520442159, 128.28153862405736 Q 21.483281425981595, 126.33130325162142, 23.97820187370503, 122.78017909506973 " fill="none" id="curve_109" stroke="#000000" stroke-linecap="round" stroke-linejoin="round" stroke-width="3.220906233066662"/>
  <path d="M 58.850911576019385, 65.99341962899888 Q 60.05061235430735, 65.01559902159597, 64.36427739793601, 64.42009774348688 " fill="none" id="curve_113" stroke="#000000" stroke-linecap="round" stroke-linejoin="round" stroke-width="3.2023379042462574"/>
  <path d="M 52.50116532991722, 40.104007993863924 Q 48.795442805941555, 40.27413545545919, 32.532469032598684, 40.36462721020849 " fill="none" id="curve_114" stroke="#000000" stroke-linecap="round" stroke-linejoin="round" stroke-width="3.1293044318855796"/>
  <path d="M 34.33018339581895, 41.14854248481776 Q 28.505161067776648, 42.17191132273291, 24.47823752662942, 44.58453843136756 " fill="none" id="curve_129" stroke="#000000" stroke-linecap="round" stroke-linejoin="round" stroke-width="3.272905659940617"/>
  <path d="M 27.7152144855673, 43.4339119086292 Q 32.01246666610518, 42.33301187913835, 39.118705770554755, 40.69229740390383 " fill="none" id="curve_144" stroke="#000000" stroke-linecap="round" stroke-linejoin="round" stroke-width="2.363627911274176"/>
  <path d="M 45.939851456130434, 39.27114868081403 Q 44.43166281264256, 39.19863468196182, 41.72607579783548, 39.061129449480774 " fill="none" id="curve_154" stroke="#000000" stroke-linecap="round" stroke-linejoin="round" stroke-width="2.7803548301906194"/>
</svg>
