<?xml version="1.0" ?>
<svg height="140" width="140" xmlns="http://www.w3.org/2000/svg">
  <path d="M 69.56097772330233, 101.38931155540611 Q 66.39565071856319, 102.6669212821143, 48.75009788186375, 103.36554595646177 " fill="none" id="curve_2" stroke="#000000" stroke-linecap="round" stroke-linejoin="round" stroke-width="6.776043181790198"/>
  <path d="M 48.75009788186375, 103.36554595646177 Q 41.74606710718129, 102.98655065849377, 32.46293570844534, 102.55026289105818 " fill="none" id="curve_2" stroke="#000000" stroke-linecap="round" stroke-linejoin="round" stroke-width="6.391938312035105"/>
  <path d="M 32.46293570844534, 102.55026289105818 Q 34.67943542994057, 89.34940943058415, 45.32625369187106, 73.58458714213643 " fill="none" id="curve_2" stroke="#000000" stroke-linecap="round" stroke-linejoin="round" stroke-width="5.676755464122023"/>
  <path d="M 45.32625369187106, 73.58458714213643 Q 45.54095831359786, 71.79429618570745, 45.609296930586666, 61.91884963693596 " fill="none" id="curve_2" stroke="#000000" stroke-linecap="round" stroke-linejoin="round" stroke-width="6.258467512818992"/>
  <path d="M 45.609296930586666, 61.91884963693596 Q 45.00941248543651, 52.143434807248454, 27.27378334331406, 51.01279356188997 " fill="none" id="curve_2" stroke="#000000" stroke-linecap="round" stroke-linejoin="round" stroke-width="6.028732647573515"/>
  <path d="M 27.27378334331406, 51.01279356188997 Q 22.88216360075505, 54.38915397869762, 20.749371996164637, 61.324888945822764 " fill="none" id="curve_2" stroke="#000000" stroke-linecap="round" stroke-linejoin="round" stroke-width="5.485908517194767"/>
  <path d="M 20.749371996164637, 61.324888945822764 Q 21.809067067205753, 62.54245708830343, 29.3234312680867, 62.78644002398189 " fill="none" id="curve_2" stroke="#000000" stroke-linecap="round" stroke-linejoin="round" stroke-width="3.3786135981979126"/>
  <path d="M 33.879215561303376, 92.69536834909539 Q 31.122435149597305, 93.85186402309414, 30.508014118349656, 100.50880996461234 " fill="none" id="curve_3" stroke="#000000" stroke-linecap="round" stroke-linejoin="round" stroke-width="4.09612320418571"/>
  <path d="M 46.93453364330571, 69.70816231177693 Q 47.713600455708196, 68.29370593245726, 48.43838742381456, 65.92991114136679 " fill="none" id="curve_4" stroke="#000000" stroke-linecap="round" stroke-linejoin="round" stroke-width="3.4143457536179334"/>
  <path d="M 48.43838742381456, 65.92991114136679 Q 46.59752087677441, 57.2846967153087, 35.74648861677266, 53.068578007107455 " fill="none" id="curve_4" stroke="#000000" stroke-linecap="round" stroke-linejoin="round" stroke-width="3.402942661087285"/>
  <path d="M 35.74648861677266, 53.068578007107455 Q 41.260574206834924, 55.927457746226864, 45.95052240222093, 59.17213696278822 " fill="none" id="curve_4" stroke="#000000" stroke-linecap="round" stroke-linejoin="round" stroke-width="5.149704434578459"/>
  <path d="M 38.89768084137019, 85.26242238894312 Q 36.352208134417346, 92.82042210965865, 34.006558398383625, 103.02467798861572 " fill="none" id="curve_5" stroke="#000000" stroke-linecap="round" stroke-linejoin="round" stroke-width="3.356816125204727"/>
  <path d="M 34.006558398383625, 103.02467798861572 Q 34.15474897856294, 104.87036438129827, 39.36490233922468, 104.98829468301795 " fill="none" id="curve_5" stroke="#000000" stroke-linecap="round" stroke-linejoin="round" stroke-width="2.8859421739458577"/>
  <path d="M 36.80247944939004, 90.14145623341365 Q 37.13026056291056, 87.42020853527801, 37.70273202775667, 85.1940758580296 " fill="none" id="curve_6" stroke="#000000" stroke-linecap="round" stroke-linejoin="round" stroke-width="5.901102796961204"/>
  <path d="M 42.94207701096285, 56.57965311218568 Q 44.98146925640382, 56.90514948722959, 46.333466759922906, 57.87620625062066 " fill="none" id="curve_7" stroke="#000000" stroke-linecap="round" stroke-linejoin="round" stroke-width="4.173269693463444"/>
  <path d="M 45.005812575437204, 60.70915338201327 Q 44.12027868583331, 52.926087891075206, 34.22955346709881, 50.541568010739056 " fill="none" id="curve_11" stroke="#000000" stroke-linecap="round" stroke-linejoin="round" stroke-width="3.1559115666350652"/>
  <path d="M 67.36088446643572, 101.6126764016696 Q 66.59488860613354, 101.32356034736266, 65.24254449903422, 100.88281637903222 " fill="none" id="curve_17" stroke="#000000" stroke-linecap="round" stroke-linejoin="round" stroke-width="3.5345503621394943"/>
  <path d="M 44.21687626528728, 60.978192085400224 Q 42.18802722095895, 55.93079425361714, 34.101533738895796, 51.38770753410742 " fill="none" id="curve_45" stroke="#000000" stroke-linecap="round" stroke-linejoin="round" stroke-width="2.9183106530163503"/>
  <path d="M 40.92344220119685, 86.15196247753599 Q 37.87624797672963, 90.06762694620595, 32.66841522878224, 93.8691274179869 " fill="none" id="curve_73" stroke="#000000" stroke-linecap="round" stroke-linejoin="round" stroke-width="4.157501256516903"/>
  <path d="M 44.79694408119488, 64.51255611459021 Q 44.54445942924113, 53.02020542882926, 34.13311571547571, 52.020073594912645 " fill="none" id="curve_74" stroke="#000000" stroke-linecap="round" stroke-linejoin="round" stroke-width="3.259170568490054"/>
  <path d="M 42.9813083986823, 60.30998313836972 Q 41.916339191995775, 55.96318983891335, 35.78631241194519, 53.295245725643134 " fill="none" id="curve_102" stroke="#000000" stroke-linecap="round" stroke-linejoin="round" stroke-width="2.441044893826184"/>
  <path d="M 41.38722502289055, 58.18879427489776 Q 38.846122360352325, 56.51028048393321, 36.17009469627966, 52.05821831078695 " fill="none" id="curve_119" stroke="#000000" stroke-linecap="round" stroke-linejoin="round" stroke-width="3.5781288724771607"/>
  <path d="M 44.08497424851658, 54.097626988362094 Q 42.038307433881265, 53.63910669779408, 37.89938567836186, 52.98515352071067 " fill="none" id="curve_140" stroke="#000000" stroke-linecap="round" stroke-linejoin="round" stroke-width="3.1767742612068837"/>
</svg>
