<?xml version="1.0" ?>
<svg height="140" width="140" xmlns="http://www.w3.org/2000/svg">
  <path d="M 62.609602368186074, 95.84170193296768 Q 53.17563314217071, 96.8879704727064, 41.153371357714136, 100.3294265130924 " fill="none" id="curve_2" stroke="#000000" stroke-linecap="round" stroke-linejoin="round" stroke-width="5.905758816407301"/>
  <path d="M 41.153371357714136, 100.3294265130924 Q 40.128933120973485, 103.75338154500491, 27.06422747902819, 104.1177223042396 " fill="none" id="curve_2" stroke="#000000" stroke-linecap="round" stroke-linejoin="round" stroke-width="5.301524701205511"/>
  <path d="M 27.06422747902819, 104.1177223042396 Q 29.314575966188674, 91.38397731891882, 42.86031930755729, 75.93941014274981 " fill="none" id="curve_2" stroke="#000000" stroke-linecap="round" stroke-linejoin="round" stroke-width="3.8173499111449654"/>
  <path d="M 42.86031930755729, 75.93941014274981 Q 45.23068989203244, 67.8163295040514, 50.44064790212218, 61.072890553608644 " fill="none" id="curve_2" stroke="#000000" stroke-linecap="round" stroke-linejoin="round" stroke-width="4.909475428052685"/>
  <path d="M 50.44064790212218, 61.072890553608644 Q 50.24144628745632, 42.48329736204883, 38.19667548574694, 41.188587147611926 " fill="none" id="curve_2" stroke="#000000" stroke-linecap="round" stroke-linejoin="round" stroke-width="4.512799336108657"/>
  <path d="M 38.19667548574694, 41.188587147611926 Q 24.357224743447073, 42.512276224519354, 19.345200381640076, 48.01509438438737 " fill="none" id="curve_2" stroke="#000000" stroke-linecap="round" stroke-linejoin="round" stroke-width="5.1610836850416195"/>
  <path d="M 19.345200381640076, 48.01509438438737 Q 18.101827935492306, 47.81477850600779, 17.074575782751737, 47.442095448241254 " fill="none" id="curve_2" stroke="#000000" stroke-linecap="round" stroke-linejoin="round" stroke-width="3.859085906452672"/>
  <path d="M 25.111943595796728, 101.89529383698975 Q 26.95321964162131, 97.20321587466715, 31.806102001659237, 91.40607683490208 " fill="none" id="curve_4" stroke="#000000" stroke-linecap="round" stroke-linejoin="round" stroke-width="2.4050581205834574"/>
  <path d="M 50.00306833475366, 57.96275480409324 Q 46.828975232516456, 63.14243556798259, 42.44948977595372, 77.61838853129414 " fill="none" id="curve_10" stroke="#000000" stroke-linecap="round" stroke-linejoin="round" stroke-width="2.2821513959950894"/>
  <path d="M 23.499845438008467, 47.81518294149509 Q 24.863166779541977, 43.83305213044148, 29.439138717930252, 40.8065532418736 " fill="none" id="curve_19" stroke="#000000" stroke-linecap="round" stroke-linejoin="round" stroke-width="2.834719499529611"/>
  <path d="M 41.68248924940781, 76.87018330084942 Q 39.00424173558257, 82.71103370976012, 32.473323388865566, 90.57996898651709 " fill="none" id="curve_20" stroke="#000000" stroke-linecap="round" stroke-linejoin="round" stroke-width="2.333921453176835"/>
  <path d="M 44.126122033997255, 98.66612088542388 Q 40.542597271827816, 100.50937272426901, 32.836974462332364, 102.66798152905001 " fill="none" id="curve_35" stroke="#000000" stroke-linecap="round" stroke-linejoin="round" stroke-width="2.994415243285675"/>
  <path d="M 41.46013640917495, 76.31599724189891 Q 40.78059787984307, 77.0947378984688, 39.96588862342322, 78.51378431577263 " fill="none" id="curve_36" stroke="#000000" stroke-linecap="round" stroke-linejoin="round" stroke-width="3.4920334442236416"/>
  <path d="M 42.22350057614316, 43.739558531783395 Q 41.90062057078706, 42.30162932477568, 37.90122878830572, 41.72116788318398 " fill="none" id="curve_37" stroke="#000000" stroke-linecap="round" stroke-linejoin="round" stroke-width="2.7552117065294963"/>
  <path d="M 34.43367453427371, 89.3008948148703 Q 29.283608024216882, 89.86565170089376, 27.970174934664797, 95.24476583402989 " fill="none" id="curve_46" stroke="#000000" stroke-linecap="round" stroke-linejoin="round" stroke-width="3.171789200044376"/>
  <path d="M 48.75965835722056, 60.30772713990567 Q 48.695370088858624, 56.9894791001262, 48.456633571582664, 55.435203173755895 " fill="none" id="curve_48" stroke="#000000" stroke-linecap="round" stroke-linejoin="round" stroke-width="3.5344150237420977"/>
  <path d="M 35.67881625142353, 40.61965800608384 Q 36.41983116856762, 42.41469614927439, 40.88880541802233, 43.157857335367346 " fill="none" id="curve_49" stroke="#000000" stroke-linecap="round" stroke-linejoin="round" stroke-width="2.9957454657160945"/>
  <path d="M 40.88880541802233, 43.157857335367346 Q 40.773339598213994, 41.57840243922861, 40.263655963757564, 40.47627761283305 " fill="none" id="curve_49" stroke="#000000" stroke-linecap="round" stroke-linejoin="round" stroke-width="2.9671546676407066"/>
  <path d="M 55.71538526440792, 96.00867798745271 Q 45.616174684169536, 97.2585728350854, 37.05673193471322, 101.73568275735514 " fill="none" id="curve_65" stroke="#000000" stroke-linecap="round" stroke-linejoin="round" stroke-width="2.4382203826964286"/>
  <path d="M 35.03887260836666, 41.591828381771364 Q 33.6568343594721, 41.13429806922833, 31.037551724990553, 40.540982158727466 " fill="none" id="curve_67" stroke="#000000" stroke-linecap="round" stroke-linejoin="round" stroke-width="3.14680283409186"/>
  <path d="M 40.29019580865507, 77.47435776323998 Q 41.67858821157165, 72.83442649934673, 46.42019858478282, 69.1306862001887 " fill="none" id="curve_109" stroke="#000000" stroke-linecap="round" stroke-linejoin="round" stroke-width="2.9299036301081816"/>
  <path d="M 45.091119274392256, 43.88257161972548 Q 44.39500312250553, 42.18572431709516, 40.35200584816168, 41.043403975674494 " fill="none" id="curve_125" stroke="#000000" stroke-linecap="round" stroke-linejoin="round" stroke-width="2.147179508604492"/>
  <path d="M 46.24575099931757, 47.24828407535229 Q 46.61671319266223, 45.78819836094655, 47.879644739495525, 44.26292729427688 " fill="none" id="curve_143" stroke="#000000" stroke-linecap="round" stroke-linejoin="round" stroke-width="2.410863237380742"/>
</svg>
