<?xml version="1.0" ?>
<svg height="140" width="140" xmlns="http://www.w3.org/2000/svg">
  <path d="M 56.43540954589844, 50.24405097961426 Q 54.74539425492996, 48.491406805338045, 52.65636200112385, 40.42592572047579 " fill="none" id="curve_1" stroke="#000000" stroke-linecap="round" stroke-linejoin="round" stroke-width="5.983045119032193"/>
  <path d="M 52.65636200112385, 40.42592572047579 Q 50.39214739424199, 39.6371062480746, 38.083399481388724, 39.27936437289696 " fill="none" id="curve_1" stroke="#000000" stroke-linecap="round" stroke-linejoin="round" stroke-width="8.244799756592029"/>
  <path d="M 38.083399481388724, 39.27936437289696 Q 28.022133217467715, 41.96593398149022, 23.04798009007405, 54.21395139768294 " fill="none" id="curve_1" stroke="#000000" stroke-linecap="round" stroke-linejoin="round" stroke-width="5.23352973815284"/>
  <path d="M 55.26180802072864, 49.29572730434118 Q 49.88953135793709, 57.6825995361322, 34.17362928249957, 83.88067715783336 " fill="none" id="curve_2" stroke="#000000" stroke-linecap="round" stroke-linejoin="round" stroke-width="5.171467313193642"/>
  <path d="M 34.17362928249957, 83.88067715783336 Q 29.624767781494175, 93.3740923125695, 25.156070523393304, 107.68447628088674 " fill="none" id="curve_2" stroke="#000000" stroke-linecap="round" stroke-linejoin="round" stroke-width="5.8594119280139285"/>
  <path d="M 25.156070523393304, 107.68447628088674 Q 28.63747816375871, 108.47814385224724, 36.85072419905765, 108.9898586800857 " fill="none" id="curve_2" stroke="#000000" stroke-linecap="round" stroke-linejoin="round" stroke-width="4.975675762632998"/>
  <path d="M 36.85072419905765, 108.9898586800857 Q 54.70017063657238, 105.41682066043563, 69.94617835558526, 97.08587106354169 " fill="none" id="curve_2" stroke="#000000" stroke-linecap="round" stroke-linejoin="round" stroke-width="4.793941619272104"/>
  <path d="M 46.222498218701645, 63.31252103656689 Q 39.49841695073751, 68.09611919512278, 34.524739126560775, 82.42808206055163 " fill="none" id="curve_5" stroke="#000000" stroke-linecap="round" stroke-linejoin="round" stroke-width="3.511475838298334"/>
  <path d="M 62.46315556673135, 99.24919361324955 Q 55.27550571223553, 101.99373428879818, 46.30206862809152, 105.77177167513213 " fill="none" id="curve_7" stroke="#000000" stroke-linecap="round" stroke-linejoin="round" stroke-width="3.177660925981168"/>
  <path d="M 23.988988616774307, 102.79963840009098 Q 26.843625412019378, 93.399843091911, 34.71663250519875, 84.36041526758675 " fill="none" id="curve_8" stroke="#000000" stroke-linecap="round" stroke-linejoin="round" stroke-width="3.4557082445780294"/>
  <path d="M 48.281997207466375, 61.206747179131355 Q 51.78502905010194, 57.65486341611709, 53.42689252426313, 44.964568818653476 " fill="none" id="curve_9" stroke="#000000" stroke-linecap="round" stroke-linejoin="round" stroke-width="3.9569719239259724"/>
  <path d="M 53.63267008723509, 54.70762972418549 Q 49.36869205514544, 55.253811905817464, 47.33724763752503, 59.15393893441112 " fill="none" id="curve_10" stroke="#000000" stroke-linecap="round" stroke-linejoin="round" stroke-width="3.271994917634294"/>
  <path d="M 31.50563945989091, 90.65271585901351 Q 36.704491478912495, 81.51460594940278, 46.78914503487211, 66.67848280644756 " fill="none" id="curve_20" stroke="#000000" stroke-linecap="round" stroke-linejoin="round" stroke-width="2.31747680892189"/>
  <path d="M 77.29588134247751, 92.48519181869233 Q 77.30773597918213, 92.54894024982457, 77.3299243276938, 92.64995413297028 " fill="none" id="curve_48" stroke="#000000" stroke-linecap="round" stroke-linejoin="round" stroke-width="1.7572592739914288"/>
  <path d="M 43.60909679908315, 106.0370185839093 Q 40.4202196221425, 106.80568133305945, 36.67200737529355, 107.92657758207628 " fill="none" id="curve_50" stroke="#000000" stroke-linecap="round" stroke-linejoin="round" stroke-width="3.680670202893243"/>
  <path d="M 23.44440663531853, 49.29591504506237 Q 23.09315095444932, 49.822448334812364, 22.68245184799926, 50.94510723531455 " fill="none" id="curve_53" stroke="#000000" stroke-linecap="round" stroke-linejoin="round" stroke-width="3.4411852263539666"/>
  <path d="M 71.51349885668729, 96.13375378357239 Q 71.42977514121544, 96.26552532260727, 71.30007904753147, 96.50471003157038 " fill="none" id="curve_57" stroke="#000000" stroke-linecap="round" stroke-linejoin="round" stroke-width="2.4255983970915405"/>
  <path d="M 34.54055398631408, 81.71820717267914 Q 33.49678503253897, 83.63297103817573, 32.341838547240016, 87.19870973686488 " fill="none" id="curve_58" stroke="#000000" stroke-linecap="round" stroke-linejoin="round" stroke-width="3.858475076405101"/>
  <path d="M 25.184277925790365, 47.100867148109096 Q 27.23102314776139, 44.26936545614403, 35.464649310469504, 42.77718851149056 " fill="none" id="curve_91" stroke="#000000" stroke-linecap="round" stroke-linejoin="round" stroke-width="2.9051147951926666"/>
  <path d="M 55.337525457151806, 105.24194404854134 Q 51.698387894206334, 105.77011799489797, 46.71951496708439, 106.6877266617965 " fill="none" id="curve_94" stroke="#000000" stroke-linecap="round" stroke-linejoin="round" stroke-width="3.1602681891375894"/>
  <path d="M 32.264817257628934, 89.10576246679295 Q 33.03787251911051, 85.89441760919591, 34.729390865971816, 82.92189160265272 " fill="none" id="curve_97" stroke="#000000" stroke-linecap="round" stroke-linejoin="round" stroke-width="3.5447929166725527"/>
  <path d="M 31.56174008156196, 43.51160621413818 Q 29.994705517519225, 44.057845668503035, 26.894648249115363, 45.032581635331155 " fill="none" id="curve_127" stroke="#000000" stroke-linecap="round" stroke-linejoin="round" stroke-width="3.322186822510257"/>
</svg>
