<?xml version="1.0" ?>
<svg height="140" width="140" xmlns="http://www.w3.org/2000/svg">
  <path d="M 49.46229553222656, 67.74973678588867 Q 49.25072519962393, 61.84931069047422, 47.84217749122964, 57.93547852573511 " fill="none" id="curve_1" stroke="#000000" stroke-linecap="round" stroke-linejoin="round" stroke-width="6.191944593902131"/>
  <path d="M 47.84217749122964, 57.93547852573511 Q 47.75185638669534, 72.61587158093953, 44.644607357536586, 75.69166311741138 " fill="none" id="curve_1" stroke="#000000" stroke-linecap="round" stroke-linejoin="round" stroke-width="4.560214627341919"/>
  <path d="M 44.644607357536586, 75.69166311741138 Q 39.1305373951819, 83.39361239409595, 31.728654783660144, 93.60922293818496 " fill="none" id="curve_1" stroke="#000000" stroke-linecap="round" stroke-linejoin="round" stroke-width="5.769940386693995"/>
  <path d="M 31.728654783660144, 93.60922293818496 Q 49.79088201011747, 93.56517112068914, 53.58848672122415, 92.85938046967132 " fill="none" id="curve_1" stroke="#000000" stroke-linecap="round" stroke-linejoin="round" stroke-width="4.66531655309799"/>
  <path d="M 53.58848672122415, 92.85938046967132 Q 55.43218589242853, 92.55815132199707, 67.62871499615068, 92.47927489032001 " fill="none" id="curve_1" stroke="#000000" stroke-linecap="round" stroke-linejoin="round" stroke-width="4.867086757897128"/>
  <path d="M 48.121270914405684, 60.473183105841464 Q 46.0046729489146, 57.74129546626542, 39.9688620466399, 55.6620674022911 " fill="none" id="curve_2" stroke="#000000" stroke-linecap="round" stroke-linejoin="round" stroke-width="6.336493923530342"/>
  <path d="M 39.9688620466399, 55.6620674022911 Q 27.47856408353228, 56.67194162078017, 20.452598371660898, 60.75754066629103 " fill="none" id="curve_2" stroke="#000000" stroke-linecap="round" stroke-linejoin="round" stroke-width="5.359757286618824"/>
  <path d="M 50.90375925858286, 58.690096883729026 Q 50.44165869643028, 76.8478608016641, 36.659412265465804, 84.13738831675278 " fill="none" id="curve_3" stroke="#000000" stroke-linecap="round" stroke-linejoin="round" stroke-width="3.62359797431608"/>
  <path d="M 36.659412265465804, 84.13738831675278 Q 33.36555185109727, 84.64696952322451, 33.07449827556562, 96.15900632455244 " fill="none" id="curve_3" stroke="#000000" stroke-linecap="round" stroke-linejoin="round" stroke-width="3.2768910052014624"/>
  <path d="M 33.07449827556562, 96.15900632455244 Q 35.892523956631315, 96.10854966433533, 38.571396709832555, 96.01833631638647 " fill="none" id="curve_3" stroke="#000000" stroke-linecap="round" stroke-linejoin="round" stroke-width="3.06879947013713"/>
  <path d="M 42.517653259896285, 79.77378216847556 Q 41.42980812795033, 82.20255752424445, 35.77203480298423, 84.4120031706892 " fill="none" id="curve_4" stroke="#000000" stroke-linecap="round" stroke-linejoin="round" stroke-width="3.5443250875745895"/>
  <path d="M 35.77203480298423, 84.4120031706892 Q 42.49110961499629, 79.05184069624617, 49.546446685996344, 69.83245669211855 " fill="none" id="curve_4" stroke="#000000" stroke-linecap="round" stroke-linejoin="round" stroke-width="3.4433927166829696"/>
  <path d="M 27.16663343639261, 56.09829768738781 Q 24.308776955816015, 57.84454361948068, 20.676534396491284, 59.99876992907495 " fill="none" id="curve_6" stroke="#000000" stroke-linecap="round" stroke-linejoin="round" stroke-width="3.108399409328847"/>
  <path d="M 42.93410972784106, 77.03369380397486 Q 43.610029134949194, 72.51819597192014, 47.19128721618974, 70.28870913063547 " fill="none" id="curve_10" stroke="#000000" stroke-linecap="round" stroke-linejoin="round" stroke-width="3.0323952051831573"/>
  <path d="M 61.95574102525192, 91.33476282276762 Q 61.34021126609766, 90.49360701496981, 56.63812999924613, 90.2521661595115 " fill="none" id="curve_13" stroke="#000000" stroke-linecap="round" stroke-linejoin="round" stroke-width="2.911087849215251"/>
  <path d="M 34.200996410877266, 55.03224203642922 Q 35.36904775458886, 54.96525176808327, 37.72040029659341, 54.76583214511538 " fill="none" id="curve_15" stroke="#000000" stroke-linecap="round" stroke-linejoin="round" stroke-width="2.3417185014463175"/>
  <path d="M 43.409876971006355, 55.46545230476634 Q 42.726259321263335, 55.74562428585271, 40.385029035944896, 56.20577012268194 " fill="none" id="curve_17" stroke="#000000" stroke-linecap="round" stroke-linejoin="round" stroke-width="2.842564667875463"/>
  <path d="M 24.776674124092104, 58.66544549497231 Q 26.078103024992654, 57.02073008828205, 37.94559192202593, 56.00499909847958 " fill="none" id="curve_22" stroke="#000000" stroke-linecap="round" stroke-linejoin="round" stroke-width="2.665193559670382"/>
  <path d="M 44.49031406524897, 56.17010240674296 Q 45.8096600687611, 55.939235339078046, 47.121164273181044, 55.11027776838641 " fill="none" id="curve_32" stroke="#000000" stroke-linecap="round" stroke-linejoin="round" stroke-width="2.5126699112682145"/>
  <path d="M 35.925876434183266, 55.73766765043171 Q 28.075926142097792, 56.33347181027369, 22.873610643547746, 59.24915623419676 " fill="none" id="curve_113" stroke="#000000" stroke-linecap="round" stroke-linejoin="round" stroke-width="2.6165519305930047"/>
  <path d="M 22.873610643547746, 59.24915623419676 Q 24.966231222387833, 57.469818610372926, 35.50464806974756, 56.18103722022869 " fill="none" id="curve_113" stroke="#000000" stroke-linecap="round" stroke-linejoin="round" stroke-width="2.4823904966905816"/>
  <path d="M 39.081216181828324, 55.96324483840368 Q 37.13765510376266, 55.39822940852774, 31.902808412295133, 54.83678179307955 " fill="none" id="curve_128" stroke="#000000" stroke-linecap="round" stroke-linejoin="round" stroke-width="2.573190997610754"/>
</svg>
