<?xml version="1.0" ?>
<svg height="140" width="140" xmlns="http://www.w3.org/2000/svg">
  <path d="M 65.66921615600586, 43.092796325683594 Q 66.58571347900825, 42.2474104142168, 67.31315172841667, 39.06684361788456 " fill="none" id="curve_1" stroke="#000000" stroke-linecap="round" stroke-linejoin="round" stroke-width="7.3222916096977935"/>
  <path d="M 67.31315172841667, 39.06684361788456 Q 67.09425387190224, 47.10594493261071, 62.61800187773934, 48.50659345871399 " fill="none" id="curve_1" stroke="#000000" stroke-linecap="round" stroke-linejoin="round" stroke-width="7.03400179977543"/>
  <path d="M 62.61800187773934, 48.50659345871399 Q 57.08719493659093, 52.6934676806003, 41.37777482787152, 61.89965307502796 " fill="none" id="curve_1" stroke="#000000" stroke-linecap="round" stroke-linejoin="round" stroke-width="5.0586730116181675"/>
  <path d="M 41.37777482787152, 61.89965307502796 Q 31.77291439835531, 65.81926234352747, 24.0181331584959, 78.29004147068065 " fill="none" id="curve_1" stroke="#000000" stroke-linecap="round" stroke-linejoin="round" stroke-width="6.683399219283486"/>
  <path d="M 24.0181331584959, 78.29004147068065 Q 41.579762317117826, 78.88177553113249, 58.367709827419034, 80.850921462864 " fill="none" id="curve_1" stroke="#000000" stroke-linecap="round" stroke-linejoin="round" stroke-width="4.67633764156221"/>
  <path d="M 58.367709827419034, 80.850921462864 Q 59.73916044153088, 80.99435081132229, 60.40772465034388, 81.46365837748844 " fill="none" id="curve_1" stroke="#000000" stroke-linecap="round" stroke-linejoin="round" stroke-width="5.925233683598848"/>
  <path d="M 55.905718418820115, 36.72760371642377 Q 37.71217556812752, 36.83803833955776, 33.90908740048907, 38.89044797128811 " fill="none" id="curve_2" stroke="#000000" stroke-linecap="round" stroke-linejoin="round" stroke-width="3.3065333463504487"/>
  <path d="M 55.47594714923203, 35.12058479901423 Q 64.14244764119019, 35.43126467520556, 67.04982449057319, 36.62190377140006 " fill="none" id="curve_3" stroke="#000000" stroke-linecap="round" stroke-linejoin="round" stroke-width="4.397970129717939"/>
  <path d="M 51.303153408234245, 34.69217770269553 Q 38.088474418791776, 35.594489589984924, 32.69732515593023, 42.46608857586957 " fill="none" id="curve_4" stroke="#000000" stroke-linecap="round" stroke-linejoin="round" stroke-width="2.105190953610324"/>
  <path d="M 43.71222083703767, 58.4207607476894 Q 35.553607053787914, 61.584957407671666, 27.137827235263977, 70.07687804988342 " fill="none" id="curve_5" stroke="#000000" stroke-linecap="round" stroke-linejoin="round" stroke-width="3.256562745202502"/>
  <path d="M 44.3665365536709, 77.62488696462745 Q 46.19060710353755, 77.34318833465802, 47.96209323360445, 76.94154588928426 " fill="none" id="curve_6" stroke="#000000" stroke-linecap="round" stroke-linejoin="round" stroke-width="2.6316308341310304"/>
  <path d="M 40.392842068826326, 64.38621013976413 Q 38.121023231360475, 66.46524310048173, 31.573279090402742, 68.0181417815966 " fill="none" id="curve_9" stroke="#000000" stroke-linecap="round" stroke-linejoin="round" stroke-width="3.3291547680134386"/>
  <path d="M 60.51284631362722, 82.07353054352389 Q 60.09691819485394, 81.0703697528563, 59.40392983255695, 80.0196429231284 " fill="none" id="curve_11" stroke="#000000" stroke-linecap="round" stroke-linejoin="round" stroke-width="4.681044864994073"/>
  <path d="M 89.62849882831618, 3.4413363020008916 Q 89.63360446088917, 2.6033811884484575, 89.64125616389153, 1.3589866102901524 " fill="none" id="curve_15" stroke="#000000" stroke-linecap="round" stroke-linejoin="round" stroke-width="2.101719122101253"/>
  <path d="M 61.640641157173576, 35.1787110205765 Q 56.74384164003983, 35.10873384101834, 49.90342484146188, 34.94774179024562 " fill="none" id="curve_16" stroke="#000000" stroke-linecap="round" stroke-linejoin="round" stroke-width="2.629686464689902"/>
  <path d="M 46.12404066854036, 79.65028504087158 Q 36.641789996323155, 79.10267535317645, 28.552541109641762, 77.2297054767354 " fill="none" id="curve_17" stroke="#000000" stroke-linecap="round" stroke-linejoin="round" stroke-width="3.807992835230071"/>
  <path d="M 35.08881283818027, 77.10180958766621 Q 31.99081171480285, 76.08185814835318, 26.280885608006415, 74.81847404617649 " fill="none" id="curve_35" stroke="#000000" stroke-linecap="round" stroke-linejoin="round" stroke-width="3.059283167749008"/>
  <path d="M 68.43546381224462, 35.855624483909764 Q 66.51873928703914, 38.51084910690387, 63.05940370300418, 43.28571969810068 " fill="none" id="curve_76" stroke="#000000" stroke-linecap="round" stroke-linejoin="round" stroke-width="2.5793877363483912"/>
  <path d="M 44.14415209746809, 36.29800350382276 Q 43.02021677548319, 36.27793688753703, 41.161779718820995, 36.242412775129594 " fill="none" id="curve_85" stroke="#000000" stroke-linecap="round" stroke-linejoin="round" stroke-width="2.889499736606218"/>
  <path d="M 56.8569697183417, 82.76972344980203 Q 56.85016659440684, 82.11569034489148, 56.839977554169735, 81.29902874379208 " fill="none" id="curve_139" stroke="#000000" stroke-linecap="round" stroke-linejoin="round" stroke-width="3.071264405663106"/>
</svg>
