<?xml version="1.0" ?>
<svg height="140" width="140" xmlns="http://www.w3.org/2000/svg">
  <path d="M 50.46218681335449, 39.6397647857666 Q 56.82863011819531, 39.863628478839225, 57.78303432491572, 42.935677853175406 " fill="none" id="curve_1" stroke="#000000" stroke-linecap="round" stroke-linejoin="round" stroke-width="6.742861595583349"/>
  <path d="M 57.78303432491572, 42.935677853175406 Q 54.41964652065996, 51.18152458843434, 36.55196401154677, 60.383440674122454 " fill="none" id="curve_1" stroke="#000000" stroke-linecap="round" stroke-linejoin="round" stroke-width="7.153607065022592"/>
  <path d="M 36.55196401154677, 60.383440674122454 Q 33.940160541577654, 64.22441532533225, 30.460592733304747, 66.93503053928913 " fill="none" id="curve_1" stroke="#000000" stroke-linecap="round" stroke-linejoin="round" stroke-width="7.1071763373396575"/>
  <path d="M 30.460592733304747, 66.93503053928913 Q 32.138580639471414, 76.93195857258733, 56.62947696245516, 78.151421345942 " fill="none" id="curve_1" stroke="#000000" stroke-linecap="round" stroke-linejoin="round" stroke-width="6.156466186155403"/>
  <path d="M 56.62947696245516, 78.151421345942 Q 69.08637155857623, 78.64877515013849, 86.55674609691128, 79.10418451740101 " fill="none" id="curve_1" stroke="#000000" stroke-linecap="round" stroke-linejoin="round" stroke-width="5.322793741420935"/>
  <path d="M 53.79710215105988, 40.18343448085762 Q 53.37929941335847, 38.32826471663638, 38.24999286904125, 38.177960843442385 " fill="none" id="curve_2" stroke="#000000" stroke-linecap="round" stroke-linejoin="round" stroke-width="5.967709864054604"/>
  <path d="M 38.24999286904125, 38.177960843442385 Q 36.19948775037932, 39.38925313994831, 30.21035686241384, 39.88472910525492 " fill="none" id="curve_2" stroke="#000000" stroke-linecap="round" stroke-linejoin="round" stroke-width="3.3582277096260147"/>
  <path d="M 30.21035686241384, 39.88472910525492 Q 36.453958038917406, 38.11166224406381, 56.33103625185079, 37.35148843821969 " fill="none" id="curve_2" stroke="#000000" stroke-linecap="round" stroke-linejoin="round" stroke-width="3.9776742646335883"/>
  <path d="M 71.94782679760596, 74.60973075710922 Q 72.7604706410132, 76.81546439469962, 77.07817680312844, 77.77894319793772 " fill="none" id="curve_4" stroke="#000000" stroke-linecap="round" stroke-linejoin="round" stroke-width="2.852398044449019"/>
  <path d="M 78.83065899109634, 79.70801147029232 Q 72.30389671376497, 79.76726943055252, 59.75369583617234, 79.82113853381199 " fill="none" id="curve_5" stroke="#000000" stroke-linecap="round" stroke-linejoin="round" stroke-width="3.5276754633479164"/>
  <path d="M 55.1313992184597, 43.93731316127368 Q 54.33100381107321, 38.39160305736582, 47.09696994631408, 36.43618819003372 " fill="none" id="curve_6" stroke="#000000" stroke-linecap="round" stroke-linejoin="round" stroke-width="3.5907674551456017"/>
  <path d="M 41.379635504672876, 39.14598307630865 Q 44.049986581956084, 39.742125374192575, 56.1518192878728, 40.45266329956282 " fill="none" id="curve_99" stroke="#000000" stroke-linecap="round" stroke-linejoin="round" stroke-width="1.8259951421243017"/>
  <path d="M 45.31287539286768, 76.77249931727533 Q 40.19702829554277, 73.06784665479177, 28.82027772582246, 67.4249302754452 " fill="none" id="curve_127" stroke="#000000" stroke-linecap="round" stroke-linejoin="round" stroke-width="2.4389078995282683"/>
  <path d="M 37.55276735087323, 58.34137801426889 Q 34.35703181671347, 61.54160547175841, 30.05187455778145, 64.77775023977601 " fill="none" id="curve_128" stroke="#000000" stroke-linecap="round" stroke-linejoin="round" stroke-width="3.514475961201757"/>
</svg>
