<?xml version="1.0" ?>
<svg height="140" width="140" xmlns="http://www.w3.org/2000/svg">
  <path d="M 63.81230317956612, 127.74854697647379 Q 62.669513518679004, 125.83691595770826, 51.13064666299821, 125.14109610326955 " fill="none" id="curve_2" stroke="#000000" stroke-linecap="round" stroke-linejoin="round" stroke-width="8.730546505727505"/>
  <path d="M 51.13064666299821, 125.14109610326955 Q 37.90504603400581, 126.62940557409561, 25.343313512551372, 132.4024608560575 " fill="none" id="curve_2" stroke="#000000" stroke-linecap="round" stroke-linejoin="round" stroke-width="8.021059200415992"/>
  <path d="M 25.343313512551372, 132.4024608560575 Q 24.15958367528561, 134.48469076948064, 15.316336604516962, 134.9023907987483 " fill="none" id="curve_2" stroke="#000000" stroke-linecap="round" stroke-linejoin="round" stroke-width="7.446778381113684"/>
  <path d="M 15.316336604516962, 134.9023907987483 Q 19.88643128344728, 120.70521551052293, 37.13109030770835, 94.82872111372978 " fill="none" id="curve_2" stroke="#000000" stroke-linecap="round" stroke-linejoin="round" stroke-width="7.693942179854989"/>
  <path d="M 37.13109030770835, 94.82872111372978 Q 45.15882658462938, 85.28165541949814, 61.049465207436995, 55.04906495534092 " fill="none" id="curve_2" stroke="#000000" stroke-linecap="round" stroke-linejoin="round" stroke-width="7.4809985359185305"/>
  <path d="M 61.049465207436995, 55.04906495534092 Q 67.10629259947116, 47.40246671610316, 72.62860105485385, 32.53277160874734 " fill="none" id="curve_2" stroke="#000000" stroke-linecap="round" stroke-linejoin="round" stroke-width="7.949127225283147"/>
  <path d="M 72.62860105485385, 32.53277160874734 Q 71.82355183128003, 28.867124830846592, 53.841191596902284, 28.512377352772013 " fill="none" id="curve_2" stroke="#000000" stroke-linecap="round" stroke-linejoin="round" stroke-width="7.851401230578803"/>
  <path d="M 53.841191596902284, 28.512377352772013 Q 31.52718671037666, 29.394782070100298, 27.902609960999122, 40.667988530420395 " fill="none" id="curve_2" stroke="#000000" stroke-linecap="round" stroke-linejoin="round" stroke-width="9.601370134867432"/>
  <path d="M 27.902609960999122, 40.667988530420395 Q 28.38380611578936, 28.548259348357895, 38.134964233572845, 27.259607172537883 " fill="none" id="curve_2" stroke="#000000" stroke-linecap="round" stroke-linejoin="round" stroke-width="4.9157999497921905"/>
  <path d="M 41.450658309686744, 87.06503540710828 Q 32.5943716258483, 92.99158611404238, 24.581446205461667, 111.41696166318587 " fill="none" id="curve_4" stroke="#000000" stroke-linecap="round" stroke-linejoin="round" stroke-width="3.9615991417394403"/>
  <path d="M 24.581446205461667, 111.41696166318587 Q 19.053111197404498, 119.07197114995407, 13.445627068971824, 130.94957534306258 " fill="none" id="curve_4" stroke="#000000" stroke-linecap="round" stroke-linejoin="round" stroke-width="4.011102730964659"/>
  <path d="M 34.95974725638338, 92.06323508400985 Q 40.76367834225443, 86.3484305149563, 47.262494896582965, 76.26659141996227 " fill="none" id="curve_6" stroke="#000000" stroke-linecap="round" stroke-linejoin="round" stroke-width="3.238007446999339"/>
  <path d="M 47.262494896582965, 76.26659141996227 Q 53.236898671171005, 67.58546749333411, 61.70965192621016, 49.260570489394325 " fill="none" id="curve_6" stroke="#000000" stroke-linecap="round" stroke-linejoin="round" stroke-width="4.120046551241112"/>
  <path d="M 61.70965192621016, 49.260570489394325 Q 65.24414278304158, 41.698193096569184, 71.97102433545152, 34.66082541917043 " fill="none" id="curve_6" stroke="#000000" stroke-linecap="round" stroke-linejoin="round" stroke-width="4.312258723048157"/>
  <path d="M 71.26784832032583, 27.008212726352376 Q 65.4672505560846, 26.901190176570008, 52.53493251762743, 26.76438417130115 " fill="none" id="curve_7" stroke="#000000" stroke-linecap="round" stroke-linejoin="round" stroke-width="3.0748923294576445"/>
  <path d="M 33.74989925584596, 37.71289891946853 Q 30.855138420161488, 40.10849126756456, 23.17549979812624, 41.57339726043816 " fill="none" id="curve_8" stroke="#000000" stroke-linecap="round" stroke-linejoin="round" stroke-width="3.726404320332573"/>
  <path d="M 43.94491644275862, 29.738637723800036 Q 44.33510717170841, 31.70166607453804, 51.17949491994035, 31.92711697254489 " fill="none" id="curve_9" stroke="#000000" stroke-linecap="round" stroke-linejoin="round" stroke-width="3.363461811594107"/>
  <path d="M 72.69689948791543, 40.25836240891706 Q 71.91705739101775, 40.34403557869166, 69.8907590447898, 40.4534095746089 " fill="none" id="curve_10" stroke="#000000" stroke-linecap="round" stroke-linejoin="round" stroke-width="3.321506134591396"/>
  <path d="M 63.933769688259595, 26.174998157007956 Q 60.32058355700132, 26.653280361190124, 46.14391672211427, 26.999780154911768 " fill="none" id="curve_11" stroke="#000000" stroke-linecap="round" stroke-linejoin="round" stroke-width="3.566576054329649"/>
  <path d="M 60.37261471273952, 53.48337437655972 Q 55.136223451470784, 62.8014512629546, 47.28456508705965, 74.40270874909122 " fill="none" id="curve_17" stroke="#000000" stroke-linecap="round" stroke-linejoin="round" stroke-width="3.716153019761189"/>
  <path d="M 44.482959184245345, 26.509103728356084 Q 43.00312205912931, 26.7503926988207, 40.596930299434405, 27.121585861971937 " fill="none" id="curve_19" stroke="#000000" stroke-linecap="round" stroke-linejoin="round" stroke-width="3.904797975405302"/>
  <path d="M 47.33511578757713, 28.970531335170193 Q 41.737145772907134, 33.85215033504795, 28.443449267218504, 38.99766844781949 " fill="none" id="curve_22" stroke="#000000" stroke-linecap="round" stroke-linejoin="round" stroke-width="3.456231355194657"/>
  <path d="M 69.77281126724289, 33.42613863110748 Q 65.73494782343958, 44.13975928802302, 57.25841829253977, 57.19947021547476 " fill="none" id="curve_23" stroke="#000000" stroke-linecap="round" stroke-linejoin="round" stroke-width="3.122848721381321"/>
  <path d="M 57.25841829253977, 57.19947021547476 Q 54.811089122006145, 64.80345979584787, 49.51809702522962, 70.90433055955778 " fill="none" id="curve_23" stroke="#000000" stroke-linecap="round" stroke-linejoin="round" stroke-width="3.976951657633049"/>
  <path d="M 64.48754615075926, 42.85879675674438 Q 67.35427126739468, 38.36451734651948, 71.04085173895953, 31.965928456392376 " fill="none" id="curve_28" stroke="#000000" stroke-linecap="round" stroke-linejoin="round" stroke-width="2.9777043925497235"/>
  <path d="M 63.42858850164376, 127.47493732949323 Q 64.90940243358115, 128.1525028558905, 68.25648262309267, 128.80586340313104 " fill="none" id="curve_31" stroke="#000000" stroke-linecap="round" stroke-linejoin="round" stroke-width="3.3570084091966614"/>
  <path d="M 68.25648262309267, 128.80586340313104 Q 62.401384762224126, 126.49706598951316, 41.24645905813978, 124.77317511536869 " fill="none" id="curve_31" stroke="#000000" stroke-linecap="round" stroke-linejoin="round" stroke-width="3.642125587663167"/>
  <path d="M 22.861367770915734, 110.905711448587 Q 26.90792059260723, 109.31432535762299, 32.321691687539015, 106.91404339649715 " fill="none" id="curve_66" stroke="#000000" stroke-linecap="round" stroke-linejoin="round" stroke-width="3.4141294197829133"/>
  <path d="M 32.70602652765979, 127.4801739578922 Q 36.7776663677193, 125.94051194734199, 43.5617691786053, 124.36937110129426 " fill="none" id="curve_86" stroke="#000000" stroke-linecap="round" stroke-linejoin="round" stroke-width="3.357811392153285"/>
  <path d="M 49.164199660436594, 67.80130829368746 Q 51.11388999772509, 65.88658713893686, 54.81039622380521, 63.119233015233625 " fill="none" id="curve_89" stroke="#000000" stroke-linecap="round" stroke-linejoin="round" stroke-width="2.938108397257042"/>
  <path d="M 60.90678621379173, 128.53165829071534 Q 55.96378845123877, 126.60463673131102, 49.39119128213183, 123.26275792624708 " fill="none" id="curve_99" stroke="#000000" stroke-linecap="round" stroke-linejoin="round" stroke-width="4.146954772712884"/>
  <path d="M 59.01164522493633, 124.03127052081788 Q 57.2095594769793, 122.81080869894625, 46.342058884414435, 122.30345832343623 " fill="none" id="curve_103" stroke="#000000" stroke-linecap="round" stroke-linejoin="round" stroke-width="2.640146250311591"/>
  <path d="M 12.440309613281052, 132.5011049764408 Q 13.004463014433172, 132.79662562569857, 13.836590544069328, 133.31320097434977 " fill="none" id="curve_108" stroke="#000000" stroke-linecap="round" stroke-linejoin="round" stroke-width="3.158844183285945"/>
  <path d="M 55.12274030267345, 70.2763721640884 Q 56.40023944245052, 67.41454577665718, 57.9860279343652, 63.000825388799015 " fill="none" id="curve_137" stroke="#000000" stroke-linecap="round" stroke-linejoin="round" stroke-width="2.5056412561345085"/>
  <path d="M 53.51931247500793, 62.292708256675596 Q 55.608755165742416, 57.07300065257941, 60.38965063078458, 50.791381252646204 " fill="none" id="curve_193" stroke="#000000" stroke-linecap="round" stroke-linejoin="round" stroke-width="2.0598135711230636"/>
</svg>
