<?xml version="1.0" ?>
<svg height="140" width="140" xmlns="http://www.w3.org/2000/svg">
  <path d="M 66.8215389251709, 108.9774112701416 Q 67.27975837466947, 107.85130393462376, 78.64070177294843, 107.68141256476059 " fill="none" id="curve_1" stroke="#000000" stroke-linecap="round" stroke-linejoin="round" stroke-width="6.823177778549683"/>
  <path d="M 78.64070177294843, 107.68141256476059 Q 66.19336987463231, 107.80601145458719, 60.119481341513634, 109.16529483574257 " fill="none" id="curve_1" stroke="#000000" stroke-linecap="round" stroke-linejoin="round" stroke-width="6.632311714869434"/>
  <path d="M 60.119481341513634, 109.16529483574257 Q 54.19389052713424, 113.06224090321068, 33.11561294675215, 116.08841075005455 " fill="none" id="curve_1" stroke="#000000" stroke-linecap="round" stroke-linejoin="round" stroke-width="5.379296853209367"/>
  <path d="M 33.11561294675215, 116.08841075005455 Q 17.456943272308344, 115.93760315526828, 14.088657551337409, 114.54420660152186 " fill="none" id="curve_1" stroke="#000000" stroke-linecap="round" stroke-linejoin="round" stroke-width="4.09538877051113"/>
  <path d="M 14.088657551337409, 114.54420660152186 Q 18.541732011474522, 102.01843304349272, 41.09440021749201, 83.49433770613281 " fill="none" id="curve_1" stroke="#000000" stroke-linecap="round" stroke-linejoin="round" stroke-width="4.856037562244601"/>
  <path d="M 41.09440021749201, 83.49433770613281 Q 49.9807930340576, 76.36206947758271, 63.63416264411903, 62.73423279832395 " fill="none" id="curve_1" stroke="#000000" stroke-linecap="round" stroke-linejoin="round" stroke-width="4.060734387478845"/>
  <path d="M 63.63416264411903, 62.73423279832395 Q 74.11325960525417, 57.6046729545326, 81.93940593184263, 39.69077039780447 " fill="none" id="curve_1" stroke="#000000" stroke-linecap="round" stroke-linejoin="round" stroke-width="4.895078467425517"/>
  <path d="M 81.93940593184263, 39.69077039780447 Q 78.12202052717275, 37.60925120048999, 71.62932242353263, 35.32773803234629 " fill="none" id="curve_1" stroke="#000000" stroke-linecap="round" stroke-linejoin="round" stroke-width="5.326787436239471"/>
  <path d="M 71.62932242353263, 35.32773803234629 Q 53.827293937681986, 36.10801609079642, 43.18688884793194, 42.610428380890035 " fill="none" id="curve_1" stroke="#000000" stroke-linecap="round" stroke-linejoin="round" stroke-width="5.790294376122321"/>
  <path d="M 43.18688884793194, 42.610428380890035 Q 37.60611240033051, 45.894122300401726, 34.58699569604479, 51.732204016518374 " fill="none" id="curve_1" stroke="#000000" stroke-linecap="round" stroke-linejoin="round" stroke-width="6.1433974295916265"/>
  <path d="M 34.58699569604479, 51.732204016518374 Q 34.11351586312901, 50.400896342275715, 33.35326014821132, 49.333629738142555 " fill="none" id="curve_1" stroke="#000000" stroke-linecap="round" stroke-linejoin="round" stroke-width="4.751423693449354"/>
  <path d="M 78.98969600157113, 46.15617105077276 Q 78.89113454354363, 45.891966467241375, 78.81008437779548, 44.99535627436612 " fill="none" id="curve_2" stroke="#000000" stroke-linecap="round" stroke-linejoin="round" stroke-width="5.548409340027173"/>
  <path d="M 78.81008437779548, 44.99535627436612 Q 79.52285873407162, 44.797140831344855, 80.20113090435278, 44.167388416292084 " fill="none" id="curve_2" stroke="#000000" stroke-linecap="round" stroke-linejoin="round" stroke-width="4.359348905118034"/>
  <path d="M 79.87383067524296, 109.10271141624631 Q 80.80541307760701, 109.77890425204531, 82.16240478770848, 110.66731674318626 " fill="none" id="curve_3" stroke="#000000" stroke-linecap="round" stroke-linejoin="round" stroke-width="5.022059104071393"/>
  <path d="M 57.72703603987306, 67.4821340180017 Q 55.75746437886293, 68.0510678516334, 53.66566735615488, 70.79443937089492 " fill="none" id="curve_4" stroke="#000000" stroke-linecap="round" stroke-linejoin="round" stroke-width="3.04015241694121"/>
  <path d="M 48.968448332256834, 36.9888833180769 Q 59.83659819983134, 36.106113837131524, 77.579326440432, 34.75943506323318 " fill="none" id="curve_5" stroke="#000000" stroke-linecap="round" stroke-linejoin="round" stroke-width="2.6167555621644207"/>
  <path d="M 81.16704091623785, 45.11078898604613 Q 74.98821426035379, 48.90760525985483, 69.65029999777111, 56.763029236557145 " fill="none" id="curve_6" stroke="#000000" stroke-linecap="round" stroke-linejoin="round" stroke-width="2.8922505654968482"/>
  <path d="M 47.01933109350324, 78.65944775349983 Q 40.36411268171699, 80.38470628333349, 36.851089551245636, 85.56836956339926 " fill="none" id="curve_7" stroke="#000000" stroke-linecap="round" stroke-linejoin="round" stroke-width="3.6585174975993304"/>
  <path d="M 16.018051172413486, 106.7816297174418 Q 14.753578769001987, 108.49619963775051, 13.878702101945652, 112.27812599535986 " fill="none" id="curve_8" stroke="#000000" stroke-linecap="round" stroke-linejoin="round" stroke-width="3.369246052474233"/>
  <path d="M 13.878702101945652, 112.27812599535986 Q 17.765639710648717, 103.24620271480688, 28.134043257238933, 95.27994631051263 " fill="none" id="curve_8" stroke="#000000" stroke-linecap="round" stroke-linejoin="round" stroke-width="3.349420540948364"/>
  <path d="M 74.39149443310427, 107.96728381557821 Q 74.09008862091946, 106.93753929939352, 73.16341370759984, 105.88906429205149 " fill="none" id="curve_11" stroke="#000000" stroke-linecap="round" stroke-linejoin="round" stroke-width="4.937073971537223"/>
  <path d="M 59.64813856938325, 64.6301963705919 Q 58.62642841166881, 65.77486166235853, 57.04213921180206, 67.69008740192635 " fill="none" id="curve_12" stroke="#000000" stroke-linecap="round" stroke-linejoin="round" stroke-width="3.6357779837024187"/>
  <path d="M 62.914568137263274, 35.18139514117578 Q 53.97566456423122, 36.03154591775986, 47.907918252604446, 40.70557932539969 " fill="none" id="curve_14" stroke="#000000" stroke-linecap="round" stroke-linejoin="round" stroke-width="2.5040020841602457"/>
  <path d="M 76.35586578334781, 36.28959072263676 Q 76.67851417363849, 37.91171816152897, 78.63944378848983, 38.75862233391721 " fill="none" id="curve_15" stroke="#000000" stroke-linecap="round" stroke-linejoin="round" stroke-width="3.8771237035100152"/>
  <path d="M 78.63944378848983, 38.75862233391721 Q 78.32433698684815, 37.53196091937553, 76.87670398578415, 36.37895133839646 " fill="none" id="curve_15" stroke="#000000" stroke-linecap="round" stroke-linejoin="round" stroke-width="2.944856650124466"/>
  <path d="M 77.3712108269066, 49.43686684344316 Q 78.38695987138425, 46.0400040242957, 81.43854532595823, 43.853782116757046 " fill="none" id="curve_24" stroke="#000000" stroke-linecap="round" stroke-linejoin="round" stroke-width="3.214140023663962"/>
  <path d="M 76.50848373384372, 49.24150398739649 Q 79.21875016541027, 47.66874604478042, 81.12443550009384, 43.70086582258306 " fill="none" id="curve_25" stroke="#000000" stroke-linecap="round" stroke-linejoin="round" stroke-width="3.6622565588786804"/>
  <path d="M 83.6041236547826, 109.80552964477715 Q 80.78214430408863, 109.68918133267366, 77.97943555656776, 109.35450090027925 " fill="none" id="curve_40" stroke="#000000" stroke-linecap="round" stroke-linejoin="round" stroke-width="2.7000406461475635"/>
  <path d="M 55.5565815648216, 112.09575384519755 Q 63.90175746656385, 111.8391776982859, 66.25637085808883, 109.6528734512249 " fill="none" id="curve_41" stroke="#000000" stroke-linecap="round" stroke-linejoin="round" stroke-width="3.0751080760615173"/>
  <path d="M 66.25637085808883, 109.6528734512249 Q 46.447848094123465, 110.69380818682794, 38.96835818315077, 117.13156929104306 " fill="none" id="curve_41" stroke="#000000" stroke-linecap="round" stroke-linejoin="round" stroke-width="3.4426524443854345"/>
  <path d="M 18.499112610644918, 116.93219952161304 Q 18.188195898604107, 116.64373293232664, 17.480593652294857, 116.35352631023818 " fill="none" id="curve_42" stroke="#000000" stroke-linecap="round" stroke-linejoin="round" stroke-width="3.408278590160286"/>
  <path d="M 76.66339277059393, 38.76789081780361 Q 78.93538708450194, 40.537629894058135, 81.77308773242765, 44.3623574826167 " fill="none" id="curve_44" stroke="#000000" stroke-linecap="round" stroke-linejoin="round" stroke-width="2.6791377634310143"/>
  <path d="M 77.02538124034727, 38.044973764610376 Q 76.34748381017278, 36.15910683572419, 55.87883159928199, 35.896118050756016 " fill="none" id="curve_48" stroke="#000000" stroke-linecap="round" stroke-linejoin="round" stroke-width="2.6877733445990324"/>
  <path d="M 69.08784868257135, 104.62497751849514 Q 71.43959444245003, 105.51040417006341, 77.69843956144688, 106.30946321045533 " fill="none" id="curve_63" stroke="#000000" stroke-linecap="round" stroke-linejoin="round" stroke-width="2.647684860059192"/>
  <path d="M 75.43480054938308, 49.551511493128395 Q 79.36962928509742, 47.732132345701636, 81.98891297829867, 43.637559142601035 " fill="none" id="curve_68" stroke="#000000" stroke-linecap="round" stroke-linejoin="round" stroke-width="3.1386520154437183"/>
  <path d="M 72.79876468563329, 36.4514481547348 Q 72.72008650861987, 37.696311390861744, 72.20575111360898, 38.274860175330666 " fill="none" id="curve_102" stroke="#000000" stroke-linecap="round" stroke-linejoin="round" stroke-width="3.2417602114928954"/>
  <path d="M 57.078262407974655, 37.71697199901762 Q 60.16100286306281, 37.60841838327456, 64.65609445212203, 37.434169761959815 " fill="none" id="curve_103" stroke="#000000" stroke-linecap="round" stroke-linejoin="round" stroke-width="3.0067048933016034"/>
  <path d="M 60.90124153754732, 63.80322198796421 Q 60.35911627198225, 63.79170171261576, 59.73882023700711, 63.7549277360484 " fill="none" id="curve_144" stroke="#000000" stroke-linecap="round" stroke-linejoin="round" stroke-width="2.593915178609292"/>
  <path d="M 55.987823176845026, 108.66155945471164 Q 50.786126355001215, 111.82052813617832, 40.51533265494988, 116.30575632937025 " fill="none" id="curve_168" stroke="#000000" stroke-linecap="round" stroke-linejoin="round" stroke-width="3.259080513146047"/>
</svg>
