<?xml version="1.0" ?>
<svg height="140" width="140" xmlns="http://www.w3.org/2000/svg">
  <path d="M 52.712711334228516, 39.033145904541016 Q 54.0045864903971, 39.55087564824762, 55.765061070672886, 41.21270400019441 " fill="none" id="curve_1" stroke="#000000" stroke-linecap="round" stroke-linejoin="round" stroke-width="8.48851628775155"/>
  <path d="M 55.765061070672886, 41.21270400019441 Q 52.40528464897717, 51.92191846132475, 45.230306548528944, 64.44256974022721 " fill="none" id="curve_1" stroke="#000000" stroke-linecap="round" stroke-linejoin="round" stroke-width="5.0502028853836975"/>
  <path d="M 45.230306548528944, 64.44256974022721 Q 39.64510916459192, 73.17693165465398, 23.855938889773523, 99.50721156244984 " fill="none" id="curve_1" stroke="#000000" stroke-linecap="round" stroke-linejoin="round" stroke-width="5.200669938557823"/>
  <path d="M 23.855938889773523, 99.50721156244984 Q 22.390317626246965, 102.56047442881291, 21.035627625836387, 107.60973556956965 " fill="none" id="curve_1" stroke="#000000" stroke-linecap="round" stroke-linejoin="round" stroke-width="6.449329198856517"/>
  <path d="M 21.035627625836387, 107.60973556956965 Q 36.04037696706355, 103.37912918140242, 55.24919272516014, 97.1870459438948 " fill="none" id="curve_1" stroke="#000000" stroke-linecap="round" stroke-linejoin="round" stroke-width="5.254111274535312"/>
  <path d="M 42.44826516396327, 60.63411678868914 Q 35.53058202062059, 59.867472749175036, 32.90489725429701, 55.37042580074362 " fill="none" id="curve_2" stroke="#000000" stroke-linecap="round" stroke-linejoin="round" stroke-width="4.436649885230806"/>
  <path d="M 32.90489725429701, 55.37042580074362 Q 33.54335589399682, 38.06796368192246, 51.77526614352379, 36.00855642589555 " fill="none" id="curve_2" stroke="#000000" stroke-linecap="round" stroke-linejoin="round" stroke-width="5.469765325789158"/>
  <path d="M 51.77526614352379, 36.00855642589555 Q 40.24986022365357, 38.992914237005465, 30.627258852854915, 47.236551104966715 " fill="none" id="curve_2" stroke="#000000" stroke-linecap="round" stroke-linejoin="round" stroke-width="3.0895593567510633"/>
  <path d="M 39.806047815071345, 71.21468317692376 Q 32.19150180861088, 79.38498128279444, 24.435427347739775, 100.1114091542135 " fill="none" id="curve_3" stroke="#000000" stroke-linecap="round" stroke-linejoin="round" stroke-width="3.3951202724693976"/>
  <path d="M 41.6978802517026, 99.62311585489307 Q 33.33146948936926, 101.9145555933669, 26.378600015239023, 107.1338143065304 " fill="none" id="curve_4" stroke="#000000" stroke-linecap="round" stroke-linejoin="round" stroke-width="3.2452712737616083"/>
  <path d="M 31.655926537200344, 55.67001662789434 Q 31.981401885138595, 56.567733742228924, 32.65044871555841, 57.87671755638436 " fill="none" id="curve_8" stroke="#000000" stroke-linecap="round" stroke-linejoin="round" stroke-width="3.4835511576252576"/>
  <path d="M 26.337860799454578, 105.86552088096687 Q 26.306324546258182, 101.21653768683676, 25.609103403384516, 100.72270530988031 " fill="none" id="curve_23" stroke="#000000" stroke-linecap="round" stroke-linejoin="round" stroke-width="3.3997802390149623"/>
  <path d="M 46.35982894897461, 36.38125133514404 Q 50.5947641115005, 37.93122436501698, 54.25238397188588, 42.164753226342214 " fill="none" id="curve_37" stroke="#000000" stroke-linecap="round" stroke-linejoin="round" stroke-width="3.831501056893911"/>
  <path d="M 46.29951811488506, 59.46586619619542 Q 47.59879413170887, 57.460011910657876, 49.87363634954948, 53.35455546633466 " fill="none" id="curve_38" stroke="#000000" stroke-linecap="round" stroke-linejoin="round" stroke-width="3.4558208335588096"/>
  <path d="M 43.38271271015901, 97.53432046243529 Q 37.308384653791684, 98.75213638635786, 33.70657107598565, 103.08387772793985 " fill="none" id="curve_53" stroke="#000000" stroke-linecap="round" stroke-linejoin="round" stroke-width="2.74913357793836"/>
  <path d="M 23.63761332883022, 108.24211209660051 Q 28.420886342219077, 107.98267657540953, 29.919345234124076, 105.47247131340227 " fill="none" id="curve_54" stroke="#000000" stroke-linecap="round" stroke-linejoin="round" stroke-width="2.79362726648553"/>
  <path d="M 28.064294154000464, 95.13337429875081 Q 28.780011724314207, 93.74459843524731, 29.827935714266825, 92.32414721531997 " fill="none" id="curve_55" stroke="#000000" stroke-linecap="round" stroke-linejoin="round" stroke-width="4.15103089818513"/>
  <path d="M 49.71163535118103, 35.9165153503418 Q 49.61946061463883, 34.608027072482436, 47.43427997371103, 34.39092563920141 " fill="none" id="curve_69" stroke="#000000" stroke-linecap="round" stroke-linejoin="round" stroke-width="2.7665348130998395"/>
  <path d="M 34.86963820417194, 54.20033427447663 Q 35.388546705223995, 55.67762764417191, 36.27064712396175, 57.515192481625206 " fill="none" id="curve_70" stroke="#000000" stroke-linecap="round" stroke-linejoin="round" stroke-width="3.1770197870456744"/>
  <path d="M 44.96070169094514, 59.36127289613793 Q 44.773254198369564, 59.25564811558144, 44.5436833221366, 59.033095576329515 " fill="none" id="curve_85" stroke="#000000" stroke-linecap="round" stroke-linejoin="round" stroke-width="3.2879140894658225"/>
  <path d="M 40.35020660919335, 40.950561962498824 Q 40.45637333840513, 39.55465210310429, 40.71978251140777, 36.52486570491387 " fill="none" id="curve_100" stroke="#000000" stroke-linecap="round" stroke-linejoin="round" stroke-width="3.08158688239741"/>
  <path d="M 49.74130421088909, 53.735047195234955 Q 50.35084467674477, 47.15504766870133, 55.159341358412675, 43.92677166380247 " fill="none" id="curve_101" stroke="#000000" stroke-linecap="round" stroke-linejoin="round" stroke-width="2.5383137513907124"/>
</svg>
