<?xml version="1.0" ?>
<svg height="140" width="140" xmlns="http://www.w3.org/2000/svg">
  <path d="M 58.61254119873047, 61.26785850524902 Q 60.098954237499505, 62.76342460897195, 60.7004904279858, 71.42255931918248 " fill="none" id="curve_1" stroke="#000000" stroke-linecap="round" stroke-linejoin="round" stroke-width="6.435582156900698"/>
  <path d="M 60.7004904279858, 71.42255931918248 Q 55.50590356114307, 75.45857987254854, 41.409482699408045, 94.87816026375748 " fill="none" id="curve_1" stroke="#000000" stroke-linecap="round" stroke-linejoin="round" stroke-width="3.607814429311892"/>
  <path d="M 41.409482699408045, 94.87816026375748 Q 37.63387462872921, 100.08613666275598, 33.24818835107538, 106.03167484121902 " fill="none" id="curve_1" stroke="#000000" stroke-linecap="round" stroke-linejoin="round" stroke-width="3.971705141227998"/>
  <path d="M 33.24818835107538, 106.03167484121902 Q 34.93046921284713, 112.67004673446081, 38.402943738099204, 116.0883723270082 " fill="none" id="curve_1" stroke="#000000" stroke-linecap="round" stroke-linejoin="round" stroke-width="6.392580433834985"/>
  <path d="M 38.402943738099204, 116.0883723270082 Q 42.94932566391, 116.79134751613286, 65.83645904749203, 117.03772712297284 " fill="none" id="curve_1" stroke="#000000" stroke-linecap="round" stroke-linejoin="round" stroke-width="4.140001978973355"/>
  <path d="M 60.70652173266384, 62.51991807669664 Q 58.891263080905006, 53.37935812421571, 43.71539284575737, 49.40964471633436 " fill="none" id="curve_3" stroke="#000000" stroke-linecap="round" stroke-linejoin="round" stroke-width="5.221821807204608"/>
  <path d="M 43.71539284575737, 49.40964471633436 Q 29.367540844620713, 50.15571377189777, 26.482429443056635, 61.25659474899673 " fill="none" id="curve_3" stroke="#000000" stroke-linecap="round" stroke-linejoin="round" stroke-width="2.5825475208428164"/>
  <path d="M 52.08265018840747, 52.18406226326871 Q 56.57950085887396, 59.208314043775076, 62.1360864385144, 65.81162361466474 " fill="none" id="curve_4" stroke="#000000" stroke-linecap="round" stroke-linejoin="round" stroke-width="3.073594091118042"/>
  <path d="M 47.103063898186306, 86.79441980294402 Q 42.86226065805434, 92.62019944528059, 37.17116971799252, 99.1295179457871 " fill="none" id="curve_5" stroke="#000000" stroke-linecap="round" stroke-linejoin="round" stroke-width="3.267919483759324"/>
  <path d="M 37.17116971799252, 99.1295179457871 Q 42.53117884592258, 94.94619488630613, 49.57820078519457, 85.61328466754622 " fill="none" id="curve_5" stroke="#000000" stroke-linecap="round" stroke-linejoin="round" stroke-width="2.554540509759733"/>
  <path d="M 35.42693193018222, 114.10838652726866 Q 35.398723302360935, 115.49303370600292, 35.22506277809547, 115.89267984720476 " fill="none" id="curve_7" stroke="#000000" stroke-linecap="round" stroke-linejoin="round" stroke-width="3.560155071494801"/>
  <path d="M 50.85868391489439, 117.87743297571708 Q 46.61894463373854, 117.29687542608958, 38.8908685635968, 116.54360609554193 " fill="none" id="curve_8" stroke="#000000" stroke-linecap="round" stroke-linejoin="round" stroke-width="3.8618416090689043"/>
  <path d="M 55.07994799727638, 53.73365717433832 Q 54.63053483053856, 52.43461254351434, 53.060367785722754, 51.65481622008103 " fill="none" id="curve_9" stroke="#000000" stroke-linecap="round" stroke-linejoin="round" stroke-width="4.8851036111572"/>
  <path d="M 50.09359468020102, 83.10130150814642 Q 45.859574654560745, 86.8718008344283, 41.04733475861598, 94.6126952818516 " fill="none" id="curve_20" stroke="#000000" stroke-linecap="round" stroke-linejoin="round" stroke-width="1.9933327765124218"/>
  <path d="M 56.21216876443438, 116.27216541527974 Q 56.102802862413405, 115.95661230465234, 55.93061071862569, 115.50509464416359 " fill="none" id="curve_23" stroke="#000000" stroke-linecap="round" stroke-linejoin="round" stroke-width="4.412821614980522"/>
  <path d="M 48.52318124249242, 52.24860673715911 Q 50.99927507466447, 53.43152673927531, 55.77779192170746, 54.62525719566714 " fill="none" id="curve_25" stroke="#000000" stroke-linecap="round" stroke-linejoin="round" stroke-width="2.5738483337050226"/>
  <path d="M 39.19315387659198, 112.81791768178296 Q 40.400438159833755, 114.27547881779185, 44.95126889645768, 115.27824226433776 " fill="none" id="curve_33" stroke="#000000" stroke-linecap="round" stroke-linejoin="round" stroke-width="2.7207713712961734"/>
  <path d="M 33.129347895446536, 108.51947238363272 Q 33.84888825218756, 108.54540474085388, 34.51271691563108, 108.61342295866818 " fill="none" id="curve_50" stroke="#000000" stroke-linecap="round" stroke-linejoin="round" stroke-width="3.200853946895847"/>
  <path d="M 36.766050873919085, 115.47402277959645 Q 35.90348630504706, 115.49706875133825, 34.67595648799501, 115.52392558309074 " fill="none" id="curve_104" stroke="#000000" stroke-linecap="round" stroke-linejoin="round" stroke-width="4.202570333568507"/>
</svg>
