<?xml version="1.0" ?>
<svg height="140" width="140" xmlns="http://www.w3.org/2000/svg">
  <path d="M 57.07267379760742, 75.16361618041992 Q 63.52429087756236, 74.4444326042886, 64.59938864145533, 60.471964463953896 " fill="none" id="curve_1" stroke="#000000" stroke-linecap="round" stroke-linejoin="round" stroke-width="5.660896889523897"/>
  <path d="M 64.59938864145533, 60.471964463953896 Q 52.136615635667106, 60.702010655402894, 50.72575643968571, 70.90691038785256 " fill="none" id="curve_1" stroke="#000000" stroke-linecap="round" stroke-linejoin="round" stroke-width="3.8523198505930196"/>
  <path d="M 64.16778455927701, 70.67399882455565 Q 60.10506214692477, 79.24063324772392, 50.3684988746208, 95.2414532338192 " fill="none" id="curve_2" stroke="#000000" stroke-linecap="round" stroke-linejoin="round" stroke-width="5.10826414309821"/>
  <path d="M 50.3684988746208, 95.2414532338192 Q 42.327635072363336, 95.65374588995059, 41.27718422748693, 103.7115174595141 " fill="none" id="curve_2" stroke="#000000" stroke-linecap="round" stroke-linejoin="round" stroke-width="8.206934828665757"/>
  <path d="M 47.479901095918706, 97.88355073217525 Q 52.09720230726686, 104.9884899435335, 59.13210678299309, 110.05536904779768 " fill="none" id="curve_3" stroke="#000000" stroke-linecap="round" stroke-linejoin="round" stroke-width="4.8737543835944575"/>
  <path d="M 59.13210678299309, 110.05536904779768 Q 67.64696280406801, 109.86188418409981, 69.29185493309679, 108.21471335698541 " fill="none" id="curve_3" stroke="#000000" stroke-linecap="round" stroke-linejoin="round" stroke-width="4.380517636248531"/>
  <path d="M 46.19433768350235, 93.1042099263097 Q 41.452034527598, 93.4103490562492, 40.82489691254695, 98.70525246488594 " fill="none" id="curve_4" stroke="#000000" stroke-linecap="round" stroke-linejoin="round" stroke-width="5.162744849289523"/>
  <path d="M 55.75658519638475, 61.988553374082805 Q 57.30479417266274, 59.52023807284438, 63.09951311451107, 58.503609512439695 " fill="none" id="curve_5" stroke="#000000" stroke-linecap="round" stroke-linejoin="round" stroke-width="3.6796360760233977"/>
  <path d="M 56.2743378458992, 110.708149966369 Q 52.649075686584716, 109.0355870392133, 51.00311164590575, 99.44661611288612 " fill="none" id="curve_20" stroke="#000000" stroke-linecap="round" stroke-linejoin="round" stroke-width="2.2332323702036794"/>
  <path d="M 40.44287093203023, 105.9347769353792 Q 41.88506305654603, 104.80409213351305, 43.32523890669601, 102.64159541528616 " fill="none" id="curve_21" stroke="#000000" stroke-linecap="round" stroke-linejoin="round" stroke-width="5.572934583289182"/>
  <path d="M 65.0394077998489, 67.11435482323915 Q 65.59492207520164, 65.51118527348382, 66.22781302262861, 63.03444872092494 " fill="none" id="curve_22" stroke="#000000" stroke-linecap="round" stroke-linejoin="round" stroke-width="3.7404598455572744"/>
  <path d="M 59.979109006286805, 77.63801936699964 Q 57.06552984726242, 85.99549728307704, 49.01067267646854, 91.83275899601861 " fill="none" id="curve_24" stroke="#000000" stroke-linecap="round" stroke-linejoin="round" stroke-width="2.9070877884041098"/>
  <path d="M 42.954193821193066, 91.25028949060844 Q 43.19348677133782, 91.96290691657826, 43.4904368154806, 93.733715173269 " fill="none" id="curve_25" stroke="#000000" stroke-linecap="round" stroke-linejoin="round" stroke-width="3.1488708537391434"/>
  <path d="M 53.864412358592546, 62.79231495826754 Q 54.395080822716096, 62.56513874246068, 55.235617041066774, 61.98995657778293 " fill="none" id="curve_27" stroke="#000000" stroke-linecap="round" stroke-linejoin="round" stroke-width="2.8633517916722346"/>
  <path d="M 57.93266471294555, 79.14166839801356 Q 56.34732561296726, 83.09295414412681, 53.877261251041205, 88.46680222861877 " fill="none" id="curve_42" stroke="#000000" stroke-linecap="round" stroke-linejoin="round" stroke-width="2.5767080586328963"/>
  <path d="M 52.972401534083595, 64.4207954622134 Q 53.53992407227314, 62.9968934981822, 54.91656936295388, 61.31221911391084 " fill="none" id="curve_43" stroke="#000000" stroke-linecap="round" stroke-linejoin="round" stroke-width="3.0976468286363086"/>
  <path d="M 62.90393135208046, 109.28842300339338 Q 58.39141413821669, 107.53939426667833, 51.46595723565251, 103.88573994654153 " fill="none" id="curve_58" stroke="#000000" stroke-linecap="round" stroke-linejoin="round" stroke-width="2.2886674882881577"/>
  <path d="M 39.35681632565219, 104.13476262435213 Q 39.450430862832334, 103.49521222048078, 39.58605823091479, 102.8155632157443 " fill="none" id="curve_60" stroke="#000000" stroke-linecap="round" stroke-linejoin="round" stroke-width="4.142307859963903"/>
  <path d="M 50.517193850750346, 98.7387170123653 Q 51.08931728252531, 99.62988861195583, 52.11927658561809, 101.04552655217161 " fill="none" id="curve_127" stroke="#000000" stroke-linecap="round" stroke-linejoin="round" stroke-width="3.1469403414284884"/>
</svg>
