<?xml version="1.0" ?>
<svg height="140" width="140" xmlns="http://www.w3.org/2000/svg">
  <path d="M 61.0993595123291, 97.1094799041748 Q 62.09569368978997, 96.52879614253999, 64.70637373950848, 96.09423528621124 " fill="none" id="curve_1" stroke="#000000" stroke-linecap="round" stroke-linejoin="round" stroke-width="3.2597294842750184"/>
  <path d="M 64.70637373950848, 96.09423528621124 Q 59.10011713564881, 97.8571530019932, 46.92311882640607, 100.83026841505529 " fill="none" id="curve_1" stroke="#000000" stroke-linecap="round" stroke-linejoin="round" stroke-width="5.113829249618277"/>
  <path d="M 46.92311882640607, 100.83026841505529 Q 41.08121704168896, 101.26900650137553, 34.7985021902691, 101.83279012768226 " fill="none" id="curve_1" stroke="#000000" stroke-linecap="round" stroke-linejoin="round" stroke-width="5.4802121971219915"/>
  <path d="M 34.7985021902691, 101.83279012768226 Q 17.906279541628148, 100.85956388219823, 14.048849097448716, 88.39395486540337 " fill="none" id="curve_1" stroke="#000000" stroke-linecap="round" stroke-linejoin="round" stroke-width="5.6485897932725315"/>
  <path d="M 14.048849097448716, 88.39395486540337 Q 19.837056157005094, 81.78486947418476, 43.871719975151905, 75.0078063183743 " fill="none" id="curve_1" stroke="#000000" stroke-linecap="round" stroke-linejoin="round" stroke-width="5.713855510296236"/>
  <path d="M 43.871719975151905, 75.0078063183743 Q 49.77734941996865, 69.87025566636417, 55.81200228439462, 62.1872922278883 " fill="none" id="curve_1" stroke="#000000" stroke-linecap="round" stroke-linejoin="round" stroke-width="5.199787802897255"/>
  <path d="M 55.81200228439462, 62.1872922278883 Q 54.42321188084989, 47.59005199127714, 26.559970749376717, 41.65230551071284 " fill="none" id="curve_1" stroke="#000000" stroke-linecap="round" stroke-linejoin="round" stroke-width="5.706680697010454"/>
  <path d="M 26.559970749376717, 41.65230551071284 Q 22.79890563308579, 41.88303320459764, 21.45002491980574, 43.007015044139024 " fill="none" id="curve_1" stroke="#000000" stroke-linecap="round" stroke-linejoin="round" stroke-width="9.933146167877236"/>
  <path d="M 16.640005531366832, 82.47803118321612 Q 14.80773928899696, 84.56591996978739, 13.33353173981448, 89.00742816373884 " fill="none" id="curve_2" stroke="#000000" stroke-linecap="round" stroke-linejoin="round" stroke-width="3.8404879915335193"/>
  <path d="M 45.80034532253212, 71.23619952875802 Q 41.876613365815224, 75.09738434751594, 33.61881761093745, 79.52680828894117 " fill="none" id="curve_3" stroke="#000000" stroke-linecap="round" stroke-linejoin="round" stroke-width="3.587228993488039"/>
  <path d="M 56.6127157305032, 61.753970186817014 Q 49.88899257412836, 65.58383888926403, 44.24277968281032, 72.83742129932607 " fill="none" id="curve_4" stroke="#000000" stroke-linecap="round" stroke-linejoin="round" stroke-width="3.8533708434251475"/>
  <path d="M 32.43588855010996, 45.230740782548196 Q 46.55195410030825, 47.36608513781949, 55.69596703032349, 52.293422163214416 " fill="none" id="curve_5" stroke="#000000" stroke-linecap="round" stroke-linejoin="round" stroke-width="2.806773211405574"/>
  <path d="M 24.148860816879264, 82.10747081792015 Q 18.17064044175491, 82.47967433560385, 15.269730316322839, 84.5524929361937 " fill="none" id="curve_7" stroke="#000000" stroke-linecap="round" stroke-linejoin="round" stroke-width="3.183269485388522"/>
  <path d="M 13.290206064111652, 91.9937329276189 Q 13.531710922651845, 92.57486536169944, 14.072181734653881, 93.40603838854912 " fill="none" id="curve_10" stroke="#000000" stroke-linecap="round" stroke-linejoin="round" stroke-width="2.9304151000758036"/>
  <path d="M 30.511638589467186, 44.47286937017151 Q 44.9649829443543, 46.003940554437044, 53.7381532450723, 51.446572842680006 " fill="none" id="curve_11" stroke="#000000" stroke-linecap="round" stroke-linejoin="round" stroke-width="2.4609045115179384"/>
  <path d="M 23.423866446731303, 81.69315121456388 Q 27.89608811127342, 81.34907497063739, 34.11340763094161, 80.63303175413567 " fill="none" id="curve_13" stroke="#000000" stroke-linecap="round" stroke-linejoin="round" stroke-width="2.9685433771111844"/>
  <path d="M 47.155003605461715, 48.18780056501485 Q 41.30352025887696, 47.14325962500611, 34.73288416271883, 44.93166864455828 " fill="none" id="curve_15" stroke="#000000" stroke-linecap="round" stroke-linejoin="round" stroke-width="3.473133369553075"/>
  <path d="M 54.63215877588637, 100.55594609025451 Q 50.911458983741355, 100.80320015656062, 43.52457470958357, 101.27163505669044 " fill="none" id="curve_19" stroke="#000000" stroke-linecap="round" stroke-linejoin="round" stroke-width="3.142335512172439"/>
  <path d="M 26.593602805975408, 81.24704715697365 Q 20.48436560374505, 81.30719145352978, 17.872881251885943, 81.80812895529786 " fill="none" id="curve_22" stroke="#000000" stroke-linecap="round" stroke-linejoin="round" stroke-width="2.8458183152949297"/>
  <path d="M 19.18506389444201, 39.245990520429274 Q 19.150753212136866, 39.78977419070011, 19.096323431853197, 40.8254467487832 " fill="none" id="curve_24" stroke="#000000" stroke-linecap="round" stroke-linejoin="round" stroke-width="3.0582030466314127"/>
  <path d="M 40.744851734684296, 74.47347850480864 Q 38.94075072607853, 74.43684121023958, 37.48088845212957, 74.3335904693822 " fill="none" id="curve_40" stroke="#000000" stroke-linecap="round" stroke-linejoin="round" stroke-width="3.359530173838228"/>
  <path d="M 30.981486310673844, 99.6958841724409 Q 28.29117645812396, 99.40023395121615, 23.31022904895454, 98.9715609349881 " fill="none" id="curve_41" stroke="#000000" stroke-linecap="round" stroke-linejoin="round" stroke-width="2.98910966344667"/>
  <path d="M 33.19298692098715, 43.52362026800544 Q 32.776480577322566, 41.61896788130961, 30.007675070064835, 40.61850091117556 " fill="none" id="curve_71" stroke="#000000" stroke-linecap="round" stroke-linejoin="round" stroke-width="3.0156973343565543"/>
  <path d="M 53.610148589522844, 63.12973038447314 Q 54.67571749104341, 59.16107418347436, 56.612822538898286, 54.997212931263434 " fill="none" id="curve_81" stroke="#000000" stroke-linecap="round" stroke-linejoin="round" stroke-width="2.6088184873879268"/>
  <path d="M 38.18181512587134, 45.34536518551142 Q 40.20867527163299, 46.421983708471906, 43.79342031841224, 48.06489745714018 " fill="none" id="curve_82" stroke="#000000" stroke-linecap="round" stroke-linejoin="round" stroke-width="3.052203988660992"/>
  <path d="M 35.21024156060552, 45.62540313958682 Q 43.1719407867103, 45.97121068570537, 46.6384477062566, 48.74659504264439 " fill="none" id="curve_90" stroke="#000000" stroke-linecap="round" stroke-linejoin="round" stroke-width="2.689076528088849"/>
  <path d="M 36.69581331868669, 45.33812200609444 Q 40.62400661907448, 46.12736186788367, 45.99773760061645, 47.63106489884869 " fill="none" id="curve_93" stroke="#000000" stroke-linecap="round" stroke-linejoin="round" stroke-width="3.332004443582334"/>
  <path d="M 36.67516293273857, 46.02503690236289 Q 43.546651434508355, 46.43318788250895, 47.69926381999797, 48.500459728294594 " fill="none" id="curve_99" stroke="#000000" stroke-linecap="round" stroke-linejoin="round" stroke-width="2.6676775784333615"/>
  <path d="M 42.27308573240924, 45.93338621849307 Q 42.925572220163296, 46.22282932557417, 43.87613475001988, 46.93286210148699 " fill="none" id="curve_107" stroke="#000000" stroke-linecap="round" stroke-linejoin="round" stroke-width="4.046179507868167"/>
  <path d="M 44.34494660131063, 47.8722492601445 Q 46.12866925118109, 49.639239971744665, 49.63386300624387, 53.28367027885429 " fill="none" id="curve_110" stroke="#000000" stroke-linecap="round" stroke-linejoin="round" stroke-width="1.3872619964985298"/>
  <path d="M 39.34933691941251, 102.80243777114757 Q 37.61791113248997, 102.3043474805701, 35.56647125111315, 101.50945779232636 " fill="none" id="curve_139" stroke="#000000" stroke-linecap="round" stroke-linejoin="round" stroke-width="3.033442993181965"/>
  <path d="M 35.56647125111315, 101.50945779232636 Q 26.284815110398597, 99.85248159068237, 16.664429549882907, 96.03276201122108 " fill="none" id="curve_139" stroke="#000000" stroke-linecap="round" stroke-linejoin="round" stroke-width="2.467745456872314"/>
</svg>
