<?xml version="1.0" ?>
<svg height="140" width="140" xmlns="http://www.w3.org/2000/svg">
  <path d="M 61.3529594540596, 81.0618462562561 Q 58.305823452529644, 87.93812479632982, 41.33191962252886, 100.9007547667743 " fill="none" id="curve_1" stroke="#000000" stroke-linecap="round" stroke-linejoin="round" stroke-width="4.820694240985966"/>
  <path d="M 41.33191962252886, 100.9007547667743 Q 34.67581887930376, 106.33311837027411, 25.595416086549164, 118.14759538741774 " fill="none" id="curve_1" stroke="#000000" stroke-linecap="round" stroke-linejoin="round" stroke-width="4.855629152466388"/>
  <path d="M 25.595416086549164, 118.14759538741774 Q 25.958467797197383, 121.02729622769068, 33.57206753311475, 121.25919765589165 " fill="none" id="curve_1" stroke="#000000" stroke-linecap="round" stroke-linejoin="round" stroke-width="4.469941741623347"/>
  <path d="M 33.57206753311475, 121.25919765589165 Q 46.001184290474676, 119.79545585646318, 62.68474567369654, 117.23857574589293 " fill="none" id="curve_1" stroke="#000000" stroke-linecap="round" stroke-linejoin="round" stroke-width="3.6773707331186483"/>
  <path d="M 62.68474567369654, 117.23857574589293 Q 64.21008846689118, 117.21994233711358, 65.0601555425445, 117.1646669245674 " fill="none" id="curve_1" stroke="#000000" stroke-linecap="round" stroke-linejoin="round" stroke-width="3.2022571320457605"/>
  <path d="M 61.80862244395502, 82.58957080245526 Q 68.05511717542728, 77.64519980678837, 72.81153492672179, 65.82213508740955 " fill="none" id="curve_2" stroke="#000000" stroke-linecap="round" stroke-linejoin="round" stroke-width="4.463028331290934"/>
  <path d="M 72.81153492672179, 65.82213508740955 Q 72.59688399846664, 53.17723047028527, 55.608051408441696, 52.47829909052134 " fill="none" id="curve_2" stroke="#000000" stroke-linecap="round" stroke-linejoin="round" stroke-width="4.971708034475695"/>
  <path d="M 55.608051408441696, 52.47829909052134 Q 36.37418173538822, 52.82347595640918, 31.362091776700215, 57.34199770063517 " fill="none" id="curve_2" stroke="#000000" stroke-linecap="round" stroke-linejoin="round" stroke-width="3.689948457801899"/>
  <path d="M 62.9209605740499, 80.20604388029233 Q 59.4431184636058, 85.26514767183721, 51.138549548254936, 91.18098018915882 " fill="none" id="curve_3" stroke="#000000" stroke-linecap="round" stroke-linejoin="round" stroke-width="3.112912475287572"/>
  <path d="M 54.2233617543422, 87.44314116416439 Q 61.96550573961424, 84.10617241218435, 67.61492295375601, 74.17904464369299 " fill="none" id="curve_4" stroke="#000000" stroke-linecap="round" stroke-linejoin="round" stroke-width="2.7331040925545222"/>
  <path d="M 52.946035991505035, 52.32686448995822 Q 52.08802895359277, 51.60134642465349, 46.56166480369711, 51.36607344991597 " fill="none" id="curve_5" stroke="#000000" stroke-linecap="round" stroke-linejoin="round" stroke-width="3.021744615742996"/>
  <path d="M 35.137074469201835, 108.33812242635614 Q 36.92327592529469, 99.72859270157996, 48.889487405852876, 95.42018781119836 " fill="none" id="curve_8" stroke="#000000" stroke-linecap="round" stroke-linejoin="round" stroke-width="2.7495852554119753"/>
  <path d="M 33.919802314729104, 119.59132819625773 Q 30.55296887307823, 118.97184072428615, 25.78111257499283, 117.3833344152378 " fill="none" id="curve_15" stroke="#000000" stroke-linecap="round" stroke-linejoin="round" stroke-width="3.4910481092529237"/>
  <path d="M 25.78111257499283, 117.3833344152378 Q 29.672561115562672, 109.85072055343194, 38.89856897116117, 102.48893948224911 " fill="none" id="curve_15" stroke="#000000" stroke-linecap="round" stroke-linejoin="round" stroke-width="2.9876273515606595"/>
  <path d="M 38.89856897116117, 102.48893948224911 Q 47.306908726917406, 96.9857017697685, 59.53972175703754, 86.54453915147079 " fill="none" id="curve_15" stroke="#000000" stroke-linecap="round" stroke-linejoin="round" stroke-width="2.731098626476402"/>
  <path d="M 59.53972175703754, 86.54453915147079 Q 61.730769944740416, 78.78705926815994, 69.25665582201947, 73.67962038025019 " fill="none" id="curve_15" stroke="#000000" stroke-linecap="round" stroke-linejoin="round" stroke-width="2.8525562111288307"/>
  <path d="M 73.8818615827726, 58.343148903595306 Q 72.03404116191024, 60.461007823983124, 70.05096869541848, 64.59653926932788 " fill="none" id="curve_16" stroke="#000000" stroke-linecap="round" stroke-linejoin="round" stroke-width="2.777709948283001"/>
  <path d="M 33.428727678490404, 120.38555083948556 Q 35.441499044305324, 119.88043452458736, 40.16363283530724, 119.50516433749144 " fill="none" id="curve_48" stroke="#000000" stroke-linecap="round" stroke-linejoin="round" stroke-width="2.4530705322985833"/>
  <path d="M 50.46184248567917, 94.36076061970905 Q 47.743833840440104, 94.74153948838125, 45.17819093278831, 95.9077749777605 " fill="none" id="curve_65" stroke="#000000" stroke-linecap="round" stroke-linejoin="round" stroke-width="2.6643346407132693"/>
  <path d="M 34.49448642448573, 55.1640037750267 Q 33.79501843107078, 55.50424247517231, 32.44521098261766, 56.137389357072706 " fill="none" id="curve_74" stroke="#000000" stroke-linecap="round" stroke-linejoin="round" stroke-width="2.5180915095330914"/>
  <path d="M 64.38434848398674, 53.776420452659295 Q 63.71220896654385, 52.80251623482323, 61.252020036117905, 52.02702249394673 " fill="none" id="curve_102" stroke="#000000" stroke-linecap="round" stroke-linejoin="round" stroke-width="2.8257754332586087"/>
  <path d="M 68.2015892915133, 71.70078115977776 Q 69.52972782109848, 69.6764576554753, 72.13521042683806, 67.19211234724096 " fill="none" id="curve_130" stroke="#000000" stroke-linecap="round" stroke-linejoin="round" stroke-width="2.542739870623052"/>
</svg>
