<?xml version="1.0" ?>
<svg height="140" width="140" xmlns="http://www.w3.org/2000/svg">
  <path d="M 88.31721878051758, 2.3153886795043945 Q 88.86811196242715, 2.053833511721012, 89.50420324071362, 1.5490281182142098 " fill="none" id="curve_1" stroke="#000000" stroke-linecap="round" stroke-linejoin="round" stroke-width="2.750380915211665"/>
  <path d="M 55.75469301404675, 75.44559790335185 Q 51.92748474541186, 76.62741410326645, 44.9668871347298, 77.64973051138571 " fill="none" id="curve_6" stroke="#000000" stroke-linecap="round" stroke-linejoin="round" stroke-width="4.3638595501131165"/>
  <path d="M 44.9668871347298, 77.64973051138571 Q 36.52955758045455, 73.9404117492629, 21.521709784809424, 67.49434133351492 " fill="none" id="curve_6" stroke="#000000" stroke-linecap="round" stroke-linejoin="round" stroke-width="5.318642864512828"/>
  <path d="M 21.521709784809424, 67.49434133351492 Q 9.309049668875689, 69.39196970477713, 2.177906720115974, 76.14954343494082 " fill="none" id="curve_6" stroke="#000000" stroke-linecap="round" stroke-linejoin="round" stroke-width="5.123965842357929"/>
  <path d="M 2.177906720115974, 76.14954343494082 Q 17.078507907761363, 74.73505692068126, 24.436599369439193, 66.88429405439713 " fill="none" id="curve_6" stroke="#000000" stroke-linecap="round" stroke-linejoin="round" stroke-width="3.5504403211777795"/>
  <path d="M 24.436599369439193, 66.88429405439713 Q 35.96900568965036, 62.117392182263366, 47.35618862972946, 44.9485215404559 " fill="none" id="curve_6" stroke="#000000" stroke-linecap="round" stroke-linejoin="round" stroke-width="4.441853536606669"/>
  <path d="M 47.35618862972946, 44.9485215404559 Q 45.79587277362776, 30.24386362227731, 26.513262737504782, 22.54587781789594 " fill="none" id="curve_6" stroke="#000000" stroke-linecap="round" stroke-linejoin="round" stroke-width="5.348026680644958"/>
  <path d="M 26.513262737504782, 22.54587781789594 Q 17.097959865407077, 23.02041825781193, 16.445996187849794, 36.301729605534405 " fill="none" id="curve_6" stroke="#000000" stroke-linecap="round" stroke-linejoin="round" stroke-width="4.282255843566974"/>
  <path d="M 16.445996187849794, 36.301729605534405 Q 18.17360258049137, 36.6469963286274, 19.43166291247589, 37.34197922296956 " fill="none" id="curve_6" stroke="#000000" stroke-linecap="round" stroke-linejoin="round" stroke-width="3.7101665735257763"/>
  <path d="M 56.4801530857246, 74.23805467059996 Q 56.07144539502175, 75.08263263794237, 54.69036087137716, 75.81211809328798 " fill="none" id="curve_8" stroke="#000000" stroke-linecap="round" stroke-linejoin="round" stroke-width="3.1040117648264145"/>
  <path d="M 36.973934559137916, 55.475363058864275 Q 33.77512650928217, 61.82455772086051, 24.233465093593907, 66.50962756288064 " fill="none" id="curve_9" stroke="#000000" stroke-linecap="round" stroke-linejoin="round" stroke-width="2.753500790984816"/>
  <path d="M 24.233465093593907, 66.50962756288064 Q 31.64456621470034, 70.58562916801047, 39.23958361299573, 76.20686169911205 " fill="none" id="curve_9" stroke="#000000" stroke-linecap="round" stroke-linejoin="round" stroke-width="2.5737269395249944"/>
  <path d="M 45.115991765212165, 50.350862437057046 Q 45.96252677260729, 43.45676309630385, 48.3307611360793, 38.220461891566245 " fill="none" id="curve_10" stroke="#000000" stroke-linecap="round" stroke-linejoin="round" stroke-width="2.8845153587961594"/>
  <path d="M 15.507199770261852, 30.412842431802567 Q 16.51196862151544, 29.85133279878625, 17.275651217966534, 28.389741734026234 " fill="none" id="curve_12" stroke="#000000" stroke-linecap="round" stroke-linejoin="round" stroke-width="3.565076993083104"/>
  <path d="M 41.14816079925647, 76.54223743167998 Q 51.287591745651184, 76.32490998054045, 54.62382085271096, 74.85727636742659 " fill="none" id="curve_15" stroke="#000000" stroke-linecap="round" stroke-linejoin="round" stroke-width="2.9074109362695704"/>
  <path d="M 29.746430317783343, 22.791043406820613 Q 38.538082950066546, 26.247343933481055, 44.24128523542267, 39.83379716938869 " fill="none" id="curve_17" stroke="#000000" stroke-linecap="round" stroke-linejoin="round" stroke-width="2.0577884963670083"/>
  <path d="M 38.384491597549285, 74.2552909364702 Q 38.00130782240022, 74.92755378526205, 37.3932021426725, 75.86072450733303 " fill="none" id="curve_18" stroke="#000000" stroke-linecap="round" stroke-linejoin="round" stroke-width="3.9210156866985497"/>
  <path d="M 41.34128403255863, 33.72382594170017 Q 39.63721445325083, 28.690037222010478, 32.851784118241525, 24.65374457817939 " fill="none" id="curve_72" stroke="#000000" stroke-linecap="round" stroke-linejoin="round" stroke-width="2.497110305998208"/>
  <path d="M 0.4769730318431993, 74.84615591333927 Q 2.9051761933060134, 70.56685762441705, 12.950489419975469, 68.41860129173675 " fill="none" id="curve_75" stroke="#000000" stroke-linecap="round" stroke-linejoin="round" stroke-width="2.5788957173065667"/>
  <path d="M 12.950489419975469, 68.41860129173675 Q 26.364801320399174, 69.92148294090855, 36.57176860953037, 74.55060968436298 " fill="none" id="curve_75" stroke="#000000" stroke-linecap="round" stroke-linejoin="round" stroke-width="2.389288856404845"/>
  <path d="M 44.11803534546058, 76.86075370047077 Q 38.97445667878443, 76.1280278252238, 35.10103774489423, 73.89824676532402 " fill="none" id="curve_91" stroke="#000000" stroke-linecap="round" stroke-linejoin="round" stroke-width="2.9490299400020517"/>
  <path d="M 43.597431938884384, 36.081556802705705 Q 40.829197819712256, 28.979638156360863, 29.893458794330236, 22.604427613976796 " fill="none" id="curve_127" stroke="#000000" stroke-linecap="round" stroke-linejoin="round" stroke-width="2.749118970329709"/>
  <path d="M 42.85494118976385, 77.57391153215326 Q 39.52963068349069, 76.61509239575598, 35.4395566704827, 74.8963428692001 " fill="none" id="curve_142" stroke="#000000" stroke-linecap="round" stroke-linejoin="round" stroke-width="2.835621359181995"/>
</svg>
