<?xml version="1.0" ?>
<svg height="140" width="140" xmlns="http://www.w3.org/2000/svg">
  <path d="M 71.89698195457458, 104.49377632141113 Q 71.01800433300315, 104.64578569586409, 55.282340596446375, 104.6737429227014 " fill="none" id="curve_1" stroke="#000000" stroke-linecap="round" stroke-linejoin="round" stroke-width="7.125906431031537"/>
  <path d="M 55.282340596446375, 104.6737429227014 Q 52.227256023824346, 102.29458227575425, 34.35510856808352, 100.98997261686084 " fill="none" id="curve_1" stroke="#000000" stroke-linecap="round" stroke-linejoin="round" stroke-width="8.498034519545996"/>
  <path d="M 27.87556410068897, 101.43218494145395 Q 37.81659773718397, 95.84970208539694, 50.42772926098428, 75.69058668414715 " fill="none" id="curve_2" stroke="#000000" stroke-linecap="round" stroke-linejoin="round" stroke-width="6.34980303364901"/>
  <path d="M 50.42772926098428, 75.69058668414715 Q 52.18552649165441, 68.51951425646537, 54.49024395054171, 59.52631427199093 " fill="none" id="curve_2" stroke="#000000" stroke-linecap="round" stroke-linejoin="round" stroke-width="6.206248696961121"/>
  <path d="M 54.49024395054171, 59.52631427199093 Q 53.967577826761676, 40.920724026770074, 33.58690882796458, 38.661730706975064 " fill="none" id="curve_2" stroke="#000000" stroke-linecap="round" stroke-linejoin="round" stroke-width="6.673511391878689"/>
  <path d="M 33.58690882796458, 38.661730706975064 Q 19.500741159460045, 40.63847499608863, 14.49229551190708, 50.3782465429836 " fill="none" id="curve_2" stroke="#000000" stroke-linecap="round" stroke-linejoin="round" stroke-width="5.263188165282287"/>
  <path d="M 14.49229551190708, 50.3782465429836 Q 16.06352000003669, 39.75806200341178, 34.91626653244319, 37.0988467668949 " fill="none" id="curve_2" stroke="#000000" stroke-linecap="round" stroke-linejoin="round" stroke-width="3.403583073740921"/>
  <path d="M 34.91626653244319, 37.0988467668949 Q 46.774698876563775, 37.92709466914094, 49.31595287991212, 46.49477136221494 " fill="none" id="curve_2" stroke="#000000" stroke-linecap="round" stroke-linejoin="round" stroke-width="3.0151333567396983"/>
  <path d="M 42.992928803244, 87.11696435180447 Q 33.79676726147804, 90.64408962493503, 27.442482873406114, 102.566038686451 " fill="none" id="curve_3" stroke="#000000" stroke-linecap="round" stroke-linejoin="round" stroke-width="3.4477289678352556"/>
  <path d="M 27.442482873406114, 102.566038686451 Q 29.077932343411327, 102.8360600018181, 34.504423419653996, 102.96073039679618 " fill="none" id="curve_3" stroke="#000000" stroke-linecap="round" stroke-linejoin="round" stroke-width="3.500403045774794"/>
  <path d="M 59.77532869066411, 102.45917066958371 Q 65.86659498522003, 103.78566758882882, 74.02477072065317, 104.85970202825555 " fill="none" id="curve_4" stroke="#000000" stroke-linecap="round" stroke-linejoin="round" stroke-width="3.1241218848968395"/>
  <path d="M 52.9072576378781, 61.513603513094985 Q 51.65391569443421, 48.083452549593304, 43.48524393338427, 40.00848316247077 " fill="none" id="curve_6" stroke="#000000" stroke-linecap="round" stroke-linejoin="round" stroke-width="2.732828237246813"/>
  <path d="M 43.48524393338427, 40.00848316247077 Q 47.657710568065426, 40.67421276787277, 50.142537510344624, 42.96061433485224 " fill="none" id="curve_6" stroke="#000000" stroke-linecap="round" stroke-linejoin="round" stroke-width="2.9144388581679777"/>
  <path d="M 30.18279877570775, 36.365656653200304 Q 24.36492588128176, 41.63396510293926, 16.262200926080542, 48.664594790274236 " fill="none" id="curve_7" stroke="#000000" stroke-linecap="round" stroke-linejoin="round" stroke-width="3.2854915383336207"/>
  <path d="M 43.38454812390077, 84.8403127376571 Q 40.031332392710496, 86.87765002340282, 36.365978618068695, 90.09638339604125 " fill="none" id="curve_10" stroke="#000000" stroke-linecap="round" stroke-linejoin="round" stroke-width="3.3431524843963234"/>
  <path d="M 48.22058931562603, 79.07536222779284 Q 46.18924053962746, 81.21762599274801, 43.77976075502121, 85.84859058913362 " fill="none" id="curve_11" stroke="#000000" stroke-linecap="round" stroke-linejoin="round" stroke-width="3.349794782467391"/>
  <path d="M 43.77976075502121, 85.84859058913362 Q 46.553922759835245, 83.22417552149294, 48.670694274441374, 76.72480554112073 " fill="none" id="curve_11" stroke="#000000" stroke-linecap="round" stroke-linejoin="round" stroke-width="3.7697056264437436"/>
  <path d="M 68.09544221386275, 105.73460080013861 Q 66.20204210705673, 105.45866004713592, 62.28474037791746, 104.84001286431901 " fill="none" id="curve_15" stroke="#000000" stroke-linecap="round" stroke-linejoin="round" stroke-width="2.8052225229403525"/>
  <path d="M 27.761807781591635, 101.48913342338275 Q 27.76118071602748, 101.19465042506458, 27.7601456227083, 100.5693027052986 " fill="none" id="curve_22" stroke="#000000" stroke-linecap="round" stroke-linejoin="round" stroke-width="3.5197150173758804"/>
  <path d="M 61.86818974360237, 104.40162617726469 Q 54.645649311451756, 102.50388132010207, 33.42120987603485, 99.13193815224166 " fill="none" id="curve_64" stroke="#000000" stroke-linecap="round" stroke-linejoin="round" stroke-width="2.306834052371607"/>
  <path d="M 26.571979288863226, 100.84103328332847 Q 28.003881229020514, 100.64271525660823, 29.576325375205062, 100.1851445764146 " fill="none" id="curve_94" stroke="#000000" stroke-linecap="round" stroke-linejoin="round" stroke-width="3.00651903729276"/>
  <path d="M 58.85941104457714, 103.61873098428664 Q 56.02987514113104, 102.13730029211317, 49.0316198594192, 100.67263039085054 " fill="none" id="curve_111" stroke="#000000" stroke-linecap="round" stroke-linejoin="round" stroke-width="2.4176930467458257"/>
</svg>
