<?xml version="1.0" ?>
<svg height="140" width="140" xmlns="http://www.w3.org/2000/svg">
  <path d="M 47.44403311055498, 88.98956738061156 Q 45.66803653515097, 84.42574900866697, 43.12387238038367, 77.01449455044047 " fill="none" id="curve_2" stroke="#000000" stroke-linecap="round" stroke-linejoin="round" stroke-width="7.4663219493692266"/>
  <path d="M 43.12387238038367, 77.01449455044047 Q 48.10971885154329, 76.68135500244243, 48.63346094727445, 71.03907349289483 " fill="none" id="curve_2" stroke="#000000" stroke-linecap="round" stroke-linejoin="round" stroke-width="5.492375604104191"/>
  <path d="M 48.63346094727445, 71.03907349289483 Q 48.396034469532125, 54.43694261975942, 36.267134445994735, 52.93835702083968 " fill="none" id="curve_2" stroke="#000000" stroke-linecap="round" stroke-linejoin="round" stroke-width="5.512107326956745"/>
  <path d="M 36.324925475938144, 76.33993166380183 Q 28.93858176233963, 84.45007207224205, 21.31209854884988, 104.46133762742627 " fill="none" id="curve_3" stroke="#000000" stroke-linecap="round" stroke-linejoin="round" stroke-width="3.435533983087283"/>
  <path d="M 21.31209854884988, 104.46133762742627 Q 32.30741196136588, 98.48838693280297, 43.73500325918182, 83.20456978832324 " fill="none" id="curve_3" stroke="#000000" stroke-linecap="round" stroke-linejoin="round" stroke-width="3.7858169445038086"/>
  <path d="M 43.73500325918182, 83.20456978832324 Q 48.74732457823218, 96.48066437882048, 61.971256355622934, 105.29425279060808 " fill="none" id="curve_3" stroke="#000000" stroke-linecap="round" stroke-linejoin="round" stroke-width="4.547079246248934"/>
  <path d="M 61.971256355622934, 105.29425279060808 Q 63.01271672726167, 104.31432926690844, 65.14045459295076, 103.73270280646162 " fill="none" id="curve_3" stroke="#000000" stroke-linecap="round" stroke-linejoin="round" stroke-width="4.275632090068302"/>
  <path d="M 33.42918155579967, 53.10116785103305 Q 33.74771904598695, 52.747508291701905, 34.0013884114359, 52.05860123293343 " fill="none" id="curve_5" stroke="#000000" stroke-linecap="round" stroke-linejoin="round" stroke-width="7.1374577789219185"/>
  <path d="M 42.69498279301703, 76.51629733010614 Q 42.02305997481117, 76.37122417110132, 40.822759832063525, 76.15928041514047 " fill="none" id="curve_6" stroke="#000000" stroke-linecap="round" stroke-linejoin="round" stroke-width="3.9737040459994724"/>
  <path d="M 56.72104706548191, 102.78335597668226 Q 50.66644867789764, 101.7858423112546, 49.496282229932284, 88.78772286131388 " fill="none" id="curve_7" stroke="#000000" stroke-linecap="round" stroke-linejoin="round" stroke-width="3.9404511614162936"/>
  <path d="M 36.59748480132423, 90.28332055481917 Q 41.44247999955768, 86.60873822476704, 45.882584322608196, 77.78966266464167 " fill="none" id="curve_12" stroke="#000000" stroke-linecap="round" stroke-linejoin="round" stroke-width="2.818759883206146"/>
  <path d="M 40.69544998945145, 77.20385403463362 Q 47.675205008554286, 73.91997158657564, 51.88760425908103, 62.472155560106856 " fill="none" id="curve_14" stroke="#000000" stroke-linecap="round" stroke-linejoin="round" stroke-width="2.6106659133896812"/>
  <path d="M 41.37321190152301, 75.23175449704888 Q 40.198342332595246, 75.00855508805519, 38.98129838377759, 74.62449688434293 " fill="none" id="curve_15" stroke="#000000" stroke-linecap="round" stroke-linejoin="round" stroke-width="3.7710724161463998"/>
  <path d="M 55.630322217941284, 102.4241943359375 Q 54.78215906079533, 96.646563027563, 50.29025680385587, 93.92913428193606 " fill="none" id="curve_29" stroke="#000000" stroke-linecap="round" stroke-linejoin="round" stroke-width="4.3756375905929765"/>
  <path d="M 46.774903118678516, 67.80197064164528 Q 47.23386318941967, 69.06008570907566, 48.031233925130024, 70.89636587477295 " fill="none" id="curve_71" stroke="#000000" stroke-linecap="round" stroke-linejoin="round" stroke-width="3.0027560335993404"/>
  <path d="M 38.545081743555556, 86.1643792040577 Q 38.49967779657752, 87.17245277751593, 38.37743902653238, 88.8873321913913 " fill="none" id="curve_125" stroke="#000000" stroke-linecap="round" stroke-linejoin="round" stroke-width="2.5552236552916505"/>
  <path d="M 63.43982143756858, 102.9411002838321 Q 59.71453143174576, 101.86078191106526, 52.204439889764195, 100.17569813184052 " fill="none" id="curve_140" stroke="#000000" stroke-linecap="round" stroke-linejoin="round" stroke-width="2.2317105409678994"/>
</svg>
