<?xml version="1.0" ?>
<svg height="140" width="140" xmlns="http://www.w3.org/2000/svg">
  <path d="M 24.7753963470459, 39.38475799560547 Q 17.62432157640699, 40.34782075951368, 15.132254817050121, 47.74874098094733 " fill="none" id="curve_1" stroke="#000000" stroke-linecap="round" stroke-linejoin="round" stroke-width="8.00748410270263"/>
  <path d="M 15.132254817050121, 47.74874098094733 Q 21.022579707335613, 44.321446429429166, 27.38263874392708, 37.403656748088835 " fill="none" id="curve_1" stroke="#000000" stroke-linecap="round" stroke-linejoin="round" stroke-width="5.171109504616731"/>
  <path d="M 27.38263874392708, 37.403656748088835 Q 33.43830657764736, 35.18630242510906, 45.07209270924092, 33.50082200220297 " fill="none" id="curve_1" stroke="#000000" stroke-linecap="round" stroke-linejoin="round" stroke-width="6.103176382723094"/>
  <path d="M 45.07209270924092, 33.50082200220297 Q 54.518219876061835, 33.979460425513615, 55.5245987753541, 40.42881274481674 " fill="none" id="curve_1" stroke="#000000" stroke-linecap="round" stroke-linejoin="round" stroke-width="5.919452200304005"/>
  <path d="M 55.5245987753541, 40.42881274481674 Q 53.36424315364982, 54.03926077367151, 38.62304283667619, 73.02137675789038 " fill="none" id="curve_1" stroke="#000000" stroke-linecap="round" stroke-linejoin="round" stroke-width="5.535673243866143"/>
  <path d="M 38.62304283667619, 73.02137675789038 Q 33.65640978803267, 81.34134768166024, 29.801912564700437, 96.20034316614586 " fill="none" id="curve_1" stroke="#000000" stroke-linecap="round" stroke-linejoin="round" stroke-width="6.172431039637311"/>
  <path d="M 29.801912564700437, 96.20034316614586 Q 32.29883147303822, 98.71596836122116, 40.959250095106874, 99.59741014105609 " fill="none" id="curve_1" stroke="#000000" stroke-linecap="round" stroke-linejoin="round" stroke-width="5.98623268569765"/>
  <path d="M 40.959250095106874, 99.59741014105609 Q 62.66735281015818, 98.47173560527217, 73.89777751040128, 95.47390492134926 " fill="none" id="curve_1" stroke="#000000" stroke-linecap="round" stroke-linejoin="round" stroke-width="5.6778214520007975"/>
  <path d="M 32.333377732858175, 96.21475721035294 Q 31.56092480689847, 91.5234844320816, 29.29357170725619, 88.9464080167057 " fill="none" id="curve_2" stroke="#000000" stroke-linecap="round" stroke-linejoin="round" stroke-width="4.56384303340445"/>
  <path d="M 54.28508117789211, 41.141293772456706 Q 51.225478256865564, 52.51342088354075, 44.49301456565081, 62.90609399993652 " fill="none" id="curve_4" stroke="#000000" stroke-linecap="round" stroke-linejoin="round" stroke-width="2.940751083073119"/>
  <path d="M 33.71788145769693, 34.573178164736646 Q 25.851769156415028, 37.16061275564699, 18.065415577207336, 41.48077985607062 " fill="none" id="curve_5" stroke="#000000" stroke-linecap="round" stroke-linejoin="round" stroke-width="4.429894862332218"/>
  <path d="M 32.208765558468315, 35.866099185195814 Q 30.907412806884548, 37.9385382233777, 23.994394972864818, 38.53903231507703 " fill="none" id="curve_6" stroke="#000000" stroke-linecap="round" stroke-linejoin="round" stroke-width="5.159841109347276"/>
  <path d="M 30.771679008454406, 84.96627087197271 Q 33.2375035915327, 78.89393085243911, 40.753847930778065, 75.29231787188864 " fill="none" id="curve_10" stroke="#000000" stroke-linecap="round" stroke-linejoin="round" stroke-width="3.52312377473988"/>
  <path d="M 40.45765481735818, 98.32760739007871 Q 49.97944471629294, 96.68875109778223, 67.82662348662137, 94.83031267647705 " fill="none" id="curve_11" stroke="#000000" stroke-linecap="round" stroke-linejoin="round" stroke-width="2.9147705706920553"/>
  <path d="M 45.14803839438815, 97.06055625503475 Q 41.2936159235108, 97.23798492651076, 40.429566475300525, 99.29122041817426 " fill="none" id="curve_12" stroke="#000000" stroke-linecap="round" stroke-linejoin="round" stroke-width="4.063856124120386"/>
  <path d="M 31.81160566091753, 93.26451150695841 Q 30.752303245815177, 91.97764883822077, 29.026506473522367, 90.7556458740509 " fill="none" id="curve_13" stroke="#000000" stroke-linecap="round" stroke-linejoin="round" stroke-width="4.809861960501998"/>
  <path d="M 37.43192648430239, 33.39496138362248 Q 33.12777988154274, 34.53973013558231, 27.215046161822734, 36.04095763984317 " fill="none" id="curve_15" stroke="#000000" stroke-linecap="round" stroke-linejoin="round" stroke-width="3.641098170494724"/>
  <path d="M 39.192686439837395, 101.59460607264016 Q 36.991921254083294, 99.22576325664899, 33.46713188352531, 96.06626210045087 " fill="none" id="curve_50" stroke="#000000" stroke-linecap="round" stroke-linejoin="round" stroke-width="3.7635883131293517"/>
  <path d="M 89.67264405769394, 138.8464676162863 Q 89.79233476943726, 138.44794121074034, 89.96174397915355, 137.86881617448702 " fill="none" id="curve_66" stroke="#000000" stroke-linecap="round" stroke-linejoin="round" stroke-width="1.7349049479434222"/>
  <path d="M 51.63228616872189, 48.135326076320894 Q 52.42173202491263, 45.54576156316598, 54.75846202768819, 42.44326467938892 " fill="none" id="curve_94" stroke="#000000" stroke-linecap="round" stroke-linejoin="round" stroke-width="3.1516320498443844"/>
  <path d="M 38.51715285010005, 99.11051126282044 Q 34.47360619384405, 96.45968834116252, 30.858786502242765, 89.95762252463501 " fill="none" id="curve_109" stroke="#000000" stroke-linecap="round" stroke-linejoin="round" stroke-width="2.7769643947646068"/>
  <path d="M 45.64976422733059, 36.96842667977489 Q 45.56559166753658, 36.09912619629105, 45.02019156540606, 35.536592968091874 " fill="none" id="curve_124" stroke="#000000" stroke-linecap="round" stroke-linejoin="round" stroke-width="2.0337679289528654"/>
  <path d="M 50.65312481876015, 41.22353523292327 Q 53.467683554495444, 41.80283919845838, 56.52831164111542, 42.856172250862954 " fill="none" id="curve_139" stroke="#000000" stroke-linecap="round" stroke-linejoin="round" stroke-width="3.069985265565905"/>
  <path d="M 36.12190994241034, 35.19636283716902 Q 34.25453241215638, 38.12313727479953, 25.472465304446267, 39.05750328121166 " fill="none" id="curve_140" stroke="#000000" stroke-linecap="round" stroke-linejoin="round" stroke-width="3.591679020308272"/>
</svg>
