<?xml version="1.0" ?>
<svg height="140" width="140" xmlns="http://www.w3.org/2000/svg">
  <path d="M 35.28030014038086, 41.977108001708984 Q 35.18702055631061, 40.02482984852244, 33.470073339200596, 39.6699696709982 " fill="none" id="curve_1" stroke="#000000" stroke-linecap="round" stroke-linejoin="round" stroke-width="4.242260651305325"/>
  <path d="M 33.470073339200596, 39.6699696709982 Q 16.73184874963074, 41.06939711830623, 9.859015388629405, 59.8086995458311 " fill="none" id="curve_1" stroke="#000000" stroke-linecap="round" stroke-linejoin="round" stroke-width="4.007112134665762"/>
  <path d="M 9.859015388629405, 59.8086995458311 Q 11.49456349626689, 60.79846965566176, 11.763103807919506, 69.82822844276949 " fill="none" id="curve_1" stroke="#000000" stroke-linecap="round" stroke-linejoin="round" stroke-width="6.211515797543531"/>
  <path d="M 11.763103807919506, 69.82822844276949 Q 13.644929247433243, 75.63109590649151, 23.89446041219965, 77.03164337440757 " fill="none" id="curve_1" stroke="#000000" stroke-linecap="round" stroke-linejoin="round" stroke-width="2.737300344178605"/>
  <path d="M 58.8752003161442, 88.2268385821414 Q 52.69081850022288, 96.10273326105272, 32.77844583137766, 111.48203944897757 " fill="none" id="curve_2" stroke="#000000" stroke-linecap="round" stroke-linejoin="round" stroke-width="5.74678080768161"/>
  <path d="M 32.77844583137766, 111.48203944897757 Q 23.900401081855122, 116.15159965642812, 12.53901620028832, 122.43460617265674 " fill="none" id="curve_2" stroke="#000000" stroke-linecap="round" stroke-linejoin="round" stroke-width="5.995941493252484"/>
  <path d="M 37.43400381244683, 110.327536028183 Q 57.382288331017705, 113.48165231545536, 65.59533363459818, 122.9598205061099 " fill="none" id="curve_3" stroke="#000000" stroke-linecap="round" stroke-linejoin="round" stroke-width="5.53896374155246"/>
  <path d="M 58.461488844922535, 87.12905225009905 Q 63.83194622887948, 85.5178015286734, 64.86822481728798, 72.64982479358947 " fill="none" id="curve_4" stroke="#000000" stroke-linecap="round" stroke-linejoin="round" stroke-width="6.900064361464684"/>
  <path d="M 64.86822481728798, 72.64982479358947 Q 62.564818607706194, 58.81368316224034, 46.00098973073776, 46.68714721465838 " fill="none" id="curve_4" stroke="#000000" stroke-linecap="round" stroke-linejoin="round" stroke-width="5.6226396707832755"/>
  <path d="M 46.00098973073776, 46.68714721465838 Q 41.88512250519002, 43.895566043133364, 36.30183420150727, 40.49298191617689 " fill="none" id="curve_4" stroke="#000000" stroke-linecap="round" stroke-linejoin="round" stroke-width="4.81656445394826"/>
  <path d="M 59.19083757557712, 89.56349729158933 Q 52.25279443671319, 91.76384403811716, 48.48934856891015, 99.26059639673436 " fill="none" id="curve_8" stroke="#000000" stroke-linecap="round" stroke-linejoin="round" stroke-width="3.668166734285812"/>
  <path d="M 48.48934856891015, 99.26059639673436 Q 56.17412102309687, 92.2087283401825, 64.59693740142849, 75.43459272140349 " fill="none" id="curve_8" stroke="#000000" stroke-linecap="round" stroke-linejoin="round" stroke-width="3.024180462025351"/>
  <path d="M 44.515469578753354, 110.89841798151859 Q 58.70170308278256, 112.96290852552478, 63.44945844706119, 121.44896895375332 " fill="none" id="curve_9" stroke="#000000" stroke-linecap="round" stroke-linejoin="round" stroke-width="2.668284158754477"/>
  <path d="M 62.909232149903296, 121.55708261838122 Q 63.40962773898332, 121.45244045044382, 63.80095194025199, 121.154405022029 " fill="none" id="curve_10" stroke="#000000" stroke-linecap="round" stroke-linejoin="round" stroke-width="5.486199028322255"/>
  <path d="M 65.66037793499363, 68.39576723493566 Q 65.41367888079641, 66.74365459175726, 64.58762658477666, 65.20687984245995 " fill="none" id="curve_12" stroke="#000000" stroke-linecap="round" stroke-linejoin="round" stroke-width="4.080676573210726"/>
  <path d="M 13.301250844680354, 62.921145287128454 Q 13.348471866903086, 54.905949499146494, 13.776955895954387, 52.49488258904146 " fill="none" id="curve_13" stroke="#000000" stroke-linecap="round" stroke-linejoin="round" stroke-width="3.1525726597166437"/>
  <path d="M 10.022899892226164, 65.07150612060424 Q 9.723309760296939, 64.37566250290222, 9.354489462184699, 63.30685418787891 " fill="none" id="curve_17" stroke="#000000" stroke-linecap="round" stroke-linejoin="round" stroke-width="4.712912011502669"/>
  <path d="M 42.38500465854018, 42.82802038736371 Q 49.789724583594875, 46.4203340853399, 57.06172846277282, 55.66295250895901 " fill="none" id="curve_18" stroke="#000000" stroke-linecap="round" stroke-linejoin="round" stroke-width="2.763510955958704"/>
  <path d="M 18.714846449123186, 117.95524854616828 Q 15.243068976415138, 118.87304134023742, 12.20520655409269, 120.6457091749354 " fill="none" id="curve_20" stroke="#000000" stroke-linecap="round" stroke-linejoin="round" stroke-width="4.30091887158843"/>
  <path d="M 57.434977888105664, 89.42019541368916 Q 55.28496737580455, 95.15510404162706, 46.92161411779264, 98.7445396421002 " fill="none" id="curve_26" stroke="#000000" stroke-linecap="round" stroke-linejoin="round" stroke-width="3.92663020781752"/>
  <path d="M 47.988986982207614, 110.38120191119576 Q 43.25893580141654, 109.80357488650631, 38.52982392817495, 107.4903937248996 " fill="none" id="curve_29" stroke="#000000" stroke-linecap="round" stroke-linejoin="round" stroke-width="2.1821891630537498"/>
  <path d="M 61.33687217179428, 117.53897204488209 Q 62.99913797209454, 118.60695414047191, 63.77317496288715, 123.45627886629302 " fill="none" id="curve_31" stroke="#000000" stroke-linecap="round" stroke-linejoin="round" stroke-width="3.8248553179437645"/>
  <path d="M 55.54200765518193, 90.76841300467092 Q 52.90933063604216, 94.66855712114439, 46.268596926534045, 99.01820615935478 " fill="none" id="curve_33" stroke="#000000" stroke-linecap="round" stroke-linejoin="round" stroke-width="2.8686814922949315"/>
  <path d="M 54.886389501067065, 59.29742120754457 Q 61.490639428393735, 60.35166445840238, 65.36148970134437, 63.916740044234885 " fill="none" id="curve_35" stroke="#000000" stroke-linecap="round" stroke-linejoin="round" stroke-width="2.0581381075975678"/>
  <path d="M 56.88587693880436, 88.86807217546175 Q 54.81880040335671, 93.51345001468471, 47.78900243486164, 96.69197796015686 " fill="none" id="curve_63" stroke="#000000" stroke-linecap="round" stroke-linejoin="round" stroke-width="3.530697546617718"/>
  <path d="M 60.00406716416842, 116.09742831506742 Q 62.54110522672398, 118.22850812850663, 66.28012330921752, 120.15737901044274 " fill="none" id="curve_91" stroke="#000000" stroke-linecap="round" stroke-linejoin="round" stroke-width="3.248637128249505"/>
  <path d="M 52.35024452209473, 96.49139595031738 Q 53.2853361301011, 92.19484696929702, 56.392575477418774, 89.34910977594694 " fill="none" id="curve_105" stroke="#000000" stroke-linecap="round" stroke-linejoin="round" stroke-width="3.6096951837237157"/>
</svg>
