<?xml version="1.0" ?>
<svg height="140" width="140" xmlns="http://www.w3.org/2000/svg">
  <path d="M 71.52346420288086, 115.4092288017273 Q 68.96883182764923, 117.31500777041354, 54.19749986256522, 119.49007562215627 " fill="none" id="curve_1" stroke="#000000" stroke-linecap="round" stroke-linejoin="round" stroke-width="4.028759259822313"/>
  <path d="M 54.19749986256522, 119.49007562215627 Q 49.549075972004886, 120.61024532327859, 35.94107962302375, 121.92021694590447 " fill="none" id="curve_1" stroke="#000000" stroke-linecap="round" stroke-linejoin="round" stroke-width="4.996642125270614"/>
  <path d="M 35.94107962302375, 121.92021694590447 Q 24.31324749311062, 121.76715651720707, 23.53425822455634, 115.74437022734467 " fill="none" id="curve_1" stroke="#000000" stroke-linecap="round" stroke-linejoin="round" stroke-width="5.087006552311816"/>
  <path d="M 23.53425822455634, 115.74437022734467 Q 25.347251409904274, 103.18086772365531, 37.23730495598422, 94.33174703288682 " fill="none" id="curve_1" stroke="#000000" stroke-linecap="round" stroke-linejoin="round" stroke-width="6.609848002350415"/>
  <path d="M 37.23730495598422, 94.33174703288682 Q 44.77130062142384, 87.18256444777212, 64.19265509222643, 70.99815228131769 " fill="none" id="curve_1" stroke="#000000" stroke-linecap="round" stroke-linejoin="round" stroke-width="5.1848138122620755"/>
  <path d="M 64.19265509222643, 70.99815228131769 Q 70.57895240745745, 66.00166541880395, 76.81141817293403, 57.33558498646792 " fill="none" id="curve_1" stroke="#000000" stroke-linecap="round" stroke-linejoin="round" stroke-width="4.242402674780376"/>
  <path d="M 76.81141817293403, 57.33558498646792 Q 74.6703217186936, 51.043088705911515, 58.45880780192077, 48.57773105990678 " fill="none" id="curve_1" stroke="#000000" stroke-linecap="round" stroke-linejoin="round" stroke-width="5.6218795861605955"/>
  <path d="M 58.45880780192077, 48.57773105990678 Q 46.808978893074595, 51.201754623748585, 38.04754548133164, 58.75442194047004 " fill="none" id="curve_1" stroke="#000000" stroke-linecap="round" stroke-linejoin="round" stroke-width="6.3928960193934214"/>
  <path d="M 38.04754548133164, 58.75442194047004 Q 38.38441157517699, 57.65889069905083, 38.837828085056906, 55.955551012673254 " fill="none" id="curve_1" stroke="#000000" stroke-linecap="round" stroke-linejoin="round" stroke-width="3.9115179595054754"/>
  <path d="M 60.982411306607084, 71.68126137422668 Q 68.73495296803763, 67.3636379828103, 75.66509466511812, 59.00940342311894 " fill="none" id="curve_4" stroke="#000000" stroke-linecap="round" stroke-linejoin="round" stroke-width="2.8522326397406976"/>
  <path d="M 58.30971743988722, 49.38260683678763 Q 63.98590776153407, 51.75697135068793, 73.35274307814957, 53.46973195919705 " fill="none" id="curve_5" stroke="#000000" stroke-linecap="round" stroke-linejoin="round" stroke-width="3.0423613243040784"/>
  <path d="M 56.464139169039385, 47.1174474611225 Q 48.55980226614548, 49.301237704899556, 38.649179743993145, 53.85867552324988 " fill="none" id="curve_6" stroke="#000000" stroke-linecap="round" stroke-linejoin="round" stroke-width="2.612196534629457"/>
  <path d="M 37.876696508507855, 61.42425177327904 Q 37.6313288045323, 61.3800736993262, 37.28778169699139, 61.33278449117803 " fill="none" id="curve_7" stroke="#000000" stroke-linecap="round" stroke-linejoin="round" stroke-width="3.036689517275519"/>
  <path d="M 65.57507523093275, 68.81382197121525 Q 69.20423576996504, 63.57474168531227, 76.09705251009696, 56.785765513904 " fill="none" id="curve_8" stroke="#000000" stroke-linecap="round" stroke-linejoin="round" stroke-width="2.2849236916035385"/>
  <path d="M 76.09705251009696, 56.785765513904 Q 72.57576682232785, 62.86363083814192, 61.93806064225432, 70.4475443678126 " fill="none" id="curve_8" stroke="#000000" stroke-linecap="round" stroke-linejoin="round" stroke-width="2.583274819054965"/>
  <path d="M 72.46024934126193, 52.75071730319011 Q 75.479017523483, 52.874712888221865, 76.86825920953217, 53.412376194699284 " fill="none" id="curve_9" stroke="#000000" stroke-linecap="round" stroke-linejoin="round" stroke-width="2.589816148560365"/>
  <path d="M 60.266774468425616, 47.48792354007605 Q 69.06651644262678, 48.85412905887063, 72.9436990274763, 53.22069390961307 " fill="none" id="curve_10" stroke="#000000" stroke-linecap="round" stroke-linejoin="round" stroke-width="2.2243625532972784"/>
  <path d="M 71.30878015319111, 114.23413699104056 Q 71.72705008083933, 115.07556683895567, 74.00394325307914, 115.48416823173243 " fill="none" id="curve_12" stroke="#000000" stroke-linecap="round" stroke-linejoin="round" stroke-width="3.9079731476184567"/>
  <path d="M 74.00394325307914, 115.48416823173243 Q 71.42144410473459, 116.13075000490734, 67.0335885923601, 116.60420411204032 " fill="none" id="curve_12" stroke="#000000" stroke-linecap="round" stroke-linejoin="round" stroke-width="3.3773423804750484"/>
  <path d="M 24.71156147974603, 104.58015474963358 Q 23.44122664371352, 108.93521367549393, 21.766783090450136, 112.19112667322602 " fill="none" id="curve_14" stroke="#000000" stroke-linecap="round" stroke-linejoin="round" stroke-width="3.0597188095713665"/>
  <path d="M 25.54405549140647, 109.86747028263149 Q 30.17477756798309, 99.09546487037967, 42.04057541292164, 87.30502078717313 " fill="none" id="curve_15" stroke="#000000" stroke-linecap="round" stroke-linejoin="round" stroke-width="3.1845792040792436"/>
  <path d="M 66.52751758403255, 66.41803630859333 Q 68.34206939189522, 65.25719082097505, 71.69411914424064, 63.841228519698774 " fill="none" id="curve_17" stroke="#000000" stroke-linecap="round" stroke-linejoin="round" stroke-width="2.935686121809912"/>
  <path d="M 35.72076917268766, 57.21842153199308 Q 36.264878231064515, 56.54116895204529, 37.553941274533905, 55.694188274780366 " fill="none" id="curve_21" stroke="#000000" stroke-linecap="round" stroke-linejoin="round" stroke-width="2.310022368091768"/>
  <path d="M 47.148417381799305, 85.7866171830427 Q 48.9994200641324, 85.08639383171403, 50.86326589985835, 83.50989463575094 " fill="none" id="curve_55" stroke="#000000" stroke-linecap="round" stroke-linejoin="round" stroke-width="4.007592550718444"/>
  <path d="M 68.04742174291596, 65.41131374719464 Q 66.75287070847155, 66.24547826029108, 65.16848288565781, 68.00285797621001 " fill="none" id="curve_83" stroke="#000000" stroke-linecap="round" stroke-linejoin="round" stroke-width="2.955566692456485"/>
</svg>
