<?xml version="1.0" ?>
<svg height="140" width="140" xmlns="http://www.w3.org/2000/svg">
  <path d="M 26.75463628768921, 50.25170946121216 Q 20.447674799473628, 52.627962033278585, 16.33928050448276, 64.27442865453327 " fill="none" id="curve_1" stroke="#000000" stroke-linecap="round" stroke-linejoin="round" stroke-width="4.7352214019315815"/>
  <path d="M 42.119697658863274, 47.844976616930495 Q 42.46631018086163, 45.411352656748896, 49.673260119971545, 44.990382825185186 " fill="none" id="curve_2" stroke="#000000" stroke-linecap="round" stroke-linejoin="round" stroke-width="3.5445827313441365"/>
  <path d="M 49.673260119971545, 44.990382825185186 Q 51.72476452619233, 48.70232475780532, 53.43298084318803, 53.4458444191347 " fill="none" id="curve_2" stroke="#000000" stroke-linecap="round" stroke-linejoin="round" stroke-width="4.854673332470001"/>
  <path d="M 53.43298084318803, 53.4458444191347 Q 50.319432880718125, 64.62062905102243, 29.648900396180192, 84.33380651874842 " fill="none" id="curve_2" stroke="#000000" stroke-linecap="round" stroke-linejoin="round" stroke-width="4.794211324183681"/>
  <path d="M 29.648900396180192, 84.33380651874842 Q 26.10269161821076, 87.42573046939629, 24.129056484179525, 93.54153034239165 " fill="none" id="curve_2" stroke="#000000" stroke-linecap="round" stroke-linejoin="round" stroke-width="4.5628830950803945"/>
  <path d="M 24.129056484179525, 93.54153034239165 Q 30.745894053030387, 93.79888360100044, 33.20743301656296, 94.91341391563361 " fill="none" id="curve_2" stroke="#000000" stroke-linecap="round" stroke-linejoin="round" stroke-width="4.77368580578505"/>
  <path d="M 33.20743301656296, 94.91341391563361 Q 46.71399265343647, 92.11054490634127, 56.03685500977228, 86.28484630577705 " fill="none" id="curve_2" stroke="#000000" stroke-linecap="round" stroke-linejoin="round" stroke-width="4.008295835220228"/>
  <path d="M 27.874475474449916, 50.796817983178165 Q 29.74088820860119, 45.322317417185154, 43.22409742201558, 43.709168014652185 " fill="none" id="curve_3" stroke="#000000" stroke-linecap="round" stroke-linejoin="round" stroke-width="4.638261299508301"/>
  <path d="M 28.542859025301965, 47.936075053222936 Q 22.310206468925028, 51.604128089556816, 17.698695705262192, 58.73244579464864 " fill="none" id="curve_4" stroke="#000000" stroke-linecap="round" stroke-linejoin="round" stroke-width="3.992977832120249"/>
  <path d="M 17.698695705262192, 58.73244579464864 Q 22.551898245632362, 56.10760784190929, 25.701511746619943, 50.54424978281044 " fill="none" id="curve_4" stroke="#000000" stroke-linecap="round" stroke-linejoin="round" stroke-width="2.8596931018546425"/>
  <path d="M 46.097536791339735, 44.05476177873045 Q 49.18282647897962, 48.069631890486264, 54.77458436003594, 50.48012939128341 " fill="none" id="curve_5" stroke="#000000" stroke-linecap="round" stroke-linejoin="round" stroke-width="3.0413494566143773"/>
  <path d="M 41.24972957609446, 92.24345894490415 Q 35.11222307992801, 93.46910429439814, 28.141934228046274, 94.77170019734902 " fill="none" id="curve_7" stroke="#000000" stroke-linecap="round" stroke-linejoin="round" stroke-width="4.655042146041828"/>
  <path d="M 22.852410302549195, 91.42785090374886 Q 26.96263621220452, 93.93785835541084, 34.140511699642126, 96.52138547961118 " fill="none" id="curve_23" stroke="#000000" stroke-linecap="round" stroke-linejoin="round" stroke-width="3.171423270952264"/>
  <path d="M 47.67023310336961, 61.208820718519725 Q 46.40796622482754, 64.68186309693905, 42.932370556342434, 68.84946012068224 " fill="none" id="curve_24" stroke="#000000" stroke-linecap="round" stroke-linejoin="round" stroke-width="2.7733917656422538"/>
  <path d="M 29.839777870521075, 46.785465083193984 Q 30.47054048950093, 46.689686036992086, 31.898065459663123, 46.50833797400222 " fill="none" id="curve_25" stroke="#000000" stroke-linecap="round" stroke-linejoin="round" stroke-width="2.5047026401997083"/>
  <path d="M 27.494404925292656, 87.25373332504492 Q 28.35414085446803, 87.3737449004372, 29.7868030611642, 87.66629016114702 " fill="none" id="curve_66" stroke="#000000" stroke-linecap="round" stroke-linejoin="round" stroke-width="1.9780021536614163"/>
  <path d="M 37.98958371622686, 93.31693259641638 Q 35.052383883318136, 93.36340304371404, 29.632009790068906, 93.42461084447322 " fill="none" id="curve_83" stroke="#000000" stroke-linecap="round" stroke-linejoin="round" stroke-width="2.9895137058607606"/>
  <path d="M 39.38221433943838, 93.51482536633208 Q 34.674803109783525, 93.36713757128543, 28.527483124219422, 93.10005437797673 " fill="none" id="curve_99" stroke="#000000" stroke-linecap="round" stroke-linejoin="round" stroke-width="2.812559614951181"/>
  <path d="M 42.1284536588353, 91.6267031524342 Q 43.25489813502285, 90.97627003920864, 45.38177473002924, 90.39245766321494 " fill="none" id="curve_141" stroke="#000000" stroke-linecap="round" stroke-linejoin="round" stroke-width="2.898025281922128"/>
</svg>
