<?xml version="1.0" ?>
<svg height="140" width="140" xmlns="http://www.w3.org/2000/svg">
  <path d="M 53.33041000366211, 100.22282028198242 Q 53.12902503346329, 100.33080526854788, 45.8588153663693, 100.34205081518529 " fill="none" id="curve_1" stroke="#000000" stroke-linecap="round" stroke-linejoin="round" stroke-width="7.525223747171389"/>
  <path d="M 45.8588153663693, 100.34205081518529 Q 45.386552226324824, 101.74747533847125, 29.454034115168056, 101.84355334856428 " fill="none" id="curve_1" stroke="#000000" stroke-linecap="round" stroke-linejoin="round" stroke-width="5.74516098633678"/>
  <path d="M 29.454034115168056, 101.84355334856428 Q 15.135607801556922, 101.86359591485332, 9.586803216309672, 101.95651036411033 " fill="none" id="curve_1" stroke="#000000" stroke-linecap="round" stroke-linejoin="round" stroke-width="6.05647447124354"/>
  <path d="M 9.586803216309672, 101.95651036411033 Q 19.448724586578454, 96.21014561500317, 38.725213301507424, 77.503875742179 " fill="none" id="curve_1" stroke="#000000" stroke-linecap="round" stroke-linejoin="round" stroke-width="4.798914865749834"/>
  <path d="M 38.725213301507424, 77.503875742179 Q 44.640015026740876, 70.15385707325127, 50.98812837089919, 55.92072480580189 " fill="none" id="curve_1" stroke="#000000" stroke-linecap="round" stroke-linejoin="round" stroke-width="5.721832803305318"/>
  <path d="M 50.98812837089919, 55.92072480580189 Q 50.74535120143348, 41.53565078171825, 34.59850958812005, 40.75628432029898 " fill="none" id="curve_1" stroke="#000000" stroke-linecap="round" stroke-linejoin="round" stroke-width="4.97490069319216"/>
  <path d="M 34.59850958812005, 40.75628432029898 Q 25.632287617415926, 43.36587224580422, 23.330356570578683, 58.96329313431649 " fill="none" id="curve_1" stroke="#000000" stroke-linecap="round" stroke-linejoin="round" stroke-width="4.009886100482932"/>
  <path d="M 23.330356570578683, 58.96329313431649 Q 24.3847225106655, 58.70437699470795, 24.594934903391913, 55.33914061068633 " fill="none" id="curve_1" stroke="#000000" stroke-linecap="round" stroke-linejoin="round" stroke-width="3.898993282786799"/>
  <path d="M 28.22149676405748, 86.40059420315322 Q 21.14243069540622, 90.39502137774272, 14.744727553360372, 98.40650181619118 " fill="none" id="curve_2" stroke="#000000" stroke-linecap="round" stroke-linejoin="round" stroke-width="2.888227563892052"/>
  <path d="M 14.744727553360372, 98.40650181619118 Q 11.988701867142153, 101.40026908442775, 7.377729229515642, 103.75073094351124 " fill="none" id="curve_2" stroke="#000000" stroke-linecap="round" stroke-linejoin="round" stroke-width="3.6450571215835654"/>
  <path d="M 7.377729229515642, 103.75073094351124 Q 11.514918361881413, 101.35579585596331, 33.85834335184656, 100.55552075409283 " fill="none" id="curve_2" stroke="#000000" stroke-linecap="round" stroke-linejoin="round" stroke-width="4.174029647374411"/>
  <path d="M 52.907894493076725, 99.32246415817892 Q 52.306084441801396, 98.43376208009782, 50.800265632825806, 97.8769111668755 " fill="none" id="curve_3" stroke="#000000" stroke-linecap="round" stroke-linejoin="round" stroke-width="4.076871183415416"/>
  <path d="M 40.08811507312084, 71.95842662997381 Q 44.54578761766942, 68.59935485938546, 48.83148221563674, 62.98843665038008 " fill="none" id="curve_4" stroke="#000000" stroke-linecap="round" stroke-linejoin="round" stroke-width="3.5280013447728527"/>
  <path d="M 48.83148221563674, 62.98843665038008 Q 48.931859696399215, 50.70992381825477, 51.07686768087165, 49.241188983126996 " fill="none" id="curve_4" stroke="#000000" stroke-linecap="round" stroke-linejoin="round" stroke-width="2.7528138554931973"/>
  <path d="M 30.411149187432553, 44.173208658244015 Q 24.43291195020345, 46.439446818132886, 22.000805381068524, 55.55702168916548 " fill="none" id="curve_7" stroke="#000000" stroke-linecap="round" stroke-linejoin="round" stroke-width="2.9021393627602685"/>
  <path d="M 37.82539679353462, 39.504961177470875 Q 47.586270631222206, 40.8565668196529, 50.763773908925806, 49.35547242963659 " fill="none" id="curve_8" stroke="#000000" stroke-linecap="round" stroke-linejoin="round" stroke-width="2.460285400180239"/>
  <path d="M 39.84125949491022, 74.11545653693624 Q 34.55881322407714, 82.33936941364065, 21.797150484727705, 90.85205954429253 " fill="none" id="curve_9" stroke="#000000" stroke-linecap="round" stroke-linejoin="round" stroke-width="3.4122883392339305"/>
  <path d="M 16.973939450017323, 98.70277028030938 Q 22.48119635268599, 100.13127242199205, 34.30258760836736, 101.10933564679834 " fill="none" id="curve_10" stroke="#000000" stroke-linecap="round" stroke-linejoin="round" stroke-width="2.778548345400517"/>
  <path d="M 42.44599483483847, 42.01555583379566 Q 43.162638633927465, 47.49284558842505, 51.679037525792914, 48.240246696871836 " fill="none" id="curve_13" stroke="#000000" stroke-linecap="round" stroke-linejoin="round" stroke-width="2.7227618566728555"/>
  <path d="M 51.679037525792914, 48.240246696871836 Q 48.52675634993347, 58.25830738682623, 42.28299446847329, 69.84877702726942 " fill="none" id="curve_13" stroke="#000000" stroke-linecap="round" stroke-linejoin="round" stroke-width="2.288269489379847"/>
  <path d="M 42.28299446847329, 69.84877702726942 Q 44.942302948958364, 68.38028258615232, 48.300125865402755, 66.61088690159517 " fill="none" id="curve_13" stroke="#000000" stroke-linecap="round" stroke-linejoin="round" stroke-width="3.5645730823842583"/>
  <path d="M 23.68578270671364, 89.97089110389138 Q 29.946199461204127, 84.92476147284484, 38.2673885617298, 76.88178768358368 " fill="none" id="curve_20" stroke="#000000" stroke-linecap="round" stroke-linejoin="round" stroke-width="2.6387481530517434"/>
  <path d="M 49.59438438494287, 58.328994393772106 Q 49.35236012154924, 54.782740018628026, 48.90736286217618, 50.95633980149338 " fill="none" id="curve_21" stroke="#000000" stroke-linecap="round" stroke-linejoin="round" stroke-width="3.7170056190917284"/>
  <path d="M 89.1572926088179, 2.375154069641468 Q 89.56395989637792, 2.1564545407287827, 90.0257261139282, 1.6883739333743328 " fill="none" id="curve_36" stroke="#000000" stroke-linecap="round" stroke-linejoin="round" stroke-width="1.67249768496054"/>
  <path d="M 29.65164634818364, 100.25806260824376 Q 29.76251231044112, 100.00889077852848, 29.8945092915327, 99.58661780973281 " fill="none" id="curve_52" stroke="#000000" stroke-linecap="round" stroke-linejoin="round" stroke-width="3.821321485203524"/>
  <path d="M 24.62189544032664, 56.966986103318746 Q 24.83665182981836, 59.129216375421024, 25.97333694270604, 60.020475169396136 " fill="none" id="curve_53" stroke="#000000" stroke-linecap="round" stroke-linejoin="round" stroke-width="2.643819470483184"/>
  <path d="M 52.180254964243325, 102.30183986618457 Q 51.32289857422091, 101.8064636243499, 50.031683799191306, 101.28057197173287 " fill="none" id="curve_82" stroke="#000000" stroke-linecap="round" stroke-linejoin="round" stroke-width="4.148316461354458"/>
</svg>
