<?xml version="1.0" ?>
<svg height="140" width="140" xmlns="http://www.w3.org/2000/svg">
  <path d="M 61.06215286254883, 44.574928283691406 Q 60.09580883527112, 38.5844309557051, 52.82896579366935, 34.47739107177546 " fill="none" id="curve_1" stroke="#000000" stroke-linecap="round" stroke-linejoin="round" stroke-width="3.8242850440846303"/>
  <path d="M 52.82896579366935, 34.47739107177546 Q 42.063454336263845, 35.5578605775219, 31.308120156738266, 41.64701287929899 " fill="none" id="curve_1" stroke="#000000" stroke-linecap="round" stroke-linejoin="round" stroke-width="5.02872558069932"/>
  <path d="M 31.308120156738266, 41.64701287929899 Q 24.98106019279666, 44.44064660014282, 21.782553999517425, 51.67533225071845 " fill="none" id="curve_1" stroke="#000000" stroke-linecap="round" stroke-linejoin="round" stroke-width="3.9650456400140017"/>
  <path d="M 53.08193805915624, 71.31159067125714 Q 49.107497118558236, 78.8704443396396, 34.91510585377097, 98.41356796174264 " fill="none" id="curve_2" stroke="#000000" stroke-linecap="round" stroke-linejoin="round" stroke-width="5.846805477241476"/>
  <path d="M 34.91510585377097, 98.41356796174264 Q 29.078976483487395, 103.50234247511466, 24.58609172538487, 112.02710651134663 " fill="none" id="curve_2" stroke="#000000" stroke-linecap="round" stroke-linejoin="round" stroke-width="6.102107813909179"/>
  <path d="M 24.58609172538487, 112.02710651134663 Q 29.117148452905358, 116.74470336847241, 42.2173598947041, 118.35644887786617 " fill="none" id="curve_2" stroke="#000000" stroke-linecap="round" stroke-linejoin="round" stroke-width="5.200408273878837"/>
  <path d="M 42.2173598947041, 118.35644887786617 Q 56.27951192707653, 115.39957297893385, 72.27354389186965, 111.42483705347463 " fill="none" id="curve_2" stroke="#000000" stroke-linecap="round" stroke-linejoin="round" stroke-width="4.001631279663218"/>
  <path d="M 72.27354389186965, 111.42483705347463 Q 74.56917377270508, 111.40828654737575, 75.84288029117633, 111.36235648711558 " fill="none" id="curve_2" stroke="#000000" stroke-linecap="round" stroke-linejoin="round" stroke-width="3.9295146000628645"/>
  <path d="M 54.02882829354162, 68.35933849241502 Q 59.095887603079824, 64.80168397059722, 60.94097532904087, 45.3675216033011 " fill="none" id="curve_3" stroke="#000000" stroke-linecap="round" stroke-linejoin="round" stroke-width="5.3212267679579455"/>
  <path d="M 60.94097532904087, 45.3675216033011 Q 60.24044858852868, 37.36021825208884, 48.32998379345774, 35.846186567781714 " fill="none" id="curve_3" stroke="#000000" stroke-linecap="round" stroke-linejoin="round" stroke-width="2.9825499853516395"/>
  <path d="M 58.265947765406665, 59.71604951682366 Q 55.05505879593904, 67.04246987128475, 48.55070496218673, 74.85886879561973 " fill="none" id="curve_4" stroke="#000000" stroke-linecap="round" stroke-linejoin="round" stroke-width="3.268396809313648"/>
  <path d="M 48.55070496218673, 74.85886879561973 Q 44.72357649892742, 84.83061813839467, 30.973412757285697, 99.24451373425639 " fill="none" id="curve_4" stroke="#000000" stroke-linecap="round" stroke-linejoin="round" stroke-width="3.5004604475116876"/>
  <path d="M 48.98921771041398, 115.00762833833603 Q 53.430712069005956, 114.54527736556491, 57.112513500717554, 113.72985013516237 " fill="none" id="curve_5" stroke="#000000" stroke-linecap="round" stroke-linejoin="round" stroke-width="3.0739908274177092"/>
  <path d="M 52.134159188142824, 74.27122467480838 Q 55.709978387403716, 65.17445629725627, 61.167729929066404, 49.498940962213084 " fill="none" id="curve_8" stroke="#000000" stroke-linecap="round" stroke-linejoin="round" stroke-width="3.253072683541376"/>
  <path d="M 61.167729929066404, 49.498940962213084 Q 60.20698152454008, 49.54907684158421, 59.09084509015397, 49.638414704665074 " fill="none" id="curve_8" stroke="#000000" stroke-linecap="round" stroke-linejoin="round" stroke-width="4.24241044202797"/>
  <path d="M 38.24677081063663, 93.9784864483226 Q 43.99142421730984, 89.9417714090989, 49.07702173414675, 79.90444567132889 " fill="none" id="curve_12" stroke="#000000" stroke-linecap="round" stroke-linejoin="round" stroke-width="2.680628449947373"/>
  <path d="M 49.07702173414675, 79.90444567132889 Q 54.17163555275965, 71.7803723095164, 61.135397114529106, 50.79977659314655 " fill="none" id="curve_12" stroke="#000000" stroke-linecap="round" stroke-linejoin="round" stroke-width="2.595533242499868"/>
  <path d="M 44.680170173871346, 35.06520252451124 Q 41.331039575024434, 36.326756892990716, 36.08270611212038, 38.211359298592846 " fill="none" id="curve_15" stroke="#000000" stroke-linecap="round" stroke-linejoin="round" stroke-width="2.6871750435956305"/>
  <path d="M 3.2641708171890187, 2.6599585342873766 Q 2.1596666044854205, 2.68917835513812, 1.091371279568988, 2.7525349484790747 " fill="none" id="curve_16" stroke="#000000" stroke-linecap="round" stroke-linejoin="round" stroke-width="3.5215042165858903"/>
  <path d="M 53.44319496712724, 69.82216059727861 Q 57.04421800006856, 61.923332263222015, 62.45521580155081, 48.43966641022348 " fill="none" id="curve_26" stroke="#000000" stroke-linecap="round" stroke-linejoin="round" stroke-width="2.652848992549017"/>
  <path d="M 58.39295137522663, 38.770874474190805 Q 58.4194715021419, 37.18218859392804, 58.56382832894233, 36.44133196652375 " fill="none" id="curve_31" stroke="#000000" stroke-linecap="round" stroke-linejoin="round" stroke-width="2.9539891244164056"/>
  <path d="M 46.44218760186647, 37.142398380182954 Q 45.148503557643345, 36.567723929692725, 43.10670278396533, 35.915682326612476 " fill="none" id="curve_36" stroke="#000000" stroke-linecap="round" stroke-linejoin="round" stroke-width="4.276125121743962"/>
  <path d="M 53.93946932871202, 71.66066947022631 Q 56.36114949089022, 62.441188443795106, 60.57015642849774, 50.14557596929933 " fill="none" id="curve_55" stroke="#000000" stroke-linecap="round" stroke-linejoin="round" stroke-width="2.573237810661598"/>
  <path d="M 52.12480798529291, 116.66549847561012 Q 52.02613316616666, 117.49072954226507, 51.04187861086004, 117.68761790241007 " fill="none" id="curve_60" stroke="#000000" stroke-linecap="round" stroke-linejoin="round" stroke-width="3.932861608284177"/>
  <path d="M 23.028366041547805, 47.91026097043647 Q 22.440500375067497, 48.9975320534194, 21.499291647230205, 50.485218359073905 " fill="none" id="curve_70" stroke="#000000" stroke-linecap="round" stroke-linejoin="round" stroke-width="2.792184161476131"/>
  <path d="M 40.16285150973272, 96.05506069647959 Q 31.133345780260488, 98.2123926501492, 24.43836524438845, 105.65173285109981 " fill="none" id="curve_85" stroke="#000000" stroke-linecap="round" stroke-linejoin="round" stroke-width="2.392726631697299"/>
  <path d="M 49.56878916452814, 116.00182033446862 Q 48.665902093410544, 116.34904828553204, 46.22497902357506, 116.62861861055858 " fill="none" id="curve_100" stroke="#000000" stroke-linecap="round" stroke-linejoin="round" stroke-width="3.6775076037347847"/>
  <path d="M 60.675332701123466, 56.267261263069074 Q 60.225478822947544, 54.14558001817, 59.496523434175224, 51.43759876726134 " fill="none" id="curve_102" stroke="#000000" stroke-linecap="round" stroke-linejoin="round" stroke-width="3.6586875019996508"/>
  <path d="M 41.52339647290455, 35.39740479074752 Q 41.12407067958426, 35.896781541116056, 40.135494753163314, 36.672536512729536 " fill="none" id="curve_126" stroke="#000000" stroke-linecap="round" stroke-linejoin="round" stroke-width="2.4232451931679058"/>
  <path d="M 58.42493196931012, 48.84063792311144 Q 59.163439297682594, 48.766845039449926, 59.78840628218198, 48.53636684718049 " fill="none" id="curve_128" stroke="#000000" stroke-linecap="round" stroke-linejoin="round" stroke-width="3.163315313842827"/>
  <path d="M 50.7347094641915, 118.22933676847798 Q 48.244883333855405, 117.94136362145015, 44.105409274473914, 117.61050301064982 " fill="none" id="curve_170" stroke="#000000" stroke-linecap="round" stroke-linejoin="round" stroke-width="2.9097059881184313"/>
</svg>
