<?xml version="1.0" ?>
<svg height="140" width="140" xmlns="http://www.w3.org/2000/svg">
  <path d="M 40.46910095214844, 37.13446235656738 Q 40.2879070480833, 35.73954742837028, 35.24804368683678, 35.54427282978962 " fill="none" id="curve_1" stroke="#000000" stroke-linecap="round" stroke-linejoin="round" stroke-width="8.547364291341678"/>
  <path d="M 35.24804368683678, 35.54427282978962 Q 22.651195787740733, 36.41962682556834, 20.123867299334428, 51.760080231113065 " fill="none" id="curve_1" stroke="#000000" stroke-linecap="round" stroke-linejoin="round" stroke-width="5.10644463968613"/>
  <path d="M 20.123867299334428, 51.760080231113065 Q 20.204027557004487, 55.11153622456111, 20.88046618202817, 55.85001685907246 " fill="none" id="curve_1" stroke="#000000" stroke-linecap="round" stroke-linejoin="round" stroke-width="4.724129363068252"/>
  <path d="M 52.22572491360642, 45.52563202418469 Q 50.33131450170766, 62.55161600560335, 33.060915039590334, 85.23435511580578 " fill="none" id="curve_2" stroke="#000000" stroke-linecap="round" stroke-linejoin="round" stroke-width="5.438252247042165"/>
  <path d="M 33.060915039590334, 85.23435511580578 Q 29.738040822425358, 91.27273227534361, 26.074023098645213, 97.6758488142332 " fill="none" id="curve_2" stroke="#000000" stroke-linecap="round" stroke-linejoin="round" stroke-width="5.570955888488013"/>
  <path d="M 26.074023098645213, 97.6758488142332 Q 42.048704518791446, 96.93740388975422, 52.76995192425643, 95.4147221315882 " fill="none" id="curve_2" stroke="#000000" stroke-linecap="round" stroke-linejoin="round" stroke-width="6.728653433552523"/>
  <path d="M 52.76995192425643, 95.4147221315882 Q 55.60738184010356, 97.24723650106634, 60.3332940600124, 98.50828215734316 " fill="none" id="curve_2" stroke="#000000" stroke-linecap="round" stroke-linejoin="round" stroke-width="7.347778088337392"/>
  <path d="M 48.86036170756529, 41.09358869132912 Q 46.58007881220257, 37.86041773043565, 40.69764621115701, 35.20305204137538 " fill="none" id="curve_4" stroke="#000000" stroke-linecap="round" stroke-linejoin="round" stroke-width="4.932282540434808"/>
  <path d="M 40.69764621115701, 35.20305204137538 Q 46.77160760421156, 40.82079186117424, 51.95251034674277, 47.15312502092835 " fill="none" id="curve_4" stroke="#000000" stroke-linecap="round" stroke-linejoin="round" stroke-width="3.596982616632445"/>
  <path d="M 51.95251034674277, 47.15312502092835 Q 49.95395386202351, 61.55191662213693, 35.85572872487961, 76.91461910907464 " fill="none" id="curve_4" stroke="#000000" stroke-linecap="round" stroke-linejoin="round" stroke-width="3.703735885408566"/>
  <path d="M 50.05961084944821, 93.7322910482647 Q 37.36434342457897, 94.49642232178306, 29.876882009133418, 96.89726602734427 " fill="none" id="curve_5" stroke="#000000" stroke-linecap="round" stroke-linejoin="round" stroke-width="3.2687009756716288"/>
  <path d="M 44.64514433190417, 64.70179441017038 Q 49.98173798977167, 60.730624603757136, 52.69189855335857, 48.7607535891597 " fill="none" id="curve_6" stroke="#000000" stroke-linecap="round" stroke-linejoin="round" stroke-width="3.5745471887564038"/>
  <path d="M 52.69189855335857, 48.7607535891597 Q 50.02203332759446, 58.56857440344589, 40.43384297013519, 69.33186615663944 " fill="none" id="curve_6" stroke="#000000" stroke-linecap="round" stroke-linejoin="round" stroke-width="2.894585771966343"/>
  <path d="M 52.26224963441645, 41.72675511360678 Q 50.419688153131375, 53.709550491043956, 45.880785150376454, 64.57626316688643 " fill="none" id="curve_7" stroke="#000000" stroke-linecap="round" stroke-linejoin="round" stroke-width="2.8263833044030258"/>
  <path d="M 24.876797473317193, 96.90401253101278 Q 30.830208106179516, 88.8472660469709, 40.013287481963985, 76.88244364733873 " fill="none" id="curve_9" stroke="#000000" stroke-linecap="round" stroke-linejoin="round" stroke-width="3.185454472777575"/>
  <path d="M 40.013287481963985, 76.88244364733873 Q 33.76060218517696, 83.6122276530256, 24.705130424502634, 94.8041689870789 " fill="none" id="curve_9" stroke="#000000" stroke-linecap="round" stroke-linejoin="round" stroke-width="3.0402387050265656"/>
  <path d="M 44.93605349603534, 61.13930314016137 Q 50.42473338389342, 60.20474001351443, 52.55201897135067, 54.965751442202354 " fill="none" id="curve_25" stroke="#000000" stroke-linecap="round" stroke-linejoin="round" stroke-width="3.289087228867414"/>
  <path d="M 33.520235151052475, 89.58476638793945 Q 33.90379662749699, 82.3218557925634, 36.3564638370442, 78.52017938712834 " fill="none" id="curve_39" stroke="#000000" stroke-linecap="round" stroke-linejoin="round" stroke-width="3.1839699615943573"/>
  <path d="M 60.65639946692407, 96.33006206804896 Q 60.6302752904209, 96.32420086686099, 60.60158215012066, 96.31190029211128 " fill="none" id="curve_40" stroke="#000000" stroke-linecap="round" stroke-linejoin="round" stroke-width="3.4046526908381454"/>
  <path d="M 40.83984620925446, 34.22164798600079 Q 39.97758075485005, 33.96074866015763, 37.64055191413874, 33.7056176530063 " fill="none" id="curve_59" stroke="#000000" stroke-linecap="round" stroke-linejoin="round" stroke-width="3.365438737001125"/>
  <path d="M 58.45865544742679, 98.44733425985496 Q 59.759632534881824, 97.9579987058946, 60.59752239643858, 96.55811564473639 " fill="none" id="curve_74" stroke="#000000" stroke-linecap="round" stroke-linejoin="round" stroke-width="4.424611658643804"/>
  <path d="M 59.21976398848771, 96.48226698317211 Q 60.31740049853944, 96.48938922522119, 61.35964693395111, 96.50812099641217 " fill="none" id="curve_103" stroke="#000000" stroke-linecap="round" stroke-linejoin="round" stroke-width="3.255248198395061"/>
  <path d="M 31.464317321777344, 89.13097286224365 Q 33.43904260765031, 85.6261276461649, 35.82666558851531, 80.79019445874303 " fill="none" id="curve_143" stroke="#000000" stroke-linecap="round" stroke-linejoin="round" stroke-width="4.665169506882903"/>
</svg>
