<?xml version="1.0" ?>
<svg height="140" width="140" xmlns="http://www.w3.org/2000/svg">
  <path d="M 56.233206433197374, 96.47428421040937 Q 46.54402014359819, 96.85370128337898, 33.84167632614053, 97.35092426216018 " fill="none" id="curve_3" stroke="#000000" stroke-linecap="round" stroke-linejoin="round" stroke-width="6.004435959483211"/>
  <path d="M 33.84167632614053, 97.35092426216018 Q 27.127652686332887, 96.60772582380908, 24.55024412911207, 93.3618411545354 " fill="none" id="curve_3" stroke="#000000" stroke-linecap="round" stroke-linejoin="round" stroke-width="4.836322965849601"/>
  <path d="M 24.55024412911207, 93.3618411545354 Q 25.874587025780645, 73.65633539232928, 38.1923991150789, 55.700968053375945 " fill="none" id="curve_3" stroke="#000000" stroke-linecap="round" stroke-linejoin="round" stroke-width="5.800923266870798"/>
  <path d="M 38.1923991150789, 55.700968053375945 Q 42.76698372561994, 47.51747074788357, 48.15586528498676, 30.565731726422417 " fill="none" id="curve_3" stroke="#000000" stroke-linecap="round" stroke-linejoin="round" stroke-width="5.433356788348774"/>
  <path d="M 48.15586528498676, 30.565731726422417 Q 30.918751464195946, 31.220349699624723, 27.482128638327065, 37.96378684649824 " fill="none" id="curve_3" stroke="#000000" stroke-linecap="round" stroke-linejoin="round" stroke-width="3.8563908019898014"/>
  <path d="M 27.482128638327065, 37.96378684649824 Q 33.12355936769909, 31.977193202926426, 46.5802809811787, 27.943569037674067 " fill="none" id="curve_3" stroke="#000000" stroke-linecap="round" stroke-linejoin="round" stroke-width="4.187480665342842"/>
  <path d="M 41.43046252658605, 45.51068383385339 Q 35.65803140535443, 56.8829709045389, 25.010561431210455, 78.31146134119925 " fill="none" id="curve_4" stroke="#000000" stroke-linecap="round" stroke-linejoin="round" stroke-width="2.806823627351518"/>
  <path d="M 25.010561431210455, 78.31146134119925 Q 24.221709064150517, 80.96399572583394, 23.690961648584572, 86.69912508001042 " fill="none" id="curve_4" stroke="#000000" stroke-linecap="round" stroke-linejoin="round" stroke-width="3.722097117733016"/>
  <path d="M 51.61626421627497, 95.66447360803323 Q 48.78779412794269, 95.87385268585491, 44.96812719010596, 96.15141430992455 " fill="none" id="curve_5" stroke="#000000" stroke-linecap="round" stroke-linejoin="round" stroke-width="4.684816036207644"/>
  <path d="M 43.03603263168513, 97.64541422185928 Q 34.40787739148605, 96.78039122849218, 25.029573961627086, 94.64420401125467 " fill="none" id="curve_7" stroke="#000000" stroke-linecap="round" stroke-linejoin="round" stroke-width="3.334592347176025"/>
  <path d="M 34.27221284622294, 65.46373519863857 Q 34.97403269200185, 64.8244632792591, 35.595088832766024, 62.28168586737506 " fill="none" id="curve_35" stroke="#000000" stroke-linecap="round" stroke-linejoin="round" stroke-width="2.4582947339372447"/>
  <path d="M 25.023822749257455, 38.24182128690314 Q 26.75421138319718, 37.07393538247692, 29.32247739785087, 35.11383464919204 " fill="none" id="curve_36" stroke="#000000" stroke-linecap="round" stroke-linejoin="round" stroke-width="2.292665050247526"/>
  <path d="M 40.931917506656866, 31.159943435237636 Q 41.003541247905105, 29.470153521529284, 41.3689858940008, 28.58410509875426 " fill="none" id="curve_44" stroke="#000000" stroke-linecap="round" stroke-linejoin="round" stroke-width="3.8796482134177688"/>
  <path d="M 49.720842520090144, 98.22041888682404 Q 47.07949493441608, 97.92858584759762, 42.6313968320932, 97.45433266103215 " fill="none" id="curve_46" stroke="#000000" stroke-linecap="round" stroke-linejoin="round" stroke-width="3.997120982710497"/>
  <path d="M 47.985294757643715, 39.171803018534774 Q 44.419541672634416, 42.20558978766177, 39.80717757364461, 45.65786543141056 " fill="none" id="curve_61" stroke="#000000" stroke-linecap="round" stroke-linejoin="round" stroke-width="4.359588735199521"/>
  <path d="M 35.868075015185205, 30.209841512545527 Q 37.63229678876519, 29.110917518716533, 43.3868577957871, 28.43273872264433 " fill="none" id="curve_62" stroke="#000000" stroke-linecap="round" stroke-linejoin="round" stroke-width="2.5957311469919904"/>
  <path d="M 41.87464685133625, 42.93739453852798 Q 43.35973859869298, 43.392453168295475, 44.960074944100455, 44.331123942887935 " fill="none" id="curve_77" stroke="#000000" stroke-linecap="round" stroke-linejoin="round" stroke-width="4.241789630437581"/>
  <path d="M 27.413089428102186, 74.3516739508023 Q 25.00126659322355, 76.70826082096292, 23.044894058326214, 81.63371211710717 " fill="none" id="curve_78" stroke="#000000" stroke-linecap="round" stroke-linejoin="round" stroke-width="3.0082456116520757"/>
  <path d="M 37.483862530570136, 99.17469158814308 Q 36.27836412001197, 98.60999533757271, 35.29131853459175, 97.34632088898864 " fill="none" id="curve_133" stroke="#000000" stroke-linecap="round" stroke-linejoin="round" stroke-width="3.7642793958209055"/>
</svg>
