<?xml version="1.0" ?>
<svg height="140" width="140" xmlns="http://www.w3.org/2000/svg">
  <path d="M 54.48219096660614, 44.984463691711426 Q 50.57426076289882, 44.24034232796167, 47.275417698627734, 41.5529663627583 " fill="none" id="curve_1" stroke="#000000" stroke-linecap="round" stroke-linejoin="round" stroke-width="5.10907538446793"/>
  <path d="M 47.275417698627734, 41.5529663627583 Q 42.62203845115759, 45.765636733401394, 39.08484205107027, 52.71559850456273 " fill="none" id="curve_1" stroke="#000000" stroke-linecap="round" stroke-linejoin="round" stroke-width="5.1312749087795915"/>
  <path d="M 48.82749375916367, 45.65272642703437 Q 57.278991363007336, 47.5520042330086, 58.659122206777916, 61.68715874973985 " fill="none" id="curve_2" stroke="#000000" stroke-linecap="round" stroke-linejoin="round" stroke-width="5.90051692981038"/>
  <path d="M 58.659122206777916, 61.68715874973985 Q 57.48351166111152, 76.74991304720929, 47.74789678039576, 92.09315757741837 " fill="none" id="curve_2" stroke="#000000" stroke-linecap="round" stroke-linejoin="round" stroke-width="5.55980271573537"/>
  <path d="M 47.74789678039576, 92.09315757741837 Q 31.921832722241664, 93.2463550919151, 28.29813355514446, 106.9900704417744 " fill="none" id="curve_2" stroke="#000000" stroke-linecap="round" stroke-linejoin="round" stroke-width="4.954742182296529"/>
  <path d="M 28.29813355514446, 106.9900704417744 Q 28.373697064364297, 112.08373872431166, 31.159079093012267, 112.41817206388514 " fill="none" id="curve_2" stroke="#000000" stroke-linecap="round" stroke-linejoin="round" stroke-width="4.306125265472435"/>
  <path d="M 31.159079093012267, 112.41817206388514 Q 41.29824982432845, 109.89879545747479, 44.881783654083, 95.54313967129168 " fill="none" id="curve_2" stroke="#000000" stroke-linecap="round" stroke-linejoin="round" stroke-width="5.547502667326717"/>
  <path d="M 44.881783654083, 95.54313967129168 Q 54.30117585576236, 103.77777951859474, 74.09724222989041, 109.24354421478554 " fill="none" id="curve_2" stroke="#000000" stroke-linecap="round" stroke-linejoin="round" stroke-width="5.794547408449519"/>
  <path d="M 74.09724222989041, 109.24354421478554 Q 75.49601247942627, 109.31445438220682, 76.41360235234373, 109.4718567919912 " fill="none" id="curve_2" stroke="#000000" stroke-linecap="round" stroke-linejoin="round" stroke-width="4.3127610893313095"/>
  <path d="M 76.41360235234373, 109.4718567919912 Q 57.685057530825006, 106.2721814076046, 43.32608366778936, 94.12558862424831 " fill="none" id="curve_2" stroke="#000000" stroke-linecap="round" stroke-linejoin="round" stroke-width="3.237199766967618"/>
  <path d="M 36.81765402431433, 106.787510087675 Q 42.28328364044193, 104.79962017395614, 44.159256669090475, 96.02955755791125 " fill="none" id="curve_3" stroke="#000000" stroke-linecap="round" stroke-linejoin="round" stroke-width="3.745328291487991"/>
  <path d="M 40.52908668348191, 54.605940817690545 Q 40.62516929784623, 54.40248300706283, 40.725080643536174, 53.989596282885344 " fill="none" id="curve_5" stroke="#000000" stroke-linecap="round" stroke-linejoin="round" stroke-width="4.177699906867955"/>
  <path d="M 42.93543028334274, 95.42441442051341 Q 42.74286983329294, 97.06286218644655, 42.38223430767852, 100.09470215976475 " fill="none" id="curve_7" stroke="#000000" stroke-linecap="round" stroke-linejoin="round" stroke-width="3.055745861845458"/>
  <path d="M 57.706963075487856, 58.3300433288834 Q 56.37309777798068, 71.79592519654143, 52.555970562018366, 82.19948416191568 " fill="none" id="curve_9" stroke="#000000" stroke-linecap="round" stroke-linejoin="round" stroke-width="2.8974238095219595"/>
  <path d="M 69.94200539755745, 107.87145291667008 Q 62.920048823081196, 104.71664464552076, 48.810736896404194, 98.29971874593419 " fill="none" id="curve_29" stroke="#000000" stroke-linecap="round" stroke-linejoin="round" stroke-width="2.7511005338251566"/>
  <path d="M 58.25066238832763, 73.97886525282226 Q 52.85284672068626, 78.43252325837022, 47.89698193610074, 87.88871062195818 " fill="none" id="curve_30" stroke="#000000" stroke-linecap="round" stroke-linejoin="round" stroke-width="2.9697904435494413"/>
  <path d="M 36.858249307613114, 93.5526575964048 Q 35.74489418919844, 93.724008543998, 32.61718373812397, 93.93954857374679 " fill="none" id="curve_33" stroke="#000000" stroke-linecap="round" stroke-linejoin="round" stroke-width="3.219578268533079"/>
  <path d="M 53.93533446458227, 49.27556089117137 Q 55.79760206682559, 52.68864312803243, 57.11397991339456, 62.95623914640433 " fill="none" id="curve_34" stroke="#000000" stroke-linecap="round" stroke-linejoin="round" stroke-width="3.1515340138211174"/>
  <path d="M 51.69361056043972, 101.62128558295896 Q 60.660821728842066, 104.5897817044119, 70.8151145942557, 108.76196858616308 " fill="none" id="curve_45" stroke="#000000" stroke-linecap="round" stroke-linejoin="round" stroke-width="3.5387913727429674"/>
  <path d="M 53.4823530388165, 101.58210213366974 Q 58.27407134808509, 105.66328519134457, 71.19768388934247, 108.22784954576383 " fill="none" id="curve_46" stroke="#000000" stroke-linecap="round" stroke-linejoin="round" stroke-width="3.408384414772275"/>
  <path d="M 27.539582760375083, 113.2341832674138 Q 28.198955920678774, 112.46792240086327, 28.823169494018444, 109.91446507238267 " fill="none" id="curve_52" stroke="#000000" stroke-linecap="round" stroke-linejoin="round" stroke-width="3.029029295372817"/>
  <path d="M 48.78286403371399, 43.698491601810346 Q 49.39535937398183, 42.67197558588868, 50.546291117228826, 41.15623712682031 " fill="none" id="curve_58" stroke="#000000" stroke-linecap="round" stroke-linejoin="round" stroke-width="3.6711660446317484"/>
  <path d="M 43.060295876199234, 95.17071752744181 Q 41.699121876000575, 102.50389004300241, 38.80970450195168, 110.0046734033832 " fill="none" id="curve_60" stroke="#000000" stroke-linecap="round" stroke-linejoin="round" stroke-width="2.881541079398506"/>
  <path d="M 57.78816563824462, 104.1932439265471 Q 70.03717845398948, 104.44277505621821, 70.9800795312401, 110.0422671781631 " fill="none" id="curve_62" stroke="#000000" stroke-linecap="round" stroke-linejoin="round" stroke-width="3.1547389228321365"/>
  <path d="M 70.9800795312401, 110.0422671781631 Q 69.42094656277577, 105.38377618042847, 57.199017908472264, 103.1454179151071 " fill="none" id="curve_62" stroke="#000000" stroke-linecap="round" stroke-linejoin="round" stroke-width="3.6720034314100327"/>
  <path d="M 57.199017908472264, 103.1454179151071 Q 69.21412212390337, 103.69544795241947, 72.75205568764831, 107.92626511656843 " fill="none" id="curve_62" stroke="#000000" stroke-linecap="round" stroke-linejoin="round" stroke-width="2.8585942177405363"/>
  <path d="M 72.75205568764831, 107.92626511656843 Q 54.41558456839478, 107.21453792130936, 50.30326270261912, 99.17136399270548 " fill="none" id="curve_62" stroke="#000000" stroke-linecap="round" stroke-linejoin="round" stroke-width="3.0905550355342006"/>
  <path d="M 50.30326270261912, 99.17136399270548 Q 50.15388123825606, 96.04610450560234, 48.088684113314024, 95.5521686902131 " fill="none" id="curve_62" stroke="#000000" stroke-linecap="round" stroke-linejoin="round" stroke-width="3.263224944601244"/>
  <path d="M 55.187994686890534, 52.09995039032925 Q 55.165177815257636, 49.97037922600398, 55.10186369750056, 48.60973246818112 " fill="none" id="curve_129" stroke="#000000" stroke-linecap="round" stroke-linejoin="round" stroke-width="4.566228621528015"/>
  <path d="M 38.9904241971328, 49.819805885781285 Q 39.39123539905338, 49.265159579504, 40.12538151191813, 48.23486514225268 " fill="none" id="curve_149" stroke="#000000" stroke-linecap="round" stroke-linejoin="round" stroke-width="2.7358306505675865"/>
</svg>
