<?xml version="1.0" ?>
<svg height="140" width="140" xmlns="http://www.w3.org/2000/svg">
  <path d="M 54.76385498046875, 51.048980712890625 Q 54.15129704743306, 61.8478639023223, 43.64730978436501, 69.09159278314496 " fill="none" id="curve_1" stroke="#000000" stroke-linecap="round" stroke-linejoin="round" stroke-width="4.875089544822437"/>
  <path d="M 43.64730978436501, 69.09159278314496 Q 37.73919117203201, 75.14853538457942, 25.89012416299633, 88.31191369870194 " fill="none" id="curve_1" stroke="#000000" stroke-linecap="round" stroke-linejoin="round" stroke-width="4.88304006631735"/>
  <path d="M 25.89012416299633, 88.31191369870194 Q 27.111400601420314, 100.32999474704377, 47.690234605273275, 102.311510968265 " fill="none" id="curve_1" stroke="#000000" stroke-linecap="round" stroke-linejoin="round" stroke-width="6.234313495118051"/>
  <path d="M 47.690234605273275, 102.311510968265 Q 55.94420588178534, 101.80258538198741, 64.73020706195322, 101.13360373214026 " fill="none" id="curve_1" stroke="#000000" stroke-linecap="round" stroke-linejoin="round" stroke-width="4.349689659221902"/>
  <path d="M 35.42968993679426, 98.44664100522739 Q 31.479542506445963, 96.6048371378402, 26.852154813566745, 94.56380006206557 " fill="none" id="curve_2" stroke="#000000" stroke-linecap="round" stroke-linejoin="round" stroke-width="5.286309546412315"/>
  <path d="M 51.097010374579355, 61.47203832262798 Q 53.20627773804446, 57.09001806145076, 56.316955905711445, 53.15257672541002 " fill="none" id="curve_3" stroke="#000000" stroke-linecap="round" stroke-linejoin="round" stroke-width="4.498152936426781"/>
  <path d="M 56.316955905711445, 53.15257672541002 Q 55.485645525881495, 41.09163548630905, 37.22804056175388, 38.78554762834583 " fill="none" id="curve_3" stroke="#000000" stroke-linecap="round" stroke-linejoin="round" stroke-width="5.2902136186573"/>
  <path d="M 37.22804056175388, 38.78554762834583 Q 17.36291954824757, 39.262170187660686, 11.915556664160373, 47.90773199266749 " fill="none" id="curve_3" stroke="#000000" stroke-linecap="round" stroke-linejoin="round" stroke-width="4.998259119784995"/>
  <path d="M 11.915556664160373, 47.90773199266749 Q 11.768179082404684, 50.96012705754618, 11.369889241050949, 52.46083478860507 " fill="none" id="curve_3" stroke="#000000" stroke-linecap="round" stroke-linejoin="round" stroke-width="5.452218419910001"/>
  <path d="M 34.11477561663416, 38.801668266751236 Q 13.004486399588988, 39.474743859211046, 9.440173760134858, 51.155660989249945 " fill="none" id="curve_4" stroke="#000000" stroke-linecap="round" stroke-linejoin="round" stroke-width="2.971946557262279"/>
  <path d="M 28.01966329535497, 38.27144406010369 Q 32.51510317495124, 38.12731727368519, 40.00457220875076, 37.97472587751948 " fill="none" id="curve_5" stroke="#000000" stroke-linecap="round" stroke-linejoin="round" stroke-width="2.547848255912447"/>
  <path d="M 56.4070750170017, 55.346696578585764 Q 51.72115116484737, 60.20065942815631, 46.06385981824935, 66.2233331791941 " fill="none" id="curve_6" stroke="#000000" stroke-linecap="round" stroke-linejoin="round" stroke-width="2.753282127245011"/>
  <path d="M 53.07827190026205, 47.72832334878053 Q 53.739466432527166, 49.68910123674772, 54.4942748844023, 52.07494254108214 " fill="none" id="curve_7" stroke="#000000" stroke-linecap="round" stroke-linejoin="round" stroke-width="3.263955322364564"/>
  <path d="M 27.989602199619846, 88.4379834883469 Q 27.753868885469934, 91.6239866680378, 26.91805541264877, 93.4749248518199 " fill="none" id="curve_8" stroke="#000000" stroke-linecap="round" stroke-linejoin="round" stroke-width="3.21469798556623"/>
  <path d="M 26.91805541264877, 93.4749248518199 Q 27.126804222986934, 93.56836283615449, 27.392719226019203, 93.71749175562333 " fill="none" id="curve_8" stroke="#000000" stroke-linecap="round" stroke-linejoin="round" stroke-width="4.456007003811622"/>
  <path d="M 28.61452921461592, 92.94345723538095 Q 27.429081227224106, 93.079114564558, 25.906218227594074, 93.32679033660757 " fill="none" id="curve_15" stroke="#000000" stroke-linecap="round" stroke-linejoin="round" stroke-width="3.8741001348700905"/>
  <path d="M 28.437476334689322, 38.05581281381497 Q 20.888209575056138, 39.44635877323748, 15.994387129944789, 43.84102424997706 " fill="none" id="curve_17" stroke="#000000" stroke-linecap="round" stroke-linejoin="round" stroke-width="2.5164898300655887"/>
  <path d="M 88.72735155119935, 7.371972229205674 Q 88.66479868661008, 3.5284321112470223, 88.20665761673747, 2.030592955861165 " fill="none" id="curve_19" stroke="#000000" stroke-linecap="round" stroke-linejoin="round" stroke-width="3.2864168326579"/>
  <path d="M 88.20665761673747, 2.030592955861165 Q 87.72944896521298, 1.926111818702698, 87.1126586846474, 1.7801370978677786 " fill="none" id="curve_19" stroke="#000000" stroke-linecap="round" stroke-linejoin="round" stroke-width="4.06949733940165"/>
  <path d="M 87.59264823895984, 1.7792803794456384 Q 88.70128291752273, 1.885716800229934, 89.66184553848868, 2.2165747655813304 " fill="none" id="curve_30" stroke="#000000" stroke-linecap="round" stroke-linejoin="round" stroke-width="2.172726126344483"/>
  <path d="M 29.60602753438742, 92.75732298436206 Q 31.55168139814012, 95.29100791486108, 35.500767869698194, 98.66812574217724 " fill="none" id="curve_51" stroke="#000000" stroke-linecap="round" stroke-linejoin="round" stroke-width="2.5923541938188763"/>
  <path d="M 86.09525109259314, 2.4140211013620387 Q 86.10458564579461, 1.7544802206527454, 86.16081788802812, 1.490011424707725 " fill="none" id="curve_164" stroke="#000000" stroke-linecap="round" stroke-linejoin="round" stroke-width="2.062169881070067"/>
</svg>
