<?xml version="1.0" ?>
<svg height="140" width="140" xmlns="http://www.w3.org/2000/svg">
  <path d="M 30.925729751586914, 29.51312828063965 Q 24.31588607717146, 31.415496884024265, 16.259719883515572, 39.00605076658741 " fill="none" id="curve_1" stroke="#000000" stroke-linecap="round" stroke-linejoin="round" stroke-width="7.83312355141294"/>
  <path d="M 16.259719883515572, 39.00605076658741 Q 17.08660143768838, 45.1574770833018, 20.611765321708877, 47.42613136496559 " fill="none" id="curve_1" stroke="#000000" stroke-linecap="round" stroke-linejoin="round" stroke-width="3.754214479118392"/>
  <path d="M 20.611765321708877, 47.42613136496559 Q 21.187475545417954, 28.733184566525757, 34.45068071273875, 23.790716172661675 " fill="none" id="curve_1" stroke="#000000" stroke-linecap="round" stroke-linejoin="round" stroke-width="4.417005127584929"/>
  <path d="M 34.45068071273875, 23.790716172661675 Q 55.886066181361805, 24.04716262504409, 56.90879615333708, 42.2391906839173 " fill="none" id="curve_1" stroke="#000000" stroke-linecap="round" stroke-linejoin="round" stroke-width="5.392004599098183"/>
  <path d="M 56.90879615333708, 42.2391906839173 Q 56.67324717530148, 72.7100930228014, 47.9121423711717, 79.49516811406895 " fill="none" id="curve_1" stroke="#000000" stroke-linecap="round" stroke-linejoin="round" stroke-width="5.308018094676993"/>
  <path d="M 47.9121423711717, 79.49516811406895 Q 43.99778309162546, 94.68353067148682, 18.328108450578895, 112.81815602458596 " fill="none" id="curve_1" stroke="#000000" stroke-linecap="round" stroke-linejoin="round" stroke-width="4.813106976726127"/>
  <path d="M 18.328108450578895, 112.81815602458596 Q 44.23742263766589, 113.78129053118755, 56.65150905039164, 121.00270888660653 " fill="none" id="curve_1" stroke="#000000" stroke-linecap="round" stroke-linejoin="round" stroke-width="6.195829753384323"/>
  <path d="M 56.65150905039164, 121.00270888660653 Q 62.01289974762837, 121.09813231297741, 65.62296339605281, 121.29066943823904 " fill="none" id="curve_1" stroke="#000000" stroke-linecap="round" stroke-linejoin="round" stroke-width="5.210761877381919"/>
  <path d="M 65.62296339605281, 121.29066943823904 Q 44.260101549732525, 118.9388979641024, 26.69809289075902, 110.37887739294027 " fill="none" id="curve_1" stroke="#000000" stroke-linecap="round" stroke-linejoin="round" stroke-width="4.001684358039159"/>
  <path d="M 53.45663170301533, 27.471093605829992 Q 49.74394273187465, 25.302927103216838, 42.49813273838829, 22.556186483943854 " fill="none" id="curve_7" stroke="#000000" stroke-linecap="round" stroke-linejoin="round" stroke-width="3.920502341085454"/>
  <path d="M 42.49813273838829, 22.556186483943854 Q 40.89107767765156, 26.18971901893958, 27.815547698494214, 27.002229959712217 " fill="none" id="curve_7" stroke="#000000" stroke-linecap="round" stroke-linejoin="round" stroke-width="3.720845871424973"/>
  <path d="M 27.815547698494214, 27.002229959712217 Q 26.447784335255513, 34.39632991972159, 23.09495596764528, 38.788536841876 " fill="none" id="curve_7" stroke="#000000" stroke-linecap="round" stroke-linejoin="round" stroke-width="2.9136636783752214"/>
  <path d="M 28.440808069561292, 25.044208146430815 Q 24.76828666627975, 29.675856196034026, 17.586150267860063, 36.5085613362112 " fill="none" id="curve_8" stroke="#000000" stroke-linecap="round" stroke-linejoin="round" stroke-width="3.2296899733920075"/>
  <path d="M 52.63414164531287, 41.88382372038022 Q 54.89100027409247, 43.946164293864214, 55.588258021940554, 57.58659992718417 " fill="none" id="curve_10" stroke="#000000" stroke-linecap="round" stroke-linejoin="round" stroke-width="3.7309225130790353"/>
  <path d="M 55.588258021940554, 57.58659992718417 Q 53.70274735969828, 67.65682823264001, 48.66254359500702, 74.6826029881606 " fill="none" id="curve_10" stroke="#000000" stroke-linecap="round" stroke-linejoin="round" stroke-width="3.053068681533116"/>
  <path d="M 33.64973688125241, 112.39300019721557 Q 43.610157559122364, 114.21513720259034, 48.16877093576613, 119.46284312374799 " fill="none" id="curve_13" stroke="#000000" stroke-linecap="round" stroke-linejoin="round" stroke-width="3.3574286784542573"/>
  <path d="M 21.133329387528143, 109.42030463640707 Q 18.832507567668376, 109.7470340042665, 17.873395039127608, 111.213641280481 " fill="none" id="curve_14" stroke="#000000" stroke-linecap="round" stroke-linejoin="round" stroke-width="4.70959861748408"/>
  <path d="M 48.71080323101651, 117.85658841009015 Q 45.11482111541882, 115.73460126703395, 36.77421461069063, 113.66179782911482 " fill="none" id="curve_15" stroke="#000000" stroke-linecap="round" stroke-linejoin="round" stroke-width="3.9963081088073618"/>
  <path d="M 36.77421461069063, 113.66179782911482 Q 40.971281239006665, 117.14798953743504, 51.04612198268901, 119.43080524377454 " fill="none" id="curve_15" stroke="#000000" stroke-linecap="round" stroke-linejoin="round" stroke-width="3.1008841795083115"/>
  <path d="M 56.413693044863074, 34.887448488030145 Q 56.06987510770285, 33.51366344682222, 55.37509589787988, 32.0467190190889 " fill="none" id="curve_18" stroke="#000000" stroke-linecap="round" stroke-linejoin="round" stroke-width="3.7082289277831397"/>
  <path d="M 39.332378626005344, 22.893134815919694 Q 30.648688399423836, 23.56592471045207, 26.770714408204846, 27.595545736049246 " fill="none" id="curve_19" stroke="#000000" stroke-linecap="round" stroke-linejoin="round" stroke-width="2.699798839448503"/>
  <path d="M 41.292685557727324, 112.1815449065709 Q 36.83922445064352, 111.77307623142308, 28.205856500357353, 110.9784283066356 " fill="none" id="curve_22" stroke="#000000" stroke-linecap="round" stroke-linejoin="round" stroke-width="3.4181989456519877"/>
  <path d="M 33.12445170411964, 100.69286748250596 Q 37.922552417846035, 93.93990070832461, 46.76606051052114, 84.383929513259 " fill="none" id="curve_24" stroke="#000000" stroke-linecap="round" stroke-linejoin="round" stroke-width="2.396143903451447"/>
  <path d="M 39.43502336624361, 115.83394230026018 Q 41.96217546817448, 118.67101623909895, 50.43150513360048, 120.24674419967869 " fill="none" id="curve_28" stroke="#000000" stroke-linecap="round" stroke-linejoin="round" stroke-width="3.2151915473737036"/>
  <path d="M 23.131050739659447, 107.84279013877175 Q 22.30450083382075, 107.91008411294247, 21.684311102594513, 108.07929314996203 " fill="none" id="curve_29" stroke="#000000" stroke-linecap="round" stroke-linejoin="round" stroke-width="4.633346350595366"/>
  <path d="M 56.93975055887096, 60.4337124036897 Q 57.09613789080178, 50.19616825629051, 57.95281953448435, 44.183047199019065 " fill="none" id="curve_32" stroke="#000000" stroke-linecap="round" stroke-linejoin="round" stroke-width="3.3935147379405812"/>
  <path d="M 55.10757513809123, 65.07260154075087 Q 55.49165160945735, 54.719853679103394, 57.56485466046059, 49.68703540233399 " fill="none" id="curve_34" stroke="#000000" stroke-linecap="round" stroke-linejoin="round" stroke-width="3.0611614016717974"/>
  <path d="M 53.214920008801386, 62.39630758616045 Q 54.910500673945464, 57.66739672692346, 57.650378083916614, 52.91302088295562 " fill="none" id="curve_49" stroke="#000000" stroke-linecap="round" stroke-linejoin="round" stroke-width="3.733982343756069"/>
  <path d="M 46.377319123494786, 114.06021974263189 Q 44.8992317074154, 114.19567101237035, 42.02946549862028, 114.39887077164165 " fill="none" id="curve_54" stroke="#000000" stroke-linecap="round" stroke-linejoin="round" stroke-width="3.3099382759008975"/>
  <path d="M 53.1533109688113, 117.52883643277346 Q 56.13782448592609, 118.40909212072332, 61.61023432701363, 119.19740477985933 " fill="none" id="curve_69" stroke="#000000" stroke-linecap="round" stroke-linejoin="round" stroke-width="2.49041275492947"/>
  <path d="M 27.064446992596913, 33.44815389423002 Q 26.446689014526495, 33.288977242105965, 25.36017389709001, 33.01074089641859 " fill="none" id="curve_136" stroke="#000000" stroke-linecap="round" stroke-linejoin="round" stroke-width="3.0639515359761798"/>
  <path d="M 51.709900171748814, 115.64020867266845 Q 51.98747148319766, 116.81619857738167, 52.48005299716011, 118.2177867254212 " fill="none" id="curve_164" stroke="#000000" stroke-linecap="round" stroke-linejoin="round" stroke-width="4.034974600344825"/>
</svg>
