<?xml version="1.0" ?>
<svg height="140" width="140" xmlns="http://www.w3.org/2000/svg">
  <path d="M 26.426055908203125, 50.72766590118408 Q 21.25554939322501, 51.288657230201885, 19.83442413878123, 54.8839654114185 " fill="none" id="curve_1" stroke="#000000" stroke-linecap="round" stroke-linejoin="round" stroke-width="4.9826463299875785"/>
  <path d="M 19.83442413878123, 54.8839654114185 Q 22.08851320473237, 48.61515830371443, 34.62139694027415, 45.058532759284944 " fill="none" id="curve_1" stroke="#000000" stroke-linecap="round" stroke-linejoin="round" stroke-width="5.824827858097556"/>
  <path d="M 34.62139694027415, 45.058532759284944 Q 41.73482426038369, 40.65696271731776, 60.86009272364547, 35.29012101273176 " fill="none" id="curve_1" stroke="#000000" stroke-linecap="round" stroke-linejoin="round" stroke-width="5.808953557230742"/>
  <path d="M 60.86009272364547, 35.29012101273176 Q 58.58829540937647, 48.97446658582494, 38.26699845019019, 66.1737643736061 " fill="none" id="curve_1" stroke="#000000" stroke-linecap="round" stroke-linejoin="round" stroke-width="4.7539704592487775"/>
  <path d="M 38.26699845019019, 66.1737643736061 Q 31.22444301997565, 73.45937974370663, 17.562168292642784, 96.46012650057003 " fill="none" id="curve_1" stroke="#000000" stroke-linecap="round" stroke-linejoin="round" stroke-width="4.478499085805305"/>
  <path d="M 17.562168292642784, 96.46012650057003 Q 35.0563060972226, 94.18664034764817, 55.6954601212408, 78.80222024313716 " fill="none" id="curve_1" stroke="#000000" stroke-linecap="round" stroke-linejoin="round" stroke-width="4.753720352557215"/>
  <path d="M 55.6954601212408, 78.80222024313716 Q 62.16253071682758, 77.01114455331582, 65.98537647938144, 72.50482067801804 " fill="none" id="curve_1" stroke="#000000" stroke-linecap="round" stroke-linejoin="round" stroke-width="3.4765093437440058"/>
  <path d="M 54.60337319993066, 44.77662422556669 Q 49.696109450475404, 55.56871971825832, 38.41059929294617, 68.6339117725727 " fill="none" id="curve_2" stroke="#000000" stroke-linecap="round" stroke-linejoin="round" stroke-width="2.5463170860783224"/>
  <path d="M 38.41059929294617, 68.6339117725727 Q 28.149409444102325, 73.42266877757456, 20.967733189281375, 88.86412876213774 " fill="none" id="curve_2" stroke="#000000" stroke-linecap="round" stroke-linejoin="round" stroke-width="2.9953375246244294"/>
  <path d="M 25.488540495294988, 96.64338423535489 Q 33.10671398066195, 90.51036314168994, 48.06910903157598, 82.92699456639271 " fill="none" id="curve_3" stroke="#000000" stroke-linecap="round" stroke-linejoin="round" stroke-width="2.8538548325460296"/>
  <path d="M 48.06910903157598, 82.92699456639271 Q 53.52363130614167, 82.65585119898618, 55.486081042059226, 81.2409503177803 " fill="none" id="curve_3" stroke="#000000" stroke-linecap="round" stroke-linejoin="round" stroke-width="3.022008658009528"/>
  <path d="M 57.9477812426577, 34.752517824381556 Q 44.99966983643495, 36.643191049898356, 35.07017215394305, 45.12212290777571 " fill="none" id="curve_5" stroke="#000000" stroke-linecap="round" stroke-linejoin="round" stroke-width="3.139595858733429"/>
  <path d="M 35.07017215394305, 45.12212290777571 Q 33.608419942840264, 49.00107785216429, 24.658793490425452, 49.965034655607234 " fill="none" id="curve_5" stroke="#000000" stroke-linecap="round" stroke-linejoin="round" stroke-width="3.0143323316144044"/>
  <path d="M 40.882653483899475, 62.61008428270705 Q 45.13298925276142, 58.83330677454783, 52.09406634168066, 54.82191035601731 " fill="none" id="curve_8" stroke="#000000" stroke-linecap="round" stroke-linejoin="round" stroke-width="2.942936458812133"/>
  <path d="M 31.477641188138, 93.6237449581215 Q 27.520061548596743, 94.19181306290494, 23.29384091665771, 95.2216788905996 " fill="none" id="curve_10" stroke="#000000" stroke-linecap="round" stroke-linejoin="round" stroke-width="4.046294734511098"/>
  <path d="M 28.282449101835255, 96.3289027870876 Q 28.82631404394415, 94.12260794677266, 29.83146452063647, 91.65709914798147 " fill="none" id="curve_25" stroke="#000000" stroke-linecap="round" stroke-linejoin="round" stroke-width="3.004559230729852"/>
  <path d="M 34.7118529480931, 71.9642474897604 Q 35.91111069358856, 71.71363686203038, 37.183752879907736, 71.01229842612781 " fill="none" id="curve_26" stroke="#000000" stroke-linecap="round" stroke-linejoin="round" stroke-width="2.4713130837394015"/>
  <path d="M 48.673089685468696, 56.07860242521427 Q 47.229584505207754, 56.85317462844754, 45.20196980399578, 58.145456661554014 " fill="none" id="curve_27" stroke="#000000" stroke-linecap="round" stroke-linejoin="round" stroke-width="3.25091264523854"/>
  <path d="M 56.93543455831246, 41.9775889333492 Q 57.52263340551204, 41.285206018330484, 57.96629928995534, 39.33709587949699 " fill="none" id="curve_44" stroke="#000000" stroke-linecap="round" stroke-linejoin="round" stroke-width="3.761045713987794"/>
  <path d="M 89.58533682193055, 1.8249222471077644 Q 89.79157947739581, 1.919001264866095, 90.18641825771087, 2.0788334877888865 " fill="none" id="curve_85" stroke="#000000" stroke-linecap="round" stroke-linejoin="round" stroke-width="1.7070526407674955"/>
  <path d="M 20.728025683264942, 90.4091021648047 Q 20.540838327589867, 91.32898938538351, 20.264705493962882, 92.79600736124118 " fill="none" id="curve_141" stroke="#000000" stroke-linecap="round" stroke-linejoin="round" stroke-width="4.714092169289848"/>
</svg>
