<?xml version="1.0" ?>
<svg height="140" width="140" xmlns="http://www.w3.org/2000/svg">
  <path d="M 47.12351608276367, 44.054128646850586 Q 47.54802695318306, 43.75556477333458, 48.62404613063769, 43.38483822289004 " fill="none" id="curve_1" stroke="#000000" stroke-linecap="round" stroke-linejoin="round" stroke-width="5.727277555820638"/>
  <path d="M 48.62404613063769, 43.38483822289004 Q 33.99837770870761, 43.8243634555669, 27.861118821775495, 56.81186185399693 " fill="none" id="curve_1" stroke="#000000" stroke-linecap="round" stroke-linejoin="round" stroke-width="3.3213256604599404"/>
  <path d="M 51.547763459986825, 44.816398688788944 Q 48.71678169222793, 53.3965038224448, 39.456327277829175, 75.20185463335119 " fill="none" id="curve_2" stroke="#000000" stroke-linecap="round" stroke-linejoin="round" stroke-width="4.697402018761198"/>
  <path d="M 39.456327277829175, 75.20185463335119 Q 35.928063136614995, 83.65796664873321, 26.52757594162449, 108.27447937654344 " fill="none" id="curve_2" stroke="#000000" stroke-linecap="round" stroke-linejoin="round" stroke-width="4.4999266315214275"/>
  <path d="M 26.52757594162449, 108.27447937654344 Q 22.844405045610646, 115.12350774860882, 19.530452466440988, 124.11251109051257 " fill="none" id="curve_2" stroke="#000000" stroke-linecap="round" stroke-linejoin="round" stroke-width="4.941977570260787"/>
  <path d="M 19.530452466440988, 124.11251109051257 Q 27.085204913790403, 115.90303361599314, 56.948334015442214, 106.4471882090741 " fill="none" id="curve_2" stroke="#000000" stroke-linecap="round" stroke-linejoin="round" stroke-width="3.9730026524367275"/>
  <path d="M 56.948334015442214, 106.4471882090741 Q 61.36070546545317, 106.29291202916583, 63.57192524448535, 105.87194413740033 " fill="none" id="curve_2" stroke="#000000" stroke-linecap="round" stroke-linejoin="round" stroke-width="5.680089333930366"/>
  <path d="M 26.56521024127278, 57.71680265829589 Q 27.004046599139947, 57.552667955705374, 27.396264096009467, 57.13864535170109 " fill="none" id="curve_4" stroke="#000000" stroke-linecap="round" stroke-linejoin="round" stroke-width="3.6596253759784867"/>
  <path d="M 50.492959344304545, 44.87766979037305 Q 47.50473390854271, 57.9711720425296, 39.203824862160964, 70.82622963414211 " fill="none" id="curve_5" stroke="#000000" stroke-linecap="round" stroke-linejoin="round" stroke-width="2.555230516631491"/>
  <path d="M 29.892735095367662, 93.52184005658472 Q 32.62361540189934, 90.4128790256532, 35.86735095732573, 85.73103584777645 " fill="none" id="curve_6" stroke="#000000" stroke-linecap="round" stroke-linejoin="round" stroke-width="2.524397116294095"/>
  <path d="M 45.21556929062454, 41.68112123415434 Q 42.73408635868948, 42.42052279239751, 39.83067370780587, 44.00537185500481 " fill="none" id="curve_8" stroke="#000000" stroke-linecap="round" stroke-linejoin="round" stroke-width="3.162816654798181"/>
  <path d="M 28.956342412650912, 55.167210930224 Q 29.802777351843943, 52.80360711884679, 31.96937563796795, 51.29555319056343 " fill="none" id="curve_9" stroke="#000000" stroke-linecap="round" stroke-linejoin="round" stroke-width="3.435317993349925"/>
  <path d="M 51.405973663163486, 46.455635941344426 Q 48.92197241063497, 54.10026671953032, 44.238350463565965, 60.87045984553403 " fill="none" id="curve_10" stroke="#000000" stroke-linecap="round" stroke-linejoin="round" stroke-width="2.778858563506749"/>
  <path d="M 44.238350463565965, 60.87045984553403 Q 48.39512101641644, 57.8294640529417, 50.42276485268272, 46.586506261215 " fill="none" id="curve_10" stroke="#000000" stroke-linecap="round" stroke-linejoin="round" stroke-width="2.655658558084724"/>
  <path d="M 50.42276485268272, 46.586506261215 Q 48.10287065472343, 53.07272279594351, 44.77852659090357, 60.70700885905155 " fill="none" id="curve_10" stroke="#000000" stroke-linecap="round" stroke-linejoin="round" stroke-width="2.7578473400254735"/>
  <path d="M 59.3206200407776, 106.31699013721622 Q 60.60129832502476, 105.72786563868384, 61.94960394814961, 104.84001377344464 " fill="none" id="curve_14" stroke="#000000" stroke-linecap="round" stroke-linejoin="round" stroke-width="4.435640627310304"/>
  <path d="M 32.666845094689215, 90.9594825675434 Q 32.568061967471344, 90.42877600630516, 32.45195910101199, 89.40746288538915 " fill="none" id="curve_16" stroke="#000000" stroke-linecap="round" stroke-linejoin="round" stroke-width="4.349663678336345"/>
  <path d="M 88.70403472743061, 4.592148628997414 Q 88.95289585920773, 3.227202893184484, 89.39673645307728, 1.4544855234641267 " fill="none" id="curve_19" stroke="#000000" stroke-linecap="round" stroke-linejoin="round" stroke-width="2.3540835272303284"/>
  <path d="M 89.20450117583889, 1.2676030567174967 Q 89.11921774616455, 1.870312258612172, 88.8120098963355, 2.752693921042169 " fill="none" id="curve_22" stroke="#000000" stroke-linecap="round" stroke-linejoin="round" stroke-width="1.9122421530851534"/>
  <path d="M 48.81615147812504, 48.25984635720221 Q 47.47000580269193, 54.42480981450341, 44.42407561130687, 60.86767319101473 " fill="none" id="curve_31" stroke="#000000" stroke-linecap="round" stroke-linejoin="round" stroke-width="2.4344419087891063"/>
  <path d="M 35.22228440856968, 113.32771565117972 Q 37.22560084003363, 112.99441762671279, 39.22221544079361, 112.22637125528303 " fill="none" id="curve_54" stroke="#000000" stroke-linecap="round" stroke-linejoin="round" stroke-width="3.010395728793499"/>
  <path d="M 55.968355937145915, 108.55725896813702 Q 57.3660683305905, 106.94534715086488, 59.44853622162423, 105.41413339274031 " fill="none" id="curve_70" stroke="#000000" stroke-linecap="round" stroke-linejoin="round" stroke-width="4.059608203942016"/>
  <path d="M 39.124870285023874, 76.19330864894148 Q 37.97857528371783, 80.21982511876112, 35.48703142800017, 87.5733167301907 " fill="none" id="curve_106" stroke="#000000" stroke-linecap="round" stroke-linejoin="round" stroke-width="2.3926677990390437"/>
  <path d="M 62.087060328419454, 104.52182211276107 Q 58.535802953732556, 104.57301372568519, 56.09362571665743, 104.74543698854207 " fill="none" id="curve_121" stroke="#000000" stroke-linecap="round" stroke-linejoin="round" stroke-width="2.5256754468800073"/>
  <path d="M 38.14343556295739, 74.67945173759438 Q 38.26547049277161, 74.54556240662714, 38.502360690738925, 74.29090057620695 " fill="none" id="curve_136" stroke="#000000" stroke-linecap="round" stroke-linejoin="round" stroke-width="2.221625602058025"/>
  <path d="M 44.60327139913965, 59.70253069355581 Q 48.74229334243768, 57.57322836006416, 50.881951957325406, 48.6190886707512 " fill="none" id="curve_143" stroke="#000000" stroke-linecap="round" stroke-linejoin="round" stroke-width="2.492288532928227"/>
  <path d="M 26.015888373860555, 106.04431876656368 Q 25.063727591060943, 109.5194830627834, 22.315711926170998, 112.03977319904202 " fill="none" id="curve_165" stroke="#000000" stroke-linecap="round" stroke-linejoin="round" stroke-width="2.6802804532303055"/>
  <path d="M 29.652566305463225, 53.56032357384064 Q 28.786724509175876, 54.16102755105354, 27.872518600157377, 55.89718585189716 " fill="none" id="curve_168" stroke="#000000" stroke-linecap="round" stroke-linejoin="round" stroke-width="2.572406389735418"/>
  <path d="M 38.10229009821529, 74.17176076355605 Q 37.6212932252824, 76.77656989703938, 36.66820357441137, 81.27414259467523 " fill="none" id="curve_173" stroke="#000000" stroke-linecap="round" stroke-linejoin="round" stroke-width="2.2090102018271827"/>
</svg>
