<?xml version="1.0" ?>
<svg height="140" width="140" xmlns="http://www.w3.org/2000/svg">
  <path d="M 47.39294242858887, 48.41452646255493 Q 42.54687352483555, 48.618629868013656, 39.402524149003966, 50.37483675110565 " fill="none" id="curve_1" stroke="#000000" stroke-linecap="round" stroke-linejoin="round" stroke-width="7.713438806197027"/>
  <path d="M 39.402524149003966, 50.37483675110565 Q 33.44036583356212, 55.05876073122185, 28.782372223712493, 64.88495142711321 " fill="none" id="curve_1" stroke="#000000" stroke-linecap="round" stroke-linejoin="round" stroke-width="4.446553954684095"/>
  <path d="M 48.90846367326499, 50.72410452760456 Q 47.11540557242783, 65.89351861252395, 31.533339648982707, 83.07174402823875 " fill="none" id="curve_2" stroke="#000000" stroke-linecap="round" stroke-linejoin="round" stroke-width="5.581056593222496"/>
  <path d="M 31.533339648982707, 83.07174402823875 Q 26.26756157776165, 86.70059443255359, 23.881858447949682, 95.54705897752507 " fill="none" id="curve_2" stroke="#000000" stroke-linecap="round" stroke-linejoin="round" stroke-width="5.465656447871263"/>
  <path d="M 23.881858447949682, 95.54705897752507 Q 28.374632028600278, 93.78467053575024, 49.32385259568415, 93.23132505382627 " fill="none" id="curve_2" stroke="#000000" stroke-linecap="round" stroke-linejoin="round" stroke-width="5.929834528087999"/>
  <path d="M 73.6394852771775, 84.30925712628215 Q 74.39644552359789, 82.93581075929781, 74.84415952496863, 79.19351231328342 " fill="none" id="curve_3" stroke="#000000" stroke-linecap="round" stroke-linejoin="round" stroke-width="3.623123069911907"/>
  <path d="M 82.69661049661264, 47.34749706730305 Q 84.99260605399549, 49.19943757604254, 86.07030069001291, 56.93111436495795 " fill="none" id="curve_5" stroke="#000000" stroke-linecap="round" stroke-linejoin="round" stroke-width="3.666335116599634"/>
  <path d="M 61.16820195971364, 50.28260032564118 Q 61.71805567111766, 49.81818617476138, 62.65842722562787, 48.21272604565411 " fill="none" id="curve_7" stroke="#000000" stroke-linecap="round" stroke-linejoin="round" stroke-width="2.382695860574735"/>
  <path d="M 68.45370548930671, 75.5508249871493 Q 68.2271297642215, 73.55125116141538, 67.561599425789, 72.08281600967621 " fill="none" id="curve_8" stroke="#000000" stroke-linecap="round" stroke-linejoin="round" stroke-width="3.3976228370142803"/>
  <path d="M 49.742855900781294, 96.93144500658683 Q 49.75812363214468, 95.58787406524971, 49.82187527916386, 94.75409328524294 " fill="none" id="curve_9" stroke="#000000" stroke-linecap="round" stroke-linejoin="round" stroke-width="4.242313676221787"/>
  <path d="M 47.004358987187096, 60.380245990630485 Q 46.91065988347441, 46.96127942235287, 45.17851106210081, 44.97898649997221 " fill="none" id="curve_10" stroke="#000000" stroke-linecap="round" stroke-linejoin="round" stroke-width="3.2872927205520344"/>
  <path d="M 78.11619008286664, 49.270208321335666 Q 78.27357616620586, 52.472091023795485, 78.81568936424773, 54.83862159088762 " fill="none" id="curve_11" stroke="#000000" stroke-linecap="round" stroke-linejoin="round" stroke-width="1.8233737105736258"/>
  <path d="M 84.7878710386447, 37.15589473536226 Q 84.38830600436597, 37.68879841890639, 83.9050743708611, 39.29796855902578 " fill="none" id="curve_13" stroke="#000000" stroke-linecap="round" stroke-linejoin="round" stroke-width="1.78510730690123"/>
  <path d="M 86.9507653481752, 21.496088499001665 Q 86.55358076364712, 16.638969412238854, 85.50226982409566, 12.684070252690542 " fill="none" id="curve_14" stroke="#000000" stroke-linecap="round" stroke-linejoin="round" stroke-width="1.934010942780432"/>
  <path d="M 86.08324312657763, 8.261599096722954 Q 85.6210121791214, 8.28465490503787, 85.09127823029871, 8.314192563912558 " fill="none" id="curve_15" stroke="#000000" stroke-linecap="round" stroke-linejoin="round" stroke-width="4.527882715794562"/>
  <path d="M 76.24306163153572, 21.90552071547808 Q 75.61660293437477, 21.457033596727218, 75.18415808953169, 20.40920256235476 " fill="none" id="curve_16" stroke="#000000" stroke-linecap="round" stroke-linejoin="round" stroke-width="3.99445339814554"/>
  <path d="M 74.93556330327809, 11.177356183539954 Q 75.0118790894901, 11.375054072271292, 75.15924976460552, 11.643444152470089 " fill="none" id="curve_17" stroke="#000000" stroke-linecap="round" stroke-linejoin="round" stroke-width="2.688722187346057"/>
  <path d="M 63.86979856722026, 11.42507657659796 Q 63.21678709464195, 11.511356507594305, 61.57522716783675, 11.638624875715013 " fill="none" id="curve_18" stroke="#000000" stroke-linecap="round" stroke-linejoin="round" stroke-width="2.5594468927569602"/>
  <path d="M 48.05363052695729, 3.8957471229727183 Q 47.656754854368884, 3.400179642387773, 46.466854961446515, 2.929020471042241 " fill="none" id="curve_19" stroke="#000000" stroke-linecap="round" stroke-linejoin="round" stroke-width="2.564089574502566"/>
  <path d="M 50.998074438900666, 9.487006840923854 Q 51.19370681198651, 9.383843626921228, 51.509279905165656, 9.16508589931792 " fill="none" id="curve_20" stroke="#000000" stroke-linecap="round" stroke-linejoin="round" stroke-width="2.7671053712869536"/>
  <path d="M 19.04581157919299, 49.960841284460734 Q 19.518714316237823, 49.73914326320231, 20.619859279078547, 49.28668506562103 " fill="none" id="curve_25" stroke="#000000" stroke-linecap="round" stroke-linejoin="round" stroke-width="2.401422891679534"/>
  <path d="M 14.625724278433612, 1.2319987261343304 Q 13.970561007309588, 2.340892388553505, 12.89677596286689, 4.445483178529285 " fill="none" id="curve_29" stroke="#000000" stroke-linecap="round" stroke-linejoin="round" stroke-width="1.7329582791819693"/>
  <path d="M 86.72165899182427, 127.62863455192486 Q 86.74215293069567, 127.77103656093314, 86.77444595943881, 128.04338933203562 " fill="none" id="curve_36" stroke="#000000" stroke-linecap="round" stroke-linejoin="round" stroke-width="3.0133485937016515"/>
  <path d="M 29.416831267803182, 138.3864589530284 Q 29.786737866121584, 138.21910290987918, 30.16819758611213, 137.83552219308433 " fill="none" id="curve_38" stroke="#000000" stroke-linecap="round" stroke-linejoin="round" stroke-width="2.5594646924683024"/>
  <path d="M 36.73436890086582, 120.55148559513519 Q 36.53228817419217, 120.40840029389948, 36.28464401692281, 120.0951556847728 " fill="none" id="curve_39" stroke="#000000" stroke-linecap="round" stroke-linejoin="round" stroke-width="2.912422639224489"/>
  <path d="M 89.54283874038653, 90.19416224113047 Q 89.35938341085267, 88.56052243624708, 88.32623631963227, 87.71707003827711 " fill="none" id="curve_41" stroke="#000000" stroke-linecap="round" stroke-linejoin="round" stroke-width="2.6251102747886135"/>
  <path d="M 75.51089922383964, 113.45768481264032 Q 75.13232959899732, 113.71249288830158, 74.4186988729446, 114.05828497078026 " fill="none" id="curve_42" stroke="#000000" stroke-linecap="round" stroke-linejoin="round" stroke-width="3.49466647616916"/>
  <path d="M 61.91896429680129, 135.5567157083176 Q 61.885552976322614, 135.56519606823568, 61.83308638162839, 135.5828838288304 " fill="none" id="curve_43" stroke="#000000" stroke-linecap="round" stroke-linejoin="round" stroke-width="2.735147642056775"/>
  <path d="M 54.48726305361664, 103.36680234525019 Q 54.289692330419356, 103.5375985322835, 54.00390582865602, 103.86508590896533 " fill="none" id="curve_44" stroke="#000000" stroke-linecap="round" stroke-linejoin="round" stroke-width="2.995519223869409"/>
  <path d="M 44.236228902870565, 61.51734828932715 Q 45.01911742714632, 56.237280814094014, 47.50531125294843, 50.80561071589901 " fill="none" id="curve_47" stroke="#000000" stroke-linecap="round" stroke-linejoin="round" stroke-width="2.6953269664706814"/>
  <path d="M 75.12456161919246, 42.903150621822924 Q 75.80330785483504, 43.024258548229376, 76.60990154954632, 43.408773301784336 " fill="none" id="curve_48" stroke="#000000" stroke-linecap="round" stroke-linejoin="round" stroke-width="2.2515473033238615"/>
  <path d="M 71.66982881752794, 31.621467627358875 Q 71.6665775835302, 27.56279267942485, 71.64883115164665, 24.854915085071895 " fill="none" id="curve_50" stroke="#000000" stroke-linecap="round" stroke-linejoin="round" stroke-width="1.5514484868254426"/>
  <path d="M 56.84803789484864, 29.214031070678477 Q 57.00869347331099, 28.608130731989874, 57.48789167632029, 27.088879180079083 " fill="none" id="curve_52" stroke="#000000" stroke-linecap="round" stroke-linejoin="round" stroke-width="1.6503921505689114"/>
  <path d="M 89.16545725401619, 1.337806940110105 Q 89.31459698924176, 2.2755106591244623, 89.81827980955607, 3.7473093132141995 " fill="none" id="curve_58" stroke="#000000" stroke-linecap="round" stroke-linejoin="round" stroke-width="2.1406060684607846"/>
  <path d="M 88.7309038563394, 45.14585495365893 Q 88.46165019330218, 46.52677507513523, 86.92268167863341, 47.68261628318953 " fill="none" id="curve_60" stroke="#000000" stroke-linecap="round" stroke-linejoin="round" stroke-width="2.2947743003288967"/>
  <path d="M 48.732893682442736, 39.58052963192057 Q 48.189587609841695, 39.17678708617244, 46.96807821868855, 38.73995027969075 " fill="none" id="curve_63" stroke="#000000" stroke-linecap="round" stroke-linejoin="round" stroke-width="2.0607771412145564"/>
  <path d="M 40.22652680157623, 41.2954537937644 Q 40.119702070380804, 41.42520278571817, 39.68513755635231, 41.58300761631725 " fill="none" id="curve_64" stroke="#000000" stroke-linecap="round" stroke-linejoin="round" stroke-width="1.907875908690067"/>
  <path d="M 78.47217880225288, 102.96465432324791 Q 78.33349229205817, 103.42946321075442, 78.05985908890537, 104.18461299846362 " fill="none" id="curve_95" stroke="#000000" stroke-linecap="round" stroke-linejoin="round" stroke-width="2.2492039695423265"/>
  <path d="M 88.82102931360889, 122.49622418677302 Q 88.87349543158662, 122.53525585288058, 88.94238773623258, 122.62586182649761 " fill="none" id="curve_96" stroke="#000000" stroke-linecap="round" stroke-linejoin="round" stroke-width="2.0837441748173053"/>
  <path d="M 46.088244744698606, 135.78994770746885 Q 46.126267549029684, 136.80729577342655, 46.470914330864105, 137.09178464692747 " fill="none" id="curve_97" stroke="#000000" stroke-linecap="round" stroke-linejoin="round" stroke-width="2.1042605499227336"/>
  <path d="M 32.87747444160513, 128.291309147158 Q 32.732008895706265, 128.65875374434762, 32.37446434863908, 128.9529192874813 " fill="none" id="curve_98" stroke="#000000" stroke-linecap="round" stroke-linejoin="round" stroke-width="1.9522228372494517"/>
  <path d="M 49.47382181864176, 87.00999145475352 Q 49.72570069412251, 86.66946688244333, 50.16048212211025, 86.21968859817329 " fill="none" id="curve_100" stroke="#000000" stroke-linecap="round" stroke-linejoin="round" stroke-width="2.4142990384268534"/>
  <path d="M 82.84454733384919, 85.53028280054274 Q 82.97427768434174, 85.3868178795447, 83.20431746131496, 85.08831874940898 " fill="none" id="curve_101" stroke="#000000" stroke-linecap="round" stroke-linejoin="round" stroke-width="2.156028710063831"/>
  <path d="M 78.25898421240696, 63.47948169567699 Q 78.21741608122984, 63.75737076492251, 78.12124011958858, 64.15299899363788 " fill="none" id="curve_104" stroke="#000000" stroke-linecap="round" stroke-linejoin="round" stroke-width="1.3087510633095782"/>
  <path d="M 17.908355748647995, 83.08557677119602 Q 18.28790090376017, 82.91068038429208, 19.225059507683262, 82.51976356682408 " fill="none" id="curve_113" stroke="#000000" stroke-linecap="round" stroke-linejoin="round" stroke-width="1.7300098826509052"/>
  <path d="M 69.6496448794826, 10.631856303194413 Q 69.4516205393683, 11.342379018916144, 68.65313777821085, 12.134815684027402 " fill="none" id="curve_120" stroke="#000000" stroke-linecap="round" stroke-linejoin="round" stroke-width="2.048485960061948"/>
  <path d="M 36.79159073282926, 49.95163606418102 Q 37.606205509581905, 47.18523173773804, 44.59991362140176, 46.28943166448636 " fill="none" id="curve_130" stroke="#000000" stroke-linecap="round" stroke-linejoin="round" stroke-width="2.5619408578989087"/>
  <path d="M 79.14779532655555, 48.937286996616926 Q 79.8909507752823, 48.44124590334201, 82.10655309401422, 48.0364173700494 " fill="none" id="curve_132" stroke="#000000" stroke-linecap="round" stroke-linejoin="round" stroke-width="2.114359611825903"/>
  <path d="M 34.91904783200363, 91.62879825308909 Q 35.01062150021753, 90.86187458865209, 39.516473141311955, 90.79727546198143 " fill="none" id="curve_147" stroke="#000000" stroke-linecap="round" stroke-linejoin="round" stroke-width="2.1486158052691073"/>
  <path d="M 27.588864891007532, 97.3444952776019 Q 27.158141155153242, 97.19717627922682, 26.368120018342257, 96.97421891869546 " fill="none" id="curve_148" stroke="#000000" stroke-linecap="round" stroke-linejoin="round" stroke-width="2.4092369836209064"/>
  <path d="M 70.69937366890673, 75.658384838668 Q 71.02723165640032, 76.01696973473645, 71.46473855648091, 77.14363572810129 " fill="none" id="curve_150" stroke="#000000" stroke-linecap="round" stroke-linejoin="round" stroke-width="1.6783612409699948"/>
  <path d="M 84.92885169651761, 58.41531933204493 Q 85.21243946541055, 57.682987233866605, 85.53445868844392, 56.30103561970898 " fill="none" id="curve_152" stroke="#000000" stroke-linecap="round" stroke-linejoin="round" stroke-width="2.202656826663506"/>
  <path d="M 54.69998129327563, 62.94932759943735 Q 56.199751845894674, 63.21310178629812, 57.754417800848806, 64.39238552166982 " fill="none" id="curve_156" stroke="#000000" stroke-linecap="round" stroke-linejoin="round" stroke-width="1.9430394862343805"/>
  <path d="M 49.08606119869639, 54.59496549958655 Q 42.4794850773453, 60.17396982815707, 36.86511169885258, 80.40576143529285 " fill="none" id="curve_161" stroke="#000000" stroke-linecap="round" stroke-linejoin="round" stroke-width="2.352061190275867"/>
  <path d="M 32.4500144716668, 52.17862417111117 Q 32.15932440659541, 59.19786053120002, 31.220203666688196, 64.97640198432119 " fill="none" id="curve_167" stroke="#000000" stroke-linecap="round" stroke-linejoin="round" stroke-width="2.3985136643771643"/>
  <path d="M 45.17013737797746, 77.17899655813099 Q 46.05582193266775, 77.07504302886007, 47.35153666156245, 76.71805668721666 " fill="none" id="curve_171" stroke="#000000" stroke-linecap="round" stroke-linejoin="round" stroke-width="1.6360125432051573"/>
  <path d="M 85.72545039895331, 71.44093616122986 Q 85.82975035672754, 72.50340120845173, 86.12295287027646, 74.06641520837263 " fill="none" id="curve_177" stroke="#000000" stroke-linecap="round" stroke-linejoin="round" stroke-width="1.5972444889149109"/>
  <path d="M 88.63462706757916, 78.49540182662611 Q 88.54765782147717, 79.41255159600223, 88.21971265271651, 81.13502201377509 " fill="none" id="curve_180" stroke="#000000" stroke-linecap="round" stroke-linejoin="round" stroke-width="1.8396949777580545"/>
  <path d="M 60.936199253123426, 86.78671964487432 Q 60.8644342621209, 86.12726561960358, 60.657839910017515, 85.60784457812863 " fill="none" id="curve_185" stroke="#000000" stroke-linecap="round" stroke-linejoin="round" stroke-width="1.7914885257919326"/>
  <path d="M 72.60860958134315, 110.67495803482659 Q 72.14032364563283, 111.38127856526734, 71.32308162858735, 112.18229746205974 " fill="none" id="curve_186" stroke="#000000" stroke-linecap="round" stroke-linejoin="round" stroke-width="1.9821042902357473"/>
  <path d="M 62.14323775066356, 105.14215363338525 Q 61.997115063553785, 105.38862651170018, 61.73526337672241, 105.77573801782147 " fill="none" id="curve_190" stroke="#000000" stroke-linecap="round" stroke-linejoin="round" stroke-width="2.0908407248083685"/>
  <path d="M 41.297608946134176, 27.34026050885079 Q 41.51723646536536, 27.842602179365525, 42.04134491336501, 28.605571095138686 " fill="none" id="curve_195" stroke="#000000" stroke-linecap="round" stroke-linejoin="round" stroke-width="2.0600279967014425"/>
  <path d="M 28.4185791015625, 61.882080078125 Q 28.73526986244687, 58.01117046351749, 33.30518819624663, 57.00873292681919 " fill="none" id="curve_209" stroke="#000000" stroke-linecap="round" stroke-linejoin="round" stroke-width="2.5475330840173944"/>
  <path d="M 44.91590624439144, 39.356322837802644 Q 44.96130804283312, 38.08298006186496, 45.1976885049599, 37.18746399774113 " fill="none" id="curve_210" stroke="#000000" stroke-linecap="round" stroke-linejoin="round" stroke-width="1.3547445316212348"/>
  <path d="M 60.59299159757625, 26.17046770658053 Q 60.88607556133701, 26.725335380669236, 61.330261805295855, 27.63324793235419 " fill="none" id="curve_211" stroke="#000000" stroke-linecap="round" stroke-linejoin="round" stroke-width="1.879988023043911"/>
  <path d="M 61.427324952665145, 7.5818048435518435 Q 61.665359898844635, 7.0038974612903315, 62.32396293551707, 6.499501749497849 " fill="none" id="curve_212" stroke="#000000" stroke-linecap="round" stroke-linejoin="round" stroke-width="1.9445777347269422"/>
  <path d="M 74.35122326279782, 11.173671369842474 Q 75.10774933733465, 11.17737959611956, 76.47205121876688, 11.183880736878582 " fill="none" id="curve_215" stroke="#000000" stroke-linecap="round" stroke-linejoin="round" stroke-width="1.9470286240884043"/>
  <path d="M 40.14158029293877, 8.946012879734434 Q 40.32716623351982, 8.575348255503167, 40.82054042051606, 8.023811873841098 " fill="none" id="curve_217" stroke="#000000" stroke-linecap="round" stroke-linejoin="round" stroke-width="1.8254583137354465"/>
  <path d="M 78.97020753520131, 22.079239944143662 Q 79.65826204870869, 22.52065491588018, 81.28475924880074, 23.35279006446275 " fill="none" id="curve_252" stroke="#000000" stroke-linecap="round" stroke-linejoin="round" stroke-width="2.0956433890046156"/>
  <path d="M 64.44717929549134, 33.45796845875673 Q 64.4959356899129, 34.25227374379503, 64.61858444975645, 35.061788692840985 " fill="none" id="curve_275" stroke="#000000" stroke-linecap="round" stroke-linejoin="round" stroke-width="1.959734568573665"/>
  <path d="M 50.94012245235423, 8.105089194478168 Q 50.819968511931435, 8.15838811601856, 50.67142872692727, 8.270953338427859 " fill="none" id="curve_278" stroke="#000000" stroke-linecap="round" stroke-linejoin="round" stroke-width="2.609643532840448"/>
  <path d="M 23.097933049144828, 4.9852706796171535 Q 23.24518329123251, 5.051289004828538, 23.45077927101767, 5.184214159997351 " fill="none" id="curve_279" stroke="#000000" stroke-linecap="round" stroke-linejoin="round" stroke-width="2.0932794952344556"/>
  <path d="M 11.403463952299676, 7.664526363311012 Q 11.397254358641577, 7.418395622170167, 11.387326201667666, 7.024218999987054 " fill="none" id="curve_280" stroke="#000000" stroke-linecap="round" stroke-linejoin="round" stroke-width="1.9154846867191637"/>
  <path d="M 45.761691540115706, 4.03750788893797 Q 45.68525065394688, 3.349753824842087, 45.43072761777709, 2.8265538583887864 " fill="none" id="curve_283" stroke="#000000" stroke-linecap="round" stroke-linejoin="round" stroke-width="2.3262047380211155"/>
  <path d="M 87.62884154613403, 95.41624446580829 Q 87.6151941412945, 95.500134575407, 87.58940015173893, 95.63759015301626 " fill="none" id="curve_298" stroke="#000000" stroke-linecap="round" stroke-linejoin="round" stroke-width="1.698936340750886"/>
  <path d="M 51.32706183646883, 93.73465684779848 Q 51.191191573106565, 94.86256277606095, 50.89751701968611, 96.41652811187893 " fill="none" id="curve_313" stroke="#000000" stroke-linecap="round" stroke-linejoin="round" stroke-width="2.1249693279701667"/>
  <path d="M 55.69816634010205, 29.87707557224156 Q 55.50205713823613, 30.191137680079347, 55.15689319363361, 30.637343611043853 " fill="none" id="curve_321" stroke="#000000" stroke-linecap="round" stroke-linejoin="round" stroke-width="2.452176052314214"/>
</svg>
