<?xml version="1.0" ?>
<svg height="140" width="140" xmlns="http://www.w3.org/2000/svg">
  <path d="M 55.813189207825346, 77.29727631860844 Q 50.03348032526062, 85.6759569497203, 31.724613248287113, 108.8840996749462 " fill="none" id="curve_4" stroke="#000000" stroke-linecap="round" stroke-linejoin="round" stroke-width="4.874866426864861"/>
  <path d="M 31.724613248287113, 108.8840996749462 Q 32.669405426104596, 113.98184652505215, 35.278690209655416, 117.00834324737416 " fill="none" id="curve_4" stroke="#000000" stroke-linecap="round" stroke-linejoin="round" stroke-width="5.086772089759051"/>
  <path d="M 35.278690209655416, 117.00834324737416 Q 57.66641963763128, 117.00289203057415, 69.59943300346443, 116.96989868847737 " fill="none" id="curve_4" stroke="#000000" stroke-linecap="round" stroke-linejoin="round" stroke-width="4.693127608444065"/>
  <path d="M 69.59943300346443, 116.96989868847737 Q 72.4314088460908, 117.25603687132083, 74.72613344537872, 117.73233536543783 " fill="none" id="curve_4" stroke="#000000" stroke-linecap="round" stroke-linejoin="round" stroke-width="4.6402103051449215"/>
  <path d="M 54.821631061327636, 78.52415617167549 Q 57.03452218475355, 78.0019981630418, 57.26984833059859, 68.42981341419781 " fill="none" id="curve_5" stroke="#000000" stroke-linecap="round" stroke-linejoin="round" stroke-width="4.213458802876082"/>
  <path d="M 57.26984833059859, 68.42981341419781 Q 32.35501895054636, 68.50701780074365, 30.797984712127832, 74.87136814403277 " fill="none" id="curve_5" stroke="#000000" stroke-linecap="round" stroke-linejoin="round" stroke-width="4.923371687101409"/>
  <path d="M 30.797984712127832, 74.87136814403277 Q 29.672845017685372, 75.73171163513258, 29.064870900363637, 78.37000710705149 " fill="none" id="curve_5" stroke="#000000" stroke-linecap="round" stroke-linejoin="round" stroke-width="3.682100497776673"/>
  <path d="M 29.064870900363637, 78.37000710705149 Q 30.718403898469028, 68.62500759540704, 50.263653054684866, 66.37401430353701 " fill="none" id="curve_5" stroke="#000000" stroke-linecap="round" stroke-linejoin="round" stroke-width="3.870371319970394"/>
  <path d="M 56.580912856161, 81.36456477762253 Q 49.03715457758039, 86.46261460290117, 38.241373338082425, 96.05359561225426 " fill="none" id="curve_6" stroke="#000000" stroke-linecap="round" stroke-linejoin="round" stroke-width="3.150361984973183"/>
  <path d="M 38.241373338082425, 96.05359561225426 Q 36.23474674103139, 104.95727754440695, 33.179153387571404, 112.7024736690484 " fill="none" id="curve_6" stroke="#000000" stroke-linecap="round" stroke-linejoin="round" stroke-width="3.520018524326886"/>
  <path d="M 31.5306317652819, 116.07598803900392 Q 32.44087938176788, 115.93907077321042, 33.085582276766225, 115.56001094677691 " fill="none" id="curve_7" stroke="#000000" stroke-linecap="round" stroke-linejoin="round" stroke-width="4.059686169642767"/>
  <path d="M 52.675664988699026, 66.10849020550023 Q 53.825775700096415, 66.66240638769406, 54.837433959078545, 68.4323051963213 " fill="none" id="curve_9" stroke="#000000" stroke-linecap="round" stroke-linejoin="round" stroke-width="3.3561947592457404"/>
  <path d="M 54.837433959078545, 68.4323051963213 Q 56.34240268008245, 71.08829362231782, 58.122128862612556, 76.02628955224182 " fill="none" id="curve_9" stroke="#000000" stroke-linecap="round" stroke-linejoin="round" stroke-width="3.1969825163767083"/>
  <path d="M 44.01034585484959, 92.1552068209367 Q 47.442876657480795, 88.34921581596231, 52.99827947741024, 84.49009098704178 " fill="none" id="curve_10" stroke="#000000" stroke-linecap="round" stroke-linejoin="round" stroke-width="3.2347519467478953"/>
  <path d="M 39.563010369202914, 69.34489598152238 Q 34.81483599823095, 71.96328824338116, 28.219011177560045, 75.14194454219921 " fill="none" id="curve_13" stroke="#000000" stroke-linecap="round" stroke-linejoin="round" stroke-width="3.3191995009623305"/>
  <path d="M 35.574429557636186, 100.95825373472869 Q 35.684707963363955, 101.65615427043825, 35.79233583577367, 102.92818364533186 " fill="none" id="curve_15" stroke="#000000" stroke-linecap="round" stroke-linejoin="round" stroke-width="5.589591081200138"/>
  <path d="M 51.7281245084695, 84.75850451244551 Q 48.22495882252344, 87.36122170953551, 43.71731600265522, 90.78866496202811 " fill="none" id="curve_16" stroke="#000000" stroke-linecap="round" stroke-linejoin="round" stroke-width="3.701849893809662"/>
  <path d="M 31.43926253456631, 74.5845236749065 Q 31.78455170841984, 71.8096521336757, 34.48639235184791, 70.58560845281889 " fill="none" id="curve_38" stroke="#000000" stroke-linecap="round" stroke-linejoin="round" stroke-width="3.811051704331099"/>
  <path d="M 34.48639235184791, 70.58560845281889 Q 32.539233758494916, 72.20469707941871, 29.599891828360526, 74.14923489999308 " fill="none" id="curve_38" stroke="#000000" stroke-linecap="round" stroke-linejoin="round" stroke-width="3.919269770780225"/>
  <path d="M 39.581344475629706, 100.83942188633526 Q 37.871392446002986, 101.75189769227048, 35.600017955790946, 103.38346290043654 " fill="none" id="curve_43" stroke="#000000" stroke-linecap="round" stroke-linejoin="round" stroke-width="3.9950518731839293"/>
  <path d="M 33.61357549581469, 72.77304994490225 Q 36.26884899686061, 70.89073698925446, 38.691106270456004, 67.55996127757786 " fill="none" id="curve_44" stroke="#000000" stroke-linecap="round" stroke-linejoin="round" stroke-width="3.1274206061018552"/>
  <path d="M 38.691106270456004, 67.55996127757786 Q 37.60862886691798, 72.48613328518447, 32.9446839411888, 73.88429471320325 " fill="none" id="curve_44" stroke="#000000" stroke-linecap="round" stroke-linejoin="round" stroke-width="3.2004659527203216"/>
</svg>
