<?xml version="1.0" ?>
<svg height="140" width="140" xmlns="http://www.w3.org/2000/svg">
  <path d="M 46.79179353477119, 97.97412469190337 Q 40.291371680105215, 99.2120046187639, 27.552766851115425, 101.26016577750643 " fill="none" id="curve_2" stroke="#000000" stroke-linecap="round" stroke-linejoin="round" stroke-width="6.459904952322566"/>
  <path d="M 27.552766851115425, 101.26016577750643 Q 23.425926157596866, 103.6086660814548, 7.173285701177093, 104.45881291407738 " fill="none" id="curve_2" stroke="#000000" stroke-linecap="round" stroke-linejoin="round" stroke-width="6.023040329075723"/>
  <path d="M 7.173285701177093, 104.45881291407738 Q 16.493729962256012, 96.7545633240301, 37.37013769324981, 75.81143014329851 " fill="none" id="curve_2" stroke="#000000" stroke-linecap="round" stroke-linejoin="round" stroke-width="5.314542617005418"/>
  <path d="M 37.37013769324981, 75.81143014329851 Q 38.921114287455474, 75.4461570880248, 39.00767060347256, 62.06987051162975 " fill="none" id="curve_2" stroke="#000000" stroke-linecap="round" stroke-linejoin="round" stroke-width="6.456730642034393"/>
  <path d="M 39.00767060347256, 62.06987051162975 Q 37.008092659538455, 58.14044597566322, 34.19636213556528, 53.25735538017747 " fill="none" id="curve_2" stroke="#000000" stroke-linecap="round" stroke-linejoin="round" stroke-width="4.744147919218217"/>
  <path d="M 34.19636213556528, 53.25735538017747 Q 19.654808153017555, 55.09887273280963, 14.304405479771642, 66.04510980857037 " fill="none" id="curve_2" stroke="#000000" stroke-linecap="round" stroke-linejoin="round" stroke-width="6.436470393186959"/>
  <path d="M 14.304405479771642, 66.04510980857037 Q 14.248992088478932, 68.94580317851958, 13.879401286559848, 69.69091328096299 " fill="none" id="curve_2" stroke="#000000" stroke-linecap="round" stroke-linejoin="round" stroke-width="2.9911236521411473"/>
  <path d="M 17.982291738968854, 57.72014409143636 Q 15.982699559923038, 58.76938569037562, 14.759268041196412, 61.76702772053962 " fill="none" id="curve_3" stroke="#000000" stroke-linecap="round" stroke-linejoin="round" stroke-width="3.885118892129499"/>
  <path d="M 7.780964597545315, 100.0274975296088 Q 14.663073200212525, 97.62534421029258, 21.302145394251724, 90.3807092914501 " fill="none" id="curve_4" stroke="#000000" stroke-linecap="round" stroke-linejoin="round" stroke-width="3.33068458904465"/>
  <path d="M 37.118949229468924, 73.73654752895536 Q 38.56765461792168, 70.63594913326595, 41.863271417436636, 68.36632312765293 " fill="none" id="curve_6" stroke="#000000" stroke-linecap="round" stroke-linejoin="round" stroke-width="3.7845711938306748"/>
  <path d="M 41.863271417436636, 68.36632312765293 Q 35.29478412711137, 73.17661233577793, 30.15818256540495, 82.60079958856925 " fill="none" id="curve_6" stroke="#000000" stroke-linecap="round" stroke-linejoin="round" stroke-width="3.2337351413662376"/>
  <path d="M 44.631374192550744, 96.79979399890425 Q 39.55251390646819, 97.15074742078204, 37.08685892717663, 99.22566576344668 " fill="none" id="curve_7" stroke="#000000" stroke-linecap="round" stroke-linejoin="round" stroke-width="2.7489299638944997"/>
  <path d="M 38.73970882030221, 62.17534368727501 Q 38.08625406740278, 54.94381114179404, 32.3899439948833, 53.067686736477384 " fill="none" id="curve_8" stroke="#000000" stroke-linecap="round" stroke-linejoin="round" stroke-width="4.128596500243851"/>
  <path d="M 32.3899439948833, 53.067686736477384 Q 34.76528958382447, 56.472798039019324, 37.321309166120116, 62.66470131306887 " fill="none" id="curve_8" stroke="#000000" stroke-linecap="round" stroke-linejoin="round" stroke-width="3.188115149577138"/>
  <path d="M 31.448870729091745, 52.726163162562706 Q 31.338667675866184, 52.617318122890204, 30.983712830658312, 52.437655797901236 " fill="none" id="curve_11" stroke="#000000" stroke-linecap="round" stroke-linejoin="round" stroke-width="2.924919785460547"/>
  <path d="M 7.742500837832512, 101.90090150898936 Q 12.789649024722987, 94.69120735544894, 27.157474086981704, 87.49987369657624 " fill="none" id="curve_13" stroke="#000000" stroke-linecap="round" stroke-linejoin="round" stroke-width="3.083823519404223"/>
  <path d="M 34.75012668407985, 81.72456147299464 Q 28.02338202197685, 87.73544514484523, 13.126596375838126, 94.41493025660134 " fill="none" id="curve_33" stroke="#000000" stroke-linecap="round" stroke-linejoin="round" stroke-width="3.2079694868773325"/>
  <path d="M 5.589268113314689, 102.61692512817396 Q 6.000119025380276, 102.53339707859584, 6.579317469104487, 102.38278670002292 " fill="none" id="curve_34" stroke="#000000" stroke-linecap="round" stroke-linejoin="round" stroke-width="2.8628056353725846"/>
  <path d="M 28.955834851120972, 51.76521410375788 Q 31.445853104720022, 52.45029879309367, 35.31120944408579, 53.797197914676644 " fill="none" id="curve_35" stroke="#000000" stroke-linecap="round" stroke-linejoin="round" stroke-width="2.8682809738718236"/>
  <path d="M 36.25090716704069, 55.20872579941515 Q 38.748625807797005, 56.168250634874745, 39.90555270875762, 59.77109918613062 " fill="none" id="curve_54" stroke="#000000" stroke-linecap="round" stroke-linejoin="round" stroke-width="3.0601231380018468"/>
  <path d="M 41.210320471372484, 72.6284409500019 Q 41.01226969132413, 71.3132190542588, 39.611634298535854, 70.66928900462972 " fill="none" id="curve_95" stroke="#000000" stroke-linecap="round" stroke-linejoin="round" stroke-width="3.064761294981162"/>
  <path d="M 25.35964545276223, 101.07434806022746 Q 24.619184130867012, 100.67546518809448, 18.466060938100867, 100.52234685524802 " fill="none" id="curve_96" stroke="#000000" stroke-linecap="round" stroke-linejoin="round" stroke-width="2.5416979385688787"/>
  <path d="M 20.32838949678475, 88.1290147618721 Q 24.81379013205934, 88.09602122940021, 26.69510892051656, 87.88959031655463 " fill="none" id="curve_97" stroke="#000000" stroke-linecap="round" stroke-linejoin="round" stroke-width="3.0854385348046978"/>
  <path d="M 45.528654463512794, 99.13791442310094 Q 43.501991393473894, 98.39477549343327, 39.624790413893436, 97.30207405730481 " fill="none" id="curve_138" stroke="#000000" stroke-linecap="round" stroke-linejoin="round" stroke-width="2.7494214235031187"/>
</svg>
