<?xml version="1.0" ?>
<svg height="140" width="140" xmlns="http://www.w3.org/2000/svg">
  <path d="M 38.50742483139038, 102.43668270111084 Q 39.14051846451076, 92.54359519789901, 46.118648087155975, 87.20581556983461 " fill="none" id="curve_1" stroke="#000000" stroke-linecap="round" stroke-linejoin="round" stroke-width="4.596096118028933"/>
  <path d="M 46.118648087155975, 87.20581556983461 Q 50.28216115735953, 80.15550975993412, 58.86259231868397, 65.02052717980189 " fill="none" id="curve_1" stroke="#000000" stroke-linecap="round" stroke-linejoin="round" stroke-width="3.192296507623975"/>
  <path d="M 58.86259231868397, 65.02052717980189 Q 60.61986042885198, 60.89953763647136, 62.00884287139497, 51.36642011885639 " fill="none" id="curve_1" stroke="#000000" stroke-linecap="round" stroke-linejoin="round" stroke-width="2.9967448713088016"/>
  <path d="M 62.00884287139497, 51.36642011885639 Q 60.746320632889486, 48.453766257007004, 55.42525327382363, 47.00897626142053 " fill="none" id="curve_1" stroke="#000000" stroke-linecap="round" stroke-linejoin="round" stroke-width="2.5557222570470595"/>
  <path d="M 55.42525327382363, 47.00897626142053 Q 46.504704975843424, 48.296774007340126, 34.7488461062468, 57.016080577535426 " fill="none" id="curve_1" stroke="#000000" stroke-linecap="round" stroke-linejoin="round" stroke-width="2.9141184547199797"/>
  <path d="M 34.7488461062468, 57.016080577535426 Q 29.615222131324852, 59.87032466402191, 17.734226714081437, 72.31565548705957 " fill="none" id="curve_1" stroke="#000000" stroke-linecap="round" stroke-linejoin="round" stroke-width="3.3147508207563994"/>
  <path d="M 17.734226714081437, 72.31565548705957 Q 19.139422473317588, 72.09481114021442, 20.16874263619816, 71.66203666859118 " fill="none" id="curve_1" stroke="#000000" stroke-linecap="round" stroke-linejoin="round" stroke-width="3.3049255192115017"/>
  <path d="M 44.30051715196184, 90.62073805772758 Q 40.80573736374748, 92.73405448632813, 39.913140026079304, 103.89716690292703 " fill="none" id="curve_2" stroke="#000000" stroke-linecap="round" stroke-linejoin="round" stroke-width="4.007099162223885"/>
  <path d="M 39.913140026079304, 103.89716690292703 Q 55.4705783686793, 103.8442401649088, 56.359327649522015, 101.36140081585981 " fill="none" id="curve_2" stroke="#000000" stroke-linecap="round" stroke-linejoin="round" stroke-width="3.466256117728985"/>
  <path d="M 46.02174093459993, 105.29512684395812 Q 37.351503013589365, 105.17167670087677, 36.69403586900378, 98.92186701155498 " fill="none" id="curve_3" stroke="#000000" stroke-linecap="round" stroke-linejoin="round" stroke-width="2.3743157906442542"/>
  <path d="M 36.69403586900378, 98.92186701155498 Q 38.411775032874715, 94.7969539193776, 43.258479186564024, 92.59617203725482 " fill="none" id="curve_3" stroke="#000000" stroke-linecap="round" stroke-linejoin="round" stroke-width="4.2089793306553025"/>
  <path d="M 43.258479186564024, 92.59617203725482 Q 43.31963733411951, 84.7413485790171, 46.416155558056126, 84.31790048150185 " fill="none" id="curve_3" stroke="#000000" stroke-linecap="round" stroke-linejoin="round" stroke-width="2.541008261972276"/>
  <path d="M 54.5762747435876, 72.69429463305923 Q 56.94813701300703, 68.14877934807949, 59.37898219437019, 60.79354883910247 " fill="none" id="curve_4" stroke="#000000" stroke-linecap="round" stroke-linejoin="round" stroke-width="2.8866311661985407"/>
  <path d="M 49.31127988895221, 48.75024666969099 Q 49.65788267912408, 49.07083884737421, 50.093204293442675, 49.53652309869591 " fill="none" id="curve_6" stroke="#000000" stroke-linecap="round" stroke-linejoin="round" stroke-width="2.72799551048517"/>
  <path d="M 89.16025944456771, 1.5533278051240837 Q 89.17308935944615, 1.720566231195394, 89.18616744871457, 2.056258981819499 " fill="none" id="curve_21" stroke="#000000" stroke-linecap="round" stroke-linejoin="round" stroke-width="2.8462725055682614"/>
  <path d="M 44.08329003546109, 50.83780786872625 Q 43.871093436670414, 51.149602785652505, 43.10336640820658, 51.571142169685196 " fill="none" id="curve_79" stroke="#000000" stroke-linecap="round" stroke-linejoin="round" stroke-width="1.970545280430564"/>
</svg>
