<?xml version="1.0" ?>
<svg height="140" width="140" xmlns="http://www.w3.org/2000/svg">
  <path d="M 29.35934829711914, 103.46257019042969 Q 27.67812304066364, 104.3410930229319, 26.302491687785107, 106.30206117267196 " fill="none" id="curve_1" stroke="#000000" stroke-linecap="round" stroke-linejoin="round" stroke-width="5.1249038254442"/>
  <path d="M 26.302491687785107, 106.30206117267196 Q 29.083718552668017, 105.00805639118312, 33.73941165730242, 103.6804000209959 " fill="none" id="curve_1" stroke="#000000" stroke-linecap="round" stroke-linejoin="round" stroke-width="7.731276798707275"/>
  <path d="M 33.73941165730242, 103.6804000209959 Q 39.69320262452297, 97.24597066513854, 52.10556539690941, 83.61650308469696 " fill="none" id="curve_1" stroke="#000000" stroke-linecap="round" stroke-linejoin="round" stroke-width="5.575008542151181"/>
  <path d="M 52.10556539690941, 83.61650308469696 Q 59.862056660255064, 79.2583882536149, 64.9122483056782, 63.416570653375445 " fill="none" id="curve_1" stroke="#000000" stroke-linecap="round" stroke-linejoin="round" stroke-width="4.637842153274022"/>
  <path d="M 64.9122483056782, 63.416570653375445 Q 64.82410616195729, 42.74350664528433, 54.86177221111414, 41.98036347396692 " fill="none" id="curve_1" stroke="#000000" stroke-linecap="round" stroke-linejoin="round" stroke-width="5.351383540748772"/>
  <path d="M 54.86177221111414, 41.98036347396692 Q 46.62512709896876, 46.651687316081606, 42.08381599636224, 74.35528470680372 " fill="none" id="curve_1" stroke="#000000" stroke-linecap="round" stroke-linejoin="round" stroke-width="4.653182578149996"/>
  <path d="M 36.30394223838475, 104.86596701779173 Q 58.10374851483262, 104.92207939691673, 68.00425623890857, 105.1005516132857 " fill="none" id="curve_2" stroke="#000000" stroke-linecap="round" stroke-linejoin="round" stroke-width="5.813051206624786"/>
  <path d="M 68.00425623890857, 105.1005516132857 Q 66.8436328981209, 103.26674524859123, 34.308870536737935, 102.99620087253963 " fill="none" id="curve_2" stroke="#000000" stroke-linecap="round" stroke-linejoin="round" stroke-width="3.6199693642085857"/>
  <path d="M 66.2478468283582, 54.104869014695865 Q 65.88789296467864, 43.456227369170904, 56.17491368129019, 41.75494213120087 " fill="none" id="curve_4" stroke="#000000" stroke-linecap="round" stroke-linejoin="round" stroke-width="2.9611058687351437"/>
  <path d="M 56.17491368129019, 41.75494213120087 Q 47.87146399142033, 43.81653216230259, 43.859897450706804, 55.979701740708094 " fill="none" id="curve_4" stroke="#000000" stroke-linecap="round" stroke-linejoin="round" stroke-width="2.9909556161033004"/>
  <path d="M 42.92217313982035, 76.58388856021863 Q 42.97928885680704, 76.53469577360863, 43.00583532318554, 76.33783016202365 " fill="none" id="curve_5" stroke="#000000" stroke-linecap="round" stroke-linejoin="round" stroke-width="4.146253512800134"/>
  <path d="M 54.53502007497017, 78.58690099072517 Q 58.1500378417369, 77.38646888279547, 60.31858298216902, 73.69098465242728 " fill="none" id="curve_6" stroke="#000000" stroke-linecap="round" stroke-linejoin="round" stroke-width="2.801820564251078"/>
  <path d="M 57.93447238370854, 40.41683799201383 Q 57.15676216449574, 40.63831191065074, 55.795449585420485, 40.858625089909005 " fill="none" id="curve_8" stroke="#000000" stroke-linecap="round" stroke-linejoin="round" stroke-width="3.4309867992565133"/>
  <path d="M 59.13988910136758, 76.52560745981361 Q 62.05034810918328, 68.6679400501849, 66.6069065422242, 56.02726773204383 " fill="none" id="curve_9" stroke="#000000" stroke-linecap="round" stroke-linejoin="round" stroke-width="3.1456423439716894"/>
  <path d="M 64.66433157277234, 62.720279381508846 Q 64.80814500598437, 62.887971387150486, 65.1099668890699, 63.29011881850892 " fill="none" id="curve_13" stroke="#000000" stroke-linecap="round" stroke-linejoin="round" stroke-width="3.05002652790328"/>
  <path d="M 63.753414961507275, 62.481904687449656 Q 63.588382793206904, 64.84857077381737, 63.11222932133228, 67.32597131147381 " fill="none" id="curve_18" stroke="#000000" stroke-linecap="round" stroke-linejoin="round" stroke-width="3.3079712093426146"/>
  <path d="M 57.75977125797318, 44.00514819616746 Q 52.95859645305112, 44.204311987898556, 51.47001218665034, 46.15485481751101 " fill="none" id="curve_46" stroke="#000000" stroke-linecap="round" stroke-linejoin="round" stroke-width="1.9710454257611787"/>
  <path d="M 36.78217163960217, 97.46458908594096 Q 33.99210729407268, 100.21888276345268, 30.115078321207843, 103.1524000155774 " fill="none" id="curve_48" stroke="#000000" stroke-linecap="round" stroke-linejoin="round" stroke-width="3.745086513415424"/>
  <path d="M 47.76995936239951, 89.3626443022907 Q 53.37310811191881, 82.97087697574693, 61.064246934462574, 72.81195002668645 " fill="none" id="curve_51" stroke="#000000" stroke-linecap="round" stroke-linejoin="round" stroke-width="2.6313524350164714"/>
  <path d="M 48.69126655739185, 89.69128747485993 Q 51.853337105295225, 86.31106238875411, 54.91281589615925, 78.09809283995352 " fill="none" id="curve_67" stroke="#000000" stroke-linecap="round" stroke-linejoin="round" stroke-width="2.651090947211002"/>
  <path d="M 62.055818099496854, 66.90799216931765 Q 63.39503989940201, 63.653642948000936, 66.57062647261989, 61.26600913368448 " fill="none" id="curve_70" stroke="#000000" stroke-linecap="round" stroke-linejoin="round" stroke-width="2.75352901071337"/>
</svg>
