<?xml version="1.0" ?>
<svg height="140" width="140" xmlns="http://www.w3.org/2000/svg">
  <path d="M 27.85069465637207, 97.51079845428467 Q 28.402975355827905, 89.14519212467812, 33.92597884312272, 84.77093042795377 " fill="none" id="curve_1" stroke="#000000" stroke-linecap="round" stroke-linejoin="round" stroke-width="6.955700641540453"/>
  <path d="M 33.92597884312272, 84.77093042795377 Q 38.32498489947386, 78.15994430110403, 49.33585825074638, 63.68353516520315 " fill="none" id="curve_1" stroke="#000000" stroke-linecap="round" stroke-linejoin="round" stroke-width="4.926385242393778"/>
  <path d="M 49.33585825074638, 63.68353516520315 Q 54.28744136732118, 58.79870458713329, 58.16599157137369, 46.166392047543624 " fill="none" id="curve_1" stroke="#000000" stroke-linecap="round" stroke-linejoin="round" stroke-width="5.162469054121225"/>
  <path d="M 58.16599157137369, 46.166392047543624 Q 56.70430366886387, 44.120102648452814, 52.08603794756224, 43.01238060294843 " fill="none" id="curve_1" stroke="#000000" stroke-linecap="round" stroke-linejoin="round" stroke-width="5.143155131014865"/>
  <path d="M 52.08603794756224, 43.01238060294843 Q 39.03896476478377, 45.955913675070406, 25.1942791741866, 59.967057528329335 " fill="none" id="curve_1" stroke="#000000" stroke-linecap="round" stroke-linejoin="round" stroke-width="5.413789789069104"/>
  <path d="M 58.131029698090686, 89.87496260921628 Q 64.2791032285101, 88.81907100691737, 68.00015214285592, 85.03196957585644 " fill="none" id="curve_2" stroke="#000000" stroke-linecap="round" stroke-linejoin="round" stroke-width="3.9590696337856404"/>
  <path d="M 68.00015214285592, 85.03196957585644 Q 62.50610138474599, 88.2977019529699, 53.522510052673624, 92.30958674870422 " fill="none" id="curve_2" stroke="#000000" stroke-linecap="round" stroke-linejoin="round" stroke-width="5.074676123289832"/>
  <path d="M 53.522510052673624, 92.30958674870422 Q 47.442152289062484, 96.8656974196843, 33.48428150047096, 100.89372149861373 " fill="none" id="curve_2" stroke="#000000" stroke-linecap="round" stroke-linejoin="round" stroke-width="5.567079190121556"/>
  <path d="M 33.48428150047096, 100.89372149861373 Q 28.55092859059664, 100.61274204295232, 27.490103944879856, 98.4355430987693 " fill="none" id="curve_2" stroke="#000000" stroke-linecap="round" stroke-linejoin="round" stroke-width="5.447441688500201"/>
  <path d="M 27.490103944879856, 98.4355430987693 Q 27.805994336610432, 92.68101738528588, 30.05309923202702, 91.58707806752606 " fill="none" id="curve_2" stroke="#000000" stroke-linecap="round" stroke-linejoin="round" stroke-width="4.306300150435157"/>
  <path d="M 24.590327434268694, 58.40108492214067 Q 30.605095048926124, 51.02914963303436, 47.258054836057305, 43.56183288965823 " fill="none" id="curve_3" stroke="#000000" stroke-linecap="round" stroke-linejoin="round" stroke-width="2.7408331531821504"/>
  <path d="M 50.01280353013625, 61.42238400019774 Q 50.89978989805713, 56.59690902331338, 56.570329210909044, 54.75194842487157 " fill="none" id="curve_4" stroke="#000000" stroke-linecap="round" stroke-linejoin="round" stroke-width="2.439469502008722"/>
  <path d="M 47.81649815276015, 43.01855119968272 Q 37.93753769044424, 45.00833615538657, 30.507600478659807, 52.94126838318284 " fill="none" id="curve_5" stroke="#000000" stroke-linecap="round" stroke-linejoin="round" stroke-width="2.8282600309628747"/>
  <path d="M 28.52543689692515, 59.306787066831724 Q 25.4873335166442, 59.57556345992976, 23.466168324641178, 60.35207517819018 " fill="none" id="curve_7" stroke="#000000" stroke-linecap="round" stroke-linejoin="round" stroke-width="2.7671022321796386"/>
  <path d="M 29.077117190537898, 93.26394565329733 Q 29.33955593718197, 90.17849068295023, 30.415056452967274, 88.91121911094129 " fill="none" id="curve_8" stroke="#000000" stroke-linecap="round" stroke-linejoin="round" stroke-width="3.915805499556611"/>
  <path d="M 31.409370212562862, 98.18009622088084 Q 30.329922451127054, 97.59644885683451, 28.5344242754788, 96.74787684415571 " fill="none" id="curve_23" stroke="#000000" stroke-linecap="round" stroke-linejoin="round" stroke-width="2.8800210165928504"/>
  <path d="M 28.5344242754788, 96.74787684415571 Q 28.641344054010958, 89.44111063920708, 31.741998106542763, 88.8495369778872 " fill="none" id="curve_23" stroke="#000000" stroke-linecap="round" stroke-linejoin="round" stroke-width="3.2840703007682044"/>
  <path d="M 31.741998106542763, 88.8495369778872 Q 29.61741552672725, 88.97127887389179, 29.02363367048879, 90.27491611480188 " fill="none" id="curve_23" stroke="#000000" stroke-linecap="round" stroke-linejoin="round" stroke-width="3.9222463086739197"/>
  <path d="M 40.745236574212726, 97.49958975540987 Q 42.39451919132653, 97.24850757912715, 44.49263683654938, 96.80349217668002 " fill="none" id="curve_24" stroke="#000000" stroke-linecap="round" stroke-linejoin="round" stroke-width="3.4443556513937654"/>
  <path d="M 55.533811024840745, 47.25814245800048 Q 56.71622086002766, 45.061323699170885, 58.246685020996615, 41.79928008418962 " fill="none" id="curve_41" stroke="#000000" stroke-linecap="round" stroke-linejoin="round" stroke-width="2.766866042231552"/>
  <path d="M 50.785797119140625, 93.13288152217865 Q 47.32705939809668, 96.25151902630311, 33.799476269618935, 98.79713902882725 " fill="none" id="curve_55" stroke="#000000" stroke-linecap="round" stroke-linejoin="round" stroke-width="3.1529226615157175"/>
</svg>
