<?xml version="1.0" ?>
<svg height="140" width="140" xmlns="http://www.w3.org/2000/svg">
  <path d="M 52.43206024169922, 46.66968536376953 Q 50.92191156601125, 42.53448634215645, 45.509154950568586, 38.97147063032195 " fill="none" id="curve_1" stroke="#000000" stroke-linecap="round" stroke-linejoin="round" stroke-width="6.044131198752373"/>
  <path d="M 45.509154950568586, 38.97147063032195 Q 39.38761445300568, 42.66687401012007, 27.8219092430505, 61.807907887755164 " fill="none" id="curve_1" stroke="#000000" stroke-linecap="round" stroke-linejoin="round" stroke-width="5.296512538957662"/>
  <path d="M 27.8219092430505, 61.807907887755164 Q 26.69933032917859, 62.744198431223666, 26.181591400443473, 66.22888787847421 " fill="none" id="curve_1" stroke="#000000" stroke-linecap="round" stroke-linejoin="round" stroke-width="6.214805522256441"/>
  <path d="M 51.64223174200187, 49.428837624916426 Q 50.549046328216306, 69.25514481835948, 37.59727822645858, 85.43125282174417 " fill="none" id="curve_2" stroke="#000000" stroke-linecap="round" stroke-linejoin="round" stroke-width="6.422534876744148"/>
  <path d="M 37.59727822645858, 85.43125282174417 Q 32.93633613185711, 98.23647695633935, 14.956583244760964, 107.1745757634016 " fill="none" id="curve_2" stroke="#000000" stroke-linecap="round" stroke-linejoin="round" stroke-width="6.337640884621203"/>
  <path d="M 14.956583244760964, 107.1745757634016 Q 16.766042423618117, 103.90131549495841, 38.31174285531256, 103.2899339548914 " fill="none" id="curve_2" stroke="#000000" stroke-linecap="round" stroke-linejoin="round" stroke-width="5.316802884891432"/>
  <path d="M 38.31174285531256, 103.2899339548914 Q 53.618470483968174, 103.07050021956586, 63.191876058607676, 102.58025829885729 " fill="none" id="curve_2" stroke="#000000" stroke-linecap="round" stroke-linejoin="round" stroke-width="4.372650656138049"/>
  <path d="M 89.51734103429763, 109.69164987360544 Q 88.22956194287015, 112.49855051586268, 87.95515119125577, 138.48636270751965 " fill="none" id="curve_3" stroke="#000000" stroke-linecap="round" stroke-linejoin="round" stroke-width="4.7909694084299055"/>
  <path d="M 88.20230396540651, 110.25563875800881 Q 88.45633771341386, 108.66838057586982, 88.5499541673545, 82.51123573090696 " fill="none" id="curve_4" stroke="#000000" stroke-linecap="round" stroke-linejoin="round" stroke-width="4.321815449863846"/>
  <path d="M 88.5499541673545, 82.51123573090696 Q 88.50703538145594, 71.00881925212599, 88.2869669057909, 56.66935611464294 " fill="none" id="curve_4" stroke="#000000" stroke-linecap="round" stroke-linejoin="round" stroke-width="4.268601691713841"/>
  <path d="M 88.2869669057909, 56.66935611464294 Q 88.3400448644555, 53.10922070224733, 88.39392338945657, 29.908355946623708 " fill="none" id="curve_4" stroke="#000000" stroke-linecap="round" stroke-linejoin="round" stroke-width="4.487181118802985"/>
  <path d="M 88.39392338945657, 29.908355946623708 Q 88.35870219990082, 22.559034648773334, 88.27534787148988, 2.3322905252140167 " fill="none" id="curve_4" stroke="#000000" stroke-linecap="round" stroke-linejoin="round" stroke-width="4.318664634784234"/>
  <path d="M 88.27534787148988, 2.3322905252140167 Q 87.52285571005385, 2.2241841342127744, 86.76712806908961, 2.0731587567789784 " fill="none" id="curve_4" stroke="#000000" stroke-linecap="round" stroke-linejoin="round" stroke-width="4.2912327919784445"/>
  <path d="M 47.86156930329899, 42.82741538767985 Q 49.688411067455974, 43.693520578835454, 49.86439258724041, 59.914122726908076 " fill="none" id="curve_5" stroke="#000000" stroke-linecap="round" stroke-linejoin="round" stroke-width="3.957469436593684"/>
  <path d="M 49.86439258724041, 59.914122726908076 Q 44.499252721420895, 73.02465488627398, 32.288819659340845, 91.31586054536031 " fill="none" id="curve_5" stroke="#000000" stroke-linecap="round" stroke-linejoin="round" stroke-width="2.848509152994907"/>
  <path d="M 47.60955383492785, 66.58135472845797 Q 48.61890907764782, 60.1802402368102, 49.887824703161115, 51.5869227972056 " fill="none" id="curve_6" stroke="#000000" stroke-linecap="round" stroke-linejoin="round" stroke-width="3.621437403381482"/>
  <path d="M 49.887824703161115, 51.5869227972056 Q 49.72638481994833, 42.42183143503306, 48.30891341463538, 40.334503305379684 " fill="none" id="curve_6" stroke="#000000" stroke-linecap="round" stroke-linejoin="round" stroke-width="3.6083065910139576"/>
  <path d="M 48.30891341463538, 40.334503305379684 Q 38.7200845071336, 42.86194044124142, 32.31235648804443, 51.5526836661436 " fill="none" id="curve_6" stroke="#000000" stroke-linecap="round" stroke-linejoin="round" stroke-width="2.6837570179818364"/>
  <path d="M 44.53685000494445, 44.92607966470956 Q 46.01424249849221, 43.952261588459045, 49.0376736185308, 42.519971950533574 " fill="none" id="curve_14" stroke="#000000" stroke-linecap="round" stroke-linejoin="round" stroke-width="4.759198809484497"/>
  <path d="M 49.0376736185308, 42.519971950533574 Q 46.56316318942796, 42.182049933168535, 40.71035693793805, 41.5832649292939 " fill="none" id="curve_14" stroke="#000000" stroke-linecap="round" stroke-linejoin="round" stroke-width="3.3156669036209387"/>
  <path d="M 49.86223854324106, 104.010542317392 Q 31.898476852363377, 103.58032374684649, 22.431539795683246, 101.58619967641364 " fill="none" id="curve_18" stroke="#000000" stroke-linecap="round" stroke-linejoin="round" stroke-width="3.2579921781899297"/>
  <path d="M 33.66095664132692, 91.54872725573847 Q 28.14728218346874, 93.81239219763461, 25.131640717121638, 100.55229110127843 " fill="none" id="curve_19" stroke="#000000" stroke-linecap="round" stroke-linejoin="round" stroke-width="3.8966381167154553"/>
  <path d="M 29.440904660708984, 56.81508043471686 Q 27.341266260371107, 59.834609198039786, 25.26325068236937, 64.92357611318977 " fill="none" id="curve_21" stroke="#000000" stroke-linecap="round" stroke-linejoin="round" stroke-width="3.386669551283868"/>
  <path d="M 47.341220611036704, 61.34025859540316 Q 49.20655277752668, 60.906013483185596, 50.83328686995826, 59.01632842994778 " fill="none" id="curve_22" stroke="#000000" stroke-linecap="round" stroke-linejoin="round" stroke-width="3.8972793866797404"/>
  <path d="M 44.75033523065819, 67.86421861670142 Q 50.47969457803564, 67.33323333431643, 51.27375575738114, 58.74967023047226 " fill="none" id="curve_25" stroke="#000000" stroke-linecap="round" stroke-linejoin="round" stroke-width="4.192108347173949"/>
  <path d="M 49.42373282759708, 40.06040943436177 Q 45.85292243426871, 40.2871698074655, 41.115723559422804, 40.81250493151486 " fill="none" id="curve_26" stroke="#000000" stroke-linecap="round" stroke-linejoin="round" stroke-width="3.1633396365952304"/>
  <path d="M 47.699482404753915, 102.23398651281549 Q 34.33119884895595, 103.2784035704411, 16.252277639035842, 105.80665041652696 " fill="none" id="curve_29" stroke="#000000" stroke-linecap="round" stroke-linejoin="round" stroke-width="2.577655061014376"/>
  <path d="M 88.52766107954719, 138.72583205243376 Q 88.51844551145534, 138.6166604342689, 88.50451239731534, 138.46643540748673 " fill="none" id="curve_34" stroke="#000000" stroke-linecap="round" stroke-linejoin="round" stroke-width="3.473788070498972"/>
  <path d="M 87.89554360250165, 114.62725643666629 Q 87.92883002222999, 111.00732135909293, 87.97198422155242, 105.30782072063836 " fill="none" id="curve_35" stroke="#000000" stroke-linecap="round" stroke-linejoin="round" stroke-width="2.363004108999849"/>
  <path d="M 88.04846806216715, 74.2874925712936 Q 87.93713705159638, 76.68494173963568, 87.81044268461434, 81.48645709978749 " fill="none" id="curve_36" stroke="#000000" stroke-linecap="round" stroke-linejoin="round" stroke-width="2.1492198221704717"/>
  <path d="M 15.235997695685978, 106.23350957788793 Q 14.210980535976313, 106.25178452410022, 13.166789063363202, 106.28190424886932 " fill="none" id="curve_42" stroke="#000000" stroke-linecap="round" stroke-linejoin="round" stroke-width="4.252438502990116"/>
  <path d="M 46.380672280380715, 103.85237863824386 Q 38.03105162774936, 103.80707469616986, 23.47955264785287, 103.73876668500483 " fill="none" id="curve_43" stroke="#000000" stroke-linecap="round" stroke-linejoin="round" stroke-width="3.209796560717527"/>
  <path d="M 24.0121493740947, 104.95192057714026 Q 25.957230791459796, 103.51784421708899, 47.49267394654095, 103.22207531446097 " fill="none" id="curve_45" stroke="#000000" stroke-linecap="round" stroke-linejoin="round" stroke-width="3.6039742941893675"/>
  <path d="M 38.07317719545318, 44.40821929655282 Q 37.711933379937996, 44.861950269754715, 37.29511097432442, 46.00201777811528 " fill="none" id="curve_47" stroke="#000000" stroke-linecap="round" stroke-linejoin="round" stroke-width="3.4458111125881077"/>
  <path d="M 43.20180430788668, 106.00056982254654 Q 43.21066166355996, 105.18343539805514, 43.22799446206032, 104.16632481395243 " fill="none" id="curve_54" stroke="#000000" stroke-linecap="round" stroke-linejoin="round" stroke-width="3.9729440175904074"/>
  <path d="M 35.203857284495264, 46.58266490583085 Q 38.178991997231684, 42.87941375473649, 46.51153297036556, 39.759727884689624 " fill="none" id="curve_63" stroke="#000000" stroke-linecap="round" stroke-linejoin="round" stroke-width="2.4124863807303867"/>
  <path d="M 46.51153297036556, 39.759727884689624 Q 47.78421020520116, 39.29614219193841, 48.997986070384435, 38.46472466797716 " fill="none" id="curve_63" stroke="#000000" stroke-linecap="round" stroke-linejoin="round" stroke-width="3.2716869812510536"/>
  <path d="M 47.71700528559825, 65.8405463683979 Q 47.61898916835732, 64.41407022235231, 47.37016661590371, 62.89896646874807 " fill="none" id="curve_78" stroke="#000000" stroke-linecap="round" stroke-linejoin="round" stroke-width="4.682975074294017"/>
  <path d="M 37.60151226437503, 89.04910845543768 Q 42.434737664564544, 81.11464447692231, 48.668752781031344, 63.6643481709591 " fill="none" id="curve_98" stroke="#000000" stroke-linecap="round" stroke-linejoin="round" stroke-width="2.8863219475795474"/>
  <path d="M 12.554877696652769, 106.71075218244707 Q 13.447082755456282, 106.66761486676343, 14.387735622111903, 106.57014731156734 " fill="none" id="curve_135" stroke="#000000" stroke-linecap="round" stroke-linejoin="round" stroke-width="2.7950175915420434"/>
  <path d="M 46.00772484011191, 69.36163262445439 Q 47.031239344485996, 66.44239171315085, 50.31602217009931, 64.82391364963436 " fill="none" id="curve_150" stroke="#000000" stroke-linecap="round" stroke-linejoin="round" stroke-width="4.085643340949263"/>
  <path d="M 88.04035597992078, 73.06199989997286 Q 87.8676252006205, 77.14223192139652, 87.68268982034857, 82.7120094757775 " fill="none" id="curve_197" stroke="#000000" stroke-linecap="round" stroke-linejoin="round" stroke-width="2.1597096480974467"/>
  <path d="M 87.49514494433335, 97.13316187943742 Q 87.88501700934877, 92.90723137222969, 88.44467692585269, 87.86560446199168 " fill="none" id="curve_198" stroke="#000000" stroke-linecap="round" stroke-linejoin="round" stroke-width="2.4456384204084873"/>
</svg>
