<?xml version="1.0" ?>
<svg height="140" width="140" xmlns="http://www.w3.org/2000/svg">
  <path d="M 73.28103637695312, 78.01490783691406 Q 70.03502098135289, 81.58652384356411, 59.09845886937637, 83.97264704247277 " fill="none" id="curve_1" stroke="#000000" stroke-linecap="round" stroke-linejoin="round" stroke-width="9.35189891669919"/>
  <path d="M 59.09845886937637, 83.97264704247277 Q 49.16110451672503, 83.60831304692992, 46.79480236139974, 80.09696284546376 " fill="none" id="curve_1" stroke="#000000" stroke-linecap="round" stroke-linejoin="round" stroke-width="7.960029792867797"/>
  <path d="M 46.79480236139974, 80.09696284546376 Q 50.1699853104049, 71.28696792625084, 61.03260977065814, 63.13907708138264 " fill="none" id="curve_1" stroke="#000000" stroke-linecap="round" stroke-linejoin="round" stroke-width="7.275329001690056"/>
  <path d="M 61.03260977065814, 63.13907708138264 Q 60.810551513528935, 52.447392309098554, 42.572229480670984, 51.924647673722646 " fill="none" id="curve_1" stroke="#000000" stroke-linecap="round" stroke-linejoin="round" stroke-width="6.3231136557586245"/>
  <path d="M 42.572229480670984, 51.924647673722646 Q 54.96793040014816, 53.22102826858434, 63.09198800156039, 55.55956749627279 " fill="none" id="curve_1" stroke="#000000" stroke-linecap="round" stroke-linejoin="round" stroke-width="3.174293675224378"/>
  <path d="M 73.00187870570113, 80.29598214350824 Q 72.06946986738532, 82.11181848371334, 68.43600296919433, 82.77016525450415 " fill="none" id="curve_2" stroke="#000000" stroke-linecap="round" stroke-linejoin="round" stroke-width="6.313507184509026"/>
  <path d="M 1.868746055068769, 54.123270779275096 Q 2.479877125470001, 56.43786122627866, 2.656490644325874, 84.19830185031608 " fill="none" id="curve_4" stroke="#000000" stroke-linecap="round" stroke-linejoin="round" stroke-width="3.2759370656938347"/>
  <path d="M 2.656490644325874, 84.19830185031608 Q 2.6134175374773476, 94.40914142642389, 2.3943823151495867, 119.53574207155151 " fill="none" id="curve_4" stroke="#000000" stroke-linecap="round" stroke-linejoin="round" stroke-width="4.15259821161247"/>
  <path d="M 2.3943823151495867, 119.53574207155151 Q 2.5854350262669827, 135.91806878386737, 4.254678742968813, 138.41276257571647 " fill="none" id="curve_4" stroke="#000000" stroke-linecap="round" stroke-linejoin="round" stroke-width="4.0280575094597575"/>
  <path d="M 4.254678742968813, 138.41276257571647 Q 5.813983550529231, 138.35592654999306, 8.521760529448393, 138.31409366348274 " fill="none" id="curve_4" stroke="#000000" stroke-linecap="round" stroke-linejoin="round" stroke-width="3.3184090593746425"/>
  <path d="M 2.3955271164686263, 137.9865745175793 Q 2.6240979262104567, 137.49820215044159, 2.946563748814405, 136.75768186665698 " fill="none" id="curve_5" stroke="#000000" stroke-linecap="round" stroke-linejoin="round" stroke-width="3.7379866719606696"/>
  <path d="M 2.8615640819000423, 52.512283131743004 Q 2.456574726109985, 49.510273109322114, 2.2114751880729697, 23.92424019617296 " fill="none" id="curve_7" stroke="#000000" stroke-linecap="round" stroke-linejoin="round" stroke-width="2.7404906064153725"/>
  <path d="M 2.2114751880729697, 23.92424019617296 Q 2.1560206028671205, 10.232390785220344, 1.8586475599481072, 1.5644933652703834 " fill="none" id="curve_7" stroke="#000000" stroke-linecap="round" stroke-linejoin="round" stroke-width="2.579212974737504"/>
  <path d="M 1.8586475599481072, 1.5644933652703834 Q 2.0832459433304615, 1.648668992010297, 2.5839748027646228, 1.7929723980881906 " fill="none" id="curve_7" stroke="#000000" stroke-linecap="round" stroke-linejoin="round" stroke-width="1.3514295417642255"/>
  <path d="M 41.714172132961565, 49.6156791443348 Q 40.42378638382784, 50.36677813226871, 39.58168094091451, 52.34209567060937 " fill="none" id="curve_9" stroke="#000000" stroke-linecap="round" stroke-linejoin="round" stroke-width="4.569677195265423"/>
  <path d="M 44.15577774162513, 77.39417382842404 Q 48.57246984499352, 74.50412240207444, 54.1864705846867, 69.69151857919981 " fill="none" id="curve_11" stroke="#000000" stroke-linecap="round" stroke-linejoin="round" stroke-width="3.2089170794968584"/>
  <path d="M 54.1864705846867, 69.69151857919981 Q 56.172929714711124, 62.402225010172245, 62.35287256663993, 57.7102853853389 " fill="none" id="curve_11" stroke="#000000" stroke-linecap="round" stroke-linejoin="round" stroke-width="3.8889500882832024"/>
  <path d="M 73.68727845516842, 78.2176070752117 Q 72.61262571136777, 78.42019131527849, 71.51770308121857, 78.84775902954819 " fill="none" id="curve_12" stroke="#000000" stroke-linecap="round" stroke-linejoin="round" stroke-width="4.272701673686106"/>
  <path d="M 3.160895483011373, 81.04327790087635 Q 3.0942234190939377, 72.85634157656706, 2.532892575626261, 70.49048847754564 " fill="none" id="curve_14" stroke="#000000" stroke-linecap="round" stroke-linejoin="round" stroke-width="2.1285495302052913"/>
  <path d="M 49.407470603624574, 54.466211951519504 Q 55.32864752480165, 56.96722346287418, 63.75084934245821, 58.83262809506799 " fill="none" id="curve_19" stroke="#000000" stroke-linecap="round" stroke-linejoin="round" stroke-width="3.767255947086356"/>
  <path d="M 44.624423912590096, 48.609365288309846 Q 43.61473192070622, 49.555058462797405, 41.219888206780865, 50.36412500386309 " fill="none" id="curve_20" stroke="#000000" stroke-linecap="round" stroke-linejoin="round" stroke-width="2.855352023001935"/>
  <path d="M 47.05002745907795, 85.35975670400953 Q 48.18970027926488, 85.89338264965185, 55.64427757444433, 86.07464151909909 " fill="none" id="curve_21" stroke="#000000" stroke-linecap="round" stroke-linejoin="round" stroke-width="2.7214697921782145"/>
  <path d="M 3.0251078093668156, 97.80039092786942 Q 2.0843432609858317, 102.5789313116742, 1.6019975395950887, 122.42395997283816 " fill="none" id="curve_25" stroke="#000000" stroke-linecap="round" stroke-linejoin="round" stroke-width="1.8836522794639063"/>
  <path d="M 4.352305433509108, 133.83705400206796 Q 4.869580831186758, 134.62040757313463, 5.239276269138077, 136.3450454334162 " fill="none" id="curve_27" stroke="#000000" stroke-linecap="round" stroke-linejoin="round" stroke-width="3.0296865082456725"/>
  <path d="M 2.027406029060417, 137.01425198888913 Q 1.958157417990455, 132.35606276589849, 1.8666154744389452, 123.85419928179324 " fill="none" id="curve_28" stroke="#000000" stroke-linecap="round" stroke-linejoin="round" stroke-width="1.7387100912785338"/>
  <path d="M 67.84109249820665, 82.86193945203291 Q 65.23662080508541, 85.04316936586733, 59.76851428153163, 86.86846259793019 " fill="none" id="curve_43" stroke="#000000" stroke-linecap="round" stroke-linejoin="round" stroke-width="3.137278843820276"/>
  <path d="M 59.26840551503351, 69.08868740415144 Q 52.96227202629219, 71.62434299450548, 46.06861580648405, 74.72956038809905 " fill="none" id="curve_45" stroke="#000000" stroke-linecap="round" stroke-linejoin="round" stroke-width="4.062991880679039"/>
  <path d="M 1.3838652279131116, 23.32064543926732 Q 1.479280425327293, 19.86977656902271, 1.5691427147039843, 9.773338902817558 " fill="none" id="curve_69" stroke="#000000" stroke-linecap="round" stroke-linejoin="round" stroke-width="1.7225818020678547"/>
  <path d="M 1.3538998809798657, 83.4198198665433 Q 1.575167776765164, 72.63994836654292, 2.22622549359317, 63.018228336916565 " fill="none" id="curve_91" stroke="#000000" stroke-linecap="round" stroke-linejoin="round" stroke-width="2.0368776105271125"/>
  <path d="M 54.724534955884195, 86.73447165406434 Q 55.89675002643579, 86.2627374460526, 57.280550553741925, 85.2043498530397 " fill="none" id="curve_94" stroke="#000000" stroke-linecap="round" stroke-linejoin="round" stroke-width="2.6892446259110843"/>
  <path d="M 1.7785370765902915, 53.42290270178416 Q 1.789012662595257, 49.9050816071584, 1.8022205192831604, 44.358299783719836 " fill="none" id="curve_143" stroke="#000000" stroke-linecap="round" stroke-linejoin="round" stroke-width="1.9300735675831704"/>
  <path d="M 71.4691457985283, 79.03478978960801 Q 71.23647279063945, 79.07371757422065, 71.0117980986761, 79.18433019508622 " fill="none" id="curve_159" stroke="#000000" stroke-linecap="round" stroke-linejoin="round" stroke-width="3.719049810595339"/>
  <path d="M 57.74612672954481, 62.86768709789742 Q 57.63265885840031, 60.967244924695336, 57.292419937032896, 59.37815326733845 " fill="none" id="curve_182" stroke="#000000" stroke-linecap="round" stroke-linejoin="round" stroke-width="3.984560348408191"/>
  <path d="M 68.87319127284081, 80.56978712666078 Q 70.43249314325782, 79.28814953285989, 73.79940547932769, 78.42046457081337 " fill="none" id="curve_197" stroke="#000000" stroke-linecap="round" stroke-linejoin="round" stroke-width="3.062898015339935"/>
</svg>
