<?xml version="1.0" ?>
<svg height="140" width="140" xmlns="http://www.w3.org/2000/svg">
  <path d="M 47.159311294555664, 95.11827778816223 Q 42.65809770926222, 95.28333855744155, 32.57171534072029, 95.50885524538863 " fill="none" id="curve_1" stroke="#000000" stroke-linecap="round" stroke-linejoin="round" stroke-width="8.111610601607696"/>
  <path d="M 32.57171534072029, 95.50885524538863 Q 38.587485172087824, 90.94103200796236, 48.368662123409514, 78.96725486210278 " fill="none" id="curve_1" stroke="#000000" stroke-linecap="round" stroke-linejoin="round" stroke-width="4.274395673189074"/>
  <path d="M 48.368662123409514, 78.96725486210278 Q 52.73563044369162, 76.38622421834393, 54.92733561166384, 69.2484883124373 " fill="none" id="curve_1" stroke="#000000" stroke-linecap="round" stroke-linejoin="round" stroke-width="5.6146003394969854"/>
  <path d="M 54.92733561166384, 69.2484883124373 Q 53.91369060199809, 61.05457003847654, 40.54650790957571, 59.13516985319883 " fill="none" id="curve_1" stroke="#000000" stroke-linecap="round" stroke-linejoin="round" stroke-width="6.267610637044737"/>
  <path d="M 40.54650790957571, 59.13516985319883 Q 28.259364064331784, 59.92294086556449, 26.237513987152894, 67.98345240217053 " fill="none" id="curve_1" stroke="#000000" stroke-linecap="round" stroke-linejoin="round" stroke-width="6.156322005478925"/>
  <path d="M 26.237513987152894, 67.98345240217053 Q 26.486479645177393, 72.7702887768007, 27.377814164078735, 76.22806813993492 " fill="none" id="curve_1" stroke="#000000" stroke-linecap="round" stroke-linejoin="round" stroke-width="2.323472506243596"/>
  <path d="M 44.87484881009334, 96.45156279803433 Q 50.95798380230515, 96.9794210471666, 58.91513715479594, 97.48410346637813 " fill="none" id="curve_2" stroke="#000000" stroke-linecap="round" stroke-linejoin="round" stroke-width="6.215272306659113"/>
  <path d="M 58.91513715479594, 97.48410346637813 Q 54.621023271744704, 97.64217959643372, 35.07420028414249, 97.69527685452896 " fill="none" id="curve_2" stroke="#000000" stroke-linecap="round" stroke-linejoin="round" stroke-width="3.6425220610180764"/>
  <path d="M 48.58271924039903, 77.20584563481447 Q 51.322464869204246, 75.51401551269524, 53.14772419265137, 70.10677868283473 " fill="none" id="curve_4" stroke="#000000" stroke-linecap="round" stroke-linejoin="round" stroke-width="3.6679460780734385"/>
  <path d="M 28.4139179373664, 63.093436912326325 Q 25.254308801870586, 64.16062143109833, 23.709278912204567, 67.64355799043942 " fill="none" id="curve_5" stroke="#000000" stroke-linecap="round" stroke-linejoin="round" stroke-width="3.4863380696823314"/>
  <path d="M 50.045550686573705, 95.53112811552555 Q 48.83461703228108, 95.37567444192936, 46.525505839005305, 95.19419414404614 " fill="none" id="curve_6" stroke="#000000" stroke-linecap="round" stroke-linejoin="round" stroke-width="4.401607315498312"/>
  <path d="M 48.397799491953776, 80.32339677652263 Q 47.939601248401665, 79.72013460703782, 47.2528074765232, 79.03504326921379 " fill="none" id="curve_7" stroke="#000000" stroke-linecap="round" stroke-linejoin="round" stroke-width="6.1084747923462475"/>
  <path d="M 56.40803177570819, 96.988332982374 Q 54.17585186581958, 96.26355865837556, 45.42821731695731, 95.59782890115649 " fill="none" id="curve_10" stroke="#000000" stroke-linecap="round" stroke-linejoin="round" stroke-width="2.882995275879372"/>
  <path d="M 50.352055622278584, 95.84264603851457 Q 52.38312713766034, 95.91680598079941, 55.95840138108926, 96.02572950945907 " fill="none" id="curve_16" stroke="#000000" stroke-linecap="round" stroke-linejoin="round" stroke-width="3.3583906048096797"/>
  <path d="M 53.03950312991083, 68.20367370569863 Q 50.46324170541145, 65.96077676337406, 46.868478616738834, 61.211494432719164 " fill="none" id="curve_31" stroke="#000000" stroke-linecap="round" stroke-linejoin="round" stroke-width="2.5266155262408097"/>
  <path d="M 53.528964775647204, 95.06838325260006 Q 52.369621011519506, 95.15460407801993, 50.6738340776938, 95.27872626551863 " fill="none" id="curve_32" stroke="#000000" stroke-linecap="round" stroke-linejoin="round" stroke-width="4.145336794644544"/>
  <path d="M 43.01188094147644, 59.88943028517877 Q 42.55017899076472, 58.01443453141224, 38.00865853782457, 57.53712820005677 " fill="none" id="curve_61" stroke="#000000" stroke-linecap="round" stroke-linejoin="round" stroke-width="3.3608963320708543"/>
  <path d="M 28.134995603863054, 63.944004760250344 Q 25.96279736559833, 64.23510263418025, 24.223216254822315, 65.01315895710768 " fill="none" id="curve_81" stroke="#000000" stroke-linecap="round" stroke-linejoin="round" stroke-width="3.206826269630226"/>
</svg>
