<?xml version="1.0" ?>
<svg height="140" width="140" xmlns="http://www.w3.org/2000/svg">
  <path d="M 49.33231072028721, 32.83532091796579 Q 33.076393074682876, 33.53103114171143, 27.316352778275494, 42.652133289056295 " fill="none" id="curve_2" stroke="#000000" stroke-linecap="round" stroke-linejoin="round" stroke-width="3.795350616691986"/>
  <path d="M 50.462477736310575, 34.021575752483685 Q 61.91002520843336, 35.5880577286247, 66.77255631867058, 39.791160672917805 " fill="none" id="curve_3" stroke="#000000" stroke-linecap="round" stroke-linejoin="round" stroke-width="4.089299729801754"/>
  <path d="M 66.77255631867058, 39.791160672917805 Q 65.22308162358274, 54.649355883659595, 55.1542221580597, 67.57428952227357 " fill="none" id="curve_3" stroke="#000000" stroke-linecap="round" stroke-linejoin="round" stroke-width="3.157816320677189"/>
  <path d="M 41.79184176839128, 89.9627256402231 Q 34.02911081353004, 93.73451357321503, 27.85374997804565, 101.5853097946326 " fill="none" id="curve_4" stroke="#000000" stroke-linecap="round" stroke-linejoin="round" stroke-width="3.6964239732654387"/>
  <path d="M 27.85374997804565, 101.5853097946326 Q 29.649475054135873, 99.18907123861689, 59.0954195245787, 98.63665119605413 " fill="none" id="curve_4" stroke="#000000" stroke-linecap="round" stroke-linejoin="round" stroke-width="4.369584360334364"/>
  <path d="M 59.0954195245787, 98.63665119605413 Q 61.99398366079213, 98.17204616315635, 73.7298712109713, 98.01771097787663 " fill="none" id="curve_4" stroke="#000000" stroke-linecap="round" stroke-linejoin="round" stroke-width="4.579748666017104"/>
  <path d="M 50.50349511606954, 79.1556205081058 Q 45.6056111166553, 83.01663539552892, 38.697289207149495, 91.12682083127872 " fill="none" id="curve_5" stroke="#000000" stroke-linecap="round" stroke-linejoin="round" stroke-width="2.1520747363768367"/>
  <path d="M 52.5395581732709, 71.80969402536128 Q 54.150034001659314, 69.97066219302941, 56.08099276345082, 67.63703329789013 " fill="none" id="curve_6" stroke="#000000" stroke-linecap="round" stroke-linejoin="round" stroke-width="2.0192965305219563"/>
  <path d="M 66.10485909382466, 47.936056443873724 Q 65.74239149533929, 39.09687199491877, 62.52624940993283, 36.77077362625785 " fill="none" id="curve_7" stroke="#000000" stroke-linecap="round" stroke-linejoin="round" stroke-width="3.118359669955931"/>
  <path d="M 62.52624940993283, 36.77077362625785 Q 65.29428450656047, 41.67698294277932, 68.11589851704422, 46.29151086147656 " fill="none" id="curve_7" stroke="#000000" stroke-linecap="round" stroke-linejoin="round" stroke-width="2.3560852785551165"/>
  <path d="M 59.66047626011693, 34.87781307300625 Q 54.895228716801014, 34.288974533667094, 43.84542099522991, 33.834159824571294 " fill="none" id="curve_8" stroke="#000000" stroke-linecap="round" stroke-linejoin="round" stroke-width="2.522077362208379"/>
  <path d="M 27.164644096924484, 45.20210231728807 Q 27.53354869001053, 44.25526642614314, 27.869500123142256, 41.9921118365027 " fill="none" id="curve_9" stroke="#000000" stroke-linecap="round" stroke-linejoin="round" stroke-width="2.0722328567918455"/>
  <path d="M 54.690927505493164, 100.4479866027832 Q 46.49254802948388, 99.96809195660602, 37.06610383813313, 98.64693293540302 " fill="none" id="curve_23" stroke="#000000" stroke-linecap="round" stroke-linejoin="round" stroke-width="2.563447462924239"/>
  <path d="M 37.06610383813313, 98.64693293540302 Q 28.84631139644927, 99.19139199319844, 25.674442294824154, 101.33604685791624 " fill="none" id="curve_23" stroke="#000000" stroke-linecap="round" stroke-linejoin="round" stroke-width="3.4434979096766996"/>
  <path d="M 46.886363366208386, 97.42137819739355 Q 66.5100546343315, 97.82501209694159, 71.24256640734197, 100.5021083706837 " fill="none" id="curve_24" stroke="#000000" stroke-linecap="round" stroke-linejoin="round" stroke-width="2.232700015586203"/>
  <path d="M 45.89033713027706, 99.30474429964846 Q 42.05619526306179, 99.42256258734861, 35.92116831359694, 99.5338151715115 " fill="none" id="curve_25" stroke="#000000" stroke-linecap="round" stroke-linejoin="round" stroke-width="2.896671596451946"/>
  <path d="M 63.8424343723686, 52.86366367116691 Q 64.36261526922905, 46.29145087076067, 65.91793420540742, 39.02629738857827 " fill="none" id="curve_29" stroke="#000000" stroke-linecap="round" stroke-linejoin="round" stroke-width="2.0228107895418868"/>
  <path d="M 29.6984968518399, 37.89008501495639 Q 35.71307525887921, 36.58758502434212, 42.337712270106934, 34.580752465500595 " fill="none" id="curve_31" stroke="#000000" stroke-linecap="round" stroke-linejoin="round" stroke-width="2.1919967564521574"/>
  <path d="M 65.98957077643036, 37.67736639188888 Q 61.6006930532116, 36.27845375927537, 52.32683995216033, 33.50593436686769 " fill="none" id="curve_46" stroke="#000000" stroke-linecap="round" stroke-linejoin="round" stroke-width="2.163769852923396"/>
  <path d="M 62.20719919552954, 53.54774306093914 Q 63.287365997246965, 52.24200522153859, 65.28900333424606, 50.89707570728478 " fill="none" id="curve_90" stroke="#000000" stroke-linecap="round" stroke-linejoin="round" stroke-width="3.239375462989823"/>
</svg>
