<?xml version="1.0" ?>
<svg height="140" width="140" xmlns="http://www.w3.org/2000/svg">
  <path d="M 56.72882843017578, 50.663323402404785 Q 54.77206897493077, 54.365448288881986, 44.90195503329744, 64.17621310067716 " fill="none" id="curve_1" stroke="#000000" stroke-linecap="round" stroke-linejoin="round" stroke-width="6.126866215214545"/>
  <path d="M 44.90195503329744, 64.17621310067716 Q 39.18229960938514, 70.19338972803452, 34.16429577480903, 80.98259327015789 " fill="none" id="curve_1" stroke="#000000" stroke-linecap="round" stroke-linejoin="round" stroke-width="5.851740708396982"/>
  <path d="M 34.16429577480903, 80.98259327015789 Q 34.330415322504614, 99.75872000722194, 50.187573217832266, 100.30539021860714 " fill="none" id="curve_1" stroke="#000000" stroke-linecap="round" stroke-linejoin="round" stroke-width="5.058634354038793"/>
  <path d="M 50.187573217832266, 100.30539021860714 Q 68.73787310861027, 98.77743093600019, 78.69833985057542, 94.03537141129176 " fill="none" id="curve_1" stroke="#000000" stroke-linecap="round" stroke-linejoin="round" stroke-width="4.312396777643347"/>
  <path d="M 61.48498621401622, 98.0688979115815 Q 38.58237681007532, 97.92304366071994, 35.73938344762827, 95.15689763404326 " fill="none" id="curve_2" stroke="#000000" stroke-linecap="round" stroke-linejoin="round" stroke-width="3.5651319265140984"/>
  <path d="M 35.73938344762827, 95.15689763404326 Q 33.792970521565465, 93.60454499586014, 32.82261290190281, 88.99223788566086 " fill="none" id="curve_2" stroke="#000000" stroke-linecap="round" stroke-linejoin="round" stroke-width="4.416305250318856"/>
  <path d="M 51.34652028549301, 55.825411687974444 Q 57.678737762802, 51.3392278202113, 62.04766787877821, 40.08491254825611 " fill="none" id="curve_3" stroke="#000000" stroke-linecap="round" stroke-linejoin="round" stroke-width="6.087228612745533"/>
  <path d="M 62.04766787877821, 40.08491254825611 Q 61.71565239371534, 30.668039603915, 53.27266081622585, 29.814946141739007 " fill="none" id="curve_3" stroke="#000000" stroke-linecap="round" stroke-linejoin="round" stroke-width="5.551862626942225"/>
  <path d="M 53.27266081622585, 29.814946141739007 Q 36.025007023935366, 30.5457181332965, 26.45169548833746, 36.99446639077298 " fill="none" id="curve_3" stroke="#000000" stroke-linecap="round" stroke-linejoin="round" stroke-width="5.510793492212161"/>
  <path d="M 26.45169548833746, 36.99446639077298 Q 26.247669348807563, 40.0721837580813, 25.465689051469525, 41.13255069401304 " fill="none" id="curve_3" stroke="#000000" stroke-linecap="round" stroke-linejoin="round" stroke-width="4.131883361974907"/>
  <path d="M 47.719586071012614, 29.734119013684328 Q 38.33101538632455, 30.517282145424936, 32.80496598313884, 34.25754881912121 " fill="none" id="curve_4" stroke="#000000" stroke-linecap="round" stroke-linejoin="round" stroke-width="2.863705824949741"/>
  <path d="M 51.0129158244022, 58.28836022858022 Q 58.09861383973223, 55.78293917437325, 60.03617945975836, 38.58474414150346 " fill="none" id="curve_7" stroke="#000000" stroke-linecap="round" stroke-linejoin="round" stroke-width="2.984207770440926"/>
  <path d="M 47.717262789751956, 28.07656412320263 Q 42.9271638863531, 30.762394724567006, 30.017554828693576, 33.67098143815358 " fill="none" id="curve_15" stroke="#000000" stroke-linecap="round" stroke-linejoin="round" stroke-width="2.8692731107988627"/>
  <path d="M 60.2359384138156, 97.88343304058273 Q 63.383162287912555, 97.63745392994699, 66.27913616509332, 97.09458538630791 " fill="none" id="curve_22" stroke="#000000" stroke-linecap="round" stroke-linejoin="round" stroke-width="3.463990860824125"/>
  <path d="M 81.27361797815334, 93.58707242475596 Q 80.61010451964465, 93.7202847335058, 79.56136726944348, 93.9753435470041 " fill="none" id="curve_25" stroke="#000000" stroke-linecap="round" stroke-linejoin="round" stroke-width="2.399774890986072"/>
  <path d="M 60.145349481296016, 46.68952320179193 Q 53.94420134809562, 49.45719020483474, 49.05928520255139, 61.177921172213814 " fill="none" id="curve_32" stroke="#000000" stroke-linecap="round" stroke-linejoin="round" stroke-width="2.6618892169485524"/>
  <path d="M 33.11693473658311, 84.72798797315863 Q 33.93799345044225, 84.95509541707156, 34.580220330903295, 85.68086562181777 " fill="none" id="curve_33" stroke="#000000" stroke-linecap="round" stroke-linejoin="round" stroke-width="5.280527618345387"/>
  <path d="M 34.580220330903295, 85.68086562181777 Q 34.880869764037556, 84.82091776852906, 35.14936505452118, 82.45418364497893 " fill="none" id="curve_33" stroke="#000000" stroke-linecap="round" stroke-linejoin="round" stroke-width="4.511208988000692"/>
  <path d="M 42.27596653305926, 30.209418279883995 Q 33.838419684922385, 31.035373587848525, 29.119059324567864, 35.91775878085492 " fill="none" id="curve_37" stroke="#000000" stroke-linecap="round" stroke-linejoin="round" stroke-width="2.2954810348819676"/>
  <path d="M 41.21272779264562, 68.5142542695838 Q 37.94964174351307, 70.46244441851975, 34.3330267753673, 74.64169177827563 " fill="none" id="curve_72" stroke="#000000" stroke-linecap="round" stroke-linejoin="round" stroke-width="3.0385919047323955"/>
  <path d="M 59.00620639599375, 98.31215995029272 Q 61.8068887468623, 97.82061266217971, 64.99686841989823, 97.12900350873583 " fill="none" id="curve_78" stroke="#000000" stroke-linecap="round" stroke-linejoin="round" stroke-width="3.008421702146345"/>
  <path d="M 56.320195761602065, 30.642608060180404 Q 57.92800036287059, 34.16784807962371, 60.32672234068282, 38.09731912325196 " fill="none" id="curve_82" stroke="#000000" stroke-linecap="round" stroke-linejoin="round" stroke-width="3.081916516467281"/>
  <path d="M 35.394319051813824, 82.57675445876515 Q 33.440420903212164, 83.30671658585082, 32.324533000469934, 86.08281240429848 " fill="none" id="curve_88" stroke="#000000" stroke-linecap="round" stroke-linejoin="round" stroke-width="4.1943311853408485"/>
  <path d="M 55.9400299618666, 49.01221959000209 Q 56.10327932771163, 48.26860178786209, 56.584131816315505, 47.63981612010043 " fill="none" id="curve_103" stroke="#000000" stroke-linecap="round" stroke-linejoin="round" stroke-width="3.5726566503322172"/>
  <path d="M 24.11542984884295, 39.394248556767764 Q 24.856362290792767, 37.5890709778426, 26.398783235110656, 35.38341316245365 " fill="none" id="curve_118" stroke="#000000" stroke-linecap="round" stroke-linejoin="round" stroke-width="2.137275052179561"/>
  <path d="M 64.0580546941244, 97.60646756281932 Q 63.032623436291985, 96.83712954779568, 61.034537086317954, 96.22215169735496 " fill="none" id="curve_133" stroke="#000000" stroke-linecap="round" stroke-linejoin="round" stroke-width="3.198011010835967"/>
  <path d="M 47.68663239377386, 63.49996649086779 Q 47.701386999973906, 59.5442654242992, 47.82902947394799, 58.19889161890216 " fill="none" id="curve_134" stroke="#000000" stroke-linecap="round" stroke-linejoin="round" stroke-width="3.2229763764856503"/>
  <path d="M 41.64611497277003, 31.281963709785703 Q 40.99349127899856, 30.503180483373374, 38.49130869882684, 29.856904872463446 " fill="none" id="curve_165" stroke="#000000" stroke-linecap="round" stroke-linejoin="round" stroke-width="2.39538157995636"/>
  <path d="M 43.608511732329006, 31.538485695979556 Q 41.99456855708671, 31.023030486533447, 37.46500962234146, 30.283581365770807 " fill="none" id="curve_201" stroke="#000000" stroke-linecap="round" stroke-linejoin="round" stroke-width="2.723530732332655"/>
</svg>
