<?xml version="1.0" ?>
<svg height="140" width="140" xmlns="http://www.w3.org/2000/svg">
  <path d="M 55.1689567565918, 49.7147102355957 Q 52.41175373458837, 55.675418382446, 39.69142756139399, 69.96406232689208 " fill="none" id="curve_1" stroke="#000000" stroke-linecap="round" stroke-linejoin="round" stroke-width="5.699177364599372"/>
  <path d="M 39.69142756139399, 69.96406232689208 Q 33.26405430726929, 75.1580237404807, 17.56953527821303, 95.28575330884888 " fill="none" id="curve_1" stroke="#000000" stroke-linecap="round" stroke-linejoin="round" stroke-width="5.067565316535251"/>
  <path d="M 17.56953527821303, 95.28575330884888 Q 17.876418262721696, 106.9568102712566, 27.877779109854796, 107.72443703162308 " fill="none" id="curve_1" stroke="#000000" stroke-linecap="round" stroke-linejoin="round" stroke-width="5.697476469078242"/>
  <path d="M 27.877779109854796, 107.72443703162308 Q 39.59002399303492, 106.21816726188632, 47.4879018888965, 103.36778754499254 " fill="none" id="curve_1" stroke="#000000" stroke-linecap="round" stroke-linejoin="round" stroke-width="5.082990566378666"/>
  <path d="M 47.4879018888965, 103.36778754499254 Q 36.237739071364594, 104.02657227425696, 31.60936849051941, 107.02797526736616 " fill="none" id="curve_1" stroke="#000000" stroke-linecap="round" stroke-linejoin="round" stroke-width="2.8379479688781255"/>
  <path d="M 26.141853204599244, 55.297250963977 Q 26.91550684295842, 43.16240825033525, 49.17122266043299, 40.30844478801634 " fill="none" id="curve_3" stroke="#000000" stroke-linecap="round" stroke-linejoin="round" stroke-width="5.113197667948329"/>
  <path d="M 49.17122266043299, 40.30844478801634 Q 53.44270380537462, 40.90692108577402, 54.77955145280155, 43.460361422528806 " fill="none" id="curve_3" stroke="#000000" stroke-linecap="round" stroke-linejoin="round" stroke-width="5.323566319456747"/>
  <path d="M 54.77955145280155, 43.460361422528806 Q 52.70977788433019, 53.51872939570497, 47.19433649398014, 59.8150395330253 " fill="none" id="curve_3" stroke="#000000" stroke-linecap="round" stroke-linejoin="round" stroke-width="3.5001108178737024"/>
  <path d="M 28.75162217590534, 78.73532929385354 Q 23.03384405405939, 83.53828753732161, 18.071565347849017, 97.56412461121555 " fill="none" id="curve_10" stroke="#000000" stroke-linecap="round" stroke-linejoin="round" stroke-width="2.8404668413043583"/>
  <path d="M 26.678468872128757, 105.04174394089532 Q 27.159159912301764, 106.45024259924337, 32.392410639343744, 106.7337430457883 " fill="none" id="curve_11" stroke="#000000" stroke-linecap="round" stroke-linejoin="round" stroke-width="3.33985203600323"/>
  <path d="M 42.40462107304688, 63.867502391369605 Q 51.90508474901338, 62.91986303303713, 54.275916952205414, 53.11446136319977 " fill="none" id="curve_12" stroke="#000000" stroke-linecap="round" stroke-linejoin="round" stroke-width="2.602490567508294"/>
  <path d="M 34.18937038936002, 42.812196443508114 Q 28.449890517669292, 46.504734080186694, 24.856367351680667, 56.17790527852311 " fill="none" id="curve_14" stroke="#000000" stroke-linecap="round" stroke-linejoin="round" stroke-width="3.0089131320847464"/>
  <path d="M 19.87734671591899, 96.51934395542753 Q 20.19812460370316, 93.7325332235581, 20.978191053610754, 86.6156620803504 " fill="none" id="curve_20" stroke="#000000" stroke-linecap="round" stroke-linejoin="round" stroke-width="2.1334445818523795"/>
  <path d="M 31.30984365291724, 46.6774165260665 Q 31.31129615334271, 46.5196743406284, 31.314708067217378, 46.21074584760882 " fill="none" id="curve_21" stroke="#000000" stroke-linecap="round" stroke-linejoin="round" stroke-width="3.134347840502573"/>
  <path d="M 41.511131286621094, 41.455501556396484 Q 50.270826702404726, 41.7309608942397, 54.08397592845722, 43.743158802002654 " fill="none" id="curve_35" stroke="#000000" stroke-linecap="round" stroke-linejoin="round" stroke-width="2.3148820143487905"/>
  <path d="M 38.18027785588353, 41.368915081863825 Q 35.22206159006213, 42.35779067655994, 32.651790718681106, 45.22142852091778 " fill="none" id="curve_36" stroke="#000000" stroke-linecap="round" stroke-linejoin="round" stroke-width="2.9530826104768813"/>
  <path d="M 32.651790718681106, 45.22142852091778 Q 31.758944972827386, 47.26473395629072, 28.797259448101006, 48.32437747336072 " fill="none" id="curve_36" stroke="#000000" stroke-linecap="round" stroke-linejoin="round" stroke-width="3.712106522159435"/>
  <path d="M 24.248710051604576, 105.67446153448509 Q 20.889815342761224, 103.87379503038359, 16.355851033213895, 101.54562776854112 " fill="none" id="curve_51" stroke="#000000" stroke-linecap="round" stroke-linejoin="round" stroke-width="3.423668070164813"/>
  <path d="M 53.723947559747046, 46.40512599030717 Q 52.48164248545731, 45.03384620551619, 50.99705042996947, 42.93506931467484 " fill="none" id="curve_66" stroke="#000000" stroke-linecap="round" stroke-linejoin="round" stroke-width="2.7789215301565164"/>
  <path d="M 32.097598358873775, 46.38220628491713 Q 30.48585515525299, 47.01707084952769, 28.458287724188967, 48.77237582353597 " fill="none" id="curve_122" stroke="#000000" stroke-linecap="round" stroke-linejoin="round" stroke-width="2.7531477627064365"/>
</svg>
