<?xml version="1.0" ?>
<svg height="140" width="140" xmlns="http://www.w3.org/2000/svg">
  <path d="M 39.89132499694824, 54.59630012512207 Q 31.563767980152775, 54.226032050583825, 26.012976546577647, 52.08246397291998 " fill="none" id="curve_1" stroke="#000000" stroke-linecap="round" stroke-linejoin="round" stroke-width="5.956926513005444"/>
  <path d="M 26.012976546577647, 52.08246397291998 Q 19.24227625029789, 52.96416993601955, 17.364127324900636, 57.669250325368324 " fill="none" id="curve_1" stroke="#000000" stroke-linecap="round" stroke-linejoin="round" stroke-width="4.461961498693368"/>
  <path d="M 30.17540091549786, 54.16440804688363 Q 38.177937475001876, 57.57407904879453, 41.26789660166928, 65.99195347791415 " fill="none" id="curve_2" stroke="#000000" stroke-linecap="round" stroke-linejoin="round" stroke-width="6.3454663423695425"/>
  <path d="M 41.26789660166928, 65.99195347791415 Q 40.32799040527671, 82.55534055331576, 32.77014537260195, 96.50245950575221 " fill="none" id="curve_2" stroke="#000000" stroke-linecap="round" stroke-linejoin="round" stroke-width="5.369525237092018"/>
  <path d="M 32.77014537260195, 96.50245950575221 Q 28.909008833503947, 102.00563512138554, 22.406488270006566, 105.39275994727404 " fill="none" id="curve_2" stroke="#000000" stroke-linecap="round" stroke-linejoin="round" stroke-width="6.725545590295519"/>
  <path d="M 22.406488270006566, 105.39275994727404 Q 22.994082327607224, 97.97745380770574, 30.645187273520108, 96.97197926169818 " fill="none" id="curve_2" stroke="#000000" stroke-linecap="round" stroke-linejoin="round" stroke-width="4.300245054068533"/>
  <path d="M 30.645187273520108, 96.97197926169818 Q 39.7386046510285, 105.3541963572176, 57.8199593359987, 109.72326116708244 " fill="none" id="curve_2" stroke="#000000" stroke-linecap="round" stroke-linejoin="round" stroke-width="5.056316194854852"/>
  <path d="M 57.8199593359987, 109.72326116708244 Q 59.6550796768624, 109.24688853124951, 61.328835615979756, 108.55244731239124 " fill="none" id="curve_2" stroke="#000000" stroke-linecap="round" stroke-linejoin="round" stroke-width="3.7434171114988164"/>
  <path d="M 47.65607222749551, 109.03028037278679 Q 46.1879526441744, 108.13347687674805, 43.79043859066632, 106.85526102893594 " fill="none" id="curve_3" stroke="#000000" stroke-linecap="round" stroke-linejoin="round" stroke-width="4.3855175110113285"/>
  <path d="M 44.284536343182424, 105.61123048967474 Q 40.54241273569738, 101.50053854954756, 30.841735675891087, 96.56955334218554 " fill="none" id="curve_11" stroke="#000000" stroke-linecap="round" stroke-linejoin="round" stroke-width="2.8684900201419103"/>
  <path d="M 38.40959429675761, 57.63142518024569 Q 39.10268742499655, 62.72433830156291, 39.522132343124774, 79.12073675519953 " fill="none" id="curve_12" stroke="#000000" stroke-linecap="round" stroke-linejoin="round" stroke-width="2.967355726393705"/>
  <path d="M 23.16524307155507, 99.18228262775463 Q 22.232696605834512, 101.08223539660668, 21.252075013581827, 105.18317835784332 " fill="none" id="curve_13" stroke="#000000" stroke-linecap="round" stroke-linejoin="round" stroke-width="3.4753199502496774"/>
  <path d="M 53.14337784699592, 110.02767619005635 Q 51.665720257799265, 109.37492230183105, 49.781872550428844, 108.06479854053623 " fill="none" id="curve_28" stroke="#000000" stroke-linecap="round" stroke-linejoin="round" stroke-width="3.5224702633484672"/>
  <path d="M 33.95194625854492, 56.29969102144241 Q 33.83765208975358, 51.901751410963925, 30.109005044092555, 51.478778302127466 " fill="none" id="curve_55" stroke="#000000" stroke-linecap="round" stroke-linejoin="round" stroke-width="3.3954406653774862"/>
  <path d="M 22.449974483964326, 52.4049421107061 Q 21.20038140099829, 52.79130356692468, 19.68692156100269, 53.60054153406035 " fill="none" id="curve_56" stroke="#000000" stroke-linecap="round" stroke-linejoin="round" stroke-width="3.1010196454083885"/>
  <path d="M 25.75672986812972, 97.51453566342074 Q 25.09009781423694, 96.91736068179158, 24.0741794243319, 96.10306229727277 " fill="none" id="curve_72" stroke="#000000" stroke-linecap="round" stroke-linejoin="round" stroke-width="3.205246477166137"/>
  <path d="M 38.34796300813119, 81.45025881816493 Q 37.65994014362434, 84.0439705925899, 35.6370656078675, 86.1951017214996 " fill="none" id="curve_73" stroke="#000000" stroke-linecap="round" stroke-linejoin="round" stroke-width="3.2571162593521574"/>
  <path d="M 52.6219367980957, 109.64400672912598 Q 50.40049601820187, 107.48134414564171, 40.15786360489619, 105.98666633613507 " fill="none" id="curve_87" stroke="#000000" stroke-linecap="round" stroke-linejoin="round" stroke-width="2.7937856251573825"/>
  <path d="M 40.15786360489619, 105.98666633613507 Q 39.64399576090699, 98.74740565732772, 34.78203602125021, 97.09671821875523 " fill="none" id="curve_87" stroke="#000000" stroke-linecap="round" stroke-linejoin="round" stroke-width="3.2239204709314717"/>
  <path d="M 54.0832926836116, 107.33981972992588 Q 56.041475207490876, 107.88313169648141, 60.24394598445497, 108.22693700854511 " fill="none" id="curve_88" stroke="#000000" stroke-linecap="round" stroke-linejoin="round" stroke-width="2.9766235549827402"/>
  <path d="M 30.8517253359023, 56.20513867859063 Q 35.099855475807104, 59.91832683039296, 40.196488916301796, 65.2523089285659 " fill="none" id="curve_103" stroke="#000000" stroke-linecap="round" stroke-linejoin="round" stroke-width="2.138283217349677"/>
  <path d="M 21.67125701904297, 53.872934341430664 Q 20.343182215841946, 55.89763135253951, 17.00964607585277, 57.07193878996091 " fill="none" id="curve_117" stroke="#000000" stroke-linecap="round" stroke-linejoin="round" stroke-width="3.9578791465708694"/>
  <path d="M 17.00964607585277, 57.07193878996091 Q 18.902681314021017, 54.89940786652292, 21.368343026495886, 52.337843252930405 " fill="none" id="curve_117" stroke="#000000" stroke-linecap="round" stroke-linejoin="round" stroke-width="2.7813255084722113"/>
  <path d="M 21.368343026495886, 52.337843252930405 Q 21.452975363902205, 52.798833800371966, 21.7010763033035, 53.25242092677603 " fill="none" id="curve_117" stroke="#000000" stroke-linecap="round" stroke-linejoin="round" stroke-width="3.142035865717043"/>
  <path d="M 36.48758483204756, 82.61495679089944 Q 36.9622260265381, 80.45496321252335, 37.892312820669844, 76.10252826052931 " fill="none" id="curve_132" stroke="#000000" stroke-linecap="round" stroke-linejoin="round" stroke-width="2.5441887229569575"/>
</svg>
