<?xml version="1.0" ?>
<svg height="140" width="140" xmlns="http://www.w3.org/2000/svg">
  <path d="M 5.447108745574951, 107.66830158233643 Q 6.088581915805645, 105.36339239429276, 14.27755587896877, 104.75909391094308 " fill="none" id="curve_1" stroke="#000000" stroke-linecap="round" stroke-linejoin="round" stroke-width="7.263445755136738"/>
  <path d="M 14.27755587896877, 104.75909391094308 Q 21.780752298936907, 100.6834853509825, 32.60494806113106, 92.83057408273788 " fill="none" id="curve_1" stroke="#000000" stroke-linecap="round" stroke-linejoin="round" stroke-width="4.951275867336325"/>
  <path d="M 32.60494806113106, 92.83057408273788 Q 39.900270346703024, 88.92861691312272, 44.05278682496425, 71.993015198803 " fill="none" id="curve_1" stroke="#000000" stroke-linecap="round" stroke-linejoin="round" stroke-width="5.596698096500925"/>
  <path d="M 44.05278682496425, 71.993015198803 Q 43.91571415485115, 49.38335985638284, 27.159646326637514, 48.2907677034302 " fill="none" id="curve_1" stroke="#000000" stroke-linecap="round" stroke-linejoin="round" stroke-width="5.926438902750824"/>
  <path d="M 27.159646326637514, 48.2907677034302 Q 18.199937598566038, 50.3055856133496, 16.775320808962316, 72.43804161501772 " fill="none" id="curve_1" stroke="#000000" stroke-linecap="round" stroke-linejoin="round" stroke-width="3.997779634781438"/>
  <path d="M 16.775320808962316, 72.43804161501772 Q 20.36704377380395, 74.54731079802548, 27.077332157293995, 75.95815780397186 " fill="none" id="curve_1" stroke="#000000" stroke-linecap="round" stroke-linejoin="round" stroke-width="4.177268351084883"/>
  <path d="M 11.109269248789056, 107.98191210461685 Q 32.718917066655884, 110.83571582152027, 49.892870937562414, 125.6226078636092 " fill="none" id="curve_2" stroke="#000000" stroke-linecap="round" stroke-linejoin="round" stroke-width="5.166640892574748"/>
  <path d="M 49.892870937562414, 125.6226078636092 Q 68.08711813621888, 124.85688682914629, 74.2087915513898, 107.66791146580972 " fill="none" id="curve_2" stroke="#000000" stroke-linecap="round" stroke-linejoin="round" stroke-width="4.571254884748858"/>
  <path d="M 74.2087915513898, 107.66791146580972 Q 77.88494700573473, 103.0947215473241, 81.79072027367141, 96.1308930413417 " fill="none" id="curve_2" stroke="#000000" stroke-linecap="round" stroke-linejoin="round" stroke-width="3.4530123729353064"/>
  <path d="M 57.262210931903, 124.47429304367732 Q 51.29891274282247, 122.97375346359571, 41.76334641380207, 120.63832740959086 " fill="none" id="curve_3" stroke="#000000" stroke-linecap="round" stroke-linejoin="round" stroke-width="3.81949586815034"/>
  <path d="M 41.76334641380207, 120.63832740959086 Q 36.568273266187475, 115.90625141954544, 25.84404125900509, 108.38755061464907 " fill="none" id="curve_3" stroke="#000000" stroke-linecap="round" stroke-linejoin="round" stroke-width="3.5409353971431035"/>
  <path d="M 25.84404125900509, 108.38755061464907 Q 19.108896540706695, 108.46699254048609, 7.394887917353422, 108.5303338911047 " fill="none" id="curve_3" stroke="#000000" stroke-linecap="round" stroke-linejoin="round" stroke-width="2.9455532218399734"/>
  <path d="M 32.318512955363786, 116.60601144914386 Q 41.37388188129197, 118.8189330766851, 45.08464307480331, 124.15253694800646 " fill="none" id="curve_4" stroke="#000000" stroke-linecap="round" stroke-linejoin="round" stroke-width="2.483168998277635"/>
  <path d="M 64.98932956060517, 117.84731001047078 Q 68.04597994040635, 115.46753917010062, 71.37020568455046, 111.55319835270868 " fill="none" id="curve_5" stroke="#000000" stroke-linecap="round" stroke-linejoin="round" stroke-width="2.5328708451738025"/>
  <path d="M 82.65345636457846, 94.99501925559164 Q 82.5402016012045, 94.56262863875557, 82.37630748076202, 94.03650800330725 " fill="none" id="curve_6" stroke="#000000" stroke-linecap="round" stroke-linejoin="round" stroke-width="2.2218184660448133"/>
  <path d="M 58.39639751946225, 125.44184839866024 Q 58.42950452185407, 125.03893727366003, 58.46200040895789, 124.23496733241065 " fill="none" id="curve_8" stroke="#000000" stroke-linecap="round" stroke-linejoin="round" stroke-width="4.032882226717889"/>
  <path d="M 34.018667298855455, 90.0251461721177 Q 37.662197300616484, 86.26749860653814, 41.35609190504153, 79.87170232208831 " fill="none" id="curve_9" stroke="#000000" stroke-linecap="round" stroke-linejoin="round" stroke-width="3.36802928565501"/>
  <path d="M 45.52251026857804, 63.3263372671169 Q 44.390410033150715, 52.08953813493855, 32.13250474530624, 47.54660820711983 " fill="none" id="curve_10" stroke="#000000" stroke-linecap="round" stroke-linejoin="round" stroke-width="2.406295472955398"/>
  <path d="M 32.13250474530624, 47.54660820711983 Q 31.418577990200397, 46.73621397474227, 26.179486505180453, 46.495899421164815 " fill="none" id="curve_10" stroke="#000000" stroke-linecap="round" stroke-linejoin="round" stroke-width="2.8302736734375253"/>
  <path d="M 2.523796084283334, 2.4126000828550254 Q 3.465163942099395, 2.2089826766318654, 4.057583515869506, 1.3296707065087239 " fill="none" id="curve_16" stroke="#000000" stroke-linecap="round" stroke-linejoin="round" stroke-width="3.395864415166329"/>
  <path d="M 1.9346943551193618, 3.329520498052405 Q 2.888414799202737, 1.4090713052147743, 10.522153846041927, 0.5872248561295494 " fill="none" id="curve_22" stroke="#000000" stroke-linecap="round" stroke-linejoin="round" stroke-width="1.6637649771704395"/>
  <path d="M 1.3432911566884975, 4.3506705730593875 Q 1.7347637296873604, 3.752080233129916, 2.1359781908223088, 1.9140621891993899 " fill="none" id="curve_23" stroke="#000000" stroke-linecap="round" stroke-linejoin="round" stroke-width="2.4602101999931922"/>
  <path d="M 20.55428125458611, 56.441901104625444 Q 17.089350721444962, 57.08332231434421, 15.946789256246733, 60.805715893539215 " fill="none" id="curve_25" stroke="#000000" stroke-linecap="round" stroke-linejoin="round" stroke-width="3.6695505738395626"/>
  <path d="M 41.41561762576269, 72.63667093570044 Q 41.047093358182885, 74.29882630705802, 40.90945389432172, 82.69573726971173 " fill="none" id="curve_27" stroke="#000000" stroke-linecap="round" stroke-linejoin="round" stroke-width="2.4709817102825884"/>
  <path d="M 32.553463248547956, 111.23688213209955 Q 38.924128088348475, 115.66394011638884, 44.85376352083872, 122.00980520396058 " fill="none" id="curve_28" stroke="#000000" stroke-linecap="round" stroke-linejoin="round" stroke-width="3.11204662952646"/>
  <path d="M 87.5340903401567, 2.1084191725292385 Q 87.98401383392809, 2.0359947934244436, 89.0148362619757, 1.9678031721567133 " fill="none" id="curve_43" stroke="#000000" stroke-linecap="round" stroke-linejoin="round" stroke-width="3.0003652528732228"/>
  <path d="M 46.28028781508196, 123.81521080489321 Q 44.93643997862951, 121.77567900122379, 40.54645648129172, 120.22727058675721 " fill="none" id="curve_62" stroke="#000000" stroke-linecap="round" stroke-linejoin="round" stroke-width="4.266991359654124"/>
  <path d="M 38.23759267407722, 87.40650995510778 Q 39.965196311241776, 84.37796422133428, 43.087748252711485, 81.76790781776772 " fill="none" id="curve_86" stroke="#000000" stroke-linecap="round" stroke-linejoin="round" stroke-width="2.8604547810839156"/>
  <path d="M 42.99480579091066, 121.97303423193392 Q 43.03480530035956, 121.59196078894944, 43.12914422834312, 121.14104292997304 " fill="none" id="curve_90" stroke="#000000" stroke-linecap="round" stroke-linejoin="round" stroke-width="3.9629113106317684"/>
  <path d="M 25.137836253486864, 78.09043967137679 Q 24.39406951573271, 72.7309822106603, 17.85857080315828, 70.60383287185427 " fill="none" id="curve_91" stroke="#000000" stroke-linecap="round" stroke-linejoin="round" stroke-width="2.551383852823973"/>
  <path d="M 23.797280013846372, 47.87180903791561 Q 24.462411547607452, 46.86996868254384, 34.75157365948296, 46.70593187000574 " fill="none" id="curve_92" stroke="#000000" stroke-linecap="round" stroke-linejoin="round" stroke-width="2.007597497361609"/>
  <path d="M 20.683684829979732, 108.3611352700834 Q 17.651155570094332, 107.94456427244828, 13.067811745621317, 107.07802662498554 " fill="none" id="curve_97" stroke="#000000" stroke-linecap="round" stroke-linejoin="round" stroke-width="2.8847523168234517"/>
  <path d="M 7.148276035880478, 108.36389872316911 Q 7.052452460024184, 108.58864295741598, 6.910800258687148, 108.97897793341106 " fill="none" id="curve_105" stroke="#000000" stroke-linecap="round" stroke-linejoin="round" stroke-width="3.335706922813796"/>
  <path d="M 83.40199552087903, 0.8356726719815128 Q 88.73457165691977, 1.3717411037926959, 89.92254753752795, 4.615410480704095 " fill="none" id="curve_120" stroke="#000000" stroke-linecap="round" stroke-linejoin="round" stroke-width="1.7945182025367916"/>
  <path d="M 89.58886175669028, 1.5254631920416877 Q 89.3769341985496, 1.6859433885931756, 88.8359030864518, 1.849701759712036 " fill="none" id="curve_121" stroke="#000000" stroke-linecap="round" stroke-linejoin="round" stroke-width="1.9717969707345808"/>
  <path d="M 65.5508197322414, 119.31422120924461 Q 62.7108492891942, 121.94337903875827, 57.20709587209327, 123.85295886083273 " fill="none" id="curve_127" stroke="#000000" stroke-linecap="round" stroke-linejoin="round" stroke-width="3.450695671054939"/>
  <path d="M 54.97336286350941, 123.5092163873369 Q 46.36517154327849, 122.43732239837205, 40.26083786293238, 118.77805577189574 " fill="none" id="curve_143" stroke="#000000" stroke-linecap="round" stroke-linejoin="round" stroke-width="2.6176129381830457"/>
  <path d="M 78.56600186348618, 101.83327083774475 Q 77.56273721166306, 102.01123525251113, 76.22334916244668, 102.27236105979291 " fill="none" id="curve_197" stroke="#000000" stroke-linecap="round" stroke-linejoin="round" stroke-width="3.7153293943376604"/>
</svg>
