<?xml version="1.0" ?>
<svg height="140" width="140" xmlns="http://www.w3.org/2000/svg">
  <path d="M 16.115145683288574, 125.71997654438019 Q 15.038934959035691, 126.57345481433461, 12.471671396855072, 127.5196107462196 " fill="none" id="curve_1" stroke="#000000" stroke-linecap="round" stroke-linejoin="round" stroke-width="6.590367483715498"/>
  <path d="M 12.471671396855072, 127.5196107462196 Q 17.486649723439278, 119.79350888337311, 31.77433010800148, 102.2521397820121 " fill="none" id="curve_1" stroke="#000000" stroke-linecap="round" stroke-linejoin="round" stroke-width="4.001315729884943"/>
  <path d="M 31.77433010800148, 102.2521397820121 Q 37.81412396922947, 94.40571131929931, 51.50640747878823, 73.84860159639955 " fill="none" id="curve_1" stroke="#000000" stroke-linecap="round" stroke-linejoin="round" stroke-width="4.812580338071556"/>
  <path d="M 51.50640747878823, 73.84860159639955 Q 56.50875641809944, 67.06315351221151, 66.01191031898026, 43.21002414568419 " fill="none" id="curve_1" stroke="#000000" stroke-linecap="round" stroke-linejoin="round" stroke-width="5.054327043326805"/>
  <path d="M 66.01191031898026, 43.21002414568419 Q 65.94407125633278, 24.923514976513562, 59.13474985527243, 24.204524558218452 " fill="none" id="curve_1" stroke="#000000" stroke-linecap="round" stroke-linejoin="round" stroke-width="4.572022134741181"/>
  <path d="M 59.13474985527243, 24.204524558218452 Q 46.80967444788675, 28.50897258680437, 35.481120644488655, 44.845771761284226 " fill="none" id="curve_1" stroke="#000000" stroke-linecap="round" stroke-linejoin="round" stroke-width="4.937176537202393"/>
  <path d="M 35.481120644488655, 44.845771761284226 Q 34.94927570215583, 49.97669046036395, 34.39978603214719, 56.53938147475024 " fill="none" id="curve_1" stroke="#000000" stroke-linecap="round" stroke-linejoin="round" stroke-width="4.48814527011994"/>
  <path d="M 41.17784905853381, 35.333126806085275 Q 44.85450569115671, 29.930172353789295, 58.33258680644059, 27.392330367243236 " fill="none" id="curve_2" stroke="#000000" stroke-linecap="round" stroke-linejoin="round" stroke-width="2.73090029970698"/>
  <path d="M 67.01566542485537, 30.299864452142668 Q 65.87965258276039, 38.75017927735084, 63.07357157918618, 48.52034846737752 " fill="none" id="curve_3" stroke="#000000" stroke-linecap="round" stroke-linejoin="round" stroke-width="2.6588648059919877"/>
  <path d="M 56.765741996692945, 115.25626374816642 Q 32.930301784298784, 115.68002555280101, 25.07115394956065, 123.33589623072132 " fill="none" id="curve_5" stroke="#000000" stroke-linecap="round" stroke-linejoin="round" stroke-width="4.9815454049884185"/>
  <path d="M 25.07115394956065, 123.33589623072132 Q 19.892549817407854, 125.13631279212711, 15.6788722249105, 127.83793378812226 " fill="none" id="curve_5" stroke="#000000" stroke-linecap="round" stroke-linejoin="round" stroke-width="4.426242404539107"/>
  <path d="M 56.30503884426543, 117.047910414654 Q 58.093901867631885, 117.61009492115699, 59.9182828571111, 118.52551769985821 " fill="none" id="curve_6" stroke="#000000" stroke-linecap="round" stroke-linejoin="round" stroke-width="5.133526471400649"/>
  <path d="M 37.785170006503044, 87.42203393583132 Q 35.03305669708893, 96.39627740990352, 26.59678461325396, 109.93951489684727 " fill="none" id="curve_7" stroke="#000000" stroke-linecap="round" stroke-linejoin="round" stroke-width="3.356918080375885"/>
  <path d="M 26.59678461325396, 109.93951489684727 Q 28.713988205049176, 106.04187792509248, 31.803793012452108, 101.66518319108889 " fill="none" id="curve_7" stroke="#000000" stroke-linecap="round" stroke-linejoin="round" stroke-width="3.0346681291219526"/>
  <path d="M 52.44180040604542, 70.95459521360836 Q 48.39995025316138, 77.98555672836409, 41.762080598578606, 87.26567623249319 " fill="none" id="curve_11" stroke="#000000" stroke-linecap="round" stroke-linejoin="round" stroke-width="2.61190582632992"/>
  <path d="M 41.762080598578606, 87.26567623249319 Q 47.53417476154771, 80.39147088795652, 55.19179979798653, 67.18793346714712 " fill="none" id="curve_11" stroke="#000000" stroke-linecap="round" stroke-linejoin="round" stroke-width="2.6431713233749896"/>
  <path d="M 63.291655522796056, 48.38457837602657 Q 59.68168176620437, 54.30453956989278, 55.69797111031056, 65.96637066085864 " fill="none" id="curve_12" stroke="#000000" stroke-linecap="round" stroke-linejoin="round" stroke-width="2.279684178670176"/>
  <path d="M 32.504278702581104, 118.31481761771842 Q 37.73654355613164, 116.97579572145015, 44.53175268890229, 115.09084811275504 " fill="none" id="curve_15" stroke="#000000" stroke-linecap="round" stroke-linejoin="round" stroke-width="2.654538579248119"/>
  <path d="M 52.23339320656342, 69.40364581854737 Q 52.71387164076199, 68.03623426505523, 53.75605172487731, 66.73710108109485 " fill="none" id="curve_30" stroke="#000000" stroke-linecap="round" stroke-linejoin="round" stroke-width="2.8874370727056755"/>
  <path d="M 31.917592441500517, 101.79434786493181 Q 29.700709383380964, 102.87324444962256, 26.565508302583044, 106.20964946822883 " fill="none" id="curve_31" stroke="#000000" stroke-linecap="round" stroke-linejoin="round" stroke-width="2.5913002705903287"/>
  <path d="M 37.051955988145444, 116.03426202639389 Q 33.72026831203471, 116.57516353019622, 31.803444393910702, 118.65678127346798 " fill="none" id="curve_46" stroke="#000000" stroke-linecap="round" stroke-linejoin="round" stroke-width="3.3941071132599863"/>
  <path d="M 30.92533930353975, 102.2549027165785 Q 28.02669002204418, 108.09198255015247, 21.525111561470414, 116.0550974352871 " fill="none" id="curve_88" stroke="#000000" stroke-linecap="round" stroke-linejoin="round" stroke-width="2.6141746961928995"/>
  <path d="M 49.132804375685524, 29.28056566264753 Q 47.555746058224145, 30.130805513970863, 45.153239262906446, 31.410729588028243 " fill="none" id="curve_96" stroke="#000000" stroke-linecap="round" stroke-linejoin="round" stroke-width="3.894059329686289"/>
  <path d="M 65.59467819711486, 27.010547234121468 Q 64.46837983853972, 26.67336523109462, 62.04073130083891, 26.159700505406935 " fill="none" id="curve_98" stroke="#000000" stroke-linecap="round" stroke-linejoin="round" stroke-width="2.6835195415089728"/>
  <path d="M 51.11660249348462, 30.57952713769633 Q 50.23901801413948, 30.907910616875373, 48.04880570770854, 31.278114484788063 " fill="none" id="curve_132" stroke="#000000" stroke-linecap="round" stroke-linejoin="round" stroke-width="2.8441106506307285"/>
  <path d="M 36.698189480464535, 47.309372169431235 Q 37.304906769788204, 42.677758301368435, 39.68650114798445, 37.37294394948662 " fill="none" id="curve_143" stroke="#000000" stroke-linecap="round" stroke-linejoin="round" stroke-width="2.447436396882976"/>
  <path d="M 66.58221633999133, 38.848493616459 Q 66.97716478267539, 35.916672146798355, 68.14823877429914, 34.09005195627063 " fill="none" id="curve_166" stroke="#000000" stroke-linecap="round" stroke-linejoin="round" stroke-width="2.5848531886888324"/>
  <path d="M 50.54995121548279, 76.29453973016551 Q 45.89939333999254, 77.79571781238195, 42.38084727445513, 83.71865605947494 " fill="none" id="curve_181" stroke="#000000" stroke-linecap="round" stroke-linejoin="round" stroke-width="2.363144210007483"/>
</svg>
