<?xml version="1.0" ?>
<svg height="140" width="140" xmlns="http://www.w3.org/2000/svg">
  <path d="M 38.88349151611328, 48.780818939208984 Q 26.962504020043436, 49.12058382260592, 25.052635542826692, 62.14523674299653 " fill="none" id="curve_1" stroke="#000000" stroke-linecap="round" stroke-linejoin="round" stroke-width="4.9049896810224345"/>
  <path d="M 36.14455183350763, 46.393571924090985 Q 46.344074100617746, 46.95851864721226, 47.24385497773504, 59.52627078775218 " fill="none" id="curve_2" stroke="#000000" stroke-linecap="round" stroke-linejoin="round" stroke-width="2.824958378149728"/>
  <path d="M 47.24385497773504, 59.52627078775218 Q 46.957890801745386, 80.57675586317515, 36.3652506765069, 84.98982042108965 " fill="none" id="curve_2" stroke="#000000" stroke-linecap="round" stroke-linejoin="round" stroke-width="3.4374255530935294"/>
  <path d="M 36.3652506765069, 84.98982042108965 Q 28.974813429695875, 89.08494492388371, 14.888821818432291, 99.71626277350133 " fill="none" id="curve_2" stroke="#000000" stroke-linecap="round" stroke-linejoin="round" stroke-width="4.282089448249742"/>
  <path d="M 14.888821818432291, 99.71626277350133 Q 14.64091949041962, 101.76341621366001, 13.457551247293845, 102.39840616591316 " fill="none" id="curve_2" stroke="#000000" stroke-linecap="round" stroke-linejoin="round" stroke-width="4.910066013284621"/>
  <path d="M 13.457551247293845, 102.39840616591316 Q 21.208736611866385, 100.22971370293183, 41.325848205854896, 98.49792694506411 " fill="none" id="curve_2" stroke="#000000" stroke-linecap="round" stroke-linejoin="round" stroke-width="6.804375660404271"/>
  <path d="M 41.325848205854896, 98.49792694506411 Q 58.176881951399324, 98.4113800634378, 59.93935302629235, 96.87326794634768 " fill="none" id="curve_2" stroke="#000000" stroke-linecap="round" stroke-linejoin="round" stroke-width="6.994135793927415"/>
  <path d="M 42.17927533087608, 100.88826410271815 Q 38.67772181631748, 99.99009039097774, 34.01622820320035, 98.94347760541643 " fill="none" id="curve_3" stroke="#000000" stroke-linecap="round" stroke-linejoin="round" stroke-width="3.224935511953869"/>
  <path d="M 27.824344043168942, 52.64016785211528 Q 30.476027636071763, 49.75464318227803, 35.75368635064979, 47.62276011666993 " fill="none" id="curve_4" stroke="#000000" stroke-linecap="round" stroke-linejoin="round" stroke-width="4.454993836514946"/>
  <path d="M 35.75368635064979, 47.62276011666993 Q 31.788336781874992, 51.700876582538555, 27.12842650314331, 56.81836285976061 " fill="none" id="curve_4" stroke="#000000" stroke-linecap="round" stroke-linejoin="round" stroke-width="2.7405881539094477"/>
  <path d="M 29.809068273219545, 97.90976828529779 Q 26.53547748093133, 97.6664591566735, 22.95259323020027, 97.24191932240589 " fill="none" id="curve_6" stroke="#000000" stroke-linecap="round" stroke-linejoin="round" stroke-width="3.1115377962517448"/>
  <path d="M 40.968102168477614, 81.1157695238528 Q 40.18433982144327, 81.36178406978296, 39.56901216574503, 82.1998736509193 " fill="none" id="curve_7" stroke="#000000" stroke-linecap="round" stroke-linejoin="round" stroke-width="4.326502149050233"/>
  <path d="M 45.85568732078915, 50.19048483985377 Q 44.656134132800354, 49.302013086670286, 38.4788953128869, 48.648031971217954 " fill="none" id="curve_9" stroke="#000000" stroke-linecap="round" stroke-linejoin="round" stroke-width="2.321490235331659"/>
  <path d="M 57.262837915871664, 93.98714512178088 Q 57.282690838214435, 95.23980846789975, 57.331272556154524, 96.27608498923789 " fill="none" id="curve_12" stroke="#000000" stroke-linecap="round" stroke-linejoin="round" stroke-width="4.368355871146634"/>
  <path d="M 47.99298408695008, 68.71166743926263 Q 46.99298981692946, 69.07987529540092, 45.9015620514329, 70.0519483319271 " fill="none" id="curve_13" stroke="#000000" stroke-linecap="round" stroke-linejoin="round" stroke-width="3.2799305823412928"/>
  <path d="M 44.69322483756481, 101.21655521337136 Q 44.56214887205746, 100.65240892917318, 44.33182951981363, 100.0134776778882 " fill="none" id="curve_30" stroke="#000000" stroke-linecap="round" stroke-linejoin="round" stroke-width="4.123770323838804"/>
  <path d="M 45.83594306302921, 55.80974549448827 Q 46.136896497790275, 56.79058785969934, 46.59294044149812, 58.593889494629224 " fill="none" id="curve_32" stroke="#000000" stroke-linecap="round" stroke-linejoin="round" stroke-width="2.305859851053591"/>
  <path d="M 22.928669513896924, 62.57632390933954 Q 23.55951044814636, 62.00664075266599, 25.167167886494678, 61.12412464648177 " fill="none" id="curve_74" stroke="#000000" stroke-linecap="round" stroke-linejoin="round" stroke-width="2.0606886824274446"/>
</svg>
