<?xml version="1.0" ?>
<svg height="140" width="140" xmlns="http://www.w3.org/2000/svg">
  <path d="M 62.30030465713065, 41.16180330685333 Q 52.18488229276166, 41.874707469730936, 43.24007064728707, 46.14968848310582 " fill="none" id="curve_2" stroke="#000000" stroke-linecap="round" stroke-linejoin="round" stroke-width="3.9332939253044676"/>
  <path d="M 43.24007064728707, 46.14968848310582 Q 35.568637181627324, 49.138531698574575, 28.48489149640269, 54.28060833688454 " fill="none" id="curve_2" stroke="#000000" stroke-linecap="round" stroke-linejoin="round" stroke-width="4.530289855694073"/>
  <path d="M 57.48734888448958, 49.81866521349034 Q 51.40005376661624, 56.225179431426014, 31.8000644571229, 81.5970541359332 " fill="none" id="curve_3" stroke="#000000" stroke-linecap="round" stroke-linejoin="round" stroke-width="4.534381657256477"/>
  <path d="M 31.8000644571229, 81.5970541359332 Q 24.799220597256152, 88.52925712880868, 18.618979642626172, 104.5574715518919 " fill="none" id="curve_3" stroke="#000000" stroke-linecap="round" stroke-linejoin="round" stroke-width="4.5496283606987715"/>
  <path d="M 18.618979642626172, 104.5574715518919 Q 34.22600434005004, 102.15974054740872, 52.453093164305585, 87.43465248607241 " fill="none" id="curve_3" stroke="#000000" stroke-linecap="round" stroke-linejoin="round" stroke-width="5.374456659287411"/>
  <path d="M 52.453093164305585, 87.43465248607241 Q 61.312243743353264, 83.45348999034559, 69.38335849113405, 76.49568918673164 " fill="none" id="curve_3" stroke="#000000" stroke-linecap="round" stroke-linejoin="round" stroke-width="3.4711995070827846"/>
  <path d="M 59.29501142275842, 46.80312211614992 Q 60.4462568758694, 46.100712338044026, 61.05984550524312, 44.014367229332066 " fill="none" id="curve_4" stroke="#000000" stroke-linecap="round" stroke-linejoin="round" stroke-width="6.594431286265932"/>
  <path d="M 33.73442010623215, 49.761236708521935 Q 42.884549468627085, 47.155691048765554, 52.462561738963494, 42.72650377152047 " fill="none" id="curve_5" stroke="#000000" stroke-linecap="round" stroke-linejoin="round" stroke-width="3.01355927135551"/>
  <path d="M 50.301918029785156, 91.93431855738163 Q 36.28388054609351, 92.95462579174664, 29.81089003354009, 103.52447297576782 " fill="none" id="curve_19" stroke="#000000" stroke-linecap="round" stroke-linejoin="round" stroke-width="3.115390584672544"/>
  <path d="M 29.81089003354009, 103.52447297576782 Q 23.828364307496706, 103.39930566026256, 21.311026687375257, 102.2498290801241 " fill="none" id="curve_19" stroke="#000000" stroke-linecap="round" stroke-linejoin="round" stroke-width="2.9302797250686203"/>
  <path d="M 23.444182159534485, 92.80180385950534 Q 21.29956191697405, 94.9251687196602, 19.4854266121222, 99.62879298600895 " fill="none" id="curve_20" stroke="#000000" stroke-linecap="round" stroke-linejoin="round" stroke-width="2.7312331178140914"/>
  <path d="M 41.819684094595814, 47.736534666832746 Q 42.234579063806315, 43.48688993638821, 55.339738985981626, 43.07799559185949 " fill="none" id="curve_21" stroke="#000000" stroke-linecap="round" stroke-linejoin="round" stroke-width="3.2642565328040023"/>
  <path d="M 58.26356410039733, 46.09941022731462 Q 57.61401393583479, 50.1774897979665, 55.24303093620389, 52.80133871762426 " fill="none" id="curve_31" stroke="#000000" stroke-linecap="round" stroke-linejoin="round" stroke-width="2.3504804794539353"/>
  <path d="M 72.25790946205178, 75.46225071408779 Q 71.3322349386015, 75.98395658697095, 69.36846088778596, 76.53849046073502 " fill="none" id="curve_32" stroke="#000000" stroke-linecap="round" stroke-linejoin="round" stroke-width="2.6871760467570582"/>
  <path d="M 57.75360393532477, 42.040078402201274 Q 43.82320230984999, 44.43411952288294, 28.44526294250452, 53.045490090403874 " fill="none" id="curve_33" stroke="#000000" stroke-linecap="round" stroke-linejoin="round" stroke-width="2.4421973721220493"/>
  <path d="M 47.88098648468302, 90.03330630200851 Q 42.331889592554646, 90.91876850012203, 39.66556859208019, 95.00447161331607 " fill="none" id="curve_34" stroke="#000000" stroke-linecap="round" stroke-linejoin="round" stroke-width="2.871706982257238"/>
  <path d="M 49.955290732644094, 43.02330035464771 Q 44.914213543405594, 46.38537066537333, 33.56242897228404, 49.589621172078 " fill="none" id="curve_43" stroke="#000000" stroke-linecap="round" stroke-linejoin="round" stroke-width="2.5694430213580994"/>
  <path d="M 50.01001084733235, 43.163300028790175 Q 46.637431963035006, 45.62019975319099, 39.25941664204424, 47.704391056388516 " fill="none" id="curve_44" stroke="#000000" stroke-linecap="round" stroke-linejoin="round" stroke-width="2.861058097177984"/>
  <path d="M 39.06430974849597, 48.024368643084514 Q 43.044146401924486, 45.58387076320708, 51.55914454972181, 42.988748282474944 " fill="none" id="curve_52" stroke="#000000" stroke-linecap="round" stroke-linejoin="round" stroke-width="2.4859209847859955"/>
  <path d="M 50.090750367379385, 44.02722427771329 Q 56.96888375114364, 44.050452078308844, 59.44151001425371, 44.176575233738745 " fill="none" id="curve_56" stroke="#000000" stroke-linecap="round" stroke-linejoin="round" stroke-width="2.0918408934059376"/>
  <path d="M 47.373811642510724, 44.59754629075225 Q 45.9857481718994, 45.42574365428577, 42.835582153004474, 46.20985521449451 " fill="none" id="curve_57" stroke="#000000" stroke-linecap="round" stroke-linejoin="round" stroke-width="3.6677104796929205"/>
  <path d="M 42.835582153004474, 46.20985521449451 Q 45.26799234827979, 45.07146780270033, 47.86345399550347, 43.510931493104025 " fill="none" id="curve_57" stroke="#000000" stroke-linecap="round" stroke-linejoin="round" stroke-width="4.209064727899397"/>
  <path d="M 44.835780150602204, 46.95169580586491 Q 47.591254087246156, 45.43592634887872, 51.22514487195586, 43.45073421458604 " fill="none" id="curve_72" stroke="#000000" stroke-linecap="round" stroke-linejoin="round" stroke-width="2.8436229491876595"/>
  <path d="M 45.05562719893029, 63.477962817934646 Q 50.08635252135167, 58.61181622844198, 56.8688622095649, 49.777787560983036 " fill="none" id="curve_83" stroke="#000000" stroke-linecap="round" stroke-linejoin="round" stroke-width="2.410231492468277"/>
  <path d="M 47.984092985781885, 89.67457143279788 Q 47.175752720985734, 89.72435482643446, 46.0713288916535, 89.79696993402904 " fill="none" id="curve_99" stroke="#000000" stroke-linecap="round" stroke-linejoin="round" stroke-width="3.4113229954727347"/>
</svg>
