<?xml version="1.0" ?>
<svg height="140" width="140" xmlns="http://www.w3.org/2000/svg">
  <path d="M 83.72152072405987, 106.24935001928525 Q 77.94937772114977, 108.14238466163386, 67.60559147291235, 112.03180666092854 " fill="none" id="curve_2" stroke="#000000" stroke-linecap="round" stroke-linejoin="round" stroke-width="4.830281635580509"/>
  <path d="M 67.60559147291235, 112.03180666092854 Q 60.20117225293377, 114.62144750213714, 49.080342423943264, 122.74302683931387 " fill="none" id="curve_2" stroke="#000000" stroke-linecap="round" stroke-linejoin="round" stroke-width="4.873138808388437"/>
  <path d="M 49.080342423943264, 122.74302683931387 Q 47.24193255876913, 123.80482500098655, 43.23137527589797, 124.37559244171804 " fill="none" id="curve_2" stroke="#000000" stroke-linecap="round" stroke-linejoin="round" stroke-width="7.034143589376258"/>
  <path d="M 43.23137527589797, 124.37559244171804 Q 45.27058758924857, 117.23816028344955, 49.33512297616452, 94.92211704890354 " fill="none" id="curve_2" stroke="#000000" stroke-linecap="round" stroke-linejoin="round" stroke-width="5.260371865990517"/>
  <path d="M 49.33512297616452, 94.92211704890354 Q 51.43111314353694, 86.99793685847203, 56.27443624364469, 64.33111802584759 " fill="none" id="curve_2" stroke="#000000" stroke-linecap="round" stroke-linejoin="round" stroke-width="5.033289430839094"/>
  <path d="M 56.27443624364469, 64.33111802584759 Q 57.92666716184623, 57.78857266725415, 59.58481078233559, 36.62472025978221 " fill="none" id="curve_2" stroke="#000000" stroke-linecap="round" stroke-linejoin="round" stroke-width="4.976776768201563"/>
  <path d="M 59.58481078233559, 36.62472025978221 Q 59.01284955565831, 30.336958471100797, 54.57244486231012, 29.03676176578731 " fill="none" id="curve_2" stroke="#000000" stroke-linecap="round" stroke-linejoin="round" stroke-width="5.4328756453957165"/>
  <path d="M 54.57244486231012, 29.03676176578731 Q 37.45190641092587, 31.010708370364586, 30.522197047214323, 52.154656085877505 " fill="none" id="curve_2" stroke="#000000" stroke-linecap="round" stroke-linejoin="round" stroke-width="5.613309751143947"/>
  <path d="M 30.522197047214323, 52.154656085877505 Q 29.77759977630492, 55.8346203872153, 29.34294026249857, 64.11539342507926 " fill="none" id="curve_2" stroke="#000000" stroke-linecap="round" stroke-linejoin="round" stroke-width="4.748134724693095"/>
  <path d="M 53.078637684908315, 27.944852011487715 Q 41.13979545769253, 29.69887010822416, 35.30544547585281, 39.67825794285778 " fill="none" id="curve_4" stroke="#000000" stroke-linecap="round" stroke-linejoin="round" stroke-width="2.755393198002256"/>
  <path d="M 58.248648114272456, 34.93410298312534 Q 58.9645880864367, 40.34481100794398, 60.600233497638115, 43.24456755021673 " fill="none" id="curve_5" stroke="#000000" stroke-linecap="round" stroke-linejoin="round" stroke-width="4.516391076662203"/>
  <path d="M 35.53842247907559, 38.56016443434572 Q 33.498699943212, 43.09729163151596, 30.557986341838618, 47.3750857838282 " fill="none" id="curve_6" stroke="#000000" stroke-linecap="round" stroke-linejoin="round" stroke-width="3.591992070061521"/>
  <path d="M 55.56477165222168, 29.637428283691406 Q 57.09300158832337, 35.837355467891065, 61.79359003337865, 40.01156305487598 " fill="none" id="curve_20" stroke="#000000" stroke-linecap="round" stroke-linejoin="round" stroke-width="3.3500873348279265"/>
  <path d="M 56.0626491279276, 27.834584119640684 Q 49.22210464109062, 28.20921511109593, 44.71987949746748, 29.616317912748386 " fill="none" id="curve_21" stroke="#000000" stroke-linecap="round" stroke-linejoin="round" stroke-width="3.05154239940347"/>
  <path d="M 53.67952149388595, 84.4949122282564 Q 51.8556401304061, 87.7115827822667, 48.98668831488991, 91.93156228726885 " fill="none" id="curve_24" stroke="#000000" stroke-linecap="round" stroke-linejoin="round" stroke-width="3.5611222556378688"/>
  <path d="M 56.12346036761016, 30.692144940364507 Q 56.77092790407822, 29.93358176586639, 57.97501628684727, 28.754889287331444 " fill="none" id="curve_26" stroke="#000000" stroke-linecap="round" stroke-linejoin="round" stroke-width="3.4777195997639705"/>
  <path d="M 31.849931612625902, 42.86619936662164 Q 33.498006343635744, 41.942883868228535, 35.31580917527144, 39.746900654673944 " fill="none" id="curve_33" stroke="#000000" stroke-linecap="round" stroke-linejoin="round" stroke-width="3.103525074393997"/>
  <path d="M 57.63668352250434, 40.8304015877502 Q 57.79961084717132, 41.2102911058783, 57.95485245336465, 42.260398849754516 " fill="none" id="curve_48" stroke="#000000" stroke-linecap="round" stroke-linejoin="round" stroke-width="3.0560382656461926"/>
  <path d="M 52.96550753435463, 118.11360117114555 Q 52.317075481318305, 121.2758309181287, 42.12489029808475, 121.64307091434253 " fill="none" id="curve_63" stroke="#000000" stroke-linecap="round" stroke-linejoin="round" stroke-width="4.65424328113815"/>
  <path d="M 49.915969985524875, 27.575215925927832 Q 49.19550231173568, 28.02083998889286, 47.84589452666312, 28.639853883411824 " fill="none" id="curve_72" stroke="#000000" stroke-linecap="round" stroke-linejoin="round" stroke-width="3.2831557818039743"/>
  <path d="M 52.429723252227504, 81.07474597421816 Q 52.996437674175965, 69.77326991821897, 56.68022750466711, 64.7571579693239 " fill="none" id="curve_74" stroke="#000000" stroke-linecap="round" stroke-linejoin="round" stroke-width="2.800769458839434"/>
  <path d="M 76.6587085495396, 109.0563166543331 Q 74.86204163146658, 108.64037186897784, 72.78550825562714, 107.96248122162581 " fill="none" id="curve_102" stroke="#000000" stroke-linecap="round" stroke-linejoin="round" stroke-width="2.768743766911598"/>
  <path d="M 50.06525516395482, 98.54475396247187 Q 50.2551796244592, 85.02360711824105, 51.550018613377055, 79.1868866076648 " fill="none" id="curve_117" stroke="#000000" stroke-linecap="round" stroke-linejoin="round" stroke-width="2.918252831639232"/>
</svg>
