<?xml version="1.0" ?>
<svg height="140" width="140" xmlns="http://www.w3.org/2000/svg">
  <path d="M 68.31956580304835, 51.15204799260317 Q 69.64734211940852, 50.90380740014267, 72.01652164477589, 50.59218210925875 " fill="none" id="curve_2" stroke="#000000" stroke-linecap="round" stroke-linejoin="round" stroke-width="5.418537015148838"/>
  <path d="M 72.01652164477589, 50.59218210925875 Q 71.11098918692008, 61.077096754746194, 62.82690756917035, 68.14420379627529 " fill="none" id="curve_2" stroke="#000000" stroke-linecap="round" stroke-linejoin="round" stroke-width="5.123521742958172"/>
  <path d="M 62.82690756917035, 68.14420379627529 Q 55.463808161753704, 73.78036850807001, 40.096661093723114, 93.10042320694527 " fill="none" id="curve_2" stroke="#000000" stroke-linecap="round" stroke-linejoin="round" stroke-width="6.2079724103008695"/>
  <path d="M 40.096661093723114, 93.10042320694527 Q 39.36769842572907, 95.38928270515443, 39.0080607719778, 104.27483095436824 " fill="none" id="curve_2" stroke="#000000" stroke-linecap="round" stroke-linejoin="round" stroke-width="5.337171417569971"/>
  <path d="M 39.0080607719778, 104.27483095436824 Q 49.76827940915116, 104.30393946851173, 51.45995642283371, 104.83992251864949 " fill="none" id="curve_2" stroke="#000000" stroke-linecap="round" stroke-linejoin="round" stroke-width="4.173334338142032"/>
  <path d="M 51.45995642283371, 104.83992251864949 Q 64.1106384730803, 102.36533825728476, 73.72415039702318, 97.66620129437402 " fill="none" id="curve_2" stroke="#000000" stroke-linecap="round" stroke-linejoin="round" stroke-width="3.6664996137873223"/>
  <path d="M 51.91303753946052, 60.168637532521636 Q 42.71474548479359, 63.031500384919745, 29.510091185548326, 80.79567147216522 " fill="none" id="curve_3" stroke="#000000" stroke-linecap="round" stroke-linejoin="round" stroke-width="5.392244088274095"/>
  <path d="M 29.510091185548326, 80.79567147216522 Q 30.3198307190787, 84.83045545964275, 32.62921207036581, 86.70616426333135 " fill="none" id="curve_3" stroke="#000000" stroke-linecap="round" stroke-linejoin="round" stroke-width="4.856057079983062"/>
  <path d="M 51.19811732845587, 58.33868308149189 Q 60.445512346917404, 56.207724557143024, 65.28003255861427, 50.93497802442325 " fill="none" id="curve_4" stroke="#000000" stroke-linecap="round" stroke-linejoin="round" stroke-width="5.4904110911267185"/>
  <path d="M 69.17832761110502, 57.733850399446425 Q 65.41279097669891, 64.69727418847745, 58.32822128793351, 71.6091078590805 " fill="none" id="curve_5" stroke="#000000" stroke-linecap="round" stroke-linejoin="round" stroke-width="2.6444060017839037"/>
  <path d="M 57.55856374536341, 54.489414135664404 Q 47.71011657591713, 57.84888610871616, 38.088850657103265, 68.07569400592946 " fill="none" id="curve_6" stroke="#000000" stroke-linecap="round" stroke-linejoin="round" stroke-width="3.8115724816388554"/>
  <path d="M 66.11865554458737, 61.161889692881914 Q 67.60983095990254, 57.52052714468928, 70.47847593198412, 53.71966473568942 " fill="none" id="curve_7" stroke="#000000" stroke-linecap="round" stroke-linejoin="round" stroke-width="2.81488588037056"/>
  <path d="M 60.53447935845989, 51.834322398954505 Q 58.80576296978244, 53.82107371166322, 56.317903260301705, 55.68401017766174 " fill="none" id="curve_8" stroke="#000000" stroke-linecap="round" stroke-linejoin="round" stroke-width="3.6712060460365232"/>
  <path d="M 36.00723871914301, 99.58199161059488 Q 37.20281007698923, 98.19775522077494, 38.13198047082124, 95.13144419322002 " fill="none" id="curve_10" stroke="#000000" stroke-linecap="round" stroke-linejoin="round" stroke-width="3.0136769476679994"/>
  <path d="M 46.20202688321821, 104.92686706343191 Q 54.07717996674504, 103.45915253482868, 62.434935855267874, 101.0024670930568 " fill="none" id="curve_11" stroke="#000000" stroke-linecap="round" stroke-linejoin="round" stroke-width="2.717046326349834"/>
  <path d="M 74.80566806212893, 95.6304143944776 Q 75.83907551099644, 96.09723684956207, 77.10125357607686, 97.01344143378118 " fill="none" id="curve_16" stroke="#000000" stroke-linecap="round" stroke-linejoin="round" stroke-width="2.689187024116981"/>
  <path d="M 59.21026446130831, 67.0683063018415 Q 53.98880701164793, 75.60368223360862, 42.10604132071864, 87.30139907942612 " fill="none" id="curve_17" stroke="#000000" stroke-linecap="round" stroke-linejoin="round" stroke-width="2.7751201648316353"/>
  <path d="M 44.774230972447036, 106.32757815669024 Q 47.54413296697495, 105.90243215665714, 50.05731568166581, 104.97720588358476 " fill="none" id="curve_18" stroke="#000000" stroke-linecap="round" stroke-linejoin="round" stroke-width="3.1903614442616095"/>
  <path d="M 65.62899908074444, 63.001881434655566 Q 66.8827943033613, 60.34618041145931, 68.88786512036637, 56.068989539564875 " fill="none" id="curve_20" stroke="#000000" stroke-linecap="round" stroke-linejoin="round" stroke-width="3.539152191845667"/>
  <path d="M 31.95580896931746, 76.56759286512901 Q 37.22623583510831, 71.83919931528334, 46.31935528645242, 64.55090994071055 " fill="none" id="curve_24" stroke="#000000" stroke-linecap="round" stroke-linejoin="round" stroke-width="2.2782181550020613"/>
  <path d="M 34.00520275858709, 73.82527990647093 Q 35.32062390545413, 73.0242319545455, 37.72752650239414, 71.32850909478722 " fill="none" id="curve_25" stroke="#000000" stroke-linecap="round" stroke-linejoin="round" stroke-width="2.5627919036761972"/>
  <path d="M 56.07568102487221, 103.42838113293988 Q 54.176389690598114, 103.2078970194947, 52.037333558885194, 102.74620620168538 " fill="none" id="curve_53" stroke="#000000" stroke-linecap="round" stroke-linejoin="round" stroke-width="2.797293796349506"/>
</svg>
