<?xml version="1.0" ?>
<svg height="140" width="140" xmlns="http://www.w3.org/2000/svg">
  <path d="M 53.47385025024414, 59.084127604961395 Q 53.56417125277958, 57.89088509706842, 53.6156269178848, 51.87871259128531 " fill="none" id="curve_1" stroke="#000000" stroke-linecap="round" stroke-linejoin="round" stroke-width="7.848029328279318"/>
  <path d="M 53.6156269178848, 51.87871259128531 Q 53.028973688981175, 51.46114524204143, 50.392662516571434, 51.0255695187368 " fill="none" id="curve_1" stroke="#000000" stroke-linecap="round" stroke-linejoin="round" stroke-width="5.6101050067804366"/>
  <path d="M 52.880261220935246, 62.43046306692409 Q 48.09932226303729, 71.11816238485889, 29.390914533438817, 92.66513097709944 " fill="none" id="curve_2" stroke="#000000" stroke-linecap="round" stroke-linejoin="round" stroke-width="5.328522221393034"/>
  <path d="M 29.390914533438817, 92.66513097709944 Q 25.24635142122559, 96.04513429667223, 23.37710319309661, 104.1416079367229 " fill="none" id="curve_2" stroke="#000000" stroke-linecap="round" stroke-linejoin="round" stroke-width="5.270688000992824"/>
  <path d="M 23.37710319309661, 104.1416079367229 Q 34.10725344189017, 104.16074467206496, 36.01324433810407, 104.45729333169166 " fill="none" id="curve_2" stroke="#000000" stroke-linecap="round" stroke-linejoin="round" stroke-width="4.777443254747816"/>
  <path d="M 36.01324433810407, 104.45729333169166 Q 48.28826068951599, 102.5371361720359, 69.14920107953472, 100.59047422975804 " fill="none" id="curve_2" stroke="#000000" stroke-linecap="round" stroke-linejoin="round" stroke-width="4.851928351122595"/>
  <path d="M 69.14920107953472, 100.59047422975804 Q 70.83189796117878, 100.74899106170994, 71.95132242458112, 101.1349586784199 " fill="none" id="curve_2" stroke="#000000" stroke-linecap="round" stroke-linejoin="round" stroke-width="3.9350633333934106"/>
  <path d="M 52.897296138107095, 57.237876354132155 Q 52.52461923972124, 42.058216882482576, 37.878459005784066, 40.34753652161526 " fill="none" id="curve_3" stroke="#000000" stroke-linecap="round" stroke-linejoin="round" stroke-width="5.171993120587203"/>
  <path d="M 37.878459005784066, 40.34753652161526 Q 22.4594675282451, 40.90473569572932, 20.006373477081024, 47.85777109998944 " fill="none" id="curve_3" stroke="#000000" stroke-linecap="round" stroke-linejoin="round" stroke-width="4.861343038728349"/>
  <path d="M 49.343388186057794, 63.51863206562386 Q 50.53963127614231, 59.766379675785764, 53.91464108120523, 57.40012713811937 " fill="none" id="curve_4" stroke="#000000" stroke-linecap="round" stroke-linejoin="round" stroke-width="3.4312698219814464"/>
  <path d="M 54.00226177709221, 47.910084160442885 Q 45.48097612373839, 45.84218594186626, 35.643355096540496, 39.71959932873062 " fill="none" id="curve_5" stroke="#000000" stroke-linecap="round" stroke-linejoin="round" stroke-width="2.7998028067242107"/>
  <path d="M 54.867942479054804, 57.695291938551925 Q 50.73185350801616, 63.436715526809884, 40.555606605094276, 74.7416220154393 " fill="none" id="curve_6" stroke="#000000" stroke-linecap="round" stroke-linejoin="round" stroke-width="3.1499980770790006"/>
  <path d="M 40.555606605094276, 74.7416220154393 Q 36.83494011706508, 81.49246665469497, 29.38281208423547, 89.77630197803647 " fill="none" id="curve_6" stroke="#000000" stroke-linecap="round" stroke-linejoin="round" stroke-width="2.799224548999094"/>
  <path d="M 25.430603862032992, 105.6899956356575 Q 26.373559861476906, 106.07747385932169, 36.0760071993273, 106.13379575222663 " fill="none" id="curve_7" stroke="#000000" stroke-linecap="round" stroke-linejoin="round" stroke-width="3.0510711358986624"/>
  <path d="M 36.0760071993273, 106.13379575222663 Q 36.77474458763301, 101.9782863453393, 46.15492667239042, 101.34792114929361 " fill="none" id="curve_7" stroke="#000000" stroke-linecap="round" stroke-linejoin="round" stroke-width="2.7705770688835063"/>
  <path d="M 22.104769528260093, 102.45506935700298 Q 22.31302157676426, 101.45201677345825, 22.620313789583026, 100.48736334293262 " fill="none" id="curve_8" stroke="#000000" stroke-linecap="round" stroke-linejoin="round" stroke-width="4.191005474741817"/>
  <path d="M 41.13810793222052, 39.41378017050942 Q 31.83070636573278, 40.10631265042624, 22.829328232367175, 42.08050444696152 " fill="none" id="curve_12" stroke="#000000" stroke-linecap="round" stroke-linejoin="round" stroke-width="2.388608431086497"/>
  <path d="M 26.153314539877375, 41.951916170015544 Q 30.887572366268785, 40.94814046934042, 42.69831149512921, 40.015357983123465 " fill="none" id="curve_14" stroke="#000000" stroke-linecap="round" stroke-linejoin="round" stroke-width="3.0032068246137897"/>
  <path d="M 36.60479718971921, 104.02604549543757 Q 34.98400282213789, 103.79529699291372, 32.941722029735566, 103.44152086085907 " fill="none" id="curve_20" stroke="#000000" stroke-linecap="round" stroke-linejoin="round" stroke-width="5.026607799751078"/>
  <path d="M 45.29116071399942, 41.362891804943736 Q 42.54370813188019, 40.41544131724442, 33.62615205501377, 39.42837696808793 " fill="none" id="curve_22" stroke="#000000" stroke-linecap="round" stroke-linejoin="round" stroke-width="2.5330157556001716"/>
  <path d="M 51.87911816995495, 57.183007686428766 Q 51.736089472832326, 57.631469869338105, 51.625210892208436, 58.868801604398435 " fill="none" id="curve_50" stroke="#000000" stroke-linecap="round" stroke-linejoin="round" stroke-width="4.101761594066517"/>
  <path d="M 50.89711659965875, 48.954815019657985 Q 48.02926062048294, 46.09159377741223, 42.16320251621895, 39.71579214689016 " fill="none" id="curve_54" stroke="#000000" stroke-linecap="round" stroke-linejoin="round" stroke-width="2.4776276712060468"/>
  <path d="M 41.48298246383277, 41.619780588712686 Q 39.7534475973582, 40.97036783550367, 29.8917239159788, 40.27468493263287 " fill="none" id="curve_58" stroke="#000000" stroke-linecap="round" stroke-linejoin="round" stroke-width="2.7674241179911165"/>
  <path d="M 89.46777462729467, 2.0899774611470203 Q 89.70024113449688, 1.7738072636706899, 90.10056571676533, 1.2854338645419738 " fill="none" id="curve_91" stroke="#000000" stroke-linecap="round" stroke-linejoin="round" stroke-width="1.6412539640991761"/>
  <path d="M 48.14878649521804, 46.617083956573495 Q 48.54217853283973, 45.83025523674054, 48.975601358473256, 43.613534432814234 " fill="none" id="curve_113" stroke="#000000" stroke-linecap="round" stroke-linejoin="round" stroke-width="4.126674159589637"/>
  <path d="M 42.115975663878466, 40.3219788977775 Q 33.798274677349724, 40.48988929451752, 26.8785647558431, 41.22147338587543 " fill="none" id="curve_121" stroke="#000000" stroke-linecap="round" stroke-linejoin="round" stroke-width="2.773397602955679"/>
  <path d="M 37.23286819458008, 40.78443384170532 Q 37.350341847988716, 38.64775764820954, 38.29630492836708, 38.10483958247005 " fill="none" id="curve_135" stroke="#000000" stroke-linecap="round" stroke-linejoin="round" stroke-width="3.0125830687314834"/>
  <path d="M 63.61409497827276, 100.59752500363652 Q 54.12580232057592, 101.03754610118352, 45.40986389194538, 102.54822988583034 " fill="none" id="curve_163" stroke="#000000" stroke-linecap="round" stroke-linejoin="round" stroke-width="2.3089361263125525"/>
</svg>
