<?xml version="1.0" ?>
<svg height="140" width="140" xmlns="http://www.w3.org/2000/svg">
  <path d="M 55.57084974520046, 46.14514886739167 Q 49.68439667270452, 48.40146994765374, 39.4157042325057, 58.00621618740824 " fill="none" id="curve_2" stroke="#000000" stroke-linecap="round" stroke-linejoin="round" stroke-width="3.583414765630517"/>
  <path d="M 56.33788950201681, 65.59013164020173 Q 50.7970894885755, 69.45098185080701, 33.75867578611738, 83.47259216485014 " fill="none" id="curve_3" stroke="#000000" stroke-linecap="round" stroke-linejoin="round" stroke-width="3.2166640458429376"/>
  <path d="M 33.75867578611738, 83.47259216485014 Q 29.32094123917832, 84.7143670206063, 27.913073812533572, 89.67728497757088 " fill="none" id="curve_3" stroke="#000000" stroke-linecap="round" stroke-linejoin="round" stroke-width="3.4580232847906176"/>
  <path d="M 27.913073812533572, 89.67728497757088 Q 28.411551975681192, 91.4393969341797, 40.39763717452132, 91.54979503134176 " fill="none" id="curve_3" stroke="#000000" stroke-linecap="round" stroke-linejoin="round" stroke-width="4.6319502701883835"/>
  <path d="M 40.39763717452132, 91.54979503134176 Q 52.30328037247901, 90.41115924947884, 61.824274402279386, 87.24844986420273 " fill="none" id="curve_3" stroke="#000000" stroke-linecap="round" stroke-linejoin="round" stroke-width="3.4816029851688723"/>
  <path d="M 56.66562640234607, 63.88730156872333 Q 61.9941039000903, 60.563276223029874, 65.48638555076458, 52.38356452514006 " fill="none" id="curve_4" stroke="#000000" stroke-linecap="round" stroke-linejoin="round" stroke-width="4.753476779854322"/>
  <path d="M 65.48638555076458, 52.38356452514006 Q 64.95274072168135, 47.001441776255156, 60.43101354503516, 45.991932338445906 " fill="none" id="curve_4" stroke="#000000" stroke-linecap="round" stroke-linejoin="round" stroke-width="4.9982736852098455"/>
  <path d="M 60.43101354503516, 45.991932338445906 Q 58.505552433064175, 46.798507361981635, 56.76365535115494, 48.00667857460154 " fill="none" id="curve_4" stroke="#000000" stroke-linecap="round" stroke-linejoin="round" stroke-width="3.158439640759846"/>
  <path d="M 64.5370120178867, 51.900376879365695 Q 63.75430599571694, 50.607875448497516, 62.55022020060187, 48.88347617476828 " fill="none" id="curve_5" stroke="#000000" stroke-linecap="round" stroke-linejoin="round" stroke-width="2.7609285337336984"/>
  <path d="M 30.524998533326652, 89.3355952535016 Q 29.7540940388067, 87.94549469301742, 27.788071368701935, 87.0937187224416 " fill="none" id="curve_33" stroke="#000000" stroke-linecap="round" stroke-linejoin="round" stroke-width="3.2890233142857714"/>
  <path d="M 41.65683545327954, 54.28960051123675 Q 41.02373972537059, 56.065150250596744, 39.55943650646196, 57.67399513211125 " fill="none" id="curve_34" stroke="#000000" stroke-linecap="round" stroke-linejoin="round" stroke-width="2.3990540543808425"/>
  <path d="M 46.946313927725384, 89.42923374435368 Q 46.93482198219841, 89.20282775819372, 46.91148438809422, 89.01996561341171 " fill="none" id="curve_49" stroke="#000000" stroke-linecap="round" stroke-linejoin="round" stroke-width="3.07470797994562"/>
  <path d="M 40.440759011426536, 78.27841799495937 Q 42.06474037275309, 78.04097405781422, 42.74865376052894, 76.91649105324527 " fill="none" id="curve_50" stroke="#000000" stroke-linecap="round" stroke-linejoin="round" stroke-width="2.3028867061782736"/>
  <path d="M 54.32186904760699, 87.8165431794986 Q 53.366193910989054, 88.80912690200172, 51.42661052806608, 89.95188548102956 " fill="none" id="curve_51" stroke="#000000" stroke-linecap="round" stroke-linejoin="round" stroke-width="2.153353881666485"/>
  <path d="M 30.33788645505541, 89.23005130658919 Q 30.07543987929493, 87.84033141474382, 28.57842262700414, 87.398434887754 " fill="none" id="curve_79" stroke="#000000" stroke-linecap="round" stroke-linejoin="round" stroke-width="2.6957783855879938"/>
  <path d="M 65.1454060780832, 53.317409817970734 Q 65.03833557724622, 53.5880112462636, 64.87132899470275, 53.915647761024026 " fill="none" id="curve_81" stroke="#000000" stroke-linecap="round" stroke-linejoin="round" stroke-width="3.6435946389870293"/>
  <path d="M 64.38346302327274, 52.87736297943378 Q 64.78383644863224, 53.775038871374534, 65.54969072594994, 54.455054447234254 " fill="none" id="curve_112" stroke="#000000" stroke-linecap="round" stroke-linejoin="round" stroke-width="3.7418969312686854"/>
  <path d="M 62.34758898279567, 53.276390098062286 Q 63.240501870491485, 52.62916706096559, 64.29122175945936, 51.413178008624946 " fill="none" id="curve_142" stroke="#000000" stroke-linecap="round" stroke-linejoin="round" stroke-width="2.288799625466369"/>
</svg>
