<?xml version="1.0" ?>
<svg height="140" width="140" xmlns="http://www.w3.org/2000/svg">
  <path d="M 57.36694145202637, 88.72923755645752 Q 56.765791005919965, 83.17105598916706, 52.86768209584262, 78.6159323563063 " fill="none" id="curve_1" stroke="#000000" stroke-linecap="round" stroke-linejoin="round" stroke-width="4.507760137896065"/>
  <path d="M 52.86768209584262, 78.6159323563063 Q 54.56321124280223, 82.00517774835997, 55.417345561686005, 90.54429059565028 " fill="none" id="curve_1" stroke="#000000" stroke-linecap="round" stroke-linejoin="round" stroke-width="4.325877487986921"/>
  <path d="M 55.417345561686005, 90.54429059565028 Q 51.49437535483074, 99.84954793423402, 34.17668308970446, 119.7751759133938 " fill="none" id="curve_1" stroke="#000000" stroke-linecap="round" stroke-linejoin="round" stroke-width="4.808462352113901"/>
  <path d="M 34.17668308970446, 119.7751759133938 Q 34.291389152603514, 122.71417297357429, 43.52208717546088, 122.80153136824934 " fill="none" id="curve_1" stroke="#000000" stroke-linecap="round" stroke-linejoin="round" stroke-width="4.214151950865903"/>
  <path d="M 43.52208717546088, 122.80153136824934 Q 51.31171968762904, 121.75538012515099, 58.352310485801475, 120.29842462687294 " fill="none" id="curve_1" stroke="#000000" stroke-linecap="round" stroke-linejoin="round" stroke-width="3.776534425485931"/>
  <path d="M 52.29183705150314, 79.38329923593321 Q 48.59792390329456, 75.20432167080999, 29.627251256906842, 71.72615229599938 " fill="none" id="curve_3" stroke="#000000" stroke-linecap="round" stroke-linejoin="round" stroke-width="4.896904781648804"/>
  <path d="M 29.627251256906842, 71.72615229599938 Q 27.15880479326979, 71.81739648276331, 24.83594067160586, 71.94040674937168 " fill="none" id="curve_3" stroke="#000000" stroke-linecap="round" stroke-linejoin="round" stroke-width="5.439476294194466"/>
  <path d="M 52.792412050947064, 93.10180988360608 Q 49.28914565213919, 99.82954653685478, 41.50791453010858, 108.34183571861732 " fill="none" id="curve_4" stroke="#000000" stroke-linecap="round" stroke-linejoin="round" stroke-width="2.725360034785134"/>
  <path d="M 41.50791453010858, 108.34183571861732 Q 39.60626440098982, 114.60327596455156, 36.10410942500326, 118.57076667883453 " fill="none" id="curve_4" stroke="#000000" stroke-linecap="round" stroke-linejoin="round" stroke-width="3.9947144211548307"/>
  <path d="M 90.1423966461042, 2.1555461847316826 Q 89.98933833468404, 3.247700851116181, 89.56939849698111, 4.770762368584184 " fill="none" id="curve_20" stroke="#000000" stroke-linecap="round" stroke-linejoin="round" stroke-width="2.2091543318233975"/>
  <path d="M 53.24059245621342, 90.6981562264998 Q 54.07454255959366, 89.7401408066489, 55.67516020197821, 88.00175875892732 " fill="none" id="curve_35" stroke="#000000" stroke-linecap="round" stroke-linejoin="round" stroke-width="2.385805032954676"/>
  <path d="M 55.95705603576425, 83.16743163480714 Q 56.544727719257374, 83.12910227882442, 56.880244484853435, 82.9627879983887 " fill="none" id="curve_50" stroke="#000000" stroke-linecap="round" stroke-linejoin="round" stroke-width="3.867049440178331"/>
  <path d="M 41.88533228161406, 112.37837031490638 Q 38.69041870989752, 113.07924227417898, 36.18480629832734, 114.64363596475266 " fill="none" id="curve_51" stroke="#000000" stroke-linecap="round" stroke-linejoin="round" stroke-width="2.945465910414409"/>
  <path d="M 43.84213955478617, 122.69473397203956 Q 42.373077273000675, 121.64989771192292, 37.80982457951561, 120.71507154166773 " fill="none" id="curve_105" stroke="#000000" stroke-linecap="round" stroke-linejoin="round" stroke-width="2.980705578076746"/>
  <path d="M 48.22425930881458, 76.25809327546138 Q 48.6006943481855, 80.3797506062422, 52.84143102891388, 81.16035285531099 " fill="none" id="curve_111" stroke="#000000" stroke-linecap="round" stroke-linejoin="round" stroke-width="2.7544189211354078"/>
</svg>
