<?xml version="1.0" ?>
<svg height="140" width="140" xmlns="http://www.w3.org/2000/svg">
  <path d="M 61.66022491455078, 51.88793873041868 Q 61.12564675486884, 51.34537402870674, 60.97528532346276, 45.26381071300847 " fill="none" id="curve_1" stroke="#000000" stroke-linecap="round" stroke-linejoin="round" stroke-width="10.510236516379557"/>
  <path d="M 60.97528532346276, 45.26381071300847 Q 59.10785573886042, 40.965776625225615, 53.22423142097153, 35.9373807967863 " fill="none" id="curve_1" stroke="#000000" stroke-linecap="round" stroke-linejoin="round" stroke-width="6.615891019644157"/>
  <path d="M 53.22423142097153, 35.9373807967863 Q 48.26036203061992, 35.081536292885005, 39.29452450585181, 34.056180525328294 " fill="none" id="curve_1" stroke="#000000" stroke-linecap="round" stroke-linejoin="round" stroke-width="12.381009594386526"/>
  <path d="M 39.29452450585181, 34.056180525328294 Q 34.367677716031, 37.950544578146314, 30.908331352121515, 43.62648900325898 " fill="none" id="curve_1" stroke="#000000" stroke-linecap="round" stroke-linejoin="round" stroke-width="6.6046324062139234"/>
  <path d="M 61.28034786965304, 51.292337488182596 Q 55.1002183095037, 62.10207164342815, 28.298611645590995, 84.70623033679564 " fill="none" id="curve_2" stroke="#000000" stroke-linecap="round" stroke-linejoin="round" stroke-width="8.011621195846185"/>
  <path d="M 28.298611645590995, 84.70623033679564 Q 18.5819134097735, 93.39773235045452, 7.5614692648575, 114.41701452128751 " fill="none" id="curve_2" stroke="#000000" stroke-linecap="round" stroke-linejoin="round" stroke-width="7.94794608577495"/>
  <path d="M 7.5614692648575, 114.41701452128751 Q 9.314550888602017, 116.4175220546522, 14.226666491707913, 117.98514900867914 " fill="none" id="curve_2" stroke="#000000" stroke-linecap="round" stroke-linejoin="round" stroke-width="5.810503088843572"/>
  <path d="M 14.226666491707913, 117.98514900867914 Q 28.47111528439133, 113.76958241826756, 45.304048657330696, 108.18113493455886 " fill="none" id="curve_2" stroke="#000000" stroke-linecap="round" stroke-linejoin="round" stroke-width="5.263042788819911"/>
  <path d="M 39.78719867655181, 68.35310514739302 Q 51.42906915619393, 62.63695834119963, 62.08771448423712, 50.34899096888919 " fill="none" id="curve_3" stroke="#000000" stroke-linecap="round" stroke-linejoin="round" stroke-width="5.113996954092392"/>
  <path d="M 62.08771448423712, 50.34899096888919 Q 58.99422875155405, 57.690191333787, 50.33067829263621, 63.96416925652583 " fill="none" id="curve_3" stroke="#000000" stroke-linecap="round" stroke-linejoin="round" stroke-width="4.819756030320462"/>
  <path d="M 60.06396139706983, 47.31853854300692 Q 58.10765048800999, 41.26807058238175, 47.35493653562448, 37.608170932634565 " fill="none" id="curve_4" stroke="#000000" stroke-linecap="round" stroke-linejoin="round" stroke-width="3.3670633832628436"/>
  <path d="M 62.52399498815435, 49.97657037891095 Q 54.038609303874125, 54.50514316365005, 46.76530201612745, 65.43738744953609 " fill="none" id="curve_5" stroke="#000000" stroke-linecap="round" stroke-linejoin="round" stroke-width="4.25249026318222"/>
  <path d="M 46.76530201612745, 65.43738744953609 Q 58.087739552944335, 63.06972332504752, 63.71249308635552, 51.131736394656116 " fill="none" id="curve_5" stroke="#000000" stroke-linecap="round" stroke-linejoin="round" stroke-width="4.577228264636861"/>
  <path d="M 38.72170508787245, 72.13896270797386 Q 32.0713297261762, 77.6452646018106, 22.595028307823384, 86.25122745795592 " fill="none" id="curve_6" stroke="#000000" stroke-linecap="round" stroke-linejoin="round" stroke-width="3.791613597285808"/>
  <path d="M 13.393880610572772, 109.82858698451555 Q 13.524849703868615, 116.32543926098612, 19.161289371689143, 116.66599201357779 " fill="none" id="curve_7" stroke="#000000" stroke-linecap="round" stroke-linejoin="round" stroke-width="4.560222018399892"/>
  <path d="M 47.435079220320134, 108.96771997425103 Q 46.68857072472997, 108.04203956686862, 44.14708992507248, 107.32891517794245 " fill="none" id="curve_8" stroke="#000000" stroke-linecap="round" stroke-linejoin="round" stroke-width="3.6057735921453347"/>
  <path d="M 44.14708992507248, 107.32891517794245 Q 33.3003283040076, 111.75111706384541, 15.651094341986656, 117.3793536417444 " fill="none" id="curve_8" stroke="#000000" stroke-linecap="round" stroke-linejoin="round" stroke-width="3.864259659467328"/>
  <path d="M 9.680139998280389, 107.658329821245 Q 12.684276813840258, 95.51178217370912, 25.480606916845364, 88.99699613373568 " fill="none" id="curve_9" stroke="#000000" stroke-linecap="round" stroke-linejoin="round" stroke-width="4.745127956307152"/>
  <path d="M 54.961774474183855, 58.861207078638195 Q 55.5722642562172, 51.45444358450902, 60.217086288347176, 49.622179777741806 " fill="none" id="curve_10" stroke="#000000" stroke-linecap="round" stroke-linejoin="round" stroke-width="4.531153046502632"/>
  <path d="M 60.217086288347176, 49.622179777741806 Q 57.39985741840442, 42.958538573867244, 46.06798803288709, 38.380627700478584 " fill="none" id="curve_10" stroke="#000000" stroke-linecap="round" stroke-linejoin="round" stroke-width="2.9968961426580676"/>
  <path d="M 33.08592790771545, 35.53141518212375 Q 29.83042469574191, 36.382852132659764, 29.392146945814744, 46.070450576990325 " fill="none" id="curve_11" stroke="#000000" stroke-linecap="round" stroke-linejoin="round" stroke-width="2.68164233057809"/>
  <path d="M 52.070220487241215, 57.49892432076257 Q 51.41290015953171, 57.88166006685273, 49.414256397368334, 58.337305174677304 " fill="none" id="curve_12" stroke="#000000" stroke-linecap="round" stroke-linejoin="round" stroke-width="3.1334725764109725"/>
  <path d="M 16.8842348246662, 117.8603049269496 Q 24.132069961090984, 116.56523001761087, 28.272233188388018, 111.90995346861516 " fill="none" id="curve_14" stroke="#000000" stroke-linecap="round" stroke-linejoin="round" stroke-width="3.5939612916197596"/>
  <path d="M 32.34159196316899, 110.55417958057357 Q 28.961130631714727, 115.32757907756852, 14.334004565918903, 117.16632388156893 " fill="none" id="curve_16" stroke="#000000" stroke-linecap="round" stroke-linejoin="round" stroke-width="4.331479285371787"/>
  <path d="M 15.114080849987271, 96.50897123276815 Q 16.38575670364729, 91.35766492855839, 23.90603693913843, 89.2034537588751 " fill="none" id="curve_23" stroke="#000000" stroke-linecap="round" stroke-linejoin="round" stroke-width="4.5837890493591145"/>
  <path d="M 23.51809131587709, 113.55727516435151 Q 23.485686260327324, 112.28223939521637, 21.133286425727132, 112.20874866120133 " fill="none" id="curve_24" stroke="#000000" stroke-linecap="round" stroke-linejoin="round" stroke-width="2.8964202307532334"/>
  <path d="M 19.81857954652753, 98.41878279879396 Q 21.057104629314956, 93.7507802975522, 26.211207193428514, 91.25269583593436 " fill="none" id="curve_26" stroke="#000000" stroke-linecap="round" stroke-linejoin="round" stroke-width="2.6408380335388215"/>
  <path d="M 41.040035247802734, 108.03449249267578 Q 31.668941110043818, 109.71852715002647, 22.651569121186753, 116.16821113955217 " fill="none" id="curve_105" stroke="#000000" stroke-linecap="round" stroke-linejoin="round" stroke-width="3.1949424578345553"/>
</svg>
