<?xml version="1.0" ?>
<svg height="140" width="140" xmlns="http://www.w3.org/2000/svg">
  <path d="M 66.89163589477539, 88.33178901672363 Q 65.00463142375789, 90.79884227296193, 50.38306759064244, 92.04239838740568 " fill="none" id="curve_1" stroke="#000000" stroke-linecap="round" stroke-linejoin="round" stroke-width="6.272198540235773"/>
  <path d="M 50.38306759064244, 92.04239838740568 Q 45.333638119271896, 91.73256714471033, 41.692020933426186, 90.90286389197796 " fill="none" id="curve_1" stroke="#000000" stroke-linecap="round" stroke-linejoin="round" stroke-width="6.123810565006557"/>
  <path d="M 41.692020933426186, 90.90286389197796 Q 42.997514917561475, 79.63641736534152, 50.66629208011037, 70.29147723523107 " fill="none" id="curve_1" stroke="#000000" stroke-linecap="round" stroke-linejoin="round" stroke-width="6.2010254537059435"/>
  <path d="M 50.66629208011037, 70.29147723523107 Q 50.50188497955535, 66.29286973642401, 50.31835629884897, 59.68575206671328 " fill="none" id="curve_1" stroke="#000000" stroke-linecap="round" stroke-linejoin="round" stroke-width="4.5718480203279"/>
  <path d="M 50.31835629884897, 59.68575206671328 Q 37.8388384321038, 59.743699082964795, 36.74283712512013, 61.596346598262855 " fill="none" id="curve_1" stroke="#000000" stroke-linecap="round" stroke-linejoin="round" stroke-width="3.234917383240327"/>
  <path d="M 66.33453909316735, 89.04319284153001 Q 69.61783490325543, 88.99208747537305, 71.36868795543636, 88.83567975998645 " fill="none" id="curve_2" stroke="#000000" stroke-linecap="round" stroke-linejoin="round" stroke-width="3.58694802829009"/>
  <path d="M 49.87248222307424, 60.1745828757017 Q 49.163763280859534, 58.78676555495594, 40.28441723624575, 58.40261177015632 " fill="none" id="curve_3" stroke="#000000" stroke-linecap="round" stroke-linejoin="round" stroke-width="2.4828110243866157"/>
  <path d="M 53.3765604826181, 65.48063463851844 Q 52.579006321082815, 62.81354086660968, 50.50706904407615, 61.03946071835443 " fill="none" id="curve_4" stroke="#000000" stroke-linecap="round" stroke-linejoin="round" stroke-width="2.871519429940634"/>
  <path d="M 41.3730272398305, 87.0793408165463 Q 40.93804423533284, 88.20854275587477, 40.41633412800468, 89.8286544945386 " fill="none" id="curve_5" stroke="#000000" stroke-linecap="round" stroke-linejoin="round" stroke-width="4.264637450381255"/>
  <path d="M 65.04578374145618, 90.30211930403424 Q 64.29846289687387, 89.92154378997157, 63.393743663507834, 89.387344328198 " fill="none" id="curve_6" stroke="#000000" stroke-linecap="round" stroke-linejoin="round" stroke-width="5.811145501070812"/>
  <path d="M 36.54956706308078, 62.08855574576428 Q 36.81982199308989, 62.472337151298575, 37.571244051012336, 63.08306683575935 " fill="none" id="curve_12" stroke="#000000" stroke-linecap="round" stroke-linejoin="round" stroke-width="2.4493639529727957"/>
  <path d="M 40.18944966785938, 85.68406307707825 Q 40.76096548834652, 84.65415393993472, 41.806161452047796, 83.02634702077839 " fill="none" id="curve_28" stroke="#000000" stroke-linecap="round" stroke-linejoin="round" stroke-width="2.6599218402769313"/>
  <path d="M 48.850383863500795, 58.06016955621567 Q 48.77937481766478, 58.35152982630275, 48.694272565484276, 58.992518241456466 " fill="none" id="curve_37" stroke="#000000" stroke-linecap="round" stroke-linejoin="round" stroke-width="2.8139690752755087"/>
</svg>
