<?xml version="1.0" ?>
<svg height="140" width="140" xmlns="http://www.w3.org/2000/svg">
  <path d="M 64.54428100585938, 82.58287620544434 Q 66.2398716739143, 82.3520993686953, 67.34804292710132, 81.70456084683278 " fill="none" id="curve_1" stroke="#000000" stroke-linecap="round" stroke-linejoin="round" stroke-width="3.682564418963113"/>
  <path d="M 67.34804292710132, 81.70456084683278 Q 63.729975544419126, 81.9079392051011, 60.49906920729873, 82.33247420791325 " fill="none" id="curve_1" stroke="#000000" stroke-linecap="round" stroke-linejoin="round" stroke-width="4.240726618111106"/>
  <path d="M 60.49906920729873, 82.33247420791325 Q 54.743323132036785, 78.6371726541591, 36.5152968035077, 70.6283217139027 " fill="none" id="curve_1" stroke="#000000" stroke-linecap="round" stroke-linejoin="round" stroke-width="5.0010987792704675"/>
  <path d="M 36.5152968035077, 70.6283217139027 Q 23.62520305841194, 70.56563271550351, 22.588220790218656, 68.35517539858839 " fill="none" id="curve_1" stroke="#000000" stroke-linecap="round" stroke-linejoin="round" stroke-width="4.288236405483063"/>
  <path d="M 22.588220790218656, 68.35517539858839 Q 17.166701525924438, 74.13765157350066, 7.420483665886218, 80.77510174631254 " fill="none" id="curve_1" stroke="#000000" stroke-linecap="round" stroke-linejoin="round" stroke-width="4.1095455655910405"/>
  <path d="M 26.670288873947776, 67.6245996116351 Q 35.79152216127886, 61.22367252059648, 54.13639882836958, 45.1930278945333 " fill="none" id="curve_2" stroke="#000000" stroke-linecap="round" stroke-linejoin="round" stroke-width="4.188625692306941"/>
  <path d="M 54.13639882836958, 45.1930278945333 Q 56.58654946452894, 41.70286450456247, 58.61885711509183, 36.309189073068055 " fill="none" id="curve_2" stroke="#000000" stroke-linecap="round" stroke-linejoin="round" stroke-width="4.701474212728289"/>
  <path d="M 58.61885711509183, 36.309189073068055 Q 57.770902208111906, 27.00089000475402, 37.28748108880528, 25.19382403763855 " fill="none" id="curve_2" stroke="#000000" stroke-linecap="round" stroke-linejoin="round" stroke-width="5.115663268214394"/>
  <path d="M 37.28748108880528, 25.19382403763855 Q 23.79384010606763, 26.126149109427036, 20.730677441263502, 39.54720145990656 " fill="none" id="curve_2" stroke="#000000" stroke-linecap="round" stroke-linejoin="round" stroke-width="4.587440902585931"/>
  <path d="M 20.730677441263502, 39.54720145990656 Q 21.408743834949025, 44.12684171309966, 23.148438519405882, 46.22488441465274 " fill="none" id="curve_2" stroke="#000000" stroke-linecap="round" stroke-linejoin="round" stroke-width="4.027233203388028"/>
  <path d="M 20.037473472916485, 71.96692265815258 Q 14.057100801596354, 73.73714674275874, 10.079102421207889, 77.95508559491672 " fill="none" id="curve_3" stroke="#000000" stroke-linecap="round" stroke-linejoin="round" stroke-width="2.925406834484887"/>
  <path d="M 36.75671372582501, 59.565168707629056 Q 29.136117950209485, 63.00609640446108, 22.39619246420408, 70.82929376130092 " fill="none" id="curve_4" stroke="#000000" stroke-linecap="round" stroke-linejoin="round" stroke-width="3.0964857290555887"/>
  <path d="M 53.573839859670855, 80.47117572936907 Q 56.28856049441979, 81.00642809902902, 60.0417591465865, 81.562005452521 " fill="none" id="curve_5" stroke="#000000" stroke-linecap="round" stroke-linejoin="round" stroke-width="3.5429381901815264"/>
  <path d="M 54.50507092579236, 42.33025162121539 Q 57.61582921534301, 41.29325444575019, 58.69455050803312, 35.84915192157215 " fill="none" id="curve_6" stroke="#000000" stroke-linecap="round" stroke-linejoin="round" stroke-width="3.6282447931854582"/>
  <path d="M 58.69455050803312, 35.84915192157215 Q 57.28545172558218, 31.383201828038374, 52.62604438497589, 28.651596912011936 " fill="none" id="curve_6" stroke="#000000" stroke-linecap="round" stroke-linejoin="round" stroke-width="2.9794614597120734"/>
  <path d="M 56.50869494243413, 35.61176346774007 Q 56.641259416861885, 33.693933426433254, 56.85421762493818, 30.23644070975129 " fill="none" id="curve_30" stroke="#000000" stroke-linecap="round" stroke-linejoin="round" stroke-width="2.7895517893341064"/>
  <path d="M 34.59404758354612, 25.219115356660026 Q 26.020601026890137, 26.56279511703448, 20.57954063668197, 36.438849313890955 " fill="none" id="curve_64" stroke="#000000" stroke-linecap="round" stroke-linejoin="round" stroke-width="2.469206485618345"/>
  <path d="M 34.21939805729451, 25.210933221870114 Q 32.250977825078444, 25.620511857025512, 28.798851619626944, 26.375109852013864 " fill="none" id="curve_65" stroke="#000000" stroke-linecap="round" stroke-linejoin="round" stroke-width="2.950137973690588"/>
  <path d="M 18.75530419558083, 40.41290875323088 Q 19.152579716629994, 39.11470275756919, 20.29947737379844, 37.295123428331415 " fill="none" id="curve_94" stroke="#000000" stroke-linecap="round" stroke-linejoin="round" stroke-width="2.5646279688506413"/>
  <path d="M 48.48633358155803, 28.980838237196508 Q 56.80186310918523, 31.02945665364706, 60.52250219725236, 37.725544215397875 " fill="none" id="curve_109" stroke="#000000" stroke-linecap="round" stroke-linejoin="round" stroke-width="1.203020045108558"/>
  <path d="M 52.146205901932674, 45.7936297482673 Q 53.05362557170025, 41.34373919532433, 59.22990234772019, 40.1811608549432 " fill="none" id="curve_110" stroke="#000000" stroke-linecap="round" stroke-linejoin="round" stroke-width="2.4918723242481895"/>
  <path d="M 52.45367229505912, 48.73939506745657 Q 51.54330746664699, 48.65977975850202, 49.62183283548616, 48.55773923538686 " fill="none" id="curve_111" stroke="#000000" stroke-linecap="round" stroke-linejoin="round" stroke-width="2.2895917988129546"/>
  <path d="M 49.72602607367722, 76.48732298419993 Q 55.2090684282258, 78.49588211458493, 61.02954862331252, 81.4012939912782 " fill="none" id="curve_114" stroke="#000000" stroke-linecap="round" stroke-linejoin="round" stroke-width="2.395927175801882"/>
  <path d="M 42.558708310886914, 72.12321717844054 Q 43.47180266673744, 72.28324018802645, 45.04465655471648, 72.51111139731088 " fill="none" id="curve_129" stroke="#000000" stroke-linecap="round" stroke-linejoin="round" stroke-width="3.3325595533651837"/>
  <path d="M 36.6063347131968, 24.864628774657866 Q 33.81682455024646, 24.9849416525132, 30.409419288123708, 25.249075701735883 " fill="none" id="curve_149" stroke="#000000" stroke-linecap="round" stroke-linejoin="round" stroke-width="2.515938744363246"/>
</svg>
