<?xml version="1.0" ?>
<svg height="140" width="140" xmlns="http://www.w3.org/2000/svg">
  <path d="M 76.57500076293945, 37.39640235900879 Q 75.09651257988938, 30.362563825737297, 66.64247426057068, 24.34222439719258 " fill="none" id="curve_1" stroke="#000000" stroke-linecap="round" stroke-linejoin="round" stroke-width="3.957377894471872"/>
  <path d="M 66.64247426057068, 24.34222439719258 Q 49.14206050541145, 24.853305069009576, 41.77453308044056, 38.64667543016751 " fill="none" id="curve_1" stroke="#000000" stroke-linecap="round" stroke-linejoin="round" stroke-width="3.896921825336099"/>
  <path d="M 41.77453308044056, 38.64667543016751 Q 41.89214499145593, 44.521486109160215, 42.59610223691154, 46.38057694442134 " fill="none" id="curve_1" stroke="#000000" stroke-linecap="round" stroke-linejoin="round" stroke-width="3.362614105594166"/>
  <path d="M 70.7521258275339, 59.651437601216415 Q 69.10642667077076, 69.70893305191764, 56.96629742881839, 83.0033644827725 " fill="none" id="curve_2" stroke="#000000" stroke-linecap="round" stroke-linejoin="round" stroke-width="4.703960218106594"/>
  <path d="M 56.96629742881839, 83.0033644827725 Q 53.198877404394764, 90.53578312911556, 38.42096473702551, 106.95832685978755 " fill="none" id="curve_2" stroke="#000000" stroke-linecap="round" stroke-linejoin="round" stroke-width="4.608804149977798"/>
  <path d="M 38.42096473702551, 106.95832685978755 Q 32.375981087243794, 113.5155717394674, 18.52360504269671, 131.65316397432645 " fill="none" id="curve_2" stroke="#000000" stroke-linecap="round" stroke-linejoin="round" stroke-width="4.77288287722277"/>
  <path d="M 18.52360504269671, 131.65316397432645 Q 18.706566801198395, 136.91806145332697, 21.537061206804424, 137.5315273650701 " fill="none" id="curve_2" stroke="#000000" stroke-linecap="round" stroke-linejoin="round" stroke-width="5.465532316113382"/>
  <path d="M 21.537061206804424, 137.5315273650701 Q 34.33310016819304, 133.74500010742184, 54.036341507293315, 122.6103089817266 " fill="none" id="curve_2" stroke="#000000" stroke-linecap="round" stroke-linejoin="round" stroke-width="4.786606655791188"/>
  <path d="M 54.036341507293315, 122.6103089817266 Q 57.10656751663509, 120.87156974876575, 70.98547788023629, 120.21164240449092 " fill="none" id="curve_2" stroke="#000000" stroke-linecap="round" stroke-linejoin="round" stroke-width="4.0113410681469555"/>
  <path d="M 44.468264041861254, 126.21093604061312 Q 41.351853171781876, 128.32791242500093, 36.837090095035066, 130.66430345260832 " fill="none" id="curve_3" stroke="#000000" stroke-linecap="round" stroke-linejoin="round" stroke-width="3.554563573843689"/>
  <path d="M 24.18870520976344, 136.9727112749527 Q 22.322442053422016, 136.28176103764494, 20.53337408668872, 135.1332622776985 " fill="none" id="curve_4" stroke="#000000" stroke-linecap="round" stroke-linejoin="round" stroke-width="3.9315926273251054"/>
  <path d="M 72.55713023793076, 59.72893087601189 Q 74.58316871967521, 54.7944931108334, 76.35576837121027, 44.947207499833226 " fill="none" id="curve_7" stroke="#000000" stroke-linecap="round" stroke-linejoin="round" stroke-width="5.766113120717763"/>
  <path d="M 76.35576837121027, 44.947207499833226 Q 75.26940509057367, 33.099288260683, 68.59686395137942, 26.14766511741729 " fill="none" id="curve_7" stroke="#000000" stroke-linecap="round" stroke-linejoin="round" stroke-width="3.5162040377808332"/>
  <path d="M 68.59686395137942, 26.14766511741729 Q 66.24206376100034, 24.556594292545064, 57.92034831671217, 23.738607924971998 " fill="none" id="curve_7" stroke="#000000" stroke-linecap="round" stroke-linejoin="round" stroke-width="3.339781987901341"/>
  <path d="M 57.92034831671217, 23.738607924971998 Q 53.94425357744624, 25.511830840731484, 50.19379684245372, 27.881865293362097 " fill="none" id="curve_7" stroke="#000000" stroke-linecap="round" stroke-linejoin="round" stroke-width="3.151724210204595"/>
  <path d="M 72.82713645702094, 27.42626699570396 Q 73.29818089331306, 28.463674628219874, 73.67957791334307, 30.722430002861312 " fill="none" id="curve_8" stroke="#000000" stroke-linecap="round" stroke-linejoin="round" stroke-width="2.906349473888455"/>
  <path d="M 72.14452805800003, 61.149418358329896 Q 66.40351773002463, 70.31069061575383, 56.514122393124104, 82.4671841240289 " fill="none" id="curve_9" stroke="#000000" stroke-linecap="round" stroke-linejoin="round" stroke-width="2.8688564297718355"/>
  <path d="M 71.88410717632614, 59.26608971506801 Q 72.2052634604642, 54.790318206182576, 73.94325542102797, 52.56355120353894 " fill="none" id="curve_10" stroke="#000000" stroke-linecap="round" stroke-linejoin="round" stroke-width="2.6034848752449626"/>
  <path d="M 26.434112507846816, 118.09112479739275 Q 23.604551363709383, 124.57237034685299, 18.626878687072686, 132.32426976856814 " fill="none" id="curve_15" stroke="#000000" stroke-linecap="round" stroke-linejoin="round" stroke-width="2.5444756394472035"/>
  <path d="M 28.00188147943649, 136.04424661670356 Q 28.66286116121543, 135.828372927997, 29.263409058597265, 135.36124815541035 " fill="none" id="curve_16" stroke="#000000" stroke-linecap="round" stroke-linejoin="round" stroke-width="4.80173012507764"/>
  <path d="M 66.59826764120683, 120.36703801826641 Q 69.0503840537891, 120.66690669337379, 72.5204815916736, 121.03733441236938 " fill="none" id="curve_19" stroke="#000000" stroke-linecap="round" stroke-linejoin="round" stroke-width="2.5771217906956414"/>
  <path d="M 30.165619080885186, 132.38356379310042 Q 29.14751121037013, 133.21765903077812, 28.41543037760659, 135.08033539920999 " fill="none" id="curve_21" stroke="#000000" stroke-linecap="round" stroke-linejoin="round" stroke-width="4.18290739002727"/>
  <path d="M 67.215908445946, 67.98966627254694 Q 69.7629573672178, 64.2983743338875, 72.3046067628807, 56.98299608200247 " fill="none" id="curve_28" stroke="#000000" stroke-linecap="round" stroke-linejoin="round" stroke-width="2.307932133515159"/>
  <path d="M 65.05548845820579, 26.162385928014633 Q 62.38223126210157, 26.14051292899017, 61.43811964381365, 25.987757475063095 " fill="none" id="curve_29" stroke="#000000" stroke-linecap="round" stroke-linejoin="round" stroke-width="3.306068910632567"/>
  <path d="M 69.09016129153025, 24.63477370376195 Q 67.45891897072245, 24.562914422288934, 62.96287504735932, 24.491999783611977 " fill="none" id="curve_30" stroke="#000000" stroke-linecap="round" stroke-linejoin="round" stroke-width="2.5789869213707335"/>
  <path d="M 69.76541346894233, 62.86162574140681 Q 66.71936108742766, 72.89081815612127, 57.393236588259896, 85.84016809656107 " fill="none" id="curve_37" stroke="#000000" stroke-linecap="round" stroke-linejoin="round" stroke-width="2.062878144398088"/>
  <path d="M 19.843564846866112, 128.9810259719191 Q 20.346084697406855, 129.76555100478186, 20.882200515518395, 132.03652896389596 " fill="none" id="curve_52" stroke="#000000" stroke-linecap="round" stroke-linejoin="round" stroke-width="2.2710886373749863"/>
  <path d="M 64.83837225709674, 73.3117213029582 Q 68.27829695713781, 69.70528224740727, 70.77595678436194, 61.237664791644136 " fill="none" id="curve_68" stroke="#000000" stroke-linecap="round" stroke-linejoin="round" stroke-width="2.603606794983982"/>
  <path d="M 66.5340005032092, 70.27689201640646 Q 69.5556817702247, 68.25064940159622, 70.93936288930331, 59.463794708093445 " fill="none" id="curve_122" stroke="#000000" stroke-linecap="round" stroke-linejoin="round" stroke-width="2.6069207881930083"/>
  <path d="M 67.03289790091026, 71.04150323520435 Q 69.6965628158448, 65.68303353485862, 73.50800605516173, 51.96884322843334 " fill="none" id="curve_163" stroke="#000000" stroke-linecap="round" stroke-linejoin="round" stroke-width="2.0247691584959857"/>
</svg>
