<?xml version="1.0" ?>
<svg height="140" width="140" xmlns="http://www.w3.org/2000/svg">
  <path d="M 53.26102828979492, 40.79469013214111 Q 52.93447471084279, 33.61234829264092, 50.40379755596783, 29.67824984222989 " fill="none" id="curve_1" stroke="#000000" stroke-linecap="round" stroke-linejoin="round" stroke-width="5.405766064104573"/>
  <path d="M 50.40379755596783, 29.67824984222989 Q 36.64805108202036, 30.021958291772865, 30.906413181488027, 33.356260382803434 " fill="none" id="curve_1" stroke="#000000" stroke-linecap="round" stroke-linejoin="round" stroke-width="5.097310247142713"/>
  <path d="M 30.906413181488027, 33.356260382803434 Q 21.92512823049355, 36.50084381922191, 16.420971152363922, 46.05261642726795 " fill="none" id="curve_1" stroke="#000000" stroke-linecap="round" stroke-linejoin="round" stroke-width="4.716565949013533"/>
  <path d="M 16.420971152363922, 46.05261642726795 Q 16.80682764735399, 51.33967587120607, 18.21867815913638, 53.457424636154784 " fill="none" id="curve_1" stroke="#000000" stroke-linecap="round" stroke-linejoin="round" stroke-width="3.0534827075169417"/>
  <path d="M 52.94997040686331, 40.10457561999014 Q 50.24616446847424, 53.45448302500132, 34.329538983738544, 75.12972900968012 " fill="none" id="curve_2" stroke="#000000" stroke-linecap="round" stroke-linejoin="round" stroke-width="4.582402781419907"/>
  <path d="M 34.329538983738544, 75.12972900968012 Q 27.99232880632362, 83.686938094492, 20.867381949777347, 102.32004477259876 " fill="none" id="curve_2" stroke="#000000" stroke-linecap="round" stroke-linejoin="round" stroke-width="4.596572181070165"/>
  <path d="M 20.867381949777347, 102.32004477259876 Q 23.26991491524919, 107.0453462674654, 32.61178200852923, 108.4445491658849 " fill="none" id="curve_2" stroke="#000000" stroke-linecap="round" stroke-linejoin="round" stroke-width="4.828744108523037"/>
  <path d="M 32.61178200852923, 108.4445491658849 Q 42.63917026534116, 105.47687662521906, 60.126520345570924, 102.99174010938017 " fill="none" id="curve_2" stroke="#000000" stroke-linecap="round" stroke-linejoin="round" stroke-width="4.367601133840429"/>
  <path d="M 60.126520345570924, 102.99174010938017 Q 61.07380834161476, 103.59328507411202, 62.849962082714256, 104.05168493385594 " fill="none" id="curve_2" stroke="#000000" stroke-linecap="round" stroke-linejoin="round" stroke-width="3.515462545902249"/>
  <path d="M 44.106978437974206, 59.25606656908471 Q 48.48101960080312, 52.70587098311151, 53.0942199832438, 36.0355494676696 " fill="none" id="curve_3" stroke="#000000" stroke-linecap="round" stroke-linejoin="round" stroke-width="4.226125583656358"/>
  <path d="M 53.0942199832438, 36.0355494676696 Q 50.695685566069365, 33.94249827870498, 48.41274364638957, 30.089715044597703 " fill="none" id="curve_3" stroke="#000000" stroke-linecap="round" stroke-linejoin="round" stroke-width="3.519933482104962"/>
  <path d="M 29.335430957741078, 85.40144267129178 Q 23.10630600916826, 86.78373319572408, 21.589147873295797, 97.8325012814693 " fill="none" id="curve_11" stroke="#000000" stroke-linecap="round" stroke-linejoin="round" stroke-width="2.9551501216664424"/>
  <path d="M 37.7808165882343, 107.76035484627053 Q 41.382522521404994, 105.01402424159636, 52.049180208845016, 103.11075545056902 " fill="none" id="curve_12" stroke="#000000" stroke-linecap="round" stroke-linejoin="round" stroke-width="3.012944909497468"/>
  <path d="M 32.48714850977293, 107.73526423958374 Q 36.92082656172655, 107.41508709984315, 40.584818380327945, 106.79553692334242 " fill="none" id="curve_13" stroke="#000000" stroke-linecap="round" stroke-linejoin="round" stroke-width="3.7822777313912015"/>
  <path d="M 52.92299382320369, 44.64576628658477 Q 48.82847754641816, 55.70314123642743, 37.41000722354097, 66.16739307350407 " fill="none" id="curve_17" stroke="#000000" stroke-linecap="round" stroke-linejoin="round" stroke-width="2.510844630471657"/>
  <path d="M 52.6649458167597, 36.9242144368865 Q 52.0029925134611, 38.58180395280928, 50.97029235067777, 40.68199480788223 " fill="none" id="curve_18" stroke="#000000" stroke-linecap="round" stroke-linejoin="round" stroke-width="4.117240830109673"/>
  <path d="M 41.26681583366019, 29.13977119279015 Q 44.21539207980576, 29.054864749478124, 47.75303782223863, 28.896429489358688 " fill="none" id="curve_33" stroke="#000000" stroke-linecap="round" stroke-linejoin="round" stroke-width="2.6768144230825683"/>
  <path d="M 24.215780908056008, 36.37722113355099 Q 24.133527795904122, 36.56702355445823, 23.94171504218846, 36.9552081039591 " fill="none" id="curve_34" stroke="#000000" stroke-linecap="round" stroke-linejoin="round" stroke-width="2.6146616691551405"/>
  <path d="M 24.830324337669015, 35.806037365664366 Q 22.96363762232678, 36.43325780741071, 20.912165027234888, 37.876495794822056 " fill="none" id="curve_43" stroke="#000000" stroke-linecap="round" stroke-linejoin="round" stroke-width="2.9114511168285366"/>
  <path d="M 30.274262248359634, 108.40744201457979 Q 26.171504166710108, 105.9623569510674, 22.293304149770925, 101.87883943599797 " fill="none" id="curve_59" stroke="#000000" stroke-linecap="round" stroke-linejoin="round" stroke-width="3.401812504817852"/>
  <path d="M 39.88804192796838, 107.30631813342563 Q 35.667880623402034, 107.25805293978654, 29.51063867502628, 107.19662848573863 " fill="none" id="curve_60" stroke="#000000" stroke-linecap="round" stroke-linejoin="round" stroke-width="3.9090055153961005"/>
  <path d="M 54.48009626681983, 39.60828147875584 Q 54.35161901723928, 35.60206719341481, 52.778749406872215, 34.66656017157783 " fill="none" id="curve_75" stroke="#000000" stroke-linecap="round" stroke-linejoin="round" stroke-width="1.8444677753978918"/>
  <path d="M 52.778749406872215, 34.66656017157783 Q 53.23916422687496, 33.36128823920604, 54.06419293349309, 32.13213450624812 " fill="none" id="curve_75" stroke="#000000" stroke-linecap="round" stroke-linejoin="round" stroke-width="2.551822803388403"/>
  <path d="M 42.81615049946979, 59.05019436684379 Q 46.05598056018469, 56.00592844734685, 49.48330314781252, 49.56008857180111 " fill="none" id="curve_86" stroke="#000000" stroke-linecap="round" stroke-linejoin="round" stroke-width="2.884337994797783"/>
  <path d="M 38.08193132308661, 106.8441715700717 Q 37.6300841108896, 106.56762566447334, 37.121271847946275, 106.13034015900611 " fill="none" id="curve_102" stroke="#000000" stroke-linecap="round" stroke-linejoin="round" stroke-width="4.754562391055915"/>
  <path d="M 16.585572220548098, 43.421256236360875 Q 16.087046370365226, 43.55495469427243, 15.60533031025965, 43.84456682899589 " fill="none" id="curve_104" stroke="#000000" stroke-linecap="round" stroke-linejoin="round" stroke-width="3.11036842363763"/>
  <path d="M 35.64695620451106, 109.16418429354326 Q 35.71014558232847, 108.94649689199554, 35.797023657253504, 108.64860472580945 " fill="none" id="curve_171" stroke="#000000" stroke-linecap="round" stroke-linejoin="round" stroke-width="3.2162624858034476"/>
</svg>
