<?xml version="1.0" ?>
<svg height="140" width="140" xmlns="http://www.w3.org/2000/svg">
  <path d="M 39.90467071533203, 50.832218170166016 Q 40.91507516856847, 52.415328105458855, 41.87187804544834, 58.56445440358891 " fill="none" id="curve_1" stroke="#000000" stroke-linecap="round" stroke-linejoin="round" stroke-width="7.94917229999417"/>
  <path d="M 41.87187804544834, 58.56445440358891 Q 39.829458820626336, 72.07164894134435, 23.225645933819244, 88.13086774328964 " fill="none" id="curve_1" stroke="#000000" stroke-linecap="round" stroke-linejoin="round" stroke-width="5.289439570614106"/>
  <path d="M 23.225645933819244, 88.13086774328964 Q 21.479924203785693, 89.16836957345969, 21.216207384273293, 99.25119932381199 " fill="none" id="curve_1" stroke="#000000" stroke-linecap="round" stroke-linejoin="round" stroke-width="5.8558351233410955"/>
  <path d="M 21.216207384273293, 99.25119932381199 Q 24.87976761770095, 99.97690517576197, 53.64758781307293, 100.15823870314603 " fill="none" id="curve_1" stroke="#000000" stroke-linecap="round" stroke-linejoin="round" stroke-width="4.966623507522966"/>
  <path d="M 90.1200322583079, 137.54230347937911 Q 89.79608432405917, 133.92787158223058, 89.54825839085571, 120.6300494078528 " fill="none" id="curve_3" stroke="#000000" stroke-linecap="round" stroke-linejoin="round" stroke-width="1.8266865203583376"/>
  <path d="M 89.54825839085571, 120.6300494078528 Q 89.68898262907197, 117.18996457863226, 89.82967352127424, 110.0963651457912 " fill="none" id="curve_3" stroke="#000000" stroke-linecap="round" stroke-linejoin="round" stroke-width="1.9665970391712644"/>
  <path d="M 89.82967352127424, 110.0963651457912 Q 89.82449916799725, 105.06580406856038, 89.81707030697237, 96.54325260810303 " fill="none" id="curve_3" stroke="#000000" stroke-linecap="round" stroke-linejoin="round" stroke-width="1.7823127151103415"/>
  <path d="M 89.81707030697237, 96.54325260810303 Q 89.76459293085985, 92.06035943182317, 89.70190305493806, 82.10409092603788 " fill="none" id="curve_3" stroke="#000000" stroke-linecap="round" stroke-linejoin="round" stroke-width="1.707607497639047"/>
  <path d="M 89.70190305493806, 82.10409092603788 Q 89.69452541932063, 77.23919255873, 89.68333622130432, 68.58890731711323 " fill="none" id="curve_3" stroke="#000000" stroke-linecap="round" stroke-linejoin="round" stroke-width="1.6041324050539831"/>
  <path d="M 89.68333622130432, 68.58890731711323 Q 89.66996295461396, 64.55134601163222, 89.65292224092542, 54.823266686458126 " fill="none" id="curve_3" stroke="#000000" stroke-linecap="round" stroke-linejoin="round" stroke-width="1.5226424763524167"/>
  <path d="M 89.65292224092542, 54.823266686458126 Q 89.62739604344718, 52.11441186675993, 89.60471103753457, 41.882716035827784 " fill="none" id="curve_3" stroke="#000000" stroke-linecap="round" stroke-linejoin="round" stroke-width="1.4400282165976483"/>
  <path d="M 89.60471103753457, 41.882716035827784 Q 89.54608415274231, 40.293854559628976, 89.51250639247031, 29.47238746312796 " fill="none" id="curve_3" stroke="#000000" stroke-linecap="round" stroke-linejoin="round" stroke-width="1.457212422095628"/>
  <path d="M 89.51250639247031, 29.47238746312796 Q 89.52106220727879, 25.300672860126483, 89.53918459328148, 16.360640675103056 " fill="none" id="curve_3" stroke="#000000" stroke-linecap="round" stroke-linejoin="round" stroke-width="1.445403874638569"/>
  <path d="M 89.53918459328148, 16.360640675103056 Q 89.53022848282637, 12.681359960959085, 89.5150564971033, 3.4010564389580367 " fill="none" id="curve_3" stroke="#000000" stroke-linecap="round" stroke-linejoin="round" stroke-width="1.4661077993461886"/>
  <path d="M 89.5150564971033, 3.4010564389580367 Q 89.42016074026391, 1.481764611789174, 88.80126715326938, 1.0906399789208052 " fill="none" id="curve_3" stroke="#000000" stroke-linecap="round" stroke-linejoin="round" stroke-width="2.3307322019554046"/>
  <path d="M 88.80126715326938, 1.0906399789208052 Q 89.28760185486401, 1.0907482483001845, 89.8656795107556, 1.0909309972821384 " fill="none" id="curve_3" stroke="#000000" stroke-linecap="round" stroke-linejoin="round" stroke-width="1.3935312643091464"/>
  <path d="M 55.83315672924829, 99.62614509082445 Q 55.49723941771982, 99.41551500519996, 54.704802557806474, 99.20337726783819 " fill="none" id="curve_9" stroke="#000000" stroke-linecap="round" stroke-linejoin="round" stroke-width="2.644985586608049"/>
  <path d="M 31.708608995953107, 69.01608740012952 Q 30.273927091478846, 56.847581514938874, 12.377412883515564, 51.12771431631637 " fill="none" id="curve_10" stroke="#000000" stroke-linecap="round" stroke-linejoin="round" stroke-width="5.354945183349417"/>
  <path d="M 12.377412883515564, 51.12771431631637 Q 19.527022018438068, 47.533722322734825, 27.3730303913636, 43.18870561063634 " fill="none" id="curve_10" stroke="#000000" stroke-linecap="round" stroke-linejoin="round" stroke-width="5.469203325946187"/>
  <path d="M 27.3730303913636, 43.18870561063634 Q 36.64992901750297, 45.79007699459978, 41.469304796165616, 50.644137391294336 " fill="none" id="curve_10" stroke="#000000" stroke-linecap="round" stroke-linejoin="round" stroke-width="6.82499357276906"/>
  <path d="M 41.469304796165616, 50.644137391294336 Q 36.72067616641075, 46.49540045909235, 23.67398248405995, 42.78513822572788 " fill="none" id="curve_10" stroke="#000000" stroke-linecap="round" stroke-linejoin="round" stroke-width="3.6637974640334203"/>
  <path d="M 23.67398248405995, 42.78513822572788 Q 17.74334521663386, 45.94276112664016, 13.528511889452599, 51.760603399144586 " fill="none" id="curve_10" stroke="#000000" stroke-linecap="round" stroke-linejoin="round" stroke-width="3.2879096385448623"/>
  <path d="M 13.528511889452599, 51.760603399144586 Q 14.719835742649513, 55.58405074904292, 22.201086632296388, 56.58438463460038 " fill="none" id="curve_10" stroke="#000000" stroke-linecap="round" stroke-linejoin="round" stroke-width="2.8992364238430266"/>
  <path d="M 28.261795120331147, 43.260009319213104 Q 38.37701747561083, 43.917337749353095, 40.71953191587468, 49.8172699292464 " fill="none" id="curve_11" stroke="#000000" stroke-linecap="round" stroke-linejoin="round" stroke-width="3.218652107519828"/>
  <path d="M 28.33272077096438, 80.79256561040383 Q 23.687117581487257, 85.75337499672129, 20.11809835866663, 94.7600460805294 " fill="none" id="curve_12" stroke="#000000" stroke-linecap="round" stroke-linejoin="round" stroke-width="3.920521813240723"/>
  <path d="M 20.11809835866663, 94.7600460805294 Q 25.012372347925574, 83.78003324717818, 36.87411883447433, 71.10782344022132 " fill="none" id="curve_12" stroke="#000000" stroke-linecap="round" stroke-linejoin="round" stroke-width="3.030834982387959"/>
  <path d="M 41.066402867694414, 49.378381925822666 Q 38.044454730321256, 45.79659000277807, 27.01466945840935, 43.014851608341914 " fill="none" id="curve_14" stroke="#000000" stroke-linecap="round" stroke-linejoin="round" stroke-width="2.9340130884106963"/>
  <path d="M 21.00358407646406, 91.88614305614517 Q 20.961190668506827, 91.91084325768061, 20.863812752879745, 91.96447023956952 " fill="none" id="curve_22" stroke="#000000" stroke-linecap="round" stroke-linejoin="round" stroke-width="2.696569945194379"/>
  <path d="M 20.863812752879745, 91.96447023956952 Q 21.572655067719392, 90.49070562130038, 23.63847755365686, 87.87126804400715 " fill="none" id="curve_22" stroke="#000000" stroke-linecap="round" stroke-linejoin="round" stroke-width="3.244388634695711"/>
  <path d="M 20.919790176228616, 90.17289033936248 Q 22.26695189242899, 89.4717157684678, 23.952241800308414, 87.34856393863855 " fill="none" id="curve_37" stroke="#000000" stroke-linecap="round" stroke-linejoin="round" stroke-width="3.343283361584615"/>
  <path d="M 27.955662199217624, 43.29028496238973 Q 34.07231505248928, 44.706320533143334, 39.11933093441713, 48.53441060353249 " fill="none" id="curve_39" stroke="#000000" stroke-linecap="round" stroke-linejoin="round" stroke-width="3.518552610663229"/>
  <path d="M 25.297952256521285, 99.01071372064348 Q 23.615934159424594, 95.39569308818962, 19.36267322256431, 92.82631897778487 " fill="none" id="curve_54" stroke="#000000" stroke-linecap="round" stroke-linejoin="round" stroke-width="3.826983405549237"/>
  <path d="M 22.657019051201118, 100.5379335566676 Q 31.27212872992072, 100.94059212245243, 52.30856461205528, 101.1749030099425 " fill="none" id="curve_55" stroke="#000000" stroke-linecap="round" stroke-linejoin="round" stroke-width="3.086612856853361"/>
  <path d="M 38.78297550097787, 49.980149997036584 Q 35.87177350289926, 46.50338612576975, 28.74043930607037, 43.146386921628626 " fill="none" id="curve_57" stroke="#000000" stroke-linecap="round" stroke-linejoin="round" stroke-width="3.938330997377107"/>
  <path d="M 28.74043930607037, 43.146386921628626 Q 34.64550028760864, 45.48629088007661, 40.08089131255932, 50.2014723810825 " fill="none" id="curve_57" stroke="#000000" stroke-linecap="round" stroke-linejoin="round" stroke-width="3.8451840565171445"/>
  <path d="M 40.08089131255932, 50.2014723810825 Q 37.49421454203933, 46.235314484662176, 27.643372004531766, 43.726163087126906 " fill="none" id="curve_57" stroke="#000000" stroke-linecap="round" stroke-linejoin="round" stroke-width="3.9091716231577402"/>
  <path d="M 27.643372004531766, 43.726163087126906 Q 35.13555643851318, 45.058147550585275, 39.91636647161207, 48.84772454453342 " fill="none" id="curve_57" stroke="#000000" stroke-linecap="round" stroke-linejoin="round" stroke-width="3.859010951531356"/>
  <path d="M 35.4000508823537, 46.877265252193766 Q 34.421908382154406, 44.445384416051155, 29.176222034008507, 42.923431274631554 " fill="none" id="curve_73" stroke="#000000" stroke-linecap="round" stroke-linejoin="round" stroke-width="3.502168267381177"/>
  <path d="M 27.0740771057793, 83.9826803819845 Q 25.232691642985582, 84.93001532785412, 23.498149522212103, 88.32272390660361 " fill="none" id="curve_75" stroke="#000000" stroke-linecap="round" stroke-linejoin="round" stroke-width="3.1806314497756762"/>
  <path d="M 21.262309091049683, 92.35694273844352 Q 24.839247007481482, 83.84412049439405, 34.73879623478805, 75.78332147767952 " fill="none" id="curve_79" stroke="#000000" stroke-linecap="round" stroke-linejoin="round" stroke-width="2.5714416909017457"/>
  <path d="M 20.684510677150577, 91.16472769406734 Q 25.657059502039253, 86.53630059947982, 31.568282473024034, 77.794961908034 " fill="none" id="curve_80" stroke="#000000" stroke-linecap="round" stroke-linejoin="round" stroke-width="2.707237387855988"/>
  <path d="M 31.568282473024034, 77.794961908034 Q 26.059829513031826, 82.90394888995601, 20.82187482578226, 93.23497668917953 " fill="none" id="curve_80" stroke="#000000" stroke-linecap="round" stroke-linejoin="round" stroke-width="2.9669447481004125"/>
  <path d="M 22.971638609630713, 91.5935336782697 Q 23.853925006979445, 82.98140839924044, 30.15958056327513, 79.05169947750726 " fill="none" id="curve_95" stroke="#000000" stroke-linecap="round" stroke-linejoin="round" stroke-width="3.0266690974086843"/>
  <path d="M 39.3404143363455, 46.93322099545453 Q 40.414702408536805, 47.13497077591749, 41.442578569852465, 47.7558534633211 " fill="none" id="curve_116" stroke="#000000" stroke-linecap="round" stroke-linejoin="round" stroke-width="3.462083374410689"/>
  <path d="M 24.41885505934509, 83.07925278188321 Q 23.45022740461553, 87.95687810625444, 19.430098225278684, 93.22032902834988 " fill="none" id="curve_131" stroke="#000000" stroke-linecap="round" stroke-linejoin="round" stroke-width="2.197023834105988"/>
  <path d="M 32.05580086813211, 47.911518761155094 Q 31.095713168055074, 46.222163097078024, 29.02813471533648, 43.754790808547206 " fill="none" id="curve_146" stroke="#000000" stroke-linecap="round" stroke-linejoin="round" stroke-width="2.48282548149609"/>
</svg>
