<?xml version="1.0" ?>
<svg height="140" width="140" xmlns="http://www.w3.org/2000/svg">
  <path d="M 64.2817268371582, 96.01759147644043 Q 66.20177676889959, 95.97675774660381, 68.53564575986064, 95.90937266696992 " fill="none" id="curve_1" stroke="#000000" stroke-linecap="round" stroke-linejoin="round" stroke-width="3.77933399856514"/>
  <path d="M 68.53564575986064, 95.90937266696992 Q 63.3624805057541, 97.42606244680823, 50.91495153817125, 99.6398119818523 " fill="none" id="curve_1" stroke="#000000" stroke-linecap="round" stroke-linejoin="round" stroke-width="4.602808664882485"/>
  <path d="M 50.91495153817125, 99.6398119818523 Q 49.9964287274114, 101.8848109580204, 31.41496189438551, 102.10212870909824 " fill="none" id="curve_1" stroke="#000000" stroke-linecap="round" stroke-linejoin="round" stroke-width="5.829917233632799"/>
  <path d="M 31.41496189438551, 102.10212870909824 Q 28.97838360448967, 100.59696552565975, 26.657375433437533, 98.37613574430169 " fill="none" id="curve_1" stroke="#000000" stroke-linecap="round" stroke-linejoin="round" stroke-width="6.022761209204243"/>
  <path d="M 26.657375433437533, 98.37613574430169 Q 30.303929556266326, 86.13356820441653, 47.90569451699774, 69.06153422491779 " fill="none" id="curve_1" stroke="#000000" stroke-linecap="round" stroke-linejoin="round" stroke-width="5.251886357844184"/>
  <path d="M 47.90569451699774, 69.06153422491779 Q 53.41475718098659, 64.61172190666221, 56.88585364634491, 52.05812971076227 " fill="none" id="curve_1" stroke="#000000" stroke-linecap="round" stroke-linejoin="round" stroke-width="4.3782647460601405"/>
  <path d="M 56.88585364634491, 52.05812971076227 Q 56.172149503604494, 45.60493387186725, 39.38572672244507, 44.807856621479914 " fill="none" id="curve_1" stroke="#000000" stroke-linecap="round" stroke-linejoin="round" stroke-width="5.5980115589009225"/>
  <path d="M 39.38572672244507, 44.807856621479914 Q 39.63801087290354, 49.025354058535946, 40.24184362208895, 51.467394106690364 " fill="none" id="curve_1" stroke="#000000" stroke-linecap="round" stroke-linejoin="round" stroke-width="5.2901577603426615"/>
  <path d="M 40.24184362208895, 51.467394106690364 Q 38.720219585988964, 49.13440119033122, 36.74700711936274, 46.482803855954174 " fill="none" id="curve_1" stroke="#000000" stroke-linecap="round" stroke-linejoin="round" stroke-width="4.971863385799244"/>
  <path d="M 33.381388930596856, 86.73521389153146 Q 26.520494441059576, 87.51189941292377, 25.42598931883528, 94.71835253932932 " fill="none" id="curve_3" stroke="#000000" stroke-linecap="round" stroke-linejoin="round" stroke-width="4.0197522351414765"/>
  <path d="M 55.36858132941771, 54.66715734583481 Q 54.69294259948333, 48.08901829953014, 47.817016426479476, 46.204480559347424 " fill="none" id="curve_5" stroke="#000000" stroke-linecap="round" stroke-linejoin="round" stroke-width="2.8977776689131964"/>
  <path d="M 49.192824520900885, 65.31992007307187 Q 45.436327545251245, 67.51417190576751, 42.926993188521514, 73.28187516057613 " fill="none" id="curve_6" stroke="#000000" stroke-linecap="round" stroke-linejoin="round" stroke-width="2.570322710597641"/>
  <path d="M 33.21445824387294, 84.17590604398322 Q 35.43962202332145, 82.60013956461424, 39.166647456507455, 81.53047821064415 " fill="none" id="curve_7" stroke="#000000" stroke-linecap="round" stroke-linejoin="round" stroke-width="3.8215270413164295"/>
  <path d="M 44.92480744334953, 100.35885319997874 Q 49.238221752155454, 99.21868681420337, 56.38034611658381, 98.13633845093419 " fill="none" id="curve_8" stroke="#000000" stroke-linecap="round" stroke-linejoin="round" stroke-width="2.896031857163868"/>
  <path d="M 32.807068420574105, 83.3690965956124 Q 32.2920136056023, 84.55477674579159, 31.641947949274478, 86.55729275480167 " fill="none" id="curve_11" stroke="#000000" stroke-linecap="round" stroke-linejoin="round" stroke-width="3.302898943614533"/>
  <path d="M 48.65713189126646, 47.10619620224979 Q 51.89039152305874, 47.29737782591084, 53.97899178376788, 47.87920628926679 " fill="none" id="curve_12" stroke="#000000" stroke-linecap="round" stroke-linejoin="round" stroke-width="4.835708582650427"/>
  <path d="M 53.97899178376788, 47.87920628926679 Q 53.84172598289843, 46.84220998151264, 53.51771637789024, 45.61977092030001 " fill="none" id="curve_12" stroke="#000000" stroke-linecap="round" stroke-linejoin="round" stroke-width="3.678210443061511"/>
  <path d="M 56.66390827252139, 99.9089809979716 Q 50.21930869851397, 100.09311645584623, 44.85220401525507, 100.62052295072749 " fill="none" id="curve_14" stroke="#000000" stroke-linecap="round" stroke-linejoin="round" stroke-width="3.125115518411715"/>
  <path d="M 40.20859749443545, 44.19265958802554 Q 47.84052467617892, 46.485836674859456, 54.86694085044865, 51.40338076310014 " fill="none" id="curve_16" stroke="#000000" stroke-linecap="round" stroke-linejoin="round" stroke-width="2.601574354740786"/>
  <path d="M 36.69394915634658, 44.64193987888895 Q 37.07358929120334, 44.53833245863492, 37.546125566860695, 44.32753523727762 " fill="none" id="curve_17" stroke="#000000" stroke-linecap="round" stroke-linejoin="round" stroke-width="2.8141855302905894"/>
  <path d="M 30.392048385388954, 99.54319361569726 Q 31.842235522076404, 100.53828716826933, 36.3711924504812, 101.05951866031617 " fill="none" id="curve_34" stroke="#000000" stroke-linecap="round" stroke-linejoin="round" stroke-width="2.770091120638355"/>
  <path d="M 56.32052754282711, 97.83627418629627 Q 55.70756693771999, 97.85677586338122, 54.47872569074498, 97.88468497366812 " fill="none" id="curve_75" stroke="#000000" stroke-linecap="round" stroke-linejoin="round" stroke-width="2.527917843078966"/>
  <path d="M 32.63164289105444, 82.51889101626536 Q 32.017023712686104, 84.45840157882279, 30.425066212103392, 87.25874630351895 " fill="none" id="curve_96" stroke="#000000" stroke-linecap="round" stroke-linejoin="round" stroke-width="2.40400918687101"/>
  <path d="M 52.553725890366, 58.53621549608455 Q 53.56374526902406, 58.14135799599605, 55.50713346273722, 57.52189744688014 " fill="none" id="curve_115" stroke="#000000" stroke-linecap="round" stroke-linejoin="round" stroke-width="2.8628256746684455"/>
</svg>
