<?xml version="1.0" ?>
<svg height="140" width="140" xmlns="http://www.w3.org/2000/svg">
  <path d="M 36.78915220499039, 68.71909713745117 Q 34.748488810200996, 71.10717249831124, 30.059696584003746, 74.1087082631069 " fill="none" id="curve_1" stroke="#000000" stroke-linecap="round" stroke-linejoin="round" stroke-width="7.348270592464872"/>
  <path d="M 30.059696584003746, 74.1087082631069 Q 21.198940554479762, 75.38698875843662, 14.764808484642128, 79.46512737247463 " fill="none" id="curve_1" stroke="#000000" stroke-linecap="round" stroke-linejoin="round" stroke-width="7.216603294675507"/>
  <path d="M 14.764808484642128, 79.46512737247463 Q 12.904942609883872, 82.59606142973868, 8.936030600250877, 84.07372572258126 " fill="none" id="curve_1" stroke="#000000" stroke-linecap="round" stroke-linejoin="round" stroke-width="5.917914488636278"/>
  <path d="M 31.523554229762354, 76.70167256776413 Q 45.06204218300613, 80.65656617656789, 53.992547991134686, 88.50833316940788 " fill="none" id="curve_2" stroke="#000000" stroke-linecap="round" stroke-linejoin="round" stroke-width="5.0347307659826175"/>
  <path d="M 53.992547991134686, 88.50833316940788 Q 63.24333424842083, 88.15141833192834, 66.74483631784065, 86.74155777493623 " fill="none" id="curve_2" stroke="#000000" stroke-linecap="round" stroke-linejoin="round" stroke-width="3.9175366571907246"/>
  <path d="M 42.96500027175168, 60.48813904395556 Q 40.92811571692787, 65.36008038567228, 35.915937078109444, 68.7381518351102 " fill="none" id="curve_3" stroke="#000000" stroke-linecap="round" stroke-linejoin="round" stroke-width="3.397348536668691"/>
  <path d="M 44.720383558837646, 58.15062256558251 Q 47.56210059152453, 54.91644620111825, 49.24306121327197, 47.646049225202646 " fill="none" id="curve_4" stroke="#000000" stroke-linecap="round" stroke-linejoin="round" stroke-width="5.2504784953777355"/>
  <path d="M 49.24306121327197, 47.646049225202646 Q 49.065733690226715, 34.44047585885699, 39.17050445078577, 33.6385406636248 " fill="none" id="curve_4" stroke="#000000" stroke-linecap="round" stroke-linejoin="round" stroke-width="5.071246299113214"/>
  <path d="M 39.17050445078577, 33.6385406636248 Q 19.473758003475478, 33.878198309150335, 17.514219226844613, 42.54394617786299 " fill="none" id="curve_4" stroke="#000000" stroke-linecap="round" stroke-linejoin="round" stroke-width="4.375858316821124"/>
  <path d="M 17.514219226844613, 42.54394617786299 Q 17.80256845988512, 46.74900215390807, 18.953184631706822, 48.12386439464941 " fill="none" id="curve_4" stroke="#000000" stroke-linecap="round" stroke-linejoin="round" stroke-width="4.18401503196035"/>
  <path d="M 42.8854864209724, 81.20518523110522 Q 46.22672911219621, 84.78290181010173, 50.84880167041656, 87.9970600085605 " fill="none" id="curve_5" stroke="#000000" stroke-linecap="round" stroke-linejoin="round" stroke-width="3.467661083801638"/>
  <path d="M 50.84880167041656, 87.9970600085605 Q 48.39079649630021, 80.78452032465364, 34.51197019524126, 76.67413471972154 " fill="none" id="curve_5" stroke="#000000" stroke-linecap="round" stroke-linejoin="round" stroke-width="3.1715777386586774"/>
  <path d="M 30.30582463741744, 33.126977360517174 Q 29.089183978938287, 33.09711857414685, 26.83383315694461, 33.05191562534593 " fill="none" id="curve_7" stroke="#000000" stroke-linecap="round" stroke-linejoin="round" stroke-width="2.87514193641167"/>
  <path d="M 64.72854349189359, 84.18474834023564 Q 65.34706102084073, 85.12145927223563, 66.93492323490628, 86.15059325332443 " fill="none" id="curve_10" stroke="#000000" stroke-linecap="round" stroke-linejoin="round" stroke-width="2.928765559498873"/>
  <path d="M 46.35984939160939, 56.94010120804538 Q 43.30005097879084, 61.81541623497411, 37.226185580077995, 67.14785916308827 " fill="none" id="curve_11" stroke="#000000" stroke-linecap="round" stroke-linejoin="round" stroke-width="2.606883257126186"/>
  <path d="M 44.15911252674853, 34.627333959337925 Q 43.57865526657621, 32.94861454922588, 30.65534780587444, 32.659754444735604 " fill="none" id="curve_12" stroke="#000000" stroke-linecap="round" stroke-linejoin="round" stroke-width="2.5919331739209177"/>
  <path d="M 41.83500956146618, 62.298254139805756 Q 42.202410301993396, 62.301504129099115, 42.98445254851213, 62.30928204924862 " fill="none" id="curve_14" stroke="#000000" stroke-linecap="round" stroke-linejoin="round" stroke-width="3.3316128034877623"/>
  <path d="M 52.88016266698013, 87.38305867329231 Q 54.33931368688856, 87.02304558602918, 56.33653089574758, 86.49168805649654 " fill="none" id="curve_43" stroke="#000000" stroke-linecap="round" stroke-linejoin="round" stroke-width="3.2034260366623006"/>
  <path d="M 29.535861147903727, 77.06355009234062 Q 16.77856218807042, 78.44078533361477, 7.50259524355328, 83.62687712419681 " fill="none" id="curve_45" stroke="#000000" stroke-linecap="round" stroke-linejoin="round" stroke-width="2.213663736495793"/>
  <path d="M 39.875751295747364, 63.84026750598014 Q 39.96700150890359, 63.50800092348908, 40.11380993774761, 62.88534989325621 " fill="none" id="curve_60" stroke="#000000" stroke-linecap="round" stroke-linejoin="round" stroke-width="3.147608577571099"/>
  <path d="M 43.95312412223564, 35.565899087838886 Q 43.89868629136559, 33.89096703292163, 43.4876177758403, 32.982449353153456 " fill="none" id="curve_94" stroke="#000000" stroke-linecap="round" stroke-linejoin="round" stroke-width="2.6616177803688306"/>
  <path d="M 46.643535345288875, 50.76530894152294 Q 47.254292793067236, 48.68822496452181, 48.24844096664084, 44.826264703308844 " fill="none" id="curve_103" stroke="#000000" stroke-linecap="round" stroke-linejoin="round" stroke-width="2.5323964934857854"/>
</svg>
