<?xml version="1.0" ?>
<svg height="140" width="140" xmlns="http://www.w3.org/2000/svg">
  <path d="M 53.542606353759766, 34.55944585800171 Q 53.30828760014849, 30.037951843488784, 51.53167930221796, 27.545155083590885 " fill="none" id="curve_1" stroke="#000000" stroke-linecap="round" stroke-linejoin="round" stroke-width="5.473222339798095"/>
  <path d="M 51.53167930221796, 27.545155083590885 Q 42.64644487457864, 27.887226648072282, 31.824123754884436, 28.805311447873322 " fill="none" id="curve_1" stroke="#000000" stroke-linecap="round" stroke-linejoin="round" stroke-width="5.942058742215769"/>
  <path d="M 31.824123754884436, 28.805311447873322 Q 26.87680464130382, 30.060587697474734, 25.52568990623395, 34.98735201757773 " fill="none" id="curve_1" stroke="#000000" stroke-linecap="round" stroke-linejoin="round" stroke-width="5.362323051989803"/>
  <path d="M 55.77747877619292, 32.66881874031403 Q 53.72627315975408, 47.09661608694209, 35.931557460794, 65.60395812053085 " fill="none" id="curve_2" stroke="#000000" stroke-linecap="round" stroke-linejoin="round" stroke-width="5.12315509894202"/>
  <path d="M 35.931557460794, 65.60395812053085 Q 32.87817755320115, 70.95285781094069, 30.490362920368355, 78.40970863991409 " fill="none" id="curve_2" stroke="#000000" stroke-linecap="round" stroke-linejoin="round" stroke-width="5.614166393619076"/>
  <path d="M 30.490362920368355, 78.40970863991409 Q 31.618383945597504, 80.00295470213754, 43.074740493081954, 80.22287610438143 " fill="none" id="curve_2" stroke="#000000" stroke-linecap="round" stroke-linejoin="round" stroke-width="4.6700998064043215"/>
  <path d="M 43.074740493081954, 80.22287610438143 Q 53.255848533260206, 77.75813578464768, 61.74718702679414, 73.88877766773226 " fill="none" id="curve_2" stroke="#000000" stroke-linecap="round" stroke-linejoin="round" stroke-width="3.7118212550753507"/>
  <path d="M 48.75124756436104, 47.02619699328111 Q 52.84712222082096, 44.924137674476526, 53.95632963808029, 30.017904380669094 " fill="none" id="curve_3" stroke="#000000" stroke-linecap="round" stroke-linejoin="round" stroke-width="3.7884360173690523"/>
  <path d="M 45.04505014593901, 51.554095738300916 Q 40.342287463582366, 61.11434111817678, 28.557036913895384, 76.10419824721913 " fill="none" id="curve_4" stroke="#000000" stroke-linecap="round" stroke-linejoin="round" stroke-width="3.07834474318616"/>
  <path d="M 28.557036913895384, 76.10419824721913 Q 32.81748256977085, 68.13797870947361, 41.425915570065996, 60.02518296526829 " fill="none" id="curve_4" stroke="#000000" stroke-linecap="round" stroke-linejoin="round" stroke-width="4.3419835775195015"/>
  <path d="M 33.8231877124331, 71.43808841280833 Q 36.38547201923283, 65.20604358306885, 41.79047587789007, 58.94660301584938 " fill="none" id="curve_15" stroke="#000000" stroke-linecap="round" stroke-linejoin="round" stroke-width="2.981083393340873"/>
  <path d="M 51.193647384643555, 30.333724975585938 Q 55.05456656454515, 31.611321444654426, 55.86399601395058, 40.76098704788512 " fill="none" id="curve_29" stroke="#000000" stroke-linecap="round" stroke-linejoin="round" stroke-width="3.0969163098087376"/>
  <path d="M 40.346408803494725, 27.120555887927054 Q 39.25325999823332, 26.737183832453006, 36.681508751286344, 26.397139371134102 " fill="none" id="curve_30" stroke="#000000" stroke-linecap="round" stroke-linejoin="round" stroke-width="3.15658659790335"/>
  <path d="M 34.649033069610596, 68.3000659942627 Q 34.899635334300754, 61.547477783067436, 39.97215291986615, 60.36131649620671 " fill="none" id="curve_70" stroke="#000000" stroke-linecap="round" stroke-linejoin="round" stroke-width="3.3095413280995127"/>
  <path d="M 60.74684264096654, 73.73344383594453 Q 62.395580060286036, 73.827974062021, 63.47369695651605, 74.20094463096616 " fill="none" id="curve_87" stroke="#000000" stroke-linecap="round" stroke-linejoin="round" stroke-width="2.9212633201041025"/>
  <path d="M 49.17777793414998, 46.642935971695195 Q 48.48435051810398, 47.62507331351084, 46.57049725876205, 49.180613201662055 " fill="none" id="curve_88" stroke="#000000" stroke-linecap="round" stroke-linejoin="round" stroke-width="2.3841873515991185"/>
  <path d="M 37.9379276926595, 65.31308403214794 Q 37.20199438832297, 66.32862341817582, 35.510342243441876, 68.13010764700614 " fill="none" id="curve_89" stroke="#000000" stroke-linecap="round" stroke-linejoin="round" stroke-width="3.2327117133994205"/>
  <path d="M 54.15256093473144, 30.189021775419576 Q 54.39748080236095, 30.19670409201435, 54.621916475290696, 30.210038894957385 " fill="none" id="curve_104" stroke="#000000" stroke-linecap="round" stroke-linejoin="round" stroke-width="4.101975235245684"/>
  <path d="M 43.26375793780599, 80.73002163570496 Q 41.01428090863476, 79.8493042613446, 33.82845017422143, 79.18887882707412 " fill="none" id="curve_141" stroke="#000000" stroke-linecap="round" stroke-linejoin="round" stroke-width="3.618086218586619"/>
  <path d="M 44.62957984316017, 78.5779706072077 Q 40.141197441359466, 78.66874798152425, 37.64711098867737, 79.261422298147 " fill="none" id="curve_156" stroke="#000000" stroke-linecap="round" stroke-linejoin="round" stroke-width="1.9590130416097904"/>
</svg>
