<?xml version="1.0" ?>
<svg height="140" width="140" xmlns="http://www.w3.org/2000/svg">
  <path d="M 65.38668823242188, 110.90757369995117 Q 62.234608549994704, 110.7797711516146, 48.54125619711033, 110.65397385583722 " fill="none" id="curve_1" stroke="#000000" stroke-linecap="round" stroke-linejoin="round" stroke-width="6.006351532964739"/>
  <path d="M 48.54125619711033, 110.65397385583722 Q 41.87035697639004, 113.94788306517484, 26.463342138464327, 121.6869332635129 " fill="none" id="curve_1" stroke="#000000" stroke-linecap="round" stroke-linejoin="round" stroke-width="4.95021830704989"/>
  <path d="M 26.463342138464327, 121.6869332635129 Q 23.67793418542083, 125.99295553316692, 14.587327327222704, 127.79227945878152 " fill="none" id="curve_1" stroke="#000000" stroke-linecap="round" stroke-linejoin="round" stroke-width="5.068933303755814"/>
  <path d="M 14.587327327222704, 127.79227945878152 Q 16.77743170948003, 116.26988557349877, 29.69773990993889, 100.82628809140714 " fill="none" id="curve_1" stroke="#000000" stroke-linecap="round" stroke-linejoin="round" stroke-width="4.984951590220238"/>
  <path d="M 29.69773990993889, 100.82628809140714 Q 34.580588072006435, 92.64379243233637, 46.89628100694256, 73.50009790012953 " fill="none" id="curve_1" stroke="#000000" stroke-linecap="round" stroke-linejoin="round" stroke-width="5.026898249188839"/>
  <path d="M 46.89628100694256, 73.50009790012953 Q 52.29101674535069, 66.07552994473943, 59.945960173554695, 47.55348994890633 " fill="none" id="curve_1" stroke="#000000" stroke-linecap="round" stroke-linejoin="round" stroke-width="4.962183658797106"/>
  <path d="M 59.945960173554695, 47.55348994890633 Q 59.89064726840779, 22.781341197168448, 49.47265195262862, 21.958406627117864 " fill="none" id="curve_1" stroke="#000000" stroke-linecap="round" stroke-linejoin="round" stroke-width="4.926741722762636"/>
  <path d="M 49.47265195262862, 21.958406627117864 Q 27.289379546569663, 22.73735661460557, 22.304581277973774, 48.07124651737496 " fill="none" id="curve_1" stroke="#000000" stroke-linecap="round" stroke-linejoin="round" stroke-width="3.971947791510343"/>
  <path d="M 56.36064735020508, 23.540850089725723 Q 58.90363302164756, 28.932291926288542, 61.88343255921237, 35.14716107467217 " fill="none" id="curve_2" stroke="#000000" stroke-linecap="round" stroke-linejoin="round" stroke-width="3.4878672679581095"/>
  <path d="M 47.81329360385074, 20.434177035815676 Q 37.28405480482356, 21.76877281936377, 32.2445194722664, 28.35470985148838 " fill="none" id="curve_3" stroke="#000000" stroke-linecap="round" stroke-linejoin="round" stroke-width="2.2630926386514014"/>
  <path d="M 52.00076769271947, 20.979834835628346 Q 53.72961914749422, 21.67639834622512, 55.46338718208027, 23.15776905794722 " fill="none" id="curve_4" stroke="#000000" stroke-linecap="round" stroke-linejoin="round" stroke-width="2.83087422809002"/>
  <path d="M 51.406902971027655, 67.75004048429551 Q 46.381463205744154, 68.3742773659629, 45.11045643666543, 73.82369170876296 " fill="none" id="curve_5" stroke="#000000" stroke-linecap="round" stroke-linejoin="round" stroke-width="3.1623697703377665"/>
  <path d="M 63.10929842345203, 110.98483973169391 Q 64.36310389793327, 111.72270511518472, 67.56067316066292, 112.23580687562492 " fill="none" id="curve_6" stroke="#000000" stroke-linecap="round" stroke-linejoin="round" stroke-width="3.345730688132584"/>
  <path d="M 67.56067316066292, 112.23580687562492 Q 64.79976801125702, 111.64858565845827, 54.69535028549446, 111.35454298557254 " fill="none" id="curve_6" stroke="#000000" stroke-linecap="round" stroke-linejoin="round" stroke-width="4.701597535374245"/>
  <path d="M 22.894858971193784, 123.062693857429 Q 18.562843341931853, 123.7178756865881, 13.096059320802032, 124.41466525567773 " fill="none" id="curve_7" stroke="#000000" stroke-linecap="round" stroke-linejoin="round" stroke-width="3.8312759941007855"/>
  <path d="M 25.3353041674511, 107.56020074480696 Q 29.61117996779612, 97.41229272994703, 40.05454254051402, 84.5802277555252 " fill="none" id="curve_10" stroke="#000000" stroke-linecap="round" stroke-linejoin="round" stroke-width="2.3566073248809243"/>
  <path d="M 56.10842091330336, 57.8195116279835 Q 57.417093945788615, 50.93802613753111, 59.76610491427595, 42.7578796647108 " fill="none" id="curve_11" stroke="#000000" stroke-linecap="round" stroke-linejoin="round" stroke-width="3.1567049788632127"/>
  <path d="M 59.757347212442085, 51.269740144769905 Q 54.50151661942885, 59.520084529772554, 47.09323968419771, 70.98886423277293 " fill="none" id="curve_13" stroke="#000000" stroke-linecap="round" stroke-linejoin="round" stroke-width="2.7407275518566774"/>
  <path d="M 61.441898533648555, 110.1450458672789 Q 59.6876940864521, 109.84369570155103, 56.32875087209173, 109.53614999025284 " fill="none" id="curve_41" stroke="#000000" stroke-linecap="round" stroke-linejoin="round" stroke-width="2.380125247762364"/>
  <path d="M 14.008075086739336, 124.12020473236515 Q 14.787718226516443, 121.33542544935581, 16.62105571926849, 118.66954103464975 " fill="none" id="curve_43" stroke="#000000" stroke-linecap="round" stroke-linejoin="round" stroke-width="2.8332356724848182"/>
  <path d="M 35.09685025142822, 24.53978164652897 Q 34.18276734699157, 25.033963430671715, 32.4486312033457, 25.926856750702413 " fill="none" id="curve_46" stroke="#000000" stroke-linecap="round" stroke-linejoin="round" stroke-width="2.763770230279452"/>
  <path d="M 22.55882386230702, 45.96517643777 Q 22.610593948612827, 44.91406974530717, 22.76190134371824, 43.84353071265728 " fill="none" id="curve_53" stroke="#000000" stroke-linecap="round" stroke-linejoin="round" stroke-width="3.398738209773795"/>
  <path d="M 65.91132933233189, 110.24756810800181 Q 65.3593192735698, 110.12328923585638, 64.61222555087302, 109.96645313860643 " fill="none" id="curve_68" stroke="#000000" stroke-linecap="round" stroke-linejoin="round" stroke-width="2.7328083284882227"/>
  <path d="M 27.41456228301906, 99.94362990013639 Q 26.8382807701163, 100.64942733391217, 26.361376023070534, 103.0410967268739 " fill="none" id="curve_70" stroke="#000000" stroke-linecap="round" stroke-linejoin="round" stroke-width="2.340409361398171"/>
  <path d="M 61.06640410983864, 39.20464906823793 Q 61.12897840738116, 38.54187026216385, 61.21661568010528, 37.42275310638236 " fill="none" id="curve_87" stroke="#000000" stroke-linecap="round" stroke-linejoin="round" stroke-width="2.896401101940319"/>
  <path d="M 39.78852790355449, 84.54901354686808 Q 41.130430766014065, 83.19208111765046, 43.94794463367659, 81.79999008631569 " fill="none" id="curve_102" stroke="#000000" stroke-linecap="round" stroke-linejoin="round" stroke-width="2.821581891800684"/>
  <path d="M 57.220730551921754, 56.460920824113174 Q 56.91562670689719, 55.83557110904733, 56.51929069759151, 54.92575342168059 " fill="none" id="curve_103" stroke="#000000" stroke-linecap="round" stroke-linejoin="round" stroke-width="4.754981152334728"/>
  <path d="M 33.27058542309942, 117.54970317720029 Q 34.18637614783494, 117.32667984006785, 35.433231543548295, 116.93482390381442 " fill="none" id="curve_135" stroke="#000000" stroke-linecap="round" stroke-linejoin="round" stroke-width="3.2343605185776285"/>
  <path d="M 32.824646321919836, 117.24359964250851 Q 34.19899714700731, 116.68730407654334, 35.52969529638009, 115.69498820728009 " fill="none" id="curve_151" stroke="#000000" stroke-linecap="round" stroke-linejoin="round" stroke-width="3.3940829207734113"/>
  <path d="M 29.898759865439544, 98.29581092303951 Q 32.30481839869827, 93.73880653019592, 36.566124709816194, 87.96389582944735 " fill="none" id="curve_155" stroke="#000000" stroke-linecap="round" stroke-linejoin="round" stroke-width="2.546807708207864"/>
  <path d="M 35.83295513355699, 85.56035029057739 Q 34.53750739399641, 91.2386822047081, 30.005329735124747, 96.20347764757062 " fill="none" id="curve_170" stroke="#000000" stroke-linecap="round" stroke-linejoin="round" stroke-width="2.6098680190797285"/>
</svg>
