<?xml version="1.0" ?>
<svg height="140" width="140" xmlns="http://www.w3.org/2000/svg">
  <path d="M 41.917556285858154, 47.243642807006836 Q 34.652144295425806, 47.317792456427895, 33.92211358831878, 49.5854335842688 " fill="none" id="curve_1" stroke="#000000" stroke-linecap="round" stroke-linejoin="round" stroke-width="3.994086320162696"/>
  <path d="M 33.92211358831878, 49.5854335842688 Q 34.09441393471847, 54.728200685514466, 38.349727362498236, 55.11630551379654 " fill="none" id="curve_1" stroke="#000000" stroke-linecap="round" stroke-linejoin="round" stroke-width="4.035847335244072"/>
  <path d="M 40.725622473294, 46.29218871819027 Q 46.880208895373976, 45.89417681367015, 51.96904368759064, 45.239185296602905 " fill="none" id="curve_2" stroke="#000000" stroke-linecap="round" stroke-linejoin="round" stroke-width="4.9874179855197855"/>
  <path d="M 51.96904368759064, 45.239185296602905 Q 65.34865183415171, 45.966285271114764, 67.30569359485678, 52.000495342145385 " fill="none" id="curve_2" stroke="#000000" stroke-linecap="round" stroke-linejoin="round" stroke-width="5.18243799491486"/>
  <path d="M 67.30569359485678, 52.000495342145385 Q 65.53316107449109, 65.78035101971638, 47.68915600173217, 78.14146390011612 " fill="none" id="curve_2" stroke="#000000" stroke-linecap="round" stroke-linejoin="round" stroke-width="4.16689019152123"/>
  <path d="M 47.68915600173217, 78.14146390011612 Q 42.15851455526925, 83.92664566661104, 20.986665055314752, 98.35952825341771 " fill="none" id="curve_2" stroke="#000000" stroke-linecap="round" stroke-linejoin="round" stroke-width="4.074937223621107"/>
  <path d="M 20.986665055314752, 98.35952825341771 Q 18.041759565258875, 99.03685961693265, 17.742005800726353, 107.89197597080357 " fill="none" id="curve_2" stroke="#000000" stroke-linecap="round" stroke-linejoin="round" stroke-width="4.497660473632689"/>
  <path d="M 17.742005800726353, 107.89197597080357 Q 18.081183139812044, 109.43834002415593, 35.62641569489446, 109.49828899525644 " fill="none" id="curve_2" stroke="#000000" stroke-linecap="round" stroke-linejoin="round" stroke-width="4.429545192633688"/>
  <path d="M 35.62641569489446, 109.49828899525644 Q 45.78756642669854, 108.87957297360005, 62.87569228959047, 108.34076141085329 " fill="none" id="curve_2" stroke="#000000" stroke-linecap="round" stroke-linejoin="round" stroke-width="4.523143742644159"/>
  <path d="M 62.87569228959047, 108.34076141085329 Q 69.21388558664012, 109.42397248313978, 73.33993717880024, 111.05646242232497 " fill="none" id="curve_2" stroke="#000000" stroke-linecap="round" stroke-linejoin="round" stroke-width="3.544802140419943"/>
  <path d="M 15.85833738570718, 104.62870024961362 Q 16.923428534714056, 102.69420538507997, 18.49790966973309, 99.67282901972258 " fill="none" id="curve_4" stroke="#000000" stroke-linecap="round" stroke-linejoin="round" stroke-width="2.637083161136594"/>
  <path d="M 18.49790966973309, 99.67282901972258 Q 27.987234554682857, 93.94198023606722, 39.15540069934882, 85.38769172804722 " fill="none" id="curve_4" stroke="#000000" stroke-linecap="round" stroke-linejoin="round" stroke-width="2.8207180876953677"/>
  <path d="M 35.92692384252357, 47.99350933107594 Q 36.33514700982289, 47.10951841086917, 37.4345256907767, 46.586517644498876 " fill="none" id="curve_5" stroke="#000000" stroke-linecap="round" stroke-linejoin="round" stroke-width="3.6250343425081564"/>
  <path d="M 61.781385674855315, 45.77256529929315 Q 60.65001728052835, 44.72268955970202, 50.15661582297951, 44.204951668944325 " fill="none" id="curve_15" stroke="#000000" stroke-linecap="round" stroke-linejoin="round" stroke-width="2.491729581441073"/>
  <path d="M 66.32957884337975, 54.89236687432208 Q 65.91760570363536, 47.342608422597976, 53.62901133076001, 45.85775386078856 " fill="none" id="curve_30" stroke="#000000" stroke-linecap="round" stroke-linejoin="round" stroke-width="2.1027021948418163"/>
  <path d="M 46.20793190100791, 44.566299669873196 Q 45.69259002084224, 44.83348266135024, 44.52255253676663, 45.145455871387036 " fill="none" id="curve_31" stroke="#000000" stroke-linecap="round" stroke-linejoin="round" stroke-width="2.9651245332531206"/>
  <path d="M 35.15753034061643, 47.77417190028484 Q 35.83759704715698, 47.84143137231515, 36.72947799869786, 47.984648121370746 " fill="none" id="curve_49" stroke="#000000" stroke-linecap="round" stroke-linejoin="round" stroke-width="2.7426749134893553"/>
  <path d="M 19.57970738658585, 99.35965198470323 Q 26.139004491180202, 94.59052007083137, 38.12419805343531, 87.89904562026497 " fill="none" id="curve_59" stroke="#000000" stroke-linecap="round" stroke-linejoin="round" stroke-width="2.1856343757477203"/>
  <path d="M 28.913513488938236, 92.13115266896236 Q 24.384559675923228, 94.73931763290945, 19.178575367481365, 98.9209339508358 " fill="none" id="curve_75" stroke="#000000" stroke-linecap="round" stroke-linejoin="round" stroke-width="2.6077683292518072"/>
  <path d="M 46.646841565818576, 108.30146778561405 Q 44.86126966087445, 108.38605617677372, 42.39690646586972, 108.50000048696519 " fill="none" id="curve_76" stroke="#000000" stroke-linecap="round" stroke-linejoin="round" stroke-width="3.9774890639386213"/>
  <path d="M 64.57478850062665, 48.27287792784711 Q 65.48958299697816, 48.179122067632925, 66.9557586266803, 47.94304566340226 " fill="none" id="curve_119" stroke="#000000" stroke-linecap="round" stroke-linejoin="round" stroke-width="2.255529829145413"/>
  <path d="M 59.99018519287006, 65.08342578845031 Q 63.03544706748153, 62.29101720732383, 66.11996062930301, 57.46367553770188 " fill="none" id="curve_147" stroke="#000000" stroke-linecap="round" stroke-linejoin="round" stroke-width="2.936918075447799"/>
</svg>
