<?xml version="1.0" ?>
<svg height="140" width="140" xmlns="http://www.w3.org/2000/svg">
  <path d="M 36.92371368408203, 43.49840784072876 Q 31.125140775214284, 45.26170283333797, 27.376235912497975, 49.36717077340268 " fill="none" id="curve_1" stroke="#000000" stroke-linecap="round" stroke-linejoin="round" stroke-width="5.977917447845735"/>
  <path d="M 27.376235912497975, 49.36717077340268 Q 28.337697167865137, 54.76884874292965, 33.5063239466009, 56.19733237027055 " fill="none" id="curve_1" stroke="#000000" stroke-linecap="round" stroke-linejoin="round" stroke-width="3.396342793885636"/>
  <path d="M 47.191191761919534, 40.424953655731656 Q 41.195692402084816, 42.66140032146918, 33.88541314010142, 45.61282346168759 " fill="none" id="curve_2" stroke="#000000" stroke-linecap="round" stroke-linejoin="round" stroke-width="4.6018897719369"/>
  <path d="M 33.88541314010142, 45.61282346168759 Q 38.415061807511826, 42.580463104874475, 59.219985427453295, 41.60230065089281 " fill="none" id="curve_2" stroke="#000000" stroke-linecap="round" stroke-linejoin="round" stroke-width="5.390103826876087"/>
  <path d="M 59.219985427453295, 41.60230065089281 Q 58.11876704082245, 63.164683240670996, 41.84037178017175, 80.62780534436769 " fill="none" id="curve_2" stroke="#000000" stroke-linecap="round" stroke-linejoin="round" stroke-width="5.619050319726392"/>
  <path d="M 41.84037178017175, 80.62780534436769 Q 34.678173607401135, 90.8593421408712, 21.697242006494037, 104.03141532400369 " fill="none" id="curve_2" stroke="#000000" stroke-linecap="round" stroke-linejoin="round" stroke-width="6.070456380850329"/>
  <path d="M 21.697242006494037, 104.03141532400369 Q 36.77780447549529, 103.05081530018161, 61.76301920699775, 101.61349118291086 " fill="none" id="curve_2" stroke="#000000" stroke-linecap="round" stroke-linejoin="round" stroke-width="5.5511571939001385"/>
  <path d="M 61.76301920699775, 101.61349118291086 Q 64.04245420076379, 102.46335927565374, 68.3164772341646, 103.03778944237297 " fill="none" id="curve_2" stroke="#000000" stroke-linecap="round" stroke-linejoin="round" stroke-width="5.889418186780892"/>
  <path d="M 49.70145661357372, 66.07067422431635 Q 51.43785176711377, 65.09615753204982, 53.7012037865634, 62.54378025470988 " fill="none" id="curve_3" stroke="#000000" stroke-linecap="round" stroke-linejoin="round" stroke-width="3.6497234526063536"/>
  <path d="M 47.27368286893287, 101.48706034799821 Q 52.8460899026099, 101.0971235404806, 59.17966676971095, 100.36304600291825 " fill="none" id="curve_6" stroke="#000000" stroke-linecap="round" stroke-linejoin="round" stroke-width="3.852456780946735"/>
  <path d="M 55.10415587961507, 40.61286004047375 Q 56.48820799153415, 48.058241030724595, 60.176795109212875, 51.90143893516933 " fill="none" id="curve_8" stroke="#000000" stroke-linecap="round" stroke-linejoin="round" stroke-width="3.209153910610599"/>
  <path d="M 55.35560451256151, 39.9929136378343 Q 54.806796953405374, 39.48087007287631, 48.98396593529523, 39.3654712214325 " fill="none" id="curve_10" stroke="#000000" stroke-linecap="round" stroke-linejoin="round" stroke-width="3.034198671031773"/>
  <path d="M 38.38654839016632, 41.73021396979154 Q 33.977869045198275, 44.33910126498945, 29.38213408260225, 48.94609708419258 " fill="none" id="curve_12" stroke="#000000" stroke-linecap="round" stroke-linejoin="round" stroke-width="3.0100514500550664"/>
  <path d="M 27.60886913294378, 95.96001206945496 Q 35.28008720374468, 89.08999441915603, 45.23365461964032, 77.33392694263375 " fill="none" id="curve_15" stroke="#000000" stroke-linecap="round" stroke-linejoin="round" stroke-width="2.985728431921785"/>
  <path d="M 45.23365461964032, 77.33392694263375 Q 47.31260749345921, 65.80723228860231, 56.85624862961804, 59.425457220698306 " fill="none" id="curve_15" stroke="#000000" stroke-linecap="round" stroke-linejoin="round" stroke-width="3.3199336224401574"/>
  <path d="M 56.85624862961804, 59.425457220698306 Q 55.63243484578168, 58.2935647977617, 52.390988005104944, 57.31695736216753 " fill="none" id="curve_15" stroke="#000000" stroke-linecap="round" stroke-linejoin="round" stroke-width="3.3588003497930488"/>
  <path d="M 63.883362247567135, 103.65309041599063 Q 61.24873788251009, 103.42612882041392, 55.290090691164515, 103.03726410493505 " fill="none" id="curve_19" stroke="#000000" stroke-linecap="round" stroke-linejoin="round" stroke-width="2.8744773030688124"/>
  <path d="M 34.84776931693652, 88.4909325541111 Q 28.688397224108837, 92.2535191834321, 22.985028749279003, 102.45917662366816 " fill="none" id="curve_20" stroke="#000000" stroke-linecap="round" stroke-linejoin="round" stroke-width="3.3593437616993684"/>
  <path d="M 28.681491826522496, 94.48107195026162 Q 36.35016601228048, 88.52100447300715, 45.86033136036238, 76.14023758288448 " fill="none" id="curve_26" stroke="#000000" stroke-linecap="round" stroke-linejoin="round" stroke-width="2.781275886484034"/>
  <path d="M 45.86033136036238, 76.14023758288448 Q 45.426722912154624, 75.30933684057767, 43.77637201404512, 74.48089348235185 " fill="none" id="curve_26" stroke="#000000" stroke-linecap="round" stroke-linejoin="round" stroke-width="3.7985949551020672"/>
  <path d="M 29.78448123620291, 91.00369698625553 Q 35.383214219733745, 86.8355282281588, 43.479954909412214, 80.78992536373178 " fill="none" id="curve_27" stroke="#000000" stroke-linecap="round" stroke-linejoin="round" stroke-width="2.917068741285014"/>
  <path d="M 29.660475122084005, 46.531283631931316 Q 30.069528740435867, 46.74551003538035, 34.44480665810145, 46.79019848459784 " fill="none" id="curve_30" stroke="#000000" stroke-linecap="round" stroke-linejoin="round" stroke-width="2.712902634153017"/>
  <path d="M 33.21494872634125, 43.60677272600785 Q 32.25319181918915, 44.49724251014842, 30.750155364340994, 46.472285672178465 " fill="none" id="curve_31" stroke="#000000" stroke-linecap="round" stroke-linejoin="round" stroke-width="2.3865041461592"/>
  <path d="M 50.973375097360154, 101.29955275594082 Q 33.157551961669796, 101.28484915007417, 24.953356742728136, 101.19030244134446 " fill="none" id="curve_34" stroke="#000000" stroke-linecap="round" stroke-linejoin="round" stroke-width="3.4213695425000097"/>
  <path d="M 45.774141446193084, 100.85095103886894 Q 43.561194356345894, 100.82475867906457, 41.50103293423322, 100.75338045613245 " fill="none" id="curve_35" stroke="#000000" stroke-linecap="round" stroke-linejoin="round" stroke-width="2.960997085176715"/>
  <path d="M 89.54153565390152, 1.9674228589797167 Q 89.60794152052563, 1.5462713091706628, 89.74247532180533, 1.108473705996425 " fill="none" id="curve_50" stroke="#000000" stroke-linecap="round" stroke-linejoin="round" stroke-width="1.5357515860480861"/>
  <path d="M 43.09375363420943, 80.08461888686627 Q 43.59489073590716, 80.03976078866397, 44.51697515450266, 79.97164341668594 " fill="none" id="curve_157" stroke="#000000" stroke-linecap="round" stroke-linejoin="round" stroke-width="3.3545041751861926"/>
  <path d="M 50.096183830457385, 66.01890557119948 Q 50.03731113672343, 65.13123504953089, 49.8595553295332, 64.32871452507422 " fill="none" id="curve_160" stroke="#000000" stroke-linecap="round" stroke-linejoin="round" stroke-width="3.0890653648944975"/>
</svg>
