<?xml version="1.0" ?>
<svg height="140" width="140" xmlns="http://www.w3.org/2000/svg">
  <path d="M 46.71850109100342, 104.71618461608887 Q 46.73257615960526, 102.88293215823877, 46.83074012733327, 101.37520885986564 " fill="none" id="curve_1" stroke="#000000" stroke-linecap="round" stroke-linejoin="round" stroke-width="8.286014798425226"/>
  <path d="M 46.83074012733327, 101.37520885986564 Q 45.1616306299352, 101.8145055155162, 43.88175041993861, 104.38589813813522 " fill="none" id="curve_1" stroke="#000000" stroke-linecap="round" stroke-linejoin="round" stroke-width="3.3365366853355902"/>
  <path d="M 43.88175041993861, 104.38589813813522 Q 45.5168105776425, 110.09182109637808, 55.81343900184942, 111.50861250909162 " fill="none" id="curve_1" stroke="#000000" stroke-linecap="round" stroke-linejoin="round" stroke-width="5.541411879941323"/>
  <path d="M 55.81343900184942, 111.50861250909162 Q 79.53645262636535, 111.428888748877, 83.98635801957583, 108.79520333578651 " fill="none" id="curve_1" stroke="#000000" stroke-linecap="round" stroke-linejoin="round" stroke-width="3.960728978125658"/>
  <path d="M 83.98635801957583, 108.79520333578651 Q 87.84378515745001, 108.70584956506175, 88.78712750719937, 108.1282528186695 " fill="none" id="curve_1" stroke="#000000" stroke-linecap="round" stroke-linejoin="round" stroke-width="5.1131640213159795"/>
  <path d="M 70.02856041719984, 78.29437468871683 Q 63.90527089656034, 85.18210856030181, 49.29797126859839, 98.91671565898025 " fill="none" id="curve_2" stroke="#000000" stroke-linecap="round" stroke-linejoin="round" stroke-width="4.4569374702785085"/>
  <path d="M 70.25776199991405, 77.36259403144457 Q 71.9818670124176, 75.21025736771976, 72.8371518017025, 69.65704678307118 " fill="none" id="curve_3" stroke="#000000" stroke-linecap="round" stroke-linejoin="round" stroke-width="6.186477768802694"/>
  <path d="M 72.8371518017025, 69.65704678307118 Q 72.36875342926238, 58.930956942070665, 52.315894142937225, 57.83255571804708 " fill="none" id="curve_3" stroke="#000000" stroke-linecap="round" stroke-linejoin="round" stroke-width="6.107021564074441"/>
  <path d="M 52.315894142937225, 57.83255571804708 Q 41.26291679441235, 58.416138198884475, 39.93069985636457, 66.50907711218146 " fill="none" id="curve_3" stroke="#000000" stroke-linecap="round" stroke-linejoin="round" stroke-width="4.304642486809343"/>
  <path d="M 39.93069985636457, 66.50907711218146 Q 40.51523482457307, 71.2973596405922, 41.262620272440365, 75.92235694202368 " fill="none" id="curve_3" stroke="#000000" stroke-linecap="round" stroke-linejoin="round" stroke-width="3.793075913287177"/>
  <path d="M 71.32072402033403, 73.50510093739295 Q 66.93008370404571, 81.43969474432217, 57.168099197405375, 88.51572788981326 " fill="none" id="curve_4" stroke="#000000" stroke-linecap="round" stroke-linejoin="round" stroke-width="3.224421001903264"/>
  <path d="M 47.202970860112885, 97.36514300948096 Q 48.58457679076437, 96.11099989963719, 52.98667491708212, 95.49345351177277 " fill="none" id="curve_5" stroke="#000000" stroke-linecap="round" stroke-linejoin="round" stroke-width="3.1392404188513408"/>
  <path d="M 47.169362405560484, 108.05145226865521 Q 47.0973745917284, 106.70793877705452, 46.85182894666594, 106.1870495730881 " fill="none" id="curve_6" stroke="#000000" stroke-linecap="round" stroke-linejoin="round" stroke-width="5.002387537530399"/>
  <path d="M 38.26424490557474, 66.90822934909934 Q 39.6601689554238, 66.50711343145531, 40.41188189004283, 64.75931431773681 " fill="none" id="curve_7" stroke="#000000" stroke-linecap="round" stroke-linejoin="round" stroke-width="5.056796285012494"/>
  <path d="M 47.169409930467424, 109.13569962688375 Q 50.823598346080445, 110.53166167934742, 60.38774665139287, 111.4632979211426 " fill="none" id="curve_9" stroke="#000000" stroke-linecap="round" stroke-linejoin="round" stroke-width="2.7074954785934398"/>
  <path d="M 40.62222719071658, 66.5456961105801 Q 41.27435663444905, 64.78143861077558, 42.87942150575767, 62.298562860808104 " fill="none" id="curve_12" stroke="#000000" stroke-linecap="round" stroke-linejoin="round" stroke-width="2.9438037973176274"/>
  <path d="M 56.217106172818376, 110.01450551185167 Q 54.27918498876344, 109.6154624962539, 51.95066644793958, 108.86938284148897 " fill="none" id="curve_27" stroke="#000000" stroke-linecap="round" stroke-linejoin="round" stroke-width="3.256027563682652"/>
  <path d="M 69.89910081728183, 72.71320414568952 Q 70.26215304494279, 72.38392495700599, 71.16880588113007, 71.98018554686834 " fill="none" id="curve_32" stroke="#000000" stroke-linecap="round" stroke-linejoin="round" stroke-width="2.6358474563538907"/>
  <path d="M 88.74612314035907, 107.50437283685315 Q 89.32769867401743, 106.93736403723989, 90.12991081425959, 106.1551938319175 " fill="none" id="curve_100" stroke="#000000" stroke-linecap="round" stroke-linejoin="round" stroke-width="2.4616493606152567"/>
</svg>
