<?xml version="1.0" ?>
<svg height="140" width="140" xmlns="http://www.w3.org/2000/svg">
  <path d="M 47.21123170852661, 97.56442260742188 Q 47.29785621719777, 97.2150925998166, 47.31266590253367, 92.58929914337006 " fill="none" id="curve_1" stroke="#000000" stroke-linecap="round" stroke-linejoin="round" stroke-width="7.47024482405806"/>
  <path d="M 47.31266590253367, 92.58929914337006 Q 48.06170950935789, 85.0540171661358, 52.42347400610313, 81.92036063964487 " fill="none" id="curve_1" stroke="#000000" stroke-linecap="round" stroke-linejoin="round" stroke-width="7.309573115656003"/>
  <path d="M 52.42347400610313, 81.92036063964487 Q 54.768656966923366, 75.18084768763649, 59.231971137383795, 69.25636133286002 " fill="none" id="curve_1" stroke="#000000" stroke-linecap="round" stroke-linejoin="round" stroke-width="8.13587151799878"/>
  <path d="M 59.231971137383795, 69.25636133286002 Q 58.76862104037097, 64.1621892977793, 57.72494293762606, 59.53962586515898 " fill="none" id="curve_1" stroke="#000000" stroke-linecap="round" stroke-linejoin="round" stroke-width="7.912372343956073"/>
  <path d="M 57.72494293762606, 59.53962586515898 Q 48.14860634913845, 57.26286816684183, 26.589703013843984, 53.38122320709219 " fill="none" id="curve_1" stroke="#000000" stroke-linecap="round" stroke-linejoin="round" stroke-width="6.96646737552309"/>
  <path d="M 26.589703013843984, 53.38122320709219 Q 23.457232993133243, 52.67482792258975, 19.847844832803503, 51.84686327232046 " fill="none" id="curve_1" stroke="#000000" stroke-linecap="round" stroke-linejoin="round" stroke-width="7.8160945807873095"/>
  <path d="M 48.98499856440177, 100.01725298733396 Q 62.71031103394513, 99.79357861067682, 71.23414998789144, 98.84321722100137 " fill="none" id="curve_2" stroke="#000000" stroke-linecap="round" stroke-linejoin="round" stroke-width="5.853200439545979"/>
  <path d="M 71.23414998789144, 98.84321722100137 Q 72.12888359013655, 98.05563881980244, 73.04269261400988, 96.73240587571476 " fill="none" id="curve_2" stroke="#000000" stroke-linecap="round" stroke-linejoin="round" stroke-width="4.6440414619205965"/>
  <path d="M 73.04269261400988, 96.73240587571476 Q 71.18997725658755, 100.95905712368982, 54.95471586510914, 101.74425645591052 " fill="none" id="curve_2" stroke="#000000" stroke-linecap="round" stroke-linejoin="round" stroke-width="4.247490076271287"/>
  <path d="M 54.95471586510914, 101.74425645591052 Q 51.87513171532453, 99.73292212768663, 49.02364804579369, 96.42938606144028 " fill="none" id="curve_2" stroke="#000000" stroke-linecap="round" stroke-linejoin="round" stroke-width="5.526124120579344"/>
  <path d="M 58.04907756733674, 56.894136672317764 Q 51.080965851636066, 56.004830106250026, 18.146356641978336, 54.38514068868253 " fill="none" id="curve_3" stroke="#000000" stroke-linecap="round" stroke-linejoin="round" stroke-width="2.037023364867834"/>
  <path d="M 18.146356641978336, 54.38514068868253 Q 16.933281171583214, 55.07941496689181, 15.740199623300906, 56.37490139424895 " fill="none" id="curve_3" stroke="#000000" stroke-linecap="round" stroke-linejoin="round" stroke-width="3.0438129618653647"/>
  <path d="M 47.77684882780699, 55.394844834863676 Q 57.59412151242368, 55.69231430999873, 59.35402246426479, 58.95839687170186 " fill="none" id="curve_4" stroke="#000000" stroke-linecap="round" stroke-linejoin="round" stroke-width="3.3239601138096275"/>
  <path d="M 27.23542116220292, 54.19657678481258 Q 31.42811255206226, 56.47690890144319, 39.77228904498733, 57.90180805871735 " fill="none" id="curve_6" stroke="#000000" stroke-linecap="round" stroke-linejoin="round" stroke-width="3.366895572656282"/>
  <path d="M 22.392814579979724, 49.21759342339992 Q 21.370289924947567, 48.94618991669594, 20.069176775036514, 48.62612175450151 " fill="none" id="curve_7" stroke="#000000" stroke-linecap="round" stroke-linejoin="round" stroke-width="3.5447973547052047"/>
  <path d="M 61.272958694566015, 61.332338924963764 Q 60.35555521823306, 60.264583759797084, 57.8046461424643, 58.978302860045225 " fill="none" id="curve_9" stroke="#000000" stroke-linecap="round" stroke-linejoin="round" stroke-width="3.4994355477137917"/>
  <path d="M 2.1870097610077863, 1.9998924923165893 Q 2.419556221461944, 1.744569400173416, 2.6341595645056515, 0.9464993268445847 " fill="none" id="curve_12" stroke="#000000" stroke-linecap="round" stroke-linejoin="round" stroke-width="2.652287303213785"/>
  <path d="M 68.83178749378385, 97.14470937107296 Q 69.16902064092896, 96.7481708788836, 69.75419773437379, 96.37093296379346 " fill="none" id="curve_27" stroke="#000000" stroke-linecap="round" stroke-linejoin="round" stroke-width="4.557573976353034"/>
  <path d="M 44.85045173480397, 55.65179660426524 Q 48.99227798404269, 55.78407222139275, 53.545847182549224, 56.043345755178144 " fill="none" id="curve_32" stroke="#000000" stroke-linecap="round" stroke-linejoin="round" stroke-width="3.1224727435925743"/>
  <path d="M 50.78295869935846, 76.94838964477594 Q 50.29184565944129, 86.07352373508269, 49.438457034768454, 98.81929789986155 " fill="none" id="curve_47" stroke="#000000" stroke-linecap="round" stroke-linejoin="round" stroke-width="3.0113692463092856"/>
  <path d="M 39.709297727546925, 55.6920739514203 Q 41.64606517929181, 55.0901078062121, 52.149386934788275, 54.847229229937184 " fill="none" id="curve_49" stroke="#000000" stroke-linecap="round" stroke-linejoin="round" stroke-width="2.5280375138571856"/>
  <path d="M 52.41308941379157, 86.9938991244523 Q 48.00797480187399, 88.63509919621247, 45.18522758907297, 95.74198481229543 " fill="none" id="curve_77" stroke="#000000" stroke-linecap="round" stroke-linejoin="round" stroke-width="1.9571903801513593"/>
  <path d="M 38.154492545677655, 54.18545443315568 Q 41.28897242885704, 54.645283690035924, 45.57322992724214, 55.6423509829795 " fill="none" id="curve_83" stroke="#000000" stroke-linecap="round" stroke-linejoin="round" stroke-width="2.289666922440194"/>
  <path d="M 42.45057083150928, 55.05775875229982 Q 42.485659561341755, 54.04457445992989, 42.64269743904837, 53.23866604846375 " fill="none" id="curve_106" stroke="#000000" stroke-linecap="round" stroke-linejoin="round" stroke-width="2.9765567158640778"/>
  <path d="M 53.02190524243973, 101.69195601413409 Q 51.318533022453856, 100.94182124530599, 48.63284317681823, 100.2865570956299 " fill="none" id="curve_161" stroke="#000000" stroke-linecap="round" stroke-linejoin="round" stroke-width="4.260241242107858"/>
</svg>
