<?xml version="1.0" ?>
<svg height="140" width="140" xmlns="http://www.w3.org/2000/svg">
  <path d="M 59.34480243778523, 88.80241930716338 Q 54.281695995112095, 91.96855787966413, 42.25554290751019, 95.21991644258527 " fill="none" id="curve_2" stroke="#000000" stroke-linecap="round" stroke-linejoin="round" stroke-width="5.382938351256645"/>
  <path d="M 42.25554290751019, 95.21991644258527 Q 34.88073123994054, 94.31391739493613, 31.950958142957084, 90.60217758901817 " fill="none" id="curve_2" stroke="#000000" stroke-linecap="round" stroke-linejoin="round" stroke-width="5.776393419848389"/>
  <path d="M 31.950958142957084, 90.60217758901817 Q 32.718647119141174, 75.38054542594858, 40.31702732906605, 68.9696487500751 " fill="none" id="curve_2" stroke="#000000" stroke-linecap="round" stroke-linejoin="round" stroke-width="6.12458190902471"/>
  <path d="M 40.31702732906605, 68.9696487500751 Q 47.037726565646466, 61.76107453679377, 56.120010230118936, 46.06333247037992 " fill="none" id="curve_2" stroke="#000000" stroke-linecap="round" stroke-linejoin="round" stroke-width="4.630675484108977"/>
  <path d="M 56.120010230118936, 46.06333247037992 Q 55.973134470842474, 39.257414298844616, 55.58999610018516, 35.042712281373284 " fill="none" id="curve_2" stroke="#000000" stroke-linecap="round" stroke-linejoin="round" stroke-width="4.746892611480818"/>
  <path d="M 55.58999610018516, 35.042712281373284 Q 36.876249213455594, 35.37820286934988, 34.826718440891895, 41.92281053415127 " fill="none" id="curve_2" stroke="#000000" stroke-linecap="round" stroke-linejoin="round" stroke-width="4.297389006157373"/>
  <path d="M 34.826718440891895, 41.92281053415127 Q 34.9069987456649, 46.12820231420213, 35.56250801458282, 46.91970574607066 " fill="none" id="curve_2" stroke="#000000" stroke-linecap="round" stroke-linejoin="round" stroke-width="3.0752217385813707"/>
  <path d="M 57.79866417869932, 38.2231142692209 Q 57.61067738144165, 40.72108361846856, 57.18398783434434, 42.664319506231664 " fill="none" id="curve_3" stroke="#000000" stroke-linecap="round" stroke-linejoin="round" stroke-width="3.898590179042199"/>
  <path d="M 46.34686067157945, 58.21650734490487 Q 46.664830513084624, 53.99532784497619, 53.26037109174936, 53.37230378026736 " fill="none" id="curve_18" stroke="#000000" stroke-linecap="round" stroke-linejoin="round" stroke-width="2.793240555824385"/>
  <path d="M 49.14204164178429, 33.065880952592266 Q 47.37687624126012, 35.65718328579242, 40.2167595655185, 37.42887529401633 " fill="none" id="curve_20" stroke="#000000" stroke-linecap="round" stroke-linejoin="round" stroke-width="2.5197145029991437"/>
  <path d="M 42.121819688373016, 67.5915777397452 Q 38.78158926688734, 68.97272203581348, 34.35382540335669, 73.21714252077182 " fill="none" id="curve_28" stroke="#000000" stroke-linecap="round" stroke-linejoin="round" stroke-width="2.8422322492943977"/>
  <path d="M 53.50822525302842, 53.57519862145284 Q 54.22504638027407, 45.58812061864315, 56.6631724804788, 35.16615444987889 " fill="none" id="curve_57" stroke="#000000" stroke-linecap="round" stroke-linejoin="round" stroke-width="1.9646598602807954"/>
  <path d="M 30.34258259561681, 80.68194693222325 Q 31.3379339346782, 87.33523040378424, 34.93539110918766, 91.33173939687369 " fill="none" id="curve_86" stroke="#000000" stroke-linecap="round" stroke-linejoin="round" stroke-width="2.7825558242234294"/>
  <path d="M 33.197751660265006, 43.39712404890431 Q 33.55006992180837, 43.485060409823724, 34.25417691674251, 43.662337844044515 " fill="none" id="curve_89" stroke="#000000" stroke-linecap="round" stroke-linejoin="round" stroke-width="2.323235137689401"/>
</svg>
