<?xml version="1.0" ?>
<svg height="140" width="140" xmlns="http://www.w3.org/2000/svg">
  <path d="M 65.19651412963867, 71.48442840576172 Q 61.990590073586475, 76.19090677697092, 45.733632762384445, 85.39931638721613 " fill="none" id="curve_1" stroke="#000000" stroke-linecap="round" stroke-linejoin="round" stroke-width="5.212358761872714"/>
  <path d="M 45.733632762384445, 85.39931638721613 Q 41.48446652129708, 90.10620798408178, 26.587795654368126, 95.02950187802475 " fill="none" id="curve_1" stroke="#000000" stroke-linecap="round" stroke-linejoin="round" stroke-width="5.682119852840979"/>
  <path d="M 26.587795654368126, 95.02950187802475 Q 23.09132312349861, 94.83046173594678, 21.657462035205253, 93.95173116284128 " fill="none" id="curve_1" stroke="#000000" stroke-linecap="round" stroke-linejoin="round" stroke-width="4.181240908028728"/>
  <path d="M 21.657462035205253, 93.95173116284128 Q 25.47337307416838, 82.15587979111432, 44.48015695432143, 64.674147835021 " fill="none" id="curve_1" stroke="#000000" stroke-linecap="round" stroke-linejoin="round" stroke-width="4.723443695953062"/>
  <path d="M 44.48015695432143, 64.674147835021 Q 51.1676858812248, 56.31586772373144, 66.76701957444553, 37.82811714517618 " fill="none" id="curve_1" stroke="#000000" stroke-linecap="round" stroke-linejoin="round" stroke-width="4.74995220816932"/>
  <path d="M 66.76701957444553, 37.82811714517618 Q 51.41593303449768, 38.89918556940149, 34.560490581284945, 46.47739403642514 " fill="none" id="curve_1" stroke="#000000" stroke-linecap="round" stroke-linejoin="round" stroke-width="5.693025150045972"/>
  <path d="M 34.560490581284945, 46.47739403642514 Q 30.526338713037994, 49.782193179683524, 21.6302180164402, 51.6023877798992 " fill="none" id="curve_1" stroke="#000000" stroke-linecap="round" stroke-linejoin="round" stroke-width="4.840803250544096"/>
  <path d="M 68.00277810032975, 71.21980668571032 Q 63.71962589493219, 73.57163014480375, 59.08915888479575, 77.75910551756064 " fill="none" id="curve_3" stroke="#000000" stroke-linecap="round" stroke-linejoin="round" stroke-width="2.9935082867141394"/>
  <path d="M 61.77844460813946, 36.447974777672194 Q 56.37570507474656, 36.88722369108844, 51.72636398743778, 38.75958947127044 " fill="none" id="curve_4" stroke="#000000" stroke-linecap="round" stroke-linejoin="round" stroke-width="2.93439213089887"/>
  <path d="M 66.14570158887764, 35.90893639793997 Q 64.8671277201707, 35.958674368353044, 61.824025815395565, 36.00630767897808 " fill="none" id="curve_5" stroke="#000000" stroke-linecap="round" stroke-linejoin="round" stroke-width="3.412086020835712"/>
  <path d="M 30.62469453398837, 79.62030639778006 Q 23.486605051495722, 81.96193137815393, 20.706122182116893, 92.92555034819858 " fill="none" id="curve_6" stroke="#000000" stroke-linecap="round" stroke-linejoin="round" stroke-width="2.873720660090544"/>
  <path d="M 20.875020921273006, 51.60409815852005 Q 20.50988335264437, 51.96193790529792, 19.820715178294115, 52.399076173851086 " fill="none" id="curve_9" stroke="#000000" stroke-linecap="round" stroke-linejoin="round" stroke-width="2.792077829560177"/>
  <path d="M 28.533000381596654, 49.64205321189798 Q 37.49912539131998, 44.60908208775365, 52.61001719261269, 38.51901200615001 " fill="none" id="curve_11" stroke="#000000" stroke-linecap="round" stroke-linejoin="round" stroke-width="2.93544378063514"/>
  <path d="M 51.013294422432644, 55.6828092683013 Q 47.04813311568251, 60.059700106845696, 41.79559811766046, 66.82696791898968 " fill="none" id="curve_20" stroke="#000000" stroke-linecap="round" stroke-linejoin="round" stroke-width="3.0482947833607303"/>
  <path d="M 51.36996050099819, 40.92178203488122 Q 40.48273846945675, 43.89796236287863, 25.45231323540261, 50.25068151174478 " fill="none" id="curve_24" stroke="#000000" stroke-linecap="round" stroke-linejoin="round" stroke-width="2.577873059563773"/>
  <path d="M 66.37902606737703, 72.00008994338076 Q 64.2285188788259, 74.55222200203734, 58.915578183663726, 76.50072374619918 " fill="none" id="curve_34" stroke="#000000" stroke-linecap="round" stroke-linejoin="round" stroke-width="3.695935028912022"/>
  <path d="M 44.24014075632263, 40.05386128352352 Q 41.67379583827834, 45.80256982516224, 28.04315815026152, 48.573188894641135 " fill="none" id="curve_129" stroke="#000000" stroke-linecap="round" stroke-linejoin="round" stroke-width="3.1094675212699445"/>
</svg>
