<?xml version="1.0" ?>
<svg height="140" width="140" xmlns="http://www.w3.org/2000/svg">
  <path d="M 66.33185291290283, 106.84850120544434 Q 66.81761675211933, 105.80196929762059, 67.95145951312419, 104.73914664831288 " fill="none" id="curve_1" stroke="#000000" stroke-linecap="round" stroke-linejoin="round" stroke-width="3.8983926001703986"/>
  <path d="M 67.95145951312419, 104.73914664831288 Q 62.375428189026415, 107.12093418451882, 51.317135538609506, 110.17481312345615 " fill="none" id="curve_1" stroke="#000000" stroke-linecap="round" stroke-linejoin="round" stroke-width="4.2147286245509035"/>
  <path d="M 51.317135538609506, 110.17481312345615 Q 43.076507921238736, 110.99204026210965, 29.58303110561971, 112.0805925018206 " fill="none" id="curve_1" stroke="#000000" stroke-linecap="round" stroke-linejoin="round" stroke-width="5.600871129175884"/>
  <path d="M 29.58303110561971, 112.0805925018206 Q 24.530320140051558, 110.96244180348393, 22.73544734431207, 106.13547918793928 " fill="none" id="curve_1" stroke="#000000" stroke-linecap="round" stroke-linejoin="round" stroke-width="5.297616023747335"/>
  <path d="M 22.73544734431207, 106.13547918793928 Q 25.775388419300665, 92.32109826641383, 39.56420143386218, 71.74173775164212 " fill="none" id="curve_1" stroke="#000000" stroke-linecap="round" stroke-linejoin="round" stroke-width="5.118629132712934"/>
  <path d="M 39.56420143386218, 71.74173775164212 Q 45.468783968482164, 67.96710297111824, 47.752880636062486, 46.485754344676536 " fill="none" id="curve_1" stroke="#000000" stroke-linecap="round" stroke-linejoin="round" stroke-width="5.241346914247744"/>
  <path d="M 47.752880636062486, 46.485754344676536 Q 45.961584615015326, 44.06884239964472, 41.19498497313246, 42.49105035670852 " fill="none" id="curve_1" stroke="#000000" stroke-linecap="round" stroke-linejoin="round" stroke-width="4.5202772558273825"/>
  <path d="M 41.19498497313246, 42.49105035670852 Q 26.455269259588682, 46.06717902054212, 16.798335282963127, 66.14082392011034 " fill="none" id="curve_1" stroke="#000000" stroke-linecap="round" stroke-linejoin="round" stroke-width="4.674151262673119"/>
  <path d="M 16.798335282963127, 66.14082392011034 Q 16.789055987794075, 69.5569870003558, 16.694381042924892, 70.12914503167586 " fill="none" id="curve_1" stroke="#000000" stroke-linecap="round" stroke-linejoin="round" stroke-width="3.046900462023016"/>
  <path d="M 90.85863474685792, 51.36036281425224 Q 90.11296159042489, 53.83811856420817, 89.72504855044274, 66.60648888711583 " fill="none" id="curve_4" stroke="#000000" stroke-linecap="round" stroke-linejoin="round" stroke-width="1.9410988759720145"/>
  <path d="M 89.72504855044274, 66.60648888711583 Q 89.63066968371021, 86.51695829380954, 89.14429837294608, 101.33183943859612 " fill="none" id="curve_4" stroke="#000000" stroke-linecap="round" stroke-linejoin="round" stroke-width="1.5480308327041352"/>
  <path d="M 89.14429837294608, 101.33183943859612 Q 89.22182940270791, 107.79641238792537, 89.41177509911644, 137.08717544654843 " fill="none" id="curve_4" stroke="#000000" stroke-linecap="round" stroke-linejoin="round" stroke-width="2.4402219288121003"/>
  <path d="M 89.41177509911644, 137.08717544654843 Q 89.33901477199115, 138.0793121593038, 89.09251145319408, 138.6690346227271 " fill="none" id="curve_4" stroke="#000000" stroke-linecap="round" stroke-linejoin="round" stroke-width="2.4255120396375647"/>
  <path d="M 54.196795467202264, 107.97973146415123 Q 45.31399833390937, 109.24916133871804, 34.09914690066691, 111.88323956336224 " fill="none" id="curve_6" stroke="#000000" stroke-linecap="round" stroke-linejoin="round" stroke-width="2.66391532131512"/>
  <path d="M 23.352053086979343, 96.00676908737232 Q 22.837200594007395, 99.0597906093948, 22.18868337857846, 102.86834598564927 " fill="none" id="curve_7" stroke="#000000" stroke-linecap="round" stroke-linejoin="round" stroke-width="2.9562937020855253"/>
  <path d="M 22.18868337857846, 102.86834598564927 Q 25.10216099942391, 107.24730030298689, 29.713002062145605, 111.16475717434352 " fill="none" id="curve_7" stroke="#000000" stroke-linecap="round" stroke-linejoin="round" stroke-width="2.8971557349192842"/>
  <path d="M 38.27261866879671, 70.20130235665452 Q 42.854977720325834, 64.55081307242845, 49.01576566512338, 55.85849416051976 " fill="none" id="curve_9" stroke="#000000" stroke-linecap="round" stroke-linejoin="round" stroke-width="3.381545787515091"/>
  <path d="M 49.01576566512338, 55.85849416051976 Q 47.26124764177243, 47.62271706435443, 39.928123279468764, 42.2279326183108 " fill="none" id="curve_9" stroke="#000000" stroke-linecap="round" stroke-linejoin="round" stroke-width="2.629282109083649"/>
  <path d="M 39.928123279468764, 42.2279326183108 Q 27.605716777269105, 43.722870756370554, 19.79810840148476, 57.13520462977748 " fill="none" id="curve_9" stroke="#000000" stroke-linecap="round" stroke-linejoin="round" stroke-width="3.112527988602864"/>
  <path d="M 42.169915810066726, 64.37261070805263 Q 42.640261784566064, 60.111560280401235, 45.93653931084596, 58.824839479206325 " fill="none" id="curve_10" stroke="#000000" stroke-linecap="round" stroke-linejoin="round" stroke-width="2.861667326020748"/>
  <path d="M 37.71127489237527, 109.83775757530199 Q 37.82528751789409, 110.06835204863543, 37.963372303810715, 110.49753579293747 " fill="none" id="curve_12" stroke="#000000" stroke-linecap="round" stroke-linejoin="round" stroke-width="4.093811618856256"/>
  <path d="M 37.963372303810715, 110.49753579293747 Q 43.459073665242606, 109.93146377273905, 51.15701274737898, 109.20241885851597 " fill="none" id="curve_12" stroke="#000000" stroke-linecap="round" stroke-linejoin="round" stroke-width="2.8589373309393857"/>
  <path d="M 37.36344370115619, 41.76327756279029 Q 38.7903625514975, 42.09088783258257, 42.12189644025411, 42.51910996138661 " fill="none" id="curve_14" stroke="#000000" stroke-linecap="round" stroke-linejoin="round" stroke-width="2.6703248340217125"/>
  <path d="M 89.70982742582942, 48.26179681410854 Q 89.73371681359485, 44.018800753134556, 89.75634248414927, 28.72737059886683 " fill="none" id="curve_16" stroke="#000000" stroke-linecap="round" stroke-linejoin="round" stroke-width="1.615444090508472"/>
  <path d="M 89.75634248414927, 28.72737059886683 Q 89.72961693728207, 14.38413723827512, 89.56390693213008, 1.1226520193364848 " fill="none" id="curve_16" stroke="#000000" stroke-linecap="round" stroke-linejoin="round" stroke-width="1.6481718452899499"/>
  <path d="M 89.56390693213008, 1.1226520193364848 Q 89.01963009902934, 1.630099716725915, 88.34973825227871, 2.3581402322585268 " fill="none" id="curve_16" stroke="#000000" stroke-linecap="round" stroke-linejoin="round" stroke-width="3.0031305577369105"/>
  <path d="M 36.95193594055364, 113.25748737579336 Q 34.992031419279314, 113.27625774533752, 33.25425260620305, 113.33652024394026 " fill="none" id="curve_23" stroke="#000000" stroke-linecap="round" stroke-linejoin="round" stroke-width="1.5095107526664275"/>
  <path d="M 37.6879190683327, 72.07370104128708 Q 33.488172649572086, 81.64349911722407, 24.55633545984421, 96.80610716501047 " fill="none" id="curve_28" stroke="#000000" stroke-linecap="round" stroke-linejoin="round" stroke-width="2.28404314175539"/>
  <path d="M 26.37809680569834, 92.0632335361131 Q 31.78399027431475, 87.96480705072798, 36.2170871375486, 74.52047665050354 " fill="none" id="curve_31" stroke="#000000" stroke-linecap="round" stroke-linejoin="round" stroke-width="2.763339428491313"/>
  <path d="M 35.95578794115159, 76.41857148642063 Q 32.67899967589216, 85.0083525134794, 24.553690361340518, 94.52512149273937 " fill="none" id="curve_48" stroke="#000000" stroke-linecap="round" stroke-linejoin="round" stroke-width="2.637812769721601"/>
</svg>
