<?xml version="1.0" ?>
<svg height="140" width="140" xmlns="http://www.w3.org/2000/svg">
  <path d="M 81.546875, 66.73294639587402 Q 82.05556228168095, 65.8526971931279, 83.55940346904107, 65.2597521965946 " fill="none" id="curve_1" stroke="#000000" stroke-linecap="round" stroke-linejoin="round" stroke-width="4.015948494011409"/>
  <path d="M 83.55940346904107, 65.2597521965946 Q 78.13469501138837, 65.77464665088651, 63.35631584388433, 66.28829745015165 " fill="none" id="curve_1" stroke="#000000" stroke-linecap="round" stroke-linejoin="round" stroke-width="6.91781204199834"/>
  <path d="M 63.35631584388433, 66.28829745015165 Q 55.1455850244241, 66.1633246778119, 53.74225508360037, 63.31850577561169 " fill="none" id="curve_1" stroke="#000000" stroke-linecap="round" stroke-linejoin="round" stroke-width="7.9810478477714675"/>
  <path d="M 53.74225508360037, 63.31850577561169 Q 50.10246822485073, 72.98147300545611, 39.208084926951, 95.30896304637584 " fill="none" id="curve_1" stroke="#000000" stroke-linecap="round" stroke-linejoin="round" stroke-width="5.414962828932184"/>
  <path d="M 39.208084926951, 95.30896304637584 Q 38.94395985647655, 100.93547184452403, 37.12025202659656, 102.09882385524187 " fill="none" id="curve_1" stroke="#000000" stroke-linecap="round" stroke-linejoin="round" stroke-width="6.772522144965049"/>
  <path d="M 45.84542464231471, 63.009787112736724 Q 55.440600848639676, 62.92808059140414, 56.766634958648844, 59.18696406855021 " fill="none" id="curve_2" stroke="#000000" stroke-linecap="round" stroke-linejoin="round" stroke-width="4.7504681320352224"/>
  <path d="M 56.766634958648844, 59.18696406855021 Q 64.03808421160697, 51.995076272479814, 70.23532884238236, 31.475125051323303 " fill="none" id="curve_2" stroke="#000000" stroke-linecap="round" stroke-linejoin="round" stroke-width="6.251705529703127"/>
  <path d="M 70.23532884238236, 31.475125051323303 Q 63.00517439049815, 28.189899166061387, 32.83026514331642, 23.380111422052686 " fill="none" id="curve_2" stroke="#000000" stroke-linecap="round" stroke-linejoin="round" stroke-width="6.404426549131669"/>
  <path d="M 32.83026514331642, 23.380111422052686 Q 28.01810704179883, 21.817537080234477, 23.227825302580722, 19.41336090585191 " fill="none" id="curve_2" stroke="#000000" stroke-linecap="round" stroke-linejoin="round" stroke-width="5.478285285843825"/>
  <path d="M 41.074693725230134, 59.69911159991524 Q 41.25124345800268, 61.63417101223214, 43.361119387943184, 61.96626553086128 " fill="none" id="curve_3" stroke="#000000" stroke-linecap="round" stroke-linejoin="round" stroke-width="7.994986092336365"/>
  <path d="M 66.84937800684317, 36.082952933261325 Q 62.22324123266397, 47.32716339256088, 55.119339239415275, 62.97953494818336 " fill="none" id="curve_4" stroke="#000000" stroke-linecap="round" stroke-linejoin="round" stroke-width="3.922973330486326"/>
  <path d="M 40.46994017554556, 85.31904188104873 Q 44.96930020096586, 81.81271173275896, 48.45459161422449, 72.9248020488836 " fill="none" id="curve_5" stroke="#000000" stroke-linecap="round" stroke-linejoin="round" stroke-width="2.882900367972579"/>
  <path d="M 39.51382239714465, 60.976276501990746 Q 39.371958574348625, 61.037084301784375, 39.240862950142514, 61.15130173520118 " fill="none" id="curve_6" stroke="#000000" stroke-linecap="round" stroke-linejoin="round" stroke-width="4.664778971136958"/>
  <path d="M 67.32749777211475, 41.95626229460744 Q 70.12932002770235, 41.53571794816341, 70.43325326676519, 33.03185993944854 " fill="none" id="curve_9" stroke="#000000" stroke-linecap="round" stroke-linejoin="round" stroke-width="3.0673021929420003"/>
  <path d="M 70.43325326676519, 33.03185993944854 Q 70.29071537398244, 27.799642258080638, 65.26304014550838, 27.111373483521785 " fill="none" id="curve_9" stroke="#000000" stroke-linecap="round" stroke-linejoin="round" stroke-width="2.8859429247023973"/>
  <path d="M 59.62068644672656, 58.08488749244016 Q 59.49996531871406, 62.933448005569254, 58.66943843879606, 64.11857221507303 " fill="none" id="curve_10" stroke="#000000" stroke-linecap="round" stroke-linejoin="round" stroke-width="3.7307553080735287"/>
  <path d="M 40.90633031207473, 94.68751322201545 Q 39.309745060210666, 97.50003338525205, 36.5945896339458, 99.44717302944483 " fill="none" id="curve_11" stroke="#000000" stroke-linecap="round" stroke-linejoin="round" stroke-width="7.076638364668824"/>
  <path d="M 40.151992892037896, 99.63600144441648 Q 40.88832952989428, 92.3804461636717, 42.52470070758615, 85.48857383624981 " fill="none" id="curve_18" stroke="#000000" stroke-linecap="round" stroke-linejoin="round" stroke-width="4.0645945397256265"/>
  <path d="M 24.958836261460345, 19.34228317584258 Q 33.918310156592405, 20.648171111888928, 39.5224693206629, 24.523278242676362 " fill="none" id="curve_22" stroke="#000000" stroke-linecap="round" stroke-linejoin="round" stroke-width="2.3911166110440485"/>
  <path d="M 90.0334311116656, 1.0803948490074344 Q 89.99277242365736, 1.6193654170671061, 89.8520835467046, 2.222441577508244 " fill="none" id="curve_31" stroke="#000000" stroke-linecap="round" stroke-linejoin="round" stroke-width="1.5685638410875336"/>
  <path d="M 64.16785780157588, 27.462985192901783 Q 61.57729656563419, 26.221283588506967, 51.14363766889093, 25.169342295818478 " fill="none" id="curve_32" stroke="#000000" stroke-linecap="round" stroke-linejoin="round" stroke-width="2.7942110207206667"/>
  <path d="M 39.82289955290857, 93.74243064647226 Q 40.03506202656583, 92.38438732278699, 40.281580097354755, 90.59012386981165 " fill="none" id="curve_47" stroke="#000000" stroke-linecap="round" stroke-linejoin="round" stroke-width="6.450266918704673"/>
  <path d="M 48.84511022582997, 71.05647564725797 Q 45.01158693983636, 76.29296400886065, 40.643701613088, 88.49503758799086 " fill="none" id="curve_63" stroke="#000000" stroke-linecap="round" stroke-linejoin="round" stroke-width="2.847946530811875"/>
  <path d="M 42.558767828883155, 93.99527747738138 Q 42.24685563098123, 93.35862999274713, 41.73381289269905, 92.28613183710206 " fill="none" id="curve_64" stroke="#000000" stroke-linecap="round" stroke-linejoin="round" stroke-width="3.923754739965897"/>
  <path d="M 59.94076470191672, 54.34540200938481 Q 62.13792619128885, 53.12373778987079, 64.38367839468317, 50.92455130488459 " fill="none" id="curve_65" stroke="#000000" stroke-linecap="round" stroke-linejoin="round" stroke-width="2.8597655066913465"/>
  <path d="M 21.461498517273096, 18.304060457683228 Q 21.1308833756229, 18.57892423418509, 20.601041010480728, 18.961699425501273 " fill="none" id="curve_70" stroke="#000000" stroke-linecap="round" stroke-linejoin="round" stroke-width="2.768683631776191"/>
  <path d="M 42.649778889221466, 27.634596159074533 Q 43.13687580877783, 27.177196898056206, 44.9187933780674, 26.68455647132147 " fill="none" id="curve_98" stroke="#000000" stroke-linecap="round" stroke-linejoin="round" stroke-width="2.0612949891296672"/>
  <path d="M 53.59935171364837, 60.79230816478125 Q 54.525170218796575, 55.866722650973756, 61.67430914290769, 54.60725166825451 " fill="none" id="curve_114" stroke="#000000" stroke-linecap="round" stroke-linejoin="round" stroke-width="3.9150402528145136"/>
  <path d="M 47.31464733320024, 73.1052824209122 Q 47.48120825965053, 72.59666423668465, 47.876850849072135, 71.9546492888624 " fill="none" id="curve_155" stroke="#000000" stroke-linecap="round" stroke-linejoin="round" stroke-width="3.385776352699892"/>
</svg>
