<?xml version="1.0" ?>
<svg height="140" width="140" xmlns="http://www.w3.org/2000/svg">
  <path d="M 60.98810005187988, 73.10202980041504 Q 60.44530002704798, 73.3258858655347, 58.03629915651561, 73.74224291560445 " fill="none" id="curve_1" stroke="#000000" stroke-linecap="round" stroke-linejoin="round" stroke-width="5.752830531946632"/>
  <path d="M 58.03629915651561, 73.74224291560445 Q 56.46357892244127, 83.19590606823583, 41.82066997942978, 97.59690069205865 " fill="none" id="curve_1" stroke="#000000" stroke-linecap="round" stroke-linejoin="round" stroke-width="5.120888438413607"/>
  <path d="M 41.82066997942978, 97.59690069205865 Q 38.268940056298376, 104.15677033477127, 27.98324767651058, 126.3188334054853 " fill="none" id="curve_1" stroke="#000000" stroke-linecap="round" stroke-linejoin="round" stroke-width="5.336175231085356"/>
  <path d="M 24.062989329997365, 98.36359766284576 Q 33.20620984885796, 100.60287579109502, 43.75313406242334, 102.87223512248801 " fill="none" id="curve_2" stroke="#000000" stroke-linecap="round" stroke-linejoin="round" stroke-width="4.923190000145588"/>
  <path d="M 43.75313406242334, 102.87223512248801 Q 65.70371903746218, 102.21925067615638, 70.11422071332368, 96.90818483090241 " fill="none" id="curve_2" stroke="#000000" stroke-linecap="round" stroke-linejoin="round" stroke-width="3.4207231325609224"/>
  <path d="M 58.667423879109236, 73.29806127942665 Q 56.76087917506235, 74.24525910790085, 29.327911380927365, 74.50414942002375 " fill="none" id="curve_3" stroke="#000000" stroke-linecap="round" stroke-linejoin="round" stroke-width="4.394328738033549"/>
  <path d="M 29.327911380927365, 74.50414942002375 Q 23.56860181127258, 72.84599566801589, 12.130681609465366, 71.29969553257743 " fill="none" id="curve_3" stroke="#000000" stroke-linecap="round" stroke-linejoin="round" stroke-width="4.7346806924616605"/>
  <path d="M 25.623392915809603, 95.58549265531147 Q 31.373640700372103, 99.71196934100996, 37.14844820788281, 103.89828627139516 " fill="none" id="curve_4" stroke="#000000" stroke-linecap="round" stroke-linejoin="round" stroke-width="2.825894407003907"/>
  <path d="M 26.47617116444294, 127.23808285394759 Q 27.026187939509462, 127.12068294428305, 27.399081763901446, 126.8642832703403 " fill="none" id="curve_5" stroke="#000000" stroke-linecap="round" stroke-linejoin="round" stroke-width="5.578319897711245"/>
  <path d="M 27.399081763901446, 126.8642832703403 Q 31.464006488095073, 118.01988294206586, 36.3760414881007, 103.56978163304976 " fill="none" id="curve_5" stroke="#000000" stroke-linecap="round" stroke-linejoin="round" stroke-width="3.7839872747791476"/>
  <path d="M 58.41160237771048, 78.4218993965395 Q 60.81829955081151, 77.39683048170834, 61.57783990118656, 72.76309499836012 " fill="none" id="curve_6" stroke="#000000" stroke-linecap="round" stroke-linejoin="round" stroke-width="4.680671024157233"/>
  <path d="M 61.57783990118656, 72.76309499836012 Q 60.35131142380892, 72.30893366277961, 56.058558759428955, 72.03532428928905 " fill="none" id="curve_6" stroke="#000000" stroke-linecap="round" stroke-linejoin="round" stroke-width="3.339371428302231"/>
  <path d="M 48.68520159145705, 101.81761112540974 Q 51.58646070177991, 101.8370775631945, 55.367151376997164, 101.87157775944101 " fill="none" id="curve_8" stroke="#000000" stroke-linecap="round" stroke-linejoin="round" stroke-width="2.9225510326392916"/>
  <path d="M 55.50044369024687, 80.87132620745484 Q 52.421948261668085, 85.01401169505166, 46.142438954897905, 90.32672534403765 " fill="none" id="curve_9" stroke="#000000" stroke-linecap="round" stroke-linejoin="round" stroke-width="3.317357320052029"/>
  <path d="M 54.27594847044871, 101.034093006837 Q 47.770059909172105, 101.26249036485524, 43.8454354860513, 102.46321655381558 " fill="none" id="curve_12" stroke="#000000" stroke-linecap="round" stroke-linejoin="round" stroke-width="2.6785567665347205"/>
  <path d="M 27.790130413468656, 72.99207059514661 Q 22.307421817632115, 72.34952914483499, 13.023541986328677, 71.45575568633187 " fill="none" id="curve_14" stroke="#000000" stroke-linecap="round" stroke-linejoin="round" stroke-width="2.904953830871202"/>
  <path d="M 13.023541986328677, 71.45575568633187 Q 12.494909469828468, 71.6690709496623, 11.573359247405913, 71.97645535436396 " fill="none" id="curve_14" stroke="#000000" stroke-linecap="round" stroke-linejoin="round" stroke-width="3.077333559996394"/>
  <path d="M 54.47134062956376, 83.12093690495101 Q 53.950587912963115, 82.64676163025763, 53.18123456651179, 81.78858906948545 " fill="none" id="curve_34" stroke="#000000" stroke-linecap="round" stroke-linejoin="round" stroke-width="4.367797763933457"/>
  <path d="M 21.119804134159153, 73.7951111852706 Q 20.512099829951588, 73.84323663017375, 19.826626585091308, 73.93020158187551 " fill="none" id="curve_49" stroke="#000000" stroke-linecap="round" stroke-linejoin="round" stroke-width="3.192633934731595"/>
  <path d="M 33.67670977694941, 117.16452952264802 Q 33.226857332494234, 120.55516911620954, 30.807080666584167, 121.88634161029374 " fill="none" id="curve_56" stroke="#000000" stroke-linecap="round" stroke-linejoin="round" stroke-width="3.279683135206752"/>
  <path d="M 43.59458710866181, 91.92441422663524 Q 43.346463346297725, 92.09266597275655, 43.15729480430762, 93.03712115568973 " fill="none" id="curve_71" stroke="#000000" stroke-linecap="round" stroke-linejoin="round" stroke-width="2.620464459930537"/>
  <path d="M 51.556376865170904, 73.96072901354263 Q 50.541325277150094, 74.38007025721849, 46.542620180386926, 75.00797055478465 " fill="none" id="curve_82" stroke="#000000" stroke-linecap="round" stroke-linejoin="round" stroke-width="2.72478031751475"/>
  <path d="M 51.71283804747507, 72.04779773642557 Q 55.67357234433215, 73.38217188110983, 58.236488067844085, 77.52774061916492 " fill="none" id="curve_112" stroke="#000000" stroke-linecap="round" stroke-linejoin="round" stroke-width="1.9028970855879248"/>
  <path d="M 33.350906885912146, 98.28570747747924 Q 33.112567551112754, 98.30471152775516, 32.72000243751532, 98.32913829801888 " fill="none" id="curve_172" stroke="#000000" stroke-linecap="round" stroke-linejoin="round" stroke-width="3.183958726958824"/>
</svg>
