<?xml version="1.0" ?>
<svg height="140" width="140" xmlns="http://www.w3.org/2000/svg">
  <path d="M 32.058963775634766, 110.68525886535645 Q 32.63617186415632, 104.06954892722354, 36.67013384555776, 99.01053671181218 " fill="none" id="curve_1" stroke="#000000" stroke-linecap="round" stroke-linejoin="round" stroke-width="6.109953905652137"/>
  <path d="M 36.67013384555776, 99.01053671181218 Q 39.149139564885935, 93.03934200318199, 42.88037458710545, 84.81526671909461 " fill="none" id="curve_1" stroke="#000000" stroke-linecap="round" stroke-linejoin="round" stroke-width="5.431505951302514"/>
  <path d="M 42.88037458710545, 84.81526671909461 Q 44.578533089677734, 73.53706656701223, 52.675770553215955, 58.72671082371215 " fill="none" id="curve_1" stroke="#000000" stroke-linecap="round" stroke-linejoin="round" stroke-width="5.297832138258702"/>
  <path d="M 52.675770553215955, 58.72671082371215 Q 55.88657595569167, 50.48273845590552, 62.28075105984928, 29.901390659630565 " fill="none" id="curve_1" stroke="#000000" stroke-linecap="round" stroke-linejoin="round" stroke-width="5.642902782037508"/>
  <path d="M 62.28075105984928, 29.901390659630565 Q 62.194714458237186, 15.525362298168451, 60.860455571395065, 13.40284600386622 " fill="none" id="curve_1" stroke="#000000" stroke-linecap="round" stroke-linejoin="round" stroke-width="5.06217004138516"/>
  <path d="M 60.860455571395065, 13.40284600386622 Q 53.45994871134122, 8.853259775399575, 29.682153612314572, 4.4285841212678285 " fill="none" id="curve_1" stroke="#000000" stroke-linecap="round" stroke-linejoin="round" stroke-width="5.575114160985609"/>
  <path d="M 29.682153612314572, 4.4285841212678285 Q 29.618885626679475, 6.840264043343252, 29.564376947462247, 11.037756120777882 " fill="none" id="curve_1" stroke="#000000" stroke-linecap="round" stroke-linejoin="round" stroke-width="5.405981153424455"/>
  <path d="M 29.564376947462247, 11.037756120777882 Q 28.795013359489744, 7.705691193642499, 27.28790963477143, 5.1174909347986866 " fill="none" id="curve_1" stroke="#000000" stroke-linecap="round" stroke-linejoin="round" stroke-width="4.312679019950538"/>
  <path d="M 61.83851769820508, 11.010269355094424 Q 57.67200605078466, 8.796037812829773, 41.702712133720766, 7.053710566884446 " fill="none" id="curve_2" stroke="#000000" stroke-linecap="round" stroke-linejoin="round" stroke-width="3.056960035298863"/>
  <path d="M 41.702712133720766, 7.053710566884446 Q 41.08616282998389, 7.0520242216455715, 38.48233880027854, 7.050594538247036 " fill="none" id="curve_2" stroke="#000000" stroke-linecap="round" stroke-linejoin="round" stroke-width="3.6567849204127554"/>
  <path d="M 15.576927516864124, 78.19345157890291 Q 21.267418589655946, 81.58113786142671, 41.44048729086893, 85.13616552138261 " fill="none" id="curve_5" stroke="#000000" stroke-linecap="round" stroke-linejoin="round" stroke-width="5.703068387991195"/>
  <path d="M 41.44048729086893, 85.13616552138261 Q 49.44815828515017, 87.71079951803787, 68.54488141195225, 90.17099781457263 " fill="none" id="curve_5" stroke="#000000" stroke-linecap="round" stroke-linejoin="round" stroke-width="4.599216747270112"/>
  <path d="M 68.54488141195225, 90.17099781457263 Q 72.92708779572843, 90.27651568365049, 76.55475272308948, 90.45969154493731 " fill="none" id="curve_5" stroke="#000000" stroke-linecap="round" stroke-linejoin="round" stroke-width="2.5965829858670633"/>
  <path d="M 32.32999745297205, 108.36543972479168 Q 29.55381177564777, 118.23789085464237, 25.668310470318524, 127.70495852080813 " fill="none" id="curve_7" stroke="#000000" stroke-linecap="round" stroke-linejoin="round" stroke-width="5.244984918405632"/>
  <path d="M 25.668310470318524, 127.70495852080813 Q 27.631034588497442, 116.66420770173784, 33.38178590837129, 108.7808859522074 " fill="none" id="curve_7" stroke="#000000" stroke-linecap="round" stroke-linejoin="round" stroke-width="4.110101731975533"/>
  <path d="M 19.514508966631723, 83.0359165414474 Q 17.48264812829701, 80.85265624049651, 14.47099858208126, 78.51348582014589 " fill="none" id="curve_8" stroke="#000000" stroke-linecap="round" stroke-linejoin="round" stroke-width="5.86912311688578"/>
  <path d="M 14.47099858208126, 78.51348582014589 Q 24.981263061108635, 80.85121341477934, 32.10227577589182, 85.62076180427088 " fill="none" id="curve_8" stroke="#000000" stroke-linecap="round" stroke-linejoin="round" stroke-width="3.220140853091551"/>
  <path d="M 35.53069436076631, 97.12479867896052 Q 33.42174535632368, 104.13832925842048, 31.637019677605497, 114.8519761444065 " fill="none" id="curve_9" stroke="#000000" stroke-linecap="round" stroke-linejoin="round" stroke-width="3.581178872921519"/>
  <path d="M 28.84291606559921, 84.52469719420552 Q 25.434548839149098, 79.95623857180273, 15.405652548866193, 76.05008998528315 " fill="none" id="curve_10" stroke="#000000" stroke-linecap="round" stroke-linejoin="round" stroke-width="3.7882017239630676"/>
  <path d="M 35.02206074622349, 85.9644170954651 Q 35.70828958475865, 85.69476984477005, 36.48572954283823, 84.9857889701116 " fill="none" id="curve_11" stroke="#000000" stroke-linecap="round" stroke-linejoin="round" stroke-width="3.2053511760497746"/>
  <path d="M 51.206781270513524, 65.25023009893297 Q 52.7814725357041, 51.407304888476794, 59.184675238887706, 40.69129743355117 " fill="none" id="curve_12" stroke="#000000" stroke-linecap="round" stroke-linejoin="round" stroke-width="3.3045176502511815"/>
  <path d="M 59.647978728568496, 31.36977848340998 Q 60.43614508592315, 30.195799084302685, 60.87811768268283, 25.325802022333626 " fill="none" id="curve_14" stroke="#000000" stroke-linecap="round" stroke-linejoin="round" stroke-width="3.363096315610335"/>
  <path d="M 43.25820804229812, 6.616305986998025 Q 43.218185443368135, 7.0906618541629065, 43.0777706784627, 7.560343677980006 " fill="none" id="curve_15" stroke="#000000" stroke-linecap="round" stroke-linejoin="round" stroke-width="3.7164508173385995"/>
  <path d="M 33.104376354077544, 4.4363974926172025 Q 41.085623953141614, 6.544852420782954, 54.09942686159707, 9.085708488839987 " fill="none" id="curve_18" stroke="#000000" stroke-linecap="round" stroke-linejoin="round" stroke-width="2.823273053135724"/>
  <path d="M 54.09942686159707, 9.085708488839987 Q 40.252339216703355, 7.878650171075462, 27.34416313212508, 4.337253999947066 " fill="none" id="curve_18" stroke="#000000" stroke-linecap="round" stroke-linejoin="round" stroke-width="2.6652552018889453"/>
  <path d="M 48.63780084966431, 8.855920061252746 Q 45.22580156304155, 7.76044077938511, 36.94451986220086, 6.318549808774259 " fill="none" id="curve_21" stroke="#000000" stroke-linecap="round" stroke-linejoin="round" stroke-width="3.512223480760815"/>
  <path d="M 49.4079458782226, 6.779476418481462 Q 47.52462091156037, 8.273118340232335, 42.449091485850886, 9.251013151617832 " fill="none" id="curve_23" stroke="#000000" stroke-linecap="round" stroke-linejoin="round" stroke-width="2.4255911372733037"/>
  <path d="M 26.910897324864123, 7.9344402731140455 Q 26.494741531693762, 7.677750194213536, 26.342240907219967, 5.987679478758536 " fill="none" id="curve_24" stroke="#000000" stroke-linecap="round" stroke-linejoin="round" stroke-width="3.084367171774888"/>
  <path d="M 32.013910135669825, 106.77997943547618 Q 33.61524137928364, 105.28460598240694, 35.30504649623788, 102.87685549567908 " fill="none" id="curve_33" stroke="#000000" stroke-linecap="round" stroke-linejoin="round" stroke-width="3.5647292314665746"/>
  <path d="M 54.522735595703125, 87.46707606315613 Q 53.17885891180764, 86.34813944301196, 44.73472255714602, 85.54941407554585 " fill="none" id="curve_47" stroke="#000000" stroke-linecap="round" stroke-linejoin="round" stroke-width="2.8949479541850054"/>
  <path d="M 49.14997887783491, 8.987814429226255 Q 48.03207457686606, 7.713453226169597, 44.47224398383262, 6.040068831552686 " fill="none" id="curve_68" stroke="#000000" stroke-linecap="round" stroke-linejoin="round" stroke-width="2.5589695544197295"/>
  <path d="M 40.35301578900544, 82.948318194703 Q 40.47094039873241, 82.83916830572058, 40.97494591612579, 82.69918848916144 " fill="none" id="curve_83" stroke="#000000" stroke-linecap="round" stroke-linejoin="round" stroke-width="3.086687942709097"/>
  <path d="M 49.385058802393985, 64.91691387722761 Q 52.080308647206984, 55.60967262163649, 57.92135750994527, 42.02946334731347 " fill="none" id="curve_85" stroke="#000000" stroke-linecap="round" stroke-linejoin="round" stroke-width="2.6000875177371743"/>
  <path d="M 45.97728068158189, 87.81672249176219 Q 42.22491489775584, 86.54549564791085, 37.18649898932211, 83.85275059905287 " fill="none" id="curve_100" stroke="#000000" stroke-linecap="round" stroke-linejoin="round" stroke-width="2.774218656724292"/>
  <path d="M 52.17579625452606, 8.071175120390642 Q 46.03090065597332, 6.432596212085477, 29.314884786218375, 3.829457201981887 " fill="none" id="curve_109" stroke="#000000" stroke-linecap="round" stroke-linejoin="round" stroke-width="2.1491662722545968"/>
  <path d="M 28.25082780405758, 4.191166849769098 Q 27.65402920420886, 3.810473683595802, 26.47703070221546, 3.276342900294007 " fill="none" id="curve_118" stroke="#000000" stroke-linecap="round" stroke-linejoin="round" stroke-width="2.7905174078096753"/>
  <path d="M 60.68351713375866, 16.252877385188018 Q 60.488205466206026, 17.03629562459181, 60.172026251386185, 18.186872814581427 " fill="none" id="curve_147" stroke="#000000" stroke-linecap="round" stroke-linejoin="round" stroke-width="3.4435421904457537"/>
</svg>
