<?xml version="1.0" ?>
<svg height="140" width="140" xmlns="http://www.w3.org/2000/svg">
  <path d="M 55.41238975524902, 79.62409782409668 Q 58.024542442330514, 78.78144424196545, 59.59470662138142, 73.93297027671872 " fill="none" id="curve_1" stroke="#000000" stroke-linecap="round" stroke-linejoin="round" stroke-width="4.217283584414253"/>
  <path d="M 59.59470662138142, 73.93297027671872 Q 56.87894423243536, 78.86737246274741, 50.54500564767282, 86.51735301976599 " fill="none" id="curve_1" stroke="#000000" stroke-linecap="round" stroke-linejoin="round" stroke-width="4.705388686466429"/>
  <path d="M 50.54500564767282, 86.51735301976599 Q 46.828385658033625, 92.73839274886821, 42.97412424068474, 99.65382015015928 " fill="none" id="curve_1" stroke="#000000" stroke-linecap="round" stroke-linejoin="round" stroke-width="5.180154573796403"/>
  <path d="M 42.97412424068474, 99.65382015015928 Q 41.694242931897534, 101.86925501857658, 41.41061157464192, 114.8947172802406 " fill="none" id="curve_1" stroke="#000000" stroke-linecap="round" stroke-linejoin="round" stroke-width="4.88129001715685"/>
  <path d="M 54.79594136644112, 100.54987003160616 Q 38.751995071414036, 99.98050482919115, 27.069791746877957, 95.63751498766602 " fill="none" id="curve_2" stroke="#000000" stroke-linecap="round" stroke-linejoin="round" stroke-width="4.603935697027809"/>
  <path d="M 29.175062607773384, 68.83080825885783 Q 38.38206894364208, 72.0615836239187, 58.58279715486789, 74.85620851665588 " fill="none" id="curve_3" stroke="#000000" stroke-linecap="round" stroke-linejoin="round" stroke-width="4.9489766754835385"/>
  <path d="M 58.686107871029236, 100.51528866795613 Q 57.52519462482975, 100.63575419060365, 55.64305741539723, 100.76942969595378 " fill="none" id="curve_4" stroke="#000000" stroke-linecap="round" stroke-linejoin="round" stroke-width="3.7106582521567115"/>
  <path d="M 37.47989880403543, 68.72559388784886 Q 35.47908488298531, 68.24559288765802, 30.917194657651073, 67.84120541660798 " fill="none" id="curve_5" stroke="#000000" stroke-linecap="round" stroke-linejoin="round" stroke-width="3.2792217427511754"/>
  <path d="M 43.66371944184068, 116.23950910413433 Q 42.314289476112215, 115.64971052695509, 41.481440874270625, 113.30162293802498 " fill="none" id="curve_7" stroke="#000000" stroke-linecap="round" stroke-linejoin="round" stroke-width="4.295251903308895"/>
  <path d="M 29.674209749395484, 95.90683832246393 Q 31.56420160343066, 96.24839033359797, 33.43373715898541, 96.984423790061 " fill="none" id="curve_8" stroke="#000000" stroke-linecap="round" stroke-linejoin="round" stroke-width="4.704809125284893"/>
  <path d="M 54.38916244877812, 81.02804960357243 Q 51.55105470991741, 84.57516957843421, 47.34938731594756, 88.39737711732899 " fill="none" id="curve_9" stroke="#000000" stroke-linecap="round" stroke-linejoin="round" stroke-width="3.3907601668807787"/>
  <path d="M 29.660816768725606, 95.74057733594888 Q 29.492593039869682, 95.42039431488337, 29.29430019997376, 94.97030259900683 " fill="none" id="curve_10" stroke="#000000" stroke-linecap="round" stroke-linejoin="round" stroke-width="4.565099568673929"/>
  <path d="M 30.744547019149344, 97.46273112872574 Q 30.472220128881883, 97.30367632555252, 29.7848825801063, 97.10471500749267 " fill="none" id="curve_11" stroke="#000000" stroke-linecap="round" stroke-linejoin="round" stroke-width="3.257927755346638"/>
  <path d="M 39.17140162702772, 113.56117932781467 Q 39.19186640545849, 111.46542005587587, 39.226117502335605, 109.15549756564751 " fill="none" id="curve_52" stroke="#000000" stroke-linecap="round" stroke-linejoin="round" stroke-width="2.239629218909308"/>
  <path d="M 34.86408432348928, 96.35683872706781 Q 37.01840250132276, 97.75730289590051, 40.46210333529793, 100.6042424515476 " fill="none" id="curve_53" stroke="#000000" stroke-linecap="round" stroke-linejoin="round" stroke-width="2.7675683971833327"/>
  <path d="M 45.803330544800204, 71.32954969319789 Q 54.743646447795896, 71.76212201658822, 56.80527569914601, 75.73422860902889 " fill="none" id="curve_54" stroke="#000000" stroke-linecap="round" stroke-linejoin="round" stroke-width="2.4362177568512537"/>
  <path d="M 0.33318328857421875, 1.6305465698242188 Q 1.1371090026246176, 1.7874366757805964, 1.6079159591487766, 2.903426354171394 " fill="none" id="curve_68" stroke="#000000" stroke-linecap="round" stroke-linejoin="round" stroke-width="2.178393545129335"/>
  <path d="M 39.56296157836914, 102.18177700042725 Q 42.593762108764395, 101.63564593688852, 47.57832494570289, 100.48407169640396 " fill="none" id="curve_82" stroke="#000000" stroke-linecap="round" stroke-linejoin="round" stroke-width="2.833686191820219"/>
  <path d="M 47.57832494570289, 100.48407169640396 Q 46.15838709163667, 98.78793539402733, 31.600470109307174, 98.41339855694162 " fill="none" id="curve_82" stroke="#000000" stroke-linecap="round" stroke-linejoin="round" stroke-width="3.087030658512456"/>
</svg>
