<?xml version="1.0" ?>
<svg height="140" width="140" xmlns="http://www.w3.org/2000/svg">
  <path d="M 80.11755752563477, 26.348495483398438 Q 79.51633730271331, 30.42094442377862, 77.30149539753089, 35.57972140064635 " fill="none" id="curve_1" stroke="#000000" stroke-linecap="round" stroke-linejoin="round" stroke-width="7.561361379965185"/>
  <path d="M 77.30149539753089, 35.57972140064635 Q 74.67637325505919, 41.63381665813169, 69.05173650232972, 61.57709898692471 " fill="none" id="curve_1" stroke="#000000" stroke-linecap="round" stroke-linejoin="round" stroke-width="5.378773142809212"/>
  <path d="M 69.05173650232972, 61.57709898692471 Q 68.04508459476959, 69.52850548818432, 66.123517233219, 76.03559907589994 " fill="none" id="curve_1" stroke="#000000" stroke-linecap="round" stroke-linejoin="round" stroke-width="5.689218794021926"/>
  <path d="M 66.123517233219, 76.03559907589994 Q 64.35575257901775, 88.35984446103038, 55.028428986770194, 110.26369622913396 " fill="none" id="curve_1" stroke="#000000" stroke-linecap="round" stroke-linejoin="round" stroke-width="5.576248279491025"/>
  <path d="M 55.028428986770194, 110.26369622913396 Q 51.94526023162598, 124.76166247201415, 44.53744162668069, 134.98751107901558 " fill="none" id="curve_1" stroke="#000000" stroke-linecap="round" stroke-linejoin="round" stroke-width="5.275365873630098"/>
  <path d="M 44.53744162668069, 134.98751107901558 Q 48.9584615622917, 127.00992030341061, 53.48193965156301, 111.78436371653893 " fill="none" id="curve_1" stroke="#000000" stroke-linecap="round" stroke-linejoin="round" stroke-width="3.1783747691308744"/>
  <path d="M 72.01817026649753, 75.0712800463546 Q 63.73949435907929, 76.76969798521169, 33.63498268702896, 79.5132729153213 " fill="none" id="curve_2" stroke="#000000" stroke-linecap="round" stroke-linejoin="round" stroke-width="4.465957955664553"/>
  <path d="M 33.63498268702896, 79.5132729153213 Q 21.565152567907134, 79.61625650816205, 20.3785291741831, 81.80792849011989 " fill="none" id="curve_2" stroke="#000000" stroke-linecap="round" stroke-linejoin="round" stroke-width="4.358620121081486"/>
  <path d="M 75.50049346394229, 74.84732730094609 Q 78.24008276618358, 74.91267779654873, 79.99782701922553, 75.07763253336307 " fill="none" id="curve_4" stroke="#000000" stroke-linecap="round" stroke-linejoin="round" stroke-width="3.226777379668752"/>
  <path d="M 56.490111831525404, 100.78570167050378 Q 61.9194411606909, 95.43561462923182, 65.60246212269502, 76.42015042398697 " fill="none" id="curve_6" stroke="#000000" stroke-linecap="round" stroke-linejoin="round" stroke-width="2.8908619486420015"/>
  <path d="M 65.60246212269502, 76.42015042398697 Q 65.22636980654927, 75.59815107131112, 58.4487798768629, 75.44484596151537 " fill="none" id="curve_6" stroke="#000000" stroke-linecap="round" stroke-linejoin="round" stroke-width="3.1828520368319384"/>
  <path d="M 79.94557916863069, 33.04828503151265 Q 81.83564986496492, 31.961292086776115, 82.50571089078036, 26.54636323233758 " fill="none" id="curve_7" stroke="#000000" stroke-linecap="round" stroke-linejoin="round" stroke-width="3.8257574984252547"/>
  <path d="M 82.50571089078036, 26.54636323233758 Q 81.17684665509059, 21.969365114866697, 64.50728224311723, 20.328103270667622 " fill="none" id="curve_7" stroke="#000000" stroke-linecap="round" stroke-linejoin="round" stroke-width="5.019565541226966"/>
  <path d="M 64.50728224311723, 20.328103270667622 Q 61.09088798648041, 19.863026525471636, 43.46150910431909, 19.34881202143917 " fill="none" id="curve_7" stroke="#000000" stroke-linecap="round" stroke-linejoin="round" stroke-width="4.3343495789011826"/>
  <path d="M 43.46150910431909, 19.34881202143917 Q 32.31086617765264, 19.141691797117183, 26.123518529762933, 18.386921019420196 " fill="none" id="curve_7" stroke="#000000" stroke-linecap="round" stroke-linejoin="round" stroke-width="5.862327257668313"/>
  <path d="M 26.123518529762933, 18.386921019420196 Q 22.257800580376422, 17.087484461426918, 14.855021803635095, 16.026115671259568 " fill="none" id="curve_7" stroke="#000000" stroke-linecap="round" stroke-linejoin="round" stroke-width="4.186541332422294"/>
  <path d="M 14.855021803635095, 16.026115671259568 Q 14.859297831638342, 15.96544404833253, 14.862788458504793, 15.838281806201175 " fill="none" id="curve_7" stroke="#000000" stroke-linecap="round" stroke-linejoin="round" stroke-width="3.8404844674593903"/>
  <path d="M 55.98924595712422, 19.834265200000363 Q 56.59664604675404, 19.419235504199357, 57.54900624635022, 18.84671020930176 " fill="none" id="curve_8" stroke="#000000" stroke-linecap="round" stroke-linejoin="round" stroke-width="3.1016811651453673"/>
  <path d="M 80.06255680322914, 23.931058289654253 Q 79.26060149187371, 23.532957374438578, 78.26967106121502, 22.999903399210428 " fill="none" id="curve_9" stroke="#000000" stroke-linecap="round" stroke-linejoin="round" stroke-width="5.682367113618212"/>
  <path d="M 52.26564362420781, 78.76761206306695 Q 50.3234878844243, 78.08271151431492, 34.31120265086398, 77.84538890178645 " fill="none" id="curve_10" stroke="#000000" stroke-linecap="round" stroke-linejoin="round" stroke-width="3.165351638304403"/>
  <path d="M 59.146980321756814, 99.13675222394029 Q 60.72543141484733, 93.52493950752194, 62.6314736227052, 85.1939362023615 " fill="none" id="curve_12" stroke="#000000" stroke-linecap="round" stroke-linejoin="round" stroke-width="3.5902066765104554"/>
  <path d="M 61.03833736340627, 94.4856974899433 Q 61.15780327888307, 90.54442816103987, 61.76966275382197, 86.84065648962155 " fill="none" id="curve_32" stroke="#000000" stroke-linecap="round" stroke-linejoin="round" stroke-width="2.953859007126762"/>
  <path d="M 69.90348337396253, 20.312594414209173 Q 69.61753874647785, 19.686105741105504, 68.4526533616184, 19.308061642143812 " fill="none" id="curve_47" stroke="#000000" stroke-linecap="round" stroke-linejoin="round" stroke-width="3.6230233532493132"/>
  <path d="M 81.96343721789042, 24.07447223334443 Q 80.6898245853685, 23.729514529610114, 77.7491181887707, 23.268651946544868 " fill="none" id="curve_48" stroke="#000000" stroke-linecap="round" stroke-linejoin="round" stroke-width="2.880234269424167"/>
  <path d="M 48.919589634359035, 20.135678304753647 Q 50.10154768106721, 19.30891914958357, 60.44395251850071, 18.973044567816494 " fill="none" id="curve_56" stroke="#000000" stroke-linecap="round" stroke-linejoin="round" stroke-width="2.3710086814581763"/>
  <path d="M 51.46299142601016, 77.96060269062741 Q 50.66395074171941, 78.1565387643905, 48.34715592563619, 78.45065821540167 " fill="none" id="curve_59" stroke="#000000" stroke-linecap="round" stroke-linejoin="round" stroke-width="3.349284373170691"/>
  <path d="M 23.25194596263043, 81.94052935280284 Q 23.005609539268256, 81.23601683380072, 22.58921259947353, 80.16831860355505 " fill="none" id="curve_64" stroke="#000000" stroke-linecap="round" stroke-linejoin="round" stroke-width="3.905963583650188"/>
  <path d="M 52.89415914003912, 78.04668337915692 Q 50.89574668903551, 78.10440190836873, 47.00904775658077, 78.23031272613466 " fill="none" id="curve_75" stroke="#000000" stroke-linecap="round" stroke-linejoin="round" stroke-width="2.8127247889775595"/>
  <path d="M 74.62385846666342, 23.854487915615923 Q 76.9030452871243, 24.46973854764429, 79.96185197903202, 25.651340444366454 " fill="none" id="curve_156" stroke="#000000" stroke-linecap="round" stroke-linejoin="round" stroke-width="2.4234485413451314"/>
  <path d="M 48.853876240376806, 77.78152311822042 Q 53.101447444324634, 77.21891857957246, 62.089207722822486, 76.28354829107988 " fill="none" id="curve_173" stroke="#000000" stroke-linecap="round" stroke-linejoin="round" stroke-width="2.5541955494747306"/>
  <path d="M 61.947773573893706, 91.2086310904424 Q 60.15880876156928, 100.92943609186744, 52.455431245756074, 109.15856583448665 " fill="none" id="curve_175" stroke="#000000" stroke-linecap="round" stroke-linejoin="round" stroke-width="2.8837024695309723"/>
</svg>
