<?xml version="1.0" ?>
<svg height="140" width="140" xmlns="http://www.w3.org/2000/svg">
  <path d="M 57.61984012950256, 81.75773624640212 Q 49.023591704108405, 83.00781212225158, 38.7484253944468, 84.75638531621418 " fill="none" id="curve_2" stroke="#000000" stroke-linecap="round" stroke-linejoin="round" stroke-width="9.00465122505271"/>
  <path d="M 38.7484253944468, 84.75638531621418 Q 39.853080514450944, 87.36084228044828, 40.10550479048329, 103.0784138313304 " fill="none" id="curve_2" stroke="#000000" stroke-linecap="round" stroke-linejoin="round" stroke-width="4.196898206495602"/>
  <path d="M 41.90039752646415, 81.0996755828504 Q 43.22690688612268, 79.0357571258254, 43.58965022872184, 64.81110286844654 " fill="none" id="curve_3" stroke="#000000" stroke-linecap="round" stroke-linejoin="round" stroke-width="6.670651429146323"/>
  <path d="M 33.545156380163974, 86.89612982623191 Q 34.40908381642026, 86.58026207745388, 35.13563795968344, 85.8211701320505 " fill="none" id="curve_4" stroke="#000000" stroke-linecap="round" stroke-linejoin="round" stroke-width="4.170279286298124"/>
  <path d="M 43.17610617812939, 63.806608808942336 Q 42.09110814294965, 63.87323920708648, 40.907572617511335, 63.98606002243974 " fill="none" id="curve_5" stroke="#000000" stroke-linecap="round" stroke-linejoin="round" stroke-width="4.419307895898952"/>
  <path d="M 41.09331000025829, 77.24082127631125 Q 40.278324685957145, 79.25755070134448, 39.367708197360265, 83.27558256640998 " fill="none" id="curve_10" stroke="#000000" stroke-linecap="round" stroke-linejoin="round" stroke-width="3.8399099020119936"/>
  <path d="M 40.334831438255435, 102.52272735954372 Q 40.07866912003663, 97.9369668785001, 39.11085859890456, 95.66048961688693 " fill="none" id="curve_11" stroke="#000000" stroke-linecap="round" stroke-linejoin="round" stroke-width="4.6195850344969065"/>
  <path d="M 43.10359496529844, 86.9565095257974 Q 41.98531647122513, 89.39451497004342, 39.0524176181674, 91.78744132034656 " fill="none" id="curve_26" stroke="#000000" stroke-linecap="round" stroke-linejoin="round" stroke-width="2.5444075091775997"/>
  <path d="M 40.091572457827596, 95.46852603014784 Q 39.37264704474794, 95.37403873662073, 38.41271158215001, 95.25428205051145 " fill="none" id="curve_27" stroke="#000000" stroke-linecap="round" stroke-linejoin="round" stroke-width="4.804406453198604"/>
  <path d="M 43.020073352260326, 95.67691812248019 Q 41.57280628825084, 95.56522989220865, 39.60974707601183, 95.41014081019537 " fill="none" id="curve_56" stroke="#000000" stroke-linecap="round" stroke-linejoin="round" stroke-width="3.5271138433161404"/>
  <path d="M 40.17663814655255, 102.3459335998169 Q 39.26562957520289, 101.70698582269347, 38.26775001972662, 100.85283562174577 " fill="none" id="curve_99" stroke="#000000" stroke-linecap="round" stroke-linejoin="round" stroke-width="4.632778845422233"/>
</svg>
