<?xml version="1.0" ?>
<svg height="140" width="140" xmlns="http://www.w3.org/2000/svg">
  <path d="M 46.928771018981934, 88.77083969116211 Q 50.253242856447045, 84.69462152037238, 56.50618330028601, 75.10949617898768 " fill="none" id="curve_1" stroke="#000000" stroke-linecap="round" stroke-linejoin="round" stroke-width="6.180645282634635"/>
  <path d="M 56.50618330028601, 75.10949617898768 Q 56.45241692770469, 72.18242753523307, 53.190254470402785, 72.01393325295841 " fill="none" id="curve_1" stroke="#000000" stroke-linecap="round" stroke-linejoin="round" stroke-width="4.577636292398351"/>
  <path d="M 53.190254470402785, 72.01393325295841 Q 48.447075481088945, 71.40195478937828, 25.40465507795637, 70.57926424007624 " fill="none" id="curve_1" stroke="#000000" stroke-linecap="round" stroke-linejoin="round" stroke-width="5.454706445098615"/>
  <path d="M 25.40465507795637, 70.57926424007624 Q 20.805984574776172, 71.24568776048241, 18.43582482980549, 72.89414516594627 " fill="none" id="curve_1" stroke="#000000" stroke-linecap="round" stroke-linejoin="round" stroke-width="6.112145550036669"/>
  <path d="M 18.404047653080628, 99.32147489924836 Q 29.047934923348652, 97.97590125494835, 44.19902473917543, 96.46796900868691 " fill="none" id="curve_2" stroke="#000000" stroke-linecap="round" stroke-linejoin="round" stroke-width="4.76667217339817"/>
  <path d="M 44.19902473917543, 96.46796900868691 Q 40.32020803543226, 105.97666860456695, 26.419639542831668, 127.52068764809209 " fill="none" id="curve_2" stroke="#000000" stroke-linecap="round" stroke-linejoin="round" stroke-width="4.331619818264812"/>
  <path d="M 45.41975995100809, 97.2360769095411 Q 46.3829607061359, 90.17043004239807, 51.16101135296843, 85.95572350438901 " fill="none" id="curve_3" stroke="#000000" stroke-linecap="round" stroke-linejoin="round" stroke-width="3.257786793782778"/>
  <path d="M 52.23637081547455, 96.40085510923437 Q 49.74151953252281, 96.23286648569943, 44.373337000986616, 96.08170640951137 " fill="none" id="curve_4" stroke="#000000" stroke-linecap="round" stroke-linejoin="round" stroke-width="4.010318827253697"/>
  <path d="M 28.386788314888427, 127.48860386072684 Q 25.61904472392089, 127.73216426576656, 24.56084894518973, 128.95918670124468 " fill="none" id="curve_5" stroke="#000000" stroke-linecap="round" stroke-linejoin="round" stroke-width="3.2088266330049224"/>
  <path d="M 19.52753240471391, 101.36391963755018 Q 19.54637654356223, 100.80686439056258, 19.5615030348862, 99.7361363767634 " fill="none" id="curve_6" stroke="#000000" stroke-linecap="round" stroke-linejoin="round" stroke-width="6.546661761797115"/>
  <path d="M 52.84659662730404, 82.83213208955054 Q 45.64902756533831, 90.05263155879157, 33.821030855231356, 113.00285291828784 " fill="none" id="curve_7" stroke="#000000" stroke-linecap="round" stroke-linejoin="round" stroke-width="2.899262551508518"/>
  <path d="M 57.681866628138025, 73.59353149820735 Q 57.64181945645166, 72.66773207538442, 57.570270121271996, 71.8543894358912 " fill="none" id="curve_9" stroke="#000000" stroke-linecap="round" stroke-linejoin="round" stroke-width="3.843060978212422"/>
  <path d="M 40.31823775047644, 70.38705259672923 Q 44.01680220367297, 70.4664700500388, 48.23770135462179, 70.5873507834742 " fill="none" id="curve_10" stroke="#000000" stroke-linecap="round" stroke-linejoin="round" stroke-width="2.933910625158257"/>
  <path d="M 48.23770135462179, 70.5873507834742 Q 44.45987271203822, 70.43373524274324, 34.85422219454128, 70.2449300745795 " fill="none" id="curve_10" stroke="#000000" stroke-linecap="round" stroke-linejoin="round" stroke-width="2.31176052778044"/>
  <path d="M 47.12717661938659, 93.6513273318003 Q 48.204621571789005, 85.21217502468761, 52.71828353399343, 80.65045251888354 " fill="none" id="curve_17" stroke="#000000" stroke-linecap="round" stroke-linejoin="round" stroke-width="2.7616831029502644"/>
  <path d="M 19.921732024857643, 98.70363042594164 Q 19.51923562301761, 99.0072837370801, 18.777828403195063, 99.54593289800073 " fill="none" id="curve_23" stroke="#000000" stroke-linecap="round" stroke-linejoin="round" stroke-width="2.8842327696028227"/>
  <path d="M 19.061005713947623, 98.7744296953575 Q 19.161231657532795, 99.05985639332225, 19.36018480638959, 99.63407986454332 " fill="none" id="curve_25" stroke="#000000" stroke-linecap="round" stroke-linejoin="round" stroke-width="2.631631541753301"/>
  <path d="M 28.345202916094678, 72.738700997675 Q 30.84238331544195, 70.94860669159013, 42.718351878439094, 69.36667034149094 " fill="none" id="curve_33" stroke="#000000" stroke-linecap="round" stroke-linejoin="round" stroke-width="2.275910669594962"/>
  <path d="M 18.00621849270642, 98.93405504684162 Q 18.493624171463228, 98.81245296521094, 19.071211721605643, 98.57731603496889 " fill="none" id="curve_35" stroke="#000000" stroke-linecap="round" stroke-linejoin="round" stroke-width="2.6793962600964663"/>
  <path d="M 33.912826411996306, 97.63073753048795 Q 32.52906461084344, 97.48860147518522, 29.543055127012792, 97.2483527770196 " fill="none" id="curve_46" stroke="#000000" stroke-linecap="round" stroke-linejoin="round" stroke-width="2.9177108873925657"/>
  <path d="M 18.473315771341042, 99.15439823253854 Q 18.80039100155482, 99.28480295233122, 19.325129443445224, 99.5434201862456 " fill="none" id="curve_47" stroke="#000000" stroke-linecap="round" stroke-linejoin="round" stroke-width="3.1682249594877976"/>
  <path d="M 18.776867931734248, 98.71025414351709 Q 19.340226589576293, 98.8507119308891, 20.309635029341884, 99.14255771109924 " fill="none" id="curve_51" stroke="#000000" stroke-linecap="round" stroke-linejoin="round" stroke-width="2.9059397804497062"/>
  <path d="M 88.52643656635132, 1.9735580163526265 Q 88.96747746798695, 1.804761398280725, 89.49707157596636, 1.4915569799148232 " fill="none" id="curve_66" stroke="#000000" stroke-linecap="round" stroke-linejoin="round" stroke-width="2.430469644968697"/>
  <path d="M 49.4122364467467, 89.47794897097582 Q 49.18563729561917, 87.54754326085735, 48.54255170833693, 85.39141557067212 " fill="none" id="curve_82" stroke="#000000" stroke-linecap="round" stroke-linejoin="round" stroke-width="3.3146485856516947"/>
  <path d="M 32.40605035116687, 112.92338907934095 Q 32.877255387372195, 114.15909021610908, 34.31508742955119, 115.0780433949067 " fill="none" id="curve_98" stroke="#000000" stroke-linecap="round" stroke-linejoin="round" stroke-width="3.666993074173389"/>
  <path d="M 19.603588407815266, 98.3418679481689 Q 18.73752638229223, 98.75138076744511, 17.610234516212504, 99.41186278915912 " fill="none" id="curve_99" stroke="#000000" stroke-linecap="round" stroke-linejoin="round" stroke-width="3.143671412233198"/>
  <path d="M 17.96664996801413, 70.91361525735334 Q 17.953912264227917, 70.68544482966104, 17.9353855135026, 70.43747017757225 " fill="none" id="curve_103" stroke="#000000" stroke-linecap="round" stroke-linejoin="round" stroke-width="3.6258461373971795"/>
  <path d="M 44.0024911529454, 69.65642994922925 Q 46.15315862638312, 70.36021080779376, 49.77887072266334, 71.66928899226833 " fill="none" id="curve_104" stroke="#000000" stroke-linecap="round" stroke-linejoin="round" stroke-width="1.9542296994250465"/>
  <path d="M 22.10649045142517, 98.27670688866691 Q 20.882538260111467, 98.31968205181207, 19.314334687523132, 98.39990288700771 " fill="none" id="curve_140" stroke="#000000" stroke-linecap="round" stroke-linejoin="round" stroke-width="3.486486019922879"/>
  <path d="M 52.87564445840849, 72.37449475379117 Q 52.88423564911504, 71.20881797268251, 52.906195093558985, 70.10696083317073 " fill="none" id="curve_181" stroke="#000000" stroke-linecap="round" stroke-linejoin="round" stroke-width="3.3091458562638594"/>
</svg>
