<?xml version="1.0" ?>
<svg height="140" width="140" xmlns="http://www.w3.org/2000/svg">
  <path d="M 57.075889587402344, 43.79585266113281 Q 56.368345602142995, 36.82409201987867, 51.086101835251156, 32.68065312279953 " fill="none" id="curve_1" stroke="#000000" stroke-linecap="round" stroke-linejoin="round" stroke-width="5.418187317643487"/>
  <path d="M 51.086101835251156, 32.68065312279953 Q 47.64035650331789, 32.887112793541405, 45.10445014497336, 33.388238831173624 " fill="none" id="curve_1" stroke="#000000" stroke-linecap="round" stroke-linejoin="round" stroke-width="4.485515007574001"/>
  <path d="M 58.80655088897845, 46.329041908340365 Q 57.336599233121, 61.97133803154749, 44.11092585734793, 72.0867924498313 " fill="none" id="curve_2" stroke="#000000" stroke-linecap="round" stroke-linejoin="round" stroke-width="7.498499594577169"/>
  <path d="M 44.11092585734793, 72.0867924498313 Q 40.64397285336911, 83.13265273537915, 21.973319379928867, 100.09917649537367 " fill="none" id="curve_2" stroke="#000000" stroke-linecap="round" stroke-linejoin="round" stroke-width="4.018627621988137"/>
  <path d="M 35.53362812263995, 71.4754760651712 Q 43.953816317461246, 74.06710847009259, 64.69403842489405, 75.47977251002273 " fill="none" id="curve_3" stroke="#000000" stroke-linecap="round" stroke-linejoin="round" stroke-width="4.5498554428273925"/>
  <path d="M 57.682339959606566, 49.89018612726977 Q 56.98951001615661, 40.361224127359286, 53.67295903623533, 36.47187008189106 " fill="none" id="curve_4" stroke="#000000" stroke-linecap="round" stroke-linejoin="round" stroke-width="4.738155165616318"/>
  <path d="M 53.67295903623533, 36.47187008189106 Q 57.375183899710315, 37.97864149266307, 58.386721125341076, 45.29817061448261 " fill="none" id="curve_4" stroke="#000000" stroke-linecap="round" stroke-linejoin="round" stroke-width="3.633607006185223"/>
  <path d="M 33.58137037421941, 72.50165976815815 Q 32.7234431018107, 73.11659794968074, 32.2510758450187, 75.78871849304817 " fill="none" id="curve_5" stroke="#000000" stroke-linecap="round" stroke-linejoin="round" stroke-width="3.0504121451808475"/>
  <path d="M 27.747595647001216, 93.97246461341352 Q 32.41407866048671, 86.30073330238152, 40.47860562156817, 76.25805296572966 " fill="none" id="curve_6" stroke="#000000" stroke-linecap="round" stroke-linejoin="round" stroke-width="4.208956441598114"/>
  <path d="M 40.47860562156817, 76.25805296572966 Q 42.7262074162576, 75.74919821924593, 54.385631481234654, 75.5434115226405 " fill="none" id="curve_6" stroke="#000000" stroke-linecap="round" stroke-linejoin="round" stroke-width="3.1022782229211727"/>
  <path d="M 51.026044221862755, 60.053598522839216 Q 49.114624443813824, 63.834026013078464, 46.0633699365386, 69.48054587913158 " fill="none" id="curve_7" stroke="#000000" stroke-linecap="round" stroke-linejoin="round" stroke-width="2.955654165801902"/>
  <path d="M 32.24738798833252, 92.05964387880934 Q 28.173777197331088, 94.7392860128047, 23.813437394189975, 97.69015084368542 " fill="none" id="curve_8" stroke="#000000" stroke-linecap="round" stroke-linejoin="round" stroke-width="6.033607510326557"/>
  <path d="M 54.29089613392328, 57.13222764762426 Q 56.05791174603424, 56.71246909442339, 56.17422933912593, 42.98689573842549 " fill="none" id="curve_10" stroke="#000000" stroke-linecap="round" stroke-linejoin="round" stroke-width="4.111511054166915"/>
  <path d="M 56.17422933912593, 42.98689573842549 Q 58.570536160548016, 46.157251195454286, 60.172999685176855, 51.66067268123933 " fill="none" id="curve_10" stroke="#000000" stroke-linecap="round" stroke-linejoin="round" stroke-width="3.060095382211843"/>
  <path d="M 56.760585239338184, 43.68636468658843 Q 56.41140768211056, 40.72847736326031, 55.33456873843578, 38.1868150637943 " fill="none" id="curve_14" stroke="#000000" stroke-linecap="round" stroke-linejoin="round" stroke-width="3.993031778270092"/>
  <path d="M 54.42439238114952, 43.37830095004237 Q 55.47669296669677, 41.98615978578345, 56.520084508342116, 38.339159783500435 " fill="none" id="curve_17" stroke="#000000" stroke-linecap="round" stroke-linejoin="round" stroke-width="4.182474249016361"/>
  <path d="M 58.95143585974556, 55.356468954859864 Q 55.9964817267055, 57.79194115038951, 50.558042747449875, 62.09300175811247 " fill="none" id="curve_35" stroke="#000000" stroke-linecap="round" stroke-linejoin="round" stroke-width="2.5265242174408833"/>
  <path d="M 49.503138337975656, 73.50501684959652 Q 44.88312183191978, 72.10617488794409, 36.1750744566737, 70.006533902496 " fill="none" id="curve_39" stroke="#000000" stroke-linecap="round" stroke-linejoin="round" stroke-width="2.8210821338484413"/>
  <path d="M 46.572618906723086, 32.14458845843327 Q 46.819009539698314, 31.622791682649883, 47.26683959159175, 30.942035542657887 " fill="none" id="curve_40" stroke="#000000" stroke-linecap="round" stroke-linejoin="round" stroke-width="3.000834558245124"/>
  <path d="M 25.98256946933664, 96.48358445112041 Q 29.579042971334093, 88.60788966982601, 39.55321141027974, 79.99582035457622 " fill="none" id="curve_47" stroke="#000000" stroke-linecap="round" stroke-linejoin="round" stroke-width="2.555781348764488"/>
  <path d="M 64.3674030865485, 75.61452302744644 Q 65.36951672591566, 75.43373575894196, 66.27931591904826, 74.99767689863455 " fill="none" id="curve_53" stroke="#000000" stroke-linecap="round" stroke-linejoin="round" stroke-width="3.3318038129678147"/>
  <path d="M 52.45658742841982, 36.50672664879531 Q 55.30011364752191, 37.202968773764404, 56.87292748869786, 39.65030716945059 " fill="none" id="curve_70" stroke="#000000" stroke-linecap="round" stroke-linejoin="round" stroke-width="3.2804982852393185"/>
  <path d="M 57.99446433407408, 45.518737706058346 Q 57.643434703362175, 37.82485704414386, 53.43512530248649, 35.915115096751805 " fill="none" id="curve_80" stroke="#000000" stroke-linecap="round" stroke-linejoin="round" stroke-width="3.2032851764700685"/>
  <path d="M 54.562841021202345, 41.09010588292084 Q 54.86485674641507, 38.63853886436739, 55.82425070720079, 36.51547401159775 " fill="none" id="curve_84" stroke="#000000" stroke-linecap="round" stroke-linejoin="round" stroke-width="3.3849435868281006"/>
  <path d="M 52.702361483598175, 58.92675003290509 Q 53.360221805829006, 58.93724141680189, 54.742450602991894, 58.954227859876994 " fill="none" id="curve_140" stroke="#000000" stroke-linecap="round" stroke-linejoin="round" stroke-width="3.6323008540902997"/>
  <path d="M 57.13081796186888, 41.328111326767576 Q 58.32735846497473, 41.70355464157861, 59.29667196093731, 42.76177494735191 " fill="none" id="curve_190" stroke="#000000" stroke-linecap="round" stroke-linejoin="round" stroke-width="3.2115762346115466"/>
</svg>
