<?xml version="1.0" ?>
<svg height="140" width="140" xmlns="http://www.w3.org/2000/svg">
  <path d="M 20.18144989013672, 105.5626106262207 Q 19.492477130998225, 106.18851352337444, 19.10332510570418, 109.30837882284152 " fill="none" id="curve_1" stroke="#000000" stroke-linecap="round" stroke-linejoin="round" stroke-width="5.455955500571008"/>
  <path d="M 19.10332510570418, 109.30837882284152 Q 19.6489824630664, 98.73393410544816, 25.405672741370772, 94.51099236954961 " fill="none" id="curve_1" stroke="#000000" stroke-linecap="round" stroke-linejoin="round" stroke-width="6.153360519154993"/>
  <path d="M 25.405672741370772, 94.51099236954961 Q 28.99389161053111, 86.93122886785508, 37.30021593619804, 74.00625773595219 " fill="none" id="curve_1" stroke="#000000" stroke-linecap="round" stroke-linejoin="round" stroke-width="6.564415326318373"/>
  <path d="M 37.30021593619804, 74.00625773595219 Q 40.963823502681045, 66.15325767978365, 47.11052152771989, 56.703214629026135 " fill="none" id="curve_1" stroke="#000000" stroke-linecap="round" stroke-linejoin="round" stroke-width="6.664907748247568"/>
  <path d="M 47.11052152771989, 56.703214629026135 Q 50.35154153808414, 50.57097062309214, 53.58408432703686, 41.67669054231974 " fill="none" id="curve_1" stroke="#000000" stroke-linecap="round" stroke-linejoin="round" stroke-width="6.168505756375149"/>
  <path d="M 53.58408432703686, 41.67669054231974 Q 53.33273145732125, 28.847444208619336, 44.96249021318219, 27.83104656468722 " fill="none" id="curve_1" stroke="#000000" stroke-linecap="round" stroke-linejoin="round" stroke-width="5.251489476393071"/>
  <path d="M 44.96249021318219, 27.83104656468722 Q 31.00728267592465, 28.963036193365248, 25.12080274030977, 33.072589993261616 " fill="none" id="curve_1" stroke="#000000" stroke-linecap="round" stroke-linejoin="round" stroke-width="4.277708622280108"/>
  <path d="M 18.521841227282337, 62.68947988497313 Q 35.35515604023273, 61.86985564155635, 49.74116216331184, 59.793742145225835 " fill="none" id="curve_2" stroke="#000000" stroke-linecap="round" stroke-linejoin="round" stroke-width="5.47553559370171"/>
  <path d="M 49.74116216331184, 59.793742145225835 Q 57.86153225084913, 57.62856641928515, 73.0341279943311, 56.00921857322342 " fill="none" id="curve_2" stroke="#000000" stroke-linecap="round" stroke-linejoin="round" stroke-width="3.918431308378002"/>
  <path d="M 27.203063059451402, 60.957784769600266 Q 21.27091279576228, 60.95625592600283, 19.010378771459546, 60.948847899728314 " fill="none" id="curve_4" stroke="#000000" stroke-linecap="round" stroke-linejoin="round" stroke-width="3.376712873724921"/>
  <path d="M 30.72156256439051, 61.61896780393972 Q 32.398391434978144, 60.21445970571905, 43.828676791480056, 59.71964912585283 " fill="none" id="curve_6" stroke="#000000" stroke-linecap="round" stroke-linejoin="round" stroke-width="2.7775474599863568"/>
  <path d="M 26.64229000148394, 33.31792831841305 Q 26.43058576254344, 31.807427504037182, 25.771062475576496, 31.010146138845524 " fill="none" id="curve_7" stroke="#000000" stroke-linecap="round" stroke-linejoin="round" stroke-width="4.729156339653334"/>
  <path d="M 50.49928263606038, 29.708685693579305 Q 49.67581162207313, 28.583718421310476, 46.126092318736376, 27.419324620576873 " fill="none" id="curve_11" stroke="#000000" stroke-linecap="round" stroke-linejoin="round" stroke-width="2.3949226967851263"/>
  <path d="M 24.38154589901842, 97.99287155763672 Q 23.964176742253716, 98.7229430159083, 23.00715276583341, 99.45000401492165 " fill="none" id="curve_26" stroke="#000000" stroke-linecap="round" stroke-linejoin="round" stroke-width="4.646418744973408"/>
  <path d="M 48.80296993255615, 30.639625549316406 Q 50.093224009454886, 34.41571584896913, 52.40006188951088, 39.01714081660981 " fill="none" id="curve_40" stroke="#000000" stroke-linecap="round" stroke-linejoin="round" stroke-width="2.5500462063789087"/>
  <path d="M 36.30592629447839, 62.536049034994264 Q 32.51859574203841, 62.41691151146891, 27.27492664480011, 62.208613694366974 " fill="none" id="curve_48" stroke="#000000" stroke-linecap="round" stroke-linejoin="round" stroke-width="3.0759107821130596"/>
  <path d="M 44.94575079201407, 27.07755625221808 Q 43.11114199217034, 27.07989648159991, 39.731371109014404, 27.083458529210258 " fill="none" id="curve_50" stroke="#000000" stroke-linecap="round" stroke-linejoin="round" stroke-width="3.0882732209802213"/>
  <path d="M 47.2546006206253, 50.765325910007505 Q 47.921391567002615, 50.34001648933662, 49.21563974338153, 49.449946091413715 " fill="none" id="curve_104" stroke="#000000" stroke-linecap="round" stroke-linejoin="round" stroke-width="2.914733608394493"/>
  <path d="M 28.919833472333266, 33.25902652466857 Q 28.978634461409687, 33.14265686531404, 29.053202923822933, 32.94406276774533 " fill="none" id="curve_119" stroke="#000000" stroke-linecap="round" stroke-linejoin="round" stroke-width="2.693443618645725"/>
  <path d="M 36.31527521083957, 71.8281763052477 Q 36.384266612192924, 71.74413057394393, 36.470703416918646, 71.54261975778297 " fill="none" id="curve_125" stroke="#000000" stroke-linecap="round" stroke-linejoin="round" stroke-width="2.797332867243271"/>
  <path d="M 27.06908204259298, 88.77045842511687 Q 24.12650237159726, 91.44995949175478, 21.558584417814004, 96.4848176388907 " fill="none" id="curve_153" stroke="#000000" stroke-linecap="round" stroke-linejoin="round" stroke-width="2.8689124105301174"/>
</svg>
