<?xml version="1.0" ?>
<svg height="140" width="140" xmlns="http://www.w3.org/2000/svg">
  <path d="M 58.35316427731391, 65.84887908289579 Q 53.87059612024241, 66.06533419711171, 51.84899352187713, 67.23014290316033 " fill="none" id="curve_2" stroke="#000000" stroke-linecap="round" stroke-linejoin="round" stroke-width="9.941396389035992"/>
  <path d="M 51.84899352187713, 67.23014290316033 Q 51.858968127690304, 77.34931517029696, 51.962285030532286, 80.78446676009983 " fill="none" id="curve_2" stroke="#000000" stroke-linecap="round" stroke-linejoin="round" stroke-width="7.345892574682993"/>
  <path d="M 51.962285030532286, 80.78446676009983 Q 53.17458637633509, 94.1297539833997, 57.82872127892075, 98.4098158834242 " fill="none" id="curve_2" stroke="#000000" stroke-linecap="round" stroke-linejoin="round" stroke-width="5.098582978240885"/>
  <path d="M 63.533319935652166, 65.98311142709872 Q 71.11538550457043, 65.96530101983676, 72.90517715088238, 65.78424614963033 " fill="none" id="curve_3" stroke="#000000" stroke-linecap="round" stroke-linejoin="round" stroke-width="3.876697715746792"/>
  <path d="M 54.85328666971044, 61.61108912511446 Q 54.71374380361255, 59.74895036290317, 54.64906783689582, 52.28493915802489 " fill="none" id="curve_4" stroke="#000000" stroke-linecap="round" stroke-linejoin="round" stroke-width="8.89138359395803"/>
  <path d="M 54.64906783689582, 52.28493915802489 Q 54.3572053760568, 44.38577874129946, 36.88621709110243, 43.87959378682468 " fill="none" id="curve_4" stroke="#000000" stroke-linecap="round" stroke-linejoin="round" stroke-width="6.613440692105311"/>
  <path d="M 36.88621709110243, 43.87959378682468 Q 31.34915649407158, 43.42836873525264, 20.561292385177442, 43.07696991996005 " fill="none" id="curve_4" stroke="#000000" stroke-linecap="round" stroke-linejoin="round" stroke-width="5.48861200454186"/>
  <path d="M 38.84309432258554, 65.77145757172141 Q 40.63684442395965, 66.25051630217517, 49.030870450384555, 66.4539957327393 " fill="none" id="curve_5" stroke="#000000" stroke-linecap="round" stroke-linejoin="round" stroke-width="6.4488268221359295"/>
  <path d="M 49.030870450384555, 66.4539957327393 Q 56.50947415475977, 66.33144660677922, 69.57270967981572, 66.23400229425415 " fill="none" id="curve_5" stroke="#000000" stroke-linecap="round" stroke-linejoin="round" stroke-width="3.124895155270477"/>
  <path d="M 69.57270967981572, 66.23400229425415 Q 72.29763264607546, 65.5221994886762, 74.09097583290182, 64.09473113826937 " fill="none" id="curve_5" stroke="#000000" stroke-linecap="round" stroke-linejoin="round" stroke-width="3.623114034380072"/>
  <path d="M 54.50674805869981, 97.02472331710278 Q 56.511549142545825, 97.12019890354308, 58.45576628309982, 97.31745191310574 " fill="none" id="curve_7" stroke="#000000" stroke-linecap="round" stroke-linejoin="round" stroke-width="4.523068635012827"/>
  <path d="M 33.58087963623302, 43.060036231028334 Q 34.4171047910086, 42.92451349536358, 36.059343404720025, 42.724934034080746 " fill="none" id="curve_9" stroke="#000000" stroke-linecap="round" stroke-linejoin="round" stroke-width="3.9941034166000544"/>
  <path d="M 59.5585811514501, 97.13676971426405 Q 58.38535238390008, 96.92563333029806, 56.9843918893703, 96.49770817640433 " fill="none" id="curve_14" stroke="#000000" stroke-linecap="round" stroke-linejoin="round" stroke-width="4.540193579878577"/>
  <path d="M 38.109844627540845, 42.20446453012851 Q 36.26182718016598, 42.065223508766586, 24.636729775639857, 41.98066155732077 " fill="none" id="curve_15" stroke="#000000" stroke-linecap="round" stroke-linejoin="round" stroke-width="2.3991895058852846"/>
  <path d="M 42.873456470973544, 68.14632602607941 Q 45.90461487874854, 66.22843999975997, 52.15244971476438, 64.23367392652557 " fill="none" id="curve_16" stroke="#000000" stroke-linecap="round" stroke-linejoin="round" stroke-width="3.9831763762038555"/>
  <path d="M 49.89387129377434, 83.05826126111376 Q 50.042752177950774, 83.10044017452924, 50.16618221187753, 83.21011185888939 " fill="none" id="curve_32" stroke="#000000" stroke-linecap="round" stroke-linejoin="round" stroke-width="4.35886658905081"/>
  <path d="M 56.09856605639316, 64.07624247498458 Q 59.42911741115408, 64.44046606888136, 62.38915319202512, 65.27500972310898 " fill="none" id="curve_43" stroke="#000000" stroke-linecap="round" stroke-linejoin="round" stroke-width="2.55318986538474"/>
  <path d="M 59.349477271006904, 95.2318578386039 Q 57.87009267328677, 95.54499924017317, 56.23167135829158, 96.14025578259844 " fill="none" id="curve_71" stroke="#000000" stroke-linecap="round" stroke-linejoin="round" stroke-width="3.078471796531534"/>
  <path d="M 51.17967466460417, 64.49062914112045 Q 51.47940576561406, 61.84228576296581, 53.39650789848133, 60.59661651555005 " fill="none" id="curve_72" stroke="#000000" stroke-linecap="round" stroke-linejoin="round" stroke-width="2.690342868806481"/>
</svg>
