<?xml version="1.0" ?>
<svg height="140" width="140" xmlns="http://www.w3.org/2000/svg">
  <path d="M 29.051752219925902, 43.80684934862467 Q 38.02059039742235, 41.504978006012145, 54.19661014236618, 38.08430688216672 " fill="none" id="curve_2" stroke="#000000" stroke-linecap="round" stroke-linejoin="round" stroke-width="4.4329345683494426"/>
  <path d="M 54.19661014236618, 38.08430688216672 Q 65.90262367705894, 38.336520665068846, 66.91943972261298, 43.00173864434902 " fill="none" id="curve_2" stroke="#000000" stroke-linecap="round" stroke-linejoin="round" stroke-width="5.1151626560801144"/>
  <path d="M 66.91943972261298, 43.00173864434902 Q 65.79888193534228, 54.713775072262486, 64.10986574320727, 64.45757553410007 " fill="none" id="curve_2" stroke="#000000" stroke-linecap="round" stroke-linejoin="round" stroke-width="5.197824304505795"/>
  <path d="M 64.10986574320727, 64.45757553410007 Q 62.578497978394985, 76.48611538563917, 53.043697451968505, 98.87961945682846 " fill="none" id="curve_2" stroke="#000000" stroke-linecap="round" stroke-linejoin="round" stroke-width="4.835355538236661"/>
  <path d="M 53.043697451968505, 98.87961945682846 Q 52.42038556996473, 101.24055743543992, 50.74871538239839, 102.61496992794113 " fill="none" id="curve_2" stroke="#000000" stroke-linecap="round" stroke-linejoin="round" stroke-width="4.867631024823502"/>
  <path d="M 48.595454342096104, 69.9482126922324 Q 55.61438196657951, 65.49257843286489, 73.62254441141584, 62.7577746608264 " fill="none" id="curve_3" stroke="#000000" stroke-linecap="round" stroke-linejoin="round" stroke-width="3.2604913120775882"/>
  <path d="M 60.90116810446604, 72.9961426638601 Q 58.28912948143549, 85.72222792699401, 53.34235901018819, 96.58469921001227 " fill="none" id="curve_4" stroke="#000000" stroke-linecap="round" stroke-linejoin="round" stroke-width="3.2069710871834145"/>
  <path d="M 63.36813234855705, 38.59220029965351 Q 61.0467981944919, 38.49396417638928, 54.29563358590663, 38.37772413805981 " fill="none" id="curve_6" stroke="#000000" stroke-linecap="round" stroke-linejoin="round" stroke-width="2.3098542068834487"/>
  <path d="M 54.29563358590663, 38.37772413805981 Q 42.34132765922649, 39.62479990349582, 33.32506362861599, 43.38884532427819 " fill="none" id="curve_6" stroke="#000000" stroke-linecap="round" stroke-linejoin="round" stroke-width="2.5213125967654673"/>
  <path d="M 64.22720893260828, 36.1823035270225 Q 64.25930073650558, 50.98021320562981, 64.35943303550685, 59.47554910197232 " fill="none" id="curve_21" stroke="#000000" stroke-linecap="round" stroke-linejoin="round" stroke-width="2.140333501560317"/>
  <path d="M 61.87644995497678, 70.82272483739422 Q 63.170376143172795, 69.87044791005493, 64.202026874234, 68.05895984684977 " fill="none" id="curve_22" stroke="#000000" stroke-linecap="round" stroke-linejoin="round" stroke-width="5.194824850635949"/>
  <path d="M 53.786571701258794, 38.19431247797858 Q 42.33129516234726, 39.72679375588182, 31.370697999491743, 43.513243149486144 " fill="none" id="curve_23" stroke="#000000" stroke-linecap="round" stroke-linejoin="round" stroke-width="2.392096159178909"/>
  <path d="M 56.10575648680733, 95.09357522994028 Q 56.9626302567293, 86.42661506625943, 59.68497703241112, 81.2788008752425 " fill="none" id="curve_31" stroke="#000000" stroke-linecap="round" stroke-linejoin="round" stroke-width="3.6419754561437414"/>
  <path d="M 56.65824660648043, 92.76001916923452 Q 57.182068997330035, 85.85992047475288, 59.44442559655465, 83.01004911297167 " fill="none" id="curve_34" stroke="#000000" stroke-linecap="round" stroke-linejoin="round" stroke-width="4.409971782855617"/>
  <path d="M 44.30790868869276, 40.73768007088362 Q 40.22672743290399, 40.69316183338225, 35.76606873639779, 40.5498768284838 " fill="none" id="curve_58" stroke="#000000" stroke-linecap="round" stroke-linejoin="round" stroke-width="2.2570177718242297"/>
  <path d="M 52.33540561807741, 37.75009954989612 Q 48.95180658831872, 38.34466625241893, 43.41871903760486, 39.414540020178364 " fill="none" id="curve_65" stroke="#000000" stroke-linecap="round" stroke-linejoin="round" stroke-width="2.2744776819964647"/>
  <path d="M 56.95241542107925, 92.23604534345051 Q 57.48130605989398, 85.96362050072932, 59.452105890058995, 83.16986450663364 " fill="none" id="curve_83" stroke="#000000" stroke-linecap="round" stroke-linejoin="round" stroke-width="4.490439729703976"/>
  <path d="M 61.99998459010351, 68.56282065268238 Q 61.517913768424386, 70.60061945386904, 60.66387120498328, 72.70862544453412 " fill="none" id="curve_98" stroke="#000000" stroke-linecap="round" stroke-linejoin="round" stroke-width="3.6193151101946257"/>
</svg>
