<?xml version="1.0" ?>
<svg height="140" width="140" xmlns="http://www.w3.org/2000/svg">
  <path d="M 87.38015237501222, 2.2432462276048994 Q 88.70801574764485, 2.769728248804257, 88.81636424064294, 23.101531976113616 " fill="none" id="curve_2" stroke="#000000" stroke-linecap="round" stroke-linejoin="round" stroke-width="3.2517717340354837"/>
  <path d="M 88.81636424064294, 23.101531976113616 Q 88.84891042544812, 29.860495205717584, 88.95512885145303, 54.816840209210355 " fill="none" id="curve_2" stroke="#000000" stroke-linecap="round" stroke-linejoin="round" stroke-width="3.329634118451318"/>
  <path d="M 88.95512885145303, 54.816840209210355 Q 88.92746591760793, 63.25666251452554, 88.78270156209358, 83.349486073476 " fill="none" id="curve_2" stroke="#000000" stroke-linecap="round" stroke-linejoin="round" stroke-width="3.4773440627660177"/>
  <path d="M 88.78270156209358, 83.349486073476 Q 88.789926391402, 90.09806250884587, 88.81565727301667, 109.68145947242868 " fill="none" id="curve_2" stroke="#000000" stroke-linecap="round" stroke-linejoin="round" stroke-width="3.497419839879804"/>
  <path d="M 88.81565727301667, 109.68145947242868 Q 88.81793018889572, 118.40743928977847, 88.82958297947425, 135.4773223252728 " fill="none" id="curve_2" stroke="#000000" stroke-linecap="round" stroke-linejoin="round" stroke-width="3.4676615514647775"/>
  <path d="M 88.82958297947425, 135.4773223252728 Q 88.83811104812551, 138.07697357811196, 88.90782690326539, 138.56922957860883 " fill="none" id="curve_2" stroke="#000000" stroke-linecap="round" stroke-linejoin="round" stroke-width="3.3176398537696152"/>
  <path d="M 88.90782690326539, 138.56922957860883 Q 88.69371626000272, 138.60347542124202, 88.24709095546885, 138.63228763636755 " fill="none" id="curve_2" stroke="#000000" stroke-linecap="round" stroke-linejoin="round" stroke-width="2.269078452101617"/>
  <path d="M 41.58376952926037, 87.12735515286903 Q 38.565678605521136, 89.68084797007148, 31.00800947841236, 100.16320157682931 " fill="none" id="curve_4" stroke="#000000" stroke-linecap="round" stroke-linejoin="round" stroke-width="5.036695454131083"/>
  <path d="M 31.00800947841236, 100.16320157682931 Q 28.08972953421025, 109.28657033820616, 23.564531847052542, 123.79258832662266 " fill="none" id="curve_4" stroke="#000000" stroke-linecap="round" stroke-linejoin="round" stroke-width="4.692062994490428"/>
  <path d="M 43.901799738812, 81.79165599403989 Q 47.59295729185335, 79.24872201741492, 49.02034526882411, 69.54159299355845 " fill="none" id="curve_6" stroke="#000000" stroke-linecap="round" stroke-linejoin="round" stroke-width="5.730591998260849"/>
  <path d="M 49.02034526882411, 69.54159299355845 Q 47.41735330489436, 57.83306962191509, 28.11669935706849, 53.0854715344569 " fill="none" id="curve_6" stroke="#000000" stroke-linecap="round" stroke-linejoin="round" stroke-width="5.72446828011111"/>
  <path d="M 28.11669935706849, 53.0854715344569 Q 25.846300172719072, 52.13769739942703, 4.594671783121186, 51.895113377525476 " fill="none" id="curve_6" stroke="#000000" stroke-linecap="round" stroke-linejoin="round" stroke-width="4.7949905752960795"/>
  <path d="M 4.594671783121186, 51.895113377525476 Q 4.627698498436416, 56.6699542175826, 4.739113612931593, 58.542700443484485 " fill="none" id="curve_6" stroke="#000000" stroke-linecap="round" stroke-linejoin="round" stroke-width="4.5926512004979125"/>
  <path d="M 11.301400185480237, 84.70021356032179 Q 28.14379303512588, 84.24846917962246, 44.340238341454814, 82.7575148576512 " fill="none" id="curve_7" stroke="#000000" stroke-linecap="round" stroke-linejoin="round" stroke-width="4.775703448289417"/>
  <path d="M 44.340238341454814, 82.7575148576512 Q 54.12310067880235, 80.93929785216129, 66.72120780122161, 78.99717617813424 " fill="none" id="curve_7" stroke="#000000" stroke-linecap="round" stroke-linejoin="round" stroke-width="3.5436601077072813"/>
  <path d="M 35.62597524131833, 97.5517228045217 Q 32.01743576975972, 103.94178565626147, 24.9478674147801, 109.6227990087179 " fill="none" id="curve_9" stroke="#000000" stroke-linecap="round" stroke-linejoin="round" stroke-width="2.5478705722963992"/>
  <path d="M 13.407296273144926, 86.40040509499744 Q 12.19555105463964, 85.46349442143261, 11.373530554095456, 83.01805621523064 " fill="none" id="curve_10" stroke="#000000" stroke-linecap="round" stroke-linejoin="round" stroke-width="3.6704981229555034"/>
  <path d="M 11.373530554095456, 83.01805621523064 Q 22.180745437578867, 82.94080828976378, 40.56686656371156, 82.79036575056395 " fill="none" id="curve_10" stroke="#000000" stroke-linecap="round" stroke-linejoin="round" stroke-width="2.6302315280994915"/>
  <path d="M 40.56686656371156, 82.79036575056395 Q 44.08764567276998, 79.27896384686768, 46.78064411937081, 72.51635039974266 " fill="none" id="curve_10" stroke="#000000" stroke-linecap="round" stroke-linejoin="round" stroke-width="2.940217645523616"/>
  <path d="M 1.939012711296968, 53.727605388348856 Q 2.255735283620422, 53.679112903156664, 2.4383688436043163, 53.5282493509892 " fill="none" id="curve_12" stroke="#000000" stroke-linecap="round" stroke-linejoin="round" stroke-width="4.000034518262642"/>
  <path d="M 2.4383688436043163, 53.5282493509892 Q 6.817507147375792, 51.69926667535597, 23.155098870233505, 50.85759955133585 " fill="none" id="curve_12" stroke="#000000" stroke-linecap="round" stroke-linejoin="round" stroke-width="3.4297127508112766"/>
  <path d="M 18.206336437512576, 85.32517290197453 Q 17.624234166622145, 85.58076940442255, 16.362734995445525, 85.76991654319238 " fill="none" id="curve_13" stroke="#000000" stroke-linecap="round" stroke-linejoin="round" stroke-width="3.7060621944329153"/>
  <path d="M 31.39332896820116, 52.317339422854545 Q 33.75569331900774, 53.39060987751979, 37.95615167220601, 54.863266089174395 " fill="none" id="curve_14" stroke="#000000" stroke-linecap="round" stroke-linejoin="round" stroke-width="2.7082315489691595"/>
  <path d="M 24.85459927443547, 115.51413337626485 Q 25.34742593935721, 114.38180788252102, 26.026368045276357, 112.208097716442 " fill="none" id="curve_17" stroke="#000000" stroke-linecap="round" stroke-linejoin="round" stroke-width="3.035838173281451"/>
  <path d="M 38.01949770638052, 95.08628990464723 Q 38.092845128716895, 93.94341774957654, 38.33644888029769, 92.98286990436569 " fill="none" id="curve_26" stroke="#000000" stroke-linecap="round" stroke-linejoin="round" stroke-width="3.3824220346780685"/>
  <path d="M 30.324301253408606, 105.78363904504202 Q 29.772219098566485, 105.42784278440958, 29.098723222784017, 104.95210655703762 " fill="none" id="curve_27" stroke="#000000" stroke-linecap="round" stroke-linejoin="round" stroke-width="4.973341261804165"/>
  <path d="M 88.29169559062382, 1.8728089474354874 Q 88.58142131124222, 1.8728916172383578, 88.89392125711727, 1.8730054776630878 " fill="none" id="curve_42" stroke="#000000" stroke-linecap="round" stroke-linejoin="round" stroke-width="3.2952331720298753"/>
  <path d="M 88.89392125711727, 1.8730054776630878 Q 87.8662426865256, 1.9844998167100487, 85.88242081850954, 2.0857756863774926 " fill="none" id="curve_42" stroke="#000000" stroke-linecap="round" stroke-linejoin="round" stroke-width="2.8947881820460806"/>
  <path d="M 31.424008928142833, 53.27729360887821 Q 31.17920042436617, 52.31911226070368, 28.589907603559606, 52.025610972248344 " fill="none" id="curve_73" stroke="#000000" stroke-linecap="round" stroke-linejoin="round" stroke-width="2.885756701823404"/>
  <path d="M 2.2712951206481513, 53.925898449372234 Q 2.343018758175694, 54.17419210482312, 2.431275390936301, 54.548584176186594 " fill="none" id="curve_77" stroke="#000000" stroke-linecap="round" stroke-linejoin="round" stroke-width="3.067041028844058"/>
</svg>
