<?xml version="1.0" ?>
<svg height="140" width="140" xmlns="http://www.w3.org/2000/svg">
  <path d="M 69.22944736480713, 57.670310974121094 Q 68.0701379672135, 57.66178964465521, 66.83086917722875, 57.62553218583597 " fill="none" id="curve_1" stroke="#000000" stroke-linecap="round" stroke-linejoin="round" stroke-width="7.6090338611599435"/>
  <path d="M 68.05088323958677, 64.91369938475896 Q 65.46797756612114, 71.87443332176424, 57.96097264776663, 91.57630289508533 " fill="none" id="curve_2" stroke="#000000" stroke-linecap="round" stroke-linejoin="round" stroke-width="4.965994823450504"/>
  <path d="M 57.96097264776663, 91.57630289508533 Q 56.353694777491754, 96.9309509359593, 55.22887002270904, 107.07927748287392 " fill="none" id="curve_2" stroke="#000000" stroke-linecap="round" stroke-linejoin="round" stroke-width="5.891863239042615"/>
  <path d="M 55.22887002270904, 107.07927748287392 Q 53.36506041970713, 125.61828172343928, 45.779329401264135, 138.1627527326378 " fill="none" id="curve_2" stroke="#000000" stroke-linecap="round" stroke-linejoin="round" stroke-width="4.447186066374051"/>
  <path d="M 34.4503545079172, 105.56707276276708 Q 55.478985282697906, 105.94488207845671, 69.82943063286838, 107.78101903105255 " fill="none" id="curve_3" stroke="#000000" stroke-linecap="round" stroke-linejoin="round" stroke-width="6.310683484929302"/>
  <path d="M 69.82943063286838, 107.78101903105255 Q 77.2618488182685, 109.58209308537778, 88.09167039142659, 111.04177713863822 " fill="none" id="curve_3" stroke="#000000" stroke-linecap="round" stroke-linejoin="round" stroke-width="5.789535647508472"/>
  <path d="M 52.79439299765831, 105.35451734459465 Q 51.11838121297144, 103.35915797754802, 34.77959359880455, 102.83436895541017 " fill="none" id="curve_4" stroke="#000000" stroke-linecap="round" stroke-linejoin="round" stroke-width="4.0137234225161125"/>
  <path d="M 54.285195094863155, 107.68009891267872 Q 51.24379483466983, 117.07646785445898, 47.532773646497404, 135.49950277503996 " fill="none" id="curve_5" stroke="#000000" stroke-linecap="round" stroke-linejoin="round" stroke-width="2.9589386573129963"/>
  <path d="M 47.532773646497404, 135.49950277503996 Q 46.57355244636416, 138.15901279737704, 43.31743980490183, 139.19637747434552 " fill="none" id="curve_5" stroke="#000000" stroke-linecap="round" stroke-linejoin="round" stroke-width="2.9287126002887516"/>
  <path d="M 62.454226348395096, 74.53298794144109 Q 65.98357838132615, 68.94069985228406, 69.67323271859696, 58.81052269983625 " fill="none" id="curve_8" stroke="#000000" stroke-linecap="round" stroke-linejoin="round" stroke-width="4.858728877423409"/>
  <path d="M 69.67323271859696, 58.81052269983625 Q 56.72292101090764, 58.98179088618247, 43.23564335859763, 59.548151277367616 " fill="none" id="curve_8" stroke="#000000" stroke-linecap="round" stroke-linejoin="round" stroke-width="5.093896111138477"/>
  <path d="M 43.23564335859763, 59.548151277367616 Q 24.391427596374545, 59.14867899163155, 20.242566137368527, 55.06465310639262 " fill="none" id="curve_8" stroke="#000000" stroke-linecap="round" stroke-linejoin="round" stroke-width="4.3736169098842925"/>
  <path d="M 49.09988384261992, 58.452818170369035 Q 60.37984985332179, 57.77673840417222, 66.58233766189953, 56.158494882382804 " fill="none" id="curve_9" stroke="#000000" stroke-linecap="round" stroke-linejoin="round" stroke-width="3.2021331703524285"/>
  <path d="M 58.268046682150754, 91.66531043023637 Q 60.48691653396823, 88.7749549361326, 62.80208584604576, 82.91422973227284 " fill="none" id="curve_19" stroke="#000000" stroke-linecap="round" stroke-linejoin="round" stroke-width="3.217817314464181"/>
  <path d="M 88.90683950900652, 111.98591099342731 Q 81.3356238524588, 110.04903792512403, 64.56040234592041, 105.81345053104809 " fill="none" id="curve_22" stroke="#000000" stroke-linecap="round" stroke-linejoin="round" stroke-width="2.5054791822511127"/>
  <path d="M 63.63992745157324, 71.35637416290908 Q 64.50498706131417, 64.84236087110645, 69.95259591091784, 62.43999784812213 " fill="none" id="curve_23" stroke="#000000" stroke-linecap="round" stroke-linejoin="round" stroke-width="2.8130064773827823"/>
  <path d="M 20.265882448256377, 57.098307606912584 Q 19.975604435871954, 56.609201048015514, 19.633386085220675, 55.73712851352313 " fill="none" id="curve_26" stroke="#000000" stroke-linecap="round" stroke-linejoin="round" stroke-width="4.347905777942858"/>
  <path d="M 56.30856866229372, 102.54380496367618 Q 59.978920097755, 104.7898585364635, 69.03434699437533, 106.67950000012388 " fill="none" id="curve_27" stroke="#000000" stroke-linecap="round" stroke-linejoin="round" stroke-width="2.954662257099367"/>
  <path d="M 46.36341011019522, 106.6160563888534 Q 41.69199099259197, 106.48167076207095, 36.673768968934546, 106.08712398457608 " fill="none" id="curve_42" stroke="#000000" stroke-linecap="round" stroke-linejoin="round" stroke-width="3.2749791953536835"/>
  <path d="M 55.00436353683472, 92.69861221313477 Q 57.48518520946363, 93.53258256177297, 59.74773217756598, 95.06955042909752 " fill="none" id="curve_69" stroke="#000000" stroke-linecap="round" stroke-linejoin="round" stroke-width="2.6628374237882135"/>
  <path d="M 77.47233648374029, 108.53233789357927 Q 79.98426100237512, 108.55948454997915, 81.95967646362993, 108.61757408617979 " fill="none" id="curve_73" stroke="#000000" stroke-linecap="round" stroke-linejoin="round" stroke-width="3.2131707062324764"/>
  <path d="M 83.73090827694784, 109.26099699142057 Q 81.80059611348015, 108.30688835299932, 69.24521588956783, 107.80941726584926 " fill="none" id="curve_96" stroke="#000000" stroke-linecap="round" stroke-linejoin="round" stroke-width="2.469479351226813"/>
  <path d="M 49.82670174162643, 134.1297282793315 Q 49.574207883914134, 133.27540996932274, 49.21798304955225, 131.6638224061341 " fill="none" id="curve_102" stroke="#000000" stroke-linecap="round" stroke-linejoin="round" stroke-width="3.6566717368140687"/>
  <path d="M 62.29418419778682, 87.01478610235498 Q 58.72778463412532, 88.45911671736131, 55.229227489341355, 91.3245122249925 " fill="none" id="curve_117" stroke="#000000" stroke-linecap="round" stroke-linejoin="round" stroke-width="2.5687446302602717"/>
  <path d="M 51.977225787238694, 108.61872364559704 Q 52.69517881330613, 108.98975544802332, 53.281333395909286, 110.15205010461284 " fill="none" id="curve_148" stroke="#000000" stroke-linecap="round" stroke-linejoin="round" stroke-width="2.733627897323527"/>
  <path d="M 34.06543574596432, 103.93098601992176 Q 33.84560463382505, 103.87913595916295, 33.62385094036327, 103.79604910958827 " fill="none" id="curve_149" stroke="#000000" stroke-linecap="round" stroke-linejoin="round" stroke-width="3.5365862802486223"/>
  <path d="M 70.97974015691858, 56.54894587990202 Q 69.96337501082684, 56.57116724686078, 66.93327458593811, 56.5886476235866 " fill="none" id="curve_158" stroke="#000000" stroke-linecap="round" stroke-linejoin="round" stroke-width="2.8302175574971176"/>
  <path d="M 81.06255720049256, 109.13666922850257 Q 80.04014597798097, 108.03270020928073, 72.01410513437632, 107.64438662694707 " fill="none" id="curve_161" stroke="#000000" stroke-linecap="round" stroke-linejoin="round" stroke-width="3.2176805890695723"/>
  <path d="M 53.06190415296049, 58.013821851309416 Q 52.11674479437595, 57.84491678131456, 48.964224665414065, 57.697538497065565 " fill="none" id="curve_162" stroke="#000000" stroke-linecap="round" stroke-linejoin="round" stroke-width="2.6539945595945515"/>
  <path d="M 70.28175620454627, 108.36645638702339 Q 72.11700576037401, 107.89088904285103, 74.72573821349968, 107.1358478386761 " fill="none" id="curve_177" stroke="#000000" stroke-linecap="round" stroke-linejoin="round" stroke-width="3.3054606394664723"/>
  <path d="M 32.33236359967989, 60.390706334935985 Q 31.328991087368983, 59.89757264816098, 29.55838800804178, 59.34034635344358 " fill="none" id="curve_186" stroke="#000000" stroke-linecap="round" stroke-linejoin="round" stroke-width="3.1304088572390625"/>
  <path d="M 66.46750845053649, 60.63496126965144 Q 68.39825306905473, 61.519428778846226, 70.19375427387304, 63.255125604730786 " fill="none" id="curve_210" stroke="#000000" stroke-linecap="round" stroke-linejoin="round" stroke-width="2.4823021971239525"/>
  <path d="M 68.20584240050206, 108.54317578024107 Q 69.30833968939984, 108.79766196911778, 71.03791995012031, 109.2473014920118 " fill="none" id="curve_219" stroke="#000000" stroke-linecap="round" stroke-linejoin="round" stroke-width="3.2121180152228455"/>
</svg>
