<?xml version="1.0" ?>
<svg height="140" width="140" xmlns="http://www.w3.org/2000/svg">
  <path d="M 62.72448911878544, 73.18561200889405 Q 61.149470720223015, 73.78218935990039, 53.89367028379855, 74.73294832925903 " fill="none" id="curve_2" stroke="#000000" stroke-linecap="round" stroke-linejoin="round" stroke-width="3.6677339462930045"/>
  <path d="M 53.89367028379855, 74.73294832925903 Q 47.967490397974345, 76.17020561934204, 33.76824159929616, 79.13570254629872 " fill="none" id="curve_2" stroke="#000000" stroke-linecap="round" stroke-linejoin="round" stroke-width="5.150691462123677"/>
  <path d="M 33.76824159929616, 79.13570254629872 Q 31.95091127498122, 78.32477738954499, 28.452126522241162, 77.63484152571479 " fill="none" id="curve_2" stroke="#000000" stroke-linecap="round" stroke-linejoin="round" stroke-width="2.841625570856099"/>
  <path d="M 61.76811980998269, 76.2517736071406 Q 55.02056576763694, 83.21890112854152, 40.680033263342274, 101.18981005361348 " fill="none" id="curve_3" stroke="#000000" stroke-linecap="round" stroke-linejoin="round" stroke-width="4.214388311800419"/>
  <path d="M 40.680033263342274, 101.18981005361348 Q 33.717511178912986, 105.24850274819407, 30.252585970422096, 117.63965858223366 " fill="none" id="curve_3" stroke="#000000" stroke-linecap="round" stroke-linejoin="round" stroke-width="4.8749449809516054"/>
  <path d="M 30.252585970422096, 117.63965858223366 Q 31.268749145681024, 103.20885805405354, 52.231794906897605, 99.54844179569484 " fill="none" id="curve_3" stroke="#000000" stroke-linecap="round" stroke-linejoin="round" stroke-width="4.372146709474154"/>
  <path d="M 52.231794906897605, 99.54844179569484 Q 39.444715740128146, 101.2436521870398, 32.1109951089209, 105.95924886679569 " fill="none" id="curve_3" stroke="#000000" stroke-linecap="round" stroke-linejoin="round" stroke-width="3.5060964133570414"/>
  <path d="M 32.1109951089209, 105.95924886679569 Q 32.06006452018409, 106.40552130796151, 31.979787045440847, 106.8117144113657 " fill="none" id="curve_3" stroke="#000000" stroke-linecap="round" stroke-linejoin="round" stroke-width="4.9419421990109536"/>
  <path d="M 52.548659499853414, 87.17176512593231 Q 49.11251317304841, 91.36142802126972, 44.429922841184634, 97.6927886658122 " fill="none" id="curve_4" stroke="#000000" stroke-linecap="round" stroke-linejoin="round" stroke-width="3.14808901075446"/>
  <path d="M 54.738735527817745, 100.21711994799679 Q 54.1194455317988, 100.13105660310455, 53.32634769532525, 99.94390620912968 " fill="none" id="curve_20" stroke="#000000" stroke-linecap="round" stroke-linejoin="round" stroke-width="2.8933039556943325"/>
  <path d="M 60.13072395324707, 72.59733295440674 Q 57.326932732023224, 73.55701312085351, 53.12727433289598, 75.71269475287876 " fill="none" id="curve_99" stroke="#000000" stroke-linecap="round" stroke-linejoin="round" stroke-width="2.5967413525098624"/>
</svg>
