<?xml version="1.0" ?>
<svg height="140" width="140" xmlns="http://www.w3.org/2000/svg">
  <path d="M 74.0880126953125, 37.4339656829834 Q 73.00324074215933, 45.415091521327014, 62.99876472578046, 57.087267787494966 " fill="none" id="curve_1" stroke="#000000" stroke-linecap="round" stroke-linejoin="round" stroke-width="4.129549319436619"/>
  <path d="M 62.99876472578046, 57.087267787494966 Q 59.23125389659929, 64.9715194555404, 53.131901721420405, 76.15860117289964 " fill="none" id="curve_1" stroke="#000000" stroke-linecap="round" stroke-linejoin="round" stroke-width="4.609981241562442"/>
  <path d="M 53.131901721420405, 76.15860117289964 Q 48.35833531167655, 83.73932101822763, 43.776286371706405, 94.96678632886963 " fill="none" id="curve_1" stroke="#000000" stroke-linecap="round" stroke-linejoin="round" stroke-width="4.2641934789943035"/>
  <path d="M 51.5534405453265, 73.59875355706623 Q 46.54233762855887, 72.16020680449502, 26.700578172556394, 71.20509709981228 " fill="none" id="curve_2" stroke="#000000" stroke-linecap="round" stroke-linejoin="round" stroke-width="3.945677373833381"/>
  <path d="M 0.8497761196953526, 71.61440766174732 Q 1.9844911767817244, 72.69105431709151, 2.119092514762894, 92.3386564540245 " fill="none" id="curve_3" stroke="#000000" stroke-linecap="round" stroke-linejoin="round" stroke-width="2.5106015045437986"/>
  <path d="M 2.119092514762894, 92.3386564540245 Q 1.7986894167213698, 94.19892442546575, 1.6394481732382973, 120.01168991135995 " fill="none" id="curve_3" stroke="#000000" stroke-linecap="round" stroke-linejoin="round" stroke-width="2.7407254529414375"/>
  <path d="M 1.6394481732382973, 120.01168991135995 Q 1.8068653790539337, 128.92749558154074, 2.039780210029832, 138.35984486978384 " fill="none" id="curve_3" stroke="#000000" stroke-linecap="round" stroke-linejoin="round" stroke-width="2.4480142648068073"/>
  <path d="M 2.039780210029832, 138.35984486978384 Q 1.7410979825220747, 138.57080072424006, 1.1370380563521292, 138.71610284064468 " fill="none" id="curve_3" stroke="#000000" stroke-linecap="round" stroke-linejoin="round" stroke-width="2.1983808673727725"/>
  <path d="M 2.5825688362964705, 109.41612261748607 Q 2.2653341195834256, 108.0429251537607, 1.7729840289096428, 106.21823580130165 " fill="none" id="curve_4" stroke="#000000" stroke-linecap="round" stroke-linejoin="round" stroke-width="1.7667990515136853"/>
  <path d="M 1.9028713819874774, 73.6514769873698 Q 1.7398766281348497, 71.75893546236364, 1.6634090585137908, 57.98207267261383 " fill="none" id="curve_5" stroke="#000000" stroke-linecap="round" stroke-linejoin="round" stroke-width="2.103888639327921"/>
  <path d="M 1.6634090585137908, 57.98207267261383 Q 1.5163953289012113, 54.344784221935434, 1.3581625471188328, 39.430147999189884 " fill="none" id="curve_5" stroke="#000000" stroke-linecap="round" stroke-linejoin="round" stroke-width="2.1210714499037193"/>
  <path d="M 1.3581625471188328, 39.430147999189884 Q 1.3976793900423918, 34.95852059861123, 1.4692957007626244, 22.19413366131346 " fill="none" id="curve_5" stroke="#000000" stroke-linecap="round" stroke-linejoin="round" stroke-width="1.70454553198226"/>
  <path d="M 1.4692957007626244, 22.19413366131346 Q 1.359495288459456, 20.411850712442963, 1.29251121706128, 6.535575037113848 " fill="none" id="curve_5" stroke="#000000" stroke-linecap="round" stroke-linejoin="round" stroke-width="1.8943201361040125"/>
  <path d="M 1.29251121706128, 6.535575037113848 Q 1.4814183772678708, 2.4933012982138294, 2.8399337426615423, 1.7243615984369214 " fill="none" id="curve_5" stroke="#000000" stroke-linecap="round" stroke-linejoin="round" stroke-width="3.687211441234303"/>
  <path d="M 2.8399337426615423, 1.7243615984369214 Q 2.1215970300108475, 1.5241539216003896, 0.9839084295846452, 1.3674106777360744 " fill="none" id="curve_5" stroke="#000000" stroke-linecap="round" stroke-linejoin="round" stroke-width="2.2735872113370514"/>
  <path d="M 29.712571615464554, 34.03206476040468 Q 31.843656314352206, 34.017464143778994, 37.302265869739095, 33.99847836603008 " fill="none" id="curve_7" stroke="#000000" stroke-linecap="round" stroke-linejoin="round" stroke-width="4.853450178764827"/>
  <path d="M 37.302265869739095, 33.99847836603008 Q 39.65059836805862, 34.39793641451018, 46.99440475363308, 34.56500492920701 " fill="none" id="curve_7" stroke="#000000" stroke-linecap="round" stroke-linejoin="round" stroke-width="2.940289568515486"/>
  <path d="M 46.99440475363308, 34.56500492920701 Q 52.29967625799033, 34.21275628813135, 56.746515023082154, 33.628398194098175 " fill="none" id="curve_7" stroke="#000000" stroke-linecap="round" stroke-linejoin="round" stroke-width="2.3660271338370036"/>
  <path d="M 56.746515023082154, 33.628398194098175 Q 66.69091725129927, 34.183802009605635, 77.46484597352293, 34.91284738527971 " fill="none" id="curve_7" stroke="#000000" stroke-linecap="round" stroke-linejoin="round" stroke-width="3.0632853665720368"/>
  <path d="M 77.46484597352293, 34.91284738527971 Q 75.66347312428121, 43.145640831435, 66.19286280567397, 48.7011855544832 " fill="none" id="curve_7" stroke="#000000" stroke-linecap="round" stroke-linejoin="round" stroke-width="2.9565231733843813"/>
  <path d="M 58.952149324029264, 67.7422874573915 Q 58.743248302351034, 74.58457005140417, 53.05730858175966, 75.37193580351824 " fill="none" id="curve_8" stroke="#000000" stroke-linecap="round" stroke-linejoin="round" stroke-width="2.567320143101382"/>
  <path d="M 42.32873529241716, 72.75862432776019 Q 34.17760344918448, 72.27144893120534, 26.17115124388712, 71.58793532007131 " fill="none" id="curve_9" stroke="#000000" stroke-linecap="round" stroke-linejoin="round" stroke-width="2.7099583597742494"/>
  <path d="M 33.575647469407514, 36.38772503488317 Q 32.455710277488535, 35.97376486425172, 31.0139472428206, 35.40797859470741 " fill="none" id="curve_15" stroke="#000000" stroke-linecap="round" stroke-linejoin="round" stroke-width="4.020941907894729"/>
  <path d="M 56.27981059752295, 73.70042464364947 Q 49.33870018142797, 76.39394220593685, 44.60584761249373, 91.44654943131079 " fill="none" id="curve_22" stroke="#000000" stroke-linecap="round" stroke-linejoin="round" stroke-width="2.4991001078451767"/>
  <path d="M 44.32260874621892, 91.50838594700528 Q 43.886132628855165, 94.1515026385696, 41.454883738896996, 95.30953103986533 " fill="none" id="curve_23" stroke="#000000" stroke-linecap="round" stroke-linejoin="round" stroke-width="2.557876648221273"/>
  <path d="M 62.27495068144093, 69.58037296770269 Q 62.32972272511628, 71.18431651997119, 62.76564936467427, 71.70911554733766 " fill="none" id="curve_24" stroke="#000000" stroke-linecap="round" stroke-linejoin="round" stroke-width="1.6336784472738852"/>
  <path d="M 66.39424071889094, 52.57980077828988 Q 71.54258943564413, 49.72567673350181, 74.30905178772781, 36.12997598351543 " fill="none" id="curve_25" stroke="#000000" stroke-linecap="round" stroke-linejoin="round" stroke-width="2.5492906838503084"/>
  <path d="M 47.69740338815373, 33.92593714073354 Q 46.618592803072204, 33.94731629973345, 44.89596733535428, 33.97101553540559 " fill="none" id="curve_27" stroke="#000000" stroke-linecap="round" stroke-linejoin="round" stroke-width="2.767867893351188"/>
  <path d="M 43.25979845589359, 73.11383269368065 Q 41.537442321357, 71.63972517706571, 29.758382719521585, 70.83256154484826 " fill="none" id="curve_30" stroke="#000000" stroke-linecap="round" stroke-linejoin="round" stroke-width="2.229255496536948"/>
  <path d="M 44.48809907341365, 72.90003349861445 Q 44.12155821259616, 72.4681409397363, 43.21749956033574, 71.70090814916945 " fill="none" id="curve_45" stroke="#000000" stroke-linecap="round" stroke-linejoin="round" stroke-width="2.419346182970925"/>
  <path d="M 67.61453349146552, 34.80592782702856 Q 67.30670991199729, 35.08974109686277, 66.6796009915193, 35.429683391024305 " fill="none" id="curve_52" stroke="#000000" stroke-linecap="round" stroke-linejoin="round" stroke-width="2.380759075030101"/>
  <path d="M 71.79147947439267, 44.120606137844966 Q 73.60032869620437, 41.67749132838677, 77.59243645564003, 39.12364295296302 " fill="none" id="curve_75" stroke="#000000" stroke-linecap="round" stroke-linejoin="round" stroke-width="2.4265448738893767"/>
  <path d="M 66.02783723334146, 51.50349590394742 Q 65.88587345230992, 51.98645690385602, 65.72651936216788, 52.97620836969325 " fill="none" id="curve_91" stroke="#000000" stroke-linecap="round" stroke-linejoin="round" stroke-width="2.7495017792159024"/>
</svg>
