<?xml version="1.0" ?>
<svg height="140" width="140" xmlns="http://www.w3.org/2000/svg">
  <path d="M 62.16678900993372, 81.89854306208755 Q 56.35701074457241, 80.33233465939144, 40.13197462252961, 78.29512891237512 " fill="none" id="curve_2" stroke="#000000" stroke-linecap="round" stroke-linejoin="round" stroke-width="5.207895297811303"/>
  <path d="M 40.13197462252961, 78.29512891237512 Q 37.26314277605469, 80.73996008405032, 31.484336452375132, 87.38298181978803 " fill="none" id="curve_2" stroke="#000000" stroke-linecap="round" stroke-linejoin="round" stroke-width="4.761358490013555"/>
  <path d="M 31.484336452375132, 87.38298181978803 Q 30.443314298701463, 98.77830334767242, 26.969279546629288, 103.71380151570911 " fill="none" id="curve_2" stroke="#000000" stroke-linecap="round" stroke-linejoin="round" stroke-width="4.069796346755689"/>
  <path d="M 26.969279546629288, 103.71380151570911 Q 29.856093771898234, 105.45371001622739, 32.85527371203177, 107.62043921153906 " fill="none" id="curve_2" stroke="#000000" stroke-linecap="round" stroke-linejoin="round" stroke-width="3.655348315383027"/>
  <path d="M 27.34979727712224, 80.83338062561575 Q 37.623522126096304, 79.52765946152702, 43.11674425952258, 74.7940037507307 " fill="none" id="curve_3" stroke="#000000" stroke-linecap="round" stroke-linejoin="round" stroke-width="4.552119414072592"/>
  <path d="M 43.11674425952258, 74.7940037507307 Q 49.61644822945133, 66.93108065391138, 61.79567709287889, 46.78069272305257 " fill="none" id="curve_3" stroke="#000000" stroke-linecap="round" stroke-linejoin="round" stroke-width="4.68037035837214"/>
  <path d="M 61.79567709287889, 46.78069272305257 Q 50.23272469628238, 48.11160865787372, 37.03396787132534, 51.6190917886014 " fill="none" id="curve_3" stroke="#000000" stroke-linecap="round" stroke-linejoin="round" stroke-width="4.040686013252268"/>
  <path d="M 37.03396787132534, 51.6190917886014 Q 29.954005195546024, 51.623667143921736, 27.807907127066905, 51.64969135359026 " fill="none" id="curve_3" stroke="#000000" stroke-linecap="round" stroke-linejoin="round" stroke-width="4.135832362895745"/>
  <path d="M 36.98021001125606, 85.00167548428401 Q 34.68227276553883, 90.89406244615604, 29.81417887687616, 95.01053936491522 " fill="none" id="curve_4" stroke="#000000" stroke-linecap="round" stroke-linejoin="round" stroke-width="3.080646002285528"/>
  <path d="M 42.89189474096286, 74.38009404400661 Q 46.276966201418126, 65.41498207414817, 56.74098735067119, 58.51105378706903 " fill="none" id="curve_5" stroke="#000000" stroke-linecap="round" stroke-linejoin="round" stroke-width="2.54310766419069"/>
  <path d="M 60.846163678415415, 46.39881085988169 Q 60.548835564884676, 45.28907980107713, 59.029406289205255, 44.89125496799243 " fill="none" id="curve_6" stroke="#000000" stroke-linecap="round" stroke-linejoin="round" stroke-width="2.838498655982721"/>
  <path d="M 32.20811327648683, 51.906318907705085 Q 34.17421790387665, 50.69620710521495, 46.048505586978024, 50.061262488608406 " fill="none" id="curve_13" stroke="#000000" stroke-linecap="round" stroke-linejoin="round" stroke-width="2.247032951299243"/>
  <path d="M 61.016423834938514, 49.6816034075637 Q 61.55178821478685, 49.60438651832219, 62.138402421282436, 49.40799319630937 " fill="none" id="curve_29" stroke="#000000" stroke-linecap="round" stroke-linejoin="round" stroke-width="2.816560704402503"/>
  <path d="M 33.75249040657329, 79.47712696453138 Q 34.411890279039774, 78.98618688145639, 39.62270107236889, 78.77516019497169 " fill="none" id="curve_35" stroke="#000000" stroke-linecap="round" stroke-linejoin="round" stroke-width="3.8254619092951563"/>
  <path d="M 52.992713928222656, 79.82483863830566 Q 45.63781276442095, 79.51743148778895, 36.236570027612174, 78.64710840223071 " fill="none" id="curve_62" stroke="#000000" stroke-linecap="round" stroke-linejoin="round" stroke-width="3.691763991973351"/>
  <path d="M 36.236570027612174, 78.64710840223071 Q 35.67206692162286, 78.3488580546505, 34.31358776115482, 77.8757137215672 " fill="none" id="curve_62" stroke="#000000" stroke-linecap="round" stroke-linejoin="round" stroke-width="3.343045576592568"/>
  <path d="M 50.55821345798813, 79.05861479584973 Q 47.45501437897765, 78.65378457893333, 45.55512815502751, 76.79948013941215 " fill="none" id="curve_77" stroke="#000000" stroke-linecap="round" stroke-linejoin="round" stroke-width="3.103347248506903"/>
  <path d="M 27.85780054395189, 96.77970543148348 Q 27.681975325027746, 98.35978379925243, 27.455300821466647, 100.52655544831536 " fill="none" id="curve_106" stroke="#000000" stroke-linecap="round" stroke-linejoin="round" stroke-width="2.9728239049271146"/>
  <path d="M 48.877754482687806, 66.7256809899434 Q 51.960998393170954, 58.752816075110886, 60.317209524884056, 49.540882392738816 " fill="none" id="curve_135" stroke="#000000" stroke-linecap="round" stroke-linejoin="round" stroke-width="2.578529227233477"/>
</svg>
