<?xml version="1.0" ?>
<svg height="140" width="140" xmlns="http://www.w3.org/2000/svg">
  <path d="M 84.34125958681244, 91.47017163923385 Q 82.88249853418039, 91.6871926528653, 65.16790423491902, 91.73928875326392 " fill="none" id="curve_2" stroke="#000000" stroke-linecap="round" stroke-linejoin="round" stroke-width="6.585834458527697"/>
  <path d="M 65.16790423491902, 91.73928875326392 Q 56.052849800611995, 91.15787697974373, 48.825199984441056, 89.71280742583704 " fill="none" id="curve_2" stroke="#000000" stroke-linecap="round" stroke-linejoin="round" stroke-width="6.590123836935146"/>
  <path d="M 48.825199984441056, 89.71280742583704 Q 48.54864813204081, 79.48587738151092, 47.85789380854834, 60.79229732034476 " fill="none" id="curve_2" stroke="#000000" stroke-linecap="round" stroke-linejoin="round" stroke-width="4.727696478755376"/>
  <path d="M 47.85789380854834, 60.79229732034476 Q 48.247805701912625, 31.047049503255774, 56.15530383084637, 24.319174329561122 " fill="none" id="curve_2" stroke="#000000" stroke-linecap="round" stroke-linejoin="round" stroke-width="4.982296527075504"/>
  <path d="M 56.15530383084637, 24.319174329561122 Q 45.11003937878608, 24.265867538559554, 18.249075161301683, 24.21743780414607 " fill="none" id="curve_2" stroke="#000000" stroke-linecap="round" stroke-linejoin="round" stroke-width="5.002944801728349"/>
  <path d="M 4.952036046743515, 1.4523212666926746 Q 2.492393761447243, 2.4989487111537443, 2.127207984682298, 16.142701986060054 " fill="none" id="curve_3" stroke="#000000" stroke-linecap="round" stroke-linejoin="round" stroke-width="3.0812641091927833"/>
  <path d="M 2.127207984682298, 16.142701986060054 Q 2.1895961548042435, 26.659572739329406, 2.424576465188778, 55.386418744734 " fill="none" id="curve_3" stroke="#000000" stroke-linecap="round" stroke-linejoin="round" stroke-width="2.5750955962254882"/>
  <path d="M 2.424576465188778, 55.386418744734 Q 2.0804322385622562, 57.93374209539558, 1.8407163055559392, 86.56825180650924 " fill="none" id="curve_3" stroke="#000000" stroke-linecap="round" stroke-linejoin="round" stroke-width="3.136115609711821"/>
  <path d="M 1.8407163055559392, 86.56825180650924 Q 1.928352466963555, 90.86431996912759, 2.080594851390874, 114.55607578383632 " fill="none" id="curve_3" stroke="#000000" stroke-linecap="round" stroke-linejoin="round" stroke-width="3.0306535037458673"/>
  <path d="M 2.080594851390874, 114.55607578383632 Q 2.0339671439592233, 130.01706741796144, 1.8242489217025106, 138.47605972911992 " fill="none" id="curve_3" stroke="#000000" stroke-linecap="round" stroke-linejoin="round" stroke-width="2.760853447837887"/>
  <path d="M 1.8242489217025106, 138.47605972911992 Q 1.887912343435291, 138.55039876377995, 2.0025322208403673, 138.62370409875194 " fill="none" id="curve_3" stroke="#000000" stroke-linecap="round" stroke-linejoin="round" stroke-width="2.317140024297057"/>
  <path d="M 45.61096167184868, 137.06409803365548 Q 52.71282115832224, 136.92306773023722, 53.395972719966814, 132.29009017609243 " fill="none" id="curve_4" stroke="#000000" stroke-linecap="round" stroke-linejoin="round" stroke-width="4.430073813890654"/>
  <path d="M 53.395972719966814, 132.29009017609243 Q 53.81803228875735, 127.69393748395443, 54.3816567522774, 123.36815369070187 " fill="none" id="curve_4" stroke="#000000" stroke-linecap="round" stroke-linejoin="round" stroke-width="4.666916197691793"/>
  <path d="M 54.3816567522774, 123.36815369070187 Q 52.79209546372497, 115.00278492305841, 50.13330247686643, 92.43896440315905 " fill="none" id="curve_4" stroke="#000000" stroke-linecap="round" stroke-linejoin="round" stroke-width="4.201025424967471"/>
  <path d="M 50.13330247686643, 92.43896440315905 Q 46.63331493703269, 88.82028933831664, 22.232468218784472, 87.07480405956012 " fill="none" id="curve_4" stroke="#000000" stroke-linecap="round" stroke-linejoin="round" stroke-width="6.275497877627062"/>
  <path d="M 22.232468218784472, 87.07480405956012 Q 22.13686809713429, 86.21197436539804, 22.00182452029305, 85.42497223527945 " fill="none" id="curve_4" stroke="#000000" stroke-linecap="round" stroke-linejoin="round" stroke-width="5.163459224366739"/>
  <path d="M 46.33945531746081, 89.54784396963763 Q 42.4373363439963, 89.117919734888, 30.002271736021196, 88.85018699436284 " fill="none" id="curve_5" stroke="#000000" stroke-linecap="round" stroke-linejoin="round" stroke-width="3.735956719130607"/>
  <path d="M 44.61891953429051, 136.18064771659908 Q 44.935697216214265, 137.9981783227437, 49.04867478855703, 138.3015006290252 " fill="none" id="curve_6" stroke="#000000" stroke-linecap="round" stroke-linejoin="round" stroke-width="4.580475872788864"/>
  <path d="M 54.87530651968518, 89.51360361128425 Q 52.128905598917605, 88.00319823489862, 35.49931657739687, 86.92390875439658 " fill="none" id="curve_8" stroke="#000000" stroke-linecap="round" stroke-linejoin="round" stroke-width="3.680312799813258"/>
  <path d="M 65.49958055700905, 88.72489728970149 Q 72.09448601815947, 89.67186493085399, 73.49010389651369, 94.3459244894477 " fill="none" id="curve_11" stroke="#000000" stroke-linecap="round" stroke-linejoin="round" stroke-width="2.6685063286359822"/>
  <path d="M 83.15207685973417, 92.02009988625437 Q 81.17616563262797, 92.90240475214388, 77.03048398273424, 93.45549370344698 " fill="none" id="curve_12" stroke="#000000" stroke-linecap="round" stroke-linejoin="round" stroke-width="3.1994760504712896"/>
  <path d="M 45.804971461713535, 76.80568206873122 Q 47.08675925744853, 73.27728439820551, 48.143938813932685, 64.87472268185022 " fill="none" id="curve_13" stroke="#000000" stroke-linecap="round" stroke-linejoin="round" stroke-width="2.8324082464983436"/>
  <path d="M 48.143938813932685, 64.87472268185022 Q 48.445614070313496, 53.158745868644736, 49.53530377907655, 46.90619227136068 " fill="none" id="curve_13" stroke="#000000" stroke-linecap="round" stroke-linejoin="round" stroke-width="3.315519596924631"/>
  <path d="M 60.23188119332099, 23.37903251533108 Q 59.55260028539532, 22.642701655877136, 57.88648681111167, 22.21064269342298 " fill="none" id="curve_14" stroke="#000000" stroke-linecap="round" stroke-linejoin="round" stroke-width="6.171924197431003"/>
  <path d="M 48.30405426377941, 48.878118386553425 Q 49.0185564294376, 31.894159640006922, 54.37857792269811, 24.310277369227773 " fill="none" id="curve_17" stroke="#000000" stroke-linecap="round" stroke-linejoin="round" stroke-width="2.9070762577618825"/>
  <path d="M 37.03232521864885, 26.226330785484393 Q 42.52212394794267, 25.417023197672645, 49.51072278271644, 24.17829842417617 " fill="none" id="curve_18" stroke="#000000" stroke-linecap="round" stroke-linejoin="round" stroke-width="2.822502974811422"/>
  <path d="M 47.61745087146856, 43.1404608041731 Q 48.32083008159217, 30.175655040156155, 54.3830383855355, 25.419087034616233 " fill="none" id="curve_19" stroke="#000000" stroke-linecap="round" stroke-linejoin="round" stroke-width="2.715666777351449"/>
  <path d="M 16.51873563647213, 23.2562989022859 Q 16.909399986324853, 22.659993806354173, 17.819779235082315, 22.084321725738132 " fill="none" id="curve_22" stroke="#000000" stroke-linecap="round" stroke-linejoin="round" stroke-width="1.9861481922861075"/>
  <path d="M 4.640396687311082, 3.377835519198001 Q 3.755808728077655, 3.0495015503624225, 2.712581563794286, 2.534729081771813 " fill="none" id="curve_26" stroke="#000000" stroke-linecap="round" stroke-linejoin="round" stroke-width="5.217318282337643"/>
  <path d="M 43.682746514927395, 24.676905632820603 Q 37.65271811693284, 23.945718006538527, 23.012183530972397, 23.0318803052835 " fill="none" id="curve_28" stroke="#000000" stroke-linecap="round" stroke-linejoin="round" stroke-width="2.6917366501779343"/>
  <path d="M 47.81253656112959, 59.625040252794335 Q 48.12950448052676, 50.40826940938453, 50.29044266661618, 47.476311324574695 " fill="none" id="curve_31" stroke="#000000" stroke-linecap="round" stroke-linejoin="round" stroke-width="3.478838564752331"/>
  <path d="M 45.703143390202264, 24.71046828270195 Q 47.87171866708984, 24.285257819981062, 56.11821684398847, 23.756694632494167 " fill="none" id="curve_32" stroke="#000000" stroke-linecap="round" stroke-linejoin="round" stroke-width="3.068686571728465"/>
  <path d="M 46.49299335479736, 57.430328369140625 Q 46.69498996772784, 50.09876800265995, 49.8364165883351, 48.847654659921545 " fill="none" id="curve_46" stroke="#000000" stroke-linecap="round" stroke-linejoin="round" stroke-width="3.0533452794452596"/>
  <path d="M 43.346003500472555, 26.426253289588985 Q 44.188255723461594, 23.409744424447123, 53.17265670848686, 22.34841326803975 " fill="none" id="curve_47" stroke="#000000" stroke-linecap="round" stroke-linejoin="round" stroke-width="2.2950832639618115"/>
  <path d="M 47.342409953652805, 137.4886257229099 Q 48.08493680870364, 138.08979140096898, 51.40191446666869, 138.3286614496155 " fill="none" id="curve_62" stroke="#000000" stroke-linecap="round" stroke-linejoin="round" stroke-width="3.1408448538674216"/>
  <path d="M 45.717447221682484, 138.15492627167862 Q 51.07719596297296, 136.8296785944895, 53.65520392514137, 131.35630803353365 " fill="none" id="curve_71" stroke="#000000" stroke-linecap="round" stroke-linejoin="round" stroke-width="2.8945770090789917"/>
  <path d="M 53.65520392514137, 131.35630803353365 Q 53.96302604994463, 127.83042263200744, 54.37869448913026, 121.24669146319543 " fill="none" id="curve_71" stroke="#000000" stroke-linecap="round" stroke-linejoin="round" stroke-width="2.4849163431789996"/>
  <path d="M 32.88912685892601, 90.33446181720329 Q 31.010464669933956, 89.86278492638122, 28.78931591239611, 89.08981042755927 " fill="none" id="curve_73" stroke="#000000" stroke-linecap="round" stroke-linejoin="round" stroke-width="3.3141803738625533"/>
  <path d="M 43.189168782268226, 24.479730750228036 Q 43.76627846529201, 23.139024227259096, 48.79738832667453, 22.63080633577876 " fill="none" id="curve_75" stroke="#000000" stroke-linecap="round" stroke-linejoin="round" stroke-width="2.7360045938938566"/>
  <path d="M 48.45909118652344, 86.1018295288086 Q 50.47834187653286, 86.07350186180712, 51.98004119501854, 85.98341707690832 " fill="none" id="curve_89" stroke="#000000" stroke-linecap="round" stroke-linejoin="round" stroke-width="1.9073154471442766"/>
  <path d="M 54.37586480595025, 125.98314053654752 Q 54.5008380588041, 128.72832505951973, 55.14217500717687, 129.67839644709363 " fill="none" id="curve_92" stroke="#000000" stroke-linecap="round" stroke-linejoin="round" stroke-width="4.083518906243155"/>
  <path d="M 45.866151286916995, 136.47884274912013 Q 45.740956059138185, 136.62673204789644, 45.45105374775398, 136.8386431120365 " fill="none" id="curve_95" stroke="#000000" stroke-linecap="round" stroke-linejoin="round" stroke-width="2.4472264667855717"/>
  <path d="M 51.60243456685488, 111.11457579766545 Q 51.499289235344015, 107.42897817062787, 51.15498124136586, 104.52898364427193 " fill="none" id="curve_112" stroke="#000000" stroke-linecap="round" stroke-linejoin="round" stroke-width="2.26459228737503"/>
  <path d="M 47.246617336808136, 53.09248813843972 Q 47.99148404361499, 50.249263194500244, 49.591831159616476, 47.44662120358917 " fill="none" id="curve_148" stroke="#000000" stroke-linecap="round" stroke-linejoin="round" stroke-width="3.0753790620638823"/>
</svg>
