<?xml version="1.0" ?>
<svg height="140" width="140" xmlns="http://www.w3.org/2000/svg">
  <path d="M 55.08233642578125, 65.95427703857422 Q 56.579078212052025, 65.90192695300681, 57.60766779302969, 65.69900461846274 " fill="none" id="curve_1" stroke="#000000" stroke-linecap="round" stroke-linejoin="round" stroke-width="7.1757887487874426"/>
  <path d="M 57.60766779302969, 65.69900461846274 Q 56.69898397838528, 78.17989570405271, 50.278236246666594, 98.43261109041325 " fill="none" id="curve_1" stroke="#000000" stroke-linecap="round" stroke-linejoin="round" stroke-width="5.088166496715176"/>
  <path d="M 50.278236246666594, 98.43261109041325 Q 42.09703129856756, 100.24562294033194, 34.8140327276852, 103.75993603978567 " fill="none" id="curve_1" stroke="#000000" stroke-linecap="round" stroke-linejoin="round" stroke-width="4.446132179814765"/>
  <path d="M 51.44127864505784, 117.28945401464894 Q 50.518242236048664, 114.83825629007059, 50.14558068295983, 99.73661533055694 " fill="none" id="curve_2" stroke="#000000" stroke-linecap="round" stroke-linejoin="round" stroke-width="5.647066260266259"/>
  <path d="M 50.14558068295983, 99.73661533055694 Q 57.78619332153233, 94.39101399117726, 84.48230888186245, 89.876127893096 " fill="none" id="curve_2" stroke="#000000" stroke-linecap="round" stroke-linejoin="round" stroke-width="4.5311977044858"/>
  <path d="M 56.16433692175463, 62.89251365982901 Q 43.088281630718484, 63.98589778945964, 19.176212223601674, 66.9346133534722 " fill="none" id="curve_3" stroke="#000000" stroke-linecap="round" stroke-linejoin="round" stroke-width="5.649649962809204"/>
  <path d="M 19.176212223601674, 66.9346133534722 Q 15.248542142137584, 66.76612862686694, 13.406863753714962, 66.2090758921581 " fill="none" id="curve_3" stroke="#000000" stroke-linecap="round" stroke-linejoin="round" stroke-width="7.072514394048321"/>
  <path d="M 13.406863753714962, 66.2090758921581 Q 31.300796548359518, 65.08696551402664, 53.15573366900928, 63.28470037380447 " fill="none" id="curve_3" stroke="#000000" stroke-linecap="round" stroke-linejoin="round" stroke-width="3.2810356020100615"/>
  <path d="M 85.77848315951522, 90.25370906705511 Q 86.39535802835552, 90.2272612644528, 86.97000099772823, 90.16543711666652 " fill="none" id="curve_4" stroke="#000000" stroke-linecap="round" stroke-linejoin="round" stroke-width="3.604256490255293"/>
  <path d="M 57.65523182506122, 76.65205579723529 Q 53.180645629302326, 79.2094857338265, 51.30604743280888, 90.36881942998139 " fill="none" id="curve_11" stroke="#000000" stroke-linecap="round" stroke-linejoin="round" stroke-width="3.10655558490396"/>
  <path d="M 54.932264191159355, 62.463606777180274 Q 52.33216046165354, 62.581274854323944, 49.11391590544966, 62.81136285512484 " fill="none" id="curve_12" stroke="#000000" stroke-linecap="round" stroke-linejoin="round" stroke-width="4.184331259401615"/>
  <path d="M 43.656763622653195, 64.55348210949724 Q 50.780541491652535, 63.96925475639196, 56.2090249994839, 61.783395666450964 " fill="none" id="curve_19" stroke="#000000" stroke-linecap="round" stroke-linejoin="round" stroke-width="2.693827367920472"/>
  <path d="M 50.03247905939274, 105.79245446599002 Q 50.90137830023488, 105.75045293000667, 51.72297862317357, 105.588635639487 " fill="none" id="curve_24" stroke="#000000" stroke-linecap="round" stroke-linejoin="round" stroke-width="2.7949883645023266"/>
  <path d="M 51.60916412435403, 113.2881391670989 Q 51.54566392279873, 96.59203859040234, 50.6603909905495, 90.28891476827852 " fill="none" id="curve_25" stroke="#000000" stroke-linecap="round" stroke-linejoin="round" stroke-width="2.0010398509959866"/>
  <path d="M 45.57668685913086, 98.44127655029297 Q 43.114663939992866, 99.01234881989726, 38.73387857161276, 99.87212576357052 " fill="none" id="curve_39" stroke="#000000" stroke-linecap="round" stroke-linejoin="round" stroke-width="2.7955591542360576"/>
  <path d="M 53.659675143227226, 116.19373758116656 Q 52.05942790595465, 115.70969178192077, 50.619060531470595, 114.34124232242573 " fill="none" id="curve_40" stroke="#000000" stroke-linecap="round" stroke-linejoin="round" stroke-width="3.7880431558001604"/>
  <path d="M 49.824030259758054, 101.33787897577449 Q 50.09294122598149, 107.01880517992097, 50.77380922706705, 111.23613981978997 " fill="none" id="curve_43" stroke="#000000" stroke-linecap="round" stroke-linejoin="round" stroke-width="2.9564192466488706"/>
  <path d="M 50.77380922706705, 111.23613981978997 Q 51.07184325620434, 105.39018003895355, 51.50004690648288, 94.67260849812712 " fill="none" id="curve_43" stroke="#000000" stroke-linecap="round" stroke-linejoin="round" stroke-width="2.5480437480562257"/>
  <path d="M 50.69060064182599, 110.88650654847359 Q 50.14323145091149, 109.50848113209176, 49.78521856497257, 104.32960403974342 " fill="none" id="curve_44" stroke="#000000" stroke-linecap="round" stroke-linejoin="round" stroke-width="4.630959985730448"/>
  <path d="M 57.24577983420965, 72.5482174446324 Q 58.39028668647511, 72.73894682370295, 59.26329803355367, 73.23899927676638 " fill="none" id="curve_99" stroke="#000000" stroke-linecap="round" stroke-linejoin="round" stroke-width="3.6722037604843636"/>
  <path d="M 69.4872679155589, 92.74623748062075 Q 65.91666704767887, 93.01280929353163, 59.91760017716191, 93.68759634312573 " fill="none" id="curve_136" stroke="#000000" stroke-linecap="round" stroke-linejoin="round" stroke-width="2.942046563715823"/>
  <path d="M 53.18613651283038, 64.19546978654398 Q 50.49077527081681, 63.917808663017794, 43.01924229976174, 63.538373266388156 " fill="none" id="curve_143" stroke="#000000" stroke-linecap="round" stroke-linejoin="round" stroke-width="3.415737750901109"/>
  <path d="M 49.68975134975691, 111.87187972122956 Q 51.49290999673608, 106.03565875179383, 53.00263762233355, 92.35241497045891 " fill="none" id="curve_159" stroke="#000000" stroke-linecap="round" stroke-linejoin="round" stroke-width="2.8574034789388336"/>
  <path d="M 53.17293852100567, 79.80483291150186 Q 52.79532142733753, 83.09061397673922, 52.37444673995598, 89.91676762212367 " fill="none" id="curve_160" stroke="#000000" stroke-linecap="round" stroke-linejoin="round" stroke-width="2.3389430076967566"/>
  <path d="M 24.169743379327816, 68.17959379465 Q 23.00780025902966, 67.96736233654572, 21.806401802058307, 67.58784034196387 " fill="none" id="curve_163" stroke="#000000" stroke-linecap="round" stroke-linejoin="round" stroke-width="3.7663841288890234"/>
</svg>
