<?xml version="1.0" ?>
<svg height="140" width="140" xmlns="http://www.w3.org/2000/svg">
  <path d="M 38.03469467163086, 36.4407434463501 Q 37.6088533642697, 34.229921129427275, 31.03388683679441, 33.76426232363741 " fill="none" id="curve_1" stroke="#000000" stroke-linecap="round" stroke-linejoin="round" stroke-width="4.168374518061099"/>
  <path d="M 31.03388683679441, 33.76426232363741 Q 42.9780460283989, 34.33228514801996, 54.56170153049494, 37.097008406951716 " fill="none" id="curve_1" stroke="#000000" stroke-linecap="round" stroke-linejoin="round" stroke-width="5.449620632537309"/>
  <path d="M 54.56170153049494, 37.097008406951716 Q 52.99897493433321, 44.474246722563684, 48.9725576517041, 62.265234400987765 " fill="none" id="curve_1" stroke="#000000" stroke-linecap="round" stroke-linejoin="round" stroke-width="5.555956645887662"/>
  <path d="M 48.9725576517041, 62.265234400987765 Q 47.826328227623804, 67.97017094457792, 45.21530996011437, 72.67705286543229 " fill="none" id="curve_1" stroke="#000000" stroke-linecap="round" stroke-linejoin="round" stroke-width="4.827385042637339"/>
  <path d="M 45.21530996011437, 72.67705286543229 Q 43.400926437542765, 83.5614410277677, 35.919909178586416, 106.93267136959847 " fill="none" id="curve_1" stroke="#000000" stroke-linecap="round" stroke-linejoin="round" stroke-width="4.668261397733728"/>
  <path d="M 35.919909178586416, 106.93267136959847 Q 35.80386518942713, 110.5034380924975, 34.70254233795602, 111.19322434378712 " fill="none" id="curve_1" stroke="#000000" stroke-linecap="round" stroke-linejoin="round" stroke-width="3.901022333414472"/>
  <path d="M 36.029474575406205, 71.12823570337036 Q 50.48617687160748, 71.88209582843862, 65.70803195173916, 73.40974945532099 " fill="none" id="curve_2" stroke="#000000" stroke-linecap="round" stroke-linejoin="round" stroke-width="3.568902763425065"/>
  <path d="M 45.275384681151365, 69.88174016805657 Q 38.72515332321646, 69.89685492037388, 33.08030332888874, 69.92381251288816 " fill="none" id="curve_3" stroke="#000000" stroke-linecap="round" stroke-linejoin="round" stroke-width="2.8675353392921927"/>
  <path d="M 47.692609097814206, 63.82122209382594 Q 44.62266114560294, 66.17023094329922, 42.4752816645322, 76.75518878847903 " fill="none" id="curve_4" stroke="#000000" stroke-linecap="round" stroke-linejoin="round" stroke-width="2.6351486885401014"/>
  <path d="M 42.4752816645322, 76.75518878847903 Q 40.980863961290076, 84.7280467676915, 38.82690703323726, 97.0316016933894 " fill="none" id="curve_4" stroke="#000000" stroke-linecap="round" stroke-linejoin="round" stroke-width="2.449666582572953"/>
  <path d="M 51.15592680218739, 45.20931980691132 Q 51.61984598912826, 43.03652490625885, 52.00315025386276, 37.15739624812005 " fill="none" id="curve_7" stroke="#000000" stroke-linecap="round" stroke-linejoin="round" stroke-width="3.638443765664373"/>
  <path d="M 52.00315025386276, 37.15739624812005 Q 51.71906327113838, 34.754230006518036, 37.11899844892451, 34.59787172364599 " fill="none" id="curve_7" stroke="#000000" stroke-linecap="round" stroke-linejoin="round" stroke-width="3.0542643064853654"/>
  <path d="M 37.11899844892451, 34.59787172364599 Q 37.10971712337462, 35.77909931525889, 37.03192923903851, 36.093666744477034 " fill="none" id="curve_7" stroke="#000000" stroke-linecap="round" stroke-linejoin="round" stroke-width="3.537599777162296"/>
  <path d="M 38.738419335912866, 35.46618229065681 Q 40.710153799312366, 35.32399943340474, 46.39613176593309, 35.11068393953251 " fill="none" id="curve_13" stroke="#000000" stroke-linecap="round" stroke-linejoin="round" stroke-width="2.6346025303191447"/>
  <path d="M 67.4025216951643, 73.32753774824505 Q 67.25607726590263, 73.23313649473198, 66.91654143504773, 73.12007471523945 " fill="none" id="curve_28" stroke="#000000" stroke-linecap="round" stroke-linejoin="round" stroke-width="2.5512841928604097"/>
  <path d="M 47.55281392582978, 35.565394425639454 Q 46.70972856989, 34.776256441113645, 38.28538517522799, 34.52172343718912 " fill="none" id="curve_34" stroke="#000000" stroke-linecap="round" stroke-linejoin="round" stroke-width="2.9266918291119"/>
  <path d="M 49.08633932815886, 50.230329143032854 Q 48.84661589054157, 62.025561389058325, 47.28987544961429, 66.59012440760169 " fill="none" id="curve_50" stroke="#000000" stroke-linecap="round" stroke-linejoin="round" stroke-width="2.3033854820380455"/>
  <path d="M 49.89370887065521, 72.66461975893468 Q 50.27694321940528, 72.71526885059778, 51.74375486498771, 72.75738722715475 " fill="none" id="curve_80" stroke="#000000" stroke-linecap="round" stroke-linejoin="round" stroke-width="3.0646866564532473"/>
  <path d="M 51.561764362902316, 46.552244669132946 Q 50.870696044123456, 46.77373158454442, 49.932374005522036, 47.17508644389354 " fill="none" id="curve_122" stroke="#000000" stroke-linecap="round" stroke-linejoin="round" stroke-width="3.4035669795011505"/>
  <path d="M 45.72202596270874, 36.34913658298017 Q 43.7526506079668, 35.6973099791745, 35.51357292634108, 35.20120210077198 " fill="none" id="curve_127" stroke="#000000" stroke-linecap="round" stroke-linejoin="round" stroke-width="3.0017029435042333"/>
</svg>
