<?xml version="1.0" ?>
<svg height="140" width="140" xmlns="http://www.w3.org/2000/svg">
  <path d="M 37.032833099365234, 87.49530375003815 Q 34.871085868831344, 86.95174094804167, 28.349376405988096, 86.4163573764715 " fill="none" id="curve_1" stroke="#000000" stroke-linecap="round" stroke-linejoin="round" stroke-width="9.496228680418891"/>
  <path d="M 28.349376405988096, 86.4163573764715 Q 27.611607485409316, 93.8606764004295, 23.55450974630573, 104.80918730481206 " fill="none" id="curve_1" stroke="#000000" stroke-linecap="round" stroke-linejoin="round" stroke-width="3.4064800177050087"/>
  <path d="M 23.55450974630573, 104.80918730481206 Q 22.243350971270306, 111.43789209592158, 20.696886647344158, 117.91214069559928 " fill="none" id="curve_1" stroke="#000000" stroke-linecap="round" stroke-linejoin="round" stroke-width="5.085523530474432"/>
  <path d="M 39.53750053750035, 89.43189955514784 Q 40.35235608357194, 88.22905805369305, 44.2201795090485, 87.75335573504691 " fill="none" id="curve_2" stroke="#000000" stroke-linecap="round" stroke-linejoin="round" stroke-width="4.02359166904795"/>
  <path d="M 31.51788885801859, 83.96370570681187 Q 33.77564813299305, 76.173224232393, 40.48734932223695, 59.85590883535461 " fill="none" id="curve_3" stroke="#000000" stroke-linecap="round" stroke-linejoin="round" stroke-width="5.416981696508779"/>
  <path d="M 40.48734932223695, 59.85590883535461 Q 43.88551358246005, 54.60976728855996, 48.23319334995907, 47.055225357182614 " fill="none" id="curve_3" stroke="#000000" stroke-linecap="round" stroke-linejoin="round" stroke-width="3.412335361361344"/>
  <path d="M 48.23319334995907, 47.055225357182614 Q 42.2319195428488, 47.82201812839471, 26.54811680968165, 48.3010598756032 " fill="none" id="curve_3" stroke="#000000" stroke-linecap="round" stroke-linejoin="round" stroke-width="5.777549540480759"/>
  <path d="M 26.54811680968165, 48.3010598756032 Q 25.1365050729485, 46.904800753885326, 22.70017389531997, 45.93687457895337 " fill="none" id="curve_3" stroke="#000000" stroke-linecap="round" stroke-linejoin="round" stroke-width="3.5152402647687255"/>
  <path d="M 17.95818511212962, 84.89281297835066 Q 18.368965470038756, 85.52105965979702, 19.457726234908957, 86.08835737880037 " fill="none" id="curve_4" stroke="#000000" stroke-linecap="round" stroke-linejoin="round" stroke-width="2.2469879834293307"/>
  <path d="M 26.38914949904903, 88.33701090174998 Q 25.866136008712207, 86.44769162756747, 23.734587139416167, 85.6291269374354 " fill="none" id="curve_7" stroke="#000000" stroke-linecap="round" stroke-linejoin="round" stroke-width="3.885094093650073"/>
  <path d="M 25.531174131665146, 99.15327494936446 Q 25.080204495329063, 110.25048198691455, 20.71511886473851, 112.59597401760408 " fill="none" id="curve_8" stroke="#000000" stroke-linecap="round" stroke-linejoin="round" stroke-width="3.919690534307888"/>
  <path d="M 38.687070901572966, 88.09596494617197 Q 38.79689174874911, 87.5531904320932, 38.99695997139553, 87.11483399511529 " fill="none" id="curve_9" stroke="#000000" stroke-linecap="round" stroke-linejoin="round" stroke-width="5.156766835969517"/>
  <path d="M 41.98655283581624, 50.513244773173604 Q 40.42548992714913, 47.2099965285724, 29.35756527399148, 45.912596764299 " fill="none" id="curve_10" stroke="#000000" stroke-linecap="round" stroke-linejoin="round" stroke-width="3.8794120904111566"/>
  <path d="M 46.673273945487, 47.10742654030791 Q 45.65062111958638, 46.69870014027779, 36.168634282996166, 46.59196127705686 " fill="none" id="curve_11" stroke="#000000" stroke-linecap="round" stroke-linejoin="round" stroke-width="2.3839837444393916"/>
  <path d="M 24.072480881010087, 88.20918732645175 Q 24.193100876066612, 87.75678585785433, 24.33390666458715, 87.03746533853612 " fill="none" id="curve_13" stroke="#000000" stroke-linecap="round" stroke-linejoin="round" stroke-width="3.4564703118154805"/>
  <path d="M 24.135190350960674, 103.08904979605944 Q 23.493893749131562, 103.93324406215629, 23.03352473068869, 106.60849459313886 " fill="none" id="curve_14" stroke="#000000" stroke-linecap="round" stroke-linejoin="round" stroke-width="3.246507001734613"/>
  <path d="M 29.92414172719282, 81.05528594314278 Q 31.73253774919119, 79.11114270223088, 34.01750937643771, 76.83434739305 " fill="none" id="curve_29" stroke="#000000" stroke-linecap="round" stroke-linejoin="round" stroke-width="3.8200152009232595"/>
  <path d="M 89.52691876888275, 2.959125518798828 Q 89.60539382646611, 2.1757433961868626, 89.70822357577697, 0.6873666853616669 " fill="none" id="curve_43" stroke="#000000" stroke-linecap="round" stroke-linejoin="round" stroke-width="1.5950967045474576"/>
  <path d="M 24.617980451820017, 84.90586284333716 Q 24.750344616644707, 84.53964795412989, 25.020167874003185, 84.17199066619321 " fill="none" id="curve_71" stroke="#000000" stroke-linecap="round" stroke-linejoin="round" stroke-width="2.7032091346668015"/>
  <path d="M 46.41562400212898, 48.94135150961405 Q 47.24288886618984, 49.14315449566336, 48.4191747804204, 49.46973677937125 " fill="none" id="curve_72" stroke="#000000" stroke-linecap="round" stroke-linejoin="round" stroke-width="2.895254283643615"/>
</svg>
