<?xml version="1.0" ?>
<svg height="140" width="140" xmlns="http://www.w3.org/2000/svg">
  <path d="M 37.039485931396484, 125.56965494155884 Q 36.90209822107828, 123.426775822366, 36.29220762729486, 121.8954415732106 " fill="none" id="curve_1" stroke="#000000" stroke-linecap="round" stroke-linejoin="round" stroke-width="4.797026248681219"/>
  <path d="M 36.29220762729486, 121.8954415732106 Q 39.621847168663535, 113.45663202337462, 48.318813679703865, 96.79061603098602 " fill="none" id="curve_1" stroke="#000000" stroke-linecap="round" stroke-linejoin="round" stroke-width="4.654078940414794"/>
  <path d="M 48.318813679703865, 96.79061603098602 Q 53.06907076765885, 90.87442818619047, 60.3266095203054, 70.32930946895299 " fill="none" id="curve_1" stroke="#000000" stroke-linecap="round" stroke-linejoin="round" stroke-width="4.451580349340729"/>
  <path d="M 60.3266095203054, 70.32930946895299 Q 60.23089476265105, 61.18990617884246, 57.905779984431454, 60.372091206816606 " fill="none" id="curve_1" stroke="#000000" stroke-linecap="round" stroke-linejoin="round" stroke-width="4.602175384087794"/>
  <path d="M 57.905779984431454, 60.372091206816606 Q 45.228371850517014, 60.632714916667666, 32.36249055844441, 61.11446371154352 " fill="none" id="curve_1" stroke="#000000" stroke-linecap="round" stroke-linejoin="round" stroke-width="4.443661888106563"/>
  <path d="M 30.988494523172093, 94.3712794967002 Q 36.37181449581793, 95.17826629541005, 54.348268878509145, 95.64156338604964 " fill="none" id="curve_2" stroke="#000000" stroke-linecap="round" stroke-linejoin="round" stroke-width="4.829885394380851"/>
  <path d="M 54.348268878509145, 95.64156338604964 Q 62.91282782799108, 95.69758758201331, 69.10517344354304, 95.80846673043945 " fill="none" id="curve_2" stroke="#000000" stroke-linecap="round" stroke-linejoin="round" stroke-width="3.051993194289722"/>
  <path d="M 47.1702146400615, 93.69350739588114 Q 45.00581595727176, 93.44465401876926, 40.63538387738369, 93.24106025303796 " fill="none" id="curve_3" stroke="#000000" stroke-linecap="round" stroke-linejoin="round" stroke-width="2.9659814229820713"/>
  <path d="M 57.80898497352175, 75.49716071699639 Q 58.23562573655916, 69.307897063984, 59.28087688846505, 64.58707085175442 " fill="none" id="curve_4" stroke="#000000" stroke-linecap="round" stroke-linejoin="round" stroke-width="2.948369879085475"/>
  <path d="M 29.4897024775307, 61.13095435199965 Q 30.1758947549276, 60.68889643425432, 31.26855755286749, 60.110983729112334 " fill="none" id="curve_7" stroke="#000000" stroke-linecap="round" stroke-linejoin="round" stroke-width="2.229558673579982"/>
  <path d="M 53.51555959534657, 86.51319326227693 Q 53.51472235965202, 85.91956853564756, 53.51380002595515, 84.95069314769387 " fill="none" id="curve_8" stroke="#000000" stroke-linecap="round" stroke-linejoin="round" stroke-width="4.7979923499083705"/>
  <path d="M 35.74211455719286, 125.30991139311712 Q 35.81423728226133, 125.6308855014196, 35.926829103474454, 126.0698334408817 " fill="none" id="curve_9" stroke="#000000" stroke-linecap="round" stroke-linejoin="round" stroke-width="3.5755573527004967"/>
  <path d="M 35.96447421348334, 126.11883337856388 Q 36.132627725062534, 124.7625869850297, 36.496791056348016, 122.50986669712653 " fill="none" id="curve_15" stroke="#000000" stroke-linecap="round" stroke-linejoin="round" stroke-width="2.319677623782786"/>
  <path d="M 45.38920277243313, 60.83270023292711 Q 43.56210565699547, 60.475783516095376, 38.3376462043928, 60.13606119235408 " fill="none" id="curve_35" stroke="#000000" stroke-linecap="round" stroke-linejoin="round" stroke-width="2.7710279830619453"/>
  <path d="M 2.1466522216796875, 1.4974708557128906 Q 1.8277320671178587, 1.7673164289132777, 1.1969806084217538, 2.1986749264344 " fill="none" id="curve_127" stroke="#000000" stroke-linecap="round" stroke-linejoin="round" stroke-width="2.096243518020108"/>
</svg>
