<?xml version="1.0" ?>
<svg height="140" width="140" xmlns="http://www.w3.org/2000/svg">
  <path d="M 40.35417175292969, 63.977115631103516 Q 44.545711505034696, 63.97417586294965, 47.690653149457034, 63.96668836164491 " fill="none" id="curve_1" stroke="#000000" stroke-linecap="round" stroke-linejoin="round" stroke-width="4.996808478322045"/>
  <path d="M 47.690653149457034, 63.96668836164491 Q 42.86462519758266, 69.55393605077654, 35.355864047813675, 92.7331028913048 " fill="none" id="curve_1" stroke="#000000" stroke-linecap="round" stroke-linejoin="round" stroke-width="5.1801849459183025"/>
  <path d="M 35.355864047813675, 92.7331028913048 Q 34.974127058117965, 109.25827752941073, 31.527320158695137, 112.63239176453584 " fill="none" id="curve_1" stroke="#000000" stroke-linecap="round" stroke-linejoin="round" stroke-width="4.549441095063849"/>
  <path d="M 41.95016148232121, 92.10800636288687 Q 42.35463110681594, 92.26057732456837, 47.507795210466874, 92.29349500392227 " fill="none" id="curve_2" stroke="#000000" stroke-linecap="round" stroke-linejoin="round" stroke-width="3.4216743186060623"/>
  <path d="M 47.507795210466874, 92.29349500392227 Q 41.047272839684496, 93.08723909377632, 21.241710478945453, 93.68064975930328 " fill="none" id="curve_2" stroke="#000000" stroke-linecap="round" stroke-linejoin="round" stroke-width="4.941172438592948"/>
  <path d="M 21.241710478945453, 93.68064975930328 Q 16.155582687224562, 93.49832444208714, 13.41940158682428, 92.99530393153627 " fill="none" id="curve_2" stroke="#000000" stroke-linecap="round" stroke-linejoin="round" stroke-width="4.38458769790569"/>
  <path d="M 12.6836371097574, 59.135317492266665 Q 19.69072175271889, 61.71351634552542, 42.71896766788592, 63.782633829748804 " fill="none" id="curve_3" stroke="#000000" stroke-linecap="round" stroke-linejoin="round" stroke-width="5.350441798864441"/>
  <path d="M 51.81501052472076, 92.01124472770978 Q 50.9397974468233, 92.53058427860434, 48.45834127703629, 92.840692974745 " fill="none" id="curve_4" stroke="#000000" stroke-linecap="round" stroke-linejoin="round" stroke-width="3.47085281376065"/>
  <path d="M 21.690193506423388, 59.588184882691635 Q 18.054530423980598, 58.70948830182207, 11.44779242842622, 57.71727749060418 " fill="none" id="curve_6" stroke="#000000" stroke-linecap="round" stroke-linejoin="round" stroke-width="2.889951580855433"/>
  <path d="M 25.393378712631858, 63.757607992359915 Q 33.63132201338297, 62.995666527921706, 47.62580280921452, 61.808565291413245 " fill="none" id="curve_7" stroke="#000000" stroke-linecap="round" stroke-linejoin="round" stroke-width="2.7719191994562595"/>
  <path d="M 37.00817423545452, 89.0908386938166 Q 37.9000770893834, 90.27935383408035, 38.50483750291451, 93.48586891519179 " fill="none" id="curve_9" stroke="#000000" stroke-linecap="round" stroke-linejoin="round" stroke-width="2.80856736491241"/>
  <path d="M 38.50483750291451, 93.48586891519179 Q 34.349085940589276, 98.42455556228417, 32.42671456161489, 113.05364112338435 " fill="none" id="curve_9" stroke="#000000" stroke-linecap="round" stroke-linejoin="round" stroke-width="3.5436713199101435"/>
  <path d="M 32.42671456161489, 113.05364112338435 Q 32.922429359683235, 110.13506416204748, 33.67943193732644, 107.12733841554875 " fill="none" id="curve_9" stroke="#000000" stroke-linecap="round" stroke-linejoin="round" stroke-width="4.5795797837436645"/>
  <path d="M 33.67943193732644, 107.12733841554875 Q 36.39898435099412, 103.49063896447528, 37.63266689873973, 86.39615138813694 " fill="none" id="curve_9" stroke="#000000" stroke-linecap="round" stroke-linejoin="round" stroke-width="3.223568248662296"/>
  <path d="M 89.91605505829945, 51.52172908374891 Q 89.78094374500405, 59.66009963574484, 89.51935136391702, 73.2676169485718 " fill="none" id="curve_12" stroke="#000000" stroke-linecap="round" stroke-linejoin="round" stroke-width="1.5014577652021657"/>
  <path d="M 89.51935136391702, 73.2676169485718 Q 89.56060747079363, 83.46197191485177, 89.83922483856983, 98.8983289317049 " fill="none" id="curve_12" stroke="#000000" stroke-linecap="round" stroke-linejoin="round" stroke-width="1.6350616053309037"/>
  <path d="M 89.83922483856983, 98.8983289317049 Q 89.71689090190769, 101.54557029591355, 89.60369174667576, 120.05820160156976 " fill="none" id="curve_12" stroke="#000000" stroke-linecap="round" stroke-linejoin="round" stroke-width="1.4536860822191655"/>
  <path d="M 89.60369174667576, 120.05820160156976 Q 89.59635470763624, 133.40299868158849, 89.55744924494051, 138.50715620242926 " fill="none" id="curve_12" stroke="#000000" stroke-linecap="round" stroke-linejoin="round" stroke-width="1.671087948124285"/>
  <path d="M 89.55744924494051, 138.50715620242926 Q 89.54413894063974, 138.45370291925346, 89.51768921360396, 138.4026860136555 " fill="none" id="curve_12" stroke="#000000" stroke-linecap="round" stroke-linejoin="round" stroke-width="1.6226578019484381"/>
  <path d="M 45.04441407138277, 72.72764446781926 Q 38.48512490225849, 73.68908964308271, 37.07908742091275, 82.58396405787968 " fill="none" id="curve_17" stroke="#000000" stroke-linecap="round" stroke-linejoin="round" stroke-width="3.408623423219786"/>
  <path d="M 37.07908742091275, 82.58396405787968 Q 38.43217328568795, 83.1449143355668, 39.789508820665915, 84.90090224711543 " fill="none" id="curve_17" stroke="#000000" stroke-linecap="round" stroke-linejoin="round" stroke-width="2.7509413226981274"/>
  <path d="M 32.473795240351095, 107.52099695246017 Q 32.77222457240016, 107.89046872512986, 33.49751419490083, 108.61547973040264 " fill="none" id="curve_20" stroke="#000000" stroke-linecap="round" stroke-linejoin="round" stroke-width="2.757149974773402"/>
  <path d="M 33.49751419490083, 108.61547973040264 Q 33.460825105824824, 109.39261591113029, 33.31461836202849, 110.3953416156284 " fill="none" id="curve_20" stroke="#000000" stroke-linecap="round" stroke-linejoin="round" stroke-width="2.8126055034719863"/>
  <path d="M 33.31461836202849, 110.3953416156284 Q 33.95352115632841, 104.86479042081378, 35.60606935598334, 93.2705164181421 " fill="none" id="curve_20" stroke="#000000" stroke-linecap="round" stroke-linejoin="round" stroke-width="2.4099592570299038"/>
  <path d="M 22.160989411703817, 95.52680904379122 Q 22.13630471968586, 94.96818129141228, 22.031188035326434, 94.52763149473454 " fill="none" id="curve_27" stroke="#000000" stroke-linecap="round" stroke-linejoin="round" stroke-width="3.0028337729059533"/>
  <path d="M 89.92811699078707, 47.14481892910173 Q 89.88531865809635, 42.143398542024286, 89.83637440598405, 24.617120343426592 " fill="none" id="curve_32" stroke="#000000" stroke-linecap="round" stroke-linejoin="round" stroke-width="1.9544507586868307"/>
  <path d="M 89.83637440598405, 24.617120343426592 Q 89.7240303629924, 10.83538580130003, 89.19930673945363, 0.6222666404648898 " fill="none" id="curve_32" stroke="#000000" stroke-linecap="round" stroke-linejoin="round" stroke-width="2.009114255688805"/>
  <path d="M 89.68907482867873, 49.865117088318584 Q 89.63104774892872, 49.78478676311619, 89.5558109265552, 49.60873524761171 " fill="none" id="curve_47" stroke="#000000" stroke-linecap="round" stroke-linejoin="round" stroke-width="1.672585493781268"/>
  <path d="M 31.077183259591056, 110.5133350494523 Q 31.30927077521191, 111.37512823713402, 32.20042046951594, 112.24446143200639 " fill="none" id="curve_57" stroke="#000000" stroke-linecap="round" stroke-linejoin="round" stroke-width="2.9336554076748915"/>
  <path d="M 39.27851451452522, 62.88179024376015 Q 37.2473064730542, 62.87390566185517, 31.08699928318377, 62.862389083018414 " fill="none" id="curve_64" stroke="#000000" stroke-linecap="round" stroke-linejoin="round" stroke-width="2.817939747160194"/>
  <path d="M 39.19360739279048, 88.19796883234426 Q 38.87842540715481, 85.90029271769404, 38.467159409899416, 81.57778961332563 " fill="none" id="curve_79" stroke="#000000" stroke-linecap="round" stroke-linejoin="round" stroke-width="2.273582961175996"/>
  <path d="M 45.55408477783203, 71.70610237121582 Q 43.01461257820747, 71.8187298965845, 40.6956735577171, 72.19045918682869 " fill="none" id="curve_106" stroke="#000000" stroke-linecap="round" stroke-linejoin="round" stroke-width="3.2902504655510945"/>
  <path d="M 44.902248266128595, 68.59044679758836 Q 43.87427553652776, 65.56345963562278, 38.8263190487357, 63.613985192478715 " fill="none" id="curve_121" stroke="#000000" stroke-linecap="round" stroke-linejoin="round" stroke-width="2.237150209120415"/>
  <path d="M 34.71776175226522, 61.50516131172921 Q 33.751248313297815, 63.68219899229377, 30.35889828042131, 64.42199865725271 " fill="none" id="curve_150" stroke="#000000" stroke-linecap="round" stroke-linejoin="round" stroke-width="2.716488094085103"/>
  <path d="M 34.022998878103074, 109.70010678720259 Q 33.50666340167371, 104.61593860384838, 33.05447948691059, 92.67314227092064 " fill="none" id="curve_153" stroke="#000000" stroke-linecap="round" stroke-linejoin="round" stroke-width="2.790791191245492"/>
  <path d="M 32.28087790303209, 105.40574819749406 Q 32.78166420819285, 106.15858413906912, 33.62572536141862, 107.48090321677813 " fill="none" id="curve_181" stroke="#000000" stroke-linecap="round" stroke-linejoin="round" stroke-width="3.009427266721164"/>
</svg>
