<?xml version="1.0" ?>
<svg height="140" width="140" xmlns="http://www.w3.org/2000/svg">
  <path d="M 41.9923095703125, 77.1888427734375 Q 40.41859262060275, 76.71400308305756, 37.23344041040366, 75.84889250786449 " fill="none" id="curve_1" stroke="#000000" stroke-linecap="round" stroke-linejoin="round" stroke-width="10.749186045740705"/>
  <path d="M 37.23344041040366, 75.84889250786449 Q 34.29365239388292, 77.83335337891646, 25.73520588100954, 80.01414098354826 " fill="none" id="curve_1" stroke="#000000" stroke-linecap="round" stroke-linejoin="round" stroke-width="6.2968617136618565"/>
  <path d="M 37.0307576236345, 80.94697725197034 Q 32.92106339204345, 90.04247927925024, 28.330691098943433, 109.09023461711614 " fill="none" id="curve_2" stroke="#000000" stroke-linecap="round" stroke-linejoin="round" stroke-width="5.410495352618246"/>
  <path d="M 45.3419407623056, 75.48521745674691 Q 41.43901498361375, 75.12938681705957, 39.32011689350133, 73.65858477749856 " fill="none" id="curve_3" stroke="#000000" stroke-linecap="round" stroke-linejoin="round" stroke-width="4.493193014052048"/>
  <path d="M 39.32011689350133, 73.65858477749856 Q 41.38029423853319, 65.49057113013684, 43.94138565731018, 51.80880181353241 " fill="none" id="curve_3" stroke="#000000" stroke-linecap="round" stroke-linejoin="round" stroke-width="5.761485074421008"/>
  <path d="M 43.94138565731018, 51.80880181353241 Q 43.78899429349356, 34.611839656515514, 27.854183596713632, 33.910479171173776 " fill="none" id="curve_3" stroke="#000000" stroke-linecap="round" stroke-linejoin="round" stroke-width="5.815778498875253"/>
  <path d="M 27.854183596713632, 33.910479171173776 Q 13.486843108000091, 34.60854615488765, 10.32995006029433, 40.02674849066119 " fill="none" id="curve_3" stroke="#000000" stroke-linecap="round" stroke-linejoin="round" stroke-width="3.5688298618072407"/>
  <path d="M 24.18423027391785, 76.77410598558909 Q 23.52154579221251, 79.07636649921497, 21.94363928645804, 80.70274695510787 " fill="none" id="curve_4" stroke="#000000" stroke-linecap="round" stroke-linejoin="round" stroke-width="5.621121224143159"/>
  <path d="M 46.654972282967805, 74.76796537380801 Q 49.70361359602579, 74.56340331215964, 51.520005919848806, 73.93083266027078 " fill="none" id="curve_5" stroke="#000000" stroke-linecap="round" stroke-linejoin="round" stroke-width="2.807610391599388"/>
  <path d="M 41.81780710892381, 56.37884238780525 Q 41.89767212508076, 66.49527257855758, 42.735369221552276, 67.96470212409648 " fill="none" id="curve_6" stroke="#000000" stroke-linecap="round" stroke-linejoin="round" stroke-width="3.71252016747502"/>
  <path d="M 39.903237010506366, 56.65647265775882 Q 39.88838696874267, 65.0557951957346, 39.83293949935765, 71.7401563546231 " fill="none" id="curve_7" stroke="#000000" stroke-linecap="round" stroke-linejoin="round" stroke-width="2.502837272634514"/>
  <path d="M 28.353418911522745, 109.31330984001767 Q 29.613582134624007, 93.20930461227115, 36.41345184591873, 80.88259871954716 " fill="none" id="curve_8" stroke="#000000" stroke-linecap="round" stroke-linejoin="round" stroke-width="3.253836968333415"/>
  <path d="M 29.305263378155512, 108.4155188560809 Q 29.1763330609561, 103.07888856985903, 28.62892161568209, 100.94569398078522 " fill="none" id="curve_9" stroke="#000000" stroke-linecap="round" stroke-linejoin="round" stroke-width="3.972080512567232"/>
  <path d="M 41.073543905919976, 38.18056919596398 Q 41.208632844007504, 37.87975579846642, 41.35625151452257, 37.30660571859351 " fill="none" id="curve_11" stroke="#000000" stroke-linecap="round" stroke-linejoin="round" stroke-width="4.581203813751769"/>
  <path d="M 12.524885456153203, 38.340248015253835 Q 11.544236745102738, 38.87921405919698, 9.988736651978957, 39.64066804472999 " fill="none" id="curve_12" stroke="#000000" stroke-linecap="round" stroke-linejoin="round" stroke-width="3.06763510731226"/>
  <path d="M 31.181967735290527, 99.8560791015625 Q 33.755401375696174, 96.76017199015841, 35.404704177364465, 80.0088357260397 " fill="none" id="curve_26" stroke="#000000" stroke-linecap="round" stroke-linejoin="round" stroke-width="3.5580021482454622"/>
  <path d="M 89.24655568971076, 137.76541979486115 Q 89.49860842039561, 137.47782053109077, 89.72849613996208, 136.64580679589164 " fill="none" id="curve_41" stroke="#000000" stroke-linecap="round" stroke-linejoin="round" stroke-width="1.7861211245298543"/>
  <path d="M 45.0622437035361, 56.15807868076034 Q 44.81717176284195, 54.68258713347882, 42.08223448288204, 54.45237911570342 " fill="none" id="curve_59" stroke="#000000" stroke-linecap="round" stroke-linejoin="round" stroke-width="4.61117008921287"/>
  <path d="M 28.459681538370404, 108.17522402359701 Q 29.79160675084566, 103.01108400968016, 31.834648988725068, 93.64494351743713 " fill="none" id="curve_68" stroke="#000000" stroke-linecap="round" stroke-linejoin="round" stroke-width="2.6942490720488825"/>
  <path d="M 28.442327976226807, 100.70092391967773 Q 29.828555794121485, 103.46469504649188, 31.56251387574548, 106.55136655623164 " fill="none" id="curve_95" stroke="#000000" stroke-linecap="round" stroke-linejoin="round" stroke-width="2.709477937440167"/>
  <path d="M 38.92470077963128, 70.42549247872907 Q 38.510517189864, 70.34304847881266, 38.10770458756123, 70.20018398334688 " fill="none" id="curve_98" stroke="#000000" stroke-linecap="round" stroke-linejoin="round" stroke-width="4.218300731742335"/>
</svg>
