<?xml version="1.0" ?>
<svg height="140" width="140" xmlns="http://www.w3.org/2000/svg">
  <path d="M 76.09926748275757, 47.039424896240234 Q 74.86519562626316, 49.206171568349006, 59.13775897832136, 49.85109551284435 " fill="none" id="curve_1" stroke="#000000" stroke-linecap="round" stroke-linejoin="round" stroke-width="6.912162326852854"/>
  <path d="M 59.13775897832136, 49.85109551284435 Q 52.814656786916075, 51.62619879345926, 48.35941712597841, 70.49998627152118 " fill="none" id="curve_1" stroke="#000000" stroke-linecap="round" stroke-linejoin="round" stroke-width="3.573840814998221"/>
  <path d="M 48.35941712597841, 70.49998627152118 Q 48.330010806868714, 74.78330603350638, 48.22679794057064, 77.17385914412802 " fill="none" id="curve_1" stroke="#000000" stroke-linecap="round" stroke-linejoin="round" stroke-width="6.04920735742074"/>
  <path d="M 51.26463931604471, 49.98290615678319 Q 48.35493609873346, 49.07023063483484, 40.038637169870185, 48.124857893563295 " fill="none" id="curve_2" stroke="#000000" stroke-linecap="round" stroke-linejoin="round" stroke-width="4.2536046145393325"/>
  <path d="M 53.155398542975945, 49.48228232386818 Q 59.23973122112509, 45.309256052879114, 65.27039811003812, 23.096681948027694 " fill="none" id="curve_3" stroke="#000000" stroke-linecap="round" stroke-linejoin="round" stroke-width="5.24917311805004"/>
  <path d="M 65.27039811003812, 23.096681948027694 Q 66.773965996472, 21.408138953534568, 69.28558061226944, 20.190472407924048 " fill="none" id="curve_3" stroke="#000000" stroke-linecap="round" stroke-linejoin="round" stroke-width="6.010069516097803"/>
  <path d="M 69.28558061226944, 20.190472407924048 Q 62.262875614785244, 22.688110524373112, 40.98253012091847, 25.92066419774777 " fill="none" id="curve_3" stroke="#000000" stroke-linecap="round" stroke-linejoin="round" stroke-width="5.557555051253379"/>
  <path d="M 40.98253012091847, 25.92066419774777 Q 32.86404911907336, 25.739674740913312, 20.747657715443506, 25.583428201898514 " fill="none" id="curve_3" stroke="#000000" stroke-linecap="round" stroke-linejoin="round" stroke-width="5.084497440990542"/>
  <path d="M 75.15857360069663, 50.91713736963434 Q 76.00721698128403, 50.63231239074157, 76.47487772300667, 49.70706825525986 " fill="none" id="curve_5" stroke="#000000" stroke-linecap="round" stroke-linejoin="round" stroke-width="5.746027511617098"/>
  <path d="M 46.15653197778491, 72.5641087665156 Q 46.45297504607167, 74.81578349553062, 47.00423501269946, 77.94177497412906 " fill="none" id="curve_6" stroke="#000000" stroke-linecap="round" stroke-linejoin="round" stroke-width="2.9364665429737022"/>
  <path d="M 47.46424218580945, 70.1794147233639 Q 49.777629939202704, 68.31402794721464, 51.74185270031177, 63.332789263413645 " fill="none" id="curve_8" stroke="#000000" stroke-linecap="round" stroke-linejoin="round" stroke-width="2.7136605297780343"/>
  <path d="M 36.08375674977608, 24.241806138389144 Q 39.15784622145381, 24.447965144212727, 46.36942150464873, 24.686710359209247 " fill="none" id="curve_9" stroke="#000000" stroke-linecap="round" stroke-linejoin="round" stroke-width="2.8073264457865785"/>
  <path d="M 71.37456560050913, 48.877134543721766 Q 71.66546909108447, 49.198975375434415, 72.61764112577322, 49.54888218037753 " fill="none" id="curve_16" stroke="#000000" stroke-linecap="round" stroke-linejoin="round" stroke-width="4.6140893096482545"/>
  <path d="M 72.61764112577322, 49.54888218037753 Q 67.65728964400459, 49.33497646726429, 55.55130197834232, 48.88728571728116 " fill="none" id="curve_16" stroke="#000000" stroke-linecap="round" stroke-linejoin="round" stroke-width="3.264978902124077"/>
  <path d="M 57.1439513968532, 48.40728307068403 Q 58.21032369782196, 36.060477475792666, 64.13340736842694, 29.387863572597507 " fill="none" id="curve_20" stroke="#000000" stroke-linecap="round" stroke-linejoin="round" stroke-width="2.4059145866667397"/>
  <path d="M 46.119864915364495, 49.234819865276656 Q 44.194698817920155, 49.1885848999073, 40.26706775120217, 49.11385034551871 " fill="none" id="curve_23" stroke="#000000" stroke-linecap="round" stroke-linejoin="round" stroke-width="3.2547051713308806"/>
  <path d="M 70.21896200212366, 18.560153118357455 Q 67.97993809194251, 20.164128063672234, 59.739780653660524, 22.07430376769714 " fill="none" id="curve_27" stroke="#000000" stroke-linecap="round" stroke-linejoin="round" stroke-width="3.101022499392004"/>
  <path d="M 49.96740837806634, 77.69182988606184 Q 49.22028044148389, 77.90689014856831, 47.30742147527467, 78.22180294201517 " fill="none" id="curve_29" stroke="#000000" stroke-linecap="round" stroke-linejoin="round" stroke-width="2.884493466611162"/>
  <path d="M 68.81018673898461, 51.02961259943197 Q 67.78690835934415, 50.939180808508524, 66.83363394365632, 50.666422324031004 " fill="none" id="curve_33" stroke="#000000" stroke-linecap="round" stroke-linejoin="round" stroke-width="2.635920353316196"/>
  <path d="M 59.755925118415234, 41.76614408984722 Q 59.51431934308888, 43.797913642105264, 59.16930640046879, 47.65384457913077 " fill="none" id="curve_87" stroke="#000000" stroke-linecap="round" stroke-linejoin="round" stroke-width="1.9539434418740862"/>
  <path d="M 48.59083842569879, 48.8675519273434 Q 50.10629716834724, 48.74182041053549, 52.13845667403066, 48.48217122624269 " fill="none" id="curve_145" stroke="#000000" stroke-linecap="round" stroke-linejoin="round" stroke-width="2.0732356290043183"/>
  <path d="M 44.02561639189301, 24.677442002496512 Q 35.90795978000761, 25.220282828604528, 22.25230031124791, 26.36344397690047 " fill="none" id="curve_148" stroke="#000000" stroke-linecap="round" stroke-linejoin="round" stroke-width="2.485181376831136"/>
  <path d="M 22.25230031124791, 26.36344397690047 Q 22.267149486047952, 25.526394531869574, 22.345411728164187, 24.953565953180686 " fill="none" id="curve_148" stroke="#000000" stroke-linecap="round" stroke-linejoin="round" stroke-width="3.096586087269062"/>
</svg>
