<?xml version="1.0" ?>
<svg height="140" width="140" xmlns="http://www.w3.org/2000/svg">
  <path d="M 80.43091528809305, 66.32799205350716 Q 76.20790827260028, 67.21588959700328, 60.318106366435956, 67.92689270001456 " fill="none" id="curve_2" stroke="#000000" stroke-linecap="round" stroke-linejoin="round" stroke-width="5.320423505010755"/>
  <path d="M 60.318106366435956, 67.92689270001456 Q 45.28471718105504, 67.98173422927738, 42.1469247520235, 68.5417487424887 " fill="none" id="curve_2" stroke="#000000" stroke-linecap="round" stroke-linejoin="round" stroke-width="6.52426412099897"/>
  <path d="M 42.1469247520235, 68.5417487424887 Q 38.627978535448904, 72.77645490969533, 30.795246433937617, 98.64658899642296 " fill="none" id="curve_2" stroke="#000000" stroke-linecap="round" stroke-linejoin="round" stroke-width="3.647623632428802"/>
  <path d="M 30.795246433937617, 98.64658899642296 Q 35.999563812694625, 89.39090585842172, 48.24618162775895, 65.25145989277655 " fill="none" id="curve_2" stroke="#000000" stroke-linecap="round" stroke-linejoin="round" stroke-width="4.165286478211368"/>
  <path d="M 48.24618162775895, 65.25145989277655 Q 51.943995440317245, 53.96371205816977, 59.24555560050937, 37.38120982405195 " fill="none" id="curve_2" stroke="#000000" stroke-linecap="round" stroke-linejoin="round" stroke-width="5.767591340173204"/>
  <path d="M 59.24555560050937, 37.38120982405195 Q 58.80120979742912, 40.65980856269816, 31.186313587704305, 40.77816722329222 " fill="none" id="curve_2" stroke="#000000" stroke-linecap="round" stroke-linejoin="round" stroke-width="4.437728410056746"/>
  <path d="M 31.186313587704305, 40.77816722329222 Q 29.451349887533954, 38.23081057976518, 22.78116283831251, 37.16831259731298 " fill="none" id="curve_2" stroke="#000000" stroke-linecap="round" stroke-linejoin="round" stroke-width="4.242273807718447"/>
  <path d="M 36.98815617028441, 69.88884475092289 Q 35.96836327302775, 71.29092678922612, 35.440319300416164, 76.52235562425739 " fill="none" id="curve_3" stroke="#000000" stroke-linecap="round" stroke-linejoin="round" stroke-width="2.9154338013851198"/>
  <path d="M 52.956334175938764, 49.1057979928409 Q 50.59749379153171, 58.91067699754609, 45.36802194244173, 66.90639483372199 " fill="none" id="curve_4" stroke="#000000" stroke-linecap="round" stroke-linejoin="round" stroke-width="2.9545167803380044"/>
  <path d="M 32.45803709439092, 88.25660541851931 Q 32.865687194438486, 90.28205913295795, 33.123108944387546, 94.73107884072822 " fill="none" id="curve_5" stroke="#000000" stroke-linecap="round" stroke-linejoin="round" stroke-width="5.306232003792592"/>
  <path d="M 33.123108944387546, 94.73107884072822 Q 33.10428800961203, 92.67850123457356, 33.08699613978995, 89.35213980797562 " fill="none" id="curve_5" stroke="#000000" stroke-linecap="round" stroke-linejoin="round" stroke-width="6.043910229887472"/>
  <path d="M 51.056006095724186, 58.25600318686237 Q 53.1327954267303, 48.73567094239199, 57.429104663515076, 38.637114569901456 " fill="none" id="curve_6" stroke="#000000" stroke-linecap="round" stroke-linejoin="round" stroke-width="3.5983290120785023"/>
  <path d="M 42.03234802974247, 39.63458729554226 Q 40.63178854505357, 39.471909848579614, 36.50736402852016, 39.17440073792313 " fill="none" id="curve_12" stroke="#000000" stroke-linecap="round" stroke-linejoin="round" stroke-width="2.623005899481075"/>
  <path d="M 36.50736402852016, 39.17440073792313 Q 42.78325838963256, 39.27339568598882, 52.8229494950785, 39.53068494516651 " fill="none" id="curve_12" stroke="#000000" stroke-linecap="round" stroke-linejoin="round" stroke-width="2.597393260958744"/>
  <path d="M 89.02663327882155, 2.42506307988279 Q 89.41171975312115, 2.221056139802701, 89.92177671574775, 1.7162768413131082 " fill="none" id="curve_13" stroke="#000000" stroke-linecap="round" stroke-linejoin="round" stroke-width="2.1930271092740683"/>
  <path d="M 54.916961472447134, 44.01194760949949 Q 51.16877504992876, 49.203846399213845, 48.78190672752561, 63.809238997363074 " fill="none" id="curve_14" stroke="#000000" stroke-linecap="round" stroke-linejoin="round" stroke-width="2.72784694139054"/>
  <path d="M 49.013293545633296, 57.62676003773853 Q 55.072809431211994, 53.53382736639371, 58.91014623183583, 36.25495837247972 " fill="none" id="curve_15" stroke="#000000" stroke-linecap="round" stroke-linejoin="round" stroke-width="2.9873919442651173"/>
  <path d="M 40.489222398588446, 69.06270021441412 Q 40.27001301309233, 68.21124936739902, 39.60148643333211, 67.59602955306869 " fill="none" id="curve_16" stroke="#000000" stroke-linecap="round" stroke-linejoin="round" stroke-width="4.624269892012596"/>
  <path d="M 38.250640352728425, 38.970943343327505 Q 35.078814996038524, 39.107120326660485, 28.134622946582603, 39.286717865178844 " fill="none" id="curve_18" stroke="#000000" stroke-linecap="round" stroke-linejoin="round" stroke-width="2.912960390812583"/>
  <path d="M 56.695278170733374, 42.6943421872875 Q 52.76944092291411, 47.313004327459446, 50.1264404136846, 59.960446901799344 " fill="none" id="curve_21" stroke="#000000" stroke-linecap="round" stroke-linejoin="round" stroke-width="3.1329441585173856"/>
  <path d="M 33.25091885053958, 89.03307929722006 Q 32.856994081807, 88.26436468627527, 32.14714404317916, 87.2941014356757 " fill="none" id="curve_25" stroke="#000000" stroke-linecap="round" stroke-linejoin="round" stroke-width="3.8674812194897275"/>
  <path d="M 66.33903072923681, 69.27012516108766 Q 66.28577433057859, 69.04993957411008, 66.18919157409186, 68.7315046722848 " fill="none" id="curve_40" stroke="#000000" stroke-linecap="round" stroke-linejoin="round" stroke-width="3.127397065403106"/>
  <path d="M 50.12208726787352, 59.220321737601054 Q 54.412823178967706, 57.40113770670906, 55.74957628709825, 43.34384097025258 " fill="none" id="curve_42" stroke="#000000" stroke-linecap="round" stroke-linejoin="round" stroke-width="2.77666774446824"/>
  <path d="M 32.61390097301772, 95.06116726408831 Q 34.952945356842704, 92.50543528856421, 37.28574491600397, 88.9674581381949 " fill="none" id="curve_48" stroke="#000000" stroke-linecap="round" stroke-linejoin="round" stroke-width="3.201235145646416"/>
  <path d="M 59.11894481424258, 35.83293939500959 Q 58.81853887162802, 35.756512689139896, 57.70705639321201, 35.665069676447295 " fill="none" id="curve_89" stroke="#000000" stroke-linecap="round" stroke-linejoin="round" stroke-width="2.479517613354154"/>
  <path d="M 61.19284779372401, 67.15615327652449 Q 54.95506405915742, 66.79459883277532, 48.204290395511386, 65.70698503054706 " fill="none" id="curve_117" stroke="#000000" stroke-linecap="round" stroke-linejoin="round" stroke-width="2.435000649582629"/>
  <path d="M 53.9833480615216, 41.1279735011246 Q 55.541766838415015, 40.63186616444228, 57.28288418535066, 39.637016956704485 " fill="none" id="curve_118" stroke="#000000" stroke-linecap="round" stroke-linejoin="round" stroke-width="3.0604211270192607"/>
</svg>
