<?xml version="1.0" ?>
<svg height="140" width="140" xmlns="http://www.w3.org/2000/svg">
  <path d="M 47.131086349487305, 74.281729221344 Q 45.809284407219856, 74.79704114800923, 41.491510648613485, 75.18903390877264 " fill="none" id="curve_1" stroke="#000000" stroke-linecap="round" stroke-linejoin="round" stroke-width="5.3736360334778785"/>
  <path d="M 41.491510648613485, 75.18903390877264 Q 51.63470351472547, 74.87797566563755, 57.24313257204469, 73.71029303414926 " fill="none" id="curve_1" stroke="#000000" stroke-linecap="round" stroke-linejoin="round" stroke-width="7.91934315942533"/>
  <path d="M 57.24313257204469, 73.71029303414926 Q 54.09587010694419, 82.95218732571095, 46.42781346630895, 101.44751406066742 " fill="none" id="curve_1" stroke="#000000" stroke-linecap="round" stroke-linejoin="round" stroke-width="4.64124062712066"/>
  <path d="M 59.568720535914366, 71.51742064100213 Q 64.55994184952962, 61.2072398030154, 74.85340842871757, 39.31304714570045 " fill="none" id="curve_2" stroke="#000000" stroke-linecap="round" stroke-linejoin="round" stroke-width="5.0642574463656915"/>
  <path d="M 74.85340842871757, 39.31304714570045 Q 63.01366748546208, 40.66420431549058, 36.06294949310533, 44.231616494321884 " fill="none" id="curve_2" stroke="#000000" stroke-linecap="round" stroke-linejoin="round" stroke-width="5.374371750541346"/>
  <path d="M 64.77391635503794, 70.0006988783827 Q 68.83808817747486, 69.20441885979277, 72.98038652712319, 67.99035143457019 " fill="none" id="curve_3" stroke="#000000" stroke-linecap="round" stroke-linejoin="round" stroke-width="4.0453334643918435"/>
  <path d="M 43.19933437424598, 71.74949568632535 Q 43.10170289994094, 71.73998776276213, 43.02057620615122, 71.72099702681527 " fill="none" id="curve_7" stroke="#000000" stroke-linecap="round" stroke-linejoin="round" stroke-width="5.557314896281708"/>
  <path d="M 34.93657232192975, 47.19898393352379 Q 35.14770787158432, 45.87718001222853, 35.54380668171533, 44.594696796741566 " fill="none" id="curve_8" stroke="#000000" stroke-linecap="round" stroke-linejoin="round" stroke-width="3.6028002308457503"/>
  <path d="M 70.2275306161757, 39.63292736330219 Q 70.07216420337359, 51.02113451612579, 66.95717349173687, 53.67225765878695 " fill="none" id="curve_9" stroke="#000000" stroke-linecap="round" stroke-linejoin="round" stroke-width="3.743159288104343"/>
  <path d="M 66.95717349173687, 53.67225765878695 Q 69.87731977797233, 49.05743001834807, 75.03731348851916, 44.04256877356687 " fill="none" id="curve_9" stroke="#000000" stroke-linecap="round" stroke-linejoin="round" stroke-width="2.8718191590372775"/>
  <path d="M 75.03731348851916, 44.04256877356687 Q 67.3013179176909, 49.93967168509223, 57.945444144578126, 69.48399857760536 " fill="none" id="curve_9" stroke="#000000" stroke-linecap="round" stroke-linejoin="round" stroke-width="2.9930369805573407"/>
  <path d="M 47.16415366922414, 93.79344137524791 Q 46.98861999664492, 98.24147129903875, 46.38404630585098, 99.99735939601315 " fill="none" id="curve_10" stroke="#000000" stroke-linecap="round" stroke-linejoin="round" stroke-width="4.126179300621615"/>
  <path d="M 59.343994085311934, 73.66651833783672 Q 63.08445231512803, 70.78948587551943, 68.44757451266116, 67.92510100037975 " fill="none" id="curve_11" stroke="#000000" stroke-linecap="round" stroke-linejoin="round" stroke-width="3.6426306463043936"/>
  <path d="M 68.95769567909385, 49.31850602185183 Q 68.99851301094048, 51.11806226341319, 69.03509990147494, 54.594471987376856 " fill="none" id="curve_12" stroke="#000000" stroke-linecap="round" stroke-linejoin="round" stroke-width="5.50814586642337"/>
  <path d="M 67.18623708816882, 39.2515833946911 Q 49.303896085217886, 39.927674818450555, 36.803388149039705, 44.47804487155423 " fill="none" id="curve_13" stroke="#000000" stroke-linecap="round" stroke-linejoin="round" stroke-width="2.6469174106083244"/>
  <path d="M 48.072483999443364, 100.89378636569518 Q 48.9135191383022, 91.41349120271553, 52.6317856485848, 84.25612900331423 " fill="none" id="curve_18" stroke="#000000" stroke-linecap="round" stroke-linejoin="round" stroke-width="2.8615115244975406"/>
  <path d="M 68.02796405483129, 40.02082176621445 Q 65.79595398746335, 39.66892166441797, 60.35869764129382, 39.16542233269954 " fill="none" id="curve_37" stroke="#000000" stroke-linecap="round" stroke-linejoin="round" stroke-width="2.8834448805956217"/>
  <path d="M 53.91509031006181, 72.86786711644868 Q 54.64938461065057, 71.02480772246474, 60.54581815171531, 70.17523178774461 " fill="none" id="curve_78" stroke="#000000" stroke-linecap="round" stroke-linejoin="round" stroke-width="2.438178499724056"/>
  <path d="M 47.906708259682404, 101.21819389734893 Q 48.397072993278535, 90.79143876161322, 52.2628333915164, 86.91679612408902 " fill="none" id="curve_112" stroke="#000000" stroke-linecap="round" stroke-linejoin="round" stroke-width="2.9980949988263688"/>
</svg>
