<?xml version="1.0" ?>
<svg height="140" width="140" xmlns="http://www.w3.org/2000/svg">
  <path d="M 38.62978792190552, 72.93748952448368 Q 34.66150110728109, 75.24823190362982, 24.857057965927197, 77.6258662767496 " fill="none" id="curve_1" stroke="#000000" stroke-linecap="round" stroke-linejoin="round" stroke-width="5.242475386574265"/>
  <path d="M 24.857057965927197, 77.6258662767496 Q 37.50239914494433, 77.0746522862832, 44.75431618216962, 74.95838787802454 " fill="none" id="curve_1" stroke="#000000" stroke-linecap="round" stroke-linejoin="round" stroke-width="5.431365267663899"/>
  <path d="M 44.75431618216962, 74.95838787802454 Q 41.235940873683404, 80.22395844344169, 39.34578442547582, 98.58696665909694 " fill="none" id="curve_1" stroke="#000000" stroke-linecap="round" stroke-linejoin="round" stroke-width="5.193394109661794"/>
  <path d="M 46.55518952351948, 73.31207332041498 Q 50.01175767016524, 62.320222924569656, 61.3905318232173, 37.611462360927646 " fill="none" id="curve_2" stroke="#000000" stroke-linecap="round" stroke-linejoin="round" stroke-width="5.984997643692301"/>
  <path d="M 61.3905318232173, 37.611462360927646 Q 62.95081973629937, 34.61692266053496, 65.17719877629547, 31.738264489718993 " fill="none" id="curve_2" stroke="#000000" stroke-linecap="round" stroke-linejoin="round" stroke-width="5.86056541497848"/>
  <path d="M 65.17719877629547, 31.738264489718993 Q 58.984938351054836, 36.99080963840077, 33.35016193217364, 41.343663872560576 " fill="none" id="curve_2" stroke="#000000" stroke-linecap="round" stroke-linejoin="round" stroke-width="5.506654273760639"/>
  <path d="M 33.35016193217364, 41.343663872560576 Q 22.06151902693152, 41.34412420132991, 19.761642522864797, 41.3483803512634 " fill="none" id="curve_2" stroke="#000000" stroke-linecap="round" stroke-linejoin="round" stroke-width="5.535850460858463"/>
  <path d="M 48.28494054724537, 74.48942445409247 Q 60.98203384586924, 73.34873569307241, 75.42000417379329, 71.86490726446547 " fill="none" id="curve_3" stroke="#000000" stroke-linecap="round" stroke-linejoin="round" stroke-width="4.472567856632269"/>
  <path d="M 43.07568170240452, 73.72691331199341 Q 48.46633749441525, 65.66619006965452, 58.01812090560532, 42.06259215736772 " fill="none" id="curve_4" stroke="#000000" stroke-linecap="round" stroke-linejoin="round" stroke-width="3.7990231455771193"/>
  <path d="M 66.22730042876078, 29.830736503782898 Q 63.784784652941624, 31.145217342259553, 58.949483415333724, 32.45626721011477 " fill="none" id="curve_5" stroke="#000000" stroke-linecap="round" stroke-linejoin="round" stroke-width="3.4532609975037976"/>
  <path d="M 50.06581712196805, 64.00057265492066 Q 51.92757811671338, 51.77153689955705, 58.76966571543868, 43.62275016174871 " fill="none" id="curve_6" stroke="#000000" stroke-linecap="round" stroke-linejoin="round" stroke-width="3.2204159321682715"/>
  <path d="M 41.55553583035606, 84.43847827624202 Q 39.24199998943575, 84.74807533554605, 38.79005145050766, 89.08137643744422 " fill="none" id="curve_8" stroke="#000000" stroke-linecap="round" stroke-linejoin="round" stroke-width="3.7560943561744358"/>
  <path d="M 28.26954386977051, 39.46995499565048 Q 24.1219266790899, 39.98939761930703, 19.48196524418958, 40.936491675797186 " fill="none" id="curve_14" stroke="#000000" stroke-linecap="round" stroke-linejoin="round" stroke-width="3.378103343922892"/>
  <path d="M 57.39816106013079, 41.12737334087922 Q 57.586687112315765, 39.43805107268918, 58.108584028736544, 38.324445481188945 " fill="none" id="curve_29" stroke="#000000" stroke-linecap="round" stroke-linejoin="round" stroke-width="3.673348204686927"/>
  <path d="M 52.71741454029707, 50.674332273592995 Q 52.23933455216717, 57.639902836004296, 50.96384604614477, 61.812024520690024 " fill="none" id="curve_33" stroke="#000000" stroke-linecap="round" stroke-linejoin="round" stroke-width="4.180168892189664"/>
  <path d="M 50.96384604614477, 61.812024520690024 Q 51.4507908498395, 57.70799033339207, 53.24818091467906, 55.69709259323178 " fill="none" id="curve_33" stroke="#000000" stroke-linecap="round" stroke-linejoin="round" stroke-width="4.034045247720523"/>
  <path d="M 61.825989606440395, 72.55908654385 Q 54.472937366424084, 72.73370630278724, 49.380225482824954, 73.62030617128379 " fill="none" id="curve_36" stroke="#000000" stroke-linecap="round" stroke-linejoin="round" stroke-width="2.9024240683881555"/>
  <path d="M 40.741152716707745, 98.75359577135394 Q 39.86757154819492, 97.1262593982636, 39.13931825120208, 91.94564915237902 " fill="none" id="curve_37" stroke="#000000" stroke-linecap="round" stroke-linejoin="round" stroke-width="2.9741786578491114"/>
  <path d="M 50.07349526171482, 60.8211527750815 Q 51.20197121610751, 59.14528784277063, 52.90432637674223, 55.692804206330145 " fill="none" id="curve_40" stroke="#000000" stroke-linecap="round" stroke-linejoin="round" stroke-width="3.773380486046955"/>
  <path d="M 20.12485873863261, 38.97115664364651 Q 19.89019138103667, 39.70086880398958, 19.6080413901157, 41.11007720226465 " fill="none" id="curve_81" stroke="#000000" stroke-linecap="round" stroke-linejoin="round" stroke-width="3.778127044105036"/>
  <path d="M 52.33087176637551, 57.80642158856857 Q 52.02233160366746, 58.40718220315535, 51.21467286578262, 59.51515009597232 " fill="none" id="curve_92" stroke="#000000" stroke-linecap="round" stroke-linejoin="round" stroke-width="3.7843753923653036"/>
  <path d="M 50.45334680880599, 58.79238627171409 Q 51.22105469242466, 56.92042605245295, 52.91633618704526, 53.777590642535564 " fill="none" id="curve_108" stroke="#000000" stroke-linecap="round" stroke-linejoin="round" stroke-width="2.9393506295420013"/>
  <path d="M 51.09677948906801, 59.773734528724944 Q 51.97936355924056, 58.156971334018166, 53.63734236026625, 54.49211789564917 " fill="none" id="curve_112" stroke="#000000" stroke-linecap="round" stroke-linejoin="round" stroke-width="3.261971013113489"/>
  <path d="M 66.38439895937468, 71.81504669027379 Q 63.60725528243077, 71.73590127523816, 61.19260593035136, 71.46503593933372 " fill="none" id="curve_127" stroke="#000000" stroke-linecap="round" stroke-linejoin="round" stroke-width="2.4476101532559342"/>
  <path d="M 49.82944023954042, 61.323300698946696 Q 51.529385738086, 58.50855804453871, 54.27000979273262, 54.63573748590926 " fill="none" id="curve_168" stroke="#000000" stroke-linecap="round" stroke-linejoin="round" stroke-width="3.4887223652781696"/>
</svg>
