<?xml version="1.0" ?>
<svg height="140" width="140" xmlns="http://www.w3.org/2000/svg">
  <path d="M 27.163514137268066, 31.68331316113472 Q 20.853081364306405, 32.361115468405956, 19.360086272852186, 36.79719567630286 " fill="none" id="curve_1" stroke="#000000" stroke-linecap="round" stroke-linejoin="round" stroke-width="5.569695273821291"/>
  <path d="M 19.360086272852186, 36.79719567630286 Q 19.979315882207462, 41.74343780796742, 25.564207375484475, 42.577160769189064 " fill="none" id="curve_1" stroke="#000000" stroke-linecap="round" stroke-linejoin="round" stroke-width="4.255780108712574"/>
  <path d="M 27.752066565469335, 31.277209158858028 Q 36.047426874304506, 30.940751318891117, 39.554459616241274, 29.813420382958796 " fill="none" id="curve_2" stroke="#000000" stroke-linecap="round" stroke-linejoin="round" stroke-width="5.9094892138551804"/>
  <path d="M 39.554459616241274, 29.813420382958796 Q 52.740442285114284, 31.092739442957008, 54.418147119319435, 44.86826940073133 " fill="none" id="curve_2" stroke="#000000" stroke-linecap="round" stroke-linejoin="round" stroke-width="5.170370708742885"/>
  <path d="M 54.418147119319435, 44.86826940073133 Q 52.29305286152096, 61.54586212598713, 45.38886047829391, 72.47635674138573 " fill="none" id="curve_2" stroke="#000000" stroke-linecap="round" stroke-linejoin="round" stroke-width="5.438083548157535"/>
  <path d="M 45.38886047829391, 72.47635674138573 Q 41.81841083380115, 82.81081174582668, 37.36001978576981, 108.94919304475708 " fill="none" id="curve_2" stroke="#000000" stroke-linecap="round" stroke-linejoin="round" stroke-width="4.574480542337569"/>
  <path d="M 36.0505819627935, 71.44094372189772 Q 17.86803354050525, 71.50982326954835, 15.561194120473008, 72.7145718386614 " fill="none" id="curve_3" stroke="#000000" stroke-linecap="round" stroke-linejoin="round" stroke-width="5.32143445558431"/>
  <path d="M 15.561194120473008, 72.7145718386614 Q 22.532439632326383, 72.05440753130445, 52.34957279827618, 71.81273614774598 " fill="none" id="curve_3" stroke="#000000" stroke-linecap="round" stroke-linejoin="round" stroke-width="5.06402067132246"/>
  <path d="M 52.34957279827618, 71.81273614774598 Q 56.71572354263112, 72.47888058884637, 71.66817459852744, 72.75354105562987 " fill="none" id="curve_3" stroke="#000000" stroke-linecap="round" stroke-linejoin="round" stroke-width="4.163843731217968"/>
  <path d="M 20.26134365312717, 78.32448481619804 Q 18.91908261512193, 75.29816663043529, 14.915375102594112, 73.43064667520463 " fill="none" id="curve_5" stroke="#000000" stroke-linecap="round" stroke-linejoin="round" stroke-width="3.7228488359140464"/>
  <path d="M 38.84223333124294, 107.94721891361081 Q 39.14639037125097, 108.933401937811, 39.83085379309672, 109.7278414384813 " fill="none" id="curve_6" stroke="#000000" stroke-linecap="round" stroke-linejoin="round" stroke-width="3.879911140176519"/>
  <path d="M 39.83085379309672, 109.7278414384813 Q 40.69112594555703, 99.87626260302119, 41.64819265009645, 79.98940237510757 " fill="none" id="curve_6" stroke="#000000" stroke-linecap="round" stroke-linejoin="round" stroke-width="3.6973493988137425"/>
  <path d="M 37.406770001687946, 70.29499907510528 Q 24.402738357317617, 70.32867952430018, 16.413810898530212, 70.44217598161308 " fill="none" id="curve_10" stroke="#000000" stroke-linecap="round" stroke-linejoin="round" stroke-width="3.571504848460708"/>
  <path d="M 13.695070440905814, 74.8952769669881 Q 14.340395802256227, 74.27518219257767, 15.021968739670722, 73.08630575834998 " fill="none" id="curve_11" stroke="#000000" stroke-linecap="round" stroke-linejoin="round" stroke-width="3.66233678746537"/>
  <path d="M 51.266527556144794, 55.896021261870814 Q 48.72741336625041, 59.2898681285024, 47.319443189422934, 76.55778718318359 " fill="none" id="curve_13" stroke="#000000" stroke-linecap="round" stroke-linejoin="round" stroke-width="2.788060813355005"/>
  <path d="M 23.186947298218374, 68.55352403731105 Q 24.351657509332256, 70.22873743376049, 45.117460930244704, 70.57807013283866 " fill="none" id="curve_16" stroke="#000000" stroke-linecap="round" stroke-linejoin="round" stroke-width="3.085643770992941"/>
  <path d="M 21.92052968666152, 35.40862011446954 Q 24.42647543602867, 33.624674706898226, 27.79994495045192, 31.76466751941766 " fill="none" id="curve_20" stroke="#000000" stroke-linecap="round" stroke-linejoin="round" stroke-width="2.9264370191626656"/>
  <path d="M 42.40028618732209, 29.24203590749616 Q 45.652930879013795, 29.781232642949394, 48.987248612981126, 30.664404043639202 " fill="none" id="curve_21" stroke="#000000" stroke-linecap="round" stroke-linejoin="round" stroke-width="3.336593100004417"/>
  <path d="M 41.62232891044235, 68.8414935112774 Q 40.588467684093416, 69.7084194015875, 37.38435318998123, 70.50014111923299 " fill="none" id="curve_22" stroke="#000000" stroke-linecap="round" stroke-linejoin="round" stroke-width="3.572254460383625"/>
  <path d="M 36.160354963252885, 28.646133332872424 Q 37.43443244174593, 29.99814963047897, 40.082409736386666, 31.37202477108614 " fill="none" id="curve_24" stroke="#000000" stroke-linecap="round" stroke-linejoin="round" stroke-width="3.613537978490542"/>
  <path d="M 51.391616125314485, 49.69581542741018 Q 50.156514053067355, 59.523482251779555, 46.288652069446506, 70.42554357290963 " fill="none" id="curve_26" stroke="#000000" stroke-linecap="round" stroke-linejoin="round" stroke-width="2.5783529395882745"/>
  <path d="M 46.288652069446506, 70.42554357290963 Q 43.288830963012856, 78.74270947121849, 39.83265728825792, 92.22317155591341 " fill="none" id="curve_26" stroke="#000000" stroke-linecap="round" stroke-linejoin="round" stroke-width="2.7162872240933496"/>
  <path d="M 40.4951374404215, 90.2025624220058 Q 42.03313111162989, 83.13463479002516, 44.784045068412, 73.87877805178155 " fill="none" id="curve_33" stroke="#000000" stroke-linecap="round" stroke-linejoin="round" stroke-width="3.223731544434109"/>
  <path d="M 40.23368392245686, 91.2919984051123 Q 41.73016858572828, 81.315120807351, 46.148730367974885, 72.94840449917815 " fill="none" id="curve_40" stroke="#000000" stroke-linecap="round" stroke-linejoin="round" stroke-width="2.8965029461432827"/>
  <path d="M 59.69517690251676, 70.7541844225324 Q 55.91938925384063, 70.86152751104085, 50.280105308480515, 71.05283882993943 " fill="none" id="curve_41" stroke="#000000" stroke-linecap="round" stroke-linejoin="round" stroke-width="3.1551320856739653"/>
  <path d="M 40.51438180021114, 90.97175477581396 Q 42.18660893395234, 84.1403944449585, 44.66710278969431, 73.55652429925487 " fill="none" id="curve_46" stroke="#000000" stroke-linecap="round" stroke-linejoin="round" stroke-width="2.9060401923031476"/>
  <path d="M 40.1811010559186, 90.46076056204015 Q 41.9971709019106, 82.16747441949252, 45.82415158425332, 72.77073929937856 " fill="none" id="curve_55" stroke="#000000" stroke-linecap="round" stroke-linejoin="round" stroke-width="2.62199269309531"/>
  <path d="M 40.692654565512186, 90.87452334491459 Q 42.02206024520029, 82.90325615751098, 44.89361138354859, 73.04157636947538 " fill="none" id="curve_58" stroke="#000000" stroke-linecap="round" stroke-linejoin="round" stroke-width="2.6965803329695106"/>
  <path d="M 43.07085897972456, 31.552997123151357 Q 40.312638121382584, 31.02349686058175, 32.46862774333539, 30.303275187703036 " fill="none" id="curve_67" stroke="#000000" stroke-linecap="round" stroke-linejoin="round" stroke-width="3.2709189239627543"/>
  <path d="M 40.98912569628965, 89.8788832209547 Q 42.08700156545593, 82.40672960954969, 44.32674699057672, 75.14189950865318 " fill="none" id="curve_72" stroke="#000000" stroke-linecap="round" stroke-linejoin="round" stroke-width="2.9438504296828003"/>
  <path d="M 45.84249727436615, 78.3440011394018 Q 44.16281498857337, 78.12343035077316, 41.55342440739387, 77.7758300753215 " fill="none" id="curve_140" stroke="#000000" stroke-linecap="round" stroke-linejoin="round" stroke-width="2.504087323202239"/>
  <path d="M 43.78088302815836, 87.51162695841526 Q 42.44093396125898, 86.75889257406735, 40.1215204927763, 85.86521649327501 " fill="none" id="curve_156" stroke="#000000" stroke-linecap="round" stroke-linejoin="round" stroke-width="3.4483560898505963"/>
  <path d="M 22.642610683929803, 70.07257759147785 Q 22.18971780218709, 69.76314284908315, 20.676332425149837, 69.54682974114296 " fill="none" id="curve_177" stroke="#000000" stroke-linecap="round" stroke-linejoin="round" stroke-width="2.94035947967828"/>
  <path d="M 36.26279247073366, 104.74262066796209 Q 36.611930196768434, 103.27389683443677, 37.163873471435636, 101.39194313790493 " fill="none" id="curve_182" stroke="#000000" stroke-linecap="round" stroke-linejoin="round" stroke-width="3.1326978412225106"/>
  <path d="M 72.86653393785548, 71.75123805216663 Q 71.67147565308, 71.946004863662, 69.64854937357674, 72.37980644864653 " fill="none" id="curve_210" stroke="#000000" stroke-linecap="round" stroke-linejoin="round" stroke-width="1.9481824039303315"/>
</svg>
