<?xml version="1.0" ?>
<svg height="140" width="140" xmlns="http://www.w3.org/2000/svg">
  <path d="M 69.07986640930176, 47.26437568664551 Q 68.04408314209621, 45.00458084978686, 66.34255722924757, 39.607185261769985 " fill="none" id="curve_1" stroke="#000000" stroke-linecap="round" stroke-linejoin="round" stroke-width="4.264751345011602"/>
  <path d="M 66.34255722924757, 39.607185261769985 Q 66.22742478262444, 59.968019995939116, 62.92812463165748, 64.27962164181383 " fill="none" id="curve_1" stroke="#000000" stroke-linecap="round" stroke-linejoin="round" stroke-width="4.9757311688134935"/>
  <path d="M 62.92812463165748, 64.27962164181383 Q 58.0341615897739, 74.0662507240458, 50.74097689026045, 85.56100844693526 " fill="none" id="curve_1" stroke="#000000" stroke-linecap="round" stroke-linejoin="round" stroke-width="5.951115246562925"/>
  <path d="M 50.74097689026045, 85.56100844693526 Q 46.710583334950066, 94.13364628866448, 31.918454247585775, 121.45471061766261 " fill="none" id="curve_1" stroke="#000000" stroke-linecap="round" stroke-linejoin="round" stroke-width="5.006119646826422"/>
  <path d="M 31.918454247585775, 121.45471061766261 Q 32.01427848109372, 123.27978947968948, 32.46994048480899, 124.04409325487369 " fill="none" id="curve_1" stroke="#000000" stroke-linecap="round" stroke-linejoin="round" stroke-width="3.8142501887189364"/>
  <path d="M 34.817404584348104, 87.42997558784377 Q 58.272986215136065, 86.65296380958569, 68.22556166757845, 83.34447963950065 " fill="none" id="curve_2" stroke="#000000" stroke-linecap="round" stroke-linejoin="round" stroke-width="4.521059386049999"/>
  <path d="M 29.172990412783435, 50.70166345591165 Q 24.856136937519253, 56.85382340076667, 20.048313414420235, 66.76934957556433 " fill="none" id="curve_3" stroke="#000000" stroke-linecap="round" stroke-linejoin="round" stroke-width="3.4670162272880503"/>
  <path d="M 29.99350344858371, 49.44128784003038 Q 32.43396499398935, 43.886936136462765, 34.86738003355963, 33.900572501996606 " fill="none" id="curve_4" stroke="#000000" stroke-linecap="round" stroke-linejoin="round" stroke-width="4.273633520107143"/>
  <path d="M 34.86738003355963, 33.900572501996606 Q 39.09710338902911, 37.33387977005679, 60.85934225997515, 39.02820554991159 " fill="none" id="curve_4" stroke="#000000" stroke-linecap="round" stroke-linejoin="round" stroke-width="5.662427286173846"/>
  <path d="M 60.85934225997515, 39.02820554991159 Q 66.91488122282036, 40.82495334761751, 68.58200184274055, 47.7982418859992 " fill="none" id="curve_4" stroke="#000000" stroke-linecap="round" stroke-linejoin="round" stroke-width="3.7019108855042915"/>
  <path d="M 68.58200184274055, 47.7982418859992 Q 67.919572740315, 55.711764555630474, 63.29856179706455, 58.323278867529694 " fill="none" id="curve_4" stroke="#000000" stroke-linecap="round" stroke-linejoin="round" stroke-width="2.544164790175708"/>
  <path d="M 58.276480849320635, 83.24831042548328 Q 59.389603135524254, 83.23567773468282, 61.23504804969938, 83.20913130311642 " fill="none" id="curve_5" stroke="#000000" stroke-linecap="round" stroke-linejoin="round" stroke-width="2.7528983057915886"/>
  <path d="M 61.23504804969938, 83.20913130311642 Q 55.56261105543973, 84.2973258947641, 40.2924658905863, 84.97761394340962 " fill="none" id="curve_5" stroke="#000000" stroke-linecap="round" stroke-linejoin="round" stroke-width="3.3811003127436288"/>
  <path d="M 34.36885021742253, 119.17725028466384 Q 34.19786924721996, 122.54654454956874, 33.01469620932497, 123.47945532981517 " fill="none" id="curve_6" stroke="#000000" stroke-linecap="round" stroke-linejoin="round" stroke-width="3.8101992523119352"/>
  <path d="M 33.01469620932497, 123.47945532981517 Q 35.485857751093896, 107.9373110373133, 45.34573283311163, 94.0128996909592 " fill="none" id="curve_6" stroke="#000000" stroke-linecap="round" stroke-linejoin="round" stroke-width="3.6003823910839223"/>
  <path d="M 60.54890378077776, 63.83921128245288 Q 64.20817597092089, 62.41147724700049, 66.49406516994317, 58.61969255323359 " fill="none" id="curve_7" stroke="#000000" stroke-linecap="round" stroke-linejoin="round" stroke-width="2.69410593405127"/>
  <path d="M 58.47716316796789, 38.99270873742034 Q 49.316583622813695, 37.85392325889318, 40.31732440928761, 34.93113090246138 " fill="none" id="curve_8" stroke="#000000" stroke-linecap="round" stroke-linejoin="round" stroke-width="3.233479952077967"/>
  <path d="M 55.37771681153047, 40.16826113545164 Q 53.93420114554017, 38.887712673943774, 50.91329407150785, 37.92030030694864 " fill="none" id="curve_9" stroke="#000000" stroke-linecap="round" stroke-linejoin="round" stroke-width="5.041428308961172"/>
  <path d="M 50.91329407150785, 37.92030030694864 Q 44.405514162763346, 36.984332312739426, 36.201499409330694, 35.516350605019426 " fill="none" id="curve_9" stroke="#000000" stroke-linecap="round" stroke-linejoin="round" stroke-width="3.508768586153686"/>
  <path d="M 38.83923429042148, 36.78788447092268 Q 36.241472141662186, 36.82149652294875, 33.60683039421799, 36.89017065228358 " fill="none" id="curve_37" stroke="#000000" stroke-linecap="round" stroke-linejoin="round" stroke-width="3.7249101272413525"/>
  <path d="M 60.45617971844371, 83.48335165761978 Q 63.65053601208313, 83.23090961831394, 66.1966162547463, 82.49320684730452 " fill="none" id="curve_71" stroke="#000000" stroke-linecap="round" stroke-linejoin="round" stroke-width="2.911270574060368"/>
  <path d="M 34.27103744749506, 118.31427397922782 Q 36.34594478522177, 115.1200962430377, 38.76271709800817, 108.87932189044695 " fill="none" id="curve_79" stroke="#000000" stroke-linecap="round" stroke-linejoin="round" stroke-width="3.0320395777434195"/>
  <path d="M 53.868509771084476, 77.80394426022913 Q 52.9035763366637, 79.90404033105966, 51.53762233428668, 84.08361317562095 " fill="none" id="curve_108" stroke="#000000" stroke-linecap="round" stroke-linejoin="round" stroke-width="3.259237112262316"/>
  <path d="M 44.8817510844256, 87.59732034727791 Q 45.85873806231011, 89.44588108843588, 46.953016512216024, 92.95546327591397 " fill="none" id="curve_118" stroke="#000000" stroke-linecap="round" stroke-linejoin="round" stroke-width="3.7606792740786217"/>
  <path d="M 64.96790980402096, 40.58702047311306 Q 63.24810580087214, 38.7110943879422, 55.767515163738764, 36.83346952793726 " fill="none" id="curve_150" stroke="#000000" stroke-linecap="round" stroke-linejoin="round" stroke-width="2.257702013096572"/>
  <path d="M 51.52492769372316, 80.44831120034746 Q 54.01411697422978, 76.08872064638973, 59.08032585174214, 69.15700029563699 " fill="none" id="curve_165" stroke="#000000" stroke-linecap="round" stroke-linejoin="round" stroke-width="2.171593574937145"/>
</svg>
