<?xml version="1.0" ?>
<svg height="140" width="140" xmlns="http://www.w3.org/2000/svg">
  <path d="M 12.6208655834198, 77.42065143585205 Q 18.43212237092767, 76.99000620439178, 22.47705940493313, 74.22421759471732 " fill="none" id="curve_1" stroke="#000000" stroke-linecap="round" stroke-linejoin="round" stroke-width="5.649251950376414"/>
  <path d="M 22.47705940493313, 74.22421759471732 Q 30.643432384701462, 74.23891295764318, 38.23789278972204, 74.26843225275215 " fill="none" id="curve_1" stroke="#000000" stroke-linecap="round" stroke-linejoin="round" stroke-width="5.644297782875671"/>
  <path d="M 38.23789278972204, 74.26843225275215 Q 32.879510004218666, 80.89511361869712, 24.710507931821105, 99.02638648451324 " fill="none" id="curve_1" stroke="#000000" stroke-linecap="round" stroke-linejoin="round" stroke-width="4.6199864385496126"/>
  <path d="M 40.69432082694905, 73.25653615181025 Q 47.04901629870696, 66.51299072991692, 53.639197157368166, 53.91774422141484 " fill="none" id="curve_2" stroke="#000000" stroke-linecap="round" stroke-linejoin="round" stroke-width="4.940442951662733"/>
  <path d="M 53.639197157368166, 53.91774422141484 Q 52.62908984509264, 47.365827903616875, 46.4019616086221, 45.26689908824233 " fill="none" id="curve_2" stroke="#000000" stroke-linecap="round" stroke-linejoin="round" stroke-width="4.495538523796744"/>
  <path d="M 46.4019616086221, 45.26689908824233 Q 32.991723279018245, 46.02133966860049, 16.50286184929203, 48.33276474701177 " fill="none" id="curve_2" stroke="#000000" stroke-linecap="round" stroke-linejoin="round" stroke-width="5.390627752331577"/>
  <path d="M 16.50286184929203, 48.33276474701177 Q 13.051475051194357, 48.286557524059525, 12.311669563299912, 47.79567602317836 " fill="none" id="curve_2" stroke="#000000" stroke-linecap="round" stroke-linejoin="round" stroke-width="3.372108238456746"/>
  <path d="M 13.258053135712704, 80.04022096017232 Q 13.680273584935488, 79.93949015552066, 13.809340795129637, 79.21641442632205 " fill="none" id="curve_3" stroke="#000000" stroke-linecap="round" stroke-linejoin="round" stroke-width="7.421429311623619"/>
  <path d="M 44.51951501325212, 74.26592134935578 Q 44.003584501537844, 74.09323665149181, 43.00017538838637, 73.89051852571086 " fill="none" id="curve_4" stroke="#000000" stroke-linecap="round" stroke-linejoin="round" stroke-width="5.159660841674924"/>
  <path d="M 89.73582392510254, 67.97306297500424 Q 89.64807027817504, 83.3596779150068, 89.31538203580935, 109.94044938690081 " fill="none" id="curve_5" stroke="#000000" stroke-linecap="round" stroke-linejoin="round" stroke-width="1.6906367576283143"/>
  <path d="M 89.31538203580935, 109.94044938690081 Q 89.39019603066187, 120.70891047933047, 89.48739680835808, 139.5955343759086 " fill="none" id="curve_5" stroke="#000000" stroke-linecap="round" stroke-linejoin="round" stroke-width="1.8567384801642937"/>
  <path d="M 64.20230288679662, 115.14884444741475 Q 63.46504038263964, 115.01901090414859, 62.85624328042361, 114.76150069679515 " fill="none" id="curve_6" stroke="#000000" stroke-linecap="round" stroke-linejoin="round" stroke-width="4.931637335185043"/>
  <path d="M 26.07680008378196, 101.37217799920039 Q 25.852702095978966, 100.91186421981575, 25.663632314705044, 99.89230360818063 " fill="none" id="curve_7" stroke="#000000" stroke-linecap="round" stroke-linejoin="round" stroke-width="4.770161681133886"/>
  <path d="M 39.85658292493685, 71.2645252377142 Q 45.53603791909836, 66.81338236054383, 51.57959331495953, 58.24000630771175 " fill="none" id="curve_8" stroke="#000000" stroke-linecap="round" stroke-linejoin="round" stroke-width="2.3403164545366"/>
  <path d="M 89.82100603079078, 64.61935789343069 Q 89.77876903660605, 58.67700697116578, 89.71814064469122, 42.10687195821261 " fill="none" id="curve_9" stroke="#000000" stroke-linecap="round" stroke-linejoin="round" stroke-width="1.694306188192082"/>
  <path d="M 89.71814064469122, 42.10687195821261 Q 89.67679598280267, 34.9821059764375, 89.59491259987263, 22.042277528704886 " fill="none" id="curve_9" stroke="#000000" stroke-linecap="round" stroke-linejoin="round" stroke-width="1.6592792966860943"/>
  <path d="M 89.59491259987263, 22.042277528704886 Q 89.59904975835745, 15.406243276296514, 89.61470335181669, 11.41229243036152 " fill="none" id="curve_9" stroke="#000000" stroke-linecap="round" stroke-linejoin="round" stroke-width="1.4447100131127422"/>
  <path d="M 89.61470335181669, 11.41229243036152 Q 89.48244080469208, 4.818664101288796, 89.02728527924657, 1.221404850936862 " fill="none" id="curve_9" stroke="#000000" stroke-linecap="round" stroke-linejoin="round" stroke-width="2.272980021741558"/>
  <path d="M 89.02728527924657, 1.221404850936862 Q 88.78969791686531, 1.197732507585449, 88.49034884128744, 1.1677383351891477 " fill="none" id="curve_9" stroke="#000000" stroke-linecap="round" stroke-linejoin="round" stroke-width="2.4637628804326326"/>
  <path d="M 89.68589500681355, 25.93473220774373 Q 89.3830333770859, 25.15929905927749, 88.80814378637749, 24.444565720408907 " fill="none" id="curve_10" stroke="#000000" stroke-linecap="round" stroke-linejoin="round" stroke-width="2.373330439452121"/>
  <path d="M 47.7568325459428, 76.39235177288042 Q 47.70817183478833, 74.66763120718122, 44.1274845678715, 74.58063776649512 " fill="none" id="curve_15" stroke="#000000" stroke-linecap="round" stroke-linejoin="round" stroke-width="3.05627863249708"/>
  <path d="M 27.069474543882457, 87.48308701289719 Q 30.749136958942923, 82.67389154873293, 37.6035086864046, 77.41281895656851 " fill="none" id="curve_16" stroke="#000000" stroke-linecap="round" stroke-linejoin="round" stroke-width="3.2365081057796634"/>
  <path d="M 37.6035086864046, 77.41281895656851 Q 39.97709617014873, 69.56877464671561, 48.2492537495806, 62.76885581851072 " fill="none" id="curve_16" stroke="#000000" stroke-linecap="round" stroke-linejoin="round" stroke-width="3.6954826029621852"/>
  <path d="M 48.2492537495806, 62.76885581851072 Q 50.48305045269575, 58.870995387122754, 52.792069221993614, 52.55353248584427 " fill="none" id="curve_16" stroke="#000000" stroke-linecap="round" stroke-linejoin="round" stroke-width="2.5442943998282375"/>
  <path d="M 33.03430459372542, 43.890222116582095 Q 30.985828193612253, 47.093526048013175, 11.990617899553659, 48.10068211722988 " fill="none" id="curve_17" stroke="#000000" stroke-linecap="round" stroke-linejoin="round" stroke-width="2.564618369564383"/>
  <path d="M 11.990617899553659, 48.10068211722988 Q 12.156199735950372, 48.494920077381714, 12.376960845244401, 49.31263202557925 " fill="none" id="curve_17" stroke="#000000" stroke-linecap="round" stroke-linejoin="round" stroke-width="2.770425868680591"/>
  <path d="M 13.565086475711524, 81.63365947718779 Q 13.829644266741148, 80.14193131920582, 14.267529938281253, 77.52046988586315 " fill="none" id="curve_18" stroke="#000000" stroke-linecap="round" stroke-linejoin="round" stroke-width="3.5665156508711586"/>
  <path d="M 22.025147682278124, 46.86853890646028 Q 18.006770783580055, 46.96651911826826, 13.97605773508143, 47.13239541916951 " fill="none" id="curve_25" stroke="#000000" stroke-linecap="round" stroke-linejoin="round" stroke-width="3.011862899835603"/>
  <path d="M 53.11110800061118, 53.81743661992018 Q 51.3111696625501, 61.98879499260255, 44.16193790438277, 67.40397117912998 " fill="none" id="curve_36" stroke="#000000" stroke-linecap="round" stroke-linejoin="round" stroke-width="2.7512049909046774"/>
  <path d="M 53.0111233813424, 52.77427090006398 Q 50.91396929423833, 61.009216249422614, 44.486010952422106, 68.46515839204989 " fill="none" id="curve_41" stroke="#000000" stroke-linecap="round" stroke-linejoin="round" stroke-width="2.6830416796515104"/>
  <path d="M 52.76332050318975, 53.46974035707904 Q 50.42726483502478, 61.676744682175816, 42.718294287176946, 68.9890938917053 " fill="none" id="curve_42" stroke="#000000" stroke-linecap="round" stroke-linejoin="round" stroke-width="2.9429896118874885"/>
  <path d="M 19.10534727015215, 76.69280739616286 Q 17.575937514895248, 76.53955239171525, 14.64640183747437, 76.28838031052494 " fill="none" id="curve_57" stroke="#000000" stroke-linecap="round" stroke-linejoin="round" stroke-width="3.3376486437440227"/>
  <path d="M 22.688341272388282, 47.41278268271236 Q 26.07028145929966, 46.10477016816871, 34.75727535607461, 45.12985576622277 " fill="none" id="curve_59" stroke="#000000" stroke-linecap="round" stroke-linejoin="round" stroke-width="2.4629937045848043"/>
  <path d="M 52.037962543293176, 56.287239056810456 Q 52.0514224971895, 56.81323284203125, 52.09112258326285, 57.84661282527251 " fill="none" id="curve_65" stroke="#000000" stroke-linecap="round" stroke-linejoin="round" stroke-width="2.6989939774682608"/>
  <path d="M 45.55302034872739, 46.80140358643506 Q 46.851127185910634, 48.50330040248879, 51.51394311826897, 49.23934551100926 " fill="none" id="curve_80" stroke="#000000" stroke-linecap="round" stroke-linejoin="round" stroke-width="1.827076023139259"/>
</svg>
