<?xml version="1.0" ?>
<svg height="140" width="140" xmlns="http://www.w3.org/2000/svg">
  <path d="M 58.27684783935547, 26.56489610671997 Q 58.207410461528234, 25.46084856639137, 56.50936123523876, 25.254646686949556 " fill="none" id="curve_1" stroke="#000000" stroke-linecap="round" stroke-linejoin="round" stroke-width="6.315934725823644"/>
  <path d="M 56.50936123523876, 25.254646686949556 Q 58.88642238796093, 26.241214094954497, 59.89551860347725, 29.944201294387234 " fill="none" id="curve_1" stroke="#000000" stroke-linecap="round" stroke-linejoin="round" stroke-width="5.576108118111131"/>
  <path d="M 59.89551860347725, 29.944201294387234 Q 59.75105966965519, 46.85108469995795, 58.325969577638006, 54.512882348622014 " fill="none" id="curve_1" stroke="#000000" stroke-linecap="round" stroke-linejoin="round" stroke-width="5.265919954514148"/>
  <path d="M 58.325969577638006, 54.512882348622014 Q 57.18209712453316, 64.89519752022973, 54.86991293687152, 71.19420881284779 " fill="none" id="curve_1" stroke="#000000" stroke-linecap="round" stroke-linejoin="round" stroke-width="4.905605641402566"/>
  <path d="M 54.86991293687152, 71.19420881284779 Q 53.976750107764886, 83.98929743563603, 49.470586031203695, 106.55448295750014 " fill="none" id="curve_1" stroke="#000000" stroke-linecap="round" stroke-linejoin="round" stroke-width="4.564166650580099"/>
  <path d="M 49.470586031203695, 106.55448295750014 Q 49.58719488606359, 131.08181838927862, 50.96132351488298, 134.4685268107524 " fill="none" id="curve_1" stroke="#000000" stroke-linecap="round" stroke-linejoin="round" stroke-width="3.9538996102326585"/>
  <path d="M 50.96132351488298, 134.4685268107524 Q 56.802800878815134, 133.3807600465541, 57.6726333602877, 123.12666583501245 " fill="none" id="curve_1" stroke="#000000" stroke-linecap="round" stroke-linejoin="round" stroke-width="4.119072152965176"/>
  <path d="M 31.10469933746135, 75.38708073777194 Q 30.465033407666052, 73.72747374172114, 25.774241147874722, 73.19029723463937 " fill="none" id="curve_3" stroke="#000000" stroke-linecap="round" stroke-linejoin="round" stroke-width="4.867694127795147"/>
  <path d="M 25.774241147874722, 73.19029723463937 Q 50.44161698683665, 72.8865015069326, 58.53355033143476, 70.65530309429109 " fill="none" id="curve_3" stroke="#000000" stroke-linecap="round" stroke-linejoin="round" stroke-width="3.97829821509357"/>
  <path d="M 58.53355033143476, 70.65530309429109 Q 69.71705660510555, 69.8922912378383, 79.20064963406097, 68.64888603310915 " fill="none" id="curve_3" stroke="#000000" stroke-linecap="round" stroke-linejoin="round" stroke-width="3.54953319000174"/>
  <path d="M 28.07923023305836, 75.97272931110194 Q 27.201276688577085, 75.63357473329215, 26.793086737989974, 74.3948612304063 " fill="none" id="curve_5" stroke="#000000" stroke-linecap="round" stroke-linejoin="round" stroke-width="5.470199286327892"/>
  <path d="M 58.78907014515089, 118.69824566289097 Q 58.43436623498753, 118.5439069754956, 58.08297093593304, 118.18148736839268 " fill="none" id="curve_8" stroke="#000000" stroke-linecap="round" stroke-linejoin="round" stroke-width="3.1886024728660285"/>
  <path d="M 29.95652914702743, 72.59797529377903 Q 28.21446878866398, 72.10084830087929, 23.602467626953064, 71.71196401337573 " fill="none" id="curve_11" stroke="#000000" stroke-linecap="round" stroke-linejoin="round" stroke-width="2.7899004018090943"/>
  <path d="M 54.92623908102793, 25.454124612581687 Q 47.70823143543955, 24.210378208418778, 31.352734105510866, 21.29978454709998 " fill="none" id="curve_13" stroke="#000000" stroke-linecap="round" stroke-linejoin="round" stroke-width="5.661989504479552"/>
  <path d="M 31.352734105510866, 21.29978454709998 Q 23.204871706936462, 19.433965195330916, 10.739361318433463, 16.210154706562882 " fill="none" id="curve_13" stroke="#000000" stroke-linecap="round" stroke-linejoin="round" stroke-width="7.912476478703167"/>
  <path d="M 10.739361318433463, 16.210154706562882 Q 9.616870941679904, 16.900452806716334, 9.078576939613791, 19.04943433020235 " fill="none" id="curve_13" stroke="#000000" stroke-linecap="round" stroke-linejoin="round" stroke-width="8.403870802678172"/>
  <path d="M 9.078576939613791, 19.04943433020235 Q 10.675415261851311, 20.056078081581813, 14.158009405520513, 20.705486463145935 " fill="none" id="curve_13" stroke="#000000" stroke-linecap="round" stroke-linejoin="round" stroke-width="4.438584617337223"/>
  <path d="M 50.05557478035141, 23.85442369602296 Q 51.27549381522055, 24.524808460082422, 54.33147381608076, 25.269849231699954 " fill="none" id="curve_14" stroke="#000000" stroke-linecap="round" stroke-linejoin="round" stroke-width="3.472395241785397"/>
  <path d="M 31.26109536781984, 71.77986204340586 Q 34.12935336646507, 72.23821620390274, 43.0478980279548, 73.10733842843752 " fill="none" id="curve_18" stroke="#000000" stroke-linecap="round" stroke-linejoin="round" stroke-width="2.103585482786198"/>
  <path d="M 6.4407678124287, 15.185716401654279 Q 6.990307181135618, 16.08189231221931, 8.011088644521102, 17.58061737994124 " fill="none" id="curve_20" stroke="#000000" stroke-linecap="round" stroke-linejoin="round" stroke-width="3.0588077720324858"/>
  <path d="M 56.19190064433404, 25.824253501735193 Q 55.16442669314534, 23.770994769307443, 43.9423435918292, 22.971870888118865 " fill="none" id="curve_25" stroke="#000000" stroke-linecap="round" stroke-linejoin="round" stroke-width="2.5742374686351055"/>
  <path d="M 52.69860716531653, 80.09521444482104 Q 56.01836936340855, 78.63633677858552, 57.41242924408385, 71.17599824491364 " fill="none" id="curve_28" stroke="#000000" stroke-linecap="round" stroke-linejoin="round" stroke-width="2.380025978170484"/>
  <path d="M 50.23979774284041, 89.77908188352414 Q 50.96746937727204, 89.35933751126022, 51.43871577651578, 87.10040948916236 " fill="none" id="curve_29" stroke="#000000" stroke-linecap="round" stroke-linejoin="round" stroke-width="2.186732876773698"/>
  <path d="M 50.78293614097461, 114.86713615703584 Q 50.90041667727503, 107.80807186475685, 51.32883994603868, 104.32726268296922 " fill="none" id="curve_30" stroke="#000000" stroke-linecap="round" stroke-linejoin="round" stroke-width="2.7462029007681434"/>
  <path d="M 50.087330523569115, 69.80089665455304 Q 49.62233588767624, 70.84645826060152, 47.91374660938557, 71.4226744908623 " fill="none" id="curve_31" stroke="#000000" stroke-linecap="round" stroke-linejoin="round" stroke-width="3.392102425554254"/>
  <path d="M 56.10821197465327, 61.279202185687254 Q 55.62586117618405, 64.57927462271631, 55.09088549694832, 70.66103820930009 " fill="none" id="curve_32" stroke="#000000" stroke-linecap="round" stroke-linejoin="round" stroke-width="2.5944687336816843"/>
  <path d="M 54.1909853198448, 24.931053348140722 Q 54.683435100709005, 24.305301041020023, 55.75543991475292, 23.61420114781659 " fill="none" id="curve_47" stroke="#000000" stroke-linecap="round" stroke-linejoin="round" stroke-width="3.5599530654461606"/>
  <path d="M 51.88043094258853, 128.43790722880294 Q 52.950995973459854, 130.77675041057316, 53.889060673046586, 134.78945080059324 " fill="none" id="curve_75" stroke="#000000" stroke-linecap="round" stroke-linejoin="round" stroke-width="2.9338908621769617"/>
  <path d="M 53.889060673046586, 134.78945080059324 Q 50.23587296475195, 132.5200299314162, 47.2982112202537, 126.99262317469024 " fill="none" id="curve_75" stroke="#000000" stroke-linecap="round" stroke-linejoin="round" stroke-width="1.93268399754554"/>
  <path d="M 62.52614877749204, 70.04932813895891 Q 61.50020678780348, 69.066459780892, 54.74431281523567, 68.614484200162 " fill="none" id="curve_90" stroke="#000000" stroke-linecap="round" stroke-linejoin="round" stroke-width="2.8677296179079725"/>
  <path d="M 43.13753242668964, 71.38462515071842 Q 38.38554347873394, 71.72641391483342, 29.991818740313313, 72.19937515864748 " fill="none" id="curve_92" stroke="#000000" stroke-linecap="round" stroke-linejoin="round" stroke-width="2.6009894841029144"/>
  <path d="M 52.30461724383326, 102.41710619191804 Q 52.07463100974654, 100.94123218207132, 50.646740647926954, 100.44714608095383 " fill="none" id="curve_107" stroke="#000000" stroke-linecap="round" stroke-linejoin="round" stroke-width="3.04875446394115"/>
  <path d="M 52.63042640686035, 83.51864624023438 Q 53.79676981239767, 83.86882043673165, 55.41591230293247, 84.51649276350447 " fill="none" id="curve_134" stroke="#000000" stroke-linecap="round" stroke-linejoin="round" stroke-width="3.050256898953924"/>
  <path d="M 54.547071936056426, 67.43828327634188 Q 54.55899016033105, 66.27834486422961, 54.60522099442531, 65.1732422318464 " fill="none" id="curve_135" stroke="#000000" stroke-linecap="round" stroke-linejoin="round" stroke-width="2.1116228952058753"/>
  <path d="M 45.08373155702039, 24.289402831919087 Q 44.83017873780687, 24.819645157752067, 44.13222871109592, 25.212535841862422 " fill="none" id="curve_138" stroke="#000000" stroke-linecap="round" stroke-linejoin="round" stroke-width="2.2807924267638935"/>
  <path d="M 78.17030757264828, 67.79980124769892 Q 78.85970091565791, 68.36814459633467, 81.17080274981066, 68.7395826165278 " fill="none" id="curve_140" stroke="#000000" stroke-linecap="round" stroke-linejoin="round" stroke-width="1.712735798348053"/>
  <path d="M 56.81580592071424, 77.37665048899498 Q 56.31153956987811, 77.20629829595427, 55.38913322547418, 76.97577551257237 " fill="none" id="curve_168" stroke="#000000" stroke-linecap="round" stroke-linejoin="round" stroke-width="2.308447526310749"/>
</svg>
