<?xml version="1.0" ?>
<svg height="140" width="140" xmlns="http://www.w3.org/2000/svg">
  <path d="M 62.12149238586426, 34.24513626098633 Q 62.82742200680828, 33.7485737563637, 64.57346112500831, 32.89255002320503 " fill="none" id="curve_1" stroke="#000000" stroke-linecap="round" stroke-linejoin="round" stroke-width="5.551256524837691"/>
  <path d="M 64.57346112500831, 32.89255002320503 Q 61.944158025280736, 40.511548375321155, 51.36382548996859, 49.0459739404625 " fill="none" id="curve_1" stroke="#000000" stroke-linecap="round" stroke-linejoin="round" stroke-width="6.550335767894796"/>
  <path d="M 51.36382548996859, 49.0459739404625 Q 51.13115571585537, 55.356942729924896, 44.02639936003442, 55.959136680911 " fill="none" id="curve_1" stroke="#000000" stroke-linecap="round" stroke-linejoin="round" stroke-width="8.664411673685663"/>
  <path d="M 44.02639936003442, 55.959136680911 Q 42.80688784988303, 60.93416331022511, 35.540909233362406, 71.21107679184905 " fill="none" id="curve_1" stroke="#000000" stroke-linecap="round" stroke-linejoin="round" stroke-width="4.096194427853033"/>
  <path d="M 35.540909233362406, 71.21107679184905 Q 31.132065754048995, 75.43555295197646, 29.60566915834132, 93.56992481752452 " fill="none" id="curve_1" stroke="#000000" stroke-linecap="round" stroke-linejoin="round" stroke-width="4.468575694192435"/>
  <path d="M 33.821154519807685, 60.91053109930875 Q 34.22564523103003, 56.25420027009767, 41.70373237029729, 55.75287873358165 " fill="none" id="curve_2" stroke="#000000" stroke-linecap="round" stroke-linejoin="round" stroke-width="4.461153730138782"/>
  <path d="M 41.70373237029729, 55.75287873358165 Q 49.20774588457573, 56.565932899378815, 59.62305225332004, 57.29331730634572 " fill="none" id="curve_2" stroke="#000000" stroke-linecap="round" stroke-linejoin="round" stroke-width="4.141621556506386"/>
  <path d="M 65.51112617619103, 30.652490899357314 Q 64.28409219507546, 25.78301481909703, 41.629479074272794, 24.548364215407023 " fill="none" id="curve_3" stroke="#000000" stroke-linecap="round" stroke-linejoin="round" stroke-width="5.1187192143958855"/>
  <path d="M 41.629479074272794, 24.548364215407023 Q 28.09992289371145, 23.70889159544747, 23.288188838886736, 18.133709142317702 " fill="none" id="curve_3" stroke="#000000" stroke-linecap="round" stroke-linejoin="round" stroke-width="5.323775880068345"/>
  <path d="M 64.25737422895203, 27.382484429195383 Q 62.06100160402709, 25.56731006244695, 50.78385111320809, 24.276974705185026 " fill="none" id="curve_5" stroke="#000000" stroke-linecap="round" stroke-linejoin="round" stroke-width="2.4264825322623733"/>
  <path d="M 50.78385111320809, 24.276974705185026 Q 47.6355719461845, 24.645024521386194, 39.720723472667565, 25.055986777408606 " fill="none" id="curve_5" stroke="#000000" stroke-linecap="round" stroke-linejoin="round" stroke-width="4.045577431546855"/>
  <path d="M 31.441714914343272, 94.58724191664501 Q 31.421069892160133, 94.68532238127194, 31.39713292708098, 94.83991854742902 " fill="none" id="curve_7" stroke="#000000" stroke-linecap="round" stroke-linejoin="round" stroke-width="4.154167249105369"/>
  <path d="M 46.1215839363498, 59.44589057524926 Q 40.735885166518806, 67.7499426630676, 31.03496172808414, 79.28481344811982 " fill="none" id="curve_8" stroke="#000000" stroke-linecap="round" stroke-linejoin="round" stroke-width="2.250487187539285"/>
  <path d="M 34.55190730840383, 57.8202760376026 Q 33.7620387513927, 58.257990386706055, 32.878945321145785, 59.068456435522414 " fill="none" id="curve_10" stroke="#000000" stroke-linecap="round" stroke-linejoin="round" stroke-width="3.8279515113508595"/>
  <path d="M 22.198067557192758, 19.95204908590857 Q 22.551709891762084, 19.71975484996606, 23.09332756699224, 19.373790554200205 " fill="none" id="curve_25" stroke="#000000" stroke-linecap="round" stroke-linejoin="round" stroke-width="2.9786105832021663"/>
  <path d="M 52.01503141729866, 25.1032906191272 Q 45.23452584383043, 24.53973315826617, 34.80465239119983, 23.37251055298781 " fill="none" id="curve_27" stroke="#000000" stroke-linecap="round" stroke-linejoin="round" stroke-width="2.9474341343464485"/>
  <path d="M 31.453931306485227, 94.43151832084713 Q 30.031819823790986, 91.47919857428747, 28.30919670832782, 86.97350548846326 " fill="none" id="curve_122" stroke="#000000" stroke-linecap="round" stroke-linejoin="round" stroke-width="2.86145870569268"/>
  <path d="M 35.44403488474804, 57.97066443668446 Q 34.701459755789955, 58.57499318980559, 33.552867758824235, 59.6132501634949 " fill="none" id="curve_123" stroke="#000000" stroke-linecap="round" stroke-linejoin="round" stroke-width="3.6372009696031364"/>
  <path d="M 51.54574228805554, 25.658128678326758 Q 43.993803340089706, 25.003255003490025, 33.76345028493396, 23.56876588218483 " fill="none" id="curve_130" stroke="#000000" stroke-linecap="round" stroke-linejoin="round" stroke-width="3.1449255567942824"/>
  <path d="M 52.88752574869908, 26.433858091248794 Q 53.550978602059274, 26.57519233530832, 54.1497515840448, 26.966607614382486 " fill="none" id="curve_145" stroke="#000000" stroke-linecap="round" stroke-linejoin="round" stroke-width="2.420978681897724"/>
  <path d="M 49.53187677746232, 23.869588113165296 Q 48.11463261738951, 24.44436042653382, 44.469903668603, 25.14552364186288 " fill="none" id="curve_146" stroke="#000000" stroke-linecap="round" stroke-linejoin="round" stroke-width="2.870509478468194"/>
</svg>
