<?xml version="1.0" ?>
<svg height="140" width="140" xmlns="http://www.w3.org/2000/svg">
  <path d="M 49.015459060668945, 65.40285205841064 Q 50.65238867255171, 59.46268756269145, 53.458598345641576, 47.26809639222893 " fill="none" id="curve_1" stroke="#000000" stroke-linecap="round" stroke-linejoin="round" stroke-width="7.625663112073844"/>
  <path d="M 53.458598345641576, 47.26809639222893 Q 53.26958484217908, 37.94818635869795, 52.2653937941747, 33.836775685007225 " fill="none" id="curve_1" stroke="#000000" stroke-linecap="round" stroke-linejoin="round" stroke-width="10.013846261239381"/>
  <path d="M 52.2653937941747, 33.836775685007225 Q 51.98774153369399, 29.094257453804904, 36.65932703018362, 28.886966467314274 " fill="none" id="curve_1" stroke="#000000" stroke-linecap="round" stroke-linejoin="round" stroke-width="10.684848525095948"/>
  <path d="M 36.65932703018362, 28.886966467314274 Q 31.04704938099718, 29.491741962954855, 25.695563100676942, 30.411399797059662 " fill="none" id="curve_1" stroke="#000000" stroke-linecap="round" stroke-linejoin="round" stroke-width="11.062316690309531"/>
  <path d="M 19.615106110148666, 59.88482754492246 Q 30.29679474437078, 63.9156911278969, 48.48231627480905, 66.93246789664612 " fill="none" id="curve_2" stroke="#000000" stroke-linecap="round" stroke-linejoin="round" stroke-width="9.600468170361289"/>
  <path d="M 48.48231627480905, 66.93246789664612 Q 45.838683320331135, 85.26842152177288, 30.83576721970749, 113.23924966328643 " fill="none" id="curve_2" stroke="#000000" stroke-linecap="round" stroke-linejoin="round" stroke-width="5.2835092724677"/>
  <path d="M 30.83576721970749, 113.23924966328643 Q 30.066793613444005, 120.82500801083044, 27.575260570217562, 123.59487370674033 " fill="none" id="curve_2" stroke="#000000" stroke-linecap="round" stroke-linejoin="round" stroke-width="11.014410254357225"/>
  <path d="M 61.4383006038149, 76.44282186192103 Q 60.26581079296003, 71.63139659075883, 52.74778298535833, 69.90664969589028 " fill="none" id="curve_3" stroke="#000000" stroke-linecap="round" stroke-linejoin="round" stroke-width="8.020535994697346"/>
  <path d="M 26.650803965994506, 62.78365169743998 Q 23.788452617180344, 63.24377506294894, 21.022625450953434, 63.855183826312285 " fill="none" id="curve_4" stroke="#000000" stroke-linecap="round" stroke-linejoin="round" stroke-width="7.48636877036318"/>
  <path d="M 22.56595558362768, 57.46340598641024 Q 32.52335246002154, 62.40699056883451, 44.93515804312473, 67.85524066916254 " fill="none" id="curve_5" stroke="#000000" stroke-linecap="round" stroke-linejoin="round" stroke-width="4.259175511717794"/>
  <path d="M 88.85928584573254, 99.65021281160581 Q 88.79042257324365, 92.80058433145538, 88.6602812876041, 82.66059151223217 " fill="none" id="curve_7" stroke="#000000" stroke-linecap="round" stroke-linejoin="round" stroke-width="2.1943087170124596"/>
  <path d="M 89.24163934661183, 59.047605878141006 Q 89.53385272373262, 63.72985966215529, 89.71628718657618, 77.47737428982501 " fill="none" id="curve_8" stroke="#000000" stroke-linecap="round" stroke-linejoin="round" stroke-width="1.604926664821153"/>
  <path d="M 60.5855484583658, 76.4229971551825 Q 56.32929680452532, 74.64266539250309, 49.79059128950644, 71.4323304398161 " fill="none" id="curve_10" stroke="#000000" stroke-linecap="round" stroke-linejoin="round" stroke-width="2.6242316216284114"/>
  <path d="M 49.79059128950644, 71.4323304398161 Q 60.43785078830143, 72.45348244734171, 63.85401172037737, 78.01210681386239 " fill="none" id="curve_10" stroke="#000000" stroke-linecap="round" stroke-linejoin="round" stroke-width="3.541676770459116"/>
  <path d="M 63.85401172037737, 78.01210681386239 Q 61.54983714257243, 70.5068081093916, 51.09452264159974, 64.07070640189964 " fill="none" id="curve_10" stroke="#000000" stroke-linecap="round" stroke-linejoin="round" stroke-width="3.1336479950649756"/>
  <path d="M 48.30509981035365, 60.90023217599303 Q 48.87011422506588, 54.651641384146416, 52.00108908454175, 51.774120973923175 " fill="none" id="curve_11" stroke="#000000" stroke-linecap="round" stroke-linejoin="round" stroke-width="3.2323521168871006"/>
  <path d="M 35.05469328163116, 67.2869718108706 Q 28.678400517975195, 65.40895354817829, 20.28786814835805, 60.971096006486114 " fill="none" id="curve_12" stroke="#000000" stroke-linecap="round" stroke-linejoin="round" stroke-width="2.8501378250997558"/>
  <path d="M 20.28786814835805, 60.971096006486114 Q 20.99948812236106, 60.662502037903366, 39.26105448483415, 60.636859837704506 " fill="none" id="curve_12" stroke="#000000" stroke-linecap="round" stroke-linejoin="round" stroke-width="2.8232784235940547"/>
  <path d="M 21.55650647251774, 56.46757463656035 Q 20.276124943153388, 57.88035903046055, 19.025638855476736, 61.50311517686855 " fill="none" id="curve_13" stroke="#000000" stroke-linecap="round" stroke-linejoin="round" stroke-width="2.9820850967469976"/>
  <path d="M 23.47693533086654, 27.283638694613828 Q 24.056787303227594, 26.76125687279831, 25.984177264302318, 26.469774593956696 " fill="none" id="curve_14" stroke="#000000" stroke-linecap="round" stroke-linejoin="round" stroke-width="4.080164512263551"/>
  <path d="M 88.12361715790038, 1.8296897029212076 Q 88.92248739058228, 2.6114473499123987, 89.20213600706296, 9.982640967129422 " fill="none" id="curve_16" stroke="#000000" stroke-linecap="round" stroke-linejoin="round" stroke-width="2.3620114534156786"/>
  <path d="M 89.11856322874021, 34.55700858471978 Q 89.38665037417674, 32.39831312971506, 89.5018390175201, 17.77941210153813 " fill="none" id="curve_17" stroke="#000000" stroke-linecap="round" stroke-linejoin="round" stroke-width="1.9845407157020651"/>
  <path d="M 57.10545642359856, 33.609810273092805 Q 52.49144743611145, 30.734871765781882, 46.394123391773974, 25.081813991005085 " fill="none" id="curve_18" stroke="#000000" stroke-linecap="round" stroke-linejoin="round" stroke-width="3.7057715474937614"/>
  <path d="M 27.446232662692935, 25.46727242238039 Q 23.426539404346954, 25.654841229943603, 23.161263731344093, 31.01866539862314 " fill="none" id="curve_19" stroke="#000000" stroke-linecap="round" stroke-linejoin="round" stroke-width="5.476999947595267"/>
  <path d="M 23.161263731344093, 31.01866539862314 Q 24.54931786491061, 32.437427318325355, 26.368084958830273, 34.27922089858349 " fill="none" id="curve_19" stroke="#000000" stroke-linecap="round" stroke-linejoin="round" stroke-width="4.164270303630231"/>
  <path d="M 89.21473716087712, 110.68022074545387 Q 89.44565069685065, 117.5221200625826, 89.69978153385563, 128.84525666529424 " fill="none" id="curve_25" stroke="#000000" stroke-linecap="round" stroke-linejoin="round" stroke-width="1.352663085541062"/>
  <path d="M 89.46123478518602, 135.5674349247379 Q 89.50729280137698, 134.67454581202165, 89.56353612408456, 133.37235820602618 " fill="none" id="curve_26" stroke="#000000" stroke-linecap="round" stroke-linejoin="round" stroke-width="1.5827690619771195"/>
  <path d="M 89.26993267596968, 104.39271844596948 Q 89.44847101385994, 102.5437285974076, 89.65221634817917, 98.94590827159409 " fill="none" id="curve_27" stroke="#000000" stroke-linecap="round" stroke-linejoin="round" stroke-width="1.3981548023070167"/>
  <path d="M 89.79230032899152, 109.44789053372295 Q 89.62580704698428, 109.48757610898328, 89.32311624890428, 109.5639611248014 " fill="none" id="curve_28" stroke="#000000" stroke-linecap="round" stroke-linejoin="round" stroke-width="1.6582178270678376"/>
  <path d="M 30.318406763381876, 120.14370791382304 Q 30.650501440381476, 119.84070319003371, 30.7384391777536, 117.45483146368268 " fill="none" id="curve_31" stroke="#000000" stroke-linecap="round" stroke-linejoin="round" stroke-width="10.143037521881915"/>
  <path d="M 30.7384391777536, 117.45483146368268 Q 33.08399250772419, 103.46424908862062, 41.47862480129014, 86.48724845726686 " fill="none" id="curve_31" stroke="#000000" stroke-linecap="round" stroke-linejoin="round" stroke-width="2.873606850236816"/>
  <path d="M 26.751310671821933, 119.04428634121444 Q 26.433264190751732, 120.46584457402402, 25.816033486782334, 121.70160423906295 " fill="none" id="curve_32" stroke="#000000" stroke-linecap="round" stroke-linejoin="round" stroke-width="5.143975052451153"/>
  <path d="M 60.19314602729446, 75.72634140376931 Q 57.62004029621349, 73.30637488470403, 48.68110315277292, 70.88759316160126 " fill="none" id="curve_60" stroke="#000000" stroke-linecap="round" stroke-linejoin="round" stroke-width="2.8511849310261463"/>
  <path d="M 48.45116833820248, 71.97088357477378 Q 54.385248985890826, 73.58704329610907, 59.173376369182606, 76.23140222777343 " fill="none" id="curve_75" stroke="#000000" stroke-linecap="round" stroke-linejoin="round" stroke-width="2.5180232657434214"/>
  <path d="M 54.13762288270111, 43.45613317994737 Q 55.6876462160181, 42.63018968883149, 56.23074899526011, 36.49538744493181 " fill="none" id="curve_105" stroke="#000000" stroke-linecap="round" stroke-linejoin="round" stroke-width="2.994952724023532"/>
  <path d="M 42.52233195133229, 31.02155859389692 Q 43.51200096531086, 28.94628311746947, 51.291109540644875, 27.916210045675463 " fill="none" id="curve_110" stroke="#000000" stroke-linecap="round" stroke-linejoin="round" stroke-width="2.758575766426535"/>
  <path d="M 41.931562423706055, 81.47502899169922 Q 41.977521772114194, 76.4938924512043, 44.77495780372334, 76.13269726761212 " fill="none" id="curve_137" stroke="#000000" stroke-linecap="round" stroke-linejoin="round" stroke-width="3.4694223649118356"/>
  <path d="M 50.46644685511917, 26.012430679143826 Q 49.77330409247352, 26.817819667222356, 48.370015033333125, 27.942813145507234 " fill="none" id="curve_142" stroke="#000000" stroke-linecap="round" stroke-linejoin="round" stroke-width="2.8524678342247607"/>
  <path d="M 24.77131630454675, 27.028650742967564 Q 22.36645248165678, 27.45980246635637, 20.73020744707088, 28.507217647462458 " fill="none" id="curve_143" stroke="#000000" stroke-linecap="round" stroke-linejoin="round" stroke-width="3.0046786513685206"/>
  <path d="M 42.50637881823185, 69.70295464623962 Q 52.12594773303995, 70.11538864042144, 57.64180134140218, 72.36099646587567 " fill="none" id="curve_159" stroke="#000000" stroke-linecap="round" stroke-linejoin="round" stroke-width="2.3619130134962245"/>
  <path d="M 24.998244627094873, 120.80781870361102 Q 25.339911979879155, 116.38798845443611, 28.49692259045303, 115.36334461300157 " fill="none" id="curve_162" stroke="#000000" stroke-linecap="round" stroke-linejoin="round" stroke-width="2.668070061081951"/>
  <path d="M 57.6388222594647, 71.2958890144266 Q 59.984997552584204, 71.16564777427834, 61.10472234578394, 70.41315069426439 " fill="none" id="curve_167" stroke="#000000" stroke-linecap="round" stroke-linejoin="round" stroke-width="3.086740859588132"/>
</svg>
