<?xml version="1.0" ?>
<svg height="140" width="140" xmlns="http://www.w3.org/2000/svg">
  <path d="M 73.73101740102774, 33.84170429277526 Q 72.77812181301732, 34.11363372003854, 71.84154460880207, 35.30065068400755 " fill="none" id="curve_2" stroke="#000000" stroke-linecap="round" stroke-linejoin="round" stroke-width="5.868196572828884"/>
  <path d="M 71.84154460880207, 35.30065068400755 Q 69.22113938709305, 42.297777642749196, 63.3826450766081, 47.007218056348414 " fill="none" id="curve_2" stroke="#000000" stroke-linecap="round" stroke-linejoin="round" stroke-width="8.348336870789444"/>
  <path d="M 63.3826450766081, 47.007218056348414 Q 60.170954936510455, 56.08530637401058, 55.67953515959837, 69.64159347603753 " fill="none" id="curve_2" stroke="#000000" stroke-linecap="round" stroke-linejoin="round" stroke-width="6.033255495081956"/>
  <path d="M 55.67953515959837, 69.64159347603753 Q 51.01401854348997, 76.25009815012136, 47.92162356133801, 105.56264506068487 " fill="none" id="curve_2" stroke="#000000" stroke-linecap="round" stroke-linejoin="round" stroke-width="5.5358125048550555"/>
  <path d="M 47.92162356133801, 105.56264506068487 Q 48.48153963744244, 108.64202706836295, 49.57488889335017, 111.13747169683218 " fill="none" id="curve_2" stroke="#000000" stroke-linecap="round" stroke-linejoin="round" stroke-width="4.648665744693368"/>
  <path d="M 40.216122889964495, 70.6625343314007 Q 32.83373004521291, 70.70320837752043, 28.7276305965976, 70.849840347291 " fill="none" id="curve_3" stroke="#000000" stroke-linecap="round" stroke-linejoin="round" stroke-width="4.692821531012225"/>
  <path d="M 28.7276305965976, 70.849840347291 Q 33.712496822195405, 70.17832473366693, 59.285754888142606, 69.84749381752161 " fill="none" id="curve_3" stroke="#000000" stroke-linecap="round" stroke-linejoin="round" stroke-width="4.075236784392958"/>
  <path d="M 59.285754888142606, 69.84749381752161 Q 66.65685521180941, 69.26350625511405, 73.645008242734, 68.33321462035258 " fill="none" id="curve_3" stroke="#000000" stroke-linecap="round" stroke-linejoin="round" stroke-width="4.3541733765857265"/>
  <path d="M 58.97652661168557, 48.8927405877399 Q 56.88480193896968, 51.367814832960086, 45.19018174003493, 51.9137312701134 " fill="none" id="curve_4" stroke="#000000" stroke-linecap="round" stroke-linejoin="round" stroke-width="6.065254340105649"/>
  <path d="M 45.19018174003493, 51.9137312701134 Q 34.50781601874048, 50.88580086620102, 31.482705589661045, 43.676689263576726 " fill="none" id="curve_4" stroke="#000000" stroke-linecap="round" stroke-linejoin="round" stroke-width="5.4199097700939705"/>
  <path d="M 41.24638580464817, 71.62446376067648 Q 41.82835909002013, 72.09587128629826, 56.11427217219126, 72.14613207708406 " fill="none" id="curve_5" stroke="#000000" stroke-linecap="round" stroke-linejoin="round" stroke-width="3.2728431579272823"/>
  <path d="M 54.1176533383513, 67.8955897465467 Q 54.49974246379372, 60.420380937240054, 57.71188656630942, 58.73242305554926 " fill="none" id="curve_6" stroke="#000000" stroke-linecap="round" stroke-linejoin="round" stroke-width="3.301374130911719"/>
  <path d="M 53.97513575640287, 79.8915768224197 Q 51.54850342058847, 81.51210838295458, 48.74213585125739, 87.24468820909955 " fill="none" id="curve_9" stroke="#000000" stroke-linecap="round" stroke-linejoin="round" stroke-width="3.1074844599287106"/>
  <path d="M 33.836844328755824, 71.5826264256697 Q 31.721024515848608, 70.43052134529137, 28.76373531249783, 68.80303065775043 " fill="none" id="curve_13" stroke="#000000" stroke-linecap="round" stroke-linejoin="round" stroke-width="4.217542338188371"/>
  <path d="M 57.353321236907625, 52.00506506246232 Q 44.313226058411246, 51.223961876646015, 35.142446579579435, 47.9584420057961 " fill="none" id="curve_17" stroke="#000000" stroke-linecap="round" stroke-linejoin="round" stroke-width="2.587328738392874"/>
  <path d="M 29.177131244298035, 41.10801350361383 Q 29.61620923895434, 41.36522921898482, 30.349840603692773, 41.86077044908649 " fill="none" id="curve_18" stroke="#000000" stroke-linecap="round" stroke-linejoin="round" stroke-width="2.658316630576278"/>
  <path d="M 48.72806859977439, 99.10926598685101 Q 50.27952446147963, 80.0060647861362, 58.58921792563591, 66.6459830561586 " fill="none" id="curve_20" stroke="#000000" stroke-linecap="round" stroke-linejoin="round" stroke-width="3.024971262614306"/>
  <path d="M 52.89948221053619, 72.43921049842864 Q 51.1899350889457, 81.5119207813343, 49.572091244563325, 102.90993335129346 " fill="none" id="curve_21" stroke="#000000" stroke-linecap="round" stroke-linejoin="round" stroke-width="2.5736741360613378"/>
  <path d="M 50.62084481289078, 87.11423454007102 Q 53.44259123177289, 80.03321250904528, 58.87759819421041, 68.80506747342594 " fill="none" id="curve_24" stroke="#000000" stroke-linecap="round" stroke-linejoin="round" stroke-width="2.9544136523274496"/>
  <path d="M 54.08286319450995, 50.90696822976891 Q 56.066232367126275, 48.79610948524749, 63.07401826845446, 47.421449609246864 " fill="none" id="curve_25" stroke="#000000" stroke-linecap="round" stroke-linejoin="round" stroke-width="3.2136114970947576"/>
  <path d="M 49.67417666555034, 83.37370014560233 Q 49.94150315595538, 89.85896475657337, 50.23547264543919, 106.29372580216373 " fill="none" id="curve_26" stroke="#000000" stroke-linecap="round" stroke-linejoin="round" stroke-width="2.352965547596668"/>
  <path d="M 48.88833103498049, 92.58858633017616 Q 50.24173278651356, 91.86404287557761, 50.823852409831964, 87.3036829848973 " fill="none" id="curve_31" stroke="#000000" stroke-linecap="round" stroke-linejoin="round" stroke-width="4.63301004771054"/>
  <path d="M 49.0161709674723, 95.56379223761112 Q 50.14214771358072, 90.9547130398077, 51.19879500297222, 78.0697436373768 " fill="none" id="curve_81" stroke="#000000" stroke-linecap="round" stroke-linejoin="round" stroke-width="2.978435657352896"/>
  <path d="M 49.064106073184185, 94.40616345504782 Q 49.89932747656407, 91.61918447435855, 50.581105426047515, 83.08156802814652 " fill="none" id="curve_86" stroke="#000000" stroke-linecap="round" stroke-linejoin="round" stroke-width="3.3409593198405254"/>
  <path d="M 51.67884046453015, 53.19858458101866 Q 52.57082514990899, 48.83280810202102, 63.24422206195174, 47.73436655443575 " fill="none" id="curve_108" stroke="#000000" stroke-linecap="round" stroke-linejoin="round" stroke-width="3.262243138050979"/>
  <path d="M 45.911767480162496, 72.32230283633072 Q 38.57412611941935, 72.2493252104711, 33.75908109067381, 71.904756187061 " fill="none" id="curve_109" stroke="#000000" stroke-linecap="round" stroke-linejoin="round" stroke-width="3.2169901958053875"/>
  <path d="M 49.93375991859822, 91.43803012493365 Q 50.07529613814184, 90.78930707533686, 50.18354028131624, 88.55173799860474 " fill="none" id="curve_117" stroke="#000000" stroke-linecap="round" stroke-linejoin="round" stroke-width="5.382028859431671"/>
  <path d="M 50.18354028131624, 88.55173799860474 Q 51.13697577689159, 87.36811980188997, 52.051988576325456, 81.54910558778359 " fill="none" id="curve_117" stroke="#000000" stroke-linecap="round" stroke-linejoin="round" stroke-width="2.688122047747792"/>
  <path d="M 47.43363751211024, 87.02506667737731 Q 48.17138955924403, 92.90153589653374, 51.05479963471813, 95.25971298651548 " fill="none" id="curve_146" stroke="#000000" stroke-linecap="round" stroke-linejoin="round" stroke-width="3.8632281875154897"/>
  <path d="M 63.15865420763645, 67.78148385086504 Q 70.6811395289943, 67.87707394920008, 76.39282099558399, 68.07391089884871 " fill="none" id="curve_147" stroke="#000000" stroke-linecap="round" stroke-linejoin="round" stroke-width="2.19535247192971"/>
  <path d="M 70.50279282522354, 37.344318585356575 Q 72.03574604305534, 37.55267910476711, 73.16636597696818, 38.038775596915436 " fill="none" id="curve_149" stroke="#000000" stroke-linecap="round" stroke-linejoin="round" stroke-width="4.894582367477887"/>
  <path d="M 46.59600669962707, 51.954570883473586 Q 49.33555830272609, 50.34585847999414, 61.23400632854631, 49.03687830480897 " fill="none" id="curve_154" stroke="#000000" stroke-linecap="round" stroke-linejoin="round" stroke-width="2.493075511037188"/>
  <path d="M 39.41073899227211, 49.48848063507756 Q 35.251865580114384, 48.44360792827887, 29.849863566192077, 46.8548583236544 " fill="none" id="curve_183" stroke="#000000" stroke-linecap="round" stroke-linejoin="round" stroke-width="3.0849817452674033"/>
</svg>
