<?xml version="1.0" ?>
<svg height="140" width="140" xmlns="http://www.w3.org/2000/svg">
  <path d="M 42.89511680603027, 87.08233833312988 Q 44.203765160588205, 82.63055434030815, 48.82957740450934, 78.16382590498222 " fill="none" id="curve_1" stroke="#000000" stroke-linecap="round" stroke-linejoin="round" stroke-width="8.383579613530607"/>
  <path d="M 48.82957740450934, 78.16382590498222 Q 51.30097930673237, 72.2940045501878, 57.485374902333405, 67.0459655683033 " fill="none" id="curve_1" stroke="#000000" stroke-linecap="round" stroke-linejoin="round" stroke-width="8.71425977890019"/>
  <path d="M 57.485374902333405, 67.0459655683033 Q 62.62254619207747, 61.691829836119624, 67.48469646858948, 48.74004297495563 " fill="none" id="curve_1" stroke="#000000" stroke-linecap="round" stroke-linejoin="round" stroke-width="7.4734646373445885"/>
  <path d="M 67.48469646858948, 48.74004297495563 Q 67.27684991418161, 36.41546824308205, 52.04708168841805, 35.78347269020497 " fill="none" id="curve_1" stroke="#000000" stroke-linecap="round" stroke-linejoin="round" stroke-width="5.007315417827435"/>
  <path d="M 52.04708168841805, 35.78347269020497 Q 51.15530080614568, 35.566164797823696, 49.77040315823512, 35.31175025759395 " fill="none" id="curve_1" stroke="#000000" stroke-linecap="round" stroke-linejoin="round" stroke-width="3.5283843867736455"/>
  <path d="M 66.10998953403703, 73.8844085299958 Q 64.98073136874261, 75.90415092748304, 43.67935854461179, 76.34573263701047 " fill="none" id="curve_2" stroke="#000000" stroke-linecap="round" stroke-linejoin="round" stroke-width="4.015359526927758"/>
  <path d="M 43.67935854461179, 76.34573263701047 Q 43.04406759255934, 96.62183948183052, 31.3991005569445, 106.25626605132624 " fill="none" id="curve_2" stroke="#000000" stroke-linecap="round" stroke-linejoin="round" stroke-width="5.009829061571814"/>
  <path d="M 30.397552852363884, 81.03207205757982 Q 30.57316730143483, 77.49161717002241, 36.49414445887091, 77.03751118394176 " fill="none" id="curve_3" stroke="#000000" stroke-linecap="round" stroke-linejoin="round" stroke-width="5.674100272215944"/>
  <path d="M 36.49414445887091, 77.03751118394176 Q 47.527047688265554, 77.17893063728134, 48.55888191539657, 79.73341312733075 " fill="none" id="curve_3" stroke="#000000" stroke-linecap="round" stroke-linejoin="round" stroke-width="4.036225914608871"/>
  <path d="M 48.55888191539657, 79.73341312733075 Q 45.04142831143353, 91.30001088757297, 35.134145887041996, 103.86068489041722 " fill="none" id="curve_3" stroke="#000000" stroke-linecap="round" stroke-linejoin="round" stroke-width="3.4665498518659956"/>
  <path d="M 27.465908402349065, 81.91733195811199 Q 28.156217826958002, 79.95038688774272, 28.947259033755348, 77.16922548127633 " fill="none" id="curve_4" stroke="#000000" stroke-linecap="round" stroke-linejoin="round" stroke-width="3.8044550211732373"/>
  <path d="M 57.39149936916729, 73.99297999319083 Q 61.052327219501066, 74.44724422037862, 72.25827834638571, 74.69779600958074 " fill="none" id="curve_5" stroke="#000000" stroke-linecap="round" stroke-linejoin="round" stroke-width="3.788594655396318"/>
  <path d="M 89.35035369543724, 81.2226420777248 Q 89.34687104331162, 73.91075574562831, 89.33939701869053, 55.4847020426467 " fill="none" id="curve_6" stroke="#000000" stroke-linecap="round" stroke-linejoin="round" stroke-width="2.2814669716685922"/>
  <path d="M 89.33939701869053, 55.4847020426467 Q 89.44043848553301, 50.93524376867572, 89.5899820215868, 43.79706460471919 " fill="none" id="curve_6" stroke="#000000" stroke-linecap="round" stroke-linejoin="round" stroke-width="1.6121021153177193"/>
  <path d="M 89.5899820215868, 43.79706460471919 Q 89.64614252054359, 38.744870095748674, 89.72948974544398, 28.996897023535638 " fill="none" id="curve_6" stroke="#000000" stroke-linecap="round" stroke-linejoin="round" stroke-width="1.4931161620824769"/>
  <path d="M 89.72948974544398, 28.996897023535638 Q 89.69697376760014, 25.053277973033143, 89.65630681114486, 16.406983360882663 " fill="none" id="curve_6" stroke="#000000" stroke-linecap="round" stroke-linejoin="round" stroke-width="1.4232931924521377"/>
  <path d="M 89.65630681114486, 16.406983360882663 Q 89.33858157356372, 11.747634433155696, 88.77678227020805, 0.7869606734777843 " fill="none" id="curve_6" stroke="#000000" stroke-linecap="round" stroke-linejoin="round" stroke-width="2.299211224562651"/>
  <path d="M 88.77678227020805, 0.7869606734777843 Q 88.46205684626729, 1.4208455635466906, 87.93305447917014, 1.871006196583249 " fill="none" id="curve_6" stroke="#000000" stroke-linecap="round" stroke-linejoin="round" stroke-width="3.8857352383287758"/>
  <path d="M 89.7174612031221, 85.0810062852668 Q 89.71439030791605, 96.50447556812588, 89.6978245546702, 117.61999820508521 " fill="none" id="curve_11" stroke="#000000" stroke-linecap="round" stroke-linejoin="round" stroke-width="1.552862270644092"/>
  <path d="M 89.6978245546702, 117.61999820508521 Q 89.6807065149951, 134.26417011434708, 89.55761098909399, 138.16385051914122 " fill="none" id="curve_11" stroke="#000000" stroke-linecap="round" stroke-linejoin="round" stroke-width="2.0590479236650254"/>
  <path d="M 67.14202584036966, 74.47836841267339 Q 65.43206938406175, 75.74883723172793, 60.58050623685788, 76.49714463706005 " fill="none" id="curve_14" stroke="#000000" stroke-linecap="round" stroke-linejoin="round" stroke-width="2.681931318435563"/>
  <path d="M 43.020202791192276, 95.98241461289136 Q 34.970825275738655, 96.5056285782123, 33.806486765663536, 105.00117826939851 " fill="none" id="curve_15" stroke="#000000" stroke-linecap="round" stroke-linejoin="round" stroke-width="3.6475673347407622"/>
  <path d="M 33.806486765663536, 105.00117826939851 Q 38.053706496902905, 101.84252245569937, 40.58300664562643, 91.69773931811862 " fill="none" id="curve_15" stroke="#000000" stroke-linecap="round" stroke-linejoin="round" stroke-width="3.1569721723069977"/>
  <path d="M 68.01913740655401, 41.542030058672566 Q 68.35892309920547, 42.59894420210056, 68.87095695720578, 44.5273028180583 " fill="none" id="curve_18" stroke="#000000" stroke-linecap="round" stroke-linejoin="round" stroke-width="3.3533451243759584"/>
  <path d="M 42.05109325264188, 75.32971564740794 Q 47.3878175559632, 75.46340564916177, 50.271578187992546, 76.66345057947653 " fill="none" id="curve_27" stroke="#000000" stroke-linecap="round" stroke-linejoin="round" stroke-width="3.0385455930425387"/>
  <path d="M 89.60516121694677, 4.582342759880838 Q 89.51375919150962, 3.005907300469634, 89.11315465964766, 1.7216551667763111 " fill="none" id="curve_38" stroke="#000000" stroke-linecap="round" stroke-linejoin="round" stroke-width="2.1271483198103858"/>
  <path d="M 48.69819991642679, 83.99881811406513 Q 48.17137189959139, 83.6607124661749, 46.93092021995167, 83.16851213976597 " fill="none" id="curve_80" stroke="#000000" stroke-linecap="round" stroke-linejoin="round" stroke-width="3.17748703936799"/>
  <path d="M 61.9359168182836, 61.55579451806686 Q 63.162763261392136, 55.53758735586367, 66.32514254991234, 45.96333132912736 " fill="none" id="curve_81" stroke="#000000" stroke-linecap="round" stroke-linejoin="round" stroke-width="2.8264378706190203"/>
</svg>
