<?xml version="1.0" ?>
<svg height="140" width="140" xmlns="http://www.w3.org/2000/svg">
  <path d="M 62.79538917541504, 47.95018124580383 Q 63.88909762265165, 49.39161555221226, 65.58161102874053, 52.04257650011448 " fill="none" id="curve_1" stroke="#000000" stroke-linecap="round" stroke-linejoin="round" stroke-width="7.72886057139317"/>
  <path d="M 65.58161102874053, 52.04257650011448 Q 63.567821788479655, 62.105204252857085, 55.95901761865344, 81.85257048866272 " fill="none" id="curve_1" stroke="#000000" stroke-linecap="round" stroke-linejoin="round" stroke-width="6.504916939655895"/>
  <path d="M 55.95901761865344, 81.85257048866272 Q 52.468597322801976, 93.90124614102791, 45.27753990870238, 109.50351429198983 " fill="none" id="curve_1" stroke="#000000" stroke-linecap="round" stroke-linejoin="round" stroke-width="5.451782733914219"/>
  <path d="M 39.961006739028306, 84.56363425800484 Q 59.87790591670618, 84.23654540510691, 70.3383925133372, 82.07781508658437 " fill="none" id="curve_2" stroke="#000000" stroke-linecap="round" stroke-linejoin="round" stroke-width="4.6903541457315665"/>
  <path d="M 42.41138382987613, 88.2932521130612 Q 41.54457327784436, 84.881974556839, 35.4257958130457, 83.93031625704026 " fill="none" id="curve_3" stroke="#000000" stroke-linecap="round" stroke-linejoin="round" stroke-width="6.300734406973693"/>
  <path d="M 35.4257958130457, 83.93031625704026 Q 50.3463833543496, 84.19709783264273, 53.10956880088517, 87.71426685921566 " fill="none" id="curve_3" stroke="#000000" stroke-linecap="round" stroke-linejoin="round" stroke-width="3.4242878631749316"/>
  <path d="M 74.83060745932423, 80.56809564366071 Q 64.06109482792886, 80.7299085135704, 56.912241666830674, 81.43196382497379 " fill="none" id="curve_4" stroke="#000000" stroke-linecap="round" stroke-linejoin="round" stroke-width="3.74052573894639"/>
  <path d="M 56.912241666830674, 81.43196382497379 Q 50.191638076324864, 88.11926154811444, 44.76243963182924, 105.28927665983353 " fill="none" id="curve_4" stroke="#000000" stroke-linecap="round" stroke-linejoin="round" stroke-width="4.278072331285539"/>
  <path d="M 40.95065982610546, 85.00523678502753 Q 46.40461257064348, 86.9812162165674, 51.52110060419034, 89.30444730573298 " fill="none" id="curve_5" stroke="#000000" stroke-linecap="round" stroke-linejoin="round" stroke-width="3.998019029257322"/>
  <path d="M 62.774396694756014, 50.79881772789243 Q 58.22647232720196, 48.47534433237745, 29.9366569082024, 46.59084395813946 " fill="none" id="curve_7" stroke="#000000" stroke-linecap="round" stroke-linejoin="round" stroke-width="7.40869647344159"/>
  <path d="M 29.9366569082024, 46.59084395813946 Q 24.485843756935594, 46.57433946264197, 23.251441888696455, 46.4277501734835 " fill="none" id="curve_7" stroke="#000000" stroke-linecap="round" stroke-linejoin="round" stroke-width="5.606418982367957"/>
  <path d="M 3.060684472241487, 13.065758176759665 Q 3.3176612086176673, 4.565485137542005, 6.392811838283677, 2.743360909109743 " fill="none" id="curve_8" stroke="#000000" stroke-linecap="round" stroke-linejoin="round" stroke-width="4.24297354520451"/>
  <path d="M 2.636157375425203, 16.634180576701322 Q 2.937197513692385, 18.770618049974747, 3.05424412276961, 49.629201618518934 " fill="none" id="curve_9" stroke="#000000" stroke-linecap="round" stroke-linejoin="round" stroke-width="5.05973606060328"/>
  <path d="M 3.05424412276961, 49.629201618518934 Q 3.084855121822743, 59.50231984173952, 3.2209151467923096, 80.09263697168495 " fill="none" id="curve_9" stroke="#000000" stroke-linecap="round" stroke-linejoin="round" stroke-width="4.7302633431745855"/>
  <path d="M 3.2209151467923096, 80.09263697168495 Q 3.1972756269616425, 89.65649981843087, 3.085301059654459, 107.95017069817106 " fill="none" id="curve_9" stroke="#000000" stroke-linecap="round" stroke-linejoin="round" stroke-width="4.924998115012419"/>
  <path d="M 3.085301059654459, 107.95017069817106 Q 3.1054570351820576, 115.93590155366765, 3.176445829475616, 135.38768271283632 " fill="none" id="curve_9" stroke="#000000" stroke-linecap="round" stroke-linejoin="round" stroke-width="4.889698610080474"/>
  <path d="M 3.176445829475616, 135.38768271283632 Q 3.2194388755150913, 137.87355441845304, 3.6135446362480517, 138.25941594489217 " fill="none" id="curve_9" stroke="#000000" stroke-linecap="round" stroke-linejoin="round" stroke-width="4.323272483310956"/>
  <path d="M 2.4629097382739786, 76.79092933067233 Q 1.9013007521870229, 73.12575986896061, 1.6022588727283786, 53.065798511267914 " fill="none" id="curve_11" stroke="#000000" stroke-linecap="round" stroke-linejoin="round" stroke-width="2.5742291590717907"/>
  <path d="M 46.78046837994407, 45.26856168093018 Q 56.11064998839242, 46.37437299279376, 65.27511062395547, 47.978746780444624 " fill="none" id="curve_13" stroke="#000000" stroke-linecap="round" stroke-linejoin="round" stroke-width="2.4090458074153993"/>
  <path d="M 65.27511062395547, 47.978746780444624 Q 61.8237833761499, 52.97826301627002, 56.471151932873894, 74.96567070122688 " fill="none" id="curve_13" stroke="#000000" stroke-linecap="round" stroke-linejoin="round" stroke-width="3.135307425213329"/>
  <path d="M 56.471151932873894, 74.96567070122688 Q 56.245020476599485, 81.7720493634914, 55.618077857918074, 85.87370889639294 " fill="none" id="curve_13" stroke="#000000" stroke-linecap="round" stroke-linejoin="round" stroke-width="3.364484895376048"/>
  <path d="M 55.618077857918074, 85.87370889639294 Q 57.07593939052122, 85.70067586911739, 58.30409136862305, 85.24802216909853 " fill="none" id="curve_13" stroke="#000000" stroke-linecap="round" stroke-linejoin="round" stroke-width="3.009289213341334"/>
  <path d="M 10.341627472299027, 0.5923365539036531 Q 7.3537478827691976, 1.7478814316478917, 2.978305234432261, 3.6254538724844574 " fill="none" id="curve_22" stroke="#000000" stroke-linecap="round" stroke-linejoin="round" stroke-width="2.1508140324060743"/>
  <path d="M 1.5922501694319235, 18.08307647816635 Q 2.28778730479951, 10.850280149054049, 4.403151395676714, 5.319876637879737 " fill="none" id="curve_23" stroke="#000000" stroke-linecap="round" stroke-linejoin="round" stroke-width="2.7307581599316824"/>
  <path d="M 39.63427138966385, 47.802426851611024 Q 39.26750195110306, 49.01304281928035, 31.27535886532525, 49.19066387499837 " fill="none" id="curve_25" stroke="#000000" stroke-linecap="round" stroke-linejoin="round" stroke-width="2.074034861556772"/>
  <path d="M 45.776162036529925, 50.341485720866 Q 49.24273442006865, 50.060135960495565, 54.4692723967249, 49.58377610615523 " fill="none" id="curve_26" stroke="#000000" stroke-linecap="round" stroke-linejoin="round" stroke-width="1.8454723383253069"/>
  <path d="M 39.8652395802058, 82.34834209456527 Q 44.11966989409737, 82.45688792401532, 53.23401502130969, 82.62007663590894 " fill="none" id="curve_28" stroke="#000000" stroke-linecap="round" stroke-linejoin="round" stroke-width="2.4040650097572542"/>
  <path d="M 53.23401502130969, 82.62007663590894 Q 57.290823092905335, 76.99750890531831, 62.99484289364321, 69.84117684462568 " fill="none" id="curve_28" stroke="#000000" stroke-linecap="round" stroke-linejoin="round" stroke-width="3.278777141577424"/>
  <path d="M 37.056183995202126, 82.76393807508597 Q 37.34531464256994, 82.1350107396241, 37.705588870927, 81.20757719308617 " fill="none" id="curve_31" stroke="#000000" stroke-linecap="round" stroke-linejoin="round" stroke-width="3.3392402811597135"/>
  <path d="M 48.84985999950197, 105.31461851931056 Q 48.37599826282312, 106.54941476286163, 46.985595221625985, 107.31200520494842 " fill="none" id="curve_46" stroke="#000000" stroke-linecap="round" stroke-linejoin="round" stroke-width="3.650204313679072"/>
  <path d="M 2.934788764907103, 7.645115936644043 Q 3.2523962523620127, 5.664637251997217, 4.281918187380969, 4.198183526673995 " fill="none" id="curve_53" stroke="#000000" stroke-linecap="round" stroke-linejoin="round" stroke-width="2.4373784035177803"/>
  <path d="M 5.019611585733923, 43.99200352591345 Q 2.910432049987654, 41.16197894428781, 1.6222307566835519, 26.677101268821648 " fill="none" id="curve_69" stroke="#000000" stroke-linecap="round" stroke-linejoin="round" stroke-width="2.0532201089628765"/>
  <path d="M 2.0106288416868665, 94.25233323022562 Q 2.082602482411096, 101.78439507762678, 2.235989769391053, 107.65310948387861 " fill="none" id="curve_102" stroke="#000000" stroke-linecap="round" stroke-linejoin="round" stroke-width="2.671481902143519"/>
  <path d="M 2.6159683315036215, 138.68171430243234 Q 3.0236992101825644, 138.53122971896912, 3.6682823764276273, 138.35610081879167 " fill="none" id="curve_103" stroke="#000000" stroke-linecap="round" stroke-linejoin="round" stroke-width="3.326910212940754"/>
  <path d="M 53.882916512658404, 80.51414306685818 Q 57.24319320083417, 76.50576984870224, 62.55451518963093, 71.5271461036085 " fill="none" id="curve_119" stroke="#000000" stroke-linecap="round" stroke-linejoin="round" stroke-width="2.8611938931742764"/>
  <path d="M 37.47993317028424, 45.19950280156751 Q 36.89675590696937, 45.022390527478095, 35.71995673602696, 44.72837473622757 " fill="none" id="curve_128" stroke="#000000" stroke-linecap="round" stroke-linejoin="round" stroke-width="2.6640913326137396"/>
  <path d="M 6.4268798828125, 2.1876068115234375 Q 5.723917559070227, 5.214368121190995, 3.488670836732652, 7.216458303863249 " fill="none" id="curve_142" stroke="#000000" stroke-linecap="round" stroke-linejoin="round" stroke-width="5.087808912874591"/>
  <path d="M 73.08246951846934, 82.12676152267733 Q 71.13040988616308, 82.11854160830246, 69.35997341927985, 82.0951180950034 " fill="none" id="curve_170" stroke="#000000" stroke-linecap="round" stroke-linejoin="round" stroke-width="2.9740878690594963"/>
</svg>
