<?xml version="1.0" ?>
<svg height="140" width="140" xmlns="http://www.w3.org/2000/svg">
  <path d="M 58.975074087691155, 88.47199219020774 Q 50.226014024573445, 88.9562632586206, 45.01323564187058, 90.36466857736906 " fill="none" id="curve_2" stroke="#000000" stroke-linecap="round" stroke-linejoin="round" stroke-width="6.7083893833661135"/>
  <path d="M 45.01323564187058, 90.36466857736906 Q 43.01624601367435, 99.0765661983164, 27.48528374862478, 115.43983041347924 " fill="none" id="curve_2" stroke="#000000" stroke-linecap="round" stroke-linejoin="round" stroke-width="3.8881340938375355"/>
  <path d="M 27.48528374862478, 115.43983041347924 Q 27.236009971691708, 118.29714421171808, 25.741681230754047, 119.09751885387819 " fill="none" id="curve_2" stroke="#000000" stroke-linecap="round" stroke-linejoin="round" stroke-width="4.002354530484987"/>
  <path d="M 24.097067134703888, 94.54312679914953 Q 28.665346668360236, 91.64686024166016, 45.767379185119836, 90.38582838204013 " fill="none" id="curve_3" stroke="#000000" stroke-linecap="round" stroke-linejoin="round" stroke-width="5.016589457700468"/>
  <path d="M 45.767379185119836, 90.38582838204013 Q 52.85702574065275, 84.3316304912677, 60.31315399673688, 62.48302728896782 " fill="none" id="curve_3" stroke="#000000" stroke-linecap="round" stroke-linejoin="round" stroke-width="4.1427554520897125"/>
  <path d="M 60.31315399673688, 62.48302728896782 Q 60.18524274963458, 40.870628934927666, 44.3068896731797, 39.86009806773601 " fill="none" id="curve_3" stroke="#000000" stroke-linecap="round" stroke-linejoin="round" stroke-width="4.323473828724838"/>
  <path d="M 44.3068896731797, 39.86009806773601 Q 26.996807069190954, 41.17037467749286, 17.42118294471598, 48.119033392819674 " fill="none" id="curve_3" stroke="#000000" stroke-linecap="round" stroke-linejoin="round" stroke-width="3.8270362707324654"/>
  <path d="M 17.42118294471598, 48.119033392819674 Q 17.21778039837438, 50.213804912805664, 16.548189409630588, 51.109890495583784 " fill="none" id="curve_3" stroke="#000000" stroke-linecap="round" stroke-linejoin="round" stroke-width="2.9926427025808087"/>
  <path d="M 27.365085732429115, 93.53842163825779 Q 26.472067774192634, 93.2215237975429, 25.45105131036548, 92.75789004695349 " fill="none" id="curve_4" stroke="#000000" stroke-linecap="round" stroke-linejoin="round" stroke-width="5.602782004066829"/>
  <path d="M 21.69541259074353, 43.726520330253884 Q 23.103267502266664, 43.46962745551685, 26.132810216796578, 43.10169397201203 " fill="none" id="curve_5" stroke="#000000" stroke-linecap="round" stroke-linejoin="round" stroke-width="3.419349441492637"/>
  <path d="M 58.70982418116191, 58.09990699593321 Q 58.634774915790686, 64.52376803763764, 58.431581767221566, 70.22281333148828 " fill="none" id="curve_6" stroke="#000000" stroke-linecap="round" stroke-linejoin="round" stroke-width="2.5111202331637337"/>
  <path d="M 58.431581767221566, 70.22281333148828 Q 53.34997556963677, 74.19317435092432, 50.40284045820896, 85.02439051833392 " fill="none" id="curve_6" stroke="#000000" stroke-linecap="round" stroke-linejoin="round" stroke-width="2.8102311442202055"/>
  <path d="M 61.97837149585967, 87.8853594618383 Q 61.645036526846575, 88.42910011765083, 60.794037260017284, 89.06986436333024 " fill="none" id="curve_7" stroke="#000000" stroke-linecap="round" stroke-linejoin="round" stroke-width="2.69174061006509"/>
  <path d="M 28.85036197761612, 93.83910095752833 Q 29.075315194571953, 93.73576095450125, 29.309971367622342, 93.55272802896788 " fill="none" id="curve_14" stroke="#000000" stroke-linecap="round" stroke-linejoin="round" stroke-width="4.949614685294845"/>
  <path d="M 32.62371835739372, 109.25068990241202 Q 34.00372060719795, 105.95569208830887, 37.74593497442429, 102.83447929081858 " fill="none" id="curve_15" stroke="#000000" stroke-linecap="round" stroke-linejoin="round" stroke-width="2.6113866848525835"/>
  <path d="M 38.96432804075566, 39.89124344099533 Q 29.777666560205965, 40.75409348792041, 25.28951243896161, 45.54987576740073 " fill="none" id="curve_24" stroke="#000000" stroke-linecap="round" stroke-linejoin="round" stroke-width="2.3848015825773534"/>
  <path d="M 26.939016018937735, 93.63013539669929 Q 30.757702423112956, 91.9177123511896, 41.6906494404415, 90.42073832881117 " fill="none" id="curve_31" stroke="#000000" stroke-linecap="round" stroke-linejoin="round" stroke-width="2.609761424439751"/>
  <path d="M 58.09381291477213, 46.72700626088758 Q 58.982905610892836, 47.789854037105435, 59.717991524747845, 50.15231835590523 " fill="none" id="curve_35" stroke="#000000" stroke-linecap="round" stroke-linejoin="round" stroke-width="2.317661400230019"/>
  <path d="M 59.44895865802232, 66.50987733219154 Q 57.48384533556653, 67.77418152056276, 55.39738885448889, 70.6839845814303 " fill="none" id="curve_76" stroke="#000000" stroke-linecap="round" stroke-linejoin="round" stroke-width="3.0529273557117973"/>
</svg>
