<?xml version="1.0" ?>
<svg height="140" width="140" xmlns="http://www.w3.org/2000/svg">
  <path d="M 57.0, 64.0 Q 57.40900036490271, 54.314982119816705, 61.40419340133667, 46.92442321777344 " fill="none" id="curve_0" stroke="#000000" stroke-linecap="round" stroke-linejoin="round" stroke-width="29.209982630718187"/>
  <path d="M 61.40419340133667, 46.92442321777344 Q 63.16798838969183, 36.01362591729106, 68.29325455273641, 14.27489664339032 " fill="none" id="curve_0" stroke="#000000" stroke-linecap="round" stroke-linejoin="round" stroke-width="28.43242770209994"/>
  <path d="M 68.29325455273641, 14.27489664339032 Q 66.04567333116542, 16.080650786432102, 33.89344473082716, 16.790058525898054 " fill="none" id="curve_0" stroke="#000000" stroke-linecap="round" stroke-linejoin="round" stroke-width="33.89858194011254"/>
  <path d="M 33.89344473082716, 16.790058525898054 Q 31.8048552219854, 11.461184364785744, 10.767246465571883, 9.625583945771906 " fill="none" id="curve_0" stroke="#000000" stroke-linecap="round" stroke-linejoin="round" stroke-width="17.201145702294728"/>
  <path d="M 10.767246465571883, 9.625583945771906 Q 8.607737635500772, 12.657648084677412, 8.25085222039402, 44.866156707852895 " fill="none" id="curve_0" stroke="#000000" stroke-linecap="round" stroke-linejoin="round" stroke-width="14.112418519806111"/>
  <path d="M 8.25085222039402, 44.866156707852895 Q 10.152643979318533, 62.74795484923273, 16.789156787731056, 80.50163937672954 " fill="none" id="curve_0" stroke="#000000" stroke-linecap="round" stroke-linejoin="round" stroke-width="36.59790431160525"/>
  <path d="M 16.789156787731056, 80.50163937672954 Q 14.30899754318586, 86.1223873665657, 11.743192144371871, 105.46101195678096 " fill="none" id="curve_0" stroke="#000000" stroke-linecap="round" stroke-linejoin="round" stroke-width="17.567507114755102"/>
  <path d="M 11.743192144371871, 105.46101195678096 Q 8.199298716224174, 109.88433778599821, 7.158457704522018, 132.48971177205425 " fill="none" id="curve_0" stroke="#000000" stroke-linecap="round" stroke-linejoin="round" stroke-width="12.411497264023287"/>
  <path d="M 7.158457704522018, 132.48971177205425 Q 14.293026391998694, 126.65945825287656, 59.22499074622881, 123.65872619932023 " fill="none" id="curve_0" stroke="#000000" stroke-linecap="round" stroke-linejoin="round" stroke-width="32.41333316580882"/>
  <path d="M 59.22499074622881, 123.65872619932023 Q 62.043265803474114, 114.02555879758961, 67.38905756756556, 96.55083356683579 " fill="none" id="curve_0" stroke="#000000" stroke-linecap="round" stroke-linejoin="round" stroke-width="41.72332674623972"/>
  <path d="M 67.38905756756556, 96.55083356683579 Q 68.20309003273191, 82.89350863017094, 72.59357682451498, 73.75728784387437 " fill="none" id="curve_0" stroke="#000000" stroke-linecap="round" stroke-linejoin="round" stroke-width="36.58903686397047"/>
  <path d="M 72.59357682451498, 73.75728784387437 Q 50.812234414174895, 71.1681237740703, 31.51023498758566, 57.78597040360299 " fill="none" id="curve_0" stroke="#000000" stroke-linecap="round" stroke-linejoin="round" stroke-width="35.35091446106693"/>
  <path d="M 31.51023498758566, 57.78597040360299 Q 29.301529366369863, 43.486913183109195, 20.3422672210623, 33.65514649336664 " fill="none" id="curve_0" stroke="#000000" stroke-linecap="round" stroke-linejoin="round" stroke-width="22.89467152342739"/>
  <path d="M 20.3422672210623, 33.65514649336664 Q 39.13117178227988, 34.653782490713674, 44.36121857747328, 40.64041985457269 " fill="none" id="curve_0" stroke="#000000" stroke-linecap="round" stroke-linejoin="round" stroke-width="11.718235281576593"/>
  <path d="M 44.36121857747328, 40.64041985457269 Q 76.64377463889768, 43.60409902395926, 85.64749813660872, 59.87927807753412 " fill="none" id="curve_0" stroke="#000000" stroke-linecap="round" stroke-linejoin="round" stroke-width="17.69740466611931"/>
  <path d="M 85.64749813660872, 59.87927807753412 Q 85.5689560091383, 35.47816399617066, 85.38536846892801, 1.8111266035350937 " fill="none" id="curve_0" stroke="#000000" stroke-linecap="round" stroke-linejoin="round" stroke-width="11.217325028166714"/>
  <path d="M 85.38536846892801, 1.8111266035350937 Q 84.51702864961257, 4.427469273572591, 41.33652150886026, 4.5831962141904015 " fill="none" id="curve_0" stroke="#000000" stroke-linecap="round" stroke-linejoin="round" stroke-width="8.558448628488794"/>
  <path d="M 41.33652150886026, 4.5831962141904015 Q 22.573205840163205, 4.071062515268123, 1.6619277025934736, 2.7538505594941753 " fill="none" id="curve_0" stroke="#000000" stroke-linecap="round" stroke-linejoin="round" stroke-width="6.021485809820245"/>
  <path d="M 34.10293931884384, 82.38433050143286 Q 35.82415992150993, 86.52724667965613, 37.86275734044961, 95.01197332821317 " fill="none" id="curve_2" stroke="#000000" stroke-linecap="round" stroke-linejoin="round" stroke-width="31.102783176146005"/>
  <path d="M 37.86275734044961, 95.01197332821317 Q 33.297899528187834, 108.93536925914071, 16.522234059239256, 115.95949633226837 " fill="none" id="curve_2" stroke="#000000" stroke-linecap="round" stroke-linejoin="round" stroke-width="13.182696898701101"/>
  <path d="M 67.94441042727254, 136.11576217666297 Q 78.46826029902962, 135.5517894274048, 83.89844886749322, 133.55487630026497 " fill="none" id="curve_3" stroke="#000000" stroke-linecap="round" stroke-linejoin="round" stroke-width="12.43860402565327"/>
  <path d="M 83.89844886749322, 133.55487630026497 Q 85.78784963286411, 121.52623893496435, 87.80377389790289, 81.10959731806308 " fill="none" id="curve_3" stroke="#000000" stroke-linecap="round" stroke-linejoin="round" stroke-width="8.190535151921557"/>
  <path d="M 87.80377389790289, 81.10959731806308 Q 84.59480646603771, 110.6061797817554, 70.86750534279562, 134.06554615920453 " fill="none" id="curve_3" stroke="#000000" stroke-linecap="round" stroke-linejoin="round" stroke-width="9.637890316971546"/>
  <path d="M 70.86750534279562, 134.06554615920453 Q 67.49988768360933, 137.39352142820005, 24.071007280148535, 138.17300691874317 " fill="none" id="curve_3" stroke="#000000" stroke-linecap="round" stroke-linejoin="round" stroke-width="5.7047359314048895"/>
  <path d="M 24.071007280148535, 138.17300691874317 Q 12.536215162103968, 138.01292425736713, 2.8815365239749653, 137.63455224245538 " fill="none" id="curve_3" stroke="#000000" stroke-linecap="round" stroke-linejoin="round" stroke-width="4.63307900255919"/>
  <path d="M 2.8815365239749653, 137.63455224245538 Q 13.558593573834605, 127.57595406775889, 35.65824961220924, 115.20980611133884 " fill="none" id="curve_3" stroke="#000000" stroke-linecap="round" stroke-linejoin="round" stroke-width="6.959899787260104"/>
  <path d="M 35.65824961220924, 115.20980611133884 Q 45.46962834568433, 115.88006197808929, 57.08932342195672, 118.357934337897 " fill="none" id="curve_3" stroke="#000000" stroke-linecap="round" stroke-linejoin="round" stroke-width="3.250807088787688"/>
  <path d="M 1.7233992449187596, 119.02433835184226 Q 3.742770387253149, 106.90804514318876, 6.48446747066647, 77.66620444522735 " fill="none" id="curve_4" stroke="#000000" stroke-linecap="round" stroke-linejoin="round" stroke-width="4.826331924888167"/>
  <path d="M 47.70310022160564, 32.80631759386434 Q 63.78600937501367, 34.09581568532247, 72.38519080890899, 43.42383739806999 " fill="none" id="curve_5" stroke="#000000" stroke-linecap="round" stroke-linejoin="round" stroke-width="3.0769716875536197"/>
  <path d="M 72.38519080890899, 43.42383739806999 Q 78.04050393825902, 42.27770888058752, 79.14637371427403, 22.57595562169435 " fill="none" id="curve_5" stroke="#000000" stroke-linecap="round" stroke-linejoin="round" stroke-width="7.046131057369112"/>
  <path d="M 66.73561624489165, 97.76554064458182 Q 70.48019242181343, 89.24584845316807, 88.56504341951748, 75.19418933604629 " fill="none" id="curve_7" stroke="#000000" stroke-linecap="round" stroke-linejoin="round" stroke-width="4.485113303476973"/>
  <path d="M 44.959073282341684, 110.76791438891097 Q 67.78538603050232, 117.33580503806944, 94.32607577800049, 128.81472500499694 " fill="none" id="curve_10" stroke="#000000" stroke-linecap="round" stroke-linejoin="round" stroke-width="6.505312050211215"/>
  <path d="M 88.43651167954158, 74.59081183833129 Q 87.56349050889405, 67.89063061019415, 82.09595650137481, 59.89297385478218 " fill="none" id="curve_14" stroke="#000000" stroke-linecap="round" stroke-linejoin="round" stroke-width="4.897728530296437"/>
  <path d="M 69.78011496356574, 57.322355811728684 Q 72.72187649953887, 57.34086580731464, 78.48277262724153, 57.367275609503174 " fill="none" id="curve_18" stroke="#000000" stroke-linecap="round" stroke-linejoin="round" stroke-width="2.6708271736418743"/>
  <path d="M 50.90364053864948, 86.09796767714117 Q 48.489801055128325, 85.30708057654329, 46.353003050103986, 83.05002977523506 " fill="none" id="curve_19" stroke="#000000" stroke-linecap="round" stroke-linejoin="round" stroke-width="1.6617603320556842"/>
  <path d="M 46.22536126879163, 105.44753154175267 Q 45.381827691720765, 105.87014015176113, 43.913295926206004, 106.53267531375387 " fill="none" id="curve_20" stroke="#000000" stroke-linecap="round" stroke-linejoin="round" stroke-width="1.842852738020325"/>
  <path d="M 83.67428788171696, 138.98696267678105 Q 88.04842692271859, 138.8656659070925, 89.42101482792752, 138.13729453740697 " fill="none" id="curve_28" stroke="#000000" stroke-linecap="round" stroke-linejoin="round" stroke-width="4.15931079130956"/>
</svg>
