<?xml version="1.0" ?>
<svg height="140" width="140" xmlns="http://www.w3.org/2000/svg">
  <path d="M 49.33720779418945, 52.56058692932129 Q 49.06028833287959, 52.46893218131792, 47.12581481828886, 52.40027898183271 " fill="none" id="curve_1" stroke="#000000" stroke-linecap="round" stroke-linejoin="round" stroke-width="6.37597434801567"/>
  <path d="M 47.12581481828886, 52.40027898183271 Q 44.13670786324189, 54.37921981649497, 27.336994394384302, 56.268801851763946 " fill="none" id="curve_1" stroke="#000000" stroke-linecap="round" stroke-linejoin="round" stroke-width="5.102478321973346"/>
  <path d="M 27.336994394384302, 56.268801851763946 Q 17.300438261694353, 57.47197339466063, 8.658464639740426, 59.916077152683904 " fill="none" id="curve_1" stroke="#000000" stroke-linecap="round" stroke-linejoin="round" stroke-width="5.101584243219955"/>
  <path d="M 43.52689709121182, 57.6467155803041 Q 39.95388119552327, 67.58064350635411, 33.67449925141605, 89.762904521673 " fill="none" id="curve_2" stroke="#000000" stroke-linecap="round" stroke-linejoin="round" stroke-width="4.395109135851483"/>
  <path d="M 33.67449925141605, 89.762904521673 Q 32.30533675124197, 98.68704054537174, 30.54193456905665, 109.70254545122818 " fill="none" id="curve_2" stroke="#000000" stroke-linecap="round" stroke-linejoin="round" stroke-width="3.630461757788521"/>
  <path d="M 19.75364507774823, 90.97608620674575 Q 27.064428265670706, 89.45017036611048, 41.667610240929065, 87.85847748917783 " fill="none" id="curve_3" stroke="#000000" stroke-linecap="round" stroke-linejoin="round" stroke-width="5.721295079810707"/>
  <path d="M 41.667610240929065, 87.85847748917783 Q 46.19466088028175, 87.71078595112205, 49.096949239637496, 87.40171762506108 " fill="none" id="curve_3" stroke="#000000" stroke-linecap="round" stroke-linejoin="round" stroke-width="4.637624472093318"/>
  <path d="M 41.02055922189041, 65.8845546986782 Q 44.767542446953456, 60.34254717583408, 49.37355697588554, 52.50374055177653 " fill="none" id="curve_4" stroke="#000000" stroke-linecap="round" stroke-linejoin="round" stroke-width="3.613434241552077"/>
  <path d="M 49.37355697588554, 52.50374055177653 Q 49.518475164890546, 50.81602114015384, 50.08635212455932, 50.2422490214429 " fill="none" id="curve_4" stroke="#000000" stroke-linecap="round" stroke-linejoin="round" stroke-width="3.699334454941719"/>
  <path d="M 36.81188272090782, 74.52856823648403 Q 39.58134502618632, 70.43778899795652, 41.6628067209516, 61.3510338474169 " fill="none" id="curve_5" stroke="#000000" stroke-linecap="round" stroke-linejoin="round" stroke-width="2.8957193452345895"/>
  <path d="M 31.05149515852561, 110.12520194797624 Q 31.455843401786765, 98.1865664949247, 34.509624711960726, 93.75491035627483 " fill="none" id="curve_7" stroke="#000000" stroke-linecap="round" stroke-linejoin="round" stroke-width="3.1749947123529463"/>
  <path d="M 19.158232065942677, 88.93487429594333 Q 23.116476238533426, 89.5794878110715, 32.033480613256835, 90.12648891154339 " fill="none" id="curve_8" stroke="#000000" stroke-linecap="round" stroke-linejoin="round" stroke-width="3.4059909820612293"/>
  <path d="M 39.98514578902794, 69.27178228054139 Q 38.40435732898674, 72.09861830625843, 36.56899664825929, 79.04636439763547 " fill="none" id="curve_11" stroke="#000000" stroke-linecap="round" stroke-linejoin="round" stroke-width="2.63529585621979"/>
  <path d="M 31.574635244378246, 105.7175985520216 Q 31.24685046412843, 105.4854226059095, 30.46195349358365, 105.06755392430243 " fill="none" id="curve_13" stroke="#000000" stroke-linecap="round" stroke-linejoin="round" stroke-width="3.044303422392026"/>
  <path d="M 39.39730939427437, 68.5902098235293 Q 38.819941860956305, 71.15292325422331, 37.758830538473035, 75.76981952020023 " fill="none" id="curve_46" stroke="#000000" stroke-linecap="round" stroke-linejoin="round" stroke-width="2.470494636309005"/>
  <path d="M 36.61457824707031, 86.64404797554016 Q 36.617992700375645, 82.1266447032213, 36.64302178594005, 80.2959193671004 " fill="none" id="curve_86" stroke="#000000" stroke-linecap="round" stroke-linejoin="round" stroke-width="2.1928491181403067"/>
  <path d="M 26.78848115747971, 58.271332381901914 Q 29.238945529733517, 57.7686477316241, 31.041096330862093, 56.42930494088566 " fill="none" id="curve_103" stroke="#000000" stroke-linecap="round" stroke-linejoin="round" stroke-width="3.4458718188875355"/>
  <path d="M 39.77315044045713, 69.87889868947778 Q 38.878741036107336, 71.45825857403139, 37.46201855549271, 74.75142383221679 " fill="none" id="curve_107" stroke="#000000" stroke-linecap="round" stroke-linejoin="round" stroke-width="3.0906259439132238"/>
  <path d="M 30.465128372607452, 108.2784427095129 Q 30.698550083994345, 106.07047416630482, 31.337499307634747, 103.23791792346356 " fill="none" id="curve_109" stroke="#000000" stroke-linecap="round" stroke-linejoin="round" stroke-width="2.851025100365281"/>
  <path d="M 19.86658007396981, 56.365459699990005 Q 17.671555250260898, 56.752868627186594, 14.039794640974481, 57.60187846413218 " fill="none" id="curve_110" stroke="#000000" stroke-linecap="round" stroke-linejoin="round" stroke-width="3.081170652659157"/>
  <path d="M 32.677642822265625, 90.57412910461426 Q 33.3848030527695, 91.10025789165346, 36.1757442181306, 91.43170724226613 " fill="none" id="curve_124" stroke="#000000" stroke-linecap="round" stroke-linejoin="round" stroke-width="3.3648074696558927"/>
  <path d="M 22.3455311536678, 91.29402049033966 Q 27.898767869489877, 91.0792393877238, 32.25881551427682, 90.55898781785433 " fill="none" id="curve_125" stroke="#000000" stroke-linecap="round" stroke-linejoin="round" stroke-width="2.8862807027044766"/>
  <path d="M 37.0877466136735, 78.38704302834427 Q 37.990289166073794, 72.83491591400812, 39.97679751228318, 68.36423130298144 " fill="none" id="curve_127" stroke="#000000" stroke-linecap="round" stroke-linejoin="round" stroke-width="3.1185949660517323"/>
  <path d="M 38.110369480153395, 75.18699717690549 Q 39.21515773161761, 72.36796166475031, 40.40975133311389, 67.03062509540376 " fill="none" id="curve_142" stroke="#000000" stroke-linecap="round" stroke-linejoin="round" stroke-width="3.11510156015282"/>
  <path d="M 40.40975133311389, 67.03062509540376 Q 39.30107392033453, 70.74715651246424, 37.19849408018812, 76.13482982833798 " fill="none" id="curve_142" stroke="#000000" stroke-linecap="round" stroke-linejoin="round" stroke-width="2.65528923062342"/>
  <path d="M 37.19849408018812, 76.13482982833798 Q 38.03153409015066, 73.61483339695823, 39.27676002194244, 68.72651864168901 " fill="none" id="curve_142" stroke="#000000" stroke-linecap="round" stroke-linejoin="round" stroke-width="2.5353862757798957"/>
  <path d="M 28.565096094168723, 56.09951676909872 Q 23.279838231951693, 56.07775810186015, 18.87102158881459, 55.965013121504796 " fill="none" id="curve_151" stroke="#000000" stroke-linecap="round" stroke-linejoin="round" stroke-width="2.7755648007009865"/>
</svg>
