<?xml version="1.0" ?>
<svg height="140" width="140" xmlns="http://www.w3.org/2000/svg">
  <path d="M 66.4063326798817, 95.72796208237098 Q 59.886262965049234, 96.8169573131554, 47.22398586294773, 98.4933682087608 " fill="none" id="curve_2" stroke="#000000" stroke-linecap="round" stroke-linejoin="round" stroke-width="5.358323561813557"/>
  <path d="M 47.22398586294773, 98.4933682087608 Q 48.28790723809996, 93.39972817114462, 50.73065056989189, 83.09088600398358 " fill="none" id="curve_2" stroke="#000000" stroke-linecap="round" stroke-linejoin="round" stroke-width="5.402786784696469"/>
  <path d="M 50.73065056989189, 83.09088600398358 Q 54.3909212013893, 73.05367112097957, 60.67566172042435, 60.353199578875646 " fill="none" id="curve_2" stroke="#000000" stroke-linecap="round" stroke-linejoin="round" stroke-width="6.895850228232494"/>
  <path d="M 60.67566172042435, 60.353199578875646 Q 49.836029985262826, 62.32917274245059, 25.50130218878445, 65.43560422118645 " fill="none" id="curve_2" stroke="#000000" stroke-linecap="round" stroke-linejoin="round" stroke-width="6.233225936158969"/>
  <path d="M 22.83680614232628, 103.46927080935501 Q 36.92188850325372, 101.9578906169735, 46.08703518253057, 98.41923359726371 " fill="none" id="curve_3" stroke="#000000" stroke-linecap="round" stroke-linejoin="round" stroke-width="5.311819187790502"/>
  <path d="M 46.08703518253057, 98.41923359726371 Q 43.23411319531021, 110.20686522388954, 38.84619628352435, 119.9861688672596 " fill="none" id="curve_3" stroke="#000000" stroke-linecap="round" stroke-linejoin="round" stroke-width="4.921151216620105"/>
  <path d="M 22.983210700073734, 106.05377379674543 Q 23.092216609478704, 105.73236630175252, 23.174636562164515, 105.03001129095672 " fill="none" id="curve_4" stroke="#000000" stroke-linecap="round" stroke-linejoin="round" stroke-width="6.590790866848066"/>
  <path d="M 65.04085092293907, 60.13480148278845 Q 69.97066643440863, 60.39326312853026, 75.71715973728955, 60.70782994986325 " fill="none" id="curve_6" stroke="#000000" stroke-linecap="round" stroke-linejoin="round" stroke-width="4.727518044044433"/>
  <path d="M 52.6284587578821, 62.23220408207752 Q 52.415163456070786, 65.32536011640947, 34.686863521610135, 65.41458533533593 " fill="none" id="curve_7" stroke="#000000" stroke-linecap="round" stroke-linejoin="round" stroke-width="3.791173020004213"/>
  <path d="M 34.686863521610135, 65.41458533533593 Q 37.08606513150617, 60.10126875765956, 51.624577953304254, 58.47698792468871 " fill="none" id="curve_7" stroke="#000000" stroke-linecap="round" stroke-linejoin="round" stroke-width="3.28983105606321"/>
  <path d="M 62.951739281045874, 59.02275224589981 Q 55.59346820274819, 59.28196599644789, 54.81897341045166, 64.58963823395533 " fill="none" id="curve_8" stroke="#000000" stroke-linecap="round" stroke-linejoin="round" stroke-width="5.318549621550875"/>
  <path d="M 35.58073496772589, 99.62300453487433 Q 23.709126786384772, 100.24020883246354, 19.614574530278773, 104.47117163292181 " fill="none" id="curve_9" stroke="#000000" stroke-linecap="round" stroke-linejoin="round" stroke-width="3.394196378576339"/>
  <path d="M 44.92489704266767, 95.81831818454755 Q 46.8699078363413, 90.75092884349652, 52.21028047187855, 86.64647793971064 " fill="none" id="curve_10" stroke="#000000" stroke-linecap="round" stroke-linejoin="round" stroke-width="2.978226729182329"/>
  <path d="M 61.71247932005392, 58.45821542380648 Q 67.51257554922603, 58.60082876393421, 70.71220133224092, 59.09195064512156 " fill="none" id="curve_11" stroke="#000000" stroke-linecap="round" stroke-linejoin="round" stroke-width="2.2934024605035956"/>
  <path d="M 24.77383571367042, 66.10327474408636 Q 24.679317235104484, 65.30058158311355, 24.52410578839347, 64.40535346016229 " fill="none" id="curve_13" stroke="#000000" stroke-linecap="round" stroke-linejoin="round" stroke-width="4.0573485434750785"/>
  <path d="M 56.50196567813584, 60.066152004106364 Q 56.43195227181853, 59.62802228969714, 56.207887415491236, 58.96944052044607 " fill="none" id="curve_18" stroke="#000000" stroke-linecap="round" stroke-linejoin="round" stroke-width="3.6845459774233715"/>
  <path d="M 50.58955132148781, 92.70979193880663 Q 52.88771060594412, 83.20927762646049, 56.05821575980472, 58.16017271220925 " fill="none" id="curve_19" stroke="#000000" stroke-linecap="round" stroke-linejoin="round" stroke-width="2.853653816836732"/>
  <path d="M 35.90691171197724, 60.66603765382939 Q 37.20381384011736, 60.848633555135144, 38.79262640963824, 61.27259252667483 " fill="none" id="curve_35" stroke="#000000" stroke-linecap="round" stroke-linejoin="round" stroke-width="3.2934571376591415"/>
  <path d="M 28.307430267333984, 66.75935649871826 Q 33.38677734216869, 66.02963188454426, 41.26598803144975, 64.42658212959995 " fill="none" id="curve_62" stroke="#000000" stroke-linecap="round" stroke-linejoin="round" stroke-width="2.475638186084052"/>
  <path d="M 51.79839276497188, 60.28753911804185 Q 51.89479530135197, 58.447580749277556, 56.00423828711004, 58.314078952419614 " fill="none" id="curve_77" stroke="#000000" stroke-linecap="round" stroke-linejoin="round" stroke-width="2.6601517221001276"/>
  <path d="M 41.9017521618897, 65.92725398557296 Q 46.89905125131801, 65.97621741302912, 55.193161223054105, 66.02258184456245 " fill="none" id="curve_78" stroke="#000000" stroke-linecap="round" stroke-linejoin="round" stroke-width="2.175004458049293"/>
  <path d="M 52.50802256292344, 71.94527407140623 Q 51.6093302282866, 77.24806298228799, 50.098629870552, 84.67542231624206 " fill="none" id="curve_94" stroke="#000000" stroke-linecap="round" stroke-linejoin="round" stroke-width="2.578426288205913"/>
  <path d="M 39.91267877108879, 109.5693038542991 Q 41.19671214924478, 109.39365411519717, 42.455913195032636, 108.8977995840706 " fill="none" id="curve_110" stroke="#000000" stroke-linecap="round" stroke-linejoin="round" stroke-width="3.222441090854086"/>
  <path d="M 26.87945332018492, 66.37342511764886 Q 29.038009419769004, 66.3753268223492, 34.007243344118315, 66.37772718503818 " fill="none" id="curve_112" stroke="#000000" stroke-linecap="round" stroke-linejoin="round" stroke-width="2.5658946031110053"/>
  <path d="M 42.36085851006874, 102.02651995120516 Q 46.501811330536725, 101.28225529865858, 50.3832229395756, 99.21463962699002 " fill="none" id="curve_140" stroke="#000000" stroke-linecap="round" stroke-linejoin="round" stroke-width="2.7711985384999838"/>
</svg>
