<?xml version="1.0" ?>
<svg height="140" width="140" xmlns="http://www.w3.org/2000/svg">
  <path d="M 42.653059124946594, 92.14338493347168 Q 42.540877507182834, 91.75042345914989, 42.521137526678, 85.4107408063515 " fill="none" id="curve_1" stroke="#000000" stroke-linecap="round" stroke-linejoin="round" stroke-width="7.171408945164016"/>
  <path d="M 42.521137526678, 85.4107408063515 Q 42.91999707423958, 78.49658130654238, 43.807115968275326, 71.26133383711253 " fill="none" id="curve_1" stroke="#000000" stroke-linecap="round" stroke-linejoin="round" stroke-width="6.540745411612838"/>
  <path d="M 43.807115968275326, 71.26133383711253 Q 45.67662763461809, 70.83983759743226, 45.861251879799745, 64.85777410653924 " fill="none" id="curve_1" stroke="#000000" stroke-linecap="round" stroke-linejoin="round" stroke-width="6.377852430515734"/>
  <path d="M 45.861251879799745, 64.85777410653924 Q 45.62068308574013, 52.721975317836886, 40.99297297238297, 51.025997221937374 " fill="none" id="curve_1" stroke="#000000" stroke-linecap="round" stroke-linejoin="round" stroke-width="4.8321448480853935"/>
  <path d="M 40.99297297238297, 51.025997221937374 Q 36.42203179801095, 51.67328869367358, 21.93331630747745, 51.92554258784429 " fill="none" id="curve_1" stroke="#000000" stroke-linecap="round" stroke-linejoin="round" stroke-width="6.8934435689576885"/>
  <path d="M 27.039666196731197, 72.46508557448874 Q 30.702603987719403, 72.98474140765276, 59.774308831269686, 73.17269909909719 " fill="none" id="curve_2" stroke="#000000" stroke-linecap="round" stroke-linejoin="round" stroke-width="5.515927442893949"/>
  <path d="M 44.76353831444422, 93.87932314163517 Q 43.9504668966339, 93.3606476225202, 43.272783294494914, 92.3487689853477 " fill="none" id="curve_3" stroke="#000000" stroke-linecap="round" stroke-linejoin="round" stroke-width="4.631645898264845"/>
  <path d="M 22.142908649339905, 51.84523393289229 Q 21.539164775157868, 51.121718963591725, 20.588975640448318, 50.36598027410233 " fill="none" id="curve_4" stroke="#000000" stroke-linecap="round" stroke-linejoin="round" stroke-width="5.067528728497383"/>
  <path d="M 44.08368398983717, 50.22694625438435 Q 40.01996633145126, 50.207840371578826, 31.168553631549557, 50.186587852103365 " fill="none" id="curve_5" stroke="#000000" stroke-linecap="round" stroke-linejoin="round" stroke-width="2.5469615544691453"/>
  <path d="M 28.783734297290238, 71.96239778314784 Q 28.60477644588347, 71.18471992833341, 28.282178506628757, 70.49343194790164 " fill="none" id="curve_6" stroke="#000000" stroke-linecap="round" stroke-linejoin="round" stroke-width="4.331321899272531"/>
  <path d="M 43.415284439513144, 73.29658573459801 Q 50.64189465131946, 73.48959048707539, 61.14990298619847, 73.76269753716676 " fill="none" id="curve_16" stroke="#000000" stroke-linecap="round" stroke-linejoin="round" stroke-width="2.8113241040820545"/>
  <path d="M 37.37975523452644, 73.90468356353608 Q 33.65135788677355, 73.45244757373663, 28.948192008198795, 72.63504311130072 " fill="none" id="curve_18" stroke="#000000" stroke-linecap="round" stroke-linejoin="round" stroke-width="3.764563767519576"/>
  <path d="M 20.051855111784942, 51.0197695668534 Q 21.393468413852016, 51.544361383011434, 24.686664330909345, 52.42815356899317 " fill="none" id="curve_24" stroke="#000000" stroke-linecap="round" stroke-linejoin="round" stroke-width="2.9557869386104416"/>
  <path d="M 22.566786876138227, 51.33697157281363 Q 23.121822654783404, 51.87783691290843, 24.542371181254254, 52.570944801597236 " fill="none" id="curve_33" stroke="#000000" stroke-linecap="round" stroke-linejoin="round" stroke-width="4.55114605254155"/>
  <path d="M 24.16385971237822, 53.62122975456398 Q 25.98364642554721, 53.672575192119574, 27.09382599250228, 53.85167537462486 " fill="none" id="curve_38" stroke="#000000" stroke-linecap="round" stroke-linejoin="round" stroke-width="3.8628162922396165"/>
  <path d="M 19.283065313266448, 51.078256335761246 Q 20.421798278517027, 50.615231087587446, 22.238141109724218, 49.96474296374318 " fill="none" id="curve_39" stroke="#000000" stroke-linecap="round" stroke-linejoin="round" stroke-width="2.678639829107291"/>
  <path d="M 49.75266092572758, 72.35703218102505 Q 52.07126795983711, 72.47786829541529, 55.505543729331634, 72.65593348220386 " fill="none" id="curve_41" stroke="#000000" stroke-linecap="round" stroke-linejoin="round" stroke-width="2.803364267011698"/>
  <path d="M 43.53316048843367, 72.76486880570702 Q 40.39244303306784, 72.17673467112151, 31.002330996161998, 71.75197047543075 " fill="none" id="curve_58" stroke="#000000" stroke-linecap="round" stroke-linejoin="round" stroke-width="3.1266889923486643"/>
  <path d="M 43.16961984461716, 55.933505460612025 Q 42.65343460486841, 51.03896869325816, 36.93417506471625, 49.8028730561528 " fill="none" id="curve_86" stroke="#000000" stroke-linecap="round" stroke-linejoin="round" stroke-width="2.6161912853510714"/>
  <path d="M 30.295482334744975, 72.268228480504 Q 29.977394036288242, 71.80789133322439, 29.337155670628675, 71.1121508053582 " fill="none" id="curve_153" stroke="#000000" stroke-linecap="round" stroke-linejoin="round" stroke-width="3.3451738556995383"/>
</svg>
