<?xml version="1.0" ?>
<svg height="140" width="140" xmlns="http://www.w3.org/2000/svg">
  <path d="M 35.89216136932373, 57.07374954223633 Q 27.531253453014195, 57.19401241225324, 26.547828710691533, 60.275339085184584 " fill="none" id="curve_1" stroke="#000000" stroke-linecap="round" stroke-linejoin="round" stroke-width="4.203921767979058"/>
  <path d="M 26.547828710691533, 60.275339085184584 Q 27.355937411969638, 56.07922403369385, 33.61905133120648, 55.03307118502249 " fill="none" id="curve_1" stroke="#000000" stroke-linecap="round" stroke-linejoin="round" stroke-width="4.087534570983344"/>
  <path d="M 33.61905133120648, 55.03307118502249 Q 54.57143047880037, 55.590625196463215, 59.064251514738814, 65.55144123205622 " fill="none" id="curve_1" stroke="#000000" stroke-linecap="round" stroke-linejoin="round" stroke-width="4.582927010966066"/>
  <path d="M 59.064251514738814, 65.55144123205622 Q 55.61566291893095, 74.97732458383429, 42.36674622022727, 90.76139818490263 " fill="none" id="curve_1" stroke="#000000" stroke-linecap="round" stroke-linejoin="round" stroke-width="5.989816358304071"/>
  <path d="M 42.36674622022727, 90.76139818490263 Q 38.666004415325226, 96.19866960268338, 36.44613921056154, 113.79846112783389 " fill="none" id="curve_1" stroke="#000000" stroke-linecap="round" stroke-linejoin="round" stroke-width="4.358351093293168"/>
  <path d="M 36.44613921056154, 113.79846112783389 Q 38.69083059291597, 115.20816183837064, 40.74661270927371, 117.08302199421405 " fill="none" id="curve_1" stroke="#000000" stroke-linecap="round" stroke-linejoin="round" stroke-width="4.427306248154534"/>
  <path d="M 33.87439812230385, 91.61919974342007 Q 50.1208534120415, 93.29711947422277, 67.3005635123309, 97.2406570191135 " fill="none" id="curve_2" stroke="#000000" stroke-linecap="round" stroke-linejoin="round" stroke-width="4.271614663834733"/>
  <path d="M 38.72685227875699, 90.19394362085747 Q 32.18554539524495, 90.519268690813, 30.075597054992194, 92.16456899052126 " fill="none" id="curve_3" stroke="#000000" stroke-linecap="round" stroke-linejoin="round" stroke-width="3.598471730389474"/>
  <path d="M 68.61224322047602, 96.86766978984835 Q 69.1341283479031, 96.86114793352719, 69.4725711703061, 96.84252751143943 " fill="none" id="curve_4" stroke="#000000" stroke-linecap="round" stroke-linejoin="round" stroke-width="4.321482493792892"/>
  <path d="M 57.44623193552962, 65.26150677761882 Q 55.860677245441146, 58.010339675245525, 43.35564277381722, 54.365406166258076 " fill="none" id="curve_5" stroke="#000000" stroke-linecap="round" stroke-linejoin="round" stroke-width="3.213740466355633"/>
  <path d="M 43.35564277381722, 54.365406166258076 Q 47.02944676618147, 59.64904503868448, 57.695978259587584, 62.30238849181201 " fill="none" id="curve_5" stroke="#000000" stroke-linecap="round" stroke-linejoin="round" stroke-width="2.4123894127357386"/>
  <path d="M 57.695978259587584, 62.30238849181201 Q 56.05035580740284, 74.37928181838653, 45.380250958249135, 81.63467488391655 " fill="none" id="curve_5" stroke="#000000" stroke-linecap="round" stroke-linejoin="round" stroke-width="3.004507551153245"/>
  <path d="M 42.306067867477736, 94.50214354828378 Q 38.86437245602155, 100.96823548163087, 34.93631709382401, 108.37833017723649 " fill="none" id="curve_6" stroke="#000000" stroke-linecap="round" stroke-linejoin="round" stroke-width="3.2180328572871018"/>
  <path d="M 34.93631709382401, 108.37833017723649 Q 37.971908521142645, 101.96812433248645, 43.18078548381004, 96.05715714897943 " fill="none" id="curve_6" stroke="#000000" stroke-linecap="round" stroke-linejoin="round" stroke-width="2.901166493701462"/>
  <path d="M 43.97851700255438, 91.37367285818982 Q 54.31415942486009, 92.7262381838725, 60.282067283783945, 96.21456983021092 " fill="none" id="curve_7" stroke="#000000" stroke-linecap="round" stroke-linejoin="round" stroke-width="2.4235336504664375"/>
  <path d="M 43.53650985451398, 93.12874689894959 Q 46.57762009459775, 94.44506403529678, 53.89849715780314, 95.15033381662428 " fill="none" id="curve_8" stroke="#000000" stroke-linecap="round" stroke-linejoin="round" stroke-width="2.774602524368836"/>
  <path d="M 89.68158382486459, 138.62459900815173 Q 89.8175692765775, 138.5043466795942, 89.98745811498164, 138.2673916516937 " fill="none" id="curve_49" stroke="#000000" stroke-linecap="round" stroke-linejoin="round" stroke-width="1.8296072344769343"/>
  <path d="M 55.761499334910546, 74.39332691022055 Q 56.766702739087734, 72.34670812212002, 58.518660150157054, 70.6364098119644 " fill="none" id="curve_52" stroke="#000000" stroke-linecap="round" stroke-linejoin="round" stroke-width="3.5942288173481436"/>
  <path d="M 64.26280741318556, 96.91792357492386 Q 60.7791918956262, 96.69702013224902, 58.03341081624621, 96.07982292425673 " fill="none" id="curve_80" stroke="#000000" stroke-linecap="round" stroke-linejoin="round" stroke-width="2.9512001911526475"/>
  <path d="M 56.58669575450563, 64.32094719169743 Q 56.93002483282546, 63.56662928263386, 57.4601899780708, 62.325196815617794 " fill="none" id="curve_134" stroke="#000000" stroke-linecap="round" stroke-linejoin="round" stroke-width="3.2848334684697407"/>
</svg>
