<?xml version="1.0" ?>
<svg height="140" width="140" xmlns="http://www.w3.org/2000/svg">
  <path d="M 66.10089492797852, 56.20322799682617 Q 65.89801027152883, 49.90004298184468, 60.72639032271667, 48.827148761384365 " fill="none" id="curve_1" stroke="#000000" stroke-linecap="round" stroke-linejoin="round" stroke-width="5.673894349938811"/>
  <path d="M 60.72639032271667, 48.827148761384365 Q 55.93647588883111, 47.7482103437126, 43.07033323314471, 46.66752063782824 " fill="none" id="curve_1" stroke="#000000" stroke-linecap="round" stroke-linejoin="round" stroke-width="4.972548912772595"/>
  <path d="M 43.07033323314471, 46.66752063782824 Q 42.22343624775689, 47.7322177749994, 41.02744793899572, 49.04355444072017 " fill="none" id="curve_1" stroke="#000000" stroke-linecap="round" stroke-linejoin="round" stroke-width="8.791430095006726"/>
  <path d="M 63.3489684148376, 53.80631156231256 Q 67.6296181407528, 54.03236172176083, 67.80090359076519, 63.22132328111957 " fill="none" id="curve_2" stroke="#000000" stroke-linecap="round" stroke-linejoin="round" stroke-width="5.9735330462127125"/>
  <path d="M 67.80090359076519, 63.22132328111957 Q 66.28099200852864, 71.94247572350584, 63.90355875434102, 81.0355398784074 " fill="none" id="curve_2" stroke="#000000" stroke-linecap="round" stroke-linejoin="round" stroke-width="5.417638539246388"/>
  <path d="M 63.90355875434102, 81.0355398784074 Q 60.867408386414816, 95.2677945229166, 53.74634240103225, 105.9292038716665 " fill="none" id="curve_2" stroke="#000000" stroke-linecap="round" stroke-linejoin="round" stroke-width="4.361712689005212"/>
  <path d="M 49.65456173071372, 81.16875958503843 Q 49.73348858665332, 78.86685434118795, 58.39227888562363, 78.77403702023216 " fill="none" id="curve_3" stroke="#000000" stroke-linecap="round" stroke-linejoin="round" stroke-width="5.358543867965968"/>
  <path d="M 58.39227888562363, 78.77403702023216 Q 47.910326367932626, 78.97420845022324, 37.39237143255369, 79.60091705763502 " fill="none" id="curve_3" stroke="#000000" stroke-linecap="round" stroke-linejoin="round" stroke-width="6.221810159556929"/>
  <path d="M 37.39237143255369, 79.60091705763502 Q 38.50022727033482, 84.71256343511438, 41.1648394316925, 87.22720578585397 " fill="none" id="curve_3" stroke="#000000" stroke-linecap="round" stroke-linejoin="round" stroke-width="4.5952425652596185"/>
  <path d="M 66.88742179621534, 78.31840875102668 Q 68.57602934234203, 79.01402814724233, 72.7985782513738, 79.42772223034828 " fill="none" id="curve_4" stroke="#000000" stroke-linecap="round" stroke-linejoin="round" stroke-width="3.4561105320233416"/>
  <path d="M 44.837773535217806, 53.63971858796262 Q 45.27275983377511, 51.445211617093626, 45.819720207128846, 48.41623408452415 " fill="none" id="curve_5" stroke="#000000" stroke-linecap="round" stroke-linejoin="round" stroke-width="3.657117918878399"/>
  <path d="M 67.14811567307078, 56.24211406165064 Q 66.43844494558608, 71.01647608471605, 62.39740014239475, 81.77856360333108 " fill="none" id="curve_6" stroke="#000000" stroke-linecap="round" stroke-linejoin="round" stroke-width="2.641651695472521"/>
  <path d="M 62.39740014239475, 81.77856360333108 Q 61.24010347042052, 91.22804523801418, 57.7051180781948, 96.94709745517126 " fill="none" id="curve_6" stroke="#000000" stroke-linecap="round" stroke-linejoin="round" stroke-width="2.8442761737364575"/>
  <path d="M 66.69031009234739, 59.48941418802553 Q 66.21444451507186, 49.26219399446016, 52.34241361231522, 47.7249728865145 " fill="none" id="curve_7" stroke="#000000" stroke-linecap="round" stroke-linejoin="round" stroke-width="2.770172332782947"/>
  <path d="M 52.34241361231522, 47.7249728865145 Q 59.505558792442535, 51.00489575948699, 67.4313032006452, 54.43179149100978 " fill="none" id="curve_7" stroke="#000000" stroke-linecap="round" stroke-linejoin="round" stroke-width="3.344120071879179"/>
  <path d="M 67.4313032006452, 54.43179149100978 Q 66.38429284712187, 71.81840558051073, 62.35396892176098, 78.69950869933574 " fill="none" id="curve_7" stroke="#000000" stroke-linecap="round" stroke-linejoin="round" stroke-width="3.6102183058401343"/>
  <path d="M 53.49938999581941, 107.04996317382066 Q 52.976679719100204, 107.17611040581126, 52.18715656416091, 107.3130978730422 " fill="none" id="curve_8" stroke="#000000" stroke-linecap="round" stroke-linejoin="round" stroke-width="3.3347372464900653"/>
  <path d="M 67.38787406858751, 72.77544314614185 Q 66.18794245383928, 60.11897628827761, 62.129356046720645, 50.81028754263155 " fill="none" id="curve_9" stroke="#000000" stroke-linecap="round" stroke-linejoin="round" stroke-width="2.572285357309954"/>
  <path d="M 35.94951776271536, 81.93374905150115 Q 35.977645948093794, 82.20410321740043, 36.00654598800405, 82.70221849788649 " fill="none" id="curve_10" stroke="#000000" stroke-linecap="round" stroke-linejoin="round" stroke-width="3.95240559022722"/>
  <path d="M 47.71209494218288, 47.317578942257505 Q 49.6113078549698, 46.685983409491705, 51.70572930148475, 45.76590909500491 " fill="none" id="curve_11" stroke="#000000" stroke-linecap="round" stroke-linejoin="round" stroke-width="3.7032390228008065"/>
  <path d="M 57.84057169598627, 93.64567465482051 Q 60.25919155452537, 91.07955542543225, 63.08291358014231, 84.4588312091921 " fill="none" id="curve_13" stroke="#000000" stroke-linecap="round" stroke-linejoin="round" stroke-width="2.9557539330127716"/>
  <path d="M 65.69323549653927, 68.00782041305501 Q 65.73143970737661, 69.36658492826913, 65.77253684639463, 72.35753527234316 " fill="none" id="curve_41" stroke="#000000" stroke-linecap="round" stroke-linejoin="round" stroke-width="3.3936034185650064"/>
  <path d="M 61.42835235595703, 82.81245040893555 Q 63.82775301718142, 78.6173869492931, 67.18652817033262, 69.49184075954645 " fill="none" id="curve_81" stroke="#000000" stroke-linecap="round" stroke-linejoin="round" stroke-width="4.602676935564887"/>
  <path d="M 64.74889327840786, 70.01266231715282 Q 65.23118087743796, 68.72958649600739, 66.27752738009063, 67.09504994820747 " fill="none" id="curve_136" stroke="#000000" stroke-linecap="round" stroke-linejoin="round" stroke-width="2.9551605187649983"/>
</svg>
