<?xml version="1.0" ?>
<svg height="140" width="140" xmlns="http://www.w3.org/2000/svg">
  <path d="M 76.86269760131836, 134.55868482589722 Q 78.63306391862247, 133.63122252989047, 80.10313903201939, 130.2083849443652 " fill="none" id="curve_1" stroke="#000000" stroke-linecap="round" stroke-linejoin="round" stroke-width="15.173842349362399"/>
  <path d="M 80.10313903201939, 130.2083849443652 Q 82.31806330033419, 128.33626536598848, 84.18935750803556, 120.94409136642733 " fill="none" id="curve_1" stroke="#000000" stroke-linecap="round" stroke-linejoin="round" stroke-width="15.27624438317531"/>
  <path d="M 84.18935750803556, 120.94409136642733 Q 84.3347880675703, 119.04298228271726, 84.39720767979999, 109.45313106768124 " fill="none" id="curve_1" stroke="#000000" stroke-linecap="round" stroke-linejoin="round" stroke-width="15.357236611322943"/>
  <path d="M 84.39720767979999, 109.45313106768124 Q 84.27352001062528, 107.65725323105795, 84.2360957847005, 94.77385513830114 " fill="none" id="curve_1" stroke="#000000" stroke-linecap="round" stroke-linejoin="round" stroke-width="15.734877712393711"/>
  <path d="M 84.2360957847005, 94.77385513830114 Q 83.59214826898433, 92.67084060070715, 83.41531072385463, 72.5922065504458 " fill="none" id="curve_1" stroke="#000000" stroke-linecap="round" stroke-linejoin="round" stroke-width="16.613907693827027"/>
  <path d="M 83.41531072385463, 72.5922065504458 Q 82.41608282327672, 70.62653559341146, 82.19845632591215, 47.88935707660548 " fill="none" id="curve_1" stroke="#000000" stroke-linecap="round" stroke-linejoin="round" stroke-width="18.26990192501334"/>
  <path d="M 82.19845632591215, 47.88935707660548 Q 81.11464733200108, 45.56791956906823, 80.88579496436259, 13.564838881387878 " fill="none" id="curve_1" stroke="#000000" stroke-linecap="round" stroke-linejoin="round" stroke-width="21.58739343003233"/>
  <path d="M 80.88579496436259, 13.564838881387878 Q 78.0821234876155, 16.968608113910847, 44.64921236441671, 17.70638446081401 " fill="none" id="curve_1" stroke="#000000" stroke-linecap="round" stroke-linejoin="round" stroke-width="31.540290478457656"/>
  <path d="M 44.64921236441671, 17.70638446081401 Q 41.38750207256873, 14.575713917833228, 16.17210656807959, 13.550765837914955 " fill="none" id="curve_1" stroke="#000000" stroke-linecap="round" stroke-linejoin="round" stroke-width="27.585146656955583"/>
  <path d="M 16.17210656807959, 13.550765837914955 Q 10.422718844087932, 15.501376159378264, 9.663481194835306, 48.5509661095214 " fill="none" id="curve_1" stroke="#000000" stroke-linecap="round" stroke-linejoin="round" stroke-width="16.249959727367724"/>
  <path d="M 9.663481194835306, 48.5509661095214 Q 11.302064921810953, 63.752907635800305, 15.158180971007944, 81.88235523868323 " fill="none" id="curve_1" stroke="#000000" stroke-linecap="round" stroke-linejoin="round" stroke-width="31.645640910389915"/>
  <path d="M 15.158180971007944, 81.88235523868323 Q 12.12013930834269, 87.32926885827254, 10.549587611418367, 110.1330560700965 " fill="none" id="curve_1" stroke="#000000" stroke-linecap="round" stroke-linejoin="round" stroke-width="14.353988579956882"/>
  <path d="M 10.549587611418367, 110.1330560700965 Q 7.564250760810336, 113.28003925177912, 6.791673194926382, 131.21604236531974 " fill="none" id="curve_1" stroke="#000000" stroke-linecap="round" stroke-linejoin="round" stroke-width="11.984861938350173"/>
  <path d="M 6.791673194926382, 131.21604236531974 Q 13.451783323484328, 125.91837764839305, 57.40722435983283, 123.38415006931619 " fill="none" id="curve_1" stroke="#000000" stroke-linecap="round" stroke-linejoin="round" stroke-width="31.324314047584178"/>
  <path d="M 57.40722435983283, 123.38415006931619 Q 55.99885303999401, 112.92432267344708, 53.25020905109508, 94.0244139247735 " fill="none" id="curve_1" stroke="#000000" stroke-linecap="round" stroke-linejoin="round" stroke-width="43.72197102351361"/>
  <path d="M 53.25020905109508, 94.0244139247735 Q 49.289387207302575, 82.5137658283735, 43.206594246350356, 56.87716017301874 " fill="none" id="curve_1" stroke="#000000" stroke-linecap="round" stroke-linejoin="round" stroke-width="40.56952301278172"/>
  <path d="M 43.206594246350356, 56.87716017301874 Q 37.681459294925084, 48.185042360978244, 23.855124968014785, 36.97066108520822 " fill="none" id="curve_1" stroke="#000000" stroke-linecap="round" stroke-linejoin="round" stroke-width="20.766697734235283"/>
  <path d="M 23.855124968014785, 36.97066108520822 Q 35.882086166818496, 37.21994921645726, 67.00092003336704, 37.38893912091535 " fill="none" id="curve_1" stroke="#000000" stroke-linecap="round" stroke-linejoin="round" stroke-width="15.264834582111774"/>
  <path d="M 67.00092003336704, 37.38893912091535 Q 69.48601403278708, 58.10781527127394, 73.61530081024921, 100.50359294667524 " fill="none" id="curve_1" stroke="#000000" stroke-linecap="round" stroke-linejoin="round" stroke-width="16.07392530843436"/>
  <path d="M 73.61530081024921, 100.50359294667524 Q 73.09011168710605, 113.87094721675362, 72.50361385411179, 139.59698603406233 " fill="none" id="curve_1" stroke="#000000" stroke-linecap="round" stroke-linejoin="round" stroke-width="8.051405559821301"/>
  <path d="M 72.50361385411179, 139.59698603406233 Q 59.681571277464, 137.51199611751673, 24.51109704903307, 134.73684053148446 " fill="none" id="curve_1" stroke="#000000" stroke-linecap="round" stroke-linejoin="round" stroke-width="9.785998745915194"/>
  <path d="M 24.51109704903307, 134.73684053148446 Q 25.991122626955928, 123.2027978746163, 27.90330560288372, 105.18416146959481 " fill="none" id="curve_1" stroke="#000000" stroke-linecap="round" stroke-linejoin="round" stroke-width="27.524989771555706"/>
  <path d="M 27.90330560288372, 105.18416146959481 Q 25.608645888276996, 129.52236899368182, 8.914834889302313, 136.7454212386444 " fill="none" id="curve_1" stroke="#000000" stroke-linecap="round" stroke-linejoin="round" stroke-width="8.056333644335915"/>
  <path d="M 81.53169078257929, 139.5177049590052 Q 86.83773816914713, 138.56841409535062, 88.93621095696626, 134.40949896708779 " fill="none" id="curve_3" stroke="#000000" stroke-linecap="round" stroke-linejoin="round" stroke-width="8.294073770198333"/>
  <path d="M 32.73429058027788, 93.84688303380958 Q 28.052199012759402, 84.58030635273968, 19.3715184099287, 41.99314509229393 " fill="none" id="curve_4" stroke="#000000" stroke-linecap="round" stroke-linejoin="round" stroke-width="7.312864884397829"/>
  <path d="M 5.573631741961059, 1.80289602951067 Q 5.410122182638909, 9.063826208848733, 4.907699723758006, 26.9333426564168 " fill="none" id="curve_5" stroke="#000000" stroke-linecap="round" stroke-linejoin="round" stroke-width="4.976108742393607"/>
  <path d="M 4.907699723758006, 26.9333426564168 Q 13.091993643030824, 15.803988710592138, 43.17039122156074, 4.900413891596706 " fill="none" id="curve_5" stroke="#000000" stroke-linecap="round" stroke-linejoin="round" stroke-width="6.39545684119305"/>
  <path d="M 43.17039122156074, 4.900413891596706 Q 58.94104575451047, 4.04638990758642, 93.11467367712115, 3.3469194536294262 " fill="none" id="curve_5" stroke="#000000" stroke-linecap="round" stroke-linejoin="round" stroke-width="5.4637328640262295"/>
  <path d="M 93.11467367712115, 3.3469194536294262 Q 85.0903062300724, 2.5383634235870502, 47.754079738134855, 2.1132555294133115 " fill="none" id="curve_5" stroke="#000000" stroke-linecap="round" stroke-linejoin="round" stroke-width="6.990819382735078"/>
  <path d="M 58.42979378257361, 31.726268804325837 Q 72.19746130176763, 31.300713861761082, 92.35673753790432, 29.38395461936324 " fill="none" id="curve_6" stroke="#000000" stroke-linecap="round" stroke-linejoin="round" stroke-width="4.627938880130268"/>
  <path d="M 41.970249507638925, 4.103860706223696 Q 50.960174874011855, 16.981538908470952, 59.60128205100291, 48.09571576274918 " fill="none" id="curve_7" stroke="#000000" stroke-linecap="round" stroke-linejoin="round" stroke-width="7.062732147866576"/>
  <path d="M 4.430767862826001, 137.6016404477492 Q 7.49665954533757, 137.80603954336414, 32.20845483490184, 137.88143866305575 " fill="none" id="curve_13" stroke="#000000" stroke-linecap="round" stroke-linejoin="round" stroke-width="4.664259265639552"/>
  <path d="M 5.016601946268597, 110.19926623862477 Q 3.468431073198473, 109.26058463329504, 3.181887386788665, 91.05430692445347 " fill="none" id="curve_14" stroke="#000000" stroke-linecap="round" stroke-linejoin="round" stroke-width="3.4499779138257174"/>
  <path d="M 3.181887386788665, 91.05430692445347 Q 7.211344620333443, 92.66039986890797, 28.713161820945682, 93.14155054203806 " fill="none" id="curve_14" stroke="#000000" stroke-linecap="round" stroke-linejoin="round" stroke-width="2.7632927448993447"/>
  <path d="M 1.7608481269848881, 114.08099338215335 Q 2.0010553159059388, 109.19042767237104, 2.3319440676246512, 98.59194731295784 " fill="none" id="curve_16" stroke="#000000" stroke-linecap="round" stroke-linejoin="round" stroke-width="2.5216134662831062"/>
  <path d="M 1.4184714940499124, 135.9122536395913 Q 1.6731594765617206, 137.71961556988202, 2.3418177799094666, 138.9353706502568 " fill="none" id="curve_18" stroke="#000000" stroke-linecap="round" stroke-linejoin="round" stroke-width="3.370342016205681"/>
  <path d="M 9.968824760819219, 115.70613216672936 Q 11.628925841005488, 115.5984672177024, 16.664340162201178, 115.44237874100939 " fill="none" id="curve_20" stroke="#000000" stroke-linecap="round" stroke-linejoin="round" stroke-width="2.580327973612025"/>
  <path d="M 86.59768316286403, 132.0511115409589 Q 87.9651241411419, 131.0889936655915, 88.85275355634982, 128.7996061797495 " fill="none" id="curve_25" stroke="#000000" stroke-linecap="round" stroke-linejoin="round" stroke-width="4.822671800587455"/>
</svg>
