<?xml version="1.0" ?>
<svg height="140" width="140" xmlns="http://www.w3.org/2000/svg">
  <path d="M 38.639963150024414, 80.65750885009766 Q 39.221344766679486, 71.54982978211983, 43.75977813531395, 63.85550021802476 " fill="none" id="curve_1" stroke="#000000" stroke-linecap="round" stroke-linejoin="round" stroke-width="4.540835731570832"/>
  <path d="M 43.75977813531395, 63.85550021802476 Q 46.18345203940924, 56.60321752878003, 50.591340431906644, 46.860670794980095 " fill="none" id="curve_1" stroke="#000000" stroke-linecap="round" stroke-linejoin="round" stroke-width="4.507662955735259"/>
  <path d="M 50.591340431906644, 46.860670794980095 Q 50.5125637596023, 30.703795942119772, 49.51894053518976, 27.12773451984017 " fill="none" id="curve_1" stroke="#000000" stroke-linecap="round" stroke-linejoin="round" stroke-width="4.321062883276083"/>
  <path d="M 49.51894053518976, 27.12773451984017 Q 49.334117218878006, 19.850249536230564, 40.22556503428988, 19.439325229289558 " fill="none" id="curve_1" stroke="#000000" stroke-linecap="round" stroke-linejoin="round" stroke-width="4.837587577424241"/>
  <path d="M 40.22556503428988, 19.439325229289558 Q 19.638026576325018, 19.593385543262016, 16.93584749077452, 24.94863643270671 " fill="none" id="curve_1" stroke="#000000" stroke-linecap="round" stroke-linejoin="round" stroke-width="4.436886655916006"/>
  <path d="M 40.82336146938003, 49.374544978708236 Q 34.25095025366527, 52.08720958970671, 28.407363604396558, 57.46490194493947 " fill="none" id="curve_2" stroke="#000000" stroke-linecap="round" stroke-linejoin="round" stroke-width="3.6836222712047815"/>
  <path d="M 28.407363604396558, 57.46490194493947 Q 28.764950709437322, 60.7012680152809, 32.90825017387694, 61.10826438532512 " fill="none" id="curve_2" stroke="#000000" stroke-linecap="round" stroke-linejoin="round" stroke-width="3.2161989590137976"/>
  <path d="M 40.21053571483796, 49.34296430857117 Q 48.62578531543187, 48.59215414551017, 54.734181283972696, 47.005811989306686 " fill="none" id="curve_3" stroke="#000000" stroke-linecap="round" stroke-linejoin="round" stroke-width="4.455887583682709"/>
  <path d="M 54.734181283972696, 47.005811989306686 Q 60.34023620164782, 47.06664503488309, 64.3242362596945, 47.187691597449835 " fill="none" id="curve_3" stroke="#000000" stroke-linecap="round" stroke-linejoin="round" stroke-width="3.383932621783325"/>
  <path d="M 51.50199446409045, 30.99098860065263 Q 52.27470035393552, 32.861507395794945, 52.451331737935824, 44.51363692268835 " fill="none" id="curve_4" stroke="#000000" stroke-linecap="round" stroke-linejoin="round" stroke-width="2.7867879652779726"/>
  <path d="M 43.185120950213786, 67.65392447112694 Q 39.55424758832792, 71.59172865223103, 37.64905852295734, 79.11795706270853 " fill="none" id="curve_5" stroke="#000000" stroke-linecap="round" stroke-linejoin="round" stroke-width="4.154111236328536"/>
  <path d="M 37.64905852295734, 79.11795706270853 Q 39.5322933525816, 78.7465247066832, 40.79888474561077, 78.08421670402048 " fill="none" id="curve_5" stroke="#000000" stroke-linecap="round" stroke-linejoin="round" stroke-width="4.130318147494612"/>
  <path d="M 51.6593762389214, 30.736879314744158 Q 51.524276923144484, 21.011902640757903, 41.58741769942348, 20.48572654852189 " fill="none" id="curve_7" stroke="#000000" stroke-linecap="round" stroke-linejoin="round" stroke-width="2.9587314637663824"/>
  <path d="M 41.58741769942348, 20.48572654852189 Q 30.584454643011135, 20.377243748289693, 27.867119924571696, 19.000167484925935 " fill="none" id="curve_7" stroke="#000000" stroke-linecap="round" stroke-linejoin="round" stroke-width="3.421351391216616"/>
  <path d="M 21.053052987370215, 20.629161822207074 Q 27.24831231948742, 19.989318480160478, 44.67022644198795, 19.420215970900795 " fill="none" id="curve_8" stroke="#000000" stroke-linecap="round" stroke-linejoin="round" stroke-width="2.7671093146286228"/>
  <path d="M 34.77967556314019, 54.11251960585428 Q 36.82263017879208, 52.33051148162638, 38.40207709696174, 48.837979469607035 " fill="none" id="curve_23" stroke="#000000" stroke-linecap="round" stroke-linejoin="round" stroke-width="3.0456814454870123"/>
  <path d="M 49.30571088491598, 46.09675658403269 Q 48.73366526813631, 45.786389924837465, 48.06224231816356, 45.329120344475776 " fill="none" id="curve_24" stroke="#000000" stroke-linecap="round" stroke-linejoin="round" stroke-width="3.4342730933031866"/>
  <path d="M 40.54866345703591, 19.629844355869842 Q 31.803692130535072, 19.598972369523615, 25.08828475470054, 19.4803666996181 " fill="none" id="curve_29" stroke="#000000" stroke-linecap="round" stroke-linejoin="round" stroke-width="2.6216483735264626"/>
  <path d="M 49.44388608390626, 22.429702990570775 Q 48.7213234265969, 19.742467117481063, 40.1017766591474, 18.987232667317812 " fill="none" id="curve_31" stroke="#000000" stroke-linecap="round" stroke-linejoin="round" stroke-width="2.6445200691469446"/>
  <path d="M 88.78827714920044, 137.85061264038086 Q 87.21943394974366, 138.06069155342996, 83.86665670248428, 138.31711875519196 " fill="none" id="curve_45" stroke="#000000" stroke-linecap="round" stroke-linejoin="round" stroke-width="3.446944266889712"/>
  <path d="M 89.30232143872522, 133.96477453919871 Q 88.95229569343796, 136.65687736169878, 87.88351338400598, 138.16970459843077 " fill="none" id="curve_46" stroke="#000000" stroke-linecap="round" stroke-linejoin="round" stroke-width="2.6205716380642285"/>
  <path d="M 20.61403165260102, 137.95719771652927 Q 20.399499180314812, 138.97059260426536, 1.997927607537619, 139.00625263387715 " fill="none" id="curve_50" stroke="#000000" stroke-linecap="round" stroke-linejoin="round" stroke-width="2.047091091505501"/>
  <path d="M 1.997927607537619, 139.00625263387715 Q 1.9535795744255278, 138.39384209096968, 1.872335977083531, 137.9816841400501 " fill="none" id="curve_50" stroke="#000000" stroke-linecap="round" stroke-linejoin="round" stroke-width="3.534223693798411"/>
  <path d="M 34.93255783722219, 138.5291368079228 Q 35.2174231061797, 138.67770222803176, 37.72667657469121, 138.71915623921853 " fill="none" id="curve_91" stroke="#000000" stroke-linecap="round" stroke-linejoin="round" stroke-width="1.2527213029883004"/>
  <path d="M 27.47311323673224, 138.8766930318228 Q 26.74885847964439, 138.7183401016639, 25.368171092221782, 138.54899577228474 " fill="none" id="curve_92" stroke="#000000" stroke-linecap="round" stroke-linejoin="round" stroke-width="1.4501334124606147"/>
  <path d="M 39.050287241265366, 21.232307811301638 Q 34.72067919917333, 20.76105197281886, 22.616511160345034, 20.244658177879344 " fill="none" id="curve_113" stroke="#000000" stroke-linecap="round" stroke-linejoin="round" stroke-width="2.61655721600817"/>
</svg>
