<?xml version="1.0" ?>
<svg height="140" width="140" xmlns="http://www.w3.org/2000/svg">
  <path d="M 20.610243797302246, 60.94569969177246 Q 20.523043700806145, 60.78200536395929, 12.014989567331213, 60.77313118627552 " fill="none" id="curve_1" stroke="#000000" stroke-linecap="round" stroke-linejoin="round" stroke-width="5.732221381367708"/>
  <path d="M 12.014989567331213, 60.77313118627552 Q 9.734708680800445, 60.96854803955468, 8.673736319006615, 61.70140761937789 " fill="none" id="curve_1" stroke="#000000" stroke-linecap="round" stroke-linejoin="round" stroke-width="3.4822086980935385"/>
  <path d="M 8.673736319006615, 61.70140761937789 Q 14.789309107672736, 60.88467685486836, 25.1082299251017, 59.9737582309443 " fill="none" id="curve_1" stroke="#000000" stroke-linecap="round" stroke-linejoin="round" stroke-width="5.208526355969703"/>
  <path d="M 25.1082299251017, 59.9737582309443 Q 45.8662195286745, 60.533206416770675, 49.47043989424263, 66.02802959171196 " fill="none" id="curve_1" stroke="#000000" stroke-linecap="round" stroke-linejoin="round" stroke-width="4.278830366263111"/>
  <path d="M 49.47043989424263, 66.02802959171196 Q 47.92729429143927, 79.50781752475328, 38.90402609020003, 95.57774166908021 " fill="none" id="curve_1" stroke="#000000" stroke-linecap="round" stroke-linejoin="round" stroke-width="5.206509528315469"/>
  <path d="M 38.90402609020003, 95.57774166908021 Q 38.16183542182755, 103.06009188738521, 21.666270476494137, 103.86554516392029 " fill="none" id="curve_1" stroke="#000000" stroke-linecap="round" stroke-linejoin="round" stroke-width="3.972668852257681"/>
  <path d="M 38.10137268764622, 102.98554152748837 Q 33.491836895734124, 106.90927152991816, 31.643560791484667, 129.503478002342 " fill="none" id="curve_2" stroke="#000000" stroke-linecap="round" stroke-linejoin="round" stroke-width="4.796144992008592"/>
  <path d="M 42.32616332452812, 102.27811460382696 Q 48.590042177023484, 102.44170184865837, 54.18518594461129, 102.70198807360173 " fill="none" id="curve_3" stroke="#000000" stroke-linecap="round" stroke-linejoin="round" stroke-width="4.101955176460381"/>
  <path d="M 40.44031605552291, 102.49156195081544 Q 40.42077315903972, 89.93444534239049, 39.82053517733158, 88.65549620232608 " fill="none" id="curve_4" stroke="#000000" stroke-linecap="round" stroke-linejoin="round" stroke-width="2.57458509970023"/>
  <path d="M 39.82053517733158, 88.65549620232608 Q 44.67194637685961, 82.10964423160924, 49.999613004258975, 72.81576961761607 " fill="none" id="curve_4" stroke="#000000" stroke-linecap="round" stroke-linejoin="round" stroke-width="3.738707354295647"/>
  <path d="M 32.72221675131222, 104.66823805460741 Q 32.093832999969855, 104.57402068245186, 31.195913385005063, 104.35869774432476 " fill="none" id="curve_5" stroke="#000000" stroke-linecap="round" stroke-linejoin="round" stroke-width="2.7200098703649953"/>
  <path d="M 33.05006198949271, 129.49351872810266 Q 32.94280978673268, 129.66695752238653, 32.76974739039308, 129.8380558682439 " fill="none" id="curve_6" stroke="#000000" stroke-linecap="round" stroke-linejoin="round" stroke-width="3.854332091324516"/>
  <path d="M 28.518351105376446, 58.72204546193246 Q 27.03140893833816, 59.03777022481812, 24.486124990068618, 59.54360417402466 " fill="none" id="curve_12" stroke="#000000" stroke-linecap="round" stroke-linejoin="round" stroke-width="3.1198666781739863"/>
  <path d="M 49.389931409872084, 70.76618964310649 Q 49.11644592660527, 61.409268497991576, 40.12884046785399, 60.22492061782229 " fill="none" id="curve_17" stroke="#000000" stroke-linecap="round" stroke-linejoin="round" stroke-width="2.33712229583027"/>
  <path d="M 40.12884046785399, 60.22492061782229 Q 38.903073359677705, 60.21777353026863, 34.93602095585147, 60.21068775259914 " fill="none" id="curve_17" stroke="#000000" stroke-linecap="round" stroke-linejoin="round" stroke-width="2.7177129129091946"/>
  <path d="M 30.878545614715804, 125.10360649400818 Q 32.16386711443833, 116.15312224413333, 36.68940925728463, 106.54458381066964 " fill="none" id="curve_22" stroke="#000000" stroke-linecap="round" stroke-linejoin="round" stroke-width="2.2213649334199914"/>
  <path d="M 46.572449115449004, 72.15357395897337 Q 47.10902416474527, 69.61757007662904, 48.03847718181625, 64.97252833875277 " fill="none" id="curve_23" stroke="#000000" stroke-linecap="round" stroke-linejoin="round" stroke-width="3.04518247480916"/>
  <path d="M 27.567475588660244, 104.83142868682532 Q 26.40383153019935, 104.86028032307006, 25.41951579967737, 104.94755898621648 " fill="none" id="curve_33" stroke="#000000" stroke-linecap="round" stroke-linejoin="round" stroke-width="2.747372791184376"/>
  <path d="M 39.57043681133142, 95.33882314490839 Q 37.51440814800986, 107.54956439772762, 31.05944605816687, 116.84390223065114 " fill="none" id="curve_34" stroke="#000000" stroke-linecap="round" stroke-linejoin="round" stroke-width="2.7916868123876917"/>
  <path d="M 89.38579750061035, 2.3137969970703125 Q 89.05697806430557, 2.0475976140662007, 87.83683689273634, 1.8382256276576285 " fill="none" id="curve_48" stroke="#000000" stroke-linecap="round" stroke-linejoin="round" stroke-width="3.005009562969179"/>
  <path d="M 89.76735820483466, 7.34341318207054 Q 89.34314654756504, 4.678008637031783, 88.59635488499443, 1.4308545037039027 " fill="none" id="curve_49" stroke="#000000" stroke-linecap="round" stroke-linejoin="round" stroke-width="2.3387590210585634"/>
  <path d="M 43.99239370859215, 64.57582754621409 Q 43.39878171006318, 64.13305665613278, 42.72052996335882, 63.34005038989713 " fill="none" id="curve_79" stroke="#000000" stroke-linecap="round" stroke-linejoin="round" stroke-width="3.778575458192155"/>
  <path d="M 35.083398555826044, 110.2407186566119 Q 35.775165451349594, 109.52444562489856, 36.39463570806208, 107.96592088418059 " fill="none" id="curve_122" stroke="#000000" stroke-linecap="round" stroke-linejoin="round" stroke-width="4.378446297417543"/>
  <path d="M 18.3839138346131, 62.417300073189686 Q 19.85017402604906, 62.10977861332736, 21.10156695555529, 61.34816844075267 " fill="none" id="curve_124" stroke="#000000" stroke-linecap="round" stroke-linejoin="round" stroke-width="2.698049043713501"/>
  <path d="M 42.26783394996755, 93.38700378965427 Q 42.12320550656098, 92.74696605231264, 41.75118001234473, 92.2454895047916 " fill="none" id="curve_139" stroke="#000000" stroke-linecap="round" stroke-linejoin="round" stroke-width="2.3259652716596735"/>
</svg>
