<?xml version="1.0" ?>
<svg height="140" width="140" xmlns="http://www.w3.org/2000/svg">
  <path d="M 21.44480323791504, 39.82341194152832 Q 19.5780415404094, 41.23966440555711, 15.525789516509576, 42.24886521393023 " fill="none" id="curve_1" stroke="#000000" stroke-linecap="round" stroke-linejoin="round" stroke-width="5.169914404667775"/>
  <path d="M 15.525789516509576, 42.24886521393023 Q 20.756226529946662, 40.49689480527447, 28.36930803959988, 38.46763780648585 " fill="none" id="curve_1" stroke="#000000" stroke-linecap="round" stroke-linejoin="round" stroke-width="5.959463911426482"/>
  <path d="M 28.36930803959988, 38.46763780648585 Q 34.13787112221307, 38.10817411729376, 37.551145164191716, 37.19349759280674 " fill="none" id="curve_1" stroke="#000000" stroke-linecap="round" stroke-linejoin="round" stroke-width="5.946822810399899"/>
  <path d="M 37.551145164191716, 37.19349759280674 Q 49.46823244635056, 38.646250563724, 62.02227264486546, 40.47812474016018 " fill="none" id="curve_1" stroke="#000000" stroke-linecap="round" stroke-linejoin="round" stroke-width="5.116486679370084"/>
  <path d="M 62.02227264486546, 40.47812474016018 Q 60.05808866085965, 53.25437931182367, 51.792409023978585, 74.97396047523951 " fill="none" id="curve_1" stroke="#000000" stroke-linecap="round" stroke-linejoin="round" stroke-width="5.3776565149678826"/>
  <path d="M 51.792409023978585, 74.97396047523951 Q 50.00991859041975, 86.60886144305316, 46.511698335993074, 99.34559083957728 " fill="none" id="curve_1" stroke="#000000" stroke-linecap="round" stroke-linejoin="round" stroke-width="4.419432169945663"/>
  <path d="M 46.511698335993074, 99.34559083957728 Q 42.41855091859714, 116.69368741079211, 30.009792120819554, 129.34016119517838 " fill="none" id="curve_1" stroke="#000000" stroke-linecap="round" stroke-linejoin="round" stroke-width="4.09118318590752"/>
  <path d="M 25.201294129705254, 88.54901887417884 Q 33.4791865159725, 88.87645507130094, 44.794457823372575, 89.21635433455171 " fill="none" id="curve_2" stroke="#000000" stroke-linecap="round" stroke-linejoin="round" stroke-width="5.025910171891596"/>
  <path d="M 44.794457823372575, 89.21635433455171 Q 54.41775737616246, 86.48338527352445, 67.8116487360114, 83.89684062447489 " fill="none" id="curve_2" stroke="#000000" stroke-linecap="round" stroke-linejoin="round" stroke-width="3.74737805045842"/>
  <path d="M 88.45893354781394, 80.78903602366353 Q 89.31987024830651, 83.08242252458149, 89.5696419658037, 115.03261402227724 " fill="none" id="curve_3" stroke="#000000" stroke-linecap="round" stroke-linejoin="round" stroke-width="2.228087168615041"/>
  <path d="M 89.5696419658037, 115.03261402227724 Q 89.47313108770636, 131.1120664907842, 89.17871348312178, 138.5866765889291 " fill="none" id="curve_3" stroke="#000000" stroke-linecap="round" stroke-linejoin="round" stroke-width="2.6127254371561173"/>
  <path d="M 89.17871348312178, 138.5866765889291 Q 89.14524750091428, 138.61726138224896, 89.07965395071155, 138.6455256235339 " fill="none" id="curve_3" stroke="#000000" stroke-linecap="round" stroke-linejoin="round" stroke-width="2.0678489003117333"/>
  <path d="M 90.0305083533328, 81.91090471174213 Q 89.19297500407689, 81.61492768034017, 89.08679497537156, 76.01689215082932 " fill="none" id="curve_5" stroke="#000000" stroke-linecap="round" stroke-linejoin="round" stroke-width="2.2437339457467878"/>
  <path d="M 89.08679497537156, 76.01689215082932 Q 89.13919246265219, 72.61467163459244, 89.21599024609533, 57.83141376773793 " fill="none" id="curve_5" stroke="#000000" stroke-linecap="round" stroke-linejoin="round" stroke-width="2.4717220632463355"/>
  <path d="M 89.21599024609533, 57.83141376773793 Q 89.17593214319781, 52.55429710754553, 89.06586602112237, 41.50506614085902 " fill="none" id="curve_5" stroke="#000000" stroke-linecap="round" stroke-linejoin="round" stroke-width="2.405143334344702"/>
  <path d="M 89.06586602112237, 41.50506614085902 Q 89.08614134348579, 36.4863884496296, 89.14191448828288, 24.496382329822463 " fill="none" id="curve_5" stroke="#000000" stroke-linecap="round" stroke-linejoin="round" stroke-width="2.434156408198671"/>
  <path d="M 89.14191448828288, 24.496382329822463 Q 89.13911678407706, 16.872273281549987, 89.12523291404435, 7.30721260268319 " fill="none" id="curve_5" stroke="#000000" stroke-linecap="round" stroke-linejoin="round" stroke-width="2.3916259843086713"/>
  <path d="M 89.12523291404435, 7.30721260268319 Q 89.07729647818576, 2.0090375546284136, 87.92299742516404, 1.6480430442379532 " fill="none" id="curve_5" stroke="#000000" stroke-linecap="round" stroke-linejoin="round" stroke-width="3.7205189686986575"/>
  <path d="M 87.92299742516404, 1.6480430442379532 Q 87.38970930783121, 2.306891379451987, 86.77145118584416, 2.9655316143047523 " fill="none" id="curve_5" stroke="#000000" stroke-linecap="round" stroke-linejoin="round" stroke-width="3.7749144298087924"/>
  <path d="M 57.412295986506614, 54.328860524640696 Q 54.466045668807816, 60.32742206873294, 52.2112948444404, 70.1664637381601 " fill="none" id="curve_7" stroke="#000000" stroke-linecap="round" stroke-linejoin="round" stroke-width="2.8273758340979156"/>
  <path d="M 44.748980992540666, 87.45878602886413 Q 47.094262890018676, 85.70547366160253, 51.08557836303125, 84.05523893792 " fill="none" id="curve_8" stroke="#000000" stroke-linecap="round" stroke-linejoin="round" stroke-width="2.676898068767476"/>
  <path d="M 40.14592081985896, 35.676579111380285 Q 45.4679458152331, 37.189007990566154, 59.93967912778086, 38.80588634268832 " fill="none" id="curve_11" stroke="#000000" stroke-linecap="round" stroke-linejoin="round" stroke-width="2.2228672175948567"/>
  <path d="M 29.759072007043244, 131.51770548836015 Q 30.40630584453243, 131.58997219522945, 31.276535576190216, 131.73179695987088 " fill="none" id="curve_17" stroke="#000000" stroke-linecap="round" stroke-linejoin="round" stroke-width="2.682067305111784"/>
  <path d="M 43.746561354997205, 107.11130948852156 Q 44.93098997512073, 97.90350751198156, 48.95074755794402, 90.34754597611705 " fill="none" id="curve_18" stroke="#000000" stroke-linecap="round" stroke-linejoin="round" stroke-width="3.104321258054081"/>
  <path d="M 54.69144754235344, 68.82120566995819 Q 52.9284204834928, 76.2342666833606, 48.779008344867876, 85.75030735507949 " fill="none" id="curve_19" stroke="#000000" stroke-linecap="round" stroke-linejoin="round" stroke-width="2.9313996875467114"/>
  <path d="M 61.02509430166563, 85.53511481783704 Q 60.46225408085487, 84.6302807931093, 55.83262909422418, 84.38654428358231 " fill="none" id="curve_47" stroke="#000000" stroke-linecap="round" stroke-linejoin="round" stroke-width="2.6707867922715587"/>
  <path d="M 53.1316635463736, 78.78675203944533 Q 51.85332534324015, 78.53057463661548, 50.226439360258745, 77.91712327713968 " fill="none" id="curve_62" stroke="#000000" stroke-linecap="round" stroke-linejoin="round" stroke-width="2.45038055904662"/>
  <path d="M 36.21801611168959, 36.135922078267434 Q 36.43607230329113, 35.84406150433085, 36.85781729817962, 35.42404781623021 " fill="none" id="curve_71" stroke="#000000" stroke-linecap="round" stroke-linejoin="round" stroke-width="3.745362395156049"/>
  <path d="M 41.39680290222168, 114.29310417175293 Q 42.61615070987071, 109.40391979287973, 45.33706043773145, 104.2753018552387 " fill="none" id="curve_85" stroke="#000000" stroke-linecap="round" stroke-linejoin="round" stroke-width="4.053243644709957"/>
  <path d="M 27.899298267892544, 86.19850775798534 Q 29.98854293418347, 88.36226377536642, 49.194251750156695, 88.8194714720677 " fill="none" id="curve_87" stroke="#000000" stroke-linecap="round" stroke-linejoin="round" stroke-width="2.4163756191652928"/>
  <path d="M 41.33263063430786, 111.23346328735352 Q 42.8216468894533, 111.10858341570577, 43.39940835017233, 110.27770828695992 " fill="none" id="curve_101" stroke="#000000" stroke-linecap="round" stroke-linejoin="round" stroke-width="5.408517830820366"/>
</svg>
