<?xml version="1.0" ?>
<svg height="140" width="140" xmlns="http://www.w3.org/2000/svg">
  <path d="M 59.444106101989746, 131.31674194335938 Q 58.80159817606935, 131.9303788716989, 57.91383968829567, 132.92778612846544 " fill="none" id="curve_1" stroke="#000000" stroke-linecap="round" stroke-linejoin="round" stroke-width="4.60790444909539"/>
  <path d="M 57.91383968829567, 132.92778612846544 Q 59.92912467163888, 131.42576143374754, 60.7000268410082, 126.38989422791862 " fill="none" id="curve_1" stroke="#000000" stroke-linecap="round" stroke-linejoin="round" stroke-width="4.8700338900254065"/>
  <path d="M 60.7000268410082, 126.38989422791862 Q 61.21046440230073, 120.84034499901072, 61.794827286270255, 99.58564911841913 " fill="none" id="curve_1" stroke="#000000" stroke-linecap="round" stroke-linejoin="round" stroke-width="4.758566530878922"/>
  <path d="M 61.794827286270255, 99.58564911841913 Q 61.410790673534265, 89.65465012422531, 60.332342500559086, 74.40498448819017 " fill="none" id="curve_1" stroke="#000000" stroke-linecap="round" stroke-linejoin="round" stroke-width="4.1065464090297175"/>
  <path d="M 60.332342500559086, 74.40498448819017 Q 59.89683198326352, 63.77900921660301, 59.037800260120804, 46.63440407767361 " fill="none" id="curve_1" stroke="#000000" stroke-linecap="round" stroke-linejoin="round" stroke-width="4.940495836633198"/>
  <path d="M 59.037800260120804, 46.63440407767361 Q 63.124325844775235, 41.06843318480738, 67.64151523000943, 34.40297228769491 " fill="none" id="curve_1" stroke="#000000" stroke-linecap="round" stroke-linejoin="round" stroke-width="5.474668985750595"/>
  <path d="M 67.64151523000943, 34.40297228769491 Q 53.48261525809262, 33.10618190844986, 31.13305091205997, 28.930062809967254 " fill="none" id="curve_1" stroke="#000000" stroke-linecap="round" stroke-linejoin="round" stroke-width="4.774339887662753"/>
  <path d="M 31.13305091205997, 28.930062809967254 Q 28.78200729627249, 27.656509175992145, 23.700033852045042, 26.864295430896448 " fill="none" id="curve_1" stroke="#000000" stroke-linecap="round" stroke-linejoin="round" stroke-width="5.300007801528449"/>
  <path d="M 5.34314288678932, 2.597138527252163 Q 2.3075083672059975, 3.0809593034840006, 1.8284325063379536, 8.561573941350526 " fill="none" id="curve_2" stroke="#000000" stroke-linecap="round" stroke-linejoin="round" stroke-width="4.09845827117586"/>
  <path d="M 1.8284325063379536, 8.561573941350526 Q 1.263610357362647, 12.537293781526385, 0.974716529014338, 37.22315175947432 " fill="none" id="curve_2" stroke="#000000" stroke-linecap="round" stroke-linejoin="round" stroke-width="1.4915865519281526"/>
  <path d="M 0.974716529014338, 37.22315175947432 Q 0.9562978358108785, 54.35020488550915, 0.8297491800693555, 72.24339129476306 " fill="none" id="curve_2" stroke="#000000" stroke-linecap="round" stroke-linejoin="round" stroke-width="1.4727358162398347"/>
  <path d="M 32.316980680492264, 93.20247924124435 Q 34.7800429188481, 92.20706949070619, 50.75391269736542, 91.92213610173076 " fill="none" id="curve_3" stroke="#000000" stroke-linecap="round" stroke-linejoin="round" stroke-width="5.577761129090333"/>
  <path d="M 50.75391269736542, 91.92213610173076 Q 58.28095991591248, 93.52320524291547, 71.26852842107479, 94.6978353809868 " fill="none" id="curve_3" stroke="#000000" stroke-linecap="round" stroke-linejoin="round" stroke-width="4.604896157186252"/>
  <path d="M 58.9728093402074, 84.89048967276587 Q 60.88323304248839, 82.70116782491611, 62.34669548459097, 78.94933929517633 " fill="none" id="curve_4" stroke="#000000" stroke-linecap="round" stroke-linejoin="round" stroke-width="3.466550637496098"/>
  <path d="M 57.976771670986594, 58.67556774634228 Q 57.300361097665174, 57.48026163061581, 57.092883423070354, 48.80178285803634 " fill="none" id="curve_5" stroke="#000000" stroke-linecap="round" stroke-linejoin="round" stroke-width="2.505886791502863"/>
  <path d="M 57.092883423070354, 48.80178285803634 Q 59.99704781422875, 40.91103730240684, 66.44433499046292, 33.720183301076794 " fill="none" id="curve_5" stroke="#000000" stroke-linecap="round" stroke-linejoin="round" stroke-width="3.7558238366106984"/>
  <path d="M 66.44433499046292, 33.720183301076794 Q 65.80574628881325, 31.641171191325956, 57.283354297384335, 31.20670850048057 " fill="none" id="curve_5" stroke="#000000" stroke-linecap="round" stroke-linejoin="round" stroke-width="2.5735020344668076"/>
  <path d="M 9.313410858208934, 1.8447670867064225 Q 5.514151820472476, 2.233301127469548, 2.449207808881268, 3.1974191411160864 " fill="none" id="curve_11" stroke="#000000" stroke-linecap="round" stroke-linejoin="round" stroke-width="3.1756005245801324"/>
  <path d="M 1.4402011732678233, 87.46312238192726 Q 1.3774277782500095, 85.08825980354504, 1.3112295729100667, 79.48499409441942 " fill="none" id="curve_16" stroke="#000000" stroke-linecap="round" stroke-linejoin="round" stroke-width="1.1478587273824385"/>
  <path d="M 0.9079824455501102, 98.72387541569864 Q 0.9662041953428301, 106.10557011390308, 1.0474635307865197, 116.63151924490847 " fill="none" id="curve_17" stroke="#000000" stroke-linecap="round" stroke-linejoin="round" stroke-width="1.3395108300596983"/>
  <path d="M 1.0474635307865197, 116.63151924490847 Q 1.1156442458925313, 133.5985115384061, 1.5687603187254722, 138.3561826474198 " fill="none" id="curve_17" stroke="#000000" stroke-linecap="round" stroke-linejoin="round" stroke-width="1.609241060230599"/>
  <path d="M 0.6813897097895358, 96.98619394907527 Q 0.8331903339135929, 94.18855367268799, 1.0176075571374739, 87.6469307560169 " fill="none" id="curve_19" stroke="#000000" stroke-linecap="round" stroke-linejoin="round" stroke-width="0.9043889589211944"/>
  <path d="M 0.826692635057638, 78.17714701478705 Q 0.8126541448122285, 75.0569042135584, 0.7889872347276726, 71.64172553765856 " fill="none" id="curve_20" stroke="#000000" stroke-linecap="round" stroke-linejoin="round" stroke-width="1.088595519931256"/>
  <path d="M 32.656758846894206, 91.3290076621282 Q 35.40307322437593, 90.50781702916669, 41.783049168244304, 89.9237605698812 " fill="none" id="curve_22" stroke="#000000" stroke-linecap="round" stroke-linejoin="round" stroke-width="1.9166679267423699"/>
  <path d="M 41.783049168244304, 89.9237605698812 Q 52.9645008555411, 89.84915323036087, 58.31375120071226, 89.52910321675412 " fill="none" id="curve_22" stroke="#000000" stroke-linecap="round" stroke-linejoin="round" stroke-width="1.8330128153896987"/>
  <path d="M 62.40710901679318, 109.59999939110382 Q 62.54127132056209, 105.45521423757641, 62.800290762217244, 100.48723501366095 " fill="none" id="curve_25" stroke="#000000" stroke-linecap="round" stroke-linejoin="round" stroke-width="2.051848473213228"/>
  <path d="M 62.800290762217244, 100.48723501366095 Q 62.78985737881583, 105.90665207587197, 62.73175878443753, 107.54666369901925 " fill="none" id="curve_25" stroke="#000000" stroke-linecap="round" stroke-linejoin="round" stroke-width="2.2100281280238816"/>
  <path d="M 58.49215701897734, 70.10374132498993 Q 58.813549714316764, 66.54321527630582, 59.65458228709066, 63.881997573150976 " fill="none" id="curve_29" stroke="#000000" stroke-linecap="round" stroke-linejoin="round" stroke-width="3.13401715523825"/>
  <path d="M 28.665154116808502, 26.46925531337397 Q 34.180406991714214, 28.67751220215842, 41.40029633121916, 31.847890584678254 " fill="none" id="curve_33" stroke="#000000" stroke-linecap="round" stroke-linejoin="round" stroke-width="2.500022877504297"/>
  <path d="M 3.2172880896836986, 3.67745772115369 Q 3.27248502006366, 2.900383867078486, 3.369520110033928, 2.141405839056469 " fill="none" id="curve_34" stroke="#000000" stroke-linecap="round" stroke-linejoin="round" stroke-width="4.506402029414598"/>
  <path d="M 32.809152603149414, 27.404964447021484 Q 40.69083567284576, 28.2022245687076, 45.08685184324736, 32.60674755747493 " fill="none" id="curve_48" stroke="#000000" stroke-linecap="round" stroke-linejoin="round" stroke-width="2.4918989320247102"/>
  <path d="M 68.99890210522342, 36.70180181320222 Q 68.07142377971638, 36.73881439389708, 66.84712438407855, 36.807071637544304 " fill="none" id="curve_49" stroke="#000000" stroke-linecap="round" stroke-linejoin="round" stroke-width="2.9697116779516066"/>
  <path d="M 40.83012723251453, 30.576344608720596 Q 39.48587038284445, 30.509355252971087, 37.60996478199847, 30.385683938059795 " fill="none" id="curve_50" stroke="#000000" stroke-linecap="round" stroke-linejoin="round" stroke-width="3.4733144802354534"/>
  <path d="M 41.67274330357765, 30.77879857639641 Q 38.62380182329738, 30.02997897724735, 29.895046877352996, 29.123888634052697 " fill="none" id="curve_56" stroke="#000000" stroke-linecap="round" stroke-linejoin="round" stroke-width="3.3512065066950907"/>
  <path d="M 3.468170553225942, 3.3716055184748726 Q 3.564454431012069, 2.8928356108946267, 3.678978963705873, 1.8330667742799873 " fill="none" id="curve_57" stroke="#000000" stroke-linecap="round" stroke-linejoin="round" stroke-width="3.9836842920234523"/>
  <path d="M 54.58103934782234, 32.18808328364284 Q 35.688179685772894, 31.65428739434344, 26.195848900929363, 27.75364265688281 " fill="none" id="curve_60" stroke="#000000" stroke-linecap="round" stroke-linejoin="round" stroke-width="2.5491218626196486"/>
  <path d="M 51.25152486550025, 32.53553433992006 Q 48.84375811256023, 32.550673301283354, 45.35164012410301, 32.58183338652316 " fill="none" id="curve_68" stroke="#000000" stroke-linecap="round" stroke-linejoin="round" stroke-width="3.6943623311532017"/>
  <path d="M 35.613768837373414, 31.29625991517443 Q 33.13089493185651, 30.209431067640413, 29.846915485910696, 28.3395350905839 " fill="none" id="curve_109" stroke="#000000" stroke-linecap="round" stroke-linejoin="round" stroke-width="3.0805504800621835"/>
  <path d="M 62.37148713227907, 98.10281172059358 Q 60.66456504530613, 97.83161937140275, 59.48926511699669, 96.92024917792327 " fill="none" id="curve_124" stroke="#000000" stroke-linecap="round" stroke-linejoin="round" stroke-width="2.774596199107851"/>
  <path d="M 53.17679880160308, 94.42573834306714 Q 53.22435322343108, 94.0007106380238, 53.347448781542866, 93.65282887320038 " fill="none" id="curve_126" stroke="#000000" stroke-linecap="round" stroke-linejoin="round" stroke-width="2.910128382475237"/>
  <path d="M 3.336522608423312, 2.157613853322598 Q 2.7757691999479346, 2.333278155002654, 2.249099523169485, 2.784094503138779 " fill="none" id="curve_133" stroke="#000000" stroke-linecap="round" stroke-linejoin="round" stroke-width="3.343313963314684"/>
  <path d="M 3.1116930039858453, 2.0482305420892253 Q 2.5379104140799797, 2.305910921171568, 2.0831858217365253, 2.960111146626342 " fill="none" id="curve_154" stroke="#000000" stroke-linecap="round" stroke-linejoin="round" stroke-width="3.844034165960536"/>
  <path d="M 52.13806195099778, 32.01992867828588 Q 50.94843746085677, 31.801816965243994, 47.628523233102165, 31.48868543441544 " fill="none" id="curve_160" stroke="#000000" stroke-linecap="round" stroke-linejoin="round" stroke-width="2.402557025427471"/>
  <path d="M 41.039211181214164, 30.051987974891418 Q 40.75344176004432, 29.172242268575687, 40.21218767317335, 28.27243036479788 " fill="none" id="curve_178" stroke="#000000" stroke-linecap="round" stroke-linejoin="round" stroke-width="3.1320731125747803"/>
  <path d="M 58.583764005516855, 90.84529982459685 Q 60.429570575355896, 89.50186521927283, 61.69086517541536, 85.56527937941374 " fill="none" id="curve_206" stroke="#000000" stroke-linecap="round" stroke-linejoin="round" stroke-width="3.2857869521748078"/>
</svg>
