<?xml version="1.0" ?>
<svg height="140" width="140" xmlns="http://www.w3.org/2000/svg">
  <path d="M 22.789587020874023, 121.75158309936523 Q 22.32053625613333, 121.2985831273787, 20.693236783628436, 120.87738114515156 " fill="none" id="curve_1" stroke="#000000" stroke-linecap="round" stroke-linejoin="round" stroke-width="6.7570630540947345"/>
  <path d="M 20.693236783628436, 120.87738114515156 Q 25.553564826800056, 117.17117443357323, 30.214248724087774, 103.05632871834153 " fill="none" id="curve_1" stroke="#000000" stroke-linecap="round" stroke-linejoin="round" stroke-width="5.1567593727296765"/>
  <path d="M 30.214248724087774, 103.05632871834153 Q 35.099628500745844, 95.10156636409452, 43.79103040781796, 76.70143580393155 " fill="none" id="curve_1" stroke="#000000" stroke-linecap="round" stroke-linejoin="round" stroke-width="6.373368375497025"/>
  <path d="M 43.79103040781796, 76.70143580393155 Q 46.33843221673579, 66.16551499340618, 51.75748987503668, 53.79213101036899 " fill="none" id="curve_1" stroke="#000000" stroke-linecap="round" stroke-linejoin="round" stroke-width="4.867280664504144"/>
  <path d="M 51.75748987503668, 53.79213101036899 Q 57.099192719447366, 47.73318689800448, 64.9048732948847, 17.215027740480416 " fill="none" id="curve_1" stroke="#000000" stroke-linecap="round" stroke-linejoin="round" stroke-width="5.14144935725321"/>
  <path d="M 64.9048732948847, 17.215027740480416 Q 53.54035414717997, 19.486139711230948, 34.267505880312385, 27.654727460169333 " fill="none" id="curve_1" stroke="#000000" stroke-linecap="round" stroke-linejoin="round" stroke-width="4.658931001351069"/>
  <path d="M 34.267505880312385, 27.654727460169333 Q 26.0053987112742, 29.901605528662913, 16.437339252071727, 32.29750381312186 " fill="none" id="curve_1" stroke="#000000" stroke-linecap="round" stroke-linejoin="round" stroke-width="6.076334127774262"/>
  <path d="M 27.651664088107783, 51.56195298442915 Q 35.8145939211546, 54.549446139806584, 62.47648044305433, 56.959689718215664 " fill="none" id="curve_2" stroke="#000000" stroke-linecap="round" stroke-linejoin="round" stroke-width="5.8582660856549476"/>
  <path d="M 33.79039950172541, 55.808751157228265 Q 30.245973401345694, 55.81155402098206, 29.050706006337236, 55.82555785686113 " fill="none" id="curve_3" stroke="#000000" stroke-linecap="round" stroke-linejoin="round" stroke-width="6.180043755766412"/>
  <path d="M 57.621375129424976, 17.07146359531375 Q 60.650491158679095, 14.93132014654163, 68.0141489419655, 13.490998123167554 " fill="none" id="curve_4" stroke="#000000" stroke-linecap="round" stroke-linejoin="round" stroke-width="5.18280928094939"/>
  <path d="M 68.0141489419655, 13.490998123167554 Q 59.15905444506534, 16.499308395707043, 48.33895175473289, 21.126444425336594 " fill="none" id="curve_4" stroke="#000000" stroke-linecap="round" stroke-linejoin="round" stroke-width="3.8559169171061574"/>
  <path d="M 42.53599094143275, 51.62672931883914 Q 46.707366289980236, 56.77512304359127, 61.211823811953124, 58.68774296818373 " fill="none" id="curve_5" stroke="#000000" stroke-linecap="round" stroke-linejoin="round" stroke-width="3.3775837038996217"/>
  <path d="M 46.84686855924957, 66.48034316457648 Q 41.51277696362951, 72.64484972751787, 37.69387313757747, 88.2513964781656 " fill="none" id="curve_8" stroke="#000000" stroke-linecap="round" stroke-linejoin="round" stroke-width="2.783744839924646"/>
  <path d="M 30.545825492709376, 51.93512122602774 Q 31.795817133363997, 51.69284119396174, 33.36005731613606, 51.19274454120523 " fill="none" id="curve_9" stroke="#000000" stroke-linecap="round" stroke-linejoin="round" stroke-width="4.1144832390509345"/>
  <path d="M 56.108334589939574, 41.135463782369364 Q 59.58818813528665, 31.613629250961928, 67.07350865604187, 19.24118061379862 " fill="none" id="curve_10" stroke="#000000" stroke-linecap="round" stroke-linejoin="round" stroke-width="2.629220351567176"/>
  <path d="M 36.11880308136766, 25.56403743576994 Q 29.772217357691243, 28.34875883955789, 16.796486729114413, 30.851712590903272 " fill="none" id="curve_11" stroke="#000000" stroke-linecap="round" stroke-linejoin="round" stroke-width="3.3636205928032026"/>
  <path d="M 38.754115871582876, 90.32119704004087 Q 33.33786981988625, 91.00908635881989, 31.738199617792592, 96.11481549531847 " fill="none" id="curve_20" stroke="#000000" stroke-linecap="round" stroke-linejoin="round" stroke-width="3.9555899063093007"/>
  <path d="M 27.036216179426916, 53.20386478062376 Q 27.538234721819414, 52.129005750914835, 29.181301037690503, 50.833252346216426 " fill="none" id="curve_29" stroke="#000000" stroke-linecap="round" stroke-linejoin="round" stroke-width="3.469991615372543"/>
  <path d="M 51.60184288260115, 21.0847969927121 Q 49.782799644067076, 22.97540699981631, 45.02290166708868, 24.718265369767007 " fill="none" id="curve_31" stroke="#000000" stroke-linecap="round" stroke-linejoin="round" stroke-width="3.247333944032331"/>
  <path d="M 43.73315392196287, 56.45081650500263 Q 47.023048537239205, 57.29996624502831, 54.448303398526285, 58.28707055147927 " fill="none" id="curve_33" stroke="#000000" stroke-linecap="round" stroke-linejoin="round" stroke-width="2.0626691825367955"/>
  <path d="M 64.34337489558884, 13.720591779841735 Q 61.345384922141115, 14.228726935920962, 58.22557994074389, 15.843126885811076 " fill="none" id="curve_49" stroke="#000000" stroke-linecap="round" stroke-linejoin="round" stroke-width="2.8853541013206514"/>
  <path d="M 60.03583647164359, 32.848372542296374 Q 60.16741800769765, 23.216616815690976, 64.89424430160302, 21.64203319015375 " fill="none" id="curve_116" stroke="#000000" stroke-linecap="round" stroke-linejoin="round" stroke-width="2.566319335770305"/>
  <path d="M 19.037944448809384, 29.00301358197345 Q 19.686641873637548, 28.53585024174582, 21.338484141505823, 28.181344048095276 " fill="none" id="curve_131" stroke="#000000" stroke-linecap="round" stroke-linejoin="round" stroke-width="3.0001040728924906"/>
  <path d="M 67.24091490971523, 14.352183881377755 Q 67.2839886656032, 16.361761481770035, 67.47802940699296, 17.227719260492762 " fill="none" id="curve_159" stroke="#000000" stroke-linecap="round" stroke-linejoin="round" stroke-width="2.9622416649812444"/>
</svg>
