<?xml version="1.0" ?>
<svg height="140" width="140" xmlns="http://www.w3.org/2000/svg">
  <path d="M 80.09513473510742, 50.037649631500244 Q 80.03580157827759, 49.85787186221047, 78.65328908829994, 49.818527459168166 " fill="none" id="curve_1" stroke="#000000" stroke-linecap="round" stroke-linejoin="round" stroke-width="7.083387587010884"/>
  <path d="M 78.65328908829994, 49.818527459168166 Q 75.8801479361333, 55.617077034347474, 68.37310414930663, 63.830125311111715 " fill="none" id="curve_1" stroke="#000000" stroke-linecap="round" stroke-linejoin="round" stroke-width="6.574986767838373"/>
  <path d="M 68.37310414930663, 63.830125311111715 Q 64.36095384095606, 72.57647496376896, 57.329015079279735, 80.97662853116623 " fill="none" id="curve_1" stroke="#000000" stroke-linecap="round" stroke-linejoin="round" stroke-width="6.484831187249422"/>
  <path d="M 57.329015079279735, 80.97662853116623 Q 51.28198634740713, 90.34377042001451, 38.92160416602296, 108.93311210289166 " fill="none" id="curve_1" stroke="#000000" stroke-linecap="round" stroke-linejoin="round" stroke-width="3.9652959811863835"/>
  <path d="M 45.941067408295375, 79.67831328079478 Q 50.12187780056095, 79.62125516087609, 73.38686983884752, 79.60182152066746 " fill="none" id="curve_2" stroke="#000000" stroke-linecap="round" stroke-linejoin="round" stroke-width="3.7572105306175545"/>
  <path d="M 78.56388821684634, 50.26856326321549 Q 72.41997075429153, 48.447518566692175, 60.80580237559936, 45.88485963795396 " fill="none" id="curve_3" stroke="#000000" stroke-linecap="round" stroke-linejoin="round" stroke-width="5.310507739539971"/>
  <path d="M 60.80580237559936, 45.88485963795396 Q 46.40742731021829, 46.27282221483398, 33.135131940514924, 47.39345743789814 " fill="none" id="curve_3" stroke="#000000" stroke-linecap="round" stroke-linejoin="round" stroke-width="5.357498015010446"/>
  <path d="M 33.135131940514924, 47.39345743789814 Q 30.84239241046326, 47.92929311223826, 29.33215820462906, 49.066678455272864 " fill="none" id="curve_3" stroke="#000000" stroke-linecap="round" stroke-linejoin="round" stroke-width="3.297799596293521"/>
  <path d="M 81.65926737059412, 52.480632874278484 Q 81.88083039519854, 51.63747919637901, 82.10131378335974, 49.91247927868936 " fill="none" id="curve_5" stroke="#000000" stroke-linecap="round" stroke-linejoin="round" stroke-width="4.87393035148589"/>
  <path d="M 53.11048003109927, 89.2454465393899 Q 44.66996102404837, 94.01864288474626, 39.96290789960439, 109.9054750798332 " fill="none" id="curve_6" stroke="#000000" stroke-linecap="round" stroke-linejoin="round" stroke-width="3.2074262325286313"/>
  <path d="M 54.14155135797277, 83.83693329461371 Q 52.63763839856442, 82.90802566919464, 50.346792006543495, 81.79818868540399 " fill="none" id="curve_7" stroke="#000000" stroke-linecap="round" stroke-linejoin="round" stroke-width="5.241284678426045"/>
  <path d="M 40.90981856848802, 108.17520749951768 Q 43.15729166254072, 98.40933482059646, 50.932329955710664, 90.53310215082843 " fill="none" id="curve_10" stroke="#000000" stroke-linecap="round" stroke-linejoin="round" stroke-width="2.5167236634223205"/>
  <path d="M 60.223279663668045, 81.18547464890001 Q 59.615630893639825, 83.50174337676307, 56.053607026001956, 84.46496860803161 " fill="none" id="curve_11" stroke="#000000" stroke-linecap="round" stroke-linejoin="round" stroke-width="3.2297829086299474"/>
  <path d="M 77.17947986768407, 49.209345480398305 Q 78.26814679263403, 48.73899432006302, 80.09637882312917, 48.232787825968856 " fill="none" id="curve_13" stroke="#000000" stroke-linecap="round" stroke-linejoin="round" stroke-width="3.666075912443791"/>
  <path d="M 80.09637882312917, 48.232787825968856 Q 76.32328668514745, 48.2610061037746, 69.35307734416041, 48.2996250183478 " fill="none" id="curve_13" stroke="#000000" stroke-linecap="round" stroke-linejoin="round" stroke-width="3.5696124373760543"/>
  <path d="M 53.89124896125662, 45.21055464607226 Q 51.286011065647735, 45.12031095762788, 45.545555226819346, 44.95073198113265 " fill="none" id="curve_14" stroke="#000000" stroke-linecap="round" stroke-linejoin="round" stroke-width="2.7922749275507193"/>
  <path d="M 59.26970091871079, 45.3235423575855 Q 65.13174664952032, 47.32942641961561, 75.11200205537858, 49.62627254931671 " fill="none" id="curve_16" stroke="#000000" stroke-linecap="round" stroke-linejoin="round" stroke-width="2.5295487810645407"/>
  <path d="M 75.11200205537858, 49.62627254931671 Q 72.32179562545332, 47.40255311059505, 61.99183060613829, 45.61823738797211 " fill="none" id="curve_16" stroke="#000000" stroke-linecap="round" stroke-linejoin="round" stroke-width="3.2312278165857498"/>
  <path d="M 73.9010455824615, 80.23852809342756 Q 73.166509419022, 78.64610232726164, 55.651399076098954, 78.3325373093875 " fill="none" id="curve_17" stroke="#000000" stroke-linecap="round" stroke-linejoin="round" stroke-width="2.160302167190982"/>
  <path d="M 42.18437161893459, 106.68029072111744 Q 43.62935240523577, 98.35218188107169, 48.85015697523716, 92.04010310529368 " fill="none" id="curve_18" stroke="#000000" stroke-linecap="round" stroke-linejoin="round" stroke-width="2.408755417721888"/>
  <path d="M 47.90511815307859, 79.12090371150735 Q 47.109177012870006, 78.07521652950382, 45.65331791580829, 76.92314667453499 " fill="none" id="curve_29" stroke="#000000" stroke-linecap="round" stroke-linejoin="round" stroke-width="2.9659808964714105"/>
  <path d="M 68.86008693048022, 66.84468459496597 Q 69.9239183063186, 66.46980921796322, 70.57798691685278, 65.01879847235897 " fill="none" id="curve_30" stroke="#000000" stroke-linecap="round" stroke-linejoin="round" stroke-width="3.3803983598796683"/>
  <path d="M 68.82174692928224, 48.54552860255767 Q 71.09591240782143, 49.63865611745504, 80.09850380824196, 50.20345240444002 " fill="none" id="curve_31" stroke="#000000" stroke-linecap="round" stroke-linejoin="round" stroke-width="2.6474059989234244"/>
  <path d="M 80.09850380824196, 50.20345240444002 Q 81.70713728050335, 50.41785060069607, 83.61263234928377, 50.80830428673808 " fill="none" id="curve_31" stroke="#000000" stroke-linecap="round" stroke-linejoin="round" stroke-width="2.996851787934259"/>
  <path d="M 74.32043353010326, 49.36042661813795 Q 69.93024861328816, 47.985134944739684, 61.978713858273345, 46.07618623471351 " fill="none" id="curve_33" stroke="#000000" stroke-linecap="round" stroke-linejoin="round" stroke-width="3.268401431566669"/>
  <path d="M 45.12817794217392, 94.94539110156984 Q 44.75963264489003, 105.82221162834549, 39.174799411688376, 107.38466754659122 " fill="none" id="curve_48" stroke="#000000" stroke-linecap="round" stroke-linejoin="round" stroke-width="2.784283035451614"/>
  <path d="M 72.02632860082724, 48.92890320578411 Q 69.04001025022167, 48.202989943997174, 65.60929890315737, 46.659611804753304 " fill="none" id="curve_51" stroke="#000000" stroke-linecap="round" stroke-linejoin="round" stroke-width="3.8387073525952964"/>
  <path d="M 61.37953587316591, 47.08956455559533 Q 60.114216660604065, 46.06544332520535, 52.28050258338423, 45.05235375828894 " fill="none" id="curve_60" stroke="#000000" stroke-linecap="round" stroke-linejoin="round" stroke-width="2.754833990637849"/>
  <path d="M 68.54601526606982, 49.59244324359451 Q 70.81369480561544, 48.994054050313586, 75.43278553963154, 48.18435022282808 " fill="none" id="curve_62" stroke="#000000" stroke-linecap="round" stroke-linejoin="round" stroke-width="3.6024639578974913"/>
  <path d="M 63.69444832548114, 47.21053222666133 Q 62.67187226648352, 45.70662765317946, 51.303629381371145, 45.064112817121526 " fill="none" id="curve_106" stroke="#000000" stroke-linecap="round" stroke-linejoin="round" stroke-width="2.368531141514345"/>
</svg>
