<?xml version="1.0" ?>
<svg height="140" width="140" xmlns="http://www.w3.org/2000/svg">
  <path d="M 36.33102798461914, 124.12503139674664 Q 35.80364172279986, 124.56942404928964, 34.25442325454452, 124.90531337190218 " fill="none" id="curve_1" stroke="#000000" stroke-linecap="round" stroke-linejoin="round" stroke-width="5.439789636023776"/>
  <path d="M 34.25442325454452, 124.90531337190218 Q 35.75370688573338, 116.24172905436025, 40.848772863487255, 100.63741373882145 " fill="none" id="curve_1" stroke="#000000" stroke-linecap="round" stroke-linejoin="round" stroke-width="5.2185266289618095"/>
  <path d="M 40.848772863487255, 100.63741373882145 Q 44.338686014788, 92.29882264416527, 50.59330123377438, 76.58737670395222 " fill="none" id="curve_1" stroke="#000000" stroke-linecap="round" stroke-linejoin="round" stroke-width="5.837522007153265"/>
  <path d="M 50.59330123377438, 76.58737670395222 Q 54.893534838634544, 66.4577517406686, 66.29742374613052, 47.60340063923408 " fill="none" id="curve_1" stroke="#000000" stroke-linecap="round" stroke-linejoin="round" stroke-width="4.882924083624991"/>
  <path d="M 66.29742374613052, 47.60340063923408 Q 66.17125926828709, 43.815626910052096, 61.32954665743043, 43.56116318252079 " fill="none" id="curve_1" stroke="#000000" stroke-linecap="round" stroke-linejoin="round" stroke-width="5.398946387538769"/>
  <path d="M 61.32954665743043, 43.56116318252079 Q 53.96428910365933, 43.8680126011556, 28.50459831470929, 44.202668270920235 " fill="none" id="curve_1" stroke="#000000" stroke-linecap="round" stroke-linejoin="round" stroke-width="5.432966205135198"/>
  <path d="M 28.50459831470929, 44.202668270920235 Q 25.051895509034548, 43.715360998317365, 20.865588570354085, 43.16450993453299 " fill="none" id="curve_1" stroke="#000000" stroke-linecap="round" stroke-linejoin="round" stroke-width="5.123854341212187"/>
  <path d="M 34.942057735073725, 83.09986914662355 Q 39.597369683183224, 80.33852819372285, 53.09635956627413, 78.21244513569101 " fill="none" id="curve_2" stroke="#000000" stroke-linecap="round" stroke-linejoin="round" stroke-width="4.258207764282548"/>
  <path d="M 53.09635956627413, 78.21244513569101 Q 64.0100598959184, 78.8749967097773, 69.99750573235897, 80.31310956663957 " fill="none" id="curve_2" stroke="#000000" stroke-linecap="round" stroke-linejoin="round" stroke-width="3.986027622158793"/>
  <path d="M 58.651958719572214, 41.58050499093447 Q 52.18580491252322, 41.654807308328145, 46.977625235248375, 41.8527242773639 " fill="none" id="curve_4" stroke="#000000" stroke-linecap="round" stroke-linejoin="round" stroke-width="2.554748903559707"/>
  <path d="M 63.62551883163751, 53.83245796546178 Q 64.30800812783163, 53.12565096019409, 64.5615284576714, 49.4670634142142 " fill="none" id="curve_5" stroke="#000000" stroke-linecap="round" stroke-linejoin="round" stroke-width="6.34023009459024"/>
  <path d="M 35.16294672639871, 83.02509824417047 Q 31.47093702508295, 83.51073576690891, 29.865004467041985, 85.39154093420431 " fill="none" id="curve_6" stroke="#000000" stroke-linecap="round" stroke-linejoin="round" stroke-width="5.078686637762893"/>
  <path d="M 29.865004467041985, 85.39154093420431 Q 34.62995192140509, 81.31436765359206, 46.271000010331605, 77.49490374272567 " fill="none" id="curve_6" stroke="#000000" stroke-linecap="round" stroke-linejoin="round" stroke-width="2.397920786996658"/>
  <path d="M 88.94367321989154, 1.9764892471103792 Q 89.32661318281758, 1.7499598761989184, 89.7006443103473, 1.2588065417337349 " fill="none" id="curve_21" stroke="#000000" stroke-linecap="round" stroke-linejoin="round" stroke-width="2.0812993704813034"/>
  <path d="M 30.114173953634968, 43.96808231228388 Q 28.63109723503362, 43.189235966764855, 21.972207461243926, 42.729358780614135 " fill="none" id="curve_28" stroke="#000000" stroke-linecap="round" stroke-linejoin="round" stroke-width="2.998233032602209"/>
  <path d="M 34.0247435497069, 43.324471147431375 Q 28.723849682275176, 43.21053620823896, 20.82940571858324, 42.990395841233344 " fill="none" id="curve_33" stroke="#000000" stroke-linecap="round" stroke-linejoin="round" stroke-width="3.0226130335983155"/>
</svg>
