<?xml version="1.0" ?>
<svg height="140" width="140" xmlns="http://www.w3.org/2000/svg">
  <path d="M 61.741119384765625, 57.89036178588867 Q 59.87927913600664, 66.43239847678319, 47.46711177220891, 81.34595433302502 " fill="none" id="curve_1" stroke="#000000" stroke-linecap="round" stroke-linejoin="round" stroke-width="5.572116469434616"/>
  <path d="M 47.46711177220891, 81.34595433302502 Q 43.64370190686142, 88.55202762164323, 32.28558091222843, 107.8666459573669 " fill="none" id="curve_1" stroke="#000000" stroke-linecap="round" stroke-linejoin="round" stroke-width="4.26066934905236"/>
  <path d="M 28.010449006399057, 80.41414240833257 Q 37.72094349621015, 80.1842112644475, 57.28013869236027, 79.94821413300295 " fill="none" id="curve_2" stroke="#000000" stroke-linecap="round" stroke-linejoin="round" stroke-width="5.1690456885752445"/>
  <path d="M 57.28013869236027, 79.94821413300295 Q 62.90096062815553, 79.58339123447409, 71.6847836102038, 79.2508025765565 " fill="none" id="curve_2" stroke="#000000" stroke-linecap="round" stroke-linejoin="round" stroke-width="4.474528195625489"/>
  <path d="M 64.06021165012906, 56.56987245611913 Q 63.35328042509025, 60.9391295418792, 59.453312350885746, 65.24757162040929 " fill="none" id="curve_3" stroke="#000000" stroke-linecap="round" stroke-linejoin="round" stroke-width="4.396101527795243"/>
  <path d="M 62.30780144957167, 54.640183105237156 Q 57.767715721267436, 52.127177745081475, 36.69271779959961, 49.594906333774006 " fill="none" id="curve_4" stroke="#000000" stroke-linecap="round" stroke-linejoin="round" stroke-width="6.075747615753301"/>
  <path d="M 36.69271779959961, 49.594906333774006 Q 27.802875262523667, 49.852425160550155, 22.31187539583967, 50.42404550920402 " fill="none" id="curve_4" stroke="#000000" stroke-linecap="round" stroke-linejoin="round" stroke-width="5.563130614218676"/>
  <path d="M 32.942768594933966, 109.40109377275931 Q 32.64776356639856, 110.4727670175143, 32.01165370383723, 111.23100029924291 " fill="none" id="curve_6" stroke="#000000" stroke-linecap="round" stroke-linejoin="round" stroke-width="3.0599084254175914"/>
  <path d="M 29.170488452226735, 77.88519199662498 Q 35.59984685507485, 78.9135055300642, 47.14127794072061, 79.89153567025011 " fill="none" id="curve_7" stroke="#000000" stroke-linecap="round" stroke-linejoin="round" stroke-width="2.9948010040632504"/>
  <path d="M 47.14127794072061, 79.89153567025011 Q 54.035655178572355, 74.99253260050736, 59.83971701253126, 61.53250168476879 " fill="none" id="curve_7" stroke="#000000" stroke-linecap="round" stroke-linejoin="round" stroke-width="4.164905061106766"/>
  <path d="M 90.81130719775598, 59.99203864612389 Q 89.83014985808362, 60.58565977907, 89.72573210439388, 84.58715949077938 " fill="none" id="curve_8" stroke="#000000" stroke-linecap="round" stroke-linejoin="round" stroke-width="1.6808983635177983"/>
  <path d="M 89.72573210439388, 84.58715949077938 Q 89.71136616556589, 96.31267028667365, 89.6217343633437, 111.12576410925499 " fill="none" id="curve_8" stroke="#000000" stroke-linecap="round" stroke-linejoin="round" stroke-width="1.661092772960284"/>
  <path d="M 89.6217343633437, 111.12576410925499 Q 89.64015018902299, 122.06151910481228, 89.7991704240743, 135.24840657619754 " fill="none" id="curve_8" stroke="#000000" stroke-linecap="round" stroke-linejoin="round" stroke-width="1.61503590245348"/>
  <path d="M 89.7991704240743, 135.24840657619754 Q 89.75453531027087, 137.9593576485306, 89.53376048616552, 138.8958459148822 " fill="none" id="curve_8" stroke="#000000" stroke-linecap="round" stroke-linejoin="round" stroke-width="1.9782408947691839"/>
  <path d="M 58.901558005273486, 68.37506818213342 Q 59.4403286143365, 66.03156220193736, 61.552496562636875, 64.44838182682176 " fill="none" id="curve_12" stroke="#000000" stroke-linecap="round" stroke-linejoin="round" stroke-width="1.7661154076540664"/>
  <path d="M 61.04958019733499, 52.29701010988912 Q 62.10541348846988, 53.1190455932185, 63.313601277997726, 54.79509745838287 " fill="none" id="curve_13" stroke="#000000" stroke-linecap="round" stroke-linejoin="round" stroke-width="2.5954569494168496"/>
  <path d="M 89.93314361161988, 57.9001251266257 Q 89.76709372000182, 56.29228249347704, 89.70402621693279, 41.18636232723725 " fill="none" id="curve_14" stroke="#000000" stroke-linecap="round" stroke-linejoin="round" stroke-width="1.470103032296809"/>
  <path d="M 89.70402621693279, 41.18636232723725 Q 89.68657293794428, 37.44269200072886, 89.66763527603523, 26.46726036800098 " fill="none" id="curve_14" stroke="#000000" stroke-linecap="round" stroke-linejoin="round" stroke-width="1.4463760827379846"/>
  <path d="M 89.66763527603523, 26.46726036800098 Q 89.64902835891155, 23.035442682094402, 89.62882941584493, 12.957747890072994 " fill="none" id="curve_14" stroke="#000000" stroke-linecap="round" stroke-linejoin="round" stroke-width="1.3712763813078073"/>
  <path d="M 89.62882941584493, 12.957747890072994 Q 89.55237722787578, 4.394317906216749, 89.0086555675428, 0.7736071000162799 " fill="none" id="curve_14" stroke="#000000" stroke-linecap="round" stroke-linejoin="round" stroke-width="1.631943602679337"/>
  <path d="M 89.0086555675428, 0.7736071000162799 Q 89.28258195098253, 0.9349025396202673, 89.5246085967067, 1.3120756884948717 " fill="none" id="curve_14" stroke="#000000" stroke-linecap="round" stroke-linejoin="round" stroke-width="1.5912584086297223"/>
  <path d="M 63.067730562219765, 55.927768573274335 Q 62.59232242358507, 51.727251638045544, 55.23433405739816, 50.91612893795214 " fill="none" id="curve_22" stroke="#000000" stroke-linecap="round" stroke-linejoin="round" stroke-width="3.2328246601241357"/>
  <path d="M 52.163018850549285, 74.92039582711678 Q 56.92122432113489, 69.05344971418074, 63.280605379053554, 58.63489134784905 " fill="none" id="curve_24" stroke="#000000" stroke-linecap="round" stroke-linejoin="round" stroke-width="2.4920470895131532"/>
  <path d="M 63.280605379053554, 58.63489134784905 Q 57.19734732591288, 65.5292258057109, 49.36789161534355, 80.17825244717443 " fill="none" id="curve_24" stroke="#000000" stroke-linecap="round" stroke-linejoin="round" stroke-width="3.247430289143825"/>
  <path d="M 59.94439315065728, 53.76022613093571 Q 60.711233120627305, 56.68108962252774, 61.168741811692044, 63.73118809131954 " fill="none" id="curve_26" stroke="#000000" stroke-linecap="round" stroke-linejoin="round" stroke-width="2.993200149901013"/>
  <path d="M 61.168741811692044, 63.73118809131954 Q 57.00184084915141, 68.04911028722978, 51.379108175654, 77.57292838459534 " fill="none" id="curve_26" stroke="#000000" stroke-linecap="round" stroke-linejoin="round" stroke-width="2.259641887249061"/>
  <path d="M 62.52528340604415, 64.26739383399388 Q 56.54370351932736, 68.419053559781, 50.568831189350824, 77.17655423946346 " fill="none" id="curve_27" stroke="#000000" stroke-linecap="round" stroke-linejoin="round" stroke-width="3.0484523124412206"/>
  <path d="M 61.53418159484863, 58.981271743774414 Q 63.636396564047104, 58.31361743056837, 64.62395953271127, 54.622842675861534 " fill="none" id="curve_54" stroke="#000000" stroke-linecap="round" stroke-linejoin="round" stroke-width="3.514648570116465"/>
  <path d="M 50.36819839477539, 78.86455345153809 Q 51.51065503294788, 77.6750302958465, 54.13100384313856, 75.97686314298824 " fill="none" id="curve_133" stroke="#000000" stroke-linecap="round" stroke-linejoin="round" stroke-width="2.383358018087186"/>
</svg>
