<?xml version="1.0" ?>
<svg height="140" width="140" xmlns="http://www.w3.org/2000/svg">
  <path d="M 19.221776485443115, 51.65727615356445 Q 13.232565791667302, 51.7647660025429, 12.830198325685615, 55.146001202847174 " fill="none" id="curve_1" stroke="#000000" stroke-linecap="round" stroke-linejoin="round" stroke-width="4.718628285517495"/>
  <path d="M 12.830198325685615, 55.146001202847174 Q 13.400431041431384, 49.800122835703085, 23.43672803570906, 49.089983087160846 " fill="none" id="curve_1" stroke="#000000" stroke-linecap="round" stroke-linejoin="round" stroke-width="4.720621861466477"/>
  <path d="M 23.43672803570906, 49.089983087160846 Q 42.47852428773079, 49.39160688041791, 50.41552817570525, 53.24528614188428 " fill="none" id="curve_1" stroke="#000000" stroke-linecap="round" stroke-linejoin="round" stroke-width="5.384154832608631"/>
  <path d="M 50.41552817570525, 53.24528614188428 Q 49.29147652718904, 66.66527067379428, 41.12422771842478, 71.33255646273257 " fill="none" id="curve_1" stroke="#000000" stroke-linecap="round" stroke-linejoin="round" stroke-width="4.279656276597361"/>
  <path d="M 41.12422771842478, 71.33255646273257 Q 38.80486382928568, 82.5026089881301, 27.93317684273012, 99.08768381292842 " fill="none" id="curve_1" stroke="#000000" stroke-linecap="round" stroke-linejoin="round" stroke-width="4.593946132503463"/>
  <path d="M 21.106934043981465, 74.81364166873759 Q 23.525515833854225, 71.89924194765867, 48.14041727965405, 71.27298979802794 " fill="none" id="curve_2" stroke="#000000" stroke-linecap="round" stroke-linejoin="round" stroke-width="5.139138948053019"/>
  <path d="M 48.14041727965405, 71.27298979802794 Q 49.60241214290679, 72.82062900302634, 53.326128955311646, 73.53664314252562 " fill="none" id="curve_2" stroke="#000000" stroke-linecap="round" stroke-linejoin="round" stroke-width="4.18681080102464"/>
  <path d="M 35.84984430901514, 82.63402573748849 Q 34.46279068114738, 86.8113346914818, 31.798724824697175, 90.04069647224664 " fill="none" id="curve_3" stroke="#000000" stroke-linecap="round" stroke-linejoin="round" stroke-width="3.3545808653407754"/>
  <path d="M 38.03056606378012, 48.81355959525926 Q 39.57694986630774, 49.08112609150051, 41.79871591677128, 49.5295085807907 " fill="none" id="curve_4" stroke="#000000" stroke-linecap="round" stroke-linejoin="round" stroke-width="3.3254516215933103"/>
  <path d="M 36.684593222686374, 50.44770068846842 Q 31.291896300281685, 50.22688257992501, 21.653281700096286, 49.94729309095746 " fill="none" id="curve_11" stroke="#000000" stroke-linecap="round" stroke-linejoin="round" stroke-width="2.8421033666762816"/>
  <path d="M 25.21369947829819, 73.52356123888742 Q 26.86023238224572, 72.24725696536245, 34.98302413079814, 71.22530008956632 " fill="none" id="curve_21" stroke="#000000" stroke-linecap="round" stroke-linejoin="round" stroke-width="2.237902143184959"/>
  <path d="M 40.21415387002804, 49.42021825852943 Q 36.83756111836614, 49.127040198752, 28.32573745421169, 48.66712290564102 " fill="none" id="curve_23" stroke="#000000" stroke-linecap="round" stroke-linejoin="round" stroke-width="2.638376523608322"/>
  <path d="M 41.64295066410208, 75.86023907341348 Q 39.71415341028537, 80.1756386432437, 33.40561601756876, 82.9492704339194 " fill="none" id="curve_51" stroke="#000000" stroke-linecap="round" stroke-linejoin="round" stroke-width="2.358912820820206"/>
  <path d="M 22.086626296761608, 51.66048345721462 Q 22.744332007704504, 50.85356367795824, 24.559879149386557, 50.13652032275304 " fill="none" id="curve_53" stroke="#000000" stroke-linecap="round" stroke-linejoin="round" stroke-width="2.33584962015847"/>
  <path d="M 29.58021182404364, 48.454650988961276 Q 29.888632038655164, 48.513670715433626, 30.685963293797403, 48.62340622416556 " fill="none" id="curve_54" stroke="#000000" stroke-linecap="round" stroke-linejoin="round" stroke-width="2.565283589938799"/>
</svg>
