<?xml version="1.0" ?>
<svg height="140" width="140" xmlns="http://www.w3.org/2000/svg">
  <path d="M 46.2646484375, 73.52542877197266 Q 44.28220956571744, 72.51494410486637, 42.54950517927432, 68.87630717779282 " fill="none" id="curve_1" stroke="#000000" stroke-linecap="round" stroke-linejoin="round" stroke-width="10.879098008315424"/>
  <path d="M 42.54950517927432, 68.87630717779282 Q 43.89820501833658, 63.19389748023553, 46.292500494641025, 55.76075490920388 " fill="none" id="curve_1" stroke="#000000" stroke-linecap="round" stroke-linejoin="round" stroke-width="6.893994824380307"/>
  <path d="M 46.292500494641025, 55.76075490920388 Q 47.82371274347181, 51.95134697888992, 51.196648352159706, 49.55981547433592 " fill="none" id="curve_1" stroke="#000000" stroke-linecap="round" stroke-linejoin="round" stroke-width="5.539260806984112"/>
  <path d="M 51.196648352159706, 49.55981547433592 Q 43.560766091919795, 51.052307004838156, 22.599110912149406, 53.55256864617864 " fill="none" id="curve_1" stroke="#000000" stroke-linecap="round" stroke-linejoin="round" stroke-width="4.503425950933883"/>
  <path d="M 28.022821644203734, 72.8119330306645 Q 41.2935826701415, 73.00590916490924, 43.29197063841525, 75.17464487238124 " fill="none" id="curve_2" stroke="#000000" stroke-linecap="round" stroke-linejoin="round" stroke-width="6.038368986210235"/>
  <path d="M 43.29197063841525, 75.17464487238124 Q 42.06893527564295, 89.05640151869787, 39.5622429724725, 98.78506104357874 " fill="none" id="curve_2" stroke="#000000" stroke-linecap="round" stroke-linejoin="round" stroke-width="5.545129149504493"/>
  <path d="M 44.41487192248805, 73.08752553874967 Q 54.84216547535576, 77.56838853460363, 68.75891849791199, 81.0500895675134 " fill="none" id="curve_3" stroke="#000000" stroke-linecap="round" stroke-linejoin="round" stroke-width="4.249034811018036"/>
  <path d="M 41.40218060244858, 75.31714217155336 Q 41.07371915644942, 80.73514658569248, 40.83014045994376, 91.11659206064151 " fill="none" id="curve_4" stroke="#000000" stroke-linecap="round" stroke-linejoin="round" stroke-width="4.326703858214825"/>
  <path d="M 40.83014045994376, 91.11659206064151 Q 40.35401349867141, 87.49112765532782, 40.0543748489251, 73.59843528776216 " fill="none" id="curve_4" stroke="#000000" stroke-linecap="round" stroke-linejoin="round" stroke-width="3.3260079665479565"/>
  <path d="M 40.0543748489251, 73.59843528776216 Q 51.599052220769885, 73.86655139404328, 55.00762121040901, 75.50776334935716 " fill="none" id="curve_4" stroke="#000000" stroke-linecap="round" stroke-linejoin="round" stroke-width="3.1858042141748606"/>
  <path d="M 41.98575956431861, 94.16636333925761 Q 43.223235584874985, 90.0002780610719, 44.83240719360519, 84.9845659315958 " fill="none" id="curve_5" stroke="#000000" stroke-linecap="round" stroke-linejoin="round" stroke-width="3.1725283440402468"/>
  <path d="M 31.762635761981215, 72.60296591654688 Q 37.87236841378492, 72.93515100963894, 46.87207649611347, 73.39724070683266 " fill="none" id="curve_6" stroke="#000000" stroke-linecap="round" stroke-linejoin="round" stroke-width="3.0543384118167913"/>
  <path d="M 38.557144595021526, 52.90318566423747 Q 37.29726824187261, 52.39751543740359, 32.99971325763877, 52.05661508219817 " fill="none" id="curve_7" stroke="#000000" stroke-linecap="round" stroke-linejoin="round" stroke-width="3.9967219927651323"/>
  <path d="M 70.42652601888653, 82.41421735903307 Q 64.42858761181922, 80.25459900428949, 49.19911350871453, 75.84125201828718 " fill="none" id="curve_22" stroke="#000000" stroke-linecap="round" stroke-linejoin="round" stroke-width="2.2413389332911806"/>
  <path d="M 36.05164647252616, 99.68304008760217 Q 37.2269996719206, 99.66083635728955, 38.13898462570012, 99.58827912675902 " fill="none" id="curve_23" stroke="#000000" stroke-linecap="round" stroke-linejoin="round" stroke-width="2.41826883469363"/>
  <path d="M 33.28674345993669, 71.83148535548588 Q 42.14315127503798, 72.56018312621946, 46.13319106185281, 75.87357950377948 " fill="none" id="curve_24" stroke="#000000" stroke-linecap="round" stroke-linejoin="round" stroke-width="2.716033877222322"/>
  <path d="M 46.13319106185281, 75.87357950377948 Q 56.33692240836766, 77.08844318281638, 60.74713214282649, 80.75305911141953 " fill="none" id="curve_24" stroke="#000000" stroke-linecap="round" stroke-linejoin="round" stroke-width="2.0819677906804417"/>
  <path d="M 34.60349267263215, 51.90528548288262 Q 34.585235854676675, 50.92909972920208, 34.425040960598075, 50.585681261869546 " fill="none" id="curve_28" stroke="#000000" stroke-linecap="round" stroke-linejoin="round" stroke-width="3.1357860459618143"/>
  <path d="M 51.87810913887978, 48.9423293090104 Q 50.57479089458993, 48.75915061707513, 45.369030109559134, 48.66278535827238 " fill="none" id="curve_29" stroke="#000000" stroke-linecap="round" stroke-linejoin="round" stroke-width="3.10474706948022"/>
  <path d="M 39.45259262957916, 72.61994691277323 Q 37.227547720038714, 72.22047079799809, 29.130204022939594, 71.90773531052083 " fill="none" id="curve_44" stroke="#000000" stroke-linecap="round" stroke-linejoin="round" stroke-width="2.378499872258352"/>
  <path d="M 38.21099458558001, 95.71264244105987 Q 38.70839516942938, 94.36859468803235, 39.80989913607299, 92.584473466059 " fill="none" id="curve_98" stroke="#000000" stroke-linecap="round" stroke-linejoin="round" stroke-width="2.803954784563919"/>
</svg>
