<?xml version="1.0" ?>
<svg height="140" width="140" xmlns="http://www.w3.org/2000/svg">
  <path d="M 63.23655319213867, 19.64358901977539 Q 62.43988909260314, 29.828624495792855, 58.28318508082557, 42.85057159310918 " fill="none" id="curve_1" stroke="#000000" stroke-linecap="round" stroke-linejoin="round" stroke-width="4.223904495302122"/>
  <path d="M 58.28318508082557, 42.85057159310918 Q 55.33724140758494, 52.87286758419346, 50.51839921807638, 65.43036669561488 " fill="none" id="curve_1" stroke="#000000" stroke-linecap="round" stroke-linejoin="round" stroke-width="3.4857669215843203"/>
  <path d="M 50.51839921807638, 65.43036669561488 Q 47.754552064719874, 73.6070591097187, 38.185973775581296, 97.13301966511708 " fill="none" id="curve_1" stroke="#000000" stroke-linecap="round" stroke-linejoin="round" stroke-width="3.5521422966131824"/>
  <path d="M 38.185973775581296, 97.13301966511708 Q 36.78771038150475, 102.7885145681657, 35.03235358182873, 107.69804409254334 " fill="none" id="curve_1" stroke="#000000" stroke-linecap="round" stroke-linejoin="round" stroke-width="4.073402181932191"/>
  <path d="M 42.23347840437497, 66.40925591549212 Q 49.207704830410144, 64.39089599590356, 62.06342603956752, 62.666529817635016 " fill="none" id="curve_3" stroke="#000000" stroke-linecap="round" stroke-linejoin="round" stroke-width="3.4312503956854785"/>
  <path d="M 45.01911375893863, 64.22786258104382 Q 47.11853177162973, 63.89256172171597, 51.37440367784641, 63.66675337421228 " fill="none" id="curve_4" stroke="#000000" stroke-linecap="round" stroke-linejoin="round" stroke-width="2.947661250905322"/>
  <path d="M 60.50539788809654, 36.9252473413505 Q 60.9695514290097, 31.427932114048026, 61.409564459038656, 18.93450394147651 " fill="none" id="curve_5" stroke="#000000" stroke-linecap="round" stroke-linejoin="round" stroke-width="3.29603523176233"/>
  <path d="M 61.409564459038656, 18.93450394147651 Q 60.67883706756717, 17.68809642608285, 53.711672523649774, 17.376798642638587 " fill="none" id="curve_5" stroke="#000000" stroke-linecap="round" stroke-linejoin="round" stroke-width="3.270659988901439"/>
  <path d="M 53.711672523649774, 17.376798642638587 Q 45.99925616065762, 18.17275852825472, 38.157859865231956, 19.883462249959198 " fill="none" id="curve_5" stroke="#000000" stroke-linecap="round" stroke-linejoin="round" stroke-width="3.474862624038148"/>
  <path d="M 38.157859865231956, 19.883462249959198 Q 28.683425097692556, 19.92531655439602, 27.78791861480174, 20.692751408435182 " fill="none" id="curve_5" stroke="#000000" stroke-linecap="round" stroke-linejoin="round" stroke-width="5.943746874624402"/>
  <path d="M 27.78791861480174, 20.692751408435182 Q 28.692176477018986, 23.057865131560334, 29.481193419045383, 26.359976627434435 " fill="none" id="curve_5" stroke="#000000" stroke-linecap="round" stroke-linejoin="round" stroke-width="2.9304704506789276"/>
  <path d="M 26.005651789333847, 22.213777764399236 Q 26.55596598537324, 22.254063920422222, 27.11465973678551, 22.343184643500308 " fill="none" id="curve_6" stroke="#000000" stroke-linecap="round" stroke-linejoin="round" stroke-width="3.009320825242412"/>
  <path d="M 61.516080011401485, 35.20594054295538 Q 62.04702837187366, 35.20349251991168, 62.6804406026205, 35.19853288499693 " fill="none" id="curve_23" stroke="#000000" stroke-linecap="round" stroke-linejoin="round" stroke-width="2.681458762345464"/>
  <path d="M 46.70762321986343, 78.14513195384322 Q 44.89508366020529, 78.44871561899281, 43.15110971168117, 79.2997508020093 " fill="none" id="curve_24" stroke="#000000" stroke-linecap="round" stroke-linejoin="round" stroke-width="2.8253661948752247"/>
  <path d="M 41.736158277387574, 18.503646816311488 Q 40.082414112425084, 19.159863020226474, 35.08530983615274, 19.86276682989367 " fill="none" id="curve_29" stroke="#000000" stroke-linecap="round" stroke-linejoin="round" stroke-width="2.6087377830683858"/>
  <path d="M 88.61742782592773, 138.8150749206543 Q 89.07555432668156, 138.4403033385435, 89.71092469609822, 137.7536330756785 " fill="none" id="curve_43" stroke="#000000" stroke-linecap="round" stroke-linejoin="round" stroke-width="1.9526835144135424"/>
  <path d="M 2.71783447265625, 139.2082405090332 Q 2.4515132074040236, 138.95311611348794, 1.9021402635924858, 138.6281596186108 " fill="none" id="curve_70" stroke="#000000" stroke-linecap="round" stroke-linejoin="round" stroke-width="2.209905522803568"/>
  <path d="M 35.52239142093527, 105.70375213860055 Q 35.07241271192505, 105.58672486212103, 34.37671614497926, 105.40929550992263 " fill="none" id="curve_72" stroke="#000000" stroke-linecap="round" stroke-linejoin="round" stroke-width="3.1135077619076266"/>
  <path d="M 25.926373064698524, 19.508606059477568 Q 25.857622487357567, 19.413732121910964, 25.775396826572102, 19.27732836028023 " fill="none" id="curve_78" stroke="#000000" stroke-linecap="round" stroke-linejoin="round" stroke-width="3.178724069467824"/>
  <path d="M 87.2630615234375, 138.31894302368164 Q 86.82486690714667, 138.61600711229036, 84.42453117915122, 138.73621480810823 " fill="none" id="curve_131" stroke="#000000" stroke-linecap="round" stroke-linejoin="round" stroke-width="1.8517047991047924"/>
</svg>
