<?xml version="1.0" ?>
<svg height="140" width="140" xmlns="http://www.w3.org/2000/svg">
  <path d="M 43.93495178222656, 65.3984146118164 Q 43.6478984497597, 63.1608350269257, 40.62608510965711, 62.10618210971259 " fill="none" id="curve_1" stroke="#000000" stroke-linecap="round" stroke-linejoin="round" stroke-width="8.207727830960286"/>
  <path d="M 40.62608510965711, 62.10618210971259 Q 42.25193651025449, 64.58045618337708, 46.61885157353672, 65.74733828011222 " fill="none" id="curve_1" stroke="#000000" stroke-linecap="round" stroke-linejoin="round" stroke-width="6.2107006008973835"/>
  <path d="M 46.61885157353672, 65.74733828011222 Q 45.357009606060195, 70.19830690062902, 44.87963594628879, 86.63892513947773 " fill="none" id="curve_1" stroke="#000000" stroke-linecap="round" stroke-linejoin="round" stroke-width="7.266658644905965"/>
  <path d="M 44.87963594628879, 86.63892513947773 Q 42.47804808086389, 97.18261962036283, 39.74685335776566, 110.59639228028364 " fill="none" id="curve_1" stroke="#000000" stroke-linecap="round" stroke-linejoin="round" stroke-width="4.278531811522248"/>
  <path d="M 29.658443047686028, 90.70878933045776 Q 31.96653091079812, 87.45388154831409, 44.376540494694986, 86.38912043255635 " fill="none" id="curve_2" stroke="#000000" stroke-linecap="round" stroke-linejoin="round" stroke-width="5.024088480361177"/>
  <path d="M 28.962126994716485, 64.20868323975947 Q 28.886488307502685, 60.661941857430584, 28.497780762787947, 59.546419333071874 " fill="none" id="curve_3" stroke="#000000" stroke-linecap="round" stroke-linejoin="round" stroke-width="3.787503262560602"/>
  <path d="M 25.185691955854153, 92.04819807953469 Q 25.799605243120073, 91.44883352290098, 26.168603286631257, 89.68798922858004 " fill="none" id="curve_4" stroke="#000000" stroke-linecap="round" stroke-linejoin="round" stroke-width="4.987485159478832"/>
  <path d="M 35.89956600199843, 61.64149969389621 Q 37.20713195881597, 61.6596752429942, 38.206743167423866, 61.69857207616556 " fill="none" id="curve_5" stroke="#000000" stroke-linecap="round" stroke-linejoin="round" stroke-width="7.184019607249969"/>
  <path d="M 38.206743167423866, 61.69857207616556 Q 34.07092029847932, 61.59738743058549, 28.716057552736736, 61.43911630699174 " fill="none" id="curve_5" stroke="#000000" stroke-linecap="round" stroke-linejoin="round" stroke-width="3.486221533133572"/>
  <path d="M 40.18114285055969, 112.0702692944719 Q 40.927446918001905, 99.78509074010276, 43.72450860141077, 84.85585599062534 " fill="none" id="curve_6" stroke="#000000" stroke-linecap="round" stroke-linejoin="round" stroke-width="2.5821974304660014"/>
  <path d="M 47.83312180542941, 72.1002172566623 Q 47.7763297114651, 76.8578788824752, 47.548027400252714, 79.23870714482618 " fill="none" id="curve_7" stroke="#000000" stroke-linecap="round" stroke-linejoin="round" stroke-width="3.648915706555651"/>
  <path d="M 40.496339862134185, 101.19327835036023 Q 40.50215123560136, 103.19340013370241, 40.5151400048081, 105.69124348900179 " fill="none" id="curve_8" stroke="#000000" stroke-linecap="round" stroke-linejoin="round" stroke-width="3.4089097463693787"/>
  <path d="M 26.77479069098362, 93.39097112817025 Q 26.655463110117783, 93.06644880617897, 26.5737001734444, 92.2087329274148 " fill="none" id="curve_23" stroke="#000000" stroke-linecap="round" stroke-linejoin="round" stroke-width="3.9308944906742918"/>
  <path d="M 43.13184663088931, 66.6148184449206 Q 43.781591720246325, 68.02394158227973, 44.4529079345793, 70.99703926444487 " fill="none" id="curve_24" stroke="#000000" stroke-linecap="round" stroke-linejoin="round" stroke-width="4.34097819730311"/>
  <path d="M 47.066613568705165, 63.23844839268508 Q 46.28168343646257, 63.359626144050104, 44.06959651755332, 63.49870804602114 " fill="none" id="curve_25" stroke="#000000" stroke-linecap="round" stroke-linejoin="round" stroke-width="2.966808403264957"/>
  <path d="M 41.90107367814733, 90.77736432295023 Q 41.50483527045581, 98.32620252582868, 40.699053835054016, 103.96582547189847 " fill="none" id="curve_53" stroke="#000000" stroke-linecap="round" stroke-linejoin="round" stroke-width="3.1173393416712227"/>
  <path d="M 40.699053835054016, 103.96582547189847 Q 41.331575149158105, 103.48895367470132, 42.21281612615418, 102.59957486733215 " fill="none" id="curve_53" stroke="#000000" stroke-linecap="round" stroke-linejoin="round" stroke-width="3.1245120261725097"/>
  <path d="M 40.72367932327095, 103.7703650474681 Q 42.273104308821665, 101.10816054452138, 43.822000017815974, 91.22143964904586 " fill="none" id="curve_69" stroke="#000000" stroke-linecap="round" stroke-linejoin="round" stroke-width="2.7546950025975523"/>
  <path d="M 39.15038609664049, 108.19854300904636 Q 39.42117885267694, 106.60979888853166, 40.27358533202438, 105.08694443522558 " fill="none" id="curve_110" stroke="#000000" stroke-linecap="round" stroke-linejoin="round" stroke-width="2.980415170435429"/>
  <path d="M 41.27884124574644, 103.94016245541602 Q 42.36622475305195, 101.46321635751451, 43.659935814899974, 92.22441838659401 " fill="none" id="curve_119" stroke="#000000" stroke-linecap="round" stroke-linejoin="round" stroke-width="2.5737243270058032"/>
  <path d="M 41.34012365363347, 103.65810636589114 Q 42.45325242343121, 101.05683188904791, 43.74533139136536, 91.1800407217992 " fill="none" id="curve_130" stroke="#000000" stroke-linecap="round" stroke-linejoin="round" stroke-width="2.648041491750475"/>
  <path d="M 40.812101755936595, 100.87458027029825 Q 41.362626223016235, 102.32317475595002, 42.06573069300655, 105.37574306297338 " fill="none" id="curve_148" stroke="#000000" stroke-linecap="round" stroke-linejoin="round" stroke-width="2.941684278134464"/>
</svg>
