<?xml version="1.0" ?>
<svg height="140" width="140" xmlns="http://www.w3.org/2000/svg">
  <path d="M 41.299458503723145, 124.65129566192627 Q 39.98873539148126, 126.117324359074, 38.8400373347813, 128.99254196791662 " fill="none" id="curve_1" stroke="#000000" stroke-linecap="round" stroke-linejoin="round" stroke-width="6.66637942291367"/>
  <path d="M 38.8400373347813, 128.99254196791662 Q 41.24772294429126, 128.46052261845685, 42.65703302605099, 126.49799721605606 " fill="none" id="curve_1" stroke="#000000" stroke-linecap="round" stroke-linejoin="round" stroke-width="6.697484662286816"/>
  <path d="M 42.65703302605099, 126.49799721605606 Q 45.73299162235203, 113.44685106843386, 56.65080578548318, 98.75191500896082 " fill="none" id="curve_1" stroke="#000000" stroke-linecap="round" stroke-linejoin="round" stroke-width="7.547863232583305"/>
  <path d="M 56.65080578548318, 98.75191500896082 Q 63.76379462653137, 90.66765937858027, 77.145854320137, 62.571813857403875 " fill="none" id="curve_1" stroke="#000000" stroke-linecap="round" stroke-linejoin="round" stroke-width="5.986377457898663"/>
  <path d="M 77.145854320137, 62.571813857403875 Q 77.75322438966519, 60.73933807010237, 77.92948389131844, 49.973134566588335 " fill="none" id="curve_1" stroke="#000000" stroke-linecap="round" stroke-linejoin="round" stroke-width="6.052052871045082"/>
  <path d="M 77.92948389131844, 49.973134566588335 Q 76.65956840892305, 47.38204336692401, 63.09002571194791, 46.79852919635126 " fill="none" id="curve_1" stroke="#000000" stroke-linecap="round" stroke-linejoin="round" stroke-width="6.557735717360584"/>
  <path d="M 63.09002571194791, 46.79852919635126 Q 54.889301058286684, 48.093168272922725, 26.35266732530124, 49.355597573199006 " fill="none" id="curve_1" stroke="#000000" stroke-linecap="round" stroke-linejoin="round" stroke-width="6.901971994011791"/>
  <path d="M 26.35266732530124, 49.355597573199006 Q 18.954472798625172, 49.162226554867594, 16.401218482478598, 48.28844113358863 " fill="none" id="curve_1" stroke="#000000" stroke-linecap="round" stroke-linejoin="round" stroke-width="9.537129315515003"/>
  <path d="M 59.42521772903033, 99.73373178086867 Q 65.32224068707448, 96.83415439415056, 89.01971361670202, 95.51994469588026 " fill="none" id="curve_2" stroke="#000000" stroke-linecap="round" stroke-linejoin="round" stroke-width="6.284449152592158"/>
  <path d="M 51.98635855275334, 99.42612560393752 Q 50.173669096889526, 99.65028362543268, 49.51847595973087, 100.81737773435701 " fill="none" id="curve_3" stroke="#000000" stroke-linecap="round" stroke-linejoin="round" stroke-width="7.801456181798956"/>
  <path d="M 39.897637190247515, 123.23903603362436 Q 42.58856975427093, 120.40559896134387, 45.73939001642247, 115.99059009941263 " fill="none" id="curve_4" stroke="#000000" stroke-linecap="round" stroke-linejoin="round" stroke-width="3.7555779854578515"/>
  <path d="M 29.836672962153138, 47.307272602159216 Q 26.929207249567412, 46.30939693050188, 15.536887858981911, 45.54166969185256 " fill="none" id="curve_8" stroke="#000000" stroke-linecap="round" stroke-linejoin="round" stroke-width="3.5167005677486536"/>
  <path d="M 15.536887858981911, 45.54166969185256 Q 15.472679454610397, 45.653528585570484, 15.424770033582856, 46.008819474399694 " fill="none" id="curve_8" stroke="#000000" stroke-linecap="round" stroke-linejoin="round" stroke-width="4.446251205922747"/>
  <path d="M 60.70685424490904, 96.71902222116545 Q 69.25753227671191, 95.67675840982454, 88.09122757732324, 94.58247361439582 " fill="none" id="curve_10" stroke="#000000" stroke-linecap="round" stroke-linejoin="round" stroke-width="3.2797522327626707"/>
  <path d="M 66.28569014978459, 80.99366065038198 Q 69.04263126194985, 74.66907258272009, 75.33407243438438, 64.66707343425094 " fill="none" id="curve_11" stroke="#000000" stroke-linecap="round" stroke-linejoin="round" stroke-width="3.111574896735671"/>
  <path d="M 75.33407243438438, 64.66707343425094 Q 76.37418117325325, 57.071366941980436, 80.53121744348397, 53.202002973608344 " fill="none" id="curve_11" stroke="#000000" stroke-linecap="round" stroke-linejoin="round" stroke-width="3.398929563673916"/>
  <path d="M 80.53121744348397, 53.202002973608344 Q 74.75582467135807, 50.31648672916476, 66.89793859596548, 45.03081863042809 " fill="none" id="curve_11" stroke="#000000" stroke-linecap="round" stroke-linejoin="round" stroke-width="3.3446926617366524"/>
  <path d="M 66.89793859596548, 45.03081863042809 Q 69.66770898473112, 45.787363352100655, 73.1424728968645, 48.413203162395256 " fill="none" id="curve_11" stroke="#000000" stroke-linecap="round" stroke-linejoin="round" stroke-width="4.625355739089222"/>
  <path d="M 84.23747203696792, 97.11200344292051 Q 86.2347520559218, 96.6273242775559, 88.31198222740531, 95.41777837692581 " fill="none" id="curve_15" stroke="#000000" stroke-linecap="round" stroke-linejoin="round" stroke-width="4.401605583790675"/>
  <path d="M 72.2115984760717, 72.54949483124484 Q 67.06501974714865, 76.833379124012, 63.191580040571615, 87.12621425415263 " fill="none" id="curve_18" stroke="#000000" stroke-linecap="round" stroke-linejoin="round" stroke-width="3.727705063598526"/>
  <path d="M 66.0664403352689, 98.4312909755476 Q 71.09012140698118, 98.04126745260078, 77.11673722209969, 97.10163623225998 " fill="none" id="curve_19" stroke="#000000" stroke-linecap="round" stroke-linejoin="round" stroke-width="4.320612295612979"/>
  <path d="M 76.56446915447218, 51.56723427188911 Q 75.7766271663802, 68.29096913000888, 69.17304777445533, 75.03544683328202 " fill="none" id="curve_22" stroke="#000000" stroke-linecap="round" stroke-linejoin="round" stroke-width="2.500278913504323"/>
  <path d="M 73.67099701606716, 52.42425380361006 Q 73.22385729124217, 48.036441662632264, 67.99924934390987, 46.768162980672294 " fill="none" id="curve_24" stroke="#000000" stroke-linecap="round" stroke-linejoin="round" stroke-width="4.490072037465121"/>
  <path d="M 67.99924934390987, 46.768162980672294 Q 70.51772475586012, 46.50542417199244, 73.78022413120951, 46.034468692584674 " fill="none" id="curve_24" stroke="#000000" stroke-linecap="round" stroke-linejoin="round" stroke-width="4.47567813684277"/>
  <path d="M 85.74905995846885, 97.0381046511846 Q 88.58250754624146, 96.52952710596725, 89.20319761172946, 92.5067797747011 " fill="none" id="curve_26" stroke="#000000" stroke-linecap="round" stroke-linejoin="round" stroke-width="3.1638792786862644"/>
  <path d="M 67.45779896065557, 46.59342723498017 Q 66.94994107971469, 45.76498382811145, 46.64793355398103, 45.69211691311844 " fill="none" id="curve_31" stroke="#000000" stroke-linecap="round" stroke-linejoin="round" stroke-width="2.6862300102744663"/>
  <path d="M 67.3569538372615, 47.95553362733986 Q 66.80762805213028, 46.873795936351456, 63.71704460771906, 46.27836492798956 " fill="none" id="curve_32" stroke="#000000" stroke-linecap="round" stroke-linejoin="round" stroke-width="4.042231960875632"/>
  <path d="M 63.71704460771906, 46.27836492798956 Q 63.39704137996954, 45.27999962706107, 59.54799514852859, 45.019460014562554 " fill="none" id="curve_32" stroke="#000000" stroke-linecap="round" stroke-linejoin="round" stroke-width="3.823270771111115"/>
  <path d="M 43.914858834358895, 115.47497914452326 Q 42.65706913536069, 119.30419700944671, 39.45741275057194, 121.79132173480355 " fill="none" id="curve_34" stroke="#000000" stroke-linecap="round" stroke-linejoin="round" stroke-width="4.425160785823827"/>
  <path d="M 16.443488506828388, 45.01352890619706 Q 15.49463070624087, 45.65741912743191, 14.432990792623679, 47.0406037671555 " fill="none" id="curve_40" stroke="#000000" stroke-linecap="round" stroke-linejoin="round" stroke-width="3.677729149554862"/>
  <path d="M 69.18752500800755, 93.29205041448378 Q 71.34664366168066, 96.6449419403655, 85.57654341660823, 97.83844020431837 " fill="none" id="curve_42" stroke="#000000" stroke-linecap="round" stroke-linejoin="round" stroke-width="2.451687320599777"/>
  <path d="M 53.742602020559744, 108.43087675753512 Q 48.73652319393056, 111.40193946226425, 42.20320958756325, 117.0355497477486 " fill="none" id="curve_43" stroke="#000000" stroke-linecap="round" stroke-linejoin="round" stroke-width="3.0636740230775623"/>
  <path d="M 89.14132878033405, 96.89237024220489 Q 88.4627777381665, 97.02450754129897, 87.39650279528159, 97.18540356802255 " fill="none" id="curve_46" stroke="#000000" stroke-linecap="round" stroke-linejoin="round" stroke-width="3.312924830256558"/>
  <path d="M 79.10957850903932, 98.40141322659261 Q 81.50693970653289, 98.18167740762405, 82.82106582999548, 97.20103727905263 " fill="none" id="curve_50" stroke="#000000" stroke-linecap="round" stroke-linejoin="round" stroke-width="3.603575503971809"/>
  <path d="M 45.18770320781187, 124.4807283106232 Q 45.936049282073, 124.40699368262649, 46.22115361713118, 123.92321300987717 " fill="none" id="curve_52" stroke="#000000" stroke-linecap="round" stroke-linejoin="round" stroke-width="4.116254509890111"/>
  <path d="M 44.69267880811887, 45.141992691343006 Q 44.2056668178638, 45.22826848145429, 43.74848537320982, 45.45546315267201 " fill="none" id="curve_57" stroke="#000000" stroke-linecap="round" stroke-linejoin="round" stroke-width="3.2757756691598594"/>
  <path d="M 70.13595210227524, 49.49995629268639 Q 71.63929136828702, 49.746597105688735, 74.98190039029582, 50.12965919158009 " fill="none" id="curve_58" stroke="#000000" stroke-linecap="round" stroke-linejoin="round" stroke-width="2.65207874639319"/>
  <path d="M 29.267966606833607, 51.316219308699615 Q 31.799962394813893, 51.33739333186132, 34.52203253955292, 51.37257525300331 " fill="none" id="curve_61" stroke="#000000" stroke-linecap="round" stroke-linejoin="round" stroke-width="1.9688707753947003"/>
  <path d="M 14.539465211570903, 49.82794560817042 Q 13.878511724457075, 48.78303887360639, 13.407916571101426, 46.194095673219735 " fill="none" id="curve_62" stroke="#000000" stroke-linecap="round" stroke-linejoin="round" stroke-width="2.887610904417691"/>
  <path d="M 33.794823895809216, 47.00924620682694 Q 31.34148410837045, 46.71158240827698, 25.788255365789116, 46.26891107883178 " fill="none" id="curve_69" stroke="#000000" stroke-linecap="round" stroke-linejoin="round" stroke-width="2.43168507675845"/>
  <path d="M 62.31490763266322, 48.07800940161073 Q 63.297260066497635, 46.34025491684379, 70.59385573417337, 45.58437848525372 " fill="none" id="curve_70" stroke="#000000" stroke-linecap="round" stroke-linejoin="round" stroke-width="3.2367504917417174"/>
  <path d="M 89.91315937899765, 1.0680365558979648 Q 89.65126612366839, 1.5117113857211462, 89.09098468059705, 2.109752833262296 " fill="none" id="curve_72" stroke="#000000" stroke-linecap="round" stroke-linejoin="round" stroke-width="1.967001173591089"/>
  <path d="M 75.00090582932658, 57.29179408430848 Q 73.90996720470665, 66.12924753550962, 69.87722525284701, 72.29708203329552 " fill="none" id="curve_74" stroke="#000000" stroke-linecap="round" stroke-linejoin="round" stroke-width="2.889496238646788"/>
  <path d="M 47.39714656306046, 103.37543364774794 Q 48.879698005425574, 103.49507071676332, 50.02454181273092, 103.90373320179343 " fill="none" id="curve_75" stroke="#000000" stroke-linecap="round" stroke-linejoin="round" stroke-width="4.106837977438316"/>
  <path d="M 59.330894232403494, 89.1792010321387 Q 60.33902425457713, 89.15965362359455, 61.61209514437752, 89.12115657506752 " fill="none" id="curve_82" stroke="#000000" stroke-linecap="round" stroke-linejoin="round" stroke-width="2.5383353489257123"/>
  <path d="M 59.991291976213255, 97.96300459820844 Q 58.73165071504534, 97.40316027399817, 51.137448871871186, 97.09613892324064 " fill="none" id="curve_128" stroke="#000000" stroke-linecap="round" stroke-linejoin="round" stroke-width="2.5589725380566772"/>
  <path d="M 65.27297728884923, 81.80416982125072 Q 65.57437701021814, 80.41966243962966, 66.35985644820482, 78.84151030577968 " fill="none" id="curve_178" stroke="#000000" stroke-linecap="round" stroke-linejoin="round" stroke-width="3.095157647763852"/>
  <path d="M 71.39526471721263, 99.34579041984102 Q 71.75208346014433, 99.20130596740826, 72.20046643013053, 98.90183095543071 " fill="none" id="curve_193" stroke="#000000" stroke-linecap="round" stroke-linejoin="round" stroke-width="2.246567954982376"/>
</svg>
