<?xml version="1.0" ?>
<svg height="140" width="140" xmlns="http://www.w3.org/2000/svg">
  <path d="M 63.131286031956975, 73.93819074704614 Q 60.600324796623475, 75.11268232485497, 49.15040512406383, 75.52947906673705 " fill="none" id="curve_2" stroke="#000000" stroke-linecap="round" stroke-linejoin="round" stroke-width="7.3318037489773005"/>
  <path d="M 49.15040512406383, 75.52947906673705 Q 48.5217854046037, 82.36358771278516, 47.78250170980208, 100.80231947826607 " fill="none" id="curve_2" stroke="#000000" stroke-linecap="round" stroke-linejoin="round" stroke-width="4.206926359410708"/>
  <path d="M 40.91226170459747, 76.29712804155825 Q 46.26968774278167, 75.82346549966861, 49.68661413195308, 74.21723951269816 " fill="none" id="curve_3" stroke="#000000" stroke-linecap="round" stroke-linejoin="round" stroke-width="5.544231435911101"/>
  <path d="M 49.68661413195308, 74.21723951269816 Q 53.720110177714, 68.41055911956875, 58.483117827410986, 40.20906955254323 " fill="none" id="curve_3" stroke="#000000" stroke-linecap="round" stroke-linejoin="round" stroke-width="5.55604191909507"/>
  <path d="M 58.483117827410986, 40.20906955254323 Q 59.270111760163495, 38.25321467903026, 60.06472193733012, 35.56793151524293 " fill="none" id="curve_3" stroke="#000000" stroke-linecap="round" stroke-linejoin="round" stroke-width="4.579652190702222"/>
  <path d="M 60.06472193733012, 35.56793151524293 Q 56.092732404689905, 35.85471301530295, 33.2049418658652, 35.94095189573363 " fill="none" id="curve_3" stroke="#000000" stroke-linecap="round" stroke-linejoin="round" stroke-width="5.303747606608462"/>
  <path d="M 33.2049418658652, 35.94095189573363 Q 21.849637330149754, 35.213561006639985, 4.831510556728777, 34.458801440221215 " fill="none" id="curve_3" stroke="#000000" stroke-linecap="round" stroke-linejoin="round" stroke-width="5.1400025558642515"/>
  <path d="M 4.831510556728777, 34.458801440221215 Q 4.740563880744825, 33.11757018343359, 4.60201331593, 31.976034462504938 " fill="none" id="curve_3" stroke="#000000" stroke-linecap="round" stroke-linejoin="round" stroke-width="4.409975560649378"/>
  <path d="M 39.88580631818421, 74.49284602353342 Q 44.41294020181829, 74.4474591361461, 49.30807413784331, 74.3245915031015 " fill="none" id="curve_4" stroke="#000000" stroke-linecap="round" stroke-linejoin="round" stroke-width="3.9413198463800803"/>
  <path d="M 47.28620999684168, 101.17745215613084 Q 47.47322963928572, 97.34714611713774, 47.64002751188152, 87.90889080077588 " fill="none" id="curve_5" stroke="#000000" stroke-linecap="round" stroke-linejoin="round" stroke-width="3.3504965698657014"/>
  <path d="M 39.85782542828555, 34.11926706783592 Q 36.141155492202586, 33.96240623957044, 18.664260029255868, 33.8477838501856 " fill="none" id="curve_7" stroke="#000000" stroke-linecap="round" stroke-linejoin="round" stroke-width="2.550631169954645"/>
  <path d="M 8.60935700372266, 37.5838470023927 Q 9.340211725205306, 36.66120865267995, 10.312148919577874, 35.427170512093916 " fill="none" id="curve_8" stroke="#000000" stroke-linecap="round" stroke-linejoin="round" stroke-width="2.811431755231523"/>
  <path d="M 61.32297062557571, 33.385234672131105 Q 59.53471788426858, 33.48058045693806, 57.73393974260726, 33.64945621048014 " fill="none" id="curve_10" stroke="#000000" stroke-linecap="round" stroke-linejoin="round" stroke-width="3.313078468207181"/>
  <path d="M 51.33395581430538, 65.44226329727616 Q 50.39998937587841, 66.19931004418261, 49.947458369720664, 69.46716181472404 " fill="none" id="curve_11" stroke="#000000" stroke-linecap="round" stroke-linejoin="round" stroke-width="3.4004731819359337"/>
  <path d="M 49.638004302978516, 85.50864028930664 Q 50.616449703608794, 84.07968603048708, 51.57565055290084, 81.39862941773845 " fill="none" id="curve_25" stroke="#000000" stroke-linecap="round" stroke-linejoin="round" stroke-width="2.996457778061973"/>
  <path d="M 58.00518218170275, 52.0133061627971 Q 58.335507805362255, 47.46011436659407, 59.4524006357958, 45.13822349748875 " fill="none" id="curve_26" stroke="#000000" stroke-linecap="round" stroke-linejoin="round" stroke-width="3.08348705154718"/>
  <path d="M 48.5604790708139, 100.89632619475559 Q 48.127983475319056, 99.24114395825926, 47.277426875427366, 97.27131634374516 " fill="none" id="curve_28" stroke="#000000" stroke-linecap="round" stroke-linejoin="round" stroke-width="3.3251072404446784"/>
  <path d="M 40.710493293714265, 75.0961252948965 Q 39.61731146907906, 74.83584708644068, 38.16573005970274, 74.4488990270017 " fill="none" id="curve_31" stroke="#000000" stroke-linecap="round" stroke-linejoin="round" stroke-width="3.123425303327341"/>
  <path d="M 54.44679883698976, 38.54082470014752 Q 56.260811377282764, 39.0355287215523, 57.7782158551292, 40.42350428173503 " fill="none" id="curve_39" stroke="#000000" stroke-linecap="round" stroke-linejoin="round" stroke-width="3.4074000915034426"/>
  <path d="M 44.76079319514355, 35.08967647690459 Q 44.62454428230574, 34.24991991595258, 43.96269802838384, 33.915309799262126 " fill="none" id="curve_54" stroke="#000000" stroke-linecap="round" stroke-linejoin="round" stroke-width="2.872621998038986"/>
  <path d="M 50.36832539009189, 86.84356034600016 Q 49.63864297766813, 89.56302582346304, 47.14277415192381, 91.14748319036616 " fill="none" id="curve_56" stroke="#000000" stroke-linecap="round" stroke-linejoin="round" stroke-width="3.3545886690877578"/>
  <path d="M 48.31278433001772, 99.9007689289485 Q 47.79257802012321, 98.29416300918732, 47.14048407439671, 95.83016292122406 " fill="none" id="curve_137" stroke="#000000" stroke-linecap="round" stroke-linejoin="round" stroke-width="3.8976914145170944"/>
</svg>
