<?xml version="1.0" ?>
<svg height="140" width="140" xmlns="http://www.w3.org/2000/svg">
  <path d="M 65.04726600646973, 43.86679458618164 Q 63.8538010497846, 38.14372840884628, 59.63901820920171, 32.54078377372184 " fill="none" id="curve_1" stroke="#000000" stroke-linecap="round" stroke-linejoin="round" stroke-width="5.151869950915521"/>
  <path d="M 59.63901820920171, 32.54078377372184 Q 52.450635487052864, 33.50112978120108, 37.929398830752206, 35.04441113541582 " fill="none" id="curve_1" stroke="#000000" stroke-linecap="round" stroke-linejoin="round" stroke-width="6.2621442784567245"/>
  <path d="M 37.929398830752206, 35.04441113541582 Q 30.139365940921238, 36.30858038538681, 19.887668065119843, 37.52701712077311 " fill="none" id="curve_1" stroke="#000000" stroke-linecap="round" stroke-linejoin="round" stroke-width="5.351111691179737"/>
  <path d="M 57.95259608087815, 62.489698150326085 Q 61.54548137080575, 61.604673575604174, 62.27820950238135, 44.807174311890265 " fill="none" id="curve_2" stroke="#000000" stroke-linecap="round" stroke-linejoin="round" stroke-width="7.0141627109767635"/>
  <path d="M 59.819843979671, 63.78726952177238 Q 58.00323270516373, 67.33112533229016, 57.417522020182076, 80.10777512498765 " fill="none" id="curve_3" stroke="#000000" stroke-linecap="round" stroke-linejoin="round" stroke-width="6.979798918553478"/>
  <path d="M 41.83491728964458, 80.70133412352273 Q 38.01449594348126, 82.02506791630906, 31.21564112746099, 83.1552953793817 " fill="none" id="curve_4" stroke="#000000" stroke-linecap="round" stroke-linejoin="round" stroke-width="5.112249620539485"/>
  <path d="M 31.21564112746099, 83.1552953793817 Q 39.703357329481584, 81.0233040149405, 57.688824864885966, 79.61999282664286 " fill="none" id="curve_4" stroke="#000000" stroke-linecap="round" stroke-linejoin="round" stroke-width="4.977292472528934"/>
  <path d="M 57.688824864885966, 79.61999282664286 Q 54.76614651740897, 91.88692709436492, 51.28832577600455, 118.89512770375072 " fill="none" id="curve_4" stroke="#000000" stroke-linecap="round" stroke-linejoin="round" stroke-width="6.178782576431287"/>
  <path d="M 51.28832577600455, 118.89512770375072 Q 51.433035202772416, 111.90983073904674, 51.58468078784842, 96.81143155766523 " fill="none" id="curve_4" stroke="#000000" stroke-linecap="round" stroke-linejoin="round" stroke-width="3.7029829118400355"/>
  <path d="M 51.58468078784842, 96.81143155766523 Q 54.73264803517392, 94.3181403221153, 55.96022713699715, 84.57524261978348 " fill="none" id="curve_4" stroke="#000000" stroke-linecap="round" stroke-linejoin="round" stroke-width="5.781237478040669"/>
  <path d="M 89.16726455359392, 3.532772430195955 Q 88.82234523444156, 2.618876740671851, 88.1736515188056, 1.6270741269446511 " fill="none" id="curve_6" stroke="#000000" stroke-linecap="round" stroke-linejoin="round" stroke-width="3.2714766649963556"/>
  <path d="M 60.27467899613214, 37.50695286581004 Q 61.794862812653164, 38.83662233791624, 62.51054502551678, 44.1105364998304 " fill="none" id="curve_7" stroke="#000000" stroke-linecap="round" stroke-linejoin="round" stroke-width="4.794369643375594"/>
  <path d="M 49.66122972863067, 32.08076637925455 Q 58.3761739021144, 33.95815101743137, 62.710247970033834, 38.34504122397155 " fill="none" id="curve_8" stroke="#000000" stroke-linecap="round" stroke-linejoin="round" stroke-width="3.170797261002148"/>
  <path d="M 62.710247970033834, 38.34504122397155 Q 58.10805499521007, 35.560503539930906, 50.41182175502192, 32.3956217448057 " fill="none" id="curve_8" stroke="#000000" stroke-linecap="round" stroke-linejoin="round" stroke-width="3.5187051288725444"/>
  <path d="M 53.719506443391694, 78.57054186058623 Q 54.90070410167997, 86.00772568377594, 56.2371408792426, 94.49503856907593 " fill="none" id="curve_10" stroke="#000000" stroke-linecap="round" stroke-linejoin="round" stroke-width="3.94040064404169"/>
  <path d="M 62.44225221485022, 58.638871548780415 Q 61.00593415034396, 59.8109939171965, 58.508664746786756, 61.42042343423934 " fill="none" id="curve_12" stroke="#000000" stroke-linecap="round" stroke-linejoin="round" stroke-width="4.160806884717863"/>
  <path d="M 52.75577354431152, 105.4039535522461 Q 52.845401625485884, 112.92323654743352, 53.41885824968581, 115.3274670032531 " fill="none" id="curve_26" stroke="#000000" stroke-linecap="round" stroke-linejoin="round" stroke-width="3.6452705198452904"/>
  <path d="M 55.73066428901612, 93.48103989142909 Q 56.10073683819962, 88.25267307603063, 56.7943534421965, 82.96018423625647 " fill="none" id="curve_27" stroke="#000000" stroke-linecap="round" stroke-linejoin="round" stroke-width="5.025475164463191"/>
  <path d="M 34.099162747305954, 34.628798489526645 Q 29.716774183985557, 34.89629434365558, 25.11706249573065, 35.74480214597136 " fill="none" id="curve_30" stroke="#000000" stroke-linecap="round" stroke-linejoin="round" stroke-width="2.9125760922660966"/>
  <path d="M 53.95795714644159, 91.82315818226313 Q 53.967908417833314, 90.14545438938258, 53.9821035058571, 87.94639385794245 " fill="none" id="curve_32" stroke="#000000" stroke-linecap="round" stroke-linejoin="round" stroke-width="5.213411215702306"/>
  <path d="M 63.2561267502692, 36.53611733344242 Q 61.86444508398804, 35.5760928334719, 59.06883238216567, 34.05313930831248 " fill="none" id="curve_61" stroke="#000000" stroke-linecap="round" stroke-linejoin="round" stroke-width="3.0150489497262827"/>
  <path d="M 87.93657178119662, 1.3721625479142574 Q 87.80647610709761, 1.6774726575342427, 87.55635485924392, 2.207612590667898 " fill="none" id="curve_64" stroke="#000000" stroke-linecap="round" stroke-linejoin="round" stroke-width="2.84192620337918"/>
  <path d="M 52.99900537576775, 31.48402795739611 Q 52.310627209251265, 31.637774451071458, 50.62852623575022, 31.80861929956964 " fill="none" id="curve_79" stroke="#000000" stroke-linecap="round" stroke-linejoin="round" stroke-width="2.9207777501691705"/>
  <path d="M 49.21265463333839, 108.43459481152104 Q 49.678383518415146, 113.41024702426105, 51.71353032564937, 115.64929537932927 " fill="none" id="curve_94" stroke="#000000" stroke-linecap="round" stroke-linejoin="round" stroke-width="3.894731306025291"/>
  <path d="M 43.63414812780553, 34.755356643516805 Q 40.208867177833724, 34.50042547284397, 34.22009217107858, 33.92164541447032 " fill="none" id="curve_105" stroke="#000000" stroke-linecap="round" stroke-linejoin="round" stroke-width="2.8623934023664055"/>
  <path d="M 56.73286960641106, 92.85938450184395 Q 56.074516397454175, 91.93532247469614, 54.830991825188285, 90.58234482210662 " fill="none" id="curve_137" stroke="#000000" stroke-linecap="round" stroke-linejoin="round" stroke-width="2.7908271260343422"/>
  <path d="M 53.27701227967992, 116.85085881228456 Q 53.96950606605566, 112.4909932315062, 54.58511773734314, 101.12574122719568 " fill="none" id="curve_140" stroke="#000000" stroke-linecap="round" stroke-linejoin="round" stroke-width="2.055343556585882"/>
  <path d="M 62.15308437700381, 39.301396092513755 Q 62.766916957369936, 36.87796250322542, 64.0882174420209, 35.29206356214747 " fill="none" id="curve_155" stroke="#000000" stroke-linecap="round" stroke-linejoin="round" stroke-width="2.7564471086946214"/>
  <path d="M 61.69472436823855, 44.68145704481549 Q 61.470536536926986, 42.699342757587196, 60.57462802709242, 41.60744570828347 " fill="none" id="curve_170" stroke="#000000" stroke-linecap="round" stroke-linejoin="round" stroke-width="3.3850209423248563"/>
</svg>
