<?xml version="1.0" ?>
<svg height="140" width="140" xmlns="http://www.w3.org/2000/svg">
  <path d="M 40.83540344238281, 100.01072692871094 Q 38.708938506127005, 99.57118038826897, 38.48667913822018, 87.26068707960633 " fill="none" id="curve_1" stroke="#000000" stroke-linecap="round" stroke-linejoin="round" stroke-width="7.449733536199654"/>
  <path d="M 38.48667913822018, 87.26068707960633 Q 39.65051436414955, 83.49499443546559, 40.52892288983032, 74.68891976547671 " fill="none" id="curve_1" stroke="#000000" stroke-linecap="round" stroke-linejoin="round" stroke-width="5.420632886533579"/>
  <path d="M 40.52892288983032, 74.68891976547671 Q 41.65730880511126, 65.51561509821833, 43.67195140793633, 52.292047732782486 " fill="none" id="curve_1" stroke="#000000" stroke-linecap="round" stroke-linejoin="round" stroke-width="6.461163704748186"/>
  <path d="M 43.67195140793633, 52.292047732782486 Q 42.904965014579695, 48.531751314762296, 14.750240572239708, 48.15008648589247 " fill="none" id="curve_1" stroke="#000000" stroke-linecap="round" stroke-linejoin="round" stroke-width="5.492249785747656"/>
  <path d="M 24.92842385203292, 76.57781104362414 Q 50.730531743523265, 76.70535321472524, 58.00724168472937, 77.99081935088022 " fill="none" id="curve_2" stroke="#000000" stroke-linecap="round" stroke-linejoin="round" stroke-width="5.142204199414739"/>
  <path d="M 41.995723311736214, 101.6564354054878 Q 40.1506311174786, 100.34521854142723, 38.35409307845998, 98.20628542771733 " fill="none" id="curve_3" stroke="#000000" stroke-linecap="round" stroke-linejoin="round" stroke-width="4.178735419940764"/>
  <path d="M 28.574987939761314, 76.30030341248408 Q 28.928066889908738, 75.00281037842643, 50.40293461678202, 74.93042158439086 " fill="none" id="curve_4" stroke="#000000" stroke-linecap="round" stroke-linejoin="round" stroke-width="3.26861621045947"/>
  <path d="M 22.78364104275831, 50.15296929529818 Q 17.523370234874015, 50.02724894178623, 16.339246285277795, 48.733523034726744 " fill="none" id="curve_6" stroke="#000000" stroke-linecap="round" stroke-linejoin="round" stroke-width="3.4165843078041918"/>
  <path d="M 16.577287551531874, 46.505327435373886 Q 25.98840485016023, 47.34775983142598, 31.802203212155476, 49.55897762502991 " fill="none" id="curve_7" stroke="#000000" stroke-linecap="round" stroke-linejoin="round" stroke-width="3.0082479669000346"/>
  <path d="M 42.8074884700477, 48.34913306532914 Q 41.09045988498927, 48.62819408202922, 36.222795268975375, 48.840007639993615 " fill="none" id="curve_8" stroke="#000000" stroke-linecap="round" stroke-linejoin="round" stroke-width="3.1315259705498013"/>
  <path d="M 26.25719403119838, 76.28333867726516 Q 27.625037429852938, 76.44114691476435, 29.594311962071284, 76.67799478895955 " fill="none" id="curve_9" stroke="#000000" stroke-linecap="round" stroke-linejoin="round" stroke-width="3.8656396130073336"/>
  <path d="M 29.594311962071284, 76.67799478895955 Q 28.462410716004275, 76.70343605099917, 26.278403446901017, 76.7352719911843 " fill="none" id="curve_9" stroke="#000000" stroke-linecap="round" stroke-linejoin="round" stroke-width="3.4156320579351878"/>
  <path d="M 30.099559783935547, 77.06249332427979 Q 38.14111465527354, 77.63652926617813, 39.58431288577435, 83.1765158563703 " fill="none" id="curve_23" stroke="#000000" stroke-linecap="round" stroke-linejoin="round" stroke-width="2.80167918360613"/>
  <path d="M 58.57616770417553, 79.1665433980579 Q 58.59856410479223, 79.01347477978177, 58.62876176911333, 78.78164175956368 " fill="none" id="curve_24" stroke="#000000" stroke-linecap="round" stroke-linejoin="round" stroke-width="3.0594565953066613"/>
  <path d="M 22.020349503836435, 47.69420957877341 Q 23.74195575019337, 48.82766978153074, 31.80855540796211, 49.56204071850758 " fill="none" id="curve_42" stroke="#000000" stroke-linecap="round" stroke-linejoin="round" stroke-width="2.5728001688677784"/>
</svg>
