<?xml version="1.0" ?>
<svg height="140" width="140" xmlns="http://www.w3.org/2000/svg">
  <path d="M 46.42799186706543, 85.20132064819336 Q 47.861808442195326, 77.02076417780042, 52.28159452970141, 59.133254061379375 " fill="none" id="curve_1" stroke="#000000" stroke-linecap="round" stroke-linejoin="round" stroke-width="5.75602799273204"/>
  <path d="M 52.28159452970141, 59.133254061379375 Q 52.72069803421951, 56.28186268757371, 53.262102300917924, 52.43963961969534 " fill="none" id="curve_1" stroke="#000000" stroke-linecap="round" stroke-linejoin="round" stroke-width="4.496034569153005"/>
  <path d="M 53.262102300917924, 52.43963961969534 Q 45.94050837663103, 56.692478396425294, 20.412994283649958, 67.37524084429094 " fill="none" id="curve_1" stroke="#000000" stroke-linecap="round" stroke-linejoin="round" stroke-width="4.586205548869833"/>
  <path d="M 20.412994283649958, 67.37524084429094 Q 18.180366024403007, 68.48202125503606, 16.525165889310685, 70.41596692571223 " fill="none" id="curve_1" stroke="#000000" stroke-linecap="round" stroke-linejoin="round" stroke-width="5.966416612513735"/>
  <path d="M 32.70262366855991, 89.35149249067345 Q 43.46790391575186, 89.21809335794073, 49.38999874131289, 88.81044967858381 " fill="none" id="curve_2" stroke="#000000" stroke-linecap="round" stroke-linejoin="round" stroke-width="4.165668450033062"/>
  <path d="M 49.38999874131289, 88.81044967858381 Q 43.80441873911609, 95.30314440241, 33.581020991666335, 121.71040489616522 " fill="none" id="curve_2" stroke="#000000" stroke-linecap="round" stroke-linejoin="round" stroke-width="4.494553203896954"/>
  <path d="M 55.94085979646123, 89.82999459737242 Q 57.48729868576499, 89.70729237096015, 60.04159950029676, 89.49970409870339 " fill="none" id="curve_3" stroke="#000000" stroke-linecap="round" stroke-linejoin="round" stroke-width="3.6743729837998824"/>
  <path d="M 60.04159950029676, 89.49970409870339 Q 48.106391248303474, 89.49581832209722, 45.951548168415044, 89.41228138891921 " fill="none" id="curve_3" stroke="#000000" stroke-linecap="round" stroke-linejoin="round" stroke-width="2.954713805708902"/>
  <path d="M 45.951548168415044, 89.41228138891921 Q 46.705820534024475, 78.82619778825021, 49.33087225786344, 72.95861899015766 " fill="none" id="curve_3" stroke="#000000" stroke-linecap="round" stroke-linejoin="round" stroke-width="4.160684496165697"/>
  <path d="M 49.33087225786344, 72.95861899015766 Q 46.38637126487671, 83.57310163864824, 42.30606625966017, 97.4986343498618 " fill="none" id="curve_3" stroke="#000000" stroke-linecap="round" stroke-linejoin="round" stroke-width="3.5540136818615795"/>
  <path d="M 33.181395859059805, 123.15035106224026 Q 33.36931059366874, 122.73124716308618, 33.53378460547457, 122.02955702780058 " fill="none" id="curve_4" stroke="#000000" stroke-linecap="round" stroke-linejoin="round" stroke-width="4.815379470270714"/>
  <path d="M 41.4561561000302, 107.12659471340012 Q 40.22107815032655, 110.2105042592922, 38.30648357619272, 113.03550156882501 " fill="none" id="curve_5" stroke="#000000" stroke-linecap="round" stroke-linejoin="round" stroke-width="3.5773737235207315"/>
  <path d="M 30.426710950121166, 89.80794529433865 Q 30.8286721253912, 88.84018756387687, 31.639195519158665, 87.96105372777065 " fill="none" id="curve_6" stroke="#000000" stroke-linecap="round" stroke-linejoin="round" stroke-width="2.587564765697207"/>
  <path d="M 49.629991176108646, 67.67425765740511 Q 48.340375515218476, 77.97328286029992, 45.859712552086826, 87.28290517110253 " fill="none" id="curve_7" stroke="#000000" stroke-linecap="round" stroke-linejoin="round" stroke-width="2.9756842838390005"/>
  <path d="M 45.859712552086826, 87.28290517110253 Q 48.26993670001624, 83.20114028741187, 49.494803288844025, 66.91582956376936 " fill="none" id="curve_7" stroke="#000000" stroke-linecap="round" stroke-linejoin="round" stroke-width="3.2067133379282344"/>
  <path d="M 44.67868777874965, 56.07021852748529 Q 41.69684111957528, 56.67165768158391, 38.72483166411206, 57.99936936902482 " fill="none" id="curve_9" stroke="#000000" stroke-linecap="round" stroke-linejoin="round" stroke-width="3.067680773581821"/>
  <path d="M 56.38191996565279, 89.95425872452162 Q 53.33264192127058, 89.00439413911415, 45.752214556590474, 87.9320450313372 " fill="none" id="curve_10" stroke="#000000" stroke-linecap="round" stroke-linejoin="round" stroke-width="3.0522536516881047"/>
  <path d="M 49.83458396251492, 71.09054389764651 Q 47.54406760673234, 78.47807836733266, 44.47274834649841, 89.84634335095838 " fill="none" id="curve_11" stroke="#000000" stroke-linecap="round" stroke-linejoin="round" stroke-width="2.6737347803455833"/>
  <path d="M 49.384324337501646, 72.233897834858 Q 48.48231314878991, 76.19422543195668, 46.73199961596537, 82.01088513000396 " fill="none" id="curve_14" stroke="#000000" stroke-linecap="round" stroke-linejoin="round" stroke-width="2.6072197355774223"/>
  <path d="M 49.196114543436735, 72.38891139792767 Q 48.44947912792784, 75.94572959219632, 47.155604001502574, 83.27196784113637 " fill="none" id="curve_19" stroke="#000000" stroke-linecap="round" stroke-linejoin="round" stroke-width="2.569666817900009"/>
  <path d="M 41.66324022060098, 99.2161199902348 Q 40.70849477684756, 103.78779476047711, 38.78225897023932, 109.60846432598942 " fill="none" id="curve_47" stroke="#000000" stroke-linecap="round" stroke-linejoin="round" stroke-width="2.6798910118598496"/>
  <path d="M 58.24319141592683, 88.61082193754845 Q 52.21904423266289, 88.50458450659524, 45.50963853221946, 88.08838522810022 " fill="none" id="curve_88" stroke="#000000" stroke-linecap="round" stroke-linejoin="round" stroke-width="1.7334741101655315"/>
  <path d="M 41.44724749466235, 101.72094542853115 Q 41.065838596626996, 102.57431552216035, 40.5003396910366, 103.92841401754806 " fill="none" id="curve_117" stroke="#000000" stroke-linecap="round" stroke-linejoin="round" stroke-width="3.7519511895991253"/>
  <path d="M 17.699492196852496, 68.2836895808744 Q 22.013390974485954, 66.17538883958807, 29.21850844064597, 63.49080621542662 " fill="none" id="curve_119" stroke="#000000" stroke-linecap="round" stroke-linejoin="round" stroke-width="2.4321168146690035"/>
</svg>
