<?xml version="1.0" ?>
<svg height="140" width="140" xmlns="http://www.w3.org/2000/svg">
  <path d="M 85.10411957142148, 48.24403085650438 Q 81.9628910953953, 54.58625142762579, 73.46597362791394, 67.7463884350271 " fill="none" id="curve_2" stroke="#000000" stroke-linecap="round" stroke-linejoin="round" stroke-width="4.867107259823598"/>
  <path d="M 73.46597362791394, 67.7463884350271 Q 69.7062324207415, 77.77833349720588, 62.756516494512894, 88.94677632275798 " fill="none" id="curve_2" stroke="#000000" stroke-linecap="round" stroke-linejoin="round" stroke-width="5.093583018282007"/>
  <path d="M 62.756516494512894, 88.94677632275798 Q 61.98284750671707, 95.57275094112153, 57.3724531124668, 107.11616351950433 " fill="none" id="curve_2" stroke="#000000" stroke-linecap="round" stroke-linejoin="round" stroke-width="3.3492001756408363"/>
  <path d="M 57.3724531124668, 107.11616351950433 Q 51.044335515208786, 115.8217941493745, 43.15193723495167, 138.19700611023723 " fill="none" id="curve_2" stroke="#000000" stroke-linecap="round" stroke-linejoin="round" stroke-width="5.025597690923646"/>
  <path d="M 43.15193723495167, 138.19700611023723 Q 44.95436698419523, 137.70547968792903, 46.25970033718692, 136.4921067102542 " fill="none" id="curve_2" stroke="#000000" stroke-linecap="round" stroke-linejoin="round" stroke-width="3.846876496984388"/>
  <path d="M 45.03030119052944, 93.1111705012157 Q 50.90188976331073, 90.56851902556379, 65.58752471564989, 88.90217068229632 " fill="none" id="curve_3" stroke="#000000" stroke-linecap="round" stroke-linejoin="round" stroke-width="4.102336976201657"/>
  <path d="M 65.58752471564989, 88.90217068229632 Q 73.59085300483657, 90.08772544333243, 78.61745933156966, 92.11354913596509 " fill="none" id="curve_3" stroke="#000000" stroke-linecap="round" stroke-linejoin="round" stroke-width="3.9798326444137997"/>
  <path d="M 59.419410275179494, 96.3929482467651 Q 57.03612466425728, 109.68109933261998, 46.47104737322195, 123.69071273067095 " fill="none" id="curve_4" stroke="#000000" stroke-linecap="round" stroke-linejoin="round" stroke-width="3.0182379085126896"/>
  <path d="M 46.47104737322195, 123.69071273067095 Q 51.51594562772577, 117.69018384348523, 57.97035878331056, 108.68342327547518 " fill="none" id="curve_4" stroke="#000000" stroke-linecap="round" stroke-linejoin="round" stroke-width="3.3477084578085057"/>
  <path d="M 57.97035878331056, 108.68342327547518 Q 58.88421132250561, 99.34434570452507, 61.680613975035946, 92.43128907713296 " fill="none" id="curve_4" stroke="#000000" stroke-linecap="round" stroke-linejoin="round" stroke-width="3.1220114897565105"/>
  <path d="M 61.680613975035946, 92.43128907713296 Q 59.11836907834615, 102.08357671234212, 51.78468055407961, 113.78238727647728 " fill="none" id="curve_4" stroke="#000000" stroke-linecap="round" stroke-linejoin="round" stroke-width="2.5041572015626787"/>
  <path d="M 83.6949654722005, 47.81455875859016 Q 78.08681180485463, 47.20185623238789, 59.91788977440072, 46.09180801905492 " fill="none" id="curve_8" stroke="#000000" stroke-linecap="round" stroke-linejoin="round" stroke-width="4.5103417295870525"/>
  <path d="M 59.91788977440072, 46.09180801905492 Q 46.31151484643597, 45.94290938156594, 38.831619787686584, 45.00747157402404 " fill="none" id="curve_8" stroke="#000000" stroke-linecap="round" stroke-linejoin="round" stroke-width="4.421196811998589"/>
  <path d="M 38.831619787686584, 45.00747157402404 Q 37.67322710349649, 43.71543952386225, 30.315404238921964, 43.40252985312345 " fill="none" id="curve_8" stroke="#000000" stroke-linecap="round" stroke-linejoin="round" stroke-width="6.625622650225613"/>
  <path d="M 23.630523619493303, 40.7588732956477 Q 23.816788813016053, 41.056892761971675, 23.98507324440533, 41.64371241415667 " fill="none" id="curve_9" stroke="#000000" stroke-linecap="round" stroke-linejoin="round" stroke-width="3.8767506835375727"/>
  <path d="M 81.43651399378109, 59.352662308317214 Q 82.15939046841972, 57.91284006535082, 82.59423346876227, 52.07739758894214 " fill="none" id="curve_11" stroke="#000000" stroke-linecap="round" stroke-linejoin="round" stroke-width="3.803818880728295"/>
  <path d="M 55.97886056415247, 46.196577946865595 Q 54.19102177466229, 45.99466364370124, 49.65375749361998, 45.68574753410942 " fill="none" id="curve_12" stroke="#000000" stroke-linecap="round" stroke-linejoin="round" stroke-width="2.9718200606192693"/>
  <path d="M 26.902605535438727, 42.256840256761244 Q 26.230330300575666, 42.1588037853192, 25.008596234960404, 42.0301904507057 " fill="none" id="curve_13" stroke="#000000" stroke-linecap="round" stroke-linejoin="round" stroke-width="3.8078863660062945"/>
  <path d="M 61.210069149849666, 46.882392889359416 Q 59.58499905175387, 45.695340527683996, 52.260999751245855, 44.704794159835814 " fill="none" id="curve_14" stroke="#000000" stroke-linecap="round" stroke-linejoin="round" stroke-width="2.6794387671308595"/>
  <path d="M 84.81459814347544, 46.416522528649026 Q 84.7214864749715, 46.902434217939685, 84.56815563559034, 47.786530601597796 " fill="none" id="curve_15" stroke="#000000" stroke-linecap="round" stroke-linejoin="round" stroke-width="3.189985012479517"/>
  <path d="M 58.36223652679528, 90.37788884601125 Q 57.77539831665506, 89.71374271020181, 56.34483151692888, 88.87158921108585 " fill="none" id="curve_16" stroke="#000000" stroke-linecap="round" stroke-linejoin="round" stroke-width="4.208077035001878"/>
  <path d="M 58.09193631178141, 104.18567454990017 Q 59.474925404199084, 101.97547672795125, 60.7998253196222, 95.99700658012534 " fill="none" id="curve_23" stroke="#000000" stroke-linecap="round" stroke-linejoin="round" stroke-width="4.044588691125472"/>
  <path d="M 59.83884513913352, 101.20009828914863 Q 59.9226168553775, 99.83375782612733, 60.02297688673794, 96.09695772205171 " fill="none" id="curve_27" stroke="#000000" stroke-linecap="round" stroke-linejoin="round" stroke-width="4.137860709027208"/>
  <path d="M 44.6353968668139, 133.9814769645318 Q 45.05061054458221, 130.6493285524201, 46.16438986456301, 128.51321937991509 " fill="none" id="curve_42" stroke="#000000" stroke-linecap="round" stroke-linejoin="round" stroke-width="3.985946933645228"/>
  <path d="M 58.057066410255885, 100.8623521761139 Q 60.52524414160524, 99.50767175198231, 62.072586449211215, 93.94912359727034 " fill="none" id="curve_43" stroke="#000000" stroke-linecap="round" stroke-linejoin="round" stroke-width="2.9755690433677975"/>
  <path d="M 66.27480995512451, 78.10726426966357 Q 66.55841619748766, 78.35039380702425, 66.96980177436745, 79.10414321968263 " fill="none" id="curve_58" stroke="#000000" stroke-linecap="round" stroke-linejoin="round" stroke-width="2.0833464401907"/>
  <path d="M 82.47499744860615, 53.051976572409245 Q 81.8704513893, 54.273710950886766, 80.87323833107743, 55.92214974958038 " fill="none" id="curve_62" stroke="#000000" stroke-linecap="round" stroke-linejoin="round" stroke-width="3.862130748912462"/>
  <path d="M 60.59368078625386, 98.49333898400933 Q 59.57055057666418, 101.17387982027456, 57.749064746902945, 104.62847323223426 " fill="none" id="curve_67" stroke="#000000" stroke-linecap="round" stroke-linejoin="round" stroke-width="3.293969109730912"/>
  <path d="M 79.91219406057871, 54.34727423092602 Q 80.54335581668423, 55.593037627269126, 81.7034465912034, 56.76202064693366 " fill="none" id="curve_82" stroke="#000000" stroke-linecap="round" stroke-linejoin="round" stroke-width="4.809223920090512"/>
  <path d="M 81.58731749357553, 53.49952191977293 Q 81.61115599296632, 55.267102778947816, 81.68513034765172, 56.44736086553242 " fill="none" id="curve_86" stroke="#000000" stroke-linecap="round" stroke-linejoin="round" stroke-width="3.999218742426387"/>
  <path d="M 81.72716869487458, 55.21442185829346 Q 81.71099662034534, 55.67666252955121, 81.6758834587863, 56.07107096536159 " fill="none" id="curve_127" stroke="#000000" stroke-linecap="round" stroke-linejoin="round" stroke-width="4.324446663960859"/>
  <path d="M 60.559889560590534, 98.51890568376787 Q 59.109220217236576, 99.58431265505504, 58.00256558610184, 103.07748576552228 " fill="none" id="curve_129" stroke="#000000" stroke-linecap="round" stroke-linejoin="round" stroke-width="4.138959993193013"/>
  <path d="M 82.0698510473818, 56.47463786437288 Q 81.32938800824293, 54.837972927678344, 79.36679662608314, 53.46865087212549 " fill="none" id="curve_157" stroke="#000000" stroke-linecap="round" stroke-linejoin="round" stroke-width="4.068284134293011"/>
  <path d="M 41.67443054561688, 138.09937707122023 Q 41.90313025661948, 138.29829879463557, 43.741512390342066, 138.35772979734546 " fill="none" id="curve_162" stroke="#000000" stroke-linecap="round" stroke-linejoin="round" stroke-width="2.6381430060187463"/>
  <path d="M 57.37399358634942, 105.09007433077215 Q 59.1863225183091, 103.55520648635978, 60.307403104993725, 98.23180034104121 " fill="none" id="curve_163" stroke="#000000" stroke-linecap="round" stroke-linejoin="round" stroke-width="4.137451699901632"/>
</svg>
