<?xml version="1.0" ?>
<svg height="140" width="140" xmlns="http://www.w3.org/2000/svg">
  <path d="M 23.35855484008789, 23.787189483642578 Q 22.291693947105614, 23.185969989884537, 19.870120912149787, 22.648688671179453 " fill="none" id="curve_1" stroke="#000000" stroke-linecap="round" stroke-linejoin="round" stroke-width="5.142674400873197"/>
  <path d="M 19.870120912149787, 22.648688671179453 Q 26.147285885938576, 26.13210501717752, 34.31066237516123, 29.89316200233278 " fill="none" id="curve_1" stroke="#000000" stroke-linecap="round" stroke-linejoin="round" stroke-width="5.218861394682357"/>
  <path d="M 34.31066237516123, 29.89316200233278 Q 44.02688133743203, 32.87916316439553, 63.588572669859786, 37.75151226600875 " fill="none" id="curve_1" stroke="#000000" stroke-linecap="round" stroke-linejoin="round" stroke-width="6.251698843804261"/>
  <path d="M 63.588572669859786, 37.75151226600875 Q 68.0593353930156, 38.771354848277475, 76.91214432282841, 39.48672661761408 " fill="none" id="curve_1" stroke="#000000" stroke-linecap="round" stroke-linejoin="round" stroke-width="5.920136845146651"/>
  <path d="M 76.91214432282841, 39.48672661761408 Q 67.19197011416637, 42.62506579345063, 54.27352053930518, 66.37167961557098 " fill="none" id="curve_1" stroke="#000000" stroke-linecap="round" stroke-linejoin="round" stroke-width="6.120839279347404"/>
  <path d="M 54.27352053930518, 66.37167961557098 Q 50.142486725005696, 75.03963526668272, 43.28106915209639, 85.33298330505343 " fill="none" id="curve_1" stroke="#000000" stroke-linecap="round" stroke-linejoin="round" stroke-width="6.287971959878034"/>
  <path d="M 43.28106915209639, 85.33298330505343 Q 37.80033935547691, 99.49116364052834, 25.836888949221223, 118.33788380052883 " fill="none" id="curve_1" stroke="#000000" stroke-linecap="round" stroke-linejoin="round" stroke-width="5.565455918675525"/>
  <path d="M 35.44113212450831, 76.85552154113942 Q 50.146107282212995, 78.73793799418085, 65.08837216906122, 81.01836115534097 " fill="none" id="curve_2" stroke="#000000" stroke-linecap="round" stroke-linejoin="round" stroke-width="4.9890933260098596"/>
  <path d="M 64.20686413636567, 47.254065231951664 Q 67.23480447123352, 44.69131212789714, 69.99974445108418, 40.186597478709054 " fill="none" id="curve_3" stroke="#000000" stroke-linecap="round" stroke-linejoin="round" stroke-width="3.423545957539927"/>
  <path d="M 45.872289806048116, 76.1846038851885 Q 42.6136644102151, 75.81436426256626, 35.87097043652862, 75.37215425849375 " fill="none" id="curve_4" stroke="#000000" stroke-linecap="round" stroke-linejoin="round" stroke-width="3.5845679356586455"/>
  <path d="M 27.077559043413565, 118.74524789818464 Q 28.969917608459806, 114.34926145772262, 31.90983333272284, 105.97046453934546 " fill="none" id="curve_7" stroke="#000000" stroke-linecap="round" stroke-linejoin="round" stroke-width="3.2864954554558006"/>
  <path d="M 31.90983333272284, 105.97046453934546 Q 36.67110295472492, 97.11399157580045, 44.80191020157072, 85.37826918020883 " fill="none" id="curve_7" stroke="#000000" stroke-linecap="round" stroke-linejoin="round" stroke-width="3.1547266261265117"/>
  <path d="M 56.03952723462529, 35.392098658312804 Q 44.458762069868925, 33.18196710067025, 27.267516817628152, 27.972076419973558 " fill="none" id="curve_12" stroke="#000000" stroke-linecap="round" stroke-linejoin="round" stroke-width="3.782765542269232"/>
  <path d="M 27.267516817628152, 27.972076419973558 Q 42.8916714512439, 30.740229510449236, 56.21060767044043, 36.929949008516786 " fill="none" id="curve_12" stroke="#000000" stroke-linecap="round" stroke-linejoin="round" stroke-width="4.163345935235322"/>
  <path d="M 56.21060767044043, 36.929949008516786 Q 50.473442430474485, 34.82107964471534, 37.192149905252336, 30.113359938542878 " fill="none" id="curve_12" stroke="#000000" stroke-linecap="round" stroke-linejoin="round" stroke-width="2.718958889214603"/>
  <path d="M 37.192149905252336, 30.113359938542878 Q 47.30751061404628, 34.71202644373233, 68.21229629283714, 37.96164139758509 " fill="none" id="curve_12" stroke="#000000" stroke-linecap="round" stroke-linejoin="round" stroke-width="3.4733041292700717"/>
  <path d="M 59.18815131652406, 56.08824720105089 Q 53.834651157860904, 62.865430861416726, 46.133742141266275, 76.6720598210704 " fill="none" id="curve_13" stroke="#000000" stroke-linecap="round" stroke-linejoin="round" stroke-width="3.5528753552375254"/>
  <path d="M 35.73636069385399, 31.08262190055799 Q 49.01491914289912, 34.24478166076856, 67.03016923432, 38.177656424845416 " fill="none" id="curve_14" stroke="#000000" stroke-linecap="round" stroke-linejoin="round" stroke-width="3.5523013481139536"/>
  <path d="M 57.34885249985801, 37.33312033898378 Q 57.800809741047715, 36.61314069435014, 58.8656369122691, 35.44168923679669 " fill="none" id="curve_15" stroke="#000000" stroke-linecap="round" stroke-linejoin="round" stroke-width="3.8372514485453175"/>
  <path d="M 30.606604074821544, 28.59250615924355 Q 38.94474556898175, 32.273537488565466, 56.259221123012125, 35.56648284072047 " fill="none" id="curve_16" stroke="#000000" stroke-linecap="round" stroke-linejoin="round" stroke-width="3.734167426472843"/>
  <path d="M 56.259221123012125, 35.56648284072047 Q 49.912422724312684, 34.884355680611286, 43.48601838393628, 32.66609842603785 " fill="none" id="curve_16" stroke="#000000" stroke-linecap="round" stroke-linejoin="round" stroke-width="3.7630991675059255"/>
  <path d="M 56.06406218041059, 62.71327581841183 Q 60.334342690380005, 53.55028299189921, 70.16493083559989, 41.89827658791084 " fill="none" id="curve_21" stroke="#000000" stroke-linecap="round" stroke-linejoin="round" stroke-width="2.8626454981598726"/>
  <path d="M 54.89924355026853, 80.36942530534674 Q 44.7888252823965, 80.59136418257573, 41.73635789788944, 84.58843164884809 " fill="none" id="curve_23" stroke="#000000" stroke-linecap="round" stroke-linejoin="round" stroke-width="2.561079327368062"/>
  <path d="M 41.73635789788944, 84.58843164884809 Q 37.04932928150965, 95.43562167648493, 28.059287322104055, 117.7993160581394 " fill="none" id="curve_23" stroke="#000000" stroke-linecap="round" stroke-linejoin="round" stroke-width="2.7767793738913227"/>
  <path d="M 28.059287322104055, 117.7993160581394 Q 31.422508270216262, 111.7664978605092, 35.44547594236648, 102.76834023837164 " fill="none" id="curve_23" stroke="#000000" stroke-linecap="round" stroke-linejoin="round" stroke-width="3.152481688573831"/>
  <path d="M 42.449962534313386, 78.43922728335232 Q 42.68210341473498, 82.60271111567347, 43.696600775573636, 84.4862791988334 " fill="none" id="curve_25" stroke="#000000" stroke-linecap="round" stroke-linejoin="round" stroke-width="3.326446617914061"/>
  <path d="M 34.790778105650965, 30.44372368169079 Q 47.34437656481363, 33.03806037056049, 59.25383374851009, 37.2697515663621 " fill="none" id="curve_33" stroke="#000000" stroke-linecap="round" stroke-linejoin="round" stroke-width="2.9970880920774303"/>
  <path d="M 32.3376908352529, 28.43085834688243 Q 36.74057627907946, 30.839146646195893, 47.529725156148075, 33.285387283904875 " fill="none" id="curve_34" stroke="#000000" stroke-linecap="round" stroke-linejoin="round" stroke-width="3.460053745532105"/>
  <path d="M 47.529725156148075, 33.285387283904875 Q 43.34364061407727, 31.246566566994233, 31.662071823131907, 29.34413487255266 " fill="none" id="curve_34" stroke="#000000" stroke-linecap="round" stroke-linejoin="round" stroke-width="3.563083058861132"/>
  <path d="M 31.662071823131907, 29.34413487255266 Q 34.18047940917387, 31.380288496538263, 42.643722503318166, 32.846026993696704 " fill="none" id="curve_34" stroke="#000000" stroke-linecap="round" stroke-linejoin="round" stroke-width="3.1509115141505"/>
  <path d="M 67.50979780536801, 37.29447938051021 Q 52.92155673668872, 35.74552427598325, 35.883893895069605, 30.393005622273762 " fill="none" id="curve_35" stroke="#000000" stroke-linecap="round" stroke-linejoin="round" stroke-width="2.9425850969902"/>
  <path d="M 35.883893895069605, 30.393005622273762 Q 44.93866473856983, 34.577429383040425, 63.13473733797884, 37.449891585920945 " fill="none" id="curve_35" stroke="#000000" stroke-linecap="round" stroke-linejoin="round" stroke-width="3.2821407760296353"/>
  <path d="M 56.133046410485456, 61.23655825565045 Q 60.29936875625737, 52.2058751318559, 70.20234291247705, 41.94739269909557 " fill="none" id="curve_43" stroke="#000000" stroke-linecap="round" stroke-linejoin="round" stroke-width="2.805588961321888"/>
  <path d="M 34.23940898430757, 30.234963499542374 Q 48.98273321925612, 33.95524202874918, 66.85611254170473, 38.84932266075983 " fill="none" id="curve_47" stroke="#000000" stroke-linecap="round" stroke-linejoin="round" stroke-width="2.938708322602689"/>
  <path d="M 36.72250387538254, 30.529638355114564 Q 49.445458296936394, 34.16280392967262, 66.46714089100554, 38.437914122408344 " fill="none" id="curve_48" stroke="#000000" stroke-linecap="round" stroke-linejoin="round" stroke-width="2.8852709627725313"/>
  <path d="M 66.46714089100554, 38.437914122408344 Q 50.60572690594572, 36.292375702630885, 34.11720818769904, 29.56416224888435 " fill="none" id="curve_48" stroke="#000000" stroke-linecap="round" stroke-linejoin="round" stroke-width="3.085485593588617"/>
  <path d="M 62.54942245646637, 38.06071628712175 Q 55.88605834755023, 35.017459548693004, 36.66104663507135, 30.745404012242922 " fill="none" id="curve_49" stroke="#000000" stroke-linecap="round" stroke-linejoin="round" stroke-width="3.1256953619996537"/>
  <path d="M 41.31796169281006, 34.08244323730469 Q 55.0796954942725, 35.23012553446628, 64.40376876329242, 38.5263472201282 " fill="none" id="curve_63" stroke="#000000" stroke-linecap="round" stroke-linejoin="round" stroke-width="2.5482843049502435"/>
  <path d="M 60.560882687568665, 39.4774284362793 Q 59.582574164322665, 39.08990593173292, 58.64526573301731, 37.549664337911295 " fill="none" id="curve_90" stroke="#000000" stroke-linecap="round" stroke-linejoin="round" stroke-width="3.297415929368731"/>
  <path d="M 32.154130697650544, 31.40482480243918 Q 31.626458550746737, 31.061657419887055, 30.82294497822392, 30.59415806069111 " fill="none" id="curve_118" stroke="#000000" stroke-linecap="round" stroke-linejoin="round" stroke-width="3.1854107673483276"/>
  <path d="M 58.6674568264514, 35.80631763621693 Q 57.02006394924444, 35.25269406255712, 52.67374161002638, 34.51509265405696 " fill="none" id="curve_119" stroke="#000000" stroke-linecap="round" stroke-linejoin="round" stroke-width="3.13544425594702"/>
  <path d="M 58.313271025518816, 54.5858673902635 Q 62.9470329935792, 49.019352480627525, 69.08943682290467, 36.67050372918807 " fill="none" id="curve_134" stroke="#000000" stroke-linecap="round" stroke-linejoin="round" stroke-width="2.98936612971256"/>
  <path d="M 44.50252761625062, 87.24075325148723 Q 37.276430804894645, 96.35905636344339, 27.19554737496684, 116.09824530194217 " fill="none" id="curve_151" stroke="#000000" stroke-linecap="round" stroke-linejoin="round" stroke-width="2.9296485461221446"/>
  <path d="M 30.69728183665402, 110.22603544814055 Q 36.08664159332678, 104.9869481525471, 39.944441803334875, 88.40552208281386 " fill="none" id="curve_157" stroke="#000000" stroke-linecap="round" stroke-linejoin="round" stroke-width="2.995213865904045"/>
  <path d="M 54.18899286227972, 35.26508912808712 Q 58.29733286694321, 35.43300273428745, 61.712817256695274, 35.84670225073893 " fill="none" id="curve_163" stroke="#000000" stroke-linecap="round" stroke-linejoin="round" stroke-width="3.4257010128339567"/>
  <path d="M 57.058012031371796, 37.00357105731317 Q 54.511375667927695, 35.544701470678454, 47.98209617997129, 33.53650328053017 " fill="none" id="curve_180" stroke="#000000" stroke-linecap="round" stroke-linejoin="round" stroke-width="3.5997775917812094"/>
  <path d="M 36.094457936974784, 95.53529703712036 Q 34.597738698435904, 107.85619642808577, 27.384054582126637, 116.18915826039047 " fill="none" id="curve_191" stroke="#000000" stroke-linecap="round" stroke-linejoin="round" stroke-width="2.759577031323737"/>
  <path d="M 54.79294039516657, 34.56284004067719 Q 55.515046570003854, 34.66097834110079, 56.73424539380755, 34.86450264466907 " fill="none" id="curve_206" stroke="#000000" stroke-linecap="round" stroke-linejoin="round" stroke-width="2.8511224152727728"/>
</svg>
