<?xml version="1.0" ?>
<svg height="140" width="140" xmlns="http://www.w3.org/2000/svg">
  <path d="M 52.15415401674969, 61.77496800540544 Q 39.20669807585213, 62.69664741051925, 32.436991416761686, 71.78055499796417 " fill="none" id="curve_4" stroke="#000000" stroke-linecap="round" stroke-linejoin="round" stroke-width="4.0577903269651285"/>
  <path d="M 32.436991416761686, 71.78055499796417 Q 31.8505606257003, 87.95354015544976, 23.52486059127976, 90.40403665205227 " fill="none" id="curve_4" stroke="#000000" stroke-linecap="round" stroke-linejoin="round" stroke-width="3.5447693048646505"/>
  <path d="M 20.930313387458256, 69.71604783828553 Q 23.808855960482763, 65.76250829984147, 42.094607852585824, 64.29118357351958 " fill="none" id="curve_5" stroke="#000000" stroke-linecap="round" stroke-linejoin="round" stroke-width="4.338115309726913"/>
  <path d="M 42.094607852585824, 64.29118357351958 Q 37.891027632444874, 73.70011385365427, 29.751300841379468, 84.40584586461415 " fill="none" id="curve_5" stroke="#000000" stroke-linecap="round" stroke-linejoin="round" stroke-width="3.4506254439211546"/>
  <path d="M 44.20725246467724, 61.002622251708516 Q 48.288369160501695, 53.804162392446756, 59.46598800834378, 33.62066622781679 " fill="none" id="curve_6" stroke="#000000" stroke-linecap="round" stroke-linejoin="round" stroke-width="4.303808890728984"/>
  <path d="M 59.46598800834378, 33.62066622781679 Q 62.413793689079014, 32.56838744552662, 63.090943884268285, 25.68975192662355 " fill="none" id="curve_6" stroke="#000000" stroke-linecap="round" stroke-linejoin="round" stroke-width="4.432134212194814"/>
  <path d="M 63.090943884268285, 25.68975192662355 Q 52.41032371724475, 26.69038340011932, 38.501081703300954, 32.00380312176693 " fill="none" id="curve_6" stroke="#000000" stroke-linecap="round" stroke-linejoin="round" stroke-width="4.450404751801483"/>
  <path d="M 38.501081703300954, 32.00380312176693 Q 35.452783660109006, 33.72121589476243, 26.38834215265396, 34.355768638215764 " fill="none" id="curve_6" stroke="#000000" stroke-linecap="round" stroke-linejoin="round" stroke-width="4.857471758769525"/>
  <path d="M 52.6890658048615, 60.295336096051464 Q 53.742582147420606, 60.683279265222374, 55.05231495364654, 61.247237849418234 " fill="none" id="curve_7" stroke="#000000" stroke-linecap="round" stroke-linejoin="round" stroke-width="3.3088809395476724"/>
  <path d="M 21.273674129597836, 69.92628901774523 Q 21.226237546900666, 69.68107528720003, 21.195255439916085, 69.06701483360118 " fill="none" id="curve_8" stroke="#000000" stroke-linecap="round" stroke-linejoin="round" stroke-width="6.6887509920411405"/>
  <path d="M 24.85703308891268, 91.82480135577691 Q 25.927209545805578, 84.81086729927443, 32.351875834600676, 81.22260878332132 " fill="none" id="curve_9" stroke="#000000" stroke-linecap="round" stroke-linejoin="round" stroke-width="2.2814331341579868"/>
  <path d="M 21.66264471263585, 72.13887316040999 Q 21.61978520877064, 70.6484385138119, 21.569888856469433, 68.2730157179352 " fill="none" id="curve_11" stroke="#000000" stroke-linecap="round" stroke-linejoin="round" stroke-width="3.646204196688989"/>
  <path d="M 56.097169880520745, 37.79662769162229 Q 59.68280748932827, 35.21683403461682, 62.24372494265168, 26.10844816138792 " fill="none" id="curve_12" stroke="#000000" stroke-linecap="round" stroke-linejoin="round" stroke-width="2.7105588173682853"/>
  <path d="M 52.58233801610547, 43.86152667408319 Q 57.088152771269975, 39.478739334157986, 60.99609637347398, 30.549510772292358 " fill="none" id="curve_13" stroke="#000000" stroke-linecap="round" stroke-linejoin="round" stroke-width="3.1899465070131336"/>
  <path d="M 49.358973648849314, 60.583882556377716 Q 44.6585462662489, 61.56327314594171, 38.72225124890173, 63.97074039075071 " fill="none" id="curve_28" stroke="#000000" stroke-linecap="round" stroke-linejoin="round" stroke-width="3.523637678135427"/>
  <path d="M 59.681972522175286, 24.658158514692197 Q 60.2953733382779, 24.864488350520745, 60.89368446511158, 25.322317580809003 " fill="none" id="curve_30" stroke="#000000" stroke-linecap="round" stroke-linejoin="round" stroke-width="3.793559699015387"/>
  <path d="M 56.05083252478735, 39.20716721317738 Q 58.15640943345667, 37.29004995460715, 60.07160908528728, 32.19160192661102 " fill="none" id="curve_31" stroke="#000000" stroke-linecap="round" stroke-linejoin="round" stroke-width="2.7567300151422556"/>
  <path d="M 57.26336043361815, 37.5822949943127 Q 58.0600305221035, 37.003662436251616, 59.11126940061691, 35.01513172871005 " fill="none" id="curve_34" stroke="#000000" stroke-linecap="round" stroke-linejoin="round" stroke-width="3.036532320344948"/>
  <path d="M 56.520069705796885, 38.91274868973494 Q 56.83354730707184, 35.934912610359135, 59.11851558962877, 34.98224747515475 " fill="none" id="curve_49" stroke="#000000" stroke-linecap="round" stroke-linejoin="round" stroke-width="3.8823222092450913"/>
  <path d="M 59.72245297489349, 34.756030026208464 Q 56.70057994791631, 35.70710293711887, 54.65835679857323, 39.871532017123045 " fill="none" id="curve_77" stroke="#000000" stroke-linecap="round" stroke-linejoin="round" stroke-width="2.3056790023540974"/>
  <path d="M 42.63332690693143, 30.688257223739782 Q 34.910888282653005, 31.367789894547965, 30.077407098441423, 33.734793864039396 " fill="none" id="curve_78" stroke="#000000" stroke-linecap="round" stroke-linejoin="round" stroke-width="2.403455322516752"/>
  <path d="M 55.746310557943616, 25.91985489382921 Q 56.515131455802376, 25.188939262119355, 60.72057305253247, 24.86450622167417 " fill="none" id="curve_119" stroke="#000000" stroke-linecap="round" stroke-linejoin="round" stroke-width="2.2994531765966126"/>
  <path d="M 43.27798241824678, 64.41310072294492 Q 44.147249326490225, 63.8475146464702, 45.5762764331145, 62.72239412136444 " fill="none" id="curve_134" stroke="#000000" stroke-linecap="round" stroke-linejoin="round" stroke-width="2.4632418439601507"/>
</svg>
