<?xml version="1.0" ?>
<svg height="140" width="140" xmlns="http://www.w3.org/2000/svg">
  <path d="M 71.73438262939453, 92.54320526123047 Q 71.74182826941214, 91.19203870267371, 71.87960416095359, 91.00923997566836 " fill="none" id="curve_1" stroke="#000000" stroke-linecap="round" stroke-linejoin="round" stroke-width="5.996587049741593"/>
  <path d="M 71.87960416095359, 91.00923997566836 Q 63.2245143723008, 91.02036094225629, 54.64646681956804, 91.03993225776146 " fill="none" id="curve_1" stroke="#000000" stroke-linecap="round" stroke-linejoin="round" stroke-width="7.1925284068181"/>
  <path d="M 54.64646681956804, 91.03993225776146 Q 56.855438892571485, 96.0478406605092, 58.3963221650267, 120.78035228849299 " fill="none" id="curve_1" stroke="#000000" stroke-linecap="round" stroke-linejoin="round" stroke-width="4.104045090420036"/>
  <path d="M 58.3963221650267, 120.78035228849299 Q 58.28647033091156, 123.60823149957245, 57.41809683410467, 124.13437436976865 " fill="none" id="curve_1" stroke="#000000" stroke-linecap="round" stroke-linejoin="round" stroke-width="6.0098178072325785"/>
  <path d="M 52.35118246787817, 90.6034855551855 Q 53.67028811155167, 90.33722688742513, 53.74611186209361, 79.61892680063212 " fill="none" id="curve_2" stroke="#000000" stroke-linecap="round" stroke-linejoin="round" stroke-width="4.481340595255306"/>
  <path d="M 53.74611186209361, 79.61892680063212 Q 53.661049465932045, 64.46869970808717, 53.25865827351753, 49.22805473099236 " fill="none" id="curve_2" stroke="#000000" stroke-linecap="round" stroke-linejoin="round" stroke-width="4.321801470955609"/>
  <path d="M 53.25865827351753, 49.22805473099236 Q 55.91367928092244, 42.339052223205464, 59.54969444769149, 33.79350616182986 " fill="none" id="curve_2" stroke="#000000" stroke-linecap="round" stroke-linejoin="round" stroke-width="5.35993333681474"/>
  <path d="M 59.54969444769149, 33.79350616182986 Q 40.109061814571746, 33.09057931935216, 32.58920538395117, 25.267145750395677 " fill="none" id="curve_2" stroke="#000000" stroke-linecap="round" stroke-linejoin="round" stroke-width="5.483921619964798"/>
  <path d="M 32.58920538395117, 25.267145750395677 Q 29.49643794469651, 25.30039231472066, 27.707109116517074, 25.38515910098045 " fill="none" id="curve_2" stroke="#000000" stroke-linecap="round" stroke-linejoin="round" stroke-width="4.327944797219776"/>
  <path d="M 3.917690705230381, 4.2542835510854395 Q 3.2613288166560035, 4.028324815951179, 2.839602480479349, 3.287321812954788 " fill="none" id="curve_3" stroke="#000000" stroke-linecap="round" stroke-linejoin="round" stroke-width="5.059761534098444"/>
  <path d="M 2.839602480479349, 3.287321812954788 Q 3.997564985144754, 2.691301875353205, 5.2869774168047154, 1.2807761229411034 " fill="none" id="curve_3" stroke="#000000" stroke-linecap="round" stroke-linejoin="round" stroke-width="2.7312693969766264"/>
  <path d="M 32.57490653001356, 88.93849510683475 Q 43.59173308150932, 89.46236701909523, 53.1228419041564, 90.4790130199823 " fill="none" id="curve_5" stroke="#000000" stroke-linecap="round" stroke-linejoin="round" stroke-width="6.106863577035625"/>
  <path d="M 53.1228419041564, 90.4790130199823 Q 48.91368391795961, 88.74777651336082, 32.92547781593677, 87.85076046929194 " fill="none" id="curve_5" stroke="#000000" stroke-linecap="round" stroke-linejoin="round" stroke-width="2.9889188769465957"/>
  <path d="M 32.708562864522975, 89.45926139780681 Q 32.56511517798297, 89.00561548625258, 32.42741955224452, 88.15720511559564 " fill="none" id="curve_7" stroke="#000000" stroke-linecap="round" stroke-linejoin="round" stroke-width="4.508268584813894"/>
  <path d="M 57.67978946077565, 35.301054597222844 Q 55.095246136947026, 45.20623868100234, 51.67257278282079, 57.94636691139324 " fill="none" id="curve_9" stroke="#000000" stroke-linecap="round" stroke-linejoin="round" stroke-width="2.7733084058014534"/>
  <path d="M 39.27478863494825, 26.85098976666426 Q 38.89741552391046, 26.764582734034843, 38.36424200432706, 26.66710787945081 " fill="none" id="curve_11" stroke="#000000" stroke-linecap="round" stroke-linejoin="round" stroke-width="4.378347756882474"/>
  <path d="M 1.079881883640276, 37.173479469022496 Q 1.039820268680558, 56.94086499863299, 0.7360432417357063, 64.33822537138026 " fill="none" id="curve_12" stroke="#000000" stroke-linecap="round" stroke-linejoin="round" stroke-width="1.4322086613719238"/>
  <path d="M 1.0895807121127228, 77.34494126838139 Q 1.01563744566349, 94.32604508791627, 0.5516758050920796, 116.17347729827827 " fill="none" id="curve_15" stroke="#000000" stroke-linecap="round" stroke-linejoin="round" stroke-width="1.555299018846341"/>
  <path d="M 0.5516758050920796, 116.17347729827827 Q 0.6079624261037696, 125.67575916252248, 0.7544228970505182, 132.62561456846316 " fill="none" id="curve_15" stroke="#000000" stroke-linecap="round" stroke-linejoin="round" stroke-width="1.6675301568486447"/>
  <path d="M 54.915082079271954, 88.28760986515314 Q 54.80013042057112, 77.95043234990113, 54.3479430319192, 72.01663869937614 " fill="none" id="curve_19" stroke="#000000" stroke-linecap="round" stroke-linejoin="round" stroke-width="2.9271712369012506"/>
  <path d="M 41.00903865792263, 90.75105012007023 Q 42.44442126929377, 90.77450121411316, 46.23597841559441, 90.79219702055646 " fill="none" id="curve_20" stroke="#000000" stroke-linecap="round" stroke-linejoin="round" stroke-width="3.870601642536528"/>
  <path d="M 53.598240988461356, 52.45149421747713 Q 54.95331806875501, 51.57828662023197, 55.20035128063748, 39.17232529281223 " fill="none" id="curve_22" stroke="#000000" stroke-linecap="round" stroke-linejoin="round" stroke-width="3.37437311311504"/>
  <path d="M 53.0427391243431, 54.39463370561596 Q 52.900680357465546, 52.54135495302871, 52.250994179329915, 50.379485767940096 " fill="none" id="curve_23" stroke="#000000" stroke-linecap="round" stroke-linejoin="round" stroke-width="2.7615522768944225"/>
  <path d="M -0.5108685884760717, 36.30311801552037 Q 0.2705757336940334, 32.55452411913343, 1.119488386859202, 20.896452059859037 " fill="none" id="curve_24" stroke="#000000" stroke-linecap="round" stroke-linejoin="round" stroke-width="1.5882127447468404"/>
  <path d="M 1.3250970811775582, 5.850558989045274 Q 0.8092908009932391, 6.20615571878705, 0.7577585467797017, 18.98230909357713 " fill="none" id="curve_25" stroke="#000000" stroke-linecap="round" stroke-linejoin="round" stroke-width="1.0324498779137996"/>
  <path d="M 1.2822621224296888, 6.089526147479736 Q 1.6418915744178448, 1.3969313998534396, 7.067130650237731, 0.7179362105281113 " fill="none" id="curve_26" stroke="#000000" stroke-linecap="round" stroke-linejoin="round" stroke-width="1.7445485825966878"/>
  <path d="M 1.4197833913431852, 1.6638445018565369 Q 1.494778723802773, 1.6454058729543155, 1.580819882804104, 1.620632008917945 " fill="none" id="curve_27" stroke="#000000" stroke-linecap="round" stroke-linejoin="round" stroke-width="2.7420976744357053"/>
  <path d="M 42.81048252130645, 32.75570218324597 Q 42.79081269882441, 32.95059643611868, 42.75188332503358, 33.14539410925918 " fill="none" id="curve_29" stroke="#000000" stroke-linecap="round" stroke-linejoin="round" stroke-width="2.5922470668904167"/>
  <path d="M 58.312346003387255, 117.07947338399363 Q 57.25689507703029, 120.49436749071225, 55.52174218451866, 123.41044328940164 " fill="none" id="curve_33" stroke="#000000" stroke-linecap="round" stroke-linejoin="round" stroke-width="3.97893900885788"/>
  <path d="M 59.33551551949394, 110.60419675876636 Q 58.88890335919088, 113.96201393000791, 58.19045470596346, 118.41989850483282 " fill="none" id="curve_41" stroke="#000000" stroke-linecap="round" stroke-linejoin="round" stroke-width="2.6669210189357044"/>
  <path d="M 50.190941418960534, 92.06602467934543 Q 47.633326764996355, 89.91997904977784, 42.9029771205381, 87.24116272812671 " fill="none" id="curve_46" stroke="#000000" stroke-linecap="round" stroke-linejoin="round" stroke-width="2.928967547047895"/>
  <path d="M 33.05856771790798, 88.17136290927296 Q 33.01226338457869, 88.19728855299745, 32.96331127182346, 88.2661465163737 " fill="none" id="curve_47" stroke="#000000" stroke-linecap="round" stroke-linejoin="round" stroke-width="3.0948527223580333"/>
  <path d="M 64.0953637340246, 90.20812500944142 Q 66.22503490019733, 90.03295318507712, 69.60919646835633, 89.85233175210568 " fill="none" id="curve_64" stroke="#000000" stroke-linecap="round" stroke-linejoin="round" stroke-width="3.1758075841517064"/>
  <path d="M 0.933089203685995, 73.21193071537289 Q 0.8823975027170322, 73.23952007895973, 0.8314537852608344, 73.31501866136733 " fill="none" id="curve_79" stroke="#000000" stroke-linecap="round" stroke-linejoin="round" stroke-width="1.3691261664810581"/>
  <path d="M 31.60441981330041, 90.766126398796 Q 32.235379521953064, 87.1340274535913, 34.4011774730254, 85.06729886487986 " fill="none" id="curve_80" stroke="#000000" stroke-linecap="round" stroke-linejoin="round" stroke-width="2.2581995827028596"/>
  <path d="M 65.09078097331961, 89.71885758350801 Q 65.08624412606471, 88.51860152393807, 65.04702611544371, 88.16738583806845 " fill="none" id="curve_81" stroke="#000000" stroke-linecap="round" stroke-linejoin="round" stroke-width="2.985199001786658"/>
  <path d="M 51.665072440351764, 55.4406322847502 Q 51.64195335250979, 53.77598208468455, 51.50664037763809, 53.14432222628346 " fill="none" id="curve_82" stroke="#000000" stroke-linecap="round" stroke-linejoin="round" stroke-width="3.5778301795667704"/>
  <path d="M 74.17025438701818, 88.73432604407203 Q 72.95798411928253, 89.02822053689968, 71.801349155692, 89.63153528879303 " fill="none" id="curve_104" stroke="#000000" stroke-linecap="round" stroke-linejoin="round" stroke-width="2.4573346560771983"/>
  <path d="M 54.54752085838761, 46.8919874743753 Q 54.914409629153205, 43.9979141183081, 57.00334327630037, 43.07364647416759 " fill="none" id="curve_121" stroke="#000000" stroke-linecap="round" stroke-linejoin="round" stroke-width="3.594466658847804"/>
  <path d="M 47.73244097928335, 89.24575810476318 Q 47.338821474761474, 87.62295195134143, 45.38952547780945, 86.9381871168774 " fill="none" id="curve_140" stroke="#000000" stroke-linecap="round" stroke-linejoin="round" stroke-width="2.071710413002955"/>
  <path d="M 53.04062527556583, 32.60399995473632 Q 53.336334808652175, 31.797265566471506, 54.296088200625654, 31.15384067686682 " fill="none" id="curve_144" stroke="#000000" stroke-linecap="round" stroke-linejoin="round" stroke-width="2.6454994067750692"/>
  <path d="M 37.932632831065156, 26.432146933493676 Q 39.984893119185124, 28.084878572243817, 42.97068342474342, 30.296353677018548 " fill="none" id="curve_147" stroke="#000000" stroke-linecap="round" stroke-linejoin="round" stroke-width="2.077302564659355"/>
</svg>
