<?xml version="1.0" ?>
<svg height="140" width="140" xmlns="http://www.w3.org/2000/svg">
  <path d="M 65.42224277378256, 83.39211035356367 Q 56.818660689737435, 84.710070771961, 47.82843402217445, 87.66072231309481 " fill="none" id="curve_2" stroke="#000000" stroke-linecap="round" stroke-linejoin="round" stroke-width="8.039607956356"/>
  <path d="M 47.82843402217445, 87.66072231309481 Q 45.511290872933436, 94.71593213569449, 41.9237634998252, 112.95180450559592 " fill="none" id="curve_2" stroke="#000000" stroke-linecap="round" stroke-linejoin="round" stroke-width="5.274136344682469"/>
  <path d="M 36.30194515439361, 90.09027414850723 Q 42.71870952037306, 88.9086380306898, 47.91677122284591, 85.60866640800161 " fill="none" id="curve_3" stroke="#000000" stroke-linecap="round" stroke-linejoin="round" stroke-width="5.0285644465161745"/>
  <path d="M 47.91677122284591, 85.60866640800161 Q 52.305799803562984, 73.2093175439018, 61.40214695999089, 52.21531498585806 " fill="none" id="curve_3" stroke="#000000" stroke-linecap="round" stroke-linejoin="round" stroke-width="5.419074433933273"/>
  <path d="M 61.40214695999089, 52.21531498585806 Q 58.07663816357275, 53.32205292736387, 33.311952480752154, 53.5496704181725 " fill="none" id="curve_3" stroke="#000000" stroke-linecap="round" stroke-linejoin="round" stroke-width="4.928980746258016"/>
  <path d="M 53.315831306411475, 63.58014806974023 Q 57.761793539379646, 58.36522114069487, 63.93302840476478, 52.1395516352049 " fill="none" id="curve_5" stroke="#000000" stroke-linecap="round" stroke-linejoin="round" stroke-width="4.042636982615435"/>
  <path d="M 39.99428167364036, 87.08248412359538 Q 37.42744197779103, 87.03904240263235, 36.16573664025929, 86.88120121083776 " fill="none" id="curve_6" stroke="#000000" stroke-linecap="round" stroke-linejoin="round" stroke-width="4.53180202234184"/>
  <path d="M 44.38671363489583, 113.15564915239842 Q 44.26105061963038, 107.50147385284639, 43.71060159509392, 105.19019283009656 " fill="none" id="curve_7" stroke="#000000" stroke-linecap="round" stroke-linejoin="round" stroke-width="5.303785579336398"/>
  <path d="M 56.43919666779241, 57.9029853748698 Q 60.02146093393668, 55.79253054593138, 63.877235989891524, 51.93601468964156 " fill="none" id="curve_9" stroke="#000000" stroke-linecap="round" stroke-linejoin="round" stroke-width="3.778956659437023"/>
  <path d="M 44.45905795945458, 54.684202711685124 Q 49.320001957531986, 54.759668196491454, 54.6124956971492, 54.863825648324834 " fill="none" id="curve_10" stroke="#000000" stroke-linecap="round" stroke-linejoin="round" stroke-width="2.685110712972312"/>
  <path d="M 47.073538732668545, 53.33934989760366 Q 53.279928129940565, 52.418062268389264, 64.06329512306712, 51.18990792088639 " fill="none" id="curve_21" stroke="#000000" stroke-linecap="round" stroke-linejoin="round" stroke-width="2.756304427829387"/>
  <path d="M 54.45908024868781, 67.91810779720791 Q 50.68314291688841, 73.03134696272373, 46.24756835505837, 85.1935173781196 " fill="none" id="curve_29" stroke="#000000" stroke-linecap="round" stroke-linejoin="round" stroke-width="2.67206528254904"/>
  <path d="M 40.19217949039135, 111.86311891362143 Q 41.87400310850928, 108.07515116843524, 45.146926512469555, 102.94111830853761 " fill="none" id="curve_30" stroke="#000000" stroke-linecap="round" stroke-linejoin="round" stroke-width="2.9420538975136368"/>
  <path d="M 38.30995775679117, 91.20756737156185 Q 38.48354248553905, 91.85267189706218, 39.236107388994526, 92.29522291078673 " fill="none" id="curve_34" stroke="#000000" stroke-linecap="round" stroke-linejoin="round" stroke-width="2.9641555507842767"/>
  <path d="M 43.155361170529694, 50.544298664236884 Q 47.46637560292122, 51.3257817241069, 57.71377826735749, 53.13646272657528 " fill="none" id="curve_35" stroke="#000000" stroke-linecap="round" stroke-linejoin="round" stroke-width="1.819088221853612"/>
  <path d="M 57.71377826735749, 53.13646272657528 Q 56.06829200734555, 61.63287943867491, 51.49132309301988, 69.55691798496446 " fill="none" id="curve_35" stroke="#000000" stroke-linecap="round" stroke-linejoin="round" stroke-width="2.360902498117182"/>
  <path d="M 63.03592817650273, 53.20302636052301 Q 63.29947553159198, 53.63595682154835, 63.69397626021221, 54.340885488634896 " fill="none" id="curve_36" stroke="#000000" stroke-linecap="round" stroke-linejoin="round" stroke-width="2.6124741262190807"/>
  <path d="M 43.20991966051534, 105.47930616518526 Q 45.44118002086591, 103.70315035685476, 47.12475216764309, 96.92337632828834 " fill="none" id="curve_58" stroke="#000000" stroke-linecap="round" stroke-linejoin="round" stroke-width="3.363755656300749"/>
  <path d="M 43.65863137501655, 107.42447302081952 Q 43.83680131480322, 106.57305567232936, 44.2439891957848, 104.87824368752113 " fill="none" id="curve_67" stroke="#000000" stroke-linecap="round" stroke-linejoin="round" stroke-width="3.4914159764063095"/>
  <path d="M 60.90978813171387, 82.99144172668457 Q 61.415895797130716, 82.5606128848458, 62.526426776764524, 81.98747710680004 " fill="none" id="curve_81" stroke="#000000" stroke-linecap="round" stroke-linejoin="round" stroke-width="2.8747651906366665"/>
  <path d="M 47.436438496095604, 94.90166635554397 Q 46.23935544216285, 104.84492269440253, 41.56264049412729, 108.41694997331338 " fill="none" id="curve_96" stroke="#000000" stroke-linecap="round" stroke-linejoin="round" stroke-width="3.9477358354660512"/>
  <path d="M 41.56264049412729, 108.41694997331338 Q 41.90003346861726, 107.35560318543071, 42.39281692282495, 105.85054717411982 " fill="none" id="curve_96" stroke="#000000" stroke-linecap="round" stroke-linejoin="round" stroke-width="3.425499735898239"/>
  <path d="M 40.876357954146634, 52.961603431816165 Q 40.84637921572872, 52.394207209624696, 40.75341409317944, 51.87204291536353 " fill="none" id="curve_97" stroke="#000000" stroke-linecap="round" stroke-linejoin="round" stroke-width="3.591073760971614"/>
  <path d="M 53.89277036701475, 59.77193755895564 Q 54.59025121584966, 58.68708098518959, 56.81851879901347, 57.68759405648828 " fill="none" id="curve_125" stroke="#000000" stroke-linecap="round" stroke-linejoin="round" stroke-width="2.4898594507271814"/>
</svg>
