<?xml version="1.0" ?>
<svg height="140" width="140" xmlns="http://www.w3.org/2000/svg">
  <path d="M 69.49030494689941, 62.503238677978516 Q 70.47695145550848, 61.416809274824494, 71.22003596122042, 57.78252686338817 " fill="none" id="curve_1" stroke="#000000" stroke-linecap="round" stroke-linejoin="round" stroke-width="8.600798831275961"/>
  <path d="M 71.22003596122042, 57.78252686338817 Q 68.85816180245968, 62.4111550948931, 62.33508998215415, 70.2216514486482 " fill="none" id="curve_1" stroke="#000000" stroke-linecap="round" stroke-linejoin="round" stroke-width="4.791567229476815"/>
  <path d="M 62.33508998215415, 70.2216514486482 Q 59.55679821870506, 74.04837907669568, 57.1697363893283, 78.4867176720677 " fill="none" id="curve_1" stroke="#000000" stroke-linecap="round" stroke-linejoin="round" stroke-width="7.898109851649544"/>
  <path d="M 57.1697363893283, 78.4867176720677 Q 52.82337867582998, 84.3439280321813, 39.27539365222373, 105.38034027371513 " fill="none" id="curve_1" stroke="#000000" stroke-linecap="round" stroke-linejoin="round" stroke-width="3.5091434361502865"/>
  <path d="M 39.27539365222373, 105.38034027371513 Q 39.23791133124607, 110.0989693639737, 38.895863166782725, 110.99512929115875 " fill="none" id="curve_1" stroke="#000000" stroke-linecap="round" stroke-linejoin="round" stroke-width="3.8990470178405223"/>
  <path d="M 33.48274495252575, 80.74534947477494 Q 36.39531023677641, 78.56949967840654, 55.63625894899529, 77.9405315860276 " fill="none" id="curve_2" stroke="#000000" stroke-linecap="round" stroke-linejoin="round" stroke-width="6.604127952881313"/>
  <path d="M 55.63625894899529, 77.9405315860276 Q 67.99728269967181, 77.24669149876638, 80.39069765237227, 76.30966681583527 " fill="none" id="curve_2" stroke="#000000" stroke-linecap="round" stroke-linejoin="round" stroke-width="4.40859649041588"/>
  <path d="M 69.60864491077248, 55.340734098875465 Q 48.224283840098806, 55.06876752134785, 41.997022286600924, 52.533892090190584 " fill="none" id="curve_3" stroke="#000000" stroke-linecap="round" stroke-linejoin="round" stroke-width="6.795495602737291"/>
  <path d="M 41.997022286600924, 52.533892090190584 Q 40.629972829545935, 51.90174709562877, 38.915611298145386, 51.29537867568011 " fill="none" id="curve_3" stroke="#000000" stroke-linecap="round" stroke-linejoin="round" stroke-width="5.541586581895738"/>
  <path d="M 67.1364750914127, 53.99875006608454 Q 57.18206807458234, 54.05457794550165, 49.487899367690915, 54.211432106254755 " fill="none" id="curve_4" stroke="#000000" stroke-linecap="round" stroke-linejoin="round" stroke-width="3.3002649339403516"/>
  <path d="M 49.487899367690915, 54.211432106254755 Q 59.0401660130786, 53.92622494578404, 69.63859167953196, 53.45191372429942 " fill="none" id="curve_4" stroke="#000000" stroke-linecap="round" stroke-linejoin="round" stroke-width="3.2946341283195366"/>
  <path d="M 44.826320785565926, 98.23542208985359 Q 39.513474682664786, 99.25271056575838, 38.57203419056952, 107.967813891904 " fill="none" id="curve_5" stroke="#000000" stroke-linecap="round" stroke-linejoin="round" stroke-width="3.966082430978768"/>
  <path d="M 38.06776804801753, 76.53388708277836 Q 46.21281897072561, 77.45426973792254, 53.36399876980064, 79.45298138472226 " fill="none" id="curve_6" stroke="#000000" stroke-linecap="round" stroke-linejoin="round" stroke-width="3.4617791098086323"/>
  <path d="M 46.72098436084259, 56.81583675538593 Q 51.71452266243045, 54.807451384648346, 59.25861692721043, 52.60214363436125 " fill="none" id="curve_7" stroke="#000000" stroke-linecap="round" stroke-linejoin="round" stroke-width="2.828426471813749"/>
  <path d="M 42.90475603891686, 95.13762411982697 Q 42.457292559200305, 103.67003150902407, 39.30193758982481, 107.73423071630721 " fill="none" id="curve_16" stroke="#000000" stroke-linecap="round" stroke-linejoin="round" stroke-width="2.361550394350462"/>
  <path d="M 71.04145316742745, 55.17441735205972 Q 70.8718852619093, 55.10060546443684, 70.68597109108202, 54.91097473717183 " fill="none" id="curve_18" stroke="#000000" stroke-linecap="round" stroke-linejoin="round" stroke-width="3.3194805103155156"/>
  <path d="M 63.932182495868076, 75.76227140489824 Q 70.15124929242398, 76.30220532091208, 78.04601351051309, 77.19930947976182 " fill="none" id="curve_34" stroke="#000000" stroke-linecap="round" stroke-linejoin="round" stroke-width="1.8533684947194187"/>
  <path d="M 51.236631904546314, 79.73429312938919 Q 44.67472154284405, 79.72733959806135, 40.28448924841002, 79.70645639085585 " fill="none" id="curve_35" stroke="#000000" stroke-linecap="round" stroke-linejoin="round" stroke-width="2.4620134579722746"/>
  <path d="M 51.222578074876495, 54.45328065703807 Q 52.40172751773252, 53.990646912084735, 63.627980044327174, 53.79369597589237 " fill="none" id="curve_70" stroke="#000000" stroke-linecap="round" stroke-linejoin="round" stroke-width="2.426178440245703"/>
  <path d="M 54.006751684995834, 54.01650803608936 Q 56.714880562039774, 53.964137720532925, 65.52545213691096, 53.86070137875462 " fill="none" id="curve_85" stroke="#000000" stroke-linecap="round" stroke-linejoin="round" stroke-width="2.045073294858995"/>
  <path d="M 36.219465997518014, 82.531008601465 Q 35.22807170562457, 82.50562968663476, 34.13098314322791, 82.45324521783101 " fill="none" id="curve_102" stroke="#000000" stroke-linecap="round" stroke-linejoin="round" stroke-width="3.0063409912863266"/>
  <path d="M 55.16947012909258, 52.24950972836816 Q 57.69112954105526, 53.202032611960064, 65.6747741625244, 54.63731739209136 " fill="none" id="curve_103" stroke="#000000" stroke-linecap="round" stroke-linejoin="round" stroke-width="1.7750665158812635"/>
  <path d="M 69.22602505751004, 56.52984682439163 Q 70.45619690712329, 55.51952849171386, 72.32272746297075, 54.051603384449606 " fill="none" id="curve_114" stroke="#000000" stroke-linecap="round" stroke-linejoin="round" stroke-width="3.0903703533393823"/>
  <path d="M 37.505914367224634, 109.83074095638773 Q 37.69735647020675, 108.70829757643091, 38.036288957193015, 107.58236246688413 " fill="none" id="curve_130" stroke="#000000" stroke-linecap="round" stroke-linejoin="round" stroke-width="2.575775651259793"/>
  <path d="M 80.46941025132867, 75.77266784283847 Q 80.94244241397273, 76.11547184380285, 81.71969623382859, 76.56811343879144 " fill="none" id="curve_145" stroke="#000000" stroke-linecap="round" stroke-linejoin="round" stroke-width="2.2145395263830014"/>
</svg>
