<?xml version="1.0" ?>
<svg height="140" width="140" xmlns="http://www.w3.org/2000/svg">
  <path d="M 63.2215690612793, 73.34696388244629 Q 60.27961518827487, 76.73341138194642, 59.002486709128846, 92.19486530628524 " fill="none" id="curve_1" stroke="#000000" stroke-linecap="round" stroke-linejoin="round" stroke-width="5.888325092423136"/>
  <path d="M 59.002486709128846, 92.19486530628524 Q 60.04390248487628, 78.05924728373327, 65.49884359692314, 70.25004256346298 " fill="none" id="curve_1" stroke="#000000" stroke-linecap="round" stroke-linejoin="round" stroke-width="4.166075511497447"/>
  <path d="M 65.49884359692314, 70.25004256346298 Q 69.2751138034036, 63.45754376857814, 72.88226676062216, 48.97070623429825 " fill="none" id="curve_1" stroke="#000000" stroke-linecap="round" stroke-linejoin="round" stroke-width="6.451700282084196"/>
  <path d="M 72.88226676062216, 48.97070623429825 Q 72.53206337408685, 39.93693979459552, 66.71330669645464, 38.73515708252556 " fill="none" id="curve_1" stroke="#000000" stroke-linecap="round" stroke-linejoin="round" stroke-width="4.598561125647741"/>
  <path d="M 66.71330669645464, 38.73515708252556 Q 50.98123702620144, 40.040262457778454, 43.97980401321851, 47.44285128943012 " fill="none" id="curve_1" stroke="#000000" stroke-linecap="round" stroke-linejoin="round" stroke-width="5.5884651079990055"/>
  <path d="M 41.41749155367006, 72.40094454175338 Q 52.19642494492894, 70.39879412483633, 68.08312217328637, 67.87913785647243 " fill="none" id="curve_2" stroke="#000000" stroke-linecap="round" stroke-linejoin="round" stroke-width="5.8996716346403115"/>
  <path d="M 68.08312217328637, 67.87913785647243 Q 78.14759275758179, 66.02672726269746, 89.4688936811603, 63.78878308195467 " fill="none" id="curve_2" stroke="#000000" stroke-linecap="round" stroke-linejoin="round" stroke-width="3.5496879675857542"/>
  <path d="M 43.522918421800156, 76.47050709156265 Q 44.095928429984205, 74.80507814311197, 44.4447759310636, 69.1556927804865 " fill="none" id="curve_4" stroke="#000000" stroke-linecap="round" stroke-linejoin="round" stroke-width="2.5815724848083113"/>
  <path d="M 44.0035237197144, 49.75784829955569 Q 43.95937774470343, 49.465843960378805, 43.92915141541146, 48.777773236531694 " fill="none" id="curve_5" stroke="#000000" stroke-linecap="round" stroke-linejoin="round" stroke-width="6.636668768885995"/>
  <path d="M 61.837178705668485, 92.94004120940983 Q 61.42084162258596, 92.16594718235643, 60.99133537662588, 90.357551597829 " fill="none" id="curve_7" stroke="#000000" stroke-linecap="round" stroke-linejoin="round" stroke-width="4.224314616932021"/>
  <path d="M 60.99133537662588, 90.357551597829 Q 63.1679347257913, 75.29190357932742, 69.11173741239426, 57.391704741552424 " fill="none" id="curve_7" stroke="#000000" stroke-linecap="round" stroke-linejoin="round" stroke-width="3.4044074104569897"/>
  <path d="M 66.98820823214368, 37.20707789528562 Q 57.39031243069302, 38.68842692159011, 49.40098958701587, 43.54095774373887 " fill="none" id="curve_8" stroke="#000000" stroke-linecap="round" stroke-linejoin="round" stroke-width="2.4750697256322103"/>
  <path d="M 53.77327044352705, 69.2298787945632 Q 48.52332030401247, 69.50646279622427, 44.614782824563456, 70.79853571846213 " fill="none" id="curve_23" stroke="#000000" stroke-linecap="round" stroke-linejoin="round" stroke-width="2.4520564579137347"/>
  <path d="M 44.39930583621237, 44.7468194073857 Q 44.37183285604058, 45.26853413146144, 44.335513144619355, 46.42908342436785 " fill="none" id="curve_53" stroke="#000000" stroke-linecap="round" stroke-linejoin="round" stroke-width="2.9227110915971974"/>
  <path d="M 46.172758665441165, 50.60843772704186 Q 45.95589983283201, 50.04027694278278, 45.1237548480547, 49.507438886092814 " fill="none" id="curve_81" stroke="#000000" stroke-linecap="round" stroke-linejoin="round" stroke-width="2.042345642228917"/>
  <path d="M 58.51045748131152, 87.18207592603798 Q 58.252930760351035, 86.6409974199954, 57.90284541875169, 85.85488177909693 " fill="none" id="curve_96" stroke="#000000" stroke-linecap="round" stroke-linejoin="round" stroke-width="3.771864255495924"/>
  <path d="M 58.269447607636835, 83.98255603901704 Q 59.20004569334577, 81.07458385698266, 60.97797935793165, 77.30388698768479 " fill="none" id="curve_137" stroke="#000000" stroke-linecap="round" stroke-linejoin="round" stroke-width="2.908623405681369"/>
</svg>
