<?xml version="1.0" ?>
<svg height="140" width="140" xmlns="http://www.w3.org/2000/svg">
  <path d="M 34.04393981545529, 106.6923471409612 Q 35.20814329720774, 100.42170840091214, 39.63574066942701, 94.6378931894315 " fill="none" id="curve_2" stroke="#000000" stroke-linecap="round" stroke-linejoin="round" stroke-width="5.518758284057009"/>
  <path d="M 39.63574066942701, 94.6378931894315 Q 43.18922242296073, 86.79911571914307, 48.840273793469336, 76.20325150840114 " fill="none" id="curve_2" stroke="#000000" stroke-linecap="round" stroke-linejoin="round" stroke-width="6.056934311440626"/>
  <path d="M 48.840273793469336, 76.20325150840114 Q 51.83806071757401, 65.65581825694494, 57.96406801255836, 42.590522281652696 " fill="none" id="curve_2" stroke="#000000" stroke-linecap="round" stroke-linejoin="round" stroke-width="6.515458706599155"/>
  <path d="M 57.96406801255836, 42.590522281652696 Q 57.24561120816747, 40.27708224430348, 20.952682372194573, 40.02496950416464 " fill="none" id="curve_2" stroke="#000000" stroke-linecap="round" stroke-linejoin="round" stroke-width="5.980492795891665"/>
  <path d="M 32.24531297079937, 75.04132805375352 Q 29.210879000608678, 76.08117354721419, 26.916571824082144, 78.73913051065507 " fill="none" id="curve_3" stroke="#000000" stroke-linecap="round" stroke-linejoin="round" stroke-width="7.388911634072428"/>
  <path d="M 26.916571824082144, 78.73913051065507 Q 28.03472011868676, 76.69355830000517, 46.647808657236446, 76.45117018220387 " fill="none" id="curve_3" stroke="#000000" stroke-linecap="round" stroke-linejoin="round" stroke-width="5.933320499925987"/>
  <path d="M 46.647808657236446, 76.45117018220387 Q 48.05455834855459, 78.23358014709677, 54.11646709408233, 78.74610321119951 " fill="none" id="curve_3" stroke="#000000" stroke-linecap="round" stroke-linejoin="round" stroke-width="3.5626879962951175"/>
  <path d="M 36.5003105039101, 108.22139220916446 Q 37.07234605772035, 104.44875179149861, 37.88753092652654, 99.52011395981434 " fill="none" id="curve_4" stroke="#000000" stroke-linecap="round" stroke-linejoin="round" stroke-width="3.223617971829699"/>
  <path d="M 19.07385667111011, 41.708366605599736 Q 20.017669447046046, 40.74349303145605, 20.817310036063603, 38.495770245455006 " fill="none" id="curve_6" stroke="#000000" stroke-linecap="round" stroke-linejoin="round" stroke-width="5.047986908153731"/>
  <path d="M 20.817310036063603, 38.495770245455006 Q 20.22214414839788, 39.5651203048476, 19.04127424416091, 40.71355518417475 " fill="none" id="curve_6" stroke="#000000" stroke-linecap="round" stroke-linejoin="round" stroke-width="3.8902444026738485"/>
  <path d="M 22.74136211868715, 42.533931397052854 Q 26.664210689462994, 40.230360524183794, 50.74818134590414, 39.33625375538906 " fill="none" id="curve_8" stroke="#000000" stroke-linecap="round" stroke-linejoin="round" stroke-width="3.070028649322896"/>
  <path d="M 29.320791955148405, 80.49032960955977 Q 28.967826003578235, 80.95949926176547, 28.363473924669723, 81.65349327803149 " fill="none" id="curve_9" stroke="#000000" stroke-linecap="round" stroke-linejoin="round" stroke-width="3.728069323737449"/>
  <path d="M 44.6137213581327, 76.34201058685231 Q 47.45685504369668, 73.1452977620131, 49.81361112011913, 65.5903030803858 " fill="none" id="curve_13" stroke="#000000" stroke-linecap="round" stroke-linejoin="round" stroke-width="2.7510828030013355"/>
  <path d="M 49.81361112011913, 65.5903030803858 Q 51.745971933738026, 55.253400064673585, 57.41939321248117, 46.881261267295656 " fill="none" id="curve_13" stroke="#000000" stroke-linecap="round" stroke-linejoin="round" stroke-width="4.3238648278915655"/>
  <path d="M 36.9839649823104, 42.05091826111098 Q 31.415839405130736, 41.303236318330995, 24.45342060503522, 39.98870586258657 " fill="none" id="curve_14" stroke="#000000" stroke-linecap="round" stroke-linejoin="round" stroke-width="3.6321696296168584"/>
  <path d="M 38.16120308456861, 96.76336624409298 Q 40.635763289725844, 87.39837190592644, 47.15433395016829, 78.53010024362635 " fill="none" id="curve_17" stroke="#000000" stroke-linecap="round" stroke-linejoin="round" stroke-width="2.8739406487093007"/>
  <path d="M 51.20706389422888, 52.861721139169916 Q 55.96067135867839, 50.708934288274016, 59.412536082676006, 45.75942534559514 " fill="none" id="curve_18" stroke="#000000" stroke-linecap="round" stroke-linejoin="round" stroke-width="3.5109040180756614"/>
  <path d="M 41.35610247661645, 76.13729489564702 Q 39.458940336168396, 75.41690884696277, 33.890541309394806, 74.54207525403048 " fill="none" id="curve_21" stroke="#000000" stroke-linecap="round" stroke-linejoin="round" stroke-width="2.7336484508407017"/>
  <path d="M 30.77915321141309, 42.96516976314898 Q 27.50004558603056, 41.06332600193622, 22.375942901445796, 37.58553007892413 " fill="none" id="curve_31" stroke="#000000" stroke-linecap="round" stroke-linejoin="round" stroke-width="2.6516095460611937"/>
  <path d="M 22.375942901445796, 37.58553007892413 Q 22.811604232389183, 37.515384947578724, 23.3923661929145, 37.390117450259474 " fill="none" id="curve_31" stroke="#000000" stroke-linecap="round" stroke-linejoin="round" stroke-width="3.007199313246569"/>
  <path d="M 37.54260070487892, 100.26530705761219 Q 38.89161018960572, 93.23621988298562, 42.36846611728804, 86.59908916050036 " fill="none" id="curve_34" stroke="#000000" stroke-linecap="round" stroke-linejoin="round" stroke-width="3.236958009648952"/>
  <path d="M 28.269550445574055, 75.19374151327011 Q 26.48537611374008, 76.06614498881093, 24.870888004260678, 78.17934376808121 " fill="none" id="curve_45" stroke="#000000" stroke-linecap="round" stroke-linejoin="round" stroke-width="4.099288637390174"/>
  <path d="M 54.323374364939724, 50.55299176772653 Q 54.84854155130936, 46.835994233888975, 55.78872302954789, 42.58851639573989 " fill="none" id="curve_53" stroke="#000000" stroke-linecap="round" stroke-linejoin="round" stroke-width="3.504629547411218"/>
  <path d="M 50.57170359239209, 39.95612484841537 Q 52.02695330213739, 39.72530805776815, 53.66253818595232, 39.23640331441813 " fill="none" id="curve_57" stroke="#000000" stroke-linecap="round" stroke-linejoin="round" stroke-width="3.2226780630795395"/>
  <path d="M 53.397051388900806, 40.237130567465016 Q 52.828416462691436, 39.76762224019713, 51.01518794894113, 39.30662188185404 " fill="none" id="curve_60" stroke="#000000" stroke-linecap="round" stroke-linejoin="round" stroke-width="3.3846796161297337"/>
  <path d="M 35.14324145212643, 100.59531926313142 Q 38.631036179497194, 98.89256759249963, 40.78094024810359, 92.38190937964526 " fill="none" id="curve_115" stroke="#000000" stroke-linecap="round" stroke-linejoin="round" stroke-width="3.297423669738095"/>
</svg>
