<?xml version="1.0" ?>
<svg height="140" width="140" xmlns="http://www.w3.org/2000/svg">
  <path d="M 71.87161636352539, 44.211904883384705 Q 71.34750817768649, 34.52678416088552, 65.99909581067482, 29.675010662232587 " fill="none" id="curve_1" stroke="#000000" stroke-linecap="round" stroke-linejoin="round" stroke-width="5.1359753336985605"/>
  <path d="M 65.99909581067482, 29.675010662232587 Q 63.471041451251665, 27.485435460240843, 57.125959864256274, 25.401882992231663 " fill="none" id="curve_1" stroke="#000000" stroke-linecap="round" stroke-linejoin="round" stroke-width="3.588911299680352"/>
  <path d="M 57.125959864256274, 25.401882992231663 Q 46.33965565078822, 25.619065720537307, 45.18685951372059, 30.32270023815536 " fill="none" id="curve_1" stroke="#000000" stroke-linecap="round" stroke-linejoin="round" stroke-width="2.969873502384068"/>
  <path d="M 45.18685951372059, 30.32270023815536 Q 38.98402251472986, 33.0360728326454, 36.48557280798893, 44.617465579730855 " fill="none" id="curve_1" stroke="#000000" stroke-linecap="round" stroke-linejoin="round" stroke-width="5.312503052379406"/>
  <path d="M 36.48557280798893, 44.617465579730855 Q 36.566863041790214, 67.10681837107455, 39.75281851526996, 71.01816259522498 " fill="none" id="curve_1" stroke="#000000" stroke-linecap="round" stroke-linejoin="round" stroke-width="4.272703913850823"/>
  <path d="M 39.75281851526996, 71.01816259522498 Q 41.24348672682441, 75.5828837740158, 44.42871127199058, 79.43630075425938 " fill="none" id="curve_1" stroke="#000000" stroke-linecap="round" stroke-linejoin="round" stroke-width="2.9630781889173496"/>
  <path d="M 35.675642762869096, 74.16448850085582 Q 31.601643129085037, 75.17590321636652, 30.227870013865704, 79.93335072055827 " fill="none" id="curve_2" stroke="#000000" stroke-linecap="round" stroke-linejoin="round" stroke-width="3.269583868024887"/>
  <path d="M 30.227870013865704, 79.93335072055827 Q 29.0971413317952, 83.57444766358138, 28.737265508747868, 96.38970103364016 " fill="none" id="curve_2" stroke="#000000" stroke-linecap="round" stroke-linejoin="round" stroke-width="3.3774197516664755"/>
  <path d="M 28.737265508747868, 96.38970103364016 Q 30.357301713770383, 108.17247619831079, 40.32234264626551, 110.53735460264261 " fill="none" id="curve_2" stroke="#000000" stroke-linecap="round" stroke-linejoin="round" stroke-width="5.125522043884271"/>
  <path d="M 40.32234264626551, 110.53735460264261 Q 53.15504725377475, 108.75408527816168, 60.20906502155199, 92.34224032221205 " fill="none" id="curve_2" stroke="#000000" stroke-linecap="round" stroke-linejoin="round" stroke-width="5.192559452051134"/>
  <path d="M 60.20906502155199, 92.34224032221205 Q 64.55744274472382, 85.3785818036571, 71.271341488762, 67.58502630950137 " fill="none" id="curve_2" stroke="#000000" stroke-linecap="round" stroke-linejoin="round" stroke-width="6.333365933508814"/>
  <path d="M 71.271341488762, 67.58502630950137 Q 72.15078679652368, 63.59524676714409, 72.61390730164393, 51.23727475334636 " fill="none" id="curve_2" stroke="#000000" stroke-linecap="round" stroke-linejoin="round" stroke-width="5.717635728783092"/>
  <path d="M 72.61390730164393, 51.23727475334636 Q 71.64961147955309, 38.57465024521277, 66.91416017412162, 31.663195753327663 " fill="none" id="curve_2" stroke="#000000" stroke-linecap="round" stroke-linejoin="round" stroke-width="3.6769839988567434"/>
  <path d="M 66.91416017412162, 31.663195753327663 Q 69.2074569118038, 32.23074848348322, 70.6493291026915, 33.4875181064521 " fill="none" id="curve_2" stroke="#000000" stroke-linecap="round" stroke-linejoin="round" stroke-width="3.838850174170689"/>
  <path d="M 35.85530199658617, 108.48490976048728 Q 32.094220950132275, 106.52043447589311, 29.63056694687665, 100.48282849450102 " fill="none" id="curve_4" stroke="#000000" stroke-linecap="round" stroke-linejoin="round" stroke-width="3.4429324896623874"/>
  <path d="M 39.91228679348002, 109.89976124503215 Q 35.05179024982718, 108.74032286406508, 31.211865824012285, 105.76151963624133 " fill="none" id="curve_5" stroke="#000000" stroke-linecap="round" stroke-linejoin="round" stroke-width="3.910424131803968"/>
  <path d="M 39.702947635127636, 39.13547815654666 Q 39.339783779324655, 40.44053251108949, 38.68643392923654, 42.33544980321796 " fill="none" id="curve_21" stroke="#000000" stroke-linecap="round" stroke-linejoin="round" stroke-width="2.6145820399459687"/>
  <path d="M 29.227055823212158, 97.16827158886278 Q 30.9602611955099, 102.887720427874, 34.85717013344403, 107.20735480661128 " fill="none" id="curve_24" stroke="#000000" stroke-linecap="round" stroke-linejoin="round" stroke-width="2.696927790150563"/>
  <path d="M 40.33342387298207, 78.20544338846324 Q 39.59567437009556, 66.88600684300012, 35.224120161237614, 59.550177241141014 " fill="none" id="curve_25" stroke="#000000" stroke-linecap="round" stroke-linejoin="round" stroke-width="2.1635512041216387"/>
  <path d="M 35.224120161237614, 59.550177241141014 Q 36.26407514462621, 52.33255549240839, 38.44064843076539, 46.698025440564955 " fill="none" id="curve_25" stroke="#000000" stroke-linecap="round" stroke-linejoin="round" stroke-width="3.3240801421902564"/>
  <path d="M 71.43643884692437, 47.051246460786956 Q 71.01520854684424, 47.53272324879186, 70.4148691234473, 48.404435685271636 " fill="none" id="curve_40" stroke="#000000" stroke-linecap="round" stroke-linejoin="round" stroke-width="3.658524522284737"/>
  <path d="M 70.99988301318484, 38.12017880582543 Q 71.45558773685633, 38.53123083381537, 72.05830190472399, 39.63182242566961 " fill="none" id="curve_41" stroke="#000000" stroke-linecap="round" stroke-linejoin="round" stroke-width="2.383706245711949"/>
  <path d="M 28.827363460345317, 83.8908013741836 Q 28.78472307833818, 84.33829936917581, 28.73659142980147, 85.1081924246997 " fill="none" id="curve_43" stroke="#000000" stroke-linecap="round" stroke-linejoin="round" stroke-width="3.8172545251217187"/>
  <path d="M 51.80997631461129, 25.54647577962781 Q 50.96510100792085, 25.84564985561716, 49.581214666939864, 26.259350798176307 " fill="none" id="curve_46" stroke="#000000" stroke-linecap="round" stroke-linejoin="round" stroke-width="3.043243433584614"/>
  <path d="M 64.99116693771896, 82.35561074232999 Q 61.987740527844494, 84.12959929887882, 60.574517133446044, 91.70831495249482 " fill="none" id="curve_48" stroke="#000000" stroke-linecap="round" stroke-linejoin="round" stroke-width="2.732221601849042"/>
  <path d="M 57.17067860027278, 26.336389525325558 Q 62.74942131200385, 26.84611923778456, 67.27876566022853, 28.728467299339087 " fill="none" id="curve_102" stroke="#000000" stroke-linecap="round" stroke-linejoin="round" stroke-width="1.9541741053930668"/>
  <path d="M 38.37440811035547, 109.63377255232854 Q 45.01625467806575, 109.15453454832144, 49.03805878290589, 106.82248035877392 " fill="none" id="curve_138" stroke="#000000" stroke-linecap="round" stroke-linejoin="round" stroke-width="2.7001278402056537"/>
</svg>
