<?xml version="1.0" ?>
<svg height="140" width="140" xmlns="http://www.w3.org/2000/svg">
  <path d="M 50.773377418518066, 32.86514472961426 Q 50.81916519964678, 33.194688809135954, 52.83720147209624, 33.23802778879525 " fill="none" id="curve_1" stroke="#000000" stroke-linecap="round" stroke-linejoin="round" stroke-width="9.79548574608757"/>
  <path d="M 52.83720147209624, 33.23802778879525 Q 45.63821547203278, 33.93249782669136, 40.02964396042765, 36.55208942383316 " fill="none" id="curve_1" stroke="#000000" stroke-linecap="round" stroke-linejoin="round" stroke-width="9.839163235857553"/>
  <path d="M 40.02964396042765, 36.55208942383316 Q 32.22950628621269, 39.57029219167086, 27.4817008130946, 50.60787025514378 " fill="none" id="curve_1" stroke="#000000" stroke-linecap="round" stroke-linejoin="round" stroke-width="9.924154390311482"/>
  <path d="M 27.4817008130946, 50.60787025514378 Q 24.299531770273152, 58.069857872990866, 21.556742013632775, 85.45899373605482 " fill="none" id="curve_1" stroke="#000000" stroke-linecap="round" stroke-linejoin="round" stroke-width="7.399565175730656"/>
  <path d="M 21.556742013632775, 85.45899373605482 Q 24.854769608246304, 111.6440881478125, 44.83026366627969, 121.43563106291583 " fill="none" id="curve_1" stroke="#000000" stroke-linecap="round" stroke-linejoin="round" stroke-width="5.447303944147662"/>
  <path d="M 44.83026366627969, 121.43563106291583 Q 64.50293652101925, 117.30097689026735, 71.8876566632801, 90.10034945003706 " fill="none" id="curve_1" stroke="#000000" stroke-linecap="round" stroke-linejoin="round" stroke-width="8.178001255678375"/>
  <path d="M 71.8876566632801, 90.10034945003706 Q 72.98118473318362, 86.71712750004734, 73.38447947515016, 74.30549032850871 " fill="none" id="curve_1" stroke="#000000" stroke-linecap="round" stroke-linejoin="round" stroke-width="8.350943982181208"/>
  <path d="M 73.38447947515016, 74.30549032850871 Q 72.80446785466079, 40.45638298508095, 57.36745633002681, 35.09791960771781 " fill="none" id="curve_1" stroke="#000000" stroke-linecap="round" stroke-linejoin="round" stroke-width="7.659155985155093"/>
  <path d="M 57.36745633002681, 35.09791960771781 Q 69.01692990856155, 40.244334311309515, 71.71783544039478, 71.75933191113373 " fill="none" id="curve_1" stroke="#000000" stroke-linecap="round" stroke-linejoin="round" stroke-width="3.781647820610595"/>
  <path d="M 58.31999240159452, 109.85591441801506 Q 54.44000135715116, 116.68663477336557, 42.959566944523985, 120.21031732400444 " fill="none" id="curve_2" stroke="#000000" stroke-linecap="round" stroke-linejoin="round" stroke-width="4.793541685159248"/>
  <path d="M 42.959566944523985, 120.21031732400444 Q 31.05608855965282, 118.4482476532032, 26.81226260874444, 107.55488422250353 " fill="none" id="curve_2" stroke="#000000" stroke-linecap="round" stroke-linejoin="round" stroke-width="4.551850981264137"/>
  <path d="M 58.13159102025025, 109.02783350525169 Q 65.8938738282774, 105.2918060442889, 69.61526944491222, 85.0252418995519 " fill="none" id="curve_3" stroke="#000000" stroke-linecap="round" stroke-linejoin="round" stroke-width="3.4241109123052116"/>
  <path d="M 60.02722651816097, 112.30464542846474 Q 63.43577143173242, 108.4556681097247, 69.52596700348853, 102.99223408016464 " fill="none" id="curve_4" stroke="#000000" stroke-linecap="round" stroke-linejoin="round" stroke-width="4.784221370149468"/>
  <path d="M 46.34241899272406, 118.08912249749051 Q 39.81320386414339, 116.26015690481027, 34.456802129193676, 111.63675547697922 " fill="none" id="curve_5" stroke="#000000" stroke-linecap="round" stroke-linejoin="round" stroke-width="3.451333817288929"/>
  <path d="M 25.36088809168542, 74.58768690763014 Q 23.6899232186443, 79.03206788663357, 17.76560037534489, 81.31185615412261 " fill="none" id="curve_7" stroke="#000000" stroke-linecap="round" stroke-linejoin="round" stroke-width="3.7406790017835236"/>
  <path d="M 17.76560037534489, 81.31185615412261 Q 23.647743210717124, 87.55923615834715, 27.853726169950548, 102.57880650519081 " fill="none" id="curve_7" stroke="#000000" stroke-linecap="round" stroke-linejoin="round" stroke-width="2.964496493761372"/>
  <path d="M 66.25741366282247, 104.33520278037642 Q 58.638531833177694, 108.15663969213627, 49.98192617481507, 116.27605462815244 " fill="none" id="curve_8" stroke="#000000" stroke-linecap="round" stroke-linejoin="round" stroke-width="4.261845638819904"/>
  <path d="M 65.93657268345423, 106.47488972556255 Q 65.12818731822803, 105.45147018646053, 64.01073142588058, 102.96130083133805 " fill="none" id="curve_9" stroke="#000000" stroke-linecap="round" stroke-linejoin="round" stroke-width="5.357470926850617"/>
  <path d="M 59.03255271361033, 33.79668545639925 Q 63.31532555105463, 34.922695126493174, 66.54488533310875, 38.32304728205592 " fill="none" id="curve_11" stroke="#000000" stroke-linecap="round" stroke-linejoin="round" stroke-width="3.8739374554718506"/>
  <path d="M 2.7691650789788227, 1.4028173227075804 Q 2.055514242232101, 2.295451749143797, 1.250617011874395, 4.830076323997391 " fill="none" id="curve_17" stroke="#000000" stroke-linecap="round" stroke-linejoin="round" stroke-width="2.3898415987406967"/>
  <path d="M 52.27501714486535, 36.47283222707936 Q 56.920441998996644, 37.46533236436955, 64.23319738079815, 39.31285799894713 " fill="none" id="curve_18" stroke="#000000" stroke-linecap="round" stroke-linejoin="round" stroke-width="4.667834833221449"/>
  <path d="M 1.3557283395536572, 127.46768554828932 Q 1.1048782795653995, 131.4249758110988, 0.761611753910238, 137.25809326111155 " fill="none" id="curve_24" stroke="#000000" stroke-linecap="round" stroke-linejoin="round" stroke-width="1.6007856779969352"/>
  <path d="M 0.38372272679380776, 122.27147894222728 Q 0.6189822082696237, 119.9760588831222, 0.7645338495267184, 111.76402239858896 " fill="none" id="curve_25" stroke="#000000" stroke-linecap="round" stroke-linejoin="round" stroke-width="1.450996672475328"/>
  <path d="M 1.082692513083426, 105.0408465696405 Q 0.8949758037034561, 104.47920605917678, 0.8170398565282502, 99.90901444683776 " fill="none" id="curve_26" stroke="#000000" stroke-linecap="round" stroke-linejoin="round" stroke-width="0.9539752121431282"/>
  <path d="M 0.8170398565282502, 99.90901444683776 Q 0.7731145389756722, 98.204885457398, 0.7452694591807221, 88.72823448672942 " fill="none" id="curve_26" stroke="#000000" stroke-linecap="round" stroke-linejoin="round" stroke-width="1.0302358050562745"/>
  <path d="M 0.7452694591807221, 88.72823448672942 Q 0.7796866769178046, 85.6421453493228, 0.8183882002474842, 78.34818680386698 " fill="none" id="curve_26" stroke="#000000" stroke-linecap="round" stroke-linejoin="round" stroke-width="1.0010020832098372"/>
  <path d="M 0.6597651605250415, 71.96259052853739 Q 0.6438575512474063, 69.28948904736924, 0.6056924191059646, 67.3184722195164 " fill="none" id="curve_27" stroke="#000000" stroke-linecap="round" stroke-linejoin="round" stroke-width="1.0266940277743053"/>
  <path d="M 25.27709680469482, 74.7305744524273 Q 26.239226534045635, 74.51082177779932, 26.30876863387808, 66.79245747484943 " fill="none" id="curve_30" stroke="#000000" stroke-linecap="round" stroke-linejoin="round" stroke-width="1.8920355565523215"/>
  <path d="M 18.739617841770404, 77.87304664516115 Q 22.968647973148634, 79.07573266397246, 24.57218340526943, 85.37315420385055 " fill="none" id="curve_31" stroke="#000000" stroke-linecap="round" stroke-linejoin="round" stroke-width="2.587647097467614"/>
  <path d="M 24.57218340526943, 85.37315420385055 Q 24.780994747122573, 92.7158372120017, 26.300365976278403, 94.19239908121469 " fill="none" id="curve_31" stroke="#000000" stroke-linecap="round" stroke-linejoin="round" stroke-width="2.2770337925992457"/>
  <path d="M 19.046277578658618, 77.64366082360581 Q 20.332579612068052, 77.452821328059, 20.987219719933666, 75.88502392177858 " fill="none" id="curve_32" stroke="#000000" stroke-linecap="round" stroke-linejoin="round" stroke-width="2.450370855237191"/>
  <path d="M 54.65666049914895, 30.404733415989682 Q 61.42344236702624, 31.79212294946922, 65.05900935445209, 38.92825826063802 " fill="none" id="curve_35" stroke="#000000" stroke-linecap="round" stroke-linejoin="round" stroke-width="2.5411271083167675"/>
  <path d="M 65.05900935445209, 38.92825826063802 Q 67.16099541604275, 48.49861484827344, 69.3804851071567, 66.135439124269 " fill="none" id="curve_35" stroke="#000000" stroke-linecap="round" stroke-linejoin="round" stroke-width="2.9514386079936097"/>
  <path d="M 69.3804851071567, 66.135439124269 Q 70.0563753162852, 75.42459421288787, 70.82565372579081, 86.17610285489963 " fill="none" id="curve_35" stroke="#000000" stroke-linecap="round" stroke-linejoin="round" stroke-width="3.8749680076399193"/>
  <path d="M 39.90418146605144, 120.91640157940904 Q 37.96932847127252, 121.11170022017107, 36.232587555009665, 121.50138189742201 " fill="none" id="curve_36" stroke="#000000" stroke-linecap="round" stroke-linejoin="round" stroke-width="3.5619002775270117"/>
  <path d="M 58.657639862538936, 109.423392393912 Q 63.93931243756077, 103.71408110042853, 71.50672858755615, 96.34300327443961 " fill="none" id="curve_37" stroke="#000000" stroke-linecap="round" stroke-linejoin="round" stroke-width="4.064397062796965"/>
  <path d="M 67.38558001386815, 44.31556863354192 Q 69.12512511255952, 46.1945044716737, 70.21420947129015, 53.021768416649394 " fill="none" id="curve_43" stroke="#000000" stroke-linecap="round" stroke-linejoin="round" stroke-width="4.328181810732717"/>
  <path d="M 70.47897084268673, 48.303358213518884 Q 64.78386224016083, 42.012046012060566, 52.42578131653817, 32.32992286164382 " fill="none" id="curve_45" stroke="#000000" stroke-linecap="round" stroke-linejoin="round" stroke-width="3.2008687399364644"/>
  <path d="M 52.42578131653817, 32.32992286164382 Q 65.67243982477886, 37.31105120680408, 72.42002988070112, 52.814049717824695 " fill="none" id="curve_45" stroke="#000000" stroke-linecap="round" stroke-linejoin="round" stroke-width="3.6087193408165383"/>
  <path d="M 72.42002988070112, 52.814049717824695 Q 70.3951217778776, 40.89197085437053, 56.13191895976037, 35.42601656750261 " fill="none" id="curve_45" stroke="#000000" stroke-linecap="round" stroke-linejoin="round" stroke-width="3.4472141427671845"/>
  <path d="M 76.09174551032854, 67.55157953433056 Q 69.24141718262169, 58.820902697683486, 57.25227162404285, 36.10227958384709 " fill="none" id="curve_46" stroke="#000000" stroke-linecap="round" stroke-linejoin="round" stroke-width="3.1455429680146856"/>
  <path d="M 48.57904465296694, 120.04190022400093 Q 48.55850056396203, 122.8257521483797, 48.01173327052854, 123.12643640995763 " fill="none" id="curve_56" stroke="#000000" stroke-linecap="round" stroke-linejoin="round" stroke-width="3.533694886678274"/>
  <path d="M 60.45215044739446, 110.47010419261075 Q 63.419523762678004, 109.7083449855306, 66.35561268485318, 107.24433754362349 " fill="none" id="curve_57" stroke="#000000" stroke-linecap="round" stroke-linejoin="round" stroke-width="5.412892572585151"/>
  <path d="M 0.468416353575865, 12.15321287869535 Q 0.7067018360192976, 10.823322722271401, 0.9760765593397793, 6.647399179329036 " fill="none" id="curve_62" stroke="#000000" stroke-linecap="round" stroke-linejoin="round" stroke-width="1.4492411122770834"/>
  <path d="M 64.38844380777334, 39.52991606069975 Q 67.4087792055132, 39.54133279547618, 68.79110678502148, 39.59447210431881 " fill="none" id="curve_90" stroke="#000000" stroke-linecap="round" stroke-linejoin="round" stroke-width="2.6098907815456354"/>
  <path d="M 67.51818817405706, 99.92002322157691 Q 61.05157162519195, 101.39401538290936, 56.97842899904097, 109.88148664984034 " fill="none" id="curve_105" stroke="#000000" stroke-linecap="round" stroke-linejoin="round" stroke-width="2.8068852748954627"/>
  <path d="M 75.98217146298602, 80.6489438557694 Q 75.82486800430044, 76.80161387759473, 74.91606755530647, 75.293081607845 " fill="none" id="curve_160" stroke="#000000" stroke-linecap="round" stroke-linejoin="round" stroke-width="1.921586437069846"/>
  <path d="M 22.374098447915756, 58.602608810198994 Q 22.598803871950572, 57.41495193140766, 23.262420531416176, 55.89617798136333 " fill="none" id="curve_165" stroke="#000000" stroke-linecap="round" stroke-linejoin="round" stroke-width="3.0965923828274735"/>
  <path d="M 66.22070296346828, 88.7011222228505 Q 69.62744170209223, 91.64005632990641, 73.28879925422606, 94.8018531559175 " fill="none" id="curve_193" stroke="#000000" stroke-linecap="round" stroke-linejoin="round" stroke-width="2.8720393023649047"/>
</svg>
