<?xml version="1.0" ?>
<svg height="140" width="140" xmlns="http://www.w3.org/2000/svg">
  <path d="M 71.09962463378906, 85.72376251220703 Q 72.02198951209068, 84.90596323575586, 72.31767423353176, 77.80264229734712 " fill="none" id="curve_1" stroke="#000000" stroke-linecap="round" stroke-linejoin="round" stroke-width="9.950201086483679"/>
  <path d="M 71.92262640724792, 73.01904705696995 Q 71.97827117667704, 79.42743596038439, 72.12061098799066, 88.81252420526768 " fill="none" id="curve_2" stroke="#000000" stroke-linecap="round" stroke-linejoin="round" stroke-width="4.344214863001713"/>
  <path d="M 72.12061098799066, 88.81252420526768 Q 67.76041699312536, 96.4372752309636, 50.78849957874253, 102.30225389355712 " fill="none" id="curve_2" stroke="#000000" stroke-linecap="round" stroke-linejoin="round" stroke-width="4.899035673569203"/>
  <path d="M 50.78849957874253, 102.30225389355712 Q 27.23846555036745, 102.12958398938501, 24.751188661911694, 92.60483388709488 " fill="none" id="curve_2" stroke="#000000" stroke-linecap="round" stroke-linejoin="round" stroke-width="6.06683852734422"/>
  <path d="M 24.751188661911694, 92.60483388709488 Q 18.584709540756506, 91.3594713371957, 17.25728340244685, 78.33236044907247 " fill="none" id="curve_2" stroke="#000000" stroke-linecap="round" stroke-linejoin="round" stroke-width="7.761405319549205"/>
  <path d="M 17.25728340244685, 78.33236044907247 Q 18.011598590439984, 60.41468639056781, 34.711300409756205, 56.831987643874214 " fill="none" id="curve_2" stroke="#000000" stroke-linecap="round" stroke-linejoin="round" stroke-width="5.736922358342511"/>
  <path d="M 34.711300409756205, 56.831987643874214 Q 46.401961894019706, 56.554063982317146, 55.289595635895566, 56.062319081841764 " fill="none" id="curve_2" stroke="#000000" stroke-linecap="round" stroke-linejoin="round" stroke-width="6.683064994677818"/>
  <path d="M 55.289595635895566, 56.062319081841764 Q 62.98302378499014, 60.08710066047759, 67.01509047695349, 71.38858649565682 " fill="none" id="curve_2" stroke="#000000" stroke-linecap="round" stroke-linejoin="round" stroke-width="5.502758461247632"/>
  <path d="M 67.01509047695349, 71.38858649565682 Q 71.62326313518099, 71.33838121338758, 73.65303576257983, 71.16104930142917 " fill="none" id="curve_2" stroke="#000000" stroke-linecap="round" stroke-linejoin="round" stroke-width="4.067621214219869"/>
  <path d="M 66.50071624922462, 93.33076258927824 Q 70.9966499166686, 90.77313358751924, 73.28212562227918, 83.2254943991619 " fill="none" id="curve_3" stroke="#000000" stroke-linecap="round" stroke-linejoin="round" stroke-width="3.302447271900037"/>
  <path d="M 63.79924104598399, 60.00227717105722 Q 65.1279521442039, 60.57431338771989, 66.74993392726654, 61.33791931717694 " fill="none" id="curve_4" stroke="#000000" stroke-linecap="round" stroke-linejoin="round" stroke-width="3.742658920432871"/>
  <path d="M 50.22008525311801, 53.94482622800796 Q 55.895755652970315, 55.99086943861985, 60.48180640480922, 60.39869027286931 " fill="none" id="curve_5" stroke="#000000" stroke-linecap="round" stroke-linejoin="round" stroke-width="4.6703297723412565"/>
  <path d="M 60.48180640480922, 60.39869027286931 Q 60.31315429125289, 58.78356474628652, 60.09770471599926, 56.34109943234604 " fill="none" id="curve_5" stroke="#000000" stroke-linecap="round" stroke-linejoin="round" stroke-width="5.710896308764828"/>
  <path d="M 27.769255998938405, 94.07200718568271 Q 30.906397307921388, 95.51124360631948, 32.406361955114875, 99.95771586611679 " fill="none" id="curve_20" stroke="#000000" stroke-linecap="round" stroke-linejoin="round" stroke-width="3.1842771117167725"/>
  <path d="M 51.25380135519485, 100.35249677702602 Q 46.43028875245435, 100.5914895093098, 42.40441633165781, 101.38191145097049 " fill="none" id="curve_21" stroke="#000000" stroke-linecap="round" stroke-linejoin="round" stroke-width="3.036150571346997"/>
  <path d="M 50.68364324330538, 59.14722570756513 Q 57.25993929415996, 59.88048337193221, 59.640927444188435, 63.2478697090898 " fill="none" id="curve_22" stroke="#000000" stroke-linecap="round" stroke-linejoin="round" stroke-width="3.405570941681576"/>
  <path d="M 75.4568308476513, 82.61336955882908 Q 69.77815828633435, 86.58779389226476, 65.35724456820117, 94.57041005540773 " fill="none" id="curve_23" stroke="#000000" stroke-linecap="round" stroke-linejoin="round" stroke-width="3.542000892122156"/>
  <path d="M 19.358980394694633, 92.68497571300495 Q 21.3288479245147, 93.2450381363134, 24.74232929994912, 93.79815365433925 " fill="none" id="curve_39" stroke="#000000" stroke-linecap="round" stroke-linejoin="round" stroke-width="3.463218354661214"/>
  <path d="M 24.74232929994912, 93.79815365433925 Q 22.31834019076169, 86.3446598183569, 13.951403545930303, 80.97971288883575 " fill="none" id="curve_39" stroke="#000000" stroke-linecap="round" stroke-linejoin="round" stroke-width="3.020153113977889"/>
  <path d="M 20.15629192353891, 65.44360387518536 Q 17.12513237568319, 69.36196120676411, 14.41726631020348, 75.84820027302959 " fill="none" id="curve_40" stroke="#000000" stroke-linecap="round" stroke-linejoin="round" stroke-width="3.707263702306864"/>
  <path d="M 54.64935224730011, 100.79708430461159 Q 60.40908194851243, 99.26115240226929, 65.78365610421724, 96.11376564803462 " fill="none" id="curve_44" stroke="#000000" stroke-linecap="round" stroke-linejoin="round" stroke-width="2.998585872454703"/>
  <path d="M 47.98664049540947, 55.66034137743039 Q 43.329914756090695, 55.56819209397483, 38.566762667954926, 55.28781923368094 " fill="none" id="curve_49" stroke="#000000" stroke-linecap="round" stroke-linejoin="round" stroke-width="3.181724656855784"/>
  <path d="M 46.208610883902715, 54.60063275323868 Q 49.125893215244474, 54.54673390106014, 52.064937259329476, 54.42749274624407 " fill="none" id="curve_56" stroke="#000000" stroke-linecap="round" stroke-linejoin="round" stroke-width="3.103221556701143"/>
  <path d="M 42.44630364038169, 98.87789101231874 Q 40.759740080117, 100.63401922552961, 37.43749336194476, 102.57964655183127 " fill="none" id="curve_73" stroke="#000000" stroke-linecap="round" stroke-linejoin="round" stroke-width="4.737533852985294"/>
  <path d="M 16.259946653955016, 85.25514247897176 Q 16.91468462548684, 85.2863953046713, 17.581181729177246, 85.34301532172375 " fill="none" id="curve_75" stroke="#000000" stroke-linecap="round" stroke-linejoin="round" stroke-width="5.958960202719076"/>
  <path d="M 52.265632974076524, 100.46985247947231 Q 60.60122455334661, 98.75063526647023, 66.17605875085279, 94.04472082541042 " fill="none" id="curve_143" stroke="#000000" stroke-linecap="round" stroke-linejoin="round" stroke-width="2.465937791226614"/>
</svg>
