<?xml version="1.0" ?>
<svg height="140" width="140" xmlns="http://www.w3.org/2000/svg">
  <path d="M 32.798977851867676, 92.68720245361328 Q 32.40345066647111, 95.79225117115128, 26.911668844970336, 96.81567263736997 " fill="none" id="curve_1" stroke="#000000" stroke-linecap="round" stroke-linejoin="round" stroke-width="6.060927768816415"/>
  <path d="M 26.911668844970336, 96.81567263736997 Q 21.207158015249377, 96.68572356896628, 17.13152374947994, 96.30557046066708 " fill="none" id="curve_1" stroke="#000000" stroke-linecap="round" stroke-linejoin="round" stroke-width="5.492114548942809"/>
  <path d="M 17.13152374947994, 96.30557046066708 Q 9.530743352051037, 94.10698097258107, 5.15961620395127, 83.59622673383736 " fill="none" id="curve_1" stroke="#000000" stroke-linecap="round" stroke-linejoin="round" stroke-width="5.354112636688802"/>
  <path d="M 5.15961620395127, 83.59622673383736 Q 5.844112431312719, 67.63711256537948, 14.844242135676486, 61.1650565758288 " fill="none" id="curve_1" stroke="#000000" stroke-linecap="round" stroke-linejoin="round" stroke-width="5.357468421943348"/>
  <path d="M 14.844242135676486, 61.1650565758288 Q 18.96395718472254, 54.93926254852562, 36.306179771264375, 51.82499212828547 " fill="none" id="curve_1" stroke="#000000" stroke-linecap="round" stroke-linejoin="round" stroke-width="5.228637969690197"/>
  <path d="M 36.306179771264375, 51.82499212828547 Q 45.215103549961185, 53.25668423153093, 46.58955093417549, 66.02310252118804 " fill="none" id="curve_1" stroke="#000000" stroke-linecap="round" stroke-linejoin="round" stroke-width="4.836542287391533"/>
  <path d="M 46.58955093417549, 66.02310252118804 Q 46.55189034742742, 86.49326713000606, 44.711294069085206, 87.66368415042501 " fill="none" id="curve_1" stroke="#000000" stroke-linecap="round" stroke-linejoin="round" stroke-width="3.5707402028623814"/>
  <path d="M 44.711294069085206, 87.66368415042501 Q 39.66092010920357, 91.99650840223644, 32.09238909587978, 96.12842368665513 " fill="none" id="curve_1" stroke="#000000" stroke-linecap="round" stroke-linejoin="round" stroke-width="3.6372205455120192"/>
  <path d="M 38.44944341595078, 56.72846846314374 Q 37.76602731418422, 55.555272940320094, 31.109085081484473, 55.32976622583713 " fill="none" id="curve_3" stroke="#000000" stroke-linecap="round" stroke-linejoin="round" stroke-width="3.772147329096546"/>
  <path d="M 48.23443224432135, 74.09118240789111 Q 47.4828325832302, 78.76910145789896, 46.01977037208827, 83.59363402324475 " fill="none" id="curve_4" stroke="#000000" stroke-linecap="round" stroke-linejoin="round" stroke-width="2.71609476907104"/>
  <path d="M 90.76092733558494, 74.44867534544842 Q 90.48580195056842, 77.15487896919453, 90.08208884437033, 85.40201710174082 " fill="none" id="curve_5" stroke="#000000" stroke-linecap="round" stroke-linejoin="round" stroke-width="1.8517964125987512"/>
  <path d="M 90.08208884437033, 85.40201710174082 Q 89.98020711444575, 93.4271960202627, 89.66249041562007, 123.99733444520794 " fill="none" id="curve_5" stroke="#000000" stroke-linecap="round" stroke-linejoin="round" stroke-width="1.692869771563242"/>
  <path d="M 89.66249041562007, 123.99733444520794 Q 89.6327617073807, 133.42571096425797, 89.54075509199735, 138.2483241003856 " fill="none" id="curve_5" stroke="#000000" stroke-linecap="round" stroke-linejoin="round" stroke-width="2.6048402145893372"/>
  <path d="M 90.04592031701021, 73.17015170677487 Q 89.58852868020585, 72.75357436095217, 89.53304741062148, 60.16580959087059 " fill="none" id="curve_8" stroke="#000000" stroke-linecap="round" stroke-linejoin="round" stroke-width="1.6357585081204211"/>
  <path d="M 89.4015063444221, 56.526259710823936 Q 89.5358400712103, 55.04250652337026, 89.60939648473523, 42.79885718542782 " fill="none" id="curve_9" stroke="#000000" stroke-linecap="round" stroke-linejoin="round" stroke-width="1.3638120502375823"/>
  <path d="M 89.60939648473523, 42.79885718542782 Q 89.54962944821375, 41.33919024042828, 89.51929974282048, 30.44886538702694 " fill="none" id="curve_9" stroke="#000000" stroke-linecap="round" stroke-linejoin="round" stroke-width="1.4501540057630424"/>
  <path d="M 89.51929974282048, 30.44886538702694 Q 89.52528054562346, 26.240247311963955, 89.53741003112755, 17.21869418341366 " fill="none" id="curve_9" stroke="#000000" stroke-linecap="round" stroke-linejoin="round" stroke-width="1.4306904321693512"/>
  <path d="M 89.53741003112755, 17.21869418341366 Q 89.53062027056235, 13.707479317511925, 89.52001826191209, 3.90746543127743 " fill="none" id="curve_9" stroke="#000000" stroke-linecap="round" stroke-linejoin="round" stroke-width="1.4500649578600044"/>
  <path d="M 89.52001826191209, 3.90746543127743 Q 89.39120304294102, 1.6202320631024207, 88.82195798778794, 0.9431705208465218 " fill="none" id="curve_9" stroke="#000000" stroke-linecap="round" stroke-linejoin="round" stroke-width="2.0711910293762945"/>
  <path d="M 88.82195798778794, 0.9431705208465218 Q 89.34150932606389, 1.0396839993986635, 89.94103304605272, 1.2120334413703588 " fill="none" id="curve_9" stroke="#000000" stroke-linecap="round" stroke-linejoin="round" stroke-width="1.3291969710403273"/>
  <path d="M 43.70180277472115, 55.896700454733576 Q 43.24188754275198, 51.871792540106874, 38.68706636291164, 50.97832376587293 " fill="none" id="curve_17" stroke="#000000" stroke-linecap="round" stroke-linejoin="round" stroke-width="3.7015501761098912"/>
  <path d="M 31.13542115088478, 59.26006223980971 Q 30.824461575744824, 55.80728292829723, 29.518733792531616, 53.85197946077852 " fill="none" id="curve_32" stroke="#000000" stroke-linecap="round" stroke-linejoin="round" stroke-width="2.2244920942352646"/>
  <path d="M 6.456702953883504, 70.43115675858745 Q 4.867833809938247, 72.70612938309738, 4.146026231500713, 82.6934848583754 " fill="none" id="curve_33" stroke="#000000" stroke-linecap="round" stroke-linejoin="round" stroke-width="2.6174583441033015"/>
  <path d="M 40.580438082930925, 58.836215038948254 Q 40.83258358470986, 57.34305499098835, 41.587644586779824, 55.85293242157494 " fill="none" id="curve_49" stroke="#000000" stroke-linecap="round" stroke-linejoin="round" stroke-width="2.9932541150967906"/>
  <path d="M 25.49994151000352, 53.425507959431215 Q 22.665899210378058, 53.9714831799152, 19.398684123337755, 55.332351269291586 " fill="none" id="curve_50" stroke="#000000" stroke-linecap="round" stroke-linejoin="round" stroke-width="2.7045998912901794"/>
  <path d="M 45.266284210319675, 82.93957046286553 Q 45.62679391622855, 83.23816739893469, 45.92972140040086, 84.12322173863944 " fill="none" id="curve_67" stroke="#000000" stroke-linecap="round" stroke-linejoin="round" stroke-width="3.6892706384432676"/>
  <path d="M 45.92972140040086, 84.12322173863944 Q 46.09129329145614, 83.75510722524828, 46.257649822743055, 82.56123745098189 " fill="none" id="curve_67" stroke="#000000" stroke-linecap="round" stroke-linejoin="round" stroke-width="3.474848324104275"/>
  <path d="M 18.775806679944324, 95.85119519391475 Q 11.840450657116307, 93.98508652082916, 5.232071092267528, 87.28923984133549 " fill="none" id="curve_69" stroke="#000000" stroke-linecap="round" stroke-linejoin="round" stroke-width="2.11188431584655"/>
  <path d="M 20.24170235812924, 94.82132862026391 Q 10.796783700991696, 94.12842425410625, 7.632775084091984, 88.09014518135756 " fill="none" id="curve_111" stroke="#000000" stroke-linecap="round" stroke-linejoin="round" stroke-width="2.2894032382438634"/>
  <path d="M 6.4698617551442865, 69.98500665500605 Q 6.334611954912076, 70.2780688438215, 6.12273455929904, 70.92956427409922 " fill="none" id="curve_114" stroke="#000000" stroke-linecap="round" stroke-linejoin="round" stroke-width="2.487398777517156"/>
  <path d="M 45.23694379273031, 81.79639481159893 Q 45.04508094456892, 84.05107033086944, 44.60005967037707, 86.75681610207654 " fill="none" id="curve_131" stroke="#000000" stroke-linecap="round" stroke-linejoin="round" stroke-width="2.3679290558867887"/>
</svg>
