<?xml version="1.0" ?>
<svg height="140" width="140" xmlns="http://www.w3.org/2000/svg">
  <path d="M 86.55071640014648, -1.3862123489379883 Q 87.77415503280002, -0.39934220563278255, 89.3157664511341, 1.491250141654632 " fill="none" id="curve_1" stroke="#000000" stroke-linecap="round" stroke-linejoin="round" stroke-width="2.337770971208907"/>
  <path d="M 89.3157664511341, 1.491250141654632 Q 89.37364535710438, 12.96274854898394, 89.72328127730856, 22.589267513983028 " fill="none" id="curve_1" stroke="#000000" stroke-linecap="round" stroke-linejoin="round" stroke-width="1.4320330690966026"/>
  <path d="M 89.72328127730856, 22.589267513983028 Q 89.71373410165329, 35.23932891285015, 89.63615433068614, 47.500836021949254 " fill="none" id="curve_1" stroke="#000000" stroke-linecap="round" stroke-linejoin="round" stroke-width="1.5001328794887228"/>
  <path d="M 89.63615433068614, 47.500836021949254 Q 89.64902155611225, 61.504475961784344, 89.78548547554419, 73.25214487332553 " fill="none" id="curve_1" stroke="#000000" stroke-linecap="round" stroke-linejoin="round" stroke-width="1.632890351926867"/>
  <path d="M 89.78548547554419, 73.25214487332553 Q 89.7611543515758, 81.62407589387306, 89.67118199021033, 99.35303915280912 " fill="none" id="curve_1" stroke="#000000" stroke-linecap="round" stroke-linejoin="round" stroke-width="1.5088583811093053"/>
  <path d="M 89.67118199021033, 99.35303915280912 Q 89.68397209699579, 113.11371525942722, 89.80736542595444, 127.72268824754894 " fill="none" id="curve_1" stroke="#000000" stroke-linecap="round" stroke-linejoin="round" stroke-width="1.6916620683356112"/>
  <path d="M 89.80736542595444, 127.72268824754894 Q 89.68967332999244, 134.52060316061028, 89.40097422787173, 138.655054655528 " fill="none" id="curve_1" stroke="#000000" stroke-linecap="round" stroke-linejoin="round" stroke-width="2.1273890407611757"/>
  <path d="M 55.61422147174861, 70.93938290456343 Q 52.43238130288296, 78.05434594812986, 42.43165113879687, 87.74552627434758 " fill="none" id="curve_5" stroke="#000000" stroke-linecap="round" stroke-linejoin="round" stroke-width="3.7078999867309395"/>
  <path d="M 42.43165113879687, 87.74552627434758 Q 40.2927763646526, 89.7331966368354, 30.601201909946784, 90.18078245405002 " fill="none" id="curve_5" stroke="#000000" stroke-linecap="round" stroke-linejoin="round" stroke-width="5.904421437003467"/>
  <path d="M 30.601201909946784, 90.18078245405002 Q 28.704087005669592, 88.17184664391452, 26.160985115132505, 86.57673643292424 " fill="none" id="curve_5" stroke="#000000" stroke-linecap="round" stroke-linejoin="round" stroke-width="4.923581343510222"/>
  <path d="M 26.160985115132505, 86.57673643292424 Q 26.630823929707724, 68.42741802376892, 33.19541060754791, 57.893181844528655 " fill="none" id="curve_5" stroke="#000000" stroke-linecap="round" stroke-linejoin="round" stroke-width="4.953259406342837"/>
  <path d="M 33.19541060754791, 57.893181844528655 Q 38.602390985093216, 52.68528967260086, 48.91271179601929, 48.19394975856141 " fill="none" id="curve_5" stroke="#000000" stroke-linecap="round" stroke-linejoin="round" stroke-width="5.247408244396907"/>
  <path d="M 48.91271179601929, 48.19394975856141 Q 57.0426264403488, 48.50117328183352, 59.42649788589121, 49.75781115587329 " fill="none" id="curve_5" stroke="#000000" stroke-linecap="round" stroke-linejoin="round" stroke-width="4.036514921098556"/>
  <path d="M 59.42649788589121, 49.75781115587329 Q 58.649727762600016, 66.26769100406187, 54.93511396497442, 71.60302685786924 " fill="none" id="curve_5" stroke="#000000" stroke-linecap="round" stroke-linejoin="round" stroke-width="3.6539616934876205"/>
  <path d="M 58.24879277961716, 54.82443412727912 Q 57.76860424271578, 53.29423923619788, 57.238048681085125, 50.679326314578674 " fill="none" id="curve_6" stroke="#000000" stroke-linecap="round" stroke-linejoin="round" stroke-width="3.064830321706383"/>
  <path d="M 43.01300782770082, 48.43802200502082 Q 44.964905126453104, 49.030223952246146, 50.376516083744036, 49.47335158998135 " fill="none" id="curve_7" stroke="#000000" stroke-linecap="round" stroke-linejoin="round" stroke-width="2.9246110592176002"/>
  <path d="M 43.285525562086804, 87.33275545172788 Q 40.40755194577695, 87.3281220628941, 38.451288394290884, 87.31317524222393 " fill="none" id="curve_10" stroke="#000000" stroke-linecap="round" stroke-linejoin="round" stroke-width="3.443761542249349"/>
  <path d="M 53.07637686254103, 75.69055248251212 Q 51.69949793532361, 77.53866771669911, 50.11415390511276, 81.27621313060966 " fill="none" id="curve_11" stroke="#000000" stroke-linecap="round" stroke-linejoin="round" stroke-width="2.8415136592928483"/>
  <path d="M 45.20872116088867, 86.83351755142212 Q 43.9713748965631, 86.44086893440439, 42.064981310616645, 85.88096897618414 " fill="none" id="curve_25" stroke="#000000" stroke-linecap="round" stroke-linejoin="round" stroke-width="3.72634366053799"/>
  <path d="M 57.46683762575841, 55.23991373257502 Q 57.967997149822544, 56.82214391848112, 58.441673704316685, 61.13179700934874 " fill="none" id="curve_27" stroke="#000000" stroke-linecap="round" stroke-linejoin="round" stroke-width="2.1234802385957967"/>
  <path d="M 56.9701626002643, 71.27777430676997 Q 52.745012626594516, 72.47273851423068, 50.78619266204862, 77.59455130392965 " fill="none" id="curve_42" stroke="#000000" stroke-linecap="round" stroke-linejoin="round" stroke-width="2.322728516900118"/>
  <path d="M 51.8522811192423, 50.17209290502019 Q 49.50084866011694, 49.3552182218426, 45.880203561287956, 48.3787447714199 " fill="none" id="curve_43" stroke="#000000" stroke-linecap="round" stroke-linejoin="round" stroke-width="3.6920973362060936"/>
</svg>
