<?xml version="1.0" ?>
<svg height="140" width="140" xmlns="http://www.w3.org/2000/svg">
  <path d="M 53.83826372027397, 77.90538597106934 Q 53.59148124877243, 77.62627530347163, 51.255312564098745, 77.49590567550489 " fill="none" id="curve_1" stroke="#000000" stroke-linecap="round" stroke-linejoin="round" stroke-width="6.923814075626015"/>
  <path d="M 51.255312564098745, 77.49590567550489 Q 43.98119605475105, 77.39132483002264, 40.73846679798141, 76.61608318986464 " fill="none" id="curve_1" stroke="#000000" stroke-linecap="round" stroke-linejoin="round" stroke-width="6.253582851141882"/>
  <path d="M 40.73846679798141, 76.61608318986464 Q 34.093159517633865, 82.13591397502103, 23.90966186631667, 97.25947321614012 " fill="none" id="curve_1" stroke="#000000" stroke-linecap="round" stroke-linejoin="round" stroke-width="5.0738602346033135"/>
  <path d="M 23.90966186631667, 97.25947321614012 Q 24.571884457676475, 108.86986184333429, 28.17609331059609, 111.27199188941881 " fill="none" id="curve_1" stroke="#000000" stroke-linecap="round" stroke-linejoin="round" stroke-width="5.400811272525665"/>
  <path d="M 28.17609331059609, 111.27199188941881 Q 47.47000839490344, 109.63661201305865, 60.47483156283265, 87.7231139985282 " fill="none" id="curve_1" stroke="#000000" stroke-linecap="round" stroke-linejoin="round" stroke-width="4.151405240521078"/>
  <path d="M 60.47483156283265, 87.7231139985282 Q 59.579405317305934, 81.30904450356775, 54.00332362273623, 79.21408074268119 " fill="none" id="curve_1" stroke="#000000" stroke-linecap="round" stroke-linejoin="round" stroke-width="4.30881146934659"/>
  <path d="M 90.36842084398714, 78.01776787240642 Q 89.32731491647543, 78.43167250589262, 89.25286550570205, 109.0863044198897 " fill="none" id="curve_2" stroke="#000000" stroke-linecap="round" stroke-linejoin="round" stroke-width="2.8338609136598523"/>
  <path d="M 89.25286550570205, 109.0863044198897 Q 89.27061840283521, 123.8310265954664, 89.42707115533275, 136.82590311553238 " fill="none" id="curve_2" stroke="#000000" stroke-linecap="round" stroke-linejoin="round" stroke-width="2.32582692906255"/>
  <path d="M 89.42707115533275, 136.82590311553238 Q 89.38838360514077, 138.59176706897725, 89.08428188379014, 138.97393516630558 " fill="none" id="curve_2" stroke="#000000" stroke-linecap="round" stroke-linejoin="round" stroke-width="2.345851457519718"/>
  <path d="M 89.7938525415445, 77.19568507983182 Q 89.50385799557363, 73.11738161193726, 89.14515575651141, 62.446319843539676 " fill="none" id="curve_5" stroke="#000000" stroke-linecap="round" stroke-linejoin="round" stroke-width="1.753012244247424"/>
  <path d="M 89.14515575651141, 62.446319843539676 Q 89.18860983293021, 54.77346556313347, 89.3663223049255, 49.93774864050889 " fill="none" id="curve_5" stroke="#000000" stroke-linecap="round" stroke-linejoin="round" stroke-width="1.905593833477478"/>
  <path d="M 89.3663223049255, 49.93774864050889 Q 89.25881129966787, 47.464694466941914, 89.1880725790015, 37.22862218974184 " fill="none" id="curve_5" stroke="#000000" stroke-linecap="round" stroke-linejoin="round" stroke-width="2.128810811903157"/>
  <path d="M 89.1880725790015, 37.22862218974184 Q 89.22935974741468, 29.294548021917706, 89.4481313169742, 24.145957708477475 " fill="none" id="curve_5" stroke="#000000" stroke-linecap="round" stroke-linejoin="round" stroke-width="1.8538467407694388"/>
  <path d="M 89.4481313169742, 24.145957708477475 Q 89.24954422403889, 23.18121946341159, 89.19728601770079, 14.368876459248105 " fill="none" id="curve_5" stroke="#000000" stroke-linecap="round" stroke-linejoin="round" stroke-width="2.12561207261474"/>
  <path d="M 89.19728601770079, 14.368876459248105 Q 89.17448539703663, 2.331263239032795, 88.12220308008011, 1.3665774590122233 " fill="none" id="curve_5" stroke="#000000" stroke-linecap="round" stroke-linejoin="round" stroke-width="2.7392625341554857"/>
  <path d="M 88.12220308008011, 1.3665774590122233 Q 87.40872990932078, 1.4402498334468832, 86.6448552312448, 1.530025635443217 " fill="none" id="curve_5" stroke="#000000" stroke-linecap="round" stroke-linejoin="round" stroke-width="2.967213905574937"/>
  <path d="M 59.627713203430176, 87.52875137329102 Q 58.27997861230679, 85.81403861287212, 56.40293606658662, 82.30970312230812 " fill="none" id="curve_19" stroke="#000000" stroke-linecap="round" stroke-linejoin="round" stroke-width="3.1705854331923744"/>
  <path d="M 56.40293606658662, 82.30970312230812 Q 57.740642698036055, 83.91540694568518, 58.041559273702404, 93.77332286953448 " fill="none" id="curve_19" stroke="#000000" stroke-linecap="round" stroke-linejoin="round" stroke-width="3.119488672883579"/>
  <path d="M 45.471916479060454, 74.66259459174711 Q 44.34501611362628, 74.67466901182112, 42.91274459132898, 74.6940667592183 " fill="none" id="curve_20" stroke="#000000" stroke-linecap="round" stroke-linejoin="round" stroke-width="3.6480697545453777"/>
  <path d="M 26.37652660373264, 90.33050452431772 Q 28.734499703945982, 88.9690805745109, 30.91937561588893, 86.3904500344363 " fill="none" id="curve_21" stroke="#000000" stroke-linecap="round" stroke-linejoin="round" stroke-width="2.6287706861740325"/>
  <path d="M 56.30739299098789, 94.11737320605256 Q 52.46358621655773, 97.42593832084428, 47.51894114704576, 101.93459426660307 " fill="none" id="curve_23" stroke="#000000" stroke-linecap="round" stroke-linejoin="round" stroke-width="3.0599258835773164"/>
  <path d="M 56.30203494508322, 81.9869514338181 Q 57.39377436000105, 81.53547076507867, 58.80036242051509, 80.62088026237672 " fill="none" id="curve_25" stroke="#000000" stroke-linecap="round" stroke-linejoin="round" stroke-width="3.3568623167112754"/>
  <path d="M 55.40604119149839, 81.54584750437834 Q 57.400476461848605, 81.89122134635208, 60.30574060451738, 82.39154613151365 " fill="none" id="curve_92" stroke="#000000" stroke-linecap="round" stroke-linejoin="round" stroke-width="2.376578528313731"/>
  <path d="M 89.69700541811734, 1.8478536246732888 Q 89.31740482046483, 2.4144626351778675, 88.65453496269787, 3.1825431247470126 " fill="none" id="curve_121" stroke="#000000" stroke-linecap="round" stroke-linejoin="round" stroke-width="2.2580116196895403"/>
</svg>
