<?xml version="1.0" ?>
<svg height="140" width="140" xmlns="http://www.w3.org/2000/svg">
  <path d="M 54.45014572143555, 80.07231140136719 Q 53.73521575870538, 87.39228787544995, 46.69846667563934, 89.29681936937253 " fill="none" id="curve_1" stroke="#000000" stroke-linecap="round" stroke-linejoin="round" stroke-width="7.552972410680978"/>
  <path d="M 46.69846667563934, 89.29681936937253 Q 44.531600673566594, 89.60185415504057, 40.660011998735904, 89.90465306030971 " fill="none" id="curve_1" stroke="#000000" stroke-linecap="round" stroke-linejoin="round" stroke-width="6.791397004456409"/>
  <path d="M 40.660011998735904, 89.90465306030971 Q 32.83401831362282, 86.88947158737834, 25.263161031205115, 64.91650175102043 " fill="none" id="curve_1" stroke="#000000" stroke-linecap="round" stroke-linejoin="round" stroke-width="6.5931736019187905"/>
  <path d="M 25.263161031205115, 64.91650175102043 Q 24.847074209534092, 61.81224749369649, 24.59169473525345, 51.30198058841669 " fill="none" id="curve_1" stroke="#000000" stroke-linecap="round" stroke-linejoin="round" stroke-width="4.109426744699378"/>
  <path d="M 36.002618849090744, 41.294121581750176 Q 58.02491691254842, 42.084480380489815, 62.197386644799025, 61.86453315546737 " fill="none" id="curve_2" stroke="#000000" stroke-linecap="round" stroke-linejoin="round" stroke-width="5.252948532484321"/>
  <path d="M 62.197386644799025, 61.86453315546737 Q 60.657957300240454, 78.30771802318576, 53.91166546562308, 84.77301181981954 " fill="none" id="curve_2" stroke="#000000" stroke-linecap="round" stroke-linejoin="round" stroke-width="5.357563949340985"/>
  <path d="M 53.91166546562308, 84.77301181981954 Q 56.82538539090924, 78.32572299110714, 60.23297985618021, 68.40143735722289 " fill="none" id="curve_2" stroke="#000000" stroke-linecap="round" stroke-linejoin="round" stroke-width="3.4435405013155265"/>
  <path d="M 60.23297985618021, 68.40143735722289 Q 60.050054469029945, 44.73377967194625, 44.747790378998914, 43.300193482205614 " fill="none" id="curve_2" stroke="#000000" stroke-linecap="round" stroke-linejoin="round" stroke-width="4.261528377616326"/>
  <path d="M 20.433311270243706, 43.823174002768695 Q 20.85047698595961, 44.465346932632315, 21.49086193980847, 45.41725856209841 " fill="none" id="curve_4" stroke="#000000" stroke-linecap="round" stroke-linejoin="round" stroke-width="2.7277456408948044"/>
  <path d="M 36.73238478212073, 41.480676109023186 Q 35.378698956453114, 41.876276149189344, 34.03172405027956, 42.98348562865462 " fill="none" id="curve_5" stroke="#000000" stroke-linecap="round" stroke-linejoin="round" stroke-width="3.833781122229646"/>
  <path d="M 49.55757516616128, 42.24298549080704 Q 55.53838768496752, 48.833529908014356, 62.693074533222784, 56.43771305673356 " fill="none" id="curve_6" stroke="#000000" stroke-linecap="round" stroke-linejoin="round" stroke-width="3.4394824060649274"/>
  <path d="M 42.058246179880825, 46.9175666197641 Q 42.11292359497233, 46.73079967596084, 42.239901474128125, 46.508678087255234 " fill="none" id="curve_21" stroke="#000000" stroke-linecap="round" stroke-linejoin="round" stroke-width="2.867066024015426"/>
  <path d="M 22.42606976719738, 61.520635859948285 Q 22.555966737223898, 61.59348773696534, 22.633921252783978, 61.84040592321169 " fill="none" id="curve_22" stroke="#000000" stroke-linecap="round" stroke-linejoin="round" stroke-width="5.276771584625028"/>
  <path d="M 42.09015244354259, 40.69946766610288 Q 53.09817098778714, 45.121411014402135, 59.67543467419404, 55.351349455144515 " fill="none" id="curve_23" stroke="#000000" stroke-linecap="round" stroke-linejoin="round" stroke-width="3.114796048312666"/>
  <path d="M 59.67543467419404, 55.351349455144515 Q 57.93075369622081, 48.12972446328116, 49.1454579815196, 44.203354411664975 " fill="none" id="curve_23" stroke="#000000" stroke-linecap="round" stroke-linejoin="round" stroke-width="3.4455859850998767"/>
  <path d="M 49.1454579815196, 44.203354411664975 Q 52.60244821087691, 49.86895527317414, 60.21484473639293, 52.703557356936784 " fill="none" id="curve_23" stroke="#000000" stroke-linecap="round" stroke-linejoin="round" stroke-width="4.269819783188063"/>
  <path d="M 60.21484473639293, 52.703557356936784 Q 57.30513788471401, 47.1335806037642, 48.32502756235381, 41.618683277521356 " fill="none" id="curve_23" stroke="#000000" stroke-linecap="round" stroke-linejoin="round" stroke-width="2.675743318713355"/>
  <path d="M 48.32502756235381, 41.618683277521356 Q 46.64494247462625, 40.6091871227459, 38.24478951194366, 40.18535852785549 " fill="none" id="curve_23" stroke="#000000" stroke-linecap="round" stroke-linejoin="round" stroke-width="2.7390648711907897"/>
  <path d="M 54.502350796716904, 81.36266974664082 Q 53.18168807413473, 88.8819333384498, 46.2421227135779, 91.63258650287474 " fill="none" id="curve_24" stroke="#000000" stroke-linecap="round" stroke-linejoin="round" stroke-width="3.789774308332212"/>
  <path d="M 46.2421227135779, 91.63258650287474 Q 47.985743783138005, 90.60074246167443, 49.83299255035257, 87.01790491617473 " fill="none" id="curve_24" stroke="#000000" stroke-linecap="round" stroke-linejoin="round" stroke-width="2.9143013377153886"/>
  <path d="M 49.83299255035257, 87.01790491617473 Q 51.24764148099448, 84.70509048162984, 53.50390970363134, 82.23875204628435 " fill="none" id="curve_24" stroke="#000000" stroke-linecap="round" stroke-linejoin="round" stroke-width="4.33742310212575"/>
  <path d="M 23.77332748453533, 59.62380247324468 Q 23.95035206156675, 65.56708227913339, 24.492499797751982, 72.40712864347681 " fill="none" id="curve_30" stroke="#000000" stroke-linecap="round" stroke-linejoin="round" stroke-width="2.5705545117910695"/>
  <path d="M 53.47284592776123, 88.56469195568445 Q 48.13996665177072, 89.07476548430412, 45.4795860811499, 91.32001030640302 " fill="none" id="curve_58" stroke="#000000" stroke-linecap="round" stroke-linejoin="round" stroke-width="3.386353201148481"/>
  <path d="M 24.966065248942073, 50.15555164825071 Q 24.56921815033534, 49.52142410848223, 23.83191381507661, 48.95385428828989 " fill="none" id="curve_73" stroke="#000000" stroke-linecap="round" stroke-linejoin="round" stroke-width="2.9920038936924382"/>
  <path d="M 58.53452774203213, 64.75519264614945 Q 58.366763953543305, 70.32396316560035, 57.91291569339581, 74.05081283371251 " fill="none" id="curve_75" stroke="#000000" stroke-linecap="round" stroke-linejoin="round" stroke-width="2.4891319723978933"/>
  <path d="M 24.21794406744583, 62.22634057631822 Q 23.474781708439963, 62.421306596377356, 22.52091386864733, 62.86217415505249 " fill="none" id="curve_78" stroke="#000000" stroke-linecap="round" stroke-linejoin="round" stroke-width="3.6429681671891085"/>
  <path d="M 44.86104695841243, 92.01294273022552 Q 44.3477225225349, 91.94434074163263, 43.92500929381314, 91.78003211840256 " fill="none" id="curve_93" stroke="#000000" stroke-linecap="round" stroke-linejoin="round" stroke-width="3.696359242784862"/>
  <path d="M 63.563947745279165, 59.91164284660317 Q 61.781462270167154, 57.86082185890984, 56.813142933163206, 54.63317993106396 " fill="none" id="curve_121" stroke="#000000" stroke-linecap="round" stroke-linejoin="round" stroke-width="1.9879630033477165"/>
</svg>
