<?xml version="1.0" ?>
<svg height="140" width="140" xmlns="http://www.w3.org/2000/svg">
  <path d="M 87.55019760131836, 1.6331653594970703 Q 87.14075999196805, 2.1851123371645014, 85.74900414015565, 2.510765227202569 " fill="none" id="curve_1" stroke="#000000" stroke-linecap="round" stroke-linejoin="round" stroke-width="4.4186807473146565"/>
  <path d="M 85.74900414015565, 2.510765227202569 Q 88.48582759183945, 2.739384351983754, 88.60965659515293, 16.011969062342235 " fill="none" id="curve_1" stroke="#000000" stroke-linecap="round" stroke-linejoin="round" stroke-width="4.474881355545878"/>
  <path d="M 88.60965659515293, 16.011969062342235 Q 88.54208496935351, 23.561386007273622, 88.26376816779485, 44.70763957244845 " fill="none" id="curve_1" stroke="#000000" stroke-linecap="round" stroke-linejoin="round" stroke-width="4.404676380803208"/>
  <path d="M 88.26376816779485, 44.70763957244845 Q 88.29454039220715, 50.84357938406975, 88.37415208430944, 71.75068428554488 " fill="none" id="curve_1" stroke="#000000" stroke-linecap="round" stroke-linejoin="round" stroke-width="4.536030287558783"/>
  <path d="M 88.37415208430944, 71.75068428554488 Q 88.37433066967738, 81.1286912391951, 88.37522106529416, 99.17927369943695 " fill="none" id="curve_1" stroke="#000000" stroke-linecap="round" stroke-linejoin="round" stroke-width="4.34617844219622"/>
  <path d="M 88.37522106529416, 99.17927369943695 Q 88.36284898194936, 108.52183080658047, 88.30481618389344, 126.70359616815719 " fill="none" id="curve_1" stroke="#000000" stroke-linecap="round" stroke-linejoin="round" stroke-width="4.443458441451531"/>
  <path d="M 88.30481618389344, 126.70359616815719 Q 88.29929623347276, 135.15180859845768, 88.28021606936127, 138.33920810655584 " fill="none" id="curve_1" stroke="#000000" stroke-linecap="round" stroke-linejoin="round" stroke-width="4.406197711266282"/>
  <path d="M 88.28021606936127, 138.33920810655584 Q 88.24495931802002, 138.10556656081798, 88.17807985622565, 137.9076869270615 " fill="none" id="curve_1" stroke="#000000" stroke-linecap="round" stroke-linejoin="round" stroke-width="2.6355556934998066"/>
  <path d="M 46.788432537983276, 95.47737469432826 Q 40.211017901247125, 98.44439247966042, 30.348656507517372, 105.98122061134805 " fill="none" id="curve_2" stroke="#000000" stroke-linecap="round" stroke-linejoin="round" stroke-width="4.588063569004413"/>
  <path d="M 30.348656507517372, 105.98122061134805 Q 19.210934460900095, 105.64488991819746, 18.034181393552103, 94.65545534604149 " fill="none" id="curve_2" stroke="#000000" stroke-linecap="round" stroke-linejoin="round" stroke-width="5.254044085280821"/>
  <path d="M 18.034181393552103, 94.65545534604149 Q 18.09886371214285, 81.01372660209556, 19.203188034792213, 79.42713728000669 " fill="none" id="curve_2" stroke="#000000" stroke-linecap="round" stroke-linejoin="round" stroke-width="5.3570999479746355"/>
  <path d="M 19.203188034792213, 79.42713728000669 Q 23.071941800758747, 68.4083129787403, 37.437102136205795, 55.04422802822872 " fill="none" id="curve_2" stroke="#000000" stroke-linecap="round" stroke-linejoin="round" stroke-width="4.581598051819876"/>
  <path d="M 37.437102136205795, 55.04422802822872 Q 42.27192753613969, 52.83382544787014, 52.02645060627442, 51.46633482168198 " fill="none" id="curve_2" stroke="#000000" stroke-linecap="round" stroke-linejoin="round" stroke-width="5.592946971236028"/>
  <path d="M 52.02645060627442, 51.46633482168198 Q 58.00202191213346, 53.152821103258674, 60.09521215893877, 57.77510161285354 " fill="none" id="curve_2" stroke="#000000" stroke-linecap="round" stroke-linejoin="round" stroke-width="3.599247048223343"/>
  <path d="M 60.09521215893877, 57.77510161285354 Q 58.882003901201486, 74.74795829987039, 48.64200368089624, 91.63344676808025 " fill="none" id="curve_2" stroke="#000000" stroke-linecap="round" stroke-linejoin="round" stroke-width="3.5971391305425335"/>
  <path d="M 48.64200368089624, 91.63344676808025 Q 43.42777689484225, 94.80459322380004, 38.96967149760205, 100.36843276830605 " fill="none" id="curve_2" stroke="#000000" stroke-linecap="round" stroke-linejoin="round" stroke-width="2.6000738143311892"/>
  <path d="M 17.22267478621468, 90.98764555430725 Q 16.983077409037218, 86.88364802432586, 16.65275133671901, 81.97482459363155 " fill="none" id="curve_3" stroke="#000000" stroke-linecap="round" stroke-linejoin="round" stroke-width="2.2941907028130437"/>
  <path d="M 39.98195561628471, 98.65112974893853 Q 38.74400066790895, 103.62433738176857, 29.145141896846688, 104.68803660657422 " fill="none" id="curve_7" stroke="#000000" stroke-linecap="round" stroke-linejoin="round" stroke-width="3.4252762112402118"/>
  <path d="M 16.025235885466895, 94.41904337452678 Q 16.766852450132454, 93.19818683570934, 17.2302249209528, 89.36769836539175 " fill="none" id="curve_8" stroke="#000000" stroke-linecap="round" stroke-linejoin="round" stroke-width="2.874548034909567"/>
  <path d="M 26.197879900731202, 65.23337751574755 Q 32.10147508828254, 58.376354606621305, 45.93288814686164, 51.29496916424823 " fill="none" id="curve_9" stroke="#000000" stroke-linecap="round" stroke-linejoin="round" stroke-width="2.4253550322318054"/>
  <path d="M 85.68266055752923, 2.6522600040787196 Q 87.92459180777303, 3.098137617261483, 89.37314056375472, 4.5618508892348535 " fill="none" id="curve_24" stroke="#000000" stroke-linecap="round" stroke-linejoin="round" stroke-width="3.418739129974293"/>
  <path d="M 57.57048923018095, 60.558065949684114 Q 57.31316393329156, 68.50581469590257, 56.59930320070786, 75.00005848949743 " fill="none" id="curve_35" stroke="#000000" stroke-linecap="round" stroke-linejoin="round" stroke-width="2.426252229019651"/>
  <path d="M 31.060714909269254, 60.941661911683745 Q 36.15132948413412, 54.79455577056362, 51.09730132142668, 50.36492948977561 " fill="none" id="curve_37" stroke="#000000" stroke-linecap="round" stroke-linejoin="round" stroke-width="2.8538249070978456"/>
  <path d="M 90.26351212830679, 3.2426236353837368 Q 89.32621448365983, 2.4295927617877178, 83.43970875556342, 1.919685612656328 " fill="none" id="curve_41" stroke="#000000" stroke-linecap="round" stroke-linejoin="round" stroke-width="2.731644921258176"/>
  <path d="M 46.78427168536473, 50.61240679953772 Q 43.183927497732, 52.628475922227665, 36.727990456909986, 54.91903550510993 " fill="none" id="curve_56" stroke="#000000" stroke-linecap="round" stroke-linejoin="round" stroke-width="3.577913075196126"/>
  <path d="M 35.34520869376021, 57.1192009823222 Q 37.91831399872297, 53.941092302254916, 45.08099850585005, 52.03721645126521 " fill="none" id="curve_150" stroke="#000000" stroke-linecap="round" stroke-linejoin="round" stroke-width="2.5844684065523738"/>
  <path d="M 36.13889321346907, 99.33797999087594 Q 36.63778754083586, 100.1349200275206, 37.60976206505043, 101.28837521150345 " fill="none" id="curve_153" stroke="#000000" stroke-linecap="round" stroke-linejoin="round" stroke-width="2.999028405570679"/>
</svg>
