<?xml version="1.0" ?>
<svg height="140" width="140" xmlns="http://www.w3.org/2000/svg">
  <path d="M 16.92117738723755, 101.55922031402588 Q 16.308614203442403, 99.20538399362708, 15.955002485306181, 87.85204759188673 " fill="none" id="curve_1" stroke="#000000" stroke-linecap="round" stroke-linejoin="round" stroke-width="7.110722611540874"/>
  <path d="M 15.955002485306181, 87.85204759188673 Q 18.53048756397316, 78.35086788724132, 27.28807199860057, 60.40548841516082 " fill="none" id="curve_1" stroke="#000000" stroke-linecap="round" stroke-linejoin="round" stroke-width="5.569641501953564"/>
  <path d="M 27.28807199860057, 60.40548841516082 Q 36.10281303734253, 54.66601780394537, 48.96153796823072, 47.11398571951606 " fill="none" id="curve_1" stroke="#000000" stroke-linecap="round" stroke-linejoin="round" stroke-width="4.831317816827915"/>
  <path d="M 48.96153796823072, 47.11398571951606 Q 66.7110149831975, 50.6091851615196, 72.45990451220277, 67.44931603943505 " fill="none" id="curve_1" stroke="#000000" stroke-linecap="round" stroke-linejoin="round" stroke-width="4.057492701278449"/>
  <path d="M 72.45990451220277, 67.44931603943505 Q 72.35214038147079, 98.44309867584728, 60.472774571686145, 100.50716081647107 " fill="none" id="curve_1" stroke="#000000" stroke-linecap="round" stroke-linejoin="round" stroke-width="4.337282547757208"/>
  <path d="M 60.472774571686145, 100.50716081647107 Q 53.925404814268354, 105.78075599011856, 33.232307997254054, 112.71076907848263 " fill="none" id="curve_1" stroke="#000000" stroke-linecap="round" stroke-linejoin="round" stroke-width="4.440448558422636"/>
  <path d="M 33.232307997254054, 112.71076907848263 Q 19.919897362576737, 112.63516568485694, 19.056398999557892, 108.70621265246731 " fill="none" id="curve_1" stroke="#000000" stroke-linecap="round" stroke-linejoin="round" stroke-width="5.049890916548503"/>
  <path d="M 19.056398999557892, 108.70621265246731 Q 16.3462449498794, 106.28115758947018, 14.887061833362718, 99.59704015649761 " fill="none" id="curve_1" stroke="#000000" stroke-linecap="round" stroke-linejoin="round" stroke-width="5.294133483713626"/>
  <path d="M 14.887061833362718, 99.59704015649761 Q 19.202789900009186, 105.47165042604956, 23.031964256767523, 112.2194190871951 " fill="none" id="curve_1" stroke="#000000" stroke-linecap="round" stroke-linejoin="round" stroke-width="2.9217770062763795"/>
  <path d="M 90.18764703592097, 125.53709311924304 Q 89.11752047087066, 127.73377880650762, 88.70279298365351, 139.3319911552592 " fill="none" id="curve_3" stroke="#000000" stroke-linecap="round" stroke-linejoin="round" stroke-width="2.9629086355603325"/>
  <path d="M 88.88633140431969, 123.6123337258928 Q 88.97722129991197, 121.19586240986557, 89.04611804771635, 101.8049698859353 " fill="none" id="curve_4" stroke="#000000" stroke-linecap="round" stroke-linejoin="round" stroke-width="3.0922273339361563"/>
  <path d="M 89.04611804771635, 101.8049698859353 Q 89.05107957358875, 89.51252549494113, 89.09782863711492, 81.97299592343043 " fill="none" id="curve_4" stroke="#000000" stroke-linecap="round" stroke-linejoin="round" stroke-width="2.7939137222316006"/>
  <path d="M 89.09782863711492, 81.97299592343043 Q 89.09576545336807, 72.93496502931409, 89.08866363962636, 62.292060565288665 " fill="none" id="curve_4" stroke="#000000" stroke-linecap="round" stroke-linejoin="round" stroke-width="2.5269798981309752"/>
  <path d="M 89.08866363962636, 62.292060565288665 Q 89.12550108174092, 55.37467846566202, 89.20610692408788, 40.49875192885291 " fill="none" id="curve_4" stroke="#000000" stroke-linecap="round" stroke-linejoin="round" stroke-width="2.538614681834138"/>
  <path d="M 89.20610692408788, 40.49875192885291 Q 89.22960378266485, 34.287188536482155, 89.27094044685605, 18.207061085896438 " fill="none" id="curve_4" stroke="#000000" stroke-linecap="round" stroke-linejoin="round" stroke-width="2.3037949173377"/>
  <path d="M 89.27094044685605, 18.207061085896438 Q 89.24727260328373, 6.318075028897635, 89.09774781430818, 1.8861715199681193 " fill="none" id="curve_4" stroke="#000000" stroke-linecap="round" stroke-linejoin="round" stroke-width="2.2300495974099706"/>
  <path d="M 89.09774781430818, 1.8861715199681193 Q 88.61504548309338, 1.8502487403056254, 88.01707078801982, 1.805554858779962 " fill="none" id="curve_4" stroke="#000000" stroke-linecap="round" stroke-linejoin="round" stroke-width="2.619454402851366"/>
  <path d="M 58.514386974381395, 53.63855108982305 Q 52.40927459532178, 51.92890103874005, 46.66832319472012, 47.70291946570683 " fill="none" id="curve_8" stroke="#000000" stroke-linecap="round" stroke-linejoin="round" stroke-width="4.901457782907078"/>
  <path d="M 46.66832319472012, 47.70291946570683 Q 46.74604275274873, 43.891996228919126, 47.4608853521085, 43.21808037603987 " fill="none" id="curve_8" stroke="#000000" stroke-linecap="round" stroke-linejoin="round" stroke-width="4.8671236335360675"/>
  <path d="M 47.4608853521085, 43.21808037603987 Q 53.61934262675938, 46.7345906528917, 61.137114108348, 50.29114202933029 " fill="none" id="curve_8" stroke="#000000" stroke-linecap="round" stroke-linejoin="round" stroke-width="1.9302527165828547"/>
  <path d="M 74.12499389272837, 81.12842958275684 Q 73.16748848672351, 86.3380569710428, 70.45252751903911, 89.30920417524065 " fill="none" id="curve_10" stroke="#000000" stroke-linecap="round" stroke-linejoin="round" stroke-width="2.451928788725471"/>
  <path d="M 70.45252751903911, 89.30920417524065 Q 67.48347199091398, 95.8880980746871, 62.26438252437866, 101.83803015599139 " fill="none" id="curve_10" stroke="#000000" stroke-linecap="round" stroke-linejoin="round" stroke-width="2.705241666195576"/>
  <path d="M 62.26438252437866, 101.83803015599139 Q 53.57507347466654, 103.39477494627268, 45.53078892613195, 106.10185532267286 " fill="none" id="curve_10" stroke="#000000" stroke-linecap="round" stroke-linejoin="round" stroke-width="3.1435724702812333"/>
  <path d="M 22.450699770287894, 67.90458197868128 Q 22.905865577214133, 63.80466351205178, 25.931383247393686, 62.51560012229734 " fill="none" id="curve_14" stroke="#000000" stroke-linecap="round" stroke-linejoin="round" stroke-width="2.833954436309734"/>
  <path d="M 27.013931702163347, 114.15428444655433 Q 26.648183252967613, 113.95511804479186, 26.229585802086085, 113.55877865323147 " fill="none" id="curve_18" stroke="#000000" stroke-linecap="round" stroke-linejoin="round" stroke-width="3.2009489530335804"/>
  <path d="M 88.32635417842197, 62.33097249977298 Q 88.40919718698339, 58.942920178541044, 88.6834989523556, 56.41864875132568 " fill="none" id="curve_20" stroke="#000000" stroke-linecap="round" stroke-linejoin="round" stroke-width="2.400756205055804"/>
  <path d="M 58.99695786583149, 102.1918481150401 Q 63.501487381934254, 100.28351583705424, 67.16663556482641, 94.6583530297494 " fill="none" id="curve_28" stroke="#000000" stroke-linecap="round" stroke-linejoin="round" stroke-width="3.154388946337761"/>
  <path d="M 86.9121400552815, 138.1951692378837 Q 87.24894519934855, 138.4342206610963, 88.19928399794122, 138.66354604149564 " fill="none" id="curve_30" stroke="#000000" stroke-linecap="round" stroke-linejoin="round" stroke-width="2.4200443137649676"/>
  <path d="M 50.10439931747443, 50.23368222582852 Q 48.540500109999414, 50.38331870903364, 44.87862836299745, 50.575870102609095 " fill="none" id="curve_39" stroke="#000000" stroke-linecap="round" stroke-linejoin="round" stroke-width="2.434550884179284"/>
  <path d="M 15.842302348657416, 94.9856033030139 Q 15.222159538804826, 95.86842109085727, 13.801550975468055, 96.79122320699118 " fill="none" id="curve_42" stroke="#000000" stroke-linecap="round" stroke-linejoin="round" stroke-width="3.4135375160158854"/>
  <path d="M 30.645506856638743, 112.92002877415847 Q 34.089416010744344, 111.62670736028369, 39.498575581451, 110.11645148118382 " fill="none" id="curve_48" stroke="#000000" stroke-linecap="round" stroke-linejoin="round" stroke-width="2.7155975368714866"/>
  <path d="M 67.30775555866828, 95.0085370722733 Q 65.12791809002381, 96.68458733975078, 62.80088623559064, 99.52352494793652 " fill="none" id="curve_77" stroke="#000000" stroke-linecap="round" stroke-linejoin="round" stroke-width="4.9610438601257725"/>
  <path d="M 64.31320083837272, 99.44762150786664 Q 65.57146779930521, 99.14598689992118, 66.16431788873328, 97.7214005356564 " fill="none" id="curve_144" stroke="#000000" stroke-linecap="round" stroke-linejoin="round" stroke-width="3.0822758505918557"/>
</svg>
