<?xml version="1.0" ?>
<svg height="140" width="140" xmlns="http://www.w3.org/2000/svg">
  <path d="M 67.61312866210938, 62.271164894104004 Q 67.33250322876422, 53.73346729160152, 64.7774964962125, 48.53268065183215 " fill="none" id="curve_1" stroke="#000000" stroke-linecap="round" stroke-linejoin="round" stroke-width="5.333159879961134"/>
  <path d="M 64.7774964962125, 48.53268065183215 Q 61.85667932213109, 41.77308461861323, 49.161962748948824, 35.5408255096002 " fill="none" id="curve_1" stroke="#000000" stroke-linecap="round" stroke-linejoin="round" stroke-width="5.057713876882767"/>
  <path d="M 49.161962748948824, 35.5408255096002 Q 38.09542378270699, 35.74922474560903, 21.166286578798687, 36.28060066447845 " fill="none" id="curve_1" stroke="#000000" stroke-linecap="round" stroke-linejoin="round" stroke-width="4.683112638565461"/>
  <path d="M 21.166286578798687, 36.28060066447845 Q 8.149981293183702, 37.56800066083535, 2.406374403985577, 43.38994556023698 " fill="none" id="curve_1" stroke="#000000" stroke-linecap="round" stroke-linejoin="round" stroke-width="3.8180330109515457"/>
  <path d="M 2.406374403985577, 43.38994556023698 Q 2.95479364825425, 31.26145398625075, 11.420367241810407, 29.464837744811742 " fill="none" id="curve_1" stroke="#000000" stroke-linecap="round" stroke-linejoin="round" stroke-width="5.01104509446779"/>
  <path d="M 11.420367241810407, 29.464837744811742 Q 15.504450016940043, 31.0383455842079, 16.89498809501722, 36.43172183049384 " fill="none" id="curve_1" stroke="#000000" stroke-linecap="round" stroke-linejoin="round" stroke-width="4.312409834811411"/>
  <path d="M 1.3885775449932733, 68.13468631822703 Q 3.2836654990659393, 86.77135085508368, 25.83280881156039, 95.89469133043553 " fill="none" id="curve_2" stroke="#000000" stroke-linecap="round" stroke-linejoin="round" stroke-width="5.147233429913093"/>
  <path d="M 25.83280881156039, 95.89469133043553 Q 27.38960411057739, 96.73370654726271, 37.51002185912722, 96.92275156501519 " fill="none" id="curve_2" stroke="#000000" stroke-linecap="round" stroke-linejoin="round" stroke-width="5.5015220880503195"/>
  <path d="M 37.51002185912722, 96.92275156501519 Q 57.15517382256819, 95.23760995606439, 64.45041108515039, 79.40684767302317 " fill="none" id="curve_2" stroke="#000000" stroke-linecap="round" stroke-linejoin="round" stroke-width="5.471974212680212"/>
  <path d="M 64.45041108515039, 79.40684767302317 Q 68.2471025063261, 76.40390486935439, 69.36423825026455, 56.61083895126191 " fill="none" id="curve_2" stroke="#000000" stroke-linecap="round" stroke-linejoin="round" stroke-width="5.735814392615618"/>
  <path d="M 88.16428982842197, 60.94926965032182 Q 89.72886022040643, 61.985110026681305, 89.92476015396464, 94.82342810985548 " fill="none" id="curve_3" stroke="#000000" stroke-linecap="round" stroke-linejoin="round" stroke-width="2.019158376561152"/>
  <path d="M 89.92476015396464, 94.82342810985548 Q 89.89803838192927, 108.12968089336957, 89.7682345279765, 127.03593843224728 " fill="none" id="curve_3" stroke="#000000" stroke-linecap="round" stroke-linejoin="round" stroke-width="1.5737508736813859"/>
  <path d="M 89.7682345279765, 127.03593843224728 Q 89.6648028907324, 134.50450723931854, 89.38407052617755, 138.4169113786261 " fill="none" id="curve_3" stroke="#000000" stroke-linecap="round" stroke-linejoin="round" stroke-width="2.4774187863797232"/>
  <path d="M 89.46408244177896, 60.17203331999033 Q 89.55211113539579, 57.309380499635765, 89.64601104724261, 45.137005308902154 " fill="none" id="curve_7" stroke="#000000" stroke-linecap="round" stroke-linejoin="round" stroke-width="1.3547297018665334"/>
  <path d="M 89.64601104724261, 45.137005308902154 Q 89.54672131944365, 44.243084596394766, 89.51824093930533, 32.80085594702557 " fill="none" id="curve_7" stroke="#000000" stroke-linecap="round" stroke-linejoin="round" stroke-width="1.5061333364122647"/>
  <path d="M 89.51824093930533, 32.80085594702557 Q 89.52009620688703, 28.538441418437102, 89.52403953898808, 19.52280075598553 " fill="none" id="curve_7" stroke="#000000" stroke-linecap="round" stroke-linejoin="round" stroke-width="1.418541425681976"/>
  <path d="M 89.52403953898808, 19.52280075598553 Q 89.49366252193657, 11.275156087390698, 89.21823421347996, 7.050097775944025 " fill="none" id="curve_7" stroke="#000000" stroke-linecap="round" stroke-linejoin="round" stroke-width="1.6123179929802218"/>
  <path d="M 89.21823421347996, 7.050097775944025 Q 89.05795854980265, 2.693106203849922, 87.11592617858311, 2.1192315344889465 " fill="none" id="curve_7" stroke="#000000" stroke-linecap="round" stroke-linejoin="round" stroke-width="5.084352608186653"/>
  <path d="M 87.11592617858311, 2.1192315344889465 Q 88.63059482016162, 1.77110451779033, 89.76151444669712, 1.2708613260934314 " fill="none" id="curve_7" stroke="#000000" stroke-linecap="round" stroke-linejoin="round" stroke-width="1.7294097857822386"/>
  <path d="M 84.87502038736926, 0.8320029940368585 Q 84.95975567892364, 1.291652882273851, 85.2187780326544, 1.8065242532221952 " fill="none" id="curve_8" stroke="#000000" stroke-linecap="round" stroke-linejoin="round" stroke-width="1.565591574082344"/>
  <path d="M 69.16187165085114, 53.7667632512557 Q 66.53973684278294, 55.70780059018793, 65.90970870042788, 73.00235776894232 " fill="none" id="curve_10" stroke="#000000" stroke-linecap="round" stroke-linejoin="round" stroke-width="2.36419589086597"/>
  <path d="M 62.23137701603729, 50.68830707821761 Q 62.04831205603702, 47.69738238775743, 61.387874462839065, 45.93012083860981 " fill="none" id="curve_11" stroke="#000000" stroke-linecap="round" stroke-linejoin="round" stroke-width="2.5332971446580324"/>
  <path d="M 7.673514258891807, 30.006523520374344 Q 4.050421433290936, 32.12392097943121, 2.4330714245804836, 38.66211775761382 " fill="none" id="curve_13" stroke="#000000" stroke-linecap="round" stroke-linejoin="round" stroke-width="3.433816868942964"/>
  <path d="M 11.185973682267768, 31.342191895787046 Q 2.2228621339108123, 32.47486446235349, 0.6949462309650425, 47.14040366841089 " fill="none" id="curve_14" stroke="#000000" stroke-linecap="round" stroke-linejoin="round" stroke-width="2.451768207115273"/>
  <path d="M 1.5857708787237683, 77.09857635512557 Q 7.457625037263872, 85.44142275243003, 22.569058208800957, 95.61962184575441 " fill="none" id="curve_15" stroke="#000000" stroke-linecap="round" stroke-linejoin="round" stroke-width="3.672675792353221"/>
  <path d="M 22.569058208800957, 95.61962184575441 Q 17.301126041650313, 90.27942720177903, 5.2947580927249795, 81.76571140469264 " fill="none" id="curve_15" stroke="#000000" stroke-linecap="round" stroke-linejoin="round" stroke-width="4.019956546986574"/>
  <path d="M 5.2947580927249795, 81.76571140469264 Q 9.724878274452424, 89.21411289334235, 18.227689230150958, 93.65140761897983 " fill="none" id="curve_15" stroke="#000000" stroke-linecap="round" stroke-linejoin="round" stroke-width="2.535481398694875"/>
  <path d="M 18.227689230150958, 93.65140761897983 Q 29.64643297613673, 94.58574668090984, 35.536188722758226, 96.73839541363904 " fill="none" id="curve_15" stroke="#000000" stroke-linecap="round" stroke-linejoin="round" stroke-width="2.910974406907178"/>
  <path d="M 35.536188722758226, 96.73839541363904 Q 46.84590943700055, 94.57217181745509, 54.48164744132654, 89.96956935556766 " fill="none" id="curve_15" stroke="#000000" stroke-linecap="round" stroke-linejoin="round" stroke-width="3.3117481970573146"/>
  <path d="M 67.99325864344338, 70.73661006204652 Q 64.82301592514104, 76.17940024718204, 61.056319478534455, 82.59863836710987 " fill="none" id="curve_16" stroke="#000000" stroke-linecap="round" stroke-linejoin="round" stroke-width="3.1576165237521474"/>
  <path d="M 30.11249758241734, 95.2318760318898 Q 26.105543500398586, 94.29555602163153, 21.740714130731938, 92.3966546725591 " fill="none" id="curve_17" stroke="#000000" stroke-linecap="round" stroke-linejoin="round" stroke-width="2.660194064696423"/>
  <path d="M 4.843483019841354, 82.43292724590103 Q 4.0310447944245364, 80.94849727746912, 1.625023797413606, 79.94805872381076 " fill="none" id="curve_18" stroke="#000000" stroke-linecap="round" stroke-linejoin="round" stroke-width="2.5154757407426698"/>
  <path d="M 17.526394961169046, 90.22270383367213 Q 15.70990024637553, 87.54657665882871, 10.247421977053499, 85.13133933193318 " fill="none" id="curve_20" stroke="#000000" stroke-linecap="round" stroke-linejoin="round" stroke-width="2.2460704215168015"/>
  <path d="M 7.456212042920004, 41.11668423688091 Q 6.247801969795834, 38.41666045505143, 2.8201091388197, 36.174186414373324 " fill="none" id="curve_21" stroke="#000000" stroke-linecap="round" stroke-linejoin="round" stroke-width="4.294462590169042"/>
  <path d="M 2.8201091388197, 36.174186414373324 Q 2.90148174745607, 35.88258265027178, 2.9811213355212103, 35.33050440978463 " fill="none" id="curve_21" stroke="#000000" stroke-linecap="round" stroke-linejoin="round" stroke-width="3.980747496136103"/>
  <path d="M 29.13812066236915, 34.78444782805336 Q 27.56283083071379, 34.45271940896428, 24.880023638401788, 34.08085572254967 " fill="none" id="curve_45" stroke="#000000" stroke-linecap="round" stroke-linejoin="round" stroke-width="2.550711852945357"/>
  <path d="M 3.8673597327577127, 39.310140285687 Q 3.429513878796507, 37.13745223105567, 2.2056635708597976, 35.804227026870926 " fill="none" id="curve_48" stroke="#000000" stroke-linecap="round" stroke-linejoin="round" stroke-width="4.03357030695802"/>
  <path d="M 15.633604270886103, 38.8508996967359 Q 10.055063207984084, 38.67408488672392, 4.583260622448703, 38.04950910819152 " fill="none" id="curve_59" stroke="#000000" stroke-linecap="round" stroke-linejoin="round" stroke-width="3.5614014371142977"/>
  <path d="M 67.48450878680308, 60.80200207852158 Q 67.15362308293201, 58.30454270790678, 66.55569092897011, 55.81008553014526 " fill="none" id="curve_74" stroke="#000000" stroke-linecap="round" stroke-linejoin="round" stroke-width="3.1396222353899974"/>
  <path d="M 43.41209607054276, 94.75682716587897 Q 42.20478203672868, 94.57495460545985, 40.74094583124408, 94.25996375327587 " fill="none" id="curve_89" stroke="#000000" stroke-linecap="round" stroke-linejoin="round" stroke-width="3.4091115007649"/>
  <path d="M 55.593587455861815, 38.06519015212854 Q 52.36732048790463, 36.91981517768855, 41.41569930924946, 35.824542872735485 " fill="none" id="curve_91" stroke="#000000" stroke-linecap="round" stroke-linejoin="round" stroke-width="2.388888954072056"/>
  <path d="M 48.839929227061475, 38.32303958601244 Q 50.800999167801095, 38.03682970043189, 55.475461343416654, 37.73842587841697 " fill="none" id="curve_106" stroke="#000000" stroke-linecap="round" stroke-linejoin="round" stroke-width="2.5504759121281846"/>
  <path d="M 52.855584330365154, 37.30479819622137 Q 54.41720314919337, 37.41229328158772, 56.200634605885256, 37.72603287726384 " fill="none" id="curve_110" stroke="#000000" stroke-linecap="round" stroke-linejoin="round" stroke-width="2.3630457547876174"/>
</svg>
