<?xml version="1.0" ?>
<svg height="140" width="140" xmlns="http://www.w3.org/2000/svg">
  <path d="M 41.046652623656385, 49.10606898594092 Q 26.17869498690113, 50.40984111494496, 19.865354278112296, 65.5341231459322 " fill="none" id="curve_2" stroke="#000000" stroke-linecap="round" stroke-linejoin="round" stroke-width="5.245625619154753"/>
  <path d="M 19.865354278112296, 65.5341231459322 Q 17.053435755745078, 72.46801285288618, 14.371468216906539, 80.406180317185 " fill="none" id="curve_2" stroke="#000000" stroke-linecap="round" stroke-linejoin="round" stroke-width="4.539860660673759"/>
  <path d="M 14.371468216906539, 80.406180317185 Q 14.822267986749393, 105.14453790111406, 32.45669261499603, 106.90614275292035 " fill="none" id="curve_2" stroke="#000000" stroke-linecap="round" stroke-linejoin="round" stroke-width="4.3510929715144915"/>
  <path d="M 32.45669261499603, 106.90614275292035 Q 51.59195877649234, 105.88970309527326, 54.99228575696013, 87.40340270437952 " fill="none" id="curve_2" stroke="#000000" stroke-linecap="round" stroke-linejoin="round" stroke-width="4.681017251799207"/>
  <path d="M 54.99228575696013, 87.40340270437952 Q 57.14965366816405, 79.4962406433149, 61.343146283773244, 71.97228091284013 " fill="none" id="curve_2" stroke="#000000" stroke-linecap="round" stroke-linejoin="round" stroke-width="3.911936127715932"/>
  <path d="M 61.343146283773244, 71.97228091284013 Q 59.534235275997645, 56.792485948019895, 45.66106921093899, 48.90207948095942 " fill="none" id="curve_2" stroke="#000000" stroke-linecap="round" stroke-linejoin="round" stroke-width="4.477271965274528"/>
  <path d="M 45.66106921093899, 48.90207948095942 Q 52.33704058304271, 49.62218372871407, 54.251612951927925, 53.35141964215172 " fill="none" id="curve_2" stroke="#000000" stroke-linecap="round" stroke-linejoin="round" stroke-width="2.9272980609508887"/>
  <path d="M 91.39962435435059, 42.77244207012863 Q 89.53653524489225, 43.18126753289136, 89.41891394133621, 75.35875792151033 " fill="none" id="curve_3" stroke="#000000" stroke-linecap="round" stroke-linejoin="round" stroke-width="2.5961759286843105"/>
  <path d="M 89.41891394133621, 75.35875792151033 Q 89.36575568291182, 82.35350446210558, 89.20201152615897, 107.6753037414233 " fill="none" id="curve_3" stroke="#000000" stroke-linecap="round" stroke-linejoin="round" stroke-width="2.4996471731309775"/>
  <path d="M 89.20201152615897, 107.6753037414233 Q 89.2319467152607, 116.20306300213632, 89.38770055853773, 134.55404503580243 " fill="none" id="curve_3" stroke="#000000" stroke-linecap="round" stroke-linejoin="round" stroke-width="2.5906291367133703"/>
  <path d="M 89.38770055853773, 134.55404503580243 Q 89.25608429832344, 137.67656898000723, 88.65081425218405, 138.71934747350215 " fill="none" id="curve_3" stroke="#000000" stroke-linecap="round" stroke-linejoin="round" stroke-width="3.3748129717408246"/>
  <path d="M 88.65081425218405, 138.71934747350215 Q 88.55305245783353, 138.53676852741128, 88.458314150913, 138.23657904301103 " fill="none" id="curve_3" stroke="#000000" stroke-linecap="round" stroke-linejoin="round" stroke-width="3.383265233900065"/>
  <path d="M 52.6984713057967, 98.75230022942864 Q 45.005818166190316, 99.52538108318859, 37.79776868042535, 104.37251669374739 " fill="none" id="curve_4" stroke="#000000" stroke-linecap="round" stroke-linejoin="round" stroke-width="2.9105459023606848"/>
  <path d="M 37.79776868042535, 104.37251669374739 Q 33.07510818850865, 104.46593140068042, 30.482031839853278, 104.87342746164605 " fill="none" id="curve_4" stroke="#000000" stroke-linecap="round" stroke-linejoin="round" stroke-width="2.334209936950002"/>
  <path d="M 30.482031839853278, 104.87342746164605 Q 26.97442795362752, 103.41434721302561, 20.282774490761668, 101.68581423110763 " fill="none" id="curve_4" stroke="#000000" stroke-linecap="round" stroke-linejoin="round" stroke-width="2.8728486409559513"/>
  <path d="M 20.282774490761668, 101.68581423110763 Q 16.321245356361114, 99.68650988985975, 13.73286192569647, 91.26643348468653 " fill="none" id="curve_4" stroke="#000000" stroke-linecap="round" stroke-linejoin="round" stroke-width="2.2905687203797167"/>
  <path d="M 13.73286192569647, 91.26643348468653 Q 14.523951574155383, 85.54419815505798, 16.384991328869976, 82.00682214516226 " fill="none" id="curve_4" stroke="#000000" stroke-linecap="round" stroke-linejoin="round" stroke-width="3.1280172592857083"/>
  <path d="M 14.843882804765489, 75.46807651373726 Q 17.31447687780065, 69.15980337079087, 21.840988717960162, 59.16644633067989 " fill="none" id="curve_5" stroke="#000000" stroke-linecap="round" stroke-linejoin="round" stroke-width="2.3728020982482394"/>
  <path d="M 54.912000793404154, 59.18796258477645 Q 56.657298607984025, 63.38285255041695, 59.47549641716647, 67.22632169035363 " fill="none" id="curve_6" stroke="#000000" stroke-linecap="round" stroke-linejoin="round" stroke-width="2.413820236192013"/>
  <path d="M 55.63281208752351, 55.49655627919867 Q 56.50662821189134, 56.402053562183085, 57.34567720555265, 58.37828233857856 " fill="none" id="curve_7" stroke="#000000" stroke-linecap="round" stroke-linejoin="round" stroke-width="2.062413619513464"/>
  <path d="M 87.52585727462478, 44.37867560606274 Q 89.23762274777481, 44.21329606384003, 89.45294933973322, 40.73540413724003 " fill="none" id="curve_8" stroke="#000000" stroke-linecap="round" stroke-linejoin="round" stroke-width="2.396844328433673"/>
  <path d="M 89.45294933973322, 40.73540413724003 Q 89.13107017710246, 39.89291900743274, 89.05662976650116, 22.228538517710664 " fill="none" id="curve_8" stroke="#000000" stroke-linecap="round" stroke-linejoin="round" stroke-width="2.3497256340368406"/>
  <path d="M 89.05662976650116, 22.228538517710664 Q 89.09670841083005, 18.854696743746352, 89.16858451775994, 4.889866631516515 " fill="none" id="curve_8" stroke="#000000" stroke-linecap="round" stroke-linejoin="round" stroke-width="2.502801583461227"/>
  <path d="M 89.16858451775994, 4.889866631516515 Q 89.12120495574723, 2.185219071434112, 88.88016409300226, 1.4948308249050566 " fill="none" id="curve_8" stroke="#000000" stroke-linecap="round" stroke-linejoin="round" stroke-width="2.902912184136967"/>
  <path d="M 88.88016409300226, 1.4948308249050566 Q 88.9713804999261, 1.5053653071827544, 89.11068924551329, 1.5178040116691653 " fill="none" id="curve_8" stroke="#000000" stroke-linecap="round" stroke-linejoin="round" stroke-width="1.8937453000096682"/>
  <path d="M 88.69430922705287, 46.83801305250259 Q 88.97202229280855, 49.34794862432194, 89.25174178425873, 54.43050464783422 " fill="none" id="curve_10" stroke="#000000" stroke-linecap="round" stroke-linejoin="round" stroke-width="1.5297246340789645"/>
  <path d="M 56.82765775826356, 81.80735415876167 Q 54.38709739740538, 93.38372435839177, 45.19865679379387, 100.79675696560565 " fill="none" id="curve_11" stroke="#000000" stroke-linecap="round" stroke-linejoin="round" stroke-width="2.7020371638497593"/>
  <path d="M 46.14003002099375, 51.17099562437885 Q 43.92607877552781, 49.08747623259663, 38.699557851769, 47.083073453763966 " fill="none" id="curve_13" stroke="#000000" stroke-linecap="round" stroke-linejoin="round" stroke-width="2.7444140748172425"/>
  <path d="M 12.957586738265167, 87.110822307066 Q 14.433193280884328, 87.3836987184516, 15.608733164208244, 88.12849829086515 " fill="none" id="curve_15" stroke="#000000" stroke-linecap="round" stroke-linejoin="round" stroke-width="3.6377991575445887"/>
  <path d="M 52.67674093756915, 92.14652377479501 Q 55.41070918030367, 87.94942888204396, 58.415415052410815, 79.57759647082446 " fill="none" id="curve_17" stroke="#000000" stroke-linecap="round" stroke-linejoin="round" stroke-width="2.653263136317416"/>
  <path d="M 57.38022259679076, 82.37825549952953 Q 54.6246114644676, 88.19290836705102, 49.449956750320744, 95.65019156147622 " fill="none" id="curve_32" stroke="#000000" stroke-linecap="round" stroke-linejoin="round" stroke-width="2.5361636777969028"/>
  <path d="M 19.865685113416312, 103.4955773485732 Q 20.019989571431566, 103.20276485343302, 20.209077623905728, 102.65557954433672 " fill="none" id="curve_40" stroke="#000000" stroke-linecap="round" stroke-linejoin="round" stroke-width="3.178862025098219"/>
  <path d="M 57.228438035930694, 59.94547402938197 Q 56.5343635206909, 58.12126677388016, 53.3464481743321, 56.875794516083396 " fill="none" id="curve_56" stroke="#000000" stroke-linecap="round" stroke-linejoin="round" stroke-width="2.5593873634720943"/>
</svg>
