<?xml version="1.0" ?>
<svg height="140" width="140" xmlns="http://www.w3.org/2000/svg">
  <path d="M 49.10239219665527, 26.997051239013672 Q 48.94398588589322, 25.630067848313654, 44.82788282755905, 25.441701755719777 " fill="none" id="curve_1" stroke="#000000" stroke-linecap="round" stroke-linejoin="round" stroke-width="8.35285200522124"/>
  <path d="M 44.82788282755905, 25.441701755719777 Q 34.150697022834706, 26.718730605529235, 26.971939078130923, 37.79384695561376 " fill="none" id="curve_1" stroke="#000000" stroke-linecap="round" stroke-linejoin="round" stroke-width="5.809532987571298"/>
  <path d="M 26.971939078130923, 37.79384695561376 Q 20.399502197929287, 43.54511987375366, 12.668030531881412, 63.85174597860366 " fill="none" id="curve_1" stroke="#000000" stroke-linecap="round" stroke-linejoin="round" stroke-width="5.66999832925892"/>
  <path d="M 12.668030531881412, 63.85174597860366 Q 9.73165426917988, 69.01684094802981, 8.712950578701154, 93.60920454660044 " fill="none" id="curve_1" stroke="#000000" stroke-linecap="round" stroke-linejoin="round" stroke-width="4.584490424575593"/>
  <path d="M 8.712950578701154, 93.60920454660044 Q 11.861322296485922, 117.93643868748191, 29.891009837779016, 125.1032128207638 " fill="none" id="curve_1" stroke="#000000" stroke-linecap="round" stroke-linejoin="round" stroke-width="4.365808371944125"/>
  <path d="M 29.891009837779016, 125.1032128207638 Q 31.990851190219587, 126.14837910336755, 45.92544588361439, 126.38500064441358 " fill="none" id="curve_1" stroke="#000000" stroke-linecap="round" stroke-linejoin="round" stroke-width="4.27429066482934"/>
  <path d="M 45.92544588361439, 126.38500064441358 Q 58.8310127110965, 121.02661934320291, 67.48423642053551, 105.52602544936606 " fill="none" id="curve_1" stroke="#000000" stroke-linecap="round" stroke-linejoin="round" stroke-width="5.113340290105956"/>
  <path d="M 67.48423642053551, 105.52602544936606 Q 69.47210138584657, 98.51140096265097, 71.35008297287911, 86.9310367965138 " fill="none" id="curve_1" stroke="#000000" stroke-linecap="round" stroke-linejoin="round" stroke-width="5.264720408561433"/>
  <path d="M 71.35008297287911, 86.9310367965138 Q 71.23431316779687, 56.87661946670595, 65.65692449396255, 52.335187582770075 " fill="none" id="curve_1" stroke="#000000" stroke-linecap="round" stroke-linejoin="round" stroke-width="5.7847225699744165"/>
  <path d="M 65.65692449396255, 52.335187582770075 Q 64.73229766738848, 32.88602309135106, 52.653334146252504, 26.4557640526644 " fill="none" id="curve_1" stroke="#000000" stroke-linecap="round" stroke-linejoin="round" stroke-width="6.689514965393991"/>
  <path d="M 52.653334146252504, 26.4557640526644 Q 61.38644062107399, 34.682560737182605, 66.85734508923747, 54.295090436708115 " fill="none" id="curve_1" stroke="#000000" stroke-linecap="round" stroke-linejoin="round" stroke-width="4.899105215654066"/>
  <path d="M 66.85734508923747, 54.295090436708115 Q 66.44939443558063, 52.937533812718236, 66.29331857102845, 45.67413189989686 " fill="none" id="curve_1" stroke="#000000" stroke-linecap="round" stroke-linejoin="round" stroke-width="10.832384095751463"/>
  <path d="M 66.29331857102845, 45.67413189989686 Q 64.24948741260577, 48.61867661767855, 62.34585948084346, 54.28851918969027 " fill="none" id="curve_1" stroke="#000000" stroke-linecap="round" stroke-linejoin="round" stroke-width="5.3121985093738955"/>
  <path d="M 12.606887293801222, 112.75783555302493 Q 13.903724122015115, 120.4223443271606, 23.878549307155016, 122.24302285799466 " fill="none" id="curve_2" stroke="#000000" stroke-linecap="round" stroke-linejoin="round" stroke-width="3.4262391392657725"/>
  <path d="M 44.77776624835171, 125.67098079122754 Q 57.2836550554118, 121.53157967323696, 65.03876983580005, 109.00284666248398 " fill="none" id="curve_3" stroke="#000000" stroke-linecap="round" stroke-linejoin="round" stroke-width="2.8514301827644375"/>
  <path d="M 65.03876983580005, 109.00284666248398 Q 58.99551626912928, 115.85399694373326, 50.35900976872828, 123.75460096591279 " fill="none" id="curve_3" stroke="#000000" stroke-linecap="round" stroke-linejoin="round" stroke-width="2.9804385513880667"/>
  <path d="M 33.99029781958977, 123.8560625742492 Q 30.126763128563166, 122.87117095910278, 20.74158593137988, 121.89388981436049 " fill="none" id="curve_4" stroke="#000000" stroke-linecap="round" stroke-linejoin="round" stroke-width="2.950369139658161"/>
  <path d="M 11.548916273653791, 101.0743684725707 Q 11.240078258022008, 99.3288830175388, 10.63877858122496, 97.82570446258384 " fill="none" id="curve_5" stroke="#000000" stroke-linecap="round" stroke-linejoin="round" stroke-width="2.9910699910963605"/>
  <path d="M 59.2142176515074, 40.766889349999126 Q 60.09927684992865, 46.83399224818565, 65.17162040617094, 48.74185685064854 " fill="none" id="curve_9" stroke="#000000" stroke-linecap="round" stroke-linejoin="round" stroke-width="4.3704318147239025"/>
  <path d="M 57.15379097237533, 28.123607459538174 Q 59.53866069873695, 28.97262529733669, 61.29671165706065, 31.011364983935284 " fill="none" id="curve_10" stroke="#000000" stroke-linecap="round" stroke-linejoin="round" stroke-width="2.926320200393705"/>
  <path d="M 63.51873803138733, 34.5014533996582 Q 65.84528665915832, 41.7633468276194, 70.58900411457122, 47.14816313154523 " fill="none" id="curve_24" stroke="#000000" stroke-linecap="round" stroke-linejoin="round" stroke-width="2.1285324628681637"/>
  <path d="M 31.507751258215112, 32.31038450024025 Q 22.125055618448123, 37.324862341089855, 13.868188450960456, 57.55681904717747 " fill="none" id="curve_30" stroke="#000000" stroke-linecap="round" stroke-linejoin="round" stroke-width="3.110660488545581"/>
  <path d="M 50.674071654891264, 23.007391453603496 Q 49.80325576379013, 24.192110338293055, 46.61814620486127, 25.23715782819797 " fill="none" id="curve_33" stroke="#000000" stroke-linecap="round" stroke-linejoin="round" stroke-width="3.098514769016893"/>
  <path d="M 67.08035791606676, 110.21018050939318 Q 58.28267718621098, 111.7621745221919, 53.24137330495352, 121.73098128149722 " fill="none" id="curve_48" stroke="#000000" stroke-linecap="round" stroke-linejoin="round" stroke-width="2.3551569382025876"/>
  <path d="M 65.8989346503343, 104.22766105387828 Q 67.19997093856608, 96.74072385315745, 72.81175088552423, 93.42238586595549 " fill="none" id="curve_49" stroke="#000000" stroke-linecap="round" stroke-linejoin="round" stroke-width="2.9153870470073953"/>
  <path d="M 69.58645711832634, 49.9359998742431 Q 69.20737187737485, 51.09003175930106, 68.40112973663551, 52.29022792267197 " fill="none" id="curve_52" stroke="#000000" stroke-linecap="round" stroke-linejoin="round" stroke-width="2.932206195814532"/>
  <path d="M 69.61434841039636, 65.1338626572871 Q 67.02126936352116, 62.22459641318927, 64.98115658825662, 48.40026997616133 " fill="none" id="curve_67" stroke="#000000" stroke-linecap="round" stroke-linejoin="round" stroke-width="2.7828975177814597"/>
  <path d="M 65.45834198068815, 40.87024109755812 Q 66.26374029920608, 40.54420258769851, 66.9931537433522, 39.87940745438964 " fill="none" id="curve_87" stroke="#000000" stroke-linecap="round" stroke-linejoin="round" stroke-width="4.242096646880114"/>
  <path d="M 72.31105848455718, 65.25771943021145 Q 71.32470248600983, 64.95925118230629, 70.24167740338261, 64.3436389613363 " fill="none" id="curve_102" stroke="#000000" stroke-linecap="round" stroke-linejoin="round" stroke-width="3.6611993938120095"/>
  <path d="M 13.353956850742978, 65.15153206584093 Q 11.347957097748385, 70.06726829334674, 7.793167299755163, 74.81157536294383 " fill="none" id="curve_104" stroke="#000000" stroke-linecap="round" stroke-linejoin="round" stroke-width="3.1950150171863085"/>
  <path d="M 12.585142599272356, 106.97741646862879 Q 12.07229748402853, 105.87209745931175, 11.471918243399431, 103.33778633424933 " fill="none" id="curve_106" stroke="#000000" stroke-linecap="round" stroke-linejoin="round" stroke-width="3.249482566623769"/>
  <path d="M 69.10354043142863, 89.97794789081739 Q 69.91519860397129, 79.12104355123121, 74.41125789392015, 74.05826539568885 " fill="none" id="curve_112" stroke="#000000" stroke-linecap="round" stroke-linejoin="round" stroke-width="2.788335082356556"/>
  <path d="M 59.88964509397723, 55.19424300632422 Q 60.04991778508212, 55.13961881303171, 60.342331562685835, 55.04924860637501 " fill="none" id="curve_128" stroke="#000000" stroke-linecap="round" stroke-linejoin="round" stroke-width="2.3619339651313185"/>
  <path d="M 12.742915913432341, 107.40789135404034 Q 12.394821938123902, 106.76563972129107, 11.860861575546773, 105.26282937799964 " fill="none" id="curve_139" stroke="#000000" stroke-linecap="round" stroke-linejoin="round" stroke-width="3.013974206459117"/>
  <path d="M 48.76110287103985, 28.311928393493275 Q 54.641770883693944, 28.26029653601026, 59.19411254536066, 28.09560425059618 " fill="none" id="curve_147" stroke="#000000" stroke-linecap="round" stroke-linejoin="round" stroke-width="3.1367787040471398"/>
  <path d="M 14.703887771183119, 62.512920263242975 Q 12.856369619249305, 68.00670447705943, 9.848232164010689, 73.06654933115435 " fill="none" id="curve_148" stroke="#000000" stroke-linecap="round" stroke-linejoin="round" stroke-width="3.73916535597755"/>
  <path d="M 13.17849565730301, 108.38553551226983 Q 13.014161042121424, 109.05479605364492, 12.865710460377143, 110.66737988742325 " fill="none" id="curve_149" stroke="#000000" stroke-linecap="round" stroke-linejoin="round" stroke-width="4.585615525515186"/>
  <path d="M 67.67631482216548, 64.50802895333904 Q 67.81045029916648, 64.57888790831986, 68.00434150935968, 64.69682434729644 " fill="none" id="curve_152" stroke="#000000" stroke-linecap="round" stroke-linejoin="round" stroke-width="3.6367816208844634"/>
  <path d="M 39.36067994990802, 25.935838858239464 Q 36.540042952402146, 26.12309459473662, 33.75248973956579, 26.495000120503708 " fill="none" id="curve_167" stroke="#000000" stroke-linecap="round" stroke-linejoin="round" stroke-width="2.5512458540581346"/>
  <path d="M 23.19945383515084, 123.72711442168364 Q 24.101562316106175, 123.55535904422973, 25.184367161873364, 123.31420347713436 " fill="none" id="curve_171" stroke="#000000" stroke-linecap="round" stroke-linejoin="round" stroke-width="3.605837860584052"/>
  <path d="M 15.255447860094895, 109.42864207057164 Q 15.667551878973832, 110.8034942335266, 16.2222032615553, 113.09770152852734 " fill="none" id="curve_205" stroke="#000000" stroke-linecap="round" stroke-linejoin="round" stroke-width="2.623667327171627"/>
  <path d="M 9.371804344649398, 82.29943200741195 Q 10.487982459182486, 82.12654578014075, 11.569574145672608, 81.72120975610275 " fill="none" id="curve_214" stroke="#000000" stroke-linecap="round" stroke-linejoin="round" stroke-width="2.940088744180015"/>
</svg>
