<?xml version="1.0" ?>
<svg height="140" width="140" xmlns="http://www.w3.org/2000/svg">
  <path d="M 37.20993614196777, 91.96689796447754 Q 36.00032346639131, 97.19323728128677, 29.122833473607898, 99.54190742271021 " fill="none" id="curve_1" stroke="#000000" stroke-linecap="round" stroke-linejoin="round" stroke-width="6.126731980300273"/>
  <path d="M 29.122833473607898, 99.54190742271021 Q 24.949118146711204, 99.5736380863294, 22.20775352173105, 99.661207633524 " fill="none" id="curve_1" stroke="#000000" stroke-linecap="round" stroke-linejoin="round" stroke-width="5.064072771413494"/>
  <path d="M 22.20775352173105, 99.661207633524 Q 15.748974926441852, 98.67155351128672, 14.371597566397334, 86.15550752644536 " fill="none" id="curve_1" stroke="#000000" stroke-linecap="round" stroke-linejoin="round" stroke-width="5.618806774322076"/>
  <path d="M 14.371597566397334, 86.15550752644536 Q 15.20176448068208, 72.25066983383584, 22.10247649847999, 61.67441013211368 " fill="none" id="curve_1" stroke="#000000" stroke-linecap="round" stroke-linejoin="round" stroke-width="4.935820672286754"/>
  <path d="M 22.10247649847999, 61.67441013211368 Q 25.773597484110446, 54.28593601034992, 33.54001909141776, 47.98736783010545 " fill="none" id="curve_1" stroke="#000000" stroke-linecap="round" stroke-linejoin="round" stroke-width="8.51703286111354"/>
  <path d="M 33.54001909141776, 47.98736783010545 Q 48.53824249208675, 48.16012216673324, 49.728415395018196, 63.08459585138998 " fill="none" id="curve_1" stroke="#000000" stroke-linecap="round" stroke-linejoin="round" stroke-width="3.83590338049224"/>
  <path d="M 49.728415395018196, 63.08459585138998 Q 51.3849729466934, 64.31272992514803, 51.7284689262107, 74.61577345004685 " fill="none" id="curve_1" stroke="#000000" stroke-linecap="round" stroke-linejoin="round" stroke-width="4.20561579382131"/>
  <path d="M 51.7284689262107, 74.61577345004685 Q 46.679897120440046, 85.46474522196917, 36.08300115948684, 96.22522974740029 " fill="none" id="curve_1" stroke="#000000" stroke-linecap="round" stroke-linejoin="round" stroke-width="3.8326994623873634"/>
  <path d="M 51.42554274357613, 66.83445201568009 Q 51.24345690247015, 59.98260547385158, 49.44943572166565, 58.76834592954127 " fill="none" id="curve_2" stroke="#000000" stroke-linecap="round" stroke-linejoin="round" stroke-width="3.1357761036241807"/>
  <path d="M 91.16890290352106, 61.79657284130354 Q 89.61803425293431, 62.2115526936358, 89.5273943445308, 88.2620740324495 " fill="none" id="curve_3" stroke="#000000" stroke-linecap="round" stroke-linejoin="round" stroke-width="2.373524258788746"/>
  <path d="M 89.5273943445308, 88.2620740324495 Q 89.41164190913462, 92.3917324756653, 89.1972566242894, 118.82950930222738 " fill="none" id="curve_3" stroke="#000000" stroke-linecap="round" stroke-linejoin="round" stroke-width="2.352819920508223"/>
  <path d="M 89.1972566242894, 118.82950930222738 Q 89.19947579838207, 132.56104113083993, 89.20885148638799, 138.80755340450162 " fill="none" id="curve_3" stroke="#000000" stroke-linecap="round" stroke-linejoin="round" stroke-width="2.4865417840195003"/>
  <path d="M 88.51762727991762, 139.07181497011868 Q 88.96119295938078, 138.94206026676295, 89.41617660778515, 138.6943611408956 " fill="none" id="curve_5" stroke="#000000" stroke-linecap="round" stroke-linejoin="round" stroke-width="1.7399562733177218"/>
  <path d="M 89.43218267907233, 66.62462326878007 Q 89.22578521463564, 65.03118817478862, 89.13062974658577, 56.90828662664625 " fill="none" id="curve_10" stroke="#000000" stroke-linecap="round" stroke-linejoin="round" stroke-width="2.4327370752106092"/>
  <path d="M 89.13062974658577, 56.90828662664625 Q 89.14137179992608, 51.66524982855215, 89.169072058651, 38.392168223941354 " fill="none" id="curve_10" stroke="#000000" stroke-linecap="round" stroke-linejoin="round" stroke-width="2.4381554857740197"/>
  <path d="M 89.169072058651, 38.392168223941354 Q 89.16016485037615, 30.941456323333032, 89.1135919338845, 21.592030907377797 " fill="none" id="curve_10" stroke="#000000" stroke-linecap="round" stroke-linejoin="round" stroke-width="2.427514922561608"/>
  <path d="M 89.1135919338845, 21.592030907377797 Q 89.11463290413711, 14.969944850904668, 89.1190410553475, 4.867978981301626 " fill="none" id="curve_10" stroke="#000000" stroke-linecap="round" stroke-linejoin="round" stroke-width="2.418946432249684"/>
  <path d="M 89.1190410553475, 4.867978981301626 Q 89.03353351555506, 2.3551561534084375, 88.56980695391924, 1.7989028188808436 " fill="none" id="curve_10" stroke="#000000" stroke-linecap="round" stroke-linejoin="round" stroke-width="3.9972696086397113"/>
  <path d="M 88.56980695391924, 1.7989028188808436 Q 88.83862927303096, 1.4878553098446434, 89.289738287787, 1.1663146721689215 " fill="none" id="curve_10" stroke="#000000" stroke-linecap="round" stroke-linejoin="round" stroke-width="1.8548382934689005"/>
  <path d="M 30.839071193332824, 49.02602769298818 Q 28.506517656770264, 50.708324092536124, 25.5158564141337, 53.63034935663019 " fill="none" id="curve_18" stroke="#000000" stroke-linecap="round" stroke-linejoin="round" stroke-width="4.221259252693844"/>
  <path d="M 32.98328250315549, 53.6301831549029 Q 33.692214710310175, 52.31308732030091, 34.79455479293492, 50.30506991408945 " fill="none" id="curve_22" stroke="#000000" stroke-linecap="round" stroke-linejoin="round" stroke-width="4.101813792904159"/>
  <path d="M 45.91560351778429, 83.12440975124116 Q 41.129133696820276, 85.27155261337693, 38.31875321428877, 94.57901449135045 " fill="none" id="curve_28" stroke="#000000" stroke-linecap="round" stroke-linejoin="round" stroke-width="2.712575656386554"/>
  <path d="M 38.31875321428877, 94.57901449135045 Q 37.024995084492346, 97.64447324958655, 31.981579052517162, 98.71261258511763 " fill="none" id="curve_28" stroke="#000000" stroke-linecap="round" stroke-linejoin="round" stroke-width="3.2966631424181934"/>
  <path d="M 24.33820886263893, 99.04309300168163 Q 20.05178064495453, 97.92468484214453, 16.925449182840737, 95.0171693671164 " fill="none" id="curve_29" stroke="#000000" stroke-linecap="round" stroke-linejoin="round" stroke-width="3.467856527271865"/>
  <path d="M 35.44895539539907, 47.65474846504906 Q 31.983071178610803, 48.127015951517, 27.59379016163085, 49.19816206080485 " fill="none" id="curve_30" stroke="#000000" stroke-linecap="round" stroke-linejoin="round" stroke-width="3.331189334927437"/>
  <path d="M 50.371600816456294, 70.71036080254896 Q 50.35119095081842, 77.71143059254774, 50.14013624911001, 79.6670840795512 " fill="none" id="curve_45" stroke="#000000" stroke-linecap="round" stroke-linejoin="round" stroke-width="2.6826548758049786"/>
  <path d="M 50.76466230950951, 72.58289781504152 Q 51.00732701573158, 71.69207783401649, 51.458882652294506, 69.27876842935709 " fill="none" id="curve_51" stroke="#000000" stroke-linecap="round" stroke-linejoin="round" stroke-width="2.435756328441459"/>
  <path d="M 50.79333544861038, 67.81844133688912 Q 50.11424209941488, 66.49049038706649, 49.15296270887082, 63.83645911916659 " fill="none" id="curve_66" stroke="#000000" stroke-linecap="round" stroke-linejoin="round" stroke-width="2.934067397187113"/>
  <path d="M 42.74108232877688, 47.13642513334702 Q 42.525835838072446, 45.85698985094962, 35.802588566851796, 45.7122719633442 " fill="none" id="curve_81" stroke="#000000" stroke-linecap="round" stroke-linejoin="round" stroke-width="1.8350717572729374"/>
  <path d="M 50.447052904864705, 71.34431624290097 Q 50.595604051593384, 76.18048775822874, 51.10705784262856, 81.1018500487611 " fill="none" id="curve_96" stroke="#000000" stroke-linecap="round" stroke-linejoin="round" stroke-width="2.2790542530851354"/>
</svg>
