<?xml version="1.0" ?>
<svg height="140" width="140" xmlns="http://www.w3.org/2000/svg">
  <path d="M 88.82241249084473, 1.518320083618164 Q 88.81509521630007, 7.837682266080271, 88.7938751151027, 23.07299311103725 " fill="none" id="curve_1" stroke="#000000" stroke-linecap="round" stroke-linejoin="round" stroke-width="3.9806615564778016"/>
  <path d="M 88.7938751151027, 23.07299311103725 Q 88.80416057159012, 30.276066908191922, 88.85181266857869, 50.368416377492025 " fill="none" id="curve_1" stroke="#000000" stroke-linecap="round" stroke-linejoin="round" stroke-width="3.373621308317244"/>
  <path d="M 88.85181266857869, 50.368416377492025 Q 88.83580047520525, 58.711807373137184, 88.7444649287651, 75.73241256840336 " fill="none" id="curve_1" stroke="#000000" stroke-linecap="round" stroke-linejoin="round" stroke-width="3.5281913296616447"/>
  <path d="M 88.7444649287651, 75.73241256840336 Q 88.75200675323883, 82.91497295688839, 88.78302062409354, 100.04299326046232 " fill="none" id="curve_1" stroke="#000000" stroke-linecap="round" stroke-linejoin="round" stroke-width="3.512019638447902"/>
  <path d="M 88.78302062409354, 100.04299326046232 Q 88.78386141034255, 108.6477048287223, 88.78835961275318, 124.39369393501694 " fill="none" id="curve_1" stroke="#000000" stroke-linecap="round" stroke-linejoin="round" stroke-width="3.478780640670228"/>
  <path d="M 88.78835961275318, 124.39369393501694 Q 88.74903961480075, 135.82538674458073, 88.5591243757054, 138.80889443845007 " fill="none" id="curve_1" stroke="#000000" stroke-linecap="round" stroke-linejoin="round" stroke-width="3.24203618410304"/>
  <path d="M 88.5591243757054, 138.80889443845007 Q 87.8813528448812, 138.55248505818054, 86.97797502508597, 138.30236200951444 " fill="none" id="curve_1" stroke="#000000" stroke-linecap="round" stroke-linejoin="round" stroke-width="2.763603559236975"/>
  <path d="M 52.072410578481865, 128.11773183859805 Q 55.28560189334938, 126.26786939425823, 57.67584828050095, 116.04391583572107 " fill="none" id="curve_2" stroke="#000000" stroke-linecap="round" stroke-linejoin="round" stroke-width="4.121654433131874"/>
  <path d="M 57.67584828050095, 116.04391583572107 Q 58.61100494847409, 113.19219776241789, 59.3355716747448, 109.14532053349137 " fill="none" id="curve_2" stroke="#000000" stroke-linecap="round" stroke-linejoin="round" stroke-width="5.331086332515585"/>
  <path d="M 59.3355716747448, 109.14532053349137 Q 58.403927643319534, 91.9866745902564, 42.82922160204823, 85.11512365384117 " fill="none" id="curve_2" stroke="#000000" stroke-linecap="round" stroke-linejoin="round" stroke-width="4.574982742593629"/>
  <path d="M 42.82922160204823, 85.11512365384117 Q 42.59269193294002, 81.74566116338683, 40.14743070407768, 81.20348851405448 " fill="none" id="curve_2" stroke="#000000" stroke-linecap="round" stroke-linejoin="round" stroke-width="5.742605537651776"/>
  <path d="M 40.14743070407768, 81.20348851405448 Q 22.236578425080875, 82.2770651652184, 17.176936664723947, 99.7141137491347 " fill="none" id="curve_2" stroke="#000000" stroke-linecap="round" stroke-linejoin="round" stroke-width="5.887742145515746"/>
  <path d="M 17.176936664723947, 99.7141137491347 Q 17.643552379898544, 125.72102438796914, 35.38781050853201, 130.26266748871666 " fill="none" id="curve_2" stroke="#000000" stroke-linecap="round" stroke-linejoin="round" stroke-width="5.415440974381407"/>
  <path d="M 35.38781050853201, 130.26266748871666 Q 36.387614135815774, 131.91440303003014, 47.67203739834523, 132.13354854972357 " fill="none" id="curve_2" stroke="#000000" stroke-linecap="round" stroke-linejoin="round" stroke-width="5.988505429730336"/>
  <path d="M 47.67203739834523, 132.13354854972357 Q 51.32130757868147, 130.16066561255795, 53.403535821633035, 125.51507290053704 " fill="none" id="curve_2" stroke="#000000" stroke-linecap="round" stroke-linejoin="round" stroke-width="4.867498275950979"/>
  <path d="M 44.90368757400449, 89.24342553287826 Q 41.821415843260205, 88.6421589527351, 39.78314509634592, 87.23114362040398 " fill="none" id="curve_3" stroke="#000000" stroke-linecap="round" stroke-linejoin="round" stroke-width="5.856887496648746"/>
  <path d="M 13.998072247733958, 102.73232374926653 Q 16.07209839814623, 109.7499095906518, 19.21129845538458, 119.10486093888022 " fill="none" id="curve_4" stroke="#000000" stroke-linecap="round" stroke-linejoin="round" stroke-width="2.460105634021749"/>
  <path d="M 43.52436819127076, 85.25156564051616 Q 45.2565492328339, 85.08275910930519, 46.738926107928776, 84.722673363856 " fill="none" id="curve_5" stroke="#000000" stroke-linecap="round" stroke-linejoin="round" stroke-width="4.348888277698155"/>
  <path d="M 27.10983926927393, 83.34591728698805 Q 24.57078933435738, 88.67347447678664, 17.971635504006404, 91.73894615590642 " fill="none" id="curve_6" stroke="#000000" stroke-linecap="round" stroke-linejoin="round" stroke-width="3.9068435079177855"/>
  <path d="M 57.15475873245929, 123.17694089834896 Q 55.340968555999076, 124.06086451556423, 52.764643783005454, 126.58071773657885 " fill="none" id="curve_12" stroke="#000000" stroke-linecap="round" stroke-linejoin="round" stroke-width="3.2991621553931076"/>
  <path d="M 21.541879279479513, 117.49640294448548 Q 23.78856277580294, 119.14593339470994, 26.18524151982977, 122.27238918078079 " fill="none" id="curve_14" stroke="#000000" stroke-linecap="round" stroke-linejoin="round" stroke-width="2.62064078399212"/>
  <path d="M 34.109692683957235, 79.92695424498226 Q 26.12283769762106, 82.78121088094403, 20.381089773121047, 90.75546031935554 " fill="none" id="curve_16" stroke="#000000" stroke-linecap="round" stroke-linejoin="round" stroke-width="4.3141879342627165"/>
  <path d="M 20.381089773121047, 90.75546031935554 Q 23.4552521686253, 89.64960943526462, 25.4898529544893, 87.35378942523421 " fill="none" id="curve_16" stroke="#000000" stroke-linecap="round" stroke-linejoin="round" stroke-width="4.159097203609731"/>
  <path d="M 36.737672862032376, 128.63479829648617 Q 40.86820602875976, 129.2814665413436, 45.20439715144024, 130.00409582748358 " fill="none" id="curve_26" stroke="#000000" stroke-linecap="round" stroke-linejoin="round" stroke-width="2.089035567225762"/>
  <path d="M 45.20439715144024, 130.00409582748358 Q 46.25977682078039, 128.2430718951669, 51.311114103315326, 127.54842932932229 " fill="none" id="curve_26" stroke="#000000" stroke-linecap="round" stroke-linejoin="round" stroke-width="2.3568519982571683"/>
  <path d="M 51.311114103315326, 127.54842932932229 Q 54.061686519000546, 123.64342084777083, 58.49237888808492, 119.44455418955405 " fill="none" id="curve_26" stroke="#000000" stroke-linecap="round" stroke-linejoin="round" stroke-width="2.870477315654737"/>
  <path d="M 56.096488036386646, 114.3250675289884 Q 56.95035296609541, 112.8512525222398, 57.421260283525044, 107.64804203483935 " fill="none" id="curve_27" stroke="#000000" stroke-linecap="round" stroke-linejoin="round" stroke-width="2.7854877621640064"/>
  <path d="M 53.49076036551086, 89.88892637104152 Q 51.336343305589196, 89.93246747346275, 49.14458672988221, 90.06469093318663 " fill="none" id="curve_28" stroke="#000000" stroke-linecap="round" stroke-linejoin="round" stroke-width="2.779260129946762"/>
  <path d="M 23.98677894275844, 123.14609198320895 Q 30.81039827766817, 125.1935973723539, 35.76990681656649, 130.9508836232868 " fill="none" id="curve_29" stroke="#000000" stroke-linecap="round" stroke-linejoin="round" stroke-width="2.286628207249559"/>
  <path d="M 87.93879079818726, 3.4721298217773438 Q 87.75064607029961, 2.7444071107386017, 87.38614709005003, 2.1923953213910323 " fill="none" id="curve_69" stroke="#000000" stroke-linecap="round" stroke-linejoin="round" stroke-width="4.381018742702291"/>
  <path d="M 89.6196928024292, 4.019222259521484 Q 89.56167044882788, 1.688223630974564, 88.96409142627567, 1.1735398133405113 " fill="none" id="curve_96" stroke="#000000" stroke-linecap="round" stroke-linejoin="round" stroke-width="2.150262755594051"/>
  <path d="M 18.452201523974693, 117.43165341367192 Q 16.964255943439124, 116.3919361871662, 15.774287186597284, 113.99525938425015 " fill="none" id="curve_103" stroke="#000000" stroke-linecap="round" stroke-linejoin="round" stroke-width="3.6116446377865388"/>
  <path d="M 24.910224686643915, 84.24620801630334 Q 20.57739155282217, 89.66672998900835, 15.822787489633624, 101.2252705082061 " fill="none" id="curve_144" stroke="#000000" stroke-linecap="round" stroke-linejoin="round" stroke-width="2.9735835087279656"/>
</svg>
