<?xml version="1.0" ?>
<svg height="140" width="140" xmlns="http://www.w3.org/2000/svg">
  <path d="M 44.47682189941406, 59.355499267578125 Q 32.43263036675061, 59.66230711462898, 29.30322734702895, 65.11463690479866 " fill="none" id="curve_1" stroke="#000000" stroke-linecap="round" stroke-linejoin="round" stroke-width="8.874039821677185"/>
  <path d="M 29.30322734702895, 65.11463690479866 Q 22.87937054002856, 70.82063577860487, 17.30469053561211, 89.11824345986481 " fill="none" id="curve_1" stroke="#000000" stroke-linecap="round" stroke-linejoin="round" stroke-width="4.6838422377273385"/>
  <path d="M 17.30469053561211, 89.11824345986481 Q 17.427350189815588, 98.6125557468028, 18.441732832213376, 101.2143595433481 " fill="none" id="curve_1" stroke="#000000" stroke-linecap="round" stroke-linejoin="round" stroke-width="3.532906479479026"/>
  <path d="M 37.435849454694264, 112.28007773468521 Q 32.998262765501075, 109.78486456267188, 31.49335651973684, 90.48986635757021 " fill="none" id="curve_2" stroke="#000000" stroke-linecap="round" stroke-linejoin="round" stroke-width="5.482798901736483"/>
  <path d="M 31.49335651973684, 90.48986635757021 Q 32.880367545425095, 80.43389294974722, 36.720603170119894, 74.01011039865469 " fill="none" id="curve_2" stroke="#000000" stroke-linecap="round" stroke-linejoin="round" stroke-width="6.840561461662659"/>
  <path d="M 40.438869357681185, 57.28858963372024 Q 57.18513046453495, 57.82929915236506, 60.07629680791811, 84.55984655937058 " fill="none" id="curve_3" stroke="#000000" stroke-linecap="round" stroke-linejoin="round" stroke-width="4.44913824377689"/>
  <path d="M 60.07629680791811, 84.55984655937058 Q 59.281334466457544, 107.91615024593784, 45.80298470438888, 113.89448127282483 " fill="none" id="curve_3" stroke="#000000" stroke-linecap="round" stroke-linejoin="round" stroke-width="3.8557370544120904"/>
  <path d="M 45.80298470438888, 113.89448127282483 Q 41.43638276237152, 113.83210328550035, 39.982257830261005, 113.48738774602084 " fill="none" id="curve_3" stroke="#000000" stroke-linecap="round" stroke-linejoin="round" stroke-width="4.872567004707429"/>
  <path d="M 35.547594738743136, 58.06509224353569 Q 36.50605481920682, 57.648110042046554, 45.94484546413156, 57.540019101032 " fill="none" id="curve_5" stroke="#000000" stroke-linecap="round" stroke-linejoin="round" stroke-width="3.091383411943143"/>
  <path d="M 45.94484546413156, 57.540019101032 Q 52.98201078940916, 57.806611390426724, 53.84840966409229, 62.017669914342186 " fill="none" id="curve_5" stroke="#000000" stroke-linecap="round" stroke-linejoin="round" stroke-width="3.1801665584189283"/>
  <path d="M 36.892178220348754, 60.9353562744605 Q 37.24616770483465, 61.70063472776211, 38.00160771717503, 62.309611498269895 " fill="none" id="curve_6" stroke="#000000" stroke-linecap="round" stroke-linejoin="round" stroke-width="5.285616677510909"/>
  <path d="M 38.32971197483116, 73.10839078913861 Q 35.93641861871389, 73.81774384215085, 33.347565540717376, 75.3060223582676 " fill="none" id="curve_7" stroke="#000000" stroke-linecap="round" stroke-linejoin="round" stroke-width="3.4146056181084634"/>
  <path d="M 61.8681819769605, 80.56961506221805 Q 60.936191741190164, 89.6160866257271, 58.289162393797874, 98.88048828156009 " fill="none" id="curve_8" stroke="#000000" stroke-linecap="round" stroke-linejoin="round" stroke-width="2.123796036964361"/>
  <path d="M 16.85150495187165, 87.32440446121814 Q 17.98811443196061, 84.80984816942055, 19.275722069673392, 77.22146728188193 " fill="none" id="curve_18" stroke="#000000" stroke-linecap="round" stroke-linejoin="round" stroke-width="2.276113387024667"/>
  <path d="M 34.49219229120647, 74.61844215206679 Q 32.84850631446245, 76.92682529903344, 31.467321707280757, 83.74419896504183 " fill="none" id="curve_21" stroke="#000000" stroke-linecap="round" stroke-linejoin="round" stroke-width="2.7998386964532096"/>
  <path d="M 50.156606755134604, 113.6537364682936 Q 51.17114752152797, 108.88651293117357, 54.86100902922985, 104.49239059877652 " fill="none" id="curve_22" stroke="#000000" stroke-linecap="round" stroke-linejoin="round" stroke-width="2.7672545873934995"/>
  <path d="M 49.953861803991266, 58.817089859487744 Q 49.02842744468429, 57.61897944317158, 33.43988470194162, 57.350374165035596 " fill="none" id="curve_23" stroke="#000000" stroke-linecap="round" stroke-linejoin="round" stroke-width="2.769351400417256"/>
  <path d="M 40.964133605156945, 73.28273208776253 Q 38.65753750622433, 73.64324620841877, 34.64403342354799, 74.22516948652441 " fill="none" id="curve_24" stroke="#000000" stroke-linecap="round" stroke-linejoin="round" stroke-width="2.822184782080642"/>
  <path d="M 57.3224181819312, 96.82025294019218 Q 56.59747001544226, 98.86427837542682, 55.854867025591304, 103.37177220439847 " fill="none" id="curve_39" stroke="#000000" stroke-linecap="round" stroke-linejoin="round" stroke-width="2.4822396336218175"/>
  <path d="M 48.148958120746784, 57.148887472512115 Q 47.81214176440715, 56.5205826603107, 43.67166776777841, 56.34917661396573 " fill="none" id="curve_54" stroke="#000000" stroke-linecap="round" stroke-linejoin="round" stroke-width="2.1005235371198725"/>
  <path d="M 33.04348910159547, 75.61448523075114 Q 33.97832680979289, 80.74849962863209, 35.224387004128765, 86.29604493291052 " fill="none" id="curve_69" stroke="#000000" stroke-linecap="round" stroke-linejoin="round" stroke-width="2.3327243774542294"/>
  <path d="M 15.36894294232265, 94.05063416148846 Q 17.050298618978015, 92.2026909544384, 18.667700088808548, 87.13664839954976 " fill="none" id="curve_90" stroke="#000000" stroke-linecap="round" stroke-linejoin="round" stroke-width="2.436659054356756"/>
  <path d="M 34.40903223260659, 92.95981888850392 Q 34.21275544640639, 93.84873113661769, 33.976611996929215, 95.57717640326553 " fill="none" id="curve_109" stroke="#000000" stroke-linecap="round" stroke-linejoin="round" stroke-width="2.750782192220909"/>
  <path d="M 89.63004648685455, -0.11837387084960938 Q 89.63675931449878, 1.1826178064305317, 89.66816451683074, 2.1780885136217876 " fill="none" id="curve_123" stroke="#000000" stroke-linecap="round" stroke-linejoin="round" stroke-width="1.6780048886838737"/>
  <path d="M 31.729207680253577, 78.17916206627203 Q 32.395773476635675, 75.019668921889, 34.60851655665707, 72.94787993765918 " fill="none" id="curve_143" stroke="#000000" stroke-linecap="round" stroke-linejoin="round" stroke-width="2.465482840873902"/>
  <path d="M 53.447999658870245, 110.01741306243628 Q 53.14432797258719, 109.97060942273016, 52.86723944079814, 109.85698862806251 " fill="none" id="curve_159" stroke="#000000" stroke-linecap="round" stroke-linejoin="round" stroke-width="3.4849770111591414"/>
</svg>
