<?xml version="1.0" ?>
<svg height="140" width="140" xmlns="http://www.w3.org/2000/svg">
  <path d="M 55.95507154613733, 49.98864459991455 Q 55.757265922419364, 62.29545986237112, 52.99952730840877, 67.07784102968094 " fill="none" id="curve_1" stroke="#000000" stroke-linecap="round" stroke-linejoin="round" stroke-width="4.502629985069691"/>
  <path d="M 52.99952730840877, 67.07784102968094 Q 50.514561850063444, 80.72986769002978, 30.89596664536317, 96.27336660611022 " fill="none" id="curve_1" stroke="#000000" stroke-linecap="round" stroke-linejoin="round" stroke-width="4.804654452178788"/>
  <path d="M 30.89596664536317, 96.27336660611022 Q 27.629263659950013, 99.59443839567223, 17.305607373624724, 100.92190034419077 " fill="none" id="curve_1" stroke="#000000" stroke-linecap="round" stroke-linejoin="round" stroke-width="5.792966717716391"/>
  <path d="M 17.305607373624724, 100.92190034419077 Q 12.462367844232888, 98.76892459050949, 9.781669546950958, 92.9174711507947 " fill="none" id="curve_1" stroke="#000000" stroke-linecap="round" stroke-linejoin="round" stroke-width="5.10316022981803"/>
  <path d="M 9.781669546950958, 92.9174711507947 Q 11.961075919469582, 73.77406110651386, 28.478806686096075, 58.58145817028209 " fill="none" id="curve_1" stroke="#000000" stroke-linecap="round" stroke-linejoin="round" stroke-width="6.166572603940603"/>
  <path d="M 28.478806686096075, 58.58145817028209 Q 29.132690314063407, 53.68053576114027, 42.3614655333376, 53.195428190358385 " fill="none" id="curve_1" stroke="#000000" stroke-linecap="round" stroke-linejoin="round" stroke-width="3.8019947583171985"/>
  <path d="M 42.3614655333376, 53.195428190358385 Q 42.54040817600155, 56.81990565406952, 46.80884096296135, 57.15372572479451 " fill="none" id="curve_1" stroke="#000000" stroke-linecap="round" stroke-linejoin="round" stroke-width="2.968183442655092"/>
  <path d="M 56.74865999019508, 47.59600427904795 Q 56.537659082562236, 52.93912255744441, 56.29347201552093, 59.886578578399394 " fill="none" id="curve_2" stroke="#000000" stroke-linecap="round" stroke-linejoin="round" stroke-width="3.2639551081850526"/>
  <path d="M 89.30821262848555, 47.10994122765886 Q 89.28975396018699, 60.738659037372514, 89.18481952705143, 73.49549013549368 " fill="none" id="curve_4" stroke="#000000" stroke-linecap="round" stroke-linejoin="round" stroke-width="2.4278383839968773"/>
  <path d="M 89.18481952705143, 73.49549013549368 Q 89.20023250507107, 82.56215001572322, 89.29979823765206, 99.59756471862977 " fill="none" id="curve_4" stroke="#000000" stroke-linecap="round" stroke-linejoin="round" stroke-width="2.507123779266585"/>
  <path d="M 89.29979823765206, 99.59756471862977 Q 89.24138740660224, 103.5283517205882, 89.10693905355264, 121.54676344691208 " fill="none" id="curve_4" stroke="#000000" stroke-linecap="round" stroke-linejoin="round" stroke-width="2.5021596162737336"/>
  <path d="M 89.10693905355264, 121.54676344691208 Q 89.09609101478942, 134.9418267045375, 89.02740095625286, 138.6872737030532 " fill="none" id="curve_4" stroke="#000000" stroke-linecap="round" stroke-linejoin="round" stroke-width="2.339197460729388"/>
  <path d="M 89.02740095625286, 138.6872737030532 Q 88.51336795167819, 138.63833029398464, 87.93851285664253, 138.58234223176143 " fill="none" id="curve_4" stroke="#000000" stroke-linecap="round" stroke-linejoin="round" stroke-width="3.2637027874052573"/>
  <path d="M 47.71540746893543, 73.76404166536898 Q 45.46186987809359, 82.09769064190944, 37.50296952288642, 90.12450563666366 " fill="none" id="curve_13" stroke="#000000" stroke-linecap="round" stroke-linejoin="round" stroke-width="3.1074295644350793"/>
  <path d="M 37.50296952288642, 90.12450563666366 Q 34.20254909939101, 95.37863930326544, 21.92351718090012, 98.17505165687824 " fill="none" id="curve_13" stroke="#000000" stroke-linecap="round" stroke-linejoin="round" stroke-width="3.3932190639671207"/>
  <path d="M 10.015978535179325, 82.82835728669355 Q 10.466758282749188, 95.35722210860169, 15.111707838511466, 97.98171960074572 " fill="none" id="curve_14" stroke="#000000" stroke-linecap="round" stroke-linejoin="round" stroke-width="3.290955796045189"/>
  <path d="M 10.235197367935026, 89.69933478895311 Q 13.596525102858012, 84.43613584051576, 16.70465456886899, 69.54227375805687 " fill="none" id="curve_15" stroke="#000000" stroke-linecap="round" stroke-linejoin="round" stroke-width="2.9651160933541085"/>
  <path d="M 49.33192751758089, 70.76250984533371 Q 52.789833670966814, 67.53689781922014, 55.68079829866469, 58.455560203391215 " fill="none" id="curve_16" stroke="#000000" stroke-linecap="round" stroke-linejoin="round" stroke-width="2.904837761808761"/>
  <path d="M 48.27531660646607, 79.95575757661686 Q 43.30426991428361, 86.6894526341703, 33.83599358286788, 94.12346881626952 " fill="none" id="curve_17" stroke="#000000" stroke-linecap="round" stroke-linejoin="round" stroke-width="3.3909387498183694"/>
  <path d="M 33.83599358286788, 94.12346881626952 Q 36.81463227160552, 89.35722763712874, 43.6965381794635, 85.79916450871934 " fill="none" id="curve_17" stroke="#000000" stroke-linecap="round" stroke-linejoin="round" stroke-width="2.7656907231624963"/>
  <path d="M 89.74219074556177, 44.541964661223915 Q 89.43304964037279, 43.001505567001104, 89.32765532283102, 19.97455993518094 " fill="none" id="curve_20" stroke="#000000" stroke-linecap="round" stroke-linejoin="round" stroke-width="2.1661756335066245"/>
  <path d="M 89.32765532283102, 19.97455993518094 Q 89.29700436370425, 5.335354095137342, 88.8930376222483, 1.545859179014215 " fill="none" id="curve_20" stroke="#000000" stroke-linecap="round" stroke-linejoin="round" stroke-width="2.252447513088892"/>
  <path d="M 88.8930376222483, 1.545859179014215 Q 88.68984535837342, 1.6568276676476095, 88.53743044153397, 1.9180630384140387 " fill="none" id="curve_20" stroke="#000000" stroke-linecap="round" stroke-linejoin="round" stroke-width="3.719511448763201"/>
  <path d="M 55.39159948922382, 46.82934060412958 Q 55.576950557162924, 50.2007836963649, 56.06324003425662, 53.82885929142566 " fill="none" id="curve_28" stroke="#000000" stroke-linecap="round" stroke-linejoin="round" stroke-width="2.044467735845694"/>
  <path d="M 7.900655690252393, 88.40181707557701 Q 8.836281737911799, 87.09320445679163, 10.41838786384428, 84.56379584393882 " fill="none" id="curve_56" stroke="#000000" stroke-linecap="round" stroke-linejoin="round" stroke-width="2.9730832118264505"/>
  <path d="M 34.629520416259766, 93.99050331115723 Q 34.752544704910854, 89.63989416752499, 37.292845114062175, 89.05884054215255 " fill="none" id="curve_70" stroke="#000000" stroke-linecap="round" stroke-linejoin="round" stroke-width="3.637385169949665"/>
  <path d="M 53.7592188055995, 64.86389738171707 Q 54.45200831156748, 60.96767140428656, 55.98690938471711, 57.069021087531645 " fill="none" id="curve_75" stroke="#000000" stroke-linecap="round" stroke-linejoin="round" stroke-width="2.549868447297517"/>
  <path d="M 20.260181546184285, 65.57388205739576 Q 17.081408023417218, 72.64540713716872, 10.135847953363415, 81.65660847906778 " fill="none" id="curve_78" stroke="#000000" stroke-linecap="round" stroke-linejoin="round" stroke-width="3.005155027740366"/>
  <path d="M 39.6528434753418, 84.17840051651001 Q 41.36651821782987, 83.93040142050353, 46.27051552831108, 83.72066680917317 " fill="none" id="curve_92" stroke="#000000" stroke-linecap="round" stroke-linejoin="round" stroke-width="2.969417183695956"/>
  <path d="M 44.070734913750975, 56.065942516345764 Q 44.874239388466584, 55.6322482792759, 45.95038914574663, 54.600079067445 " fill="none" id="curve_97" stroke="#000000" stroke-linecap="round" stroke-linejoin="round" stroke-width="2.3930273902566155"/>
  <path d="M 26.48018986986267, 99.50510367251474 Q 30.877217973094307, 95.12487073014312, 39.920585624423495, 89.82205487081991 " fill="none" id="curve_125" stroke="#000000" stroke-linecap="round" stroke-linejoin="round" stroke-width="3.2535701877574175"/>
  <path d="M 89.20112350718398, 45.972579751723046 Q 89.07224576869784, 45.608288257493214, 88.87241131132373, 45.00235643886452 " fill="none" id="curve_140" stroke="#000000" stroke-linecap="round" stroke-linejoin="round" stroke-width="2.108043251283365"/>
</svg>
