<?xml version="1.0" ?>
<svg height="140" width="140" xmlns="http://www.w3.org/2000/svg">
  <path d="M 64.0622079372406, 96.75047492980957 Q 65.05248508915403, 93.99731305863037, 67.53900752036111, 90.14127002720079 " fill="none" id="curve_1" stroke="#000000" stroke-linecap="round" stroke-linejoin="round" stroke-width="6.865097388967422"/>
  <path d="M 67.53900752036111, 90.14127002720079 Q 66.81782751286215, 80.46494591280756, 62.47002865741251, 73.64325748511055 " fill="none" id="curve_1" stroke="#000000" stroke-linecap="round" stroke-linejoin="round" stroke-width="5.862919696528212"/>
  <path d="M 62.47002865741251, 73.64325748511055 Q 60.10076689713684, 64.20455157823898, 42.860256378308165, 57.67089025841637 " fill="none" id="curve_1" stroke="#000000" stroke-linecap="round" stroke-linejoin="round" stroke-width="5.494507335991629"/>
  <path d="M 42.860256378308165, 57.67089025841637 Q 24.455178343830966, 57.70993194058889, 23.658099365603107, 62.150762531565874 " fill="none" id="curve_1" stroke="#000000" stroke-linecap="round" stroke-linejoin="round" stroke-width="5.621121657866199"/>
  <path d="M 23.658099365603107, 62.150762531565874 Q 20.457556837559828, 68.61307984721165, 18.527300261983033, 86.34312773804655 " fill="none" id="curve_1" stroke="#000000" stroke-linecap="round" stroke-linejoin="round" stroke-width="5.609397480139378"/>
  <path d="M 18.527300261983033, 86.34312773804655 Q 20.735478219405152, 108.46631417053281, 38.69836687727504, 114.49116052825318 " fill="none" id="curve_1" stroke="#000000" stroke-linecap="round" stroke-linejoin="round" stroke-width="4.759517297595568"/>
  <path d="M 38.69836687727504, 114.49116052825318 Q 60.681198846263584, 113.60244294356411, 64.31224843606125, 95.39560997143317 " fill="none" id="curve_1" stroke="#000000" stroke-linecap="round" stroke-linejoin="round" stroke-width="5.155047706859259"/>
  <path d="M 64.31224843606125, 95.39560997143317 Q 61.706278702925616, 106.00237868309857, 45.56929582177902, 112.43006634426168 " fill="none" id="curve_1" stroke="#000000" stroke-linecap="round" stroke-linejoin="round" stroke-width="3.1280331438959763"/>
  <path d="M 45.56929582177902, 112.43006634426168 Q 41.71165213089536, 111.99942040011648, 31.325818959651468, 111.67043905220306 " fill="none" id="curve_1" stroke="#000000" stroke-linecap="round" stroke-linejoin="round" stroke-width="3.164475346760039"/>
  <path d="M 64.34141919327402, 98.26114026435634 Q 66.21365528615, 96.98248218891642, 67.77815610693689, 94.56487415343076 " fill="none" id="curve_2" stroke="#000000" stroke-linecap="round" stroke-linejoin="round" stroke-width="3.382891488312144"/>
  <path d="M 34.48821098949732, 55.626099760647556 Q 27.452720074605967, 55.64182585381981, 26.89896756508995, 56.31393697676899 " fill="none" id="curve_3" stroke="#000000" stroke-linecap="round" stroke-linejoin="round" stroke-width="5.566719414049713"/>
  <path d="M 26.89896756508995, 56.31393697676899 Q 27.942162990993154, 49.12180692801866, 37.52174792571212, 47.75113585744053 " fill="none" id="curve_3" stroke="#000000" stroke-linecap="round" stroke-linejoin="round" stroke-width="5.489142461782329"/>
  <path d="M 37.52174792571212, 47.75113585744053 Q 40.99215592370301, 49.44775859722203, 46.03391126652355, 50.74934135167687 " fill="none" id="curve_3" stroke="#000000" stroke-linecap="round" stroke-linejoin="round" stroke-width="3.841481448641162"/>
  <path d="M 23.441223418137035, 98.10975643369946 Q 25.25037659263534, 104.931434997693, 28.637701133653515, 111.24050217174758 " fill="none" id="curve_6" stroke="#000000" stroke-linecap="round" stroke-linejoin="round" stroke-width="3.1723913045283636"/>
  <path d="M 21.74369852584346, 62.37319037000849 Q 24.05968575000733, 57.246156439183345, 40.58318668391324, 55.80582044455657 " fill="none" id="curve_8" stroke="#000000" stroke-linecap="round" stroke-linejoin="round" stroke-width="3.1369302065379077"/>
  <path d="M 40.58318668391324, 55.80582044455657 Q 49.659757503469564, 57.2446535950181, 53.94506684091431, 62.32350793352974 " fill="none" id="curve_8" stroke="#000000" stroke-linecap="round" stroke-linejoin="round" stroke-width="2.4449038398935827"/>
  <path d="M 26.420895127688368, 102.95075314807526 Q 27.876220232261836, 104.7661092989996, 28.818073650434837, 111.03156659920965 " fill="none" id="curve_9" stroke="#000000" stroke-linecap="round" stroke-linejoin="round" stroke-width="2.8000174968509546"/>
  <path d="M 62.315309610735994, 73.29835751981918 Q 63.16840132727735, 71.97368451603971, 64.15941393788614, 69.7932168539331 " fill="none" id="curve_11" stroke="#000000" stroke-linecap="round" stroke-linejoin="round" stroke-width="3.3051228808601674"/>
  <path d="M 67.7719990262969, 83.9172622871397 Q 68.55720351478239, 83.90877879798036, 69.1441078334158, 83.8844381352812 " fill="none" id="curve_27" stroke="#000000" stroke-linecap="round" stroke-linejoin="round" stroke-width="3.8236744646439123"/>
  <path d="M 35.25382294400828, 112.58103599009902 Q 35.70200261401487, 112.36651653989829, 36.16926070642657, 111.93142341106876 " fill="none" id="curve_28" stroke="#000000" stroke-linecap="round" stroke-linejoin="round" stroke-width="3.6952392885881706"/>
  <path d="M 90.24450635910034, 0.6961479187011719 Q 89.9957988407585, 1.261200037640993, 89.18243736527457, 1.8792301019930306 " fill="none" id="curve_42" stroke="#000000" stroke-linecap="round" stroke-linejoin="round" stroke-width="1.8131232115809968"/>
  <path d="M 32.21142774013822, 113.43667443444173 Q 31.14006890897228, 112.47366659582912, 29.651652232381466, 111.0310260847473 " fill="none" id="curve_57" stroke="#000000" stroke-linecap="round" stroke-linejoin="round" stroke-width="3.7301521600976257"/>
</svg>
