<?xml version="1.0" ?>
<svg height="140" width="140" xmlns="http://www.w3.org/2000/svg">
  <path d="M 32.80912113189697, 64.06221008300781 Q 32.901330147648046, 62.406124510371264, 35.65533097271644, 62.21668624270575 " fill="none" id="curve_1" stroke="#000000" stroke-linecap="round" stroke-linejoin="round" stroke-width="9.745384388486263"/>
  <path d="M 35.65533097271644, 62.21668624270575 Q 17.333150607260617, 62.44449526745928, 14.634363522409597, 72.82752492860328 " fill="none" id="curve_1" stroke="#000000" stroke-linecap="round" stroke-linejoin="round" stroke-width="5.58320171278046"/>
  <path d="M 14.634363522409597, 72.82752492860328 Q 11.852179312731966, 74.88706920110765, 11.361788148744406, 89.03529935060756 " fill="none" id="curve_1" stroke="#000000" stroke-linecap="round" stroke-linejoin="round" stroke-width="6.771729809372032"/>
  <path d="M 11.361788148744406, 89.03529935060756 Q 13.299938686063006, 109.94575310592631, 33.16900810179101, 114.70648203300523 " fill="none" id="curve_1" stroke="#000000" stroke-linecap="round" stroke-linejoin="round" stroke-width="5.258034582775842"/>
  <path d="M 33.16900810179101, 114.70648203300523 Q 55.867807081611616, 113.41906037456974, 60.266345969841936, 89.77444695898414 " fill="none" id="curve_1" stroke="#000000" stroke-linecap="round" stroke-linejoin="round" stroke-width="5.093683256973599"/>
  <path d="M 60.266345969841936, 89.77444695898414 Q 58.48897194810932, 72.3736770357706, 35.78527075454804, 65.21221876358368 " fill="none" id="curve_1" stroke="#000000" stroke-linecap="round" stroke-linejoin="round" stroke-width="5.2330296027708005"/>
  <path d="M 35.78527075454804, 65.21221876358368 Q 39.58427212956699, 64.51983842872345, 40.997107906537295, 61.84928751122756 " fill="none" id="curve_1" stroke="#000000" stroke-linecap="round" stroke-linejoin="round" stroke-width="4.589451871654918"/>
  <path d="M 48.91439231986736, 108.43534594068161 Q 43.385102079724916, 111.73819202466161, 32.40097766582271, 114.38361802828973 " fill="none" id="curve_2" stroke="#000000" stroke-linecap="round" stroke-linejoin="round" stroke-width="4.221764167094706"/>
  <path d="M 56.43089588256994, 76.77213605418021 Q 50.95126760240312, 72.72994506608529, 36.66805595015503, 67.94942343799067 " fill="none" id="curve_9" stroke="#000000" stroke-linecap="round" stroke-linejoin="round" stroke-width="2.9907970792483805"/>
  <path d="M 14.687169742112022, 67.97287654857982 Q 12.554441692789467, 70.33337869984524, 11.688845816462923, 78.97507627436133 " fill="none" id="curve_10" stroke="#000000" stroke-linecap="round" stroke-linejoin="round" stroke-width="3.573293315162959"/>
  <path d="M 31.90115650820651, 113.27795606093036 Q 44.36207831475623, 111.78328809416807, 51.81480701727392, 105.64868543825706 " fill="none" id="curve_12" stroke="#000000" stroke-linecap="round" stroke-linejoin="round" stroke-width="3.0088190390578426"/>
  <path d="M 25.40336043730075, 109.11534449625958 Q 17.36518181457765, 107.04992038448857, 11.454587311138438, 95.89688356366969 " fill="none" id="curve_14" stroke="#000000" stroke-linecap="round" stroke-linejoin="round" stroke-width="2.3977915494953064"/>
  <path d="M 9.918672172392897, 82.42553103901854 Q 11.411086749265664, 82.52582811469611, 13.322411037845937, 82.72283808498985 " fill="none" id="curve_15" stroke="#000000" stroke-linecap="round" stroke-linejoin="round" stroke-width="3.724363556600788"/>
  <path d="M 54.93550879525982, 74.08939125366096 Q 56.72146195241598, 75.30038021832524, 58.573670346024336, 78.93118785525347 " fill="none" id="curve_20" stroke="#000000" stroke-linecap="round" stroke-linejoin="round" stroke-width="2.842078173706283"/>
  <path d="M 56.250701206093616, 100.44925470132853 Q 56.87404824480418, 97.06890193336358, 58.79083250449544, 93.46921429838929 " fill="none" id="curve_21" stroke="#000000" stroke-linecap="round" stroke-linejoin="round" stroke-width="3.7678136953148833"/>
  <path d="M 26.429162290130307, 113.84252387687582 Q 19.48436557739562, 110.4880621081788, 12.718286041768815, 99.97715008321008 " fill="none" id="curve_36" stroke="#000000" stroke-linecap="round" stroke-linejoin="round" stroke-width="3.308763275145706"/>
  <path d="M 11.25644973971589, 96.51485645052192 Q 13.196040426027821, 102.29489325973577, 18.798070436223597, 107.99928319171035 " fill="none" id="curve_64" stroke="#000000" stroke-linecap="round" stroke-linejoin="round" stroke-width="2.31716939015789"/>
  <path d="M 20.975913862062527, 109.5170134045374 Q 18.241597584899257, 103.10072621522065, 9.782170754437377, 98.16121885836014 " fill="none" id="curve_81" stroke="#000000" stroke-linecap="round" stroke-linejoin="round" stroke-width="3.0982346331422805"/>
  <path d="M 17.097767731849444, 72.16395177522315 Q 13.183503543457643, 73.88443876892795, 12.22040316822208, 87.0038031471043 " fill="none" id="curve_96" stroke="#000000" stroke-linecap="round" stroke-linejoin="round" stroke-width="3.485303746322375"/>
</svg>
