<?xml version="1.0" ?>
<svg height="140" width="140" xmlns="http://www.w3.org/2000/svg">
  <path d="M 89.42962150015813, 4.186671405063656 Q 89.36012434756658, 2.4161035761148586, 89.20951254700276, 0.4056534507359566 " fill="none" id="curve_2" stroke="#000000" stroke-linecap="round" stroke-linejoin="round" stroke-width="1.526574955584144"/>
  <path d="M 63.831424081868555, 26.525922782688298 Q 63.15575878814378, 26.32910741789508, 49.011792495845675, 26.302556563253585 " fill="none" id="curve_3" stroke="#000000" stroke-linecap="round" stroke-linejoin="round" stroke-width="8.027796896558414"/>
  <path d="M 49.011792495845675, 26.302556563253585 Q 45.06610378436662, 32.70082303103116, 32.46149635044499, 45.847019343273374 " fill="none" id="curve_3" stroke="#000000" stroke-linecap="round" stroke-linejoin="round" stroke-width="4.884307738686497"/>
  <path d="M 32.46149635044499, 45.847019343273374 Q 27.73623179344773, 51.806938281105815, 21.915172607092188, 72.38634064483449 " fill="none" id="curve_3" stroke="#000000" stroke-linecap="round" stroke-linejoin="round" stroke-width="4.608786214601297"/>
  <path d="M 21.915172607092188, 72.38634064483449 Q 22.03110667390394, 102.94118702307073, 29.532649213990872, 106.18258081933784 " fill="none" id="curve_3" stroke="#000000" stroke-linecap="round" stroke-linejoin="round" stroke-width="3.9288083061878263"/>
  <path d="M 29.532649213990872, 106.18258081933784 Q 30.541851078806562, 113.05810225105543, 41.73775322952057, 114.02878284555648 " fill="none" id="curve_3" stroke="#000000" stroke-linecap="round" stroke-linejoin="round" stroke-width="3.826067571916871"/>
  <path d="M 41.73775322952057, 114.02878284555648 Q 60.85364913241048, 112.25768554127237, 68.765916929893, 89.9830106857867 " fill="none" id="curve_3" stroke="#000000" stroke-linecap="round" stroke-linejoin="round" stroke-width="3.706346505199341"/>
  <path d="M 68.765916929893, 89.9830106857867 Q 71.02864690524585, 84.54749823576128, 72.47417466139099, 65.70228177619691 " fill="none" id="curve_3" stroke="#000000" stroke-linecap="round" stroke-linejoin="round" stroke-width="4.156167666672851"/>
  <path d="M 72.47417466139099, 65.70228177619691 Q 72.45142688597336, 48.73265832688859, 72.24680561659736, 44.906602582266615 " fill="none" id="curve_3" stroke="#000000" stroke-linecap="round" stroke-linejoin="round" stroke-width="4.038684977867749"/>
  <path d="M 72.24680561659736, 44.906602582266615 Q 71.04541371309261, 32.611374901834346, 63.72856528738407, 27.57926008519095 " fill="none" id="curve_3" stroke="#000000" stroke-linecap="round" stroke-linejoin="round" stroke-width="4.629094768485495"/>
  <path d="M 63.72856528738407, 27.57926008519095 Q 55.966957375557485, 28.54851784968927, 51.622596088404435, 30.938073557640067 " fill="none" id="curve_3" stroke="#000000" stroke-linecap="round" stroke-linejoin="round" stroke-width="3.674099986345927"/>
  <path d="M 36.994569916873246, 38.41921555371093 Q 32.762959327158725, 45.15047344716894, 24.865431163234902, 56.75574025461863 " fill="none" id="curve_4" stroke="#000000" stroke-linecap="round" stroke-linejoin="round" stroke-width="2.7404803638627224"/>
  <path d="M 20.249306724457444, 82.07183819136725 Q 20.65963685292577, 81.70627702288893, 21.020222357260472, 80.77551598729286 " fill="none" id="curve_5" stroke="#000000" stroke-linecap="round" stroke-linejoin="round" stroke-width="2.6665603321848823"/>
  <path d="M 21.020222357260472, 80.77551598729286 Q 21.220252423334703, 89.9890020791371, 22.21025318472482, 92.81110984250276 " fill="none" id="curve_5" stroke="#000000" stroke-linecap="round" stroke-linejoin="round" stroke-width="3.398011387086853"/>
  <path d="M 20.84411862186805, 75.15131328556583 Q 20.87773924587329, 75.61030841658261, 20.90169946793713, 77.16593569294743 " fill="none" id="curve_6" stroke="#000000" stroke-linecap="round" stroke-linejoin="round" stroke-width="3.733506122446627"/>
  <path d="M 90.02210232653344, 51.625046761944695 Q 89.83851206688854, 52.93020226603344, 89.63210417558162, 55.690900297673615 " fill="none" id="curve_9" stroke="#000000" stroke-linecap="round" stroke-linejoin="round" stroke-width="2.0665068488060365"/>
  <path d="M 89.99377343601377, 88.90456100906827 Q 89.77333717943226, 88.99690079820103, 89.45070020761949, 89.15129030086632 " fill="none" id="curve_10" stroke="#000000" stroke-linecap="round" stroke-linejoin="round" stroke-width="2.365194568056843"/>
  <path d="M 89.89828666324959, 132.18447585465165 Q 89.83148788893085, 136.51719943062855, 89.57998105572261, 138.64531463911558 " fill="none" id="curve_11" stroke="#000000" stroke-linecap="round" stroke-linejoin="round" stroke-width="2.4398230788484687"/>
  <path d="M 67.47602034281401, 91.10700699675868 Q 67.76146805901715, 84.02797519822118, 70.58185570591242, 82.13010610321912 " fill="none" id="curve_13" stroke="#000000" stroke-linecap="round" stroke-linejoin="round" stroke-width="2.440677419111044"/>
  <path d="M 64.70204764400832, 95.30958579490577 Q 65.82485746859382, 93.95592187813607, 67.27576870651994, 92.41750614880942 " fill="none" id="curve_14" stroke="#000000" stroke-linecap="round" stroke-linejoin="round" stroke-width="2.7799004233692193"/>
  <path d="M 28.873352293772747, 102.65839696838891 Q 27.115973863422024, 101.30165386173893, 23.87710956562153, 99.90816945406088 " fill="none" id="curve_15" stroke="#000000" stroke-linecap="round" stroke-linejoin="round" stroke-width="2.6984395116321496"/>
  <path d="M 56.566927631323935, 26.903910130836007 Q 57.581494806541286, 25.460162023703774, 61.085856657709485, 24.635698017883414 " fill="none" id="curve_18" stroke="#000000" stroke-linecap="round" stroke-linejoin="round" stroke-width="3.496679243768545"/>
  <path d="M 68.59379876675179, 32.75120247115179 Q 68.08175920386125, 31.171451901093636, 67.38148492251197, 28.23428550987165 " fill="none" id="curve_19" stroke="#000000" stroke-linecap="round" stroke-linejoin="round" stroke-width="3.2268408504736636"/>
  <path d="M 71.05811854149012, 41.607904429869265 Q 69.32617548684183, 37.933439014408336, 67.5297942879519, 28.854003544180614 " fill="none" id="curve_20" stroke="#000000" stroke-linecap="round" stroke-linejoin="round" stroke-width="2.466614086742396"/>
  <path d="M 25.915094521549648, 54.36305658976987 Q 31.11311344841004, 46.460063287484964, 41.50386157761096, 35.48529742836479 " fill="none" id="curve_22" stroke="#000000" stroke-linecap="round" stroke-linejoin="round" stroke-width="2.533956055368088"/>
  <path d="M 55.25018470056803, 30.767371809941086 Q 52.65621151552684, 30.78218454059047, 48.1536244852881, 30.802195969568235 " fill="none" id="curve_25" stroke="#000000" stroke-linecap="round" stroke-linejoin="round" stroke-width="1.987515065754832"/>
  <path d="M 37.11793999596888, 38.005624059544274 Q 34.16900465330721, 43.22456139433284, 29.014032061437597, 50.26491492931913 " fill="none" id="curve_26" stroke="#000000" stroke-linecap="round" stroke-linejoin="round" stroke-width="2.934700188072408"/>
  <path d="M 90.00734706038659, 6.939997344772966 Q 89.85673226965574, 7.2008292276207575, 89.59800070774965, 7.622044693127141 " fill="none" id="curve_42" stroke="#000000" stroke-linecap="round" stroke-linejoin="round" stroke-width="1.9652246278241101"/>
  <path d="M 89.59547361342273, 50.938062416047046 Q 89.60307901527898, 49.8223286690384, 89.62213891817636, 48.98084168217463 " fill="none" id="curve_44" stroke="#000000" stroke-linecap="round" stroke-linejoin="round" stroke-width="2.021684320779129"/>
  <path d="M 22.724003807371773, 93.71761398826447 Q 22.626222276598355, 96.13130853491887, 22.202101350974473, 97.27666814267299 " fill="none" id="curve_48" stroke="#000000" stroke-linecap="round" stroke-linejoin="round" stroke-width="3.399856459601743"/>
  <path d="M 29.232942072479112, 48.68897759848341 Q 32.38675518975691, 47.63441219302946, 34.780521080480256, 44.61923668419316 " fill="none" id="curve_56" stroke="#000000" stroke-linecap="round" stroke-linejoin="round" stroke-width="3.244751863886671"/>
  <path d="M 89.44522369458119, 35.31960321446475 Q 89.54188811469531, 34.88401792995943, 89.78999894484744, 34.35282135786349 " fill="none" id="curve_59" stroke="#000000" stroke-linecap="round" stroke-linejoin="round" stroke-width="1.6998032448961948"/>
  <path d="M 69.20737820002171, 30.527719412770637 Q 68.57137003634702, 30.97753354142043, 68.0078149329872, 32.20637259739918 " fill="none" id="curve_87" stroke="#000000" stroke-linecap="round" stroke-linejoin="round" stroke-width="3.6937632073267292"/>
  <path d="M 20.646364787661092, 77.20618593279012 Q 20.568828505256693, 75.00477220903107, 20.288343944056763, 73.67928131039052 " fill="none" id="curve_105" stroke="#000000" stroke-linecap="round" stroke-linejoin="round" stroke-width="3.3137131411039165"/>
  <path d="M 72.8102531342087, 43.589610509989754 Q 70.72759345381797, 36.19241885248806, 62.933211101609366, 28.382947668999897 " fill="none" id="curve_136" stroke="#000000" stroke-linecap="round" stroke-linejoin="round" stroke-width="1.8229131958794202"/>
  <path d="M 29.875728435181372, 47.18106552564302 Q 29.64634515692128, 47.79191306008848, 29.370524817671164, 49.05088045998607 " fill="none" id="curve_151" stroke="#000000" stroke-linecap="round" stroke-linejoin="round" stroke-width="3.8402951233983402"/>
  <path d="M 22.167904019683192, 64.90070386509063 Q 23.480636978248373, 62.65230776090408, 25.35416980433529, 58.85320652220591 " fill="none" id="curve_179" stroke="#000000" stroke-linecap="round" stroke-linejoin="round" stroke-width="2.3264467283329067"/>
</svg>
