<?xml version="1.0" ?>
<svg height="140" width="140" xmlns="http://www.w3.org/2000/svg">
  <path d="M 62.654640197753906, 40.771469593048096 Q 62.466951974460585, 40.39828484573647, 56.305894791991136, 40.359670182961494 " fill="none" id="curve_1" stroke="#000000" stroke-linecap="round" stroke-linejoin="round" stroke-width="6.251524704388354"/>
  <path d="M 56.305894791991136, 40.359670182961494 Q 53.77944879697383, 42.888642911593074, 43.12067815872212, 44.10634468454867 " fill="none" id="curve_1" stroke="#000000" stroke-linecap="round" stroke-linejoin="round" stroke-width="4.433444560957293"/>
  <path d="M 43.12067815872212, 44.10634468454867 Q 38.34540792185933, 49.66442917114991, 27.422013660132073, 61.30712100027583 " fill="none" id="curve_1" stroke="#000000" stroke-linecap="round" stroke-linejoin="round" stroke-width="6.033839040534754"/>
  <path d="M 27.422013660132073, 61.30712100027583 Q 22.107446563831726, 68.47373656911185, 13.29305059967836, 86.86517471364414 " fill="none" id="curve_1" stroke="#000000" stroke-linecap="round" stroke-linejoin="round" stroke-width="6.073846234248569"/>
  <path d="M 13.29305059967836, 86.86517471364414 Q 13.338469340027434, 115.7351540808258, 18.1814440241435, 116.6679088513531 " fill="none" id="curve_1" stroke="#000000" stroke-linecap="round" stroke-linejoin="round" stroke-width="4.947208061727265"/>
  <path d="M 18.1814440241435, 116.6679088513531 Q 24.36399694088476, 116.80855467834695, 26.84005108408761, 117.9869468732223 " fill="none" id="curve_1" stroke="#000000" stroke-linecap="round" stroke-linejoin="round" stroke-width="4.215007720291052"/>
  <path d="M 26.84005108408761, 117.9869468732223 Q 44.72182024952555, 112.16215899070077, 57.04877729050232, 89.00743290382555 " fill="none" id="curve_1" stroke="#000000" stroke-linecap="round" stroke-linejoin="round" stroke-width="4.199524124629355"/>
  <path d="M 57.04877729050232, 89.00743290382555 Q 61.51872570375312, 80.50450797383586, 65.64843903416359, 57.584304820340776 " fill="none" id="curve_1" stroke="#000000" stroke-linecap="round" stroke-linejoin="round" stroke-width="4.372633341395857"/>
  <path d="M 65.64843903416359, 57.584304820340776 Q 65.58211912867529, 43.54701945533079, 64.86484037110223, 41.06086291132456 " fill="none" id="curve_1" stroke="#000000" stroke-linecap="round" stroke-linejoin="round" stroke-width="3.9946710480320697"/>
  <path d="M 89.43781169285175, 3.5823578604619115 Q 89.55229108948288, 2.676243531364323, 89.65976478575472, 0.7065871820788376 " fill="none" id="curve_3" stroke="#000000" stroke-linecap="round" stroke-linejoin="round" stroke-width="1.8374189117577167"/>
  <path d="M 53.53257379139818, 44.0757488624669 Q 53.01699626466795, 45.10426029667283, 49.367245258715506, 45.32023143159458 " fill="none" id="curve_6" stroke="#000000" stroke-linecap="round" stroke-linejoin="round" stroke-width="2.1575061211410675"/>
  <path d="M 63.65315835736275, 66.39843023126824 Q 64.04503275240072, 67.35958385154166, 64.6127768679269, 68.6404204162341 " fill="none" id="curve_7" stroke="#000000" stroke-linecap="round" stroke-linejoin="round" stroke-width="4.746445647400367"/>
  <path d="M 44.37897923079398, 48.041270744925995 Q 30.314760782641187, 49.16731548518433, 25.278151203595417, 63.07362323053289 " fill="none" id="curve_8" stroke="#000000" stroke-linecap="round" stroke-linejoin="round" stroke-width="2.5674945252504684"/>
  <path d="M 25.278151203595417, 63.07362323053289 Q 19.611609761875155, 67.3251960806409, 15.550017502249522, 77.85231820873872 " fill="none" id="curve_8" stroke="#000000" stroke-linecap="round" stroke-linejoin="round" stroke-width="2.858276462687823"/>
  <path d="M 15.550017502249522, 77.85231820873872 Q 13.59583976168493, 86.71993471589568, 10.657563211735958, 94.66724334159628 " fill="none" id="curve_8" stroke="#000000" stroke-linecap="round" stroke-linejoin="round" stroke-width="3.15338291356222"/>
  <path d="M 10.657563211735958, 94.66724334159628 Q 10.762578301321867, 115.4752024382448, 18.140142407669202, 116.19090467654053 " fill="none" id="curve_8" stroke="#000000" stroke-linecap="round" stroke-linejoin="round" stroke-width="3.2016343985149103"/>
  <path d="M 18.140142407669202, 116.19090467654053 Q 20.647553036470832, 117.49788677894344, 23.182691467127746, 119.11933734190485 " fill="none" id="curve_8" stroke="#000000" stroke-linecap="round" stroke-linejoin="round" stroke-width="3.9009993307729074"/>
  <path d="M 23.182691467127746, 119.11933734190485 Q 30.238549592219293, 114.76766766680943, 39.702120123324306, 109.43963900146235 " fill="none" id="curve_8" stroke="#000000" stroke-linecap="round" stroke-linejoin="round" stroke-width="3.4745941002935856"/>
  <path d="M 39.702120123324306, 109.43963900146235 Q 43.87688090055056, 103.46582930999305, 51.45026167592553, 98.30826518135669 " fill="none" id="curve_8" stroke="#000000" stroke-linecap="round" stroke-linejoin="round" stroke-width="3.923158717326746"/>
  <path d="M 58.90992872996233, 77.41521289231957 Q 62.88004555928084, 70.81254391185985, 67.12704330831325, 58.482328527843194 " fill="none" id="curve_9" stroke="#000000" stroke-linecap="round" stroke-linejoin="round" stroke-width="2.958345843696623"/>
  <path d="M 63.9381046295166, 42.111273765563965 Q 63.76093943341265, 39.89953100933872, 61.86961295475589, 39.13713579232285 " fill="none" id="curve_23" stroke="#000000" stroke-linecap="round" stroke-linejoin="round" stroke-width="2.694166338643006"/>
  <path d="M 65.32511643590624, 47.64331051848421 Q 66.28680191319779, 47.37716211234274, 67.22653763144561, 46.62370709806935 " fill="none" id="curve_38" stroke="#000000" stroke-linecap="round" stroke-linejoin="round" stroke-width="2.8004121411455185"/>
  <path d="M 38.304741427938836, 47.87114071058316 Q 38.08066069904881, 48.921362726521316, 37.58898821799729, 49.92564487214944 " fill="none" id="curve_39" stroke="#000000" stroke-linecap="round" stroke-linejoin="round" stroke-width="3.576032725137643"/>
  <path d="M 60.84872323998253, 72.81909373421638 Q 61.187895064258534, 69.83584793355881, 62.359515886681145, 67.15524754708805 " fill="none" id="curve_67" stroke="#000000" stroke-linecap="round" stroke-linejoin="round" stroke-width="2.2152275890090753"/>
  <path d="M 54.788107686109925, 95.54079551957953 Q 51.3557443533884, 97.77832650239324, 47.82258463581812, 101.75311816240041 " fill="none" id="curve_95" stroke="#000000" stroke-linecap="round" stroke-linejoin="round" stroke-width="4.224496216688618"/>
  <path d="M 20.389583727476982, 115.80597845844449 Q 17.978633787545647, 114.86620237020625, 14.841458979397729, 113.58005050662456 " fill="none" id="curve_97" stroke="#000000" stroke-linecap="round" stroke-linejoin="round" stroke-width="3.201696103874122"/>
  <path d="M 50.78408357497483, 100.34577785740396 Q 48.242623387009466, 100.53242424426237, 46.82927204220082, 101.172854577213 " fill="none" id="curve_112" stroke="#000000" stroke-linecap="round" stroke-linejoin="round" stroke-width="4.800729747028858"/>
</svg>
