<?xml version="1.0" ?>
<svg height="140" width="140" xmlns="http://www.w3.org/2000/svg">
  <path d="M 50.75516128540039, 46.503929138183594 Q 45.15196241080024, 46.32020860701928, 42.93556941590896, 45.077423413497144 " fill="none" id="curve_1" stroke="#000000" stroke-linecap="round" stroke-linejoin="round" stroke-width="11.44510729900503"/>
  <path d="M 42.93556941590896, 45.077423413497144 Q 34.26392002849813, 48.0299196312267, 27.91526427654862, 60.08892130545069 " fill="none" id="curve_1" stroke="#000000" stroke-linecap="round" stroke-linejoin="round" stroke-width="7.176060228337955"/>
  <path d="M 27.91526427654862, 60.08892130545069 Q 21.59711819332926, 66.08685094271706, 17.693196412458036, 90.09633860132853 " fill="none" id="curve_1" stroke="#000000" stroke-linecap="round" stroke-linejoin="round" stroke-width="5.47943127692663"/>
  <path d="M 17.693196412458036, 90.09633860132853 Q 19.035912189199344, 106.98764039734874, 33.587218506680756, 109.52117785716104 " fill="none" id="curve_1" stroke="#000000" stroke-linecap="round" stroke-linejoin="round" stroke-width="5.205539860281984"/>
  <path d="M 33.587218506680756, 109.52117785716104 Q 53.751557072437755, 107.26141046617406, 64.43195523616951, 79.55067051047834 " fill="none" id="curve_1" stroke="#000000" stroke-linecap="round" stroke-linejoin="round" stroke-width="5.113355650582415"/>
  <path d="M 64.43195523616951, 79.55067051047834 Q 67.13997798823537, 75.06210917650675, 68.89681677631381, 64.06144181928742 " fill="none" id="curve_1" stroke="#000000" stroke-linecap="round" stroke-linejoin="round" stroke-width="4.734321083829225"/>
  <path d="M 68.89681677631381, 64.06144181928742 Q 68.63694504652592, 46.840041349102435, 49.732379544784564, 45.728487683926346 " fill="none" id="curve_1" stroke="#000000" stroke-linecap="round" stroke-linejoin="round" stroke-width="4.735099024209754"/>
  <path d="M 49.732379544784564, 45.728487683926346 Q 48.70400694086882, 43.243431480489505, 46.176899281708316, 41.82616035511844 " fill="none" id="curve_1" stroke="#000000" stroke-linecap="round" stroke-linejoin="round" stroke-width="4.375704150719876"/>
  <path d="M 89.95803074616114, 1.651236042486457 Q 89.92528045547374, 2.7808703984257117, 89.83791270881981, 4.002041067885182 " fill="none" id="curve_3" stroke="#000000" stroke-linecap="round" stroke-linejoin="round" stroke-width="2.3112025380677323"/>
  <path d="M 49.7218156942445, 100.97594940150165 Q 54.21016450183538, 95.97172063451349, 61.80146893691085, 84.95796288235205 " fill="none" id="curve_6" stroke="#000000" stroke-linecap="round" stroke-linejoin="round" stroke-width="2.5323444425379993"/>
  <path d="M 38.2930688331494, 107.35232437078382 Q 46.97039076196905, 105.4369723401194, 52.635858060109136, 97.05980087693351 " fill="none" id="curve_7" stroke="#000000" stroke-linecap="round" stroke-linejoin="round" stroke-width="2.5303356702398907"/>
  <path d="M 35.56364242603346, 107.20276420856672 Q 32.763403493433536, 106.70235430343236, 27.764611253899282, 106.08081046380256 " fill="none" id="curve_8" stroke="#000000" stroke-linecap="round" stroke-linejoin="round" stroke-width="3.302230807019448"/>
  <path d="M 27.764611253899282, 106.08081046380256 Q 22.85640312073025, 103.42748883773805, 17.453517781517068, 99.6185695583272 " fill="none" id="curve_8" stroke="#000000" stroke-linecap="round" stroke-linejoin="round" stroke-width="4.417116086791975"/>
  <path d="M 17.453517781517068, 99.6185695583272 Q 18.819551125596373, 98.21846764109634, 19.055585788023475, 82.71290196721793 " fill="none" id="curve_8" stroke="#000000" stroke-linecap="round" stroke-linejoin="round" stroke-width="4.086432546986768"/>
  <path d="M 19.055585788023475, 82.71290196721793 Q 18.951040452172712, 79.53825957672257, 18.674136967867526, 76.77134437633427 " fill="none" id="curve_8" stroke="#000000" stroke-linecap="round" stroke-linejoin="round" stroke-width="3.788900263420822"/>
  <path d="M 41.2647110514418, 106.59525847651169 Q 50.82112286807056, 102.17970420165081, 57.97697276722858, 89.93635198810854 " fill="none" id="curve_12" stroke="#000000" stroke-linecap="round" stroke-linejoin="round" stroke-width="2.761520010651349"/>
  <path d="M 57.97697276722858, 89.93635198810854 Q 63.17544860655493, 81.98416953101204, 70.23834184554464, 69.42182576729473 " fill="none" id="curve_12" stroke="#000000" stroke-linecap="round" stroke-linejoin="round" stroke-width="2.9884520764839313"/>
  <path d="M 17.99156273062419, 82.24003157103063 Q 18.816969495735812, 99.18662559406832, 25.339322275904998, 104.07388883672205 " fill="none" id="curve_15" stroke="#000000" stroke-linecap="round" stroke-linejoin="round" stroke-width="3.1720341947352653"/>
  <path d="M 19.13539402952859, 83.15152080273938 Q 18.335436718906326, 83.6240088668867, 17.24739429975171, 84.87079853779248 " fill="none" id="curve_17" stroke="#000000" stroke-linecap="round" stroke-linejoin="round" stroke-width="3.529124719130789"/>
  <path d="M 17.76380985439402, 90.89933484297651 Q 19.354333428224763, 84.25450214992019, 21.917963267363618, 64.12746033033298 " fill="none" id="curve_18" stroke="#000000" stroke-linecap="round" stroke-linejoin="round" stroke-width="2.169538027631204"/>
  <path d="M 17.54772528274829, 93.48993341890038 Q 18.396409993840603, 89.14619926651349, 19.434497073398543, 78.06155867155063 " fill="none" id="curve_20" stroke="#000000" stroke-linecap="round" stroke-linejoin="round" stroke-width="2.5389572894944203"/>
  <path d="M 17.724207540768134, 96.9036955146057 Q 18.25824494105913, 86.10882318072554, 20.246880483410834, 78.04537830927886 " fill="none" id="curve_21" stroke="#000000" stroke-linecap="round" stroke-linejoin="round" stroke-width="2.7980416648896256"/>
  <path d="M 20.246880483410834, 78.04537830927886 Q 18.46303415306496, 83.04150377436417, 16.990648948377313, 94.645823495506 " fill="none" id="curve_21" stroke="#000000" stroke-linecap="round" stroke-linejoin="round" stroke-width="3.508861437770239"/>
  <path d="M 16.990648948377313, 94.645823495506 Q 18.19114840855565, 90.22589878026224, 19.357294775921577, 79.81079066437583 " fill="none" id="curve_21" stroke="#000000" stroke-linecap="round" stroke-linejoin="round" stroke-width="3.55235905303014"/>
  <path d="M 17.798501529975795, 96.3505359038834 Q 18.511519687970736, 88.97074535193458, 19.949173031410844, 77.48334303649466 " fill="none" id="curve_22" stroke="#000000" stroke-linecap="round" stroke-linejoin="round" stroke-width="2.6539998891149716"/>
  <path d="M 29.7244427838501, 54.80888800628245 Q 27.07429012931394, 58.10237558620567, 23.826780567056588, 61.97686655428143 " fill="none" id="curve_38" stroke="#000000" stroke-linecap="round" stroke-linejoin="round" stroke-width="3.615129740431071"/>
  <path d="M 18.453730383692488, 92.72934673396477 Q 19.821633782021962, 84.62727867059078, 21.894439001915348, 73.4712173170192 " fill="none" id="curve_39" stroke="#000000" stroke-linecap="round" stroke-linejoin="round" stroke-width="2.9809117421172457"/>
  <path d="M 58.3704832658404, 89.15734500919574 Q 62.58072416170918, 83.63736285112374, 66.71656909487874, 73.36237431806848 " fill="none" id="curve_56" stroke="#000000" stroke-linecap="round" stroke-linejoin="round" stroke-width="3.0302729294851694"/>
  <path d="M 61.30878410413295, 84.17549271781569 Q 64.31766566043927, 79.86807354833624, 67.45520082973863, 71.01335945858074 " fill="none" id="curve_98" stroke="#000000" stroke-linecap="round" stroke-linejoin="round" stroke-width="2.5861829367869533"/>
  <path d="M 16.265497730247372, 91.04960965559523 Q 17.050337199484453, 90.4917932727222, 17.795406128151637, 88.92096535732242 " fill="none" id="curve_128" stroke="#000000" stroke-linecap="round" stroke-linejoin="round" stroke-width="3.2428917659833476"/>
  <path d="M 38.98557122760184, 110.12248057817311 Q 39.60800927709265, 109.57619035528657, 40.18891974931449, 108.25513137292668 " fill="none" id="curve_143" stroke="#000000" stroke-linecap="round" stroke-linejoin="round" stroke-width="3.4032094624762097"/>
  <path d="M 63.96724950460407, 73.9215180713671 Q 63.61249891759198, 77.22538645382097, 62.69034705654231, 80.41585450597779 " fill="none" id="curve_158" stroke="#000000" stroke-linecap="round" stroke-linejoin="round" stroke-width="2.578538212309395"/>
</svg>
