<?xml version="1.0" ?>
<svg height="140" width="140" xmlns="http://www.w3.org/2000/svg">
  <path d="M 57.1915397644043, 61.271827697753906 Q 53.67887603892796, 71.64959954949546, 38.65452408229294, 91.83935073295675 " fill="none" id="curve_1" stroke="#000000" stroke-linecap="round" stroke-linejoin="round" stroke-width="6.290703292823211"/>
  <path d="M 38.65452408229294, 91.83935073295675 Q 32.83740450050373, 98.10916918017173, 23.736666364035315, 103.31563158460645 " fill="none" id="curve_1" stroke="#000000" stroke-linecap="round" stroke-linejoin="round" stroke-width="6.786486470106009"/>
  <path d="M 23.736666364035315, 103.31563158460645 Q 13.710749956047579, 102.1877580851733, 11.582912778139734, 91.53973531247165 " fill="none" id="curve_1" stroke="#000000" stroke-linecap="round" stroke-linejoin="round" stroke-width="6.014382039945169"/>
  <path d="M 11.582912778139734, 91.53973531247165 Q 12.02845109098553, 70.15477353872967, 17.84781532420088, 57.3874808456307 " fill="none" id="curve_1" stroke="#000000" stroke-linecap="round" stroke-linejoin="round" stroke-width="6.036443931355904"/>
  <path d="M 17.84781532420088, 57.3874808456307 Q 22.82816005786925, 45.278382053168016, 37.4818138918185, 34.50415365225079 " fill="none" id="curve_1" stroke="#000000" stroke-linecap="round" stroke-linejoin="round" stroke-width="9.0223979129556"/>
  <path d="M 37.4818138918185, 34.50415365225079 Q 57.76532800313081, 34.52398806826333, 60.52475039278556, 34.801414802087 " fill="none" id="curve_1" stroke="#000000" stroke-linecap="round" stroke-linejoin="round" stroke-width="5.973854535018193"/>
  <path d="M 60.52475039278556, 34.801414802087 Q 59.73460131125021, 60.74145089284378, 52.19824397109734, 67.71687174005476 " fill="none" id="curve_1" stroke="#000000" stroke-linecap="round" stroke-linejoin="round" stroke-width="5.5067390981555775"/>
  <path d="M 90.98139221714518, 62.83267510165217 Q 89.18568660543455, 63.560703930850245, 89.01241586594705, 106.16589551620885 " fill="none" id="curve_2" stroke="#000000" stroke-linecap="round" stroke-linejoin="round" stroke-width="3.3490744153475736"/>
  <path d="M 89.01241586594705, 106.16589551620885 Q 88.9725199044992, 127.6847224295043, 88.7880742173791, 138.24446147755964 " fill="none" id="curve_2" stroke="#000000" stroke-linecap="round" stroke-linejoin="round" stroke-width="3.2658730472754804"/>
  <path d="M 88.7880742173791, 138.24446147755964 Q 88.2941723183493, 138.35384917395092, 87.47964981511244, 138.4619583005447 " fill="none" id="curve_2" stroke="#000000" stroke-linecap="round" stroke-linejoin="round" stroke-width="2.8642813942398844"/>
  <path d="M 49.512627478775386, 72.06504018156883 Q 46.672593050348446, 77.72666011984998, 37.498878483136195, 88.35170313281442 " fill="none" id="curve_4" stroke="#000000" stroke-linecap="round" stroke-linejoin="round" stroke-width="2.7500375124844867"/>
  <path d="M 25.730787831959447, 99.36937331296824 Q 18.86508895723454, 99.21664569051813, 16.863532561118358, 98.12240267835037 " fill="none" id="curve_5" stroke="#000000" stroke-linecap="round" stroke-linejoin="round" stroke-width="2.8179382124525136"/>
  <path d="M 16.863532561118358, 98.12240267835037 Q 15.677829602158287, 92.33256779234536, 11.722770766856323, 89.01684289431377 " fill="none" id="curve_5" stroke="#000000" stroke-linecap="round" stroke-linejoin="round" stroke-width="2.6938943941459215"/>
  <path d="M 15.802399681083287, 103.30792608499802 Q 16.74161457086798, 103.91436855340433, 20.985476416982706, 104.12331440593387 " fill="none" id="curve_6" stroke="#000000" stroke-linecap="round" stroke-linejoin="round" stroke-width="2.8605300435309227"/>
  <path d="M 47.41200367154087, 81.68901390220658 Q 50.66555949959422, 79.5808432815999, 51.90360351451641, 69.51458051938253 " fill="none" id="curve_7" stroke="#000000" stroke-linecap="round" stroke-linejoin="round" stroke-width="3.820012447283041"/>
  <path d="M 89.46803199641056, 27.732039917321433 Q 89.00945477092239, 34.37774194520822, 88.60727721578766, 60.611771578588346 " fill="none" id="curve_12" stroke="#000000" stroke-linecap="round" stroke-linejoin="round" stroke-width="3.0632845134338376"/>
  <path d="M 89.2103432329388, 25.77787661046626 Q 89.18452403392668, 13.962681517548877, 89.09816128985953, 1.9250668488973908 " fill="none" id="curve_14" stroke="#000000" stroke-linecap="round" stroke-linejoin="round" stroke-width="2.3402331670751626"/>
  <path d="M 89.09816128985953, 1.9250668488973908 Q 88.62994285085036, 2.075309016545051, 88.17999876851205, 2.37626451210084 " fill="none" id="curve_14" stroke="#000000" stroke-linecap="round" stroke-linejoin="round" stroke-width="3.1574694520061652"/>
  <path d="M 57.071991496085246, 34.86520520133167 Q 58.13572484052387, 38.8414544744872, 58.744476848744995, 49.662898878803816 " fill="none" id="curve_15" stroke="#000000" stroke-linecap="round" stroke-linejoin="round" stroke-width="4.230342237953465"/>
  <path d="M 58.17333180426297, 32.55902949091502 Q 41.40598440463582, 33.04337468333104, 35.15962638042711, 37.9790627837975 " fill="none" id="curve_16" stroke="#000000" stroke-linecap="round" stroke-linejoin="round" stroke-width="3.3101659722927974"/>
  <path d="M 19.731154786381293, 51.390206327248364 Q 29.03747427852027, 46.59576161509453, 37.41051632667751, 36.60665251959679 " fill="none" id="curve_17" stroke="#000000" stroke-linecap="round" stroke-linejoin="round" stroke-width="3.292780675315572"/>
  <path d="M 21.194530860716732, 49.34264711490446 Q 24.187269907010624, 48.99843061418172, 26.660603527104193, 47.919671949875635 " fill="none" id="curve_18" stroke="#000000" stroke-linecap="round" stroke-linejoin="round" stroke-width="3.7070976423962283"/>
  <path d="M 86.9955311486519, 66.23096310897338 Q 88.51122051970844, 65.18054440758038, 89.54298033997628, 61.22340793469952 " fill="none" id="curve_21" stroke="#000000" stroke-linecap="round" stroke-linejoin="round" stroke-width="2.719195675679715"/>
  <path d="M 38.067093346482075, 37.12228582840257 Q 38.088491029132335, 38.577239714439536, 38.21408785107062, 39.233670004339196 " fill="none" id="curve_23" stroke="#000000" stroke-linecap="round" stroke-linejoin="round" stroke-width="5.456715703223749"/>
  <path d="M 25.967692841051743, 49.6775147550198 Q 26.298409082719633, 49.53053872325967, 26.643558621518412, 49.12796660968311 " fill="none" id="curve_25" stroke="#000000" stroke-linecap="round" stroke-linejoin="round" stroke-width="3.6446223150451664"/>
  <path d="M 61.634523841101604, 42.35099352791778 Q 61.6611276800796, 43.563666330067015, 61.71813496811817, 44.8946220197474 " fill="none" id="curve_28" stroke="#000000" stroke-linecap="round" stroke-linejoin="round" stroke-width="3.8824706611571327"/>
  <path d="M 56.68281696073232, 31.51658910979024 Q 49.68006192688759, 31.843487537343194, 38.67604200142068, 32.43193455062391 " fill="none" id="curve_29" stroke="#000000" stroke-linecap="round" stroke-linejoin="round" stroke-width="2.401873573378356"/>
  <path d="M 38.67604200142068, 32.43193455062391 Q 28.064514160681952, 38.01408820493162, 17.38304791465923, 54.43788938605384 " fill="none" id="curve_29" stroke="#000000" stroke-linecap="round" stroke-linejoin="round" stroke-width="3.3065890710438786"/>
  <path d="M 54.693010330200195, 52.8913459777832 Q 54.660556937682, 59.243063208318475, 54.45146380259203, 61.804889542553155 " fill="none" id="curve_43" stroke="#000000" stroke-linecap="round" stroke-linejoin="round" stroke-width="3.277632759388253"/>
  <path d="M 19.903437651296777, 47.49309788649245 Q 18.344273201741437, 52.39848104753487, 15.219288104888465, 59.28190957309918 " fill="none" id="curve_46" stroke="#000000" stroke-linecap="round" stroke-linejoin="round" stroke-width="2.7751783623709403"/>
  <path d="M 49.329747680990295, 70.80330554800321 Q 50.211797828867326, 69.74505403485423, 52.57492459607302, 68.72479113603785 " fill="none" id="curve_61" stroke="#000000" stroke-linecap="round" stroke-linejoin="round" stroke-width="2.342644285694637"/>
  <path d="M 45.74537949999167, 31.25141982104212 Q 31.614347335402957, 32.788300471972185, 24.049817774158438, 44.17763237354674 " fill="none" id="curve_63" stroke="#000000" stroke-linecap="round" stroke-linejoin="round" stroke-width="3.382722860130911"/>
  <path d="M 87.77544374920762, 77.4936750270499 Q 88.30867819724799, 79.48454229464197, 88.52938076717042, 86.58672580607956 " fill="none" id="curve_78" stroke="#000000" stroke-linecap="round" stroke-linejoin="round" stroke-width="2.020293386915484"/>
  <path d="M 88.29572981209313, 72.58026395027507 Q 88.49527465564891, 71.62027928349869, 88.73251976383426, 70.03067973148406 " fill="none" id="curve_79" stroke="#000000" stroke-linecap="round" stroke-linejoin="round" stroke-width="2.722054485870931"/>
  <path d="M 62.191686746255755, 39.2095474295475 Q 61.11949430260407, 39.33953199941212, 56.07750550886812, 39.42705333130504 " fill="none" id="curve_80" stroke="#000000" stroke-linecap="round" stroke-linejoin="round" stroke-width="4.419898809183706"/>
  <path d="M 56.334881170182804, 51.475194274100325 Q 57.1022900776057, 49.55465307777861, 60.5758005894604, 48.80681535915243 " fill="none" id="curve_81" stroke="#000000" stroke-linecap="round" stroke-linejoin="round" stroke-width="3.3291860362595824"/>
  <path d="M 37.444816551715405, 29.720715509542398 Q 33.012357561007924, 33.92532500097105, 26.79043897265572, 41.26191895113435 " fill="none" id="curve_82" stroke="#000000" stroke-linecap="round" stroke-linejoin="round" stroke-width="2.760175806787501"/>
  <path d="M 26.911913877045702, 49.85188590426549 Q 26.55678808049186, 49.16472854754049, 25.82273415612259, 48.40421026405806 " fill="none" id="curve_83" stroke="#000000" stroke-linecap="round" stroke-linejoin="round" stroke-width="3.085962224467083"/>
  <path d="M 35.837313526482944, 90.76137721959242 Q 33.33770667663114, 93.88901043552968, 29.445689240298744, 97.97325114039704 " fill="none" id="curve_98" stroke="#000000" stroke-linecap="round" stroke-linejoin="round" stroke-width="2.5521047846169616"/>
  <path d="M 51.753066348892844, 73.49501267451637 Q 53.69659406913229, 71.67842106492297, 55.38912330817502, 68.57451559039268 " fill="none" id="curve_113" stroke="#000000" stroke-linecap="round" stroke-linejoin="round" stroke-width="2.1061432684499133"/>
  <path d="M 62.04476868238528, 38.61303514354126 Q 61.69523400076658, 38.40742855504392, 61.25365333528549, 38.047313400858506 " fill="none" id="curve_115" stroke="#000000" stroke-linecap="round" stroke-linejoin="round" stroke-width="2.769155120184292"/>
  <path d="M 10.340994303598276, 78.67179186112392 Q 10.429406033518072, 74.08900742024947, 11.565378338179515, 73.19337619737348 " fill="none" id="curve_118" stroke="#000000" stroke-linecap="round" stroke-linejoin="round" stroke-width="2.4445002199818218"/>
  <path d="M 9.000401846068478, 89.46007658695714 Q 10.31815568993038, 87.22156262886912, 11.879010263862327, 83.50987892020743 " fill="none" id="curve_138" stroke="#000000" stroke-linecap="round" stroke-linejoin="round" stroke-width="2.3635498976489426"/>
  <path d="M 12.239494475954153, 67.19840296673891 Q 12.995487276058409, 65.66802095945982, 14.388365330240571, 63.726999117310264 " fill="none" id="curve_143" stroke="#000000" stroke-linecap="round" stroke-linejoin="round" stroke-width="2.694921816727951"/>
  <path d="M 24.91533224099601, 99.35973017633764 Q 27.195842835888442, 100.43282367066915, 28.565791693481632, 103.39181014967616 " fill="none" id="curve_184" stroke="#000000" stroke-linecap="round" stroke-linejoin="round" stroke-width="4.2186085772142246"/>
  <path d="M 25.48311860728457, 98.84733627121182 Q 25.926223245765936, 98.58925188709094, 27.043350904579118, 98.39662839891545 " fill="none" id="curve_185" stroke="#000000" stroke-linecap="round" stroke-linejoin="round" stroke-width="3.3263774958115855"/>
</svg>
