<?xml version="1.0" ?>
<svg height="140" width="140" xmlns="http://www.w3.org/2000/svg">
  <path d="M 40.990875244140625, 58.91501522064209 Q 37.98454362262661, 59.33682474148877, 33.80677104605968, 60.61066676864135 " fill="none" id="curve_1" stroke="#000000" stroke-linecap="round" stroke-linejoin="round" stroke-width="7.263684713871044"/>
  <path d="M 33.80677104605968, 60.61066676864135 Q 27.96839552172353, 63.08605001042824, 18.472687548849766, 80.77616491356846 " fill="none" id="curve_1" stroke="#000000" stroke-linecap="round" stroke-linejoin="round" stroke-width="4.234115665076392"/>
  <path d="M 18.472687548849766, 80.77616491356846 Q 14.677521420030606, 87.18159996318518, 11.36076049922649, 99.95413176896376 " fill="none" id="curve_1" stroke="#000000" stroke-linecap="round" stroke-linejoin="round" stroke-width="5.894533767945239"/>
  <path d="M 11.36076049922649, 99.95413176896376 Q 12.747110043301632, 112.69863063894338, 22.83796925296538, 115.17868766698996 " fill="none" id="curve_1" stroke="#000000" stroke-linecap="round" stroke-linejoin="round" stroke-width="4.331802150153759"/>
  <path d="M 22.83796925296538, 115.17868766698996 Q 41.881759160956555, 113.84624279650772, 46.15184892767239, 99.3813795680918 " fill="none" id="curve_1" stroke="#000000" stroke-linecap="round" stroke-linejoin="round" stroke-width="3.950564203762483"/>
  <path d="M 46.15184892767239, 99.3813795680918 Q 48.22140163841819, 98.25241947690706, 48.512852417061325, 83.3728099347869 " fill="none" id="curve_1" stroke="#000000" stroke-linecap="round" stroke-linejoin="round" stroke-width="4.806467714763509"/>
  <path d="M 41.81517053156966, 69.31995908040875 Q 42.6956078807741, 65.35264144070453, 43.556233255998684, 58.96594363336963 " fill="none" id="curve_2" stroke="#000000" stroke-linecap="round" stroke-linejoin="round" stroke-width="4.656644263062486"/>
  <path d="M 43.556233255998684, 58.96594363336963 Q 42.818277889072725, 57.68999702606629, 38.05192982431027, 57.39991268682788 " fill="none" id="curve_2" stroke="#000000" stroke-linecap="round" stroke-linejoin="round" stroke-width="3.2332607085016756"/>
  <path d="M 20.845432427701493, 75.43973268684954 Q 17.12828501981247, 81.42007469419477, 12.967568942680877, 89.04446919033074 " fill="none" id="curve_3" stroke="#000000" stroke-linecap="round" stroke-linejoin="round" stroke-width="2.8534954076566534"/>
  <path d="M 41.14533680155904, 108.3182974119043 Q 34.693155658239476, 110.20903327770279, 30.074562076616377, 114.08351690156458 " fill="none" id="curve_4" stroke="#000000" stroke-linecap="round" stroke-linejoin="round" stroke-width="3.128592396292819"/>
  <path d="M 30.074562076616377, 114.08351690156458 Q 21.046800627504055, 113.77224343207627, 16.883842998677807, 111.93202215029827 " fill="none" id="curve_4" stroke="#000000" stroke-linecap="round" stroke-linejoin="round" stroke-width="2.092297640730819"/>
  <path d="M 48.5824618391091, 81.56660221113553 Q 48.28538762373093, 82.22238399579898, 47.655231224639614, 83.11939933877423 " fill="none" id="curve_7" stroke="#000000" stroke-linecap="round" stroke-linejoin="round" stroke-width="2.7351757623761324"/>
  <path d="M 39.31254826496819, 108.41372272051684 Q 39.40060910009027, 107.62920167030832, 39.56752753099043, 106.55220074863706 " fill="none" id="curve_17" stroke="#000000" stroke-linecap="round" stroke-linejoin="round" stroke-width="3.9241693485765703"/>
  <path d="M 46.258513341285465, 98.67775394410005 Q 46.71585645877821, 94.29606619493049, 48.52789241871517, 92.27712731086902 " fill="none" id="curve_19" stroke="#000000" stroke-linecap="round" stroke-linejoin="round" stroke-width="3.2578816241293103"/>
  <path d="M 90.04080963134766, 1.7246055603027344 Q 89.82124671369596, 2.4004029850818784, 89.30487089679497, 3.434807131622307 " fill="none" id="curve_33" stroke="#000000" stroke-linecap="round" stroke-linejoin="round" stroke-width="2.102975014752048"/>
  <path d="M 42.11996230301202, 64.57237771621749 Q 41.49871717983531, 61.22886738540745, 38.652067304296416, 59.60580865907562 " fill="none" id="curve_61" stroke="#000000" stroke-linecap="round" stroke-linejoin="round" stroke-width="3.032021667260124"/>
  <path d="M 22.043789250466318, 75.27725709664402 Q 20.06956209787516, 76.03041052343438, 17.892723117771226, 77.92288442513785 " fill="none" id="curve_79" stroke="#000000" stroke-linecap="round" stroke-linejoin="round" stroke-width="2.7000615682666824"/>
</svg>
