<?xml version="1.0" ?>
<svg height="140" width="140" xmlns="http://www.w3.org/2000/svg">
  <path d="M 43.51980018615723, 107.44421482086182 Q 43.30163470510648, 108.67963614741181, 42.77829852469449, 110.49190447136971 " fill="none" id="curve_1" stroke="#000000" stroke-linecap="round" stroke-linejoin="round" stroke-width="10.033732310689794"/>
  <path d="M 42.77829852469449, 110.49190447136971 Q 41.5703260311647, 114.72717238381081, 33.18591422471545, 115.85696015298893 " fill="none" id="curve_1" stroke="#000000" stroke-linecap="round" stroke-linejoin="round" stroke-width="9.514252705421166"/>
  <path d="M 33.18591422471545, 115.85696015298893 Q 24.82893942921637, 114.77511741152514, 22.397652698288343, 104.58926040284821 " fill="none" id="curve_1" stroke="#000000" stroke-linecap="round" stroke-linejoin="round" stroke-width="7.823322372932498"/>
  <path d="M 22.397652698288343, 104.58926040284821 Q 19.74057359484788, 103.63641837503774, 19.246674608873036, 81.48262968952967 " fill="none" id="curve_1" stroke="#000000" stroke-linecap="round" stroke-linejoin="round" stroke-width="6.661386298906942"/>
  <path d="M 19.246674608873036, 81.48262968952967 Q 20.74150820366355, 63.98146726282053, 32.05176439886954, 52.362305480680774 " fill="none" id="curve_1" stroke="#000000" stroke-linecap="round" stroke-linejoin="round" stroke-width="7.557879140229093"/>
  <path d="M 32.05176439886954, 52.362305480680774 Q 36.29316863983048, 46.54562043391576, 47.007837664510284, 43.1552838860451 " fill="none" id="curve_1" stroke="#000000" stroke-linecap="round" stroke-linejoin="round" stroke-width="11.238584117582754"/>
  <path d="M 47.007837664510284, 43.1552838860451 Q 45.30931840499375, 53.29195391370825, 39.652923769529856, 56.63404300042626 " fill="none" id="curve_1" stroke="#000000" stroke-linecap="round" stroke-linejoin="round" stroke-width="5.111969928255223"/>
  <path d="M 54.11618125282572, 47.56445543744561 Q 62.23944890625639, 50.006744017614324, 63.89384054517089, 63.43326095072459 " fill="none" id="curve_2" stroke="#000000" stroke-linecap="round" stroke-linejoin="round" stroke-width="6.966900190558269"/>
  <path d="M 63.89384054517089, 63.43326095072459 Q 63.239473417528394, 89.49410826149403, 51.56799175574981, 100.78635201472443 " fill="none" id="curve_2" stroke="#000000" stroke-linecap="round" stroke-linejoin="round" stroke-width="6.353846057561362"/>
  <path d="M 51.56799175574981, 100.78635201472443 Q 50.0273764369345, 105.81529435424422, 46.06878869853117, 107.96445619530495 " fill="none" id="curve_2" stroke="#000000" stroke-linecap="round" stroke-linejoin="round" stroke-width="8.232576750948619"/>
  <path d="M 46.06878869853117, 107.96445619530495 Q 54.55702732881362, 100.55483142084414, 62.39738607820857, 73.74107906120622 " fill="none" id="curve_2" stroke="#000000" stroke-linecap="round" stroke-linejoin="round" stroke-width="3.124496979638244"/>
  <path d="M 52.517277418704104, 42.04468217748821 Q 51.47097037126777, 41.08145128568458, 46.89497157084861, 40.56847994654477 " fill="none" id="curve_3" stroke="#000000" stroke-linecap="round" stroke-linejoin="round" stroke-width="3.578021173182492"/>
  <path d="M 30.84011221995968, 110.30364808855703 Q 31.01728058218237, 112.31657101396088, 39.10181447604077, 112.46225358681268 " fill="none" id="curve_13" stroke="#000000" stroke-linecap="round" stroke-linejoin="round" stroke-width="4.2078789976739985"/>
  <path d="M 52.08096399383281, 50.2260394416337 Q 45.75720139320545, 49.46133555336008, 37.348086912291826, 46.94083243206843 " fill="none" id="curve_16" stroke="#000000" stroke-linecap="round" stroke-linejoin="round" stroke-width="1.9358610967387464"/>
  <path d="M 37.348086912291826, 46.94083243206843 Q 27.76842282032588, 49.403624933624506, 20.808540967600834, 65.66945299733679 " fill="none" id="curve_16" stroke="#000000" stroke-linecap="round" stroke-linejoin="round" stroke-width="3.2400191823665843"/>
  <path d="M 37.30454190120383, 46.99106508645069 Q 37.98768765622121, 42.42805979713115, 42.26166237532558, 39.63318437798523 " fill="none" id="curve_17" stroke="#000000" stroke-linecap="round" stroke-linejoin="round" stroke-width="2.8515202904994386"/>
  <path d="M 39.4163646572031, 57.79580809364664 Q 39.493370820089886, 50.04373679485499, 41.65241708679674, 49.363064246262645 " fill="none" id="curve_18" stroke="#000000" stroke-linecap="round" stroke-linejoin="round" stroke-width="3.3415395815423925"/>
  <path d="M 61.994670141563795, 72.76231646523867 Q 61.5536301633932, 72.44143190815066, 61.18380513005976, 71.71829760939994 " fill="none" id="curve_20" stroke="#000000" stroke-linecap="round" stroke-linejoin="round" stroke-width="3.8483064502002784"/>
  <path d="M 53.04611712169708, 47.469905812413 Q 55.26277088989059, 52.07604994885284, 60.50756079682657, 57.02371693896755 " fill="none" id="curve_35" stroke="#000000" stroke-linecap="round" stroke-linejoin="round" stroke-width="2.3677019697320283"/>
  <path d="M 44.72671890258789, 43.493786334991455 Q 44.81127745385348, 40.65134071273591, 47.3490467565927, 40.111728271273506 " fill="none" id="curve_75" stroke="#000000" stroke-linecap="round" stroke-linejoin="round" stroke-width="2.256820492200716"/>
  <path d="M 48.844257831573486, 40.15246772766113 Q 46.99914860126356, 40.31079021934408, 44.266932582717374, 40.72822155706294 " fill="none" id="curve_102" stroke="#000000" stroke-linecap="round" stroke-linejoin="round" stroke-width="2.7123289937547037"/>
  <path d="M 50.83869460213924, 38.65877797555777 Q 42.45659043363408, 40.419403008798206, 33.409791553221865, 45.959921159422336 " fill="none" id="curve_130" stroke="#000000" stroke-linecap="round" stroke-linejoin="round" stroke-width="2.353094183237643"/>
  <path d="M 60.58016849170326, 75.0231443351081 Q 60.82747424920988, 69.94713790607899, 62.337307348728075, 68.05745449110665 " fill="none" id="curve_145" stroke="#000000" stroke-linecap="round" stroke-linejoin="round" stroke-width="2.9439019797049117"/>
</svg>
