<?xml version="1.0" ?>
<svg height="140" width="140" xmlns="http://www.w3.org/2000/svg">
  <path d="M 43.541790853132625, 56.55662978451437 Q 30.709327267683225, 57.262303495375505, 23.96421166569136, 63.940505177138085 " fill="none" id="curve_2" stroke="#000000" stroke-linecap="round" stroke-linejoin="round" stroke-width="3.6803293572631186"/>
  <path d="M 23.96421166569136, 63.940505177138085 Q 20.01219130766438, 70.47220172457165, 14.700958912373627, 86.71387831357583 " fill="none" id="curve_2" stroke="#000000" stroke-linecap="round" stroke-linejoin="round" stroke-width="4.689164160459086"/>
  <path d="M 14.700958912373627, 86.71387831357583 Q 14.914208462868702, 102.94620670919555, 30.79124196899606, 103.58750592982221 " fill="none" id="curve_2" stroke="#000000" stroke-linecap="round" stroke-linejoin="round" stroke-width="4.452268504439825"/>
  <path d="M 30.79124196899606, 103.58750592982221 Q 51.8792680729541, 102.69379764784927, 59.88109128812292, 91.13838555105905 " fill="none" id="curve_2" stroke="#000000" stroke-linecap="round" stroke-linejoin="round" stroke-width="4.013626733704769"/>
  <path d="M 59.88109128812292, 91.13838555105905 Q 63.053237476646025, 87.3232790090996, 65.43537458887825, 78.26993674500903 " fill="none" id="curve_2" stroke="#000000" stroke-linecap="round" stroke-linejoin="round" stroke-width="2.5084907617449894"/>
  <path d="M 65.43537458887825, 78.26993674500903 Q 65.23319481374797, 58.77879411983078, 45.468623505316486, 57.28487374790904 " fill="none" id="curve_2" stroke="#000000" stroke-linecap="round" stroke-linejoin="round" stroke-width="3.158376641297"/>
  <path d="M 30.999988174426846, 67.66764565447919 Q 22.95084992567623, 70.17615461042637, 17.88930660225037, 78.78870110335573 " fill="none" id="curve_3" stroke="#000000" stroke-linecap="round" stroke-linejoin="round" stroke-width="3.938701747385885"/>
  <path d="M 37.780095427640276, 100.82656872113051 Q 36.967568637259824, 102.15355598750855, 31.33513106705745, 102.47517843473764 " fill="none" id="curve_4" stroke="#000000" stroke-linecap="round" stroke-linejoin="round" stroke-width="2.883179673573276"/>
  <path d="M 31.33513106705745, 102.47517843473764 Q 26.631962573121083, 101.60378439970196, 20.389593519239938, 100.44691144098978 " fill="none" id="curve_4" stroke="#000000" stroke-linecap="round" stroke-linejoin="round" stroke-width="2.9692010916672755"/>
  <path d="M 47.06728345928986, 57.86568661409787 Q 58.8908884837034, 61.166126488057394, 65.78897628922121, 68.40323695625149 " fill="none" id="curve_6" stroke="#000000" stroke-linecap="round" stroke-linejoin="round" stroke-width="2.4054391738121668"/>
  <path d="M 36.92770824635178, 59.32376602415779 Q 36.15944988712456, 59.12841848481724, 35.04272210905089, 58.917235429363025 " fill="none" id="curve_8" stroke="#000000" stroke-linecap="round" stroke-linejoin="round" stroke-width="3.792558752922021"/>
  <path d="M 88.97878856861612, 4.108722770752323 Q 89.35439751910523, 3.7961227269049633, 89.76228857040516, 2.8939481872184505 " fill="none" id="curve_23" stroke="#000000" stroke-linecap="round" stroke-linejoin="round" stroke-width="2.0098747879866705"/>
  <path d="M 90.55646680389958, 100.5023609895364 Q 89.96342271984767, 103.01630730065526, 89.76517160687793, 120.10659077963324 " fill="none" id="curve_28" stroke="#000000" stroke-linecap="round" stroke-linejoin="round" stroke-width="1.7280238361133577"/>
  <path d="M 89.12747827818977, 135.8298595877066 Q 89.1787110408748, 131.41742356212052, 89.26888386571588, 126.03573355979199 " fill="none" id="curve_29" stroke="#000000" stroke-linecap="round" stroke-linejoin="round" stroke-width="1.7137463871692014"/>
  <path d="M 89.05038198054194, 138.22626588589995 Q 89.22231119030435, 138.05369399912252, 89.47789463293577, 137.7088810305917 " fill="none" id="curve_30" stroke="#000000" stroke-linecap="round" stroke-linejoin="round" stroke-width="1.7469000315309875"/>
  <path d="M 55.990644240120396, 96.66958704393691 Q 50.08850843927206, 98.15153797571715, 43.36958381179997, 101.18579850380317 " fill="none" id="curve_31" stroke="#000000" stroke-linecap="round" stroke-linejoin="round" stroke-width="3.031042686779873"/>
  <path d="M 17.56542523333917, 84.64196686296175 Q 16.16445438424851, 83.73033518014361, 15.351592498800336, 79.9535423760042 " fill="none" id="curve_32" stroke="#000000" stroke-linecap="round" stroke-linejoin="round" stroke-width="2.660921742389218"/>
  <path d="M 21.8652547212559, 67.98967544886443 Q 19.593380554186837, 70.02268146387172, 17.986842184871325, 76.08728138616165 " fill="none" id="curve_33" stroke="#000000" stroke-linecap="round" stroke-linejoin="round" stroke-width="2.9026352379695783"/>
  <path d="M 61.47986066623897, 62.14905545838228 Q 61.84045378846108, 63.986001911407826, 62.57408729570909, 65.78022889591409 " fill="none" id="curve_37" stroke="#000000" stroke-linecap="round" stroke-linejoin="round" stroke-width="2.8414843461285213"/>
  <path d="M 27.8047918734716, 68.14128362156252 Q 25.959185144241005, 68.70056940199413, 23.108844816625076, 69.8253240126572 " fill="none" id="curve_132" stroke="#000000" stroke-linecap="round" stroke-linejoin="round" stroke-width="2.7772583919556553"/>
</svg>
