<?xml version="1.0" ?>
<svg height="140" width="140" xmlns="http://www.w3.org/2000/svg">
  <path d="M 88.73666191101074, 92.54526138305664 Q 88.98489696974107, 90.03747275089702, 89.24226829689421, 83.0480861170347 " fill="none" id="curve_1" stroke="#000000" stroke-linecap="round" stroke-linejoin="round" stroke-width="2.321632821412621"/>
  <path d="M 87.65986498669875, 92.8977066333266 Q 83.90081948550116, 99.7056909091114, 72.32823325653172, 107.25134445389554 " fill="none" id="curve_2" stroke="#000000" stroke-linecap="round" stroke-linejoin="round" stroke-width="3.65405184338589"/>
  <path d="M 62.22610490522587, 110.60057964948467 Q 59.49625608102835, 111.89358025722572, 47.67737389473186, 112.3041159488927 " fill="none" id="curve_3" stroke="#000000" stroke-linecap="round" stroke-linejoin="round" stroke-width="3.953832692188541"/>
  <path d="M 47.67737389473186, 112.3041159488927 Q 33.63241112129375, 110.94026996681927, 27.44528987430239, 100.2925053493182 " fill="none" id="curve_3" stroke="#000000" stroke-linecap="round" stroke-linejoin="round" stroke-width="3.9714068249756695"/>
  <path d="M 27.44528987430239, 100.2925053493182 Q 27.533262605554526, 94.03336251826693, 28.73211423317248, 92.88945376063813 " fill="none" id="curve_3" stroke="#000000" stroke-linecap="round" stroke-linejoin="round" stroke-width="3.114310844442341"/>
  <path d="M 19.568674103668943, 88.10997976778319 Q 19.831188538702364, 74.27168214664502, 23.296025618264096, 68.77228531066599 " fill="none" id="curve_4" stroke="#000000" stroke-linecap="round" stroke-linejoin="round" stroke-width="4.088617587856471"/>
  <path d="M 23.296025618264096, 68.77228531066599 Q 27.306566421655987, 61.07946744820192, 37.798870457634536, 46.87488479814485 " fill="none" id="curve_4" stroke="#000000" stroke-linecap="round" stroke-linejoin="round" stroke-width="4.463848752385668"/>
  <path d="M 37.798870457634536, 46.87488479814485 Q 42.04729679998591, 41.9648120887503, 51.179484808453616, 38.59980265529598 " fill="none" id="curve_4" stroke="#000000" stroke-linecap="round" stroke-linejoin="round" stroke-width="4.3528626862291455"/>
  <path d="M 51.179484808453616, 38.59980265529598 Q 72.1880821505233, 39.4879311930937, 82.18716925566434, 55.018595416167 " fill="none" id="curve_4" stroke="#000000" stroke-linecap="round" stroke-linejoin="round" stroke-width="4.009117734026316"/>
  <path d="M 82.18716925566434, 55.018595416167 Q 87.48296009731614, 57.941017023653814, 89.11599147580979, 67.364867371879 " fill="none" id="curve_4" stroke="#000000" stroke-linecap="round" stroke-linejoin="round" stroke-width="4.085610416905891"/>
  <path d="M 89.11599147580979, 67.364867371879 Q 89.43406516591422, 73.82233556894167, 89.76921675693393, 81.04136375618043 " fill="none" id="curve_4" stroke="#000000" stroke-linecap="round" stroke-linejoin="round" stroke-width="1.5905999714220798"/>
  <path d="M 89.60644631082818, 94.8052681692805 Q 89.6226558288542, 106.39066092540625, 89.71613482060481, 121.58905305891226 " fill="none" id="curve_5" stroke="#000000" stroke-linecap="round" stroke-linejoin="round" stroke-width="1.5197265666239075"/>
  <path d="M 89.71613482060481, 121.58905305891226 Q 89.6936146357249, 135.4729680263969, 89.56730302112936, 138.90778327451793 " fill="none" id="curve_5" stroke="#000000" stroke-linecap="round" stroke-linejoin="round" stroke-width="1.8357157394524437"/>
  <path d="M 82.18090233526304, 101.457140199231 Q 84.62506267208742, 97.71235949603303, 87.33998056883746, 90.44717130564484 " fill="none" id="curve_7" stroke="#000000" stroke-linecap="round" stroke-linejoin="round" stroke-width="2.457355297763382"/>
  <path d="M 87.33998056883746, 90.44717130564484 Q 85.11942748198653, 95.30823729788787, 82.58587177874213, 100.15413176720226 " fill="none" id="curve_7" stroke="#000000" stroke-linecap="round" stroke-linejoin="round" stroke-width="3.701454876377527"/>
  <path d="M 40.80974830276377, 99.12697721996247 Q 39.650850437919864, 102.60943959212143, 32.39763665078438, 103.28380357542223 " fill="none" id="curve_9" stroke="#000000" stroke-linecap="round" stroke-linejoin="round" stroke-width="4.599491560616804"/>
  <path d="M 32.39763665078438, 103.28380357542223 Q 24.65901904461299, 100.97291134628391, 19.779696509191638, 92.4297817345953 " fill="none" id="curve_9" stroke="#000000" stroke-linecap="round" stroke-linejoin="round" stroke-width="5.195943977601424"/>
  <path d="M 19.779696509191638, 92.4297817345953 Q 20.93741010022561, 92.11113501460926, 21.725086849823313, 91.60219765963025 " fill="none" id="curve_9" stroke="#000000" stroke-linecap="round" stroke-linejoin="round" stroke-width="3.5700224508433718"/>
  <path d="M 26.932485585494646, 60.32764010492341 Q 30.794596480768742, 54.38280486091625, 37.27025163202485, 46.902343334446535 " fill="none" id="curve_10" stroke="#000000" stroke-linecap="round" stroke-linejoin="round" stroke-width="2.4169394028036244"/>
  <path d="M 89.59637990856199, 52.095230800262904 Q 89.68510567297864, 48.526037576789705, 89.78466850344084, 39.68775017991584 " fill="none" id="curve_12" stroke="#000000" stroke-linecap="round" stroke-linejoin="round" stroke-width="1.8399640910328559"/>
  <path d="M 89.78466850344084, 39.68775017991584 Q 89.70311572537759, 36.84052197253897, 89.65246675815074, 22.749467068062653 " fill="none" id="curve_12" stroke="#000000" stroke-linecap="round" stroke-linejoin="round" stroke-width="1.6187331129915379"/>
  <path d="M 89.65246675815074, 22.749467068062653 Q 89.64238640719238, 15.018698724230784, 89.61312254715692, 2.193920613844906 " fill="none" id="curve_12" stroke="#000000" stroke-linecap="round" stroke-linejoin="round" stroke-width="1.5481098331462444"/>
  <path d="M 89.61312254715692, 2.193920613844906 Q 89.4095883255814, 1.7824346910441933, 89.08850755638535, 1.426303255252496 " fill="none" id="curve_12" stroke="#000000" stroke-linecap="round" stroke-linejoin="round" stroke-width="3.1080958966086887"/>
  <path d="M 89.5107298702566, 54.413461674822386 Q 89.40686609011945, 61.45115248747386, 88.68807412817362, 63.200330740327544 " fill="none" id="curve_15" stroke="#000000" stroke-linecap="round" stroke-linejoin="round" stroke-width="1.7181317082053293"/>
  <path d="M 88.68807412817362, 63.200330740327544 Q 83.76582730831969, 60.92312395418228, 80.77963650163173, 51.3817089082585 " fill="none" id="curve_15" stroke="#000000" stroke-linecap="round" stroke-linejoin="round" stroke-width="1.783989097131091"/>
  <path d="M 80.77963650163173, 51.3817089082585 Q 75.07119820130747, 50.87157333376354, 73.23291060214859, 47.51705416960465 " fill="none" id="curve_15" stroke="#000000" stroke-linecap="round" stroke-linejoin="round" stroke-width="2.564871991577677"/>
  <path d="M 73.23291060214859, 47.51705416960465 Q 70.35596615054313, 42.91998374154533, 62.19320704181202, 38.42895404775639 " fill="none" id="curve_15" stroke="#000000" stroke-linecap="round" stroke-linejoin="round" stroke-width="2.8439998939282707"/>
  <path d="M 72.46953073016039, 46.47637200433314 Q 81.50521185385365, 47.93208192501951, 85.13724499986951, 58.271226910180225 " fill="none" id="curve_43" stroke="#000000" stroke-linecap="round" stroke-linejoin="round" stroke-width="1.961305978801351"/>
</svg>
