<?xml version="1.0" ?>
<svg height="140" width="140" xmlns="http://www.w3.org/2000/svg">
  <path d="M 61.40791416168213, 128.5696096420288 Q 61.44992779914084, 118.77743561769978, 63.805189853319206, 118.12533054334028 " fill="none" id="curve_1" stroke="#000000" stroke-linecap="round" stroke-linejoin="round" stroke-width="2.691224916024463"/>
  <path d="M 54.84909476802854, 123.84790860740259 Q 54.228119424721406, 122.19453698916817, 53.48987534437532, 119.64326130459827 " fill="none" id="curve_2" stroke="#000000" stroke-linecap="round" stroke-linejoin="round" stroke-width="2.2328118013425757"/>
  <path d="M 53.48987534437532, 119.64326130459827 Q 52.3508863676363, 114.96684340239642, 49.237778378382956, 111.74752793127426 " fill="none" id="curve_2" stroke="#000000" stroke-linecap="round" stroke-linejoin="round" stroke-width="3.8126343999113894"/>
  <path d="M 49.237778378382956, 111.74752793127426 Q 52.59989973627537, 109.19732010250945, 57.33969702811303, 106.87875958387889 " fill="none" id="curve_2" stroke="#000000" stroke-linecap="round" stroke-linejoin="round" stroke-width="4.218381855074298"/>
  <path d="M 64.65330214594357, 95.55907454986361 Q 65.04396362551545, 94.11071743266798, 65.18072435916838, 85.25531051937759 " fill="none" id="curve_3" stroke="#000000" stroke-linecap="round" stroke-linejoin="round" stroke-width="2.948990186140799"/>
  <path d="M 81.79002539610966, 88.8970735803511 Q 76.50636335385533, 88.89824168643827, 73.16599345383305, 88.90341904664827 " fill="none" id="curve_4" stroke="#000000" stroke-linecap="round" stroke-linejoin="round" stroke-width="2.9919260409018413"/>
  <path d="M 82.44938287221342, 91.43153656817245 Q 80.94891020120748, 94.2147850989948, 79.56528290274989, 99.03812442274241 " fill="none" id="curve_5" stroke="#000000" stroke-linecap="round" stroke-linejoin="round" stroke-width="1.9342532661577976"/>
  <path d="M 79.56528290274989, 99.03812442274241 Q 79.6113707349021, 105.35101421758276, 82.30998029978133, 105.6181495215137 " fill="none" id="curve_5" stroke="#000000" stroke-linecap="round" stroke-linejoin="round" stroke-width="3.5846613774272913"/>
  <path d="M 86.79740024053315, 104.41275381341539 Q 86.80899662995331, 104.51435680793679, 86.81409579621037, 104.83933875048893 " fill="none" id="curve_6" stroke="#000000" stroke-linecap="round" stroke-linejoin="round" stroke-width="5.764266021876492"/>
  <path d="M 81.62665796538737, 115.47367092152484 Q 81.06075310502654, 115.49750474271092, 80.94615860101626, 115.73518397805516 " fill="none" id="curve_7" stroke="#000000" stroke-linecap="round" stroke-linejoin="round" stroke-width="6.108155178719495"/>
  <path d="M 68.00805514050637, 133.93378489504627 Q 64.01985356888731, 134.04626749858096, 60.320847115567524, 134.23547758329238 " fill="none" id="curve_8" stroke="#000000" stroke-linecap="round" stroke-linejoin="round" stroke-width="2.3855389502365223"/>
  <path d="M 35.64040013262321, 96.08420845581824 Q 37.52881624163991, 91.1449800352464, 43.04908461376934, 87.07389393556542 " fill="none" id="curve_9" stroke="#000000" stroke-linecap="round" stroke-linejoin="round" stroke-width="15.71261531955192"/>
  <path d="M 43.04908461376934, 87.07389393556542 Q 49.6564882814681, 83.88363987822703, 52.67106110086652, 67.18815999559082 " fill="none" id="curve_9" stroke="#000000" stroke-linecap="round" stroke-linejoin="round" stroke-width="13.27780213749169"/>
  <path d="M 52.67106110086652, 67.18815999559082 Q 52.487691209800616, 51.665285655755625, 35.199572226705484, 51.091436255506004 " fill="none" id="curve_9" stroke="#000000" stroke-linecap="round" stroke-linejoin="round" stroke-width="7.448589486173223"/>
  <path d="M 35.199572226705484, 51.091436255506004 Q 33.01883757447321, 62.864189073042496, 27.908440191610055, 70.11350153098167 " fill="none" id="curve_9" stroke="#000000" stroke-linecap="round" stroke-linejoin="round" stroke-width="15.420492800097312"/>
  <path d="M 27.908440191610055, 70.11350153098167 Q 26.03110993989909, 72.6444234849322, 25.591276771935952, 91.0717236337104 " fill="none" id="curve_9" stroke="#000000" stroke-linecap="round" stroke-linejoin="round" stroke-width="7.907734150634554"/>
  <path d="M 25.591276771935952, 91.0717236337104 Q 28.155683250235143, 92.53185896982542, 33.72440647234535, 93.7963190066746 " fill="none" id="curve_9" stroke="#000000" stroke-linecap="round" stroke-linejoin="round" stroke-width="9.284103881400833"/>
  <path d="M 22.320739006771404, 106.62049846340817 Q 27.414363567720443, 107.63970445740293, 31.30583456047208, 110.4669630550329 " fill="none" id="curve_10" stroke="#000000" stroke-linecap="round" stroke-linejoin="round" stroke-width="2.970417415814203"/>
  <path d="M 30.568004415227488, 65.21510937418144 Q 37.27962965270844, 62.96327952246017, 40.72671569726299, 55.53962682723379 " fill="none" id="curve_11" stroke="#000000" stroke-linecap="round" stroke-linejoin="round" stroke-width="7.147550936266965"/>
  <path d="M 40.72671569726299, 55.53962682723379 Q 31.30547662928792, 56.32401480633152, 25.962191243136456, 61.86507609378185 " fill="none" id="curve_11" stroke="#000000" stroke-linecap="round" stroke-linejoin="round" stroke-width="5.602845577636639"/>
  <path d="M 24.425668475356456, 34.372082777876194 Q 24.812840686585375, 27.574588115524996, 30.430407121857975, 26.53634012713419 " fill="none" id="curve_12" stroke="#000000" stroke-linecap="round" stroke-linejoin="round" stroke-width="3.233305048540108"/>
  <path d="M 25.133453536207682, 2.385685756965514 Q 24.781797274646756, 2.744742265951361, 24.39483458358875, 3.6850434855498615 " fill="none" id="curve_15" stroke="#000000" stroke-linecap="round" stroke-linejoin="round" stroke-width="4.278876584949298"/>
  <path d="M 9.831234697922605, 2.89778820961863 Q 10.984939628105801, 4.431347956402942, 14.170066672591712, 5.788918589370802 " fill="none" id="curve_16" stroke="#000000" stroke-linecap="round" stroke-linejoin="round" stroke-width="3.414309262441051"/>
  <path d="M 9.556859184616707, 21.494176808292906 Q 10.138402623417068, 19.740868844700298, 12.533740650575709, 18.890610913305025 " fill="none" id="curve_17" stroke="#000000" stroke-linecap="round" stroke-linejoin="round" stroke-width="3.082392840929713"/>
  <path d="M 28.39808771546285, 13.38711276966917 Q 27.963902958693918, 13.82480119247608, 27.228694727905598, 14.431271904567177 " fill="none" id="curve_18" stroke="#000000" stroke-linecap="round" stroke-linejoin="round" stroke-width="4.111719599794909"/>
  <path d="M 51.8636641112054, 20.485984692402532 Q 57.553339071951555, 21.654100095266696, 64.31022155853657, 23.54287653415181 " fill="none" id="curve_19" stroke="#000000" stroke-linecap="round" stroke-linejoin="round" stroke-width="2.391145442377019"/>
  <path d="M 64.31022155853657, 23.54287653415181 Q 67.40520460755698, 23.289780287646728, 68.43843778876446, 21.770757223048662 " fill="none" id="curve_19" stroke="#000000" stroke-linecap="round" stroke-linejoin="round" stroke-width="4.755071298206166"/>
  <path d="M 60.64910594628468, 36.076274318003186 Q 60.23303194925502, 36.267192203149776, 60.07595991420834, 37.11611549083493 " fill="none" id="curve_20" stroke="#000000" stroke-linecap="round" stroke-linejoin="round" stroke-width="9.253496580335554"/>
  <path d="M 47.355667924553416, 36.21794412986882 Q 47.18068689357568, 36.04355979253187, 46.960799282461664, 35.8287043418134 " fill="none" id="curve_21" stroke="#000000" stroke-linecap="round" stroke-linejoin="round" stroke-width="5.0188190965767365"/>
  <path d="M 31.661951642140764, 40.844528913397234 Q 30.52328657936092, 40.63395659670165, 28.90350232531046, 40.41711973488531 " fill="none" id="curve_22" stroke="#000000" stroke-linecap="round" stroke-linejoin="round" stroke-width="5.590790343334866"/>
  <path d="M 35.27856243461083, 31.70318770937031 Q 35.45574178246845, 31.89081955922511, 35.55040791124515, 32.557603719904016 " fill="none" id="curve_23" stroke="#000000" stroke-linecap="round" stroke-linejoin="round" stroke-width="4.197102106140072"/>
  <path d="M 67.58423051824695, 79.99201400864328 Q 85.83475350188155, 79.91497188083352, 88.43339852128398, 78.72703783273121 " fill="none" id="curve_25" stroke="#000000" stroke-linecap="round" stroke-linejoin="round" stroke-width="2.0679985788199367"/>
  <path d="M 84.37779855594187, 52.185068866163554 Q 84.58497928850802, 53.05261766137559, 85.17431129966369, 53.62093629093637 " fill="none" id="curve_26" stroke="#000000" stroke-linecap="round" stroke-linejoin="round" stroke-width="3.065337426135783"/>
  <path d="M 70.63238028268913, 41.20438468133484 Q 68.57711389536107, 41.412533414458316, 65.22953404989471, 41.68128724976619 " fill="none" id="curve_27" stroke="#000000" stroke-linecap="round" stroke-linejoin="round" stroke-width="1.7763611019757939"/>
  <path d="M 39.31101027843674, 61.48133761426498 Q 36.33555493208794, 61.772792896867145, 36.14634903071547, 69.73058034319291 " fill="none" id="curve_28" stroke="#000000" stroke-linecap="round" stroke-linejoin="round" stroke-width="3.3186709647406447"/>
  <path d="M 54.86261139911118, 88.78700222729829 Q 55.10564260351235, 89.1473539391455, 55.29697183408858, 90.03322773004795 " fill="none" id="curve_29" stroke="#000000" stroke-linecap="round" stroke-linejoin="round" stroke-width="4.0737282889818305"/>
  <path d="M 32.9687711659188, 96.82185340824597 Q 36.87239319234375, 96.73033998031681, 41.52222890318172, 96.31174917328727 " fill="none" id="curve_30" stroke="#000000" stroke-linecap="round" stroke-linejoin="round" stroke-width="2.5320479977842196"/>
  <path d="M 31.004588716738766, 115.93096307318851 Q 30.22944679513737, 113.79933079284025, 27.207852446812474, 112.65626901654237 " fill="none" id="curve_31" stroke="#000000" stroke-linecap="round" stroke-linejoin="round" stroke-width="2.5314685216570427"/>
  <path d="M 22.06942479492311, 123.14663640933284 Q 21.492524236027357, 123.27605987194302, 20.822784941618128, 123.51713004488967 " fill="none" id="curve_32" stroke="#000000" stroke-linecap="round" stroke-linejoin="round" stroke-width="3.7725865230080604"/>
  <path d="M 17.7848951844607, 105.6339105543615 Q 18.85030904534914, 105.02715385271537, 21.69947167025957, 104.5439885682953 " fill="none" id="curve_33" stroke="#000000" stroke-linecap="round" stroke-linejoin="round" stroke-width="2.454302121574372"/>
  <path d="M 46.10879570808204, 56.31406800723158 Q 40.839966937370384, 55.57796949298462, 26.184810185756046, 54.82279084104467 " fill="none" id="curve_36" stroke="#000000" stroke-linecap="round" stroke-linejoin="round" stroke-width="3.4720572666184943"/>
  <path d="M 8.58423671897674, 64.1705329333168 Q 8.081641308380075, 64.05506279704078, 7.691256751233477, 63.839816753728655 " fill="none" id="curve_37" stroke="#000000" stroke-linecap="round" stroke-linejoin="round" stroke-width="5.07397116742997"/>
  <path d="M 8.713081469036482, 80.20043857624742 Q 9.002007009654069, 80.37878199893953, 9.424054040777468, 80.78206725074574 " fill="none" id="curve_41" stroke="#000000" stroke-linecap="round" stroke-linejoin="round" stroke-width="3.067028874121294"/>
  <path d="M 23.270702159941823, 68.91255075854389 Q 24.91438289865598, 72.1295670115274, 28.707238358295122, 83.60941591785719 " fill="none" id="curve_44" stroke="#000000" stroke-linecap="round" stroke-linejoin="round" stroke-width="3.2956173935262765"/>
  <path d="M 28.707238358295122, 83.60941591785719 Q 30.21821846698897, 94.70474615281853, 36.2350411572704, 113.65059462820601 " fill="none" id="curve_44" stroke="#000000" stroke-linecap="round" stroke-linejoin="round" stroke-width="2.510538746251046"/>
  <path d="M 62.79868401332435, 79.71400946747121 Q 64.83416937188247, 79.68162016171223, 65.7867138375883, 79.0272334529192 " fill="none" id="curve_53" stroke="#000000" stroke-linecap="round" stroke-linejoin="round" stroke-width="2.249901723547512"/>
  <path d="M 45.84115907851642, 8.957364854544803 Q 45.000719488717266, 8.980483182959066, 44.22520243527976, 9.02590222243328 " fill="none" id="curve_57" stroke="#000000" stroke-linecap="round" stroke-linejoin="round" stroke-width="3.8526011208428885"/>
  <path d="M 88.80110137972811, 1.2415920999776047 Q 88.05865643190683, 1.7970435816631927, 87.00917595231974, 2.684175631329173 " fill="none" id="curve_60" stroke="#000000" stroke-linecap="round" stroke-linejoin="round" stroke-width="2.330506972943018"/>
  <path d="M 59.41633118734717, 7.852127471097445 Q 57.91729997742379, 7.613463104675649, 56.16392651357786, 7.236347232194451 " fill="none" id="curve_61" stroke="#000000" stroke-linecap="round" stroke-linejoin="round" stroke-width="3.1488768917506436"/>
  <path d="M 18.769322615394785, 21.651792514169113 Q 18.866793335945168, 22.32424934197751, 19.03501001270871, 23.258767951688395 " fill="none" id="curve_62" stroke="#000000" stroke-linecap="round" stroke-linejoin="round" stroke-width="3.0764121461517635"/>
  <path d="M 54.88715856907189, 19.396378284613306 Q 54.54347803872117, 19.135598639543012, 53.930239652034686, 18.82656235023192 " fill="none" id="curve_63" stroke="#000000" stroke-linecap="round" stroke-linejoin="round" stroke-width="3.4619201144973797"/>
  <path d="M 7.756118709238841, 6.251102933156766 Q 6.903758767756462, 5.1532048694771815, 5.444562047135584, 3.492926323862917 " fill="none" id="curve_64" stroke="#000000" stroke-linecap="round" stroke-linejoin="round" stroke-width="3.512249667175911"/>
  <path d="M 49.20398522794874, 80.1888046806265 Q 40.4338126253412, 82.98040500777522, 31.742336641583417, 93.35099312452633 " fill="none" id="curve_92" stroke="#000000" stroke-linecap="round" stroke-linejoin="round" stroke-width="3.03583680889929"/>
  <path d="M 40.68687677250366, 105.00259062721612 Q 41.1121833016765, 105.73222021186821, 41.66265329648271, 107.71480366249223 " fill="none" id="curve_93" stroke="#000000" stroke-linecap="round" stroke-linejoin="round" stroke-width="2.511566453904474"/>
  <path d="M 74.98459119521961, 96.25329717007477 Q 73.27164845756734, 96.251397819173, 72.2657669213771, 96.24585965958015 " fill="none" id="curve_110" stroke="#000000" stroke-linecap="round" stroke-linejoin="round" stroke-width="2.683513613802831"/>
  <path d="M 75.73349316870207, 85.67789402658893 Q 77.46862308957661, 85.20449582666792, 84.6472711232332, 84.71213204873666 " fill="none" id="curve_111" stroke="#000000" stroke-linecap="round" stroke-linejoin="round" stroke-width="1.3060540737509085"/>
  <path d="M 88.88008835438396, 80.82585934906089 Q 88.59719538144779, 80.4073116299993, 88.44371494177486, 78.77438167839134 " fill="none" id="curve_112" stroke="#000000" stroke-linecap="round" stroke-linejoin="round" stroke-width="2.332906550671681"/>
  <path d="M 71.27891824019335, 91.15568685652394 Q 71.14582003739693, 91.06569377655494, 71.00827800069771, 90.87852160059225 " fill="none" id="curve_113" stroke="#000000" stroke-linecap="round" stroke-linejoin="round" stroke-width="2.5941677541907224"/>
  <path d="M 50.4581097836796, 91.07347982251095 Q 49.71422968846546, 94.13993468913019, 46.763531885107525, 96.479708007167 " fill="none" id="curve_114" stroke="#000000" stroke-linecap="round" stroke-linejoin="round" stroke-width="1.5745330807083775"/>
  <path d="M 44.78532057821279, 83.7496003365488 Q 36.686820900345765, 85.18187680700714, 32.063779864730705, 90.41590174704285 " fill="none" id="curve_115" stroke="#000000" stroke-linecap="round" stroke-linejoin="round" stroke-width="5.153076281862989"/>
  <path d="M 77.11324991703611, 135.18630704047123 Q 76.56288546608367, 135.31711988365146, 75.63070857293782, 135.48236101168982 " fill="none" id="curve_118" stroke="#000000" stroke-linecap="round" stroke-linejoin="round" stroke-width="2.6118083312009444"/>
  <path d="M 78.3089632274553, 99.49021485087692 Q 78.33968511718953, 102.63886852146146, 78.62009633925226, 103.40505176817283 " fill="none" id="curve_119" stroke="#000000" stroke-linecap="round" stroke-linejoin="round" stroke-width="2.914629441105544"/>
  <path d="M 58.28539788422346, 126.07566440887338 Q 60.03843073909484, 126.96512967640639, 60.633934148918584, 132.27443286665493 " fill="none" id="curve_120" stroke="#000000" stroke-linecap="round" stroke-linejoin="round" stroke-width="1.519457414745581"/>
  <path d="M 57.401123023203404, 138.16020307236485 Q 57.30456328509383, 138.2512090252493, 57.14324070305599, 138.35898138148556 " fill="none" id="curve_121" stroke="#000000" stroke-linecap="round" stroke-linejoin="round" stroke-width="2.373590621637244"/>
  <path d="M 26.208430342206793, 135.5639979054851 Q 25.172444149763397, 135.60059243439014, 24.566436853167918, 135.7103620801778 " fill="none" id="curve_122" stroke="#000000" stroke-linecap="round" stroke-linejoin="round" stroke-width="3.3906166674818135"/>
  <path d="M 1.5863748399369122, 138.56195526033144 Q 1.2906879166827734, 135.9175769957797, 0.9330358795166372, 130.67579929627894 " fill="none" id="curve_125" stroke="#000000" stroke-linecap="round" stroke-linejoin="round" stroke-width="1.2050295523581418"/>
  <path d="M 8.21354163791576, 133.89364019844072 Q 7.7648003337487586, 134.01009704494052, 7.639808522351244, 135.1048006713361 " fill="none" id="curve_126" stroke="#000000" stroke-linecap="round" stroke-linejoin="round" stroke-width="2.1530289030612275"/>
  <path d="M 14.218958840963763, 132.92369830262416 Q 14.19992664437355, 133.0421168299376, 14.186904248291912, 133.4332879505733 " fill="none" id="curve_127" stroke="#000000" stroke-linecap="round" stroke-linejoin="round" stroke-width="3.3589058716188536"/>
  <path d="M 12.460884308697816, 138.88174250221354 Q 12.377944487291819, 138.7458790232879, 12.266902204168687, 138.54734251435377 " fill="none" id="curve_128" stroke="#000000" stroke-linecap="round" stroke-linejoin="round" stroke-width="2.2565239853147703"/>
  <path d="M 4.624817536332473, 120.80687518712506 Q 6.109297277757095, 120.55559742764052, 6.8019221987691685, 119.67498853983942 " fill="none" id="curve_129" stroke="#000000" stroke-linecap="round" stroke-linejoin="round" stroke-width="2.2080017074152267"/>
  <path d="M 1.501297353088014, 124.5346298307299 Q 1.3052333812281243, 122.37216408799105, 1.085174902792129, 117.20091057078756 " fill="none" id="curve_130" stroke="#000000" stroke-linecap="round" stroke-linejoin="round" stroke-width="1.2497495654626753"/>
  <path d="M 30.020214216090597, 119.34173907012028 Q 29.279585435726087, 120.20328418874585, 25.280200870787297, 120.80712506027065 " fill="none" id="curve_131" stroke="#000000" stroke-linecap="round" stroke-linejoin="round" stroke-width="1.364499057944913"/>
  <path d="M 55.55696426185531, 123.24570664809218 Q 55.49388438084154, 125.10420017164938, 54.81594683333988, 125.58900182697164 " fill="none" id="curve_132" stroke="#000000" stroke-linecap="round" stroke-linejoin="round" stroke-width="2.433309290282309"/>
  <path d="M 46.80043943877092, 137.7113532385331 Q 46.68253333056655, 138.03574268175376, 46.458574103340545, 138.49817483682605 " fill="none" id="curve_133" stroke="#000000" stroke-linecap="round" stroke-linejoin="round" stroke-width="2.034301089164439"/>
  <path d="M 48.13926205880867, 101.88758123624336 Q 47.894168830144196, 101.46688717841886, 47.614816462855174, 100.82382479046662 " fill="none" id="curve_136" stroke="#000000" stroke-linecap="round" stroke-linejoin="round" stroke-width="2.5709768295055073"/>
  <path d="M 64.58289341682416, 74.13525786016055 Q 64.26966780720534, 74.54287922110684, 63.85686548343614, 75.34306589574194 " fill="none" id="curve_164" stroke="#000000" stroke-linecap="round" stroke-linejoin="round" stroke-width="2.286273064706315"/>
  <path d="M 72.42947444031319, 63.01755739388392 Q 72.4321672480585, 62.29807884215067, 72.43517438662155, 60.89603166348159 " fill="none" id="curve_166" stroke="#000000" stroke-linecap="round" stroke-linejoin="round" stroke-width="2.113323112729753"/>
  <path d="M 63.745698662801054, 56.82827245108891 Q 63.408486826497565, 56.42648313225502, 62.77917663216841, 55.97766200390917 " fill="none" id="curve_167" stroke="#000000" stroke-linecap="round" stroke-linejoin="round" stroke-width="2.9463578516671487"/>
  <path d="M 83.50682801575158, 48.385870256860265 Q 83.22398760326811, 48.55876293054371, 82.87487691358157, 48.86693806004975 " fill="none" id="curve_169" stroke="#000000" stroke-linecap="round" stroke-linejoin="round" stroke-width="2.702385142034214"/>
  <path d="M 73.0192088830027, 50.06674979120382 Q 73.00884706256268, 50.218195075572986, 72.99457013583104, 50.44747463395222 " fill="none" id="curve_171" stroke="#000000" stroke-linecap="round" stroke-linejoin="round" stroke-width="2.8456350136608943"/>
  <path d="M 88.90918256443308, 9.541486661205465 Q 88.7180145915488, 9.729675315102696, 88.26451990115788, 10.019884529711593 " fill="none" id="curve_175" stroke="#000000" stroke-linecap="round" stroke-linejoin="round" stroke-width="2.046643044730654"/>
  <path d="M 1.378641122070519, 0.8292988231468641 Q 0.9444107353841933, 5.006401711097013, 0.5837085558984904, 21.244813153299173 " fill="none" id="curve_186" stroke="#000000" stroke-linecap="round" stroke-linejoin="round" stroke-width="1.5748342633513224"/>
  <path d="M 0.5837085558984904, 21.244813153299173 Q 0.7049570703346595, 29.352258563802152, 0.8857378824025852, 40.88922211700336 " fill="none" id="curve_186" stroke="#000000" stroke-linecap="round" stroke-linejoin="round" stroke-width="1.5113517942293926"/>
  <path d="M 0.8857378824025852, 40.88922211700336 Q 0.8896443146306237, 63.44111132455389, 0.9771678650104267, 69.82588686452728 " fill="none" id="curve_186" stroke="#000000" stroke-linecap="round" stroke-linejoin="round" stroke-width="1.477234722788334"/>
  <path d="M 9.027987932861752, 49.312947117304894 Q 9.221468598699818, 48.412531851906515, 9.462480979890113, 46.04839440748888 " fill="none" id="curve_187" stroke="#000000" stroke-linecap="round" stroke-linejoin="round" stroke-width="2.142551101836006"/>
  <path d="M 13.034173453526419, 38.76031149098762 Q 10.119984939406617, 39.74776435404551, 6.965915041016784, 42.020742237374165 " fill="none" id="curve_188" stroke="#000000" stroke-linecap="round" stroke-linejoin="round" stroke-width="2.5103659123924578"/>
  <path d="M 64.70999540538011, 94.54699681777993 Q 66.85928910957706, 94.95367257493493, 68.34018514132474, 95.91382853728553 " fill="none" id="curve_216" stroke="#000000" stroke-linecap="round" stroke-linejoin="round" stroke-width="1.9583842823897335"/>
  <path d="M 48.993583884421135, 110.85082645483911 Q 47.32394208077587, 110.32653150597189, 45.44054756073999, 109.47786524742774 " fill="none" id="curve_217" stroke="#000000" stroke-linecap="round" stroke-linejoin="round" stroke-width="1.968009540613429"/>
  <path d="M 28.701534738903632, 77.43512022459436 Q 24.02318982362456, 75.70895216061079, 20.676099926015233, 62.351716995117854 " fill="none" id="curve_232" stroke="#000000" stroke-linecap="round" stroke-linejoin="round" stroke-width="2.31371872551659"/>
  <path d="M 33.96583504169358, 47.796777533197194 Q 34.21039931513943, 48.571190741438265, 35.38949020262793, 49.55935736555143 " fill="none" id="curve_250" stroke="#000000" stroke-linecap="round" stroke-linejoin="round" stroke-width="2.504261678122233"/>
</svg>
