<?xml version="1.0" ?>
<svg height="140" width="140" xmlns="http://www.w3.org/2000/svg">
  <path d="M 63.57682800292969, 67.17682456970215 Q 59.71612581329836, 63.03919385382274, 51.077415943583446, 51.02852086724192 " fill="none" id="curve_1" stroke="#000000" stroke-linecap="round" stroke-linejoin="round" stroke-width="4.464184331875486"/>
  <path d="M 51.077415943583446, 51.02852086724192 Q 47.49777627303267, 50.77932387723078, 37.34459304762906, 50.54984937115677 " fill="none" id="curve_1" stroke="#000000" stroke-linecap="round" stroke-linejoin="round" stroke-width="5.625232411948715"/>
  <path d="M 37.34459304762906, 50.54984937115677 Q 28.17469095392915, 53.817174190517775, 12.959100267343395, 71.25561285139814 " fill="none" id="curve_1" stroke="#000000" stroke-linecap="round" stroke-linejoin="round" stroke-width="4.433434995640301"/>
  <path d="M 12.959100267343395, 71.25561285139814 Q 10.443018274548887, 79.05565231798161, 8.01106912875608, 87.79806291048502 " fill="none" id="curve_1" stroke="#000000" stroke-linecap="round" stroke-linejoin="round" stroke-width="5.594395104798903"/>
  <path d="M 8.01106912875608, 87.79806291048502 Q 9.408632844707778, 111.26062052920938, 32.259970697574545, 117.2878849991501 " fill="none" id="curve_1" stroke="#000000" stroke-linecap="round" stroke-linejoin="round" stroke-width="4.924876383074732"/>
  <path d="M 32.259970697574545, 117.2878849991501 Q 35.51591511226506, 117.53500568854552, 46.407382615789786, 117.6447285227332 " fill="none" id="curve_1" stroke="#000000" stroke-linecap="round" stroke-linejoin="round" stroke-width="4.430713761082168"/>
  <path d="M 46.407382615789786, 117.6447285227332 Q 69.98078095258629, 116.141778482462, 76.04204280735942, 97.17799094550615 " fill="none" id="curve_1" stroke="#000000" stroke-linecap="round" stroke-linejoin="round" stroke-width="4.61751831551209"/>
  <path d="M 76.04204280735942, 97.17799094550615 Q 74.89999514483038, 75.85743333100206, 60.42572365676532, 64.82189361994094 " fill="none" id="curve_1" stroke="#000000" stroke-linecap="round" stroke-linejoin="round" stroke-width="3.919881946319484"/>
  <path d="M 60.42572365676532, 64.82189361994094 Q 58.47041202514477, 65.3175847567569, 58.12466325855843, 70.35742403879294 " fill="none" id="curve_1" stroke="#000000" stroke-linecap="round" stroke-linejoin="round" stroke-width="3.5456630229075365"/>
  <path d="M 42.37301389429314, 54.118390973115766 Q 40.14982387539476, 54.457738024138436, 39.20823305599078, 56.554987899890904 " fill="none" id="curve_2" stroke="#000000" stroke-linecap="round" stroke-linejoin="round" stroke-width="3.1094365919158706"/>
  <path d="M 44.6568001074959, 52.97969557986053 Q 56.705202974109675, 55.45801364642944, 59.89696490715573, 66.80737108893692 " fill="none" id="curve_3" stroke="#000000" stroke-linecap="round" stroke-linejoin="round" stroke-width="2.6907437909180687"/>
  <path d="M 59.89696490715573, 66.80737108893692 Q 59.38149056119296, 64.7214712388003, 58.42222850097596, 63.357882560708596 " fill="none" id="curve_3" stroke="#000000" stroke-linecap="round" stroke-linejoin="round" stroke-width="7.774498792510028"/>
  <path d="M 20.64706422190502, 62.47263016700855 Q 20.46883114815195, 62.58670271459978, 20.07177504315382, 62.865270840208275 " fill="none" id="curve_7" stroke="#000000" stroke-linecap="round" stroke-linejoin="round" stroke-width="3.1052979923288224"/>
  <path d="M 34.39573220041519, 118.02131166971145 Q 33.75012164332861, 116.70445439931603, 31.808979801459362, 115.26026458247938 " fill="none" id="curve_8" stroke="#000000" stroke-linecap="round" stroke-linejoin="round" stroke-width="4.8478025518286705"/>
  <path d="M 61.576232687397685, 61.77713215665159 Q 61.63419016375245, 63.626897517538865, 61.80907159933208, 65.15581921709783 " fill="none" id="curve_11" stroke="#000000" stroke-linecap="round" stroke-linejoin="round" stroke-width="3.456155442251674"/>
  <path d="M 23.12460855320483, 58.930412153668854 Q 16.496924891511444, 64.3626953523068, 9.833150279261798, 77.34791673244571 " fill="none" id="curve_17" stroke="#000000" stroke-linecap="round" stroke-linejoin="round" stroke-width="2.777705276208362"/>
  <path d="M 60.51877903661864, 113.93506654638371 Q 55.05587874724024, 117.0004526679073, 41.46362958651949, 119.44165970466602 " fill="none" id="curve_20" stroke="#000000" stroke-linecap="round" stroke-linejoin="round" stroke-width="2.902066185199191"/>
  <path d="M 9.305004679116925, 95.65856949274396 Q 14.1748723500951, 109.95106645167813, 31.72617310064168, 117.6098806723633 " fill="none" id="curve_22" stroke="#000000" stroke-linecap="round" stroke-linejoin="round" stroke-width="3.0088938490657253"/>
  <path d="M 47.915230142089214, 116.88889063059273 Q 59.398387726406156, 115.17991256430227, 66.24629433337124, 110.439294112601 " fill="none" id="curve_27" stroke="#000000" stroke-linecap="round" stroke-linejoin="round" stroke-width="2.6721756350629065"/>
  <path d="M 40.19031849389047, 118.14346682527899 Q 38.843609333429576, 116.93583754866341, 36.635445670540136, 115.89062785415216 " fill="none" id="curve_28" stroke="#000000" stroke-linecap="round" stroke-linejoin="round" stroke-width="4.948144115488109"/>
  <path d="M 10.478857849374911, 89.67644287697865 Q 10.425334425537269, 85.22148784130817, 7.315704916254184, 84.82708241097524 " fill="none" id="curve_29" stroke="#000000" stroke-linecap="round" stroke-linejoin="round" stroke-width="1.7295449613088585"/>
  <path d="M 6.254664157167575, 91.90416361443593 Q 6.946804817640554, 100.66307942284327, 12.801437394006108, 105.07304663885864 " fill="none" id="curve_30" stroke="#000000" stroke-linecap="round" stroke-linejoin="round" stroke-width="1.3854091076266506"/>
  <path d="M 12.801437394006108, 105.07304663885864 Q 21.283361499143496, 107.0806857256378, 27.509511456965086, 118.46357206475896 " fill="none" id="curve_30" stroke="#000000" stroke-linecap="round" stroke-linejoin="round" stroke-width="1.512016223052212"/>
  <path d="M 37.26304892994996, 119.18778950832582 Q 35.775482405912406, 119.03281610087859, 34.364020910661935, 118.75864699932802 " fill="none" id="curve_31" stroke="#000000" stroke-linecap="round" stroke-linejoin="round" stroke-width="2.6955808736732227"/>
  <path d="M 73.60392988127816, 87.54253937615522 Q 74.71856764992789, 89.52653882747647, 75.0643074312273, 101.25220452229539 " fill="none" id="curve_46" stroke="#000000" stroke-linecap="round" stroke-linejoin="round" stroke-width="2.7299777120727877"/>
  <path d="M 24.058588156402493, 113.7702792012069 Q 20.128346590142485, 112.90581477738509, 17.070316118332777, 110.85015765464146 " fill="none" id="curve_74" stroke="#000000" stroke-linecap="round" stroke-linejoin="round" stroke-width="3.9296874837982796"/>
  <path d="M 71.96005277957931, 82.50329152130425 Q 72.19154098867797, 83.3550196754823, 72.46033452151933, 85.30380421388152 " fill="none" id="curve_115" stroke="#000000" stroke-linecap="round" stroke-linejoin="round" stroke-width="2.6391410545235865"/>
  <path d="M 7.387378165930852, 82.90157614131454 Q 8.886007574567458, 76.44763311371668, 14.802331429967516, 71.71006213510486 " fill="none" id="curve_131" stroke="#000000" stroke-linecap="round" stroke-linejoin="round" stroke-width="2.8474141236079467"/>
</svg>
