<?xml version="1.0" ?>
<svg height="140" width="140" xmlns="http://www.w3.org/2000/svg">
  <path d="M 28.85716225450801, 26.66423448635011 Q 22.89144000235757, 28.88685554830582, 19.699360153461267, 49.32523194808591 " fill="none" id="curve_2" stroke="#000000" stroke-linecap="round" stroke-linejoin="round" stroke-width="4.786528007590012"/>
  <path d="M 19.699360153461267, 49.32523194808591 Q 18.473506923887516, 56.94244544555731, 16.54980261703324, 79.92037292789838 " fill="none" id="curve_2" stroke="#000000" stroke-linecap="round" stroke-linejoin="round" stroke-width="5.090696894242493"/>
  <path d="M 16.54980261703324, 79.92037292789838 Q 16.429399782784895, 85.77908845260774, 16.346121708046887, 110.11027842120588 " fill="none" id="curve_2" stroke="#000000" stroke-linecap="round" stroke-linejoin="round" stroke-width="4.329851255132791"/>
  <path d="M 16.346121708046887, 110.11027842120588 Q 19.409246330526894, 129.6075782261616, 33.29029364346029, 136.2751739472871 " fill="none" id="curve_2" stroke="#000000" stroke-linecap="round" stroke-linejoin="round" stroke-width="4.719266293574871"/>
  <path d="M 33.29029364346029, 136.2751739472871 Q 52.18770167354798, 134.05900616515444, 59.522520685427565, 104.85765836922303 " fill="none" id="curve_2" stroke="#000000" stroke-linecap="round" stroke-linejoin="round" stroke-width="5.286710510592965"/>
  <path d="M 59.522520685427565, 104.85765836922303 Q 61.747741391094344, 98.58870125793271, 63.4833409459044, 85.61794961996948 " fill="none" id="curve_2" stroke="#000000" stroke-linecap="round" stroke-linejoin="round" stroke-width="5.266772700667293"/>
  <path d="M 63.4833409459044, 85.61794961996948 Q 63.21056215420138, 56.325420087896376, 52.45146221756055, 48.78885313938388 " fill="none" id="curve_2" stroke="#000000" stroke-linecap="round" stroke-linejoin="round" stroke-width="4.688663585993944"/>
  <path d="M 52.45146221756055, 48.78885313938388 Q 50.26926563245067, 41.26735835557377, 34.51511046535009, 38.24311332269113 " fill="none" id="curve_2" stroke="#000000" stroke-linecap="round" stroke-linejoin="round" stroke-width="4.118537547245929"/>
  <path d="M 34.51511046535009, 38.24311332269113 Q 32.748261860104165, 43.56492140141249, 31.214865086842515, 49.94251564271055 " fill="none" id="curve_2" stroke="#000000" stroke-linecap="round" stroke-linejoin="round" stroke-width="3.779450008739651"/>
  <path d="M 31.214865086842515, 49.94251564271055 Q 32.81009057148552, 45.64769801082135, 33.632143125269614, 30.38899162215091 " fill="none" id="curve_2" stroke="#000000" stroke-linecap="round" stroke-linejoin="round" stroke-width="5.4869770197236925"/>
  <path d="M 33.632143125269614, 30.38899162215091 Q 33.340309022665465, 27.270496392580156, 31.664536112867587, 26.61778698049236 " fill="none" id="curve_2" stroke="#000000" stroke-linecap="round" stroke-linejoin="round" stroke-width="5.082968219618869"/>
  <path d="M 90.87976332164376, 47.180034914557346 Q 89.49584301232669, 47.60261478439781, 89.40428372093653, 77.73584709540675 " fill="none" id="curve_4" stroke="#000000" stroke-linecap="round" stroke-linejoin="round" stroke-width="2.3182942726251117"/>
  <path d="M 89.40428372093653, 77.73584709540675 Q 89.32712682203397, 83.24889787431465, 89.16002692733497, 106.25076847219435 " fill="none" id="curve_4" stroke="#000000" stroke-linecap="round" stroke-linejoin="round" stroke-width="2.557122850625552"/>
  <path d="M 89.16002692733497, 106.25076847219435 Q 89.19857203967166, 112.99402124295632, 89.35454782760883, 130.83340298078713 " fill="none" id="curve_4" stroke="#000000" stroke-linecap="round" stroke-linejoin="round" stroke-width="2.6211846672580337"/>
  <path d="M 89.35454782760883, 130.83340298078713 Q 89.22486590702219, 137.15276155037918, 88.67447244236041, 139.0661923240623 " fill="none" id="curve_4" stroke="#000000" stroke-linecap="round" stroke-linejoin="round" stroke-width="2.728924270978501"/>
  <path d="M 88.67447244236041, 139.0661923240623 Q 88.54388577200226, 138.72988730479318, 88.35553985539039, 138.40284530114212 " fill="none" id="curve_4" stroke="#000000" stroke-linecap="round" stroke-linejoin="round" stroke-width="2.5988642814777076"/>
  <path d="M 48.668494513441914, 124.18132137406474 Q 44.66003813694984, 128.19600258205492, 38.86768579092215, 133.0337198937567 " fill="none" id="curve_7" stroke="#000000" stroke-linecap="round" stroke-linejoin="round" stroke-width="3.283272054275981"/>
  <path d="M 38.86768579092215, 133.0337198937567 Q 31.63758942928893, 133.5699241932366, 27.497935370588024, 134.67879610320898 " fill="none" id="curve_7" stroke="#000000" stroke-linecap="round" stroke-linejoin="round" stroke-width="2.7860983649513855"/>
  <path d="M 27.497935370588024, 134.67879610320898 Q 23.48126624839269, 132.1232344763515, 19.902883514419802, 126.91872116973954 " fill="none" id="curve_7" stroke="#000000" stroke-linecap="round" stroke-linejoin="round" stroke-width="2.937674561178921"/>
  <path d="M 17.863503191213244, 110.43204981432547 Q 17.95669769092781, 104.62963093024848, 18.247776557963586, 100.75923229532047 " fill="none" id="curve_8" stroke="#000000" stroke-linecap="round" stroke-linejoin="round" stroke-width="2.459438674983804"/>
  <path d="M 18.247776557963586, 100.75923229532047 Q 15.006037611257547, 100.6098269958245, 14.316976848527364, 99.36675868124948 " fill="none" id="curve_8" stroke="#000000" stroke-linecap="round" stroke-linejoin="round" stroke-width="3.6185163840889665"/>
  <path d="M 14.316976848527364, 99.36675868124948 Q 14.329853479366273, 91.04329611948386, 14.358704454194168, 82.15537791187184 " fill="none" id="curve_8" stroke="#000000" stroke-linecap="round" stroke-linejoin="round" stroke-width="2.5789972771338525"/>
  <path d="M 14.358704454194168, 82.15537791187184 Q 15.292770780172606, 80.6146029477549, 15.505555411101515, 68.91384038735244 " fill="none" id="curve_8" stroke="#000000" stroke-linecap="round" stroke-linejoin="round" stroke-width="3.387172413284546"/>
  <path d="M 15.505555411101515, 68.91384038735244 Q 16.13569258587941, 60.65218636988682, 20.615353536764175, 57.750756869706315 " fill="none" id="curve_8" stroke="#000000" stroke-linecap="round" stroke-linejoin="round" stroke-width="2.643618654506504"/>
  <path d="M 22.857648342461037, 38.274608445715955 Q 22.532333899807274, 34.83239755788714, 21.39091163221961, 33.46793338577011 " fill="none" id="curve_9" stroke="#000000" stroke-linecap="round" stroke-linejoin="round" stroke-width="3.612098452976874"/>
  <path d="M 52.10840802581434, 44.73172263596112 Q 55.51356345827031, 47.09725520607976, 57.16171662412911, 53.054088855655955 " fill="none" id="curve_10" stroke="#000000" stroke-linecap="round" stroke-linejoin="round" stroke-width="2.805059862181473"/>
  <path d="M 90.00167318680593, 46.200540483155855 Q 89.3060832436144, 45.722019862797374, 89.24186524045862, 24.843359354688353 " fill="none" id="curve_11" stroke="#000000" stroke-linecap="round" stroke-linejoin="round" stroke-width="2.375582942665438"/>
  <path d="M 89.24186524045862, 24.843359354688353 Q 89.24749225955478, 19.298530975551568, 89.2596955858907, 2.5781846156794934 " fill="none" id="curve_11" stroke="#000000" stroke-linecap="round" stroke-linejoin="round" stroke-width="2.406333537841283"/>
  <path d="M 89.2596955858907, 2.5781846156794934 Q 89.27886853275156, 1.8244191327363688, 89.31807629729751, 1.329091962727817 " fill="none" id="curve_11" stroke="#000000" stroke-linecap="round" stroke-linejoin="round" stroke-width="2.714683408191234"/>
  <path d="M 89.34281853126518, 46.52115671400907 Q 89.08858786110801, 47.862964268284, 88.89570945614497, 51.23913588833893 " fill="none" id="curve_13" stroke="#000000" stroke-linecap="round" stroke-linejoin="round" stroke-width="1.8118775138926186"/>
  <path d="M 60.806708743141385, 64.67530849335722 Q 59.62521546989539, 56.941497778869525, 54.21454077637827, 53.50247506621579 " fill="none" id="curve_14" stroke="#000000" stroke-linecap="round" stroke-linejoin="round" stroke-width="3.0323400731571515"/>
  <path d="M 62.46974825547723, 71.4808300033586 Q 61.6139589291041, 65.04091265152181, 59.17110643960517, 59.41414302145263 " fill="none" id="curve_16" stroke="#000000" stroke-linecap="round" stroke-linejoin="round" stroke-width="2.431437430394199"/>
  <path d="M 51.805037423273234, 44.919446899277546 Q 50.859824760714005, 42.3719315951669, 43.07992013263574, 40.296727230843 " fill="none" id="curve_26" stroke="#000000" stroke-linecap="round" stroke-linejoin="round" stroke-width="2.2990695989710996"/>
  <path d="M 50.158687751651094, 123.35422156489064 Q 55.31018230845503, 120.24058068656937, 58.6223591522735, 109.0283503848658 " fill="none" id="curve_33" stroke="#000000" stroke-linecap="round" stroke-linejoin="round" stroke-width="2.814062864532194"/>
  <path d="M 62.94192616330881, 73.8050481197813 Q 61.929288246911334, 68.18309778669384, 59.93098704472369, 61.397213312307194 " fill="none" id="curve_34" stroke="#000000" stroke-linecap="round" stroke-linejoin="round" stroke-width="2.667270442781231"/>
  <path d="M 54.66539638782934, 115.32695788744815 Q 54.974172200752776, 115.61444413176059, 55.22066535732642, 116.97538859326646 " fill="none" id="curve_38" stroke="#000000" stroke-linecap="round" stroke-linejoin="round" stroke-width="2.989305386301553"/>
  <path d="M 18.842704774836857, 117.87455832250137 Q 21.05591457053128, 120.601032434372, 23.007725219481248, 125.83351674287374 " fill="none" id="curve_45" stroke="#000000" stroke-linecap="round" stroke-linejoin="round" stroke-width="2.88251151608869"/>
  <path d="M 55.360946601112076, 116.3558167411514 Q 54.6579078001718, 116.24834076758776, 53.73008723267027, 116.00360738002749 " fill="none" id="curve_46" stroke="#000000" stroke-linecap="round" stroke-linejoin="round" stroke-width="3.369802182874701"/>
  <path d="M 63.430766840407536, 74.96024086801674 Q 62.85333412300771, 66.29648858037197, 59.921239457718706, 62.14070702518016 " fill="none" id="curve_47" stroke="#000000" stroke-linecap="round" stroke-linejoin="round" stroke-width="2.600226481672562"/>
  <path d="M 24.385713910143824, 33.862897211107935 Q 23.995248850152638, 37.834997997232286, 23.3569784955237, 42.68782432257681 " fill="none" id="curve_52" stroke="#000000" stroke-linecap="round" stroke-linejoin="round" stroke-width="2.388889287498398"/>
  <path d="M 60.28551161905758, 70.90196859749938 Q 61.046576892389375, 67.44330815821704, 63.22365588048271, 65.05690620291446 " fill="none" id="curve_58" stroke="#000000" stroke-linecap="round" stroke-linejoin="round" stroke-width="2.3740070531589668"/>
  <path d="M 38.771980824346414, 39.71875181274635 Q 35.26206446319046, 40.320305565123384, 32.94037880729789, 42.27195094672173 " fill="none" id="curve_59" stroke="#000000" stroke-linecap="round" stroke-linejoin="round" stroke-width="2.1487745332640515"/>
  <path d="M 62.01867222124133, 63.225193102305155 Q 58.88052903349653, 60.01004536627553, 54.6808880160233, 54.643357234328455 " fill="none" id="curve_74" stroke="#000000" stroke-linecap="round" stroke-linejoin="round" stroke-width="2.7295713129549974"/>
  <path d="M 30.70028845464278, 30.167819808770222 Q 29.017650584099734, 30.010546622350187, 24.903474629861773, 29.79426569316137 " fill="none" id="curve_75" stroke="#000000" stroke-linecap="round" stroke-linejoin="round" stroke-width="2.8461043984318155"/>
  <path d="M 21.5457619415752, 46.945541877264475 Q 21.662235087447876, 46.38784135811644, 21.873022814578185, 45.627432864562834 " fill="none" id="curve_86" stroke="#000000" stroke-linecap="round" stroke-linejoin="round" stroke-width="3.0099999343866473"/>
  <path d="M 58.6339272912117, 108.81457093827294 Q 54.87177186766028, 114.82965697530501, 50.04601894285763, 122.78717381500825 " fill="none" id="curve_117" stroke="#000000" stroke-linecap="round" stroke-linejoin="round" stroke-width="2.7508362980771195"/>
  <path d="M 17.889982352065577, 76.94421117104936 Q 17.74244096063165, 76.70119169193569, 17.604669335232817, 76.04247457569976 " fill="none" id="curve_121" stroke="#000000" stroke-linecap="round" stroke-linejoin="round" stroke-width="3.402186088689779"/>
  <path d="M 42.47101434936333, 41.4502278831283 Q 41.79271640419634, 38.47623957534658, 36.22508810434179, 37.17055411789084 " fill="none" id="curve_164" stroke="#000000" stroke-linecap="round" stroke-linejoin="round" stroke-width="2.8304247374750253"/>
</svg>
