<?xml version="1.0" ?>
<svg height="140" width="140" xmlns="http://www.w3.org/2000/svg">
  <path d="M 66.43179321289062, 92.9723892211914 Q 65.98223387982156, 97.53319407082083, 62.21180546425961, 100.85877635720556 " fill="none" id="curve_1" stroke="#000000" stroke-linecap="round" stroke-linejoin="round" stroke-width="6.937179815945086"/>
  <path d="M 62.21180546425961, 100.85877635720556 Q 57.972866243906296, 105.93207619357122, 45.80130979708382, 110.33784401194747 " fill="none" id="curve_1" stroke="#000000" stroke-linecap="round" stroke-linejoin="round" stroke-width="7.160842948067698"/>
  <path d="M 45.80130979708382, 110.33784401194747 Q 42.65021345996606, 112.44888169284938, 30.433662480040034, 113.06131690544225 " fill="none" id="curve_1" stroke="#000000" stroke-linecap="round" stroke-linejoin="round" stroke-width="5.43939220456359"/>
  <path d="M 30.433662480040034, 113.06131690544225 Q 21.958187429338377, 111.54580193990775, 20.072761090796185, 93.82721862107468 " fill="none" id="curve_1" stroke="#000000" stroke-linecap="round" stroke-linejoin="round" stroke-width="5.7477721103252595"/>
  <path d="M 20.072761090796185, 93.82721862107468 Q 20.947711434254575, 72.33853566573086, 35.38750804670096, 65.71985096796467 " fill="none" id="curve_1" stroke="#000000" stroke-linecap="round" stroke-linejoin="round" stroke-width="6.22529086073883"/>
  <path d="M 35.38750804670096, 65.71985096796467 Q 58.680381212060226, 65.950549284144, 60.01309302115383, 82.20593577475812 " fill="none" id="curve_1" stroke="#000000" stroke-linecap="round" stroke-linejoin="round" stroke-width="5.121555217441465"/>
  <path d="M 68.2421710754135, 93.34242472229047 Q 68.70918930503099, 92.87775311742863, 68.89917355476791, 90.542953568043 " fill="none" id="curve_2" stroke="#000000" stroke-linecap="round" stroke-linejoin="round" stroke-width="4.453728956951179"/>
  <path d="M 51.29109043325781, 66.13444216707417 Q 49.430690181339095, 64.42691060156208, 38.12256710321899, 63.55103601580223 " fill="none" id="curve_3" stroke="#000000" stroke-linecap="round" stroke-linejoin="round" stroke-width="3.5453501804047476"/>
  <path d="M 58.27463805024523, 84.86915477010683 Q 58.713366408552254, 84.72853433441233, 58.930417974028344, 84.15908334107853 " fill="none" id="curve_4" stroke="#000000" stroke-linecap="round" stroke-linejoin="round" stroke-width="5.22282141557927"/>
  <path d="M 39.7052839771292, 64.18544412593823 Q 24.721771927943003, 65.2933622116681, 20.92448189398128, 79.88576866234195 " fill="none" id="curve_5" stroke="#000000" stroke-linecap="round" stroke-linejoin="round" stroke-width="3.354262437101161"/>
  <path d="M 24.3626344166968, 108.3863070289378 Q 29.28111170259495, 110.34075325685329, 36.04457187555113, 112.05601388431867 " fill="none" id="curve_6" stroke="#000000" stroke-linecap="round" stroke-linejoin="round" stroke-width="2.8279779477889178"/>
  <path d="M 65.9875447226708, 98.25846648441622 Q 66.83228169662507, 96.32418369339022, 68.49418098365749, 94.84496807529558 " fill="none" id="curve_7" stroke="#000000" stroke-linecap="round" stroke-linejoin="round" stroke-width="3.428528436022928"/>
  <path d="M 45.84341565944938, 64.24039015538021 Q 45.49122640658805, 62.87832023442058, 37.40755277198197, 62.69733071497702 " fill="none" id="curve_8" stroke="#000000" stroke-linecap="round" stroke-linejoin="round" stroke-width="2.9829217992335093"/>
  <path d="M 19.392034473778548, 85.16192479806467 Q 21.29253899592917, 96.467819898747, 24.406318441115783, 109.93305434702853 " fill="none" id="curve_9" stroke="#000000" stroke-linecap="round" stroke-linejoin="round" stroke-width="3.1726880264165205"/>
  <path d="M 24.406318441115783, 109.93305434702853 Q 20.741663339973023, 107.26486711074037, 19.561200132027416, 84.66520080252113 " fill="none" id="curve_9" stroke="#000000" stroke-linecap="round" stroke-linejoin="round" stroke-width="3.4029595241245305"/>
  <path d="M 44.88451142179672, 109.46503598252727 Q 41.03009256076942, 110.43427716203537, 36.368567863238994, 112.13247241417083 " fill="none" id="curve_11" stroke="#000000" stroke-linecap="round" stroke-linejoin="round" stroke-width="3.2440926971288406"/>
  <path d="M 20.0412334201926, 101.04924896246213 Q 20.213377772926403, 96.32086250721558, 20.37033500024492, 84.5505446347986 " fill="none" id="curve_12" stroke="#000000" stroke-linecap="round" stroke-linejoin="round" stroke-width="2.745770023242594"/>
  <path d="M 22.747393365508156, 101.3853410538711 Q 20.939196658480554, 98.824870283429, 19.57148585595753, 88.48598300215852 " fill="none" id="curve_21" stroke="#000000" stroke-linecap="round" stroke-linejoin="round" stroke-width="2.7906270632541803"/>
  <path d="M 22.153631309353862, 99.19891658427258 Q 21.14040473191374, 95.51288928421701, 19.549752440302402, 89.6812888755997 " fill="none" id="curve_22" stroke="#000000" stroke-linecap="round" stroke-linejoin="round" stroke-width="3.1887955846709453"/>
  <path d="M 49.654991017837425, 66.82165892275756 Q 54.53730643697888, 67.23236881915201, 55.89210959348742, 71.16318067548958 " fill="none" id="curve_30" stroke="#000000" stroke-linecap="round" stroke-linejoin="round" stroke-width="2.377253450734718"/>
  <path d="M 38.38753980160387, 63.4780429621205 Q 33.79227688641182, 63.788326406395484, 31.782843772851482, 65.71201678382671 " fill="none" id="curve_35" stroke="#000000" stroke-linecap="round" stroke-linejoin="round" stroke-width="2.7547603190412038"/>
  <path d="M 55.705456848655835, 70.87010716590001 Q 54.683974528291806, 68.38559961214757, 50.63301972969887, 66.9050250642198 " fill="none" id="curve_39" stroke="#000000" stroke-linecap="round" stroke-linejoin="round" stroke-width="2.5855702188784884"/>
  <path d="M 20.605770880175754, 90.26454384539205 Q 21.282938517938398, 91.26661671724159, 21.90608830023077, 94.11395404501904 " fill="none" id="curve_41" stroke="#000000" stroke-linecap="round" stroke-linejoin="round" stroke-width="3.747942278455026"/>
  <path d="M 88.69427455602249, 2.172789646474854 Q 89.26436270038177, 2.069419992905644, 89.88636453311729, 1.8052121640939236 " fill="none" id="curve_69" stroke="#000000" stroke-linecap="round" stroke-linejoin="round" stroke-width="1.92152959070752"/>
  <path d="M 59.24358325770095, 75.55211494705134 Q 58.59965538348884, 70.27150342002211, 52.45448779480843, 68.4223126997986 " fill="none" id="curve_97" stroke="#000000" stroke-linecap="round" stroke-linejoin="round" stroke-width="2.3039091244792584"/>
  <path d="M 25.795787562502476, 105.9979497075771 Q 25.887358832753886, 107.38328432286355, 26.05473601149904, 109.16268930694451 " fill="none" id="curve_99" stroke="#000000" stroke-linecap="round" stroke-linejoin="round" stroke-width="3.413626601713372"/>
  <path d="M 26.147713314703537, 71.74968548535617 Q 27.93474555398108, 71.83445962503174, 29.791551277037307, 72.03519995426633 " fill="none" id="curve_100" stroke="#000000" stroke-linecap="round" stroke-linejoin="round" stroke-width="3.5916149326471247"/>
  <path d="M 52.8448640268291, 67.9786894326378 Q 52.70694596045626, 67.41829595460777, 52.34351548604396, 66.78664496973707 " fill="none" id="curve_167" stroke="#000000" stroke-linecap="round" stroke-linejoin="round" stroke-width="3.004462101879771"/>
</svg>
