<?xml version="1.0" ?>
<svg height="140" width="140" xmlns="http://www.w3.org/2000/svg">
  <path d="M 50.55843734741211, 79.75050354003906 Q 51.24995009609119, 74.80167093879332, 57.76718294721019, 72.58201884281652 " fill="none" id="curve_1" stroke="#000000" stroke-linecap="round" stroke-linejoin="round" stroke-width="6.542168066454155"/>
  <path d="M 57.76718294721019, 72.58201884281652 Q 57.62808769078911, 60.67409950387383, 50.94342504818866, 59.812899437821216 " fill="none" id="curve_1" stroke="#000000" stroke-linecap="round" stroke-linejoin="round" stroke-width="7.690211979475283"/>
  <path d="M 50.94342504818866, 59.812899437821216 Q 45.325431791842256, 57.658142155401386, 41.70318016114324, 50.793233935060485 " fill="none" id="curve_1" stroke="#000000" stroke-linecap="round" stroke-linejoin="round" stroke-width="9.796176128686858"/>
  <path d="M 41.70318016114324, 50.793233935060485 Q 29.181811621510704, 52.434590303122334, 23.956406650904018, 70.47500114498007 " fill="none" id="curve_1" stroke="#000000" stroke-linecap="round" stroke-linejoin="round" stroke-width="5.401207521256541"/>
  <path d="M 23.956406650904018, 70.47500114498007 Q 26.53205163220439, 78.44739011674784, 41.89599802994704, 79.94061172432292 " fill="none" id="curve_1" stroke="#000000" stroke-linecap="round" stroke-linejoin="round" stroke-width="5.856776871851346"/>
  <path d="M 41.89599802994704, 79.94061172432292 Q 50.3439623593363, 79.13243036453922, 53.416464143473505, 76.10749446956632 " fill="none" id="curve_1" stroke="#000000" stroke-linecap="round" stroke-linejoin="round" stroke-width="4.169582730276173"/>
  <path d="M 43.4660992631635, 56.14244262317216 Q 41.63357456760421, 57.151615983654175, 39.14524043892186, 58.696068917396914 " fill="none" id="curve_2" stroke="#000000" stroke-linecap="round" stroke-linejoin="round" stroke-width="4.01321954682868"/>
  <path d="M 23.133864728211503, 66.02265251478805 Q 26.60180643025858, 72.76545905135508, 33.12258402164297, 78.61123362106434 " fill="none" id="curve_3" stroke="#000000" stroke-linecap="round" stroke-linejoin="round" stroke-width="3.0329048874310716"/>
  <path d="M 46.20489101939832, 51.13927684489058 Q 45.50641361106442, 51.27529939675994, 44.76265334233471, 51.59342549986219 " fill="none" id="curve_4" stroke="#000000" stroke-linecap="round" stroke-linejoin="round" stroke-width="3.915086724416771"/>
  <path d="M 89.17423868179321, 1.9148139953613281 Q 89.41108577480244, 1.5752411369259747, 89.88881916047809, 1.0971793639902359 " fill="none" id="curve_18" stroke="#000000" stroke-linecap="round" stroke-linejoin="round" stroke-width="1.6420396051543666"/>
  <path d="M 49.629203278817805, 77.31064673909435 Q 53.596234918414225, 77.0706709113292, 56.129057051702866, 76.48302300188095 " fill="none" id="curve_22" stroke="#000000" stroke-linecap="round" stroke-linejoin="round" stroke-width="4.007918449195256"/>
  <path d="M 26.59322768634206, 69.31069457597641 Q 25.232193462536443, 68.31082621135943, 24.324540360765184, 64.55375527166012 " fill="none" id="curve_37" stroke="#000000" stroke-linecap="round" stroke-linejoin="round" stroke-width="3.649328105054594"/>
  <path d="M 24.324540360765184, 64.55375527166012 Q 24.20098795533049, 66.37910135796673, 23.87969993948544, 68.68461414982141 " fill="none" id="curve_37" stroke="#000000" stroke-linecap="round" stroke-linejoin="round" stroke-width="2.816839285123735"/>
  <path d="M 60.42516603021423, 70.72370285885722 Q 60.02834883972082, 69.27888628173699, 58.30134818906793, 68.53270082750484 " fill="none" id="curve_52" stroke="#000000" stroke-linecap="round" stroke-linejoin="round" stroke-width="3.049459182080725"/>
  <path d="M 33.421840553736715, 77.89311225835317 Q 29.61045680363664, 74.26886724245298, 23.090250156037662, 69.06585717490317 " fill="none" id="curve_53" stroke="#000000" stroke-linecap="round" stroke-linejoin="round" stroke-width="2.7682156885140277"/>
</svg>
