<?xml version="1.0" ?>
<svg height="140" width="140" xmlns="http://www.w3.org/2000/svg">
  <path d="M 89.53686363918554, 60.69957448808299 Q 89.56426116171625, 73.33668445188607, 89.84121931818349, 83.66386584011241 " fill="none" id="curve_2" stroke="#000000" stroke-linecap="round" stroke-linejoin="round" stroke-width="1.4040274269056932"/>
  <path d="M 89.84121931818349, 83.66386584011241 Q 89.77061407770236, 89.6635679502888, 89.55914812877337, 107.992825777156 " fill="none" id="curve_2" stroke="#000000" stroke-linecap="round" stroke-linejoin="round" stroke-width="1.1500355554519397"/>
  <path d="M 89.55914812877337, 107.992825777156 Q 89.52848211586252, 114.31109433379292, 89.368748389134, 116.65851779762558 " fill="none" id="curve_2" stroke="#000000" stroke-linecap="round" stroke-linejoin="round" stroke-width="1.497899741803228"/>
  <path d="M 89.70318160262816, 137.80643621634823 Q 89.56079556513258, 136.62788245954832, 89.46174070950157, 133.08265972639919 " fill="none" id="curve_3" stroke="#000000" stroke-linecap="round" stroke-linejoin="round" stroke-width="1.743704264213118"/>
  <path d="M 49.950791449592714, 82.98561306731787 Q 46.31325228931361, 87.89238084693461, 35.633967783897155, 92.95526614248818 " fill="none" id="curve_5" stroke="#000000" stroke-linecap="round" stroke-linejoin="round" stroke-width="3.6544865614495947"/>
  <path d="M 35.633967783897155, 92.95526614248818 Q 31.310526275821477, 93.11936812516342, 20.419729313853065, 93.19939978316721 " fill="none" id="curve_5" stroke="#000000" stroke-linecap="round" stroke-linejoin="round" stroke-width="4.702709451272432"/>
  <path d="M 20.419729313853065, 93.19939978316721 Q 13.371924024212554, 89.27583560389806, 6.668601485173555, 78.02892069134708 " fill="none" id="curve_5" stroke="#000000" stroke-linecap="round" stroke-linejoin="round" stroke-width="5.1535717325121455"/>
  <path d="M 6.668601485173555, 78.02892069134708 Q 7.960423548158054, 62.389216507380425, 22.602200236077685, 54.851805364899676 " fill="none" id="curve_5" stroke="#000000" stroke-linecap="round" stroke-linejoin="round" stroke-width="5.1411252665342255"/>
  <path d="M 22.602200236077685, 54.851805364899676 Q 25.64802960134505, 52.75216922947664, 35.92870621751884, 51.95075369062496 " fill="none" id="curve_5" stroke="#000000" stroke-linecap="round" stroke-linejoin="round" stroke-width="3.7032362065960975"/>
  <path d="M 35.92870621751884, 51.95075369062496 Q 47.462132708607754, 57.913586932087256, 54.16728466846291, 71.38579388506778 " fill="none" id="curve_5" stroke="#000000" stroke-linecap="round" stroke-linejoin="round" stroke-width="3.7491779198405584"/>
  <path d="M 54.16728466846291, 71.38579388506778 Q 52.56194533408691, 79.80808520625604, 49.014271564314974, 84.29201503594729 " fill="none" id="curve_5" stroke="#000000" stroke-linecap="round" stroke-linejoin="round" stroke-width="3.5386741322642896"/>
  <path d="M 40.57211197816632, 56.84569521803532 Q 39.084138266439446, 55.22085910009078, 36.12974545635786, 53.86459828678369 " fill="none" id="curve_6" stroke="#000000" stroke-linecap="round" stroke-linejoin="round" stroke-width="3.0138570128376503"/>
  <path d="M 32.32111863364709, 91.96964189316499 Q 36.09922790255523, 91.98507863877485, 38.90752531900847, 92.02357457798605 " fill="none" id="curve_8" stroke="#000000" stroke-linecap="round" stroke-linejoin="round" stroke-width="3.0586068926729517"/>
  <path d="M 89.54338274736996, 39.17668098155116 Q 89.52356591451652, 42.93990444993794, 89.43415727289648, 44.884330822687424 " fill="none" id="curve_10" stroke="#000000" stroke-linecap="round" stroke-linejoin="round" stroke-width="1.6835696148249042"/>
  <path d="M 89.91828826345152, 55.32450549284583 Q 89.83713389722561, 54.92043179080972, 89.7028403467025, 54.36609920354901 " fill="none" id="curve_11" stroke="#000000" stroke-linecap="round" stroke-linejoin="round" stroke-width="1.9739206397041367"/>
  <path d="M 89.46180256812724, 2.8491109896052933 Q 89.36717148097043, 2.216452714976033, 89.22855598137934, 1.344616315719408 " fill="none" id="curve_13" stroke="#000000" stroke-linecap="round" stroke-linejoin="round" stroke-width="2.0879870776390375"/>
  <path d="M 89.57541809262351, 15.978110116445237 Q 89.6074609218315, 19.596742775169623, 89.67124961032584, 23.88203978608514 " fill="none" id="curve_28" stroke="#000000" stroke-linecap="round" stroke-linejoin="round" stroke-width="1.1773627595414018"/>
  <path d="M 89.70707520706911, 36.31419275491098 Q 89.67492203788503, 34.71697894627139, 89.62430142576925, 31.942738388354208 " fill="none" id="curve_29" stroke="#000000" stroke-linecap="round" stroke-linejoin="round" stroke-width="1.3564321792717935"/>
  <path d="M 89.68335982402955, 128.09263501587174 Q 89.68845432639002, 127.97512970847733, 89.69690822857272, 127.74793837980795 " fill="none" id="curve_36" stroke="#000000" stroke-linecap="round" stroke-linejoin="round" stroke-width="2.2941539224954988"/>
  <path d="M 22.70766167930612, 91.99644644713273 Q 17.6400697037674, 90.59350221080958, 11.77879364403686, 87.34420560093014 " fill="none" id="curve_38" stroke="#000000" stroke-linecap="round" stroke-linejoin="round" stroke-width="2.4830527556774493"/>
  <path d="M 11.77879364403686, 87.34420560093014 Q 9.980517041269305, 85.53323149344008, 8.029636488709622, 82.91145362800364 " fill="none" id="curve_38" stroke="#000000" stroke-linecap="round" stroke-linejoin="round" stroke-width="4.226955594883887"/>
  <path d="M 47.43142520011722, 86.42740447824968 Q 47.84108253957294, 85.4743192617164, 48.586754513648586, 84.01209412873756 " fill="none" id="curve_39" stroke="#000000" stroke-linecap="round" stroke-linejoin="round" stroke-width="3.753900425065507"/>
  <path d="M 89.2217085314519, 7.489774127354959 Q 89.41720747358528, 6.201123774966627, 89.71410721950235, 4.408940107697273 " fill="none" id="curve_55" stroke="#000000" stroke-linecap="round" stroke-linejoin="round" stroke-width="1.5583724421086182"/>
  <path d="M 89.60217100578592, 27.59590780474318 Q 89.55685824416479, 27.989355012947144, 89.41972847057659, 28.488205790870737 " fill="none" id="curve_57" stroke="#000000" stroke-linecap="round" stroke-linejoin="round" stroke-width="1.5633689677412073"/>
  <path d="M 45.14038982906072, 59.30496647015999 Q 45.40466395723604, 58.90895750874851, 45.95232942572628, 58.541973644996105 " fill="none" id="curve_60" stroke="#000000" stroke-linecap="round" stroke-linejoin="round" stroke-width="4.411007036503689"/>
  <path d="M 51.86905940080999, 75.92432256570125 Q 52.04600460745589, 73.9218080102647, 52.189500523437125, 68.424866277488 " fill="none" id="curve_75" stroke="#000000" stroke-linecap="round" stroke-linejoin="round" stroke-width="2.431986784445837"/>
</svg>
