<?xml version="1.0" ?>
<svg height="140" width="140" xmlns="http://www.w3.org/2000/svg">
  <path d="M 88.58305931091309, 1.8158068656921387 Q 88.33611688826409, 2.746830974277528, 87.94367302753415, 3.9958107317737586 " fill="none" id="curve_1" stroke="#000000" stroke-linecap="round" stroke-linejoin="round" stroke-width="5.323351395918234"/>
  <path d="M 87.94367302753415, 3.9958107317737586 Q 88.44786932987958, 5.044846050297808, 88.52778265956906, 33.481827780796806 " fill="none" id="curve_1" stroke="#000000" stroke-linecap="round" stroke-linejoin="round" stroke-width="3.803308268728946"/>
  <path d="M 88.52778265956906, 33.481827780796806 Q 88.48747644867744, 42.11250837962797, 88.32514144096656, 66.78338315431658 " fill="none" id="curve_1" stroke="#000000" stroke-linecap="round" stroke-linejoin="round" stroke-width="4.370327419992247"/>
  <path d="M 88.32514144096656, 66.78338315431658 Q 88.30681623546789, 72.67363800733301, 88.26631241509386, 97.10396562865665 " fill="none" id="curve_1" stroke="#000000" stroke-linecap="round" stroke-linejoin="round" stroke-width="4.466656299615976"/>
  <path d="M 88.26631241509386, 97.10396562865665 Q 88.30542052995916, 103.05927125535216, 88.38849100393026, 126.8606839923009 " fill="none" id="curve_1" stroke="#000000" stroke-linecap="round" stroke-linejoin="round" stroke-width="4.29174313993804"/>
  <path d="M 88.38849100393026, 126.8606839923009 Q 88.36979307693038, 135.2934064938421, 88.302633421014, 138.4871692644651 " fill="none" id="curve_1" stroke="#000000" stroke-linecap="round" stroke-linejoin="round" stroke-width="4.284816666566025"/>
  <path d="M 88.302633421014, 138.4871692644651 Q 88.07523060300069, 138.19520309573036, 87.59197563980882, 137.96567760751967 " fill="none" id="curve_1" stroke="#000000" stroke-linecap="round" stroke-linejoin="round" stroke-width="2.5768560042114608"/>
  <path d="M 46.70914440885651, 99.38345879338954 Q 43.137634375481554, 105.0052239120825, 36.00566757810787, 109.1880987673905 " fill="none" id="curve_2" stroke="#000000" stroke-linecap="round" stroke-linejoin="round" stroke-width="4.855313640297754"/>
  <path d="M 36.00566757810787, 109.1880987673905 Q 23.235588797667262, 108.768614971737, 21.874360610482558, 98.05340820389979 " fill="none" id="curve_2" stroke="#000000" stroke-linecap="round" stroke-linejoin="round" stroke-width="6.620989181134778"/>
  <path d="M 21.874360610482558, 98.05340820389979 Q 22.648894215374646, 81.50526860691733, 30.300896356886106, 74.3389678006186 " fill="none" id="curve_2" stroke="#000000" stroke-linecap="round" stroke-linejoin="round" stroke-width="5.939178927483689"/>
  <path d="M 30.300896356886106, 74.3389678006186 Q 36.75370284834226, 69.29459777752197, 44.73149531045725, 63.26787111668054 " fill="none" id="curve_2" stroke="#000000" stroke-linecap="round" stroke-linejoin="round" stroke-width="4.370461435554708"/>
  <path d="M 44.73149531045725, 63.26787111668054 Q 53.682948776908546, 63.80049124116045, 54.41776001455544, 72.11164498076076 " fill="none" id="curve_2" stroke="#000000" stroke-linecap="round" stroke-linejoin="round" stroke-width="5.4579778076821395"/>
  <path d="M 54.41776001455544, 72.11164498076076 Q 53.13383971308434, 90.7264566180315, 47.04231889814046, 98.70869046560402 " fill="none" id="curve_2" stroke="#000000" stroke-linecap="round" stroke-linejoin="round" stroke-width="4.580433488436921"/>
  <path d="M 52.885258907010616, 73.32111027634932 Q 52.043332471712084, 71.38471173700161, 51.36774175648189, 65.96959968782096 " fill="none" id="curve_3" stroke="#000000" stroke-linecap="round" stroke-linejoin="round" stroke-width="2.922487856747574"/>
  <path d="M 49.19774489110541, 98.44206086951374 Q 51.015534256786765, 88.34808136346992, 54.11846144465965, 71.48749581300578 " fill="none" id="curve_4" stroke="#000000" stroke-linecap="round" stroke-linejoin="round" stroke-width="3.028989117214854"/>
  <path d="M 36.96671390651494, 107.07549973462389 Q 28.471827584672802, 106.81537654468336, 26.381068756385623, 103.93967698454661 " fill="none" id="curve_5" stroke="#000000" stroke-linecap="round" stroke-linejoin="round" stroke-width="3.360854538224101"/>
  <path d="M 47.79613279731505, 63.9142233527723 Q 38.35962702747923, 64.52111150978169, 35.744066305779114, 69.27790750685715 " fill="none" id="curve_9" stroke="#000000" stroke-linecap="round" stroke-linejoin="round" stroke-width="2.747874554599327"/>
  <path d="M 51.852726796562045, 87.34530049708557 Q 48.49671717141442, 95.83167357295756, 41.11017357596039, 104.40509757360296 " fill="none" id="curve_14" stroke="#000000" stroke-linecap="round" stroke-linejoin="round" stroke-width="2.5050799803542145"/>
  <path d="M 27.500739429902758, 104.74986605074396 Q 23.490271684277893, 102.32159786516515, 21.15681354353713, 89.78174120876143 " fill="none" id="curve_18" stroke="#000000" stroke-linecap="round" stroke-linejoin="round" stroke-width="2.5415886503866854"/>
  <path d="M 86.07524218232646, 2.2379673509574225 Q 87.66211284697306, 2.3609271394575604, 88.73602079965512, 2.7217205462352547 " fill="none" id="curve_25" stroke="#000000" stroke-linecap="round" stroke-linejoin="round" stroke-width="4.307026207129538"/>
  <path d="M 87.36910574131768, 25.90522761912307 Q 88.24314820475725, 25.126825375757527, 88.77247931244402, 20.8680361619649 " fill="none" id="curve_26" stroke="#000000" stroke-linecap="round" stroke-linejoin="round" stroke-width="2.2921640337220435"/>
  <path d="M 87.09311122441758, 31.439532695907484 Q 87.54855908750916, 29.631262618505513, 88.1914228347356, 26.922823134186846 " fill="none" id="curve_28" stroke="#000000" stroke-linecap="round" stroke-linejoin="round" stroke-width="2.3066028863597223"/>
  <path d="M 86.21423292054152, 1.8249126314248585 Q 87.04318036299885, 1.8956240428893874, 88.11916503739972, 2.0072745678608075 " fill="none" id="curve_29" stroke="#000000" stroke-linecap="round" stroke-linejoin="round" stroke-width="3.0491217420355703"/>
  <path d="M 87.43443745531522, 48.02181495656818 Q 87.3538730814392, 61.42540582503521, 86.99127620837056, 68.00508536025026 " fill="none" id="curve_33" stroke="#000000" stroke-linecap="round" stroke-linejoin="round" stroke-width="1.7117586622192347"/>
  <path d="M 48.63339526366118, 92.974809245327 Q 48.99125908247927, 90.74874122243203, 50.15564097870793, 88.99535349517721 " fill="none" id="curve_39" stroke="#000000" stroke-linecap="round" stroke-linejoin="round" stroke-width="3.3937565836930603"/>
  <path d="M 35.277978355017964, 73.27842380570428 Q 35.72829211411344, 72.85882936296446, 36.272248211184866, 71.80336115711066 " fill="none" id="curve_42" stroke="#000000" stroke-linecap="round" stroke-linejoin="round" stroke-width="3.5157709089340887"/>
  <path d="M 52.55208363415141, 64.11728995662094 Q 49.83142969659485, 64.10179939712997, 42.121214391222566, 64.08360484788334 " fill="none" id="curve_58" stroke="#000000" stroke-linecap="round" stroke-linejoin="round" stroke-width="2.136002637780459"/>
  <path d="M 87.31773311625648, 45.68887429373797 Q 87.70366945211875, 34.1817974627874, 89.66414825529596, 26.59714297359306 " fill="none" id="curve_73" stroke="#000000" stroke-linecap="round" stroke-linejoin="round" stroke-width="1.92452214860254"/>
  <path d="M 87.73598584687177, 2.3467365862002616 Q 88.16691371387248, 1.9720710766062102, 89.13608978419198, 1.6629950827682016 " fill="none" id="curve_74" stroke="#000000" stroke-linecap="round" stroke-linejoin="round" stroke-width="2.365303878104557"/>
  <path d="M 26.012325985851763, 99.88442839494125 Q 22.949771264974718, 96.30328121688443, 19.374605313483706, 87.36744437999343 " fill="none" id="curve_81" stroke="#000000" stroke-linecap="round" stroke-linejoin="round" stroke-width="2.54901279809295"/>
  <path d="M 55.3396899878844, 79.54336984716417 Q 54.65294289936123, 78.72880786105681, 52.81017972446031, 77.99154987782654 " fill="none" id="curve_96" stroke="#000000" stroke-linecap="round" stroke-linejoin="round" stroke-width="3.3708294016227405"/>
  <path d="M 36.374411352160784, 66.787246031125 Q 38.058691210017834, 65.06513611311927, 46.62551721704911, 64.28065468859495 " fill="none" id="curve_98" stroke="#000000" stroke-linecap="round" stroke-linejoin="round" stroke-width="2.5712015538950053"/>
  <path d="M 51.93867958979909, 73.78754554132249 Q 52.074621198996965, 73.53844206794105, 52.23247880575805, 72.98203154251388 " fill="none" id="curve_114" stroke="#000000" stroke-linecap="round" stroke-linejoin="round" stroke-width="2.9667527877263526"/>
  <path d="M 39.84875840988023, 107.7667294309816 Q 39.82696097777053, 107.08472114680394, 39.796740368329154, 105.8890448834481 " fill="none" id="curve_149" stroke="#000000" stroke-linecap="round" stroke-linejoin="round" stroke-width="4.262159795815786"/>
  <path d="M 86.68225726052222, 2.140986145707572 Q 86.54829031876983, 1.818947477999315, 86.06934165658708, 1.5669990625395356 " fill="none" id="curve_193" stroke="#000000" stroke-linecap="round" stroke-linejoin="round" stroke-width="2.4508758461440703"/>
</svg>
