<?xml version="1.0" ?>
<svg height="140" width="140" xmlns="http://www.w3.org/2000/svg">
  <path d="M 60.663578033447266, 112.7559986114502 Q 60.268480079200025, 117.76141294884344, 51.19183915889789, 118.63359876514573 " fill="none" id="curve_1" stroke="#000000" stroke-linecap="round" stroke-linejoin="round" stroke-width="4.3005078936244265"/>
  <path d="M 51.19183915889789, 118.63359876514573 Q 45.7972076007039, 118.64326620886719, 32.92066720661508, 118.65762928132887 " fill="none" id="curve_1" stroke="#000000" stroke-linecap="round" stroke-linejoin="round" stroke-width="3.5276005618117012"/>
  <path d="M 32.92066720661508, 118.65762928132887 Q 25.448649091565663, 117.08105184649123, 22.51630942620382, 109.02616133853097 " fill="none" id="curve_1" stroke="#000000" stroke-linecap="round" stroke-linejoin="round" stroke-width="4.3472737849424625"/>
  <path d="M 22.51630942620382, 109.02616133853097 Q 20.701672217474655, 107.16679114082115, 20.104316326411123, 92.09413834752776 " fill="none" id="curve_1" stroke="#000000" stroke-linecap="round" stroke-linejoin="round" stroke-width="4.692585147523644"/>
  <path d="M 20.104316326411123, 92.09413834752776 Q 20.431862817145817, 76.80095657554247, 24.080905900080804, 68.00056974538137 " fill="none" id="curve_1" stroke="#000000" stroke-linecap="round" stroke-linejoin="round" stroke-width="4.731812532664493"/>
  <path d="M 24.080905900080804, 68.00056974538137 Q 27.15374604073341, 56.851501538850805, 40.58353269371601, 44.411069280755925 " fill="none" id="curve_1" stroke="#000000" stroke-linecap="round" stroke-linejoin="round" stroke-width="5.598463561812366"/>
  <path d="M 40.58353269371601, 44.411069280755925 Q 45.96524665111294, 40.088677736349425, 55.67020696471487, 36.97497063538692 " fill="none" id="curve_1" stroke="#000000" stroke-linecap="round" stroke-linejoin="round" stroke-width="6.318039145412026"/>
  <path d="M 55.67020696471487, 36.97497063538692 Q 70.10543427960738, 39.276206925297146, 75.13554803053844, 68.18109840768187 " fill="none" id="curve_1" stroke="#000000" stroke-linecap="round" stroke-linejoin="round" stroke-width="4.8804690839725"/>
  <path d="M 75.13554803053844, 68.18109840768187 Q 74.47642744374053, 91.41282557730138, 64.31604751087343, 107.11876873492113 " fill="none" id="curve_1" stroke="#000000" stroke-linecap="round" stroke-linejoin="round" stroke-width="4.033176505989108"/>
  <path d="M 64.31604751087343, 107.11876873492113 Q 63.23399960944522, 113.03840501423657, 59.53755115359689, 115.62545270984481 " fill="none" id="curve_1" stroke="#000000" stroke-linecap="round" stroke-linejoin="round" stroke-width="3.5590349817843587"/>
  <path d="M 71.01142968501078, 48.098190666698954 Q 72.30770806258433, 51.521606715102905, 73.42234378246383, 57.86213475002273 " fill="none" id="curve_7" stroke="#000000" stroke-linecap="round" stroke-linejoin="round" stroke-width="2.444314001813349"/>
  <path d="M 45.23840944950656, 39.998705080876285 Q 36.98400248386769, 44.85896380271513, 27.66929750276173, 57.02593378231457 " fill="none" id="curve_14" stroke="#000000" stroke-linecap="round" stroke-linejoin="round" stroke-width="2.9516858650137046"/>
  <path d="M 64.23105186937755, 44.38855129144825 Q 64.70801100528267, 45.539676517261775, 66.06974429740792, 46.48036094522778 " fill="none" id="curve_15" stroke="#000000" stroke-linecap="round" stroke-linejoin="round" stroke-width="3.614678439143687"/>
  <path d="M 72.80885873088928, 64.8838840708536 Q 72.67792979076478, 58.93662004312983, 72.27601480481015, 55.610341473257684 " fill="none" id="curve_16" stroke="#000000" stroke-linecap="round" stroke-linejoin="round" stroke-width="3.352520856951801"/>
  <path d="M 23.489823039268998, 64.31113730462923 Q 23.388442906952466, 66.12044490457502, 23.226554729166068, 69.42538117089026 " fill="none" id="curve_18" stroke="#000000" stroke-linecap="round" stroke-linejoin="round" stroke-width="2.25420754217652"/>
  <path d="M 31.121802952317047, 117.15836245281962 Q 31.299992196576945, 117.59500608341617, 31.737852201280734, 118.01095580134917 " fill="none" id="curve_20" stroke="#000000" stroke-linecap="round" stroke-linejoin="round" stroke-width="2.9311043704431836"/>
  <path d="M 74.76716739242693, 55.88733806309119 Q 73.95067583552441, 56.71751204125974, 72.21594675412712, 57.73772591618326 " fill="none" id="curve_35" stroke="#000000" stroke-linecap="round" stroke-linejoin="round" stroke-width="3.1022444951756873"/>
  <path d="M 60.97655312994796, 36.91883124760753 Q 59.61629817395563, 36.64107706073299, 48.599729340156635, 36.5426040342136 " fill="none" id="curve_36" stroke="#000000" stroke-linecap="round" stroke-linejoin="round" stroke-width="2.4522848717905505"/>
  <path d="M 53.21174643898283, 118.22795095069283 Q 57.38812045811547, 116.09847820038873, 61.81892498103166, 112.16067281205662 " fill="none" id="curve_43" stroke="#000000" stroke-linecap="round" stroke-linejoin="round" stroke-width="2.08838044065096"/>
  <path d="M 23.50426481389447, 115.41566530972737 Q 24.221224978851865, 114.18764169880734, 24.61064085485428, 108.45691849190364 " fill="none" id="curve_45" stroke="#000000" stroke-linecap="round" stroke-linejoin="round" stroke-width="2.583131154233935"/>
  <path d="M 33.55092361144925, 117.41821805459563 Q 32.56322620778695, 117.27472069953957, 31.068921894521264, 117.10470459991343 " fill="none" id="curve_46" stroke="#000000" stroke-linecap="round" stroke-linejoin="round" stroke-width="3.9704240341263364"/>
  <path d="M 77.04931802601945, 78.14683414266577 Q 74.16720599104016, 76.9064915675254, 73.0969790515417, 65.15015362463707 " fill="none" id="curve_47" stroke="#000000" stroke-linecap="round" stroke-linejoin="round" stroke-width="2.858695388824011"/>
  <path d="M 61.22610050357191, 111.00564541113947 Q 62.407636898097834, 110.1264700536868, 63.642434059973844, 108.27646397715162 " fill="none" id="curve_64" stroke="#000000" stroke-linecap="round" stroke-linejoin="round" stroke-width="2.4194828960747383"/>
  <path d="M 89.76641569864516, 1.8585422572670396 Q 89.7453694903867, 2.0514010967264964, 89.69795457905363, 2.346925491712065 " fill="none" id="curve_108" stroke="#000000" stroke-linecap="round" stroke-linejoin="round" stroke-width="1.856604862373282"/>
  <path d="M 75.55444853605454, 64.45797870632748 Q 73.16512865491234, 61.37264048850917, 68.31088994548134, 55.94079824286376 " fill="none" id="curve_162" stroke="#000000" stroke-linecap="round" stroke-linejoin="round" stroke-width="2.161223984898905"/>
</svg>
