<?xml version="1.0" ?>
<svg height="140" width="140" xmlns="http://www.w3.org/2000/svg">
  <path d="M 36.63230514526367, 43.79077911376953 Q 36.40200269079199, 43.394085423691536, 35.99958504938844, 42.61411355546102 " fill="none" id="curve_1" stroke="#000000" stroke-linecap="round" stroke-linejoin="round" stroke-width="10.664621196934215"/>
  <path d="M 35.99958504938844, 42.61411355546102 Q 32.66893328258296, 48.42300621640784, 27.024413409209046, 57.3204357141839 " fill="none" id="curve_1" stroke="#000000" stroke-linecap="round" stroke-linejoin="round" stroke-width="4.620137621260458"/>
  <path d="M 27.024413409209046, 57.3204357141839 Q 17.4069050232468, 61.750911270493724, 8.144859281261716, 91.42110140456131 " fill="none" id="curve_1" stroke="#000000" stroke-linecap="round" stroke-linejoin="round" stroke-width="3.4089062860669017"/>
  <path d="M 8.144859281261716, 91.42110140456131 Q 8.949450387581388, 121.47596044493223, 29.4470394001666, 131.97229204989216 " fill="none" id="curve_1" stroke="#000000" stroke-linecap="round" stroke-linejoin="round" stroke-width="4.353275351926307"/>
  <path d="M 29.4470394001666, 131.97229204989216 Q 30.127212371918837, 134.38162632138093, 40.53603502379655, 134.68382165346216 " fill="none" id="curve_1" stroke="#000000" stroke-linecap="round" stroke-linejoin="round" stroke-width="4.4450308486625865"/>
  <path d="M 40.53603502379655, 134.68382165346216 Q 50.035978197166926, 132.27745363899942, 53.31905553920424, 119.39074312393507 " fill="none" id="curve_1" stroke="#000000" stroke-linecap="round" stroke-linejoin="round" stroke-width="3.869249766807763"/>
  <path d="M 15.150369126807643, 117.04474679324333 Q 9.893751793015674, 115.34183167054988, 7.227524275328573, 106.7763994117881 " fill="none" id="curve_3" stroke="#000000" stroke-linecap="round" stroke-linejoin="round" stroke-width="2.8553957331104107"/>
  <path d="M 32.145516600239034, 133.62729358099446 Q 23.99024480980145, 130.6486825429337, 17.393021183547326, 121.5228568788654 " fill="none" id="curve_5" stroke="#000000" stroke-linecap="round" stroke-linejoin="round" stroke-width="3.633502195114277"/>
  <path d="M 47.696854370960125, 130.29791267750662 Q 46.47612357754554, 131.29097180977396, 45.0746381864315, 132.3993251959022 " fill="none" id="curve_7" stroke="#000000" stroke-linecap="round" stroke-linejoin="round" stroke-width="6.341830710682905"/>
  <path d="M 19.015828397442725, 65.95941177443407 Q 20.966978782315014, 64.94403980677126, 23.516455367486735, 63.69994581364306 " fill="none" id="curve_10" stroke="#000000" stroke-linecap="round" stroke-linejoin="round" stroke-width="5.405540478388323"/>
  <path d="M 51.27725631245262, 40.35370078480845 Q 51.105091808722236, 39.80195362055044, 50.847112694029214, 39.067152652999255 " fill="none" id="curve_11" stroke="#000000" stroke-linecap="round" stroke-linejoin="round" stroke-width="3.21121372400349"/>
  <path d="M 37.5623254776001, 38.321197509765625 Q 39.185027990221954, 39.13412092014882, 40.646902503053866, 41.17606268403671 " fill="none" id="curve_25" stroke="#000000" stroke-linecap="round" stroke-linejoin="round" stroke-width="3.231481333240761"/>
  <path d="M 31.84277057857077, 54.718217969048624 Q 30.665167776743026, 51.42473079484106, 29.32180598608226, 44.9521211082977 " fill="none" id="curve_27" stroke="#000000" stroke-linecap="round" stroke-linejoin="round" stroke-width="3.162932054848808"/>
  <path d="M 20.535243569805267, 62.135394306985845 Q 18.96096813328059, 64.58783364257116, 16.128136315417354, 66.36539215421195 " fill="none" id="curve_28" stroke="#000000" stroke-linecap="round" stroke-linejoin="round" stroke-width="3.9615598338722364"/>
  <path d="M 24.509444177855386, 56.14813436132634 Q 24.42524672933191, 56.4392552828803, 24.345359973694404, 57.161600332753295 " fill="none" id="curve_29" stroke="#000000" stroke-linecap="round" stroke-linejoin="round" stroke-width="3.2551839417620307"/>
  <path d="M 37.418425998996334, 136.07963201475616 Q 31.37271525355878, 134.9912558260875, 27.505620497705088, 131.57388397682507 " fill="none" id="curve_33" stroke="#000000" stroke-linecap="round" stroke-linejoin="round" stroke-width="3.524984009111307"/>
  <path d="M 27.505620497705088, 131.57388397682507 Q 23.607521349001733, 127.40718207897274, 18.568964092066388, 121.03409954880054 " fill="none" id="curve_33" stroke="#000000" stroke-linecap="round" stroke-linejoin="round" stroke-width="3.059746577903532"/>
  <path d="M 54.440120171731174, 117.24708035749225 Q 54.42597005474526, 117.79872706516907, 54.40513092547623, 118.71863691434683 " fill="none" id="curve_34" stroke="#000000" stroke-linecap="round" stroke-linejoin="round" stroke-width="2.465316458701632"/>
  <path d="M 89.3312355858809, 138.57130381763474 Q 89.360031336693, 138.7349911001534, 89.4131150828031, 138.95349642586314 " fill="none" id="curve_43" stroke="#000000" stroke-linecap="round" stroke-linejoin="round" stroke-width="1.8303175657823207"/>
  <path d="M 8.005133846736264, 104.28459112640446 Q 7.512865349867575, 103.97266663842638, 7.404681054787092, 99.4725075396959 " fill="none" id="curve_58" stroke="#000000" stroke-linecap="round" stroke-linejoin="round" stroke-width="2.7045207979886583"/>
  <path d="M 15.085910364760512, 71.22297182417694 Q 12.29484701588189, 73.10252246684378, 10.914019717638343, 86.105692257062 " fill="none" id="curve_59" stroke="#000000" stroke-linecap="round" stroke-linejoin="round" stroke-width="2.0070536180387553"/>
  <path d="M 10.914019717638343, 86.105692257062 Q 10.77869539524343, 86.52766144274815, 10.294876789373234, 86.93092811373582 " fill="none" id="curve_59" stroke="#000000" stroke-linecap="round" stroke-linejoin="round" stroke-width="2.3282391937688263"/>
  <path d="M 43.488881565402735, 134.0066711846772 Q 45.70407581993752, 133.5603574148809, 47.181663494237924, 132.33641137098752 " fill="none" id="curve_63" stroke="#000000" stroke-linecap="round" stroke-linejoin="round" stroke-width="3.5842930131337556"/>
  <path d="M 24.965459834925433, 130.37452764455017 Q 25.652582708217697, 131.46317159671182, 28.302848046587698, 131.96565658191548 " fill="none" id="curve_72" stroke="#000000" stroke-linecap="round" stroke-linejoin="round" stroke-width="3.3495088274286036"/>
  <path d="M 13.179751267361706, 74.0934838186165 Q 13.587512673983536, 73.5317371621474, 14.32949433868796, 72.51112432815918 " fill="none" id="curve_74" stroke="#000000" stroke-linecap="round" stroke-linejoin="round" stroke-width="2.2278217022061426"/>
</svg>
