<?xml version="1.0" ?>
<svg height="140" width="140" xmlns="http://www.w3.org/2000/svg">
  <path d="M 60.18771743774414, 41.53001260757446 Q 57.2804947560328, 41.71368623234674, 48.235681355739416, 41.916339967843 " fill="none" id="curve_1" stroke="#000000" stroke-linecap="round" stroke-linejoin="round" stroke-width="5.733879770633347"/>
  <path d="M 48.235681355739416, 41.916339967843 Q 40.44758925060717, 44.06831883917028, 35.60871801210914, 50.59961529257106 " fill="none" id="curve_1" stroke="#000000" stroke-linecap="round" stroke-linejoin="round" stroke-width="6.453228984132382"/>
  <path d="M 35.60871801210914, 50.59961529257106 Q 30.95205111415384, 57.2389664035474, 23.790264240175794, 75.65197707871795 " fill="none" id="curve_1" stroke="#000000" stroke-linecap="round" stroke-linejoin="round" stroke-width="5.5678586710046"/>
  <path d="M 23.790264240175794, 75.65197707871795 Q 21.69213004525744, 85.53706645013763, 19.641993716645906, 103.07443272959007 " fill="none" id="curve_1" stroke="#000000" stroke-linecap="round" stroke-linejoin="round" stroke-width="4.991043474792813"/>
  <path d="M 19.641993716645906, 103.07443272959007 Q 22.169201954580863, 119.76377631883416, 33.374887036866184, 124.66082679073841 " fill="none" id="curve_1" stroke="#000000" stroke-linecap="round" stroke-linejoin="round" stroke-width="4.5251340311934545"/>
  <path d="M 33.374887036866184, 124.66082679073841 Q 58.177424440762266, 123.79489820113653, 65.40915828891184, 103.3030399047298 " fill="none" id="curve_1" stroke="#000000" stroke-linecap="round" stroke-linejoin="round" stroke-width="5.075629949523511"/>
  <path d="M 65.40915828891184, 103.3030399047298 Q 72.79806257908446, 94.94377189188575, 81.447543637459, 73.27624609284081 " fill="none" id="curve_1" stroke="#000000" stroke-linecap="round" stroke-linejoin="round" stroke-width="5.242716939618088"/>
  <path d="M 81.447543637459, 73.27624609284081 Q 81.3785893489874, 65.3121512460883, 81.03364747300962, 61.55666320872527 " fill="none" id="curve_1" stroke="#000000" stroke-linecap="round" stroke-linejoin="round" stroke-width="2.9548285552529086"/>
  <path d="M 72.36558212274599, 72.47430292246189 Q 72.2328416821769, 44.8441075036549, 56.764533729127486, 42.818742026003434 " fill="none" id="curve_2" stroke="#000000" stroke-linecap="round" stroke-linejoin="round" stroke-width="3.5697869972052976"/>
  <path d="M 74.77613740594671, 63.683211822339715 Q 74.2912353326308, 69.84743077992061, 72.3891728735174, 72.13155016312771 " fill="none" id="curve_3" stroke="#000000" stroke-linecap="round" stroke-linejoin="round" stroke-width="2.64613070863218"/>
  <path d="M 79.71909163711715, 60.167526378023354 Q 79.25750262383133, 60.24383297084707, 78.96579134754259, 60.48115609294998 " fill="none" id="curve_4" stroke="#000000" stroke-linecap="round" stroke-linejoin="round" stroke-width="4.01346422309102"/>
  <path d="M 78.96579134754259, 60.48115609294998 Q 67.54781084566588, 58.185011956854346, 61.67616447212079, 43.268520845651565 " fill="none" id="curve_4" stroke="#000000" stroke-linecap="round" stroke-linejoin="round" stroke-width="2.5765151352148394"/>
  <path d="M 59.36954981047013, 112.96265299651037 Q 52.8887941506026, 117.29318840764778, 42.794165054193535, 123.06911548746533 " fill="none" id="curve_7" stroke="#000000" stroke-linecap="round" stroke-linejoin="round" stroke-width="4.07519803534462"/>
  <path d="M 42.794165054193535, 123.06911548746533 Q 27.320810526021035, 122.86631137459342, 24.263644196012216, 120.96276441815793 " fill="none" id="curve_7" stroke="#000000" stroke-linecap="round" stroke-linejoin="round" stroke-width="2.8411377405552223"/>
  <path d="M 58.812100779184746, 111.65145462023384 Q 63.651848177322684, 107.91845001292569, 68.8334526562128, 98.76612041200016 " fill="none" id="curve_10" stroke="#000000" stroke-linecap="round" stroke-linejoin="round" stroke-width="3.1247494292366054"/>
  <path d="M 68.8334526562128, 98.76612041200016 Q 70.27187783891698, 90.44994156661582, 75.50759933260166, 85.42754343968197 " fill="none" id="curve_10" stroke="#000000" stroke-linecap="round" stroke-linejoin="round" stroke-width="2.752446853956045"/>
  <path d="M 70.59538940472181, 72.81509525818318 Q 70.60535207725863, 72.80142805682812, 70.61555108558825, 72.77467447762035 " fill="none" id="curve_11" stroke="#000000" stroke-linecap="round" stroke-linejoin="round" stroke-width="3.24768530939821"/>
  <path d="M 60.01269698984834, 42.08979193337541 Q 60.60942728653156, 46.77026081774294, 68.10214379972288, 47.50484641195589 " fill="none" id="curve_26" stroke="#000000" stroke-linecap="round" stroke-linejoin="round" stroke-width="2.910449024864727"/>
  <path d="M 36.549454740405466, 50.14675798026794 Q 31.380985745333838, 55.00215066446615, 26.274660784901386, 66.27404436989332 " fill="none" id="curve_29" stroke="#000000" stroke-linecap="round" stroke-linejoin="round" stroke-width="3.0471303581461595"/>
  <path d="M 52.50737573088458, 41.49124420406383 Q 53.76511396610098, 41.408803383316794, 55.466841496353354, 41.25720216940387 " fill="none" id="curve_32" stroke="#000000" stroke-linecap="round" stroke-linejoin="round" stroke-width="3.7697776694704794"/>
  <path d="M 69.19562734979866, 99.21482493363271 Q 64.0970289115455, 108.12684104611884, 48.008875441251604, 121.7493233294251 " fill="none" id="curve_41" stroke="#000000" stroke-linecap="round" stroke-linejoin="round" stroke-width="2.364992328012057"/>
  <path d="M 42.2152554365028, 124.31820537420236 Q 45.35828283684705, 123.93362384406788, 47.90785004511775, 122.65649051598173 " fill="none" id="curve_42" stroke="#000000" stroke-linecap="round" stroke-linejoin="round" stroke-width="3.9853957002519054"/>
  <path d="M 23.87709058582061, 105.2987198654748 Q 21.82167274937645, 105.40187126876812, 19.784299359723224, 105.64096487431775 " fill="none" id="curve_46" stroke="#000000" stroke-linecap="round" stroke-linejoin="round" stroke-width="3.6879310126287073"/>
  <path d="M 35.01959160438769, 48.63195300499197 Q 35.11287143891574, 52.52259737657973, 35.39034813757869, 55.003100242789216 " fill="none" id="curve_48" stroke="#000000" stroke-linecap="round" stroke-linejoin="round" stroke-width="3.955539265531551"/>
  <path d="M 71.01773253698374, 93.66697679571048 Q 68.57336338470719, 99.91639844053783, 64.1273623216257, 106.73712799307364 " fill="none" id="curve_57" stroke="#000000" stroke-linecap="round" stroke-linejoin="round" stroke-width="3.2085170432284777"/>
  <path d="M 70.4829322019802, 93.37097136243167 Q 68.1117357232645, 101.55684948231674, 61.87506976873007, 108.7791039876251 " fill="none" id="curve_58" stroke="#000000" stroke-linecap="round" stroke-linejoin="round" stroke-width="2.947808176428393"/>
  <path d="M 61.87506976873007, 108.7791039876251 Q 67.80219004724664, 104.46303142651242, 72.2960979454435, 90.26306884851462 " fill="none" id="curve_58" stroke="#000000" stroke-linecap="round" stroke-linejoin="round" stroke-width="2.2361887856534226"/>
  <path d="M 72.2960979454435, 90.26306884851462 Q 68.92125183951732, 96.0407668525647, 63.85533715608574, 104.73924870962101 " fill="none" id="curve_58" stroke="#000000" stroke-linecap="round" stroke-linejoin="round" stroke-width="3.1339060933652805"/>
  <path d="M 81.54839762454345, 65.49586382607822 Q 81.1322472002179, 64.63038241773215, 80.13906931647197, 63.505223364485346 " fill="none" id="curve_86" stroke="#000000" stroke-linecap="round" stroke-linejoin="round" stroke-width="2.8345537669059016"/>
  <path d="M 23.278733427135773, 83.12237676083092 Q 24.580046718863098, 79.98319399928019, 26.31384489105789, 76.57993994029965 " fill="none" id="curve_116" stroke="#000000" stroke-linecap="round" stroke-linejoin="round" stroke-width="2.7991569141857373"/>
  <path d="M 65.67187527151218, 48.49429314629754 Q 60.950082854595564, 45.59369614780496, 53.51290300371175, 40.29030823550753 " fill="none" id="curve_133" stroke="#000000" stroke-linecap="round" stroke-linejoin="round" stroke-width="2.6192791139623397"/>
  <path d="M 80.02850546237642, 72.11551418792806 Q 79.48818942224293, 75.10236550503618, 77.90137960313206, 77.35607775862826 " fill="none" id="curve_148" stroke="#000000" stroke-linecap="round" stroke-linejoin="round" stroke-width="2.811921340512956"/>
  <path d="M 26.06643042274615, 66.89249671643302 Q 30.034469974627072, 66.62423166836429, 31.109975889812283, 64.64930334507538 " fill="none" id="curve_163" stroke="#000000" stroke-linecap="round" stroke-linejoin="round" stroke-width="2.724164807798587"/>
  <path d="M 60.23878628379849, 108.89523876484868 Q 65.7783943183225, 106.92159980076552, 68.49978787446338, 101.31814101605833 " fill="none" id="curve_179" stroke="#000000" stroke-linecap="round" stroke-linejoin="round" stroke-width="3.462983095378531"/>
  <path d="M 18.861154457712345, 97.12092442652744 Q 18.88625478989041, 95.81836353452776, 18.962714458704312, 94.46547446522834 " fill="none" id="curve_187" stroke="#000000" stroke-linecap="round" stroke-linejoin="round" stroke-width="3.1840412786054295"/>
</svg>
