<?xml version="1.0" ?>
<svg height="140" width="140" xmlns="http://www.w3.org/2000/svg">
  <path d="M 89.41734923636213, 3.7533607098701527 Q 89.47142786684067, 2.415414528339512, 89.55536517988985, 0.48927916416256334 " fill="none" id="curve_2" stroke="#000000" stroke-linecap="round" stroke-linejoin="round" stroke-width="1.7447317162293356"/>
  <path d="M 71.9967588855408, 95.8800912188839 Q 72.69761944996061, 98.99726784378396, 73.27210894688727, 107.96623027334279 " fill="none" id="curve_6" stroke="#000000" stroke-linecap="round" stroke-linejoin="round" stroke-width="3.5236962599494475"/>
  <path d="M 73.27210894688727, 107.96623027334279 Q 71.42023215883104, 123.97157963546667, 49.95781018104958, 128.59729437475102 " fill="none" id="curve_6" stroke="#000000" stroke-linecap="round" stroke-linejoin="round" stroke-width="4.428970977242258"/>
  <path d="M 49.95781018104958, 128.59729437475102 Q 33.48886493665343, 126.33485153234608, 21.70583441455505, 110.94626117134924 " fill="none" id="curve_6" stroke="#000000" stroke-linecap="round" stroke-linejoin="round" stroke-width="5.122400388342002"/>
  <path d="M 21.70583441455505, 110.94626117134924 Q 18.287510158081645, 105.95339383902392, 15.413069298452232, 92.88600267592878 " fill="none" id="curve_6" stroke="#000000" stroke-linecap="round" stroke-linejoin="round" stroke-width="6.192169302211319"/>
  <path d="M 15.413069298452232, 92.88600267592878 Q 15.555717951560192, 74.089207270182, 30.38771410673, 72.52173343558118 " fill="none" id="curve_6" stroke="#000000" stroke-linecap="round" stroke-linejoin="round" stroke-width="3.9459803211059867"/>
  <path d="M 30.38771410673, 72.52173343558118 Q 39.942109313597584, 72.61710886853078, 40.46080655530381, 77.23325477689436 " fill="none" id="curve_6" stroke="#000000" stroke-linecap="round" stroke-linejoin="round" stroke-width="3.902919359600577"/>
  <path d="M 40.46080655530381, 77.23325477689436 Q 40.60392835900007, 83.46921881534107, 46.093726423653564, 84.11566475586157 " fill="none" id="curve_6" stroke="#000000" stroke-linecap="round" stroke-linejoin="round" stroke-width="4.152422606682115"/>
  <path d="M 46.093726423653564, 84.11566475586157 Q 28.106983566474522, 84.75227342314895, 20.272094578046435, 92.90092968884122 " fill="none" id="curve_6" stroke="#000000" stroke-linecap="round" stroke-linejoin="round" stroke-width="3.850997420638456"/>
  <path d="M 48.90554340992472, 84.72735563709095 Q 62.94184782645782, 89.3161424948811, 72.55517185794982, 96.63217596489447 " fill="none" id="curve_7" stroke="#000000" stroke-linecap="round" stroke-linejoin="round" stroke-width="4.058249800407475"/>
  <path d="M 72.55517185794982, 96.63217596489447 Q 74.03231630624504, 99.00343988869685, 75.04600865402405, 103.46480835023897 " fill="none" id="curve_7" stroke="#000000" stroke-linecap="round" stroke-linejoin="round" stroke-width="2.7816277955120725"/>
  <path d="M 23.555284873528137, 89.75144401031812 Q 21.271885278959715, 94.47154240376129, 17.519111845939232, 98.82674556261185 " fill="none" id="curve_9" stroke="#000000" stroke-linecap="round" stroke-linejoin="round" stroke-width="3.611126996807548"/>
  <path d="M 17.519111845939232, 98.82674556261185 Q 14.93793337739745, 94.81607197380477, 12.397654002120888, 86.83580487131059 " fill="none" id="curve_9" stroke="#000000" stroke-linecap="round" stroke-linejoin="round" stroke-width="3.8859560726205555"/>
  <path d="M 25.245357844258812, 75.53882325412377 Q 30.958488108591602, 74.14395659408996, 36.92530179062566, 72.16548937304208 " fill="none" id="curve_10" stroke="#000000" stroke-linecap="round" stroke-linejoin="round" stroke-width="3.3255534679023238"/>
  <path d="M 38.980787172004476, 86.65876045210283 Q 39.32536256755768, 83.9640099596342, 51.01707413439556, 83.7819732489838 " fill="none" id="curve_11" stroke="#000000" stroke-linecap="round" stroke-linejoin="round" stroke-width="2.862853349755005"/>
  <path d="M 28.906010384244652, 86.09606055751111 Q 25.990281559780765, 87.30501192234298, 22.54365459904688, 89.21175080619369 " fill="none" id="curve_12" stroke="#000000" stroke-linecap="round" stroke-linejoin="round" stroke-width="2.681606033654341"/>
  <path d="M 69.8906267612964, 112.71043964768754 Q 71.67245888939368, 110.90273239674553, 74.01042692021213, 106.21345492496026 " fill="none" id="curve_15" stroke="#000000" stroke-linecap="round" stroke-linejoin="round" stroke-width="2.9347778141259373"/>
  <path d="M 52.64324803325388, 126.55924150642679 Q 48.079584929198745, 126.5174412278846, 43.225239349909444, 126.43893343306905 " fill="none" id="curve_16" stroke="#000000" stroke-linecap="round" stroke-linejoin="round" stroke-width="2.958725682390792"/>
  <path d="M 43.225239349909444, 126.43893343306905 Q 33.61055758629127, 123.26585850347203, 22.521327583250283, 115.94862993105701 " fill="none" id="curve_16" stroke="#000000" stroke-linecap="round" stroke-linejoin="round" stroke-width="2.8597464191069473"/>
  <path d="M 13.989750752411204, 85.36149222366663 Q 14.780119476439348, 82.69964012303741, 17.153600815628156, 81.15383092203291 " fill="none" id="curve_17" stroke="#000000" stroke-linecap="round" stroke-linejoin="round" stroke-width="3.19502432198693"/>
  <path d="M 53.41088367366987, 85.2783367477611 Q 54.17237974761718, 85.54890980683787, 54.992900694727794, 86.1326349656726 " fill="none" id="curve_18" stroke="#000000" stroke-linecap="round" stroke-linejoin="round" stroke-width="3.584402092562733"/>
  <path d="M 15.347969515915501, 104.6803396006342 Q 16.156151882891972, 107.05208787283632, 19.23190535520425, 108.98483787893171 " fill="none" id="curve_23" stroke="#000000" stroke-linecap="round" stroke-linejoin="round" stroke-width="2.9121934552430857"/>
  <path d="M 31.600494397756982, 73.18696882056685 Q 32.08258225050105, 72.66664849611834, 33.46856805566904, 72.15763116836428 " fill="none" id="curve_24" stroke="#000000" stroke-linecap="round" stroke-linejoin="round" stroke-width="4.559055909596244"/>
  <path d="M 61.952125669446225, 122.33511529745527 Q 58.29958992700805, 123.0882549463607, 54.32852614851298, 125.68623465935609 " fill="none" id="curve_26" stroke="#000000" stroke-linecap="round" stroke-linejoin="round" stroke-width="2.4416331168071452"/>
  <path d="M 35.89318142297009, 122.1015732589709 Q 34.86662907596628, 119.8159166592002, 29.647994615266008, 118.82728026134185 " fill="none" id="curve_27" stroke="#000000" stroke-linecap="round" stroke-linejoin="round" stroke-width="2.3605756590646"/>
  <path d="M 16.51497480970097, 94.95208840040922 Q 19.160949907737024, 106.73636291490152, 29.91326998063346, 119.84786169443282 " fill="none" id="curve_28" stroke="#000000" stroke-linecap="round" stroke-linejoin="round" stroke-width="2.3423636951524465"/>
  <path d="M 62.954804960367916, 121.55965607022245 Q 69.2136968347939, 119.71579840248145, 71.4627758793995, 109.19088584328915 " fill="none" id="curve_29" stroke="#000000" stroke-linecap="round" stroke-linejoin="round" stroke-width="2.5044213435940472"/>
  <path d="M 69.68777818024756, 94.63575126673655 Q 70.09674415258516, 96.62345458529265, 70.84344302373086, 98.08587584746934 " fill="none" id="curve_30" stroke="#000000" stroke-linecap="round" stroke-linejoin="round" stroke-width="3.5233475339688725"/>
  <path d="M 69.85315614491563, 92.88189523294395 Q 69.89796740715501, 93.25082647530608, 69.95446428657874, 93.8581018674446 " fill="none" id="curve_31" stroke="#000000" stroke-linecap="round" stroke-linejoin="round" stroke-width="3.4050320577604896"/>
  <path d="M 54.66063397860434, 85.66507527913264 Q 53.42144383506286, 85.09715177003854, 50.58277419248999, 84.40666019476046 " fill="none" id="curve_32" stroke="#000000" stroke-linecap="round" stroke-linejoin="round" stroke-width="3.2926545325153054"/>
  <path d="M 37.31264405929513, 73.45117986657961 Q 36.93751728340305, 73.48371740858833, 35.94552727644984, 73.54157978020028 " fill="none" id="curve_38" stroke="#000000" stroke-linecap="round" stroke-linejoin="round" stroke-width="3.3020717604098646"/>
  <path d="M 32.61022237258533, 73.80850629324438 Q 35.383183391299035, 73.21667215784815, 38.557222715559504, 72.23061938139507 " fill="none" id="curve_58" stroke="#000000" stroke-linecap="round" stroke-linejoin="round" stroke-width="2.9150173759659115"/>
  <path d="M 39.188590866604954, 83.34348594537781 Q 39.223046505876326, 80.737207719656, 39.460585588508074, 79.99057295223248 " fill="none" id="curve_86" stroke="#000000" stroke-linecap="round" stroke-linejoin="round" stroke-width="2.3770911738560185"/>
  <path d="M 62.31254749918071, 92.28374891948215 Q 65.04972018113958, 92.69439606196023, 67.61306149520172, 93.63715901282735 " fill="none" id="curve_114" stroke="#000000" stroke-linecap="round" stroke-linejoin="round" stroke-width="1.4892391510712077"/>
  <path d="M 20.87293674326326, 90.19652843770888 Q 19.1930004294801, 93.33404452972566, 17.934182814962455, 101.6508296236375 " fill="none" id="curve_117" stroke="#000000" stroke-linecap="round" stroke-linejoin="round" stroke-width="2.624132193532775"/>
</svg>
