<?xml version="1.0" ?>
<svg height="140" width="140" xmlns="http://www.w3.org/2000/svg">
  <path d="M 63.358920097351074, 79.64126396179199 Q 62.53346009486637, 91.28126657397365, 53.172736903107534, 98.2404568248146 " fill="none" id="curve_1" stroke="#000000" stroke-linecap="round" stroke-linejoin="round" stroke-width="6.613486170130388"/>
  <path d="M 53.172736903107534, 98.2404568248146 Q 52.33507883545108, 102.74869571804989, 38.753983706863416, 103.15233494586171 " fill="none" id="curve_1" stroke="#000000" stroke-linecap="round" stroke-linejoin="round" stroke-width="5.663324497687321"/>
  <path d="M 38.753983706863416, 103.15233494586171 Q 28.653580375540855, 100.67779036722726, 24.044661037720594, 78.78060657854721 " fill="none" id="curve_1" stroke="#000000" stroke-linecap="round" stroke-linejoin="round" stroke-width="5.886624092386159"/>
  <path d="M 24.044661037720594, 78.78060657854721 Q 26.783407653846677, 69.10687985447453, 32.05666033257542, 51.57958912273536 " fill="none" id="curve_1" stroke="#000000" stroke-linecap="round" stroke-linejoin="round" stroke-width="5.585298647007336"/>
  <path d="M 32.05666033257542, 51.57958912273536 Q 40.29404684148278, 50.33780352714122, 43.79801858578468, 46.990194694350606 " fill="none" id="curve_1" stroke="#000000" stroke-linecap="round" stroke-linejoin="round" stroke-width="5.1773073299459025"/>
  <path d="M 43.79801858578468, 46.990194694350606 Q 61.903261701202695, 49.93165690497234, 65.77706889983736, 69.98511985808359 " fill="none" id="curve_1" stroke="#000000" stroke-linecap="round" stroke-linejoin="round" stroke-width="5.357385654348892"/>
  <path d="M 65.77706889983736, 69.98511985808359 Q 65.24933372347492, 82.18663129130285, 61.84672671237534, 86.83684638901951 " fill="none" id="curve_1" stroke="#000000" stroke-linecap="round" stroke-linejoin="round" stroke-width="3.946225871386997"/>
  <path d="M 88.27864412850859, 94.02323024079908 Q 89.52617670208708, 93.27457664911486, 89.66388745296986, 63.88796945554198 " fill="none" id="curve_2" stroke="#000000" stroke-linecap="round" stroke-linejoin="round" stroke-width="2.597389620044235"/>
  <path d="M 89.66388745296986, 63.88796945554198 Q 89.43253418667761, 62.079862536326964, 89.34804176052283, 42.46875473276064 " fill="none" id="curve_2" stroke="#000000" stroke-linecap="round" stroke-linejoin="round" stroke-width="2.130586969657932"/>
  <path d="M 89.34804176052283, 42.46875473276064 Q 89.34713946946202, 36.455826058734395, 89.34547474039805, 28.011968919652364 " fill="none" id="curve_2" stroke="#000000" stroke-linecap="round" stroke-linejoin="round" stroke-width="1.977512507754107"/>
  <path d="M 89.34547474039805, 28.011968919652364 Q 89.34536363356656, 22.518490953511847, 89.34517054038373, 14.222900227176634 " fill="none" id="curve_2" stroke="#000000" stroke-linecap="round" stroke-linejoin="round" stroke-width="1.9729913506663566"/>
  <path d="M 89.34517054038373, 14.222900227176634 Q 89.25807072079472, 10.058603860436758, 89.1596048886817, 1.2969890467952023 " fill="none" id="curve_2" stroke="#000000" stroke-linecap="round" stroke-linejoin="round" stroke-width="2.2023567516852784"/>
  <path d="M 89.1596048886817, 1.2969890467952023 Q 89.12553213874732, 1.368889166103939, 89.08118132742614, 1.4669616014280906 " fill="none" id="curve_2" stroke="#000000" stroke-linecap="round" stroke-linejoin="round" stroke-width="1.8210571419211257"/>
  <path d="M 29.330381958253206, 69.13582483658458 Q 27.64308256920797, 76.73733231870145, 23.978787198675448, 81.99016969002813 " fill="none" id="curve_8" stroke="#000000" stroke-linecap="round" stroke-linejoin="round" stroke-width="5.088905930278913"/>
  <path d="M 23.978787198675448, 81.99016969002813 Q 22.25611236088016, 81.45258332891738, 21.61688403665128, 78.86652980170331 " fill="none" id="curve_8" stroke="#000000" stroke-linecap="round" stroke-linejoin="round" stroke-width="4.150374833709033"/>
  <path d="M 28.0986701013496, 57.780242506942244 Q 26.99886295915168, 60.287599271950405, 26.248500559932012, 67.53047603517373 " fill="none" id="curve_9" stroke="#000000" stroke-linecap="round" stroke-linejoin="round" stroke-width="3.1664296114390855"/>
  <path d="M 54.59399278619156, 53.467435264537365 Q 60.36566852265546, 56.611185952273836, 64.45123019187331, 62.002386769543776 " fill="none" id="curve_10" stroke="#000000" stroke-linecap="round" stroke-linejoin="round" stroke-width="3.4493878605531187"/>
  <path d="M 90.17246112847434, 98.53851771261978 Q 89.70573252832529, 99.24818563394871, 89.65274247759137, 123.53914693707775 " fill="none" id="curve_11" stroke="#000000" stroke-linecap="round" stroke-linejoin="round" stroke-width="1.6123723763052469"/>
  <path d="M 89.65274247759137, 123.53914693707775 Q 89.51799265687498, 129.60074615995248, 89.39008868594827, 138.55264282696191 " fill="none" id="curve_11" stroke="#000000" stroke-linecap="round" stroke-linejoin="round" stroke-width="2.2684014301526756"/>
  <path d="M 89.39008868594827, 138.55264282696191 Q 89.22699043587991, 138.45306851626253, 88.81913364657807, 138.3879778651209 " fill="none" id="curve_11" stroke="#000000" stroke-linecap="round" stroke-linejoin="round" stroke-width="2.0339911386023726"/>
  <path d="M 60.14898146743239, 93.0859995689585 Q 59.61223396126285, 97.68779473509572, 52.677227458060734, 98.76445109189166 " fill="none" id="curve_13" stroke="#000000" stroke-linecap="round" stroke-linejoin="round" stroke-width="2.438019423635157"/>
  <path d="M 57.904305944935686, 92.74577451299868 Q 61.904310765205004, 88.6216844145816, 64.09442052157026, 74.33598734286218 " fill="none" id="curve_15" stroke="#000000" stroke-linecap="round" stroke-linejoin="round" stroke-width="3.8756429583801144"/>
  <path d="M 64.09442052157026, 74.33598734286218 Q 63.84301889593748, 60.00936381768112, 61.406088821541346, 56.2254515760647 " fill="none" id="curve_15" stroke="#000000" stroke-linecap="round" stroke-linejoin="round" stroke-width="2.4680778060782345"/>
  <path d="M 61.406088821541346, 56.2254515760647 Q 60.26877324929959, 54.95602078824973, 58.22432753687284, 52.98920193906888 " fill="none" id="curve_15" stroke="#000000" stroke-linecap="round" stroke-linejoin="round" stroke-width="4.16321400963129"/>
  <path d="M 25.11394502954089, 89.60609460645195 Q 24.818561248648205, 83.99261883671991, 24.081002907834108, 78.31714243949881 " fill="none" id="curve_18" stroke="#000000" stroke-linecap="round" stroke-linejoin="round" stroke-width="3.072736251527892"/>
  <path d="M 23.410847718280607, 79.0930327797228 Q 23.55369077310919, 84.07007345309778, 24.228822685559663, 86.6144046361828 " fill="none" id="curve_24" stroke="#000000" stroke-linecap="round" stroke-linejoin="round" stroke-width="4.068215511490662"/>
  <path d="M 24.228822685559663, 86.6144046361828 Q 25.09549515932842, 81.64202046386751, 27.35531938307256, 78.67256839691326 " fill="none" id="curve_24" stroke="#000000" stroke-linecap="round" stroke-linejoin="round" stroke-width="4.4152202994411"/>
  <path d="M 41.95323017232549, 49.01061831908285 Q 48.52678342696947, 49.30991803110248, 53.80239870584133, 50.38171178198285 " fill="none" id="curve_25" stroke="#000000" stroke-linecap="round" stroke-linejoin="round" stroke-width="2.502464274191283"/>
  <path d="M 63.848261116449095, 62.19804109598195 Q 61.375936961156626, 57.76180512422634, 55.15941170289979, 52.85964384392313 " fill="none" id="curve_26" stroke="#000000" stroke-linecap="round" stroke-linejoin="round" stroke-width="3.0609859983353838"/>
  <path d="M 65.40953804335959, 64.56623448443315 Q 64.58621419124569, 60.21003638410967, 59.10528341338292, 58.77483011520071 " fill="none" id="curve_41" stroke="#000000" stroke-linecap="round" stroke-linejoin="round" stroke-width="4.683540995499111"/>
  <path d="M 64.14064884185791, 85.64241886138916 Q 60.028328777298455, 88.80258009228918, 55.513653008133815, 95.27059942153073 " fill="none" id="curve_55" stroke="#000000" stroke-linecap="round" stroke-linejoin="round" stroke-width="4.135775236394726"/>
  <path d="M 24.52569848442113, 86.24389984911949 Q 23.29124676560599, 84.91415227568397, 21.70640337164642, 82.86530488252902 " fill="none" id="curve_56" stroke="#000000" stroke-linecap="round" stroke-linejoin="round" stroke-width="3.331756974176002"/>
  <path d="M 61.200058814848475, 91.0833927386168 Q 61.39318856000889, 86.47757995104658, 62.399512335065765, 83.29272457719043 " fill="none" id="curve_123" stroke="#000000" stroke-linecap="round" stroke-linejoin="round" stroke-width="2.775617544238135"/>
</svg>
