<?xml version="1.0" ?>
<svg height="140" width="140" xmlns="http://www.w3.org/2000/svg">
  <path d="M 72.68018341064453, 89.39155960083008 Q 70.74865054424367, 95.17518655393043, 67.00542064710704, 102.07054611664307 " fill="none" id="curve_1" stroke="#000000" stroke-linecap="round" stroke-linejoin="round" stroke-width="5.1048442415573945"/>
  <path d="M 67.00542064710704, 102.07054611664307 Q 62.00954591657897, 104.61859173400191, 51.75387317443557, 106.55341769939521 " fill="none" id="curve_1" stroke="#000000" stroke-linecap="round" stroke-linejoin="round" stroke-width="4.367822363890381"/>
  <path d="M 51.75387317443557, 106.55341769939521 Q 34.015696931959, 105.85718557334694, 24.9298868380227, 96.81344466388713 " fill="none" id="curve_1" stroke="#000000" stroke-linecap="round" stroke-linejoin="round" stroke-width="4.669687723066119"/>
  <path d="M 24.9298868380227, 96.81344466388713 Q 18.33992866450261, 94.74194582588667, 15.772464325102387, 78.08717991933025 " fill="none" id="curve_1" stroke="#000000" stroke-linecap="round" stroke-linejoin="round" stroke-width="4.0931733236642875"/>
  <path d="M 15.772464325102387, 78.08717991933025 Q 16.31483666382092, 61.84516629035322, 30.67133888282605, 59.164811240295165 " fill="none" id="curve_1" stroke="#000000" stroke-linecap="round" stroke-linejoin="round" stroke-width="4.877627980314951"/>
  <path d="M 30.67133888282605, 59.164811240295165 Q 50.31921320231386, 60.85401474991447, 60.26334771984391, 70.22358308974172 " fill="none" id="curve_1" stroke="#000000" stroke-linecap="round" stroke-linejoin="round" stroke-width="3.5722184740114726"/>
  <path d="M 60.26334771984391, 70.22358308974172 Q 67.33538239774025, 77.28698441322655, 72.43829290399205, 89.30988112833441 " fill="none" id="curve_1" stroke="#000000" stroke-linecap="round" stroke-linejoin="round" stroke-width="4.542389549712434"/>
  <path d="M 72.43829290399205, 89.30988112833441 Q 71.31009685880407, 96.68356155461903, 65.48473661485446, 98.50851882886285 " fill="none" id="curve_1" stroke="#000000" stroke-linecap="round" stroke-linejoin="round" stroke-width="4.0256172717439345"/>
  <path d="M 65.68910596973711, 76.3019634806988 Q 59.95123558731753, 71.58086545196569, 52.123424033879004, 62.902938668143314 " fill="none" id="curve_2" stroke="#000000" stroke-linecap="round" stroke-linejoin="round" stroke-width="3.414601420198681"/>
  <path d="M 52.123424033879004, 62.902938668143314 Q 46.467932464560064, 63.02226571644076, 40.99873542199022, 63.21110503196517 " fill="none" id="curve_2" stroke="#000000" stroke-linecap="round" stroke-linejoin="round" stroke-width="2.7836598920006503"/>
  <path d="M 17.040385359687765, 67.61624677729306 Q 16.16340239476678, 68.5452988572865, 15.683095023850662, 71.05738537800376 " fill="none" id="curve_3" stroke="#000000" stroke-linecap="round" stroke-linejoin="round" stroke-width="3.12309266135501"/>
  <path d="M 22.57019272790126, 93.74542466836277 Q 23.886144883596703, 94.22548251064168, 25.161206284624164, 95.24847033142203 " fill="none" id="curve_8" stroke="#000000" stroke-linecap="round" stroke-linejoin="round" stroke-width="3.230267364580093"/>
  <path d="M 55.05289989929924, 65.85132419252558 Q 56.709290838766535, 66.4050342967221, 59.228782266755005, 67.56821021605867 " fill="none" id="curve_12" stroke="#000000" stroke-linecap="round" stroke-linejoin="round" stroke-width="2.4815771829987328"/>
  <path d="M 71.59084253731835, 92.65201778181863 Q 71.41122181065155, 91.24062576044578, 71.1478467557075, 88.90429686709031 " fill="none" id="curve_16" stroke="#000000" stroke-linecap="round" stroke-linejoin="round" stroke-width="3.9756998143581024"/>
  <path d="M 39.87419891357422, 105.82766914367676 Q 38.29738840995968, 102.67891361158885, 31.5019226445894, 100.09570442290149 " fill="none" id="curve_30" stroke="#000000" stroke-linecap="round" stroke-linejoin="round" stroke-width="2.8386958010180505"/>
  <path d="M 55.583595151040704, 107.30418756221482 Q 57.214145398632105, 106.69860080711194, 59.33154099818947, 105.93017126154125 " fill="none" id="curve_31" stroke="#000000" stroke-linecap="round" stroke-linejoin="round" stroke-width="3.3354235959271725"/>
  <path d="M 62.81851552611145, 75.66876600207485 Q 65.50700606253713, 78.54909775825624, 69.77942687430128, 81.3461976846208 " fill="none" id="curve_32" stroke="#000000" stroke-linecap="round" stroke-linejoin="round" stroke-width="2.012762393881435"/>
  <path d="M 26.523809295131542, 60.27809547296907 Q 21.809038954101926, 62.85812623207329, 16.22112338569139, 67.88319322359294 " fill="none" id="curve_35" stroke="#000000" stroke-linecap="round" stroke-linejoin="round" stroke-width="2.9543383583064324"/>
  <path d="M 16.22112338569139, 67.88319322359294 Q 21.057816972532564, 63.355478825640475, 28.85550071330131, 58.45281723596992 " fill="none" id="curve_35" stroke="#000000" stroke-linecap="round" stroke-linejoin="round" stroke-width="2.8270832873628238"/>
  <path d="M 70.67256546020508, 92.69174194335938 Q 71.65622343532036, 92.91130471699465, 73.37110758708704, 93.2150079713991 " fill="none" id="curve_114" stroke="#000000" stroke-linecap="round" stroke-linejoin="round" stroke-width="3.5436656493776146"/>
  <path d="M 54.558015097036, 107.1628377535942 Q 49.16849436318055, 106.36012107639999, 40.41100929117836, 104.9587144335824 " fill="none" id="curve_118" stroke="#000000" stroke-linecap="round" stroke-linejoin="round" stroke-width="2.4495446271189674"/>
  <path d="M 72.01862224584374, 84.08855584675149 Q 72.50011318124152, 84.81466536776614, 73.05562668801477, 86.36643451817632 " fill="none" id="curve_133" stroke="#000000" stroke-linecap="round" stroke-linejoin="round" stroke-width="2.2519755120048215"/>
  <path d="M 21.860734702944637, 64.24534979031203 Q 24.386922180011627, 63.416482479689925, 25.936810188913018, 60.76011937657725 " fill="none" id="curve_135" stroke="#000000" stroke-linecap="round" stroke-linejoin="round" stroke-width="2.578689098794469"/>
  <path d="M 18.803854385574677, 81.79893368263438 Q 17.936678355829265, 82.44241323738865, 17.028262169258557, 84.16930702937056 " fill="none" id="curve_136" stroke="#000000" stroke-linecap="round" stroke-linejoin="round" stroke-width="2.2203796269316847"/>
</svg>
