<?xml version="1.0" ?>
<svg height="140" width="140" xmlns="http://www.w3.org/2000/svg">
  <path d="M 64.64430639284066, 82.26272552906639 Q 63.99597438746225, 75.38182667222114, 60.81164432562894, 67.27739591584069 " fill="none" id="curve_2" stroke="#000000" stroke-linecap="round" stroke-linejoin="round" stroke-width="4.899448114628471"/>
  <path d="M 60.81164432562894, 67.27739591584069 Q 58.636814813112025, 60.58871242306677, 55.09305732001977, 42.12172739348854 " fill="none" id="curve_2" stroke="#000000" stroke-linecap="round" stroke-linejoin="round" stroke-width="5.531423855609057"/>
  <path d="M 39.37964710383429, 42.14654460973549 Q 29.66351515473601, 47.212700754367326, 22.363879180738216, 69.49831286119232 " fill="none" id="curve_3" stroke="#000000" stroke-linecap="round" stroke-linejoin="round" stroke-width="5.029570347654551"/>
  <path d="M 22.363879180738216, 69.49831286119232 Q 22.576698393142507, 97.58288044654405, 29.471486115393986, 99.33510282952201 " fill="none" id="curve_3" stroke="#000000" stroke-linecap="round" stroke-linejoin="round" stroke-width="4.1108760776445665"/>
  <path d="M 29.471486115393986, 99.33510282952201 Q 49.83895484845311, 96.14630664945206, 63.26394937838014, 84.74852597410734 " fill="none" id="curve_3" stroke="#000000" stroke-linecap="round" stroke-linejoin="round" stroke-width="4.24222823379258"/>
  <path d="M 53.17242757321241, 53.03868523687427 Q 52.63477905945564, 43.07200766353448, 40.43657211506266, 41.44040819168133 " fill="none" id="curve_4" stroke="#000000" stroke-linecap="round" stroke-linejoin="round" stroke-width="3.9982119118307073"/>
  <path d="M 54.06207248535016, 39.02709053448808 Q 53.37897508009421, 39.23746331326783, 53.27001348802656, 43.07224235984201 " fill="none" id="curve_5" stroke="#000000" stroke-linecap="round" stroke-linejoin="round" stroke-width="4.427201508968755"/>
  <path d="M 51.00256111287192, 55.93078415173509 Q 51.198100219618816, 55.14942669534249, 51.46502568712552, 54.060830983416274 " fill="none" id="curve_6" stroke="#000000" stroke-linecap="round" stroke-linejoin="round" stroke-width="3.0874279018644577"/>
  <path d="M 89.79790033987324, 96.78464617729526 Q 89.73983085116949, 114.28606456233221, 89.4371905362507, 119.65875502617351 " fill="none" id="curve_8" stroke="#000000" stroke-linecap="round" stroke-linejoin="round" stroke-width="1.851781745050885"/>
  <path d="M 89.60218120202929, 138.08910809404972 Q 89.61922373046961, 137.88206570457794, 89.6354591719156, 137.46169090339234 " fill="none" id="curve_9" stroke="#000000" stroke-linecap="round" stroke-linejoin="round" stroke-width="2.221472553638587"/>
  <path d="M 89.18774967690638, 124.14939955044375 Q 89.38659941539986, 123.76901763375302, 89.62588393048941, 123.00968540475137 " fill="none" id="curve_10" stroke="#000000" stroke-linecap="round" stroke-linejoin="round" stroke-width="1.6899456853442374"/>
  <path d="M 89.81238382008453, 88.75613513554403 Q 89.58912008357423, 86.32490059138904, 89.41485154014573, 77.22883543912616 " fill="none" id="curve_11" stroke="#000000" stroke-linecap="round" stroke-linejoin="round" stroke-width="1.3831240764368131"/>
  <path d="M 63.57706056335893, 80.17895111277272 Q 62.750370102036946, 79.90685984170152, 62.22283771740603, 79.08052472420098 " fill="none" id="curve_12" stroke="#000000" stroke-linecap="round" stroke-linejoin="round" stroke-width="4.306998460907233"/>
  <path d="M 31.064171856367846, 45.97459350133965 Q 29.056729716936673, 52.029567529253846, 25.13400519884449, 57.871492168230525 " fill="none" id="curve_13" stroke="#000000" stroke-linecap="round" stroke-linejoin="round" stroke-width="3.063181656405515"/>
  <path d="M 44.50895738340339, 40.5146105538515 Q 38.79612425731974, 43.89187352899152, 30.969227107638766, 48.59193506588386 " fill="none" id="curve_15" stroke="#000000" stroke-linecap="round" stroke-linejoin="round" stroke-width="2.9137834965653204"/>
  <path d="M 21.38918574417257, 78.82005710081975 Q 21.84055257785684, 93.04745880886817, 27.11917520397035, 95.74194264258517 " fill="none" id="curve_17" stroke="#000000" stroke-linecap="round" stroke-linejoin="round" stroke-width="2.3718702948884376"/>
  <path d="M 32.69319515712761, 98.2668093509925 Q 39.71138512879872, 96.53882203721918, 49.310954297460526, 92.82977141077578 " fill="none" id="curve_18" stroke="#000000" stroke-linecap="round" stroke-linejoin="round" stroke-width="3.069171521343291"/>
  <path d="M 89.58473720875715, 3.4862199884029366 Q 89.59328629907907, 2.585981268072695, 89.60269571122977, 0.7518781467717184 " fill="none" id="curve_22" stroke="#000000" stroke-linecap="round" stroke-linejoin="round" stroke-width="2.2367001321661206"/>
  <path d="M 89.14328665178024, 39.38838316664519 Q 89.47597754323198, 39.46756358930345, 89.97932806917012, 39.635922254283386 " fill="none" id="curve_23" stroke="#000000" stroke-linecap="round" stroke-linejoin="round" stroke-width="2.0142704308319717"/>
  <path d="M 52.133900731421775, 48.07785029755766 Q 48.12971421033147, 46.26189425294764, 43.956543164730554, 42.224788160569986 " fill="none" id="curve_24" stroke="#000000" stroke-linecap="round" stroke-linejoin="round" stroke-width="2.6050456367591885"/>
  <path d="M 24.66617372585779, 73.14704876146462 Q 24.141202175753737, 72.32838558294787, 23.388858407229762, 71.10208541183343 " fill="none" id="curve_25" stroke="#000000" stroke-linecap="round" stroke-linejoin="round" stroke-width="3.8452678068225024"/>
  <path d="M 29.30372244584661, 97.52996371366288 Q 29.64753156359311, 97.65509690468278, 30.190900779546762, 97.8659619298729 " fill="none" id="curve_26" stroke="#000000" stroke-linecap="round" stroke-linejoin="round" stroke-width="4.235635206612632"/>
  <path d="M 57.98718121210703, 89.0667441929876 Q 50.80552154948949, 90.3793049869575, 44.79635024798427, 93.66497741946183 " fill="none" id="curve_27" stroke="#000000" stroke-linecap="round" stroke-linejoin="round" stroke-width="3.3313158771181466"/>
  <path d="M 33.02990468665914, 98.26059393442974 Q 30.493313053562428, 97.40354059286918, 27.82505184868786, 96.01196218579173 " fill="none" id="curve_28" stroke="#000000" stroke-linecap="round" stroke-linejoin="round" stroke-width="3.3147258656300074"/>
  <path d="M 89.49362117161596, 52.65537755358765 Q 89.57949893104887, 52.967936991816714, 89.74066071718923, 53.50699095265261 " fill="none" id="curve_46" stroke="#000000" stroke-linecap="round" stroke-linejoin="round" stroke-width="1.6983533723233446"/>
  <path d="M 42.631534576416016, 42.14294624328613 Q 35.25358425079345, 42.93172172875149, 31.979526660544707, 47.82023636290159 " fill="none" id="curve_60" stroke="#000000" stroke-linecap="round" stroke-linejoin="round" stroke-width="3.2679658197751627"/>
  <path d="M 31.979526660544707, 47.82023636290159 Q 34.911304130675056, 45.519507526713994, 38.71392291823548, 42.79748950878222 " fill="none" id="curve_60" stroke="#000000" stroke-linecap="round" stroke-linejoin="round" stroke-width="2.8373754761804295"/>
  <path d="M 89.52772406414667, 76.06486486372262 Q 89.59639854123968, 75.93271111684155, 89.69199003588382, 75.65860562985067 " fill="none" id="curve_88" stroke="#000000" stroke-linecap="round" stroke-linejoin="round" stroke-width="1.5873041774182577"/>
  <path d="M 89.65876397849206, 95.50668941313137 Q 89.71022138779394, 95.23860235692057, 89.8136487356819, 94.8359025386845 " fill="none" id="curve_103" stroke="#000000" stroke-linecap="round" stroke-linejoin="round" stroke-width="1.6485085949619451"/>
  <path d="M 38.23689262818791, 42.42265898973952 Q 36.41914377942515, 46.706592790656664, 30.510794121523972, 49.49347565784299 " fill="none" id="curve_107" stroke="#000000" stroke-linecap="round" stroke-linejoin="round" stroke-width="3.055202752805585"/>
  <path d="M 62.65977847445882, 74.2221220592678 Q 59.546479764264504, 71.62820133909258, 57.443357233234195, 60.60717741714254 " fill="none" id="curve_135" stroke="#000000" stroke-linecap="round" stroke-linejoin="round" stroke-width="1.8573039637904458"/>
  <path d="M 62.42803703506358, 83.92495858465787 Q 61.676106797843595, 87.2092590683261, 58.806311438355294, 89.18106143291594 " fill="none" id="curve_150" stroke="#000000" stroke-linecap="round" stroke-linejoin="round" stroke-width="3.384062505695467"/>
  <path d="M 62.54593925005053, 82.98494386595428 Q 62.34804265158568, 82.51693220755487, 62.08289021241775, 81.94313548186109 " fill="none" id="curve_168" stroke="#000000" stroke-linecap="round" stroke-linejoin="round" stroke-width="3.593232663315221"/>
</svg>
