<?xml version="1.0" ?>
<svg height="140" width="140" xmlns="http://www.w3.org/2000/svg">
  <path d="M 88.50945663452148, 137.98531532287598 Q 88.21616300362095, 136.89067250410744, 88.1153605192554, 121.32040050381602 " fill="none" id="curve_1" stroke="#000000" stroke-linecap="round" stroke-linejoin="round" stroke-width="4.690728612182586"/>
  <path d="M 88.1153605192554, 121.32040050381602 Q 88.25205432962562, 118.47094168649492, 88.36280010410695, 98.82814427602878 " fill="none" id="curve_1" stroke="#000000" stroke-linecap="round" stroke-linejoin="round" stroke-width="4.467522713378204"/>
  <path d="M 88.36280010410695, 98.82814427602878 Q 88.4085351679565, 89.98689628252478, 88.55426641804871, 72.47482055498008 " fill="none" id="curve_1" stroke="#000000" stroke-linecap="round" stroke-linejoin="round" stroke-width="3.8543691957090864"/>
  <path d="M 88.55426641804871, 72.47482055498008 Q 88.8512703213357, 71.08674977893054, 88.93930636807278, 45.0399961671923 " fill="none" id="curve_1" stroke="#000000" stroke-linecap="round" stroke-linejoin="round" stroke-width="3.3349214307703243"/>
  <path d="M 88.93930636807278, 45.0399961671923 Q 88.89778763787419, 32.60858716616976, 88.72195569273347, 18.87290005220715 " fill="none" id="curve_1" stroke="#000000" stroke-linecap="round" stroke-linejoin="round" stroke-width="3.270142191947039"/>
  <path d="M 88.72195569273347, 18.87290005220715 Q 88.67947750600617, 5.049415949786825, 88.28050016731301, 1.882676286709593 " fill="none" id="curve_1" stroke="#000000" stroke-linecap="round" stroke-linejoin="round" stroke-width="3.574869988512384"/>
  <path d="M 88.28050016731301, 1.882676286709593 Q 87.85136346115634, 1.9625799626361689, 87.44939310884732, 2.0837069066330387 " fill="none" id="curve_1" stroke="#000000" stroke-linecap="round" stroke-linejoin="round" stroke-width="4.33452256463605"/>
  <path d="M 57.82590434138997, 41.571727209642745 Q 30.884693930635898, 42.11420572009595, 22.777468610766483, 58.451623264928074 " fill="none" id="curve_2" stroke="#000000" stroke-linecap="round" stroke-linejoin="round" stroke-width="4.673930040782249"/>
  <path d="M 22.777468610766483, 58.451623264928074 Q 14.949346119719234, 65.44654685020706, 9.774265989538375, 85.19263664137017 " fill="none" id="curve_2" stroke="#000000" stroke-linecap="round" stroke-linejoin="round" stroke-width="5.560449460884753"/>
  <path d="M 9.774265989538375, 85.19263664137017 Q 11.053074790229404, 99.10566894061391, 19.72851878124047, 101.78264261430448 " fill="none" id="curve_2" stroke="#000000" stroke-linecap="round" stroke-linejoin="round" stroke-width="5.4340281908943115"/>
  <path d="M 19.72851878124047, 101.78264261430448 Q 38.54716273743026, 99.94974834359151, 50.32096578202636, 79.17027566235203 " fill="none" id="curve_2" stroke="#000000" stroke-linecap="round" stroke-linejoin="round" stroke-width="5.208925766737363"/>
  <path d="M 50.32096578202636, 79.17027566235203 Q 55.82323449879946, 74.81357429377589, 59.361994114374596, 50.08044477763091 " fill="none" id="curve_2" stroke="#000000" stroke-linecap="round" stroke-linejoin="round" stroke-width="5.375312112806017"/>
  <path d="M 59.361994114374596, 50.08044477763091 Q 59.21149640372182, 44.23845426129018, 56.71031524269964, 43.65484858439612 " fill="none" id="curve_2" stroke="#000000" stroke-linecap="round" stroke-linejoin="round" stroke-width="5.7683933682699955"/>
  <path d="M 44.024946426259405, 41.647863426888044 Q 32.726074610331835, 47.51782170901639, 15.036131816620461, 65.69034382804936 " fill="none" id="curve_3" stroke="#000000" stroke-linecap="round" stroke-linejoin="round" stroke-width="3.2591122579099325"/>
  <path d="M 46.90365484642507, 45.248417766414434 Q 47.48240164063564, 44.68612523038935, 47.87463239756699, 42.498088189636924 " fill="none" id="curve_4" stroke="#000000" stroke-linecap="round" stroke-linejoin="round" stroke-width="6.024396515193305"/>
  <path d="M 47.87463239756699, 42.498088189636924 Q 49.733434428352936, 41.770170537677494, 53.47099041521975, 40.76172983267886 " fill="none" id="curve_4" stroke="#000000" stroke-linecap="round" stroke-linejoin="round" stroke-width="3.395608917652712"/>
  <path d="M 23.237262325889496, 56.74540464293954 Q 26.132258936617333, 55.34384492087263, 30.21243961277565, 52.74626857939756 " fill="none" id="curve_5" stroke="#000000" stroke-linecap="round" stroke-linejoin="round" stroke-width="2.9069213399108524"/>
  <path d="M 14.405508544072426, 96.85939813665104 Q 15.053066755461424, 99.81411992507682, 26.502570583923777, 100.21630850530748 " fill="none" id="curve_16" stroke="#000000" stroke-linecap="round" stroke-linejoin="round" stroke-width="2.994119165226996"/>
  <path d="M 23.265025803331273, 56.36119822829782 Q 19.362944949844067, 58.57508987306333, 14.474323947152817, 66.50094610319053 " fill="none" id="curve_18" stroke="#000000" stroke-linecap="round" stroke-linejoin="round" stroke-width="3.009991105532448"/>
  <path d="M 11.510270180298589, 76.1583562139956 Q 12.886386327267946, 72.37442404133675, 15.95121422844405, 67.81359006655407 " fill="none" id="curve_19" stroke="#000000" stroke-linecap="round" stroke-linejoin="round" stroke-width="2.463274471057294"/>
  <path d="M 87.33546829223633, 134.42935180664062 Q 87.52875416604314, 137.0087784503537, 88.3422164862269, 138.53135593216462 " fill="none" id="curve_33" stroke="#000000" stroke-linecap="round" stroke-linejoin="round" stroke-width="3.788860855829571"/>
  <path d="M 88.3422164862269, 138.53135593216462 Q 88.75442774363485, 137.8873784258746, 89.13540361191738, 136.41189843393352 " fill="none" id="curve_33" stroke="#000000" stroke-linecap="round" stroke-linejoin="round" stroke-width="2.6491619732004525"/>
  <path d="M 89.13540361191738, 136.41189843393352 Q 88.91336853635087, 132.09384301620852, 88.4251702274162, 128.43019511297823 " fill="none" id="curve_33" stroke="#000000" stroke-linecap="round" stroke-linejoin="round" stroke-width="2.439669357863009"/>
  <path d="M 87.1729992619393, 52.308578026439385 Q 87.26006553436474, 51.91745470316884, 87.36900525414987, 51.49184024302237 " fill="none" id="curve_36" stroke="#000000" stroke-linecap="round" stroke-linejoin="round" stroke-width="3.7167012027510267"/>
  <path d="M 87.53184881815352, 27.245007840626183 Q 87.36470688792356, 26.98288905185064, 87.1980017769042, 26.580918848564806 " fill="none" id="curve_37" stroke="#000000" stroke-linecap="round" stroke-linejoin="round" stroke-width="3.768317736746391"/>
  <path d="M 87.99602503792775, 7.002905508576362 Q 87.89933405358961, 4.892873393983925, 87.77063336294229, 2.223733494196095 " fill="none" id="curve_38" stroke="#000000" stroke-linecap="round" stroke-linejoin="round" stroke-width="2.94474614010033"/>
  <path d="M 87.51563300505958, 64.7228559648781 Q 87.24158576420281, 65.01320196742287, 86.90385824754964, 65.48740997289975 " fill="none" id="curve_41" stroke="#000000" stroke-linecap="round" stroke-linejoin="round" stroke-width="2.8086142498861397"/>
  <path d="M 54.94205784999675, 62.98202224112844 Q 53.67956312760497, 73.38473338249014, 49.30196818157257, 81.63715188956952 " fill="none" id="curve_42" stroke="#000000" stroke-linecap="round" stroke-linejoin="round" stroke-width="2.2015496888539046"/>
  <path d="M 49.30196818157257, 81.63715188956952 Q 42.63848067365679, 84.50393041088869, 38.86104362959794, 92.68642990234284 " fill="none" id="curve_42" stroke="#000000" stroke-linecap="round" stroke-linejoin="round" stroke-width="3.3570467154678125"/>
  <path d="M 25.641016955761856, 99.61109774248663 Q 29.31953985144839, 97.90463154096678, 34.103882824486064, 95.89028967947925 " fill="none" id="curve_43" stroke="#000000" stroke-linecap="round" stroke-linejoin="round" stroke-width="3.207056163448575"/>
  <path d="M 14.465688091387266, 70.10911789194544 Q 12.40057722461934, 76.22236878933124, 10.359142392798635, 90.80153702120651 " fill="none" id="curve_45" stroke="#000000" stroke-linecap="round" stroke-linejoin="round" stroke-width="2.2283907807431413"/>
  <path d="M 12.450593926018204, 73.87965137164136 Q 13.846701699724113, 71.29517868746312, 16.568283833503997, 67.76682306285005 " fill="none" id="curve_46" stroke="#000000" stroke-linecap="round" stroke-linejoin="round" stroke-width="3.007513377906825"/>
  <path d="M 46.0732761415627, 40.97786020504496 Q 35.71559597250832, 42.75657699958517, 27.37299481307047, 50.75233406113727 " fill="none" id="curve_89" stroke="#000000" stroke-linecap="round" stroke-linejoin="round" stroke-width="2.393030549751478"/>
  <path d="M 23.09265301551494, 54.939478520993745 Q 21.781569633221945, 56.245914151295686, 20.10280285868266, 59.35818410576867 " fill="none" id="curve_130" stroke="#000000" stroke-linecap="round" stroke-linejoin="round" stroke-width="2.6885075009441297"/>
  <path d="M 12.072226901411682, 73.53468331230212 Q 12.78297506696875, 71.10552260766433, 16.353518542350542, 70.15184370295275 " fill="none" id="curve_158" stroke="#000000" stroke-linecap="round" stroke-linejoin="round" stroke-width="3.730526027508129"/>
</svg>
