<?xml version="1.0" ?>
<svg height="140" width="140" xmlns="http://www.w3.org/2000/svg">
  <path d="M 89.20211918528823, 138.83796884019705 Q 89.16388202653303, 135.89587185438074, 89.12792654189553, 122.66181044818825 " fill="none" id="curve_2" stroke="#000000" stroke-linecap="round" stroke-linejoin="round" stroke-width="2.561198341470483"/>
  <path d="M 89.12792654189553, 122.66181044818825 Q 89.14156826783524, 116.56215822939517, 89.18673765933944, 104.4150180426684 " fill="none" id="curve_2" stroke="#000000" stroke-linecap="round" stroke-linejoin="round" stroke-width="2.4618162928346803"/>
  <path d="M 89.18673765933944, 104.4150180426684 Q 89.1732409376106, 97.29078230987086, 89.11717863698395, 86.57084727942919 " fill="none" id="curve_2" stroke="#000000" stroke-linecap="round" stroke-linejoin="round" stroke-width="2.4448279371822266"/>
  <path d="M 89.11717863698395, 86.57084727942919 Q 89.13018912797382, 80.91125001542261, 89.16918339804026, 68.29380345970802 " fill="none" id="curve_2" stroke="#000000" stroke-linecap="round" stroke-linejoin="round" stroke-width="2.4535865122330778"/>
  <path d="M 89.16918339804026, 68.29380345970802 Q 89.16360333882137, 60.800920416402235, 89.13886493474152, 49.9742783256771 " fill="none" id="curve_2" stroke="#000000" stroke-linecap="round" stroke-linejoin="round" stroke-width="2.4079050861922076"/>
  <path d="M 89.13886493474152, 49.9742783256771 Q 89.14635287620872, 43.72053768257911, 89.17054538639188, 31.30020798539373 " fill="none" id="curve_2" stroke="#000000" stroke-linecap="round" stroke-linejoin="round" stroke-width="2.409758757645041"/>
  <path d="M 89.17054538639188, 31.30020798539373 Q 89.1650253951886, 24.25120365734268, 89.14368145530237, 12.350033242373865 " fill="none" id="curve_2" stroke="#000000" stroke-linecap="round" stroke-linejoin="round" stroke-width="2.367020905405977"/>
  <path d="M 89.14368145530237, 12.350033242373865 Q 89.08866533815589, 2.6734296952635965, 88.1782368041556, 1.3456230549060741 " fill="none" id="curve_2" stroke="#000000" stroke-linecap="round" stroke-linejoin="round" stroke-width="2.8654632514256035"/>
  <path d="M 88.1782368041556, 1.3456230549060741 Q 88.18991928402161, 1.4913448915948577, 88.19880037419873, 1.7746433197833213 " fill="none" id="curve_2" stroke="#000000" stroke-linecap="round" stroke-linejoin="round" stroke-width="3.537118942547687"/>
  <path d="M 88.19880037419873, 1.7746433197833213 Q 88.86727141351739, 1.9881591636135032, 89.58614808146048, 2.4005407789015556 " fill="none" id="curve_2" stroke="#000000" stroke-linecap="round" stroke-linejoin="round" stroke-width="2.503711253380312"/>
  <path d="M 52.996620782235226, 77.15633530570021 Q 52.44028708078053, 92.40265638155088, 41.61118471408717, 97.98973048947022 " fill="none" id="curve_6" stroke="#000000" stroke-linecap="round" stroke-linejoin="round" stroke-width="4.452104252562914"/>
  <path d="M 41.61118471408717, 97.98973048947022 Q 41.08637095629983, 101.52197920338328, 20.05418742959179, 101.76455435754421 " fill="none" id="curve_6" stroke="#000000" stroke-linecap="round" stroke-linejoin="round" stroke-width="4.692094587140513"/>
  <path d="M 20.05418742959179, 101.76455435754421 Q 16.7259797249529, 98.83766217588035, 12.331823854249574, 95.5087834396287 " fill="none" id="curve_6" stroke="#000000" stroke-linecap="round" stroke-linejoin="round" stroke-width="5.50324649075447"/>
  <path d="M 12.331823854249574, 95.5087834396287 Q 12.874870294845362, 76.9499875642448, 19.982996113529694, 68.90680538444168 " fill="none" id="curve_6" stroke="#000000" stroke-linecap="round" stroke-linejoin="round" stroke-width="5.701810265406563"/>
  <path d="M 19.982996113529694, 68.90680538444168 Q 22.31090812510287, 59.802734190464115, 30.128919575861854, 54.40524848492024 " fill="none" id="curve_6" stroke="#000000" stroke-linecap="round" stroke-linejoin="round" stroke-width="5.966536220414793"/>
  <path d="M 30.128919575861854, 54.40524848492024 Q 50.58694205017031, 54.768479567249805, 51.81920924118357, 75.90023137420269 " fill="none" id="curve_6" stroke="#000000" stroke-linecap="round" stroke-linejoin="round" stroke-width="3.5917329809777363"/>
  <path d="M 51.81920924118357, 75.90023137420269 Q 51.0363260537395, 80.33203728816086, 50.65668743484873, 93.69610993917632 " fill="none" id="curve_6" stroke="#000000" stroke-linecap="round" stroke-linejoin="round" stroke-width="2.81267945757176"/>
  <path d="M 22.95414391959084, 63.50255571048584 Q 24.745309377831333, 61.144847137381845, 27.683526646240654, 58.80405708633077 " fill="none" id="curve_7" stroke="#000000" stroke-linecap="round" stroke-linejoin="round" stroke-width="5.0681206083768995"/>
  <path d="M 27.683526646240654, 58.80405708633077 Q 16.909897903741616, 59.05126588621298, 16.17139493321303, 74.62838854069476 " fill="none" id="curve_7" stroke="#000000" stroke-linecap="round" stroke-linejoin="round" stroke-width="3.2354631816946062"/>
  <path d="M 16.17139493321303, 74.62838854069476 Q 18.221677887363448, 74.56448983590721, 19.23892911791583, 74.32808097646027 " fill="none" id="curve_7" stroke="#000000" stroke-linecap="round" stroke-linejoin="round" stroke-width="4.093375878547675"/>
  <path d="M 18.147411346435547, 98.3835563659668 Q 19.357139272019612, 100.3955577060236, 26.550600078054686, 100.99748343699221 " fill="none" id="curve_34" stroke="#000000" stroke-linecap="round" stroke-linejoin="round" stroke-width="2.5014874235960565"/>
  <path d="M 50.94513271386369, 89.89382495992963 Q 51.69249212842792, 89.6819993353608, 52.736686776038034, 89.18741255369363 " fill="none" id="curve_50" stroke="#000000" stroke-linecap="round" stroke-linejoin="round" stroke-width="2.900375457176932"/>
  <path d="M 34.000914788920156, 101.23307945642769 Q 37.51115755002909, 99.85050206105403, 40.82095382649643, 97.23388330267845 " fill="none" id="curve_51" stroke="#000000" stroke-linecap="round" stroke-linejoin="round" stroke-width="3.1219082508685245"/>
  <path d="M 19.683822408671322, 65.70028296316107 Q 23.87716141268655, 65.27944257249052, 24.553315675938958, 58.66012835482233 " fill="none" id="curve_80" stroke="#000000" stroke-linecap="round" stroke-linejoin="round" stroke-width="4.629746575636192"/>
  <path d="M 20.624827144558623, 100.55076772466553 Q 17.67063966658779, 99.79581834824486, 14.485833622259449, 98.36647391314797 " fill="none" id="curve_82" stroke="#000000" stroke-linecap="round" stroke-linejoin="round" stroke-width="3.7719551717514017"/>
  <path d="M 22.635733614325844, 63.79033814513349 Q 23.24152867023712, 62.83205120529242, 23.789323850823976, 60.745043103701825 " fill="none" id="curve_100" stroke="#000000" stroke-linecap="round" stroke-linejoin="round" stroke-width="4.884725511328742"/>
  <path d="M 24.448091589560146, 65.5927981632257 Q 24.36823963441669, 60.47531792555449, 23.496657436435058, 59.3263535624897 " fill="none" id="curve_116" stroke="#000000" stroke-linecap="round" stroke-linejoin="round" stroke-width="4.0899369096625"/>
  <path d="M 21.32316989253286, 101.25353295737574 Q 18.51936574475936, 97.84856332665142, 13.199255434177019, 94.4021662687708 " fill="none" id="curve_144" stroke="#000000" stroke-linecap="round" stroke-linejoin="round" stroke-width="2.5395786151004693"/>
  <path d="M 12.860370645195495, 78.70405625515576 Q 14.083413949798597, 78.22855174768388, 15.262331438994847, 76.75392213015593 " fill="none" id="curve_147" stroke="#000000" stroke-linecap="round" stroke-linejoin="round" stroke-width="2.740909179114555"/>
</svg>
