<?xml version="1.0" ?>
<svg height="140" width="140" xmlns="http://www.w3.org/2000/svg">
  <path d="M 32.12380504608154, 99.69521379470825 Q 32.52169102517369, 106.46647561294586, 39.43190000030279, 107.77103083645653 " fill="none" id="curve_1" stroke="#000000" stroke-linecap="round" stroke-linejoin="round" stroke-width="3.0405088469526813"/>
  <path d="M 39.43190000030279, 107.77103083645653 Q 42.63509640385304, 107.85575234679223, 44.452655694546195, 108.0909406018789 " fill="none" id="curve_1" stroke="#000000" stroke-linecap="round" stroke-linejoin="round" stroke-width="4.99284740830771"/>
  <path d="M 30.11685688084379, 99.5533679432754 Q 27.518877084867878, 98.9725847337153, 27.019537778574904, 93.57023364265625 " fill="none" id="curve_2" stroke="#000000" stroke-linecap="round" stroke-linejoin="round" stroke-width="2.96806590787078"/>
  <path d="M 27.019537778574904, 93.57023364265625 Q 27.03611141625712, 84.17810063442117, 27.098028332804372, 78.02029934316339 " fill="none" id="curve_2" stroke="#000000" stroke-linecap="round" stroke-linejoin="round" stroke-width="3.0391101964555194"/>
  <path d="M 33.97615014845695, 63.17515401162547 Q 36.07196439031231, 62.25539318522156, 36.930798218960234, 59.36603612469443 " fill="none" id="curve_3" stroke="#000000" stroke-linecap="round" stroke-linejoin="round" stroke-width="3.3527836803851274"/>
  <path d="M 43.41426495228311, 50.14751850497242 Q 45.43654163973426, 43.80219887767608, 55.82311176879074, 40.61001890690239 " fill="none" id="curve_4" stroke="#000000" stroke-linecap="round" stroke-linejoin="round" stroke-width="3.2471937544305365"/>
  <path d="M 55.82311176879074, 40.61001890690239 Q 60.2709454203339, 41.91825547094999, 63.373819057340256, 44.055643081115164 " fill="none" id="curve_4" stroke="#000000" stroke-linecap="round" stroke-linejoin="round" stroke-width="5.801881655688592"/>
  <path d="M 60.62573747580871, 52.812980361530926 Q 57.00601790136135, 53.777932993029175, 52.85919893331555, 54.84670804373634 " fill="none" id="curve_5" stroke="#000000" stroke-linecap="round" stroke-linejoin="round" stroke-width="4.4551440661475565"/>
  <path d="M 52.85919893331555, 54.84670804373634 Q 60.66351542397751, 54.708121727196556, 65.88356071687556, 54.37612683690199 " fill="none" id="curve_5" stroke="#000000" stroke-linecap="round" stroke-linejoin="round" stroke-width="7.741503988294623"/>
  <path d="M 65.88356071687556, 54.37612683690199 Q 69.85676916441999, 54.85876481106366, 70.01956238180725, 74.48665251800912 " fill="none" id="curve_5" stroke="#000000" stroke-linecap="round" stroke-linejoin="round" stroke-width="5.947085635704428"/>
  <path d="M 70.01956238180725, 74.48665251800912 Q 68.21213293638525, 79.9178349199798, 65.68624902468281, 84.03660332652697 " fill="none" id="curve_5" stroke="#000000" stroke-linecap="round" stroke-linejoin="round" stroke-width="2.9135964812135273"/>
  <path d="M 68.88653176424882, 68.09573523547245 Q 68.1449594283416, 70.40533474496957, 67.64820147668273, 74.89534009786423 " fill="none" id="curve_6" stroke="#000000" stroke-linecap="round" stroke-linejoin="round" stroke-width="3.400327214406193"/>
  <path d="M 46.55201340011623, 47.56626972017036 Q 44.38229262215167, 49.86523335606727, 41.03059010635492, 52.733823006919756 " fill="none" id="curve_8" stroke="#000000" stroke-linecap="round" stroke-linejoin="round" stroke-width="2.965188684096217"/>
  <path d="M 57.0502443114174, 41.60066621672751 Q 57.58749557675996, 41.975187112486, 58.39121389881209, 42.64195099425012 " fill="none" id="curve_9" stroke="#000000" stroke-linecap="round" stroke-linejoin="round" stroke-width="4.266416766490278"/>
  <path d="M 60.75148010253906, 39.56254577636719 Q 60.46907331513248, 41.70688370358104, 58.41880325243275, 42.48108893789001 " fill="none" id="curve_23" stroke="#000000" stroke-linecap="round" stroke-linejoin="round" stroke-width="3.5457918517440206"/>
  <path d="M 58.41880325243275, 42.48108893789001 Q 61.592175069462925, 43.85744677510813, 64.96995204599098, 45.75699226613477 " fill="none" id="curve_23" stroke="#000000" stroke-linecap="round" stroke-linejoin="round" stroke-width="2.1449864984235565"/>
  <path d="M 71.86328292737056, 65.67357402573407 Q 71.52565054816755, 66.29441125949276, 70.57282651008039, 66.67287514008537 " fill="none" id="curve_30" stroke="#000000" stroke-linecap="round" stroke-linejoin="round" stroke-width="5.105660116495802"/>
  <path d="M 89.4303066914574, 3.5796390731845236 Q 89.53687252376115, 2.351316265935677, 89.75628923429834, 0.9100523863325414 " fill="none" id="curve_33" stroke="#000000" stroke-linecap="round" stroke-linejoin="round" stroke-width="1.7825081098567943"/>
  <path d="M 36.68225828425012, 105.83976317527828 Q 35.17376016323987, 104.34008183168206, 31.830547466467912, 102.79448982147275 " fill="none" id="curve_40" stroke="#000000" stroke-linecap="round" stroke-linejoin="round" stroke-width="2.7327010976406423"/>
  <path d="M 59.37782859802246, 41.16717529296875 Q 57.52969137286983, 41.69773247443756, 55.83629583764511, 43.045046204392506 " fill="none" id="curve_54" stroke="#000000" stroke-linecap="round" stroke-linejoin="round" stroke-width="3.3715313178829027"/>
  <path d="M 68.34564353909008, 59.700854908757606 Q 69.45087060935796, 59.132066521187774, 70.91694893218241, 58.28422401731132 " fill="none" id="curve_95" stroke="#000000" stroke-linecap="round" stroke-linejoin="round" stroke-width="3.250697493867011"/>
  <path d="M 33.28580481728285, 63.22020127082081 Q 34.16854947663315, 62.927965301243106, 35.219611281194, 61.984417814436185 " fill="none" id="curve_100" stroke="#000000" stroke-linecap="round" stroke-linejoin="round" stroke-width="1.987173159575519"/>
  <path d="M 65.37789134209117, 46.696418013927996 Q 64.37460499067733, 46.04621970514989, 62.58444415102648, 45.00989738394858 " fill="none" id="curve_115" stroke="#000000" stroke-linecap="round" stroke-linejoin="round" stroke-width="2.074388401381087"/>
  <path d="M 66.61347661548007, 65.72108888573189 Q 68.04850442629889, 65.45469806813288, 70.10893445142685, 64.7362766002859 " fill="none" id="curve_130" stroke="#000000" stroke-linecap="round" stroke-linejoin="round" stroke-width="3.017885677997041"/>
  <path d="M 50.82037910168558, 56.66861133347387 Q 52.30587129862323, 55.02211870465079, 56.24901880735155, 53.16906696604165 " fill="none" id="curve_151" stroke="#000000" stroke-linecap="round" stroke-linejoin="round" stroke-width="1.948311213474861"/>
</svg>
