<?xml version="1.0" ?>
<svg height="140" width="140" xmlns="http://www.w3.org/2000/svg">
  <path d="M 33.531240463256836, 38.90269470214844 Q 38.886423800216654, 37.92126553064581, 43.08373369069102, 31.640866410382387 " fill="none" id="curve_1" stroke="#000000" stroke-linecap="round" stroke-linejoin="round" stroke-width="3.674492198781906"/>
  <path d="M 43.08373369069102, 31.640866410382387 Q 47.43768265200043, 30.625510602643807, 50.236833662612526, 28.019168273711692 " fill="none" id="curve_1" stroke="#000000" stroke-linecap="round" stroke-linejoin="round" stroke-width="5.356738213748424"/>
  <path d="M 50.236833662612526, 28.019168273711692 Q 60.88928620931134, 28.310179935297104, 61.84273576710367, 33.923448433854006 " fill="none" id="curve_1" stroke="#000000" stroke-linecap="round" stroke-linejoin="round" stroke-width="5.489137901458812"/>
  <path d="M 61.84273576710367, 33.923448433854006 Q 62.76688175686179, 42.08259445379344, 64.95737638200974, 58.09823437594998 " fill="none" id="curve_1" stroke="#000000" stroke-linecap="round" stroke-linejoin="round" stroke-width="3.9372692463380066"/>
  <path d="M 64.95737638200974, 58.09823437594998 Q 62.76721240531948, 72.16929413193743, 49.73453755371462, 82.57110692520854 " fill="none" id="curve_1" stroke="#000000" stroke-linecap="round" stroke-linejoin="round" stroke-width="5.386261210269167"/>
  <path d="M 49.73453755371462, 82.57110692520854 Q 45.164943992297026, 90.07256807629507, 25.518006198562105, 95.01762444836942 " fill="none" id="curve_1" stroke="#000000" stroke-linecap="round" stroke-linejoin="round" stroke-width="5.529997561145293"/>
  <path d="M 25.518006198562105, 95.01762444836942 Q 14.20517198263817, 94.05923306958438, 11.95562395339617, 84.11848422548125 " fill="none" id="curve_1" stroke="#000000" stroke-linecap="round" stroke-linejoin="round" stroke-width="4.933168020923522"/>
  <path d="M 11.95562395339617, 84.11848422548125 Q 13.272790490336849, 66.7293821902026, 25.006071154712977, 52.52155998557423 " fill="none" id="curve_1" stroke="#000000" stroke-linecap="round" stroke-linejoin="round" stroke-width="5.2350677441269005"/>
  <path d="M 25.006071154712977, 52.52155998557423 Q 29.867244782535, 45.71159521953936, 37.508842641946515, 38.56223527221504 " fill="none" id="curve_1" stroke="#000000" stroke-linecap="round" stroke-linejoin="round" stroke-width="4.6250186744933846"/>
  <path d="M 37.508842641946515, 38.56223527221504 Q 29.968993475252553, 41.08860237471221, 26.22075161123167, 50.40639257595044 " fill="none" id="curve_1" stroke="#000000" stroke-linecap="round" stroke-linejoin="round" stroke-width="2.934375223502513"/>
  <path d="M 61.6461877184859, 66.90525154277935 Q 62.41519093681264, 60.06718970691392, 65.0329965048831, 55.7474786731178 " fill="none" id="curve_2" stroke="#000000" stroke-linecap="round" stroke-linejoin="round" stroke-width="2.832451150527142"/>
  <path d="M 61.54063727659573, 43.90000525547306 Q 61.299983025957594, 43.6523413717584, 61.057515963466436, 43.24104363996105 " fill="none" id="curve_3" stroke="#000000" stroke-linecap="round" stroke-linejoin="round" stroke-width="5.168711302852484"/>
  <path d="M 89.47736853058112, 5.679187210965793 Q 89.65434230665508, 4.210228986031645, 89.89797386146192, 1.8244656308310758 " fill="none" id="curve_4" stroke="#000000" stroke-linecap="round" stroke-linejoin="round" stroke-width="1.9857072652845995"/>
  <path d="M 59.91444807429727, 66.5278004025166 Q 60.782165289283625, 66.70606761617012, 61.336648173274206, 67.37814173478861 " fill="none" id="curve_8" stroke="#000000" stroke-linecap="round" stroke-linejoin="round" stroke-width="3.746405708138956"/>
  <path d="M 53.8027650728619, 77.11998384869119 Q 50.566953785094945, 83.52768474203612, 42.21172510462706, 89.2030097153362 " fill="none" id="curve_10" stroke="#000000" stroke-linecap="round" stroke-linejoin="round" stroke-width="2.724443534446754"/>
  <path d="M 26.983785887834195, 94.72483088267175 Q 19.10681477786224, 93.04095550306137, 13.30993433678115, 86.77538438929368 " fill="none" id="curve_11" stroke="#000000" stroke-linecap="round" stroke-linejoin="round" stroke-width="2.120875312650728"/>
  <path d="M 20.373867426381963, 60.67271341188027 Q 15.828531469003877, 65.46858170051594, 11.63224724115733, 74.76172032931719 " fill="none" id="curve_13" stroke="#000000" stroke-linecap="round" stroke-linejoin="round" stroke-width="3.0470375602448283"/>
  <path d="M 38.28641536987513, 35.86319845952817 Q 40.89483562709518, 35.35909503532032, 42.68989086240621, 33.7420969766862 " fill="none" id="curve_14" stroke="#000000" stroke-linecap="round" stroke-linejoin="round" stroke-width="2.5334485248399017"/>
  <path d="M 46.48749777105001, 86.26473751461316 Q 48.2936256345539, 81.23913275001868, 55.31287668343848, 78.46991744803478 " fill="none" id="curve_16" stroke="#000000" stroke-linecap="round" stroke-linejoin="round" stroke-width="3.127283273531943"/>
  <path d="M 90.09885939048934, 138.4828833641365 Q 89.92523031954389, 138.0443497938411, 89.66951546851622, 137.2701741103332 " fill="none" id="curve_18" stroke="#000000" stroke-linecap="round" stroke-linejoin="round" stroke-width="2.0480401602455447"/>
  <path d="M 60.22121623841217, 67.48301656194985 Q 59.75640113862356, 68.92731783468128, 59.031705773672265, 71.48357664565646 " fill="none" id="curve_22" stroke="#000000" stroke-linecap="round" stroke-linejoin="round" stroke-width="3.1243618226622445"/>
  <path d="M 41.4287694214426, 88.74662226097674 Q 46.80273522922289, 84.52048244657365, 55.09438423510603, 79.13317432038295 " fill="none" id="curve_23" stroke="#000000" stroke-linecap="round" stroke-linejoin="round" stroke-width="2.8864952327160696"/>
  <path d="M 43.280732947179, 86.79603121246186 Q 48.76331158312781, 84.00284344219874, 54.80627784632824, 78.59271804780026 " fill="none" id="curve_24" stroke="#000000" stroke-linecap="round" stroke-linejoin="round" stroke-width="2.599323074942584"/>
  <path d="M 53.368448106882795, 80.3643964375214 Q 48.47207615851636, 81.99888077538544, 43.98442980182371, 85.06277555812336 " fill="none" id="curve_26" stroke="#000000" stroke-linecap="round" stroke-linejoin="round" stroke-width="3.952621125220527"/>
  <path d="M 27.74065619016133, 92.24476529470878 Q 24.800684306508824, 92.69892425034912, 22.817413245115016, 93.87821610961757 " fill="none" id="curve_27" stroke="#000000" stroke-linecap="round" stroke-linejoin="round" stroke-width="3.1360189281225517"/>
  <path d="M 53.358466575795774, 80.83276838883148 Q 51.711911177898216, 81.24662054400383, 49.07795728549034, 81.86691896961672 " fill="none" id="curve_133" stroke="#000000" stroke-linecap="round" stroke-linejoin="round" stroke-width="3.351516878101397"/>
</svg>
