<?xml version="1.0" ?>
<svg height="140" width="140" xmlns="http://www.w3.org/2000/svg">
  <path d="M 26.292652130126953, 90.77362823486328 Q 22.661983798308324, 89.46655147896713, 20.919314781237063, 79.65610139838691 " fill="none" id="curve_1" stroke="#000000" stroke-linecap="round" stroke-linejoin="round" stroke-width="6.769689156687563"/>
  <path d="M 20.919314781237063, 79.65610139838691 Q 22.033235355626392, 69.79061843775636, 26.53558545974258, 62.01073103188569 " fill="none" id="curve_1" stroke="#000000" stroke-linecap="round" stroke-linejoin="round" stroke-width="6.627931632594687"/>
  <path d="M 26.53558545974258, 62.01073103188569 Q 31.450155102499682, 55.821308256225244, 43.56507179362066, 50.919068953122526 " fill="none" id="curve_1" stroke="#000000" stroke-linecap="round" stroke-linejoin="round" stroke-width="8.344681898973908"/>
  <path d="M 43.56507179362066, 50.919068953122526 Q 59.158096842803275, 51.28215444693521, 60.49474696508189, 60.50262746769367 " fill="none" id="curve_1" stroke="#000000" stroke-linecap="round" stroke-linejoin="round" stroke-width="10.117573655530938"/>
  <path d="M 60.49474696508189, 60.50262746769367 Q 63.17809692653385, 63.20893496898048, 63.69630327730452, 77.6358088162619 " fill="none" id="curve_1" stroke="#000000" stroke-linecap="round" stroke-linejoin="round" stroke-width="7.078757874479981"/>
  <path d="M 63.69630327730452, 77.6358088162619 Q 62.335820160783804, 100.25381387784394, 42.73405225074847, 104.17797250019768 " fill="none" id="curve_1" stroke="#000000" stroke-linecap="round" stroke-linejoin="round" stroke-width="6.3590659224430555"/>
  <path d="M 42.73405225074847, 104.17797250019768 Q 25.11563975773422, 103.50140943328823, 22.514444929911633, 87.12195173823547 " fill="none" id="curve_1" stroke="#000000" stroke-linecap="round" stroke-linejoin="round" stroke-width="5.288225346778645"/>
  <path d="M 52.47537520898254, 96.68779749352149 Q 58.4577797876319, 94.02851705851673, 60.544372419903176, 82.73287463011063 " fill="none" id="curve_2" stroke="#000000" stroke-linecap="round" stroke-linejoin="round" stroke-width="4.088234506469543"/>
  <path d="M 59.11180147412203, 52.42497368620038 Q 58.10477429218894, 49.49126357012158, 50.206180698750316, 48.59899574893393 " fill="none" id="curve_3" stroke="#000000" stroke-linecap="round" stroke-linejoin="round" stroke-width="3.334229412231845"/>
  <path d="M 27.230654921566895, 93.21987135894871 Q 29.541103706932024, 99.692388437332, 33.771395589708334, 104.2090451043541 " fill="none" id="curve_6" stroke="#000000" stroke-linecap="round" stroke-linejoin="round" stroke-width="3.242122364687653"/>
  <path d="M 47.62839118063748, 101.12241702764517 Q 52.59220434298843, 96.51758829609673, 58.421894003327104, 89.33877892722643 " fill="none" id="curve_7" stroke="#000000" stroke-linecap="round" stroke-linejoin="round" stroke-width="3.1952334727825336"/>
  <path d="M 61.68241609447306, 72.43383239316246 Q 61.455992888789645, 76.81408493290849, 61.22951828498217, 83.49328759154274 " fill="none" id="curve_8" stroke="#000000" stroke-linecap="round" stroke-linejoin="round" stroke-width="3.0600595446122423"/>
  <path d="M 32.367971305965426, 103.77597051461065 Q 31.935964619790887, 103.68955977066521, 31.511190303937454, 103.51091001279056 " fill="none" id="curve_9" stroke="#000000" stroke-linecap="round" stroke-linejoin="round" stroke-width="4.940010770149519"/>
  <path d="M 47.76960186938418, 103.58123931404474 Q 50.336626737712, 103.17273380459872, 52.55067252796946, 102.14874690454744 " fill="none" id="curve_14" stroke="#000000" stroke-linecap="round" stroke-linejoin="round" stroke-width="4.099588828949383"/>
  <path d="M 23.029974369460202, 87.70820020228425 Q 22.597288895602425, 85.75851155652842, 21.135736207024078, 84.55953183203125 " fill="none" id="curve_18" stroke="#000000" stroke-linecap="round" stroke-linejoin="round" stroke-width="4.725392122015482"/>
  <path d="M 38.097648963287924, 52.41687779690096 Q 46.97102692109431, 53.33204002035464, 54.06443006305096, 57.967960512894585 " fill="none" id="curve_46" stroke="#000000" stroke-linecap="round" stroke-linejoin="round" stroke-width="2.2343371734107356"/>
  <path d="M 19.501159516615463, 84.02051151935088 Q 21.5937047902951, 84.27622135061152, 24.02298959777139, 84.95403214851257 " fill="none" id="curve_101" stroke="#000000" stroke-linecap="round" stroke-linejoin="round" stroke-width="3.0002035447991338"/>
  <path d="M 34.27650727697315, 52.598901906057975 Q 36.08288312469696, 52.16884287571077, 43.01914554741505, 51.7255281208187 " fill="none" id="curve_106" stroke="#000000" stroke-linecap="round" stroke-linejoin="round" stroke-width="2.14900395415382"/>
  <path d="M 67.00486486990656, 78.08820869811007 Q 61.5889179728299, 77.59563394161654, 60.65598748542021, 70.42529480810111 " fill="none" id="curve_147" stroke="#000000" stroke-linecap="round" stroke-linejoin="round" stroke-width="3.9566674790651333"/>
</svg>
