<?xml version="1.0" ?>
<svg height="140" width="140" xmlns="http://www.w3.org/2000/svg">
  <path d="M 47.71671962738037, 104.00295829772949 Q 46.120953275030644, 106.55627662026842, 44.50753346989865, 109.76374386030676 " fill="none" id="curve_1" stroke="#000000" stroke-linecap="round" stroke-linejoin="round" stroke-width="3.4508455817812997"/>
  <path d="M 38.169028832899826, 108.01870077192511 Q 39.866712198827166, 104.86333554876751, 41.00602925759427, 94.81132223093394 " fill="none" id="curve_2" stroke="#000000" stroke-linecap="round" stroke-linejoin="round" stroke-width="3.157328566263195"/>
  <path d="M 46.4502701992264, 103.33581378494867 Q 49.185231230515114, 99.13400668004522, 51.66349734347215, 82.88765150370546 " fill="none" id="curve_3" stroke="#000000" stroke-linecap="round" stroke-linejoin="round" stroke-width="4.909975388750348"/>
  <path d="M 51.66349734347215, 82.88765150370546 Q 51.96914111339942, 77.009117866521, 52.344163811577566, 60.95499816803651 " fill="none" id="curve_3" stroke="#000000" stroke-linecap="round" stroke-linejoin="round" stroke-width="4.125995450098134"/>
  <path d="M 52.344163811577566, 60.95499816803651 Q 50.6816711624089, 51.676856614554396, 44.04288367162516, 33.810684961555424 " fill="none" id="curve_3" stroke="#000000" stroke-linecap="round" stroke-linejoin="round" stroke-width="4.1301367003236775"/>
  <path d="M 44.04288367162516, 33.810684961555424 Q 41.098576659162646, 23.941576108052352, 31.59365291249123, 14.161754722954676 " fill="none" id="curve_3" stroke="#000000" stroke-linecap="round" stroke-linejoin="round" stroke-width="4.1970576764426735"/>
  <path d="M 31.59365291249123, 14.161754722954676 Q 20.28173412611145, 15.064775857880786, 18.740449829717, 41.84071437775829 " fill="none" id="curve_3" stroke="#000000" stroke-linecap="round" stroke-linejoin="round" stroke-width="3.2018703994320306"/>
  <path d="M 18.740449829717, 41.84071437775829 Q 18.84003807885411, 69.6696200537118, 22.22066296570191, 74.82774905674519 " fill="none" id="curve_3" stroke="#000000" stroke-linecap="round" stroke-linejoin="round" stroke-width="1.9700986293496445"/>
  <path d="M 22.22066296570191, 74.82774905674519 Q 24.254010071632052, 92.02932177447046, 34.56422208626332, 108.37355105265195 " fill="none" id="curve_3" stroke="#000000" stroke-linecap="round" stroke-linejoin="round" stroke-width="3.47887110996842"/>
  <path d="M 34.56422208626332, 108.37355105265195 Q 33.81333825876238, 107.22280576931325, 32.79773135041529, 105.31319861996197 " fill="none" id="curve_3" stroke="#000000" stroke-linecap="round" stroke-linejoin="round" stroke-width="3.1932605572296335"/>
  <path d="M 32.79773135041529, 105.31319861996197 Q 27.8553780991356, 97.95077636581358, 22.982556832294073, 80.73978128677312 " fill="none" id="curve_3" stroke="#000000" stroke-linecap="round" stroke-linejoin="round" stroke-width="2.916889449426858"/>
  <path d="M 89.68670560062354, 138.1958824749455 Q 89.59934903217149, 133.92519843578984, 89.51500283690277, 121.02037499752663 " fill="none" id="curve_7" stroke="#000000" stroke-linecap="round" stroke-linejoin="round" stroke-width="1.7869035250835836"/>
  <path d="M 89.51500283690277, 121.02037499752663 Q 89.63811568475208, 117.8444767915989, 89.74820312231533, 110.08867590608276 " fill="none" id="curve_7" stroke="#000000" stroke-linecap="round" stroke-linejoin="round" stroke-width="1.7350717865111198"/>
  <path d="M 89.74820312231533, 110.08867590608276 Q 89.7010712397713, 105.39956602212635, 89.64246420769291, 95.18808234224858 " fill="none" id="curve_7" stroke="#000000" stroke-linecap="round" stroke-linejoin="round" stroke-width="1.6730428840861622"/>
  <path d="M 89.64246420769291, 95.18808234224858 Q 89.65611068910152, 90.42577714478486, 89.67585092764111, 81.70122220278705 " fill="none" id="curve_7" stroke="#000000" stroke-linecap="round" stroke-linejoin="round" stroke-width="1.5623863673046479"/>
  <path d="M 89.67585092764111, 81.70122220278705 Q 89.64324540420786, 77.87628118483673, 89.60465689665014, 68.00513303130225 " fill="none" id="curve_7" stroke="#000000" stroke-linecap="round" stroke-linejoin="round" stroke-width="1.501156006798159"/>
  <path d="M 89.60465689665014, 68.00513303130225 Q 89.5967055654255, 64.5778221403215, 89.58719805736544, 54.39748361450411 " fill="none" id="curve_7" stroke="#000000" stroke-linecap="round" stroke-linejoin="round" stroke-width="1.369093060887762"/>
  <path d="M 89.58719805736544, 54.39748361450411 Q 89.54255572058105, 52.597214503875925, 89.51267817728426, 41.80887709613919 " fill="none" id="curve_7" stroke="#000000" stroke-linecap="round" stroke-linejoin="round" stroke-width="1.4758165046686549"/>
  <path d="M 89.51267817728426, 41.80887709613919 Q 89.52184433521633, 37.62691986590642, 89.54146970920468, 28.4020691966641 " fill="none" id="curve_7" stroke="#000000" stroke-linecap="round" stroke-linejoin="round" stroke-width="1.4398458492325015"/>
  <path d="M 89.54146970920468, 28.4020691966641 Q 89.53465753325756, 25.127953076306554, 89.52502517514134, 15.333119497262246 " fill="none" id="curve_7" stroke="#000000" stroke-linecap="round" stroke-linejoin="round" stroke-width="1.4568113418946784"/>
  <path d="M 89.52502517514134, 15.333119497262246 Q 89.51077554006736, 8.220353200009626, 89.4314537804594, 2.1806346034634174 " fill="none" id="curve_7" stroke="#000000" stroke-linecap="round" stroke-linejoin="round" stroke-width="1.4265834567058517"/>
  <path d="M 89.4314537804594, 2.1806346034634174 Q 89.26245543877643, 1.7762866956068848, 89.00069369487667, 1.474696502648598 " fill="none" id="curve_7" stroke="#000000" stroke-linecap="round" stroke-linejoin="round" stroke-width="3.3486903431903885"/>
  <path d="M 25.049678505446064, 15.901656318196473 Q 22.087546980831622, 19.14987581260495, 19.69536702727239, 27.00238949249649 " fill="none" id="curve_16" stroke="#000000" stroke-linecap="round" stroke-linejoin="round" stroke-width="2.271884911364332"/>
  <path d="M 48.454970138632625, 41.33764061472534 Q 42.75056102128537, 33.648452277680555, 34.35351356423136, 16.474653773227768 " fill="none" id="curve_19" stroke="#000000" stroke-linecap="round" stroke-linejoin="round" stroke-width="2.5873047219266736"/>
  <path d="M 50.3466441324912, 60.09587461099 Q 49.98533002488994, 56.244633802267785, 49.336696286907625, 51.38833402608086 " fill="none" id="curve_21" stroke="#000000" stroke-linecap="round" stroke-linejoin="round" stroke-width="2.1448773988742684"/>
  <path d="M 43.385958943002336, 110.11400666504039 Q 43.69594781858369, 109.21192837445516, 44.179531312117334, 107.4602993217537 " fill="none" id="curve_24" stroke="#000000" stroke-linecap="round" stroke-linejoin="round" stroke-width="2.006809560189448"/>
  <path d="M 35.32522111025083, 106.37287947297172 Q 36.75627065661307, 106.32443042447952, 37.785740255322736, 106.20751339908207 " fill="none" id="curve_25" stroke="#000000" stroke-linecap="round" stroke-linejoin="round" stroke-width="4.075705818234809"/>
  <path d="M 29.760482549183653, 96.90771695579453 Q 29.555052244722596, 97.69064178905357, 29.25566438429244, 99.38373169379788 " fill="none" id="curve_61" stroke="#000000" stroke-linecap="round" stroke-linejoin="round" stroke-width="1.7302102654058917"/>
</svg>
