<?xml version="1.0" ?>
<svg height="140" width="140" xmlns="http://www.w3.org/2000/svg">
  <path d="M 89.22628372604674, 99.4051235636856 Q 89.19019719792102, 111.18828429255008, 89.00248316912314, 120.45483213153491 " fill="none" id="curve_2" stroke="#000000" stroke-linecap="round" stroke-linejoin="round" stroke-width="2.7366595106603895"/>
  <path d="M 89.00248316912314, 120.45483213153491 Q 88.99862310017473, 134.7286704327479, 88.97991396819774, 138.80947386584853 " fill="none" id="curve_2" stroke="#000000" stroke-linecap="round" stroke-linejoin="round" stroke-width="2.920209064206027"/>
  <path d="M 88.97991396819774, 138.80947386584853 Q 88.59639884326819, 138.46462787201858, 87.93475936914484, 138.1864545243593 " fill="none" id="curve_2" stroke="#000000" stroke-linecap="round" stroke-linejoin="round" stroke-width="2.7077676035009755"/>
  <path d="M 54.264718532141416, 103.16054655148135 Q 47.90942440722844, 104.31797930303632, 41.221101331261686, 107.96777242440398 " fill="none" id="curve_3" stroke="#000000" stroke-linecap="round" stroke-linejoin="round" stroke-width="7.136702043844088"/>
  <path d="M 41.221101331261686, 107.96777242440398 Q 40.62260234672804, 109.05291515752214, 35.27944760147178, 109.2196997761337 " fill="none" id="curve_3" stroke="#000000" stroke-linecap="round" stroke-linejoin="round" stroke-width="7.28179608798751"/>
  <path d="M 35.27944760147178, 109.2196997761337 Q 26.75302665938941, 108.86307783436686, 25.99042047261704, 97.28824445939804 " fill="none" id="curve_3" stroke="#000000" stroke-linecap="round" stroke-linejoin="round" stroke-width="7.485043799308314"/>
  <path d="M 25.99042047261704, 97.28824445939804 Q 26.41818306832831, 81.36946564819576, 30.47554450476005, 75.81838859768186 " fill="none" id="curve_3" stroke="#000000" stroke-linecap="round" stroke-linejoin="round" stroke-width="6.3262943987845865"/>
  <path d="M 30.47554450476005, 75.81838859768186 Q 34.72341274424384, 66.82586063394304, 55.496711805062816, 62.41360696519883 " fill="none" id="curve_3" stroke="#000000" stroke-linecap="round" stroke-linejoin="round" stroke-width="4.76928464464032"/>
  <path d="M 55.496711805062816, 62.41360696519883 Q 58.75825793945664, 66.27349244543083, 60.04644879179061, 74.58691704722463 " fill="none" id="curve_3" stroke="#000000" stroke-linecap="round" stroke-linejoin="round" stroke-width="5.407638022561021"/>
  <path d="M 60.04644879179061, 74.58691704722463 Q 57.64069941239275, 94.69815241127577, 47.99642429049887, 103.68387533979917 " fill="none" id="curve_3" stroke="#000000" stroke-linecap="round" stroke-linejoin="round" stroke-width="4.507245138842898"/>
  <path d="M 90.46569847259946, 96.65174680391976 Q 89.49138548099394, 96.04526773986343, 89.4013143820453, 72.43388485775658 " fill="none" id="curve_4" stroke="#000000" stroke-linecap="round" stroke-linejoin="round" stroke-width="2.662774717314118"/>
  <path d="M 89.4013143820453, 72.43388485775658 Q 89.39234140205862, 65.08051557384891, 89.37811579931022, 47.03205546663003 " fill="none" id="curve_4" stroke="#000000" stroke-linecap="round" stroke-linejoin="round" stroke-width="2.2390151651504198"/>
  <path d="M 89.37811579931022, 47.03205546663003 Q 89.36706450491923, 40.161157735664595, 89.3472798313544, 23.76286474694816 " fill="none" id="curve_4" stroke="#000000" stroke-linecap="round" stroke-linejoin="round" stroke-width="2.1419303859902343"/>
  <path d="M 89.3472798313544, 23.76286474694816 Q 89.31004142764502, 11.391608246212408, 88.99835795618418, 0.6573836814703107 " fill="none" id="curve_4" stroke="#000000" stroke-linecap="round" stroke-linejoin="round" stroke-width="2.3672717460297816"/>
  <path d="M 88.99835795618418, 0.6573836814703107 Q 88.59524053141264, 2.1420433961712924, 87.85985421642113, 3.322459483558223 " fill="none" id="curve_4" stroke="#000000" stroke-linecap="round" stroke-linejoin="round" stroke-width="2.8773205015164285"/>
  <path d="M 57.58816326173536, 79.87854735011963 Q 57.275634104046766, 89.8830197640714, 52.158372739535096, 93.72219038937753 " fill="none" id="curve_9" stroke="#000000" stroke-linecap="round" stroke-linejoin="round" stroke-width="2.584680475540597"/>
  <path d="M 59.366404088509555, 84.77616124312557 Q 58.549551064784204, 73.04198830363286, 55.74163310925192, 63.819060085071584 " fill="none" id="curve_10" stroke="#000000" stroke-linecap="round" stroke-linejoin="round" stroke-width="2.372686476928468"/>
  <path d="M 22.985376366150902, 87.54761444119586 Q 23.182938055273226, 98.05761407229791, 25.404901594000105, 99.61343966386733 " fill="none" id="curve_11" stroke="#000000" stroke-linecap="round" stroke-linejoin="round" stroke-width="3.407274506892131"/>
  <path d="M 45.75487655270551, 108.24558845313484 Q 46.773161949753316, 107.97350668548393, 47.32600056853785, 107.08597801878243 " fill="none" id="curve_12" stroke="#000000" stroke-linecap="round" stroke-linejoin="round" stroke-width="4.445699616737146"/>
  <path d="M 37.45240283118451, 68.24651826347187 Q 40.36924086150162, 63.77438441781577, 52.79112266331912, 61.730427077266995 " fill="none" id="curve_15" stroke="#000000" stroke-linecap="round" stroke-linejoin="round" stroke-width="2.716317527839196"/>
  <path d="M 53.68184990572015, 92.52303349412661 Q 58.19399736648952, 88.63195522087143, 60.50097037766194, 73.44164788176012 " fill="none" id="curve_19" stroke="#000000" stroke-linecap="round" stroke-linejoin="round" stroke-width="2.8667246902760013"/>
  <path d="M 54.016368527140415, 92.25194106726993 Q 58.47149319018613, 87.83129590787121, 61.2373137384517, 71.58628409066114 " fill="none" id="curve_20" stroke="#000000" stroke-linecap="round" stroke-linejoin="round" stroke-width="2.6055677699679984"/>
  <path d="M 61.2373137384517, 71.58628409066114 Q 58.33162826654341, 80.75242447153055, 54.47258424606788, 92.36859944952681 " fill="none" id="curve_20" stroke="#000000" stroke-linecap="round" stroke-linejoin="round" stroke-width="2.764600231050484"/>
  <path d="M 38.04056777626879, 67.87756872282681 Q 37.51210039573502, 67.31867457950024, 35.96394284788517, 66.83453798818871 " fill="none" id="curve_26" stroke="#000000" stroke-linecap="round" stroke-linejoin="round" stroke-width="3.013025810757175"/>
  <path d="M 59.27387940753742, 75.03044640147695 Q 58.6738187908046, 76.27715040327324, 58.25709372134891, 80.34851549106943 " fill="none" id="curve_29" stroke="#000000" stroke-linecap="round" stroke-linejoin="round" stroke-width="3.351057975336583"/>
  <path d="M 25.465493815290703, 97.2786493597197 Q 27.409648140192715, 99.88978971104954, 29.844834074681835, 104.20121038877217 " fill="none" id="curve_79" stroke="#000000" stroke-linecap="round" stroke-linejoin="round" stroke-width="2.7439345403765096"/>
  <path d="M 23.83781157461599, 85.06851630635316 Q 24.081124445047816, 85.14573935161798, 25.744875415141237, 85.19638238624609 " fill="none" id="curve_81" stroke="#000000" stroke-linecap="round" stroke-linejoin="round" stroke-width="1.9663880112268841"/>
  <path d="M 57.55742104755184, 77.22423336320534 Q 58.355951943558374, 75.675989734974, 59.87043088970342, 72.75127049288378 " fill="none" id="curve_82" stroke="#000000" stroke-linecap="round" stroke-linejoin="round" stroke-width="2.6035629264393174"/>
  <path d="M 60.52891410547818, 71.65505749505837 Q 60.409741610732524, 65.34073147250825, 52.845046521689326, 64.94320548167379 " fill="none" id="curve_110" stroke="#000000" stroke-linecap="round" stroke-linejoin="round" stroke-width="2.1135370716095285"/>
  <path d="M 58.49182570561487, 76.31890284867924 Q 59.45584436880674, 79.2052382946763, 60.210442029014594, 83.55293291569947 " fill="none" id="curve_111" stroke="#000000" stroke-linecap="round" stroke-linejoin="round" stroke-width="3.03639768290706"/>
  <path d="M 28.645681506135116, 99.53032087754082 Q 29.059412581851067, 100.81504141510933, 29.564827951413037, 103.3985156692911 " fill="none" id="curve_118" stroke="#000000" stroke-linecap="round" stroke-linejoin="round" stroke-width="2.761411498972028"/>
  <path d="M 58.69197884012275, 76.76475634278518 Q 58.27139486561534, 76.3665358585185, 57.590884759006556, 75.96651999601116 " fill="none" id="curve_124" stroke="#000000" stroke-linecap="round" stroke-linejoin="round" stroke-width="4.6537078487071595"/>
  <path d="M 89.50952762322834, 98.15008531861884 Q 89.1896644629955, 97.80765297135467, 88.86737422612109, 97.29994578617905 " fill="none" id="curve_152" stroke="#000000" stroke-linecap="round" stroke-linejoin="round" stroke-width="2.7658757477151"/>
  <path d="M 88.4267529042724, 114.5425609137668 Q 88.27129462333362, 114.6446298005649, 88.12096993797196, 114.81624163393636 " fill="none" id="curve_153" stroke="#000000" stroke-linecap="round" stroke-linejoin="round" stroke-width="3.0757963528828824"/>
</svg>
