<?xml version="1.0" ?>
<svg height="140" width="140" xmlns="http://www.w3.org/2000/svg">
  <path d="M 38.72229194641113, 48.86099624633789 Q 35.10561669814025, 50.30288928925807, 33.25605573855506, 62.09707966866881 " fill="none" id="curve_1" stroke="#000000" stroke-linecap="round" stroke-linejoin="round" stroke-width="3.962537452255514"/>
  <path d="M 33.25605573855506, 62.09707966866881 Q 33.43572726222145, 86.53630774636969, 39.63967047239887, 90.62535691934117 " fill="none" id="curve_1" stroke="#000000" stroke-linecap="round" stroke-linejoin="round" stroke-width="4.196307834349507"/>
  <path d="M 39.63967047239887, 90.62535691934117 Q 41.86542106470211, 92.5668588274102, 49.36511789913749, 93.36911137751815 " fill="none" id="curve_1" stroke="#000000" stroke-linecap="round" stroke-linejoin="round" stroke-width="4.419015269687562"/>
  <path d="M 49.36511789913749, 93.36911137751815 Q 63.55025158750668, 91.16252832154504, 71.22631743869046, 69.93924239678626 " fill="none" id="curve_1" stroke="#000000" stroke-linecap="round" stroke-linejoin="round" stroke-width="4.078349678332871"/>
  <path d="M 71.22631743869046, 69.93924239678626 Q 70.2549381364902, 56.01705198476012, 48.8991998488772, 52.423490766122015 " fill="none" id="curve_1" stroke="#000000" stroke-linecap="round" stroke-linejoin="round" stroke-width="3.7030251755716197"/>
  <path d="M 48.8991998488772, 52.423490766122015 Q 41.37422122584193, 51.31670735446795, 38.13300213857151, 47.09618979815251 " fill="none" id="curve_1" stroke="#000000" stroke-linecap="round" stroke-linejoin="round" stroke-width="5.3098833453799985"/>
  <path d="M 38.13300213857151, 47.09618979815251 Q 39.03209352966448, 40.329315153579934, 44.93524334698521, 38.175484715078795 " fill="none" id="curve_1" stroke="#000000" stroke-linecap="round" stroke-linejoin="round" stroke-width="1.9407017669573385"/>
  <path d="M 46.84742484693302, 35.992187252244975 Q 46.41602688037557, 36.358359081564444, 45.533968949984995, 36.7502462995068 " fill="none" id="curve_2" stroke="#000000" stroke-linecap="round" stroke-linejoin="round" stroke-width="2.644889156871341"/>
  <path d="M 41.96132601836806, 87.95986518853414 Q 40.84171956040832, 88.1911543419439, 39.888084702612346, 88.68136663259438 " fill="none" id="curve_4" stroke="#000000" stroke-linecap="round" stroke-linejoin="round" stroke-width="5.293743987084385"/>
  <path d="M 35.344483376273615, 53.71359268396902 Q 36.62300368610092, 52.30091042132498, 38.38702178505377, 49.673304579493454 " fill="none" id="curve_5" stroke="#000000" stroke-linecap="round" stroke-linejoin="round" stroke-width="3.1277639153534653"/>
  <path d="M 69.35012395416524, 68.30063502731807 Q 68.59978933216576, 65.59454257032095, 67.46765153650297, 61.04191633823352 " fill="none" id="curve_6" stroke="#000000" stroke-linecap="round" stroke-linejoin="round" stroke-width="2.3580533905243315"/>
  <path d="M 48.51371999689286, 50.23925870361427 Q 46.90011183910203, 50.07668183502157, 43.91749148122133, 49.86501518596898 " fill="none" id="curve_21" stroke="#000000" stroke-linecap="round" stroke-linejoin="round" stroke-width="2.4810689453797314"/>
  <path d="M 34.197333428867594, 57.79022788509525 Q 34.74252648997638, 56.1558865584965, 35.28442081434631, 52.921068030593844 " fill="none" id="curve_22" stroke="#000000" stroke-linecap="round" stroke-linejoin="round" stroke-width="2.8257081040426146"/>
  <path d="M 33.11566031878592, 67.73830717355014 Q 33.32716366650536, 69.76555377040309, 33.77857987467189, 74.75573151080252 " fill="none" id="curve_28" stroke="#000000" stroke-linecap="round" stroke-linejoin="round" stroke-width="2.155887769860973"/>
  <path d="M 38.71962977647323, 88.85786817638201 Q 36.9907340618697, 87.33282845322609, 34.590740698922446, 85.15684687100243 " fill="none" id="curve_44" stroke="#000000" stroke-linecap="round" stroke-linejoin="round" stroke-width="3.503903925594638"/>
  <path d="M 43.57253070547779, 86.81190307603633 Q 43.11542467016755, 87.06001020296411, 42.65106276555171, 87.57705983069184 " fill="none" id="curve_59" stroke="#000000" stroke-linecap="round" stroke-linejoin="round" stroke-width="2.513410282761465"/>
  <path d="M 58.957261362062596, 55.1899423108146 Q 60.504847504715705, 55.28937013973866, 62.195744072482235, 55.505977579182876 " fill="none" id="curve_62" stroke="#000000" stroke-linecap="round" stroke-linejoin="round" stroke-width="3.017289059785142"/>
  <path d="M 61.77845510740035, 83.02680222604992 Q 62.534378910146714, 83.16745761857912, 63.45961119902494, 83.4561693309182 " fill="none" id="curve_91" stroke="#000000" stroke-linecap="round" stroke-linejoin="round" stroke-width="3.0143412179938136"/>
  <path d="M 44.475712657691474, 94.60749008861194 Q 45.06000770033116, 93.48733150590948, 45.694775524816144, 91.76335228975739 " fill="none" id="curve_119" stroke="#000000" stroke-linecap="round" stroke-linejoin="round" stroke-width="2.9709094561305402"/>
  <path d="M 50.70342007245961, 36.39281951673356 Q 50.977693351501486, 36.864032666600764, 51.61381491896038, 37.57623222266967 " fill="none" id="curve_124" stroke="#000000" stroke-linecap="round" stroke-linejoin="round" stroke-width="1.58837752356448"/>
  <path d="M 67.58060041344953, 62.14510931521117 Q 66.19773924069032, 56.4055242722083, 57.99642260258, 53.23048402195495 " fill="none" id="curve_140" stroke="#000000" stroke-linecap="round" stroke-linejoin="round" stroke-width="2.1340251851842917"/>
  <path d="M 65.15112786118993, 84.83872985095178 Q 64.59055581145675, 84.37099307547282, 63.63222525578125, 83.76218579969765 " fill="none" id="curve_155" stroke="#000000" stroke-linecap="round" stroke-linejoin="round" stroke-width="2.6192125520626792"/>
  <path d="M 40.13932740130523, 48.320972525426875 Q 40.034506192205754, 47.94025282422642, 39.76256946996306, 47.55757991510453 " fill="none" id="curve_163" stroke="#000000" stroke-linecap="round" stroke-linejoin="round" stroke-width="4.403029273918785"/>
</svg>
