<?xml version="1.0" ?>
<svg height="140" width="140" xmlns="http://www.w3.org/2000/svg">
  <path d="M 39.5483922958374, 66.36205673217773 Q 40.059257402839634, 53.51398065684248, 47.127023887245514, 48.90755198213242 " fill="none" id="curve_1" stroke="#000000" stroke-linecap="round" stroke-linejoin="round" stroke-width="6.121221550633056"/>
  <path d="M 47.127023887245514, 48.90755198213242 Q 63.45795978931505, 48.98636106978994, 64.13609249574691, 55.16644393619835 " fill="none" id="curve_1" stroke="#000000" stroke-linecap="round" stroke-linejoin="round" stroke-width="4.98941732264869"/>
  <path d="M 64.13609249574691, 55.16644393619835 Q 64.03771428424105, 81.12859163990791, 52.028648424378495, 82.36043589854637 " fill="none" id="curve_1" stroke="#000000" stroke-linecap="round" stroke-linejoin="round" stroke-width="4.97854130505419"/>
  <path d="M 52.028648424378495, 82.36043589854637 Q 37.84161804081632, 82.12185363145026, 36.93093060324122, 66.63891079049475 " fill="none" id="curve_1" stroke="#000000" stroke-linecap="round" stroke-linejoin="round" stroke-width="5.36413541060345"/>
  <path d="M 36.93093060324122, 66.63891079049475 Q 38.722973489377075, 56.892728847397535, 50.133667620984, 53.52888084966196 " fill="none" id="curve_1" stroke="#000000" stroke-linecap="round" stroke-linejoin="round" stroke-width="4.654914601827842"/>
  <path d="M 89.42864069725411, 56.58597096269775 Q 89.49807712738382, 65.08279423934452, 89.66365067583402, 89.80761764365818 " fill="none" id="curve_3" stroke="#000000" stroke-linecap="round" stroke-linejoin="round" stroke-width="1.752060914899723"/>
  <path d="M 89.66365067583402, 89.80761764365818 Q 89.65804710980439, 104.44490793784904, 89.62116308566861, 117.54833818426678 " fill="none" id="curve_3" stroke="#000000" stroke-linecap="round" stroke-linejoin="round" stroke-width="1.5616772114128257"/>
  <path d="M 89.62116308566861, 117.54833818426678 Q 89.58917093506506, 135.3438692468481, 89.35429469328197, 139.23620812826846 " fill="none" id="curve_3" stroke="#000000" stroke-linecap="round" stroke-linejoin="round" stroke-width="2.1291143978896856"/>
  <path d="M 89.35429469328197, 139.23620812826846 Q 89.26236739710535, 138.7173848869309, 89.09492304842095, 138.21023618396387 " fill="none" id="curve_3" stroke="#000000" stroke-linecap="round" stroke-linejoin="round" stroke-width="1.9737493806571043"/>
  <path d="M 63.42413086722901, 73.24340130261041 Q 64.51767269097013, 68.67539412402333, 66.37466941766756, 62.658574550532414 " fill="none" id="curve_6" stroke="#000000" stroke-linecap="round" stroke-linejoin="round" stroke-width="2.299123888935501"/>
  <path d="M 66.37466941766756, 62.658574550532414 Q 63.277879804304185, 59.13907365316285, 59.00770147703522, 52.79195157950463 " fill="none" id="curve_6" stroke="#000000" stroke-linecap="round" stroke-linejoin="round" stroke-width="3.6018077030370783"/>
  <path d="M 50.70909922337816, 56.00677539729955 Q 50.63179258927632, 55.786337505271106, 50.567668954587774, 55.35874590373214 " fill="none" id="curve_7" stroke="#000000" stroke-linecap="round" stroke-linejoin="round" stroke-width="3.9279372153644743"/>
  <path d="M 41.58130561895, 57.083488469085296 Q 41.66484887349056, 60.58916220853032, 42.334807955338384, 61.64612847274351 " fill="none" id="curve_8" stroke="#000000" stroke-linecap="round" stroke-linejoin="round" stroke-width="3.8467986017916274"/>
  <path d="M 39.54680221164715, 72.1743453033351 Q 38.344965994906616, 69.66432346937485, 37.332116337104374, 62.16102982755605 " fill="none" id="curve_9" stroke="#000000" stroke-linecap="round" stroke-linejoin="round" stroke-width="2.104107762983853"/>
  <path d="M 37.332116337104374, 62.16102982755605 Q 39.277129899889495, 58.65152398447879, 41.31928978691738, 53.84233749811272 " fill="none" id="curve_9" stroke="#000000" stroke-linecap="round" stroke-linejoin="round" stroke-width="3.3103797903862"/>
  <path d="M 89.71190952036537, 52.57586005091649 Q 89.67748594415175, 50.04511073977568, 89.65297881318394, 34.77040701005936 " fill="none" id="curve_11" stroke="#000000" stroke-linecap="round" stroke-linejoin="round" stroke-width="1.6802980826527545"/>
  <path d="M 89.65297881318394, 34.77040701005936 Q 89.59192320446392, 32.043094392933625, 89.54722832288313, 21.99191861693742 " fill="none" id="curve_11" stroke="#000000" stroke-linecap="round" stroke-linejoin="round" stroke-width="1.5757434098347534"/>
  <path d="M 89.54722832288313, 21.99191861693742 Q 89.54116349918756, 17.00568721839328, 89.53072003459286, 7.645438080300664 " fill="none" id="curve_11" stroke="#000000" stroke-linecap="round" stroke-linejoin="round" stroke-width="1.421304522850848"/>
  <path d="M 89.53072003459286, 7.645438080300664 Q 89.33196252769531, 4.473845425889137, 89.03263685932727, 0.9961467553176009 " fill="none" id="curve_11" stroke="#000000" stroke-linecap="round" stroke-linejoin="round" stroke-width="2.3081654605395996"/>
  <path d="M 88.75314544020917, 26.579336874079665 Q 88.85050778934101, 26.190290854272337, 88.99370377606667, 25.744355285615114 " fill="none" id="curve_13" stroke="#000000" stroke-linecap="round" stroke-linejoin="round" stroke-width="1.7024896163622643"/>
  <path d="M 65.42622980851401, 68.9441257766037 Q 63.73175869976872, 76.10814800107633, 51.98226310657458, 79.81837305018105 " fill="none" id="curve_16" stroke="#000000" stroke-linecap="round" stroke-linejoin="round" stroke-width="2.6993840343255533"/>
  <path d="M 37.37986961715871, 75.88521307021979 Q 37.470643672378586, 75.06677683811215, 37.73025771340602, 74.62260288688944 " fill="none" id="curve_17" stroke="#000000" stroke-linecap="round" stroke-linejoin="round" stroke-width="4.245793460414494"/>
  <path d="M 58.44456475848229, 48.89582209682078 Q 55.906274469654036, 48.71563745203946, 50.59334489216754, 48.41212846141042 " fill="none" id="curve_20" stroke="#000000" stroke-linecap="round" stroke-linejoin="round" stroke-width="2.8062704889838304"/>
  <path d="M 52.466240892953714, 82.87977331575294 Q 47.5181626764406, 80.73583137209593, 39.02611773509861, 75.85186065169347 " fill="none" id="curve_26" stroke="#000000" stroke-linecap="round" stroke-linejoin="round" stroke-width="3.0206540945862836"/>
  <path d="M 89.02485105656069, 55.78221913557809 Q 89.41146765759235, 55.488089469382516, 89.91628598861499, 54.924540989853455 " fill="none" id="curve_54" stroke="#000000" stroke-linecap="round" stroke-linejoin="round" stroke-width="1.7063787113230278"/>
  <path d="M 62.46229693997698, 54.10522000471802 Q 62.05401660895573, 48.34709362034792, 54.14231250899441, 47.28511002868478 " fill="none" id="curve_55" stroke="#000000" stroke-linecap="round" stroke-linejoin="round" stroke-width="2.073979399798651"/>
</svg>
