<?xml version="1.0" ?>
<svg height="140" width="140" xmlns="http://www.w3.org/2000/svg">
  <path d="M 89.34303092956543, 2.602193832397461 Q 89.4467876181106, 2.163222113357879, 89.65148962081108, 1.5724316292613878 " fill="none" id="curve_1" stroke="#000000" stroke-linecap="round" stroke-linejoin="round" stroke-width="2.000885112492819"/>
  <path d="M 60.46341332315697, 85.99679693175273 Q 60.44972038036045, 100.95691014680114, 60.28340993512938, 104.8727098997188 " fill="none" id="curve_4" stroke="#000000" stroke-linecap="round" stroke-linejoin="round" stroke-width="3.834822779708406"/>
  <path d="M 60.28340993512938, 104.8727098997188 Q 57.49380632255623, 119.89249779768718, 35.555186543414166, 126.78940685565865 " fill="none" id="curve_4" stroke="#000000" stroke-linecap="round" stroke-linejoin="round" stroke-width="4.332441202154853"/>
  <path d="M 35.555186543414166, 126.78940685565865 Q 18.67898554134764, 126.76068756939239, 17.635844847144973, 125.57682357042243 " fill="none" id="curve_4" stroke="#000000" stroke-linecap="round" stroke-linejoin="round" stroke-width="4.846276054690717"/>
  <path d="M 17.635844847144973, 125.57682357042243 Q 12.826390360199024, 123.12093200169156, 10.195629975221639, 115.05109207077112 " fill="none" id="curve_4" stroke="#000000" stroke-linecap="round" stroke-linejoin="round" stroke-width="4.62176580691343"/>
  <path d="M 10.195629975221639, 115.05109207077112 Q 13.182866590954985, 101.28518075534895, 29.24970303584454, 86.73109856781254 " fill="none" id="curve_4" stroke="#000000" stroke-linecap="round" stroke-linejoin="round" stroke-width="5.180102603210905"/>
  <path d="M 29.24970303584454, 86.73109856781254 Q 33.826119772896774, 83.00729824902594, 45.825707838886814, 81.01026617787991 " fill="none" id="curve_4" stroke="#000000" stroke-linecap="round" stroke-linejoin="round" stroke-width="4.9464310508788625"/>
  <path d="M 45.825707838886814, 81.01026617787991 Q 45.392536024686805, 84.68176316459233, 43.337446040305686, 86.66595341718767 " fill="none" id="curve_4" stroke="#000000" stroke-linecap="round" stroke-linejoin="round" stroke-width="4.482893711318447"/>
  <path d="M 47.283113897460915, 81.52634813282462 Q 59.43770520084688, 81.75677592738288, 60.15917027754792, 87.98154595404691 " fill="none" id="curve_5" stroke="#000000" stroke-linecap="round" stroke-linejoin="round" stroke-width="4.396534403148926"/>
  <path d="M 60.15917027754792, 87.98154595404691 Q 62.14546988031774, 88.92417491637102, 62.31754130926905, 101.27918254707542 " fill="none" id="curve_5" stroke="#000000" stroke-linecap="round" stroke-linejoin="round" stroke-width="2.817470538182717"/>
  <path d="M 62.31754130926905, 101.27918254707542 Q 57.82642476711715, 108.15576216622266, 49.14690286368921, 119.08950334652481 " fill="none" id="curve_5" stroke="#000000" stroke-linecap="round" stroke-linejoin="round" stroke-width="2.767361560322246"/>
  <path d="M 29.26500070705937, 127.38979036950869 Q 26.73512421679284, 128.05541698183652, 21.31477110169514, 128.41963274061033 " fill="none" id="curve_6" stroke="#000000" stroke-linecap="round" stroke-linejoin="round" stroke-width="2.491244865753981"/>
  <path d="M 44.670877748135595, 86.61057262588598 Q 44.68693208056764, 87.9372778258883, 44.73230459855839, 88.8032045550369 " fill="none" id="curve_9" stroke="#000000" stroke-linecap="round" stroke-linejoin="round" stroke-width="2.7841786010497445"/>
  <path d="M 22.665677212187894, 91.8761526034104 Q 20.305604851499176, 94.78925917207528, 16.79209295584222, 99.14707299900408 " fill="none" id="curve_10" stroke="#000000" stroke-linecap="round" stroke-linejoin="round" stroke-width="3.2714600436116723"/>
  <path d="M 57.71243160639023, 87.47003017624704 Q 57.14253408218958, 82.1652926243598, 52.18714928367038, 80.52771093019965 " fill="none" id="curve_26" stroke="#000000" stroke-linecap="round" stroke-linejoin="round" stroke-width="2.451196866570543"/>
  <path d="M 52.18714928367038, 80.52771093019965 Q 34.148507650475, 80.94094563558748, 29.48660148440343, 85.3158673618486 " fill="none" id="curve_26" stroke="#000000" stroke-linecap="round" stroke-linejoin="round" stroke-width="2.621505503781942"/>
  <path d="M 58.83410171248631, 106.42369312517803 Q 59.49353217941812, 101.53294815871409, 61.437296203859894, 97.55028921498428 " fill="none" id="curve_67" stroke="#000000" stroke-linecap="round" stroke-linejoin="round" stroke-width="2.626525751920892"/>
  <path d="M 36.64716505705365, 125.452705363645 Q 38.27779023880978, 124.82644545918276, 40.67433235713983, 124.11654516970313 " fill="none" id="curve_88" stroke="#000000" stroke-linecap="round" stroke-linejoin="round" stroke-width="2.832622786703398"/>
  <path d="M 24.162067266016518, 89.48972054801311 Q 20.503473620043685, 91.71021811840751, 16.15974824137671, 100.45511479567278 " fill="none" id="curve_89" stroke="#000000" stroke-linecap="round" stroke-linejoin="round" stroke-width="2.1995245695648897"/>
  <path d="M 40.82210999643303, 80.0526578479255 Q 39.20604155618536, 80.35199270107908, 37.25345805899211, 80.86494092093781 " fill="none" id="curve_117" stroke="#000000" stroke-linecap="round" stroke-linejoin="round" stroke-width="2.2152614655998195"/>
  <path d="M 55.993854793860464, 85.15047736050383 Q 56.25600658832206, 84.16760314583154, 56.662582951764236, 82.98895869825958 " fill="none" id="curve_145" stroke="#000000" stroke-linecap="round" stroke-linejoin="round" stroke-width="4.125026099131137"/>
  <path d="M 56.662582951764236, 82.98895869825958 Q 56.8204040847559, 82.7826774313848, 57.11593243847838, 82.48206035552995 " fill="none" id="curve_145" stroke="#000000" stroke-linecap="round" stroke-linejoin="round" stroke-width="2.9689101470327444"/>
</svg>
