<?xml version="1.0" ?>
<svg height="140" width="140" xmlns="http://www.w3.org/2000/svg">
  <path d="M 30.685715675354004, 52.07310676574707 Q 28.84418326818114, 51.73870639485926, 25.647393198128157, 50.15505202046603 " fill="none" id="curve_1" stroke="#000000" stroke-linecap="round" stroke-linejoin="round" stroke-width="5.933624888676599"/>
  <path d="M 25.647393198128157, 50.15505202046603 Q 22.013805296128147, 59.45156415889006, 15.76799890772417, 70.57322737190049 " fill="none" id="curve_1" stroke="#000000" stroke-linecap="round" stroke-linejoin="round" stroke-width="4.830884976500679"/>
  <path d="M 15.76799890772417, 70.57322737190049 Q 15.81748055134285, 105.20702245890126, 26.58334573822286, 106.08869958766012 " fill="none" id="curve_1" stroke="#000000" stroke-linecap="round" stroke-linejoin="round" stroke-width="4.29010697151163"/>
  <path d="M 26.58334573822286, 106.08869958766012 Q 31.666688646704525, 106.25290325925283, 35.33827970822058, 107.01675693577327 " fill="none" id="curve_1" stroke="#000000" stroke-linecap="round" stroke-linejoin="round" stroke-width="4.285225815652048"/>
  <path d="M 35.33827970822058, 107.01675693577327 Q 60.15038295641439, 104.8028835476013, 67.52658914500824, 84.40098977885114 " fill="none" id="curve_1" stroke="#000000" stroke-linecap="round" stroke-linejoin="round" stroke-width="4.434916934744377"/>
  <path d="M 67.52658914500824, 84.40098977885114 Q 72.40457938169571, 77.68763930736851, 76.26207196528071, 59.37748546016129 " fill="none" id="curve_1" stroke="#000000" stroke-linecap="round" stroke-linejoin="round" stroke-width="4.034089086291823"/>
  <path d="M 76.26207196528071, 59.37748546016129 Q 75.54102685922803, 38.97612115239366, 57.19261134332494, 35.22595687072496 " fill="none" id="curve_1" stroke="#000000" stroke-linecap="round" stroke-linejoin="round" stroke-width="5.843085269397851"/>
  <path d="M 57.19261134332494, 35.22595687072496 Q 38.254411009292426, 36.80482926457804, 28.167742346528176, 50.659918829475686 " fill="none" id="curve_1" stroke="#000000" stroke-linecap="round" stroke-linejoin="round" stroke-width="5.192871231485137"/>
  <path d="M 55.38125867138004, 43.231796880174066 Q 56.31144055371713, 39.74826884305794, 61.15426138126974, 38.51445546207859 " fill="none" id="curve_2" stroke="#000000" stroke-linecap="round" stroke-linejoin="round" stroke-width="6.209838132574944"/>
  <path d="M 61.15426138126974, 38.51445546207859 Q 61.55809176177482, 40.569410798830795, 62.75355773498896, 41.55359652624112 " fill="none" id="curve_2" stroke="#000000" stroke-linecap="round" stroke-linejoin="round" stroke-width="6.7707895901809865"/>
  <path d="M 13.172188339228946, 75.95201973617242 Q 13.340099431525823, 103.59100595492929, 26.060559057475956, 104.73303147276548 " fill="none" id="curve_4" stroke="#000000" stroke-linecap="round" stroke-linejoin="round" stroke-width="3.9045641956414894"/>
  <path d="M 44.12644652523772, 103.97214453343156 Q 36.24877016641874, 105.04340820064857, 32.46233896766648, 108.36227362811437 " fill="none" id="curve_5" stroke="#000000" stroke-linecap="round" stroke-linejoin="round" stroke-width="3.5525797562068195"/>
  <path d="M 32.46233896766648, 108.36227362811437 Q 28.222577955636645, 103.87202139088681, 18.32761654775632, 100.08369314447292 " fill="none" id="curve_5" stroke="#000000" stroke-linecap="round" stroke-linejoin="round" stroke-width="2.8767738798288884"/>
  <path d="M 17.083590082575007, 73.73436754633403 Q 17.36319089936075, 58.963191556426736, 24.89872894963137, 56.089927698089475 " fill="none" id="curve_6" stroke="#000000" stroke-linecap="round" stroke-linejoin="round" stroke-width="2.994310379562413"/>
  <path d="M 62.99612582510391, 34.65829385310751 Q 61.42061562633518, 33.7692968250777, 53.82449324108586, 33.237347637979965 " fill="none" id="curve_8" stroke="#000000" stroke-linecap="round" stroke-linejoin="round" stroke-width="2.2485055450736433"/>
  <path d="M 66.2949511889957, 41.448351501162485 Q 73.45141146840457, 44.72221697126517, 76.27253629505593, 56.19661664814961 " fill="none" id="curve_15" stroke="#000000" stroke-linecap="round" stroke-linejoin="round" stroke-width="2.439191776773509"/>
  <path d="M 76.27253629505593, 56.19661664814961 Q 74.1958431724307, 58.34386945536768, 73.55992755897947, 67.50589624263583 " fill="none" id="curve_15" stroke="#000000" stroke-linecap="round" stroke-linejoin="round" stroke-width="3.015120837804692"/>
  <path d="M 71.72075723571487, 46.227077204636814 Q 73.92338724663907, 50.33297887481575, 76.12883095808981, 56.50230950779369 " fill="none" id="curve_16" stroke="#000000" stroke-linecap="round" stroke-linejoin="round" stroke-width="2.99862676186031"/>
  <path d="M 67.22167680818123, 85.39794211434561 Q 62.908578347152236, 92.2615960958951, 55.612886830261445, 99.51114017136081 " fill="none" id="curve_17" stroke="#000000" stroke-linecap="round" stroke-linejoin="round" stroke-width="3.2465871472376278"/>
  <path d="M 34.41565810800827, 106.47310537272278 Q 51.07152694382293, 104.56997825884403, 59.045062058150236, 97.73291841192408 " fill="none" id="curve_19" stroke="#000000" stroke-linecap="round" stroke-linejoin="round" stroke-width="3.131959308263782"/>
  <path d="M 59.045062058150236, 97.73291841192408 Q 64.23114769591973, 90.76665298868554, 70.06935276974983, 78.0705158799511 " fill="none" id="curve_19" stroke="#000000" stroke-linecap="round" stroke-linejoin="round" stroke-width="2.904648918796918"/>
  <path d="M 53.79765507905479, 46.59055006666881 Q 54.72230943791009, 46.18654195394729, 55.25999565184279, 44.50653691781495 " fill="none" id="curve_20" stroke="#000000" stroke-linecap="round" stroke-linejoin="round" stroke-width="2.825050883647489"/>
  <path d="M 39.00384072745976, 38.71823213864505 Q 32.450730456565054, 40.23622068150442, 29.392656097510695, 48.12670172277993 " fill="none" id="curve_21" stroke="#000000" stroke-linecap="round" stroke-linejoin="round" stroke-width="2.828600507499153"/>
  <path d="M 15.236155184212294, 66.82395218538878 Q 18.890825109626036, 62.49099126460013, 24.862818227362148, 56.17893003137112 " fill="none" id="curve_22" stroke="#000000" stroke-linecap="round" stroke-linejoin="round" stroke-width="2.274121131771144"/>
  <path d="M 75.28521871903577, 55.86384435975499 Q 76.1702492629148, 55.116137552950654, 77.01247202630921, 53.7847244473543 " fill="none" id="curve_25" stroke="#000000" stroke-linecap="round" stroke-linejoin="round" stroke-width="3.136499687008444"/>
  <path d="M 77.01247202630921, 53.7847244473543 Q 75.32657901557239, 51.33402899651572, 72.0598173240433, 49.05986152428596 " fill="none" id="curve_25" stroke="#000000" stroke-linecap="round" stroke-linejoin="round" stroke-width="2.9192361926401413"/>
  <path d="M 53.55946550509992, 33.471776966515606 Q 47.49604610970235, 34.68889970401573, 43.32314059984358, 38.32156739775438 " fill="none" id="curve_26" stroke="#000000" stroke-linecap="round" stroke-linejoin="round" stroke-width="2.8353348256846913"/>
  <path d="M 62.637371600263435, 89.21999975021242 Q 63.122109191286086, 89.4021947513899, 63.75845048583639, 89.84116453573222 " fill="none" id="curve_41" stroke="#000000" stroke-linecap="round" stroke-linejoin="round" stroke-width="2.8110287246508623"/>
  <path d="M 56.584956751489926, 97.13735497892372 Q 54.16927315064131, 101.27433650011739, 45.03697964571403, 103.65370443627897 " fill="none" id="curve_56" stroke="#000000" stroke-linecap="round" stroke-linejoin="round" stroke-width="2.5922469399052908"/>
  <path d="M 42.773112323767634, 105.17782720856303 Q 39.4345579210981, 105.33812501082559, 36.31111660748695, 105.79600092693862 " fill="none" id="curve_58" stroke="#000000" stroke-linecap="round" stroke-linejoin="round" stroke-width="3.7113112204627785"/>
  <path d="M 12.493724122351999, 85.1894209029999 Q 13.569399311583831, 93.63657472635984, 16.519432273929723, 100.73013896625065 " fill="none" id="curve_126" stroke="#000000" stroke-linecap="round" stroke-linejoin="round" stroke-width="1.9587439127969424"/>
  <path d="M 75.19415071549206, 56.290701854098955 Q 75.01932725557394, 52.54645825474209, 73.93028404920739, 50.40985768312028 " fill="none" id="curve_142" stroke="#000000" stroke-linecap="round" stroke-linejoin="round" stroke-width="2.6071770085365134"/>
  <path d="M 29.64346174701606, 107.95368203052415 Q 31.273362554932426, 107.38967858607622, 33.52542286252381, 106.46260053997851 " fill="none" id="curve_146" stroke="#000000" stroke-linecap="round" stroke-linejoin="round" stroke-width="2.9192954503717243"/>
  <path d="M 25.286525270772074, 54.404112133540366 Q 26.704747941825943, 53.79961167809579, 28.52311542052057, 51.69085761756014 " fill="none" id="curve_161" stroke="#000000" stroke-linecap="round" stroke-linejoin="round" stroke-width="2.2041832229620506"/>
</svg>
