<?xml version="1.0" ?>
<svg height="140" width="140" xmlns="http://www.w3.org/2000/svg">
  <path d="M 20.58732032775879, 90.08289384841919 Q 20.679569031514877, 70.01933994409525, 23.58251862129208, 67.22356580187034 " fill="none" id="curve_1" stroke="#000000" stroke-linecap="round" stroke-linejoin="round" stroke-width="5.41144349219246"/>
  <path d="M 23.58251862129208, 67.22356580187034 Q 27.822804342336944, 56.470432496594455, 41.90522991268705, 48.02580250841777 " fill="none" id="curve_1" stroke="#000000" stroke-linecap="round" stroke-linejoin="round" stroke-width="4.572364574356864"/>
  <path d="M 41.90522991268705, 48.02580250841777 Q 53.004556515219946, 48.26639841566407, 53.70349915240257, 54.660932614267786 " fill="none" id="curve_1" stroke="#000000" stroke-linecap="round" stroke-linejoin="round" stroke-width="5.559109070543531"/>
  <path d="M 53.70349915240257, 54.660932614267786 Q 53.58083302465748, 70.53792826702502, 52.82786492437346, 74.33485927809599 " fill="none" id="curve_1" stroke="#000000" stroke-linecap="round" stroke-linejoin="round" stroke-width="4.38303877404363"/>
  <path d="M 54.62607958516502, 83.04981348850274 Q 51.55988899369915, 98.70559244107957, 32.92878771108645, 109.21068529739452 " fill="none" id="curve_2" stroke="#000000" stroke-linecap="round" stroke-linejoin="round" stroke-width="4.5849339500767705"/>
  <path d="M 32.92878771108645, 109.21068529739452 Q 25.959438795754885, 109.14245191008999, 25.147175466959556, 107.85878579448027 " fill="none" id="curve_2" stroke="#000000" stroke-linecap="round" stroke-linejoin="round" stroke-width="5.212422074658329"/>
  <path d="M 25.147175466959556, 107.85878579448027 Q 21.042273941049707, 102.91686006010983, 18.18893044595674, 82.91367665885724 " fill="none" id="curve_2" stroke="#000000" stroke-linecap="round" stroke-linejoin="round" stroke-width="6.031297531377854"/>
  <path d="M 18.18893044595674, 82.91367665885724 Q 19.168451325878266, 74.20331710104574, 24.03263276997849, 71.12444076955516 " fill="none" id="curve_2" stroke="#000000" stroke-linecap="round" stroke-linejoin="round" stroke-width="3.5050049760742987"/>
  <path d="M 27.10529650086185, 109.3093729341184 Q 34.11709479923239, 106.63722857853786, 43.62881035008351, 103.29230491677693 " fill="none" id="curve_3" stroke="#000000" stroke-linecap="round" stroke-linejoin="round" stroke-width="3.6030772968588565"/>
  <path d="M 43.62881035008351, 103.29230491677693 Q 47.73433318962976, 96.77787589574214, 52.71037597645482, 86.85171515259745 " fill="none" id="curve_3" stroke="#000000" stroke-linecap="round" stroke-linejoin="round" stroke-width="3.635163196894214"/>
  <path d="M 36.012351314350695, 107.01111842043365 Q 33.991982350632775, 109.43027490857162, 29.430621252890642, 110.68730608326506 " fill="none" id="curve_4" stroke="#000000" stroke-linecap="round" stroke-linejoin="round" stroke-width="4.0535234995094"/>
  <path d="M 29.430621252890642, 110.68730608326506 Q 36.387958865212994, 107.28264475115267, 42.27852029167716, 101.2703411298972 " fill="none" id="curve_4" stroke="#000000" stroke-linecap="round" stroke-linejoin="round" stroke-width="3.3597829316290384"/>
  <path d="M 32.96496654942068, 51.7250177676967 Q 35.01288632652098, 50.600323385922124, 42.6753388699143, 49.8209759936377 " fill="none" id="curve_6" stroke="#000000" stroke-linecap="round" stroke-linejoin="round" stroke-width="2.953322181365971"/>
  <path d="M 32.968619034485975, 51.9701945860495 Q 35.34992203088951, 49.9253312314533, 43.287096924238085, 48.776268695594915 " fill="none" id="curve_9" stroke="#000000" stroke-linecap="round" stroke-linejoin="round" stroke-width="2.656398037204586"/>
  <path d="M 50.96870280348022, 76.07610106554152 Q 51.04216673079065, 75.53169390792478, 51.16578511780998, 74.84303477103943 " fill="none" id="curve_11" stroke="#000000" stroke-linecap="round" stroke-linejoin="round" stroke-width="2.5654025582626363"/>
  <path d="M 37.097560339412475, 104.91999287464162 Q 35.54377633677577, 106.48913427288049, 32.90546531230981, 108.28836373938195 " fill="none" id="curve_13" stroke="#000000" stroke-linecap="round" stroke-linejoin="round" stroke-width="6.531717987187573"/>
  <path d="M 32.90546531230981, 108.28836373938195 Q 36.48701318537757, 107.7213825178843, 38.80806001623789, 106.40371228473055 " fill="none" id="curve_13" stroke="#000000" stroke-linecap="round" stroke-linejoin="round" stroke-width="5.3162549723168215"/>
  <path d="M 43.36083485285709, 49.87358967299765 Q 38.83111506135344, 50.34657459019594, 32.38090317588861, 51.33849106731712 " fill="none" id="curve_16" stroke="#000000" stroke-linecap="round" stroke-linejoin="round" stroke-width="2.7025767402595164"/>
  <path d="M 89.06383757139385, 25.601849655508186 Q 89.20826114404967, 21.53049014648849, 89.34944507018429, 5.337337373732105 " fill="none" id="curve_21" stroke="#000000" stroke-linecap="round" stroke-linejoin="round" stroke-width="1.3647220432048697"/>
  <path d="M 89.34944507018429, 5.337337373732105 Q 89.19629427722515, 2.0811729832217765, 87.9955745023778, 1.3925088980333262 " fill="none" id="curve_21" stroke="#000000" stroke-linecap="round" stroke-linejoin="round" stroke-width="3.7714961667503104"/>
  <path d="M 90.02576297325633, 32.69577321683763 Q 89.7945378688511, 43.317815342080515, 89.30476423537064, 53.51818942030487 " fill="none" id="curve_22" stroke="#000000" stroke-linecap="round" stroke-linejoin="round" stroke-width="1.4514273266602966"/>
  <path d="M 89.17147244701344, 115.8368004756342 Q 89.38797416561707, 113.14692314586591, 89.53617985115343, 104.74573558672213 " fill="none" id="curve_25" stroke="#000000" stroke-linecap="round" stroke-linejoin="round" stroke-width="1.888569450809726"/>
  <path d="M 88.92183348289595, 90.76435458785465 Q 89.4819399260902, 92.23937186022705, 89.74083827772192, 98.22555124298835 " fill="none" id="curve_27" stroke="#000000" stroke-linecap="round" stroke-linejoin="round" stroke-width="1.038751014000843"/>
  <path d="M 89.48025547712152, 85.13312423086245 Q 89.42855307195086, 85.13318286829447, 89.36811230120549, 85.13328726211138 " fill="none" id="curve_28" stroke="#000000" stroke-linecap="round" stroke-linejoin="round" stroke-width="1.678731048846138"/>
  <path d="M 89.2868005151561, 77.19779655132466 Q 89.37407978633321, 77.12224526264784, 89.50134662867717, 76.98824021152365 " fill="none" id="curve_29" stroke="#000000" stroke-linecap="round" stroke-linejoin="round" stroke-width="1.448324962241545"/>
  <path d="M 90.60523986816406, 59.47042775154114 Q 90.05973034225596, 59.35298841592864, 88.91485539963844, 59.17414300787764 " fill="none" id="curve_43" stroke="#000000" stroke-linecap="round" stroke-linejoin="round" stroke-width="1.705233254450084"/>
  <path d="M 89.4184305082931, 68.45332015370819 Q 89.65826609253939, 68.48799092850132, 90.02788851472401, 68.55563777923325 " fill="none" id="curve_44" stroke="#000000" stroke-linecap="round" stroke-linejoin="round" stroke-width="1.7274571548273576"/>
  <path d="M 52.73698745785403, 52.774662671079994 Q 50.439950534256845, 50.05852516165644, 42.346919380255464, 48.22375185613643 " fill="none" id="curve_45" stroke="#000000" stroke-linecap="round" stroke-linejoin="round" stroke-width="2.803899398212322"/>
  <path d="M 89.15189743041992, 133.51507568359375 Q 89.22145729578595, 136.77463241855696, 89.58709657472143, 138.30275768032246 " fill="none" id="curve_59" stroke="#000000" stroke-linecap="round" stroke-linejoin="round" stroke-width="1.8218687473002748"/>
  <path d="M 89.21610367499504, 119.80353841629535 Q 89.4267503006539, 118.44854241598593, 89.70280695048046, 116.55120388549808 " fill="none" id="curve_60" stroke="#000000" stroke-linecap="round" stroke-linejoin="round" stroke-width="1.562325064925354"/>
  <path d="M 89.58554611222762, 129.88745373375338 Q 89.53530254093357, 129.90653119239784, 89.4515993211593, 129.93537552795647 " fill="none" id="curve_61" stroke="#000000" stroke-linecap="round" stroke-linejoin="round" stroke-width="1.6576878910750945"/>
  <path d="M 89.04306102242933, 81.88030909035389 Q 89.39897105476962, 81.99516697529381, 89.88918201425567, 82.25676841964915 " fill="none" id="curve_66" stroke="#000000" stroke-linecap="round" stroke-linejoin="round" stroke-width="1.4479043715195279"/>
  <path d="M 32.61383642780079, 51.72524499046594 Q 29.29710654727467, 59.24585453520837, 22.553947923669906, 69.71318579377386 " fill="none" id="curve_73" stroke="#000000" stroke-linecap="round" stroke-linejoin="round" stroke-width="3.046334451289468"/>
  <path d="M 19.107407326389364, 91.12106907178904 Q 20.390772915999815, 100.2552169100376, 24.016164609026838, 108.10637087560035 " fill="none" id="curve_82" stroke="#000000" stroke-linecap="round" stroke-linejoin="round" stroke-width="2.439372797098939"/>
  <path d="M 52.97175044803787, 53.79751041948882 Q 50.64464894658858, 50.708935536212685, 43.74108526225642, 47.970030641543644 " fill="none" id="curve_92" stroke="#000000" stroke-linecap="round" stroke-linejoin="round" stroke-width="2.4988078516104713"/>
  <path d="M 56.357989470622215, 77.76913967789662 Q 55.51206190200004, 79.74770520375148, 54.599828618997066, 83.28285131153712 " fill="none" id="curve_101" stroke="#000000" stroke-linecap="round" stroke-linejoin="round" stroke-width="2.0121382346305667"/>
  <path d="M 88.83116057601931, 124.73080671617065 Q 89.15276646809667, 124.61116705072152, 89.66567481216553, 124.39027169561692 " fill="none" id="curve_130" stroke="#000000" stroke-linecap="round" stroke-linejoin="round" stroke-width="1.5271239642850303"/>
  <path d="M 52.4888138443675, 69.17361004323999 Q 54.62284770548626, 68.68472708275216, 55.41405166770989, 66.06512803445175 " fill="none" id="curve_132" stroke="#000000" stroke-linecap="round" stroke-linejoin="round" stroke-width="2.8577484873104724"/>
  <path d="M 88.54064278678914, 2.0227152368394288 Q 88.00531361701213, 1.7577922648225004, 86.26567578855784, 1.5673679952202881 " fill="none" id="curve_137" stroke="#000000" stroke-linecap="round" stroke-linejoin="round" stroke-width="2.326641334475689"/>
  <path d="M 89.51512960941577, 101.79707210459254 Q 89.54450609881006, 101.77543737706901, 89.59996170893382, 101.74154570453643 " fill="none" id="curve_165" stroke="#000000" stroke-linecap="round" stroke-linejoin="round" stroke-width="1.4619028203768623"/>
  <path d="M 27.564908166930252, 108.02056646196374 Q 26.37112633204234, 108.3225961340633, 24.706516738593987, 108.82381715726395 " fill="none" id="curve_169" stroke="#000000" stroke-linecap="round" stroke-linejoin="round" stroke-width="3.8672375180220153"/>
  <path d="M 49.85813215342296, 49.78319692390187 Q 47.71045380515741, 48.47202082728975, 42.743142085823685, 47.20240362826288 " fill="none" id="curve_197" stroke="#000000" stroke-linecap="round" stroke-linejoin="round" stroke-width="2.987191240340896"/>
</svg>
