<?xml version="1.0" ?>
<svg height="140" width="140" xmlns="http://www.w3.org/2000/svg">
  <path d="M 61.23823547363281, 82.8271312713623 Q 61.67805976746699, 81.03004375344601, 61.962686796770534, 69.69161746241764 " fill="none" id="curve_1" stroke="#000000" stroke-linecap="round" stroke-linejoin="round" stroke-width="6.847623763902525"/>
  <path d="M 61.962686796770534, 69.69161746241764 Q 61.295125795426706, 57.483483257769024, 54.75868078054039, 52.722296059750065 " fill="none" id="curve_1" stroke="#000000" stroke-linecap="round" stroke-linejoin="round" stroke-width="5.019733324464618"/>
  <path d="M 54.75868078054039, 52.722296059750065 Q 47.478964063147465, 52.803045585163325, 44.1426692927821, 53.541026186940535 " fill="none" id="curve_1" stroke="#000000" stroke-linecap="round" stroke-linejoin="round" stroke-width="4.291958399382972"/>
  <path d="M 44.1426692927821, 53.541026186940535 Q 33.628314555206785, 57.33759748617877, 26.731664183238916, 72.2891207734093 " fill="none" id="curve_1" stroke="#000000" stroke-linecap="round" stroke-linejoin="round" stroke-width="4.283546161733417"/>
  <path d="M 26.731664183238916, 72.2891207734093 Q 26.869083134727546, 103.80824200201982, 39.12103189304712, 105.93826540308598 " fill="none" id="curve_1" stroke="#000000" stroke-linecap="round" stroke-linejoin="round" stroke-width="4.851743714387961"/>
  <path d="M 39.12103189304712, 105.93826540308598 Q 56.55486411112021, 104.59542298175096, 60.76146220438288, 82.48473859170461 " fill="none" id="curve_1" stroke="#000000" stroke-linecap="round" stroke-linejoin="round" stroke-width="5.074277410851299"/>
  <path d="M 48.55187963001694, 57.551188800581514 Q 38.14094185066357, 57.75902829108866, 33.75327770173199, 59.03765151784849 " fill="none" id="curve_2" stroke="#000000" stroke-linecap="round" stroke-linejoin="round" stroke-width="2.8457492486450984"/>
  <path d="M 24.272040273545464, 81.46447788721478 Q 26.45316117212426, 99.24701567830868, 36.75066497946974, 105.67053173575019 " fill="none" id="curve_3" stroke="#000000" stroke-linecap="round" stroke-linejoin="round" stroke-width="3.1663799876837277"/>
  <path d="M 36.75066497946974, 105.67053173575019 Q 48.79692545912044, 103.83507096828944, 54.313837808707966, 97.19717966741706 " fill="none" id="curve_3" stroke="#000000" stroke-linecap="round" stroke-linejoin="round" stroke-width="3.089006975752879"/>
  <path d="M 51.81672301228335, 61.00855955353546 Q 51.186236391692724, 60.89193236681173, 50.24917056398213, 60.69486120279992 " fill="none" id="curve_5" stroke="#000000" stroke-linecap="round" stroke-linejoin="round" stroke-width="3.1867259233878205"/>
  <path d="M 49.60354143765109, 51.3652595056101 Q 49.07062633799719, 51.18884731113262, 48.21057434218237, 50.97107808356664 " fill="none" id="curve_6" stroke="#000000" stroke-linecap="round" stroke-linejoin="round" stroke-width="4.56667753109778"/>
  <path d="M 25.68943159139198, 80.11353302599338 Q 27.576125709612658, 69.38638796833986, 34.15263616618579, 59.88843152823624 " fill="none" id="curve_7" stroke="#000000" stroke-linecap="round" stroke-linejoin="round" stroke-width="2.6532468230997535"/>
  <path d="M 34.15263616618579, 59.88843152823624 Q 28.874881578228596, 65.95517628092709, 25.669558990753842, 82.06716014748578 " fill="none" id="curve_7" stroke="#000000" stroke-linecap="round" stroke-linejoin="round" stroke-width="2.962340858351241"/>
  <path d="M 59.88499192549721, 64.27781151566583 Q 61.07912125529753, 70.98371414601573, 61.97002785215658, 83.84826815105285 " fill="none" id="curve_9" stroke="#000000" stroke-linecap="round" stroke-linejoin="round" stroke-width="2.72782783312969"/>
  <path d="M 36.60005875656917, 101.1877839773445 Q 37.14435559428985, 104.04076254570471, 42.45926847425479, 104.57535768061749 " fill="none" id="curve_11" stroke="#000000" stroke-linecap="round" stroke-linejoin="round" stroke-width="3.442373686425074"/>
  <path d="M 42.45926847425479, 104.57535768061749 Q 48.80844035306187, 101.15909706924108, 54.69406265426834, 95.23344977347207 " fill="none" id="curve_11" stroke="#000000" stroke-linecap="round" stroke-linejoin="round" stroke-width="2.8569930831623176"/>
  <path d="M 54.69406265426834, 95.23344977347207 Q 58.107123846077826, 88.65427102553672, 62.86644157819387, 78.87246092253771 " fill="none" id="curve_11" stroke="#000000" stroke-linecap="round" stroke-linejoin="round" stroke-width="2.733591240305054"/>
  <path d="M 62.86644157819387, 78.87246092253771 Q 59.99625350702453, 75.37151745892753, 58.39591644623257, 61.822867232882246 " fill="none" id="curve_11" stroke="#000000" stroke-linecap="round" stroke-linejoin="round" stroke-width="2.9269284155408726"/>
  <path d="M 40.54976591137712, 58.88368442589964 Q 27.52303524684028, 60.07207299092442, 24.4914140364117, 74.94814550736285 " fill="none" id="curve_12" stroke="#000000" stroke-linecap="round" stroke-linejoin="round" stroke-width="2.771036444076308"/>
  <path d="M 24.912699854690704, 79.72278340299899 Q 26.015212318831836, 74.74255114248439, 29.620193124419963, 71.57401334706056 " fill="none" id="curve_13" stroke="#000000" stroke-linecap="round" stroke-linejoin="round" stroke-width="2.6942832681513122"/>
  <path d="M 56.07856443338167, 92.42293646057867 Q 58.42613808459833, 88.58714840744155, 61.87624907233758, 83.42216711243029 " fill="none" id="curve_17" stroke="#000000" stroke-linecap="round" stroke-linejoin="round" stroke-width="2.744865535034027"/>
  <path d="M 55.51181478141364, 92.06150222054613 Q 56.3508679758295, 87.06624888531172, 61.50408368102248, 85.34832507647192 " fill="none" id="curve_28" stroke="#000000" stroke-linecap="round" stroke-linejoin="round" stroke-width="3.183719603580005"/>
  <path d="M 1.2998423062759188, 0.01906650409168087 Q 0.9501708763973705, 2.6808709947809994, 0.6926795185908212, 13.477318247431498 " fill="none" id="curve_38" stroke="#000000" stroke-linecap="round" stroke-linejoin="round" stroke-width="1.0697640556301238"/>
  <path d="M 48.70470211911085, 50.23209011936105 Q 53.946910736352635, 51.17643592529296, 56.861997471412906, 54.827505670154906 " fill="none" id="curve_42" stroke="#000000" stroke-linecap="round" stroke-linejoin="round" stroke-width="1.9144619129769036"/>
  <path d="M 0.9652472961206175, 136.56654673757225 Q 1.0514068925673135, 137.41055573358605, 1.2718809275333902, 138.15934586595714 " fill="none" id="curve_48" stroke="#000000" stroke-linecap="round" stroke-linejoin="round" stroke-width="2.226346242588701"/>
  <path d="M 33.00658775960286, 102.26506082317675 Q 32.30651033468244, 97.48120245640239, 29.164686153636552, 95.05766026928684 " fill="none" id="curve_49" stroke="#000000" stroke-linecap="round" stroke-linejoin="round" stroke-width="3.1322216984808557"/>
  <path d="M 23.522607541410366, 76.2460618168111 Q 24.219219384655077, 76.7673295979492, 25.121811410393555, 77.96938396101193 " fill="none" id="curve_90" stroke="#000000" stroke-linecap="round" stroke-linejoin="round" stroke-width="2.584008491014073"/>
  <path d="M 39.33772377272657, 58.647044790291076 Q 33.684590606082644, 60.31480030936525, 29.17093949026207, 63.97183442786086 " fill="none" id="curve_92" stroke="#000000" stroke-linecap="round" stroke-linejoin="round" stroke-width="3.1985118742716607"/>
  <path d="M 59.36794438435622, 73.14351835332683 Q 59.85772625513088, 72.99082250570822, 60.32129271958498, 72.6533393563467 " fill="none" id="curve_121" stroke="#000000" stroke-linecap="round" stroke-linejoin="round" stroke-width="3.3405407045217683"/>
  <path d="M 28.993489265441895, 95.56122589111328 Q 30.040915800822646, 95.30447142837254, 31.565993693490782, 94.97137446700197 " fill="none" id="curve_148" stroke="#000000" stroke-linecap="round" stroke-linejoin="round" stroke-width="2.5900970580271654"/>
</svg>
