<?xml version="1.0" ?>
<svg height="140" width="140" xmlns="http://www.w3.org/2000/svg">
  <path d="M 55.83268737792969, 112.73360633850098 Q 54.68143210863072, 117.98496023548074, 48.734801215163884, 119.73227231910043 " fill="none" id="curve_1" stroke="#000000" stroke-linecap="round" stroke-linejoin="round" stroke-width="7.648064264933729"/>
  <path d="M 48.734801215163884, 119.73227231910043 Q 41.41576828839077, 119.66031037691972, 39.67135603980208, 118.96745564955187 " fill="none" id="curve_1" stroke="#000000" stroke-linecap="round" stroke-linejoin="round" stroke-width="5.504432783750361"/>
  <path d="M 39.67135603980208, 118.96745564955187 Q 28.492975233753583, 116.8265886196456, 23.844353901963075, 105.73804078774799 " fill="none" id="curve_1" stroke="#000000" stroke-linecap="round" stroke-linejoin="round" stroke-width="6.154864054623701"/>
  <path d="M 23.844353901963075, 105.73804078774799 Q 21.910801709879525, 99.86872436068427, 19.939671065878642, 76.36669369285534 " fill="none" id="curve_1" stroke="#000000" stroke-linecap="round" stroke-linejoin="round" stroke-width="5.732244729316442"/>
  <path d="M 19.939671065878642, 76.36669369285534 Q 22.448803566975368, 63.64758574626333, 30.88513310385523, 42.57280792226752 " fill="none" id="curve_1" stroke="#000000" stroke-linecap="round" stroke-linejoin="round" stroke-width="5.63809715749823"/>
  <path d="M 30.88513310385523, 42.57280792226752 Q 35.857400220972835, 40.52863286392945, 37.22750792971753, 29.704876234847724 " fill="none" id="curve_1" stroke="#000000" stroke-linecap="round" stroke-linejoin="round" stroke-width="7.054477265278216"/>
  <path d="M 37.22750792971753, 29.704876234847724 Q 60.868428488305106, 31.99352300438133, 68.49455924804228, 60.90342393120664 " fill="none" id="curve_1" stroke="#000000" stroke-linecap="round" stroke-linejoin="round" stroke-width="4.186877295197729"/>
  <path d="M 68.49455924804228, 60.90342393120664 Q 68.42216777726348, 92.92020960126641, 64.51553232079767, 95.40824300850127 " fill="none" id="curve_1" stroke="#000000" stroke-linecap="round" stroke-linejoin="round" stroke-width="4.7635629655385054"/>
  <path d="M 64.51553232079767, 95.40824300850127 Q 62.49540171169582, 110.74008122226464, 54.44257564693935, 116.49421006793256 " fill="none" id="curve_1" stroke="#000000" stroke-linecap="round" stroke-linejoin="round" stroke-width="6.232661556527503"/>
  <path d="M 89.78787807016695, 136.7695003832135 Q 89.80546950081936, 132.70785385599874, 89.81590465414507, 111.52088063738054 " fill="none" id="curve_2" stroke="#000000" stroke-linecap="round" stroke-linejoin="round" stroke-width="2.0318533897628797"/>
  <path d="M 89.81590465414507, 111.52088063738054 Q 89.80791085334353, 105.9194068400688, 89.79988706183154, 87.32707825079197 " fill="none" id="curve_2" stroke="#000000" stroke-linecap="round" stroke-linejoin="round" stroke-width="1.9472223726188185"/>
  <path d="M 89.79988706183154, 87.32707825079197 Q 89.74830467004412, 82.23667284555616, 89.6936503369807, 65.7722611994503 " fill="none" id="curve_2" stroke="#000000" stroke-linecap="round" stroke-linejoin="round" stroke-width="1.7397759170928486"/>
  <path d="M 89.6936503369807, 65.7722611994503 Q 89.71328865165349, 61.76558739507599, 89.73153752679981, 46.89581380916561 " fill="none" id="curve_2" stroke="#000000" stroke-linecap="round" stroke-linejoin="round" stroke-width="1.6038047777040079"/>
  <path d="M 89.73153752679981, 46.89581380916561 Q 89.68784056796848, 44.162008251991814, 89.65746231673292, 31.796929664118565 " fill="none" id="curve_2" stroke="#000000" stroke-linecap="round" stroke-linejoin="round" stroke-width="1.5365157150769568"/>
  <path d="M 89.65746231673292, 31.796929664118565 Q 89.64827470834034, 28.485772020774665, 89.63892399085768, 17.812573077058968 " fill="none" id="curve_2" stroke="#000000" stroke-linecap="round" stroke-linejoin="round" stroke-width="1.4216823612557383"/>
  <path d="M 89.63892399085768, 17.812573077058968 Q 89.58999888644148, 15.897644454989981, 89.56007357015218, 4.177864311930499 " fill="none" id="curve_2" stroke="#000000" stroke-linecap="round" stroke-linejoin="round" stroke-width="1.4308556960113763"/>
  <path d="M 89.56007357015218, 4.177864311930499 Q 89.5179181458453, 1.789857599602394, 89.36290306279905, 0.8657140229920652 " fill="none" id="curve_2" stroke="#000000" stroke-linecap="round" stroke-linejoin="round" stroke-width="1.714933013829849"/>
  <path d="M 70.52400482745554, 65.6471593426709 Q 70.36667340224095, 77.07595867567382, 69.60126186105968, 80.90907552895446 " fill="none" id="curve_8" stroke="#000000" stroke-linecap="round" stroke-linejoin="round" stroke-width="2.3490818788087013"/>
  <path d="M 65.96625766929591, 65.65191524066356 Q 64.91012401632906, 57.43827580420027, 60.57122179209088, 44.61410636352994 " fill="none" id="curve_9" stroke="#000000" stroke-linecap="round" stroke-linejoin="round" stroke-width="2.9121160963398096"/>
  <path d="M 37.52634972121909, 43.94384731938168 Q 36.04372827600143, 43.963077653494594, 34.60661971387713, 44.00830899038939 " fill="none" id="curve_10" stroke="#000000" stroke-linecap="round" stroke-linejoin="round" stroke-width="5.467948239068863"/>
  <path d="M 31.920278681510844, 36.73247399000826 Q 34.01386832542197, 34.66059407696132, 37.09362311299073, 31.714206187874595 " fill="none" id="curve_11" stroke="#000000" stroke-linecap="round" stroke-linejoin="round" stroke-width="3.319785542780999"/>
  <path d="M 25.221650268604634, 54.767881600190044 Q 23.528095794371772, 60.07492786169337, 20.37518837234209, 65.9530061476951 " fill="none" id="curve_14" stroke="#000000" stroke-linecap="round" stroke-linejoin="round" stroke-width="3.031454650097811"/>
  <path d="M 62.04232506825984, 104.83604907837857 Q 56.55709728006161, 110.47272442608977, 51.17583976245117, 119.552230527097 " fill="none" id="curve_15" stroke="#000000" stroke-linecap="round" stroke-linejoin="round" stroke-width="4.782897089117788"/>
  <path d="M 51.17583976245117, 119.552230527097 Q 58.47709650884981, 118.96706483742234, 59.24421624977424, 104.90624238572846 " fill="none" id="curve_15" stroke="#000000" stroke-linecap="round" stroke-linejoin="round" stroke-width="3.6248503446124087"/>
  <path d="M 59.24421624977424, 104.90624238572846 Q 65.04568230485515, 101.26019288203301, 68.25928975534646, 90.12476882013138 " fill="none" id="curve_15" stroke="#000000" stroke-linecap="round" stroke-linejoin="round" stroke-width="3.961826549916804"/>
  <path d="M 40.70168346393844, 32.41456234788095 Q 40.01550305494158, 32.0199741863216, 38.43293633274324, 31.464434162345537 " fill="none" id="curve_18" stroke="#000000" stroke-linecap="round" stroke-linejoin="round" stroke-width="3.933612111070956"/>
  <path d="M 23.15418730695807, 70.93352990535011 Q 21.737361365585016, 79.02223006894589, 18.044043753904596, 86.86252578627841 " fill="none" id="curve_24" stroke="#000000" stroke-linecap="round" stroke-linejoin="round" stroke-width="2.419972352225201"/>
  <path d="M 28.056787213680906, 110.79299271844616 Q 34.99136622381272, 114.42941282643969, 42.47157446550756, 119.78289237997495 " fill="none" id="curve_25" stroke="#000000" stroke-linecap="round" stroke-linejoin="round" stroke-width="2.227528809388948"/>
  <path d="M 26.70869108658697, 114.28191428520998 Q 26.407896476833987, 113.84958610715024, 26.109420194387948, 112.99427348823762 " fill="none" id="curve_26" stroke="#000000" stroke-linecap="round" stroke-linejoin="round" stroke-width="3.457458683793633"/>
  <path d="M 68.82799567002958, 67.42055094871134 Q 69.18474184452279, 64.85680265030143, 70.07269887250682, 62.25699208031273 " fill="none" id="curve_27" stroke="#000000" stroke-linecap="round" stroke-linejoin="round" stroke-width="3.0451737947278126"/>
  <path d="M 53.828068447697405, 37.36767750510505 Q 57.15012200902381, 37.286894317515525, 59.176428434664224, 37.036815437531615 " fill="none" id="curve_28" stroke="#000000" stroke-linecap="round" stroke-linejoin="round" stroke-width="3.1867676853749027"/>
  <path d="M 36.33445745393214, 42.099876348264715 Q 35.96415628501797, 41.168721667928544, 35.560022864667246, 37.818234910450656 " fill="none" id="curve_39" stroke="#000000" stroke-linecap="round" stroke-linejoin="round" stroke-width="2.432040909970075"/>
  <path d="M 48.80458359374086, 35.507730039956186 Q 43.56837559405762, 33.543694536956636, 39.63111165411943, 27.24486445507809 " fill="none" id="curve_54" stroke="#000000" stroke-linecap="round" stroke-linejoin="round" stroke-width="2.3310367901955966"/>
  <path d="M 34.45836364349907, 32.03833024364071 Q 33.91721486749265, 33.333351504168974, 33.48800194789297, 36.86387022496319 " fill="none" id="curve_70" stroke="#000000" stroke-linecap="round" stroke-linejoin="round" stroke-width="2.8888120330752898"/>
</svg>
