<?xml version="1.0" ?>
<svg height="140" width="140" xmlns="http://www.w3.org/2000/svg">
  <path d="M 45.51182746887207, 58.136369705200195 Q 45.35454504238071, 56.837215228160716, 36.26023983768005, 56.75821217588025 " fill="none" id="curve_1" stroke="#000000" stroke-linecap="round" stroke-linejoin="round" stroke-width="6.473314613084362"/>
  <path d="M 36.26023983768005, 56.75821217588025 Q 30.34997843635064, 59.65642855545103, 16.944111456792548, 68.1433492890623 " fill="none" id="curve_1" stroke="#000000" stroke-linecap="round" stroke-linejoin="round" stroke-width="4.434223496167651"/>
  <path d="M 16.944111456792548, 68.1433492890623 Q 10.900534588526476, 72.45434326770444, 6.279714952856658, 81.41227218996268 " fill="none" id="curve_1" stroke="#000000" stroke-linecap="round" stroke-linejoin="round" stroke-width="4.787640210905867"/>
  <path d="M 6.279714952856658, 81.41227218996268 Q 6.910173009013946, 100.3389778839967, 24.637732584325967, 102.43952125914402 " fill="none" id="curve_1" stroke="#000000" stroke-linecap="round" stroke-linejoin="round" stroke-width="5.064051982407781"/>
  <path d="M 24.637732584325967, 102.43952125914402 Q 46.01182332391803, 101.1691652461805, 51.950795511684476, 82.07177165942863 " fill="none" id="curve_1" stroke="#000000" stroke-linecap="round" stroke-linejoin="round" stroke-width="4.897122839843749"/>
  <path d="M 51.950795511684476, 82.07177165942863 Q 51.68110661840534, 59.748767037110994, 40.06135388246066, 57.393187772383186 " fill="none" id="curve_1" stroke="#000000" stroke-linecap="round" stroke-linejoin="round" stroke-width="5.030478655737021"/>
  <path d="M 40.06135388246066, 57.393187772383186 Q 44.75471431712515, 57.18768827383019, 46.94089682702637, 56.53403990803575 " fill="none" id="curve_1" stroke="#000000" stroke-linecap="round" stroke-linejoin="round" stroke-width="3.7140399665197927"/>
  <path d="M 88.46019225211813, 6.86290146524793 Q 88.5426087663749, 3.2680120859738166, 88.82292196006485, 1.1503968182973985 " fill="none" id="curve_2" stroke="#000000" stroke-linecap="round" stroke-linejoin="round" stroke-width="3.087640796363904"/>
  <path d="M 88.89154470301754, 24.95114799801688 Q 88.98771750091832, 35.40069293134026, 89.10239274616086, 52.54835390970908 " fill="none" id="curve_3" stroke="#000000" stroke-linecap="round" stroke-linejoin="round" stroke-width="1.7363440965364996"/>
  <path d="M 89.10239274616086, 52.54835390970908 Q 89.16241706928449, 67.91174287876508, 89.32804968681191, 85.3035519561855 " fill="none" id="curve_3" stroke="#000000" stroke-linecap="round" stroke-linejoin="round" stroke-width="1.7306935425942143"/>
  <path d="M 89.32804968681191, 85.3035519561855 Q 89.6062707079916, 92.2229782717707, 89.98647721838016, 123.33346645513511 " fill="none" id="curve_3" stroke="#000000" stroke-linecap="round" stroke-linejoin="round" stroke-width="1.614757699375906"/>
  <path d="M 89.98647721838016, 123.33346645513511 Q 89.75400897985864, 128.488582062975, 89.29399477323258, 133.09842017638266 " fill="none" id="curve_3" stroke="#000000" stroke-linecap="round" stroke-linejoin="round" stroke-width="2.1164497645182516"/>
  <path d="M 35.97423058823017, 99.68441892863702 Q 30.46745377988011, 100.13362388024184, 21.479551113891596, 100.56960757498653 " fill="none" id="curve_8" stroke="#000000" stroke-linecap="round" stroke-linejoin="round" stroke-width="3.3651715748365523"/>
  <path d="M 21.479551113891596, 100.56960757498653 Q 13.731994337485848, 97.85863859692937, 5.8178234569318406, 92.07208053747891 " fill="none" id="curve_8" stroke="#000000" stroke-linecap="round" stroke-linejoin="round" stroke-width="3.107538474866509"/>
  <path d="M 40.48477600302278, 59.698930505315715 Q 45.45582892011072, 63.03632912503213, 49.86053346954587, 67.49472179998365 " fill="none" id="curve_10" stroke="#000000" stroke-linecap="round" stroke-linejoin="round" stroke-width="2.9144617640705768"/>
  <path d="M 22.518936493352022, 62.94586213957719 Q 15.601478905067676, 67.45768054356158, 8.122255056969024, 75.16188155081133 " fill="none" id="curve_11" stroke="#000000" stroke-linecap="round" stroke-linejoin="round" stroke-width="2.985335977725955"/>
  <path d="M 36.80095900967373, 99.88619639948413 Q 39.373891331559356, 94.8372576617675, 48.45421443199245, 92.28638953015692 " fill="none" id="curve_12" stroke="#000000" stroke-linecap="round" stroke-linejoin="round" stroke-width="3.5170004017468846"/>
  <path d="M 22.513487913066996, 100.92733674957574 Q 18.465028398983655, 97.98592929232781, 10.71698724761632, 94.27775175999143 " fill="none" id="curve_13" stroke="#000000" stroke-linecap="round" stroke-linejoin="round" stroke-width="2.9442158985202638"/>
  <path d="M 7.5614768545193085, 83.71622948401216 Q 8.035230898460796, 81.08210824308587, 8.842212037901172, 78.9781482264045 " fill="none" id="curve_14" stroke="#000000" stroke-linecap="round" stroke-linejoin="round" stroke-width="3.7513328837342215"/>
  <path d="M 89.9326286315918, 19.026416778564453 Q 89.8806244608192, 13.299479861840888, 89.66401473330303, 9.186725383691567 " fill="none" id="curve_28" stroke="#000000" stroke-linecap="round" stroke-linejoin="round" stroke-width="1.6403912866947619"/>
  <path d="M 89.7533495201852, 22.631324583129555 Q 89.6207238528277, 21.74701837706228, 89.43928795157481, 20.609290587848996 " fill="none" id="curve_29" stroke="#000000" stroke-linecap="round" stroke-linejoin="round" stroke-width="1.699728586281797"/>
  <path d="M 51.63853185221917, 72.39700406756765 Q 52.75305141246303, 72.94925320197375, 53.218888007747886, 75.7850002063767 " fill="none" id="curve_45" stroke="#000000" stroke-linecap="round" stroke-linejoin="round" stroke-width="2.925868624600563"/>
  <path d="M 5.199247701600644, 90.45460148540353 Q 5.613882580241065, 89.2012629216093, 6.141822196385752, 87.20005126566764 " fill="none" id="curve_47" stroke="#000000" stroke-linecap="round" stroke-linejoin="round" stroke-width="2.595261482498612"/>
  <path d="M 36.87737462908947, 59.194801898936504 Q 37.20566916800848, 58.95803868014863, 37.83148517882213, 58.39976541582674 " fill="none" id="curve_68" stroke="#000000" stroke-linecap="round" stroke-linejoin="round" stroke-width="2.168731908627877"/>
  <path d="M 44.51173990460279, 93.27496766006061 Q 43.1786406439857, 93.67108398608646, 41.774067464156715, 94.62653037669483 " fill="none" id="curve_83" stroke="#000000" stroke-linecap="round" stroke-linejoin="round" stroke-width="2.735743487884425"/>
  <path d="M 46.616893391301986, 58.372555358155076 Q 45.575603467911485, 57.46927233848057, 43.56244831403174, 56.07671280114161 " fill="none" id="curve_99" stroke="#000000" stroke-linecap="round" stroke-linejoin="round" stroke-width="2.615453642929553"/>
  <path d="M 9.865591644142597, 93.82801103209657 Q 8.690127780202339, 93.60210061421841, 6.849351408104791, 93.33596720952842 " fill="none" id="curve_141" stroke="#000000" stroke-linecap="round" stroke-linejoin="round" stroke-width="3.783068618527049"/>
  <path d="M 15.593864597269363, 70.91692297400317 Q 12.409608755146403, 74.21430805947404, 5.850609803411398, 77.41677491033428 " fill="none" id="curve_162" stroke="#000000" stroke-linecap="round" stroke-linejoin="round" stroke-width="2.4166946040931925"/>
  <path d="M 20.299789683529767, 103.23750749617574 Q 20.457095306880074, 102.90482808266835, 20.692725961572656, 102.40048121428123 " fill="none" id="curve_164" stroke="#000000" stroke-linecap="round" stroke-linejoin="round" stroke-width="2.4545259215538255"/>
</svg>
