<?xml version="1.0" ?>
<svg height="140" width="140" xmlns="http://www.w3.org/2000/svg">
  <path d="M 56.507633209228516, 55.96474075317383 Q 56.37405880497822, 53.22749914597894, 48.04722216583491, 53.04560006519114 " fill="none" id="curve_1" stroke="#000000" stroke-linecap="round" stroke-linejoin="round" stroke-width="7.209063267917"/>
  <path d="M 48.04722216583491, 53.04560006519114 Q 34.90035807946571, 54.1559769316825, 23.522962951726676, 58.161689568871395 " fill="none" id="curve_1" stroke="#000000" stroke-linecap="round" stroke-linejoin="round" stroke-width="6.887478953051165"/>
  <path d="M 23.522962951726676, 58.161689568871395 Q 16.132793182622862, 66.87107815779311, 8.577771441602875, 83.95390214070734 " fill="none" id="curve_1" stroke="#000000" stroke-linecap="round" stroke-linejoin="round" stroke-width="6.134201119581702"/>
  <path d="M 8.577771441602875, 83.95390214070734 Q 10.429661414388844, 103.42893318580467, 24.971971327398172, 107.13410321820659 " fill="none" id="curve_1" stroke="#000000" stroke-linecap="round" stroke-linejoin="round" stroke-width="5.731089350342611"/>
  <path d="M 24.971971327398172, 107.13410321820659 Q 54.799404829912454, 106.33195648674356, 60.08416697043788, 82.20083826045786 " fill="none" id="curve_1" stroke="#000000" stroke-linecap="round" stroke-linejoin="round" stroke-width="6.159069940273854"/>
  <path d="M 60.08416697043788, 82.20083826045786 Q 60.15185752739402, 72.76971656057691, 60.27503930628269, 62.73363526815787 " fill="none" id="curve_1" stroke="#000000" stroke-linecap="round" stroke-linejoin="round" stroke-width="5.315980950762062"/>
  <path d="M 60.27503930628269, 62.73363526815787 Q 58.47528303147656, 58.221903351071624, 55.13065274259304, 54.42176936665222 " fill="none" id="curve_1" stroke="#000000" stroke-linecap="round" stroke-linejoin="round" stroke-width="5.787872213030373"/>
  <path d="M 29.90871119679635, 52.180618943294526 Q 26.67281066587993, 54.25149370544486, 22.898899267938077, 57.96470220195537 " fill="none" id="curve_2" stroke="#000000" stroke-linecap="round" stroke-linejoin="round" stroke-width="4.645174216003083"/>
  <path d="M 34.11024988495847, 104.08189020441372 Q 28.469796267011716, 104.32032928013264, 24.95913617214437, 105.34445035567327 " fill="none" id="curve_3" stroke="#000000" stroke-linecap="round" stroke-linejoin="round" stroke-width="3.8205440945858404"/>
  <path d="M 8.635999165735274, 74.81879140840107 Q 14.933615670392966, 71.21011339730677, 19.77092857827564, 60.13121324779422 " fill="none" id="curve_4" stroke="#000000" stroke-linecap="round" stroke-linejoin="round" stroke-width="2.825710372572458"/>
  <path d="M 59.71089843995008, 60.30802611333658 Q 59.40275992599939, 53.392828728907865, 54.217788991197835, 52.28329101174719 " fill="none" id="curve_6" stroke="#000000" stroke-linecap="round" stroke-linejoin="round" stroke-width="3.9413383709060343"/>
  <path d="M 57.815975300919945, 83.60635538236636 Q 54.978669818019966, 94.97774126816164, 44.72740664167787, 101.00546697116212 " fill="none" id="curve_7" stroke="#000000" stroke-linecap="round" stroke-linejoin="round" stroke-width="3.471357183289757"/>
  <path d="M 44.72740664167787, 101.00546697116212 Q 43.69752896316387, 103.12509226926534, 31.669982064708154, 103.38349975978586 " fill="none" id="curve_7" stroke="#000000" stroke-linecap="round" stroke-linejoin="round" stroke-width="3.9862808351958754"/>
  <path d="M 59.752726989459845, 73.62363256388679 Q 58.78083344036844, 62.18049553948971, 52.127316870567896, 54.63302582708879 " fill="none" id="curve_8" stroke="#000000" stroke-linecap="round" stroke-linejoin="round" stroke-width="2.9179902020439323"/>
  <path d="M 59.093469388137514, 79.08416022890017 Q 55.82449263139013, 86.31602577597745, 51.29946149712417, 95.75140435998814 " fill="none" id="curve_9" stroke="#000000" stroke-linecap="round" stroke-linejoin="round" stroke-width="3.511343545477074"/>
  <path d="M 24.714681950156727, 103.30059587798911 Q 16.144196879142136, 102.84651836994612, 12.19775129529503, 100.87878430661236 " fill="none" id="curve_10" stroke="#000000" stroke-linecap="round" stroke-linejoin="round" stroke-width="3.1295254072780625"/>
  <path d="M 10.659030970012914, 73.02059374030227 Q 15.323624212917768, 67.2220927839151, 21.68823918159847, 59.15322131961081 " fill="none" id="curve_11" stroke="#000000" stroke-linecap="round" stroke-linejoin="round" stroke-width="3.0482901887068907"/>
  <path d="M 29.216940969098417, 53.39863730422802 Q 28.424008215510714, 53.49426669102714, 26.879078327551742, 53.660274928483695 " fill="none" id="curve_17" stroke="#000000" stroke-linecap="round" stroke-linejoin="round" stroke-width="3.948094018903924"/>
  <path d="M 89.51560719528084, 137.68895115136704 Q 89.5610119127282, 137.9334687463973, 89.60193778853176, 138.61192057567007 " fill="none" id="curve_32" stroke="#000000" stroke-linecap="round" stroke-linejoin="round" stroke-width="1.9484255552341558"/>
  <path d="M 57.67267147027091, 80.0967566709549 Q 58.25940283025158, 85.34313611749056, 59.49935885885898, 89.76581273045129 " fill="none" id="curve_35" stroke="#000000" stroke-linecap="round" stroke-linejoin="round" stroke-width="2.8481120213716116"/>
  <path d="M 24.663611294084195, 53.69046341877823 Q 26.82678987899524, 53.0948842593792, 30.699101428424967, 52.35275750448643 " fill="none" id="curve_41" stroke="#000000" stroke-linecap="round" stroke-linejoin="round" stroke-width="2.943059882376855"/>
  <path d="M 58.108310774283225, 79.40226236869853 Q 58.270864111501744, 80.52039031182423, 58.509314912191556, 82.62451508315628 " fill="none" id="curve_69" stroke="#000000" stroke-linecap="round" stroke-linejoin="round" stroke-width="2.6475959721326197"/>
  <path d="M 9.249108428689416, 98.41385207008418 Q 10.448368993690803, 99.00066188735642, 12.022007422817865, 99.88067615921267 " fill="none" id="curve_74" stroke="#000000" stroke-linecap="round" stroke-linejoin="round" stroke-width="3.243406366079585"/>
  <path d="M 16.505281934012572, 65.04659070741303 Q 16.81857499823604, 64.04486329369237, 17.41097792671264, 62.686828133710755 " fill="none" id="curve_75" stroke="#000000" stroke-linecap="round" stroke-linejoin="round" stroke-width="3.1844612738755913"/>
  <path d="M 54.043975066158296, 51.657549583268974 Q 53.335897339511114, 51.87868569025982, 51.082924631961546, 52.097339168900646 " fill="none" id="curve_90" stroke="#000000" stroke-linecap="round" stroke-linejoin="round" stroke-width="3.126164604460481"/>
</svg>
