<?xml version="1.0" ?>
<svg height="140" width="140" xmlns="http://www.w3.org/2000/svg">
  <path d="M 45.639862060546875, 104.5800096988678 Q 44.02393105644316, 108.32004601231797, 37.35572842269357, 111.45981900332117 " fill="none" id="curve_1" stroke="#000000" stroke-linecap="round" stroke-linejoin="round" stroke-width="5.365420568270281"/>
  <path d="M 37.35572842269357, 111.45981900332117 Q 27.42139633156941, 110.72707954564466, 24.281445532841257, 99.66130574794819 " fill="none" id="curve_1" stroke="#000000" stroke-linecap="round" stroke-linejoin="round" stroke-width="4.834394657427949"/>
  <path d="M 24.281445532841257, 99.66130574794819 Q 21.189027929914865, 95.821522618885, 17.59501664855422, 79.1305927329846 " fill="none" id="curve_1" stroke="#000000" stroke-linecap="round" stroke-linejoin="round" stroke-width="5.51539964703362"/>
  <path d="M 17.59501664855422, 79.1305927329846 Q 18.450004048726797, 64.87404271990773, 25.07173052775893, 58.53729351235023 " fill="none" id="curve_1" stroke="#000000" stroke-linecap="round" stroke-linejoin="round" stroke-width="5.942962338914144"/>
  <path d="M 25.07173052775893, 58.53729351235023 Q 27.275232453053423, 53.00868573275966, 40.70617450623679, 51.60839724199597 " fill="none" id="curve_1" stroke="#000000" stroke-linecap="round" stroke-linejoin="round" stroke-width="6.181171437008589"/>
  <path d="M 40.70617450623679, 51.60839724199597 Q 54.02759264179216, 51.96467939812253, 54.586035370383854, 67.64454964987232 " fill="none" id="curve_1" stroke="#000000" stroke-linecap="round" stroke-linejoin="round" stroke-width="4.785821922667921"/>
  <path d="M 54.586035370383854, 67.64454964987232 Q 53.852537448637015, 86.94753760602599, 46.96066105304142, 103.03526644031678 " fill="none" id="curve_1" stroke="#000000" stroke-linecap="round" stroke-linejoin="round" stroke-width="4.135718499562759"/>
  <path d="M 15.177026373254943, 74.5002878571931 Q 8.714322517722223, 75.61105094058648, 8.085746121625945, 97.79291293159507 " fill="none" id="curve_2" stroke="#000000" stroke-linecap="round" stroke-linejoin="round" stroke-width="3.8467982154081506"/>
  <path d="M 14.859791269714144, 71.72884234942288 Q 16.269965371636488, 65.99702153441477, 24.50181220552163, 64.2703374098666 " fill="none" id="curve_3" stroke="#000000" stroke-linecap="round" stroke-linejoin="round" stroke-width="4.099350158320169"/>
  <path d="M 37.457291910319626, 54.74891711672464 Q 35.97537161157779, 55.31650146949459, 33.393577943061075, 55.74523122328209 " fill="none" id="curve_4" stroke="#000000" stroke-linecap="round" stroke-linejoin="round" stroke-width="4.3290989313328625"/>
  <path d="M 52.54732802774657, 93.86782288976352 Q 49.240719516257606, 102.15450302965327, 41.79452996528306, 108.03639158809506 " fill="none" id="curve_5" stroke="#000000" stroke-linecap="round" stroke-linejoin="round" stroke-width="3.9117190603616496"/>
  <path d="M 18.64783468669228, 65.83610462318622 Q 18.811214175522224, 61.83240244089814, 23.23804738864973, 61.378129253130965 " fill="none" id="curve_7" stroke="#000000" stroke-linecap="round" stroke-linejoin="round" stroke-width="3.229074291366777"/>
  <path d="M 23.348247956105027, 66.89456704415389 Q 21.87562686970062, 66.97245774715893, 20.174150983879393, 67.15544702004351 " fill="none" id="curve_8" stroke="#000000" stroke-linecap="round" stroke-linejoin="round" stroke-width="4.301531483959215"/>
  <path d="M 53.90231903900583, 69.36984213444032 Q 53.693860937430316, 74.79560360528674, 53.044364127199096, 80.03924790781791 " fill="none" id="curve_10" stroke="#000000" stroke-linecap="round" stroke-linejoin="round" stroke-width="2.459938515691481"/>
  <path d="M 51.291255450328805, 87.25294650946705 Q 51.67287043379126, 81.5746064108836, 53.03688482615514, 75.74296190471684 " fill="none" id="curve_38" stroke="#000000" stroke-linecap="round" stroke-linejoin="round" stroke-width="1.939882493343214"/>
  <path d="M 22.356217885521303, 96.3936423441626 Q 18.881578312852746, 90.31053371525023, 15.165238447112092, 75.88503526709657 " fill="none" id="curve_59" stroke="#000000" stroke-linecap="round" stroke-linejoin="round" stroke-width="2.5138038044970967"/>
  <path d="M 13.733721082897846, 72.50428861856784 Q 13.068495410787527, 73.28581634933218, 12.656066610278804, 76.03728315829837 " fill="none" id="curve_75" stroke="#000000" stroke-linecap="round" stroke-linejoin="round" stroke-width="2.616815778137811"/>
  <path d="M 43.109669432407834, 108.78193767751173 Q 44.983045471288015, 106.489571981238, 47.20758038065234, 101.91264986565491 " fill="none" id="curve_84" stroke="#000000" stroke-linecap="round" stroke-linejoin="round" stroke-width="2.9617457371050344"/>
  <path d="M 9.32670957255343, 98.63947955505203 Q 9.414732094489503, 98.4551266933967, 9.514479897988503, 98.10740084543936 " fill="none" id="curve_87" stroke="#000000" stroke-linecap="round" stroke-linejoin="round" stroke-width="2.443067354210224"/>
  <path d="M 53.06680756474458, 56.74637582371736 Q 52.90356216985393, 56.70661829641302, 52.74256600873196, 56.602083735544255 " fill="none" id="curve_110" stroke="#000000" stroke-linecap="round" stroke-linejoin="round" stroke-width="3.0221380683386174"/>
  <path d="M 18.27201426882693, 89.2349852371654 Q 17.549688098323386, 84.50480572916292, 16.123176088179388, 78.10511317027176 " fill="none" id="curve_126" stroke="#000000" stroke-linecap="round" stroke-linejoin="round" stroke-width="2.2309809207076694"/>
  <path d="M 40.785233910519764, 50.55315695069835 Q 38.09813110656086, 50.74675701776707, 34.25851772976418, 51.16650372326696 " fill="none" id="curve_135" stroke="#000000" stroke-linecap="round" stroke-linejoin="round" stroke-width="2.587708834712444"/>
</svg>
