<?xml version="1.0" ?>
<svg height="140" width="140" xmlns="http://www.w3.org/2000/svg">
  <path d="M 66.68842220306396, 41.56714630126953 Q 66.96994730400557, 45.75922250144307, 67.17770156422549, 56.084217026548686 " fill="none" id="curve_1" stroke="#000000" stroke-linecap="round" stroke-linejoin="round" stroke-width="4.456487214414424"/>
  <path d="M 67.17770156422549, 56.084217026548686 Q 63.91431194702294, 62.27679463153718, 60.491343735969544, 82.21083939425915 " fill="none" id="curve_1" stroke="#000000" stroke-linecap="round" stroke-linejoin="round" stroke-width="4.117421675786908"/>
  <path d="M 60.491343735969544, 82.21083939425915 Q 57.87120473720544, 95.47946466433129, 36.768369882014795, 114.02056174318513 " fill="none" id="curve_1" stroke="#000000" stroke-linecap="round" stroke-linejoin="round" stroke-width="4.735627262326821"/>
  <path d="M 36.768369882014795, 114.02056174318513 Q 32.94772345935852, 117.95533079289869, 25.13454491814253, 120.29869614770995 " fill="none" id="curve_1" stroke="#000000" stroke-linecap="round" stroke-linejoin="round" stroke-width="5.681412352722901"/>
  <path d="M 25.13454491814253, 120.29869614770995 Q 17.227779599827997, 116.30496933637397, 12.01545735283225, 101.85996954857221 " fill="none" id="curve_1" stroke="#000000" stroke-linecap="round" stroke-linejoin="round" stroke-width="6.345801620807494"/>
  <path d="M 12.01545735283225, 101.85996954857221 Q 12.757676666962235, 97.754584613864, 13.199330442302266, 87.65370766303477 " fill="none" id="curve_1" stroke="#000000" stroke-linecap="round" stroke-linejoin="round" stroke-width="6.865780959096187"/>
  <path d="M 13.199330442302266, 87.65370766303477 Q 13.310367989966498, 57.30036100476465, 18.02618053412136, 52.58954986002091 " fill="none" id="curve_1" stroke="#000000" stroke-linecap="round" stroke-linejoin="round" stroke-width="5.74048822255767"/>
  <path d="M 18.02618053412136, 52.58954986002091 Q 21.165753534750408, 37.53744162477386, 33.7626731721461, 29.46333836324607 " fill="none" id="curve_1" stroke="#000000" stroke-linecap="round" stroke-linejoin="round" stroke-width="14.12862597128229"/>
  <path d="M 33.7626731721461, 29.46333836324607 Q 40.122330713287774, 22.953914004222376, 47.194115317353386, 15.708369284589912 " fill="none" id="curve_1" stroke="#000000" stroke-linecap="round" stroke-linejoin="round" stroke-width="7.261548155971055"/>
  <path d="M 47.194115317353386, 15.708369284589912 Q 60.19853391927558, 23.287645084678953, 66.25327008668737, 42.72504846110825 " fill="none" id="curve_1" stroke="#000000" stroke-linecap="round" stroke-linejoin="round" stroke-width="4.606604535487231"/>
  <path d="M 31.102327323489703, 40.84596862399919 Q 23.693624447515415, 46.22335951283644, 15.543840031766637, 55.89428201778996 " fill="none" id="curve_2" stroke="#000000" stroke-linecap="round" stroke-linejoin="round" stroke-width="3.861707782580462"/>
  <path d="M 17.770972126901043, 87.38671223166665 Q 17.601986035032347, 87.27487130405032, 17.541681987826948, 86.55384032884731 " fill="none" id="curve_3" stroke="#000000" stroke-linecap="round" stroke-linejoin="round" stroke-width="7.085663324794926"/>
  <path d="M 15.874863627674504, 56.714376507507936 Q 17.720661748818927, 54.5672812604643, 20.29347654848228, 52.62055078863362 " fill="none" id="curve_4" stroke="#000000" stroke-linecap="round" stroke-linejoin="round" stroke-width="9.261943076019742"/>
  <path d="M 68.86148394701361, 42.516942548432695 Q 67.61731389683709, 42.10393376135069, 66.42471148704134, 40.95294893637603 " fill="none" id="curve_5" stroke="#000000" stroke-linecap="round" stroke-linejoin="round" stroke-width="4.3183216401199855"/>
  <path d="M 36.17114877078093, 19.67717645777489 Q 44.33243006740126, 18.107465434718414, 48.530842486418216, 12.966533638861652 " fill="none" id="curve_6" stroke="#000000" stroke-linecap="round" stroke-linejoin="round" stroke-width="4.43044408965863"/>
  <path d="M 48.530842486418216, 12.966533638861652 Q 42.81068288739146, 14.944227876853324, 38.965441947474815, 19.999005297515815 " fill="none" id="curve_6" stroke="#000000" stroke-linecap="round" stroke-linejoin="round" stroke-width="3.7112671665337307"/>
  <path d="M 16.327179731630284, 52.12293060927315 Q 14.83260585189026, 53.809881888566544, 14.309014334813659, 62.348271761579596 " fill="none" id="curve_7" stroke="#000000" stroke-linecap="round" stroke-linejoin="round" stroke-width="3.726515113228394"/>
  <path d="M 49.210827845395336, 98.66169563529442 Q 46.937219611787796, 111.72413799156776, 28.531013878084625, 117.70647320248575 " fill="none" id="curve_8" stroke="#000000" stroke-linecap="round" stroke-linejoin="round" stroke-width="3.3985413886466147"/>
  <path d="M 62.37821632467167, 83.38023132344249 Q 62.228478171878436, 81.42466327052045, 61.48368313855732, 80.15532911770524 " fill="none" id="curve_9" stroke="#000000" stroke-linecap="round" stroke-linejoin="round" stroke-width="3.0343895553938975"/>
  <path d="M 46.56077210626066, 20.823077644300955 Q 49.62249184086577, 21.049184397112807, 52.542416657610254, 21.475285622831493 " fill="none" id="curve_12" stroke="#000000" stroke-linecap="round" stroke-linejoin="round" stroke-width="2.960076472161184"/>
  <path d="M 68.1381203980024, 41.921700036723934 Q 64.32570778030941, 37.8334982456096, 58.7198484308305, 31.881991318287245 " fill="none" id="curve_13" stroke="#000000" stroke-linecap="round" stroke-linejoin="round" stroke-width="2.541782214737689"/>
  <path d="M 21.215163083226955, 42.201907692415794 Q 16.903282211477084, 47.780598496853585, 13.155652080305028, 59.65370252332023 " fill="none" id="curve_15" stroke="#000000" stroke-linecap="round" stroke-linejoin="round" stroke-width="3.074700928140002"/>
  <path d="M 11.506833541729732, 103.58334592123765 Q 11.920724429086674, 105.2120225547664, 12.75783531927442, 107.05664197023187 " fill="none" id="curve_16" stroke="#000000" stroke-linecap="round" stroke-linejoin="round" stroke-width="4.2021933449230495"/>
  <path d="M 56.104746097226396, 92.16023571965157 Q 50.7486225645567, 103.28993831766277, 33.51512765162002, 114.77523793755725 " fill="none" id="curve_17" stroke="#000000" stroke-linecap="round" stroke-linejoin="round" stroke-width="2.870107451924438"/>
  <path d="M 12.500416140759855, 104.96453321276688 Q 15.203877486564023, 108.52110427095361, 20.15721604173506, 114.33551570453851 " fill="none" id="curve_20" stroke="#000000" stroke-linecap="round" stroke-linejoin="round" stroke-width="2.976204041280734"/>
  <path d="M 28.849187143484382, 46.27412928823722 Q 28.349855435600144, 45.8270197854612, 27.305320577447908, 44.98182298014358 " fill="none" id="curve_22" stroke="#000000" stroke-linecap="round" stroke-linejoin="round" stroke-width="2.8613581376955484"/>
  <path d="M 66.84187847402936, 53.83069377947132 Q 68.09189460404245, 52.24466088260517, 68.44497353760715, 40.799939059332985 " fill="none" id="curve_24" stroke="#000000" stroke-linecap="round" stroke-linejoin="round" stroke-width="2.1884049721524153"/>
  <path d="M 68.44497353760715, 40.799939059332985 Q 68.2128689835837, 39.024352541501855, 64.58367302035523, 38.8073248883066 " fill="none" id="curve_24" stroke="#000000" stroke-linecap="round" stroke-linejoin="round" stroke-width="3.1224896039398686"/>
  <path d="M 47.82629036110904, 14.525406906973718 Q 50.73593023054136, 15.659422330427118, 53.310483265005786, 18.02590173595215 " fill="none" id="curve_26" stroke="#000000" stroke-linecap="round" stroke-linejoin="round" stroke-width="2.617510972378419"/>
  <path d="M 60.01430154103325, 86.69982380626286 Q 53.723138270654786, 91.32123211910054, 47.660781309777285, 104.70990765161238 " fill="none" id="curve_29" stroke="#000000" stroke-linecap="round" stroke-linejoin="round" stroke-width="2.8753869625867647"/>
  <path d="M 23.091558899479878, 115.20029704588865 Q 23.65134825736816, 118.28489471769099, 26.743569228938274, 119.54312022233121 " fill="none" id="curve_57" stroke="#000000" stroke-linecap="round" stroke-linejoin="round" stroke-width="3.6544571108061445"/>
  <path d="M 12.977189405153043, 105.8400563679959 Q 13.140933905969062, 105.31203893916488, 13.311509858485579, 104.15365751399457 " fill="none" id="curve_59" stroke="#000000" stroke-linecap="round" stroke-linejoin="round" stroke-width="3.79226867690569"/>
  <path d="M 60.94783598654021, 69.11911173168392 Q 62.11539166061239, 68.45915803888423, 63.415223765600224, 67.3245254250947 " fill="none" id="curve_74" stroke="#000000" stroke-linecap="round" stroke-linejoin="round" stroke-width="3.202494385064805"/>
  <path d="M 50.25765819152632, 101.08741912978512 Q 46.481690493081416, 104.23267546863981, 40.28049758905397, 108.48920236044201 " fill="none" id="curve_75" stroke="#000000" stroke-linecap="round" stroke-linejoin="round" stroke-width="3.0928417714997325"/>
  <path d="M 11.106143272518466, 106.19840676459978 Q 12.452052632683271, 105.24764912982718, 14.671124994494804, 104.33939264027337 " fill="none" id="curve_90" stroke="#000000" stroke-linecap="round" stroke-linejoin="round" stroke-width="4.690192615313142"/>
  <path d="M 45.454785598090666, 103.70078588087199 Q 46.90004592437205, 102.91176964390147, 49.220278689779654, 102.21982720215922 " fill="none" id="curve_157" stroke="#000000" stroke-linecap="round" stroke-linejoin="round" stroke-width="4.354069079878421"/>
  <path d="M 19.85226264533456, 118.35650426081611 Q 14.656798148734802, 114.4640963603134, 10.589773720121695, 103.1659622103112 " fill="none" id="curve_158" stroke="#000000" stroke-linecap="round" stroke-linejoin="round" stroke-width="2.8348483306769583"/>
</svg>
