<?xml version="1.0" ?>
<svg height="140" width="140" xmlns="http://www.w3.org/2000/svg">
  <path d="M 59.49917030334473, 70.33444213867188 Q 57.622070685752476, 78.6133774915775, 47.37326313929515, 91.43379235590248 " fill="none" id="curve_1" stroke="#000000" stroke-linecap="round" stroke-linejoin="round" stroke-width="5.705574728239071"/>
  <path d="M 47.37326313929515, 91.43379235590248 Q 42.55782077944985, 97.27134284827045, 29.380803205358088, 102.2487154584252 " fill="none" id="curve_1" stroke="#000000" stroke-linecap="round" stroke-linejoin="round" stroke-width="4.898603580806323"/>
  <path d="M 29.380803205358088, 102.2487154584252 Q 16.228863454053208, 102.0506860183588, 15.314743132151275, 93.55592195109709 " fill="none" id="curve_1" stroke="#000000" stroke-linecap="round" stroke-linejoin="round" stroke-width="4.831459277102878"/>
  <path d="M 15.314743132151275, 93.55592195109709 Q 16.15513019875551, 78.85623102034614, 22.511846262690067, 67.07749429086053 " fill="none" id="curve_1" stroke="#000000" stroke-linecap="round" stroke-linejoin="round" stroke-width="5.446665004951311"/>
  <path d="M 22.511846262690067, 67.07749429086053 Q 26.117949949207798, 54.30614952436777, 41.31707388637132, 43.38755002449813 " fill="none" id="curve_1" stroke="#000000" stroke-linecap="round" stroke-linejoin="round" stroke-width="7.720367201102331"/>
  <path d="M 41.31707388637132, 43.38755002449813 Q 39.013818026425355, 52.40776822485687, 32.70098465129757, 57.26502691055857 " fill="none" id="curve_1" stroke="#000000" stroke-linecap="round" stroke-linejoin="round" stroke-width="4.557748196391371"/>
  <path d="M 44.74577270206075, 40.78525242752695 Q 45.44107382246556, 38.31332771027192, 58.797986676102376, 37.99980906941354 " fill="none" id="curve_2" stroke="#000000" stroke-linecap="round" stroke-linejoin="round" stroke-width="4.401889293290396"/>
  <path d="M 58.797986676102376, 37.99980906941354 Q 60.98063277388179, 39.54716205324806, 62.45313662771161, 43.15217032590081 " fill="none" id="curve_2" stroke="#000000" stroke-linecap="round" stroke-linejoin="round" stroke-width="4.145729069717341"/>
  <path d="M 49.04712575634883, 40.91996476273448 Q 55.29883569794645, 45.88679607449714, 59.5441080608198, 58.97261183504831 " fill="none" id="curve_3" stroke="#000000" stroke-linecap="round" stroke-linejoin="round" stroke-width="4.618607596195809"/>
  <path d="M 59.5441080608198, 58.97261183504831 Q 59.388881801901476, 77.42496805460684, 54.71937850714018, 80.17594542096282 " fill="none" id="curve_3" stroke="#000000" stroke-linecap="round" stroke-linejoin="round" stroke-width="4.077759546402409"/>
  <path d="M 54.71937850714018, 80.17594542096282 Q 57.98794052263498, 74.2027163769774, 61.225790898600046, 65.30841996860705 " fill="none" id="curve_3" stroke="#000000" stroke-linecap="round" stroke-linejoin="round" stroke-width="3.70175431481916"/>
  <path d="M 50.568993011847596, 45.67311811921789 Q 44.33110776233848, 45.57171595136799, 42.51711690924393, 44.796630762587625 " fill="none" id="curve_4" stroke="#000000" stroke-linecap="round" stroke-linejoin="round" stroke-width="4.305862322645342"/>
  <path d="M 90.54387339373915, 39.79382719057536 Q 89.98712071793872, 43.02601715950688, 89.7493468534394, 63.57949284834026 " fill="none" id="curve_6" stroke="#000000" stroke-linecap="round" stroke-linejoin="round" stroke-width="1.6783445827213526"/>
  <path d="M 89.7493468534394, 63.57949284834026 Q 89.74594009719416, 79.22828208315377, 89.71834348843672, 95.86839541698222 " fill="none" id="curve_6" stroke="#000000" stroke-linecap="round" stroke-linejoin="round" stroke-width="1.7291623162911307"/>
  <path d="M 89.71834348843672, 95.86839541698222 Q 89.71647106926505, 108.21221268786385, 89.70170463263523, 122.53429405652577 " fill="none" id="curve_6" stroke="#000000" stroke-linecap="round" stroke-linejoin="round" stroke-width="1.6399087737460325"/>
  <path d="M 89.70170463263523, 122.53429405652577 Q 89.67469144747581, 135.19505217605106, 89.53452090322153, 138.57618435982607 " fill="none" id="curve_6" stroke="#000000" stroke-linecap="round" stroke-linejoin="round" stroke-width="1.9751418295983163"/>
  <path d="M 61.47126185879807, 63.39555660293419 Q 58.5971368121495, 62.19861813665714, 56.728651564301394, 58.42194435064643 " fill="none" id="curve_15" stroke="#000000" stroke-linecap="round" stroke-linejoin="round" stroke-width="3.223182518163358"/>
  <path d="M 61.83483928312578, 45.87369656104536 Q 61.89382985119824, 44.84114485763186, 61.97081455368791, 43.52593382914876 " fill="none" id="curve_16" stroke="#000000" stroke-linecap="round" stroke-linejoin="round" stroke-width="2.9379957738422258"/>
  <path d="M 89.30689239609697, 38.31689577322334 Q 89.52892651989343, 37.46930869290117, 89.60032563710767, 29.144403458571322 " fill="none" id="curve_17" stroke="#000000" stroke-linecap="round" stroke-linejoin="round" stroke-width="1.4324187645569422"/>
  <path d="M 89.60032563710767, 29.144403458571322 Q 89.60744795183918, 24.69536220817063, 89.61803886645724, 14.78254950470096 " fill="none" id="curve_17" stroke="#000000" stroke-linecap="round" stroke-linejoin="round" stroke-width="1.380431872249629"/>
  <path d="M 89.61803886645724, 14.78254950470096 Q 89.57179519704194, 4.064907661297989, 89.02056398369255, 0.9304723988977699 " fill="none" id="curve_17" stroke="#000000" stroke-linecap="round" stroke-linejoin="round" stroke-width="1.685813632957585"/>
  <path d="M 89.02056398369255, 0.9304723988977699 Q 88.92316858869145, 1.2974044455259857, 88.87615576829704, 3.372665654034817 " fill="none" id="curve_17" stroke="#000000" stroke-linecap="round" stroke-linejoin="round" stroke-width="1.609019997066668"/>
  <path d="M 51.66542828409153, 38.46456214035831 Q 51.92192046713219, 36.97014352971663, 53.38928431905902, 35.9272414931484 " fill="none" id="curve_23" stroke="#000000" stroke-linecap="round" stroke-linejoin="round" stroke-width="2.7989770771176246"/>
  <path d="M 22.45706127229008, 62.86242178604832 Q 20.88719478696723, 66.77026754663963, 19.251558155123547, 76.62909275796858 " fill="none" id="curve_24" stroke="#000000" stroke-linecap="round" stroke-linejoin="round" stroke-width="2.562654663771557"/>
  <path d="M 47.35943598126906, 37.34257065623465 Q 60.07587963377627, 37.56849374233692, 61.42624858934362, 43.243560665184475 " fill="none" id="curve_27" stroke="#000000" stroke-linecap="round" stroke-linejoin="round" stroke-width="2.2632537101404147"/>
  <path d="M 58.01135009604913, 79.47426161381425 Q 53.07769539723319, 84.44807817765775, 44.90925909220832, 91.5869431765278 " fill="none" id="curve_30" stroke="#000000" stroke-linecap="round" stroke-linejoin="round" stroke-width="3.498127936200828"/>
  <path d="M 18.49500175854569, 96.52639753336388 Q 15.8411126185818, 94.94006076366577, 14.881802320134796, 85.49514484196635 " fill="none" id="curve_33" stroke="#000000" stroke-linecap="round" stroke-linejoin="round" stroke-width="2.7398271398921827"/>
  <path d="M 38.62730134145523, 100.56828388230718 Q 33.57691028962313, 100.70617194343038, 27.43037146842846, 100.97423446274279 " fill="none" id="curve_34" stroke="#000000" stroke-linecap="round" stroke-linejoin="round" stroke-width="3.10416742855319"/>
  <path d="M 48.39183044433594, 89.65907955169678 Q 52.451080217051874, 83.56317458354432, 60.37836284554169, 72.38495271545797 " fill="none" id="curve_48" stroke="#000000" stroke-linecap="round" stroke-linejoin="round" stroke-width="3.086707157851642"/>
  <path d="M 57.20421734880551, 48.37166592384416 Q 57.691301938482106, 52.05385700986304, 58.29447022344061, 59.901814335427794 " fill="none" id="curve_81" stroke="#000000" stroke-linecap="round" stroke-linejoin="round" stroke-width="2.6033501563653627"/>
  <path d="M 63.717136670638865, 44.077994148028665 Q 63.197646379188804, 39.06415700510154, 53.72440975696755, 37.73622733351416 " fill="none" id="curve_135" stroke="#000000" stroke-linecap="round" stroke-linejoin="round" stroke-width="2.7339138345914926"/>
</svg>
