<?xml version="1.0" ?>
<svg height="140" width="140" xmlns="http://www.w3.org/2000/svg">
  <path d="M 28.458762168884277, 59.0379753112793 Q 27.145586552948558, 63.32780170295059, 23.7611983671396, 67.01642580202963 " fill="none" id="curve_1" stroke="#000000" stroke-linecap="round" stroke-linejoin="round" stroke-width="6.66983741155293"/>
  <path d="M 23.7611983671396, 67.01642580202963 Q 18.49835577967029, 70.21169145061835, 15.857926888633664, 82.6366720403401 " fill="none" id="curve_1" stroke="#000000" stroke-linecap="round" stroke-linejoin="round" stroke-width="3.2656123408164643"/>
  <path d="M 13.810097244165993, 106.14368608211822 Q 14.514630761354956, 108.02783879099161, 15.529793340509817, 109.74568096855515 " fill="none" id="curve_2" stroke="#000000" stroke-linecap="round" stroke-linejoin="round" stroke-width="4.99609552869723"/>
  <path d="M 49.171538386470694, 93.27942722123532 Q 52.71201252423658, 87.53006541134417, 56.959547759163655, 80.88985004565512 " fill="none" id="curve_3" stroke="#000000" stroke-linecap="round" stroke-linejoin="round" stroke-width="6.329025553687614"/>
  <path d="M 56.959547759163655, 80.88985004565512 Q 55.85980398374594, 59.30492108777459, 40.42042985091006, 53.27154377940603 " fill="none" id="curve_3" stroke="#000000" stroke-linecap="round" stroke-linejoin="round" stroke-width="6.367112926591987"/>
  <path d="M 40.42042985091006, 53.27154377940603 Q 30.387149763380112, 54.079555305053546, 28.741052648059473, 62.042058851763215 " fill="none" id="curve_3" stroke="#000000" stroke-linecap="round" stroke-linejoin="round" stroke-width="3.8869137882180427"/>
  <path d="M 42.95376543458878, 55.496657894930806 Q 44.04782093242304, 60.124513969828925, 46.840205457920476, 62.62248361430709 " fill="none" id="curve_4" stroke="#000000" stroke-linecap="round" stroke-linejoin="round" stroke-width="5.150934263509209"/>
  <path d="M 38.15312928873467, 50.1750481826966 Q 36.5431718044611, 51.12549451228153, 35.40715318576864, 53.27983012498859 " fill="none" id="curve_5" stroke="#000000" stroke-linecap="round" stroke-linejoin="round" stroke-width="6.64676392474806"/>
  <path d="M 87.78493210060083, 2.158676282629448 Q 87.57154968733654, 2.675246498803149, 87.17175120574547, 3.3927447832638644 " fill="none" id="curve_7" stroke="#000000" stroke-linecap="round" stroke-linejoin="round" stroke-width="4.2491430414328"/>
  <path d="M 87.17175120574547, 3.3927447832638644 Q 88.3343532599071, 4.5373215309262385, 88.92143415257694, 11.228128428421568 " fill="none" id="curve_7" stroke="#000000" stroke-linecap="round" stroke-linejoin="round" stroke-width="2.888078605090759"/>
  <path d="M 88.64014428206058, 60.84848972956948 Q 89.04296084775497, 70.42661326420803, 89.50687179850092, 98.07378924882342 " fill="none" id="curve_8" stroke="#000000" stroke-linecap="round" stroke-linejoin="round" stroke-width="1.8926853301399542"/>
  <path d="M 89.50687179850092, 98.07378924882342 Q 89.63382473494754, 117.6500812202022, 89.91890675253916, 137.50611653266796 " fill="none" id="curve_8" stroke="#000000" stroke-linecap="round" stroke-linejoin="round" stroke-width="2.0904186455102365"/>
  <path d="M 34.50239620947293, 105.14442401132418 Q 32.63183556945093, 105.7516877945069, 31.12965469697014, 106.90011346281683 " fill="none" id="curve_12" stroke="#000000" stroke-linecap="round" stroke-linejoin="round" stroke-width="2.373287191675612"/>
  <path d="M 49.12832116511916, 89.31298562586319 Q 51.04171850807389, 85.01323700149108, 55.284074979416026, 81.65519506665409 " fill="none" id="curve_13" stroke="#000000" stroke-linecap="round" stroke-linejoin="round" stroke-width="3.2761058260641134"/>
  <path d="M 49.14389066850896, 58.36755651464406 Q 50.060387567591306, 58.00186387490866, 50.6999080373161, 57.16411592288058 " fill="none" id="curve_14" stroke="#000000" stroke-linecap="round" stroke-linejoin="round" stroke-width="4.264885648281497"/>
  <path d="M 89.98438952130434, 58.996164467914156 Q 89.84820026389461, 55.638133205745774, 89.75883105492782, 36.442945011331716 " fill="none" id="curve_15" stroke="#000000" stroke-linecap="round" stroke-linejoin="round" stroke-width="1.8248844597295877"/>
  <path d="M 89.75883105492782, 36.442945011331716 Q 89.7378272201095, 30.549581716902658, 89.70637521511874, 16.527187267569925 " fill="none" id="curve_15" stroke="#000000" stroke-linecap="round" stroke-linejoin="round" stroke-width="1.5220504689323489"/>
  <path d="M 89.70637521511874, 16.527187267569925 Q 89.64143420058423, 1.316876076493502, 83.6792235647379, 0.5621487561656231 " fill="none" id="curve_15" stroke="#000000" stroke-linecap="round" stroke-linejoin="round" stroke-width="2.130297346298171"/>
  <path d="M 83.6792235647379, 0.5621487561656231 Q 84.71150238754726, 3.6426244236320358, 88.56068254367592, 4.746323208109183 " fill="none" id="curve_15" stroke="#000000" stroke-linecap="round" stroke-linejoin="round" stroke-width="4.471407010854427"/>
  <path d="M 88.56068254367592, 4.746323208109183 Q 88.1831976149256, 1.6334296354936315, 81.46109556392187, 1.2586756384661495 " fill="none" id="curve_15" stroke="#000000" stroke-linecap="round" stroke-linejoin="round" stroke-width="2.0846816471134306"/>
  <path d="M 89.65255794840567, 1.7563669051674413 Q 89.03205580242316, 1.8735418899263805, 86.27262765491629, 1.9253156213814742 " fill="none" id="curve_16" stroke="#000000" stroke-linecap="round" stroke-linejoin="round" stroke-width="2.599484838222931"/>
  <path d="M 51.37289945718376, 63.39768937487554 Q 53.17862077362985, 70.68716001795393, 56.04684200472284, 78.25892856439273 " fill="none" id="curve_21" stroke="#000000" stroke-linecap="round" stroke-linejoin="round" stroke-width="2.4090951924684694"/>
  <path d="M 44.69543697110211, 54.731621051770986 Q 43.77232665729771, 51.52805479337975, 39.43262110355849, 50.0403387922449 " fill="none" id="curve_22" stroke="#000000" stroke-linecap="round" stroke-linejoin="round" stroke-width="3.327420289665184"/>
  <path d="M 25.964548413112652, 61.7570964648578 Q 25.715279225425334, 61.95015667531494, 25.6332586195159, 63.19738091517009 " fill="none" id="curve_27" stroke="#000000" stroke-linecap="round" stroke-linejoin="round" stroke-width="5.237370643538165"/>
  <path d="M 51.43443921590319, 91.20639365348396 Q 53.15384847031082, 84.40562555118487, 56.905010157127535, 78.51770096943241 " fill="none" id="curve_35" stroke="#000000" stroke-linecap="round" stroke-linejoin="round" stroke-width="4.1027529039694395"/>
  <path d="M 53.06815861126492, 88.45523110071846 Q 54.99292736696431, 86.53649816010498, 57.03437568170694, 81.53575813994372 " fill="none" id="curve_41" stroke="#000000" stroke-linecap="round" stroke-linejoin="round" stroke-width="3.6206639689729028"/>
  <path d="M 13.716760341907259, 105.50016910653108 Q 13.69625052982871, 104.85118581428287, 13.670225199731822, 103.75799551157314 " fill="none" id="curve_59" stroke="#000000" stroke-linecap="round" stroke-linejoin="round" stroke-width="2.0581390055795112"/>
  <path d="M 56.02381634844471, 71.79887829425661 Q 56.78948601706779, 71.90205121353254, 57.53457924647405, 72.10155629617992 " fill="none" id="curve_74" stroke="#000000" stroke-linecap="round" stroke-linejoin="round" stroke-width="4.2663966009498235"/>
  <path d="M 45.99767390498255, 57.9585606590299 Q 48.62464488718262, 58.143570367326845, 52.87797467289077, 58.42131616663528 " fill="none" id="curve_167" stroke="#000000" stroke-linecap="round" stroke-linejoin="round" stroke-width="2.643176808402805"/>
</svg>
