<?xml version="1.0" ?>
<svg height="140" width="140" xmlns="http://www.w3.org/2000/svg">
  <path d="M 62.2031192779541, 58.082847595214844 Q 58.60217805405983, 62.52992521563128, 50.54041306057536, 70.78109834758618 " fill="none" id="curve_1" stroke="#000000" stroke-linecap="round" stroke-linejoin="round" stroke-width="8.796858784790537"/>
  <path d="M 50.54041306057536, 70.78109834758618 Q 43.94329845733735, 76.51987444386049, 33.50219399436226, 85.58801026305616 " fill="none" id="curve_1" stroke="#000000" stroke-linecap="round" stroke-linejoin="round" stroke-width="4.590959938787487"/>
  <path d="M 54.032822804686596, 94.79915788287235 Q 55.124864564913494, 79.19812096020439, 60.987544129635516, 62.25992638980032 " fill="none" id="curve_2" stroke="#000000" stroke-linecap="round" stroke-linejoin="round" stroke-width="5.30373054739801"/>
  <path d="M 60.987544129635516, 62.25992638980032 Q 61.16301401236087, 59.76112732191004, 61.60014756322367, 58.61135689656107 " fill="none" id="curve_2" stroke="#000000" stroke-linecap="round" stroke-linejoin="round" stroke-width="6.377867403178196"/>
  <path d="M 53.64063384085822, 90.33438334510036 Q 55.14864698353444, 87.22966268591475, 56.17278707212426, 78.67063998253381 " fill="none" id="curve_3" stroke="#000000" stroke-linecap="round" stroke-linejoin="round" stroke-width="4.114127523011529"/>
  <path d="M 53.36957775537298, 94.9926805228013 Q 54.440370041880335, 85.92633453274642, 56.806255206263856, 76.64114129726835 " fill="none" id="curve_4" stroke="#000000" stroke-linecap="round" stroke-linejoin="round" stroke-width="3.4385408343288546"/>
  <path d="M 31.957288916391853, 85.31476795935176 Q 32.70310115438894, 85.1222860854955, 33.329471344876715, 84.6113032492349 " fill="none" id="curve_5" stroke="#000000" stroke-linecap="round" stroke-linejoin="round" stroke-width="4.149696415731044"/>
  <path d="M 61.0529448659549, 57.97772633166082 Q 59.94415923654717, 59.152668325386024, 58.264698128072055, 60.885455169430834 " fill="none" id="curve_6" stroke="#000000" stroke-linecap="round" stroke-linejoin="round" stroke-width="4.471773165983085"/>
  <path d="M 54.312392925885526, 91.32828342214817 Q 54.98405677684827, 86.41881212066747, 56.05264561043407, 80.24519537887372 " fill="none" id="curve_7" stroke="#000000" stroke-linecap="round" stroke-linejoin="round" stroke-width="4.012728964341983"/>
  <path d="M 56.41279983520508, 92.0382981300354 Q 55.169471263820924, 89.35700783000149, 54.04027633287751, 81.57405784589355 " fill="none" id="curve_21" stroke="#000000" stroke-linecap="round" stroke-linejoin="round" stroke-width="4.6236378991963365"/>
  <path d="M 61.82689167684986, 58.87960096416728 Q 62.14037622938723, 58.50347342458792, 62.65334641751219, 57.79280157141777 " fill="none" id="curve_37" stroke="#000000" stroke-linecap="round" stroke-linejoin="round" stroke-width="3.069309487417394"/>
  <path d="M 57.06829419354767, 84.58403785310134 Q 56.47330455728276, 84.12158777478761, 55.75250898112958, 83.19183471958911 " fill="none" id="curve_52" stroke="#000000" stroke-linecap="round" stroke-linejoin="round" stroke-width="4.346367021186446"/>
  <path d="M 52.82980815119748, 87.75580060803944 Q 52.85212719640719, 87.53296439909097, 52.878056355445025, 87.14703122121259 " fill="none" id="curve_93" stroke="#000000" stroke-linecap="round" stroke-linejoin="round" stroke-width="4.266812876411302"/>
</svg>
