<?xml version="1.0" ?>
<svg height="140" width="140" xmlns="http://www.w3.org/2000/svg">
  <path d="M 49.983829498291016, 46.97126579284668 Q 49.91514174400717, 46.950754639032795, 49.845912588355645, 46.838387553654975 " fill="none" id="curve_1" stroke="#000000" stroke-linecap="round" stroke-linejoin="round" stroke-width="6.197578367995967"/>
  <path d="M 49.845912588355645, 46.838387553654975 Q 45.20571001651916, 52.48717241394815, 33.68121747964297, 71.43024999585647 " fill="none" id="curve_1" stroke="#000000" stroke-linecap="round" stroke-linejoin="round" stroke-width="4.799188752469667"/>
  <path d="M 33.68121747964297, 71.43024999585647 Q 31.717522491235755, 77.23232974757796, 28.207466630447577, 80.80973969469005 " fill="none" id="curve_1" stroke="#000000" stroke-linecap="round" stroke-linejoin="round" stroke-width="4.839998955960197"/>
  <path d="M 53.88544303051245, 103.57689732137501 Q 53.13075906321631, 95.10385274434972, 51.867592754355535, 72.0200568999525 " fill="none" id="curve_2" stroke="#000000" stroke-linecap="round" stroke-linejoin="round" stroke-width="5.435621980000108"/>
  <path d="M 51.867592754355535, 72.0200568999525 Q 52.01780395077527, 62.73901089220384, 52.225135670021146, 45.524510469831796 " fill="none" id="curve_2" stroke="#000000" stroke-linecap="round" stroke-linejoin="round" stroke-width="4.738063880583483"/>
  <path d="M 52.225135670021146, 45.524510469831796 Q 52.094037144849416, 44.70506278315526, 51.890477769034675, 43.97222270103369 " fill="none" id="curve_2" stroke="#000000" stroke-linecap="round" stroke-linejoin="round" stroke-width="4.596519379364823"/>
  <path d="M 36.70709877255045, 64.47456748546877 Q 38.74851501751238, 59.6710869819244, 44.47983889174599, 54.8042287345783 " fill="none" id="curve_12" stroke="#000000" stroke-linecap="round" stroke-linejoin="round" stroke-width="2.227091672840365"/>
  <path d="M 44.47983889174599, 54.8042287345783 Q 38.107795111762016, 59.89999913493931, 32.30984527263071, 72.28130847542631 " fill="none" id="curve_12" stroke="#000000" stroke-linecap="round" stroke-linejoin="round" stroke-width="2.3759690503190583"/>
  <path d="M 55.702127530689516, 104.34017065390734 Q 54.71046748631845, 102.64920619262269, 53.46299750376607, 99.60481630401303 " fill="none" id="curve_13" stroke="#000000" stroke-linecap="round" stroke-linejoin="round" stroke-width="3.7499657304878613"/>
  <path d="M 51.564806095109084, 80.25516186590285 Q 52.518739879862345, 84.24864046039514, 53.16935724491374, 97.73889383058113 " fill="none" id="curve_14" stroke="#000000" stroke-linecap="round" stroke-linejoin="round" stroke-width="2.3691867124397294"/>
  <path d="M 52.87888821032507, 84.25522246152354 Q 52.46024726892069, 84.12422549180934, 51.723020130006645, 83.76459495217583 " fill="none" id="curve_25" stroke="#000000" stroke-linecap="round" stroke-linejoin="round" stroke-width="3.012518031503328"/>
  <path d="M 52.463484558977804, 85.68549586748966 Q 51.60695899586768, 84.99789987824383, 51.16583931197248, 81.29330588751998 " fill="none" id="curve_36" stroke="#000000" stroke-linecap="round" stroke-linejoin="round" stroke-width="4.2161396712487305"/>
  <path d="M 51.426455057648056, 97.47571472497528 Q 52.418090028935275, 96.1061583843916, 53.29279026489613, 90.56519315630338 " fill="none" id="curve_38" stroke="#000000" stroke-linecap="round" stroke-linejoin="round" stroke-width="2.9041066246935108"/>
  <path d="M 50.121490207560015, 50.53986870110593 Q 50.23759368300551, 63.883179498116796, 50.818615583529024, 74.11412936325159 " fill="none" id="curve_40" stroke="#000000" stroke-linecap="round" stroke-linejoin="round" stroke-width="1.907666767565029"/>
  <path d="M 51.840737453326454, 85.45869768362202 Q 52.876467849032544, 85.52132312015873, 53.77103638219715, 85.71313861052165 " fill="none" id="curve_70" stroke="#000000" stroke-linecap="round" stroke-linejoin="round" stroke-width="4.087573719753046"/>
  <path d="M 45.22392269585578, 52.68979541132212 Q 39.10691628697884, 58.88913673746089, 30.62750323513005, 75.22212224940304 " fill="none" id="curve_72" stroke="#000000" stroke-linecap="round" stroke-linejoin="round" stroke-width="2.4382469011205794"/>
  <path d="M 43.20512884936829, 55.84159885709481 Q 39.07409277452645, 58.22328438275025, 35.54843477600833, 66.77147703211143 " fill="none" id="curve_152" stroke="#000000" stroke-linecap="round" stroke-linejoin="round" stroke-width="2.6965751303645895"/>
  <path d="M 51.464524957845, 85.31333799751604 Q 51.72791829098933, 84.21311825019276, 53.13515181551091, 83.70127344582365 " fill="none" id="curve_171" stroke="#000000" stroke-linecap="round" stroke-linejoin="round" stroke-width="3.3521718159183616"/>
</svg>
