<?xml version="1.0" ?>
<svg height="140" width="140" xmlns="http://www.w3.org/2000/svg">
  <path d="M 55.6208610534668, 61.19168758392334 Q 56.13521960590435, 61.56771650058249, 56.26940628117313, 66.51320409576329 " fill="none" id="curve_1" stroke="#000000" stroke-linecap="round" stroke-linejoin="round" stroke-width="6.258284585784354"/>
  <path d="M 56.26940628117313, 66.51320409576329 Q 55.87439430826072, 67.59550052166608, 55.80037448415096, 82.81126195075402 " fill="none" id="curve_1" stroke="#000000" stroke-linecap="round" stroke-linejoin="round" stroke-width="5.206963059286613"/>
  <path d="M 55.80037448415096, 82.81126195075402 Q 55.742928768671135, 89.99653083674869, 55.612863244395406, 95.16961826782408 " fill="none" id="curve_1" stroke="#000000" stroke-linecap="round" stroke-linejoin="round" stroke-width="3.4233273649680034"/>
  <path d="M 57.9347277927122, 60.6809983087219 Q 57.77586052441074, 60.56125535278447, 57.641095991444324, 60.34202628903193 " fill="none" id="curve_3" stroke="#000000" stroke-linecap="round" stroke-linejoin="round" stroke-width="3.8224129574780714"/>
  <path d="M 58.291842699648456, 76.49523490893284 Q 58.028658059621904, 70.85101127877302, 57.256166738428334, 67.065439042268 " fill="none" id="curve_4" stroke="#000000" stroke-linecap="round" stroke-linejoin="round" stroke-width="2.67399674132247"/>
  <path d="M 56.183567271966865, 63.75607552636561 Q 56.677333307153674, 63.05714194662568, 57.29442292728605, 61.96293094057619 " fill="none" id="curve_25" stroke="#000000" stroke-linecap="round" stroke-linejoin="round" stroke-width="3.6049817723711066"/>
  <path d="M 56.25722288049302, 64.54191280694342 Q 56.75641728893257, 63.502529276021534, 57.574994628798486, 62.305495483338646 " fill="none" id="curve_36" stroke="#000000" stroke-linecap="round" stroke-linejoin="round" stroke-width="3.985423406287718"/>
  <path d="M 56.92343429184267, 63.78299504728071 Q 57.36813487017682, 62.55168426357088, 58.78065221371022, 60.623130472668244 " fill="none" id="curve_40" stroke="#000000" stroke-linecap="round" stroke-linejoin="round" stroke-width="2.2094744459774973"/>
  <path d="M 55.59008592642226, 95.71700235045455 Q 55.29905157181555, 95.23913606970295, 54.716977970720926, 94.79464233165982 " fill="none" id="curve_81" stroke="#000000" stroke-linecap="round" stroke-linejoin="round" stroke-width="2.996711149875248"/>
  <path d="M 54.819772782415384, 62.71575824634056 Q 55.3254050257532, 62.91636243548865, 55.88948405625858, 63.47712025274198 " fill="none" id="curve_82" stroke="#000000" stroke-linecap="round" stroke-linejoin="round" stroke-width="3.111649304009217"/>
  <path d="M 56.81133827488793, 64.49779533969217 Q 56.525501672973945, 63.781587894407835, 56.00326669424415, 63.2051398494259 " fill="none" id="curve_97" stroke="#000000" stroke-linecap="round" stroke-linejoin="round" stroke-width="5.56473029084133"/>
  <path d="M 57.89396958915876, 64.74298445161817 Q 57.586960072419274, 64.06861008972908, 57.2406045197184, 62.86802309152623 " fill="none" id="curve_116" stroke="#000000" stroke-linecap="round" stroke-linejoin="round" stroke-width="3.620246147206461"/>
  <path d="M 57.544232491841214, 86.82438588330281 Q 57.14609913175651, 88.03822821645306, 56.33220470323377, 89.05610750823311 " fill="none" id="curve_119" stroke="#000000" stroke-linecap="round" stroke-linejoin="round" stroke-width="2.583316042389186"/>
  <path d="M 54.96920753314765, 62.586849420600686 Q 55.16547277811663, 62.36076429261266, 55.47298051786257, 61.95776040202332 " fill="none" id="curve_120" stroke="#000000" stroke-linecap="round" stroke-linejoin="round" stroke-width="2.6235800559049234"/>
</svg>
