<?xml version="1.0" ?>
<svg height="140" width="140" xmlns="http://www.w3.org/2000/svg">
  <path d="M 55.05954885482788, 51.91086196899414 Q 54.85854311056522, 50.73315303962842, 54.21612084744873, 50.14430652471124 " fill="none" id="curve_1" stroke="#000000" stroke-linecap="round" stroke-linejoin="round" stroke-width="4.928807486355168"/>
  <path d="M 54.21612084744873, 50.14430652471124 Q 53.98176159367638, 62.97619169605808, 52.711809727566155, 78.71315997382614 " fill="none" id="curve_1" stroke="#000000" stroke-linecap="round" stroke-linejoin="round" stroke-width="5.869613382145679"/>
  <path d="M 52.711809727566155, 78.71315997382614 Q 52.08416314258173, 92.41419021003085, 50.44527437415329, 109.90366225306423 " fill="none" id="curve_1" stroke="#000000" stroke-linecap="round" stroke-linejoin="round" stroke-width="3.677738591475834"/>
  <path d="M 50.44527437415329, 109.90366225306423 Q 50.431620049039545, 112.90655182315193, 50.30913449014742, 113.49667281258817 " fill="none" id="curve_1" stroke="#000000" stroke-linecap="round" stroke-linejoin="round" stroke-width="3.075167513240161"/>
  <path d="M 55.89085218446026, 61.36912050327276 Q 55.74977778278105, 55.642944695452464, 55.104879496817325, 53.76894864320053 " fill="none" id="curve_3" stroke="#000000" stroke-linecap="round" stroke-linejoin="round" stroke-width="3.6752206665350884"/>
  <path d="M 51.43063789049467, 90.8032661553135 Q 52.72970124741075, 78.21690815216783, 55.769691822239615, 64.39855660472784 " fill="none" id="curve_5" stroke="#000000" stroke-linecap="round" stroke-linejoin="round" stroke-width="2.630684306203479"/>
  <path d="M 50.41781557284255, 85.24055528486096 Q 51.24465916173408, 81.58479740587583, 52.21476385874996, 74.74838324488253 " fill="none" id="curve_9" stroke="#000000" stroke-linecap="round" stroke-linejoin="round" stroke-width="3.140314098519509"/>
  <path d="M 55.242624663082886, 53.145954901312365 Q 55.313516878122215, 51.93004294366841, 55.43551062620043, 50.767636992315566 " fill="none" id="curve_25" stroke="#000000" stroke-linecap="round" stroke-linejoin="round" stroke-width="4.124280632115586"/>
  <path d="M 53.02683561017912, 73.24156711448961 Q 53.113950516086774, 72.30558640175909, 53.33865305731606, 71.76921541742773 " fill="none" id="curve_26" stroke="#000000" stroke-linecap="round" stroke-linejoin="round" stroke-width="6.118893129799938"/>
  <path d="M 54.30004516675209, 54.80481142732819 Q 54.370526547513215, 53.019829643490574, 54.456608456193734, 50.57754737641798 " fill="none" id="curve_86" stroke="#000000" stroke-linecap="round" stroke-linejoin="round" stroke-width="3.829261624559181"/>
  <path d="M 52.579435503553555, 55.01228708719341 Q 54.092257377847616, 55.111973656732786, 54.93610872785777, 55.68771762690305 " fill="none" id="curve_122" stroke="#000000" stroke-linecap="round" stroke-linejoin="round" stroke-width="3.2464418446938494"/>
</svg>
