<?xml version="1.0" ?>
<svg height="140" width="140" xmlns="http://www.w3.org/2000/svg">
  <path d="M 35.558902740478516, 89.25330352783203 Q 35.58549770101259, 88.43173296080776, 35.601266838396754, 83.41945154986712 " fill="none" id="curve_1" stroke="#000000" stroke-linecap="round" stroke-linejoin="round" stroke-width="6.494322558935081"/>
  <path d="M 35.601266838396754, 83.41945154986712 Q 35.50438341540943, 80.77203761312931, 35.43531101003504, 71.98352274621557 " fill="none" id="curve_1" stroke="#000000" stroke-linecap="round" stroke-linejoin="round" stroke-width="6.890237981088443"/>
  <path d="M 35.43531101003504, 71.98352274621557 Q 35.718920227660305, 57.896369549538655, 37.75671615730754, 47.736438942589956 " fill="none" id="curve_1" stroke="#000000" stroke-linecap="round" stroke-linejoin="round" stroke-width="5.291446512033613"/>
  <path d="M 37.75671615730754, 47.736438942589956 Q 39.22663188532156, 41.16691857605959, 40.8176432408039, 24.187893132942822 " fill="none" id="curve_1" stroke="#000000" stroke-linecap="round" stroke-linejoin="round" stroke-width="8.018272047566633"/>
  <path d="M 40.8176432408039, 24.187893132942822 Q 43.49832330179182, 22.787757018583633, 44.099448510878496, 12.799449524960009 " fill="none" id="curve_1" stroke="#000000" stroke-linecap="round" stroke-linejoin="round" stroke-width="7.680777269718872"/>
  <path d="M 44.099448510878496, 12.799449524960009 Q 38.807787343936994, 22.126436080364968, 33.31819632235921, 39.13263194747734 " fill="none" id="curve_1" stroke="#000000" stroke-linecap="round" stroke-linejoin="round" stroke-width="4.865724876054818"/>
  <path d="M 33.31819632235921, 39.13263194747734 Q 26.81268747200103, 53.00750856202098, 13.213605169065492, 69.03441232607881 " fill="none" id="curve_1" stroke="#000000" stroke-linecap="round" stroke-linejoin="round" stroke-width="4.579338009580802"/>
  <path d="M 13.680992808635732, 70.88037169700785 Q 16.909260978590098, 71.72849587438986, 19.231259113647333, 74.13067299431769 " fill="none" id="curve_2" stroke="#000000" stroke-linecap="round" stroke-linejoin="round" stroke-width="3.2759246726219073"/>
  <path d="M 37.588923715999115, 91.97650858984431 Q 36.351100180130544, 91.58160486692283, 35.135079697157565, 90.79890687964692 " fill="none" id="curve_3" stroke="#000000" stroke-linecap="round" stroke-linejoin="round" stroke-width="4.243246374677895"/>
  <path d="M 0.8237622319449445, 137.70245124035608 Q 1.293256987476923, 136.10075858000465, 1.548980527544054, 127.67574125275499 " fill="none" id="curve_5" stroke="#000000" stroke-linecap="round" stroke-linejoin="round" stroke-width="2.0933919597837782"/>
  <path d="M 1.5708844353996727, 109.99184714819775 Q 1.4788834760347902, 119.4064620277446, 1.1131666362059378, 123.30909820815143 " fill="none" id="curve_6" stroke="#000000" stroke-linecap="round" stroke-linejoin="round" stroke-width="2.364523888240914"/>
  <path d="M 1.3508153359768516, 108.46732897601346 Q 1.1992536973807926, 105.500722248315, 0.9719939990402084, 101.61861034210646 " fill="none" id="curve_7" stroke="#000000" stroke-linecap="round" stroke-linejoin="round" stroke-width="1.4376053204547363"/>
  <path d="M 1.183427021858028, 93.55036743657772 Q 1.44424886368773, 92.3945578540183, 1.5267995291635317, 72.50693874139229 " fill="none" id="curve_8" stroke="#000000" stroke-linecap="round" stroke-linejoin="round" stroke-width="1.9522617363678303"/>
  <path d="M 1.5267995291635317, 72.50693874139229 Q 1.431203144424147, 71.88310959150377, 1.4044217408565778, 67.48169358977097 " fill="none" id="curve_8" stroke="#000000" stroke-linecap="round" stroke-linejoin="round" stroke-width="1.8840703695526662"/>
  <path d="M 1.4044217408565778, 67.48169358977097 Q 1.3425192873204903, 65.34497239222148, 1.292734200101772, 52.60465338147112 " fill="none" id="curve_8" stroke="#000000" stroke-linecap="round" stroke-linejoin="round" stroke-width="1.8996052975214521"/>
  <path d="M 1.292734200101772, 52.60465338147112 Q 1.2781264581861236, 47.19293526221656, 1.2230260022520218, 44.191203860988566 " fill="none" id="curve_8" stroke="#000000" stroke-linecap="round" stroke-linejoin="round" stroke-width="1.6935193553977028"/>
  <path d="M 1.2230260022520218, 44.191203860988566 Q 0.8625172673425843, 43.80427259012877, 0.786117744290795, 39.845317645173516 " fill="none" id="curve_8" stroke="#000000" stroke-linecap="round" stroke-linejoin="round" stroke-width="1.104507436429066"/>
  <path d="M 0.786117744290795, 39.845317645173516 Q 0.8143829836249055, 36.55693053218707, 0.8553927122800659, 30.91023494077715 " fill="none" id="curve_8" stroke="#000000" stroke-linecap="round" stroke-linejoin="round" stroke-width="1.0238961642503157"/>
  <path d="M 0.8553927122800659, 30.91023494077715 Q 0.9343426158003684, 28.325248864512506, 1.010440352260222, 22.134852591939545 " fill="none" id="curve_8" stroke="#000000" stroke-linecap="round" stroke-linejoin="round" stroke-width="1.1216309546743917"/>
  <path d="M 1.010440352260222, 22.134852591939545 Q 1.0543836229543417, 20.319625390545934, 1.1120324385157725, 17.897296611257172 " fill="none" id="curve_8" stroke="#000000" stroke-linecap="round" stroke-linejoin="round" stroke-width="1.4195782592497677"/>
  <path d="M 1.1120324385157725, 17.897296611257172 Q 1.277957531869559, 16.769008573057, 1.3359058885791557, 4.4659512043024385 " fill="none" id="curve_8" stroke="#000000" stroke-linecap="round" stroke-linejoin="round" stroke-width="1.956067950837782"/>
  <path d="M 1.3359058885791557, 4.4659512043024385 Q 1.3607580401403079, 1.479453118234641, 1.5895056216933985, 1.0229761600519502 " fill="none" id="curve_8" stroke="#000000" stroke-linecap="round" stroke-linejoin="round" stroke-width="2.0752149892140586"/>
  <path d="M 1.5895056216933985, 1.0229761600519502 Q 2.0847392930466757, 0.9709216846913957, 2.647154320533702, 0.890136095121643 " fill="none" id="curve_8" stroke="#000000" stroke-linecap="round" stroke-linejoin="round" stroke-width="1.5605737759055656"/>
  <path d="M 1.7565052872969171, 21.596390935873856 Q 1.5199811602742688, 21.897685137839773, 1.1793135373914028, 22.324101844103453 " fill="none" id="curve_9" stroke="#000000" stroke-linecap="round" stroke-linejoin="round" stroke-width="1.7046233693476296"/>
  <path d="M 28.019357215344257, 49.62492240282891 Q 20.280483917948203, 51.378843293801665, 15.426047228936351, 66.79807267521987 " fill="none" id="curve_10" stroke="#000000" stroke-linecap="round" stroke-linejoin="round" stroke-width="2.621053966550253"/>
  <path d="M 15.426047228936351, 66.79807267521987 Q 16.506808210945515, 69.4430058455188, 17.73560208560623, 72.19031837074812 " fill="none" id="curve_10" stroke="#000000" stroke-linecap="round" stroke-linejoin="round" stroke-width="3.0355575407435964"/>
  <path d="M 12.24958593007965, 65.68856235377959 Q 13.747317829052927, 65.28829195653644, 15.690145853047653, 64.59958550869561 " fill="none" id="curve_11" stroke="#000000" stroke-linecap="round" stroke-linejoin="round" stroke-width="2.499475949511982"/>
  <path d="M 0.35331064349999686, 97.65906245603281 Q 0.5837330453065731, 98.12168853877887, 0.7891104136586473, 99.73268160186988 " fill="none" id="curve_12" stroke="#000000" stroke-linecap="round" stroke-linejoin="round" stroke-width="1.8144890163362826"/>
  <path d="M 2.025386780848071, 138.85358665696063 Q 2.2195043075204013, 138.49945947022022, 2.508234759517439, 137.9057728789748 " fill="none" id="curve_13" stroke="#000000" stroke-linecap="round" stroke-linejoin="round" stroke-width="2.204759264384958"/>
  <path d="M 33.20652895912205, 74.92103429066128 Q 33.72389671833599, 76.92906118806056, 34.2768411006757, 80.04478569333935 " fill="none" id="curve_16" stroke="#000000" stroke-linecap="round" stroke-linejoin="round" stroke-width="3.108766698909686"/>
  <path d="M 36.48787193945724, 21.91743050146501 Q 35.804906953007276, 21.76112426550377, 35.1562568263511, 21.49704243632454 " fill="none" id="curve_19" stroke="#000000" stroke-linecap="round" stroke-linejoin="round" stroke-width="5.357462872845607"/>
  <path d="M 44.23837074240753, 10.293284286488316 Q 43.872867940552766, 9.721493806830091, 42.90526579443389, 9.360162174613913 " fill="none" id="curve_20" stroke="#000000" stroke-linecap="round" stroke-linejoin="round" stroke-width="3.7331165483318958"/>
  <path d="M 37.891671840597276, 24.16459732744596 Q 37.33589806635322, 22.520850719940263, 35.19646078871514, 21.471521020089934 " fill="none" id="curve_27" stroke="#000000" stroke-linecap="round" stroke-linejoin="round" stroke-width="4.9278961264723735"/>
  <path d="M 34.547201805782265, 39.818228453710134 Q 32.38538588602022, 40.31039271617397, 29.489868121609362, 41.51262434184844 " fill="none" id="curve_36" stroke="#000000" stroke-linecap="round" stroke-linejoin="round" stroke-width="3.5489383857403576"/>
  <path d="M 45.42253906827748, 17.31340633170291 Q 45.83032073181202, 15.851108799942288, 46.59748751409715, 14.227553289649375 " fill="none" id="curve_52" stroke="#000000" stroke-linecap="round" stroke-linejoin="round" stroke-width="3.295869444005075"/>
  <path d="M 34.0212343796796, 88.29524051033341 Q 34.47036794706215, 88.16147044300367, 34.908841164601895, 87.88078069820949 " fill="none" id="curve_81" stroke="#000000" stroke-linecap="round" stroke-linejoin="round" stroke-width="2.790042061406126"/>
  <path d="M 29.022291894004024, 41.77069593456531 Q 26.584437353348033, 47.35308236077771, 22.37900122021037, 54.674175906855325 " fill="none" id="curve_83" stroke="#000000" stroke-linecap="round" stroke-linejoin="round" stroke-width="2.1387294606704104"/>
  <path d="M 34.77625292859111, 54.2445670097018 Q 34.748850510751794, 57.41086198606094, 34.70325206152414, 61.03758153477552 " fill="none" id="curve_113" stroke="#000000" stroke-linecap="round" stroke-linejoin="round" stroke-width="2.2048680197895054"/>
  <path d="M 33.21427699706827, 21.22159522197882 Q 33.978163667990756, 21.34365148536238, 36.268259301785776, 21.480479697784727 " fill="none" id="curve_115" stroke="#000000" stroke-linecap="round" stroke-linejoin="round" stroke-width="2.613832870704557"/>
  <path d="M 28.811824436032786, 48.85196244603834 Q 30.137500536204083, 48.69998001360802, 30.603441382964327, 47.64188419677931 " fill="none" id="curve_148" stroke="#000000" stroke-linecap="round" stroke-linejoin="round" stroke-width="2.1082476413261295"/>
</svg>
