<?xml version="1.0" ?>
<svg height="140" width="140" xmlns="http://www.w3.org/2000/svg">
  <path d="M 71.26786762475967, 25.927058219909668 Q 66.73613558566468, 28.544555597847264, 57.13360594686401, 43.7016928336252 " fill="none" id="curve_1" stroke="#000000" stroke-linecap="round" stroke-linejoin="round" stroke-width="4.0474645880387845"/>
  <path d="M 57.13360594686401, 43.7016928336252 Q 51.18084961872845, 50.2120814372288, 36.521158356086715, 66.35699498673083 " fill="none" id="curve_1" stroke="#000000" stroke-linecap="round" stroke-linejoin="round" stroke-width="3.833698694714595"/>
  <path d="M 36.521158356086715, 66.35699498673083 Q 33.04623450066884, 71.07618784368881, 25.86067930630327, 74.19241855100277 " fill="none" id="curve_1" stroke="#000000" stroke-linecap="round" stroke-linejoin="round" stroke-width="4.376588413874548"/>
  <path d="M 71.5742107652496, 29.650626493129362 Q 69.71626963062496, 36.98094682533008, 65.14050224551835, 60.588886397313466 " fill="none" id="curve_3" stroke="#000000" stroke-linecap="round" stroke-linejoin="round" stroke-width="4.647227163693696"/>
  <path d="M 65.14050224551835, 60.588886397313466 Q 65.92902514234021, 61.38057921771637, 66.0056102152043, 92.93862775984834 " fill="none" id="curve_3" stroke="#000000" stroke-linecap="round" stroke-linejoin="round" stroke-width="5.65592044992836"/>
  <path d="M 66.0056102152043, 92.93862775984834 Q 65.19051723985034, 95.31777519043231, 65.03167009902252, 113.87601682043527 " fill="none" id="curve_3" stroke="#000000" stroke-linecap="round" stroke-linejoin="round" stroke-width="4.2581853201292095"/>
  <path d="M 65.03167009902252, 113.87601682043527 Q 64.4479123489763, 106.07418274817749, 63.80297899027018, 93.24875639022483 " fill="none" id="curve_3" stroke="#000000" stroke-linecap="round" stroke-linejoin="round" stroke-width="3.098977868785483"/>
  <path d="M 68.3052249603993, 69.59642000331704 Q 67.47330837987154, 62.22814755192252, 63.41827021208533, 58.039414018545315 " fill="none" id="curve_4" stroke="#000000" stroke-linecap="round" stroke-linejoin="round" stroke-width="2.1965084080893686"/>
  <path d="M 72.70912793693822, 26.50537992943661 Q 72.60983954930438, 25.90609330470115, 72.42794978766354, 25.394097865132704 " fill="none" id="curve_5" stroke="#000000" stroke-linecap="round" stroke-linejoin="round" stroke-width="5.756867256135413"/>
  <path d="M 72.42794978766354, 25.394097865132704 Q 67.62062190509162, 29.18793990570543, 63.00136370854946, 37.98787731717846 " fill="none" id="curve_5" stroke="#000000" stroke-linecap="round" stroke-linejoin="round" stroke-width="3.8725686407833826"/>
  <path d="M 52.180147350227, 48.3813702635189 Q 56.324596096301846, 44.285728096242295, 61.243899505951354, 36.136948370845836 " fill="none" id="curve_10" stroke="#000000" stroke-linecap="round" stroke-linejoin="round" stroke-width="2.1232896747544765"/>
  <path d="M 61.243899505951354, 36.136948370845836 Q 65.03158078374052, 30.48829798781368, 71.7929342259423, 24.789866364317763 " fill="none" id="curve_10" stroke="#000000" stroke-linecap="round" stroke-linejoin="round" stroke-width="3.5982176134341928"/>
  <path d="M 66.7712645259617, 57.92240414376704 Q 66.71851055836096, 59.78467851362956, 66.61372575502588, 61.38882721617382 " fill="none" id="curve_11" stroke="#000000" stroke-linecap="round" stroke-linejoin="round" stroke-width="4.955603745844793"/>
  <path d="M 64.20449548273642, 83.60311177519094 Q 64.23788805490146, 83.43742638280624, 64.26191406174442, 83.0376022738771 " fill="none" id="curve_12" stroke="#000000" stroke-linecap="round" stroke-linejoin="round" stroke-width="5.491418566677926"/>
  <path d="M 42.66123065132525, 63.47805016781262 Q 42.202643626451305, 63.208050690311, 41.12668440981155, 62.810787035070376 " fill="none" id="curve_42" stroke="#000000" stroke-linecap="round" stroke-linejoin="round" stroke-width="2.750198975522699"/>
  <path d="M 63.80458930481632, 32.86503281378373 Q 65.70932356797525, 27.35606093691301, 74.23816071860571, 24.663429649947844 " fill="none" id="curve_57" stroke="#000000" stroke-linecap="round" stroke-linejoin="round" stroke-width="2.9513267854714558"/>
  <path d="M 57.59337707767576, 43.463365986407766 Q 56.201797305317754, 43.57917468799876, 53.48698757118189, 43.7521210871332 " fill="none" id="curve_58" stroke="#000000" stroke-linecap="round" stroke-linejoin="round" stroke-width="3.093872312277312"/>
  <path d="M 26.236403727590307, 73.80337141013783 Q 25.799191575506157, 73.73133930560229, 25.38326187811589, 73.58576651231374 " fill="none" id="curve_74" stroke="#000000" stroke-linecap="round" stroke-linejoin="round" stroke-width="3.05480890079902"/>
  <path d="M 34.242672212600155, 67.06710391895223 Q 31.580103700060533, 68.30880821191666, 29.699616366098248, 71.60184233306524 " fill="none" id="curve_102" stroke="#000000" stroke-linecap="round" stroke-linejoin="round" stroke-width="3.0354165197984626"/>
  <path d="M 53.42954096470248, 50.42866816777587 Q 51.477699365945185, 50.66901384260773, 48.64038447728978, 51.103571476625866 " fill="none" id="curve_105" stroke="#000000" stroke-linecap="round" stroke-linejoin="round" stroke-width="3.637645232843249"/>
  <path d="M 66.59107619378018, 54.24722764159743 Q 66.97223923502132, 38.404360607031116, 71.1903361054246, 33.06135715331676 " fill="none" id="curve_121" stroke="#000000" stroke-linecap="round" stroke-linejoin="round" stroke-width="2.2761281243305214"/>
  <path d="M 63.30811647322524, 61.72679989309337 Q 63.618408290613246, 61.78775832624459, 64.02982988132625, 61.89678493585996 " fill="none" id="curve_122" stroke="#000000" stroke-linecap="round" stroke-linejoin="round" stroke-width="2.9687942047473506"/>
  <path d="M 25.465229521383158, 74.12120067366838 Q 24.907560806982016, 73.7639599774206, 24.112322520756706, 73.25683592182179 " fill="none" id="curve_123" stroke="#000000" stroke-linecap="round" stroke-linejoin="round" stroke-width="2.695732486114618"/>
  <path d="M 66.44794168594944, 104.5122648591614 Q 66.22141103381185, 108.18618806179975, 65.57028366579527, 110.65840702425947 " fill="none" id="curve_138" stroke="#000000" stroke-linecap="round" stroke-linejoin="round" stroke-width="2.334620583878906"/>
</svg>
