<?xml version="1.0" ?>
<svg height="140" width="140" xmlns="http://www.w3.org/2000/svg">
  <path d="M 31.701122283935547, 76.92344284057617 Q 31.642071179903486, 78.80866012370866, 30.825880466020134, 79.36379281228662 " fill="none" id="curve_1" stroke="#000000" stroke-linecap="round" stroke-linejoin="round" stroke-width="5.468859554573782"/>
  <path d="M 30.825880466020134, 79.36379281228662 Q 37.619400669023186, 75.5986379815629, 45.2558098720808, 65.43562665973293 " fill="none" id="curve_1" stroke="#000000" stroke-linecap="round" stroke-linejoin="round" stroke-width="6.6814304391736945"/>
  <path d="M 45.2558098720808, 65.43562665973293 Q 53.74081278382942, 59.54513349770539, 66.29780356856637, 42.98973698922477 " fill="none" id="curve_1" stroke="#000000" stroke-linecap="round" stroke-linejoin="round" stroke-width="6.21773396581432"/>
  <path d="M 66.29780356856637, 42.98973698922477 Q 72.58440668169992, 38.142064413170004, 80.2880249413613, 31.813434589844476 " fill="none" id="curve_1" stroke="#000000" stroke-linecap="round" stroke-linejoin="round" stroke-width="5.147265297014382"/>
  <path d="M 80.2880249413613, 31.813434589844476 Q 78.4291529537545, 43.4859579684345, 69.75266475158021, 65.68683565143094 " fill="none" id="curve_1" stroke="#000000" stroke-linecap="round" stroke-linejoin="round" stroke-width="4.6284733050259455"/>
  <path d="M 69.75266475158021, 65.68683565143094 Q 65.5114569957277, 73.3560580913196, 62.75397559861561, 92.81797372781944 " fill="none" id="curve_1" stroke="#000000" stroke-linecap="round" stroke-linejoin="round" stroke-width="4.944285134189062"/>
  <path d="M 62.75397559861561, 92.81797372781944 Q 64.80614537005154, 94.11318961428361, 66.60610397420035, 96.15549314923535 " fill="none" id="curve_1" stroke="#000000" stroke-linecap="round" stroke-linejoin="round" stroke-width="4.474872148969581"/>
  <path d="M 73.31652409209555, 57.6664340570248 Q 69.97957391978399, 73.59600227931304, 61.12678526812991, 85.28265321663837 " fill="none" id="curve_2" stroke="#000000" stroke-linecap="round" stroke-linejoin="round" stroke-width="3.102498206960001"/>
  <path d="M 42.802278424450556, 70.20307499904283 Q 44.554421099505134, 69.67565406802265, 45.83360425609428, 67.87000364679173 " fill="none" id="curve_10" stroke="#000000" stroke-linecap="round" stroke-linejoin="round" stroke-width="4.077026398681489"/>
  <path d="M 60.52757095100021, 47.918134616326455 Q 55.73311857621357, 54.25246932433481, 47.28092152215849, 63.580392773187654 " fill="none" id="curve_13" stroke="#000000" stroke-linecap="round" stroke-linejoin="round" stroke-width="3.547902673683447"/>
  <path d="M 77.9896917993205, 32.47574563905508 Q 72.37300442358175, 35.78325003344831, 65.04228790165774, 42.24276340439314 " fill="none" id="curve_15" stroke="#000000" stroke-linecap="round" stroke-linejoin="round" stroke-width="2.852595900721878"/>
  <path d="M 69.4056415221395, 62.41198346123096 Q 72.36968312093241, 59.24103468738266, 75.01125364634333, 51.33586059638186 " fill="none" id="curve_16" stroke="#000000" stroke-linecap="round" stroke-linejoin="round" stroke-width="2.943377497880495"/>
  <path d="M 79.93699514747641, 30.056912906731462 Q 79.18370744517166, 30.648044889049928, 77.2625324538939, 31.453687834039677 " fill="none" id="curve_17" stroke="#000000" stroke-linecap="round" stroke-linejoin="round" stroke-width="2.7754499550025242"/>
  <path d="M 72.3596638909613, 57.76543788314203 Q 73.29003963556262, 54.65428440516426, 75.51588365524184, 49.7796630167698 " fill="none" id="curve_18" stroke="#000000" stroke-linecap="round" stroke-linejoin="round" stroke-width="2.5319918225199456"/>
  <path d="M 75.52455284643025, 51.63494334359895 Q 71.05074978646648, 56.22179757695964, 67.09069321833546, 68.63174721709177 " fill="none" id="curve_28" stroke="#000000" stroke-linecap="round" stroke-linejoin="round" stroke-width="2.614233538880645"/>
  <path d="M 76.5012133168562, 41.41516061768462 Q 76.3740266034065, 40.28170773280045, 76.14019326792437, 37.93630360297373 " fill="none" id="curve_29" stroke="#000000" stroke-linecap="round" stroke-linejoin="round" stroke-width="3.156348506686035"/>
  <path d="M 56.226542796756924, 53.12971531024478 Q 53.06717879722017, 58.122997920011144, 44.052491532424696, 65.87009815312192 " fill="none" id="curve_30" stroke="#000000" stroke-linecap="round" stroke-linejoin="round" stroke-width="2.9849137902415874"/>
  <path d="M 1.1833500128089858, 64.47890674736362 Q 1.0365313777119636, 70.32989306908956, 0.6534838967475735, 81.84157888501971 " fill="none" id="curve_33" stroke="#000000" stroke-linecap="round" stroke-linejoin="round" stroke-width="1.1063542108466533"/>
  <path d="M 0.6534838967475735, 81.84157888501971 Q 0.8275673178152779, 87.6143806661998, 1.2332703568682457, 111.07920885377521 " fill="none" id="curve_33" stroke="#000000" stroke-linecap="round" stroke-linejoin="round" stroke-width="1.1216024718526432"/>
  <path d="M 1.2332703568682457, 111.07920885377521 Q 1.1094360830433305, 124.73833350812622, 0.5401436231371768, 136.6888899199235 " fill="none" id="curve_33" stroke="#000000" stroke-linecap="round" stroke-linejoin="round" stroke-width="1.0490580954406414"/>
  <path d="M 1.0518756462005203, 137.84788274083652 Q 1.1242303435284084, 137.92311423544677, 1.2728655347452358, 138.01799889708678 " fill="none" id="curve_42" stroke="#000000" stroke-linecap="round" stroke-linejoin="round" stroke-width="2.0183202488592245"/>
  <path d="M 31.118821396559717, 77.9194702996877 Q 34.750067179059045, 75.11001865668064, 40.10320588989382, 69.2852731933647 " fill="none" id="curve_44" stroke="#000000" stroke-linecap="round" stroke-linejoin="round" stroke-width="3.0505177990593317"/>
  <path d="M 61.8443709500488, 89.21999199651525 Q 62.25569913517576, 89.2251881579647, 62.8960816606816, 89.23049990745159 " fill="none" id="curve_45" stroke="#000000" stroke-linecap="round" stroke-linejoin="round" stroke-width="5.81706380727871"/>
  <path d="M 0.5949074601784474, 61.41653987865626 Q 0.7608742105657478, 58.12124971713712, 0.89917291109887, 45.63813844805185 " fill="none" id="curve_51" stroke="#000000" stroke-linecap="round" stroke-linejoin="round" stroke-width="1.577589639095815"/>
  <path d="M 0.89917291109887, 45.63813844805185 Q 0.9991401307496317, 40.699665447815896, 1.1638495619610403, 32.23610312555423 " fill="none" id="curve_51" stroke="#000000" stroke-linecap="round" stroke-linejoin="round" stroke-width="1.546101759619093"/>
  <path d="M 1.4824486476661263, 5.912089248658816 Q 1.5411854295302072, 1.8160453901300597, 2.047458008218889, 0.8357296786344204 " fill="none" id="curve_52" stroke="#000000" stroke-linecap="round" stroke-linejoin="round" stroke-width="2.0820339332884674"/>
  <path d="M 1.0055287549595098, 11.426268481361058 Q 0.9743519808298715, 27.543518639027603, 0.6541325303053653, 31.431234697868923 " fill="none" id="curve_53" stroke="#000000" stroke-linecap="round" stroke-linejoin="round" stroke-width="1.1919742978342347"/>
  <path d="M 0.9410120979004932, 10.380708971714085 Q 1.059484252847025, 6.875759877710706, 1.3007749207363353, 1.6374055856281249 " fill="none" id="curve_54" stroke="#000000" stroke-linecap="round" stroke-linejoin="round" stroke-width="1.0903660379658209"/>
  <path d="M 1.3007749207363353, 1.6374055856281249 Q 2.173843787505578, 1.4681313191687646, 2.929271976429341, 1.0939108692190482 " fill="none" id="curve_54" stroke="#000000" stroke-linecap="round" stroke-linejoin="round" stroke-width="1.914860018476374"/>
  <path d="M 73.90652305369208, 43.044023164163775 Q 75.34548165313367, 43.082216043620406, 75.65610378847592, 43.792797170290605 " fill="none" id="curve_57" stroke="#000000" stroke-linecap="round" stroke-linejoin="round" stroke-width="2.872113660877357"/>
  <path d="M 59.858122891632675, 51.55182890799437 Q 52.96661638611049, 53.17488125209959, 49.03992576005223, 59.93132505020962 " fill="none" id="curve_58" stroke="#000000" stroke-linecap="round" stroke-linejoin="round" stroke-width="3.032994289287196"/>
  <path d="M 65.41906289574331, 90.93812147608989 Q 64.77674419641993, 89.93849670138268, 63.51798422799944, 89.08325388123507 " fill="none" id="curve_73" stroke="#000000" stroke-linecap="round" stroke-linejoin="round" stroke-width="4.552950983250209"/>
  <path d="M 71.45399400985269, 56.43321005304159 Q 72.393289641355, 54.120909458854996, 74.41152685470517, 51.44826467744569 " fill="none" id="curve_89" stroke="#000000" stroke-linecap="round" stroke-linejoin="round" stroke-width="2.210437227898561"/>
  <path d="M 66.8884919601122, 75.71437844084956 Q 66.91739813693046, 77.72460846730738, 66.99029519752264, 79.24440193908188 " fill="none" id="curve_104" stroke="#000000" stroke-linecap="round" stroke-linejoin="round" stroke-width="2.901000782356552"/>
  <path d="M 57.72394456611924, 52.22494584754827 Q 56.658811010373014, 52.401276042408384, 55.4493546361508, 52.788333031840516 " fill="none" id="curve_151" stroke="#000000" stroke-linecap="round" stroke-linejoin="round" stroke-width="3.8449853370078024"/>
  <path d="M 60.817006020551176, 88.39014642569404 Q 61.20605820782961, 87.7581755930024, 61.94657107796904, 87.161003198174 " fill="none" id="curve_166" stroke="#000000" stroke-linecap="round" stroke-linejoin="round" stroke-width="2.8739814088986755"/>
  <path d="M 47.140353391729846, 67.25061272111175 Q 37.394280697979084, 68.62305012940021, 32.42802214513697, 76.3981113792046 " fill="none" id="curve_195" stroke="#000000" stroke-linecap="round" stroke-linejoin="round" stroke-width="2.2300467071780337"/>
</svg>
