<?xml version="1.0" ?>
<svg height="140" width="140" xmlns="http://www.w3.org/2000/svg">
  <path d="M 65.04748408189835, 31.3268720011024 Q 64.37078400495945, 31.54048955322498, 64.2542012532033, 35.90277822753433 " fill="none" id="curve_2" stroke="#000000" stroke-linecap="round" stroke-linejoin="round" stroke-width="6.702946428726604"/>
  <path d="M 64.2542012532033, 35.90277822753433 Q 61.057606771581426, 44.68641400054298, 54.69275669432522, 57.85631751771416 " fill="none" id="curve_2" stroke="#000000" stroke-linecap="round" stroke-linejoin="round" stroke-width="7.583881767133864"/>
  <path d="M 54.69275669432522, 57.85631751771416 Q 50.90466873365605, 67.29787249809817, 30.97179215325442, 86.38664577628379 " fill="none" id="curve_2" stroke="#000000" stroke-linecap="round" stroke-linejoin="round" stroke-width="4.638292156445884"/>
  <path d="M 30.97179215325442, 86.38664577628379 Q 23.6868632351755, 94.51599301577404, 7.965739881331505, 104.67926294277405 " fill="none" id="curve_2" stroke="#000000" stroke-linecap="round" stroke-linejoin="round" stroke-width="5.1896798022918675"/>
  <path d="M 48.361161767598325, 74.72682582037348 Q 54.4757378742626, 79.88812076854451, 57.737850879935586, 93.3016775454597 " fill="none" id="curve_3" stroke="#000000" stroke-linecap="round" stroke-linejoin="round" stroke-width="4.880635426814292"/>
  <path d="M 57.737850879935586, 93.3016775454597 Q 54.85246897340663, 89.49378357757058, 53.56318560063688, 72.67302816316129 " fill="none" id="curve_3" stroke="#000000" stroke-linecap="round" stroke-linejoin="round" stroke-width="5.398563407170185"/>
  <path d="M 53.56318560063688, 72.67302816316129 Q 56.365424083008236, 62.268328159670745, 61.808224535601326, 47.369282605418185 " fill="none" id="curve_3" stroke="#000000" stroke-linecap="round" stroke-linejoin="round" stroke-width="3.405901461820182"/>
  <path d="M 42.046276148878405, 72.77889431071526 Q 34.91450026968621, 80.94979505321888, 21.716997459126496, 93.16485834711239 " fill="none" id="curve_4" stroke="#000000" stroke-linecap="round" stroke-linejoin="round" stroke-width="3.4644439169787606"/>
  <path d="M 6.293575585033041, 104.7439704073254 Q 6.286953298825176, 104.75053780241876, 6.27778767037301, 104.75807633395821 " fill="none" id="curve_5" stroke="#000000" stroke-linecap="round" stroke-linejoin="round" stroke-width="3.3142778281879917"/>
  <path d="M 65.38702281222436, 33.4111290566052 Q 66.41259232118924, 33.03888861327354, 67.59698062943396, 32.238367252533706 " fill="none" id="curve_14" stroke="#000000" stroke-linecap="round" stroke-linejoin="round" stroke-width="3.455416317639884"/>
  <path d="M 45.87067985534668, 66.79809236526489 Q 51.16582408866297, 67.92578931636649, 56.29902247904687, 70.97014112788614 " fill="none" id="curve_28" stroke="#000000" stroke-linecap="round" stroke-linejoin="round" stroke-width="3.3048858482170815"/>
  <path d="M 53.702580073703594, 91.06921104591922 Q 53.36681083745753, 85.40993652259887, 52.41601920930466, 80.69488935103436 " fill="none" id="curve_29" stroke="#000000" stroke-linecap="round" stroke-linejoin="round" stroke-width="2.4933378019663954"/>
  <path d="M 20.642227804197965, 93.70513503870563 Q 16.427520417774645, 95.39731730650094, 13.702883674905372, 100.69072995943496 " fill="none" id="curve_30" stroke="#000000" stroke-linecap="round" stroke-linejoin="round" stroke-width="3.7269498338913905"/>
  <path d="M 59.7836048655593, 94.04834672997309 Q 59.642253367249104, 94.86223505130283, 59.21928511582864, 95.4408995949891 " fill="none" id="curve_37" stroke="#000000" stroke-linecap="round" stroke-linejoin="round" stroke-width="3.0017769148709155"/>
  <path d="M 43.64142367376304, 69.58179442325851 Q 48.36919976255962, 65.58634324124637, 54.30852687117059, 57.834743779837424 " fill="none" id="curve_38" stroke="#000000" stroke-linecap="round" stroke-linejoin="round" stroke-width="3.0373344886938507"/>
  <path d="M 53.19950109694372, 72.29619660634602 Q 52.54297423594974, 70.9065672488356, 50.734797419152486, 69.71119781092557 " fill="none" id="curve_53" stroke="#000000" stroke-linecap="round" stroke-linejoin="round" stroke-width="3.427071183762275"/>
  <path d="M 64.31885996452833, 32.931800398636845 Q 65.55102656968964, 31.941015036941625, 67.1530825933502, 30.72757065215308 " fill="none" id="curve_69" stroke="#000000" stroke-linecap="round" stroke-linejoin="round" stroke-width="3.1503197628295587"/>
  <path d="M 61.272245295850205, 42.933207881613804 Q 61.68178395843141, 43.658205603736874, 62.48604847411886, 44.697231818786314 " fill="none" id="curve_85" stroke="#000000" stroke-linecap="round" stroke-linejoin="round" stroke-width="4.13073679488825"/>
  <path d="M 34.51096258822817, 85.70348031318349 Q 35.59828592112085, 81.20112335558632, 38.3379320650609, 76.65531776387368 " fill="none" id="curve_95" stroke="#000000" stroke-linecap="round" stroke-linejoin="round" stroke-width="2.764774287408164"/>
  <path d="M 63.19952165797167, 45.83976754388647 Q 62.77559040952376, 41.715019133384914, 60.80326182904789, 38.766802084957845 " fill="none" id="curve_123" stroke="#000000" stroke-linecap="round" stroke-linejoin="round" stroke-width="2.4629485802753854"/>
  <path d="M 66.5389396944438, 33.11981584301736 Q 66.04197724137761, 33.00955319177443, 65.13818957438777, 32.876461956796916 " fill="none" id="curve_138" stroke="#000000" stroke-linecap="round" stroke-linejoin="round" stroke-width="3.0672044499375337"/>
</svg>
