<?xml version="1.0" ?>
<svg height="140" width="140" xmlns="http://www.w3.org/2000/svg">
  <path d="M 51.806633949279785, 96.46976089477539 Q 50.996179519199835, 98.44134206016463, 49.657833963122165, 100.54026952411999 " fill="none" id="curve_1" stroke="#000000" stroke-linecap="round" stroke-linejoin="round" stroke-width="2.891461790404644"/>
  <path d="M 49.657833963122165, 100.54026952411999 Q 49.451476480165944, 92.51900537607669, 48.63829648858287, 88.66216086305624 " fill="none" id="curve_1" stroke="#000000" stroke-linecap="round" stroke-linejoin="round" stroke-width="6.387066712933707"/>
  <path d="M 48.63829648858287, 88.66216086305624 Q 48.54349425174605, 81.6181242853422, 48.37270260482345, 67.7229577787834 " fill="none" id="curve_1" stroke="#000000" stroke-linecap="round" stroke-linejoin="round" stroke-width="5.483554652499106"/>
  <path d="M 48.37270260482345, 67.7229577787834 Q 47.83983176918334, 63.571039501408215, 47.40268211202815, 43.14163749928176 " fill="none" id="curve_1" stroke="#000000" stroke-linecap="round" stroke-linejoin="round" stroke-width="10.363806425911129"/>
  <path d="M 47.40268211202815, 43.14163749928176 Q 40.22337834124746, 50.386584038038556, 27.655009031029596, 73.34288146201317 " fill="none" id="curve_1" stroke="#000000" stroke-linecap="round" stroke-linejoin="round" stroke-width="4.481680049910517"/>
  <path d="M 27.655009031029596, 73.34288146201317 Q 22.9211780638536, 78.4624296833047, 17.343939912407407, 83.48544314373598 " fill="none" id="curve_1" stroke="#000000" stroke-linecap="round" stroke-linejoin="round" stroke-width="5.020414763507031"/>
  <path d="M 17.343939912407407, 83.48544314373598 Q 24.50770756653212, 76.99069513252857, 31.800868103070094, 64.87717560359094 " fill="none" id="curve_1" stroke="#000000" stroke-linecap="round" stroke-linejoin="round" stroke-width="3.2555906428534076"/>
  <path d="M 49.448332431973675, 75.35193374364616 Q 49.53745554826546, 66.39121292587629, 50.06577243011562, 62.93488845932485 " fill="none" id="curve_7" stroke="#000000" stroke-linecap="round" stroke-linejoin="round" stroke-width="3.9781592551511005"/>
  <path d="M 33.2398099993563, 62.30977299631239 Q 27.609394356104627, 71.10508564971518, 17.14512233546221, 83.97602844412619 " fill="none" id="curve_10" stroke="#000000" stroke-linecap="round" stroke-linejoin="round" stroke-width="2.4380877753269945"/>
  <path d="M 17.14512233546221, 83.97602844412619 Q 15.930436804695601, 83.8485712149022, 14.621192451037, 83.55936681780132 " fill="none" id="curve_10" stroke="#000000" stroke-linecap="round" stroke-linejoin="round" stroke-width="3.3284426296455014"/>
  <path d="M 52.83403193759344, 94.93320690094212 Q 51.98810645130875, 93.69262540317897, 50.69966610120792, 91.05474685184511 " fill="none" id="curve_11" stroke="#000000" stroke-linecap="round" stroke-linejoin="round" stroke-width="3.2154789096664587"/>
  <path d="M 48.13334084861036, 72.25792791393974 Q 47.85267100376494, 70.04946864640151, 47.31995177368155, 67.08324248132134 " fill="none" id="curve_28" stroke="#000000" stroke-linecap="round" stroke-linejoin="round" stroke-width="4.804405470392132"/>
  <path d="M 23.621286314961466, 76.06188332480147 Q 28.562926588745015, 72.15241066528485, 32.77350205988379, 61.555469732798 " fill="none" id="curve_36" stroke="#000000" stroke-linecap="round" stroke-linejoin="round" stroke-width="2.7468781948160883"/>
  <path d="M 49.16408120855584, 103.54483534407098 Q 49.00370566237097, 103.3420138947958, 48.74077116060577, 103.09902288739357 " fill="none" id="curve_51" stroke="#000000" stroke-linecap="round" stroke-linejoin="round" stroke-width="2.0355531238985054"/>
  <path d="M 31.823048230002023, 70.23271225263761 Q 32.46479464691594, 69.4658302529285, 32.99519568535004, 65.42746255758163 " fill="none" id="curve_52" stroke="#000000" stroke-linecap="round" stroke-linejoin="round" stroke-width="2.4810292728203667"/>
  <path d="M 44.7445280671939, 45.46557732684851 Q 49.07996816143769, 46.44703379471421, 51.144944291023236, 49.74146345205834 " fill="none" id="curve_53" stroke="#000000" stroke-linecap="round" stroke-linejoin="round" stroke-width="3.4135676660877"/>
  <path d="M 26.813659469476374, 72.08996111677183 Q 26.757326837269105, 71.58452242898144, 26.652940504692815, 70.61210193027833 " fill="none" id="curve_54" stroke="#000000" stroke-linecap="round" stroke-linejoin="round" stroke-width="2.9714987406850484"/>
  <path d="M 52.602227587194534, 72.2080129357164 Q 49.392474490804005, 72.11452433738413, 48.02799300058193, 71.30821395463283 " fill="none" id="curve_121" stroke="#000000" stroke-linecap="round" stroke-linejoin="round" stroke-width="2.335793151508233"/>
</svg>
