<?xml version="1.0" ?>
<svg height="140" width="140" xmlns="http://www.w3.org/2000/svg">
  <path d="M 65.83884048461914, 50.03870391845703 Q 53.26240840088086, 51.010282317961845, 42.29863567593384, 65.60126641777151 " fill="none" id="curve_1" stroke="#000000" stroke-linecap="round" stroke-linejoin="round" stroke-width="4.867154146395807"/>
  <path d="M 42.29863567593384, 65.60126641777151 Q 35.38700203960347, 71.20173068495838, 26.87937149333603, 80.40149388822972 " fill="none" id="curve_1" stroke="#000000" stroke-linecap="round" stroke-linejoin="round" stroke-width="4.9259073003600715"/>
  <path d="M 54.42734152555989, 53.95355799284532 Q 62.21881947365354, 47.734448182576294, 80.43294443656431, 36.577888542523326 " fill="none" id="curve_2" stroke="#000000" stroke-linecap="round" stroke-linejoin="round" stroke-width="4.843085350548351"/>
  <path d="M 80.43294443656431, 36.577888542523326 Q 78.45928191239359, 49.19782632661819, 66.92924115447529, 70.4444629015884 " fill="none" id="curve_2" stroke="#000000" stroke-linecap="round" stroke-linejoin="round" stroke-width="4.711882895027565"/>
  <path d="M 66.92924115447529, 70.4444629015884 Q 65.20338442897548, 72.48097641562222, 64.92819007352936, 90.94285634906988 " fill="none" id="curve_2" stroke="#000000" stroke-linecap="round" stroke-linejoin="round" stroke-width="5.278887986376828"/>
  <path d="M 64.92819007352936, 90.94285634906988 Q 66.2413623785223, 91.99087272768845, 68.27520338578694, 92.94312018212624 " fill="none" id="curve_2" stroke="#000000" stroke-linecap="round" stroke-linejoin="round" stroke-width="3.5336010100610795"/>
  <path d="M 68.76489310973032, 71.38587674640156 Q 69.66011545083416, 69.99477361052769, 69.98230245593282, 61.82657070350176 " fill="none" id="curve_3" stroke="#000000" stroke-linecap="round" stroke-linejoin="round" stroke-width="3.374652137818357"/>
  <path d="M 74.78757186317138, 40.392515048712134 Q 62.474533238581536, 43.679636477322624, 51.25820400666503, 58.33054197735264 " fill="none" id="curve_4" stroke="#000000" stroke-linecap="round" stroke-linejoin="round" stroke-width="3.328164147016402"/>
  <path d="M 29.367042160060027, 75.15933808556782 Q 28.971405601896535, 75.45453399744592, 28.70181638491583, 76.60317897973033 " fill="none" id="curve_5" stroke="#000000" stroke-linecap="round" stroke-linejoin="round" stroke-width="3.758232287106796"/>
  <path d="M 47.88485898639733, 61.12391865475274 Q 49.83401820207246, 58.341206709171445, 52.39641587420438, 53.658068553370555 " fill="none" id="curve_6" stroke="#000000" stroke-linecap="round" stroke-linejoin="round" stroke-width="3.0386387600489013"/>
  <path d="M 76.41603332787022, 43.295141322274176 Q 76.4133033323217, 48.73596881435081, 76.40472814211482, 51.620619192852956 " fill="none" id="curve_7" stroke="#000000" stroke-linecap="round" stroke-linejoin="round" stroke-width="4.766545765432483"/>
  <path d="M 76.40472814211482, 51.620619192852956 Q 79.50603480364309, 50.202859554432095, 80.17821132675829, 39.20662684870207 " fill="none" id="curve_7" stroke="#000000" stroke-linecap="round" stroke-linejoin="round" stroke-width="3.1442291518425667"/>
  <path d="M 62.300180661532295, 85.56053717725604 Q 63.41901295438242, 78.14667206568656, 68.55629820327538, 73.96368652103 " fill="none" id="curve_22" stroke="#000000" stroke-linecap="round" stroke-linejoin="round" stroke-width="2.63923181492659"/>
  <path d="M 74.06437501139933, 41.922188256678226 Q 69.61652465689195, 44.17831223941175, 65.34581719377702, 47.75174295634016 " fill="none" id="curve_24" stroke="#000000" stroke-linecap="round" stroke-linejoin="round" stroke-width="2.812911299721912"/>
  <path d="M 76.92409958195171, 37.93765228379304 Q 73.9662128860232, 38.73778831624407, 71.24224282018777, 40.238255829133664 " fill="none" id="curve_25" stroke="#000000" stroke-linecap="round" stroke-linejoin="round" stroke-width="2.918009486650437"/>
  <path d="M 43.82409386540243, 61.374711068851525 Q 38.637147700375955, 68.63925612944503, 26.85726689570848, 77.33755161486633 " fill="none" id="curve_26" stroke="#000000" stroke-linecap="round" stroke-linejoin="round" stroke-width="2.7151267521841"/>
  <path d="M 70.02324160040548, 66.31207850860947 Q 70.83370842944315, 66.30562245986303, 71.21850391937512, 66.27449688473004 " fill="none" id="curve_28" stroke="#000000" stroke-linecap="round" stroke-linejoin="round" stroke-width="3.1020935514005563"/>
  <path d="M 76.91643068738148, 48.37133495334673 Q 73.51155418625171, 53.99447039767342, 69.53676520639092, 62.19613774653311 " fill="none" id="curve_31" stroke="#000000" stroke-linecap="round" stroke-linejoin="round" stroke-width="2.376429597682051"/>
  <path d="M 73.91919470573585, 48.91202469219173 Q 74.34917390858794, 49.865939728846136, 75.2216663757278, 51.004298341366756 " fill="none" id="curve_47" stroke="#000000" stroke-linecap="round" stroke-linejoin="round" stroke-width="2.7971171593148583"/>
  <path d="M 67.87718066239974, 65.6365640747698 Q 67.9699211119827, 65.25830119124016, 68.12745299190983, 64.51130386172363 " fill="none" id="curve_127" stroke="#000000" stroke-linecap="round" stroke-linejoin="round" stroke-width="2.23926234950524"/>
</svg>
