<?xml version="1.0" ?>
<svg height="140" width="140" xmlns="http://www.w3.org/2000/svg">
  <path d="M 60.1575384679827, 32.097077696875715 Q 53.917034965687755, 35.22698945907921, 47.948385206329036, 46.75415454816597 " fill="none" id="curve_2" stroke="#000000" stroke-linecap="round" stroke-linejoin="round" stroke-width="8.74507196062988"/>
  <path d="M 47.948385206329036, 46.75415454816597 Q 41.18400783410843, 53.243896461926454, 31.296636548941454, 62.69844693307767 " fill="none" id="curve_2" stroke="#000000" stroke-linecap="round" stroke-linejoin="round" stroke-width="5.369477732676881"/>
  <path d="M 53.26001455708151, 45.184543000778945 Q 50.70372817180565, 54.25198395676941, 44.29944320911551, 81.21989639999708 " fill="none" id="curve_3" stroke="#000000" stroke-linecap="round" stroke-linejoin="round" stroke-width="6.125862009411576"/>
  <path d="M 44.29944320911551, 81.21989639999708 Q 44.329482609978164, 89.12235852977157, 44.42010323857399, 93.36062768115815 " fill="none" id="curve_3" stroke="#000000" stroke-linecap="round" stroke-linejoin="round" stroke-width="7.455486181041349"/>
  <path d="M 56.54827138129852, 41.30203046566697 Q 58.151608286633405, 39.30043035972619, 59.713953560264486, 36.0965170285759 " fill="none" id="curve_5" stroke="#000000" stroke-linecap="round" stroke-linejoin="round" stroke-width="3.6814221359614914"/>
  <path d="M 31.415766584050406, 61.495044765633196 Q 36.95715304302394, 57.23221046290419, 46.039822841188276, 51.16226475011725 " fill="none" id="curve_13" stroke="#000000" stroke-linecap="round" stroke-linejoin="round" stroke-width="3.218473844969773"/>
  <path d="M 33.45044819538537, 60.62289558944401 Q 38.36372877346908, 55.912399788796364, 47.84652694413976, 50.31632431252834 " fill="none" id="curve_14" stroke="#000000" stroke-linecap="round" stroke-linejoin="round" stroke-width="3.4999943455909652"/>
  <path d="M 45.8299689798267, 95.38920447069685 Q 44.68730679642438, 94.29592239851084, 42.997778180957916, 92.66716753726529 " fill="none" id="curve_18" stroke="#000000" stroke-linecap="round" stroke-linejoin="round" stroke-width="6.190739393323492"/>
  <path d="M 39.95324573140747, 56.820412045085284 Q 35.85357982301376, 58.38164577076842, 31.573466531060983, 61.18871109397662 " fill="none" id="curve_19" stroke="#000000" stroke-linecap="round" stroke-linejoin="round" stroke-width="3.8101272368239227"/>
  <path d="M 47.94116995621569, 64.70479130161532 Q 48.177608542744714, 55.38220074661977, 49.61961057347422, 51.482846761537985 " fill="none" id="curve_25" stroke="#000000" stroke-linecap="round" stroke-linejoin="round" stroke-width="3.6647700744632687"/>
  <path d="M 32.41207520232989, 61.38691062362531 Q 37.739977125761854, 54.55169655034541, 49.24265828490735, 45.7045654795626 " fill="none" id="curve_26" stroke="#000000" stroke-linecap="round" stroke-linejoin="round" stroke-width="2.69564973110659"/>
  <path d="M 33.2414802484431, 61.90731766463909 Q 36.608873639148825, 56.22821134172216, 44.53732542918404, 49.97205303909639 " fill="none" id="curve_27" stroke="#000000" stroke-linecap="round" stroke-linejoin="round" stroke-width="2.9484971728262965"/>
  <path d="M 44.53732542918404, 49.97205303909639 Q 38.95277576021437, 53.59159906559347, 34.04419936723419, 60.761375581636436 " fill="none" id="curve_27" stroke="#000000" stroke-linecap="round" stroke-linejoin="round" stroke-width="3.8887258983420154"/>
  <path d="M 34.04419936723419, 60.761375581636436 Q 37.57086839042181, 56.265952914354, 42.79916915164632, 49.54569954724892 " fill="none" id="curve_27" stroke="#000000" stroke-linecap="round" stroke-linejoin="round" stroke-width="2.9950879511688187"/>
  <path d="M 35.13602972073729, 59.551409582592015 Q 38.14043821268769, 52.802338564165446, 47.47493290740279, 47.49635221673134 " fill="none" id="curve_28" stroke="#000000" stroke-linecap="round" stroke-linejoin="round" stroke-width="3.0380941003562505"/>
  <path d="M 35.30138709314238, 60.877423615081725 Q 37.51468330785997, 56.351013245135746, 41.63001279476419, 50.183301609318775 " fill="none" id="curve_36" stroke="#000000" stroke-linecap="round" stroke-linejoin="round" stroke-width="2.8708815317562957"/>
  <path d="M 1.5312821467784588, 1.5177413569488314 Q 1.8581954349803373, 1.59638774559415, 2.263090816055878, 1.7938872467622202 " fill="none" id="curve_44" stroke="#000000" stroke-linecap="round" stroke-linejoin="round" stroke-width="2.186521673157102"/>
  <path d="M 45.27867763172594, 70.79516248660832 Q 45.39170972484834, 63.530486182530865, 46.22489001128122, 59.938920372428576 " fill="none" id="curve_59" stroke="#000000" stroke-linecap="round" stroke-linejoin="round" stroke-width="2.231001590290763"/>
  <path d="M 42.2971052595934, 89.2074263310412 Q 42.332998217201755, 87.36481399518789, 42.379172776127334, 83.88410096913813 " fill="none" id="curve_62" stroke="#000000" stroke-linecap="round" stroke-linejoin="round" stroke-width="3.0531525530974153"/>
  <path d="M 31.85178121294474, 59.81462501340104 Q 36.41482511667954, 58.64609203085919, 39.88442556129284, 55.983403115037405 " fill="none" id="curve_63" stroke="#000000" stroke-linecap="round" stroke-linejoin="round" stroke-width="5.13351878813371"/>
  <path d="M 34.35169982910156, 61.04170799255371 Q 36.11930399092408, 58.49632016805237, 41.11323936629077, 56.81654495905062 " fill="none" id="curve_77" stroke="#000000" stroke-linecap="round" stroke-linejoin="round" stroke-width="3.827858091736437"/>
  <path d="M 44.94630782037109, 90.44735227050728 Q 44.84713989334496, 91.38649101180833, 44.20809458685148, 91.68114602390973 " fill="none" id="curve_144" stroke="#000000" stroke-linecap="round" stroke-linejoin="round" stroke-width="6.741248423339979"/>
</svg>
