<?xml version="1.0" ?>
<svg height="140" width="140" xmlns="http://www.w3.org/2000/svg">
  <path d="M 59.218902587890625, 57.82808303833008 Q 58.18856478510108, 58.04425482726791, 57.974093472591015, 62.15899197180434 " fill="none" id="curve_1" stroke="#000000" stroke-linecap="round" stroke-linejoin="round" stroke-width="7.378634338246262"/>
  <path d="M 57.974093472591015, 62.15899197180434 Q 54.53584441415722, 69.72586715515067, 42.405191006110975, 85.87114100347935 " fill="none" id="curve_1" stroke="#000000" stroke-linecap="round" stroke-linejoin="round" stroke-width="3.950786633975872"/>
  <path d="M 42.405191006110975, 85.87114100347935 Q 37.659045807624295, 90.94986279394422, 30.88483111995388, 95.83940450615422 " fill="none" id="curve_1" stroke="#000000" stroke-linecap="round" stroke-linejoin="round" stroke-width="5.535822895547464"/>
  <path d="M 62.11932608880992, 96.87083791483855 Q 59.71786892849404, 96.13793960951952, 59.45693494543439, 71.60697491965337 " fill="none" id="curve_2" stroke="#000000" stroke-linecap="round" stroke-linejoin="round" stroke-width="5.945509068817974"/>
  <path d="M 59.45693494543439, 71.60697491965337 Q 60.630307486973905, 71.28341679783946, 60.69432704503191, 56.075241256730564 " fill="none" id="curve_2" stroke="#000000" stroke-linecap="round" stroke-linejoin="round" stroke-width="3.4919200949055034"/>
  <path d="M 41.85532088178803, 85.6900307947838 Q 35.8097832547627, 86.46071213447242, 34.48186176874141, 93.15034548555838 " fill="none" id="curve_3" stroke="#000000" stroke-linecap="round" stroke-linejoin="round" stroke-width="2.748790014597462"/>
  <path d="M 34.48186176874141, 93.15034548555838 Q 32.72710381341491, 94.89723151497027, 27.8199313459195, 95.70822388712992 " fill="none" id="curve_3" stroke="#000000" stroke-linecap="round" stroke-linejoin="round" stroke-width="3.021728116220261"/>
  <path d="M 60.812544038793604, 55.2172518597998 Q 57.49029635525913, 58.43899259551672, 53.926972641051044, 66.41006257585681 " fill="none" id="curve_5" stroke="#000000" stroke-linecap="round" stroke-linejoin="round" stroke-width="2.84229210872509"/>
  <path d="M 59.39852295145812, 77.54159557171698 Q 59.60805202723459, 85.62210575981035, 59.957741579389214, 96.1482154167305 " fill="none" id="curve_12" stroke="#000000" stroke-linecap="round" stroke-linejoin="round" stroke-width="2.2914835860439897"/>
  <path d="M 60.54960145074638, 76.20597073390893 Q 59.675340829294555, 79.28179383125932, 58.54298947974586, 84.96847173376105 " fill="none" id="curve_13" stroke="#000000" stroke-linecap="round" stroke-linejoin="round" stroke-width="3.271515929342344"/>
  <path d="M 35.327377576458304, 94.21622530439856 Q 40.23959243274114, 90.98563140442324, 44.46250170568729, 80.70609030039768 " fill="none" id="curve_19" stroke="#000000" stroke-linecap="round" stroke-linejoin="round" stroke-width="2.3440027656849978"/>
  <path d="M 57.1179321797529, 76.53540560478599 Q 59.819209504995065, 86.5350264999203, 63.383516334470826, 99.05003919813697 " fill="none" id="curve_25" stroke="#000000" stroke-linecap="round" stroke-linejoin="round" stroke-width="2.10685947540253"/>
</svg>
