<?xml version="1.0" ?>
<svg height="140" width="140" xmlns="http://www.w3.org/2000/svg">
  <path d="M 20.64763069152832, 91.11784648895264 Q 16.913751307462498, 94.32589084161943, 11.474269924200087, 100.54205377337877 " fill="none" id="curve_1" stroke="#000000" stroke-linecap="round" stroke-linejoin="round" stroke-width="5.05601789870312"/>
  <path d="M 20.916804167126095, 89.9875878057911 Q 27.619308777975853, 84.58710353750692, 39.35642433623572, 72.37709085351761 " fill="none" id="curve_2" stroke="#000000" stroke-linecap="round" stroke-linejoin="round" stroke-width="4.87383191819149"/>
  <path d="M 39.35642433623572, 72.37709085351761 Q 46.37452708217114, 66.48558064572639, 61.0631719222674, 51.20067838200126 " fill="none" id="curve_2" stroke="#000000" stroke-linecap="round" stroke-linejoin="round" stroke-width="4.250184402971398"/>
  <path d="M 61.0631719222674, 51.20067838200126 Q 67.77035622200489, 44.12157573581949, 79.26522691015467, 28.645207915089145 " fill="none" id="curve_2" stroke="#000000" stroke-linecap="round" stroke-linejoin="round" stroke-width="4.636327753114268"/>
  <path d="M 79.26522691015467, 28.645207915089145 Q 82.69436148440087, 23.365410192033647, 86.29915414953498, 15.002439318081581 " fill="none" id="curve_2" stroke="#000000" stroke-linecap="round" stroke-linejoin="round" stroke-width="5.181273521376114"/>
  <path d="M 86.29915414953498, 15.002439318081581 Q 82.71013310393435, 23.188179531074354, 78.88844840006502, 36.848851597100904 " fill="none" id="curve_2" stroke="#000000" stroke-linecap="round" stroke-linejoin="round" stroke-width="4.658587890641184"/>
  <path d="M 78.88844840006502, 36.848851597100904 Q 76.37946460070654, 46.763636111627186, 70.63416080114834, 73.39497608686013 " fill="none" id="curve_2" stroke="#000000" stroke-linecap="round" stroke-linejoin="round" stroke-width="5.363017961027224"/>
  <path d="M 70.63416080114834, 73.39497608686013 Q 69.14436985424993, 87.71566022033896, 66.95440525635586, 104.40802154329918 " fill="none" id="curve_2" stroke="#000000" stroke-linecap="round" stroke-linejoin="round" stroke-width="4.275794672078101"/>
  <path d="M 66.95440525635586, 104.40802154329918 Q 67.56891339205835, 105.11996194420993, 68.44661117192987, 105.9660670283623 " fill="none" id="curve_2" stroke="#000000" stroke-linecap="round" stroke-linejoin="round" stroke-width="3.105497314420695"/>
  <path d="M 82.6675664928598, 21.63398640748241 Q 79.34602800219466, 25.685996039830556, 75.44592310027828, 34.311777485528786 " fill="none" id="curve_10" stroke="#000000" stroke-linecap="round" stroke-linejoin="round" stroke-width="2.9570025115281986"/>
  <path d="M 73.56190573063952, 67.59848364712734 Q 73.95384277410669, 47.2487349519635, 77.19993955326366, 39.85601324560291 " fill="none" id="curve_11" stroke="#000000" stroke-linecap="round" stroke-linejoin="round" stroke-width="2.795360293972326"/>
  <path d="M 70.85513281169874, 70.19772132721214 Q 70.72844640678575, 77.44113616305556, 69.90216228853056, 79.52756755365733 " fill="none" id="curve_12" stroke="#000000" stroke-linecap="round" stroke-linejoin="round" stroke-width="3.864820076484415"/>
  <path d="M 69.90216228853056, 79.52756755365733 Q 70.63024081374398, 77.12922022780472, 71.39094288757667, 72.95780881263633 " fill="none" id="curve_12" stroke="#000000" stroke-linecap="round" stroke-linejoin="round" stroke-width="3.757589664273657"/>
  <path d="M 51.236683702855544, 60.04298046800238 Q 53.94590620346029, 57.27518244530112, 57.70335503857571, 53.66977775127233 " fill="none" id="curve_40" stroke="#000000" stroke-linecap="round" stroke-linejoin="round" stroke-width="2.3881626027125264"/>
  <path d="M 75.07718918404771, 61.79872429766221 Q 74.48824532013124, 55.48746403021068, 73.51662378661726, 47.44162355265735 " fill="none" id="curve_41" stroke="#000000" stroke-linecap="round" stroke-linejoin="round" stroke-width="2.5771942158472716"/>
  <path d="M 22.36571156755322, 90.76945004373701 Q 18.936837590640792, 91.86768571336495, 15.616042222921877, 94.30484407240792 " fill="none" id="curve_43" stroke="#000000" stroke-linecap="round" stroke-linejoin="round" stroke-width="2.967356775226937"/>
  <path d="M 31.47934146516058, 79.16982354526567 Q 30.56827345157845, 80.60773532260585, 28.59968689621416, 82.41609912654324 " fill="none" id="curve_44" stroke="#000000" stroke-linecap="round" stroke-linejoin="round" stroke-width="2.777910795639751"/>
  <path d="M 65.55943436298367, 95.54656581168365 Q 67.35951237549189, 91.76574229403836, 70.48167555673294, 87.12776524394874 " fill="none" id="curve_59" stroke="#000000" stroke-linecap="round" stroke-linejoin="round" stroke-width="2.745440977996942"/>
  <path d="M 81.36378524878266, 22.35993879136277 Q 82.01913025521546, 21.761775266375007, 82.97049448255623, 20.37213917734615 " fill="none" id="curve_70" stroke="#000000" stroke-linecap="round" stroke-linejoin="round" stroke-width="3.1385791235647416"/>
  <path d="M 72.69593827113272, 56.488174723233904 Q 72.85300152353493, 55.48671745929859, 73.35593371423239, 54.97195331838354 " fill="none" id="curve_85" stroke="#000000" stroke-linecap="round" stroke-linejoin="round" stroke-width="4.330130826120911"/>
  <path d="M 69.06189009528839, 39.23771201977297 Q 67.95372617102127, 41.10806694846234, 66.3068676186189, 44.2966656322175 " fill="none" id="curve_100" stroke="#000000" stroke-linecap="round" stroke-linejoin="round" stroke-width="2.5446837762236107"/>
  <path d="M 70.20513994921218, 76.61735271829411 Q 69.72405399189714, 76.51443985599339, 69.22550682595173, 76.33912800905739 " fill="none" id="curve_115" stroke="#000000" stroke-linecap="round" stroke-linejoin="round" stroke-width="4.957997590601059"/>
</svg>
