<?xml version="1.0" ?>
<svg height="140" width="140" xmlns="http://www.w3.org/2000/svg">
  <path d="M 76.44604110717773, 47.60120964050293 Q 76.87870803990302, 47.377473401466425, 77.16874941714885, 46.020563426619844 " fill="none" id="curve_1" stroke="#000000" stroke-linecap="round" stroke-linejoin="round" stroke-width="7.670683606878528"/>
  <path d="M 77.16874941714885, 46.020563426619844 Q 74.29920465202909, 51.31260677982158, 66.73684624409081, 55.034569807289195 " fill="none" id="curve_1" stroke="#000000" stroke-linecap="round" stroke-linejoin="round" stroke-width="8.14361413899499"/>
  <path d="M 66.73684624409081, 55.034569807289195 Q 63.00695942789585, 60.37519821632531, 53.26202795507856, 65.78002182051691 " fill="none" id="curve_1" stroke="#000000" stroke-linecap="round" stroke-linejoin="round" stroke-width="8.464829739663283"/>
  <path d="M 53.26202795507856, 65.78002182051691 Q 46.86753326516782, 70.6067861229644, 37.75133704799676, 75.73592543045666 " fill="none" id="curve_1" stroke="#000000" stroke-linecap="round" stroke-linejoin="round" stroke-width="4.289204660371647"/>
  <path d="M 64.20623097823432, 62.95172270067102 Q 58.43216520455957, 72.34460435395837, 41.06043898205041, 97.54824260952222 " fill="none" id="curve_2" stroke="#000000" stroke-linecap="round" stroke-linejoin="round" stroke-width="5.735976852598249"/>
  <path d="M 41.06043898205041, 97.54824260952222 Q 39.23111410332724, 105.66296032548836, 34.010026319896404, 109.0093792155553 " fill="none" id="curve_2" stroke="#000000" stroke-linecap="round" stroke-linejoin="round" stroke-width="5.191733609699392"/>
  <path d="M 34.010026319896404, 109.0093792155553 Q 41.18259728415882, 100.85388892621745, 48.81796213910265, 81.4011534379782 " fill="none" id="curve_2" stroke="#000000" stroke-linecap="round" stroke-linejoin="round" stroke-width="3.9114557192931563"/>
  <path d="M 48.81796213910265, 81.4011534379782 Q 56.606826532278255, 76.95342951704006, 62.0744152795462, 66.02278372137572 " fill="none" id="curve_2" stroke="#000000" stroke-linecap="round" stroke-linejoin="round" stroke-width="3.4047428514352807"/>
  <path d="M 62.0744152795462, 66.02278372137572 Q 65.5254046706942, 61.96086594615933, 69.45982183940461, 56.359161321844695 " fill="none" id="curve_2" stroke="#000000" stroke-linecap="round" stroke-linejoin="round" stroke-width="3.3216091704469255"/>
  <path d="M 44.67347603324818, 92.79713994984213 Q 42.9821614499644, 94.07845825034757, 41.87246359297627, 97.7311613344725 " fill="none" id="curve_3" stroke="#000000" stroke-linecap="round" stroke-linejoin="round" stroke-width="4.931846027552229"/>
  <path d="M 43.60956159684369, 95.73977772603814 Q 43.71437002910793, 90.62331868537852, 44.79053631531671, 89.29740410290141 " fill="none" id="curve_18" stroke="#000000" stroke-linecap="round" stroke-linejoin="round" stroke-width="4.497556327874189"/>
  <path d="M 50.86356735229492, 75.35668754577637 Q 56.746892583732325, 74.37319829846457, 58.76662902017142, 67.41380311545231 " fill="none" id="curve_32" stroke="#000000" stroke-linecap="round" stroke-linejoin="round" stroke-width="2.7263666775969186"/>
  <path d="M 42.66610929005877, 75.86588460839401 Q 40.372648549535754, 75.83596002525204, 39.122853248279704, 75.73416511290357 " fill="none" id="curve_33" stroke="#000000" stroke-linecap="round" stroke-linejoin="round" stroke-width="2.99198207219487"/>
  <path d="M 42.83620053425392, 93.27857902413652 Q 42.64793524577733, 94.99482981966645, 42.283417068563004, 96.41998018973128 " fill="none" id="curve_34" stroke="#000000" stroke-linecap="round" stroke-linejoin="round" stroke-width="5.0805318894530185"/>
  <path d="M 43.48144837272508, 93.9898548410151 Q 43.43682466955602, 93.02952132106354, 43.28351086576677, 92.39900863428709 " fill="none" id="curve_49" stroke="#000000" stroke-linecap="round" stroke-linejoin="round" stroke-width="4.730019565004057"/>
</svg>
