<?xml version="1.0" ?>
<svg height="140" width="140" xmlns="http://www.w3.org/2000/svg">
  <path d="M 62.72632312774658, 76.39920997619629 Q 63.952336111815335, 79.90450287687534, 65.05554803121602, 88.91184299962208 " fill="none" id="curve_1" stroke="#000000" stroke-linecap="round" stroke-linejoin="round" stroke-width="6.446276020277168"/>
  <path d="M 65.05554803121602, 88.91184299962208 Q 64.5796129807839, 75.88365696996003, 61.85721385950427, 69.51531926036661 " fill="none" id="curve_1" stroke="#000000" stroke-linecap="round" stroke-linejoin="round" stroke-width="5.2260786882133035"/>
  <path d="M 61.85721385950427, 69.51531926036661 Q 61.11972944768457, 60.776789230997544, 59.563905067514746, 37.82405234745907 " fill="none" id="curve_1" stroke="#000000" stroke-linecap="round" stroke-linejoin="round" stroke-width="6.618209222015314"/>
  <path d="M 59.563905067514746, 37.82405234745907 Q 52.600622527130085, 42.533631981477114, 32.28940244287979, 69.77778921345232 " fill="none" id="curve_1" stroke="#000000" stroke-linecap="round" stroke-linejoin="round" stroke-width="5.120346093050976"/>
  <path d="M 32.28940244287979, 69.77778921345232 Q 30.311490256166287, 72.53796822574672, 27.4779337482572, 75.24604288600786 " fill="none" id="curve_1" stroke="#000000" stroke-linecap="round" stroke-linejoin="round" stroke-width="4.670625566047968"/>
  <path d="M 55.63417967402997, 38.10191138386849 Q 58.86010882969284, 36.338772392834834, 61.13105131684937, 32.956055112550686 " fill="none" id="curve_2" stroke="#000000" stroke-linecap="round" stroke-linejoin="round" stroke-width="4.8562163237820455"/>
  <path d="M 52.39288964925138, 42.03578522942856 Q 56.64724739865835, 38.70454755456923, 61.06525207607143, 33.97999725054054 " fill="none" id="curve_3" stroke="#000000" stroke-linecap="round" stroke-linejoin="round" stroke-width="3.766422963498748"/>
  <path d="M 61.06525207607143, 33.97999725054054 Q 60.83682346591709, 35.410785225344064, 60.4535174292292, 38.45052862201539 " fill="none" id="curve_3" stroke="#000000" stroke-linecap="round" stroke-linejoin="round" stroke-width="3.678919992329421"/>
  <path d="M 61.2926708355414, 45.55511550820188 Q 61.42601255006375, 40.81590687127825, 61.6046508471947, 33.51952145038973 " fill="none" id="curve_18" stroke="#000000" stroke-linecap="round" stroke-linejoin="round" stroke-width="2.8838031360912977"/>
  <path d="M 60.57414281716998, 64.03623253558699 Q 59.237140087108614, 56.80181102486788, 57.462967282780724, 46.830329319352515 " fill="none" id="curve_20" stroke="#000000" stroke-linecap="round" stroke-linejoin="round" stroke-width="3.501603458337278"/>
  <path d="M 59.3370973357824, 33.11433153060845 Q 53.624997604753275, 40.62330200151812, 42.90534842057717, 52.55985153862767 " fill="none" id="curve_21" stroke="#000000" stroke-linecap="round" stroke-linejoin="round" stroke-width="3.384096912811727"/>
  <path d="M 61.29499212696875, 75.89529074346581 Q 63.10161852170028, 84.61914099743467, 65.58271736654284, 91.32140955848756 " fill="none" id="curve_22" stroke="#000000" stroke-linecap="round" stroke-linejoin="round" stroke-width="3.310901678370332"/>
  <path d="M 43.79557849571754, 50.547944092331896 Q 39.41831371270179, 59.17454908730082, 31.082093123252108, 68.76645792221524 " fill="none" id="curve_24" stroke="#000000" stroke-linecap="round" stroke-linejoin="round" stroke-width="3.1093513659652974"/>
  <path d="M 31.082093123252108, 68.76645792221524 Q 35.292396251040756, 65.8570055146924, 38.690826218388544, 59.62923840058322 " fill="none" id="curve_24" stroke="#000000" stroke-linecap="round" stroke-linejoin="round" stroke-width="3.099697461035923"/>
  <path d="M 58.87129588429936, 64.86894955569164 Q 59.746261923593046, 65.097500718469, 60.530787853561826, 66.04149364799402 " fill="none" id="curve_40" stroke="#000000" stroke-linecap="round" stroke-linejoin="round" stroke-width="2.853358774490685"/>
  <path d="M 65.89927222799658, 91.6369620329814 Q 66.41657007708915, 90.51309552462078, 67.19349817255402, 88.86519176091242 " fill="none" id="curve_41" stroke="#000000" stroke-linecap="round" stroke-linejoin="round" stroke-width="3.5204586966670752"/>
  <path d="M 33.384467850389115, 69.56766524820989 Q 34.63041303981351, 64.20407493155753, 39.19864700654329, 60.07039098782294 " fill="none" id="curve_69" stroke="#000000" stroke-linecap="round" stroke-linejoin="round" stroke-width="3.6718875562104825"/>
  <path d="M 39.19864700654329, 60.07039098782294 Q 37.16550989220928, 63.671583891310924, 34.166930579057734, 66.734997595234 " fill="none" id="curve_69" stroke="#000000" stroke-linecap="round" stroke-linejoin="round" stroke-width="5.272781012709102"/>
  <path d="M 35.59636573281591, 67.0332905937712 Q 36.04693620081311, 66.5883548412058, 36.335056063758515, 64.63407943908808 " fill="none" id="curve_97" stroke="#000000" stroke-linecap="round" stroke-linejoin="round" stroke-width="4.69055878470441"/>
  <path d="M 53.002808610588076, 40.395417302101734 Q 55.05448603351083, 36.824631372825436, 60.57242945848183, 33.77367236978344 " fill="none" id="curve_98" stroke="#000000" stroke-linecap="round" stroke-linejoin="round" stroke-width="3.039303589042617"/>
  <path d="M 53.90900650395288, 38.296009460592714 Q 55.68271267946927, 36.058589642786494, 60.53227346083996, 33.72116814075633 " fill="none" id="curve_114" stroke="#000000" stroke-linecap="round" stroke-linejoin="round" stroke-width="2.755464757470229"/>
</svg>
