<?xml version="1.0" ?>
<svg height="140" width="140" xmlns="http://www.w3.org/2000/svg">
  <path d="M 47.047420501708984, 74.13303232192993 Q 48.88257967661618, 72.59879858388572, 49.882020571421165, 64.04762890987917 " fill="none" id="curve_1" stroke="#000000" stroke-linecap="round" stroke-linejoin="round" stroke-width="6.922592905607691"/>
  <path d="M 49.882020571421165, 64.04762890987917 Q 50.1555765805042, 62.481179009547006, 50.224262462624615, 47.324933944916964 " fill="none" id="curve_1" stroke="#000000" stroke-linecap="round" stroke-linejoin="round" stroke-width="5.779767228197057"/>
  <path d="M 50.94086681667114, 71.64064711965888 Q 48.355014110766305, 74.6288750582562, 47.252992425156606, 100.39974865881871 " fill="none" id="curve_2" stroke="#000000" stroke-linecap="round" stroke-linejoin="round" stroke-width="5.8248138647912535"/>
  <path d="M 47.252992425156606, 100.39974865881871 Q 46.44188244494311, 109.17342188979411, 45.67355776971327, 121.05443055472671 " fill="none" id="curve_2" stroke="#000000" stroke-linecap="round" stroke-linejoin="round" stroke-width="3.277712898485215"/>
  <path d="M 45.67355776971327, 121.05443055472671 Q 45.74903356111981, 122.52099347233107, 46.067287977816896, 123.0584484588322 " fill="none" id="curve_2" stroke="#000000" stroke-linecap="round" stroke-linejoin="round" stroke-width="2.7029393706133344"/>
  <path d="M 47.40979670698905, 86.14946957106827 Q 47.741903248992635, 76.24970782215856, 51.526110789952355, 74.31304474980458 " fill="none" id="curve_3" stroke="#000000" stroke-linecap="round" stroke-linejoin="round" stroke-width="3.769788086678108"/>
  <path d="M 52.086486431316295, 58.269554211597494 Q 51.98621426519694, 46.64178553682543, 49.98563809225685, 45.16476771485337 " fill="none" id="curve_4" stroke="#000000" stroke-linecap="round" stroke-linejoin="round" stroke-width="2.4584477550635264"/>
  <path d="M 51.5757015848021, 69.24904798981913 Q 48.90079887873854, 73.64443689746736, 46.90857041635871, 83.19016636961993 " fill="none" id="curve_5" stroke="#000000" stroke-linecap="round" stroke-linejoin="round" stroke-width="3.4012960847280946"/>
  <path d="M 46.90857041635871, 83.19016636961993 Q 48.62007632266358, 81.4501467326309, 49.720902497540024, 78.28970790347903 " fill="none" id="curve_5" stroke="#000000" stroke-linecap="round" stroke-linejoin="round" stroke-width="4.153226084486847"/>
  <path d="M 46.383497249814546, 98.14750290533391 Q 45.8546868121406, 98.55353080706658, 45.4556897735209, 99.31988804272278 " fill="none" id="curve_6" stroke="#000000" stroke-linecap="round" stroke-linejoin="round" stroke-width="5.043503848158702"/>
  <path d="M 47.60308530245162, 75.45159210815922 Q 47.94432537711772, 81.5860412699412, 48.25105103232174, 93.78404852463345 " fill="none" id="curve_8" stroke="#000000" stroke-linecap="round" stroke-linejoin="round" stroke-width="2.3511262596227644"/>
  <path d="M 48.990415911773745, 98.0405077289451 Q 48.55762113848514, 96.27619410391932, 47.691827637920476, 94.58601975071 " fill="none" id="curve_11" stroke="#000000" stroke-linecap="round" stroke-linejoin="round" stroke-width="3.6471077176839857"/>
  <path d="M 46.53963498720411, 84.63485379033551 Q 47.657406607223216, 83.1478608875997, 49.107414321667605, 79.73282834791648 " fill="none" id="curve_28" stroke="#000000" stroke-linecap="round" stroke-linejoin="round" stroke-width="2.5185297179801265"/>
  <path d="M 46.19293365517236, 82.10386434788546 Q 48.219960049451984, 81.91797773198569, 50.080708965174274, 81.48438189234209 " fill="none" id="curve_45" stroke="#000000" stroke-linecap="round" stroke-linejoin="round" stroke-width="2.852417209038491"/>
  <path d="M 48.25481884964565, 48.34447930812148 Q 48.414001675541996, 46.1543546172196, 48.860031110269944, 44.49085187336436 " fill="none" id="curve_94" stroke="#000000" stroke-linecap="round" stroke-linejoin="round" stroke-width="2.1172465663589675"/>
</svg>
