<?xml version="1.0" ?>
<svg height="140" width="140" xmlns="http://www.w3.org/2000/svg">
  <path d="M 76.9415340423584, 28.870437622070312 Q 74.62250208975308, 32.72489490410584, 69.71258122320705, 38.66923010256585 " fill="none" id="curve_1" stroke="#000000" stroke-linecap="round" stroke-linejoin="round" stroke-width="8.071072188438695"/>
  <path d="M 69.71258122320705, 38.66923010256585 Q 64.87121433130304, 42.63095893027934, 47.19408102103944, 58.46253837049932 " fill="none" id="curve_1" stroke="#000000" stroke-linecap="round" stroke-linejoin="round" stroke-width="3.3727405175238427"/>
  <path d="M 47.19408102103944, 58.46253837049932 Q 40.980190650856706, 62.53166006633045, 22.45498070662078, 78.31848113030348 " fill="none" id="curve_1" stroke="#000000" stroke-linecap="round" stroke-linejoin="round" stroke-width="4.434205789981973"/>
  <path d="M 22.45498070662078, 78.31848113030348 Q 17.369577004769017, 81.03346794397412, 12.679984192053178, 85.0872013867194 " fill="none" id="curve_1" stroke="#000000" stroke-linecap="round" stroke-linejoin="round" stroke-width="4.079360598169522"/>
  <path d="M 1.754916141944916, 77.1270020303196 Q 1.4897261063361067, 85.99479373983948, 0.5114185330725622, 98.11835387818088 " fill="none" id="curve_2" stroke="#000000" stroke-linecap="round" stroke-linejoin="round" stroke-width="1.3935158729045212"/>
  <path d="M 0.5114185330725622, 98.11835387818088 Q 0.756389552035258, 104.51968548249796, 1.0817610744053547, 134.92457502090514 " fill="none" id="curve_2" stroke="#000000" stroke-linecap="round" stroke-linejoin="round" stroke-width="1.6060144816809954"/>
  <path d="M 1.0817610744053547, 134.92457502090514 Q 1.276192426010949, 137.7362517981131, 1.9835573061519711, 139.1530968795933 " fill="none" id="curve_2" stroke="#000000" stroke-linecap="round" stroke-linejoin="round" stroke-width="2.7972367550011494"/>
  <path d="M 0.7868218410885177, 73.54148777011265 Q 0.9123473165750199, 70.92932125869528, 1.0023579985690103, 60.11875246195534 " fill="none" id="curve_5" stroke="#000000" stroke-linecap="round" stroke-linejoin="round" stroke-width="1.3091528459187536"/>
  <path d="M 1.0023579985690103, 60.11875246195534 Q 0.9257079554622492, 58.26924925698337, 0.8866234013324187, 47.71210772116474 " fill="none" id="curve_5" stroke="#000000" stroke-linecap="round" stroke-linejoin="round" stroke-width="1.3891293719692166"/>
  <path d="M 0.8866234013324187, 47.71210772116474 Q 0.8617786762673744, 45.26452551394549, 0.8401405013417679, 37.426461223496844 " fill="none" id="curve_5" stroke="#000000" stroke-linecap="round" stroke-linejoin="round" stroke-width="1.2335869569777986"/>
  <path d="M 0.8401405013417679, 37.426461223496844 Q 0.8383137011003056, 35.05023540114663, 0.8366167728510027, 28.16642766738407 " fill="none" id="curve_5" stroke="#000000" stroke-linecap="round" stroke-linejoin="round" stroke-width="1.1651596751170294"/>
  <path d="M 0.8366167728510027, 28.16642766738407 Q 0.8372550228301833, 25.90309785968271, 0.8378157685310035, 18.751133565244874 " fill="none" id="curve_5" stroke="#000000" stroke-linecap="round" stroke-linejoin="round" stroke-width="1.0919173080009892"/>
  <path d="M 0.8378157685310035, 18.751133565244874 Q 0.8676583000256726, 16.59255180778176, 0.9019584598708031, 12.276551441170596 " fill="none" id="curve_5" stroke="#000000" stroke-linecap="round" stroke-linejoin="round" stroke-width="1.050305373182368"/>
  <path d="M 0.9019584598708031, 12.276551441170596 Q 0.8841670221836276, 9.977960432782243, 0.8690186478919418, 0.5484004362290804 " fill="none" id="curve_5" stroke="#000000" stroke-linecap="round" stroke-linejoin="round" stroke-width="0.9869652463009249"/>
  <path d="M 0.8690186478919418, 0.5484004362290804 Q 1.1678602415211619, 0.71540426752156, 1.4810683467215928, 1.1038202388947909 " fill="none" id="curve_5" stroke="#000000" stroke-linecap="round" stroke-linejoin="round" stroke-width="1.2486670390669123"/>
  <path d="M 69.56780941257972, 43.781117695560454 Q 66.6977394103793, 48.39163919697408, 60.60062931171211, 57.766081363821115 " fill="none" id="curve_10" stroke="#000000" stroke-linecap="round" stroke-linejoin="round" stroke-width="3.93447678542939"/>
  <path d="M 60.60062931171211, 57.766081363821115 Q 58.14677981054527, 63.89445803371743, 55.50794535538948, 73.7629751094786 " fill="none" id="curve_10" stroke="#000000" stroke-linecap="round" stroke-linejoin="round" stroke-width="3.9655699780610476"/>
  <path d="M 55.50794535538948, 73.7629751094786 Q 57.330339633040026, 63.02430239913605, 63.617573323628655, 56.44358102383244 " fill="none" id="curve_10" stroke="#000000" stroke-linecap="round" stroke-linejoin="round" stroke-width="3.3112576374507015"/>
  <path d="M 74.8820235479459, 35.70195821713723 Q 76.697349352405, 32.49306963655813, 78.44838121165587, 28.669575852243813 " fill="none" id="curve_11" stroke="#000000" stroke-linecap="round" stroke-linejoin="round" stroke-width="3.5773489914815397"/>
  <path d="M 48.08547972488348, 55.55184746412024 Q 43.81053098630309, 61.344951339602616, 34.88343136295242, 67.10442461344209 " fill="none" id="curve_12" stroke="#000000" stroke-linecap="round" stroke-linejoin="round" stroke-width="2.853938359184419"/>
  <path d="M 14.907050501810883, 82.53953277264827 Q 22.07238051812619, 79.08201364912097, 29.393894786566147, 71.52054893282137 " fill="none" id="curve_13" stroke="#000000" stroke-linecap="round" stroke-linejoin="round" stroke-width="2.6685337232030126"/>
  <path d="M 11.86095108129749, 84.81937421533678 Q 12.09705650468921, 85.03155727216561, 12.72417838337295, 85.29149080203835 " fill="none" id="curve_14" stroke="#000000" stroke-linecap="round" stroke-linejoin="round" stroke-width="2.286293175920162"/>
  <path d="M 72.38110814413048, 40.59027091073017 Q 72.77560623854019, 38.18217555469696, 74.20480398489487, 37.085878057758734 " fill="none" id="curve_29" stroke="#000000" stroke-linecap="round" stroke-linejoin="round" stroke-width="2.7396874036360095"/>
  <path d="M 78.53976235141897, 29.68396828884671 Q 77.99577416140976, 29.637717307747188, 77.2041978550172, 29.576500578993475 " fill="none" id="curve_30" stroke="#000000" stroke-linecap="round" stroke-linejoin="round" stroke-width="3.5406157422258637"/>
  <path d="M 11.062288639717394, 85.81275834841594 Q 11.025771729101093, 85.30805533431506, 10.936058763452255, 84.94165103972273 " fill="none" id="curve_58" stroke="#000000" stroke-linecap="round" stroke-linejoin="round" stroke-width="2.6785383214365344"/>
  <path d="M 22.76137374621176, 76.27914222376153 Q 20.815876997346617, 77.89064959410389, 18.67940894375695, 79.82501095032748 " fill="none" id="curve_59" stroke="#000000" stroke-linecap="round" stroke-linejoin="round" stroke-width="3.093554840084059"/>
</svg>
