<?xml version="1.0" ?>
<svg height="140" width="140" xmlns="http://www.w3.org/2000/svg">
  <path d="M 58.020389556884766, 45.639516830444336 Q 53.792884086628, 48.95959417081218, 48.82734863372565, 56.60348574724759 " fill="none" id="curve_1" stroke="#000000" stroke-linecap="round" stroke-linejoin="round" stroke-width="8.909346095501531"/>
  <path d="M 48.82734863372565, 56.60348574724759 Q 42.39305547981094, 60.55384964272821, 27.499654624838847, 81.56002043854005 " fill="none" id="curve_1" stroke="#000000" stroke-linecap="round" stroke-linejoin="round" stroke-width="4.238048677902607"/>
  <path d="M 27.499654624838847, 81.56002043854005 Q 20.8528208392397, 87.83503930619833, 15.926880609754331, 103.71388042122312 " fill="none" id="curve_1" stroke="#000000" stroke-linecap="round" stroke-linejoin="round" stroke-width="5.249162731763566"/>
  <path d="M 15.926880609754331, 103.71388042122312 Q 17.402453587583743, 105.92809614102205, 20.126950283932135, 107.4239827577772 " fill="none" id="curve_1" stroke="#000000" stroke-linecap="round" stroke-linejoin="round" stroke-width="4.166345907905031"/>
  <path d="M 41.27887996202384, 105.99501743780851 Q 40.649119857634176, 98.62948475793618, 39.633217227733695, 90.9644245374548 " fill="none" id="curve_2" stroke="#000000" stroke-linecap="round" stroke-linejoin="round" stroke-width="5.183864196573781"/>
  <path d="M 39.633217227733695, 90.9644245374548 Q 41.72955135258577, 75.79968618554513, 52.37960670239493, 60.09714807499462 " fill="none" id="curve_2" stroke="#000000" stroke-linecap="round" stroke-linejoin="round" stroke-width="4.756472207310329"/>
  <path d="M 52.37960670239493, 60.09714807499462 Q 54.89517167058971, 56.44479293692582, 56.23725781854763, 45.69465140110708 " fill="none" id="curve_2" stroke="#000000" stroke-linecap="round" stroke-linejoin="round" stroke-width="3.7875019007939734"/>
  <path d="M 43.4198936038512, 74.29429864793306 Q 40.116119664352176, 76.97373954691207, 39.03977870092613, 88.13160944831658 " fill="none" id="curve_3" stroke="#000000" stroke-linecap="round" stroke-linejoin="round" stroke-width="2.8240950989373097"/>
  <path d="M 32.17747452442413, 73.92618730756712 Q 26.06317023277775, 79.58833894600721, 15.294212418018603, 97.98724906327949 " fill="none" id="curve_4" stroke="#000000" stroke-linecap="round" stroke-linejoin="round" stroke-width="3.1612402926753003"/>
  <path d="M 15.294212418018603, 97.98724906327949 Q 17.76274048153766, 104.33708035634905, 21.679815383150583, 108.21049712113208 " fill="none" id="curve_4" stroke="#000000" stroke-linecap="round" stroke-linejoin="round" stroke-width="2.7898986107741734"/>
  <path d="M 42.25170760101541, 108.5178699829788 Q 41.691695811537386, 106.5301306315559, 40.69499534395443, 103.81670189911499 " fill="none" id="curve_5" stroke="#000000" stroke-linecap="round" stroke-linejoin="round" stroke-width="2.209642487804715"/>
  <path d="M 40.69499534395443, 103.81670189911499 Q 39.69120440285681, 101.19618660505404, 38.67490173351729, 97.23491498505668 " fill="none" id="curve_5" stroke="#000000" stroke-linecap="round" stroke-linejoin="round" stroke-width="3.327241178847827"/>
  <path d="M 29.44738839909478, 78.99179471287626 Q 25.918110919422, 85.72796134153651, 20.605082293691595, 93.01736901828444 " fill="none" id="curve_6" stroke="#000000" stroke-linecap="round" stroke-linejoin="round" stroke-width="2.607334430362527"/>
  <path d="M 53.56674436618182, 47.77008517699579 Q 54.164896873931454, 47.42129015837491, 54.9887117812504, 47.05231373036059 " fill="none" id="curve_8" stroke="#000000" stroke-linecap="round" stroke-linejoin="round" stroke-width="5.189739223927062"/>
</svg>
