<?xml version="1.0" ?>
<svg height="140" width="140" xmlns="http://www.w3.org/2000/svg">
  <path d="M 48.27316665649414, 49.58955383300781 Q 46.3619794776847, 50.53530113340383, 45.732547677131606, 58.641665704250045 " fill="none" id="curve_1" stroke="#000000" stroke-linecap="round" stroke-linejoin="round" stroke-width="7.726033588304942"/>
  <path d="M 45.732547677131606, 58.641665704250045 Q 41.49496863494695, 64.42759601459784, 32.71758762870633, 76.29134749544255 " fill="none" id="curve_1" stroke="#000000" stroke-linecap="round" stroke-linejoin="round" stroke-width="5.173940305467643"/>
  <path d="M 32.71758762870633, 76.29134749544255 Q 30.637534259737283, 82.04919916918827, 25.09238116252305, 84.39414805122622 " fill="none" id="curve_1" stroke="#000000" stroke-linecap="round" stroke-linejoin="round" stroke-width="5.171268570760639"/>
  <path d="M 48.28452754952153, 65.44611569536744 Q 48.7029259439978, 76.31777420839285, 50.22051548667342, 100.43955153526377 " fill="none" id="curve_2" stroke="#000000" stroke-linecap="round" stroke-linejoin="round" stroke-width="5.537479100282644"/>
  <path d="M 50.22051548667342, 100.43955153526377 Q 52.05407803346208, 104.97959574871768, 54.19092155166411, 109.67203086577094 " fill="none" id="curve_2" stroke="#000000" stroke-linecap="round" stroke-linejoin="round" stroke-width="5.253442952218392"/>
  <path d="M 48.09159385172925, 63.86577766721384 Q 49.17793348618026, 62.00936710304565, 49.47523702705965, 49.132083678132744 " fill="none" id="curve_4" stroke="#000000" stroke-linecap="round" stroke-linejoin="round" stroke-width="2.9433437128254396"/>
  <path d="M 46.929848639881726, 72.0846843141936 Q 47.39700977749916, 86.51120099474015, 48.427890868523285, 94.64605323411874 " fill="none" id="curve_5" stroke="#000000" stroke-linecap="round" stroke-linejoin="round" stroke-width="2.8396517775680334"/>
  <path d="M 49.871305800943986, 73.88083032194282 Q 49.71677081341603, 67.93349894285303, 47.57464747592065, 67.25645610298379 " fill="none" id="curve_6" stroke="#000000" stroke-linecap="round" stroke-linejoin="round" stroke-width="4.9177590662476955"/>
  <path d="M 26.235740056112004, 83.97863872830781 Q 30.15943531319528, 77.31979243420986, 37.64372021249469, 70.23186416801735 " fill="none" id="curve_7" stroke="#000000" stroke-linecap="round" stroke-linejoin="round" stroke-width="2.9652605278264805"/>
  <path d="M 24.771547750018545, 84.58800581394863 Q 24.170240910481308, 84.43598993580213, 23.32856013029174, 84.2498092908955 " fill="none" id="curve_8" stroke="#000000" stroke-linecap="round" stroke-linejoin="round" stroke-width="3.3566902460655594"/>
  <path d="M 49.442965959850966, 50.99173064511597 Q 49.17078587890846, 50.26931843428893, 48.443782997496086, 49.395125953852734 " fill="none" id="curve_91" stroke="#000000" stroke-linecap="round" stroke-linejoin="round" stroke-width="2.6045658481286247"/>
</svg>
