<?xml version="1.0" ?>
<svg height="140" width="140" xmlns="http://www.w3.org/2000/svg">
  <path d="M 26.17501163482666, 74.39581298828125 Q 23.972992034789005, 74.74410383028041, 23.398230375121102, 77.96091668774919 " fill="none" id="curve_1" stroke="#000000" stroke-linecap="round" stroke-linejoin="round" stroke-width="5.604267200958722"/>
  <path d="M 23.398230375121102, 77.96091668774919 Q 25.576783197418177, 69.32635131354706, 36.316443011991495, 59.854044401871704 " fill="none" id="curve_1" stroke="#000000" stroke-linecap="round" stroke-linejoin="round" stroke-width="5.466865169289174"/>
  <path d="M 36.316443011991495, 59.854044401871704 Q 42.67152281588353, 52.65754103985394, 56.7809076967453, 40.70131983247887 " fill="none" id="curve_1" stroke="#000000" stroke-linecap="round" stroke-linejoin="round" stroke-width="5.141373895613074"/>
  <path d="M 56.7809076967453, 40.70131983247887 Q 58.16041066018551, 43.147418900022224, 58.835413108836576, 49.86103863863278 " fill="none" id="curve_1" stroke="#000000" stroke-linecap="round" stroke-linejoin="round" stroke-width="5.223090909834999"/>
  <path d="M 58.835413108836576, 49.86103863863278 Q 56.20480497643399, 61.91881385248157, 48.31745803455257, 91.8010489532623 " fill="none" id="curve_1" stroke="#000000" stroke-linecap="round" stroke-linejoin="round" stroke-width="5.143294825571126"/>
  <path d="M 48.31745803455257, 91.8010489532623 Q 48.61506303175717, 103.94641194553986, 50.08190431294938, 107.56795516491947 " fill="none" id="curve_1" stroke="#000000" stroke-linecap="round" stroke-linejoin="round" stroke-width="4.218543774424567"/>
  <path d="M 25.398942992740995, 81.60618512012101 Q 25.47677340530245, 80.30987672135413, 25.61755634174584, 78.89088043726832 " fill="none" id="curve_2" stroke="#000000" stroke-linecap="round" stroke-linejoin="round" stroke-width="3.3847513095003494"/>
  <path d="M 48.61893417350778, 93.89285018486906 Q 48.747533469052605, 96.56767133878965, 48.94949229648003, 100.81446948664097 " fill="none" id="curve_4" stroke="#000000" stroke-linecap="round" stroke-linejoin="round" stroke-width="2.821612850941034"/>
  <path d="M 61.10309721743034, 41.46074813511564 Q 58.51865237610688, 46.984863014849935, 55.31961391188821, 56.66151423912696 " fill="none" id="curve_8" stroke="#000000" stroke-linecap="round" stroke-linejoin="round" stroke-width="2.9630037870867785"/>
  <path d="M 51.53884756787523, 109.0379583780313 Q 51.23944830179709, 108.970714121354, 50.60887254935022, 108.90346592062014 " fill="none" id="curve_10" stroke="#000000" stroke-linecap="round" stroke-linejoin="round" stroke-width="2.9378005903793367"/>
  <path d="M 48.034280307479314, 97.26292304213467 Q 48.4271153482036, 96.26100246908614, 48.804014881565614, 94.34748520991947 " fill="none" id="curve_11" stroke="#000000" stroke-linecap="round" stroke-linejoin="round" stroke-width="5.91572755107788"/>
  <path d="M 33.18350305698964, 63.74897301889946 Q 31.11285483025268, 70.14827257097078, 23.02961438066169, 74.4513687056808 " fill="none" id="curve_13" stroke="#000000" stroke-linecap="round" stroke-linejoin="round" stroke-width="3.103124551201717"/>
  <path d="M 57.21277007176775, 51.56181554675845 Q 57.04244310089741, 45.86223342277586, 55.870738627943176, 43.65596041084908 " fill="none" id="curve_28" stroke="#000000" stroke-linecap="round" stroke-linejoin="round" stroke-width="2.5285909185349156"/>
  <path d="M 55.870738627943176, 43.65596041084908 Q 47.35126795288688, 44.43655850432442, 44.61169381247481, 51.44639144704165 " fill="none" id="curve_28" stroke="#000000" stroke-linecap="round" stroke-linejoin="round" stroke-width="2.3579089552797363"/>
  <path d="M 34.01494566761809, 60.63734767450606 Q 34.679848869449344, 60.190292241335136, 35.51476918627499, 59.333847326221225 " fill="none" id="curve_29" stroke="#000000" stroke-linecap="round" stroke-linejoin="round" stroke-width="3.244031135100359"/>
  <path d="M 45.79539007070764, 98.53846856281592 Q 48.31682350244619, 95.15764143231661, 50.72790663720641, 88.85478205968352 " fill="none" id="curve_44" stroke="#000000" stroke-linecap="round" stroke-linejoin="round" stroke-width="2.939362768823125"/>
  <path d="M 53.63417479177843, 63.00150631096463 Q 52.89724289538994, 71.60168724392152, 50.391709834668546, 75.27275990156708 " fill="none" id="curve_45" stroke="#000000" stroke-linecap="round" stroke-linejoin="round" stroke-width="3.058298058566498"/>
  <path d="M 47.55051109411181, 46.77291442241862 Q 48.42664334498906, 43.65252282114366, 54.92077596115749, 42.720866400534014 " fill="none" id="curve_46" stroke="#000000" stroke-linecap="round" stroke-linejoin="round" stroke-width="2.6939566756592677"/>
  <path d="M 55.79432318353065, 51.211425958190375 Q 55.964781898916115, 51.70468891173291, 56.14609456212936, 53.10707131071531 " fill="none" id="curve_74" stroke="#000000" stroke-linecap="round" stroke-linejoin="round" stroke-width="2.8207208999516333"/>
</svg>
