<?xml version="1.0" ?>
<svg height="140" width="140" xmlns="http://www.w3.org/2000/svg">
  <path d="M 52.307701110839844, 92.56991004943848 Q 50.915823911790376, 91.62841735021512, 50.39426143840103, 84.47816348816013 " fill="none" id="curve_1" stroke="#000000" stroke-linecap="round" stroke-linejoin="round" stroke-width="8.965637546482988"/>
  <path d="M 50.39426143840103, 84.47816348816013 Q 49.712915185074245, 79.31155053522552, 48.90284441880432, 67.6925428309865 " fill="none" id="curve_1" stroke="#000000" stroke-linecap="round" stroke-linejoin="round" stroke-width="7.259336070680042"/>
  <path d="M 48.90284441880432, 67.6925428309865 Q 48.2823723061921, 59.4212191506372, 47.24090946603884, 45.73293752355903 " fill="none" id="curve_1" stroke="#000000" stroke-linecap="round" stroke-linejoin="round" stroke-width="5.053090300147184"/>
  <path d="M 47.24090946603884, 45.73293752355903 Q 44.600944355702325, 57.59113077768555, 27.184698030711427, 79.21222517458035 " fill="none" id="curve_1" stroke="#000000" stroke-linecap="round" stroke-linejoin="round" stroke-width="4.721591461867399"/>
  <path d="M 27.184698030711427, 79.21222517458035 Q 23.25980954131779, 84.74563158768397, 17.60633233248669, 89.67218838797854 " fill="none" id="curve_1" stroke="#000000" stroke-linecap="round" stroke-linejoin="round" stroke-width="4.402169254109551"/>
  <path d="M 50.991404924683565, 93.58854815774984 Q 52.19623612370427, 93.40188422921534, 52.653504051424434, 92.47507078264219 " fill="none" id="curve_2" stroke="#000000" stroke-linecap="round" stroke-linejoin="round" stroke-width="6.429034042723374"/>
  <path d="M 36.47670808278782, 65.04576817555956 Q 31.556340046301713, 71.0235551453146, 24.95631849893749, 80.28170970289901 " fill="none" id="curve_3" stroke="#000000" stroke-linecap="round" stroke-linejoin="round" stroke-width="2.7992514723523647"/>
  <path d="M 24.95631849893749, 80.28170970289901 Q 31.96832459095167, 72.45195996905423, 42.508808672493416, 57.376291971955546 " fill="none" id="curve_3" stroke="#000000" stroke-linecap="round" stroke-linejoin="round" stroke-width="2.893968482969449"/>
  <path d="M 48.261706878806855, 45.4502500587924 Q 47.5213653026493, 45.216663628943415, 46.17081157002527, 45.005474591197206 " fill="none" id="curve_4" stroke="#000000" stroke-linecap="round" stroke-linejoin="round" stroke-width="3.9433485084039366"/>
  <path d="M 32.893640090754815, 70.45978136812003 Q 36.56520955889661, 62.65460415031966, 44.64095503445616, 54.519184236227034 " fill="none" id="curve_5" stroke="#000000" stroke-linecap="round" stroke-linejoin="round" stroke-width="2.4639254703086793"/>
  <path d="M 53.406984874502946, 89.87881905967961 Q 52.60583582481995, 91.40050791876158, 50.326310366163, 92.27614914410094 " fill="none" id="curve_6" stroke="#000000" stroke-linecap="round" stroke-linejoin="round" stroke-width="4.695139178919674"/>
  <path d="M 45.667545815467896, 75.12821903139273 Q 46.53503300608808, 75.89560357252984, 47.689892475594625, 77.11815729439967 " fill="none" id="curve_7" stroke="#000000" stroke-linecap="round" stroke-linejoin="round" stroke-width="3.465622998993412"/>
</svg>
