<?xml version="1.0" ?>
<svg height="140" width="140" xmlns="http://www.w3.org/2000/svg">
  <path d="M 55.73250961303711, 108.19426155090332 Q 53.811576061652346, 105.59054794624812, 52.27516025794693, 96.03113349982323 " fill="none" id="curve_1" stroke="#000000" stroke-linecap="round" stroke-linejoin="round" stroke-width="7.365691827785997"/>
  <path d="M 52.27516025794693, 96.03113349982323 Q 52.782190774206605, 90.83536666660045, 53.484494848569874, 75.0159159502735 " fill="none" id="curve_1" stroke="#000000" stroke-linecap="round" stroke-linejoin="round" stroke-width="6.054833521871911"/>
  <path d="M 53.484494848569874, 75.0159159502735 Q 54.95937207020512, 70.74517495742074, 55.99413979406306, 52.22015550677811 " fill="none" id="curve_1" stroke="#000000" stroke-linecap="round" stroke-linejoin="round" stroke-width="4.637531482824935"/>
  <path d="M 55.99413979406306, 52.22015550677811 Q 53.54843348006127, 63.995128799023476, 39.314291558294016, 85.0175993178766 " fill="none" id="curve_1" stroke="#000000" stroke-linecap="round" stroke-linejoin="round" stroke-width="4.180233148698624"/>
  <path d="M 39.314291558294016, 85.0175993178766 Q 33.84495861147921, 95.23785921080108, 25.545543909468336, 107.43896814615454 " fill="none" id="curve_1" stroke="#000000" stroke-linecap="round" stroke-linejoin="round" stroke-width="4.44748892497162"/>
  <path d="M 56.0963737866788, 108.66686864969813 Q 56.049593981085295, 108.39936801565212, 56.02188331351067, 107.6928578588699 " fill="none" id="curve_2" stroke="#000000" stroke-linecap="round" stroke-linejoin="round" stroke-width="6.814839868048946"/>
  <path d="M 30.45840656016781, 102.36331452992414 Q 29.861690716541922, 101.27020991078889, 29.02927423105358, 100.04370168759515 " fill="none" id="curve_3" stroke="#000000" stroke-linecap="round" stroke-linejoin="round" stroke-width="6.425404590740664"/>
  <path d="M 24.829214096069336, 108.38469886779785 Q 24.8452545874136, 107.56331717767837, 24.904340040761802, 107.0386781654603 " fill="none" id="curve_30" stroke="#000000" stroke-linecap="round" stroke-linejoin="round" stroke-width="3.3221305711315696"/>
  <path d="M 36.45502240847713, 89.25778057543188 Q 39.991638425545915, 80.52228139889004, 48.74263239201194, 70.24959533246655 " fill="none" id="curve_31" stroke="#000000" stroke-linecap="round" stroke-linejoin="round" stroke-width="2.4795804986136707"/>
  <path d="M 48.74263239201194, 70.24959533246655 Q 50.335127295320596, 61.359622054188506, 56.00699029660221, 55.46803662486618 " fill="none" id="curve_31" stroke="#000000" stroke-linecap="round" stroke-linejoin="round" stroke-width="2.6959306990629717"/>
  <path d="M 27.917709092553878, 105.46657942740518 Q 30.04407503653689, 104.30717779873206, 31.788265537963767, 101.21251672264653 " fill="none" id="curve_72" stroke="#000000" stroke-linecap="round" stroke-linejoin="round" stroke-width="3.17390011905794"/>
  <path d="M 49.068279177975455, 68.78173815984928 Q 48.752416441181914, 68.35423821145903, 47.22304363366581, 68.11068670883412 " fill="none" id="curve_87" stroke="#000000" stroke-linecap="round" stroke-linejoin="round" stroke-width="3.333036325243656"/>
  <path d="M 33.25637487468332, 93.68860523029855 Q 36.04663708182355, 87.32004651651069, 42.011627029456626, 77.83605540914398 " fill="none" id="curve_117" stroke="#000000" stroke-linecap="round" stroke-linejoin="round" stroke-width="1.8269903372041445"/>
  <path d="M 52.08964498512567, 63.52143240978221 Q 52.35918057787645, 55.73482162329535, 55.19126123937123, 53.72832298219916 " fill="none" id="curve_118" stroke="#000000" stroke-linecap="round" stroke-linejoin="round" stroke-width="2.546357940405705"/>
  <path d="M 53.79101512005845, 71.68486803475508 Q 54.90463426178972, 71.78717226145349, 56.02867826942728, 72.03759074677951 " fill="none" id="curve_120" stroke="#000000" stroke-linecap="round" stroke-linejoin="round" stroke-width="3.472390953370279"/>
</svg>
