<?xml version="1.0" ?>
<svg height="140" width="140" xmlns="http://www.w3.org/2000/svg">
  <path d="M 46.96505260467529, 86.65545654296875 Q 46.05469683906076, 90.1662839191285, 45.49949471708036, 99.41858111212878 " fill="none" id="curve_1" stroke="#000000" stroke-linecap="round" stroke-linejoin="round" stroke-width="4.500236897340405"/>
  <path d="M 45.49949471708036, 99.41858111212878 Q 45.771595197207915, 92.38793127581242, 46.55003110245698, 88.04536812230532 " fill="none" id="curve_1" stroke="#000000" stroke-linecap="round" stroke-linejoin="round" stroke-width="4.249663503168565"/>
  <path d="M 46.55003110245698, 88.04536812230532 Q 49.2077774981215, 77.84587522979815, 57.61283021595734, 62.427791762929544 " fill="none" id="curve_1" stroke="#000000" stroke-linecap="round" stroke-linejoin="round" stroke-width="6.44178651232357"/>
  <path d="M 57.61283021595734, 62.427791762929544 Q 62.30912763109305, 57.74744199902895, 65.29465291340065, 42.868851353337284 " fill="none" id="curve_1" stroke="#000000" stroke-linecap="round" stroke-linejoin="round" stroke-width="5.448312019095529"/>
  <path d="M 65.29465291340065, 42.868851353337284 Q 52.202429564972064, 44.665880832053, 33.77062016489933, 58.10249886626367 " fill="none" id="curve_1" stroke="#000000" stroke-linecap="round" stroke-linejoin="round" stroke-width="5.3011969944146955"/>
  <path d="M 33.77062016489933, 58.10249886626367 Q 23.737240943186016, 63.76757140531452, 6.679704072655877, 77.58624828372918 " fill="none" id="curve_1" stroke="#000000" stroke-linecap="round" stroke-linejoin="round" stroke-width="5.426288278028148"/>
  <path d="M 6.679704072655877, 77.58624828372918 Q 17.49060031997331, 77.28921749072548, 21.271050656172363, 75.81204027364278 " fill="none" id="curve_1" stroke="#000000" stroke-linecap="round" stroke-linejoin="round" stroke-width="3.440192956636365"/>
  <path d="M 21.271050656172363, 75.81204027364278 Q 13.578057260484714, 77.74274044307084, 4.885253005840564, 80.02753126669396 " fill="none" id="curve_1" stroke="#000000" stroke-linecap="round" stroke-linejoin="round" stroke-width="3.4807545664729003"/>
  <path d="M 55.26083802028101, 42.44945230496846 Q 60.197701673385936, 41.91122011915875, 63.845233107730614, 40.79878465299654 " fill="none" id="curve_3" stroke="#000000" stroke-linecap="round" stroke-linejoin="round" stroke-width="3.2226584135152123"/>
  <path d="M 89.50736817312645, 36.24437928639761 Q 89.56976795973344, 45.47067458549063, 89.67271918225356, 65.49299906309037 " fill="none" id="curve_4" stroke="#000000" stroke-linecap="round" stroke-linejoin="round" stroke-width="1.7107687629646458"/>
  <path d="M 89.67271918225356, 65.49299906309037 Q 89.68980257358933, 79.99587169221662, 89.82418929453175, 95.45724124058108 " fill="none" id="curve_4" stroke="#000000" stroke-linecap="round" stroke-linejoin="round" stroke-width="1.7469797800358104"/>
  <path d="M 89.82418929453175, 95.45724124058108 Q 89.77328080967807, 102.6038373536908, 89.63535415750393, 120.62835320961457 " fill="none" id="curve_4" stroke="#000000" stroke-linecap="round" stroke-linejoin="round" stroke-width="1.4789813367798055"/>
  <path d="M 89.63535415750393, 120.62835320961457 Q 89.60771055663197, 136.45170272833144, 89.37859822891681, 139.44714677880089 " fill="none" id="curve_4" stroke="#000000" stroke-linecap="round" stroke-linejoin="round" stroke-width="2.053835164503725"/>
  <path d="M 89.84946346282959, 30.252182006835938 Q 89.78646892486134, 32.76467985456809, 89.60544483799627, 34.80133833478848 " fill="none" id="curve_18" stroke="#000000" stroke-linecap="round" stroke-linejoin="round" stroke-width="1.4321090877852252"/>
  <path d="M 89.46828765749046, 28.321192784775015 Q 89.58638707906816, 26.471999479738916, 89.64266228689735, 14.411647620418174 " fill="none" id="curve_19" stroke="#000000" stroke-linecap="round" stroke-linejoin="round" stroke-width="1.3900492631930814"/>
  <path d="M 89.64266228689735, 14.411647620418174 Q 89.60611083708157, 6.855252008594783, 89.47619271752696, 0.6958055511581467 " fill="none" id="curve_19" stroke="#000000" stroke-linecap="round" stroke-linejoin="round" stroke-width="1.4159169105056535"/>
  <path d="M 89.47619271752696, 0.6958055511581467 Q 89.06009439530926, 0.8779158764506998, 88.42374365973974, 1.072868354527065 " fill="none" id="curve_19" stroke="#000000" stroke-linecap="round" stroke-linejoin="round" stroke-width="1.68067095072358"/>
  <path d="M 53.28510902734601, 46.341396424498456 Q 41.69178475346645, 49.32607754984306, 27.2987614864199, 61.15881607430757 " fill="none" id="curve_26" stroke="#000000" stroke-linecap="round" stroke-linejoin="round" stroke-width="3.6045279508864057"/>
  <path d="M 50.98667013495836, 71.42057384352 Q 48.358727679090386, 76.58360923309655, 46.37056763680759, 85.73173408445817 " fill="none" id="curve_27" stroke="#000000" stroke-linecap="round" stroke-linejoin="round" stroke-width="3.123672815166474"/>
  <path d="M 58.931438597243805, 57.904430176163245 Q 61.760729989444386, 52.17543238672941, 66.95399088715952, 46.379235270778324 " fill="none" id="curve_28" stroke="#000000" stroke-linecap="round" stroke-linejoin="round" stroke-width="3.0346112461047046"/>
  <path d="M 58.340318544836016, 41.61021257776415 Q 51.877285756801925, 45.72755610828369, 41.47971881571938, 51.41471482526147 " fill="none" id="curve_29" stroke="#000000" stroke-linecap="round" stroke-linejoin="round" stroke-width="3.3898917392058587"/>
  <path d="M 61.55272625666, 52.49562958953234 Q 60.02766941401302, 54.16294193583879, 58.298122827439684, 58.462988332237906 " fill="none" id="curve_31" stroke="#000000" stroke-linecap="round" stroke-linejoin="round" stroke-width="2.8935661092603895"/>
  <path d="M 63.14099427581604, 41.42930139846885 Q 62.728381138885155, 40.701832713801075, 60.89159302836025, 40.38622286021065 " fill="none" id="curve_46" stroke="#000000" stroke-linecap="round" stroke-linejoin="round" stroke-width="3.225313826191642"/>
</svg>
