<?xml version="1.0" ?>
<svg height="140" width="140" xmlns="http://www.w3.org/2000/svg">
  <path d="M 66.73261737823486, 34.63663196563721 Q 62.798730713666416, 37.82247087304823, 59.4572067160463, 48.65474736433498 " fill="none" id="curve_1" stroke="#000000" stroke-linecap="round" stroke-linejoin="round" stroke-width="7.6298217866487485"/>
  <path d="M 59.4572067160463, 48.65474736433498 Q 54.05696971920783, 54.52410939584186, 39.71622002840334, 81.49118893156916 " fill="none" id="curve_1" stroke="#000000" stroke-linecap="round" stroke-linejoin="round" stroke-width="3.770240648812862"/>
  <path d="M 39.71622002840334, 81.49118893156916 Q 35.55180845360967, 87.88443035705521, 30.33129197051918, 95.0073446678253 " fill="none" id="curve_1" stroke="#000000" stroke-linecap="round" stroke-linejoin="round" stroke-width="4.165956555908375"/>
  <path d="M 52.00639284004396, 117.67557816265828 Q 52.08584422219163, 90.78750669734342, 54.40885807485698, 82.97160266131445 " fill="none" id="curve_2" stroke="#000000" stroke-linecap="round" stroke-linejoin="round" stroke-width="4.8229614922577815"/>
  <path d="M 54.40885807485698, 82.97160266131445 Q 56.49058946010332, 72.47775516373845, 61.59076660759694, 51.0224211617395 " fill="none" id="curve_2" stroke="#000000" stroke-linecap="round" stroke-linejoin="round" stroke-width="5.009124891042039"/>
  <path d="M 61.59076660759694, 51.0224211617395 Q 63.36260933052325, 43.24557760277014, 65.66267689044129, 32.440528092891114 " fill="none" id="curve_2" stroke="#000000" stroke-linecap="round" stroke-linejoin="round" stroke-width="3.611045319923882"/>
  <path d="M 50.79662985329668, 107.85965968685838 Q 51.135533818830666, 113.54274319825635, 52.503012278106915, 116.34453294694836 " fill="none" id="curve_8" stroke="#000000" stroke-linecap="round" stroke-linejoin="round" stroke-width="3.2915131646608176"/>
  <path d="M 52.503012278106915, 116.34453294694836 Q 51.08820007175968, 114.70327437146116, 50.393378300743464, 106.41132384017293 " fill="none" id="curve_8" stroke="#000000" stroke-linecap="round" stroke-linejoin="round" stroke-width="3.3702968466237873"/>
  <path d="M 53.06569576263428, 91.03133392333984 Q 55.600087949895396, 88.57277510960083, 56.749127583864336, 74.20012506846115 " fill="none" id="curve_22" stroke="#000000" stroke-linecap="round" stroke-linejoin="round" stroke-width="2.3905970900880775"/>
  <path d="M 56.749127583864336, 74.20012506846115 Q 56.913293897700946, 61.4471683017876, 58.31819234357356, 57.88312007090812 " fill="none" id="curve_22" stroke="#000000" stroke-linecap="round" stroke-linejoin="round" stroke-width="2.767185638095652"/>
  <path d="M 64.46242452584818, 37.418500456266486 Q 64.33398917784731, 35.787001915492866, 64.02874113718795, 34.934436198196465 " fill="none" id="curve_23" stroke="#000000" stroke-linecap="round" stroke-linejoin="round" stroke-width="5.512231059931231"/>
  <path d="M 45.516406323215406, 75.0057949171539 Q 42.922116721438435, 76.51218122525445, 39.30871775059137, 79.66325319830501 " fill="none" id="curve_24" stroke="#000000" stroke-linecap="round" stroke-linejoin="round" stroke-width="2.8523267345048744"/>
  <path d="M 54.21628343965474, 81.70917919325605 Q 52.706242210648, 90.54180883336458, 51.04406225168286, 105.87865302049744 " fill="none" id="curve_25" stroke="#000000" stroke-linecap="round" stroke-linejoin="round" stroke-width="2.2357657886980284"/>
  <path d="M 53.52191623363615, 116.25968466643728 Q 53.61912273089376, 116.1616668754122, 53.718138727830386, 115.98530526331369 " fill="none" id="curve_26" stroke="#000000" stroke-linecap="round" stroke-linejoin="round" stroke-width="4.987510676837426"/>
  <path d="M 53.218444117102514, 91.37088536501267 Q 53.790736357402345, 89.65746825967754, 54.1630664903855, 83.8458105794089 " fill="none" id="curve_28" stroke="#000000" stroke-linecap="round" stroke-linejoin="round" stroke-width="3.943610985760119"/>
  <path d="M 57.527913721917265, 69.83513149324294 Q 57.715438758135804, 69.34381323918312, 57.986471479591714, 68.14573965155756 " fill="none" id="curve_35" stroke="#000000" stroke-linecap="round" stroke-linejoin="round" stroke-width="3.1473947315372213"/>
  <path d="M 57.939112043289704, 69.87597627623518 Q 57.589482339341394, 70.00634873118916, 56.21979015561668, 70.17155248299969 " fill="none" id="curve_40" stroke="#000000" stroke-linecap="round" stroke-linejoin="round" stroke-width="2.33551477925961"/>
  <path d="M 63.32847891535539, 41.59005523193423 Q 64.43020551100804, 38.151578126689245, 66.6483010924183, 35.12181512677166 " fill="none" id="curve_55" stroke="#000000" stroke-linecap="round" stroke-linejoin="round" stroke-width="2.7454690296658013"/>
  <path d="M 57.86685363719437, 68.12946743151042 Q 58.625695518949115, 68.05154068024432, 59.43524697958881, 67.82974880286595 " fill="none" id="curve_83" stroke="#000000" stroke-linecap="round" stroke-linejoin="round" stroke-width="2.1241809139386993"/>
  <path d="M 62.27293564090913, 42.47345072609531 Q 63.35098353458283, 38.43780340535266, 66.38525120217358, 36.083162328952554 " fill="none" id="curve_84" stroke="#000000" stroke-linecap="round" stroke-linejoin="round" stroke-width="2.948660013614729"/>
  <path d="M 57.627443660765735, 71.21894255540671 Q 55.82543745066151, 80.23768726929326, 52.10801064653651, 96.53393659114961 " fill="none" id="curve_90" stroke="#000000" stroke-linecap="round" stroke-linejoin="round" stroke-width="2.248276492591912"/>
  <path d="M 54.13684036730956, 89.5149605688548 Q 53.84047012777176, 87.68723364509562, 53.1204206083922, 85.59551312954802 " fill="none" id="curve_105" stroke="#000000" stroke-linecap="round" stroke-linejoin="round" stroke-width="3.471164907046462"/>
  <path d="M 53.10841351749544, 85.05562174258121 Q 53.339698851325196, 88.95865260856823, 53.96396787335733, 92.90655963835184 " fill="none" id="curve_111" stroke="#000000" stroke-linecap="round" stroke-linejoin="round" stroke-width="2.773331084747679"/>
  <path d="M 65.8515242251421, 36.206427361311526 Q 64.6367225919858, 38.266505816872574, 62.6840979912185, 40.51228934313784 " fill="none" id="curve_126" stroke="#000000" stroke-linecap="round" stroke-linejoin="round" stroke-width="5.041664240416195"/>
  <path d="M 55.98529528802328, 87.81512120305092 Q 54.112564701822585, 88.76571189382905, 51.52186222675803, 90.15971028004294 " fill="none" id="curve_154" stroke="#000000" stroke-linecap="round" stroke-linejoin="round" stroke-width="3.667351468511311"/>
  <path d="M 53.00265086059265, 85.3523436902256 Q 55.63244764318315, 79.96846483191678, 57.69804983922325, 66.29955108153594 " fill="none" id="curve_156" stroke="#000000" stroke-linecap="round" stroke-linejoin="round" stroke-width="2.826806246153726"/>
  <path d="M 55.938864629035926, 78.3596338095837 Q 57.03547551404626, 74.71099441169915, 58.06309273328979, 64.97175269290963 " fill="none" id="curve_172" stroke="#000000" stroke-linecap="round" stroke-linejoin="round" stroke-width="2.70855188968651"/>
</svg>
