<?xml version="1.0" ?>
<svg height="140" width="140" xmlns="http://www.w3.org/2000/svg">
  <path d="M 55.91893291473389, 68.44153308868408 Q 52.35660675745182, 73.02627004692283, 41.04105698354692, 82.98466283759944 " fill="none" id="curve_1" stroke="#000000" stroke-linecap="round" stroke-linejoin="round" stroke-width="7.530003624947929"/>
  <path d="M 41.04105698354692, 82.98466283759944 Q 35.87284194861265, 89.34721552243833, 17.65577141983019, 102.57575419483987 " fill="none" id="curve_1" stroke="#000000" stroke-linecap="round" stroke-linejoin="round" stroke-width="5.122640695582458"/>
  <path d="M 17.65577141983019, 102.57575419483987 Q 14.262098861014342, 103.20076291717551, 12.391170232498679, 104.7306546873229 " fill="none" id="curve_1" stroke="#000000" stroke-linecap="round" stroke-linejoin="round" stroke-width="4.544462758471664"/>
  <path d="M 51.68292972346186, 103.00534364895577 Q 53.55140576080935, 91.27622511890583, 59.16031201197692, 68.74123928285928 " fill="none" id="curve_2" stroke="#000000" stroke-linecap="round" stroke-linejoin="round" stroke-width="4.9633079305456205"/>
  <path d="M 59.16031201197692, 68.74123928285928 Q 58.766144795021106, 67.76314492217638, 57.71159299587776, 67.21357247507008 " fill="none" id="curve_2" stroke="#000000" stroke-linecap="round" stroke-linejoin="round" stroke-width="4.434135531492248"/>
  <path d="M 51.82047412681588, 103.88081946707999 Q 52.552500443635466, 95.91618478022869, 53.909401994767876, 85.90539885514929 " fill="none" id="curve_3" stroke="#000000" stroke-linecap="round" stroke-linejoin="round" stroke-width="3.5695465905650785"/>
  <path d="M 58.26576982591151, 78.74141644520668 Q 58.036963319264125, 73.4641907634891, 55.226042046953, 72.03833602239459 " fill="none" id="curve_5" stroke="#000000" stroke-linecap="round" stroke-linejoin="round" stroke-width="4.016836945806625"/>
  <path d="M 51.09618162207589, 101.9836873033841 Q 51.419408547503224, 101.71457862019318, 51.70143146567087, 101.18246897846825 " fill="none" id="curve_6" stroke="#000000" stroke-linecap="round" stroke-linejoin="round" stroke-width="5.857537816622993"/>
  <path d="M 52.988078117370605, 104.21340560913086 Q 52.991529635500754, 103.6870104859666, 52.996055409057774, 102.92042738461146 " fill="none" id="curve_20" stroke="#000000" stroke-linecap="round" stroke-linejoin="round" stroke-width="4.712919024619515"/>
  <path d="M 55.56352782654092, 75.64295600306411 Q 53.014930396563976, 75.25534765730377, 49.126627387589885, 74.69862995717382 " fill="none" id="curve_21" stroke="#000000" stroke-linecap="round" stroke-linejoin="round" stroke-width="4.001246925662008"/>
  <path d="M 50.85007784895408, 102.35471315737786 Q 51.23822733082946, 99.00974361129435, 52.13803751869463, 96.01291133151376 " fill="none" id="curve_22" stroke="#000000" stroke-linecap="round" stroke-linejoin="round" stroke-width="3.8389982590675693"/>
  <path d="M 59.16532123088837, 67.81707572937012 Q 59.13237555472237, 76.26150294307588, 58.82618292498518, 78.82931340114203 " fill="none" id="curve_36" stroke="#000000" stroke-linecap="round" stroke-linejoin="round" stroke-width="2.122345684571221"/>
  <path d="M 58.82618292498518, 78.82931340114203 Q 56.2244269759272, 81.52575948774346, 54.17452069292003, 88.00672148218496 " fill="none" id="curve_36" stroke="#000000" stroke-linecap="round" stroke-linejoin="round" stroke-width="2.1927831649387053"/>
  <path d="M 49.409316016168404, 101.89065901503227 Q 50.79448645074212, 98.99139503600165, 52.89548512993817, 95.88948744061156 " fill="none" id="curve_37" stroke="#000000" stroke-linecap="round" stroke-linejoin="round" stroke-width="3.500873898160971"/>
  <path d="M 19.994407235121045, 99.5806970662146 Q 17.40360216044564, 101.5548017655495, 13.52986349748141, 103.5471247986689 " fill="none" id="curve_55" stroke="#000000" stroke-linecap="round" stroke-linejoin="round" stroke-width="3.356248786978963"/>
  <path d="M 52.521186866673155, 97.42942783100028 Q 52.66350659017792, 96.62668983164986, 52.834370249134906, 95.37147116783036 " fill="none" id="curve_84" stroke="#000000" stroke-linecap="round" stroke-linejoin="round" stroke-width="4.104156661971568"/>
</svg>
