<?xml version="1.0" ?>
<svg height="140" width="140" xmlns="http://www.w3.org/2000/svg">
  <path d="M 43.87543487548828, 99.91933536529541 Q 42.37244822333459, 94.34801968024286, 37.82920789503862, 85.02194008946321 " fill="none" id="curve_1" stroke="#000000" stroke-linecap="round" stroke-linejoin="round" stroke-width="6.330605224204044"/>
  <path d="M 37.82920789503862, 85.02194008946321 Q 36.180403802522925, 78.24659822595527, 32.73937846683055, 65.66410695566078 " fill="none" id="curve_1" stroke="#000000" stroke-linecap="round" stroke-linejoin="round" stroke-width="6.399432976883298"/>
  <path d="M 32.73937846683055, 65.66410695566078 Q 31.48969688410155, 62.85213673213707, 30.960169136077248, 43.805355978024465 " fill="none" id="curve_1" stroke="#000000" stroke-linecap="round" stroke-linejoin="round" stroke-width="5.59418210150379"/>
  <path d="M 30.960169136077248, 43.805355978024465 Q 31.978232790072358, 43.07480849007658, 33.115645905865065, 42.291577459968615 " fill="none" id="curve_1" stroke="#000000" stroke-linecap="round" stroke-linejoin="round" stroke-width="3.8741413703353067"/>
  <path d="M 41.12226505796181, 91.01301690835406 Q 42.445579140525005, 96.89399880791895, 46.60360704982222, 99.79836410223595 " fill="none" id="curve_2" stroke="#000000" stroke-linecap="round" stroke-linejoin="round" stroke-width="4.070495502639456"/>
  <path d="M 40.61649061885919, 94.9107350470099 Q 41.08114979198059, 95.86762328217907, 42.04057347505981, 96.71546189543828 " fill="none" id="curve_17" stroke="#000000" stroke-linecap="round" stroke-linejoin="round" stroke-width="4.143114666337235"/>
  <path d="M 29.75293868794087, 62.22287249480728 Q 29.848692473507235, 57.07620341801778, 30.208767084358723, 54.67104246272913 " fill="none" id="curve_18" stroke="#000000" stroke-linecap="round" stroke-linejoin="round" stroke-width="3.470906303021077"/>
  <path d="M 32.96179731557129, 72.69571326047435 Q 35.15944620222856, 80.65815593222636, 41.08479531317948, 89.08161198508321 " fill="none" id="curve_33" stroke="#000000" stroke-linecap="round" stroke-linejoin="round" stroke-width="2.0997587080580664"/>
  <path d="M 43.987217860005416, 95.59041471197493 Q 40.42410952350578, 90.86528786662956, 34.642667312238345, 79.32870567311082 " fill="none" id="curve_49" stroke="#000000" stroke-linecap="round" stroke-linejoin="round" stroke-width="2.535325827550818"/>
  <path d="M 42.538696363965414, 92.2174034970924 Q 40.02438901506525, 82.42156606478588, 31.7288290992497, 72.78851369654973 " fill="none" id="curve_66" stroke="#000000" stroke-linecap="round" stroke-linejoin="round" stroke-width="2.4063225494382787"/>
  <path d="M 33.63676868190831, 65.22092899482188 Q 33.74832528679945, 61.51932729221579, 34.08476280901232, 59.05157406997908 " fill="none" id="curve_69" stroke="#000000" stroke-linecap="round" stroke-linejoin="round" stroke-width="3.282290725459545"/>
  <path d="M 32.28443120166183, 53.00017843921284 Q 32.56980380270074, 53.089925681059455, 32.751005909880654, 53.38377165544991 " fill="none" id="curve_73" stroke="#000000" stroke-linecap="round" stroke-linejoin="round" stroke-width="3.846223942150812"/>
</svg>
