<?xml version="1.0" ?>
<svg height="140" width="140" xmlns="http://www.w3.org/2000/svg">
  <path d="M 54.79091453552246, 34.38207817077637 Q 55.49007881266874, 32.793923149255455, 56.410522049869975, 30.22755735460109 " fill="none" id="curve_1" stroke="#000000" stroke-linecap="round" stroke-linejoin="round" stroke-width="6.27534674260281"/>
  <path d="M 56.410522049869975, 30.22755735460109 Q 53.489325958870396, 36.73987650241767, 47.75918366636412, 42.84508136658855 " fill="none" id="curve_1" stroke="#000000" stroke-linecap="round" stroke-linejoin="round" stroke-width="8.672582992637079"/>
  <path d="M 47.75918366636412, 42.84508136658855 Q 42.239797209699745, 51.895712511572846, 28.817611445091465, 60.43195034771111 " fill="none" id="curve_1" stroke="#000000" stroke-linecap="round" stroke-linejoin="round" stroke-width="5.629614587027829"/>
  <path d="M 28.817611445091465, 60.43195034771111 Q 21.543441538585483, 60.58840956974066, 18.654677680768593, 61.150317683456876 " fill="none" id="curve_1" stroke="#000000" stroke-linecap="round" stroke-linejoin="round" stroke-width="5.869303970048467"/>
  <path d="M 54.12854745928383, 41.81019035226808 Q 52.79346946077016, 45.811051204800286, 52.33383232688247, 83.6231017163164 " fill="none" id="curve_2" stroke="#000000" stroke-linecap="round" stroke-linejoin="round" stroke-width="5.151866146945617"/>
  <path d="M 52.33383232688247, 83.6231017163164 Q 56.66527848698106, 86.75284060546804, 57.36137832328524, 115.03572084180908 " fill="none" id="curve_2" stroke="#000000" stroke-linecap="round" stroke-linejoin="round" stroke-width="5.181025503690243"/>
  <path d="M 56.14644316306513, 90.00009294741605 Q 55.550908876097964, 82.60298530943956, 53.5577450040519, 78.72849415603939 " fill="none" id="curve_3" stroke="#000000" stroke-linecap="round" stroke-linejoin="round" stroke-width="4.73421169668489"/>
  <path d="M 56.06670404570693, 41.888484695309124 Q 56.016990302443524, 37.140238792523746, 55.89314758326103, 34.19363353189608 " fill="none" id="curve_4" stroke="#000000" stroke-linecap="round" stroke-linejoin="round" stroke-width="3.953389093860677"/>
  <path d="M 54.313970333203656, 89.43923682296663 Q 57.94784353803965, 90.15972053489811, 58.21202095060933, 107.99658938865801 " fill="none" id="curve_9" stroke="#000000" stroke-linecap="round" stroke-linejoin="round" stroke-width="3.383763608581618"/>
  <path d="M 58.21202095060933, 107.99658938865801 Q 58.35434703341727, 112.82894874234624, 58.96500342512273, 114.51992041700844 " fill="none" id="curve_9" stroke="#000000" stroke-linecap="round" stroke-linejoin="round" stroke-width="4.23087394798455"/>
  <path d="M 55.40502012095524, 89.90143250387905 Q 53.91338845775461, 87.1407843904761, 50.13373045458031, 85.43326481012458 " fill="none" id="curve_10" stroke="#000000" stroke-linecap="round" stroke-linejoin="round" stroke-width="4.542920784311834"/>
  <path d="M 50.72556057078739, 54.425119510850706 Q 52.73787724537314, 53.62148800448277, 54.03687685176827, 50.52557419798275 " fill="none" id="curve_11" stroke="#000000" stroke-linecap="round" stroke-linejoin="round" stroke-width="2.846209502680425"/>
  <path d="M 52.42335260201906, 78.76222326128868 Q 52.56618915706305, 56.39818870114371, 53.724380512267956, 45.61327888591659 " fill="none" id="curve_13" stroke="#000000" stroke-linecap="round" stroke-linejoin="round" stroke-width="2.3794779797156695"/>
  <path d="M 51.24950990483597, 84.85710911197133 Q 51.61829884902818, 57.611340362570914, 54.706924526738035, 45.32192018671766 " fill="none" id="curve_14" stroke="#000000" stroke-linecap="round" stroke-linejoin="round" stroke-width="3.184661720669676"/>
  <path d="M 19.09223980812476, 60.06292529434545 Q 19.231486594457056, 60.10723680159768, 19.442365578264138, 60.19662363283715 " fill="none" id="curve_16" stroke="#000000" stroke-linecap="round" stroke-linejoin="round" stroke-width="3.2926394794445177"/>
  <path d="M 28.679280523202404, 58.232294165624104 Q 26.547941667075637, 59.13530733737022, 21.37922478796728, 60.910032145663216 " fill="none" id="curve_19" stroke="#000000" stroke-linecap="round" stroke-linejoin="round" stroke-width="3.6251218080889833"/>
  <path d="M 52.415877888677386, 63.85364085802579 Q 52.57915782156861, 54.56421058505962, 53.237696171634106, 43.88883712522278 " fill="none" id="curve_20" stroke="#000000" stroke-linecap="round" stroke-linejoin="round" stroke-width="2.634879396002183"/>
  <path d="M 53.14701687579332, 71.17219729653745 Q 53.24580171949071, 53.65646617279076, 53.99083114672064, 44.15853282529157 " fill="none" id="curve_23" stroke="#000000" stroke-linecap="round" stroke-linejoin="round" stroke-width="2.2371819075927237"/>
  <path d="M 58.14478562947444, 30.03192066645582 Q 57.80476098495552, 29.260941167757355, 56.36732558858203, 28.465031861728306 " fill="none" id="curve_27" stroke="#000000" stroke-linecap="round" stroke-linejoin="round" stroke-width="2.88655893450415"/>
  <path d="M 59.37512646040828, 89.95463822985153 Q 57.81010418944281, 92.44191683330962, 56.027225938792405, 97.5122554813008 " fill="none" id="curve_30" stroke="#000000" stroke-linecap="round" stroke-linejoin="round" stroke-width="3.271276081891405"/>
  <path d="M 56.027225938792405, 97.5122554813008 Q 54.832047804803004, 98.3736187391598, 54.68245306690855, 109.06612211694457 " fill="none" id="curve_30" stroke="#000000" stroke-linecap="round" stroke-linejoin="round" stroke-width="3.144897793104485"/>
  <path d="M 50.67928212710008, 67.12654833978426 Q 50.844497356497556, 50.44165558935856, 55.29278060337979, 48.795078787117845 " fill="none" id="curve_32" stroke="#000000" stroke-linecap="round" stroke-linejoin="round" stroke-width="3.1627104691537613"/>
  <path d="M 19.269753308593106, 59.6183722188773 Q 19.174244978008225, 59.6884439052865, 19.04933654011386, 59.817776912365666 " fill="none" id="curve_36" stroke="#000000" stroke-linecap="round" stroke-linejoin="round" stroke-width="3.2225094357160358"/>
  <path d="M 32.49452590942383, 59.619028091430664 Q 33.52151968899425, 56.939673565583576, 37.89410640871438, 55.62137929043209 " fill="none" id="curve_63" stroke="#000000" stroke-linecap="round" stroke-linejoin="round" stroke-width="4.7098961393579"/>
  <path d="M 55.76204131252942, 88.66851534717307 Q 56.80245511417995, 88.47548231876578, 57.72211643098535, 88.09072236653917 " fill="none" id="curve_78" stroke="#000000" stroke-linecap="round" stroke-linejoin="round" stroke-width="3.8860404660090246"/>
  <path d="M 50.544637072416556, 53.6047842569304 Q 52.61331330599533, 50.00371998320572, 55.74524175648995, 43.71084468828285 " fill="none" id="curve_108" stroke="#000000" stroke-linecap="round" stroke-linejoin="round" stroke-width="2.4275588256455305"/>
  <path d="M 55.74524175648995, 43.71084468828285 Q 56.4265393590962, 40.5973643017209, 57.057778004142804, 34.90302263345617 " fill="none" id="curve_108" stroke="#000000" stroke-linecap="round" stroke-linejoin="round" stroke-width="2.8548089136028247"/>
  <path d="M 41.864792325586436, 46.008117750617004 Q 41.71208525102898, 46.36542129051027, 41.52777642761801, 47.25441365413973 " fill="none" id="curve_109" stroke="#000000" stroke-linecap="round" stroke-linejoin="round" stroke-width="3.1888382018661092"/>
  <path d="M 21.13365160420914, 59.81286076663575 Q 20.259867266341782, 59.33740906540983, 19.03225964800371, 58.80438582993479 " fill="none" id="curve_110" stroke="#000000" stroke-linecap="round" stroke-linejoin="round" stroke-width="3.895591999977063"/>
  <path d="M 35.517534314521924, 55.15563836930741 Q 32.98799821095572, 56.084662472296976, 30.68752982928084, 57.81846302563649 " fill="none" id="curve_111" stroke="#000000" stroke-linecap="round" stroke-linejoin="round" stroke-width="4.985641002120267"/>
  <path d="M 50.24838501387846, 52.00704176689582 Q 51.72831892764394, 50.712386690836695, 53.948655335917614, 48.74919035239539 " fill="none" id="curve_142" stroke="#000000" stroke-linecap="round" stroke-linejoin="round" stroke-width="2.5282370810523984"/>
  <path d="M 52.08064890384435, 64.56347939154512 Q 53.20320283220356, 69.7377562947085, 54.28226384455925, 76.96665216030117 " fill="none" id="curve_157" stroke="#000000" stroke-linecap="round" stroke-linejoin="round" stroke-width="2.4768544287425036"/>
  <path d="M 53.61530548096164, 91.34420413743742 Q 53.047255842169044, 89.50505525273265, 51.514239936281385, 88.22942294277424 " fill="none" id="curve_172" stroke="#000000" stroke-linecap="round" stroke-linejoin="round" stroke-width="2.3870257609919405"/>
</svg>
