<?xml version="1.0" ?>
<svg height="140" width="140" xmlns="http://www.w3.org/2000/svg">
  <path d="M 50.8330078125, 57.43748474121094 Q 48.08652511702455, 62.418309926679655, 33.48553581995657, 74.32891839620424 " fill="none" id="curve_1" stroke="#000000" stroke-linecap="round" stroke-linejoin="round" stroke-width="5.444724709176001"/>
  <path d="M 33.48553581995657, 74.32891839620424 Q 30.747218931765012, 76.09224132479399, 29.02866902376212, 79.57681819154767 " fill="none" id="curve_1" stroke="#000000" stroke-linecap="round" stroke-linejoin="round" stroke-width="4.75269421581146"/>
  <path d="M 52.2441625973038, 58.54530362071955 Q 56.985846085855584, 54.072463469664676, 62.20488092460986, 47.311612257359585 " fill="none" id="curve_2" stroke="#000000" stroke-linecap="round" stroke-linejoin="round" stroke-width="4.554155781343809"/>
  <path d="M 62.20488092460986, 47.311612257359585 Q 63.1035783764914, 56.92428544212304, 64.96461015224638, 76.79502142721232 " fill="none" id="curve_2" stroke="#000000" stroke-linecap="round" stroke-linejoin="round" stroke-width="5.758747594820365"/>
  <path d="M 64.96461015224638, 76.79502142721232 Q 65.82289557219686, 92.8509370552768, 68.16693293514332, 104.56362263063785 " fill="none" id="curve_2" stroke="#000000" stroke-linecap="round" stroke-linejoin="round" stroke-width="5.368089155106256"/>
  <path d="M 68.16693293514332, 104.56362263063785 Q 65.76637566520895, 96.83176564772705, 63.353249958246494, 81.36209683396882 " fill="none" id="curve_2" stroke="#000000" stroke-linecap="round" stroke-linejoin="round" stroke-width="2.8715090521884292"/>
  <path d="M 44.3713719331266, 63.528154579860114 Q 51.893866331220565, 59.08302111144466, 58.88949223216286, 48.99546129532014 " fill="none" id="curve_4" stroke="#000000" stroke-linecap="round" stroke-linejoin="round" stroke-width="2.2830146343562845"/>
  <path d="M 63.64456814655113, 66.40181497040874 Q 64.74360880382964, 68.40818440169832, 65.79355101595476, 72.31620202942277 " fill="none" id="curve_6" stroke="#000000" stroke-linecap="round" stroke-linejoin="round" stroke-width="3.9767725032978114"/>
  <path d="M 50.58974956770684, 59.707590306849184 Q 48.34920689404032, 60.50113019280079, 46.63381429240248, 62.54287446664596 " fill="none" id="curve_7" stroke="#000000" stroke-linecap="round" stroke-linejoin="round" stroke-width="4.339621730537135"/>
  <path d="M 60.721357334703306, 54.38732157650212 Q 62.343773732976004, 57.835240687320194, 63.70947073435234, 64.6910155769693 " fill="none" id="curve_23" stroke="#000000" stroke-linecap="round" stroke-linejoin="round" stroke-width="2.885949872322859"/>
  <path d="M 61.198937860716455, 46.53355112962082 Q 60.69852735506123, 47.33061834186229, 59.652334487377004, 48.48948922126883 " fill="none" id="curve_24" stroke="#000000" stroke-linecap="round" stroke-linejoin="round" stroke-width="2.603621368828834"/>
</svg>
