<?xml version="1.0" ?>
<svg height="140" width="140" xmlns="http://www.w3.org/2000/svg">
  <path d="M 53.94695472717285, 127.9765305519104 Q 54.74635116430689, 127.31631068766752, 54.913136376083806, 119.04214232217521 " fill="none" id="curve_1" stroke="#000000" stroke-linecap="round" stroke-linejoin="round" stroke-width="8.478868719196518"/>
  <path d="M 54.913136376083806, 119.04214232217521 Q 54.878958097308754, 115.66440014933877, 54.85753214381318, 94.39321775507743 " fill="none" id="curve_1" stroke="#000000" stroke-linecap="round" stroke-linejoin="round" stroke-width="7.695965488162894"/>
  <path d="M 54.85753214381318, 94.39321775507743 Q 54.87954909818693, 89.20828549100604, 54.89806226317515, 63.658458106532606 " fill="none" id="curve_1" stroke="#000000" stroke-linecap="round" stroke-linejoin="round" stroke-width="7.491182218620742"/>
  <path d="M 54.89806226317515, 63.658458106532606 Q 57.288560620132365, 57.45618821661832, 59.706987186388034, 43.30722896536796 " fill="none" id="curve_1" stroke="#000000" stroke-linecap="round" stroke-linejoin="round" stroke-width="5.824180659566534"/>
  <path d="M 51.35573728083744, 69.40993949767184 Q 44.83890250056555, 83.9438429199444, 19.572862478110906, 110.50115503778127 " fill="none" id="curve_2" stroke="#000000" stroke-linecap="round" stroke-linejoin="round" stroke-width="4.710614392769102"/>
  <path d="M 19.572862478110906, 110.50115503778127 Q 15.467012007615104, 111.2688152329579, 13.302384791509471, 113.3003837478872 " fill="none" id="curve_2" stroke="#000000" stroke-linecap="round" stroke-linejoin="round" stroke-width="6.245425595869264"/>
  <path d="M 55.51969052338989, 127.21977080043739 Q 56.240749535063735, 127.26159047384196, 56.63676512853092, 127.39046773319667 " fill="none" id="curve_3" stroke="#000000" stroke-linecap="round" stroke-linejoin="round" stroke-width="7.780849396118539"/>
  <path d="M 38.90849575887201, 85.44290662258612 Q 46.07868854178521, 77.5088471930253, 55.46640567436195, 61.406398679874314 " fill="none" id="curve_4" stroke="#000000" stroke-linecap="round" stroke-linejoin="round" stroke-width="3.7992791316562795"/>
  <path d="M 55.46640567436195, 61.406398679874314 Q 57.247342826476974, 50.97314997168639, 60.67792091205172, 40.87188368408762 " fill="none" id="curve_4" stroke="#000000" stroke-linecap="round" stroke-linejoin="round" stroke-width="4.441369317002628"/>
  <path d="M 60.67792091205172, 40.87188368408762 Q 59.763233621860266, 44.92914976766904, 58.77975091570291, 50.702423925359525 " fill="none" id="curve_4" stroke="#000000" stroke-linecap="round" stroke-linejoin="round" stroke-width="7.762612188432759"/>
  <path d="M 58.77975091570291, 50.702423925359525 Q 58.10895944131894, 48.95132793564539, 57.65087443668005, 44.519076375115375 " fill="none" id="curve_4" stroke="#000000" stroke-linecap="round" stroke-linejoin="round" stroke-width="6.397521928881005"/>
  <path d="M 19.089048331172226, 110.85507951853413 Q 18.481832881323722, 109.81217465426454, 17.091477451772167, 108.8058313655058 " fill="none" id="curve_6" stroke="#000000" stroke-linecap="round" stroke-linejoin="round" stroke-width="5.759584353531434"/>
  <path d="M 51.337044669508245, 68.39243330256275 Q 47.440162387041866, 72.8117274796056, 40.63559525374258, 83.80416512426768 " fill="none" id="curve_7" stroke="#000000" stroke-linecap="round" stroke-linejoin="round" stroke-width="3.179856978026844"/>
  <path d="M 14.199321746826172, 112.19350814819336 Q 13.326566435954453, 112.96723178582951, 11.382533837933918, 113.64617280741595 " fill="none" id="curve_21" stroke="#000000" stroke-linecap="round" stroke-linejoin="round" stroke-width="3.844792760661079"/>
  <path d="M 52.581248067320345, 129.34698848418725 Q 53.773254359005065, 128.27716415929453, 54.901490957429196, 126.23283779087674 " fill="none" id="curve_23" stroke="#000000" stroke-linecap="round" stroke-linejoin="round" stroke-width="4.4803373886545375"/>
  <path d="M 48.99720485904746, 69.09196432387729 Q 52.77175629803921, 66.49779603616956, 55.73071396968396, 59.808013153665456 " fill="none" id="curve_25" stroke="#000000" stroke-linecap="round" stroke-linejoin="round" stroke-width="2.3000017715982795"/>
  <path d="M 59.59318833548804, 45.99327387711758 Q 60.08063676595985, 44.310651379459934, 60.78126947352684, 42.68298329925429 " fill="none" id="curve_27" stroke="#000000" stroke-linecap="round" stroke-linejoin="round" stroke-width="4.983427412654804"/>
  <path d="M 36.61101125693267, 87.33591920582954 Q 36.18310742116042, 88.90326688540846, 35.50456088158604, 92.25123963813287 " fill="none" id="curve_42" stroke="#000000" stroke-linecap="round" stroke-linejoin="round" stroke-width="2.410082074923162"/>
  <path d="M 54.96067560304894, 56.62980720959002 Q 55.81629276245338, 47.55311229534145, 60.81866490009004, 43.878537297153166 " fill="none" id="curve_43" stroke="#000000" stroke-linecap="round" stroke-linejoin="round" stroke-width="4.151899742686245"/>
  <path d="M 59.395218939276646, 41.827225591547624 Q 59.103290525217965, 41.18502790078949, 58.32503066679277, 40.705618572713334 " fill="none" id="curve_49" stroke="#000000" stroke-linecap="round" stroke-linejoin="round" stroke-width="3.4719444609328822"/>
  <path d="M 57.975040665330326, 48.6784128676879 Q 59.68281179828339, 46.61326366355764, 62.704454523403946, 44.770738401460584 " fill="none" id="curve_58" stroke="#000000" stroke-linecap="round" stroke-linejoin="round" stroke-width="3.1900233101875135"/>
  <path d="M 50.69394920539496, 66.51597063796851 Q 51.3012062444999, 63.3288477199116, 54.48275071100521, 61.56137654767315 " fill="none" id="curve_73" stroke="#000000" stroke-linecap="round" stroke-linejoin="round" stroke-width="2.280343921626552"/>
  <path d="M 55.265815511126846, 47.853647278821335 Q 55.42841056827366, 47.772723926914, 55.59075686265084, 47.60056564838511 " fill="none" id="curve_76" stroke="#000000" stroke-linecap="round" stroke-linejoin="round" stroke-width="3.4081967975094107"/>
  <path d="M 52.87573562600352, 126.3311428866012 Q 53.654713065579024, 125.7046619592063, 54.748045862298135, 125.01671802547114 " fill="none" id="curve_80" stroke="#000000" stroke-linecap="round" stroke-linejoin="round" stroke-width="6.5836761257268"/>
  <path d="M 16.604944520512888, 112.0238056050557 Q 16.52836641446471, 113.36839049807507, 15.587789650707093, 113.6076993449238 " fill="none" id="curve_81" stroke="#000000" stroke-linecap="round" stroke-linejoin="round" stroke-width="3.917754111165188"/>
  <path d="M 37.241243234982264, 87.93284089924538 Q 34.884949198170666, 96.19561407333838, 26.968627955982043, 103.27510148516679 " fill="none" id="curve_86" stroke="#000000" stroke-linecap="round" stroke-linejoin="round" stroke-width="2.4417686952165476"/>
  <path d="M 56.77796935059125, 122.09606055350807 Q 56.58595290854384, 124.23115438051434, 55.350657677053654, 124.83051673918052 " fill="none" id="curve_119" stroke="#000000" stroke-linecap="round" stroke-linejoin="round" stroke-width="6.564955767614245"/>
  <path d="M 17.485213103318717, 107.72740905897065 Q 17.998666776717236, 106.76219711522783, 20.923523191650276, 106.4520645740212 " fill="none" id="curve_150" stroke="#000000" stroke-linecap="round" stroke-linejoin="round" stroke-width="2.7502460836398144"/>
  <path d="M 52.92814086589183, 124.43133730798887 Q 52.81309273752533, 124.73097168206836, 52.66207791971529, 125.11410632558861 " fill="none" id="curve_152" stroke="#000000" stroke-linecap="round" stroke-linejoin="round" stroke-width="3.868548785923107"/>
  <path d="M 28.472484803777924, 101.89741695674456 Q 32.69359487834881, 95.29069432588763, 40.050092078512336, 86.1390570430163 " fill="none" id="curve_171" stroke="#000000" stroke-linecap="round" stroke-linejoin="round" stroke-width="2.405359713233078"/>
</svg>
