<?xml version="1.0" ?>
<svg height="140" width="140" xmlns="http://www.w3.org/2000/svg">
  <path d="M 34.85349041223526, 91.506103515625 Q 33.88999097002254, 92.04392559144462, 32.473626243567765, 92.89822251829614 " fill="none" id="curve_1" stroke="#000000" stroke-linecap="round" stroke-linejoin="round" stroke-width="6.2615604650022485"/>
  <path d="M 32.473626243567765, 92.89822251829614 Q 37.198393371134635, 89.37264233933728, 42.78009582905268, 80.8137229077597 " fill="none" id="curve_1" stroke="#000000" stroke-linecap="round" stroke-linejoin="round" stroke-width="5.689490816686618"/>
  <path d="M 42.78009582905268, 80.8137229077597 Q 48.79067807308831, 74.97007479356456, 59.7452761274248, 60.62095545855008 " fill="none" id="curve_1" stroke="#000000" stroke-linecap="round" stroke-linejoin="round" stroke-width="6.056029070540466"/>
  <path d="M 59.7452761274248, 60.62095545855008 Q 68.39304333229691, 55.93799034671396, 74.17429641350365, 42.66835845127606 " fill="none" id="curve_1" stroke="#000000" stroke-linecap="round" stroke-linejoin="round" stroke-width="6.549530957012377"/>
  <path d="M 74.17429641350365, 42.66835845127606 Q 72.97656709259665, 51.58239157957259, 70.95141018018761, 73.63431539302164 " fill="none" id="curve_1" stroke="#000000" stroke-linecap="round" stroke-linejoin="round" stroke-width="5.780344678936408"/>
  <path d="M 70.95141018018761, 73.63431539302164 Q 70.68100366092833, 86.88981855965045, 69.95162282816344, 94.16826534520388 " fill="none" id="curve_1" stroke="#000000" stroke-linecap="round" stroke-linejoin="round" stroke-width="6.396324453617338"/>
  <path d="M 69.95162282816344, 94.16826534520388 Q 72.64475159799296, 88.58718277372176, 74.25107112256478, 72.26972993649973 " fill="none" id="curve_1" stroke="#000000" stroke-linecap="round" stroke-linejoin="round" stroke-width="3.4942809037059583"/>
  <path d="M 72.62177576074409, 40.35279317446818 Q 73.43826553703124, 39.1955436759718, 74.27200901412361, 37.9280914050534 " fill="none" id="curve_2" stroke="#000000" stroke-linecap="round" stroke-linejoin="round" stroke-width="6.370085718041816"/>
  <path d="M 1.3794559561469781, 119.88611509289319 Q 1.432109115713034, 135.2600953135987, 1.8252530884417517, 138.39181852337006 " fill="none" id="curve_5" stroke="#000000" stroke-linecap="round" stroke-linejoin="round" stroke-width="1.984021402389935"/>
  <path d="M 1.5472891236423776, 117.81454849952848 Q 1.368950892693239, 117.02380524365766, 1.3101618905777008, 109.29604972781532 " fill="none" id="curve_6" stroke="#000000" stroke-linecap="round" stroke-linejoin="round" stroke-width="1.1107170813742617"/>
  <path d="M 1.3101618905777008, 109.29604972781532 Q 1.1322465513133635, 108.50271885723225, 1.0880170948853305, 99.26693064860353 " fill="none" id="curve_6" stroke="#000000" stroke-linecap="round" stroke-linejoin="round" stroke-width="1.3548962424850297"/>
  <path d="M 1.0880170948853305, 99.26693064860353 Q 1.1148095459028342, 96.42582323283207, 1.1611691799739634, 93.27031181747685 " fill="none" id="curve_6" stroke="#000000" stroke-linecap="round" stroke-linejoin="round" stroke-width="1.2438892209125072"/>
  <path d="M 1.1611691799739634, 93.27031181747685 Q 1.160368217227924, 91.49532494614176, 1.1596867796327097, 86.95082737460804 " fill="none" id="curve_6" stroke="#000000" stroke-linecap="round" stroke-linejoin="round" stroke-width="1.2061665732883586"/>
  <path d="M 1.1596867796327097, 86.95082737460804 Q 0.9659014962200867, 85.5555720385447, 0.8723985872187368, 77.57796541114097 " fill="none" id="curve_6" stroke="#000000" stroke-linecap="round" stroke-linejoin="round" stroke-width="1.2549465401184396"/>
  <path d="M 0.8723985872187368, 77.57796541114097 Q 0.9304163354199579, 74.99937909021178, 1.00253586686294, 70.1558454844307 " fill="none" id="curve_6" stroke="#000000" stroke-linecap="round" stroke-linejoin="round" stroke-width="1.237229807978588"/>
  <path d="M 1.00253586686294, 70.1558454844307 Q 0.9239817659867262, 68.5737298231295, 0.8790282761073076, 61.149466629928156 " fill="none" id="curve_6" stroke="#000000" stroke-linecap="round" stroke-linejoin="round" stroke-width="1.3040682536708685"/>
  <path d="M 0.8790282761073076, 61.149466629928156 Q 0.9421656415260027, 58.68860508043614, 1.0211089074047157, 54.16418382241513 " fill="none" id="curve_6" stroke="#000000" stroke-linecap="round" stroke-linejoin="round" stroke-width="1.213182748081256"/>
  <path d="M 1.0211089074047157, 54.16418382241513 Q 0.9314672708792002, 52.67773947032103, 0.8815274559398786, 45.272156348398845 " fill="none" id="curve_6" stroke="#000000" stroke-linecap="round" stroke-linejoin="round" stroke-width="1.262396146293641"/>
  <path d="M 0.8815274559398786, 45.272156348398845 Q 0.9449729031190194, 42.785309980083994, 1.0398715210557397, 39.021836239088266 " fill="none" id="curve_6" stroke="#000000" stroke-linecap="round" stroke-linejoin="round" stroke-width="1.2015776095431658"/>
  <path d="M 1.0398715210557397, 39.021836239088266 Q 0.963560042026135, 37.525114355237, 0.916422995221909, 31.03167729081455 " fill="none" id="curve_6" stroke="#000000" stroke-linecap="round" stroke-linejoin="round" stroke-width="1.2337420321778507"/>
  <path d="M 0.916422995221909, 31.03167729081455 Q 0.8776890676723518, 29.288098263892795, 0.8520277417876947, 22.159641441714097 " fill="none" id="curve_6" stroke="#000000" stroke-linecap="round" stroke-linejoin="round" stroke-width="1.2054838662867093"/>
  <path d="M 0.8520277417876947, 22.159641441714097 Q 0.8059401475204895, 20.57823758551927, 0.7781552359599578, 13.605537540873481 " fill="none" id="curve_6" stroke="#000000" stroke-linecap="round" stroke-linejoin="round" stroke-width="1.1583831997835237"/>
  <path d="M 0.7781552359599578, 13.605537540873481 Q 0.8624204431736323, 4.733659970649546, 1.3744352889217972, 0.6105352210650175 " fill="none" id="curve_6" stroke="#000000" stroke-linecap="round" stroke-linejoin="round" stroke-width="1.1400070093109675"/>
  <path d="M 1.3744352889217972, 0.6105352210650175 Q 1.275986283716129, 1.2124777214918656, 1.0546374747414722, 1.8047150113282089 " fill="none" id="curve_6" stroke="#000000" stroke-linecap="round" stroke-linejoin="round" stroke-width="1.2879007196302408"/>
  <path d="M 71.21688803857108, 40.37300738272824 Q 71.23814170175125, 45.083908428546735, 71.59251465338981, 46.49306336131765 " fill="none" id="curve_10" stroke="#000000" stroke-linecap="round" stroke-linejoin="round" stroke-width="2.345216891642651"/>
  <path d="M 53.414837532974865, 64.9675083044306 Q 49.7344015278901, 74.91928734681721, 37.5969558617301, 90.57600290324189 " fill="none" id="curve_12" stroke="#000000" stroke-linecap="round" stroke-linejoin="round" stroke-width="2.78686602349116"/>
  <path d="M 68.85246503127296, 53.195915814454814 Q 62.34483941824756, 53.875899072139305, 59.583054059403814, 57.659498259658164 " fill="none" id="curve_23" stroke="#000000" stroke-linecap="round" stroke-linejoin="round" stroke-width="2.281313079346083"/>
  <path d="M 74.57080409239707, 70.85752049316599 Q 73.38602624082996, 68.89201312160375, 70.49216964402447, 67.02116645849522 " fill="none" id="curve_24" stroke="#000000" stroke-linecap="round" stroke-linejoin="round" stroke-width="2.596619211757762"/>
  <path d="M 70.49216964402447, 67.02116645849522 Q 72.29052819718956, 64.60438341313657, 73.83434521843654, 60.36213193534456 " fill="none" id="curve_24" stroke="#000000" stroke-linecap="round" stroke-linejoin="round" stroke-width="2.9830051975074223"/>
  <path d="M 68.7611137365145, 91.84374105651631 Q 68.19560867608944, 92.84634987294389, 67.29650727687044, 93.92546892770596 " fill="none" id="curve_25" stroke="#000000" stroke-linecap="round" stroke-linejoin="round" stroke-width="3.643464816681763"/>
  <path d="M 40.75636344467082, 86.86209678017326 Q 45.95684657630942, 78.72355804305505, 55.4573415489421, 66.32587958785106 " fill="none" id="curve_27" stroke="#000000" stroke-linecap="round" stroke-linejoin="round" stroke-width="3.224207437556773"/>
  <path d="M 43.262465684643956, 83.3345994499507 Q 48.02221915707982, 76.77876094861442, 54.79017934810899, 65.96715391324828 " fill="none" id="curve_28" stroke="#000000" stroke-linecap="round" stroke-linejoin="round" stroke-width="2.8173456691898107"/>
  <path d="M 73.38715369049416, 37.059238370532746 Q 72.92975162622137, 37.46566987744733, 72.35633425429438, 38.21487240991577 " fill="none" id="curve_31" stroke="#000000" stroke-linecap="round" stroke-linejoin="round" stroke-width="3.71225195523849"/>
  <path d="M 2.0321263017141966, 139.26488824271786 Q 2.007897985498637, 138.8398602228033, 1.9704807663168291, 138.21628212524567 " fill="none" id="curve_38" stroke="#000000" stroke-linecap="round" stroke-linejoin="round" stroke-width="2.274741884710995"/>
  <path d="M 35.18300735952266, 96.47301934990867 Q 37.76445659763245, 90.08195872743181, 44.79690272094076, 81.0745781142087 " fill="none" id="curve_39" stroke="#000000" stroke-linecap="round" stroke-linejoin="round" stroke-width="2.163537609228936"/>
  <path d="M 44.79690272094076, 81.0745781142087 Q 48.408544216417184, 77.83302339725068, 51.67881962703466, 69.3069118703362 " fill="none" id="curve_39" stroke="#000000" stroke-linecap="round" stroke-linejoin="round" stroke-width="3.0832381332288956"/>
  <path d="M 69.82247727952245, 63.189258808082286 Q 71.44634764149245, 63.27887587159024, 73.08053112487455, 63.44460337051896 " fill="none" id="curve_54" stroke="#000000" stroke-linecap="round" stroke-linejoin="round" stroke-width="4.07903513424046"/>
  <path d="M 71.84060574532839, 74.76283358633299 Q 72.38323999304275, 63.509182679191476, 74.90571044348074, 55.04366645522566 " fill="none" id="curve_95" stroke="#000000" stroke-linecap="round" stroke-linejoin="round" stroke-width="2.541118633013507"/>
  <path d="M 67.06186684237434, 91.21620402195077 Q 67.42600725071026, 90.39059056294901, 68.045503936762, 89.46574884731974 " fill="none" id="curve_136" stroke="#000000" stroke-linecap="round" stroke-linejoin="round" stroke-width="2.6330382284714635"/>
  <path d="M 68.65530589535669, 65.60751944484109 Q 69.54927180263259, 63.774325977922885, 74.52894825260299, 63.2256311302197 " fill="none" id="curve_137" stroke="#000000" stroke-linecap="round" stroke-linejoin="round" stroke-width="3.0982708994981096"/>
  <path d="M 58.795958056790326, 64.4879963933488 Q 53.81753316972642, 65.36120498454237, 49.57430687176412, 69.88026050425944 " fill="none" id="curve_152" stroke="#000000" stroke-linecap="round" stroke-linejoin="round" stroke-width="2.3300599894707785"/>
  <path d="M 53.163073637565944, 69.71362131366152 Q 49.6468384721044, 75.02144224317841, 43.437496599363215, 79.86710380612918 " fill="none" id="curve_170" stroke="#000000" stroke-linecap="round" stroke-linejoin="round" stroke-width="3.9498931122627945"/>
  <path d="M 53.654126543086235, 69.42660407149954 Q 48.85262391639093, 74.05929148153093, 43.58987282828005, 80.70951688782452 " fill="none" id="curve_171" stroke="#000000" stroke-linecap="round" stroke-linejoin="round" stroke-width="3.782459181179019"/>
</svg>
