<?xml version="1.0" ?>
<svg height="140" width="140" xmlns="http://www.w3.org/2000/svg">
  <path d="M 47.222293853759766, 112.281005859375 Q 43.063107846255576, 110.34304863364402, 40.08552966003708, 96.9099513533165 " fill="none" id="curve_1" stroke="#000000" stroke-linecap="round" stroke-linejoin="round" stroke-width="6.295564224420691"/>
  <path d="M 40.08552966003708, 96.9099513533165 Q 40.22962651436604, 88.73081894788639, 40.63892543954062, 81.07850266183334 " fill="none" id="curve_1" stroke="#000000" stroke-linecap="round" stroke-linejoin="round" stroke-width="6.899559420689378"/>
  <path d="M 40.63892543954062, 81.07850266183334 Q 42.956322147291495, 71.61245939999625, 50.888497955868445, 55.09771703751081 " fill="none" id="curve_1" stroke="#000000" stroke-linecap="round" stroke-linejoin="round" stroke-width="5.124279589351049"/>
  <path d="M 50.888497955868445, 55.09771703751081 Q 52.203013997988464, 46.097733603100735, 55.28820604554601, 38.124473987538394 " fill="none" id="curve_1" stroke="#000000" stroke-linecap="round" stroke-linejoin="round" stroke-width="5.225078556601068"/>
  <path d="M 55.28820604554601, 38.124473987538394 Q 49.38645082061425, 45.44812515599041, 32.45669005471256, 69.53014250381594 " fill="none" id="curve_1" stroke="#000000" stroke-linecap="round" stroke-linejoin="round" stroke-width="4.447955402545366"/>
  <path d="M 32.45669005471256, 69.53014250381594 Q 28.335575828395704, 76.4239033639782, 20.46295095210369, 81.45480034770945 " fill="none" id="curve_1" stroke="#000000" stroke-linecap="round" stroke-linejoin="round" stroke-width="4.280466239760527"/>
  <path d="M 38.363187033347735, 103.26047063471928 Q 43.48416437376492, 107.41591299051882, 48.19152385397086, 113.56280456909408 " fill="none" id="curve_2" stroke="#000000" stroke-linecap="round" stroke-linejoin="round" stroke-width="3.445029883484126"/>
  <path d="M 18.978318956278343, 82.12549375155963 Q 19.032230436487815, 81.69765162165201, 19.098030591019135, 81.05104968022776 " fill="none" id="curve_3" stroke="#000000" stroke-linecap="round" stroke-linejoin="round" stroke-width="3.974101438392002"/>
  <path d="M 19.098030591019135, 81.05104968022776 Q 30.041078947940164, 76.68917377140411, 38.24422037054583, 58.74927850517431 " fill="none" id="curve_3" stroke="#000000" stroke-linecap="round" stroke-linejoin="round" stroke-width="2.4624393446195514"/>
  <path d="M 38.24422037054583, 58.74927850517431 Q 40.67407823981164, 52.82300002130771, 49.94072212115767, 50.23726141649735 " fill="none" id="curve_3" stroke="#000000" stroke-linecap="round" stroke-linejoin="round" stroke-width="4.3040663127203915"/>
  <path d="M 31.73023143906918, 70.49837863910928 Q 25.907339092833297, 72.17518014229896, 23.897287342165953, 79.60496319437857 " fill="none" id="curve_5" stroke="#000000" stroke-linecap="round" stroke-linejoin="round" stroke-width="3.405211416522057"/>
  <path d="M 49.64839438237409, 44.15087447065353 Q 50.9678654429279, 40.94867760285764, 53.96189369038032, 38.46516940926259 " fill="none" id="curve_8" stroke="#000000" stroke-linecap="round" stroke-linejoin="round" stroke-width="2.914867067497185"/>
  <path d="M 44.72757784016915, 64.644354104108 Q 43.80499807119347, 65.8544135983363, 42.827444366920844, 69.65284561507062 " fill="none" id="curve_49" stroke="#000000" stroke-linecap="round" stroke-linejoin="round" stroke-width="2.3257069734331046"/>
  <path d="M 45.23006771433222, 105.0611957624186 Q 44.96479604956136, 107.5399784544144, 44.089820494438605, 108.79648820463964 " fill="none" id="curve_64" stroke="#000000" stroke-linecap="round" stroke-linejoin="round" stroke-width="4.448192316611152"/>
  <path d="M 28.693654244589943, 74.4229903205215 Q 27.16110372138891, 78.80512156771397, 22.670848202874602, 81.1740770628016 " fill="none" id="curve_65" stroke="#000000" stroke-linecap="round" stroke-linejoin="round" stroke-width="3.2298374508605017"/>
  <path d="M 32.16065456293185, 68.64300719008432 Q 31.42985701978309, 69.3226431886552, 30.178559863438338, 70.8651007819992 " fill="none" id="curve_88" stroke="#000000" stroke-linecap="round" stroke-linejoin="round" stroke-width="2.4639755503391956"/>
  <path d="M 49.00458063975748, 54.72874562652578 Q 48.16238996457972, 51.3112729140224, 44.37834859298015, 49.2089549176697 " fill="none" id="curve_142" stroke="#000000" stroke-linecap="round" stroke-linejoin="round" stroke-width="3.271143303359952"/>
</svg>
