<?xml version="1.0" ?>
<svg height="140" width="140" xmlns="http://www.w3.org/2000/svg">
  <path d="M 57.69433966749884, 68.31349104807123 Q 54.954778625409084, 72.69294459030418, 48.37803418998816, 77.67150465135002 " fill="none" id="curve_2" stroke="#000000" stroke-linecap="round" stroke-linejoin="round" stroke-width="7.917973479537072"/>
  <path d="M 48.37803418998816, 77.67150465135002 Q 41.77538332447078, 81.93757080557191, 23.675132126028117, 92.63202149172797 " fill="none" id="curve_2" stroke="#000000" stroke-linecap="round" stroke-linejoin="round" stroke-width="3.18290276901039"/>
  <path d="M 23.675132126028117, 92.63202149172797 Q 17.634039668133546, 95.1519495419205, 13.521489836827458, 100.28571027223018 " fill="none" id="curve_2" stroke="#000000" stroke-linecap="round" stroke-linejoin="round" stroke-width="3.0350840669051555"/>
  <path d="M 27.6823726227128, 121.40752952902169 Q 32.06568099635507, 110.76592770355256, 46.636230115564345, 90.45765022418048 " fill="none" id="curve_3" stroke="#000000" stroke-linecap="round" stroke-linejoin="round" stroke-width="4.392060396741066"/>
  <path d="M 46.636230115564345, 90.45765022418048 Q 50.47347767078803, 83.18167245829044, 56.678807830285145, 73.27683068508411 " fill="none" id="curve_3" stroke="#000000" stroke-linecap="round" stroke-linejoin="round" stroke-width="3.9414310350694617"/>
  <path d="M 56.678807830285145, 73.27683068508411 Q 51.48775533217034, 79.53667118016575, 44.90210411970155, 90.46721687229257 " fill="none" id="curve_3" stroke="#000000" stroke-linecap="round" stroke-linejoin="round" stroke-width="3.4042380608068834"/>
  <path d="M 31.030047254798998, 110.86784017643447 Q 38.34488979545949, 105.86299991646688, 45.36699640339775, 93.67744645374688 " fill="none" id="curve_10" stroke="#000000" stroke-linecap="round" stroke-linejoin="round" stroke-width="2.4158135704223653"/>
  <path d="M 42.62007108338173, 92.74212742736596 Q 42.58960240875675, 93.35349222800838, 42.560435435910996, 95.08796671624857 " fill="none" id="curve_25" stroke="#000000" stroke-linecap="round" stroke-linejoin="round" stroke-width="2.89323267184457"/>
  <path d="M 29.434071000259557, 89.92421315491045 Q 27.353745625116066, 90.98259247678746, 22.878641901652138, 91.99984325443602 " fill="none" id="curve_28" stroke="#000000" stroke-linecap="round" stroke-linejoin="round" stroke-width="2.8163301261681224"/>
  <path d="M 34.71697225847698, 105.56559615915958 Q 35.366886720948536, 105.58284676780234, 36.038045487171615, 105.62999583249217 " fill="none" id="curve_33" stroke="#000000" stroke-linecap="round" stroke-linejoin="round" stroke-width="3.163548262750404"/>
</svg>
