<?xml version="1.0" ?>
<svg height="140" width="140" xmlns="http://www.w3.org/2000/svg">
  <path d="M 57.913554191589355, 89.75671863555908 Q 57.76465314078226, 87.60649925487238, 57.46580513945783, 85.11146692167307 " fill="none" id="curve_1" stroke="#000000" stroke-linecap="round" stroke-linejoin="round" stroke-width="8.385209688019147"/>
  <path d="M 57.46580513945783, 85.11146692167307 Q 57.80911385006197, 76.12934388270946, 58.878950267974275, 67.8796356282197 " fill="none" id="curve_1" stroke="#000000" stroke-linecap="round" stroke-linejoin="round" stroke-width="7.0735756152713485"/>
  <path d="M 58.878950267974275, 67.8796356282197 Q 60.23668534993904, 63.507526730127466, 61.214787513259125, 42.82782890015217 " fill="none" id="curve_1" stroke="#000000" stroke-linecap="round" stroke-linejoin="round" stroke-width="5.036126784586577"/>
  <path d="M 61.214787513259125, 42.82782890015217 Q 54.420666436389254, 48.48744689334599, 35.279103413623204, 72.1973122085487 " fill="none" id="curve_1" stroke="#000000" stroke-linecap="round" stroke-linejoin="round" stroke-width="4.318381344452347"/>
  <path d="M 35.279103413623204, 72.1973122085487 Q 34.70791190946769, 74.14173400395329, 33.004625761235104, 75.0966173825258 " fill="none" id="curve_1" stroke="#000000" stroke-linecap="round" stroke-linejoin="round" stroke-width="4.58039224379901"/>
  <path d="M 61.60744593829993, 89.6039958993362 Q 60.92444104771028, 88.34938840565503, 59.418600383545055, 87.26348471676948 " fill="none" id="curve_2" stroke="#000000" stroke-linecap="round" stroke-linejoin="round" stroke-width="3.7358260386621103"/>
  <path d="M 58.222109178165354, 44.73917936817537 Q 58.79262914842762, 43.760503397767685, 59.581757627698586, 41.974297764912215 " fill="none" id="curve_3" stroke="#000000" stroke-linecap="round" stroke-linejoin="round" stroke-width="3.938812461962245"/>
  <path d="M 50.55839517047891, 52.53774199192373 Q 54.95657615821372, 49.450622328937314, 59.1074269600605, 43.07048797393793 " fill="none" id="curve_7" stroke="#000000" stroke-linecap="round" stroke-linejoin="round" stroke-width="3.1621969075685437"/>
  <path d="M 50.59324921137143, 53.53335328160796 Q 45.7205793481492, 60.79197494423313, 34.43695901298862, 70.00359209924865 " fill="none" id="curve_8" stroke="#000000" stroke-linecap="round" stroke-linejoin="round" stroke-width="2.581965845141542"/>
  <path d="M 55.91273087756582, 45.0729857603308 Q 57.23174958277765, 44.56031617218808, 58.9923106898348, 43.353773976434866 " fill="none" id="curve_9" stroke="#000000" stroke-linecap="round" stroke-linejoin="round" stroke-width="3.3569336794253153"/>
  <path d="M 57.25858939440775, 63.2324487496287 Q 57.801247961280815, 61.53200258416091, 58.76843607484123, 59.47462065394954 " fill="none" id="curve_50" stroke="#000000" stroke-linecap="round" stroke-linejoin="round" stroke-width="3.218882437738321"/>
  <path d="M 44.90088569316258, 63.135014454036856 Q 41.53169437522304, 63.41045607661818, 39.372099659131436, 64.31414570356837 " fill="none" id="curve_54" stroke="#000000" stroke-linecap="round" stroke-linejoin="round" stroke-width="3.070789334470086"/>
  <path d="M 60.020592094325416, 42.876011260247246 Q 55.774823240974236, 45.72544758061304, 50.43503709029275, 51.965414758272566 " fill="none" id="curve_57" stroke="#000000" stroke-linecap="round" stroke-linejoin="round" stroke-width="2.740492439608884"/>
  <path d="M 58.119189473706456, 55.35609934468562 Q 59.57056325830659, 54.79471615881053, 60.83901724122194, 52.802444404776715 " fill="none" id="curve_72" stroke="#000000" stroke-linecap="round" stroke-linejoin="round" stroke-width="3.036845866703014"/>
  <path d="M 61.23144715253545, 87.3684015669512 Q 61.14487252886842, 87.05587227526264, 60.992515146988126, 86.71397196678885 " fill="none" id="curve_87" stroke="#000000" stroke-linecap="round" stroke-linejoin="round" stroke-width="2.9790565811042304"/>
  <path d="M 60.143634341164656, 40.91327588251362 Q 59.703423671719065, 41.64939691889844, 58.66287006953298, 42.58783893960943 " fill="none" id="curve_116" stroke="#000000" stroke-linecap="round" stroke-linejoin="round" stroke-width="2.626254099195604"/>
</svg>
