<?xml version="1.0" ?>
<svg height="140" width="140" xmlns="http://www.w3.org/2000/svg">
  <path d="M 47.19386672973633, 102.6231460571289 Q 46.01815494763357, 101.49130346413452, 44.97138392500385, 97.2304533026763 " fill="none" id="curve_1" stroke="#000000" stroke-linecap="round" stroke-linejoin="round" stroke-width="9.326743810471594"/>
  <path d="M 44.97138392500385, 97.2304533026763 Q 44.39537811988233, 95.80191109268827, 44.214567498807114, 80.27592068169352 " fill="none" id="curve_1" stroke="#000000" stroke-linecap="round" stroke-linejoin="round" stroke-width="8.048241427135475"/>
  <path d="M 44.214567498807114, 80.27592068169352 Q 43.76965454612742, 69.57370646442016, 42.708668559637196, 54.37407628972507 " fill="none" id="curve_1" stroke="#000000" stroke-linecap="round" stroke-linejoin="round" stroke-width="7.842177999402919"/>
  <path d="M 42.708668559637196, 54.37407628972507 Q 42.21167556539465, 51.94198155712383, 41.32877679502557, 50.32860758216503 " fill="none" id="curve_1" stroke="#000000" stroke-linecap="round" stroke-linejoin="round" stroke-width="8.374409055042427"/>
  <path d="M 45.4166983606811, 102.88988539939228 Q 45.37905953477005, 104.1200070921488, 45.23124927773018, 104.69603706959211 " fill="none" id="curve_2" stroke="#000000" stroke-linecap="round" stroke-linejoin="round" stroke-width="5.1352025928238545"/>
  <path d="M 45.23124927773018, 104.69603706959211 Q 45.297520113244346, 104.08321789977055, 45.38157643800977, 102.91781813698583 " fill="none" id="curve_2" stroke="#000000" stroke-linecap="round" stroke-linejoin="round" stroke-width="3.571566524173109"/>
  <path d="M 40.15836139076942, 48.9402047706712 Q 40.75640987936624, 48.57919507519823, 41.38910990785689, 47.81189466121288 " fill="none" id="curve_3" stroke="#000000" stroke-linecap="round" stroke-linejoin="round" stroke-width="3.3413719288067623"/>
  <path d="M 42.72416543579942, 101.89246457732511 Q 43.07260709699679, 103.26653988225914, 44.263197924711775, 104.06657070039549 " fill="none" id="curve_5" stroke="#000000" stroke-linecap="round" stroke-linejoin="round" stroke-width="3.557783247528667"/>
  <path d="M 45.07773130379333, 66.10218221447039 Q 45.408716556657104, 63.91178069770554, 46.224882680395, 62.264258279043176 " fill="none" id="curve_6" stroke="#000000" stroke-linecap="round" stroke-linejoin="round" stroke-width="2.8001493059030373"/>
  <path d="M 40.49196458910036, 47.599472321993815 Q 40.179065879232006, 47.71469690671932, 39.831025244001125, 47.92719180376702 " fill="none" id="curve_7" stroke="#000000" stroke-linecap="round" stroke-linejoin="round" stroke-width="3.2977932229728344"/>
</svg>
