<?xml version="1.0" ?>
<svg height="140" width="140" xmlns="http://www.w3.org/2000/svg">
  <path d="M 61.5270881652832, 87.92951107025146 Q 61.93824919956418, 87.16305527871924, 63.113282771688716, 86.4509494335573 " fill="none" id="curve_1" stroke="#000000" stroke-linecap="round" stroke-linejoin="round" stroke-width="6.167210224550289"/>
  <path d="M 63.113282771688716, 86.4509494335573 Q 60.499984369763425, 94.71423525848905, 55.61134362809609, 103.84972498065935 " fill="none" id="curve_1" stroke="#000000" stroke-linecap="round" stroke-linejoin="round" stroke-width="5.027052798562217"/>
  <path d="M 55.61134362809609, 103.84972498065935 Q 49.9016873330849, 110.39704064761617, 40.24261064955682, 117.76849325478581 " fill="none" id="curve_1" stroke="#000000" stroke-linecap="round" stroke-linejoin="round" stroke-width="4.444947089011011"/>
  <path d="M 60.872185519479544, 110.39834196290069 Q 59.33255168955567, 108.85205441586547, 58.821618492620296, 100.18170543998487 " fill="none" id="curve_2" stroke="#000000" stroke-linecap="round" stroke-linejoin="round" stroke-width="4.525246536333149"/>
  <path d="M 38.60560383294672, 118.06176757398825 Q 38.756096086934846, 117.85317667100665, 38.944599404578334, 117.5579419736924 " fill="none" id="curve_3" stroke="#000000" stroke-linecap="round" stroke-linejoin="round" stroke-width="3.2260869214992662"/>
  <path d="M 55.00346751997631, 102.82596038399043 Q 50.45761301283559, 104.92463899922603, 46.46940025377665, 111.96251461378773 " fill="none" id="curve_18" stroke="#000000" stroke-linecap="round" stroke-linejoin="round" stroke-width="2.212143103955468"/>
  <path d="M 46.46940025377665, 111.96251461378773 Q 45.505505983201296, 112.1499676228699, 44.7082007535543, 112.5297535847408 " fill="none" id="curve_18" stroke="#000000" stroke-linecap="round" stroke-linejoin="round" stroke-width="4.473384888082293"/>
  <path d="M 59.86351651888708, 108.1735851474582 Q 59.6786169159858, 108.24355780787297, 59.33022677518638, 108.32571761161938 " fill="none" id="curve_33" stroke="#000000" stroke-linecap="round" stroke-linejoin="round" stroke-width="3.4585489833525416"/>
  <path d="M 60.10915064975808, 88.7678184341069 Q 60.247382652991014, 92.32571282217981, 60.345776788465365, 100.7001791033825 " fill="none" id="curve_48" stroke="#000000" stroke-linecap="round" stroke-linejoin="round" stroke-width="2.4200003172198308"/>
  <path d="M 59.150406082343125, 108.45617322979554 Q 58.281110151997375, 107.73383892125328, 57.696394371647955, 106.02653739400358 " fill="none" id="curve_49" stroke="#000000" stroke-linecap="round" stroke-linejoin="round" stroke-width="3.612647361348294"/>
  <path d="M 61.69428300636688, 89.44503718212928 Q 60.665919936052596, 89.8369250616939, 59.444202362553234, 90.5420946293731 " fill="none" id="curve_50" stroke="#000000" stroke-linecap="round" stroke-linejoin="round" stroke-width="3.3203508330678932"/>
  <path d="M 61.57791643373777, 107.31273040194537 Q 61.37313548517274, 108.29436996364016, 60.912929137365055, 109.08513927742112 " fill="none" id="curve_104" stroke="#000000" stroke-linecap="round" stroke-linejoin="round" stroke-width="2.479481718737684"/>
</svg>
