<?xml version="1.0" ?>
<svg height="140" width="140" xmlns="http://www.w3.org/2000/svg">
  <path d="M 49.24080467224121, 52.42681074142456 Q 44.26472382304816, 56.34025999235853, 32.68057096963821, 71.03455360755765 " fill="none" id="curve_1" stroke="#000000" stroke-linecap="round" stroke-linejoin="round" stroke-width="4.695230140933096"/>
  <path d="M 32.68057096963821, 71.03455360755765 Q 26.789357985040795, 76.71134752080928, 20.792245526468896, 87.38783469235074 " fill="none" id="curve_1" stroke="#000000" stroke-linecap="round" stroke-linejoin="round" stroke-width="3.6047588801012034"/>
  <path d="M 53.7194075365278, 81.46373200995644 Q 57.55667477748197, 79.45423613760485, 58.98043239135933, 58.85016188663464 " fill="none" id="curve_2" stroke="#000000" stroke-linecap="round" stroke-linejoin="round" stroke-width="5.80481766261994"/>
  <path d="M 58.98043239135933, 58.85016188663464 Q 62.0827584572548, 51.93917184471744, 64.76175144692574, 29.50436878405282 " fill="none" id="curve_2" stroke="#000000" stroke-linecap="round" stroke-linejoin="round" stroke-width="3.770862614424679"/>
  <path d="M 64.76175144692574, 29.50436878405282 Q 59.47478362233102, 40.93258538197936, 45.82842455025184, 53.9668729396135 " fill="none" id="curve_2" stroke="#000000" stroke-linecap="round" stroke-linejoin="round" stroke-width="3.399084887728811"/>
  <path d="M 56.57847541111201, 78.68205392014517 Q 56.78966665739274, 81.22424513701606, 56.87123510211489, 112.9446310477386 " fill="none" id="curve_3" stroke="#000000" stroke-linecap="round" stroke-linejoin="round" stroke-width="5.575340824846024"/>
  <path d="M 56.87123510211489, 112.9446310477386 Q 55.92898700002468, 116.70618294677918, 55.29461106861331, 123.52307070606412 " fill="none" id="curve_3" stroke="#000000" stroke-linecap="round" stroke-linejoin="round" stroke-width="4.9484422476533325"/>
  <path d="M 54.90862393690091, 106.79020682289327 Q 55.43368565872319, 104.75350944769201, 56.08566740200873, 102.16582380581539 " fill="none" id="curve_4" stroke="#000000" stroke-linecap="round" stroke-linejoin="round" stroke-width="3.8707550522945495"/>
  <path d="M 57.4202096266082, 77.08454911712172 Q 57.50337339853539, 72.70414220310211, 57.655381828229714, 69.86968628011333 " fill="none" id="curve_5" stroke="#000000" stroke-linecap="round" stroke-linejoin="round" stroke-width="5.893335780692754"/>
  <path d="M 62.57171079245716, 33.74988936071072 Q 63.664815818016265, 30.41354912579254, 66.31689964357419, 28.513033469725016 " fill="none" id="curve_6" stroke="#000000" stroke-linecap="round" stroke-linejoin="round" stroke-width="3.7365391452921806"/>
  <path d="M 63.56258447976285, 31.66252610013902 Q 60.18744277205849, 37.65973025573658, 55.03318614017368, 44.979855147194186 " fill="none" id="curve_8" stroke="#000000" stroke-linecap="round" stroke-linejoin="round" stroke-width="3.7190664185066535"/>
  <path d="M 64.6091417439944, 30.966614752859556 Q 60.19176250312166, 35.2258787377961, 55.71288764362049, 43.62100442618909 " fill="none" id="curve_9" stroke="#000000" stroke-linecap="round" stroke-linejoin="round" stroke-width="3.5387982405922562"/>
  <path d="M 44.982451574352055, 55.67562968618551 Q 41.54318538284104, 61.25497755225748, 33.700358483464605, 67.86049471001654 " fill="none" id="curve_10" stroke="#000000" stroke-linecap="round" stroke-linejoin="round" stroke-width="2.7026212589622434"/>
  <path d="M 19.639425237851775, 87.33834977766743 Q 19.756440965006437, 87.06968980358428, 19.9520315516663, 86.61051671905962 " fill="none" id="curve_11" stroke="#000000" stroke-linecap="round" stroke-linejoin="round" stroke-width="2.491370043566596"/>
  <path d="M 54.579364841663136, 68.21185128443688 Q 55.44139061586239, 75.88500979238428, 57.52031582391919, 95.49014303898937 " fill="none" id="curve_12" stroke="#000000" stroke-linecap="round" stroke-linejoin="round" stroke-width="2.609829964377318"/>
  <path d="M 57.52031582391919, 95.49014303898937 Q 57.21238030760447, 78.11402970375333, 52.538233260269436, 73.08753514404151 " fill="none" id="curve_12" stroke="#000000" stroke-linecap="round" stroke-linejoin="round" stroke-width="2.343552140714026"/>
  <path d="M 57.660169847640084, 110.97412788724864 Q 57.394616195387044, 87.85793642649425, 54.176229977259474, 77.24844937976096 " fill="none" id="curve_34" stroke="#000000" stroke-linecap="round" stroke-linejoin="round" stroke-width="1.683602379567089"/>
  <path d="M 64.10505207939386, 31.55541369078392 Q 63.29154818605218, 31.763701198202117, 62.06857034533551, 32.082951330871936 " fill="none" id="curve_51" stroke="#000000" stroke-linecap="round" stroke-linejoin="round" stroke-width="3.958205994743273"/>
  <path d="M 56.675757205771795, 106.69615715569364 Q 57.51047189897263, 104.13794378581633, 58.12953661341597, 95.48036004897689 " fill="none" id="curve_53" stroke="#000000" stroke-linecap="round" stroke-linejoin="round" stroke-width="2.8027354552049943"/>
  <path d="M 46.019293654773506, 54.36342856811419 Q 45.14731087260368, 56.33511284667111, 42.62435358778319, 58.76261042515517 " fill="none" id="curve_84" stroke="#000000" stroke-linecap="round" stroke-linejoin="round" stroke-width="2.6577174954521445"/>
  <path d="M 25.29242078025476, 79.50835588181761 Q 26.418523124572694, 79.17877092999449, 27.402733336066905, 78.12145449475487 " fill="none" id="curve_104" stroke="#000000" stroke-linecap="round" stroke-linejoin="round" stroke-width="3.0979264880435964"/>
  <path d="M 25.864535763331936, 80.40752265363743 Q 26.995575017297313, 78.45071460657906, 29.31383555698242, 74.83941448408933 " fill="none" id="curve_134" stroke="#000000" stroke-linecap="round" stroke-linejoin="round" stroke-width="2.2043028307658172"/>
</svg>
