<?xml version="1.0" ?>
<svg height="140" width="140" xmlns="http://www.w3.org/2000/svg">
  <path d="M 65.68820762634277, 31.485726356506348 Q 65.52311499693909, 30.847125165959135, 65.02888347808818, 30.451744131001462 " fill="none" id="curve_1" stroke="#000000" stroke-linecap="round" stroke-linejoin="round" stroke-width="5.54709160719533"/>
  <path d="M 65.02888347808818, 30.451744131001462 Q 63.912059578305474, 44.441769790826115, 57.52288953140583, 62.303619470872945 " fill="none" id="curve_1" stroke="#000000" stroke-linecap="round" stroke-linejoin="round" stroke-width="5.668251493511533"/>
  <path d="M 57.52288953140583, 62.303619470872945 Q 54.312188102250126, 73.06679707916123, 39.15600559432052, 98.42925476996227 " fill="none" id="curve_1" stroke="#000000" stroke-linecap="round" stroke-linejoin="round" stroke-width="5.1085276320955995"/>
  <path d="M 39.15600559432052, 98.42925476996227 Q 35.654292939447565, 110.4219007779906, 28.554674282269616, 120.10046770391858 " fill="none" id="curve_1" stroke="#000000" stroke-linecap="round" stroke-linejoin="round" stroke-width="4.359447393094052"/>
  <path d="M 65.42070979624566, 114.80644427938537 Q 57.40408456915889, 113.70946612521014, 56.005745522837266, 80.91153377482487 " fill="none" id="curve_2" stroke="#000000" stroke-linecap="round" stroke-linejoin="round" stroke-width="5.355589689105295"/>
  <path d="M 56.005745522837266, 80.91153377482487 Q 58.06740237634574, 75.21109240466375, 59.53191063548935, 59.61398287533332 " fill="none" id="curve_2" stroke="#000000" stroke-linecap="round" stroke-linejoin="round" stroke-width="4.994971133782899"/>
  <path d="M 59.53191063548935, 59.61398287533332 Q 52.677194987672266, 66.74463250759149, 43.18484038759087, 88.28494321198572 " fill="none" id="curve_2" stroke="#000000" stroke-linecap="round" stroke-linejoin="round" stroke-width="3.0428396672319087"/>
  <path d="M 67.10382200364707, 116.89615296288225 Q 67.91314607604987, 116.91930363058509, 68.73533037656061, 116.95917744557936 " fill="none" id="curve_3" stroke="#000000" stroke-linecap="round" stroke-linejoin="round" stroke-width="4.038675426478726"/>
  <path d="M 55.84089083261661, 77.06897480061369 Q 57.353357506858195, 78.22165122766367, 57.58170576011137, 91.06721089337103 " fill="none" id="curve_4" stroke="#000000" stroke-linecap="round" stroke-linejoin="round" stroke-width="3.9466225703528215"/>
  <path d="M 57.58170576011137, 91.06721089337103 Q 57.65297985635435, 111.55516203446646, 60.120976982886766, 113.06619492775042 " fill="none" id="curve_4" stroke="#000000" stroke-linecap="round" stroke-linejoin="round" stroke-width="2.375554905458338"/>
  <path d="M 60.120976982886766, 113.06619492775042 Q 57.943027969829814, 103.15560047785011, 54.52652866128715, 85.10865046237387 " fill="none" id="curve_4" stroke="#000000" stroke-linecap="round" stroke-linejoin="round" stroke-width="3.131215586435646"/>
  <path d="M 62.932636493758025, 37.24510197098472 Q 62.46566826334863, 39.25449959963831, 61.87993850531529, 43.21877603578841 " fill="none" id="curve_6" stroke="#000000" stroke-linecap="round" stroke-linejoin="round" stroke-width="3.2458251412474333"/>
  <path d="M 55.7691601799984, 63.02157672396387 Q 59.02659325218642, 57.10294956972231, 62.27984684100014, 44.78956072535051 " fill="none" id="curve_7" stroke="#000000" stroke-linecap="round" stroke-linejoin="round" stroke-width="2.840928340210289"/>
  <path d="M 63.62879453516441, 33.32903475193797 Q 63.55614018649703, 34.167408716694226, 63.38129675576708, 35.394047459792155 " fill="none" id="curve_10" stroke="#000000" stroke-linecap="round" stroke-linejoin="round" stroke-width="2.9891304418326494"/>
  <path d="M 61.64250182558245, 56.04083305641649 Q 60.83481939196153, 53.5060952274967, 60.209835777318254, 45.22051075482421 " fill="none" id="curve_39" stroke="#000000" stroke-linecap="round" stroke-linejoin="round" stroke-width="2.256469323953506"/>
  <path d="M 52.648370830513954, 77.04859273806272 Q 53.84944745435722, 77.78637691715424, 55.60456634331213, 79.19722038180421 " fill="none" id="curve_40" stroke="#000000" stroke-linecap="round" stroke-linejoin="round" stroke-width="3.3076466271972262"/>
  <path d="M 56.93460091365747, 96.87824129571125 Q 57.456253756729645, 98.58815027520829, 58.02190122268697, 102.42341816611652 " fill="none" id="curve_58" stroke="#000000" stroke-linecap="round" stroke-linejoin="round" stroke-width="2.976007833160209"/>
  <path d="M 61.352493058959055, 39.0612234077571 Q 62.230230187821995, 34.02975218506094, 64.77693456402965, 30.631812195698345 " fill="none" id="curve_73" stroke="#000000" stroke-linecap="round" stroke-linejoin="round" stroke-width="2.964178690529861"/>
  <path d="M 64.77693456402965, 30.631812195698345 Q 64.91907882298958, 29.241054434235355, 65.26637130713895, 28.3798787709089 " fill="none" id="curve_73" stroke="#000000" stroke-linecap="round" stroke-linejoin="round" stroke-width="3.2425458111545318"/>
  <path d="M 55.493641742927096, 95.84444716634037 Q 57.58813674470424, 101.16796579204751, 60.01083033783806, 109.41578078015192 " fill="none" id="curve_115" stroke="#000000" stroke-linecap="round" stroke-linejoin="round" stroke-width="2.43854823015096"/>
  <path d="M 60.01083033783806, 109.41578078015192 Q 58.370177650986825, 102.38876795344875, 55.81463768503876, 93.16922343172465 " fill="none" id="curve_115" stroke="#000000" stroke-linecap="round" stroke-linejoin="round" stroke-width="2.930773392757707"/>
  <path d="M 57.24137489418826, 98.47556017598562 Q 57.39087580325782, 99.15993188414907, 57.58653135705271, 101.46052550629128 " fill="none" id="curve_135" stroke="#000000" stroke-linecap="round" stroke-linejoin="round" stroke-width="3.014383175801969"/>
</svg>
