<?xml version="1.0" ?>
<svg height="140" width="140" xmlns="http://www.w3.org/2000/svg">
  <path d="M 59.322444915771484, 13.567920684814453 Q 59.880794397733766, 12.962735280205335, 60.54745820872886, 11.61236726332234 " fill="none" id="curve_1" stroke="#000000" stroke-linecap="round" stroke-linejoin="round" stroke-width="5.582525342185716"/>
  <path d="M 60.54745820872886, 11.61236726332234 Q 58.91973460207543, 16.18147124369094, 55.98601062489818, 21.797316793877116 " fill="none" id="curve_1" stroke="#000000" stroke-linecap="round" stroke-linejoin="round" stroke-width="7.097485731759063"/>
  <path d="M 55.98601062489818, 21.797316793877116 Q 50.392936063240946, 27.714533554327282, 38.872891611431776, 48.44270380950471 " fill="none" id="curve_1" stroke="#000000" stroke-linecap="round" stroke-linejoin="round" stroke-width="3.8698631637839433"/>
  <path d="M 38.872891611431776, 48.44270380950471 Q 34.48763791619059, 58.32748162627508, 17.72774822599473, 76.99060958193576 " fill="none" id="curve_1" stroke="#000000" stroke-linecap="round" stroke-linejoin="round" stroke-width="4.05735027292966"/>
  <path d="M 17.72774822599473, 76.99060958193576 Q 22.588629092552566, 74.77582904424077, 25.606958497609355, 68.73204936524826 " fill="none" id="curve_1" stroke="#000000" stroke-linecap="round" stroke-linejoin="round" stroke-width="2.537009269825997"/>
  <path d="M 56.66264154893912, 52.69216927780949 Q 56.75443865662368, 57.94640845481639, 56.8364513426887, 91.2439105330472 " fill="none" id="curve_2" stroke="#000000" stroke-linecap="round" stroke-linejoin="round" stroke-width="4.499093077384375"/>
  <path d="M 56.8364513426887, 91.2439105330472 Q 58.03496310362588, 102.75254838715628, 60.54487674106902, 128.82082803908992 " fill="none" id="curve_2" stroke="#000000" stroke-linecap="round" stroke-linejoin="round" stroke-width="5.218974286778081"/>
  <path d="M 60.54487674106902, 128.82082803908992 Q 60.502124158920026, 132.4056918511788, 60.21868900215936, 133.23432666420183 " fill="none" id="curve_2" stroke="#000000" stroke-linecap="round" stroke-linejoin="round" stroke-width="4.887999981923026"/>
  <path d="M 60.21868900215936, 133.23432666420183 Q 59.86040863261876, 128.73891075137195, 58.58145140707241, 126.88236226699225 " fill="none" id="curve_2" stroke="#000000" stroke-linecap="round" stroke-linejoin="round" stroke-width="4.557031594338327"/>
  <path d="M 1.682926386578665, 138.53428489459648 Q 1.968548856524224, 138.36181536040263, 2.2724629229377946, 137.93508986660518 " fill="none" id="curve_4" stroke="#000000" stroke-linecap="round" stroke-linejoin="round" stroke-width="2.2617173489033524"/>
  <path d="M 57.90072689339877, 102.24999970573415 Q 56.72283625005783, 102.06005091146405, 56.160505384333156, 100.88132087209209 " fill="none" id="curve_7" stroke="#000000" stroke-linecap="round" stroke-linejoin="round" stroke-width="3.9098178861428976"/>
  <path d="M 57.31490172436711, 49.65858068517833 Q 58.054193911486166, 34.56259715936056, 61.09431483252565, 20.0346955674674 " fill="none" id="curve_9" stroke="#000000" stroke-linecap="round" stroke-linejoin="round" stroke-width="4.266220601015367"/>
  <path d="M 56.72261787562878, 39.1172949513477 Q 57.59170921436977, 43.658906561276595, 58.08875307479974, 53.85741452884377 " fill="none" id="curve_10" stroke="#000000" stroke-linecap="round" stroke-linejoin="round" stroke-width="3.936733573934979"/>
  <path d="M 58.08875307479974, 53.85741452884377 Q 57.985341013120305, 42.08907620230426, 57.44321933522453, 37.92476918413789 " fill="none" id="curve_10" stroke="#000000" stroke-linecap="round" stroke-linejoin="round" stroke-width="3.1863958815825084"/>
  <path d="M 39.095645446868275, 47.41825608866196 Q 38.25984732756035, 53.77229850469398, 34.9989171550917, 56.325691270550934 " fill="none" id="curve_11" stroke="#000000" stroke-linecap="round" stroke-linejoin="round" stroke-width="4.082181089602827"/>
  <path d="M 34.9989171550917, 56.325691270550934 Q 38.6276442783113, 50.00168018424749, 43.0128091549295, 39.572824141905116 " fill="none" id="curve_11" stroke="#000000" stroke-linecap="round" stroke-linejoin="round" stroke-width="2.620584404808884"/>
  <path d="M 58.42134172218026, 41.179414085507105 Q 57.10309783279964, 43.31335397048818, 56.48063194999313, 49.48533761528222 " fill="none" id="curve_12" stroke="#000000" stroke-linecap="round" stroke-linejoin="round" stroke-width="5.394383473752362"/>
  <path d="M 56.808423496788556, 76.43652960080708 Q 56.876508118831694, 73.32356808862, 56.98388564219581, 69.18079560919212 " fill="none" id="curve_16" stroke="#000000" stroke-linecap="round" stroke-linejoin="round" stroke-width="3.2700870189010645"/>
  <path d="M 57.2023615449815, 39.721865783915575 Q 58.05722313565643, 43.66416847466887, 59.13772655494351, 49.28489067061086 " fill="none" id="curve_19" stroke="#000000" stroke-linecap="round" stroke-linejoin="round" stroke-width="3.5028669943971975"/>
  <path d="M 26.46319956259905, 69.1081772953845 Q 25.43503535931914, 69.16221592713428, 23.768473002002896, 69.2722729448737 " fill="none" id="curve_25" stroke="#000000" stroke-linecap="round" stroke-linejoin="round" stroke-width="4.202348832393919"/>
  <path d="M 36.94414234294102, 51.821343964621036 Q 38.96685055774511, 49.438528486299106, 41.438848081669754, 45.364225239247865 " fill="none" id="curve_27" stroke="#000000" stroke-linecap="round" stroke-linejoin="round" stroke-width="3.0157065028116197"/>
  <path d="M 53.54005114581867, 74.81959002464662 Q 55.168165747597634, 73.327906907437, 57.20655873005614, 70.89144941859064 " fill="none" id="curve_29" stroke="#000000" stroke-linecap="round" stroke-linejoin="round" stroke-width="2.669201453171105"/>
  <path d="M 55.40795966361737, 100.3002034575954 Q 56.87627531727288, 94.62831918997841, 58.018717721955326, 65.4062278429646 " fill="none" id="curve_37" stroke="#000000" stroke-linecap="round" stroke-linejoin="round" stroke-width="2.2903216875218018"/>
  <path d="M 62.46204273664074, 122.6041782830354 Q 61.50958899660004, 124.32004471360116, 59.87743688194996, 126.0585954829601 " fill="none" id="curve_42" stroke="#000000" stroke-linecap="round" stroke-linejoin="round" stroke-width="3.5277275862160358"/>
  <path d="M 57.84953532195541, 87.84513370585006 Q 57.81973961980571, 77.3366886033409, 57.31558211189693, 75.86673764111366 " fill="none" id="curve_43" stroke="#000000" stroke-linecap="round" stroke-linejoin="round" stroke-width="3.0342901435677296"/>
  <path d="M 56.09814811054753, 47.78261523011174 Q 56.33472386869497, 39.00650688354302, 57.209348992267635, 33.41079364868105 " fill="none" id="curve_44" stroke="#000000" stroke-linecap="round" stroke-linejoin="round" stroke-width="2.6507757423240332"/>
  <path d="M 59.52832856580109, 18.195950154270854 Q 59.233932531864106, 17.940029789755403, 59.084094457930306, 16.888705731461087 " fill="none" id="curve_45" stroke="#000000" stroke-linecap="round" stroke-linejoin="round" stroke-width="7.0203267723531235"/>
  <path d="M 41.139941716430194, 45.38305097031455 Q 38.36861739127999, 50.970683883920046, 32.92625622167374, 56.88769425892692 " fill="none" id="curve_52" stroke="#000000" stroke-linecap="round" stroke-linejoin="round" stroke-width="3.0787151986692423"/>
  <path d="M 57.46198085164724, 108.95361602264529 Q 58.60706018720549, 112.34513910134282, 60.094318451114454, 116.69545412759717 " fill="none" id="curve_67" stroke="#000000" stroke-linecap="round" stroke-linejoin="round" stroke-width="3.5515913342368988"/>
  <path d="M 55.89408327491755, 18.33253310785341 Q 55.91111224795953, 18.228449371955232, 55.9229458490666, 17.88835605866478 " fill="none" id="curve_84" stroke="#000000" stroke-linecap="round" stroke-linejoin="round" stroke-width="4.206122233806634"/>
  <path d="M 61.27210736173765, 117.27643334787717 Q 61.24097044018917, 120.2589819683707, 60.98888928426094, 120.97351889631224 " fill="none" id="curve_99" stroke="#000000" stroke-linecap="round" stroke-linejoin="round" stroke-width="3.379301511776396"/>
  <path d="M 58.70715304820047, 113.0450490069892 Q 58.49926055269049, 113.16511369091843, 58.30506634240753, 113.39813109386158 " fill="none" id="curve_100" stroke="#000000" stroke-linecap="round" stroke-linejoin="round" stroke-width="4.5547631235739425"/>
  <path d="M 58.42229256766244, 61.520442997408736 Q 58.23683767616764, 54.519919936925696, 54.368712587248744, 53.39587525548607 " fill="none" id="curve_102" stroke="#000000" stroke-linecap="round" stroke-linejoin="round" stroke-width="1.8288866020678645"/>
  <path d="M 39.685023550547974, 47.006016752111066 Q 37.429561453109564, 49.82184902656684, 34.49070635887534, 52.85633359858473 " fill="none" id="curve_104" stroke="#000000" stroke-linecap="round" stroke-linejoin="round" stroke-width="2.7449592529327003"/>
  <path d="M 58.690137639986006, 111.75792775909372 Q 59.7502128940932, 111.71645223615836, 60.4584198095608, 111.59693365485982 " fill="none" id="curve_132" stroke="#000000" stroke-linecap="round" stroke-linejoin="round" stroke-width="2.751803462900955"/>
  <path d="M 56.052555786656946, 91.62709261406977 Q 55.27294881239316, 89.15650498448326, 54.83427156788071, 78.32659350869355 " fill="none" id="curve_133" stroke="#000000" stroke-linecap="round" stroke-linejoin="round" stroke-width="2.018178072638838"/>
  <path d="M 55.45065253796518, 103.43182909937264 Q 56.159531239115964, 103.42620656291423, 57.03239208636534, 103.41604704866397 " fill="none" id="curve_135" stroke="#000000" stroke-linecap="round" stroke-linejoin="round" stroke-width="3.155556678906842"/>
  <path d="M 22.761708618397215, 69.91196528214132 Q 22.86516745565162, 68.77851365753006, 24.10073886051771, 68.29996391499903 " fill="none" id="curve_136" stroke="#000000" stroke-linecap="round" stroke-linejoin="round" stroke-width="3.6937358951231465"/>
  <path d="M 17.297906152731315, 76.80102181739336 Q 16.830482015743513, 76.479403711427, 16.151046887638724, 76.1327473646216 " fill="none" id="curve_137" stroke="#000000" stroke-linecap="round" stroke-linejoin="round" stroke-width="2.6503422025513865"/>
  <path d="M 39.24206788351675, 47.325650683073064 Q 39.80524905880669, 45.43425827746687, 41.03080688907849, 42.755208838543716 " fill="none" id="curve_140" stroke="#000000" stroke-linecap="round" stroke-linejoin="round" stroke-width="2.747507779100177"/>
  <path d="M 0.19399261474609375, 133.67856693267822 Q 0.9736380516358578, 134.64969329747177, 1.3903283112595943, 138.47938820230434 " fill="none" id="curve_193" stroke="#000000" stroke-linecap="round" stroke-linejoin="round" stroke-width="1.4830261214071123"/>
  <path d="M 1.3903283112595943, 138.47938820230434 Q 1.3996528872562466, 138.71262794115557, 1.434233759770675, 138.82411505876854 " fill="none" id="curve_193" stroke="#000000" stroke-linecap="round" stroke-linejoin="round" stroke-width="1.5621791417770796"/>
</svg>
