<?xml version="1.0" ?>
<svg height="140" width="140" xmlns="http://www.w3.org/2000/svg">
  <path d="M 41.90792465209961, 55.57584285736084 Q 42.44098538619744, 56.439887278827705, 42.86748581439123, 59.76893447301853 " fill="none" id="curve_1" stroke="#000000" stroke-linecap="round" stroke-linejoin="round" stroke-width="8.28409585253968"/>
  <path d="M 42.86748581439123, 59.76893447301853 Q 42.275821757467526, 61.4970972064971, 42.07822129460416, 72.01253424229117 " fill="none" id="curve_1" stroke="#000000" stroke-linecap="round" stroke-linejoin="round" stroke-width="5.981597696041312"/>
  <path d="M 42.07822129460416, 72.01253424229117 Q 42.368096000483504, 78.39043145177074, 42.94694620007799, 101.25567956611359 " fill="none" id="curve_1" stroke="#000000" stroke-linecap="round" stroke-linejoin="round" stroke-width="7.20376365537987"/>
  <path d="M 42.94694620007799, 101.25567956611359 Q 43.81548165600703, 107.98635941236225, 44.737424480024835, 115.66776967491451 " fill="none" id="curve_1" stroke="#000000" stroke-linecap="round" stroke-linejoin="round" stroke-width="4.325413585454328"/>
  <path d="M 44.045510985517716, 96.7284420576324 Q 44.59264518683385, 89.06666038915719, 45.145324535112785, 75.23311157652535 " fill="none" id="curve_2" stroke="#000000" stroke-linecap="round" stroke-linejoin="round" stroke-width="3.43472833309581"/>
  <path d="M 45.145324535112785, 75.23311157652535 Q 44.839825408822726, 60.33650958651014, 42.73730933764802, 54.460564428358126 " fill="none" id="curve_2" stroke="#000000" stroke-linecap="round" stroke-linejoin="round" stroke-width="2.3523254969875547"/>
  <path d="M 42.73730933764802, 54.460564428358126 Q 43.10767204378072, 53.976866372455255, 43.459452867762955, 53.25129056538284 " fill="none" id="curve_2" stroke="#000000" stroke-linecap="round" stroke-linejoin="round" stroke-width="3.849007349573669"/>
  <path d="M 46.258779506800195, 72.65065174122772 Q 45.25379617802545, 67.69311245041456, 43.54555148643511, 60.30464688654744 " fill="none" id="curve_6" stroke="#000000" stroke-linecap="round" stroke-linejoin="round" stroke-width="1.925758016863355"/>
  <path d="M 43.54555148643511, 60.30464688654744 Q 43.641058834575816, 56.43819491465333, 43.885215698632976, 54.333895234529294 " fill="none" id="curve_6" stroke="#000000" stroke-linecap="round" stroke-linejoin="round" stroke-width="3.432575389812009"/>
  <path d="M 40.93073823424813, 88.13452250759767 Q 41.03612001773291, 100.98254658973248, 42.02863478510651, 102.93978666678635 " fill="none" id="curve_7" stroke="#000000" stroke-linecap="round" stroke-linejoin="round" stroke-width="3.286206830174248"/>
  <path d="M 45.48039708524743, 116.77731980636031 Q 45.287993523298645, 116.84904858417781, 44.73816409992225, 116.89574069728917 " fill="none" id="curve_9" stroke="#000000" stroke-linecap="round" stroke-linejoin="round" stroke-width="3.005538119620829"/>
  <path d="M 44.1470180114282, 99.98870130730101 Q 43.71302772324457, 96.11548621480225, 43.30085885090425, 87.47570990530798 " fill="none" id="curve_13" stroke="#000000" stroke-linecap="round" stroke-linejoin="round" stroke-width="4.041511560189903"/>
  <path d="M 40.78451606075878, 100.54757733287494 Q 41.35376328036207, 96.29136767973199, 42.2254274225726, 90.159488496206 " fill="none" id="curve_14" stroke="#000000" stroke-linecap="round" stroke-linejoin="round" stroke-width="3.2484356764261784"/>
  <path d="M 42.45911767198353, 53.62079655475014 Q 42.476258610599835, 52.79588040391566, 42.55365951280845, 52.38579965036907 " fill="none" id="curve_57" stroke="#000000" stroke-linecap="round" stroke-linejoin="round" stroke-width="2.191797320865672"/>
</svg>
