<?xml version="1.0" ?>
<svg height="140" width="140" xmlns="http://www.w3.org/2000/svg">
  <path d="M 53.0744514465332, 106.11544132232666 Q 52.01535390996939, 105.7244918257576, 50.855281540615124, 104.89809413042735 " fill="none" id="curve_1" stroke="#000000" stroke-linecap="round" stroke-linejoin="round" stroke-width="7.295072638753592"/>
  <path d="M 50.855281540615124, 104.89809413042735 Q 51.64613984879015, 93.98191294250982, 55.16699443094816, 81.29556484897329 " fill="none" id="curve_1" stroke="#000000" stroke-linecap="round" stroke-linejoin="round" stroke-width="5.176823916515693"/>
  <path d="M 55.16699443094816, 81.29556484897329 Q 57.16061284351093, 73.2250008791243, 61.926319999062734, 51.58744696794149 " fill="none" id="curve_1" stroke="#000000" stroke-linecap="round" stroke-linejoin="round" stroke-width="5.715091074524704"/>
  <path d="M 61.926319999062734, 51.58744696794149 Q 63.59147570567881, 41.90061871811038, 66.47384623688994, 29.41372426957726 " fill="none" id="curve_1" stroke="#000000" stroke-linecap="round" stroke-linejoin="round" stroke-width="5.195978585308766"/>
  <path d="M 66.47384623688994, 29.41372426957726 Q 60.92925767553575, 40.12650285949875, 40.32367374772544, 62.13367666774683 " fill="none" id="curve_1" stroke="#000000" stroke-linecap="round" stroke-linejoin="round" stroke-width="4.9435694244252355"/>
  <path d="M 40.32367374772544, 62.13367666774683 Q 33.93382483420115, 67.24178759706857, 26.879098675366286, 73.46225363300209 " fill="none" id="curve_1" stroke="#000000" stroke-linecap="round" stroke-linejoin="round" stroke-width="4.837915507805066"/>
  <path d="M 54.43473734025224, 42.67387523709582 Q 60.97223696333976, 38.08909691392392, 68.12076921381112, 28.102940978843225 " fill="none" id="curve_12" stroke="#000000" stroke-linecap="round" stroke-linejoin="round" stroke-width="2.608019529301769"/>
  <path d="M 68.12076921381112, 28.102940978843225 Q 66.2348733138892, 29.108210634395803, 62.936284143498845, 30.765417220215358 " fill="none" id="curve_12" stroke="#000000" stroke-linecap="round" stroke-linejoin="round" stroke-width="2.9784552187107702"/>
  <path d="M 53.6463565826416, 84.43034744262695 Q 55.24179169014052, 84.63254419321808, 56.87754262871721, 85.13576995480503 " fill="none" id="curve_52" stroke="#000000" stroke-linecap="round" stroke-linejoin="round" stroke-width="2.4044333423310915"/>
  <path d="M 61.34544461200817, 50.42971390039428 Q 61.20819086714616, 41.37575221544584, 59.781584637099435, 38.82742359831029 " fill="none" id="curve_54" stroke="#000000" stroke-linecap="round" stroke-linejoin="round" stroke-width="1.8902360151777922"/>
  <path d="M 24.022978299122016, 74.6366903230791 Q 24.516637616531007, 74.4425393807098, 25.054555239043125, 74.06130537645245 " fill="none" id="curve_57" stroke="#000000" stroke-linecap="round" stroke-linejoin="round" stroke-width="2.626559158110744"/>
  <path d="M 42.69946340711637, 56.44522978058431 Q 47.11495932173522, 53.549392743076716, 52.020720841129894, 47.687838697958554 " fill="none" id="curve_59" stroke="#000000" stroke-linecap="round" stroke-linejoin="round" stroke-width="3.2305489881847484"/>
  <path d="M 52.020720841129894, 47.687838697958554 Q 49.79461681667188, 49.91338445472094, 46.230822196323814, 54.52533478561725 " fill="none" id="curve_59" stroke="#000000" stroke-linecap="round" stroke-linejoin="round" stroke-width="2.44155754385794"/>
  <path d="M 46.230822196323814, 54.52533478561725 Q 48.870109476837236, 51.09573186510622, 52.44304950985115, 46.57486481258561 " fill="none" id="curve_59" stroke="#000000" stroke-linecap="round" stroke-linejoin="round" stroke-width="2.6532615755621465"/>
  <path d="M 1.1324425006752108, 138.11050929748694 Q 1.044448940754583, 136.87522696245296, 0.9395274622647052, 134.28659213632773 " fill="none" id="curve_87" stroke="#000000" stroke-linecap="round" stroke-linejoin="round" stroke-width="1.152691407583576"/>
  <path d="M 61.94440604872159, 47.60315643315653 Q 61.238694395290516, 47.857363147022866, 59.80803219252031, 48.258200559202784 " fill="none" id="curve_102" stroke="#000000" stroke-linecap="round" stroke-linejoin="round" stroke-width="2.9353679881854213"/>
  <path d="M 61.35152362707718, 56.532739162028264 Q 57.985352326779896, 64.74618775199198, 54.16007485143035, 82.30331528504823 " fill="none" id="curve_105" stroke="#000000" stroke-linecap="round" stroke-linejoin="round" stroke-width="2.1467254882721374"/>
</svg>
