<?xml version="1.0" ?>
<svg height="140" width="140" xmlns="http://www.w3.org/2000/svg">
  <path d="M 58.70003318786621, 104.12358093261719 Q 57.73680726343357, 103.700598427291, 57.42433242641201, 99.94613303625613 " fill="none" id="curve_1" stroke="#000000" stroke-linecap="round" stroke-linejoin="round" stroke-width="9.417332656336939"/>
  <path d="M 57.42433242641201, 99.94613303625613 Q 56.5596084738609, 98.23953307442794, 56.22701510288293, 88.74962049495079 " fill="none" id="curve_1" stroke="#000000" stroke-linecap="round" stroke-linejoin="round" stroke-width="8.969264636385246"/>
  <path d="M 56.22701510288293, 88.74962049495079 Q 56.252023774946814, 83.98985655001006, 56.27844144693929, 64.19144820450785 " fill="none" id="curve_1" stroke="#000000" stroke-linecap="round" stroke-linejoin="round" stroke-width="7.821125978744394"/>
  <path d="M 56.27844144693929, 64.19144820450785 Q 57.67770318373082, 54.59262328636171, 60.396706768753994, 44.68493743685581 " fill="none" id="curve_1" stroke="#000000" stroke-linecap="round" stroke-linejoin="round" stroke-width="6.35667846200936"/>
  <path d="M 60.396706768753994, 44.68493743685581 Q 53.697349850638815, 56.288490676548534, 34.777759911504646, 74.35938622274712 " fill="none" id="curve_1" stroke="#000000" stroke-linecap="round" stroke-linejoin="round" stroke-width="6.217994363417117"/>
  <path d="M 34.777759911504646, 74.35938622274712 Q 30.92020879011911, 77.59865901137377, 25.28636867684923, 80.05016180956726 " fill="none" id="curve_1" stroke="#000000" stroke-linecap="round" stroke-linejoin="round" stroke-width="6.334204616991966"/>
  <path d="M 57.80895430662533, 105.24892010135403 Q 58.471483093022364, 105.18847706774457, 58.946227493587315, 105.05228154327628 " fill="none" id="curve_2" stroke="#000000" stroke-linecap="round" stroke-linejoin="round" stroke-width="6.750936804642027"/>
  <path d="M 55.12039846874769, 52.13850617358526 Q 55.36711039506016, 45.88081927116109, 58.33385967566719, 44.87714521470696 " fill="none" id="curve_3" stroke="#000000" stroke-linecap="round" stroke-linejoin="round" stroke-width="4.728373567311009"/>
  <path d="M 47.44355039927947, 64.96884915640777 Q 36.87086533671147, 67.16565452217797, 28.29403886940761, 77.28565534319877 " fill="none" id="curve_4" stroke="#000000" stroke-linecap="round" stroke-linejoin="round" stroke-width="2.9568992683818274"/>
  <path d="M 46.2335176767251, 62.66643445556202 Q 51.71275992895886, 59.53586618762027, 54.97124994727513, 47.182670558239145 " fill="none" id="curve_5" stroke="#000000" stroke-linecap="round" stroke-linejoin="round" stroke-width="3.080819028542918"/>
  <path d="M 48.21988771141858, 64.21486166452587 Q 48.63484577631919, 61.74816821765251, 50.900387032530446, 60.28375957437088 " fill="none" id="curve_20" stroke="#000000" stroke-linecap="round" stroke-linejoin="round" stroke-width="3.315654419414649"/>
  <path d="M 55.71557309362138, 81.00371869655368 Q 54.52505421630567, 78.73387813299556, 53.89436643006064, 69.29461240749394 " fill="none" id="curve_21" stroke="#000000" stroke-linecap="round" stroke-linejoin="round" stroke-width="3.343432640188548"/>
  <path d="M 56.3748633839351, 104.2139852445288 Q 58.95340700205704, 103.69363470200058, 60.85337269951649, 102.28377982376485 " fill="none" id="curve_23" stroke="#000000" stroke-linecap="round" stroke-linejoin="round" stroke-width="4.5756599163641765"/>
  <path d="M 56.464568394835354, 44.55280264467596 Q 57.50602438911666, 44.388648370726116, 59.08433063356952, 44.163773634324485 " fill="none" id="curve_39" stroke="#000000" stroke-linecap="round" stroke-linejoin="round" stroke-width="4.189574290630303"/>
  <path d="M 0.8151283444988451, 2.8782756175413615 Q 0.9352009153827454, 3.324260013971621, 1.095715535981085, 4.475005442031577 " fill="none" id="curve_67" stroke="#000000" stroke-linecap="round" stroke-linejoin="round" stroke-width="1.8561461784158149"/>
  <path d="M 56.43688774108887, 83.48990249633789 Q 54.23195641563381, 82.5308313323445, 52.9748864344065, 76.8747203742031 " fill="none" id="curve_81" stroke="#000000" stroke-linecap="round" stroke-linejoin="round" stroke-width="3.178963402083033"/>
  <path d="M 42.60894433711768, 62.83115620415749 Q 41.93589949431918, 64.34182779232874, 40.182724258252144, 66.14264217564514 " fill="none" id="curve_99" stroke="#000000" stroke-linecap="round" stroke-linejoin="round" stroke-width="3.0004113320861263"/>
  <path d="M 54.77680746502319, 104.34703232638276 Q 55.14095790971631, 104.62814823576923, 56.275044277437644, 104.81181693591647 " fill="none" id="curve_114" stroke="#000000" stroke-linecap="round" stroke-linejoin="round" stroke-width="3.080891534905401"/>
  <path d="M 59.25894434619575, 63.16388059914805 Q 58.765075641010526, 57.06364253551335, 50.46361474953496, 55.23513482246487 " fill="none" id="curve_116" stroke="#000000" stroke-linecap="round" stroke-linejoin="round" stroke-width="1.5286062094032387"/>
  <path d="M 50.46361474953496, 55.23513482246487 Q 49.73269508373339, 55.17537019728035, 48.712930537789774, 55.032301231117295 " fill="none" id="curve_116" stroke="#000000" stroke-linecap="round" stroke-linejoin="round" stroke-width="2.7516150271076683"/>
  <path d="M 56.95447641247621, 44.59318981595146 Q 57.058921214411995, 44.1407294249985, 57.631641244264955, 43.96388694120002 " fill="none" id="curve_117" stroke="#000000" stroke-linecap="round" stroke-linejoin="round" stroke-width="3.8912455948612488"/>
</svg>
