<?xml version="1.0" ?>
<svg height="140" width="140" xmlns="http://www.w3.org/2000/svg">
  <path d="M 25.421945571899414, 89.03866672515869 Q 23.471723784401114, 89.24263744937824, 21.94590166562915, 89.92250573060383 " fill="none" id="curve_1" stroke="#000000" stroke-linecap="round" stroke-linejoin="round" stroke-width="3.0282440278155542"/>
  <path d="M 21.94590166562915, 89.92250573060383 Q 28.3499027381838, 84.88019505812152, 40.73950146959334, 65.819667914927 " fill="none" id="curve_1" stroke="#000000" stroke-linecap="round" stroke-linejoin="round" stroke-width="3.7600501309445886"/>
  <path d="M 40.73950146959334, 65.819667914927 Q 45.94730043234837, 58.48004915700755, 57.92393957665341, 43.47766780783017 " fill="none" id="curve_1" stroke="#000000" stroke-linecap="round" stroke-linejoin="round" stroke-width="4.176536132496442"/>
  <path d="M 57.92393957665341, 43.47766780783017 Q 58.77840533789529, 39.865867930311346, 59.846368542202775, 35.58351557808365 " fill="none" id="curve_1" stroke="#000000" stroke-linecap="round" stroke-linejoin="round" stroke-width="5.7965626583852226"/>
  <path d="M 59.846368542202775, 35.58351557808365 Q 58.51837278773393, 37.53780144025532, 58.27399427741194, 59.34659418484718 " fill="none" id="curve_1" stroke="#000000" stroke-linecap="round" stroke-linejoin="round" stroke-width="7.929078273497121"/>
  <path d="M 58.27399427741194, 59.34659418484718 Q 60.771272180439894, 64.48303027600029, 61.73362306081345, 93.18949390304778 " fill="none" id="curve_1" stroke="#000000" stroke-linecap="round" stroke-linejoin="round" stroke-width="5.509635880010044"/>
  <path d="M 89.3181223072219, 94.86877808244606 Q 89.17169757572196, 104.7528039765245, 88.6611733984467, 138.34811122277046 " fill="none" id="curve_2" stroke="#000000" stroke-linecap="round" stroke-linejoin="round" stroke-width="3.380403166936062"/>
  <path d="M 88.6611733984467, 138.34811122277046 Q 88.52676595193914, 138.2822193077933, 88.32980686001238, 138.19251945007485 " fill="none" id="curve_2" stroke="#000000" stroke-linecap="round" stroke-linejoin="round" stroke-width="3.404277332983967"/>
  <path d="M 89.20588243677072, 93.50933577616448 Q 89.18697317518807, 87.52055676165266, 89.1233892350059, 73.91388459042182 " fill="none" id="curve_4" stroke="#000000" stroke-linecap="round" stroke-linejoin="round" stroke-width="2.3696330252483637"/>
  <path d="M 89.1233892350059, 73.91388459042182 Q 89.09423178600795, 62.297739438901985, 88.67991301858792, 57.35294870015531 " fill="none" id="curve_4" stroke="#000000" stroke-linecap="round" stroke-linejoin="round" stroke-width="2.785455172960016"/>
  <path d="M 88.67991301858792, 57.35294870015531 Q 88.76684550068661, 49.86461717127614, 89.09349844820393, 40.65053552454394 " fill="none" id="curve_4" stroke="#000000" stroke-linecap="round" stroke-linejoin="round" stroke-width="2.899056132497508"/>
  <path d="M 89.09349844820393, 40.65053552454394 Q 89.10623594840665, 33.65643197972325, 89.14510199426711, 21.31669928904796 " fill="none" id="curve_4" stroke="#000000" stroke-linecap="round" stroke-linejoin="round" stroke-width="2.3404676497950603"/>
  <path d="M 89.14510199426711, 21.31669928904796 Q 89.15450062114317, 13.050893872975406, 89.19734941901653, 0.5983733779761451 " fill="none" id="curve_4" stroke="#000000" stroke-linecap="round" stroke-linejoin="round" stroke-width="2.3355202281986402"/>
  <path d="M 87.81406007988846, 34.546687123539215 Q 88.20526026526196, 34.23654635427586, 88.67178385542447, 33.62814677631143 " fill="none" id="curve_6" stroke="#000000" stroke-linecap="round" stroke-linejoin="round" stroke-width="1.5533637735291097"/>
  <path d="M 56.13017185707357, 38.979812746025914 Q 54.9385832377429, 41.502126240389615, 54.282554139234136, 50.05872211968924 " fill="none" id="curve_7" stroke="#000000" stroke-linecap="round" stroke-linejoin="round" stroke-width="2.703284513925659"/>
  <path d="M 39.19825600728816, 65.05637975694135 Q 43.51201120302947, 60.53106214938315, 49.41459454108851, 52.82090257798896 " fill="none" id="curve_8" stroke="#000000" stroke-linecap="round" stroke-linejoin="round" stroke-width="1.8152656273548027"/>
  <path d="M 59.0467857328385, 42.88025740346164 Q 61.205755496306345, 44.07038561186687, 61.45074752982624, 59.087691400153716 " fill="none" id="curve_9" stroke="#000000" stroke-linecap="round" stroke-linejoin="round" stroke-width="2.6334978313855526"/>
  <path d="M 63.14252398421486, 76.92626575356671 Q 62.69869300101058, 87.66200885859251, 61.90881954851757, 94.62635006905137 " fill="none" id="curve_10" stroke="#000000" stroke-linecap="round" stroke-linejoin="round" stroke-width="2.9392404216732237"/>
  <path d="M 89.31121805984314, 111.06519553993067 Q 89.15146763433792, 121.16163266601558, 88.4714809235132, 135.14732787069488 " fill="none" id="curve_11" stroke="#000000" stroke-linecap="round" stroke-linejoin="round" stroke-width="2.4146383512909715"/>
  <path d="M 86.50467863230503, 138.75054362580033 Q 86.49155392336564, 138.86150667278494, 86.43513947894407, 138.90934754222607 " fill="none" id="curve_12" stroke="#000000" stroke-linecap="round" stroke-linejoin="round" stroke-width="2.0635374540977725"/>
  <path d="M 88.55320450324291, 103.80379004283776 Q 88.48259236068827, 102.51331235212042, 88.3497191980752, 101.36468008390084 " fill="none" id="curve_13" stroke="#000000" stroke-linecap="round" stroke-linejoin="round" stroke-width="2.489577183015862"/>
  <path d="M 88.46548017098024, 63.23946990301797 Q 88.54637378778231, 61.14444503949597, 88.65793799857597, 58.559585363927404 " fill="none" id="curve_15" stroke="#000000" stroke-linecap="round" stroke-linejoin="round" stroke-width="2.2649913053245574"/>
  <path d="M 59.18817669823562, 34.15447884923279 Q 60.15616910873727, 33.98489754883166, 61.112664752449845, 33.604479282955076 " fill="none" id="curve_16" stroke="#000000" stroke-linecap="round" stroke-linejoin="round" stroke-width="2.90363894563269"/>
  <path d="M 28.444434437053516, 82.77157257591732 Q 33.58312139649522, 76.45679283268623, 41.326103191315525, 65.57339297695187 " fill="none" id="curve_18" stroke="#000000" stroke-linecap="round" stroke-linejoin="round" stroke-width="2.1974579292453424"/>
  <path d="M 58.508044481277466, 38.127044677734375 Q 57.332480414877665, 38.2284262874334, 55.98472829287266, 38.544333142226776 " fill="none" id="curve_32" stroke="#000000" stroke-linecap="round" stroke-linejoin="round" stroke-width="2.901797542777318"/>
  <path d="M 51.383629480533955, 49.40259504530013 Q 51.80634766137897, 48.01345368238812, 53.4303107970712, 47.153105882513245 " fill="none" id="curve_47" stroke="#000000" stroke-linecap="round" stroke-linejoin="round" stroke-width="3.1935323102648865"/>
  <path d="M 55.202870600931895, 38.038533455432855 Q 54.600948229729354, 43.215819305859384, 53.33077344047774, 49.673885967087514 " fill="none" id="curve_65" stroke="#000000" stroke-linecap="round" stroke-linejoin="round" stroke-width="2.0630667929891713"/>
  <path d="M 50.6551349509258, 55.137587196250934 Q 49.14803715640424, 55.32301240521395, 46.627858114335055, 55.6102565223966 " fill="none" id="curve_80" stroke="#000000" stroke-linecap="round" stroke-linejoin="round" stroke-width="2.9213484053424197"/>
</svg>
