<?xml version="1.0" ?>
<svg height="140" width="140" xmlns="http://www.w3.org/2000/svg">
  <path d="M 57.72886276245117, 108.86909294128418 Q 57.39194346342442, 106.85093492728433, 57.031869169617735, 102.29110597833193 " fill="none" id="curve_1" stroke="#000000" stroke-linecap="round" stroke-linejoin="round" stroke-width="7.6871276363018515"/>
  <path d="M 57.031869169617735, 102.29110597833193 Q 55.37479907677758, 98.12188561542581, 53.82920182895041, 78.93190179122422 " fill="none" id="curve_1" stroke="#000000" stroke-linecap="round" stroke-linejoin="round" stroke-width="5.661792674195077"/>
  <path d="M 53.82920182895041, 78.93190179122422 Q 54.1829790259608, 74.89257299156063, 54.36313643205325, 56.56641765446483 " fill="none" id="curve_1" stroke="#000000" stroke-linecap="round" stroke-linejoin="round" stroke-width="5.424166546501423"/>
  <path d="M 54.36313643205325, 56.56641765446483 Q 54.86633100697565, 38.602237638433586, 57.73084845515723, 29.07724719009698 " fill="none" id="curve_1" stroke="#000000" stroke-linecap="round" stroke-linejoin="round" stroke-width="4.881686491278712"/>
  <path d="M 57.73084845515723, 29.07724719009698 Q 53.336172866216586, 42.03794890550694, 33.57191035267503, 60.66330812274293 " fill="none" id="curve_1" stroke="#000000" stroke-linecap="round" stroke-linejoin="round" stroke-width="4.185470311995911"/>
  <path d="M 33.57191035267503, 60.66330812274293 Q 29.250992132866536, 68.37203460858345, 16.61150310155945, 72.37232881195277 " fill="none" id="curve_1" stroke="#000000" stroke-linecap="round" stroke-linejoin="round" stroke-width="5.119672535456684"/>
  <path d="M 16.61150310155945, 72.37232881195277 Q 15.831884752099516, 72.21463323915229, 15.102079005722572, 71.96201046623997 " fill="none" id="curve_1" stroke="#000000" stroke-linecap="round" stroke-linejoin="round" stroke-width="4.161184947829077"/>
  <path d="M 51.14588352510657, 44.096937882198006 Q 46.47333733813716, 44.95028659877765, 42.51914065884981, 48.65613060503139 " fill="none" id="curve_16" stroke="#000000" stroke-linecap="round" stroke-linejoin="round" stroke-width="2.7906756898755978"/>
  <path d="M 51.96698490628425, 47.82252853521423 Q 53.81287882928809, 55.700918389231695, 55.63110904762915, 70.93707906771508 " fill="none" id="curve_26" stroke="#000000" stroke-linecap="round" stroke-linejoin="round" stroke-width="2.498114958629186"/>
  <path d="M 55.63110904762915, 70.93707906771508 Q 55.45760478376457, 60.58182841545788, 53.322155276063874, 58.353433512700505 " fill="none" id="curve_26" stroke="#000000" stroke-linecap="round" stroke-linejoin="round" stroke-width="3.173972172143225"/>
  <path d="M 57.98656920130627, 30.752062744502286 Q 58.53767755461652, 29.550069496643218, 59.468966596641806, 27.915746352370892 " fill="none" id="curve_27" stroke="#000000" stroke-linecap="round" stroke-linejoin="round" stroke-width="2.9468673827590917"/>
  <path d="M 38.384499593758754, 57.127766435532884 Q 32.396237749169025, 62.33567912029529, 22.68347553935653, 70.14632386630748 " fill="none" id="curve_29" stroke="#000000" stroke-linecap="round" stroke-linejoin="round" stroke-width="2.9266227748795033"/>
  <path d="M 48.36954907777656, 44.004841984102484 Q 46.36340110277351, 45.30719285500782, 42.80037521652353, 48.28685928907425 " fill="none" id="curve_65" stroke="#000000" stroke-linecap="round" stroke-linejoin="round" stroke-width="3.2687515261804094"/>
  <path d="M 53.290866626500105, 75.95299652576752 Q 53.5393988420909, 63.55506453471891, 55.015188243436825, 58.07844609330091 " fill="none" id="curve_81" stroke="#000000" stroke-linecap="round" stroke-linejoin="round" stroke-width="3.067071195207876"/>
  <path d="M 54.78924275288663, 62.945095333172716 Q 54.88828254775883, 62.935069885494734, 54.95493407199143, 62.88762020767708 " fill="none" id="curve_82" stroke="#000000" stroke-linecap="round" stroke-linejoin="round" stroke-width="4.553876917755498"/>
  <path d="M 39.28136803389608, 52.3429946029429 Q 38.452208719531534, 55.13547875550537, 36.098338144591565, 57.69618246216039 " fill="none" id="curve_86" stroke="#000000" stroke-linecap="round" stroke-linejoin="round" stroke-width="2.87055593977557"/>
  <path d="M 56.65915852396738, 85.93532827304008 Q 55.95729779217716, 84.99174042470855, 54.4724666403527, 83.9495990888157 " fill="none" id="curve_94" stroke="#000000" stroke-linecap="round" stroke-linejoin="round" stroke-width="4.8193787590042705"/>
  <path d="M 54.588849764734704, 60.871423448753404 Q 54.434372421599605, 62.23345663399908, 54.15330544008623, 64.62944430236347 " fill="none" id="curve_95" stroke="#000000" stroke-linecap="round" stroke-linejoin="round" stroke-width="3.304819703582042"/>
  <path d="M 54.15330544008623, 64.62944430236347 Q 54.60867129504978, 64.5090984767201, 55.21748887845137, 64.10317916331299 " fill="none" id="curve_95" stroke="#000000" stroke-linecap="round" stroke-linejoin="round" stroke-width="3.1306413844337473"/>
  <path d="M 50.03324864750732, 41.16583482310125 Q 54.693962869914564, 38.8618792040274, 58.77328879268377, 32.987481399009354 " fill="none" id="curve_110" stroke="#000000" stroke-linecap="round" stroke-linejoin="round" stroke-width="2.4644475138485795"/>
  <path d="M 52.40358939370341, 52.17045924968686 Q 53.1808032654391, 59.094935534934756, 53.927141649848124, 72.9677978570281 " fill="none" id="curve_113" stroke="#000000" stroke-linecap="round" stroke-linejoin="round" stroke-width="2.3773629132081955"/>
  <path d="M 50.56377373586735, 40.872255270880416 Q 48.39932584841325, 42.574451085899085, 45.644946110017614, 45.48673066717464 " fill="none" id="curve_114" stroke="#000000" stroke-linecap="round" stroke-linejoin="round" stroke-width="3.0289385712142827"/>
  <path d="M 1.3450562727881064, 3.394637787351499 Q 1.3777301681143044, 2.3565630979397043, 1.4435235619722846, 0.9483728686260098 " fill="none" id="curve_115" stroke="#000000" stroke-linecap="round" stroke-linejoin="round" stroke-width="1.9832144442545696"/>
  <path d="M 53.811610996111696, 88.58099119009411 Q 54.30066621006284, 84.68979988186908, 56.221111923942914, 81.71051902250385 " fill="none" id="curve_137" stroke="#000000" stroke-linecap="round" stroke-linejoin="round" stroke-width="3.1173899338396303"/>
  <path d="M 56.08389155290536, 59.778569756092566 Q 55.87985583812454, 62.11673421485971, 55.388516716908526, 64.89763589950583 " fill="none" id="curve_165" stroke="#000000" stroke-linecap="round" stroke-linejoin="round" stroke-width="2.1910145868411557"/>
  <path d="M 59.73565775788209, 107.50728815732009 Q 58.85296225624669, 107.32907070121, 57.686662580046374, 107.07330300920896 " fill="none" id="curve_175" stroke="#000000" stroke-linecap="round" stroke-linejoin="round" stroke-width="3.865375303376501"/>
  <path d="M 25.246692412927636, 66.35968781229752 Q 28.623800218865675, 63.887057352753736, 36.35136850089264, 61.49783683247064 " fill="none" id="curve_176" stroke="#000000" stroke-linecap="round" stroke-linejoin="round" stroke-width="2.465721452630876"/>
</svg>
