<?xml version="1.0" ?>
<svg height="140" width="140" xmlns="http://www.w3.org/2000/svg">
  <path d="M 56.87967300415039, 51.15730857849121 Q 56.83403534408242, 49.186029643222646, 56.41324663200726, 48.67049492227291 " fill="none" id="curve_1" stroke="#000000" stroke-linecap="round" stroke-linejoin="round" stroke-width="6.537040850554514"/>
  <path d="M 56.41324663200726, 48.67049492227291 Q 50.20139625659395, 52.79159961236772, 38.68770297375496, 67.98485257326385 " fill="none" id="curve_1" stroke="#000000" stroke-linecap="round" stroke-linejoin="round" stroke-width="5.15514315847822"/>
  <path d="M 38.68770297375496, 67.98485257326385 Q 33.30922193290062, 73.90617819606767, 27.831398932749618, 82.59986132668934 " fill="none" id="curve_1" stroke="#000000" stroke-linecap="round" stroke-linejoin="round" stroke-width="4.213699151292692"/>
  <path d="M 59.758239773842426, 97.33326150612393 Q 59.32175397470566, 83.69409309853287, 57.78906058988556, 63.57434938803326 " fill="none" id="curve_2" stroke="#000000" stroke-linecap="round" stroke-linejoin="round" stroke-width="5.65331896995942"/>
  <path d="M 57.78906058988556, 63.57434938803326 Q 57.9771224302001, 60.520605311483315, 58.11775339466861, 54.410526774570975 " fill="none" id="curve_2" stroke="#000000" stroke-linecap="round" stroke-linejoin="round" stroke-width="8.211270851823706"/>
  <path d="M 59.19929868008789, 96.44668781700227 Q 58.46098925273146, 93.7445741128074, 57.774352956279586, 88.42893511231401 " fill="none" id="curve_4" stroke="#000000" stroke-linecap="round" stroke-linejoin="round" stroke-width="4.458130828692303"/>
  <path d="M 59.86785557710621, 73.81841175864103 Q 58.96038063778342, 72.05904952321629, 57.54940520545429, 68.0448440730385 " fill="none" id="curve_8" stroke="#000000" stroke-linecap="round" stroke-linejoin="round" stroke-width="4.290952613631494"/>
  <path d="M 37.49175380269308, 67.98639087354431 Q 35.55191892487828, 69.52673006888288, 33.64485233760558, 73.413730525562 " fill="none" id="curve_10" stroke="#000000" stroke-linecap="round" stroke-linejoin="round" stroke-width="3.2834857332066925"/>
  <path d="M 1.5378383811548122, 131.51768824388822 Q 1.0252246919990788, 125.26962671460737, 0.36464190240654704, 105.34386287179225 " fill="none" id="curve_15" stroke="#000000" stroke-linecap="round" stroke-linejoin="round" stroke-width="1.900309154791145"/>
  <path d="M 59.049383715323124, 79.28651159521456 Q 58.247408199496874, 73.81315137655864, 56.30966967854813, 69.63118497060024 " fill="none" id="curve_17" stroke="#000000" stroke-linecap="round" stroke-linejoin="round" stroke-width="5.1195304930588925"/>
  <path d="M 61.27097683258229, 96.4318434342084 Q 60.432404208507116, 95.1284485630047, 59.429787177072164, 92.96776594546556 " fill="none" id="curve_18" stroke="#000000" stroke-linecap="round" stroke-linejoin="round" stroke-width="5.023306819771745"/>
  <path d="M 1.9984259424832413, 137.256188032693 Q 1.759312093359342, 137.8294792317556, 1.2045762401041906, 138.32670933086797 " fill="none" id="curve_20" stroke="#000000" stroke-linecap="round" stroke-linejoin="round" stroke-width="2.2973424528717423"/>
  <path d="M 1.1951506159252994, 102.17994973287061 Q 1.0090424578054973, 100.50309776540199, 0.925329377443334, 87.23807479799262 " fill="none" id="curve_21" stroke="#000000" stroke-linecap="round" stroke-linejoin="round" stroke-width="1.424983005168838"/>
  <path d="M 0.925329377443334, 87.23807479799262 Q 1.0412068704005655, 84.71850018976383, 1.1616204972857604, 79.06175642526802 " fill="none" id="curve_21" stroke="#000000" stroke-linecap="round" stroke-linejoin="round" stroke-width="1.476739216237944"/>
  <path d="M 1.1616204972857604, 79.06175642526802 Q 1.061360693088053, 77.21543947069381, 1.0016311280671908, 68.83885247343673 " fill="none" id="curve_21" stroke="#000000" stroke-linecap="round" stroke-linejoin="round" stroke-width="1.5057659161204195"/>
  <path d="M 1.1996795000926135, 61.74834398587745 Q 1.0905457651689476, 60.298109550471096, 0.9594385501530936, 56.483400526008644 " fill="none" id="curve_22" stroke="#000000" stroke-linecap="round" stroke-linejoin="round" stroke-width="1.359172000710748"/>
  <path d="M 0.9594385501530936, 56.483400526008644 Q 1.0180422324950256, 52.72189788987073, 1.1205554664705246, 46.65340911320813 " fill="none" id="curve_22" stroke="#000000" stroke-linecap="round" stroke-linejoin="round" stroke-width="1.473136576285272"/>
  <path d="M 1.2249833423673906, 40.37212623569538 Q 1.0703706894829141, 37.44611760908992, 0.8396982442324156, 30.7901951398269 " fill="none" id="curve_23" stroke="#000000" stroke-linecap="round" stroke-linejoin="round" stroke-width="1.1581759907679194"/>
  <path d="M 0.8396982442324156, 30.7901951398269 Q 0.878097541731532, 26.368715785349856, 0.9481772007718391, 17.87552183205443 " fill="none" id="curve_23" stroke="#000000" stroke-linecap="round" stroke-linejoin="round" stroke-width="1.4216969456947908"/>
  <path d="M 0.9481772007718391, 17.87552183205443 Q 0.9437161772722137, 12.443929328358191, 0.9364483437656114, 1.3514440532746335 " fill="none" id="curve_23" stroke="#000000" stroke-linecap="round" stroke-linejoin="round" stroke-width="1.4410842816640734"/>
  <path d="M 53.9274119492059, 47.60409502822128 Q 50.31063597144273, 50.68477687026137, 45.17686973244929, 56.51948860778816 " fill="none" id="curve_26" stroke="#000000" stroke-linecap="round" stroke-linejoin="round" stroke-width="2.3012567220806566"/>
  <path d="M 59.74530723235326, 70.5141062760454 Q 59.983366385787335, 69.44900950198651, 60.24984515038096, 68.01928755419667 " fill="none" id="curve_28" stroke="#000000" stroke-linecap="round" stroke-linejoin="round" stroke-width="2.2428488000463576"/>
  <path d="M 32.71344498564901, 71.05115151582585 Q 35.43739765321943, 67.90181933598411, 40.89784334287259, 64.12452243252508 " fill="none" id="curve_30" stroke="#000000" stroke-linecap="round" stroke-linejoin="round" stroke-width="2.3649925524426676"/>
  <path d="M 27.576902428845866, 82.1871679169425 Q 28.743903482811216, 80.49961679235822, 30.582442960924208, 77.36636573320907 " fill="none" id="curve_33" stroke="#000000" stroke-linecap="round" stroke-linejoin="round" stroke-width="2.410050862216677"/>
  <path d="M 0.5313412114235163, 65.52073233596109 Q 0.7937379285418518, 66.03334494664097, 1.1148063394945553, 67.51735730910606 " fill="none" id="curve_67" stroke="#000000" stroke-linecap="round" stroke-linejoin="round" stroke-width="2.0855968341844724"/>
  <path d="M 0.4920400510486027, 45.477969756337004 Q 0.8621023023583636, 44.501632500885776, 1.3094687723949543, 42.40397579341597 " fill="none" id="curve_68" stroke="#000000" stroke-linecap="round" stroke-linejoin="round" stroke-width="1.5372644813288177"/>
  <path d="M 59.37725766906876, 84.7669495157008 Q 58.43920409505448, 84.70362838830012, 57.696672476012054, 84.4661298324861 " fill="none" id="curve_113" stroke="#000000" stroke-linecap="round" stroke-linejoin="round" stroke-width="4.029845005903778"/>
  <path d="M 43.07711642983381, 58.574431303827026 Q 43.70083867561149, 58.89961248218277, 44.5319167706138, 59.599356417085694 " fill="none" id="curve_116" stroke="#000000" stroke-linecap="round" stroke-linejoin="round" stroke-width="2.8765106414398707"/>
  <path d="M 55.03617186326874, 66.48958886092666 Q 55.37551410773603, 66.98286269622149, 55.77117238623811, 68.51638906495701 " fill="none" id="curve_172" stroke="#000000" stroke-linecap="round" stroke-linejoin="round" stroke-width="2.601829932295466"/>
</svg>
