<?xml version="1.0" ?>
<svg height="140" width="140" xmlns="http://www.w3.org/2000/svg">
  <path d="M 53.92549514770508, 102.31741887331009 Q 54.006060321691955, 108.95787508683088, 54.25441636850881, 112.57781897240488 " fill="none" id="curve_1" stroke="#000000" stroke-linecap="round" stroke-linejoin="round" stroke-width="3.1176973581835568"/>
  <path d="M 53.15600472152973, 102.8257959534626 Q 53.36294545398029, 98.17245881904729, 53.644021999961126, 85.27364573193475 " fill="none" id="curve_2" stroke="#000000" stroke-linecap="round" stroke-linejoin="round" stroke-width="5.259504376584124"/>
  <path d="M 53.644021999961126, 85.27364573193475 Q 53.86028208400954, 83.33491553532295, 53.97522376516866, 64.14359035747547 " fill="none" id="curve_2" stroke="#000000" stroke-linecap="round" stroke-linejoin="round" stroke-width="5.600424682970703"/>
  <path d="M 53.97522376516866, 64.14359035747547 Q 55.61476159766738, 58.62903564805877, 57.23755030096093, 43.09222777515697 " fill="none" id="curve_2" stroke="#000000" stroke-linecap="round" stroke-linejoin="round" stroke-width="6.5046664835495855"/>
  <path d="M 57.23755030096093, 43.09222777515697 Q 52.79041301422917, 52.62579759104482, 40.67650094967406, 72.53159209512668 " fill="none" id="curve_2" stroke="#000000" stroke-linecap="round" stroke-linejoin="round" stroke-width="5.56768098511673"/>
  <path d="M 40.67650094967406, 72.53159209512668 Q 34.88201646623272, 85.75593451607314, 20.773211643243787, 101.97289206088165 " fill="none" id="curve_2" stroke="#000000" stroke-linecap="round" stroke-linejoin="round" stroke-width="4.224251336905869"/>
  <path d="M 20.773211643243787, 101.97289206088165 Q 26.214867057220808, 101.43667928142118, 26.81990125909732, 92.36710303754698 " fill="none" id="curve_2" stroke="#000000" stroke-linecap="round" stroke-linejoin="round" stroke-width="4.844044368524513"/>
  <path d="M 57.68162483469078, 40.87933099000108 Q 57.40879592347358, 40.64780812861407, 57.15381242310108, 40.237542967015536 " fill="none" id="curve_4" stroke="#000000" stroke-linecap="round" stroke-linejoin="round" stroke-width="4.50035914362488"/>
  <path d="M 40.13623243831595, 71.38438060971306 Q 44.01081332675574, 62.60002973658031, 53.89391975448839, 55.10992250545645 " fill="none" id="curve_5" stroke="#000000" stroke-linecap="round" stroke-linejoin="round" stroke-width="3.0116075803984104"/>
  <path d="M 29.230552668661364, 90.47397605651636 Q 25.422131374342477, 93.92335540513811, 21.83941336910241, 99.25384226979438 " fill="none" id="curve_6" stroke="#000000" stroke-linecap="round" stroke-linejoin="round" stroke-width="3.9829098609535833"/>
  <path d="M 40.63984989717676, 70.47390309389114 Q 42.78785533796369, 62.22831209822906, 50.58001282163062, 57.440360406756255 " fill="none" id="curve_7" stroke="#000000" stroke-linecap="round" stroke-linejoin="round" stroke-width="3.1846306620420295"/>
  <path d="M 57.76976758560144, 40.92214007808571 Q 57.1975182885083, 40.7162139861965, 56.33727489866178, 40.401747190578185 " fill="none" id="curve_11" stroke="#000000" stroke-linecap="round" stroke-linejoin="round" stroke-width="3.39927631288829"/>
  <path d="M 56.33727489866178, 40.401747190578185 Q 57.31719905639854, 40.37268376276305, 58.506599110934204, 40.29307051132407 " fill="none" id="curve_11" stroke="#000000" stroke-linecap="round" stroke-linejoin="round" stroke-width="2.707872063076017"/>
  <path d="M 49.00944218902839, 56.884570144523394 Q 47.66434853851706, 59.33130284659339, 44.51021008050076, 62.507125892157795 " fill="none" id="curve_13" stroke="#000000" stroke-linecap="round" stroke-linejoin="round" stroke-width="3.0546446372624496"/>
  <path d="M 53.51642889422179, 105.33570538856443 Q 53.4810219260283, 105.63150932745137, 53.427104856436145, 106.13868117856433 " fill="none" id="curve_43" stroke="#000000" stroke-linecap="round" stroke-linejoin="round" stroke-width="2.7756978568093063"/>
  <path d="M 55.81188733775549, 86.52588838012713 Q 55.42279565866351, 87.95629358613259, 54.68462960283244, 89.79502523236806 " fill="none" id="curve_45" stroke="#000000" stroke-linecap="round" stroke-linejoin="round" stroke-width="2.9580651015034647"/>
  <path d="M 51.909155281370886, 59.90320623030607 Q 51.579583991089784, 58.59258257363363, 46.18886314225504, 58.346816854602345 " fill="none" id="curve_60" stroke="#000000" stroke-linecap="round" stroke-linejoin="round" stroke-width="4.236300554804662"/>
  <path d="M 43.603246482427025, 66.11309770363893 Q 39.03947779777277, 70.35497648110702, 36.13474700310596, 79.90752975970562 " fill="none" id="curve_62" stroke="#000000" stroke-linecap="round" stroke-linejoin="round" stroke-width="2.740621100908489"/>
  <path d="M 26.559648938226843, 91.0338809719365 Q 25.67397830024055, 92.96428671722953, 24.51183328294777, 95.94191367248324 " fill="none" id="curve_63" stroke="#000000" stroke-linecap="round" stroke-linejoin="round" stroke-width="3.0759111795747422"/>
</svg>
