<?xml version="1.0" ?>
<svg height="140" width="140" xmlns="http://www.w3.org/2000/svg">
  <path d="M 73.66702842712402, 44.177690505981445 Q 69.7376683981415, 45.53926582933854, 65.91437469281192, 52.00930306423635 " fill="none" id="curve_1" stroke="#000000" stroke-linecap="round" stroke-linejoin="round" stroke-width="8.806975999732321"/>
  <path d="M 65.91437469281192, 52.00930306423635 Q 59.70273381810743, 57.24615457918339, 44.40163621885125, 70.19100986130428 " fill="none" id="curve_1" stroke="#000000" stroke-linecap="round" stroke-linejoin="round" stroke-width="6.06378604812331"/>
  <path d="M 44.40163621885125, 70.19100986130428 Q 38.17012074302991, 75.06232579759337, 31.689261966145605, 80.64870928178736 " fill="none" id="curve_1" stroke="#000000" stroke-linecap="round" stroke-linejoin="round" stroke-width="6.556504295408953"/>
  <path d="M 31.689261966145605, 80.64870928178736 Q 33.13884262985559, 91.92934208483001, 59.59325354040678, 93.13574444401775 " fill="none" id="curve_1" stroke="#000000" stroke-linecap="round" stroke-linejoin="round" stroke-width="3.0694116148635815"/>
  <path d="M 59.59325354040678, 93.13574444401775 Q 62.701620258303706, 83.77952464567574, 68.57527379429484, 56.20220249602207 " fill="none" id="curve_1" stroke="#000000" stroke-linecap="round" stroke-linejoin="round" stroke-width="7.569592095144468"/>
  <path d="M 68.57527379429484, 56.20220249602207 Q 70.96269549183606, 50.74772156681556, 73.34302973022778, 42.10419511877059 " fill="none" id="curve_1" stroke="#000000" stroke-linecap="round" stroke-linejoin="round" stroke-width="4.11070120926608"/>
  <path d="M 63.33619878096236, 70.51659478700056 Q 62.027532293081606, 82.13180097910468, 60.66163629311966, 96.7798735319034 " fill="none" id="curve_2" stroke="#000000" stroke-linecap="round" stroke-linejoin="round" stroke-width="3.923369599911871"/>
  <path d="M 60.66163629311966, 96.7798735319034 Q 61.39761770878696, 79.62893424269885, 65.95855690866519, 72.04565489809048 " fill="none" id="curve_2" stroke="#000000" stroke-linecap="round" stroke-linejoin="round" stroke-width="5.827867704772265"/>
  <path d="M 65.95855690866519, 72.04565489809048 Q 62.54483207999298, 77.46730377761192, 60.77840329750968, 88.94614736885546 " fill="none" id="curve_2" stroke="#000000" stroke-linecap="round" stroke-linejoin="round" stroke-width="5.037457331472852"/>
  <path d="M 60.77840329750968, 88.94614736885546 Q 64.01899594058102, 86.07628679749092, 64.90937149637642, 68.55781694380438 " fill="none" id="curve_2" stroke="#000000" stroke-linecap="round" stroke-linejoin="round" stroke-width="5.050741272211869"/>
  <path d="M 72.86369035856053, 43.638648564996096 Q 70.64737116968304, 44.12693477180404, 68.78804630403619, 45.19782860324767 " fill="none" id="curve_3" stroke="#000000" stroke-linecap="round" stroke-linejoin="round" stroke-width="5.831579497886025"/>
  <path d="M 45.68290458130393, 68.22813303984915 Q 42.532268899974056, 70.42255313092562, 37.05064421229428, 75.4667576131171 " fill="none" id="curve_4" stroke="#000000" stroke-linecap="round" stroke-linejoin="round" stroke-width="4.184507376009798"/>
  <path d="M 57.11705682194494, 60.286100664514635 Q 49.97516916896618, 67.01101124749266, 36.10643502495411, 75.67474287626568 " fill="none" id="curve_5" stroke="#000000" stroke-linecap="round" stroke-linejoin="round" stroke-width="3.597335297221325"/>
  <path d="M 36.10643502495411, 75.67474287626568 Q 45.378482876639445, 71.18693818044991, 54.25283579454265, 62.998296505319495 " fill="none" id="curve_5" stroke="#000000" stroke-linecap="round" stroke-linejoin="round" stroke-width="3.5993806489377485"/>
  <path d="M 54.25283579454265, 62.998296505319495 Q 47.20159892405858, 67.23852657665157, 38.12010129778419, 74.62867955526218 " fill="none" id="curve_5" stroke="#000000" stroke-linecap="round" stroke-linejoin="round" stroke-width="3.8836876652996537"/>
  <path d="M 38.12010129778419, 74.62867955526218 Q 35.397085690554846, 79.20715524125652, 29.26434728492103, 81.98623757087049 " fill="none" id="curve_5" stroke="#000000" stroke-linecap="round" stroke-linejoin="round" stroke-width="4.361422543307284"/>
  <path d="M 68.12043739659157, 63.44596851074269 Q 65.0988579484703, 71.36668675431294, 60.448303909934, 83.47495384210129 " fill="none" id="curve_7" stroke="#000000" stroke-linecap="round" stroke-linejoin="round" stroke-width="3.782910639299915"/>
  <path d="M 37.57151176699352, 75.36456763553444 Q 46.31940323521927, 70.38778175385339, 56.06471557025998, 61.00092201451879 " fill="none" id="curve_10" stroke="#000000" stroke-linecap="round" stroke-linejoin="round" stroke-width="2.9805275354703693"/>
  <path d="M 56.06471557025998, 61.00092201451879 Q 50.96295499353947, 66.54414116346781, 40.22825177703285, 72.25983890024602 " fill="none" id="curve_10" stroke="#000000" stroke-linecap="round" stroke-linejoin="round" stroke-width="4.016448318618877"/>
  <path d="M 40.22825177703285, 72.25983890024602 Q 45.021766306752, 68.37612715046932, 52.89092710933181, 64.23562570981858 " fill="none" id="curve_10" stroke="#000000" stroke-linecap="round" stroke-linejoin="round" stroke-width="3.5861831574151886"/>
  <path d="M 52.89092710933181, 64.23562570981858 Q 47.09909433764228, 67.3214434652743, 40.48577877460197, 73.18458598500331 " fill="none" id="curve_10" stroke="#000000" stroke-linecap="round" stroke-linejoin="round" stroke-width="4.212823243099479"/>
  <path d="M 40.48577877460197, 73.18458598500331 Q 44.482700359636254, 68.04236502764985, 53.77913722492428, 63.90084607935293 " fill="none" id="curve_10" stroke="#000000" stroke-linecap="round" stroke-linejoin="round" stroke-width="3.443400061386964"/>
  <path d="M 41.62739178682856, 72.32982028669895 Q 45.4092306601774, 68.26683313043384, 52.66331197584838, 63.159307578608896 " fill="none" id="curve_11" stroke="#000000" stroke-linecap="round" stroke-linejoin="round" stroke-width="3.2116898280301927"/>
  <path d="M 63.82653941216577, 66.15968386247505 Q 65.6207487560941, 64.2545346503375, 67.20163705274699, 55.75533547356479 " fill="none" id="curve_26" stroke="#000000" stroke-linecap="round" stroke-linejoin="round" stroke-width="2.891352687161097"/>
  <path d="M 40.599775355976774, 73.53589523871202 Q 46.852539212945906, 69.10397976485035, 55.6526647198289, 60.9411879827086 " fill="none" id="curve_37" stroke="#000000" stroke-linecap="round" stroke-linejoin="round" stroke-width="2.818450931349105"/>
  <path d="M 43.20920808318154, 70.31481937057346 Q 49.11808977294289, 67.38974276291972, 55.32448480143784, 60.69999563109115 " fill="none" id="curve_38" stroke="#000000" stroke-linecap="round" stroke-linejoin="round" stroke-width="3.044857140636511"/>
  <path d="M 60.8730129620709, 77.00427207328107 Q 65.21553227968593, 74.05025062373402, 67.66005473909918, 64.11942597465857 " fill="none" id="curve_53" stroke="#000000" stroke-linecap="round" stroke-linejoin="round" stroke-width="4.549663863050692"/>
  <path d="M 36.27006417745239, 77.36752509479466 Q 46.93015931914589, 70.91067521355399, 59.406157192946225, 56.47035245122777 " fill="none" id="curve_57" stroke="#000000" stroke-linecap="round" stroke-linejoin="round" stroke-width="2.9281201762046165"/>
  <path d="M 51.69034385681152, 66.16308307647705 Q 44.85223988155884, 67.22440159239794, 39.75095359151328, 73.61894805265524 " fill="none" id="curve_84" stroke="#000000" stroke-linecap="round" stroke-linejoin="round" stroke-width="4.210324038835226"/>
  <path d="M 39.75095359151328, 73.61894805265524 Q 43.90999745699119, 69.11843504589191, 54.01143646359792, 64.00571289986195 " fill="none" id="curve_84" stroke="#000000" stroke-linecap="round" stroke-linejoin="round" stroke-width="3.055853034927815"/>
  <path d="M 54.01143646359792, 64.00571289986195 Q 47.99108572679359, 66.91659462458705, 41.073117818460204, 72.16777787118495 " fill="none" id="curve_84" stroke="#000000" stroke-linecap="round" stroke-linejoin="round" stroke-width="4.411166537032249"/>
  <path d="M 41.073117818460204, 72.16777787118495 Q 45.483855717540585, 68.28477384231293, 52.37390460657961, 63.589510318759665 " fill="none" id="curve_84" stroke="#000000" stroke-linecap="round" stroke-linejoin="round" stroke-width="3.3791202569343137"/>
  <path d="M 51.960134506225586, 63.11192989349365 Q 50.59091973490982, 67.70434806539005, 41.741141338388616, 70.05199620931057 " fill="none" id="curve_124" stroke="#000000" stroke-linecap="round" stroke-linejoin="round" stroke-width="5.218828166608869"/>
  <path d="M 61.894927978515625, 68.1320104598999 Q 66.55618290054021, 67.91519394288505, 68.46117953325097, 66.14572493624044 " fill="none" id="curve_138" stroke="#000000" stroke-linecap="round" stroke-linejoin="round" stroke-width="5.411424096816959"/>
</svg>
