<?xml version="1.0" ?>
<svg height="140" width="140" xmlns="http://www.w3.org/2000/svg">
  <path d="M 59.9762077331543, 5.743795394897461 Q 60.02507758738173, 5.333933936946218, 60.14102593617821, 4.708048155231097 " fill="none" id="curve_1" stroke="#000000" stroke-linecap="round" stroke-linejoin="round" stroke-width="10.047006993964846"/>
  <path d="M 60.14102593617821, 4.708048155231097 Q 53.99605308504212, 9.97827266400719, 41.783161385218634, 21.732987496162345 " fill="none" id="curve_1" stroke="#000000" stroke-linecap="round" stroke-linejoin="round" stroke-width="6.6541805347896625"/>
  <path d="M 41.783161385218634, 21.732987496162345 Q 35.41136071947386, 28.67195448301102, 17.790309325216498, 49.98078200161399 " fill="none" id="curve_1" stroke="#000000" stroke-linecap="round" stroke-linejoin="round" stroke-width="5.962868179721539"/>
  <path d="M 17.790309325216498, 49.98078200161399 Q 17.8131574794618, 52.16550996666194, 18.106594531748694, 52.540215192949596 " fill="none" id="curve_1" stroke="#000000" stroke-linecap="round" stroke-linejoin="round" stroke-width="6.878013448907549"/>
  <path d="M 53.13033281864209, 35.258749095280976 Q 48.7966963848727, 48.220774790326445, 31.601306035166633, 78.32223466533486 " fill="none" id="curve_2" stroke="#000000" stroke-linecap="round" stroke-linejoin="round" stroke-width="5.704295440468998"/>
  <path d="M 31.601306035166633, 78.32223466533486 Q 28.263242036926528, 84.64788094567685, 26.77028560824629, 102.27660461811737 " fill="none" id="curve_2" stroke="#000000" stroke-linecap="round" stroke-linejoin="round" stroke-width="6.224578866633323"/>
  <path d="M 26.77028560824629, 102.27660461811737 Q 28.374378950126438, 102.26895207639727, 29.406381100188213, 102.24840777234668 " fill="none" id="curve_2" stroke="#000000" stroke-linecap="round" stroke-linejoin="round" stroke-width="6.95559444056823"/>
  <path d="M 53.09279839849558, 35.79195189554591 Q 57.444007626306494, 27.385607432854542, 61.74500202306769, 8.788554846977245 " fill="none" id="curve_4" stroke="#000000" stroke-linecap="round" stroke-linejoin="round" stroke-width="5.7932480891866796"/>
  <path d="M 49.79690379276262, 39.78293547512763 Q 44.35767735240791, 51.92497423879773, 34.168714323068734, 69.19036149154206 " fill="none" id="curve_5" stroke="#000000" stroke-linecap="round" stroke-linejoin="round" stroke-width="3.445457592912912"/>
  <path d="M 14.955605994211297, 51.063080483543 Q 18.466347171836013, 44.72425017824142, 27.269512614578368, 35.90897004584207 " fill="none" id="curve_6" stroke="#000000" stroke-linecap="round" stroke-linejoin="round" stroke-width="2.917076810614486"/>
  <path d="M 60.700153274269795, 13.01857051872987 Q 56.526762248758665, 21.924267633159502, 50.97299664238202, 37.16479881312485 " fill="none" id="curve_9" stroke="#000000" stroke-linecap="round" stroke-linejoin="round" stroke-width="3.220704377979022"/>
  <path d="M 35.442939569925976, 26.513136512747455 Q 29.37475817373513, 30.980658429372863, 23.00991394717517, 41.083580811430394 " fill="none" id="curve_10" stroke="#000000" stroke-linecap="round" stroke-linejoin="round" stroke-width="3.100556301005068"/>
  <path d="M 23.00991394717517, 41.083580811430394 Q 21.140926481106842, 47.84269108477365, 18.87761400671939, 54.283370849637805 " fill="none" id="curve_10" stroke="#000000" stroke-linecap="round" stroke-linejoin="round" stroke-width="3.5029269352689583"/>
  <path d="M 34.08508660773633, 76.35254998058741 Q 32.320166529456266, 85.79114003164037, 26.3146183840931, 91.16084279233729 " fill="none" id="curve_11" stroke="#000000" stroke-linecap="round" stroke-linejoin="round" stroke-width="2.830621162265245"/>
  <path d="M 26.3146183840931, 91.16084279233729 Q 27.22452541307858, 98.40889604273818, 31.57246318090872, 99.84021201618759 " fill="none" id="curve_11" stroke="#000000" stroke-linecap="round" stroke-linejoin="round" stroke-width="4.431692603527691"/>
  <path d="M 24.14933193576991, 99.80488085462343 Q 24.816642063642163, 91.3212328745836, 28.624221809996286, 87.47666023296935 " fill="none" id="curve_12" stroke="#000000" stroke-linecap="round" stroke-linejoin="round" stroke-width="3.164057726389717"/>
  <path d="M 57.40414589277796, 20.280029650992475 Q 57.92737696726815, 14.73436347664971, 59.32099558318256, 11.148208399987215 " fill="none" id="curve_15" stroke="#000000" stroke-linecap="round" stroke-linejoin="round" stroke-width="3.505081358214064"/>
  <path d="M 51.91394680239057, 42.166177919762845 Q 51.95056423744711, 39.62121449215937, 52.02204813275744, 36.58478655668726 " fill="none" id="curve_16" stroke="#000000" stroke-linecap="round" stroke-linejoin="round" stroke-width="3.6741161057803735"/>
  <path d="M 36.58568832938729, 71.69118077025882 Q 35.75703436104195, 72.11587299723507, 34.66806880875583, 72.94777368056444 " fill="none" id="curve_17" stroke="#000000" stroke-linecap="round" stroke-linejoin="round" stroke-width="4.486584154607501"/>
  <path d="M 32.27950769009158, 71.49565494406829 Q 34.431974474075254, 70.72503792643927, 37.543348008781194, 69.43164425459838 " fill="none" id="curve_32" stroke="#000000" stroke-linecap="round" stroke-linejoin="round" stroke-width="3.020779321258497"/>
  <path d="M 57.665086366366516, 23.494889644658592 Q 58.86043621693599, 19.210113652742827, 60.55283325132008, 12.54048380053224 " fill="none" id="curve_55" stroke="#000000" stroke-linecap="round" stroke-linejoin="round" stroke-width="3.6995179746527964"/>
  <path d="M 55.765946278670256, 22.931213853151654 Q 59.64735505735001, 20.45630282830899, 62.221892696084076, 9.59573721740758 " fill="none" id="curve_61" stroke="#000000" stroke-linecap="round" stroke-linejoin="round" stroke-width="2.6325141243316375"/>
  <path d="M 57.408615596497654, 22.60741626915886 Q 57.93096292011319, 18.147930962984248, 59.78422754098544, 14.822841736687757 " fill="none" id="curve_124" stroke="#000000" stroke-linecap="round" stroke-linejoin="round" stroke-width="3.466781402810123"/>
</svg>
