<?xml version="1.0" ?>
<svg height="140" width="140" xmlns="http://www.w3.org/2000/svg">
  <path d="M 48.70133018493652, 37.68047332763672 Q 48.53520569822346, 35.72430356187224, 46.88870449884257, 35.3098616231691 " fill="none" id="curve_1" stroke="#000000" stroke-linecap="round" stroke-linejoin="round" stroke-width="5.871778692283371"/>
  <path d="M 46.88870449884257, 35.3098616231691 Q 43.685255130966546, 42.468506501583306, 31.928552826285014, 60.92013527452454 " fill="none" id="curve_1" stroke="#000000" stroke-linecap="round" stroke-linejoin="round" stroke-width="4.237641744291231"/>
  <path d="M 31.928552826285014, 60.92013527452454 Q 25.453674236233674, 68.92101623514897, 13.997876790015312, 84.46320103316404 " fill="none" id="curve_1" stroke="#000000" stroke-linecap="round" stroke-linejoin="round" stroke-width="5.0936694051721725"/>
  <path d="M 50.06791926405953, 99.23461825152287 Q 47.71971009527028, 93.33642576975912, 45.7250662681432, 71.77649212797895 " fill="none" id="curve_2" stroke="#000000" stroke-linecap="round" stroke-linejoin="round" stroke-width="4.418503757959612"/>
  <path d="M 45.7250662681432, 71.77649212797895 Q 47.19027110508307, 64.78090984695882, 48.60531895384009, 38.80307557395643 " fill="none" id="curve_2" stroke="#000000" stroke-linecap="round" stroke-linejoin="round" stroke-width="4.849191750326624"/>
  <path d="M 14.13741549568732, 84.49535746934032 Q 15.63117375006705, 83.89884858571297, 16.800173084133426, 82.64349327145347 " fill="none" id="curve_4" stroke="#000000" stroke-linecap="round" stroke-linejoin="round" stroke-width="5.77819696257431"/>
  <path d="M 16.800173084133426, 82.64349327145347 Q 23.962066588376576, 70.01728316071598, 38.47921545014607, 52.279911126153195 " fill="none" id="curve_4" stroke="#000000" stroke-linecap="round" stroke-linejoin="round" stroke-width="3.010284162535576"/>
  <path d="M 46.750405750767634, 85.4132483105865 Q 46.345701793758735, 76.5047282033671, 45.304039370398165, 69.53513568137507 " fill="none" id="curve_5" stroke="#000000" stroke-linecap="round" stroke-linejoin="round" stroke-width="2.777335999640236"/>
  <path d="M 47.50407879803979, 84.09828061507501 Q 46.368765055826444, 79.962107999826, 45.3062147806066, 71.14104112950395 " fill="none" id="curve_6" stroke="#000000" stroke-linecap="round" stroke-linejoin="round" stroke-width="3.291628306336165"/>
  <path d="M 48.56613671219515, 43.44250926351108 Q 48.11773368246181, 53.48104363275484, 46.26878147789987, 58.82617590644955 " fill="none" id="curve_7" stroke="#000000" stroke-linecap="round" stroke-linejoin="round" stroke-width="3.0743018566951243"/>
  <path d="M 12.882790252804561, 85.16061513218179 Q 12.604263394253806, 84.88389735548297, 12.281730206330801, 84.35768940152298 " fill="none" id="curve_8" stroke="#000000" stroke-linecap="round" stroke-linejoin="round" stroke-width="3.8744486782267287"/>
  <path d="M 47.5389498382894, 78.29454933302793 Q 46.811889715668215, 75.5425837335391, 45.72287711432696, 71.75759974991752 " fill="none" id="curve_13" stroke="#000000" stroke-linecap="round" stroke-linejoin="round" stroke-width="4.361510609073313"/>
  <path d="M 39.80824661254883, 40.75326156616211 Q 42.11563598078068, 42.344391729677355, 46.66315437995984, 44.8013548849918 " fill="none" id="curve_27" stroke="#000000" stroke-linecap="round" stroke-linejoin="round" stroke-width="3.3672527819325433"/>
  <path d="M 43.94333267211914, 66.37628555297852 Q 43.992992403127595, 78.82435878109231, 44.68000348225016, 81.29372999412885 " fill="none" id="curve_80" stroke="#000000" stroke-linecap="round" stroke-linejoin="round" stroke-width="3.2151612798405287"/>
  <path d="M 44.68000348225016, 81.29372999412885 Q 47.77749274413457, 85.10981637621684, 49.896193378517594, 90.80178209160627 " fill="none" id="curve_80" stroke="#000000" stroke-linecap="round" stroke-linejoin="round" stroke-width="2.1199444748178524"/>
  <path d="M 25.001718879412085, 68.41175963764115 Q 34.01547564211309, 62.66902163785232, 42.08158825638708, 44.00079922260323 " fill="none" id="curve_87" stroke="#000000" stroke-linecap="round" stroke-linejoin="round" stroke-width="2.362164051965794"/>
  <path d="M 47.208151383776936, 34.02430742639394 Q 46.91788031406542, 34.25299017084173, 46.37706906498776, 34.603895593630654 " fill="none" id="curve_88" stroke="#000000" stroke-linecap="round" stroke-linejoin="round" stroke-width="3.2088718761356665"/>
  <path d="M 48.36330922446453, 53.41402058805505 Q 48.26224807936051, 52.52389621936533, 48.1084506872159, 51.40485886005279 " fill="none" id="curve_103" stroke="#000000" stroke-linecap="round" stroke-linejoin="round" stroke-width="4.6355875279508005"/>
  <path d="M 45.864524370857254, 52.07464190698494 Q 46.04000836184987, 56.05991321193511, 46.461672250560746, 59.37822455564825 " fill="none" id="curve_118" stroke="#000000" stroke-linecap="round" stroke-linejoin="round" stroke-width="2.2677937256903284"/>
  <path d="M 38.2646330937356, 53.74980601534623 Q 31.708182235408096, 61.8195070477244, 20.02030391964223, 73.9421959480542 " fill="none" id="curve_136" stroke="#000000" stroke-linecap="round" stroke-linejoin="round" stroke-width="2.6354431570082624"/>
</svg>
