<?xml version="1.0" ?>
<svg height="140" width="140" xmlns="http://www.w3.org/2000/svg">
  <path d="M 58.67294404761322, 99.86570243572596 Q 55.805566338303265, 98.53900483245438, 54.76431544694479, 66.41886350985284 " fill="none" id="curve_4" stroke="#000000" stroke-linecap="round" stroke-linejoin="round" stroke-width="4.464880085964288"/>
  <path d="M 54.76431544694479, 66.41886350985284 Q 49.80419038612998, 70.67135372226315, 40.75640705932739, 95.81358975191942 " fill="none" id="curve_4" stroke="#000000" stroke-linecap="round" stroke-linejoin="round" stroke-width="3.634191964250624"/>
  <path d="M 40.75640705932739, 95.81358975191942 Q 37.49158542220004, 102.59678650036848, 33.422327908755705, 109.58150078939195 " fill="none" id="curve_4" stroke="#000000" stroke-linecap="round" stroke-linejoin="round" stroke-width="3.854647102945807"/>
  <path d="M 51.59043014128859, 66.8149675914639 Q 54.12756536807734, 66.18768145355594, 54.3351898527355, 47.987267113061364 " fill="none" id="curve_6" stroke="#000000" stroke-linecap="round" stroke-linejoin="round" stroke-width="4.278443051120754"/>
  <path d="M 54.3351898527355, 47.987267113061364 Q 54.859204024298634, 44.034135580899765, 55.17088025280095, 23.99907065050255 " fill="none" id="curve_6" stroke="#000000" stroke-linecap="round" stroke-linejoin="round" stroke-width="2.9433958633206516"/>
  <path d="M 55.17088025280095, 23.99907065050255 Q 55.22846265631526, 22.907763252874123, 55.33160605700962, 22.05111107808633 " fill="none" id="curve_6" stroke="#000000" stroke-linecap="round" stroke-linejoin="round" stroke-width="2.5974482035740545"/>
  <path d="M 53.34651195858051, 60.52714551216348 Q 49.98928005013704, 68.12202468413862, 45.836259462773704, 87.44144396428115 " fill="none" id="curve_7" stroke="#000000" stroke-linecap="round" stroke-linejoin="round" stroke-width="2.2198872365757008"/>
  <path d="M 57.687337166678255, 101.87796876738471 Q 57.71987217666516, 101.68632724319673, 57.76634602649185, 101.40389069342321 " fill="none" id="curve_8" stroke="#000000" stroke-linecap="round" stroke-linejoin="round" stroke-width="2.581526995396141"/>
  <path d="M 53.29363602889652, 67.88675542530812 Q 53.31292726151287, 63.767537048887576, 53.41067993584662, 62.546782913509034 " fill="none" id="curve_9" stroke="#000000" stroke-linecap="round" stroke-linejoin="round" stroke-width="6.8739322600041595"/>
  <path d="M 55.35476558272653, 75.99972565867165 Q 54.93918672670124, 65.49730722630372, 53.367076505636156, 59.12157191899955 " fill="none" id="curve_37" stroke="#000000" stroke-linecap="round" stroke-linejoin="round" stroke-width="3.725980766548762"/>
  <path d="M 55.63219309764577, 74.24041784815199 Q 55.47686459252245, 64.44652872428092, 53.40096928834244, 62.48411046428071 " fill="none" id="curve_52" stroke="#000000" stroke-linecap="round" stroke-linejoin="round" stroke-width="2.8122478006604674"/>
  <path d="M 53.40096928834244, 62.48411046428071 Q 50.60101378024732, 64.24745921489291, 49.064977124739784, 70.39988541848493 " fill="none" id="curve_52" stroke="#000000" stroke-linecap="round" stroke-linejoin="round" stroke-width="2.781189495102328"/>
  <path d="M 58.53213644240719, 97.40587423327526 Q 56.25171716288204, 93.7639669654104, 54.209954872200235, 85.10474813917843 " fill="none" id="curve_67" stroke="#000000" stroke-linecap="round" stroke-linejoin="round" stroke-width="2.207673652610399"/>
  <path d="M 38.13221503380622, 98.43584122744606 Q 41.5964775061122, 93.1773447870638, 46.73677446109917, 86.31518069186525 " fill="none" id="curve_68" stroke="#000000" stroke-linecap="round" stroke-linejoin="round" stroke-width="2.26926323425308"/>
  <path d="M 57.85046012230042, 95.38302477106326 Q 57.170114052880656, 95.02016890889001, 56.51352788870956, 94.48551437094866 " fill="none" id="curve_69" stroke="#000000" stroke-linecap="round" stroke-linejoin="round" stroke-width="5.179846221370321"/>
  <path d="M 54.36372095554795, 31.431228237623806 Q 54.448806113544755, 30.901933337620484, 54.56439506602694, 30.09163283560705 " fill="none" id="curve_71" stroke="#000000" stroke-linecap="round" stroke-linejoin="round" stroke-width="2.257078764243686"/>
  <path d="M 52.38877427549005, 62.08034537020649 Q 52.42264395320903, 60.957151450626625, 52.54595535008793, 59.875213483605144 " fill="none" id="curve_86" stroke="#000000" stroke-linecap="round" stroke-linejoin="round" stroke-width="3.1314042832563067"/>
</svg>
