<?xml version="1.0" ?>
<svg height="140" width="140" xmlns="http://www.w3.org/2000/svg">
  <path d="M 57.23352816297748, 36.26607722468016 Q 54.424722238035656, 42.5220862826732, 45.708061120754685, 52.322832233986944 " fill="none" id="curve_2" stroke="#000000" stroke-linecap="round" stroke-linejoin="round" stroke-width="5.245979056395412"/>
  <path d="M 45.708061120754685, 52.322832233986944 Q 40.50715993156742, 62.89274471634066, 22.49195373570067, 83.25550258928736 " fill="none" id="curve_2" stroke="#000000" stroke-linecap="round" stroke-linejoin="round" stroke-width="4.521266719537248"/>
  <path d="M 22.49195373570067, 83.25550258928736 Q 18.61905527268692, 88.78207775068897, 10.834266012994089, 92.82315548850748 " fill="none" id="curve_2" stroke="#000000" stroke-linecap="round" stroke-linejoin="round" stroke-width="3.946910714254113"/>
  <path d="M 47.12686456466308, 91.1399747818633 Q 48.4515435728391, 79.38038192471087, 53.01179169879963, 58.24510809334322 " fill="none" id="curve_3" stroke="#000000" stroke-linecap="round" stroke-linejoin="round" stroke-width="4.530725298240287"/>
  <path d="M 53.01179169879963, 58.24510809334322 Q 53.61985351659853, 45.359218681328784, 57.67729001888193, 40.63644273567796 " fill="none" id="curve_3" stroke="#000000" stroke-linecap="round" stroke-linejoin="round" stroke-width="3.867023301039542"/>
  <path d="M 50.48497561667001, 89.71930999633804 Q 50.94787010833495, 89.45658620669822, 51.09613339303841, 87.75265482600666 " fill="none" id="curve_5" stroke="#000000" stroke-linecap="round" stroke-linejoin="round" stroke-width="6.85865375100841"/>
  <path d="M 43.47205029817433, 52.98206449995057 Q 38.24683867605076, 63.15760229010626, 28.78312270569294, 78.4064174928684 " fill="none" id="curve_6" stroke="#000000" stroke-linecap="round" stroke-linejoin="round" stroke-width="2.4474079039402783"/>
  <path d="M 33.52552894256206, 72.24861768131815 Q 27.416162921449143, 77.65270890181019, 17.918524155195044, 86.26320374213415 " fill="none" id="curve_7" stroke="#000000" stroke-linecap="round" stroke-linejoin="round" stroke-width="2.9220080115420233"/>
  <path d="M 48.91397702236259, 75.92499036232859 Q 47.33831804245031, 79.1475204727299, 46.36922211014832, 90.13338972448419 " fill="none" id="curve_9" stroke="#000000" stroke-linecap="round" stroke-linejoin="round" stroke-width="2.7028597087028436"/>
  <path d="M 8.998122917121918, 93.71098194234003 Q 8.984153442193037, 93.31236115551434, 8.964924604640368, 92.77178178793567 " fill="none" id="curve_24" stroke="#000000" stroke-linecap="round" stroke-linejoin="round" stroke-width="2.882476170825132"/>
  <path d="M 45.45467193661146, 92.151990337413 Q 46.152092761916364, 91.28153195577666, 47.432127376108596, 90.34583458701731 " fill="none" id="curve_25" stroke="#000000" stroke-linecap="round" stroke-linejoin="round" stroke-width="3.5835098610652256"/>
  <path d="M 47.361635289079004, 74.14946068662107 Q 47.903701279237886, 74.32784108739983, 48.26209220327405, 75.04494963079739 " fill="none" id="curve_40" stroke="#000000" stroke-linecap="round" stroke-linejoin="round" stroke-width="3.5914073818953116"/>
  <path d="M 39.1920697891612, 60.9800795888853 Q 35.74821148497529, 64.52728259592733, 31.060239947589228, 72.85095906479731 " fill="none" id="curve_41" stroke="#000000" stroke-linecap="round" stroke-linejoin="round" stroke-width="2.3476950223636406"/>
  <path d="M 28.504084205744103, 75.39633296745848 Q 25.862111172173243, 76.36316782364638, 23.524726544091898, 79.04535752418528 " fill="none" id="curve_83" stroke="#000000" stroke-linecap="round" stroke-linejoin="round" stroke-width="2.669398798079396"/>
</svg>
