<?xml version="1.0" ?>
<svg height="140" width="140" xmlns="http://www.w3.org/2000/svg">
  <path d="M 60.62041091918945, 47.74411392211914 Q 59.90547198107746, 48.1721155955791, 59.300464582110266, 51.10831441191988 " fill="none" id="curve_1" stroke="#000000" stroke-linecap="round" stroke-linejoin="round" stroke-width="6.285241169090287"/>
  <path d="M 59.300464582110266, 51.10831441191988 Q 54.37318200621319, 56.788816195205584, 33.63519027088067, 78.49829284308387 " fill="none" id="curve_1" stroke="#000000" stroke-linecap="round" stroke-linejoin="round" stroke-width="4.583813596280437"/>
  <path d="M 33.63519027088067, 78.49829284308387 Q 27.037126146251424, 86.25572146098925, 15.372979742295524, 100.27830549244486 " fill="none" id="curve_1" stroke="#000000" stroke-linecap="round" stroke-linejoin="round" stroke-width="4.523973333194479"/>
  <path d="M 49.799839655143884, 103.01114430757914 Q 50.32179057125458, 85.06839394222186, 56.44027190018195, 68.71173716065925 " fill="none" id="curve_2" stroke="#000000" stroke-linecap="round" stroke-linejoin="round" stroke-width="4.959732873319241"/>
  <path d="M 56.44027190018195, 68.71173716065925 Q 58.57894490840537, 61.56691418332565, 61.42791246823953, 50.20770522509938 " fill="none" id="curve_2" stroke="#000000" stroke-linecap="round" stroke-linejoin="round" stroke-width="4.793876273891174"/>
  <path d="M 61.42791246823953, 50.20770522509938 Q 61.65524295431265, 46.73509629534354, 62.59296105590464, 45.80836557876977 " fill="none" id="curve_2" stroke="#000000" stroke-linecap="round" stroke-linejoin="round" stroke-width="5.072419449290488"/>
  <path d="M 55.366891192492915, 76.3626014269423 Q 52.285012205070856, 81.86476143191062, 49.556438285011474, 93.30278888287222 " fill="none" id="curve_3" stroke="#000000" stroke-linecap="round" stroke-linejoin="round" stroke-width="2.9022982501966648"/>
  <path d="M 25.085053820920514, 88.01840646472368 Q 19.15128964694147, 91.2557602433481, 15.922061642125538, 100.15942823620988 " fill="none" id="curve_4" stroke="#000000" stroke-linecap="round" stroke-linejoin="round" stroke-width="3.183481643069137"/>
  <path d="M 15.922061642125538, 100.15942823620988 Q 16.74568587575493, 99.94855170987425, 17.75995297638523, 99.56248208857468 " fill="none" id="curve_4" stroke="#000000" stroke-linecap="round" stroke-linejoin="round" stroke-width="3.035630726344732"/>
  <path d="M 49.1367291513687, 100.02653015975181 Q 49.18966058094829, 96.09002286486249, 49.272701326660645, 90.54359342078021 " fill="none" id="curve_5" stroke="#000000" stroke-linecap="round" stroke-linejoin="round" stroke-width="2.517714746941552"/>
  <path d="M 58.32651906672356, 49.99984248088682 Q 59.78203808128527, 47.98395999392314, 61.85277653705708, 45.29583377377665 " fill="none" id="curve_6" stroke="#000000" stroke-linecap="round" stroke-linejoin="round" stroke-width="3.0519201250406667"/>
  <path d="M 60.0769448424756, 46.845924617333196 Q 56.235558894177956, 51.93593724817282, 46.72116767888022, 61.82699331808662 " fill="none" id="curve_21" stroke="#000000" stroke-linecap="round" stroke-linejoin="round" stroke-width="2.2998580958579677"/>
  <path d="M 46.72116767888022, 61.82699331808662 Q 44.48524872074094, 67.59680068866838, 37.965534355817276, 71.1996872268416 " fill="none" id="curve_21" stroke="#000000" stroke-linecap="round" stroke-linejoin="round" stroke-width="2.9395049915821563"/>
  <path d="M 55.4300927935093, 70.43996659172252 Q 53.292826597837276, 74.39269585388233, 52.0201690931112, 83.19187435465537 " fill="none" id="curve_23" stroke="#000000" stroke-linecap="round" stroke-linejoin="round" stroke-width="3.5001060850839143"/>
  <path d="M 30.946534760744623, 84.05006359049135 Q 29.514340866928205, 84.62332592411626, 27.292239249610923, 85.8360686136265 " fill="none" id="curve_25" stroke="#000000" stroke-linecap="round" stroke-linejoin="round" stroke-width="3.0153197369919025"/>
  <path d="M 53.291351313556035, 77.80334137683012 Q 53.33225547970007, 78.95689476341299, 53.411301979354995, 81.41529832285036 " fill="none" id="curve_26" stroke="#000000" stroke-linecap="round" stroke-linejoin="round" stroke-width="2.7028521094675164"/>
  <path d="M 51.372239046738734, 88.20566528389388 Q 53.77146957404015, 78.41165920667815, 58.26532069752525, 63.292180269782904 " fill="none" id="curve_46" stroke="#000000" stroke-linecap="round" stroke-linejoin="round" stroke-width="2.3883672547162673"/>
  <path d="M 53.15086070183002, 79.11423391731213 Q 53.51189472804195, 79.25655960927611, 53.92783972070851, 79.64553358800269 " fill="none" id="curve_55" stroke="#000000" stroke-linecap="round" stroke-linejoin="round" stroke-width="3.1218879918776676"/>
  <path d="M 14.513738103892805, 100.58887708127233 Q 14.51242490658418, 100.48412772541701, 14.510636779011792, 100.18630372890328 " fill="none" id="curve_76" stroke="#000000" stroke-linecap="round" stroke-linejoin="round" stroke-width="2.373342851716788"/>
  <path d="M 52.11832922337309, 86.79199463677648 Q 53.52634851759328, 77.5462582992954, 56.83435075838602, 67.3970496109187 " fill="none" id="curve_109" stroke="#000000" stroke-linecap="round" stroke-linejoin="round" stroke-width="2.5645689872061164"/>
  <path d="M 52.5061705043069, 80.21366415161859 Q 53.41635252932221, 78.81391809272938, 54.31650506098332, 75.27711834744635 " fill="none" id="curve_126" stroke="#000000" stroke-linecap="round" stroke-linejoin="round" stroke-width="2.892557384756019"/>
  <path d="M 53.756427083112946, 78.34078552554192 Q 53.34144566889535, 78.83212251144651, 52.618844237995425, 80.10689920947206 " fill="none" id="curve_131" stroke="#000000" stroke-linecap="round" stroke-linejoin="round" stroke-width="2.693203075159773"/>
  <path d="M 24.754809007552115, 86.4128328953117 Q 26.88166481477571, 85.51133772299019, 30.1720002771634, 84.30311293526495 " fill="none" id="curve_160" stroke="#000000" stroke-linecap="round" stroke-linejoin="round" stroke-width="2.7777479029775907"/>
</svg>
