<?xml version="1.0" ?>
<svg height="140" width="140" xmlns="http://www.w3.org/2000/svg">
  <path d="M 67.12437253083392, 40.94661713086245 Q 58.281756424776376, 42.529360345613625, 48.825144045882084, 54.552506838236 " fill="none" id="curve_2" stroke="#000000" stroke-linecap="round" stroke-linejoin="round" stroke-width="4.525893754525641"/>
  <path d="M 48.825144045882084, 54.552506838236 Q 42.39034581491606, 59.84779054555538, 27.33200201275467, 73.28968879829742 " fill="none" id="curve_2" stroke="#000000" stroke-linecap="round" stroke-linejoin="round" stroke-width="5.620994161725544"/>
  <path d="M 27.33200201275467, 73.28968879829742 Q 18.98291982992301, 78.14890256163824, 7.6568551514001975, 87.5503225841876 " fill="none" id="curve_2" stroke="#000000" stroke-linecap="round" stroke-linejoin="round" stroke-width="5.204186285170342"/>
  <path d="M 2.508222794912702, 100.97190058968671 Q 2.6383947529100795, 117.63036139710067, 2.9469639284164346, 138.25388347886127 " fill="none" id="curve_3" stroke="#000000" stroke-linecap="round" stroke-linejoin="round" stroke-width="3.833383537727562"/>
  <path d="M 52.08665449451489, 128.36273112959472 Q 54.42949648728342, 120.1372394644714, 58.92343304382162, 102.8944967664455 " fill="none" id="curve_5" stroke="#000000" stroke-linecap="round" stroke-linejoin="round" stroke-width="6.9845097252006925"/>
  <path d="M 58.92343304382162, 102.8944967664455 Q 61.26903025657009, 96.26749669366446, 63.552050754026304, 71.52250104576305 " fill="none" id="curve_5" stroke="#000000" stroke-linecap="round" stroke-linejoin="round" stroke-width="6.665715865007152"/>
  <path d="M 63.552050754026304, 71.52250104576305 Q 64.86118246755771, 69.78267477629345, 65.11112893062048, 44.00567695213459 " fill="none" id="curve_5" stroke="#000000" stroke-linecap="round" stroke-linejoin="round" stroke-width="5.623225033187406"/>
  <path d="M 65.11112893062048, 44.00567695213459 Q 53.41867332838846, 47.16788083977039, 44.607855408356535, 56.50168078926544 " fill="none" id="curve_5" stroke="#000000" stroke-linecap="round" stroke-linejoin="round" stroke-width="3.4149893968295983"/>
  <path d="M 3.125144641019439, 75.05724898403469 Q 2.5027903275672836, 78.41697759625646, 2.288160920912441, 101.08788972482202 " fill="none" id="curve_6" stroke="#000000" stroke-linecap="round" stroke-linejoin="round" stroke-width="3.662389274848414"/>
  <path d="M 2.1766629252769105, 75.02359835342477 Q 2.0492487053937545, 69.92728085670088, 1.8873179763364847, 48.53613980776068 " fill="none" id="curve_7" stroke="#000000" stroke-linecap="round" stroke-linejoin="round" stroke-width="3.014182691529709"/>
  <path d="M 1.8873179763364847, 48.53613980776068 Q 2.098085956039222, 46.942991111182884, 2.1727169789658944, 23.410838850503705 " fill="none" id="curve_7" stroke="#000000" stroke-linecap="round" stroke-linejoin="round" stroke-width="2.7832176261411155"/>
  <path d="M 2.1727169789658944, 23.410838850503705 Q 2.1791308173935424, 5.232475675041282, 2.2974813308046516, 0.8001068993484637 " fill="none" id="curve_7" stroke="#000000" stroke-linecap="round" stroke-linejoin="round" stroke-width="2.6790760523821135"/>
  <path d="M 2.2974813308046516, 0.8001068993484637 Q 2.892023271445125, 1.3868533885343228, 3.472260359141055, 2.63154808912489 " fill="none" id="curve_7" stroke="#000000" stroke-linecap="round" stroke-linejoin="round" stroke-width="2.2018863745147406"/>
  <path d="M 52.69078427919837, 127.86873132946161 Q 53.31320251872759, 114.37585581831277, 58.84126133942365, 108.8306635924436 " fill="none" id="curve_13" stroke="#000000" stroke-linecap="round" stroke-linejoin="round" stroke-width="4.129575205251514"/>
  <path d="M 58.84126133942365, 108.8306635924436 Q 54.7719892111024, 115.86604818266983, 51.705257243353294, 128.25720613199985 " fill="none" id="curve_13" stroke="#000000" stroke-linecap="round" stroke-linejoin="round" stroke-width="4.130544554199945"/>
  <path d="M 51.705257243353294, 128.25720613199985 Q 54.98647191167238, 127.05769310394537, 55.59295709890773, 114.7839329865156 " fill="none" id="curve_13" stroke="#000000" stroke-linecap="round" stroke-linejoin="round" stroke-width="5.35709016355854"/>
  <path d="M 55.59295709890773, 114.7839329865156 Q 57.18589728376635, 110.00197973148306, 60.85856571355906, 107.25537685607472 " fill="none" id="curve_13" stroke="#000000" stroke-linecap="round" stroke-linejoin="round" stroke-width="4.358032434894421"/>
  <path d="M 45.09493307784759, 56.17267396194543 Q 40.54853746404781, 61.01074842740033, 32.26446305578304, 69.06776289191174 " fill="none" id="curve_15" stroke="#000000" stroke-linecap="round" stroke-linejoin="round" stroke-width="2.96882797657102"/>
  <path d="M 32.26446305578304, 69.06776289191174 Q 22.093548849670807, 73.2970338049372, 10.434976290557238, 84.19416247167611 " fill="none" id="curve_15" stroke="#000000" stroke-linecap="round" stroke-linejoin="round" stroke-width="3.1598878281809286"/>
  <path d="M 2.7896650882412937, 137.25979550820583 Q 3.209217095141425, 137.90799916540155, 4.318953996774845, 138.31580539578601 " fill="none" id="curve_17" stroke="#000000" stroke-linecap="round" stroke-linejoin="round" stroke-width="4.084535527346536"/>
  <path d="M 4.318953996774845, 138.31580539578601 Q 4.09518356499254, 138.174817069868, 3.5933315767702725, 138.0472241739875 " fill="none" id="curve_17" stroke="#000000" stroke-linecap="round" stroke-linejoin="round" stroke-width="3.2707632279233954"/>
  <path d="M 54.82492716458162, 116.6554201199115 Q 54.64561466588063, 113.68363843193379, 53.83742786610987, 112.05099307390938 " fill="none" id="curve_18" stroke="#000000" stroke-linecap="round" stroke-linejoin="round" stroke-width="4.054867828751816"/>
  <path d="M 51.7247950296934, 124.03398486502367 Q 52.258845381305804, 119.95500373625971, 54.02314494177962, 116.68470067202189 " fill="none" id="curve_19" stroke="#000000" stroke-linecap="round" stroke-linejoin="round" stroke-width="3.0835531686009126"/>
  <path d="M 33.275867141708076, 69.20943792775941 Q 34.57754204141249, 67.45908212343647, 38.649854239334005, 66.46463629748578 " fill="none" id="curve_20" stroke="#000000" stroke-linecap="round" stroke-linejoin="round" stroke-width="3.253059670315059"/>
  <path d="M 66.31790451941431, 58.026698096993236 Q 66.88032804811662, 58.192175565854576, 67.29717533323891, 58.62705937066898 " fill="none" id="curve_21" stroke="#000000" stroke-linecap="round" stroke-linejoin="round" stroke-width="4.256255258679974"/>
  <path d="M 33.51510577319012, 65.45836416940006 Q 31.89702021004257, 68.85264064475516, 27.00537290658562, 70.77740469865331 " fill="none" id="curve_22" stroke="#000000" stroke-linecap="round" stroke-linejoin="round" stroke-width="3.6280383469792046"/>
  <path d="M 47.19751431838778, 54.496392964347116 Q 41.42550399276806, 56.253515714407705, 37.27826139501329, 62.097319169078624 " fill="none" id="curve_23" stroke="#000000" stroke-linecap="round" stroke-linejoin="round" stroke-width="2.944885143868656"/>
  <path d="M 60.14132989259089, 88.15403289314335 Q 59.621440907691266, 85.64017538639303, 58.96128814392214, 82.35650153357074 " fill="none" id="curve_25" stroke="#000000" stroke-linecap="round" stroke-linejoin="round" stroke-width="2.651629508366689"/>
  <path d="M 62.58922931320014, 64.26629542233763 Q 62.52821154113701, 54.034547950019785, 62.275341775750164, 49.300897525987864 " fill="none" id="curve_26" stroke="#000000" stroke-linecap="round" stroke-linejoin="round" stroke-width="2.239886562317842"/>
  <path d="M 3.7509481827333886, 89.2567963967806 Q 2.1820879262546087, 94.46467845114073, 0.7902586369180393, 118.04662286820209 " fill="none" id="curve_30" stroke="#000000" stroke-linecap="round" stroke-linejoin="round" stroke-width="2.0617916294017187"/>
  <path d="M 2.465332755112572, 99.52554082781296 Q 2.7938587875140057, 98.30955446684065, 3.0449089480155838, 95.05412700022676 " fill="none" id="curve_33" stroke="#000000" stroke-linecap="round" stroke-linejoin="round" stroke-width="2.0270923320731926"/>
  <path d="M 1.979487568359258, 119.64946508685303 Q 2.025806488232379, 133.05523319597637, 2.1948718555564204, 137.86701948362264 " fill="none" id="curve_34" stroke="#000000" stroke-linecap="round" stroke-linejoin="round" stroke-width="1.9682098911442656"/>
  <path d="M 2.1948718555564204, 137.86701948362264 Q 2.211448838303333, 136.98123717757426, 2.2418906605298248, 136.08642540064153 " fill="none" id="curve_34" stroke="#000000" stroke-linecap="round" stroke-linejoin="round" stroke-width="2.2688838321558813"/>
  <path d="M 1.8148663123144444, 138.3163048475741 Q 2.2577459402559352, 134.52612274249302, 2.7452930755598537, 123.91852941459217 " fill="none" id="curve_35" stroke="#000000" stroke-linecap="round" stroke-linejoin="round" stroke-width="1.907547735243733"/>
  <path d="M 1.6470380161366462, 82.7339626736152 Q 2.1558396674372338, 75.93380370594257, 3.4993809678152155, 71.0507133453226 " fill="none" id="curve_36" stroke="#000000" stroke-linecap="round" stroke-linejoin="round" stroke-width="2.489450404868847"/>
  <path d="M 2.4855901193933194, 46.41538885909207 Q 2.0407637118249693, 42.26075902807899, 1.590509752332498, 32.374055790937376 " fill="none" id="curve_37" stroke="#000000" stroke-linecap="round" stroke-linejoin="round" stroke-width="1.8981712807775186"/>
  <path d="M 1.590509752332498, 32.374055790937376 Q 1.6318946577903386, 26.260605765643575, 1.6970596316190494, 14.701140669936859 " fill="none" id="curve_37" stroke="#000000" stroke-linecap="round" stroke-linejoin="round" stroke-width="1.4744722946206597"/>
  <path d="M 1.6970596316190494, 14.701140669936859 Q 1.7174988987520825, 6.922975743574549, 1.7701446670454295, 1.274481818767235 " fill="none" id="curve_37" stroke="#000000" stroke-linecap="round" stroke-linejoin="round" stroke-width="1.8515814526707925"/>
  <path d="M 54.74780553422974, 51.68259277522168 Q 47.85913970311315, 52.77898432595531, 42.95727106594221, 56.3264076159419 " fill="none" id="curve_65" stroke="#000000" stroke-linecap="round" stroke-linejoin="round" stroke-width="2.6483331557494783"/>
  <path d="M 60.91413287995965, 109.79916049589178 Q 58.79000397688537, 110.71527086482229, 53.85690268454148, 112.08942512198165 " fill="none" id="curve_106" stroke="#000000" stroke-linecap="round" stroke-linejoin="round" stroke-width="2.5621797705303067"/>
  <path d="M 63.74579209782227, 41.186144557121565 Q 65.93141712772324, 40.47436450121491, 68.5905676010807, 39.545286121626866 " fill="none" id="curve_110" stroke="#000000" stroke-linecap="round" stroke-linejoin="round" stroke-width="2.4824795254834497"/>
  <path d="M 54.44646225473667, 116.95241702641712 Q 55.66672297959788, 117.49780998116822, 57.05953592830454, 118.20765365068513 " fill="none" id="curve_165" stroke="#000000" stroke-linecap="round" stroke-linejoin="round" stroke-width="3.628787679338265"/>
</svg>
