<?xml version="1.0" ?>
<svg height="140" width="140" xmlns="http://www.w3.org/2000/svg">
  <path d="M 56.16640853881836, 55.812896728515625 Q 50.99242544665656, 58.64013681479225, 39.18988310796203, 64.37856476310202 " fill="none" id="curve_1" stroke="#000000" stroke-linecap="round" stroke-linejoin="round" stroke-width="7.983629165730978"/>
  <path d="M 39.18988310796203, 64.37856476310202 Q 34.74401776228522, 64.00576155991882, 31.051471399513844, 63.116940539316055 " fill="none" id="curve_1" stroke="#000000" stroke-linecap="round" stroke-linejoin="round" stroke-width="10.003172580497539"/>
  <path d="M 58.282476303382005, 56.0716338587336 Q 56.75804277864194, 62.50918994607091, 54.76906942321288, 92.06497335103029 " fill="none" id="curve_2" stroke="#000000" stroke-linecap="round" stroke-linejoin="round" stroke-width="6.629292369026188"/>
  <path d="M 54.76906942321288, 92.06497335103029 Q 55.194989813234294, 94.60087112037344, 56.67377365189211, 95.77604258840019 " fill="none" id="curve_2" stroke="#000000" stroke-linecap="round" stroke-linejoin="round" stroke-width="5.779125889070176"/>
  <path d="M 54.19872703351154, 59.187966530209586 Q 55.68868610756781, 56.12598453531498, 58.508655857293704, 54.1903895271664 " fill="none" id="curve_3" stroke="#000000" stroke-linecap="round" stroke-linejoin="round" stroke-width="4.933494153049123"/>
  <path d="M 51.90843963623047, 60.07200288772583 Q 50.04526812522049, 62.57597096033407, 45.298356728974966, 64.36980793942243 " fill="none" id="curve_17" stroke="#000000" stroke-linecap="round" stroke-linejoin="round" stroke-width="2.4903235276768108"/>
  <path d="M 53.78818541527139, 59.57299343139399 Q 56.28762602839506, 63.65754915059041, 58.97671666064708, 67.63465459774088 " fill="none" id="curve_18" stroke="#000000" stroke-linecap="round" stroke-linejoin="round" stroke-width="4.725558184033104"/>
  <path d="M 58.97671666064708, 67.63465459774088 Q 58.78966862617734, 57.6056536281712, 57.26819408972314, 54.34157668706274 " fill="none" id="curve_18" stroke="#000000" stroke-linecap="round" stroke-linejoin="round" stroke-width="1.9435093270502664"/>
  <path d="M 57.26819408972314, 54.34157668706274 Q 50.908369893991576, 55.670044229220274, 47.715267388163895, 59.819071563278605 " fill="none" id="curve_18" stroke="#000000" stroke-linecap="round" stroke-linejoin="round" stroke-width="3.2223559676980704"/>
  <path d="M 31.470078947076104, 66.9224832876842 Q 30.356635625274244, 65.68216208963874, 29.497179936781983, 63.3134776647923 " fill="none" id="curve_19" stroke="#000000" stroke-linecap="round" stroke-linejoin="round" stroke-width="6.641448327917434"/>
  <path d="M 54.865687220990225, 91.32724093406127 Q 54.968002699057415, 90.44536911262689, 54.98625893455259, 71.34707506853024 " fill="none" id="curve_20" stroke="#000000" stroke-linecap="round" stroke-linejoin="round" stroke-width="3.9800867241800937"/>
  <path d="M 54.98625893455259, 71.34707506853024 Q 54.94578817639112, 85.48715026141592, 54.830577165954864, 93.25924260326664 " fill="none" id="curve_20" stroke="#000000" stroke-linecap="round" stroke-linejoin="round" stroke-width="3.5242122430676965"/>
  <path d="M 54.830577165954864, 93.25924260326664 Q 54.81858161902425, 89.11409674134805, 54.759857520118004, 87.87508133881927 " fill="none" id="curve_20" stroke="#000000" stroke-linecap="round" stroke-linejoin="round" stroke-width="6.630057013187523"/>
  <path d="M 56.000969886779785, 95.8949089050293 Q 56.21189896960644, 88.5301532511861, 56.965140212577204, 82.72041260395622 " fill="none" id="curve_34" stroke="#000000" stroke-linecap="round" stroke-linejoin="round" stroke-width="3.5088006195379364"/>
  <path d="M 54.65376552159958, 65.26905902834194 Q 55.072573659069384, 68.08273136063679, 55.7418412580263, 71.92894880922918 " fill="none" id="curve_35" stroke="#000000" stroke-linecap="round" stroke-linejoin="round" stroke-width="2.7559930983430188"/>
  <path d="M 32.73120471147423, 60.423785734307764 Q 31.775152460112118, 60.40597729754611, 30.059112674895577, 60.38965792244381 " fill="none" id="curve_36" stroke="#000000" stroke-linecap="round" stroke-linejoin="round" stroke-width="4.61273643437772"/>
  <path d="M 52.27059365733362, 91.61056531917737 Q 53.04799781352756, 91.47852173324729, 54.00437321180964, 91.19739708924779 " fill="none" id="curve_37" stroke="#000000" stroke-linecap="round" stroke-linejoin="round" stroke-width="3.65742594670125"/>
  <path d="M 56.74768564693624, 55.73750856532619 Q 57.02884801162025, 54.830731627787344, 57.70802561182059, 54.03021195444521 " fill="none" id="curve_38" stroke="#000000" stroke-linecap="round" stroke-linejoin="round" stroke-width="3.593010320419715"/>
  <path d="M 59.0622036860217, 54.220964021746624 Q 57.44919866335564, 54.025400393993806, 54.518065454610344, 53.824577871604994 " fill="none" id="curve_57" stroke="#000000" stroke-linecap="round" stroke-linejoin="round" stroke-width="3.089455239424462"/>
  <path d="M 51.65001342942878, 86.41638964529494 Q 52.5886385209001, 86.35311413163994, 53.70914545697504, 86.20201260441682 " fill="none" id="curve_72" stroke="#000000" stroke-linecap="round" stroke-linejoin="round" stroke-width="2.674210208310328"/>
  <path d="M 37.260411842196675, 66.92342895710571 Q 35.06903626400446, 66.93853668674235, 33.35824670978792, 66.98292108445196 " fill="none" id="curve_88" stroke="#000000" stroke-linecap="round" stroke-linejoin="round" stroke-width="3.284587686920446"/>
  <path d="M 54.08389991068444, 74.1525725409449 Q 55.16773036221844, 73.59482689030074, 58.370675003581496, 73.15980042419774 " fill="none" id="curve_142" stroke="#000000" stroke-linecap="round" stroke-linejoin="round" stroke-width="2.7575545427079757"/>
</svg>
