<?xml version="1.0" ?>
<svg height="140" width="140" xmlns="http://www.w3.org/2000/svg">
  <path d="M 25.434555053710938, 96.89392280578613 Q 23.883978838752334, 103.89954307726155, 15.731572162447321, 106.80788869636615 " fill="none" id="curve_1" stroke="#000000" stroke-linecap="round" stroke-linejoin="round" stroke-width="5.640808241585318"/>
  <path d="M 15.731572162447321, 106.80788869636615 Q 19.456912181741703, 103.3555852786716, 27.399542048126264, 99.65633013290243 " fill="none" id="curve_1" stroke="#000000" stroke-linecap="round" stroke-linejoin="round" stroke-width="4.300021991899077"/>
  <path d="M 27.399542048126264, 99.65633013290243 Q 32.17188017401651, 92.37850853291846, 45.24298577915039, 74.37727608468909 " fill="none" id="curve_1" stroke="#000000" stroke-linecap="round" stroke-linejoin="round" stroke-width="5.650089997402422"/>
  <path d="M 45.24298577915039, 74.37727608468909 Q 49.00516727209498, 70.54341707325726, 51.662145662295075, 61.60697065997787 " fill="none" id="curve_1" stroke="#000000" stroke-linecap="round" stroke-linejoin="round" stroke-width="7.562228459136037"/>
  <path d="M 51.662145662295075, 61.60697065997787 Q 52.58491588354525, 55.82078630972087, 53.51403102366291, 46.948099624527615 " fill="none" id="curve_1" stroke="#000000" stroke-linecap="round" stroke-linejoin="round" stroke-width="7.329667517810976"/>
  <path d="M 52.13898993097311, 70.29732837172608 Q 51.638026003018936, 77.25926592338203, 50.766569874289196, 113.0450345478232 " fill="none" id="curve_2" stroke="#000000" stroke-linecap="round" stroke-linejoin="round" stroke-width="7.045097412614691"/>
  <path d="M 50.766569874289196, 113.0450345478232 Q 51.52293313027617, 117.89248490029954, 53.07950580550969, 121.3207348091468 " fill="none" id="curve_2" stroke="#000000" stroke-linecap="round" stroke-linejoin="round" stroke-width="7.960554551537094"/>
  <path d="M 53.07950580550969, 121.3207348091468 Q 53.52338747250331, 116.71180418817308, 53.85377212127371, 107.54778744172212 " fill="none" id="curve_2" stroke="#000000" stroke-linecap="round" stroke-linejoin="round" stroke-width="3.4335842699017878"/>
  <path d="M 49.186556862491024, 67.87502417737441 Q 43.39869771354202, 75.51588622728659, 33.26970986953256, 91.75276086902187 " fill="none" id="curve_3" stroke="#000000" stroke-linecap="round" stroke-linejoin="round" stroke-width="3.0301566843566516"/>
  <path d="M 33.26970986953256, 91.75276086902187 Q 29.422328286278773, 94.95580552922704, 23.657119533199346, 99.9753764201951 " fill="none" id="curve_3" stroke="#000000" stroke-linecap="round" stroke-linejoin="round" stroke-width="3.5844017689316074"/>
  <path d="M 14.160423787214723, 105.1989785394431 Q 15.205388509717785, 105.47633680738153, 16.246101870190245, 105.97056367764195 " fill="none" id="curve_4" stroke="#000000" stroke-linecap="round" stroke-linejoin="round" stroke-width="5.09794257268435"/>
  <path d="M 53.194857440958096, 44.35247951629451 Q 52.76855849699207, 44.623932657777395, 52.240380380354146, 45.056664007189035 " fill="none" id="curve_6" stroke="#000000" stroke-linecap="round" stroke-linejoin="round" stroke-width="4.28197737746144"/>
  <path d="M 49.512216945080596, 72.9831359000147 Q 48.14102893126252, 73.32607990862753, 45.89132106030774, 74.12446856400601 " fill="none" id="curve_7" stroke="#000000" stroke-linecap="round" stroke-linejoin="round" stroke-width="3.436353482918681"/>
  <path d="M 49.01180026915501, 69.67453416625885 Q 43.445487063253694, 72.87635953964711, 37.63729673340452, 83.93120276864929 " fill="none" id="curve_11" stroke="#000000" stroke-linecap="round" stroke-linejoin="round" stroke-width="2.828159596881218"/>
  <path d="M 50.347540718223115, 74.9491494309704 Q 49.97913923148468, 83.4582093046932, 49.56738273300103, 110.10915981171266 " fill="none" id="curve_12" stroke="#000000" stroke-linecap="round" stroke-linejoin="round" stroke-width="3.19432377116904"/>
  <path d="M 38.595332320455796, 82.85677882950267 Q 34.05828312863922, 89.31908532896595, 26.20137135886784, 98.58387291807153 " fill="none" id="curve_16" stroke="#000000" stroke-linecap="round" stroke-linejoin="round" stroke-width="2.5079327563104763"/>
  <path d="M 19.381363372005598, 107.4439123000034 Q 18.343782189095172, 107.40669473765153, 17.28703018363964, 107.34285257152135 " fill="none" id="curve_31" stroke="#000000" stroke-linecap="round" stroke-linejoin="round" stroke-width="3.953800874690105"/>
  <path d="M 53.35731065193641, 107.83653162413245 Q 52.948796780106484, 91.80111810007854, 47.68736612581578, 86.09152813340279 " fill="none" id="curve_37" stroke="#000000" stroke-linecap="round" stroke-linejoin="round" stroke-width="2.5472519594433214"/>
  <path d="M 53.18168058160646, 66.77296173195333 Q 49.801790502579784, 67.62981787818427, 46.04066616447789, 69.77734796483598 " fill="none" id="curve_38" stroke="#000000" stroke-linecap="round" stroke-linejoin="round" stroke-width="3.843159577274288"/>
  <path d="M 53.98904008892156, 121.75442787513755 Q 55.485037542639425, 121.64483042066638, 56.632313331101855, 121.39527638413809 " fill="none" id="curve_40" stroke="#000000" stroke-linecap="round" stroke-linejoin="round" stroke-width="3.876854095479898"/>
  <path d="M 53.080518926444874, 53.59883346756898 Q 53.1104503035117, 48.034419257738236, 53.581507782837555, 47.294163079382386 " fill="none" id="curve_47" stroke="#000000" stroke-linecap="round" stroke-linejoin="round" stroke-width="5.321135791176847"/>
  <path d="M 53.581507782837555, 47.294163079382386 Q 53.52224953353154, 47.222574077375846, 53.442006668809746, 47.095721997847335 " fill="none" id="curve_47" stroke="#000000" stroke-linecap="round" stroke-linejoin="round" stroke-width="4.831422984807278"/>
  <path d="M 51.72311159216226, 48.33749778268934 Q 53.10853053527015, 47.68070679314224, 55.359894859045724, 46.92420700982778 " fill="none" id="curve_51" stroke="#000000" stroke-linecap="round" stroke-linejoin="round" stroke-width="4.224786380214757"/>
  <path d="M 14.584038147806375, 104.73896825319041 Q 15.930857636223486, 104.62943055477155, 17.14182367418969, 104.26446382311435 " fill="none" id="curve_53" stroke="#000000" stroke-linecap="round" stroke-linejoin="round" stroke-width="2.5869060184357613"/>
  <path d="M 55.55408200910307, 46.20620792798542 Q 52.75691516955854, 47.36793173368015, 50.13757234197266, 49.83296187158226 " fill="none" id="curve_56" stroke="#000000" stroke-linecap="round" stroke-linejoin="round" stroke-width="4.282380121734127"/>
  <path d="M 49.72046091233051, 82.22423498576825 Q 49.13278888074933, 82.18610517969267, 48.53918364238902, 82.08556317482835 " fill="none" id="curve_71" stroke="#000000" stroke-linecap="round" stroke-linejoin="round" stroke-width="3.1963277277837645"/>
  <path d="M 40.9632284345369, 76.58008883666187 Q 44.48687991521094, 74.06800384051179, 48.16493841401043, 69.06770618867048 " fill="none" id="curve_127" stroke="#000000" stroke-linecap="round" stroke-linejoin="round" stroke-width="2.7592464242308763"/>
</svg>
