<?xml version="1.0" ?>
<svg height="140" width="140" xmlns="http://www.w3.org/2000/svg">
  <path d="M 60.61446523666382, 52.953081130981445 Q 58.79593974192974, 53.29167082608824, 58.14868174613994, 57.76992292890557 " fill="none" id="curve_1" stroke="#000000" stroke-linecap="round" stroke-linejoin="round" stroke-width="7.96318393139041"/>
  <path d="M 58.14868174613994, 57.76992292890557 Q 52.276636493666516, 61.85225895999232, 45.73262142374958, 74.29548700828715 " fill="none" id="curve_1" stroke="#000000" stroke-linecap="round" stroke-linejoin="round" stroke-width="7.6625298598555185"/>
  <path d="M 45.73262142374958, 74.29548700828715 Q 41.19214496548485, 84.05586440578665, 23.73596675769238, 106.21646658746097 " fill="none" id="curve_1" stroke="#000000" stroke-linecap="round" stroke-linejoin="round" stroke-width="5.73280127925847"/>
  <path d="M 54.805591949550376, 104.1744718595752 Q 54.94122155922888, 85.30038265407259, 55.81313026796679, 77.42910172997668 " fill="none" id="curve_2" stroke="#000000" stroke-linecap="round" stroke-linejoin="round" stroke-width="8.010850527005552"/>
  <path d="M 55.81313026796679, 77.42910172997668 Q 58.644638821921035, 69.07565635066233, 61.512418938961595, 52.168739736649975 " fill="none" id="curve_2" stroke="#000000" stroke-linecap="round" stroke-linejoin="round" stroke-width="5.198243658982219"/>
  <path d="M 52.8361156659521, 87.84939606087966 Q 52.947625790105924, 100.7654150443484, 54.582607137718206, 102.37895179493778 " fill="none" id="curve_3" stroke="#000000" stroke-linecap="round" stroke-linejoin="round" stroke-width="4.23846444772695"/>
  <path d="M 21.592210997566276, 108.768995854767 Q 22.19961831228967, 108.12867338575337, 22.627922713881247, 106.55668396172842 " fill="none" id="curve_4" stroke="#000000" stroke-linecap="round" stroke-linejoin="round" stroke-width="5.079243222462515"/>
  <path d="M 56.8448744638046, 103.75190855505959 Q 55.97467082009488, 103.30463821259131, 55.25366627551355, 102.27545384300866 " fill="none" id="curve_5" stroke="#000000" stroke-linecap="round" stroke-linejoin="round" stroke-width="5.63761586670642"/>
  <path d="M 61.97888019858855, 50.75497868906968 Q 61.632694419511964, 51.77401007031319, 61.05604917790233, 53.19221534964188 " fill="none" id="curve_7" stroke="#000000" stroke-linecap="round" stroke-linejoin="round" stroke-width="4.392506179604734"/>
  <path d="M 51.10231346807675, 100.0587528037018 Q 52.308306955148346, 95.92625815992567, 53.425868278517584, 82.55548310819995 " fill="none" id="curve_8" stroke="#000000" stroke-linecap="round" stroke-linejoin="round" stroke-width="3.147984375920454"/>
  <path d="M 39.17421395813987, 80.58402168769416 Q 35.28089235233158, 91.36811057628717, 25.698465063145377, 100.99411292683561 " fill="none" id="curve_9" stroke="#000000" stroke-linecap="round" stroke-linejoin="round" stroke-width="3.7813926196398913"/>
  <path d="M 51.60124330059355, 69.60423136640836 Q 55.320648481491894, 68.31630232419394, 58.2406553193085, 65.25120101045715 " fill="none" id="curve_10" stroke="#000000" stroke-linecap="round" stroke-linejoin="round" stroke-width="3.7255688605281025"/>
  <path d="M 61.99657818447553, 52.67209482427806 Q 60.36651248967539, 52.96323120115563, 58.903793125418495, 53.62681073649354 " fill="none" id="curve_11" stroke="#000000" stroke-linecap="round" stroke-linejoin="round" stroke-width="5.816941419535953"/>
  <path d="M 43.36840128222014, 76.99541406399314 Q 36.0813141855904, 83.48141432174027, 28.306791851081954, 102.72409866626683 " fill="none" id="curve_17" stroke="#000000" stroke-linecap="round" stroke-linejoin="round" stroke-width="2.90045635620684"/>
  <path d="M 53.37641761934403, 100.35849696249736 Q 54.09954608500209, 102.5546456067705, 58.48565943844573, 103.23797369255696 " fill="none" id="curve_19" stroke="#000000" stroke-linecap="round" stroke-linejoin="round" stroke-width="3.712595492994607"/>
  <path d="M 49.457401111410974, 74.13350984082285 Q 47.290782900822705, 74.31906852178035, 44.24930040350371, 75.59379391150586 " fill="none" id="curve_34" stroke="#000000" stroke-linecap="round" stroke-linejoin="round" stroke-width="1.7409230198247334"/>
  <path d="M 55.6514707379661, 57.493032074510054 Q 56.63946757639199, 54.17271795599241, 62.48956434708999, 52.86595222497545 " fill="none" id="curve_117" stroke="#000000" stroke-linecap="round" stroke-linejoin="round" stroke-width="4.134406497799785"/>
  <path d="M 52.738440339107, 102.30102570639883 Q 51.03127274332943, 101.7269883135987, 50.31397161135388, 97.6417887683051 " fill="none" id="curve_145" stroke="#000000" stroke-linecap="round" stroke-linejoin="round" stroke-width="2.8443256600173843"/>
  <path d="M 52.00816367086456, 61.503446575822274 Q 54.10644808647213, 56.52262063595407, 60.72030750747551, 52.36018283513376 " fill="none" id="curve_147" stroke="#000000" stroke-linecap="round" stroke-linejoin="round" stroke-width="3.0323018563842523"/>
  <path d="M 60.72030750747551, 52.36018283513376 Q 60.554543060389484, 51.99773569897694, 60.18274172509754, 51.639237831258704 " fill="none" id="curve_147" stroke="#000000" stroke-linecap="round" stroke-linejoin="round" stroke-width="4.705500138190848"/>
  <path d="M 28.34875657074465, 98.5037138052109 Q 32.596019997799885, 92.42277208130655, 39.41759469247812, 80.06578839738974 " fill="none" id="curve_153" stroke="#000000" stroke-linecap="round" stroke-linejoin="round" stroke-width="2.535691160779468"/>
</svg>
