<?xml version="1.0" ?>
<svg height="140" width="140" xmlns="http://www.w3.org/2000/svg">
  <path d="M 28.487627029418945, 67.43349838256836 Q 27.32562654859032, 67.99014413592843, 25.925435924916997, 69.04918166382814 " fill="none" id="curve_1" stroke="#000000" stroke-linecap="round" stroke-linejoin="round" stroke-width="3.2875244991230486"/>
  <path d="M 25.925435924916997, 69.04918166382814 Q 28.65132372082139, 64.07113587636441, 32.432099203098176, 56.404917320097596 " fill="none" id="curve_1" stroke="#000000" stroke-linecap="round" stroke-linejoin="round" stroke-width="6.639262917438557"/>
  <path d="M 32.432099203098176, 56.404917320097596 Q 38.0629607298259, 50.03395457083583, 48.34783208649479, 36.809781432258006 " fill="none" id="curve_1" stroke="#000000" stroke-linecap="round" stroke-linejoin="round" stroke-width="6.0119862492998415"/>
  <path d="M 48.34783208649479, 36.809781432258006 Q 53.220727024582416, 28.648629074143344, 61.12474453336202, 15.715069988888398 " fill="none" id="curve_1" stroke="#000000" stroke-linecap="round" stroke-linejoin="round" stroke-width="6.154512326232101"/>
  <path d="M 61.12474453336202, 15.715069988888398 Q 61.1641127425841, 35.076163139880194, 61.45821163425103, 45.62176905597962 " fill="none" id="curve_1" stroke="#000000" stroke-linecap="round" stroke-linejoin="round" stroke-width="4.97781221191463"/>
  <path d="M 61.45821163425103, 45.62176905597962 Q 63.50182742096197, 49.690561959309115, 65.07237993669725, 86.64133445073708 " fill="none" id="curve_1" stroke="#000000" stroke-linecap="round" stroke-linejoin="round" stroke-width="4.713112945125649"/>
  <path d="M 65.07237993669725, 86.64133445073708 Q 66.5807434325393, 89.29642552483708, 66.85244437882726, 109.61299665043776 " fill="none" id="curve_1" stroke="#000000" stroke-linecap="round" stroke-linejoin="round" stroke-width="4.78092094888818"/>
  <path d="M 66.85244437882726, 109.61299665043776 Q 65.88409807194292, 118.42871826163818, 65.21703631505189, 134.82343535982432 " fill="none" id="curve_1" stroke="#000000" stroke-linecap="round" stroke-linejoin="round" stroke-width="5.200866726808657"/>
  <path d="M 65.21703631505189, 134.82343535982432 Q 65.60104282872211, 134.24363921309623, 65.9060233756111, 133.01350981766254 " fill="none" id="curve_1" stroke="#000000" stroke-linecap="round" stroke-linejoin="round" stroke-width="4.744064272272232"/>
  <path d="M 63.530665359786724, 78.13806447887876 Q 63.402267041573594, 72.13447872644585, 63.04362627595127, 67.63769997661936 " fill="none" id="curve_4" stroke="#000000" stroke-linecap="round" stroke-linejoin="round" stroke-width="2.6548678808888586"/>
  <path d="M 61.2421917898092, 10.94650106624356 Q 61.206428113931025, 10.75586214503502, 61.18376885673324, 10.294900529070262 " fill="none" id="curve_6" stroke="#000000" stroke-linecap="round" stroke-linejoin="round" stroke-width="7.658305299951357"/>
  <path d="M 29.46967294192209, 66.65988855862217 Q 30.235169479422556, 64.0581328004406, 31.827861629854805, 61.394658494338316 " fill="none" id="curve_10" stroke="#000000" stroke-linecap="round" stroke-linejoin="round" stroke-width="3.498106096339316"/>
  <path d="M 53.923002927037516, 25.404547188083136 Q 49.633893616677966, 31.82393897578644, 43.38866438909011, 41.32668045750951 " fill="none" id="curve_13" stroke="#000000" stroke-linecap="round" stroke-linejoin="round" stroke-width="2.4785531333905517"/>
  <path d="M 43.737693262020336, 43.36157700549292 Q 38.35685149802842, 47.45940264458951, 32.62776973434543, 54.91104753279499 " fill="none" id="curve_17" stroke="#000000" stroke-linecap="round" stroke-linejoin="round" stroke-width="3.1549434446793847"/>
  <path d="M 59.87584692775922, 16.105353972120582 Q 60.22479787971644, 13.75700449996478, 62.48150980218393, 13.103731648231134 " fill="none" id="curve_18" stroke="#000000" stroke-linecap="round" stroke-linejoin="round" stroke-width="4.980465757019907"/>
  <path d="M 66.7885445672256, 132.61770368100997 Q 65.15456047257739, 127.94697618386634, 63.935579279148605, 107.02402497268432 " fill="none" id="curve_28" stroke="#000000" stroke-linecap="round" stroke-linejoin="round" stroke-width="2.172602394637451"/>
  <path d="M 66.8091762962724, 129.51534715143882 Q 66.3429425999884, 127.49651513794934, 65.11877580955178, 126.42552015261802 " fill="none" id="curve_29" stroke="#000000" stroke-linecap="round" stroke-linejoin="round" stroke-width="6.632122967860856"/>
  <path d="M 64.73315937866968, 85.42249807925208 Q 64.22669769009902, 75.77135338007005, 63.01911164003009, 65.27814422672735 " fill="none" id="curve_30" stroke="#000000" stroke-linecap="round" stroke-linejoin="round" stroke-width="2.075709250745513"/>
  <path d="M 59.8714598604525, 29.770203809525995 Q 59.40078301514319, 33.28094752598973, 59.00757604068432, 41.44507813013785 " fill="none" id="curve_31" stroke="#000000" stroke-linecap="round" stroke-linejoin="round" stroke-width="2.5423314090476574"/>
  <path d="M 58.22656825153819, 24.8741847379753 Q 58.11325884957982, 26.680422022890323, 57.42973939715577, 27.970562510065783 " fill="none" id="curve_32" stroke="#000000" stroke-linecap="round" stroke-linejoin="round" stroke-width="2.629207623788976"/>
  <path d="M 59.210293450251186, 14.100159098892373 Q 59.230441163483206, 15.9335460117878, 59.25420135952579, 19.768516907206475 " fill="none" id="curve_33" stroke="#000000" stroke-linecap="round" stroke-linejoin="round" stroke-width="2.6089163818358663"/>
  <path d="M 66.32084898404992, 77.81436046981206 Q 66.09696128614709, 80.73385177877455, 65.46148987335435, 83.43890316012323 " fill="none" id="curve_74" stroke="#000000" stroke-linecap="round" stroke-linejoin="round" stroke-width="2.4372259724328584"/>
  <path d="M 63.65459178289279, 42.125177797563964 Q 61.4864501248995, 45.3694921271266, 59.529497681862836, 50.69677275427533 " fill="none" id="curve_77" stroke="#000000" stroke-linecap="round" stroke-linejoin="round" stroke-width="2.4131321668402785"/>
  <path d="M 39.761042106093456, 45.893433450191694 Q 35.53600010708942, 47.49363621827454, 33.19552856271182, 52.45284480104076 " fill="none" id="curve_78" stroke="#000000" stroke-linecap="round" stroke-linejoin="round" stroke-width="2.3689053889072667"/>
  <path d="M 65.78414569387644, 64.98014657618599 Q 63.52038602369123, 68.72105212301915, 61.56163015013702, 76.04524123473442 " fill="none" id="curve_80" stroke="#000000" stroke-linecap="round" stroke-linejoin="round" stroke-width="2.4337528043030567"/>
  <path d="M 63.19920123450335, 87.96032006527189 Q 63.38030389585154, 85.60979192446632, 64.12107962262422, 84.80494202888028 " fill="none" id="curve_81" stroke="#000000" stroke-linecap="round" stroke-linejoin="round" stroke-width="3.2670424318552076"/>
  <path d="M 61.8286136815969, 56.806525761037165 Q 62.209938416751974, 53.257305165061, 64.75829081390003, 52.463248793377005 " fill="none" id="curve_82" stroke="#000000" stroke-linecap="round" stroke-linejoin="round" stroke-width="2.7217830307736737"/>
  <path d="M 62.072967085611616, 13.827270893558424 Q 61.87518157677849, 12.612181394572895, 61.253821692463106, 11.785961601832549 " fill="none" id="curve_84" stroke="#000000" stroke-linecap="round" stroke-linejoin="round" stroke-width="3.8405538180880936"/>
  <path d="M 59.858565032806, 14.914584963325161 Q 60.703766571339855, 13.463341714682189, 62.490907498474456, 12.134032817194946 " fill="none" id="curve_87" stroke="#000000" stroke-linecap="round" stroke-linejoin="round" stroke-width="3.216365111788816"/>
  <path d="M 60.05176132205338, 14.892398593133748 Q 60.62213422178536, 13.007301356313123, 62.512235799038834, 11.711802172977979 " fill="none" id="curve_102" stroke="#000000" stroke-linecap="round" stroke-linejoin="round" stroke-width="2.864008337836315"/>
  <path d="M 63.42059314286197, 134.52087125509047 Q 63.84185645361743, 134.36835381450146, 64.52673104781992, 134.18081841563622 " fill="none" id="curve_120" stroke="#000000" stroke-linecap="round" stroke-linejoin="round" stroke-width="3.04194407631242"/>
  <path d="M 59.386710526942004, 15.19975802444349 Q 60.21454662487485, 13.722789120060142, 62.14755981533823, 12.334199283740837 " fill="none" id="curve_127" stroke="#000000" stroke-linecap="round" stroke-linejoin="round" stroke-width="3.0438863956936264"/>
  <path d="M 65.10314713246015, 104.8484030618074 Q 65.1159811555149, 105.58784786138666, 65.13647218458316, 106.39063811370386 " fill="none" id="curve_155" stroke="#000000" stroke-linecap="round" stroke-linejoin="round" stroke-width="3.967069493463149"/>
  <path d="M 62.19589097751839, 14.523570027760975 Q 62.07734020377594, 13.645032726173493, 61.94773434759378, 12.204470007882577 " fill="none" id="curve_188" stroke="#000000" stroke-linecap="round" stroke-linejoin="round" stroke-width="4.171108451402565"/>
</svg>
