<?xml version="1.0" ?>
<svg height="140" width="140" xmlns="http://www.w3.org/2000/svg">
  <path d="M 63.093605041503906, 33.461143493652344 Q 62.56227132500959, 33.543651183289676, 62.17569899841692, 33.89105291470034 " fill="none" id="curve_1" stroke="#000000" stroke-linecap="round" stroke-linejoin="round" stroke-width="6.551400526193283"/>
  <path d="M 62.17569899841692, 33.89105291470034 Q 60.19870358532371, 39.119769558116396, 57.01117053837664, 46.92915374131272 " fill="none" id="curve_1" stroke="#000000" stroke-linecap="round" stroke-linejoin="round" stroke-width="5.834049376489547"/>
  <path d="M 57.01117053837664, 46.92915374131272 Q 52.82618537086087, 57.10016496567817, 40.96218907734336, 76.11160596247004 " fill="none" id="curve_1" stroke="#000000" stroke-linecap="round" stroke-linejoin="round" stroke-width="3.3364054007070565"/>
  <path d="M 40.96218907734336, 76.11160596247004 Q 38.33202700210188, 85.663565743243, 31.284579663932927, 90.72777811708174 " fill="none" id="curve_1" stroke="#000000" stroke-linecap="round" stroke-linejoin="round" stroke-width="4.694656680814306"/>
  <path d="M 59.549082545114345, 73.99571638301114 Q 57.67161842347293, 85.45491030195578, 51.0726823201359, 109.58364109157858 " fill="none" id="curve_2" stroke="#000000" stroke-linecap="round" stroke-linejoin="round" stroke-width="4.895643839137006"/>
  <path d="M 51.0726823201359, 109.58364109157858 Q 48.80014499815868, 113.51134442484958, 48.20469039188169, 137.53373635945266 " fill="none" id="curve_2" stroke="#000000" stroke-linecap="round" stroke-linejoin="round" stroke-width="4.507813261890041"/>
  <path d="M 48.20469039188169, 137.53373635945266 Q 49.322243468530324, 137.62197380368917, 50.36159860492475, 137.77250429996622 " fill="none" id="curve_2" stroke="#000000" stroke-linecap="round" stroke-linejoin="round" stroke-width="3.765149827544434"/>
  <path d="M 55.53411079716007, 90.97174362754248 Q 56.791569669293246, 81.87539452449764, 59.06233628093501, 72.69329568788635 " fill="none" id="curve_3" stroke="#000000" stroke-linecap="round" stroke-linejoin="round" stroke-width="4.94301191033783"/>
  <path d="M 59.06233628093501, 72.69329568788635 Q 59.90077711657548, 60.47269460844821, 62.715574885541045, 41.92132604633189 " fill="none" id="curve_3" stroke="#000000" stroke-linecap="round" stroke-linejoin="round" stroke-width="4.743496540540059"/>
  <path d="M 43.876012208205125, 72.26755707535064 Q 42.764117151524744, 82.11380324002046, 33.200296817727995, 85.01256802820612 " fill="none" id="curve_4" stroke="#000000" stroke-linecap="round" stroke-linejoin="round" stroke-width="2.59795147858699"/>
  <path d="M 57.05284089946588, 78.0262927428189 Q 56.4721343206927, 83.64970159616858, 55.75373410612502, 91.1670995183029 " fill="none" id="curve_5" stroke="#000000" stroke-linecap="round" stroke-linejoin="round" stroke-width="3.471190344923256"/>
  <path d="M 57.668591909285546, 83.25367240986878 Q 55.75373399177512, 88.15432734482539, 53.799377244684976, 100.86478321675152 " fill="none" id="curve_8" stroke="#000000" stroke-linecap="round" stroke-linejoin="round" stroke-width="2.6484547446592708"/>
  <path d="M 57.64581086077658, 77.80764304343109 Q 56.600993748763, 89.7749656910544, 52.539728771591776, 105.84672057576934 " fill="none" id="curve_12" stroke="#000000" stroke-linecap="round" stroke-linejoin="round" stroke-width="2.3210852644682056"/>
  <path d="M 55.47498459550283, 44.19334033585719 Q 54.37005641297947, 49.2338632376098, 51.434543437150516, 56.30580524703934 " fill="none" id="curve_14" stroke="#000000" stroke-linecap="round" stroke-linejoin="round" stroke-width="2.7509021725163305"/>
  <path d="M 45.69091034414697, 67.81763200905857 Q 44.72041727492797, 68.54602431653512, 43.61961225760444, 70.51474469656006 " fill="none" id="curve_15" stroke="#000000" stroke-linecap="round" stroke-linejoin="round" stroke-width="3.2820104458426966"/>
  <path d="M 50.65803951169379, 117.04411711727968 Q 50.85490127080295, 116.6786798454011, 51.03406750627564, 115.45359483379224 " fill="none" id="curve_16" stroke="#000000" stroke-linecap="round" stroke-linejoin="round" stroke-width="3.5195203186235933"/>
  <path d="M 60.61346935381312, 44.8631267247755 Q 61.50488742690297, 40.06199862333899, 64.06904776289268, 37.36987504136898 " fill="none" id="curve_18" stroke="#000000" stroke-linecap="round" stroke-linejoin="round" stroke-width="3.2725730810447256"/>
  <path d="M 59.70676423474636, 66.83526254644886 Q 58.61960157779074, 74.20909983810417, 56.038788965842365, 88.66616123701027 " fill="none" id="curve_19" stroke="#000000" stroke-linecap="round" stroke-linejoin="round" stroke-width="2.055522589249654"/>
  <path d="M 58.4522914567768, 74.65221017603265 Q 57.751171563786976, 83.1025483167327, 55.882267592222135, 91.5274426721693 " fill="none" id="curve_24" stroke="#000000" stroke-linecap="round" stroke-linejoin="round" stroke-width="2.4700532410352687"/>
  <path d="M 56.316250607999585, 87.72575821603276 Q 58.02426212860667, 86.46851489028612, 59.13666389449547, 83.27405067305781 " fill="none" id="curve_30" stroke="#000000" stroke-linecap="round" stroke-linejoin="round" stroke-width="3.5725803549781308"/>
  <path d="M 58.977402861987585, 59.86688695955059 Q 59.06576688988328, 58.16056014860091, 59.19753342149266, 55.843000162866666 " fill="none" id="curve_31" stroke="#000000" stroke-linecap="round" stroke-linejoin="round" stroke-width="3.0390554011197293"/>
  <path d="M 57.575232412303706, 67.79879663238955 Q 58.24715188869945, 68.82988823070667, 58.93432955960046, 71.40319905986674 " fill="none" id="curve_46" stroke="#000000" stroke-linecap="round" stroke-linejoin="round" stroke-width="2.845730694024839"/>
  <path d="M 48.827686609884935, 65.48767741399321 Q 48.94944268231804, 65.30340881993088, 49.273257292036305, 64.99928186948638 " fill="none" id="curve_80" stroke="#000000" stroke-linecap="round" stroke-linejoin="round" stroke-width="2.382702837519407"/>
  <path d="M 55.76205926257952, 85.16689640901382 Q 55.373157459154356, 87.86736652928052, 54.62634632618439, 91.13486340582561 " fill="none" id="curve_95" stroke="#000000" stroke-linecap="round" stroke-linejoin="round" stroke-width="2.475624336259441"/>
  <path d="M 54.867360274039584, 80.39295411567615 Q 55.44022679493029, 80.80070284858269, 55.961848917395514, 82.01699972779105 " fill="none" id="curve_110" stroke="#000000" stroke-linecap="round" stroke-linejoin="round" stroke-width="2.4562735129276687"/>
  <path d="M 50.204196086904744, 120.7365137756197 Q 50.064153858029194, 123.1567566627132, 49.491042283675775, 124.46479323781665 " fill="none" id="curve_116" stroke="#000000" stroke-linecap="round" stroke-linejoin="round" stroke-width="3.5185109858694505"/>
  <path d="M 59.24008026579563, 70.80559866827971 Q 60.506528606829576, 69.75408771531427, 61.09848350849239, 66.03269370254881 " fill="none" id="curve_118" stroke="#000000" stroke-linecap="round" stroke-linejoin="round" stroke-width="3.4387793959778525"/>
</svg>
