<?xml version="1.0" ?>
<svg height="140" width="140" xmlns="http://www.w3.org/2000/svg">
  <path d="M 71.44459533691406, 46.511606216430664 Q 66.16516903356815, 52.77592302450287, 46.86185907917388, 69.35720751047484 " fill="none" id="curve_1" stroke="#000000" stroke-linecap="round" stroke-linejoin="round" stroke-width="6.733283695786054"/>
  <path d="M 46.86185907917388, 69.35720751047484 Q 35.75055821081851, 72.59185351267705, 23.534475150591618, 81.39197003735991 " fill="none" id="curve_1" stroke="#000000" stroke-linecap="round" stroke-linejoin="round" stroke-width="4.789718283709072"/>
  <path d="M 34.38108834567428, 94.37786703344972 Q 38.631797008243396, 83.92859632263526, 46.72060914994309, 70.57576472212456 " fill="none" id="curve_2" stroke="#000000" stroke-linecap="round" stroke-linejoin="round" stroke-width="6.203839067881638"/>
  <path d="M 67.87833504271461, 48.254373675307136 Q 70.59623217713204, 46.433639167791085, 72.6863013119964, 43.57166252020937 " fill="none" id="curve_3" stroke="#000000" stroke-linecap="round" stroke-linejoin="round" stroke-width="5.016708374672939"/>
  <path d="M 72.6863013119964, 43.57166252020937 Q 66.5488126373777, 51.88477583902423, 54.9747348249943, 61.28762036880118 " fill="none" id="curve_3" stroke="#000000" stroke-linecap="round" stroke-linejoin="round" stroke-width="4.151356343362406"/>
  <path d="M 54.9747348249943, 61.28762036880118 Q 49.57325370754408, 65.64038440168513, 41.27558796945638, 69.81223304664957 " fill="none" id="curve_3" stroke="#000000" stroke-linecap="round" stroke-linejoin="round" stroke-width="4.237039927934068"/>
  <path d="M 67.8252100944519, 47.67047882080078 Q 65.42623538078607, 49.03183339550819, 62.985318848624274, 57.233544430586335 " fill="none" id="curve_17" stroke="#000000" stroke-linecap="round" stroke-linejoin="round" stroke-width="3.5853171660693377"/>
  <path d="M 62.985318848624274, 57.233544430586335 Q 63.835635190085824, 48.36070541687617, 70.81398844000395, 45.097740210226476 " fill="none" id="curve_17" stroke="#000000" stroke-linecap="round" stroke-linejoin="round" stroke-width="3.817959872768262"/>
  <path d="M 70.81398844000395, 45.097740210226476 Q 70.05085332524288, 51.33131237377787, 67.08197734054569, 53.517562262099986 " fill="none" id="curve_17" stroke="#000000" stroke-linecap="round" stroke-linejoin="round" stroke-width="2.7458965319568183"/>
  <path d="M 23.879468418137293, 81.94897161030558 Q 23.49578283834833, 81.65428759406491, 23.099158285976745, 80.97411357964077 " fill="none" id="curve_33" stroke="#000000" stroke-linecap="round" stroke-linejoin="round" stroke-width="3.207971080714215"/>
  <path d="M 23.099158285976745, 80.97411357964077 Q 26.854339559263803, 79.81547403744882, 31.077447636895165, 77.21694008695445 " fill="none" id="curve_33" stroke="#000000" stroke-linecap="round" stroke-linejoin="round" stroke-width="2.706205467258332"/>
  <path d="M 38.00381539258814, 88.73665821126366 Q 38.74785116230436, 80.32813138547242, 42.496212969462285, 74.63686532313476 " fill="none" id="curve_36" stroke="#000000" stroke-linecap="round" stroke-linejoin="round" stroke-width="2.8851561660556597"/>
  <path d="M 33.266712717187886, 78.08140685603922 Q 29.930880668676185, 80.06779867061897, 21.520161205032615, 81.74148544253286 " fill="none" id="curve_51" stroke="#000000" stroke-linecap="round" stroke-linejoin="round" stroke-width="2.148458478260043"/>
  <path d="M 36.4842973726659, 83.31926903508878 Q 35.70660624575144, 87.15909904122807, 34.87430197992367, 92.20819282912386 " fill="none" id="curve_52" stroke="#000000" stroke-linecap="round" stroke-linejoin="round" stroke-width="2.4684885874224274"/>
  <path d="M 47.717433016149386, 71.06563800555438 Q 52.886411777298335, 66.50029139874012, 59.69927494389893, 59.324841172117885 " fill="none" id="curve_53" stroke="#000000" stroke-linecap="round" stroke-linejoin="round" stroke-width="2.9427637772628006"/>
  <path d="M 69.96132891736127, 45.600463626777504 Q 69.26072400284032, 45.76925616509548, 68.55498701655401, 46.09309985705715 " fill="none" id="curve_54" stroke="#000000" stroke-linecap="round" stroke-linejoin="round" stroke-width="6.431012548812571"/>
  <path d="M 70.8094502619811, 47.6840760066511 Q 71.62509984800165, 47.52164777649943, 72.64928933304033, 47.09978293750088 " fill="none" id="curve_70" stroke="#000000" stroke-linecap="round" stroke-linejoin="round" stroke-width="3.477100599502265"/>
  <path d="M 52.441630167913445, 61.65415989318217 Q 51.21639468749725, 62.47095423362036, 48.64224733430205, 63.732395292129105 " fill="none" id="curve_85" stroke="#000000" stroke-linecap="round" stroke-linejoin="round" stroke-width="3.053520484320676"/>
  <path d="M 24.162215107362737, 80.50412854785316 Q 23.365937852820792, 81.01977685982156, 22.009272008191072, 81.90904223948245 " fill="none" id="curve_119" stroke="#000000" stroke-linecap="round" stroke-linejoin="round" stroke-width="2.7776360086657093"/>
</svg>
