<?xml version="1.0" ?>
<svg height="140" width="140" xmlns="http://www.w3.org/2000/svg">
  <path d="M 58.03290557861328, 89.16421699523926 Q 56.53983035669495, 86.37863612665097, 54.3576672199126, 80.63600940167584 " fill="none" id="curve_1" stroke="#000000" stroke-linecap="round" stroke-linejoin="round" stroke-width="5.979326965191911"/>
  <path d="M 54.3576672199126, 80.63600940167584 Q 53.12113114574894, 80.07881243178328, 52.948335643347285, 70.61064610418875 " fill="none" id="curve_1" stroke="#000000" stroke-linecap="round" stroke-linejoin="round" stroke-width="4.958945016935945"/>
  <path d="M 52.948335643347285, 70.61064610418875 Q 53.23013100941618, 67.91601292921342, 53.48177300614715, 47.33139479022097 " fill="none" id="curve_1" stroke="#000000" stroke-linecap="round" stroke-linejoin="round" stroke-width="4.3425866024191775"/>
  <path d="M 53.48177300614715, 47.33139479022097 Q 54.37588591459255, 37.2133904380518, 59.61409763177988, 25.50925132039436 " fill="none" id="curve_1" stroke="#000000" stroke-linecap="round" stroke-linejoin="round" stroke-width="6.688931795436601"/>
  <path d="M 59.61409763177988, 25.50925132039436 Q 60.90976984969843, 22.892673377456596, 61.98481669473062, 18.463546118285453 " fill="none" id="curve_1" stroke="#000000" stroke-linecap="round" stroke-linejoin="round" stroke-width="8.434865891338296"/>
  <path d="M 51.28303515685156, 45.16357735486385 Q 42.641176973961045, 56.95521286744251, 23.662778764164624, 79.86244685092514 " fill="none" id="curve_2" stroke="#000000" stroke-linecap="round" stroke-linejoin="round" stroke-width="4.023444225418463"/>
  <path d="M 23.662778764164624, 79.86244685092514 Q 22.62704270554184, 79.47078234668433, 21.7632556053474, 78.79527313439131 " fill="none" id="curve_2" stroke="#000000" stroke-linecap="round" stroke-linejoin="round" stroke-width="5.4543452828060035"/>
  <path d="M 2.6726182537312884, 137.90621312860708 Q 2.5369382569892687, 138.37460882293547, 2.0439583795981235, 138.59866339689603 " fill="none" id="curve_5" stroke="#000000" stroke-linecap="round" stroke-linejoin="round" stroke-width="2.716400229624692"/>
  <path d="M 50.49074945477649, 44.18551623130878 Q 55.40865546048762, 41.4463504487564, 57.41112779613672, 22.320296224090846 " fill="none" id="curve_9" stroke="#000000" stroke-linecap="round" stroke-linejoin="round" stroke-width="3.4057784424001545"/>
  <path d="M 57.41112779613672, 22.320296224090846 Q 58.612468479367315, 17.791328690281745, 63.127053301399876, 15.912343964639938 " fill="none" id="curve_9" stroke="#000000" stroke-linecap="round" stroke-linejoin="round" stroke-width="3.165065339214143"/>
  <path d="M 45.40016136520296, 51.48543161061184 Q 39.5377521356209, 54.22448961513507, 35.89244731309731, 66.00450166014411 " fill="none" id="curve_10" stroke="#000000" stroke-linecap="round" stroke-linejoin="round" stroke-width="2.5946329161249615"/>
  <path d="M 35.89244731309731, 66.00450166014411 Q 33.966003064008945, 72.74922676831805, 24.03671064721778, 75.80187903377544 " fill="none" id="curve_10" stroke="#000000" stroke-linecap="round" stroke-linejoin="round" stroke-width="2.7264269327325694"/>
  <path d="M 56.17241647298963, 88.07909989971401 Q 55.75034494731224, 87.58106975040342, 55.41234608231453, 86.34699955625122 " fill="none" id="curve_12" stroke="#000000" stroke-linecap="round" stroke-linejoin="round" stroke-width="2.9665628565798534"/>
  <path d="M 51.801358618866466, 71.30738073332385 Q 51.901343049115454, 70.72048581986371, 52.005248118105584, 69.78176240624671 " fill="none" id="curve_13" stroke="#000000" stroke-linecap="round" stroke-linejoin="round" stroke-width="4.483582961320085"/>
  <path d="M 51.38471038923291, 54.760214042617235 Q 51.74624697793319, 53.495667621515146, 52.44142696345705, 52.10924205303057 " fill="none" id="curve_28" stroke="#000000" stroke-linecap="round" stroke-linejoin="round" stroke-width="2.8911697530492138"/>
  <path d="M 47.5717453078621, 46.280311284275285 Q 48.975895524535446, 44.774561337932106, 51.70095313991047, 40.93835234579329 " fill="none" id="curve_43" stroke="#000000" stroke-linecap="round" stroke-linejoin="round" stroke-width="2.232603724454574"/>
  <path d="M 60.53814405347747, 26.140970153996214 Q 63.18051324588035, 24.955311869566902, 64.0149282148999, 18.531717642178734 " fill="none" id="curve_72" stroke="#000000" stroke-linecap="round" stroke-linejoin="round" stroke-width="2.845314707069051"/>
  <path d="M 23.018208404378427, 77.8983913513691 Q 21.926213625434265, 78.78889327059592, 20.552108897168267, 80.28082299143 " fill="none" id="curve_78" stroke="#000000" stroke-linecap="round" stroke-linejoin="round" stroke-width="2.7471504160572238"/>
  <path d="M 45.26391410724773, 50.941792857790915 Q 46.44423192476194, 49.13015778727994, 50.67885981390329, 47.21215664887349 " fill="none" id="curve_106" stroke="#000000" stroke-linecap="round" stroke-linejoin="round" stroke-width="2.4143153840426916"/>
  <path d="M 53.51785912042324, 36.03218374656028 Q 55.2066737563404, 32.02517552291235, 60.44563383986784, 27.90168217196564 " fill="none" id="curve_117" stroke="#000000" stroke-linecap="round" stroke-linejoin="round" stroke-width="2.644291870489703"/>
</svg>
