<?xml version="1.0" ?>
<svg height="140" width="140" xmlns="http://www.w3.org/2000/svg">
  <path d="M 17.5273494720459, 82.61710548400879 Q 17.112840561697432, 83.18181185703692, 16.05299180701273, 83.9090799814677 " fill="none" id="curve_1" stroke="#000000" stroke-linecap="round" stroke-linejoin="round" stroke-width="6.197639787008913"/>
  <path d="M 16.05299180701273, 83.9090799814677 Q 20.356449897369178, 77.19454623208088, 32.05483000677996, 65.84918411170526 " fill="none" id="curve_1" stroke="#000000" stroke-linecap="round" stroke-linejoin="round" stroke-width="6.606732718276097"/>
  <path d="M 32.05483000677996, 65.84918411170526 Q 38.5521715479581, 59.06134402703733, 52.4405682510737, 42.58637001680741 " fill="none" id="curve_1" stroke="#000000" stroke-linecap="round" stroke-linejoin="round" stroke-width="6.615804583338105"/>
  <path d="M 52.4405682510737, 42.58637001680741 Q 56.18200169589572, 37.697134883081524, 60.673696194419094, 30.91861417141773 " fill="none" id="curve_1" stroke="#000000" stroke-linecap="round" stroke-linejoin="round" stroke-width="5.481076380254848"/>
  <path d="M 60.673696194419094, 30.91861417141773 Q 59.64712636269111, 43.94906550204099, 52.863702015310295, 63.56073507850814 " fill="none" id="curve_1" stroke="#000000" stroke-linecap="round" stroke-linejoin="round" stroke-width="4.759627871389569"/>
  <path d="M 52.863702015310295, 63.56073507850814 Q 50.40923314576278, 74.13729456951673, 44.01945504663197, 97.39279373175978 " fill="none" id="curve_1" stroke="#000000" stroke-linecap="round" stroke-linejoin="round" stroke-width="6.882848444627467"/>
  <path d="M 44.01945504663197, 97.39279373175978 Q 45.132717611036796, 97.38880783324898, 46.14058114922989, 97.38200046756803 " fill="none" id="curve_1" stroke="#000000" stroke-linecap="round" stroke-linejoin="round" stroke-width="6.874177756858399"/>
  <path d="M 88.73380069556121, 133.6295352218513 Q 88.89471623182027, 130.57735196678135, 88.98379367738463, 112.12619616339751 " fill="none" id="curve_2" stroke="#000000" stroke-linecap="round" stroke-linejoin="round" stroke-width="2.165585886930538"/>
  <path d="M 88.98379367738463, 112.12619616339751 Q 89.4240753922063, 110.13459330864072, 89.58970675117568, 95.28727180207248 " fill="none" id="curve_2" stroke="#000000" stroke-linecap="round" stroke-linejoin="round" stroke-width="2.1977123360753654"/>
  <path d="M 89.58970675117568, 95.28727180207248 Q 89.77147977022415, 91.87796860171765, 89.89188123409481, 77.86208218184363 " fill="none" id="curve_2" stroke="#000000" stroke-linecap="round" stroke-linejoin="round" stroke-width="1.9133556685937092"/>
  <path d="M 89.89188123409481, 77.86208218184363 Q 89.85170877212607, 71.69785569404272, 89.7917990989711, 58.70970089140715 " fill="none" id="curve_2" stroke="#000000" stroke-linecap="round" stroke-linejoin="round" stroke-width="1.780521053048361"/>
  <path d="M 89.7917990989711, 58.70970089140715 Q 89.76589108641775, 54.496214964521194, 89.73639757443893, 43.68941527275895 " fill="none" id="curve_2" stroke="#000000" stroke-linecap="round" stroke-linejoin="round" stroke-width="1.6028045536899527"/>
  <path d="M 89.73639757443893, 43.68941527275895 Q 89.72617657944959, 40.123523807940536, 89.7154432921392, 30.253790981937918 " fill="none" id="curve_2" stroke="#000000" stroke-linecap="round" stroke-linejoin="round" stroke-width="1.484000871108277"/>
  <path d="M 89.7154432921392, 30.253790981937918 Q 89.68036876541103, 27.74844020611031, 89.65367087165211, 17.3203337930098 " fill="none" id="curve_2" stroke="#000000" stroke-linecap="round" stroke-linejoin="round" stroke-width="1.4200850420304412"/>
  <path d="M 89.65367087165211, 17.3203337930098 Q 89.59283493212635, 15.343793821901448, 89.55117425733518, 4.511208012903209 " fill="none" id="curve_2" stroke="#000000" stroke-linecap="round" stroke-linejoin="round" stroke-width="1.383850133860638"/>
  <path d="M 89.55117425733518, 4.511208012903209 Q 89.4310573616001, 1.7708986801758027, 88.80275127702664, 0.9872240575199083 " fill="none" id="curve_2" stroke="#000000" stroke-linecap="round" stroke-linejoin="round" stroke-width="2.0883277238133444"/>
  <path d="M 88.80275127702664, 0.9872240575199083 Q 89.2591224525474, 0.9967238490648708, 89.74499043925749, 1.0141773444025777 " fill="none" id="curve_2" stroke="#000000" stroke-linecap="round" stroke-linejoin="round" stroke-width="1.4156325992066248"/>
  <path d="M 62.26752649260613, 38.104415293659955 Q 62.24345943883746, 32.82733865135671, 60.35072584504317, 32.600380943746465 " fill="none" id="curve_8" stroke="#000000" stroke-linecap="round" stroke-linejoin="round" stroke-width="2.9515662845354305"/>
  <path d="M 60.35072584504317, 32.600380943746465 Q 55.5826872616425, 34.88627607131598, 50.59608937603809, 41.11428947259006 " fill="none" id="curve_8" stroke="#000000" stroke-linecap="round" stroke-linejoin="round" stroke-width="2.8103981445535866"/>
  <path d="M 52.69428172418809, 64.93654758009106 Q 47.56922998571154, 69.36662616348144, 45.11051388017688, 85.66672739180106 " fill="none" id="curve_9" stroke="#000000" stroke-linecap="round" stroke-linejoin="round" stroke-width="3.3939177559807163"/>
  <path d="M 53.247157175934845, 66.23588972132139 Q 54.82405885925687, 63.32705087746338, 55.908926244086715, 57.082414945858105 " fill="none" id="curve_10" stroke="#000000" stroke-linecap="round" stroke-linejoin="round" stroke-width="2.6662982364730334"/>
  <path d="M 87.64334311615656, 138.16113488952232 Q 88.90295299051047, 138.13325264927016, 89.49771520083765, 137.93934174194777 " fill="none" id="curve_44" stroke="#000000" stroke-linecap="round" stroke-linejoin="round" stroke-width="2.565042672349814"/>
  <path d="M 89.49771520083765, 137.93934174194777 Q 89.45763444008422, 137.97271023133072, 89.39400216616875, 138.02893283933062 " fill="none" id="curve_44" stroke="#000000" stroke-linecap="round" stroke-linejoin="round" stroke-width="2.161041223564981"/>
  <path d="M 43.76355346992067, 95.42040564915465 Q 43.65999474745369, 95.82937385013099, 43.53069438640503, 96.63905810471636 " fill="none" id="curve_50" stroke="#000000" stroke-linecap="round" stroke-linejoin="round" stroke-width="4.937600740702601"/>
  <path d="M 42.05388960749693, 97.29001021040547 Q 42.41925288943937, 96.54509296870664, 42.9657620876598, 95.38569289876979 " fill="none" id="curve_79" stroke="#000000" stroke-linecap="round" stroke-linejoin="round" stroke-width="3.8799671534210307"/>
  <path d="M 51.48379118148564, 76.41148534105113 Q 52.09799324379281, 60.663718047722284, 57.62904968078297, 51.821681795393104 " fill="none" id="curve_111" stroke="#000000" stroke-linecap="round" stroke-linejoin="round" stroke-width="2.1731164902630873"/>
</svg>
