<?xml version="1.0" ?>
<svg height="140" width="140" xmlns="http://www.w3.org/2000/svg">
  <path d="M 54.552640026211016, 16.100853449043115 Q 52.86324221234011, 25.676326039508936, 48.355682111891525, 42.7617578702413 " fill="none" id="curve_2" stroke="#000000" stroke-linecap="round" stroke-linejoin="round" stroke-width="6.299208227210568"/>
  <path d="M 48.355682111891525, 42.7617578702413 Q 44.949497784736856, 55.556771667936815, 25.419287801655123, 82.4527147685049 " fill="none" id="curve_2" stroke="#000000" stroke-linecap="round" stroke-linejoin="round" stroke-width="4.275257430950051"/>
  <path d="M 25.419287801655123, 82.4527147685049 Q 20.11131385489655, 94.64458152746342, 7.856995960568042, 107.06460077435918 " fill="none" id="curve_2" stroke="#000000" stroke-linecap="round" stroke-linejoin="round" stroke-width="3.8860316575692533"/>
  <path d="M 39.49226118742463, 123.96915543378712 Q 40.08595678039292, 111.49331535045685, 41.99606298228756, 81.37318161992076 " fill="none" id="curve_3" stroke="#000000" stroke-linecap="round" stroke-linejoin="round" stroke-width="4.7734624164831185"/>
  <path d="M 41.99606298228756, 81.37318161992076 Q 43.690752633632286, 73.15347062816589, 45.681691185878265, 53.93884179890033 " fill="none" id="curve_3" stroke="#000000" stroke-linecap="round" stroke-linejoin="round" stroke-width="3.955134137372802"/>
  <path d="M 45.681691185878265, 53.93884179890033 Q 45.56680428194644, 48.716327792713265, 45.242003406325146, 44.989035756122945 " fill="none" id="curve_3" stroke="#000000" stroke-linecap="round" stroke-linejoin="round" stroke-width="4.835706406401948"/>
  <path d="M 38.92896805250538, 110.37056197654815 Q 39.25668324247458, 122.44921832713081, 42.894973729658275, 123.95886712517317 " fill="none" id="curve_5" stroke="#000000" stroke-linecap="round" stroke-linejoin="round" stroke-width="4.890480191790964"/>
  <path d="M 38.289855091752536, 122.63274660474453 Q 39.30774163012905, 114.28334234081689, 40.657689157155446, 96.17518491326804 " fill="none" id="curve_6" stroke="#000000" stroke-linecap="round" stroke-linejoin="round" stroke-width="2.5742792439702"/>
  <path d="M 20.152050615830888, 92.36731225361024 Q 12.948701586010884, 96.743308639866, 7.663323071458645, 108.41185691280502 " fill="none" id="curve_7" stroke="#000000" stroke-linecap="round" stroke-linejoin="round" stroke-width="3.299506598701794"/>
  <path d="M 7.663323071458645, 108.41185691280502 Q 13.327330356668856, 103.52981954641966, 19.629768569049624, 93.86087657477353 " fill="none" id="curve_7" stroke="#000000" stroke-linecap="round" stroke-linejoin="round" stroke-width="1.9773682155207453"/>
  <path d="M 30.332381844290325, 80.3831868430243 Q 26.919980725913277, 81.324637691124, 25.363993861568396, 84.98012997961317 " fill="none" id="curve_8" stroke="#000000" stroke-linecap="round" stroke-linejoin="round" stroke-width="2.7489139034173595"/>
  <path d="M 42.90499072539789, 95.48468721024636 Q 39.79904944146303, 99.61676297525437, 37.26820844212592, 108.35133883180897 " fill="none" id="curve_9" stroke="#000000" stroke-linecap="round" stroke-linejoin="round" stroke-width="2.5966046736469184"/>
  <path d="M 39.954081553006354, 121.84139053700711 Q 38.73512790862754, 118.87847714652698, 37.5666320893622, 114.31851456221689 " fill="none" id="curve_10" stroke="#000000" stroke-linecap="round" stroke-linejoin="round" stroke-width="4.921567769117919"/>
  <path d="M 42.549337540096474, 53.19957449490086 Q 42.99168314421855, 49.81468679246042, 45.2378785962311, 47.58496536478654 " fill="none" id="curve_12" stroke="#000000" stroke-linecap="round" stroke-linejoin="round" stroke-width="3.4766054773388326"/>
  <path d="M 54.52210545377367, 19.329142120424272 Q 52.72763269858269, 22.266483379082764, 50.55407964245742, 29.073564485868197 " fill="none" id="curve_13" stroke="#000000" stroke-linecap="round" stroke-linejoin="round" stroke-width="3.325974138356007"/>
  <path d="M 50.85431752533594, 30.81242621261468 Q 51.96482162882107, 25.451498228697815, 54.151341137139084, 18.389451766580052 " fill="none" id="curve_23" stroke="#000000" stroke-linecap="round" stroke-linejoin="round" stroke-width="3.236595640536832"/>
  <path d="M 54.151341137139084, 18.389451766580052 Q 53.62370705607947, 18.9997820339388, 52.49644493104694, 20.14204008698825 " fill="none" id="curve_23" stroke="#000000" stroke-linecap="round" stroke-linejoin="round" stroke-width="3.2848321187801885"/>
  <path d="M 51.0584983358264, 31.55130352909468 Q 52.02501296297497, 25.54832232615142, 54.28078373914273, 18.382066711583178 " fill="none" id="curve_25" stroke="#000000" stroke-linecap="round" stroke-linejoin="round" stroke-width="3.130798757202221"/>
  <path d="M 51.50100426413571, 30.387738473105216 Q 52.38455063458045, 24.42792272145619, 54.64728664647788, 17.797563657679262 " fill="none" id="curve_28" stroke="#000000" stroke-linecap="round" stroke-linejoin="round" stroke-width="2.9990470371201043"/>
  <path d="M 46.75717528305297, 40.40728615862949 Q 50.92699012821791, 34.65156086189874, 54.74426726084493, 18.664936749929026 " fill="none" id="curve_31" stroke="#000000" stroke-linecap="round" stroke-linejoin="round" stroke-width="3.619306191674966"/>
  <path d="M 48.334574947218954, 50.780628703396815 Q 48.066799689448395, 49.182247314350235, 46.03262626154033, 48.635710981950474 " fill="none" id="curve_46" stroke="#000000" stroke-linecap="round" stroke-linejoin="round" stroke-width="3.1133697118981196"/>
  <path d="M 46.03262626154033, 48.635710981950474 Q 47.61923990107999, 36.06311360256019, 53.38330249470533, 27.120318889141753 " fill="none" id="curve_46" stroke="#000000" stroke-linecap="round" stroke-linejoin="round" stroke-width="3.3548043920966784"/>
  <path d="M 53.38330249470533, 27.120318889141753 Q 53.416617866953345, 20.323295977677475, 53.648414205949386, 18.890783730363164 " fill="none" id="curve_46" stroke="#000000" stroke-linecap="round" stroke-linejoin="round" stroke-width="5.776695173063713"/>
  <path d="M 53.648414205949386, 18.890783730363164 Q 53.56659364276817, 18.712076800922333, 53.43475347598205, 18.497933206012895 " fill="none" id="curve_46" stroke="#000000" stroke-linecap="round" stroke-linejoin="round" stroke-width="4.1596766526092805"/>
  <path d="M 51.74015575957333, 23.54274161683179 Q 52.396725262790824, 20.287996700509606, 55.02643279468646, 18.882370946318016 " fill="none" id="curve_61" stroke="#000000" stroke-linecap="round" stroke-linejoin="round" stroke-width="4.196559872845497"/>
  <path d="M 50.97777694882528, 32.828400796729504 Q 50.25699988417153, 32.691742624943586, 48.97266751979194, 32.39652237021281 " fill="none" id="curve_67" stroke="#000000" stroke-linecap="round" stroke-linejoin="round" stroke-width="3.149004493631879"/>
  <path d="M 41.808745140051265, 58.10695537774788 Q 39.56045191099376, 58.34985782682887, 37.95503561382995, 59.483719579263436 " fill="none" id="curve_73" stroke="#000000" stroke-linecap="round" stroke-linejoin="round" stroke-width="3.476168953077543"/>
  <path d="M 41.511012128953666, 78.93536201693405 Q 42.30168427345366, 71.43686077342726, 44.82874482144556, 65.94087168868356 " fill="none" id="curve_114" stroke="#000000" stroke-linecap="round" stroke-linejoin="round" stroke-width="2.6738482577875926"/>
  <path d="M 55.691994904471386, 18.529490541858763 Q 55.84675994490081, 19.91773798413544, 56.22436799660958, 21.059626333862212 " fill="none" id="curve_129" stroke="#000000" stroke-linecap="round" stroke-linejoin="round" stroke-width="2.8644542960424535"/>
</svg>
