<?xml version="1.0" ?>
<svg height="140" width="140" xmlns="http://www.w3.org/2000/svg">
  <path d="M 44.0, 132.0 Q 38.592888889650396, 128.9280705686142, 32.91841697692871, 111.79655456542969 " fill="none" id="curve_0" stroke="#000000" stroke-linecap="round" stroke-linejoin="round" stroke-width="19.415345249405828"/>
  <path d="M 32.91841697692871, 111.79655456542969 Q 32.84954880420981, 100.76593638488038, 32.12699217164695, 94.69538462223863 " fill="none" id="curve_0" stroke="#000000" stroke-linecap="round" stroke-linejoin="round" stroke-width="23.52142537684287"/>
  <path d="M 32.12699217164695, 94.69538462223863 Q 22.6618575218777, 94.06143232402061, 9.98796279977589, 92.65144479401985 " fill="none" id="curve_0" stroke="#000000" stroke-linecap="round" stroke-linejoin="round" stroke-width="23.264493676511766"/>
  <path d="M 9.98796279977589, 92.65144479401985 Q 10.80123431975614, 85.43577768697139, 11.702416416014053, 61.10434798384376 " fill="none" id="curve_0" stroke="#000000" stroke-linecap="round" stroke-linejoin="round" stroke-width="21.750812527520683"/>
  <path d="M 11.702416416014053, 61.10434798384376 Q 11.595148814443315, 39.829509100173865, 11.233433985905021, 13.412862586872272 " fill="none" id="curve_0" stroke="#000000" stroke-linecap="round" stroke-linejoin="round" stroke-width="26.361711373977887"/>
  <path d="M 11.233433985905021, 13.412862586872272 Q 17.977500575091234, 18.60580586021304, 73.98433198948321, 20.79175518740862 " fill="none" id="curve_0" stroke="#000000" stroke-linecap="round" stroke-linejoin="round" stroke-width="23.306721305272667"/>
  <path d="M 73.98433198948321, 20.79175518740862 Q 74.86712161992571, 13.693139905854029, 78.17502969671902, 9.477262663738422 " fill="none" id="curve_0" stroke="#000000" stroke-linecap="round" stroke-linejoin="round" stroke-width="17.84495919583792"/>
  <path d="M 78.17502969671902, 9.477262663738422 Q 82.00120137543125, 9.942096836239823, 83.28007335326326, 19.965569714360278 " fill="none" id="curve_0" stroke="#000000" stroke-linecap="round" stroke-linejoin="round" stroke-width="13.071020085420418"/>
  <path d="M 83.28007335326326, 19.965569714360278 Q 82.12091305857547, 26.464760715646555, 80.36759701194472, 42.560783089222994 " fill="none" id="curve_0" stroke="#000000" stroke-linecap="round" stroke-linejoin="round" stroke-width="14.770601210577636"/>
  <path d="M 80.36759701194472, 42.560783089222994 Q 78.52234725906098, 33.47307705119808, 72.16256236160788, 12.564560073067167 " fill="none" id="curve_0" stroke="#000000" stroke-linecap="round" stroke-linejoin="round" stroke-width="12.290030217815708"/>
  <path d="M 72.16256236160788, 12.564560073067167 Q 67.93811376971182, 22.175650589707075, 50.99910056834987, 45.35850628059461 " fill="none" id="curve_0" stroke="#000000" stroke-linecap="round" stroke-linejoin="round" stroke-width="16.03761621431115"/>
  <path d="M 50.99910056834987, 45.35850628059461 Q 40.023039929757914, 44.62342704615507, 34.915276380832694, 38.65880458396032 " fill="none" id="curve_0" stroke="#000000" stroke-linecap="round" stroke-linejoin="round" stroke-width="28.13672049936042"/>
  <path d="M 34.915276380832694, 38.65880458396032 Q 31.56265451512261, 53.95067866245334, 26.39043772563059, 68.95126711818297 " fill="none" id="curve_0" stroke="#000000" stroke-linecap="round" stroke-linejoin="round" stroke-width="10.317284096000249"/>
  <path d="M 26.39043772563059, 68.95126711818297 Q 42.26193857733081, 68.45281365516526, 49.41390357636645, 63.06215032869063 " fill="none" id="curve_0" stroke="#000000" stroke-linecap="round" stroke-linejoin="round" stroke-width="9.702748849875105"/>
  <path d="M 49.41390357636645, 63.06215032869063 Q 57.45714221646957, 52.11889898485446, 93.94789237565871, 46.473855338029395 " fill="none" id="curve_0" stroke="#000000" stroke-linecap="round" stroke-linejoin="round" stroke-width="6.500578897571228"/>
  <path d="M 93.94789237565871, 46.473855338029395 Q 83.59080373985508, 55.196438872276296, 75.61990199029547, 74.4571981222032 " fill="none" id="curve_0" stroke="#000000" stroke-linecap="round" stroke-linejoin="round" stroke-width="22.723383380821865"/>
  <path d="M 75.61990199029547, 74.4571981222032 Q 77.2352725077592, 84.83222152901293, 78.3250764875183, 118.81689398803711 " fill="none" id="curve_0" stroke="#000000" stroke-linecap="round" stroke-linejoin="round" stroke-width="24.527523002702516"/>
  <path d="M 78.3250764875183, 118.81689398803711 Q 71.7433573049789, 116.79229874678991, 49.54811402843093, 114.32306616821289 " fill="none" id="curve_0" stroke="#000000" stroke-linecap="round" stroke-linejoin="round" stroke-width="37.10407772696162"/>
  <path d="M 49.54811402843093, 114.32306616821289 Q 36.66701391650048, 117.48280559426456, 8.127017711624816, 121.22044609079116 " fill="none" id="curve_0" stroke="#000000" stroke-linecap="round" stroke-linejoin="round" stroke-width="25.092090096272557"/>
  <path d="M 8.127017711624816, 121.22044609079116 Q 7.860715138120721, 130.8990010772214, 6.202341729179338, 133.72282774338476 " fill="none" id="curve_0" stroke="#000000" stroke-linecap="round" stroke-linejoin="round" stroke-width="9.600828659821707"/>
  <path d="M 6.202341729179338, 133.72282774338476 Q 6.958015259570478, 135.24646813977543, 52.34106040014383, 135.31380317179745 " fill="none" id="curve_0" stroke="#000000" stroke-linecap="round" stroke-linejoin="round" stroke-width="11.067202109155687"/>
  <path d="M 52.34106040014383, 135.31380317179745 Q 67.19517116137139, 135.314707815636, 87.65711351609134, 135.31568461678881 " fill="none" id="curve_0" stroke="#000000" stroke-linecap="round" stroke-linejoin="round" stroke-width="11.399834645363285"/>
  <path d="M 87.65711351609134, 135.31568461678881 Q 86.61357621494786, 105.25529388388003, 67.77265058678982, 99.41256874920657 " fill="none" id="curve_0" stroke="#000000" stroke-linecap="round" stroke-linejoin="round" stroke-width="9.154208769417087"/>
  <path d="M 67.77265058678982, 99.41256874920657 Q 57.89982370833902, 98.18912993546749, 56.44923657966588, 69.94402595392799 " fill="none" id="curve_0" stroke="#000000" stroke-linecap="round" stroke-linejoin="round" stroke-width="11.987531264297733"/>
  <path d="M 56.44923657966588, 69.94402595392799 Q 54.49983708487081, 74.69145942171059, 35.06786858875323, 75.82145126917911 " fill="none" id="curve_0" stroke="#000000" stroke-linecap="round" stroke-linejoin="round" stroke-width="8.185625601997568"/>
  <path d="M 35.06786858875323, 75.82145126917911 Q 36.55656743172051, 81.07484594354408, 47.4882458612772, 82.29364592679677 " fill="none" id="curve_0" stroke="#000000" stroke-linecap="round" stroke-linejoin="round" stroke-width="10.333944198508739"/>
  <path d="M 47.4882458612772, 82.29364592679677 Q 47.501723327610826, 94.33469740704834, 47.970944583732155, 95.39206174501416 " fill="none" id="curve_0" stroke="#000000" stroke-linecap="round" stroke-linejoin="round" stroke-width="7.650729643704153"/>
  <path d="M 22.76497034405541, 99.4970787369615 Q 21.98619993217697, 104.24672773782942, 5.792507224271315, 104.74816201983917 " fill="none" id="curve_1" stroke="#000000" stroke-linecap="round" stroke-linejoin="round" stroke-width="15.008054932332502"/>
  <path d="M 5.792507224271315, 104.74816201983917 Q 11.152652851552116, 94.26450099500715, 20.632603722236148, 76.99722289172216 " fill="none" id="curve_1" stroke="#000000" stroke-linecap="round" stroke-linejoin="round" stroke-width="7.173214890369918"/>
  <path d="M 20.632603722236148, 76.99722289172216 Q 29.379345294867193, 75.24305283685621, 36.004112935832325, 61.697416465800714 " fill="none" id="curve_1" stroke="#000000" stroke-linecap="round" stroke-linejoin="round" stroke-width="4.729338097637183"/>
  <path d="M 36.004112935832325, 61.697416465800714 Q 40.83385096066682, 54.62386185651367, 61.027276570878705, 51.025227107238415 " fill="none" id="curve_1" stroke="#000000" stroke-linecap="round" stroke-linejoin="round" stroke-width="4.099446903155964"/>
  <path d="M 61.027276570878705, 51.025227107238415 Q 61.11009001461443, 70.61872667084529, 62.06528137604388, 74.61500624767957 " fill="none" id="curve_1" stroke="#000000" stroke-linecap="round" stroke-linejoin="round" stroke-width="4.25656080351434"/>
  <path d="M 87.31425155694677, 68.5455010359285 Q 88.10341398513974, 71.26317185926133, 88.29361353245463, 88.14358215408544 " fill="none" id="curve_2" stroke="#000000" stroke-linecap="round" stroke-linejoin="round" stroke-width="5.229198186363509"/>
  <path d="M 70.8284534275469, 94.95897342707062 Q 76.94399655012809, 96.74567320160187, 89.79718051777435, 101.29813376838848 " fill="none" id="curve_3" stroke="#000000" stroke-linecap="round" stroke-linejoin="round" stroke-width="6.87027363615519"/>
  <path d="M 87.6572543384836, 45.990647585797134 Q 86.24207059763629, 29.782997691106615, 83.26602503679254, 5.324630053448502 " fill="none" id="curve_6" stroke="#000000" stroke-linecap="round" stroke-linejoin="round" stroke-width="8.379601031900888"/>
  <path d="M 83.26602503679254, 5.324630053448502 Q 74.04494517508897, 7.075854824807845, 50.27305945775964, 8.370212526726547 " fill="none" id="curve_6" stroke="#000000" stroke-linecap="round" stroke-linejoin="round" stroke-width="12.904174715639597"/>
  <path d="M 50.27305945775964, 8.370212526726547 Q 42.52700786366176, 4.689746506196183, 7.699333876590515, 1.5350057051656876 " fill="none" id="curve_6" stroke="#000000" stroke-linecap="round" stroke-linejoin="round" stroke-width="5.849646337061044"/>
  <path d="M 58.27788834886178, 41.33982635706927 Q 62.813871857880784, 39.872519048647376, 73.64164079019194, 38.65236175239398 " fill="none" id="curve_7" stroke="#000000" stroke-linecap="round" stroke-linejoin="round" stroke-width="7.903675413653345"/>
  <path d="M 84.4912489030265, 11.961569669128096 Q 86.32433960286683, 8.258340083870948, 88.70183700003881, 3.5439574046926943 " fill="none" id="curve_8" stroke="#000000" stroke-linecap="round" stroke-linejoin="round" stroke-width="5.28180547466474"/>
  <path d="M 69.07961476747076, 0.6519122864887805 Q 77.00211376885619, 3.8116913972201854, 88.92930961384107, 12.177594933038888 " fill="none" id="curve_10" stroke="#000000" stroke-linecap="round" stroke-linejoin="round" stroke-width="3.9034526185205696"/>
  <path d="M 73.14592228015053, 46.58950380805134 Q 70.77277491394351, 47.04706424378301, 52.94299338022534, 47.277918706955965 " fill="none" id="curve_11" stroke="#000000" stroke-linecap="round" stroke-linejoin="round" stroke-width="3.2317339824005096"/>
  <path d="M 72.9775279258509, 56.962798660959315 Q 71.15136643745262, 58.106750302741204, 70.25652664423392, 62.35041781327683 " fill="none" id="curve_12" stroke="#000000" stroke-linecap="round" stroke-linejoin="round" stroke-width="3.6620692398162302"/>
  <path d="M 79.84126073026418, 108.0526648993345 Q 86.420624906826, 108.71448805354063, 88.37144150784671, 113.79372220587376 " fill="none" id="curve_18" stroke="#000000" stroke-linecap="round" stroke-linejoin="round" stroke-width="5.504304529375921"/>
  <path d="M 43.04393513954894, 94.49373918086054 Q 42.591247274664326, 91.28917598194786, 41.721332595493465, 86.46200028342437 " fill="none" id="curve_23" stroke="#000000" stroke-linecap="round" stroke-linejoin="round" stroke-width="3.830103436872559"/>
  <path d="M 52.596905138678196, 95.15341936026833 Q 52.19079885718187, 94.00418117844974, 51.74927479499155, 91.60523455084756 " fill="none" id="curve_24" stroke="#000000" stroke-linecap="round" stroke-linejoin="round" stroke-width="3.4366766321122872"/>
  <path d="M 53.066615996054836, 98.54139889019339 Q 53.044222485825436, 96.70846315485046, 50.24645854952831, 96.63546242240527 " fill="none" id="curve_25" stroke="#000000" stroke-linecap="round" stroke-linejoin="round" stroke-width="3.378369470046218"/>
  <path d="M 31.002528457239464, 80.07763545426911 Q 30.852744966427345, 82.60550336427457, 25.61935357569352, 83.00525581747058 " fill="none" id="curve_26" stroke="#000000" stroke-linecap="round" stroke-linejoin="round" stroke-width="3.403444760292618"/>
  <path d="M 26.82596902021479, 77.34689058794301 Q 24.599804489185853, 78.22326163874398, 23.584802519188766, 81.40791937875726 " fill="none" id="curve_27" stroke="#000000" stroke-linecap="round" stroke-linejoin="round" stroke-width="2.3044762286711302"/>
  <path d="M 57.94119926259212, 62.502156558975095 Q 53.22351435004247, 62.70470881843397, 49.10514203661765, 64.26827919182452 " fill="none" id="curve_29" stroke="#000000" stroke-linecap="round" stroke-linejoin="round" stroke-width="3.27464134554019"/>
  <path d="M 88.20534391540241, 60.89144734957813 Q 88.52623444099116, 63.051121244305634, 89.10780447232686, 65.76920171221838 " fill="none" id="curve_44" stroke="#000000" stroke-linecap="round" stroke-linejoin="round" stroke-width="4.204127490653594"/>
  <path d="M 83.89191818237305, 4.922813415527344 Q 78.38673757479806, 4.213365019486445, 69.25013521762412, 2.3565980074940853 " fill="none" id="curve_58" stroke="#000000" stroke-linecap="round" stroke-linejoin="round" stroke-width="3.8494933399722715"/>
  <path d="M 69.25013521762412, 2.3565980074940853 Q 68.40325274403322, 1.5037888753851978, 51.99143164945377, 1.2860222667348873 " fill="none" id="curve_58" stroke="#000000" stroke-linecap="round" stroke-linejoin="round" stroke-width="2.2530399084845545"/>
  <path d="M 51.99143164945377, 1.2860222667348873 Q 49.210158683260296, 1.243184396050973, 47.09036183094636, 1.1297697923244894 " fill="none" id="curve_58" stroke="#000000" stroke-linecap="round" stroke-linejoin="round" stroke-width="2.0898482073485423"/>
  <path d="M 47.755269834465025, 27.867999702758116 Q 48.76271876570565, 28.690446064458687, 49.98681352258434, 30.213429855394853 " fill="none" id="curve_59" stroke="#000000" stroke-linecap="round" stroke-linejoin="round" stroke-width="4.525328720610229"/>
  <path d="M 24.62754390691232, 30.396744153042537 Q 23.802656545030672, 30.619104805151714, 22.93598539259013, 31.359052782641026 " fill="none" id="curve_60" stroke="#000000" stroke-linecap="round" stroke-linejoin="round" stroke-width="4.493973946892438"/>
  <path d="M 6.184887899328139, 2.33741255966226 Q 3.618668304777899, 2.7468445038564897, 2.6840774669601393, 4.880832777697152 " fill="none" id="curve_62" stroke="#000000" stroke-linecap="round" stroke-linejoin="round" stroke-width="6.4602107577342105"/>
  <path d="M 54.590697089010874, 9.617536713561822 Q 74.17829319300475, 10.217115042698023, 92.31004507866649, 15.48366543904056 " fill="none" id="curve_70" stroke="#000000" stroke-linecap="round" stroke-linejoin="round" stroke-width="3.7159882583517914"/>
  <path d="M 51.98645931312945, 6.917767016003916 Q 56.30340654473038, 12.763004097747338, 70.23231670314799, 23.599791118481363 " fill="none" id="curve_79" stroke="#000000" stroke-linecap="round" stroke-linejoin="round" stroke-width="4.79708794515022"/>
  <path d="M 64.72322798778919, 65.06946114351899 Q 62.212324050498424, 63.89132332238035, 61.07028675015914, 57.11323607862724 " fill="none" id="curve_94" stroke="#000000" stroke-linecap="round" stroke-linejoin="round" stroke-width="4.824219721031455"/>
  <path d="M 61.07028675015914, 57.11323607862724 Q 66.18524413684038, 58.51800422124897, 68.39546278513593, 64.88144672080837 " fill="none" id="curve_94" stroke="#000000" stroke-linecap="round" stroke-linejoin="round" stroke-width="1.3839675352862284"/>
  <path d="M 60.42971616065397, 74.22947740894952 Q 62.83598291420132, 80.18690669486546, 65.4456555443754, 87.66276833209895 " fill="none" id="curve_95" stroke="#000000" stroke-linecap="round" stroke-linejoin="round" stroke-width="1.572697824981499"/>
  <path d="M 56.923814430015014, 94.71402495312861 Q 52.935248728651, 95.35189926559426, 50.042600207647766, 96.97964505826529 " fill="none" id="curve_96" stroke="#000000" stroke-linecap="round" stroke-linejoin="round" stroke-width="2.171088202252974"/>
  <path d="M 50.042600207647766, 96.97964505826529 Q 46.23966951957966, 97.04472173745238, 44.614489881040456, 97.32696184152445 " fill="none" id="curve_96" stroke="#000000" stroke-linecap="round" stroke-linejoin="round" stroke-width="2.7007656286363653"/>
  <path d="M 30.424658726109374, 75.93404308737 Q 30.449592990200532, 76.40386903999838, 30.47010352783006, 77.4810677595337 " fill="none" id="curve_98" stroke="#000000" stroke-linecap="round" stroke-linejoin="round" stroke-width="3.649892694071449"/>
  <path d="M 30.47010352783006, 77.4810677595337 Q 32.51984579164549, 84.94843536380979, 39.473629238912395, 88.01644948202443 " fill="none" id="curve_98" stroke="#000000" stroke-linecap="round" stroke-linejoin="round" stroke-width="2.434223487341673"/>
  <path d="M 63.31853231033199, 64.71217918448646 Q 60.87553624036411, 62.825005912391696, 57.03545529446372, 57.98617162682912 " fill="none" id="curve_99" stroke="#000000" stroke-linecap="round" stroke-linejoin="round" stroke-width="3.3210773821503605"/>
  <path d="M 73.3590218114718, 47.27210955778606 Q 72.82609279918525, 39.73040417950692, 70.12440396442398, 34.331942903928685 " fill="none" id="curve_101" stroke="#000000" stroke-linecap="round" stroke-linejoin="round" stroke-width="2.3381994082547455"/>
  <path d="M 4.8700714111328125, 138.0747513771057 Q 2.9043716461806453, 138.12378716815704, 1.454527409436821, 138.27231090608242 " fill="none" id="curve_128" stroke="#000000" stroke-linecap="round" stroke-linejoin="round" stroke-width="2.612235461840617"/>
  <path d="M 1.454527409436821, 138.27231090608242 Q 2.9385218596600655, 138.51232852297233, 25.43822099766227, 138.59709826910793 " fill="none" id="curve_128" stroke="#000000" stroke-linecap="round" stroke-linejoin="round" stroke-width="2.8211922412527897"/>
  <path d="M 25.43822099766227, 138.59709826910793 Q 29.192246895313026, 138.64837996588344, 45.42052159639127, 138.69664282608193 " fill="none" id="curve_128" stroke="#000000" stroke-linecap="round" stroke-linejoin="round" stroke-width="2.15263727373121"/>
  <path d="M 45.42052159639127, 138.69664282608193 Q 48.58592416386435, 138.51374020200464, 51.088386612359145, 138.09802672370742 " fill="none" id="curve_128" stroke="#000000" stroke-linecap="round" stroke-linejoin="round" stroke-width="1.4999069102863596"/>
  <path d="M 70.68643359554815, 113.64374881160963 Q 79.01314139531333, 113.1879556346233, 92.95198440389876, 112.10681650938572 " fill="none" id="curve_135" stroke="#000000" stroke-linecap="round" stroke-linejoin="round" stroke-width="3.115300259195465"/>
</svg>
