<?xml version="1.0" ?>
<svg height="140" width="140" xmlns="http://www.w3.org/2000/svg">
  <path d="M 75.98324857944334, 30.54494281312617 Q 69.56242998337656, 35.329313537834416, 47.71281363549777, 61.669575853582884 " fill="none" id="curve_2" stroke="#000000" stroke-linecap="round" stroke-linejoin="round" stroke-width="5.2318908948982115"/>
  <path d="M 47.71281363549777, 61.669575853582884 Q 41.132826185058164, 72.32310370519338, 26.075437631834408, 85.33672694598994 " fill="none" id="curve_2" stroke="#000000" stroke-linecap="round" stroke-linejoin="round" stroke-width="6.095564153606679"/>
  <path d="M 60.96852644491041, 90.0809292412611 Q 61.64707748021172, 70.24783231375059, 70.08243717574484, 52.81705075289421 " fill="none" id="curve_3" stroke="#000000" stroke-linecap="round" stroke-linejoin="round" stroke-width="5.27382355307473"/>
  <path d="M 70.08243717574484, 52.81705075289421 Q 72.41679921281546, 46.053534399302926, 74.7717537844967, 32.16958398913405 " fill="none" id="curve_3" stroke="#000000" stroke-linecap="round" stroke-linejoin="round" stroke-width="4.668413312570738"/>
  <path d="M 74.7717537844967, 32.16958398913405 Q 68.1807726028442, 34.535496094665156, 58.804123466255554, 44.45276203539662 " fill="none" id="curve_3" stroke="#000000" stroke-linecap="round" stroke-linejoin="round" stroke-width="3.0866442140173396"/>
  <path d="M 58.804123466255554, 44.45276203539662 Q 52.54514298275313, 54.16964315686171, 42.08594750944545, 70.53763503395815 " fill="none" id="curve_3" stroke="#000000" stroke-linecap="round" stroke-linejoin="round" stroke-width="2.9634748790976597"/>
  <path d="M 60.85515482460942, 90.29748310237568 Q 59.521274936428675, 89.0322162153863, 59.08832549753742, 80.01559064712067 " fill="none" id="curve_4" stroke="#000000" stroke-linecap="round" stroke-linejoin="round" stroke-width="3.1845293972510005"/>
  <path d="M 59.08832549753742, 80.01559064712067 Q 64.1937665144582, 71.76574577856991, 70.36172428677385, 49.19450303832058 " fill="none" id="curve_4" stroke="#000000" stroke-linecap="round" stroke-linejoin="round" stroke-width="2.6633187151578683"/>
  <path d="M 76.95862498681258, 28.02119431171271 Q 75.46998735286347, 29.33869554288628, 73.59751633287753, 31.290058544304998 " fill="none" id="curve_5" stroke="#000000" stroke-linecap="round" stroke-linejoin="round" stroke-width="3.9306239703883974"/>
  <path d="M 45.07622953705378, 62.92387556816776 Q 38.65470105509886, 71.00189414473569, 27.766206067433938, 82.93870763003535 " fill="none" id="curve_6" stroke="#000000" stroke-linecap="round" stroke-linejoin="round" stroke-width="3.2163405047524924"/>
  <path d="M 63.75116179627612, 91.90654893353307 Q 62.88091531015708, 91.81538787580172, 61.89211888350103, 91.65860829739631 " fill="none" id="curve_7" stroke="#000000" stroke-linecap="round" stroke-linejoin="round" stroke-width="4.190212621811493"/>
  <path d="M 23.403818157524782, 86.30143533863833 Q 24.707625008497057, 84.12442573789752, 28.805511201563966, 82.71465276632412 " fill="none" id="curve_8" stroke="#000000" stroke-linecap="round" stroke-linejoin="round" stroke-width="3.6047830828562737"/>
  <path d="M 69.2470920691975, 50.14093878060851 Q 67.84279444957049, 67.05196708253374, 60.07545767447799, 78.38737799401228 " fill="none" id="curve_11" stroke="#000000" stroke-linecap="round" stroke-linejoin="round" stroke-width="2.4283032699163853"/>
  <path d="M 60.07545767447799, 78.38737799401228 Q 64.00907428854062, 68.89727964683989, 69.96896430415082, 51.7551460279509 " fill="none" id="curve_11" stroke="#000000" stroke-linecap="round" stroke-linejoin="round" stroke-width="2.8059485066618235"/>
  <path d="M 59.98063387812408, 49.62155517057332 Q 52.7616103989682, 54.47208967764086, 42.818649826451605, 65.95824121602915 " fill="none" id="curve_18" stroke="#000000" stroke-linecap="round" stroke-linejoin="round" stroke-width="3.2323067655159616"/>
  <path d="M 68.68436856048024, 53.93718592051789 Q 67.21616576818495, 55.877617926210384, 65.8253286860685, 61.86611208176961 " fill="none" id="curve_33" stroke="#000000" stroke-linecap="round" stroke-linejoin="round" stroke-width="2.9397626010447886"/>
  <path d="M 26.262906074523926, 84.17168235778809 Q 30.168607452157627, 84.02410144636853, 32.439856565259475, 83.10198769601294 " fill="none" id="curve_73" stroke="#000000" stroke-linecap="round" stroke-linejoin="round" stroke-width="3.329839515429617"/>
  <path d="M 68.91359477736799, 58.60842235358342 Q 68.55559815537089, 55.95585840173935, 67.38905829413905, 54.3308488633258 " fill="none" id="curve_101" stroke="#000000" stroke-linecap="round" stroke-linejoin="round" stroke-width="3.8423353742767232"/>
  <path d="M 65.80243476252184, 60.578566057718604 Q 63.54514787792754, 68.94669738965408, 59.19979886164812, 78.67049491474512 " fill="none" id="curve_116" stroke="#000000" stroke-linecap="round" stroke-linejoin="round" stroke-width="2.540402855887489"/>
  <path d="M 45.712235291017706, 61.630678422268545 Q 50.965252444136695, 58.80946650167709, 55.33314260981963, 53.50768078294199 " fill="none" id="curve_118" stroke="#000000" stroke-linecap="round" stroke-linejoin="round" stroke-width="3.744160120272073"/>
  <path d="M 29.098140716552734, 80.50050055980682 Q 31.250147980085007, 77.82739257898437, 38.78511129918047, 75.43554496235839 " fill="none" id="curve_132" stroke="#000000" stroke-linecap="round" stroke-linejoin="round" stroke-width="3.9565607570957844"/>
  <path d="M 38.78511129918047, 75.43554496235839 Q 31.50548220577391, 78.23668953113602, 23.373101426213537, 83.9978433146671 " fill="none" id="curve_132" stroke="#000000" stroke-linecap="round" stroke-linejoin="round" stroke-width="2.6634983765214244"/>
  <path d="M 50.730593984074346, 56.42762705717804 Q 50.985690883298005, 52.13713007848554, 54.324496413573435, 50.556656633399335 " fill="none" id="curve_133" stroke="#000000" stroke-linecap="round" stroke-linejoin="round" stroke-width="2.5724400198401036"/>
  <path d="M 73.8267841302308, 35.848773042497676 Q 75.03322619409934, 35.050311828140636, 75.80804962881002, 32.95231624907991 " fill="none" id="curve_134" stroke="#000000" stroke-linecap="round" stroke-linejoin="round" stroke-width="4.762618497359637"/>
</svg>
