<?xml version="1.0" ?>
<svg height="140" width="140" xmlns="http://www.w3.org/2000/svg">
  <path d="M 23.899518966674805, 96.59619158506393 Q 26.732472041098085, 89.00721313266064, 38.87208572631312, 77.6280448038508 " fill="none" id="curve_1" stroke="#000000" stroke-linecap="round" stroke-linejoin="round" stroke-width="5.3620085069802235"/>
  <path d="M 38.87208572631312, 77.6280448038508 Q 43.902178906216506, 69.83335380511207, 52.81745957662456, 54.41703184400459 " fill="none" id="curve_1" stroke="#000000" stroke-linecap="round" stroke-linejoin="round" stroke-width="4.891642153188044"/>
  <path d="M 52.81745957662456, 54.41703184400459 Q 54.66915774913464, 51.63381014194982, 55.941518033367736, 45.51787600237442 " fill="none" id="curve_1" stroke="#000000" stroke-linecap="round" stroke-linejoin="round" stroke-width="5.145702478501083"/>
  <path d="M 55.941518033367736, 45.51787600237442 Q 54.87239541496879, 49.6640793633116, 54.451695173562804, 63.53511974068987 " fill="none" id="curve_1" stroke="#000000" stroke-linecap="round" stroke-linejoin="round" stroke-width="4.467888387614803"/>
  <path d="M 54.451695173562804, 63.53511974068987 Q 55.74884129553332, 75.05737718486371, 59.24396673374396, 100.50588767626633 " fill="none" id="curve_1" stroke="#000000" stroke-linecap="round" stroke-linejoin="round" stroke-width="6.16450329495362"/>
  <path d="M 59.24396673374396, 100.50588767626633 Q 59.79437385857369, 103.27994775753677, 60.64168196889237, 106.08711017988965 " fill="none" id="curve_1" stroke="#000000" stroke-linecap="round" stroke-linejoin="round" stroke-width="6.6764698979963075"/>
  <path d="M 26.55394430265016, 94.34626515163328 Q 23.791319399422694, 94.98609019368075, 22.85293163374286, 98.5231112290521 " fill="none" id="curve_2" stroke="#000000" stroke-linecap="round" stroke-linejoin="round" stroke-width="4.046370738956809"/>
  <path d="M 22.85293163374286, 98.5231112290521 Q 24.995540788823348, 89.37940324231008, 34.63499892012982, 85.06655632278502 " fill="none" id="curve_2" stroke="#000000" stroke-linecap="round" stroke-linejoin="round" stroke-width="3.2430214199441574"/>
  <path d="M 52.335823883553765, 68.47924038549895 Q 55.81272569972339, 75.05377842506587, 58.165247410323694, 93.48599235134334 " fill="none" id="curve_3" stroke="#000000" stroke-linecap="round" stroke-linejoin="round" stroke-width="3.2617140610130297"/>
  <path d="M 58.165247410323694, 93.48599235134334 Q 57.514865336572065, 79.17611030188368, 53.273105103553355, 74.56323531629025 " fill="none" id="curve_3" stroke="#000000" stroke-linecap="round" stroke-linejoin="round" stroke-width="2.6120270334997566"/>
  <path d="M 27.315874429931974, 91.91161780384105 Q 30.073673860219575, 89.84884996516115, 32.806710680762485, 84.13507231172368 " fill="none" id="curve_12" stroke="#000000" stroke-linecap="round" stroke-linejoin="round" stroke-width="2.591347650322234"/>
  <path d="M 57.757656551370324, 100.27878519450638 Q 57.34793767769905, 93.58179002301712, 56.49468182157649, 81.45334563789942 " fill="none" id="curve_14" stroke="#000000" stroke-linecap="round" stroke-linejoin="round" stroke-width="3.152305098496591"/>
  <path d="M 59.18883012495613, 104.24276789761886 Q 58.32571605064472, 94.83578980806229, 56.32846445563005, 80.7312789483505 " fill="none" id="curve_17" stroke="#000000" stroke-linecap="round" stroke-linejoin="round" stroke-width="2.331708936549356"/>
  <path d="M 56.183183186064795, 89.345704312246 Q 57.92935781085048, 92.68235142222635, 59.2804318308574, 103.0966659779248 " fill="none" id="curve_27" stroke="#000000" stroke-linecap="round" stroke-linejoin="round" stroke-width="3.0849809960494206"/>
  <path d="M 46.51142345997395, 63.63359753785284 Q 44.901125967836386, 66.09188012742604, 42.705533082218686, 69.9766941998613 " fill="none" id="curve_50" stroke="#000000" stroke-linecap="round" stroke-linejoin="round" stroke-width="3.1580740948994737"/>
  <path d="M 58.100013182472175, 100.41851123874844 Q 57.84698525260221, 87.36810137789568, 56.86744236682249, 76.28646539977355 " fill="none" id="curve_66" stroke="#000000" stroke-linecap="round" stroke-linejoin="round" stroke-width="2.25232161571712"/>
  <path d="M 55.910902073875086, 83.39557892780356 Q 56.02685574569279, 81.57996228684037, 56.32102613338623, 79.66209485144812 " fill="none" id="curve_83" stroke="#000000" stroke-linecap="round" stroke-linejoin="round" stroke-width="3.2119096529692532"/>
  <path d="M 59.38172402017286, 102.20437323983114 Q 58.22968909570564, 89.42448498969688, 54.97937652668534, 76.42188854624382 " fill="none" id="curve_86" stroke="#000000" stroke-linecap="round" stroke-linejoin="round" stroke-width="2.570495954869949"/>
  <path d="M 60.06422104493238, 105.33100278081787 Q 58.460047417969726, 97.34186635764448, 55.32952920444556, 87.05059643785235 " fill="none" id="curve_89" stroke="#000000" stroke-linecap="round" stroke-linejoin="round" stroke-width="3.0954686853960993"/>
  <path d="M 60.7736432984037, 92.04073680754402 Q 59.09919499362098, 90.94812649281857, 57.986856741466866, 87.43636941709804 " fill="none" id="curve_104" stroke="#000000" stroke-linecap="round" stroke-linejoin="round" stroke-width="3.8142029209488637"/>
  <path d="M 61.8941618787877, 105.61331289682292 Q 60.06818032040349, 103.98320755243569, 57.68618976248811, 101.9373007881528 " fill="none" id="curve_105" stroke="#000000" stroke-linecap="round" stroke-linejoin="round" stroke-width="5.101755716525579"/>
  <path d="M 58.57154100217982, 100.48211227141701 Q 57.29120704121346, 98.95149706356618, 55.69158872484607, 96.4008521790069 " fill="none" id="curve_125" stroke="#000000" stroke-linecap="round" stroke-linejoin="round" stroke-width="3.913997418887418"/>
  <path d="M 53.876362800598145, 81.59780502319336 Q 55.71208997969373, 82.08518159978537, 58.49529021924957, 83.1231563748851 " fill="none" id="curve_152" stroke="#000000" stroke-linecap="round" stroke-linejoin="round" stroke-width="3.0307035831215794"/>
  <path d="M 53.7401967048645, 80.87046813964844 Q 56.01681823619357, 82.20082941060508, 58.76552158068591, 85.12718171920267 " fill="none" id="curve_179" stroke="#000000" stroke-linecap="round" stroke-linejoin="round" stroke-width="2.594954228081258"/>
</svg>
