<?xml version="1.0" ?>
<svg height="140" width="140" xmlns="http://www.w3.org/2000/svg">
  <path d="M 57.99303436279297, 111.5013427734375 Q 57.440625369740324, 111.17906565278622, 57.328558100563725, 107.05122292091883 " fill="none" id="curve_1" stroke="#000000" stroke-linecap="round" stroke-linejoin="round" stroke-width="7.482228351792067"/>
  <path d="M 57.328558100563725, 107.05122292091883 Q 57.05051090937307, 104.36061374665589, 56.85598793393142, 91.79964205463875 " fill="none" id="curve_1" stroke="#000000" stroke-linecap="round" stroke-linejoin="round" stroke-width="6.323981604924167"/>
  <path d="M 56.85598793393142, 91.79964205463875 Q 58.07941051962127, 88.4642340002671, 58.79374967526742, 70.38049666709432 " fill="none" id="curve_1" stroke="#000000" stroke-linecap="round" stroke-linejoin="round" stroke-width="6.394179279362227"/>
  <path d="M 58.79374967526742, 70.38049666709432 Q 60.00770277119303, 64.71964266467626, 61.281697884005794, 43.86531499086293 " fill="none" id="curve_1" stroke="#000000" stroke-linecap="round" stroke-linejoin="round" stroke-width="5.216319330749788"/>
  <path d="M 61.281697884005794, 43.86531499086293 Q 63.42100145799341, 42.45307072860584, 63.85825936756714, 29.3107054929688 " fill="none" id="curve_1" stroke="#000000" stroke-linecap="round" stroke-linejoin="round" stroke-width="4.991147885846732"/>
  <path d="M 58.337975857688946, 50.42734481060985 Q 51.70833373625014, 59.053719121137576, 36.66667829241567, 86.46416038645904 " fill="none" id="curve_2" stroke="#000000" stroke-linecap="round" stroke-linejoin="round" stroke-width="4.004208202774221"/>
  <path d="M 36.66667829241567, 86.46416038645904 Q 29.47130850180238, 95.9762564351873, 13.083008463633387, 111.07178929270313 " fill="none" id="curve_2" stroke="#000000" stroke-linecap="round" stroke-linejoin="round" stroke-width="4.255874250889997"/>
  <path d="M 13.083008463633387, 111.07178929270313 Q 16.96945776256796, 104.74766094647504, 26.50867826128592, 100.17735486764707 " fill="none" id="curve_2" stroke="#000000" stroke-linecap="round" stroke-linejoin="round" stroke-width="3.134638822531828"/>
  <path d="M 56.14645658817113, 51.25402468040186 Q 60.03898910001269, 48.30156983550131, 62.45977711214214, 41.57509537309753 " fill="none" id="curve_4" stroke="#000000" stroke-linecap="round" stroke-linejoin="round" stroke-width="4.668478461747081"/>
  <path d="M 62.45977711214214, 41.57509537309753 Q 62.97140652797444, 43.12020539948542, 63.3071129626946, 46.86214549327292 " fill="none" id="curve_4" stroke="#000000" stroke-linecap="round" stroke-linejoin="round" stroke-width="5.311925264659724"/>
  <path d="M 43.68618794429722, 79.09512688333689 Q 43.59703308323573, 77.47846739105393, 43.03006097236103, 76.70067969086132 " fill="none" id="curve_19" stroke="#000000" stroke-linecap="round" stroke-linejoin="round" stroke-width="3.4990890105552714"/>
  <path d="M 43.03006097236103, 76.70067969086132 Q 47.401644523692376, 66.14104060287964, 58.244863556807736, 47.01633801838832 " fill="none" id="curve_19" stroke="#000000" stroke-linecap="round" stroke-linejoin="round" stroke-width="2.379033806763229"/>
  <path d="M 34.428049487431224, 87.65919263363725 Q 33.08356728611054, 88.31784918553329, 31.791114565782596, 89.87949176799991 " fill="none" id="curve_20" stroke="#000000" stroke-linecap="round" stroke-linejoin="round" stroke-width="4.1804281398527685"/>
  <path d="M 58.055020322330364, 111.35695981292042 Q 57.98711605106334, 111.54065322689613, 57.88447325154803, 111.89659301146459 " fill="none" id="curve_22" stroke="#000000" stroke-linecap="round" stroke-linejoin="round" stroke-width="3.2370971343052117"/>
  <path d="M 26.347417580332966, 98.20278618439626 Q 23.331932020593328, 102.60057999072112, 16.19672096526279, 106.01370756180023 " fill="none" id="curve_23" stroke="#000000" stroke-linecap="round" stroke-linejoin="round" stroke-width="3.255889429008821"/>
  <path d="M 16.103832601455338, 104.86315323595511 Q 20.98773401395621, 102.08817567141082, 28.481359516646904, 98.77203198774994 " fill="none" id="curve_38" stroke="#000000" stroke-linecap="round" stroke-linejoin="round" stroke-width="2.4576992263471475"/>
  <path d="M 59.6129771493862, 43.53543789298934 Q 62.799075847789226, 39.58696855800253, 65.66591872969397, 29.476268889216165 " fill="none" id="curve_42" stroke="#000000" stroke-linecap="round" stroke-linejoin="round" stroke-width="2.3120878242151344"/>
  <path d="M 64.76439973103008, 28.17579470845943 Q 64.24778600598205, 28.15461285105473, 62.88994396771664, 28.134519199562515 " fill="none" id="curve_44" stroke="#000000" stroke-linecap="round" stroke-linejoin="round" stroke-width="2.5425707862649927"/>
  <path d="M 59.74638651445329, 42.20489550812283 Q 60.18250463221278, 40.548075880839455, 61.276678830658454, 38.59554128246556 " fill="none" id="curve_74" stroke="#000000" stroke-linecap="round" stroke-linejoin="round" stroke-width="2.593871311071267"/>
  <path d="M 44.26390719413757, 69.6500129699707 Q 46.27597818469419, 67.38996377217683, 48.775105808836884, 60.577996668379 " fill="none" id="curve_88" stroke="#000000" stroke-linecap="round" stroke-linejoin="round" stroke-width="2.419756320928765"/>
  <path d="M 61.08655015627346, 73.53331133212725 Q 60.497476157025815, 72.91055526795428, 59.90168913821577, 71.1916070784792 " fill="none" id="curve_103" stroke="#000000" stroke-linecap="round" stroke-linejoin="round" stroke-width="2.1010542207347696"/>
  <path d="M 58.839124101374296, 54.3799305775407 Q 59.079404883678336, 57.25356948618362, 59.36518857534981, 60.92474658933516 " fill="none" id="curve_104" stroke="#000000" stroke-linecap="round" stroke-linejoin="round" stroke-width="2.776964132516418"/>
  <path d="M 58.39987026607194, 111.46818560472215 Q 57.93543378089333, 111.54146646774706, 57.20558353075801, 111.67109371787471 " fill="none" id="curve_107" stroke="#000000" stroke-linecap="round" stroke-linejoin="round" stroke-width="3.165895390636025"/>
  <path d="M 22.618381865211006, 103.055385900452 Q 25.23795916332636, 99.74392476546198, 28.31748450427697, 94.42940530769656 " fill="none" id="curve_122" stroke="#000000" stroke-linecap="round" stroke-linejoin="round" stroke-width="2.4016839321168573"/>
</svg>
