<?xml version="1.0" ?>
<svg height="140" width="140" xmlns="http://www.w3.org/2000/svg">
  <path d="M 50.37811885832634, 119.23273600623916 Q 50.82841068170724, 111.77722100334361, 51.71968389740718, 84.0846746261256 " fill="none" id="curve_4" stroke="#000000" stroke-linecap="round" stroke-linejoin="round" stroke-width="4.826843697797068"/>
  <path d="M 51.71968389740718, 84.0846746261256 Q 53.31285690190104, 78.03062472253708, 55.754685038550654, 48.949012117958745 " fill="none" id="curve_4" stroke="#000000" stroke-linecap="round" stroke-linejoin="round" stroke-width="4.726351389090717"/>
  <path d="M 55.754685038550654, 48.949012117958745 Q 57.06639551582696, 41.444960216732305, 58.595513523440104, 21.23708203945741 " fill="none" id="curve_4" stroke="#000000" stroke-linecap="round" stroke-linejoin="round" stroke-width="5.047901302107427"/>
  <path d="M 58.595513523440104, 21.23708203945741 Q 55.49793150540386, 33.98167648438605, 39.498042299178394, 59.94033553911342 " fill="none" id="curve_4" stroke="#000000" stroke-linecap="round" stroke-linejoin="round" stroke-width="4.753119353271595"/>
  <path d="M 39.498042299178394, 59.94033553911342 Q 32.340437728819765, 69.42018001310969, 24.4942477140286, 85.75472952712202 " fill="none" id="curve_4" stroke="#000000" stroke-linecap="round" stroke-linejoin="round" stroke-width="3.9495728888041377"/>
  <path d="M 50.55581816520983, 121.68944004111744 Q 50.167070387132846, 121.87644947480993, 49.66387349848395, 122.08773093244825 " fill="none" id="curve_5" stroke="#000000" stroke-linecap="round" stroke-linejoin="round" stroke-width="6.776264919393995"/>
  <path d="M 49.66387349848395, 122.08773093244825 Q 49.873904633964585, 107.44634925067719, 50.46526173327541, 94.29140646246168 " fill="none" id="curve_5" stroke="#000000" stroke-linecap="round" stroke-linejoin="round" stroke-width="2.8900157739056804"/>
  <path d="M 52.279335787487895, 34.05661867394879 Q 55.10972840147174, 26.702001062741502, 60.250780643342004, 18.904135911062937 " fill="none" id="curve_7" stroke="#000000" stroke-linecap="round" stroke-linejoin="round" stroke-width="3.2282260797551756"/>
  <path d="M 50.59438205213494, 37.38007511988759 Q 48.40894487639802, 41.258827147039376, 44.511819276847824, 50.31947864158378 " fill="none" id="curve_8" stroke="#000000" stroke-linecap="round" stroke-linejoin="round" stroke-width="2.362068754936693"/>
  <path d="M 28.40657149372784, 81.89691321700867 Q 29.07155197788235, 78.6612177382204, 30.230591123821128, 75.38218083919398 " fill="none" id="curve_9" stroke="#000000" stroke-linecap="round" stroke-linejoin="round" stroke-width="3.2928595415599666"/>
  <path d="M 30.230591123821128, 75.38218083919398 Q 35.93892088637122, 66.21320482425408, 45.14593649392705, 47.54996075598565 " fill="none" id="curve_9" stroke="#000000" stroke-linecap="round" stroke-linejoin="round" stroke-width="2.5054221023747263"/>
  <path d="M 56.043216205588145, 52.15718585127895 Q 56.515312771141105, 53.958400257023754, 57.36559139781005, 56.57643572373911 " fill="none" id="curve_11" stroke="#000000" stroke-linecap="round" stroke-linejoin="round" stroke-width="2.907746939923915"/>
  <path d="M 57.14182503924121, 21.2391337058425 Q 57.512397563640164, 20.64268659153069, 58.25004901386997, 19.893814088860413 " fill="none" id="curve_28" stroke="#000000" stroke-linecap="round" stroke-linejoin="round" stroke-width="2.5269834528846338"/>
  <path d="M 57.556933599183836, 43.98400802872422 Q 57.950415127127954, 43.796116487049495, 58.24181152053325, 43.16771034242664 " fill="none" id="curve_57" stroke="#000000" stroke-linecap="round" stroke-linejoin="round" stroke-width="3.4413344581505485"/>
  <path d="M 57.70079839229584, 20.25288200378418 Q 55.36064420997421, 25.160928493167464, 50.81988348983817, 35.44730766128214 " fill="none" id="curve_97" stroke="#000000" stroke-linecap="round" stroke-linejoin="round" stroke-width="2.412282016544749"/>
  <path d="M 50.81988348983817, 35.44730766128214 Q 48.38054849777666, 48.22776945731314, 39.64661713521812, 62.81339429213296 " fill="none" id="curve_97" stroke="#000000" stroke-linecap="round" stroke-linejoin="round" stroke-width="2.176890342217535"/>
</svg>
