<?xml version="1.0" ?>
<svg height="140" width="140" xmlns="http://www.w3.org/2000/svg">
  <path d="M 51.616363525390625, 62.63945770263672 Q 51.20040862521791, 61.04344404398896, 49.20331273502539, 59.98500825571584 " fill="none" id="curve_1" stroke="#000000" stroke-linecap="round" stroke-linejoin="round" stroke-width="5.3658616884208765"/>
  <path d="M 49.20331273502539, 59.98500825571584 Q 45.17618936822235, 69.59869568843702, 23.52474780705573, 87.77387378849076 " fill="none" id="curve_1" stroke="#000000" stroke-linecap="round" stroke-linejoin="round" stroke-width="4.980832683451316"/>
  <path d="M 23.52474780705573, 87.77387378849076 Q 19.93054894785476, 89.86934354482467, 17.00408221240142, 92.89614479468601 " fill="none" id="curve_1" stroke="#000000" stroke-linecap="round" stroke-linejoin="round" stroke-width="6.655695447845131"/>
  <path d="M 54.11561807693851, 102.26716993104964 Q 52.48486112725148, 97.18522563484652, 50.85539759999487, 65.24930988418396 " fill="none" id="curve_2" stroke="#000000" stroke-linecap="round" stroke-linejoin="round" stroke-width="6.675429353902776"/>
  <path d="M 51.08434087319614, 98.99015340836395 Q 51.75326470461975, 104.8248417005679, 55.033805639050115, 106.59187275361136 " fill="none" id="curve_3" stroke="#000000" stroke-linecap="round" stroke-linejoin="round" stroke-width="6.858887851085351"/>
  <path d="M 55.033805639050115, 106.59187275361136 Q 51.95821455573804, 101.98631091124427, 50.11318229232451, 88.25804233123807 " fill="none" id="curve_3" stroke="#000000" stroke-linecap="round" stroke-linejoin="round" stroke-width="4.480176126242496"/>
  <path d="M 51.83300590406695, 69.51177680601367 Q 53.31220943107082, 74.17568719603754, 53.98547993742627, 89.98473520060755 " fill="none" id="curve_4" stroke="#000000" stroke-linecap="round" stroke-linejoin="round" stroke-width="3.427797911131193"/>
  <path d="M 42.88644008461936, 67.26760945235591 Q 37.73830863152683, 72.71602942823898, 30.327178979497198, 79.40347920634018 " fill="none" id="curve_5" stroke="#000000" stroke-linecap="round" stroke-linejoin="round" stroke-width="3.6826322516417744"/>
  <path d="M 53.72156488056386, 72.85972747824286 Q 52.09483438967377, 80.7494332574829, 49.47373248226869, 86.50946137515784 " fill="none" id="curve_6" stroke="#000000" stroke-linecap="round" stroke-linejoin="round" stroke-width="3.742001147463851"/>
  <path d="M 23.400591603436506, 85.36467934363256 Q 20.425771196523527, 89.03348892524996, 16.086852467906564, 92.07290860870478 " fill="none" id="curve_7" stroke="#000000" stroke-linecap="round" stroke-linejoin="round" stroke-width="4.0202809480435"/>
  <path d="M 54.85924055435376, 76.83499652922902 Q 53.19744263435575, 79.20875470623278, 50.47583351887426, 81.91190261868549 " fill="none" id="curve_9" stroke="#000000" stroke-linecap="round" stroke-linejoin="round" stroke-width="3.8586150032958635"/>
  <path d="M 50.8255144352362, 58.85855418009398 Q 50.41859927739798, 59.20815074569777, 49.448989527893666, 59.572667346910436 " fill="none" id="curve_38" stroke="#000000" stroke-linecap="round" stroke-linejoin="round" stroke-width="2.776815139517487"/>
  <path d="M 49.83502075647389, 69.84490556093903 Q 48.710891560094105, 67.19283218000741, 44.0201401786258, 65.82676694250175 " fill="none" id="curve_56" stroke="#000000" stroke-linecap="round" stroke-linejoin="round" stroke-width="3.346633264998576"/>
  <path d="M 45.26400049590912, 65.53856942368083 Q 46.172309090687456, 64.04115160529298, 52.06835881267333, 63.10967497673474 " fill="none" id="curve_64" stroke="#000000" stroke-linecap="round" stroke-linejoin="round" stroke-width="3.234829576139719"/>
  <path d="M 55.80160452180162, 106.44760535399979 Q 56.538488170932496, 105.38232423246882, 57.62649292795523, 103.93967545012615 " fill="none" id="curve_97" stroke="#000000" stroke-linecap="round" stroke-linejoin="round" stroke-width="3.8536416420573856"/>
  <path d="M 50.35022430528056, 83.81516868365804 Q 50.15672460926326, 79.03482255796426, 49.6345678549008, 75.04727757554157 " fill="none" id="curve_112" stroke="#000000" stroke-linecap="round" stroke-linejoin="round" stroke-width="2.7103945488732304"/>
  <path d="M 16.669215289629133, 92.54928420201104 Q 16.27719973526247, 92.58194018728307, 15.719486456073207, 92.64361928611974 " fill="none" id="curve_114" stroke="#000000" stroke-linecap="round" stroke-linejoin="round" stroke-width="3.003914378277387"/>
</svg>
