<?xml version="1.0" ?>
<svg height="140" width="140" xmlns="http://www.w3.org/2000/svg">
  <path d="M 31.329792022705078, 76.0748119354248 Q 29.45087413049767, 83.57092622583832, 22.711787191717235, 87.75384077603735 " fill="none" id="curve_1" stroke="#000000" stroke-linecap="round" stroke-linejoin="round" stroke-width="9.643790754795392"/>
  <path d="M 22.711787191717235, 87.75384077603735 Q 30.59124770321526, 86.92836183511437, 33.620456506939526, 80.58015287798082 " fill="none" id="curve_1" stroke="#000000" stroke-linecap="round" stroke-linejoin="round" stroke-width="6.775088609398354"/>
  <path d="M 33.620456506939526, 80.58015287798082 Q 40.461997196887694, 71.39454533988697, 53.902623545292066, 51.89497269804548 " fill="none" id="curve_1" stroke="#000000" stroke-linecap="round" stroke-linejoin="round" stroke-width="9.956141139085274"/>
  <path d="M 53.902623545292066, 51.89497269804548 Q 62.92673453691815, 43.75499518907759, 73.06481260342596, 21.581935027849763 " fill="none" id="curve_1" stroke="#000000" stroke-linecap="round" stroke-linejoin="round" stroke-width="8.545372156265852"/>
  <path d="M 73.06481260342596, 21.581935027849763 Q 68.32774871407494, 36.050255442251796, 60.24499042853156, 55.895477856196045 " fill="none" id="curve_1" stroke="#000000" stroke-linecap="round" stroke-linejoin="round" stroke-width="5.971759988792709"/>
  <path d="M 60.24499042853156, 55.895477856196045 Q 55.73080266261357, 76.55473354908966, 40.20045307431124, 106.90372223424194 " fill="none" id="curve_1" stroke="#000000" stroke-linecap="round" stroke-linejoin="round" stroke-width="7.310999244406156"/>
  <path d="M 40.20045307431124, 106.90372223424194 Q 42.6645719458206, 107.11449243503455, 44.3076069753958, 107.72693835269595 " fill="none" id="curve_1" stroke="#000000" stroke-linecap="round" stroke-linejoin="round" stroke-width="6.918301404335745"/>
  <path d="M 44.3076069753958, 107.72693835269595 Q 47.51418690190022, 83.60092699983302, 60.33160002048743, 55.89214466582919 " fill="none" id="curve_1" stroke="#000000" stroke-linecap="round" stroke-linejoin="round" stroke-width="4.401696195085365"/>
  <path d="M 40.47796583989518, 102.70309184795472 Q 41.73660560778781, 90.31246012572362, 52.38950912178581, 85.98640938401493 " fill="none" id="curve_4" stroke="#000000" stroke-linecap="round" stroke-linejoin="round" stroke-width="3.9529579586096304"/>
  <path d="M 36.835314490440226, 70.06407843808796 Q 34.68996852357883, 77.62818365565309, 24.362313813556106, 82.82929168198328 " fill="none" id="curve_5" stroke="#000000" stroke-linecap="round" stroke-linejoin="round" stroke-width="3.1738106096920347"/>
  <path d="M 24.362313813556106, 82.82929168198328 Q 22.800470066663937, 83.241577575413, 22.327997481346838, 86.22975936871028 " fill="none" id="curve_5" stroke="#000000" stroke-linecap="round" stroke-linejoin="round" stroke-width="5.252083344243554"/>
  <path d="M 56.21983207391821, 42.7653762532103 Q 66.67109101991103, 37.88197409381988, 75.39288869872183, 23.710100334417216 " fill="none" id="curve_7" stroke="#000000" stroke-linecap="round" stroke-linejoin="round" stroke-width="4.564411539917654"/>
  <path d="M 75.39288869872183, 23.710100334417216 Q 72.11329044117288, 33.39293460992326, 60.101892454216795, 39.58547265161002 " fill="none" id="curve_7" stroke="#000000" stroke-linecap="round" stroke-linejoin="round" stroke-width="6.638120970739209"/>
  <path d="M 60.5868444442749, 52.74891185760498 Q 62.608053293260994, 53.258606965374526, 63.62436913936483, 55.36204090926743 " fill="none" id="curve_21" stroke="#000000" stroke-linecap="round" stroke-linejoin="round" stroke-width="2.736726693831829"/>
  <path d="M 63.62436913936483, 55.36204090926743 Q 60.19648581587289, 59.911853790983415, 55.46849964370798, 74.09029718935454 " fill="none" id="curve_21" stroke="#000000" stroke-linecap="round" stroke-linejoin="round" stroke-width="2.474912232566851"/>
  <path d="M 64.00914907455444, 36.0037956237793 Q 64.99148413333273, 29.70572933243769, 71.70145019842033, 26.313628132939527 " fill="none" id="curve_35" stroke="#000000" stroke-linecap="round" stroke-linejoin="round" stroke-width="3.7138274222653416"/>
  <path d="M 71.70145019842033, 26.313628132939527 Q 70.55317762914567, 32.46678189409579, 67.2455196497028, 37.722279413516475 " fill="none" id="curve_35" stroke="#000000" stroke-linecap="round" stroke-linejoin="round" stroke-width="5.413913362025055"/>
  <path d="M 69.65961979486114, 29.258063690644086 Q 69.60036727671248, 25.950988422106732, 68.53501436869216, 25.25023460891771 " fill="none" id="curve_36" stroke="#000000" stroke-linecap="round" stroke-linejoin="round" stroke-width="5.895694785302196"/>
  <path d="M 1.5942270827241956, 139.03956940069418 Q 1.2729677505505443, 138.34313498198614, 0.986185323107274, 136.92246360466083 " fill="none" id="curve_51" stroke="#000000" stroke-linecap="round" stroke-linejoin="round" stroke-width="1.8318215927971897"/>
  <path d="M 72.6131607282025, 32.16496181908326 Q 69.24430496608782, 35.983685834746666, 66.6783743884289, 44.21928258483412 " fill="none" id="curve_66" stroke="#000000" stroke-linecap="round" stroke-linejoin="round" stroke-width="2.895768993444832"/>
  <path d="M 65.85858635227166, 30.036632695776824 Q 62.67320204176938, 34.025350807528426, 59.02895217336534, 43.06024881588458 " fill="none" id="curve_67" stroke="#000000" stroke-linecap="round" stroke-linejoin="round" stroke-width="3.1710053907837485"/>
  <path d="M 51.13173294067383, 82.06465530395508 Q 54.350548159972, 82.03803084324628, 54.89003118372801, 80.91400765939491 " fill="none" id="curve_81" stroke="#000000" stroke-linecap="round" stroke-linejoin="round" stroke-width="3.0990964838867243"/>
  <path d="M 58.83790549348158, 68.74816134135065 Q 58.56651121964175, 73.42482045122081, 55.71895611679395, 74.47987630536473 " fill="none" id="curve_82" stroke="#000000" stroke-linecap="round" stroke-linejoin="round" stroke-width="3.1574437843067"/>
  <path d="M 24.54730038538147, 90.48415513855412 Q 26.056339670024887, 90.7062252794721, 27.704070327811824, 91.27662671161224 " fill="none" id="curve_91" stroke="#000000" stroke-linecap="round" stroke-linejoin="round" stroke-width="3.3251385644688773"/>
  <path d="M 39.79249893971884, 101.57354188319509 Q 44.0302527050381, 96.84603567139547, 49.98037315562484, 88.58109606063397 " fill="none" id="curve_120" stroke="#000000" stroke-linecap="round" stroke-linejoin="round" stroke-width="5.907287090801977"/>
  <path d="M 69.48380616045665, 20.583128699065924 Q 69.05393885426886, 21.592139891167214, 67.96646255397032, 23.236972318225888 " fill="none" id="curve_135" stroke="#000000" stroke-linecap="round" stroke-linejoin="round" stroke-width="2.6543874750025744"/>
  <path d="M 49.55393600463867, 86.20104217529297 Q 51.90273737222391, 85.92942041291823, 54.40444623674472, 84.35217982195775 " fill="none" id="curve_149" stroke="#000000" stroke-linecap="round" stroke-linejoin="round" stroke-width="3.6359273973914696"/>
</svg>
