<?xml version="1.0" ?>
<svg height="140" width="140" xmlns="http://www.w3.org/2000/svg">
  <path d="M 54.65938854217529, 56.78336715698242 Q 54.904521907106705, 55.969484503242434, 55.30268485598209, 54.63845036487348 " fill="none" id="curve_1" stroke="#000000" stroke-linecap="round" stroke-linejoin="round" stroke-width="6.015479693222249"/>
  <path d="M 55.30268485598209, 54.63845036487348 Q 54.2723336002687, 68.82486046728592, 42.570946407756274, 80.42610143967705 " fill="none" id="curve_1" stroke="#000000" stroke-linecap="round" stroke-linejoin="round" stroke-width="4.180598501278798"/>
  <path d="M 42.570946407756274, 80.42610143967705 Q 37.1053968351829, 86.03721795576756, 29.303110730266965, 92.51562657380829 " fill="none" id="curve_1" stroke="#000000" stroke-linecap="round" stroke-linejoin="round" stroke-width="5.30444599565089"/>
  <path d="M 61.533495922290975, 85.61304311278651 Q 57.988447945768485, 81.49896715731262, 55.78473732008628, 64.53344178136358 " fill="none" id="curve_2" stroke="#000000" stroke-linecap="round" stroke-linejoin="round" stroke-width="6.256931792605226"/>
  <path d="M 35.03832831249024, 87.55115987232296 Q 37.034440398404115, 85.20478312668482, 40.20904493628983, 81.94973167415458 " fill="none" id="curve_9" stroke="#000000" stroke-linecap="round" stroke-linejoin="round" stroke-width="3.44844501187543"/>
  <path d="M 60.09780324886073, 86.13086147756768 Q 59.99275922737231, 85.2506938256876, 59.8475892012759, 83.43918704365323 " fill="none" id="curve_10" stroke="#000000" stroke-linecap="round" stroke-linejoin="round" stroke-width="4.455872272240452"/>
  <path d="M 37.93434545739706, 85.19258484384699 Q 32.07043151827243, 86.89747301533677, 28.13774160532965, 92.31174034215888 " fill="none" id="curve_25" stroke="#000000" stroke-linecap="round" stroke-linejoin="round" stroke-width="2.5831769567768856"/>
  <path d="M 58.8250677341088, 84.39206192244298 Q 58.25656562965634, 83.52287896723652, 57.87061039923171, 80.00948108781185 " fill="none" id="curve_26" stroke="#000000" stroke-linecap="round" stroke-linejoin="round" stroke-width="3.7416354629989694"/>
  <path d="M 57.89932649395223, 63.067085428690916 Q 56.39214691615405, 62.93303936877215, 53.225646489562706, 62.68766804645119 " fill="none" id="curve_106" stroke="#000000" stroke-linecap="round" stroke-linejoin="round" stroke-width="2.514004825972494"/>
  <path d="M 40.573965239686416, 81.88799078116004 Q 44.69514748681163, 75.42466585356959, 51.404541360994365, 66.37001917298832 " fill="none" id="curve_111" stroke="#000000" stroke-linecap="round" stroke-linejoin="round" stroke-width="2.598640695005751"/>
  <path d="M 62.29288818572756, 85.142086881046 Q 60.4786787154552, 80.4194861870514, 56.73863570117575, 72.34606587744048 " fill="none" id="curve_140" stroke="#000000" stroke-linecap="round" stroke-linejoin="round" stroke-width="2.4331142883395227"/>
  <path d="M 37.103166051435885, 83.49561534591342 Q 35.27780742435145, 84.77490199828065, 34.16766103088131, 89.59232576166625 " fill="none" id="curve_141" stroke="#000000" stroke-linecap="round" stroke-linejoin="round" stroke-width="3.3200293840980057"/>
</svg>
