<?xml version="1.0" ?>
<svg height="140" width="140" xmlns="http://www.w3.org/2000/svg">
  <path d="M 14.301145553588867, 101.87269020080566 Q 13.244344999645618, 102.30949484971427, 11.514553949332992, 102.91737541201972 " fill="none" id="curve_1" stroke="#000000" stroke-linecap="round" stroke-linejoin="round" stroke-width="6.346838572643314"/>
  <path d="M 11.514553949332992, 102.91737541201972 Q 16.50193252711339, 99.671156782076, 23.206521768139154, 94.18355834581351 " fill="none" id="curve_1" stroke="#000000" stroke-linecap="round" stroke-linejoin="round" stroke-width="4.9378791432037294"/>
  <path d="M 23.206521768139154, 94.18355834581351 Q 28.839508625407156, 88.53901699120408, 41.0576197939951, 73.85431813117833 " fill="none" id="curve_1" stroke="#000000" stroke-linecap="round" stroke-linejoin="round" stroke-width="5.0887965407765785"/>
  <path d="M 41.0576197939951, 73.85431813117833 Q 46.98074088319633, 68.14809655250028, 58.04505666090906, 51.43600028767938 " fill="none" id="curve_1" stroke="#000000" stroke-linecap="round" stroke-linejoin="round" stroke-width="6.4069632804909356"/>
  <path d="M 58.04505666090906, 51.43600028767938 Q 62.85810263973347, 45.55783905469555, 68.24635082507893, 32.197295037042345 " fill="none" id="curve_1" stroke="#000000" stroke-linecap="round" stroke-linejoin="round" stroke-width="6.653948505637314"/>
  <path d="M 68.24635082507893, 32.197295037042345 Q 70.18292225695478, 29.11303770596855, 71.38736655380677, 22.52879499668156 " fill="none" id="curve_1" stroke="#000000" stroke-linecap="round" stroke-linejoin="round" stroke-width="5.3314527330433314"/>
  <path d="M 71.38736655380677, 22.52879499668156 Q 68.61240560529303, 30.23215420376239, 66.40575018364056, 44.22173737018437 " fill="none" id="curve_1" stroke="#000000" stroke-linecap="round" stroke-linejoin="round" stroke-width="3.695026995678088"/>
  <path d="M 66.40575018364056, 44.22173737018437 Q 63.41288058466011, 52.92322901979273, 58.80058322173659, 82.71653767721492 " fill="none" id="curve_1" stroke="#000000" stroke-linecap="round" stroke-linejoin="round" stroke-width="4.561889181728589"/>
  <path d="M 58.80058322173659, 82.71653767721492 Q 59.94798464713416, 91.69161916388298, 61.45983852513102, 98.88371789201494 " fill="none" id="curve_1" stroke="#000000" stroke-linecap="round" stroke-linejoin="round" stroke-width="4.714504811641307"/>
  <path d="M 60.49418621342353, 81.18312272316966 Q 60.556630690154996, 57.54444002503588, 63.632733613903056, 55.84346509706515 " fill="none" id="curve_2" stroke="#000000" stroke-linecap="round" stroke-linejoin="round" stroke-width="3.4955541400114507"/>
  <path d="M 63.632733613903056, 55.84346509706515 Q 62.032023746890125, 64.42601588743862, 58.93668664754829, 72.08058607735327 " fill="none" id="curve_2" stroke="#000000" stroke-linecap="round" stroke-linejoin="round" stroke-width="2.74672995884384"/>
  <path d="M 49.31455946069817, 65.23461279392039 Q 41.466788223452, 68.4246064183053, 35.78298869978779, 79.87795303358237 " fill="none" id="curve_13" stroke="#000000" stroke-linecap="round" stroke-linejoin="round" stroke-width="3.1356844674202815"/>
  <path d="M 67.44113140209718, 36.06880764063361 Q 67.7795956298492, 24.681950790555298, 71.17988547923116, 21.540470660140315 " fill="none" id="curve_16" stroke="#000000" stroke-linecap="round" stroke-linejoin="round" stroke-width="2.904627671525854"/>
  <path d="M 60.34708050710995, 76.10145951497226 Q 61.9346725691944, 66.55010210633519, 64.93857945750585, 54.1518501629244 " fill="none" id="curve_24" stroke="#000000" stroke-linecap="round" stroke-linejoin="round" stroke-width="2.7470512834191676"/>
  <path d="M 35.95096588484854, 79.41415990729668 Q 33.919469102232576, 81.18925937341093, 30.380193456933874, 83.85258906387469 " fill="none" id="curve_42" stroke="#000000" stroke-linecap="round" stroke-linejoin="round" stroke-width="3.014960769415908"/>
  <path d="M 19.622982453715643, 100.52706264187121 Q 20.012261581562253, 99.11033951099498, 20.76287300504053, 96.17927425640093 " fill="none" id="curve_66" stroke="#000000" stroke-linecap="round" stroke-linejoin="round" stroke-width="2.7976376598416555"/>
  <path d="M 66.3970956156742, 41.09392064501142 Q 67.21046129741045, 39.553513537999635, 67.97323994554156, 35.756379837062795 " fill="none" id="curve_68" stroke="#000000" stroke-linecap="round" stroke-linejoin="round" stroke-width="4.550941895040769"/>
  <path d="M 60.15758679415029, 66.39325705378769 Q 59.99218548721317, 65.77826221393306, 59.75133587915594, 65.08760265220762 " fill="none" id="curve_83" stroke="#000000" stroke-linecap="round" stroke-linejoin="round" stroke-width="3.8240528077072837"/>
  <path d="M 42.57630275738937, 69.58551420101236 Q 49.38977604589833, 62.25514413488024, 60.7578323850009, 49.016001753430736 " fill="none" id="curve_91" stroke="#000000" stroke-linecap="round" stroke-linejoin="round" stroke-width="2.3818824452685576"/>
  <path d="M 67.407329956982, 40.52171108223871 Q 67.3738201153631, 37.69159722862964, 67.30363562315854, 35.13892142942251 " fill="none" id="curve_113" stroke="#000000" stroke-linecap="round" stroke-linejoin="round" stroke-width="4.816153057749255"/>
  <path d="M 68.89970779556279, 38.014832033244375 Q 67.69343801393036, 37.1628169347705, 66.43475129945679, 35.010940514141026 " fill="none" id="curve_154" stroke="#000000" stroke-linecap="round" stroke-linejoin="round" stroke-width="3.514444681227013"/>
  <path d="M 37.367321263119976, 78.47094111622786 Q 38.975750581672855, 78.0200064465534, 40.82736037027803, 76.98598118039311 " fill="none" id="curve_160" stroke="#000000" stroke-linecap="round" stroke-linejoin="round" stroke-width="3.2847351498489896"/>
  <path d="M 58.84949504940584, 74.2289873454583 Q 59.27695083540721, 74.36613971729275, 59.90719060806095, 74.76145720841802 " fill="none" id="curve_176" stroke="#000000" stroke-linecap="round" stroke-linejoin="round" stroke-width="2.0783897326595104"/>
  <path d="M 66.18508693614785, 30.381442925400904 Q 65.52932298333634, 31.70216447690177, 65.00779988449048, 35.504027310576085 " fill="none" id="curve_191" stroke="#000000" stroke-linecap="round" stroke-linejoin="round" stroke-width="2.4026545914571287"/>
</svg>
