<?xml version="1.0" ?>
<svg height="140" width="140" xmlns="http://www.w3.org/2000/svg">
  <path d="M 44.35730743408203, 82.51887893676758 Q 40.684353628047816, 84.70789927304372, 35.94020098058854, 90.01936924448171 " fill="none" id="curve_1" stroke="#000000" stroke-linecap="round" stroke-linejoin="round" stroke-width="6.6033890779761855"/>
  <path d="M 35.94020098058854, 90.01936924448171 Q 33.7144582125965, 89.66677617274885, 32.74628886896938, 88.28314725381357 " fill="none" id="curve_1" stroke="#000000" stroke-linecap="round" stroke-linejoin="round" stroke-width="4.1688912990716265"/>
  <path d="M 32.74628886896938, 88.28314725381357 Q 43.12442593772342, 85.36317120369026, 50.24615316270704, 71.5409107736031 " fill="none" id="curve_1" stroke="#000000" stroke-linecap="round" stroke-linejoin="round" stroke-width="3.011773746752518"/>
  <path d="M 62.31125858816681, 85.7840824499818 Q 63.659714045074324, 71.3940032801363, 72.90395915940306, 55.83801485199246 " fill="none" id="curve_2" stroke="#000000" stroke-linecap="round" stroke-linejoin="round" stroke-width="3.8194385097420276"/>
  <path d="M 72.90395915940306, 55.83801485199246 Q 75.76631970435366, 44.542895728318925, 83.59144922969256, 29.15051464481626 " fill="none" id="curve_2" stroke="#000000" stroke-linecap="round" stroke-linejoin="round" stroke-width="5.86078677146104"/>
  <path d="M 83.59144922969256, 29.15051464481626 Q 78.06441590624691, 36.80653467840914, 70.19192110399823, 46.33311652326132 " fill="none" id="curve_2" stroke="#000000" stroke-linecap="round" stroke-linejoin="round" stroke-width="4.166020242915456"/>
  <path d="M 65.62285675109295, 52.613726679686685 Q 66.66344548775392, 51.07660959768079, 67.68619336280148, 48.31997999421195 " fill="none" id="curve_3" stroke="#000000" stroke-linecap="round" stroke-linejoin="round" stroke-width="2.5878263055981017"/>
  <path d="M 62.36535575689389, 81.95389363836404 Q 63.080632998091914, 80.04465259015484, 63.729844988835005, 74.52143397271549 " fill="none" id="curve_4" stroke="#000000" stroke-linecap="round" stroke-linejoin="round" stroke-width="2.753748632538416"/>
  <path d="M 84.08451843261719, 33.33895301818848 Q 78.67461842962066, 34.32432200896898, 77.01572605264664, 40.276407089913846 " fill="none" id="curve_18" stroke="#000000" stroke-linecap="round" stroke-linejoin="round" stroke-width="7.44027297425572"/>
  <path d="M 77.01572605264664, 40.276407089913846 Q 78.63739206035793, 39.940872449446125, 79.29705411372193, 37.884938738709266 " fill="none" id="curve_18" stroke="#000000" stroke-linecap="round" stroke-linejoin="round" stroke-width="7.983828542468372"/>
  <path d="M 62.82331801555152, 77.59854682623173 Q 62.49275281837951, 82.34519066478558, 61.648285249055334, 85.90478155605848 " fill="none" id="curve_33" stroke="#000000" stroke-linecap="round" stroke-linejoin="round" stroke-width="2.4950120148802464"/>
  <path d="M 65.78815793976926, 67.72036848620989 Q 65.74082693280893, 66.7479695998572, 65.43325798477693, 66.40949021813354 " fill="none" id="curve_49" stroke="#000000" stroke-linecap="round" stroke-linejoin="round" stroke-width="3.2433656532886945"/>
  <path d="M 60.44029115017657, 79.70475614240767 Q 61.2753917179835, 79.59028985677628, 62.07022184798887, 79.26347244798231 " fill="none" id="curve_50" stroke="#000000" stroke-linecap="round" stroke-linejoin="round" stroke-width="2.2842094396662"/>
  <path d="M 41.62081968262784, 82.4407697808734 Q 42.96305007636486, 80.99597145038084, 44.81875444729091, 78.92288823598531 " fill="none" id="curve_52" stroke="#000000" stroke-linecap="round" stroke-linejoin="round" stroke-width="2.40925597130257"/>
  <path d="M 78.3005498103345, 35.243584763705876 Q 76.10543699034847, 37.17087633532156, 74.16869975863854, 41.62396191658791 " fill="none" id="curve_54" stroke="#000000" stroke-linecap="round" stroke-linejoin="round" stroke-width="4.030608329230273"/>
  <path d="M 42.266852628566085, 79.14241647809504 Q 42.477847673894416, 79.38641569236961, 42.671782356636605, 80.00465729322364 " fill="none" id="curve_82" stroke="#000000" stroke-linecap="round" stroke-linejoin="round" stroke-width="2.627400405355902"/>
  <path d="M 64.578296401361, 81.6918728746866 Q 63.5947802032754, 81.12247906539534, 62.45001704732572, 79.94414259169395 " fill="none" id="curve_83" stroke="#000000" stroke-linecap="round" stroke-linejoin="round" stroke-width="2.333250833393536"/>
  <path d="M 68.46460909714268, 49.25612665258036 Q 67.91808803418473, 49.50529823608518, 67.34207550224339, 50.0418845882754 " fill="none" id="curve_84" stroke="#000000" stroke-linecap="round" stroke-linejoin="round" stroke-width="2.844971041589398"/>
  <path d="M 83.09692139012128, 32.5928222527569 Q 82.75411732937596, 36.70485882043576, 78.55685221484188, 37.513843888085134 " fill="none" id="curve_86" stroke="#000000" stroke-linecap="round" stroke-linejoin="round" stroke-width="4.213924170675514"/>
  <path d="M 68.90046949956242, 64.85084961023132 Q 68.71674307754134, 62.49971258232081, 67.83868833886784, 61.50956146490935 " fill="none" id="curve_115" stroke="#000000" stroke-linecap="round" stroke-linejoin="round" stroke-width="2.2575670166791197"/>
  <path d="M 71.3348347023373, 41.88838103218094 Q 71.73665023669635, 41.118148910102526, 75.76078222747972, 40.87062098845295 " fill="none" id="curve_146" stroke="#000000" stroke-linecap="round" stroke-linejoin="round" stroke-width="2.4701450477494333"/>
</svg>
