<?xml version="1.0" ?>
<svg height="140" width="140" xmlns="http://www.w3.org/2000/svg">
  <path d="M 57.46351118744586, 100.65061714691623 Q 48.06144537473418, 100.30057123179348, 47.27294950304572, 72.65610915460195 " fill="none" id="curve_5" stroke="#000000" stroke-linecap="round" stroke-linejoin="round" stroke-width="6.325405487610782"/>
  <path d="M 47.27294950304572, 72.65610915460195 Q 47.58426170111068, 70.58994274453602, 47.74564157751786, 56.23191408106604 " fill="none" id="curve_5" stroke="#000000" stroke-linecap="round" stroke-linejoin="round" stroke-width="9.188884517718105"/>
  <path d="M 47.74564157751786, 56.23191408106604 Q 46.53839981943998, 73.2008780353479, 37.872760168358234, 78.611641356489 " fill="none" id="curve_5" stroke="#000000" stroke-linecap="round" stroke-linejoin="round" stroke-width="5.120108630918381"/>
  <path d="M 37.872760168358234, 78.611641356489 Q 37.393195406798824, 83.19603318491345, 23.92599343826636, 83.43975495995639 " fill="none" id="curve_5" stroke="#000000" stroke-linecap="round" stroke-linejoin="round" stroke-width="6.3863517113461885"/>
  <path d="M 43.184124917540046, 64.6447116561332 Q 43.43221391808936, 57.29543053180509, 44.67653788142767, 54.31422215389116 " fill="none" id="curve_7" stroke="#000000" stroke-linecap="round" stroke-linejoin="round" stroke-width="5.229316382896137"/>
  <path d="M 51.94731298916571, 99.99320358686322 Q 49.22269787033339, 99.09056014032419, 48.68303132887288, 84.33510953812879 " fill="none" id="curve_9" stroke="#000000" stroke-linecap="round" stroke-linejoin="round" stroke-width="4.020309771721948"/>
  <path d="M 23.55617574127618, 81.9241452333416 Q 22.85577522511588, 81.54863513388325, 22.142596715616612, 81.01407472632162 " fill="none" id="curve_10" stroke="#000000" stroke-linecap="round" stroke-linejoin="round" stroke-width="5.602124102514602"/>
  <path d="M 48.170783963552836, 94.67671766190018 Q 50.55182176370698, 94.51557603968003, 51.00646315993152, 92.3231267517076 " fill="none" id="curve_11" stroke="#000000" stroke-linecap="round" stroke-linejoin="round" stroke-width="4.917870429503439"/>
  <path d="M 52.53934988223089, 100.6627392316801 Q 50.174571962436275, 94.93701111000598, 47.86626144890921, 77.19263592040056 " fill="none" id="curve_13" stroke="#000000" stroke-linecap="round" stroke-linejoin="round" stroke-width="2.6428311213366937"/>
  <path d="M 48.646316940279995, 84.07842049869078 Q 49.90761991150057, 85.94111936584146, 50.76214992712049, 93.34111737801288 " fill="none" id="curve_23" stroke="#000000" stroke-linecap="round" stroke-linejoin="round" stroke-width="3.460387621810702"/>
  <path d="M 32.79975766567617, 80.53734450821005 Q 34.34717632814827, 78.18829171131401, 46.07179991501495, 77.1465430783871 " fill="none" id="curve_32" stroke="#000000" stroke-linecap="round" stroke-linejoin="round" stroke-width="2.4238425130999057"/>
  <path d="M 49.949715582556195, 94.88375114884983 Q 49.75242520443414, 86.08566396935065, 48.76785938466199, 82.09741823862049 " fill="none" id="curve_33" stroke="#000000" stroke-linecap="round" stroke-linejoin="round" stroke-width="3.7641887614652934"/>
  <path d="M 47.40277278738207, 93.21596512682923 Q 47.9091935657685, 91.57904074683304, 48.884218177142955, 89.64950385981149 " fill="none" id="curve_34" stroke="#000000" stroke-linecap="round" stroke-linejoin="round" stroke-width="5.124785621599107"/>
  <path d="M 48.884218177142955, 89.64950385981149 Q 48.84537364352192, 81.87713605974992, 48.51053987624471, 79.51604207892028 " fill="none" id="curve_34" stroke="#000000" stroke-linecap="round" stroke-linejoin="round" stroke-width="3.4486171899466576"/>
  <path d="M 50.404631057460826, 86.37760393194615 Q 50.807590881153835, 87.44923960113138, 51.619673474291176, 89.00604219134473 " fill="none" id="curve_36" stroke="#000000" stroke-linecap="round" stroke-linejoin="round" stroke-width="2.153344395565518"/>
  <path d="M 51.2115411886815, 93.69014611647768 Q 52.30198785984224, 94.73403227489455, 54.50301342506754, 96.25236250074175 " fill="none" id="curve_47" stroke="#000000" stroke-linecap="round" stroke-linejoin="round" stroke-width="2.7448003101752487"/>
  <path d="M 24.24087457027314, 81.76683241552803 Q 22.94195884479948, 81.74261310691739, 21.164189918730084, 81.70823789611615 " fill="none" id="curve_49" stroke="#000000" stroke-linecap="round" stroke-linejoin="round" stroke-width="3.9272114453714804"/>
  <path d="M 46.475063806392775, 78.44437853674705 Q 46.72269579866563, 80.88438507383533, 48.22670038281475, 81.5883178296048 " fill="none" id="curve_65" stroke="#000000" stroke-linecap="round" stroke-linejoin="round" stroke-width="4.139868611459775"/>
</svg>
