<?xml version="1.0" ?>
<svg height="140" width="140" xmlns="http://www.w3.org/2000/svg">
  <path d="M 70.09099774874838, 112.06016407957452 Q 69.59030604009723, 105.95385277296857, 68.41471991205195, 95.3996535444437 " fill="none" id="curve_2" stroke="#000000" stroke-linecap="round" stroke-linejoin="round" stroke-width="5.1833553314984"/>
  <path d="M 68.41471991205195, 95.3996535444437 Q 68.6057673737349, 85.8146363366511, 69.26726404504262, 75.07226315531278 " fill="none" id="curve_2" stroke="#000000" stroke-linecap="round" stroke-linejoin="round" stroke-width="5.780880477846333"/>
  <path d="M 69.26726404504262, 75.07226315531278 Q 70.98154163408667, 69.47411435700413, 72.97870852954357, 49.15666929766031 " fill="none" id="curve_2" stroke="#000000" stroke-linecap="round" stroke-linejoin="round" stroke-width="6.701086009484093"/>
  <path d="M 72.97870852954357, 49.15666929766031 Q 75.513678029764, 46.91718665103204, 76.35485273718974, 20.92961490078878 " fill="none" id="curve_2" stroke="#000000" stroke-linecap="round" stroke-linejoin="round" stroke-width="5.14086395692254"/>
  <path d="M 76.35485273718974, 20.92961490078878 Q 71.83010350416104, 29.31408011447527, 59.9088690882723, 56.91552192857347 " fill="none" id="curve_2" stroke="#000000" stroke-linecap="round" stroke-linejoin="round" stroke-width="4.372716034591343"/>
  <path d="M 59.9088690882723, 56.91552192857347 Q 55.33133263979482, 68.53873585492866, 37.17985437890984, 96.47003845419874 " fill="none" id="curve_2" stroke="#000000" stroke-linecap="round" stroke-linejoin="round" stroke-width="4.328173282683654"/>
  <path d="M 37.17985437890984, 96.47003845419874 Q 31.242938314948017, 107.3553758660801, 12.763060406824803, 136.6102273793521 " fill="none" id="curve_2" stroke="#000000" stroke-linecap="round" stroke-linejoin="round" stroke-width="3.4908148396740257"/>
  <path d="M 2.7664416855057326, 137.9046683911196 Q 2.0351903544737824, 134.88777675093692, 1.7328969935962137, 112.70336267135094 " fill="none" id="curve_3" stroke="#000000" stroke-linecap="round" stroke-linejoin="round" stroke-width="2.2639142125326615"/>
  <path d="M 1.7328969935962137, 112.70336267135094 Q 1.768074205556895, 106.16493768459674, 1.8058172905210834, 88.21568222335024 " fill="none" id="curve_3" stroke="#000000" stroke-linecap="round" stroke-linejoin="round" stroke-width="2.1334831778335777"/>
  <path d="M 1.8058172905210834, 88.21568222335024 Q 1.8711235250740212, 80.25458343780096, 1.9751680601710453, 66.53605297661926 " fill="none" id="curve_3" stroke="#000000" stroke-linecap="round" stroke-linejoin="round" stroke-width="2.025205727836184"/>
  <path d="M 1.9751680601710453, 66.53605297661926 Q 1.651242152764361, 62.42785565168121, 1.443303149299107, 40.948686303694316 " fill="none" id="curve_3" stroke="#000000" stroke-linecap="round" stroke-linejoin="round" stroke-width="2.0914792875079558"/>
  <path d="M 1.443303149299107, 40.948686303694316 Q 1.4228970833077235, 38.85382763719623, 1.410315178717235, 31.95638749186272 " fill="none" id="curve_3" stroke="#000000" stroke-linecap="round" stroke-linejoin="round" stroke-width="2.066904165466319"/>
  <path d="M 1.410315178717235, 31.95638749186272 Q 1.476034560336572, 26.742984828286023, 1.5681911502302484, 16.06890924213299 " fill="none" id="curve_3" stroke="#000000" stroke-linecap="round" stroke-linejoin="round" stroke-width="1.5409228284360337"/>
  <path d="M 1.5681911502302484, 16.06890924213299 Q 1.3607244477283205, 11.256559453008345, 1.0333222875243568, 2.5793758356864576 " fill="none" id="curve_3" stroke="#000000" stroke-linecap="round" stroke-linejoin="round" stroke-width="1.328316709059508"/>
  <path d="M 1.0333222875243568, 2.5793758356864576 Q 1.8531560883995604, 1.6977872797883062, 3.289858059375324, 1.0435122180023604 " fill="none" id="curve_3" stroke="#000000" stroke-linecap="round" stroke-linejoin="round" stroke-width="2.544564665054471"/>
  <path d="M 71.1106659674594, 29.2215994302883 Q 72.9121706916834, 23.06374538609789, 76.30992411615085, 16.55151880150911 " fill="none" id="curve_7" stroke="#000000" stroke-linecap="round" stroke-linejoin="round" stroke-width="4.491607321814526"/>
  <path d="M 71.72881391539606, 27.573899447989618 Q 68.22932031923168, 34.456999483250875, 63.31257297049073, 45.40315727274374 " fill="none" id="curve_8" stroke="#000000" stroke-linecap="round" stroke-linejoin="round" stroke-width="2.426664871707013"/>
  <path d="M 75.17881335296508, 18.852024364696586 Q 75.36265384065544, 17.85584666412006, 75.74311806881708, 17.1182390866419 " fill="none" id="curve_9" stroke="#000000" stroke-linecap="round" stroke-linejoin="round" stroke-width="4.237861978382329"/>
  <path d="M 53.562475892563896, 70.81732166944953 Q 57.42085389328381, 59.09499938728483, 66.47343955362103, 43.532774094928676 " fill="none" id="curve_11" stroke="#000000" stroke-linecap="round" stroke-linejoin="round" stroke-width="2.4063638813445003"/>
  <path d="M 76.49165230076704, 19.436279691875395 Q 76.45938162969442, 17.920798667856594, 76.33368799962933, 17.04336444150476 " fill="none" id="curve_12" stroke="#000000" stroke-linecap="round" stroke-linejoin="round" stroke-width="3.016331938641165"/>
  <path d="M 73.97403895210093, 47.55639691155557 Q 74.4254931373811, 50.30318628640227, 75.23287276810535, 53.40627008797123 " fill="none" id="curve_27" stroke="#000000" stroke-linecap="round" stroke-linejoin="round" stroke-width="2.851456210426955"/>
  <path d="M 52.43423901196781, 70.3905969364986 Q 52.25352864287744, 70.1781668738685, 52.05234898610065, 69.68518076729093 " fill="none" id="curve_28" stroke="#000000" stroke-linecap="round" stroke-linejoin="round" stroke-width="3.508707380501211"/>
  <path d="M 38.61987812252671, 91.45817441296452 Q 37.405209062797354, 95.74545203606881, 33.829314556947544, 98.809418925079 " fill="none" id="curve_76" stroke="#000000" stroke-linecap="round" stroke-linejoin="round" stroke-width="2.9536092702160004"/>
  <path d="M 18.618798037974486, 129.31162328133965 Q 16.12176891916308, 131.62265837884667, 12.014301460835574, 133.74752750122147 " fill="none" id="curve_83" stroke="#000000" stroke-linecap="round" stroke-linejoin="round" stroke-width="3.2604212676215067"/>
  <path d="M 74.47373171704425, 42.908073317579934 Q 73.47373231601941, 43.37473447697872, 71.0537583657104, 44.01804026501209 " fill="none" id="curve_92" stroke="#000000" stroke-linecap="round" stroke-linejoin="round" stroke-width="2.7572785244657494"/>
  <path d="M 75.69821816098514, 17.207499678808894 Q 75.19750639377948, 16.820578075945566, 74.00892866744702, 16.48452211820034 " fill="none" id="curve_107" stroke="#000000" stroke-linecap="round" stroke-linejoin="round" stroke-width="3.0047506570543825"/>
  <path d="M 73.73835277872058, 58.25556529113237 Q 73.76444945211529, 56.830527163761424, 73.8657352737622, 55.98429434606819 " fill="none" id="curve_122" stroke="#000000" stroke-linecap="round" stroke-linejoin="round" stroke-width="3.476378066690298"/>
</svg>
