<?xml version="1.0" ?>
<svg height="140" width="140" xmlns="http://www.w3.org/2000/svg">
  <path d="M 69.20862197875977, 39.009193420410156 Q 70.73428007576966, 35.048863585859706, 73.46621422065061, 28.14869741182008 " fill="none" id="curve_1" stroke="#000000" stroke-linecap="round" stroke-linejoin="round" stroke-width="6.325636725726399"/>
  <path d="M 73.46621422065061, 28.14869741182008 Q 69.25696939961415, 37.02130655829121, 58.7413655890836, 52.751873716162734 " fill="none" id="curve_1" stroke="#000000" stroke-linecap="round" stroke-linejoin="round" stroke-width="4.943795759140989"/>
  <path d="M 58.7413655890836, 52.751873716162734 Q 53.38740789131464, 62.6558798367292, 33.40796698871537, 88.28979759357043 " fill="none" id="curve_1" stroke="#000000" stroke-linecap="round" stroke-linejoin="round" stroke-width="5.870479546437812"/>
  <path d="M 33.40796698871537, 88.28979759357043 Q 29.650608570748823, 95.304846774099, 24.7053634328715, 101.19125695411445 " fill="none" id="curve_1" stroke="#000000" stroke-linecap="round" stroke-linejoin="round" stroke-width="6.34633401595043"/>
  <path d="M 68.34814647489594, 67.93693103712125 Q 73.81805879737273, 72.06417348805073, 76.55616882013669, 91.8029951610849 " fill="none" id="curve_2" stroke="#000000" stroke-linecap="round" stroke-linejoin="round" stroke-width="4.711966874382535"/>
  <path d="M 71.7663623703749, 69.67957762419029 Q 70.6037469694242, 67.00123205887786, 70.0525423843051, 58.09746677161114 " fill="none" id="curve_3" stroke="#000000" stroke-linecap="round" stroke-linejoin="round" stroke-width="5.359104477277764"/>
  <path d="M 70.0525423843051, 58.09746677161114 Q 71.20914076066576, 49.53899719496668, 72.56464861210057, 34.86284841185619 " fill="none" id="curve_3" stroke="#000000" stroke-linecap="round" stroke-linejoin="round" stroke-width="5.689806034346343"/>
  <path d="M 50.8181682810491, 64.25527114743892 Q 42.37692792728123, 71.61689158563482, 30.321242993521512, 90.42673238236179 " fill="none" id="curve_4" stroke="#000000" stroke-linecap="round" stroke-linejoin="round" stroke-width="3.6851256574942357"/>
  <path d="M 78.62087764871636, 92.00556304371177 Q 77.29328338184456, 86.49408643192176, 73.18188465780801, 80.85781001609072 " fill="none" id="curve_6" stroke="#000000" stroke-linecap="round" stroke-linejoin="round" stroke-width="2.392400969104"/>
  <path d="M 73.18188465780801, 80.85781001609072 Q 71.76057834073592, 76.41971147367913, 70.73641286993981, 62.31628328900521 " fill="none" id="curve_6" stroke="#000000" stroke-linecap="round" stroke-linejoin="round" stroke-width="3.9658158515601007"/>
  <path d="M 72.70788659429304, 28.330503303848282 Q 68.88314052609805, 34.9631168685443, 59.02776272830402, 48.124216274179986 " fill="none" id="curve_8" stroke="#000000" stroke-linecap="round" stroke-linejoin="round" stroke-width="2.8919464056663537"/>
  <path d="M 71.12811490719608, 62.65920812609589 Q 72.20955820225082, 70.3918241329112, 73.62408352984876, 78.65058463429128 " fill="none" id="curve_9" stroke="#000000" stroke-linecap="round" stroke-linejoin="round" stroke-width="3.5258256909137744"/>
  <path d="M 56.90595369925998, 52.72789749253349 Q 52.51081586684077, 60.416269541267596, 45.104977307674744, 69.59819305740584 " fill="none" id="curve_10" stroke="#000000" stroke-linecap="round" stroke-linejoin="round" stroke-width="3.0709453818917583"/>
  <path d="M 27.18957837673847, 104.0610452974837 Q 26.13752314610857, 103.7001415999804, 25.122820114216285, 102.8741524679207 " fill="none" id="curve_11" stroke="#000000" stroke-linecap="round" stroke-linejoin="round" stroke-width="3.1336402222710307"/>
  <path d="M 73.63019286187775, 28.45503057259125 Q 73.40660263401207, 27.64752224789744, 72.78939683837908, 27.15789092298398 " fill="none" id="curve_15" stroke="#000000" stroke-linecap="round" stroke-linejoin="round" stroke-width="4.665800788195312"/>
  <path d="M 69.57670410814303, 64.05164330099659 Q 70.01526104275484, 62.89013945362417, 70.48828204770652, 60.56427488491941 " fill="none" id="curve_19" stroke="#000000" stroke-linecap="round" stroke-linejoin="round" stroke-width="4.197037512747344"/>
  <path d="M 74.56369673432073, 31.487478437024606 Q 74.10428702751685, 32.69226347214264, 72.23911160137001, 33.82309571675573 " fill="none" id="curve_34" stroke="#000000" stroke-linecap="round" stroke-linejoin="round" stroke-width="2.6677786627224713"/>
  <path d="M 70.42399142631245, 61.932023577944456 Q 70.57147658255337, 61.22747117661266, 70.75721026882462, 59.55618855935105 " fill="none" id="curve_35" stroke="#000000" stroke-linecap="round" stroke-linejoin="round" stroke-width="2.948941292049338"/>
  <path d="M 69.71751478663992, 63.03594267234284 Q 70.33373987412313, 62.44624427042111, 71.04372381593726, 60.67662241861702 " fill="none" id="curve_70" stroke="#000000" stroke-linecap="round" stroke-linejoin="round" stroke-width="3.241734577759974"/>
  <path d="M 70.15470420895622, 63.27163845371954 Q 70.52404575217133, 63.437274080440076, 70.994230936338, 64.07227687939715 " fill="none" id="curve_87" stroke="#000000" stroke-linecap="round" stroke-linejoin="round" stroke-width="2.907116097589693"/>
</svg>
