<?xml version="1.0" ?>
<svg height="140" width="140" xmlns="http://www.w3.org/2000/svg">
  <path d="M 63.908573150634766, 35.7779426574707 Q 63.690806240407845, 42.145089822653254, 62.5376062898426, 47.339051420620024 " fill="none" id="curve_1" stroke="#000000" stroke-linecap="round" stroke-linejoin="round" stroke-width="7.529307872416721"/>
  <path d="M 62.5376062898426, 47.339051420620024 Q 56.91651289633447, 52.377786793550946, 46.21904600309482, 73.5223289606253 " fill="none" id="curve_1" stroke="#000000" stroke-linecap="round" stroke-linejoin="round" stroke-width="3.785519988182679"/>
  <path d="M 46.21904600309482, 73.5223289606253 Q 41.49790874248635, 81.09439047525363, 26.03337600919924, 102.54302172487748 " fill="none" id="curve_1" stroke="#000000" stroke-linecap="round" stroke-linejoin="round" stroke-width="4.3764163869438795"/>
  <path d="M 26.03337600919924, 102.54302172487748 Q 21.406814271762315, 107.6397892929273, 15.56555691385698, 113.57340411071777 " fill="none" id="curve_1" stroke="#000000" stroke-linecap="round" stroke-linejoin="round" stroke-width="3.9459019358067504"/>
  <path d="M 62.19880153758547, 102.25705700887849 Q 62.30942581606189, 84.5618149814592, 63.351014893775016, 71.26824624235758 " fill="none" id="curve_3" stroke="#000000" stroke-linecap="round" stroke-linejoin="round" stroke-width="4.366174313769775"/>
  <path d="M 63.351014893775016, 71.26824624235758 Q 64.3806732365965, 60.33495240675483, 67.67853150338723, 43.352581443676286 " fill="none" id="curve_3" stroke="#000000" stroke-linecap="round" stroke-linejoin="round" stroke-width="4.729985711032302"/>
  <path d="M 67.67853150338723, 43.352581443676286 Q 67.48091039526605, 37.54642581551251, 66.30550792922523, 36.17561349716354 " fill="none" id="curve_3" stroke="#000000" stroke-linecap="round" stroke-linejoin="round" stroke-width="6.075701636617738"/>
  <path d="M 66.30550792922523, 36.17561349716354 Q 62.63084256918175, 41.54451923758602, 59.07667657517136, 49.76025132965927 " fill="none" id="curve_3" stroke="#000000" stroke-linecap="round" stroke-linejoin="round" stroke-width="3.61086956299121"/>
  <path d="M 51.317548210579076, 64.03107857798966 Q 45.01750822236545, 75.26763662700009, 29.522338896473023, 96.3777773293964 " fill="none" id="curve_6" stroke="#000000" stroke-linecap="round" stroke-linejoin="round" stroke-width="2.250932776977379"/>
  <path d="M 63.88027041022086, 102.6648661873985 Q 64.02377292582634, 102.66590302892463, 64.17624006461021, 102.6677987014704 " fill="none" id="curve_7" stroke="#000000" stroke-linecap="round" stroke-linejoin="round" stroke-width="3.8426610955578364"/>
  <path d="M 60.819310513386654, 94.92380078526226 Q 61.282167524034996, 94.60105519334752, 61.857339536641035, 93.86952757536264 " fill="none" id="curve_8" stroke="#000000" stroke-linecap="round" stroke-linejoin="round" stroke-width="3.220804258596552"/>
  <path d="M 46.512149368233324, 72.70793265293663 Q 47.791244286007796, 68.55198218956016, 51.35772665046266, 64.6023977183233 " fill="none" id="curve_10" stroke="#000000" stroke-linecap="round" stroke-linejoin="round" stroke-width="2.8567092490485906"/>
  <path d="M 32.54144791892257, 95.00474451399415 Q 27.487521441052827, 99.87736355276388, 20.740121912017777, 107.87708264849152 " fill="none" id="curve_19" stroke="#000000" stroke-linecap="round" stroke-linejoin="round" stroke-width="2.5762539259333526"/>
  <path d="M 41.62478652322906, 75.94670516439241 Q 46.43436516542004, 72.77125445451126, 51.217134520682805, 66.36181034555212 " fill="none" id="curve_21" stroke="#000000" stroke-linecap="round" stroke-linejoin="round" stroke-width="2.722076554742989"/>
  <path d="M 63.10058617729104, 68.09629015465053 Q 63.72397384718606, 60.23832988243437, 65.2260215596022, 52.9446095932447 " fill="none" id="curve_32" stroke="#000000" stroke-linecap="round" stroke-linejoin="round" stroke-width="2.5217033991159563"/>
  <path d="M 49.656680213858785, 64.61415728500253 Q 52.48957235806128, 58.23953010310702, 58.91275349038722, 48.5256850667197 " fill="none" id="curve_35" stroke="#000000" stroke-linecap="round" stroke-linejoin="round" stroke-width="2.048628041612485"/>
  <path d="M 62.650652928222904, 76.23085899412058 Q 62.27046842530474, 76.54393392513366, 61.93886342878476, 77.11397045363843 " fill="none" id="curve_36" stroke="#000000" stroke-linecap="round" stroke-linejoin="round" stroke-width="5.500578175858161"/>
  <path d="M 47.13125970074424, 72.56692239218576 Q 47.42045523631177, 70.90863265498983, 47.91319959088063, 68.58279630927134 " fill="none" id="curve_80" stroke="#000000" stroke-linecap="round" stroke-linejoin="round" stroke-width="3.1482224708522386"/>
  <path d="M 60.462328824521705, 92.64820965946936 Q 60.598352234615426, 92.55456557994177, 60.75626208139505, 92.38071814251533 " fill="none" id="curve_95" stroke="#000000" stroke-linecap="round" stroke-linejoin="round" stroke-width="3.4602785567455148"/>
</svg>
