<?xml version="1.0" ?>
<svg height="140" width="140" xmlns="http://www.w3.org/2000/svg">
  <path d="M 37.113609313964844, 105.02668762207031 Q 36.942346091261285, 102.959819076056, 36.594459071645765, 100.42802354654974 " fill="none" id="curve_1" stroke="#000000" stroke-linecap="round" stroke-linejoin="round" stroke-width="5.209905633300713"/>
  <path d="M 36.594459071645765, 100.42802354654974 Q 38.14546801502087, 91.1836022889341, 44.52820936681769, 79.16452178917565 " fill="none" id="curve_1" stroke="#000000" stroke-linecap="round" stroke-linejoin="round" stroke-width="3.484837692890994"/>
  <path d="M 44.52820936681769, 79.16452178917565 Q 47.20879055352611, 72.87385730268241, 51.38762097446015, 54.544363233750346 " fill="none" id="curve_1" stroke="#000000" stroke-linecap="round" stroke-linejoin="round" stroke-width="4.542051879731784"/>
  <path d="M 51.38762097446015, 54.544363233750346 Q 51.31535140924592, 48.95466267699557, 50.552193643490796, 47.946941851516975 " fill="none" id="curve_1" stroke="#000000" stroke-linecap="round" stroke-linejoin="round" stroke-width="3.7121821092050773"/>
  <path d="M 50.552193643490796, 47.946941851516975 Q 42.36735931259035, 51.39409879096804, 24.060508979296113, 72.6752954213115 " fill="none" id="curve_1" stroke="#000000" stroke-linecap="round" stroke-linejoin="round" stroke-width="4.663873260558189"/>
  <path d="M 24.060508979296113, 72.6752954213115 Q 17.813974053220782, 79.11006302289609, 8.707234154303478, 89.64924782593657 " fill="none" id="curve_1" stroke="#000000" stroke-linecap="round" stroke-linejoin="round" stroke-width="4.748242896616583"/>
  <path d="M 38.05548885646065, 105.5004666074567 Q 37.457249341512444, 104.91721168929276, 36.88366810447165, 103.79706328100161 " fill="none" id="curve_3" stroke="#000000" stroke-linecap="round" stroke-linejoin="round" stroke-width="4.715852061965337"/>
  <path d="M 6.777175792351742, 90.98993235239614 Q 6.898912024845206, 90.68045894846887, 7.0193686662348185, 90.10196585845772 " fill="none" id="curve_5" stroke="#000000" stroke-linecap="round" stroke-linejoin="round" stroke-width="3.5248893182119247"/>
  <path d="M 36.59772126306811, 56.931591002083245 Q 40.74786322817532, 51.99198498447377, 49.8155953133335, 46.94830828869725 " fill="none" id="curve_6" stroke="#000000" stroke-linecap="round" stroke-linejoin="round" stroke-width="2.6049710881895978"/>
  <path d="M 36.470110588795976, 58.40251925050856 Q 30.641114336807803, 61.03443530105993, 26.87685588323808, 69.075926355486 " fill="none" id="curve_7" stroke="#000000" stroke-linecap="round" stroke-linejoin="round" stroke-width="2.413731197349414"/>
  <path d="M 45.50308731425287, 74.59422816343469 Q 44.922885757940165, 75.83238536825539, 44.13407877450956, 79.54404768578217 " fill="none" id="curve_12" stroke="#000000" stroke-linecap="round" stroke-linejoin="round" stroke-width="2.1960291472533044"/>
  <path d="M 52.32206239017772, 48.108238155506335 Q 51.03115100823183, 48.42572106401065, 47.24728913299259, 48.771646822907286 " fill="none" id="curve_28" stroke="#000000" stroke-linecap="round" stroke-linejoin="round" stroke-width="2.723814274916618"/>
  <path d="M 49.50493916036112, 56.157110643482156 Q 50.03113065083987, 55.39612650447209, 50.41701346391992, 52.285188346183034 " fill="none" id="curve_43" stroke="#000000" stroke-linecap="round" stroke-linejoin="round" stroke-width="2.618077859652523"/>
  <path d="M 14.336328666601801, 82.85782988600097 Q 13.37853105500385, 82.91261656534269, 12.310527767505723, 83.02519716414557 " fill="none" id="curve_44" stroke="#000000" stroke-linecap="round" stroke-linejoin="round" stroke-width="3.674679863800921"/>
  <path d="M 45.780659759054636, 73.25681730965698 Q 46.99077831945037, 69.72113579980442, 49.506130522755434, 65.04043025658076 " fill="none" id="curve_138" stroke="#000000" stroke-linecap="round" stroke-linejoin="round" stroke-width="2.142068361366847"/>
</svg>
