<?xml version="1.0" ?>
<svg height="140" width="140" xmlns="http://www.w3.org/2000/svg">
  <path d="M 50.64299750328064, 36.93283176422119 Q 49.39333532617016, 39.35253217745891, 47.336074481910124, 46.037433847410455 " fill="none" id="curve_1" stroke="#000000" stroke-linecap="round" stroke-linejoin="round" stroke-width="5.480161657652171"/>
  <path d="M 47.336074481910124, 46.037433847410455 Q 41.56752549996047, 56.16407990967642, 22.96900556677453, 72.21166204877719 " fill="none" id="curve_1" stroke="#000000" stroke-linecap="round" stroke-linejoin="round" stroke-width="4.595804191867039"/>
  <path d="M 22.96900556677453, 72.21166204877719 Q 17.59781415603254, 75.80485273524549, 11.842258504298893, 80.02019595412233 " fill="none" id="curve_1" stroke="#000000" stroke-linecap="round" stroke-linejoin="round" stroke-width="4.930121052230756"/>
  <path d="M 50.83462888292972, 59.5773243687643 Q 51.248700572043205, 62.83148508216346, 51.45752352610619, 97.08011883595908 " fill="none" id="curve_2" stroke="#000000" stroke-linecap="round" stroke-linejoin="round" stroke-width="5.222450997023159"/>
  <path d="M 51.45752352610619, 97.08011883595908 Q 52.8173018159436, 103.80572535987407, 53.600924442206164, 117.38749364685118 " fill="none" id="curve_2" stroke="#000000" stroke-linecap="round" stroke-linejoin="round" stroke-width="4.995976295073154"/>
  <path d="M 52.84234901864769, 94.82439521878388 Q 52.77899762988752, 79.29703454282881, 52.34881906774979, 73.14887779340074 " fill="none" id="curve_3" stroke="#000000" stroke-linecap="round" stroke-linejoin="round" stroke-width="2.908446431734541"/>
  <path d="M 52.34881906774979, 73.14887779340074 Q 51.441006068614534, 64.73367851883272, 49.93957615379267, 56.28735663574078 " fill="none" id="curve_3" stroke="#000000" stroke-linecap="round" stroke-linejoin="round" stroke-width="4.26152102209558"/>
  <path d="M 49.93957615379267, 56.28735663574078 Q 50.97656882479116, 47.967819959145174, 52.514873312719914, 33.38286918998044 " fill="none" id="curve_3" stroke="#000000" stroke-linecap="round" stroke-linejoin="round" stroke-width="4.257643915595026"/>
  <path d="M 43.78343312893114, 47.97093381240883 Q 38.672206236935864, 54.994779366672525, 31.728161119701973, 63.79409208337221 " fill="none" id="curve_4" stroke="#000000" stroke-linecap="round" stroke-linejoin="round" stroke-width="2.9079073005615275"/>
  <path d="M 31.728161119701973, 63.79409208337221 Q 25.983907738577365, 68.91555624255827, 15.972392097661096, 75.16058854938515 " fill="none" id="curve_4" stroke="#000000" stroke-linecap="round" stroke-linejoin="round" stroke-width="3.1350203265975534"/>
  <path d="M 49.46109108348367, 56.977756735565755 Q 48.00578664965643, 55.13975729716797, 47.344633819372085, 44.945088254672314 " fill="none" id="curve_6" stroke="#000000" stroke-linecap="round" stroke-linejoin="round" stroke-width="2.207165938434282"/>
  <path d="M 47.344633819372085, 44.945088254672314 Q 47.83368958331073, 38.44263717303964, 50.35241646252705, 35.184462868518274 " fill="none" id="curve_6" stroke="#000000" stroke-linecap="round" stroke-linejoin="round" stroke-width="2.9639300682793093"/>
  <path d="M 27.80226318549062, 67.87948300897793 Q 31.74347301757464, 66.51453673996707, 34.14475101601467, 63.58500190824247 " fill="none" id="curve_10" stroke="#000000" stroke-linecap="round" stroke-linejoin="round" stroke-width="2.8876343128336703"/>
  <path d="M 10.342104198045277, 78.73614695499117 Q 10.38415952031347, 79.36970192114637, 10.476491063563426, 79.82465007853436 " fill="none" id="curve_11" stroke="#000000" stroke-linecap="round" stroke-linejoin="round" stroke-width="3.2084061914055595"/>
  <path d="M 50.278957612353764, 109.98951757643496 Q 50.72496171439646, 107.02587742271086, 51.45170216249174, 103.02589194260372 " fill="none" id="curve_12" stroke="#000000" stroke-linecap="round" stroke-linejoin="round" stroke-width="3.679197580083095"/>
  <path d="M 52.57115434610298, 78.72556172499296 Q 49.64503110980562, 77.7739035855669, 49.2035770581838, 58.037642915300836 " fill="none" id="curve_13" stroke="#000000" stroke-linecap="round" stroke-linejoin="round" stroke-width="3.0111188803964524"/>
  <path d="M 44.93735192628288, 45.9255291461815 Q 45.17217435536621, 45.72248315512585, 45.442094649941836, 45.35223457332561 " fill="none" id="curve_14" stroke="#000000" stroke-linecap="round" stroke-linejoin="round" stroke-width="3.881333769957178"/>
  <path d="M 5.145173148390711, 1.0225848991451016 Q 1.4885289732187768, 1.2374848368459783, 1.134424623893163, 7.388117020414842 " fill="none" id="curve_29" stroke="#000000" stroke-linecap="round" stroke-linejoin="round" stroke-width="2.405469147916452"/>
  <path d="M 1.134424623893163, 7.388117020414842 Q 1.0935924621357314, 10.171818698885495, 0.7640888930760356, 10.734220991630071 " fill="none" id="curve_29" stroke="#000000" stroke-linecap="round" stroke-linejoin="round" stroke-width="1.422004332545242"/>
  <path d="M 5.05033035248701, 1.6194645132071592 Q 3.091941180965037, 1.8806212781464604, 1.4686899253099752, 2.3693161262709506 " fill="none" id="curve_30" stroke="#000000" stroke-linecap="round" stroke-linejoin="round" stroke-width="3.1348949253360336"/>
  <path d="M 50.43651448700406, 76.95455042290759 Q 50.80746124151275, 76.05183296561688, 51.305480325494074, 74.54253078668859 " fill="none" id="curve_64" stroke="#000000" stroke-linecap="round" stroke-linejoin="round" stroke-width="3.7454771792062527"/>
  <path d="M 48.03081655634999, 73.66472110651291 Q 52.900479677540815, 73.82503357701555, 53.51999651118335, 77.25079597786562 " fill="none" id="curve_95" stroke="#000000" stroke-linecap="round" stroke-linejoin="round" stroke-width="3.2864501941082715"/>
  <path d="M 48.71087340111539, 57.777532517987936 Q 48.63835049450067, 57.30885746470102, 48.52672300854468, 56.83021444075892 " fill="none" id="curve_96" stroke="#000000" stroke-linecap="round" stroke-linejoin="round" stroke-width="3.4607121657514623"/>
  <path d="M 54.135986650555765, 119.21996682953396 Q 53.96060334792398, 118.99488642307061, 53.64452824442697, 118.75982050083029 " fill="none" id="curve_125" stroke="#000000" stroke-linecap="round" stroke-linejoin="round" stroke-width="2.5940809657497836"/>
  <path d="M 49.07086196355028, 99.87947811314511 Q 50.91409938431474, 100.37875311271011, 52.7387912308975, 101.35739374711396 " fill="none" id="curve_127" stroke="#000000" stroke-linecap="round" stroke-linejoin="round" stroke-width="3.583408029720054"/>
</svg>
