<?xml version="1.0" ?>
<svg height="140" width="140" xmlns="http://www.w3.org/2000/svg">
  <path d="M 53.50495910644531, 60.47416305541992 Q 50.33522174352537, 61.29532007139132, 49.068161044227935, 69.67934512435 " fill="none" id="curve_1" stroke="#000000" stroke-linecap="round" stroke-linejoin="round" stroke-width="11.823548578131906"/>
  <path d="M 49.068161044227935, 69.67934512435 Q 40.986582528292, 75.9572081075883, 23.536902989881256, 101.17113514956687 " fill="none" id="curve_1" stroke="#000000" stroke-linecap="round" stroke-linejoin="round" stroke-width="4.393178165805055"/>
  <path d="M 47.73462706864244, 105.94704094964008 Q 48.13581977025737, 80.46720561968712, 53.318656807411024, 71.54975479876941 " fill="none" id="curve_3" stroke="#000000" stroke-linecap="round" stroke-linejoin="round" stroke-width="7.1482604055400145"/>
  <path d="M 26.611882683069, 98.851273631139 Q 24.586642062707252, 100.01520554174891, 21.97415623497182, 101.56004145984606 " fill="none" id="curve_4" stroke="#000000" stroke-linecap="round" stroke-linejoin="round" stroke-width="10.636250931365057"/>
  <path d="M 49.65182226976566, 62.40178354420462 Q 52.581714630674874, 62.33804031509843, 54.120549953778365, 62.12775923364555 " fill="none" id="curve_5" stroke="#000000" stroke-linecap="round" stroke-linejoin="round" stroke-width="7.7150705973725655"/>
  <path d="M 45.4810610109364, 104.20004484207361 Q 46.56917714748584, 87.96679351285397, 50.906368680713456, 76.99662104740452 " fill="none" id="curve_6" stroke="#000000" stroke-linecap="round" stroke-linejoin="round" stroke-width="4.495572969136658"/>
  <path d="M 52.56112548451536, 60.21063727957087 Q 52.5236041740716, 60.6415331875114, 52.505944427125506, 62.55475780835884 " fill="none" id="curve_7" stroke="#000000" stroke-linecap="round" stroke-linejoin="round" stroke-width="9.53624486767802"/>
  <path d="M 24.569576200940272, 99.46189619718298 Q 26.680392799479385, 98.03330590865583, 27.916455020615373, 92.20475570079397 " fill="none" id="curve_9" stroke="#000000" stroke-linecap="round" stroke-linejoin="round" stroke-width="5.756093237659381"/>
  <path d="M 49.61988243625366, 57.90471859031196 Q 52.38388602939477, 61.64879184172585, 55.32961130729994, 67.59449528452792 " fill="none" id="curve_11" stroke="#000000" stroke-linecap="round" stroke-linejoin="round" stroke-width="5.06865201485769"/>
  <path d="M 49.99877442409699, 79.15756669476826 Q 45.74941155549019, 84.12711343433119, 43.201005480420974, 98.78758807332007 " fill="none" id="curve_13" stroke="#000000" stroke-linecap="round" stroke-linejoin="round" stroke-width="2.7053263324281005"/>
  <path d="M 30.44087072223667, 95.02700725666116 Q 28.09125293338525, 99.51918526559554, 24.640304871799916, 103.38669250400815 " fill="none" id="curve_14" stroke="#000000" stroke-linecap="round" stroke-linejoin="round" stroke-width="4.137929076303752"/>
  <path d="M 46.16990481533376, 84.65910149074728 Q 47.931674364209385, 80.81151027537568, 51.892722290617755, 77.00847788519847 " fill="none" id="curve_16" stroke="#000000" stroke-linecap="round" stroke-linejoin="round" stroke-width="3.7136724219888806"/>
  <path d="M 47.817594277481476, 105.16904249473923 Q 48.86989917287281, 105.49947006840182, 49.856851910956635, 106.02128324432935 " fill="none" id="curve_17" stroke="#000000" stroke-linecap="round" stroke-linejoin="round" stroke-width="4.9911491842764395"/>
  <path d="M 47.7614587231339, 62.59129164321496 Q 48.75636773655941, 61.30114553569893, 52.37239364003395, 60.65053734890062 " fill="none" id="curve_18" stroke="#000000" stroke-linecap="round" stroke-linejoin="round" stroke-width="4.4024016004436985"/>
  <path d="M 47.59008897596119, 84.07147654253035 Q 50.50468526714363, 82.2504970171125, 52.627181162959765, 77.65285223194331 " fill="none" id="curve_61" stroke="#000000" stroke-linecap="round" stroke-linejoin="round" stroke-width="3.8701664507202707"/>
  <path d="M 20.824260791182724, 98.6225752098045 Q 22.571360518919114, 95.97005973951839, 28.210749651499626, 93.87639277165174 " fill="none" id="curve_89" stroke="#000000" stroke-linecap="round" stroke-linejoin="round" stroke-width="3.0728319090946474"/>
  <path d="M 51.883921809879844, 60.73319695508246 Q 52.92466215867706, 60.52310863784637, 54.33660747077547, 60.15313997833159 " fill="none" id="curve_91" stroke="#000000" stroke-linecap="round" stroke-linejoin="round" stroke-width="4.04083808095324"/>
  <path d="M 47.66057453674148, 78.33769151866727 Q 47.54686995720203, 82.89475781293227, 47.282776450199464, 87.38485642785096 " fill="none" id="curve_132" stroke="#000000" stroke-linecap="round" stroke-linejoin="round" stroke-width="3.1489117041134076"/>
  <path d="M 46.842062130905894, 105.57822323027338 Q 46.2301685498792, 105.29252300603638, 45.119952525469834, 104.81163008047079 " fill="none" id="curve_151" stroke="#000000" stroke-linecap="round" stroke-linejoin="round" stroke-width="4.053809011206497"/>
</svg>
