<?xml version="1.0" ?>
<svg height="140" width="140" xmlns="http://www.w3.org/2000/svg">
  <path d="M 74.37242221832275, 55.4446907043457 Q 69.4972982294752, 56.696598275955154, 64.59948713313838, 71.77995522195852 " fill="none" id="curve_1" stroke="#000000" stroke-linecap="round" stroke-linejoin="round" stroke-width="3.1912386872614302"/>
  <path d="M 64.59948713313838, 71.77995522195852 Q 61.35053615438448, 79.637865004672, 56.573423009711185, 95.18874590159656 " fill="none" id="curve_1" stroke="#000000" stroke-linecap="round" stroke-linejoin="round" stroke-width="2.599692146258223"/>
  <path d="M 53.99594337807083, 99.24583930558191 Q 54.20049474665395, 103.477180285304, 54.471561454706524, 107.88839086225194 " fill="none" id="curve_2" stroke="#000000" stroke-linecap="round" stroke-linejoin="round" stroke-width="2.7109929562163866"/>
  <path d="M 43.9766705868051, 90.97263590908433 Q 39.204257923638, 95.32447101559598, 24.939782876363587, 110.74968871060537 " fill="none" id="curve_3" stroke="#000000" stroke-linecap="round" stroke-linejoin="round" stroke-width="2.8987454337638305"/>
  <path d="M 24.939782876363587, 110.74968871060537 Q 24.564624805134248, 110.99270349788328, 24.073947621714442, 111.26360015694233 " fill="none" id="curve_3" stroke="#000000" stroke-linecap="round" stroke-linejoin="round" stroke-width="2.1661749149913447"/>
  <path d="M 48.51916797077022, 87.27525277872266 Q 49.51165520403345, 83.34490901333106, 53.25265487992632, 81.39302500221157 " fill="none" id="curve_4" stroke="#000000" stroke-linecap="round" stroke-linejoin="round" stroke-width="2.45293124484017"/>
  <path d="M 71.66807937357716, 57.75682700222801 Q 72.53160461041192, 53.27349615837527, 75.0399630497075, 50.61300898600687 " fill="none" id="curve_5" stroke="#000000" stroke-linecap="round" stroke-linejoin="round" stroke-width="2.3409054867278303"/>
  <path d="M 68.92275100813744, 59.21661589005076 Q 68.5869373973471, 62.95883419653391, 67.73789202800691, 65.39186379863833 " fill="none" id="curve_6" stroke="#000000" stroke-linecap="round" stroke-linejoin="round" stroke-width="2.6856803484379457"/>
  <path d="M 54.103298558352364, 107.80490552515498 Q 53.78302178365651, 107.60329778278651, 53.41213455095038, 107.28470087998781 " fill="none" id="curve_8" stroke="#000000" stroke-linecap="round" stroke-linejoin="round" stroke-width="3.229952241073287"/>
  <path d="M 31.19123785739923, 104.68318711774717 Q 28.17539968415652, 106.07670368994859, 26.42039330199969, 109.59070844212808 " fill="none" id="curve_9" stroke="#000000" stroke-linecap="round" stroke-linejoin="round" stroke-width="3.0229590770537587"/>
  <path d="M 56.12612814837212, 94.75774524626726 Q 56.077665415718364, 95.60440890378754, 55.980862221756865, 96.69011070426183 " fill="none" id="curve_65" stroke="#000000" stroke-linecap="round" stroke-linejoin="round" stroke-width="1.9778253798559038"/>
  <path d="M 45.496623545292664, 90.8614877153257 Q 45.47124205147024, 90.1195489082599, 45.395289858119476, 89.57379307666412 " fill="none" id="curve_93" stroke="#000000" stroke-linecap="round" stroke-linejoin="round" stroke-width="2.324637734524731"/>
  <path d="M 63.676178851220584, 68.12872511138539 Q 64.02085284847722, 69.17180950553983, 64.70831985682173, 70.6086130586144 " fill="none" id="curve_121" stroke="#000000" stroke-linecap="round" stroke-linejoin="round" stroke-width="2.375188473040219"/>
  <path d="M 67.15310618612502, 65.07516366748843 Q 69.08174997938778, 60.68785002238252, 72.3513348330963, 55.79438328212896 " fill="none" id="curve_141" stroke="#000000" stroke-linecap="round" stroke-linejoin="round" stroke-width="1.964287948878561"/>
</svg>
