<?xml version="1.0" ?>
<svg height="140" width="140" xmlns="http://www.w3.org/2000/svg">
  <path d="M 49.83388376235962, 50.741915702819824 Q 48.24454520658548, 57.66566292502622, 43.86155720386341, 75.08905559877894 " fill="none" id="curve_1" stroke="#000000" stroke-linecap="round" stroke-linejoin="round" stroke-width="5.0376389619300594"/>
  <path d="M 43.86155720386341, 75.08905559877894 Q 38.45343983833911, 82.65415551232908, 25.462718970173185, 105.30935897281563 " fill="none" id="curve_1" stroke="#000000" stroke-linecap="round" stroke-linejoin="round" stroke-width="3.7054321565047674"/>
  <path d="M 42.88860586783005, 118.54464759221933 Q 43.24108055319524, 105.92587754733763, 45.299424458046225, 87.8661125203488 " fill="none" id="curve_3" stroke="#000000" stroke-linecap="round" stroke-linejoin="round" stroke-width="3.1707311504775353"/>
  <path d="M 45.299424458046225, 87.8661125203488 Q 46.78947175290349, 85.34800809181966, 47.357035564592195, 66.50936573783805 " fill="none" id="curve_3" stroke="#000000" stroke-linecap="round" stroke-linejoin="round" stroke-width="2.9901212456979613"/>
  <path d="M 47.357035564592195, 66.50936573783805 Q 47.56704651984943, 58.77335080770463, 47.95395431155669, 51.54205179287763 " fill="none" id="curve_3" stroke="#000000" stroke-linecap="round" stroke-linejoin="round" stroke-width="4.2881037908733255"/>
  <path d="M 47.95395431155669, 51.54205179287763 Q 49.632593162614135, 48.08805133891654, 50.760732483417414, 23.531067444228228 " fill="none" id="curve_3" stroke="#000000" stroke-linecap="round" stroke-linejoin="round" stroke-width="4.304086383649277"/>
  <path d="M 49.78843393915967, 57.869823273537605 Q 45.221369881226856, 64.52997438631412, 40.45385504063213, 78.1420138080046 " fill="none" id="curve_5" stroke="#000000" stroke-linecap="round" stroke-linejoin="round" stroke-width="2.9160931753076897"/>
  <path d="M 25.560107952045957, 105.22187023307308 Q 22.10072988059236, 108.47817232367153, 20.201490223955542, 117.07706372092971 " fill="none" id="curve_6" stroke="#000000" stroke-linecap="round" stroke-linejoin="round" stroke-width="2.1896132669422808"/>
  <path d="M 20.201490223955542, 117.07706372092971 Q 19.34995594221367, 116.60436053859445, 18.65209877458174, 115.90360172751919 " fill="none" id="curve_6" stroke="#000000" stroke-linecap="round" stroke-linejoin="round" stroke-width="4.621510053414088"/>
  <path d="M 18.65209877458174, 115.90360172751919 Q 25.10708445705778, 108.4147682241685, 33.392715747717595, 93.04867185686285 " fill="none" id="curve_6" stroke="#000000" stroke-linecap="round" stroke-linejoin="round" stroke-width="2.7310888739538486"/>
  <path d="M 36.493934132256705, 85.5628602443388 Q 32.028519348445904, 93.77394784454327, 25.22925861561801, 105.61209588290178 " fill="none" id="curve_9" stroke="#000000" stroke-linecap="round" stroke-linejoin="round" stroke-width="2.1750239839896843"/>
  <path d="M 27.596058619402548, 102.98169542274329 Q 31.454707874630603, 96.84392154671652, 36.753849155178955, 86.44744229027839 " fill="none" id="curve_11" stroke="#000000" stroke-linecap="round" stroke-linejoin="round" stroke-width="1.922405449525182"/>
  <path d="M 44.065411312147, 97.77089242866813 Q 43.9548425857757, 95.20046309754406, 43.75166943405019, 92.87892240338802 " fill="none" id="curve_12" stroke="#000000" stroke-linecap="round" stroke-linejoin="round" stroke-width="2.6619948184086386"/>
  <path d="M 46.053863525390625, 89.87430191040039 Q 45.79580688318478, 87.4351868527788, 45.387625012535985, 83.93048882216836 " fill="none" id="curve_26" stroke="#000000" stroke-linecap="round" stroke-linejoin="round" stroke-width="3.0669120383008814"/>
  <path d="M 45.88146706311096, 60.315100713769176 Q 46.426494398714745, 58.9178294640235, 47.309249506420606, 57.11942328905927 " fill="none" id="curve_27" stroke="#000000" stroke-linecap="round" stroke-linejoin="round" stroke-width="2.1259475547946765"/>
  <path d="M 36.28600276780767, 84.84689384555654 Q 33.075724088918136, 94.64402033129268, 25.621179429282584, 105.05911949785664 " fill="none" id="curve_55" stroke="#000000" stroke-linecap="round" stroke-linejoin="round" stroke-width="2.0530929595150225"/>
  <path d="M 25.621179429282584, 105.05911949785664 Q 30.980264600351173, 97.8763195136341, 37.81421826050101, 84.17103027077897 " fill="none" id="curve_55" stroke="#000000" stroke-linecap="round" stroke-linejoin="round" stroke-width="2.1911723689066323"/>
  <path d="M 27.868725825302555, 103.09084551724624 Q 31.049495008057555, 96.34660573235095, 35.80517522305409, 86.54360374722982 " fill="none" id="curve_56" stroke="#000000" stroke-linecap="round" stroke-linejoin="round" stroke-width="2.2813908431084977"/>
  <path d="M 30.63907146687302, 96.81780698319017 Q 31.39438351927422, 92.87269793020835, 34.447496202044995, 90.55845319801897 " fill="none" id="curve_84" stroke="#000000" stroke-linecap="round" stroke-linejoin="round" stroke-width="2.6254861847708675"/>
  <path d="M 34.447496202044995, 90.55845319801897 Q 31.117232718383264, 96.1774628575775, 26.240873567061563, 103.27865962277214 " fill="none" id="curve_84" stroke="#000000" stroke-linecap="round" stroke-linejoin="round" stroke-width="2.4613508498941044"/>
  <path d="M 44.06227921069967, 89.02424360763007 Q 44.611204876577965, 88.71007368226819, 45.116990229863234, 87.90245675439533 " fill="none" id="curve_125" stroke="#000000" stroke-linecap="round" stroke-linejoin="round" stroke-width="2.3452833909245827"/>
  <path d="M 43.28123448972008, 66.08544327705795 Q 44.571450281581676, 64.78167732728681, 47.34079972299926, 63.2035463685575 " fill="none" id="curve_140" stroke="#000000" stroke-linecap="round" stroke-linejoin="round" stroke-width="2.455541948803678"/>
</svg>
