<?xml version="1.0" ?>
<svg height="140" width="140" xmlns="http://www.w3.org/2000/svg">
  <path d="M 53.463035583496094, 42.71527099609375 Q 50.464477638241824, 43.36987246036648, 48.901848819236875, 49.58670585849894 " fill="none" id="curve_1" stroke="#000000" stroke-linecap="round" stroke-linejoin="round" stroke-width="8.088092572903811"/>
  <path d="M 48.901848819236875, 49.58670585849894 Q 42.69094911467707, 54.978613569693294, 30.691957383514602, 64.99032309318675 " fill="none" id="curve_1" stroke="#000000" stroke-linecap="round" stroke-linejoin="round" stroke-width="5.804221326245088"/>
  <path d="M 51.487155586403546, 54.73266291773136 Q 48.81552238400412, 59.18603404945232, 47.85474580294201, 87.29829256153893 " fill="none" id="curve_2" stroke="#000000" stroke-linecap="round" stroke-linejoin="round" stroke-width="5.7469335222623394"/>
  <path d="M 47.85474580294201, 87.29829256153893 Q 53.82079295904514, 87.1986986340396, 54.09945091560356, 83.11992496092245 " fill="none" id="curve_2" stroke="#000000" stroke-linecap="round" stroke-linejoin="round" stroke-width="9.174218161137748"/>
  <path d="M 53.37048254488266, 50.51900973284986 Q 53.54836322186991, 44.35937452643333, 54.091656008827805, 41.508413297636764 " fill="none" id="curve_3" stroke="#000000" stroke-linecap="round" stroke-linejoin="round" stroke-width="5.711685029193504"/>
  <path d="M 2.465030355692143, 54.60788254248043 Q 2.3183146216903836, 60.23304087685058, 2.0047262815832747, 90.73130009052772 " fill="none" id="curve_4" stroke="#000000" stroke-linecap="round" stroke-linejoin="round" stroke-width="3.0803196005442275"/>
  <path d="M 2.0047262815832747, 90.73130009052772 Q 2.0251837108093502, 99.61575023744182, 2.1309263218020424, 119.7487689454804 " fill="none" id="curve_4" stroke="#000000" stroke-linecap="round" stroke-linejoin="round" stroke-width="2.9210101287371644"/>
  <path d="M 2.1309263218020424, 119.7487689454804 Q 2.1897579737787924, 137.0685594110474, 4.376756632696056, 137.87997699182984 " fill="none" id="curve_4" stroke="#000000" stroke-linecap="round" stroke-linejoin="round" stroke-width="3.6475051198618895"/>
  <path d="M 4.376756632696056, 137.87997699182984 Q 6.55776243230569, 138.22434971730596, 10.955863361351284, 138.42667324777312 " fill="none" id="curve_4" stroke="#000000" stroke-linecap="round" stroke-linejoin="round" stroke-width="2.8486240466580424"/>
  <path d="M 2.4498473364858206, 138.08641876900202 Q 3.691595077365328, 137.22863386922677, 4.727948135983283, 135.74579074846517 " fill="none" id="curve_5" stroke="#000000" stroke-linecap="round" stroke-linejoin="round" stroke-width="4.467642902555852"/>
  <path d="M 27.789726465050556, 65.69996572290535 Q 32.57703109642278, 62.785400161718925, 42.93848245736509, 59.65472199142517 " fill="none" id="curve_7" stroke="#000000" stroke-linecap="round" stroke-linejoin="round" stroke-width="3.2423905762250516"/>
  <path d="M 2.55695655037033, 52.64668762647466 Q 1.494641210396994, 52.20977569380046, 1.3963163932995348, 33.039548121149096 " fill="none" id="curve_9" stroke="#000000" stroke-linecap="round" stroke-linejoin="round" stroke-width="2.2071433344112426"/>
  <path d="M 1.3963163932995348, 33.039548121149096 Q 1.4591278907860057, 29.239007612939712, 1.5187557434281005, 15.205808659652291 " fill="none" id="curve_9" stroke="#000000" stroke-linecap="round" stroke-linejoin="round" stroke-width="1.6261567802513748"/>
  <path d="M 1.5187557434281005, 15.205808659652291 Q 1.4847551295511674, 9.312699837252348, 1.4208638664968083, 0.8956240832485474 " fill="none" id="curve_9" stroke="#000000" stroke-linecap="round" stroke-linejoin="round" stroke-width="1.7436707940091896"/>
  <path d="M 1.4208638664968083, 0.8956240832485474 Q 1.2715543370347009, 1.1311597375994173, 1.0523712265512746, 1.4763414665128216 " fill="none" id="curve_9" stroke="#000000" stroke-linecap="round" stroke-linejoin="round" stroke-width="1.4487798094341477"/>
  <path d="M 55.448281054892185, 39.710093507807585 Q 49.10761799897301, 41.71858227272637, 44.204516446707494, 50.658817607996056 " fill="none" id="curve_12" stroke="#000000" stroke-linecap="round" stroke-linejoin="round" stroke-width="2.7827842543290644"/>
  <path d="M 56.40038876137956, 79.89604669647177 Q 55.707685649797504, 86.86908651940783, 52.670549861121984, 89.18735087260376 " fill="none" id="curve_14" stroke="#000000" stroke-linecap="round" stroke-linejoin="round" stroke-width="2.7837815385296665"/>
  <path d="M 39.64281287325107, 59.82444286273668 Q 38.834359431474496, 63.466632772778084, 28.31725897596005, 63.93176642769356 " fill="none" id="curve_17" stroke="#000000" stroke-linecap="round" stroke-linejoin="round" stroke-width="4.923593042221497"/>
  <path d="M 52.579871469340134, 64.89350610137255 Q 50.283353076934496, 61.762404715001125, 47.54105553408288, 56.071584510604765 " fill="none" id="curve_18" stroke="#000000" stroke-linecap="round" stroke-linejoin="round" stroke-width="3.0675608786517965"/>
  <path d="M 53.450979345482025, 89.33290447452389 Q 53.73446447465788, 87.51132577957092, 54.19216650083835, 84.26220505057928 " fill="none" id="curve_24" stroke="#000000" stroke-linecap="round" stroke-linejoin="round" stroke-width="4.168143911552483"/>
  <path d="M 1.5010637091657353, 136.52418456125395 Q 1.5756401736808692, 133.1542977196401, 2.6537901837521485, 132.58178155776517 " fill="none" id="curve_29" stroke="#000000" stroke-linecap="round" stroke-linejoin="round" stroke-width="3.0892242132023537"/>
  <path d="M 2.6537901837521485, 132.58178155776517 Q 1.4215064346211879, 132.355777192909, 1.3093574944771722, 120.4496100679508 " fill="none" id="curve_29" stroke="#000000" stroke-linecap="round" stroke-linejoin="round" stroke-width="2.1281492740563834"/>
  <path d="M 2.2727215271241956, 131.838642157564 Q 2.2022877338209192, 133.76196781018467, 2.1155408958894895, 135.6387719742114 " fill="none" id="curve_30" stroke="#000000" stroke-linecap="round" stroke-linejoin="round" stroke-width="3.869170008280639"/>
  <path d="M 34.31503951260354, 65.62787452490531 Q 34.38903398845801, 64.73769289022275, 34.71035783941011, 63.55741392879026 " fill="none" id="curve_33" stroke="#000000" stroke-linecap="round" stroke-linejoin="round" stroke-width="2.637184771130664"/>
  <path d="M 52.59267929452358, 46.75732418008094 Q 53.60326304584378, 45.95016100304708, 54.24398376703915, 43.74527851872169 " fill="none" id="curve_34" stroke="#000000" stroke-linecap="round" stroke-linejoin="round" stroke-width="4.932646021728056"/>
  <path d="M 54.67676675780331, 79.77897531726303 Q 55.487882368673745, 79.69403460280964, 56.07535194103472, 79.46869109677829 " fill="none" id="curve_75" stroke="#000000" stroke-linecap="round" stroke-linejoin="round" stroke-width="3.080767866837584"/>
  <path d="M 47.1666439537081, 70.0410698417324 Q 48.19612227167402, 75.45727193426103, 49.342174566652744, 83.3293769128969 " fill="none" id="curve_76" stroke="#000000" stroke-linecap="round" stroke-linejoin="round" stroke-width="3.2157820729914746"/>
  <path d="M 50.14928040788857, 86.61671347182585 Q 48.88155244081715, 80.16911746789408, 47.053813420337185, 66.36884647534018 " fill="none" id="curve_104" stroke="#000000" stroke-linecap="round" stroke-linejoin="round" stroke-width="2.7762984014217293"/>
  <path d="M 52.01544447769538, 89.08412080674998 Q 51.16550135996517, 89.06758216881991, 50.30799035995645, 89.03305176502258 " fill="none" id="curve_119" stroke="#000000" stroke-linecap="round" stroke-linejoin="round" stroke-width="3.27783859347726"/>
  <path d="M 47.410640063881644, 73.4063639310635 Q 47.976593054979816, 73.709912179436, 48.484961323722125, 74.62041248813927 " fill="none" id="curve_120" stroke="#000000" stroke-linecap="round" stroke-linejoin="round" stroke-width="3.767413866988935"/>
  <path d="M 50.84854795581313, 81.29999964461366 Q 49.15261780065073, 76.9743303227153, 47.31143381317734, 67.63283695357572 " fill="none" id="curve_149" stroke="#000000" stroke-linecap="round" stroke-linejoin="round" stroke-width="2.6950701958444223"/>
</svg>
