<?xml version="1.0" ?>
<svg height="140" width="140" xmlns="http://www.w3.org/2000/svg">
  <path d="M 60.76065397262573, 99.8949203491211 Q 59.90621585180806, 97.17486772815437, 58.65271760886485, 92.757065100398 " fill="none" id="curve_1" stroke="#000000" stroke-linecap="round" stroke-linejoin="round" stroke-width="9.82956416060766"/>
  <path d="M 58.65271760886485, 92.757065100398 Q 57.14089829648736, 87.52963554681273, 55.375099792021665, 73.68592357783663 " fill="none" id="curve_1" stroke="#000000" stroke-linecap="round" stroke-linejoin="round" stroke-width="8.565621798196162"/>
  <path d="M 55.375099792021665, 73.68592357783663 Q 55.58635901166667, 69.49303504685514, 55.73153866718482, 55.024455466260406 " fill="none" id="curve_1" stroke="#000000" stroke-linecap="round" stroke-linejoin="round" stroke-width="11.240421324358882"/>
  <path d="M 51.71191765107476, 75.80169145331031 Q 46.48031069433168, 81.58125794856599, 29.55868363034618, 84.14117074603496 " fill="none" id="curve_2" stroke="#000000" stroke-linecap="round" stroke-linejoin="round" stroke-width="5.97344113397618"/>
  <path d="M 29.55868363034618, 84.14117074603496 Q 27.268024442692887, 83.29336304551234, 25.20531909121972, 82.09141717321279 " fill="none" id="curve_2" stroke="#000000" stroke-linecap="round" stroke-linejoin="round" stroke-width="6.135334186153071"/>
  <path d="M 52.81051065844754, 54.31960170152149 Q 54.27527364725628, 53.662143195475466, 55.45554883979416, 52.523225866258244 " fill="none" id="curve_3" stroke="#000000" stroke-linecap="round" stroke-linejoin="round" stroke-width="7.661915245264952"/>
  <path d="M 36.82354640415422, 84.18175011740786 Q 44.307608665337995, 80.49292916761529, 52.861002866569265, 74.45035338427775 " fill="none" id="curve_5" stroke="#000000" stroke-linecap="round" stroke-linejoin="round" stroke-width="3.4306716378021656"/>
  <path d="M 52.55837957558422, 54.44933882157869 Q 52.72305233118688, 55.08581265460119, 52.79956374144426, 58.49680651969655 " fill="none" id="curve_6" stroke="#000000" stroke-linecap="round" stroke-linejoin="round" stroke-width="6.190244423941417"/>
  <path d="M 53.7006574564418, 51.68213765161047 Q 54.5154317238327, 52.293650151802616, 55.54968044149987, 54.16668768598029 " fill="none" id="curve_7" stroke="#000000" stroke-linecap="round" stroke-linejoin="round" stroke-width="4.1942563795074825"/>
  <path d="M 36.83866413833954, 84.73979661717436 Q 43.42545353761966, 80.03040455251809, 52.79413477239483, 73.66709627503492 " fill="none" id="curve_9" stroke="#000000" stroke-linecap="round" stroke-linejoin="round" stroke-width="3.674914870759262"/>
  <path d="M 50.49932635061389, 54.17969341922333 Q 52.66457783346555, 53.42680835609234, 56.4554596551542, 52.48436720359636 " fill="none" id="curve_10" stroke="#000000" stroke-linecap="round" stroke-linejoin="round" stroke-width="4.477168849013633"/>
  <path d="M 33.63351201508242, 85.39233638281402 Q 41.38489435409016, 81.086850158539, 51.98854179816254, 74.23885411629317 " fill="none" id="curve_12" stroke="#000000" stroke-linecap="round" stroke-linejoin="round" stroke-width="2.8824698845313845"/>
  <path d="M 32.65312214424701, 83.59047133937922 Q 34.297410432005925, 82.02496353165908, 40.83306942463746, 80.6695604730772 " fill="none" id="curve_13" stroke="#000000" stroke-linecap="round" stroke-linejoin="round" stroke-width="3.251857974921451"/>
  <path d="M 54.47304372540623, 53.208852397680765 Q 55.32049069810539, 52.39391521579374, 57.26610727350508, 51.73627171122529 " fill="none" id="curve_17" stroke="#000000" stroke-linecap="round" stroke-linejoin="round" stroke-width="4.319815914794729"/>
  <path d="M 60.24717972195952, 97.02647274816162 Q 61.45383871248226, 97.40332880693897, 62.909690034304376, 98.02124040423669 " fill="none" id="curve_46" stroke="#000000" stroke-linecap="round" stroke-linejoin="round" stroke-width="3.142102735221526"/>
  <path d="M 37.40427017211914, 80.54341125488281 Q 37.08918255046961, 81.79295003797301, 25.982593714132236, 81.89038231277698 " fill="none" id="curve_60" stroke="#000000" stroke-linecap="round" stroke-linejoin="round" stroke-width="3.1022954181403897"/>
  <path d="M 52.74221462441143, 53.57302360514161 Q 53.25086876630285, 52.866546415952655, 54.91586489370928, 52.21244276448462 " fill="none" id="curve_103" stroke="#000000" stroke-linecap="round" stroke-linejoin="round" stroke-width="3.6826264431331923"/>
  <path d="M 54.03234669621939, 52.193507691896514 Q 53.88804564906129, 52.35283526292247, 53.52208289177327, 52.518066529036034 " fill="none" id="curve_107" stroke="#000000" stroke-linecap="round" stroke-linejoin="round" stroke-width="3.8852785544352417"/>
  <path d="M 48.86696734374664, 74.28867482733767 Q 47.34230754377628, 75.30725731774609, 44.782890911309764, 77.4393401027737 " fill="none" id="curve_148" stroke="#000000" stroke-linecap="round" stroke-linejoin="round" stroke-width="3.1648163409049768"/>
</svg>
