<?xml version="1.0" ?>
<svg height="140" width="140" xmlns="http://www.w3.org/2000/svg">
  <path d="M 33.826677322387695, 99.67416000366211 Q 33.41565327485623, 100.15474302240189, 32.347464865517566, 100.96008185714271 " fill="none" id="curve_1" stroke="#000000" stroke-linecap="round" stroke-linejoin="round" stroke-width="6.801708896135546"/>
  <path d="M 32.347464865517566, 100.96008185714271 Q 33.963327195326315, 99.22841799465017, 36.40511857230095, 96.70931138377172 " fill="none" id="curve_1" stroke="#000000" stroke-linecap="round" stroke-linejoin="round" stroke-width="5.666611604591236"/>
  <path d="M 36.40511857230095, 96.70931138377172 Q 39.40757349296324, 88.73627634188864, 50.57122453024867, 75.26896388426856 " fill="none" id="curve_1" stroke="#000000" stroke-linecap="round" stroke-linejoin="round" stroke-width="5.4293452682524075"/>
  <path d="M 50.57122453024867, 75.26896388426856 Q 54.42178366975093, 67.12292577140232, 62.29350905474599, 58.214202915344 " fill="none" id="curve_1" stroke="#000000" stroke-linecap="round" stroke-linejoin="round" stroke-width="7.5581293235604"/>
  <path d="M 62.29350905474599, 58.214202915344 Q 65.4735839121588, 52.06739353638565, 69.55100252014614, 44.338131044137285 " fill="none" id="curve_1" stroke="#000000" stroke-linecap="round" stroke-linejoin="round" stroke-width="5.15766920680496"/>
  <path d="M 69.55100252014614, 44.338131044137285 Q 65.99071756295234, 51.58480237995351, 63.08766578209862, 64.21975121236183 " fill="none" id="curve_1" stroke="#000000" stroke-linecap="round" stroke-linejoin="round" stroke-width="4.866657721301694"/>
  <path d="M 63.08766578209862, 64.21975121236183 Q 60.126184251144025, 67.17922384024313, 59.58782259399065, 97.12158389329313 " fill="none" id="curve_1" stroke="#000000" stroke-linecap="round" stroke-linejoin="round" stroke-width="5.2827327748491015"/>
  <path d="M 38.93213952428027, 99.79994946592937 Q 36.83836921652683, 99.79213602170464, 35.52190854033322, 99.77123029721449 " fill="none" id="curve_2" stroke="#000000" stroke-linecap="round" stroke-linejoin="round" stroke-width="5.626675245664262"/>
  <path d="M 61.75847674750322, 99.20892461676402 Q 60.883232920832995, 97.61382562545379, 59.85220233779097, 94.26866077269109 " fill="none" id="curve_3" stroke="#000000" stroke-linecap="round" stroke-linejoin="round" stroke-width="2.9737768838590095"/>
  <path d="M 59.791332318589156, 74.82603500553998 Q 59.53840316935696, 82.18993229171627, 58.88947223003324, 87.94828225109902 " fill="none" id="curve_4" stroke="#000000" stroke-linecap="round" stroke-linejoin="round" stroke-width="3.0116808260508763"/>
  <path d="M 57.95673685728983, 87.03658708494436 Q 58.97512838774144, 80.41614923061432, 60.84059102392116, 72.4455887274393 " fill="none" id="curve_14" stroke="#000000" stroke-linecap="round" stroke-linejoin="round" stroke-width="3.257822598883846"/>
  <path d="M 51.88368172417664, 74.04953650243718 Q 50.3501940973106, 74.04338487137524, 48.39431534142822, 74.02897419403408 " fill="none" id="curve_20" stroke="#000000" stroke-linecap="round" stroke-linejoin="round" stroke-width="3.490143999193565"/>
  <path d="M 58.44163759263767, 81.70143834130164 Q 58.48772920801597, 79.33572478447894, 58.60580892154011, 77.5101452149077 " fill="none" id="curve_36" stroke="#000000" stroke-linecap="round" stroke-linejoin="round" stroke-width="4.033466775671412"/>
  <path d="M 34.634330384295154, 95.80212785966614 Q 35.92626010872904, 93.14249777489718, 39.251985400717466, 89.48663784691631 " fill="none" id="curve_65" stroke="#000000" stroke-linecap="round" stroke-linejoin="round" stroke-width="2.251280623907115"/>
  <path d="M 36.06485339168706, 99.42199693926568 Q 38.0981173235493, 98.52405044835342, 41.599474218512924, 97.66361957742927 " fill="none" id="curve_112" stroke="#000000" stroke-linecap="round" stroke-linejoin="round" stroke-width="2.5088931031807036"/>
</svg>
