<?xml version="1.0" ?>
<svg height="140" width="140" xmlns="http://www.w3.org/2000/svg">
  <path d="M 47.21422004699707, 48.35214614868164 Q 46.985462522745, 44.83162375771981, 45.364804681170284, 43.646651080505194 " fill="none" id="curve_1" stroke="#000000" stroke-linecap="round" stroke-linejoin="round" stroke-width="5.901262934085183"/>
  <path d="M 45.364804681170284, 43.646651080505194 Q 40.440305437426225, 51.87840289331175, 30.799156259227587, 71.67752883725505 " fill="none" id="curve_1" stroke="#000000" stroke-linecap="round" stroke-linejoin="round" stroke-width="4.383065214336833"/>
  <path d="M 30.799156259227587, 71.67752883725505 Q 30.448775542572715, 78.1299112258434, 28.393540344583883, 79.70172878362914 " fill="none" id="curve_1" stroke="#000000" stroke-linecap="round" stroke-linejoin="round" stroke-width="4.550247367545315"/>
  <path d="M 58.040437145439626, 92.34977442761397 Q 53.70380093565925, 85.87761370109656, 48.69188258449235, 55.3644330239812 " fill="none" id="curve_2" stroke="#000000" stroke-linecap="round" stroke-linejoin="round" stroke-width="5.593157491823026"/>
  <path d="M 48.69188258449235, 55.3644330239812 Q 48.49527937494617, 50.34681074449607, 47.90988582469693, 48.096470112334046 " fill="none" id="curve_2" stroke="#000000" stroke-linecap="round" stroke-linejoin="round" stroke-width="6.241138909163781"/>
  <path d="M 59.40079475723742, 95.35620864650525 Q 59.96552391625659, 97.25970419085026, 60.909398649266464, 99.19450626930686 " fill="none" id="curve_3" stroke="#000000" stroke-linecap="round" stroke-linejoin="round" stroke-width="4.465502162989911"/>
  <path d="M 50.79651663418955, 69.26674293476133 Q 51.20306974232427, 67.7497981280538, 51.34774482741272, 58.15039538717837 " fill="none" id="curve_4" stroke="#000000" stroke-linecap="round" stroke-linejoin="round" stroke-width="3.0349705141632164"/>
  <path d="M 54.623198597119426, 81.57259924791954 Q 53.71301162678038, 69.96084098181987, 48.146335317349724, 65.66125119646922 " fill="none" id="curve_5" stroke="#000000" stroke-linecap="round" stroke-linejoin="round" stroke-width="3.246356800900786"/>
  <path d="M 32.36442041887324, 66.43364763838356 Q 31.873790916226216, 69.11182587584473, 31.35820474327814, 73.27240320230457 " fill="none" id="curve_6" stroke="#000000" stroke-linecap="round" stroke-linejoin="round" stroke-width="5.444636441385224"/>
  <path d="M 49.90507487349755, 72.61651265380583 Q 51.78880225635423, 70.39328211328917, 53.41718218862717, 66.19618002794222 " fill="none" id="curve_35" stroke="#000000" stroke-linecap="round" stroke-linejoin="round" stroke-width="4.221845262374553"/>
  <path d="M 32.87909649958965, 65.33370216291597 Q 31.476197104882978, 69.14296377104333, 29.142565322663604, 74.84183842922077 " fill="none" id="curve_36" stroke="#000000" stroke-linecap="round" stroke-linejoin="round" stroke-width="3.0759969551455124"/>
  <path d="M 48.343214188138234, 55.93475768117298 Q 48.2966542965586, 48.92586381867606, 48.157101283903586, 44.00551782252805 " fill="none" id="curve_51" stroke="#000000" stroke-linecap="round" stroke-linejoin="round" stroke-width="2.962838260093746"/>
  <path d="M 28.11156425904595, 79.44197848248615 Q 28.26555181940416, 77.73870429427072, 28.663618934825205, 75.49912939469965 " fill="none" id="curve_60" stroke="#000000" stroke-linecap="round" stroke-linejoin="round" stroke-width="2.939661668160396"/>
  <path d="M 47.95766767616885, 56.33905510069508 Q 47.82550107740371, 48.0642071602744, 43.70599862480887, 47.273296506076115 " fill="none" id="curve_101" stroke="#000000" stroke-linecap="round" stroke-linejoin="round" stroke-width="3.1553329165157304"/>
  <path d="M 30.633158399400294, 70.11849150674746 Q 31.70662102935258, 67.44348221143183, 33.790470859891634, 63.787562936621185 " fill="none" id="curve_123" stroke="#000000" stroke-linecap="round" stroke-linejoin="round" stroke-width="2.8885765402089003"/>
</svg>
