<?xml version="1.0" ?>
<svg height="140" width="140" xmlns="http://www.w3.org/2000/svg">
  <path d="M 51.61617660522461, 43.34475326538086 Q 49.30821457310445, 47.460274688059606, 45.87929662887092, 55.39581812255358 " fill="none" id="curve_1" stroke="#000000" stroke-linecap="round" stroke-linejoin="round" stroke-width="8.54606483257471"/>
  <path d="M 45.87929662887092, 55.39581812255358 Q 40.272410642453096, 61.5829790426147, 28.16504500010047, 74.4607579032705 " fill="none" id="curve_1" stroke="#000000" stroke-linecap="round" stroke-linejoin="round" stroke-width="4.545805173001571"/>
  <path d="M 28.16504500010047, 74.4607579032705 Q 23.523954605208072, 77.88050584399524, 15.107479204110337, 80.30172008831101 " fill="none" id="curve_1" stroke="#000000" stroke-linecap="round" stroke-linejoin="round" stroke-width="4.115625700394737"/>
  <path d="M 47.948847528375154, 66.86877117271717 Q 48.56808476089094, 65.57407397224064, 49.42222810415504, 60.89037166466721 " fill="none" id="curve_2" stroke="#000000" stroke-linecap="round" stroke-linejoin="round" stroke-width="6.497907085657276"/>
  <path d="M 49.42222810415504, 60.89037166466721 Q 49.041205698572476, 82.86925161695855, 45.6290896257635, 101.20934372553765 " fill="none" id="curve_2" stroke="#000000" stroke-linecap="round" stroke-linejoin="round" stroke-width="5.69336809045162"/>
  <path d="M 45.6290896257635, 101.20934372553765 Q 46.26830252196942, 104.05179910732839, 46.57499702390493, 113.64054434627428 " fill="none" id="curve_2" stroke="#000000" stroke-linecap="round" stroke-linejoin="round" stroke-width="6.1695273938084085"/>
  <path d="M 51.03576744952609, 57.380883121983025 Q 51.88839242695626, 52.085230978196314, 52.81028851803682, 43.40370551135358 " fill="none" id="curve_4" stroke="#000000" stroke-linecap="round" stroke-linejoin="round" stroke-width="3.8301317066405685"/>
  <path d="M 29.085911478412847, 73.1796529552444 Q 23.21903171428803, 73.62321252743784, 21.820468648506512, 77.65516645175752 " fill="none" id="curve_5" stroke="#000000" stroke-linecap="round" stroke-linejoin="round" stroke-width="2.739655412418039"/>
  <path d="M 43.35383153247139, 94.52138227026086 Q 46.67946842663432, 97.6367237277805, 48.370550369448964, 107.83618866315594 " fill="none" id="curve_6" stroke="#000000" stroke-linecap="round" stroke-linejoin="round" stroke-width="2.762264491355979"/>
  <path d="M 48.370550369448964, 107.83618866315594 Q 47.558243891600796, 113.24020318116804, 45.47220200595471, 115.58445985680675 " fill="none" id="curve_6" stroke="#000000" stroke-linecap="round" stroke-linejoin="round" stroke-width="3.3099862848529216"/>
  <path d="M 44.67513790198258, 94.76351450892506 Q 45.49094680430495, 90.06538406075924, 46.27984231833493, 81.5201827616596 " fill="none" id="curve_7" stroke="#000000" stroke-linecap="round" stroke-linejoin="round" stroke-width="3.138242450860246"/>
  <path d="M 46.27984231833493, 81.5201827616596 Q 46.56729351081078, 69.08473187977526, 49.11665285364589, 66.37875966879838 " fill="none" id="curve_7" stroke="#000000" stroke-linecap="round" stroke-linejoin="round" stroke-width="3.4751254076949643"/>
  <path d="M 47.678166749902694, 48.03487115544425 Q 48.61333613698341, 44.61545259241675, 53.8108689202418, 43.655335655792975 " fill="none" id="curve_8" stroke="#000000" stroke-linecap="round" stroke-linejoin="round" stroke-width="3.044185013317293"/>
  <path d="M 16.26594556282491, 78.41455924882598 Q 15.136733365529523, 78.86052209130534, 13.782686465770063, 79.45679513094244 " fill="none" id="curve_11" stroke="#000000" stroke-linecap="round" stroke-linejoin="round" stroke-width="3.4572176631119325"/>
  <path d="M 30.37430987920991, 73.22350279211034 Q 30.133428353323094, 72.83426805866324, 29.772477752118807, 71.91015010837427 " fill="none" id="curve_12" stroke="#000000" stroke-linecap="round" stroke-linejoin="round" stroke-width="3.5891237431679275"/>
  <path d="M 49.097684707239644, 69.71334793582211 Q 50.23908197953108, 68.00121173622075, 51.917783213001634, 65.71260825308997 " fill="none" id="curve_32" stroke="#000000" stroke-linecap="round" stroke-linejoin="round" stroke-width="3.3893517911937097"/>
  <path d="M 49.40921812390479, 92.67295788100786 Q 49.348053886093915, 89.42031363321537, 47.65532794187662, 89.05887630864628 " fill="none" id="curve_60" stroke="#000000" stroke-linecap="round" stroke-linejoin="round" stroke-width="2.473785279286638"/>
  <path d="M 23.741211459830218, 74.91679100133211 Q 28.17242848014999, 73.42203451158393, 33.59824935763251, 71.13286154055548 " fill="none" id="curve_63" stroke="#000000" stroke-linecap="round" stroke-linejoin="round" stroke-width="2.8504776109148207"/>
  <path d="M 50.434520746133785, 80.01199567309777 Q 49.850008604026556, 73.02086800259212, 45.03253960599237, 68.20361442718267 " fill="none" id="curve_117" stroke="#000000" stroke-linecap="round" stroke-linejoin="round" stroke-width="1.789213507447815"/>
</svg>
