<?xml version="1.0" ?>
<svg height="140" width="140" xmlns="http://www.w3.org/2000/svg">
  <path d="M 64.83611798286438, 99.47256803512573 Q 64.2832475598119, 100.61683724182059, 63.84392783628229, 104.2524872403441 " fill="none" id="curve_1" stroke="#000000" stroke-linecap="round" stroke-linejoin="round" stroke-width="7.875643804583726"/>
  <path d="M 63.84392783628229, 104.2524872403441 Q 63.6120383640217, 100.1455682660356, 63.448406905354155, 82.24180041882151 " fill="none" id="curve_1" stroke="#000000" stroke-linecap="round" stroke-linejoin="round" stroke-width="8.826591881698555"/>
  <path d="M 63.448406905354155, 82.24180041882151 Q 63.463966861885154, 75.85728317972216, 63.487324002029396, 48.3532169049653 " fill="none" id="curve_1" stroke="#000000" stroke-linecap="round" stroke-linejoin="round" stroke-width="5.837151017691536"/>
  <path d="M 63.487324002029396, 48.3532169049653 Q 66.90123661160287, 36.113155645835676, 73.55336496867629, 20.813884419187506 " fill="none" id="curve_1" stroke="#000000" stroke-linecap="round" stroke-linejoin="round" stroke-width="5.440135865145541"/>
  <path d="M 73.55336496867629, 20.813884419187506 Q 66.53898680493803, 32.18171078786803, 39.347174545143304, 58.02085556587974 " fill="none" id="curve_1" stroke="#000000" stroke-linecap="round" stroke-linejoin="round" stroke-width="5.796933965273836"/>
  <path d="M 39.347174545143304, 58.02085556587974 Q 32.177800455192596, 66.8825653404357, 18.526895092746667, 74.72428863163239 " fill="none" id="curve_1" stroke="#000000" stroke-linecap="round" stroke-linejoin="round" stroke-width="5.903682831615106"/>
  <path d="M 64.20672611710351, 61.624500723600725 Q 62.77675829251299, 59.01360972182705, 61.17850211345648, 52.674638181086976 " fill="none" id="curve_2" stroke="#000000" stroke-linecap="round" stroke-linejoin="round" stroke-width="3.9330709057754176"/>
  <path d="M 68.0658015562023, 29.585023135753474 Q 69.61852971357503, 24.500938057901934, 73.27129260087099, 21.000899840818466 " fill="none" id="curve_3" stroke="#000000" stroke-linecap="round" stroke-linejoin="round" stroke-width="4.402263710933025"/>
  <path d="M 60.748692837139416, 35.24487177568993 Q 51.531348097506516, 43.547808527159916, 34.599365238104426, 60.40085281784525 " fill="none" id="curve_4" stroke="#000000" stroke-linecap="round" stroke-linejoin="round" stroke-width="3.9972418209824663"/>
  <path d="M 21.0458976055814, 70.3350609576071 Q 23.565376804139746, 68.60841516885479, 27.715493317541274, 67.09189055802923 " fill="none" id="curve_5" stroke="#000000" stroke-linecap="round" stroke-linejoin="round" stroke-width="4.050454264897904"/>
  <path d="M 72.93243429961055, 24.4163728527252 Q 72.79926537709635, 21.668524500473005, 72.07054869657738, 20.86364576977911 " fill="none" id="curve_8" stroke="#000000" stroke-linecap="round" stroke-linejoin="round" stroke-width="6.028236532016172"/>
  <path d="M 73.97998813565178, 21.02849971886815 Q 69.10316703886056, 24.359017485684603, 61.348645002664654, 34.7686772781724 " fill="none" id="curve_14" stroke="#000000" stroke-linecap="round" stroke-linejoin="round" stroke-width="3.4799318808379294"/>
  <path d="M 73.16542754135662, 21.399663339309054 Q 72.40502133821771, 20.991607157918157, 70.33306812578928, 20.62089356700378 " fill="none" id="curve_15" stroke="#000000" stroke-linecap="round" stroke-linejoin="round" stroke-width="4.4791215800144615"/>
  <path d="M 52.507932912778195, 43.337787177016715 Q 56.983803250175946, 38.353338649759046, 66.69512478718241, 32.72752083954777 " fill="none" id="curve_17" stroke="#000000" stroke-linecap="round" stroke-linejoin="round" stroke-width="3.304921433330014"/>
  <path d="M 67.5797641852738, 103.0181226177185 Q 67.16966236366818, 101.82552393116529, 65.14214794655923, 101.26264796798725 " fill="none" id="curve_58" stroke="#000000" stroke-linecap="round" stroke-linejoin="round" stroke-width="2.6883974322617457"/>
  <path d="M 60.47397341442269, 82.16788714045515 Q 60.51989531834343, 95.45101111121897, 60.98716513056826, 97.38797219882915 " fill="none" id="curve_59" stroke="#000000" stroke-linecap="round" stroke-linejoin="round" stroke-width="2.243218466815675"/>
  <path d="M 60.22467987097849, 58.405166669485524 Q 60.606658076506804, 56.06352026498878, 63.07694447469028, 54.78288128550699 " fill="none" id="curve_61" stroke="#000000" stroke-linecap="round" stroke-linejoin="round" stroke-width="2.956102347827458"/>
  <path d="M 47.350356227898615, 49.33241736552602 Q 53.317891353357425, 41.133388172371596, 67.01658861308266, 31.016038593531817 " fill="none" id="curve_70" stroke="#000000" stroke-linecap="round" stroke-linejoin="round" stroke-width="3.280088230470802"/>
  <path d="M 49.088518142700195, 44.37705993652344 Q 59.57639951849063, 43.83602996285853, 62.36288279182281, 34.29609327335015 " fill="none" id="curve_84" stroke="#000000" stroke-linecap="round" stroke-linejoin="round" stroke-width="2.768682228302867"/>
  <path d="M 75.19662426308616, 22.688286965912724 Q 74.73427088493291, 26.464739959114727, 71.0516446056578, 27.661531740931302 " fill="none" id="curve_87" stroke="#000000" stroke-linecap="round" stroke-linejoin="round" stroke-width="3.1572112336458145"/>
  <path d="M 39.948644843185036, 58.66566420465676 Q 49.72916237056729, 52.326830171774084, 61.09552008626387, 34.18017704986349 " fill="none" id="curve_97" stroke="#000000" stroke-linecap="round" stroke-linejoin="round" stroke-width="2.553500445244022"/>
  <path d="M 19.345184093291813, 76.90411972598778 Q 19.45837221509836, 76.20443629124087, 19.692346292314717, 75.1589352214744 " fill="none" id="curve_98" stroke="#000000" stroke-linecap="round" stroke-linejoin="round" stroke-width="2.9464419026290507"/>
  <path d="M 67.20933418323102, 45.632708961066186 Q 66.73907906536644, 45.631036938321344, 65.6105668030337, 45.629036333830044 " fill="none" id="curve_116" stroke="#000000" stroke-linecap="round" stroke-linejoin="round" stroke-width="2.550279566068751"/>
  <path d="M 60.31745177730679, 34.28973203589314 Q 58.563485045102105, 37.41253112793703, 55.36470323054004, 42.86941537057737 " fill="none" id="curve_147" stroke="#000000" stroke-linecap="round" stroke-linejoin="round" stroke-width="2.860671923954313"/>
  <path d="M 55.36470323054004, 42.86941537057737 Q 56.37322116339086, 37.41396577927485, 60.87775033801541, 34.56507751730406 " fill="none" id="curve_147" stroke="#000000" stroke-linecap="round" stroke-linejoin="round" stroke-width="2.855580890573751"/>
</svg>
