<?xml version="1.0" ?>
<svg height="140" width="140" xmlns="http://www.w3.org/2000/svg">
  <path d="M 40.89015579223633, 41.68985557556152 Q 41.68006195684287, 39.10150101341893, 42.757297984845536, 35.48727094193083 " fill="none" id="curve_1" stroke="#000000" stroke-linecap="round" stroke-linejoin="round" stroke-width="5.781498393913676"/>
  <path d="M 42.757297984845536, 35.48727094193083 Q 41.794394567588945, 45.162301521555506, 39.11190606836524, 60.74926995242545 " fill="none" id="curve_1" stroke="#000000" stroke-linecap="round" stroke-linejoin="round" stroke-width="5.21900336435018"/>
  <path d="M 39.11190606836524, 60.74926995242545 Q 33.304218538561365, 68.2277505387469, 27.774616405493493, 82.7959399790958 " fill="none" id="curve_1" stroke="#000000" stroke-linecap="round" stroke-linejoin="round" stroke-width="3.886683880047191"/>
  <path d="M 38.46090489044907, 66.87269115294121 Q 39.234125705674025, 81.96246457582399, 43.456117659381164, 101.39497982356684 " fill="none" id="curve_2" stroke="#000000" stroke-linecap="round" stroke-linejoin="round" stroke-width="4.877463906740812"/>
  <path d="M 43.456117659381164, 101.39497982356684 Q 45.14993915739426, 103.62185900018902, 49.64369770108208, 104.77749245583746 " fill="none" id="curve_2" stroke="#000000" stroke-linecap="round" stroke-linejoin="round" stroke-width="4.6807655016833705"/>
  <path d="M 40.64929646221124, 74.34689642753835 Q 40.739324864914444, 68.7251120947641, 40.875229905625396, 61.41440302263097 " fill="none" id="curve_3" stroke="#000000" stroke-linecap="round" stroke-linejoin="round" stroke-width="3.221397477172976"/>
  <path d="M 38.80952549833393, 84.33099018304173 Q 39.90266674828142, 95.57466662392704, 42.91708311629134, 100.06990543075669 " fill="none" id="curve_4" stroke="#000000" stroke-linecap="round" stroke-linejoin="round" stroke-width="3.45531099753664"/>
  <path d="M 41.148044788650054, 55.353952132612505 Q 40.78886446766218, 48.46171756974812, 40.0609044946476, 39.58274439174824 " fill="none" id="curve_7" stroke="#000000" stroke-linecap="round" stroke-linejoin="round" stroke-width="2.338932312303587"/>
  <path d="M 28.927809956764413, 82.11794118395994 Q 28.75997823378596, 82.84053195127147, 28.337806860216418, 83.65837232622856 " fill="none" id="curve_10" stroke="#000000" stroke-linecap="round" stroke-linejoin="round" stroke-width="2.6859196430724794"/>
  <path d="M 39.99729894180864, 42.21322283920365 Q 40.899957417097205, 46.95686525300665, 41.469391210043746, 59.60550593082627 " fill="none" id="curve_12" stroke="#000000" stroke-linecap="round" stroke-linejoin="round" stroke-width="2.9330822617458656"/>
  <path d="M 39.68895802681993, 86.11382243802066 Q 39.87954670635031, 82.97173127226206, 40.20429201850894, 79.41004421404088 " fill="none" id="curve_13" stroke="#000000" stroke-linecap="round" stroke-linejoin="round" stroke-width="3.6753129350231624"/>
  <path d="M 42.04517582154781, 37.08165407478808 Q 42.396694674662704, 35.647347820945186, 43.177439115814515, 34.104381846468186 " fill="none" id="curve_14" stroke="#000000" stroke-linecap="round" stroke-linejoin="round" stroke-width="2.817688332537157"/>
  <path d="M 39.04214650433709, 85.38519755080702 Q 39.86773350698202, 82.41181699325601, 40.856280451805276, 77.20915576998149 " fill="none" id="curve_17" stroke="#000000" stroke-linecap="round" stroke-linejoin="round" stroke-width="2.611506202292519"/>
  <path d="M 42.2902023123587, 36.834108880571605 Q 42.612210055854135, 35.74180627348589, 43.2154806470159, 34.30795146466933 " fill="none" id="curve_18" stroke="#000000" stroke-linecap="round" stroke-linejoin="round" stroke-width="2.8314421146966686"/>
  <path d="M 31.073756261314657, 76.98264338221952 Q 29.37086819694127, 77.24142301956337, 28.34778768097955, 78.20180697449895 " fill="none" id="curve_33" stroke="#000000" stroke-linecap="round" stroke-linejoin="round" stroke-width="3.8917627303256435"/>
  <path d="M 41.396298349413186, 38.602803096860384 Q 41.95919968209978, 36.35574498691994, 43.34124004496471, 34.56576201666505 " fill="none" id="curve_35" stroke="#000000" stroke-linecap="round" stroke-linejoin="round" stroke-width="3.035758162876281"/>
  <path d="M 42.26793748121441, 34.485712995278504 Q 42.92611972636504, 34.301188919370645, 43.82106216811933, 33.9708208620428 " fill="none" id="curve_53" stroke="#000000" stroke-linecap="round" stroke-linejoin="round" stroke-width="2.4828537592412805"/>
</svg>
