<?xml version="1.0" ?>
<svg height="140" width="140" xmlns="http://www.w3.org/2000/svg">
  <path d="M 64.00777244567871, 32.39462089538574 Q 63.423222979268594, 32.62162389187929, 61.837213762719884, 32.825068419235336 " fill="none" id="curve_1" stroke="#000000" stroke-linecap="round" stroke-linejoin="round" stroke-width="8.496944043591784"/>
  <path d="M 61.837213762719884, 32.825068419235336 Q 58.27450199518797, 43.89694353502204, 52.001343829031654, 57.62335560915248 " fill="none" id="curve_1" stroke="#000000" stroke-linecap="round" stroke-linejoin="round" stroke-width="10.377827477884995"/>
  <path d="M 52.001343829031654, 57.62335560915248 Q 47.37216568480239, 68.89307391359668, 37.62035283452632, 80.05981877692177 " fill="none" id="curve_1" stroke="#000000" stroke-linecap="round" stroke-linejoin="round" stroke-width="15.470411675768434"/>
  <path d="M 37.62035283452632, 80.05981877692177 Q 26.521883027414212, 88.49789290836105, 12.632066812715127, 99.83427827655032 " fill="none" id="curve_1" stroke="#000000" stroke-linecap="round" stroke-linejoin="round" stroke-width="7.018056055526588"/>
  <path d="M 32.365956280623955, 118.38131151616079 Q 38.07565561969251, 103.85274313422596, 49.528580162459335, 74.83933724123096 " fill="none" id="curve_2" stroke="#000000" stroke-linecap="round" stroke-linejoin="round" stroke-width="7.311623170776251"/>
  <path d="M 49.528580162459335, 74.83933724123096 Q 56.78417952755612, 64.09001742579721, 64.78497560425501, 33.24310190860285 " fill="none" id="curve_2" stroke="#000000" stroke-linecap="round" stroke-linejoin="round" stroke-width="3.833977750213832"/>
  <path d="M 64.78497560425501, 33.24310190860285 Q 64.88988851434773, 34.032461252353734, 65.0123088979135, 35.34109602991552 " fill="none" id="curve_2" stroke="#000000" stroke-linecap="round" stroke-linejoin="round" stroke-width="5.766534530481037"/>
  <path d="M 19.069539251268907, 93.03146849695653 Q 13.834602447444784, 93.61232095886545, 12.632387690388057, 98.54989142993391 " fill="none" id="curve_3" stroke="#000000" stroke-linecap="round" stroke-linejoin="round" stroke-width="8.032142160991024"/>
  <path d="M 34.1494250556233, 119.62771102936301 Q 35.629846981925375, 104.09109136181436, 41.43012887577021, 90.0841656083517 " fill="none" id="curve_4" stroke="#000000" stroke-linecap="round" stroke-linejoin="round" stroke-width="4.630100973105779"/>
  <path d="M 32.069683529682735, 118.21768775277967 Q 35.423994986146376, 107.97321825147424, 42.65788455013281, 93.20743945584502 " fill="none" id="curve_5" stroke="#000000" stroke-linecap="round" stroke-linejoin="round" stroke-width="4.179955000388151"/>
  <path d="M 42.65788455013281, 93.20743945584502 Q 36.99040134973679, 101.53449627445471, 32.07462814656833, 117.85572280110439 " fill="none" id="curve_5" stroke="#000000" stroke-linecap="round" stroke-linejoin="round" stroke-width="3.8194823932515356"/>
  <path d="M 32.07462814656833, 117.85572280110439 Q 36.49607657481039, 112.61842671206912, 40.43347634931349, 96.5722500149065 " fill="none" id="curve_5" stroke="#000000" stroke-linecap="round" stroke-linejoin="round" stroke-width="5.20360044256303"/>
  <path d="M 40.43347634931349, 96.5722500149065 Q 35.97248921418171, 101.91263913858968, 33.70580717119691, 117.9242665051706 " fill="none" id="curve_5" stroke="#000000" stroke-linecap="round" stroke-linejoin="round" stroke-width="4.834992565418297"/>
  <path d="M 33.70580717119691, 117.9242665051706 Q 35.94913771949533, 114.5304571955209, 37.94132834700167, 105.20296723771156 " fill="none" id="curve_5" stroke="#000000" stroke-linecap="round" stroke-linejoin="round" stroke-width="6.911224977277296"/>
  <path d="M 16.277703415026796, 102.06153689511461 Q 13.488084534367825, 101.85100143855244, 11.761058564815688, 101.12884685888854 " fill="none" id="curve_6" stroke="#000000" stroke-linecap="round" stroke-linejoin="round" stroke-width="5.72584642757921"/>
  <path d="M 30.864967103634047, 118.00418302908507 Q 30.852299651451492, 116.91774676388114, 30.833810799476616, 115.31295013828785 " fill="none" id="curve_7" stroke="#000000" stroke-linecap="round" stroke-linejoin="round" stroke-width="5.44329515037682"/>
  <path d="M 33.53520040594065, 117.62348185667732 Q 34.2754579043421, 104.55904823560093, 40.038400705457335, 96.57369462805438 " fill="none" id="curve_11" stroke="#000000" stroke-linecap="round" stroke-linejoin="round" stroke-width="3.4886208252268287"/>
  <path d="M 34.211458499919765, 118.32369946666286 Q 33.95971235563216, 115.62007648839541, 33.3715334083216, 112.75255122364409 " fill="none" id="curve_16" stroke="#000000" stroke-linecap="round" stroke-linejoin="round" stroke-width="6.513464376087923"/>
  <path d="M 33.52807619830923, 115.38884559718063 Q 35.88049574595046, 105.61494605388246, 42.38075166314851, 87.05007758025972 " fill="none" id="curve_19" stroke="#000000" stroke-linecap="round" stroke-linejoin="round" stroke-width="3.4972654462046844"/>
  <path d="M 34.5161508678427, 118.98393124862822 Q 35.01178482202527, 105.06418918765203, 38.92740058568878, 97.3453378530959 " fill="none" id="curve_20" stroke="#000000" stroke-linecap="round" stroke-linejoin="round" stroke-width="3.892916110780746"/>
  <path d="M 16.18732215106442, 97.05730729120779 Q 22.329531928207302, 96.45821623690772, 24.628219846114842, 92.10405870517874 " fill="none" id="curve_25" stroke="#000000" stroke-linecap="round" stroke-linejoin="round" stroke-width="5.448687741871441"/>
  <path d="M 38.21366014304958, 109.43273099708777 Q 35.29974744933271, 111.52357190207735, 32.84748197980377, 116.40287897696837 " fill="none" id="curve_26" stroke="#000000" stroke-linecap="round" stroke-linejoin="round" stroke-width="7.927807335604711"/>
  <path d="M 30.549194854565346, 114.3712940284055 Q 32.405456511130346, 114.0049510485697, 35.04130716720177, 112.72850515311542 " fill="none" id="curve_28" stroke="#000000" stroke-linecap="round" stroke-linejoin="round" stroke-width="7.708650111482626"/>
  <path d="M 46.89223921868223, 56.424038621281596 Q 44.68593531053032, 66.45176768247062, 38.59813783795967, 75.33674948421395 " fill="none" id="curve_34" stroke="#000000" stroke-linecap="round" stroke-linejoin="round" stroke-width="3.605709326334402"/>
  <path d="M 32.63794343172447, 118.34883591507813 Q 35.111863724226055, 105.32746160316327, 43.643519036702656, 89.81570809290173 " fill="none" id="curve_36" stroke="#000000" stroke-linecap="round" stroke-linejoin="round" stroke-width="3.7436511074161434"/>
  <path d="M 33.31011073133859, 118.47143877338426 Q 34.0551398934492, 108.36310564772079, 37.194429425022214, 102.21507643142743 " fill="none" id="curve_41" stroke="#000000" stroke-linecap="round" stroke-linejoin="round" stroke-width="4.4893780808768975"/>
  <path d="M 41.04473114013672, 91.98804092407227 Q 40.88361847559877, 100.55715996479059, 39.488936096314546, 104.84805896240186 " fill="none" id="curve_68" stroke="#000000" stroke-linecap="round" stroke-linejoin="round" stroke-width="3.207063900775386"/>
  <path d="M 49.56092440301592, 53.506313070908206 Q 49.69881963010339, 52.83951297075664, 50.12701342923931, 51.74514283707843 " fill="none" id="curve_96" stroke="#000000" stroke-linecap="round" stroke-linejoin="round" stroke-width="2.9698366430931427"/>
  <path d="M 35.145578145980835, 121.36025619506836 Q 36.91101818962205, 116.97853955555244, 39.16113744417885, 107.62172859028806 " fill="none" id="curve_110" stroke="#000000" stroke-linecap="round" stroke-linejoin="round" stroke-width="3.1259598736379575"/>
  <path d="M 39.16113744417885, 107.62172859028806 Q 41.22405525372791, 100.45660982686275, 45.69424963735567, 84.87244629538976 " fill="none" id="curve_110" stroke="#000000" stroke-linecap="round" stroke-linejoin="round" stroke-width="3.9240023569411533"/>
  <path d="M 45.69424963735567, 84.87244629538976 Q 48.443484028762, 82.34437087254122, 50.96946676070223, 78.62740433188988 " fill="none" id="curve_110" stroke="#000000" stroke-linecap="round" stroke-linejoin="round" stroke-width="3.169213173168741"/>
  <path d="M 33.33409786974134, 107.135073325435 Q 31.86100386007373, 110.60168086341294, 30.23880933970627, 114.92913848115127 " fill="none" id="curve_111" stroke="#000000" stroke-linecap="round" stroke-linejoin="round" stroke-width="4.379340114489474"/>
  <path d="M 62.36245080117462, 37.40344991366979 Q 63.54748455317509, 35.41959884988635, 64.77488761009293, 32.25170529433224 " fill="none" id="curve_117" stroke="#000000" stroke-linecap="round" stroke-linejoin="round" stroke-width="4.969884208987329"/>
  <path d="M 65.4613781594243, 37.5985394788338 Q 62.85101985786407, 38.7371154584378, 56.272058892116384, 41.1115797032879 " fill="none" id="curve_132" stroke="#000000" stroke-linecap="round" stroke-linejoin="round" stroke-width="2.471160743322975"/>
  <path d="M 60.87602424621582, 29.946353912353516 Q 63.07978316438816, 30.08118533094027, 64.82711533519975, 30.563770710664834 " fill="none" id="curve_159" stroke="#000000" stroke-linecap="round" stroke-linejoin="round" stroke-width="2.502547819385456"/>
  <path d="M 53.697369381004656, 45.173110308145596 Q 56.1716413488121, 39.258432231210136, 61.61227475695346, 33.66252673276997 " fill="none" id="curve_160" stroke="#000000" stroke-linecap="round" stroke-linejoin="round" stroke-width="3.415588552128113"/>
  <path d="M 44.89799124646168, 63.29105680056712 Q 40.441941914029364, 65.6045387638319, 38.22772575608294, 74.71480917973315 " fill="none" id="curve_161" stroke="#000000" stroke-linecap="round" stroke-linejoin="round" stroke-width="3.5622985691728304"/>
</svg>
