<?xml version="1.0" ?>
<svg height="140" width="140" xmlns="http://www.w3.org/2000/svg">
  <path d="M 48.88546562194824, 105.2711181640625 Q 46.89516707365528, 104.0478738171517, 46.03364983464451, 95.88122839581746 " fill="none" id="curve_1" stroke="#000000" stroke-linecap="round" stroke-linejoin="round" stroke-width="10.3998092489043"/>
  <path d="M 46.03364983464451, 95.88122839581746 Q 45.605104429960555, 92.94324152603149, 45.376833362414956, 79.16063178861114 " fill="none" id="curve_1" stroke="#000000" stroke-linecap="round" stroke-linejoin="round" stroke-width="8.892904489694358"/>
  <path d="M 45.376833362414956, 79.16063178861114 Q 44.92689582550063, 71.21462720142767, 44.11566205475933, 46.036969363264205 " fill="none" id="curve_1" stroke="#000000" stroke-linecap="round" stroke-linejoin="round" stroke-width="6.8485735379020225"/>
  <path d="M 44.11566205475933, 46.036969363264205 Q 43.99979574387938, 40.42615231977655, 43.74670831641695, 36.522846788762514 " fill="none" id="curve_1" stroke="#000000" stroke-linecap="round" stroke-linejoin="round" stroke-width="8.45078019001671"/>
  <path d="M 48.67946848184125, 106.49197961330765 Q 48.541741092979954, 106.42293184840779, 48.42025171001055, 106.30814419040804 " fill="none" id="curve_3" stroke="#000000" stroke-linecap="round" stroke-linejoin="round" stroke-width="8.54852288459173"/>
  <path d="M 48.42025171001055, 106.30814419040804 Q 47.95014880168672, 105.56564205348967, 47.499011867316305, 104.25364282584567 " fill="none" id="curve_3" stroke="#000000" stroke-linecap="round" stroke-linejoin="round" stroke-width="7.038209421523599"/>
  <path d="M 42.421761565478384, 59.90700450396915 Q 43.067321951263224, 57.94012101112638, 43.39614776767972, 45.50025649031214 " fill="none" id="curve_4" stroke="#000000" stroke-linecap="round" stroke-linejoin="round" stroke-width="3.1590034662626505"/>
  <path d="M 44.66854318829178, 33.80230081523716 Q 43.84106668097492, 33.973581177476945, 42.70992668807725, 34.20361699275752 " fill="none" id="curve_19" stroke="#000000" stroke-linecap="round" stroke-linejoin="round" stroke-width="3.622359371016696"/>
  <path d="M 41.898198901188735, 61.62127315767515 Q 42.35103718678901, 58.39937093125983, 42.84006233491041, 51.80423525021712 " fill="none" id="curve_20" stroke="#000000" stroke-linecap="round" stroke-linejoin="round" stroke-width="3.159016133761582"/>
  <path d="M 51.05633108374627, 100.7776188208349 Q 50.03731565453923, 102.82174247319779, 45.63600684757704, 103.41890977873116 " fill="none" id="curve_35" stroke="#000000" stroke-linecap="round" stroke-linejoin="round" stroke-width="5.266148275251068"/>
</svg>
