<?xml version="1.0" ?>
<svg height="140" width="140" xmlns="http://www.w3.org/2000/svg">
  <path d="M 58.685916900634766, 36.50531780719757 Q 54.86779140944582, 36.805771874435045, 51.85074492998308, 39.35108617257117 " fill="none" id="curve_1" stroke="#000000" stroke-linecap="round" stroke-linejoin="round" stroke-width="5.562585612197489"/>
  <path d="M 51.85074492998308, 39.35108617257117 Q 46.525492431648665, 47.3078285374038, 32.34216403929796, 64.22829956192747 " fill="none" id="curve_1" stroke="#000000" stroke-linecap="round" stroke-linejoin="round" stroke-width="5.770866449334582"/>
  <path d="M 32.34216403929796, 64.22829956192747 Q 26.514156081622076, 73.06980694189687, 9.574796832152604, 94.71870723792526 " fill="none" id="curve_1" stroke="#000000" stroke-linecap="round" stroke-linejoin="round" stroke-width="6.357761155995699"/>
  <path d="M 9.574796832152604, 94.71870723792526 Q 9.695765032697583, 96.74059341464901, 10.670309484730357, 97.14419054988947 " fill="none" id="curve_1" stroke="#000000" stroke-linecap="round" stroke-linejoin="round" stroke-width="5.844939606151111"/>
  <path d="M 61.35629120325598, 92.14874474204102 Q 58.07091153663911, 90.42722091314565, 57.36458953101118, 58.31596600319117 " fill="none" id="curve_2" stroke="#000000" stroke-linecap="round" stroke-linejoin="round" stroke-width="4.974757838773276"/>
  <path d="M 57.36458953101118, 58.31596600319117 Q 58.592974921892115, 57.266173181923584, 58.749392033738694, 39.93614782260978 " fill="none" id="curve_2" stroke="#000000" stroke-linecap="round" stroke-linejoin="round" stroke-width="7.302400163671166"/>
  <path d="M 58.749392033738694, 39.93614782260978 Q 58.60011855400524, 35.84987615022489, 55.85402802868296, 35.4586131975599 " fill="none" id="curve_2" stroke="#000000" stroke-linecap="round" stroke-linejoin="round" stroke-width="4.382291107156578"/>
  <path d="M 58.27455132339781, 60.554391935400886 Q 58.38881221657027, 66.35365268581312, 58.45538549803315, 89.55753451173612 " fill="none" id="curve_3" stroke="#000000" stroke-linecap="round" stroke-linejoin="round" stroke-width="2.5045562754328246"/>
  <path d="M 58.45538549803315, 89.55753451173612 Q 59.23712861081463, 92.31951269589221, 60.915673734302196, 94.42181104357473 " fill="none" id="curve_3" stroke="#000000" stroke-linecap="round" stroke-linejoin="round" stroke-width="3.8691596324159327"/>
  <path d="M 24.81806556838368, 69.55267361240384 Q 19.99698666353391, 79.72559889319272, 9.131628345145666, 91.01599032900188 " fill="none" id="curve_4" stroke="#000000" stroke-linecap="round" stroke-linejoin="round" stroke-width="3.2335841938679626"/>
  <path d="M 9.131628345145666, 91.01599032900188 Q 9.922872519790776, 94.29450064746081, 12.954228759333084, 95.5081837300919 " fill="none" id="curve_4" stroke="#000000" stroke-linecap="round" stroke-linejoin="round" stroke-width="5.36908805883702"/>
  <path d="M 56.60783740178138, 72.0985620501406 Q 56.866197066001554, 55.617138353367714, 59.75571018114619, 51.52530252016178 " fill="none" id="curve_8" stroke="#000000" stroke-linecap="round" stroke-linejoin="round" stroke-width="3.0457527401105753"/>
  <path d="M 54.29218213458779, 37.359176045318364 Q 58.27065640756652, 40.22383002642878, 61.74900673360999, 45.54093471636967 " fill="none" id="curve_14" stroke="#000000" stroke-linecap="round" stroke-linejoin="round" stroke-width="3.230403553537579"/>
  <path d="M 53.29323337230418, 38.466514616190025 Q 45.96013213388354, 43.791179364793926, 36.2235325915842, 57.87628072485241 " fill="none" id="curve_15" stroke="#000000" stroke-linecap="round" stroke-linejoin="round" stroke-width="2.946002364245343"/>
  <path d="M 36.2235325915842, 57.87628072485241 Q 30.482253541913884, 62.87073068340676, 24.862289096948544, 71.46634386083743 " fill="none" id="curve_15" stroke="#000000" stroke-linecap="round" stroke-linejoin="round" stroke-width="3.2981945652489806"/>
  <path d="M 56.43159580938743, 81.714675661926 Q 56.26314104919321, 78.416316905215, 56.17921572552155, 61.21821681540416 " fill="none" id="curve_16" stroke="#000000" stroke-linecap="round" stroke-linejoin="round" stroke-width="2.446599489926577"/>
  <path d="M 56.17921572552155, 61.21821681540416 Q 56.26901763446098, 56.661767754988205, 56.799264326635274, 55.32339656402583 " fill="none" id="curve_16" stroke="#000000" stroke-linecap="round" stroke-linejoin="round" stroke-width="3.8795148496858447"/>
  <path d="M 55.4305104416694, 35.553435194142175 Q 53.7179774087862, 36.12625199399502, 51.75272146700702, 37.12021517545871 " fill="none" id="curve_17" stroke="#000000" stroke-linecap="round" stroke-linejoin="round" stroke-width="3.7314513653723167"/>
  <path d="M 56.36375259341074, 58.372215024801044 Q 56.30964810895864, 58.17140089781313, 56.2620447552875, 57.53210601234181 " fill="none" id="curve_19" stroke="#000000" stroke-linecap="round" stroke-linejoin="round" stroke-width="3.790097385676689"/>
  <path d="M 47.70908514895949, 42.12642622041323 Q 46.90286504909057, 42.735229961268935, 46.039921886633735, 44.21297095212263 " fill="none" id="curve_24" stroke="#000000" stroke-linecap="round" stroke-linejoin="round" stroke-width="3.6362201988611607"/>
  <path d="M 8.003098366770066, 96.18922614582998 Q 9.26827020738859, 93.90326118074798, 11.23570696399385, 89.51960634565127 " fill="none" id="curve_31" stroke="#000000" stroke-linecap="round" stroke-linejoin="round" stroke-width="2.79092450629082"/>
  <path d="M 14.624644804790847, 83.51701602434328 Q 13.954106932268218, 84.37198857471284, 13.03542950430403, 85.66113783812492 " fill="none" id="curve_33" stroke="#000000" stroke-linecap="round" stroke-linejoin="round" stroke-width="3.690705440030427"/>
  <path d="M 7.658565657363887, 95.07986828999535 Q 7.814773180257645, 94.65230281353364, 8.041635841034312, 94.0072395901041 " fill="none" id="curve_64" stroke="#000000" stroke-linecap="round" stroke-linejoin="round" stroke-width="3.1086283464997666"/>
  <path d="M 56.3388349363413, 67.56222708356472 Q 56.30880063590178, 56.309861500451774, 56.14065069879538, 49.327927575726335 " fill="none" id="curve_105" stroke="#000000" stroke-linecap="round" stroke-linejoin="round" stroke-width="1.850290546438791"/>
  <path d="M 55.59342592190448, 65.84468480248988 Q 56.26880004182683, 60.01659079469061, 57.63242209737942, 55.318386868209046 " fill="none" id="curve_162" stroke="#000000" stroke-linecap="round" stroke-linejoin="round" stroke-width="3.4396894832245657"/>
</svg>
