<?xml version="1.0" ?>
<svg height="140" width="140" xmlns="http://www.w3.org/2000/svg">
  <path d="M 17.423294067382812, 84.88238906860352 Q 15.237185446697097, 85.13832116233013, 13.450157689803916, 85.81414943119815 " fill="none" id="curve_1" stroke="#000000" stroke-linecap="round" stroke-linejoin="round" stroke-width="5.144572293511168"/>
  <path d="M 13.450157689803916, 85.81414943119815 Q 23.74525951775762, 85.33551061773792, 27.193838660601127, 80.6821951404697 " fill="none" id="curve_1" stroke="#000000" stroke-linecap="round" stroke-linejoin="round" stroke-width="5.244469695907901"/>
  <path d="M 27.193838660601127, 80.6821951404697 Q 37.46720177927024, 75.9935763861904, 50.99241385201016, 57.68699151050058 " fill="none" id="curve_1" stroke="#000000" stroke-linecap="round" stroke-linejoin="round" stroke-width="5.965381086945395"/>
  <path d="M 50.99241385201016, 57.68699151050058 Q 56.63895419536419, 51.979275172008585, 61.843543553605066, 35.96537601114301 " fill="none" id="curve_1" stroke="#000000" stroke-linecap="round" stroke-linejoin="round" stroke-width="5.027610613371917"/>
  <path d="M 61.843543553605066, 35.96537601114301 Q 60.05083404779316, 44.75351155825008, 57.54084152073131, 66.07894559307721 " fill="none" id="curve_1" stroke="#000000" stroke-linecap="round" stroke-linejoin="round" stroke-width="4.250567743890801"/>
  <path d="M 57.54084152073131, 66.07894559307721 Q 58.66219919123606, 83.31282107871256, 61.49313064693203, 91.05511294906678 " fill="none" id="curve_1" stroke="#000000" stroke-linecap="round" stroke-linejoin="round" stroke-width="5.505032303146316"/>
  <path d="M 61.49313064693203, 91.05511294906678 Q 58.09159105595504, 86.37314882580284, 55.878190004924065, 68.95193192602584 " fill="none" id="curve_1" stroke="#000000" stroke-linecap="round" stroke-linejoin="round" stroke-width="2.7489823585110003"/>
  <path d="M 36.797134065045285, 71.67337549316387 Q 33.43164614363482, 76.19520056579687, 26.739207902493902, 80.45250904575819 " fill="none" id="curve_2" stroke="#000000" stroke-linecap="round" stroke-linejoin="round" stroke-width="3.7045555842348903"/>
  <path d="M 63.42272442355223, 89.44853466319887 Q 62.94543703034932, 88.70372708836862, 62.33390388875325, 87.52424229424228 " fill="none" id="curve_3" stroke="#000000" stroke-linecap="round" stroke-linejoin="round" stroke-width="4.433133555727367"/>
  <path d="M 38.99435170736669, 67.57265986941128 Q 38.671653257316166, 69.77464805420345, 37.837142557482736, 71.56598653903102 " fill="none" id="curve_4" stroke="#000000" stroke-linecap="round" stroke-linejoin="round" stroke-width="3.0920330701368988"/>
  <path d="M 58.05552826278232, 68.37825051399409 Q 58.53662637818296, 67.37800017689074, 58.88306396680646, 64.13159641169258 " fill="none" id="curve_24" stroke="#000000" stroke-linecap="round" stroke-linejoin="round" stroke-width="4.202255102208404"/>
  <path d="M 61.01807554284278, 37.33414371924869 Q 58.022838528294244, 43.51203729280113, 52.75976818021647, 53.52575117040124 " fill="none" id="curve_39" stroke="#000000" stroke-linecap="round" stroke-linejoin="round" stroke-width="2.480285255519138"/>
  <path d="M 60.585249036685596, 76.25367642906974 Q 59.74455765463225, 77.57428814362241, 58.774773135958995, 80.0472574429675 " fill="none" id="curve_55" stroke="#000000" stroke-linecap="round" stroke-linejoin="round" stroke-width="3.1895558873393557"/>
  <path d="M 26.310386021020115, 80.71701410647766 Q 23.71992404173721, 81.93650990350402, 20.931373507699917, 83.85671254400597 " fill="none" id="curve_56" stroke="#000000" stroke-linecap="round" stroke-linejoin="round" stroke-width="3.7390423722054713"/>
  <path d="M 52.50653193202652, 54.88547284104506 Q 51.696595468783265, 55.570539111956265, 49.41893175213308, 56.48257109410944 " fill="none" id="curve_72" stroke="#000000" stroke-linecap="round" stroke-linejoin="round" stroke-width="3.1823220368654095"/>
  <path d="M 61.02228217974837, 36.92176203157848 Q 60.44228515876766, 37.13010789486779, 59.62244839200454, 37.46875087411208 " fill="none" id="curve_75" stroke="#000000" stroke-linecap="round" stroke-linejoin="round" stroke-width="3.488317723392502"/>
  <path d="M 41.398256651469104, 67.247581663737 Q 46.03694269909495, 62.44099229332179, 54.10419034832796, 56.17606080382312 " fill="none" id="curve_91" stroke="#000000" stroke-linecap="round" stroke-linejoin="round" stroke-width="2.3113872462836476"/>
</svg>
