<?xml version="1.0" ?>
<svg height="140" width="140" xmlns="http://www.w3.org/2000/svg">
  <path d="M 60.505711686253434, 50.68582221109661 Q 61.79908163260792, 47.792631878530216, 63.35433849673166, 41.920550983645676 " fill="none" id="curve_4" stroke="#000000" stroke-linecap="round" stroke-linejoin="round" stroke-width="5.750107127751222"/>
  <path d="M 63.35433849673166, 41.920550983645676 Q 56.83774179017429, 49.86484762180892, 34.56167678834008, 77.17020734645315 " fill="none" id="curve_4" stroke="#000000" stroke-linecap="round" stroke-linejoin="round" stroke-width="4.2757708915638695"/>
  <path d="M 41.23159141574462, 96.85546807180431 Q 45.133559406087144, 86.99887979948971, 54.7854371059406, 63.652995392621 " fill="none" id="curve_5" stroke="#000000" stroke-linecap="round" stroke-linejoin="round" stroke-width="5.683019868487776"/>
  <path d="M 54.7854371059406, 63.652995392621 Q 58.313113058883765, 58.21769293608015, 61.510343312297806, 48.242121968973606 " fill="none" id="curve_5" stroke="#000000" stroke-linecap="round" stroke-linejoin="round" stroke-width="4.221709260975974"/>
  <path d="M 32.77896513143597, 78.41354349435088 Q 32.53926583775163, 79.71068241753764, 31.87661243789604, 80.36766087011384 " fill="none" id="curve_6" stroke="#000000" stroke-linecap="round" stroke-linejoin="round" stroke-width="5.806529499703665"/>
  <path d="M 51.004699775242436, 70.32121113751757 Q 47.05289072248962, 78.11971905825587, 43.28667439776674, 90.06126606712989 " fill="none" id="curve_7" stroke="#000000" stroke-linecap="round" stroke-linejoin="round" stroke-width="3.2266774752309604"/>
  <path d="M 30.90609406654996, 78.87286513184262 Q 32.05551236438133, 77.61627261554011, 33.4031506763647, 75.43917727718525 " fill="none" id="curve_8" stroke="#000000" stroke-linecap="round" stroke-linejoin="round" stroke-width="2.7870842999344903"/>
  <path d="M 63.65559544619559, 47.189261203815136 Q 63.746334273299176, 43.5018663639243, 63.95150365416562, 40.55523982024591 " fill="none" id="curve_9" stroke="#000000" stroke-linecap="round" stroke-linejoin="round" stroke-width="3.7064964414184858"/>
  <path d="M 61.32124077144158, 43.30318900035934 Q 62.30667823349836, 41.18421141420558, 65.07472377706148, 39.886524152164064 " fill="none" id="curve_24" stroke="#000000" stroke-linecap="round" stroke-linejoin="round" stroke-width="2.997954399494227"/>
  <path d="M 52.15486801366496, 58.641325949400084 Q 46.10047231921262, 62.19347056859483, 38.7037827077544, 69.83957571054263 " fill="none" id="curve_39" stroke="#000000" stroke-linecap="round" stroke-linejoin="round" stroke-width="2.595896441903657"/>
  <path d="M 38.7037827077544, 69.83957571054263 Q 41.22940600857149, 66.63341901581498, 47.525858328235074, 64.58076997228774 " fill="none" id="curve_39" stroke="#000000" stroke-linecap="round" stroke-linejoin="round" stroke-width="2.2854623398582814"/>
  <path d="M 52.368626723392026, 68.60948732010502 Q 52.927206605442365, 68.5487723725124, 53.533245569573594, 68.44415179477123 " fill="none" id="curve_107" stroke="#000000" stroke-linecap="round" stroke-linejoin="round" stroke-width="4.08991731804224"/>
</svg>
