<?xml version="1.0" ?>
<svg height="140" width="140" xmlns="http://www.w3.org/2000/svg">
  <path d="M 57.97797393798828, 48.34464740753174 Q 57.980573398194565, 48.2493763094639, 57.98233726182502, 47.91740588950957 " fill="none" id="curve_1" stroke="#000000" stroke-linecap="round" stroke-linejoin="round" stroke-width="6.355809093606655"/>
  <path d="M 57.98233726182502, 47.91740588950957 Q 56.851584754629236, 57.24674706893862, 54.73638494435493, 65.99367088204798 " fill="none" id="curve_1" stroke="#000000" stroke-linecap="round" stroke-linejoin="round" stroke-width="8.156317975879562"/>
  <path d="M 54.73638494435493, 65.99367088204798 Q 48.693806796744404, 74.7845122961192, 27.249631952503687, 96.59939136536562 " fill="none" id="curve_1" stroke="#000000" stroke-linecap="round" stroke-linejoin="round" stroke-width="3.5432898183436836"/>
  <path d="M 27.249631952503687, 96.59939136536562 Q 21.329067881255117, 100.82911885898505, 16.68497186122498, 107.48607428949433 " fill="none" id="curve_1" stroke="#000000" stroke-linecap="round" stroke-linejoin="round" stroke-width="5.007601853082947"/>
  <path d="M 56.597669437993325, 83.87966112031212 Q 60.92893826970702, 89.15488469872092, 63.563495406757546, 102.98329750172351 " fill="none" id="curve_2" stroke="#000000" stroke-linecap="round" stroke-linejoin="round" stroke-width="4.7085271347522"/>
  <path d="M 56.60245341082755, 81.39435071781526 Q 56.59833840072591, 76.36781918678696, 56.59413532776597, 67.75651864982075 " fill="none" id="curve_3" stroke="#000000" stroke-linecap="round" stroke-linejoin="round" stroke-width="4.862149464267419"/>
  <path d="M 66.42970254886606, 102.12372215521773 Q 66.34079575030249, 102.43600954267356, 66.18781054074019, 102.77065146848038 " fill="none" id="curve_4" stroke="#000000" stroke-linecap="round" stroke-linejoin="round" stroke-width="4.0525077253712585"/>
  <path d="M 57.57566215279716, 83.32633680802613 Q 59.36510593244801, 87.84092207103751, 60.55608638399712, 98.22432560927672 " fill="none" id="curve_5" stroke="#000000" stroke-linecap="round" stroke-linejoin="round" stroke-width="3.1354110647697473"/>
  <path d="M 34.54588478148389, 88.97424434330034 Q 29.58364951813003, 94.79980367593602, 18.458525819464352, 101.90148490093715 " fill="none" id="curve_6" stroke="#000000" stroke-linecap="round" stroke-linejoin="round" stroke-width="2.6688481714260512"/>
  <path d="M 57.78402587354324, 91.04511386568763 Q 57.86765678572895, 84.81829459486035, 58.09973268277246, 78.43498760355695 " fill="none" id="curve_7" stroke="#000000" stroke-linecap="round" stroke-linejoin="round" stroke-width="2.89138969230314"/>
  <path d="M 58.63832478565797, 61.84171024771354 Q 58.58520985771629, 59.60192812448774, 58.466134618588114, 58.172596925964626 " fill="none" id="curve_8" stroke="#000000" stroke-linecap="round" stroke-linejoin="round" stroke-width="3.6853339278596016"/>
  <path d="M 27.382323876677326, 94.68091829172019 Q 32.75000179255673, 92.60329438846327, 36.4012077458582, 87.94082330054552 " fill="none" id="curve_14" stroke="#000000" stroke-linecap="round" stroke-linejoin="round" stroke-width="3.504160182803057"/>
  <path d="M 20.484593927653982, 103.99785675060144 Q 17.488611200405323, 105.04275122473354, 15.541104919317064, 107.85830145077519 " fill="none" id="curve_18" stroke="#000000" stroke-linecap="round" stroke-linejoin="round" stroke-width="4.146267407602523"/>
  <path d="M 59.264887809896756, 79.87643442974709 Q 59.44120487772486, 84.17087960420591, 60.09902301641336, 86.5779901452298 " fill="none" id="curve_19" stroke="#000000" stroke-linecap="round" stroke-linejoin="round" stroke-width="3.286776114203385"/>
  <path d="M 54.6140921228929, 78.28501375123625 Q 55.33649540399178, 77.18400556649351, 55.95257606573446, 73.35409879766802 " fill="none" id="curve_27" stroke="#000000" stroke-linecap="round" stroke-linejoin="round" stroke-width="3.371593405297641"/>
  <path d="M 1.800655519888867, 138.26907195191794 Q 1.5158208247429756, 137.9450126324748, 0.9894703502549985, 137.38703484844908 " fill="none" id="curve_30" stroke="#000000" stroke-linecap="round" stroke-linejoin="round" stroke-width="2.2853267382948643"/>
  <path d="M 58.0511950679001, 87.97467150765662 Q 58.17251510108435, 94.01408088868905, 59.52496565689921, 95.39552019040485 " fill="none" id="curve_33" stroke="#000000" stroke-linecap="round" stroke-linejoin="round" stroke-width="2.5549849314588147"/>
  <path d="M 58.21910821012637, 65.44295851639319 Q 57.59265453488084, 64.2154872968394, 54.84731950517389, 63.660433427566865 " fill="none" id="curve_35" stroke="#000000" stroke-linecap="round" stroke-linejoin="round" stroke-width="3.613879536968242"/>
  <path d="M 37.439449310302734, 83.82063579559326 Q 35.796898304291794, 89.38714612383926, 29.364022303538043, 93.01439137732541 " fill="none" id="curve_49" stroke="#000000" stroke-linecap="round" stroke-linejoin="round" stroke-width="3.139642215116266"/>
  <path d="M 29.364022303538043, 93.01439137732541 Q 32.10094535712023, 89.01890824463158, 39.14890910220031, 85.09281509260882 " fill="none" id="curve_49" stroke="#000000" stroke-linecap="round" stroke-linejoin="round" stroke-width="2.0856230706903185"/>
  <path d="M 51.527326354364305, 66.32572210996148 Q 48.48745676117642, 69.06314113930856, 44.37566512172211, 76.42605524962146 " fill="none" id="curve_129" stroke="#000000" stroke-linecap="round" stroke-linejoin="round" stroke-width="2.015691232336873"/>
  <path d="M 23.191759335051902, 98.77892583364948 Q 21.752563811933996, 103.811981078145, 18.130766290163027, 106.40133179410391 " fill="none" id="curve_130" stroke="#000000" stroke-linecap="round" stroke-linejoin="round" stroke-width="3.747297575123914"/>
  <path d="M 54.33272611629161, 72.54855014687121 Q 54.447753715312196, 75.30751734571015, 54.780951180460306, 77.01641699825545 " fill="none" id="curve_158" stroke="#000000" stroke-linecap="round" stroke-linejoin="round" stroke-width="2.060446266179351"/>
  <path d="M 58.703456607469384, 51.39312732086392 Q 58.960015133830126, 50.50253545011934, 59.53291714458692, 49.98397512706166 " fill="none" id="curve_160" stroke="#000000" stroke-linecap="round" stroke-linejoin="round" stroke-width="3.885716986103308"/>
</svg>
