<?xml version="1.0" ?>
<svg height="140" width="140" xmlns="http://www.w3.org/2000/svg">
  <path d="M 51.02665042877197, 101.15565299987793 Q 49.548662097573704, 100.30024362500458, 49.180364831852955, 91.08606441721349 " fill="none" id="curve_1" stroke="#000000" stroke-linecap="round" stroke-linejoin="round" stroke-width="8.755419387625807"/>
  <path d="M 49.180364831852955, 91.08606441721349 Q 49.07580880453406, 86.19295392317991, 48.98363219794155, 69.07251720555637 " fill="none" id="curve_1" stroke="#000000" stroke-linecap="round" stroke-linejoin="round" stroke-width="7.029789599862798"/>
  <path d="M 48.98363219794155, 69.07251720555637 Q 49.04564583097901, 61.09477713568885, 49.12247965199582, 39.55811261244152 " fill="none" id="curve_1" stroke="#000000" stroke-linecap="round" stroke-linejoin="round" stroke-width="6.2984516319212505"/>
  <path d="M 49.12247965199582, 39.55811261244152 Q 48.88651754352163, 38.852330646614504, 48.41109666790334, 38.281369551138255 " fill="none" id="curve_1" stroke="#000000" stroke-linecap="round" stroke-linejoin="round" stroke-width="3.734470845621265"/>
  <path d="M 50.058860920206996, 100.32818278527932 Q 49.97074776905147, 102.3398025960538, 49.35606169376175, 103.04671577794072 " fill="none" id="curve_2" stroke="#000000" stroke-linecap="round" stroke-linejoin="round" stroke-width="3.635556695476176"/>
  <path d="M 50.82089780931301, 103.29482250305864 Q 49.84023996459391, 102.54662771593449, 48.481907446649096, 101.56214285556298 " fill="none" id="curve_10" stroke="#000000" stroke-linecap="round" stroke-linejoin="round" stroke-width="4.7046799665107555"/>
  <path d="M 47.98649223479906, 63.0241205996812 Q 47.752316531235735, 57.33453095269136, 47.43797983037227, 46.13242871922394 " fill="none" id="curve_11" stroke="#000000" stroke-linecap="round" stroke-linejoin="round" stroke-width="3.0662411323619194"/>
  <path d="M 47.43797983037227, 46.13242871922394 Q 47.368677450272585, 57.014683036088925, 47.23246535877812, 65.79207988406053 " fill="none" id="curve_11" stroke="#000000" stroke-linecap="round" stroke-linejoin="round" stroke-width="3.2731741419195712"/>
  <path d="M 48.21437833616486, 76.60448135108572 Q 47.30327595100407, 77.51832579010693, 46.67110591011024, 80.35808515935709 " fill="none" id="curve_13" stroke="#000000" stroke-linecap="round" stroke-linejoin="round" stroke-width="3.3964908487033045"/>
  <path d="M 47.66328269010796, 38.854320038301374 Q 47.945495579192674, 38.08693241311462, 48.49531773588652, 37.13562289731017 " fill="none" id="curve_14" stroke="#000000" stroke-linecap="round" stroke-linejoin="round" stroke-width="2.777087776560395"/>
  <path d="M 47.94109345719846, 98.15949402234568 Q 48.00059712547061, 99.17876448296376, 48.14354473886066, 100.2712419332866 " fill="none" id="curve_25" stroke="#000000" stroke-linecap="round" stroke-linejoin="round" stroke-width="2.8670863589097975"/>
  <path d="M 47.46228860922773, 77.37313332707575 Q 47.106974695464146, 77.01653981826253, 46.53810565701474, 76.52074957162999 " fill="none" id="curve_109" stroke="#000000" stroke-linecap="round" stroke-linejoin="round" stroke-width="3.414325361470744"/>
</svg>
