<?xml version="1.0" ?>
<svg height="140" width="140" xmlns="http://www.w3.org/2000/svg">
  <path d="M 71.59749984741211, 47.91539001464844 Q 72.17580051075134, 38.43899868853188, 76.90606920913623, 32.459878307071115 " fill="none" id="curve_1" stroke="#000000" stroke-linecap="round" stroke-linejoin="round" stroke-width="7.4180602075677395"/>
  <path d="M 76.90606920913623, 32.459878307071115 Q 69.78618477279252, 37.355324830203294, 59.66937171478581, 47.9527233388521 " fill="none" id="curve_1" stroke="#000000" stroke-linecap="round" stroke-linejoin="round" stroke-width="5.21970275303721"/>
  <path d="M 59.66937171478581, 47.9527233388521 Q 53.044710047196496, 55.61456814288266, 40.58829656923075, 65.24716188102154 " fill="none" id="curve_1" stroke="#000000" stroke-linecap="round" stroke-linejoin="round" stroke-width="4.979640495460273"/>
  <path d="M 56.1866983300799, 67.51639499523566 Q 52.73910218926347, 77.7676678558891, 47.28524774118628, 95.48394725669367 " fill="none" id="curve_2" stroke="#000000" stroke-linecap="round" stroke-linejoin="round" stroke-width="5.999437901413971"/>
  <path d="M 57.509500528117776, 68.06493969948554 Q 63.483152285125634, 59.32919428121683, 70.25932189494732, 42.202187568965996 " fill="none" id="curve_3" stroke="#000000" stroke-linecap="round" stroke-linejoin="round" stroke-width="4.864879972256081"/>
  <path d="M 36.133977556482314, 67.63126189264719 Q 36.858201012418846, 67.78551005661431, 37.19973986057915, 68.59748070513194 " fill="none" id="curve_4" stroke="#000000" stroke-linecap="round" stroke-linejoin="round" stroke-width="4.301648252578824"/>
  <path d="M 46.77418064253575, 89.87373719714572 Q 51.21319355000537, 78.08302830040479, 62.15262376433644, 56.22347794110534 " fill="none" id="curve_5" stroke="#000000" stroke-linecap="round" stroke-linejoin="round" stroke-width="3.9546777508824653"/>
  <path d="M 52.477668013713426, 77.01395695878806 Q 55.001567684196125, 75.4830158292752, 56.05180629106908, 69.59542741929239 " fill="none" id="curve_6" stroke="#000000" stroke-linecap="round" stroke-linejoin="round" stroke-width="6.102931349322208"/>
  <path d="M 56.05180629106908, 69.59542741929239 Q 51.030923245008125, 75.07738604979785, 47.881224869636014, 85.90689464291475 " fill="none" id="curve_6" stroke="#000000" stroke-linecap="round" stroke-linejoin="round" stroke-width="3.6908978485896053"/>
  <path d="M 44.885648086918465, 59.841922316884194 Q 50.70104841303094, 55.33711085355464, 58.65763759705588, 49.10185534553093 " fill="none" id="curve_7" stroke="#000000" stroke-linecap="round" stroke-linejoin="round" stroke-width="2.8376803802765216"/>
  <path d="M 67.84497359564463, 46.02895516169189 Q 65.24086953652125, 46.04240692521841, 61.773737135390036, 46.0619259512567 " fill="none" id="curve_8" stroke="#000000" stroke-linecap="round" stroke-linejoin="round" stroke-width="4.346508126629726"/>
  <path d="M 36.1607821843636, 65.59105331363662 Q 37.18469707858826, 65.79641759649263, 37.751459612012624, 66.86463394769343 " fill="none" id="curve_23" stroke="#000000" stroke-linecap="round" stroke-linejoin="round" stroke-width="2.690587549184235"/>
  <path d="M 53.50095868195389, 75.37020053234471 Q 56.23048474335431, 65.03623725768225, 64.06291972262767, 55.00291250439128 " fill="none" id="curve_33" stroke="#000000" stroke-linecap="round" stroke-linejoin="round" stroke-width="2.584466310192991"/>
  <path d="M 54.66490573607848, 68.17603399249049 Q 53.35940115840962, 69.9465811747034, 51.2300340641203, 75.34821778460918 " fill="none" id="curve_48" stroke="#000000" stroke-linecap="round" stroke-linejoin="round" stroke-width="2.3824331952436277"/>
  <path d="M 75.28713382340243, 31.147333357410435 Q 74.94881997002165, 31.153069520613357, 74.46356208483445, 31.16351775136445 " fill="none" id="curve_90" stroke="#000000" stroke-linecap="round" stroke-linejoin="round" stroke-width="3.0426488527314204"/>
  <path d="M 55.32109069824219, 54.45391845703125 Q 45.76594148693726, 55.22347587833055, 41.48844238162599, 62.52368484878917 " fill="none" id="curve_117" stroke="#000000" stroke-linecap="round" stroke-linejoin="round" stroke-width="2.309096312144492"/>
  <path d="M 54.05530914670194, 80.37004216822882 Q 55.328897905394626, 64.18350691125124, 63.83397004508021, 53.36462146402359 " fill="none" id="curve_125" stroke="#000000" stroke-linecap="round" stroke-linejoin="round" stroke-width="2.7059233010714867"/>
</svg>
