<?xml version="1.0" ?>
<svg height="140" width="140" xmlns="http://www.w3.org/2000/svg">
  <path d="M 68.13027763366699, 55.302639961242676 Q 66.59449881411717, 55.601731642031496, 65.79685802674506, 57.705544910602015 " fill="none" id="curve_1" stroke="#000000" stroke-linecap="round" stroke-linejoin="round" stroke-width="9.180611594238568"/>
  <path d="M 65.79685802674506, 57.705544910602015 Q 62.66820111776448, 64.71651180934218, 59.93867881454238, 76.11909214552352 " fill="none" id="curve_1" stroke="#000000" stroke-linecap="round" stroke-linejoin="round" stroke-width="6.500843469123382"/>
  <path d="M 59.93867881454238, 76.11909214552352 Q 59.348210256556925, 80.7726173451515, 47.21231218929364, 81.26452371636674 " fill="none" id="curve_1" stroke="#000000" stroke-linecap="round" stroke-linejoin="round" stroke-width="4.956159909421357"/>
  <path d="M 47.21231218929364, 81.26452371636674 Q 34.79809075501518, 79.86652345478477, 28.455729680458937, 73.60012198601302 " fill="none" id="curve_1" stroke="#000000" stroke-linecap="round" stroke-linejoin="round" stroke-width="5.076081739437225"/>
  <path d="M 58.74072327298002, 81.13266287003941 Q 59.00315974033285, 101.56263988855338, 65.03167434335732, 103.04915934434199 " fill="none" id="curve_2" stroke="#000000" stroke-linecap="round" stroke-linejoin="round" stroke-width="4.739199482964119"/>
  <path d="M 65.46115753235955, 72.64723943495095 Q 67.41105317106253, 70.52887953818026, 68.08677688528681, 60.576154027326055 " fill="none" id="curve_3" stroke="#000000" stroke-linecap="round" stroke-linejoin="round" stroke-width="4.131892073221179"/>
  <path d="M 55.525692601019706, 77.31470021222664 Q 51.25029318873096, 78.64442445833978, 47.17287739343265, 80.58543819570079 " fill="none" id="curve_4" stroke="#000000" stroke-linecap="round" stroke-linejoin="round" stroke-width="3.172980085671545"/>
  <path d="M 65.65962738390284, 54.08807333900076 Q 63.5349495824692, 57.02186068060791, 61.55127814979653, 64.33271466793747 " fill="none" id="curve_8" stroke="#000000" stroke-linecap="round" stroke-linejoin="round" stroke-width="3.046939794171912"/>
  <path d="M 59.543942794357484, 86.86328933155262 Q 60.914283605588714, 81.07206532742258, 62.08559572401445, 66.59010679453209 " fill="none" id="curve_9" stroke="#000000" stroke-linecap="round" stroke-linejoin="round" stroke-width="3.3150401734010027"/>
  <path d="M 58.31786632537842, 97.42745399475098 Q 57.81606695507473, 92.87422279056813, 56.67541261612649, 87.37669090918001 " fill="none" id="curve_23" stroke="#000000" stroke-linecap="round" stroke-linejoin="round" stroke-width="2.180805868762873"/>
  <path d="M 64.87781620523941, 74.66935445020691 Q 61.77258219147325, 74.23855331986016, 59.246508485455266, 72.55936460456032 " fill="none" id="curve_24" stroke="#000000" stroke-linecap="round" stroke-linejoin="round" stroke-width="3.252430395402304"/>
  <path d="M 67.34434701227552, 53.22865869200099 Q 63.80644985468283, 55.689641015529, 60.32429147982251, 63.29679911192869 " fill="none" id="curve_25" stroke="#000000" stroke-linecap="round" stroke-linejoin="round" stroke-width="2.864380506805276"/>
  <path d="M 69.5961093859454, 60.18224746764952 Q 61.64724847864431, 62.502352728984846, 56.53757152421963, 76.83302386393993 " fill="none" id="curve_53" stroke="#000000" stroke-linecap="round" stroke-linejoin="round" stroke-width="3.4530961620692513"/>
  <path d="M 62.33674045960832, 71.90732171352693 Q 61.46844538750997, 68.50551993038718, 58.12899607532858, 65.7702265594015 " fill="none" id="curve_68" stroke="#000000" stroke-linecap="round" stroke-linejoin="round" stroke-width="3.0359419464146997"/>
</svg>
