<?xml version="1.0" ?>
<svg height="140" width="140" xmlns="http://www.w3.org/2000/svg">
  <path d="M 44.252427101135254, 14.306961059570312 Q 44.10017470597334, 12.696190887773508, 43.32263078023149, 12.094997943418548 " fill="none" id="curve_1" stroke="#000000" stroke-linecap="round" stroke-linejoin="round" stroke-width="6.771025963880346"/>
  <path d="M 41.83679782981925, 19.926371643653606 Q 39.90730052946819, 20.29498703791206, 39.57069443076796, 27.939501220163372 " fill="none" id="curve_2" stroke="#000000" stroke-linecap="round" stroke-linejoin="round" stroke-width="10.745628896422264"/>
  <path d="M 39.57069443076796, 27.939501220163372 Q 35.97122286078452, 41.97243259516042, 12.864492503894809, 70.0223486170248 " fill="none" id="curve_2" stroke="#000000" stroke-linecap="round" stroke-linejoin="round" stroke-width="4.357506957854719"/>
  <path d="M 36.97338565749469, 90.49387365849132 Q 36.44014896105314, 81.78049218850877, 35.86731399817016, 61.61087854430589 " fill="none" id="curve_3" stroke="#000000" stroke-linecap="round" stroke-linejoin="round" stroke-width="5.293089148102658"/>
  <path d="M 35.86731399817016, 61.61087854430589 Q 38.06091167687067, 51.691701537389875, 40.84148108841112, 34.66674200986528 " fill="none" id="curve_3" stroke="#000000" stroke-linecap="round" stroke-linejoin="round" stroke-width="5.488062923331555"/>
  <path d="M 17.205295277244023, 71.88714699978696 Q 16.88144397420406, 71.68712033895751, 16.505426346666823, 71.3706658112975 " fill="none" id="curve_4" stroke="#000000" stroke-linecap="round" stroke-linejoin="round" stroke-width="8.452833405425185"/>
  <path d="M 2.390234005315966, 61.7034891507462 Q 1.6111280477620766, 70.47544857971855, 0.6940968913277212, 104.4351686884228 " fill="none" id="curve_5" stroke="#000000" stroke-linecap="round" stroke-linejoin="round" stroke-width="1.9779838407769916"/>
  <path d="M 0.6940968913277212, 104.4351686884228 Q 1.156486638871004, 116.67379032302438, 1.6719234191295915, 139.01456766670012 " fill="none" id="curve_5" stroke="#000000" stroke-linecap="round" stroke-linejoin="round" stroke-width="2.4543086541504966"/>
  <path d="M 1.6719234191295915, 139.01456766670012 Q 1.9526557202758255, 138.6261308852056, 2.414185218412249, 138.08314672786562 " fill="none" id="curve_5" stroke="#000000" stroke-linecap="round" stroke-linejoin="round" stroke-width="2.236037507563395"/>
  <path d="M 35.22307372329179, 91.41198859494227 Q 34.33833300658385, 91.00650137732109, 34.2476074374712, 75.29692801874158 " fill="none" id="curve_7" stroke="#000000" stroke-linecap="round" stroke-linejoin="round" stroke-width="2.8705873300569342"/>
  <path d="M 34.2476074374712, 75.29692801874158 Q 33.76426417618437, 72.03248052494347, 33.107699702769644, 67.33626122342281 " fill="none" id="curve_7" stroke="#000000" stroke-linecap="round" stroke-linejoin="round" stroke-width="3.0230170467835746"/>
  <path d="M 18.06657183127036, 75.28400343944004 Q 15.381142047448467, 72.2684425413049, 11.433667055717663, 67.56660277955805 " fill="none" id="curve_8" stroke="#000000" stroke-linecap="round" stroke-linejoin="round" stroke-width="4.011872111518929"/>
  <path d="M 11.433667055717663, 67.56660277955805 Q 14.28357145206324, 64.46924059234627, 21.607057859655097, 61.46285462423501 " fill="none" id="curve_8" stroke="#000000" stroke-linecap="round" stroke-linejoin="round" stroke-width="3.723194336127641"/>
  <path d="M 21.607057859655097, 61.46285462423501 Q 24.307954115439195, 60.259398461289884, 25.585118498716852, 55.92564854451041 " fill="none" id="curve_8" stroke="#000000" stroke-linecap="round" stroke-linejoin="round" stroke-width="1.8946660168495149"/>
  <path d="M 25.585118498716852, 55.92564854451041 Q 18.77926341713767, 57.44121052318838, 16.896937289378634, 69.73088965056117 " fill="none" id="curve_8" stroke="#000000" stroke-linecap="round" stroke-linejoin="round" stroke-width="4.005145961046389"/>
  <path d="M 1.416845645008424, 60.871927299711416 Q 1.3662058389189917, 56.074679019594114, 1.2931461784057645, 41.76346499767644 " fill="none" id="curve_9" stroke="#000000" stroke-linecap="round" stroke-linejoin="round" stroke-width="1.830900449759753"/>
  <path d="M 1.2931461784057645, 41.76346499767644 Q 1.3249262452803872, 36.8926634803911, 1.377353372177873, 23.405384569370856 " fill="none" id="curve_9" stroke="#000000" stroke-linecap="round" stroke-linejoin="round" stroke-width="1.904721084914023"/>
  <path d="M 1.377353372177873, 23.405384569370856 Q 1.4173138040789992, 18.640972320933486, 1.499356030234029, 6.400517049496518 " fill="none" id="curve_9" stroke="#000000" stroke-linecap="round" stroke-linejoin="round" stroke-width="1.6805999362669648"/>
  <path d="M 1.499356030234029, 6.400517049496518 Q 1.533314922934641, 1.2813842832991744, 2.541869585749084, 0.9379645369854188 " fill="none" id="curve_9" stroke="#000000" stroke-linecap="round" stroke-linejoin="round" stroke-width="2.351807101308724"/>
  <path d="M 2.541869585749084, 0.9379645369854188 Q 1.3428053059699645, 1.4189105594219933, 0.8053323791565379, 3.4483690564215728 " fill="none" id="curve_9" stroke="#000000" stroke-linecap="round" stroke-linejoin="round" stroke-width="1.5263331994304168"/>
  <path d="M 46.13308328013221, 14.568619659922625 Q 46.293330403373844, 15.684938732812752, 46.36996854055073, 21.467499155153085 " fill="none" id="curve_12" stroke="#000000" stroke-linecap="round" stroke-linejoin="round" stroke-width="2.3843028915621667"/>
  <path d="M 46.36996854055073, 21.467499155153085 Q 46.261151921489635, 24.493571132084057, 39.1652609382237, 24.602899065499987 " fill="none" id="curve_12" stroke="#000000" stroke-linecap="round" stroke-linejoin="round" stroke-width="4.277495224535233"/>
  <path d="M 39.1652609382237, 24.602899065499987 Q 38.01527515024661, 23.353056746778616, 34.00839202827273, 22.833031164732592 " fill="none" id="curve_12" stroke="#000000" stroke-linecap="round" stroke-linejoin="round" stroke-width="4.184390755276049"/>
  <path d="M 42.65150547529086, 9.591668023848266 Q 42.973391726337525, 9.759013874943152, 43.184450057164135, 10.338890900589115 " fill="none" id="curve_13" stroke="#000000" stroke-linecap="round" stroke-linejoin="round" stroke-width="3.5315483699840673"/>
  <path d="M 37.98245537173316, 41.01460848824245 Q 38.22976083700299, 36.50567785535925, 40.13373905502539, 34.32280399348081 " fill="none" id="curve_14" stroke="#000000" stroke-linecap="round" stroke-linejoin="round" stroke-width="3.36323542924368"/>
  <path d="M 2.10036937918726, 92.644140385324 Q 1.9160334297008275, 98.0302276342995, 1.467967378559086, 103.43109765304439 " fill="none" id="curve_16" stroke="#000000" stroke-linecap="round" stroke-linejoin="round" stroke-width="2.2229256752913864"/>
  <path d="M 38.42355962068969, 36.30276771367386 Q 40.70816694342357, 33.68505778898658, 43.99566936922498, 29.090471070070485 " fill="none" id="curve_19" stroke="#000000" stroke-linecap="round" stroke-linejoin="round" stroke-width="3.7657812145077316"/>
  <path d="M 34.26571396784305, 43.95650836921028 Q 36.24591719927976, 47.402521174021075, 36.86087688880328, 66.71172869463126 " fill="none" id="curve_20" stroke="#000000" stroke-linecap="round" stroke-linejoin="round" stroke-width="2.990890495285028"/>
  <path d="M 32.292314554477876, 38.73254969635499 Q 28.261517797625633, 40.270417232504435, 26.330272959750282, 49.63805378885287 " fill="none" id="curve_21" stroke="#000000" stroke-linecap="round" stroke-linejoin="round" stroke-width="2.4946223742996727"/>
  <path d="M 16.237300770588185, 73.3215043145346 Q 18.34835896210759, 73.59647105926913, 20.81039613687399, 74.10572750840036 " fill="none" id="curve_24" stroke="#000000" stroke-linecap="round" stroke-linejoin="round" stroke-width="2.788287835705063"/>
  <path d="M 43.12466268597728, 12.463837087470353 Q 42.69650941944602, 12.821879005780765, 41.96587895163787, 13.283714158121692 " fill="none" id="curve_27" stroke="#000000" stroke-linecap="round" stroke-linejoin="round" stroke-width="4.02406802693817"/>
  <path d="M 1.9156179681301628, 2.9353094540981033 Q 1.5649302537208638, 7.091200930574673, 0.6940611788223763, 14.568204893932618 " fill="none" id="curve_34" stroke="#000000" stroke-linecap="round" stroke-linejoin="round" stroke-width="1.9293429484876503"/>
  <path d="M 36.369439803456736, 60.27135157342328 Q 36.3100612352562, 59.180387108029095, 36.23464688718272, 56.480700471214874 " fill="none" id="curve_42" stroke="#000000" stroke-linecap="round" stroke-linejoin="round" stroke-width="3.7463022280993"/>
  <path d="M 36.61928481263301, 57.681689248322975 Q 37.068001754443806, 58.684649092890275, 37.73903391998642, 61.99972064843263 " fill="none" id="curve_47" stroke="#000000" stroke-linecap="round" stroke-linejoin="round" stroke-width="2.87699417650142"/>
  <path d="M 35.87591091221834, 51.43078846174274 Q 36.618396825061424, 55.52540515309484, 37.26763922016955, 67.9246537774603 " fill="none" id="curve_50" stroke="#000000" stroke-linecap="round" stroke-linejoin="round" stroke-width="2.536938241507582"/>
  <path d="M 35.170868721941986, 52.920770240735656 Q 36.14259422664056, 56.28577500080335, 37.4951779004233, 62.715524607364905 " fill="none" id="curve_51" stroke="#000000" stroke-linecap="round" stroke-linejoin="round" stroke-width="3.0596121504941713"/>
  <path d="M 37.4951779004233, 62.715524607364905 Q 37.31886094085744, 58.260777539874496, 35.96139274082297, 56.29149489345724 " fill="none" id="curve_51" stroke="#000000" stroke-linecap="round" stroke-linejoin="round" stroke-width="3.3033444400633036"/>
  <path d="M 14.95623358831499, 70.08073431409107 Q 13.667826593195935, 70.53663425931815, 12.138307715704766, 71.7373052729364 " fill="none" id="curve_68" stroke="#000000" stroke-linecap="round" stroke-linejoin="round" stroke-width="3.2946766803576755"/>
  <path d="M 34.25130306781193, 57.706520044896706 Q 35.12738084733577, 57.34851119653036, 35.91116695082621, 56.38233157464834 " fill="none" id="curve_83" stroke="#000000" stroke-linecap="round" stroke-linejoin="round" stroke-width="3.0491770802046774"/>
  <path d="M 32.78962294351872, 78.37541614421349 Q 33.9083578339664, 78.06207491923551, 35.38513602725167, 77.4475849936052 " fill="none" id="curve_98" stroke="#000000" stroke-linecap="round" stroke-linejoin="round" stroke-width="2.2570769481563833"/>
  <path d="M 16.62523962587215, 62.111773529527454 Q 16.721539975367712, 62.157186489355624, 16.856698925899607, 62.287575676694765 " fill="none" id="curve_99" stroke="#000000" stroke-linecap="round" stroke-linejoin="round" stroke-width="1.9522551384652953"/>
  <path d="M 43.75909726439666, 26.06995322120104 Q 43.29454946024138, 25.709955095936188, 42.15794457763969, 25.285026897033227 " fill="none" id="curve_131" stroke="#000000" stroke-linecap="round" stroke-linejoin="round" stroke-width="3.661860925153419"/>
  <path d="M 40.50423336578881, 34.73766924533022 Q 40.995034866099324, 34.59852561626022, 41.54632095519529, 34.275286162106894 " fill="none" id="curve_161" stroke="#000000" stroke-linecap="round" stroke-linejoin="round" stroke-width="3.0611719051335275"/>
  <path d="M 35.46780973742368, 22.967319097005657 Q 36.23380433647697, 27.56554190998329, 38.03758107276834, 31.587973853395084 " fill="none" id="curve_176" stroke="#000000" stroke-linecap="round" stroke-linejoin="round" stroke-width="3.7788229507870934"/>
</svg>
