<?xml version="1.0" ?>
<svg height="140" width="140" xmlns="http://www.w3.org/2000/svg">
  <path d="M 51.00702667236328, 43.963775634765625 Q 47.69260344008228, 47.42660933260689, 43.230734656898676, 55.950434186237544 " fill="none" id="curve_1" stroke="#000000" stroke-linecap="round" stroke-linejoin="round" stroke-width="8.095141332231071"/>
  <path d="M 43.230734656898676, 55.950434186237544 Q 38.350204190798294, 61.366934502052956, 21.43836904456197, 79.20745169558165 " fill="none" id="curve_1" stroke="#000000" stroke-linecap="round" stroke-linejoin="round" stroke-width="3.762905811593356"/>
  <path d="M 21.43836904456197, 79.20745169558165 Q 19.50041024301977, 80.94324253541829, 17.43153322362138, 83.1527464909904 " fill="none" id="curve_1" stroke="#000000" stroke-linecap="round" stroke-linejoin="round" stroke-width="4.2868850755152295"/>
  <path d="M 38.95132703587672, 95.12998771183085 Q 39.50489419460226, 78.20088741565417, 45.14578642305801, 61.601021065281486 " fill="none" id="curve_2" stroke="#000000" stroke-linecap="round" stroke-linejoin="round" stroke-width="4.4104728692389665"/>
  <path d="M 45.14578642305801, 61.601021065281486 Q 47.559376217297725, 54.694402466776566, 50.596252964202634, 41.90428466989549 " fill="none" id="curve_2" stroke="#000000" stroke-linecap="round" stroke-linejoin="round" stroke-width="2.989659690086802"/>
  <path d="M 43.873058342472774, 67.54023440161794 Q 42.180430737624505, 72.22365661471571, 38.835451095203354, 78.40474724401719 " fill="none" id="curve_3" stroke="#000000" stroke-linecap="round" stroke-linejoin="round" stroke-width="2.6311737435670093"/>
  <path d="M 26.61297893923316, 74.4431637687929 Q 23.216004903565615, 77.03964615454909, 18.893596651789817, 80.07473272566762 " fill="none" id="curve_4" stroke="#000000" stroke-linecap="round" stroke-linejoin="round" stroke-width="3.786209748507079"/>
  <path d="M 38.99457961803338, 92.29155823788072 Q 40.20761846613368, 76.74071028533692, 45.298761833396675, 61.810222297142204 " fill="none" id="curve_12" stroke="#000000" stroke-linecap="round" stroke-linejoin="round" stroke-width="2.2757448476703326"/>
  <path d="M 45.298761833396675, 61.810222297142204 Q 43.205994846466176, 71.74225414640502, 38.785481096572056, 84.49512249366559 " fill="none" id="curve_12" stroke="#000000" stroke-linecap="round" stroke-linejoin="round" stroke-width="2.130600238215851"/>
  <path d="M 49.380500864218526, 49.53492166186026 Q 49.3826942930943, 46.16026271588976, 49.39218044627241, 44.72876898731216 " fill="none" id="curve_13" stroke="#000000" stroke-linecap="round" stroke-linejoin="round" stroke-width="3.6683392449663645"/>
  <path d="M 47.96144623190504, 45.761141803672565 Q 48.09131420115193, 45.580734114195415, 48.35495427934448, 45.26319823566247 " fill="none" id="curve_29" stroke="#000000" stroke-linecap="round" stroke-linejoin="round" stroke-width="3.0798700589913652"/>
  <path d="M 42.339711715958245, 69.91576678023822 Q 43.07438730660758, 68.51344510863011, 43.805834793947, 65.22474062562864 " fill="none" id="curve_30" stroke="#000000" stroke-linecap="round" stroke-linejoin="round" stroke-width="3.509848118675816"/>
  <path d="M 43.69647061944465, 69.11339234591298 Q 42.59016396970482, 69.47761453922021, 41.64068672494271, 70.44456068410642 " fill="none" id="curve_45" stroke="#000000" stroke-linecap="round" stroke-linejoin="round" stroke-width="4.552998411144975"/>
  <path d="M 25.558364868164062, 75.21183633804321 Q 22.54673506339864, 75.54251327665823, 20.280029081974135, 77.96407001353701 " fill="none" id="curve_59" stroke="#000000" stroke-linecap="round" stroke-linejoin="round" stroke-width="2.5956383002621863"/>
  <path d="M 20.280029081974135, 77.96407001353701 Q 24.220608352430396, 76.33070112292637, 26.990532103699053, 72.02037938187009 " fill="none" id="curve_59" stroke="#000000" stroke-linecap="round" stroke-linejoin="round" stroke-width="2.5411433613467675"/>
  <path d="M 42.139490902146854, 72.45075791496507 Q 42.51618307385605, 67.39458255783995, 43.91855663770164, 64.69254307024816 " fill="none" id="curve_61" stroke="#000000" stroke-linecap="round" stroke-linejoin="round" stroke-width="3.2733579815275444"/>
  <path d="M 41.72241837272803, 72.366211073293 Q 42.9600325776264, 68.71733300071745, 44.90868526733178, 63.07984831890314 " fill="none" id="curve_90" stroke="#000000" stroke-linecap="round" stroke-linejoin="round" stroke-width="2.6568332182982717"/>
  <path d="M 41.09209708467665, 71.2643788197505 Q 42.15568623399468, 69.23987204688011, 43.76563739389086, 64.56728493716648 " fill="none" id="curve_131" stroke="#000000" stroke-linecap="round" stroke-linejoin="round" stroke-width="2.65672682668103"/>
</svg>
