<?xml version="1.0" ?>
<svg height="140" width="140" xmlns="http://www.w3.org/2000/svg">
  <path d="M 54.57415771484375, 43.518802642822266 Q 58.12534571921675, 40.76770335462704, 61.51034519164415, 33.083686402968226 " fill="none" id="curve_1" stroke="#000000" stroke-linecap="round" stroke-linejoin="round" stroke-width="5.840496621110677"/>
  <path d="M 61.51034519164415, 33.083686402968226 Q 61.16726197818686, 40.46308563191509, 57.966424152416636, 43.07411482583761 " fill="none" id="curve_1" stroke="#000000" stroke-linecap="round" stroke-linejoin="round" stroke-width="6.145295821204883"/>
  <path d="M 57.966424152416636, 43.07411482583761 Q 51.03845309150711, 47.104203883727166, 34.54426021698506, 65.58072030981428 " fill="none" id="curve_1" stroke="#000000" stroke-linecap="round" stroke-linejoin="round" stroke-width="4.63248791104741"/>
  <path d="M 34.54426021698506, 65.58072030981428 Q 28.115071688354014, 72.75286279275112, 12.521109862319094, 84.02736707053816 " fill="none" id="curve_1" stroke="#000000" stroke-linecap="round" stroke-linejoin="round" stroke-width="4.361508649425702"/>
  <path d="M 40.05193139797567, 86.4884494368202 Q 42.24453432494505, 73.74012513434545, 53.3065767213335, 54.16385652399276 " fill="none" id="curve_2" stroke="#000000" stroke-linecap="round" stroke-linejoin="round" stroke-width="4.841105702710335"/>
  <path d="M 53.3065767213335, 54.16385652399276 Q 55.30331533107755, 52.05637698617418, 56.19392039953688, 45.65974773302597 " fill="none" id="curve_2" stroke="#000000" stroke-linecap="round" stroke-linejoin="round" stroke-width="4.900875835080146"/>
  <path d="M 59.44503786808453, 37.7279632965616 Q 52.981829293964246, 44.81580349645087, 43.70016184099167, 54.505134796026454 " fill="none" id="curve_3" stroke="#000000" stroke-linecap="round" stroke-linejoin="round" stroke-width="3.9743899024496128"/>
  <path d="M 43.70016184099167, 54.505134796026454 Q 38.413168623192036, 62.43540663944151, 26.771746698163504, 70.61788974379178 " fill="none" id="curve_3" stroke="#000000" stroke-linecap="round" stroke-linejoin="round" stroke-width="3.0272489138548595"/>
  <path d="M 38.7872572198346, 84.67750258004217 Q 40.567122836968174, 77.47266460128267, 45.95007988787932, 70.68107182261073 " fill="none" id="curve_4" stroke="#000000" stroke-linecap="round" stroke-linejoin="round" stroke-width="2.282386706433069"/>
  <path d="M 51.42926281672048, 52.61033018823201 Q 51.519523211094416, 51.45144032183908, 51.704336717338435, 49.75683669865855 " fill="none" id="curve_19" stroke="#000000" stroke-linecap="round" stroke-linejoin="round" stroke-width="2.7516166074058916"/>
  <path d="M 16.815243338601313, 80.13759101118181 Q 18.000176919772432, 79.62375280742135, 19.231153465862825, 78.18859726208743 " fill="none" id="curve_22" stroke="#000000" stroke-linecap="round" stroke-linejoin="round" stroke-width="2.943845807247256"/>
  <path d="M 57.24700748445606, 39.94902569176317 Q 58.15992622944557, 37.55789459565196, 60.8966245915326, 35.21952674216669 " fill="none" id="curve_39" stroke="#000000" stroke-linecap="round" stroke-linejoin="round" stroke-width="2.726460235839548"/>
  <path d="M 1.3116831620891887, 139.07503580540617 Q 1.3765725822871573, 138.47589565584389, 1.4568681782863289, 137.5678904475537 " fill="none" id="curve_54" stroke="#000000" stroke-linecap="round" stroke-linejoin="round" stroke-width="1.582827342904717"/>
</svg>
