<?xml version="1.0" ?>
<svg height="140" width="140" xmlns="http://www.w3.org/2000/svg">
  <path d="M 56.47220039367676, 130.12793159484863 Q 55.30309351736812, 126.45436622489068, 53.69874409515299, 115.52805423088535 " fill="none" id="curve_1" stroke="#000000" stroke-linecap="round" stroke-linejoin="round" stroke-width="5.908142964622561"/>
  <path d="M 53.69874409515299, 115.52805423088535 Q 53.05048700391321, 111.20036405647912, 52.160676896708736, 94.44014382920415 " fill="none" id="curve_1" stroke="#000000" stroke-linecap="round" stroke-linejoin="round" stroke-width="3.496571227017094"/>
  <path d="M 52.160676896708736, 94.44014382920415 Q 52.226125545221656, 75.34290482946886, 53.53982232781016, 68.54939749488042 " fill="none" id="curve_1" stroke="#000000" stroke-linecap="round" stroke-linejoin="round" stroke-width="4.171705621385458"/>
  <path d="M 53.53982232781016, 68.54939749488042 Q 54.108694767410284, 61.459466995760806, 55.45813425349807, 39.7868594273711 " fill="none" id="curve_1" stroke="#000000" stroke-linecap="round" stroke-linejoin="round" stroke-width="3.9687994915029217"/>
  <path d="M 55.45813425349807, 39.7868594273711 Q 48.63406565511316, 42.26047215432913, 39.96950291477066, 68.14454018107381 " fill="none" id="curve_1" stroke="#000000" stroke-linecap="round" stroke-linejoin="round" stroke-width="3.9806748832978203"/>
  <path d="M 39.96950291477066, 68.14454018107381 Q 34.22288436990204, 79.58220162372929, 21.72291160851276, 96.63266446659453 " fill="none" id="curve_1" stroke="#000000" stroke-linecap="round" stroke-linejoin="round" stroke-width="3.5531121161396926"/>
  <path d="M 56.91837744750846, 129.988093832453 Q 56.75834687032026, 130.4373114779091, 56.3285274843806, 130.75200963925263 " fill="none" id="curve_2" stroke="#000000" stroke-linecap="round" stroke-linejoin="round" stroke-width="3.6242673968455037"/>
  <path d="M 33.31890265705732, 76.09368553358708 Q 35.93782594487365, 72.46766832634006, 40.37276406017125, 68.70858589995602 " fill="none" id="curve_4" stroke="#000000" stroke-linecap="round" stroke-linejoin="round" stroke-width="2.4421158751580827"/>
  <path d="M 53.28151460094132, 74.02774694117235 Q 51.44601283715682, 75.69568780977198, 50.65438494736566, 81.27732225989558 " fill="none" id="curve_5" stroke="#000000" stroke-linecap="round" stroke-linejoin="round" stroke-width="2.545960367913497"/>
  <path d="M 19.818960270146803, 98.116957924608 Q 21.10329074592305, 97.76261874111108, 22.369140745428105, 96.69800075067833 " fill="none" id="curve_7" stroke="#000000" stroke-linecap="round" stroke-linejoin="round" stroke-width="1.7422328240456049"/>
  <path d="M 53.36768504430658, 101.70568429529689 Q 51.78897273657453, 100.32572039127984, 51.26107182968825, 88.47646396070165 " fill="none" id="curve_10" stroke="#000000" stroke-linecap="round" stroke-linejoin="round" stroke-width="2.099050189232162"/>
  <path d="M 51.92873356652841, 39.996941357398626 Q 55.13481895391736, 38.54984158747002, 56.39772013050859, 33.03623791212098 " fill="none" id="curve_12" stroke="#000000" stroke-linecap="round" stroke-linejoin="round" stroke-width="5.299982255718587"/>
  <path d="M 56.39772013050859, 33.03623791212098 Q 52.851265564411804, 37.7724960070018, 48.15526947700056, 44.008092293247586 " fill="none" id="curve_12" stroke="#000000" stroke-linecap="round" stroke-linejoin="round" stroke-width="2.4659541534416203"/>
  <path d="M 46.44183914413847, 54.6607893222893 Q 46.58252149518747, 53.552102514942426, 47.00655365737358, 52.369022699752875 " fill="none" id="curve_13" stroke="#000000" stroke-linecap="round" stroke-linejoin="round" stroke-width="1.8288223439703108"/>
  <path d="M 54.2410330200458, 76.09865934594151 Q 53.78984044468259, 70.53979883414932, 52.94986389692895, 63.847006473307076 " fill="none" id="curve_14" stroke="#000000" stroke-linecap="round" stroke-linejoin="round" stroke-width="2.0464257506867933"/>
  <path d="M 37.74399302261712, 71.83291795571715 Q 38.30859924006333, 71.17404737506007, 38.87789965020631, 69.59623448169337 " fill="none" id="curve_16" stroke="#000000" stroke-linecap="round" stroke-linejoin="round" stroke-width="3.523473559531338"/>
  <path d="M 57.266692564898, 122.55132484379925 Q 56.5145728213053, 121.32878985619158, 54.288898127363396, 120.31761171062917 " fill="none" id="curve_18" stroke="#000000" stroke-linecap="round" stroke-linejoin="round" stroke-width="3.2940682544413193"/>
  <path d="M 52.56852189378297, 101.063764218736 Q 53.096705660714164, 100.18266499290854, 53.71339739355007, 98.1517373210951 " fill="none" id="curve_22" stroke="#000000" stroke-linecap="round" stroke-linejoin="round" stroke-width="2.7270994614849653"/>
  <path d="M 43.524889305506576, 61.75925271513461 Q 43.67767329061849, 60.67199022307073, 44.289857977438814, 59.9222800583843 " fill="none" id="curve_50" stroke="#000000" stroke-linecap="round" stroke-linejoin="round" stroke-width="2.6320773072938284"/>
  <path d="M 38.130775538054266, 72.80837914812268 Q 38.46141862028583, 71.53869352363898, 38.91424326942971, 69.77779192813655 " fill="none" id="curve_51" stroke="#000000" stroke-linecap="round" stroke-linejoin="round" stroke-width="3.564463866747381"/>
  <path d="M 55.48786999159246, 64.54411490491529 Q 55.25301915781361, 62.97547458635476, 54.452154028717096, 61.677246987596504 " fill="none" id="curve_69" stroke="#000000" stroke-linecap="round" stroke-linejoin="round" stroke-width="2.241146097982336"/>
  <path d="M 55.9931523579711, 35.012930264969334 Q 56.47671612397681, 35.54570751930016, 56.97503985037746, 36.54553468057783 " fill="none" id="curve_154" stroke="#000000" stroke-linecap="round" stroke-linejoin="round" stroke-width="2.3201609105999506"/>
</svg>
