<?xml version="1.0" ?>
<svg height="140" width="140" xmlns="http://www.w3.org/2000/svg">
  <path d="M 77.66021823883057, 21.763874053955078 Q 73.68223860427065, 25.528368592065227, 68.15600541488044, 40.61916325774189 " fill="none" id="curve_1" stroke="#000000" stroke-linecap="round" stroke-linejoin="round" stroke-width="5.9484057680974844"/>
  <path d="M 68.15600541488044, 40.61916325774189 Q 64.85565896776004, 54.25540385034736, 51.40732795617041, 66.88240505854718 " fill="none" id="curve_1" stroke="#000000" stroke-linecap="round" stroke-linejoin="round" stroke-width="6.8330798683280465"/>
  <path d="M 51.40732795617041, 66.88240505854718 Q 44.38710085689202, 75.12493312550079, 20.5844052555326, 101.61102297694936 " fill="none" id="curve_1" stroke="#000000" stroke-linecap="round" stroke-linejoin="round" stroke-width="3.4547801619130314"/>
  <path d="M 20.5844052555326, 101.61102297694936 Q 14.23313650681235, 110.8691388706868, 2.165804214712068, 121.31795163339535 " fill="none" id="curve_1" stroke="#000000" stroke-linecap="round" stroke-linejoin="round" stroke-width="4.259525580170754"/>
  <path d="M 2.165804214712068, 121.31795163339535 Q 2.657499201878435, 120.73009659392811, 3.233596214032681, 119.71430189532205 " fill="none" id="curve_1" stroke="#000000" stroke-linecap="round" stroke-linejoin="round" stroke-width="3.13941762311327"/>
  <path d="M 54.31968837933761, 111.32737299316128 Q 54.355492443281385, 77.07717749116657, 57.069512935042845, 73.9862118035195 " fill="none" id="curve_2" stroke="#000000" stroke-linecap="round" stroke-linejoin="round" stroke-width="4.629535849299387"/>
  <path d="M 57.069512935042845, 73.9862118035195 Q 59.653465096385965, 67.4360019191124, 62.8114282176193, 57.907813307559536 " fill="none" id="curve_2" stroke="#000000" stroke-linecap="round" stroke-linejoin="round" stroke-width="4.851238017823431"/>
  <path d="M 70.85761939236053, 37.31638256766712 Q 74.06167074997965, 30.504416764098075, 77.57717261375718, 19.14268106583041 " fill="none" id="curve_3" stroke="#000000" stroke-linecap="round" stroke-linejoin="round" stroke-width="3.7848633282290525"/>
  <path d="M 71.96995624168376, 31.658866665816397 Q 74.29145446660179, 27.493781785088704, 76.8156959218939, 22.237666064062594 " fill="none" id="curve_4" stroke="#000000" stroke-linecap="round" stroke-linejoin="round" stroke-width="4.251788816673707"/>
  <path d="M 76.8156959218939, 22.237666064062594 Q 75.00396842588695, 28.570553561105218, 70.73661226135954, 35.072468571992786 " fill="none" id="curve_4" stroke="#000000" stroke-linecap="round" stroke-linejoin="round" stroke-width="3.706550958634109"/>
  <path d="M 57.093761390605344, 74.31652642511017 Q 53.85764476984721, 78.9640368899386, 52.68946734621497, 110.89849813681397 " fill="none" id="curve_5" stroke="#000000" stroke-linecap="round" stroke-linejoin="round" stroke-width="3.5765036646024466"/>
  <path d="M 53.730839410120765, 88.79538120297904 Q 56.77055392225941, 84.41748222763376, 58.30544348224604, 68.98093106095862 " fill="none" id="curve_6" stroke="#000000" stroke-linecap="round" stroke-linejoin="round" stroke-width="3.602320335290423"/>
  <path d="M 58.30544348224604, 68.98093106095862 Q 55.698256107433096, 78.04384996607835, 52.296516676016054, 89.19072646448979 " fill="none" id="curve_6" stroke="#000000" stroke-linecap="round" stroke-linejoin="round" stroke-width="3.532348928998623"/>
  <path d="M 53.55788060618828, 112.63924596735535 Q 53.55534034153853, 112.80523625823682, 53.55180146432521, 113.01144617124363 " fill="none" id="curve_7" stroke="#000000" stroke-linecap="round" stroke-linejoin="round" stroke-width="3.0687151277917963"/>
  <path d="M 21.76029212106732, 98.72181146996053 Q 17.245690168876493, 103.95951005055353, 8.686489909704207, 115.38473948538794 " fill="none" id="curve_8" stroke="#000000" stroke-linecap="round" stroke-linejoin="round" stroke-width="2.290002774626594"/>
  <path d="M 65.89488051752956, 46.89434663257918 Q 61.650485135051525, 51.27651520997009, 57.65395676820567, 60.002355847567806 " fill="none" id="curve_15" stroke="#000000" stroke-linecap="round" stroke-linejoin="round" stroke-width="3.8864436932233932"/>
  <path d="M 76.13082885742188, 21.701751708984375 Q 72.76096861801769, 25.07122993465974, 69.58936478588436, 34.97838966803272 " fill="none" id="curve_29" stroke="#000000" stroke-linecap="round" stroke-linejoin="round" stroke-width="3.2134182613883393"/>
  <path d="M 58.901943666104756, 67.32015216565537 Q 57.30295207729063, 71.2139229411978, 55.74331174965408, 80.24163303532252 " fill="none" id="curve_33" stroke="#000000" stroke-linecap="round" stroke-linejoin="round" stroke-width="3.1576308465559406"/>
  <path d="M 2.514098364544221, 119.23721919627472 Q 3.0124224706709755, 118.90440991604444, 3.7269036121567205, 118.25530183442 " fill="none" id="curve_42" stroke="#000000" stroke-linecap="round" stroke-linejoin="round" stroke-width="2.725462624158826"/>
  <path d="M 55.4927855029232, 69.410184865812 Q 56.65315766848176, 70.56884733230888, 57.25754857949657, 76.36681117753318 " fill="none" id="curve_57" stroke="#000000" stroke-linecap="round" stroke-linejoin="round" stroke-width="3.179586480484096"/>
  <path d="M 52.64412327564909, 97.01952028816036 Q 53.7248174358283, 95.17368826334786, 54.458995986119234, 90.20603387688489 " fill="none" id="curve_58" stroke="#000000" stroke-linecap="round" stroke-linejoin="round" stroke-width="3.49889575676208"/>
  <path d="M 41.43114347111779, 78.63496103955971 Q 33.72960790047382, 82.48155191341692, 25.89876464955762, 94.70891932013566 " fill="none" id="curve_61" stroke="#000000" stroke-linecap="round" stroke-linejoin="round" stroke-width="2.638872109337521"/>
  <path d="M 54.5262151743068, 60.27734340218797 Q 56.682599605446505, 58.127420034800345, 63.7266471898227, 55.571509335018696 " fill="none" id="curve_102" stroke="#000000" stroke-linecap="round" stroke-linejoin="round" stroke-width="2.886993702267747"/>
  <path d="M 72.47798156738281, 35.71288299560547 Q 74.28933778249527, 31.163680629288653, 77.22151073358913, 22.637225849756135 " fill="none" id="curve_116" stroke="#000000" stroke-linecap="round" stroke-linejoin="round" stroke-width="2.4042259790228715"/>
</svg>
