<?xml version="1.0" ?>
<svg height="140" width="140" xmlns="http://www.w3.org/2000/svg">
  <path d="M 48.07844543457031, 109.99445056915283 Q 47.376078256645904, 107.96655105243643, 43.94485641673964, 106.82714213522422 " fill="none" id="curve_1" stroke="#000000" stroke-linecap="round" stroke-linejoin="round" stroke-width="9.952845985509317"/>
  <path d="M 43.94485641673964, 106.82714213522422 Q 44.49926884450287, 96.33634952185712, 46.95192676137789, 87.11384678980762 " fill="none" id="curve_1" stroke="#000000" stroke-linecap="round" stroke-linejoin="round" stroke-width="6.088590356322305"/>
  <path d="M 46.95192676137789, 87.11384678980762 Q 50.81926179500187, 79.13714796378993, 57.60630281873482, 59.15132177984189 " fill="none" id="curve_1" stroke="#000000" stroke-linecap="round" stroke-linejoin="round" stroke-width="6.450784164842463"/>
  <path d="M 57.60630281873482, 59.15132177984189 Q 60.8214610810863, 55.05673624303191, 62.245434764772945, 30.731512036171953 " fill="none" id="curve_1" stroke="#000000" stroke-linecap="round" stroke-linejoin="round" stroke-width="6.913515369968323"/>
  <path d="M 62.245434764772945, 30.731512036171953 Q 56.82461564078412, 42.57472757382084, 31.571686254647194, 60.70834633414445 " fill="none" id="curve_1" stroke="#000000" stroke-linecap="round" stroke-linejoin="round" stroke-width="6.141940978389197"/>
  <path d="M 31.571686254647194, 60.70834633414445 Q 26.59966529428945, 64.73084442780626, 23.232802813095056, 70.40342241741206 " fill="none" id="curve_1" stroke="#000000" stroke-linecap="round" stroke-linejoin="round" stroke-width="9.99062502580843"/>
  <path d="M 48.682430552305334, 109.38466183032455 Q 47.933044918374804, 109.55946220309146, 47.36231946673529, 109.95915034335815 " fill="none" id="curve_2" stroke="#000000" stroke-linecap="round" stroke-linejoin="round" stroke-width="7.729716202001623"/>
  <path d="M 19.977353642973494, 71.37503318920466 Q 22.531261060804496, 66.50052149692964, 28.494421517092103, 60.588508948420994 " fill="none" id="curve_3" stroke="#000000" stroke-linecap="round" stroke-linejoin="round" stroke-width="4.032964686798077"/>
  <path d="M 61.71681352209573, 28.617157032203508 Q 57.988497651338434, 38.43500354312207, 44.16039560530198, 49.292123113081665 " fill="none" id="curve_7" stroke="#000000" stroke-linecap="round" stroke-linejoin="round" stroke-width="3.2019129903496784"/>
  <path d="M 44.16039560530198, 49.292123113081665 Q 36.41413488907668, 54.24830915715532, 28.05172372597475, 63.76379952953914 " fill="none" id="curve_7" stroke="#000000" stroke-linecap="round" stroke-linejoin="round" stroke-width="3.6565266730012826"/>
  <path d="M 28.05172372597475, 63.76379952953914 Q 23.158897389860925, 64.61275769049112, 20.494690230492488, 67.33451786119319 " fill="none" id="curve_7" stroke="#000000" stroke-linecap="round" stroke-linejoin="round" stroke-width="3.792987386202476"/>
  <path d="M 49.5636697826218, 108.13357284322751 Q 50.353053718703656, 108.14972815303135, 50.74007412442898, 108.23197409172666 " fill="none" id="curve_8" stroke="#000000" stroke-linecap="round" stroke-linejoin="round" stroke-width="5.12079810569596"/>
  <path d="M 44.44466355030696, 111.67522386658888 Q 45.293267427009624, 111.8878380259005, 46.10589133757749, 112.31754473001264 " fill="none" id="curve_10" stroke="#000000" stroke-linecap="round" stroke-linejoin="round" stroke-width="3.537547296503033"/>
  <path d="M 49.029068958936456, 78.37065002100003 Q 51.70428534631366, 73.98262832647691, 55.078632949707256, 65.3648689989411 " fill="none" id="curve_11" stroke="#000000" stroke-linecap="round" stroke-linejoin="round" stroke-width="2.853729916423944"/>
  <path d="M 59.2436868839129, 32.03016185915781 Q 59.86472169723283, 30.607767043024573, 61.158731723345305, 29.216150675486507 " fill="none" id="curve_12" stroke="#000000" stroke-linecap="round" stroke-linejoin="round" stroke-width="3.6377182568951696"/>
  <path d="M 42.48994639361102, 51.24628545381637 Q 33.8196555034184, 54.87804277081161, 27.251896030676587, 66.95317663021855 " fill="none" id="curve_18" stroke="#000000" stroke-linecap="round" stroke-linejoin="round" stroke-width="3.377197336148089"/>
  <path d="M 23.423233867641954, 73.10685133341632 Q 23.484930329171984, 71.25811256111089, 23.61740693249544, 67.7152441195828 " fill="none" id="curve_20" stroke="#000000" stroke-linecap="round" stroke-linejoin="round" stroke-width="2.907785476593174"/>
  <path d="M 23.61740693249544, 67.7152441195828 Q 31.261827266419296, 64.1872717945151, 38.73100348406291, 56.112340894154656 " fill="none" id="curve_20" stroke="#000000" stroke-linecap="round" stroke-linejoin="round" stroke-width="3.3496466144334627"/>
  <path d="M 55.75367483031579, 36.24504682541004 Q 54.4219280667798, 38.11697438451547, 52.2769868487195, 41.577829034601606 " fill="none" id="curve_21" stroke="#000000" stroke-linecap="round" stroke-linejoin="round" stroke-width="3.589917793908598"/>
  <path d="M 48.0501315029627, 50.672865749820176 Q 46.73622836139197, 50.78087478284882, 43.42565472648618, 50.95834930462944 " fill="none" id="curve_36" stroke="#000000" stroke-linecap="round" stroke-linejoin="round" stroke-width="2.3789997906890394"/>
  <path d="M 56.9915619940565, 55.9593656564175 Q 57.398821853261936, 54.053619619627526, 58.39756252022878, 51.40313450536587 " fill="none" id="curve_64" stroke="#000000" stroke-linecap="round" stroke-linejoin="round" stroke-width="3.5468631038749137"/>
  <path d="M 47.721963765147095, 84.52228128759566 Q 51.63589212367404, 74.61220226452166, 58.372544059051684, 58.32171358175098 " fill="none" id="curve_123" stroke="#000000" stroke-linecap="round" stroke-linejoin="round" stroke-width="2.6763209708285634"/>
</svg>
