<?xml version="1.0" ?>
<svg height="140" width="140" xmlns="http://www.w3.org/2000/svg">
  <path d="M 58.86841378376539, 65.61052585425932 Q 59.28034014979688, 58.39720193771247, 60.38741846410086, 42.95852270073378 " fill="none" id="curve_2" stroke="#000000" stroke-linecap="round" stroke-linejoin="round" stroke-width="4.6621986960277795"/>
  <path d="M 60.38741846410086, 42.95852270073378 Q 61.24138209701134, 29.692835752058187, 66.55704206885493, 15.588851881789278 " fill="none" id="curve_2" stroke="#000000" stroke-linecap="round" stroke-linejoin="round" stroke-width="5.6683652653249625"/>
  <path d="M 66.55704206885493, 15.588851881789278 Q 63.294626476340234, 25.708846504368417, 58.015210346820574, 36.455255508512465 " fill="none" id="curve_2" stroke="#000000" stroke-linecap="round" stroke-linejoin="round" stroke-width="5.52957979836117"/>
  <path d="M 58.015210346820574, 36.455255508512465 Q 53.73502141102965, 48.85902363551073, 34.659177015745186, 76.77485011302194 " fill="none" id="curve_2" stroke="#000000" stroke-linecap="round" stroke-linejoin="round" stroke-width="4.250434621643818"/>
  <path d="M 34.659177015745186, 76.77485011302194 Q 32.49742731913492, 85.44059705264117, 26.426242820176096, 89.58459281325123 " fill="none" id="curve_2" stroke="#000000" stroke-linecap="round" stroke-linejoin="round" stroke-width="4.199821563335874"/>
  <path d="M 58.962175127081636, 68.63572307955576 Q 57.39160928587055, 75.96092918239995, 55.10438623729103, 107.00198786692073 " fill="none" id="curve_3" stroke="#000000" stroke-linecap="round" stroke-linejoin="round" stroke-width="4.059336218972444"/>
  <path d="M 55.10438623729103, 107.00198786692073 Q 55.048969108023556, 120.25121532219426, 54.906134307548086, 127.80039997566638 " fill="none" id="curve_3" stroke="#000000" stroke-linecap="round" stroke-linejoin="round" stroke-width="3.3754301422968616"/>
  <path d="M 48.238409838121065, 51.087046597376194 Q 51.268258390570445, 44.870206291031266, 57.15791633406191, 38.6527790017247 " fill="none" id="curve_6" stroke="#000000" stroke-linecap="round" stroke-linejoin="round" stroke-width="2.81124801954414"/>
  <path d="M 63.56814404382521, 16.842303439952055 Q 64.61018832399914, 15.327666197756827, 66.73625547263426, 14.500438712675958 " fill="none" id="curve_7" stroke="#000000" stroke-linecap="round" stroke-linejoin="round" stroke-width="4.597827745786207"/>
  <path d="M 57.58703687203036, 77.82707565978295 Q 58.094847862663855, 77.07956804120266, 58.85268932330367, 74.47872520797414 " fill="none" id="curve_23" stroke="#000000" stroke-linecap="round" stroke-linejoin="round" stroke-width="2.4432743982043967"/>
  <path d="M 2.4412482006358647, 137.57806304614385 Q 1.963260213203002, 136.66323211391543, 1.693667656508125, 133.10052019639653 " fill="none" id="curve_25" stroke="#000000" stroke-linecap="round" stroke-linejoin="round" stroke-width="3.0734570231334857"/>
  <path d="M 3.858264068671996, 138.50503466853837 Q 4.0437143370527755, 138.61461460683083, 4.458930272107546, 138.72315009548575 " fill="none" id="curve_26" stroke="#000000" stroke-linecap="round" stroke-linejoin="round" stroke-width="2.9019945005295544"/>
  <path d="M 34.986280452065394, 76.7180379971475 Q 31.530574769635216, 82.03709548396209, 26.686087644592835, 88.92311830011235 " fill="none" id="curve_28" stroke="#000000" stroke-linecap="round" stroke-linejoin="round" stroke-width="2.4836411708329593"/>
  <path d="M 1.9593384851323954, 71.75297880549385 Q 1.183450991597478, 70.89027835745901, 0.9366366637677355, 63.26821953105231 " fill="none" id="curve_29" stroke="#000000" stroke-linecap="round" stroke-linejoin="round" stroke-width="1.8449225091008143"/>
  <path d="M 0.46376752854402975, 46.976296222869976 Q 0.6670304655356554, 45.10117775155594, 0.7726495669294396, 34.32075123979787 " fill="none" id="curve_30" stroke="#000000" stroke-linecap="round" stroke-linejoin="round" stroke-width="1.3468676119556735"/>
  <path d="M 0.7726495669294396, 34.32075123979787 Q 0.7838423820760035, 29.091528828237273, 0.8137039253001521, 24.979551224040385 " fill="none" id="curve_30" stroke="#000000" stroke-linecap="round" stroke-linejoin="round" stroke-width="1.7379389696374195"/>
  <path d="M 0.7070431915431004, 12.461151763727376 Q 0.7986349446680876, 9.503201393091341, 0.8889379794586167, 1.027078087766828 " fill="none" id="curve_31" stroke="#000000" stroke-linecap="round" stroke-linejoin="round" stroke-width="1.2559948166790482"/>
  <path d="M 60.06697143017933, 48.05102829641889 Q 58.44926629735974, 48.838654719462745, 57.596842285669815, 51.21330098986432 " fill="none" id="curve_36" stroke="#000000" stroke-linecap="round" stroke-linejoin="round" stroke-width="3.0046802705366997"/>
  <path d="M 66.84764800600115, 17.146973005827586 Q 67.87184323785456, 16.6922899325477, 68.57108953530414, 15.653895596659614 " fill="none" id="curve_38" stroke="#000000" stroke-linecap="round" stroke-linejoin="round" stroke-width="3.8892975859249237"/>
  <path d="M 55.94353489712334, 41.233356409063504 Q 55.674055117695694, 40.028874607462484, 54.94939633951816, 38.8159347487284 " fill="none" id="curve_39" stroke="#000000" stroke-linecap="round" stroke-linejoin="round" stroke-width="3.222398969313574"/>
  <path d="M 55.9537683983851, 98.58204052986903 Q 56.240869541482205, 95.79801803416844, 56.45255651033081, 87.71991574344511 " fill="none" id="curve_41" stroke="#000000" stroke-linecap="round" stroke-linejoin="round" stroke-width="2.63280101453146"/>
  <path d="M 56.027436651665305, 102.6595863831168 Q 56.1919110188985, 96.69307692966595, 56.57946175997235, 90.14723525294477 " fill="none" id="curve_42" stroke="#000000" stroke-linecap="round" stroke-linejoin="round" stroke-width="2.4648277081301213"/>
  <path d="M 57.643687835322, 60.64511395696513 Q 57.73464580424909, 60.008596064124944, 57.87265955022788, 58.84487309719788 " fill="none" id="curve_57" stroke="#000000" stroke-linecap="round" stroke-linejoin="round" stroke-width="3.738730290880685"/>
  <path d="M 24.051854178841946, 90.64983573921108 Q 24.014329929863564, 90.33460007298878, 23.960881976468684, 90.0033957292891 " fill="none" id="curve_72" stroke="#000000" stroke-linecap="round" stroke-linejoin="round" stroke-width="3.284279032506626"/>
  <path d="M 32.157599502091585, 80.38263710334414 Q 30.957459406199245, 81.35664618139148, 29.846091801790212, 83.96616957030076 " fill="none" id="curve_82" stroke="#000000" stroke-linecap="round" stroke-linejoin="round" stroke-width="2.8612130519353376"/>
  <path d="M 58.441134343667834, 43.48301128921558 Q 60.102444023027026, 42.89171091633566, 61.897960354592016, 41.795839556459114 " fill="none" id="curve_99" stroke="#000000" stroke-linecap="round" stroke-linejoin="round" stroke-width="3.1981182788475486"/>
  <path d="M 58.879899106131575, 69.07747471541461 Q 58.36545170262068, 68.82983313955876, 57.79749573171223, 68.23131995728124 " fill="none" id="curve_127" stroke="#000000" stroke-linecap="round" stroke-linejoin="round" stroke-width="3.583089643508765"/>
  <path d="M 47.68162823120939, 56.308129587202956 Q 47.87849084813545, 56.80649874950927, 48.24083093831084, 57.81175412768616 " fill="none" id="curve_135" stroke="#000000" stroke-linecap="round" stroke-linejoin="round" stroke-width="2.9431313032831836"/>
  <path d="M 56.838247150157045, 97.8020731211821 Q 56.829370595818446, 92.64174496037784, 56.61376696999207, 92.12807684827094 " fill="none" id="curve_177" stroke="#000000" stroke-linecap="round" stroke-linejoin="round" stroke-width="2.539208290464746"/>
  <path d="M 49.24102697973533, 56.11628070787569 Q 48.70973315482396, 56.5834347569127, 47.40331055539737, 57.119843432811685 " fill="none" id="curve_180" stroke="#000000" stroke-linecap="round" stroke-linejoin="round" stroke-width="3.425485326362732"/>
  <path d="M 57.54779804912286, 77.89388243377313 Q 58.02818693900442, 75.59770175348382, 58.7045338021634, 70.63849322895653 " fill="none" id="curve_190" stroke="#000000" stroke-linecap="round" stroke-linejoin="round" stroke-width="3.019958457757329"/>
  <path d="M 56.93358020177662, 79.26124948952412 Q 57.196295139676636, 77.97835880983402, 57.695070081043106, 75.33456494372477 " fill="none" id="curve_191" stroke="#000000" stroke-linecap="round" stroke-linejoin="round" stroke-width="2.4132939522117507"/>
</svg>
