<?xml version="1.0" ?>
<svg height="140" width="140" xmlns="http://www.w3.org/2000/svg">
  <path d="M 69.7537612915039, 40.38579487800598 Q 70.17341276956145, 37.476528900425734, 71.65879446233404, 35.714124004072346 " fill="none" id="curve_1" stroke="#000000" stroke-linecap="round" stroke-linejoin="round" stroke-width="4.431990447303277"/>
  <path d="M 71.65879446233404, 35.714124004072346 Q 70.77404255094454, 42.835748294157746, 66.93468726189228, 54.22021014082994 " fill="none" id="curve_1" stroke="#000000" stroke-linecap="round" stroke-linejoin="round" stroke-width="3.433138177136607"/>
  <path d="M 66.93468726189228, 54.22021014082994 Q 63.96583629005567, 61.82879588974863, 57.58942718652412, 76.71331055383153 " fill="none" id="curve_1" stroke="#000000" stroke-linecap="round" stroke-linejoin="round" stroke-width="4.507614547916175"/>
  <path d="M 57.58942718652412, 76.71331055383153 Q 54.490458487487224, 82.57316509827389, 52.969129035762386, 99.83761265727152 " fill="none" id="curve_1" stroke="#000000" stroke-linecap="round" stroke-linejoin="round" stroke-width="6.246022469466281"/>
  <path d="M 32.83245617616767, 75.31204158740535 Q 31.79143029542965, 82.01203532607119, 25.57411418652563, 84.16908202406432 " fill="none" id="curve_2" stroke="#000000" stroke-linecap="round" stroke-linejoin="round" stroke-width="5.00476552249377"/>
  <path d="M 25.57411418652563, 84.16908202406432 Q 33.879717033204784, 77.5955406145125, 46.4100747343081, 60.72784216140239 " fill="none" id="curve_2" stroke="#000000" stroke-linecap="round" stroke-linejoin="round" stroke-width="3.8437756475269835"/>
  <path d="M 46.4100747343081, 60.72784216140239 Q 48.57300780067286, 59.52826490093896, 50.37418702155508, 57.44339844686183 " fill="none" id="curve_2" stroke="#000000" stroke-linecap="round" stroke-linejoin="round" stroke-width="2.7927840763672354"/>
  <path d="M 55.455940845013565, 97.15657108108286 Q 55.598700078945356, 99.7198416210026, 56.4443015914264, 100.455851270674 " fill="none" id="curve_3" stroke="#000000" stroke-linecap="round" stroke-linejoin="round" stroke-width="3.4903869415374125"/>
  <path d="M 58.94407662960432, 75.55983931502695 Q 58.043776392715635, 86.14474983646123, 51.63947652243418, 88.69694679829854 " fill="none" id="curve_4" stroke="#000000" stroke-linecap="round" stroke-linejoin="round" stroke-width="3.7729669936705728"/>
  <path d="M 40.764080061109034, 66.46053426304837 Q 35.2427212528755, 70.65124899430464, 31.388140211394813, 81.22934351427406 " fill="none" id="curve_5" stroke="#000000" stroke-linecap="round" stroke-linejoin="round" stroke-width="3.490968116973582"/>
  <path d="M 31.388140211394813, 81.22934351427406 Q 28.963042921039218, 82.81437041316977, 24.374025128937056, 83.78619147092584 " fill="none" id="curve_5" stroke="#000000" stroke-linecap="round" stroke-linejoin="round" stroke-width="5.137714982661503"/>
  <path d="M 70.12855253503724, 42.64266411502074 Q 69.96145293619011, 40.826293716874176, 69.36652217635022, 39.89951396967807 " fill="none" id="curve_7" stroke="#000000" stroke-linecap="round" stroke-linejoin="round" stroke-width="4.9341372536920645"/>
  <path d="M 64.50219139612082, 59.3974692623636 Q 65.99319654402242, 53.411340883383744, 70.66526718501403, 48.678560531612156 " fill="none" id="curve_11" stroke="#000000" stroke-linecap="round" stroke-linejoin="round" stroke-width="2.2232922359893306"/>
  <path d="M 37.33482179443276, 77.35135331172563 Q 26.978425333238086, 77.53924934907486, 25.781762197576953, 84.4220166816676 " fill="none" id="curve_12" stroke="#000000" stroke-linecap="round" stroke-linejoin="round" stroke-width="2.985560717930424"/>
  <path d="M 25.781762197576953, 84.4220166816676 Q 27.43773786036077, 84.60257432225009, 29.20659055008072, 84.84154040596394 " fill="none" id="curve_12" stroke="#000000" stroke-linecap="round" stroke-linejoin="round" stroke-width="4.191962949798008"/>
  <path d="M 60.15012375353887, 69.42912802867839 Q 59.990218605509284, 73.30716898482974, 58.550117665461826, 74.45476773990067 " fill="none" id="curve_13" stroke="#000000" stroke-linecap="round" stroke-linejoin="round" stroke-width="3.903197239722151"/>
  <path d="M 58.550117665461826, 74.45476773990067 Q 59.578800108242106, 71.8182286604831, 61.752945678420986, 69.85982934058391 " fill="none" id="curve_13" stroke="#000000" stroke-linecap="round" stroke-linejoin="round" stroke-width="3.754758231997331"/>
  <path d="M 55.77977626454183, 82.30798667223453 Q 54.17500662647738, 83.02407067089786, 52.73866218410067, 85.19168048215077 " fill="none" id="curve_18" stroke="#000000" stroke-linecap="round" stroke-linejoin="round" stroke-width="3.4100357728970656"/>
  <path d="M 71.66740454901391, 40.80781698680188 Q 70.6468702139127, 43.73394923590846, 68.13684114159447, 48.919452592354524 " fill="none" id="curve_21" stroke="#000000" stroke-linecap="round" stroke-linejoin="round" stroke-width="2.3625419218078747"/>
  <path d="M 63.45650847869836, 59.97630871687232 Q 65.85457411188123, 56.13520859987834, 69.88763623084851, 50.06415332831138 " fill="none" id="curve_26" stroke="#000000" stroke-linecap="round" stroke-linejoin="round" stroke-width="1.8771615472557468"/>
  <path d="M 63.69680315731082, 57.811562425913976 Q 64.3342996693868, 55.04295732683762, 67.41263481753249, 53.78483316356907 " fill="none" id="curve_29" stroke="#000000" stroke-linecap="round" stroke-linejoin="round" stroke-width="2.3054454717973525"/>
  <path d="M 50.87452439165868, 93.91754140739836 Q 51.51771508481256, 93.43554855160286, 52.35150181563318, 92.57555485993677 " fill="none" id="curve_32" stroke="#000000" stroke-linecap="round" stroke-linejoin="round" stroke-width="3.0732471552091103"/>
  <path d="M 1.4356614821153668, 139.5566806517633 Q 1.4068892621667415, 138.32540383695752, 1.3751300111553166, 136.01905956540062 " fill="none" id="curve_34" stroke="#000000" stroke-linecap="round" stroke-linejoin="round" stroke-width="1.5672851022034224"/>
  <path d="M 23.248529076549765, 83.45945810572302 Q 25.951659011203738, 79.33398549357815, 35.01299479825066, 76.54846601940747 " fill="none" id="curve_38" stroke="#000000" stroke-linecap="round" stroke-linejoin="round" stroke-width="3.1434756274596656"/>
  <path d="M -0.5318107604980469, 8.777103424072266 Q 0.4639748657387126, 7.982746009315304, 0.8626972977918257, 1.2541079394401322 " fill="none" id="curve_52" stroke="#000000" stroke-linecap="round" stroke-linejoin="round" stroke-width="1.5837947084131807"/>
  <path d="M 1.3840657222065382, 12.140897524978119 Q 1.2389612769317595, 10.99242361505434, 1.0480356549990866, 9.367470615991348 " fill="none" id="curve_53" stroke="#000000" stroke-linecap="round" stroke-linejoin="round" stroke-width="1.4118557929967017"/>
  <path d="M 67.94472087825962, 46.25668555699946 Q 70.15807854750143, 44.70953215093626, 71.81434727498736, 41.60551503295369 " fill="none" id="curve_94" stroke="#000000" stroke-linecap="round" stroke-linejoin="round" stroke-width="3.1176919672916648"/>
</svg>
