<?xml version="1.0" ?>
<svg height="140" width="140" xmlns="http://www.w3.org/2000/svg">
  <path d="M 59.76782989501953, 36.21389961242676 Q 58.76163724837902, 41.74091285434812, 52.81028026250806, 43.86001480583877 " fill="none" id="curve_1" stroke="#000000" stroke-linecap="round" stroke-linejoin="round" stroke-width="3.221032437152128"/>
  <path d="M 52.81028026250806, 43.86001480583877 Q 49.5634157741273, 46.80262101913796, 45.825076476637946, 51.01514057896571 " fill="none" id="curve_1" stroke="#000000" stroke-linecap="round" stroke-linejoin="round" stroke-width="2.289618441099547"/>
  <path d="M 38.432205718652376, 58.33716170444933 Q 33.51481753486888, 63.22683131608586, 26.682590238288583, 73.25352723040974 " fill="none" id="curve_2" stroke="#000000" stroke-linecap="round" stroke-linejoin="round" stroke-width="3.340728667574226"/>
  <path d="M 22.223922958228265, 79.36879963267899 Q 22.068874293367006, 79.16120163232296, 21.961454876149332, 78.76435135713054 " fill="none" id="curve_3" stroke="#000000" stroke-linecap="round" stroke-linejoin="round" stroke-width="4.845076585903058"/>
  <path d="M 40.26019548380966, 56.23071074806895 Q 42.27995126979818, 55.74230193838427, 43.52914223003833, 54.20067292114277 " fill="none" id="curve_4" stroke="#000000" stroke-linecap="round" stroke-linejoin="round" stroke-width="3.244744277219508"/>
  <path d="M 67.84240349150535, 56.0279509423973 Q 69.53253179151191, 65.88977713998275, 70.89543244664314, 86.07582448164636 " fill="none" id="curve_5" stroke="#000000" stroke-linecap="round" stroke-linejoin="round" stroke-width="4.121517861336218"/>
  <path d="M 67.34169019421554, 54.06848431370861 Q 66.91739698195344, 43.12684401409189, 65.94327532839026, 30.28953859231302 " fill="none" id="curve_6" stroke="#000000" stroke-linecap="round" stroke-linejoin="round" stroke-width="5.3647519674335085"/>
  <path d="M 65.94327532839026, 30.28953859231302 Q 63.74274418849724, 35.63038787400616, 58.439498926995896, 38.97154067805839 " fill="none" id="curve_6" stroke="#000000" stroke-linecap="round" stroke-linejoin="round" stroke-width="3.600789896404431"/>
  <path d="M 68.13001874163982, 28.33154684409604 Q 67.93153065409085, 28.32119946337793, 67.77744777904336, 28.293594675274278 " fill="none" id="curve_7" stroke="#000000" stroke-linecap="round" stroke-linejoin="round" stroke-width="3.5469494004152247"/>
  <path d="M 65.70853610982664, 48.48655052613324 Q 66.74842587953864, 47.93208197772917, 67.25684094687492, 45.5461978500251 " fill="none" id="curve_8" stroke="#000000" stroke-linecap="round" stroke-linejoin="round" stroke-width="4.718647795223235"/>
  <path d="M 69.87055373191833, 86.49725341796875 Q 69.66588101099656, 84.95958134098493, 69.2331238778932, 82.80157504595488 " fill="none" id="curve_22" stroke="#000000" stroke-linecap="round" stroke-linejoin="round" stroke-width="2.5684099158459928"/>
  <path d="M 67.41676818390434, 61.620212352978875 Q 67.88462080122298, 65.05037755477468, 68.44959881715268, 70.22481289763275 " fill="none" id="curve_23" stroke="#000000" stroke-linecap="round" stroke-linejoin="round" stroke-width="2.471296113310729"/>
  <path d="M 70.39713958066386, 76.36790651254694 Q 69.73034771749299, 76.09262740746811, 68.90297639109495, 75.64153268333064 " fill="none" id="curve_38" stroke="#000000" stroke-linecap="round" stroke-linejoin="round" stroke-width="4.6378943396430365"/>
  <path d="M 1.5637442392676912, 57.993384251383524 Q 1.116980694177333, 72.50527232924347, -0.778016087986364, 104.91202881256305 " fill="none" id="curve_43" stroke="#000000" stroke-linecap="round" stroke-linejoin="round" stroke-width="1.4901642341839874"/>
  <path d="M 1.4642492192502201, 138.28039821805285 Q 1.0975306254895187, 133.53945027121713, 0.6862237269265329, 118.8487447534797 " fill="none" id="curve_44" stroke="#000000" stroke-linecap="round" stroke-linejoin="round" stroke-width="1.9541532538829745"/>
  <path d="M 0.6418215891751139, 104.05663101063512 Q 0.7986008461831655, 104.4036610110211, 0.9899575454507888, 105.54797739629655 " fill="none" id="curve_45" stroke="#000000" stroke-linecap="round" stroke-linejoin="round" stroke-width="1.7633417930309527"/>
  <path d="M 0.96856689453125, 114.12237358093262 Q 0.9553868487111332, 111.01010020718195, 0.9283390976691444, 106.2395060862188 " fill="none" id="curve_59" stroke="#000000" stroke-linecap="round" stroke-linejoin="round" stroke-width="1.120312382885264"/>
  <path d="M 1.1961416126165496, 101.07783088629911 Q 0.8759441788159097, 99.05989968483259, 0.6902663917660764, 87.488386359176 " fill="none" id="curve_60" stroke="#000000" stroke-linecap="round" stroke-linejoin="round" stroke-width="1.1608114797910922"/>
  <path d="M 38.46852680541782, 58.47843994243307 Q 38.51761401726217, 55.593888799100526, 40.18483796648036, 55.37368458913174 " fill="none" id="curve_63" stroke="#000000" stroke-linecap="round" stroke-linejoin="round" stroke-width="2.543300712010961"/>
  <path d="M 67.90422729950372, 32.211075723208815 Q 67.72745084906565, 30.915872702837113, 66.98416335553962, 29.92655271322316 " fill="none" id="curve_65" stroke="#000000" stroke-linecap="round" stroke-linejoin="round" stroke-width="2.6998739096868403"/>
  <path d="M 47.27855458145597, 49.52908657479948 Q 46.892502873924855, 50.030647770964556, 45.94671873413082, 50.47738206203205 " fill="none" id="curve_66" stroke="#000000" stroke-linecap="round" stroke-linejoin="round" stroke-width="2.519291110269945"/>
  <path d="M 45.94671873413082, 50.47738206203205 Q 46.37480337464138, 50.62203024117698, 47.166317730701486, 50.939943295709966 " fill="none" id="curve_66" stroke="#000000" stroke-linecap="round" stroke-linejoin="round" stroke-width="2.0363037491269216"/>
  <path d="M 1.1350276508741963, 31.526219111756408 Q 1.0220706099126895, 42.63441770783392, 0.5521079690224756, 52.14734559262244 " fill="none" id="curve_69" stroke="#000000" stroke-linecap="round" stroke-linejoin="round" stroke-width="1.1443106082595518"/>
  <path d="M 67.01783022431073, 56.637439364259535 Q 67.00659447499808, 43.430939331532514, 66.81566661088756, 41.45807536967773 " fill="none" id="curve_84" stroke="#000000" stroke-linecap="round" stroke-linejoin="round" stroke-width="2.7029868150231646"/>
  <path d="M 28.785307936153004, 72.57609527748195 Q 28.448629640624905, 71.80279000493748, 27.986709808529596, 70.72453475295642 " fill="none" id="curve_99" stroke="#000000" stroke-linecap="round" stroke-linejoin="round" stroke-width="3.887346271375089"/>
  <path d="M 65.29229490899782, 51.51759666058105 Q 65.54792312614342, 45.573887049659305, 68.0311080911228, 44.02851704244195 " fill="none" id="curve_100" stroke="#000000" stroke-linecap="round" stroke-linejoin="round" stroke-width="3.7958778941966353"/>
  <path d="M 56.83275385438003, 40.28748649712203 Q 59.90859331835523, 36.46872012285905, 65.18522714185163, 31.47260809990934 " fill="none" id="curve_117" stroke="#000000" stroke-linecap="round" stroke-linejoin="round" stroke-width="2.442316402797517"/>
  <path d="M 68.18003010088295, 27.21379485201274 Q 67.75300675599136, 27.717836708964686, 66.76401213481839, 28.334897591641234 " fill="none" id="curve_118" stroke="#000000" stroke-linecap="round" stroke-linejoin="round" stroke-width="2.270850221538499"/>
  <path d="M 0.9748300109151558, 20.02439140643071 Q 0.9800676917614706, 18.247796458509185, 0.9889142355649703, 15.397392506928137 " fill="none" id="curve_133" stroke="#000000" stroke-linecap="round" stroke-linejoin="round" stroke-width="1.180007093397229"/>
  <path d="M 0.6820292887262567, 3.735934207304524 Q 0.8040394185595402, 3.071620431479716, 1.099134536554791, 2.0851589092999205 " fill="none" id="curve_134" stroke="#000000" stroke-linecap="round" stroke-linejoin="round" stroke-width="1.1338210912546416"/>
  <path d="M 69.06758175532264, 73.86937471416331 Q 69.0400129694304, 73.6783971193748, 68.92156559307608, 73.6037665138091 " fill="none" id="curve_149" stroke="#000000" stroke-linecap="round" stroke-linejoin="round" stroke-width="4.233960967626476"/>
  <path d="M 65.11676024844914, 46.83302001486048 Q 65.294403969439, 43.768109176194166, 66.20592930406697, 42.629428291180986 " fill="none" id="curve_153" stroke="#000000" stroke-linecap="round" stroke-linejoin="round" stroke-width="2.7812243930647327"/>
  <path d="M 62.21557612969076, 34.06273795589186 Q 62.29376365170773, 33.99590069793242, 62.41439965786785, 33.83957803627783 " fill="none" id="curve_160" stroke="#000000" stroke-linecap="round" stroke-linejoin="round" stroke-width="2.3288555718106707"/>
</svg>
