<?xml version="1.0" ?>
<svg height="140" width="140" xmlns="http://www.w3.org/2000/svg">
  <path d="M 62.04983711242676, 92.01286840438843 Q 60.8196831410635, 86.52116477157503, 57.394949016663986, 75.70797463458234 " fill="none" id="curve_1" stroke="#000000" stroke-linecap="round" stroke-linejoin="round" stroke-width="5.284912891007899"/>
  <path d="M 57.394949016663986, 75.70797463458234 Q 56.9067815190336, 71.92468564848963, 56.525360414334784, 57.62812962608308 " fill="none" id="curve_1" stroke="#000000" stroke-linecap="round" stroke-linejoin="round" stroke-width="5.565572984721612"/>
  <path d="M 56.525360414334784, 57.62812962608308 Q 56.74821979322461, 41.3185489130764, 58.29274957808124, 35.05759160156639 " fill="none" id="curve_1" stroke="#000000" stroke-linecap="round" stroke-linejoin="round" stroke-width="5.531612187784431"/>
  <path d="M 58.29274957808124, 35.05759160156639 Q 53.62153651674093, 45.203050888231125, 34.713010621593625, 68.23204465018573 " fill="none" id="curve_1" stroke="#000000" stroke-linecap="round" stroke-linejoin="round" stroke-width="4.795404910772145"/>
  <path d="M 34.713010621593625, 68.23204465018573 Q 28.43164478082177, 72.78073886862398, 25.35303443496126, 83.94488903115487 " fill="none" id="curve_1" stroke="#000000" stroke-linecap="round" stroke-linejoin="round" stroke-width="4.172173493496696"/>
  <path d="M 25.35303443496126, 83.94488903115487 Q 27.32489446426336, 84.3618131706905, 28.962705145823104, 85.11806713962838 " fill="none" id="curve_1" stroke="#000000" stroke-linecap="round" stroke-linejoin="round" stroke-width="4.021870532885663"/>
  <path d="M 63.95412212225274, 92.77567382656031 Q 63.233264910034144, 91.79301556204226, 62.26654234986864, 90.00016474960998 " fill="none" id="curve_2" stroke="#000000" stroke-linecap="round" stroke-linejoin="round" stroke-width="3.222455408773413"/>
  <path d="M 60.18177141638896, 34.1234848422965 Q 53.66187363968232, 38.81771772958115, 41.50072883765776, 56.94047268187366 " fill="none" id="curve_4" stroke="#000000" stroke-linecap="round" stroke-linejoin="round" stroke-width="2.3328575445987805"/>
  <path d="M 57.62237309237277, 33.22435042508285 Q 57.564392623589406, 34.18169874698656, 57.430956037022796, 36.03101043936568 " fill="none" id="curve_10" stroke="#000000" stroke-linecap="round" stroke-linejoin="round" stroke-width="2.6562990505035775"/>
  <path d="M 58.248102188969106, 73.61486362235016 Q 59.48278860724549, 77.44458302541226, 60.252290091828236, 88.3914644916155 " fill="none" id="curve_11" stroke="#000000" stroke-linecap="round" stroke-linejoin="round" stroke-width="2.867063953679787"/>
  <path d="M 43.80890384623612, 57.94651620887947 Q 35.054466341735534, 61.41713479729807, 30.80713879659643, 75.85184597641279 " fill="none" id="curve_14" stroke="#000000" stroke-linecap="round" stroke-linejoin="round" stroke-width="2.779175614550088"/>
  <path d="M 59.436190070462196, 73.4209619793996 Q 59.507368683850466, 79.15876915176105, 59.63906459097252, 85.0772058286476 " fill="none" id="curve_16" stroke="#000000" stroke-linecap="round" stroke-linejoin="round" stroke-width="2.8642545259561865"/>
  <path d="M 51.7908411026001, 44.88972854614258 Q 54.902562119156926, 46.529783093465014, 56.37207752240198, 54.56900471755637 " fill="none" id="curve_30" stroke="#000000" stroke-linecap="round" stroke-linejoin="round" stroke-width="2.0377559232195583"/>
  <path d="M 56.37207752240198, 54.56900471755637 Q 56.05382208661098, 49.745393557471104, 54.00885263059128, 47.440010545562615 " fill="none" id="curve_30" stroke="#000000" stroke-linecap="round" stroke-linejoin="round" stroke-width="2.746489341145929"/>
  <path d="M 55.65740668023776, 67.85458390124249 Q 55.347892543676004, 68.18080911569757, 54.94503970594287, 68.95684481057748 " fill="none" id="curve_46" stroke="#000000" stroke-linecap="round" stroke-linejoin="round" stroke-width="4.053687938821533"/>
  <path d="M 55.12594241650959, 51.88008816548813 Q 51.170254825787495, 52.39111894262307, 46.695677733037655, 54.0097082571693 " fill="none" id="curve_61" stroke="#000000" stroke-linecap="round" stroke-linejoin="round" stroke-width="2.572924886015713"/>
  <path d="M 40.657929826276245, 62.46186443882128 Q 40.849229090705236, 61.62150814745591, 41.113562926720256, 60.18625328931372 " fill="none" id="curve_62" stroke="#000000" stroke-linecap="round" stroke-linejoin="round" stroke-width="3.8062606847579614"/>
  <path d="M 58.43692459694708, 79.32900351078399 Q 59.451620437673505, 82.82137071740586, 60.9728220594766, 88.38093312263187 " fill="none" id="curve_69" stroke="#000000" stroke-linecap="round" stroke-linejoin="round" stroke-width="2.8147611714226706"/>
  <path d="M 58.89012278701307, 33.65263403740762 Q 55.09801401902491, 34.81150724820796, 53.86270254082113, 41.993905797177085 " fill="none" id="curve_84" stroke="#000000" stroke-linecap="round" stroke-linejoin="round" stroke-width="3.184097892291305"/>
  <path d="M 54.12298549269395, 67.30315846919835 Q 54.972854847938564, 66.71655911687046, 56.44514109000503, 65.87294885642291 " fill="none" id="curve_100" stroke="#000000" stroke-linecap="round" stroke-linejoin="round" stroke-width="2.662637541343121"/>
  <path d="M 25.477490025741954, 79.82766582358067 Q 24.838296856977927, 80.23251654520168, 23.94443540748505, 80.87293406379074 " fill="none" id="curve_105" stroke="#000000" stroke-linecap="round" stroke-linejoin="round" stroke-width="3.0274418597305086"/>
  <path d="M 59.36756434630011, 83.8738253527554 Q 58.54437403416978, 82.53322311280216, 57.555943265835914, 80.10135477126626 " fill="none" id="curve_135" stroke="#000000" stroke-linecap="round" stroke-linejoin="round" stroke-width="3.352327992133885"/>
  <path d="M 59.868945973001715, 82.2377079471199 Q 60.52156392155438, 82.57550576172716, 61.50383361401772, 83.04052138172294 " fill="none" id="curve_171" stroke="#000000" stroke-linecap="round" stroke-linejoin="round" stroke-width="2.4323116159420217"/>
  <path d="M 57.07644953089151, 71.50951515735693 Q 58.440948477378996, 71.39571707334215, 59.679331303800204, 71.17364787984624 " fill="none" id="curve_172" stroke="#000000" stroke-linecap="round" stroke-linejoin="round" stroke-width="2.3015233749348574"/>
</svg>
