<?xml version="1.0" ?>
<svg height="140" width="140" xmlns="http://www.w3.org/2000/svg">
  <path d="M 65.01199531555176, 64.07255268096924 Q 66.51082521285144, 59.265199758813665, 70.92905219278452, 49.40816134654301 " fill="none" id="curve_1" stroke="#000000" stroke-linecap="round" stroke-linejoin="round" stroke-width="4.124653359157703"/>
  <path d="M 72.89287752364676, 41.1793119292188 Q 74.02957019953972, 36.70599525307071, 75.23228843675477, 21.490384661926278 " fill="none" id="curve_2" stroke="#000000" stroke-linecap="round" stroke-linejoin="round" stroke-width="5.631335464008816"/>
  <path d="M 75.23228843675477, 21.490384661926278 Q 75.0336425683051, 19.408051737163177, 74.21485062354829, 18.066819251801316 " fill="none" id="curve_2" stroke="#000000" stroke-linecap="round" stroke-linejoin="round" stroke-width="4.932500938584182"/>
  <path d="M 74.21485062354829, 18.066819251801316 Q 69.31650116254548, 25.787998975519695, 53.551550507647505, 50.67054077031027 " fill="none" id="curve_2" stroke="#000000" stroke-linecap="round" stroke-linejoin="round" stroke-width="4.556538586787604"/>
  <path d="M 53.551550507647505, 50.67054077031027 Q 48.12122701547328, 61.243458084533316, 33.524708268368926, 81.64489497942088 " fill="none" id="curve_2" stroke="#000000" stroke-linecap="round" stroke-linejoin="round" stroke-width="3.165983529337656"/>
  <path d="M 64.61550570856419, 64.46045352863958 Q 60.636663778636, 75.35241280426759, 53.30462560846795, 101.88869279720386 " fill="none" id="curve_3" stroke="#000000" stroke-linecap="round" stroke-linejoin="round" stroke-width="4.763683507379249"/>
  <path d="M 53.30462560846795, 101.88869279720386 Q 54.41454324067798, 116.34873480356806, 56.5561432723259, 124.80970068502603 " fill="none" id="curve_3" stroke="#000000" stroke-linecap="round" stroke-linejoin="round" stroke-width="4.332555575213271"/>
  <path d="M 55.234530135814204, 104.15041743818853 Q 55.273095496948244, 81.69445977515679, 58.161750319065575, 80.54094717862687 " fill="none" id="curve_4" stroke="#000000" stroke-linecap="round" stroke-linejoin="round" stroke-width="3.2369328502645294"/>
  <path d="M 33.75996992366035, 80.20703951781033 Q 32.4305741271689, 81.09803755604574, 30.84467608970819, 82.00351061539993 " fill="none" id="curve_5" stroke="#000000" stroke-linecap="round" stroke-linejoin="round" stroke-width="4.404626725279256"/>
  <path d="M 66.01612073945839, 67.40464735518648 Q 66.41474432269229, 55.96430223903513, 69.66762026719846, 51.96891135473931 " fill="none" id="curve_7" stroke="#000000" stroke-linecap="round" stroke-linejoin="round" stroke-width="2.855586056755516"/>
  <path d="M 66.66606983464929, 28.044473681596415 Q 68.00200861670963, 23.61806357945278, 72.57972289557902, 20.128956248325395 " fill="none" id="curve_9" stroke="#000000" stroke-linecap="round" stroke-linejoin="round" stroke-width="2.7158624187663354"/>
  <path d="M 71.83337626411412, 48.615037295170566 Q 71.53345255185775, 47.99008399124628, 71.11593994513039, 47.14567743091934 " fill="none" id="curve_10" stroke="#000000" stroke-linecap="round" stroke-linejoin="round" stroke-width="3.141263693563988"/>
  <path d="M 36.136790259890574, 78.44305874147767 Q 35.33234820251101, 77.9276305331753, 34.35581042246456, 77.23605002728092 " fill="none" id="curve_11" stroke="#000000" stroke-linecap="round" stroke-linejoin="round" stroke-width="5.279130668853554"/>
  <path d="M 55.939873561153966, 87.4499152561828 Q 54.57145768521347, 92.17263371374713, 53.379770710979294, 99.3142998098771 " fill="none" id="curve_12" stroke="#000000" stroke-linecap="round" stroke-linejoin="round" stroke-width="3.6747999200600683"/>
  <path d="M 57.42116640723984, 126.45131064983295 Q 57.25863775966328, 126.24000411392915, 57.07131673146347, 125.91838380938968 " fill="none" id="curve_13" stroke="#000000" stroke-linecap="round" stroke-linejoin="round" stroke-width="3.8847330760133616"/>
  <path d="M 54.42483163134486, 93.31815385805513 Q 56.13246022092408, 89.9449101895159, 58.32134696717012, 85.76009598610861 " fill="none" id="curve_14" stroke="#000000" stroke-linecap="round" stroke-linejoin="round" stroke-width="3.608595028408418"/>
  <path d="M 49.73853905369245, 55.22246760894493 Q 53.32573739028677, 50.277835515813756, 59.386053424467455, 40.622361471728475 " fill="none" id="curve_15" stroke="#000000" stroke-linecap="round" stroke-linejoin="round" stroke-width="2.9679497061924063"/>
  <path d="M 59.386053424467455, 40.622361471728475 Q 62.489718923059684, 32.35134600939084, 69.75859961442382, 24.778555815762555 " fill="none" id="curve_15" stroke="#000000" stroke-linecap="round" stroke-linejoin="round" stroke-width="3.027751135119142"/>
  <path d="M 72.79845652079428, 41.71595507228913 Q 72.32724923751522, 40.78581191635127, 71.25782322642473, 40.131569475747796 " fill="none" id="curve_16" stroke="#000000" stroke-linecap="round" stroke-linejoin="round" stroke-width="4.00614427063016"/>
  <path d="M 58.255371293278294, 44.02996142228815 Q 57.577618161322235, 45.58079698252427, 55.91428691740903, 46.97251267290788 " fill="none" id="curve_18" stroke="#000000" stroke-linecap="round" stroke-linejoin="round" stroke-width="4.089665630468938"/>
  <path d="M 62.331937173821196, 75.2251040319598 Q 60.660112588470426, 76.55448766308699, 58.170602614741604, 79.06902243359315 " fill="none" id="curve_19" stroke="#000000" stroke-linecap="round" stroke-linejoin="round" stroke-width="3.3082866868487275"/>
  <path d="M 54.39205760684864, 94.82091857764185 Q 55.33202481317478, 91.35153253262519, 57.092787453755996, 88.05133743495868 " fill="none" id="curve_20" stroke="#000000" stroke-linecap="round" stroke-linejoin="round" stroke-width="3.772793253228471"/>
  <path d="M 57.092787453755996, 88.05133743495868 Q 56.13361764480059, 89.53436359562367, 54.75384055759714, 92.85050799875397 " fill="none" id="curve_20" stroke="#000000" stroke-linecap="round" stroke-linejoin="round" stroke-width="3.153930953409183"/>
  <path d="M 56.69464206649624, 93.44238624776712 Q 56.47316503215378, 89.19493897926067, 55.33119155660037, 86.65827934915137 " fill="none" id="curve_27" stroke="#000000" stroke-linecap="round" stroke-linejoin="round" stroke-width="2.522916079768999"/>
  <path d="M 63.414968676847515, 30.296493214387162 Q 67.3041421641528, 25.897104876643468, 72.94111188411833, 19.089726106665342 " fill="none" id="curve_46" stroke="#000000" stroke-linecap="round" stroke-linejoin="round" stroke-width="2.5947950472636667"/>
  <path d="M 55.04882571561443, 47.549852983289306 Q 56.52755634942919, 43.623610867481126, 60.459017431865206, 40.61708778226597 " fill="none" id="curve_50" stroke="#000000" stroke-linecap="round" stroke-linejoin="round" stroke-width="2.5250472664153367"/>
  <path d="M 56.425490685523165, 45.7657045676802 Q 57.021794801168625, 44.795661449775565, 57.81044109767213, 43.104422141855736 " fill="none" id="curve_69" stroke="#000000" stroke-linecap="round" stroke-linejoin="round" stroke-width="3.8774340390872983"/>
  <path d="M 54.338429817192264, 88.09096345958093 Q 54.73900269323746, 87.78311489932199, 55.23874837710425, 87.23941509596352 " fill="none" id="curve_84" stroke="#000000" stroke-linecap="round" stroke-linejoin="round" stroke-width="3.1162358114407427"/>
  <path d="M 53.10424438514089, 117.56501283685716 Q 53.54775736068407, 120.5255632462301, 54.835526925330576, 122.23010390061489 " fill="none" id="curve_85" stroke="#000000" stroke-linecap="round" stroke-linejoin="round" stroke-width="2.9486797890412895"/>
  <path d="M 52.572740618417704, 112.74644876749699 Q 52.97688140970872, 111.10404177687454, 53.54222607753142, 109.07470709091149 " fill="none" id="curve_86" stroke="#000000" stroke-linecap="round" stroke-linejoin="round" stroke-width="3.900994896641731"/>
  <path d="M 40.066759350829734, 74.32644746089352 Q 37.824147870237546, 76.8486342150822, 34.16262003993908, 79.82677797480129 " fill="none" id="curve_115" stroke="#000000" stroke-linecap="round" stroke-linejoin="round" stroke-width="1.9819613309841446"/>
  <path d="M 53.59770519984565, 49.92089089682158 Q 58.056796567358944, 43.65468645793596, 67.28825607033, 30.993941610277787 " fill="none" id="curve_117" stroke="#000000" stroke-linecap="round" stroke-linejoin="round" stroke-width="1.9252891396569491"/>
  <path d="M 70.71865451466343, 26.02614129036261 Q 72.54567808381891, 26.443501522783475, 75.44086467356506, 26.864036596884606 " fill="none" id="curve_118" stroke="#000000" stroke-linecap="round" stroke-linejoin="round" stroke-width="2.001212210408292"/>
  <path d="M 70.43327241007023, 54.19660996227958 Q 67.1213722110459, 58.69334204526646, 62.501200519885714, 65.73603178171382 " fill="none" id="curve_133" stroke="#000000" stroke-linecap="round" stroke-linejoin="round" stroke-width="2.5850348528974565"/>
  <path d="M 57.97819350244222, 42.380378158581905 Q 57.19776927626508, 46.204704545255055, 54.63130349305743, 49.07143731574312 " fill="none" id="curve_134" stroke="#000000" stroke-linecap="round" stroke-linejoin="round" stroke-width="2.941120777731174"/>
  <path d="M 59.38005756895811, 40.16862580231592 Q 58.396932456571264, 46.2039870638927, 54.03039933876049, 49.43438840785582 " fill="none" id="curve_152" stroke="#000000" stroke-linecap="round" stroke-linejoin="round" stroke-width="3.079005592274318"/>
  <path d="M 54.03039933876049, 49.43438840785582 Q 57.20737152467233, 46.002806878538074, 60.352105946551326, 40.415885101133966 " fill="none" id="curve_152" stroke="#000000" stroke-linecap="round" stroke-linejoin="round" stroke-width="2.712621721114917"/>
  <path d="M 60.352105946551326, 40.415885101133966 Q 58.21110452657337, 44.672246689106984, 54.36989977764567, 48.9256552316105 " fill="none" id="curve_152" stroke="#000000" stroke-linecap="round" stroke-linejoin="round" stroke-width="3.1871685356149233"/>
  <path d="M 53.00393748128295, 98.05980545692503 Q 52.77624449516541, 97.80637252395077, 52.52535119878877, 97.4613186765869 " fill="none" id="curve_180" stroke="#000000" stroke-linecap="round" stroke-linejoin="round" stroke-width="3.730248622158946"/>
</svg>
