<?xml version="1.0" ?>
<svg height="140" width="140" xmlns="http://www.w3.org/2000/svg">
  <path d="M 39.901214599609375, 78.32617664337158 Q 38.760495263537145, 77.78439122641973, 36.36352522419472, 77.17329850183542 " fill="none" id="curve_1" stroke="#000000" stroke-linecap="round" stroke-linejoin="round" stroke-width="4.805882724276938"/>
  <path d="M 36.36352522419472, 77.17329850183542 Q 51.36168071179336, 75.90470021419746, 67.53591595064978, 67.96111712442311 " fill="none" id="curve_1" stroke="#000000" stroke-linecap="round" stroke-linejoin="round" stroke-width="4.73027140141298"/>
  <path d="M 67.53591595064978, 67.96111712442311 Q 80.15282087709492, 65.63847776235002, 87.9002851107515, 56.075646329713834 " fill="none" id="curve_1" stroke="#000000" stroke-linecap="round" stroke-linejoin="round" stroke-width="4.670673840365668"/>
  <path d="M 87.9002851107515, 56.075646329713834 Q 82.54646345536877, 60.613341480611645, 75.11373768100407, 67.93154235536129 " fill="none" id="curve_1" stroke="#000000" stroke-linecap="round" stroke-linejoin="round" stroke-width="4.340958127142857"/>
  <path d="M 75.11373768100407, 67.93154235536129 Q 68.00876486735484, 75.34157942684402, 51.02164987733795, 102.18405685319848 " fill="none" id="curve_1" stroke="#000000" stroke-linecap="round" stroke-linejoin="round" stroke-width="4.778071100961901"/>
  <path d="M 51.02164987733795, 102.18405685319848 Q 48.65979786151135, 108.62928367338813, 47.091723581906905, 119.5062630121313 " fill="none" id="curve_1" stroke="#000000" stroke-linecap="round" stroke-linejoin="round" stroke-width="4.477063958219322"/>
  <path d="M 41.37919811303156, 74.9213045220242 Q 39.226836290837625, 74.9861313590556, 37.719246016800824, 75.14812739210879 " fill="none" id="curve_3" stroke="#000000" stroke-linecap="round" stroke-linejoin="round" stroke-width="3.9291672765445913"/>
  <path d="M 89.34381317761103, 57.810786992091856 Q 87.789316764288, 60.263944464853374, 81.64073642202493, 62.06607618334736 " fill="none" id="curve_7" stroke="#000000" stroke-linecap="round" stroke-linejoin="round" stroke-width="3.2638049912760714"/>
  <path d="M 53.930977010446256, 99.09560019211814 Q 57.21036398096989, 87.86584970393244, 69.1506349510451, 77.29391756723241 " fill="none" id="curve_11" stroke="#000000" stroke-linecap="round" stroke-linejoin="round" stroke-width="2.191764475892626"/>
  <path d="M 82.77146763888838, 62.56816924976994 Q 77.02082082668306, 64.05109396830572, 70.28788003682924, 66.4034531074596 " fill="none" id="curve_12" stroke="#000000" stroke-linecap="round" stroke-linejoin="round" stroke-width="4.494275153305276"/>
  <path d="M 1.1015598777455224, 36.998806618560934 Q 0.9262209597876858, 30.79902916163329, 0.7040475300840547, 13.580160535083973 " fill="none" id="curve_16" stroke="#000000" stroke-linecap="round" stroke-linejoin="round" stroke-width="1.9380609616900906"/>
  <path d="M 0.9194363276993387, 3.543813862535192 Q 0.9514460551850399, 3.125160923766048, 1.002710321685655, 2.3735497857236485 " fill="none" id="curve_17" stroke="#000000" stroke-linecap="round" stroke-linejoin="round" stroke-width="1.7667298150129414"/>
  <path d="M 61.10372054243577, 69.88063128919242 Q 55.36710417682165, 73.32021641256246, 41.493408188685066, 76.34479355937327 " fill="none" id="curve_27" stroke="#000000" stroke-linecap="round" stroke-linejoin="round" stroke-width="2.958007360940377"/>
  <path d="M 80.44699708641613, 63.5410973632211 Q 80.36134705604248, 65.77637691796227, 77.61220566424073, 66.0496967985972 " fill="none" id="curve_36" stroke="#000000" stroke-linecap="round" stroke-linejoin="round" stroke-width="3.2670729147718705"/>
  <path d="M 77.61220566424073, 66.0496967985972 Q 70.30502771032332, 67.71746144615376, 66.13078666085613, 76.93279693472924 " fill="none" id="curve_36" stroke="#000000" stroke-linecap="round" stroke-linejoin="round" stroke-width="2.3660252867921137"/>
  <path d="M 54.55597960653269, 92.69549792121077 Q 55.802735376028686, 91.26718376109052, 57.687116808872254, 88.45079647364943 " fill="none" id="curve_37" stroke="#000000" stroke-linecap="round" stroke-linejoin="round" stroke-width="2.486370853499141"/>
  <path d="M 73.7705181446712, 66.0595093435295 Q 76.53213408124877, 64.45581429484966, 81.22810558977582, 62.64802970265874 " fill="none" id="curve_52" stroke="#000000" stroke-linecap="round" stroke-linejoin="round" stroke-width="4.21166114330794"/>
  <path d="M 61.61408447932194, 69.92520527982202 Q 55.55155080974332, 73.60432664421347, 40.615738979284245, 76.54257484675253 " fill="none" id="curve_53" stroke="#000000" stroke-linecap="round" stroke-linejoin="round" stroke-width="3.248908130886896"/>
  <path d="M 2.738441767207257, 139.12373369766576 Q 2.024971130640288, 137.76970510150903, 1.4849634604218385, 133.78111637465807 " fill="none" id="curve_58" stroke="#000000" stroke-linecap="round" stroke-linejoin="round" stroke-width="2.2935676752773206"/>
  <path d="M 64.92072737308068, 68.49659701048941 Q 64.73527288727148, 67.74671401367284, 63.78516085248107, 67.40274830527915 " fill="none" id="curve_61" stroke="#000000" stroke-linecap="round" stroke-linejoin="round" stroke-width="3.432470742087133"/>
  <path d="M 62.459816390495014, 70.31627727780483 Q 57.92735538786838, 70.85715188512172, 52.05366427657134, 72.41375641039612 " fill="none" id="curve_91" stroke="#000000" stroke-linecap="round" stroke-linejoin="round" stroke-width="2.9833224860903047"/>
  <path d="M 54.14694129818828, 97.10935429897366 Q 52.953099402846696, 104.5036923175288, 49.43760906177695, 109.4348238934277 " fill="none" id="curve_92" stroke="#000000" stroke-linecap="round" stroke-linejoin="round" stroke-width="2.8409022653969753"/>
  <path d="M 77.16220510689377, 64.8747915226815 Q 77.35961977641936, 63.07842754834456, 78.53059847804906, 62.40243114986096 " fill="none" id="curve_94" stroke="#000000" stroke-linecap="round" stroke-linejoin="round" stroke-width="3.7190676853123303"/>
  <path d="M 79.27196817367218, 64.58716570694196 Q 78.84358611931805, 64.66019433201996, 77.70835240266206, 64.75026240010878 " fill="none" id="curve_109" stroke="#000000" stroke-linecap="round" stroke-linejoin="round" stroke-width="2.723807489162224"/>
  <path d="M 74.28729661776912, 66.78904110513388 Q 76.66983733590321, 65.53475889770316, 80.97793570146449, 64.35500930410615 " fill="none" id="curve_126" stroke="#000000" stroke-linecap="round" stroke-linejoin="round" stroke-width="4.216040606876429"/>
  <path d="M 62.64181362649774, 86.05468977771548 Q 63.66182983759427, 82.43247691923627, 66.33690658708535, 79.59963578297155 " fill="none" id="curve_162" stroke="#000000" stroke-linecap="round" stroke-linejoin="round" stroke-width="2.9049914447294927"/>
  <path d="M 49.04877973553124, 74.01960892532715 Q 45.51573698831746, 74.21163330350237, 40.274380375723936, 74.52294507272221 " fill="none" id="curve_192" stroke="#000000" stroke-linecap="round" stroke-linejoin="round" stroke-width="2.431290880015582"/>
  <path d="M 47.76341481811008, 120.39910089210065 Q 47.973120427656106, 120.11948959429922, 48.36165129965489, 119.67767224762815 " fill="none" id="curve_196" stroke="#000000" stroke-linecap="round" stroke-linejoin="round" stroke-width="2.2709601038629104"/>
  <path d="M 63.86355452056596, 83.89746619676117 Q 64.11567769969447, 80.99636011322606, 65.45636476957623, 79.53064546831514 " fill="none" id="curve_197" stroke="#000000" stroke-linecap="round" stroke-linejoin="round" stroke-width="3.1121232616275396"/>
</svg>
