<?xml version="1.0" ?>
<svg height="140" width="140" xmlns="http://www.w3.org/2000/svg">
  <path d="M 44.8319206237793, 51.867122650146484 Q 45.596094613707336, 51.19140697802346, 46.057595000319445, 48.514833851853524 " fill="none" id="curve_1" stroke="#000000" stroke-linecap="round" stroke-linejoin="round" stroke-width="5.533143305387898"/>
  <path d="M 46.057595000319445, 48.514833851853524 Q 43.766153673443476, 61.06077799023085, 34.54315422669654, 72.28261440380744 " fill="none" id="curve_1" stroke="#000000" stroke-linecap="round" stroke-linejoin="round" stroke-width="5.83030418562567"/>
  <path d="M 34.54315422669654, 72.28261440380744 Q 28.40552241012654, 79.77459435532353, 19.691794960586968, 89.15576676432254 " fill="none" id="curve_1" stroke="#000000" stroke-linecap="round" stroke-linejoin="round" stroke-width="3.552205383214862"/>
  <path d="M 39.76384109124264, 97.39507606497142 Q 40.751325178292284, 84.11582297961422, 43.97434095810043, 63.43710429955066 " fill="none" id="curve_2" stroke="#000000" stroke-linecap="round" stroke-linejoin="round" stroke-width="5.891470234151812"/>
  <path d="M 37.52224249226408, 95.44324309591472 Q 39.98450527453108, 89.79541148885995, 42.412284913778144, 77.16390802749713 " fill="none" id="curve_3" stroke="#000000" stroke-linecap="round" stroke-linejoin="round" stroke-width="3.9545476591507325"/>
  <path d="M 45.28979387822834, 54.736697096684956 Q 44.37166177920115, 58.05419015699259, 42.9939816421917, 62.5014837794707 " fill="none" id="curve_4" stroke="#000000" stroke-linecap="round" stroke-linejoin="round" stroke-width="5.301407222635482"/>
  <path d="M 40.303001825071625, 90.68811598034934 Q 40.81848578098164, 78.8655400542909, 43.12776349776902, 73.19455116435753 " fill="none" id="curve_5" stroke="#000000" stroke-linecap="round" stroke-linejoin="round" stroke-width="3.5853913886931705"/>
  <path d="M 20.518989637579395, 90.35734145356635 Q 21.01104074951207, 83.81857159678023, 24.26713958628946, 80.79919337152924 " fill="none" id="curve_20" stroke="#000000" stroke-linecap="round" stroke-linejoin="round" stroke-width="2.5305370246060592"/>
  <path d="M 38.83942948929161, 66.31573224343742 Q 41.43021920587305, 61.2998525379554, 44.4184737107545, 53.66618418659413 " fill="none" id="curve_21" stroke="#000000" stroke-linecap="round" stroke-linejoin="round" stroke-width="5.04900693062831"/>
  <path d="M 44.4184737107545, 53.66618418659413 Q 43.57855669278346, 60.15803670006819, 41.586165888364896, 63.3412032993009 " fill="none" id="curve_21" stroke="#000000" stroke-linecap="round" stroke-linejoin="round" stroke-width="6.891381488283998"/>
  <path d="M 38.2727136987475, 91.46420286899874 Q 39.486214972977535, 85.81721725646037, 42.0318130355114, 79.99209383579066 " fill="none" id="curve_32" stroke="#000000" stroke-linecap="round" stroke-linejoin="round" stroke-width="4.147562683547215"/>
  <path d="M 42.78483772277832, 52.10550117492676 Q 41.224375975241635, 59.51531655467766, 35.65696270787936, 67.22104390731556 " fill="none" id="curve_46" stroke="#000000" stroke-linecap="round" stroke-linejoin="round" stroke-width="3.5974681779315776"/>
  <path d="M 46.003711503049104, 57.49269627672145 Q 44.70332414219413, 69.41814729044651, 39.774120486440786, 79.43850383722193 " fill="none" id="curve_47" stroke="#000000" stroke-linecap="round" stroke-linejoin="round" stroke-width="2.4780515721686296"/>
  <path d="M 39.774120486440786, 79.43850383722193 Q 40.21805580091498, 82.22175519274404, 41.48366490378031, 83.83207467547302 " fill="none" id="curve_47" stroke="#000000" stroke-linecap="round" stroke-linejoin="round" stroke-width="5.448067820352237"/>
  <path d="M 41.48366490378031, 83.83207467547302 Q 41.341206941959605, 82.68350085760508, 41.22192240215423, 80.53794758023902 " fill="none" id="curve_47" stroke="#000000" stroke-linecap="round" stroke-linejoin="round" stroke-width="6.608297052131189"/>
  <path d="M 40.01492957626397, 80.69530279641617 Q 40.208946179301485, 76.00071424075088, 41.902755691025476, 73.88654007672909 " fill="none" id="curve_62" stroke="#000000" stroke-linecap="round" stroke-linejoin="round" stroke-width="2.7472013182558004"/>
  <path d="M 40.25227953430999, 75.81764461282546 Q 39.50990152213733, 80.2987162374156, 38.45473210580612, 85.02244989412515 " fill="none" id="curve_129" stroke="#000000" stroke-linecap="round" stroke-linejoin="round" stroke-width="2.40372841609468"/>
  <path d="M 44.603485599359516, 53.86588133007997 Q 45.19300519088743, 52.88751872087577, 46.52732382404291, 52.11297069774634 " fill="none" id="curve_130" stroke="#000000" stroke-linecap="round" stroke-linejoin="round" stroke-width="3.4461584176862026"/>
</svg>
