<?xml version="1.0" ?>
<svg height="140" width="140" xmlns="http://www.w3.org/2000/svg">
  <path d="M 59.63768005371094, 123.40935778617859 Q 58.404912908049006, 121.07214013664904, 56.6071999841713, 117.08155237743722 " fill="none" id="curve_1" stroke="#000000" stroke-linecap="round" stroke-linejoin="round" stroke-width="8.553112899630285"/>
  <path d="M 56.6071999841713, 117.08155237743722 Q 56.188390274381085, 114.84465130609031, 55.962486784360415, 105.1307169561023 " fill="none" id="curve_1" stroke="#000000" stroke-linecap="round" stroke-linejoin="round" stroke-width="8.047581537409792"/>
  <path d="M 55.962486784360415, 105.1307169561023 Q 55.51905975115864, 102.87307451422289, 55.35050437679317, 87.65232333568511 " fill="none" id="curve_1" stroke="#000000" stroke-linecap="round" stroke-linejoin="round" stroke-width="8.582344504470365"/>
  <path d="M 55.35050437679317, 87.65232333568511 Q 55.211137315626466, 74.37279081253992, 54.7689620020127, 61.755984260572305 " fill="none" id="curve_1" stroke="#000000" stroke-linecap="round" stroke-linejoin="round" stroke-width="6.132049471909908"/>
  <path d="M 54.7689620020127, 61.755984260572305 Q 56.87117833755238, 59.57259920949466, 57.4549710545037, 44.4283145570361 " fill="none" id="curve_1" stroke="#000000" stroke-linecap="round" stroke-linejoin="round" stroke-width="5.6800734056217275"/>
  <path d="M 51.69453030141497, 69.80340525687929 Q 46.74288595990931, 81.59524826739971, 26.933017703269538, 110.29506588661837 " fill="none" id="curve_2" stroke="#000000" stroke-linecap="round" stroke-linejoin="round" stroke-width="4.681887602751746"/>
  <path d="M 26.933017703269538, 110.29506588661837 Q 25.17922141910223, 112.25170151934162, 22.45600115172213, 113.97860966747794 " fill="none" id="curve_2" stroke="#000000" stroke-linecap="round" stroke-linejoin="round" stroke-width="4.57921549807173"/>
  <path d="M 56.934063943444926, 123.27761290448605 Q 57.65437561379961, 123.11086744509046, 58.071479207211105, 122.66208680166739 " fill="none" id="curve_3" stroke="#000000" stroke-linecap="round" stroke-linejoin="round" stroke-width="7.123206853021993"/>
  <path d="M 40.42034145512113, 83.83291365977672 Q 47.69918529072014, 78.77261110357259, 53.51301405623424, 64.88075025287279 " fill="none" id="curve_4" stroke="#000000" stroke-linecap="round" stroke-linejoin="round" stroke-width="3.8804966756682298"/>
  <path d="M 58.368338611800894, 42.3649548451614 Q 58.07597706466149, 42.88066056589405, 57.776868965334586, 43.943795982184454 " fill="none" id="curve_5" stroke="#000000" stroke-linecap="round" stroke-linejoin="round" stroke-width="3.6888915543957443"/>
  <path d="M 42.611817446179494, 86.83874692192305 Q 35.35129387578667, 90.98112385553597, 29.37211432548027, 106.71813132256185 " fill="none" id="curve_6" stroke="#000000" stroke-linecap="round" stroke-linejoin="round" stroke-width="3.3364879739196707"/>
  <path d="M 29.37211432548027, 106.71813132256185 Q 34.70981253807595, 102.66102377619963, 39.26806198830574, 94.07471031030218 " fill="none" id="curve_6" stroke="#000000" stroke-linecap="round" stroke-linejoin="round" stroke-width="2.663662366672444"/>
  <path d="M 51.38929505461553, 67.78645033930417 Q 51.83863626579712, 63.62997656873669, 57.59033531340588, 63.03074305564966 " fill="none" id="curve_7" stroke="#000000" stroke-linecap="round" stroke-linejoin="round" stroke-width="3.4967534158645677"/>
  <path d="M 54.91622075856522, 49.02987464950276 Q 54.91733390371269, 48.91586901975174, 54.91799968982949, 48.56101331470103 " fill="none" id="curve_8" stroke="#000000" stroke-linecap="round" stroke-linejoin="round" stroke-width="4.727866846519937"/>
  <path d="M 43.29335227018949, 78.17755179449895 Q 47.5345404563199, 75.2078826119173, 52.067269226737466, 68.37406293020068 " fill="none" id="curve_15" stroke="#000000" stroke-linecap="round" stroke-linejoin="round" stroke-width="2.8860850806571103"/>
  <path d="M 55.27287169180272, 94.637458393374 Q 53.33737769753645, 94.64808109858049, 52.13290775508781, 94.686633491592 " fill="none" id="curve_30" stroke="#000000" stroke-linecap="round" stroke-linejoin="round" stroke-width="3.162736428873531"/>
  <path d="M 41.81187256279019, 88.10960694120165 Q 39.456375646353514, 88.43890236604514, 37.507979636331484, 89.36884449390737 " fill="none" id="curve_31" stroke="#000000" stroke-linecap="round" stroke-linejoin="round" stroke-width="3.6296801216920227"/>
  <path d="M 59.4218449155194, 121.69573013130747 Q 59.43233318261909, 121.56984718100303, 59.44589140289147, 121.3192220110292 " fill="none" id="curve_32" stroke="#000000" stroke-linecap="round" stroke-linejoin="round" stroke-width="4.538874931845967"/>
  <path d="M 52.879553883311004, 92.08124196069535 Q 52.3262255433904, 92.5045319217783, 51.695073305948654, 93.62835246959989 " fill="none" id="curve_100" stroke="#000000" stroke-linecap="round" stroke-linejoin="round" stroke-width="2.4269527341208685"/>
</svg>
