<?xml version="1.0" ?>
<svg height="140" width="140" xmlns="http://www.w3.org/2000/svg">
  <path d="M 57.360050201416016, 83.36280822753906 Q 53.26450205370284, 85.11680671628815, 51.12034441821162, 100.76495545529747 " fill="none" id="curve_1" stroke="#000000" stroke-linecap="round" stroke-linejoin="round" stroke-width="3.5616293852046352"/>
  <path d="M 51.12034441821162, 100.76495545529747 Q 51.28255312407546, 108.93693605835136, 52.37087251333398, 110.37175832892436 " fill="none" id="curve_1" stroke="#000000" stroke-linecap="round" stroke-linejoin="round" stroke-width="5.19151273937092"/>
  <path d="M 28.896214516337935, 86.67525861342509 Q 28.67275889684641, 86.59029848335219, 27.76044453167261, 86.49084557919707 " fill="none" id="curve_2" stroke="#000000" stroke-linecap="round" stroke-linejoin="round" stroke-width="4.239108146046194"/>
  <path d="M 27.76044453167261, 86.49084557919707 Q 33.4864732193545, 78.88943182310062, 48.68419090914095, 62.29014354912111 " fill="none" id="curve_2" stroke="#000000" stroke-linecap="round" stroke-linejoin="round" stroke-width="4.30623795302616"/>
  <path d="M 48.68419090914095, 62.29014354912111 Q 53.82648836804715, 56.81688072857774, 63.26458814607734, 52.14908794400695 " fill="none" id="curve_2" stroke="#000000" stroke-linecap="round" stroke-linejoin="round" stroke-width="4.785479399436463"/>
  <path d="M 63.26458814607734, 52.14908794400695 Q 60.1880620452694, 60.00843258848815, 55.31080130765045, 82.35689825422935 " fill="none" id="curve_2" stroke="#000000" stroke-linecap="round" stroke-linejoin="round" stroke-width="4.360306306679678"/>
  <path d="M 19.978761606732856, 92.19061695488651 Q 20.680883552242022, 92.22467032857699, 21.76788602664906, 92.29060264902351 " fill="none" id="curve_4" stroke="#000000" stroke-linecap="round" stroke-linejoin="round" stroke-width="1.9309458569360471"/>
  <path d="M 61.1845691024537, 52.679734670260785 Q 59.58667906730723, 62.728775661827356, 55.75686570233233, 72.77827906850128 " fill="none" id="curve_6" stroke="#000000" stroke-linecap="round" stroke-linejoin="round" stroke-width="2.370794000965694"/>
  <path d="M 26.464638025367034, 89.19102042111335 Q 26.51202723129328, 88.12815089366033, 26.634979315561253, 87.38574819339532 " fill="none" id="curve_7" stroke="#000000" stroke-linecap="round" stroke-linejoin="round" stroke-width="2.936529613901207"/>
  <path d="M 50.17490116525275, 59.823059556282274 Q 53.289868713661726, 55.39589199548368, 61.80914653528397, 52.725256764168044 " fill="none" id="curve_10" stroke="#000000" stroke-linecap="round" stroke-linejoin="round" stroke-width="3.47682382542827"/>
  <path d="M 61.80914653528397, 52.725256764168044 Q 62.8140021144081, 53.761645749634006, 63.49458112002929, 56.9177269352731 " fill="none" id="curve_10" stroke="#000000" stroke-linecap="round" stroke-linejoin="round" stroke-width="3.0329917286177017"/>
  <path d="M 51.22521319391929, 99.29486189539966 Q 52.0491158544928, 94.7455182788361, 53.993086856087764, 91.47040691770293 " fill="none" id="curve_12" stroke="#000000" stroke-linecap="round" stroke-linejoin="round" stroke-width="2.716931805834006"/>
  <path d="M 50.774944079166325, 109.24158000306188 Q 50.41842031410504, 108.01465210406388, 49.77315584017748, 106.85873759066826 " fill="none" id="curve_14" stroke="#000000" stroke-linecap="round" stroke-linejoin="round" stroke-width="3.389176499459112"/>
  <path d="M 44.59876407942204, 64.84267369889334 Q 42.5385101146648, 66.19958855330866, 40.86817697682581, 70.28484907367299 " fill="none" id="curve_16" stroke="#000000" stroke-linecap="round" stroke-linejoin="round" stroke-width="3.0438389754521014"/>
  <path d="M 1.1191717930948215, 63.17064906504595 Q 1.200802655436371, 63.108041230705204, 1.7353205355178032, 63.06421414416833 " fill="none" id="curve_31" stroke="#000000" stroke-linecap="round" stroke-linejoin="round" stroke-width="1.1269170439053513"/>
  <path d="M 1.7353205355178032, 63.06421414416833 Q 1.504263289953697, 76.87660226512656, 0.13599776050250822, 90.40727105131225 " fill="none" id="curve_31" stroke="#000000" stroke-linecap="round" stroke-linejoin="round" stroke-width="1.2420643097150394"/>
  <path d="M 0.9668727177095369, 57.34167008774776 Q 0.9760528624854367, 52.477728360289866, 0.9867198989000424, 35.96053348455807 " fill="none" id="curve_32" stroke="#000000" stroke-linecap="round" stroke-linejoin="round" stroke-width="1.6862009203787618"/>
  <path d="M 0.9867198989000424, 35.96053348455807 Q 1.071671655722049, 31.42294970820381, 1.1894949282662064, 22.801859201577322 " fill="none" id="curve_32" stroke="#000000" stroke-linecap="round" stroke-linejoin="round" stroke-width="1.678575991187302"/>
  <path d="M 1.1894949282662064, 22.801859201577322 Q 0.9804073114368148, 18.925590695983935, 0.797983481449325, 3.4833815207105516 " fill="none" id="curve_32" stroke="#000000" stroke-linecap="round" stroke-linejoin="round" stroke-width="1.7078609260313706"/>
  <path d="M 0.797983481449325, 3.4833815207105516 Q 0.9631250027571411, 2.5345699788546856, 1.284507428093153, 1.3861756890538999 " fill="none" id="curve_32" stroke="#000000" stroke-linecap="round" stroke-linejoin="round" stroke-width="1.6824519404913534"/>
  <path d="M 56.97140354562726, 71.31075998509652 Q 59.892282146017635, 65.87502823786788, 62.41597652152587, 54.89758584032464 " fill="none" id="curve_41" stroke="#000000" stroke-linecap="round" stroke-linejoin="round" stroke-width="3.2333693632264695"/>
  <path d="M 1.177801793326241, 137.71109337182503 Q 1.1384119263775896, 133.5906787064592, 1.090154169099906, 123.68136085446946 " fill="none" id="curve_47" stroke="#000000" stroke-linecap="round" stroke-linejoin="round" stroke-width="1.638588737212035"/>
  <path d="M 1.090154169099906, 123.68136085446946 Q 0.925080639779128, 118.4454002854133, 0.7529326859743453, 99.0156423314029 " fill="none" id="curve_47" stroke="#000000" stroke-linecap="round" stroke-linejoin="round" stroke-width="1.793586555415826"/>
  <path d="M -0.6561393737792969, 94.60303083062172 Q 0.41423725438477654, 93.98284761858106, 0.8297315165373931, 88.63104751783317 " fill="none" id="curve_61" stroke="#000000" stroke-linecap="round" stroke-linejoin="round" stroke-width="1.2286504571173087"/>
  <path d="M 0.8950839425621, 97.74381077571687 Q 0.8881754048043989, 96.29886310776398, 0.8779246763327465, 94.5125929071646 " fill="none" id="curve_62" stroke="#000000" stroke-linecap="round" stroke-linejoin="round" stroke-width="1.1232958829659367"/>
  <path d="M 34.49307385952723, 74.78301208477208 Q 34.94073796825072, 74.30351569416982, 35.73597527571762, 73.56760541108339 " fill="none" id="curve_64" stroke="#000000" stroke-linecap="round" stroke-linejoin="round" stroke-width="1.8967259290507195"/>
  <path d="M 57.35325510605978, 65.35066481331528 Q 57.57836469796874, 61.66011394742572, 58.582602101080255, 58.951220673031216 " fill="none" id="curve_81" stroke="#000000" stroke-linecap="round" stroke-linejoin="round" stroke-width="1.9120234382933827"/>
  <path d="M 55.73366525899638, 55.07563378346766 Q 56.71339504053832, 52.460074361518124, 62.38338035832336, 51.41324923331379 " fill="none" id="curve_86" stroke="#000000" stroke-linecap="round" stroke-linejoin="round" stroke-width="2.811989398236487"/>
  <path d="M 52.042309378306875, 96.09616868243779 Q 53.09136678768392, 93.87167713368756, 54.340510456084296, 89.56333219783652 " fill="none" id="curve_91" stroke="#000000" stroke-linecap="round" stroke-linejoin="round" stroke-width="2.150315357389718"/>
  <path d="M 54.24846596556426, 60.21281362123118 Q 53.62928747742683, 60.07104928329382, 52.67977759859179, 59.864957525602186 " fill="none" id="curve_120" stroke="#000000" stroke-linecap="round" stroke-linejoin="round" stroke-width="3.0136632527067535"/>
  <path d="M 57.36508360946539, 75.76536953864442 Q 57.186279692244824, 75.06975258328156, 56.82916123165619, 74.1788875736273 " fill="none" id="curve_128" stroke="#000000" stroke-linecap="round" stroke-linejoin="round" stroke-width="3.148272804140782"/>
</svg>
