<?xml version="1.0" ?>
<svg height="140" width="140" xmlns="http://www.w3.org/2000/svg">
  <path d="M 61.25173759460449, 25.45085334777832 Q 56.50914338736344, 29.043378173714167, 43.98830037471134, 45.21374156755974 " fill="none" id="curve_1" stroke="#000000" stroke-linecap="round" stroke-linejoin="round" stroke-width="3.7075473117793303"/>
  <path d="M 43.98830037471134, 45.21374156755974 Q 38.542811246591455, 51.22270814730996, 31.15024491427205, 64.69706892177902 " fill="none" id="curve_1" stroke="#000000" stroke-linecap="round" stroke-linejoin="round" stroke-width="3.3581616489131436"/>
  <path d="M 25.65215750943682, 70.18152070830847 Q 25.71489747809194, 70.03917416870473, 25.771130972048553, 69.73832858640849 " fill="none" id="curve_2" stroke="#000000" stroke-linecap="round" stroke-linejoin="round" stroke-width="2.995353396865693"/>
  <path d="M 65.08653129038548, 84.26931118918772 Q 64.48171735138675, 81.58312836522009, 64.1679022146106, 53.62098299852584 " fill="none" id="curve_3" stroke="#000000" stroke-linecap="round" stroke-linejoin="round" stroke-width="4.037808554257353"/>
  <path d="M 64.1679022146106, 53.62098299852584 Q 63.43076083035201, 43.2866855787302, 61.43707988379033, 26.626261329974223 " fill="none" id="curve_3" stroke="#000000" stroke-linecap="round" stroke-linejoin="round" stroke-width="4.60168239115824"/>
  <path d="M 61.43707988379033, 26.626261329974223 Q 58.06049869839395, 27.587163378039765, 55.80186107036015, 29.868291244055683 " fill="none" id="curve_3" stroke="#000000" stroke-linecap="round" stroke-linejoin="round" stroke-width="3.8033695897880873"/>
  <path d="M 65.55710257891855, 75.62298305871585 Q 65.3021485744101, 65.44507537341224, 64.2225133910278, 56.713745731109725 " fill="none" id="curve_8" stroke="#000000" stroke-linecap="round" stroke-linejoin="round" stroke-width="2.0891639022414408"/>
  <path d="M 62.59741462745316, 37.01388859922094 Q 62.81253938684905, 44.060487686990754, 63.32584657608683, 49.451914310239474 " fill="none" id="curve_9" stroke="#000000" stroke-linecap="round" stroke-linejoin="round" stroke-width="2.5718141746264345"/>
  <path d="M 63.309775969708845, 84.97409574824144 Q 64.25034493272531, 82.03939474580434, 65.30173179755519, 75.17097745478297 " fill="none" id="curve_11" stroke="#000000" stroke-linecap="round" stroke-linejoin="round" stroke-width="2.467765914272308"/>
  <path d="M 62.337581887882095, 45.462761331161154 Q 62.37329582163885, 41.12555569492324, 62.42797230154519, 35.44013511221778 " fill="none" id="curve_13" stroke="#000000" stroke-linecap="round" stroke-linejoin="round" stroke-width="3.673395969539445"/>
  <path d="M 46.876500803953114, 41.19535799568796 Q 46.808804840797315, 41.22149885842736, 46.64073063954028, 41.27723667420335 " fill="none" id="curve_22" stroke="#000000" stroke-linecap="round" stroke-linejoin="round" stroke-width="2.5749183108094704"/>
  <path d="M 46.64073063954028, 41.27723667420335 Q 46.89484105161085, 41.00419044762517, 47.59749678517779, 40.38117514418699 " fill="none" id="curve_22" stroke="#000000" stroke-linecap="round" stroke-linejoin="round" stroke-width="2.277771284155627"/>
  <path d="M 56.8950402310479, 31.124420815711986 Q 59.315362242875175, 29.844854911911725, 63.14566840029599, 27.698711752467382 " fill="none" id="curve_24" stroke="#000000" stroke-linecap="round" stroke-linejoin="round" stroke-width="2.7120802817618954"/>
  <path d="M 65.77984832221193, 58.84484828086991 Q 65.26161835171207, 59.39637467359815, 64.37875315116008, 60.555592306951574 " fill="none" id="curve_25" stroke="#000000" stroke-linecap="round" stroke-linejoin="round" stroke-width="2.5394137983207923"/>
  <path d="M 47.94687656722605, 40.36947609483028 Q 46.96077755054409, 41.36543326121681, 44.37722119089295, 43.42931890493723 " fill="none" id="curve_28" stroke="#000000" stroke-linecap="round" stroke-linejoin="round" stroke-width="2.334380690566802"/>
  <path d="M 61.90076566178956, 42.466188117406 Q 62.46770857611333, 40.6503854874804, 63.22974787709335, 37.69848963446253 " fill="none" id="curve_35" stroke="#000000" stroke-linecap="round" stroke-linejoin="round" stroke-width="3.3864219994457736"/>
  <path d="M 63.89617677840056, 77.70425987882668 Q 64.4506771530653, 76.95248886983956, 65.11073532956243, 74.89915391352005 " fill="none" id="curve_51" stroke="#000000" stroke-linecap="round" stroke-linejoin="round" stroke-width="2.1607920548353436"/>
  <path d="M 50.25926315784454, 35.321414947509766 Q 50.037269069461466, 38.817462739920295, 49.17264457848895, 41.1356446223308 " fill="none" id="curve_130" stroke="#000000" stroke-linecap="round" stroke-linejoin="round" stroke-width="2.497786075414711"/>
  <path d="M 63.23641956759627, 29.521859774828727 Q 63.01616096075181, 30.63976593198777, 62.45420336627254, 32.16411322117698 " fill="none" id="curve_145" stroke="#000000" stroke-linecap="round" stroke-linejoin="round" stroke-width="1.9897104681496438"/>
</svg>
