<?xml version="1.0" ?>
<svg height="140" width="140" xmlns="http://www.w3.org/2000/svg">
  <path d="M 58.880558013916016, 40.1146354675293 Q 58.9600104258318, 38.275141608737506, 59.141611041836356, 36.43543108384742 " fill="none" id="curve_1" stroke="#000000" stroke-linecap="round" stroke-linejoin="round" stroke-width="4.950922868707804"/>
  <path d="M 59.141611041836356, 36.43543108384742 Q 55.7612493974141, 43.17419573400626, 40.57275294406028, 62.52209800483602 " fill="none" id="curve_1" stroke="#000000" stroke-linecap="round" stroke-linejoin="round" stroke-width="3.782293555487266"/>
  <path d="M 40.57275294406028, 62.52209800483602 Q 35.41905842950181, 70.59420548784271, 16.379972623949158, 89.39771373487777 " fill="none" id="curve_1" stroke="#000000" stroke-linecap="round" stroke-linejoin="round" stroke-width="4.720979997432032"/>
  <path d="M 16.379972623949158, 89.39771373487777 Q 15.181283876624974, 91.67330160551103, 12.072027869090217, 92.89856210011764 " fill="none" id="curve_1" stroke="#000000" stroke-linecap="round" stroke-linejoin="round" stroke-width="4.617473188289563"/>
  <path d="M 49.12097419571444, 104.8848861287781 Q 49.16981080985749, 71.93399000881689, 53.19620285730151, 69.27468948654378 " fill="none" id="curve_2" stroke="#000000" stroke-linecap="round" stroke-linejoin="round" stroke-width="4.611689439280766"/>
  <path d="M 53.19620285730151, 69.27468948654378 Q 55.276161516328386, 58.06876424692321, 59.15142893980151, 40.979687885584475 " fill="none" id="curve_2" stroke="#000000" stroke-linecap="round" stroke-linejoin="round" stroke-width="3.770506917351838"/>
  <path d="M 50.21052936450994, 105.6533448203437 Q 51.29723008744812, 105.75141272172901, 52.39197711144863, 105.93967049704423 " fill="none" id="curve_4" stroke="#000000" stroke-linecap="round" stroke-linejoin="round" stroke-width="3.925851517859552"/>
  <path d="M 52.39197711144863, 105.93967049704423 Q 47.81204479250504, 105.57034439362748, 47.571365865674984, 81.14829499990859 " fill="none" id="curve_4" stroke="#000000" stroke-linecap="round" stroke-linejoin="round" stroke-width="3.254411519410055"/>
  <path d="M 43.159937055725244, 60.5610580947171 Q 37.55256817638197, 65.36871229406616, 28.097052085913504, 76.05058760016615 " fill="none" id="curve_5" stroke="#000000" stroke-linecap="round" stroke-linejoin="round" stroke-width="2.9954712887635107"/>
  <path d="M 28.097052085913504, 76.05058760016615 Q 22.233117190869923, 80.94644436014084, 13.939883225470055, 89.44921305009126 " fill="none" id="curve_5" stroke="#000000" stroke-linecap="round" stroke-linejoin="round" stroke-width="2.8323387675643596"/>
  <path d="M 1.982401953277332, 139.00519642944096 Q 1.7059376415746763, 138.69107903548155, 1.3059653446373007, 138.35890829629105 " fill="none" id="curve_46" stroke="#000000" stroke-linecap="round" stroke-linejoin="round" stroke-width="2.372931653208971"/>
  <path d="M 56.32310305894704, 44.97560375897981 Q 51.66966640621806, 48.20154747778723, 46.91660751857265, 54.45390890689683 " fill="none" id="curve_52" stroke="#000000" stroke-linecap="round" stroke-linejoin="round" stroke-width="3.0500694292551267"/>
  <path d="M 49.78826151768001, 82.90451177756728 Q 50.844797071958, 76.71157281722496, 53.15026319828992, 70.43138554770515 " fill="none" id="curve_80" stroke="#000000" stroke-linecap="round" stroke-linejoin="round" stroke-width="2.3650907304058864"/>
  <path d="M 30.90766650887164, 76.4454815421029 Q 30.396010120710564, 77.32650119468897, 28.752140973509604, 77.75941506054848 " fill="none" id="curve_81" stroke="#000000" stroke-linecap="round" stroke-linejoin="round" stroke-width="3.239809656743553"/>
  <path d="M 47.36693633612387, 102.73082745083559 Q 47.601563135499134, 101.87326208164215, 47.85644071875698, 100.11184119718861 " fill="none" id="curve_82" stroke="#000000" stroke-linecap="round" stroke-linejoin="round" stroke-width="3.4193289700051"/>
  <path d="M 59.46729493202865, 40.208604774264316 Q 59.81416546811906, 39.9753236991744, 60.12128747522964, 39.38149044659241 " fill="none" id="curve_86" stroke="#000000" stroke-linecap="round" stroke-linejoin="round" stroke-width="3.2435514663239693"/>
  <path d="M 52.311618921486016, 45.90864665349975 Q 48.778984621768544, 51.85596523283143, 42.14206151543871, 59.91356698990052 " fill="none" id="curve_92" stroke="#000000" stroke-linecap="round" stroke-linejoin="round" stroke-width="2.291944633478174"/>
  <path d="M 50.10415797514559, 48.83029107703813 Q 47.951509341386924, 53.646147324460955, 42.891760134809076, 59.56404744430348 " fill="none" id="curve_93" stroke="#000000" stroke-linecap="round" stroke-linejoin="round" stroke-width="2.4135615051148505"/>
</svg>
