<?xml version="1.0" ?>
<svg height="140" width="140" xmlns="http://www.w3.org/2000/svg">
  <path d="M 31.458568572998047, 39.67646598815918 Q 23.650807886046977, 40.540695957549225, 18.40060518371729, 48.77787291161968 " fill="none" id="curve_1" stroke="#000000" stroke-linecap="round" stroke-linejoin="round" stroke-width="5.477156869370462"/>
  <path d="M 18.40060518371729, 48.77787291161968 Q 13.548414699739514, 54.08666909733927, 4.061934365817967, 67.52139552918885 " fill="none" id="curve_1" stroke="#000000" stroke-linecap="round" stroke-linejoin="round" stroke-width="5.177465175937006"/>
  <path d="M 4.061934365817967, 67.52139552918885 Q 4.1322221679668845, 71.3918526600667, 4.955947268680534, 71.93758829635053 " fill="none" id="curve_1" stroke="#000000" stroke-linecap="round" stroke-linejoin="round" stroke-width="4.5742475234366315"/>
  <path d="M 31.686602507345228, 96.77616331997442 Q 32.100756373093525, 78.8956309727774, 36.36500506787726, 61.50715559734615 " fill="none" id="curve_2" stroke="#000000" stroke-linecap="round" stroke-linejoin="round" stroke-width="5.418547481191858"/>
  <path d="M 36.36500506787726, 61.50715559734615 Q 36.432475669706676, 57.79103285821388, 36.46930837591653, 40.4052100968505 " fill="none" id="curve_2" stroke="#000000" stroke-linecap="round" stroke-linejoin="round" stroke-width="4.745356999518486"/>
  <path d="M 36.46930837591653, 40.4052100968505 Q 35.78372918805944, 38.74567582858017, 29.708304733413343, 38.42926245684828 " fill="none" id="curve_2" stroke="#000000" stroke-linecap="round" stroke-linejoin="round" stroke-width="5.081268186916786"/>
  <path d="M 30.86346731557573, 92.82270159306228 Q 31.04681326675601, 98.96587371392484, 32.645045134125766, 100.31500998636861 " fill="none" id="curve_4" stroke="#000000" stroke-linecap="round" stroke-linejoin="round" stroke-width="3.794170600137863"/>
  <path d="M 32.645045134125766, 100.31500998636861 Q 30.365159944998865, 99.2818391414882, 29.839833113367497, 89.68963599180833 " fill="none" id="curve_4" stroke="#000000" stroke-linecap="round" stroke-linejoin="round" stroke-width="3.905719038068822"/>
  <path d="M 29.839833113367497, 89.68963599180833 Q 30.529679601427855, 78.76430665151655, 35.67272535859717, 75.08148709103706 " fill="none" id="curve_4" stroke="#000000" stroke-linecap="round" stroke-linejoin="round" stroke-width="3.5849207970014785"/>
  <path d="M 28.85992111272894, 39.314906089890854 Q 25.428393172662936, 42.85529026585321, 21.500292566809645, 48.013227140625986 " fill="none" id="curve_6" stroke="#000000" stroke-linecap="round" stroke-linejoin="round" stroke-width="3.1280063533794418"/>
  <path d="M 35.35442274505594, 41.004911637726934 Q 37.498599125599426, 43.41035615598479, 38.01234002209155, 55.268696585548334 " fill="none" id="curve_7" stroke="#000000" stroke-linecap="round" stroke-linejoin="round" stroke-width="3.1246420294721755"/>
  <path d="M 38.01234002209155, 55.268696585548334 Q 35.97864633381997, 57.34094827255762, 34.190612077606865, 60.60257335521459 " fill="none" id="curve_7" stroke="#000000" stroke-linecap="round" stroke-linejoin="round" stroke-width="4.316140693152157"/>
  <path d="M 28.23312791174083, 40.2592812233813 Q 27.904777367207995, 40.31274735216963, 27.205322749765383, 40.40539039589568 " fill="none" id="curve_8" stroke="#000000" stroke-linecap="round" stroke-linejoin="round" stroke-width="2.811921796880597"/>
  <path d="M 27.205322749765383, 40.40539039589568 Q 27.112838371189152, 40.89399883676919, 26.85289261807929, 41.655571876723755 " fill="none" id="curve_8" stroke="#000000" stroke-linecap="round" stroke-linejoin="round" stroke-width="3.1301567665651686"/>
  <path d="M 35.72557527641486, 44.570508832635085 Q 34.90169995693763, 42.50055943914591, 32.69753112352083, 40.2422602604121 " fill="none" id="curve_15" stroke="#000000" stroke-linecap="round" stroke-linejoin="round" stroke-width="3.3821980243489373"/>
  <path d="M 36.19420291093411, 72.13185554755523 Q 35.618610818359166, 71.0073167274836, 34.04786062642096, 69.57422997330312 " fill="none" id="curve_56" stroke="#000000" stroke-linecap="round" stroke-linejoin="round" stroke-width="2.97247806220349"/>
  <path d="M 37.40822002192101, 44.63874085840793 Q 38.213999469573615, 45.10739055145206, 38.850086705854906, 46.775664267865864 " fill="none" id="curve_72" stroke="#000000" stroke-linecap="round" stroke-linejoin="round" stroke-width="2.3381588037154435"/>
  <path d="M 2.9299775786271365, 71.84855989342827 Q 6.341024690565245, 61.08106004176765, 17.68808390970745, 49.31398599663062 " fill="none" id="curve_77" stroke="#000000" stroke-linecap="round" stroke-linejoin="round" stroke-width="2.4216613615210956"/>
  <path d="M 38.225352990690226, 59.691309336726135 Q 37.94770587747731, 58.97600271878087, 37.30241490374366, 58.13711592444489 " fill="none" id="curve_144" stroke="#000000" stroke-linecap="round" stroke-linejoin="round" stroke-width="3.230489101766113"/>
</svg>
