<?xml version="1.0" ?>
<svg height="140" width="140" xmlns="http://www.w3.org/2000/svg">
  <path d="M 75.19832611083984, 111.7527084350586 Q 75.40364633928182, 114.44670044814953, 75.724750480872, 118.84438479798172 " fill="none" id="curve_1" stroke="#000000" stroke-linecap="round" stroke-linejoin="round" stroke-width="5.662485743828468"/>
  <path d="M 75.724750480872, 118.84438479798172 Q 73.00574429035584, 115.15977474692116, 70.88203849365499, 97.23076273440773 " fill="none" id="curve_1" stroke="#000000" stroke-linecap="round" stroke-linejoin="round" stroke-width="6.410254791811976"/>
  <path d="M 70.88203849365499, 97.23076273440773 Q 70.85825075961804, 91.26289685221244, 70.81568825323428, 68.73394897066171 " fill="none" id="curve_1" stroke="#000000" stroke-linecap="round" stroke-linejoin="round" stroke-width="5.04246295981816"/>
  <path d="M 70.81568825323428, 68.73394897066171 Q 70.23726884166145, 58.691925285757065, 69.18958849507304, 44.80227519957404 " fill="none" id="curve_1" stroke="#000000" stroke-linecap="round" stroke-linejoin="round" stroke-width="5.678730610540659"/>
  <path d="M 69.18958849507304, 44.80227519957404 Q 65.19890189744002, 55.57060304781322, 52.31159523244614, 83.67145379780214 " fill="none" id="curve_1" stroke="#000000" stroke-linecap="round" stroke-linejoin="round" stroke-width="4.450820322205109"/>
  <path d="M 52.31159523244614, 83.67145379780214 Q 46.76898239310378, 97.91070156601481, 36.23092057624655, 122.90061731459988 " fill="none" id="curve_1" stroke="#000000" stroke-linecap="round" stroke-linejoin="round" stroke-width="4.292486574320776"/>
  <path d="M 36.23092057624655, 122.90061731459988 Q 37.880430226181154, 121.17103174581926, 39.498735826861726, 116.15059494188836 " fill="none" id="curve_1" stroke="#000000" stroke-linecap="round" stroke-linejoin="round" stroke-width="3.180339554883059"/>
  <path d="M 39.498735826861726, 116.15059494188836 Q 40.75009654843851, 113.76704755504633, 42.11280958211216, 107.14211538686331 " fill="none" id="curve_1" stroke="#000000" stroke-linecap="round" stroke-linejoin="round" stroke-width="3.1485125037296027"/>
  <path d="M 63.456859058089684, 53.363690839896606 Q 60.547657271700416, 63.86570590950387, 54.609912686775196, 76.85194145498994 " fill="none" id="curve_5" stroke="#000000" stroke-linecap="round" stroke-linejoin="round" stroke-width="2.006745068351265"/>
  <path d="M 69.00995857264664, 66.35316055176418 Q 68.93561455484024, 65.31629745007402, 68.88357833214087, 60.84712421619017 " fill="none" id="curve_6" stroke="#000000" stroke-linecap="round" stroke-linejoin="round" stroke-width="3.370101453645331"/>
  <path d="M 47.52637838289931, 94.85301927879065 Q 48.384752388083676, 86.75017337062857, 52.941480671922164, 82.35932080032713 " fill="none" id="curve_9" stroke="#000000" stroke-linecap="round" stroke-linejoin="round" stroke-width="2.2830767138841157"/>
  <path d="M 78.12368132778188, 119.8575658706386 Q 78.16090886417231, 119.95255338086132, 78.2101564531777, 120.11688991200005 " fill="none" id="curve_10" stroke="#000000" stroke-linecap="round" stroke-linejoin="round" stroke-width="3.382785845562629"/>
  <path d="M 36.42112743494732, 114.43341248539969 Q 39.30955676032385, 114.39244331737314, 41.195710969323656, 114.1709243357429 " fill="none" id="curve_11" stroke="#000000" stroke-linecap="round" stroke-linejoin="round" stroke-width="3.2261847551189144"/>
  <path d="M 68.95571039445002, 45.854061481894206 Q 68.11669140287555, 46.534873881569865, 67.22215673396555, 47.94167050179193 " fill="none" id="curve_14" stroke="#000000" stroke-linecap="round" stroke-linejoin="round" stroke-width="5.045809337464469"/>
  <path d="M 58.03616860502217, 66.37459578790367 Q 57.45334185583951, 68.21586543161001, 56.09252524624584, 71.50326391723601 " fill="none" id="curve_107" stroke="#000000" stroke-linecap="round" stroke-linejoin="round" stroke-width="2.289893167737985"/>
</svg>
