<?xml version="1.0" ?>
<svg height="140" width="140" xmlns="http://www.w3.org/2000/svg">
  <path d="M 56.0643310546875, 29.51898765563965 Q 56.85378482914725, 26.233827886898744, 60.32013604552037, 24.741895039979795 " fill="none" id="curve_1" stroke="#000000" stroke-linecap="round" stroke-linejoin="round" stroke-width="4.717404349052874"/>
  <path d="M 60.32013604552037, 24.741895039979795 Q 58.773214248045775, 29.644323466715253, 53.91127791000184, 34.01004575830944 " fill="none" id="curve_1" stroke="#000000" stroke-linecap="round" stroke-linejoin="round" stroke-width="6.388644993094597"/>
  <path d="M 53.91127791000184, 34.01004575830944 Q 48.75252452787481, 40.86042675371347, 32.836983357621364, 60.67602912423678 " fill="none" id="curve_1" stroke="#000000" stroke-linecap="round" stroke-linejoin="round" stroke-width="4.046965512242099"/>
  <path d="M 32.836983357621364, 60.67602912423678 Q 26.490631964560116, 68.02496393557817, 10.136964749038203, 87.92838072479461 " fill="none" id="curve_1" stroke="#000000" stroke-linecap="round" stroke-linejoin="round" stroke-width="4.516758791662571"/>
  <path d="M 42.50314983970145, 104.7628655008899 Q 41.54275620842445, 102.61849453660746, 41.17058855541957, 91.56523049723346 " fill="none" id="curve_2" stroke="#000000" stroke-linecap="round" stroke-linejoin="round" stroke-width="4.431706556921131"/>
  <path d="M 41.17058855541957, 91.56523049723346 Q 42.05781437983075, 73.83930766486392, 49.93474444154108, 54.21608279723196 " fill="none" id="curve_2" stroke="#000000" stroke-linecap="round" stroke-linejoin="round" stroke-width="5.091087790762629"/>
  <path d="M 49.93474444154108, 54.21608279723196 Q 53.253331337773645, 45.70564024235769, 58.19380027034276, 32.55934612378695 " fill="none" id="curve_2" stroke="#000000" stroke-linecap="round" stroke-linejoin="round" stroke-width="3.8122332357897477"/>
  <path d="M 51.763134872156435, 47.91373439655503 Q 48.43604944917241, 60.95305642148914, 42.51494874084027, 77.45345528415788 " fill="none" id="curve_6" stroke="#000000" stroke-linecap="round" stroke-linejoin="round" stroke-width="2.6441823113791307"/>
  <path d="M 44.13196534045874, 106.21377301967962 Q 44.567685621225785, 106.18561390338424, 45.02507098074647, 106.1313224724853 " fill="none" id="curve_7" stroke="#000000" stroke-linecap="round" stroke-linejoin="round" stroke-width="3.0535862054007747"/>
  <path d="M 11.271321978465389, 87.56845134539988 Q 11.336656048316577, 88.51562111351765, 11.615765060113683, 89.11488991354267 " fill="none" id="curve_9" stroke="#000000" stroke-linecap="round" stroke-linejoin="round" stroke-width="2.656734890406378"/>
  <path d="M 56.18498843636333, 28.775271938719882 Q 53.96596695728435, 30.357879485468228, 52.31847865022272, 34.192630758492264 " fill="none" id="curve_12" stroke="#000000" stroke-linecap="round" stroke-linejoin="round" stroke-width="3.2536980534123607"/>
  <path d="M 49.576290044316, 50.58234662757202 Q 47.869061720889356, 61.86627475343026, 42.939229903270885, 73.53488309449094 " fill="none" id="curve_13" stroke="#000000" stroke-linecap="round" stroke-linejoin="round" stroke-width="2.8445563539659005"/>
  <path d="M 42.939229903270885, 73.53488309449094 Q 46.9364227334064, 67.03463345723198, 50.8724918838647, 51.28896835385855 " fill="none" id="curve_13" stroke="#000000" stroke-linecap="round" stroke-linejoin="round" stroke-width="2.5022803703301273"/>
  <path d="M 29.25280807590196, 62.331636667029386 Q 34.566868160053225, 58.32476019151123, 41.067361133016036, 51.455372333965684 " fill="none" id="curve_17" stroke="#000000" stroke-linecap="round" stroke-linejoin="round" stroke-width="2.2699822902825635"/>
  <path d="M 26.35229199763853, 66.24385853577405 Q 26.578468980159915, 65.84000924691286, 26.87263132712748, 64.79839463821834 " fill="none" id="curve_45" stroke="#000000" stroke-linecap="round" stroke-linejoin="round" stroke-width="3.1892135143255165"/>
  <path d="M 47.62540054321289, 56.89525032043457 Q 45.46962592957041, 59.9846134601702, 42.72854759525694, 69.68717279376165 " fill="none" id="curve_59" stroke="#000000" stroke-linecap="round" stroke-linejoin="round" stroke-width="2.4956061666506253"/>
  <path d="M 41.875795494533925, 86.96584145252734 Q 42.48862693715091, 80.93093018876618, 43.495239632219175, 71.46633456165415 " fill="none" id="curve_60" stroke="#000000" stroke-linecap="round" stroke-linejoin="round" stroke-width="2.3578994555356014"/>
  <path d="M 40.893112623681226, 52.153901592750685 Q 39.50101694379232, 55.47216330166397, 32.872052617876165, 57.00072146407437 " fill="none" id="curve_127" stroke="#000000" stroke-linecap="round" stroke-linejoin="round" stroke-width="3.0067117477566456"/>
  <path d="M 41.08567546009204, 86.04442979350699 Q 41.8125260438781, 85.25906127862193, 42.595810036159705, 83.37919283148779 " fill="none" id="curve_131" stroke="#000000" stroke-linecap="round" stroke-linejoin="round" stroke-width="3.121656683843398"/>
  <path d="M 41.830509185791016, 76.74481415748596 Q 41.98799069822954, 85.94683553882712, 43.82828528971959, 87.443724341284 " fill="none" id="curve_145" stroke="#000000" stroke-linecap="round" stroke-linejoin="round" stroke-width="2.81806932025958"/>
  <path d="M 49.77003120272631, 50.420752499395135 Q 48.46061938900012, 59.58805712106065, 44.64089330445343, 70.96805220527445 " fill="none" id="curve_148" stroke="#000000" stroke-linecap="round" stroke-linejoin="round" stroke-width="2.37143339299135"/>
</svg>
