<?xml version="1.0" ?>
<svg height="140" width="140" xmlns="http://www.w3.org/2000/svg">
  <path d="M 58.25180244445801, 59.024174213409424 Q 58.07035286837777, 58.79663567505336, 57.49289367112655, 58.6157178268261 " fill="none" id="curve_1" stroke="#000000" stroke-linecap="round" stroke-linejoin="round" stroke-width="7.720914847295334"/>
  <path d="M 57.49289367112655, 58.6157178268261 Q 54.04186053653292, 65.10383248750593, 49.47670361288338, 74.57685318587332 " fill="none" id="curve_1" stroke="#000000" stroke-linecap="round" stroke-linejoin="round" stroke-width="8.994640109864825"/>
  <path d="M 49.47670361288338, 74.57685318587332 Q 47.67015274524059, 81.8644825127708, 27.856613085576377, 83.650704841649 " fill="none" id="curve_1" stroke="#000000" stroke-linecap="round" stroke-linejoin="round" stroke-width="4.125632610127712"/>
  <path d="M 27.856613085576377, 83.650704841649 Q 18.0346339945634, 83.15268625764875, 16.213402368086545, 77.79643861815902 " fill="none" id="curve_1" stroke="#000000" stroke-linecap="round" stroke-linejoin="round" stroke-width="5.365194645663882"/>
  <path d="M 47.59636209123581, 81.66755674693688 Q 45.367655405503875, 84.61533577643738, 44.95158145057027, 104.15338157451559 " fill="none" id="curve_2" stroke="#000000" stroke-linecap="round" stroke-linejoin="round" stroke-width="5.562975740420764"/>
  <path d="M 44.95158145057027, 104.15338157451559 Q 46.26157110282111, 110.14162236346455, 52.35093234985744, 111.6409769656797 " fill="none" id="curve_2" stroke="#000000" stroke-linecap="round" stroke-linejoin="round" stroke-width="4.99323119866113"/>
  <path d="M 54.422862451852964, 71.8875904107451 Q 58.442908650103526, 68.05138203098247, 61.33617200983784, 59.5806903901438 " fill="none" id="curve_4" stroke="#000000" stroke-linecap="round" stroke-linejoin="round" stroke-width="3.2574374881574255"/>
  <path d="M 47.998762964212, 85.09206504685989 Q 44.43618386756563, 86.9625995160631, 43.46409381349698, 95.38890991497762 " fill="none" id="curve_5" stroke="#000000" stroke-linecap="round" stroke-linejoin="round" stroke-width="2.7968177665111913"/>
  <path d="M 30.37663151701923, 82.40298754898276 Q 25.50607032084511, 81.81193402062003, 18.63633281168881, 80.8590838228994 " fill="none" id="curve_6" stroke="#000000" stroke-linecap="round" stroke-linejoin="round" stroke-width="2.848684103244532"/>
  <path d="M 46.85776094215849, 103.77658719052772 Q 46.65102582971244, 102.95715951823, 46.42935155916992, 100.94687387382089 " fill="none" id="curve_7" stroke="#000000" stroke-linecap="round" stroke-linejoin="round" stroke-width="3.3469788158777014"/>
  <path d="M 45.98073414888671, 87.13349458827082 Q 46.46438141470529, 87.63159011588446, 46.84624928985413, 89.60753251715744 " fill="none" id="curve_8" stroke="#000000" stroke-linecap="round" stroke-linejoin="round" stroke-width="3.4981907795261518"/>
  <path d="M 14.369661327637232, 77.74611534110846 Q 14.599732561418502, 77.96890121384101, 14.787800502508428, 78.55835879826382 " fill="none" id="curve_23" stroke="#000000" stroke-linecap="round" stroke-linejoin="round" stroke-width="3.121306898437828"/>
  <path d="M 46.304767179130394, 88.79996159178478 Q 46.03100742719941, 88.74029399457281, 45.6982711514257, 88.56104715078368 " fill="none" id="curve_26" stroke="#000000" stroke-linecap="round" stroke-linejoin="round" stroke-width="3.147446051841671"/>
  <path d="M 45.85764991341411, 87.71586810768753 Q 44.757263431911745, 88.65787651366541, 43.68016819015554, 90.67559469941035 " fill="none" id="curve_42" stroke="#000000" stroke-linecap="round" stroke-linejoin="round" stroke-width="3.705988129699059"/>
  <path d="M 28.228724002334868, 83.47122101476093 Q 30.277290477353304, 82.81426229547111, 34.88607796282974, 82.19162278709814 " fill="none" id="curve_86" stroke="#000000" stroke-linecap="round" stroke-linejoin="round" stroke-width="3.2650956262165014"/>
  <path d="M 21.66590949138428, 83.80459903021104 Q 21.28206310474193, 83.58627951714357, 20.677914216131956, 83.26472493309224 " fill="none" id="curve_121" stroke="#000000" stroke-linecap="round" stroke-linejoin="round" stroke-width="3.773685847727125"/>
</svg>
