<?xml version="1.0" ?>
<svg height="140" width="140" xmlns="http://www.w3.org/2000/svg">
  <path d="M 42.83657455444336, 107.46996545791626 Q 43.852576401604445, 106.47815076495499, 44.71690872826406, 102.9355792164406 " fill="none" id="curve_1" stroke="#000000" stroke-linecap="round" stroke-linejoin="round" stroke-width="8.035515566722914"/>
  <path d="M 44.71690872826406, 102.9355792164406 Q 45.75744706224296, 97.97396506040428, 47.66799418856867, 90.83425973378979 " fill="none" id="curve_1" stroke="#000000" stroke-linecap="round" stroke-linejoin="round" stroke-width="6.210059176033499"/>
  <path d="M 47.66799418856867, 90.83425973378979 Q 48.807377482261664, 84.19858794096149, 52.15856447308634, 79.98774574255252 " fill="none" id="curve_1" stroke="#000000" stroke-linecap="round" stroke-linejoin="round" stroke-width="5.321450402669119"/>
  <path d="M 52.15856447308634, 79.98774574255252 Q 53.7834088695843, 71.42418204203952, 57.51349167797869, 63.73750590899175 " fill="none" id="curve_1" stroke="#000000" stroke-linecap="round" stroke-linejoin="round" stroke-width="6.252471347292725"/>
  <path d="M 57.51349167797869, 63.73750590899175 Q 57.325957905300086, 50.66504523109896, 40.39302877756856, 50.113132435027346 " fill="none" id="curve_1" stroke="#000000" stroke-linecap="round" stroke-linejoin="round" stroke-width="5.941254955527176"/>
  <path d="M 40.39302877756856, 50.113132435027346 Q 27.453459730147085, 50.90948742428477, 22.165415472465043, 53.75998416331524 " fill="none" id="curve_1" stroke="#000000" stroke-linecap="round" stroke-linejoin="round" stroke-width="3.983702387408382"/>
  <path d="M 32.344806396127886, 80.7101086115731 Q 32.837858701716726, 81.69035359805886, 53.659329087469885, 81.7396572156441 " fill="none" id="curve_2" stroke="#000000" stroke-linecap="round" stroke-linejoin="round" stroke-width="5.188630182726958"/>
  <path d="M 53.659329087469885, 81.7396572156441 Q 56.6449001641703, 80.48700522585806, 61.061861271308075, 79.38167141118218 " fill="none" id="curve_2" stroke="#000000" stroke-linecap="round" stroke-linejoin="round" stroke-width="3.522935691381351"/>
  <path d="M 46.31220191504605, 107.31796834695595 Q 45.108994084845136, 108.0426179012676, 43.418642882925944, 108.66951117135383 " fill="none" id="curve_3" stroke="#000000" stroke-linecap="round" stroke-linejoin="round" stroke-width="5.475870061963866"/>
  <path d="M 34.05896490832928, 80.01576407899452 Q 38.81133274473369, 81.74004117147581, 46.39291993515036, 83.6302577314724 " fill="none" id="curve_4" stroke="#000000" stroke-linecap="round" stroke-linejoin="round" stroke-width="3.013303822673824"/>
  <path d="M 38.328258896475276, 80.79215161446716 Q 36.81012870601719, 79.9430231760401, 33.59012928928587, 79.1475648043716 " fill="none" id="curve_5" stroke="#000000" stroke-linecap="round" stroke-linejoin="round" stroke-width="3.7976569075757496"/>
  <path d="M 35.623587631938165, 50.00260685469222 Q 37.218443452694075, 49.57905410946748, 41.21262692899997, 48.980122618470716 " fill="none" id="curve_6" stroke="#000000" stroke-linecap="round" stroke-linejoin="round" stroke-width="2.801792042051818"/>
  <path d="M 89.08389119364611, 2.7284116130481095 Q 89.21785341455261, 2.2579719851200086, 89.52389471286828, 1.5822754509335972 " fill="none" id="curve_7" stroke="#000000" stroke-linecap="round" stroke-linejoin="round" stroke-width="2.077621952103758"/>
  <path d="M 88.08566056676693, 0.8345827852499781 Q 88.27982019472908, 1.3513430389012029, 88.73792059766947, 1.9709054763817546 " fill="none" id="curve_10" stroke="#000000" stroke-linecap="round" stroke-linejoin="round" stroke-width="2.2541599787722535"/>
  <path d="M 53.850411464864194, 68.05812313973412 Q 54.53300643877325, 67.53479539676091, 55.36232457663241, 66.26111420713826 " fill="none" id="curve_27" stroke="#000000" stroke-linecap="round" stroke-linejoin="round" stroke-width="3.3346637277051667"/>
  <path d="M 39.13275024009772, 83.37113009010613 Q 38.51349303128676, 83.13760500691475, 37.26155973955138, 82.86649792969192 " fill="none" id="curve_42" stroke="#000000" stroke-linecap="round" stroke-linejoin="round" stroke-width="3.04902401440619"/>
  <path d="M 49.62060175761951, 88.57262100606869 Q 50.0911379491709, 86.66789088358216, 50.91350042074889, 83.62108245285307 " fill="none" id="curve_58" stroke="#000000" stroke-linecap="round" stroke-linejoin="round" stroke-width="3.532056311330222"/>
  <path d="M 24.21138572692871, 52.14716196060181 Q 23.234063423700817, 52.383850754729124, 21.933641798789694, 52.877131068435226 " fill="none" id="curve_98" stroke="#000000" stroke-linecap="round" stroke-linejoin="round" stroke-width="2.616193637829249"/>
  <path d="M 51.22974765624872, 79.18823506116944 Q 50.20854079799613, 79.32592935185566, 49.3274740399059, 79.7226128931579 " fill="none" id="curve_126" stroke="#000000" stroke-linecap="round" stroke-linejoin="round" stroke-width="3.2911684856620913"/>
  <path d="M 52.32939451065613, 69.69687401549527 Q 53.59055155770787, 68.71881225645677, 55.39945311134903, 66.38497493640031 " fill="none" id="curve_141" stroke="#000000" stroke-linecap="round" stroke-linejoin="round" stroke-width="2.722591818828991"/>
  <path d="M 2.3526084604789146, 1.0133213995401413 Q 2.8620548516877626, 1.0252206159675012, 3.6261787782111448, 1.0493109882654754 " fill="none" id="curve_145" stroke="#000000" stroke-linecap="round" stroke-linejoin="round" stroke-width="2.020989416530203"/>
</svg>
