<?xml version="1.0" ?>
<svg height="140" width="140" xmlns="http://www.w3.org/2000/svg">
  <path d="M 34.46583080291748, 109.38714826107025 Q 35.86288131610402, 98.46854759169784, 44.39196618646366, 86.42635512482593 " fill="none" id="curve_1" stroke="#000000" stroke-linecap="round" stroke-linejoin="round" stroke-width="5.2260719088724"/>
  <path d="M 44.39196618646366, 86.42635512482593 Q 49.4121392049584, 78.3232631056565, 59.502289584840355, 58.72924924442178 " fill="none" id="curve_1" stroke="#000000" stroke-linecap="round" stroke-linejoin="round" stroke-width="4.522436121575053"/>
  <path d="M 59.502289584840355, 58.72924924442178 Q 61.93061287596864, 53.816892276070234, 63.71312000562467, 42.32092819880147 " fill="none" id="curve_1" stroke="#000000" stroke-linecap="round" stroke-linejoin="round" stroke-width="5.857059483884033"/>
  <path d="M 63.71312000562467, 42.32092819880147 Q 62.38982746975504, 39.74022174865185, 56.251738709058415, 38.66047723396612 " fill="none" id="curve_1" stroke="#000000" stroke-linecap="round" stroke-linejoin="round" stroke-width="4.9568398039502926"/>
  <path d="M 56.251738709058415, 38.66047723396612 Q 43.560338124321746, 39.213400562062546, 27.769210127872032, 41.03154958361821 " fill="none" id="curve_1" stroke="#000000" stroke-linecap="round" stroke-linejoin="round" stroke-width="5.226960568124597"/>
  <path d="M 33.358826707852316, 71.74378768935645 Q 45.10707882653236, 74.23038860201517, 59.31032978124258, 77.18631011754817 " fill="none" id="curve_2" stroke="#000000" stroke-linecap="round" stroke-linejoin="round" stroke-width="4.483018306800548"/>
  <path d="M 37.014453795069834, 101.86125143375611 Q 36.97073152378178, 106.82039659251565, 36.75950054123528, 108.35344763324969 " fill="none" id="curve_3" stroke="#000000" stroke-linecap="round" stroke-linejoin="round" stroke-width="4.652320504059887"/>
  <path d="M 36.75950054123528, 108.35344763324969 Q 38.035326730981296, 94.78326115059545, 45.26615234599897, 81.0265449379933 " fill="none" id="curve_3" stroke="#000000" stroke-linecap="round" stroke-linejoin="round" stroke-width="2.821896268831365"/>
  <path d="M 62.7797606581161, 48.59507161780068 Q 59.13025586904769, 61.78164532508414, 49.85326387261482, 74.7142789044374 " fill="none" id="curve_4" stroke="#000000" stroke-linecap="round" stroke-linejoin="round" stroke-width="3.29508894746695"/>
  <path d="M 33.99603812660631, 103.32676038365821 Q 33.961852812429704, 106.22769284544235, 33.80226447597217, 107.26944557385286 " fill="none" id="curve_8" stroke="#000000" stroke-linecap="round" stroke-linejoin="round" stroke-width="3.1884106021715906"/>
  <path d="M 59.861789528925144, 77.88858890283304 Q 59.84893191324224, 78.25330484335402, 59.8293010023902, 78.87809810726178 " fill="none" id="curve_9" stroke="#000000" stroke-linecap="round" stroke-linejoin="round" stroke-width="3.3362938544063976"/>
  <path d="M 26.793580116884577, 41.64733170741636 Q 26.65103761961516, 41.81106097756772, 26.48781068922507, 42.05358290945251 " fill="none" id="curve_13" stroke="#000000" stroke-linecap="round" stroke-linejoin="round" stroke-width="3.448924363117777"/>
  <path d="M 57.98900439001557, 62.46885165960184 Q 58.4828745829643, 60.16210094373336, 59.0493589460388, 54.413892866303726 " fill="none" id="curve_14" stroke="#000000" stroke-linecap="round" stroke-linejoin="round" stroke-width="3.381469808381235"/>
  <path d="M 52.51958972540425, 73.0189273576161 Q 55.93443152370855, 67.43345761311691, 60.87865031653104, 60.66239059494178 " fill="none" id="curve_15" stroke="#000000" stroke-linecap="round" stroke-linejoin="round" stroke-width="2.9069729036896654"/>
  <path d="M 43.332156442209595, 92.81232337008092 Q 36.47230230871391, 94.23913338193329, 34.516061382031644, 103.03496822032294 " fill="none" id="curve_25" stroke="#000000" stroke-linecap="round" stroke-linejoin="round" stroke-width="3.187883011585004"/>
  <path d="M 36.824734155353745, 72.39181399957872 Q 45.028530968623706, 73.23972224988387, 49.60893065269238, 76.07589592230687 " fill="none" id="curve_26" stroke="#000000" stroke-linecap="round" stroke-linejoin="round" stroke-width="2.539399211963299"/>
  <path d="M 47.952457099232014, 38.12972330310473 Q 48.86078527965749, 37.88568930113909, 51.90770626692539, 37.62758381200899 " fill="none" id="curve_27" stroke="#000000" stroke-linecap="round" stroke-linejoin="round" stroke-width="2.910989592120955"/>
  <path d="M 60.37346935530263, 50.59900147615781 Q 60.1644599005351, 51.42269274506171, 59.84639590026394, 52.97119190335216 " fill="none" id="curve_42" stroke="#000000" stroke-linecap="round" stroke-linejoin="round" stroke-width="3.0156762592109514"/>
  <path d="M 50.727048952056066, 77.25297338037615 Q 52.32999725063237, 76.95261311155939, 53.73536433432072, 76.32705522330183 " fill="none" id="curve_122" stroke="#000000" stroke-linecap="round" stroke-linejoin="round" stroke-width="3.110486313106992"/>
  <path d="M 62.18578810136761, 45.7941098792291 Q 62.14563264097718, 41.98639461451858, 62.03558941489335, 39.124225203913525 " fill="none" id="curve_123" stroke="#000000" stroke-linecap="round" stroke-linejoin="round" stroke-width="3.242799436601213"/>
  <path d="M 40.972143669944046, 38.4522111185537 Q 36.86527757680091, 38.56367412812734, 33.115227136095925, 38.825011787513006 " fill="none" id="curve_141" stroke="#000000" stroke-linecap="round" stroke-linejoin="round" stroke-width="2.5199492997087027"/>
</svg>
