<?xml version="1.0" ?>
<svg height="140" width="140" xmlns="http://www.w3.org/2000/svg">
  <path d="M 84.61570506878819, 75.42818999091396 Q 77.33686094384466, 75.7932287342454, 64.3025225115732, 76.61828989541192 " fill="none" id="curve_2" stroke="#000000" stroke-linecap="round" stroke-linejoin="round" stroke-width="4.398537512774302"/>
  <path d="M 64.3025225115732, 76.61828989541192 Q 50.03702769904081, 76.71695988073017, 46.60237763903758, 77.51271015166301 " fill="none" id="curve_2" stroke="#000000" stroke-linecap="round" stroke-linejoin="round" stroke-width="6.527395581923847"/>
  <path d="M 46.60237763903758, 77.51271015166301 Q 42.54775360992155, 86.29044138600466, 36.49678253128703, 103.7000475546941 " fill="none" id="curve_2" stroke="#000000" stroke-linecap="round" stroke-linejoin="round" stroke-width="3.77901922181478"/>
  <path d="M 31.569387693366874, 77.06508440307306 Q 32.99678810518322, 77.02072840468138, 46.52665799275478, 77.01150249651806 " fill="none" id="curve_3" stroke="#000000" stroke-linecap="round" stroke-linejoin="round" stroke-width="5.461497475034501"/>
  <path d="M 46.52665799275478, 77.01150249651806 Q 52.96823540413148, 69.88360841257942, 62.171679871675906, 51.14065537388125 " fill="none" id="curve_3" stroke="#000000" stroke-linecap="round" stroke-linejoin="round" stroke-width="3.883025396124615"/>
  <path d="M 62.171679871675906, 51.14065537388125 Q 62.08759219811846, 39.32193369240875, 50.95106689787073, 38.983594665049964 " fill="none" id="curve_3" stroke="#000000" stroke-linecap="round" stroke-linejoin="round" stroke-width="5.54406812928405"/>
  <path d="M 50.95106689787073, 38.983594665049964 Q 34.859663119769635, 38.8715684236634, 28.00990873341707, 38.36477431134544 " fill="none" id="curve_3" stroke="#000000" stroke-linecap="round" stroke-linejoin="round" stroke-width="5.604996254198051"/>
  <path d="M 28.00990873341707, 38.36477431134544 Q 26.6078092767735, 39.46116712450639, 25.514786587025256, 41.41217890294907 " fill="none" id="curve_3" stroke="#000000" stroke-linecap="round" stroke-linejoin="round" stroke-width="5.567650280291552"/>
  <path d="M 38.641949045645966, 104.886033809113 Q 38.482358447099735, 104.83130570819499, 38.31668565460887, 104.74389394098054 " fill="none" id="curve_5" stroke="#000000" stroke-linecap="round" stroke-linejoin="round" stroke-width="5.210055072051365"/>
  <path d="M 31.803375661784486, 75.05974824020434 Q 36.948906157223625, 75.74539412528132, 43.33207623576703, 76.82320589026986 " fill="none" id="curve_6" stroke="#000000" stroke-linecap="round" stroke-linejoin="round" stroke-width="3.4857495659816857"/>
  <path d="M 60.90630711000959, 49.97329064373872 Q 60.21300455715993, 57.220617477984355, 58.2204237256753, 61.662548734794136 " fill="none" id="curve_7" stroke="#000000" stroke-linecap="round" stroke-linejoin="round" stroke-width="2.8238625711892897"/>
  <path d="M 43.21051110522957, 36.77350328929347 Q 36.561148962620294, 36.83504618847617, 29.69738949231774, 36.97644402229722 " fill="none" id="curve_8" stroke="#000000" stroke-linecap="round" stroke-linejoin="round" stroke-width="3.0990454783230303"/>
  <path d="M 55.6526959594135, 40.9596322506457 Q 60.34206445717638, 41.25373439409717, 62.29148152347288, 42.347538775181 " fill="none" id="curve_9" stroke="#000000" stroke-linecap="round" stroke-linejoin="round" stroke-width="2.8892089609551883"/>
  <path d="M 62.29148152347288, 42.347538775181 Q 61.714611885524846, 56.33481712556949, 56.63159255307603, 60.735367919221105 " fill="none" id="curve_9" stroke="#000000" stroke-linecap="round" stroke-linejoin="round" stroke-width="2.143816613945089"/>
  <path d="M 56.63159255307603, 60.735367919221105 Q 60.563201915149406, 57.2886472437043, 62.57109930354413, 45.6402580010339 " fill="none" id="curve_9" stroke="#000000" stroke-linecap="round" stroke-linejoin="round" stroke-width="3.00268252769381"/>
  <path d="M 38.13265192318635, 90.8958106192334 Q 37.74522547412621, 97.45005010572874, 36.56495952477228, 100.30430183162287 " fill="none" id="curve_12" stroke="#000000" stroke-linecap="round" stroke-linejoin="round" stroke-width="2.9123431194838223"/>
  <path d="M 29.416829201552286, 75.0743385501142 Q 30.56130980222548, 74.70977798982177, 32.551807514048804, 74.28372291471383 " fill="none" id="curve_13" stroke="#000000" stroke-linecap="round" stroke-linejoin="round" stroke-width="2.5735956103548903"/>
  <path d="M 60.50702499459254, 76.60147605789264 Q 62.72249705727308, 76.7091635074467, 64.77860068649363, 76.90877118433649 " fill="none" id="curve_14" stroke="#000000" stroke-linecap="round" stroke-linejoin="round" stroke-width="4.113886194450969"/>
  <path d="M 64.77860068649363, 76.90877118433649 Q 62.034676072618375, 77.12474584207104, 54.67840130952521, 77.39657078522535 " fill="none" id="curve_14" stroke="#000000" stroke-linecap="round" stroke-linejoin="round" stroke-width="3.3126190661317754"/>
  <path d="M 60.99873655597528, 51.79165187624865 Q 59.9759919037159, 53.98405737585242, 58.830890816773426, 58.68802553690854 " fill="none" id="curve_15" stroke="#000000" stroke-linecap="round" stroke-linejoin="round" stroke-width="2.834103440288494"/>
  <path d="M 60.31235245224386, 56.99373244280319 Q 60.831744292092175, 50.79988957340565, 62.653244210088175, 46.58216494720142 " fill="none" id="curve_19" stroke="#000000" stroke-linecap="round" stroke-linejoin="round" stroke-width="2.553847167341417"/>
  <path d="M 50.33118162132144, 40.38384673124004 Q 52.12803879517518, 41.18170882714838, 57.97850397866151, 41.68731790975122 " fill="none" id="curve_28" stroke="#000000" stroke-linecap="round" stroke-linejoin="round" stroke-width="2.107230934335698"/>
  <path d="M 60.77165796768212, 54.52794608395495 Q 61.059586294279384, 49.37780750383442, 61.64497042584089, 44.8632711066007 " fill="none" id="curve_31" stroke="#000000" stroke-linecap="round" stroke-linejoin="round" stroke-width="2.6379817090774544"/>
  <path d="M 71.65521808084088, 76.85117960732828 Q 66.07179671890857, 76.06025322539588, 56.380688782881606, 74.9233455918889 " fill="none" id="curve_46" stroke="#000000" stroke-linecap="round" stroke-linejoin="round" stroke-width="2.1676679923726097"/>
  <path d="M 60.12640667190354, 52.70436512621425 Q 60.35787026469986, 52.03423446212165, 60.63711025176387, 50.54540342787922 " fill="none" id="curve_47" stroke="#000000" stroke-linecap="round" stroke-linejoin="round" stroke-width="3.4493579836756894"/>
  <path d="M 39.72826021274744, 76.58828975082187 Q 38.23401043631188, 75.4144544936939, 33.754049297338284, 74.63517093365553 " fill="none" id="curve_52" stroke="#000000" stroke-linecap="round" stroke-linejoin="round" stroke-width="3.0507641946908857"/>
  <path d="M 51.77781599326573, 70.3368802340541 Q 52.262350344288286, 65.72554965439105, 55.22452068788527, 63.17008568222306 " fill="none" id="curve_132" stroke="#000000" stroke-linecap="round" stroke-linejoin="round" stroke-width="2.7817121753079177"/>
</svg>
