<?xml version="1.0" ?>
<svg height="140" width="140" xmlns="http://www.w3.org/2000/svg">
  <path d="M 39.78710651397705, 100.4120864868164 Q 39.74554940141233, 102.19953897868528, 39.15287199966531, 102.64651360847864 " fill="none" id="curve_1" stroke="#000000" stroke-linecap="round" stroke-linejoin="round" stroke-width="7.389017861604078"/>
  <path d="M 39.15287199966531, 102.64651360847864 Q 42.53816169071802, 95.27106021639568, 50.66436117007046, 75.90590453317041 " fill="none" id="curve_1" stroke="#000000" stroke-linecap="round" stroke-linejoin="round" stroke-width="4.927931046913746"/>
  <path d="M 50.66436117007046, 75.90590453317041 Q 55.183243607115074, 68.64956360207343, 65.52676070477747, 47.251608903577 " fill="none" id="curve_1" stroke="#000000" stroke-linecap="round" stroke-linejoin="round" stroke-width="5.829531835087301"/>
  <path d="M 65.52676070477747, 47.251608903577 Q 68.12440758544398, 42.93254512719237, 71.4160862392411, 37.86555380600513 " fill="none" id="curve_1" stroke="#000000" stroke-linecap="round" stroke-linejoin="round" stroke-width="7.6787794466195685"/>
  <path d="M 71.4160862392411, 37.86555380600513 Q 61.54752514404261, 39.71836404565589, 44.086952995057416, 41.704605055476236 " fill="none" id="curve_1" stroke="#000000" stroke-linecap="round" stroke-linejoin="round" stroke-width="11.854247936745383"/>
  <path d="M 44.086952995057416, 41.704605055476236 Q 42.35886960043833, 45.28130512318025, 29.43615827115676, 45.847877277893815 " fill="none" id="curve_1" stroke="#000000" stroke-linecap="round" stroke-linejoin="round" stroke-width="8.602585184626152"/>
  <path d="M 44.62813134905694, 74.54852768847621 Q 62.72923633817396, 74.03957382758063, 67.22387397717357, 70.7145014454665 " fill="none" id="curve_2" stroke="#000000" stroke-linecap="round" stroke-linejoin="round" stroke-width="6.351175697897084"/>
  <path d="M 67.22387397717357, 70.7145014454665 Q 51.21225068508332, 71.64556257829912, 40.99528932317547, 73.94435706909469 " fill="none" id="curve_2" stroke="#000000" stroke-linecap="round" stroke-linejoin="round" stroke-width="4.008939983510781"/>
  <path d="M 50.4207536745611, 40.56775373411261 Q 52.61304205346727, 44.0703598204584, 66.28419691712881, 45.03428992079404 " fill="none" id="curve_3" stroke="#000000" stroke-linecap="round" stroke-linejoin="round" stroke-width="4.083810712181122"/>
  <path d="M 54.88172143900609, 35.22044965837671 Q 50.95997738658179, 35.77725532856493, 47.45861376953413, 36.93535777577072 " fill="none" id="curve_4" stroke="#000000" stroke-linecap="round" stroke-linejoin="round" stroke-width="3.4241946293957435"/>
  <path d="M 69.23567775330096, 40.580350233787954 Q 64.25324561920871, 48.70901753042874, 54.16319655974573, 64.15988398504662 " fill="none" id="curve_5" stroke="#000000" stroke-linecap="round" stroke-linejoin="round" stroke-width="3.2328668575202197"/>
  <path d="M 71.73684104700375, 34.11206018073107 Q 72.73247328924398, 34.793950608435594, 73.90560050837307, 36.46251934218232 " fill="none" id="curve_6" stroke="#000000" stroke-linecap="round" stroke-linejoin="round" stroke-width="3.4378816099278517"/>
  <path d="M 64.37873255181471, 53.842895923777974 Q 65.04498851536144, 50.006245321508835, 67.02948263945906, 47.91730042167769 " fill="none" id="curve_7" stroke="#000000" stroke-linecap="round" stroke-linejoin="round" stroke-width="4.437639399120135"/>
  <path d="M 58.089290618896484, 75.83625602722168 Q 60.99026900751067, 74.91561657581144, 63.83984440706493, 72.84486778901423 " fill="none" id="curve_21" stroke="#000000" stroke-linecap="round" stroke-linejoin="round" stroke-width="2.9003917755071753"/>
  <path d="M 52.936378357164834, 44.60382683089015 Q 54.05577312715876, 44.809756321881956, 57.71216241296382, 45.020645536334754 " fill="none" id="curve_23" stroke="#000000" stroke-linecap="round" stroke-linejoin="round" stroke-width="2.8301036004297964"/>
  <path d="M 45.284010789317016, 72.95148556654263 Q 45.29109040579033, 73.17556760333865, 45.301657478296036, 73.73866726456562 " fill="none" id="curve_86" stroke="#000000" stroke-linecap="round" stroke-linejoin="round" stroke-width="4.334063151078236"/>
  <path d="M 63.31229863677879, 46.71116120885313 Q 60.41633255665339, 53.162398243223734, 56.69865161691866, 66.90244224926273 " fill="none" id="curve_140" stroke="#000000" stroke-linecap="round" stroke-linejoin="round" stroke-width="2.461293800582258"/>
</svg>
