<?xml version="1.0" ?>
<svg height="140" width="140" xmlns="http://www.w3.org/2000/svg">
  <path d="M 74.00226499099261, 62.80995620702704 Q 70.10434820823934, 64.06544405669267, 55.770754306879, 65.24061780770325 " fill="none" id="curve_2" stroke="#000000" stroke-linecap="round" stroke-linejoin="round" stroke-width="5.812363085480774"/>
  <path d="M 55.770754306879, 65.24061780770325 Q 50.66306900719229, 66.02996993568725, 42.14658531521037, 66.95006347625404 " fill="none" id="curve_2" stroke="#000000" stroke-linecap="round" stroke-linejoin="round" stroke-width="8.12787595121313"/>
  <path d="M 42.14658531521037, 66.95006347625404 Q 43.02026238642439, 70.27736263430108, 48.18761649029064, 71.42512892508665 " fill="none" id="curve_2" stroke="#000000" stroke-linecap="round" stroke-linejoin="round" stroke-width="4.848866165497745"/>
  <path d="M 48.18761649029064, 71.42512892508665 Q 41.71242091034794, 77.64302240467654, 38.391517941967585, 96.85054142735851 " fill="none" id="curve_2" stroke="#000000" stroke-linecap="round" stroke-linejoin="round" stroke-width="4.4900462089857704"/>
  <path d="M 49.76204417905597, 64.02536868574899 Q 53.692272188399606, 55.41710813159516, 58.823463932146915, 40.035336160379465 " fill="none" id="curve_3" stroke="#000000" stroke-linecap="round" stroke-linejoin="round" stroke-width="5.1762520477468215"/>
  <path d="M 58.823463932146915, 40.035336160379465 Q 57.96012227124145, 37.88668976160287, 32.86962747855516, 37.6635126213025 " fill="none" id="curve_3" stroke="#000000" stroke-linecap="round" stroke-linejoin="round" stroke-width="5.006517228967645"/>
  <path d="M 36.68694506619148, 67.3110070544331 Q 36.172953884032474, 67.58331138378253, 35.688376439671366, 67.97639424849982 " fill="none" id="curve_4" stroke="#000000" stroke-linecap="round" stroke-linejoin="round" stroke-width="7.115572331389807"/>
  <path d="M 49.39705625002122, 61.80433409658995 Q 53.23267827208312, 53.974725449764975, 59.049585779898905, 44.17879390782242 " fill="none" id="curve_5" stroke="#000000" stroke-linecap="round" stroke-linejoin="round" stroke-width="3.713475461410131"/>
  <path d="M 59.049585779898905, 44.17879390782242 Q 52.68451557141516, 51.07084305128597, 46.4541666399693, 67.00563262242622 " fill="none" id="curve_5" stroke="#000000" stroke-linecap="round" stroke-linejoin="round" stroke-width="3.154842507530917"/>
  <path d="M 46.4541666399693, 67.00563262242622 Q 42.86746190130762, 75.651959820248, 38.18824919832454, 89.46549140412071 " fill="none" id="curve_5" stroke="#000000" stroke-linecap="round" stroke-linejoin="round" stroke-width="3.0099788571127095"/>
  <path d="M 52.63916364205828, 39.11588776668521 Q 55.62778913415484, 40.315280026296726, 56.343915764554154, 49.75063454792061 " fill="none" id="curve_7" stroke="#000000" stroke-linecap="round" stroke-linejoin="round" stroke-width="3.2135313420717986"/>
  <path d="M 55.328643011565035, 38.15920686170095 Q 54.897435917268645, 37.22176919847734, 47.529597510723534, 37.04697409564092 " fill="none" id="curve_8" stroke="#000000" stroke-linecap="round" stroke-linejoin="round" stroke-width="3.1416015830133026"/>
  <path d="M 89.75465271383807, 1.8751752679264975 Q 89.68699714588897, 1.936831273740384, 89.57505368204721, 2.0369514575978074 " fill="none" id="curve_10" stroke="#000000" stroke-linecap="round" stroke-linejoin="round" stroke-width="2.146961231314167"/>
  <path d="M 55.01845797139669, 53.5933463334445 Q 56.09013651730657, 51.61703590392602, 57.217125443838995, 47.23655532089948 " fill="none" id="curve_19" stroke="#000000" stroke-linecap="round" stroke-linejoin="round" stroke-width="3.4799843065766947"/>
  <path d="M 37.31995634521375, 38.448165619316796 Q 35.38067571465063, 38.44842275866876, 32.16997592553124, 38.44891665418093 " fill="none" id="curve_22" stroke="#000000" stroke-linecap="round" stroke-linejoin="round" stroke-width="2.9539856613471285"/>
  <path d="M 39.326605204690644, 69.08782663602302 Q 39.10034511910516, 67.78491794773169, 38.40016761576313, 66.70754865445896 " fill="none" id="curve_23" stroke="#000000" stroke-linecap="round" stroke-linejoin="round" stroke-width="4.209897376108508"/>
  <path d="M 56.37899895802758, 50.080971997754475 Q 55.9562483982517, 49.21224767741509, 55.253176840189084, 48.03859377434162 " fill="none" id="curve_34" stroke="#000000" stroke-linecap="round" stroke-linejoin="round" stroke-width="4.690587411365353"/>
  <path d="M 37.39662423811617, 92.96306086747362 Q 37.39587841612293, 95.56212818900873, 37.39397675807718, 97.63701710593062 " fill="none" id="curve_44" stroke="#000000" stroke-linecap="round" stroke-linejoin="round" stroke-width="2.601809584590051"/>
  <path d="M 55.95842786305206, 37.69858027968177 Q 55.11908598109843, 37.50621645500362, 52.49210511272722, 37.234003294924655 " fill="none" id="curve_68" stroke="#000000" stroke-linecap="round" stroke-linejoin="round" stroke-width="2.584900387568208"/>
  <path d="M 62.129683816168836, 66.30702927984385 Q 62.33314137990325, 66.2881470990444, 62.561199605162905, 66.23587888928567 " fill="none" id="curve_109" stroke="#000000" stroke-linecap="round" stroke-linejoin="round" stroke-width="2.5686010529714833"/>
</svg>
