<?xml version="1.0" ?>
<svg height="140" width="140" xmlns="http://www.w3.org/2000/svg">
  <path d="M 50.323801040649414, 66.54992294311523 Q 50.72572533616146, 57.824108750343186, 55.41041726973776, 53.78678008619636 " fill="none" id="curve_1" stroke="#000000" stroke-linecap="round" stroke-linejoin="round" stroke-width="6.824238060022276"/>
  <path d="M 55.41041726973776, 53.78678008619636 Q 56.598661224363, 49.832591395389215, 57.93345881556059, 44.93727404765052 " fill="none" id="curve_1" stroke="#000000" stroke-linecap="round" stroke-linejoin="round" stroke-width="7.215008281144834"/>
  <path d="M 57.93345881556059, 44.93727404765052 Q 57.82844323190665, 38.691429553853155, 52.93464759583359, 38.35717692505855 " fill="none" id="curve_1" stroke="#000000" stroke-linecap="round" stroke-linejoin="round" stroke-width="5.641378722273572"/>
  <path d="M 52.93464759583359, 38.35717692505855 Q 35.90798673828715, 38.55728885575775, 28.009256077029132, 40.33135662174631 " fill="none" id="curve_1" stroke="#000000" stroke-linecap="round" stroke-linejoin="round" stroke-width="5.3409411704397405"/>
  <path d="M 30.53917742228954, 71.17306628346228 Q 44.91533831686206, 70.821817900418, 47.88971497087439, 67.09312097011151 " fill="none" id="curve_2" stroke="#000000" stroke-linecap="round" stroke-linejoin="round" stroke-width="5.915705327189723"/>
  <path d="M 47.88971497087439, 67.09312097011151 Q 43.138259670869544, 74.90184245054337, 37.62298596731549, 93.59183464545099 " fill="none" id="curve_2" stroke="#000000" stroke-linecap="round" stroke-linejoin="round" stroke-width="4.2440709633039795"/>
  <path d="M 48.77670438296889, 69.28538306659968 Q 58.33302798618481, 69.4396934253385, 67.93231729177778, 69.67015795843398 " fill="none" id="curve_3" stroke="#000000" stroke-linecap="round" stroke-linejoin="round" stroke-width="4.740083476476106"/>
  <path d="M 50.97484752548415, 60.527048463577984 Q 53.662278557733536, 60.32119165369017, 54.48818656376871, 58.931361085900015 " fill="none" id="curve_4" stroke="#000000" stroke-linecap="round" stroke-linejoin="round" stroke-width="3.0905588591394992"/>
  <path d="M 30.183614492713204, 72.33266321842086 Q 31.94279287646757, 71.84559814959965, 33.23274175156825, 70.20877080968616 " fill="none" id="curve_5" stroke="#000000" stroke-linecap="round" stroke-linejoin="round" stroke-width="3.1329345248213696"/>
  <path d="M 29.655054240508168, 40.5102014237698 Q 29.060414257588395, 42.14974726066209, 27.9386565898819, 43.6523968753101 " fill="none" id="curve_7" stroke="#000000" stroke-linecap="round" stroke-linejoin="round" stroke-width="3.046937295885939"/>
  <path d="M 32.24781469393419, 70.77990336048896 Q 34.62670901549193, 69.71409552704635, 41.66194712931934, 68.68761771759408 " fill="none" id="curve_8" stroke="#000000" stroke-linecap="round" stroke-linejoin="round" stroke-width="3.1536882220044578"/>
  <path d="M 38.263231785250305, 95.10940033248065 Q 39.005527760270816, 78.75529611891815, 44.47508379974598, 70.85302414115488 " fill="none" id="curve_9" stroke="#000000" stroke-linecap="round" stroke-linejoin="round" stroke-width="2.811989662882416"/>
  <path d="M 47.71686123679715, 67.72330517946469 Q 48.4301596115284, 62.056372261693596, 52.5605208990246, 60.14824885424627 " fill="none" id="curve_11" stroke="#000000" stroke-linecap="round" stroke-linejoin="round" stroke-width="2.7838347903022864"/>
  <path d="M 30.807663740599835, 72.09273832154773 Q 30.386378543176342, 71.64189040309112, 30.000047925393606, 70.84838405454445 " fill="none" id="curve_12" stroke="#000000" stroke-linecap="round" stroke-linejoin="round" stroke-width="4.383240597691721"/>
  <path d="M 44.20106145089803, 37.448242630063596 Q 46.6847159141455, 37.15441214370623, 51.01075996795539, 36.87255654243148 " fill="none" id="curve_13" stroke="#000000" stroke-linecap="round" stroke-linejoin="round" stroke-width="3.352536257220234"/>
  <path d="M 59.334087382190525, 68.36507886347525 Q 47.1991753556928, 69.56136873306728, 36.25446955111755, 73.07067752913784 " fill="none" id="curve_14" stroke="#000000" stroke-linecap="round" stroke-linejoin="round" stroke-width="2.8662535656985204"/>
  <path d="M 55.85107689198604, 68.4655133008392 Q 57.292344859757655, 68.64777670935791, 60.27751522054255, 68.83207137887457 " fill="none" id="curve_15" stroke="#000000" stroke-linecap="round" stroke-linejoin="round" stroke-width="3.862628185907517"/>
  <path d="M 52.822616067680215, 70.33553330126708 Q 50.070468162026145, 70.63059488139298, 42.26428306066873, 71.0933113242682 " fill="none" id="curve_26" stroke="#000000" stroke-linecap="round" stroke-linejoin="round" stroke-width="2.840191243943376"/>
  <path d="M 54.76396029191622, 68.21281518954305 Q 56.683939970216564, 68.3673972249301, 60.01112883052739, 68.63104067847611 " fill="none" id="curve_29" stroke="#000000" stroke-linecap="round" stroke-linejoin="round" stroke-width="3.5641138786037896"/>
  <path d="M 31.104379078676608, 71.99724828864896 Q 31.051455389661246, 72.97358582330351, 30.95555313700127, 74.10553196702647 " fill="none" id="curve_34" stroke="#000000" stroke-linecap="round" stroke-linejoin="round" stroke-width="3.094227649626793"/>
  <path d="M 39.72288625757637, 91.75243598258879 Q 39.68680490824708, 89.43603225074715, 39.628005098912624, 85.7301265716178 " fill="none" id="curve_39" stroke="#000000" stroke-linecap="round" stroke-linejoin="round" stroke-width="3.1472359133902286"/>
  <path d="M 58.24375518603301, 69.57965682898384 Q 53.5661771146577, 68.94128293554527, 50.903189018495674, 66.03489838779058 " fill="none" id="curve_54" stroke="#000000" stroke-linecap="round" stroke-linejoin="round" stroke-width="3.4802359529161424"/>
  <path d="M 61.452307742119956, 69.27188715150521 Q 55.859476928126384, 69.12792619928042, 51.2195060904018, 68.7230794528041 " fill="none" id="curve_69" stroke="#000000" stroke-linecap="round" stroke-linejoin="round" stroke-width="2.9133912526750287"/>
  <path d="M 60.34318053201628, 68.83948369992225 Q 57.195022451588436, 68.96934835202305, 53.92384365103801, 69.25306231891945 " fill="none" id="curve_84" stroke="#000000" stroke-linecap="round" stroke-linejoin="round" stroke-width="3.045046536381207"/>
  <path d="M 36.57234665870605, 39.65224314720162 Q 35.78379607502102, 38.719624387595736, 29.966704519238277, 38.3948591914656 " fill="none" id="curve_101" stroke="#000000" stroke-linecap="round" stroke-linejoin="round" stroke-width="3.1537671225622"/>
  <path d="M 46.696343979432825, 39.32653690572346 Q 46.02469295634002, 38.289016282928706, 36.441499771728786, 37.93691572351716 " fill="none" id="curve_147" stroke="#000000" stroke-linecap="round" stroke-linejoin="round" stroke-width="2.5914366912727225"/>
  <path d="M 45.84218059837454, 38.198684167138815 Q 44.76981640292025, 37.58246881962119, 40.49960159022431, 36.97436103298876 " fill="none" id="curve_149" stroke="#000000" stroke-linecap="round" stroke-linejoin="round" stroke-width="2.9041802104268872"/>
</svg>
