<?xml version="1.0" ?>
<svg height="140" width="140" xmlns="http://www.w3.org/2000/svg">
  <path d="M 71.40412161209201, 59.88352740904514 Q 55.336040372457546, 59.99729009154296, 49.756245322375165, 61.4416819576016 " fill="none" id="curve_2" stroke="#000000" stroke-linecap="round" stroke-linejoin="round" stroke-width="5.6493819303082375"/>
  <path d="M 49.756245322375165, 61.4416819576016 Q 47.193977517297185, 71.1778121553348, 39.18342836806888, 89.10575234133194 " fill="none" id="curve_2" stroke="#000000" stroke-linecap="round" stroke-linejoin="round" stroke-width="4.6600106127759116"/>
  <path d="M 39.18342836806888, 89.10575234133194 Q 37.9649995029274, 94.34266036668461, 35.44739476012099, 97.2582331775467 " fill="none" id="curve_2" stroke="#000000" stroke-linecap="round" stroke-linejoin="round" stroke-width="5.745527654331788"/>
  <path d="M 30.904331498576987, 61.16510336436226 Q 38.72153682980968, 61.0819194189705, 48.77407479450005, 60.971727439089975 " fill="none" id="curve_3" stroke="#000000" stroke-linecap="round" stroke-linejoin="round" stroke-width="5.243617201233887"/>
  <path d="M 48.77407479450005, 60.971727439089975 Q 53.83978013199042, 54.54447847301225, 58.900873932893475, 32.68841702951949 " fill="none" id="curve_3" stroke="#000000" stroke-linecap="round" stroke-linejoin="round" stroke-width="5.7355082212586055"/>
  <path d="M 58.900873932893475, 32.68841702951949 Q 58.74783756677159, 28.64682308921081, 58.34793564102665, 25.956776805839652 " fill="none" id="curve_3" stroke="#000000" stroke-linecap="round" stroke-linejoin="round" stroke-width="5.063514590322997"/>
  <path d="M 58.34793564102665, 25.956776805839652 Q 35.780487624723115, 26.083809088760813, 24.583482022307066, 27.082211642992796 " fill="none" id="curve_3" stroke="#000000" stroke-linecap="round" stroke-linejoin="round" stroke-width="5.300915786810993"/>
  <path d="M 24.583482022307066, 27.082211642992796 Q 16.79254339972207, 27.119858613265915, 14.422572898802791, 27.321656476096738 " fill="none" id="curve_3" stroke="#000000" stroke-linecap="round" stroke-linejoin="round" stroke-width="5.054115992983468"/>
  <path d="M 27.55791802420241, 59.931278150280015 Q 28.12904550478393, 60.16008534537178, 28.67078445639173, 60.666983463672686 " fill="none" id="curve_4" stroke="#000000" stroke-linecap="round" stroke-linejoin="round" stroke-width="3.496682564329526"/>
  <path d="M 74.63797131366232, 59.6624316721782 Q 75.29705136272743, 59.66457951065852, 76.0733491148997, 59.66839041758321 " fill="none" id="curve_5" stroke="#000000" stroke-linecap="round" stroke-linejoin="round" stroke-width="3.450873994170725"/>
  <path d="M 46.00039750960775, 24.167563805677226 Q 42.78190832011313, 24.30969379857036, 39.589367095361226, 24.669333082675415 " fill="none" id="curve_6" stroke="#000000" stroke-linecap="round" stroke-linejoin="round" stroke-width="3.198791782683788"/>
  <path d="M 49.45310058322172, 59.71912836113388 Q 45.808470114287125, 70.57385120515916, 39.32724891826744, 85.1028229688136 " fill="none" id="curve_9" stroke="#000000" stroke-linecap="round" stroke-linejoin="round" stroke-width="2.4500492597636563"/>
  <path d="M 49.53740977577551, 57.63610932340327 Q 51.549637315997224, 49.334024011395, 57.83614031547468, 43.872841711972484 " fill="none" id="curve_10" stroke="#000000" stroke-linecap="round" stroke-linejoin="round" stroke-width="3.23807719869377"/>
  <path d="M 56.96166478469312, 28.602416687984004 Q 56.90082134413328, 32.968603119716505, 56.71414796857117, 35.07179607505405 " fill="none" id="curve_11" stroke="#000000" stroke-linecap="round" stroke-linejoin="round" stroke-width="3.6929814655016595"/>
  <path d="M 53.73087208780572, 60.1034232971506 Q 45.309386314300234, 59.80281073473616, 31.933203729383543, 59.452368625233724 " fill="none" id="curve_12" stroke="#000000" stroke-linecap="round" stroke-linejoin="round" stroke-width="2.7340610696802106"/>
  <path d="M 17.998948342643757, 26.048314826592247 Q 16.468135204067007, 26.012672095326998, 13.687152176916122, 25.9729730162724 " fill="none" id="curve_13" stroke="#000000" stroke-linecap="round" stroke-linejoin="round" stroke-width="3.1874346405062868"/>
  <path d="M 38.53349568713156, 90.99856099453059 Q 37.11436999324346, 91.84551507673169, 36.255757747533856, 95.13334230923344 " fill="none" id="curve_18" stroke="#000000" stroke-linecap="round" stroke-linejoin="round" stroke-width="3.9553895172144737"/>
  <path d="M 61.95391199459709, 58.76006968797435 Q 60.46271105005596, 58.59317674150669, 57.08855509908715, 58.41232962205593 " fill="none" id="curve_46" stroke="#000000" stroke-linecap="round" stroke-linejoin="round" stroke-width="2.862430695244139"/>
  <path d="M 58.62083791111609, 24.413482806895523 Q 56.593648805902895, 24.784265432746743, 48.72137293692242, 25.139117178840788 " fill="none" id="curve_47" stroke="#000000" stroke-linecap="round" stroke-linejoin="round" stroke-width="2.209190039513878"/>
  <path d="M 48.72137293692242, 25.139117178840788 Q 44.42612757608002, 25.064132323266964, 37.23099718952117, 24.923423617422387 " fill="none" id="curve_47" stroke="#000000" stroke-linecap="round" stroke-linejoin="round" stroke-width="2.642330153989072"/>
  <path d="M 39.831167586571894, 85.05115746763819 Q 38.69299311459081, 90.39262388327616, 36.39917718657812, 94.71377648208852 " fill="none" id="curve_49" stroke="#000000" stroke-linecap="round" stroke-linejoin="round" stroke-width="4.038125555793931"/>
  <path d="M 36.39917718657812, 94.71377648208852 Q 39.102796800334914, 91.17776859748963, 41.76566210518374, 85.67639222865967 " fill="none" id="curve_49" stroke="#000000" stroke-linecap="round" stroke-linejoin="round" stroke-width="3.69935954612434"/>
  <path d="M 40.87485122680664, 25.04070281982422 Q 41.50265333163179, 24.224008109065192, 43.47634040800422, 23.525891687934205 " fill="none" id="curve_63" stroke="#000000" stroke-linecap="round" stroke-linejoin="round" stroke-width="2.6464305844341536"/>
  <path d="M 47.79994897780419, 60.95085544324746 Q 46.24255096660074, 66.26088823308756, 44.058200611681926, 72.92592595375774 " fill="none" id="curve_91" stroke="#000000" stroke-linecap="round" stroke-linejoin="round" stroke-width="2.1966568891377136"/>
  <path d="M 24.141941190086893, 26.360395852797616 Q 22.862578878891927, 25.973369829257535, 18.406152711380606, 25.69675135692576 " fill="none" id="curve_94" stroke="#000000" stroke-linecap="round" stroke-linejoin="round" stroke-width="2.645902431251953"/>
</svg>
