<?xml version="1.0" ?>
<svg height="140" width="140" xmlns="http://www.w3.org/2000/svg">
  <path d="M 73.358024255967, 59.22449443905083 Q 70.41625311079699, 61.69403826273481, 65.27584613756098, 67.61001611142689 " fill="none" id="curve_2" stroke="#000000" stroke-linecap="round" stroke-linejoin="round" stroke-width="5.315747908375112"/>
  <path d="M 65.27584613756098, 67.61001611142689 Q 63.98490309831232, 67.45767443039676, 63.76984050741944, 61.71120124804676 " fill="none" id="curve_2" stroke="#000000" stroke-linecap="round" stroke-linejoin="round" stroke-width="6.411828444962963"/>
  <path d="M 63.76984050741944, 61.71120124804676 Q 63.703491656823026, 57.43557490369869, 60.52772279943557, 56.9607493213979 " fill="none" id="curve_2" stroke="#000000" stroke-linecap="round" stroke-linejoin="round" stroke-width="8.033847041111853"/>
  <path d="M 60.52772279943557, 56.9607493213979 Q 49.53087183663736, 57.12240504558706, 41.94274748490808, 57.89728278169962 " fill="none" id="curve_2" stroke="#000000" stroke-linecap="round" stroke-linejoin="round" stroke-width="7.295439245113905"/>
  <path d="M 41.94274748490808, 57.89728278169962 Q 37.3619545840009, 61.14716249732987, 31.277891491390506, 63.98604770623791 " fill="none" id="curve_2" stroke="#000000" stroke-linecap="round" stroke-linejoin="round" stroke-width="5.411894076385612"/>
  <path d="M 53.03936602674803, 58.372292733542515 Q 53.003104657131274, 81.41889977727406, 52.561997691036716, 92.59544262042262 " fill="none" id="curve_3" stroke="#000000" stroke-linecap="round" stroke-linejoin="round" stroke-width="4.9761141385464684"/>
  <path d="M 52.561997691036716, 92.59544262042262 Q 58.865118544002115, 88.46618758927532, 61.88769095707951, 69.69421149207821 " fill="none" id="curve_3" stroke="#000000" stroke-linecap="round" stroke-linejoin="round" stroke-width="4.6574799830651585"/>
  <path d="M 54.9102692087936, 53.72261234014274 Q 57.830963116625306, 45.46409153853892, 62.27657234837249, 25.8865698040621 " fill="none" id="curve_4" stroke="#000000" stroke-linecap="round" stroke-linejoin="round" stroke-width="8.010455014743856"/>
  <path d="M 62.27657234837249, 25.8865698040621 Q 38.128567545750585, 25.6909821583159, 31.572649832747935, 23.11343932363832 " fill="none" id="curve_4" stroke="#000000" stroke-linecap="round" stroke-linejoin="round" stroke-width="3.690661220902396"/>
  <path d="M 31.572649832747935, 23.11343932363832 Q 27.64922163132485, 23.054602379084205, 23.520426215199166, 22.983943965775218 " fill="none" id="curve_4" stroke="#000000" stroke-linecap="round" stroke-linejoin="round" stroke-width="7.799629619701021"/>
  <path d="M 68.8879983096615, 58.97005763607792 Q 67.44399065318296, 59.122337758337046, 66.46319812910143, 59.51438119325608 " fill="none" id="curve_6" stroke="#000000" stroke-linecap="round" stroke-linejoin="round" stroke-width="5.638268909058491"/>
  <path d="M 64.95465068485593, 26.84888994617849 Q 65.10606078998573, 26.61124354150934, 65.20452050301563, 25.853909570988097 " fill="none" id="curve_7" stroke="#000000" stroke-linecap="round" stroke-linejoin="round" stroke-width="5.867303127688945"/>
  <path d="M 55.765725708012305, 43.832529149129854 Q 56.9026647391944, 39.91847683832974, 59.52456612174464, 35.344219409625104 " fill="none" id="curve_8" stroke="#000000" stroke-linecap="round" stroke-linejoin="round" stroke-width="3.1083023496628077"/>
  <path d="M 54.342242688971105, 67.5820430882766 Q 54.308133721983104, 68.79356284609852, 54.240602458070335, 71.25391647111086 " fill="none" id="curve_12" stroke="#000000" stroke-linecap="round" stroke-linejoin="round" stroke-width="3.1348786335317307"/>
  <path d="M 55.47910805014817, 64.90713190151564 Q 55.28347709048168, 77.78829630184389, 50.48898761896031, 79.90410748886985 " fill="none" id="curve_40" stroke="#000000" stroke-linecap="round" stroke-linejoin="round" stroke-width="2.152795674056072"/>
  <path d="M 50.48898761896031, 79.90410748886985 Q 49.36493858412862, 79.87917925692426, 49.18605005233372, 79.44460234530109 " fill="none" id="curve_40" stroke="#000000" stroke-linecap="round" stroke-linejoin="round" stroke-width="2.9236431022337714"/>
  <path d="M 54.882413758417066, 93.88447810765066 Q 54.75867481854092, 93.55945072898191, 54.651437865982544, 92.79669261412369 " fill="none" id="curve_41" stroke="#000000" stroke-linecap="round" stroke-linejoin="round" stroke-width="4.502414565909022"/>
  <path d="M 38.78824225785358, 24.166134544028218 Q 33.56446829136401, 23.64416276245196, 26.46989676421712, 22.734187603401057 " fill="none" id="curve_48" stroke="#000000" stroke-linecap="round" stroke-linejoin="round" stroke-width="4.470607447943083"/>
  <path d="M 26.46989676421712, 22.734187603401057 Q 29.73403586980637, 23.510422554491814, 34.55439329551287, 24.521358968448 " fill="none" id="curve_48" stroke="#000000" stroke-linecap="round" stroke-linejoin="round" stroke-width="3.6331963424916105"/>
  <path d="M 34.55439329551287, 24.521358968448 Q 31.903978619915677, 23.63476730741828, 24.92288487984373, 22.787712648263234 " fill="none" id="curve_48" stroke="#000000" stroke-linecap="round" stroke-linejoin="round" stroke-width="3.7950634267683787"/>
  <path d="M 62.53818206555752, 78.7656879897977 Q 59.31618078225053, 79.38728245024056, 54.54333020551589, 80.36880298208403 " fill="none" id="curve_63" stroke="#000000" stroke-linecap="round" stroke-linejoin="round" stroke-width="3.5484236315617923"/>
  <path d="M 65.44229044895691, 67.80641413317221 Q 66.94496562858374, 68.28809618777545, 68.639041350982, 69.02573685622093 " fill="none" id="curve_64" stroke="#000000" stroke-linecap="round" stroke-linejoin="round" stroke-width="2.495697619634371"/>
  <path d="M 59.882092598089734, 48.61540106044873 Q 59.318966718943265, 42.72991705343601, 54.79969275182016, 39.470687663581174 " fill="none" id="curve_65" stroke="#000000" stroke-linecap="round" stroke-linejoin="round" stroke-width="2.336482340482577"/>
  <path d="M 65.61324092187628, 23.74026191879625 Q 65.36045628541792, 30.449657616440856, 63.33333981705288, 32.08841344415796 " fill="none" id="curve_66" stroke="#000000" stroke-linecap="round" stroke-linejoin="round" stroke-width="3.2541919566367508"/>
  <path d="M 63.33333981705288, 32.08841344415796 Q 55.45586544575663, 32.56907848651259, 54.460607531895086, 42.4597001969135 " fill="none" id="curve_66" stroke="#000000" stroke-linecap="round" stroke-linejoin="round" stroke-width="3.1217110084597057"/>
  <path d="M 54.460607531895086, 42.4597001969135 Q 58.9548597043662, 43.67683207596701, 59.852810860642045, 52.31612529927896 " fill="none" id="curve_66" stroke="#000000" stroke-linecap="round" stroke-linejoin="round" stroke-width="1.9654410456244809"/>
  <path d="M 56.69551700611562, 60.553829061759515 Q 61.52022418178399, 60.779001231540995, 67.07460188184356, 61.480288351141 " fill="none" id="curve_67" stroke="#000000" stroke-linecap="round" stroke-linejoin="round" stroke-width="1.8702213052133407"/>
  <path d="M 50.02281690476688, 78.01437942880281 Q 50.050744331552885, 77.2668130508681, 50.11406144819176, 76.34802541554629 " fill="none" id="curve_68" stroke="#000000" stroke-linecap="round" stroke-linejoin="round" stroke-width="2.9147354887543138"/>
  <path d="M 34.00582021235897, 22.939239161428205 Q 30.555340753069082, 22.57003722892692, 24.407017381195466, 22.08154720230634 " fill="none" id="curve_73" stroke="#000000" stroke-linecap="round" stroke-linejoin="round" stroke-width="3.253443053363232"/>
  <path d="M 34.56179920355875, 23.781665215946813 Q 30.947457713408557, 22.868803401972453, 24.174839479057404, 21.21344451244165 " fill="none" id="curve_97" stroke="#000000" stroke-linecap="round" stroke-linejoin="round" stroke-width="2.5647281285015864"/>
  <path d="M 43.43015404603272, 59.1065564766511 Q 38.76627249205448, 59.47456519960514, 33.77721412025426, 60.53277034303751 " fill="none" id="curve_120" stroke="#000000" stroke-linecap="round" stroke-linejoin="round" stroke-width="2.853773309213605"/>
  <path d="M 51.88558578491211, 84.65580368041992 Q 50.03430849842151, 84.65855267608387, 49.06135513180982, 84.67629048287043 " fill="none" id="curve_147" stroke="#000000" stroke-linecap="round" stroke-linejoin="round" stroke-width="2.2557586080389034"/>
  <path d="M 62.470743707430145, 67.84533028461874 Q 61.35811443238161, 68.6691459196975, 59.34408786581282, 70.61213152201103 " fill="none" id="curve_175" stroke="#000000" stroke-linecap="round" stroke-linejoin="round" stroke-width="1.9267726783168033"/>
</svg>
