<?xml version="1.0" ?>
<svg height="140" width="140" xmlns="http://www.w3.org/2000/svg">
  <path d="M 35.71580410003662, 135.01795148849487 Q 35.59212526338967, 137.21126089777343, 34.869130170130404, 138.17936519160736 " fill="none" id="curve_1" stroke="#000000" stroke-linecap="round" stroke-linejoin="round" stroke-width="3.8901778910286913"/>
  <path d="M 34.869130170130404, 138.17936519160736 Q 36.98432034425728, 131.28492132320764, 41.899602667577284, 114.87353259084102 " fill="none" id="curve_1" stroke="#000000" stroke-linecap="round" stroke-linejoin="round" stroke-width="5.008030609628591"/>
  <path d="M 41.899602667577284, 114.87353259084102 Q 43.64039413373033, 105.41999330563614, 47.853825249871164, 90.71528787953028 " fill="none" id="curve_1" stroke="#000000" stroke-linecap="round" stroke-linejoin="round" stroke-width="5.200832390203608"/>
  <path d="M 47.853825249871164, 90.71528787953028 Q 50.42291336191491, 83.0588340535344, 55.87462211800644, 58.95205409113353 " fill="none" id="curve_1" stroke="#000000" stroke-linecap="round" stroke-linejoin="round" stroke-width="3.8747875200386352"/>
  <path d="M 55.87462211800644, 58.95205409113353 Q 57.97835454024219, 53.137277637618695, 60.155041701758556, 44.57146269643527 " fill="none" id="curve_1" stroke="#000000" stroke-linecap="round" stroke-linejoin="round" stroke-width="5.332316795217536"/>
  <path d="M 60.155041701758556, 44.57146269643527 Q 53.552141002732014, 50.4538737603194, 29.148668474313734, 65.24846865784825 " fill="none" id="curve_1" stroke="#000000" stroke-linecap="round" stroke-linejoin="round" stroke-width="4.495683889028229"/>
  <path d="M 29.148668474313734, 65.24846865784825 Q 20.57026287041659, 69.76753201042393, 3.2857728912057134, 76.03672710656987 " fill="none" id="curve_1" stroke="#000000" stroke-linecap="round" stroke-linejoin="round" stroke-width="4.7050861927552345"/>
  <path d="M 36.923655228131366, 96.29324378890651 Q 43.6650399311795, 92.81913865428997, 67.313723143191, 89.66550884160122 " fill="none" id="curve_2" stroke="#000000" stroke-linecap="round" stroke-linejoin="round" stroke-width="3.951650171236262"/>
  <path d="M 87.04506462963087, 88.81723548286702 Q 87.84388614814051, 90.85625146556134, 88.05450466022019, 120.35127734859586 " fill="none" id="curve_4" stroke="#000000" stroke-linecap="round" stroke-linejoin="round" stroke-width="4.87550096980726"/>
  <path d="M 88.05450466022019, 120.35127734859586 Q 88.0062356635729, 131.32569602505632, 87.89393220817516, 137.80876483736955 " fill="none" id="curve_4" stroke="#000000" stroke-linecap="round" stroke-linejoin="round" stroke-width="5.463703819736093"/>
  <path d="M 87.89393220817516, 137.80876483736955 Q 87.23672827011588, 137.782208579567, 86.05854522569929, 137.7633912283906 " fill="none" id="curve_4" stroke="#000000" stroke-linecap="round" stroke-linejoin="round" stroke-width="3.6959326225625007"/>
  <path d="M 88.21927574818807, 87.8769372171614 Q 87.95579309456693, 84.51519166803527, 87.69115511914944, 66.28163719150677 " fill="none" id="curve_7" stroke="#000000" stroke-linecap="round" stroke-linejoin="round" stroke-width="6.115317962704415"/>
  <path d="M 87.69115511914944, 66.28163719150677 Q 87.78512830372269, 61.037701272499454, 87.9253784323106, 42.54754736534944 " fill="none" id="curve_7" stroke="#000000" stroke-linecap="round" stroke-linejoin="round" stroke-width="5.898737641696311"/>
  <path d="M 87.9253784323106, 42.54754736534944 Q 87.93036446855339, 32.893790794682694, 87.946905116563, 15.093935589495896 " fill="none" id="curve_7" stroke="#000000" stroke-linecap="round" stroke-linejoin="round" stroke-width="5.42471348686436"/>
  <path d="M 87.946905116563, 15.093935589495896 Q 87.63394018658924, 3.575081782746807, 77.07900643268059, 2.5127727234547486 " fill="none" id="curve_7" stroke="#000000" stroke-linecap="round" stroke-linejoin="round" stroke-width="4.7115348904435175"/>
  <path d="M 77.07900643268059, 2.5127727234547486 Q 75.87908607455022, 1.91928233808546, 71.71360102041359, 1.6213658506812214 " fill="none" id="curve_7" stroke="#000000" stroke-linecap="round" stroke-linejoin="round" stroke-width="2.201419461291327"/>
  <path d="M 47.584037274964345, 1.3142851578244676 Q 42.41638643770831, 1.2173873284272791, 25.608263732699747, 1.0717124351013185 " fill="none" id="curve_14" stroke="#000000" stroke-linecap="round" stroke-linejoin="round" stroke-width="1.711605956961853"/>
  <path d="M 25.608263732699747, 1.0717124351013185 Q 24.377483421329064, 0.7241831742305627, 3.2549884836151364, 0.6467206005600226 " fill="none" id="curve_14" stroke="#000000" stroke-linecap="round" stroke-linejoin="round" stroke-width="1.9707030179693001"/>
  <path d="M 50.672858420314455, 0.9974536057044432 Q 56.07744142660875, 1.114929908361491, 73.17597526515002, 1.2101037940605963 " fill="none" id="curve_16" stroke="#000000" stroke-linecap="round" stroke-linejoin="round" stroke-width="1.3805874964188125"/>
  <path d="M 86.42559912106377, 9.73718496289576 Q 83.78805060992542, 9.281379512911828, 83.19662069905576, 4.628804986494846 " fill="none" id="curve_17" stroke="#000000" stroke-linecap="round" stroke-linejoin="round" stroke-width="5.004886021914522"/>
  <path d="M 69.90296007032397, 88.74242223466516 Q 70.55732279103941, 88.92375099999319, 71.14187195016643, 89.25396366264872 " fill="none" id="curve_20" stroke="#000000" stroke-linecap="round" stroke-linejoin="round" stroke-width="5.527272105383003"/>
  <path d="M 63.56378537429575, 90.3325715275662 Q 66.63927915565932, 89.84273431667705, 70.62232677041982, 88.91067833811515 " fill="none" id="curve_25" stroke="#000000" stroke-linecap="round" stroke-linejoin="round" stroke-width="2.75122185948931"/>
  <path d="M 87.72156981164234, 111.42188964517769 Q 88.21557795534189, 107.96971006007772, 88.64596101183301, 99.43378615141621 " fill="none" id="curve_27" stroke="#000000" stroke-linecap="round" stroke-linejoin="round" stroke-width="2.8445720159450993"/>
  <path d="M 88.64596101183301, 99.43378615141621 Q 89.01920532457859, 97.23249205214707, 89.21523052017166, 90.41996150000315 " fill="none" id="curve_27" stroke="#000000" stroke-linecap="round" stroke-linejoin="round" stroke-width="1.9747182856577858"/>
  <path d="M 54.47810902235851, 58.00367764672879 Q 53.88071992776792, 60.95911822017064, 53.50895648293005, 67.79572718115536 " fill="none" id="curve_31" stroke="#000000" stroke-linecap="round" stroke-linejoin="round" stroke-width="3.004535054921161"/>
  <path d="M 56.48195722813868, 46.628628866003254 Q 56.616735278604274, 44.73507449497443, 57.69114054613425, 44.149121570211044 " fill="none" id="curve_32" stroke="#000000" stroke-linecap="round" stroke-linejoin="round" stroke-width="3.159329578376151"/>
  <path d="M 40.87748564616764, 56.10819328882559 Q 45.25906293176799, 53.7914329583993, 52.26098275153383, 51.23823158583533 " fill="none" id="curve_33" stroke="#000000" stroke-linecap="round" stroke-linejoin="round" stroke-width="2.7215465896603526"/>
  <path d="M 52.26098275153383, 51.23823158583533 Q 42.715703423648065, 53.126072250979085, 36.31872205766874, 59.86638551306659 " fill="none" id="curve_33" stroke="#000000" stroke-linecap="round" stroke-linejoin="round" stroke-width="2.3929198031091863"/>
  <path d="M 2.5882886203467343, 76.30227668153893 Q 2.2413288606570143, 76.03645354817101, 1.9635366709013005, 75.51762605429474 " fill="none" id="curve_35" stroke="#000000" stroke-linecap="round" stroke-linejoin="round" stroke-width="3.8966608341652806"/>
  <path d="M 23.20790396573185, 66.74696473095432 Q 17.537627256404864, 69.54706622256032, 9.877636962717126, 72.9659274478958 " fill="none" id="curve_36" stroke="#000000" stroke-linecap="round" stroke-linejoin="round" stroke-width="2.9942131381543313"/>
  <path d="M 52.70729721334979, 71.25399725801408 Q 54.76241612350822, 67.56959602157907, 56.51537497834916, 60.59240456035578 " fill="none" id="curve_38" stroke="#000000" stroke-linecap="round" stroke-linejoin="round" stroke-width="2.642447677350133"/>
  <path d="M 69.57423577245855, 89.04093033946472 Q 65.42852477405992, 89.53012235340354, 58.77000919492689, 90.43563185826046 " fill="none" id="curve_41" stroke="#000000" stroke-linecap="round" stroke-linejoin="round" stroke-width="2.5992849461139502"/>
  <path d="M 89.70708578309436, 104.04531423313331 Q 88.4920991218761, 106.90799157753635, 87.7847785825406, 118.51126074996003 " fill="none" id="curve_42" stroke="#000000" stroke-linecap="round" stroke-linejoin="round" stroke-width="2.7166135168026027"/>
  <path d="M 87.7847785825406, 118.51126074996003 Q 87.96287896681733, 115.3550611080412, 88.10775507170887, 106.32350005045252 " fill="none" id="curve_42" stroke="#000000" stroke-linecap="round" stroke-linejoin="round" stroke-width="2.5944179022659046"/>
  <path d="M 88.66532827514298, 118.44173816548711 Q 88.21783761871043, 110.80397354518905, 86.68349847938207, 104.51244525661947 " fill="none" id="curve_43" stroke="#000000" stroke-linecap="round" stroke-linejoin="round" stroke-width="2.0738835412356753"/>
  <path d="M 46.42833765734763, 87.9397611269633 Q 46.832487094844254, 87.89778963755111, 47.34296906481983, 87.79867408045054 " fill="none" id="curve_45" stroke="#000000" stroke-linecap="round" stroke-linejoin="round" stroke-width="2.8257424389884482"/>
  <path d="M 53.00533804687051, 72.42851156789143 Q 53.26480679360281, 69.72993887708623, 54.35404158617123, 64.29293345833877 " fill="none" id="curve_52" stroke="#000000" stroke-linecap="round" stroke-linejoin="round" stroke-width="2.109879105966735"/>
  <path d="M 82.57724440749149, 3.4158468676416813 Q 82.67869716310959, 3.257583218449121, 82.82894075598308, 3.0359363304823948 " fill="none" id="curve_54" stroke="#000000" stroke-linecap="round" stroke-linejoin="round" stroke-width="4.875865343096754"/>
  <path d="M 88.77347695186432, 9.931843358630637 Q 86.57334988202958, 5.993321624588699, 79.26731538885288, 1.9721174458882915 " fill="none" id="curve_56" stroke="#000000" stroke-linecap="round" stroke-linejoin="round" stroke-width="2.174946797660186"/>
  <path d="M 51.02424318521824, 76.01447670267208 Q 51.068789791790756, 74.92311565498291, 51.14173758938013, 73.67134450425836 " fill="none" id="curve_60" stroke="#000000" stroke-linecap="round" stroke-linejoin="round" stroke-width="3.5257514715921103"/>
  <path d="M 85.28675382365819, 85.7780881273297 Q 86.18303591562875, 86.24404923230867, 87.1850156727797, 87.44692994187217 " fill="none" id="curve_69" stroke="#000000" stroke-linecap="round" stroke-linejoin="round" stroke-width="2.7511922013441996"/>
  <path d="M 55.82191819274024, 56.63498819758912 Q 56.141898236708464, 54.58419016972532, 56.70884678193306, 51.6947152695224 " fill="none" id="curve_70" stroke="#000000" stroke-linecap="round" stroke-linejoin="round" stroke-width="2.603096339925782"/>
  <path d="M 81.99691328335408, 2.3608478338798307 Q 83.51398411919088, 3.1799767661016616, 86.00070988783904, 4.311709838496675 " fill="none" id="curve_85" stroke="#000000" stroke-linecap="round" stroke-linejoin="round" stroke-width="2.2275880813206803"/>
  <path d="M 83.05594813359646, 2.2236469599984865 Q 82.4132757738152, 1.8446798304978431, 77.23626606727466, 1.701140919426178 " fill="none" id="curve_145" stroke="#000000" stroke-linecap="round" stroke-linejoin="round" stroke-width="1.9407566712537279"/>
</svg>
