<?xml version="1.0" ?>
<svg height="140" width="140" xmlns="http://www.w3.org/2000/svg">
  <path d="M 70.552978515625, 34.47822284698486 Q 70.93632160778971, 36.784427746102445, 71.20505197360427, 43.67990170102155 " fill="none" id="curve_1" stroke="#000000" stroke-linecap="round" stroke-linejoin="round" stroke-width="7.182744141153059"/>
  <path d="M 71.20505197360427, 43.67990170102155 Q 68.71008803113476, 53.170564051278895, 56.00743242048728, 64.27862728389292 " fill="none" id="curve_1" stroke="#000000" stroke-linecap="round" stroke-linejoin="round" stroke-width="3.8075086726488103"/>
  <path d="M 56.00743242048728, 64.27862728389292 Q 54.9904469589737, 67.47653917880402, 47.857914235866666, 68.68658876824125 " fill="none" id="curve_1" stroke="#000000" stroke-linecap="round" stroke-linejoin="round" stroke-width="4.897031952213585"/>
  <path d="M 47.857914235866666, 68.68658876824125 Q 45.85429462196748, 80.10589160022948, 30.49296207651064, 100.90909152431422 " fill="none" id="curve_1" stroke="#000000" stroke-linecap="round" stroke-linejoin="round" stroke-width="4.465725571230416"/>
  <path d="M 30.49296207651064, 100.90909152431422 Q 29.468378607283423, 104.701793657207, 26.39121815086217, 106.46293485957848 " fill="none" id="curve_1" stroke="#000000" stroke-linecap="round" stroke-linejoin="round" stroke-width="5.228677425216577"/>
  <path d="M 30.434571826735283, 75.12043405240176 Q 32.108153120407756, 70.92680416083248, 41.724766877702045, 69.67696050415934 " fill="none" id="curve_2" stroke="#000000" stroke-linecap="round" stroke-linejoin="round" stroke-width="3.878449787114689"/>
  <path d="M 41.724766877702045, 69.67696050415934 Q 52.79048537217606, 70.0644878762091, 82.74151858766956, 70.51564145399578 " fill="none" id="curve_2" stroke="#000000" stroke-linecap="round" stroke-linejoin="round" stroke-width="4.16024836219978"/>
  <path d="M 82.74151858766956, 70.51564145399578 Q 85.15076086262194, 70.64891917742823, 86.78479646531538, 70.94266304189271 " fill="none" id="curve_2" stroke="#000000" stroke-linecap="round" stroke-linejoin="round" stroke-width="3.3255337555395523"/>
  <path d="M 69.09772179802734, 32.82153526346712 Q 66.75894371544699, 31.512016258475082, 54.894440026662835, 30.74827194493756 " fill="none" id="curve_3" stroke="#000000" stroke-linecap="round" stroke-linejoin="round" stroke-width="4.4783606123634065"/>
  <path d="M 54.894440026662835, 30.74827194493756 Q 48.28011051411083, 31.815867018395977, 32.82637987411353, 33.55544481154344 " fill="none" id="curve_3" stroke="#000000" stroke-linecap="round" stroke-linejoin="round" stroke-width="5.47250294787167"/>
  <path d="M 32.82637987411353, 33.55544481154344 Q 29.42362582349042, 34.01948670855126, 25.52527561019128, 34.494775910664906 " fill="none" id="curve_3" stroke="#000000" stroke-linecap="round" stroke-linejoin="round" stroke-width="5.0946824228921095"/>
  <path d="M 56.78204225638477, 66.1660126949844 Q 52.719583732457615, 69.96105950946678, 46.40314584085107, 75.87359222072156 " fill="none" id="curve_4" stroke="#000000" stroke-linecap="round" stroke-linejoin="round" stroke-width="2.933952660262351"/>
  <path d="M 60.738762928175184, 68.33821003292691 Q 67.75334618516044, 68.67080646070751, 70.07641754968834, 70.58801110431746 " fill="none" id="curve_5" stroke="#000000" stroke-linecap="round" stroke-linejoin="round" stroke-width="2.4799189976346137"/>
  <path d="M 70.07641754968834, 70.58801110431746 Q 57.299219257036754, 70.4917752196509, 47.25397026201652, 70.2776754000798 " fill="none" id="curve_5" stroke="#000000" stroke-linecap="round" stroke-linejoin="round" stroke-width="3.4264343996773543"/>
  <path d="M 39.35823224673109, 83.70796695771361 Q 37.70263208495917, 95.239131508137, 28.662542427832676, 102.78216338637975 " fill="none" id="curve_6" stroke="#000000" stroke-linecap="round" stroke-linejoin="round" stroke-width="2.2815535749355806"/>
  <path d="M 28.662542427832676, 102.78216338637975 Q 27.014613158397168, 103.95054697342317, 25.205158525890894, 105.46090284773437 " fill="none" id="curve_6" stroke="#000000" stroke-linecap="round" stroke-linejoin="round" stroke-width="3.5886342186381945"/>
  <path d="M 70.94117576529933, 37.71597916673821 Q 68.86362093734132, 35.104609552824, 65.65465452966886, 31.77701069532655 " fill="none" id="curve_10" stroke="#000000" stroke-linecap="round" stroke-linejoin="round" stroke-width="2.734275081867894"/>
  <path d="M 53.35456915496929, 30.109676473794494 Q 56.03707706294325, 30.639837766683954, 61.01303986135594, 31.234993622169924 " fill="none" id="curve_11" stroke="#000000" stroke-linecap="round" stroke-linejoin="round" stroke-width="2.575056771790052"/>
  <path d="M 32.05223230071914, 33.097635510417184 Q 35.66164486935748, 31.805842706745086, 56.94728419585199, 31.28072693415011 " fill="none" id="curve_12" stroke="#000000" stroke-linecap="round" stroke-linejoin="round" stroke-width="2.5406405993710917"/>
  <path d="M 56.94728419585199, 31.28072693415011 Q 53.27655578014936, 31.052933288844745, 46.99100520749779, 30.599131116826584 " fill="none" id="curve_12" stroke="#000000" stroke-linecap="round" stroke-linejoin="round" stroke-width="2.5243661621443634"/>
  <path d="M 78.51708715604423, 71.08587974576113 Q 72.27912295491734, 70.97143507019777, 68.56154622014918, 70.4562448221813 " fill="none" id="curve_27" stroke="#000000" stroke-linecap="round" stroke-linejoin="round" stroke-width="2.4558144471007397"/>
  <path d="M 46.58673075223972, 68.84014541348132 Q 46.42000294526688, 68.19948906931188, 46.121412677366465, 67.54280293789033 " fill="none" id="curve_28" stroke="#000000" stroke-linecap="round" stroke-linejoin="round" stroke-width="3.514101892412743"/>
  <path d="M 57.35621626289094, 31.502477093393782 Q 57.30282077509825, 30.411520692806054, 56.910383482788596, 29.665285060987504 " fill="none" id="curve_56" stroke="#000000" stroke-linecap="round" stroke-linejoin="round" stroke-width="2.2563013552746662"/>
  <path d="M 65.6802021826013, 49.76792910240987 Q 67.05358637483761, 48.03370939822703, 69.01749972335573, 45.020285850558615 " fill="none" id="curve_84" stroke="#000000" stroke-linecap="round" stroke-linejoin="round" stroke-width="3.1014820450164273"/>
  <path d="M 70.56128398952984, 41.90315478263833 Q 70.53469477645885, 37.50449644383336, 70.24633688328902, 36.637720897139246 " fill="none" id="curve_102" stroke="#000000" stroke-linecap="round" stroke-linejoin="round" stroke-width="4.414141762457357"/>
  <path d="M 36.79118520711563, 31.806316518584936 Q 36.620101714741374, 31.453313287871936, 36.146967762235604, 31.21941663203546 " fill="none" id="curve_143" stroke="#000000" stroke-linecap="round" stroke-linejoin="round" stroke-width="2.9175166109030473"/>
</svg>
