<?xml version="1.0" ?>
<svg height="140" width="140" xmlns="http://www.w3.org/2000/svg">
  <path d="M 42.66464614868164, 93.5821533203125 Q 43.32421517410046, 93.49278920070186, 43.42191458983021, 90.81633404607015 " fill="none" id="curve_1" stroke="#000000" stroke-linecap="round" stroke-linejoin="round" stroke-width="7.81793086462733"/>
  <path d="M 43.42191458983021, 90.81633404607015 Q 43.669751098296594, 80.94070134656442, 45.014832756366836, 68.8762443042076 " fill="none" id="curve_1" stroke="#000000" stroke-linecap="round" stroke-linejoin="round" stroke-width="5.151375750397549"/>
  <path d="M 45.014832756366836, 68.8762443042076 Q 46.58761526727711, 64.43078939120245, 47.650740955146965, 42.16616625320506 " fill="none" id="curve_1" stroke="#000000" stroke-linecap="round" stroke-linejoin="round" stroke-width="7.314511158593997"/>
  <path d="M 47.650740955146965, 42.16616625320506 Q 46.338093745453286, 35.38499373138474, 25.150696109641142, 33.87714315307509 " fill="none" id="curve_1" stroke="#000000" stroke-linecap="round" stroke-linejoin="round" stroke-width="5.439162536285733"/>
  <path d="M 40.47462528238867, 68.90612617724148 Q 30.29286861433303, 70.48234990255395, 23.359419308671246, 74.47290673597988 " fill="none" id="curve_2" stroke="#000000" stroke-linecap="round" stroke-linejoin="round" stroke-width="5.4826077282564665"/>
  <path d="M 43.544691968608745, 96.99443298701769 Q 43.553430660677826, 96.84720443358756, 43.5560120753187, 95.79466497030128 " fill="none" id="curve_3" stroke="#000000" stroke-linecap="round" stroke-linejoin="round" stroke-width="8.294930892067338"/>
  <path d="M 23.244364803094363, 36.18611843286114 Q 22.95131749330729, 35.18851472624597, 22.491632280059992, 34.10927041636507 " fill="none" id="curve_5" stroke="#000000" stroke-linecap="round" stroke-linejoin="round" stroke-width="4.426445673414014"/>
  <path d="M 29.061857650282015, 69.84496792260569 Q 26.813653110264802, 71.40685305967536, 24.232426488428928, 73.42871105693447 " fill="none" id="curve_6" stroke="#000000" stroke-linecap="round" stroke-linejoin="round" stroke-width="4.777750100716083"/>
  <path d="M 24.232426488428928, 73.42871105693447 Q 33.443126381248625, 71.71299832151165, 40.50917816927219, 67.81493018676476 " fill="none" id="curve_6" stroke="#000000" stroke-linecap="round" stroke-linejoin="round" stroke-width="3.0813946754959485"/>
  <path d="M 28.20838462103667, 33.18154612579174 Q 33.95979992521245, 33.3309646138863, 38.4700269438585, 33.782013286448354 " fill="none" id="curve_7" stroke="#000000" stroke-linecap="round" stroke-linejoin="round" stroke-width="2.4535165926008085"/>
  <path d="M 35.21299301432509, 33.473300780237125 Q 32.788650922716, 33.609335687374845, 28.184833187641033, 33.7874151521544 " fill="none" id="curve_12" stroke="#000000" stroke-linecap="round" stroke-linejoin="round" stroke-width="3.416466187159287"/>
  <path d="M 32.919815351322875, 70.84950849434003 Q 36.57195940856504, 70.41479067381549, 46.41482658027137, 69.91404750990797 " fill="none" id="curve_20" stroke="#000000" stroke-linecap="round" stroke-linejoin="round" stroke-width="2.7288489479969473"/>
  <path d="M 47.77982754384499, 45.59028753272732 Q 49.23172984666329, 45.575063771167535, 49.84848082722151, 45.47238039141685 " fill="none" id="curve_50" stroke="#000000" stroke-linecap="round" stroke-linejoin="round" stroke-width="2.950810153705092"/>
  <path d="M 50.44500728112871, 45.86975097960499 Q 49.196807174251205, 45.341411957753174, 47.768208432628256, 43.93916895652187 " fill="none" id="curve_65" stroke="#000000" stroke-linecap="round" stroke-linejoin="round" stroke-width="3.0584611134868527"/>
  <path d="M 32.47380552720542, 33.18593088049947 Q 31.79450298974161, 33.122570442533586, 29.91837631889784, 33.048495437129844 " fill="none" id="curve_68" stroke="#000000" stroke-linecap="round" stroke-linejoin="round" stroke-width="3.13965189391048"/>
  <path d="M 41.7502034733875, 80.12593348073881 Q 42.135999642657865, 81.95176471255039, 42.48474287633107, 85.70496307693583 " fill="none" id="curve_96" stroke="#000000" stroke-linecap="round" stroke-linejoin="round" stroke-width="3.2349263422704615"/>
  <path d="M 29.581966400146484, 73.07762432098389 Q 30.75271144478576, 69.77721431491162, 35.780549552372435, 67.9121266679218 " fill="none" id="curve_110" stroke="#000000" stroke-linecap="round" stroke-linejoin="round" stroke-width="2.64547679196764"/>
  <path d="M 44.14701122108683, 66.28991854521294 Q 43.18473749725235, 66.5921032651651, 42.40818355749177, 67.37623175500568 " fill="none" id="curve_111" stroke="#000000" stroke-linecap="round" stroke-linejoin="round" stroke-width="3.627771979221068"/>
  <path d="M 39.408186190453776, 34.51537292120465 Q 38.89738631568336, 33.266598726638435, 27.10094926300328, 33.07022247703507 " fill="none" id="curve_118" stroke="#000000" stroke-linecap="round" stroke-linejoin="round" stroke-width="2.6532676746301913"/>
  <path d="M 29.410752152133874, 33.95731136429126 Q 25.264540878285246, 34.20345518255228, 21.48863798851571, 34.79896944666337 " fill="none" id="curve_137" stroke="#000000" stroke-linecap="round" stroke-linejoin="round" stroke-width="2.596851178778652"/>
  <path d="M 35.050434009824095, 34.36705196947074 Q 34.59309988430258, 33.62177750027942, 32.00622497378062, 33.20577271638667 " fill="none" id="curve_157" stroke="#000000" stroke-linecap="round" stroke-linejoin="round" stroke-width="3.2184826981768375"/>
  <path d="M 22.29462638998276, 74.09865946501104 Q 22.514038956090964, 74.67163385046163, 22.915270333405804, 75.81054161837444 " fill="none" id="curve_175" stroke="#000000" stroke-linecap="round" stroke-linejoin="round" stroke-width="2.120799110895035"/>
</svg>
