<?xml version="1.0" ?>
<svg height="140" width="140" xmlns="http://www.w3.org/2000/svg">
  <path d="M 15.026735517545262, 45.96157897333819 Q 29.5582177451888, 48.682182468294805, 38.8712926633611, 58.45181655707528 " fill="none" id="curve_2" stroke="#000000" stroke-linecap="round" stroke-linejoin="round" stroke-width="5.020035245468697"/>
  <path d="M 38.8712926633611, 58.45181655707528 Q 41.25794117880267, 59.196658552052455, 41.42805488595482, 83.2381829485227 " fill="none" id="curve_2" stroke="#000000" stroke-linecap="round" stroke-linejoin="round" stroke-width="5.162891091040866"/>
  <path d="M 41.42805488595482, 83.2381829485227 Q 38.2808892446511, 89.39277850964453, 18.031518369966328, 92.22634289244925 " fill="none" id="curve_2" stroke="#000000" stroke-linecap="round" stroke-linejoin="round" stroke-width="3.8149995892225275"/>
  <path d="M 38.91257138848373, 106.57664979754212 Q 39.18212984759301, 90.11387088643393, 41.941559465837045, 85.77726879827071 " fill="none" id="curve_3" stroke="#000000" stroke-linecap="round" stroke-linejoin="round" stroke-width="4.263960105452273"/>
  <path d="M 41.941559465837045, 85.77726879827071 Q 56.332515974607944, 84.16343910399348, 67.0652199123202, 80.99909166970102 " fill="none" id="curve_3" stroke="#000000" stroke-linecap="round" stroke-linejoin="round" stroke-width="4.285335284586423"/>
  <path d="M 24.80542818718658, 50.34022981411427 Q 22.552272003627834, 50.00746586871514, 20.62808328482261, 49.37696550780825 " fill="none" id="curve_5" stroke="#000000" stroke-linecap="round" stroke-linejoin="round" stroke-width="4.214407846666047"/>
  <path d="M 31.936916972588953, 90.52021136781374 Q 27.581093459082748, 91.26002480873697, 22.46152119811958, 92.48214788519303 " fill="none" id="curve_8" stroke="#000000" stroke-linecap="round" stroke-linejoin="round" stroke-width="3.2606470894581254"/>
  <path d="M 30.46900792211257, 51.66290767008708 Q 30.01878336909322, 50.31157147313978, 28.25745570603845, 49.54183566830246 " fill="none" id="curve_9" stroke="#000000" stroke-linecap="round" stroke-linejoin="round" stroke-width="4.277818079801283"/>
  <path d="M 28.25745570603845, 49.54183566830246 Q 34.65353100047293, 51.801602742493515, 38.31385212846902, 58.61535281652033 " fill="none" id="curve_9" stroke="#000000" stroke-linecap="round" stroke-linejoin="round" stroke-width="2.9672245250815874"/>
  <path d="M 39.396941485514475, 64.10253676883553 Q 38.68210588792779, 59.003802991662226, 35.01358812607477, 56.335642153007264 " fill="none" id="curve_24" stroke="#000000" stroke-linecap="round" stroke-linejoin="round" stroke-width="2.652346182695377"/>
  <path d="M 45.33075860966999, 87.4607761082562 Q 37.541280843468634, 88.02468735618086, 30.378774811887055, 90.72270576275214 " fill="none" id="curve_25" stroke="#000000" stroke-linecap="round" stroke-linejoin="round" stroke-width="2.366241695174046"/>
  <path d="M 40.21265216300299, 73.61204140523388 Q 40.37105885561598, 83.19423279235033, 40.76734946893003, 89.21467753189904 " fill="none" id="curve_42" stroke="#000000" stroke-linecap="round" stroke-linejoin="round" stroke-width="2.406094591260416"/>
  <path d="M 20.262660026550293, 92.78220987319946 Q 19.76562485164153, 92.99601880609099, 19.121197827014726, 93.32117348209141 " fill="none" id="curve_56" stroke="#000000" stroke-linecap="round" stroke-linejoin="round" stroke-width="2.963831031068268"/>
  <path d="M 40.414837187583984, 83.40402482933331 Q 40.20634283137722, 78.99455027908827, 39.57043780303747, 75.62141538608324 " fill="none" id="curve_57" stroke="#000000" stroke-linecap="round" stroke-linejoin="round" stroke-width="2.6880567521446515"/>
  <path d="M 49.37730987134711, 84.5770044278986 Q 54.11112617256563, 83.27908460019906, 61.15621956489168, 81.6760562884446 " fill="none" id="curve_75" stroke="#000000" stroke-linecap="round" stroke-linejoin="round" stroke-width="2.8452070721460765"/>
  <path d="M 39.48045095137573, 55.98239678668864 Q 33.186342026808624, 54.42689722339308, 24.953734059795757, 50.79241641619107 " fill="none" id="curve_76" stroke="#000000" stroke-linecap="round" stroke-linejoin="round" stroke-width="2.359023687879865"/>
  <path d="M 38.69423899894382, 109.18162635712429 Q 38.97478266466913, 105.92588902824926, 39.39432335389273, 98.70962739128355 " fill="none" id="curve_78" stroke="#000000" stroke-linecap="round" stroke-linejoin="round" stroke-width="1.6864539617925804"/>
  <path d="M 28.751489995612367, 91.19209883998917 Q 26.603044140901368, 91.07455059716652, 23.821715273658405, 90.86753047129238 " fill="none" id="curve_85" stroke="#000000" stroke-linecap="round" stroke-linejoin="round" stroke-width="3.4518151325833193"/>
  <path d="M 40.40326922742503, 80.9603375563718 Q 40.13794672792723, 81.00639059293162, 39.88072163406113, 81.12337014083253 " fill="none" id="curve_100" stroke="#000000" stroke-linecap="round" stroke-linejoin="round" stroke-width="3.704075830262399"/>
  <path d="M 38.69317230103431, 104.94898683521957 Q 39.21177246204575, 103.4536622645002, 39.83544346867335, 99.84641301828925 " fill="none" id="curve_123" stroke="#000000" stroke-linecap="round" stroke-linejoin="round" stroke-width="2.510684202689593"/>
  <path d="M 38.142285893090886, 65.15276897725013 Q 37.99116052325305, 57.395802628916705, 33.81705606226039, 56.515202277142045 " fill="none" id="curve_139" stroke="#000000" stroke-linecap="round" stroke-linejoin="round" stroke-width="2.442882902064739"/>
  <path d="M 15.866559474958166, 46.53791151235559 Q 15.32368834093676, 46.67058816767437, 14.518075519992376, 46.8429349805515 " fill="none" id="curve_140" stroke="#000000" stroke-linecap="round" stroke-linejoin="round" stroke-width="2.7583487333728014"/>
  <path d="M 57.82092534244929, 81.60468008294032 Q 54.505446290043515, 82.96886920768374, 49.54221217383039, 85.14962615833767 " fill="none" id="curve_142" stroke="#000000" stroke-linecap="round" stroke-linejoin="round" stroke-width="3.030935483369971"/>
</svg>
