<?xml version="1.0" ?>
<svg height="140" width="140" xmlns="http://www.w3.org/2000/svg">
  <path d="M 23.972339630126953, 105.69832229614258 Q 22.81105973218345, 105.58128699016797, 22.426590527084187, 104.44639644506911 " fill="none" id="curve_1" stroke="#000000" stroke-linecap="round" stroke-linejoin="round" stroke-width="11.295958578908671"/>
  <path d="M 22.426590527084187, 104.44639644506911 Q 22.950636896217265, 101.43329132042123, 24.686739430687126, 97.83004844228255 " fill="none" id="curve_1" stroke="#000000" stroke-linecap="round" stroke-linejoin="round" stroke-width="9.850224415104043"/>
  <path d="M 24.686739430687126, 97.83004844228255 Q 26.19438586528066, 88.95729313230028, 31.397467969593265, 82.43785682913561 " fill="none" id="curve_1" stroke="#000000" stroke-linecap="round" stroke-linejoin="round" stroke-width="11.88296865310142"/>
  <path d="M 31.397467969593265, 82.43785682913561 Q 33.98786539320341, 75.61082842264594, 37.196040837188406, 64.92286989041384 " fill="none" id="curve_1" stroke="#000000" stroke-linecap="round" stroke-linejoin="round" stroke-width="14.69235148853895"/>
  <path d="M 37.196040837188406, 64.92286989041384 Q 39.00966960207352, 62.19517323819795, 42.567633928796766, 57.0172034306112 " fill="none" id="curve_1" stroke="#000000" stroke-linecap="round" stroke-linejoin="round" stroke-width="8.955556385355433"/>
  <path d="M 42.567633928796766, 57.0172034306112 Q 47.20218215128556, 38.03433432076436, 62.11690754632554, 20.123427053861057 " fill="none" id="curve_1" stroke="#000000" stroke-linecap="round" stroke-linejoin="round" stroke-width="10.44183170714308"/>
  <path d="M 62.11690754632554, 20.123427053861057 Q 55.90652458946737, 27.108645646645506, 16.999162032022703, 29.543890968839378 " fill="none" id="curve_1" stroke="#000000" stroke-linecap="round" stroke-linejoin="round" stroke-width="8.398773986903157"/>
  <path d="M 20.176623749543776, 68.31483601214094 Q 30.720659249741523, 65.5466755466562, 45.513507181756935, 61.930125592030734 " fill="none" id="curve_2" stroke="#000000" stroke-linecap="round" stroke-linejoin="round" stroke-width="11.05634665423161"/>
  <path d="M 18.751797121894658, 26.11967972289333 Q 17.125361080462955, 26.411798772011966, 16.10530176973431, 27.391649251539818 " fill="none" id="curve_3" stroke="#000000" stroke-linecap="round" stroke-linejoin="round" stroke-width="7.785652207631447"/>
  <path d="M 53.02792047813979, 21.64607535524245 Q 58.843023252955334, 20.158537135908343, 62.601036662200315, 16.28435485799334 " fill="none" id="curve_5" stroke="#000000" stroke-linecap="round" stroke-linejoin="round" stroke-width="4.375353393112449"/>
  <path d="M 50.20756488148793, 63.14451437966422 Q 49.8410715901895, 57.35543382897435, 41.85148241527175, 56.590181017606014 " fill="none" id="curve_8" stroke="#000000" stroke-linecap="round" stroke-linejoin="round" stroke-width="4.07297702314998"/>
  <path d="M 41.85148241527175, 56.590181017606014 Q 28.17710504843064, 58.9020793137596, 21.93030446354282, 69.22524697642174 " fill="none" id="curve_8" stroke="#000000" stroke-linecap="round" stroke-linejoin="round" stroke-width="4.982963495862842"/>
  <path d="M 21.93030446354282, 69.22524697642174 Q 22.083913516956407, 71.0328496237651, 27.377589709287857, 71.17045649782709 " fill="none" id="curve_8" stroke="#000000" stroke-linecap="round" stroke-linejoin="round" stroke-width="4.694711947198573"/>
  <path d="M 18.70746964809597, 64.1789750594558 Q 26.11717208120328, 62.83386324603786, 38.129834742066436, 60.89323310878372 " fill="none" id="curve_9" stroke="#000000" stroke-linecap="round" stroke-linejoin="round" stroke-width="2.9047393220642017"/>
  <path d="M 39.580873620120755, 56.24677120403235 Q 39.590187588641875, 51.04822188185536, 40.60150490866463, 50.82710007939522 " fill="none" id="curve_10" stroke="#000000" stroke-linecap="round" stroke-linejoin="round" stroke-width="3.3213943333060962"/>
  <path d="M 44.94620666442589, 30.698059258014027 Q 39.33291053511228, 31.30357105481488, 19.158917882165472, 31.752028886982938 " fill="none" id="curve_11" stroke="#000000" stroke-linecap="round" stroke-linejoin="round" stroke-width="3.392179660953573"/>
  <path d="M 19.158917882165472, 31.752028886982938 Q 14.898958896270816, 31.415941670374423, 14.333020476891818, 25.961880202068645 " fill="none" id="curve_11" stroke="#000000" stroke-linecap="round" stroke-linejoin="round" stroke-width="4.824146916083761"/>
  <path d="M 14.333020476891818, 25.961880202068645 Q 14.937018964426509, 25.05569786322697, 32.65781473707402, 24.975716534566924 " fill="none" id="curve_11" stroke="#000000" stroke-linecap="round" stroke-linejoin="round" stroke-width="3.3616889067240834"/>
  <path d="M 32.65781473707402, 24.975716534566924 Q 50.2985475050551, 23.287279024111566, 61.66024860990124, 14.562421669272936 " fill="none" id="curve_11" stroke="#000000" stroke-linecap="round" stroke-linejoin="round" stroke-width="3.7969973401900248"/>
  <path d="M 61.41023563216101, 27.48575153183316 Q 56.28798820504139, 31.62245901948734, 45.96579806867917, 35.4950561996158 " fill="none" id="curve_12" stroke="#000000" stroke-linecap="round" stroke-linejoin="round" stroke-width="3.7941678853234064"/>
  <path d="M 47.935436920589105, 64.3774815477407 Q 47.80365745076266, 65.5299933860052, 47.13752435918296, 65.90620686889146 " fill="none" id="curve_13" stroke="#000000" stroke-linecap="round" stroke-linejoin="round" stroke-width="3.716560983130173"/>
  <path d="M 23.116562812969846, 108.4495943534065 Q 23.06207536144646, 109.22432818549875, 22.151132497208337, 109.32444225432843 " fill="none" id="curve_14" stroke="#000000" stroke-linecap="round" stroke-linejoin="round" stroke-width="5.692816398473238"/>
  <path d="M 22.151132497208337, 109.32444225432843 Q 24.52447058126418, 108.88577242027928, 26.757135346922738, 108.19281053350774 " fill="none" id="curve_14" stroke="#000000" stroke-linecap="round" stroke-linejoin="round" stroke-width="5.298827433109467"/>
  <path d="M 21.512631497702916, 108.1027898422386 Q 21.11736033662598, 107.35669673163281, 20.411309622754683, 105.9470606907155 " fill="none" id="curve_23" stroke="#000000" stroke-linecap="round" stroke-linejoin="round" stroke-width="4.312490785101109"/>
  <path d="M 20.557779815861508, 108.90180704608379 Q 20.448625975930426, 108.63147845578067, 20.258329400455352, 108.2873955843289 " fill="none" id="curve_26" stroke="#000000" stroke-linecap="round" stroke-linejoin="round" stroke-width="4.282720285832051"/>
  <path d="M 21.52548234403342, 100.8624291628993 Q 21.347978133709816, 101.80401630909314, 21.06603801563909, 103.16970675184142 " fill="none" id="curve_27" stroke="#000000" stroke-linecap="round" stroke-linejoin="round" stroke-width="4.840381980444429"/>
  <path d="M 13.988456726074219, 28.86083221435547 Q 14.121340478238489, 31.785047587279742, 15.54231072591648, 32.565409353343625 " fill="none" id="curve_41" stroke="#000000" stroke-linecap="round" stroke-linejoin="round" stroke-width="3.1907475752232353"/>
  <path d="M 15.598063797752179, 23.744473118093257 Q 16.357124450263115, 23.734800469806107, 17.69064956293767, 23.725874499280955 " fill="none" id="curve_42" stroke="#000000" stroke-linecap="round" stroke-linejoin="round" stroke-width="3.6878342559700257"/>
  <path d="M 20.684432983398438, 95.93892097473145 Q 20.824795338925274, 102.25793279483555, 24.401170094586917, 103.1289773943846 " fill="none" id="curve_56" stroke="#000000" stroke-linecap="round" stroke-linejoin="round" stroke-width="4.826954257636768"/>
  <path d="M 27.463346451844174, 104.8770923282078 Q 26.785996109090302, 99.87598685428163, 20.657430556194925, 98.46119809249507 " fill="none" id="curve_57" stroke="#000000" stroke-linecap="round" stroke-linejoin="round" stroke-width="3.73429603303634"/>
  <path d="M 32.06399620780132, 89.95466384256977 Q 22.793706170301785, 92.02262621504208, 16.740991893175718, 103.103055574913 " fill="none" id="curve_58" stroke="#000000" stroke-linecap="round" stroke-linejoin="round" stroke-width="2.730744777348418"/>
  <path d="M 18.902209457944274, 109.56125277883999 Q 19.49544769323626, 109.28659896206528, 20.551315779373162, 108.95498584039436 " fill="none" id="curve_59" stroke="#000000" stroke-linecap="round" stroke-linejoin="round" stroke-width="2.8897719766259353"/>
  <path d="M 22.965576198378358, 93.84438424833483 Q 22.240004802511955, 93.67873774548522, 21.55563162964928, 93.3162433537423 " fill="none" id="curve_74" stroke="#000000" stroke-linecap="round" stroke-linejoin="round" stroke-width="3.2431809711406507"/>
</svg>
