<?xml version="1.0" ?>
<svg height="140" width="140" xmlns="http://www.w3.org/2000/svg">
  <path d="M 8.865583048485036, 52.25104899746243 Q 11.805177986712218, 51.80153051899932, 25.596727638559432, 51.57051607136288 " fill="none" id="curve_2" stroke="#000000" stroke-linecap="round" stroke-linejoin="round" stroke-width="6.165013697851446"/>
  <path d="M 25.596727638559432, 51.57051607136288 Q 39.45254565408273, 51.46943374258085, 53.68825495089683, 51.19673664310308 " fill="none" id="curve_2" stroke="#000000" stroke-linecap="round" stroke-linejoin="round" stroke-width="6.1595467351245885"/>
  <path d="M 53.68825495089683, 51.19673664310308 Q 51.65147092895842, 65.00725508031819, 46.7232235380652, 73.0319128565175 " fill="none" id="curve_2" stroke="#000000" stroke-linecap="round" stroke-linejoin="round" stroke-width="7.112213461501022"/>
  <path d="M 46.7232235380652, 73.0319128565175 Q 42.162143017087196, 86.17339799032564, 31.603730651875296, 97.1694614896772 " fill="none" id="curve_2" stroke="#000000" stroke-linecap="round" stroke-linejoin="round" stroke-width="3.9600089695145835"/>
  <path d="M 27.966659673863386, 72.73920879046685 Q 47.93385664612667, 73.85580038757851, 63.609989348267646, 77.7219984268996 " fill="none" id="curve_3" stroke="#000000" stroke-linecap="round" stroke-linejoin="round" stroke-width="6.771658510687524"/>
  <path d="M 32.29863585575465, 97.94623261278318 Q 35.26595413633832, 94.33375159726845, 38.423561781061885, 84.91330238527011 " fill="none" id="curve_4" stroke="#000000" stroke-linecap="round" stroke-linejoin="round" stroke-width="3.0017290130743643"/>
  <path d="M 17.602060707271974, 53.767883456132715 Q 16.56230568871026, 53.61008475107544, 14.943679794140527, 53.41280868181244 " fill="none" id="curve_8" stroke="#000000" stroke-linecap="round" stroke-linejoin="round" stroke-width="4.497650967525937"/>
  <path d="M 51.19998064677736, 55.04783073207284 Q 49.04402327833598, 62.6783552296391, 45.74106143615913, 71.95674660430906 " fill="none" id="curve_23" stroke="#000000" stroke-linecap="round" stroke-linejoin="round" stroke-width="2.78303929743786"/>
  <path d="M 45.74106143615913, 71.95674660430906 Q 42.02832446786, 74.81259830811248, 40.64512992828125, 85.25960036032804 " fill="none" id="curve_23" stroke="#000000" stroke-linecap="round" stroke-linejoin="round" stroke-width="3.326732046581825"/>
  <path d="M 37.54646240262115, 71.67558840307505 Q 31.777937095172483, 71.85249960060634, 27.136353465781568, 72.24296134725977 " fill="none" id="curve_24" stroke="#000000" stroke-linecap="round" stroke-linejoin="round" stroke-width="3.4294522075795553"/>
  <path d="M 40.1120708712547, 49.44297693271017 Q 43.784716518751196, 49.53226511998835, 46.629605176258785, 49.74837572835085 " fill="none" id="curve_25" stroke="#000000" stroke-linecap="round" stroke-linejoin="round" stroke-width="3.4443792551272736"/>
  <path d="M 50.859939914470374, 71.77083585475009 Q 54.35702427019437, 73.6336695105181, 60.759778614430765, 75.2915160528536 " fill="none" id="curve_40" stroke="#000000" stroke-linecap="round" stroke-linejoin="round" stroke-width="2.2192837027835406"/>
  <path d="M 54.17344398376156, 59.68774905604016 Q 54.320595846347125, 56.98235664468271, 54.71222452580294, 54.94629011023895 " fill="none" id="curve_47" stroke="#000000" stroke-linecap="round" stroke-linejoin="round" stroke-width="3.338008891163358"/>
  <path d="M 43.02216494140062, 71.01735851741793 Q 41.913100416455066, 71.64250086148792, 39.66087202286265, 73.00912288127411 " fill="none" id="curve_63" stroke="#000000" stroke-linecap="round" stroke-linejoin="round" stroke-width="2.4214373065706116"/>
  <path d="M 39.66087202286265, 73.00912288127411 Q 40.543206424456514, 77.15331528582095, 41.56464165036188, 83.58571437511806 " fill="none" id="curve_63" stroke="#000000" stroke-linecap="round" stroke-linejoin="round" stroke-width="3.635519732862159"/>
  <path d="M 44.32085773829173, 51.78436988776747 Q 44.24011565606919, 49.67340002487731, 42.2259683586979, 49.354076273812915 " fill="none" id="curve_69" stroke="#000000" stroke-linecap="round" stroke-linejoin="round" stroke-width="3.6034129016273395"/>
  <path d="M 28.16021764280182, 72.48718078917153 Q 28.357168208085696, 72.5592012110073, 28.850826689590807, 72.67106376012175 " fill="none" id="curve_70" stroke="#000000" stroke-linecap="round" stroke-linejoin="round" stroke-width="2.8099972967163565"/>
  <path d="M 21.3147619767758, 54.000880803812166 Q 19.698400300942005, 53.79097602714253, 16.21565094070545, 53.5844440050595 " fill="none" id="curve_85" stroke="#000000" stroke-linecap="round" stroke-linejoin="round" stroke-width="3.0450364181985607"/>
  <path d="M 41.574183597564854, 49.49655990177991 Q 41.11991092680372, 49.4772138034751, 40.19589364383624, 49.44172760448822 " fill="none" id="curve_87" stroke="#000000" stroke-linecap="round" stroke-linejoin="round" stroke-width="3.173130740834148"/>
  <path d="M 28.33256978343821, 72.2799102638292 Q 28.632529387401533, 72.36456183074564, 29.022466207814382, 72.52515075831293 " fill="none" id="curve_90" stroke="#000000" stroke-linecap="round" stroke-linejoin="round" stroke-width="3.9798986097705464"/>
  <path d="M 27.058636417530924, 71.83942060922126 Q 28.781453815452036, 71.94188802469372, 30.82000778569026, 72.15988918869556 " fill="none" id="curve_106" stroke="#000000" stroke-linecap="round" stroke-linejoin="round" stroke-width="2.9221099556105457"/>
  <path d="M 30.516005972586804, 71.93138011258824 Q 30.23625109602458, 71.821712883232, 29.748606569037065, 71.64310144217337 " fill="none" id="curve_149" stroke="#000000" stroke-linecap="round" stroke-linejoin="round" stroke-width="3.204911525952909"/>
</svg>
