<?xml version="1.0" ?>
<svg height="140" width="140" xmlns="http://www.w3.org/2000/svg">
  <path d="M 87.61225891113281, 48.80404281616211 Q 87.35861073887243, 44.99009771139483, 86.09250033842117, 42.821518520002485 " fill="none" id="curve_1" stroke="#000000" stroke-linecap="round" stroke-linejoin="round" stroke-width="6.126208350290829"/>
  <path d="M 86.09250033842117, 42.821518520002485 Q 83.40414021605756, 41.819107784534786, 65.84344180407926, 41.31862442731729 " fill="none" id="curve_1" stroke="#000000" stroke-linecap="round" stroke-linejoin="round" stroke-width="6.395166175215408"/>
  <path d="M 65.84344180407926, 41.31862442731729 Q 53.71613120706642, 40.771554795025615, 41.37330326312143, 39.060146323928436 " fill="none" id="curve_1" stroke="#000000" stroke-linecap="round" stroke-linejoin="round" stroke-width="5.0346227485055906"/>
  <path d="M 41.37330326312143, 39.060146323928436 Q 40.39366355301307, 39.241913960174614, 39.27456908691718, 39.4773861376333 " fill="none" id="curve_1" stroke="#000000" stroke-linecap="round" stroke-linejoin="round" stroke-width="2.968245873758221"/>
  <path d="M 2.4023182818394844, 4.636107334241586 Q 3.3279653317335884, 7.01233721284116, 3.8216734135193136, 28.056267076908025 " fill="none" id="curve_2" stroke="#000000" stroke-linecap="round" stroke-linejoin="round" stroke-width="5.574074712292684"/>
  <path d="M 3.8216734135193136, 28.056267076908025 Q 3.856995678196454, 31.6588058531409, 3.891057880598216, 66.1570193829799 " fill="none" id="curve_2" stroke="#000000" stroke-linecap="round" stroke-linejoin="round" stroke-width="5.052321979303845"/>
  <path d="M 3.891057880598216, 66.1570193829799 Q 3.868875968479123, 72.6718644194165, 3.8207372642051567, 99.32553699630138 " fill="none" id="curve_2" stroke="#000000" stroke-linecap="round" stroke-linejoin="round" stroke-width="5.417651872464118"/>
  <path d="M 3.8207372642051567, 99.32553699630138 Q 3.865737515884391, 106.01098069554057, 3.962184859121834, 130.59705504529165 " fill="none" id="curve_2" stroke="#000000" stroke-linecap="round" stroke-linejoin="round" stroke-width="5.484602451318167"/>
  <path d="M 3.962184859121834, 130.59705504529165 Q 4.00109585035402, 135.6781727007731, 4.149242803978948, 137.74803240030235 " fill="none" id="curve_2" stroke="#000000" stroke-linecap="round" stroke-linejoin="round" stroke-width="5.384793607578843"/>
  <path d="M 4.149242803978948, 137.74803240030235 Q 3.466565961692257, 137.8648605817376, 2.0233120533340965, 137.94354888987093 " fill="none" id="curve_2" stroke="#000000" stroke-linecap="round" stroke-linejoin="round" stroke-width="3.140912416510991"/>
  <path d="M 51.65770216801536, 86.99174594063604 Q 60.56452850477784, 87.97936113391395, 75.63345960068237, 89.72038644288534 " fill="none" id="curve_3" stroke="#000000" stroke-linecap="round" stroke-linejoin="round" stroke-width="6.521514173719147"/>
  <path d="M 75.63345960068237, 89.72038644288534 Q 70.24190956036782, 99.01704561625544, 62.38404277570083, 114.55234807349943 " fill="none" id="curve_3" stroke="#000000" stroke-linecap="round" stroke-linejoin="round" stroke-width="5.113664499297678"/>
  <path d="M 75.54782217530635, 87.02061798821875 Q 79.81196850043335, 76.98024977867765, 88.71614533852771, 54.167607349910696 " fill="none" id="curve_4" stroke="#000000" stroke-linecap="round" stroke-linejoin="round" stroke-width="6.957032382925447"/>
  <path d="M 83.76523242962739, 88.9418800374102 Q 86.77086254018107, 88.9293295229911, 89.22712755150249, 88.89683766872861 " fill="none" id="curve_5" stroke="#000000" stroke-linecap="round" stroke-linejoin="round" stroke-width="3.4543726288397028"/>
  <path d="M 53.307093084080186, 85.3967959729372 Q 49.57537688706282, 84.64745704592856, 46.05827429293987, 83.40745079351149 " fill="none" id="curve_6" stroke="#000000" stroke-linecap="round" stroke-linejoin="round" stroke-width="4.336381806964627"/>
  <path d="M 81.41329591724786, 89.96060944500942 Q 77.23519016135293, 89.3615544827076, 75.56674741954251, 85.63112099045206 " fill="none" id="curve_7" stroke="#000000" stroke-linecap="round" stroke-linejoin="round" stroke-width="4.181439862373877"/>
  <path d="M 87.7409981417053, 53.049273777668056 Q 88.21401076987956, 50.86180901634677, 88.52968602278183, 45.561890769539716 " fill="none" id="curve_8" stroke="#000000" stroke-linecap="round" stroke-linejoin="round" stroke-width="4.288216400228185"/>
  <path d="M 78.72307518415265, 75.52164436365732 Q 75.18576190581955, 88.46116017630808, 65.49306452808284, 102.40780011570014 " fill="none" id="curve_9" stroke="#000000" stroke-linecap="round" stroke-linejoin="round" stroke-width="3.182057337241556"/>
  <path d="M 76.71009000829599, 84.74256180825995 Q 78.0080275379663, 74.14431203009228, 83.35095706556848, 67.41602889560087 " fill="none" id="curve_10" stroke="#000000" stroke-linecap="round" stroke-linejoin="round" stroke-width="3.242714335973741"/>
  <path d="M 53.839845021659116, 84.94413124838711 Q 56.238137455671385, 87.82298399163501, 74.49551146283812, 88.58270750038771 " fill="none" id="curve_12" stroke="#000000" stroke-linecap="round" stroke-linejoin="round" stroke-width="3.664540976246574"/>
  <path d="M 74.49551146283812, 88.58270750038771 Q 78.48022871204066, 83.97765090420722, 82.21090104840327, 74.7375647707748 " fill="none" id="curve_12" stroke="#000000" stroke-linecap="round" stroke-linejoin="round" stroke-width="3.480560484963517"/>
  <path d="M 66.5502804689889, 89.65277715911114 Q 68.19325984293484, 87.246736978448, 77.20611108059362, 85.72944983430197 " fill="none" id="curve_16" stroke="#000000" stroke-linecap="round" stroke-linejoin="round" stroke-width="3.584119323831244"/>
  <path d="M 62.93917867661111, 109.91466680392769 Q 66.82462219397704, 106.98185215340156, 71.91114380261375, 100.7226382073864 " fill="none" id="curve_17" stroke="#000000" stroke-linecap="round" stroke-linejoin="round" stroke-width="2.936971971236322"/>
  <path d="M 89.39328185144608, 43.70511866056616 Q 87.61783660378126, 48.3889868678052, 85.70201043956477, 60.01609948168185 " fill="none" id="curve_19" stroke="#000000" stroke-linecap="round" stroke-linejoin="round" stroke-width="2.8431874237003405"/>
  <path d="M 79.94015572424621, 86.93705781015981 Q 78.64566845570728, 84.12485517113421, 74.03322059953233, 82.3568322369777 " fill="none" id="curve_34" stroke="#000000" stroke-linecap="round" stroke-linejoin="round" stroke-width="3.1307399431438574"/>
  <path d="M 52.01318629968279, 86.60287201751059 Q 59.39784296929082, 88.32314162124297, 72.85721884720297, 90.20301096697382 " fill="none" id="curve_44" stroke="#000000" stroke-linecap="round" stroke-linejoin="round" stroke-width="2.846401203920633"/>
  <path d="M 61.366509952977, 86.51645171459626 Q 62.95911098900738, 88.43899219070417, 71.77429273998924, 89.68326624207886 " fill="none" id="curve_45" stroke="#000000" stroke-linecap="round" stroke-linejoin="round" stroke-width="2.9810054604181975"/>
  <path d="M 80.84110505154364, 71.38497216637032 Q 80.31413822118459, 72.21719467190677, 79.61638071897562, 74.0730953768651 " fill="none" id="curve_48" stroke="#000000" stroke-linecap="round" stroke-linejoin="round" stroke-width="4.229593251026779"/>
  <path d="M 3.4373035430908203, 6.492820739746094 Q 3.831300898466848, 2.8760625408579013, 9.275851077671689, 2.181443826837068 " fill="none" id="curve_62" stroke="#000000" stroke-linecap="round" stroke-linejoin="round" stroke-width="4.334972253310895"/>
  <path d="M 9.275851077671689, 2.181443826837068 Q 5.421427822196671, 4.010480478493774, 4.392159293289916, 12.237806345370085 " fill="none" id="curve_62" stroke="#000000" stroke-linecap="round" stroke-linejoin="round" stroke-width="2.816601898137498"/>
  <path d="M 4.392159293289916, 12.237806345370085 Q 2.3980716681306733, 14.450223960160784, 1.818920081648201, 27.192878308765593 " fill="none" id="curve_62" stroke="#000000" stroke-linecap="round" stroke-linejoin="round" stroke-width="3.7903969745371344"/>
  <path d="M 4.8411062221022645, 3.202818142630562 Q 4.827753452219036, 2.9309082195196328, 4.805624046433213, 2.6800700963847714 " fill="none" id="curve_65" stroke="#000000" stroke-linecap="round" stroke-linejoin="round" stroke-width="4.210224764926426"/>
  <path d="M 5.364254702977994, 22.618380950371375 Q 4.7171070405923, 18.299673283475844, 3.091778170435017, 15.169584933805204 " fill="none" id="curve_67" stroke="#000000" stroke-linecap="round" stroke-linejoin="round" stroke-width="3.819824655590457"/>
  <path d="M 47.48392976314161, 38.059788990402765 Q 48.23601428668501, 38.59191203299178, 50.02681607066676, 39.196828669755064 " fill="none" id="curve_86" stroke="#000000" stroke-linecap="round" stroke-linejoin="round" stroke-width="2.96657473921484"/>
  <path d="M 65.46463209222904, 106.34769230770203 Q 65.63428191929121, 106.33763670518792, 65.77543702358608, 106.30405738192071 " fill="none" id="curve_97" stroke="#000000" stroke-linecap="round" stroke-linejoin="round" stroke-width="4.907421386479498"/>
  <path d="M 76.2485922558791, 79.06563416219215 Q 80.4651614000935, 71.35712011855732, 87.91507127292189, 61.103611810241524 " fill="none" id="curve_102" stroke="#000000" stroke-linecap="round" stroke-linejoin="round" stroke-width="3.1152554631524305"/>
  <path d="M 65.0819236342129, 86.9708268401412 Q 72.41704914948555, 87.0961376874385, 77.1212430189488, 87.55367270696568 " fill="none" id="curve_106" stroke="#000000" stroke-linecap="round" stroke-linejoin="round" stroke-width="2.368525113715099"/>
  <path d="M 86.54352048630885, 48.32849957900982 Q 87.04539332050288, 48.49921885551594, 87.92259000801175, 48.73499211582983 " fill="none" id="curve_122" stroke="#000000" stroke-linecap="round" stroke-linejoin="round" stroke-width="3.0412585899848694"/>
  <path d="M 61.406149658540016, 42.99977660278546 Q 67.67797905635345, 42.30539166655457, 70.00624934824367, 39.34393170043292 " fill="none" id="curve_150" stroke="#000000" stroke-linecap="round" stroke-linejoin="round" stroke-width="2.38409754101784"/>
  <path d="M 79.02721992230309, 73.2899440374771 Q 81.46488936248309, 70.78158787709549, 84.76145534268022, 67.31984217438908 " fill="none" id="curve_155" stroke="#000000" stroke-linecap="round" stroke-linejoin="round" stroke-width="3.6415168655649954"/>
  <path d="M 46.56469523716366, 37.40028467799402 Q 47.043986882244695, 37.31465211792298, 47.638576148487715, 37.16423553075251 " fill="none" id="curve_183" stroke="#000000" stroke-linecap="round" stroke-linejoin="round" stroke-width="2.3088751713938196"/>
  <path d="M 78.92058983998568, 73.99422693701925 Q 80.69068551028555, 70.96076669444986, 84.43140630077924, 67.98008198250389 " fill="none" id="curve_187" stroke="#000000" stroke-linecap="round" stroke-linejoin="round" stroke-width="3.484807389519129"/>
  <path d="M 51.360435139302396, 84.63482665521958 Q 58.43523362855437, 85.98504370855639, 66.45898206889753, 87.98936540164735 " fill="none" id="curve_210" stroke="#000000" stroke-linecap="round" stroke-linejoin="round" stroke-width="2.601418740157943"/>
  <path d="M 79.61275867031827, 73.39860334921138 Q 82.16839247262082, 70.35437478884825, 85.06922556477215, 64.99654641484605 " fill="none" id="curve_216" stroke="#000000" stroke-linecap="round" stroke-linejoin="round" stroke-width="3.4509021049906705"/>
</svg>
