<?xml version="1.0" ?>
<svg height="140" width="140" xmlns="http://www.w3.org/2000/svg">
  <path d="M 20.38546085357666, 50.596604347229004 Q 19.789208896989496, 52.00194792445097, 12.917985390131435, 52.39873003013315 " fill="none" id="curve_1" stroke="#000000" stroke-linecap="round" stroke-linejoin="round" stroke-width="6.678895103845706"/>
  <path d="M 12.917985390131435, 52.39873003013315 Q 12.243973821857098, 51.339753538971635, 11.843355126386298, 47.664190358719196 " fill="none" id="curve_1" stroke="#000000" stroke-linecap="round" stroke-linejoin="round" stroke-width="3.97146445020279"/>
  <path d="M 20.917093110141018, 51.30736203272086 Q 30.18827588304496, 47.92083726904415, 48.01690407682024, 38.72444905300822 " fill="none" id="curve_2" stroke="#000000" stroke-linecap="round" stroke-linejoin="round" stroke-width="5.028179893929266"/>
  <path d="M 48.01690407682024, 38.72444905300822 Q 58.860167855666205, 35.08277776741533, 74.13307734111258, 28.64584362866528 " fill="none" id="curve_2" stroke="#000000" stroke-linecap="round" stroke-linejoin="round" stroke-width="5.713886268820662"/>
  <path d="M 74.13307734111258, 28.64584362866528 Q 73.34827802020105, 48.54748052932287, 63.60508528616384, 64.16723663629489 " fill="none" id="curve_2" stroke="#000000" stroke-linecap="round" stroke-linejoin="round" stroke-width="4.620000416066953"/>
  <path d="M 63.60508528616384, 64.16723663629489 Q 64.46938477018394, 64.09792400361383, 66.71606295652376, 63.955367438905206 " fill="none" id="curve_2" stroke="#000000" stroke-linecap="round" stroke-linejoin="round" stroke-width="5.098810529706482"/>
  <path d="M 66.71606295652376, 63.955367438905206 Q 64.93734075620446, 68.12265353381758, 59.85326393027838, 76.78102683483675 " fill="none" id="curve_2" stroke="#000000" stroke-linecap="round" stroke-linejoin="round" stroke-width="4.017585640015507"/>
  <path d="M 59.85326393027838, 76.78102683483675 Q 56.32308782273825, 90.69202361374973, 40.74817605180458, 122.04549750426852 " fill="none" id="curve_2" stroke="#000000" stroke-linecap="round" stroke-linejoin="round" stroke-width="4.743652406080452"/>
  <path d="M 40.74817605180458, 122.04549750426852 Q 39.32053451402471, 133.06611031684676, 35.463865029174144, 138.43745812574943 " fill="none" id="curve_2" stroke="#000000" stroke-linecap="round" stroke-linejoin="round" stroke-width="4.608646346190851"/>
  <path d="M 21.401857671302896, 82.53985444865616 Q 30.15408292770917, 78.62854796778464, 57.31186854603905, 72.29561172004713 " fill="none" id="curve_4" stroke="#000000" stroke-linecap="round" stroke-linejoin="round" stroke-width="6.345493888902613"/>
  <path d="M 57.31186854603905, 72.29561172004713 Q 60.48222771134948, 70.05521589613176, 64.63760522868304, 68.03935676518836 " fill="none" id="curve_4" stroke="#000000" stroke-linecap="round" stroke-linejoin="round" stroke-width="5.192993092049091"/>
  <path d="M 20.05281367437029, 83.29879088652812 Q 17.219757562022444, 83.44820578798485, 16.17457049675918, 84.20526461527012 " fill="none" id="curve_6" stroke="#000000" stroke-linecap="round" stroke-linejoin="round" stroke-width="4.117562075922185"/>
  <path d="M 23.901361574929055, 47.50235483483864 Q 28.957038949460156, 47.04540061305241, 31.30496902635433, 45.412625219757544 " fill="none" id="curve_7" stroke="#000000" stroke-linecap="round" stroke-linejoin="round" stroke-width="3.301400835874784"/>
  <path d="M 66.6508233041495, 69.2809763558217 Q 66.44057849222249, 69.13063583346295, 66.32674804484604, 68.33733151786414 " fill="none" id="curve_9" stroke="#000000" stroke-linecap="round" stroke-linejoin="round" stroke-width="4.087043881775935"/>
  <path d="M 41.71473530447824, 73.43304947916837 Q 34.92422967063936, 78.46273841937511, 17.075714809812762, 83.03337005377787 " fill="none" id="curve_10" stroke="#000000" stroke-linecap="round" stroke-linejoin="round" stroke-width="3.2476708618155286"/>
  <path d="M 46.995281128743436, 38.88161104108 Q 54.88804819177378, 36.08936053045478, 69.09316410342126, 28.69878899121239 " fill="none" id="curve_13" stroke="#000000" stroke-linecap="round" stroke-linejoin="round" stroke-width="2.7629155554419835"/>
  <path d="M 48.92734635456044, 39.9966093927878 Q 51.283903003064715, 36.89729802230633, 55.99880658681312, 33.48199646301531 " fill="none" id="curve_14" stroke="#000000" stroke-linecap="round" stroke-linejoin="round" stroke-width="3.1419865324052076"/>
  <path d="M 44.30473181190732, 39.66672796756666 Q 47.239120272981985, 39.19961903703189, 51.43774546775169, 38.50820980480561 " fill="none" id="curve_15" stroke="#000000" stroke-linecap="round" stroke-linejoin="round" stroke-width="3.7295369148692736"/>
  <path d="M 30.81815696365272, 80.2912495281554 Q 22.41594746650658, 80.46767533802469, 19.27506297328985, 81.76395036638318 " fill="none" id="curve_16" stroke="#000000" stroke-linecap="round" stroke-linejoin="round" stroke-width="3.4610379240703173"/>
  <path d="M 12.732381246256956, 51.73560760289742 Q 15.234216357061111, 50.87808041260842, 20.707585705113587, 50.12748342852561 " fill="none" id="curve_17" stroke="#000000" stroke-linecap="round" stroke-linejoin="round" stroke-width="3.70489407353095"/>
  <path d="M 60.765356978699664, 71.4183286254121 Q 58.01615082869537, 85.80243678539277, 47.58046685127509, 103.3317355287446 " fill="none" id="curve_18" stroke="#000000" stroke-linecap="round" stroke-linejoin="round" stroke-width="2.7780529741325797"/>
  <path d="M 67.39981525274457, 54.214634895977966 Q 67.0697181647959, 56.08698489217542, 66.27850925375819, 58.833051743644376 " fill="none" id="curve_20" stroke="#000000" stroke-linecap="round" stroke-linejoin="round" stroke-width="3.3377673805234163"/>
  <path d="M 54.749067689895924, 92.0292060744217 Q 58.04678628937566, 83.0158255787458, 64.45741684887952, 69.69754383667183 " fill="none" id="curve_21" stroke="#000000" stroke-linecap="round" stroke-linejoin="round" stroke-width="3.0040750813595793"/>
  <path d="M 23.628209689314208, 81.59009186007475 Q 31.736063816334607, 77.84077145749943, 48.606017856178234, 72.95443002203646 " fill="none" id="curve_24" stroke="#000000" stroke-linecap="round" stroke-linejoin="round" stroke-width="2.5263869278328035"/>
  <path d="M 74.31508437239675, 32.97548753566179 Q 75.44631712248973, 32.715493860534266, 76.35327785554506, 32.00808266224348 " fill="none" id="curve_25" stroke="#000000" stroke-linecap="round" stroke-linejoin="round" stroke-width="2.8980618596897108"/>
  <path d="M 54.663204851428816, 37.669088210902885 Q 52.81275391749775, 40.144089596687444, 44.10951133211118, 41.55828582776079 " fill="none" id="curve_53" stroke="#000000" stroke-linecap="round" stroke-linejoin="round" stroke-width="2.223681762288269"/>
  <path d="M 44.10951133211118, 41.55828582776079 Q 44.45577429178367, 39.049554892710375, 45.39631554929095, 37.01949775046758 " fill="none" id="curve_53" stroke="#000000" stroke-linecap="round" stroke-linejoin="round" stroke-width="2.6398251051007056"/>
  <path d="M 66.59050285503727, 59.11193592396737 Q 65.96469879236497, 59.46989381113484, 65.16258803187156, 60.28724167760952 " fill="none" id="curve_54" stroke="#000000" stroke-linecap="round" stroke-linejoin="round" stroke-width="3.072967165259572"/>
  <path d="M 73.30821406603592, 32.25265380183267 Q 72.49735354575954, 40.70582481131483, 69.80452272131639, 46.170324616926194 " fill="none" id="curve_56" stroke="#000000" stroke-linecap="round" stroke-linejoin="round" stroke-width="2.402891086338454"/>
  <path d="M 24.77222931129822, 81.02388438935255 Q 28.761132295870933, 78.28880567629774, 39.777898135497246, 75.83816013735957 " fill="none" id="curve_61" stroke="#000000" stroke-linecap="round" stroke-linejoin="round" stroke-width="2.6360788128389023"/>
  <path d="M 51.29852780844885, 95.32723016484447 Q 56.468885993944006, 87.59225735139664, 63.72123121842122, 70.32050554053325 " fill="none" id="curve_63" stroke="#000000" stroke-linecap="round" stroke-linejoin="round" stroke-width="2.856224509323473"/>
  <path d="M 42.65896266150938, 121.97848178285909 Q 44.55139818953144, 109.35348508819206, 52.238485230086795, 98.26666278267685 " fill="none" id="curve_68" stroke="#000000" stroke-linecap="round" stroke-linejoin="round" stroke-width="2.2761581820666583"/>
  <path d="M 52.238485230086795, 98.26666278267685 Q 56.29741166680543, 86.65852837133832, 65.06681075850031, 63.87203920248837 " fill="none" id="curve_68" stroke="#000000" stroke-linecap="round" stroke-linejoin="round" stroke-width="2.6062576076426316"/>
  <path d="M 67.13856013949088, 59.729188266453285 Q 66.81488213635735, 59.231558719799324, 66.04890924994434, 58.35325827952388 " fill="none" id="curve_70" stroke="#000000" stroke-linecap="round" stroke-linejoin="round" stroke-width="3.7641977383318066"/>
  <path d="M 54.935007095336914, 89.59790897369385 Q 55.68592253531464, 79.7516105279511, 61.46256105828297, 73.70980222749404 " fill="none" id="curve_84" stroke="#000000" stroke-linecap="round" stroke-linejoin="round" stroke-width="2.9099521729013835"/>
  <path d="M 51.329692405682295, 70.86618843586132 Q 50.97900776398332, 71.8486388176628, 50.25206768799315, 73.84955630045195 " fill="none" id="curve_164" stroke="#000000" stroke-linecap="round" stroke-linejoin="round" stroke-width="3.076663617245521"/>
</svg>
