<?xml version="1.0" ?>
<svg height="140" width="140" xmlns="http://www.w3.org/2000/svg">
  <path d="M 50.15477524375576, 118.27487767400635 Q 52.947546759639614, 116.46912144778739, 53.961900567845824, 108.11055820169555 " fill="none" id="curve_2" stroke="#000000" stroke-linecap="round" stroke-linejoin="round" stroke-width="5.556890327878933"/>
  <path d="M 53.961900567845824, 108.11055820169555 Q 54.27783690021602, 102.0421972406824, 54.640044988949995, 83.19865958617129 " fill="none" id="curve_2" stroke="#000000" stroke-linecap="round" stroke-linejoin="round" stroke-width="6.03593673893045"/>
  <path d="M 54.640044988949995, 83.19865958617129 Q 54.40111560587168, 77.6589342993941, 54.15944592385665, 64.14202345500064 " fill="none" id="curve_2" stroke="#000000" stroke-linecap="round" stroke-linejoin="round" stroke-width="5.071326942105343"/>
  <path d="M 54.15944592385665, 64.14202345500064 Q 54.36604227004545, 42.56532479406354, 56.625261901769754, 30.393379332110854 " fill="none" id="curve_2" stroke="#000000" stroke-linecap="round" stroke-linejoin="round" stroke-width="5.532965917918317"/>
  <path d="M 56.625261901769754, 30.393379332110854 Q 60.879424855739536, 23.977774585667998, 65.66017705005777, 14.971820724966062 " fill="none" id="curve_2" stroke="#000000" stroke-linecap="round" stroke-linejoin="round" stroke-width="5.089077000598177"/>
  <path d="M 65.66017705005777, 14.971820724966062 Q 60.59036117412536, 10.818601450806394, 29.130101075503703, 6.523878831699394 " fill="none" id="curve_2" stroke="#000000" stroke-linecap="round" stroke-linejoin="round" stroke-width="5.737327039172146"/>
  <path d="M 29.130101075503703, 6.523878831699394 Q 21.70127237180459, 5.513356983742162, 15.540343540929896, 3.624003641470648 " fill="none" id="curve_2" stroke="#000000" stroke-linecap="round" stroke-linejoin="round" stroke-width="6.008093113416593"/>
  <path d="M 36.60730323593417, 9.025777084407714 Q 57.23795585431974, 9.44101478404782, 64.51136300449954, 11.331385165864711 " fill="none" id="curve_3" stroke="#000000" stroke-linecap="round" stroke-linejoin="round" stroke-width="2.8978311525957703"/>
  <path d="M 50.13628455385907, 62.75275299980939 Q 42.94142021964778, 62.86355733133374, 36.170942976155835, 63.07885532409163 " fill="none" id="curve_5" stroke="#000000" stroke-linecap="round" stroke-linejoin="round" stroke-width="4.559433034224615"/>
  <path d="M 56.434598211562886, 64.95466700555825 Q 62.95125816689802, 66.68710554159652, 68.8495847190221, 68.53668747046218 " fill="none" id="curve_6" stroke="#000000" stroke-linecap="round" stroke-linejoin="round" stroke-width="4.9881770538427315"/>
  <path d="M 68.8495847190221, 68.53668747046218 Q 61.49730310919256, 66.11309397889505, 48.0919666881442, 62.864452260966374 " fill="none" id="curve_6" stroke="#000000" stroke-linecap="round" stroke-linejoin="round" stroke-width="3.1435431177354913"/>
  <path d="M 48.0919666881442, 62.864452260966374 Q 46.682585525987925, 61.52065428321531, 42.45903978094815, 60.637741863131495 " fill="none" id="curve_6" stroke="#000000" stroke-linecap="round" stroke-linejoin="round" stroke-width="3.484118674417709"/>
  <path d="M 63.00737127108092, 18.366969457078078 Q 59.56606436693291, 20.72968601322397, 57.45704225336182, 26.33016941136293 " fill="none" id="curve_11" stroke="#000000" stroke-linecap="round" stroke-linejoin="round" stroke-width="3.523931187280859"/>
  <path d="M 41.39746956184257, 63.8696264847807 Q 50.179887971450505, 64.10747704557639, 52.17188447406704, 66.51747061427409 " fill="none" id="curve_12" stroke="#000000" stroke-linecap="round" stroke-linejoin="round" stroke-width="2.7457422663620856"/>
  <path d="M 52.17188447406704, 66.51747061427409 Q 52.58775048172334, 76.91619525454836, 53.59957518831459, 82.0206265700879 " fill="none" id="curve_12" stroke="#000000" stroke-linecap="round" stroke-linejoin="round" stroke-width="3.086849084728697"/>
  <path d="M 36.947967979722506, 63.72255949936307 Q 36.1407613476866, 63.67443478597008, 35.4140810512217, 63.58501264787629 " fill="none" id="curve_13" stroke="#000000" stroke-linecap="round" stroke-linejoin="round" stroke-width="4.039000774411912"/>
  <path d="M 39.834083963308515, 8.868475038172356 Q 35.6030713701239, 8.252851119334824, 31.48211399190452, 6.3821059624675325 " fill="none" id="curve_29" stroke="#000000" stroke-linecap="round" stroke-linejoin="round" stroke-width="3.191574768967722"/>
  <path d="M 53.77120883365314, 52.461121227588144 Q 54.00034568127035, 52.49097848293788, 54.26309252617478, 52.59486773287583 " fill="none" id="curve_40" stroke="#000000" stroke-linecap="round" stroke-linejoin="round" stroke-width="3.0632253562480236"/>
  <path d="M 34.28353989209051, 9.707448094627182 Q 34.088568575393154, 8.972716793965017, 33.59592216965712, 8.26713428117894 " fill="none" id="curve_55" stroke="#000000" stroke-linecap="round" stroke-linejoin="round" stroke-width="3.4269397936413677"/>
  <path d="M 55.015229760032554, 51.10883595219736 Q 53.89481157519473, 57.205171818836085, 51.096258623270806, 63.675801744186984 " fill="none" id="curve_65" stroke="#000000" stroke-linecap="round" stroke-linejoin="round" stroke-width="2.9039140338733476"/>
  <path d="M 54.19605391593945, 9.381636818888294 Q 52.790142182423786, 8.921775585978692, 48.515739661320765, 8.49564681194746 " fill="none" id="curve_69" stroke="#000000" stroke-linecap="round" stroke-linejoin="round" stroke-width="3.5924560225279105"/>
  <path d="M 63.82085727070538, 65.25323507456955 Q 61.41499566013974, 64.66043865304495, 55.44513782635209, 63.984175057084876 " fill="none" id="curve_72" stroke="#000000" stroke-linecap="round" stroke-linejoin="round" stroke-width="3.09944447242669"/>
  <path d="M 54.19137288177368, 99.49089162118777 Q 54.423348974530676, 93.1040153401304, 55.200248833534786, 89.12875521003198 " fill="none" id="curve_73" stroke="#000000" stroke-linecap="round" stroke-linejoin="round" stroke-width="3.398784681356928"/>
  <path d="M 53.28910705772008, 91.4789719322942 Q 54.14883425547903, 95.387411702136, 54.861738936785244, 107.17438549207365 " fill="none" id="curve_79" stroke="#000000" stroke-linecap="round" stroke-linejoin="round" stroke-width="2.5023399492980083"/>
  <path d="M 15.201048460974214, 2.823932626844698 Q 33.163907078401195, 5.5826803329793275, 50.59726602749583, 10.407520818063805 " fill="none" id="curve_86" stroke="#000000" stroke-linecap="round" stroke-linejoin="round" stroke-width="3.003539252917558"/>
  <path d="M 16.413036355367865, 3.471418682519116 Q 15.215802920463211, 3.199498452275668, 13.22564574864318, 2.7756920206104203 " fill="none" id="curve_91" stroke="#000000" stroke-linecap="round" stroke-linejoin="round" stroke-width="2.9219544073930273"/>
  <path d="M 55.94292124867659, 55.127961473577166 Q 55.09628731386324, 52.53406714544168, 52.053110479153446, 51.16351266755769 " fill="none" id="curve_98" stroke="#000000" stroke-linecap="round" stroke-linejoin="round" stroke-width="4.3452600904020455"/>
  <path d="M 50.01029376241791, 10.741234869000591 Q 48.65169655676386, 10.390969266048273, 46.39995466151421, 9.901442239320174 " fill="none" id="curve_100" stroke="#000000" stroke-linecap="round" stroke-linejoin="round" stroke-width="3.9392795988402267"/>
  <path d="M 54.49850435795257, 102.00543992475303 Q 53.89132873896207, 97.55916389226894, 52.426708331157116, 93.39920797540177 " fill="none" id="curve_103" stroke="#000000" stroke-linecap="round" stroke-linejoin="round" stroke-width="3.7205399351181705"/>
  <path d="M 55.226710261366634, 70.99444175626263 Q 56.160229810593236, 67.04715766567182, 59.255692107915195, 64.65922771162622 " fill="none" id="curve_118" stroke="#000000" stroke-linecap="round" stroke-linejoin="round" stroke-width="2.4319705484277967"/>
  <path d="M 55.841687386711726, 103.24960548787276 Q 55.921400340552964, 105.16698980326328, 56.267741246802785, 106.14889054531827 " fill="none" id="curve_126" stroke="#000000" stroke-linecap="round" stroke-linejoin="round" stroke-width="3.723049602564582"/>
  <path d="M 64.52875434540678, 18.8230503491002 Q 64.07879639074508, 18.416805842739194, 63.23915202958878, 17.786938134356195 " fill="none" id="curve_175" stroke="#000000" stroke-linecap="round" stroke-linejoin="round" stroke-width="3.747728081349896"/>
  <path d="M 61.13504589932207, 19.392159385328426 Q 62.257593978861564, 18.090454325401865, 64.64038463986863, 16.7690674959011 " fill="none" id="curve_192" stroke="#000000" stroke-linecap="round" stroke-linejoin="round" stroke-width="3.112378456535025"/>
</svg>
