<?xml version="1.0" ?>
<svg height="140" width="140" xmlns="http://www.w3.org/2000/svg">
  <path d="M 72.46362686157227, 94.05000507831573 Q 72.84062940539354, 92.61119957863713, 77.16631971445105, 92.36754552793465 " fill="none" id="curve_1" stroke="#000000" stroke-linecap="round" stroke-linejoin="round" stroke-width="3.50758061198982"/>
  <path d="M 77.16631971445105, 92.36754552793465 Q 69.44677639344353, 93.188900727213, 61.164067293490355, 95.48349974868869 " fill="none" id="curve_1" stroke="#000000" stroke-linecap="round" stroke-linejoin="round" stroke-width="5.069151771664857"/>
  <path d="M 61.164067293490355, 95.48349974868869 Q 57.138217398191784, 96.77963783277666, 49.43530689064307, 97.96520853812461 " fill="none" id="curve_1" stroke="#000000" stroke-linecap="round" stroke-linejoin="round" stroke-width="11.071530802476365"/>
  <path d="M 49.43530689064307, 97.96520853812461 Q 50.30991804628173, 102.22765521315203, 50.949694933327514, 112.41492252830932 " fill="none" id="curve_1" stroke="#000000" stroke-linecap="round" stroke-linejoin="round" stroke-width="5.201358723129305"/>
  <path d="M 50.949694933327514, 112.41492252830932 Q 50.35081556857885, 124.28552198671446, 48.24428030656568, 128.18634644488665 " fill="none" id="curve_1" stroke="#000000" stroke-linecap="round" stroke-linejoin="round" stroke-width="6.37975625955265"/>
  <path d="M 48.843353191223216, 99.13050449800976 Q 38.51488362516795, 99.3888947565477, 27.739000497932793, 99.77273930016376 " fill="none" id="curve_2" stroke="#000000" stroke-linecap="round" stroke-linejoin="round" stroke-width="4.795569318480033"/>
  <path d="M 54.38200817838635, 93.27256729691246 Q 54.7410837720356, 84.46571358244083, 55.384854149275704, 58.96948560440621 " fill="none" id="curve_3" stroke="#000000" stroke-linecap="round" stroke-linejoin="round" stroke-width="7.295807112895377"/>
  <path d="M 55.384854149275704, 58.96948560440621 Q 54.393499279780414, 39.275109895770896, 36.51876323262046, 33.742931879698844 " fill="none" id="curve_3" stroke="#000000" stroke-linecap="round" stroke-linejoin="round" stroke-width="5.656019742335825"/>
  <path d="M 36.51876323262046, 33.742931879698844 Q 31.020996846678546, 33.73897573452157, 29.079141276322556, 33.71774956508807 " fill="none" id="curve_3" stroke="#000000" stroke-linecap="round" stroke-linejoin="round" stroke-width="5.205938990912762"/>
  <path d="M 53.546713880592165, 82.0739613729244 Q 53.39991728574072, 114.26239843191922, 49.938018331151746, 118.73902559446485 " fill="none" id="curve_4" stroke="#000000" stroke-linecap="round" stroke-linejoin="round" stroke-width="2.838419286609153"/>
  <path d="M 49.938018331151746, 118.73902559446485 Q 52.541505933929194, 114.33162309630436, 54.19681158525144, 100.58350754114669 " fill="none" id="curve_4" stroke="#000000" stroke-linecap="round" stroke-linejoin="round" stroke-width="3.625523866647679"/>
  <path d="M 52.77118181659822, 85.97606943870126 Q 54.07858408029284, 80.89604111329506, 55.51453542315879, 74.0383350407197 " fill="none" id="curve_5" stroke="#000000" stroke-linecap="round" stroke-linejoin="round" stroke-width="5.036589672058196"/>
  <path d="M 46.42375695959461, 37.52103164226758 Q 45.04454570410087, 33.70604155837932, 34.1035668892707, 32.10035527379359 " fill="none" id="curve_6" stroke="#000000" stroke-linecap="round" stroke-linejoin="round" stroke-width="2.7578921227537823"/>
  <path d="M 51.814120939339084, 51.45783788104218 Q 53.251154777471164, 62.03350754265963, 55.23669706353526, 71.2656671191049 " fill="none" id="curve_7" stroke="#000000" stroke-linecap="round" stroke-linejoin="round" stroke-width="3.3064251259058954"/>
  <path d="M 55.23669706353526, 71.2656671191049 Q 54.85268561705517, 76.44528168755814, 54.49536274614272, 86.62856002847775 " fill="none" id="curve_7" stroke="#000000" stroke-linecap="round" stroke-linejoin="round" stroke-width="3.362023778472204"/>
  <path d="M 54.473702807102846, 66.55237974556235 Q 54.601800699763615, 73.90354476242113, 54.720893494312996, 87.16427915014265 " fill="none" id="curve_8" stroke="#000000" stroke-linecap="round" stroke-linejoin="round" stroke-width="3.8851644139863044"/>
  <path d="M 52.83330920215816, 74.30926390498722 Q 55.19443839518179, 74.64815352230512, 56.42298565199467, 76.72544211134927 " fill="none" id="curve_9" stroke="#000000" stroke-linecap="round" stroke-linejoin="round" stroke-width="4.515087435971594"/>
  <path d="M 49.95807352964765, 123.92595431658921 Q 50.456295315792346, 117.80634194943819, 51.61191419733046, 112.2718620923327 " fill="none" id="curve_10" stroke="#000000" stroke-linecap="round" stroke-linejoin="round" stroke-width="4.849358111498836"/>
  <path d="M 51.61191419733046, 112.2718620923327 Q 50.24600290678029, 119.5813314118023, 47.88300042272336, 126.862378420048 " fill="none" id="curve_10" stroke="#000000" stroke-linecap="round" stroke-linejoin="round" stroke-width="3.8227772232454136"/>
  <path d="M 34.53118032508358, 98.29076746126103 Q 47.03336702520177, 98.20295421747394, 51.21944036428135, 97.61787720490295 " fill="none" id="curve_12" stroke="#000000" stroke-linecap="round" stroke-linejoin="round" stroke-width="2.9395885318906907"/>
  <path d="M 52.59838940383474, 88.45190942633585 Q 52.8067851760777, 89.53693358533178, 53.00996794887759, 91.88931002379245 " fill="none" id="curve_13" stroke="#000000" stroke-linecap="round" stroke-linejoin="round" stroke-width="4.849569569700588"/>
  <path d="M 55.974372764222785, 73.13023110017669 Q 55.221988530800836, 76.26201714263564, 54.39381885793884, 82.53164512391648 " fill="none" id="curve_14" stroke="#000000" stroke-linecap="round" stroke-linejoin="round" stroke-width="4.772139137135218"/>
  <path d="M 53.73230673802505, 74.33128691807087 Q 54.22079127249457, 74.27328887800581, 55.046393507093626, 74.10135894364763 " fill="none" id="curve_17" stroke="#000000" stroke-linecap="round" stroke-linejoin="round" stroke-width="2.7570696398184085"/>
  <path d="M 48.25889355260933, 128.03450588975858 Q 49.70098854294724, 118.07207741333424, 53.762975350894415, 108.32966102706003 " fill="none" id="curve_20" stroke="#000000" stroke-linecap="round" stroke-linejoin="round" stroke-width="3.3651955533646802"/>
  <path d="M 48.81336688325083, 126.07351023952728 Q 49.70463124735153, 118.87758123866591, 51.91901305479676, 112.94911730279951 " fill="none" id="curve_21" stroke="#000000" stroke-linecap="round" stroke-linejoin="round" stroke-width="4.279853106052987"/>
  <path d="M 47.418477361862585, 117.48406517067413 Q 48.42072898854043, 120.63990337316686, 50.136407413014425, 125.2870236978338 " fill="none" id="curve_22" stroke="#000000" stroke-linecap="round" stroke-linejoin="round" stroke-width="3.5246985132521136"/>
  <path d="M 54.51175868588634, 86.07016503755929 Q 53.87414539479015, 86.28769186712572, 50.957296268904706, 86.55864653519012 " fill="none" id="curve_23" stroke="#000000" stroke-linecap="round" stroke-linejoin="round" stroke-width="2.4758436052275083"/>
  <path d="M 56.028089783700494, 78.49814756513953 Q 56.87999043286207, 78.42323424986805, 57.05472598484863, 77.26162962012052 " fill="none" id="curve_24" stroke="#000000" stroke-linecap="round" stroke-linejoin="round" stroke-width="3.0096230232206267"/>
  <path d="M 53.194252862414665, 72.35630955039481 Q 53.19048709983553, 81.68988027288674, 53.174635648678596, 86.35621961544105 " fill="none" id="curve_25" stroke="#000000" stroke-linecap="round" stroke-linejoin="round" stroke-width="2.1669472289024796"/>
  <path d="M 45.23052418330052, 40.18197361647241 Q 48.74424091159066, 45.92513861915443, 53.74461115212219, 50.98344373587143 " fill="none" id="curve_27" stroke="#000000" stroke-linecap="round" stroke-linejoin="round" stroke-width="1.9270461290000322"/>
  <path d="M 51.868578032695254, 66.53892288091382 Q 52.74629628988319, 67.02666676066181, 53.56888760638154, 68.47900944720776 " fill="none" id="curve_28" stroke="#000000" stroke-linecap="round" stroke-linejoin="round" stroke-width="2.7382050614306572"/>
  <path d="M 48.245663597634206, 128.53057709071277 Q 51.83595376413445, 124.78518156806733, 54.159300901408706, 112.51481610970914 " fill="none" id="curve_36" stroke="#000000" stroke-linecap="round" stroke-linejoin="round" stroke-width="2.7926065285600417"/>
  <path d="M 59.163068354249845, 97.55492919427388 Q 62.30961019739409, 96.3101649216658, 68.19517440321621, 95.00637154574024 " fill="none" id="curve_51" stroke="#000000" stroke-linecap="round" stroke-linejoin="round" stroke-width="2.579025163941608"/>
  <path d="M 53.866025678233896, 107.9980251422881 Q 53.75770478277496, 103.95682663115446, 53.24337905408557, 102.39730366425343 " fill="none" id="curve_67" stroke="#000000" stroke-linecap="round" stroke-linejoin="round" stroke-width="3.2822791892376895"/>
  <path d="M 36.154934104816775, 99.10426785783157 Q 35.278359360465544, 99.32444722621052, 34.055031396518956, 99.72857022967345 " fill="none" id="curve_71" stroke="#000000" stroke-linecap="round" stroke-linejoin="round" stroke-width="4.111149455848281"/>
  <path d="M 34.195714442240686, 32.25432674706688 Q 33.000318089205294, 32.3652338746249, 31.690767063700964, 32.596113992537376 " fill="none" id="curve_77" stroke="#000000" stroke-linecap="round" stroke-linejoin="round" stroke-width="4.320830517942585"/>
  <path d="M 34.45278844780126, 99.94885865604601 Q 34.59064038909443, 99.20824701611281, 34.99018825080373, 98.50017807224211 " fill="none" id="curve_85" stroke="#000000" stroke-linecap="round" stroke-linejoin="round" stroke-width="3.667042506130417"/>
  <path d="M 53.99983466073944, 93.17255232576288 Q 54.152187901171565, 88.73260305659271, 54.87491520117382, 86.85784111318468 " fill="none" id="curve_114" stroke="#000000" stroke-linecap="round" stroke-linejoin="round" stroke-width="3.7748693051667597"/>
  <path d="M 51.5093347121001, 93.37128185761867 Q 52.30934538290924, 90.96601400478022, 54.55893065996957, 88.69591076392692 " fill="none" id="curve_129" stroke="#000000" stroke-linecap="round" stroke-linejoin="round" stroke-width="3.879071592487809"/>
  <path d="M 44.568329359016374, 98.49454932116433 Q 44.21547766482905, 97.79177143865893, 43.06368373552638, 97.32019624912554 " fill="none" id="curve_145" stroke="#000000" stroke-linecap="round" stroke-linejoin="round" stroke-width="3.9025498156316325"/>
  <path d="M 52.24112129211426, 83.79441452026367 Q 55.15904427055865, 85.74855424731673, 56.45459287514589, 94.9044005196755 " fill="none" id="curve_159" stroke="#000000" stroke-linecap="round" stroke-linejoin="round" stroke-width="3.468510608199318"/>
  <path d="M 34.99415259769012, 100.55900242052121 Q 37.983972110015046, 98.59123341737173, 46.83914072675911, 95.36606519009203 " fill="none" id="curve_187" stroke="#000000" stroke-linecap="round" stroke-linejoin="round" stroke-width="2.0470915341671305"/>
</svg>
