<?xml version="1.0" ?>
<svg height="140" width="140" xmlns="http://www.w3.org/2000/svg">
  <path d="M 47.8350944519043, 51.819496154785156 Q 47.86707524827535, 51.94102761816934, 48.28456330886104, 51.98675245015239 " fill="none" id="curve_1" stroke="#000000" stroke-linecap="round" stroke-linejoin="round" stroke-width="6.931023652805654"/>
  <path d="M 48.28456330886104, 51.98675245015239 Q 48.39916634590988, 60.681078963236644, 48.791860235850606, 65.13979468492343 " fill="none" id="curve_1" stroke="#000000" stroke-linecap="round" stroke-linejoin="round" stroke-width="5.638904933343879"/>
  <path d="M 48.791860235850606, 65.13979468492343 Q 46.47865821113309, 76.79635806868895, 42.34593955287539, 86.1983302953646 " fill="none" id="curve_1" stroke="#000000" stroke-linecap="round" stroke-linejoin="round" stroke-width="5.243721069359019"/>
  <path d="M 42.34593955287539, 86.1983302953646 Q 40.55966510057499, 97.4328677121604, 36.229941966415495, 103.48346622167858 " fill="none" id="curve_1" stroke="#000000" stroke-linecap="round" stroke-linejoin="round" stroke-width="3.415550974840294"/>
  <path d="M 30.21655239962851, 84.57516815896673 Q 33.92726621487793, 86.30444839475577, 51.11988418903423, 86.88844486380941 " fill="none" id="curve_2" stroke="#000000" stroke-linecap="round" stroke-linejoin="round" stroke-width="4.714132264451995"/>
  <path d="M 50.3623292148539, 63.04572961434386 Q 49.51170826444182, 53.51043037875818, 45.03229572002647, 49.21766844563733 " fill="none" id="curve_3" stroke="#000000" stroke-linecap="round" stroke-linejoin="round" stroke-width="5.089706857184901"/>
  <path d="M 45.03229572002647, 49.21766844563733 Q 25.037385148604933, 49.29086302359788, 18.28601129293205, 50.02665480222339 " fill="none" id="curve_3" stroke="#000000" stroke-linecap="round" stroke-linejoin="round" stroke-width="5.217998126832194"/>
  <path d="M 18.28601129293205, 50.02665480222339 Q 17.253847227287658, 48.47726450929324, 14.196717238921764, 47.81210035419892 " fill="none" id="curve_3" stroke="#000000" stroke-linecap="round" stroke-linejoin="round" stroke-width="4.750468260932879"/>
  <path d="M 43.7632614076517, 48.775567453693235 Q 37.06714037855675, 48.61057552104389, 24.74420458123769, 48.40595889775214 " fill="none" id="curve_4" stroke="#000000" stroke-linecap="round" stroke-linejoin="round" stroke-width="3.0819886341929696"/>
  <path d="M 26.968128538288735, 84.74292353521933 Q 26.418225699954302, 85.14207645141481, 25.84247695382958, 85.9408091459934 " fill="none" id="curve_5" stroke="#000000" stroke-linecap="round" stroke-linejoin="round" stroke-width="2.652090764632912"/>
  <path d="M 51.034059070109095, 56.97408807847128 Q 50.78802803628789, 57.998434399546156, 50.45057440663152, 59.92408304685232 " fill="none" id="curve_6" stroke="#000000" stroke-linecap="round" stroke-linejoin="round" stroke-width="3.66660021906983"/>
  <path d="M 35.94061739149677, 84.66925789841571 Q 33.49124271518808, 84.07389529290683, 30.02696352256202, 83.00824620627114 " fill="none" id="curve_7" stroke="#000000" stroke-linecap="round" stroke-linejoin="round" stroke-width="2.9259946491792554"/>
  <path d="M 51.73657212013774, 54.886673084510164 Q 51.00276120150496, 58.36301314783213, 48.45139139595206, 65.22045243518737 " fill="none" id="curve_22" stroke="#000000" stroke-linecap="round" stroke-linejoin="round" stroke-width="1.633355545392595"/>
  <path d="M 48.45139139595206, 65.22045243518737 Q 45.33539085666738, 71.27647437370236, 42.22175633773978, 81.93941850542384 " fill="none" id="curve_22" stroke="#000000" stroke-linecap="round" stroke-linejoin="round" stroke-width="2.203034091803927"/>
  <path d="M 34.733030723249655, 105.38001335384854 Q 34.81874057642448, 105.96912585386579, 35.00846574742009, 106.47967121358353 " fill="none" id="curve_23" stroke="#000000" stroke-linecap="round" stroke-linejoin="round" stroke-width="2.1858266679525546"/>
  <path d="M 38.578259641305465, 85.23600432132966 Q 40.5991499030262, 85.57673831770546, 44.26867991163768, 86.04669781174171 " fill="none" id="curve_27" stroke="#000000" stroke-linecap="round" stroke-linejoin="round" stroke-width="2.706125045139007"/>
  <path d="M 88.78809322995103, 1.7622847509724622 Q 89.3330831480604, 1.6301260684888879, 90.01561900863116, 1.36370871689438 " fill="none" id="curve_55" stroke="#000000" stroke-linecap="round" stroke-linejoin="round" stroke-width="1.5346579717693327"/>
  <path d="M 44.67428062394473, 47.51228699155136 Q 40.88219278350671, 47.61680089429167, 29.300563530918375, 47.72657515436898 " fill="none" id="curve_74" stroke="#000000" stroke-linecap="round" stroke-linejoin="round" stroke-width="2.2587411083020155"/>
  <path d="M 34.74409975930595, 85.28985811812001 Q 35.81870607399992, 85.41476661280056, 37.23368216360943, 85.72550372909542 " fill="none" id="curve_92" stroke="#000000" stroke-linecap="round" stroke-linejoin="round" stroke-width="2.755524550084774"/>
  <path d="M 36.76888670582963, 84.74881237724472 Q 46.47409159501875, 85.55696828312168, 54.37539603346613, 86.84075663733366 " fill="none" id="curve_134" stroke="#000000" stroke-linecap="round" stroke-linejoin="round" stroke-width="2.0704884118610227"/>
  <path d="M 35.20094283319807, 86.22085494087568 Q 35.12815976395595, 86.74526081921543, 35.03993950852434, 87.56591251586026 " fill="none" id="curve_135" stroke="#000000" stroke-linecap="round" stroke-linejoin="round" stroke-width="2.8371580227170368"/>
  <path d="M 50.41528003692288, 59.30627362754874 Q 50.67440225133078, 60.15106492212511, 51.100178963216166, 61.23372044998925 " fill="none" id="curve_136" stroke="#000000" stroke-linecap="round" stroke-linejoin="round" stroke-width="2.9279204097408003"/>
</svg>
