<?xml version="1.0" ?>
<svg height="140" width="140" xmlns="http://www.w3.org/2000/svg">
  <path d="M 14.438543319702148, 42.718706130981445 Q 13.612863785537701, 42.28620480776292, 13.118392630531353, 40.363835544065466 " fill="none" id="curve_1" stroke="#000000" stroke-linecap="round" stroke-linejoin="round" stroke-width="4.815484158139892"/>
  <path d="M 13.118392630531353, 40.363835544065466 Q 14.135099737829359, 43.0681913595995, 34.543996029074144, 43.436566114560584 " fill="none" id="curve_1" stroke="#000000" stroke-linecap="round" stroke-linejoin="round" stroke-width="5.4003399777907735"/>
  <path d="M 34.543996029074144, 43.436566114560584 Q 45.23642158026034, 44.34959470812786, 57.136269209649335, 45.44724042385808 " fill="none" id="curve_1" stroke="#000000" stroke-linecap="round" stroke-linejoin="round" stroke-width="5.189211178035665"/>
  <path d="M 57.136269209649335, 45.44724042385808 Q 52.884594909756835, 53.80090538813992, 44.17994710351758, 76.87290620872785 " fill="none" id="curve_1" stroke="#000000" stroke-linecap="round" stroke-linejoin="round" stroke-width="6.005843468047733"/>
  <path d="M 44.17994710351758, 76.87290620872785 Q 42.95987874904825, 94.2602862191399, 34.22280609145592, 113.56390363936355 " fill="none" id="curve_1" stroke="#000000" stroke-linecap="round" stroke-linejoin="round" stroke-width="5.7505414396604735"/>
  <path d="M 34.22280609145592, 113.56390363936355 Q 34.03311178274236, 118.67075475754064, 32.77255595055882, 119.78799455786181 " fill="none" id="curve_1" stroke="#000000" stroke-linecap="round" stroke-linejoin="round" stroke-width="6.723207754220569"/>
  <path d="M 32.77255595055882, 119.78799455786181 Q 36.27391890100426, 110.11195804114365, 39.84939131247356, 91.96498221811098 " fill="none" id="curve_1" stroke="#000000" stroke-linecap="round" stroke-linejoin="round" stroke-width="3.130946151424901"/>
  <path d="M 39.84939131247356, 91.96498221811098 Q 44.05526776474319, 75.93893067858025, 51.69278989747403, 52.91728450956356 " fill="none" id="curve_1" stroke="#000000" stroke-linecap="round" stroke-linejoin="round" stroke-width="4.049094627969393"/>
  <path d="M 51.69278989747403, 52.91728450956356 Q 53.76495394737903, 50.58410142646834, 55.12316775873587, 44.232475037324 " fill="none" id="curve_1" stroke="#000000" stroke-linecap="round" stroke-linejoin="round" stroke-width="3.564385262213138"/>
  <path d="M 44.940380292838086, 42.016777896128204 Q 44.37627031523284, 42.54202514156364, 43.187742998962776, 43.50217710179279 " fill="none" id="curve_16" stroke="#000000" stroke-linecap="round" stroke-linejoin="round" stroke-width="3.075094508517377"/>
  <path d="M 27.48105811494354, 42.09196070019374 Q 27.985552666306706, 42.05669412143456, 28.580466191584385, 41.99348120339018 " fill="none" id="curve_17" stroke="#000000" stroke-linecap="round" stroke-linejoin="round" stroke-width="4.050681737855321"/>
  <path d="M 16.559366183445803, 41.01830631117533 Q 16.248303294768668, 40.90033873079069, 15.709013485266047, 40.716135387433454 " fill="none" id="curve_18" stroke="#000000" stroke-linecap="round" stroke-linejoin="round" stroke-width="3.744268613953668"/>
  <path d="M 52.72395367540109, 59.03435442173863 Q 46.23828965805035, 62.90197471973997, 43.077205271511914, 78.57613208852064 " fill="none" id="curve_25" stroke="#000000" stroke-linecap="round" stroke-linejoin="round" stroke-width="2.6862023202914904"/>
  <path d="M 25.847079977140538, 43.56419844007759 Q 21.941697359450924, 43.43167144476241, 16.733003353455175, 43.1698196571977 " fill="none" id="curve_31" stroke="#000000" stroke-linecap="round" stroke-linejoin="round" stroke-width="4.138556509482181"/>
  <path d="M 41.244119798016825, 78.94782212187222 Q 41.5038373006108, 79.91146500379158, 41.982971830716025, 80.9691722896777 " fill="none" id="curve_35" stroke="#000000" stroke-linecap="round" stroke-linejoin="round" stroke-width="3.329088345149934"/>
  <path d="M 30.924366237939047, 42.242684461454374 Q 29.67469727440839, 41.80589945938989, 20.7259043253778, 41.62940480278062 " fill="none" id="curve_45" stroke="#000000" stroke-linecap="round" stroke-linejoin="round" stroke-width="2.547255054252873"/>
  <path d="M 18.38482491770098, 41.06203727572147 Q 21.384564358474833, 43.099422482470985, 24.609177868319843, 45.75101088579073 " fill="none" id="curve_87" stroke="#000000" stroke-linecap="round" stroke-linejoin="round" stroke-width="2.2901696204051416"/>
</svg>
