<?xml version="1.0" ?>
<svg height="140" width="140" xmlns="http://www.w3.org/2000/svg">
  <path d="M 12.487956495880624, 39.70160318354749 Q 13.77242197993125, 40.02884973319741, 20.250832297807214, 40.26537417432096 " fill="none" id="curve_2" stroke="#000000" stroke-linecap="round" stroke-linejoin="round" stroke-width="5.934423709047615"/>
  <path d="M 20.250832297807214, 40.26537417432096 Q 34.49174936264356, 39.476581062273624, 48.18750779891726, 36.57761603265525 " fill="none" id="curve_2" stroke="#000000" stroke-linecap="round" stroke-linejoin="round" stroke-width="6.2356888422519905"/>
  <path d="M 48.18750779891726, 36.57761603265525 Q 57.117603417786434, 36.920659488763775, 60.08649564479539, 38.49399270365589 " fill="none" id="curve_2" stroke="#000000" stroke-linecap="round" stroke-linejoin="round" stroke-width="6.683970243149845"/>
  <path d="M 60.08649564479539, 38.49399270365589 Q 59.00906672985505, 54.87937680523269, 52.674856580815245, 74.95064216766244 " fill="none" id="curve_2" stroke="#000000" stroke-linecap="round" stroke-linejoin="round" stroke-width="6.625140969010981"/>
  <path d="M 52.674856580815245, 74.95064216766244 Q 51.117642313509656, 91.12496221837657, 43.52334068638646, 98.81390237088016 " fill="none" id="curve_2" stroke="#000000" stroke-linecap="round" stroke-linejoin="round" stroke-width="4.812939833404538"/>
  <path d="M 52.406041788995154, 81.92503966662144 Q 43.782523780427134, 81.85573362529705, 29.865659127052304, 81.79665282135376 " fill="none" id="curve_3" stroke="#000000" stroke-linecap="round" stroke-linejoin="round" stroke-width="5.061437527131355"/>
  <path d="M 57.66821513049812, 81.33619591911965 Q 55.204960230828874, 81.05419054530451, 51.55003100197013, 80.65625052301152 " fill="none" id="curve_4" stroke="#000000" stroke-linecap="round" stroke-linejoin="round" stroke-width="4.201181582308527"/>
  <path d="M 51.55003100197013, 80.65625052301152 Q 46.99796390030388, 84.52348309413738, 45.151132548791466, 97.19327848262022 " fill="none" id="curve_4" stroke="#000000" stroke-linecap="round" stroke-linejoin="round" stroke-width="4.175863839532738"/>
  <path d="M 52.92737823548558, 78.01901543100121 Q 53.711351578317945, 58.137240541818244, 58.78125511987375, 44.42072892531918 " fill="none" id="curve_5" stroke="#000000" stroke-linecap="round" stroke-linejoin="round" stroke-width="3.285995818175394"/>
  <path d="M 17.544041789213864, 41.850840236805745 Q 15.699672807028742, 41.20992695601075, 13.815575738220794, 40.23868638309589 " fill="none" id="curve_7" stroke="#000000" stroke-linecap="round" stroke-linejoin="round" stroke-width="5.6162130233347565"/>
  <path d="M 38.75963417757784, 80.21105789362132 Q 46.588646636777284, 80.44351675024299, 53.23667817760962, 80.9332829561315 " fill="none" id="curve_8" stroke="#000000" stroke-linecap="round" stroke-linejoin="round" stroke-width="3.116094284530865"/>
  <path d="M 58.881028756176775, 36.50242339464637 Q 58.42522932748213, 35.365239768091364, 55.486192380418686, 34.937762517346975 " fill="none" id="curve_10" stroke="#000000" stroke-linecap="round" stroke-linejoin="round" stroke-width="3.9792349634728135"/>
  <path d="M 42.311675357403814, 37.59685750452923 Q 35.68363437458756, 37.61268320387872, 29.80447976281748, 37.654965117999524 " fill="none" id="curve_12" stroke="#000000" stroke-linecap="round" stroke-linejoin="round" stroke-width="2.9512390568908122"/>
  <path d="M 31.4448916176272, 37.8920511703136 Q 35.617222263798105, 37.951731723546814, 42.694842696352055, 38.063099334395915 " fill="none" id="curve_18" stroke="#000000" stroke-linecap="round" stroke-linejoin="round" stroke-width="3.105597542388554"/>
  <path d="M 45.704894777019035, 39.26524209353556 Q 47.942682952023546, 39.205298906677825, 49.339103590560725, 38.99381917512712 " fill="none" id="curve_59" stroke="#000000" stroke-linecap="round" stroke-linejoin="round" stroke-width="2.5845193184148836"/>
  <path d="M 54.198479150436, 66.43000623316784 Q 53.60392918627088, 68.87872198836556, 53.041819867343946, 73.91057369062531 " fill="none" id="curve_60" stroke="#000000" stroke-linecap="round" stroke-linejoin="round" stroke-width="4.139964805645436"/>
  <path d="M 53.041819867343946, 73.91057369062531 Q 53.04077382614938, 69.17854858738207, 53.03598821607611, 67.11415410988822 " fill="none" id="curve_60" stroke="#000000" stroke-linecap="round" stroke-linejoin="round" stroke-width="4.55233657381059"/>
  <path d="M 45.99323915583244, 97.55187634665978 Q 46.1338312117164, 97.556674473562, 46.28917646166664, 97.56459383645766 " fill="none" id="curve_77" stroke="#000000" stroke-linecap="round" stroke-linejoin="round" stroke-width="4.759347376442404"/>
  <path d="M 55.856256916837765, 73.71456368396696 Q 55.60169228260161, 71.67277086854124, 54.092770705599456, 70.77373851670896 " fill="none" id="curve_92" stroke="#000000" stroke-linecap="round" stroke-linejoin="round" stroke-width="3.387874765352625"/>
  <path d="M 9.966243322734954, 37.94035467342272 Q 12.38370503891149, 37.962652818020636, 17.230824644324176, 37.987191769290824 " fill="none" id="curve_107" stroke="#000000" stroke-linecap="round" stroke-linejoin="round" stroke-width="1.784184139073685"/>
  <path d="M 35.921299676167436, 35.76054229749477 Q 34.597576395076686, 36.79461183641899, 32.61500866901653, 38.23660179744652 " fill="none" id="curve_108" stroke="#000000" stroke-linecap="round" stroke-linejoin="round" stroke-width="3.10650249791999"/>
  <path d="M 43.31569745812551, 80.60712740162157 Q 41.49869266678469, 80.1682019009702, 36.94220206867247, 79.70921128136654 " fill="none" id="curve_139" stroke="#000000" stroke-linecap="round" stroke-linejoin="round" stroke-width="3.0600275936206143"/>
</svg>
