<?xml version="1.0" ?>
<svg height="140" width="140" xmlns="http://www.w3.org/2000/svg">
  <path d="M 61.92694067955017, 71.5435152053833 Q 59.826514672346036, 74.80175970102107, 58.33224762745431, 82.90507056600882 " fill="none" id="curve_1" stroke="#000000" stroke-linecap="round" stroke-linejoin="round" stroke-width="7.017135740607224"/>
  <path d="M 58.33224762745431, 82.90507056600882 Q 53.47282598212799, 85.5656832310364, 52.201022668802395, 106.84707809909845 " fill="none" id="curve_1" stroke="#000000" stroke-linecap="round" stroke-linejoin="round" stroke-width="3.594623350962765"/>
  <path d="M 52.73430393998129, 83.80808575395764 Q 45.79350214961539, 83.7296350164616, 43.75623715056489, 83.1889994959502 " fill="none" id="curve_2" stroke="#000000" stroke-linecap="round" stroke-linejoin="round" stroke-width="4.12379887158321"/>
  <path d="M 43.75623715056489, 83.1889994959502 Q 60.23683744745611, 84.18639648626613, 68.7400893667214, 86.52896838758294 " fill="none" id="curve_2" stroke="#000000" stroke-linecap="round" stroke-linejoin="round" stroke-width="3.8104724967599948"/>
  <path d="M 62.660863383181756, 70.03407757939888 Q 63.2192989300914, 66.48080709349281, 63.65816418582168, 59.37109561439674 " fill="none" id="curve_3" stroke="#000000" stroke-linecap="round" stroke-linejoin="round" stroke-width="5.730035777166748"/>
  <path d="M 63.65816418582168, 59.37109561439674 Q 62.65004382204108, 51.66102563912732, 42.43125110989109, 49.892104340019614 " fill="none" id="curve_3" stroke="#000000" stroke-linecap="round" stroke-linejoin="round" stroke-width="5.082836835634393"/>
  <path d="M 42.43125110989109, 49.892104340019614 Q 29.99056284648238, 50.08893005928439, 28.3504344591407, 52.68036938870108 " fill="none" id="curve_3" stroke="#000000" stroke-linecap="round" stroke-linejoin="round" stroke-width="4.33193358455797"/>
  <path d="M 62.827107486960095, 85.85661517495312 Q 53.60194046632778, 87.26896620487551, 51.00403457884546, 96.59874166211317 " fill="none" id="curve_5" stroke="#000000" stroke-linecap="round" stroke-linejoin="round" stroke-width="2.7178342619418756"/>
  <path d="M 51.00403457884546, 96.59874166211317 Q 51.94464098422244, 103.72264304181724, 53.73098895950021, 106.90511170801467 " fill="none" id="curve_5" stroke="#000000" stroke-linecap="round" stroke-linejoin="round" stroke-width="3.539939242792641"/>
  <path d="M 58.72851703098574, 72.11954639638114 Q 60.32936721179562, 71.78260541070655, 61.01786448025086, 70.27703834662422 " fill="none" id="curve_7" stroke="#000000" stroke-linecap="round" stroke-linejoin="round" stroke-width="3.0976516951303115"/>
  <path d="M 44.34920879652742, 49.5475923198655 Q 42.877812544477926, 48.958153542719586, 37.12105065994124, 48.661545843728845 " fill="none" id="curve_8" stroke="#000000" stroke-linecap="round" stroke-linejoin="round" stroke-width="3.1607192239227917"/>
  <path d="M 64.68591915962449, 86.10764954000828 Q 65.85574501196467, 86.89912639179359, 67.54260803729053, 88.04651746859824 " fill="none" id="curve_9" stroke="#000000" stroke-linecap="round" stroke-linejoin="round" stroke-width="2.978361285147603"/>
  <path d="M 60.637766678449225, 64.7683597970078 Q 62.092336363905964, 60.588787872572986, 63.9420319655231, 55.42813285621832 " fill="none" id="curve_10" stroke="#000000" stroke-linecap="round" stroke-linejoin="round" stroke-width="3.187231701009759"/>
  <path d="M 52.97063194333805, 106.3687326684182 Q 52.92407532400057, 105.37947471412268, 52.83470535349356, 104.05752088827566 " fill="none" id="curve_95" stroke="#000000" stroke-linecap="round" stroke-linejoin="round" stroke-width="2.9838557923080193"/>
</svg>
