<?xml version="1.0" ?>
<svg height="140" width="140" xmlns="http://www.w3.org/2000/svg">
  <path d="M 40.000603675842285, 52.81444978713989 Q 39.271345444991425, 51.93854482716467, 34.274077848386725, 51.64163130391265 " fill="none" id="curve_1" stroke="#000000" stroke-linecap="round" stroke-linejoin="round" stroke-width="4.709016521686827"/>
  <path d="M 34.274077848386725, 51.64163130391265 Q 56.857333356146746, 51.58460374098811, 61.589377401531806, 49.919745222541025 " fill="none" id="curve_1" stroke="#000000" stroke-linecap="round" stroke-linejoin="round" stroke-width="3.8441372852843183"/>
  <path d="M 61.589377401531806, 49.919745222541025 Q 69.00831898017111, 47.749793428794064, 77.29269533186368, 44.36834197957272 " fill="none" id="curve_1" stroke="#000000" stroke-linecap="round" stroke-linejoin="round" stroke-width="5.108056982695164"/>
  <path d="M 77.29269533186368, 44.36834197957272 Q 68.9807704020672, 48.444823789522864, 53.13374666888976, 69.25487383595251 " fill="none" id="curve_1" stroke="#000000" stroke-linecap="round" stroke-linejoin="round" stroke-width="4.388841905471282"/>
  <path d="M 53.13374666888976, 69.25487383595251 Q 49.00921977707695, 76.27484980864678, 39.29880025095538, 99.33469908372388 " fill="none" id="curve_1" stroke="#000000" stroke-linecap="round" stroke-linejoin="round" stroke-width="4.821694541569186"/>
  <path d="M 39.29880025095538, 99.33469908372388 Q 39.21242522834819, 102.31465586235272, 38.4549575676494, 102.88862422344481 " fill="none" id="curve_1" stroke="#000000" stroke-linecap="round" stroke-linejoin="round" stroke-width="4.3354073559487025"/>
  <path d="M 47.259534625625236, 76.88255154032981 Q 56.3745961492176, 78.46086342012512, 64.41155122191915, 80.48684234841832 " fill="none" id="curve_2" stroke="#000000" stroke-linecap="round" stroke-linejoin="round" stroke-width="4.4832478495039645"/>
  <path d="M 64.41155122191915, 80.48684234841832 Q 56.03509884959129, 79.04631513154334, 45.59287180585032, 76.65977700679284 " fill="none" id="curve_2" stroke="#000000" stroke-linecap="round" stroke-linejoin="round" stroke-width="4.896017714659743"/>
  <path d="M 45.59287180585032, 76.65977700679284 Q 44.19156147931137, 87.72776599764646, 39.49138730105993, 100.88193809230299 " fill="none" id="curve_2" stroke="#000000" stroke-linecap="round" stroke-linejoin="round" stroke-width="2.678953919269504"/>
  <path d="M 42.9273085936708, 78.37734010747337 Q 43.248144928575144, 78.22928801871731, 43.66769177816226, 77.94996182114191 " fill="none" id="curve_3" stroke="#000000" stroke-linecap="round" stroke-linejoin="round" stroke-width="4.4313240274307395"/>
  <path d="M 40.35675913697205, 52.88178189421908 Q 42.943581434119835, 53.12803615269678, 46.91561837552885, 53.39145980722281 " fill="none" id="curve_4" stroke="#000000" stroke-linecap="round" stroke-linejoin="round" stroke-width="4.554206803971074"/>
  <path d="M 53.27149646242935, 76.67917788467096 Q 54.09111453135334, 59.81955030355162, 65.50006928323619, 52.72287605135418 " fill="none" id="curve_5" stroke="#000000" stroke-linecap="round" stroke-linejoin="round" stroke-width="3.082879307901574"/>
  <path d="M 43.7639548674717, 50.05805050201248 Q 42.11649107385426, 50.15588348192283, 39.83920510633398, 50.277721636836624 " fill="none" id="curve_6" stroke="#000000" stroke-linecap="round" stroke-linejoin="round" stroke-width="3.4128446753795294"/>
  <path d="M 38.700703366578935, 98.93959073786219 Q 40.37880232740652, 91.95659237919443, 43.953600880380115, 86.25753354300328 " fill="none" id="curve_8" stroke="#000000" stroke-linecap="round" stroke-linejoin="round" stroke-width="3.063035676355194"/>
  <path d="M 42.99974268043258, 76.74522388673289 Q 43.61163516308673, 76.76055473522693, 44.26531599613503, 76.79788885351495 " fill="none" id="curve_9" stroke="#000000" stroke-linecap="round" stroke-linejoin="round" stroke-width="3.5960555661521165"/>
  <path d="M 57.79420697401972, 50.85500093243258 Q 56.166475027414386, 50.90604381570342, 53.5966509528739, 51.003282279940905 " fill="none" id="curve_13" stroke="#000000" stroke-linecap="round" stroke-linejoin="round" stroke-width="3.532064430191063"/>
  <path d="M 63.00208334541487, 50.54279257909884 Q 67.09904208726975, 47.48234057574235, 76.62977217096741, 44.22828984898544 " fill="none" id="curve_23" stroke="#000000" stroke-linecap="round" stroke-linejoin="round" stroke-width="2.527474853880863"/>
  <path d="M 66.44009671233268, 49.31677245687155 Q 68.11998532348248, 46.02909738397332, 76.02561594786118, 44.033245498828876 " fill="none" id="curve_32" stroke="#000000" stroke-linecap="round" stroke-linejoin="round" stroke-width="2.4929252221857445"/>
  <path d="M 54.82157559808084, 75.1237983802959 Q 56.11833465067683, 76.7886905133493, 59.65071707513672, 78.06911625998349 " fill="none" id="curve_33" stroke="#000000" stroke-linecap="round" stroke-linejoin="round" stroke-width="2.460762185153084"/>
  <path d="M 58.56614417575911, 63.93182314702661 Q 55.739805162395214, 67.93318241782889, 49.99936873093641, 71.74116555227828 " fill="none" id="curve_34" stroke="#000000" stroke-linecap="round" stroke-linejoin="round" stroke-width="2.9196311250305893"/>
  <path d="M 55.74337970601582, 49.75161390011246 Q 60.193262823027844, 49.34449608426644, 65.47661189083193, 48.399950837938746 " fill="none" id="curve_35" stroke="#000000" stroke-linecap="round" stroke-linejoin="round" stroke-width="2.4450404079609185"/>
  <path d="M 75.6866955618822, 44.84138477717046 Q 69.01954911883267, 46.4602022357923, 62.786176561833216, 50.67201430350562 " fill="none" id="curve_43" stroke="#000000" stroke-linecap="round" stroke-linejoin="round" stroke-width="3.278620176662967"/>
  <path d="M 76.01935543236462, 44.36645919944002 Q 71.8875400871925, 46.39875296100794, 65.1360723845419, 48.29210674823281 " fill="none" id="curve_73" stroke="#000000" stroke-linecap="round" stroke-linejoin="round" stroke-width="3.910142075844555"/>
  <path d="M 71.79899827239392, 45.1480885029453 Q 73.38538471887864, 44.63432307787646, 75.94186417669552, 43.80411600408774 " fill="none" id="curve_159" stroke="#000000" stroke-linecap="round" stroke-linejoin="round" stroke-width="2.7482163405625215"/>
  <path d="M 41.183916817230795, 91.55745962975247 Q 41.30313308242526, 90.41571449439553, 41.82833751390413, 89.57039131720124 " fill="none" id="curve_164" stroke="#000000" stroke-linecap="round" stroke-linejoin="round" stroke-width="3.0125925747953044"/>
</svg>
