<?xml version="1.0" ?>
<svg height="140" width="140" xmlns="http://www.w3.org/2000/svg">
  <path d="M 72.09209430593626, 73.53161673057647 Q 64.33007296602591, 73.8868036286961, 50.142126602358545, 74.7405773542814 " fill="none" id="curve_2" stroke="#000000" stroke-linecap="round" stroke-linejoin="round" stroke-width="4.493192866799077"/>
  <path d="M 50.142126602358545, 74.7405773542814 Q 48.7231375267453, 75.07673536190343, 40.43260499206503, 75.16775352304668 " fill="none" id="curve_2" stroke="#000000" stroke-linecap="round" stroke-linejoin="round" stroke-width="8.389005653992237"/>
  <path d="M 40.43260499206503, 75.16775352304668 Q 40.13249697614287, 87.17071024984206, 39.1234838781246, 103.66569052442051 " fill="none" id="curve_2" stroke="#000000" stroke-linecap="round" stroke-linejoin="round" stroke-width="5.815901997947375"/>
  <path d="M 39.1234838781246, 103.66569052442051 Q 38.99064577377112, 111.56112775831888, 38.48437479823375, 115.12206471443078 " fill="none" id="curve_2" stroke="#000000" stroke-linecap="round" stroke-linejoin="round" stroke-width="6.3404713457350095"/>
  <path d="M 35.5259927098238, 76.73939868166039 Q 29.841777659989173, 75.54424215812418, 19.749259502850684, 74.0476855057476 " fill="none" id="curve_3" stroke="#000000" stroke-linecap="round" stroke-linejoin="round" stroke-width="5.327137848158325"/>
  <path d="M 44.84133125641319, 72.59190710362232 Q 47.256218173882424, 60.731862368714225, 55.07514998391251, 44.27298480080988 " fill="none" id="curve_4" stroke="#000000" stroke-linecap="round" stroke-linejoin="round" stroke-width="6.7655064402212375"/>
  <path d="M 55.07514998391251, 44.27298480080988 Q 54.98396179004939, 32.48287757147618, 47.974397255343845, 32.05869472396974 " fill="none" id="curve_4" stroke="#000000" stroke-linecap="round" stroke-linejoin="round" stroke-width="6.5502432000395014"/>
  <path d="M 47.974397255343845, 32.05869472396974 Q 38.91014352750042, 30.936716517182706, 14.117583033567577, 29.110608707614233 " fill="none" id="curve_4" stroke="#000000" stroke-linecap="round" stroke-linejoin="round" stroke-width="5.711033067575975"/>
  <path d="M 14.117583033567577, 29.110608707614233 Q 15.292720789881628, 30.864053716790462, 16.709235154048322, 33.186035133751666 " fill="none" id="curve_4" stroke="#000000" stroke-linecap="round" stroke-linejoin="round" stroke-width="3.7103263559080792"/>
  <path d="M 48.94600025639542, 54.86647348089437 Q 45.2074960434399, 59.367872831142655, 43.88099210651781, 81.34380292987436 " fill="none" id="curve_6" stroke="#000000" stroke-linecap="round" stroke-linejoin="round" stroke-width="2.728973315413689"/>
  <path d="M 43.88099210651781, 81.34380292987436 Q 43.08838160265373, 88.7385734880068, 41.454474816325174, 94.94423999509374 " fill="none" id="curve_6" stroke="#000000" stroke-linecap="round" stroke-linejoin="round" stroke-width="2.845645869574459"/>
  <path d="M 35.130716419997405, 74.35993081754278 Q 32.494285339927316, 74.14262466951689, 26.61060283778388, 73.94426346255456 " fill="none" id="curve_7" stroke="#000000" stroke-linecap="round" stroke-linejoin="round" stroke-width="3.3703461838656543"/>
  <path d="M 38.92182806657293, 28.623531839676012 Q 36.55587961234376, 28.870543947427688, 32.181973750580234, 29.410277014205896 " fill="none" id="curve_9" stroke="#000000" stroke-linecap="round" stroke-linejoin="round" stroke-width="2.8979458112451217"/>
  <path d="M 88.36279888725437, 2.808849389310531 Q 89.26366585219047, 2.6376729325407244, 90.09053413887071, 2.086483814738873 " fill="none" id="curve_13" stroke="#000000" stroke-linecap="round" stroke-linejoin="round" stroke-width="2.191494330437018"/>
  <path d="M 52.41861504261912, 44.6767335116895 Q 54.91295738652513, 42.20276657089349, 56.49189972161696, 35.78896810237421 " fill="none" id="curve_15" stroke="#000000" stroke-linecap="round" stroke-linejoin="round" stroke-width="3.4689240121909726"/>
  <path d="M 46.55465467079781, 62.80439105590465 Q 46.09334590642432, 68.03722693947819, 45.1595529476519, 74.06668986668201 " fill="none" id="curve_21" stroke="#000000" stroke-linecap="round" stroke-linejoin="round" stroke-width="3.2026468726251855"/>
  <path d="M 46.47875801652837, 67.62301676178195 Q 46.136859823556, 67.66694983971486, 45.4917256115921, 67.77224753450645 " fill="none" id="curve_24" stroke="#000000" stroke-linecap="round" stroke-linejoin="round" stroke-width="4.014794281912912"/>
  <path d="M 48.45377965943588, 29.070383164938058 Q 47.718028434810755, 30.48975531418501, 41.77466134798874, 31.353532745117846 " fill="none" id="curve_30" stroke="#000000" stroke-linecap="round" stroke-linejoin="round" stroke-width="3.0072843313344166"/>
  <path d="M 30.486412271170163, 76.6689854583725 Q 21.13124318631074, 76.28263447181088, 17.23399495850728, 72.24442934812917 " fill="none" id="curve_31" stroke="#000000" stroke-linecap="round" stroke-linejoin="round" stroke-width="1.834627207398137"/>
  <path d="M 17.23399495850728, 72.24442934812917 Q 22.92718054278187, 75.14520221534524, 30.532987427226708, 77.27415519560716 " fill="none" id="curve_31" stroke="#000000" stroke-linecap="round" stroke-linejoin="round" stroke-width="3.5988466707804427"/>
  <path d="M 43.889471658224544, 71.49628928026694 Q 43.85643131737319, 69.76272637917225, 43.419645836700575, 69.46537447692491 " fill="none" id="curve_32" stroke="#000000" stroke-linecap="round" stroke-linejoin="round" stroke-width="3.6122747338632686"/>
  <path d="M 46.14298759939831, 70.2458169007634 Q 46.49007670169408, 71.33859755925504, 47.89458256257921, 72.40581977876991 " fill="none" id="curve_47" stroke="#000000" stroke-linecap="round" stroke-linejoin="round" stroke-width="2.71382983012096"/>
  <path d="M 50.580740813646145, 73.64802365783606 Q 53.89742103889944, 73.6092660582321, 57.04967289822246, 73.51655550883449 " fill="none" id="curve_63" stroke="#000000" stroke-linecap="round" stroke-linejoin="round" stroke-width="2.1561305104612534"/>
  <path d="M 57.73537833914111, 39.12194964933126 Q 56.85850701024723, 39.033439946831336, 55.34863271233583, 38.90218507128234 " fill="none" id="curve_78" stroke="#000000" stroke-linecap="round" stroke-linejoin="round" stroke-width="3.350444581621361"/>
  <path d="M 40.6295722975151, 109.41455323255832 Q 38.66736283759678, 110.73325296920433, 37.304177391983316, 113.5120986108049 " fill="none" id="curve_93" stroke="#000000" stroke-linecap="round" stroke-linejoin="round" stroke-width="5.107150572671528"/>
  <path d="M 44.89521991622243, 68.81804757141849 Q 46.884227613242174, 63.86808820552118, 50.254489475270944, 59.10589508942652 " fill="none" id="curve_95" stroke="#000000" stroke-linecap="round" stroke-linejoin="round" stroke-width="4.147331772827536"/>
  <path d="M 48.32056306008663, 54.428466850963204 Q 50.41241057195805, 52.99925750487556, 52.651696732555294, 50.54256873001882 " fill="none" id="curve_111" stroke="#000000" stroke-linecap="round" stroke-linejoin="round" stroke-width="3.5748077620774223"/>
  <path d="M 51.12821239851337, 55.73793209825044 Q 51.804390057771435, 53.23261773142842, 53.29159344651425, 50.91933755240342 " fill="none" id="curve_126" stroke="#000000" stroke-linecap="round" stroke-linejoin="round" stroke-width="4.404073897508013"/>
</svg>
