<?xml version="1.0" ?>
<svg height="140" width="140" xmlns="http://www.w3.org/2000/svg">
  <path d="M 79.34517669677734, 82.05438423156738 Q 80.74927786983804, 81.92888564157262, 82.33264381543074, 81.60726232561859 " fill="none" id="curve_1" stroke="#000000" stroke-linecap="round" stroke-linejoin="round" stroke-width="4.334733443844805"/>
  <path d="M 82.33264381543074, 81.60726232561859 Q 80.05197694112432, 84.15670992812001, 62.426201231121865, 85.24422955444129 " fill="none" id="curve_1" stroke="#000000" stroke-linecap="round" stroke-linejoin="round" stroke-width="5.696211097225443"/>
  <path d="M 62.426201231121865, 85.24422955444129 Q 60.51433251294678, 85.74052266401992, 50.37005187690157, 85.87092594356913 " fill="none" id="curve_1" stroke="#000000" stroke-linecap="round" stroke-linejoin="round" stroke-width="10.879125594192509"/>
  <path d="M 50.37005187690157, 85.87092594356913 Q 48.02849644690341, 95.28842258250546, 42.1333602620404, 115.74451954702299 " fill="none" id="curve_1" stroke="#000000" stroke-linecap="round" stroke-linejoin="round" stroke-width="5.618337339053529"/>
  <path d="M 42.1333602620404, 115.74451954702299 Q 40.89895326212155, 119.24355294281348, 39.26176547758418, 122.45151212509703 " fill="none" id="curve_1" stroke="#000000" stroke-linecap="round" stroke-linejoin="round" stroke-width="7.548693028616028"/>
  <path d="M 42.36969611663422, 85.52411904685596 Q 52.413206086226424, 85.39029955122037, 53.21781486153385, 78.34230564225903 " fill="none" id="curve_2" stroke="#000000" stroke-linecap="round" stroke-linejoin="round" stroke-width="5.6693359750902355"/>
  <path d="M 53.21781486153385, 78.34230564225903 Q 55.49853773516496, 75.03903147874891, 56.209073716936345, 50.626199176346475 " fill="none" id="curve_2" stroke="#000000" stroke-linecap="round" stroke-linejoin="round" stroke-width="7.7389953923535595"/>
  <path d="M 56.209073716936345, 50.626199176346475 Q 56.024212625424404, 47.24822654594171, 49.26871187314195, 47.03780343599941 " fill="none" id="curve_2" stroke="#000000" stroke-linecap="round" stroke-linejoin="round" stroke-width="7.315694322744322"/>
  <path d="M 49.26871187314195, 47.03780343599941 Q 42.49751382972448, 47.6655793373778, 23.16088182287777, 48.00577373618574 " fill="none" id="curve_2" stroke="#000000" stroke-linecap="round" stroke-linejoin="round" stroke-width="6.676920487786373"/>
  <path d="M 4.398373325176561, 44.71976030055388 Q 2.601697379640293, 45.27054708662661, 2.481490358965982, 77.72175504865372 " fill="none" id="curve_3" stroke="#000000" stroke-linecap="round" stroke-linejoin="round" stroke-width="2.4991671976484273"/>
  <path d="M 2.481490358965982, 77.72175504865372 Q 2.2803212722425235, 82.10777549642219, 1.9454964838853455, 114.31450083566567 " fill="none" id="curve_3" stroke="#000000" stroke-linecap="round" stroke-linejoin="round" stroke-width="2.7850737427095025"/>
  <path d="M 1.9454964838853455, 114.31450083566567 Q 2.0395592124396034, 126.65665709665429, 2.2595299940648803, 138.25490245984398 " fill="none" id="curve_3" stroke="#000000" stroke-linecap="round" stroke-linejoin="round" stroke-width="2.7134626706373957"/>
  <path d="M 2.2595299940648803, 138.25490245984398 Q 2.0830889486452633, 138.6007920146256, 1.6530627774050788, 138.81223074907865 " fill="none" id="curve_3" stroke="#000000" stroke-linecap="round" stroke-linejoin="round" stroke-width="2.9322107273748643"/>
  <path d="M 38.36744397216328, 84.83387722681218 Q 37.440847422805575, 84.1385163757464, 36.65372234087749, 82.68614405504228 " fill="none" id="curve_5" stroke="#000000" stroke-linecap="round" stroke-linejoin="round" stroke-width="6.43708416030989"/>
  <path d="M 18.82409242757381, 47.286411480861034 Q 20.946815822326528, 47.26059075288253, 21.486965047677085, 46.9414333645596 " fill="none" id="curve_6" stroke="#000000" stroke-linecap="round" stroke-linejoin="round" stroke-width="4.6691377887431535"/>
  <path d="M 2.623859925196701, 45.311195227716986 Q 2.325256295119341, 42.485535129500164, 2.1635883066001322, 17.228743544028838 " fill="none" id="curve_7" stroke="#000000" stroke-linecap="round" stroke-linejoin="round" stroke-width="2.289579860731031"/>
  <path d="M 2.1635883066001322, 17.228743544028838 Q 2.1848222666935997, 2.465515878092676, 5.402811775430102, 2.035260674533964 " fill="none" id="curve_7" stroke="#000000" stroke-linecap="round" stroke-linejoin="round" stroke-width="3.937627432571716"/>
  <path d="M 5.402811775430102, 2.035260674533964 Q 6.579870863806297, 1.7272489873793178, 8.930179250999975, 1.4947058047428987 " fill="none" id="curve_7" stroke="#000000" stroke-linecap="round" stroke-linejoin="round" stroke-width="2.2278595063207214"/>
  <path d="M 2.000546685508673, 3.71396675706485 Q 2.9693483155763385, 3.4407297376677026, 3.5255588061774947, 2.5020123096565943 " fill="none" id="curve_8" stroke="#000000" stroke-linecap="round" stroke-linejoin="round" stroke-width="3.938232976198541"/>
  <path d="M 35.80375033390096, 46.243513077285385 Q 37.482683901067325, 45.055318673331065, 53.627753294040005, 44.74028084235825 " fill="none" id="curve_9" stroke="#000000" stroke-linecap="round" stroke-linejoin="round" stroke-width="2.683673077755419"/>
  <path d="M 52.692170723002114, 71.50213220595325 Q 50.5436719889769, 76.44378618721026, 48.91427197292729, 84.10676840004369 " fill="none" id="curve_10" stroke="#000000" stroke-linecap="round" stroke-linejoin="round" stroke-width="3.32083912098835"/>
  <path d="M 49.71328282464788, 102.49278653605745 Q 43.91626904026436, 108.5393953923449, 39.3837527478172, 117.93848272557281 " fill="none" id="curve_11" stroke="#000000" stroke-linecap="round" stroke-linejoin="round" stroke-width="4.5222109803262915"/>
  <path d="M 41.49311834361331, 83.64492201972156 Q 40.98321091046964, 83.5338017807584, 39.16838177831266, 83.45878922022023 " fill="none" id="curve_13" stroke="#000000" stroke-linecap="round" stroke-linejoin="round" stroke-width="3.5167088659686363"/>
  <path d="M 20.151032639796274, 46.67959725806585 Q 20.347230435078565, 45.760421575312755, 20.777013805735923, 45.04590912104935 " fill="none" id="curve_14" stroke="#000000" stroke-linecap="round" stroke-linejoin="round" stroke-width="4.224059057451594"/>
  <path d="M 1.5153464521642803, 48.22329543466518 Q 1.5199914718749714, 56.51601556062429, 1.5252211557395037, 74.40806803949144 " fill="none" id="curve_16" stroke="#000000" stroke-linecap="round" stroke-linejoin="round" stroke-width="1.9487585462592574"/>
  <path d="M 33.39900755596262, 46.80170291516356 Q 35.07433353385246, 45.80449604429955, 44.31647578175219, 45.41078204622563 " fill="none" id="curve_17" stroke="#000000" stroke-linecap="round" stroke-linejoin="round" stroke-width="2.930948247099475"/>
  <path d="M 44.31647578175219, 45.41078204622563 Q 39.112810627271045, 45.58502407623676, 34.86415198291067, 46.137844088895186 " fill="none" id="curve_17" stroke="#000000" stroke-linecap="round" stroke-linejoin="round" stroke-width="3.908313555897811"/>
  <path d="M 42.009771248822084, 115.96903914778295 Q 44.64869776827574, 114.31847283040062, 45.83036907133081, 107.48324719576841 " fill="none" id="curve_22" stroke="#000000" stroke-linecap="round" stroke-linejoin="round" stroke-width="4.718968652027234"/>
  <path d="M 41.824436175969694, 119.23676024043971 Q 42.135240797747564, 113.866943413956, 42.784476289063335, 109.05287419225712 " fill="none" id="curve_23" stroke="#000000" stroke-linecap="round" stroke-linejoin="round" stroke-width="3.757504350648543"/>
  <path d="M 54.64892842131121, 66.1783616475364 Q 52.100354938630225, 67.60705079794714, 50.81960199827527, 74.92195571666879 " fill="none" id="curve_38" stroke="#000000" stroke-linecap="round" stroke-linejoin="round" stroke-width="2.223694639784377"/>
  <path d="M 52.373358956097036, 52.0572883095158 Q 53.574236328321035, 55.26716272691207, 55.81442106293369, 59.404742326465026 " fill="none" id="curve_53" stroke="#000000" stroke-linecap="round" stroke-linejoin="round" stroke-width="2.5796335117802722"/>
  <path d="M 75.12215914869867, 83.8278020325327 Q 75.01084089466602, 82.86340321141948, 74.41910660624161, 82.44526774591617 " fill="none" id="curve_68" stroke="#000000" stroke-linecap="round" stroke-linejoin="round" stroke-width="3.3947348283235943"/>
  <path d="M 28.36699879507283, 50.040674644508414 Q 30.665865227799383, 47.0580923478463, 40.33422151346632, 45.52351787978326 " fill="none" id="curve_73" stroke="#000000" stroke-linecap="round" stroke-linejoin="round" stroke-width="2.52744867532453"/>
  <path d="M 1.5076651503360585, 5.840168454791609 Q 1.3872855100831725, 15.472550736138006, 0.9517752654439485, 23.79327020209475 " fill="none" id="curve_82" stroke="#000000" stroke-linecap="round" stroke-linejoin="round" stroke-width="1.5897244813524798"/>
  <path d="M 40.772459872889854, 45.66097305462919 Q 39.730869772520975, 45.11060536085873, 36.13029766777942, 44.572846207833315 " fill="none" id="curve_100" stroke="#000000" stroke-linecap="round" stroke-linejoin="round" stroke-width="3.2171013137429147"/>
  <path d="M 56.303619256947194, 45.90772275661073 Q 55.59500316247711, 45.86577301446621, 53.78064100856832, 45.82587150319163 " fill="none" id="curve_119" stroke="#000000" stroke-linecap="round" stroke-linejoin="round" stroke-width="3.0659047773157484"/>
  <path d="M 42.49088036541584, 114.26801611462929 Q 42.46746951380086, 112.99330701914559, 42.43431550877028, 110.76599658419661 " fill="none" id="curve_124" stroke="#000000" stroke-linecap="round" stroke-linejoin="round" stroke-width="5.987434702276041"/>
  <path d="M 46.01262098008233, 83.34029103475606 Q 46.35399525173312, 82.86190085003679, 49.749442711671705, 82.65814010847738 " fill="none" id="curve_183" stroke="#000000" stroke-linecap="round" stroke-linejoin="round" stroke-width="2.2330679412720897"/>
  <path d="M 42.976995709950074, 112.37239420445215 Q 43.11042520166611, 115.2035887565135, 43.98819904691717, 116.36936174355603 " fill="none" id="curve_193" stroke="#000000" stroke-linecap="round" stroke-linejoin="round" stroke-width="5.783314091267414"/>
</svg>
