<?xml version="1.0" ?>
<svg height="140" width="140" xmlns="http://www.w3.org/2000/svg">
  <path d="M 48.07071304321289, 129.83140563964844 Q 47.537868273741346, 129.48687202848242, 47.413373428789626, 125.03308312336236 " fill="none" id="curve_1" stroke="#000000" stroke-linecap="round" stroke-linejoin="round" stroke-width="7.945390967674474"/>
  <path d="M 47.413373428789626, 125.03308312336236 Q 48.79895720605173, 121.52182169066444, 49.84265305613763, 109.68644380570387 " fill="none" id="curve_1" stroke="#000000" stroke-linecap="round" stroke-linejoin="round" stroke-width="8.328826443143063"/>
  <path d="M 49.84265305613763, 109.68644380570387 Q 50.336935339025175, 106.49791396214533, 51.46188792208431, 103.43815741965949 " fill="none" id="curve_1" stroke="#000000" stroke-linecap="round" stroke-linejoin="round" stroke-width="9.404012648623517"/>
  <path d="M 51.46188792208431, 103.43815741965949 Q 53.91364623311905, 96.84725778111688, 57.92091719058813, 74.60350176734146 " fill="none" id="curve_1" stroke="#000000" stroke-linecap="round" stroke-linejoin="round" stroke-width="5.9980530376459305"/>
  <path d="M 57.92091719058813, 74.60350176734146 Q 60.8195816543809, 72.06113936419335, 61.67902035757982, 55.957885439115415 " fill="none" id="curve_1" stroke="#000000" stroke-linecap="round" stroke-linejoin="round" stroke-width="5.963794985370273"/>
  <path d="M 61.67902035757982, 55.957885439115415 Q 51.191980200682, 59.0463232773523, 42.06524871523479, 64.70012119994375 " fill="none" id="curve_1" stroke="#000000" stroke-linecap="round" stroke-linejoin="round" stroke-width="5.686794543889577"/>
  <path d="M 42.06524871523479, 64.70012119994375 Q 21.221654294659608, 63.76100366913744, 15.451503030742543, 56.71376568059563 " fill="none" id="curve_1" stroke="#000000" stroke-linecap="round" stroke-linejoin="round" stroke-width="5.9370474824141715"/>
  <path d="M 15.451503030742543, 56.71376568059563 Q 17.97595278079454, 66.28091577238568, 20.14391732736004, 76.91493821777134 " fill="none" id="curve_1" stroke="#000000" stroke-linecap="round" stroke-linejoin="round" stroke-width="5.213741386605258"/>
  <path d="M 34.39822760329133, 107.61614003975598 Q 42.710340137524334, 107.625252514946, 47.6386783486165, 107.66306378245879 " fill="none" id="curve_2" stroke="#000000" stroke-linecap="round" stroke-linejoin="round" stroke-width="7.051413550435833"/>
  <path d="M 47.6386783486165, 107.66306378245879 Q 51.53767151526329, 105.92665789245257, 58.4165945529798, 104.52652258003421 " fill="none" id="curve_2" stroke="#000000" stroke-linecap="round" stroke-linejoin="round" stroke-width="3.669951176156756"/>
  <path d="M 47.49342480532448, 130.0750464373803 Q 47.20008779713569, 130.14260997137566, 46.84932413949166, 130.2114095847713 " fill="none" id="curve_3" stroke="#000000" stroke-linecap="round" stroke-linejoin="round" stroke-width="6.814197089879392"/>
  <path d="M 14.828698996280572, 64.64917984248112 Q 13.766410632680023, 61.56741495760888, 12.790427154471182, 54.888565169492054 " fill="none" id="curve_6" stroke="#000000" stroke-linecap="round" stroke-linejoin="round" stroke-width="3.932147043443133"/>
  <path d="M 21.025627192920822, 71.72720876623558 Q 19.07750789507367, 69.7843719624226, 18.00918877060565, 62.68362642146503 " fill="none" id="curve_7" stroke="#000000" stroke-linecap="round" stroke-linejoin="round" stroke-width="4.00404117701814"/>
  <path d="M 42.49444930875079, 62.48927182259108 Q 48.951066048789045, 58.75969976778161, 59.71362251525077, 55.14511997023339 " fill="none" id="curve_8" stroke="#000000" stroke-linecap="round" stroke-linejoin="round" stroke-width="2.817689765418331"/>
  <path d="M 59.79801705033976, 78.99472696832265 Q 58.8010418076786, 74.37137319150327, 57.770905343839914, 58.343916463101124 " fill="none" id="curve_11" stroke="#000000" stroke-linecap="round" stroke-linejoin="round" stroke-width="2.2554578198598536"/>
  <path d="M 47.27276058286952, 63.80673370067491 Q 50.477842536804985, 60.06903412985985, 56.61271622981334, 56.27272252996847 " fill="none" id="curve_12" stroke="#000000" stroke-linecap="round" stroke-linejoin="round" stroke-width="2.7297260772409766"/>
  <path d="M 49.43915412553533, 103.00825848102096 Q 45.339666214114274, 106.11471294127757, 40.79581695872368, 110.08633162583106 " fill="none" id="curve_13" stroke="#000000" stroke-linecap="round" stroke-linejoin="round" stroke-width="3.4727661913009564"/>
  <path d="M 40.79581695872368, 110.08633162583106 Q 44.37105124815498, 105.70624503298873, 51.655219114201586, 102.02286172294738 " fill="none" id="curve_13" stroke="#000000" stroke-linecap="round" stroke-linejoin="round" stroke-width="3.0856744615378475"/>
  <path d="M 88.52170175678904, 1.392472619204792 Q 89.0582978493122, 1.379464750686929, 89.70923335158137, 1.3505870130468556 " fill="none" id="curve_41" stroke="#000000" stroke-linecap="round" stroke-linejoin="round" stroke-width="1.9153937078552412"/>
  <path d="M 57.07588547103876, 69.83696971251084 Q 57.69168210665162, 68.92913679637859, 58.59221661342851, 67.47785177389741 " fill="none" id="curve_56" stroke="#000000" stroke-linecap="round" stroke-linejoin="round" stroke-width="2.748375013698778"/>
  <path d="M 22.803138574390566, 76.35988302183195 Q 17.463865814996673, 75.32340406186236, 15.491655015265456, 66.77309243300594 " fill="none" id="curve_91" stroke="#000000" stroke-linecap="round" stroke-linejoin="round" stroke-width="2.8714694314458247"/>
  <path d="M 43.874948685133184, 63.91403791861731 Q 40.176984646687124, 63.307123412433604, 33.092235733452426, 62.154728349040894 " fill="none" id="curve_128" stroke="#000000" stroke-linecap="round" stroke-linejoin="round" stroke-width="2.7416311054583917"/>
  <path d="M 49.45995503436464, 130.76998745360868 Q 48.24110820948594, 129.80771253784403, 46.346911206664856, 128.27960767172343 " fill="none" id="curve_130" stroke="#000000" stroke-linecap="round" stroke-linejoin="round" stroke-width="3.456359680711006"/>
  <path d="M 54.18656362410195, 84.8554753634159 Q 54.824686461149476, 82.24859399613037, 56.06315663757013, 78.97710673918756 " fill="none" id="curve_131" stroke="#000000" stroke-linecap="round" stroke-linejoin="round" stroke-width="3.3587507933861906"/>
  <path d="M 42.53219995226931, 63.147795042776764 Q 48.216221144826406, 61.20007842414311, 56.195119969830145, 56.862122610374286 " fill="none" id="curve_136" stroke="#000000" stroke-linecap="round" stroke-linejoin="round" stroke-width="2.7279814255335"/>
  <path d="M 56.195119969830145, 56.862122610374286 Q 57.83712297311377, 55.555099364420265, 60.817701348821416, 54.39757721623102 " fill="none" id="curve_136" stroke="#000000" stroke-linecap="round" stroke-linejoin="round" stroke-width="3.1475451344928578"/>
  <path d="M 51.919572055178634, 102.46180728936167 Q 53.54120815719495, 103.55258587982331, 54.29397467268841, 107.83536211522741 " fill="none" id="curve_164" stroke="#000000" stroke-linecap="round" stroke-linejoin="round" stroke-width="2.9279107960483586"/>
</svg>
