<?xml version="1.0" ?>
<svg height="140" width="140" xmlns="http://www.w3.org/2000/svg">
  <path d="M 23.028176307678223, 41.05005741119385 Q 21.546116263214742, 41.11412209974847, 18.113009875220598, 41.19130605659578 " fill="none" id="curve_1" stroke="#000000" stroke-linecap="round" stroke-linejoin="round" stroke-width="5.067656159416558"/>
  <path d="M 25.21479968349951, 41.65189887151039 Q 31.283119353230163, 40.534255846222, 50.15628816815404, 39.34594207201373 " fill="none" id="curve_2" stroke="#000000" stroke-linecap="round" stroke-linejoin="round" stroke-width="6.345573948228564"/>
  <path d="M 50.15628816815404, 39.34594207201373 Q 54.97294624395717, 39.30484518871871, 65.36716976576936, 39.27314834238675 " fill="none" id="curve_2" stroke="#000000" stroke-linecap="round" stroke-linejoin="round" stroke-width="5.989225962399598"/>
  <path d="M 65.36716976576936, 39.27314834238675 Q 62.84417472180013, 52.29785593795445, 53.08872067858139, 73.23845265106117 " fill="none" id="curve_2" stroke="#000000" stroke-linecap="round" stroke-linejoin="round" stroke-width="6.5977148775978325"/>
  <path d="M 53.08872067858139, 73.23845265106117 Q 49.582680507386016, 86.6793369380735, 38.85226326361755, 113.47661892241857 " fill="none" id="curve_2" stroke="#000000" stroke-linecap="round" stroke-linejoin="round" stroke-width="6.755611826577038"/>
  <path d="M 38.85226326361755, 113.47661892241857 Q 38.03375497170365, 113.4501694689763, 36.771631800894184, 113.4264286801559 " fill="none" id="curve_2" stroke="#000000" stroke-linecap="round" stroke-linejoin="round" stroke-width="5.2185032083583085"/>
  <path d="M 55.29348429418032, 67.89282227012934 Q 56.25892291410814, 55.77309268134681, 63.96095359593772, 51.0530426074432 " fill="none" id="curve_3" stroke="#000000" stroke-linecap="round" stroke-linejoin="round" stroke-width="2.7448132854447804"/>
  <path d="M 56.00507391709174, 76.3120789199084 Q 55.69775837427937, 66.4655584765052, 53.59242201436177, 61.13745151730104 " fill="none" id="curve_10" stroke="#000000" stroke-linecap="round" stroke-linejoin="round" stroke-width="3.1936132611016617"/>
  <path d="M 44.421951649817174, 90.02848422741019 Q 42.26913300332956, 93.3567962948139, 41.6084740038808, 108.74139125763891 " fill="none" id="curve_11" stroke="#000000" stroke-linecap="round" stroke-linejoin="round" stroke-width="4.0870484306253205"/>
  <path d="M 41.6084740038808, 108.74139125763891 Q 43.45779412084829, 108.30152755638451, 44.05772829337029, 105.43858407677129 " fill="none" id="curve_11" stroke="#000000" stroke-linecap="round" stroke-linejoin="round" stroke-width="5.696579458471396"/>
  <path d="M 62.53375770153957, 36.37619372851844 Q 55.89620222529705, 38.245658381354005, 43.005217839624464, 40.664624256588745 " fill="none" id="curve_15" stroke="#000000" stroke-linecap="round" stroke-linejoin="round" stroke-width="3.368070682366112"/>
  <path d="M 23.45535708108697, 41.47623216391407 Q 33.708104004058754, 40.79026131008683, 50.401753364577935, 39.033919072016005 " fill="none" id="curve_17" stroke="#000000" stroke-linecap="round" stroke-linejoin="round" stroke-width="2.815563688204039"/>
  <path d="M 26.829777335787725, 39.96808207122998 Q 31.80474550341152, 40.727613700213304, 41.01203944668106, 41.63131765457838 " fill="none" id="curve_20" stroke="#000000" stroke-linecap="round" stroke-linejoin="round" stroke-width="3.329290890879345"/>
  <path d="M 41.01203944668106, 41.63131765457838 Q 40.132296495029664, 40.92655927091454, 34.2175208960238, 40.410593927751954 " fill="none" id="curve_20" stroke="#000000" stroke-linecap="round" stroke-linejoin="round" stroke-width="2.5971563853307464"/>
  <path d="M 22.224085620213298, 41.31241493797988 Q 20.995121073402448, 41.213839570191446, 18.690742074873377, 41.05297656895064 " fill="none" id="curve_21" stroke="#000000" stroke-linecap="round" stroke-linejoin="round" stroke-width="3.585637203434078"/>
  <path d="M 28.47025402175209, 41.30157979857261 Q 29.020552794916686, 40.25018173071366, 30.173089870612156, 39.07939967546104 " fill="none" id="curve_28" stroke="#000000" stroke-linecap="round" stroke-linejoin="round" stroke-width="4.900823696162901"/>
  <path d="M 61.69186994046061, 50.321705385335136 Q 61.853969763474915, 43.98885486906487, 62.537315012400576, 41.207170019051844 " fill="none" id="curve_35" stroke="#000000" stroke-linecap="round" stroke-linejoin="round" stroke-width="3.207586624885169"/>
  <path d="M 52.72849172739609, 36.00399669824469 Q 49.37573308345089, 38.165787081506934, 45.1610525447211, 41.228291306547945 " fill="none" id="curve_50" stroke="#000000" stroke-linecap="round" stroke-linejoin="round" stroke-width="3.805052841408862"/>
  <path d="M 57.444094478238654, 67.15905565848699 Q 56.72804106243832, 68.91358535397974, 53.78396034987955, 69.95134175673378 " fill="none" id="curve_79" stroke="#000000" stroke-linecap="round" stroke-linejoin="round" stroke-width="3.789548776854246"/>
  <path d="M 47.2366907075254, 39.693361741762345 Q 47.094853962056284, 38.87433408970623, 46.331793802437375, 38.35441735227314 " fill="none" id="curve_81" stroke="#000000" stroke-linecap="round" stroke-linejoin="round" stroke-width="3.895945298353259"/>
  <path d="M 64.59222586922179, 47.74305839248115 Q 60.88585890909685, 50.17100303085382, 58.220656154973824, 55.88133864205497 " fill="none" id="curve_136" stroke="#000000" stroke-linecap="round" stroke-linejoin="round" stroke-width="3.7947759598794786"/>
</svg>
