<?xml version="1.0" ?>
<svg height="140" width="140" xmlns="http://www.w3.org/2000/svg">
  <path d="M 59.99489784240723, 51.97091293334961 Q 59.854524466889266, 49.50718962650115, 56.20370553930826, 49.08944521891368 " fill="none" id="curve_1" stroke="#000000" stroke-linecap="round" stroke-linejoin="round" stroke-width="6.696163183811765"/>
  <path d="M 56.20370553930826, 49.08944521891368 Q 52.48329626922617, 47.96434721591223, 35.48687728398821, 46.758978682985976 " fill="none" id="curve_1" stroke="#000000" stroke-linecap="round" stroke-linejoin="round" stroke-width="6.152302927166551"/>
  <path d="M 35.48687728398821, 46.758978682985976 Q 32.90379597785841, 46.060432152620336, 26.168977629155254, 45.63929910142227 " fill="none" id="curve_1" stroke="#000000" stroke-linecap="round" stroke-linejoin="round" stroke-width="5.310473690257838"/>
  <path d="M 49.06461218646379, 68.57319224493392 Q 61.01751792197427, 68.39278207123805, 61.525624630252516, 54.82189191264969 " fill="none" id="curve_2" stroke="#000000" stroke-linecap="round" stroke-linejoin="round" stroke-width="6.152610659597377"/>
  <path d="M 57.7489543143309, 69.734516973703 Q 58.22803193692005, 87.01952416803782, 59.484563681388316, 99.00763001555612 " fill="none" id="curve_3" stroke="#000000" stroke-linecap="round" stroke-linejoin="round" stroke-width="5.249099136156743"/>
  <path d="M 60.75057874045456, 68.18946781244239 Q 67.99845026828727, 67.893164047428, 77.13438325256855, 67.5194246232397 " fill="none" id="curve_4" stroke="#000000" stroke-linecap="round" stroke-linejoin="round" stroke-width="4.680489008505375"/>
  <path d="M 62.30115256284641, 50.87810940458051 Q 62.600385344380776, 54.32109307554812, 62.860180335560635, 63.41751494574947 " fill="none" id="curve_6" stroke="#000000" stroke-linecap="round" stroke-linejoin="round" stroke-width="2.5670149796395636"/>
  <path d="M 51.904279651449116, 66.44403198185567 Q 50.29206738960511, 66.84158442403564, 47.79868782953231, 67.32128247096945 " fill="none" id="curve_7" stroke="#000000" stroke-linecap="round" stroke-linejoin="round" stroke-width="3.257805916079314"/>
  <path d="M 56.56231009034129, 86.51931511084544 Q 56.948248165981624, 81.51351820104534, 57.253471036208985, 66.68285055498905 " fill="none" id="curve_8" stroke="#000000" stroke-linecap="round" stroke-linejoin="round" stroke-width="3.180676153465932"/>
  <path d="M 66.02316216154622, 66.55472341147185 Q 61.091042186164465, 66.1297219786402, 58.20013336910907, 64.03355876371445 " fill="none" id="curve_36" stroke="#000000" stroke-linecap="round" stroke-linejoin="round" stroke-width="2.564639461202987"/>
  <path d="M 59.454315864191216, 52.315288080392214 Q 59.470365906066846, 55.69477715029372, 59.492982128989595, 60.013721846064165 " fill="none" id="curve_37" stroke="#000000" stroke-linecap="round" stroke-linejoin="round" stroke-width="3.3831585520619964"/>
  <path d="M 56.76370483498583, 96.26136522364237 Q 57.0083442214637, 93.63745275689895, 57.4101031495, 90.2165837465431 " fill="none" id="curve_38" stroke="#000000" stroke-linecap="round" stroke-linejoin="round" stroke-width="3.333233055471341"/>
  <path d="M 33.21726429937674, 47.706603471711205 Q 36.85779346877434, 48.21205483193665, 42.80496955750812, 48.85587196711388 " fill="none" id="curve_40" stroke="#000000" stroke-linecap="round" stroke-linejoin="round" stroke-width="2.519530291893288"/>
  <path d="M 56.996048921520284, 80.3594600450635 Q 56.784607504889976, 75.41667786828808, 56.521173710435356, 65.56162566190952 " fill="none" id="curve_43" stroke="#000000" stroke-linecap="round" stroke-linejoin="round" stroke-width="2.529069194155945"/>
  <path d="M 27.133992426568355, 46.00099730205315 Q 30.38129848257783, 46.849745418150846, 37.84522684182604, 47.940603358843276 " fill="none" id="curve_79" stroke="#000000" stroke-linecap="round" stroke-linejoin="round" stroke-width="2.9678739043590285"/>
  <path d="M 49.37590641280707, 50.17144067051959 Q 48.24784402891365, 49.52954642100152, 43.87966950920099, 49.22423179591716 " fill="none" id="curve_95" stroke="#000000" stroke-linecap="round" stroke-linejoin="round" stroke-width="2.4345672733583803"/>
  <path d="M 34.979901961807286, 48.976630699588306 Q 35.91647129115396, 48.65823290780067, 37.43839217428091, 48.24915723912767 " fill="none" id="curve_96" stroke="#000000" stroke-linecap="round" stroke-linejoin="round" stroke-width="3.4239545505753415"/>
  <path d="M 25.091952443103924, 45.378966416442296 Q 25.668317330772307, 45.327575942554766, 26.749803890553004, 45.24445943465004 " fill="none" id="curve_97" stroke="#000000" stroke-linecap="round" stroke-linejoin="round" stroke-width="2.7920917966699457"/>
  <path d="M 57.09832524885496, 70.6938681449892 Q 56.39842484864086, 75.80911425747337, 55.0075448001568, 82.07303432235828 " fill="none" id="curve_112" stroke="#000000" stroke-linecap="round" stroke-linejoin="round" stroke-width="2.410960947586541"/>
  <path d="M 57.9154535873015, 65.46723182400842 Q 57.96733313908748, 61.14690522718777, 59.21530798378338, 60.581405730832 " fill="none" id="curve_127" stroke="#000000" stroke-linecap="round" stroke-linejoin="round" stroke-width="2.957530640499785"/>
  <path d="M 53.56209017946306, 49.5658847513354 Q 55.44543674480943, 50.397149357545366, 58.77800657007104, 51.55214047245383 " fill="none" id="curve_147" stroke="#000000" stroke-linecap="round" stroke-linejoin="round" stroke-width="3.4573566686540556"/>
</svg>
