<?xml version="1.0" ?>
<svg height="140" width="140" xmlns="http://www.w3.org/2000/svg">
  <path d="M 41.295562744140625, 13.015120506286621 Q 41.30841177171376, 6.147040857213032, 42.54934054323437, 5.696775406391225 " fill="none" id="curve_1" stroke="#000000" stroke-linecap="round" stroke-linejoin="round" stroke-width="16.454125401663582"/>
  <path d="M 42.54934054323437, 5.696775406391225 Q 38.646158109127626, 9.375737541583577, 6.238133077819612, 10.935053192679266 " fill="none" id="curve_1" stroke="#000000" stroke-linecap="round" stroke-linejoin="round" stroke-width="19.673822754272777"/>
  <path d="M 6.238133077819612, 10.935053192679266 Q 7.040186700026619, 33.523805481704116, 11.417428164529046, 46.35641196999086 " fill="none" id="curve_1" stroke="#000000" stroke-linecap="round" stroke-linejoin="round" stroke-width="20.181693120123064"/>
  <path d="M 11.417428164529046, 46.35641196999086 Q 14.043501209667774, 52.11472172241668, 18.206303923176964, 67.62900958094133 " fill="none" id="curve_1" stroke="#000000" stroke-linecap="round" stroke-linejoin="round" stroke-width="36.886609103306235"/>
  <path d="M 18.206303923176964, 67.62900958094133 Q 12.987467666679134, 70.12965495889779, 9.497426881241044, 92.64990309509767 " fill="none" id="curve_1" stroke="#000000" stroke-linecap="round" stroke-linejoin="round" stroke-width="13.126466647688165"/>
  <path d="M 9.497426881241044, 92.64990309509767 Q 9.807621193373613, 114.14190290423358, 10.671693759756526, 132.46995250019563 " fill="none" id="curve_1" stroke="#000000" stroke-linecap="round" stroke-linejoin="round" stroke-width="22.49174556100225"/>
  <path d="M 10.671693759756526, 132.46995250019563 Q 19.982765257922694, 127.02618291690963, 63.61438997347875, 123.90990020963682 " fill="none" id="curve_1" stroke="#000000" stroke-linecap="round" stroke-linejoin="round" stroke-width="31.45197716103979"/>
  <path d="M 63.61438997347875, 123.90990020963682 Q 67.231000034359, 118.39983447038661, 70.28944105167909, 97.40645023319257 " fill="none" id="curve_1" stroke="#000000" stroke-linecap="round" stroke-linejoin="round" stroke-width="38.38463971413762"/>
  <path d="M 72.73844674487634, 70.97314955923093 Q 71.06955511335468, 68.83392154545024, 70.17665814866348, 56.75314160320295 " fill="none" id="curve_2" stroke="#000000" stroke-linecap="round" stroke-linejoin="round" stroke-width="37.49084221311362"/>
  <path d="M 70.17665814866348, 56.75314160320295 Q 70.13357766188308, 48.024271460377776, 70.06996207313648, 32.04407098028196 " fill="none" id="curve_2" stroke="#000000" stroke-linecap="round" stroke-linejoin="round" stroke-width="39.68611862286028"/>
  <path d="M 70.06996207313648, 32.04407098028196 Q 71.11989259001622, 15.892849176200244, 79.01758321004024, 10.651283285350928 " fill="none" id="curve_2" stroke="#000000" stroke-linecap="round" stroke-linejoin="round" stroke-width="19.272517727082036"/>
  <path d="M 79.01758321004024, 10.651283285350928 Q 65.57091795246606, 11.184827042687784, 55.25818176941982, 13.116904220314154 " fill="none" id="curve_2" stroke="#000000" stroke-linecap="round" stroke-linejoin="round" stroke-width="23.72402419526893"/>
  <path d="M 55.25818176941982, 13.116904220314154 Q 49.33751234127081, 27.21666200625635, 28.036317903567465, 33.56675060722364 " fill="none" id="curve_2" stroke="#000000" stroke-linecap="round" stroke-linejoin="round" stroke-width="36.87224474297949"/>
  <path d="M 28.036317903567465, 33.56675060722364 Q 34.064366193685856, 49.45097135674351, 45.01020126419178, 62.74184050294889 " fill="none" id="curve_2" stroke="#000000" stroke-linecap="round" stroke-linejoin="round" stroke-width="28.490196868597746"/>
  <path d="M 45.01020126419178, 62.74184050294889 Q 43.43676170009397, 84.60206969109629, 35.19845091180912, 93.20622058841718 " fill="none" id="curve_2" stroke="#000000" stroke-linecap="round" stroke-linejoin="round" stroke-width="37.87426129881158"/>
  <path d="M 35.19845091180912, 93.20622058841718 Q 27.78641008673609, 97.56158853255596, 22.73755886035076, 110.04860373470319 " fill="none" id="curve_2" stroke="#000000" stroke-linecap="round" stroke-linejoin="round" stroke-width="18.44046184097428"/>
  <path d="M 74.08393599467388, 135.08918227884305 Q 78.61344146347363, 134.89459281760188, 84.83109452204815, 134.65185258793963 " fill="none" id="curve_3" stroke="#000000" stroke-linecap="round" stroke-linejoin="round" stroke-width="11.129115539861013"/>
  <path d="M 84.83109452204815, 134.65185258793963 Q 86.61513227984247, 128.11361611493862, 87.59988240945341, 76.59028440308418 " fill="none" id="curve_3" stroke="#000000" stroke-linecap="round" stroke-linejoin="round" stroke-width="7.632206791013831"/>
  <path d="M 72.44181167897742, 83.49768200285514 Q 63.79050890721257, 97.7132664545195, 34.59904801663916, 111.61745735771736 " fill="none" id="curve_4" stroke="#000000" stroke-linecap="round" stroke-linejoin="round" stroke-width="10.973086917256735"/>
  <path d="M 34.59904801663916, 111.61745735771736 Q 35.9698261659606, 130.88347902677697, 48.0298618670622, 134.39523586385272 " fill="none" id="curve_4" stroke="#000000" stroke-linecap="round" stroke-linejoin="round" stroke-width="8.100971181807193"/>
  <path d="M 76.13953997361621, 138.0987953375016 Q 55.4652781538357, 137.79720713726783, 23.355044003368732, 137.26824450106398 " fill="none" id="curve_6" stroke="#000000" stroke-linecap="round" stroke-linejoin="round" stroke-width="5.368938783629286"/>
  <path d="M 52.39144533491225, 85.71343120194132 Q 56.75842992212189, 83.68029854402702, 61.44540474070637, 79.90505040878138 " fill="none" id="curve_7" stroke="#000000" stroke-linecap="round" stroke-linejoin="round" stroke-width="6.052041342318291"/>
  <path d="M 61.44540474070637, 79.90505040878138 Q 67.85308081021331, 74.33378639675367, 91.43933161966389, 71.38884368084334 " fill="none" id="curve_7" stroke="#000000" stroke-linecap="round" stroke-linejoin="round" stroke-width="6.117827495973006"/>
  <path d="M 91.43933161966389, 71.38884368084334 Q 88.57144602376927, 70.1132445267031, 87.67003169880113, 61.34732934200824 " fill="none" id="curve_7" stroke="#000000" stroke-linecap="round" stroke-linejoin="round" stroke-width="6.419261984113122"/>
  <path d="M 87.67003169880113, 61.34732934200824 Q 88.05820192656068, 50.81593453609488, 88.63294558056772, 24.466744913441254 " fill="none" id="curve_7" stroke="#000000" stroke-linecap="round" stroke-linejoin="round" stroke-width="5.15214996666837"/>
  <path d="M 88.63294558056772, 24.466744913441254 Q 88.33714794891213, 10.31559430581134, 87.17811612947823, 2.9926981776357664 " fill="none" id="curve_7" stroke="#000000" stroke-linecap="round" stroke-linejoin="round" stroke-width="6.598440317843212"/>
  <path d="M 51.16182248964336, 38.797284754084835 Q 51.1530315534748, 44.627577918384915, 51.13328691683923, 49.534889307571746 " fill="none" id="curve_8" stroke="#000000" stroke-linecap="round" stroke-linejoin="round" stroke-width="6.034430710998803"/>
  <path d="M 86.89959695635481, 3.221086211788325 Q 68.6741810059246, 3.287784208897909, 47.10035827627408, 3.442952413445821 " fill="none" id="curve_10" stroke="#000000" stroke-linecap="round" stroke-linejoin="round" stroke-width="4.736989332262592"/>
  <path d="M 47.10035827627408, 3.442952413445821 Q 34.0277488754888, 3.041756960093723, 11.45826914088505, 2.181546718592765 " fill="none" id="curve_10" stroke="#000000" stroke-linecap="round" stroke-linejoin="round" stroke-width="4.9370876773342935"/>
  <path d="M 11.45826914088505, 2.181546718592765 Q 13.669531551833543, 14.700161849270426, 22.917404364627846, 24.241299609065663 " fill="none" id="curve_10" stroke="#000000" stroke-linecap="round" stroke-linejoin="round" stroke-width="7.304478687226433"/>
  <path d="M 22.917404364627846, 24.241299609065663 Q 20.0304017607927, 19.935286656616242, 8.786293493595542, 9.962001661683141 " fill="none" id="curve_10" stroke="#000000" stroke-linecap="round" stroke-linejoin="round" stroke-width="4.802703199634473"/>
  <path d="M 8.786293493595542, 9.962001661683141 Q 8.16831164038181, 4.289674287961567, 2.8430142186613363, 2.333461007846247 " fill="none" id="curve_10" stroke="#000000" stroke-linecap="round" stroke-linejoin="round" stroke-width="5.64909275818862"/>
  <path d="M 5.630664568043898, 50.522394956606405 Q 4.296119132268606, 64.34474503928423, 2.1446909620345282, 79.9064039439488 " fill="none" id="curve_12" stroke="#000000" stroke-linecap="round" stroke-linejoin="round" stroke-width="3.575780914703974"/>
  <path d="M 2.1446909620345282, 79.9064039439488 Q 2.6664374897940237, 105.49370761283478, 6.234910931823727, 117.56811356181336 " fill="none" id="curve_12" stroke="#000000" stroke-linecap="round" stroke-linejoin="round" stroke-width="3.1002055477687853"/>
  <path d="M 45.707012824180836, 111.43477874634193 Q 68.90858029683913, 112.79172713538182, 82.09540988345478, 119.43388214234263 " fill="none" id="curve_13" stroke="#000000" stroke-linecap="round" stroke-linejoin="round" stroke-width="3.0655274830644963"/>
  <path d="M 76.93123635207763, 130.059253725959 Q 79.01308466443727, 127.49595838236664, 80.93535456011122, 122.15340271949603 " fill="none" id="curve_14" stroke="#000000" stroke-linecap="round" stroke-linejoin="round" stroke-width="4.312389234136293"/>
  <path d="M 89.39024055786079, 139.33773580786 Q 89.24208474045737, 138.25884757435486, 89.02299737474351, 136.87684357198697 " fill="none" id="curve_15" stroke="#000000" stroke-linecap="round" stroke-linejoin="round" stroke-width="2.8901082319329587"/>
  <path d="M 80.71422810170367, 84.05851400317744 Q 82.44748055629768, 84.59510224402175, 83.37529149966184, 86.90872472102 " fill="none" id="curve_17" stroke="#000000" stroke-linecap="round" stroke-linejoin="round" stroke-width="5.134092932771157"/>
  <path d="M 20.578516860806552, 84.20783295694977 Q 17.172264527172324, 85.77998248205316, 16.30224459751481, 94.82498519460648 " fill="none" id="curve_25" stroke="#000000" stroke-linecap="round" stroke-linejoin="round" stroke-width="3.9581897967270474"/>
  <path d="M 1.4976898655919468, 105.59731873654285 Q 2.5537872546299734, 117.10815126313503, 7.629499892480602, 125.5155009768736 " fill="none" id="curve_28" stroke="#000000" stroke-linecap="round" stroke-linejoin="round" stroke-width="1.740353217252358"/>
  <path d="M 2.084560626983997, 138.62343220201134 Q 2.502966205127089, 138.35147383372143, 2.8918156682865765, 137.78358870173952 " fill="none" id="curve_29" stroke="#000000" stroke-linecap="round" stroke-linejoin="round" stroke-width="3.8732515605282662"/>
</svg>
