<?xml version="1.0" ?>
<svg height="140" width="140" xmlns="http://www.w3.org/2000/svg">
  <path d="M 10.71316373348236, 58.77879524230957 Q 9.67894525273281, 58.847711105687424, 9.113226468178055, 59.217800896664606 " fill="none" id="curve_1" stroke="#000000" stroke-linecap="round" stroke-linejoin="round" stroke-width="5.393630599905097"/>
  <path d="M 9.113226468178055, 59.217800896664606 Q 10.92187796375407, 60.137510713591105, 16.545771189635694, 60.758327968348276 " fill="none" id="curve_1" stroke="#000000" stroke-linecap="round" stroke-linejoin="round" stroke-width="6.059117684961716"/>
  <path d="M 16.545771189635694, 60.758327968348276 Q 28.972110896320437, 59.80379054701573, 44.2880613935599, 57.276363942610885 " fill="none" id="curve_1" stroke="#000000" stroke-linecap="round" stroke-linejoin="round" stroke-width="5.403048511091455"/>
  <path d="M 44.2880613935599, 57.276363942610885 Q 50.920226479019746, 56.7164417846274, 53.078577069009924, 54.11401381353565 " fill="none" id="curve_1" stroke="#000000" stroke-linecap="round" stroke-linejoin="round" stroke-width="5.480408806856955"/>
  <path d="M 53.078577069009924, 54.11401381353565 Q 54.0902366139159, 60.61137037156129, 54.609145429579215, 73.32848959620692 " fill="none" id="curve_1" stroke="#000000" stroke-linecap="round" stroke-linejoin="round" stroke-width="6.25549006063014"/>
  <path d="M 54.609145429579215, 73.32848959620692 Q 51.68157332699927, 85.81508928197164, 41.00476143751035, 101.12958598293446 " fill="none" id="curve_1" stroke="#000000" stroke-linecap="round" stroke-linejoin="round" stroke-width="4.98266704173169"/>
  <path d="M 41.00476143751035, 101.12958598293446 Q 41.02016881108552, 107.4318657038556, 41.07954348323591, 110.16145804018456 " fill="none" id="curve_1" stroke="#000000" stroke-linecap="round" stroke-linejoin="round" stroke-width="4.186535916059897"/>
  <path d="M 31.490178969417713, 84.89086718279628 Q 47.17195477108268, 83.73424355826187, 59.72195988363579, 80.51004544094118 " fill="none" id="curve_2" stroke="#000000" stroke-linecap="round" stroke-linejoin="round" stroke-width="6.249476723328289"/>
  <path d="M 59.72195988363579, 80.51004544094118 Q 64.43620082600218, 78.32464673579803, 74.921683640243, 76.84336636140578 " fill="none" id="curve_2" stroke="#000000" stroke-linecap="round" stroke-linejoin="round" stroke-width="3.746482293492247"/>
  <path d="M 45.888491225468925, 98.04028745678951 Q 44.43954184219505, 101.60076841504295, 42.47056265688717, 104.81183445856891 " fill="none" id="curve_3" stroke="#000000" stroke-linecap="round" stroke-linejoin="round" stroke-width="3.800950755456963"/>
  <path d="M 32.014682479663776, 83.29562784020123 Q 34.56570948043612, 82.6160941844041, 43.7210624601413, 82.2420494811623 " fill="none" id="curve_4" stroke="#000000" stroke-linecap="round" stroke-linejoin="round" stroke-width="3.9807453555647925"/>
  <path d="M 33.95099865650795, 86.76208471754629 Q 34.536020676033154, 86.58791188417267, 35.18530200945179, 86.06836117759731 " fill="none" id="curve_7" stroke="#000000" stroke-linecap="round" stroke-linejoin="round" stroke-width="2.7475677204893514"/>
  <path d="M 24.910451881363322, 59.5103901388918 Q 19.91912490586683, 58.87823088324225, 11.471727162626369, 58.052316999210994 " fill="none" id="curve_8" stroke="#000000" stroke-linecap="round" stroke-linejoin="round" stroke-width="2.8643597712720648"/>
  <path d="M 45.07493585081805, 56.84471617151034 Q 48.613739211173936, 55.43736835455191, 51.68511068862524, 52.9503294822715 " fill="none" id="curve_11" stroke="#000000" stroke-linecap="round" stroke-linejoin="round" stroke-width="3.170915956998943"/>
  <path d="M 47.8071883989416, 96.44483704140575 Q 47.90537438503149, 81.40353913609552, 49.23433187833148, 77.81721860262164 " fill="none" id="curve_12" stroke="#000000" stroke-linecap="round" stroke-linejoin="round" stroke-width="3.4111691807796807"/>
  <path d="M 38.35262502570545, 58.472755507786 Q 32.33615014575619, 58.48244203481736, 26.71695172241823, 58.5079366695691 " fill="none" id="curve_15" stroke="#000000" stroke-linecap="round" stroke-linejoin="round" stroke-width="3.096198829029793"/>
  <path d="M 53.975030732722416, 67.97349948727904 Q 55.83643730223085, 67.22730363757017, 56.29867110728072, 62.48103771624834 " fill="none" id="curve_31" stroke="#000000" stroke-linecap="round" stroke-linejoin="round" stroke-width="3.3128778270533448"/>
  <path d="M 32.16563854891377, 84.5646072516614 Q 31.65848667309992, 84.19082535778185, 31.00986833255972, 83.6275164559001 " fill="none" id="curve_33" stroke="#000000" stroke-linecap="round" stroke-linejoin="round" stroke-width="3.5238644228718"/>
  <path d="M 33.78477089397508, 58.550585814357056 Q 29.106468839047555, 58.523895001956866, 25.458494601226413, 58.4298237457077 " fill="none" id="curve_41" stroke="#000000" stroke-linecap="round" stroke-linejoin="round" stroke-width="3.3227939092464105"/>
  <path d="M 46.96108332583104, 90.49981223078655 Q 47.230072858514504, 88.71819673672003, 47.62282882029923, 84.70317337165805 " fill="none" id="curve_43" stroke="#000000" stroke-linecap="round" stroke-linejoin="round" stroke-width="3.5293452630140605"/>
  <path d="M 51.297082682414384, 61.680651741340625 Q 51.18091098665, 58.98437953477847, 50.67552506872369, 56.83660711470339 " fill="none" id="curve_58" stroke="#000000" stroke-linecap="round" stroke-linejoin="round" stroke-width="2.710060267772752"/>
  <path d="M 18.09433274843491, 62.030763376131716 Q 18.01378793556774, 62.88411520181688, 17.784007413308487, 63.419848724654905 " fill="none" id="curve_59" stroke="#000000" stroke-linecap="round" stroke-linejoin="round" stroke-width="2.9684134605352908"/>
  <path d="M 60.81733921768421, 78.96856197783688 Q 57.36185255034685, 78.33102690331908, 51.57695999685531, 77.30950800325657 " fill="none" id="curve_74" stroke="#000000" stroke-linecap="round" stroke-linejoin="round" stroke-width="2.734692775614166"/>
  <path d="M 37.135988111752646, 59.72195420843405 Q 38.91770830486405, 57.606662730569944, 48.950660092197595, 56.31114241158312 " fill="none" id="curve_107" stroke="#000000" stroke-linecap="round" stroke-linejoin="round" stroke-width="2.3618712265877178"/>
</svg>
