<?xml version="1.0" ?>
<svg height="140" width="140" xmlns="http://www.w3.org/2000/svg">
  <path d="M 87.36410903930664, 78.09700202941895 Q 88.01664268080121, 78.0247692221206, 88.11124916693143, 76.70455034314993 " fill="none" id="curve_1" stroke="#000000" stroke-linecap="round" stroke-linejoin="round" stroke-width="5.791845023682264"/>
  <path d="M 88.11124916693143, 76.70455034314993 Q 87.69013193285026, 77.44544077216231, 78.59559951262801, 77.52460961530433 " fill="none" id="curve_1" stroke="#000000" stroke-linecap="round" stroke-linejoin="round" stroke-width="5.825083857847028"/>
  <path d="M 78.59559951262801, 77.52460961530433 Q 68.66504985782781, 77.31322876629727, 54.46101288126623, 76.94328990571407 " fill="none" id="curve_1" stroke="#000000" stroke-linecap="round" stroke-linejoin="round" stroke-width="5.532601497413204"/>
  <path d="M 54.46101288126623, 76.94328990571407 Q 54.010551033207406, 93.39705593872992, 50.775763032209404, 109.01606500289381 " fill="none" id="curve_1" stroke="#000000" stroke-linecap="round" stroke-linejoin="round" stroke-width="4.801235571595997"/>
  <path d="M 50.775763032209404, 109.01606500289381 Q 48.142695326592936, 125.18423512946757, 41.49485475612562, 137.6526903372635 " fill="none" id="curve_1" stroke="#000000" stroke-linecap="round" stroke-linejoin="round" stroke-width="5.756395515138095"/>
  <path d="M 41.49485475612562, 137.6526903372635 Q 42.433880509823474, 136.33621856647446, 43.24443781762671, 133.93491898097577 " fill="none" id="curve_1" stroke="#000000" stroke-linecap="round" stroke-linejoin="round" stroke-width="6.142362630520775"/>
  <path d="M 44.97947416711754, 76.19549115462448 Q 50.95705239313773, 76.14135839429711, 54.86309667096925, 75.97025100220162 " fill="none" id="curve_2" stroke="#000000" stroke-linecap="round" stroke-linejoin="round" stroke-width="4.358378508948292"/>
  <path d="M 54.86309667096925, 75.97025100220162 Q 54.5981193566146, 68.06071142701127, 54.13754193077848, 38.11643217500725 " fill="none" id="curve_2" stroke="#000000" stroke-linecap="round" stroke-linejoin="round" stroke-width="5.082723678714758"/>
  <path d="M 54.13754193077848, 38.11643217500725 Q 56.26261034185725, 20.539087198092332, 69.94493430102406, 11.442589137157697 " fill="none" id="curve_2" stroke="#000000" stroke-linecap="round" stroke-linejoin="round" stroke-width="5.782099387162542"/>
  <path d="M 69.94493430102406, 11.442589137157697 Q 68.38540337369056, 9.514812088986387, 37.943802683831585, 9.096502560890249 " fill="none" id="curve_2" stroke="#000000" stroke-linecap="round" stroke-linejoin="round" stroke-width="4.505019087358061"/>
  <path d="M 37.943802683831585, 9.096502560890249 Q 34.584732844428494, 11.439728251507734, 8.022679807766721, 12.20869914619186 " fill="none" id="curve_2" stroke="#000000" stroke-linecap="round" stroke-linejoin="round" stroke-width="5.907284605371926"/>
  <path d="M 8.022679807766721, 12.20869914619186 Q 20.09024759717146, 10.549255286161378, 40.08512080582617, 8.743509262669207 " fill="none" id="curve_2" stroke="#000000" stroke-linecap="round" stroke-linejoin="round" stroke-width="3.0588642261060057"/>
  <path d="M 72.8686484325739, 12.992526129661975 Q 72.78040074693368, 12.697351343337834, 72.72922723695373, 11.768020734652758 " fill="none" id="curve_3" stroke="#000000" stroke-linecap="round" stroke-linejoin="round" stroke-width="6.007006390004485"/>
  <path d="M 48.006772588824084, 75.90369396320921 Q 34.73004261231159, 74.4276670872491, 14.78130623150706, 70.20942554214244 " fill="none" id="curve_5" stroke="#000000" stroke-linecap="round" stroke-linejoin="round" stroke-width="5.346360129464524"/>
  <path d="M 14.78130623150706, 70.20942554214244 Q 12.16233879307405, 69.76014791301719, 9.717394776227213, 69.06396277386808 " fill="none" id="curve_5" stroke="#000000" stroke-linecap="round" stroke-linejoin="round" stroke-width="4.211279010378319"/>
  <path d="M 57.156925833496494, 49.6979744858493 Q 55.41819092360127, 44.503870265258975, 53.48372975047356, 35.03321575667811 " fill="none" id="curve_7" stroke="#000000" stroke-linecap="round" stroke-linejoin="round" stroke-width="3.7276722747254065"/>
  <path d="M 51.43655487469725, 69.83730467886079 Q 51.97717777920689, 75.55301784669874, 53.02307038407864, 79.93824741530554 " fill="none" id="curve_8" stroke="#000000" stroke-linecap="round" stroke-linejoin="round" stroke-width="3.1643157537695643"/>
  <path d="M 37.26435205992986, 72.86196371707018 Q 45.444796732754796, 73.8192288663549, 50.515816628689876, 76.12632823795566 " fill="none" id="curve_9" stroke="#000000" stroke-linecap="round" stroke-linejoin="round" stroke-width="3.14763710437993"/>
  <path d="M 50.515816628689876, 76.12632823795566 Q 62.57602573893093, 76.06180170390462, 80.88353904090542, 75.96740331464453 " fill="none" id="curve_9" stroke="#000000" stroke-linecap="round" stroke-linejoin="round" stroke-width="3.262237199510254"/>
  <path d="M 48.83070080055842, 106.70584638050285 Q 47.422600824768374, 120.46276857369142, 41.701414897595875, 135.46476966749975 " fill="none" id="curve_10" stroke="#000000" stroke-linecap="round" stroke-linejoin="round" stroke-width="3.317290918431478"/>
  <path d="M 41.701414897595875, 135.46476966749975 Q 43.524155249344105, 134.2700001119976, 45.15151202368298, 132.61587237098956 " fill="none" id="curve_10" stroke="#000000" stroke-linecap="round" stroke-linejoin="round" stroke-width="7.384508237651433"/>
  <path d="M 45.15151202368298, 132.61587237098956 Q 42.187892928962114, 133.0816004848832, 40.427927016076566, 134.23591769549253 " fill="none" id="curve_10" stroke="#000000" stroke-linecap="round" stroke-linejoin="round" stroke-width="4.943998374017359"/>
  <path d="M 52.34877708727008, 66.4995927228803 Q 52.73660075358977, 61.13146359068378, 53.159676105558226, 49.35355858288176 " fill="none" id="curve_12" stroke="#000000" stroke-linecap="round" stroke-linejoin="round" stroke-width="2.4955053350580094"/>
  <path d="M 53.159676105558226, 49.35355858288176 Q 53.68788622565908, 43.942647703457595, 54.25802671696364, 36.45892480739348 " fill="none" id="curve_12" stroke="#000000" stroke-linecap="round" stroke-linejoin="round" stroke-width="4.100518502548353"/>
  <path d="M 54.25802671696364, 36.45892480739348 Q 55.74316249831407, 37.443664421786735, 56.12142727513961, 43.35812304815455 " fill="none" id="curve_12" stroke="#000000" stroke-linecap="round" stroke-linejoin="round" stroke-width="4.255121292189949"/>
  <path d="M 18.418867670996704, 72.57092706982911 Q 38.614776586494266, 73.5307448172129, 45.7396642805964, 77.97413222682314 " fill="none" id="curve_14" stroke="#000000" stroke-linecap="round" stroke-linejoin="round" stroke-width="2.703236210958386"/>
  <path d="M 29.503212721809952, 72.01300358412792 Q 37.684721593888185, 72.76713647606242, 41.63705209117967, 75.19973604298005 " fill="none" id="curve_15" stroke="#000000" stroke-linecap="round" stroke-linejoin="round" stroke-width="2.3170178467033997"/>
  <path d="M 52.46524959801306, 48.95329511228987 Q 52.55230506202471, 32.49919232388886, 54.0516964608454, 29.81207557079418 " fill="none" id="curve_16" stroke="#000000" stroke-linecap="round" stroke-linejoin="round" stroke-width="2.7597293259721463"/>
  <path d="M 41.71489559380339, 7.93155195172767 Q 37.54802623594096, 7.877852089985822, 34.21352429024772, 7.734195931466398 " fill="none" id="curve_17" stroke="#000000" stroke-linecap="round" stroke-linejoin="round" stroke-width="2.808203096082846"/>
  <path d="M 40.234742275511046, 10.439186253055649 Q 40.6687436862173, 10.054772983394336, 42.981480570006404, 9.723374577399888 " fill="none" id="curve_18" stroke="#000000" stroke-linecap="round" stroke-linejoin="round" stroke-width="2.882048259507447"/>
  <path d="M 87.17407116420347, 79.4035513590565 Q 88.4972973165798, 79.30804474354838, 89.57393579650306, 79.11858014983551 " fill="none" id="curve_21" stroke="#000000" stroke-linecap="round" stroke-linejoin="round" stroke-width="2.709306696730519"/>
  <path d="M 66.05603935453193, 75.08526691404104 Q 65.94306022003558, 74.74405060944443, 65.78822576158416, 74.32278500642309 " fill="none" id="curve_22" stroke="#000000" stroke-linecap="round" stroke-linejoin="round" stroke-width="3.3924770167214278"/>
  <path d="M 58.95346448802229, 75.05706614154337 Q 57.4200972104369, 73.90845442929239, 53.713662851455744, 72.6881218286409 " fill="none" id="curve_37" stroke="#000000" stroke-linecap="round" stroke-linejoin="round" stroke-width="2.508864071036638"/>
  <path d="M 53.191294710417374, 89.59963184941118 Q 53.62843263290062, 85.31126450812633, 54.032889488700235, 75.270408595448 " fill="none" id="curve_38" stroke="#000000" stroke-linecap="round" stroke-linejoin="round" stroke-width="2.294381800711854"/>
  <path d="M 72.26894464255031, 14.49471214685905 Q 68.70075038913583, 14.062786439034994, 63.23887535932151, 13.317922070024418 " fill="none" id="curve_55" stroke="#000000" stroke-linecap="round" stroke-linejoin="round" stroke-width="2.366738663939258"/>
  <path d="M 25.651433983557126, 74.20532328595607 Q 25.15233045910017, 73.83346141850664, 24.214682925082315, 73.22289350200165 " fill="none" id="curve_122" stroke="#000000" stroke-linecap="round" stroke-linejoin="round" stroke-width="2.733146947404174"/>
</svg>
