<?xml version="1.0" ?>
<svg height="140" width="140" xmlns="http://www.w3.org/2000/svg">
  <path d="M 23.061729907989502, 28.540742874145508 Q 23.225005142861754, 26.91208994791263, 25.655182245775, 26.555266134501835 " fill="none" id="curve_1" stroke="#000000" stroke-linecap="round" stroke-linejoin="round" stroke-width="8.482711736522392"/>
  <path d="M 25.655182245775, 26.555266134501835 Q 34.2440542293044, 28.326050570584353, 46.69864004042276, 32.75074631633925 " fill="none" id="curve_1" stroke="#000000" stroke-linecap="round" stroke-linejoin="round" stroke-width="6.116421643185379"/>
  <path d="M 46.69864004042276, 32.75074631633925 Q 49.58749316260521, 36.73297465560691, 52.08534529220358, 41.88061829849332 " fill="none" id="curve_1" stroke="#000000" stroke-linecap="round" stroke-linejoin="round" stroke-width="9.905401622979964"/>
  <path d="M 52.08534529220358, 41.88061829849332 Q 51.09235907990565, 62.79323476235035, 38.22531717101428, 76.52818331825063 " fill="none" id="curve_1" stroke="#000000" stroke-linecap="round" stroke-linejoin="round" stroke-width="5.418024709634468"/>
  <path d="M 38.22531717101428, 76.52818331825063 Q 34.342900035561705, 90.76235832139253, 17.87582002727775, 115.2319629092185 " fill="none" id="curve_1" stroke="#000000" stroke-linecap="round" stroke-linejoin="round" stroke-width="6.1674040182817"/>
  <path d="M 17.87582002727775, 115.2319629092185 Q 16.65828576481685, 123.84967882096926, 13.195969707471136, 127.19765427707074 " fill="none" id="curve_1" stroke="#000000" stroke-linecap="round" stroke-linejoin="round" stroke-width="8.744437500511316"/>
  <path d="M 53.32044669682732, 87.11764521568507 Q 43.076506142360444, 79.0014830275533, 14.542943298655914, 62.526857424679065 " fill="none" id="curve_2" stroke="#000000" stroke-linecap="round" stroke-linejoin="round" stroke-width="6.28304307087648"/>
  <path d="M 14.542943298655914, 62.526857424679065 Q 19.713973785554927, 62.64539432964342, 22.623030040347288, 63.37547766570308 " fill="none" id="curve_2" stroke="#000000" stroke-linecap="round" stroke-linejoin="round" stroke-width="5.345356550193528"/>
  <path d="M 56.723757974521284, 90.77291171712346 Q 52.64411700669594, 86.83434108946028, 43.50601967202745, 79.69905517352335 " fill="none" id="curve_3" stroke="#000000" stroke-linecap="round" stroke-linejoin="round" stroke-width="3.3981903964270765"/>
  <path d="M 21.966808963593728, 30.334092641960446 Q 41.379304819497854, 32.55310704711811, 53.583723234974656, 38.47609623684954 " fill="none" id="curve_5" stroke="#000000" stroke-linecap="round" stroke-linejoin="round" stroke-width="3.3779499515301032"/>
  <path d="M 20.995557098012796, 64.98525945982391 Q 26.247315098364787, 69.9289166799994, 40.58114895372816, 78.69869379323187 " fill="none" id="curve_6" stroke="#000000" stroke-linecap="round" stroke-linejoin="round" stroke-width="4.739912497051157"/>
  <path d="M 40.58114895372816, 78.69869379323187 Q 33.36237568536305, 73.52855111010834, 15.217746598078953, 63.54989056998861 " fill="none" id="curve_6" stroke="#000000" stroke-linecap="round" stroke-linejoin="round" stroke-width="3.8662945244623503"/>
  <path d="M 15.217746598078953, 63.54989056998861 Q 25.43295433533681, 69.72494675024029, 44.36271757990187, 81.41295454153766 " fill="none" id="curve_6" stroke="#000000" stroke-linecap="round" stroke-linejoin="round" stroke-width="4.6235087746527865"/>
  <path d="M 26.078404096733873, 66.66004794238296 Q 20.889506766405685, 65.92905579722954, 14.336123935715937, 64.61639266727553 " fill="none" id="curve_7" stroke="#000000" stroke-linecap="round" stroke-linejoin="round" stroke-width="7.218521820196427"/>
  <path d="M 90.08787942024408, 59.30033122019717 Q 89.98064598519225, 70.4700534000574, 89.56845089018462, 95.80334255930777 " fill="none" id="curve_11" stroke="#000000" stroke-linecap="round" stroke-linejoin="round" stroke-width="1.6720373534231543"/>
  <path d="M 89.44879129955523, 105.42560144160463 Q 89.42537074405739, 109.0934643874738, 89.3975693000383, 117.2099643341344 " fill="none" id="curve_12" stroke="#000000" stroke-linecap="round" stroke-linejoin="round" stroke-width="1.3236198033214694"/>
  <path d="M 89.60849611071453, 137.70164798160494 Q 89.5971299360706, 135.11758358297266, 89.58494068126686, 129.5932022403294 " fill="none" id="curve_13" stroke="#000000" stroke-linecap="round" stroke-linejoin="round" stroke-width="1.6203617153369532"/>
  <path d="M 89.3766673965663, 124.40452739062304 Q 89.47843769237603, 124.48692998664332, 89.63270183483172, 124.67033914794436 " fill="none" id="curve_14" stroke="#000000" stroke-linecap="round" stroke-linejoin="round" stroke-width="1.9009932892760402"/>
  <path d="M 54.26344332663105, 88.50481001547197 Q 49.62905670953145, 84.84371226575796, 41.194275633144024, 77.58737614999491 " fill="none" id="curve_15" stroke="#000000" stroke-linecap="round" stroke-linejoin="round" stroke-width="4.822413213202421"/>
  <path d="M 41.194275633144024, 77.58737614999491 Q 51.480488422726225, 78.92759304626763, 53.65773463474019, 89.11295459309818 " fill="none" id="curve_15" stroke="#000000" stroke-linecap="round" stroke-linejoin="round" stroke-width="3.4121395959432763"/>
  <path d="M 53.65773463474019, 89.11295459309818 Q 47.34538945717732, 85.4924217636003, 36.25880360429734, 79.92292981166227 " fill="none" id="curve_15" stroke="#000000" stroke-linecap="round" stroke-linejoin="round" stroke-width="3.4131446311116145"/>
  <path d="M 36.25880360429734, 79.92292981166227 Q 32.09080996009004, 85.45788115165297, 22.86288148876561, 102.44015590396928 " fill="none" id="curve_15" stroke="#000000" stroke-linecap="round" stroke-linejoin="round" stroke-width="3.2021878902758054"/>
  <path d="M 22.86288148876561, 102.44015590396928 Q 19.749759424812147, 111.08275942002247, 12.625451234458678, 120.82885480182846 " fill="none" id="curve_15" stroke="#000000" stroke-linecap="round" stroke-linejoin="round" stroke-width="3.702093916264741"/>
  <path d="M 12.625451234458678, 120.82885480182846 Q 13.754165367847976, 123.82112926205617, 17.720963993871877, 124.9694121981044 " fill="none" id="curve_15" stroke="#000000" stroke-linecap="round" stroke-linejoin="round" stroke-width="5.496067681429013"/>
  <path d="M 31.669620186595893, 76.25263159419792 Q 26.087074676866983, 69.7764758744822, 14.708012552325023, 60.064067429014216 " fill="none" id="curve_17" stroke="#000000" stroke-linecap="round" stroke-linejoin="round" stroke-width="4.050145689105298"/>
  <path d="M 14.708012552325023, 60.064067429014216 Q 26.665308219348226, 66.48783877010554, 44.01756381033121, 77.69568667060064 " fill="none" id="curve_17" stroke="#000000" stroke-linecap="round" stroke-linejoin="round" stroke-width="3.4599276757745376"/>
  <path d="M 14.48707414627901, 61.48003021395399 Q 16.845029093854528, 60.99792134043418, 18.884612839500722, 59.129484651299556 " fill="none" id="curve_18" stroke="#000000" stroke-linecap="round" stroke-linejoin="round" stroke-width="3.7932471323840042"/>
  <path d="M 14.685323458390322, 66.98462459770022 Q 25.1691099329211, 70.262264566263, 36.215655097024516, 75.67982230635592 " fill="none" id="curve_19" stroke="#000000" stroke-linecap="round" stroke-linejoin="round" stroke-width="2.524498782612863"/>
  <path d="M 20.43638860475091, 107.5288024239803 Q 20.557514050797092, 109.50955802453407, 21.14487572828469, 110.93693416896113 " fill="none" id="curve_21" stroke="#000000" stroke-linecap="round" stroke-linejoin="round" stroke-width="6.255927951739439"/>
  <path d="M 21.14487572828469, 110.93693416896113 Q 21.442596642632598, 107.32846431700723, 24.093213387300338, 106.35995193443966 " fill="none" id="curve_21" stroke="#000000" stroke-linecap="round" stroke-linejoin="round" stroke-width="3.838869356110702"/>
  <path d="M 89.07212959255139, 54.83327932408038 Q 89.51506578435686, 52.402176346592775, 89.84269856402206, 40.18956418691286 " fill="none" id="curve_24" stroke="#000000" stroke-linecap="round" stroke-linejoin="round" stroke-width="1.9560047164074423"/>
  <path d="M 89.23599153238217, 7.297026603409336 Q 89.19751250822402, 2.9099000500192185, 89.04187499308023, 1.0403578924728114 " fill="none" id="curve_26" stroke="#000000" stroke-linecap="round" stroke-linejoin="round" stroke-width="2.128795940580532"/>
  <path d="M 89.5116603929952, 26.438370982515522 Q 89.52554140223927, 24.53810674791344, 89.53502565664583, 17.880234747539273 " fill="none" id="curve_28" stroke="#000000" stroke-linecap="round" stroke-linejoin="round" stroke-width="1.205201047568031"/>
  <path d="M 89.59159393304179, 11.948730117723125 Q 89.5228890547275, 11.62762104603502, 89.45719956369, 10.97098707513149 " fill="none" id="curve_29" stroke="#000000" stroke-linecap="round" stroke-linejoin="round" stroke-width="2.02432615630134"/>
  <path d="M 48.92336861852053, 39.01710267966444 Q 50.77132677763458, 38.01287829911609, 52.18282870363712, 35.58457341430373 " fill="none" id="curve_35" stroke="#000000" stroke-linecap="round" stroke-linejoin="round" stroke-width="4.3485773694899965"/>
  <path d="M 35.042669020065546, 80.04981987084113 Q 37.81062012394392, 78.83153785325722, 41.734953788953256, 75.74848439450776 " fill="none" id="curve_50" stroke="#000000" stroke-linecap="round" stroke-linejoin="round" stroke-width="2.708655408962169"/>
  <path d="M 50.25758416158865, 54.604591309529255 Q 45.47359231486571, 60.7962997190267, 40.72803625200261, 72.61009184579714 " fill="none" id="curve_51" stroke="#000000" stroke-linecap="round" stroke-linejoin="round" stroke-width="3.089986169559064"/>
  <path d="M 34.19801907998536, 80.02390318608016 Q 36.39315406681854, 78.82760459228804, 42.61403106160395, 77.10670329012744 " fill="none" id="curve_80" stroke="#000000" stroke-linecap="round" stroke-linejoin="round" stroke-width="2.3384078611336063"/>
  <path d="M 11.04896626643204, 124.86644257780048 Q 11.60682191733273, 124.89173393685451, 12.41282078010051, 124.9318316819817 " fill="none" id="curve_82" stroke="#000000" stroke-linecap="round" stroke-linejoin="round" stroke-width="4.816944694455236"/>
  <path d="M 22.627957149040384, 106.55483355234024 Q 22.11747757324115, 107.12680157124682, 21.000823189082887, 108.26533146735012 " fill="none" id="curve_86" stroke="#000000" stroke-linecap="round" stroke-linejoin="round" stroke-width="3.4992017317611452"/>
  <path d="M 23.18639607142032, 105.72615236954704 Q 21.22193089684642, 106.30411267535288, 19.717743409235492, 108.32022722011907 " fill="none" id="curve_101" stroke="#000000" stroke-linecap="round" stroke-linejoin="round" stroke-width="4.103755564847177"/>
  <path d="M 28.964718434369228, 71.21292852744932 Q 27.97004939500315, 71.72717166422905, 25.759989683008328, 72.37382536140773 " fill="none" id="curve_124" stroke="#000000" stroke-linecap="round" stroke-linejoin="round" stroke-width="4.314701432549628"/>
  <path d="M 46.863124686980825, 36.652203957476466 Q 48.73246657069783, 36.4919917758734, 49.972381543187595, 35.955738057580874 " fill="none" id="curve_129" stroke="#000000" stroke-linecap="round" stroke-linejoin="round" stroke-width="4.796270955358222"/>
  <path d="M 44.61377588800819, 37.459637682001045 Q 46.995180672973305, 36.99906355812236, 51.53630505259955, 36.296429276788636 " fill="none" id="curve_187" stroke="#000000" stroke-linecap="round" stroke-linejoin="round" stroke-width="3.158747021765227"/>
</svg>
