<?xml version="1.0" ?>
<svg height="140" width="140" xmlns="http://www.w3.org/2000/svg">
  <path d="M 49.65966796875, 60.53862762451172 Q 49.28152709285375, 62.76510694846546, 39.503705414622914, 63.05716494791202 " fill="none" id="curve_1" stroke="#000000" stroke-linecap="round" stroke-linejoin="round" stroke-width="6.942964032353382"/>
  <path d="M 39.503705414622914, 63.05716494791202 Q 40.259159762194365, 65.42108606251198, 58.64845238441519, 65.70847420327105 " fill="none" id="curve_1" stroke="#000000" stroke-linecap="round" stroke-linejoin="round" stroke-width="4.867340028543404"/>
  <path d="M 58.64845238441519, 65.70847420327105 Q 55.22259317575265, 69.9551697326771, 52.38855987561719, 84.42002731644875 " fill="none" id="curve_1" stroke="#000000" stroke-linecap="round" stroke-linejoin="round" stroke-width="4.503805216225273"/>
  <path d="M 56.37561639407693, 63.24537159879242 Q 58.8458495724235, 55.76397796743188, 61.44192594049887, 37.577725787281366 " fill="none" id="curve_2" stroke="#000000" stroke-linecap="round" stroke-linejoin="round" stroke-width="7.883757509002644"/>
  <path d="M 61.44192594049887, 37.577725787281366 Q 50.673101490465655, 37.46766765617547, 24.624519187035816, 37.09307803633598 " fill="none" id="curve_2" stroke="#000000" stroke-linecap="round" stroke-linejoin="round" stroke-width="5.109054881655596"/>
  <path d="M 24.624519187035816, 37.09307803633598 Q 19.449078326596688, 37.02035186094617, 17.362927378640176, 36.73887757511098 " fill="none" id="curve_2" stroke="#000000" stroke-linecap="round" stroke-linejoin="round" stroke-width="5.9129295957956804"/>
  <path d="M 58.188828748034666, 63.90020409662639 Q 58.4380496723723, 65.21442245578845, 78.78669972920201, 65.25880765784639 " fill="none" id="curve_3" stroke="#000000" stroke-linecap="round" stroke-linejoin="round" stroke-width="3.8425067397570354"/>
  <path d="M 53.330428535053315, 69.65125282825237 Q 57.01802749854111, 66.52756655130007, 60.56936093402656, 59.17085885932822 " fill="none" id="curve_4" stroke="#000000" stroke-linecap="round" stroke-linejoin="round" stroke-width="2.6856621029971244"/>
  <path d="M 56.61924700113018, 53.299295242826844 Q 56.942922785153584, 44.209073090644786, 59.385784417197534, 40.21732339113909 " fill="none" id="curve_10" stroke="#000000" stroke-linecap="round" stroke-linejoin="round" stroke-width="3.102694790665784"/>
  <path d="M 78.60756049384447, 65.24367557872759 Q 79.8959896318367, 64.93829405435751, 81.66404490201771, 64.57663771471059 " fill="none" id="curve_11" stroke="#000000" stroke-linecap="round" stroke-linejoin="round" stroke-width="1.9918482543776697"/>
  <path d="M 62.91948768386617, 66.11040499453978 Q 67.63699569275931, 65.96932685543526, 71.42624795288788, 65.69556023890827 " fill="none" id="curve_12" stroke="#000000" stroke-linecap="round" stroke-linejoin="round" stroke-width="2.372890333909134"/>
  <path d="M 56.32154342252749, 63.28633555846347 Q 54.26103587153585, 63.051011803999565, 49.87686685104427, 62.74554544117172 " fill="none" id="curve_13" stroke="#000000" stroke-linecap="round" stroke-linejoin="round" stroke-width="2.1225110655704262"/>
  <path d="M 64.52421010423612, 36.421857381035295 Q 63.41563909646264, 39.60881683161565, 60.48961451127871, 42.86299405486625 " fill="none" id="curve_15" stroke="#000000" stroke-linecap="round" stroke-linejoin="round" stroke-width="2.651116130303057"/>
  <path d="M 36.8662301275284, 36.25152457569999 Q 36.115106943068, 35.678349950330144, 19.24579255725102, 35.59956558532967 " fill="none" id="curve_16" stroke="#000000" stroke-linecap="round" stroke-linejoin="round" stroke-width="2.651475305441157"/>
  <path d="M 54.283459476726605, 72.74117523894657 Q 55.01084444473022, 74.11856276693621, 55.37226181089192, 79.08996062631752 " fill="none" id="curve_18" stroke="#000000" stroke-linecap="round" stroke-linejoin="round" stroke-width="3.8143847291012416"/>
  <path d="M 55.808715377463045, 49.70633662947188 Q 57.2055176726523, 52.63318872444958, 58.23569471826475, 61.97015113777748 " fill="none" id="curve_33" stroke="#000000" stroke-linecap="round" stroke-linejoin="round" stroke-width="2.211510796863075"/>
  <path d="M 39.36206549682111, 60.805785825146394 Q 38.42065466234855, 61.61413594847598, 37.41677994419176, 63.44241652328935 " fill="none" id="curve_34" stroke="#000000" stroke-linecap="round" stroke-linejoin="round" stroke-width="2.528061567018812"/>
  <path d="M 54.54108999362599, 74.1829589511072 Q 54.239131171150945, 73.88249820475343, 53.899834092529545, 73.44393523029682 " fill="none" id="curve_35" stroke="#000000" stroke-linecap="round" stroke-linejoin="round" stroke-width="5.095714584145886"/>
</svg>
