<?xml version="1.0" ?>
<svg height="140" width="140" xmlns="http://www.w3.org/2000/svg">
  <path d="M 61.740604400634766, 42.95526695251465 Q 61.69429437103245, 42.24858804924909, 61.53131508230916, 41.57676330377589 " fill="none" id="curve_1" stroke="#000000" stroke-linecap="round" stroke-linejoin="round" stroke-width="5.883332289633188"/>
  <path d="M 61.53131508230916, 41.57676330377589 Q 59.65412023392187, 48.66360629513556, 51.76475145290775, 61.667358016345034 " fill="none" id="curve_1" stroke="#000000" stroke-linecap="round" stroke-linejoin="round" stroke-width="4.021872629321882"/>
  <path d="M 51.76475145290775, 61.667358016345034 Q 50.38574673438258, 69.99234632746519, 45.23408700819831, 74.67494296655761 " fill="none" id="curve_1" stroke="#000000" stroke-linecap="round" stroke-linejoin="round" stroke-width="5.20488598293085"/>
  <path d="M 45.23408700819831, 74.67494296655761 Q 40.67202670372967, 83.95777465217861, 35.27945962803717, 98.31839015364417 " fill="none" id="curve_1" stroke="#000000" stroke-linecap="round" stroke-linejoin="round" stroke-width="3.9750163713082585"/>
  <path d="M 28.214721925068886, 74.22185586224491 Q 48.87941320549124, 73.37395475530326, 60.72388537547242, 69.38699380841055 " fill="none" id="curve_2" stroke="#000000" stroke-linecap="round" stroke-linejoin="round" stroke-width="4.931246787499969"/>
  <path d="M 59.81484940961822, 42.426401281555115 Q 52.63017097068391, 43.612103414324245, 27.405271299768366, 44.48285506899779 " fill="none" id="curve_3" stroke="#000000" stroke-linecap="round" stroke-linejoin="round" stroke-width="4.828549643239939"/>
  <path d="M 27.405271299768366, 44.48285506899779 Q 24.980254026752522, 43.92598748085394, 22.9761709029168, 43.058118741378244 " fill="none" id="curve_3" stroke="#000000" stroke-linecap="round" stroke-linejoin="round" stroke-width="5.215338412486882"/>
  <path d="M 62.57022733026691, 68.63012357516514 Q 62.37734631012866, 68.56656739811918, 62.072083238506394, 68.46431364678584 " fill="none" id="curve_4" stroke="#000000" stroke-linecap="round" stroke-linejoin="round" stroke-width="3.5790842207570948"/>
  <path d="M 36.24915064609657, 100.44352698731012 Q 36.86232089784512, 85.02502119044242, 42.73498555063222, 78.26142854185146 " fill="none" id="curve_7" stroke="#000000" stroke-linecap="round" stroke-linejoin="round" stroke-width="2.473056946146305"/>
  <path d="M 42.54278117844072, 71.37010139894605 Q 37.176445576487794, 72.28406107752659, 28.18872842104328, 73.28457789755977 " fill="none" id="curve_8" stroke="#000000" stroke-linecap="round" stroke-linejoin="round" stroke-width="2.7964142245835433"/>
  <path d="M 52.493276383673205, 69.76336622088853 Q 54.77814206874688, 68.90201061728479, 62.225020392953915, 68.36849553785387 " fill="none" id="curve_9" stroke="#000000" stroke-linecap="round" stroke-linejoin="round" stroke-width="2.540396798661007"/>
  <path d="M 47.49977311250934, 70.08863029006352 Q 52.77937210256431, 66.1799613967229, 55.97714576927591, 53.78678170726304 " fill="none" id="curve_13" stroke="#000000" stroke-linecap="round" stroke-linejoin="round" stroke-width="2.5715829884827626"/>
  <path d="M 60.70209339903491, 41.322767191249156 Q 50.02383861340596, 42.247459199580646, 43.59484452305022, 45.58421162270728 " fill="none" id="curve_14" stroke="#000000" stroke-linecap="round" stroke-linejoin="round" stroke-width="3.2286258869595432"/>
  <path d="M 33.751765749836345, 44.366273621854866 Q 39.84162708609335, 43.73925288752932, 48.83737311406726, 42.82477847944101 " fill="none" id="curve_17" stroke="#000000" stroke-linecap="round" stroke-linejoin="round" stroke-width="2.679814044771561"/>
</svg>
