<?xml version="1.0" ?>
<svg height="140" width="140" xmlns="http://www.w3.org/2000/svg">
  <path d="M 45.36961603164673, 99.62808990478516 Q 45.0010820599593, 99.5691632192546, 44.77657044863311, 99.30797596347182 " fill="none" id="curve_1" stroke="#000000" stroke-linecap="round" stroke-linejoin="round" stroke-width="6.543769194578029"/>
  <path d="M 44.77657044863311, 99.30797596347182 Q 45.74466551671085, 93.54725849423035, 47.253286920074515, 81.46374935385737 " fill="none" id="curve_1" stroke="#000000" stroke-linecap="round" stroke-linejoin="round" stroke-width="5.213725516512694"/>
  <path d="M 47.253286920074515, 81.46374935385737 Q 49.411294850927646, 76.079586981436, 51.50369278373654, 65.09042626142393 " fill="none" id="curve_1" stroke="#000000" stroke-linecap="round" stroke-linejoin="round" stroke-width="5.09797305410087"/>
  <path d="M 51.50369278373654, 65.09042626142393 Q 54.135314346187265, 58.91123557192494, 57.94817223432572, 36.358671207285724 " fill="none" id="curve_1" stroke="#000000" stroke-linecap="round" stroke-linejoin="round" stroke-width="5.447884620533913"/>
  <path d="M 57.94817223432572, 36.358671207285724 Q 59.17205556884064, 35.968947724529414, 59.28806951707936, 28.50783343111599 " fill="none" id="curve_1" stroke="#000000" stroke-linecap="round" stroke-linejoin="round" stroke-width="4.8762714228470045"/>
  <path d="M 59.28806951707936, 28.50783343111599 Q 56.82160099878727, 24.714336571640697, 38.37559246509513, 22.8271448285109 " fill="none" id="curve_1" stroke="#000000" stroke-linecap="round" stroke-linejoin="round" stroke-width="5.143218234953227"/>
  <path d="M 38.37559246509513, 22.8271448285109 Q 20.902636110174456, 22.9474046080498, 18.691842888446864, 24.747985640780435 " fill="none" id="curve_1" stroke="#000000" stroke-linecap="round" stroke-linejoin="round" stroke-width="5.09768962814852"/>
  <path d="M 24.080805919277118, 21.97238934823055 Q 29.72406717299453, 22.348526732086416, 40.41791528136943, 22.91758087318047 " fill="none" id="curve_2" stroke="#000000" stroke-linecap="round" stroke-linejoin="round" stroke-width="2.5414070448182526"/>
  <path d="M 28.134880513991234, 66.93795768104894 Q 40.96116025353347, 67.27048145489141, 51.61276412451167, 67.83125637209673 " fill="none" id="curve_3" stroke="#000000" stroke-linecap="round" stroke-linejoin="round" stroke-width="5.604249145847867"/>
  <path d="M 51.61276412451167, 67.83125637209673 Q 57.05619604612393, 66.55279671228799, 73.47871418122843, 65.9462011092723 " fill="none" id="curve_3" stroke="#000000" stroke-linecap="round" stroke-linejoin="round" stroke-width="4.131251212609664"/>
  <path d="M 48.29559773333344, 67.46094317502471 Q 42.9825201521928, 66.14074703170307, 27.27644329584568, 65.02542689394298 " fill="none" id="curve_4" stroke="#000000" stroke-linecap="round" stroke-linejoin="round" stroke-width="3.1391058829504614"/>
  <path d="M 57.80210172517261, 27.286539933733703 Q 57.88561808854382, 30.409902525342655, 58.06733456908365, 32.67065758458594 " fill="none" id="curve_8" stroke="#000000" stroke-linecap="round" stroke-linejoin="round" stroke-width="3.627104750517381"/>
  <path d="M 44.55373907232827, 68.75647122372104 Q 42.86210403338025, 68.39794582847053, 39.43244405104629, 67.97865693739489 " fill="none" id="curve_11" stroke="#000000" stroke-linecap="round" stroke-linejoin="round" stroke-width="3.8079128657319354"/>
  <path d="M 56.30399151862417, 27.81662787342354 Q 56.64178888194842, 26.448735474676145, 57.43036223237027, 24.614058296412175 " fill="none" id="curve_17" stroke="#000000" stroke-linecap="round" stroke-linejoin="round" stroke-width="3.6062664361046957"/>
  <path d="M 37.454310336989245, 68.01840506117054 Q 35.88323315444231, 67.85595116187429, 33.095767440150446, 67.62211266198042 " fill="none" id="curve_47" stroke="#000000" stroke-linecap="round" stroke-linejoin="round" stroke-width="3.1393925546584347"/>
  <path d="M 51.06280138543465, 25.469680217124562 Q 49.836959995118725, 24.394320271753983, 45.90831830708899, 23.445478938864564 " fill="none" id="curve_83" stroke="#000000" stroke-linecap="round" stroke-linejoin="round" stroke-width="3.820240349273818"/>
</svg>
