<?xml version="1.0" ?>
<svg height="140" width="140" xmlns="http://www.w3.org/2000/svg">
  <path d="M 26.269241333007812, 94.35044288635254 Q 25.95098200010036, 95.2487872667469, 25.162875989111463, 96.64793841570446 " fill="none" id="curve_1" stroke="#000000" stroke-linecap="round" stroke-linejoin="round" stroke-width="6.4235924798324575"/>
  <path d="M 25.162875989111463, 96.64793841570446 Q 26.850598865592403, 89.5028926757766, 33.0924049324309, 84.42540746109398 " fill="none" id="curve_1" stroke="#000000" stroke-linecap="round" stroke-linejoin="round" stroke-width="7.519476031288807"/>
  <path d="M 33.0924049324309, 84.42540746109398 Q 37.785125537523335, 77.3696894748459, 46.58425617384042, 66.09404642118405 " fill="none" id="curve_1" stroke="#000000" stroke-linecap="round" stroke-linejoin="round" stroke-width="7.49097616489546"/>
  <path d="M 46.58425617384042, 66.09404642118405 Q 52.11846210212633, 56.58172192372081, 63.89767039771168, 44.067009249611644 " fill="none" id="curve_1" stroke="#000000" stroke-linecap="round" stroke-linejoin="round" stroke-width="6.164993903002663"/>
  <path d="M 63.89767039771168, 44.067009249611644 Q 50.69642312437517, 45.70723203260763, 27.725998654851495, 52.564665359954546 " fill="none" id="curve_1" stroke="#000000" stroke-linecap="round" stroke-linejoin="round" stroke-width="4.730517533278426"/>
  <path d="M 49.18225575576807, 73.92387503925279 Q 51.385743152274976, 74.9282418303394, 53.06649755891614, 76.77169075435272 " fill="none" id="curve_2" stroke="#000000" stroke-linecap="round" stroke-linejoin="round" stroke-width="5.139893110038584"/>
  <path d="M 43.537678428363876, 72.11855866472276 Q 45.57038790237673, 73.39427802501139, 51.03720445466276, 74.24989087939174 " fill="none" id="curve_3" stroke="#000000" stroke-linecap="round" stroke-linejoin="round" stroke-width="3.3856008891906626"/>
  <path d="M 34.46780234870006, 49.84102477857463 Q 29.325569721218326, 51.001761989521384, 26.336625490801342, 54.478926924412804 " fill="none" id="curve_4" stroke="#000000" stroke-linecap="round" stroke-linejoin="round" stroke-width="3.1905121597083244"/>
  <path d="M 26.336625490801342, 54.478926924412804 Q 33.44654649796183, 49.48590757556415, 49.40416501016894, 45.255161565743705 " fill="none" id="curve_4" stroke="#000000" stroke-linecap="round" stroke-linejoin="round" stroke-width="3.0245698977446143"/>
  <path d="M 89.97074233167783, 5.287932640644151 Q 89.78585993338784, 2.8230088206379786, 89.30852679804396, 0.500018001800826 " fill="none" id="curve_6" stroke="#000000" stroke-linecap="round" stroke-linejoin="round" stroke-width="1.9396284498241554"/>
  <path d="M 66.56110139737235, 43.14913327545754 Q 59.51296548534119, 45.23474144616915, 54.23741516320815, 49.5956420505935 " fill="none" id="curve_8" stroke="#000000" stroke-linecap="round" stroke-linejoin="round" stroke-width="4.614184317187992"/>
  <path d="M 31.161515994280826, 91.33741227635414 Q 28.746571159096685, 92.70287315731366, 26.8403394693905, 95.20447203138096 " fill="none" id="curve_10" stroke="#000000" stroke-linecap="round" stroke-linejoin="round" stroke-width="3.4033324387260424"/>
  <path d="M 37.14810067258739, 48.65944759444606 Q 32.224583535950615, 50.394069887459196, 25.681896087716815, 52.2125807933925 " fill="none" id="curve_12" stroke="#000000" stroke-linecap="round" stroke-linejoin="round" stroke-width="3.1506759937712405"/>
  <path d="M 43.44158996503123, 47.24279754960142 Q 35.341851850469666, 48.11687321402239, 31.60289673164847, 51.43844666637028 " fill="none" id="curve_13" stroke="#000000" stroke-linecap="round" stroke-linejoin="round" stroke-width="3.1893400406294505"/>
  <path d="M 49.05229519625574, 71.7859088881695 Q 46.84251128169817, 70.79975020473262, 43.515342278195945, 69.18849367510117 " fill="none" id="curve_80" stroke="#000000" stroke-linecap="round" stroke-linejoin="round" stroke-width="2.2554127664011503"/>
  <path d="M 32.55911418499775, 88.43316865053211 Q 32.406266545395255, 87.13603973702897, 31.81775431347991, 85.8240638288081 " fill="none" id="curve_81" stroke="#000000" stroke-linecap="round" stroke-linejoin="round" stroke-width="3.088299189059806"/>
  <path d="M 51.986365556390794, 52.997309715966836 Q 52.305680075850645, 54.49317711060469, 52.711799666148636, 57.285715498126635 " fill="none" id="curve_110" stroke="#000000" stroke-linecap="round" stroke-linejoin="round" stroke-width="3.72946552970843"/>
</svg>
