<?xml version="1.0" ?>
<svg height="140" width="140" xmlns="http://www.w3.org/2000/svg">
  <path d="M 64.14961242675781, 48.79878616333008 Q 60.809824608116394, 50.19427467438294, 50.6149304377268, 52.32020794550215 " fill="none" id="curve_1" stroke="#000000" stroke-linecap="round" stroke-linejoin="round" stroke-width="5.043835458638065"/>
  <path d="M 50.6149304377268, 52.32020794550215 Q 46.3546242431222, 51.71354068865453, 37.25818902370332, 51.14575619559093 " fill="none" id="curve_1" stroke="#000000" stroke-linecap="round" stroke-linejoin="round" stroke-width="4.6505955906509815"/>
  <path d="M 61.63227119156406, 51.90071044127698 Q 59.219542548549256, 60.020126345019605, 50.02797731285776, 76.71962286444854 " fill="none" id="curve_2" stroke="#000000" stroke-linecap="round" stroke-linejoin="round" stroke-width="4.654747344183892"/>
  <path d="M 50.02797731285776, 76.71962286444854 Q 48.4316882538246, 86.16675454842314, 43.08076770940208, 90.4054942184868 " fill="none" id="curve_2" stroke="#000000" stroke-linecap="round" stroke-linejoin="round" stroke-width="6.39805899433794"/>
  <path d="M 43.08076770940208, 90.4054942184868 Q 39.66365206080276, 102.03926274921236, 31.510809375297303, 115.69620315600682 " fill="none" id="curve_2" stroke="#000000" stroke-linecap="round" stroke-linejoin="round" stroke-width="4.487202249899716"/>
  <path d="M 43.340629289261706, 90.76477750533547 Q 48.343148544447715, 89.67856120957079, 60.64546432378232, 88.97412288943045 " fill="none" id="curve_3" stroke="#000000" stroke-linecap="round" stroke-linejoin="round" stroke-width="3.600476562500397"/>
  <path d="M 38.227558809331654, 90.37289715232907 Q 36.68120944201122, 90.46530550200356, 34.91691361804495, 90.605789749826 " fill="none" id="curve_4" stroke="#000000" stroke-linecap="round" stroke-linejoin="round" stroke-width="3.317842669317729"/>
  <path d="M 64.04382579301905, 52.5928246504573 Q 64.76971242807228, 50.61705553867877, 65.7655984129854, 48.452222764454895 " fill="none" id="curve_5" stroke="#000000" stroke-linecap="round" stroke-linejoin="round" stroke-width="4.669908475449627"/>
  <path d="M 39.97339415185737, 51.58686365426927 Q 41.54482429897673, 52.43152595398208, 44.67955320011121, 53.31464118439544 " fill="none" id="curve_6" stroke="#000000" stroke-linecap="round" stroke-linejoin="round" stroke-width="2.8892167998892417"/>
  <path d="M 44.25866165624616, 86.13495955281752 Q 45.40947186437069, 80.70355612755493, 51.58243105330492, 77.08377448553591 " fill="none" id="curve_8" stroke="#000000" stroke-linecap="round" stroke-linejoin="round" stroke-width="2.728912228252863"/>
  <path d="M 51.58243105330492, 77.08377448553591 Q 53.765115305143766, 68.7677028662029, 58.47975105389233, 57.17026492492248 " fill="none" id="curve_8" stroke="#000000" stroke-linecap="round" stroke-linejoin="round" stroke-width="3.283153739811424"/>
  <path d="M 42.960371680395006, 87.97620337466017 Q 42.06815198858871, 88.88483346082086, 40.45966669183813, 89.97391532926672 " fill="none" id="curve_9" stroke="#000000" stroke-linecap="round" stroke-linejoin="round" stroke-width="4.973444321485288"/>
  <path d="M 32.79958618026056, 116.45737279365602 Q 33.74616586887244, 112.2233103884056, 35.001836775501516, 105.71303035269618 " fill="none" id="curve_10" stroke="#000000" stroke-linecap="round" stroke-linejoin="round" stroke-width="2.945810228302555"/>
  <path d="M 37.07541431647783, 49.887853633382676 Q 36.87404937725549, 49.68429040622059, 36.651068073029045, 49.35622410646058 " fill="none" id="curve_13" stroke="#000000" stroke-linecap="round" stroke-linejoin="round" stroke-width="3.4014291656690414"/>
  <path d="M 62.59915351867676, 48.039207220077515 Q 60.85047317316494, 49.559511915713465, 59.920542519238325, 56.77488657691765 " fill="none" id="curve_27" stroke="#000000" stroke-linecap="round" stroke-linejoin="round" stroke-width="2.9272989139258243"/>
  <path d="M 59.920542519238325, 56.77488657691765 Q 59.05391957711341, 65.20139877737675, 53.21045330160441, 68.13777540516485 " fill="none" id="curve_27" stroke="#000000" stroke-linecap="round" stroke-linejoin="round" stroke-width="2.8982254741625595"/>
  <path d="M 59.5959595581263, 53.67390885155329 Q 59.73006813365532, 52.38066120048915, 60.10521230959576, 50.893754433226555 " fill="none" id="curve_28" stroke="#000000" stroke-linecap="round" stroke-linejoin="round" stroke-width="2.9331598882620264"/>
  <path d="M 61.16332294251515, 88.86409091529003 Q 61.308758765657885, 88.54865152520213, 61.53506800837831, 88.02016898150853 " fill="none" id="curve_43" stroke="#000000" stroke-linecap="round" stroke-linejoin="round" stroke-width="2.944318164002593"/>
  <path d="M 48.55342971541452, 51.82157347862217 Q 47.97467106380531, 51.38083944394717, 46.52019489424331, 50.998389811186236 " fill="none" id="curve_48" stroke="#000000" stroke-linecap="round" stroke-linejoin="round" stroke-width="4.004910437394156"/>
  <path d="M 33.364593117968774, 91.97141160780824 Q 33.40958911266321, 91.43711678517685, 33.49601856799912, 90.73918009636186 " fill="none" id="curve_52" stroke="#000000" stroke-linecap="round" stroke-linejoin="round" stroke-width="2.203226937337537"/>
  <path d="M 56.332381808738575, 90.55477040477665 Q 51.011601612654616, 90.36975710983052, 43.19936419736231, 90.00045960255082 " fill="none" id="curve_53" stroke="#000000" stroke-linecap="round" stroke-linejoin="round" stroke-width="2.8498040763475996"/>
  <path d="M 53.020877503102255, 89.02181370682723 Q 47.88056752809685, 91.16839390298624, 40.38819851407581, 94.47058284402097 " fill="none" id="curve_61" stroke="#000000" stroke-linecap="round" stroke-linejoin="round" stroke-width="3.0379867787312245"/>
  <path d="M 34.247699276131904, 112.33871145992171 Q 34.264061445209606, 112.46536288505172, 34.293138451522026, 112.64701262191939 " fill="none" id="curve_62" stroke="#000000" stroke-linecap="round" stroke-linejoin="round" stroke-width="3.2293032331800156"/>
  <path d="M 33.835836300466624, 111.41570117822654 Q 34.220682007982795, 111.4622508683416, 34.94674880105857, 111.5386419147876 " fill="none" id="curve_147" stroke="#000000" stroke-linecap="round" stroke-linejoin="round" stroke-width="2.5548353087891793"/>
</svg>
