<?xml version="1.0" ?>
<svg height="140" width="140" xmlns="http://www.w3.org/2000/svg">
  <path d="M 48.09677600860596, 19.064546942710876 Q 47.332707534620305, 17.90301711163039, 44.84091726133556, 17.12674201172692 " fill="none" id="curve_1" stroke="#000000" stroke-linecap="round" stroke-linejoin="round" stroke-width="4.556133558566742"/>
  <path d="M 44.84091726133556, 17.12674201172692 Q 46.205435672379906, 18.630156163626836, 65.43387933709849, 18.89283256614541 " fill="none" id="curve_1" stroke="#000000" stroke-linecap="round" stroke-linejoin="round" stroke-width="5.749308014228076"/>
  <path d="M 65.43387933709849, 18.89283256614541 Q 71.84048646677391, 20.79167222642097, 89.03682808350408, 21.865030882650508 " fill="none" id="curve_1" stroke="#000000" stroke-linecap="round" stroke-linejoin="round" stroke-width="4.747338404988443"/>
  <path d="M 88.60439179309475, 50.042406913769824 Q 81.94249887412936, 56.45425927875531, 75.9453448741269, 70.78351118158385 " fill="none" id="curve_2" stroke="#000000" stroke-linecap="round" stroke-linejoin="round" stroke-width="4.971903273166599"/>
  <path d="M 75.9453448741269, 70.78351118158385 Q 73.64267665326872, 82.06425075201247, 57.83561585295189, 102.50572993917358 " fill="none" id="curve_2" stroke="#000000" stroke-linecap="round" stroke-linejoin="round" stroke-width="4.663794581933751"/>
  <path d="M 57.83561585295189, 102.50572993917358 Q 57.79803282972545, 106.51509837889758, 57.39613829845299, 107.10039164416271 " fill="none" id="curve_2" stroke="#000000" stroke-linecap="round" stroke-linejoin="round" stroke-width="4.935342904520838"/>
  <path d="M 51.38830303477628, 72.96696906037535 Q 52.301030083199485, 71.29385501108638, 80.50645710702227, 71.13382395142605 " fill="none" id="curve_3" stroke="#000000" stroke-linecap="round" stroke-linejoin="round" stroke-width="5.148809258271609"/>
  <path d="M 80.50645710702227, 71.13382395142605 Q 83.09581740068833, 71.7643932731778, 88.79229309731686, 72.12576263952822 " fill="none" id="curve_3" stroke="#000000" stroke-linecap="round" stroke-linejoin="round" stroke-width="5.027253254046456"/>
  <path d="M 88.79229309731686, 72.12576263952822 Q 72.6939423528965, 72.79631452235371, 69.13398264231928, 87.0313683211111 " fill="none" id="curve_3" stroke="#000000" stroke-linecap="round" stroke-linejoin="round" stroke-width="2.0985403578655597"/>
  <path d="M 85.53659418468939, 55.2619430330393 Q 87.9962837412343, 54.467658277566954, 88.99425531277674, 51.48778069918842 " fill="none" id="curve_4" stroke="#000000" stroke-linecap="round" stroke-linejoin="round" stroke-width="3.2022672207611524"/>
  <path d="M 87.8855139809685, 21.829085266634912 Q 88.0281958110224, 22.43298942965653, 88.30431589279482, 23.084191493954144 " fill="none" id="curve_5" stroke="#000000" stroke-linecap="round" stroke-linejoin="round" stroke-width="3.0212167933284637"/>
  <path d="M 59.413422150786786, 20.849291207662148 Q 57.461087027851946, 20.25283179854046, 48.923179084856564, 19.965656939496437 " fill="none" id="curve_6" stroke="#000000" stroke-linecap="round" stroke-linejoin="round" stroke-width="2.7253357714544206"/>
  <path d="M 78.96309933063336, 19.91216842572823 Q 80.3127994830528, 19.799144412402487, 83.8048493046809, 19.725796629590416 " fill="none" id="curve_7" stroke="#000000" stroke-linecap="round" stroke-linejoin="round" stroke-width="2.625893071597328"/>
  <path d="M 88.87898558464448, 21.2040325035589 Q 88.90530165872269, 21.463261539207608, 88.95736083219425, 21.91249351121701 " fill="none" id="curve_8" stroke="#000000" stroke-linecap="round" stroke-linejoin="round" stroke-width="2.522065491096729"/>
  <path d="M 55.19259470724776, 68.14840986640083 Q 54.91244891260208, 70.9449017952363, 49.940016378604746, 71.26653079680241 " fill="none" id="curve_9" stroke="#000000" stroke-linecap="round" stroke-linejoin="round" stroke-width="3.034261645968186"/>
  <path d="M 76.24851863299466, 76.50508400663463 Q 70.83681531249205, 81.35060930256957, 63.09443464320208, 91.17399401984737 " fill="none" id="curve_11" stroke="#000000" stroke-linecap="round" stroke-linejoin="round" stroke-width="2.6361805582179776"/>
  <path d="M 76.60551175138765, 63.798668214607076 Q 79.62481581872126, 59.09344337658172, 85.65745181089957, 53.2522506624555 " fill="none" id="curve_13" stroke="#000000" stroke-linecap="round" stroke-linejoin="round" stroke-width="1.849026230360619"/>
  <path d="M 89.66610364577137, 48.173089057444784 Q 89.5421285301645, 48.19160454589028, 89.36639018879148, 48.22629207984529 " fill="none" id="curve_14" stroke="#000000" stroke-linecap="round" stroke-linejoin="round" stroke-width="1.9191260115079962"/>
  <path d="M 59.777034722667835, 72.78126091813903 Q 56.7477479977411, 72.78409590605347, 55.28175190759903, 72.79718678967454 " fill="none" id="curve_15" stroke="#000000" stroke-linecap="round" stroke-linejoin="round" stroke-width="3.660503864418538"/>
  <path d="M 71.31181691443085, 81.779720678266 Q 73.02669871175732, 81.05265951160956, 74.92723229542898, 79.57792644746685 " fill="none" id="curve_17" stroke="#000000" stroke-linecap="round" stroke-linejoin="round" stroke-width="2.863766497256951"/>
  <path d="M 87.08936172351909, 21.86900538783842 Q 87.9118379444116, 21.965448487518756, 89.07911110367576, 22.219680616479764 " fill="none" id="curve_27" stroke="#000000" stroke-linecap="round" stroke-linejoin="round" stroke-width="2.682092023126695"/>
  <path d="M 60.010163716598015, 103.12764832955585 Q 60.293109028172, 100.58705591868087, 60.909067100046826, 97.8748555979274 " fill="none" id="curve_56" stroke="#000000" stroke-linecap="round" stroke-linejoin="round" stroke-width="2.7584755834707835"/>
  <path d="M 88.00363933775725, 20.380790404670876 Q 88.88041187912937, 20.57733435480721, 89.43898734157888, 21.387034550492587 " fill="none" id="curve_84" stroke="#000000" stroke-linecap="round" stroke-linejoin="round" stroke-width="2.465860830102627"/>
  <path d="M 67.74425911615845, 82.92489636686673 Q 69.44911825763448, 82.74142175268433, 70.96412574406867, 82.19065830150437 " fill="none" id="curve_99" stroke="#000000" stroke-linecap="round" stroke-linejoin="round" stroke-width="2.3455049164279163"/>
  <path d="M 88.51402436128632, 22.523637598772673 Q 88.58241469673195, 22.030187254091505, 88.69953162424262, 21.32883667667266 " fill="none" id="curve_102" stroke="#000000" stroke-linecap="round" stroke-linejoin="round" stroke-width="2.8387639939116864"/>
  <path d="M 87.77478777726063, 22.38999188637669 Q 88.068561680693, 21.979038159597884, 88.50001364324585, 21.231381762871823 " fill="none" id="curve_111" stroke="#000000" stroke-linecap="round" stroke-linejoin="round" stroke-width="2.783700159317282"/>
  <path d="M 89.22592944039553, 22.976662879093848 Q 89.04371648975517, 21.90988121126152, 87.8307382765809, 20.99901017289033 " fill="none" id="curve_116" stroke="#000000" stroke-linecap="round" stroke-linejoin="round" stroke-width="2.394146037497267"/>
  <path d="M 76.34272342011049, 22.409384792853604 Q 75.35271544660367, 22.234511877476674, 73.85951557021633, 22.039823814408237 " fill="none" id="curve_179" stroke="#000000" stroke-linecap="round" stroke-linejoin="round" stroke-width="2.9929308870458504"/>
</svg>
