<?xml version="1.0" ?>
<svg height="140" width="140" xmlns="http://www.w3.org/2000/svg">
  <path d="M 49.69612503051758, 107.95613670349121 Q 49.27041328569158, 108.41963523532974, 48.67565610944909, 109.34280642261415 " fill="none" id="curve_1" stroke="#000000" stroke-linecap="round" stroke-linejoin="round" stroke-width="5.648406455530945"/>
  <path d="M 48.67565610944909, 109.34280642261415 Q 48.98472365008904, 97.25086137946725, 50.30845422265988, 86.9833483896698 " fill="none" id="curve_1" stroke="#000000" stroke-linecap="round" stroke-linejoin="round" stroke-width="7.207199953000449"/>
  <path d="M 50.30845422265988, 86.9833483896698 Q 53.51439038267747, 78.27997863713313, 59.314925658182304, 61.72174159380489 " fill="none" id="curve_1" stroke="#000000" stroke-linecap="round" stroke-linejoin="round" stroke-width="6.423853963542052"/>
  <path d="M 59.314925658182304, 61.72174159380489 Q 62.387811427786694, 49.15787570439732, 71.03105410763064, 38.32651704910848 " fill="none" id="curve_1" stroke="#000000" stroke-linecap="round" stroke-linejoin="round" stroke-width="5.365525737375861"/>
  <path d="M 71.03105410763064, 38.32651704910848 Q 67.13906039228729, 47.249355405811826, 48.97431901205696, 50.58219909803522 " fill="none" id="curve_1" stroke="#000000" stroke-linecap="round" stroke-linejoin="round" stroke-width="5.713600365284259"/>
  <path d="M 48.97431901205696, 50.58219909803522 Q 39.935423287895155, 49.88893470876317, 37.90931988612681, 43.92470941758233 " fill="none" id="curve_1" stroke="#000000" stroke-linecap="round" stroke-linejoin="round" stroke-width="5.090799274037974"/>
  <path d="M 54.430274578194926, 78.90612642179511 Q 56.615764576976304, 79.45309837672887, 70.06836445834844, 79.70453482238553 " fill="none" id="curve_2" stroke="#000000" stroke-linecap="round" stroke-linejoin="round" stroke-width="5.130503940465588"/>
  <path d="M 70.06836445834844, 79.70453482238553 Q 61.521362699717116, 80.41591506225221, 46.694061937658404, 81.12986820942523 " fill="none" id="curve_2" stroke="#000000" stroke-linecap="round" stroke-linejoin="round" stroke-width="6.648428006106243"/>
  <path d="M 46.694061937658404, 81.12986820942523 Q 31.39486630923208, 81.37625100807142, 28.603181964776322, 83.52614958989379 " fill="none" id="curve_2" stroke="#000000" stroke-linecap="round" stroke-linejoin="round" stroke-width="6.125311957461846"/>
  <path d="M 34.785089224089305, 39.79958412619062 Q 35.15306432179861, 39.88116011373422, 35.438823764191405, 40.05615959973305 " fill="none" id="curve_4" stroke="#000000" stroke-linecap="round" stroke-linejoin="round" stroke-width="5.100874754376126"/>
  <path d="M 59.59458122864971, 51.152873826675666 Q 57.4995516533777, 66.40950611841295, 50.702142171170905, 77.2697063815682 " fill="none" id="curve_5" stroke="#000000" stroke-linecap="round" stroke-linejoin="round" stroke-width="2.9954959398639036"/>
  <path d="M 44.44137978807878, 47.35272559205803 Q 48.775950993384726, 49.01861880863888, 54.54808823762406, 50.86650533526702 " fill="none" id="curve_6" stroke="#000000" stroke-linecap="round" stroke-linejoin="round" stroke-width="2.3968002811191207"/>
  <path d="M 54.54808823762406, 50.86650533526702 Q 59.46291967332991, 45.36553876392552, 68.88226528125085, 40.052379878090754 " fill="none" id="curve_6" stroke="#000000" stroke-linecap="round" stroke-linejoin="round" stroke-width="3.106844376841627"/>
  <path d="M 29.21828832475326, 85.53732688938166 Q 29.16405561093152, 85.44609448768321, 29.10028742612929, 85.27497201203538 " fill="none" id="curve_9" stroke="#000000" stroke-linecap="round" stroke-linejoin="round" stroke-width="3.963983518365646"/>
  <path d="M 71.49060341655029, 35.82817144330141 Q 71.3097459914576, 36.542063105670564, 70.92392484664217, 37.66563384259694 " fill="none" id="curve_26" stroke="#000000" stroke-linecap="round" stroke-linejoin="round" stroke-width="2.7105564757009186"/>
  <path d="M 36.38040637969971, 40.134681701660156 Q 39.12469686176063, 43.3103974799989, 44.79311860837748, 47.73659597025454 " fill="none" id="curve_92" stroke="#000000" stroke-linecap="round" stroke-linejoin="round" stroke-width="1.9408803032362698"/>
  <path d="M 65.79768976750923, 49.013840592165344 Q 60.92605926769703, 55.20708555866432, 53.785512577214064, 67.13830057920259 " fill="none" id="curve_93" stroke="#000000" stroke-linecap="round" stroke-linejoin="round" stroke-width="2.515868442805858"/>
  <path d="M 72.84202011177874, 79.35784827204564 Q 72.15125458294821, 79.29567952042437, 71.23642883918912, 79.18901627657272 " fill="none" id="curve_94" stroke="#000000" stroke-linecap="round" stroke-linejoin="round" stroke-width="2.7226172823256105"/>
  <path d="M 50.0268815727051, 100.27438138307961 Q 50.0663931226252, 99.75112663003875, 50.14484132285806, 98.81376414426084 " fill="none" id="curve_136" stroke="#000000" stroke-linecap="round" stroke-linejoin="round" stroke-width="3.0114553358913647"/>
</svg>
