<?xml version="1.0" ?>
<svg height="140" width="140" xmlns="http://www.w3.org/2000/svg">
  <path d="M 71.22298431396484, 78.59343338012695 Q 68.71929910663025, 78.64680318783303, 63.848991895928066, 78.76261295859419 " fill="none" id="curve_1" stroke="#000000" stroke-linecap="round" stroke-linejoin="round" stroke-width="9.875346091602768"/>
  <path d="M 63.848991895928066, 78.76261295859419 Q 63.199036759679224, 86.40559094145233, 59.04662616903458, 96.06749928423739 " fill="none" id="curve_1" stroke="#000000" stroke-linecap="round" stroke-linejoin="round" stroke-width="2.801923940203721"/>
  <path d="M 59.04662616903458, 96.06749928423739 Q 57.661947604719195, 97.97748974823493, 56.401939271437605, 100.73451907203709 " fill="none" id="curve_1" stroke="#000000" stroke-linecap="round" stroke-linejoin="round" stroke-width="3.11318751326439"/>
  <path d="M 50.893020815312255, 80.79281127058108 Q 51.501858768577655, 79.79296742655079, 62.64314459143067, 79.67277889151384 " fill="none" id="curve_2" stroke="#000000" stroke-linecap="round" stroke-linejoin="round" stroke-width="5.324686628284911"/>
  <path d="M 62.64314459143067, 79.67277889151384 Q 65.41232222447965, 77.17967516119694, 66.49327107727471, 69.36893096905004 " fill="none" id="curve_2" stroke="#000000" stroke-linecap="round" stroke-linejoin="round" stroke-width="6.681612199202953"/>
  <path d="M 66.49327107727471, 69.36893096905004 Q 66.39469710504025, 54.6786849884724, 60.6052152508093, 53.89271028283422 " fill="none" id="curve_2" stroke="#000000" stroke-linecap="round" stroke-linejoin="round" stroke-width="5.858059959392015"/>
  <path d="M 60.6052152508093, 53.89271028283422 Q 55.11079358408073, 52.331108422868155, 37.594358964653004, 50.965827281525975 " fill="none" id="curve_2" stroke="#000000" stroke-linecap="round" stroke-linejoin="round" stroke-width="5.390896133815366"/>
  <path d="M 37.594358964653004, 50.965827281525975 Q 32.76084159628253, 51.68063554350499, 26.95583820561555, 52.3227558484633 " fill="none" id="curve_2" stroke="#000000" stroke-linecap="round" stroke-linejoin="round" stroke-width="4.604467873330743"/>
  <path d="M 52.84087782881859, 78.83380696393453 Q 62.317923615766524, 78.59468665711834, 78.71731973596609, 78.41052498643312 " fill="none" id="curve_3" stroke="#000000" stroke-linecap="round" stroke-linejoin="round" stroke-width="3.3554060670404806"/>
  <path d="M 89.71944474201723, 64.86378483480135 Q 89.68792609292278, 80.72412314672874, 89.44090302815984, 91.99905870984367 " fill="none" id="curve_4" stroke="#000000" stroke-linecap="round" stroke-linejoin="round" stroke-width="1.7347256472493713"/>
  <path d="M 89.44090302815984, 91.99905870984367 Q 89.55593159644496, 97.51129996800252, 89.77143295534036, 117.08602916173442 " fill="none" id="curve_4" stroke="#000000" stroke-linecap="round" stroke-linejoin="round" stroke-width="1.6181479326963388"/>
  <path d="M 89.77143295534036, 117.08602916173442 Q 89.63835664676536, 126.90258050824697, 89.37329130517497, 136.01771063330276 " fill="none" id="curve_4" stroke="#000000" stroke-linecap="round" stroke-linejoin="round" stroke-width="1.8221808048942252"/>
  <path d="M 89.37329130517497, 136.01771063330276 Q 89.39108320125142, 138.15216368104038, 89.48925269839083, 138.69113100506328 " fill="none" id="curve_4" stroke="#000000" stroke-linecap="round" stroke-linejoin="round" stroke-width="2.0746930689697267"/>
  <path d="M 79.6199588339737, 78.46714519585564 Q 79.66046496139832, 78.37023973570415, 79.67605589969787, 77.64009424498987 " fill="none" id="curve_9" stroke="#000000" stroke-linecap="round" stroke-linejoin="round" stroke-width="3.2704097258842175"/>
  <path d="M 89.67549259738516, 63.299409947688034 Q 89.62305238950499, 53.90008692262697, 89.42365433201343, 43.589132109244744 " fill="none" id="curve_10" stroke="#000000" stroke-linecap="round" stroke-linejoin="round" stroke-width="1.7278591855005807"/>
  <path d="M 89.42365433201343, 43.589132109244744 Q 89.5070172089749, 40.30913798266673, 89.5799141736242, 29.066582015929242 " fill="none" id="curve_10" stroke="#000000" stroke-linecap="round" stroke-linejoin="round" stroke-width="1.4759180126422677"/>
  <path d="M 89.5799141736242, 29.066582015929242 Q 89.59530519311645, 24.166785271647022, 89.62288842112214, 15.405366848386343 " fill="none" id="curve_10" stroke="#000000" stroke-linecap="round" stroke-linejoin="round" stroke-width="1.3319214935824475"/>
  <path d="M 89.62288842112214, 15.405366848386343 Q 89.34988628066722, 10.24704118828058, 88.79326353628838, 1.144740477482019 " fill="none" id="curve_10" stroke="#000000" stroke-linecap="round" stroke-linejoin="round" stroke-width="2.2553311404416063"/>
  <path d="M 88.79326353628838, 1.144740477482019 Q 87.89927612052459, 1.364922676764619, 86.97341436524516, 1.631923853032687 " fill="none" id="curve_10" stroke="#000000" stroke-linecap="round" stroke-linejoin="round" stroke-width="3.2315744280370735"/>
  <path d="M 66.63136822169471, 58.02050182357058 Q 66.41941934099225, 52.30831454616074, 58.667992809789716, 51.71869468081162 " fill="none" id="curve_14" stroke="#000000" stroke-linecap="round" stroke-linejoin="round" stroke-width="2.484490245642221"/>
  <path d="M 58.667992809789716, 51.71869468081162 Q 56.5520607203313, 51.02896463849036, 50.77355888201662, 50.49748417440535 " fill="none" id="curve_14" stroke="#000000" stroke-linecap="round" stroke-linejoin="round" stroke-width="2.3130796646024723"/>
  <path d="M 80.0189292000833, 78.35207752213624 Q 79.44359416395505, 78.28771199058583, 78.53831895317872, 78.19497719445289 " fill="none" id="curve_31" stroke="#000000" stroke-linecap="round" stroke-linejoin="round" stroke-width="3.337071976529048"/>
  <path d="M 58.88419221376607, 93.76764319853896 Q 58.658403426301945, 95.30039180145691, 58.18549123738977, 96.61187343178817 " fill="none" id="curve_47" stroke="#000000" stroke-linecap="round" stroke-linejoin="round" stroke-width="2.687833794022839"/>
  <path d="M 43.11446282589013, 51.135247440442285 Q 42.48597724267654, 50.05205099140982, 39.58494182938524, 48.89095836776366 " fill="none" id="curve_53" stroke="#000000" stroke-linecap="round" stroke-linejoin="round" stroke-width="2.4158496656171753"/>
  <path d="M 78.74760520137588, 79.282539606228 Q 79.05018345532704, 78.65884820357087, 79.68821813027452, 77.46657116417417 " fill="none" id="curve_68" stroke="#000000" stroke-linecap="round" stroke-linejoin="round" stroke-width="2.2543671180991156"/>
  <path d="M 59.01918618587274, 81.40594621615537 Q 55.780222012087826, 80.98153478970092, 52.86302250458976, 80.05012707148425 " fill="none" id="curve_122" stroke="#000000" stroke-linecap="round" stroke-linejoin="round" stroke-width="3.2814548655462303"/>
  <path d="M 25.67316870085048, 52.216106608431446 Q 25.47272845012319, 52.4202899816929, 25.08392738069969, 52.714636478107785 " fill="none" id="curve_159" stroke="#000000" stroke-linecap="round" stroke-linejoin="round" stroke-width="2.2491461062524256"/>
</svg>
