<?xml version="1.0" ?>
<svg height="140" width="140" xmlns="http://www.w3.org/2000/svg">
  <path d="M 83.08384704589844, 78.90650177001953 Q 77.58282314427575, 78.92085266059904, 64.12035268460659, 78.94520267273921 " fill="none" id="curve_1" stroke="#000000" stroke-linecap="round" stroke-linejoin="round" stroke-width="6.760334996731919"/>
  <path d="M 64.12035268460659, 78.94520267273921 Q 63.1972725182283, 79.76854801000437, 63.09221822518114, 99.7982434004064 " fill="none" id="curve_1" stroke="#000000" stroke-linecap="round" stroke-linejoin="round" stroke-width="3.586175470377069"/>
  <path d="M 63.09221822518114, 99.7982434004064 Q 65.91892384789979, 100.61333481833863, 66.15180921225887, 113.63640245339856 " fill="none" id="curve_1" stroke="#000000" stroke-linecap="round" stroke-linejoin="round" stroke-width="5.39047793828349"/>
  <path d="M 66.15180921225887, 113.63640245339856 Q 65.45994664017634, 128.25588226008526, 59.05989641636994, 130.77108719120824 " fill="none" id="curve_1" stroke="#000000" stroke-linecap="round" stroke-linejoin="round" stroke-width="4.133178673433192"/>
  <path d="M 61.88016286759941, 79.75155451490495 Q 61.97208940256501, 61.041100430618364, 62.97532175761787, 51.317359817732964 " fill="none" id="curve_3" stroke="#000000" stroke-linecap="round" stroke-linejoin="round" stroke-width="5.054597484482454"/>
  <path d="M 62.97532175761787, 51.317359817732964 Q 66.95693742184808, 40.44726828789378, 75.95176490960569, 27.902236100440195 " fill="none" id="curve_3" stroke="#000000" stroke-linecap="round" stroke-linejoin="round" stroke-width="5.405837817733374"/>
  <path d="M 75.95176490960569, 27.902236100440195 Q 74.0237080237479, 26.354131226613926, 40.51983585049251, 25.798851821618996 " fill="none" id="curve_3" stroke="#000000" stroke-linecap="round" stroke-linejoin="round" stroke-width="4.605164463651033"/>
  <path d="M 40.51983585049251, 25.798851821618996 Q 35.202540795395024, 25.05138024010284, 25.70659662304393, 24.403727957842918 " fill="none" id="curve_3" stroke="#000000" stroke-linecap="round" stroke-linejoin="round" stroke-width="4.99548308890874"/>
  <path d="M 8.876536978435272, 2.663677316218635 Q 5.10415739079232, 4.669663630231757, 3.593136184792118, 10.999538874044426 " fill="none" id="curve_4" stroke="#000000" stroke-linecap="round" stroke-linejoin="round" stroke-width="5.342059273006091"/>
  <path d="M 3.593136184792118, 10.999538874044426 Q 3.4283088642763673, 20.406010919460016, 2.9467502175971014, 49.03654656381978 " fill="none" id="curve_4" stroke="#000000" stroke-linecap="round" stroke-linejoin="round" stroke-width="5.036279952349692"/>
  <path d="M 2.9467502175971014, 49.03654656381978 Q 3.5387047905254287, 54.880620444079625, 4.109488607418178, 80.91145750636062 " fill="none" id="curve_4" stroke="#000000" stroke-linecap="round" stroke-linejoin="round" stroke-width="5.337610346666784"/>
  <path d="M 4.109488607418178, 80.91145750636062 Q 3.980375969209732, 90.44000555950718, 3.5587005357141814, 115.52306679622959 " fill="none" id="curve_4" stroke="#000000" stroke-linecap="round" stroke-linejoin="round" stroke-width="5.665705033986964"/>
  <path d="M 3.5587005357141814, 115.52306679622959 Q 3.767886650142834, 125.32234334491004, 3.969802501410657, 138.20379005675298 " fill="none" id="curve_4" stroke="#000000" stroke-linecap="round" stroke-linejoin="round" stroke-width="5.117404325770817"/>
  <path d="M 3.969802501410657, 138.20379005675298 Q 4.014108131140931, 137.80492110069827, 4.111479032970897, 137.51559433100485 " fill="none" id="curve_4" stroke="#000000" stroke-linecap="round" stroke-linejoin="round" stroke-width="3.2559042421636417"/>
  <path d="M 43.27818685930014, 81.20358294368992 Q 43.55783917939607, 78.70979310863164, 60.68742050392954, 78.54934349671456 " fill="none" id="curve_5" stroke="#000000" stroke-linecap="round" stroke-linejoin="round" stroke-width="4.96003161739374"/>
  <path d="M 44.11841505464119, 78.22015650933203 Q 39.25425520030483, 77.84059093585444, 34.14664085561733, 77.34984785953763 " fill="none" id="curve_6" stroke="#000000" stroke-linecap="round" stroke-linejoin="round" stroke-width="4.270997893361699"/>
  <path d="M 73.31609931525958, 77.47291418046724 Q 79.18258954770552, 78.8665641779255, 86.21650493819081, 80.01936856052247 " fill="none" id="curve_8" stroke="#000000" stroke-linecap="round" stroke-linejoin="round" stroke-width="3.7452220181607276"/>
  <path d="M 60.63461007735432, 72.44125533849956 Q 60.736452279299904, 64.53720656803152, 61.07769497117864, 59.82318245810416 " fill="none" id="curve_9" stroke="#000000" stroke-linecap="round" stroke-linejoin="round" stroke-width="2.646916937052943"/>
  <path d="M 65.70504679268386, 41.29480010593503 Q 68.57671275717722, 33.9219656466506, 78.50358726018679, 29.47263353044739 " fill="none" id="curve_10" stroke="#000000" stroke-linecap="round" stroke-linejoin="round" stroke-width="2.6872049548016483"/>
  <path d="M 61.214370368548224, 1.7056528868836054 Q 61.08816547486038, 0.8579013729519255, 51.124135359238004, 0.8138666664026144 " fill="none" id="curve_11" stroke="#000000" stroke-linecap="round" stroke-linejoin="round" stroke-width="1.4071394932467927"/>
  <path d="M 37.58164132836628, 0.7996152976318857 Q 34.982052864386574, 0.8309075809590206, 28.926182531623517, 0.8645323640005845 " fill="none" id="curve_13" stroke="#000000" stroke-linecap="round" stroke-linejoin="round" stroke-width="1.0775274548145146"/>
  <path d="M 16.155106060645352, 0.9751890386806169 Q 8.056185590342468, 1.3809139042363539, 3.729097214385284, 3.1066283585295946 " fill="none" id="curve_14" stroke="#000000" stroke-linecap="round" stroke-linejoin="round" stroke-width="2.6920877083705426"/>
  <path d="M 22.623230094359087, 0.8698796158107094 Q 24.361809008068516, 0.8911812969816402, 26.2970412584458, 0.9184633612784121 " fill="none" id="curve_16" stroke="#000000" stroke-linecap="round" stroke-linejoin="round" stroke-width="1.3977730166501832"/>
  <path d="M 40.724693740421735, 0.8717673377100434 Q 39.83653586229903, 0.8401141129400038, 37.751903541998594, 0.8004172507732625 " fill="none" id="curve_17" stroke="#000000" stroke-linecap="round" stroke-linejoin="round" stroke-width="1.3177524292888707"/>
  <path d="M 48.42421009541239, 0.7172646810004579 Q 48.439343247857494, 0.8064065780875784, 48.46680050193055, 0.9340386164730143 " fill="none" id="curve_18" stroke="#000000" stroke-linecap="round" stroke-linejoin="round" stroke-width="1.7235403692713867"/>
  <path d="M 79.31231266395758, 0.6114434226406003 Q 80.79700744824007, 0.7370833781567285, 83.76268373568331, 0.8629405595231149 " fill="none" id="curve_25" stroke="#000000" stroke-linecap="round" stroke-linejoin="round" stroke-width="0.9700963886244598"/>
  <path d="M 73.22863105202343, 1.1186270160153464 Q 72.8959486161333, 1.109087484663633, 72.24073922636384, 1.0979516606983735 " fill="none" id="curve_26" stroke="#000000" stroke-linecap="round" stroke-linejoin="round" stroke-width="1.4173553778250145"/>
  <path d="M 88.13744684708769, 1.124884674370463 Q 88.5996129920541, 1.0778128559539346, 89.15224462001417, 0.9896811030603107 " fill="none" id="curve_27" stroke="#000000" stroke-linecap="round" stroke-linejoin="round" stroke-width="1.6381468009185862"/>
  <path d="M 5.2759434979488, 42.61478046665556 Q 4.853933562698709, 41.03791390822765, 4.220689490813945, 39.3523793077332 " fill="none" id="curve_34" stroke="#000000" stroke-linecap="round" stroke-linejoin="round" stroke-width="3.0926214624539465"/>
  <path d="M 13.827048748957518, 1.6925180927382577 Q 8.879002583511252, 2.7541667905919063, 4.657348861276331, 5.225881397934252 " fill="none" id="curve_36" stroke="#000000" stroke-linecap="round" stroke-linejoin="round" stroke-width="2.979382536628795"/>
  <path d="M 25.869315439420816, 26.0227334278623 Q 25.855882613707866, 24.692241335008184, 25.79683426149603, 24.055772897736553 " fill="none" id="curve_37" stroke="#000000" stroke-linecap="round" stroke-linejoin="round" stroke-width="3.4683312084722773"/>
  <path d="M 50.07842209727309, 79.21120450660025 Q 49.34453955930536, 78.41642361632942, 47.265637231838866, 77.94054415018194 " fill="none" id="curve_39" stroke="#000000" stroke-linecap="round" stroke-linejoin="round" stroke-width="4.558377522576084"/>
  <path d="M 2.9123272346107356, 79.86744947273691 Q 3.20715926516522, 67.72513083059346, 4.846300914660242, 63.40902056144675 " fill="none" id="curve_40" stroke="#000000" stroke-linecap="round" stroke-linejoin="round" stroke-width="3.1636540709536343"/>
  <path d="M 2.943999176643159, 82.52100138094454 Q 1.8431639596146803, 84.7671519658453, 1.4837160192750924, 111.09147951896296 " fill="none" id="curve_43" stroke="#000000" stroke-linecap="round" stroke-linejoin="round" stroke-width="3.070436858303349"/>
  <path d="M 1.4837160192750924, 111.09147951896296 Q 1.51636105087216, 113.44104109604807, 1.5264831615894907, 128.54287264470062 " fill="none" id="curve_43" stroke="#000000" stroke-linecap="round" stroke-linejoin="round" stroke-width="2.726857414349503"/>
  <path d="M 46.304266624711644, 78.49624460181975 Q 53.32987835980506, 78.88854932629039, 57.21662964403946, 80.29340037586324 " fill="none" id="curve_45" stroke="#000000" stroke-linecap="round" stroke-linejoin="round" stroke-width="2.6827828067072375"/>
  <path d="M 79.55570196357208, 79.96216813688605 Q 80.36663246994748, 79.75940799136087, 81.14933857905822, 79.33426932429292 " fill="none" id="curve_46" stroke="#000000" stroke-linecap="round" stroke-linejoin="round" stroke-width="3.7228722988717067"/>
  <path d="M 81.14933857905822, 79.33426932429292 Q 77.8414927744534, 79.17944861328631, 71.69602572435228, 78.8977846847391 " fill="none" id="curve_46" stroke="#000000" stroke-linecap="round" stroke-linejoin="round" stroke-width="3.062124340594677"/>
  <path d="M 64.64360100000879, 105.1920581908287 Q 64.32783423476072, 104.69219477881315, 64.02400715545015, 103.57254512062276 " fill="none" id="curve_47" stroke="#000000" stroke-linecap="round" stroke-linejoin="round" stroke-width="4.647719567319923"/>
  <path d="M 3.1547219297350253, 15.252420639772888 Q 3.2890806645057653, 4.326630954553552, 9.22611076497832, 3.4616544169982326 " fill="none" id="curve_55" stroke="#000000" stroke-linecap="round" stroke-linejoin="round" stroke-width="2.9537396685439603"/>
  <path d="M 9.22611076497832, 3.4616544169982326 Q 9.1629706849173, 2.291095143083454, 8.81715369080438, 1.6199396487348925 " fill="none" id="curve_55" stroke="#000000" stroke-linecap="round" stroke-linejoin="round" stroke-width="3.3367611559346004"/>
  <path d="M 63.79165251044981, 0.4051300669226734 Q 64.0622888063238, 0.795060142160326, 65.4122290294934, 1.090670082528055 " fill="none" id="curve_72" stroke="#000000" stroke-linecap="round" stroke-linejoin="round" stroke-width="1.6882488924724686"/>
  <path d="M 28.87563276297562, 23.643138982589186 Q 32.7754733618091, 24.01681792993618, 36.37850682116097, 25.51712012626614 " fill="none" id="curve_77" stroke="#000000" stroke-linecap="round" stroke-linejoin="round" stroke-width="2.082239552414442"/>
  <path d="M 2.382644644796801, 61.28358068928673 Q 2.3945824664570576, 67.1916657707507, 2.412363413050463, 76.21278600326215 " fill="none" id="curve_87" stroke="#000000" stroke-linecap="round" stroke-linejoin="round" stroke-width="2.2533806461419448"/>
  <path d="M 2.402140525558596, 17.027166319878514 Q 2.5447265478685495, 6.424854143590956, 5.967786728893151, 5.2197942144974725 " fill="none" id="curve_89" stroke="#000000" stroke-linecap="round" stroke-linejoin="round" stroke-width="3.1176524926390385"/>
  <path d="M 32.55050816954792, 24.414469177283404 Q 29.299091254623256, 24.58156749062225, 25.853254494803355, 25.064278593140212 " fill="none" id="curve_90" stroke="#000000" stroke-linecap="round" stroke-linejoin="round" stroke-width="2.472674189001204"/>
  <path d="M 53.76902727071722, 26.469248370965634 Q 47.271210554229754, 25.697786211470827, 24.125334080490944, 24.81384849350975 " fill="none" id="curve_93" stroke="#000000" stroke-linecap="round" stroke-linejoin="round" stroke-width="2.269668786470901"/>
  <path d="M 4.158645713150545, 6.701665519587415 Q 2.392393964326966, 9.492781676353676, 1.7795111533180137, 22.241670274512565 " fill="none" id="curve_94" stroke="#000000" stroke-linecap="round" stroke-linejoin="round" stroke-width="3.177525237230195"/>
  <path d="M 61.12341781057475, 84.31049098840188 Q 61.50540166335015, 77.15122431148684, 62.499715946434435, 71.17517757168288 " fill="none" id="curve_110" stroke="#000000" stroke-linecap="round" stroke-linejoin="round" stroke-width="2.574118847895375"/>
  <path d="M 57.376630215563495, 78.16862413620785 Q 60.09660381507915, 77.34313421755434, 62.186948491036105, 75.42094224551111 " fill="none" id="curve_111" stroke="#000000" stroke-linecap="round" stroke-linejoin="round" stroke-width="3.6572534436264625"/>
  <path d="M 2.4739295526849574, 53.975742062031564 Q 2.4842976689397385, 72.6093981010409, 2.5116324751469232, 84.82752220597956 " fill="none" id="curve_118" stroke="#000000" stroke-linecap="round" stroke-linejoin="round" stroke-width="3.1976583829701353"/>
  <path d="M 2.5116324751469232, 84.82752220597956 Q 2.8090460040675476, 71.31412834254445, 4.056946120783758, 62.271548643530664 " fill="none" id="curve_118" stroke="#000000" stroke-linecap="round" stroke-linejoin="round" stroke-width="2.3367911376140307"/>
  <path d="M 71.0796491538722, 0.8039369657861696 Q 71.13374510501956, 0.9364311514482901, 71.27858212418003, 1.1023297047034801 " fill="none" id="curve_123" stroke="#000000" stroke-linecap="round" stroke-linejoin="round" stroke-width="1.5906404729674852"/>
  <path d="M 46.656543362485934, 25.727342578776693 Q 41.02341174259334, 26.16880300236002, 37.7847144993308, 27.567036900659485 " fill="none" id="curve_124" stroke="#000000" stroke-linecap="round" stroke-linejoin="round" stroke-width="3.0845410705436063"/>
  <path d="M 81.9769767436433, 78.52096088147098 Q 81.37103447843502, 78.24907966970481, 80.15812355647952, 77.89977301767189 " fill="none" id="curve_140" stroke="#000000" stroke-linecap="round" stroke-linejoin="round" stroke-width="2.5767945438202506"/>
  <path d="M 40.03007666336295, 79.91710699038813 Q 44.561321456980735, 78.81969059910733, 54.489551586255246, 77.76226333723407 " fill="none" id="curve_146" stroke="#000000" stroke-linecap="round" stroke-linejoin="round" stroke-width="2.4031029442663376"/>
  <path d="M 0.6717263540474505, 84.856469510441 Q 1.4989270601822149, 83.75509751612806, 1.7080930992791994, 70.97713070354729 " fill="none" id="curve_161" stroke="#000000" stroke-linecap="round" stroke-linejoin="round" stroke-width="2.338324030308191"/>
  <path d="M 1.7080930992791994, 70.97713070354729 Q 1.8319468445355356, 55.320430177716595, 2.7116526771231744, 49.59296116829927 " fill="none" id="curve_161" stroke="#000000" stroke-linecap="round" stroke-linejoin="round" stroke-width="2.387860134132149"/>
  <path d="M 3.6206884510766573, 6.35072931873607 Q 3.3864175058331107, 8.086950604734534, 3.023113853975067, 11.700846089525708 " fill="none" id="curve_165" stroke="#000000" stroke-linecap="round" stroke-linejoin="round" stroke-width="3.3245002054125363"/>
  <path d="M 33.19515995283281, 24.169406694935674 Q 33.333712618423625, 23.95557724217624, 33.55454066561367, 23.391586957340227 " fill="none" id="curve_182" stroke="#000000" stroke-linecap="round" stroke-linejoin="round" stroke-width="2.4790050640975845"/>
  <path d="M 78.48260818795183, 27.90178603801182 Q 77.57880295509683, 27.323593257929133, 75.66974808034863, 26.43655436939572 " fill="none" id="curve_189" stroke="#000000" stroke-linecap="round" stroke-linejoin="round" stroke-width="2.064072953313775"/>
  <path d="M 49.82234269173773, 24.991372632616116 Q 45.93663639027126, 24.90212238624042, 38.51359996136556, 24.766342581709356 " fill="none" id="curve_190" stroke="#000000" stroke-linecap="round" stroke-linejoin="round" stroke-width="2.4082447589176694"/>
  <path d="M 80.55911561518307, 78.33012412417752 Q 77.27182394697212, 77.98400026319052, 70.53058516178021, 77.621564061971 " fill="none" id="curve_232" stroke="#000000" stroke-linecap="round" stroke-linejoin="round" stroke-width="2.5444843671043555"/>
</svg>
