<?xml version="1.0" ?>
<svg height="140" width="140" xmlns="http://www.w3.org/2000/svg">
  <path d="M 78.1754207611084, 56.16704964637756 Q 76.90973501032099, 53.41515953476043, 71.74398922482214, 50.61858696543641 " fill="none" id="curve_1" stroke="#000000" stroke-linecap="round" stroke-linejoin="round" stroke-width="6.024017213024648"/>
  <path d="M 71.74398922482214, 50.61858696543641 Q 69.41832542025459, 50.20779189005233, 48.72001391473556, 50.03233856841588 " fill="none" id="curve_1" stroke="#000000" stroke-linecap="round" stroke-linejoin="round" stroke-width="7.821920547659755"/>
  <path d="M 48.72001391473556, 50.03233856841588 Q 34.215077863045835, 49.70589681753476, 29.95807761868422, 47.57008337328241 " fill="none" id="curve_1" stroke="#000000" stroke-linecap="round" stroke-linejoin="round" stroke-width="7.589675366726518"/>
  <path d="M 29.95807761868422, 47.57008337328241 Q 31.713694940805613, 45.29696261704162, 32.84138520937719, 40.93777858913521 " fill="none" id="curve_1" stroke="#000000" stroke-linecap="round" stroke-linejoin="round" stroke-width="4.0786555974391225"/>
  <path d="M 76.60455340496526, 55.983486121960624 Q 76.97929456960684, 62.279010669717195, 78.13132159489385, 66.84928244278264 " fill="none" id="curve_2" stroke="#000000" stroke-linecap="round" stroke-linejoin="round" stroke-width="7.515797333772624"/>
  <path d="M 78.13132159489385, 66.84928244278264 Q 74.06166620914176, 82.71440951302453, 66.11348824596983, 98.74091448972345 " fill="none" id="curve_2" stroke="#000000" stroke-linecap="round" stroke-linejoin="round" stroke-width="6.74801979299808"/>
  <path d="M 66.11348824596983, 98.74091448972345 Q 62.404075732612874, 117.41054622812486, 50.2813316737665, 136.0258236381352 " fill="none" id="curve_2" stroke="#000000" stroke-linecap="round" stroke-linejoin="round" stroke-width="5.032808667851332"/>
  <path d="M 42.32912359467163, 101.32443806122033 Q 46.478150580682296, 98.8099100594409, 66.16146108281221, 97.85777729269016 " fill="none" id="curve_3" stroke="#000000" stroke-linecap="round" stroke-linejoin="round" stroke-width="7.156557665374537"/>
  <path d="M 66.16146108281221, 97.85777729269016 Q 79.23644900509703, 97.69424590655387, 87.24305560194907, 97.29134992928516 " fill="none" id="curve_3" stroke="#000000" stroke-linecap="round" stroke-linejoin="round" stroke-width="3.9826551652814173"/>
  <path d="M 55.04379974233109, 120.43880239505441 Q 54.55124882928984, 133.50558248339016, 52.33769599935221, 137.25673256235578 " fill="none" id="curve_4" stroke="#000000" stroke-linecap="round" stroke-linejoin="round" stroke-width="4.475648360737321"/>
  <path d="M 52.33769599935221, 137.25673256235578 Q 54.09295546990304, 126.01805305906504, 58.15072811344256, 117.3834328833386 " fill="none" id="curve_4" stroke="#000000" stroke-linecap="round" stroke-linejoin="round" stroke-width="3.404684792164115"/>
  <path d="M 42.90362172588918, 99.06171601521154 Q 43.651043395998585, 99.22804751813173, 46.12741293223117, 99.34285912452002 " fill="none" id="curve_5" stroke="#000000" stroke-linecap="round" stroke-linejoin="round" stroke-width="7.219797772845732"/>
  <path d="M 77.6284949468186, 64.43660222691689 Q 79.97429343451489, 64.13282598632932, 80.24906730360334, 58.39640752693398 " fill="none" id="curve_6" stroke="#000000" stroke-linecap="round" stroke-linejoin="round" stroke-width="3.804002052546915"/>
  <path d="M 80.24906730360334, 58.39640752693398 Q 79.86232332623604, 53.49417012127684, 66.97525723598541, 53.002549982115546 " fill="none" id="curve_6" stroke="#000000" stroke-linecap="round" stroke-linejoin="round" stroke-width="3.257849751005059"/>
  <path d="M 76.6776816768894, 60.94475505395361 Q 74.82557172215766, 72.07316640436463, 68.36064854618914, 86.07947260373787 " fill="none" id="curve_7" stroke="#000000" stroke-linecap="round" stroke-linejoin="round" stroke-width="2.876509246863194"/>
  <path d="M 48.38711150961025, 102.15385000569896 Q 53.50103976049864, 99.66718487046093, 59.195228955936926, 94.58807353641774 " fill="none" id="curve_8" stroke="#000000" stroke-linecap="round" stroke-linejoin="round" stroke-width="2.8249042694511544"/>
  <path d="M 62.83889279134114, 105.17916112661278 Q 61.169147247768045, 114.67545169121044, 55.513603278219094, 119.34496960072428 " fill="none" id="curve_9" stroke="#000000" stroke-linecap="round" stroke-linejoin="round" stroke-width="3.2970074872298882"/>
  <path d="M 41.026944979147586, 99.07518510406749 Q 41.79037429257859, 98.25138883649723, 43.19057726728883, 97.52295073230819 " fill="none" id="curve_10" stroke="#000000" stroke-linecap="round" stroke-linejoin="round" stroke-width="2.997794946841079"/>
  <path d="M 78.48762131424893, 53.848813691620215 Q 78.0336772430032, 53.66853138196644, 77.40608527859294, 53.39912986490089 " fill="none" id="curve_12" stroke="#000000" stroke-linecap="round" stroke-linejoin="round" stroke-width="4.304272806038816"/>
  <path d="M 75.49031715230468, 66.45389859237909 Q 75.52881042869419, 64.16741338626363, 75.6613663832299, 62.15450132575251 " fill="none" id="curve_14" stroke="#000000" stroke-linecap="round" stroke-linejoin="round" stroke-width="3.722635081857826"/>
  <path d="M 28.864400815568686, 46.93980562670678 Q 28.218513984656777, 47.10430118375728, 27.62760428893092, 47.443012138738005 " fill="none" id="curve_15" stroke="#000000" stroke-linecap="round" stroke-linejoin="round" stroke-width="5.576321292710844"/>
  <path d="M 75.77906860031936, 58.79334782972942 Q 75.39145385630617, 54.607231820365094, 71.79795380055046, 53.334469180246295 " fill="none" id="curve_24" stroke="#000000" stroke-linecap="round" stroke-linejoin="round" stroke-width="3.046274506613547"/>
  <path d="M 63.13037295126209, 99.92752929632479 Q 63.68004945121019, 103.28349961033176, 65.08602123765009, 105.49239853206758 " fill="none" id="curve_39" stroke="#000000" stroke-linecap="round" stroke-linejoin="round" stroke-width="6.498888768036369"/>
  <path d="M 53.174004773719005, 128.77606013299373 Q 53.50060541272843, 129.8557287881748, 53.84004440880921, 131.5757734258187 " fill="none" id="curve_40" stroke="#000000" stroke-linecap="round" stroke-linejoin="round" stroke-width="5.947377543616079"/>
  <path d="M 53.84004440880921, 131.5757734258187 Q 53.56281591251632, 129.77101970994204, 53.04456350337, 127.2803697527463 " fill="none" id="curve_40" stroke="#000000" stroke-linecap="round" stroke-linejoin="round" stroke-width="3.5661658090501787"/>
  <path d="M 32.22113388658208, 40.847336707501725 Q 32.594230099019846, 40.61687019067159, 33.15928560792021, 40.11734974773794 " fill="none" id="curve_43" stroke="#000000" stroke-linecap="round" stroke-linejoin="round" stroke-width="2.776099665245519"/>
  <path d="M 85.82681354879927, 96.58691195946648 Q 87.43355096413426, 97.04663523805029, 89.70912102541524, 97.76134567519533 " fill="none" id="curve_46" stroke="#000000" stroke-linecap="round" stroke-linejoin="round" stroke-width="2.5529479608674492"/>
  <path d="M 48.285833307899594, 101.35467720520651 Q 48.911898375518966, 97.1242053847548, 56.87532595221596, 96.26148198423911 " fill="none" id="curve_55" stroke="#000000" stroke-linecap="round" stroke-linejoin="round" stroke-width="3.0181632006404424"/>
  <path d="M 56.87532595221596, 96.26148198423911 Q 61.079165713550786, 100.57726884194314, 67.59421622922636, 104.41567714620517 " fill="none" id="curve_55" stroke="#000000" stroke-linecap="round" stroke-linejoin="round" stroke-width="3.2500490939000795"/>
  <path d="M 77.4746714212838, 64.78230081273301 Q 79.09500462690764, 63.25112007303165, 81.78957194451012, 61.98186920759393 " fill="none" id="curve_57" stroke="#000000" stroke-linecap="round" stroke-linejoin="round" stroke-width="2.8592015508192454"/>
  <path d="M 67.75798410875336, 90.75064275063531 Q 67.83869347509632, 89.34007483150303, 68.07609242596016, 88.25464796445424 " fill="none" id="curve_137" stroke="#000000" stroke-linecap="round" stroke-linejoin="round" stroke-width="2.661922445089562"/>
</svg>
