<?xml version="1.0" ?>
<svg height="140" width="140" xmlns="http://www.w3.org/2000/svg">
  <path d="M 44.72067737579346, 102.79380130767822 Q 47.14758616124591, 98.36689330710738, 51.28807835648695, 90.08862346409478 " fill="none" id="curve_1" stroke="#000000" stroke-linecap="round" stroke-linejoin="round" stroke-width="7.42239266136965"/>
  <path d="M 51.28807835648695, 90.08862346409478 Q 52.31025709667888, 83.7674461574749, 56.53734421874145, 80.73748004255178 " fill="none" id="curve_1" stroke="#000000" stroke-linecap="round" stroke-linejoin="round" stroke-width="6.905688530024192"/>
  <path d="M 56.53734421874145, 80.73748004255178 Q 58.25045820282076, 73.7196191171121, 61.275297692849634, 66.57869046652041 " fill="none" id="curve_1" stroke="#000000" stroke-linecap="round" stroke-linejoin="round" stroke-width="6.538522219489828"/>
  <path d="M 61.275297692849634, 66.57869046652041 Q 61.22524018487839, 48.770121652283905, 53.599889785889246, 48.26922894751786 " fill="none" id="curve_1" stroke="#000000" stroke-linecap="round" stroke-linejoin="round" stroke-width="5.4052448850623405"/>
  <path d="M 53.599889785889246, 48.26922894751786 Q 41.60433559702736, 48.4097283525917, 40.402169931362366, 51.1177329470693 " fill="none" id="curve_1" stroke="#000000" stroke-linecap="round" stroke-linejoin="round" stroke-width="5.614710910974998"/>
  <path d="M 33.55420103929052, 84.38361152751884 Q 34.96074927227879, 85.27030002941163, 58.994602988411785, 85.38143081884772 " fill="none" id="curve_2" stroke="#000000" stroke-linecap="round" stroke-linejoin="round" stroke-width="5.68870538429644"/>
  <path d="M 58.994602988411785, 85.38143081884772 Q 61.009224363025304, 85.18319299740237, 62.38881380167882, 84.75205866605003 " fill="none" id="curve_2" stroke="#000000" stroke-linecap="round" stroke-linejoin="round" stroke-width="3.1278202660847696"/>
  <path d="M 62.67730651868617, 56.28045224475417 Q 62.407613209531306, 51.24844364043394, 59.895272505275, 49.49621394940319 " fill="none" id="curve_6" stroke="#000000" stroke-linecap="round" stroke-linejoin="round" stroke-width="2.5481746097642803"/>
  <path d="M 37.37585292505606, 82.12053485023927 Q 36.675831173621525, 82.61933899769046, 36.145177313060216, 84.36706363117199 " fill="none" id="curve_7" stroke="#000000" stroke-linecap="round" stroke-linejoin="round" stroke-width="5.388005105356497"/>
  <path d="M 46.79126203019978, 102.65316775318952 Q 47.66610053389294, 100.06133048365216, 49.11726889752707, 97.3293328557236 " fill="none" id="curve_8" stroke="#000000" stroke-linecap="round" stroke-linejoin="round" stroke-width="3.0176992580024558"/>
  <path d="M 35.85505513525443, 85.82505149736052 Q 37.689786055865945, 85.9819075246126, 38.62655773157134, 86.87997363668649 " fill="none" id="curve_9" stroke="#000000" stroke-linecap="round" stroke-linejoin="round" stroke-width="4.054150617482441"/>
  <path d="M 42.10848849437507, 50.05584958991896 Q 43.546309855610886, 47.778900292436134, 51.79919594280611, 46.94634171409607 " fill="none" id="curve_10" stroke="#000000" stroke-linecap="round" stroke-linejoin="round" stroke-width="3.4111532750525826"/>
  <path d="M 41.102270100252305, 51.02601722301749 Q 41.53117052735883, 49.77700266137853, 42.740636293036104, 48.649934240718885 " fill="none" id="curve_11" stroke="#000000" stroke-linecap="round" stroke-linejoin="round" stroke-width="3.8550214002783467"/>
  <path d="M 89.6126202348444, 3.1122731924585523 Q 89.56266467831429, 2.451806302012774, 89.46084954472657, 1.471405659103294 " fill="none" id="curve_12" stroke="#000000" stroke-linecap="round" stroke-linejoin="round" stroke-width="2.2249610588521467"/>
  <path d="M 63.49835071689529, 57.351135513870645 Q 63.28222857286828, 60.83042233848818, 62.3642897030667, 62.965718409287675 " fill="none" id="curve_27" stroke="#000000" stroke-linecap="round" stroke-linejoin="round" stroke-width="2.2679928236976297"/>
  <path d="M 53.91413014676819, 46.77630015017459 Q 52.69561822388232, 46.710595230873004, 44.63410444969326, 46.68396807540928 " fill="none" id="curve_28" stroke="#000000" stroke-linecap="round" stroke-linejoin="round" stroke-width="2.1753962678888543"/>
  <path d="M 33.39230064640656, 82.28206395419308 Q 41.69132700287213, 83.99365592025437, 53.687584632185875, 86.20203797348624 " fill="none" id="curve_30" stroke="#000000" stroke-linecap="round" stroke-linejoin="round" stroke-width="2.3109954114371"/>
  <path d="M 57.80355504136531, 73.94604988548768 Q 56.642452619050644, 75.00648876184773, 55.45152137681496, 77.28287024614917 " fill="none" id="curve_59" stroke="#000000" stroke-linecap="round" stroke-linejoin="round" stroke-width="3.471799182781725"/>
  <path d="M 51.76725895383538, 85.0812530693666 Q 53.08824228707317, 86.61374789695469, 54.592634904053305, 88.75581061624193 " fill="none" id="curve_100" stroke="#000000" stroke-linecap="round" stroke-linejoin="round" stroke-width="3.6087292101230166"/>
  <path d="M 39.472121562389475, 51.91361304466721 Q 39.90181106403682, 50.53846587647599, 41.18946513564884, 49.23255828918167 " fill="none" id="curve_104" stroke="#000000" stroke-linecap="round" stroke-linejoin="round" stroke-width="3.0639611612499404"/>
</svg>
