<?xml version="1.0" ?>
<svg height="140" width="140" xmlns="http://www.w3.org/2000/svg">
  <path d="M 89.27134554072029, 84.22000272897921 Q 89.50219772411272, 88.07660114890119, 89.72436093726803, 105.9365019478891 " fill="none" id="curve_2" stroke="#000000" stroke-linecap="round" stroke-linejoin="round" stroke-width="1.703106427013732"/>
  <path d="M 89.72436093726803, 105.9365019478891 Q 89.71907895472494, 113.5227959024087, 89.69419151715009, 129.95604723827776 " fill="none" id="curve_2" stroke="#000000" stroke-linecap="round" stroke-linejoin="round" stroke-width="1.5343592070406562"/>
  <path d="M 89.69419151715009, 129.95604723827776 Q 89.63949329124637, 135.70707408747927, 89.49283815605051, 138.73188494075487 " fill="none" id="curve_2" stroke="#000000" stroke-linecap="round" stroke-linejoin="round" stroke-width="2.0276774630992187"/>
  <path d="M 89.41126819125522, 83.55204530234795 Q 89.50130720069586, 81.16080941163526, 89.58972877831552, 70.47283795340962 " fill="none" id="curve_8" stroke="#000000" stroke-linecap="round" stroke-linejoin="round" stroke-width="1.316030584853307"/>
  <path d="M 89.58972877831552, 70.47283795340962 Q 89.53014362550826, 68.6424834423437, 89.49138035447692, 58.485559015116166 " fill="none" id="curve_8" stroke="#000000" stroke-linecap="round" stroke-linejoin="round" stroke-width="1.4847460999546283"/>
  <path d="M 89.49138035447692, 58.485559015116166 Q 89.50248968579976, 53.86826175475255, 89.52920076446031, 45.34757664664693 " fill="none" id="curve_8" stroke="#000000" stroke-linecap="round" stroke-linejoin="round" stroke-width="1.4611330377050193"/>
  <path d="M 89.52920076446031, 45.34757664664693 Q 89.52532235289866, 41.741745730054106, 89.5190620385984, 32.325336961588334 " fill="none" id="curve_8" stroke="#000000" stroke-linecap="round" stroke-linejoin="round" stroke-width="1.472219788884542"/>
  <path d="M 89.5190620385984, 32.325336961588334 Q 89.52053892153832, 28.39768922862612, 89.52321888841112, 19.253838090738725 " fill="none" id="curve_8" stroke="#000000" stroke-linecap="round" stroke-linejoin="round" stroke-width="1.456120646143534"/>
  <path d="M 89.52321888841112, 19.253838090738725 Q 89.5170722137823, 15.33258835681383, 89.50612061246653, 6.258203058084916 " fill="none" id="curve_8" stroke="#000000" stroke-linecap="round" stroke-linejoin="round" stroke-width="1.453014741460961"/>
  <path d="M 89.50612061246653, 6.258203058084916 Q 89.19720703421547, 4.1190195326256, 88.8550572894456, 1.2386765764564984 " fill="none" id="curve_8" stroke="#000000" stroke-linecap="round" stroke-linejoin="round" stroke-width="3.084108341171081"/>
  <path d="M 88.8550572894456, 1.2386765764564984 Q 88.49429776955144, 0.9280480808061409, 87.30442608829712, 0.7729629809951817 " fill="none" id="curve_8" stroke="#000000" stroke-linecap="round" stroke-linejoin="round" stroke-width="1.5399483958240552"/>
  <path d="M 60.70014048944653, 65.16919757218062 Q 48.82543938393643, 65.75799095475719, 43.61749476841345, 69.33268349319525 " fill="none" id="curve_14" stroke="#000000" stroke-linecap="round" stroke-linejoin="round" stroke-width="6.144201606616079"/>
  <path d="M 43.61749476841345, 69.33268349319525 Q 46.26789668123721, 70.47504769382199, 46.76729115382459, 93.66731282631083 " fill="none" id="curve_14" stroke="#000000" stroke-linecap="round" stroke-linejoin="round" stroke-width="4.099138464436214"/>
  <path d="M 46.76729115382459, 93.66731282631083 Q 48.743857001476776, 101.27894890074238, 51.40937445716502, 106.88063169187625 " fill="none" id="curve_14" stroke="#000000" stroke-linecap="round" stroke-linejoin="round" stroke-width="4.702691944723699"/>
  <path d="M 46.14384714355778, 67.63940108067366 Q 46.73303684499181, 62.70530631688311, 47.57186528038572, 39.51816382771577 " fill="none" id="curve_16" stroke="#000000" stroke-linecap="round" stroke-linejoin="round" stroke-width="4.076371599734469"/>
  <path d="M 47.57186528038572, 39.51816382771577 Q 47.59385635114208, 30.91781388222919, 47.64369391057716, 22.422563282867547 " fill="none" id="curve_16" stroke="#000000" stroke-linecap="round" stroke-linejoin="round" stroke-width="3.435216589778359"/>
  <path d="M 47.64369391057716, 22.422563282867547 Q 39.58444708681492, 23.795343555498256, 19.73226234043351, 26.287035478679968 " fill="none" id="curve_16" stroke="#000000" stroke-linecap="round" stroke-linejoin="round" stroke-width="4.2612289182972045"/>
  <path d="M 19.73226234043351, 26.287035478679968 Q 17.083028782429118, 26.596824150807983, 15.382795799309882, 27.239938440449457 " fill="none" id="curve_16" stroke="#000000" stroke-linecap="round" stroke-linejoin="round" stroke-width="3.7051493568605247"/>
  <path d="M 38.45699930389364, 69.61656926652992 Q 38.75829253718181, 70.43572587490975, 40.47906508731966, 70.80455906813084 " fill="none" id="curve_17" stroke="#000000" stroke-linecap="round" stroke-linejoin="round" stroke-width="5.347926389312679"/>
  <path d="M 40.47906508731966, 70.80455906813084 Q 49.32911499488097, 68.2545748905406, 59.99428497217635, 64.43357222777918 " fill="none" id="curve_17" stroke="#000000" stroke-linecap="round" stroke-linejoin="round" stroke-width="3.2825540028951887"/>
  <path d="M 47.820249377018875, 87.15393601391077 Q 48.15088823055961, 102.76552800576088, 49.74620749591299, 107.35567110421263 " fill="none" id="curve_18" stroke="#000000" stroke-linecap="round" stroke-linejoin="round" stroke-width="2.4994230412899516"/>
  <path d="M 40.859837229249095, 22.845958209761616 Q 43.577853367929414, 22.64674891751812, 46.92605891612018, 22.18820543902643 " fill="none" id="curve_25" stroke="#000000" stroke-linecap="round" stroke-linejoin="round" stroke-width="2.8948472087062984"/>
  <path d="M 46.13708158177823, 33.42409146443871 Q 46.45050834895598, 37.12055674973641, 46.90641168536712, 41.78960674853657 " fill="none" id="curve_27" stroke="#000000" stroke-linecap="round" stroke-linejoin="round" stroke-width="2.114205672026524"/>
  <path d="M 58.00893119139768, 65.56323319069801 Q 57.063601969875045, 64.88197685263493, 50.401889498951434, 64.60946733636786 " fill="none" id="curve_28" stroke="#000000" stroke-linecap="round" stroke-linejoin="round" stroke-width="2.795998597620847"/>
  <path d="M 37.80430935319167, 23.72771560798639 Q 39.2061553326977, 23.609146854035878, 41.65513392335495, 23.42753070681392 " fill="none" id="curve_31" stroke="#000000" stroke-linecap="round" stroke-linejoin="round" stroke-width="3.308346052715747"/>
  <path d="M 41.866099091260544, 69.36667465500699 Q 44.525865860690594, 70.2827925774998, 47.14517835542593, 72.15268633985501 " fill="none" id="curve_35" stroke="#000000" stroke-linecap="round" stroke-linejoin="round" stroke-width="3.613100703778795"/>
  <path d="M 48.54847295880501, 49.95606905300807 Q 48.25123374488244, 48.16472732593166, 47.498060454225175, 44.742696913929414 " fill="none" id="curve_37" stroke="#000000" stroke-linecap="round" stroke-linejoin="round" stroke-width="2.134610700095309"/>
  <path d="M 41.62483376136131, 23.86164413232138 Q 37.781142086045364, 24.018195060428237, 34.08123511624507, 24.535395259631056 " fill="none" id="curve_44" stroke="#000000" stroke-linecap="round" stroke-linejoin="round" stroke-width="2.771303140620186"/>
  <path d="M 48.53498360411436, 97.0755653084214 Q 47.63065724239823, 98.00630198320653, 46.23010363172574, 99.39890579252527 " fill="none" id="curve_48" stroke="#000000" stroke-linecap="round" stroke-linejoin="round" stroke-width="4.45203621975584"/>
  <path d="M 38.71731038259239, 22.7183356686391 Q 38.790857138007915, 22.789555206914255, 38.897416171344894, 22.928655799932802 " fill="none" id="curve_76" stroke="#000000" stroke-linecap="round" stroke-linejoin="round" stroke-width="2.992435047879479"/>
  <path d="M 58.3783528809511, 65.85148628120821 Q 58.75552290941315, 65.87960888744755, 59.26236851616131, 65.92958928567053 " fill="none" id="curve_92" stroke="#000000" stroke-linecap="round" stroke-linejoin="round" stroke-width="3.7597543298210376"/>
  <path d="M 42.34641484066952, 70.24761409736891 Q 39.90373818613705, 70.14395386124019, 36.881734359714564, 69.9597576321286 " fill="none" id="curve_96" stroke="#000000" stroke-linecap="round" stroke-linejoin="round" stroke-width="3.0098880127840855"/>
  <path d="M 50.9833089401039, 107.7663719321707 Q 52.2715420802626, 107.67518484456393, 53.87485158929536, 107.49542851718124 " fill="none" id="curve_99" stroke="#000000" stroke-linecap="round" stroke-linejoin="round" stroke-width="2.8168561736628734"/>
  <path d="M 46.413325249686935, 57.37244971269301 Q 45.91383341743412, 57.02922118025748, 45.06231431733634, 56.67297785250797 " fill="none" id="curve_135" stroke="#000000" stroke-linecap="round" stroke-linejoin="round" stroke-width="3.4286486811104155"/>
  <path d="M 46.12778510271421, 88.80740684892191 Q 47.11513977546499, 86.95209863638264, 48.57101039766992, 85.02990952051442 " fill="none" id="curve_146" stroke="#000000" stroke-linecap="round" stroke-linejoin="round" stroke-width="2.951966870956005"/>
  <path d="M 47.18611640643063, 74.5005239926422 Q 46.51898077226586, 72.60144016342959, 45.19276508457009, 70.04859078353105 " fill="none" id="curve_175" stroke="#000000" stroke-linecap="round" stroke-linejoin="round" stroke-width="2.0788085602090347"/>
  <path d="M 48.75900849886455, 99.60307282050613 Q 49.14429548095724, 100.69633173898488, 49.911557309679246, 102.10366396134623 " fill="none" id="curve_194" stroke="#000000" stroke-linecap="round" stroke-linejoin="round" stroke-width="2.9864529358715437"/>
</svg>
