<?xml version="1.0" ?>
<svg height="140" width="140" xmlns="http://www.w3.org/2000/svg">
  <path d="M 34.24383544921875, 100.9140335842967 Q 35.2045299323591, 100.50516736432927, 35.58110560461603, 97.06867917317771 " fill="none" id="curve_1" stroke="#000000" stroke-linecap="round" stroke-linejoin="round" stroke-width="6.497096623108947"/>
  <path d="M 35.58110560461603, 97.06867917317771 Q 36.589659124127316, 94.57876409617207, 37.315127965009964, 88.41456205200515 " fill="none" id="curve_1" stroke="#000000" stroke-linecap="round" stroke-linejoin="round" stroke-width="6.288259143197678"/>
  <path d="M 37.315127965009964, 88.41456205200515 Q 37.94727183292124, 84.37541887942992, 38.45675163067913, 69.68516976365372 " fill="none" id="curve_1" stroke="#000000" stroke-linecap="round" stroke-linejoin="round" stroke-width="7.404460597439043"/>
  <path d="M 38.45675163067913, 69.68516976365372 Q 39.0815719995223, 62.99305287892212, 40.15234920406735, 55.78976958945992 " fill="none" id="curve_1" stroke="#000000" stroke-linecap="round" stroke-linejoin="round" stroke-width="9.135897991006921"/>
  <path d="M 40.15234920406735, 55.78976958945992 Q 43.45818711183128, 49.863018133832895, 46.04470220450214, 28.4759969812426 " fill="none" id="curve_1" stroke="#000000" stroke-linecap="round" stroke-linejoin="round" stroke-width="7.679083032672471"/>
  <path d="M 46.04470220450214, 28.4759969812426 Q 46.00728247488436, 23.03285233884991, 45.6833373524428, 21.83170717545357 " fill="none" id="curve_1" stroke="#000000" stroke-linecap="round" stroke-linejoin="round" stroke-width="4.444917784596288"/>
  <path d="M 45.6833373524428, 21.83170717545357 Q 32.2250969662192, 23.31005642015373, 20.73901603278101, 25.921025160126405 " fill="none" id="curve_1" stroke="#000000" stroke-linecap="round" stroke-linejoin="round" stroke-width="4.531818078329536"/>
  <path d="M 20.89557611802098, 59.20468807572104 Q 38.0002117697543, 57.98965185974049, 52.8022664846596, 54.61083693071812 " fill="none" id="curve_2" stroke="#000000" stroke-linecap="round" stroke-linejoin="round" stroke-width="5.291791942299098"/>
  <path d="M 52.8022664846596, 54.61083693071812 Q 63.24941032754232, 52.01611396013719, 86.40608497316704, 48.784042256347675 " fill="none" id="curve_2" stroke="#000000" stroke-linecap="round" stroke-linejoin="round" stroke-width="4.130591596218411"/>
  <path d="M 86.40608497316704, 48.784042256347675 Q 88.10988122067914, 48.88048068747685, 89.17542864350955, 49.14500427456083 " fill="none" id="curve_2" stroke="#000000" stroke-linecap="round" stroke-linejoin="round" stroke-width="3.4707316529542256"/>
  <path d="M 88.98062378860084, 4.0160506699676475 Q 89.40841440607193, 3.07771486543402, 90.05221183238353, 1.6853272895639173 " fill="none" id="curve_3" stroke="#000000" stroke-linecap="round" stroke-linejoin="round" stroke-width="1.9247665478065774"/>
  <path d="M 34.46695767119836, 56.6673801507908 Q 23.849000369663713, 56.7635140057611, 22.02070352241534, 58.07757199786768 " fill="none" id="curve_7" stroke="#000000" stroke-linecap="round" stroke-linejoin="round" stroke-width="2.508425849558255"/>
  <path d="M 51.78129055833121, 53.640269172958874 Q 54.22723585795702, 52.558058039133385, 61.11256128799221, 51.81152619538564 " fill="none" id="curve_8" stroke="#000000" stroke-linecap="round" stroke-linejoin="round" stroke-width="2.537949068236456"/>
  <path d="M 30.327870089180276, 21.923466206970303 Q 25.84987523294453, 23.180339479154593, 21.366073472212648, 24.900259736273906 " fill="none" id="curve_10" stroke="#000000" stroke-linecap="round" stroke-linejoin="round" stroke-width="3.5013804630190126"/>
  <path d="M 45.50721380834102, 20.99550961858756 Q 45.702016959941155, 22.21657900632017, 46.015796175675426, 23.70401609050885 " fill="none" id="curve_11" stroke="#000000" stroke-linecap="round" stroke-linejoin="round" stroke-width="4.16911282287585"/>
  <path d="M 46.015796175675426, 23.70401609050885 Q 45.181782394409005, 22.981388403693217, 43.25002522629348, 22.100493964153134 " fill="none" id="curve_11" stroke="#000000" stroke-linecap="round" stroke-linejoin="round" stroke-width="3.8355774524740474"/>
  <path d="M 45.62613737399975, 24.294626559060372 Q 45.175696391520304, 23.211585646273257, 43.04505839540705, 22.21216676204041 " fill="none" id="curve_17" stroke="#000000" stroke-linecap="round" stroke-linejoin="round" stroke-width="3.2776163622490517"/>
  <path d="M 39.653361197754826, 21.232683276959047 Q 43.24344560301986, 21.939199227509715, 47.280646277793, 23.656424258214 " fill="none" id="curve_27" stroke="#000000" stroke-linecap="round" stroke-linejoin="round" stroke-width="3.102052453457884"/>
  <path d="M 44.010654287815946, 22.63557578560865 Q 45.50284986084338, 23.302477682298715, 48.8584054503665, 24.661451788511265 " fill="none" id="curve_28" stroke="#000000" stroke-linecap="round" stroke-linejoin="round" stroke-width="2.888105661703196"/>
  <path d="M 82.13230204647888, 49.023915915549125 Q 76.94416198315638, 49.122719239880475, 70.33277074954238, 49.42871315946246 " fill="none" id="curve_30" stroke="#000000" stroke-linecap="round" stroke-linejoin="round" stroke-width="2.2248657394014786"/>
  <path d="M 35.59484293986435, 102.76020049752783 Q 35.949326982525896, 102.52605121664936, 36.191522241799206, 101.73181901010726 " fill="none" id="curve_41" stroke="#000000" stroke-linecap="round" stroke-linejoin="round" stroke-width="4.266272176199099"/>
  <path d="M 36.191522241799206, 101.73181901010726 Q 36.25851132163838, 102.04544222962511, 36.43490398058355, 102.48457931099058 " fill="none" id="curve_41" stroke="#000000" stroke-linecap="round" stroke-linejoin="round" stroke-width="2.6323254027488865"/>
  <path d="M 43.7166054967869, 25.475956218925308 Q 43.524588353874876, 21.661062865413978, 41.705491769539805, 20.597499777047076 " fill="none" id="curve_87" stroke="#000000" stroke-linecap="round" stroke-linejoin="round" stroke-width="2.4526021110067324"/>
  <path d="M 69.8436340978132, 51.545625114996376 Q 68.95093959765829, 50.909918588719634, 65.90922830051704, 50.31774860555386 " fill="none" id="curve_169" stroke="#000000" stroke-linecap="round" stroke-linejoin="round" stroke-width="2.7603504416046407"/>
</svg>
