<?xml version="1.0" ?>
<svg height="140" width="140" xmlns="http://www.w3.org/2000/svg">
  <path d="M 45.20583724975586, 16.573405265808105 Q 44.28414020185133, 19.55082145071968, 42.45655366859455, 24.327997136922477 " fill="none" id="curve_1" stroke="#000000" stroke-linecap="round" stroke-linejoin="round" stroke-width="6.819525256693292"/>
  <path d="M 42.45655366859455, 24.327997136922477 Q 38.80171443479962, 28.311079074269276, 29.67820568984495, 31.532147977666842 " fill="none" id="curve_1" stroke="#000000" stroke-linecap="round" stroke-linejoin="round" stroke-width="4.097008672090189"/>
  <path d="M 29.67820568984495, 31.532147977666842 Q 11.297735466876695, 31.364345912900657, 8.658824109396846, 27.475885531640976 " fill="none" id="curve_1" stroke="#000000" stroke-linecap="round" stroke-linejoin="round" stroke-width="4.27793513738855"/>
  <path d="M 43.77329953352374, 28.87705936414757 Q 42.88359727938848, 32.66895760392576, 42.121268640156316, 61.406216280251634 " fill="none" id="curve_3" stroke="#000000" stroke-linecap="round" stroke-linejoin="round" stroke-width="4.319253471638116"/>
  <path d="M 42.121268640156316, 61.406216280251634 Q 42.08160282407932, 72.02069870478984, 41.671806610881525, 74.26003548641076 " fill="none" id="curve_3" stroke="#000000" stroke-linecap="round" stroke-linejoin="round" stroke-width="3.4935980047654875"/>
  <path d="M 41.671806610881525, 74.26003548641076 Q 42.69049383704671, 79.45879045903753, 43.93391231031054, 103.60770240487382 " fill="none" id="curve_3" stroke="#000000" stroke-linecap="round" stroke-linejoin="round" stroke-width="4.942526431605567"/>
  <path d="M 43.93391231031054, 103.60770240487382 Q 44.19067406646581, 106.80133521800838, 44.922438593171, 108.40101208822766 " fill="none" id="curve_3" stroke="#000000" stroke-linecap="round" stroke-linejoin="round" stroke-width="4.00096086710757"/>
  <path d="M 44.922438593171, 108.40101208822766 Q 44.04314316547947, 97.48574956010802, 41.55800466797057, 91.28188199253121 " fill="none" id="curve_3" stroke="#000000" stroke-linecap="round" stroke-linejoin="round" stroke-width="3.1012984963828387"/>
  <path d="M 55.31281107781022, 71.11968589552174 Q 52.8177972850686, 68.86144212506555, 31.44218066091115, 67.84383415147678 " fill="none" id="curve_4" stroke="#000000" stroke-linecap="round" stroke-linejoin="round" stroke-width="4.616226090518922"/>
  <path d="M 31.44218066091115, 67.84383415147678 Q 28.560031054878987, 67.087612514515, 27.036369964266054, 65.14238788868235 " fill="none" id="curve_4" stroke="#000000" stroke-linecap="round" stroke-linejoin="round" stroke-width="4.550275145054862"/>
  <path d="M 40.92489154630775, 70.6048677895812 Q 38.947726250152726, 70.12594004776365, 33.05584291547286, 69.78176888997639 " fill="none" id="curve_5" stroke="#000000" stroke-linecap="round" stroke-linejoin="round" stroke-width="2.901935863969773"/>
  <path d="M 46.2105674306209, 68.3675584245389 Q 42.218017018904256, 70.28349214595002, 41.561785163465274, 89.94828335143536 " fill="none" id="curve_6" stroke="#000000" stroke-linecap="round" stroke-linejoin="round" stroke-width="2.4460008730222964"/>
  <path d="M 54.83685242426822, 69.94880745253701 Q 56.40323227098089, 70.35905312867446, 58.055206338748775, 70.99000848920636 " fill="none" id="curve_7" stroke="#000000" stroke-linecap="round" stroke-linejoin="round" stroke-width="2.2735757930301137"/>
  <path d="M 47.670972841248066, 68.70585972710936 Q 50.93816371435343, 68.92273231403615, 53.79100694717655, 69.33991074218702 " fill="none" id="curve_8" stroke="#000000" stroke-linecap="round" stroke-linejoin="round" stroke-width="2.6857482113716085"/>
  <path d="M 45.99982329518596, 16.787266544889114 Q 46.05922004123521, 16.521631540780024, 46.10331054363038, 15.9477697135519 " fill="none" id="curve_10" stroke="#000000" stroke-linecap="round" stroke-linejoin="round" stroke-width="5.047353136482107"/>
  <path d="M 46.875335693359375, 16.528560638427734 Q 46.52968011435359, 19.32324273679367, 45.39120347269725, 21.769386448021237 " fill="none" id="curve_24" stroke="#000000" stroke-linecap="round" stroke-linejoin="round" stroke-width="2.8252385661402224"/>
  <path d="M 44.00655236007456, 41.53685995088207 Q 43.62932970364083, 40.15543297698017, 43.154768901422706, 38.40383247011012 " fill="none" id="curve_25" stroke="#000000" stroke-linecap="round" stroke-linejoin="round" stroke-width="4.2653688490359345"/>
  <path d="M 43.38732474999672, 65.66177186377378 Q 43.87710280430765, 68.11363788470675, 48.58432704921928, 68.80321644355357 " fill="none" id="curve_48" stroke="#000000" stroke-linecap="round" stroke-linejoin="round" stroke-width="2.6248644765181584"/>
  <path d="M 43.05334725390868, 105.1515227174618 Q 43.120913024708905, 104.29509032101033, 43.20993354829888, 102.86383864765098 " fill="none" id="curve_55" stroke="#000000" stroke-linecap="round" stroke-linejoin="round" stroke-width="3.2042981239971855"/>
  <path d="M 43.3026098211539, 49.35969501852092 Q 42.98650583398354, 57.65929774961877, 42.061321331110584, 63.58493757369274 " fill="none" id="curve_103" stroke="#000000" stroke-linecap="round" stroke-linejoin="round" stroke-width="2.128558918742722"/>
  <path d="M 44.85426862641635, 22.493457244555632 Q 44.950322435046424, 22.643514313018034, 45.121366274158035, 22.846570178582486 " fill="none" id="curve_140" stroke="#000000" stroke-linecap="round" stroke-linejoin="round" stroke-width="2.3773497203645793"/>
</svg>
