<?xml version="1.0" ?>
<svg height="140" width="140" xmlns="http://www.w3.org/2000/svg">
  <path d="M 51.012508392333984, 67.16246032714844 Q 50.71320467938959, 61.89125307945869, 47.87394515994975, 59.62696232415385 " fill="none" id="curve_1" stroke="#000000" stroke-linecap="round" stroke-linejoin="round" stroke-width="5.656834549379474"/>
  <path d="M 47.87394515994975, 59.62696232415385 Q 48.98408475133422, 63.98106904905473, 51.934486123839704, 68.21043587742778 " fill="none" id="curve_1" stroke="#000000" stroke-linecap="round" stroke-linejoin="round" stroke-width="3.374454075663976"/>
  <path d="M 51.934486123839704, 68.21043587742778 Q 47.051154231617744, 73.44687472259788, 31.32194360983574, 92.71773509062109 " fill="none" id="curve_1" stroke="#000000" stroke-linecap="round" stroke-linejoin="round" stroke-width="4.667855298066042"/>
  <path d="M 31.32194360983574, 92.71773509062109 Q 26.57021716937757, 96.50800140614159, 17.58393072212816, 110.56375895118313 " fill="none" id="curve_1" stroke="#000000" stroke-linecap="round" stroke-linejoin="round" stroke-width="4.4668061989885235"/>
  <path d="M 17.58393072212816, 110.56375895118313 Q 14.026901195902854, 113.63619419215337, 12.879258283397395, 124.18459584886533 " fill="none" id="curve_1" stroke="#000000" stroke-linecap="round" stroke-linejoin="round" stroke-width="5.503110911365793"/>
  <path d="M 6.023649959672942, 95.70554182484598 Q 7.796938786532574, 94.91976400100489, 25.022950073297107, 94.77307239047137 " fill="none" id="curve_2" stroke="#000000" stroke-linecap="round" stroke-linejoin="round" stroke-width="5.6877328572297285"/>
  <path d="M 25.022950073297107, 94.77307239047137 Q 29.223645065212768, 97.65846875612502, 48.38028798959507, 98.43947195956598 " fill="none" id="curve_2" stroke="#000000" stroke-linecap="round" stroke-linejoin="round" stroke-width="4.224141146094588"/>
  <path d="M 15.101429143115539, 124.54506319347303 Q 14.161548514524005, 124.49050975974876, 12.921752111301771, 124.4299653030975 " fill="none" id="curve_3" stroke="#000000" stroke-linecap="round" stroke-linejoin="round" stroke-width="5.405631866081803"/>
  <path d="M 3.951596241925616, 94.54178970894326 Q 8.969805203317978, 95.6397846167314, 16.115020787689712, 97.09708219509014 " fill="none" id="curve_4" stroke="#000000" stroke-linecap="round" stroke-linejoin="round" stroke-width="3.4463135510543244"/>
  <path d="M 46.04522730006478, 61.83479385773752 Q 41.03347403376503, 57.66975906583933, 24.828397520237875, 49.057307781243786 " fill="none" id="curve_5" stroke="#000000" stroke-linecap="round" stroke-linejoin="round" stroke-width="5.4359480219942125"/>
  <path d="M 24.828397520237875, 49.057307781243786 Q 23.523357692677475, 48.32323836204404, 21.89351463801703, 47.545692892322826 " fill="none" id="curve_5" stroke="#000000" stroke-linecap="round" stroke-linejoin="round" stroke-width="7.726123830002843"/>
  <path d="M 45.695361816048305, 58.193878833047485 Q 43.40394461445617, 57.37033007512803, 37.020595622482915, 56.78030287833698 " fill="none" id="curve_6" stroke="#000000" stroke-linecap="round" stroke-linejoin="round" stroke-width="3.709016167505186"/>
  <path d="M 53.24523593701428, 61.581538822046724 Q 50.57204943330152, 72.40553968385089, 41.194555867286475, 79.48267071945186 " fill="none" id="curve_7" stroke="#000000" stroke-linecap="round" stroke-linejoin="round" stroke-width="2.6731895858223838"/>
  <path d="M 6.179544599718419, 92.34472549030716 Q 5.6896463632067436, 93.27828437807509, 4.6641327701817055, 94.10483379359205 " fill="none" id="curve_8" stroke="#000000" stroke-linecap="round" stroke-linejoin="round" stroke-width="2.7362939467576464"/>
  <path d="M 32.462231584880215, 55.740113320372814 Q 35.38152534198841, 56.239157326400665, 40.58247032791891, 56.85359066482136 " fill="none" id="curve_9" stroke="#000000" stroke-linecap="round" stroke-linejoin="round" stroke-width="2.519214992079564"/>
  <path d="M 26.032821998181298, 99.1439814762704 Q 18.203930528266, 104.23738207760388, 12.870922609962898, 118.8064508491044 " fill="none" id="curve_11" stroke="#000000" stroke-linecap="round" stroke-linejoin="round" stroke-width="3.0994016552196286"/>
  <path d="M 12.870922609962898, 118.8064508491044 Q 17.890832344177127, 115.48241540542908, 20.314283489948245, 101.34795398178905 " fill="none" id="curve_11" stroke="#000000" stroke-linecap="round" stroke-linejoin="round" stroke-width="2.422993458246532"/>
  <path d="M 44.56458811597874, 78.2547630700896 Q 47.85286425346327, 74.05693088576226, 51.20997112795085, 66.61676237486077 " fill="none" id="curve_17" stroke="#000000" stroke-linecap="round" stroke-linejoin="round" stroke-width="2.7938144496659154"/>
  <path d="M 46.61350706814132, 57.26896179781418 Q 41.55752756455342, 56.922883994842, 37.01502179406034, 55.751386147654614 " fill="none" id="curve_18" stroke="#000000" stroke-linecap="round" stroke-linejoin="round" stroke-width="2.823230515243024"/>
  <path d="M 37.01502179406034, 55.751386147654614 Q 35.84365247561228, 53.48863367191137, 28.82561242305232, 52.658141187728354 " fill="none" id="curve_18" stroke="#000000" stroke-linecap="round" stroke-linejoin="round" stroke-width="3.9633980559081885"/>
  <path d="M 31.10857153071602, 93.88625857486997 Q 31.57693060227772, 97.64275899345019, 36.72297107325508, 98.48966850555477 " fill="none" id="curve_19" stroke="#000000" stroke-linecap="round" stroke-linejoin="round" stroke-width="4.161673269103995"/>
  <path d="M 6.792844561601797, 94.0415864702151 Q 10.571487029629504, 94.16945247209557, 16.76898822805087, 94.38463816652427 " fill="none" id="curve_20" stroke="#000000" stroke-linecap="round" stroke-linejoin="round" stroke-width="2.399078415038733"/>
  <path d="M 43.9055501685708, 75.39514199171849 Q 46.12559320326752, 74.48783072267987, 48.45772709810727, 72.63610281693946 " fill="none" id="curve_88" stroke="#000000" stroke-linecap="round" stroke-linejoin="round" stroke-width="2.7641838464138013"/>
</svg>
