<?xml version="1.0" ?>
<svg height="140" width="140" xmlns="http://www.w3.org/2000/svg">
  <path d="M 50.561813831329346, 65.92771625518799 Q 51.2623551456567, 58.102149303069865, 53.23001900574405, 47.821996599116574 " fill="none" id="curve_1" stroke="#000000" stroke-linecap="round" stroke-linejoin="round" stroke-width="6.365027736251045"/>
  <path d="M 53.23001900574405, 47.821996599116574 Q 45.53042001760802, 49.535422544059784, 29.958406500377418, 51.22607713299748 " fill="none" id="curve_1" stroke="#000000" stroke-linecap="round" stroke-linejoin="round" stroke-width="4.6011774025805074"/>
  <path d="M 29.958406500377418, 51.22607713299748 Q 26.48004006328761, 50.40813781598955, 24.029081602646116, 48.89249074523137 " fill="none" id="curve_1" stroke="#000000" stroke-linecap="round" stroke-linejoin="round" stroke-width="5.965307026524777"/>
  <path d="M 49.99791097575648, 69.30936563366035 Q 48.93941718848743, 77.01485662642139, 47.81947160854183, 87.39900775679712 " fill="none" id="curve_2" stroke="#000000" stroke-linecap="round" stroke-linejoin="round" stroke-width="5.0903940517974196"/>
  <path d="M 47.81947160854183, 87.39900775679712 Q 48.48286898829981, 92.24572526749783, 48.71144779662409, 112.7413081903862 " fill="none" id="curve_2" stroke="#000000" stroke-linecap="round" stroke-linejoin="round" stroke-width="5.008577199139338"/>
  <path d="M 46.86999140949521, 84.01450257845427 Q 52.57473284934027, 82.6178027145352, 68.97254435654061, 81.69573264926687 " fill="none" id="curve_3" stroke="#000000" stroke-linecap="round" stroke-linejoin="round" stroke-width="4.137912792146468"/>
  <path d="M 44.81245839257071, 84.61640238787014 Q 39.699211746263764, 84.51485844286955, 36.07991502697662, 84.30126453069569 " fill="none" id="curve_4" stroke="#000000" stroke-linecap="round" stroke-linejoin="round" stroke-width="5.989490898721697"/>
  <path d="M 49.36489620566654, 65.24890788214019 Q 49.57916769082604, 56.66709516344258, 50.59884730391542, 53.57892324069889 " fill="none" id="curve_5" stroke="#000000" stroke-linecap="round" stroke-linejoin="round" stroke-width="3.3813957767602068"/>
  <path d="M 49.486148373404134, 68.17568352795813 Q 49.15983579084145, 72.1843084423768, 48.620146281697025, 79.12115818884887 " fill="none" id="curve_6" stroke="#000000" stroke-linecap="round" stroke-linejoin="round" stroke-width="3.0286437843653635"/>
  <path d="M 49.72918094222921, 108.17954280732613 Q 49.41210338281309, 93.47755571414169, 48.595694592545854, 76.33792969876671 " fill="none" id="curve_7" stroke="#000000" stroke-linecap="round" stroke-linejoin="round" stroke-width="2.972254749186799"/>
  <path d="M 48.595694592545854, 76.33792969876671 Q 48.953028427829494, 64.5596002715179, 52.945010744515656, 62.41242106051791 " fill="none" id="curve_7" stroke="#000000" stroke-linecap="round" stroke-linejoin="round" stroke-width="3.5208201609990244"/>
  <path d="M 49.17072034889437, 92.57232159295818 Q 49.44025519368329, 91.02776614764345, 49.54251399397799, 81.49724706219803 " fill="none" id="curve_11" stroke="#000000" stroke-linecap="round" stroke-linejoin="round" stroke-width="3.5082378175295728"/>
  <path d="M 33.98076257273454, 82.71732676112988 Q 33.900595491045905, 83.19174399933296, 33.75477370237274, 83.81199994692744 " fill="none" id="curve_13" stroke="#000000" stroke-linecap="round" stroke-linejoin="round" stroke-width="2.9784449962510253"/>
  <path d="M 50.33306528579227, 112.72511026489249 Q 49.9872921269323, 112.45043175797271, 49.14125070870661, 112.16259439832038 " fill="none" id="curve_16" stroke="#000000" stroke-linecap="round" stroke-linejoin="round" stroke-width="3.7318593825079414"/>
  <path d="M 47.19967354575971, 77.22270422450876 Q 47.77958870024703, 69.13225718607107, 51.5926622319463, 66.45193374898787 " fill="none" id="curve_17" stroke="#000000" stroke-linecap="round" stroke-linejoin="round" stroke-width="2.8875583683793784"/>
  <path d="M 25.187716286443095, 48.46176841036923 Q 25.036645514004032, 47.92085192570384, 24.884741205129114, 46.89372047856176 " fill="none" id="curve_18" stroke="#000000" stroke-linecap="round" stroke-linejoin="round" stroke-width="4.36571606035455"/>
  <path d="M 48.02455823016038, 81.01082257770135 Q 47.62612744451621, 81.33303215331232, 46.69562117815535, 81.92212672416828 " fill="none" id="curve_24" stroke="#000000" stroke-linecap="round" stroke-linejoin="round" stroke-width="4.01402000146963"/>
  <path d="M 29.919470703237845, 51.252587749466436 Q 27.253555603579162, 50.84901570439986, 23.962042619204578, 50.15815041459929 " fill="none" id="curve_27" stroke="#000000" stroke-linecap="round" stroke-linejoin="round" stroke-width="4.295974999632114"/>
  <path d="M 34.75935439232072, 52.9099273946503 Q 33.018339701138316, 51.148118748737446, 28.966939912932116, 49.365495893820864 " fill="none" id="curve_32" stroke="#000000" stroke-linecap="round" stroke-linejoin="round" stroke-width="2.08105578082696"/>
  <path d="M 36.82245104694389, 86.31764523764856 Q 40.25464162850419, 86.04302009135728, 44.3443936033499, 85.6375208699746 " fill="none" id="curve_34" stroke="#000000" stroke-linecap="round" stroke-linejoin="round" stroke-width="2.4246843902705915"/>
  <path d="M 47.376570521680826, 79.72244224122029 Q 47.66824149793373, 79.46479720301242, 48.709152150713216, 79.26890194728016 " fill="none" id="curve_35" stroke="#000000" stroke-linecap="round" stroke-linejoin="round" stroke-width="2.786815969077669"/>
  <path d="M 53.781444450567506, 82.97789337108316 Q 50.808550922474694, 80.77560836372152, 46.17523053103888, 77.46412211486621 " fill="none" id="curve_50" stroke="#000000" stroke-linecap="round" stroke-linejoin="round" stroke-width="2.5667200561898755"/>
  <path d="M 46.857448807440186, 110.26054821539847 Q 47.09818829320029, 97.1965195433026, 49.11274689275344, 92.85838399634602 " fill="none" id="curve_79" stroke="#000000" stroke-linecap="round" stroke-linejoin="round" stroke-width="2.8575726982483416"/>
  <path d="M 89.87273025512695, 0.54962158203125 Q 89.83370424200625, 1.3723543516009131, 89.69671574171296, 2.1987081450576937 " fill="none" id="curve_93" stroke="#000000" stroke-linecap="round" stroke-linejoin="round" stroke-width="1.630102037875049"/>
</svg>
