<?xml version="1.0" ?>
<svg height="140" width="140" xmlns="http://www.w3.org/2000/svg">
  <path d="M 42.34319877624512, 111.79504013061523 Q 42.91013970357011, 107.49494542720417, 45.281866578100335, 103.57074194993811 " fill="none" id="curve_1" stroke="#000000" stroke-linecap="round" stroke-linejoin="round" stroke-width="7.204349807570688"/>
  <path d="M 45.281866578100335, 103.57074194993811 Q 48.30285452972603, 98.34782804681367, 51.95213143660619, 84.61196816256233 " fill="none" id="curve_1" stroke="#000000" stroke-linecap="round" stroke-linejoin="round" stroke-width="6.422667241952423"/>
  <path d="M 51.95213143660619, 84.61196816256233 Q 54.988909437563244, 75.97186246717413, 62.872746043302165, 56.2793765139631 " fill="none" id="curve_1" stroke="#000000" stroke-linecap="round" stroke-linejoin="round" stroke-width="5.799174858469403"/>
  <path d="M 62.872746043302165, 56.2793765139631 Q 66.13722748042059, 48.305909674016924, 72.44170708426338, 40.344539363432304 " fill="none" id="curve_1" stroke="#000000" stroke-linecap="round" stroke-linejoin="round" stroke-width="6.258094080162379"/>
  <path d="M 72.44170708426338, 40.344539363432304 Q 70.37811272499266, 37.84497627442686, 39.999513375976115, 36.893192015141366 " fill="none" id="curve_1" stroke="#000000" stroke-linecap="round" stroke-linejoin="round" stroke-width="5.313223647095445"/>
  <path d="M 39.999513375976115, 36.893192015141366 Q 30.782436154217045, 37.0530330623766, 29.60368301601045, 39.15427986045858 " fill="none" id="curve_1" stroke="#000000" stroke-linecap="round" stroke-linejoin="round" stroke-width="5.983482606341778"/>
  <path d="M 29.60368301601045, 39.15427986045858 Q 30.275285955984383, 39.74756978223944, 30.82153040826611, 41.0089702236164 " fill="none" id="curve_1" stroke="#000000" stroke-linecap="round" stroke-linejoin="round" stroke-width="3.7868087804778354"/>
  <path d="M 43.479081409619226, 111.317856016887 Q 43.25926331312165, 112.56604951041476, 42.672578960842486, 113.2790026360209 " fill="none" id="curve_3" stroke="#000000" stroke-linecap="round" stroke-linejoin="round" stroke-width="5.808865083542603"/>
  <path d="M 42.672578960842486, 113.2790026360209 Q 43.92554863283346, 111.05897901746401, 45.42657610593975, 108.14615714449808 " fill="none" id="curve_3" stroke="#000000" stroke-linecap="round" stroke-linejoin="round" stroke-width="3.5430897582637337"/>
  <path d="M 55.44999200190219, 70.70043577214057 Q 58.903786655245895, 63.803466067396855, 64.04583753567073, 54.120036954867004 " fill="none" id="curve_6" stroke="#000000" stroke-linecap="round" stroke-linejoin="round" stroke-width="2.7312547834832794"/>
  <path d="M 65.42277948083297, 45.40191520026319 Q 65.08582852073827, 48.50382082887548, 63.99299029860186, 51.48509134328337 " fill="none" id="curve_35" stroke="#000000" stroke-linecap="round" stroke-linejoin="round" stroke-width="2.811287217003715"/>
  <path d="M 42.85401595213133, 36.72251265500972 Q 48.21951716665899, 37.860190392115484, 57.49820596482413, 38.967258786674456 " fill="none" id="curve_36" stroke="#000000" stroke-linecap="round" stroke-linejoin="round" stroke-width="2.3007880281847246"/>
  <path d="M 39.89376341571824, 34.68458500892439 Q 46.671844348996025, 36.35052694799621, 53.87769195816661, 38.66613839978042 " fill="none" id="curve_51" stroke="#000000" stroke-linecap="round" stroke-linejoin="round" stroke-width="2.7472743219744475"/>
  <path d="M 53.87769195816661, 38.66613839978042 Q 51.32796590108177, 38.004916120250456, 48.4692153247141, 36.95867974553948 " fill="none" id="curve_51" stroke="#000000" stroke-linecap="round" stroke-linejoin="round" stroke-width="3.5869386727096915"/>
  <path d="M 29.285604856248078, 37.00661661470349 Q 29.578679761525056, 36.944129177356146, 29.922346450308574, 36.817980884795325 " fill="none" id="curve_55" stroke="#000000" stroke-linecap="round" stroke-linejoin="round" stroke-width="3.3612262582183985"/>
  <path d="M 57.91837543409224, 64.31826374617049 Q 58.20065530180654, 62.357923309046974, 59.313165228226026, 60.49537216840239 " fill="none" id="curve_70" stroke="#000000" stroke-linecap="round" stroke-linejoin="round" stroke-width="2.8639933921171012"/>
  <path d="M 48.44251829872549, 36.956151896450926 Q 48.28302108746624, 36.55264466073243, 47.81027403320321, 36.019156301654256 " fill="none" id="curve_73" stroke="#000000" stroke-linecap="round" stroke-linejoin="round" stroke-width="2.9935098392252004"/>
  <path d="M 51.56319832181908, 83.65717867485183 Q 51.95902419045518, 82.07601658887894, 52.64504117239022, 79.0148013841895 " fill="none" id="curve_79" stroke="#000000" stroke-linecap="round" stroke-linejoin="round" stroke-width="2.9748044788388186"/>
  <path d="M 49.10483863565612, 39.19299986266657 Q 49.01716757554224, 37.093450899871364, 48.60311445332951, 36.06241666515124 " fill="none" id="curve_155" stroke="#000000" stroke-linecap="round" stroke-linejoin="round" stroke-width="3.688284264839001"/>
</svg>
