<?xml version="1.0" ?>
<svg height="140" width="140" xmlns="http://www.w3.org/2000/svg">
  <path d="M 51.76261043548584, 96.31843185424805 Q 51.82193585696459, 96.23465970543631, 51.831354861125845, 94.66587490143581 " fill="none" id="curve_1" stroke="#000000" stroke-linecap="round" stroke-linejoin="round" stroke-width="7.58361795815427"/>
  <path d="M 51.831354861125845, 94.66587490143581 Q 52.795814948503, 90.80284979958309, 53.609254978408174, 77.64811175308506 " fill="none" id="curve_1" stroke="#000000" stroke-linecap="round" stroke-linejoin="round" stroke-width="7.075212796868482"/>
  <path d="M 53.609254978408174, 77.64811175308506 Q 54.53192951638651, 69.84127252012689, 56.845817733249824, 51.899210114015006 " fill="none" id="curve_1" stroke="#000000" stroke-linecap="round" stroke-linejoin="round" stroke-width="6.0673663830629545"/>
  <path d="M 56.845817733249824, 51.899210114015006 Q 59.77248107078875, 49.71811925924941, 61.59113443615826, 44.769349029914316 " fill="none" id="curve_1" stroke="#000000" stroke-linecap="round" stroke-linejoin="round" stroke-width="5.461661186277813"/>
  <path d="M 61.59113443615826, 44.769349029914316 Q 54.45401338535609, 44.94274985708072, 34.00702764657169, 45.05185559706958 " fill="none" id="curve_1" stroke="#000000" stroke-linecap="round" stroke-linejoin="round" stroke-width="5.2392430530750564"/>
  <path d="M 41.619563564127006, 72.8105854614764 Q 43.22528514486243, 75.52129498594931, 61.30139070015172, 75.90872893253481 " fill="none" id="curve_2" stroke="#000000" stroke-linecap="round" stroke-linejoin="round" stroke-width="5.486860578946393"/>
  <path d="M 53.63129524313066, 97.13835766626548 Q 52.933630263467876, 97.60842783926392, 51.69998398201673, 97.9471470440805 " fill="none" id="curve_3" stroke="#000000" stroke-linecap="round" stroke-linejoin="round" stroke-width="4.590776361441283"/>
  <path d="M 32.204944337086616, 44.74015430183309 Q 32.34280311335404, 43.43401235455187, 32.72006249812789, 42.7455092752871 " fill="none" id="curve_5" stroke="#000000" stroke-linecap="round" stroke-linejoin="round" stroke-width="5.478539749725579"/>
  <path d="M 40.38837476149005, 70.5466094057526 Q 40.41669618513246, 70.95285292066674, 40.452061378662115, 71.65839887061063 " fill="none" id="curve_6" stroke="#000000" stroke-linecap="round" stroke-linejoin="round" stroke-width="2.7433597639277463"/>
  <path d="M 50.21170833689847, 45.52933401105818 Q 46.06447624586686, 44.892434198073595, 33.84280363093153, 43.83921177441747 " fill="none" id="curve_16" stroke="#000000" stroke-linecap="round" stroke-linejoin="round" stroke-width="2.5323119052289003"/>
  <path d="M 59.419086540789934, 53.46431312220396 Q 58.12253573474502, 54.82007336429223, 55.96648810937583, 57.18729786391539 " fill="none" id="curve_32" stroke="#000000" stroke-linecap="round" stroke-linejoin="round" stroke-width="2.548806003467445"/>
  <path d="M 56.78265716578096, 48.635619474454785 Q 58.30696603558436, 46.3027078493141, 60.48864781842855, 43.49550186119159 " fill="none" id="curve_48" stroke="#000000" stroke-linecap="round" stroke-linejoin="round" stroke-width="3.1107855246016105"/>
  <path d="M 47.18050292311233, 72.88419229935297 Q 46.31340710337774, 72.84345736211168, 45.51429319541931, 72.76156845818835 " fill="none" id="curve_49" stroke="#000000" stroke-linecap="round" stroke-linejoin="round" stroke-width="3.6893787725261813"/>
  <path d="M 61.57979970671863, 43.810516218190635 Q 61.10725042655536, 43.81756849247039, 60.13291278559668, 43.8278340509519 " fill="none" id="curve_50" stroke="#000000" stroke-linecap="round" stroke-linejoin="round" stroke-width="3.0112389216216187"/>
  <path d="M 60.052454155682426, 41.9442348608207 Q 60.15195667269409, 42.05628562261131, 60.24191602224981, 42.32381399689407 " fill="none" id="curve_65" stroke="#000000" stroke-linecap="round" stroke-linejoin="round" stroke-width="3.1116151927291913"/>
  <path d="M 35.8097213837885, 44.29922439466965 Q 35.16211561384517, 42.81422474516585, 32.87256812290328, 41.847781632386486 " fill="none" id="curve_71" stroke="#000000" stroke-linecap="round" stroke-linejoin="round" stroke-width="3.912054164185697"/>
  <path d="M 47.71287789953658, 47.01017588816637 Q 47.74102968756883, 46.90694177544223, 47.8030002176172, 46.73149494719253 " fill="none" id="curve_86" stroke="#000000" stroke-linecap="round" stroke-linejoin="round" stroke-width="2.1366822649858963"/>
  <path d="M 51.03160930353276, 97.49396997798726 Q 51.32492271054074, 97.72916910074409, 51.96582584929957, 98.03049511001345 " fill="none" id="curve_93" stroke="#000000" stroke-linecap="round" stroke-linejoin="round" stroke-width="2.61312859276718"/>
</svg>
