<?xml version="1.0" ?>
<svg height="140" width="140" xmlns="http://www.w3.org/2000/svg">
  <path d="M 71.28780743143004, 80.2803778547391 Q 54.38725946287586, 80.2573299055189, 52.76003704051021, 79.4956681954877 " fill="none" id="curve_4" stroke="#000000" stroke-linecap="round" stroke-linejoin="round" stroke-width="4.281460387888595"/>
  <path d="M 52.76003704051021, 79.4956681954877 Q 50.83224904709171, 92.3019102745824, 42.63581344499791, 111.91825305085894 " fill="none" id="curve_4" stroke="#000000" stroke-linecap="round" stroke-linejoin="round" stroke-width="4.665850631663611"/>
  <path d="M 42.63581344499791, 111.91825305085894 Q 41.93511026879196, 125.7055858074323, 39.92525421223411, 131.6870202238162 " fill="none" id="curve_4" stroke="#000000" stroke-linecap="round" stroke-linejoin="round" stroke-width="4.983771855863534"/>
  <path d="M 39.92525421223411, 131.6870202238162 Q 41.870865763993585, 131.1098504137018, 42.938872133547356, 129.69046607973115 " fill="none" id="curve_4" stroke="#000000" stroke-linecap="round" stroke-linejoin="round" stroke-width="3.883465577362572"/>
  <path d="M 50.67826156570114, 80.43644618406135 Q 56.32790339501025, 77.66249108331405, 60.49850262306981, 58.56973245376478 " fill="none" id="curve_5" stroke="#000000" stroke-linecap="round" stroke-linejoin="round" stroke-width="5.433404675153533"/>
  <path d="M 60.49850262306981, 58.56973245376478 Q 64.56415016750623, 50.49680597781608, 70.69974301416418, 31.13536045157715 " fill="none" id="curve_5" stroke="#000000" stroke-linecap="round" stroke-linejoin="round" stroke-width="5.081177097134235"/>
  <path d="M 70.69974301416418, 31.13536045157715 Q 66.20907519346471, 36.664558275436896, 39.58661910873994, 40.42325218121552 " fill="none" id="curve_5" stroke="#000000" stroke-linecap="round" stroke-linejoin="round" stroke-width="5.384418930017644"/>
  <path d="M 39.58661910873994, 40.42325218121552 Q 21.707639258027555, 40.125322319526376, 18.216703319351975, 37.36292868024173 " fill="none" id="curve_5" stroke="#000000" stroke-linecap="round" stroke-linejoin="round" stroke-width="4.406924001240257"/>
  <path d="M 45.27693153671679, 77.864024581754 Q 50.365964929786216, 78.69903644448958, 58.52758120358183, 79.66605717611317 " fill="none" id="curve_7" stroke="#000000" stroke-linecap="round" stroke-linejoin="round" stroke-width="3.831827376220602"/>
  <path d="M 73.82465351013852, 79.64936551181661 Q 72.86276846691379, 79.37037459559332, 71.38581773769023, 79.03920844843461 " fill="none" id="curve_8" stroke="#000000" stroke-linecap="round" stroke-linejoin="round" stroke-width="4.014340409360276"/>
  <path d="M 50.467132706251356, 88.95109228007803 Q 46.991713988682974, 95.95697049363591, 41.779656622075876, 108.3166795978403 " fill="none" id="curve_9" stroke="#000000" stroke-linecap="round" stroke-linejoin="round" stroke-width="2.7500858253608325"/>
  <path d="M 67.40048754264107, 80.2147215699592 Q 55.2807436756723, 80.37951788583358, 53.06305910472366, 83.56093184300153 " fill="none" id="curve_12" stroke="#000000" stroke-linecap="round" stroke-linejoin="round" stroke-width="3.0526299801609698"/>
  <path d="M 61.70556836463871, 61.977714600239864 Q 61.16922817101149, 62.71843363431545, 60.362411017311956, 64.26110509947279 " fill="none" id="curve_13" stroke="#000000" stroke-linecap="round" stroke-linejoin="round" stroke-width="3.2829361665190695"/>
  <path d="M 39.82298594210518, 39.10354392153558 Q 33.438846558779304, 39.218797315706105, 28.62206544358733, 39.591306591259716 " fill="none" id="curve_14" stroke="#000000" stroke-linecap="round" stroke-linejoin="round" stroke-width="2.9135314738187095"/>
  <path d="M 28.62206544358733, 39.591306591259716 Q 51.95686554023527, 39.39376336643508, 59.835169660253, 36.82082207179871 " fill="none" id="curve_14" stroke="#000000" stroke-linecap="round" stroke-linejoin="round" stroke-width="2.307541899905849"/>
  <path d="M 72.0390388679167, 80.40117476755586 Q 68.01386555023441, 80.23432708012136, 58.076511410485864, 79.95512280349556 " fill="none" id="curve_17" stroke="#000000" stroke-linecap="round" stroke-linejoin="round" stroke-width="2.9803449891548315"/>
  <path d="M 43.65522712332526, 37.918474017773605 Q 39.72403826475699, 39.01844466006988, 28.78898961773963, 40.511705831841006 " fill="none" id="curve_24" stroke="#000000" stroke-linecap="round" stroke-linejoin="round" stroke-width="2.3488949197690974"/>
  <path d="M 71.91077748380906, 81.11567750807102 Q 69.53065566950403, 80.38206764357456, 56.22567591977655, 79.74803857783691 " fill="none" id="curve_26" stroke="#000000" stroke-linecap="round" stroke-linejoin="round" stroke-width="2.620638557796769"/>
  <path d="M 57.8067558694711, 35.96750785863629 Q 61.11402434751126, 34.1549379026633, 69.7835269634824, 32.177304773295205 " fill="none" id="curve_27" stroke="#000000" stroke-linecap="round" stroke-linejoin="round" stroke-width="2.4718141159401767"/>
  <path d="M 48.464338119393574, 37.315624096029225 Q 49.03671300734959, 36.728829544677836, 52.68290288248189, 36.47432245004517 " fill="none" id="curve_30" stroke="#000000" stroke-linecap="round" stroke-linejoin="round" stroke-width="2.0388936254124386"/>
  <path d="M 27.001080429252777, 41.21037841629445 Q 25.750249881094316, 40.07861184099016, 21.426730097391427, 39.390031747437476 " fill="none" id="curve_31" stroke="#000000" stroke-linecap="round" stroke-linejoin="round" stroke-width="3.201565326044125"/>
  <path d="M 65.0951874354253, 42.415616002351165 Q 63.73863640509074, 47.10649680651726, 61.50588297652637, 55.51904368963018 " fill="none" id="curve_37" stroke="#000000" stroke-linecap="round" stroke-linejoin="round" stroke-width="2.3488593861100204"/>
  <path d="M 68.99561571119739, 78.76643749523373 Q 68.19187352966713, 78.41642265217367, 66.16356912258293, 78.1567225884923 " fill="none" id="curve_52" stroke="#000000" stroke-linecap="round" stroke-linejoin="round" stroke-width="3.0984520043705888"/>
  <path d="M 44.4705566623837, 78.91851729263627 Q 44.11259423110791, 78.57410790914668, 43.36171824281123, 78.19101792980463 " fill="none" id="curve_53" stroke="#000000" stroke-linecap="round" stroke-linejoin="round" stroke-width="2.761382169555742"/>
  <path d="M 48.79046630859375, 36.775943756103516 Q 46.76641923756501, 37.602213256914496, 42.939488141669244, 39.144237090154036 " fill="none" id="curve_67" stroke="#000000" stroke-linecap="round" stroke-linejoin="round" stroke-width="2.252651398479387"/>
  <path d="M 17.179303911725615, 37.59396563216911 Q 17.215303759502827, 38.00451827309502, 17.28753683635232, 38.48068411894766 " fill="none" id="curve_68" stroke="#000000" stroke-linecap="round" stroke-linejoin="round" stroke-width="2.5115856583086855"/>
  <path d="M 57.19765723695237, 69.50238029845886 Q 59.66898195888843, 68.81093064870389, 60.96647646539528, 66.33768810830684 " fill="none" id="curve_69" stroke="#000000" stroke-linecap="round" stroke-linejoin="round" stroke-width="3.105808032474551"/>
  <path d="M 51.58209419764923, 91.92692295484525 Q 52.27958026703326, 86.74130103464815, 53.81824051737894, 81.68834742419386 " fill="none" id="curve_70" stroke="#000000" stroke-linecap="round" stroke-linejoin="round" stroke-width="2.8284161955146683"/>
  <path d="M 39.134484728580276, 39.0146474439922 Q 36.140254071628725, 39.04612913928711, 32.08857968825775, 39.10479305288404 " fill="none" id="curve_71" stroke="#000000" stroke-linecap="round" stroke-linejoin="round" stroke-width="2.99613457898299"/>
  <path d="M 49.7890827101291, 39.23121972371304 Q 49.50729206614043, 38.64402147743052, 48.17783860626969, 37.89256106951984 " fill="none" id="curve_94" stroke="#000000" stroke-linecap="round" stroke-linejoin="round" stroke-width="3.1446657106653433"/>
  <path d="M 50.522198900595775, 37.582443774810535 Q 49.520825574880256, 37.46155268234677, 47.11604218750959, 37.261570540297015 " fill="none" id="curve_141" stroke="#000000" stroke-linecap="round" stroke-linejoin="round" stroke-width="2.739471749429897"/>
  <path d="M 45.08247483835996, 109.49762545609312 Q 41.10042196906071, 113.26802776215156, 38.51247871679835, 129.5608387891962 " fill="none" id="curve_146" stroke="#000000" stroke-linecap="round" stroke-linejoin="round" stroke-width="1.9538384609819113"/>
</svg>
