<?xml version="1.0" ?>
<svg height="140" width="140" xmlns="http://www.w3.org/2000/svg">
  <path d="M 43.75360870361328, 62.78842544555664 Q 48.34615998739474, 63.03922840154059, 48.78497678437293, 68.56304838106882 " fill="none" id="curve_1" stroke="#000000" stroke-linecap="round" stroke-linejoin="round" stroke-width="7.0599961219770595"/>
  <path d="M 48.78497678437293, 68.56304838106882 Q 47.96408591424587, 78.94329404558569, 39.823355394051944, 80.67655436195929 " fill="none" id="curve_1" stroke="#000000" stroke-linecap="round" stroke-linejoin="round" stroke-width="5.9911878247892245"/>
  <path d="M 39.823355394051944, 80.67655436195929 Q 41.932634907416784, 80.97960793168754, 42.189647097482634, 92.79746788072939 " fill="none" id="curve_1" stroke="#000000" stroke-linecap="round" stroke-linejoin="round" stroke-width="4.393265958518874"/>
  <path d="M 42.189647097482634, 92.79746788072939 Q 44.0640397509211, 95.84043783796807, 44.74932655327538, 105.88692334227501 " fill="none" id="curve_1" stroke="#000000" stroke-linecap="round" stroke-linejoin="round" stroke-width="5.725058743762253"/>
  <path d="M 54.759441662681205, 78.76745834455791 Q 49.4198493598259, 80.12299663854898, 43.18528185739795, 82.38838588504625 " fill="none" id="curve_2" stroke="#000000" stroke-linecap="round" stroke-linejoin="round" stroke-width="4.41005494537287"/>
  <path d="M 43.18528185739795, 82.38838588504625 Q 39.86466243151189, 81.33711604775871, 30.355380237794577, 80.728122210857 " fill="none" id="curve_2" stroke="#000000" stroke-linecap="round" stroke-linejoin="round" stroke-width="5.120247855250734"/>
  <path d="M 16.862751401198746, 56.41441794989089 Q 29.499529963416663, 58.786247748410595, 48.36956739956335, 62.10207389350266 " fill="none" id="curve_3" stroke="#000000" stroke-linecap="round" stroke-linejoin="round" stroke-width="6.115085479337184"/>
  <path d="M 60.43468745885293, 78.43100053239539 Q 55.89238998074321, 79.03250720951056, 50.84967647403307, 80.15305877705343 " fill="none" id="curve_4" stroke="#000000" stroke-linecap="round" stroke-linejoin="round" stroke-width="3.636521581681814"/>
  <path d="M 44.245841266246394, 95.8872775593139 Q 44.63023984021714, 88.38876639343593, 45.38564472471315, 82.09370792421673 " fill="none" id="curve_5" stroke="#000000" stroke-linecap="round" stroke-linejoin="round" stroke-width="3.734293312197512"/>
  <path d="M 15.748417017269368, 55.123238724767404 Q 15.30486501089522, 54.39805194602709, 14.741571733447532, 53.52516986203348 " fill="none" id="curve_6" stroke="#000000" stroke-linecap="round" stroke-linejoin="round" stroke-width="5.5270180793596815"/>
  <path d="M 22.231577272762767, 59.13651420853458 Q 23.413034511206206, 57.86533102988985, 37.84775318442966, 57.63629714406957 " fill="none" id="curve_7" stroke="#000000" stroke-linecap="round" stroke-linejoin="round" stroke-width="3.5873495986652224"/>
  <path d="M 88.9349608317965, 4.18913870934955 Q 88.88403310070605, 2.5179487901312987, 88.64557353455223, 1.5226881529816754 " fill="none" id="curve_9" stroke="#000000" stroke-linecap="round" stroke-linejoin="round" stroke-width="3.1367171230539523"/>
  <path d="M 42.3013550789454, 59.15848455840809 Q 43.973491421282425, 59.91594453166205, 45.11943825759859, 63.478207055704544 " fill="none" id="curve_14" stroke="#000000" stroke-linecap="round" stroke-linejoin="round" stroke-width="3.478275838626529"/>
  <path d="M 44.814228225495825, 105.76954872894328 Q 44.37620728012937, 105.3084582285402, 44.03461957455904, 104.31416144794957 " fill="none" id="curve_15" stroke="#000000" stroke-linecap="round" stroke-linejoin="round" stroke-width="7.635256558396641"/>
  <path d="M 85.9191161884743, 1.2935077381591782 Q 86.31094949673954, 1.6259180622489613, 87.42540946145402, 1.9928526628552239 " fill="none" id="curve_30" stroke="#000000" stroke-linecap="round" stroke-linejoin="round" stroke-width="2.115702511207131"/>
  <path d="M 47.69419338135806, 67.501196767176 Q 45.237801131010706, 71.79650087248912, 42.91577700530125, 79.55076107875023 " fill="none" id="curve_37" stroke="#000000" stroke-linecap="round" stroke-linejoin="round" stroke-width="2.697986951366741"/>
  <path d="M 25.391451808449, 59.96250901948484 Q 31.32043656004692, 59.94049745942166, 38.24283491330618, 59.87752620389371 " fill="none" id="curve_39" stroke="#000000" stroke-linecap="round" stroke-linejoin="round" stroke-width="2.857829019555111"/>
  <path d="M 46.33484330100871, 106.6308964820401 Q 45.49292773392711, 106.36065676003923, 44.77191823956882, 105.73383484116202 " fill="none" id="curve_40" stroke="#000000" stroke-linecap="round" stroke-linejoin="round" stroke-width="5.420829311534831"/>
  <path d="M 37.54445029393074, 59.52523971205656 Q 44.525641199209154, 62.135582487022454, 48.59578045527613, 67.46375146188797 " fill="none" id="curve_42" stroke="#000000" stroke-linecap="round" stroke-linejoin="round" stroke-width="2.6458956642533025"/>
  <path d="M 31.064360198336082, 82.5482407590818 Q 32.55117115310773, 81.60977635257547, 36.547055719889585, 80.83298870334112 " fill="none" id="curve_45" stroke="#000000" stroke-linecap="round" stroke-linejoin="round" stroke-width="3.352548025697725"/>
  <path d="M 25.49540603107466, 57.701876631342785 Q 22.631958798476756, 56.524440338073084, 15.529967669238422, 55.433062099884864 " fill="none" id="curve_47" stroke="#000000" stroke-linecap="round" stroke-linejoin="round" stroke-width="3.515866618751058"/>
  <path d="M 41.77061107050105, 61.42629717328589 Q 42.412466031150636, 65.28745591311714, 49.083322791985886, 66.37830438688607 " fill="none" id="curve_62" stroke="#000000" stroke-linecap="round" stroke-linejoin="round" stroke-width="2.421184668075127"/>
  <path d="M 58.82267437527671, 78.72963227930461 Q 52.39825594214933, 78.29289957130132, 44.97801167214719, 77.16937274641276 " fill="none" id="curve_90" stroke="#000000" stroke-linecap="round" stroke-linejoin="round" stroke-width="2.4162317853037627"/>
</svg>
