<?xml version="1.0" ?>
<svg height="140" width="140" xmlns="http://www.w3.org/2000/svg">
  <path d="M 41.56260829285475, 65.89625780260508 Q 37.98890702391145, 70.91337372831862, 28.206424289546312, 85.99031993549472 " fill="none" id="curve_2" stroke="#000000" stroke-linecap="round" stroke-linejoin="round" stroke-width="3.1904382727081138"/>
  <path d="M 28.206424289546312, 85.99031993549472 Q 26.10343325399267, 88.5813493491506, 23.597445402831426, 91.41266739939404 " fill="none" id="curve_2" stroke="#000000" stroke-linecap="round" stroke-linejoin="round" stroke-width="3.621194801797952"/>
  <path d="M 34.69986504317005, 65.22333203379984 Q 31.824089509366562, 62.98964741015611, 26.812438365593415, 59.71594340437587 " fill="none" id="curve_3" stroke="#000000" stroke-linecap="round" stroke-linejoin="round" stroke-width="3.421625820134554"/>
  <path d="M 26.812438365593415, 59.71594340437587 Q 29.05143165852492, 63.55031747668625, 42.02511239582253, 64.20255619710193 " fill="none" id="curve_3" stroke="#000000" stroke-linecap="round" stroke-linejoin="round" stroke-width="4.388693916225875"/>
  <path d="M 42.02511239582253, 64.20255619710193 Q 45.690705919371375, 57.00903453529689, 54.58994766879226, 40.721357735665585 " fill="none" id="curve_3" stroke="#000000" stroke-linecap="round" stroke-linejoin="round" stroke-width="4.4887804555522"/>
  <path d="M 54.58994766879226, 40.721357735665585 Q 57.96698142503572, 35.07746127947172, 63.6687436146674, 28.89503675366844 " fill="none" id="curve_3" stroke="#000000" stroke-linecap="round" stroke-linejoin="round" stroke-width="5.3367692685970365"/>
  <path d="M 63.6687436146674, 28.89503675366844 Q 47.46635739635701, 29.01387284194907, 40.24632964863754, 29.739039672793865 " fill="none" id="curve_3" stroke="#000000" stroke-linecap="round" stroke-linejoin="round" stroke-width="4.552256796940622"/>
  <path d="M 40.24632964863754, 29.739039672793865 Q 34.88884864944641, 29.724191632117723, 33.00037694138382, 29.659876200156724 " fill="none" id="curve_3" stroke="#000000" stroke-linecap="round" stroke-linejoin="round" stroke-width="5.0226567523367605"/>
  <path d="M 47.45531255633735, 64.95925855861543 Q 56.30417751514797, 64.83940593825075, 60.44883237564177, 64.42100750694068 " fill="none" id="curve_4" stroke="#000000" stroke-linecap="round" stroke-linejoin="round" stroke-width="3.103322187749788"/>
  <path d="M 42.50237817523788, 66.32720614386709 Q 44.42706794416386, 65.75702329105253, 49.73939584529978, 65.47770072561477 " fill="none" id="curve_5" stroke="#000000" stroke-linecap="round" stroke-linejoin="round" stroke-width="3.110912959335687"/>
  <path d="M 54.199266008716734, 28.557787584472116 Q 54.87698060783527, 28.022241160586557, 63.08245230440451, 27.902623156643845 " fill="none" id="curve_6" stroke="#000000" stroke-linecap="round" stroke-linejoin="round" stroke-width="2.5960875725708616"/>
  <path d="M 46.09919267894877, 28.049244097099617 Q 48.93676806916238, 27.82887194456152, 58.11137659876147, 27.712766663247464 " fill="none" id="curve_7" stroke="#000000" stroke-linecap="round" stroke-linejoin="round" stroke-width="2.675432616529257"/>
  <path d="M 38.20227407995465, 67.13973924577869 Q 37.678769619722146, 66.07235306686651, 35.04371222630537, 65.57325189947176 " fill="none" id="curve_9" stroke="#000000" stroke-linecap="round" stroke-linejoin="round" stroke-width="2.661610149527236"/>
  <path d="M 58.01781835527376, 64.19744201824847 Q 55.92341734746626, 64.00110901098007, 52.95685680323347, 63.69153420212818 " fill="none" id="curve_10" stroke="#000000" stroke-linecap="round" stroke-linejoin="round" stroke-width="2.795214884850428"/>
  <path d="M 57.74504181638118, 36.05908514077082 Q 57.070321599263565, 36.60593123170014, 55.78304945534917, 37.675199611664404 " fill="none" id="curve_11" stroke="#000000" stroke-linecap="round" stroke-linejoin="round" stroke-width="2.8429666882934965"/>
  <path d="M 41.65240485357193, 31.398428452913414 Q 41.96012338692168, 30.94810206519757, 42.333254150095044, 30.254255467969564 " fill="none" id="curve_40" stroke="#000000" stroke-linecap="round" stroke-linejoin="round" stroke-width="2.9770244476737164"/>
  <path d="M 61.143918587436474, 63.583296543883534 Q 61.39700639656808, 63.857880523250664, 61.76933313352952, 64.36978433841506 " fill="none" id="curve_55" stroke="#000000" stroke-linecap="round" stroke-linejoin="round" stroke-width="2.0859469886242907"/>
  <path d="M 57.305609732030575, 35.31940280695804 Q 55.37490782029588, 36.69298021718776, 53.47322402964379, 40.322161436332685 " fill="none" id="curve_56" stroke="#000000" stroke-linecap="round" stroke-linejoin="round" stroke-width="2.4312977089755"/>
  <path d="M 56.483017398176564, 37.54738754606868 Q 58.00703310184598, 35.01776166528092, 62.36303873651964, 33.12887252442992 " fill="none" id="curve_86" stroke="#000000" stroke-linecap="round" stroke-linejoin="round" stroke-width="2.5305718230462215"/>
  <path d="M 57.69470634186632, 35.86088814406753 Q 57.08714401783052, 35.797541443075254, 56.36610731984437, 35.70730417040171 " fill="none" id="curve_127" stroke="#000000" stroke-linecap="round" stroke-linejoin="round" stroke-width="4.273073423787315"/>
</svg>
