<?xml version="1.0" ?>
<svg height="140" width="140" xmlns="http://www.w3.org/2000/svg">
  <path d="M 88.77300928533077, 126.92902040481567 Q 89.02728360918434, 132.98153561237658, 89.41592157634945, 138.91906167983518 " fill="none" id="curve_1" stroke="#000000" stroke-linecap="round" stroke-linejoin="round" stroke-width="2.4676200277944558"/>
  <path d="M 89.17381866351364, 125.62400417657861 Q 89.20166977307171, 121.0907036169884, 89.25404906779926, 104.51248528391346 " fill="none" id="curve_2" stroke="#000000" stroke-linecap="round" stroke-linejoin="round" stroke-width="2.4749012513284927"/>
  <path d="M 89.25404906779926, 104.51248528391346 Q 89.20654825382148, 99.12474306767757, 89.10285429077031, 85.51159612626384 " fill="none" id="curve_2" stroke="#000000" stroke-linecap="round" stroke-linejoin="round" stroke-width="2.471870295751445"/>
  <path d="M 89.10285429077031, 85.51159612626384 Q 89.14375431121077, 82.08916102643968, 89.20206965314836, 65.89531710812724 " fill="none" id="curve_2" stroke="#000000" stroke-linecap="round" stroke-linejoin="round" stroke-width="2.5162643495577908"/>
  <path d="M 89.20206965314836, 65.89531710812724 Q 89.2083600787636, 58.86121018198404, 89.23111239547582, 46.679057075207396 " fill="none" id="curve_2" stroke="#000000" stroke-linecap="round" stroke-linejoin="round" stroke-width="2.3881103555483736"/>
  <path d="M 89.23111239547582, 46.679057075207396 Q 89.20933843025357, 39.706346116574295, 89.13625636278385, 27.38107992499467 " fill="none" id="curve_2" stroke="#000000" stroke-linecap="round" stroke-linejoin="round" stroke-width="2.3876843479800445"/>
  <path d="M 89.13625636278385, 27.38107992499467 Q 89.15268131789746, 21.919175310566665, 89.19427645778832, 7.661551644066126 " fill="none" id="curve_2" stroke="#000000" stroke-linecap="round" stroke-linejoin="round" stroke-width="2.388686264980187"/>
  <path d="M 89.19427645778832, 7.661551644066126 Q 88.99950530942299, 3.464866224852809, 88.31280017933338, 1.8163883457131824 " fill="none" id="curve_2" stroke="#000000" stroke-linecap="round" stroke-linejoin="round" stroke-width="3.9206619973145016"/>
  <path d="M 88.31280017933338, 1.8163883457131824 Q 87.73594806026603, 1.7837052899582133, 86.91919541461851, 1.750565967844354 " fill="none" id="curve_2" stroke="#000000" stroke-linecap="round" stroke-linejoin="round" stroke-width="2.308551554337395"/>
  <path d="M 79.01531631074573, 78.73377265565085 Q 73.96506852444584, 80.4275559903055, 57.602343807166505, 82.81767033156194 " fill="none" id="curve_5" stroke="#000000" stroke-linecap="round" stroke-linejoin="round" stroke-width="5.083097648621174"/>
  <path d="M 57.602343807166505, 82.81767033156194 Q 50.352019997453496, 84.60291241063365, 36.19059371517167, 86.36012727412668 " fill="none" id="curve_5" stroke="#000000" stroke-linecap="round" stroke-linejoin="round" stroke-width="8.166579928182594"/>
  <path d="M 36.19059371517167, 86.36012727412668 Q 31.27560708716087, 93.47415875602135, 27.7940245363962, 112.40195805878705 " fill="none" id="curve_5" stroke="#000000" stroke-linecap="round" stroke-linejoin="round" stroke-width="4.776288718085803"/>
  <path d="M 36.991863037769896, 85.25717838042986 Q 43.67671931064352, 80.17978651641421, 47.808209316130224, 66.16859977042238 " fill="none" id="curve_6" stroke="#000000" stroke-linecap="round" stroke-linejoin="round" stroke-width="6.12303716860835"/>
  <path d="M 47.808209316130224, 66.16859977042238 Q 47.31931423597138, 43.80495884532226, 32.51944936143434, 40.53463616024371 " fill="none" id="curve_6" stroke="#000000" stroke-linecap="round" stroke-linejoin="round" stroke-width="5.2373226542477385"/>
  <path d="M 32.51944936143434, 40.53463616024371 Q 23.477629748320147, 40.774539342533586, 21.7054588712427, 43.41035321416621 " fill="none" id="curve_6" stroke="#000000" stroke-linecap="round" stroke-linejoin="round" stroke-width="3.2948469411298125"/>
  <path d="M 22.433932289259204, 86.854802511066 Q 30.289266357234283, 86.95655611638979, 35.598045447003614, 87.23366713601317 " fill="none" id="curve_7" stroke="#000000" stroke-linecap="round" stroke-linejoin="round" stroke-width="4.766983370098768"/>
  <path d="M 30.79963747965684, 113.75418050795913 Q 30.216322460406502, 113.07754012100972, 29.79155283348536, 111.46250924680193 " fill="none" id="curve_8" stroke="#000000" stroke-linecap="round" stroke-linejoin="round" stroke-width="5.688614796326787"/>
  <path d="M 20.728765771196493, 88.21177958513331 Q 20.54160402939615, 87.70329459513049, 20.262932442196934, 87.0252965513123 " fill="none" id="curve_9" stroke="#000000" stroke-linecap="round" stroke-linejoin="round" stroke-width="3.990193482796389"/>
  <path d="M 30.357668109218466, 38.01125705689292 Q 36.76259194837155, 39.5487283948578, 41.468284256366516, 46.66023197406528 " fill="none" id="curve_10" stroke="#000000" stroke-linecap="round" stroke-linejoin="round" stroke-width="2.517017491808242"/>
  <path d="M 43.031753886140336, 72.83407287185425 Q 41.09257501699272, 80.63463154258862, 34.830259863484706, 86.78564603007786 " fill="none" id="curve_12" stroke="#000000" stroke-linecap="round" stroke-linejoin="round" stroke-width="2.711736923847501"/>
  <path d="M 27.031291998292183, 107.96376790441643 Q 28.10453185924613, 101.22524159319134, 31.190094182055155, 95.36643719783396 " fill="none" id="curve_13" stroke="#000000" stroke-linecap="round" stroke-linejoin="round" stroke-width="2.9268920868518435"/>
  <path d="M 45.96148887614833, 75.32269426504259 Q 45.89219375044241, 61.94823783604939, 44.83444533764224, 59.011802824013 " fill="none" id="curve_14" stroke="#000000" stroke-linecap="round" stroke-linejoin="round" stroke-width="2.5461656838178284"/>
  <path d="M 44.83444533764224, 59.011802824013 Q 43.36112974906043, 48.50402115722254, 38.0888184403705, 40.87619190678596 " fill="none" id="curve_14" stroke="#000000" stroke-linecap="round" stroke-linejoin="round" stroke-width="2.850052569880322"/>
  <path d="M 26.38495373995989, 86.3053969518124 Q 33.65018015107034, 85.91959257630707, 43.56451702402215, 85.21354149219243 " fill="none" id="curve_17" stroke="#000000" stroke-linecap="round" stroke-linejoin="round" stroke-width="2.740412883416929"/>
  <path d="M 62.78683993423517, 82.06045459731114 Q 67.9729310887469, 80.83921510240025, 78.91813027917091, 79.50138068587768 " fill="none" id="curve_19" stroke="#000000" stroke-linecap="round" stroke-linejoin="round" stroke-width="2.4464807138414395"/>
  <path d="M 48.411203309483895, 84.04818569924086 Q 46.788257473735975, 82.35319631835095, 39.845307083090475, 81.41267521201027 " fill="none" id="curve_20" stroke="#000000" stroke-linecap="round" stroke-linejoin="round" stroke-width="3.4553382706325673"/>
  <path d="M 38.68614575341657, 46.89890341012761 Q 40.968669559709554, 48.90916508681387, 45.11828247653748, 50.674435532514174 " fill="none" id="curve_24" stroke="#000000" stroke-linecap="round" stroke-linejoin="round" stroke-width="1.7118298533379146"/>
  <path d="M 46.58822127213613, 69.03660271902224 Q 47.30580649827179, 70.36266033829808, 48.099530288815565, 72.43216305217425 " fill="none" id="curve_25" stroke="#000000" stroke-linecap="round" stroke-linejoin="round" stroke-width="3.741040352665947"/>
  <path d="M 28.601099458372772, 39.54622982876608 Q 29.142159378184814, 39.23801122483415, 31.491065409427044, 39.03587054430592 " fill="none" id="curve_27" stroke="#000000" stroke-linecap="round" stroke-linejoin="round" stroke-width="2.740910673042578"/>
  <path d="M 31.491065409427044, 39.03587054430592 Q 30.562117780049086, 39.37446682534251, 28.41168202076937, 39.908982022118224 " fill="none" id="curve_27" stroke="#000000" stroke-linecap="round" stroke-linejoin="round" stroke-width="2.803890748241352"/>
  <path d="M 36.80776020489665, 41.10774434881608 Q 36.01465866266106, 40.01485162936252, 30.33697887741276, 39.52402435237987 " fill="none" id="curve_31" stroke="#000000" stroke-linecap="round" stroke-linejoin="round" stroke-width="3.0949977538784226"/>
  <path d="M 59.73695880637817, 82.12222230016687 Q 62.710511459239484, 81.94446000719304, 65.62923507479685, 81.5092312828699 " fill="none" id="curve_33" stroke="#000000" stroke-linecap="round" stroke-linejoin="round" stroke-width="3.3638057536293995"/>
  <path d="M 44.159895050349405, 71.2630782135825 Q 44.462998946072986, 67.59448467067428, 46.83205670246939, 65.9179153265769 " fill="none" id="curve_61" stroke="#000000" stroke-linecap="round" stroke-linejoin="round" stroke-width="3.185327014039747"/>
  <path d="M 35.99367808238047, 41.251309807014756 Q 35.33348609602265, 39.799597479618804, 31.44242486729686, 38.894866281629106 " fill="none" id="curve_68" stroke="#000000" stroke-linecap="round" stroke-linejoin="round" stroke-width="2.6454285693819273"/>
  <path d="M 27.432672845299695, 106.5880433534717 Q 28.389452032248037, 102.77361826723732, 30.50162817969897, 95.19049797441122 " fill="none" id="curve_89" stroke="#000000" stroke-linecap="round" stroke-linejoin="round" stroke-width="2.393391109158109"/>
  <path d="M 30.774212894040808, 39.34239272792226 Q 29.57420089742577, 39.43228774764016, 27.638111901667116, 39.57532342248597 " fill="none" id="curve_91" stroke="#000000" stroke-linecap="round" stroke-linejoin="round" stroke-width="3.4820038343143174"/>
  <path d="M 41.23991174824577, 76.73013463960481 Q 40.28130687715417, 78.09868553498974, 39.02325047445649, 81.03850150464422 " fill="none" id="curve_115" stroke="#000000" stroke-linecap="round" stroke-linejoin="round" stroke-width="3.5339028768101763"/>
  <path d="M 31.251159288831637, 39.51861162149573 Q 34.36714786646761, 39.5221918386489, 37.25792760112287, 39.53231009725674 " fill="none" id="curve_116" stroke="#000000" stroke-linecap="round" stroke-linejoin="round" stroke-width="2.695736598032001"/>
  <path d="M 57.43902306010857, 82.45584224519703 Q 52.60864203290897, 82.6859970869862, 45.1270626727864, 83.33756911308845 " fill="none" id="curve_117" stroke="#000000" stroke-linecap="round" stroke-linejoin="round" stroke-width="2.457930061653957"/>
  <path d="M 54.23482859174874, 80.52012582407087 Q 55.01026625661477, 82.36778041737554, 59.05542924645218, 83.03310254810006 " fill="none" id="curve_132" stroke="#000000" stroke-linecap="round" stroke-linejoin="round" stroke-width="3.442355236951208"/>
</svg>
