<?xml version="1.0" ?>
<svg height="140" width="140" xmlns="http://www.w3.org/2000/svg">
  <path d="M 50.58096694946289, 32.10323715209961 Q 52.994561371953125, 34.33265212811798, 66.09453197737662, 36.11559674359407 " fill="none" id="curve_1" stroke="#000000" stroke-linecap="round" stroke-linejoin="round" stroke-width="6.0201277382088785"/>
  <path d="M 66.09453197737662, 36.11559674359407 Q 69.26407785232242, 36.55438608319841, 79.68084651023334, 36.88338667461908 " fill="none" id="curve_1" stroke="#000000" stroke-linecap="round" stroke-linejoin="round" stroke-width="5.404330151842713"/>
  <path d="M 79.68084651023334, 36.88338667461908 Q 69.17980126358344, 37.28353087434219, 68.19267782535906, 48.2122948865041 " fill="none" id="curve_1" stroke="#000000" stroke-linecap="round" stroke-linejoin="round" stroke-width="5.534157778735362"/>
  <path d="M 68.19267782535906, 48.2122948865041 Q 67.92078940534383, 53.17239475314112, 67.769305692488, 65.76662051649602 " fill="none" id="curve_1" stroke="#000000" stroke-linecap="round" stroke-linejoin="round" stroke-width="7.248145372966759"/>
  <path d="M 67.769305692488, 65.76662051649602 Q 66.72899250201021, 69.47058476445994, 65.58256983160784, 80.82128518766316 " fill="none" id="curve_1" stroke="#000000" stroke-linecap="round" stroke-linejoin="round" stroke-width="4.439961936328629"/>
  <path d="M 65.58256983160784, 80.82128518766316 Q 67.3403978327352, 85.71202172688776, 68.92840661138656, 90.94033587318279 " fill="none" id="curve_1" stroke="#000000" stroke-linecap="round" stroke-linejoin="round" stroke-width="4.511242667676098"/>
  <path d="M 69.50363208659013, 69.21436910197664 Q 72.6429634678315, 67.62497280790527, 89.20702964499644, 67.15060542090605 " fill="none" id="curve_2" stroke="#000000" stroke-linecap="round" stroke-linejoin="round" stroke-width="4.510332511137767"/>
  <path d="M 64.18706615749463, 67.84627028021352 Q 56.71858284512033, 68.00580342187585, 55.512175303019, 69.54057031260224 " fill="none" id="curve_3" stroke="#000000" stroke-linecap="round" stroke-linejoin="round" stroke-width="6.389916515544094"/>
  <path d="M 68.0531855607442, 78.70429056172395 Q 68.8761570641915, 77.30897404385556, 69.20028046272601, 70.023698100737 " fill="none" id="curve_4" stroke="#000000" stroke-linecap="round" stroke-linejoin="round" stroke-width="2.3576321843815977"/>
  <path d="M 55.80020952927171, 35.81189156648062 Q 49.23980884084586, 33.82663744937985, 34.48017806478974, 29.709480269788116 " fill="none" id="curve_5" stroke="#000000" stroke-linecap="round" stroke-linejoin="round" stroke-width="5.822329067394838"/>
  <path d="M 34.48017806478974, 29.709480269788116 Q 32.8499996266581, 27.014901917931553, 29.584724162071744, 25.170760991852326 " fill="none" id="curve_5" stroke="#000000" stroke-linecap="round" stroke-linejoin="round" stroke-width="5.474151352263462"/>
  <path d="M 56.672017209870205, 34.73925751388046 Q 49.86936797332304, 33.12213742309468, 40.48149401687398, 29.90531413852776 " fill="none" id="curve_7" stroke="#000000" stroke-linecap="round" stroke-linejoin="round" stroke-width="3.0230470266660348"/>
  <path d="M 67.88817079883732, 56.77448529075813 Q 70.22772218276104, 56.36080388506564, 70.56918965094482, 49.726773920149064 " fill="none" id="curve_11" stroke="#000000" stroke-linecap="round" stroke-linejoin="round" stroke-width="3.2178482748687323"/>
  <path d="M 56.59238402219999, 68.1300829015047 Q 56.35524869415241, 68.42925425629659, 56.028958594073146, 68.9742487557564 " fill="none" id="curve_12" stroke="#000000" stroke-linecap="round" stroke-linejoin="round" stroke-width="4.231494551469303"/>
  <path d="M 56.028958594073146, 68.9742487557564 Q 56.49211763439178, 68.74952342922778, 57.35123702224926, 68.3718401306643 " fill="none" id="curve_12" stroke="#000000" stroke-linecap="round" stroke-linejoin="round" stroke-width="3.892522166183788"/>
  <path d="M 86.5595869523726, 67.63527163145582 Q 75.31630140618114, 67.68412799288011, 56.78671295636001, 67.7961095239722 " fill="none" id="curve_13" stroke="#000000" stroke-linecap="round" stroke-linejoin="round" stroke-width="2.533557203989201"/>
  <path d="M 57.34225144710449, 67.20166688347202 Q 55.9362287620913, 68.35783466535325, 54.426070720509564, 71.09127408002749 " fill="none" id="curve_24" stroke="#000000" stroke-linecap="round" stroke-linejoin="round" stroke-width="3.678407120616239"/>
  <path d="M 77.92351734160178, 35.79491737014184 Q 78.77840035086433, 35.55102564759422, 79.71277822617215, 34.76969296963082 " fill="none" id="curve_26" stroke="#000000" stroke-linecap="round" stroke-linejoin="round" stroke-width="3.394335223883912"/>
  <path d="M 89.59556446942388, 67.74659581238595 Q 89.35334908643222, 67.53697331505742, 88.65006515435107, 67.21285205530471 " fill="none" id="curve_34" stroke="#000000" stroke-linecap="round" stroke-linejoin="round" stroke-width="2.891009666338683"/>
  <path d="M 58.133532175316596, 36.10182786955566 Q 61.400730757200975, 36.92777361930111, 67.44485034634184, 37.78149351484743 " fill="none" id="curve_52" stroke="#000000" stroke-linecap="round" stroke-linejoin="round" stroke-width="2.2741594529028784"/>
  <path d="M 67.36340558023599, 84.45484914192102 Q 68.16841897343075, 82.3352980600117, 69.21457823688374, 79.78987328178222 " fill="none" id="curve_70" stroke="#000000" stroke-linecap="round" stroke-linejoin="round" stroke-width="3.08504631953005"/>
  <path d="M 71.13535454333858, 67.93097144123504 Q 66.3753371768049, 67.5551706092228, 56.052665029212044, 67.06096742070574 " fill="none" id="curve_75" stroke="#000000" stroke-linecap="round" stroke-linejoin="round" stroke-width="3.3734702952445423"/>
  <path d="M 78.5453585351892, 68.60986619430876 Q 75.53695017602712, 67.85284584553148, 69.47143958573895, 67.01804481300015 " fill="none" id="curve_91" stroke="#000000" stroke-linecap="round" stroke-linejoin="round" stroke-width="3.218462425132165"/>
  <path d="M 57.18966828042765, 35.961503745902235 Q 56.61973990324441, 34.31721157306727, 53.466329818985784, 33.013454188840804 " fill="none" id="curve_92" stroke="#000000" stroke-linecap="round" stroke-linejoin="round" stroke-width="3.362429921369556"/>
  <path d="M 65.1896191167689, 85.45235805007343 Q 65.47270704739938, 85.95507042012608, 65.88580182522573, 86.63127600256708 " fill="none" id="curve_147" stroke="#000000" stroke-linecap="round" stroke-linejoin="round" stroke-width="3.294395336531092"/>
  <path d="M 89.85268851204432, 66.17417208756979 Q 89.6782795306699, 65.8125174615952, 89.11877846574663, 65.39723136897467 " fill="none" id="curve_175" stroke="#000000" stroke-linecap="round" stroke-linejoin="round" stroke-width="2.353364128575522"/>
</svg>
