<?xml version="1.0" ?>
<svg height="140" width="140" xmlns="http://www.w3.org/2000/svg">
  <path d="M 41.44296646118164, 109.88419342041016 Q 41.580420689094055, 104.57182654633411, 46.10610631027768, 103.79487934520046 " fill="none" id="curve_1" stroke="#000000" stroke-linecap="round" stroke-linejoin="round" stroke-width="3.6442070356244645"/>
  <path d="M 46.10610631027768, 103.79487934520046 Q 44.27321185541248, 107.49193153933017, 42.83977501562904, 112.95272551672359 " fill="none" id="curve_1" stroke="#000000" stroke-linecap="round" stroke-linejoin="round" stroke-width="3.667083404440177"/>
  <path d="M 51.04138322982814, 99.74738207311682 Q 50.1435785152316, 97.36660220477243, 48.23339791478317, 95.24380979170705 " fill="none" id="curve_2" stroke="#000000" stroke-linecap="round" stroke-linejoin="round" stroke-width="3.245138796019951"/>
  <path d="M 48.23339791478317, 95.24380979170705 Q 52.16044425986675, 88.73212190435056, 57.85969016781334, 73.59417992081981 " fill="none" id="curve_2" stroke="#000000" stroke-linecap="round" stroke-linejoin="round" stroke-width="5.592171136072543"/>
  <path d="M 57.85969016781334, 73.59417992081981 Q 61.1772948522231, 72.23597087878053, 63.78866101549106, 65.55253337249317 " fill="none" id="curve_2" stroke="#000000" stroke-linecap="round" stroke-linejoin="round" stroke-width="4.27683150003172"/>
  <path d="M 63.78866101549106, 65.55253337249317 Q 65.67693481987163, 58.187015478333905, 68.33804414975184, 46.21676652629636 " fill="none" id="curve_2" stroke="#000000" stroke-linecap="round" stroke-linejoin="round" stroke-width="4.81202494624574"/>
  <path d="M 68.33804414975184, 46.21676652629636 Q 65.89319114557847, 41.34617381477287, 61.753107013905684, 35.69732486984668 " fill="none" id="curve_2" stroke="#000000" stroke-linecap="round" stroke-linejoin="round" stroke-width="3.2606006207755427"/>
  <path d="M 61.753107013905684, 35.69732486984668 Q 41.878727936124, 36.12927429531888, 35.725862235537974, 41.782125711521935 " fill="none" id="curve_2" stroke="#000000" stroke-linecap="round" stroke-linejoin="round" stroke-width="4.096554808770356"/>
  <path d="M 35.725862235537974, 41.782125711521935 Q 31.34246314754227, 41.96026165616201, 30.6222249998262, 43.72713376438059 " fill="none" id="curve_2" stroke="#000000" stroke-linecap="round" stroke-linejoin="round" stroke-width="6.792663322593316"/>
  <path d="M 41.73586605909901, 75.98598825533963 Q 41.8502945724913, 78.89511457385416, 44.730084327142194, 79.24026326691985 " fill="none" id="curve_3" stroke="#000000" stroke-linecap="round" stroke-linejoin="round" stroke-width="4.870382292873954"/>
  <path d="M 44.730084327142194, 79.24026326691985 Q 49.24666017992188, 76.76769410863191, 60.525218474813045, 75.28163263804959 " fill="none" id="curve_3" stroke="#000000" stroke-linecap="round" stroke-linejoin="round" stroke-width="6.1069075464341385"/>
  <path d="M 60.525218474813045, 75.28163263804959 Q 58.55090396627345, 74.6391712216768, 58.13447664282628, 68.19777888112039 " fill="none" id="curve_3" stroke="#000000" stroke-linecap="round" stroke-linejoin="round" stroke-width="4.142260629481784"/>
  <path d="M 52.12620519407958, 37.395262900896604 Q 52.19453498623749, 39.6443305279845, 54.856250583053985, 39.806809034009625 " fill="none" id="curve_5" stroke="#000000" stroke-linecap="round" stroke-linejoin="round" stroke-width="5.063364354779759"/>
  <path d="M 46.86990820057076, 71.53784292700038 Q 48.43956028291828, 74.58589505073122, 54.30539819730302, 76.21360166910122 " fill="none" id="curve_6" stroke="#000000" stroke-linecap="round" stroke-linejoin="round" stroke-width="2.3338862380594105"/>
  <path d="M 54.06628147999342, 38.39222282051804 Q 52.98034794481479, 35.86248720648973, 51.385905534493915, 32.89224999264714 " fill="none" id="curve_8" stroke="#000000" stroke-linecap="round" stroke-linejoin="round" stroke-width="2.8681933035798153"/>
  <path d="M 60.30007919048526, 62.98684649168911 Q 60.599968320487925, 62.85986508715483, 61.11290360852454, 62.626714868198555 " fill="none" id="curve_9" stroke="#000000" stroke-linecap="round" stroke-linejoin="round" stroke-width="2.818063747017687"/>
  <path d="M 33.22053064999882, 40.49531531613522 Q 37.09468153283047, 38.878906817665005, 43.43633555287374, 37.22137644350627 " fill="none" id="curve_12" stroke="#000000" stroke-linecap="round" stroke-linejoin="round" stroke-width="2.9277741718777164"/>
  <path d="M 67.15558938951814, 54.05359424752859 Q 67.81360376710978, 54.401065420140476, 68.89367192350265, 55.35445142560405 " fill="none" id="curve_14" stroke="#000000" stroke-linecap="round" stroke-linejoin="round" stroke-width="3.062209578236276"/>
  <path d="M 63.77502526035934, 73.87943774279563 Q 63.57873723815521, 72.70086900404439, 59.317591125735355, 72.5289545546038 " fill="none" id="curve_29" stroke="#000000" stroke-linecap="round" stroke-linejoin="round" stroke-width="2.3792597884844846"/>
  <path d="M 56.45925155122263, 40.22195865649671 Q 56.597257815619926, 40.38111423926281, 56.885336923240054, 40.59365032354238 " fill="none" id="curve_32" stroke="#000000" stroke-linecap="round" stroke-linejoin="round" stroke-width="3.362997342872778"/>
  <path d="M 50.306584509806584, 40.63727161588307 Q 50.24464746168861, 39.43394436337456, 50.07991364011275, 38.07644925556819 " fill="none" id="curve_61" stroke="#000000" stroke-linecap="round" stroke-linejoin="round" stroke-width="2.1103168638463234"/>
  <path d="M 29.926049978142217, 39.960167212928944 Q 29.53780329078407, 40.398785313140166, 29.102059156173695, 41.02590833919452 " fill="none" id="curve_62" stroke="#000000" stroke-linecap="round" stroke-linejoin="round" stroke-width="2.864920791921133"/>
  <path d="M 46.573572011484885, 98.24744786711028 Q 46.78015536269138, 97.98254672898426, 47.31974126517973, 97.66506306823015 " fill="none" id="curve_77" stroke="#000000" stroke-linecap="round" stroke-linejoin="round" stroke-width="2.5795750656092724"/>
</svg>
