<?xml version="1.0" ?>
<svg height="140" width="140" xmlns="http://www.w3.org/2000/svg">
  <path d="M 17.32677459716797, 33.406046867370605 Q 17.17193739700889, 33.57593066353254, 17.07343783964835, 34.56753983633649 " fill="none" id="curve_1" stroke="#000000" stroke-linecap="round" stroke-linejoin="round" stroke-width="5.354448563838812"/>
  <path d="M 17.07343783964835, 34.56753983633649 Q 28.80763249647365, 35.61976496338966, 41.92524486950453, 38.62092355445419 " fill="none" id="curve_1" stroke="#000000" stroke-linecap="round" stroke-linejoin="round" stroke-width="6.320749357548507"/>
  <path d="M 41.92524486950453, 38.62092355445419 Q 46.762252344655714, 39.08885497160524, 55.402129531158195, 39.50604490327488 " fill="none" id="curve_1" stroke="#000000" stroke-linecap="round" stroke-linejoin="round" stroke-width="5.745649310321485"/>
  <path d="M 55.402129531158195, 39.50604490327488 Q 47.44951050669627, 44.22431253118654, 42.40634375713313, 67.59831221845873 " fill="none" id="curve_1" stroke="#000000" stroke-linecap="round" stroke-linejoin="round" stroke-width="5.672661397908301"/>
  <path d="M 42.40634375713313, 67.59831221845873 Q 38.78959663327025, 76.73837881587278, 35.82608717750242, 96.93508322323237 " fill="none" id="curve_1" stroke="#000000" stroke-linecap="round" stroke-linejoin="round" stroke-width="5.08241630287974"/>
  <path d="M 27.674785662358907, 68.34992901127747 Q 32.42281916612612, 67.26071375500918, 59.16123628870388, 66.89538439702405 " fill="none" id="curve_2" stroke="#000000" stroke-linecap="round" stroke-linejoin="round" stroke-width="5.802994093158346"/>
  <path d="M 32.74943606388419, 66.02914635660991 Q 30.036643378769917, 65.60706561204832, 27.658845302492754, 64.89732682450143 " fill="none" id="curve_3" stroke="#000000" stroke-linecap="round" stroke-linejoin="round" stroke-width="3.6409437377121177"/>
  <path d="M 41.74669792359448, 66.4405891792558 Q 37.61178225599356, 74.67807410037227, 34.577089275843186, 96.8677260412728 " fill="none" id="curve_4" stroke="#000000" stroke-linecap="round" stroke-linejoin="round" stroke-width="3.048989980627617"/>
  <path d="M 48.35334853516481, 41.73828519897741 Q 46.6281118310345, 48.5004674289985, 44.61346945741155, 59.07590035397985 " fill="none" id="curve_6" stroke="#000000" stroke-linecap="round" stroke-linejoin="round" stroke-width="2.9088535105546027"/>
  <path d="M 29.586143645224134, 35.35458059252687 Q 26.436501714488678, 34.016677604091775, 18.44800086407568, 32.79587247575786 " fill="none" id="curve_7" stroke="#000000" stroke-linecap="round" stroke-linejoin="round" stroke-width="3.2801209549839445"/>
  <path d="M 34.590461988717934, 65.60355540294836 Q 36.605780659903985, 65.36667292624828, 40.83633203974521, 65.01341798958369 " fill="none" id="curve_8" stroke="#000000" stroke-linecap="round" stroke-linejoin="round" stroke-width="2.5963238227887686"/>
  <path d="M 40.83633203974521, 65.01341798958369 Q 43.99044657601137, 59.7872328162043, 47.268952518731254, 52.3227540909958 " fill="none" id="curve_8" stroke="#000000" stroke-linecap="round" stroke-linejoin="round" stroke-width="4.579257962550802"/>
  <path d="M 35.46362113952637, 98.40572357177734 Q 36.434707175265245, 93.7048798820384, 39.250562002407655, 89.88298781730919 " fill="none" id="curve_22" stroke="#000000" stroke-linecap="round" stroke-linejoin="round" stroke-width="2.9553221888772145"/>
  <path d="M 44.70368305402495, 56.00145011334306 Q 45.453100405469094, 54.84295428465229, 46.56237160102933, 52.608025527912325 " fill="none" id="curve_39" stroke="#000000" stroke-linecap="round" stroke-linejoin="round" stroke-width="3.1436371522120012"/>
  <path d="M 36.92484725168208, 66.30803726909562 Q 37.917005391425135, 70.6803172884155, 39.84711103998809, 75.3516565737657 " fill="none" id="curve_67" stroke="#000000" stroke-linecap="round" stroke-linejoin="round" stroke-width="2.969419901459852"/>
  <path d="M 48.85027948579716, 51.04370553199175 Q 47.36034021705139, 56.10361579413939, 44.207717828764984, 62.41212602614977 " fill="none" id="curve_134" stroke="#000000" stroke-linecap="round" stroke-linejoin="round" stroke-width="1.9440662372730362"/>
</svg>
