<?xml version="1.0" ?>
<svg height="140" width="140" xmlns="http://www.w3.org/2000/svg">
  <path d="M 68.28685760498047, 57.342037200927734 Q 70.8107614404773, 50.810686182211846, 76.44184596566674, 41.390565255080446 " fill="none" id="curve_1" stroke="#000000" stroke-linecap="round" stroke-linejoin="round" stroke-width="5.347395901010218"/>
  <path d="M 76.44184596566674, 41.390565255080446 Q 60.158826138808486, 41.7191578023851, 48.40304000467609, 44.199643918231935 " fill="none" id="curve_1" stroke="#000000" stroke-linecap="round" stroke-linejoin="round" stroke-width="4.3335842860039895"/>
  <path d="M 48.40304000467609, 44.199643918231935 Q 21.297095569202583, 44.23030037548674, 18.919729592091592, 45.59446374870139 " fill="none" id="curve_1" stroke="#000000" stroke-linecap="round" stroke-linejoin="round" stroke-width="4.91449795453538"/>
  <path d="M 18.919729592091592, 45.59446374870139 Q 18.105890459108526, 46.43154087006436, 17.06614934967285, 47.34723389713891 " fill="none" id="curve_1" stroke="#000000" stroke-linecap="round" stroke-linejoin="round" stroke-width="3.868705693040693"/>
  <path d="M 55.91948989073395, 84.95774750507469 Q 64.30486186814882, 82.00876272632283, 69.3126088805262, 55.72355447129953 " fill="none" id="curve_2" stroke="#000000" stroke-linecap="round" stroke-linejoin="round" stroke-width="4.438742585075156"/>
  <path d="M 82.65342939452393, 80.762229446192 Q 81.88762592966323, 80.04005284386956, 64.07586593914937, 79.93661165274678 " fill="none" id="curve_3" stroke="#000000" stroke-linecap="round" stroke-linejoin="round" stroke-width="4.421455424718107"/>
  <path d="M 64.07586593914937, 79.93661165274678 Q 60.80769119677356, 86.30223705485271, 54.79071174994722, 109.07840836240675 " fill="none" id="curve_3" stroke="#000000" stroke-linecap="round" stroke-linejoin="round" stroke-width="5.742809366280464"/>
  <path d="M 54.79071174994722, 109.07840836240675 Q 52.530429002894294, 120.83880280251827, 45.909143073966845, 138.6016109763637 " fill="none" id="curve_3" stroke="#000000" stroke-linecap="round" stroke-linejoin="round" stroke-width="5.4021598593478615"/>
  <path d="M 45.909143073966845, 138.6016109763637 Q 47.77826827939871, 138.14379032794133, 49.761752061291205, 137.51321049882475 " fill="none" id="curve_3" stroke="#000000" stroke-linecap="round" stroke-linejoin="round" stroke-width="3.6109492506029945"/>
  <path d="M 47.62912961667031, 88.84524492101761 Q 49.6368376482982, 85.82853942781017, 56.23106506938762, 84.07776454782051 " fill="none" id="curve_4" stroke="#000000" stroke-linecap="round" stroke-linejoin="round" stroke-width="3.3823401350672295"/>
  <path d="M 82.82589175971961, 83.28607366165991 Q 84.57766025113297, 83.16504535357221, 84.85759837750396, 81.51430279710411 " fill="none" id="curve_5" stroke="#000000" stroke-linecap="round" stroke-linejoin="round" stroke-width="4.881614482033234"/>
  <path d="M 70.38529214773497, 59.249551097509126 Q 71.51392351823462, 54.597575654534126, 72.87166259496337, 47.02912827080466 " fill="none" id="curve_6" stroke="#000000" stroke-linecap="round" stroke-linejoin="round" stroke-width="3.1090326373493085"/>
  <path d="M 66.12070286316956, 63.766752190410486 Q 63.6528201735679, 65.56779678924285, 62.92633110332584, 72.22140837966103 " fill="none" id="curve_7" stroke="#000000" stroke-linecap="round" stroke-linejoin="round" stroke-width="3.256371553476665"/>
  <path d="M 79.28423253510014, 79.04391435271313 Q 76.12160918309623, 78.94513949269432, 71.47038249673942, 78.80137321680643 " fill="none" id="curve_8" stroke="#000000" stroke-linecap="round" stroke-linejoin="round" stroke-width="2.912804220276929"/>
  <path d="M 49.577681069821594, 41.79151762855814 Q 48.25481271993817, 43.08501597293048, 35.62106615438494, 43.32849172325692 " fill="none" id="curve_9" stroke="#000000" stroke-linecap="round" stroke-linejoin="round" stroke-width="2.6919954655044753"/>
  <path d="M 35.62106615438494, 43.32849172325692 Q 35.06268213433978, 42.619150974272735, 20.932042889807533, 42.548514706637036 " fill="none" id="curve_9" stroke="#000000" stroke-linecap="round" stroke-linejoin="round" stroke-width="3.1694477248421795"/>
  <path d="M 20.068378519340847, 47.031712223014075 Q 20.07694288966335, 46.57738889968588, 20.086467118603277, 45.859737031731 " fill="none" id="curve_10" stroke="#000000" stroke-linecap="round" stroke-linejoin="round" stroke-width="3.65006615317751"/>
  <path d="M 72.16550111365788, 48.00998101276585 Q 71.90480500852335, 49.788599430632225, 71.41856559669358, 51.31978272791585 " fill="none" id="curve_12" stroke="#000000" stroke-linecap="round" stroke-linejoin="round" stroke-width="3.930130205932154"/>
  <path d="M 71.41856559669358, 51.31978272791585 Q 72.48839242404162, 48.849780738724554, 73.8903354168705, 45.35487056613969 " fill="none" id="curve_12" stroke="#000000" stroke-linecap="round" stroke-linejoin="round" stroke-width="2.952392388903686"/>
  <path d="M 60.86169563246298, 87.63832611858507 Q 57.98403626357912, 100.65173265294933, 51.29568831393895, 117.75503713102111 " fill="none" id="curve_13" stroke="#000000" stroke-linecap="round" stroke-linejoin="round" stroke-width="2.5585738917127654"/>
  <path d="M 60.805984017403695, 83.92220268640436 Q 58.41541724871962, 93.63059093449225, 53.943198550186295, 108.02705462475663 " fill="none" id="curve_14" stroke="#000000" stroke-linecap="round" stroke-linejoin="round" stroke-width="2.595784483200781"/>
  <path d="M 69.1104590495363, 63.48591655281734 Q 68.74524782582203, 62.24484931312724, 67.73838736635136, 60.84178932543389 " fill="none" id="curve_55" stroke="#000000" stroke-linecap="round" stroke-linejoin="round" stroke-width="2.6007384169011707"/>
  <path d="M 65.53626063389885, 83.20013999724803 Q 65.55152398937938, 75.17672363325354, 65.63298463051778, 71.97022299893804 " fill="none" id="curve_65" stroke="#000000" stroke-linecap="round" stroke-linejoin="round" stroke-width="2.6481845639337562"/>
  <path d="M 71.61968454629675, 49.65186871659169 Q 71.7295506143637, 49.85663380318824, 71.89847895969456, 50.145366499060174 " fill="none" id="curve_66" stroke="#000000" stroke-linecap="round" stroke-linejoin="round" stroke-width="4.212486530351954"/>
  <path d="M 71.89847895969456, 50.145366499060174 Q 72.99626801395078, 48.7503250953847, 74.62801491178608, 45.997132831224874 " fill="none" id="curve_66" stroke="#000000" stroke-linecap="round" stroke-linejoin="round" stroke-width="3.059669681107925"/>
  <path d="M 47.901348776862854, 125.41468886165367 Q 48.25954719969975, 126.39630944379378, 48.73511275391897, 128.40452282027718 " fill="none" id="curve_84" stroke="#000000" stroke-linecap="round" stroke-linejoin="round" stroke-width="3.0263075591389628"/>
  <path d="M 83.38521713962439, 78.88348128633652 Q 81.81199030632234, 79.07111817545376, 79.519152379866, 79.37593738382579 " fill="none" id="curve_86" stroke="#000000" stroke-linecap="round" stroke-linejoin="round" stroke-width="2.786166584607571"/>
  <path d="M 60.066240285034304, 89.90645347249486 Q 58.35814996845366, 99.64902767833716, 52.40030252345446, 113.99619371047885 " fill="none" id="curve_90" stroke="#000000" stroke-linecap="round" stroke-linejoin="round" stroke-width="2.2757284397809254"/>
  <path d="M 55.26195382018006, 112.54499166690778 Q 57.42553497721506, 103.00828761048665, 60.973234305598346, 87.0958613654499 " fill="none" id="curve_96" stroke="#000000" stroke-linecap="round" stroke-linejoin="round" stroke-width="2.7886110311523717"/>
  <path d="M 43.71687984571737, 42.97877749065253 Q 43.68419623451053, 42.832386483697, 43.628054002720745, 42.614597304267704 " fill="none" id="curve_106" stroke="#000000" stroke-linecap="round" stroke-linejoin="round" stroke-width="2.9510668067943358"/>
  <path d="M 57.05315258759947, 94.82157227041581 Q 57.25399595278555, 94.78306350075282, 57.475236895280744, 94.68740090404805 " fill="none" id="curve_121" stroke="#000000" stroke-linecap="round" stroke-linejoin="round" stroke-width="3.439574809229196"/>
  <path d="M 61.914953764011116, 42.31502319246837 Q 62.69931316324306, 41.393248041921495, 65.10027016817378, 40.41102827130502 " fill="none" id="curve_144" stroke="#000000" stroke-linecap="round" stroke-linejoin="round" stroke-width="2.4536021613777326"/>
</svg>
