<?xml version="1.0" ?>
<svg height="140" width="140" xmlns="http://www.w3.org/2000/svg">
  <path d="M 39.18401622772217, 108.09962272644043 Q 38.78648351098491, 108.23896138837549, 38.693512842052144, 110.23375397206436 " fill="none" id="curve_1" stroke="#000000" stroke-linecap="round" stroke-linejoin="round" stroke-width="7.956499017779239"/>
  <path d="M 38.693512842052144, 110.23375397206436 Q 40.11531205064785, 102.80907373701179, 43.038861444006336, 92.78766430533676 " fill="none" id="curve_1" stroke="#000000" stroke-linecap="round" stroke-linejoin="round" stroke-width="7.664236684836854"/>
  <path d="M 43.038861444006336, 92.78766430533676 Q 44.96972255107959, 84.06758067492787, 50.579126136004874, 64.10247753815914 " fill="none" id="curve_1" stroke="#000000" stroke-linecap="round" stroke-linejoin="round" stroke-width="4.944881379551324"/>
  <path d="M 50.579126136004874, 64.10247753815914 Q 53.96746587343944, 56.1621181146471, 59.118334071444494, 46.691117816383965 " fill="none" id="curve_1" stroke="#000000" stroke-linecap="round" stroke-linejoin="round" stroke-width="6.8879772057569815"/>
  <path d="M 59.118334071444494, 46.691117816383965 Q 50.163166264858276, 47.08107140786596, 34.62531347360299, 47.37578447024153 " fill="none" id="curve_1" stroke="#000000" stroke-linecap="round" stroke-linejoin="round" stroke-width="4.829786248239327"/>
  <path d="M 56.91152484794034, 83.77354123232627 Q 55.60765843259598, 88.11083109421595, 31.15167299292838, 88.67446217102294 " fill="none" id="curve_2" stroke="#000000" stroke-linecap="round" stroke-linejoin="round" stroke-width="5.849642185295647"/>
  <path d="M 31.15167299292838, 88.67446217102294 Q 33.62079427544246, 95.21384026102487, 39.53553252024762, 98.54672314335451 " fill="none" id="curve_2" stroke="#000000" stroke-linecap="round" stroke-linejoin="round" stroke-width="3.5525701037999955"/>
  <path d="M 55.64308145483141, 82.99661763951161 Q 50.25463589853308, 83.52630861018264, 47.949338141752705, 86.83035026655702 " fill="none" id="curve_3" stroke="#000000" stroke-linecap="round" stroke-linejoin="round" stroke-width="4.41496472398326"/>
  <path d="M 56.32444008421937, 48.98012875647524 Q 51.02450484945716, 58.91684985275217, 46.45520809445727, 81.69193758557425 " fill="none" id="curve_5" stroke="#000000" stroke-linecap="round" stroke-linejoin="round" stroke-width="3.4935447914721762"/>
  <path d="M 57.721573545020746, 86.95684330743005 Q 54.125356646639524, 86.97087650212131, 49.401815376792875, 86.99425862120923 " fill="none" id="curve_6" stroke="#000000" stroke-linecap="round" stroke-linejoin="round" stroke-width="4.264845060901712"/>
  <path d="M 58.08099821063402, 47.62640279476038 Q 53.63558876688144, 58.73698559898535, 43.29314876345104, 84.13645898679535 " fill="none" id="curve_7" stroke="#000000" stroke-linecap="round" stroke-linejoin="round" stroke-width="2.948694008066981"/>
  <path d="M 43.29314876345104, 84.13645898679535 Q 50.604498043144076, 77.12132421455152, 56.019458200303575, 46.8868150334762 " fill="none" id="curve_7" stroke="#000000" stroke-linecap="round" stroke-linejoin="round" stroke-width="2.969596664059569"/>
  <path d="M 56.019458200303575, 46.8868150334762 Q 57.83670872895437, 45.94400187888053, 60.51977041126643, 44.978406415730404 " fill="none" id="curve_7" stroke="#000000" stroke-linecap="round" stroke-linejoin="round" stroke-width="4.002692189273193"/>
  <path d="M 60.013097047805786, 45.83184242248535 Q 59.74654548201436, 44.28743566032591, 54.48770046256243, 43.997321444413174 " fill="none" id="curve_21" stroke="#000000" stroke-linecap="round" stroke-linejoin="round" stroke-width="2.4268043259500205"/>
  <path d="M 49.92773832672033, 63.37297471515291 Q 50.88743462191365, 53.04010373519757, 58.049911201061605, 48.75071576812487 " fill="none" id="curve_22" stroke="#000000" stroke-linecap="round" stroke-linejoin="round" stroke-width="2.939394777333477"/>
  <path d="M 43.46915887383875, 45.36392975854335 Q 40.916038629576526, 46.285909600238654, 34.2107362176678, 47.000592835688806 " fill="none" id="curve_76" stroke="#000000" stroke-linecap="round" stroke-linejoin="round" stroke-width="3.6534511057880623"/>
  <path d="M 45.92968840446527, 81.16735098125673 Q 46.3583353034277, 66.49668899642221, 52.586828072106364, 60.33033059878909 " fill="none" id="curve_77" stroke="#000000" stroke-linecap="round" stroke-linejoin="round" stroke-width="2.981777559383039"/>
</svg>
