<?xml version="1.0" ?>
<svg height="140" width="140" xmlns="http://www.w3.org/2000/svg">
  <path d="M 41.76749610900879, 64.48732852935791 Q 46.98294875391279, 63.83080690001107, 47.8061590519348, 53.34451059990715 " fill="none" id="curve_1" stroke="#000000" stroke-linecap="round" stroke-linejoin="round" stroke-width="8.801407525306814"/>
  <path d="M 47.8061590519348, 53.34451059990715 Q 47.72778896345121, 43.82452941084924, 45.31502267037593, 43.02418916035726 " fill="none" id="curve_1" stroke="#000000" stroke-linecap="round" stroke-linejoin="round" stroke-width="6.0997073372452215"/>
  <path d="M 45.31502267037593, 43.02418916035726 Q 42.35139193515202, 41.8269511751116, 25.5769990663957, 41.40580505141182 " fill="none" id="curve_1" stroke="#000000" stroke-linecap="round" stroke-linejoin="round" stroke-width="6.137287222092685"/>
  <path d="M 25.5769990663957, 41.40580505141182 Q 18.730122458627434, 42.09627406756921, 17.53590921858809, 46.94889679429755 " fill="none" id="curve_1" stroke="#000000" stroke-linecap="round" stroke-linejoin="round" stroke-width="7.849819181545352"/>
  <path d="M 32.56864815849938, 75.78440937778753 Q 41.77928098474158, 73.8825380344702, 45.13749156218799, 64.82362695920976 " fill="none" id="curve_2" stroke="#000000" stroke-linecap="round" stroke-linejoin="round" stroke-width="4.704701822844568"/>
  <path d="M 45.13749156218799, 64.82362695920976 Q 41.96000570663529, 72.09104969585886, 39.96406806449753, 87.86221311206955 " fill="none" id="curve_2" stroke="#000000" stroke-linecap="round" stroke-linejoin="round" stroke-width="4.813297616426237"/>
  <path d="M 39.96406806449753, 87.86221311206955 Q 40.86533864886081, 95.72787592364202, 44.110885290666715, 98.21377482674728 " fill="none" id="curve_2" stroke="#000000" stroke-linecap="round" stroke-linejoin="round" stroke-width="5.318962414356963"/>
  <path d="M 53.10294549911168, 75.87578620360826 Q 47.91824348005429, 74.69284130784183, 39.18421674826979, 72.362306277482 " fill="none" id="curve_3" stroke="#000000" stroke-linecap="round" stroke-linejoin="round" stroke-width="4.39000028062979"/>
  <path d="M 39.18421674826979, 72.362306277482 Q 50.4339037670978, 74.4089177336064, 58.97295018720615, 77.35344441303386 " fill="none" id="curve_3" stroke="#000000" stroke-linecap="round" stroke-linejoin="round" stroke-width="3.8020847889009786"/>
  <path d="M 35.55535804683803, 72.44699616416281 Q 31.456071487084248, 73.71854266644289, 29.92131876842457, 77.73762610738207 " fill="none" id="curve_4" stroke="#000000" stroke-linecap="round" stroke-linejoin="round" stroke-width="4.172946361327779"/>
  <path d="M 38.262093507744666, 77.79209306968323 Q 39.23191950145306, 84.63180314408778, 40.10191083731179, 95.12279266410583 " fill="none" id="curve_5" stroke="#000000" stroke-linecap="round" stroke-linejoin="round" stroke-width="2.484603091512992"/>
  <path d="M 14.277370828031007, 44.56919116113769 Q 15.397728125210145, 44.35018965310009, 16.534648083602885, 43.77309037381491 " fill="none" id="curve_7" stroke="#000000" stroke-linecap="round" stroke-linejoin="round" stroke-width="2.7812473869708807"/>
  <path d="M 49.290623096587524, 73.46436223024601 Q 47.04513338334448, 71.52381669384617, 39.907130660405294, 69.90650540345905 " fill="none" id="curve_126" stroke="#000000" stroke-linecap="round" stroke-linejoin="round" stroke-width="2.3600252423809485"/>
  <path d="M 30.7781252154819, 75.93893386141386 Q 30.77237995342211, 76.53389312862647, 30.764358978846982, 77.7150958033788 " fill="none" id="curve_135" stroke="#000000" stroke-linecap="round" stroke-linejoin="round" stroke-width="2.6885809342063154"/>
</svg>
