<?xml version="1.0" ?>
<svg height="140" width="140" xmlns="http://www.w3.org/2000/svg">
  <path d="M 36.92081928253174, 125.33187532424927 Q 37.508579970172974, 120.54352916310326, 41.049223231446604, 117.03685300889934 " fill="none" id="curve_1" stroke="#000000" stroke-linecap="round" stroke-linejoin="round" stroke-width="7.00768985089597"/>
  <path d="M 41.049223231446604, 117.03685300889934 Q 43.85389597595356, 109.67842576661963, 49.45760896651938, 95.22465663045497 " fill="none" id="curve_1" stroke="#000000" stroke-linecap="round" stroke-linejoin="round" stroke-width="6.525742085774884"/>
  <path d="M 49.45760896651938, 95.22465663045497 Q 54.05659692443958, 87.81755476049979, 60.28646043279905, 71.13837902134094 " fill="none" id="curve_1" stroke="#000000" stroke-linecap="round" stroke-linejoin="round" stroke-width="4.554198247346426"/>
  <path d="M 60.28646043279905, 71.13837902134094 Q 63.42814562554735, 60.23681930840629, 71.43804558019293, 38.44101805680511 " fill="none" id="curve_1" stroke="#000000" stroke-linecap="round" stroke-linejoin="round" stroke-width="6.878460203181782"/>
  <path d="M 71.43804558019293, 38.44101805680511 Q 61.619036187092846, 38.34450106356275, 35.07826459350904, 38.03131356220757 " fill="none" id="curve_1" stroke="#000000" stroke-linecap="round" stroke-linejoin="round" stroke-width="4.776741313004727"/>
  <path d="M 35.07826459350904, 38.03131356220757 Q 15.390122034984937, 37.9176630968289, 12.02182857877919, 36.5699807974249 " fill="none" id="curve_1" stroke="#000000" stroke-linecap="round" stroke-linejoin="round" stroke-width="5.038370705026919"/>
  <path d="M 66.15882914676135, 46.753134462194794 Q 64.10704913058052, 56.702791493111945, 59.83217635396672, 76.58898040587579 " fill="none" id="curve_3" stroke="#000000" stroke-linecap="round" stroke-linejoin="round" stroke-width="3.6169766792404734"/>
  <path d="M 43.0412523195832, 86.33943904899512 Q 36.29277224148589, 86.50486770000042, 33.98379494829054, 87.50875807750113 " fill="none" id="curve_4" stroke="#000000" stroke-linecap="round" stroke-linejoin="round" stroke-width="4.0003067056818935"/>
  <path d="M 33.98379494829054, 87.50875807750113 Q 34.945165971533875, 85.88845182623187, 49.809681482155895, 85.69167268745673 " fill="none" id="curve_4" stroke="#000000" stroke-linecap="round" stroke-linejoin="round" stroke-width="3.914749650729324"/>
  <path d="M 49.809681482155895, 85.69167268745673 Q 51.958082998679714, 85.04804678732462, 61.550566249764216, 84.82705466873995 " fill="none" id="curve_4" stroke="#000000" stroke-linecap="round" stroke-linejoin="round" stroke-width="2.947065291609644"/>
  <path d="M 60.00242222987526, 67.76034058619379 Q 59.560563536906585, 72.38752755387478, 57.14779468006956, 74.76462259306108 " fill="none" id="curve_5" stroke="#000000" stroke-linecap="round" stroke-linejoin="round" stroke-width="3.8129203277782135"/>
  <path d="M 63.130129930906776, 67.01311634970908 Q 63.65070567105935, 53.77365819042501, 66.04224426166729, 45.24494244625593 " fill="none" id="curve_6" stroke="#000000" stroke-linecap="round" stroke-linejoin="round" stroke-width="2.902603818982211"/>
  <path d="M 62.710457148521535, 64.84239832489413 Q 62.97170429540353, 59.075462921485496, 65.24482466688129, 57.38965176471417 " fill="none" id="curve_9" stroke="#000000" stroke-linecap="round" stroke-linejoin="round" stroke-width="3.431230449147223"/>
  <path d="M 65.24482466688129, 57.38965176471417 Q 63.6424981703007, 59.43202724338647, 61.087372276489425, 64.55302090484092 " fill="none" id="curve_9" stroke="#000000" stroke-linecap="round" stroke-linejoin="round" stroke-width="2.7990257100635527"/>
  <path d="M 38.54987170968411, 121.5176110448195 Q 38.2609817405943, 125.07174614386699, 36.66590156713264, 126.26472148769965 " fill="none" id="curve_10" stroke="#000000" stroke-linecap="round" stroke-linejoin="round" stroke-width="6.030118077608501"/>
  <path d="M 34.53996302822052, 89.60574888502697 Q 34.83832555766922, 89.29914072969481, 35.13771797816678, 88.54737767029225 " fill="none" id="curve_14" stroke="#000000" stroke-linecap="round" stroke-linejoin="round" stroke-width="3.4151288912902893"/>
  <path d="M 37.6797650263485, 123.16573843527007 Q 37.19169561448302, 123.31794295583033, 36.864767302518736, 123.68180949568563 " fill="none" id="curve_15" stroke="#000000" stroke-linecap="round" stroke-linejoin="round" stroke-width="6.6931464306193"/>
  <path d="M 57.40943231908164, 82.20750244631779 Q 60.69621700420176, 76.99810009962295, 63.4938970953028, 63.18279702666797 " fill="none" id="curve_16" stroke="#000000" stroke-linecap="round" stroke-linejoin="round" stroke-width="3.6237754258051207"/>
  <path d="M 63.4938970953028, 63.18279702666797 Q 63.76451225897406, 57.14565777553185, 66.62074013193156, 56.070509728722946 " fill="none" id="curve_16" stroke="#000000" stroke-linecap="round" stroke-linejoin="round" stroke-width="4.106493628787007"/>
  <path d="M 44.81027222027019, 37.566728447392336 Q 39.99000815027429, 37.51348726176479, 21.12283463804586, 37.48383345641234 " fill="none" id="curve_17" stroke="#000000" stroke-linecap="round" stroke-linejoin="round" stroke-width="3.434395809598803"/>
  <path d="M 60.73324797372878, 58.876178589238336 Q 63.782361338718836, 58.69551466899766, 65.31124628456855, 57.837754509855 " fill="none" id="curve_18" stroke="#000000" stroke-linecap="round" stroke-linejoin="round" stroke-width="4.012550766700206"/>
  <path d="M 19.95767382009683, 39.2875346585561 Q 22.129577041551002, 38.785053226021475, 27.568343418113482, 38.35169382450441 " fill="none" id="curve_33" stroke="#000000" stroke-linecap="round" stroke-linejoin="round" stroke-width="1.7979821495263644"/>
  <path d="M 13.261865059536934, 35.60967630344173 Q 13.241347530220926, 35.540331964750905, 13.21439609364399, 35.44305826592101 " fill="none" id="curve_34" stroke="#000000" stroke-linecap="round" stroke-linejoin="round" stroke-width="3.3024697064553434"/>
  <path d="M 39.02857425945082, 123.86194914905874 Q 39.45598167752666, 122.64414944242932, 39.90299937830186, 121.00791874572384 " fill="none" id="curve_54" stroke="#000000" stroke-linecap="round" stroke-linejoin="round" stroke-width="3.856378249271339"/>
  <path d="M 63.016543089991174, 60.71049917345145 Q 64.63865213029513, 60.484385758669895, 65.88268898650843, 59.729545565996 " fill="none" id="curve_61" stroke="#000000" stroke-linecap="round" stroke-linejoin="round" stroke-width="3.51620080338005"/>
  <path d="M 49.44686849870004, 86.10510448482 Q 49.413294903630394, 92.02476516478693, 49.34631465577406, 97.69004382200451 " fill="none" id="curve_76" stroke="#000000" stroke-linecap="round" stroke-linejoin="round" stroke-width="2.6598006019552694"/>
  <path d="M 43.1455156860968, 84.59704440630458 Q 42.53302564488012, 84.77249969885112, 41.6915396177946, 85.12217219460744 " fill="none" id="curve_78" stroke="#000000" stroke-linecap="round" stroke-linejoin="round" stroke-width="3.0542740085587443"/>
  <path d="M 67.63782025676684, 43.10799785539266 Q 67.25591017555216, 43.64829943229048, 66.88775898360628, 44.72843038052976 " fill="none" id="curve_94" stroke="#000000" stroke-linecap="round" stroke-linejoin="round" stroke-width="2.978763009517175"/>
  <path d="M 41.944102126770375, 106.9008144959595 Q 43.134818406159006, 105.59030714789404, 45.18644653528913, 104.1387820542927 " fill="none" id="curve_97" stroke="#000000" stroke-linecap="round" stroke-linejoin="round" stroke-width="2.822592485945772"/>
</svg>
