<?xml version="1.0" encoding="utf-8" ?>
<svg baseProfile="tiny" height="25" version="1.2" width="25" xmlns="http://www.w3.org/2000/svg" xmlns:ev="http://www.w3.org/2001/xml-events" xmlns:xlink="http://www.w3.org/1999/xlink"><defs /><path d="M 24.998797476291656 24.99905377626419 Q 24.998262524604797 24.999576807022095 24.996483325958252 24.999317526817322" fill="none" stroke="black" stroke-width="0.99997884" /><path d="M 24.998050928115845 24.99956637620926 Q 24.9923437833786 24.999304115772247 22.499559819698334 24.999164044857025" fill="none" stroke="black" stroke-width="0.99997854" /><path d="M 24.201031029224396 24.9991238117218 Q 22.30207920074463 24.999411404132843 20.92849463224411 24.999241530895233" fill="none" stroke="black" stroke-width="0.999976" /><path d="M 23.8226056098938 24.999399483203888 Q 23.30116033554077 24.999207258224487 22.872306406497955 24.9992236495018" fill="none" stroke="black" stroke-width="0.99997514" /><path d="M 24.417683482170105 24.999256432056427 Q 24.785688519477844 24.999403953552246 24.92998242378235 24.99895840883255" fill="none" stroke="black" stroke-width="0.9999679" /><path d="M 24.980822205543518 24.999450147151947 Q 24.986355006694794 24.999357759952545 24.9711737036705 24.998609721660614" fill="none" stroke="black" stroke-width="0.9999603" /><path d="M 24.985939264297485 24.999427795410156 Q 24.990397691726685 24.99874085187912 24.991945922374725 24.999669194221497" fill="none" stroke="black" stroke-width="0.9999768" /><path d="M 24.991366267204285 24.99954104423523 Q 24.993455410003662 24.99915063381195 24.98151957988739 24.999317526817322" fill="none" stroke="black" stroke-width="0.99993044" /><path d="M 24.9961718916893 24.999380111694336 Q 24.995721876621246 24.998483061790466 24.99474436044693 24.99956339597702" fill="none" stroke="black" stroke-width="0.99993557" /><path d="M 24.997276067733765 24.999511241912842 Q 24.996227025985718 24.999259412288666 24.992267787456512 24.99936819076538" fill="none" stroke="black" stroke-width="0.99995786" /><path d="M 24.997474253177643 24.999454617500305 Q 24.995531141757965 24.9992698431015 24.99195486307144 24.99942034482956" fill="none" stroke="black" stroke-width="0.9999236" /><path d="M 24.991272389888763 24.999049305915833 Q 24.988991022109985 24.99930113554001 24.997471272945404 24.99939799308777" fill="none" stroke="black" stroke-width="0.9998386" /><path d="M 24.996839463710785 24.999448657035828 Q 24.991843104362488 24.998818337917328 24.993418157100677 24.999305605888367" fill="none" stroke="black" stroke-width="0.9998037" /><path d="M 24.994204938411713 24.998874962329865 Q 24.996569752693176 24.99880939722061 24.983982741832733 24.998508393764496" fill="none" stroke="black" stroke-width="0.999635" /><path d="M 24.90188777446747 24.99871402978897 Q 24.83927607536316 24.999146163463593 24.59157407283783 24.998295307159424" fill="none" stroke="black" stroke-width="0.99844956" /><path d="M 23.9737868309021 24.998830258846283 Q 24.298322200775146 24.998849630355835 23.56170564889908 24.997936189174652" fill="none" stroke="black" stroke-width="0.9676551" /><path d="M 23.720325529575348 24.99854415655136 Q 23.697106540203094 24.998417496681213 23.39405119419098 24.99919831752777" fill="none" stroke="black" stroke-width="0.912913" /><path d="M 21.80841565132141 24.998751282691956 Q 21.525368094444275 24.99823421239853 21.380117535591125 24.997876584529877" fill="none" stroke="black" stroke-width="0.8398579" /><path d="M 20.172935724258423 24.998442828655243 Q 20.30986100435257 24.997982382774353 19.70057636499405 24.998189508914948" fill="none" stroke="black" stroke-width="0.7608904" /><path d="M 18.205827474594116 24.993276596069336 Q 18.15524399280548 24.99610185623169 17.97456294298172 24.99540001153946" fill="none" stroke="black" stroke-width="0.64893353" /><path d="M 15.794047713279724 24.99149590730667 Q 15.041355788707733 24.99399483203888 15.556292235851288 24.99292641878128" fill="none" stroke="black" stroke-width="0.5874131" /><path d="M 13.444286584854126 24.98723566532135 Q 13.650690019130707 24.988266825675964 13.118909299373627 24.99096691608429" fill="none" stroke="black" stroke-width="0.51337117" /><path d="M 11.594832688570023 23.07649999856949 Q 11.025465279817581 22.982485592365265 11.409197002649307 23.34561198949814" fill="none" stroke="black" stroke-width="0.475776" /><path d="M 9.861326962709427 19.562193751335144 Q 9.799231588840485 19.68350112438202 9.815197438001633 19.23070102930069" fill="none" stroke="black" stroke-width="0.3848452" /><path d="M 7.060486823320389 16.385148465633392 Q 8.158285170793533 16.498394310474396 8.061511814594269 16.0826176404953" fill="none" stroke="black" stroke-width="0.29166362" /><path d="M 5.725502595305443 13.481730222702026 Q 5.620396137237549 13.676801323890686 5.57730533182621 14.198939502239227" fill="none" stroke="black" stroke-width="0.22245653" /><path d="M 3.7086617201566696 12.324970215559006 Q 3.6415264010429382 12.73425817489624 4.474984481930733 12.091077864170074" fill="none" stroke="black" stroke-width="0.17468138" /><path d="M 2.314375154674053 10.644818097352982 Q 2.003833092749119 11.075638979673386 1.1880535632371902 9.388335049152374" fill="none" stroke="black" stroke-width="0.074852414" /><path d="M 0.20728809759020805 9.685870260000229 Q 0.14442807296290994 10.513323545455933 0.1188388210721314 9.60688516497612" fill="none" stroke="black" stroke-width="0.026751643" /><path d="M 0.007299197750398889 7.666904479265213 Q 0.0024363549528061412 7.587269693613052 0.009231077274307609 7.777856290340424" fill="none" stroke="black" stroke-width="0.001451352" /><path d="M 0.004479708513827063 5.29787614941597 Q 0.004488259583013132 5.4725706577301025 0.009516246063867584 4.051465541124344" fill="none" stroke="black" stroke-width="0.00029845175" /><path d="M 0.0022825781343271956 2.9347673058509827 Q 0.0028350495995255187 2.845907583832741 0.003438171188463457 2.347562089562416" fill="none" stroke="black" stroke-width="0.00018587823" /><path d="M 0.0034612694435054436 0.6551797967404127 Q 0.0019769217033172026 0.7722619920969009 0.003942675539292395 0.3741622203961015" fill="none" stroke="black" stroke-width="7.786636e-05" /><path d="M 0.001675514067756012 0.016731960931792855 Q 0.0021392896087490954 0.013345964543987066 0.0015830002666916698 0.02329987910343334" fill="none" stroke="black" stroke-width="5.899882e-05" /><path d="M 0.0020582598153850995 0.007353604451054707 Q 0.001151005199062638 0.003745170761249028 0.0029748265660600737 0.004584872658597305" fill="none" stroke="black" stroke-width="5.542758e-05" /><path d="M 0.0004903259650745895 0.0024238026526290923 Q 0.0021856589228264056 0.0023666447305004112 0.0011069118045270443 0.002192835927417036" fill="none" stroke="black" stroke-width="4.0827672e-05" /><path d="M 0.0008127532964863349 0.0009746533578436356 Q 0.0016897256500669755 0.002365931504755281 0.0012317192158661783 0.0033514155802549794" fill="none" stroke="black" stroke-width="4.206831e-05" /><path d="M 0.0008468754458590411 0.0014774805094930343 Q 0.0006630869847867871 0.0018740931409411132 0.0011163409908476751 0.0016084548406070098" fill="none" stroke="black" stroke-width="3.3698798e-05" /><path d="M 0.00045757542466162704 0.0014068656128074508 Q 0.0010289491001458373 0.0020131144992774352 0.0007613953130203299 0.002022649277932942" fill="none" stroke="black" stroke-width="3.903018e-05" /><path d="M 0.0007409772024402628 0.0019651855836855248 Q 0.0003258652441218146 0.0007798900696798228 0.0011833732060040347 0.001612790765648242" fill="none" stroke="black" stroke-width="2.2818922e-05" /><path d="M 0.001496568711445434 0.0012317767868808005 Q 0.0008533781510777771 0.0017831765944720246 0.0007001554422458867 0.0009056851922650822" fill="none" stroke="black" stroke-width="2.9593055e-05" /><path d="M 0.0008687618901603855 0.0006164455953694414 Q 0.0012982394764549099 0.0007741894478385802 0.001246639385499293 0.001669502853474114" fill="none" stroke="black" stroke-width="2.7864755e-05" /><path d="M 0.00096310304797953 0.0005382584276958369 Q 0.0008253755368059501 0.0005137548214406706 0.0007808575901435688 0.0011838214049930684" fill="none" stroke="black" stroke-width="2.7106013e-05" /><path d="M 0.0010914445738308132 0.0005740076630900148 Q 0.0006874004156998126 0.0014110133633948863 0.0012481120393204037 0.0013364253391046077" fill="none" stroke="black" stroke-width="2.0066005e-05" /><path d="M 0.0015129053281270899 0.0004818890374735929 Q 0.001009852894640062 0.0006642889729846502 0.0009698256690171547 0.0010364147783548106" fill="none" stroke="black" stroke-width="4.0031497e-05" /><path d="M 0.0006368119102262426 0.0006809787464590045 Q 0.0005686593794962391 0.0007773647666908801 0.0009859395504463464 0.0007159894266806077" fill="none" stroke="black" stroke-width="2.665071e-05" /><path d="M 0.0008013031219888944 0.0008896160579752177 Q 0.0006469313120760489 0.000548014031664934 0.001228741712111514 0.0003409939836274134" fill="none" stroke="black" stroke-width="3.904648e-05" /><path d="M 0.0005171776138013229 0.0006641255367867416 Q 0.0010787643077492248 0.0010610037861624733 0.0009032924026541878 0.00032594791719020577" fill="none" stroke="black" stroke-width="3.2674216e-05" /><path d="M 0.0005211185452935752 0.0006902967470523436 Q 0.0006943307198525872 0.0005979868092254037 0.0007889602784416638 0.001092416096071247" fill="none" stroke="black" stroke-width="3.2401185e-05" /><path d="M 0.000441549582319567 0.0005370638064050581 Q 0.0005099007466924377 0.0006958148787816754 0.0009492531717114616 0.0008371929652639665" fill="none" stroke="black" stroke-width="2.5317362e-05" /><path d="M 0.0006835156000306597 0.0003528635033944738 Q 0.0014696913240186404 0.0008735680239624344 0.0005444146154331975 0.0006364081855281256" fill="none" stroke="black" stroke-width="3.9151597e-05" /><path d="M 0.0006002574082231149 0.0007958815331221558 Q 0.0005013024292566115 0.0010012198799813632 0.000649258254270535 0.0008491583685099613" fill="none" stroke="black" stroke-width="2.1068054e-05" /><path d="M 0.0006177562681841664 0.0007231685685837874 Q 0.0007973340871103574 0.0005300612883729627 0.0007057321454340126 0.0006851549187558703" fill="none" stroke="black" stroke-width="4.861578e-05" /><path d="M 0.0007388907306449255 0.000636452477920102 Q 0.0010773004760267213 0.0009786601367522962 0.0009046407285495661 0.0006477425358752953" fill="none" stroke="black" stroke-width="3.012452e-05" /><path d="M 0.000589526234762161 0.0006230330654943828 Q 0.0010127480891242158 0.0008362656444660388 0.0005719590717490064 0.0005658280315401498" fill="none" stroke="black" stroke-width="1.763872e-05" /><path d="M 0.0004116429863643134 0.0007428791377606103 Q 0.0008226150384871289 0.0008247493497037794 0.0009128814781433903 0.0006818950623710407" fill="none" stroke="black" stroke-width="3.2787393e-05" /><path d="M 0.0007034831469354685 0.0005426377811090788 Q 0.0008768221960053779 0.0005136485015100334 0.0008401993909501471 0.0015353811249951832" fill="none" stroke="black" stroke-width="1.26348095e-05" /><path d="M 0.001468076152377762 0.000925068979995558 Q 0.0010488271982467268 0.00042147257772739977 0.0007339725925703533 0.00048482438614882994" fill="none" stroke="black" stroke-width="3.0950425e-05" /><path d="M 0.0005593400601355825 0.0005979970410407986 Q 0.0014656465282314457 0.0010142036444449332 0.0007467437626473838 0.0006592817499040393" fill="none" stroke="black" stroke-width="3.166561e-05" /><path d="M 0.0006301173471001675 0.0007653839929844253 Q 0.000756798453949159 0.0008817787602311 0.001179860919364728 0.0007692791768931784" fill="none" stroke="black" stroke-width="1.9032366e-05" /><path d="M 0.00035668185773829464 0.0005559959845413687 Q 0.0007876845302234869 0.0007148929398681503 0.0006784067863918608 0.0011220692613278516" fill="none" stroke="black" stroke-width="2.0601543e-05" /><path d="M 0.0009548479283694178 0.0008411871931457426 Q 0.0006867295269330498 0.0003576894414436538 0.000682424615661148 0.0012630247510969639" fill="none" stroke="black" stroke-width="2.0121113e-05" /><path d="M 0.0004830950729228789 0.0006104620752012124 Q 0.000975147031567758 0.0011951293345191516 0.0006110702088335529 0.0009192903235089034" fill="none" stroke="black" stroke-width="3.249643e-05" /><path d="M 0.0006214030236151302 0.0008602456546213944 Q 0.0006515432687592693 0.0005785145276604453 0.0007098467904143035 0.001269292533834232" fill="none" stroke="black" stroke-width="4.3324293e-05" /><path d="M 0.000726715143173351 0.0009732953913044184 Q 0.001011813583318144 0.0014250931599235628 0.0014064444258110598 0.0005746193892264273" fill="none" stroke="black" stroke-width="1.9961813e-05" /><path d="M 0.0008102482752292417 0.00047307548811659217 Q 0.00037137901927053463 0.0006697466233163141 0.0008851360689732246 0.00074961199061363" fill="none" stroke="black" stroke-width="1.3724846e-05" /><path d="M 0.0005812962626805529 0.0009961741852748673 Q 0.0014076426850806456 0.0012837040230806451 0.0015179793081188109 0.0004392581104184501" fill="none" stroke="black" stroke-width="3.7452133e-05" /><path d="M 0.0011841702871606685 0.0010297490007360466 Q 0.000639481686448562 0.001435316607967252 0.000996188373392215 0.0011674754205159843" fill="none" stroke="black" stroke-width="3.1468433e-05" /><path d="M 0.00046713175834156573 0.00038009268337191315 Q 0.0005956328095635399 0.0010390669558546506 0.0008926609552872833 0.0005911329481023131" fill="none" stroke="black" stroke-width="3.4710203e-05" /><path d="M 0.0004221201834297972 0.0006969125934119802 Q 0.0011031149369955529 0.0006932396900083404 0.0006389252121152822 0.0009037284144142177" fill="none" stroke="black" stroke-width="5.4538024e-05" /><path d="M 0.0006427379503293196 0.0009791772754397243 Q 0.0014503455531666987 0.0005223838797974167 0.0006699836376355961 0.0011793524208769668" fill="none" stroke="black" stroke-width="1.7501088e-05" /><path d="M 0.0007152162197598955 0.001226429594680667 Q 0.0008116550816339441 0.0004196892859908985 0.0007959400136314798 0.0005491582214744994" fill="none" stroke="black" stroke-width="2.3588336e-05" /><path d="M 0.0006278535238379845 0.0010208105777564924 Q 0.001025142046273686 0.0005238940048002405 0.0007095990895322757 0.0008277276720036753" fill="none" stroke="black" stroke-width="2.4312805e-05" /><path d="M 0.0003930119419237599 0.0006134612249297788 Q 0.0004414325303514488 0.00045433953346218914 0.0009972139196179342 0.0003473998503977782" fill="none" stroke="black" stroke-width="1.6726992e-05" /><path d="M 0.0010265252967656124 0.0006659844984824304 Q 0.0006323940851871157 0.0008540627277398016 0.00050273288252356 0.0013452916391543113" fill="none" stroke="black" stroke-width="1.331191e-05" /><path d="M 0.0005868198513780953 0.0008801599506114144 Q 0.001735477417241782 0.0007820603968866635 0.0007013737103989115 0.0005287753992888611" fill="none" stroke="black" stroke-width="3.562984e-05" /><path d="M 0.0010430063412059098 0.001151795731857419 Q 0.0006740050139342202 0.0013158964975445997 0.0007554738203907618 0.00039774472497811075" fill="none" stroke="black" stroke-width="5.438269e-05" /><path d="M 0.0008111389433906879 0.0008590062861912884 Q 0.0010774400834634434 0.0006275739906413946 0.0006158433279779274 0.0011917150004592258" fill="none" stroke="black" stroke-width="4.8005906e-05" /><path d="M 0.0004533911578619154 0.0006466111699410249 Q 0.0005751709522883175 0.0006418712928280002 0.0011493904821691103 0.0006710611160087865" fill="none" stroke="black" stroke-width="1.3905844e-05" /><path d="M 0.001493476429459406 0.0005135681931278668 Q 0.0005110901383886812 0.0008418227480433416 0.0005505839908437338 0.0006532660790981026" fill="none" stroke="black" stroke-width="4.585652e-05" /><path d="M 0.0011809967872977722 0.0011109291335742455 Q 0.00031688614399172366 0.0006525910976051819 0.0015687255654484034 0.0007906270184321329" fill="none" stroke="black" stroke-width="1.3587892e-05" /><path d="M 0.0003494797056191601 0.0009461173249292187 Q 0.0009857853910943959 0.0003575745040507172 0.0018610853658174165 0.0007362410542555153" fill="none" stroke="black" stroke-width="4.9766622e-05" /><path d="M 0.0008525313205609564 0.0005687819793820381 Q 0.0006491443400591379 0.000704534522810718 0.0004914616965834284 0.000761764204071369" fill="none" stroke="black" stroke-width="8.677685e-06" /><path d="M 0.00080747213360155 0.00042280712477804627 Q 0.000622102652414469 0.0005160976797924377 0.0008539471309632063 0.0006154464244900737" fill="none" stroke="black" stroke-width="2.1402473e-05" /><path d="M 0.0007303313850570703 0.0007491575615858892 Q 0.0005409822733781766 0.0011323240869387519 0.0007053593435557559 0.0005951592356723268" fill="none" stroke="black" stroke-width="3.4788245e-05" /><path d="M 0.0006988938821450574 0.0006180172931635752 Q 0.0005488801889441675 0.00126417189676431 0.0007584782906633336 0.0004915568297292339" fill="none" stroke="black" stroke-width="2.5913752e-05" /><path d="M 0.001089613124349853 0.0006298217613220913 Q 0.0004179124516667798 0.0004571201770886546 0.0009032286470755935 0.0008716183401702438" fill="none" stroke="black" stroke-width="3.6580957e-05" /><path d="M 0.0005334783054422587 0.0006772297183488263 Q 0.0006057953669369454 0.0006593898888240801 0.0010098384336743038 0.0007735428880550899" fill="none" stroke="black" stroke-width="3.151246e-05" /><path d="M 0.0005034310106566409 0.0009661433978180867 Q 0.0012845992387156002 0.0008256251021521166 0.0005719138243875932 0.0010057598046842031" fill="none" stroke="black" stroke-width="1.4151481e-05" /><path d="M 0.0006441671303036856 0.0007153335445764242 Q 0.0007888375876063947 0.00068766071308346 0.0004558833097689785 0.0012400611922203097" fill="none" stroke="black" stroke-width="3.3694687e-05" /><path d="M 0.0011642223398666829 0.0005544319719774649 Q 0.00041851026253425516 0.0005241138751443941 0.0008017388609005138 0.0007701711183472071" fill="none" stroke="black" stroke-width="2.8250372e-05" /><path d="M 0.0006286089956120122 0.0003706285951921018 Q 0.0008668675945955329 0.0007786335117998533 0.001615043765923474 0.0008500730473315343" fill="none" stroke="black" stroke-width="2.5786008e-05" /><path d="M 0.0007420698239002377 0.0005461462933453731 Q 0.000809382527222624 0.0007863208338676486 0.0011720479960786179 0.0013412680345936678" fill="none" stroke="black" stroke-width="3.5821857e-05" /><path d="M 0.0006039275376679143 0.0006623798526561586 Q 0.0007158706466725562 0.0011516617632878479 0.0007273849860212067 0.000675945057082572" fill="none" stroke="black" stroke-width="2.5267747e-05" /><path d="M 0.0007087273388606263 0.000765973254601704 Q 0.0005688183136953739 0.0010155246854992583 0.0007535842541983584 0.000877867205417715" fill="none" stroke="black" stroke-width="3.9884333e-05" /><path d="M 0.0006292334091995144 0.0007141107289498905 Q 0.0010344793736294378 0.00046532486521755345 0.00032165689844987355 0.0007820357495802455" fill="none" stroke="black" stroke-width="1.5049685e-05" /><path d="M 0.0009002550541481469 0.0009605780178389978 Q 0.0004912358690489782 0.0009729316843731795 0.0004758005616167793 0.001112229801947251" fill="none" stroke="black" stroke-width="2.0243755e-05" /><path d="M 0.0016282052456517704 0.00022921906293049688 Q 0.0006459609721787274 0.0009549835340294521 0.0008791439540800638 0.0010909326192631852" fill="none" stroke="black" stroke-width="3.1132986e-05" /><path d="M 0.0011506956980156247 0.001054034146363847 Q 0.0004392212758830283 0.00039215005926962476 0.00037159582007006975 0.0007342428489209851" fill="none" stroke="black" stroke-width="1.7094462e-05" /><path d="M 0.0010789062798721716 0.0003725702299561817 Q 0.0006555626896442845 0.001042728854372399 0.0006057785867596976 0.0010177768672292586" fill="none" stroke="black" stroke-width="4.6198136e-05" /></svg>