<?xml version="1.0" encoding="utf-8" ?>
<svg baseProfile="tiny" height="25" version="1.2" width="25" xmlns="http://www.w3.org/2000/svg" xmlns:ev="http://www.w3.org/2001/xml-events" xmlns:xlink="http://www.w3.org/1999/xlink"><defs /><path d="M 24.998772144317627 24.99943971633911 Q 24.99874383211136 24.999234080314636 24.997428059577942 24.999313056468964" fill="none" stroke="black" stroke-width="0.9999804" /><path d="M 24.996788799762726 24.99922066926956 Q 24.99529868364334 24.999091029167175 22.700601816177368 24.999219179153442" fill="none" stroke="black" stroke-width="0.9999787" /><path d="M 23.75074476003647 24.999216198921204 Q 22.173257172107697 24.999606609344482 20.596888661384583 24.999549984931946" fill="none" stroke="black" stroke-width="0.9999764" /><path d="M 22.710397839546204 24.999529123306274 Q 22.97082245349884 24.99920129776001 22.327610850334167 24.998965859413147" fill="none" stroke="black" stroke-width="0.99996585" /><path d="M 24.309436976909637 24.99944716691971 Q 24.916890263557434 24.99934434890747 24.930869042873383 24.999262392520905" fill="none" stroke="black" stroke-width="0.9999725" /><path d="M 24.971140921115875 24.999473989009857 Q 24.99205321073532 24.999263882637024 24.98350888490677 24.999527633190155" fill="none" stroke="black" stroke-width="0.9999583" /><path d="M 24.98028576374054 24.999473989009857 Q 24.992145597934723 24.999476969242096 24.986468255519867 24.999387562274933" fill="none" stroke="black" stroke-width="0.99996847" /><path d="M 24.991680681705475 24.999015033245087 Q 24.992191791534424 24.9989315867424 24.9825119972229 24.999305605888367" fill="none" stroke="black" stroke-width="0.99997085" /><path d="M 24.995367228984833 24.99951869249344 Q 24.995872378349304 24.998752772808075 24.992471933364868 24.999453127384186" fill="none" stroke="black" stroke-width="0.9999786" /><path d="M 24.995000660419464 24.99917298555374 Q 24.99547153711319 24.998962879180908 24.992400407791138 24.999363720417023" fill="none" stroke="black" stroke-width="0.9999288" /><path d="M 24.995973706245422 24.99939650297165 Q 24.995502829551697 24.99927133321762 24.993301928043365 24.999290704727173" fill="none" stroke="black" stroke-width="0.9998792" /><path d="M 24.99435842037201 24.999356269836426 Q 24.98880624771118 24.999572336673737 24.987569451332092 24.999085068702698" fill="none" stroke="black" stroke-width="0.9998311" /><path d="M 24.993261694908142 24.999254941940308 Q 24.993325769901276 24.999545514583588 24.99304860830307 24.99932199716568" fill="none" stroke="black" stroke-width="0.9998332" /><path d="M 24.989424645900726 24.999476969242096 Q 24.993732571601868 24.999164044857025 24.992872774600983 24.999147653579712" fill="none" stroke="black" stroke-width="0.99961585" /><path d="M 24.929018318653107 24.998995661735535 Q 24.90995228290558 24.998918175697327 24.745428562164307 24.999241530895233" fill="none" stroke="black" stroke-width="0.99894017" /><path d="M 24.129828810691833 24.999108910560608 Q 24.22039657831192 24.99903291463852 23.858357965946198 24.998600780963898" fill="none" stroke="black" stroke-width="0.9680907" /><path d="M 23.26018214225769 24.99876767396927 Q 23.38630110025406 24.998708069324493 22.231054306030273 24.998754262924194" fill="none" stroke="black" stroke-width="0.9139292" /><path d="M 21.150197088718414 24.999085068702698 Q 21.642467379570007 24.99864399433136 21.413828432559967 24.999195337295532" fill="none" stroke="black" stroke-width="0.81225204" /><path d="M 20.043136179447174 24.998506903648376 Q 20.07746696472168 24.998468160629272 19.58766281604767 24.998386204242706" fill="none" stroke="black" stroke-width="0.7945998" /><path d="M 17.92696863412857 24.996092915534973 Q 17.63661801815033 24.998068809509277 17.31012463569641 24.996916949748993" fill="none" stroke="black" stroke-width="0.67919993" /><path d="M 15.420746803283691 24.991311132907867 Q 14.691327512264252 24.99130815267563 14.340627193450928 24.989649653434753" fill="none" stroke="black" stroke-width="0.60646826" /><path d="M 13.38568776845932 24.989743530750275 Q 13.232538104057312 24.98195618391037 12.527243793010712 24.990975856781006" fill="none" stroke="black" stroke-width="0.5393262" /><path d="M 11.130336672067642 22.92463779449463 Q 11.100243777036667 23.23829084634781 11.32580116391182 22.100722789764404" fill="none" stroke="black" stroke-width="0.44545612" /><path d="M 8.745269477367401 19.98157650232315 Q 9.0705506503582 19.45929080247879 9.208091348409653 20.2165424823761" fill="none" stroke="black" stroke-width="0.36626717" /><path d="M 7.705889642238617 16.98315441608429 Q 7.37670361995697 16.628600656986237 7.730342447757721 16.12410694360733" fill="none" stroke="black" stroke-width="0.3220301" /><path d="M 5.979062989354134 14.818856120109558 Q 6.546667963266373 13.988189399242401 5.370202288031578 14.435797929763794" fill="none" stroke="black" stroke-width="0.2334396" /><path d="M 3.8888581097126007 12.66249269247055 Q 4.103374481201172 13.237151503562927 4.38280887901783 12.368960678577423" fill="none" stroke="black" stroke-width="0.16798583" /><path d="M 1.981617882847786 10.912501811981201 Q 2.0219191908836365 10.177480429410934 2.0648080855607986 11.041855067014694" fill="none" stroke="black" stroke-width="0.098232314" /><path d="M 0.20778535399585962 8.808665722608566 Q 0.18438297556713223 8.94748568534851 0.11639001313596964 7.9605817794799805" fill="none" stroke="black" stroke-width="0.036043543" /><path d="M 0.006539477180922404 7.040305435657501 Q 0.008406081906287 6.296323984861374 0.010694230877561495 6.186715513467789" fill="none" stroke="black" stroke-width="0.0018865742" /><path d="M 0.00597748403379228 4.849975183606148 Q 0.00955015784711577 4.74066436290741 0.006740738172084093 4.4155847281217575" fill="none" stroke="black" stroke-width="0.0002548465" /><path d="M 0.0019445233192527667 2.248326689004898 Q 0.0037967398384353146 3.1290773302316666 0.0034756700188154355 2.1935444325208664" fill="none" stroke="black" stroke-width="8.436184e-05" /><path d="M 0.0019865159629262052 1.8228806555271149 Q 0.0027804248020402156 1.4839875511825085 0.005203389446251094 0.49839960411190987" fill="none" stroke="black" stroke-width="7.3527226e-05" /><path d="M 0.0015455760149052367 0.009029811917571351 Q 0.0022361504306900315 0.02017891820287332 0.0014955115148040932 0.010853211279027164" fill="none" stroke="black" stroke-width="8.039676e-05" /><path d="M 0.001248172702617012 0.005481110201799311 Q 0.0019213044652133249 0.004749420622829348 0.001763015279721003 0.002862057226593606" fill="none" stroke="black" stroke-width="6.88382e-05" /><path d="M 0.0009866798791335896 0.002929971378762275 Q 0.0009977789886761457 0.0034338074328843504 0.0009755991413840093 0.0019729648556676693" fill="none" stroke="black" stroke-width="3.6109443e-05" /><path d="M 0.0009056047929334454 0.002826374111464247 Q 0.001396779316564789 0.0019610744857345708 0.0010951353942800779 0.003146570088574663" fill="none" stroke="black" stroke-width="5.0144008e-05" /><path d="M 0.0010526278856559657 0.0006713779839628842 Q 0.0021087484128656797 0.001179201717604883 0.0011693663509504404 0.0016672151105012745" fill="none" stroke="black" stroke-width="5.153762e-05" /><path d="M 0.0010875815860345028 0.0011487517440400552 Q 0.0006441228833864443 0.0014731979717907961 0.0010818116606969852 0.0016023295756895095" fill="none" stroke="black" stroke-width="4.2878117e-05" /><path d="M 0.0008394145879719872 0.0007465507678716676 Q 0.001053885353030637 0.0006614228823309531 0.0015262674423865974 0.000870168241817737" fill="none" stroke="black" stroke-width="4.3853146e-05" /><path d="M 0.0007029023436189163 0.0006158321866678307 Q 0.0007186675702541834 0.0013394479537964799 0.0008263475137937348 0.0018145834474125877" fill="none" stroke="black" stroke-width="3.6351266e-05" /><path d="M 0.0009146539014182054 0.0006926529295014916 Q 0.0007502441803808324 0.0014701329746458214 0.0008496735972585157 0.0017255199054488912" fill="none" stroke="black" stroke-width="3.021996e-05" /><path d="M 0.001518109638709575 0.000902494321053382 Q 0.0010654182915459387 0.0008945477020461112 0.0006693271188851213 0.0006261344879021635" fill="none" stroke="black" stroke-width="3.5375004e-05" /><path d="M 0.0005261104433884611 0.00100662518889294 Q 0.0006348933311528526 0.001013399196381215 0.0019412571418797597 0.000678523838359979" fill="none" stroke="black" stroke-width="4.3107797e-05" /><path d="M 0.0009310367204307113 0.0004871561486652354 Q 0.0008509319741278887 0.0011085036931035575 0.0010811526408360805 0.0005714563940273365" fill="none" stroke="black" stroke-width="2.8803037e-05" /><path d="M 0.0003297770945209777 0.0006783492153772386 Q 0.0007769089279463515 0.0007057920356601244 0.0006518223017337732 0.0009794574907573406" fill="none" stroke="black" stroke-width="5.1944837e-05" /><path d="M 0.0007774151526973583 0.000989090676739579 Q 0.00037152071854507085 0.0014124361769063398 0.0004455480848264415 0.0005391122158471262" fill="none" stroke="black" stroke-width="1.677488e-05" /><path d="M 0.0008831134437059518 0.0007970528713485692 Q 0.0009039206815941725 0.0007506192105211085 0.0006042276709194994 0.0007517016456404235" fill="none" stroke="black" stroke-width="1.8864515e-05" /><path d="M 0.0010979744729411323 0.0007177915449574357 Q 0.0007518708571296884 0.0008564386916987132 0.000817500585981179 0.0008266880286100786" fill="none" stroke="black" stroke-width="2.0325408e-05" /><path d="M 0.0009676924491941463 0.0004433774847711902 Q 0.0006575117367901839 0.0008725098268769216 0.0005916991540289018 0.0010236337402602658" fill="none" stroke="black" stroke-width="2.005596e-05" /><path d="M 0.0004802168859896483 0.0003055972456422751 Q 0.0005379874892241787 0.0006338122602755902 0.0007146700681914808 0.0005296029939927394" fill="none" stroke="black" stroke-width="2.3802102e-05" /><path d="M 0.0008848137440509163 0.0008064486792136449 Q 0.0013062756806903053 0.0007064485544105992 0.0008039414751692675 0.0009818058060773183" fill="none" stroke="black" stroke-width="2.1933842e-05" /><path d="M 0.0010315959116269369 0.0010943722372758202 Q 0.0007928726518002804 0.0006627621132793138 0.0008077047823462635 0.0008389951290155295" fill="none" stroke="black" stroke-width="3.0678286e-05" /><path d="M 0.0008367857844859827 0.0008566404176235665 Q 0.000849474236019887 0.0006469473646575352 0.0007367004400293808 0.001148409955931129" fill="none" stroke="black" stroke-width="3.25522e-05" /><path d="M 0.0008644331501272973 0.00046791556087555364 Q 0.0008735397386772092 0.0011668854313029442 0.0010732695045589935 0.001381716356263496" fill="none" stroke="black" stroke-width="4.9709844e-05" /><path d="M 0.0006885958555358229 0.0006600530468858778 Q 0.0009225958820024971 0.0006881743502162863 0.0005336059984983876 0.0005710772256861674" fill="none" stroke="black" stroke-width="2.0913994e-05" /><path d="M 0.0004934637217957061 0.0008712776434549596 Q 0.0010722269507823512 0.000532030253452831 0.001087956115952693 0.0008193331268557813" fill="none" stroke="black" stroke-width="3.207038e-05" /><path d="M 0.0004380332484288374 0.0006666382887487998 Q 0.0007463956990250153 0.0005337536094884854 0.0008043195521167945 0.0012596783562912606" fill="none" stroke="black" stroke-width="2.012336e-05" /><path d="M 0.000897782501851907 0.00034720708299573744 Q 0.0006169890639284858 0.0006684864274575375 0.0009147210221271962 0.0008359483217645902" fill="none" stroke="black" stroke-width="3.597845e-05" /><path d="M 0.0006652893716818653 0.0009884569408313837 Q 0.0005251054972177371 0.000734867580831633 0.0018138533050660044 0.0005460212832986144" fill="none" stroke="black" stroke-width="2.7645438e-05" /><path d="M 0.00059412209338916 0.0015549901945632882 Q 0.0006211138952494366 0.0009368320206704084 0.0010058593943540473 0.0010431265764054842" fill="none" stroke="black" stroke-width="5.8919097e-05" /><path d="M 0.0009921674973156769 0.0006407202818081714 Q 0.000741818621463608 0.0006677250439679483 0.001457427606510464 0.000891708168637706" fill="none" stroke="black" stroke-width="3.9313745e-05" /><path d="M 0.0005831534508615732 0.000690330307406839 Q 0.0005028292889619479 0.0010541959454712924 0.0008113099283946212 0.0007279005330929067" fill="none" stroke="black" stroke-width="3.5372977e-05" /><path d="M 0.0010269071026414167 0.0006038786068529589 Q 0.000577304217586061 0.0008899596650735475 0.0008586491276219022 0.0007055524292809423" fill="none" stroke="black" stroke-width="1.714818e-05" /><path d="M 0.0007938455382827669 0.0008511721716786269 Q 0.0007215270670712925 0.0007493898010579869 0.0009087634680327028 0.0008556786269764416" fill="none" stroke="black" stroke-width="1.5429483e-05" /><path d="M 0.0003939294401789084 0.0008123317456920631 Q 0.0007805121640558355 0.0011346425708325114 0.0011068062121921685 0.0007091187853802694" fill="none" stroke="black" stroke-width="3.561537e-05" /><path d="M 0.0004928777798340889 0.000899402039067354 Q 0.0015845120287849568 0.0007253871899592923 0.0007335457212320762 0.0008417007848038338" fill="none" stroke="black" stroke-width="2.188261e-05" /><path d="M 0.0007880669727455825 0.0005651501851389185 Q 0.0007674757398490328 0.0007247537723742425 0.0011957244169025216 0.0006781965112168109" fill="none" stroke="black" stroke-width="2.8617707e-05" /><path d="M 0.0006655933702859329 0.0007527073194069089 Q 0.0005464307378133526 0.0010435315743961837 0.00046191598812583834 0.0008326371244038455" fill="none" stroke="black" stroke-width="2.1708182e-05" /><path d="M 0.0007342896878981264 0.0005619969670078717 Q 0.0007232099505927181 0.0008279313078674022 0.0006611239314224804 0.0009479027539782692" fill="none" stroke="black" stroke-width="1.9403411e-05" /><path d="M 0.0008186005288735032 0.0005886020971956896 Q 0.001054662607202772 0.000691640980221564 0.0005943335054325871 0.0008541312126908451" fill="none" stroke="black" stroke-width="3.9076956e-05" /><path d="M 0.0006825996933912393 0.0008605985385656822 Q 0.0011351524335623253 0.0006526881861645961 0.0007610744432895444 0.0009340487849840429" fill="none" stroke="black" stroke-width="3.7733153e-05" /><path d="M 0.0005076044544694014 0.0007555408046755474 Q 0.00036594021821656497 0.0006550364560098387 0.0014410974472411908 0.0006302807832980761" fill="none" stroke="black" stroke-width="3.663095e-05" /><path d="M 0.00030839112241665134 0.0009133561434282456 Q 0.00044573889681487344 0.0007305431608983781 0.0006053350716683781 0.0007127602202672279" fill="none" stroke="black" stroke-width="2.8017597e-05" /><path d="M 0.00037959932797093643 0.0006850053068774287 Q 0.0011996155080851167 0.0005206629793974571 0.0007062815257086186 0.0008554533451388124" fill="none" stroke="black" stroke-width="3.6840476e-05" /><path d="M 0.0008770731255935971 0.000926977281778818 Q 0.0008216664355131797 0.0007627986633451656 0.0004250828624208225 0.0011670490493997931" fill="none" stroke="black" stroke-width="2.1362608e-05" /><path d="M 0.0007638440365553834 0.0007275313691934571 Q 0.0005804215561511228 0.0008552127837901935 0.0006264498551900033 0.0005570452685788041" fill="none" stroke="black" stroke-width="3.0560816e-05" /><path d="M 0.0009152594429906458 0.0010955302059301175 Q 0.0006796183242840925 0.0006537160516018048 0.0005770070401922567 0.000689888111082837" fill="none" stroke="black" stroke-width="2.8059792e-05" /><path d="M 0.0008842654096952174 0.0007022618319751928 Q 0.0005717332896892913 0.0007341602213273291 0.0006905093869136181 0.0009444775059819221" fill="none" stroke="black" stroke-width="3.3041986e-05" /><path d="M 0.0006518881946249167 0.0007384194304904668 Q 0.0007422601811413188 0.0015317571524064988 0.0006342016604321543 0.0006555651907547144" fill="none" stroke="black" stroke-width="3.0450963e-05" /><path d="M 0.0008923138011596166 0.0009554890311846975 Q 0.0010716278666222934 0.0007525537057517795 0.0008123991392494645 0.00038812709135527257" fill="none" stroke="black" stroke-width="2.3875853e-05" /><path d="M 0.0006966687124076998 0.00041021571632882114 Q 0.0006062068223400274 0.0007230547907965956 0.0007707675649726298 0.0005490948296937859" fill="none" stroke="black" stroke-width="2.9717972e-05" /><path d="M 0.0007363843451457797 0.0006430359462683555 Q 0.0009054174370248802 0.0006560474048455944 0.0007723238923063036 0.0015965626516845077" fill="none" stroke="black" stroke-width="2.256033e-05" /><path d="M 0.0009794957804842852 0.0008826807061268482 Q 0.0009124471034738235 0.0012369809155643452 0.0006311751803877996 0.0007406056283798534" fill="none" stroke="black" stroke-width="3.202695e-05" /><path d="M 0.0011720067050191574 0.0008702279956196435 Q 0.0009249411050404888 0.0012759820492647123 0.0010592457329039462 0.0006618557108595269" fill="none" stroke="black" stroke-width="3.1360167e-05" /><path d="M 0.0011090249245171435 0.0010472671419847757 Q 0.0011403179996705148 0.001022941887640627 0.0006789750386815285 0.0005293282811180688" fill="none" stroke="black" stroke-width="3.7304417e-05" /><path d="M 0.001060973409039434 0.0005105192030896433 Q 0.0005326095106283901 0.0006379966634995071 0.0007174855909397593 0.0005557511485676514" fill="none" stroke="black" stroke-width="3.308064e-05" /><path d="M 0.0006251655122468947 0.0007804421329637989 Q 0.001074834381142864 0.0009469539691053797 0.0005418574346549576 0.00046321247282321565" fill="none" stroke="black" stroke-width="1.4766149e-05" /><path d="M 0.0011293896932329517 0.0013530227079172619 Q 0.0006879014108562842 0.00038996208786556963 0.0010834738532139454 0.0015130424799281172" fill="none" stroke="black" stroke-width="5.3004922e-05" /><path d="M 0.001036514549923595 0.0007373738299065735 Q 0.0011534697478055023 0.0009294469236920122 0.0007196448677859735 0.0013150911399861798" fill="none" stroke="black" stroke-width="2.1380707e-05" /><path d="M 0.0006783647222619038 0.000517552143719513 Q 0.0009347999366582371 0.0005738467280025361 0.0008281263944809325 0.0009899559699988458" fill="none" stroke="black" stroke-width="3.2166496e-05" /><path d="M 0.0008098388207145035 0.0008048398740356788 Q 0.0006157141342555406 0.0008270428224932402 0.0008016318133741152 0.0011699384231178556" fill="none" stroke="black" stroke-width="2.2124275e-05" /><path d="M 0.0008201202945201658 0.0005223181233304786 Q 0.0007682680916332174 0.0008257377885456663 0.0006391902843461139 0.00044236726353119593" fill="none" stroke="black" stroke-width="2.6761703e-05" /><path d="M 0.0005386789780459367 0.0008752699613978621 Q 0.0007646798621863127 0.0006524118361994624 0.0007339649073401233 0.000518803335580742" fill="none" stroke="black" stroke-width="5.070295e-05" /><path d="M 0.000615263434156077 0.0006130395377113018 Q 0.0011105753401352558 0.0006450462478824193 0.0008991190043161623 0.0007213130629679654" fill="none" stroke="black" stroke-width="2.2108587e-05" /><path d="M 0.0007795487363182474 0.00047547760004817974 Q 0.001156661983259255 0.0009623428923077881 0.0004871324563282542 0.001149298441305291" fill="none" stroke="black" stroke-width="2.4199458e-05" /><path d="M 0.0007111103514034767 0.001005195917969104 Q 0.0007725183422735427 0.0009044389116752427 0.0006961931376281427 0.00044445150706451386" fill="none" stroke="black" stroke-width="3.272398e-05" /><path d="M 0.0006706894055241719 0.0007699618436163291 Q 0.0005030897682445357 0.000644215060674469 0.001249542401637882 0.0009481866072746925" fill="none" stroke="black" stroke-width="2.955574e-05" /><path d="M 0.0012687915841524955 0.00043287186599627603 Q 0.0007832971277821343 0.0008715434887562878 0.001104181046684971 0.000902427109394921" fill="none" stroke="black" stroke-width="2.8810784e-05" /><path d="M 0.0014840099538560025 0.0006793701231799787 Q 0.0008556647117075045 0.0010712908988352865 0.0017793343431549147 0.0006167549145175144" fill="none" stroke="black" stroke-width="3.5122823e-05" /></svg>