<?xml version="1.0" ?>
<svg height="140" width="140" xmlns="http://www.w3.org/2000/svg">
  <path d="M 27.3743839263916, 116.08520269393921 Q 27.110928838250985, 115.1655152335577, 26.987575292413666, 110.51607678750068 " fill="none" id="curve_1" stroke="#000000" stroke-linecap="round" stroke-linejoin="round" stroke-width="7.966767670022244"/>
  <path d="M 26.987575292413666, 110.51607678750068 Q 28.814799607056685, 101.2687123677263, 34.49042477266149, 89.49329478728191 " fill="none" id="curve_1" stroke="#000000" stroke-linecap="round" stroke-linejoin="round" stroke-width="7.0083670019385025"/>
  <path d="M 34.49042477266149, 89.49329478728191 Q 38.68887896275786, 81.80318789503856, 47.300778923001474, 61.380346609576264 " fill="none" id="curve_1" stroke="#000000" stroke-linecap="round" stroke-linejoin="round" stroke-width="4.420565785358314"/>
  <path d="M 47.300778923001474, 61.380346609576264 Q 47.72223823716473, 60.86966485543594, 47.76074798409041, 50.17875681232447 " fill="none" id="curve_1" stroke="#000000" stroke-linecap="round" stroke-linejoin="round" stroke-width="5.94970895286214"/>
  <path d="M 47.76074798409041, 50.17875681232447 Q 44.85661534841588, 48.72907868330857, 40.8107850785526, 46.78313607166801 " fill="none" id="curve_1" stroke="#000000" stroke-linecap="round" stroke-linejoin="round" stroke-width="5.754213903612666"/>
  <path d="M 40.8107850785526, 46.78313607166801 Q 26.832094139551703, 49.314099772530774, 21.929291701318157, 64.50868573716156 " fill="none" id="curve_1" stroke="#000000" stroke-linecap="round" stroke-linejoin="round" stroke-width="5.383184541987184"/>
  <path d="M 21.929291701318157, 64.50868573716156 Q 22.196660756667054, 51.76676807647875, 36.86380782124838, 50.95581743421695 " fill="none" id="curve_1" stroke="#000000" stroke-linecap="round" stroke-linejoin="round" stroke-width="3.064145290856996"/>
  <path d="M 49.671862241760465, 57.560429671283245 Q 49.31466132645834, 63.85829490596188, 46.719321675932335, 65.36920478459656 " fill="none" id="curve_2" stroke="#000000" stroke-linecap="round" stroke-linejoin="round" stroke-width="3.395930326540537"/>
  <path d="M 50.917718992481895, 53.60885669351917 Q 49.89969499433243, 55.29809273737924, 48.52438845094521, 59.12117342802343 " fill="none" id="curve_3" stroke="#000000" stroke-linecap="round" stroke-linejoin="round" stroke-width="2.396428567566485"/>
  <path d="M 67.47548185956221, 100.32682146659866 Q 64.58171078612345, 107.36117378061951, 46.22470101379787, 115.26261535174864 " fill="none" id="curve_4" stroke="#000000" stroke-linecap="round" stroke-linejoin="round" stroke-width="6.00179467469953"/>
  <path d="M 46.22470101379787, 115.26261535174864 Q 44.75479372489806, 117.56059390025082, 29.44135740649896, 117.85936745664037 " fill="none" id="curve_4" stroke="#000000" stroke-linecap="round" stroke-linejoin="round" stroke-width="6.237982785756369"/>
  <path d="M 58.646283644279166, 110.10582907584019 Q 60.169738143866056, 104.65123044159812, 68.75506375529918, 102.63921808560251 " fill="none" id="curve_5" stroke="#000000" stroke-linecap="round" stroke-linejoin="round" stroke-width="2.9944177308674504"/>
  <path d="M 45.04581086215248, 115.61231218912543 Q 36.3819883764683, 115.4433990338337, 26.898206977685224, 115.21935039743305 " fill="none" id="curve_6" stroke="#000000" stroke-linecap="round" stroke-linejoin="round" stroke-width="3.7395967506438117"/>
  <path d="M 45.31144586745635, 114.91353073995954 Q 42.9076426484521, 115.03374757729789, 41.02720106225777, 115.29851547571559 " fill="none" id="curve_7" stroke="#000000" stroke-linecap="round" stroke-linejoin="round" stroke-width="3.3323489786587013"/>
  <path d="M 62.831574147809036, 105.41260518005731 Q 57.855494440902106, 109.34712812493498, 49.75914766215503, 113.90837968387805 " fill="none" id="curve_8" stroke="#000000" stroke-linecap="round" stroke-linejoin="round" stroke-width="3.7148635962962944"/>
  <path d="M 22.678447733082876, 54.620070277067825 Q 24.596283851594706, 53.569281454923924, 28.11391198071557, 51.95249001452956 " fill="none" id="curve_10" stroke="#000000" stroke-linecap="round" stroke-linejoin="round" stroke-width="2.631708911503845"/>
  <path d="M 28.11391198071557, 51.95249001452956 Q 31.548680927739362, 48.400974770792246, 40.116925245968766, 45.8837365837783 " fill="none" id="curve_10" stroke="#000000" stroke-linecap="round" stroke-linejoin="round" stroke-width="3.147390859061001"/>
  <path d="M 90.16149022170814, 3.1820528045368093 Q 89.92307907825999, 2.4247363835092357, 89.07658146119363, 1.6717655943662233 " fill="none" id="curve_15" stroke="#000000" stroke-linecap="round" stroke-linejoin="round" stroke-width="2.4729437883202263"/>
  <path d="M 89.62681537378486, 2.0981480002704416 Q 89.49332856539478, 1.8616750229634695, 89.01906756053197, 1.558129539153852 " fill="none" id="curve_21" stroke="#000000" stroke-linecap="round" stroke-linejoin="round" stroke-width="1.7825437412655498"/>
  <path d="M 45.56576162420262, 47.96319364468944 Q 44.51927235219222, 46.664154472479794, 39.490803737264194, 45.747865065135514 " fill="none" id="curve_31" stroke="#000000" stroke-linecap="round" stroke-linejoin="round" stroke-width="3.3038789679888203"/>
</svg>
