<?xml version="1.0" ?>
<svg height="140" width="140" xmlns="http://www.w3.org/2000/svg">
  <path d="M 47.867605209350586, 63.99139404296875 Q 43.00673294098525, 70.62038834193874, 28.002041391949433, 95.19891094200375 " fill="none" id="curve_1" stroke="#000000" stroke-linecap="round" stroke-linejoin="round" stroke-width="5.371450254920064"/>
  <path d="M 28.002041391949433, 95.19891094200375 Q 24.25285997776807, 100.94103797890214, 19.61312368562995, 106.45944326149244 " fill="none" id="curve_1" stroke="#000000" stroke-linecap="round" stroke-linejoin="round" stroke-width="5.4317835581101965"/>
  <path d="M 19.61312368562995, 106.45944326149244 Q 29.324133348483745, 101.92514249053855, 53.930544750045115, 95.99005396945078 " fill="none" id="curve_1" stroke="#000000" stroke-linecap="round" stroke-linejoin="round" stroke-width="5.976066823269517"/>
  <path d="M 53.930544750045115, 95.99005396945078 Q 62.322524467915, 95.77899730874121, 64.66886325777091, 94.5835602673595 " fill="none" id="curve_1" stroke="#000000" stroke-linecap="round" stroke-linejoin="round" stroke-width="6.1161689628023685"/>
  <path d="M 49.41417943580939, 62.63984376395227 Q 55.223605734585114, 55.33509459736832, 61.045985137494725, 36.677894700177674 " fill="none" id="curve_2" stroke="#000000" stroke-linecap="round" stroke-linejoin="round" stroke-width="5.416811799415381"/>
  <path d="M 61.045985137494725, 36.677894700177674 Q 60.70876526877568, 19.97979404536575, 54.249333989605596, 17.694768549346296 " fill="none" id="curve_2" stroke="#000000" stroke-linecap="round" stroke-linejoin="round" stroke-width="5.3067290137571845"/>
  <path d="M 54.249333989605596, 17.694768549346296 Q 39.895336848933056, 20.57951307432391, 30.017621845908486, 46.25815587181799 " fill="none" id="curve_2" stroke="#000000" stroke-linecap="round" stroke-linejoin="round" stroke-width="4.76837892253845"/>
  <path d="M 30.017621845908486, 46.25815587181799 Q 31.912560205693175, 48.1474415204196, 33.27235526802891, 51.839958118839526 " fill="none" id="curve_2" stroke="#000000" stroke-linecap="round" stroke-linejoin="round" stroke-width="4.074183332069885"/>
  <path d="M 50.17978867462381, 61.843169705864256 Q 42.81825799249703, 70.59177093721556, 28.50537101346816, 89.29851580715463 " fill="none" id="curve_3" stroke="#000000" stroke-linecap="round" stroke-linejoin="round" stroke-width="3.634151358953808"/>
  <path d="M 44.83438691325401, 99.37653233897436 Q 58.322090038917274, 98.32024634015322, 63.20805496855571, 93.04986533910433 " fill="none" id="curve_4" stroke="#000000" stroke-linecap="round" stroke-linejoin="round" stroke-width="3.1327484000120323"/>
  <path d="M 47.501157493222166, 69.65844539179547 Q 41.901040245930446, 70.58778511103066, 38.95789722206575, 76.09289637809384 " fill="none" id="curve_5" stroke="#000000" stroke-linecap="round" stroke-linejoin="round" stroke-width="3.7695201271999235"/>
  <path d="M 52.827321626844544, 16.731309356344696 Q 50.592430420399154, 17.15531455535944, 47.953873796263544, 18.036496722479754 " fill="none" id="curve_7" stroke="#000000" stroke-linecap="round" stroke-linejoin="round" stroke-width="3.6317993820783014"/>
  <path d="M 59.10179933788646, 38.7638973034081 Q 58.656183711860606, 25.27598197967869, 54.3053746169019, 17.670675194509887 " fill="none" id="curve_22" stroke="#000000" stroke-linecap="round" stroke-linejoin="round" stroke-width="2.015543463520029"/>
  <path d="M 53.900200733734415, 49.530586355405916 Q 52.57889497557223, 56.2624743555308, 47.81629900789842, 61.52552499396325 " fill="none" id="curve_25" stroke="#000000" stroke-linecap="round" stroke-linejoin="round" stroke-width="3.3154835925564865"/>
  <path d="M 63.82301417721483, 93.67838595347249 Q 63.14494423216425, 93.60932026755829, 62.71538283840834, 93.32089680612988 " fill="none" id="curve_26" stroke="#000000" stroke-linecap="round" stroke-linejoin="round" stroke-width="4.829312813922349"/>
  <path d="M 62.71538283840834, 93.32089680612988 Q 64.09552810381, 94.14987578375006, 66.15240198834908, 95.11348428663203 " fill="none" id="curve_26" stroke="#000000" stroke-linecap="round" stroke-linejoin="round" stroke-width="4.091507861413089"/>
  <path d="M -2.0889170865272106, 120.50513889980269 Q -0.5963815859378672, 126.69688265301411, 1.1539072952405094, 137.123927043388 " fill="none" id="curve_31" stroke="#000000" stroke-linecap="round" stroke-linejoin="round" stroke-width="1.4508601515002961"/>
  <path d="M 42.049190292493655, 96.63245253392772 Q 37.53408103816006, 97.87263989750188, 32.630435904304704, 100.77743076887421 " fill="none" id="curve_34" stroke="#000000" stroke-linecap="round" stroke-linejoin="round" stroke-width="2.5041961855185426"/>
  <path d="M 36.602982481408766, 78.14662933884502 Q 40.97787298994515, 72.7468310902309, 48.44140261611709, 65.79250286393489 " fill="none" id="curve_35" stroke="#000000" stroke-linecap="round" stroke-linejoin="round" stroke-width="3.563556174151007"/>
  <path d="M 27.364419099616274, 93.93665964770449 Q 26.43601533909047, 94.06990006522437, 25.884746000188468, 94.58755703678439 " fill="none" id="curve_36" stroke="#000000" stroke-linecap="round" stroke-linejoin="round" stroke-width="4.217656297493291"/>
  <path d="M 45.997760109348505, 66.66178330230119 Q 43.112148155053774, 69.97258047189491, 39.67597896610167, 74.007804100718 " fill="none" id="curve_38" stroke="#000000" stroke-linecap="round" stroke-linejoin="round" stroke-width="3.864252392060657"/>
  <path d="M 2.4038432738705495, 2.733789404870123 Q 1.9615650606367339, 2.631455768117307, 1.1780898349730602, 2.4807750736740557 " fill="none" id="curve_41" stroke="#000000" stroke-linecap="round" stroke-linejoin="round" stroke-width="2.4444305900458625"/>
  <path d="M 48.02044425887636, 22.608757595995694 Q 38.007881585205055, 23.703093082149522, 34.54862526139857, 32.71615633783135 " fill="none" id="curve_43" stroke="#000000" stroke-linecap="round" stroke-linejoin="round" stroke-width="2.405746262870011"/>
  <path d="M 60.2015475994122, 91.75263588032314 Q 60.01618950711619, 93.46936266787472, 57.31322627240657, 93.80455734105675 " fill="none" id="curve_45" stroke="#000000" stroke-linecap="round" stroke-linejoin="round" stroke-width="3.612750174089862"/>
  <path d="M 48.70095294898496, 64.48644547634238 Q 45.43559787867029, 66.33498364301677, 42.221516094440936, 72.64233435658544 " fill="none" id="curve_52" stroke="#000000" stroke-linecap="round" stroke-linejoin="round" stroke-width="3.413302869923391"/>
  <path d="M 40.04734188137871, 73.9602674803806 Q 40.79803481232845, 72.37263754102199, 43.66650915848444, 71.4924067837535 " fill="none" id="curve_56" stroke="#000000" stroke-linecap="round" stroke-linejoin="round" stroke-width="3.6146676076966915"/>
  <path d="M 18.047157287597656, 107.30973815917969 Q 18.008504372273848, 106.68456597898864, 17.90867698324358, 106.10036602360692 " fill="none" id="curve_70" stroke="#000000" stroke-linecap="round" stroke-linejoin="round" stroke-width="3.0441283191452335"/>
  <path d="M 41.52801857305626, 73.93943166907795 Q 42.58631003950638, 71.3353878366428, 44.03453778794021, 67.59697529913988 " fill="none" id="curve_86" stroke="#000000" stroke-linecap="round" stroke-linejoin="round" stroke-width="2.6933236013939843"/>
  <path d="M 59.53595076010716, 35.15620613104936 Q 60.88329722536462, 32.232263548824506, 62.523345487936496, 27.68399712544324 " fill="none" id="curve_88" stroke="#000000" stroke-linecap="round" stroke-linejoin="round" stroke-width="2.369365984405723"/>
  <path d="M 49.05388418036088, 63.65296545009694 Q 47.910753852790634, 63.348334762737565, 45.84654982770514, 62.887539535679146 " fill="none" id="curve_89" stroke="#000000" stroke-linecap="round" stroke-linejoin="round" stroke-width="2.5375931623403885"/>
  <path d="M 43.45519927413544, 72.9651548647571 Q 42.052199932581566, 72.34099364625796, 39.91162331637891, 71.24006704787237 " fill="none" id="curve_117" stroke="#000000" stroke-linecap="round" stroke-linejoin="round" stroke-width="2.695492094056968"/>
  <path d="M 61.912655980210616, 95.63108643386623 Q 63.91951801905053, 94.39210183666891, 65.61383529539415, 92.02051330101322 " fill="none" id="curve_118" stroke="#000000" stroke-linecap="round" stroke-linejoin="round" stroke-width="2.7038860551711075"/>
  <path d="M 18.340392431122044, 106.89220798542004 Q 18.28507067268135, 106.7569156170382, 18.20025539749225, 106.61475577893538 " fill="none" id="curve_121" stroke="#000000" stroke-linecap="round" stroke-linejoin="round" stroke-width="3.6007605259711926"/>
  <path d="M 48.695778977980964, 65.47062907213058 Q 49.09090180846935, 64.24258777833099, 51.250246533000606, 63.623846542186506 " fill="none" id="curve_123" stroke="#000000" stroke-linecap="round" stroke-linejoin="round" stroke-width="2.7474661481371454"/>
</svg>
