<?xml version="1.0" ?>
<svg height="140" width="140" xmlns="http://www.w3.org/2000/svg">
  <path d="M 56.09642791748047, 22.982515335083008 Q 47.55834740459602, 25.309898483261776, 31.638685094991274, 42.97107020060787 " fill="none" id="curve_1" stroke="#000000" stroke-linecap="round" stroke-linejoin="round" stroke-width="5.172850331055451"/>
  <path d="M 31.638685094991274, 42.97107020060787 Q 30.034842058623788, 47.29651741996561, 28.58964933975686, 52.69239523679567 " fill="none" id="curve_1" stroke="#000000" stroke-linecap="round" stroke-linejoin="round" stroke-width="3.9161983235011077"/>
  <path d="M 57.771527837036686, 51.8816209180817 Q 55.701460838185845, 61.687730387717025, 44.158809642394644, 79.9753824479588 " fill="none" id="curve_2" stroke="#000000" stroke-linecap="round" stroke-linejoin="round" stroke-width="4.896578180839094"/>
  <path d="M 44.158809642394644, 79.9753824479588 Q 39.86709182382239, 87.92620287160629, 25.385826681411533, 108.58359876220106 " fill="none" id="curve_2" stroke="#000000" stroke-linecap="round" stroke-linejoin="round" stroke-width="4.394960747604574"/>
  <path d="M 25.385826681411533, 108.58359876220106 Q 19.32748106712024, 118.28216112031848, 8.374211368403373, 133.43895413518408 " fill="none" id="curve_2" stroke="#000000" stroke-linecap="round" stroke-linejoin="round" stroke-width="4.753919441438053"/>
  <path d="M 8.374211368403373, 133.43895413518408 Q 20.23145285689859, 128.36366775748235, 37.73082798177151, 120.61469594315852 " fill="none" id="curve_2" stroke="#000000" stroke-linecap="round" stroke-linejoin="round" stroke-width="4.272564543918992"/>
  <path d="M 37.73082798177151, 120.61469594315852 Q 53.110303097828385, 121.47982036969523, 60.2270592212333, 123.60152808463329 " fill="none" id="curve_2" stroke="#000000" stroke-linecap="round" stroke-linejoin="round" stroke-width="4.4063287665238215"/>
  <path d="M 45.16358694236081, 121.35037204123283 Q 29.470596539337688, 122.54217643828284, 18.73260541275363, 127.22883114435466 " fill="none" id="curve_4" stroke="#000000" stroke-linecap="round" stroke-linejoin="round" stroke-width="2.786129575928177"/>
  <path d="M 62.06435076066322, 124.27610697683582 Q 61.090469055624744, 123.64535329061027, 58.74116242370134, 122.99978173287259 " fill="none" id="curve_5" stroke="#000000" stroke-linecap="round" stroke-linejoin="round" stroke-width="2.84724657577714"/>
  <path d="M 58.766284181135774, 52.47513787043346 Q 59.981825297564946, 44.890837972040046, 62.65724659652184, 38.23170014056785 " fill="none" id="curve_9" stroke="#000000" stroke-linecap="round" stroke-linejoin="round" stroke-width="4.635745448004356"/>
  <path d="M 62.65724659652184, 38.23170014056785 Q 62.58432239718672, 25.410491028646938, 58.761001089028895, 24.742133708986817 " fill="none" id="curve_9" stroke="#000000" stroke-linecap="round" stroke-linejoin="round" stroke-width="4.911234283274392"/>
  <path d="M 58.761001089028895, 24.742133708986817 Q 41.825863339449384, 25.281410014708136, 38.768604440366076, 35.32930190200226 " fill="none" id="curve_9" stroke="#000000" stroke-linecap="round" stroke-linejoin="round" stroke-width="3.49829498272754"/>
  <path d="M 53.150609183991875, 59.34282381714995 Q 51.33883315662518, 66.79164637034512, 46.59065645666259, 72.76759298237556 " fill="none" id="curve_10" stroke="#000000" stroke-linecap="round" stroke-linejoin="round" stroke-width="2.5239483709052553"/>
  <path d="M 54.74481575865888, 58.02573080144862 Q 56.22384561721411, 52.10269735901863, 59.77556322464483, 47.04234332905751 " fill="none" id="curve_11" stroke="#000000" stroke-linecap="round" stroke-linejoin="round" stroke-width="2.7456896269358277"/>
  <path d="M 54.88432333360944, 24.046770238596014 Q 48.85283490827646, 25.720870119032917, 44.76935555342965, 31.55995486223984 " fill="none" id="curve_12" stroke="#000000" stroke-linecap="round" stroke-linejoin="round" stroke-width="2.5365319670154087"/>
  <path d="M 53.44702624043747, 23.51876004437117 Q 51.12228570262823, 24.126645208211787, 49.82315139763254, 26.515506576401894 " fill="none" id="curve_13" stroke="#000000" stroke-linecap="round" stroke-linejoin="round" stroke-width="3.567924828715641"/>
  <path d="M 90.06173218402752, 1.95023147580131 Q 89.93728937991843, 1.8934584864920554, 89.67776897215592, 1.8034975809352094 " fill="none" id="curve_14" stroke="#000000" stroke-linecap="round" stroke-linejoin="round" stroke-width="2.003893386182482"/>
  <path d="M 48.82835476860174, 122.30594389769416 Q 48.689073347751716, 119.9720685644188, 45.6401975103943, 119.6360058817807 " fill="none" id="curve_19" stroke="#000000" stroke-linecap="round" stroke-linejoin="round" stroke-width="3.9646867772031347"/>
  <path d="M 25.589824945200768, 107.26866057142833 Q 19.739555357571568, 115.96148524637475, 9.868698591561412, 129.84254075296275 " fill="none" id="curve_20" stroke="#000000" stroke-linecap="round" stroke-linejoin="round" stroke-width="2.4953621922384865"/>
  <path d="M 38.89926227456619, 86.21097899334724 Q 40.17207614580759, 84.66570460115086, 41.99296761161236, 82.88012692872351 " fill="none" id="curve_22" stroke="#000000" stroke-linecap="round" stroke-linejoin="round" stroke-width="2.968058703622268"/>
  <path d="M 61.57510884299402, 42.728850912148424 Q 61.49268946210893, 41.16140184080618, 61.20077716144663, 39.0464773221195 " fill="none" id="curve_24" stroke="#000000" stroke-linecap="round" stroke-linejoin="round" stroke-width="2.5911939146280822"/>
  <path d="M 32.34786296690575, 122.34722217986732 Q 30.26072553768562, 122.22483992747738, 28.544662116286975, 121.73373054915785 " fill="none" id="curve_28" stroke="#000000" stroke-linecap="round" stroke-linejoin="round" stroke-width="2.084108996441502"/>
  <path d="M 28.544662116286975, 121.73373054915785 Q 30.78782176023619, 122.31329425934706, 34.84003583456707, 122.97399753137684 " fill="none" id="curve_28" stroke="#000000" stroke-linecap="round" stroke-linejoin="round" stroke-width="3.5020742281840667"/>
  <path d="M 55.44108618395509, 60.694729975706736 Q 56.43807263993286, 57.56923884146772, 58.75891085097341, 54.770004911889984 " fill="none" id="curve_62" stroke="#000000" stroke-linecap="round" stroke-linejoin="round" stroke-width="3.2118817496795784"/>
  <path d="M 11.946196542778061, 133.01251146613149 Q 11.732443769721996, 132.8486681489465, 11.224181441775798, 132.72407018649915 " fill="none" id="curve_79" stroke="#000000" stroke-linecap="round" stroke-linejoin="round" stroke-width="4.060945693853073"/>
  <path d="M 34.68487247274382, 122.8722119274165 Q 34.19063404579439, 123.0630837362258, 33.67323973588198, 123.47217203334674 " fill="none" id="curve_81" stroke="#000000" stroke-linecap="round" stroke-linejoin="round" stroke-width="3.3799758219134644"/>
  <path d="M 49.902598793484195, 119.93827290453025 Q 46.240538083709474, 120.29360330065468, 39.6531413791771, 120.8192362610601 " fill="none" id="curve_87" stroke="#000000" stroke-linecap="round" stroke-linejoin="round" stroke-width="2.8088371511063475"/>
</svg>
