<?xml version="1.0" ?>
<svg height="140" width="140" xmlns="http://www.w3.org/2000/svg">
  <path d="M 49.93020820617676, 25.123340606689453 Q 46.714737904523716, 25.252823886164464, 41.62183712144508, 25.624259077524407 " fill="none" id="curve_1" stroke="#000000" stroke-linecap="round" stroke-linejoin="round" stroke-width="7.265478421619382"/>
  <path d="M 41.62183712144508, 25.624259077524407 Q 35.39283842454843, 30.728759009735278, 23.79053990581076, 48.58306851641957 " fill="none" id="curve_1" stroke="#000000" stroke-linecap="round" stroke-linejoin="round" stroke-width="6.140246039270953"/>
  <path d="M 23.79053990581076, 48.58306851641957 Q 23.152138664070065, 58.40502122822606, 21.08828564782672, 61.98491652823275 " fill="none" id="curve_1" stroke="#000000" stroke-linecap="round" stroke-linejoin="round" stroke-width="4.7374121647272345"/>
  <path d="M 48.420623968300674, 46.698424932702025 Q 46.92004847451738, 58.81382077660538, 40.38566941088572, 82.85495207917364 " fill="none" id="curve_2" stroke="#000000" stroke-linecap="round" stroke-linejoin="round" stroke-width="5.101873718224399"/>
  <path d="M 40.38566941088572, 82.85495207917364 Q 38.15513350684467, 94.05751724771544, 31.014879227818035, 119.72834963253393 " fill="none" id="curve_2" stroke="#000000" stroke-linecap="round" stroke-linejoin="round" stroke-width="5.2480857866494866"/>
  <path d="M 31.014879227818035, 119.72834963253393 Q 30.88552020863897, 125.31689019894081, 30.466418738952196, 128.44702146251663 " fill="none" id="curve_2" stroke="#000000" stroke-linecap="round" stroke-linejoin="round" stroke-width="4.8702787883488385"/>
  <path d="M 30.466418738952196, 128.44702146251663 Q 46.81570934914794, 125.14873847766177, 72.03069416316326, 115.57621630320861 " fill="none" id="curve_2" stroke="#000000" stroke-linecap="round" stroke-linejoin="round" stroke-width="4.729546493339585"/>
  <path d="M 72.03069416316326, 115.57621630320861 Q 74.74977247774403, 115.3618513835237, 76.08126846287556, 114.60784036356131 " fill="none" id="curve_2" stroke="#000000" stroke-linecap="round" stroke-linejoin="round" stroke-width="4.24783652766195"/>
  <path d="M 48.77124512706609, 42.92692181331676 Q 50.06711459889595, 42.08821788945986, 50.225208966678146, 29.18087571645995 " fill="none" id="curve_4" stroke="#000000" stroke-linecap="round" stroke-linejoin="round" stroke-width="6.304460344100511"/>
  <path d="M 50.225208966678146, 29.18087571645995 Q 48.059170243813895, 25.967483326079776, 44.65174760084986, 22.368486317638286 " fill="none" id="curve_4" stroke="#000000" stroke-linecap="round" stroke-linejoin="round" stroke-width="3.5569501950328495"/>
  <path d="M 52.03706043789008, 36.77082040624483 Q 46.73010168040422, 43.18009092971727, 43.6508911026019, 70.63475978189555 " fill="none" id="curve_5" stroke="#000000" stroke-linecap="round" stroke-linejoin="round" stroke-width="2.834219095595967"/>
  <path d="M 43.6508911026019, 70.63475978189555 Q 41.68071980461676, 76.03627896815527, 39.99777425120004, 84.44548664292878 " fill="none" id="curve_5" stroke="#000000" stroke-linecap="round" stroke-linejoin="round" stroke-width="4.115581059578068"/>
  <path d="M 39.99777425120004, 84.44548664292878 Q 41.612674689804855, 71.00470502114271, 46.57410326481629, 61.3089967439249 " fill="none" id="curve_5" stroke="#000000" stroke-linecap="round" stroke-linejoin="round" stroke-width="3.5318664007908067"/>
  <path d="M 24.170877693028977, 43.207335219769675 Q 29.738354957982672, 38.03754941514987, 36.1375605382152, 29.242197723640505 " fill="none" id="curve_7" stroke="#000000" stroke-linecap="round" stroke-linejoin="round" stroke-width="2.7531349758404016"/>
  <path d="M 52.763947178945216, 33.472615289153204 Q 51.613418163263454, 33.535139604723206, 50.439438052342794, 33.67255895479617 " fill="none" id="curve_8" stroke="#000000" stroke-linecap="round" stroke-linejoin="round" stroke-width="3.4030305875373417"/>
  <path d="M 44.56387707566212, 73.28700367707654 Q 41.921091246372654, 80.07514956902989, 37.46906945928157, 88.79482485863313 " fill="none" id="curve_9" stroke="#000000" stroke-linecap="round" stroke-linejoin="round" stroke-width="2.9076993102807016"/>
  <path d="M 29.073814405818837, 126.00450508486131 Q 29.466372435048427, 124.27448134379145, 30.19643725521509, 122.03003237700283 " fill="none" id="curve_10" stroke="#000000" stroke-linecap="round" stroke-linejoin="round" stroke-width="3.132260976946402"/>
  <path d="M 31.103820570330697, 126.97542586049536 Q 30.41453233369187, 126.18373970246772, 29.26367077970866, 125.15967519206913 " fill="none" id="curve_16" stroke="#000000" stroke-linecap="round" stroke-linejoin="round" stroke-width="4.569331722669627"/>
  <path d="M 53.56244497279177, 121.31048456915582 Q 49.36988732554439, 125.08238844857405, 36.81120493536406, 128.1529644982677 " fill="none" id="curve_18" stroke="#000000" stroke-linecap="round" stroke-linejoin="round" stroke-width="3.2249898335832428"/>
  <path d="M 38.03610184457211, 91.06176537657049 Q 34.59769244261919, 98.2299736218206, 31.87369634776549, 121.55932780819863 " fill="none" id="curve_20" stroke="#000000" stroke-linecap="round" stroke-linejoin="round" stroke-width="2.1966412542321225"/>
  <path d="M 31.25185956391561, 118.84066779878412 Q 33.91525407944034, 117.73590050933501, 34.57094295610894, 109.9593829921734 " fill="none" id="curve_29" stroke="#000000" stroke-linecap="round" stroke-linejoin="round" stroke-width="2.9448327815192394"/>
  <path d="M 27.932774996401488, 123.65523648867276 Q 28.765147450759695, 123.57400513907565, 29.274899992998606, 123.24903547001904 " fill="none" id="curve_30" stroke="#000000" stroke-linecap="round" stroke-linejoin="round" stroke-width="2.6557174916542596"/>
  <path d="M 56.58696858123294, 120.63402952902292 Q 46.46659842224739, 122.86197753324646, 37.10548428551067, 127.53114297019881 " fill="none" id="curve_31" stroke="#000000" stroke-linecap="round" stroke-linejoin="round" stroke-width="2.8955101933654617"/>
  <path d="M 65.1771514261921, 118.01103262453559 Q 52.45633768872484, 120.07769816752591, 43.16532103630584, 127.0226336608237 " fill="none" id="curve_34" stroke="#000000" stroke-linecap="round" stroke-linejoin="round" stroke-width="2.6819613193260006"/>
  <path d="M 20.43060817007827, 59.857224327463996 Q 20.596779392099794, 56.029120906310744, 21.689340965030457, 54.14051973775861 " fill="none" id="curve_36" stroke="#000000" stroke-linecap="round" stroke-linejoin="round" stroke-width="2.6710203197801965"/>
  <path d="M 47.03181409875072, 42.467087634501866 Q 47.921375294825104, 41.37628870508497, 48.84896600007634, 39.40789011705603 " fill="none" id="curve_52" stroke="#000000" stroke-linecap="round" stroke-linejoin="round" stroke-width="3.523699810513723"/>
  <path d="M 34.58222775573208, 29.44369488332927 Q 34.28691115622, 29.99110168771604, 33.66047376711428, 31.0095838362248 " fill="none" id="curve_93" stroke="#000000" stroke-linecap="round" stroke-linejoin="round" stroke-width="2.783682483737559"/>
  <path d="M 41.776233448697496, 80.47282697073615 Q 41.79612899354804, 82.6316658503237, 41.97921867741884, 83.10152753038999 " fill="none" id="curve_134" stroke="#000000" stroke-linecap="round" stroke-linejoin="round" stroke-width="3.5004283583220714"/>
  <path d="M 42.084146314542274, 67.49746825921682 Q 42.88541733789121, 64.21446878311602, 44.941671764523534, 61.325340671559466 " fill="none" id="curve_135" stroke="#000000" stroke-linecap="round" stroke-linejoin="round" stroke-width="2.2834374481491877"/>
  <path d="M 49.23335286832324, 32.493513522407 Q 48.10558275969122, 30.67177917958715, 46.89820384279258, 27.495414068591096 " fill="none" id="curve_136" stroke="#000000" stroke-linecap="round" stroke-linejoin="round" stroke-width="2.358834764025878"/>
</svg>
