<?xml version="1.0" ?>
<svg height="140" width="140" xmlns="http://www.w3.org/2000/svg">
  <path d="M 67.68599319458008, 80.7176650762558 Q 68.60170945830889, 80.60571458738359, 69.34400632377645, 80.20627749484649 " fill="none" id="curve_1" stroke="#000000" stroke-linecap="round" stroke-linejoin="round" stroke-width="5.528254253750039"/>
  <path d="M 69.34400632377645, 80.20627749484649 Q 63.09928264123359, 82.0698700869352, 50.64691137101268, 86.91729350658923 " fill="none" id="curve_1" stroke="#000000" stroke-linecap="round" stroke-linejoin="round" stroke-width="3.976456624904225"/>
  <path d="M 50.64691137101268, 86.91729350658923 Q 43.4035269123949, 89.8475390458863, 31.176685182031907, 95.20822536494829 " fill="none" id="curve_1" stroke="#000000" stroke-linecap="round" stroke-linejoin="round" stroke-width="5.696436478343452"/>
  <path d="M 31.176685182031907, 95.20822536494829 Q 26.09478213832144, 95.84671409172776, 15.250552491933869, 96.21047360655606 " fill="none" id="curve_1" stroke="#000000" stroke-linecap="round" stroke-linejoin="round" stroke-width="6.366862777407854"/>
  <path d="M 15.250552491933869, 96.21047360655606 Q 16.542605077321458, 77.25159602663845, 31.314686847610098, 64.10483734844266 " fill="none" id="curve_1" stroke="#000000" stroke-linecap="round" stroke-linejoin="round" stroke-width="5.89175444385358"/>
  <path d="M 31.314686847610098, 64.10483734844266 Q 40.38614059235933, 56.49763790105548, 51.378732136431424, 32.34023964575157 " fill="none" id="curve_1" stroke="#000000" stroke-linecap="round" stroke-linejoin="round" stroke-width="4.479841792976659"/>
  <path d="M 51.378732136431424, 32.34023964575157 Q 37.665777754970264, 32.39634900534342, 32.2341574440354, 32.98325574132023 " fill="none" id="curve_1" stroke="#000000" stroke-linecap="round" stroke-linejoin="round" stroke-width="3.8658403083184405"/>
  <path d="M 32.2341574440354, 32.98325574132023 Q 21.608051445579605, 36.99624328358587, 12.500597256429103, 44.41761393128269 " fill="none" id="curve_1" stroke="#000000" stroke-linecap="round" stroke-linejoin="round" stroke-width="4.4559436261875165"/>
  <path d="M 37.595582431791144, 30.91707313048707 Q 41.2126545219074, 30.395413453500314, 50.28716447263318, 30.031589145915355 " fill="none" id="curve_2" stroke="#000000" stroke-linecap="round" stroke-linejoin="round" stroke-width="3.314103808989539"/>
  <path d="M 15.711438090737168, 47.8929761179776 Q 14.971393689957885, 45.47546149326064, 11.588372348559481, 44.61452681745632 " fill="none" id="curve_3" stroke="#000000" stroke-linecap="round" stroke-linejoin="round" stroke-width="3.738067305890271"/>
  <path d="M 49.04796649156107, 84.23588320963421 Q 46.85561766110413, 87.75384642662748, 39.49599791673495, 90.64087440399655 " fill="none" id="curve_4" stroke="#000000" stroke-linecap="round" stroke-linejoin="round" stroke-width="3.640141637454156"/>
  <path d="M 39.49599791673495, 90.64087440399655 Q 45.12829994433738, 87.43188029559464, 53.55927135569062, 83.66791753641841 " fill="none" id="curve_4" stroke="#000000" stroke-linecap="round" stroke-linejoin="round" stroke-width="2.861495926539929"/>
  <path d="M 16.24121678934656, 79.82095211429751 Q 13.677422654431522, 84.81442272299762, 12.173189813160247, 96.08863057062808 " fill="none" id="curve_6" stroke="#000000" stroke-linecap="round" stroke-linejoin="round" stroke-width="3.354190956296496"/>
  <path d="M 18.536292000199985, 97.72280663986835 Q 20.292100165772425, 94.4197396448557, 29.020859835932693, 93.28006344701103 " fill="none" id="curve_7" stroke="#000000" stroke-linecap="round" stroke-linejoin="round" stroke-width="3.6882257843428996"/>
  <path d="M 44.57984152038131, 47.55543914862746 Q 47.87682191922003, 45.01007268135063, 49.212205664293506, 36.46398243997682 " fill="none" id="curve_9" stroke="#000000" stroke-linecap="round" stroke-linejoin="round" stroke-width="4.698806578163279"/>
  <path d="M 36.49705288758704, 30.420229064107208 Q 33.96120701951902, 31.827645948578112, 29.643748357800202, 33.619763734652935 " fill="none" id="curve_12" stroke="#000000" stroke-linecap="round" stroke-linejoin="round" stroke-width="2.910170772166921"/>
  <path d="M 47.24233159393749, 39.76349754162341 Q 42.96075683758726, 48.68076341902977, 32.59053291871918, 62.03038149210391 " fill="none" id="curve_14" stroke="#000000" stroke-linecap="round" stroke-linejoin="round" stroke-width="2.6910377668809145"/>
  <path d="M 32.59053291871918, 62.03038149210391 Q 28.288473472810523, 63.761635727477824, 24.56907772481984, 70.71309898441545 " fill="none" id="curve_14" stroke="#000000" stroke-linecap="round" stroke-linejoin="round" stroke-width="3.3631303570186817"/>
  <path d="M 47.3779305012697, 36.81918489138798 Q 46.372430833074915, 40.074728686929745, 44.433775064449854, 43.70799203873874 " fill="none" id="curve_29" stroke="#000000" stroke-linecap="round" stroke-linejoin="round" stroke-width="2.9882832291521995"/>
  <path d="M 14.687872740369604, 41.602448390594006 Q 13.67117497554642, 42.12557712845348, 12.513171265377984, 43.45398015510887 " fill="none" id="curve_52" stroke="#000000" stroke-linecap="round" stroke-linejoin="round" stroke-width="2.6642479791746325"/>
  <path d="M 40.383770900409274, 30.010886335106825 Q 37.08775979981606, 30.377460544460785, 32.550364741990926, 31.387968720951662 " fill="none" id="curve_76" stroke="#000000" stroke-linecap="round" stroke-linejoin="round" stroke-width="2.665920045056971"/>
  <path d="M 65.82802357624337, 82.5648353682639 Q 65.94741323630114, 82.09417538871827, 66.07544999702054, 81.30307274041083 " fill="none" id="curve_91" stroke="#000000" stroke-linecap="round" stroke-linejoin="round" stroke-width="5.023574367684544"/>
  <path d="M 17.46709058628067, 79.0882668319148 Q 23.77765066342559, 76.95881882200173, 27.456121567937224, 69.70182959123909 " fill="none" id="curve_93" stroke="#000000" stroke-linecap="round" stroke-linejoin="round" stroke-width="2.783632754536963"/>
</svg>
