<?xml version="1.0" ?>
<svg height="140" width="140" xmlns="http://www.w3.org/2000/svg">
  <path d="M 15.044779777526855, 31.470625400543213 Q 6.806546326337404, 32.99230736766505, 3.8948893068325674, 43.06439592814229 " fill="none" id="curve_1" stroke="#000000" stroke-linecap="round" stroke-linejoin="round" stroke-width="3.543798777562182"/>
  <path d="M 3.8948893068325674, 43.06439592814229 Q 4.550531130884866, 44.45934244693887, 5.275574688840276, 46.29233486065404 " fill="none" id="curve_1" stroke="#000000" stroke-linecap="round" stroke-linejoin="round" stroke-width="3.5664251827003626"/>
  <path d="M 13.075917327120337, 32.30673372477865 Q 21.63176249721247, 30.51389933414565, 31.654641325142975, 28.20927508755973 " fill="none" id="curve_2" stroke="#000000" stroke-linecap="round" stroke-linejoin="round" stroke-width="4.383740643503535"/>
  <path d="M 31.654641325142975, 28.20927508755973 Q 51.25766294896833, 28.343553944861323, 51.888473521399135, 37.33885840049233 " fill="none" id="curve_2" stroke="#000000" stroke-linecap="round" stroke-linejoin="round" stroke-width="4.514260662469053"/>
  <path d="M 51.888473521399135, 37.33885840049233 Q 50.50685649478533, 52.76520233290454, 35.68678756940271, 65.8492922697396 " fill="none" id="curve_2" stroke="#000000" stroke-linecap="round" stroke-linejoin="round" stroke-width="5.062567796871366"/>
  <path d="M 35.68678756940271, 65.8492922697396 Q 29.321906289814738, 72.6177680029837, 16.720846956593483, 90.87660027519803 " fill="none" id="curve_2" stroke="#000000" stroke-linecap="round" stroke-linejoin="round" stroke-width="3.844311312001323"/>
  <path d="M 16.720846956593483, 90.87660027519803 Q 16.789714301490495, 103.1145195815323, 18.70992387617927, 103.93991218012823 " fill="none" id="curve_2" stroke="#000000" stroke-linecap="round" stroke-linejoin="round" stroke-width="4.8458228281845495"/>
  <path d="M 18.70992387617927, 103.93991218012823 Q 36.92558473532863, 103.31289413037405, 50.522853472538856, 99.1466126289584 " fill="none" id="curve_2" stroke="#000000" stroke-linecap="round" stroke-linejoin="round" stroke-width="4.64910529893933"/>
  <path d="M 50.522853472538856, 99.1466126289584 Q 52.48447170557135, 98.73964986837642, 64.52569029379977, 98.62922924074805 " fill="none" id="curve_2" stroke="#000000" stroke-linecap="round" stroke-linejoin="round" stroke-width="3.866291474670229"/>
  <path d="M 64.52569029379977, 98.62922924074805 Q 61.10069750799119, 98.19795685172056, 54.34310991013432, 97.76713921613475 " fill="none" id="curve_2" stroke="#000000" stroke-linecap="round" stroke-linejoin="round" stroke-width="2.3521504696378606"/>
  <path d="M 14.247751926781774, 101.26182735342181 Q 16.29566851342117, 90.45915948019453, 23.489262253554443, 80.51774390247662 " fill="none" id="curve_3" stroke="#000000" stroke-linecap="round" stroke-linejoin="round" stroke-width="2.3574278356641543"/>
  <path d="M 8.16701085526711, 35.384858570837665 Q 14.563436706786081, 33.81180949517163, 19.083248946539356, 29.827237949829957 " fill="none" id="curve_5" stroke="#000000" stroke-linecap="round" stroke-linejoin="round" stroke-width="2.8111922036675243"/>
  <path d="M 41.65281133402563, 27.107232679428634 Q 48.2519440448177, 28.11407562974029, 50.59056435639313, 31.55387648519909 " fill="none" id="curve_6" stroke="#000000" stroke-linecap="round" stroke-linejoin="round" stroke-width="2.308189344786744"/>
  <path d="M 50.59056435639313, 31.55387648519909 Q 49.87263593292979, 47.60904034814603, 43.729674944925726, 54.37474012035049 " fill="none" id="curve_6" stroke="#000000" stroke-linecap="round" stroke-linejoin="round" stroke-width="2.359609636725285"/>
  <path d="M 24.753521967864355, 76.99339757037538 Q 20.52174199830492, 81.40403505544458, 16.837219358405655, 90.17584955564752 " fill="none" id="curve_7" stroke="#000000" stroke-linecap="round" stroke-linejoin="round" stroke-width="2.9761294619808196"/>
  <path d="M 26.49192236040077, 105.36091188243671 Q 27.52493321663244, 104.94965762093024, 28.60508138453184, 104.30669633886662 " fill="none" id="curve_8" stroke="#000000" stroke-linecap="round" stroke-linejoin="round" stroke-width="3.0858346050266454"/>
  <path d="M 39.573290008107634, 59.19122798600533 Q 41.39872226361522, 57.84017971345604, 43.69592792216695, 55.44188540041051 " fill="none" id="curve_10" stroke="#000000" stroke-linecap="round" stroke-linejoin="round" stroke-width="2.690312327852305"/>
  <path d="M 29.62456327583974, 28.877150373388655 Q 15.84707630804093, 30.36858790089511, 6.263366565584743, 36.19600045987032 " fill="none" id="curve_15" stroke="#000000" stroke-linecap="round" stroke-linejoin="round" stroke-width="2.2006577565231233"/>
  <path d="M 28.593650282472645, 29.370748968295345 Q 27.4319167599879, 29.213614866345022, 25.83853690344412, 28.994580248484137 " fill="none" id="curve_17" stroke="#000000" stroke-linecap="round" stroke-linejoin="round" stroke-width="3.2349214358948277"/>
  <path d="M 21.10994909869057, 85.85932222787717 Q 19.487312162496945, 92.14874949066125, 14.769588530000766, 96.11715256351852 " fill="none" id="curve_33" stroke="#000000" stroke-linecap="round" stroke-linejoin="round" stroke-width="3.128429167962897"/>
  <path d="M 40.90219238078597, 100.31013903429495 Q 40.29873105908391, 100.39221768913112, 39.49045480802355, 100.53178854273278 " fill="none" id="curve_34" stroke="#000000" stroke-linecap="round" stroke-linejoin="round" stroke-width="3.4009250090738177"/>
  <path d="M 50.67892760066446, 39.86691982634666 Q 50.24176049720289, 36.883261368168014, 49.13254731046299, 34.758482283392944 " fill="none" id="curve_36" stroke="#000000" stroke-linecap="round" stroke-linejoin="round" stroke-width="3.3412482956136316"/>
  <path d="M 23.290493722391602, 29.6203773495763 Q 18.358352607527635, 30.530850859406375, 12.727311442072784, 32.9938131375144 " fill="none" id="curve_51" stroke="#000000" stroke-linecap="round" stroke-linejoin="round" stroke-width="2.598221752235354"/>
  <path d="M 19.15717546081568, 32.18781368684952 Q 18.4677872946649, 31.88225932939102, 17.661467027731224, 31.20596656662411 " fill="none" id="curve_92" stroke="#000000" stroke-linecap="round" stroke-linejoin="round" stroke-width="2.815600160244946"/>
  <path d="M 21.952718014694256, 28.99317238582671 Q 22.935578444777487, 28.736578357716404, 25.18910782010439, 28.52958836895213 " fill="none" id="curve_107" stroke="#000000" stroke-linecap="round" stroke-linejoin="round" stroke-width="2.536471333819344"/>
  <path d="M 34.918345620627505, 102.05227680148909 Q 38.0689357467296, 100.95955110147462, 45.646506429607754, 100.05719210780441 " fill="none" id="curve_112" stroke="#000000" stroke-linecap="round" stroke-linejoin="round" stroke-width="2.1470649456574264"/>
  <path d="M 42.299997673242615, 100.65209476733548 Q 42.1648177888803, 99.8475210348244, 41.77497844026446, 99.35961625398183 " fill="none" id="curve_127" stroke="#000000" stroke-linecap="round" stroke-linejoin="round" stroke-width="3.6965214262727937"/>
</svg>
