<?xml version="1.0" ?>
<svg height="140" width="140" xmlns="http://www.w3.org/2000/svg">
  <path d="M 42.20117378234863, 40.27656173706055 Q 41.19638382384583, 38.213130708111095, 38.79808703226423, 34.46906343055571 " fill="none" id="curve_1" stroke="#000000" stroke-linecap="round" stroke-linejoin="round" stroke-width="4.444681347977797"/>
  <path d="M 38.79808703226423, 34.46906343055571 Q 30.15587240022265, 36.580171286974426, 25.48997666673141, 43.268630466329576 " fill="none" id="curve_1" stroke="#000000" stroke-linecap="round" stroke-linejoin="round" stroke-width="4.717691632573528"/>
  <path d="M 40.9026676175374, 40.13455554578671 Q 39.803054808075636, 54.58995665097673, 30.572438213481316, 69.3926380217422 " fill="none" id="curve_2" stroke="#000000" stroke-linecap="round" stroke-linejoin="round" stroke-width="5.437913959579113"/>
  <path d="M 30.572438213481316, 69.3926380217422 Q 27.834407472545294, 77.52476620317363, 25.624070031916176, 88.97201467224043 " fill="none" id="curve_2" stroke="#000000" stroke-linecap="round" stroke-linejoin="round" stroke-width="6.491642108076469"/>
  <path d="M 25.624070031916176, 88.97201467224043 Q 28.149220607382272, 93.17665470483306, 41.83007650174122, 94.00533417488413 " fill="none" id="curve_2" stroke="#000000" stroke-linecap="round" stroke-linejoin="round" stroke-width="6.088302054338638"/>
  <path d="M 41.83007650174122, 94.00533417488413 Q 56.44149033925244, 92.05367733131261, 65.25335230129714, 87.94287740456224 " fill="none" id="curve_2" stroke="#000000" stroke-linecap="round" stroke-linejoin="round" stroke-width="4.033484965310731"/>
  <path d="M 88.99727244598844, 85.63959760562535 Q 89.46247884146422, 85.45711931202199, 89.82488641756538, 84.94008444722334 " fill="none" id="curve_3" stroke="#000000" stroke-linecap="round" stroke-linejoin="round" stroke-width="2.151104064248191"/>
  <path d="M 38.0781625167816, 36.88512111293207 Q 39.01719458647827, 39.17091047446176, 39.455410143387276, 45.93909560305336 " fill="none" id="curve_6" stroke="#000000" stroke-linecap="round" stroke-linejoin="round" stroke-width="3.241464962070137"/>
  <path d="M 32.180861436000235, 36.696109035996415 Q 26.621810220452552, 37.65656378898137, 25.362207671558426, 44.067129655315235 " fill="none" id="curve_7" stroke="#000000" stroke-linecap="round" stroke-linejoin="round" stroke-width="2.98415864938159"/>
  <path d="M 36.47737770206808, 53.738575285002014 Q 34.82427210910101, 57.60942273727643, 32.63919273910453, 64.40093223530229 " fill="none" id="curve_8" stroke="#000000" stroke-linecap="round" stroke-linejoin="round" stroke-width="2.320517495134884"/>
  <path d="M 26.276180885816668, 85.16672740122668 Q 25.46318248826928, 84.7201713327744, 24.53861753401667, 83.98529868053647 " fill="none" id="curve_13" stroke="#000000" stroke-linecap="round" stroke-linejoin="round" stroke-width="3.889923679032667"/>
  <path d="M 37.74099018523946, 93.75142557302014 Q 41.85639478775277, 92.72749425334534, 50.44062154640038, 91.86524757793455 " fill="none" id="curve_18" stroke="#000000" stroke-linecap="round" stroke-linejoin="round" stroke-width="2.9744962992776105"/>
  <path d="M 66.88162770044303, 88.50539845855133 Q 64.87446290612594, 88.56475045200683, 62.17248887984878, 88.72546744423171 " fill="none" id="curve_26" stroke="#000000" stroke-linecap="round" stroke-linejoin="round" stroke-width="2.4905910554883843"/>
  <path d="M 89.42147518679819, 2.016538961589662 Q 89.44407305907875, 5.033580724357612, 89.47330733507168, 10.408870225446385 " fill="none" id="curve_37" stroke="#000000" stroke-linecap="round" stroke-linejoin="round" stroke-width="1.5263695606191463"/>
  <path d="M 89.04364369227392, 1.9076583444956068 Q 88.80038602508688, 1.5321428837700095, 88.3399993524551, 1.237984360227279 " fill="none" id="curve_38" stroke="#000000" stroke-linecap="round" stroke-linejoin="round" stroke-width="2.940043055895061"/>
  <path d="M 30.461051460936986, 38.32170536461899 Q 32.21437326521367, 36.75334025792983, 35.60502583814511, 35.30651917957901 " fill="none" id="curve_53" stroke="#000000" stroke-linecap="round" stroke-linejoin="round" stroke-width="4.392525810824362"/>
  <path d="M 55.84205636371202, 89.80083118074094 Q 58.309034116883694, 89.66156600665032, 60.88380417437411, 89.30349563277763 " fill="none" id="curve_62" stroke="#000000" stroke-linecap="round" stroke-linejoin="round" stroke-width="2.877802070006626"/>
  <path d="M 37.31739626030595, 51.89778087591852 Q 37.479504829603506, 50.79163191949465, 37.963681878314496, 48.858741354927744 " fill="none" id="curve_63" stroke="#000000" stroke-linecap="round" stroke-linejoin="round" stroke-width="2.3287463217472246"/>
  <path d="M 29.989322459596227, 38.7947325449871 Q 32.24772716221587, 36.97428219546496, 36.491533640157186, 35.46365300097476 " fill="none" id="curve_79" stroke="#000000" stroke-linecap="round" stroke-linejoin="round" stroke-width="3.6342879730127033"/>
  <path d="M 32.000952813539925, 90.42643420383021 Q 30.15018883468009, 88.16778522897711, 24.577803727132224, 86.7923661049716 " fill="none" id="curve_95" stroke="#000000" stroke-linecap="round" stroke-linejoin="round" stroke-width="3.2340697971149877"/>
  <path d="M 39.23589650551723, 92.67831773577146 Q 40.90369812389748, 92.24764037367146, 44.65144732937629, 91.90873120506023 " fill="none" id="curve_128" stroke="#000000" stroke-linecap="round" stroke-linejoin="round" stroke-width="2.9434531760413494"/>
</svg>
