<?xml version="1.0" ?>
<svg height="140" width="140" xmlns="http://www.w3.org/2000/svg">
  <path d="M 68.54647445678711, 77.17521667480469 Q 67.40983162836326, 77.74082363099545, 64.27381725778105, 78.56207383385947 " fill="none" id="curve_1" stroke="#000000" stroke-linecap="round" stroke-linejoin="round" stroke-width="4.595878560864154"/>
  <path d="M 64.27381725778105, 78.56207383385947 Q 59.28094187853962, 80.15165220769342, 45.014927944257515, 82.47505207487032 " fill="none" id="curve_1" stroke="#000000" stroke-linecap="round" stroke-linejoin="round" stroke-width="4.542247366952889"/>
  <path d="M 45.014927944257515, 82.47505207487032 Q 44.09805394775511, 84.84768190583418, 25.579061426625824, 85.08792840736349 " fill="none" id="curve_1" stroke="#000000" stroke-linecap="round" stroke-linejoin="round" stroke-width="5.848119940773451"/>
  <path d="M 25.579061426625824, 85.08792840736349 Q 16.95238314184718, 84.9008209183603, 16.016904848455447, 81.19216843467942 " fill="none" id="curve_1" stroke="#000000" stroke-linecap="round" stroke-linejoin="round" stroke-width="4.887524926351131"/>
  <path d="M 16.016904848455447, 81.19216843467942 Q 20.098907909005877, 71.0957846893804, 40.91740896382831, 58.75488279940805 " fill="none" id="curve_1" stroke="#000000" stroke-linecap="round" stroke-linejoin="round" stroke-width="5.173168334730086"/>
  <path d="M 40.91740896382831, 58.75488279940805 Q 49.053423533543835, 54.21405851026128, 54.736921029127885, 42.81346579103524 " fill="none" id="curve_1" stroke="#000000" stroke-linecap="round" stroke-linejoin="round" stroke-width="4.7224582555256145"/>
  <path d="M 54.736921029127885, 42.81346579103524 Q 54.25066055470175, 34.71733873728006, 47.804455352606325, 33.521982067096054 " fill="none" id="curve_1" stroke="#000000" stroke-linecap="round" stroke-linejoin="round" stroke-width="5.162248933361623"/>
  <path d="M 47.804455352606325, 33.521982067096054 Q 26.299388783804083, 33.91383339907114, 21.563546831900414, 45.366167663899475 " fill="none" id="curve_1" stroke="#000000" stroke-linecap="round" stroke-linejoin="round" stroke-width="4.810520636317848"/>
  <path d="M 21.563546831900414, 45.366167663899475 Q 21.353170803956644, 49.313681744467054, 20.149489704688552, 50.348965651252016 " fill="none" id="curve_1" stroke="#000000" stroke-linecap="round" stroke-linejoin="round" stroke-width="3.209630828474624"/>
  <path d="M 17.192706714129844, 75.17573619397886 Q 21.437778604818433, 72.48305421353696, 28.6774074375886, 67.81040035293564 " fill="none" id="curve_2" stroke="#000000" stroke-linecap="round" stroke-linejoin="round" stroke-width="2.746941648642316"/>
  <path d="M 69.50491782263958, 76.90916239551417 Q 70.5597789211829, 76.90651073975876, 70.9553832917602, 76.8882954098598 " fill="none" id="curve_3" stroke="#000000" stroke-linecap="round" stroke-linejoin="round" stroke-width="3.7158709589936856"/>
  <path d="M 50.70062482656992, 45.58708764868301 Q 48.259605200269725, 53.62374423229081, 37.00503199432597, 59.234833065121144 " fill="none" id="curve_4" stroke="#000000" stroke-linecap="round" stroke-linejoin="round" stroke-width="2.6692172561371055"/>
  <path d="M 48.677261615308694, 35.36118808523072 Q 48.93684799488301, 37.06788605331336, 53.899649680549715, 37.31657263802349 " fill="none" id="curve_5" stroke="#000000" stroke-linecap="round" stroke-linejoin="round" stroke-width="3.009473563365829"/>
  <path d="M 38.92503865853446, 32.450155527338204 Q 31.72642942164514, 33.230731710599116, 28.94112631575474, 37.46289473928342 " fill="none" id="curve_6" stroke="#000000" stroke-linecap="round" stroke-linejoin="round" stroke-width="2.3146840289024193"/>
  <path d="M 53.85655637513319, 49.10770324324485 Q 53.67981926704435, 42.381948799882075, 53.14815573382635, 37.79468528115658 " fill="none" id="curve_8" stroke="#000000" stroke-linecap="round" stroke-linejoin="round" stroke-width="2.53819654676319"/>
  <path d="M 53.14815573382635, 37.79468528115658 Q 52.93679664164683, 39.986641009269015, 52.71227356832607, 43.171941782147485 " fill="none" id="curve_8" stroke="#000000" stroke-linecap="round" stroke-linejoin="round" stroke-width="3.39984606715807"/>
  <path d="M 43.39527214247896, 81.00735003044612 Q 40.918112058666864, 83.17552122324088, 28.646284061151054, 84.40868375374247 " fill="none" id="curve_9" stroke="#000000" stroke-linecap="round" stroke-linejoin="round" stroke-width="2.2688495340859607"/>
  <path d="M 19.901751358176778, 72.07019069472716 Q 16.187268497617275, 74.71058770780866, 13.925425543335685, 80.54804686454088 " fill="none" id="curve_10" stroke="#000000" stroke-linecap="round" stroke-linejoin="round" stroke-width="2.8403541457177273"/>
  <path d="M 13.925425543335685, 80.54804686454088 Q 19.852704251378967, 82.85087858220692, 33.017956059775884, 84.09305928273415 " fill="none" id="curve_10" stroke="#000000" stroke-linecap="round" stroke-linejoin="round" stroke-width="2.19402557645287"/>
  <path d="M 24.199397416587146, 70.12354961740381 Q 27.20418962125415, 67.83199360853477, 34.82733363950428, 65.36473855528396 " fill="none" id="curve_12" stroke="#000000" stroke-linecap="round" stroke-linejoin="round" stroke-width="2.508219208905011"/>
  <path d="M 18.84165166936603, 72.05939240653872 Q 22.33119219301081, 70.37247518326033, 27.66566917216349, 68.56207443666484 " fill="none" id="curve_13" stroke="#000000" stroke-linecap="round" stroke-linejoin="round" stroke-width="2.742318836178611"/>
  <path d="M 38.75293923419931, 82.63459889146623 Q 37.88165796986167, 82.90571524072172, 36.869829280689295, 83.37907776311033 " fill="none" id="curve_14" stroke="#000000" stroke-linecap="round" stroke-linejoin="round" stroke-width="3.733924198856629"/>
  <path d="M 53.464981579209834, 38.745960895029555 Q 54.52191116428353, 38.18641909863143, 55.401690656610405, 36.85315708149788 " fill="none" id="curve_21" stroke="#000000" stroke-linecap="round" stroke-linejoin="round" stroke-width="3.29378310416536"/>
  <path d="M 45.80590094027541, 35.0727498500818 Q 46.49629122505574, 35.698617330246655, 48.371732785079395, 36.122867980049485 " fill="none" id="curve_66" stroke="#000000" stroke-linecap="round" stroke-linejoin="round" stroke-width="3.264138312304518"/>
  <path d="M 20.335464154848616, 85.5096140336171 Q 21.2902526270744, 85.47924856256918, 22.587326159945654, 85.41839606513776 " fill="none" id="curve_75" stroke="#000000" stroke-linecap="round" stroke-linejoin="round" stroke-width="2.8562402041022117"/>
  <path d="M 47.154021402365885, 80.82366438617122 Q 47.568770717628915, 80.63767784944604, 48.09312316625672, 80.27883303874417 " fill="none" id="curve_117" stroke="#000000" stroke-linecap="round" stroke-linejoin="round" stroke-width="2.5958762754542737"/>
</svg>
