<?xml version="1.0" ?>
<svg height="140" width="140" xmlns="http://www.w3.org/2000/svg">
  <path d="M 24.39660882949829, 35.76529407501221 Q 20.872040722369196, 35.97751418431244, 20.677660627660003, 44.4333186692196 " fill="none" id="curve_1" stroke="#000000" stroke-linecap="round" stroke-linejoin="round" stroke-width="6.901355066187397"/>
  <path d="M 20.677660627660003, 44.4333186692196 Q 20.801480177859563, 36.820713553314214, 21.72725274461659, 34.466885175924695 " fill="none" id="curve_1" stroke="#000000" stroke-linecap="round" stroke-linejoin="round" stroke-width="4.301607212362488"/>
  <path d="M 21.72725274461659, 34.466885175924695 Q 30.166272717918133, 34.129040875198214, 36.441760753268646, 33.444167347146454 " fill="none" id="curve_1" stroke="#000000" stroke-linecap="round" stroke-linejoin="round" stroke-width="6.765649104373666"/>
  <path d="M 36.441760753268646, 33.444167347146454 Q 55.53751877196439, 33.945647075416666, 57.88417316702281, 39.98699578537216 " fill="none" id="curve_1" stroke="#000000" stroke-linecap="round" stroke-linejoin="round" stroke-width="5.519682311321492"/>
  <path d="M 57.88417316702281, 39.98699578537216 Q 52.32535119163716, 48.85611401814793, 35.567924228327065, 73.96533818973268 " fill="none" id="curve_1" stroke="#000000" stroke-linecap="round" stroke-linejoin="round" stroke-width="5.057289980759797"/>
  <path d="M 35.567924228327065, 73.96533818973268 Q 33.13622767979798, 81.22552849101292, 31.622532885254476, 93.50293205927485 " fill="none" id="curve_1" stroke="#000000" stroke-linecap="round" stroke-linejoin="round" stroke-width="4.591962527156577"/>
  <path d="M 31.622532885254476, 93.50293205927485 Q 35.569805261795096, 97.81575062539055, 54.86649382514444, 98.7934900405616 " fill="none" id="curve_1" stroke="#000000" stroke-linecap="round" stroke-linejoin="round" stroke-width="7.4672408284447"/>
  <path d="M 54.86649382514444, 98.7934900405616 Q 82.82178981474587, 98.37825029629583, 86.70554410093733, 92.76493602178222 " fill="none" id="curve_1" stroke="#000000" stroke-linecap="round" stroke-linejoin="round" stroke-width="5.750813772629095"/>
  <path d="M 86.70554410093733, 92.76493602178222 Q 85.906808763688, 92.58766278032401, 85.29330731490913, 92.09697464591372 " fill="none" id="curve_1" stroke="#000000" stroke-linecap="round" stroke-linejoin="round" stroke-width="4.937189780363822"/>
  <path d="M 54.61828697878942, 45.2030689002997 Q 48.26939279591539, 52.578116096701436, 37.88277948219198, 66.02749617176839 " fill="none" id="curve_2" stroke="#000000" stroke-linecap="round" stroke-linejoin="round" stroke-width="2.862273486181057"/>
  <path d="M 59.37731170654297, 45.28671741485596 Q 53.96139063496399, 47.45500821998847, 45.687480544209734, 52.090599928743586 " fill="none" id="curve_16" stroke="#000000" stroke-linecap="round" stroke-linejoin="round" stroke-width="2.4041144752586545"/>
  <path d="M 33.95874557409212, 92.28155350729875 Q 39.19011578160888, 94.16151069459156, 41.7006255900185, 98.83101631506257 " fill="none" id="curve_18" stroke="#000000" stroke-linecap="round" stroke-linejoin="round" stroke-width="3.5442442798224807"/>
  <path d="M 76.9912541263727, 94.69753676488033 Q 82.5964379607176, 94.0987548115646, 85.46351305311605, 92.44139172155029 " fill="none" id="curve_19" stroke="#000000" stroke-linecap="round" stroke-linejoin="round" stroke-width="3.895353876736174"/>
  <path d="M 41.68634066331829, 71.44633849837254 Q 39.966603656524555, 70.65208878626466, 36.24428352436273, 69.90674639528356 " fill="none" id="curve_20" stroke="#000000" stroke-linecap="round" stroke-linejoin="round" stroke-width="6.046060824978721"/>
  <path d="M 50.04749474176033, 34.69859034769106 Q 47.64028802230376, 32.79648224900425, 29.1313438496791, 31.707464029338603 " fill="none" id="curve_21" stroke="#000000" stroke-linecap="round" stroke-linejoin="round" stroke-width="2.6384925287267516"/>
  <path d="M 53.96866740308259, 34.19143574781551 Q 50.78237830731527, 33.084882038068756, 37.17642700133047, 32.192248069558296 " fill="none" id="curve_22" stroke="#000000" stroke-linecap="round" stroke-linejoin="round" stroke-width="2.531986989864173"/>
  <path d="M 24.03558659462633, 33.825845075534446 Q 24.678092203356, 34.0174126618437, 25.568000946407427, 34.427884530664855 " fill="none" id="curve_23" stroke="#000000" stroke-linecap="round" stroke-linejoin="round" stroke-width="3.8926170162346465"/>
  <path d="M 88.39097213745117, 92.9930419921875 Q 88.17800408501897, 89.88323201390807, 86.44906449938385, 88.77789106457723 " fill="none" id="curve_37" stroke="#000000" stroke-linecap="round" stroke-linejoin="round" stroke-width="2.241313518437315"/>
  <path d="M 60.06844972681714, 96.70840832294714 Q 64.27645773417719, 96.23919511049127, 73.99677848683872, 95.34903536522269 " fill="none" id="curve_41" stroke="#000000" stroke-linecap="round" stroke-linejoin="round" stroke-width="2.714087061264663"/>
  <path d="M 55.776368134267926, 37.992673749819026 Q 55.90599138455147, 41.014833737551804, 56.11402427684987, 44.56663323191296 " fill="none" id="curve_45" stroke="#000000" stroke-linecap="round" stroke-linejoin="round" stroke-width="3.785105094911504"/>
  <path d="M 47.569841875284524, 99.52822892976594 Q 42.79289499008642, 99.41064688430792, 39.8775112487425, 98.99224661950511 " fill="none" id="curve_50" stroke="#000000" stroke-linecap="round" stroke-linejoin="round" stroke-width="3.8904669847647457"/>
  <path d="M 27.88620164784873, 33.16080961336441 Q 25.838964729840164, 34.34264001090411, 22.903207581027132, 35.86088607693134 " fill="none" id="curve_52" stroke="#000000" stroke-linecap="round" stroke-linejoin="round" stroke-width="5.641699791815107"/>
  <path d="M 27.88812904977607, 35.80142920498804 Q 24.830204137309334, 36.363280923649235, 21.873754755862144, 37.53817004134906 " fill="none" id="curve_80" stroke="#000000" stroke-linecap="round" stroke-linejoin="round" stroke-width="2.6652554501593966"/>
  <path d="M 31.612491802734944, 89.06037202848549 Q 31.458236776339486, 88.04654800609678, 31.140329730137854, 86.87754516794375 " fill="none" id="curve_99" stroke="#000000" stroke-linecap="round" stroke-linejoin="round" stroke-width="3.314141785475734"/>
  <path d="M 45.248059333687145, 54.49634089025053 Q 45.762418381413696, 54.01661264960289, 46.63109581750265, 53.30417493321804 " fill="none" id="curve_115" stroke="#000000" stroke-linecap="round" stroke-linejoin="round" stroke-width="2.98973123757737"/>
  <path d="M 41.86386851620565, 32.709835707060705 Q 48.529419034148646, 33.72231382492559, 56.84239822914837, 35.12270180783574 " fill="none" id="curve_157" stroke="#000000" stroke-linecap="round" stroke-linejoin="round" stroke-width="2.062130653606025"/>
  <path d="M 41.43511828985011, 32.18496234153914 Q 43.64146679482795, 32.549464666296075, 46.116533204102765, 33.37012909642453 " fill="none" id="curve_161" stroke="#000000" stroke-linecap="round" stroke-linejoin="round" stroke-width="2.741022520158025"/>
</svg>
