<?xml version="1.0" ?>
<svg height="140" width="140" xmlns="http://www.w3.org/2000/svg">
  <path d="M 58.77057475303786, 88.46422948621544 Q 56.90965856872299, 89.02315173209283, 45.03397544446733, 89.22771770476639 " fill="none" id="curve_2" stroke="#000000" stroke-linecap="round" stroke-linejoin="round" stroke-width="7.674502990460744"/>
  <path d="M 45.03397544446733, 89.22771770476639 Q 33.51853265369609, 89.23892253090554, 22.786016450839774, 89.26931748515138 " fill="none" id="curve_2" stroke="#000000" stroke-linecap="round" stroke-linejoin="round" stroke-width="5.3273811912724724"/>
  <path d="M 22.786016450839774, 89.26931748515138 Q 31.085559098459132, 82.5785318351279, 44.58677640680743, 64.70178440429876 " fill="none" id="curve_2" stroke="#000000" stroke-linecap="round" stroke-linejoin="round" stroke-width="4.184249450129346"/>
  <path d="M 44.58677640680743, 64.70178440429876 Q 43.392771279985226, 54.152209127758795, 30.962130454997457, 51.044219890193695 " fill="none" id="curve_2" stroke="#000000" stroke-linecap="round" stroke-linejoin="round" stroke-width="5.662128817494323"/>
  <path d="M 30.962130454997457, 51.044219890193695 Q 19.482398584542572, 51.68038312074445, 18.295509087921253, 64.44788932785059 " fill="none" id="curve_2" stroke="#000000" stroke-linecap="round" stroke-linejoin="round" stroke-width="4.75815830836491"/>
  <path d="M 38.37529810442237, 53.50668379166768 Q 41.55920735506382, 56.50948105838963, 42.33118714654816, 70.0661894472218 " fill="none" id="curve_3" stroke="#000000" stroke-linecap="round" stroke-linejoin="round" stroke-width="3.31708565425738"/>
  <path d="M 43.62146331647687, 56.46943193235901 Q 39.006511616979694, 53.24730084665948, 27.88576472649615, 49.85615475217321 " fill="none" id="curve_4" stroke="#000000" stroke-linecap="round" stroke-linejoin="round" stroke-width="2.5620394892001843"/>
  <path d="M 27.88576472649615, 49.85615475217321 Q 23.838905666733357, 53.096526465767006, 17.396063182334977, 57.23929490395168 " fill="none" id="curve_4" stroke="#000000" stroke-linecap="round" stroke-linejoin="round" stroke-width="2.990744827712559"/>
  <path d="M 31.033863691872654, 50.32588473611642 Q 36.836723826622155, 51.779502959555785, 40.57522449534147, 58.531953455874486 " fill="none" id="curve_5" stroke="#000000" stroke-linecap="round" stroke-linejoin="round" stroke-width="2.6618670739700256"/>
  <path d="M 40.57522449534147, 58.531953455874486 Q 38.72584676936417, 53.015425802213066, 32.08207960777723, 49.50022343438608 " fill="none" id="curve_5" stroke="#000000" stroke-linecap="round" stroke-linejoin="round" stroke-width="2.9786328022312474"/>
  <path d="M 46.006765984875486, 87.86128542594636 Q 44.87769333953918, 87.03988322899178, 30.338111974527393, 86.8484837422127 " fill="none" id="curve_7" stroke="#000000" stroke-linecap="round" stroke-linejoin="round" stroke-width="2.499139173468164"/>
  <path d="M 43.80595768336969, 67.06794272107503 Q 38.42966455173709, 73.80508324220617, 26.299939958139532, 83.62268192170681 " fill="none" id="curve_8" stroke="#000000" stroke-linecap="round" stroke-linejoin="round" stroke-width="2.5968603990351715"/>
  <path d="M 18.819790897785943, 60.54144376934201 Q 18.887595225093026, 64.0687810032437, 19.0716064002985, 66.40880742178646 " fill="none" id="curve_10" stroke="#000000" stroke-linecap="round" stroke-linejoin="round" stroke-width="2.6715356035226785"/>
  <path d="M 91.08507758335145, 87.31836950000671 Q 90.06175179306638, 89.49446760509059, 89.71068134805783, 105.24366040188849 " fill="none" id="curve_12" stroke="#000000" stroke-linecap="round" stroke-linejoin="round" stroke-width="1.9019383239052343"/>
  <path d="M 89.71068134805783, 105.24366040188849 Q 89.72716562492202, 128.51896123375042, 89.81609724790681, 137.6798126135594 " fill="none" id="curve_12" stroke="#000000" stroke-linecap="round" stroke-linejoin="round" stroke-width="1.9542405158720744"/>
  <path d="M 90.0058298805936, 85.92171322145029 Q 89.80852014236244, 84.96233866294651, 89.76036083979676, 72.38328930659428 " fill="none" id="curve_14" stroke="#000000" stroke-linecap="round" stroke-linejoin="round" stroke-width="1.5174135553177939"/>
  <path d="M 89.76036083979676, 72.38328930659428 Q 89.68196966762419, 69.74782688900726, 89.62555462297773, 58.82121084129419 " fill="none" id="curve_14" stroke="#000000" stroke-linecap="round" stroke-linejoin="round" stroke-width="1.5760895717842358"/>
  <path d="M 89.62555462297773, 58.82121084129419 Q 89.6349299586807, 54.35167446463729, 89.64890820584249, 44.26026718072637 " fill="none" id="curve_14" stroke="#000000" stroke-linecap="round" stroke-linejoin="round" stroke-width="1.4160938377795809"/>
  <path d="M 89.64890820584249, 44.26026718072637 Q 89.6210452824154, 41.7184353744724, 89.59891615872407, 30.597253634869496 " fill="none" id="curve_14" stroke="#000000" stroke-linecap="round" stroke-linejoin="round" stroke-width="1.4404884082334035"/>
  <path d="M 89.59891615872407, 30.597253634869496 Q 89.56694982540206, 28.255670181000102, 89.54130559411351, 17.339481507602834 " fill="none" id="curve_14" stroke="#000000" stroke-linecap="round" stroke-linejoin="round" stroke-width="1.4176011322924524"/>
  <path d="M 89.54130559411351, 17.339481507602834 Q 89.5285929598965, 13.651946309002067, 89.50713452984996, 4.089091484105927 " fill="none" id="curve_14" stroke="#000000" stroke-linecap="round" stroke-linejoin="round" stroke-width="1.4516053928173898"/>
  <path d="M 89.50713452984996, 4.089091484105927 Q 89.33902944944516, 2.0898371866750036, 88.85972532918163, 1.1954521580103457 " fill="none" id="curve_14" stroke="#000000" stroke-linecap="round" stroke-linejoin="round" stroke-width="2.826017356780638"/>
  <path d="M 43.240428508358555, 68.16561812828574 Q 39.3729539467035, 73.47048884162344, 30.98892175064936, 80.39702726549497 " fill="none" id="curve_25" stroke="#000000" stroke-linecap="round" stroke-linejoin="round" stroke-width="3.094783413705722"/>
  <path d="M 20.230877725041722, 88.9035262463743 Q 21.800720365287443, 86.9927807554182, 26.203028732121034, 85.38471846993545 " fill="none" id="curve_26" stroke="#000000" stroke-linecap="round" stroke-linejoin="round" stroke-width="3.031038913945566"/>
  <path d="M 41.97772038017244, 86.6521270060218 Q 41.58909578008353, 86.73182989896802, 41.218372407123866, 86.94045775131806 " fill="none" id="curve_27" stroke="#000000" stroke-linecap="round" stroke-linejoin="round" stroke-width="3.0190476484633213"/>
  <path d="M 45.041018796543526, 61.913636351494816 Q 41.722794415511615, 57.766418237899714, 33.57390968626045, 51.59682946231784 " fill="none" id="curve_28" stroke="#000000" stroke-linecap="round" stroke-linejoin="round" stroke-width="2.12954248188601"/>
  <path d="M 33.57390968626045, 51.59682946231784 Q 36.92633273014611, 55.62954784312809, 41.92814688982736, 59.625255641399335 " fill="none" id="curve_28" stroke="#000000" stroke-linecap="round" stroke-linejoin="round" stroke-width="2.14930456512876"/>
  <path d="M 33.87383474969678, 50.51040418925197 Q 32.93067349750798, 50.27149639142705, 29.48530276863859, 50.0167674104649 " fill="none" id="curve_69" stroke="#000000" stroke-linecap="round" stroke-linejoin="round" stroke-width="2.3564638871240997"/>
  <path d="M 39.80418370697112, 68.84110074904152 Q 41.828274780460106, 65.75649069929736, 45.99919198713057, 62.03221525811604 " fill="none" id="curve_85" stroke="#000000" stroke-linecap="round" stroke-linejoin="round" stroke-width="2.626142839021341"/>
  <path d="M 45.99919198713057, 62.03221525811604 Q 41.97856311188056, 56.52613470110256, 32.056861845056055, 48.71908875470043 " fill="none" id="curve_85" stroke="#000000" stroke-linecap="round" stroke-linejoin="round" stroke-width="2.227144775839655"/>
  <path d="M 60.08848286388497, 88.77454200016638 Q 59.43120453707807, 88.58298785668123, 57.737085906041465, 88.38172644493515 " fill="none" id="curve_133" stroke="#000000" stroke-linecap="round" stroke-linejoin="round" stroke-width="3.2336779181584836"/>
</svg>
