<?xml version="1.0" ?>
<svg height="140" width="140" xmlns="http://www.w3.org/2000/svg">
  <path d="M 20.511218070983887, 59.24513626098633 Q 14.594706209546057, 59.45291055690156, 13.625681504587192, 62.56942830172579 " fill="none" id="curve_1" stroke="#000000" stroke-linecap="round" stroke-linejoin="round" stroke-width="4.126032956537255"/>
  <path d="M 13.625681504587192, 62.56942830172579 Q 15.716852762183667, 64.4338963546444, 21.596164998503685, 65.23430858190402 " fill="none" id="curve_1" stroke="#000000" stroke-linecap="round" stroke-linejoin="round" stroke-width="2.899979573660558"/>
  <path d="M 21.66775638490089, 56.07022874746174 Q 18.871503147154343, 56.36649124421657, 17.045200931455387, 57.632120573601576 " fill="none" id="curve_2" stroke="#000000" stroke-linecap="round" stroke-linejoin="round" stroke-width="4.22862590097741"/>
  <path d="M 25.38096889140411, 54.68103020823933 Q 43.861879201293725, 55.929374166593774, 46.74298718623493, 67.84667581466762 " fill="none" id="curve_3" stroke="#000000" stroke-linecap="round" stroke-linejoin="round" stroke-width="4.680934391982065"/>
  <path d="M 46.74298718623493, 67.84667581466762 Q 43.70997197526709, 78.98436539146662, 26.45898581191533, 99.96706072259633 " fill="none" id="curve_3" stroke="#000000" stroke-linecap="round" stroke-linejoin="round" stroke-width="4.454350027690144"/>
  <path d="M 26.45898581191533, 99.96706072259633 Q 21.818616843802452, 107.18144017239315, 18.607498706025087, 123.91266557877644 " fill="none" id="curve_3" stroke="#000000" stroke-linecap="round" stroke-linejoin="round" stroke-width="4.5340876278711395"/>
  <path d="M 18.607498706025087, 123.91266557877644 Q 33.116472940708476, 121.97454696293211, 44.84949372064489, 118.9323861160409 " fill="none" id="curve_3" stroke="#000000" stroke-linecap="round" stroke-linejoin="round" stroke-width="4.5772401082995255"/>
  <path d="M 21.51924902414297, 111.6468497023635 Q 19.461227229954503, 112.42614386447708, 18.80879829675412, 116.6343047527253 " fill="none" id="curve_4" stroke="#000000" stroke-linecap="round" stroke-linejoin="round" stroke-width="3.4318776616949536"/>
  <path d="M 35.653714418195705, 85.63031219257914 Q 33.29587882782416, 88.52567760721675, 30.38511672848944, 93.20429803152456 " fill="none" id="curve_19" stroke="#000000" stroke-linecap="round" stroke-linejoin="round" stroke-width="2.7374732346668638"/>
  <path d="M 19.265388805306138, 112.01120052124938 Q 22.640485044137378, 105.83448455530886, 29.164083118586696, 99.3210959865407 " fill="none" id="curve_20" stroke="#000000" stroke-linecap="round" stroke-linejoin="round" stroke-width="2.371790679609257"/>
  <path d="M 36.319114621954284, 55.073267115116735 Q 31.18329366622862, 54.70998983594652, 22.263444709030516, 54.28439326541975 " fill="none" id="curve_22" stroke="#000000" stroke-linecap="round" stroke-linejoin="round" stroke-width="2.697250070090516"/>
  <path d="M 44.91379849672597, 74.97586448577357 Q 45.118696377400035, 70.90434107581322, 45.8847183460813, 68.14858993057985 " fill="none" id="curve_64" stroke="#000000" stroke-linecap="round" stroke-linejoin="round" stroke-width="3.417502409461607"/>
</svg>
