<?xml version="1.0" ?>
<svg height="140" width="140" xmlns="http://www.w3.org/2000/svg">
  <path d="M 44.59659385681152, 58.504897117614746 Q 44.51056184118081, 58.84529872446907, 44.350397564831276, 60.10002187848484 " fill="none" id="curve_1" stroke="#000000" stroke-linecap="round" stroke-linejoin="round" stroke-width="7.544503216815637"/>
  <path d="M 44.350397564831276, 60.10002187848484 Q 43.92839899917219, 70.55218736974535, 40.40983603715253, 75.20011335435827 " fill="none" id="curve_1" stroke="#000000" stroke-linecap="round" stroke-linejoin="round" stroke-width="5.254727412205668"/>
  <path d="M 40.40983603715253, 75.20011335435827 Q 36.26004462513812, 84.97153303718177, 27.873740288995556, 93.57051835228033 " fill="none" id="curve_1" stroke="#000000" stroke-linecap="round" stroke-linejoin="round" stroke-width="5.917781775450411"/>
  <path d="M 27.873740288995556, 93.57051835228033 Q 26.000214542588967, 92.26936942600572, 23.735499195347614, 90.787601272049 " fill="none" id="curve_1" stroke="#000000" stroke-linecap="round" stroke-linejoin="round" stroke-width="9.238168456351518"/>
  <path d="M 23.735499195347614, 90.787601272049 Q 32.34471342837604, 99.29470370063345, 56.7983755089059, 102.90536309235388 " fill="none" id="curve_1" stroke="#000000" stroke-linecap="round" stroke-linejoin="round" stroke-width="4.528506279989875"/>
  <path d="M 39.20976739334766, 57.639942371952735 Q 37.83470836803271, 58.012186820465594, 36.79481841206819, 58.906083161623236 " fill="none" id="curve_3" stroke="#000000" stroke-linecap="round" stroke-linejoin="round" stroke-width="6.825265390959136"/>
  <path d="M 60.487716696714585, 102.40968774228824 Q 58.45118068150295, 102.34910442584311, 54.033490005811096, 102.27834719802668 " fill="none" id="curve_4" stroke="#000000" stroke-linecap="round" stroke-linejoin="round" stroke-width="4.041809911551581"/>
  <path d="M 41.46039705811399, 56.5314408255829 Q 40.98744917931769, 56.77026261738436, 40.38660298067748, 57.28330848508342 " fill="none" id="curve_7" stroke="#000000" stroke-linecap="round" stroke-linejoin="round" stroke-width="3.990831904464288"/>
  <path d="M 89.5078432550448, 1.8722044017006052 Q 89.34176937953583, 2.51070439200091, 89.04165906263876, 3.4265127943933686 " fill="none" id="curve_9" stroke="#000000" stroke-linecap="round" stroke-linejoin="round" stroke-width="2.950287821054848"/>
  <path d="M 47.08326590033393, 102.7949382556722 Q 41.84269711143232, 102.60545669897097, 39.26186118891946, 101.4596485229392 " fill="none" id="curve_12" stroke="#000000" stroke-linecap="round" stroke-linejoin="round" stroke-width="3.0316775026644533"/>
  <path d="M 23.413717035445327, 95.15195277858847 Q 24.018477254547175, 95.35763736173169, 24.809867336862617, 95.69833462204045 " fill="none" id="curve_13" stroke="#000000" stroke-linecap="round" stroke-linejoin="round" stroke-width="3.9906008117311487"/>
  <path d="M 60.520198784902824, 101.86367015972723 Q 61.27771247669081, 101.99303397068243, 62.16732471335207, 102.21146543582284 " fill="none" id="curve_30" stroke="#000000" stroke-linecap="round" stroke-linejoin="round" stroke-width="3.2685156118154644"/>
  <path d="M 51.476256532733714, 103.16469923903833 Q 40.24077537364937, 103.03342517311124, 38.65214117549326, 100.1153583086955 " fill="none" id="curve_45" stroke="#000000" stroke-linecap="round" stroke-linejoin="round" stroke-width="2.557814173266394"/>
  <path d="M 38.65214117549326, 100.1153583086955 Q 36.99033117607507, 95.235766673777, 30.258999631467212, 92.14257376760112 " fill="none" id="curve_45" stroke="#000000" stroke-linecap="round" stroke-linejoin="round" stroke-width="3.57758488883915"/>
  <path d="M 30.258999631467212, 92.14257376760112 Q 27.147023900726353, 89.77941129795262, 23.093803733351418, 86.3932917778703 " fill="none" id="curve_45" stroke="#000000" stroke-linecap="round" stroke-linejoin="round" stroke-width="2.8713828543242483"/>
  <path d="M 38.00697382001819, 55.41041329771623 Q 41.81663906166342, 56.54391347344012, 44.56947950785933, 60.31137495097842 " fill="none" id="curve_47" stroke="#000000" stroke-linecap="round" stroke-linejoin="round" stroke-width="2.133658116571785"/>
  <path d="M 33.32715537696705, 85.80882734664554 Q 36.661200527699904, 78.27614272162299, 44.504517310249106, 71.12992890928805 " fill="none" id="curve_50" stroke="#000000" stroke-linecap="round" stroke-linejoin="round" stroke-width="2.5174489154245547"/>
  <path d="M 56.07797674253996, 100.47158391618859 Q 54.427020919616275, 100.70432168203, 52.309938206309575, 101.05036777069512 " fill="none" id="curve_51" stroke="#000000" stroke-linecap="round" stroke-linejoin="round" stroke-width="3.3644376081246468"/>
  <path d="M 44.28972286306537, 64.81577437875188 Q 44.99757868850621, 65.66419015587746, 46.07694194535821, 66.73489738722027 " fill="none" id="curve_52" stroke="#000000" stroke-linecap="round" stroke-linejoin="round" stroke-width="3.267343370989327"/>
  <path d="M 41.49928016061165, 58.61163489432691 Q 41.437372157709895, 58.404043648894266, 41.35093175416316, 58.07767903758135 " fill="none" id="curve_56" stroke="#000000" stroke-linecap="round" stroke-linejoin="round" stroke-width="4.706706088665505"/>
</svg>
