<?xml version="1.0" ?>
<svg height="140" width="140" xmlns="http://www.w3.org/2000/svg">
  <path d="M 26.297565460205078, 44.624908447265625 Q 13.933185122297992, 44.99028411593622, 12.18006718829838, 54.55435075932587 " fill="none" id="curve_1" stroke="#000000" stroke-linecap="round" stroke-linejoin="round" stroke-width="4.6218752238575185"/>
  <path d="M 12.18006718829838, 54.55435075932587 Q 12.247774264526859, 57.48038904462994, 13.038998915263846, 57.94619879925466 " fill="none" id="curve_1" stroke="#000000" stroke-linecap="round" stroke-linejoin="round" stroke-width="3.9725163832199644"/>
  <path d="M 22.341635315551773, 42.69120650824181 Q 30.73080762989327, 42.5124749120389, 33.767581727388254, 41.72581885192714 " fill="none" id="curve_2" stroke="#000000" stroke-linecap="round" stroke-linejoin="round" stroke-width="5.06720788785852"/>
  <path d="M 33.767581727388254, 41.72581885192714 Q 51.27602556672102, 43.55347709517416, 54.93436493363413, 53.945596234008086 " fill="none" id="curve_2" stroke="#000000" stroke-linecap="round" stroke-linejoin="round" stroke-width="5.511216728482452"/>
  <path d="M 54.93436493363413, 53.945596234008086 Q 53.053815381965535, 70.3039889352858, 37.280993302158905, 87.6128548890022 " fill="none" id="curve_2" stroke="#000000" stroke-linecap="round" stroke-linejoin="round" stroke-width="5.638577321266734"/>
  <path d="M 37.280993302158905, 87.6128548890022 Q 29.857623152989124, 95.95710558238366, 22.85769268683211, 113.94445525190866 " fill="none" id="curve_2" stroke="#000000" stroke-linecap="round" stroke-linejoin="round" stroke-width="5.696096805430131"/>
  <path d="M 22.85769268683211, 113.94445525190866 Q 24.69923790810765, 115.03368266041153, 28.34454844858217, 116.19869811686634 " fill="none" id="curve_2" stroke="#000000" stroke-linecap="round" stroke-linejoin="round" stroke-width="5.0879507591367625"/>
  <path d="M 28.34454844858217, 116.19869811686634 Q 44.00468221598583, 112.51298081764165, 68.69649593546887, 106.9687560630531 " fill="none" id="curve_2" stroke="#000000" stroke-linecap="round" stroke-linejoin="round" stroke-width="4.166247088047748"/>
  <path d="M 68.69649593546887, 106.9687560630531 Q 72.78276984011356, 106.8407814109163, 74.99286597163338, 106.48765304248859 " fill="none" id="curve_2" stroke="#000000" stroke-linecap="round" stroke-linejoin="round" stroke-width="3.97872970019175"/>
  <path d="M 41.2663257621779, 112.99268088111705 Q 37.839777700683676, 114.83764181008185, 27.557171422580645, 115.71712781736187 " fill="none" id="curve_3" stroke="#000000" stroke-linecap="round" stroke-linejoin="round" stroke-width="4.1905274135643635"/>
  <path d="M 44.58083905118772, 74.39893334779804 Q 51.27947214143562, 70.41615711141989, 54.445940904480906, 52.6570830124955 " fill="none" id="curve_4" stroke="#000000" stroke-linecap="round" stroke-linejoin="round" stroke-width="2.9530667907168775"/>
  <path d="M 22.63805828606995, 43.48960918707431 Q 17.602738668901498, 45.435480346118254, 13.85552573790924, 49.20226615852618 " fill="none" id="curve_5" stroke="#000000" stroke-linecap="round" stroke-linejoin="round" stroke-width="3.8045464642762092"/>
  <path d="M 28.16397666394645, 40.51955109051117 Q 30.644424659633412, 41.07324369607549, 35.933457148890945, 41.792135714435915 " fill="none" id="curve_6" stroke="#000000" stroke-linecap="round" stroke-linejoin="round" stroke-width="2.5833250268343444"/>
  <path d="M 90.1870260108189, 5.231598001840268 Q 89.89249938323968, 3.0948625448039855, 89.18977963416314, 1.0246717451178258 " fill="none" id="curve_8" stroke="#000000" stroke-linecap="round" stroke-linejoin="round" stroke-width="2.2916471239166905"/>
  <path d="M 52.533230736960235, 51.09477879918953 Q 51.85900806488032, 67.24002184223586, 45.93989700051519, 73.75569490150771 " fill="none" id="curve_13" stroke="#000000" stroke-linecap="round" stroke-linejoin="round" stroke-width="2.660606418737574"/>
  <path d="M 51.30408073261523, 46.4842548256347 Q 52.67860463563856, 46.936067623282554, 53.79807136887602, 48.26418538344731 " fill="none" id="curve_15" stroke="#000000" stroke-linecap="round" stroke-linejoin="round" stroke-width="3.390292642812545"/>
  <path d="M 52.25446292549201, 109.72512656035045 Q 42.54617450330656, 111.02282492359852, 35.951796229601584, 115.40466589056201 " fill="none" id="curve_19" stroke="#000000" stroke-linecap="round" stroke-linejoin="round" stroke-width="2.8116350842241404"/>
  <path d="M 52.8057060465665, 62.62620722428478 Q 49.363501451711805, 67.7453159257427, 43.899738270088704, 76.62434857413322 " fill="none" id="curve_23" stroke="#000000" stroke-linecap="round" stroke-linejoin="round" stroke-width="2.698079637880519"/>
  <path d="M 13.024669352908138, 52.1557508854169 Q 16.41197109093382, 48.28692963432077, 23.476389426759095, 43.86820992670436 " fill="none" id="curve_29" stroke="#000000" stroke-linecap="round" stroke-linejoin="round" stroke-width="2.314573521843797"/>
  <path d="M 38.22708422583586, 41.027977291602625 Q 38.20840554967914, 40.35065709808171, 38.12967917380799, 39.8450083931544 " fill="none" id="curve_30" stroke="#000000" stroke-linecap="round" stroke-linejoin="round" stroke-width="2.111292355375913"/>
  <path d="M 26.221943613551943, 101.59588590038167 Q 25.282496095453364, 102.73952375109604, 24.499847904719655, 106.67808075103275 " fill="none" id="curve_35" stroke="#000000" stroke-linecap="round" stroke-linejoin="round" stroke-width="3.00527204006273"/>
  <path d="M 42.15613697808941, 79.19335978812703 Q 41.30204746257957, 81.42513605608231, 39.880203482841715, 85.27354582161713 " fill="none" id="curve_37" stroke="#000000" stroke-linecap="round" stroke-linejoin="round" stroke-width="3.3303054599102038"/>
  <path d="M 40.88586630399698, 111.76755163324708 Q 34.51836327880694, 112.52152476546308, 31.93860293121339, 116.08869455030197 " fill="none" id="curve_52" stroke="#000000" stroke-linecap="round" stroke-linejoin="round" stroke-width="3.7980695234211352"/>
  <path d="M 33.702810367708395, 116.80282117012274 Q 27.280063831846302, 115.6354278446432, 23.877215452431912, 111.20226253901032 " fill="none" id="curve_68" stroke="#000000" stroke-linecap="round" stroke-linejoin="round" stroke-width="3.122352502046211"/>
  <path d="M 55.307859763827636, 109.27649575476816 Q 52.02706060327348, 109.38529021633707, 49.34144758205172, 109.72142288795837 " fill="none" id="curve_78" stroke="#000000" stroke-linecap="round" stroke-linejoin="round" stroke-width="3.11640661321404"/>
  <path d="M 48.00696290582529, 67.08608688615459 Q 49.60245544214254, 63.0726763279417, 55.083936292855356, 60.56220658539911 " fill="none" id="curve_106" stroke="#000000" stroke-linecap="round" stroke-linejoin="round" stroke-width="2.960970169303952"/>
  <path d="M 10.970677460607469, 51.2572115485517 Q 11.296886191487257, 52.035926055718896, 11.714118607026842, 53.82818732143678 " fill="none" id="curve_117" stroke="#000000" stroke-linecap="round" stroke-linejoin="round" stroke-width="2.070000201760345"/>
  <path d="M 54.045579098077695, 54.939839870196394 Q 52.44935043557579, 46.52859923203528, 41.8294604377199, 42.35019971030276 " fill="none" id="curve_119" stroke="#000000" stroke-linecap="round" stroke-linejoin="round" stroke-width="2.4837109403343325"/>
  <path d="M 54.43679332613465, 54.38759248765291 Q 52.33049847640186, 49.86920750058669, 46.13675358403125, 44.425146412025434 " fill="none" id="curve_147" stroke="#000000" stroke-linecap="round" stroke-linejoin="round" stroke-width="2.711948843824883"/>
  <path d="M 51.0916595479481, 52.864028850145075 Q 51.63692031744586, 52.449082312613996, 52.81626552770768, 51.949680373332605 " fill="none" id="curve_188" stroke="#000000" stroke-linecap="round" stroke-linejoin="round" stroke-width="2.6904298920094307"/>
  <path d="M 40.76451109421302, 42.44702475869659 Q 45.34065327458546, 43.689447324981735, 49.877283564512, 46.848240192145596 " fill="none" id="curve_189" stroke="#000000" stroke-linecap="round" stroke-linejoin="round" stroke-width="2.0706663690307674"/>
</svg>
