<?xml version="1.0" ?>
<svg height="140" width="140" xmlns="http://www.w3.org/2000/svg">
  <path d="M 31.774085521697998, 50.18441390991211 Q 29.940410452891033, 50.083423580142494, 24.958671887422724, 49.97958492247224 " fill="none" id="curve_1" stroke="#000000" stroke-linecap="round" stroke-linejoin="round" stroke-width="3.8798119256460746"/>
  <path d="M 24.958671887422724, 49.97958492247224 Q 30.501007088522805, 48.26099363580526, 38.915699324062494, 46.645092733248696 " fill="none" id="curve_1" stroke="#000000" stroke-linecap="round" stroke-linejoin="round" stroke-width="5.690738463110198"/>
  <path d="M 38.915699324062494, 46.645092733248696 Q 53.59881779540058, 47.057568641671246, 55.26527158938769, 52.277570538013464 " fill="none" id="curve_1" stroke="#000000" stroke-linecap="round" stroke-linejoin="round" stroke-width="5.297652018229617"/>
  <path d="M 55.26527158938769, 52.277570538013464 Q 52.95408333728063, 65.10559913004737, 38.233934604899986, 82.66010132275642 " fill="none" id="curve_1" stroke="#000000" stroke-linecap="round" stroke-linejoin="round" stroke-width="4.873427384613866"/>
  <path d="M 38.233934604899986, 82.66010132275642 Q 31.86616105747147, 90.08631856539888, 26.844937035678154, 105.17293205155605 " fill="none" id="curve_1" stroke="#000000" stroke-linecap="round" stroke-linejoin="round" stroke-width="4.712294398268613"/>
  <path d="M 26.844937035678154, 105.17293205155605 Q 27.209088958142168, 107.22205308001976, 38.518317333385916, 107.33714701923233 " fill="none" id="curve_1" stroke="#000000" stroke-linecap="round" stroke-linejoin="round" stroke-width="4.732014402213656"/>
  <path d="M 38.518317333385916, 107.33714701923233 Q 47.75519919006699, 105.93757995663672, 54.548090449998355, 103.62218855421919 " fill="none" id="curve_1" stroke="#000000" stroke-linecap="round" stroke-linejoin="round" stroke-width="4.303212157481577"/>
  <path d="M 43.36833197765592, 73.82853326481919 Q 49.24291377175345, 68.03789534963445, 54.05352468785738, 53.8296298338679 " fill="none" id="curve_2" stroke="#000000" stroke-linecap="round" stroke-linejoin="round" stroke-width="3.2449531394926248"/>
  <path d="M 54.05352468785738, 53.8296298338679 Q 51.84832285145524, 49.56632203457157, 48.02219890302515, 45.49223784789855 " fill="none" id="curve_2" stroke="#000000" stroke-linecap="round" stroke-linejoin="round" stroke-width="3.63112578047922"/>
  <path d="M 55.49976349433532, 103.17457742620951 Q 45.25855886113991, 104.21628629694217, 35.32759072408727, 107.4855257716887 " fill="none" id="curve_4" stroke="#000000" stroke-linecap="round" stroke-linejoin="round" stroke-width="2.8392615643319594"/>
  <path d="M 35.32759072408727, 107.4855257716887 Q 29.90402131980491, 106.00279281828693, 26.930598373312773, 101.59769874036196 " fill="none" id="curve_4" stroke="#000000" stroke-linecap="round" stroke-linejoin="round" stroke-width="3.09813419279471"/>
  <path d="M 35.163112184414985, 88.6844219964963 Q 29.599245722901287, 92.03290110279227, 26.649792748988208, 102.65840231246575 " fill="none" id="curve_15" stroke="#000000" stroke-linecap="round" stroke-linejoin="round" stroke-width="2.9192411133992544"/>
  <path d="M 89.07193547729457, 2.626986411966641 Q 89.34601640483169, 2.331555740738203, 89.65475212199246, 1.7104696748070198 " fill="none" id="curve_30" stroke="#000000" stroke-linecap="round" stroke-linejoin="round" stroke-width="2.06118113065964"/>
  <path d="M 39.08545915108722, 103.36518460639878 Q 36.547841072067655, 105.34382707719652, 34.03962840593749, 108.82772232628199 " fill="none" id="curve_106" stroke="#000000" stroke-linecap="round" stroke-linejoin="round" stroke-width="3.39292716526535"/>
</svg>
