<?xml version="1.0" ?>
<svg height="140" width="140" xmlns="http://www.w3.org/2000/svg">
  <path d="M 29.21488046646118, 95.61600399017334 Q 26.271434638550947, 103.32591619121533, 15.721968535487804, 115.68983707940731 " fill="none" id="curve_1" stroke="#000000" stroke-linecap="round" stroke-linejoin="round" stroke-width="5.119000664277339"/>
  <path d="M 15.721968535487804, 115.68983707940731 Q 16.238435775076272, 113.22101921912541, 29.85148024824059, 112.99092219289058 " fill="none" id="curve_1" stroke="#000000" stroke-linecap="round" stroke-linejoin="round" stroke-width="5.370756060612532"/>
  <path d="M 29.85148024824059, 112.99092219289058 Q 35.49257798586148, 113.29069927203257, 54.944924916326784, 113.42716521034909 " fill="none" id="curve_1" stroke="#000000" stroke-linecap="round" stroke-linejoin="round" stroke-width="4.7897091745955995"/>
  <path d="M 30.918892847859375, 94.09617375374086 Q 37.16362350090436, 86.82858645973181, 44.52762534230669, 64.89899241580673 " fill="none" id="curve_2" stroke="#000000" stroke-linecap="round" stroke-linejoin="round" stroke-width="4.835555318687353"/>
  <path d="M 44.52762534230669, 64.89899241580673 Q 44.1496653050243, 42.21327376394673, 35.099535182222326, 38.43697830098675 " fill="none" id="curve_2" stroke="#000000" stroke-linecap="round" stroke-linejoin="round" stroke-width="4.534993713212875"/>
  <path d="M 35.099535182222326, 38.43697830098675 Q 18.761933271125393, 38.7817711689197, 17.636907812818563, 54.2098680163633 " fill="none" id="curve_2" stroke="#000000" stroke-linecap="round" stroke-linejoin="round" stroke-width="3.672142897829529"/>
  <path d="M 17.636907812818563, 54.2098680163633 Q 17.85845486362016, 59.24740008232239, 18.212053526065766, 64.23834757038945 " fill="none" id="curve_2" stroke="#000000" stroke-linecap="round" stroke-linejoin="round" stroke-width="5.034044647864995"/>
  <path d="M 18.212053526065766, 64.23834757038945 Q 18.379311624725016, 56.18359919738386, 18.673305525905917, 48.14050115129906 " fill="none" id="curve_2" stroke="#000000" stroke-linecap="round" stroke-linejoin="round" stroke-width="2.8851839775822015"/>
  <path d="M 18.673305525905917, 48.14050115129906 Q 21.792304426226874, 40.277425850725265, 33.94772056765838, 36.63184816951292 " fill="none" id="curve_2" stroke="#000000" stroke-linecap="round" stroke-linejoin="round" stroke-width="3.460162029128545"/>
  <path d="M 30.737103047428672, 95.56061178595172 Q 24.936828774892476, 102.20538242320444, 18.44778818255277, 111.70675691281157 " fill="none" id="curve_5" stroke="#000000" stroke-linecap="round" stroke-linejoin="round" stroke-width="3.4542703693592958"/>
  <path d="M 40.56110190996153, 115.41330368585174 Q 36.51065772043023, 113.9511500749552, 30.647455365193302, 112.09385655992163 " fill="none" id="curve_6" stroke="#000000" stroke-linecap="round" stroke-linejoin="round" stroke-width="4.012734208058354"/>
  <path d="M 42.172332472119166, 72.96429749352687 Q 42.97278715905077, 69.86335122962356, 43.31421145279188, 52.36532239950099 " fill="none" id="curve_8" stroke="#000000" stroke-linecap="round" stroke-linejoin="round" stroke-width="2.5956831067303794"/>
  <path d="M 41.377134068775916, 42.01896739097358 Q 41.99142564138226, 43.45677710102652, 42.55739218618745, 47.18216949175915 " fill="none" id="curve_9" stroke="#000000" stroke-linecap="round" stroke-linejoin="round" stroke-width="2.640173324910452"/>
  <path d="M 89.72780025327796, 3.5035369938980594 Q 89.51517982490898, 2.6362561550241908, 88.97546062434421, 1.6525092496529488 " fill="none" id="curve_10" stroke="#000000" stroke-linecap="round" stroke-linejoin="round" stroke-width="2.77073749768586"/>
  <path d="M 35.37334988303339, 80.39582101842095 Q 31.724438784696268, 92.84364670505077, 23.6979144209591, 108.51629455530428 " fill="none" id="curve_17" stroke="#000000" stroke-linecap="round" stroke-linejoin="round" stroke-width="2.2495497050287643"/>
  <path d="M 50.676284492333735, 113.09188879244512 Q 51.152223801741336, 112.64704782439526, 51.74464821798942, 111.88550805417286 " fill="none" id="curve_18" stroke="#000000" stroke-linecap="round" stroke-linejoin="round" stroke-width="3.8772928334156918"/>
  <path d="M 17.323792279703397, 55.6493235766619 Q 16.857041946107163, 54.80110190885505, 16.50564281372936, 52.27868360626984 " fill="none" id="curve_20" stroke="#000000" stroke-linecap="round" stroke-linejoin="round" stroke-width="3.3061887611594933"/>
  <path d="M 28.87704676962043, 38.79691062044468 Q 22.462167196456413, 41.18979776162939, 17.716774248284707, 46.76569060747272 " fill="none" id="curve_21" stroke="#000000" stroke-linecap="round" stroke-linejoin="round" stroke-width="2.70827268257009"/>
  <path d="M 28.93327201211514, 93.2706431446628 Q 28.349163963832083, 98.80512604673824, 26.318462772254716, 102.29551936151383 " fill="none" id="curve_28" stroke="#000000" stroke-linecap="round" stroke-linejoin="round" stroke-width="2.8370576372848904"/>
  <path d="M 42.280892736424896, 53.569638361894455 Q 41.822217738818345, 53.72132770566074, 41.24929063637324, 53.943225223882884 " fill="none" id="curve_31" stroke="#000000" stroke-linecap="round" stroke-linejoin="round" stroke-width="2.8933532899219356"/>
  <path d="M 39.787287407663825, 111.89257649845968 Q 36.697560974367065, 111.643700979009, 31.97719807727311, 111.17301165473428 " fill="none" id="curve_46" stroke="#000000" stroke-linecap="round" stroke-linejoin="round" stroke-width="2.372533072817598"/>
  <path d="M 49.95593343987046, 112.16744351233893 Q 48.45914354936048, 112.29067216034365, 46.525855777480956, 112.52775227155833 " fill="none" id="curve_51" stroke="#000000" stroke-linecap="round" stroke-linejoin="round" stroke-width="3.186128704705632"/>
  <path d="M 24.603053722903574, 39.371419959997546 Q 27.218196585081724, 38.84370753333499, 30.541112462848474, 37.88850246429013 " fill="none" id="curve_54" stroke="#000000" stroke-linecap="round" stroke-linejoin="round" stroke-width="2.27710265159729"/>
  <path d="M 29.53639186240637, 96.36086640967044 Q 28.383110085555924, 98.24048715819846, 26.244811197274952, 100.19856317072866 " fill="none" id="curve_74" stroke="#000000" stroke-linecap="round" stroke-linejoin="round" stroke-width="3.4508678506408375"/>
  <path d="M 26.244811197274952, 100.19856317072866 Q 27.954724829152706, 99.68168244115316, 29.456180280438552, 97.91850357129583 " fill="none" id="curve_74" stroke="#000000" stroke-linecap="round" stroke-linejoin="round" stroke-width="2.537470803225083"/>
  <path d="M 41.588997756509784, 47.21216835889354 Q 42.195927819991454, 46.27381820222419, 43.39955358731999, 44.59212335833716 " fill="none" id="curve_83" stroke="#000000" stroke-linecap="round" stroke-linejoin="round" stroke-width="2.498755552192189"/>
  <path d="M 42.41571673681382, 69.44020291284278 Q 42.19107198157087, 69.59964274853272, 41.85252237247624, 69.96017903094803 " fill="none" id="curve_88" stroke="#000000" stroke-linecap="round" stroke-linejoin="round" stroke-width="3.4661345449690266"/>
  <path d="M 42.77730849339214, 71.06700069748194 Q 42.28502677830714, 70.33480523400469, 41.25303668244725, 69.57827798160153 " fill="none" id="curve_104" stroke="#000000" stroke-linecap="round" stroke-linejoin="round" stroke-width="3.8317648202819643"/>
</svg>
