<?xml version="1.0" ?>
<svg height="140" width="140" xmlns="http://www.w3.org/2000/svg">
  <path d="M 21.94931983947754, 37.85294437408447 Q 15.75951289315912, 38.024764912350214, 15.268692824844265, 44.8126043516329 " fill="none" id="curve_1" stroke="#000000" stroke-linecap="round" stroke-linejoin="round" stroke-width="4.496230720190353"/>
  <path d="M 15.268692824844265, 44.8126043516329 Q 15.890790271895554, 60.53023910739749, 21.730217435292765, 66.34816803255036 " fill="none" id="curve_1" stroke="#000000" stroke-linecap="round" stroke-linejoin="round" stroke-width="3.7621149803410585"/>
  <path d="M 21.730217435292765, 66.34816803255036 Q 26.506241400148156, 69.80668624953498, 32.92885977409315, 72.41082495994198 " fill="none" id="curve_1" stroke="#000000" stroke-linecap="round" stroke-linejoin="round" stroke-width="4.185729040270213"/>
  <path d="M 66.46100953711459, 76.22733938671965 Q 64.2126146032586, 89.96552509403254, 43.3678586921872, 104.94771842237722 " fill="none" id="curve_2" stroke="#000000" stroke-linecap="round" stroke-linejoin="round" stroke-width="5.343643835527671"/>
  <path d="M 43.3678586921872, 104.94771842237722 Q 35.78972238330189, 111.18339632579801, 14.318471951556315, 121.0305276598097 " fill="none" id="curve_2" stroke="#000000" stroke-linecap="round" stroke-linejoin="round" stroke-width="6.792384988839733"/>
  <path d="M 14.318471951556315, 121.0305276598097 Q 17.801853458856638, 117.99031746635012, 34.29114484223045, 116.69865313107054 " fill="none" id="curve_2" stroke="#000000" stroke-linecap="round" stroke-linejoin="round" stroke-width="4.707267598324364"/>
  <path d="M 34.29114484223045, 116.69865313107054 Q 58.24501045188016, 116.86244381108041, 73.72593305035927, 117.31884966716507 " fill="none" id="curve_2" stroke="#000000" stroke-linecap="round" stroke-linejoin="round" stroke-width="5.46857392597483"/>
  <path d="M 68.20515106610915, 76.29748074149902 Q 69.58362904918661, 73.60942289212083, 70.58723586084187, 69.15690553089861 " fill="none" id="curve_3" stroke="#000000" stroke-linecap="round" stroke-linejoin="round" stroke-width="4.653351683286461"/>
  <path d="M 70.58723586084187, 69.15690553089861 Q 69.47283667577202, 50.33121574248414, 56.621677023264766, 33.87999304678963 " fill="none" id="curve_3" stroke="#000000" stroke-linecap="round" stroke-linejoin="round" stroke-width="4.736295000008959"/>
  <path d="M 56.621677023264766, 33.87999304678963 Q 52.213231015413264, 32.36225136065032, 44.86158348846046, 30.78357636734195 " fill="none" id="curve_3" stroke="#000000" stroke-linecap="round" stroke-linejoin="round" stroke-width="6.540758321244122"/>
  <path d="M 44.86158348846046, 30.78357636734195 Q 34.22624314280779, 33.44149289151503, 20.546460138517503, 37.72349166672572 " fill="none" id="curve_3" stroke="#000000" stroke-linecap="round" stroke-linejoin="round" stroke-width="6.96385639779144"/>
  <path d="M 20.546460138517503, 37.72349166672572 Q 25.74422448522511, 32.70650534910592, 42.22621852520815, 30.37777309925348 " fill="none" id="curve_3" stroke="#000000" stroke-linecap="round" stroke-linejoin="round" stroke-width="3.2581790265195383"/>
  <path d="M 66.18826253227121, 83.94479039736723 Q 57.291512567629525, 88.21862763937816, 49.55608542732247, 100.6186733175851 " fill="none" id="curve_5" stroke="#000000" stroke-linecap="round" stroke-linejoin="round" stroke-width="3.419457908737871"/>
  <path d="M 49.55608542732247, 100.6186733175851 Q 40.88967791968963, 103.47845039339028, 34.33489270959413, 109.22094123802245 " fill="none" id="curve_5" stroke="#000000" stroke-linecap="round" stroke-linejoin="round" stroke-width="3.891020595577894"/>
  <path d="M 10.81857590484617, 122.84627106500017 Q 10.623549621422207, 122.85810836450807, 10.472638574022676, 122.87888816020269 " fill="none" id="curve_6" stroke="#000000" stroke-linecap="round" stroke-linejoin="round" stroke-width="5.716309899055845"/>
  <path d="M 46.89805276088999, 115.41683921085033 Q 70.79436864320193, 115.76621659702882, 75.19466150148308, 118.87181709680692 " fill="none" id="curve_7" stroke="#000000" stroke-linecap="round" stroke-linejoin="round" stroke-width="3.133879982623613"/>
  <path d="M 60.605576699450516, 86.63429500714687 Q 61.75379310978575, 84.99609292619516, 64.21110506204332, 82.51012885372486 " fill="none" id="curve_9" stroke="#000000" stroke-linecap="round" stroke-linejoin="round" stroke-width="3.0551910612483626"/>
  <path d="M 64.41252223822389, 46.78953095605606 Q 63.81865450814367, 37.62839659929476, 56.2608320212875, 35.48561900923538 " fill="none" id="curve_10" stroke="#000000" stroke-linecap="round" stroke-linejoin="round" stroke-width="2.9126859603496698"/>
  <path d="M 63.72946174902813, 48.149913165534244 Q 62.17268759206029, 41.97108688818111, 57.96442210034109, 36.75748439282866 " fill="none" id="curve_11" stroke="#000000" stroke-linecap="round" stroke-linejoin="round" stroke-width="2.8755140964825787"/>
  <path d="M 36.04653710816064, 34.53223122780405 Q 38.06865145901571, 34.18727393740115, 41.23956267878436, 33.528625139139386 " fill="none" id="curve_15" stroke="#000000" stroke-linecap="round" stroke-linejoin="round" stroke-width="3.9985459630810225"/>
  <path d="M 54.468787733690384, 98.76452597000161 Q 52.59521527210961, 98.79083363941841, 48.766108088450494, 98.82841084020417 " fill="none" id="curve_17" stroke="#000000" stroke-linecap="round" stroke-linejoin="round" stroke-width="5.050192300580193"/>
  <path d="M 49.61445685099454, 114.86707155212079 Q 63.09507198516825, 114.99790849189603, 70.6795369857171, 115.47410539486607 " fill="none" id="curve_18" stroke="#000000" stroke-linecap="round" stroke-linejoin="round" stroke-width="2.509399358719645"/>
  <path d="M 21.446756949803692, 120.60466858749186 Q 22.883633674974583, 120.1683812918333, 24.08652721033526, 118.98309205569664 " fill="none" id="curve_20" stroke="#000000" stroke-linecap="round" stroke-linejoin="round" stroke-width="4.569700366544645"/>
  <path d="M 10.227059289085526, 122.36203606445493 Q 11.656337131580539, 121.66510921972015, 13.321213417866185, 120.07896755774598 " fill="none" id="curve_21" stroke="#000000" stroke-linecap="round" stroke-linejoin="round" stroke-width="3.3270291942717476"/>
  <path d="M 65.76854726350882, 82.18358476689825 Q 66.80361901927269, 80.5536888117257, 68.06710595697753, 78.3237743340274 " fill="none" id="curve_25" stroke="#000000" stroke-linecap="round" stroke-linejoin="round" stroke-width="1.9992485852896444"/>
  <path d="M 58.8273201389315, 87.52856876705246 Q 57.26064979022973, 87.7901968512517, 56.74063178153855, 89.36657767186131 " fill="none" id="curve_26" stroke="#000000" stroke-linecap="round" stroke-linejoin="round" stroke-width="2.7131358516059896"/>
  <path d="M 47.48515379037509, 114.54311271650248 Q 46.55927529504795, 114.59240624826228, 45.66724392341185, 114.68927434698853 " fill="none" id="curve_27" stroke="#000000" stroke-linecap="round" stroke-linejoin="round" stroke-width="3.6746923241824896"/>
  <path d="M 53.98835461808652, 36.12826622911702 Q 54.679943431739204, 35.8341522876454, 55.584651994951265, 35.30461146869334 " fill="none" id="curve_32" stroke="#000000" stroke-linecap="round" stroke-linejoin="round" stroke-width="3.160719629744564"/>
  <path d="M 16.861049720567877, 38.64685769101955 Q 16.379484420205134, 46.36405390877126, 15.246611709867409, 53.60466246129942 " fill="none" id="curve_34" stroke="#000000" stroke-linecap="round" stroke-linejoin="round" stroke-width="1.9307067049566005"/>
  <path d="M 17.116239954181616, 61.964418091304395 Q 17.124055938862355, 61.37196949933198, 17.135536888292, 60.33210774587884 " fill="none" id="curve_38" stroke="#000000" stroke-linecap="round" stroke-linejoin="round" stroke-width="3.500991082905772"/>
  <path d="M 15.347810864831427, 48.87872247513368 Q 16.55865287050145, 45.728934969753155, 17.62362541142858, 39.962877929191656 " fill="none" id="curve_54" stroke="#000000" stroke-linecap="round" stroke-linejoin="round" stroke-width="2.795871360851949"/>
  <path d="M 26.733996868133545, 71.09778213500977 Q 26.49309344248108, 66.99015585646863, 20.39365027560848, 66.51976635724895 " fill="none" id="curve_68" stroke="#000000" stroke-linecap="round" stroke-linejoin="round" stroke-width="3.6468667087356756"/>
  <path d="M 61.64467604411348, 41.892584407096834 Q 61.356860657892966, 40.18972954831296, 60.64503958791756, 37.757994309365756 " fill="none" id="curve_86" stroke="#000000" stroke-linecap="round" stroke-linejoin="round" stroke-width="3.1682367893854377"/>
  <path d="M 66.46755130571904, 53.35563883515715 Q 64.25704842264926, 44.44862601991279, 55.86362349584521, 37.00272084164462 " fill="none" id="curve_114" stroke="#000000" stroke-linecap="round" stroke-linejoin="round" stroke-width="2.827487622986153"/>
  <path d="M 67.61698113844636, 71.91530632325998 Q 68.56497348251034, 69.26272507640293, 69.34843267805557, 61.81835163981892 " fill="none" id="curve_129" stroke="#000000" stroke-linecap="round" stroke-linejoin="round" stroke-width="2.722303661708764"/>
  <path d="M 67.0185757793671, 55.43791856882308 Q 67.4771641186886, 58.46126632470724, 68.28220734814619, 61.42340853329884 " fill="none" id="curve_157" stroke="#000000" stroke-linecap="round" stroke-linejoin="round" stroke-width="2.8402179174127715"/>
  <path d="M 65.16774993912024, 50.42584952738548 Q 63.66260365411439, 46.88585845591079, 61.85209125001397, 38.95790273144735 " fill="none" id="curve_168" stroke="#000000" stroke-linecap="round" stroke-linejoin="round" stroke-width="2.871880116394718"/>
  <path d="M 64.71505810498775, 49.83623339442511 Q 63.274923450138004, 45.94151345190879, 61.083701331546216, 40.566740205462125 " fill="none" id="curve_183" stroke="#000000" stroke-linecap="round" stroke-linejoin="round" stroke-width="2.9826159728427695"/>
</svg>
