<?xml version="1.0" ?>
<svg height="140" width="140" xmlns="http://www.w3.org/2000/svg">
  <path d="M 59.97770309448242, 105.34572553634644 Q 59.86000678018226, 105.36681475294893, 59.13019201518194, 105.37629506889883 " fill="none" id="curve_1" stroke="#000000" stroke-linecap="round" stroke-linejoin="round" stroke-width="5.8088465664397235"/>
  <path d="M 59.13019201518194, 105.37629506889883 Q 56.63602589253899, 106.39846334118212, 42.0557671635902, 106.79321020880278 " fill="none" id="curve_1" stroke="#000000" stroke-linecap="round" stroke-linejoin="round" stroke-width="8.169120324098245"/>
  <path d="M 42.0557671635902, 106.79321020880278 Q 39.6503262609422, 106.37045978806593, 30.299741664336384, 106.19496453898071 " fill="none" id="curve_1" stroke="#000000" stroke-linecap="round" stroke-linejoin="round" stroke-width="7.289068040216271"/>
  <path d="M 30.299741664336384, 106.19496453898071 Q 33.783738069459176, 96.0735045317101, 47.215900235297866, 79.79955458845511 " fill="none" id="curve_1" stroke="#000000" stroke-linecap="round" stroke-linejoin="round" stroke-width="5.872046883780513"/>
  <path d="M 47.215900235297866, 79.79955458845511 Q 49.30911494689117, 75.31812817500332, 51.25547331185968, 68.87335302859385 " fill="none" id="curve_1" stroke="#000000" stroke-linecap="round" stroke-linejoin="round" stroke-width="7.173479440775529"/>
  <path d="M 51.25547331185968, 68.87335302859385 Q 51.0405026674324, 61.69423298354838, 35.9195665407868, 61.40864217120519 " fill="none" id="curve_1" stroke="#000000" stroke-linecap="round" stroke-linejoin="round" stroke-width="6.579992640842258"/>
  <path d="M 35.9195665407868, 61.40864217120519 Q 32.108653822806744, 62.06371231191903, 30.06242486425936, 63.698702402341034 " fill="none" id="curve_1" stroke="#000000" stroke-linecap="round" stroke-linejoin="round" stroke-width="6.764234806472474"/>
  <path d="M 60.8104709371155, 100.93690690167605 Q 61.100209609876, 103.44575406431485, 62.20304753573974, 104.93429703223565 " fill="none" id="curve_2" stroke="#000000" stroke-linecap="round" stroke-linejoin="round" stroke-width="3.6395410415884615"/>
  <path d="M 45.1994780491104, 77.56251648690608 Q 47.227055088469456, 74.42852541151214, 50.35717230335023, 70.32479977013763 " fill="none" id="curve_3" stroke="#000000" stroke-linecap="round" stroke-linejoin="round" stroke-width="2.5145018279658395"/>
  <path d="M 31.575475466433176, 98.89340390355363 Q 28.872472634867336, 100.64056563844215, 27.80235758363625, 106.30316375490584 " fill="none" id="curve_4" stroke="#000000" stroke-linecap="round" stroke-linejoin="round" stroke-width="3.8571037114170026"/>
  <path d="M 35.08469656637759, 108.75762232627334 Q 34.465557933126554, 108.64109957600097, 33.552558624113196, 108.51249937590228 " fill="none" id="curve_5" stroke="#000000" stroke-linecap="round" stroke-linejoin="round" stroke-width="4.383087200183031"/>
  <path d="M 49.087603906482904, 63.037306293120885 Q 47.57759081642177, 61.72103785113669, 41.06442355097681, 60.648558377265694 " fill="none" id="curve_21" stroke="#000000" stroke-linecap="round" stroke-linejoin="round" stroke-width="2.8177679304792234"/>
  <path d="M 51.39785167541005, 62.76878666027393 Q 49.304940821208675, 60.827327405245086, 35.63085252826726, 59.84557021329222 " fill="none" id="curve_37" stroke="#000000" stroke-linecap="round" stroke-linejoin="round" stroke-width="2.2256743280250815"/>
  <path d="M 31.83714539565529, 98.42472448660978 Q 38.10993768494767, 91.52638898126996, 46.585059073070106, 79.25600940093591 " fill="none" id="curve_42" stroke="#000000" stroke-linecap="round" stroke-linejoin="round" stroke-width="2.8586309379832233"/>
  <path d="M 29.16546847713179, 64.22585042662242 Q 29.170628464562643, 63.40220113505822, 29.18404167710216, 62.720971133199726 " fill="none" id="curve_110" stroke="#000000" stroke-linecap="round" stroke-linejoin="round" stroke-width="3.640445372680902"/>
</svg>
