<?xml version="1.0" ?>
<svg height="140" width="140" xmlns="http://www.w3.org/2000/svg">
  <path d="M 58.07160186767578, 50.302398681640625 Q 64.7244002079403, 50.48793420877497, 65.65375751467059, 53.07963973668831 " fill="none" id="curve_1" stroke="#000000" stroke-linecap="round" stroke-linejoin="round" stroke-width="5.281713365659005"/>
  <path d="M 65.65375751467059, 53.07963973668831 Q 60.95386665367041, 59.639521279947374, 47.3713304413244, 75.61927879330965 " fill="none" id="curve_1" stroke="#000000" stroke-linecap="round" stroke-linejoin="round" stroke-width="5.351600399607269"/>
  <path d="M 47.3713304413244, 75.61927879330965 Q 41.80720553472534, 79.98910365418295, 39.02135162170759, 89.68518945055244 " fill="none" id="curve_1" stroke="#000000" stroke-linecap="round" stroke-linejoin="round" stroke-width="4.951850563215136"/>
  <path d="M 39.02135162170759, 89.68518945055244 Q 42.60693372084158, 95.33019241799728, 49.86146173147164, 97.9823391964328 " fill="none" id="curve_1" stroke="#000000" stroke-linecap="round" stroke-linejoin="round" stroke-width="4.80615906183378"/>
  <path d="M 49.86146173147164, 97.9823391964328 Q 66.45156958893847, 96.62590271662593, 73.11135539448313, 92.1564392865009 " fill="none" id="curve_1" stroke="#000000" stroke-linecap="round" stroke-linejoin="round" stroke-width="4.312349270166819"/>
  <path d="M 39.23474196589116, 58.06356040553453 Q 40.02998513920182, 50.48388317395669, 52.741040434662736, 48.13561182764477 " fill="none" id="curve_2" stroke="#000000" stroke-linecap="round" stroke-linejoin="round" stroke-width="4.918366498523803"/>
  <path d="M 52.741040434662736, 48.13561182764477 Q 56.1818878932494, 49.65516166045143, 62.712203821862104, 50.660631509526155 " fill="none" id="curve_2" stroke="#000000" stroke-linecap="round" stroke-linejoin="round" stroke-width="4.852251932193269"/>
  <path d="M 36.841340161799536, 58.23828323465935 Q 36.17278361722616, 59.78616282825831, 35.369226406292334, 61.48505229917926 " fill="none" id="curve_3" stroke="#000000" stroke-linecap="round" stroke-linejoin="round" stroke-width="3.3920161278665626"/>
  <path d="M 35.369226406292334, 61.48505229917926 Q 38.02309135688605, 52.39707253291521, 53.3955702902843, 49.038427899037686 " fill="none" id="curve_3" stroke="#000000" stroke-linecap="round" stroke-linejoin="round" stroke-width="2.8429313384315713"/>
  <path d="M 57.4384871936211, 62.20352224806954 Q 56.47721021129197, 62.40392965250624, 55.71813116470705, 63.05740318959572 " fill="none" id="curve_4" stroke="#000000" stroke-linecap="round" stroke-linejoin="round" stroke-width="3.3286574500493544"/>
  <path d="M 64.18183655772837, 93.66922624508209 Q 60.91546319992054, 96.08650404313889, 49.58153890420215, 97.744494168439 " fill="none" id="curve_15" stroke="#000000" stroke-linecap="round" stroke-linejoin="round" stroke-width="3.2090603568691094"/>
  <path d="M 49.58153890420215, 97.744494168439 Q 42.34357301266651, 96.76689079540421, 38.81375511563421, 92.62211242599815 " fill="none" id="curve_15" stroke="#000000" stroke-linecap="round" stroke-linejoin="round" stroke-width="2.8054821314631595"/>
  <path d="M 55.992639163342865, 62.41824789958392 Q 60.49024036118175, 58.49655880344145, 66.16489741123326, 52.07183707421413 " fill="none" id="curve_16" stroke="#000000" stroke-linecap="round" stroke-linejoin="round" stroke-width="2.5443722125749155"/>
  <path d="M 66.16489741123326, 52.07183707421413 Q 65.68025013382616, 48.91835606694825, 55.31166870522312, 48.40915203327181 " fill="none" id="curve_16" stroke="#000000" stroke-linecap="round" stroke-linejoin="round" stroke-width="2.4667050008786084"/>
  <path d="M 55.54704266794116, 96.20878002875956 Q 61.64700808839294, 95.05746821977922, 70.8749845525316, 93.56885200255822 " fill="none" id="curve_32" stroke="#000000" stroke-linecap="round" stroke-linejoin="round" stroke-width="2.236072047273036"/>
  <path d="M 43.88782658532716, 93.38325435268052 Q 41.30769729928761, 90.66587170349482, 38.707941078620685, 84.60697345541521 " fill="none" id="curve_60" stroke="#000000" stroke-linecap="round" stroke-linejoin="round" stroke-width="2.6328578942980077"/>
  <path d="M 38.707941078620685, 84.60697345541521 Q 39.7968313674446, 81.90172688151917, 42.100566680216794, 79.90935885532706 " fill="none" id="curve_60" stroke="#000000" stroke-linecap="round" stroke-linejoin="round" stroke-width="2.443993908498236"/>
  <path d="M 41.38834503679237, 55.43981237772205 Q 43.57773072363854, 52.60096522494502, 47.461347549951114, 49.544831239486875 " fill="none" id="curve_61" stroke="#000000" stroke-linecap="round" stroke-linejoin="round" stroke-width="2.5477898776463754"/>
  <path d="M 74.21703862160905, 92.46021832622051 Q 73.9406123030794, 91.80537960898326, 72.70617481874169, 91.46266521763877 " fill="none" id="curve_76" stroke="#000000" stroke-linecap="round" stroke-linejoin="round" stroke-width="2.639959003232061"/>
  <path d="M 55.81605300268886, 47.79424745933305 Q 53.93962568767033, 47.72404209780464, 51.338813131695204, 47.552748880219944 " fill="none" id="curve_97" stroke="#000000" stroke-linecap="round" stroke-linejoin="round" stroke-width="2.734931696256784"/>
</svg>
