<?xml version="1.0" ?>
<svg height="140" width="140" xmlns="http://www.w3.org/2000/svg">
  <path d="M 63.90758013491441, 82.38468937945605 Q 62.78938854920485, 77.92513542694869, 33.258273496176386, 77.19867458510413 " fill="none" id="curve_4" stroke="#000000" stroke-linecap="round" stroke-linejoin="round" stroke-width="4.4526663048993225"/>
  <path d="M 33.258273496176386, 77.19867458510413 Q 35.06561447330476, 66.11539885015624, 42.57071356220765, 45.969346077343275 " fill="none" id="curve_4" stroke="#000000" stroke-linecap="round" stroke-linejoin="round" stroke-width="4.665878775388983"/>
  <path d="M 42.57071356220765, 45.969346077343275 Q 44.79961901091698, 38.45958481356532, 47.970355411981295, 26.92545236204913 " fill="none" id="curve_4" stroke="#000000" stroke-linecap="round" stroke-linejoin="round" stroke-width="4.443849054122172"/>
  <path d="M 47.970355411981295, 26.92545236204913 Q 47.50968738337619, 20.19674448457713, 32.595684365990365, 19.571821932086248 " fill="none" id="curve_4" stroke="#000000" stroke-linecap="round" stroke-linejoin="round" stroke-width="4.483803184162725"/>
  <path d="M 32.595684365990365, 19.571821932086248 Q 29.492385720290667, 21.771170175691424, 27.545790214898005, 25.27031651217346 " fill="none" id="curve_4" stroke="#000000" stroke-linecap="round" stroke-linejoin="round" stroke-width="4.9653414929983235"/>
  <path d="M 45.32822234242295, 25.810693127800977 Q 46.086881166770304, 27.187590559600967, 46.44673155543734, 31.93606524878097 " fill="none" id="curve_5" stroke="#000000" stroke-linecap="round" stroke-linejoin="round" stroke-width="3.0971756493929767"/>
  <path d="M 38.23563319180621, 77.9333549616993 Q 38.78831077972063, 78.7193204374905, 48.84108236156321, 78.80990118262172 " fill="none" id="curve_7" stroke="#000000" stroke-linecap="round" stroke-linejoin="round" stroke-width="3.28759991382502"/>
  <path d="M 32.78892141030305, 73.25707883288395 Q 33.02589562141973, 65.60751307538361, 36.62832044194401, 64.50473568907725 " fill="none" id="curve_8" stroke="#000000" stroke-linecap="round" stroke-linejoin="round" stroke-width="2.7402675602302646"/>
  <path d="M 62.000107285615506, 80.30259724481715 Q 56.073277338660624, 78.17386304496038, 40.16510237388198, 75.51332492508078 " fill="none" id="curve_9" stroke="#000000" stroke-linecap="round" stroke-linejoin="round" stroke-width="3.0244604425865123"/>
  <path d="M 65.47458203196776, 83.1785009394159 Q 65.03643667934237, 82.4734057671162, 64.28058542408233, 81.73796660235762 " fill="none" id="curve_10" stroke="#000000" stroke-linecap="round" stroke-linejoin="round" stroke-width="3.181438946773398"/>
  <path d="M 37.998227122702595, 62.63866889057266 Q 39.99471103302986, 57.747726023044095, 41.84621370324441, 46.23657471708201 " fill="none" id="curve_15" stroke="#000000" stroke-linecap="round" stroke-linejoin="round" stroke-width="2.128324246827342"/>
  <path d="M 26.99659322773461, 25.966637060741824 Q 27.183071247334258, 25.284294152579676, 27.522355626512123, 24.21273929660636 " fill="none" id="curve_17" stroke="#000000" stroke-linecap="round" stroke-linejoin="round" stroke-width="2.6842181990809726"/>
  <path d="M 57.42467484286497, 80.15220151471775 Q 55.35311290907439, 79.22750578067503, 50.89212584916723, 78.42936889091304 " fill="none" id="curve_19" stroke="#000000" stroke-linecap="round" stroke-linejoin="round" stroke-width="4.163022322230451"/>
  <path d="M 41.13078915850916, 46.54639053448751 Q 42.4105022352342, 43.53923305498271, 44.25646214652717, 38.90451275706806 " fill="none" id="curve_20" stroke="#000000" stroke-linecap="round" stroke-linejoin="round" stroke-width="2.2581869689651204"/>
  <path d="M 1.6906430841290785, 138.71396894814848 Q 1.5864923440520622, 138.59946489391717, 1.47774589075622, 138.42357914084673 " fill="none" id="curve_61" stroke="#000000" stroke-linecap="round" stroke-linejoin="round" stroke-width="2.598331699204021"/>
</svg>
