<?xml version="1.0" ?>
<svg height="140" width="140" xmlns="http://www.w3.org/2000/svg">
  <path d="M 61.2957649230957, 110.35890078544617 Q 57.33775292141286, 110.33175419928169, 45.01053979293283, 110.29081790492788 " fill="none" id="curve_1" stroke="#000000" stroke-linecap="round" stroke-linejoin="round" stroke-width="5.075923972125598"/>
  <path d="M 45.01053979293283, 110.29081790492788 Q 39.59857998396954, 110.53911359351059, 25.636438120123948, 110.78946405703809 " fill="none" id="curve_1" stroke="#000000" stroke-linecap="round" stroke-linejoin="round" stroke-width="5.856401359700819"/>
  <path d="M 25.636438120123948, 110.78946405703809 Q 18.058805562498108, 110.42382060950267, 16.18649708485936, 107.73348103037463 " fill="none" id="curve_1" stroke="#000000" stroke-linecap="round" stroke-linejoin="round" stroke-width="5.574931023983982"/>
  <path d="M 16.18649708485936, 107.73348103037463 Q 17.83270480795481, 93.77938543123565, 30.571479142873834, 79.61998536588983 " fill="none" id="curve_1" stroke="#000000" stroke-linecap="round" stroke-linejoin="round" stroke-width="4.740852681032634"/>
  <path d="M 30.571479142873834, 79.61998536588983 Q 36.53738803893188, 74.75555456009913, 41.814174233759104, 65.22177854410313 " fill="none" id="curve_1" stroke="#000000" stroke-linecap="round" stroke-linejoin="round" stroke-width="4.644589874771877"/>
  <path d="M 41.814174233759104, 65.22177854410313 Q 40.92240522519996, 60.64419597443036, 35.30118635883915, 59.25469690427414 " fill="none" id="curve_1" stroke="#000000" stroke-linecap="round" stroke-linejoin="round" stroke-width="4.594342708855425"/>
  <path d="M 35.30118635883915, 59.25469690427414 Q 11.584351393326088, 59.35900890159563, 9.247538369615356, 63.70419676602934 " fill="none" id="curve_1" stroke="#000000" stroke-linecap="round" stroke-linejoin="round" stroke-width="4.4875613477675165"/>
  <path d="M 36.74577253685952, 61.01442118572132 Q 38.81889759662309, 62.78906584944033, 40.930826892775244, 64.84848868322905 " fill="none" id="curve_2" stroke="#000000" stroke-linecap="round" stroke-linejoin="round" stroke-width="4.150030885888622"/>
  <path d="M 17.25326096007628, 98.06393548957143 Q 14.988183964321305, 99.18050163169785, 14.496483941057953, 106.58653572839584 " fill="none" id="curve_3" stroke="#000000" stroke-linecap="round" stroke-linejoin="round" stroke-width="3.336780668268761"/>
  <path d="M 26.277016727965158, 58.134541398926814 Q 12.24710635138757, 58.53560363901382, 8.897477064728736, 63.66595248389768 " fill="none" id="curve_5" stroke="#000000" stroke-linecap="round" stroke-linejoin="round" stroke-width="2.4383542939339127"/>
  <path d="M 32.577330726466315, 76.30278020348536 Q 35.138274773474734, 72.10651222494955, 40.97320059790921, 67.37414507044605 " fill="none" id="curve_6" stroke="#000000" stroke-linecap="round" stroke-linejoin="round" stroke-width="2.2912809514750343"/>
  <path d="M 57.366525090899465, 110.42762712986604 Q 59.24387727678842, 110.75998009115703, 63.16947007324308, 111.03336241129541 " fill="none" id="curve_8" stroke="#000000" stroke-linecap="round" stroke-linejoin="round" stroke-width="2.947568324109321"/>
  <path d="M 55.51021429678558, 109.59484811771041 Q 56.69490497982462, 109.62259165761706, 57.79710981961627, 109.66714730709951 " fill="none" id="curve_9" stroke="#000000" stroke-linecap="round" stroke-linejoin="round" stroke-width="3.5289557084653476"/>
  <path d="M 40.93774392047781, 62.81894520314505 Q 40.98995787198523, 61.296958683704155, 41.147089511770425, 60.0683319404375 " fill="none" id="curve_25" stroke="#000000" stroke-linecap="round" stroke-linejoin="round" stroke-width="3.7650395622454242"/>
  <path d="M 33.079603420767796, 75.56839370493805 Q 33.3189004779921, 75.58407945888885, 33.59336219718935, 75.63438554487034 " fill="none" id="curve_122" stroke="#000000" stroke-linecap="round" stroke-linejoin="round" stroke-width="2.8149205611148567"/>
</svg>
