<?xml version="1.0" ?>
<svg height="140" width="140" xmlns="http://www.w3.org/2000/svg">
  <path d="M 51.889944076538086, 67.4249095916748 Q 52.0325044481682, 68.93458863953849, 53.748926545834706, 69.54961837584648 " fill="none" id="curve_1" stroke="#000000" stroke-linecap="round" stroke-linejoin="round" stroke-width="7.604115984904652"/>
  <path d="M 53.748926545834706, 69.54961837584648 Q 50.99567327431151, 77.14364448469729, 37.0782343921104, 82.17509525892969 " fill="none" id="curve_1" stroke="#000000" stroke-linecap="round" stroke-linejoin="round" stroke-width="5.877041274589149"/>
  <path d="M 37.0782343921104, 82.17509525892969 Q 30.259634062836618, 86.41353299512481, 10.123818058950786, 94.20615157657498 " fill="none" id="curve_1" stroke="#000000" stroke-linecap="round" stroke-linejoin="round" stroke-width="6.0339765657911295"/>
  <path d="M 10.123818058950786, 94.20615157657498 Q 9.279034554613936, 97.75259651641485, 7.844497075659063, 101.35012208261757 " fill="none" id="curve_1" stroke="#000000" stroke-linecap="round" stroke-linejoin="round" stroke-width="4.784346402189981"/>
  <path d="M 7.844497075659063, 101.35012208261757 Q 9.712386430687182, 106.85532608397371, 33.75369118268044, 107.50931515339616 " fill="none" id="curve_1" stroke="#000000" stroke-linecap="round" stroke-linejoin="round" stroke-width="4.588044761097308"/>
  <path d="M 33.75369118268044, 107.50931515339616 Q 41.58042901052122, 106.43610082269728, 50.765845200154814, 105.12802523447189 " fill="none" id="curve_1" stroke="#000000" stroke-linecap="round" stroke-linejoin="round" stroke-width="2.8920893367528255"/>
  <path d="M 52.136109285757186, 104.33730084185223 Q 52.494095037320285, 104.3003425672084, 52.813722180982744, 104.2081940710559 " fill="none" id="curve_3" stroke="#000000" stroke-linecap="round" stroke-linejoin="round" stroke-width="2.641368439581816"/>
  <path d="M 53.97950568312597, 67.23881817321663 Q 53.153285611748544, 54.04042428312452, 30.334387676863894, 51.30814883903257 " fill="none" id="curve_4" stroke="#000000" stroke-linecap="round" stroke-linejoin="round" stroke-width="5.544270800457915"/>
  <path d="M 30.334387676863894, 51.30814883903257 Q 26.50170925957896, 51.4635314439308, 23.728433898502825, 51.78628236968386 " fill="none" id="curve_4" stroke="#000000" stroke-linecap="round" stroke-linejoin="round" stroke-width="6.907118035778815"/>
  <path d="M 51.612311736584445, 63.914420506435775 Q 51.551038042611474, 63.87092082691214, 51.49398994164833, 63.76743032745952 " fill="none" id="curve_5" stroke="#000000" stroke-linecap="round" stroke-linejoin="round" stroke-width="3.936746273637973"/>
  <path d="M 51.49398994164833, 63.76743032745952 Q 50.09758293152497, 55.71772406529281, 39.10369832676766, 52.128159289623916 " fill="none" id="curve_5" stroke="#000000" stroke-linecap="round" stroke-linejoin="round" stroke-width="2.9852698164993208"/>
  <path d="M 39.10369832676766, 52.128159289623916 Q 44.63598361001292, 56.01482462123692, 50.338423536698, 60.94401550426165 " fill="none" id="curve_5" stroke="#000000" stroke-linecap="round" stroke-linejoin="round" stroke-width="3.762649386503484"/>
  <path d="M 8.556329653413353, 96.30761599808284 Q 9.695087978482864, 106.34903615568957, 20.9624198690506, 107.79115407242375 " fill="none" id="curve_7" stroke="#000000" stroke-linecap="round" stroke-linejoin="round" stroke-width="3.6514336711151154"/>
  <path d="M 7.228659723423284, 95.50661219202921 Q 7.255676214661513, 97.87552416275574, 7.350246594752865, 98.83368416158515 " fill="none" id="curve_8" stroke="#000000" stroke-linecap="round" stroke-linejoin="round" stroke-width="3.6882628356795237"/>
  <path d="M 27.263294691846056, 85.86892112270428 Q 18.7569637423302, 88.16215687393714, 11.743192793719372, 93.8062707350506 " fill="none" id="curve_9" stroke="#000000" stroke-linecap="round" stroke-linejoin="round" stroke-width="2.7554894470842974"/>
  <path d="M 18.14693063777936, 106.96504476864318 Q 12.721923966420217, 105.3853885665527, 9.506601619918923, 100.336484946846 " fill="none" id="curve_10" stroke="#000000" stroke-linecap="round" stroke-linejoin="round" stroke-width="2.7260783430229747"/>
  <path d="M 46.5348359758747, 54.29379623545156 Q 47.411684889832515, 54.763344245004326, 48.28012340969103, 56.222172301464504 " fill="none" id="curve_14" stroke="#000000" stroke-linecap="round" stroke-linejoin="round" stroke-width="3.1521494318572256"/>
  <path d="M 26.77663614094118, 49.636252128091016 Q 30.638673049485575, 50.39223642825754, 35.785359240832776, 51.51516957893585 " fill="none" id="curve_15" stroke="#000000" stroke-linecap="round" stroke-linejoin="round" stroke-width="2.566990425393312"/>
  <path d="M 41.140780906562895, 106.44786247438117 Q 35.21911093370962, 107.43947077928301, 21.45834228861423, 108.2128915960558 " fill="none" id="curve_30" stroke="#000000" stroke-linecap="round" stroke-linejoin="round" stroke-width="2.5033027383973265"/>
  <path d="M 51.68789220068902, 71.64121968736708 Q 51.78503084086427, 67.76520181296871, 52.75636983617944, 67.00025696558679 " fill="none" id="curve_71" stroke="#000000" stroke-linecap="round" stroke-linejoin="round" stroke-width="4.733521635371333"/>
</svg>
