<?xml version="1.0" ?>
<svg height="140" width="140" xmlns="http://www.w3.org/2000/svg">
  <path d="M 72.46342658996582, 112.55265045166016 Q 74.27974315188877, 113.46323766713813, 75.24233889016415, 117.0995113430852 " fill="none" id="curve_1" stroke="#000000" stroke-linecap="round" stroke-linejoin="round" stroke-width="6.4006818477099"/>
  <path d="M 75.24233889016415, 117.0995113430852 Q 74.79789444564086, 119.87519355719405, 72.58091932569836, 120.57226758822347 " fill="none" id="curve_1" stroke="#000000" stroke-linecap="round" stroke-linejoin="round" stroke-width="3.3770911596166457"/>
  <path d="M 70.83496198873097, 111.1331162226149 Q 58.711136082920206, 111.66221806087643, 50.86454922911018, 114.24285444756052 " fill="none" id="curve_2" stroke="#000000" stroke-linecap="round" stroke-linejoin="round" stroke-width="5.067722039039918"/>
  <path d="M 50.86454922911018, 114.24285444756052 Q 40.06192204801094, 114.1950590369311, 35.58683128997144, 114.00390061367027 " fill="none" id="curve_2" stroke="#000000" stroke-linecap="round" stroke-linejoin="round" stroke-width="5.8859706705087955"/>
  <path d="M 35.58683128997144, 114.00390061367027 Q 31.00272331117035, 113.06324223163206, 28.779546294983902, 109.8942641050983 " fill="none" id="curve_2" stroke="#000000" stroke-linecap="round" stroke-linejoin="round" stroke-width="4.174803891163716"/>
  <path d="M 28.779546294983902, 109.8942641050983 Q 33.01493374483641, 98.56934662027929, 48.06920497027029, 76.38363891958048 " fill="none" id="curve_2" stroke="#000000" stroke-linecap="round" stroke-linejoin="round" stroke-width="4.616956979049576"/>
  <path d="M 48.06920497027029, 76.38363891958048 Q 52.41886665575975, 69.31150284652648, 61.237663779574554, 45.56598354669185 " fill="none" id="curve_2" stroke="#000000" stroke-linecap="round" stroke-linejoin="round" stroke-width="4.1615799183510855"/>
  <path d="M 61.237663779574554, 45.56598354669185 Q 62.85390427337511, 41.66537880455639, 63.67561157756832, 23.5057974750348 " fill="none" id="curve_2" stroke="#000000" stroke-linecap="round" stroke-linejoin="round" stroke-width="4.901616282719599"/>
  <path d="M 63.67561157756832, 23.5057974750348 Q 63.17445681557851, 15.686278740666033, 59.18195244272833, 14.041757552239737 " fill="none" id="curve_2" stroke="#000000" stroke-linecap="round" stroke-linejoin="round" stroke-width="4.366135905745356"/>
  <path d="M 59.18195244272833, 14.041757552239737 Q 51.02570302937968, 17.360342182508393, 38.91275766712563, 41.64736511216301 " fill="none" id="curve_2" stroke="#000000" stroke-linecap="round" stroke-linejoin="round" stroke-width="4.742191748967249"/>
  <path d="M 38.91275766712563, 41.64736511216301 Q 35.50758954715667, 47.57396864903559, 33.75881149306056, 63.64509053490543 " fill="none" id="curve_2" stroke="#000000" stroke-linecap="round" stroke-linejoin="round" stroke-width="4.447349198196941"/>
  <path d="M 61.10517228803062, 41.16865776820037 Q 61.40720803095789, 40.43907035955938, 61.659468077924195, 38.52704460721952 " fill="none" id="curve_3" stroke="#000000" stroke-linecap="round" stroke-linejoin="round" stroke-width="4.59959421785301"/>
  <path d="M 58.033275319320744, 13.17484354095091 Q 52.351779029353345, 16.30723736697166, 46.11512143635163, 26.629658216354205 " fill="none" id="curve_8" stroke="#000000" stroke-linecap="round" stroke-linejoin="round" stroke-width="2.3625350492696686"/>
  <path d="M 46.53644552729382, 113.90248153280118 Q 46.21989978458627, 115.84630881270138, 40.52158729141654, 116.03607736369251 " fill="none" id="curve_23" stroke="#000000" stroke-linecap="round" stroke-linejoin="round" stroke-width="3.2871558579694824"/>
  <path d="M 31.207242880889762, 100.33174700986355 Q 30.245714740198338, 103.22311825092585, 28.953706689125404, 106.76284524894244 " fill="none" id="curve_25" stroke="#000000" stroke-linecap="round" stroke-linejoin="round" stroke-width="2.869648055480345"/>
  <path d="M 60.24629327142077, 111.03592049941753 Q 65.08794124804696, 110.95562153242308, 69.88213945302218, 110.81815020834748 " fill="none" id="curve_26" stroke="#000000" stroke-linecap="round" stroke-linejoin="round" stroke-width="3.0759149014194174"/>
  <path d="M 69.88213945302218, 110.81815020834748 Q 59.00060687634729, 112.5413323835463, 42.58518154721277, 114.71977719455316 " fill="none" id="curve_26" stroke="#000000" stroke-linecap="round" stroke-linejoin="round" stroke-width="3.2702157353938555"/>
  <path d="M 45.5746368241579, 74.89564281096679 Q 44.231312262458175, 87.45792105195305, 35.156825862698525, 95.48614692365675 " fill="none" id="curve_60" stroke="#000000" stroke-linecap="round" stroke-linejoin="round" stroke-width="2.4163651565018944"/>
  <path d="M 43.91109045701463, 28.699656116452967 Q 43.307534689587754, 30.158859542503688, 41.91706417955324, 33.10482453395478 " fill="none" id="curve_70" stroke="#000000" stroke-linecap="round" stroke-linejoin="round" stroke-width="2.172130631311137"/>
  <path d="M 35.82287743609155, 48.844531866603035 Q 37.58749281286026, 45.79824456366754, 39.54811741540887, 40.40962540731153 " fill="none" id="curve_71" stroke="#000000" stroke-linecap="round" stroke-linejoin="round" stroke-width="3.2777901115638413"/>
  <path d="M 36.20397448539734, 50.78359127044678 Q 36.50022017609727, 44.512375778786065, 38.89219097477962, 42.33718577824902 " fill="none" id="curve_85" stroke="#000000" stroke-linecap="round" stroke-linejoin="round" stroke-width="3.466582601387574"/>
  <path d="M 70.42184230904971, 110.288914937254 Q 69.36935800717214, 110.16886099708628, 67.12871722317527, 110.04410531942908 " fill="none" id="curve_102" stroke="#000000" stroke-linecap="round" stroke-linejoin="round" stroke-width="3.11590528014547"/>
  <path d="M 61.77840110241647, 22.704935632121497 Q 61.28794047068598, 20.59510426865412, 60.86351991896525, 15.045927806317476 " fill="none" id="curve_105" stroke="#000000" stroke-linecap="round" stroke-linejoin="round" stroke-width="2.348241379454747"/>
  <path d="M 38.888426634756755, 44.60122360686074 Q 37.156318121420696, 45.71437758673835, 35.98305426130031, 48.819642711846356 " fill="none" id="curve_122" stroke="#000000" stroke-linecap="round" stroke-linejoin="round" stroke-width="3.907858697257889"/>
  <path d="M 36.837488801334814, 43.63128283246706 Q 37.89212996479788, 41.687336832671654, 40.0528668778716, 38.130464611374045 " fill="none" id="curve_155" stroke="#000000" stroke-linecap="round" stroke-linejoin="round" stroke-width="2.2698810970646623"/>
  <path d="M 47.9460237173389, 112.85013856349633 Q 47.64175217402792, 113.03555933837595, 47.35350447290318, 113.48187720821667 " fill="none" id="curve_170" stroke="#000000" stroke-linecap="round" stroke-linejoin="round" stroke-width="4.392045601538321"/>
  <path d="M 72.51190341811315, 115.21011766736922 Q 72.35108565380717, 114.48680035812794, 72.19683380536618, 113.11163003722183 " fill="none" id="curve_173" stroke="#000000" stroke-linecap="round" stroke-linejoin="round" stroke-width="3.8540306292968998"/>
  <path d="M 36.63743429825272, 94.21873720603998 Q 33.06629007874587, 96.27497059615527, 30.91569464062032, 101.7092915732595 " fill="none" id="curve_181" stroke="#000000" stroke-linecap="round" stroke-linejoin="round" stroke-width="2.773208046299855"/>
  <path d="M 46.67166543039552, 115.7401077082262 Q 46.21441477110095, 115.34141000871773, 45.55430072664513, 114.84147932487276 " fill="none" id="curve_183" stroke="#000000" stroke-linecap="round" stroke-linejoin="round" stroke-width="4.814592683953318"/>
  <path d="M 63.3921025617197, 34.17278798067389 Q 62.611138709789444, 33.974148255635704, 61.06979493817766, 33.66534245836572 " fill="none" id="curve_186" stroke="#000000" stroke-linecap="round" stroke-linejoin="round" stroke-width="2.6828228759981796"/>
</svg>
