<?xml version="1.0" ?>
<svg height="140" width="140" xmlns="http://www.w3.org/2000/svg">
  <path d="M 64.23304748535156, 60.18899345397949 Q 64.99290604621832, 59.688360911306425, 65.20249623814914, 55.24831086616837 " fill="none" id="curve_1" stroke="#000000" stroke-linecap="round" stroke-linejoin="round" stroke-width="7.67816727415593"/>
  <path d="M 65.20249623814914, 55.24831086616837 Q 64.7292581714772, 45.49375484068119, 57.82174399821531, 40.904274662499105 " fill="none" id="curve_1" stroke="#000000" stroke-linecap="round" stroke-linejoin="round" stroke-width="3.9347783296778545"/>
  <path d="M 57.82174399821531, 40.904274662499105 Q 54.115152479380455, 37.44887186581812, 33.99776215775534, 34.04476691255493 " fill="none" id="curve_1" stroke="#000000" stroke-linecap="round" stroke-linejoin="round" stroke-width="5.163700639910153"/>
  <path d="M 33.99776215775534, 34.04476691255493 Q 20.976998274686075, 34.73878140613111, 17.515056742898793, 38.89770439601967 " fill="none" id="curve_1" stroke="#000000" stroke-linecap="round" stroke-linejoin="round" stroke-width="4.05210886053236"/>
  <path d="M 17.515056742898793, 38.89770439601967 Q 18.30164824503238, 45.549113064185384, 21.721113215839793, 47.727274842696815 " fill="none" id="curve_1" stroke="#000000" stroke-linecap="round" stroke-linejoin="round" stroke-width="3.3150621784351197"/>
  <path d="M 53.321582179453884, 70.12391386778904 Q 59.445677724199626, 67.58784481324999, 64.03063806514417, 59.80843062364099 " fill="none" id="curve_2" stroke="#000000" stroke-linecap="round" stroke-linejoin="round" stroke-width="4.692704385966218"/>
  <path d="M 52.13839136347112, 70.90707631831235 Q 45.93079630466034, 76.10145442196993, 24.32307500441752, 88.6599802397794 " fill="none" id="curve_3" stroke="#000000" stroke-linecap="round" stroke-linejoin="round" stroke-width="5.242811380526628"/>
  <path d="M 24.32307500441752, 88.6599802397794 Q 24.38346059623299, 94.38765343574455, 25.273745184839836, 95.12854890097354 " fill="none" id="curve_3" stroke="#000000" stroke-linecap="round" stroke-linejoin="round" stroke-width="6.101119256657116"/>
  <path d="M 25.273745184839836, 95.12854890097354 Q 30.71945217869954, 99.04105027192665, 55.157518632251296, 100.65285718090985 " fill="none" id="curve_3" stroke="#000000" stroke-linecap="round" stroke-linejoin="round" stroke-width="6.219654515387036"/>
  <path d="M 55.157518632251296, 100.65285718090985 Q 69.20857169647473, 101.75600164497844, 88.92294122663526, 103.44667278796541 " fill="none" id="curve_3" stroke="#000000" stroke-linecap="round" stroke-linejoin="round" stroke-width="4.990276933293023"/>
  <path d="M 64.98212234286326, 61.608040166738306 Q 58.105267374339114, 65.25106462634729, 46.99442556065212, 73.34192778698598 " fill="none" id="curve_7" stroke="#000000" stroke-linecap="round" stroke-linejoin="round" stroke-width="2.641502146308356"/>
  <path d="M 24.24942781445076, 88.7548990985906 Q 29.311891602700776, 83.2357928523325, 40.44248926062427, 78.5385543769312 " fill="none" id="curve_8" stroke="#000000" stroke-linecap="round" stroke-linejoin="round" stroke-width="2.9266447076876645"/>
  <path d="M 60.044803502577665, 44.89975038675785 Q 57.46370603192263, 43.34445291881912, 54.54834308729546, 40.130873367266304 " fill="none" id="curve_9" stroke="#000000" stroke-linecap="round" stroke-linejoin="round" stroke-width="2.402620732782467"/>
  <path d="M 63.01825254403533, 59.29751269743892 Q 60.528721580921506, 60.392863232840696, 59.72903992703254, 64.99496838927334 " fill="none" id="curve_10" stroke="#000000" stroke-linecap="round" stroke-linejoin="round" stroke-width="3.6135878243232122"/>
  <path d="M 23.97319288712723, 91.29413983260395 Q 25.341657561917728, 89.47110091199202, 27.75579687336824, 86.44370309888477 " fill="none" id="curve_12" stroke="#000000" stroke-linecap="round" stroke-linejoin="round" stroke-width="4.687781921107699"/>
  <path d="M 27.75579687336824, 86.44370309888477 Q 24.361467888217383, 88.57768067495672, 22.402831790875528, 93.29828992491441 " fill="none" id="curve_12" stroke="#000000" stroke-linecap="round" stroke-linejoin="round" stroke-width="3.595171297222796"/>
  <path d="M 16.55128069777097, 41.07471252832652 Q 16.77815881109801, 41.36979968298225, 17.068441530484613, 42.04870931569716 " fill="none" id="curve_14" stroke="#000000" stroke-linecap="round" stroke-linejoin="round" stroke-width="3.1551769682110575"/>
  <path d="M 47.10638561817179, 35.93352022652249 Q 45.91910331814391, 34.679326373182256, 35.230782748970256, 34.1815165570223 " fill="none" id="curve_33" stroke="#000000" stroke-linecap="round" stroke-linejoin="round" stroke-width="2.2359685649079086"/>
  <path d="M 44.282665809119095, 73.81362104723479 Q 43.67696092581131, 77.68504818700647, 38.935621504650555, 79.24702454740671 " fill="none" id="curve_34" stroke="#000000" stroke-linecap="round" stroke-linejoin="round" stroke-width="2.8823932450067473"/>
  <path d="M 78.85799305785622, 101.03211449880109 Q 74.4120988551538, 101.46598293186966, 68.13359578414251, 102.24194431516406 " fill="none" id="curve_49" stroke="#000000" stroke-linecap="round" stroke-linejoin="round" stroke-width="2.58148707662277"/>
  <path d="M 34.960988467612374, 97.47792134267745 Q 31.977706717595435, 96.397077819314, 27.0962064173636, 95.03336188720353 " fill="none" id="curve_50" stroke="#000000" stroke-linecap="round" stroke-linejoin="round" stroke-width="3.243541370762701"/>
  <path d="M 16.634543679118742, 39.0910135938229 Q 17.342425118213416, 38.03010319915711, 18.5099747537682, 36.52198777918823 " fill="none" id="curve_52" stroke="#000000" stroke-linecap="round" stroke-linejoin="round" stroke-width="3.0922461961064194"/>
  <path d="M 61.16481888142647, 47.007988201422336 Q 62.05236637403003, 47.63406820020802, 63.13628966403147, 48.62842647189735 " fill="none" id="curve_67" stroke="#000000" stroke-linecap="round" stroke-linejoin="round" stroke-width="2.9315589738377303"/>
  <path d="M 50.17273864651716, 38.43621788233644 Q 51.20853619424942, 37.757848351314976, 52.49848847168902, 36.804192680314415 " fill="none" id="curve_70" stroke="#000000" stroke-linecap="round" stroke-linejoin="round" stroke-width="3.4565899554988886"/>
  <path d="M 27.05928990534647, 85.0937401711704 Q 27.204948584964637, 84.89283935643992, 27.67051025594507, 84.65670565674299 " fill="none" id="curve_77" stroke="#000000" stroke-linecap="round" stroke-linejoin="round" stroke-width="2.8241493116357916"/>
  <path d="M 61.1550285223755, 100.92262270271164 Q 58.828695370922965, 99.94008122438227, 53.478757464199965, 98.86066073597533 " fill="none" id="curve_113" stroke="#000000" stroke-linecap="round" stroke-linejoin="round" stroke-width="3.157734482457083"/>
  <path d="M 18.813644779778997, 40.57358311253623 Q 19.453207219304637, 38.92314192502677, 20.212743703107574, 36.7541854176335 " fill="none" id="curve_128" stroke="#000000" stroke-linecap="round" stroke-linejoin="round" stroke-width="3.078845460225996"/>
  <path d="M 37.11444727940266, 97.31037840351007 Q 32.54682564306787, 96.44812034611967, 26.633955180931757, 95.15877879104914 " fill="none" id="curve_134" stroke="#000000" stroke-linecap="round" stroke-linejoin="round" stroke-width="3.2059319129426864"/>
</svg>
