<?xml version="1.0" ?>
<svg height="140" width="140" xmlns="http://www.w3.org/2000/svg">
  <path d="M 71.58633118434784, 78.97613622758304 Q 67.56578952366772, 81.73779197101298, 50.822543238208915, 84.79426092383667 " fill="none" id="curve_2" stroke="#000000" stroke-linecap="round" stroke-linejoin="round" stroke-width="4.812600864632328"/>
  <path d="M 50.822543238208915, 84.79426092383667 Q 49.44759191443654, 85.52245312497466, 37.08661694666205, 85.62123640883172 " fill="none" id="curve_2" stroke="#000000" stroke-linecap="round" stroke-linejoin="round" stroke-width="6.648576691370844"/>
  <path d="M 37.08661694666205, 85.62123640883172 Q 32.09181104602576, 84.68425063232861, 29.833278380150297, 81.46840445479171 " fill="none" id="curve_2" stroke="#000000" stroke-linecap="round" stroke-linejoin="round" stroke-width="5.219083894377653"/>
  <path d="M 29.833278380150297, 81.46840445479171 Q 34.34294415060222, 71.15668036667189, 49.79154986015604, 51.034879141732176 " fill="none" id="curve_2" stroke="#000000" stroke-linecap="round" stroke-linejoin="round" stroke-width="5.496383640988091"/>
  <path d="M 49.79154986015604, 51.034879141732176 Q 54.297663978478354, 44.98455019495513, 58.487540848049065, 32.89810090101654 " fill="none" id="curve_2" stroke="#000000" stroke-linecap="round" stroke-linejoin="round" stroke-width="5.618515968551767"/>
  <path d="M 58.487540848049065, 32.89810090101654 Q 57.10425052341183, 30.517201276461982, 51.983291814928066, 29.46582035413624 " fill="none" id="curve_2" stroke="#000000" stroke-linecap="round" stroke-linejoin="round" stroke-width="4.995075658290466"/>
  <path d="M 51.983291814928066, 29.46582035413624 Q 36.62912663962905, 30.92566388210587, 30.49469643455058, 38.27828403866948 " fill="none" id="curve_2" stroke="#000000" stroke-linecap="round" stroke-linejoin="round" stroke-width="4.944484407648974"/>
  <path d="M 60.34341045325784, 34.4705473522834 Q 52.77182656112767, 42.451231906626816, 41.93420907396893, 59.091387533791746 " fill="none" id="curve_3" stroke="#000000" stroke-linecap="round" stroke-linejoin="round" stroke-width="3.0690940165880924"/>
  <path d="M 41.93420907396893, 59.091387533791746 Q 36.64098288067193, 68.01072525400406, 27.945395295194288, 79.4251592951573 " fill="none" id="curve_3" stroke="#000000" stroke-linecap="round" stroke-linejoin="round" stroke-width="3.0582765113930046"/>
  <path d="M 42.12830587484575, 84.6269693979894 Q 38.986033803237824, 83.80807606042005, 33.75884031327889, 82.97594239879578 " fill="none" id="curve_4" stroke="#000000" stroke-linecap="round" stroke-linejoin="round" stroke-width="2.95324588654389"/>
  <path d="M 57.57718083690557, 34.72283204439298 Q 57.71501796691635, 37.662873541551896, 58.09252330287206, 39.664728527736905 " fill="none" id="curve_6" stroke="#000000" stroke-linecap="round" stroke-linejoin="round" stroke-width="4.463694378947146"/>
  <path d="M 61.87435416953814, 82.16656269748256 Q 53.183064877903234, 83.4822789909019, 45.8945197234446, 87.14356917337251 " fill="none" id="curve_11" stroke="#000000" stroke-linecap="round" stroke-linejoin="round" stroke-width="2.871484070688336"/>
  <path d="M 40.02956552977057, 30.33428007492582 Q 40.294886363626205, 30.440856415473583, 41.141804492171765, 30.680531060512376 " fill="none" id="curve_13" stroke="#000000" stroke-linecap="round" stroke-linejoin="round" stroke-width="2.584607168931307"/>
  <path d="M 56.65788459777832, 28.376850128173828 Q 54.482409357306416, 28.522051232934732, 45.532800075994714, 28.64870742662997 " fill="none" id="curve_27" stroke="#000000" stroke-linecap="round" stroke-linejoin="round" stroke-width="2.306406120478011"/>
  <path d="M 45.69528172433821, 31.20442593943025 Q 33.69971286258868, 32.07935676369502, 29.52494836316844, 38.471391037011834 " fill="none" id="curve_42" stroke="#000000" stroke-linecap="round" stroke-linejoin="round" stroke-width="2.580256849777599"/>
  <path d="M 49.82910649704719, 85.42055354581741 Q 49.92833507101493, 84.94379765639005, 50.190491878259195, 84.48641897735604 " fill="none" id="curve_71" stroke="#000000" stroke-linecap="round" stroke-linejoin="round" stroke-width="3.29801408485327"/>
</svg>
