<?xml version="1.0" ?>
<svg height="140" width="140" xmlns="http://www.w3.org/2000/svg">
  <path d="M 51.0865535736084, 35.92665672302246 Q 46.200857129564625, 36.02514574835147, 41.619024010857686, 36.88380550812343 " fill="none" id="curve_1" stroke="#000000" stroke-linecap="round" stroke-linejoin="round" stroke-width="8.043955935731258"/>
  <path d="M 41.619024010857686, 36.88380550812343 Q 36.36855532122895, 38.817174554853615, 34.534933702700606, 45.18994972012225 " fill="none" id="curve_1" stroke="#000000" stroke-linecap="round" stroke-linejoin="round" stroke-width="4.85713391464037"/>
  <path d="M 34.534933702700606, 45.18994972012225 Q 35.7809142524478, 57.42107068348402, 39.021526308890245, 62.77894340959422 " fill="none" id="curve_1" stroke="#000000" stroke-linecap="round" stroke-linejoin="round" stroke-width="4.338724302313293"/>
  <path d="M 65.84253922861406, 50.42173500646253 Q 63.670869908938315, 67.9164055309613, 40.96857487283084, 84.07076791255056 " fill="none" id="curve_2" stroke="#000000" stroke-linecap="round" stroke-linejoin="round" stroke-width="6.099317562002023"/>
  <path d="M 40.96857487283084, 84.07076791255056 Q 32.73217974858876, 88.69615652646866, 26.29370077501078, 98.18883283097618 " fill="none" id="curve_2" stroke="#000000" stroke-linecap="round" stroke-linejoin="round" stroke-width="4.906235285622369"/>
  <path d="M 26.29370077501078, 98.18883283097618 Q 42.158543898574045, 104.96245329555525, 57.561361426426366, 117.78697853876145 " fill="none" id="curve_2" stroke="#000000" stroke-linecap="round" stroke-linejoin="round" stroke-width="6.249700462761749"/>
  <path d="M 57.561361426426366, 117.78697853876145 Q 71.06552744410187, 117.7735182239941, 71.94474126138243, 117.18172630061991 " fill="none" id="curve_2" stroke="#000000" stroke-linecap="round" stroke-linejoin="round" stroke-width="5.497258010913473"/>
  <path d="M 71.94474126138243, 117.18172630061991 Q 82.16227246626686, 112.85195880918455, 88.33993744760923, 100.4270239810395 " fill="none" id="curve_2" stroke="#000000" stroke-linecap="round" stroke-linejoin="round" stroke-width="4.92930586861557"/>
  <path d="M 56.257407939290175, 66.39495367926024 Q 62.09437971728538, 61.85985442670306, 66.32731417265603, 49.49871868713963 " fill="none" id="curve_3" stroke="#000000" stroke-linecap="round" stroke-linejoin="round" stroke-width="6.151059406690853"/>
  <path d="M 66.32731417265603, 49.49871868713963 Q 65.22876126486359, 36.25597313496613, 48.449369295030934, 33.20573872546417 " fill="none" id="curve_3" stroke="#000000" stroke-linecap="round" stroke-linejoin="round" stroke-width="6.131957995811037"/>
  <path d="M 48.449369295030934, 33.20573872546417 Q 44.93811226233475, 33.575675857588344, 42.453454062616984, 34.612694798135564 " fill="none" id="curve_3" stroke="#000000" stroke-linecap="round" stroke-linejoin="round" stroke-width="3.442320204270786"/>
  <path d="M 1.85242879590366, 16.585031988098685 Q 1.5785409208926484, 28.3888610401221, 0.8359959166157873, 55.12210871092545 " fill="none" id="curve_5" stroke="#000000" stroke-linecap="round" stroke-linejoin="round" stroke-width="2.1095777199022114"/>
  <path d="M 0.8359959166157873, 55.12210871092545 Q 1.5139060781630294, 57.19518452517768, 1.7046177632591282, 87.04137063101776 " fill="none" id="curve_5" stroke="#000000" stroke-linecap="round" stroke-linejoin="round" stroke-width="1.6995174644914794"/>
  <path d="M 1.7046177632591282, 87.04137063101776 Q 1.6384146570241762, 95.73181449196545, 1.4224686711622956, 119.53181496817552 " fill="none" id="curve_5" stroke="#000000" stroke-linecap="round" stroke-linejoin="round" stroke-width="1.906557839687689"/>
  <path d="M 1.4224686711622956, 119.53181496817552 Q 1.5188028256736725, 135.5320582077361, 2.180519308940676, 138.84986148187505 " fill="none" id="curve_5" stroke="#000000" stroke-linecap="round" stroke-linejoin="round" stroke-width="2.4358947789290846"/>
  <path d="M 2.180519308940676, 138.84986148187505 Q 1.9066790652096026, 138.21184446673527, 1.601026429428341, 137.33034287826314 " fill="none" id="curve_5" stroke="#000000" stroke-linecap="round" stroke-linejoin="round" stroke-width="3.0616678479118797"/>
  <path d="M 39.381995261187086, 105.40537188514242 Q 42.15019057337314, 115.77013022348216, 65.48986867420066, 119.07008017307534 " fill="none" id="curve_6" stroke="#000000" stroke-linecap="round" stroke-linejoin="round" stroke-width="3.7730547265782834"/>
  <path d="M 43.51744187937223, 103.59497455611985 Q 37.76044010526317, 100.84370339592651, 27.454693540983662, 97.03883134271403 " fill="none" id="curve_7" stroke="#000000" stroke-linecap="round" stroke-linejoin="round" stroke-width="3.5556999008147447"/>
  <path d="M 48.666853225219405, 75.02221337596004 Q 51.52732282223942, 70.73090051908487, 57.85119504425607, 67.43849158784819 " fill="none" id="curve_8" stroke="#000000" stroke-linecap="round" stroke-linejoin="round" stroke-width="3.3086076337898973"/>
  <path d="M 57.85119504425607, 67.43849158784819 Q 63.45473734404772, 63.34261169844116, 67.74848563672289, 52.81968973255374 " fill="none" id="curve_8" stroke="#000000" stroke-linecap="round" stroke-linejoin="round" stroke-width="2.7855534603041643"/>
  <path d="M 67.74848563672289, 52.81968973255374 Q 65.22965111468496, 44.51833475812435, 55.69912894713086, 37.624411929402214 " fill="none" id="curve_8" stroke="#000000" stroke-linecap="round" stroke-linejoin="round" stroke-width="2.7962228272374574"/>
  <path d="M 34.5436637947139, 56.08866227431878 Q 34.58716234307658, 49.12911377060208, 34.874619195428, 46.841742254607865 " fill="none" id="curve_9" stroke="#000000" stroke-linecap="round" stroke-linejoin="round" stroke-width="2.765556798468391"/>
  <path d="M 34.874619195428, 46.841742254607865 Q 34.04485403512387, 49.39881077922817, 32.76716543902439, 52.74188194663595 " fill="none" id="curve_9" stroke="#000000" stroke-linecap="round" stroke-linejoin="round" stroke-width="3.2842242306617315"/>
  <path d="M 2.325908700311416, 13.262103235604364 Q 1.366549976231203, 12.872413068807527, 1.2608945993461471, 0.6044184410448139 " fill="none" id="curve_10" stroke="#000000" stroke-linecap="round" stroke-linejoin="round" stroke-width="2.2552230038651873"/>
  <path d="M 37.83717258932884, 42.48994211530143 Q 37.07974122928098, 45.356740369616354, 34.86716275028162, 47.036974851614396 " fill="none" id="curve_13" stroke="#000000" stroke-linecap="round" stroke-linejoin="round" stroke-width="2.6832779861242884"/>
  <path d="M 48.82651867903455, 75.61952395636045 Q 43.76423922936513, 79.83245387238924, 33.27296389861091, 86.75247577498672 " fill="none" id="curve_14" stroke="#000000" stroke-linecap="round" stroke-linejoin="round" stroke-width="3.0186432374284706"/>
  <path d="M 33.27296389861091, 86.75247577498672 Q 30.71513649293937, 92.54929063589664, 25.39852364409144, 96.3228786655891 " fill="none" id="curve_14" stroke="#000000" stroke-linecap="round" stroke-linejoin="round" stroke-width="2.5800522953125005"/>
  <path d="M 57.97257198969075, 114.99255750323424 Q 60.145734344468956, 118.85749156822759, 69.18629736236848, 119.94739992673337 " fill="none" id="curve_16" stroke="#000000" stroke-linecap="round" stroke-linejoin="round" stroke-width="4.0095139173881"/>
  <path d="M 87.9852421338322, 100.98478105070444 Q 88.73548431525937, 99.13771920518346, 89.6005836258238, 96.87092650558411 " fill="none" id="curve_17" stroke="#000000" stroke-linecap="round" stroke-linejoin="round" stroke-width="2.880626131647074"/>
  <path d="M 73.2597720247118, 114.39732910024938 Q 79.32633701888754, 111.35171774605267, 84.38491971431333, 105.05121314400823 " fill="none" id="curve_18" stroke="#000000" stroke-linecap="round" stroke-linejoin="round" stroke-width="2.542641829517088"/>
  <path d="M 64.11856108074065, 119.90708063735416 Q 63.677940944062314, 120.2556734839614, 58.59172420863982, 120.32817296876361 " fill="none" id="curve_19" stroke="#000000" stroke-linecap="round" stroke-linejoin="round" stroke-width="1.5693890043051846"/>
  <path d="M 58.59172420863982, 120.32817296876361 Q 58.31746891136074, 114.25409400021347, 55.313747954669935, 113.1635334995293 " fill="none" id="curve_19" stroke="#000000" stroke-linecap="round" stroke-linejoin="round" stroke-width="2.5747240824428843"/>
  <path d="M 55.313747954669935, 113.1635334995293 Q 58.428204715598795, 114.57576459227353, 68.32984972783123, 115.17897564487915 " fill="none" id="curve_19" stroke="#000000" stroke-linecap="round" stroke-linejoin="round" stroke-width="1.933953224753682"/>
  <path d="M 82.27686340891464, 106.20698989146894 Q 79.88981289401337, 107.86278998110018, 77.65006300356077, 111.33459023145977 " fill="none" id="curve_21" stroke="#000000" stroke-linecap="round" stroke-linejoin="round" stroke-width="2.878651369945316"/>
  <path d="M 73.57621158526946, 115.42288120982366 Q 72.21548293453188, 115.51363132959402, 70.72486511709299, 115.67275114686743 " fill="none" id="curve_22" stroke="#000000" stroke-linecap="round" stroke-linejoin="round" stroke-width="4.617609981513574"/>
  <path d="M 40.0554739063171, 108.750169328633 Q 38.724216398226844, 105.81321928184907, 36.25426738617929, 102.54666424836209 " fill="none" id="curve_23" stroke="#000000" stroke-linecap="round" stroke-linejoin="round" stroke-width="3.177951445208293"/>
  <path d="M 27.00329258361025, 94.09890686720114 Q 28.24707721550677, 93.78474854981421, 29.66684809411177, 92.90270330932196 " fill="none" id="curve_24" stroke="#000000" stroke-linecap="round" stroke-linejoin="round" stroke-width="2.865169862211337"/>
  <path d="M 30.766821837669852, 91.0385153256594 Q 31.53572787487817, 91.82813980136486, 34.15965334671053, 92.75120571215884 " fill="none" id="curve_67" stroke="#000000" stroke-linecap="round" stroke-linejoin="round" stroke-width="1.9359570634061514"/>
  <path d="M 43.18688478259393, 80.76022848282251 Q 45.02748012386406, 80.91109562102871, 46.87587750623642, 81.23958248955645 " fill="none" id="curve_96" stroke="#000000" stroke-linecap="round" stroke-linejoin="round" stroke-width="3.7185203354157657"/>
  <path d="M 77.67568218863613, 116.15327509018357 Q 76.39103894225646, 116.11780411173164, 75.0216012998828, 116.04410386149979 " fill="none" id="curve_124" stroke="#000000" stroke-linecap="round" stroke-linejoin="round" stroke-width="2.8741488164281614"/>
  <path d="M 61.076568864685534, 62.64939786847312 Q 60.48564390103343, 61.20533552386187, 58.81368313566515, 60.165883743283594 " fill="none" id="curve_159" stroke="#000000" stroke-linecap="round" stroke-linejoin="round" stroke-width="3.3325972041927376"/>
</svg>
