<?xml version="1.0" ?>
<svg height="140" width="140" xmlns="http://www.w3.org/2000/svg">
  <path d="M 26.92143940925598, 90.2185338139534 Q 26.01128910914719, 99.60892511680115, 21.25024943451763, 106.29518344750431 " fill="none" id="curve_1" stroke="#000000" stroke-linecap="round" stroke-linejoin="round" stroke-width="5.260895153239552"/>
  <path d="M 21.25024943451763, 106.29518344750431 Q 21.33603797092404, 108.39096272647197, 25.071859323581226, 108.54830722428547 " fill="none" id="curve_1" stroke="#000000" stroke-linecap="round" stroke-linejoin="round" stroke-width="4.671203616606713"/>
  <path d="M 25.071859323581226, 108.54830722428547 Q 36.62299286036838, 107.52842110147691, 47.422557381638, 103.31189991055317 " fill="none" id="curve_1" stroke="#000000" stroke-linecap="round" stroke-linejoin="round" stroke-width="4.486080972700578"/>
  <path d="M 47.422557381638, 103.31189991055317 Q 53.532736439148856, 100.96753143223492, 62.48507010105958, 98.4408844521615 " fill="none" id="curve_1" stroke="#000000" stroke-linecap="round" stroke-linejoin="round" stroke-width="3.414161564054535"/>
  <path d="M 28.157348947560365, 95.11017564989714 Q 31.12993019221977, 88.38349211106409, 35.79707246194752, 65.78207496149798 " fill="none" id="curve_2" stroke="#000000" stroke-linecap="round" stroke-linejoin="round" stroke-width="6.589638114408421"/>
  <path d="M 35.79707246194752, 65.78207496149798 Q 35.711185800294295, 51.36710007241612, 29.946539599599586, 50.7429050160707 " fill="none" id="curve_2" stroke="#000000" stroke-linecap="round" stroke-linejoin="round" stroke-width="5.62602232323648"/>
  <path d="M 29.946539599599586, 50.7429050160707 Q 12.561701076074815, 51.4124739953851, 10.456632319460798, 66.01013447937136 " fill="none" id="curve_2" stroke="#000000" stroke-linecap="round" stroke-linejoin="round" stroke-width="5.867333480419279"/>
  <path d="M 10.456632319460798, 66.01013447937136 Q 11.198234382203271, 69.58667985039675, 14.095368511958506, 70.82175353047802 " fill="none" id="curve_2" stroke="#000000" stroke-linecap="round" stroke-linejoin="round" stroke-width="3.8006315360205987"/>
  <path d="M 26.13774500636857, 100.35525492461213 Q 27.28637649124011, 98.94944801327149, 28.087608332268786, 94.95795557229543 " fill="none" id="curve_3" stroke="#000000" stroke-linecap="round" stroke-linejoin="round" stroke-width="3.5340151227925745"/>
  <path d="M 26.331999569770286, 107.44724334270475 Q 26.0716081249571, 106.25433760533741, 25.407253651863275, 105.01167072743283 " fill="none" id="curve_8" stroke="#000000" stroke-linecap="round" stroke-linejoin="round" stroke-width="4.738168457575902"/>
  <path d="M 27.725836151256246, 91.24319166135109 Q 29.310283232047354, 86.13806599293142, 32.584758176964854, 80.75066966268551 " fill="none" id="curve_14" stroke="#000000" stroke-linecap="round" stroke-linejoin="round" stroke-width="2.6554779369186567"/>
  <path d="M 15.433801602130284, 59.65101662868733 Q 13.761035704589098, 59.96196464131908, 12.305673844908188, 60.78443746192649 " fill="none" id="curve_15" stroke="#000000" stroke-linecap="round" stroke-linejoin="round" stroke-width="5.7656484039934925"/>
  <path d="M 29.267149384829107, 107.96207075689824 Q 36.16472092911719, 107.36449902002046, 40.174304545600265, 105.1196800926327 " fill="none" id="curve_22" stroke="#000000" stroke-linecap="round" stroke-linejoin="round" stroke-width="3.4687354690789065"/>
  <path d="M 32.11494069309875, 52.29309293195175 Q 33.725579451817836, 52.5256820444896, 35.623867213567515, 53.189840875659385 " fill="none" id="curve_25" stroke="#000000" stroke-linecap="round" stroke-linejoin="round" stroke-width="3.249182747161779"/>
  <path d="M 37.05546597083048, 56.17860130880263 Q 35.180524086786704, 55.47814708714374, 32.57504249742648, 54.332625701449864 " fill="none" id="curve_40" stroke="#000000" stroke-linecap="round" stroke-linejoin="round" stroke-width="3.5339056494784478"/>
  <path d="M 63.580617979827935, 97.18525200756278 Q 63.67933472468966, 97.12121505396821, 63.80655830144614, 96.9939862416958 " fill="none" id="curve_81" stroke="#000000" stroke-linecap="round" stroke-linejoin="round" stroke-width="1.7500778515837472"/>
  <path d="M 37.08140473503063, 107.2106147459273 Q 31.562566387737732, 107.28072876382235, 26.962793905481032, 107.43716761907814 " fill="none" id="curve_82" stroke="#000000" stroke-linecap="round" stroke-linejoin="round" stroke-width="3.3634910627731407"/>
  <path d="M 32.597985471892116, 109.16672979771701 Q 32.74717665363142, 108.27562009764021, 32.88804096240563, 106.35684061893991 " fill="none" id="curve_110" stroke="#000000" stroke-linecap="round" stroke-linejoin="round" stroke-width="3.988128320121399"/>
</svg>
