<?xml version="1.0" ?>
<svg height="140" width="140" xmlns="http://www.w3.org/2000/svg">
  <path d="M 42.55378341674805, 57.81443214416504 Q 42.395147056964966, 56.281401524052654, 40.54312131850028, 55.8558078874554 " fill="none" id="curve_1" stroke="#000000" stroke-linecap="round" stroke-linejoin="round" stroke-width="6.924313160883745"/>
  <path d="M 40.54312131850028, 55.8558078874554 Q 32.6693184726611, 57.30965725332902, 21.495666283908417, 65.73567519321116 " fill="none" id="curve_1" stroke="#000000" stroke-linecap="round" stroke-linejoin="round" stroke-width="3.894556662229167"/>
  <path d="M 21.495666283908417, 65.73567519321116 Q 18.46156500068875, 68.32636927303186, 15.480426687793724, 71.47661031601334 " fill="none" id="curve_1" stroke="#000000" stroke-linecap="round" stroke-linejoin="round" stroke-width="3.7784964492113478"/>
  <path d="M 38.70143550912838, 67.705384345183 Q 33.81305853017001, 74.78703997582275, 16.616803622763847, 94.41102991198325 " fill="none" id="curve_2" stroke="#000000" stroke-linecap="round" stroke-linejoin="round" stroke-width="4.578842500248727"/>
  <path d="M 16.616803622763847, 94.41102991198325 Q 17.051669892018644, 103.79458960828902, 23.599930562548316, 104.69276752580231 " fill="none" id="curve_2" stroke="#000000" stroke-linecap="round" stroke-linejoin="round" stroke-width="6.741160416631704"/>
  <path d="M 23.599930562548316, 104.69276752580231 Q 39.13221994988223, 103.50747723472222, 53.23477416318374, 99.28588480280133 " fill="none" id="curve_2" stroke="#000000" stroke-linecap="round" stroke-linejoin="round" stroke-width="5.237652918593426"/>
  <path d="M 53.23477416318374, 99.28588480280133 Q 56.19552258905062, 99.24466815802708, 57.37471314749701, 99.08219461042536 " fill="none" id="curve_2" stroke="#000000" stroke-linecap="round" stroke-linejoin="round" stroke-width="4.440134045790622"/>
  <path d="M 40.24860856944391, 64.47168136076496 Q 42.71007301354263, 63.26934922161586, 43.562272539215954, 57.78298761720822 " fill="none" id="curve_3" stroke="#000000" stroke-linecap="round" stroke-linejoin="round" stroke-width="4.91446193303672"/>
  <path d="M 43.562272539215954, 57.78298761720822 Q 37.363404134065966, 68.62274447124572, 23.940673297974264, 84.09765302978934 " fill="none" id="curve_3" stroke="#000000" stroke-linecap="round" stroke-linejoin="round" stroke-width="2.252989502664963"/>
  <path d="M 23.940673297974264, 84.09765302978934 Q 18.809414594969173, 87.07147674651888, 17.37377841803013, 102.04066346338575 " fill="none" id="curve_3" stroke="#000000" stroke-linecap="round" stroke-linejoin="round" stroke-width="3.2635058018447682"/>
  <path d="M 17.37377841803013, 102.04066346338575 Q 18.47276704186487, 95.09905163924427, 20.18888193961292, 87.81211552839333 " fill="none" id="curve_3" stroke="#000000" stroke-linecap="round" stroke-linejoin="round" stroke-width="3.2715542083579265"/>
  <path d="M 42.42758219014969, 100.56408384945439 Q 38.667496821569266, 101.60728677108285, 33.78320679572723, 103.11722131841613 " fill="none" id="curve_4" stroke="#000000" stroke-linecap="round" stroke-linejoin="round" stroke-width="3.0616030481257295"/>
  <path d="M 23.960025787353516, 104.27844142913818 Q 22.476535642640822, 101.29053048666823, 15.425359422889187, 99.6699170803746 " fill="none" id="curve_18" stroke="#000000" stroke-linecap="round" stroke-linejoin="round" stroke-width="3.633003757915095"/>
  <path d="M 43.866123863642486, 100.85828961213873 Q 45.62021044851826, 100.39703047405926, 49.809609265588975, 99.9997005708378 " fill="none" id="curve_20" stroke="#000000" stroke-linecap="round" stroke-linejoin="round" stroke-width="3.1440556066208094"/>
  <path d="M 40.45123082846964, 54.47365890306265 Q 42.31879965450973, 54.891569622665976, 44.07853156079712, 55.83693904745647 " fill="none" id="curve_21" stroke="#000000" stroke-linecap="round" stroke-linejoin="round" stroke-width="2.6987512214351534"/>
  <path d="M 58.52783911657332, 98.77265808180897 Q 44.69577304243905, 99.38752620192582, 35.555270329404316, 102.03018148359966 " fill="none" id="curve_36" stroke="#000000" stroke-linecap="round" stroke-linejoin="round" stroke-width="3.153258454700435"/>
  <path d="M 27.92671412921595, 103.81678709752292 Q 24.332867866839372, 103.09889627385066, 19.19272765276819, 102.23164299646984 " fill="none" id="curve_65" stroke="#000000" stroke-linecap="round" stroke-linejoin="round" stroke-width="3.757235703384001"/>
</svg>
