<?xml version="1.0" ?>
<svg height="140" width="140" xmlns="http://www.w3.org/2000/svg">
  <path d="M 58.71138668060303, 50.68757247924805 Q 60.108280830753166, 51.1815157705368, 61.12320220057191, 53.23194577436067 " fill="none" id="curve_1" stroke="#000000" stroke-linecap="round" stroke-linejoin="round" stroke-width="6.602277834966915"/>
  <path d="M 61.12320220057191, 53.23194577436067 Q 59.848637221319954, 65.1391562687834, 49.19496858270162, 79.73958010013504 " fill="none" id="curve_1" stroke="#000000" stroke-linecap="round" stroke-linejoin="round" stroke-width="3.823572849604876"/>
  <path d="M 49.19496858270162, 79.73958010013504 Q 43.95181975896486, 86.21400093696823, 40.0021064743183, 99.64516691052643 " fill="none" id="curve_1" stroke="#000000" stroke-linecap="round" stroke-linejoin="round" stroke-width="5.203448282907784"/>
  <path d="M 40.0021064743183, 99.64516691052643 Q 45.918834358171644, 102.93294380464963, 62.39467478234512, 104.28535335944603 " fill="none" id="curve_1" stroke="#000000" stroke-linecap="round" stroke-linejoin="round" stroke-width="5.666939773956826"/>
  <path d="M 36.64497453914896, 52.63915718423438 Q 37.036807822710905, 47.38408850219097, 58.7719469201636, 47.05750712473183 " fill="none" id="curve_3" stroke="#000000" stroke-linecap="round" stroke-linejoin="round" stroke-width="4.633204822733154"/>
  <path d="M 34.60731675425987, 51.55351058838109 Q 33.54671255209297, 51.87352118511696, 33.18422083514609, 53.32667498603919 " fill="none" id="curve_4" stroke="#000000" stroke-linecap="round" stroke-linejoin="round" stroke-width="5.340215803166464"/>
  <path d="M 60.42990848891456, 48.75056431224056 Q 59.73337769055428, 48.94838628810194, 58.77443884354286, 49.17286891629486 " fill="none" id="curve_5" stroke="#000000" stroke-linecap="round" stroke-linejoin="round" stroke-width="5.811393497663216"/>
  <path d="M 47.874448783770355, 81.2592023607475 Q 45.09442539471702, 85.89864544726271, 41.1859547224067, 92.42236676935725 " fill="none" id="curve_6" stroke="#000000" stroke-linecap="round" stroke-linejoin="round" stroke-width="3.8566220890901284"/>
  <path d="M 49.13962597230444, 79.37938124125064 Q 48.19385174261886, 82.28536617478986, 45.892749000632385, 84.84949016726287 " fill="none" id="curve_7" stroke="#000000" stroke-linecap="round" stroke-linejoin="round" stroke-width="3.683650319852519"/>
  <path d="M 33.26860944606821, 50.94372986713001 Q 39.9288566660186, 49.444283976039785, 49.191635166564296, 47.20808940367837 " fill="none" id="curve_8" stroke="#000000" stroke-linecap="round" stroke-linejoin="round" stroke-width="2.7273422895161343"/>
  <path d="M 46.96788436149918, 98.16728308080226 Q 47.94122017386628, 102.2611680956747, 57.84128710437146, 103.08278355340704 " fill="none" id="curve_9" stroke="#000000" stroke-linecap="round" stroke-linejoin="round" stroke-width="3.289770152226221"/>
  <path d="M 57.8925914683279, 50.11940304798477 Q 57.11425825455547, 49.39228775266846, 55.59802132603525, 48.395815704757844 " fill="none" id="curve_12" stroke="#000000" stroke-linecap="round" stroke-linejoin="round" stroke-width="4.075120337338373"/>
  <path d="M 48.00873565673828, 85.04057693481445 Q 48.025677813508025, 82.72629871803812, 48.09149566982939, 80.76724431170649 " fill="none" id="curve_26" stroke="#000000" stroke-linecap="round" stroke-linejoin="round" stroke-width="4.55886718045088"/>
  <path d="M 56.57417118826554, 63.50572090620099 Q 58.17538333345126, 60.69204509724842, 60.483544181342054, 55.46630475332319 " fill="none" id="curve_27" stroke="#000000" stroke-linecap="round" stroke-linejoin="round" stroke-width="2.6476993449301887"/>
  <path d="M 49.472924825164775, 48.220728088106654 Q 48.472008223111374, 47.916354753917254, 45.877269686091594, 47.4284803810803 " fill="none" id="curve_35" stroke="#000000" stroke-linecap="round" stroke-linejoin="round" stroke-width="3.3010117050214927"/>
  <path d="M 49.37832354213465, 45.04429053561098 Q 49.08762154318566, 48.78391465153369, 43.12405931879391, 49.21515378610346 " fill="none" id="curve_41" stroke="#000000" stroke-linecap="round" stroke-linejoin="round" stroke-width="2.82653217706211"/>
  <path d="M 51.21527853228275, 77.20927800034039 Q 49.67439556737529, 78.46256577696855, 45.66894867385107, 80.36020882763384 " fill="none" id="curve_45" stroke="#000000" stroke-linecap="round" stroke-linejoin="round" stroke-width="2.9452161875986658"/>
  <path d="M 63.393104585271885, 103.48219493526051 Q 55.40986786920279, 102.75443760954667, 47.83921327391441, 100.21287394445501 " fill="none" id="curve_60" stroke="#000000" stroke-linecap="round" stroke-linejoin="round" stroke-width="2.4761469520265735"/>
  <path d="M 47.83921327391441, 100.21287394445501 Q 53.05992765425222, 100.67703400888261, 55.36660362288897, 102.30410163108584 " fill="none" id="curve_60" stroke="#000000" stroke-linecap="round" stroke-linejoin="round" stroke-width="2.7931406216406147"/>
  <path d="M 38.94548361356556, 97.01789822985302 Q 39.48353355947633, 95.17889396701477, 40.81682748818324, 93.92311050231362 " fill="none" id="curve_61" stroke="#000000" stroke-linecap="round" stroke-linejoin="round" stroke-width="2.8628022029746543"/>
  <path d="M 55.43581458166818, 64.82071102105895 Q 57.74742194319377, 58.39226528293935, 62.65729837713651, 51.231329990902694 " fill="none" id="curve_76" stroke="#000000" stroke-linecap="round" stroke-linejoin="round" stroke-width="2.7254101048472865"/>
  <path d="M 61.08302973938048, 49.27389651686808 Q 59.476947972504774, 48.45749066399827, 50.24727258518615, 47.9434590527153 " fill="none" id="curve_94" stroke="#000000" stroke-linecap="round" stroke-linejoin="round" stroke-width="2.3247807510676024"/>
</svg>
