<?xml version="1.0" ?>
<svg height="140" width="140" xmlns="http://www.w3.org/2000/svg">
  <path d="M 46.095287799835205, 93.78688049316406 Q 46.33162938970068, 93.40592585352131, 46.44184508593083, 90.3660641780595 " fill="none" id="curve_1" stroke="#000000" stroke-linecap="round" stroke-linejoin="round" stroke-width="6.845999313004979"/>
  <path d="M 46.44184508593083, 90.3660641780595 Q 48.673481151366815, 82.18457495455058, 56.903292156275484, 74.23114706400813 " fill="none" id="curve_1" stroke="#000000" stroke-linecap="round" stroke-linejoin="round" stroke-width="6.814629918833821"/>
  <path d="M 56.903292156275484, 74.23114706400813 Q 62.739530308533325, 67.28489720361978, 75.962335978639, 49.473629696443325 " fill="none" id="curve_1" stroke="#000000" stroke-linecap="round" stroke-linejoin="round" stroke-width="6.3002923338376995"/>
  <path d="M 75.962335978639, 49.473629696443325 Q 77.3873528845765, 43.90699619488541, 79.23767657421567, 38.06931783583 " fill="none" id="curve_1" stroke="#000000" stroke-linecap="round" stroke-linejoin="round" stroke-width="7.585156423201729"/>
  <path d="M 79.23767657421567, 38.06931783583 Q 78.89880717718583, 27.974721631908995, 71.1438526177914, 27.016451729756277 " fill="none" id="curve_1" stroke="#000000" stroke-linecap="round" stroke-linejoin="round" stroke-width="6.265328995569501"/>
  <path d="M 71.1438526177914, 27.016451729756277 Q 58.18371363875383, 29.93920468600194, 41.38585928046369, 43.609052805146796 " fill="none" id="curve_1" stroke="#000000" stroke-linecap="round" stroke-linejoin="round" stroke-width="7.096281837156404"/>
  <path d="M 41.38585928046369, 43.609052805146796 Q 39.81329819248853, 45.46628963560555, 38.683167678069935, 48.853735132524854 " fill="none" id="curve_1" stroke="#000000" stroke-linecap="round" stroke-linejoin="round" stroke-width="7.51013157987882"/>
  <path d="M 88.51637326113052, 93.92365493467426 Q 82.72510525598298, 96.62405188407452, 63.94095835317245, 99.49889130380939 " fill="none" id="curve_3" stroke="#000000" stroke-linecap="round" stroke-linejoin="round" stroke-width="7.155197922811914"/>
  <path d="M 63.94095835317245, 99.49889130380939 Q 52.79332488226139, 99.2363366402326, 48.3963492497565, 98.03674980558884 " fill="none" id="curve_3" stroke="#000000" stroke-linecap="round" stroke-linejoin="round" stroke-width="7.912587986867632"/>
  <path d="M 48.3963492497565, 98.03674980558884 Q 47.852469781238874, 95.83057766548495, 45.807476581968274, 95.14516034674138 " fill="none" id="curve_3" stroke="#000000" stroke-linecap="round" stroke-linejoin="round" stroke-width="6.764399945123699"/>
  <path d="M 52.899619254533434, 33.21746884770978 Q 43.53723086611582, 36.79344782637943, 36.827487063697454, 46.38967902499515 " fill="none" id="curve_5" stroke="#000000" stroke-linecap="round" stroke-linejoin="round" stroke-width="3.7303682096287383"/>
  <path d="M 70.86239489700156, 54.21010150703712 Q 72.16597268025144, 48.44874808300153, 76.6480233644064, 44.45084125540265 " fill="none" id="curve_6" stroke="#000000" stroke-linecap="round" stroke-linejoin="round" stroke-width="2.7597605211167866"/>
  <path d="M 67.72333196116337, 24.980793485396195 Q 61.528131064165464, 27.251667413021984, 54.71198995395524, 31.82440426615104 " fill="none" id="curve_7" stroke="#000000" stroke-linecap="round" stroke-linejoin="round" stroke-width="2.806127262523662"/>
  <path d="M 72.60638097086208, 29.884245285379937 Q 72.2333710446865, 29.964568421475146, 71.48314864897577, 30.04390368099228 " fill="none" id="curve_8" stroke="#000000" stroke-linecap="round" stroke-linejoin="round" stroke-width="3.5762768649825607"/>
  <path d="M 36.69459822148873, 49.40225869363367 Q 37.56884778841523, 49.55313132446292, 38.90232607634067, 49.742638503895755 " fill="none" id="curve_10" stroke="#000000" stroke-linecap="round" stroke-linejoin="round" stroke-width="3.8855697970786007"/>
  <path d="M 54.0892328279228, 78.53074747901059 Q 59.10170608794732, 68.87251199248543, 72.44109359956752, 52.75581886444459 " fill="none" id="curve_12" stroke="#000000" stroke-linecap="round" stroke-linejoin="round" stroke-width="2.7724266702356974"/>
  <path d="M 67.89671622976907, 99.34950549592827 Q 78.34304300854896, 96.88969063493691, 89.07444815391923, 92.8065187580374 " fill="none" id="curve_14" stroke="#000000" stroke-linecap="round" stroke-linejoin="round" stroke-width="3.1934093862129354"/>
  <path d="M 54.319664318591805, 98.34079635087707 Q 49.90449041194839, 96.76925668626151, 47.568694014717416, 90.95653563273156 " fill="none" id="curve_15" stroke="#000000" stroke-linecap="round" stroke-linejoin="round" stroke-width="3.079568811641974"/>
  <path d="M 80.3803619778359, 95.87156602584717 Q 83.3867006457742, 94.57269766852224, 87.73927978303348, 93.19838956855868 " fill="none" id="curve_16" stroke="#000000" stroke-linecap="round" stroke-linejoin="round" stroke-width="3.4028314731779266"/>
  <path d="M 84.5409090959493, 93.25080042179113 Q 79.93433968968534, 94.71078800844397, 75.20841243081756, 97.67665141374538 " fill="none" id="curve_57" stroke="#000000" stroke-linecap="round" stroke-linejoin="round" stroke-width="2.7591516277893753"/>
  <path d="M 52.096283967988384, 31.90446215293834 Q 53.41855301301158, 31.68268557014871, 55.05779122110254, 31.13273365730986 " fill="none" id="curve_76" stroke="#000000" stroke-linecap="round" stroke-linejoin="round" stroke-width="2.1884685459772055"/>
  <path d="M 41.29976549608783, 49.06166629534201 Q 41.093366820758874, 49.510882184795534, 40.441849824770536, 49.91557477908735 " fill="none" id="curve_92" stroke="#000000" stroke-linecap="round" stroke-linejoin="round" stroke-width="2.769756752738661"/>
  <path d="M 55.80167651955753, 75.33543030533072 Q 60.15858129162349, 67.06269056544477, 69.62993856082916, 57.588825696554416 " fill="none" id="curve_98" stroke="#000000" stroke-linecap="round" stroke-linejoin="round" stroke-width="2.6131122888624634"/>
</svg>
