<?xml version="1.0" ?>
<svg height="140" width="140" xmlns="http://www.w3.org/2000/svg">
  <path d="M 71.64959669113159, 20.907588958740234 Q 70.75248088809768, 28.30437137627913, 67.8107514114356, 36.830261452642844 " fill="none" id="curve_1" stroke="#000000" stroke-linecap="round" stroke-linejoin="round" stroke-width="6.462517212764441"/>
  <path d="M 67.8107514114356, 36.830261452642844 Q 65.09969974784595, 45.35221865041464, 55.811679136887506, 64.73257178213318 " fill="none" id="curve_1" stroke="#000000" stroke-linecap="round" stroke-linejoin="round" stroke-width="4.745400947085102"/>
  <path d="M 55.811679136887506, 64.73257178213318 Q 52.67329087534434, 74.03881161285156, 43.28644170668194, 96.65991048228368 " fill="none" id="curve_1" stroke="#000000" stroke-linecap="round" stroke-linejoin="round" stroke-width="4.722402775247401"/>
  <path d="M 43.28644170668194, 96.65991048228368 Q 40.52179088354036, 106.5721415855238, 37.283492848012735, 117.2911281325427 " fill="none" id="curve_1" stroke="#000000" stroke-linecap="round" stroke-linejoin="round" stroke-width="5.4673197472064095"/>
  <path d="M 37.283492848012735, 117.2911281325427 Q 55.709657063881195, 114.57976120637983, 78.16121245550957, 98.48086886329425 " fill="none" id="curve_1" stroke="#000000" stroke-linecap="round" stroke-linejoin="round" stroke-width="3.950985450480708"/>
  <path d="M 78.16121245550957, 98.48086886329425 Q 81.19352620961682, 97.3026202374556, 83.76848653784585, 95.14248797342022 " fill="none" id="curve_1" stroke="#000000" stroke-linecap="round" stroke-linejoin="round" stroke-width="3.1626473003113342"/>
  <path d="M 1.9634349522763301, 137.7334407483045 Q 2.023383555758744, 138.57347906604758, 2.2866946770147383, 139.0927185123222 " fill="none" id="curve_3" stroke="#000000" stroke-linecap="round" stroke-linejoin="round" stroke-width="2.076181688829552"/>
  <path d="M 1.4469983768791366, 129.47620897791722 Q 1.33114516580458, 128.2630908989743, 1.154973129776797, 125.8185203139958 " fill="none" id="curve_4" stroke="#000000" stroke-linecap="round" stroke-linejoin="round" stroke-width="1.407213826839023"/>
  <path d="M 1.154973129776797, 125.8185203139958 Q 1.159529073862929, 120.3270116188387, 1.1695273002104585, 113.54188392916275 " fill="none" id="curve_4" stroke="#000000" stroke-linecap="round" stroke-linejoin="round" stroke-width="1.382098051715161"/>
  <path d="M 1.4185290642401422, 107.19360237132148 Q 1.3880038437037931, 107.15457452948414, 1.3550330415879084, 107.02248023535583 " fill="none" id="curve_5" stroke="#000000" stroke-linecap="round" stroke-linejoin="round" stroke-width="1.548826466578691"/>
  <path d="M 1.6612839201528207, 134.36829605312903 Q 1.421754304333719, 133.281660591714, 1.0465105518164257, 131.6364706715716 " fill="none" id="curve_6" stroke="#000000" stroke-linecap="round" stroke-linejoin="round" stroke-width="1.7278970636835633"/>
  <path d="M 0.6269010816376007, 111.8214401548248 Q 0.979227603395356, 110.28555214603422, 1.2203162914153487, 104.25131430778762 " fill="none" id="curve_7" stroke="#000000" stroke-linecap="round" stroke-linejoin="round" stroke-width="1.3507875976899208"/>
  <path d="M 1.1600064622149873, 97.230696282715 Q 0.9926432511331402, 92.44461893714782, 0.7846366012679281, 78.36444379147068 " fill="none" id="curve_8" stroke="#000000" stroke-linecap="round" stroke-linejoin="round" stroke-width="1.3723851571705983"/>
  <path d="M 35.56143270672497, 36.899148622015126 Q 38.533789655619884, 32.268499266336406, 47.94511027950785, 25.40278035533008 " fill="none" id="curve_10" stroke="#000000" stroke-linecap="round" stroke-linejoin="round" stroke-width="6.845102631627785"/>
  <path d="M 47.94511027950785, 25.40278035533008 Q 50.80343415245482, 21.094407572718758, 68.62415139004978, 19.2839303967002 " fill="none" id="curve_10" stroke="#000000" stroke-linecap="round" stroke-linejoin="round" stroke-width="5.827544823229588"/>
  <path d="M 68.62415139004978, 19.2839303967002 Q 70.80985337561737, 23.72501936345835, 71.95887041501092, 32.063197664871176 " fill="none" id="curve_10" stroke="#000000" stroke-linecap="round" stroke-linejoin="round" stroke-width="3.7549381885510535"/>
  <path d="M 41.09896011721911, 33.42857742244122 Q 37.271837699891144, 34.32593138345908, 36.07008789812816, 38.17958435615144 " fill="none" id="curve_11" stroke="#000000" stroke-linecap="round" stroke-linejoin="round" stroke-width="4.561960466036435"/>
  <path d="M 2.0791652560542815, 45.70134622634491 Q 1.7851884761303052, 55.17111357938832, 0.7808061121176375, 66.74538712406161 " fill="none" id="curve_12" stroke="#000000" stroke-linecap="round" stroke-linejoin="round" stroke-width="1.4778670389371704"/>
  <path d="M 1.0722359602681268, 29.06528800717821 Q 1.0500825376044016, 38.60420444220629, 0.9436491361185291, 42.87347281078264 " fill="none" id="curve_14" stroke="#000000" stroke-linecap="round" stroke-linejoin="round" stroke-width="2.0873267338949604"/>
  <path d="M 0.39238927755383424, 26.290231025864248 Q 0.5492168622338488, 22.4359476612058, 0.7113891712179073, 12.392911464721132 " fill="none" id="curve_15" stroke="#000000" stroke-linecap="round" stroke-linejoin="round" stroke-width="1.3381635875442244"/>
  <path d="M 0.8240252981551294, 2.610872880150179 Q 0.8435213443811087, 6.005010392555404, 0.8713816882329036, 10.944320095473515 " fill="none" id="curve_16" stroke="#000000" stroke-linecap="round" stroke-linejoin="round" stroke-width="1.7137705168994881"/>
  <path d="M 35.23927173686893, 34.95851329036994 Q 37.44017217706199, 30.920014900341588, 44.01532738448369, 26.290380397825558 " fill="none" id="curve_17" stroke="#000000" stroke-linecap="round" stroke-linejoin="round" stroke-width="2.4341403662426684"/>
  <path d="M 51.285902771950276, 74.14480843522975 Q 48.83952637210909, 78.96300434838624, 45.08286693900706, 89.08772957375592 " fill="none" id="curve_21" stroke="#000000" stroke-linecap="round" stroke-linejoin="round" stroke-width="2.7731745008073636"/>
  <path d="M 45.302659207405895, 94.14961799209239 Q 40.3073481332599, 98.65716194766816, 37.84411539770873, 114.52841748491025 " fill="none" id="curve_23" stroke="#000000" stroke-linecap="round" stroke-linejoin="round" stroke-width="3.0764040637350023"/>
  <path d="M 67.98581833191048, 103.38531119662522 Q 68.13032554211001, 101.36789685142811, 71.7900472644562, 100.87719484723664 " fill="none" id="curve_25" stroke="#000000" stroke-linecap="round" stroke-linejoin="round" stroke-width="2.185590308645794"/>
  <path d="M 71.7900472644562, 100.87719484723664 Q 68.10498714415446, 104.08092796373867, 59.88524944486882, 107.51524294003934 " fill="none" id="curve_25" stroke="#000000" stroke-linecap="round" stroke-linejoin="round" stroke-width="2.5293969900539257"/>
  <path d="M 42.56465984661445, 118.09915416402508 Q 39.55799086715494, 117.13594357891971, 37.662788558276276, 114.40060991958433 " fill="none" id="curve_26" stroke="#000000" stroke-linecap="round" stroke-linejoin="round" stroke-width="3.621666072595587"/>
  <path d="M 1.5304743898845832, 76.26736950208473 Q 1.0502820576454128, 75.29929144783601, 0.8665705536196225, 67.61685035950649 " fill="none" id="curve_31" stroke="#000000" stroke-linecap="round" stroke-linejoin="round" stroke-width="1.5074471167816164"/>
  <path d="M 71.79367099267347, 23.895905553286525 Q 70.2269549630422, 27.256810479698892, 67.67518400919863, 32.21428836913889 " fill="none" id="curve_46" stroke="#000000" stroke-linecap="round" stroke-linejoin="round" stroke-width="2.4154880343788605"/>
  <path d="M 53.09726665852844, 68.87255121418775 Q 51.39983756922752, 73.2149890025789, 48.582807040758475, 80.08401880400679 " fill="none" id="curve_61" stroke="#000000" stroke-linecap="round" stroke-linejoin="round" stroke-width="2.454681596973055"/>
  <path d="M 49.59687281636684, 80.22328275572748 Q 50.08625284327055, 79.37225945734662, 51.724573289683704, 78.89111394040867 " fill="none" id="curve_77" stroke="#000000" stroke-linecap="round" stroke-linejoin="round" stroke-width="3.3152969423086462"/>
  <path d="M 59.95654716616739, 20.094913146109338 Q 60.08756303924929, 18.993077313540997, 60.699826822406074, 18.288027298368764 " fill="none" id="curve_86" stroke="#000000" stroke-linecap="round" stroke-linejoin="round" stroke-width="2.9513598129657"/>
  <path d="M 62.0673671419732, 48.78075165467842 Q 62.848069888918374, 45.90275710525798, 64.53207436804352, 42.74661084023812 " fill="none" id="curve_88" stroke="#000000" stroke-linecap="round" stroke-linejoin="round" stroke-width="2.9075905533494817"/>
  <path d="M 1.631243023734775, 138.65909299801652 Q 2.130062150376334, 138.6164373655536, 2.814101717879672, 138.54838524485328 " fill="none" id="curve_121" stroke="#000000" stroke-linecap="round" stroke-linejoin="round" stroke-width="2.1994567313025213"/>
  <path d="M 1.0934391285258411, 102.10692995821971 Q 1.0011863747736731, 100.51010461756282, 0.8000989413152859, 98.67962888964303 " fill="none" id="curve_122" stroke="#000000" stroke-linecap="round" stroke-linejoin="round" stroke-width="1.1236029653956576"/>
  <path d="M 35.91988858983165, 112.82279277172515 Q 37.71813703302445, 112.55665012443804, 39.5101902152124, 112.0163621290032 " fill="none" id="curve_125" stroke="#000000" stroke-linecap="round" stroke-linejoin="round" stroke-width="3.135614506243881"/>
</svg>
