<?xml version="1.0" ?>
<svg height="140" width="140" xmlns="http://www.w3.org/2000/svg">
  <path d="M 55.593589782714844, 97.25299167633057 Q 56.51189956909576, 97.0489776757962, 58.77446984390713, 96.8790559568567 " fill="none" id="curve_1" stroke="#000000" stroke-linecap="round" stroke-linejoin="round" stroke-width="3.9712724162793265"/>
  <path d="M 58.77446984390713, 96.8790559568567 Q 47.09874049674441, 96.7586157645173, 42.37797102159264, 96.05709197109132 " fill="none" id="curve_1" stroke="#000000" stroke-linecap="round" stroke-linejoin="round" stroke-width="6.247569198297104"/>
  <path d="M 42.37797102159264, 96.05709197109132 Q 33.16674802860873, 94.75026001999008, 30.293416122183494, 85.04207070157594 " fill="none" id="curve_1" stroke="#000000" stroke-linecap="round" stroke-linejoin="round" stroke-width="7.9693900898101235"/>
  <path d="M 30.293416122183494, 85.04207070157594 Q 31.142826247946562, 67.35231248404217, 42.90864275629792, 59.766887221202 " fill="none" id="curve_1" stroke="#000000" stroke-linecap="round" stroke-linejoin="round" stroke-width="5.80948419544408"/>
  <path d="M 42.90864275629792, 59.766887221202 Q 52.799609768671736, 53.1543787290181, 73.26439189410286, 36.358601954616375 " fill="none" id="curve_1" stroke="#000000" stroke-linecap="round" stroke-linejoin="round" stroke-width="5.143840998949472"/>
  <path d="M 73.26439189410286, 36.358601954616375 Q 70.98190915113017, 32.66714499286984, 59.26543997922123, 30.751103423264308 " fill="none" id="curve_1" stroke="#000000" stroke-linecap="round" stroke-linejoin="round" stroke-width="5.251215668054803"/>
  <path d="M 59.26543997922123, 30.751103423264308 Q 37.50707363316407, 31.153525174508125, 26.67799856626292, 35.603822186095975 " fill="none" id="curve_1" stroke="#000000" stroke-linecap="round" stroke-linejoin="round" stroke-width="4.742072893174904"/>
  <path d="M 26.67799856626292, 35.603822186095975 Q 16.527950758519722, 37.63575426585176, 12.904488885525133, 44.408443854076154 " fill="none" id="curve_1" stroke="#000000" stroke-linecap="round" stroke-linejoin="round" stroke-width="6.051299586718302"/>
  <path d="M 12.904488885525133, 44.408443854076154 Q 12.989720807203836, 42.751008734199225, 13.089540143784273, 40.68133919778523 " fill="none" id="curve_1" stroke="#000000" stroke-linecap="round" stroke-linejoin="round" stroke-width="4.794256465115011"/>
  <path d="M 65.41725100204978, 30.040985068099324 Q 69.06617025961854, 31.672658150326328, 72.36209387089892, 34.84605652287729 " fill="none" id="curve_2" stroke="#000000" stroke-linecap="round" stroke-linejoin="round" stroke-width="4.751199579841378"/>
  <path d="M 39.340092871267025, 61.51043557230233 Q 46.52405335038147, 54.365971937083934, 62.42785714687439, 46.78592484477425 " fill="none" id="curve_9" stroke="#000000" stroke-linecap="round" stroke-linejoin="round" stroke-width="2.8786855253871706"/>
  <path d="M 62.42785714687439, 46.78592484477425 Q 68.57218481839855, 43.66723516682639, 72.2284014686311, 34.503137398830816 " fill="none" id="curve_9" stroke="#000000" stroke-linecap="round" stroke-linejoin="round" stroke-width="3.859656805485018"/>
  <path d="M 72.2284014686311, 34.503137398830816 Q 69.16248690289646, 34.962511941624626, 68.32982167637267, 39.61821059797527 " fill="none" id="curve_9" stroke="#000000" stroke-linecap="round" stroke-linejoin="round" stroke-width="5.415391768620049"/>
  <path d="M 27.76523267639925, 80.37587240550215 Q 29.573814753844772, 73.97946338062903, 34.82779027914306, 67.39058008019931 " fill="none" id="curve_11" stroke="#000000" stroke-linecap="round" stroke-linejoin="round" stroke-width="2.9377795385699224"/>
  <path d="M 59.86852513430083, 32.3238660061864 Q 71.14648095094525, 32.72126746430639, 73.40738590950885, 35.31607629892581 " fill="none" id="curve_15" stroke="#000000" stroke-linecap="round" stroke-linejoin="round" stroke-width="3.5017879545418"/>
  <path d="M 73.40738590950885, 35.31607629892581 Q 72.4866317378612, 38.731544657561464, 69.83906655134015, 40.971275861013474 " fill="none" id="curve_15" stroke="#000000" stroke-linecap="round" stroke-linejoin="round" stroke-width="3.762278361707974"/>
  <path d="M 73.80589997872625, 33.62870146663676 Q 72.74223367300306, 33.48465750096949, 69.871900910998, 33.36098437805585 " fill="none" id="curve_16" stroke="#000000" stroke-linecap="round" stroke-linejoin="round" stroke-width="3.9024740619066667"/>
  <path d="M 33.44506578963256, 86.6806392786572 Q 36.0191516914743, 95.07559869352258, 53.469332303419534, 97.93971336189361 " fill="none" id="curve_22" stroke="#000000" stroke-linecap="round" stroke-linejoin="round" stroke-width="2.2236279784866086"/>
  <path d="M 53.469332303419534, 97.93971336189361 Q 55.16336019245666, 97.07732426041058, 57.0319092084504, 95.74453739239885 " fill="none" id="curve_22" stroke="#000000" stroke-linecap="round" stroke-linejoin="round" stroke-width="3.76111588385705"/>
  <path d="M 50.812158541853535, 29.54558017536924 Q 49.70392510610434, 30.077201409094123, 47.11975362444106, 30.7335653582462 " fill="none" id="curve_25" stroke="#000000" stroke-linecap="round" stroke-linejoin="round" stroke-width="3.338527820876209"/>
  <path d="M 31.74459338437527, 33.91587614696333 Q 29.176805129483135, 33.720304933710445, 25.041104782069922, 33.41607078423636 " fill="none" id="curve_29" stroke="#000000" stroke-linecap="round" stroke-linejoin="round" stroke-width="2.6071518568836876"/>
  <path d="M 50.0040111766145, 53.62094190270852 Q 53.28945640241706, 50.94489785902166, 59.64428780490269, 45.18371885078285 " fill="none" id="curve_30" stroke="#000000" stroke-linecap="round" stroke-linejoin="round" stroke-width="2.616596811706442"/>
  <path d="M 40.379720037436314, 60.75982636093286 Q 46.069795220442735, 56.17422444291093, 54.22825871755036, 49.95045682824871 " fill="none" id="curve_33" stroke="#000000" stroke-linecap="round" stroke-linejoin="round" stroke-width="2.6325317753420414"/>
  <path d="M 67.53108288650947, 35.38423213218084 Q 66.82811837922402, 34.20845264463683, 64.85628977812422, 33.29765143954379 " fill="none" id="curve_48" stroke="#000000" stroke-linecap="round" stroke-linejoin="round" stroke-width="2.698380896751232"/>
  <path d="M 28.88048367386048, 84.79476127408947 Q 29.120855732546083, 83.6200153633036, 29.837058585294795, 82.67361247341168 " fill="none" id="curve_50" stroke="#000000" stroke-linecap="round" stroke-linejoin="round" stroke-width="3.470214597144862"/>
  <path d="M 27.20591233119759, 83.3309616653851 Q 30.694152328431336, 83.96051551950083, 34.178485706728424, 85.73840648592063 " fill="none" id="curve_53" stroke="#000000" stroke-linecap="round" stroke-linejoin="round" stroke-width="2.791225199765655"/>
  <path d="M 42.63714143292735, 57.72986950920049 Q 43.73044632499305, 57.40146729525208, 45.9154556628585, 56.544814031288325 " fill="none" id="curve_71" stroke="#000000" stroke-linecap="round" stroke-linejoin="round" stroke-width="2.6832754577666527"/>
  <path d="M 34.25880273774408, 85.8084076975349 Q 36.3370912935824, 95.48727512571114, 51.45864158700078, 98.41660962743273 " fill="none" id="curve_86" stroke="#000000" stroke-linecap="round" stroke-linejoin="round" stroke-width="2.8238305367515966"/>
</svg>
