<?xml version="1.0" ?>
<svg height="140" width="140" xmlns="http://www.w3.org/2000/svg">
  <path d="M 22.61823558807373, 112.27290344238281 Q 22.557443735182233, 111.6245735454221, 22.452499938176352, 110.23171710320388 " fill="none" id="curve_1" stroke="#000000" stroke-linecap="round" stroke-linejoin="round" stroke-width="6.775816936898611"/>
  <path d="M 22.452499938176352, 110.23171710320388 Q 24.528165649785237, 104.04096128466007, 31.165816082220744, 96.31218547095739 " fill="none" id="curve_1" stroke="#000000" stroke-linecap="round" stroke-linejoin="round" stroke-width="5.313843088034048"/>
  <path d="M 31.165816082220744, 96.31218547095739 Q 35.69202799436131, 90.03592825364986, 44.54888892961465, 75.81091901207938 " fill="none" id="curve_1" stroke="#000000" stroke-linecap="round" stroke-linejoin="round" stroke-width="5.251158650769481"/>
  <path d="M 44.54888892961465, 75.81091901207938 Q 49.633608304284984, 69.59546350127297, 58.274385743377366, 50.71923666696168 " fill="none" id="curve_1" stroke="#000000" stroke-linecap="round" stroke-linejoin="round" stroke-width="5.494700691551599"/>
  <path d="M 58.274385743377366, 50.71923666696168 Q 60.287986014436214, 47.40969274257936, 61.17290073244381, 33.43656645748091 " fill="none" id="curve_1" stroke="#000000" stroke-linecap="round" stroke-linejoin="round" stroke-width="5.2765877943853665"/>
  <path d="M 61.17290073244381, 33.43656645748091 Q 41.75726092125462, 33.88062068607883, 35.05337160103058, 50.2850743339051 " fill="none" id="curve_1" stroke="#000000" stroke-linecap="round" stroke-linejoin="round" stroke-width="4.923456610879481"/>
  <path d="M 35.05337160103058, 50.2850743339051 Q 33.094428686841844, 51.8321594234669, 32.69576080878803, 61.657989106302004 " fill="none" id="curve_1" stroke="#000000" stroke-linecap="round" stroke-linejoin="round" stroke-width="4.4341955515991"/>
  <path d="M 49.835222848280736, 33.134047574909786 Q 53.751957771015455, 32.335014559464554, 57.91376695930723, 31.27705076336161 " fill="none" id="curve_2" stroke="#000000" stroke-linecap="round" stroke-linejoin="round" stroke-width="3.9766175924781275"/>
  <path d="M 57.91376695930723, 31.27705076336161 Q 42.59115501605999, 34.64102703973045, 32.1377364745536, 49.43447573104362 " fill="none" id="curve_2" stroke="#000000" stroke-linecap="round" stroke-linejoin="round" stroke-width="3.664120967475183"/>
  <path d="M 38.73663185464288, 47.03331309555042 Q 36.998327529516395, 50.248618462564345, 33.91053271982679, 53.07785896786704 " fill="none" id="curve_3" stroke="#000000" stroke-linecap="round" stroke-linejoin="round" stroke-width="3.453989079764971"/>
  <path d="M 64.33401218979321, 102.26466001368297 Q 59.15483969924969, 105.46374343469563, 36.00502186454856, 110.5964327441427 " fill="none" id="curve_4" stroke="#000000" stroke-linecap="round" stroke-linejoin="round" stroke-width="5.710767852586215"/>
  <path d="M 36.00502186454856, 110.5964327441427 Q 33.65806860041185, 113.33398255113309, 24.326237736485943, 114.12418756479197 " fill="none" id="curve_4" stroke="#000000" stroke-linecap="round" stroke-linejoin="round" stroke-width="5.981926915297454"/>
  <path d="M 48.84203511397888, 106.29773098561213 Q 63.56143677765836, 105.92885716142803, 66.76182366621866, 103.02306759338381 " fill="none" id="curve_5" stroke="#000000" stroke-linecap="round" stroke-linejoin="round" stroke-width="3.4367588181093787"/>
  <path d="M 66.76182366621866, 103.02306759338381 Q 57.21842266272117, 104.62839559679038, 45.53409126800036, 107.47968245317679 " fill="none" id="curve_5" stroke="#000000" stroke-linecap="round" stroke-linejoin="round" stroke-width="4.15728085833696"/>
  <path d="M 45.53409126800036, 107.47968245317679 Q 37.80261744566286, 110.36007810064231, 22.26519211350103, 113.14741694165109 " fill="none" id="curve_5" stroke="#000000" stroke-linecap="round" stroke-linejoin="round" stroke-width="4.018930471929197"/>
  <path d="M 48.6689853104412, 109.2773712321653 Q 52.07355931112714, 107.38770914326568, 56.562884728347456, 105.63210223071883 " fill="none" id="curve_6" stroke="#000000" stroke-linecap="round" stroke-linejoin="round" stroke-width="4.013716424385276"/>
  <path d="M 49.12195767691504, 67.21931275751737 Q 54.37698916130487, 59.89757302111824, 61.28179012702018, 39.9825085706246 " fill="none" id="curve_8" stroke="#000000" stroke-linecap="round" stroke-linejoin="round" stroke-width="2.90081916384165"/>
  <path d="M 31.615617749480084, 97.61379941302474 Q 29.052719176917638, 104.53551782502441, 22.189165897921026, 109.09328272276478 " fill="none" id="curve_39" stroke="#000000" stroke-linecap="round" stroke-linejoin="round" stroke-width="2.5063217738720662"/>
  <path d="M 57.44447358538105, 103.91703306409607 Q 50.37494646227715, 105.24957169569056, 45.27124586734478, 109.23671071582636 " fill="none" id="curve_106" stroke="#000000" stroke-linecap="round" stroke-linejoin="round" stroke-width="2.499732173103054"/>
</svg>
