<?xml version="1.0" ?>
<svg height="140" width="140" xmlns="http://www.w3.org/2000/svg">
  <path d="M 49.83650588989258, 12.510994911193848 Q 43.71595425886775, 13.278017068673888, 39.55106328855061, 18.67622706581153 " fill="none" id="curve_1" stroke="#000000" stroke-linecap="round" stroke-linejoin="round" stroke-width="7.1019288268392895"/>
  <path d="M 39.55106328855061, 18.67622706581153 Q 34.040922287488094, 22.102023995381174, 25.132179816295046, 35.17319554043256 " fill="none" id="curve_1" stroke="#000000" stroke-linecap="round" stroke-linejoin="round" stroke-width="4.657566090018918"/>
  <path d="M 25.132179816295046, 35.17319554043256 Q 22.90335487817515, 39.46144983649951, 21.541062274647466, 46.451558191414584 " fill="none" id="curve_1" stroke="#000000" stroke-linecap="round" stroke-linejoin="round" stroke-width="4.109870106796368"/>
  <path d="M 49.79398269364793, 38.707260264667354 Q 47.18095453662741, 45.836134398421095, 41.07696065063955, 72.36094919143594 " fill="none" id="curve_2" stroke="#000000" stroke-linecap="round" stroke-linejoin="round" stroke-width="4.913621636691412"/>
  <path d="M 41.07696065063955, 72.36094919143594 Q 39.4184130590721, 83.99056553154101, 34.03891891443325, 107.93243133269961 " fill="none" id="curve_2" stroke="#000000" stroke-linecap="round" stroke-linejoin="round" stroke-width="4.966814642526711"/>
  <path d="M 34.03891891443325, 107.93243133269961 Q 34.08550460292007, 115.87200112084847, 34.260946289887386, 119.51156613770922 " fill="none" id="curve_2" stroke="#000000" stroke-linecap="round" stroke-linejoin="round" stroke-width="4.547110275179605"/>
  <path d="M 34.260946289887386, 119.51156613770922 Q 51.406727818415405, 117.002501451192, 71.4436663021677, 108.04845740332684 " fill="none" id="curve_2" stroke="#000000" stroke-linecap="round" stroke-linejoin="round" stroke-width="4.760461833653117"/>
  <path d="M 71.4436663021677, 108.04845740332684 Q 76.65061931284907, 107.89735810486235, 78.28297767513659, 107.05355438810952 " fill="none" id="curve_2" stroke="#000000" stroke-linecap="round" stroke-linejoin="round" stroke-width="3.6064611845778947"/>
  <path d="M 34.78314374743652, 119.06888015653317 Q 33.0530058977328, 117.59171471941072, 32.02532403043686, 113.55260568407459 " fill="none" id="curve_3" stroke="#000000" stroke-linecap="round" stroke-linejoin="round" stroke-width="4.850837850143555"/>
  <path d="M 45.115382616077284, 117.16043588076683 Q 55.47167077361992, 114.33924047468258, 65.63341376213154, 109.54768163306127 " fill="none" id="curve_4" stroke="#000000" stroke-linecap="round" stroke-linejoin="round" stroke-width="3.1906095246000614"/>
  <path d="M 35.8600904351533, 93.01421673071266 Q 37.033965290878164, 86.6000483623727, 40.011602532527405, 81.05922782662662 " fill="none" id="curve_5" stroke="#000000" stroke-linecap="round" stroke-linejoin="round" stroke-width="2.808052638741137"/>
  <path d="M 48.00064929179023, 39.40057000259566 Q 50.89605393418731, 33.78530116609745, 53.892894000010585, 15.234515544271815 " fill="none" id="curve_6" stroke="#000000" stroke-linecap="round" stroke-linejoin="round" stroke-width="5.3344602994948405"/>
  <path d="M 53.892894000010585, 15.234515544271815 Q 52.70281322855897, 15.04412225318199, 46.8056148178632, 14.943097947366086 " fill="none" id="curve_6" stroke="#000000" stroke-linecap="round" stroke-linejoin="round" stroke-width="6.851378623405927"/>
  <path d="M 46.8056148178632, 14.943097947366086 Q 47.77651233544265, 12.585506344657823, 53.139728572371155, 11.960428518075233 " fill="none" id="curve_6" stroke="#000000" stroke-linecap="round" stroke-linejoin="round" stroke-width="3.6519049715372947"/>
  <path d="M 47.50748615768801, 37.869427402187895 Q 49.80561914362764, 32.55515761668297, 53.56994296705172, 26.467631480451768 " fill="none" id="curve_7" stroke="#000000" stroke-linecap="round" stroke-linejoin="round" stroke-width="2.684086600546827"/>
  <path d="M 42.19597351029319, 71.41582000565663 Q 43.41797562036123, 64.36164579211558, 45.32621471368279, 53.43286515469282 " fill="none" id="curve_11" stroke="#000000" stroke-linecap="round" stroke-linejoin="round" stroke-width="2.726396607301935"/>
  <path d="M 60.00321274167606, 109.42876184127215 Q 55.3108562943311, 116.0473160102442, 36.283090639087206, 120.74391467717471 " fill="none" id="curve_21" stroke="#000000" stroke-linecap="round" stroke-linejoin="round" stroke-width="3.194312228571256"/>
  <path d="M 36.283090639087206, 120.74391467717471 Q 43.011775329993334, 117.35104488921073, 54.590158993010974, 113.36284065449838 " fill="none" id="curve_21" stroke="#000000" stroke-linecap="round" stroke-linejoin="round" stroke-width="2.5762540639629563"/>
  <path d="M 50.21961546906134, 30.35842691901376 Q 51.056610280671684, 28.855887621502625, 52.75858893765516, 26.24235958064561 " fill="none" id="curve_32" stroke="#000000" stroke-linecap="round" stroke-linejoin="round" stroke-width="2.8019135697016355"/>
  <path d="M 52.415974849072086, 24.562876059495693 Q 53.223715892113916, 23.28232031509375, 54.435603546489034, 20.858618837981297 " fill="none" id="curve_86" stroke="#000000" stroke-linecap="round" stroke-linejoin="round" stroke-width="2.757639555777449"/>
  <path d="M 48.95042582032691, 33.686083112109486 Q 49.148592731993, 32.856136637603505, 49.4974419477182, 31.687441797596666 " fill="none" id="curve_140" stroke="#000000" stroke-linecap="round" stroke-linejoin="round" stroke-width="3.70497206331088"/>
  <path d="M 43.61657086886299, 62.469891193649545 Q 44.32082522124212, 57.462753822176985, 46.399543786394155, 53.710577093928606 " fill="none" id="curve_144" stroke="#000000" stroke-linecap="round" stroke-linejoin="round" stroke-width="2.8012157575353234"/>
  <path d="M 47.75234174293466, 42.98448224600577 Q 47.469565120370845, 43.142188665126376, 47.05831499062868, 43.42745577016486 " fill="none" id="curve_161" stroke="#000000" stroke-linecap="round" stroke-linejoin="round" stroke-width="3.1013031639291433"/>
</svg>
