<?xml version="1.0" ?>
<svg height="140" width="140" xmlns="http://www.w3.org/2000/svg">
  <path d="M 43.01545342616737, 77.24849462509155 Q 39.503917084932446, 82.20213276414847, 30.61247166296335, 88.64768933276912 " fill="none" id="curve_1" stroke="#000000" stroke-linecap="round" stroke-linejoin="round" stroke-width="6.410573582339985"/>
  <path d="M 30.61247166296335, 88.64768933276912 Q 40.252040517953866, 88.31779607191807, 42.9783304983805, 86.25194966175805 " fill="none" id="curve_1" stroke="#000000" stroke-linecap="round" stroke-linejoin="round" stroke-width="5.002330104551797"/>
  <path d="M 42.9783304983805, 86.25194966175805 Q 45.34965594289965, 93.38190514692327, 52.0950001357826, 96.09378637253347 " fill="none" id="curve_1" stroke="#000000" stroke-linecap="round" stroke-linejoin="round" stroke-width="5.713181432634111"/>
  <path d="M 52.0950001357826, 96.09378637253347 Q 58.12573787084179, 95.9423761421715, 59.37009423878027, 94.77252943894348 " fill="none" id="curve_1" stroke="#000000" stroke-linecap="round" stroke-linejoin="round" stroke-width="4.392660235524832"/>
  <path d="M 46.632333296158194, 73.73580969698774 Q 56.75462860283151, 67.88131458721423, 67.36898571652742, 48.931148727050086 " fill="none" id="curve_2" stroke="#000000" stroke-linecap="round" stroke-linejoin="round" stroke-width="4.937200381971985"/>
  <path d="M 67.36898571652742, 48.931148727050086 Q 67.25276366125983, 28.382856322327502, 57.11162961794071, 27.458473189327766 " fill="none" id="curve_2" stroke="#000000" stroke-linecap="round" stroke-linejoin="round" stroke-width="5.947123868065063"/>
  <path d="M 57.11162961794071, 27.458473189327766 Q 37.53427348725967, 28.977285757446722, 29.25029094159666, 50.58320068330744 " fill="none" id="curve_2" stroke="#000000" stroke-linecap="round" stroke-linejoin="round" stroke-width="5.069945107598846"/>
  <path d="M 29.25029094159666, 50.58320068330744 Q 30.354531632756142, 52.44400407436085, 32.03392425488679, 54.283500523525674 " fill="none" id="curve_2" stroke="#000000" stroke-linecap="round" stroke-linejoin="round" stroke-width="4.430084492414963"/>
  <path d="M 45.712926315867925, 75.86412786743233 Q 41.72259269096122, 77.29432855148912, 39.48704798539324, 81.69122292345646 " fill="none" id="curve_3" stroke="#000000" stroke-linecap="round" stroke-linejoin="round" stroke-width="3.7149814009636852"/>
  <path d="M 68.12655816947213, 45.01655638507605 Q 68.10832477429516, 36.51952060025436, 67.53482647822216, 35.723027756845994 " fill="none" id="curve_4" stroke="#000000" stroke-linecap="round" stroke-linejoin="round" stroke-width="3.588941352426754"/>
  <path d="M 48.403209897608846, 27.30813204190681 Q 38.483877540384505, 30.5539004343376, 31.237370237447728, 44.24680342933583 " fill="none" id="curve_5" stroke="#000000" stroke-linecap="round" stroke-linejoin="round" stroke-width="2.698409224057482"/>
  <path d="M 27.688043093272448, 47.14957629724084 Q 28.84895723365357, 46.72805779927746, 29.734117467135565, 45.41702950730811 " fill="none" id="curve_6" stroke="#000000" stroke-linecap="round" stroke-linejoin="round" stroke-width="3.554193681774912"/>
  <path d="M 56.83167719535565, 65.1958597816616 Q 49.26910673883158, 67.07354297849925, 45.99576583536989, 76.24962200113586 " fill="none" id="curve_7" stroke="#000000" stroke-linecap="round" stroke-linejoin="round" stroke-width="2.7674188147303833"/>
  <path d="M 67.38462682380658, 37.031190525228965 Q 63.025318749086104, 36.14852852724524, 61.152217159882014, 28.3951138557055 " fill="none" id="curve_8" stroke="#000000" stroke-linecap="round" stroke-linejoin="round" stroke-width="3.7954806324350616"/>
  <path d="M 65.72131487175014, 55.994001376898474 Q 65.9294036639682, 43.06993510487703, 69.9443448169955, 40.65693681342026 " fill="none" id="curve_9" stroke="#000000" stroke-linecap="round" stroke-linejoin="round" stroke-width="3.0600669382781676"/>
  <path d="M 60.19191298334496, 27.627583742727797 Q 57.81710969831144, 27.453866138823585, 52.50277341522365, 27.23104434400778 " fill="none" id="curve_10" stroke="#000000" stroke-linecap="round" stroke-linejoin="round" stroke-width="3.146884837385631"/>
  <path d="M 89.87346729529276, 1.697798436802759 Q 89.90772225553184, 2.264604323312468, 90.02132570465669, 3.0607892615057857 " fill="none" id="curve_13" stroke="#000000" stroke-linecap="round" stroke-linejoin="round" stroke-width="2.0798480802699504"/>
  <path d="M 63.402120819769515, 26.912349264160273 Q 61.56904894708417, 26.66006457367754, 51.67064991182554, 26.479271467168203 " fill="none" id="curve_14" stroke="#000000" stroke-linecap="round" stroke-linejoin="round" stroke-width="2.3823667111641496"/>
  <path d="M 37.363593167136045, 84.83191239842782 Q 44.25176744044622, 85.33032917068132, 46.7790333347962, 88.8777556081641 " fill="none" id="curve_31" stroke="#000000" stroke-linecap="round" stroke-linejoin="round" stroke-width="2.6253812102145364"/>
  <path d="M 56.80915609238452, 62.31240222293224 Q 53.94699335666738, 65.63985133394192, 49.32765414886024, 70.4226327786584 " fill="none" id="curve_32" stroke="#000000" stroke-linecap="round" stroke-linejoin="round" stroke-width="2.7404755814451716"/>
  <path d="M 51.16094082554825, 28.05816419834056 Q 46.42467589076098, 28.265386250112144, 42.996517931997346, 29.531782895325723 " fill="none" id="curve_34" stroke="#000000" stroke-linecap="round" stroke-linejoin="round" stroke-width="3.2296925774817664"/>
  <path d="M 65.01154154520617, 40.070270251722036 Q 64.44167923029451, 34.976845481586565, 61.374107973884676, 32.362487689062164 " fill="none" id="curve_49" stroke="#000000" stroke-linecap="round" stroke-linejoin="round" stroke-width="2.93635108620783"/>
  <path d="M 48.7620653601691, 97.07789090764622 Q 47.311879451096104, 96.18362314787164, 46.38449564287086, 91.59634829107836 " fill="none" id="curve_64" stroke="#000000" stroke-linecap="round" stroke-linejoin="round" stroke-width="2.5752868819436565"/>
  <path d="M 40.716699238846424, 81.46785255523903 Q 43.2627160128912, 79.14409429844267, 45.07698504585441, 74.22793530410301 " fill="none" id="curve_65" stroke="#000000" stroke-linecap="round" stroke-linejoin="round" stroke-width="2.8777150576505943"/>
  <path d="M 29.13229265459742, 89.07565346986172 Q 29.332578982627055, 88.62808180939945, 29.5623033506088, 87.97901870404954 " fill="none" id="curve_66" stroke="#000000" stroke-linecap="round" stroke-linejoin="round" stroke-width="3.7502007239962665"/>
  <path d="M 38.689845946602865, 38.86064312371309 Q 30.821662996489287, 39.68466489377661, 27.09087310321646, 46.36087910670399 " fill="none" id="curve_107" stroke="#000000" stroke-linecap="round" stroke-linejoin="round" stroke-width="1.8872887094638346"/>
  <path d="M 27.09087310321646, 46.36087910670399 Q 27.68261914258784, 47.901471192673995, 32.23902562272571, 48.212568565365785 " fill="none" id="curve_107" stroke="#000000" stroke-linecap="round" stroke-linejoin="round" stroke-width="3.329216697196724"/>
  <path d="M 64.38370746107358, 53.63199197659398 Q 65.32689500696542, 45.58543292999673, 69.5523954994849, 39.65201404427751 " fill="none" id="curve_111" stroke="#000000" stroke-linecap="round" stroke-linejoin="round" stroke-width="2.739128864557515"/>
  <path d="M 50.89444810460547, 27.150957159683486 Q 39.97040991982709, 28.875917567554243, 34.507556207491064, 39.19135416543732 " fill="none" id="curve_114" stroke="#000000" stroke-linecap="round" stroke-linejoin="round" stroke-width="2.5951586621897094"/>
  <path d="M 54.813246269076785, 26.853776858243553 Q 50.574447194955894, 26.940229585429783, 46.365244197428595, 27.299186431713984 " fill="none" id="curve_115" stroke="#000000" stroke-linecap="round" stroke-linejoin="round" stroke-width="2.4991136612901226"/>
  <path d="M 64.78709077954268, 35.114951081373526 Q 65.23754466643054, 33.877788330079056, 65.78710132015132, 31.755821059212007 " fill="none" id="curve_117" stroke="#000000" stroke-linecap="round" stroke-linejoin="round" stroke-width="4.531847413154465"/>
  <path d="M 61.32657997399273, 36.55793942359189 Q 63.63265275186994, 36.93693866883842, 68.8742971210434, 37.2496017656237 " fill="none" id="curve_121" stroke="#000000" stroke-linecap="round" stroke-linejoin="round" stroke-width="2.778119344877459"/>
  <path d="M 50.88836672170521, 94.0904632965561 Q 48.50052367903325, 90.37656952109853, 41.869683980819964, 85.40682703743074 " fill="none" id="curve_162" stroke="#000000" stroke-linecap="round" stroke-linejoin="round" stroke-width="2.00272631844693"/>
</svg>
