<?xml version="1.0" ?>
<svg height="140" width="140" xmlns="http://www.w3.org/2000/svg">
  <path d="M 74.36341094970703, 104.47098922729492 Q 75.0516359475516, 103.93316157691261, 76.3129607956354, 103.21017547360935 " fill="none" id="curve_1" stroke="#000000" stroke-linecap="round" stroke-linejoin="round" stroke-width="4.818561411739841"/>
  <path d="M 76.3129607956354, 103.21017547360935 Q 70.36233808003543, 105.79799617668252, 57.70972255304068, 111.8664653489502 " fill="none" id="curve_1" stroke="#000000" stroke-linecap="round" stroke-linejoin="round" stroke-width="4.753425661851899"/>
  <path d="M 57.70972255304068, 111.8664653489502 Q 56.126826771516285, 112.3072875170857, 41.469894736848595, 112.37398120570695 " fill="none" id="curve_1" stroke="#000000" stroke-linecap="round" stroke-linejoin="round" stroke-width="7.001036248050185"/>
  <path d="M 41.469894736848595, 112.37398120570695 Q 31.516846854750895, 110.46903065794518, 26.854021751670768, 100.2525587072885 " fill="none" id="curve_1" stroke="#000000" stroke-linecap="round" stroke-linejoin="round" stroke-width="4.789747591418016"/>
  <path d="M 26.854021751670768, 100.2525587072885 Q 31.246269255639827, 90.2053232929641, 48.194149290406315, 72.92446774807716 " fill="none" id="curve_1" stroke="#000000" stroke-linecap="round" stroke-linejoin="round" stroke-width="4.414452538568339"/>
  <path d="M 48.194149290406315, 72.92446774807716 Q 55.50155921111956, 67.35050482906004, 62.098215858671075, 52.800308411874255 " fill="none" id="curve_1" stroke="#000000" stroke-linecap="round" stroke-linejoin="round" stroke-width="4.875123428871527"/>
  <path d="M 62.098215858671075, 52.800308411874255 Q 61.15329348426839, 43.75884443455761, 40.74930774261539, 42.04180962093921 " fill="none" id="curve_1" stroke="#000000" stroke-linecap="round" stroke-linejoin="round" stroke-width="5.49985878239481"/>
  <path d="M 40.74930774261539, 42.04180962093921 Q 27.9517656298342, 43.43112681063631, 17.025211447061807, 47.53686391204739 " fill="none" id="curve_1" stroke="#000000" stroke-linecap="round" stroke-linejoin="round" stroke-width="4.402763319368178"/>
  <path d="M 17.025211447061807, 47.53686391204739 Q 17.6735175670859, 51.95014506557481, 19.08587055348127, 54.37321887103103 " fill="none" id="curve_1" stroke="#000000" stroke-linecap="round" stroke-linejoin="round" stroke-width="4.134830352747328"/>
  <path d="M 15.29602412997851, 48.6600612310088 Q 16.3311387843934, 48.560835718520345, 16.8749630797133, 48.16233485776631 " fill="none" id="curve_2" stroke="#000000" stroke-linecap="round" stroke-linejoin="round" stroke-width="5.729173059591311"/>
  <path d="M 3.402418034243251, 138.0331454883162 Q 2.8034504609716997, 137.86460112859865, 2.2876344280191665, 137.53067630400167 " fill="none" id="curve_5" stroke="#000000" stroke-linecap="round" stroke-linejoin="round" stroke-width="4.868114869865009"/>
  <path d="M 2.318564794249638, 136.3834146110883 Q 1.8824922850137367, 133.11095604345195, 1.1954107691231564, 127.17495159442153 " fill="none" id="curve_7" stroke="#000000" stroke-linecap="round" stroke-linejoin="round" stroke-width="1.7172901080722571"/>
  <path d="M 26.771530681966578, 100.47756798675465 Q 27.15016944589013, 97.03603091086836, 28.900185031817564, 94.6411320927168 " fill="none" id="curve_8" stroke="#000000" stroke-linecap="round" stroke-linejoin="round" stroke-width="2.863170362299685"/>
  <path d="M 31.46945737050202, 104.87241749463676 Q 29.11044805129584, 103.20875567087174, 26.480691419798234, 100.25212471176577 " fill="none" id="curve_9" stroke="#000000" stroke-linecap="round" stroke-linejoin="round" stroke-width="3.9821676102497605"/>
  <path d="M 62.22936611093941, 51.54757523213876 Q 58.28970662679952, 57.778741827372926, 50.050589174803235, 70.72257656655944 " fill="none" id="curve_10" stroke="#000000" stroke-linecap="round" stroke-linejoin="round" stroke-width="2.607769954885368"/>
  <path d="M 59.920332824143884, 47.491688582760226 Q 56.711961159845, 45.61937391261987, 46.76590965951847, 43.06249261504305 " fill="none" id="curve_16" stroke="#000000" stroke-linecap="round" stroke-linejoin="round" stroke-width="2.752283399021303"/>
  <path d="M 59.62285845012798, 48.60310776304409 Q 58.64486120650528, 46.681400008394846, 54.639889844953, 44.69841139689834 " fill="none" id="curve_20" stroke="#000000" stroke-linecap="round" stroke-linejoin="round" stroke-width="2.939329582852985"/>
  <path d="M 52.19578221903582, 44.141195681609865 Q 55.276782587150734, 46.05501925836806, 59.431947369918504, 48.74834142860908 " fill="none" id="curve_25" stroke="#000000" stroke-linecap="round" stroke-linejoin="round" stroke-width="3.7417679818149234"/>
  <path d="M 59.431947369918504, 48.74834142860908 Q 59.37665151332714, 47.23395890427597, 59.20820311368555, 45.30708761967585 " fill="none" id="curve_25" stroke="#000000" stroke-linecap="round" stroke-linejoin="round" stroke-width="2.75907015985942"/>
  <path d="M 27.027941464814585, 101.9023610040384 Q 27.408140760220395, 102.72177032052707, 28.139264380932854, 103.58255265964034 " fill="none" id="curve_31" stroke="#000000" stroke-linecap="round" stroke-linejoin="round" stroke-width="5.175325608697555"/>
  <path d="M 43.6137021594008, 43.32377680669449 Q 47.68153209351484, 43.49945205277661, 50.781206451530934, 44.10166731008017 " fill="none" id="curve_35" stroke="#000000" stroke-linecap="round" stroke-linejoin="round" stroke-width="2.243674001066764"/>
  <path d="M 50.781206451530934, 44.10166731008017 Q 54.15457046541023, 46.13025392830061, 58.41362068816552, 48.93256901857926 " fill="none" id="curve_35" stroke="#000000" stroke-linecap="round" stroke-linejoin="round" stroke-width="2.4010735570911437"/>
  <path d="M 61.897743407302414, 108.36098841047243 Q 59.261107908650274, 109.86534595938211, 55.604426096163394, 111.92290764353903 " fill="none" id="curve_50" stroke="#000000" stroke-linecap="round" stroke-linejoin="round" stroke-width="2.7683510407782954"/>
  <path d="M 44.93539599848266, 42.311591390641645 Q 43.87654385376144, 41.777714673306605, 39.95217498823128, 41.396120910964626 " fill="none" id="curve_56" stroke="#000000" stroke-linecap="round" stroke-linejoin="round" stroke-width="3.347193096455789"/>
  <path d="M 26.54192075617299, 99.28631377828131 Q 27.296669518798694, 95.74775670561448, 29.86255438695076, 93.20571742537511 " fill="none" id="curve_87" stroke="#000000" stroke-linecap="round" stroke-linejoin="round" stroke-width="2.718537386652131"/>
  <path d="M 0.8355649647175931, 119.29769899963944 Q 0.7926808531153757, 117.382934721326, 0.741140578853414, 113.67952037793825 " fill="none" id="curve_97" stroke="#000000" stroke-linecap="round" stroke-linejoin="round" stroke-width="1.4404087326715285"/>
  <path d="M 36.091712833061365, 110.66683298262942 Q 35.148614585815395, 104.17888041701765, 27.42634206297416, 102.33627664032554 " fill="none" id="curve_113" stroke="#000000" stroke-linecap="round" stroke-linejoin="round" stroke-width="3.176679187465811"/>
  <path d="M 58.32855549339283, 58.94458684296098 Q 59.33197025750488, 54.96556605150162, 61.19367491078336, 49.907627425034775 " fill="none" id="curve_118" stroke="#000000" stroke-linecap="round" stroke-linejoin="round" stroke-width="2.8192364696510124"/>
  <path d="M 25.42539293621806, 45.24310564011164 Q 23.174268420250904, 45.14826928719535, 19.249770558495594, 44.98771995489309 " fill="none" id="curve_123" stroke="#000000" stroke-linecap="round" stroke-linejoin="round" stroke-width="2.913441631195463"/>
  <path d="M 70.35679512517171, 107.84890000327891 Q 61.132770610030725, 109.73517474253106, 51.935703763855976, 113.31593185966982 " fill="none" id="curve_138" stroke="#000000" stroke-linecap="round" stroke-linejoin="round" stroke-width="3.2197704047506828"/>
  <path d="M 51.935703763855976, 113.31593185966982 Q 57.64821999372596, 111.71972535084153, 62.42406400663258, 108.69688773983673 " fill="none" id="curve_138" stroke="#000000" stroke-linecap="round" stroke-linejoin="round" stroke-width="2.844699342969145"/>
  <path d="M 1.842557382098168, 138.66848290442576 Q 2.559460192566236, 138.77988536930974, 3.5069568975186654, 138.953759795299 " fill="none" id="curve_160" stroke="#000000" stroke-linecap="round" stroke-linejoin="round" stroke-width="2.528022662028872"/>
  <path d="M 31.86346831767294, 90.13405940170192 Q 30.773362859795792, 90.64636491658193, 29.47446813857451, 91.63865684350738 " fill="none" id="curve_166" stroke="#000000" stroke-linecap="round" stroke-linejoin="round" stroke-width="3.0414795009374873"/>
  <path d="M 45.02560208300108, 42.50037141978784 Q 44.300142909063695, 42.78620091075116, 43.05877229573104, 43.279476591909265 " fill="none" id="curve_169" stroke="#000000" stroke-linecap="round" stroke-linejoin="round" stroke-width="3.5777238565051777"/>
  <path d="M 44.01973400868104, 44.50353522314412 Q 43.86196891289555, 43.685605766144846, 43.35867950586815, 42.65317554309646 " fill="none" id="curve_177" stroke="#000000" stroke-linecap="round" stroke-linejoin="round" stroke-width="2.8139318434146166"/>
</svg>
