<?xml version="1.0" ?>
<svg height="140" width="140" xmlns="http://www.w3.org/2000/svg">
  <path d="M 66.0, 46.0 Q 58.28460326546747, 59.63877326295, 26.789939880371094, 101.04092788696289 " fill="none" id="curve_0" stroke="#000000" stroke-linecap="round" stroke-linejoin="round" stroke-width="2.110675156834614"/>
  <path d="M 26.789939880371094, 101.04092788696289 Q 23.43699509379867, 101.81786466914527, 21.3248041852828, 103.89240220915633 " fill="none" id="curve_0" stroke="#000000" stroke-linecap="round" stroke-linejoin="round" stroke-width="5.559321948242607"/>
  <path d="M 21.3248041852828, 103.89240220915633 Q 31.354554818832, 100.01120871646182, 39.9841486066332, 85.47066021625912 " fill="none" id="curve_0" stroke="#000000" stroke-linecap="round" stroke-linejoin="round" stroke-width="4.2670031285767624"/>
  <path d="M 39.9841486066332, 85.47066021625912 Q 50.74998926421637, 78.83108210500845, 60.423451742307336, 57.16843383027444 " fill="none" id="curve_0" stroke="#000000" stroke-linecap="round" stroke-linejoin="round" stroke-width="4.750107926477089"/>
  <path d="M 60.423451742307336, 57.16843383027444 Q 60.37161501806837, 33.87239164648514, 56.33636622815393, 32.74901686429989 " fill="none" id="curve_0" stroke="#000000" stroke-linecap="round" stroke-linejoin="round" stroke-width="4.511573806900613"/>
  <path d="M 56.33636622815393, 32.74901686429989 Q 35.573384388233066, 34.4814805721705, 23.388634727911246, 55.785306762954946 " fill="none" id="curve_0" stroke="#000000" stroke-linecap="round" stroke-linejoin="round" stroke-width="4.662645783856942"/>
  <path d="M 23.388634727911246, 55.785306762954946 Q 24.011152068352434, 64.09636586617262, 28.51794717463582, 65.86636168611524 " fill="none" id="curve_0" stroke="#000000" stroke-linecap="round" stroke-linejoin="round" stroke-width="2.930334920717269"/>
  <path d="M 30.00952498073824, 100.56551819928647 Q 38.989708709196165, 103.10130172514326, 56.11560271929258, 105.56116854177256 " fill="none" id="curve_1" stroke="#000000" stroke-linecap="round" stroke-linejoin="round" stroke-width="6.509197289039568"/>
  <path d="M 56.11560271929258, 105.56116854177256 Q 60.73537411481135, 105.27469013085764, 68.00198311787257, 105.0309553240707 " fill="none" id="curve_1" stroke="#000000" stroke-linecap="round" stroke-linejoin="round" stroke-width="5.267664375346923"/>
  <path d="M 40.10956716411091, 103.10016945123581 Q 28.755791715519933, 102.79897990530003, 23.873117641777124, 101.60578432969193 " fill="none" id="curve_2" stroke="#000000" stroke-linecap="round" stroke-linejoin="round" stroke-width="4.916881789210023"/>
  <path d="M 23.873117641777124, 101.60578432969193 Q 28.84538111051753, 95.89671417278447, 38.64484768769481, 90.63762624296652 " fill="none" id="curve_2" stroke="#000000" stroke-linecap="round" stroke-linejoin="round" stroke-width="3.0793588291873717"/>
  <path d="M 47.1138988496354, 103.51198841313139 Q 44.071391008336754, 102.22446921300411, 33.17580998722232, 101.17970811472085 " fill="none" id="curve_4" stroke="#000000" stroke-linecap="round" stroke-linejoin="round" stroke-width="3.4863014310778335"/>
  <path d="M 59.62896317795588, 56.79294196802214 Q 61.62887859351149, 54.670532103460886, 62.37648266156573, 44.17333201339632 " fill="none" id="curve_5" stroke="#000000" stroke-linecap="round" stroke-linejoin="round" stroke-width="3.604024670496147"/>
  <path d="M 62.37648266156573, 44.17333201339632 Q 62.12245902158984, 33.54315215976291, 52.45546116740431, 32.28990086085487 " fill="none" id="curve_5" stroke="#000000" stroke-linecap="round" stroke-linejoin="round" stroke-width="2.644593456442436"/>
  <path d="M 52.45546116740431, 32.28990086085487 Q 46.029449686428485, 32.53899759725006, 43.22890428015518, 34.646733485714634 " fill="none" id="curve_5" stroke="#000000" stroke-linecap="round" stroke-linejoin="round" stroke-width="2.4626208180098343"/>
  <path d="M 43.22890428015518, 34.646733485714634 Q 33.722008660566786, 37.36437873531552, 25.601692808942627, 49.98079001563048 " fill="none" id="curve_5" stroke="#000000" stroke-linecap="round" stroke-linejoin="round" stroke-width="3.123877267843302"/>
  <path d="M 49.65646993765981, 31.373570574554666 Q 51.20346321097246, 31.38999545932207, 52.87267113126578, 31.43692335330245 " fill="none" id="curve_6" stroke="#000000" stroke-linecap="round" stroke-linejoin="round" stroke-width="2.2062348955361366"/>
  <path d="M 63.6192262357507, 48.70340776089995 Q 61.0771773598738, 52.87670840511957, 57.59294648445135, 57.146152034064485 " fill="none" id="curve_7" stroke="#000000" stroke-linecap="round" stroke-linejoin="round" stroke-width="2.7648599300250902"/>
  <path d="M 49.38169800494137, 106.37384957079216 Q 45.2292194194942, 104.67877880296517, 38.546650682846156, 102.34584754095098 " fill="none" id="curve_10" stroke="#000000" stroke-linecap="round" stroke-linejoin="round" stroke-width="3.051984670566292"/>
  <path d="M 52.25468408245682, 69.39720762407627 Q 46.469756527522996, 77.92169863060033, 37.962327217231085, 91.01142221641919 " fill="none" id="curve_11" stroke="#000000" stroke-linecap="round" stroke-linejoin="round" stroke-width="2.6263926176284764"/>
  <path d="M 31.914552540246362, 99.2581705391945 Q 39.59391991222531, 101.04665487941776, 46.445192635389525, 104.20015795463479 " fill="none" id="curve_12" stroke="#000000" stroke-linecap="round" stroke-linejoin="round" stroke-width="2.506669798718354"/>
  <path d="M 55.401237242588735, 35.849813488805296 Q 57.46333242799594, 36.74432433462722, 59.33631325509007, 38.23965727881698 " fill="none" id="curve_28" stroke="#000000" stroke-linecap="round" stroke-linejoin="round" stroke-width="3.443254435553512"/>
  <path d="M 49.90209259172188, 106.73303913523941 Q 55.33716446943503, 104.99085729616881, 67.73925830990406, 103.87333086076491 " fill="none" id="curve_31" stroke="#000000" stroke-linecap="round" stroke-linejoin="round" stroke-width="2.539675760767521"/>
  <path d="M 56.49836639446441, 58.37196951723382 Q 58.00771058142329, 54.04209115955643, 63.58743573738758, 51.637236893566715 " fill="none" id="curve_34" stroke="#000000" stroke-linecap="round" stroke-linejoin="round" stroke-width="2.9993130600567217"/>
  <path d="M 37.11682647532791, 90.23284090752044 Q 39.06490504265517, 88.38530304489097, 42.30141087589294, 86.55647306728795 " fill="none" id="curve_56" stroke="#000000" stroke-linecap="round" stroke-linejoin="round" stroke-width="2.9891978514367263"/>
  <path d="M 59.99191405542729, 104.86662227139777 Q 61.160787113265506, 104.78601144774709, 63.96445526313043, 104.688137718711 " fill="none" id="curve_110" stroke="#000000" stroke-linecap="round" stroke-linejoin="round" stroke-width="3.093044627306808"/>
  <path d="M 51.29659981758232, 105.16840090825144 Q 58.21070986134796, 104.87752725789618, 65.86799491349932, 104.4317388737448 " fill="none" id="curve_151" stroke="#000000" stroke-linecap="round" stroke-linejoin="round" stroke-width="2.4805954267234243"/>
</svg>
