<?xml version="1.0" ?>
<svg height="140" width="140" xmlns="http://www.w3.org/2000/svg">
  <path d="M 52.96559143066406, 92.34811019897461 Q 52.51349515515088, 95.54682205257585, 41.025190008654135, 96.05616886085923 " fill="none" id="curve_1" stroke="#000000" stroke-linecap="round" stroke-linejoin="round" stroke-width="5.341096804218877"/>
  <path d="M 41.025190008654135, 96.05616886085923 Q 26.096778567396136, 95.96597623948637, 24.840852735391085, 92.70470111206411 " fill="none" id="curve_1" stroke="#000000" stroke-linecap="round" stroke-linejoin="round" stroke-width="5.4029439010143"/>
  <path d="M 24.840852735391085, 92.70470111206411 Q 27.858434454616894, 84.70170934552552, 39.52579582086871, 70.70352647768924 " fill="none" id="curve_1" stroke="#000000" stroke-linecap="round" stroke-linejoin="round" stroke-width="3.944824111686301"/>
  <path d="M 39.52579582086871, 70.70352647768924 Q 43.41072961135737, 64.832792129127, 51.207259439894905, 45.513801089722634 " fill="none" id="curve_1" stroke="#000000" stroke-linecap="round" stroke-linejoin="round" stroke-width="3.121876284717647"/>
  <path d="M 51.207259439894905, 45.513801089722634 Q 50.02877000742453, 39.239526925488995, 47.55435887971859, 33.41236885058756 " fill="none" id="curve_1" stroke="#000000" stroke-linecap="round" stroke-linejoin="round" stroke-width="4.543573437539444"/>
  <path d="M 47.55435887971859, 33.41236885058756 Q 30.608647129425712, 34.16970518791451, 20.967527653049558, 46.87633140238676 " fill="none" id="curve_1" stroke="#000000" stroke-linecap="round" stroke-linejoin="round" stroke-width="4.141979622528574"/>
  <path d="M 20.967527653049558, 46.87633140238676 Q 16.533898817479468, 51.186314144275116, 14.21936276178533, 60.79090799006987 " fill="none" id="curve_1" stroke="#000000" stroke-linecap="round" stroke-linejoin="round" stroke-width="3.7120069454296445"/>
  <path d="M 49.656713657581285, 37.77593127640037 Q 49.66445656367446, 45.32787195913025, 49.67694355075705, 51.7689650562734 " fill="none" id="curve_3" stroke="#000000" stroke-linecap="round" stroke-linejoin="round" stroke-width="3.1093056702376853"/>
  <path d="M 44.32275167975835, 32.861821835391325 Q 39.413528874161365, 33.25664475228485, 35.46725848550997, 34.894863171021356 " fill="none" id="curve_4" stroke="#000000" stroke-linecap="round" stroke-linejoin="round" stroke-width="2.2245583172910153"/>
  <path d="M 35.46725848550997, 34.894863171021356 Q 25.558033235134705, 38.44871019179905, 16.619041102439486, 51.12902898256788 " fill="none" id="curve_4" stroke="#000000" stroke-linecap="round" stroke-linejoin="round" stroke-width="2.780762927457185"/>
  <path d="M 54.17120535474973, 93.61407682451878 Q 55.15447184707315, 93.68140182842343, 55.902727464113816, 93.84210780143363 " fill="none" id="curve_6" stroke="#000000" stroke-linecap="round" stroke-linejoin="round" stroke-width="3.1240154247816423"/>
  <path d="M 39.08022828600507, 98.0172421648561 Q 39.59283520070786, 97.68149254424111, 40.49314990796484, 97.25756694347854 " fill="none" id="curve_7" stroke="#000000" stroke-linecap="round" stroke-linejoin="round" stroke-width="4.135905490766658"/>
  <path d="M 25.50672672768694, 90.52403545707351 Q 25.42247901120002, 90.09069232037021, 25.281944799811136, 89.30628240002638 " fill="none" id="curve_12" stroke="#000000" stroke-linecap="round" stroke-linejoin="round" stroke-width="3.4536065003355407"/>
  <path d="M 90.01811765260145, 2.339093676790868 Q 89.9849685508885, 3.2235451790169214, 89.90365198632519, 4.698922807901143 " fill="none" id="curve_28" stroke="#000000" stroke-linecap="round" stroke-linejoin="round" stroke-width="2.241003737377867"/>
  <path d="M 52.36102138167888, 94.9023085074468 Q 44.74070008871612, 95.70367284137721, 33.739045856283795, 97.37455548699064 " fill="none" id="curve_31" stroke="#000000" stroke-linecap="round" stroke-linejoin="round" stroke-width="2.736741989932553"/>
  <path d="M 28.17833508631791, 87.5916839492257 Q 26.430440184029667, 88.32424866800352, 24.468670868320974, 90.00754083936827 " fill="none" id="curve_42" stroke="#000000" stroke-linecap="round" stroke-linejoin="round" stroke-width="3.4747132151733218"/>
  <path d="M 28.733823099621105, 97.13597399201002 Q 27.685178682895263, 95.47915832836, 25.22148625576041, 93.9021297142979 " fill="none" id="curve_46" stroke="#000000" stroke-linecap="round" stroke-linejoin="round" stroke-width="3.5158775418537522"/>
  <path d="M 49.20203455436659, 42.71924475093124 Q 50.129231089505176, 40.83745996349975, 50.95259624724479, 35.767485261408005 " fill="none" id="curve_47" stroke="#000000" stroke-linecap="round" stroke-linejoin="round" stroke-width="2.6684277543290995"/>
  <path d="M 37.972876852634414, 34.41424519012429 Q 39.85318215366228, 33.37313309991218, 43.166146534938406, 31.921651504646704 " fill="none" id="curve_55" stroke="#000000" stroke-linecap="round" stroke-linejoin="round" stroke-width="2.474471962628863"/>
  <path d="M 50.495578019607024, 39.63662905989847 Q 50.52792615968448, 40.407758150498346, 50.583785155011434, 41.46050715705299 " fill="none" id="curve_61" stroke="#000000" stroke-linecap="round" stroke-linejoin="round" stroke-width="3.208917528020814"/>
  <path d="M 30.876430231077922, 83.2697741984338 Q 26.369570975156517, 84.25819414924445, 24.49945256027264, 89.35003651035217 " fill="none" id="curve_62" stroke="#000000" stroke-linecap="round" stroke-linejoin="round" stroke-width="3.0184486802878916"/>
  <path d="M 43.86907933930936, 95.5038921988509 Q 42.81266391806263, 95.76672174387278, 40.229359640105095, 96.25750721677822 " fill="none" id="curve_64" stroke="#000000" stroke-linecap="round" stroke-linejoin="round" stroke-width="3.3773387673882054"/>
</svg>
