<?xml version="1.0" ?>
<svg height="140" width="140" xmlns="http://www.w3.org/2000/svg">
  <path d="M 48.89804267883301, 78.23786926269531 Q 48.20712707574746, 73.85562699211572, 43.661287389996005, 70.76364233975426 " fill="none" id="curve_1" stroke="#000000" stroke-linecap="round" stroke-linejoin="round" stroke-width="4.024348114524939"/>
  <path d="M 43.661287389996005, 70.76364233975426 Q 30.093385068012395, 71.17430125942467, 22.967281043126054, 75.66083932251266 " fill="none" id="curve_1" stroke="#000000" stroke-linecap="round" stroke-linejoin="round" stroke-width="4.264555825357537"/>
  <path d="M 22.967281043126054, 75.66083932251266 Q 18.209392258652073, 77.04969118529013, 15.650470468498545, 80.03968570793498 " fill="none" id="curve_1" stroke="#000000" stroke-linecap="round" stroke-linejoin="round" stroke-width="4.411085325734345"/>
  <path d="M 48.52646635512593, 79.2690261543518 Q 47.11236278244364, 92.39259094228534, 36.09285601922186, 106.07635408192534 " fill="none" id="curve_2" stroke="#000000" stroke-linecap="round" stroke-linejoin="round" stroke-width="5.205803653582783"/>
  <path d="M 36.09285601922186, 106.07635408192534 Q 39.78263719304461, 108.50501805350235, 43.93146121138463, 111.16187299245814 " fill="none" id="curve_2" stroke="#000000" stroke-linecap="round" stroke-linejoin="round" stroke-width="4.683347446602247"/>
  <path d="M 43.93146121138463, 111.16187299245814 Q 55.577784079998445, 110.2907650131341, 60.49051617288161, 107.49181791100987 " fill="none" id="curve_2" stroke="#000000" stroke-linecap="round" stroke-linejoin="round" stroke-width="3.522707077488513"/>
  <path d="M 51.44323098768329, 87.23349833678736 Q 50.8839407989237, 78.21291581655935, 45.27350320191093, 74.08416201588 " fill="none" id="curve_3" stroke="#000000" stroke-linecap="round" stroke-linejoin="round" stroke-width="2.7084163026403005"/>
  <path d="M 45.27350320191093, 74.08416201588 Q 49.60540589240389, 74.40646564941045, 50.24270517053428, 77.87548789115966 " fill="none" id="curve_3" stroke="#000000" stroke-linecap="round" stroke-linejoin="round" stroke-width="3.133927460473448"/>
  <path d="M 50.24270517053428, 77.87548789115966 Q 48.13857645367945, 88.8142279112871, 40.18463369401148, 96.49113415695801 " fill="none" id="curve_3" stroke="#000000" stroke-linecap="round" stroke-linejoin="round" stroke-width="3.3065867663732766"/>
  <path d="M 40.18463369401148, 96.49113415695801 Q 39.93053696279017, 104.44150045986312, 39.01172589145594, 108.57190734293891 " fill="none" id="curve_3" stroke="#000000" stroke-linecap="round" stroke-linejoin="round" stroke-width="2.4467402251150543"/>
  <path d="M 45.9790199991191, 91.94058075444417 Q 46.904900966203684, 89.72390026533822, 47.66545292110658, 86.4084643267544 " fill="none" id="curve_4" stroke="#000000" stroke-linecap="round" stroke-linejoin="round" stroke-width="5.797140610218619"/>
  <path d="M 90.8196136222743, 90.9087645501943 Q 89.8397709388533, 91.86465994456071, 89.67087634712117, 108.51818500677123 " fill="none" id="curve_7" stroke="#000000" stroke-linecap="round" stroke-linejoin="round" stroke-width="1.9451696548986896"/>
  <path d="M 89.67087634712117, 108.51818500677123 Q 89.67403388356561, 129.92749303700595, 89.70590851133215, 138.77742489728038 " fill="none" id="curve_7" stroke="#000000" stroke-linecap="round" stroke-linejoin="round" stroke-width="1.6847644401940132"/>
  <path d="M 89.55524198450621, 89.70158398000488 Q 89.5578477331265, 86.07948168175659, 89.56140322879685, 76.0270305002191 " fill="none" id="curve_10" stroke="#000000" stroke-linecap="round" stroke-linejoin="round" stroke-width="1.3504456537084137"/>
  <path d="M 89.56140322879685, 76.0270305002191 Q 89.52643910950735, 73.86796491393046, 89.49817675898824, 63.13578077938181 " fill="none" id="curve_10" stroke="#000000" stroke-linecap="round" stroke-linejoin="round" stroke-width="1.488989686147425"/>
  <path d="M 89.49817675898824, 63.13578077938181 Q 89.51070634873342, 58.696455970785145, 89.54092607821379, 49.57748076107127 " fill="none" id="curve_10" stroke="#000000" stroke-linecap="round" stroke-linejoin="round" stroke-width="1.467554684144905"/>
  <path d="M 89.54092607821379, 49.57748076107127 Q 89.53372638149696, 46.00920091999255, 89.52263618434822, 36.77949949886424 " fill="none" id="curve_10" stroke="#000000" stroke-linecap="round" stroke-linejoin="round" stroke-width="1.4554917094219162"/>
  <path d="M 89.52263618434822, 36.77949949886424 Q 89.52596973713352, 33.019040553469594, 89.53177431120578, 23.39370962764842 " fill="none" id="curve_10" stroke="#000000" stroke-linecap="round" stroke-linejoin="round" stroke-width="1.4465813177177707"/>
  <path d="M 89.53177431120578, 23.39370962764842 Q 89.52652696976467, 19.648948828937122, 89.51790648314213, 10.337746111413068 " fill="none" id="curve_10" stroke="#000000" stroke-linecap="round" stroke-linejoin="round" stroke-width="1.4337855649281699"/>
  <path d="M 89.51790648314213, 10.337746111413068 Q 89.46879278020916, 2.8654559509751447, 89.01057123753284, 0.9081358590326953 " fill="none" id="curve_10" stroke="#000000" stroke-linecap="round" stroke-linejoin="round" stroke-width="1.6629957291017097"/>
  <path d="M 89.01057123753284, 0.9081358590326953 Q 88.55562332079519, 0.9999066127068349, 88.04049687537938, 1.1115233512865768 " fill="none" id="curve_10" stroke="#000000" stroke-linecap="round" stroke-linejoin="round" stroke-width="2.3482154992566517"/>
  <path d="M 46.95286159578853, 110.51405658713 Q 42.89367745416683, 109.68111678295722, 39.82172535556694, 107.51633891504771 " fill="none" id="curve_17" stroke="#000000" stroke-linecap="round" stroke-linejoin="round" stroke-width="2.656933186623837"/>
  <path d="M 47.39125208288809, 86.1277347761019 Q 47.95673663783573, 83.65227917937469, 48.609729819719746, 78.37832711401042 " fill="none" id="curve_18" stroke="#000000" stroke-linecap="round" stroke-linejoin="round" stroke-width="3.252754998668405"/>
  <path d="M 49.02837364951171, 83.48557542807067 Q 45.12352076709615, 85.71021213252773, 42.719648366041035, 91.80036854124377 " fill="none" id="curve_26" stroke="#000000" stroke-linecap="round" stroke-linejoin="round" stroke-width="2.4533119595943353"/>
  <path d="M 42.10722257003547, 72.79551224265074 Q 42.87455596193448, 72.7494702599046, 43.724819715933315, 72.66526243981113 " fill="none" id="curve_27" stroke="#000000" stroke-linecap="round" stroke-linejoin="round" stroke-width="3.3132577971308623"/>
  <path d="M 30.652821878585918, 73.7527228637743 Q 29.656140244875527, 73.26636345011012, 28.02636286335243, 72.0636715775623 " fill="none" id="curve_45" stroke="#000000" stroke-linecap="round" stroke-linejoin="round" stroke-width="2.2567183156311272"/>
  <path d="M 24.28258062857484, 72.82456270413266 Q 30.814501026899137, 72.26925861080227, 40.443125050279605, 71.0549967736559 " fill="none" id="curve_102" stroke="#000000" stroke-linecap="round" stroke-linejoin="round" stroke-width="2.0639853712135294"/>
  <path d="M 34.59684018518469, 71.66122285549436 Q 34.67008804038719, 71.16803288543818, 34.911042749687454, 70.59009269181017 " fill="none" id="curve_125" stroke="#000000" stroke-linecap="round" stroke-linejoin="round" stroke-width="2.7790060017094467"/>
</svg>
