<?xml version="1.0" ?>
<svg height="140" width="140" xmlns="http://www.w3.org/2000/svg">
  <path d="M 32.2970027923584, 41.50005626678467 Q 30.71746484564868, 43.10032323296531, 28.866526715089606, 46.19954796654387 " fill="none" id="curve_1" stroke="#000000" stroke-linecap="round" stroke-linejoin="round" stroke-width="4.182156614481389"/>
  <path d="M 28.866526715089606, 46.19954796654387 Q 26.13736032705864, 49.22636529551121, 25.385052404035832, 68.8877983894795 " fill="none" id="curve_1" stroke="#000000" stroke-linecap="round" stroke-linejoin="round" stroke-width="4.153096669625926"/>
  <path d="M 55.88953074232984, 59.725958176953455 Q 53.30046894377692, 74.73760085112525, 36.014867540983715, 95.32206136834554 " fill="none" id="curve_2" stroke="#000000" stroke-linecap="round" stroke-linejoin="round" stroke-width="4.518015028630486"/>
  <path d="M 36.014867540983715, 95.32206136834554 Q 29.817425143725654, 103.3438141949105, 21.4758700244643, 113.75446069424248 " fill="none" id="curve_2" stroke="#000000" stroke-linecap="round" stroke-linejoin="round" stroke-width="4.742044256426159"/>
  <path d="M 21.4758700244643, 113.75446069424248 Q 22.34579914285919, 111.02907483022959, 35.6192303157631, 110.73278014656647 " fill="none" id="curve_2" stroke="#000000" stroke-linecap="round" stroke-linejoin="round" stroke-width="4.770270663430951"/>
  <path d="M 35.6192303157631, 110.73278014656647 Q 45.23535693737615, 111.91553452454326, 61.43916904418319, 112.69749367412061 " fill="none" id="curve_2" stroke="#000000" stroke-linecap="round" stroke-linejoin="round" stroke-width="5.523008371458427"/>
  <path d="M 61.43916904418319, 112.69749367412061 Q 62.53482468181057, 111.19971437379033, 64.29381827894805, 110.21584447312095 " fill="none" id="curve_2" stroke="#000000" stroke-linecap="round" stroke-linejoin="round" stroke-width="5.161116888056607"/>
  <path d="M 49.94505234104692, 72.53179766764444 Q 53.6909079482094, 68.43003841530732, 56.08733494946444, 58.06072038999327 " fill="none" id="curve_3" stroke="#000000" stroke-linecap="round" stroke-linejoin="round" stroke-width="5.502032780457035"/>
  <path d="M 56.08733494946444, 58.06072038999327 Q 55.945202336639134, 43.77205532706936, 41.51860168374995, 43.17244177441054 " fill="none" id="curve_3" stroke="#000000" stroke-linecap="round" stroke-linejoin="round" stroke-width="5.2521592829574715"/>
  <path d="M 41.51860168374995, 43.17244177441054 Q 41.03609601277688, 42.26533650157478, 32.30412390868523, 42.15500120101282 " fill="none" id="curve_3" stroke="#000000" stroke-linecap="round" stroke-linejoin="round" stroke-width="4.048527653200452"/>
  <path d="M 54.02657352765662, 114.2458103901795 Q 51.992785390198556, 113.5878012993394, 49.386288267034494, 112.48483742554201 " fill="none" id="curve_7" stroke="#000000" stroke-linecap="round" stroke-linejoin="round" stroke-width="4.276602787035449"/>
  <path d="M 60.0699098869668, 110.62068257238414 Q 57.03530937463155, 110.66810805057324, 55.23945691954587, 110.8779399938888 " fill="none" id="curve_23" stroke="#000000" stroke-linecap="round" stroke-linejoin="round" stroke-width="3.413943173005923"/>
  <path d="M 38.81039477130156, 110.3929535411792 Q 43.44760966782572, 110.20609661490151, 45.82434368019837, 109.56333496983748 " fill="none" id="curve_28" stroke="#000000" stroke-linecap="round" stroke-linejoin="round" stroke-width="3.1333480309233788"/>
  <path d="M 44.1208132603363, 88.34371327520262 Q 46.01153252673203, 78.42210396035775, 51.99553652333814, 70.00727634954008 " fill="none" id="curve_31" stroke="#000000" stroke-linecap="round" stroke-linejoin="round" stroke-width="2.504950000037813"/>
  <path d="M 51.99553652333814, 70.00727634954008 Q 53.68605783813665, 64.78035164385442, 58.07234991316365, 61.71082550752501 " fill="none" id="curve_31" stroke="#000000" stroke-linecap="round" stroke-linejoin="round" stroke-width="3.1362139542401826"/>
  <path d="M 52.15139075252169, 46.456115092232835 Q 53.164760440158304, 46.151663683795064, 53.8898886670562, 45.36058185294245 " fill="none" id="curve_32" stroke="#000000" stroke-linecap="round" stroke-linejoin="round" stroke-width="3.6824416725713838"/>
  <path d="M 37.48384045834818, 94.24844286949067 Q 30.516964477517135, 96.4376580583876, 27.38833672294749, 106.63805991267489 " fill="none" id="curve_34" stroke="#000000" stroke-linecap="round" stroke-linejoin="round" stroke-width="2.6083536158318608"/>
  <path d="M 24.915367244003438, 55.12014508419428 Q 25.511551035782947, 58.59963769841534, 26.606100904145187, 61.94279696372952 " fill="none" id="curve_37" stroke="#000000" stroke-linecap="round" stroke-linejoin="round" stroke-width="3.5554638800723253"/>
  <path d="M 54.386378387935586, 52.331693561576216 Q 54.71030729841237, 53.62430078150717, 55.207420403591996, 55.5797103738191 " fill="none" id="curve_39" stroke="#000000" stroke-linecap="round" stroke-linejoin="round" stroke-width="3.530731782634783"/>
  <path d="M 37.600240582884204, 91.97652340295554 Q 35.897366311385696, 92.97617715969447, 34.16572473189279, 95.07000739778219 " fill="none" id="curve_41" stroke="#000000" stroke-linecap="round" stroke-linejoin="round" stroke-width="3.182866543066904"/>
  <path d="M 55.66430591955677, 54.808601956697125 Q 54.74903183007093, 54.18494043802195, 53.437847198480966, 53.25860994349383 " fill="none" id="curve_42" stroke="#000000" stroke-linecap="round" stroke-linejoin="round" stroke-width="4.74721676817134"/>
  <path d="M 31.240049206334305, 42.291324476952376 Q 30.752066586170706, 42.69209123636646, 29.544713306960666, 43.21754332346545 " fill="none" id="curve_46" stroke="#000000" stroke-linecap="round" stroke-linejoin="round" stroke-width="2.546023802248166"/>
  <path d="M 38.85757763634583, 110.61529507155758 Q 40.30734902384023, 110.44773942412787, 43.503918548642865, 110.27963176101206 " fill="none" id="curve_52" stroke="#000000" stroke-linecap="round" stroke-linejoin="round" stroke-width="3.3046307397194488"/>
  <path d="M 57.979257908544405, 52.83009209783648 Q 57.213733701144534, 52.06457567859145, 55.13507833884716, 51.38009750377785 " fill="none" id="curve_55" stroke="#000000" stroke-linecap="round" stroke-linejoin="round" stroke-width="3.077055078593225"/>
  <path d="M 63.542343125452135, 110.4823258138796 Q 61.47111459633935, 110.54783346036915, 58.601665480029155, 110.65771156170926 " fill="none" id="curve_70" stroke="#000000" stroke-linecap="round" stroke-linejoin="round" stroke-width="3.161580917533073"/>
</svg>
