<?xml version="1.0" ?>
<svg height="140" width="140" xmlns="http://www.w3.org/2000/svg">
  <path d="M 30.458154678344727, 94.395751953125 Q 30.381305277714652, 92.79532632411181, 29.92520304327572, 91.72485322515747 " fill="none" id="curve_1" stroke="#000000" stroke-linecap="round" stroke-linejoin="round" stroke-width="7.337380514193995"/>
  <path d="M 29.92520304327572, 91.72485322515747 Q 33.64600901491641, 85.63407831659391, 39.97332159627774, 73.04093807282126 " fill="none" id="curve_1" stroke="#000000" stroke-linecap="round" stroke-linejoin="round" stroke-width="5.899290012580604"/>
  <path d="M 39.97332159627774, 73.04093807282126 Q 44.51013850590506, 67.24959326097665, 48.86962240075577, 50.490968693204394 " fill="none" id="curve_1" stroke="#000000" stroke-linecap="round" stroke-linejoin="round" stroke-width="5.8685168902588964"/>
  <path d="M 48.86962240075577, 50.490968693204394 Q 48.75295282557413, 37.07810815688747, 45.180774261377, 36.123238920410785 " fill="none" id="curve_1" stroke="#000000" stroke-linecap="round" stroke-linejoin="round" stroke-width="6.832569919979683"/>
  <path d="M 45.180774261377, 36.123238920410785 Q 31.3525519925458, 38.88574015577156, 23.98017670367814, 50.716604259650225 " fill="none" id="curve_1" stroke="#000000" stroke-linecap="round" stroke-linejoin="round" stroke-width="7.301975368617905"/>
  <path d="M 71.44757387562777, 89.0151625796518 Q 67.84186567982746, 91.8610376474359, 56.707994895195085, 95.28239256988108 " fill="none" id="curve_3" stroke="#000000" stroke-linecap="round" stroke-linejoin="round" stroke-width="5.427497736419022"/>
  <path d="M 56.707994895195085, 95.28239256988108 Q 51.89979988149332, 96.52058339801917, 34.37977283812563, 97.1313576944933 " fill="none" id="curve_3" stroke="#000000" stroke-linecap="round" stroke-linejoin="round" stroke-width="5.080111303858056"/>
  <path d="M 34.37977283812563, 97.1313576944933 Q 32.556629296100915, 96.46626515331265, 30.95513151663659, 95.55992109447978 " fill="none" id="curve_3" stroke="#000000" stroke-linecap="round" stroke-linejoin="round" stroke-width="6.306125099486168"/>
  <path d="M 21.157856059430756, 49.60995322111452 Q 25.536658414716932, 41.20018534647111, 41.31492835397887, 34.975437581134315 " fill="none" id="curve_4" stroke="#000000" stroke-linecap="round" stroke-linejoin="round" stroke-width="3.0081283784732142"/>
  <path d="M 41.31492835397887, 34.975437581134315 Q 48.22036242349299, 35.1880800668673, 48.679188975568444, 40.762257683216035 " fill="none" id="curve_4" stroke="#000000" stroke-linecap="round" stroke-linejoin="round" stroke-width="5.144974271283754"/>
  <path d="M 48.679188975568444, 40.762257683216035 Q 48.90789348791245, 39.73642500102888, 49.032081846265655, 37.039786520484384 " fill="none" id="curve_4" stroke="#000000" stroke-linecap="round" stroke-linejoin="round" stroke-width="5.056280657195809"/>
  <path d="M 47.194143065753416, 47.137793127827265 Q 46.495444097555655, 42.37285162387842, 44.83262529906942, 39.02104583540492 " fill="none" id="curve_5" stroke="#000000" stroke-linecap="round" stroke-linejoin="round" stroke-width="3.8400843561568205"/>
  <path d="M 65.65183806529, 91.31338588064347 Q 68.15427262320036, 90.10497637929554, 70.71328532971236, 88.07527012517608 " fill="none" id="curve_6" stroke="#000000" stroke-linecap="round" stroke-linejoin="round" stroke-width="4.19829572098391"/>
  <path d="M 70.71328532971236, 88.07527012517608 Q 65.24715537447612, 93.65828761888599, 43.84594822513731, 97.17248418035987 " fill="none" id="curve_6" stroke="#000000" stroke-linecap="round" stroke-linejoin="round" stroke-width="3.3107014074754026"/>
  <path d="M 41.57487839667868, 70.1308155234563 Q 41.99951003275461, 59.90560430126009, 46.605214418923026, 57.49958872360938 " fill="none" id="curve_7" stroke="#000000" stroke-linecap="round" stroke-linejoin="round" stroke-width="3.454893085724976"/>
  <path d="M 69.06673137282685, 91.80179889501643 Q 69.3623026423254, 91.85665402170454, 69.79462585262756, 91.94538484639556 " fill="none" id="curve_9" stroke="#000000" stroke-linecap="round" stroke-linejoin="round" stroke-width="3.365779838885017"/>
  <path d="M 69.79462585262756, 91.94538484639556 Q 55.187618115149235, 93.62653157682216, 43.01813210368179, 98.08031450865444 " fill="none" id="curve_9" stroke="#000000" stroke-linecap="round" stroke-linejoin="round" stroke-width="3.0659652283946963"/>
  <path d="M 43.01813210368179, 98.08031450865444 Q 39.943562156457745, 96.48513130613684, 31.40518917132846, 95.41485947617382 " fill="none" id="curve_9" stroke="#000000" stroke-linecap="round" stroke-linejoin="round" stroke-width="3.2352201736897177"/>
  <path d="M 34.35126085901539, 36.92260798107594 Q 34.47358986673525, 36.77829026845426, 34.65116616566768, 36.60746316381119 " fill="none" id="curve_11" stroke="#000000" stroke-linecap="round" stroke-linejoin="round" stroke-width="4.233278105867038"/>
  <path d="M 32.13915404391679, 93.37917931008754 Q 31.865582908277364, 93.4665349906425, 31.65276010607841, 93.71985781287161 " fill="none" id="curve_27" stroke="#000000" stroke-linecap="round" stroke-linejoin="round" stroke-width="4.061609395243422"/>
  <path d="M 44.81110086539786, 97.15596849985309 Q 49.21949383567865, 96.15742953875775, 53.69457741511133, 94.5047283731851 " fill="none" id="curve_51" stroke="#000000" stroke-linecap="round" stroke-linejoin="round" stroke-width="2.9927491849174945"/>
  <path d="M 49.44603549877907, 94.9484968617355 Q 47.87203580965423, 95.05758416275091, 46.38920031433058, 95.30222458213824 " fill="none" id="curve_67" stroke="#000000" stroke-linecap="round" stroke-linejoin="round" stroke-width="3.005338503361489"/>
  <path d="M 31.90730981347768, 95.23496020098497 Q 30.678334246258526, 94.59698424334388, 28.521465404146706, 93.701349787877 " fill="none" id="curve_68" stroke="#000000" stroke-linecap="round" stroke-linejoin="round" stroke-width="3.7496599844256004"/>
  <path d="M 34.94955999627422, 94.61744443173723 Q 33.69083351694282, 93.35857036503133, 30.77924225899994, 92.3684597157121 " fill="none" id="curve_110" stroke="#000000" stroke-linecap="round" stroke-linejoin="round" stroke-width="3.303913327243686"/>
  <path d="M 42.29928075011249, 64.64738106837471 Q 41.11779890718413, 69.67176572884601, 39.359498880516476, 77.38616268256021 " fill="none" id="curve_139" stroke="#000000" stroke-linecap="round" stroke-linejoin="round" stroke-width="2.2992938049847274"/>
</svg>
