<?xml version="1.0" ?>
<svg height="140" width="140" xmlns="http://www.w3.org/2000/svg">
  <path d="M 65.3326473236084, 78.8463134765625 Q 67.03076005316473, 72.81950906867203, 74.17805187760081, 55.749225587581805 " fill="none" id="curve_1" stroke="#000000" stroke-linecap="round" stroke-linejoin="round" stroke-width="4.804042880961373"/>
  <path d="M 74.17805187760081, 55.749225587581805 Q 76.74723661983433, 52.955435659331094, 77.87048355661143, 42.71917050693407 " fill="none" id="curve_1" stroke="#000000" stroke-linecap="round" stroke-linejoin="round" stroke-width="5.619619633311822"/>
  <path d="M 77.87048355661143, 42.71917050693407 Q 76.96361784515832, 23.702421450274873, 56.043636656468806, 19.013751407692766 " fill="none" id="curve_1" stroke="#000000" stroke-linecap="round" stroke-linejoin="round" stroke-width="5.22950993618263"/>
  <path d="M 56.043636656468806, 19.013751407692766 Q 41.863395398985844, 21.383854879603994, 35.116433082143395, 53.53552610427329 " fill="none" id="curve_1" stroke="#000000" stroke-linecap="round" stroke-linejoin="round" stroke-width="4.6401041128831295"/>
  <path d="M 35.116433082143395, 53.53552610427329 Q 34.171894382115326, 63.40950578396537, 33.20663813994678, 76.67338097681616 " fill="none" id="curve_1" stroke="#000000" stroke-linecap="round" stroke-linejoin="round" stroke-width="4.375648515874961"/>
  <path d="M 66.33790825490289, 71.40485470382443 Q 62.30338407701481, 81.74355981123495, 50.89131857242825, 109.70881335286066 " fill="none" id="curve_2" stroke="#000000" stroke-linecap="round" stroke-linejoin="round" stroke-width="5.220100860914994"/>
  <path d="M 50.89131857242825, 109.70881335286066 Q 50.862943369674895, 115.31514833809032, 50.487842049762506, 116.04918687356374 " fill="none" id="curve_2" stroke="#000000" stroke-linecap="round" stroke-linejoin="round" stroke-width="5.633161885183924"/>
  <path d="M 67.14358832035276, 83.78535713150146 Q 68.76620825206611, 83.24647802380493, 85.0775896382491, 83.13313744865012 " fill="none" id="curve_3" stroke="#000000" stroke-linecap="round" stroke-linejoin="round" stroke-width="4.9296419917141545"/>
  <path d="M 85.0775896382491, 83.13313744865012 Q 88.37354998852635, 85.07262010790288, 88.82909396512785, 100.10598185931379 " fill="none" id="curve_3" stroke="#000000" stroke-linecap="round" stroke-linejoin="round" stroke-width="4.472038971928949"/>
  <path d="M 77.1364789890253, 80.7029115311135 Q 58.55453583959149, 81.00482371918551, 56.497813577518045, 91.35344160738816 " fill="none" id="curve_4" stroke="#000000" stroke-linecap="round" stroke-linejoin="round" stroke-width="4.282555805288386"/>
  <path d="M 56.497813577518045, 91.35344160738816 Q 52.527206675487115, 95.56210151128371, 51.02205185808903, 116.68859657958691 " fill="none" id="curve_4" stroke="#000000" stroke-linecap="round" stroke-linejoin="round" stroke-width="3.8557560561283712"/>
  <path d="M 51.02205185808903, 116.68859657958691 Q 53.830636380535395, 105.6502592650994, 59.249194117264835, 89.25311559704663 " fill="none" id="curve_4" stroke="#000000" stroke-linecap="round" stroke-linejoin="round" stroke-width="2.621770981381695"/>
  <path d="M 59.249194117264835, 89.25311559704663 Q 62.30234961005625, 79.26790968510943, 69.07943792604318, 70.53044328155565 " fill="none" id="curve_4" stroke="#000000" stroke-linecap="round" stroke-linejoin="round" stroke-width="3.614947719056673"/>
  <path d="M 69.07943792604318, 70.53044328155565 Q 71.66691130045767, 61.11271422963382, 76.20362146203807, 47.603320631889964 " fill="none" id="curve_4" stroke="#000000" stroke-linecap="round" stroke-linejoin="round" stroke-width="3.273287456788475"/>
  <path d="M 48.56717814356371, 20.306957395102188 Q 44.42218645018014, 24.483187923585334, 40.19962343107137, 38.08628968538132 " fill="none" id="curve_6" stroke="#000000" stroke-linecap="round" stroke-linejoin="round" stroke-width="2.7411838594420446"/>
  <path d="M 40.19962343107137, 38.08628968538132 Q 39.42530221472995, 44.522481370637024, 36.34797788897757, 47.42404706460072 " fill="none" id="curve_6" stroke="#000000" stroke-linecap="round" stroke-linejoin="round" stroke-width="3.245911411989872"/>
  <path d="M 1.0949569149281402, 55.75184369880695 Q 1.5867656743152248, 57.347628865609934, 1.7807245689778366, 85.40557505348617 " fill="none" id="curve_7" stroke="#000000" stroke-linecap="round" stroke-linejoin="round" stroke-width="1.7851348566888845"/>
  <path d="M 1.7807245689778366, 85.40557505348617 Q 1.587678736946011, 87.3844882345994, 1.4568203283935581, 111.50217627179521 " fill="none" id="curve_7" stroke="#000000" stroke-linecap="round" stroke-linejoin="round" stroke-width="1.8199130997802329"/>
  <path d="M 1.4568203283935581, 111.50217627179521 Q 1.4116680584201895, 114.75647635097691, 1.3321900384467162, 135.2657066881616 " fill="none" id="curve_7" stroke="#000000" stroke-linecap="round" stroke-linejoin="round" stroke-width="1.9524181538566177"/>
  <path d="M 1.3321900384467162, 135.2657066881616 Q 1.6422689775374242, 137.4092849219784, 2.6314053259050487, 138.45494343050248 " fill="none" id="curve_7" stroke="#000000" stroke-linecap="round" stroke-linejoin="round" stroke-width="3.4653870292727986"/>
  <path d="M 2.6314053259050487, 138.45494343050248 Q 2.460029510893983, 138.477134722135, 2.1716203432110266, 138.49790005253055 " fill="none" id="curve_7" stroke="#000000" stroke-linecap="round" stroke-linejoin="round" stroke-width="2.6599882208102605"/>
  <path d="M 49.092980539144996, 116.26847166250067 Q 48.81437333611309, 115.14073399830038, 48.45142695672118, 113.89778189931171 " fill="none" id="curve_10" stroke="#000000" stroke-linecap="round" stroke-linejoin="round" stroke-width="3.632669351993305"/>
  <path d="M 59.61096936750219, 86.35421696656874 Q 60.82265928207736, 82.99825037635267, 64.5720473260878, 80.33498618626165 " fill="none" id="curve_11" stroke="#000000" stroke-linecap="round" stroke-linejoin="round" stroke-width="3.2172267884777876"/>
  <path d="M 64.5720473260878, 80.33498618626165 Q 66.86911803465026, 67.6643074396276, 74.65177464590782, 57.844375136966555 " fill="none" id="curve_11" stroke="#000000" stroke-linecap="round" stroke-linejoin="round" stroke-width="3.350834669612211"/>
  <path d="M 61.59411276337366, 83.55338680503641 Q 61.78863077169758, 83.49771945760818, 61.98120584097459, 83.38596801737994 " fill="none" id="curve_12" stroke="#000000" stroke-linecap="round" stroke-linejoin="round" stroke-width="6.022627191752316"/>
  <path d="M 61.98120584097459, 83.38596801737994 Q 61.623500882137094, 83.57955315030435, 61.2421505553974, 84.07252942506577 " fill="none" id="curve_12" stroke="#000000" stroke-linecap="round" stroke-linejoin="round" stroke-width="5.030918903308755"/>
  <path d="M -0.2696434873788931, 54.475771324107875 Q 1.030445843269553, 53.756735815295826, 1.577510338701823, 48.83310366689712 " fill="none" id="curve_13" stroke="#000000" stroke-linecap="round" stroke-linejoin="round" stroke-width="1.8231696458249016"/>
  <path d="M 1.577510338701823, 48.83310366689712 Q 1.0738759295247768, 47.11731465593988, 0.8638667799570088, 33.253325117179564 " fill="none" id="curve_13" stroke="#000000" stroke-linecap="round" stroke-linejoin="round" stroke-width="1.7238665975919516"/>
  <path d="M 0.8638667799570088, 33.253325117179564 Q 0.888878908084576, 24.15496515373796, 0.9465620897252384, 9.10056559415327 " fill="none" id="curve_13" stroke="#000000" stroke-linecap="round" stroke-linejoin="round" stroke-width="1.559206740645719"/>
  <path d="M 0.9465620897252384, 9.10056559415327 Q 1.1576955668375286, 3.8331427900172734, 1.894057306677324, 0.9423346911840298 " fill="none" id="curve_13" stroke="#000000" stroke-linecap="round" stroke-linejoin="round" stroke-width="2.259867076322135"/>
  <path d="M 43.58202452070877, 28.37735043874123 Q 44.13577862555929, 20.263590713855745, 55.15391466997221, 18.478793627166333 " fill="none" id="curve_15" stroke="#000000" stroke-linecap="round" stroke-linejoin="round" stroke-width="2.3590126793594712"/>
  <path d="M 61.25499565035981, 17.856276351594225 Q 60.08874038823936, 17.928667555902933, 57.76180947881804, 18.009930372925393 " fill="none" id="curve_16" stroke="#000000" stroke-linecap="round" stroke-linejoin="round" stroke-width="2.717269837523311"/>
  <path d="M 80.28617537835707, 83.19954467153075 Q 83.76303233960124, 85.25081990608598, 87.58055190758058, 88.08970931030838 " fill="none" id="curve_21" stroke="#000000" stroke-linecap="round" stroke-linejoin="round" stroke-width="3.8110603953818702"/>
  <path d="M 59.25228926467039, 84.88870534969227 Q 60.20029740024298, 84.34323299967745, 61.19749755874579, 82.99975711966492 " fill="none" id="curve_23" stroke="#000000" stroke-linecap="round" stroke-linejoin="round" stroke-width="4.148388608403497"/>
  <path d="M 73.17820260857323, 61.72653237279292 Q 72.62499863737978, 61.914784277129115, 71.5712944861131, 62.386754081498616 " fill="none" id="curve_24" stroke="#000000" stroke-linecap="round" stroke-linejoin="round" stroke-width="3.3517574072536873"/>
  <path d="M 85.40370750427246, 82.87995910644531 Q 82.46261992885876, 82.22877073581516, 79.24980877914754, 80.21923049527152 " fill="none" id="curve_64" stroke="#000000" stroke-linecap="round" stroke-linejoin="round" stroke-width="2.6284875806820813"/>
  <path d="M 64.8480092679871, 84.69830708389946 Q 62.51761968619043, 85.98633456612777, 59.31238782131417, 87.38253936019754 " fill="none" id="curve_65" stroke="#000000" stroke-linecap="round" stroke-linejoin="round" stroke-width="2.0972809543865076"/>
  <path d="M 35.62545430515672, 77.27429205935044 Q 35.10713610411477, 77.04830273263048, 34.50071465491474, 76.73566221686472 " fill="none" id="curve_66" stroke="#000000" stroke-linecap="round" stroke-linejoin="round" stroke-width="4.040158125197249"/>
  <path d="M 71.29390157247722, 65.68807834095963 Q 72.55382055488958, 56.75672785906028, 76.68264760551911, 47.67165828182443 " fill="none" id="curve_72" stroke="#000000" stroke-linecap="round" stroke-linejoin="round" stroke-width="2.2739340048947647"/>
  <path d="M 47.5061417321318, 22.32502294836002 Q 41.746867863092454, 29.973939044739105, 35.7942096362955, 55.046308977359885 " fill="none" id="curve_81" stroke="#000000" stroke-linecap="round" stroke-linejoin="round" stroke-width="2.332298094114836"/>
  <path d="M 67.90885172312164, 20.908061308898994 Q 66.76867009097774, 20.37869955024394, 62.44458164721636, 19.993815442248227 " fill="none" id="curve_96" stroke="#000000" stroke-linecap="round" stroke-linejoin="round" stroke-width="2.624535657345991"/>
  <path d="M 89.64409896432676, 88.73338882902391 Q 89.41597893631806, 86.2278037436757, 86.70999964221619, 85.67716298876455 " fill="none" id="curve_111" stroke="#000000" stroke-linecap="round" stroke-linejoin="round" stroke-width="2.2351820190516776"/>
  <path d="M 75.80940899872884, 46.877775587729815 Q 75.68483271126583, 45.36203905679869, 74.82218068955376, 44.98236496424593 " fill="none" id="curve_115" stroke="#000000" stroke-linecap="round" stroke-linejoin="round" stroke-width="3.090139610077752"/>
  <path d="M 66.99129746253857, 25.6326279574666 Q 71.52036484229642, 30.169648002106662, 79.07220444366352, 35.47551512326179 " fill="none" id="curve_116" stroke="#000000" stroke-linecap="round" stroke-linejoin="round" stroke-width="1.8101150005748186"/>
  <path d="M 35.20528486492653, 59.73743459966774 Q 35.829537451656556, 59.96884429171062, 36.96188011160713, 60.32710004893966 " fill="none" id="curve_122" stroke="#000000" stroke-linecap="round" stroke-linejoin="round" stroke-width="2.822489099422683"/>
</svg>
