<?xml version="1.0" ?>
<svg height="140" width="140" xmlns="http://www.w3.org/2000/svg">
  <path d="M 19.020404815673828, 100.7063217163086 Q 18.23149997680051, 98.75083134592026, 16.45013338180064, 96.71649287028782 " fill="none" id="curve_1" stroke="#000000" stroke-linecap="round" stroke-linejoin="round" stroke-width="6.3241327609322315"/>
  <path d="M 16.45013338180064, 96.71649287028782 Q 17.442769105237723, 89.17017491075359, 21.835391366270485, 84.28288992512331 " fill="none" id="curve_1" stroke="#000000" stroke-linecap="round" stroke-linejoin="round" stroke-width="5.238786944277943"/>
  <path d="M 21.835391366270485, 84.28288992512331 Q 27.237017354184033, 78.49834867565653, 38.92700306358188, 61.75348767082173 " fill="none" id="curve_1" stroke="#000000" stroke-linecap="round" stroke-linejoin="round" stroke-width="4.7406107768796515"/>
  <path d="M 38.92700306358188, 61.75348767082173 Q 43.395576605918805, 56.11936295942611, 47.98096291308778, 43.511732312967155 " fill="none" id="curve_1" stroke="#000000" stroke-linecap="round" stroke-linejoin="round" stroke-width="5.670661230869652"/>
  <path d="M 47.98096291308778, 43.511732312967155 Q 47.390782628192596, 29.115563444418523, 33.64051071627624, 26.847222837216382 " fill="none" id="curve_1" stroke="#000000" stroke-linecap="round" stroke-linejoin="round" stroke-width="6.01629415274625"/>
  <path d="M 33.64051071627624, 26.847222837216382 Q 17.83728061007441, 27.050206193470824, 17.029109773962364, 41.89268152171092 " fill="none" id="curve_1" stroke="#000000" stroke-linecap="round" stroke-linejoin="round" stroke-width="4.520645029786362"/>
  <path d="M 17.029109773962364, 41.89268152171092 Q 18.09430400232655, 46.97277514925474, 21.12153941790626, 49.366884209511376 " fill="none" id="curve_1" stroke="#000000" stroke-linecap="round" stroke-linejoin="round" stroke-width="3.8459370645456263"/>
  <path d="M 16.561773954707675, 45.664558693248615 Q 17.728525930711807, 37.35149185241574, 20.619115653141165, 29.239292940153025 " fill="none" id="curve_4" stroke="#000000" stroke-linecap="round" stroke-linejoin="round" stroke-width="3.067513573221995"/>
  <path d="M 67.45694404045193, 98.2862860408257 Q 66.13804658691541, 102.76409484035229, 44.43756154779423, 104.46756673982503 " fill="none" id="curve_7" stroke="#000000" stroke-linecap="round" stroke-linejoin="round" stroke-width="5.898563487965149"/>
  <path d="M 44.43756154779423, 104.46756673982503 Q 41.85706496203968, 104.97106955284745, 36.231058070226695, 105.34867456561572 " fill="none" id="curve_7" stroke="#000000" stroke-linecap="round" stroke-linejoin="round" stroke-width="6.600649362704228"/>
  <path d="M 36.231058070226695, 105.34867456561572 Q 25.715990061110126, 104.15540747716152, 20.580024503325387, 99.83903763021496 " fill="none" id="curve_7" stroke="#000000" stroke-linecap="round" stroke-linejoin="round" stroke-width="6.958335756034523"/>
  <path d="M 47.63942341273548, 105.51865039098725 Q 57.622806005769185, 102.65738570563113, 70.92293054739275, 99.33709534494446 " fill="none" id="curve_8" stroke="#000000" stroke-linecap="round" stroke-linejoin="round" stroke-width="3.795377953285508"/>
  <path d="M 50.34613757775837, 105.20263550929296 Q 54.42434592781407, 102.0262023743481, 64.68631395014995, 100.17675576190045 " fill="none" id="curve_9" stroke="#000000" stroke-linecap="round" stroke-linejoin="round" stroke-width="3.250527849637427"/>
  <path d="M 31.5846501286763, 25.363267857845678 Q 22.68289567764911, 26.540892572139597, 18.4516287526474, 32.78260001559306 " fill="none" id="curve_13" stroke="#000000" stroke-linecap="round" stroke-linejoin="round" stroke-width="2.913645139835524"/>
  <path d="M 16.384019906665447, 42.66374376631131 Q 16.844892232809226, 42.00796439632697, 17.178838778460154, 40.59644432186992 " fill="none" id="curve_14" stroke="#000000" stroke-linecap="round" stroke-linejoin="round" stroke-width="6.41454819018553"/>
  <path d="M 17.178838778460154, 40.59644432186992 Q 18.306049067162128, 40.86922317647132, 19.427533213716142, 41.904233172194154 " fill="none" id="curve_14" stroke="#000000" stroke-linecap="round" stroke-linejoin="round" stroke-width="2.664239711643437"/>
  <path d="M 38.40795944450403, 28.301557142807773 Q 43.41350300341187, 33.28505106336322, 47.620384559573445, 42.19469273108783 " fill="none" id="curve_17" stroke="#000000" stroke-linecap="round" stroke-linejoin="round" stroke-width="1.9532248041405944"/>
  <path d="M 47.620384559573445, 42.19469273108783 Q 46.72003697983323, 44.36218768365945, 45.022299357739634, 47.15030606591437 " fill="none" id="curve_17" stroke="#000000" stroke-linecap="round" stroke-linejoin="round" stroke-width="3.3344276034637073"/>
  <path d="M 54.95002233972671, 104.47620832942873 Q 54.00216103383392, 104.06228227299856, 52.708648753967715, 103.3808688383133 " fill="none" id="curve_19" stroke="#000000" stroke-linecap="round" stroke-linejoin="round" stroke-width="5.259518786320588"/>
  <path d="M 37.97690812491021, 61.96209231398764 Q 41.21850129031073, 56.75692280736693, 46.01813033951669, 49.646287910137225 " fill="none" id="curve_21" stroke="#000000" stroke-linecap="round" stroke-linejoin="round" stroke-width="2.8209133007016063"/>
  <path d="M 19.91887330507833, 101.7751725170695 Q 19.50148142610992, 100.89987098356089, 19.332014615293325, 94.17228536344402 " fill="none" id="curve_29" stroke="#000000" stroke-linecap="round" stroke-linejoin="round" stroke-width="2.459530945283821"/>
  <path d="M 17.534475396972077, 101.20903615818878 Q 18.32771779359272, 102.05882356728799, 24.27513994308536, 102.2142050949086 " fill="none" id="curve_30" stroke="#000000" stroke-linecap="round" stroke-linejoin="round" stroke-width="1.7883764729841716"/>
  <path d="M 45.9015821074104, 44.46436664684879 Q 45.78049955215132, 42.07820569501688, 45.38262820540113, 40.187317908270984 " fill="none" id="curve_40" stroke="#000000" stroke-linecap="round" stroke-linejoin="round" stroke-width="2.8091779611065646"/>
  <path d="M 36.50807307950599, 26.985014205688024 Q 37.5826077706994, 27.176168363327513, 39.95131660720559, 27.5687102764049 " fill="none" id="curve_41" stroke="#000000" stroke-linecap="round" stroke-linejoin="round" stroke-width="2.103692647073498"/>
  <path d="M 26.566937521213724, 76.62542495968644 Q 22.696983224625384, 80.57677532807814, 17.95804425710064, 88.6199800629826 " fill="none" id="curve_71" stroke="#000000" stroke-linecap="round" stroke-linejoin="round" stroke-width="2.2657100270499098"/>
  <path d="M 53.65097963128137, 102.53174220814951 Q 52.287594469720695, 102.68475132464074, 50.28131353337058, 102.8922747933412 " fill="none" id="curve_87" stroke="#000000" stroke-linecap="round" stroke-linejoin="round" stroke-width="3.7283425182863508"/>
  <path d="M 36.049850638617166, 26.963777355748775 Q 35.092365306883224, 26.57351009791039, 31.019035610774566, 26.182904514292296 " fill="none" id="curve_147" stroke="#000000" stroke-linecap="round" stroke-linejoin="round" stroke-width="2.815556566547328"/>
  <path d="M 54.16468320684703, 101.68408852722087 Q 48.7839239510487, 103.69341293486606, 40.353596265566864, 106.53654785903753 " fill="none" id="curve_162" stroke="#000000" stroke-linecap="round" stroke-linejoin="round" stroke-width="3.5859729711102237"/>
  <path d="M 37.93811511521907, 105.17759662492584 Q 31.320980051910112, 103.97981373939591, 25.983072904451188, 100.94938887002223 " fill="none" id="curve_178" stroke="#000000" stroke-linecap="round" stroke-linejoin="round" stroke-width="2.779169435417948"/>
  <path d="M 47.76487870409761, 104.53560646125365 Q 46.57358298017885, 104.32685844718485, 44.879646853748845, 104.03979438147981 " fill="none" id="curve_180" stroke="#000000" stroke-linecap="round" stroke-linejoin="round" stroke-width="4.242883465381378"/>
</svg>
