<?xml version="1.0" ?>
<svg height="140" width="140" xmlns="http://www.w3.org/2000/svg">
  <path d="M 72.00568771362305, 102.27963256835938 Q 68.64607102535733, 104.23820852297084, 45.78235802565405, 105.89401327447362 " fill="none" id="curve_1" stroke="#000000" stroke-linecap="round" stroke-linejoin="round" stroke-width="6.27724224863344"/>
  <path d="M 45.78235802565405, 105.89401327447362 Q 35.934553549603336, 105.80021635513666, 34.940038663798525, 103.66450026473035 " fill="none" id="curve_1" stroke="#000000" stroke-linecap="round" stroke-linejoin="round" stroke-width="4.506500253523081"/>
  <path d="M 34.940038663798525, 103.66450026473035 Q 38.84375788855477, 93.77834143419425, 53.943455085918515, 78.34658662913266 " fill="none" id="curve_1" stroke="#000000" stroke-linecap="round" stroke-linejoin="round" stroke-width="5.608702834664228"/>
  <path d="M 53.943455085918515, 78.34658662913266 Q 53.836344444532465, 66.35156597387697, 44.0361144569711, 65.90445058977556 " fill="none" id="curve_1" stroke="#000000" stroke-linecap="round" stroke-linejoin="round" stroke-width="4.813645528197856"/>
  <path d="M 44.0361144569711, 65.90445058977556 Q 34.83367595561286, 67.03333174513273, 32.6056471937048, 73.89111619732554 " fill="none" id="curve_1" stroke="#000000" stroke-linecap="round" stroke-linejoin="round" stroke-width="3.8175119319645567"/>
  <path d="M 38.03766165973421, 95.48248320851246 Q 35.13433450187999, 97.35337215965652, 33.92105338345889, 102.55056485395268 " fill="none" id="curve_2" stroke="#000000" stroke-linecap="round" stroke-linejoin="round" stroke-width="3.7600536987386004"/>
  <path d="M 50.07038175831466, 80.16766810573249 Q 52.89848923308317, 77.12309184425116, 55.1319490954089, 71.50444314758074 " fill="none" id="curve_3" stroke="#000000" stroke-linecap="round" stroke-linejoin="round" stroke-width="3.0344351505359413"/>
  <path d="M 66.60197662978283, 102.5571769413169 Q 67.01738513346065, 103.05646004255412, 67.40911384377472, 104.0358586711464 " fill="none" id="curve_6" stroke="#000000" stroke-linecap="round" stroke-linejoin="round" stroke-width="4.027068883441828"/>
  <path d="M 35.90023300037161, 97.135326691568 Q 42.560313712950986, 90.63943429743289, 52.4122086785095, 79.51339016386063 " fill="none" id="curve_10" stroke="#000000" stroke-linecap="round" stroke-linejoin="round" stroke-width="2.8194987149460884"/>
  <path d="M 52.85239996527731, 67.42513733462053 Q 51.10747612492823, 65.91159393223256, 43.45825964630423, 64.97988015674089 " fill="none" id="curve_11" stroke="#000000" stroke-linecap="round" stroke-linejoin="round" stroke-width="2.4180233779480518"/>
  <path d="M 65.12713655575017, 104.0994102448326 Q 65.83967401805127, 104.12893751467774, 66.32289471661177, 104.22825560563719 " fill="none" id="curve_12" stroke="#000000" stroke-linecap="round" stroke-linejoin="round" stroke-width="4.712518821340226"/>
  <path d="M 53.37098449518378, 77.72817247837966 Q 47.24694070972139, 84.03709670265124, 37.94018486708104, 94.85559741730071 " fill="none" id="curve_14" stroke="#000000" stroke-linecap="round" stroke-linejoin="round" stroke-width="2.8885657343022055"/>
  <path d="M 36.35982563884487, 68.20874558623746 Q 38.888983022147805, 67.67372420073863, 41.41943205564367, 66.5907921669274 " fill="none" id="curve_15" stroke="#000000" stroke-linecap="round" stroke-linejoin="round" stroke-width="3.537360202102782"/>
  <path d="M 41.41943205564367, 66.5907921669274 Q 39.86983155555126, 66.99981895665009, 38.10253492918513, 67.86374286073077 " fill="none" id="curve_15" stroke="#000000" stroke-linecap="round" stroke-linejoin="round" stroke-width="3.957363792054978"/>
  <path d="M 39.08469696273369, 107.15553664932031 Q 38.72494400630222, 107.09818464423232, 38.30710933426502, 106.96688834862894 " fill="none" id="curve_30" stroke="#000000" stroke-linecap="round" stroke-linejoin="round" stroke-width="3.0067606648954377"/>
  <path d="M 67.23183366084015, 103.06163083739786 Q 66.79070539044658, 102.32126521963937, 64.0159008012705, 102.09994275331782 " fill="none" id="curve_84" stroke="#000000" stroke-linecap="round" stroke-linejoin="round" stroke-width="2.6681484742839183"/>
  <path d="M 51.3238688473311, 77.48460786307248 Q 51.79812959443334, 75.4870252558874, 52.67592711041399, 72.98064472241299 " fill="none" id="curve_85" stroke="#000000" stroke-linecap="round" stroke-linejoin="round" stroke-width="3.2834677503502405"/>
</svg>
