<?xml version="1.0" ?>
<svg height="140" width="140" xmlns="http://www.w3.org/2000/svg">
  <path d="M 36.16957473754883, 91.4027738571167 Q 36.3818901223902, 84.60461594733665, 40.91634831575948, 82.74769950856933 " fill="none" id="curve_1" stroke="#000000" stroke-linecap="round" stroke-linejoin="round" stroke-width="7.252972513859425"/>
  <path d="M 40.91634831575948, 82.74769950856933 Q 45.59679029763862, 76.83962585793326, 53.85226197024937, 64.99339705795114 " fill="none" id="curve_1" stroke="#000000" stroke-linecap="round" stroke-linejoin="round" stroke-width="5.2104498615312265"/>
  <path d="M 53.85226197024937, 64.99339705795114 Q 53.81800216374255, 54.298314689969686, 48.309142362444824, 54.06510812384589 " fill="none" id="curve_1" stroke="#000000" stroke-linecap="round" stroke-linejoin="round" stroke-width="4.387430358379174"/>
  <path d="M 48.309142362444824, 54.06510812384589 Q 39.74955655328108, 54.19728552160561, 39.34396064527528, 60.537971928929565 " fill="none" id="curve_1" stroke="#000000" stroke-linecap="round" stroke-linejoin="round" stroke-width="3.6544620284794687"/>
  <path d="M 64.06792889801663, 86.52901309338624 Q 59.73003744851003, 89.91828817803372, 38.05281770555056, 93.13061107823194 " fill="none" id="curve_2" stroke="#000000" stroke-linecap="round" stroke-linejoin="round" stroke-width="5.008792249350216"/>
  <path d="M 38.05281770555056, 93.13061107823194 Q 36.611007020918336, 92.22304101837332, 35.5316474941205, 90.19011384818171 " fill="none" id="curve_2" stroke="#000000" stroke-linecap="round" stroke-linejoin="round" stroke-width="6.1123582607982865"/>
  <path d="M 66.9547536559752, 85.91574878979173 Q 67.33279056475067, 86.1793076375293, 67.86843435794847, 86.5952639802738 " fill="none" id="curve_3" stroke="#000000" stroke-linecap="round" stroke-linejoin="round" stroke-width="3.148295217667388"/>
  <path d="M 39.98671416860477, 91.80969539515993 Q 39.669469375056934, 90.14151510681496, 38.73761753946765, 88.9277132918167 " fill="none" id="curve_6" stroke="#000000" stroke-linecap="round" stroke-linejoin="round" stroke-width="4.877872893791436"/>
  <path d="M 54.725104851682914, 55.78285334652437 Q 54.737342944944494, 58.10950741073288, 54.76844119427319, 60.840211026636226 " fill="none" id="curve_7" stroke="#000000" stroke-linecap="round" stroke-linejoin="round" stroke-width="2.7046986397724004"/>
  <path d="M 47.23541266547766, 91.81255014745352 Q 50.88061720426529, 90.24171942370842, 59.037042840113024, 88.39448338420019 " fill="none" id="curve_8" stroke="#000000" stroke-linecap="round" stroke-linejoin="round" stroke-width="2.6115851407554747"/>
  <path d="M 42.47796630859375, 92.84782385826111 Q 42.90033212745315, 91.00835190663884, 48.63654329345792, 90.49332616637057 " fill="none" id="curve_22" stroke="#000000" stroke-linecap="round" stroke-linejoin="round" stroke-width="2.9925485181515885"/>
  <path d="M 48.63654329345792, 90.49332616637057 Q 40.147864953297756, 90.06968889605594, 35.2301936071023, 88.47895267467169 " fill="none" id="curve_22" stroke="#000000" stroke-linecap="round" stroke-linejoin="round" stroke-width="3.232317554162858"/>
  <path d="M 38.981040994565234, 61.61309749010864 Q 39.734953520362296, 58.48927358762171, 41.01219447008213, 54.52063819560961 " fill="none" id="curve_23" stroke="#000000" stroke-linecap="round" stroke-linejoin="round" stroke-width="2.29988323185678"/>
  <path d="M 37.97395217369895, 85.42905282626097 Q 36.80968866507616, 86.4272293704815, 35.279425930160386, 88.1275005898959 " fill="none" id="curve_40" stroke="#000000" stroke-linecap="round" stroke-linejoin="round" stroke-width="3.1783360208042"/>
  <path d="M 47.17045046335056, 71.23825041984173 Q 46.39093161105865, 73.41516139526212, 44.14842127956401, 76.44742287610661 " fill="none" id="curve_107" stroke="#000000" stroke-linecap="round" stroke-linejoin="round" stroke-width="2.5250548924461285"/>
</svg>
