<?xml version="1.0" ?>
<svg height="140" width="140" xmlns="http://www.w3.org/2000/svg">
  <path d="M 50.8662945974429, 33.72000962738639 Q 38.69316788672421, 34.53130962972926, 33.27524152785094, 44.080684983371135 " fill="none" id="curve_2" stroke="#000000" stroke-linecap="round" stroke-linejoin="round" stroke-width="9.6473660568964"/>
  <path d="M 33.27524152785094, 44.080684983371135 Q 28.59861363677165, 46.212472355303, 27.608709557534013, 57.21785181957417 " fill="none" id="curve_2" stroke="#000000" stroke-linecap="round" stroke-linejoin="round" stroke-width="9.130423034651322"/>
  <path d="M 52.60496238770885, 38.87816634335278 Q 50.23631307750537, 59.936573365200424, 31.792741470210775, 79.88474944825163 " fill="none" id="curve_3" stroke="#000000" stroke-linecap="round" stroke-linejoin="round" stroke-width="9.68834783118276"/>
  <path d="M 31.792741470210775, 79.88474944825163 Q 22.735386771288592, 92.93262292419529, 5.9104436853661255, 111.61939419381358 " fill="none" id="curve_3" stroke="#000000" stroke-linecap="round" stroke-linejoin="round" stroke-width="10.167663372051065"/>
  <path d="M 5.9104436853661255, 111.61939419381358 Q 40.79742600606247, 111.335527247624, 45.6375114814445, 106.19128198741878 " fill="none" id="curve_3" stroke="#000000" stroke-linecap="round" stroke-linejoin="round" stroke-width="8.54796125079993"/>
  <path d="M 45.6375114814445, 106.19128198741878 Q 23.675762139890953, 107.5167186475822, 13.78931463324513, 113.86967048599104 " fill="none" id="curve_3" stroke="#000000" stroke-linecap="round" stroke-linejoin="round" stroke-width="4.952284402216184"/>
  <path d="M 13.78931463324513, 113.86967048599104 Q 14.823732419485534, 92.29149859082284, 30.402827129675664, 86.91351920919723 " fill="none" id="curve_3" stroke="#000000" stroke-linecap="round" stroke-linejoin="round" stroke-width="6.230385772407066"/>
  <path d="M 30.402827129675664, 86.91351920919723 Q 40.61511015611845, 78.42554627853622, 51.4517090078797, 38.87110719295549 " fill="none" id="curve_3" stroke="#000000" stroke-linecap="round" stroke-linejoin="round" stroke-width="5.051391245795654"/>
  <path d="M 51.4517090078797, 38.87110719295549 Q 49.093469815575176, 65.77365823391786, 21.86312587938789, 85.95489619633022 " fill="none" id="curve_3" stroke="#000000" stroke-linecap="round" stroke-linejoin="round" stroke-width="3.602732121677297"/>
  <path d="M 21.86312587938789, 85.95489619633022 Q 12.680686850967048, 90.26251361978751, 9.803260222545783, 112.51969766190294 " fill="none" id="curve_3" stroke="#000000" stroke-linecap="round" stroke-linejoin="round" stroke-width="5.371658069408346"/>
  <path d="M 9.803260222545783, 112.51969766190294 Q 10.936075819195024, 114.39563491470187, 21.573751768373377, 114.7315840559154 " fill="none" id="curve_3" stroke="#000000" stroke-linecap="round" stroke-linejoin="round" stroke-width="4.44435063901807"/>
  <path d="M 43.747225538623354, 110.85257958756459 Q 42.192988871586834, 111.0083460371128, 39.81339548189084, 111.18298040086113 " fill="none" id="curve_4" stroke="#000000" stroke-linecap="round" stroke-linejoin="round" stroke-width="5.200341801908554"/>
  <path d="M 36.00438206973628, 70.51779257184633 Q 42.66723929938061, 62.075537599824564, 53.43749466713665, 49.185257812842636 " fill="none" id="curve_5" stroke="#000000" stroke-linecap="round" stroke-linejoin="round" stroke-width="4.429160758100698"/>
  <path d="M 53.43749466713665, 49.185257812842636 Q 46.35098893638677, 56.3857538437012, 34.50628538456593, 71.38808990010271 " fill="none" id="curve_5" stroke="#000000" stroke-linecap="round" stroke-linejoin="round" stroke-width="4.73532427031755"/>
  <path d="M 37.516982358632866, 70.7541485450665 Q 48.00208983377957, 68.31738006782126, 50.89570313822781, 48.522077668512594 " fill="none" id="curve_9" stroke="#000000" stroke-linecap="round" stroke-linejoin="round" stroke-width="4.820746801754991"/>
  <path d="M 50.89570313822781, 48.522077668512594 Q 51.98449844324522, 43.34737916968706, 54.07861556044526, 38.96287792377773 " fill="none" id="curve_9" stroke="#000000" stroke-linecap="round" stroke-linejoin="round" stroke-width="4.63274871558929"/>
  <path d="M 27.93662891476566, 57.29430212344657 Q 29.808298669564433, 56.77583220532071, 30.332590676085314, 51.860217135360394 " fill="none" id="curve_10" stroke="#000000" stroke-linecap="round" stroke-linejoin="round" stroke-width="6.836882997373634"/>
  <path d="M 28.562983665864493, 50.843197008392764 Q 27.90482276795494, 54.09760643894113, 25.223966908731978, 56.834624205353386 " fill="none" id="curve_14" stroke="#000000" stroke-linecap="round" stroke-linejoin="round" stroke-width="4.635487236434845"/>
  <path d="M 7.7989039652401715, 105.71845802208662 Q 8.966134053794944, 110.78521667350122, 16.062715231675583, 113.55253933185939 " fill="none" id="curve_22" stroke="#000000" stroke-linecap="round" stroke-linejoin="round" stroke-width="6.066814885889389"/>
  <path d="M 34.406758991427445, 79.98787541294809 Q 29.156133710565673, 86.77185503726301, 18.659753516572327, 98.7989107364752 " fill="none" id="curve_23" stroke="#000000" stroke-linecap="round" stroke-linejoin="round" stroke-width="3.46559907135632"/>
  <path d="M 18.659753516572327, 98.7989107364752 Q 21.47592072492789, 94.78768401895027, 28.838178687250213, 91.18658302172977 " fill="none" id="curve_23" stroke="#000000" stroke-linecap="round" stroke-linejoin="round" stroke-width="4.2289384625186"/>
  <path d="M 15.918623945721611, 115.77297300101193 Q 26.970463922277073, 115.43916166300092, 29.178161550486795, 109.14574481179818 " fill="none" id="curve_24" stroke="#000000" stroke-linecap="round" stroke-linejoin="round" stroke-width="3.6547500464520537"/>
  <path d="M 29.178161550486795, 109.14574481179818 Q 29.53237318797496, 103.57084677956065, 45.01136498659826, 103.19256025037868 " fill="none" id="curve_24" stroke="#000000" stroke-linecap="round" stroke-linejoin="round" stroke-width="3.326477090318839"/>
  <path d="M 45.54286680002141, 64.10237758962806 Q 45.199403655399806, 71.02916573173658, 40.55905347274878, 72.81029984508095 " fill="none" id="curve_26" stroke="#000000" stroke-linecap="round" stroke-linejoin="round" stroke-width="2.4409051628080976"/>
  <path d="M 39.400833320398135, 61.122783618866805 Q 41.57912648340678, 58.33259253508591, 44.97366685025776, 50.832209047706456 " fill="none" id="curve_27" stroke="#000000" stroke-linecap="round" stroke-linejoin="round" stroke-width="2.6532474497512455"/>
  <path d="M 53.62205463700391, 41.42871038866681 Q 54.71398753973763, 40.9733287383559, 54.99722104120494, 37.28794912514038 " fill="none" id="curve_28" stroke="#000000" stroke-linecap="round" stroke-linejoin="round" stroke-width="2.6688938735300773"/>
  <path d="M 54.99722104120494, 37.28794912514038 Q 49.40488136645693, 38.70516809000577, 32.58824208920709, 39.9733079429679 " fill="none" id="curve_28" stroke="#000000" stroke-linecap="round" stroke-linejoin="round" stroke-width="2.787453031775431"/>
  <path d="M 32.58824208920709, 39.9733079429679 Q 32.075310264730014, 54.04874826724134, 29.785003116390012, 58.716029023688016 " fill="none" id="curve_28" stroke="#000000" stroke-linecap="round" stroke-linejoin="round" stroke-width="4.753742177160316"/>
  <path d="M 24.55378798248761, 54.12274131135503 Q 25.23760560162768, 55.378062488307236, 26.081583423482826, 57.6613631785245 " fill="none" id="curve_31" stroke="#000000" stroke-linecap="round" stroke-linejoin="round" stroke-width="4.573514667216809"/>
  <path d="M 6.352638822614123, 109.00837186649106 Q 6.915644081579882, 104.89838320722515, 10.149028641688098, 102.18996493236243 " fill="none" id="curve_38" stroke="#000000" stroke-linecap="round" stroke-linejoin="round" stroke-width="3.426490448169005"/>
  <path d="M 42.07096307033212, 65.39844641503015 Q 46.97044251613045, 61.84923070397124, 51.656911748855116, 55.58810632074746 " fill="none" id="curve_54" stroke="#000000" stroke-linecap="round" stroke-linejoin="round" stroke-width="4.045832957827153"/>
  <path d="M 49.58892781862796, 40.61275772994778 Q 47.27251872658982, 45.505341956056434, 45.128920273962905, 53.84027531093951 " fill="none" id="curve_55" stroke="#000000" stroke-linecap="round" stroke-linejoin="round" stroke-width="3.0175565106712923"/>
  <path d="M 10.860197046754532, 115.24771520383229 Q 8.375971449561408, 114.82256734111239, 6.467280430881554, 113.73441034013861 " fill="none" id="curve_71" stroke="#000000" stroke-linecap="round" stroke-linejoin="round" stroke-width="3.921204962958311"/>
  <path d="M 26.887845703068226, 59.66866547745551 Q 27.963407506033032, 58.97602550543339, 29.071460458706664, 57.272047714409126 " fill="none" id="curve_76" stroke="#000000" stroke-linecap="round" stroke-linejoin="round" stroke-width="3.307891028512983"/>
  <path d="M 32.991232587349714, 104.80466447590652 Q 32.878402399819535, 104.21774875942116, 32.56571811922484, 103.59339715580033 " fill="none" id="curve_91" stroke="#000000" stroke-linecap="round" stroke-linejoin="round" stroke-width="3.486273893944716"/>
  <path d="M 29.967111353820503, 55.16212111115719 Q 30.6801948271036, 55.81364387417495, 32.206419743687036, 56.65236677909435 " fill="none" id="curve_94" stroke="#000000" stroke-linecap="round" stroke-linejoin="round" stroke-width="3.215221202654134"/>
  <path d="M 34.53972135855683, 39.62316259075931 Q 52.578537828356744, 40.04724723633764, 55.34853376573028, 45.63176507598385 " fill="none" id="curve_117" stroke="#000000" stroke-linecap="round" stroke-linejoin="round" stroke-width="2.3963756629511814"/>
  <path d="M 32.878379705243375, 39.64410425728965 Q 32.517016865097574, 41.921067837119224, 31.277197985957123, 44.85784252294005 " fill="none" id="curve_138" stroke="#000000" stroke-linecap="round" stroke-linejoin="round" stroke-width="3.1253172433376517"/>
  <path d="M 41.24046308568086, 113.5790076766798 Q 39.073175858024925, 112.1321406296457, 37.125603647496376, 107.6802464115452 " fill="none" id="curve_153" stroke="#000000" stroke-linecap="round" stroke-linejoin="round" stroke-width="2.9071557318377166"/>
  <path d="M 14.116492216974404, 95.33436015556292 Q 17.40203471975155, 94.16897069545283, 28.613251453733078, 92.8769106220832 " fill="none" id="curve_182" stroke="#000000" stroke-linecap="round" stroke-linejoin="round" stroke-width="2.818744131515364"/>
  <path d="M 3.195632205648476, 108.91970931872845 Q 5.945278630473551, 105.94867031438542, 10.833501332360793, 101.59160105164217 " fill="none" id="curve_183" stroke="#000000" stroke-linecap="round" stroke-linejoin="round" stroke-width="3.3305771163819604"/>
</svg>
