<?xml version="1.0" ?>
<svg height="140" width="140" xmlns="http://www.w3.org/2000/svg">
  <path d="M 52.60612773895264, 37.14932632446289 Q 51.91515656855667, 44.9372671832279, 49.340445303839005, 51.46960459153627 " fill="none" id="curve_1" stroke="#000000" stroke-linecap="round" stroke-linejoin="round" stroke-width="7.109801338479468"/>
  <path d="M 49.340445303839005, 51.46960459153627 Q 44.74332414390285, 58.733413085730284, 28.212638587246374, 73.18917594595605 " fill="none" id="curve_1" stroke="#000000" stroke-linecap="round" stroke-linejoin="round" stroke-width="4.047979178439028"/>
  <path d="M 28.212638587246374, 73.18917594595605 Q 20.65251945357697, 79.22598739410256, 11.707185966724513, 92.02689789555512 " fill="none" id="curve_1" stroke="#000000" stroke-linecap="round" stroke-linejoin="round" stroke-width="4.482188375942751"/>
  <path d="M 11.707185966724513, 92.02689789555512 Q 11.900759594524043, 94.41764648357336, 19.87848935250817, 94.52817350302969 " fill="none" id="curve_1" stroke="#000000" stroke-linecap="round" stroke-linejoin="round" stroke-width="4.9094922345874545"/>
  <path d="M 19.87848935250817, 94.52817350302969 Q 29.375031321482968, 93.11236524673326, 44.497165515220885, 91.74105593825809 " fill="none" id="curve_1" stroke="#000000" stroke-linecap="round" stroke-linejoin="round" stroke-width="5.158029759574782"/>
  <path d="M 44.497165515220885, 91.74105593825809 Q 47.764950736752006, 92.13340065894481, 56.68965878580308, 92.32976775101272 " fill="none" id="curve_1" stroke="#000000" stroke-linecap="round" stroke-linejoin="round" stroke-width="4.012178542208066"/>
  <path d="M 90.45873445112895, 96.14233206462612 Q 90.1011891048184, 102.36407811828782, 89.74868888114955, 126.74124239012342 " fill="none" id="curve_2" stroke="#000000" stroke-linecap="round" stroke-linejoin="round" stroke-width="1.569900648806938"/>
  <path d="M 89.74868888114955, 126.74124239012342 Q 89.56844328130599, 135.8837212222735, 88.91916886632994, 139.31989659992306 " fill="none" id="curve_2" stroke="#000000" stroke-linecap="round" stroke-linejoin="round" stroke-width="3.0462483385310044"/>
  <path d="M 89.67546282678883, 94.46373483955273 Q 89.65529487319314, 90.26500124833777, 89.63216791831007, 79.68044565522493 " fill="none" id="curve_4" stroke="#000000" stroke-linecap="round" stroke-linejoin="round" stroke-width="1.2537548813800474"/>
  <path d="M 89.63216791831007, 79.68044565522493 Q 89.62210676223577, 76.19845426436434, 89.6122865472171, 66.66744723554456 " fill="none" id="curve_4" stroke="#000000" stroke-linecap="round" stroke-linejoin="round" stroke-width="1.1860889434623678"/>
  <path d="M 89.33703117628613, 59.742788722007425 Q 89.42293539655084, 56.71215564458286, 89.52281273011074, 51.038444679227865 " fill="none" id="curve_5" stroke="#000000" stroke-linecap="round" stroke-linejoin="round" stroke-width="1.0657708993077806"/>
  <path d="M 89.37265424018437, 45.44952608527883 Q 89.48329977104531, 45.97955675743557, 89.63267106838961, 46.861173021967915 " fill="none" id="curve_6" stroke="#000000" stroke-linecap="round" stroke-linejoin="round" stroke-width="1.2027850176032209"/>
  <path d="M 89.30658525804888, 40.790561257848935 Q 89.31882034184629, 39.42284870208234, 89.33115950709491, 35.70740340419696 " fill="none" id="curve_7" stroke="#000000" stroke-linecap="round" stroke-linejoin="round" stroke-width="0.9356656538183515"/>
  <path d="M 89.60663306589264, 33.87890230576051 Q 89.59745761374388, 34.05180357500258, 89.57725517307175, 34.33914959025866 " fill="none" id="curve_8" stroke="#000000" stroke-linecap="round" stroke-linejoin="round" stroke-width="1.451892261091364"/>
  <path d="M 89.2900905356835, 63.59054031189942 Q 89.56909852397507, 63.5132235784393, 90.03250451180037, 63.363882055018195 " fill="none" id="curve_10" stroke="#000000" stroke-linecap="round" stroke-linejoin="round" stroke-width="1.6053590879019146"/>
  <path d="M 52.92520905448402, 45.79725321096238 Q 52.62533900090447, 33.87711266943864, 37.389544462397104, 32.632119147427005 " fill="none" id="curve_11" stroke="#000000" stroke-linecap="round" stroke-linejoin="round" stroke-width="5.939588488222911"/>
  <path d="M 37.389544462397104, 32.632119147427005 Q 29.43368351762525, 32.760861756207056, 29.11474764730597, 39.374927509025085 " fill="none" id="curve_11" stroke="#000000" stroke-linecap="round" stroke-linejoin="round" stroke-width="5.148241290005057"/>
  <path d="M 29.11474764730597, 39.374927509025085 Q 29.64279264261294, 42.60794246765016, 32.65873572136185, 43.34831467345225 " fill="none" id="curve_11" stroke="#000000" stroke-linecap="round" stroke-linejoin="round" stroke-width="4.407925577602943"/>
  <path d="M 42.78493180429625, 33.076236887309534 Q 49.346075810455964, 34.11287140942081, 51.86351348075813, 37.199960951058955 " fill="none" id="curve_12" stroke="#000000" stroke-linecap="round" stroke-linejoin="round" stroke-width="4.050637662612587"/>
  <path d="M 51.86351348075813, 37.199960951058955 Q 51.70263603013908, 42.643858171316616, 51.328230573421536, 46.26251188280675 " fill="none" id="curve_12" stroke="#000000" stroke-linecap="round" stroke-linejoin="round" stroke-width="4.155844806832896"/>
  <path d="M 39.77344412534805, 32.405640837421466 Q 47.47019139440556, 34.99219086850936, 51.46747396911442, 40.67343960249765 " fill="none" id="curve_13" stroke="#000000" stroke-linecap="round" stroke-linejoin="round" stroke-width="3.1099505000920478"/>
  <path d="M 89.75573098824644, 4.96179598221218 Q 89.68895108656156, 3.243948773040656, 89.52953719494838, 0.7729526320599973 " fill="none" id="curve_14" stroke="#000000" stroke-linecap="round" stroke-linejoin="round" stroke-width="1.7488404330202807"/>
  <path d="M 23.866375212904448, 78.59153551440369 Q 17.399956948964828, 81.14372519853339, 12.90496398105976, 87.82698398520907 " fill="none" id="curve_20" stroke="#000000" stroke-linecap="round" stroke-linejoin="round" stroke-width="2.9511804099337517"/>
  <path d="M 89.7390431470686, 50.67037157323609 Q 89.67086149165425, 50.46763331948453, 89.57837409199907, 50.1006264564946 " fill="none" id="curve_27" stroke="#000000" stroke-linecap="round" stroke-linejoin="round" stroke-width="1.667933840332694"/>
  <path d="M 48.97006141537369, 92.72869817750431 Q 46.067362852870126, 91.96977678875258, 30.666715205840234, 91.51261602697326 " fill="none" id="curve_38" stroke="#000000" stroke-linecap="round" stroke-linejoin="round" stroke-width="2.593041484190409"/>
  <path d="M 52.505513971323865, 46.14231382119646 Q 52.349984267574925, 44.0982797758916, 51.96432071579879, 41.3076483618709 " fill="none" id="curve_41" stroke="#000000" stroke-linecap="round" stroke-linejoin="round" stroke-width="3.1982766578175137"/>
  <path d="M 40.51327688914229, 31.238360750972156 Q 44.540661123962025, 34.18092167702056, 49.46429795293054, 39.81755164290721 " fill="none" id="curve_61" stroke="#000000" stroke-linecap="round" stroke-linejoin="round" stroke-width="2.5694009844308128"/>
  <path d="M 21.459796024797875, 92.99437069775215 Q 18.04595807811833, 92.9194598891755, 13.664392510261667, 92.81498240660824 " fill="none" id="curve_81" stroke="#000000" stroke-linecap="round" stroke-linejoin="round" stroke-width="2.789867639470114"/>
  <path d="M 29.501918719055823, 34.30447270976128 Q 30.147991574571012, 34.309418299211295, 32.643645522921034, 34.316058940632544 " fill="none" id="curve_83" stroke="#000000" stroke-linecap="round" stroke-linejoin="round" stroke-width="1.9242914376241989"/>
  <path d="M 46.152377181996364, 90.85710582885406 Q 47.04058600888697, 91.12813858272284, 48.773727026078774, 91.40640946558631 " fill="none" id="curve_98" stroke="#000000" stroke-linecap="round" stroke-linejoin="round" stroke-width="3.0190381929292136"/>
  <path d="M 46.41567789728727, 54.62242796390753 Q 47.908704860156895, 49.35567439593191, 50.737701728513755, 44.10539982159892 " fill="none" id="curve_101" stroke="#000000" stroke-linecap="round" stroke-linejoin="round" stroke-width="3.0716052062464834"/>
  <path d="M 89.52272525204695, 17.379861260294074 Q 89.56245081349984, 17.170668361437748, 89.65517169174554, 16.839563559469617 " fill="none" id="curve_106" stroke="#000000" stroke-linecap="round" stroke-linejoin="round" stroke-width="1.355611746488577"/>
  <path d="M 89.41896233067014, 25.478536816493524 Q 89.56715735614215, 25.82777163713475, 89.92194770306087, 26.389451549140556 " fill="none" id="curve_107" stroke="#000000" stroke-linecap="round" stroke-linejoin="round" stroke-width="1.5365539267426949"/>
  <path d="M 89.75433257064623, 42.472171944390126 Q 89.80097456773623, 42.92277795941171, 89.90270456217918, 43.68476218111839 " fill="none" id="curve_128" stroke="#000000" stroke-linecap="round" stroke-linejoin="round" stroke-width="1.6730054814310094"/>
  <path d="M 38.47654052879591, 90.63008904262966 Q 37.497076715429586, 90.4283008053399, 33.71401858530187, 90.31895391410919 " fill="none" id="curve_169" stroke="#000000" stroke-linecap="round" stroke-linejoin="round" stroke-width="2.141620658375604"/>
</svg>
