<?xml version="1.0" ?>
<svg height="140" width="140" xmlns="http://www.w3.org/2000/svg">
  <path d="M 14.462397575378418, 57.392961502075195 Q 15.645650862658705, 54.92484523582827, 19.450353002045574, 51.45049543573753 " fill="none" id="curve_1" stroke="#000000" stroke-linecap="round" stroke-linejoin="round" stroke-width="10.666727464625632"/>
  <path d="M 19.450353002045574, 51.45049543573753 Q 16.0739654878279, 52.38651229879992, 15.204808082793424, 60.1492812435133 " fill="none" id="curve_1" stroke="#000000" stroke-linecap="round" stroke-linejoin="round" stroke-width="4.745421261579551"/>
  <path d="M 15.204808082793424, 60.1492812435133 Q 14.064130568857024, 59.11209002410941, 13.591857185157192, 53.552988782528814 " fill="none" id="curve_1" stroke="#000000" stroke-linecap="round" stroke-linejoin="round" stroke-width="3.8850082801537296"/>
  <path d="M 13.591857185157192, 53.552988782528814 Q 17.004662008383143, 48.788439546255105, 28.901630987300706, 46.50590588866773 " fill="none" id="curve_1" stroke="#000000" stroke-linecap="round" stroke-linejoin="round" stroke-width="5.255985565796127"/>
  <path d="M 28.901630987300706, 46.50590588866773 Q 42.221126683633045, 47.0453692375723, 43.15896996437135, 59.577791153248384 " fill="none" id="curve_1" stroke="#000000" stroke-linecap="round" stroke-linejoin="round" stroke-width="4.824076654886675"/>
  <path d="M 43.15896996437135, 59.577791153248384 Q 39.08408170304317, 68.25918059891833, 25.56724440081127, 90.03566357276429 " fill="none" id="curve_1" stroke="#000000" stroke-linecap="round" stroke-linejoin="round" stroke-width="3.984479047080921"/>
  <path d="M 25.56724440081127, 90.03566357276429 Q 19.815748396659767, 95.78136640022271, 13.982172555786205, 103.96452258448868 " fill="none" id="curve_1" stroke="#000000" stroke-linecap="round" stroke-linejoin="round" stroke-width="4.698054381123155"/>
  <path d="M 13.982172555786205, 103.96452258448868 Q 14.75606547246685, 106.15670228087568, 23.666245759719928, 106.39653067752904 " fill="none" id="curve_1" stroke="#000000" stroke-linecap="round" stroke-linejoin="round" stroke-width="5.621753015475173"/>
  <path d="M 23.666245759719928, 106.39653067752904 Q 34.1078815552675, 105.58169471762456, 47.469497600723216, 104.71987543936568 " fill="none" id="curve_1" stroke="#000000" stroke-linecap="round" stroke-linejoin="round" stroke-width="4.7792846645194995"/>
  <path d="M 47.469497600723216, 104.71987543936568 Q 50.93392443056512, 105.39760187969574, 57.01102685726714, 105.85107676452311 " fill="none" id="curve_1" stroke="#000000" stroke-linecap="round" stroke-linejoin="round" stroke-width="4.032586084159366"/>
  <path d="M 18.114616253254585, 60.10484279874125 Q 17.5620501879338, 59.25688479708565, 17.089579421761194, 56.63539010288227 " fill="none" id="curve_4" stroke="#000000" stroke-linecap="round" stroke-linejoin="round" stroke-width="5.024529062472626"/>
  <path d="M 33.16280898161269, 46.17595514999746 Q 35.653078556287646, 46.17353333990422, 37.728698224971744, 46.16738575735762 " fill="none" id="curve_5" stroke="#000000" stroke-linecap="round" stroke-linejoin="round" stroke-width="3.590177833729314"/>
  <path d="M 17.24871761471116, 48.86276259549655 Q 17.55909792163298, 49.14979270145389, 19.373630970754004, 49.36302288582006 " fill="none" id="curve_6" stroke="#000000" stroke-linecap="round" stroke-linejoin="round" stroke-width="3.489717559966359"/>
  <path d="M 19.373630970754004, 49.36302288582006 Q 18.82599899774863, 49.51795305701313, 17.478427880500075, 49.76273903320314 " fill="none" id="curve_6" stroke="#000000" stroke-linecap="round" stroke-linejoin="round" stroke-width="3.9564213734031646"/>
  <path d="M 27.959845392632825, 90.04110871014477 Q 19.798074810391498, 92.60651537959653, 14.771059826626864, 101.67053503750653 " fill="none" id="curve_12" stroke="#000000" stroke-linecap="round" stroke-linejoin="round" stroke-width="3.2939032606811867"/>
  <path d="M 20.486922121734267, 47.2939058553611 Q 16.52975949594971, 50.267275747419134, 13.397912288023416, 55.76888098581876 " fill="none" id="curve_14" stroke="#000000" stroke-linecap="round" stroke-linejoin="round" stroke-width="4.390043514157594"/>
  <path d="M 39.21137665233151, 65.51398177021936 Q 37.45737005105986, 67.9419563754891, 34.74061758636525, 75.73718360208538 " fill="none" id="curve_25" stroke="#000000" stroke-linecap="round" stroke-linejoin="round" stroke-width="2.138490228204872"/>
  <path d="M 34.74061758636525, 75.73718360208538 Q 31.521442525964183, 84.54401501081006, 20.703962587241936, 93.23570415309736 " fill="none" id="curve_25" stroke="#000000" stroke-linecap="round" stroke-linejoin="round" stroke-width="2.2670034237674392"/>
  <path d="M 39.87386740412103, 103.85590392810848 Q 39.906577023405724, 104.04934852625682, 39.972114913479096, 104.30755059405865 " fill="none" id="curve_26" stroke="#000000" stroke-linecap="round" stroke-linejoin="round" stroke-width="3.6713082543737685"/>
  <path d="M 39.97868860285321, 105.31094851035094 Q 39.25565095072608, 104.19276616536578, 36.91217967863137, 103.41692785206295 " fill="none" id="curve_30" stroke="#000000" stroke-linecap="round" stroke-linejoin="round" stroke-width="2.6659217286742103"/>
  <path d="M 20.18103137004567, 107.97670604264758 Q 19.719149654004323, 107.52912533779713, 19.25476588843574, 106.39895624536005 " fill="none" id="curve_31" stroke="#000000" stroke-linecap="round" stroke-linejoin="round" stroke-width="2.7221437676645803"/>
  <path d="M 41.107528074755486, 55.46307366003618 Q 39.242888595805695, 50.15171275158277, 32.228377239697245, 45.85505069227459 " fill="none" id="curve_35" stroke="#000000" stroke-linecap="round" stroke-linejoin="round" stroke-width="2.2724436153784264"/>
  <path d="M 43.48171502075047, 104.11561328104618 Q 42.67692947585451, 103.64433075828464, 39.018227865111584, 103.43270332141844 " fill="none" id="curve_50" stroke="#000000" stroke-linecap="round" stroke-linejoin="round" stroke-width="2.6171604731117237"/>
  <path d="M 39.424101683715094, 65.85918604883834 Q 38.60991429190654, 65.95725314312399, 37.641005291393, 66.17894176849741 " fill="none" id="curve_52" stroke="#000000" stroke-linecap="round" stroke-linejoin="round" stroke-width="3.122383871507146"/>
  <path d="M 15.447720084603022, 50.76812015567064 Q 14.6697474110588, 51.28283052222232, 13.930141827639494, 52.57801966059197 " fill="none" id="curve_72" stroke="#000000" stroke-linecap="round" stroke-linejoin="round" stroke-width="3.5488630130405614"/>
</svg>
