<?xml version="1.0" ?>
<svg height="140" width="140" xmlns="http://www.w3.org/2000/svg">
  <path d="M 46.31755018234253, 99.03584671020508 Q 43.45250373361708, 99.6446891750145, 42.57196936193591, 105.5410660008547 " fill="none" id="curve_1" stroke="#000000" stroke-linecap="round" stroke-linejoin="round" stroke-width="6.917965267869926"/>
  <path d="M 42.57196936193591, 105.5410660008547 Q 42.67652682029049, 110.7173042939802, 53.421886456179294, 110.8773067588289 " fill="none" id="curve_1" stroke="#000000" stroke-linecap="round" stroke-linejoin="round" stroke-width="5.316360200714336"/>
  <path d="M 53.421886456179294, 110.8773067588289 Q 57.62565616057115, 111.27355050413085, 69.09089441222329, 111.47825197414342 " fill="none" id="curve_1" stroke="#000000" stroke-linecap="round" stroke-linejoin="round" stroke-width="4.0875093956108755"/>
  <path d="M 48.205620874874285, 95.87324650583273 Q 50.772448161401776, 88.22904858427765, 56.93275104488176, 79.61133422672977 " fill="none" id="curve_2" stroke="#000000" stroke-linecap="round" stroke-linejoin="round" stroke-width="3.32090939399391"/>
  <path d="M 56.93275104488176, 79.61133422672977 Q 56.88504040329662, 65.20487667162242, 48.26012870339985, 64.8656845124261 " fill="none" id="curve_2" stroke="#000000" stroke-linecap="round" stroke-linejoin="round" stroke-width="4.024305394943216"/>
  <path d="M 48.26012870339985, 64.8656845124261 Q 36.39516699536382, 65.16759162848403, 35.0511106117667, 69.80230927730778 " fill="none" id="curve_2" stroke="#000000" stroke-linecap="round" stroke-linejoin="round" stroke-width="4.757260426215905"/>
  <path d="M 47.386665570994154, 93.99647590980491 Q 46.42021954771032, 96.62925031683265, 45.60791949615184, 100.76400054089827 " fill="none" id="curve_3" stroke="#000000" stroke-linecap="round" stroke-linejoin="round" stroke-width="3.793716065131971"/>
  <path d="M 56.41266008416715, 75.29798343351095 Q 56.5051085937803, 71.4902807348031, 56.679503097032054, 68.4089177388361 " fill="none" id="curve_4" stroke="#000000" stroke-linecap="round" stroke-linejoin="round" stroke-width="2.926137570864522"/>
  <path d="M 51.353024591861384, 89.35650724128469 Q 50.83294827375407, 89.59102566380295, 50.23737895559086, 90.10457127779048 " fill="none" id="curve_5" stroke="#000000" stroke-linecap="round" stroke-linejoin="round" stroke-width="4.036694305531675"/>
  <path d="M 35.14830190598249, 71.3470798339896 Q 34.944657152822074, 70.49514959473741, 34.776691743309506, 68.7930394874451 " fill="none" id="curve_20" stroke="#000000" stroke-linecap="round" stroke-linejoin="round" stroke-width="3.663195148151351"/>
  <path d="M 57.77200660936278, 110.30316396784241 Q 55.829968479472996, 110.25660916774144, 53.02501943449209, 110.18758442090304 " fill="none" id="curve_23" stroke="#000000" stroke-linecap="round" stroke-linejoin="round" stroke-width="3.6415526603218686"/>
  <path d="M 50.63369945392456, 88.25045996321299 Q 51.10543819400507, 86.86862499335729, 52.013608246117904, 85.28542926388864 " fill="none" id="curve_52" stroke="#000000" stroke-linecap="round" stroke-linejoin="round" stroke-width="2.621916423332185"/>
  <path d="M 45.33686226669251, 98.14369983209454 Q 48.099433220696326, 93.49146465600646, 52.64442731860191, 88.26875557988048 " fill="none" id="curve_53" stroke="#000000" stroke-linecap="round" stroke-linejoin="round" stroke-width="2.5782161146728866"/>
  <path d="M 35.62682305887385, 66.64450576421085 Q 38.7728116606036, 66.54104808328327, 47.42304706087411, 66.3824470322787 " fill="none" id="curve_57" stroke="#000000" stroke-linecap="round" stroke-linejoin="round" stroke-width="2.2328174132505874"/>
  <path d="M 53.525886793820284, 67.6838226991606 Q 54.13706755839904, 67.37644156291921, 55.09566493672688, 66.91336982731907 " fill="none" id="curve_74" stroke="#000000" stroke-linecap="round" stroke-linejoin="round" stroke-width="3.0851564732411996"/>
  <path d="M 58.22630198272532, 72.83733803731593 Q 57.831626017263495, 71.49921712513112, 56.510036347191786, 70.55509264196431 " fill="none" id="curve_89" stroke="#000000" stroke-linecap="round" stroke-linejoin="round" stroke-width="2.538210692537711"/>
</svg>
