<?xml version="1.0" ?>
<svg height="140" width="140" xmlns="http://www.w3.org/2000/svg">
  <path d="M 47.25566864013672, 58.87925720214844 Q 47.317402386625865, 62.69171990049463, 48.08991273053257, 64.55321558748778 " fill="none" id="curve_1" stroke="#000000" stroke-linecap="round" stroke-linejoin="round" stroke-width="5.07240800127591"/>
  <path d="M 48.08991273053257, 64.55321558748778 Q 45.16162456799353, 74.83982752305101, 31.25670415508247, 93.17253801996137 " fill="none" id="curve_1" stroke="#000000" stroke-linecap="round" stroke-linejoin="round" stroke-width="4.932337660574882"/>
  <path d="M 31.25670415508247, 93.17253801996137 Q 26.603544446600225, 99.20844115026264, 23.163793434874076, 109.21566455866788 " fill="none" id="curve_1" stroke="#000000" stroke-linecap="round" stroke-linejoin="round" stroke-width="4.899493644030645"/>
  <path d="M 23.163793434874076, 109.21566455866788 Q 24.831352376286937, 112.15299576510144, 35.851268821200506, 112.66567073433622 " fill="none" id="curve_1" stroke="#000000" stroke-linecap="round" stroke-linejoin="round" stroke-width="5.195899257329812"/>
  <path d="M 35.851268821200506, 112.66567073433622 Q 55.52955862040749, 111.58142619905419, 65.84489741838156, 108.4248018758156 " fill="none" id="curve_1" stroke="#000000" stroke-linecap="round" stroke-linejoin="round" stroke-width="4.0030231252486335"/>
  <path d="M 44.280989672722335, 111.45062128013647 Q 37.86075778015766, 110.87511232314615, 25.200534139417282, 110.273443080346 " fill="none" id="curve_2" stroke="#000000" stroke-linecap="round" stroke-linejoin="round" stroke-width="3.0061897185098876"/>
  <path d="M 25.200534139417282, 110.273443080346 Q 24.675265721172572, 105.87857651851229, 23.773517310921086, 102.25736065051491 " fill="none" id="curve_2" stroke="#000000" stroke-linecap="round" stroke-linejoin="round" stroke-width="3.40079381520061"/>
  <path d="M 21.884585951623528, 68.7671023220214 Q 24.161611634735525, 57.60880397057771, 42.304042766199316, 53.62457425839424 " fill="none" id="curve_3" stroke="#000000" stroke-linecap="round" stroke-linejoin="round" stroke-width="4.81304717149119"/>
  <path d="M 42.304042766199316, 53.62457425839424 Q 47.77420488586182, 54.55903584479505, 48.77181359874802, 60.73491531592662 " fill="none" id="curve_3" stroke="#000000" stroke-linecap="round" stroke-linejoin="round" stroke-width="5.956679521143173"/>
  <path d="M 48.77181359874802, 60.73491531592662 Q 44.90165277553187, 57.72064227588395, 40.00520533257213, 53.161114897022046 " fill="none" id="curve_3" stroke="#000000" stroke-linecap="round" stroke-linejoin="round" stroke-width="2.6816806702349973"/>
  <path d="M 40.00520533257213, 53.161114897022046 Q 27.208142249228047, 54.97020042713649, 20.631891682901443, 65.31867134688689 " fill="none" id="curve_3" stroke="#000000" stroke-linecap="round" stroke-linejoin="round" stroke-width="3.6225074965365276"/>
  <path d="M 45.15237795371286, 66.27404654805578 Q 45.75989370685613, 65.39145117167588, 46.65947181178952, 63.76363560336658 " fill="none" id="curve_4" stroke="#000000" stroke-linecap="round" stroke-linejoin="round" stroke-width="2.6417878425630676"/>
  <path d="M 33.40049023141906, 113.70198816337272 Q 41.935957707084754, 113.21592237934514, 46.85726714268986, 111.43161029175072 " fill="none" id="curve_6" stroke="#000000" stroke-linecap="round" stroke-linejoin="round" stroke-width="2.694896427476436"/>
  <path d="M 21.553989419967856, 70.88242168313647 Q 21.316104841362876, 70.78483343313864, 20.835710579402217, 70.61474093088533 " fill="none" id="curve_10" stroke="#000000" stroke-linecap="round" stroke-linejoin="round" stroke-width="1.9879341394921024"/>
  <path d="M 53.293764939776146, 111.12332014353518 Q 53.110198743185215, 110.01128250769538, 51.66480685937313, 109.61682436931996 " fill="none" id="curve_11" stroke="#000000" stroke-linecap="round" stroke-linejoin="round" stroke-width="3.5162277011090217"/>
  <path d="M 89.96880384201775, 1.8948166726971107 Q 89.88494489705174, 2.1545839626840335, 89.691804564634, 2.606814171466765 " fill="none" id="curve_40" stroke="#000000" stroke-linecap="round" stroke-linejoin="round" stroke-width="1.9838662817486683"/>
  <path d="M 37.275258216372634, 82.60478928335836 Q 36.21711557986316, 85.18631294397855, 33.84984224154575, 87.82224774180553 " fill="none" id="curve_60" stroke="#000000" stroke-linecap="round" stroke-linejoin="round" stroke-width="2.7984845815280535"/>
  <path d="M 67.35903707442048, 107.92435291363338 Q 67.39531359477513, 107.798727044677, 67.44976961056955, 107.58593902817549 " fill="none" id="curve_75" stroke="#000000" stroke-linecap="round" stroke-linejoin="round" stroke-width="1.9270381984205198"/>
  <path d="M 25.562462270925618, 99.2810736886097 Q 24.605036875344418, 100.7205557436268, 23.55574867011498, 103.8753571993163 " fill="none" id="curve_77" stroke="#000000" stroke-linecap="round" stroke-linejoin="round" stroke-width="2.349061750074366"/>
  <path d="M 41.4071951437997, 53.51564669239939 Q 40.93861116252458, 52.81214448212141, 37.20822095804736, 52.57247571994493 " fill="none" id="curve_80" stroke="#000000" stroke-linecap="round" stroke-linejoin="round" stroke-width="2.593662456301552"/>
  <path d="M 23.856837271065622, 107.66778064154175 Q 25.942163619702246, 109.82769594374271, 30.318600032336185, 111.58694794901984 " fill="none" id="curve_83" stroke="#000000" stroke-linecap="round" stroke-linejoin="round" stroke-width="2.807032061556381"/>
  <path d="M 42.49150404259433, 74.59535013023059 Q 43.431053051737806, 70.47034556386213, 46.82433708418013, 66.39317086427877 " fill="none" id="curve_106" stroke="#000000" stroke-linecap="round" stroke-linejoin="round" stroke-width="2.3058869906582435"/>
  <path d="M 37.861089982194756, 112.85666321699057 Q 34.571314630292946, 112.37299559650243, 31.529931681724637, 111.29462835865763 " fill="none" id="curve_134" stroke="#000000" stroke-linecap="round" stroke-linejoin="round" stroke-width="2.6149289936097047"/>
</svg>
