<?xml version="1.0" ?>
<svg height="140" width="140" xmlns="http://www.w3.org/2000/svg">
  <path d="M 30.478801727294922, 101.10571789741516 Q 37.17074374176704, 100.16958000498647, 45.42203982715819, 96.8554761519562 " fill="none" id="curve_1" stroke="#000000" stroke-linecap="round" stroke-linejoin="round" stroke-width="4.291209662353245"/>
  <path d="M 45.42203982715819, 96.8554761519562 Q 41.05567335813502, 99.87895634373356, 30.112463428527228, 102.44689922743963 " fill="none" id="curve_1" stroke="#000000" stroke-linecap="round" stroke-linejoin="round" stroke-width="5.479034657243834"/>
  <path d="M 30.112463428527228, 102.44689922743963 Q 17.365526648423057, 102.28165205168126, 16.108158785904564, 98.30315237006464 " fill="none" id="curve_1" stroke="#000000" stroke-linecap="round" stroke-linejoin="round" stroke-width="6.505920285866557"/>
  <path d="M 16.108158785904564, 98.30315237006464 Q 18.558703072189324, 86.51780604159497, 32.85516194962154, 76.97618952260284 " fill="none" id="curve_1" stroke="#000000" stroke-linecap="round" stroke-linejoin="round" stroke-width="6.460439121678032"/>
  <path d="M 32.85516194962154, 76.97618952260284 Q 41.26919690239481, 69.5663147358283, 52.435718203078245, 54.542047636904805 " fill="none" id="curve_1" stroke="#000000" stroke-linecap="round" stroke-linejoin="round" stroke-width="5.14322420649824"/>
  <path d="M 52.435718203078245, 54.542047636904805 Q 51.9113409895975, 47.594258154134806, 49.80912802912881, 44.47789854871584 " fill="none" id="curve_1" stroke="#000000" stroke-linecap="round" stroke-linejoin="round" stroke-width="4.886545213267872"/>
  <path d="M 49.80912802912881, 44.47789854871584 Q 30.55318398663117, 46.02071176059064, 22.64667597398483, 58.431818841937385 " fill="none" id="curve_1" stroke="#000000" stroke-linecap="round" stroke-linejoin="round" stroke-width="4.35775429175827"/>
  <path d="M 22.64667597398483, 58.431818841937385 Q 22.768924666530133, 60.558724064930956, 23.220114965821853, 61.44158056114436 " fill="none" id="curve_1" stroke="#000000" stroke-linecap="round" stroke-linejoin="round" stroke-width="3.1239142586948057"/>
  <path d="M 52.07306970180181, 48.9582885247558 Q 49.74836237574113, 56.30302347209319, 44.761660417715376, 63.37102405847234 " fill="none" id="curve_2" stroke="#000000" stroke-linecap="round" stroke-linejoin="round" stroke-width="3.7975135249237164"/>
  <path d="M 53.09672413657293, 50.91941555039565 Q 53.16026880356592, 49.989126870049716, 53.22885222128112, 48.4816922057147 " fill="none" id="curve_3" stroke="#000000" stroke-linecap="round" stroke-linejoin="round" stroke-width="5.26026446307834"/>
  <path d="M 46.56066676951124, 64.19753537805241 Q 37.588186976489425, 68.22935023080669, 30.409245640931474, 79.1390634934226 " fill="none" id="curve_5" stroke="#000000" stroke-linecap="round" stroke-linejoin="round" stroke-width="3.145689165465231"/>
  <path d="M 19.12279846953851, 103.30215808971715 Q 27.781553910502257, 102.57175683331, 34.70720485159288, 100.46953841969501 " fill="none" id="curve_7" stroke="#000000" stroke-linecap="round" stroke-linejoin="round" stroke-width="3.609185188558576"/>
  <path d="M 14.833893052468625, 95.27699415748188 Q 17.62494850975477, 86.95119899846479, 31.18175602942086, 82.52888797874749 " fill="none" id="curve_8" stroke="#000000" stroke-linecap="round" stroke-linejoin="round" stroke-width="3.3038041490419356"/>
  <path d="M 49.70669843997312, 51.08619551057508 Q 49.82986142840489, 50.30165321264413, 49.9139494404931, 47.45762595247945 " fill="none" id="curve_9" stroke="#000000" stroke-linecap="round" stroke-linejoin="round" stroke-width="4.128744391692965"/>
  <path d="M 17.74367846781233, 87.51210006684528 Q 19.390788290476884, 87.4284531967303, 21.30491250992558, 87.19880953268125 " fill="none" id="curve_11" stroke="#000000" stroke-linecap="round" stroke-linejoin="round" stroke-width="2.811146545862518"/>
  <path d="M 47.50348335663149, 61.10128180021128 Q 51.76002394045654, 60.36757079421834, 53.80661122519274, 55.21867546682986 " fill="none" id="curve_19" stroke="#000000" stroke-linecap="round" stroke-linejoin="round" stroke-width="2.6424427690910366"/>
  <path d="M 43.229101521267715, 43.63856208638194 Q 45.16754885842599, 43.76653632815484, 46.94631473062394, 44.06910333145655 " fill="none" id="curve_34" stroke="#000000" stroke-linecap="round" stroke-linejoin="round" stroke-width="2.819838835903516"/>
  <path d="M 24.610005387533942, 102.52478270485959 Q 25.2510658035865, 101.83018175386839, 27.426846830510158, 101.35613108982928 " fill="none" id="curve_42" stroke="#000000" stroke-linecap="round" stroke-linejoin="round" stroke-width="3.8461858773577737"/>
  <path d="M 25.758864912593026, 104.11967791360462 Q 20.87469232389201, 102.28050275385834, 16.64292305349032, 98.08022252183862 " fill="none" id="curve_70" stroke="#000000" stroke-linecap="round" stroke-linejoin="round" stroke-width="2.724509545734203"/>
</svg>
