<?xml version="1.0" ?>
<svg height="140" width="140" xmlns="http://www.w3.org/2000/svg">
  <path d="M 88.6863966204029, 92.3967019485628 Q 82.92195592606265, 94.90340985308451, 62.8915011880783, 99.49370193811164 " fill="none" id="curve_2" stroke="#000000" stroke-linecap="round" stroke-linejoin="round" stroke-width="4.611048448219382"/>
  <path d="M 62.8915011880783, 99.49370193811164 Q 61.331140402222154, 100.67009012602051, 51.35723791951104, 100.89976747591335 " fill="none" id="curve_2" stroke="#000000" stroke-linecap="round" stroke-linejoin="round" stroke-width="5.2033025590534665"/>
  <path d="M 51.35723791951104, 100.89976747591335 Q 36.544447129282894, 100.62349901238548, 35.336487396941166, 90.98188515253648 " fill="none" id="curve_2" stroke="#000000" stroke-linecap="round" stroke-linejoin="round" stroke-width="5.259368636344651"/>
  <path d="M 35.336487396941166, 90.98188515253648 Q 36.81688591797281, 74.67401798716236, 48.31816239358151, 61.83337971508567 " fill="none" id="curve_2" stroke="#000000" stroke-linecap="round" stroke-linejoin="round" stroke-width="5.558552989497863"/>
  <path d="M 48.31816239358151, 61.83337971508567 Q 52.02728771234367, 57.24423804588084, 54.61214963766314, 46.58263151115282 " fill="none" id="curve_2" stroke="#000000" stroke-linecap="round" stroke-linejoin="round" stroke-width="5.3940939650139335"/>
  <path d="M 54.61214963766314, 46.58263151115282 Q 41.5778211722939, 49.453800895265516, 23.938920123012267, 70.2934120286556 " fill="none" id="curve_2" stroke="#000000" stroke-linecap="round" stroke-linejoin="round" stroke-width="5.623916271801111"/>
  <path d="M 23.938920123012267, 70.2934120286556 Q 20.427804110676426, 73.53988629699344, 19.386626544703162, 85.1477707043162 " fill="none" id="curve_2" stroke="#000000" stroke-linecap="round" stroke-linejoin="round" stroke-width="4.536214612031894"/>
  <path d="M 19.386626544703162, 85.1477707043162 Q 20.87481382024838, 85.48403478804201, 22.046748008817495, 86.22446009615366 " fill="none" id="curve_2" stroke="#000000" stroke-linecap="round" stroke-linejoin="round" stroke-width="3.20631228373918"/>
  <path d="M 53.024992030866024, 45.755238118395944 Q 52.451267564087836, 45.72351840917358, 51.64193155170928, 45.663606048146576 " fill="none" id="curve_4" stroke="#000000" stroke-linecap="round" stroke-linejoin="round" stroke-width="4.089564565022483"/>
  <path d="M 33.316529273986816, 58.51512145996094 Q 33.12077274351969, 57.72649454143926, 32.5935287869105, 55.904139032397325 " fill="none" id="curve_18" stroke="#000000" stroke-linecap="round" stroke-linejoin="round" stroke-width="2.379644837983663"/>
  <path d="M 35.19057169054587, 86.30918499451893 Q 35.79189108215068, 77.75715300653751, 40.60376053464476, 74.20774766748282 " fill="none" id="curve_22" stroke="#000000" stroke-linecap="round" stroke-linejoin="round" stroke-width="2.698820649340996"/>
  <path d="M 46.659055302642514, 63.40562482170755 Q 50.71503947620727, 59.28077900091276, 53.2372665996983, 46.02055203042963 " fill="none" id="curve_26" stroke="#000000" stroke-linecap="round" stroke-linejoin="round" stroke-width="3.505267970040411"/>
  <path d="M 52.5171071971904, 45.517368577351306 Q 49.69701863661576, 46.70455456860999, 44.035591743120676, 49.331884082623134 " fill="none" id="curve_31" stroke="#000000" stroke-linecap="round" stroke-linejoin="round" stroke-width="3.0243564051515417"/>
  <path d="M 37.83626535987325, 85.71812175855293 Q 37.94485134537051, 95.38553101705887, 39.783895137730816, 96.83128248226093 " fill="none" id="curve_47" stroke="#000000" stroke-linecap="round" stroke-linejoin="round" stroke-width="2.859204117632824"/>
  <path d="M 25.95504125789175, 64.35452114747358 Q 29.640643527542128, 61.35465941336288, 36.216743654952126, 55.56251440178323 " fill="none" id="curve_48" stroke="#000000" stroke-linecap="round" stroke-linejoin="round" stroke-width="2.547285159161417"/>
  <path d="M 36.216743654952126, 55.56251440178323 Q 38.97742073090339, 52.598560303176235, 47.952080426592715, 50.20873796389399 " fill="none" id="curve_48" stroke="#000000" stroke-linecap="round" stroke-linejoin="round" stroke-width="2.6153128105612122"/>
  <path d="M 47.224684234156236, 62.34665529863487 Q 49.121981983375235, 56.998896144227906, 52.30326265335716, 49.299253530314374 " fill="none" id="curve_49" stroke="#000000" stroke-linecap="round" stroke-linejoin="round" stroke-width="3.0990287579481626"/>
  <path d="M 53.07381343841553, 44.72825813293457 Q 53.710310842828285, 44.68715773827943, 54.468402604379705, 44.61173501435833 " fill="none" id="curve_89" stroke="#000000" stroke-linecap="round" stroke-linejoin="round" stroke-width="3.4824305972845075"/>
  <path d="M 35.47927474975586, 79.15651941299438 Q 35.74236337045684, 75.1213235114332, 39.38228615246939, 73.9300833960054 " fill="none" id="curve_116" stroke="#000000" stroke-linecap="round" stroke-linejoin="round" stroke-width="2.712424536692112"/>
  <path d="M 51.53197513263967, 101.4377852481283 Q 54.5940897230426, 101.59660158963307, 57.193484391394534, 101.9955710801913 " fill="none" id="curve_123" stroke="#000000" stroke-linecap="round" stroke-linejoin="round" stroke-width="2.846858361552263"/>
</svg>
