<?xml version="1.0" ?>
<svg height="140" width="140" xmlns="http://www.w3.org/2000/svg">
  <path d="M 74.75188446044922, 68.98448944091797 Q 74.00121530992313, 79.60826588025732, 64.29714504384174, 88.28487823276646 " fill="none" id="curve_1" stroke="#000000" stroke-linecap="round" stroke-linejoin="round" stroke-width="5.998861168200028"/>
  <path d="M 64.29714504384174, 88.28487823276646 Q 59.950737389150305, 95.13634268273488, 38.17747752704122, 108.24599028239247 " fill="none" id="curve_1" stroke="#000000" stroke-linecap="round" stroke-linejoin="round" stroke-width="4.7516923905840205"/>
  <path d="M 38.17747752704122, 108.24599028239247 Q 33.77286857121069, 110.14800531613605, 28.060882115488496, 112.14661329094808 " fill="none" id="curve_1" stroke="#000000" stroke-linecap="round" stroke-linejoin="round" stroke-width="4.224840532474833"/>
  <path d="M 28.060882115488496, 112.14661329094808 Q 31.681444875068188, 115.3536251192648, 53.758663392951355, 116.13588636384071 " fill="none" id="curve_1" stroke="#000000" stroke-linecap="round" stroke-linejoin="round" stroke-width="3.254005278535955"/>
  <path d="M 53.758663392951355, 116.13588636384071 Q 60.085238282519995, 116.18340652518192, 69.85196573855427, 116.2235124850071 " fill="none" id="curve_1" stroke="#000000" stroke-linecap="round" stroke-linejoin="round" stroke-width="2.7352541951746314"/>
  <path d="M 76.99668697091951, 70.75139147197069 Q 76.21560525283753, 58.15160791216946, 62.94201128205984, 54.12977159842295 " fill="none" id="curve_3" stroke="#000000" stroke-linecap="round" stroke-linejoin="round" stroke-width="5.4172228906263005"/>
  <path d="M 62.94201128205984, 54.12977159842295 Q 57.66878226736549, 53.24782386898711, 52.8705363144908, 51.58942735011525 " fill="none" id="curve_3" stroke="#000000" stroke-linecap="round" stroke-linejoin="round" stroke-width="5.385435715126969"/>
  <path d="M 52.8705363144908, 51.58942735011525 Q 42.75142343918315, 52.93018800934675, 25.583973198194677, 57.187011307065326 " fill="none" id="curve_3" stroke="#000000" stroke-linecap="round" stroke-linejoin="round" stroke-width="5.030481917147345"/>
  <path d="M 25.583973198194677, 57.187011307065326 Q 19.281405297947362, 59.3717716974389, 17.353292786596946, 67.88568674307527 " fill="none" id="curve_3" stroke="#000000" stroke-linecap="round" stroke-linejoin="round" stroke-width="3.493702358551018"/>
  <path d="M 73.27630353624932, 74.72020034661695 Q 68.65369903932594, 81.9771515491322, 60.41526625008732, 89.81990469678831 " fill="none" id="curve_6" stroke="#000000" stroke-linecap="round" stroke-linejoin="round" stroke-width="3.1337128592598376"/>
  <path d="M 60.41526625008732, 89.81990469678831 Q 67.13126037966843, 83.50650887779918, 75.27920470969455, 71.67252585149167 " fill="none" id="curve_6" stroke="#000000" stroke-linecap="round" stroke-linejoin="round" stroke-width="4.419195584631462"/>
  <path d="M 75.27920470969455, 71.67252585149167 Q 74.50790484434496, 59.50847979751659, 66.73589819958974, 55.136639816755775 " fill="none" id="curve_6" stroke="#000000" stroke-linecap="round" stroke-linejoin="round" stroke-width="2.3255809267843897"/>
  <path d="M 66.73589819958974, 55.136639816755775 Q 66.78051705429338, 54.36760169886868, 66.87460934747075, 53.858007578951394 " fill="none" id="curve_6" stroke="#000000" stroke-linecap="round" stroke-linejoin="round" stroke-width="4.698271029518894"/>
  <path d="M 41.60496289897449, 52.385759565617725 Q 29.73224773165788, 54.49557116430152, 19.573314564053387, 59.208328123601305 " fill="none" id="curve_7" stroke="#000000" stroke-linecap="round" stroke-linejoin="round" stroke-width="3.335136573827608"/>
  <path d="M 16.258659254133285, 68.30875117431013 Q 16.49885876187166, 67.94900209263533, 16.882116705546878, 67.39239620386333 " fill="none" id="curve_8" stroke="#000000" stroke-linecap="round" stroke-linejoin="round" stroke-width="2.1008981621955836"/>
  <path d="M 43.39784288088504, 106.94253394662059 Q 34.2597658587936, 108.95935461962976, 25.953894911124767, 113.14377640115663 " fill="none" id="curve_9" stroke="#000000" stroke-linecap="round" stroke-linejoin="round" stroke-width="2.9535934839899203"/>
  <path d="M 61.26073833012056, 54.60655208617461 Q 66.38245485785222, 58.4373084347271, 74.29998665904085, 62.37294702967547 " fill="none" id="curve_14" stroke="#000000" stroke-linecap="round" stroke-linejoin="round" stroke-width="2.0947307159907624"/>
  <path d="M 55.270753734475036, 97.99852841817192 Q 56.835079338857064, 95.80481479729042, 59.38444712398273, 92.35990694510815 " fill="none" id="curve_20" stroke="#000000" stroke-linecap="round" stroke-linejoin="round" stroke-width="3.064434214906174"/>
  <path d="M 74.17940927545396, 71.57711688334734 Q 73.82213301220104, 72.22360769446657, 73.27289489978823, 73.14730087299863 " fill="none" id="curve_35" stroke="#000000" stroke-linecap="round" stroke-linejoin="round" stroke-width="3.354216289782062"/>
</svg>
