<?xml version="1.0" ?>
<svg height="140" width="140" xmlns="http://www.w3.org/2000/svg">
  <path d="M 64.0382194519043, 115.43267273902893 Q 61.067612866724446, 120.81928601231637, 50.354177665019506, 134.0089466473696 " fill="none" id="curve_1" stroke="#000000" stroke-linecap="round" stroke-linejoin="round" stroke-width="4.897686120197858"/>
  <path d="M 50.354177665019506, 134.0089466473696 Q 49.26060173412643, 137.77033119313995, 42.71534448278881, 138.62532137906746 " fill="none" id="curve_1" stroke="#000000" stroke-linecap="round" stroke-linejoin="round" stroke-width="3.9689892156271442"/>
  <path d="M 42.71534448278881, 138.62532137906746 Q 33.78850973548712, 138.38996249621732, 33.151650720625355, 123.62965330500866 " fill="none" id="curve_1" stroke="#000000" stroke-linecap="round" stroke-linejoin="round" stroke-width="4.8103760075379505"/>
  <path d="M 33.151650720625355, 123.62965330500866 Q 32.38735780839793, 120.12697069059809, 31.768957471196316, 100.2238980196547 " fill="none" id="curve_1" stroke="#000000" stroke-linecap="round" stroke-linejoin="round" stroke-width="4.982815358208281"/>
  <path d="M 31.768957471196316, 100.2238980196547 Q 33.865272683822596, 88.91751095437874, 44.3052308279173, 83.6481627210209 " fill="none" id="curve_1" stroke="#000000" stroke-linecap="round" stroke-linejoin="round" stroke-width="4.973340332486978"/>
  <path d="M 44.3052308279173, 83.6481627210209 Q 63.91178146805512, 86.06031711030411, 69.43191021167829, 106.0018991759286 " fill="none" id="curve_1" stroke="#000000" stroke-linecap="round" stroke-linejoin="round" stroke-width="5.093533627689587"/>
  <path d="M 69.43191021167829, 106.0018991759286 Q 64.85649707949293, 112.15712947652456, 60.266354892322205, 121.1336017561715 " fill="none" id="curve_1" stroke="#000000" stroke-linecap="round" stroke-linejoin="round" stroke-width="3.0201199342955856"/>
  <path d="M 76.1313984519922, 129.45140363981523 Q 73.17951925173513, 123.33081844269832, 69.69067983490154, 108.21168997373539 " fill="none" id="curve_2" stroke="#000000" stroke-linecap="round" stroke-linejoin="round" stroke-width="4.454624962103603"/>
  <path d="M 69.69067983490154, 108.21168997373539 Q 70.41118953359124, 92.74408103763446, 76.4748769362258, 78.6528191459526 " fill="none" id="curve_2" stroke="#000000" stroke-linecap="round" stroke-linejoin="round" stroke-width="4.259889657834668"/>
  <path d="M 76.4748769362258, 78.6528191459526 Q 77.75069952331941, 70.28824232846348, 80.72234732465279, 44.671119007599415 " fill="none" id="curve_2" stroke="#000000" stroke-linecap="round" stroke-linejoin="round" stroke-width="4.889707698191559"/>
  <path d="M 80.72234732465279, 44.671119007599415 Q 81.88879110436812, 40.597629048745574, 82.54493189663043, 28.713014124845515 " fill="none" id="curve_2" stroke="#000000" stroke-linecap="round" stroke-linejoin="round" stroke-width="4.704200612321969"/>
  <path d="M 82.54493189663043, 28.713014124845515 Q 81.97004458052237, 13.76457967811047, 73.20361412988122, 10.853000625871367 " fill="none" id="curve_2" stroke="#000000" stroke-linecap="round" stroke-linejoin="round" stroke-width="4.873233241880846"/>
  <path d="M 73.20361412988122, 10.853000625871367 Q 56.08851449551628, 12.168802214559117, 45.36460059319714, 37.076340253675994 " fill="none" id="curve_2" stroke="#000000" stroke-linecap="round" stroke-linejoin="round" stroke-width="4.649272049326585"/>
  <path d="M 45.36460059319714, 37.076340253675994 Q 40.00526130651077, 45.1480703977167, 30.442389062080245, 69.55209084465778 " fill="none" id="curve_2" stroke="#000000" stroke-linecap="round" stroke-linejoin="round" stroke-width="4.683257244138412"/>
  <path d="M 1.2556452930758795, 70.86076338148939 Q 2.722300235504828, 71.85321310806665, 2.874012303597798, 112.7400598245448 " fill="none" id="curve_3" stroke="#000000" stroke-linecap="round" stroke-linejoin="round" stroke-width="4.041552240843066"/>
  <path d="M 2.874012303597798, 112.7400598245448 Q 2.902672053061748, 132.97201098136864, 3.0413231985128335, 138.64733824295124 " fill="none" id="curve_3" stroke="#000000" stroke-linecap="round" stroke-linejoin="round" stroke-width="3.245012344983645"/>
  <path d="M 36.29217026545817, 130.99288704528811 Q 35.99964439562911, 129.68790901108738, 35.539138209657835, 128.1877634678945 " fill="none" id="curve_4" stroke="#000000" stroke-linecap="round" stroke-linejoin="round" stroke-width="3.1448973666139146"/>
  <path d="M 78.1914701692007, 131.7288795158142 Q 78.50713494244188, 132.5275853359404, 87.6301070397035, 132.60036901832888 " fill="none" id="curve_5" stroke="#000000" stroke-linecap="round" stroke-linejoin="round" stroke-width="5.877811886954126"/>
  <path d="M 87.6301070397035, 132.60036901832888 Q 88.47798262422602, 131.29835429205707, 89.30782069417289, 129.69805692727286 " fill="none" id="curve_5" stroke="#000000" stroke-linecap="round" stroke-linejoin="round" stroke-width="3.9776354405554772"/>
  <path d="M 81.53796768564159, 133.97373212819704 Q 76.6861787060118, 132.53314296426777, 73.18667194482094, 128.63857142974754 " fill="none" id="curve_6" stroke="#000000" stroke-linecap="round" stroke-linejoin="round" stroke-width="2.6823694034280035"/>
  <path d="M 60.70389658408628, 120.98582345805966 Q 60.753116679539595, 120.9884998228945, 60.791533339836704, 120.99706006792881 " fill="none" id="curve_7" stroke="#000000" stroke-linecap="round" stroke-linejoin="round" stroke-width="4.329934013939222"/>
  <path d="M 60.791533339836704, 120.99706006792881 Q 65.4565979032968, 117.37854423247332, 68.16568206377652, 100.13266409976765 " fill="none" id="curve_7" stroke="#000000" stroke-linecap="round" stroke-linejoin="round" stroke-width="3.147922380162285"/>
  <path d="M 2.929586411693144, 68.12430304996029 Q 2.6512501156934576, 62.73131716288229, 2.261305396041915, 39.010333218145895 " fill="none" id="curve_9" stroke="#000000" stroke-linecap="round" stroke-linejoin="round" stroke-width="3.9837762184478445"/>
  <path d="M 2.261305396041915, 39.010333218145895 Q 2.143785010602007, 32.63915845902146, 1.9587314473863933, 14.428347168657545 " fill="none" id="curve_9" stroke="#000000" stroke-linecap="round" stroke-linejoin="round" stroke-width="3.076339683625026"/>
  <path d="M 1.9587314473863933, 14.428347168657545 Q 2.071992326409309, 2.6088191146692132, 5.301157525240058, 1.5323320177412452 " fill="none" id="curve_9" stroke="#000000" stroke-linecap="round" stroke-linejoin="round" stroke-width="3.630345715566366"/>
  <path d="M 5.301157525240058, 1.5323320177412452 Q 2.955223180644318, 2.011534964475396, 1.679441016397039, 3.3829484693622476 " fill="none" id="curve_9" stroke="#000000" stroke-linecap="round" stroke-linejoin="round" stroke-width="3.888453475168271"/>
  <path d="M 62.88691711543436, 13.059242899223094 Q 63.28109714029541, 12.241733964648157, 64.59490415839768, 11.309306137940297 " fill="none" id="curve_11" stroke="#000000" stroke-linecap="round" stroke-linejoin="round" stroke-width="3.1258282229336927"/>
  <path d="M 31.230840985969202, 71.17959717307886 Q 31.838164188247372, 70.69153632811759, 32.47489585502084, 69.49919158044524 " fill="none" id="curve_13" stroke="#000000" stroke-linecap="round" stroke-linejoin="round" stroke-width="2.9391176438153304"/>
  <path d="M 32.47489585502084, 69.49919158044524 Q 35.81659654848317, 52.30589672469777, 52.132403099670654, 23.83620122393193 " fill="none" id="curve_13" stroke="#000000" stroke-linecap="round" stroke-linejoin="round" stroke-width="2.323275098877737"/>
  <path d="M 52.132403099670654, 23.83620122393193 Q 55.8170074483413, 16.99652747243289, 66.61229343769419, 11.257257570639348 " fill="none" id="curve_13" stroke="#000000" stroke-linecap="round" stroke-linejoin="round" stroke-width="2.3580717263376467"/>
  <path d="M 78.24861030727902, 20.095740045949757 Q 78.05885734890501, 17.739157347998855, 77.70695779175398, 12.515163118503418 " fill="none" id="curve_15" stroke="#000000" stroke-linecap="round" stroke-linejoin="round" stroke-width="2.5180752171896734"/>
  <path d="M 33.84462100188549, 57.571918974425785 Q 36.37355315441192, 50.48872333117391, 42.04420045067704, 42.540632868749086 " fill="none" id="curve_19" stroke="#000000" stroke-linecap="round" stroke-linejoin="round" stroke-width="2.3341044084772937"/>
  <path d="M 59.377553206996595, 14.653437454060917 Q 62.811788132003244, 12.565855107189302, 68.08870590878684, 10.135430256964868 " fill="none" id="curve_20" stroke="#000000" stroke-linecap="round" stroke-linejoin="round" stroke-width="2.410454679120479"/>
  <path d="M 76.27384285584, 73.40469095488965 Q 75.12781160523912, 78.63104909492176, 73.63817341612206, 86.24742382530727 " fill="none" id="curve_23" stroke="#000000" stroke-linecap="round" stroke-linejoin="round" stroke-width="2.500132188817807"/>
  <path d="M 81.35063599400769, 29.035007253857906 Q 81.29966321553223, 26.75363525915546, 81.20099871492802, 24.27629991015426 " fill="none" id="curve_27" stroke="#000000" stroke-linecap="round" stroke-linejoin="round" stroke-width="3.7604914140629426"/>
  <path d="M 3.617686222628047, 75.61078151915302 Q 2.717193586049899, 73.01700451679675, 2.086293440857517, 61.3772326615257 " fill="none" id="curve_31" stroke="#000000" stroke-linecap="round" stroke-linejoin="round" stroke-width="1.687535876288366"/>
  <path d="M 41.06882515128268, 40.20350468362372 Q 45.55397101966207, 35.58678853051451, 51.509473139275954, 23.50075686425119 " fill="none" id="curve_42" stroke="#000000" stroke-linecap="round" stroke-linejoin="round" stroke-width="2.0257577879913424"/>
  <path d="M 61.93384466380303, 95.5261796891973 Q 66.59827346895815, 98.49878183533436, 68.99219897939015, 106.6555773304493 " fill="none" id="curve_57" stroke="#000000" stroke-linecap="round" stroke-linejoin="round" stroke-width="2.195103087258351"/>
  <path d="M 56.0655300935151, 127.7944322812179 Q 59.782599433502185, 120.51837059603159, 66.0711368339411, 111.66607101285081 " fill="none" id="curve_59" stroke="#000000" stroke-linecap="round" stroke-linejoin="round" stroke-width="2.6253924703201608"/>
  <path d="M 47.408060451815075, 84.66374666553341 Q 46.01041403005639, 84.36949373887177, 42.970403296588856, 83.89540059385168 " fill="none" id="curve_61" stroke="#000000" stroke-linecap="round" stroke-linejoin="round" stroke-width="3.160277034433533"/>
  <path d="M 49.246009923818484, 82.80191279991492 Q 42.96063228109123, 83.50042120146598, 38.09138035786313, 86.73866004944674 " fill="none" id="curve_85" stroke="#000000" stroke-linecap="round" stroke-linejoin="round" stroke-width="2.1021452262264484"/>
  <path d="M 38.09138035786313, 86.73866004944674 Q 37.58252329964526, 87.36065496446113, 36.57377013242587, 88.66358154762248 " fill="none" id="curve_85" stroke="#000000" stroke-linecap="round" stroke-linejoin="round" stroke-width="2.5203275904112594"/>
  <path d="M 81.8719260919089, 52.45417952337277 Q 80.87607628534104, 52.76159675173817, 79.14927953385356, 53.32284718824848 " fill="none" id="curve_100" stroke="#000000" stroke-linecap="round" stroke-linejoin="round" stroke-width="2.6138278186257864"/>
  <path d="M 66.03748734056057, 103.3977404943148 Q 65.64937480940557, 100.39991273374031, 63.958857166919714, 98.79857337317833 " fill="none" id="curve_115" stroke="#000000" stroke-linecap="round" stroke-linejoin="round" stroke-width="2.5701024145035674"/>
  <path d="M 36.94892018409964, 88.40419072355087 Q 36.922045775607806, 88.05039748986965, 36.82307541045948, 87.58576835729886 " fill="none" id="curve_117" stroke="#000000" stroke-linecap="round" stroke-linejoin="round" stroke-width="2.1975704445346653"/>
  <path d="M 3.6816599350930974, 20.784063333010977 Q 3.4844985505488824, 20.324883403003053, 3.065322803472517, 19.938020379336802 " fill="none" id="curve_151" stroke="#000000" stroke-linecap="round" stroke-linejoin="round" stroke-width="2.394143210293732"/>
</svg>
