<?xml version="1.0" ?>
<svg height="140" width="140" xmlns="http://www.w3.org/2000/svg">
  <path d="M 54.28720129190415, 115.59931841933255 Q 52.0579450633639, 119.33142716096218, 36.90743329550226, 120.20761016384256 " fill="none" id="curve_4" stroke="#000000" stroke-linecap="round" stroke-linejoin="round" stroke-width="5.215340354073929"/>
  <path d="M 36.90743329550226, 120.20761016384256 Q 23.217399744919994, 118.53816672463992, 18.59201847698244, 106.15402115092878 " fill="none" id="curve_4" stroke="#000000" stroke-linecap="round" stroke-linejoin="round" stroke-width="5.163785624611046"/>
  <path d="M 18.59201847698244, 106.15402115092878 Q 20.712296914058474, 92.61360991722142, 31.021724060374304, 73.47011512296447 " fill="none" id="curve_4" stroke="#000000" stroke-linecap="round" stroke-linejoin="round" stroke-width="4.684191292704038"/>
  <path d="M 31.021724060374304, 73.47011512296447 Q 34.23740040701365, 63.03999913254884, 44.06363230295656, 41.92469571999926 " fill="none" id="curve_4" stroke="#000000" stroke-linecap="round" stroke-linejoin="round" stroke-width="5.100232977847592"/>
  <path d="M 44.06363230295656, 41.92469571999926 Q 44.56217026106659, 40.79534444876404, 44.659747910048736, 31.175747310262963 " fill="none" id="curve_4" stroke="#000000" stroke-linecap="round" stroke-linejoin="round" stroke-width="6.4654832361890175"/>
  <path d="M 44.659747910048736, 31.175747310262963 Q 43.25521374214031, 28.73019487861545, 29.432242111887696, 28.207510003767403 " fill="none" id="curve_4" stroke="#000000" stroke-linecap="round" stroke-linejoin="round" stroke-width="6.129224545423435"/>
  <path d="M 29.432242111887696, 28.207510003767403 Q 11.440283932456161, 28.87904931830596, 8.796481885883892, 43.191817239284894 " fill="none" id="curve_4" stroke="#000000" stroke-linecap="round" stroke-linejoin="round" stroke-width="4.5724706830829245"/>
  <path d="M 42.061308232859815, 43.44666560233023 Q 42.35425884146611, 42.5046584117317, 42.73489528725855, 40.688302708612426 " fill="none" id="curve_5" stroke="#000000" stroke-linecap="round" stroke-linejoin="round" stroke-width="4.635040928103746"/>
  <path d="M 44.434072695352874, 41.162016729833624 Q 41.827561680127026, 50.239670130192664, 35.473049702464664, 59.40380810150161 " fill="none" id="curve_7" stroke="#000000" stroke-linecap="round" stroke-linejoin="round" stroke-width="2.896311347303966"/>
  <path d="M 18.561790457965202, 27.870407685658453 Q 16.69461553686324, 30.163242824741435, 13.446792895188365, 32.94189190548091 " fill="none" id="curve_8" stroke="#000000" stroke-linecap="round" stroke-linejoin="round" stroke-width="2.9098577131084236"/>
  <path d="M 36.96641661839845, 55.674066648372275 Q 40.81987329003359, 51.88333657383295, 44.07707089883067, 42.317062929553984 " fill="none" id="curve_15" stroke="#000000" stroke-linecap="round" stroke-linejoin="round" stroke-width="2.9272145520728636"/>
  <path d="M 43.53511032575422, 43.90850024584362 Q 42.32976554261164, 46.96121763468032, 39.25160371123011, 50.00395251827673 " fill="none" id="curve_17" stroke="#000000" stroke-linecap="round" stroke-linejoin="round" stroke-width="3.681338347222367"/>
  <path d="M 21.919291957575986, 95.387238291145 Q 19.76611015831022, 96.30113611638073, 16.74639160189639, 98.65172926710952 " fill="none" id="curve_18" stroke="#000000" stroke-linecap="round" stroke-linejoin="round" stroke-width="2.9240097220109416"/>
  <path d="M 52.34793449650829, 115.37900669955815 Q 55.15365894322195, 114.80004844324858, 57.672509987797206, 113.74017683710483 " fill="none" id="curve_33" stroke="#000000" stroke-linecap="round" stroke-linejoin="round" stroke-width="2.3366851373344004"/>
  <path d="M 33.79573789912211, 117.79762673284134 Q 27.465240276705657, 116.2448347866002, 22.672587125586347, 111.57082924532098 " fill="none" id="curve_34" stroke="#000000" stroke-linecap="round" stroke-linejoin="round" stroke-width="2.76889147978233"/>
  <path d="M 18.433420359823668, 98.70534854294256 Q 19.92999875775116, 90.23313801986177, 26.748740544386223, 86.0107698453479 " fill="none" id="curve_35" stroke="#000000" stroke-linecap="round" stroke-linejoin="round" stroke-width="3.2311095061247777"/>
  <path d="M 31.3865940880805, 68.4276491073701 Q 33.29803415026115, 59.66461266533531, 40.754647395131805, 53.12993811323 " fill="none" id="curve_36" stroke="#000000" stroke-linecap="round" stroke-linejoin="round" stroke-width="2.3545935190438483"/>
  <path d="M 41.36996042266799, 46.53832110618855 Q 41.82177946823491, 43.59041400603932, 42.50206664671009, 38.58918220956721 " fill="none" id="curve_39" stroke="#000000" stroke-linecap="round" stroke-linejoin="round" stroke-width="3.445114667911578"/>
  <path d="M 33.098110887255025, 26.111110323456465 Q 26.11705415893425, 28.019999677969697, 14.859765455886357, 30.345205210116823 " fill="none" id="curve_40" stroke="#000000" stroke-linecap="round" stroke-linejoin="round" stroke-width="3.5836360369307894"/>
  <path d="M 7.729732722481554, 44.521626662081566 Q 8.278203903627604, 43.93963633353223, 9.25844900105634, 42.652565663064564 " fill="none" id="curve_43" stroke="#000000" stroke-linecap="round" stroke-linejoin="round" stroke-width="2.450998926780015"/>
  <path d="M 24.061210473821586, 27.585628865134165 Q 24.888856901125415, 27.17457771439096, 29.37312627739698, 26.900800052322364 " fill="none" id="curve_44" stroke="#000000" stroke-linecap="round" stroke-linejoin="round" stroke-width="2.803900150096937"/>
  <path d="M 44.46360733334019, 42.376291737791625 Q 43.027330812000024, 44.25969141705407, 40.097224208961414, 47.457531182595545 " fill="none" id="curve_55" stroke="#000000" stroke-linecap="round" stroke-linejoin="round" stroke-width="3.7066523482760623"/>
  <path d="M 47.58919495540646, 34.22630753841622 Q 45.448041934641616, 33.24603087743362, 42.11132289470156, 31.37462402537691 " fill="none" id="curve_70" stroke="#000000" stroke-linecap="round" stroke-linejoin="round" stroke-width="2.9251836088887"/>
  <path d="M 39.0923568549099, 117.90148621877945 Q 45.68732250933599, 117.62259462830673, 51.35833561714237, 117.07838032806279 " fill="none" id="curve_86" stroke="#000000" stroke-linecap="round" stroke-linejoin="round" stroke-width="2.2746609885481712"/>
  <path d="M 18.646271625457228, 104.0216999506069 Q 18.795903095663324, 103.42599071101257, 18.954450400860694, 102.12029715081023 " fill="none" id="curve_88" stroke="#000000" stroke-linecap="round" stroke-linejoin="round" stroke-width="2.9604834082173865"/>
  <path d="M 26.791016354076348, 27.745030932673465 Q 24.794718863384976, 28.774954952227468, 19.243878631577715, 29.54921675463504 " fill="none" id="curve_97" stroke="#000000" stroke-linecap="round" stroke-linejoin="round" stroke-width="4.287879462142926"/>
  <path d="M 37.64745092225606, 27.667428658617794 Q 38.89988104020632, 27.437722979284917, 40.93662870551628, 26.917220088734567 " fill="none" id="curve_104" stroke="#000000" stroke-linecap="round" stroke-linejoin="round" stroke-width="3.3603324200935667"/>
  <path d="M 24.796867078728162, 29.236816635611653 Q 24.246888384116815, 28.972461413952438, 21.934921085980292, 28.581654982589377 " fill="none" id="curve_113" stroke="#000000" stroke-linecap="round" stroke-linejoin="round" stroke-width="3.107862525595262"/>
  <path d="M 19.985521650995043, 105.50685055196162 Q 20.533778076024234, 107.76271202163514, 21.23742984956257, 110.94172472673787 " fill="none" id="curve_131" stroke="#000000" stroke-linecap="round" stroke-linejoin="round" stroke-width="3.263993644410558"/>
  <path d="M 42.487725393788494, 48.03948524096579 Q 43.45305872347421, 47.35234319773033, 44.59996832591498, 46.41044689896464 " fill="none" id="curve_160" stroke="#000000" stroke-linecap="round" stroke-linejoin="round" stroke-width="3.1269204858881277"/>
  <path d="M 19.93181713112839, 28.809950897710564 Q 20.813830936210604, 28.80235715374265, 23.095820006716096, 28.793926232316622 " fill="none" id="curve_179" stroke="#000000" stroke-linecap="round" stroke-linejoin="round" stroke-width="4.206244935047652"/>
  <path d="M 28.634777262119844, 29.033379897351516 Q 24.629386480859118, 29.471301065618004, 19.11433128389526, 30.232437837659432 " fill="none" id="curve_188" stroke="#000000" stroke-linecap="round" stroke-linejoin="round" stroke-width="3.9660292756027835"/>
  <path d="M 22.867764749425987, 30.506321068794477 Q 22.305615370235266, 29.41434794839222, 20.45699586144772, 28.29957887083771 " fill="none" id="curve_216" stroke="#000000" stroke-linecap="round" stroke-linejoin="round" stroke-width="3.2250314087160525"/>
</svg>
