<?xml version="1.0" ?>
<svg height="140" width="140" xmlns="http://www.w3.org/2000/svg">
  <path d="M 48.4946231842041, 41.972787857055664 Q 39.06699402897512, 44.00522590330615, 23.036758322406286, 61.85173115533871 " fill="none" id="curve_1" stroke="#000000" stroke-linecap="round" stroke-linejoin="round" stroke-width="4.797018360373835"/>
  <path d="M 23.036758322406286, 61.85173115533871 Q 18.2706910699615, 67.78013640053852, 12.892301216870724, 75.76295416129565 " fill="none" id="curve_1" stroke="#000000" stroke-linecap="round" stroke-linejoin="round" stroke-width="4.301714704920385"/>
  <path d="M 45.08465232024956, 77.85372096942243 Q 42.02292134061201, 87.37712781582543, 23.432014243016873, 106.79646346598942 " fill="none" id="curve_2" stroke="#000000" stroke-linecap="round" stroke-linejoin="round" stroke-width="5.063787175702143"/>
  <path d="M 23.432014243016873, 106.79646346598942 Q 20.3857616026872, 110.55803561274531, 15.209855016887762, 113.28958519519193 " fill="none" id="curve_2" stroke="#000000" stroke-linecap="round" stroke-linejoin="round" stroke-width="5.261664741310499"/>
  <path d="M 15.209855016887762, 113.28958519519193 Q 19.70260407305562, 109.32476583956641, 28.442953457448723, 105.96655868739187 " fill="none" id="curve_2" stroke="#000000" stroke-linecap="round" stroke-linejoin="round" stroke-width="4.226262991651773"/>
  <path d="M 28.442953457448723, 105.96655868739187 Q 38.20884489632935, 104.08322337322574, 45.839625850928456, 101.22136095439227 " fill="none" id="curve_2" stroke="#000000" stroke-linecap="round" stroke-linejoin="round" stroke-width="4.447947008164265"/>
  <path d="M 45.839625850928456, 101.22136095439227 Q 61.761313839316514, 104.44774494909275, 68.28817911754166, 112.9193700310432 " fill="none" id="curve_2" stroke="#000000" stroke-linecap="round" stroke-linejoin="round" stroke-width="3.979822685343742"/>
  <path d="M 46.85212280406392, 79.75512177841435 Q 51.01504570353588, 72.43558362401127, 62.44734271898684, 57.50456821435294 " fill="none" id="curve_3" stroke="#000000" stroke-linecap="round" stroke-linejoin="round" stroke-width="5.781868598307109"/>
  <path d="M 62.44734271898684, 57.50456821435294 Q 63.556548827370854, 52.88931159130654, 65.19670163182991, 49.21696614899305 " fill="none" id="curve_3" stroke="#000000" stroke-linecap="round" stroke-linejoin="round" stroke-width="6.671010401619714"/>
  <path d="M 65.19670163182991, 49.21696614899305 Q 64.88456440664199, 40.74917815233593, 59.69412637623621, 39.85641316651164 " fill="none" id="curve_3" stroke="#000000" stroke-linecap="round" stroke-linejoin="round" stroke-width="5.414814459198401"/>
  <path d="M 59.69412637623621, 39.85641316651164 Q 41.9842102417247, 40.208628544760806, 39.046182370096886, 46.05327423186489 " fill="none" id="curve_3" stroke="#000000" stroke-linecap="round" stroke-linejoin="round" stroke-width="4.218937707329741"/>
  <path d="M 49.07821796801159, 74.45056901560464 Q 47.594523072513, 74.87476505914539, 46.541175610414456, 76.77388218135042 " fill="none" id="curve_4" stroke="#000000" stroke-linecap="round" stroke-linejoin="round" stroke-width="3.318056512843214"/>
  <path d="M 46.541175610414456, 76.77388218135042 Q 40.81626701280025, 88.07864980108013, 24.68766943347419, 103.99959754823038 " fill="none" id="curve_4" stroke="#000000" stroke-linecap="round" stroke-linejoin="round" stroke-width="2.2576277101142965"/>
  <path d="M 49.220845497401896, 102.4601896548747 Q 44.18488908388366, 102.52466203200906, 38.643341817351484, 102.70878964219192 " fill="none" id="curve_5" stroke="#000000" stroke-linecap="round" stroke-linejoin="round" stroke-width="3.1656472111880043"/>
  <path d="M 40.71887471890341, 46.95134600482006 Q 32.48009721942855, 49.16987440366491, 27.04936316425379, 56.57754233581745 " fill="none" id="curve_8" stroke="#000000" stroke-linecap="round" stroke-linejoin="round" stroke-width="2.7931398522568216"/>
  <path d="M 44.59227405036469, 82.93467996171933 Q 45.95344274128357, 79.83248112667145, 47.77479628811243, 73.30649698857687 " fill="none" id="curve_9" stroke="#000000" stroke-linecap="round" stroke-linejoin="round" stroke-width="3.1368900621293108"/>
  <path d="M 52.26569575139387, 101.18803546794518 Q 55.67201289776738, 102.58381188521523, 59.62391784158252, 104.74418574168038 " fill="none" id="curve_10" stroke="#000000" stroke-linecap="round" stroke-linejoin="round" stroke-width="1.824239898971035"/>
  <path d="M 55.54160695006374, 38.1936061649523 Q 50.612512147566285, 40.59849558632469, 43.13523616775601, 45.23500072814635 " fill="none" id="curve_31" stroke="#000000" stroke-linecap="round" stroke-linejoin="round" stroke-width="2.392019674015799"/>
</svg>
